<?xml version="1.0" encoding="UTF-8" standalone="no"?>
<!DOCTYPE svg PUBLIC "-//W3C//DTD SVG 1.1//EN"
 "http://www.w3.org/Graphics/SVG/1.1/DTD/svg11.dtd">
<!-- Generated by graphviz version 2.43.0 (0)
 -->
<!-- Title: Kit/System/Assert.h Pages: 1 -->
<svg width="536pt" height="368pt"
 viewBox="0.00 0.00 536.00 368.00" xmlns="http://www.w3.org/2000/svg" xmlns:xlink="http://www.w3.org/1999/xlink">
<g id="graph0" class="graph" transform="scale(1 1) rotate(0) translate(4 364)">
<title>Kit/System/Assert.h</title>
<!-- Node1 -->
<g id="Node000001" class="node">
<title>Node1</title>
<g id="a_Node000001"><a xlink:title=" ">
<polygon fill="#999999" stroke="#666666" points="404,-360 291,-360 291,-341 404,-341 404,-360"/>
<text text-anchor="middle" x="347.5" y="-348" font-family="Helvetica,sans-Serif" font-size="10.00">Kit/System/Assert.h</text>
</a>
</g>
</g>
<!-- Node2 -->
<g id="Node000002" class="node">
<title>Node2</title>
<g id="a_Node000002"><a xlink:href="_key_8h.html" target="_top" xlink:title=" ">
<polygon fill="white" stroke="#666666" points="332,-299.5 223,-299.5 223,-280.5 332,-280.5 332,-299.5"/>
<text text-anchor="middle" x="277.5" y="-287.5" font-family="Helvetica,sans-Serif" font-size="10.00">Kit/Container/Key.h</text>
</a>
</g>
</g>
<!-- Node1&#45;&gt;Node2 -->
<g id="edge1_Node000001_Node000002" class="edge">
<title>Node1&#45;&gt;Node2</title>
<g id="a_edge1_Node000001_Node000002"><a xlink:title=" ">
<path fill="none" stroke="#63b8ff" d="M329.22,-334.22C316.05,-323.21 298.74,-308.75 287.87,-299.67"/>
<polygon fill="#63b8ff" stroke="#63b8ff" points="327.25,-337.14 337.17,-340.87 331.74,-331.77 327.25,-337.14"/>
</a>
</g>
</g>
<!-- Node15 -->
<g id="Node000015" class="node">
<title>Node15</title>
<g id="a_Node000015"><a xlink:href="_ring_buffer_base_8h.html" target="_top" xlink:title=" ">
<polygon fill="white" stroke="#666666" points="484.5,-305 350.5,-305 350.5,-275 484.5,-275 484.5,-305"/>
<text text-anchor="start" x="358.5" y="-293" font-family="Helvetica,sans-Serif" font-size="10.00">Kit/Container/RingBuffer</text>
<text text-anchor="middle" x="417.5" y="-282" font-family="Helvetica,sans-Serif" font-size="10.00">Base.h</text>
</a>
</g>
</g>
<!-- Node1&#45;&gt;Node15 -->
<g id="edge16_Node000001_Node000015" class="edge">
<title>Node1&#45;&gt;Node15</title>
<g id="a_edge16_Node000001_Node000015"><a xlink:title=" ">
<path fill="none" stroke="#63b8ff" d="M365.77,-334.23C376.54,-325.23 390.08,-313.91 400.61,-305.11"/>
<polygon fill="#63b8ff" stroke="#63b8ff" points="363.26,-331.77 357.83,-340.87 367.75,-337.14 363.26,-331.77"/>
</a>
</g>
</g>
<!-- Node3 -->
<g id="Node000003" class="node">
<title>Node3</title>
<g id="a_Node000003"><a xlink:href="_keyed_item_8h.html" target="_top" xlink:title=" ">
<polygon fill="white" stroke="#666666" points="203,-239 58,-239 58,-220 203,-220 203,-239"/>
<text text-anchor="middle" x="130.5" y="-227" font-family="Helvetica,sans-Serif" font-size="10.00">Kit/Container/KeyedItem.h</text>
</a>
</g>
</g>
<!-- Node2&#45;&gt;Node3 -->
<g id="edge2_Node000002_Node000003" class="edge">
<title>Node2&#45;&gt;Node3</title>
<g id="a_edge2_Node000002_Node000003"><a xlink:title=" ">
<path fill="none" stroke="#63b8ff" d="M246.67,-276.73C218.26,-265.42 176.84,-248.94 151.9,-239.02"/>
<polygon fill="#63b8ff" stroke="#63b8ff" points="245.54,-280.05 256.12,-280.49 248.13,-273.54 245.54,-280.05"/>
</a>
</g>
</g>
<!-- Node9 -->
<g id="Node000009" class="node">
<title>Node9</title>
<g id="a_Node000009"><a xlink:href="_i_string_8h.html" target="_top" xlink:title=" ">
<polygon fill="white" stroke="#666666" points="327,-239 230,-239 230,-220 327,-220 327,-239"/>
<text text-anchor="middle" x="278.5" y="-227" font-family="Helvetica,sans-Serif" font-size="10.00">Kit/Text/IString.h</text>
</a>
</g>
</g>
<!-- Node2&#45;&gt;Node9 -->
<g id="edge8_Node000002_Node000009" class="edge">
<title>Node2&#45;&gt;Node9</title>
<g id="a_edge8_Node000002_Node000009"><a xlink:title=" ">
<path fill="none" stroke="#63b8ff" d="M277.82,-270.16C278,-259.74 278.21,-247.3 278.35,-239.17"/>
<polygon fill="#63b8ff" stroke="#63b8ff" points="274.32,-270.31 277.65,-280.37 281.32,-270.43 274.32,-270.31"/>
</a>
</g>
</g>
<!-- Node4 -->
<g id="Node000004" class="node">
<title>Node4</title>
<g id="a_Node000004"><a xlink:href="_map_item_8h.html" target="_top" xlink:title=" ">
<polygon fill="white" stroke="#666666" points="181.5,-184 45.5,-184 45.5,-165 181.5,-165 181.5,-184"/>
<text text-anchor="middle" x="113.5" y="-172" font-family="Helvetica,sans-Serif" font-size="10.00">Kit/Container/MapItem.h</text>
</a>
</g>
</g>
<!-- Node3&#45;&gt;Node4 -->
<g id="edge3_Node000003_Node000004" class="edge">
<title>Node3&#45;&gt;Node4</title>
<g id="a_edge3_Node000003_Node000004"><a xlink:title=" ">
<path fill="none" stroke="#63b8ff" d="M124.55,-209.95C121.73,-201.15 118.49,-191.06 116.25,-184.09"/>
<polygon fill="#63b8ff" stroke="#63b8ff" points="121.31,-211.29 127.69,-219.75 127.97,-209.16 121.31,-211.29"/>
</a>
</g>
</g>
<!-- Node5 -->
<g id="Node000005" class="node">
<title>Node5</title>
<g id="a_Node000005"><a xlink:href="_avl_tree___8h.html" target="_top" xlink:title=" ">
<polygon fill="white" stroke="#666666" points="133,-129 0,-129 0,-110 133,-110 133,-129"/>
<text text-anchor="middle" x="66.5" y="-117" font-family="Helvetica,sans-Serif" font-size="10.00">Kit/Container/AvlTree_.h</text>
</a>
</g>
</g>
<!-- Node4&#45;&gt;Node5 -->
<g id="edge4_Node000004_Node000005" class="edge">
<title>Node4&#45;&gt;Node5</title>
<g id="a_edge4_Node000004_Node000005"><a xlink:title=" ">
<path fill="none" stroke="#63b8ff" d="M99.08,-157.24C90.84,-147.95 80.85,-136.68 74.12,-129.09"/>
<polygon fill="#63b8ff" stroke="#63b8ff" points="96.49,-159.59 105.74,-164.75 101.72,-154.94 96.49,-159.59"/>
</a>
</g>
</g>
<!-- Node7 -->
<g id="Node000007" class="node">
<title>Node7</title>
<g id="a_Node000007"><a xlink:href="_string_item_8h.html" target="_top" xlink:title=" ">
<polygon fill="white" stroke="#666666" points="267.5,-129 151.5,-129 151.5,-110 267.5,-110 267.5,-129"/>
<text text-anchor="middle" x="209.5" y="-117" font-family="Helvetica,sans-Serif" font-size="10.00">Kit/Text/StringItem.h</text>
</a>
</g>
</g>
<!-- Node4&#45;&gt;Node7 -->
<g id="edge6_Node000004_Node000007" class="edge">
<title>Node4&#45;&gt;Node7</title>
<g id="a_edge6_Node000004_Node000007"><a xlink:title=" ">
<path fill="none" stroke="#63b8ff" d="M138.02,-159.97C155.56,-150.28 178.67,-137.52 193.8,-129.17"/>
<polygon fill="#63b8ff" stroke="#63b8ff" points="135.99,-157.09 128.92,-164.98 139.37,-163.22 135.99,-157.09"/>
</a>
</g>
</g>
<!-- Node6 -->
<g id="Node000006" class="node">
<title>Node6</title>
<g id="a_Node000006"><a xlink:href="_map_8h.html" target="_top" xlink:title=" ">
<polygon fill="white" stroke="#666666" points="123,-74 10,-74 10,-55 123,-55 123,-74"/>
<text text-anchor="middle" x="66.5" y="-62" font-family="Helvetica,sans-Serif" font-size="10.00">Kit/Container/Map.h</text>
</a>
</g>
</g>
<!-- Node5&#45;&gt;Node6 -->
<g id="edge5_Node000005_Node000006" class="edge">
<title>Node5&#45;&gt;Node6</title>
<g id="a_edge5_Node000005_Node000006"><a xlink:title=" ">
<path fill="none" stroke="#63b8ff" d="M66.5,-99.66C66.5,-90.93 66.5,-80.99 66.5,-74.09"/>
<polygon fill="#63b8ff" stroke="#63b8ff" points="63,-99.75 66.5,-109.75 70,-99.75 63,-99.75"/>
</a>
</g>
</g>
<!-- Node8 -->
<g id="Node000008" class="node">
<title>Node8</title>
<g id="a_Node000008"><a xlink:href="_f_string_item_8h.html" target="_top" xlink:title=" ">
<polygon fill="white" stroke="#666666" points="354.5,-19 232.5,-19 232.5,0 354.5,0 354.5,-19"/>
<text text-anchor="middle" x="293.5" y="-7" font-family="Helvetica,sans-Serif" font-size="10.00">Kit/Text/FStringItem.h</text>
</a>
</g>
</g>
<!-- Node7&#45;&gt;Node8 -->
<g id="edge7_Node000007_Node000008" class="edge">
<title>Node7&#45;&gt;Node8</title>
<g id="a_edge7_Node000007_Node000008"><a xlink:title=" ">
<path fill="none" stroke="#63b8ff" d="M222.57,-101.69C240.71,-78.37 272.85,-37.05 286.77,-19.16"/>
<polygon fill="#63b8ff" stroke="#63b8ff" points="219.75,-99.62 216.37,-109.66 225.28,-103.92 219.75,-99.62"/>
</a>
</g>
</g>
<!-- Node9&#45;&gt;Node7 -->
<g id="edge15_Node000009_Node000007" class="edge">
<title>Node9&#45;&gt;Node7</title>
<g id="a_edge15_Node000009_Node000007"><a xlink:title=" ">
<path fill="none" stroke="#63b8ff" d="M256.89,-213.64C246.98,-205.85 235.84,-195.52 228.5,-184 217.37,-166.53 212.5,-142.23 210.59,-129.35"/>
<polygon fill="#63b8ff" stroke="#63b8ff" points="255.04,-216.63 265.15,-219.81 259.23,-211.02 255.04,-216.63"/>
</a>
</g>
</g>
<!-- Node10 -->
<g id="Node000010" class="node">
<title>Node10</title>
<g id="a_Node000010"><a xlink:href="_format_8h.html" target="_top" xlink:title=" ">
<polygon fill="white" stroke="#666666" points="337.5,-184 237.5,-184 237.5,-165 337.5,-165 337.5,-184"/>
<text text-anchor="middle" x="287.5" y="-172" font-family="Helvetica,sans-Serif" font-size="10.00">Kit/Text/Format.h</text>
</a>
</g>
</g>
<!-- Node9&#45;&gt;Node10 -->
<g id="edge9_Node000009_Node000010" class="edge">
<title>Node9&#45;&gt;Node10</title>
<g id="a_edge9_Node000009_Node000010"><a xlink:title=" ">
<path fill="none" stroke="#63b8ff" d="M281.7,-209.66C283.18,-200.93 284.87,-190.99 286.04,-184.09"/>
<polygon fill="#63b8ff" stroke="#63b8ff" points="278.21,-209.3 279.99,-219.75 285.11,-210.48 278.21,-209.3"/>
</a>
</g>
</g>
<!-- Node11 -->
<g id="Node000011" class="node">
<title>Node11</title>
<g id="a_Node000011"><a xlink:href="_string_base_8h.html" target="_top" xlink:title=" ">
<polygon fill="white" stroke="#666666" points="473.5,-184 355.5,-184 355.5,-165 473.5,-165 473.5,-184"/>
<text text-anchor="middle" x="414.5" y="-172" font-family="Helvetica,sans-Serif" font-size="10.00">Kit/Text/StringBase.h</text>
</a>
</g>
</g>
<!-- Node9&#45;&gt;Node11 -->
<g id="edge10_Node000009_Node000011" class="edge">
<title>Node9&#45;&gt;Node11</title>
<g id="a_edge10_Node000009_Node000011"><a xlink:title=" ">
<path fill="none" stroke="#63b8ff" d="M309.83,-216.29C335.04,-206.47 369.83,-192.91 392.25,-184.17"/>
<polygon fill="#63b8ff" stroke="#63b8ff" points="308.4,-213.09 300.35,-219.98 310.94,-219.61 308.4,-213.09"/>
</a>
</g>
</g>
<!-- Node12 -->
<g id="Node000012" class="node">
<title>Node12</title>
<g id="a_Node000012"><a xlink:href="_d_string_8h.html" target="_top" xlink:title=" ">
<polygon fill="white" stroke="#666666" points="387,-129 286,-129 286,-110 387,-110 387,-129"/>
<text text-anchor="middle" x="336.5" y="-117" font-family="Helvetica,sans-Serif" font-size="10.00">Kit/Text/DString.h</text>
</a>
</g>
</g>
<!-- Node11&#45;&gt;Node12 -->
<g id="edge11_Node000011_Node000012" class="edge">
<title>Node11&#45;&gt;Node12</title>
<g id="a_edge11_Node000011_Node000012"><a xlink:title=" ">
<path fill="none" stroke="#63b8ff" d="M393.38,-159.15C379.29,-149.57 361.21,-137.29 349.26,-129.17"/>
<polygon fill="#63b8ff" stroke="#63b8ff" points="391.73,-162.26 401.97,-164.98 395.66,-156.47 391.73,-162.26"/>
</a>
</g>
</g>
<!-- Node13 -->
<g id="Node000013" class="node">
<title>Node13</title>
<g id="a_Node000013"><a xlink:href="_f_string_base_8h.html" target="_top" xlink:title=" ">
<polygon fill="white" stroke="#666666" points="528,-129 405,-129 405,-110 528,-110 528,-129"/>
<text text-anchor="middle" x="466.5" y="-117" font-family="Helvetica,sans-Serif" font-size="10.00">Kit/Text/FStringBase.h</text>
</a>
</g>
</g>
<!-- Node11&#45;&gt;Node13 -->
<g id="edge12_Node000011_Node000013" class="edge">
<title>Node11&#45;&gt;Node13</title>
<g id="a_edge12_Node000011_Node000013"><a xlink:title=" ">
<path fill="none" stroke="#63b8ff" d="M430.18,-157.52C439.34,-148.18 450.55,-136.75 458.07,-129.09"/>
<polygon fill="#63b8ff" stroke="#63b8ff" points="427.59,-155.16 423.09,-164.75 432.59,-160.06 427.59,-155.16"/>
</a>
</g>
</g>
<!-- Node14 -->
<g id="Node000014" class="node">
<title>Node14</title>
<g id="a_Node000014"><a xlink:href="_f_string_8h.html" target="_top" xlink:title=" ">
<polygon fill="white" stroke="#666666" points="471,-74 372,-74 372,-55 471,-55 471,-74"/>
<text text-anchor="middle" x="421.5" y="-62" font-family="Helvetica,sans-Serif" font-size="10.00">Kit/Text/FString.h</text>
</a>
</g>
</g>
<!-- Node13&#45;&gt;Node14 -->
<g id="edge13_Node000013_Node000014" class="edge">
<title>Node13&#45;&gt;Node14</title>
<g id="a_edge13_Node000013_Node000014"><a xlink:title=" ">
<path fill="none" stroke="#63b8ff" d="M452.45,-101.96C444.61,-92.72 435.17,-81.6 428.79,-74.09"/>
<polygon fill="#63b8ff" stroke="#63b8ff" points="449.93,-104.39 459.07,-109.75 455.26,-99.86 449.93,-104.39"/>
</a>
</g>
</g>
<!-- Node14&#45;&gt;Node8 -->
<g id="edge14_Node000014_Node000008" class="edge">
<title>Node14&#45;&gt;Node8</title>
<g id="a_edge14_Node000014_Node000008"><a xlink:title=" ">
<path fill="none" stroke="#63b8ff" d="M391.38,-51.03C367.71,-41.23 335.35,-27.83 314.44,-19.17"/>
<polygon fill="#63b8ff" stroke="#63b8ff" points="390.36,-54.39 400.93,-54.98 393.03,-47.93 390.36,-54.39"/>
</a>
</g>
</g>
<!-- Node16 -->
<g id="Node000016" class="node">
<title>Node16</title>
<g id="a_Node000016"><a xlink:href="_ring_buffer_8h.html" target="_top" xlink:title=" ">
<polygon fill="white" stroke="#666666" points="489,-239 346,-239 346,-220 489,-220 489,-239"/>
<text text-anchor="middle" x="417.5" y="-227" font-family="Helvetica,sans-Serif" font-size="10.00">Kit/Container/RingBuffer.h</text>
</a>
</g>
</g>
<!-- Node15&#45;&gt;Node16 -->
<g id="edge17_Node000015_Node000016" class="edge">
<title>Node15&#45;&gt;Node16</title>
<g id="a_edge17_Node000015_Node000016"><a xlink:title=" ">
<path fill="none" stroke="#63b8ff" d="M417.5,-264.75C417.5,-255.72 417.5,-246.03 417.5,-239.27"/>
<polygon fill="#63b8ff" stroke="#63b8ff" points="414,-264.84 417.5,-274.84 421,-264.84 414,-264.84"/>
</a>
</g>
</g>
</g>
</svg>
