<?xml version="1.0" encoding="UTF-8" standalone="no"?>
<!DOCTYPE svg PUBLIC "-//W3C//DTD SVG 1.1//EN"
 "http://www.w3.org/Graphics/SVG/1.1/DTD/svg11.dtd">
<!-- Generated by graphviz version 2.43.0 (0)
 -->
<!-- Title: Kit/Container/Key.h Pages: 1 -->
<svg width="690pt" height="302pt"
 viewBox="0.00 0.00 690.00 302.00" xmlns="http://www.w3.org/2000/svg" xmlns:xlink="http://www.w3.org/1999/xlink">
<g id="graph0" class="graph" transform="scale(1 1) rotate(0) translate(4 298)">
<title>Kit/Container/Key.h</title>
<!-- Node1 -->
<g id="Node000001" class="node">
<title>Node1</title>
<g id="a_Node000001"><a xlink:title=" ">
<polygon fill="#999999" stroke="#666666" points="289,-294 180,-294 180,-275 289,-275 289,-294"/>
<text text-anchor="middle" x="234.5" y="-282" font-family="Helvetica,sans-Serif" font-size="10.00">Kit/Container/Key.h</text>
</a>
</g>
</g>
<!-- Node2 -->
<g id="Node000002" class="node">
<title>Node2</title>
<g id="a_Node000002"><a xlink:href="_keyed_item_8h.html" target="_top" xlink:title=" ">
<polygon fill="white" stroke="#666666" points="238,-239 93,-239 93,-220 238,-220 238,-239"/>
<text text-anchor="middle" x="165.5" y="-227" font-family="Helvetica,sans-Serif" font-size="10.00">Kit/Container/KeyedItem.h</text>
</a>
</g>
</g>
<!-- Node1&#45;&gt;Node2 -->
<g id="edge1_Node000001_Node000002" class="edge">
<title>Node1&#45;&gt;Node2</title>
<g id="a_edge1_Node000001_Node000002"><a xlink:title=" ">
<path fill="none" stroke="#63b8ff" d="M215.46,-268.88C203.04,-259.34 187.26,-247.21 176.79,-239.17"/>
<polygon fill="#63b8ff" stroke="#63b8ff" points="213.35,-271.67 223.41,-274.98 217.62,-266.12 213.35,-271.67"/>
</a>
</g>
</g>
<!-- Node9 -->
<g id="Node000009" class="node">
<title>Node9</title>
<g id="a_Node000009"><a xlink:href="_i_string_8h.html" target="_top" xlink:title=" ">
<polygon fill="white" stroke="#666666" points="372,-239 275,-239 275,-220 372,-220 372,-239"/>
<text text-anchor="middle" x="323.5" y="-227" font-family="Helvetica,sans-Serif" font-size="10.00">Kit/Text/IString.h</text>
</a>
</g>
</g>
<!-- Node1&#45;&gt;Node9 -->
<g id="edge8_Node000001_Node000009" class="edge">
<title>Node1&#45;&gt;Node9</title>
<g id="a_edge8_Node000001_Node000009"><a xlink:title=" ">
<path fill="none" stroke="#63b8ff" d="M257.68,-269.7C273.89,-260.04 295.05,-247.44 308.94,-239.17"/>
<polygon fill="#63b8ff" stroke="#63b8ff" points="255.6,-266.86 248.8,-274.98 259.18,-272.88 255.6,-266.86"/>
</a>
</g>
</g>
<!-- Node3 -->
<g id="Node000003" class="node">
<title>Node3</title>
<g id="a_Node000003"><a xlink:href="_map_item_8h.html" target="_top" xlink:title=" ">
<polygon fill="white" stroke="#666666" points="195.5,-184 59.5,-184 59.5,-165 195.5,-165 195.5,-184"/>
<text text-anchor="middle" x="127.5" y="-172" font-family="Helvetica,sans-Serif" font-size="10.00">Kit/Container/MapItem.h</text>
</a>
</g>
</g>
<!-- Node2&#45;&gt;Node3 -->
<g id="edge2_Node000002_Node000003" class="edge">
<title>Node2&#45;&gt;Node3</title>
<g id="a_edge2_Node000002_Node000003"><a xlink:title=" ">
<path fill="none" stroke="#63b8ff" d="M153.23,-211.39C146.69,-202.27 138.93,-191.45 133.66,-184.09"/>
<polygon fill="#63b8ff" stroke="#63b8ff" points="150.55,-213.66 159.23,-219.75 156.24,-209.58 150.55,-213.66"/>
</a>
</g>
</g>
<!-- Node4 -->
<g id="Node000004" class="node">
<title>Node4</title>
<g id="a_Node000004"><a xlink:href="_avl_tree___8h.html" target="_top" xlink:title=" ">
<polygon fill="white" stroke="#666666" points="133,-129 0,-129 0,-110 133,-110 133,-129"/>
<text text-anchor="middle" x="66.5" y="-117" font-family="Helvetica,sans-Serif" font-size="10.00">Kit/Container/AvlTree_.h</text>
</a>
</g>
</g>
<!-- Node3&#45;&gt;Node4 -->
<g id="edge3_Node000003_Node000004" class="edge">
<title>Node3&#45;&gt;Node4</title>
<g id="a_edge3_Node000003_Node000004"><a xlink:title=" ">
<path fill="none" stroke="#63b8ff" d="M110.03,-158.32C99.16,-148.87 85.56,-137.06 76.48,-129.17"/>
<polygon fill="#63b8ff" stroke="#63b8ff" points="107.85,-161.07 117.7,-164.98 112.45,-155.78 107.85,-161.07"/>
</a>
</g>
</g>
<!-- Node6 -->
<g id="Node000006" class="node">
<title>Node6</title>
<g id="a_Node000006"><a xlink:href="_string_item_8h.html" target="_top" xlink:title=" ">
<polygon fill="white" stroke="#666666" points="267.5,-129 151.5,-129 151.5,-110 267.5,-110 267.5,-129"/>
<text text-anchor="middle" x="209.5" y="-117" font-family="Helvetica,sans-Serif" font-size="10.00">Kit/Text/StringItem.h</text>
</a>
</g>
</g>
<!-- Node3&#45;&gt;Node6 -->
<g id="edge5_Node000003_Node000006" class="edge">
<title>Node3&#45;&gt;Node6</title>
<g id="a_edge5_Node000003_Node000006"><a xlink:title=" ">
<path fill="none" stroke="#63b8ff" d="M149.28,-159.42C164.16,-149.81 183.41,-137.37 196.09,-129.17"/>
<polygon fill="#63b8ff" stroke="#63b8ff" points="147.17,-156.62 140.67,-164.98 150.97,-162.5 147.17,-156.62"/>
</a>
</g>
</g>
<!-- Node5 -->
<g id="Node000005" class="node">
<title>Node5</title>
<g id="a_Node000005"><a xlink:href="_map_8h.html" target="_top" xlink:title=" ">
<polygon fill="white" stroke="#666666" points="123,-74 10,-74 10,-55 123,-55 123,-74"/>
<text text-anchor="middle" x="66.5" y="-62" font-family="Helvetica,sans-Serif" font-size="10.00">Kit/Container/Map.h</text>
</a>
</g>
</g>
<!-- Node4&#45;&gt;Node5 -->
<g id="edge4_Node000004_Node000005" class="edge">
<title>Node4&#45;&gt;Node5</title>
<g id="a_edge4_Node000004_Node000005"><a xlink:title=" ">
<path fill="none" stroke="#63b8ff" d="M66.5,-99.66C66.5,-90.93 66.5,-80.99 66.5,-74.09"/>
<polygon fill="#63b8ff" stroke="#63b8ff" points="63,-99.75 66.5,-109.75 70,-99.75 63,-99.75"/>
</a>
</g>
</g>
<!-- Node7 -->
<g id="Node000007" class="node">
<title>Node7</title>
<g id="a_Node000007"><a xlink:href="_d_string_item_8h.html" target="_top" xlink:title=" ">
<polygon fill="white" stroke="#666666" points="465.5,-74 341.5,-74 341.5,-55 465.5,-55 465.5,-74"/>
<text text-anchor="middle" x="403.5" y="-62" font-family="Helvetica,sans-Serif" font-size="10.00">Kit/Text/DStringItem.h</text>
</a>
</g>
</g>
<!-- Node6&#45;&gt;Node7 -->
<g id="edge6_Node000006_Node000007" class="edge">
<title>Node6&#45;&gt;Node7</title>
<g id="a_edge6_Node000006_Node000007"><a xlink:title=" ">
<path fill="none" stroke="#63b8ff" d="M250.46,-107.31C286.76,-97.39 339,-83.12 372.09,-74.08"/>
<polygon fill="#63b8ff" stroke="#63b8ff" points="249.39,-103.97 240.67,-109.98 251.24,-110.73 249.39,-103.97"/>
</a>
</g>
</g>
<!-- Node8 -->
<g id="Node000008" class="node">
<title>Node8</title>
<g id="a_Node000008"><a xlink:href="_f_string_item_8h.html" target="_top" xlink:title=" ">
<polygon fill="white" stroke="#666666" points="334.5,-19 212.5,-19 212.5,0 334.5,0 334.5,-19"/>
<text text-anchor="middle" x="273.5" y="-7" font-family="Helvetica,sans-Serif" font-size="10.00">Kit/Text/FStringItem.h</text>
</a>
</g>
</g>
<!-- Node6&#45;&gt;Node8 -->
<g id="edge7_Node000006_Node000008" class="edge">
<title>Node6&#45;&gt;Node8</title>
<g id="a_edge7_Node000006_Node000008"><a xlink:title=" ">
<path fill="none" stroke="#63b8ff" d="M220.01,-100.76C233.93,-77.28 257.91,-36.81 268.37,-19.16"/>
<polygon fill="#63b8ff" stroke="#63b8ff" points="216.82,-99.27 214.74,-109.66 222.85,-102.84 216.82,-99.27"/>
</a>
</g>
</g>
<!-- Node9&#45;&gt;Node6 -->
<g id="edge21_Node000009_Node000006" class="edge">
<title>Node9&#45;&gt;Node6</title>
<g id="a_edge21_Node000009_Node000006"><a xlink:title=" ">
<path fill="none" stroke="#63b8ff" d="M306.07,-212.95C296.65,-204.47 284.85,-193.75 274.5,-184 254.06,-164.75 230.62,-141.57 218.23,-129.23"/>
<polygon fill="#63b8ff" stroke="#63b8ff" points="303.86,-215.67 313.64,-219.74 308.53,-210.46 303.86,-215.67"/>
</a>
</g>
</g>
<!-- Node10 -->
<g id="Node000010" class="node">
<title>Node10</title>
<g id="a_Node000010"><a xlink:href="_private_8h.html" target="_top" xlink:title="This file contains a collection of classes, interfaces, etc.">
<polygon fill="white" stroke="#666666" points="401.5,-129 285.5,-129 285.5,-110 401.5,-110 401.5,-129"/>
<text text-anchor="middle" x="343.5" y="-117" font-family="Helvetica,sans-Serif" font-size="10.00">Kit/System/Private.h</text>
</a>
</g>
</g>
<!-- Node9&#45;&gt;Node10 -->
<g id="edge9_Node000009_Node000010" class="edge">
<title>Node9&#45;&gt;Node10</title>
<g id="a_edge9_Node000009_Node000010"><a xlink:title=" ">
<path fill="none" stroke="#63b8ff" d="M302.76,-213.55C288.11,-201.03 272.54,-182.46 281.5,-165 290.15,-148.14 308.48,-136.23 322.98,-129"/>
<polygon fill="#63b8ff" stroke="#63b8ff" points="300.65,-216.34 310.65,-219.84 305.01,-210.87 300.65,-216.34"/>
</a>
</g>
</g>
<!-- Node11 -->
<g id="Node000011" class="node">
<title>Node11</title>
<g id="a_Node000011"><a xlink:href="_trace_8h.html" target="_top" xlink:title="This file provides an interface for a &#39;printf&#39; tracing mechanism.">
<polygon fill="white" stroke="#666666" points="397,-184 290,-184 290,-165 397,-165 397,-184"/>
<text text-anchor="middle" x="343.5" y="-172" font-family="Helvetica,sans-Serif" font-size="10.00">Kit/System/Trace.h</text>
</a>
</g>
</g>
<!-- Node9&#45;&gt;Node11 -->
<g id="edge10_Node000009_Node000011" class="edge">
<title>Node9&#45;&gt;Node11</title>
<g id="a_edge10_Node000009_Node000011"><a xlink:title=" ">
<path fill="none" stroke="#63b8ff" d="M330.39,-210.24C333.74,-201.37 337.6,-191.14 340.26,-184.09"/>
<polygon fill="#63b8ff" stroke="#63b8ff" points="327.06,-209.16 326.8,-219.75 333.61,-211.63 327.06,-209.16"/>
</a>
</g>
</g>
<!-- Node12 -->
<g id="Node000012" class="node">
<title>Node12</title>
<g id="a_Node000012"><a xlink:href="_format_8h.html" target="_top" xlink:title=" ">
<polygon fill="white" stroke="#666666" points="515.5,-184 415.5,-184 415.5,-165 515.5,-165 515.5,-184"/>
<text text-anchor="middle" x="465.5" y="-172" font-family="Helvetica,sans-Serif" font-size="10.00">Kit/Text/Format.h</text>
</a>
</g>
</g>
<!-- Node9&#45;&gt;Node12 -->
<g id="edge12_Node000009_Node000012" class="edge">
<title>Node9&#45;&gt;Node12</title>
<g id="a_edge12_Node000009_Node000012"><a xlink:title=" ">
<path fill="none" stroke="#63b8ff" d="M355.86,-216.42C382.21,-206.59 418.76,-192.95 442.27,-184.17"/>
<polygon fill="#63b8ff" stroke="#63b8ff" points="354.46,-213.21 346.31,-219.98 356.91,-219.77 354.46,-213.21"/>
</a>
</g>
</g>
<!-- Node13 -->
<g id="Node000013" class="node">
<title>Node13</title>
<g id="a_Node000013"><a xlink:href="_string_base_8h.html" target="_top" xlink:title=" ">
<polygon fill="white" stroke="#666666" points="651.5,-184 533.5,-184 533.5,-165 651.5,-165 651.5,-184"/>
<text text-anchor="middle" x="592.5" y="-172" font-family="Helvetica,sans-Serif" font-size="10.00">Kit/Text/StringBase.h</text>
</a>
</g>
</g>
<!-- Node9&#45;&gt;Node13 -->
<g id="edge13_Node000009_Node000013" class="edge">
<title>Node9&#45;&gt;Node13</title>
<g id="a_edge13_Node000009_Node000013"><a xlink:title=" ">
<path fill="none" stroke="#63b8ff" d="M376.78,-218C427.2,-208.07 501.98,-193.33 548.94,-184.08"/>
<polygon fill="#63b8ff" stroke="#63b8ff" points="375.85,-214.62 366.72,-219.98 377.21,-221.49 375.85,-214.62"/>
</a>
</g>
</g>
<!-- Node11&#45;&gt;Node10 -->
<g id="edge11_Node000011_Node000010" class="edge">
<title>Node11&#45;&gt;Node10</title>
<g id="a_edge11_Node000011_Node000010"><a xlink:title=" ">
<path fill="none" stroke="#63b8ff" d="M343.5,-154.66C343.5,-145.93 343.5,-135.99 343.5,-129.09"/>
<polygon fill="#63b8ff" stroke="#63b8ff" points="340,-154.75 343.5,-164.75 347,-154.75 340,-154.75"/>
</a>
</g>
</g>
<!-- Node14 -->
<g id="Node000014" class="node">
<title>Node14</title>
<g id="a_Node000014"><a xlink:href="_d_string_8h.html" target="_top" xlink:title=" ">
<polygon fill="white" stroke="#666666" points="521,-129 420,-129 420,-110 521,-110 521,-129"/>
<text text-anchor="middle" x="470.5" y="-117" font-family="Helvetica,sans-Serif" font-size="10.00">Kit/Text/DString.h</text>
</a>
</g>
</g>
<!-- Node13&#45;&gt;Node14 -->
<g id="edge14_Node000013_Node000014" class="edge">
<title>Node13&#45;&gt;Node14</title>
<g id="a_edge14_Node000013_Node000014"><a xlink:title=" ">
<path fill="none" stroke="#63b8ff" d="M563.49,-160.9C540.96,-151.11 510.3,-137.79 490.46,-129.17"/>
<polygon fill="#63b8ff" stroke="#63b8ff" points="562.33,-164.21 572.9,-164.98 565.12,-157.79 562.33,-164.21"/>
</a>
</g>
</g>
<!-- Node15 -->
<g id="Node000015" class="node">
<title>Node15</title>
<g id="a_Node000015"><a xlink:href="_f_string_base_8h.html" target="_top" xlink:title=" ">
<polygon fill="white" stroke="#666666" points="662,-129 539,-129 539,-110 662,-110 662,-129"/>
<text text-anchor="middle" x="600.5" y="-117" font-family="Helvetica,sans-Serif" font-size="10.00">Kit/Text/FStringBase.h</text>
</a>
</g>
</g>
<!-- Node13&#45;&gt;Node15 -->
<g id="edge16_Node000013_Node000015" class="edge">
<title>Node13&#45;&gt;Node15</title>
<g id="a_edge16_Node000013_Node000015"><a xlink:title=" ">
<path fill="none" stroke="#63b8ff" d="M595.34,-154.66C596.66,-145.93 598.16,-135.99 599.2,-129.09"/>
<polygon fill="#63b8ff" stroke="#63b8ff" points="591.85,-154.34 593.82,-164.75 598.77,-155.38 591.85,-154.34"/>
</a>
</g>
</g>
<!-- Node14&#45;&gt;Node7 -->
<g id="edge15_Node000014_Node000007" class="edge">
<title>Node14&#45;&gt;Node7</title>
<g id="a_edge15_Node000014_Node000007"><a xlink:title=" ">
<path fill="none" stroke="#63b8ff" d="M451.67,-103.6C439.66,-94.11 424.53,-82.13 414.46,-74.17"/>
<polygon fill="#63b8ff" stroke="#63b8ff" points="449.72,-106.53 459.74,-109.98 454.06,-101.04 449.72,-106.53"/>
</a>
</g>
</g>
<!-- Node16 -->
<g id="Node000016" class="node">
<title>Node16</title>
<g id="a_Node000016"><a xlink:href="_f_string_8h.html" target="_top" xlink:title=" ">
<polygon fill="white" stroke="#666666" points="620,-74 521,-74 521,-55 620,-55 620,-74"/>
<text text-anchor="middle" x="570.5" y="-62" font-family="Helvetica,sans-Serif" font-size="10.00">Kit/Text/FString.h</text>
</a>
</g>
</g>
<!-- Node15&#45;&gt;Node16 -->
<g id="edge17_Node000015_Node000016" class="edge">
<title>Node15&#45;&gt;Node16</title>
<g id="a_edge17_Node000015_Node000016"><a xlink:title=" ">
<path fill="none" stroke="#63b8ff" d="M590.49,-100.82C585.4,-91.82 579.44,-81.29 575.36,-74.09"/>
<polygon fill="#63b8ff" stroke="#63b8ff" points="587.57,-102.77 595.55,-109.75 593.67,-99.32 587.57,-102.77"/>
</a>
</g>
</g>
<!-- Node16&#45;&gt;Node8 -->
<g id="edge20_Node000016_Node000008" class="edge">
<title>Node16&#45;&gt;Node8</title>
<g id="a_edge20_Node000016_Node000008"><a xlink:title=" ">
<path fill="none" stroke="#63b8ff" d="M512.72,-53.19C457.04,-43.25 373.76,-28.39 321.59,-19.08"/>
<polygon fill="#63b8ff" stroke="#63b8ff" points="512.32,-56.67 522.78,-54.98 513.55,-49.78 512.32,-56.67"/>
</a>
</g>
</g>
<!-- Node17 -->
<g id="Node000017" class="node">
<title>Node17</title>
<g id="a_Node000017"><a xlink:href="_posix_2_thread_8h.html" target="_top" xlink:title=" ">
<polygon fill="white" stroke="#666666" points="515,-19 370,-19 370,0 515,0 515,-19"/>
<text text-anchor="middle" x="442.5" y="-7" font-family="Helvetica,sans-Serif" font-size="10.00">Kit/System/Posix/Thread.h</text>
</a>
</g>
</g>
<!-- Node16&#45;&gt;Node17 -->
<g id="edge18_Node000016_Node000017" class="edge">
<title>Node16&#45;&gt;Node17</title>
<g id="a_edge18_Node000016_Node000017"><a xlink:title=" ">
<path fill="none" stroke="#63b8ff" d="M540.38,-51.03C516.71,-41.23 484.35,-27.83 463.44,-19.17"/>
<polygon fill="#63b8ff" stroke="#63b8ff" points="539.36,-54.39 549.93,-54.98 542.03,-47.93 539.36,-54.39"/>
</a>
</g>
</g>
<!-- Node18 -->
<g id="Node000018" class="node">
<title>Node18</title>
<g id="a_Node000018"><a xlink:href="_win32_2_thread_8h.html" target="_top" xlink:title=" ">
<polygon fill="white" stroke="#666666" points="682,-19 533,-19 533,0 682,0 682,-19"/>
<text text-anchor="middle" x="607.5" y="-7" font-family="Helvetica,sans-Serif" font-size="10.00">Kit/System/Win32/Thread.h</text>
</a>
</g>
</g>
<!-- Node16&#45;&gt;Node18 -->
<g id="edge19_Node000016_Node000018" class="edge">
<title>Node16&#45;&gt;Node18</title>
<g id="a_edge19_Node000016_Node000018"><a xlink:title=" ">
<path fill="none" stroke="#63b8ff" d="M582.45,-46.39C588.81,-37.27 596.37,-26.45 601.5,-19.09"/>
<polygon fill="#63b8ff" stroke="#63b8ff" points="579.46,-44.55 576.61,-54.75 585.2,-48.55 579.46,-44.55"/>
</a>
</g>
</g>
</g>
</svg>
