<?xml version="1.0" encoding="UTF-8" standalone="no"?>
<!DOCTYPE svg PUBLIC "-//W3C//DTD SVG 1.1//EN"
 "http://www.w3.org/Graphics/SVG/1.1/DTD/svg11.dtd">
<!-- Generated by graphviz version 2.43.0 (0)
 -->
<!-- Title: Kit::System::EventLoop Pages: 1 -->
<svg width="1886pt" height="306pt"
 viewBox="0.00 0.00 1886.00 306.26" xmlns="http://www.w3.org/2000/svg" xmlns:xlink="http://www.w3.org/1999/xlink">
<g id="graph0" class="graph" transform="scale(1 1) rotate(0) translate(4 302.26)">
<title>Kit::System::EventLoop</title>
<!-- Node1 -->
<g id="Node000001" class="node">
<title>Node1</title>
<g id="a_Node000001"><a xlink:title="This concrete class is a IRunnable object that provides a event driven execution model for a thread.">
<polygon fill="#999999" stroke="#666666" points="1878,-97.76 1748,-97.76 1748,-78.76 1878,-78.76 1878,-97.76"/>
<text text-anchor="middle" x="1813" y="-85.76" font-family="Helvetica,sans-Serif" font-size="10.00">Kit::System::EventLoop</text>
</a>
</g>
</g>
<!-- Node2 -->
<g id="Node000002" class="node">
<title>Node2</title>
<g id="a_Node000002"><a xlink:href="class_kit_1_1_system_1_1_i_runnable.html" target="_top" xlink:title="This mostly an abstract class defines the interface for an object that is &quot;executed&quot; when a Thread ob...">
<polygon fill="white" stroke="#666666" points="1367.5,-149.76 1239.5,-149.76 1239.5,-130.76 1367.5,-130.76 1367.5,-149.76"/>
<text text-anchor="middle" x="1303.5" y="-137.76" font-family="Helvetica,sans-Serif" font-size="10.00">Kit::System::IRunnable</text>
</a>
</g>
</g>
<!-- Node2&#45;&gt;Node1 -->
<g id="edge1_Node000001_Node000002" class="edge">
<title>Node2&#45;&gt;Node1</title>
<g id="a_edge1_Node000001_Node000002"><a xlink:title=" ">
<path fill="none" stroke="#63b8ff" d="M1353.51,-128.52C1366.3,-125.79 1380.12,-123.14 1393,-121.26 1459.61,-111.53 1647.84,-98.68 1747.79,-92.26"/>
<polygon fill="#63b8ff" stroke="#63b8ff" points="1352.53,-125.15 1343.51,-130.71 1354.02,-131.99 1352.53,-125.15"/>
</a>
</g>
</g>
<!-- Node3 -->
<g id="Node000003" class="node">
<title>Node3</title>
<g id="a_Node000003"><a xlink:href="class_kit_1_1_system_1_1_thread.html" target="_top" xlink:title="This mostly abstract class defines the operations that can be performed on a thread.">
<polygon fill="white" stroke="#666666" points="1646.5,-191.76 1533.5,-191.76 1533.5,-172.76 1646.5,-172.76 1646.5,-191.76"/>
<text text-anchor="middle" x="1590" y="-179.76" font-family="Helvetica,sans-Serif" font-size="10.00">Kit::System::Thread</text>
</a>
</g>
</g>
<!-- Node2&#45;&gt;Node3 -->
<g id="edge7_Node000003_Node000002" class="edge">
<title>Node2&#45;&gt;Node3</title>
<g id="a_edge7_Node000003_Node000002"><a xlink:title=" ">
<path fill="none" stroke="#9a32cd" stroke-dasharray="5,2" d="M1350.18,-128.71C1390.78,-120.98 1450.58,-115.99 1496,-139.26 1508.19,-145.5 1502.63,-156.62 1514,-164.26 1519.89,-168.21 1526.56,-171.3 1533.43,-173.71"/>
<polygon fill="#9a32cd" stroke="#9a32cd" points="1349.39,-125.3 1340.29,-130.72 1350.78,-132.16 1349.39,-125.3"/>
</a>
</g>
<text text-anchor="middle" x="1444.5" y="-142.26" font-family="Helvetica,sans-Serif" font-size="10.00" fill="grey"> m_runnable</text>
</g>
<!-- Node3&#45;&gt;Node2 -->
<g id="edge2_Node000002_Node000003" class="edge">
<title>Node3&#45;&gt;Node2</title>
<g id="a_edge2_Node000002_Node000003"><a xlink:title=" ">
<path fill="none" stroke="#9a32cd" stroke-dasharray="5,2" d="M1523.21,-172.54C1476.39,-165.63 1413.85,-156.4 1367.64,-149.58"/>
<polygon fill="#9a32cd" stroke="#9a32cd" points="1522.85,-176.03 1533.25,-174.03 1523.87,-169.1 1522.85,-176.03"/>
</a>
</g>
<text text-anchor="middle" x="1444.5" y="-170.26" font-family="Helvetica,sans-Serif" font-size="10.00" fill="grey"> m_parentThreadPtr_</text>
</g>
<!-- Node4 -->
<g id="Node000004" class="node">
<title>Node4</title>
<g id="a_Node000004"><a xlink:href="class_kit_1_1_system_1_1_i_signable.html" target="_top" xlink:title="This abstract class defines the interface by which a client can cause an object that is waiting&#45;on&#45;a&#45;...">
<polygon fill="white" stroke="#666666" points="1365.5,-66.76 1241.5,-66.76 1241.5,-47.76 1365.5,-47.76 1365.5,-66.76"/>
<text text-anchor="middle" x="1303.5" y="-54.76" font-family="Helvetica,sans-Serif" font-size="10.00">Kit::System::ISignable</text>
</a>
</g>
</g>
<!-- Node4&#45;&gt;Node1 -->
<g id="edge9_Node000001_Node000004" class="edge">
<title>Node4&#45;&gt;Node1</title>
<g id="a_edge9_Node000001_Node000004"><a xlink:title=" ">
<path fill="none" stroke="#63b8ff" d="M1375.93,-61.62C1475.02,-67.67 1652.67,-78.52 1747.77,-84.33"/>
<polygon fill="#63b8ff" stroke="#63b8ff" points="1375.91,-58.11 1365.72,-60.99 1375.48,-65.1 1375.91,-58.11"/>
</a>
</g>
</g>
<!-- Node4&#45;&gt;Node3 -->
<g id="edge3_Node000003_Node000004" class="edge">
<title>Node4&#45;&gt;Node3</title>
<g id="a_edge3_Node000003_Node000004"><a xlink:title=" ">
<path fill="none" stroke="#63b8ff" d="M1375.68,-64.82C1415.44,-72.43 1463.38,-87.68 1496,-118.26 1512.02,-133.27 1497.45,-149.83 1514,-164.26 1519.55,-169.09 1526.18,-172.68 1533.17,-175.34"/>
<polygon fill="#63b8ff" stroke="#63b8ff" points="1376.22,-61.36 1365.76,-63.05 1374.99,-68.25 1376.22,-61.36"/>
</a>
</g>
</g>
<!-- Node13 -->
<g id="Node000013" class="node">
<title>Node13</title>
<g id="a_Node000013"><a xlink:href="class_kit_1_1_system_1_1_semaphore.html" target="_top" xlink:title="This semaphore concrete class defines the interface for a Counting Semaphore.">
<polygon fill="white" stroke="#666666" points="1657,-40.76 1523,-40.76 1523,-21.76 1657,-21.76 1657,-40.76"/>
<text text-anchor="middle" x="1590" y="-28.76" font-family="Helvetica,sans-Serif" font-size="10.00">Kit::System::Semaphore</text>
</a>
</g>
</g>
<!-- Node4&#45;&gt;Node13 -->
<g id="edge19_Node000013_Node000004" class="edge">
<title>Node4&#45;&gt;Node13</title>
<g id="a_edge19_Node000013_Node000004"><a xlink:title=" ">
<path fill="none" stroke="#63b8ff" d="M1376.12,-47.15C1381.83,-46.47 1387.51,-45.82 1393,-45.26 1436.1,-40.8 1484.67,-37.32 1522.68,-34.94"/>
<polygon fill="#63b8ff" stroke="#63b8ff" points="1375.35,-43.72 1365.86,-48.42 1376.21,-50.67 1375.35,-43.72"/>
</a>
</g>
</g>
<!-- Node5 -->
<g id="Node000005" class="node">
<title>Node5</title>
<g id="a_Node000005"><a xlink:href="class_kit_1_1_container_1_1_list_item.html" target="_top" xlink:title="This class is used by the Container classes to implement a various types of linked lists containers.">
<polygon fill="white" stroke="#666666" points="278,-209.76 149,-209.76 149,-190.76 278,-190.76 278,-209.76"/>
<text text-anchor="middle" x="213.5" y="-197.76" font-family="Helvetica,sans-Serif" font-size="10.00">Kit::Container::ListItem</text>
</a>
</g>
</g>
<!-- Node5&#45;&gt;Node3 -->
<g id="edge4_Node000003_Node000005" class="edge">
<title>Node5&#45;&gt;Node3</title>
<g id="a_edge4_Node000003_Node000005"><a xlink:title=" ">
<path fill="none" stroke="#63b8ff" d="M288.61,-200.26C332,-200.26 387.86,-200.26 437.5,-200.26 437.5,-200.26 437.5,-200.26 1304.5,-200.26 1384.18,-200.26 1476.16,-193.14 1533.46,-187.85"/>
<polygon fill="#63b8ff" stroke="#63b8ff" points="288.42,-196.76 278.42,-200.26 288.42,-203.76 288.42,-196.76"/>
</a>
</g>
</g>
<!-- Node5&#45;&gt;Node5 -->
<g id="edge6_Node000005_Node000005" class="edge">
<title>Node5&#45;&gt;Node5</title>
<g id="a_edge6_Node000005_Node000005"><a xlink:title=" ">
<path fill="none" stroke="#9a32cd" stroke-dasharray="5,2" d="M198.4,-219.67C199.59,-224.31 204.62,-227.76 213.5,-227.76 228.07,-227.76 232.29,-218.49 226.14,-209.84"/>
<polygon fill="#9a32cd" stroke="#9a32cd" points="201.83,-220.39 200.86,-209.84 195.04,-218.69 201.83,-220.39"/>
</a>
</g>
<text text-anchor="middle" x="213.5" y="-230.76" font-family="Helvetica,sans-Serif" font-size="10.00" fill="grey"> m_nextPtr_</text>
</g>
<!-- Node11 -->
<g id="Node000011" class="node">
<title>Node11</title>
<g id="a_Node000011"><a xlink:href="class_kit_1_1_container_1_1_extended_list_item.html" target="_top" xlink:title="This class is used by the Container classes to implement a various types of DOUBLY linked containers.">
<polygon fill="white" stroke="#666666" points="506,-258.26 371,-258.26 371,-228.26 506,-228.26 506,-258.26"/>
<text text-anchor="start" x="379" y="-246.26" font-family="Helvetica,sans-Serif" font-size="10.00">Kit::Container::Extended</text>
<text text-anchor="middle" x="438.5" y="-235.26" font-family="Helvetica,sans-Serif" font-size="10.00">ListItem</text>
</a>
</g>
</g>
<!-- Node5&#45;&gt;Node11 -->
<g id="edge14_Node000011_Node000005" class="edge">
<title>Node5&#45;&gt;Node11</title>
<g id="a_edge14_Node000011_Node000005"><a xlink:title=" ">
<path fill="none" stroke="#63b8ff" d="M273.85,-211.7C303.7,-217.46 339.99,-224.45 370.81,-230.39"/>
<polygon fill="#63b8ff" stroke="#63b8ff" points="274.47,-208.25 263.99,-209.8 273.15,-215.13 274.47,-208.25"/>
</a>
</g>
</g>
<!-- Node15 -->
<g id="Node000015" class="node">
<title>Node15</title>
<g id="a_Node000015"><a xlink:href="class_kit_1_1_container_1_1_s_list_base.html" target="_top" xlink:title="This protected base class implements a NON&#45;TYPE&#45;SAFE a singly linked list which maintains the orderin...">
<polygon fill="white" stroke="#666666" points="507,-108.76 370,-108.76 370,-89.76 507,-89.76 507,-108.76"/>
<text text-anchor="middle" x="438.5" y="-96.76" font-family="Helvetica,sans-Serif" font-size="10.00">Kit::Container::SListBase</text>
</a>
</g>
</g>
<!-- Node5&#45;&gt;Node15 -->
<g id="edge22_Node000015_Node000005" class="edge">
<title>Node5&#45;&gt;Node15</title>
<g id="a_edge22_Node000015_Node000005"><a xlink:title=" ">
<path fill="none" stroke="#9a32cd" stroke-dasharray="5,2" d="M244.62,-186.61C290.48,-165.84 376.65,-126.81 416.41,-108.81"/>
<polygon fill="#9a32cd" stroke="#9a32cd" points="243.14,-183.44 235.48,-190.75 246.03,-189.82 243.14,-183.44"/>
</a>
</g>
<text text-anchor="middle" x="324" y="-175.26" font-family="Helvetica,sans-Serif" font-size="10.00" fill="grey"> m_headPtr</text>
<text text-anchor="middle" x="324" y="-164.26" font-family="Helvetica,sans-Serif" font-size="10.00" fill="grey">m_tailPtr</text>
</g>
<!-- Node6 -->
<g id="Node000006" class="node">
<title>Node6</title>
<g id="a_Node000006"><a xlink:href="class_kit_1_1_container_1_1_item.html" target="_top" xlink:title="This class is used by the Intrusive Container classes to enforce the semantic and item/element can be...">
<polygon fill="white" stroke="#666666" points="112,-209.76 0,-209.76 0,-190.76 112,-190.76 112,-209.76"/>
<text text-anchor="middle" x="56" y="-197.76" font-family="Helvetica,sans-Serif" font-size="10.00">Kit::Container::Item</text>
</a>
</g>
</g>
<!-- Node6&#45;&gt;Node5 -->
<g id="edge5_Node000005_Node000006" class="edge">
<title>Node6&#45;&gt;Node5</title>
<g id="a_edge5_Node000005_Node000006"><a xlink:title=" ">
<path fill="none" stroke="#63b8ff" d="M122.43,-200.26C131.2,-200.26 140.19,-200.26 148.93,-200.26"/>
<polygon fill="#63b8ff" stroke="#63b8ff" points="122.26,-196.76 112.26,-200.26 122.26,-203.76 122.26,-196.76"/>
</a>
</g>
</g>
<!-- Node7 -->
<g id="Node000007" class="node">
<title>Node7</title>
<g id="a_Node000007"><a xlink:href="class_kit_1_1_system_1_1_i_event_manager.html" target="_top" xlink:title="This abstract class defines the interface to signal a &#39;Event Flag&#39;.">
<polygon fill="white" stroke="#666666" points="1666,-154.76 1514,-154.76 1514,-135.76 1666,-135.76 1666,-154.76"/>
<text text-anchor="middle" x="1590" y="-142.76" font-family="Helvetica,sans-Serif" font-size="10.00">Kit::System::IEventManager</text>
</a>
</g>
</g>
<!-- Node7&#45;&gt;Node1 -->
<g id="edge8_Node000001_Node000007" class="edge">
<title>Node7&#45;&gt;Node1</title>
<g id="a_edge8_Node000001_Node000007"><a xlink:title=" ">
<path fill="none" stroke="#63b8ff" d="M1673.45,-133.98C1692.21,-130.6 1711.93,-126.39 1730,-121.26 1751.7,-115.09 1775.52,-105.12 1791.86,-97.76"/>
<polygon fill="#63b8ff" stroke="#63b8ff" points="1672.69,-130.56 1663.44,-135.73 1673.89,-137.46 1672.69,-130.56"/>
</a>
</g>
</g>
<!-- Node8 -->
<g id="Node000008" class="node">
<title>Node8</title>
<g id="a_Node000008"><a xlink:href="class_kit_1_1_system_1_1_timer_manager.html" target="_top" xlink:title="This concrete class implements manages a list of Software Timers.">
<polygon fill="white" stroke="#666666" points="1665,-240.76 1515,-240.76 1515,-221.76 1665,-221.76 1665,-240.76"/>
<text text-anchor="middle" x="1590" y="-228.76" font-family="Helvetica,sans-Serif" font-size="10.00">Kit::System::TimerManager</text>
</a>
</g>
</g>
<!-- Node8&#45;&gt;Node1 -->
<g id="edge10_Node000001_Node000008" class="edge">
<title>Node8&#45;&gt;Node1</title>
<g id="a_edge10_Node000001_Node000008"><a xlink:title=" ">
<path fill="none" stroke="#63b8ff" d="M1630.04,-218.01C1641.91,-213.36 1654.78,-207.67 1666,-201.26 1721.37,-169.58 1778.88,-118.87 1801.74,-97.86"/>
<polygon fill="#63b8ff" stroke="#63b8ff" points="1628.48,-214.86 1620.36,-221.66 1630.96,-221.41 1628.48,-214.86"/>
</a>
</g>
</g>
<!-- Node9 -->
<g id="Node000009" class="node">
<title>Node9</title>
<g id="a_Node000009"><a xlink:href="class_kit_1_1_container_1_1_d_list.html" target="_top" xlink:title=" ">
<polygon fill="white" stroke="#666666" points="1375,-258.26 1232,-258.26 1232,-228.26 1375,-228.26 1375,-258.26"/>
<text text-anchor="start" x="1240" y="-246.26" font-family="Helvetica,sans-Serif" font-size="10.00">Kit::Container::DList</text>
<text text-anchor="middle" x="1303.5" y="-235.26" font-family="Helvetica,sans-Serif" font-size="10.00">&lt; Kit::System::ICounter &gt;</text>
</a>
</g>
</g>
<!-- Node9&#45;&gt;Node8 -->
<g id="edge11_Node000008_Node000009" class="edge">
<title>Node9&#45;&gt;Node8</title>
<g id="a_edge11_Node000008_Node000009"><a xlink:title=" ">
<path fill="none" stroke="#9a32cd" stroke-dasharray="5,2" d="M1385.36,-239.84C1426.12,-238.13 1475.19,-236.06 1514.95,-234.38"/>
<polygon fill="#9a32cd" stroke="#9a32cd" points="1385.03,-236.36 1375.19,-240.27 1385.33,-243.35 1385.03,-236.36"/>
</a>
</g>
<text text-anchor="middle" x="1444.5" y="-253.26" font-family="Helvetica,sans-Serif" font-size="10.00" fill="grey"> m_counters</text>
<text text-anchor="middle" x="1444.5" y="-242.26" font-family="Helvetica,sans-Serif" font-size="10.00" fill="grey">m_pendingAttach</text>
</g>
<!-- Node10 -->
<g id="Node000010" class="node">
<title>Node10</title>
<g id="a_Node000010"><a xlink:href="class_kit_1_1_container_1_1_d_list_base.html" target="_top" xlink:title="This protected base class implements a NON&#45;TYPE&#45;SAFE a doubly linked list which maintains the orderin...">
<polygon fill="white" stroke="#666666" points="737,-252.76 599,-252.76 599,-233.76 737,-233.76 737,-252.76"/>
<text text-anchor="middle" x="668" y="-240.76" font-family="Helvetica,sans-Serif" font-size="10.00">Kit::Container::DListBase</text>
</a>
</g>
</g>
<!-- Node10&#45;&gt;Node9 -->
<g id="edge12_Node000009_Node000010" class="edge">
<title>Node10&#45;&gt;Node9</title>
<g id="a_edge12_Node000009_Node000010"><a xlink:title=" ">
<path fill="none" stroke="#63b8ff" d="M747.31,-243.26C871.69,-243.26 1112.52,-243.26 1231.9,-243.26"/>
<polygon fill="#63b8ff" stroke="#63b8ff" points="747.1,-239.76 737.1,-243.26 747.1,-246.76 747.1,-239.76"/>
</a>
</g>
</g>
<!-- Node12 -->
<g id="Node000012" class="node">
<title>Node12</title>
<g id="a_Node000012"><a xlink:href="class_kit_1_1_container_1_1_d_list.html" target="_top" xlink:title="This template class implements a singly linked list which maintains the ordering imposed on it by the...">
<polygon fill="white" stroke="#666666" points="1046.5,-298.26 932.5,-298.26 932.5,-268.26 1046.5,-268.26 1046.5,-298.26"/>
<text text-anchor="start" x="940.5" y="-286.26" font-family="Helvetica,sans-Serif" font-size="10.00">Kit::Container::DList</text>
<text text-anchor="middle" x="989.5" y="-275.26" font-family="Helvetica,sans-Serif" font-size="10.00">&lt; ITEM &gt;</text>
</a>
</g>
</g>
<!-- Node10&#45;&gt;Node12 -->
<g id="edge17_Node000012_Node000010" class="edge">
<title>Node10&#45;&gt;Node12</title>
<g id="a_edge17_Node000012_Node000010"><a xlink:title=" ">
<path fill="none" stroke="#63b8ff" d="M747.25,-253.28C749.86,-253.61 752.45,-253.93 755,-254.26 815.59,-261.89 885.05,-270.5 932.35,-276.34"/>
<polygon fill="#63b8ff" stroke="#63b8ff" points="747.43,-249.77 737.07,-251.98 746.55,-256.72 747.43,-249.77"/>
</a>
</g>
</g>
<!-- Node11&#45;&gt;Node10 -->
<g id="edge13_Node000010_Node000011" class="edge">
<title>Node11&#45;&gt;Node10</title>
<g id="a_edge13_Node000010_Node000011"><a xlink:title=" ">
<path fill="none" stroke="#9a32cd" stroke-dasharray="5,2" d="M516.29,-243.26C542.99,-243.26 572.74,-243.26 598.7,-243.26"/>
<polygon fill="#9a32cd" stroke="#9a32cd" points="516.22,-239.76 506.22,-243.26 516.22,-246.76 516.22,-239.76"/>
</a>
</g>
<text text-anchor="middle" x="553" y="-257.26" font-family="Helvetica,sans-Serif" font-size="10.00" fill="grey"> m_headPtr</text>
<text text-anchor="middle" x="553" y="-246.26" font-family="Helvetica,sans-Serif" font-size="10.00" fill="grey">m_tailPtr</text>
</g>
<!-- Node11&#45;&gt;Node11 -->
<g id="edge15_Node000011_Node000011" class="edge">
<title>Node11&#45;&gt;Node11</title>
<g id="a_edge15_Node000011_Node000011"><a xlink:title=" ">
<path fill="none" stroke="#9a32cd" stroke-dasharray="5,2" d="M418.55,-268.85C421.27,-273.23 427.92,-276.26 438.5,-276.26 456.31,-276.26 462.99,-267.66 458.54,-258.53"/>
<polygon fill="#9a32cd" stroke="#9a32cd" points="422.04,-268.5 418.46,-258.53 415.04,-268.56 422.04,-268.5"/>
</a>
</g>
<text text-anchor="middle" x="438.5" y="-279.26" font-family="Helvetica,sans-Serif" font-size="10.00" fill="grey"> m_prevPtr_</text>
</g>
<!-- Node12&#45;&gt;Node9 -->
<g id="edge16_Node000009_Node000012" class="edge">
<title>Node12&#45;&gt;Node9</title>
<g id="a_edge16_Node000009_Node000012"><a xlink:title=" ">
<path fill="none" stroke="orange" stroke-dasharray="5,2" d="M1056.65,-274.77C1108.05,-268.18 1179.21,-259.06 1231.75,-252.33"/>
<polygon fill="orange" stroke="orange" points="1056.11,-271.31 1046.64,-276.06 1057,-278.26 1056.11,-271.31"/>
</a>
</g>
<text text-anchor="middle" x="1149" y="-273.26" font-family="Helvetica,sans-Serif" font-size="10.00" fill="grey"> &lt; Kit::System::ICounter &gt;</text>
</g>
<!-- Node13&#45;&gt;Node1 -->
<g id="edge18_Node000001_Node000013" class="edge">
<title>Node13&#45;&gt;Node1</title>
<g id="a_edge18_Node000001_Node000013"><a xlink:title=" ">
<path fill="none" stroke="#9a32cd" stroke-dasharray="5,2" d="M1667.12,-32.88C1687.84,-34.8 1710.06,-38.24 1730,-44.26 1755.68,-52 1782.53,-68.2 1798.24,-78.64"/>
<polygon fill="#9a32cd" stroke="#9a32cd" points="1667.34,-29.39 1657.09,-32.06 1666.77,-36.37 1667.34,-29.39"/>
</a>
</g>
<text text-anchor="middle" x="1707" y="-47.26" font-family="Helvetica,sans-Serif" font-size="10.00" fill="grey"> m_sema</text>
</g>
<!-- Node14 -->
<g id="Node000014" class="node">
<title>Node14</title>
<g id="a_Node000014"><a xlink:href="class_kit_1_1_container_1_1_s_list.html" target="_top" xlink:title=" ">
<polygon fill="white" stroke="#666666" points="1066,-71.26 913,-71.26 913,-41.26 1066,-41.26 1066,-71.26"/>
<text text-anchor="start" x="921" y="-59.26" font-family="Helvetica,sans-Serif" font-size="10.00">Kit::Container::SList</text>
<text text-anchor="middle" x="989.5" y="-48.26" font-family="Helvetica,sans-Serif" font-size="10.00">&lt; Kit::System::IEventFlag &gt;</text>
</a>
</g>
</g>
<!-- Node14&#45;&gt;Node1 -->
<g id="edge20_Node000001_Node000014" class="edge">
<title>Node14&#45;&gt;Node1</title>
<g id="a_edge20_Node000001_Node000014"><a xlink:title=" ">
<path fill="none" stroke="#9a32cd" stroke-dasharray="5,2" d="M1075.54,-39.39C1204.04,-16.46 1455.1,18.39 1666,-12.26 1695.36,-16.52 1703.26,-18.4 1730,-31.26 1757.35,-44.4 1785.62,-66.21 1800.78,-78.69"/>
<polygon fill="#9a32cd" stroke="#9a32cd" points="1074.59,-36.01 1065.37,-41.23 1075.83,-42.89 1074.59,-36.01"/>
</a>
</g>
<text text-anchor="middle" x="1444.5" y="-6.26" font-family="Helvetica,sans-Serif" font-size="10.00" fill="grey"> m_eventList</text>
</g>
<!-- Node15&#45;&gt;Node14 -->
<g id="edge21_Node000014_Node000015" class="edge">
<title>Node15&#45;&gt;Node14</title>
<g id="a_edge21_Node000014_Node000015"><a xlink:title=" ">
<path fill="none" stroke="#63b8ff" d="M517.42,-96.78C608.28,-93.36 762.87,-85.88 895,-71.26 900.8,-70.61 906.79,-69.86 912.81,-69.04"/>
<polygon fill="#63b8ff" stroke="#63b8ff" points="517.07,-93.29 507.2,-97.16 517.33,-100.29 517.07,-93.29"/>
</a>
</g>
</g>
<!-- Node16 -->
<g id="Node000016" class="node">
<title>Node16</title>
<g id="a_Node000016"><a xlink:href="class_kit_1_1_container_1_1_s_list.html" target="_top" xlink:title="This template class implements a singly linked list which maintains the ordering imposed on it by the...">
<polygon fill="white" stroke="#666666" points="724.5,-71.26 611.5,-71.26 611.5,-41.26 724.5,-41.26 724.5,-71.26"/>
<text text-anchor="start" x="619.5" y="-59.26" font-family="Helvetica,sans-Serif" font-size="10.00">Kit::Container::SList</text>
<text text-anchor="middle" x="668" y="-48.26" font-family="Helvetica,sans-Serif" font-size="10.00">&lt; ITEM &gt;</text>
</a>
</g>
</g>
<!-- Node15&#45;&gt;Node16 -->
<g id="edge24_Node000016_Node000015" class="edge">
<title>Node15&#45;&gt;Node16</title>
<g id="a_edge24_Node000016_Node000015"><a xlink:title=" ">
<path fill="none" stroke="#63b8ff" d="M499.98,-87.82C534.59,-81.28 577.71,-73.13 611.47,-66.75"/>
<polygon fill="#63b8ff" stroke="#63b8ff" points="499.17,-84.42 489.99,-89.71 500.47,-91.29 499.17,-84.42"/>
</a>
</g>
</g>
<!-- Node16&#45;&gt;Node14 -->
<g id="edge23_Node000014_Node000016" class="edge">
<title>Node16&#45;&gt;Node14</title>
<g id="a_edge23_Node000014_Node000016"><a xlink:title=" ">
<path fill="none" stroke="orange" stroke-dasharray="5,2" d="M734.72,-56.26C786.48,-56.26 858.68,-56.26 912.84,-56.26"/>
<polygon fill="orange" stroke="orange" points="734.65,-52.76 724.65,-56.26 734.65,-59.76 734.65,-52.76"/>
</a>
</g>
<text text-anchor="middle" x="825" y="-59.26" font-family="Helvetica,sans-Serif" font-size="10.00" fill="grey"> &lt; Kit::System::IEventFlag &gt;</text>
</g>
</g>
</svg>
