<?xml version="1.0" encoding="UTF-8" standalone="no"?>
<!DOCTYPE svg PUBLIC "-//W3C//DTD SVG 1.1//EN"
 "http://www.w3.org/Graphics/SVG/1.1/DTD/svg11.dtd">
<!-- Generated by graphviz version 2.43.0 (0)
 -->
<!-- Title: Kit::Text::DStringItem Pages: 1 -->
<svg width="150pt" height="368pt"
 viewBox="0.00 0.00 150.00 368.00" xmlns="http://www.w3.org/2000/svg" xmlns:xlink="http://www.w3.org/1999/xlink">
<g id="graph0" class="graph" transform="scale(1 1) rotate(0) translate(4 364)">
<title>Kit::Text::DStringItem</title>
<!-- Node1 -->
<g id="Node000001" class="node">
<title>Node1</title>
<g id="a_Node000001"><a xlink:title="This concrete class implements the StringItem class for a &#39;String&#39; using a &#39;DString&#39; as the internal ...">
<polygon fill="#999999" stroke="#666666" points="131.5,-19 10.5,-19 10.5,0 131.5,0 131.5,-19"/>
<text text-anchor="middle" x="71" y="-7" font-family="Helvetica,sans-Serif" font-size="10.00">Kit::Text::DStringItem</text>
</a>
</g>
</g>
<!-- Node2 -->
<g id="Node000002" class="node">
<title>Node2</title>
<g id="a_Node000002"><a xlink:href="class_kit_1_1_text_1_1_string_item.html" target="_top" xlink:title="This partially concrete provides a wrapper class that allows a IString object to be stored directly i...">
<polygon fill="white" stroke="#666666" points="127.5,-74 14.5,-74 14.5,-55 127.5,-55 127.5,-74"/>
<text text-anchor="middle" x="71" y="-62" font-family="Helvetica,sans-Serif" font-size="10.00">Kit::Text::StringItem</text>
</a>
</g>
</g>
<!-- Node2&#45;&gt;Node1 -->
<g id="edge1_Node000001_Node000002" class="edge">
<title>Node2&#45;&gt;Node1</title>
<g id="a_edge1_Node000001_Node000002"><a xlink:title=" ">
<path fill="none" stroke="#63b8ff" d="M71,-44.66C71,-35.93 71,-25.99 71,-19.09"/>
<polygon fill="#63b8ff" stroke="#63b8ff" points="67.5,-44.75 71,-54.75 74.5,-44.75 67.5,-44.75"/>
</a>
</g>
</g>
<!-- Node3 -->
<g id="Node000003" class="node">
<title>Node3</title>
<g id="a_Node000003"><a xlink:href="class_kit_1_1_container_1_1_map_item.html" target="_top" xlink:title="This abstract class represents a item that can be contained in an Map (aka a sorted list implemented ...">
<polygon fill="white" stroke="#666666" points="137.5,-129 4.5,-129 4.5,-110 137.5,-110 137.5,-129"/>
<text text-anchor="middle" x="71" y="-117" font-family="Helvetica,sans-Serif" font-size="10.00">Kit::Container::MapItem</text>
</a>
</g>
</g>
<!-- Node3&#45;&gt;Node2 -->
<g id="edge2_Node000002_Node000003" class="edge">
<title>Node3&#45;&gt;Node2</title>
<g id="a_edge2_Node000002_Node000003"><a xlink:title=" ">
<path fill="none" stroke="#63b8ff" d="M71,-99.66C71,-90.93 71,-80.99 71,-74.09"/>
<polygon fill="#63b8ff" stroke="#63b8ff" points="67.5,-99.75 71,-109.75 74.5,-99.75 67.5,-99.75"/>
</a>
</g>
</g>
<!-- Node4 -->
<g id="Node000004" class="node">
<title>Node4</title>
<g id="a_Node000004"><a xlink:href="class_kit_1_1_container_1_1_keyed_item.html" target="_top" xlink:title="This abstract class represents a item that can be used with containers that have a concept of Key&#45;Val...">
<polygon fill="white" stroke="#666666" points="142,-184 0,-184 0,-165 142,-165 142,-184"/>
<text text-anchor="middle" x="71" y="-172" font-family="Helvetica,sans-Serif" font-size="10.00">Kit::Container::KeyedItem</text>
</a>
</g>
</g>
<!-- Node4&#45;&gt;Node3 -->
<g id="edge3_Node000003_Node000004" class="edge">
<title>Node4&#45;&gt;Node3</title>
<g id="a_edge3_Node000003_Node000004"><a xlink:title=" ">
<path fill="none" stroke="#63b8ff" d="M71,-154.66C71,-145.93 71,-135.99 71,-129.09"/>
<polygon fill="#63b8ff" stroke="#63b8ff" points="67.5,-154.75 71,-164.75 74.5,-154.75 67.5,-154.75"/>
</a>
</g>
</g>
<!-- Node5 -->
<g id="Node000005" class="node">
<title>Node5</title>
<g id="a_Node000005"><a xlink:href="class_kit_1_1_container_1_1_extended_list_item.html" target="_top" xlink:title="This class is used by the Container classes to implement a various types of DOUBLY linked containers.">
<polygon fill="white" stroke="#666666" points="138.5,-250 3.5,-250 3.5,-220 138.5,-220 138.5,-250"/>
<text text-anchor="start" x="11.5" y="-238" font-family="Helvetica,sans-Serif" font-size="10.00">Kit::Container::Extended</text>
<text text-anchor="middle" x="71" y="-227" font-family="Helvetica,sans-Serif" font-size="10.00">ListItem</text>
</a>
</g>
</g>
<!-- Node5&#45;&gt;Node4 -->
<g id="edge4_Node000004_Node000005" class="edge">
<title>Node5&#45;&gt;Node4</title>
<g id="a_edge4_Node000004_Node000005"><a xlink:title=" ">
<path fill="none" stroke="#63b8ff" d="M71,-209.75C71,-200.72 71,-191.03 71,-184.27"/>
<polygon fill="#63b8ff" stroke="#63b8ff" points="67.5,-209.84 71,-219.84 74.5,-209.84 67.5,-209.84"/>
</a>
</g>
</g>
<!-- Node6 -->
<g id="Node000006" class="node">
<title>Node6</title>
<g id="a_Node000006"><a xlink:href="class_kit_1_1_container_1_1_list_item.html" target="_top" xlink:title="This class is used by the Container classes to implement a various types of linked lists containers.">
<polygon fill="white" stroke="#666666" points="135.5,-305 6.5,-305 6.5,-286 135.5,-286 135.5,-305"/>
<text text-anchor="middle" x="71" y="-293" font-family="Helvetica,sans-Serif" font-size="10.00">Kit::Container::ListItem</text>
</a>
</g>
</g>
<!-- Node6&#45;&gt;Node5 -->
<g id="edge5_Node000005_Node000006" class="edge">
<title>Node6&#45;&gt;Node5</title>
<g id="a_edge5_Node000005_Node000006"><a xlink:title=" ">
<path fill="none" stroke="#63b8ff" d="M71,-275.65C71,-267.36 71,-257.78 71,-250.11"/>
<polygon fill="#63b8ff" stroke="#63b8ff" points="67.5,-275.87 71,-285.87 74.5,-275.87 67.5,-275.87"/>
</a>
</g>
</g>
<!-- Node7 -->
<g id="Node000007" class="node">
<title>Node7</title>
<g id="a_Node000007"><a xlink:href="class_kit_1_1_container_1_1_item.html" target="_top" xlink:title="This class is used by the Intrusive Container classes to enforce the semantic and item/element can be...">
<polygon fill="white" stroke="#666666" points="127,-360 15,-360 15,-341 127,-341 127,-360"/>
<text text-anchor="middle" x="71" y="-348" font-family="Helvetica,sans-Serif" font-size="10.00">Kit::Container::Item</text>
</a>
</g>
</g>
<!-- Node7&#45;&gt;Node6 -->
<g id="edge6_Node000006_Node000007" class="edge">
<title>Node7&#45;&gt;Node6</title>
<g id="a_edge6_Node000006_Node000007"><a xlink:title=" ">
<path fill="none" stroke="#63b8ff" d="M71,-330.66C71,-321.93 71,-311.99 71,-305.09"/>
<polygon fill="#63b8ff" stroke="#63b8ff" points="67.5,-330.75 71,-340.75 74.5,-330.75 67.5,-330.75"/>
</a>
</g>
</g>
</g>
</svg>
