<?xml version="1.0" encoding="UTF-8" standalone="no"?>
<!DOCTYPE svg PUBLIC "-//W3C//DTD SVG 1.1//EN"
 "http://www.w3.org/Graphics/SVG/1.1/DTD/svg11.dtd">
<!-- Generated by graphviz version 2.43.0 (0)
 -->
<!-- Title: Kit::Container::DList&lt; ITEM &gt; Pages: 1 -->
<svg width="210pt" height="171pt"
 viewBox="0.00 0.00 209.50 171.00" xmlns="http://www.w3.org/2000/svg" xmlns:xlink="http://www.w3.org/1999/xlink">
<g id="graph0" class="graph" transform="scale(1 1) rotate(0) translate(4 167)">
<title>Kit::Container::DList&lt; ITEM &gt;</title>
<!-- Node1 -->
<g id="Node000001" class="node">
<title>Node1</title>
<g id="a_Node000001"><a xlink:title="This template class implements a singly linked list which maintains the ordering imposed on it by the...">
<polygon fill="#999999" stroke="#666666" points="128.5,-107 14.5,-107 14.5,-77 128.5,-77 128.5,-107"/>
<text text-anchor="start" x="22.5" y="-95" font-family="Helvetica,sans-Serif" font-size="10.00">Kit::Container::DList</text>
<text text-anchor="middle" x="71.5" y="-84" font-family="Helvetica,sans-Serif" font-size="10.00">&lt; ITEM &gt;</text>
</a>
</g>
</g>
<!-- Node3 -->
<g id="Node000003" class="node">
<title>Node3</title>
<g id="a_Node000003"><a xlink:href="class_kit_1_1_container_1_1_d_list.html" target="_top" xlink:title=" ">
<polygon fill="white" stroke="#666666" points="143,-30 0,-30 0,0 143,0 143,-30"/>
<text text-anchor="start" x="8" y="-18" font-family="Helvetica,sans-Serif" font-size="10.00">Kit::Container::DList</text>
<text text-anchor="middle" x="71.5" y="-7" font-family="Helvetica,sans-Serif" font-size="10.00">&lt; Kit::System::ICounter &gt;</text>
</a>
</g>
</g>
<!-- Node1&#45;&gt;Node3 -->
<g id="edge2_Node000001_Node000003" class="edge">
<title>Node1&#45;&gt;Node3</title>
<g id="a_edge2_Node000001_Node000003"><a xlink:title=" ">
<path fill="none" stroke="orange" stroke-dasharray="5,2" d="M71.5,-66.54C71.5,-54.45 71.5,-40.29 71.5,-30.04"/>
<polygon fill="orange" stroke="orange" points="68,-66.89 71.5,-76.89 75,-66.89 68,-66.89"/>
</a>
</g>
<text text-anchor="middle" x="136.5" y="-51" font-family="Helvetica,sans-Serif" font-size="10.00" fill="grey"> &lt; Kit::System::ICounter &gt;</text>
</g>
<!-- Node2 -->
<g id="Node000002" class="node">
<title>Node2</title>
<g id="a_Node000002"><a xlink:href="class_kit_1_1_container_1_1_d_list_base.html" target="_top" xlink:title="This protected base class implements a NON&#45;TYPE&#45;SAFE a doubly linked list which maintains the orderin...">
<polygon fill="white" stroke="#666666" points="140.5,-163 2.5,-163 2.5,-144 140.5,-144 140.5,-163"/>
<text text-anchor="middle" x="71.5" y="-151" font-family="Helvetica,sans-Serif" font-size="10.00">Kit::Container::DListBase</text>
</a>
</g>
</g>
<!-- Node2&#45;&gt;Node1 -->
<g id="edge1_Node000001_Node000002" class="edge">
<title>Node2&#45;&gt;Node1</title>
<g id="a_edge1_Node000001_Node000002"><a xlink:title=" ">
<path fill="none" stroke="#63b8ff" d="M71.5,-133.73C71.5,-125.09 71.5,-115 71.5,-107.02"/>
<polygon fill="#63b8ff" stroke="#63b8ff" points="68,-133.98 71.5,-143.98 75,-133.98 68,-133.98"/>
</a>
</g>
</g>
</g>
</svg>
