<?xml version="1.0" encoding="UTF-8" standalone="no"?>
<!DOCTYPE svg PUBLIC "-//W3C//DTD SVG 1.1//EN"
 "http://www.w3.org/Graphics/SVG/1.1/DTD/svg11.dtd">
<!-- Generated by graphviz version 2.43.0 (0)
 -->
<!-- Title: Kit::System::Thread Pages: 1 -->
<svg width="357pt" height="205pt"
 viewBox="0.00 0.00 356.50 205.00" xmlns="http://www.w3.org/2000/svg" xmlns:xlink="http://www.w3.org/1999/xlink">
<g id="graph0" class="graph" transform="scale(1 1) rotate(0) translate(4 201)">
<title>Kit::System::Thread</title>
<!-- Node1 -->
<g id="Node000001" class="node">
<title>Node1</title>
<g id="a_Node000001"><a xlink:title="This mostly abstract class defines the operations that can be performed on a thread.">
<polygon fill="#999999" stroke="#666666" points="130.5,-85 17.5,-85 17.5,-66 130.5,-66 130.5,-85"/>
<text text-anchor="middle" x="74" y="-73" font-family="Helvetica,sans-Serif" font-size="10.00">Kit::System::Thread</text>
</a>
</g>
</g>
<!-- Node5 -->
<g id="Node000005" class="node">
<title>Node5</title>
<g id="a_Node000005"><a xlink:href="class_kit_1_1_system_1_1_i_runnable.html" target="_top" xlink:title="This mostly an abstract class defines the interface for an object that is &quot;executed&quot; when a Thread ob...">
<polygon fill="white" stroke="#666666" points="138,-19 10,-19 10,0 138,0 138,-19"/>
<text text-anchor="middle" x="74" y="-7" font-family="Helvetica,sans-Serif" font-size="10.00">Kit::System::IRunnable</text>
</a>
</g>
</g>
<!-- Node1&#45;&gt;Node5 -->
<g id="edge6_Node000005_Node000001" class="edge">
<title>Node1&#45;&gt;Node5</title>
<g id="a_edge6_Node000005_Node000001"><a xlink:title=" ">
<path fill="none" stroke="#9a32cd" stroke-dasharray="5,2" d="M22.28,-61.19C16.67,-57.76 11.68,-53.44 8,-48 -1.3,-34.24 14.54,-24.94 33.03,-19.05"/>
<polygon fill="#9a32cd" stroke="#9a32cd" points="21,-64.47 31.49,-65.9 24.18,-58.23 21,-64.47"/>
</a>
</g>
<text text-anchor="middle" x="59.5" y="-40" font-family="Helvetica,sans-Serif" font-size="10.00" fill="grey"> m_parentThreadPtr_</text>
</g>
<!-- Node2 -->
<g id="Node000002" class="node">
<title>Node2</title>
<g id="a_Node000002"><a xlink:href="class_kit_1_1_system_1_1_i_signable.html" target="_top" xlink:title="This abstract class defines the interface by which a client can cause an object that is waiting&#45;on&#45;a&#45;...">
<polygon fill="white" stroke="#666666" points="124,-141 0,-141 0,-122 124,-122 124,-141"/>
<text text-anchor="middle" x="62" y="-129" font-family="Helvetica,sans-Serif" font-size="10.00">Kit::System::ISignable</text>
</a>
</g>
</g>
<!-- Node2&#45;&gt;Node1 -->
<g id="edge1_Node000001_Node000002" class="edge">
<title>Node2&#45;&gt;Node1</title>
<g id="a_edge1_Node000001_Node000002"><a xlink:title=" ">
<path fill="none" stroke="#63b8ff" d="M66.2,-111.6C68.19,-102.64 70.48,-92.36 72.06,-85.25"/>
<polygon fill="#63b8ff" stroke="#63b8ff" points="62.73,-111.06 63.98,-121.58 69.57,-112.58 62.73,-111.06"/>
</a>
</g>
</g>
<!-- Node3 -->
<g id="Node000003" class="node">
<title>Node3</title>
<g id="a_Node000003"><a xlink:href="class_kit_1_1_container_1_1_list_item.html" target="_top" xlink:title="This class is used by the Container classes to implement a various types of linked lists containers.">
<polygon fill="white" stroke="#666666" points="271.5,-141 142.5,-141 142.5,-122 271.5,-122 271.5,-141"/>
<text text-anchor="middle" x="207" y="-129" font-family="Helvetica,sans-Serif" font-size="10.00">Kit::Container::ListItem</text>
</a>
</g>
</g>
<!-- Node3&#45;&gt;Node1 -->
<g id="edge2_Node000001_Node000003" class="edge">
<title>Node3&#45;&gt;Node1</title>
<g id="a_edge2_Node000001_Node000003"><a xlink:title=" ">
<path fill="none" stroke="#63b8ff" d="M176.55,-118.14C151.59,-108 116.92,-93.93 94.98,-85.02"/>
<polygon fill="#63b8ff" stroke="#63b8ff" points="175.34,-121.42 185.93,-121.94 177.98,-114.94 175.34,-121.42"/>
</a>
</g>
</g>
<!-- Node3&#45;&gt;Node3 -->
<g id="edge4_Node000003_Node000003" class="edge">
<title>Node3&#45;&gt;Node3</title>
<g id="a_edge4_Node000003_Node000003"><a xlink:title=" ">
<path fill="none" stroke="#9a32cd" stroke-dasharray="5,2" d="M281.96,-135.19C286.66,-134.32 289.5,-133.09 289.5,-131.5 289.5,-128.96 282.24,-127.34 271.68,-126.64"/>
<polygon fill="#9a32cd" stroke="#9a32cd" points="281.22,-131.75 271.68,-136.36 282.01,-138.7 281.22,-131.75"/>
</a>
</g>
<text text-anchor="middle" x="319" y="-129" font-family="Helvetica,sans-Serif" font-size="10.00" fill="grey"> m_nextPtr_</text>
</g>
<!-- Node4 -->
<g id="Node000004" class="node">
<title>Node4</title>
<g id="a_Node000004"><a xlink:href="class_kit_1_1_container_1_1_item.html" target="_top" xlink:title="This class is used by the Intrusive Container classes to enforce the semantic and item/element can be...">
<polygon fill="white" stroke="#666666" points="263,-197 151,-197 151,-178 263,-178 263,-197"/>
<text text-anchor="middle" x="207" y="-185" font-family="Helvetica,sans-Serif" font-size="10.00">Kit::Container::Item</text>
</a>
</g>
</g>
<!-- Node4&#45;&gt;Node3 -->
<g id="edge3_Node000003_Node000004" class="edge">
<title>Node4&#45;&gt;Node3</title>
<g id="a_edge3_Node000003_Node000004"><a xlink:title=" ">
<path fill="none" stroke="#63b8ff" d="M207,-167.3C207,-158.41 207,-148.28 207,-141.25"/>
<polygon fill="#63b8ff" stroke="#63b8ff" points="203.5,-167.58 207,-177.58 210.5,-167.58 203.5,-167.58"/>
</a>
</g>
</g>
<!-- Node5&#45;&gt;Node1 -->
<g id="edge5_Node000001_Node000005" class="edge">
<title>Node5&#45;&gt;Node1</title>
<g id="a_edge5_Node000001_Node000005"><a xlink:title=" ">
<path fill="none" stroke="#9a32cd" stroke-dasharray="5,2" d="M103.79,-24.12C113.24,-30.47 120.07,-38.69 115,-48 110.7,-55.89 102.94,-61.79 95.31,-65.99"/>
<polygon fill="#9a32cd" stroke="#9a32cd" points="105.45,-21.03 95.05,-19.03 101.93,-27.08 105.45,-21.03"/>
</a>
</g>
<text text-anchor="middle" x="146.5" y="-40" font-family="Helvetica,sans-Serif" font-size="10.00" fill="grey"> m_runnable</text>
</g>
</g>
</svg>
