<?xml version="1.0" encoding="UTF-8" standalone="no"?>
<!DOCTYPE svg PUBLIC "-//W3C//DTD SVG 1.1//EN"
 "http://www.w3.org/Graphics/SVG/1.1/DTD/svg11.dtd">
<!-- Generated by graphviz version 2.43.0 (0)
 -->
<!-- Title: Kit::Container::Item Pages: 1 -->
<svg width="1140pt" height="124pt"
 viewBox="0.00 0.00 1140.00 123.50" xmlns="http://www.w3.org/2000/svg" xmlns:xlink="http://www.w3.org/1999/xlink">
<g id="graph0" class="graph" transform="scale(1 1) rotate(0) translate(4 119.5)">
<title>Kit::Container::Item</title>
<!-- Node1 -->
<g id="Node000001" class="node">
<title>Node1</title>
<g id="a_Node000001"><a xlink:title="This class is used by the Intrusive Container classes to enforce the semantic and item/element can be...">
<polygon fill="#999999" stroke="#666666" points="112,-62 0,-62 0,-43 112,-43 112,-62"/>
<text text-anchor="middle" x="56" y="-50" font-family="Helvetica,sans-Serif" font-size="10.00">Kit::Container::Item</text>
</a>
</g>
</g>
<!-- Node2 -->
<g id="Node000002" class="node">
<title>Node2</title>
<g id="a_Node000002"><a xlink:href="class_kit_1_1_container_1_1_list_item.html" target="_top" xlink:title="This class is used by the Container classes to implement a various types of linked lists containers.">
<polygon fill="white" stroke="#666666" points="277,-62 148,-62 148,-43 277,-43 277,-62"/>
<text text-anchor="middle" x="212.5" y="-50" font-family="Helvetica,sans-Serif" font-size="10.00">Kit::Container::ListItem</text>
</a>
</g>
</g>
<!-- Node1&#45;&gt;Node2 -->
<g id="edge1_Node000001_Node000002" class="edge">
<title>Node1&#45;&gt;Node2</title>
<g id="a_edge1_Node000001_Node000002"><a xlink:title=" ">
<path fill="none" stroke="#63b8ff" d="M122.48,-52.5C130.89,-52.5 139.49,-52.5 147.87,-52.5"/>
<polygon fill="#63b8ff" stroke="#63b8ff" points="122.34,-49 112.34,-52.5 122.34,-56 122.34,-49"/>
</a>
</g>
</g>
<!-- Node3 -->
<g id="Node000003" class="node">
<title>Node3</title>
<g id="a_Node000003"><a xlink:href="class_kit_1_1_container_1_1_extended_list_item.html" target="_top" xlink:title="This class is used by the Container classes to implement a various types of DOUBLY linked containers.">
<polygon fill="white" stroke="#666666" points="450.5,-115.5 315.5,-115.5 315.5,-85.5 450.5,-85.5 450.5,-115.5"/>
<text text-anchor="start" x="323.5" y="-103.5" font-family="Helvetica,sans-Serif" font-size="10.00">Kit::Container::Extended</text>
<text text-anchor="middle" x="383" y="-92.5" font-family="Helvetica,sans-Serif" font-size="10.00">ListItem</text>
</a>
</g>
</g>
<!-- Node2&#45;&gt;Node3 -->
<g id="edge2_Node000002_Node000003" class="edge">
<title>Node2&#45;&gt;Node3</title>
<g id="a_edge2_Node000002_Node000003"><a xlink:title=" ">
<path fill="none" stroke="#63b8ff" d="M256.94,-64.87C278.96,-71.15 305.9,-78.82 329.12,-85.44"/>
<polygon fill="#63b8ff" stroke="#63b8ff" points="257.77,-61.47 247.19,-62.1 255.85,-68.2 257.77,-61.47"/>
</a>
</g>
</g>
<!-- Node8 -->
<g id="Node000008" class="node">
<title>Node8</title>
<g id="a_Node000008"><a xlink:href="class_kit_1_1_system_1_1_shutdown_1_1_handler.html" target="_top" xlink:title="This call defines the callback interface that is used when the application is shutdown.">
<polygon fill="white" stroke="#666666" points="446.5,-67.5 319.5,-67.5 319.5,-37.5 446.5,-37.5 446.5,-67.5"/>
<text text-anchor="start" x="327.5" y="-55.5" font-family="Helvetica,sans-Serif" font-size="10.00">Kit::System::Shutdown</text>
<text text-anchor="middle" x="383" y="-44.5" font-family="Helvetica,sans-Serif" font-size="10.00">::Handler</text>
</a>
</g>
</g>
<!-- Node2&#45;&gt;Node8 -->
<g id="edge7_Node000002_Node000008" class="edge">
<title>Node2&#45;&gt;Node8</title>
<g id="a_edge7_Node000002_Node000008"><a xlink:title=" ">
<path fill="none" stroke="#63b8ff" d="M287.34,-52.5C298.01,-52.5 308.9,-52.5 319.32,-52.5"/>
<polygon fill="#63b8ff" stroke="#63b8ff" points="287.2,-49 277.2,-52.5 287.2,-56 287.2,-49"/>
</a>
</g>
</g>
<!-- Node9 -->
<g id="Node000009" class="node">
<title>Node9</title>
<g id="a_Node000009"><a xlink:href="class_kit_1_1_system_1_1_startup_hook.html" target="_top" xlink:title="This class defines a start&#45;up handler/hook that allows a KIT Library sub&#45;system to register to be cal...">
<polygon fill="white" stroke="#666666" points="453,-19 313,-19 313,0 453,0 453,-19"/>
<text text-anchor="middle" x="383" y="-7" font-family="Helvetica,sans-Serif" font-size="10.00">Kit::System::StartupHook</text>
</a>
</g>
</g>
<!-- Node2&#45;&gt;Node9 -->
<g id="edge8_Node000002_Node000009" class="edge">
<title>Node2&#45;&gt;Node9</title>
<g id="a_edge8_Node000002_Node000009"><a xlink:title=" ">
<path fill="none" stroke="#63b8ff" d="M260.74,-40.44C287.3,-33.67 319.97,-25.33 344.71,-19.02"/>
<polygon fill="#63b8ff" stroke="#63b8ff" points="259.72,-37.09 250.9,-42.96 261.45,-43.88 259.72,-37.09"/>
</a>
</g>
</g>
<!-- Node4 -->
<g id="Node000004" class="node">
<title>Node4</title>
<g id="a_Node000004"><a xlink:href="class_kit_1_1_container_1_1_keyed_item.html" target="_top" xlink:title="This abstract class represents a item that can be used with containers that have a concept of Key&#45;Val...">
<polygon fill="white" stroke="#666666" points="631,-110 489,-110 489,-91 631,-91 631,-110"/>
<text text-anchor="middle" x="560" y="-98" font-family="Helvetica,sans-Serif" font-size="10.00">Kit::Container::KeyedItem</text>
</a>
</g>
</g>
<!-- Node3&#45;&gt;Node4 -->
<g id="edge3_Node000003_Node000004" class="edge">
<title>Node3&#45;&gt;Node4</title>
<g id="a_edge3_Node000003_Node000004"><a xlink:title=" ">
<path fill="none" stroke="#63b8ff" d="M460.69,-100.5C470.02,-100.5 479.52,-100.5 488.74,-100.5"/>
<polygon fill="#63b8ff" stroke="#63b8ff" points="460.66,-97 450.66,-100.5 460.66,-104 460.66,-97"/>
</a>
</g>
</g>
<!-- Node5 -->
<g id="Node000005" class="node">
<title>Node5</title>
<g id="a_Node000005"><a xlink:href="class_kit_1_1_container_1_1_map_item.html" target="_top" xlink:title="This abstract class represents a item that can be contained in an Map (aka a sorted list implemented ...">
<polygon fill="white" stroke="#666666" points="800,-110 667,-110 667,-91 800,-91 800,-110"/>
<text text-anchor="middle" x="733.5" y="-98" font-family="Helvetica,sans-Serif" font-size="10.00">Kit::Container::MapItem</text>
</a>
</g>
</g>
<!-- Node4&#45;&gt;Node5 -->
<g id="edge4_Node000004_Node000005" class="edge">
<title>Node4&#45;&gt;Node5</title>
<g id="a_edge4_Node000004_Node000005"><a xlink:title=" ">
<path fill="none" stroke="#63b8ff" d="M641.52,-100.5C649.98,-100.5 658.51,-100.5 666.78,-100.5"/>
<polygon fill="#63b8ff" stroke="#63b8ff" points="641.25,-97 631.25,-100.5 641.25,-104 641.25,-97"/>
</a>
</g>
</g>
<!-- Node6 -->
<g id="Node000006" class="node">
<title>Node6</title>
<g id="a_Node000006"><a xlink:href="class_kit_1_1_text_1_1_string_item.html" target="_top" xlink:title="This partially concrete provides a wrapper class that allows a IString object to be stored directly i...">
<polygon fill="white" stroke="#666666" points="949,-110 836,-110 836,-91 949,-91 949,-110"/>
<text text-anchor="middle" x="892.5" y="-98" font-family="Helvetica,sans-Serif" font-size="10.00">Kit::Text::StringItem</text>
</a>
</g>
</g>
<!-- Node5&#45;&gt;Node6 -->
<g id="edge5_Node000005_Node000006" class="edge">
<title>Node5&#45;&gt;Node6</title>
<g id="a_edge5_Node000005_Node000006"><a xlink:title=" ">
<path fill="none" stroke="#63b8ff" d="M810.45,-100.5C818.91,-100.5 827.41,-100.5 835.55,-100.5"/>
<polygon fill="#63b8ff" stroke="#63b8ff" points="810.17,-97 800.17,-100.5 810.17,-104 810.17,-97"/>
</a>
</g>
</g>
<!-- Node7 -->
<g id="Node000007" class="node">
<title>Node7</title>
<g id="a_Node000007"><a xlink:href="class_kit_1_1_text_1_1_f_string_item.html" target="_top" xlink:title="This template class implements the StringItem class for a &#39;String&#39; using a &#39;FString&#39; as the internal ...">
<polygon fill="white" stroke="#666666" points="1132,-110 985,-110 985,-91 1132,-91 1132,-110"/>
<text text-anchor="middle" x="1058.5" y="-98" font-family="Helvetica,sans-Serif" font-size="10.00">Kit::Text::FStringItem&lt; S &gt;</text>
</a>
</g>
</g>
<!-- Node6&#45;&gt;Node7 -->
<g id="edge6_Node000006_Node000007" class="edge">
<title>Node6&#45;&gt;Node7</title>
<g id="a_edge6_Node000006_Node000007"><a xlink:title=" ">
<path fill="none" stroke="#63b8ff" d="M959.19,-100.5C967.64,-100.5 976.33,-100.5 984.88,-100.5"/>
<polygon fill="#63b8ff" stroke="#63b8ff" points="959.02,-97 949.02,-100.5 959.02,-104 959.02,-97"/>
</a>
</g>
</g>
</g>
</svg>
