<?xml version="1.0" encoding="UTF-8" standalone="no"?>
<!DOCTYPE svg PUBLIC "-//W3C//DTD SVG 1.1//EN"
 "http://www.w3.org/Graphics/SVG/1.1/DTD/svg11.dtd">
<!-- Generated by graphviz version 2.43.0 (0)
 -->
<!-- Title: Kit::System::StartupHook Pages: 1 -->
<svg width="220pt" height="139pt"
 viewBox="0.00 0.00 219.50 139.00" xmlns="http://www.w3.org/2000/svg" xmlns:xlink="http://www.w3.org/1999/xlink">
<g id="graph0" class="graph" transform="scale(1 1) rotate(0) translate(4 135)">
<title>Kit::System::StartupHook</title>
<!-- Node1 -->
<g id="Node000001" class="node">
<title>Node1</title>
<g id="a_Node000001"><a xlink:title="This class defines a start&#45;up handler/hook that allows a KIT Library sub&#45;system to register to be cal...">
<polygon fill="#999999" stroke="#666666" points="140,-19 0,-19 0,0 140,0 140,-19"/>
<text text-anchor="middle" x="70" y="-7" font-family="Helvetica,sans-Serif" font-size="10.00">Kit::System::StartupHook</text>
</a>
</g>
</g>
<!-- Node2 -->
<g id="Node000002" class="node">
<title>Node2</title>
<g id="a_Node000002"><a xlink:href="class_kit_1_1_container_1_1_list_item.html" target="_top" xlink:title="This class is used by the Container classes to implement a various types of linked lists containers.">
<polygon fill="white" stroke="#666666" points="134.5,-75 5.5,-75 5.5,-56 134.5,-56 134.5,-75"/>
<text text-anchor="middle" x="70" y="-63" font-family="Helvetica,sans-Serif" font-size="10.00">Kit::Container::ListItem</text>
</a>
</g>
</g>
<!-- Node2&#45;&gt;Node1 -->
<g id="edge1_Node000001_Node000002" class="edge">
<title>Node2&#45;&gt;Node1</title>
<g id="a_edge1_Node000001_Node000002"><a xlink:title=" ">
<path fill="none" stroke="#63b8ff" d="M70,-45.3C70,-36.41 70,-26.28 70,-19.25"/>
<polygon fill="#63b8ff" stroke="#63b8ff" points="66.5,-45.58 70,-55.58 73.5,-45.58 66.5,-45.58"/>
</a>
</g>
</g>
<!-- Node2&#45;&gt;Node2 -->
<g id="edge3_Node000002_Node000002" class="edge">
<title>Node2&#45;&gt;Node2</title>
<g id="a_edge3_Node000002_Node000002"><a xlink:title=" ">
<path fill="none" stroke="#9a32cd" stroke-dasharray="5,2" d="M144.96,-69.19C149.66,-68.32 152.5,-67.09 152.5,-65.5 152.5,-62.96 145.24,-61.34 134.68,-60.64"/>
<polygon fill="#9a32cd" stroke="#9a32cd" points="144.22,-65.75 134.68,-70.36 145.01,-72.7 144.22,-65.75"/>
</a>
</g>
<text text-anchor="middle" x="182" y="-63" font-family="Helvetica,sans-Serif" font-size="10.00" fill="grey"> m_nextPtr_</text>
</g>
<!-- Node3 -->
<g id="Node000003" class="node">
<title>Node3</title>
<g id="a_Node000003"><a xlink:href="class_kit_1_1_container_1_1_item.html" target="_top" xlink:title="This class is used by the Intrusive Container classes to enforce the semantic and item/element can be...">
<polygon fill="white" stroke="#666666" points="126,-131 14,-131 14,-112 126,-112 126,-131"/>
<text text-anchor="middle" x="70" y="-119" font-family="Helvetica,sans-Serif" font-size="10.00">Kit::Container::Item</text>
</a>
</g>
</g>
<!-- Node3&#45;&gt;Node2 -->
<g id="edge2_Node000002_Node000003" class="edge">
<title>Node3&#45;&gt;Node2</title>
<g id="a_edge2_Node000002_Node000003"><a xlink:title=" ">
<path fill="none" stroke="#63b8ff" d="M70,-101.3C70,-92.41 70,-82.28 70,-75.25"/>
<polygon fill="#63b8ff" stroke="#63b8ff" points="66.5,-101.58 70,-111.58 73.5,-101.58 66.5,-101.58"/>
</a>
</g>
</g>
</g>
</svg>
