<?xml version="1.0" encoding="UTF-8" standalone="no"?>
<!DOCTYPE svg PUBLIC "-//W3C//DTD SVG 1.1//EN"
 "http://www.w3.org/Graphics/SVG/1.1/DTD/svg11.dtd">
<!-- Generated by graphviz version 2.43.0 (0)
 -->
<!-- Title: Kit::Text::FStringBase Pages: 1 -->
<svg width="210pt" height="328pt"
 viewBox="0.00 0.00 209.50 328.00" xmlns="http://www.w3.org/2000/svg" xmlns:xlink="http://www.w3.org/1999/xlink">
<g id="graph0" class="graph" transform="scale(1 1) rotate(0) translate(4 324)">
<title>Kit::Text::FStringBase</title>
<!-- Node1 -->
<g id="Node000001" class="node">
<title>Node1</title>
<g id="a_Node000001"><a xlink:title="This mostly concrete class implements a &quot;fixed storage&quot; String Type.">
<polygon fill="#999999" stroke="#666666" points="120,-152 0,-152 0,-133 120,-133 120,-152"/>
<text text-anchor="middle" x="60" y="-140" font-family="Helvetica,sans-Serif" font-size="10.00">Kit::Text::FStringBase</text>
</a>
</g>
</g>
<!-- Node5 -->
<g id="Node000005" class="node">
<title>Node5</title>
<g id="a_Node000005"><a xlink:href="class_kit_1_1_text_1_1_f_string.html" target="_top" xlink:title=" ">
<polygon fill="white" stroke="#666666" points="112,-30 16,-30 16,0 112,0 112,-30"/>
<text text-anchor="start" x="24" y="-18" font-family="Helvetica,sans-Serif" font-size="10.00">Kit::Text::FString</text>
<text text-anchor="middle" x="64" y="-7" font-family="Helvetica,sans-Serif" font-size="10.00">&lt; 64 &gt;</text>
</a>
</g>
</g>
<!-- Node1&#45;&gt;Node5 -->
<g id="edge4_Node000001_Node000005" class="edge">
<title>Node1&#45;&gt;Node5</title>
<g id="a_edge4_Node000001_Node000005"><a xlink:title=" ">
<path fill="none" stroke="#63b8ff" d="M60.6,-122.76C61.4,-97.48 62.82,-53.02 63.55,-30.27"/>
<polygon fill="#63b8ff" stroke="#63b8ff" points="57.1,-122.77 60.27,-132.87 64.09,-122.99 57.1,-122.77"/>
</a>
</g>
</g>
<!-- Node6 -->
<g id="Node000006" class="node">
<title>Node6</title>
<g id="a_Node000006"><a xlink:href="class_kit_1_1_text_1_1_f_string.html" target="_top" xlink:title="This template class represents a NULL terminated string of a specific length.">
<polygon fill="white" stroke="#666666" points="201.5,-96 76.5,-96 76.5,-77 201.5,-77 201.5,-96"/>
<text text-anchor="middle" x="139" y="-84" font-family="Helvetica,sans-Serif" font-size="10.00">Kit::Text::FString&lt; S &gt;</text>
</a>
</g>
</g>
<!-- Node1&#45;&gt;Node6 -->
<g id="edge5_Node000001_Node000006" class="edge">
<title>Node1&#45;&gt;Node6</title>
<g id="a_edge5_Node000001_Node000006"><a xlink:title=" ">
<path fill="none" stroke="#63b8ff" d="M81.03,-127.12C95.47,-117.26 114.14,-104.49 126.34,-96.15"/>
<polygon fill="#63b8ff" stroke="#63b8ff" points="78.97,-124.29 72.69,-132.82 82.92,-130.07 78.97,-124.29"/>
</a>
</g>
</g>
<!-- Node2 -->
<g id="Node000002" class="node">
<title>Node2</title>
<g id="a_Node000002"><a xlink:href="class_kit_1_1_text_1_1_string_base.html" target="_top" xlink:title="This partially concrete class implements the portions of the String Api that is independent of the in...">
<polygon fill="white" stroke="#666666" points="117.5,-208 2.5,-208 2.5,-189 117.5,-189 117.5,-208"/>
<text text-anchor="middle" x="60" y="-196" font-family="Helvetica,sans-Serif" font-size="10.00">Kit::Text::StringBase</text>
</a>
</g>
</g>
<!-- Node2&#45;&gt;Node1 -->
<g id="edge1_Node000001_Node000002" class="edge">
<title>Node2&#45;&gt;Node1</title>
<g id="a_edge1_Node000001_Node000002"><a xlink:title=" ">
<path fill="none" stroke="#63b8ff" d="M60,-178.3C60,-169.41 60,-159.28 60,-152.25"/>
<polygon fill="#63b8ff" stroke="#63b8ff" points="56.5,-178.58 60,-188.58 63.5,-178.58 56.5,-178.58"/>
</a>
</g>
</g>
<!-- Node3 -->
<g id="Node000003" class="node">
<title>Node3</title>
<g id="a_Node000003"><a xlink:href="class_kit_1_1_text_1_1_i_string.html" target="_top" xlink:title="This abstract class defines the operations that can be before on a NULL terminated string.">
<polygon fill="white" stroke="#666666" points="107,-264 13,-264 13,-245 107,-245 107,-264"/>
<text text-anchor="middle" x="60" y="-252" font-family="Helvetica,sans-Serif" font-size="10.00">Kit::Text::IString</text>
</a>
</g>
</g>
<!-- Node3&#45;&gt;Node2 -->
<g id="edge2_Node000002_Node000003" class="edge">
<title>Node3&#45;&gt;Node2</title>
<g id="a_edge2_Node000002_Node000003"><a xlink:title=" ">
<path fill="none" stroke="#63b8ff" d="M60,-234.3C60,-225.41 60,-215.28 60,-208.25"/>
<polygon fill="#63b8ff" stroke="#63b8ff" points="56.5,-234.58 60,-244.58 63.5,-234.58 56.5,-234.58"/>
</a>
</g>
</g>
<!-- Node4 -->
<g id="Node000004" class="node">
<title>Node4</title>
<g id="a_Node000004"><a xlink:href="class_kit_1_1_container_1_1_key.html" target="_top" xlink:title="This abstract class defines the interface that a contained object must support if it has comparable k...">
<polygon fill="white" stroke="#666666" points="113.5,-320 6.5,-320 6.5,-301 113.5,-301 113.5,-320"/>
<text text-anchor="middle" x="60" y="-308" font-family="Helvetica,sans-Serif" font-size="10.00">Kit::Container::Key</text>
</a>
</g>
</g>
<!-- Node4&#45;&gt;Node3 -->
<g id="edge3_Node000003_Node000004" class="edge">
<title>Node4&#45;&gt;Node3</title>
<g id="a_edge3_Node000003_Node000004"><a xlink:title=" ">
<path fill="none" stroke="#63b8ff" d="M60,-290.3C60,-281.41 60,-271.28 60,-264.25"/>
<polygon fill="#63b8ff" stroke="#63b8ff" points="56.5,-290.58 60,-300.58 63.5,-290.58 56.5,-290.58"/>
</a>
</g>
</g>
<!-- Node6&#45;&gt;Node5 -->
<g id="edge6_Node000006_Node000005" class="edge">
<title>Node6&#45;&gt;Node5</title>
<g id="a_edge6_Node000006_Node000005"><a xlink:title=" ">
<path fill="none" stroke="orange" stroke-dasharray="5,2" d="M122.13,-69.87C109.27,-57.95 91.7,-41.67 79.26,-30.14"/>
<polygon fill="orange" stroke="orange" points="120.09,-72.75 129.8,-76.98 124.85,-67.61 120.09,-72.75"/>
</a>
</g>
<text text-anchor="middle" x="127" y="-51" font-family="Helvetica,sans-Serif" font-size="10.00" fill="grey"> &lt; 64 &gt;</text>
</g>
</g>
</svg>
