<?xml version="1.0" encoding="UTF-8" standalone="no"?>
<!DOCTYPE svg PUBLIC "-//W3C//DTD SVG 1.1//EN"
 "http://www.w3.org/Graphics/SVG/1.1/DTD/svg11.dtd">
<!-- Generated by graphviz version 2.43.0 (0)
 -->
<!-- Title: Kit::System::Timer Pages: 1 -->
<svg width="339pt" height="532pt"
 viewBox="0.00 0.00 339.00 532.00" xmlns="http://www.w3.org/2000/svg" xmlns:xlink="http://www.w3.org/1999/xlink">
<g id="graph0" class="graph" transform="scale(1 1) rotate(0) translate(4 528)">
<title>Kit::System::Timer</title>
<!-- Node1 -->
<g id="Node000001" class="node">
<title>Node1</title>
<g id="a_Node000001"><a xlink:title="This mostly concrete interface defines the operations that can be performed on a software timer.">
<polygon fill="#999999" stroke="#666666" points="129.5,-19 22.5,-19 22.5,0 129.5,0 129.5,-19"/>
<text text-anchor="middle" x="76" y="-7" font-family="Helvetica,sans-Serif" font-size="10.00">Kit::System::Timer</text>
</a>
</g>
</g>
<!-- Node2 -->
<g id="Node000002" class="node">
<title>Node2</title>
<g id="a_Node000002"><a xlink:href="class_kit_1_1_system_1_1_i_counter.html" target="_top" xlink:title="This abstract class defines the call&#45;back interface for a Counter object.">
<polygon fill="white" stroke="#666666" points="120,-287 0,-287 0,-268 120,-268 120,-287"/>
<text text-anchor="middle" x="60" y="-275" font-family="Helvetica,sans-Serif" font-size="10.00">Kit::System::ICounter</text>
</a>
</g>
</g>
<!-- Node2&#45;&gt;Node1 -->
<g id="edge1_Node000001_Node000002" class="edge">
<title>Node2&#45;&gt;Node1</title>
<g id="a_edge1_Node000001_Node000002"><a xlink:title=" ">
<path fill="none" stroke="#63b8ff" d="M60,-257.56C60,-241.56 60,-218.03 60,-197.5 60,-197.5 60,-197.5 60,-74.5 60,-54.11 67.74,-31.14 72.45,-19.03"/>
<polygon fill="#63b8ff" stroke="#63b8ff" points="56.5,-257.73 60,-267.73 63.5,-257.73 56.5,-257.73"/>
</a>
</g>
</g>
<!-- Node3 -->
<g id="Node000003" class="node">
<title>Node3</title>
<g id="a_Node000003"><a xlink:href="class_kit_1_1_container_1_1_extended_list_item.html" target="_top" xlink:title="This class is used by the Container classes to implement a various types of DOUBLY linked containers.">
<polygon fill="white" stroke="#666666" points="143.5,-412 8.5,-412 8.5,-382 143.5,-382 143.5,-412"/>
<text text-anchor="start" x="16.5" y="-400" font-family="Helvetica,sans-Serif" font-size="10.00">Kit::Container::Extended</text>
<text text-anchor="middle" x="76" y="-389" font-family="Helvetica,sans-Serif" font-size="10.00">ListItem</text>
</a>
</g>
</g>
<!-- Node3&#45;&gt;Node2 -->
<g id="edge2_Node000002_Node000003" class="edge">
<title>Node3&#45;&gt;Node2</title>
<g id="a_edge2_Node000002_Node000003"><a xlink:title=" ">
<path fill="none" stroke="#63b8ff" d="M72.68,-371.59C69.08,-345.19 63.55,-304.55 61.16,-287.02"/>
<polygon fill="#63b8ff" stroke="#63b8ff" points="69.22,-372.16 74.04,-381.59 76.16,-371.21 69.22,-372.16"/>
</a>
</g>
</g>
<!-- Node3&#45;&gt;Node3 -->
<g id="edge6_Node000003_Node000003" class="edge">
<title>Node3&#45;&gt;Node3</title>
<g id="a_edge6_Node000003_Node000003"><a xlink:title=" ">
<path fill="none" stroke="#9a32cd" stroke-dasharray="5,2" d="M154,-401.15C158.69,-400.16 161.5,-398.78 161.5,-397 161.5,-394.16 154.3,-392.32 143.73,-391.5"/>
<polygon fill="#9a32cd" stroke="#9a32cd" points="153.19,-397.72 143.73,-402.5 154.1,-404.66 153.19,-397.72"/>
</a>
</g>
<text text-anchor="middle" x="191" y="-394.5" font-family="Helvetica,sans-Serif" font-size="10.00" fill="grey"> m_prevPtr_</text>
</g>
<!-- Node8 -->
<g id="Node000008" class="node">
<title>Node8</title>
<g id="a_Node000008"><a xlink:href="class_kit_1_1_container_1_1_d_list_base.html" target="_top" xlink:title="This protected base class implements a NON&#45;TYPE&#45;SAFE a doubly linked list which maintains the orderin...">
<polygon fill="white" stroke="#666666" points="226,-324 88,-324 88,-305 226,-305 226,-324"/>
<text text-anchor="middle" x="157" y="-312" font-family="Helvetica,sans-Serif" font-size="10.00">Kit::Container::DListBase</text>
</a>
</g>
</g>
<!-- Node3&#45;&gt;Node8 -->
<g id="edge10_Node000008_Node000003" class="edge">
<title>Node3&#45;&gt;Node8</title>
<g id="a_edge10_Node000008_Node000003"><a xlink:title=" ">
<path fill="none" stroke="#9a32cd" stroke-dasharray="5,2" d="M97.26,-374.87C113.8,-358.44 135.91,-336.46 148.06,-324.38"/>
<polygon fill="#9a32cd" stroke="#9a32cd" points="94.73,-372.45 90.11,-381.98 99.67,-377.41 94.73,-372.45"/>
</a>
</g>
<text text-anchor="middle" x="157" y="-356" font-family="Helvetica,sans-Serif" font-size="10.00" fill="grey"> m_headPtr</text>
<text text-anchor="middle" x="157" y="-345" font-family="Helvetica,sans-Serif" font-size="10.00" fill="grey">m_tailPtr</text>
</g>
<!-- Node4 -->
<g id="Node000004" class="node">
<title>Node4</title>
<g id="a_Node000004"><a xlink:href="class_kit_1_1_container_1_1_list_item.html" target="_top" xlink:title="This class is used by the Container classes to implement a various types of linked lists containers.">
<polygon fill="white" stroke="#666666" points="140.5,-468 11.5,-468 11.5,-449 140.5,-449 140.5,-468"/>
<text text-anchor="middle" x="76" y="-456" font-family="Helvetica,sans-Serif" font-size="10.00">Kit::Container::ListItem</text>
</a>
</g>
</g>
<!-- Node4&#45;&gt;Node3 -->
<g id="edge3_Node000003_Node000004" class="edge">
<title>Node4&#45;&gt;Node3</title>
<g id="a_edge3_Node000003_Node000004"><a xlink:title=" ">
<path fill="none" stroke="#63b8ff" d="M76,-438.73C76,-430.09 76,-420 76,-412.02"/>
<polygon fill="#63b8ff" stroke="#63b8ff" points="72.5,-438.98 76,-448.98 79.5,-438.98 72.5,-438.98"/>
</a>
</g>
</g>
<!-- Node4&#45;&gt;Node4 -->
<g id="edge5_Node000004_Node000004" class="edge">
<title>Node4&#45;&gt;Node4</title>
<g id="a_edge5_Node000004_Node000004"><a xlink:title=" ">
<path fill="none" stroke="#9a32cd" stroke-dasharray="5,2" d="M150.96,-462.19C155.66,-461.32 158.5,-460.09 158.5,-458.5 158.5,-455.96 151.24,-454.34 140.68,-453.64"/>
<polygon fill="#9a32cd" stroke="#9a32cd" points="150.22,-458.75 140.68,-463.36 151.01,-465.7 150.22,-458.75"/>
</a>
</g>
<text text-anchor="middle" x="188" y="-456" font-family="Helvetica,sans-Serif" font-size="10.00" fill="grey"> m_nextPtr_</text>
</g>
<!-- Node5 -->
<g id="Node000005" class="node">
<title>Node5</title>
<g id="a_Node000005"><a xlink:href="class_kit_1_1_container_1_1_item.html" target="_top" xlink:title="This class is used by the Intrusive Container classes to enforce the semantic and item/element can be...">
<polygon fill="white" stroke="#666666" points="132,-524 20,-524 20,-505 132,-505 132,-524"/>
<text text-anchor="middle" x="76" y="-512" font-family="Helvetica,sans-Serif" font-size="10.00">Kit::Container::Item</text>
</a>
</g>
</g>
<!-- Node5&#45;&gt;Node4 -->
<g id="edge4_Node000004_Node000005" class="edge">
<title>Node5&#45;&gt;Node4</title>
<g id="a_edge4_Node000004_Node000005"><a xlink:title=" ">
<path fill="none" stroke="#63b8ff" d="M76,-494.3C76,-485.41 76,-475.28 76,-468.25"/>
<polygon fill="#63b8ff" stroke="#63b8ff" points="72.5,-494.58 76,-504.58 79.5,-494.58 72.5,-494.58"/>
</a>
</g>
</g>
<!-- Node6 -->
<g id="Node000006" class="node">
<title>Node6</title>
<g id="a_Node000006"><a xlink:href="class_kit_1_1_system_1_1_timer_manager.html" target="_top" xlink:title="This concrete class implements manages a list of Software Timers.">
<polygon fill="white" stroke="#666666" points="238,-85 88,-85 88,-66 238,-66 238,-85"/>
<text text-anchor="middle" x="163" y="-73" font-family="Helvetica,sans-Serif" font-size="10.00">Kit::System::TimerManager</text>
</a>
</g>
</g>
<!-- Node6&#45;&gt;Node1 -->
<g id="edge7_Node000001_Node000006" class="edge">
<title>Node6&#45;&gt;Node1</title>
<g id="a_edge7_Node000001_Node000006"><a xlink:title=" ">
<path fill="none" stroke="#9a32cd" stroke-dasharray="5,2" d="M143.06,-59.83C126,-47.28 102.01,-29.63 87.83,-19.2"/>
<polygon fill="#9a32cd" stroke="#9a32cd" points="141.14,-62.76 151.27,-65.87 145.29,-57.12 141.14,-62.76"/>
</a>
</g>
<text text-anchor="middle" x="166.5" y="-40" font-family="Helvetica,sans-Serif" font-size="10.00" fill="grey"> m_timingSource</text>
</g>
<!-- Node7 -->
<g id="Node000007" class="node">
<title>Node7</title>
<g id="a_Node000007"><a xlink:href="class_kit_1_1_container_1_1_d_list.html" target="_top" xlink:title=" ">
<polygon fill="white" stroke="#666666" points="234.5,-173 91.5,-173 91.5,-143 234.5,-143 234.5,-173"/>
<text text-anchor="start" x="99.5" y="-161" font-family="Helvetica,sans-Serif" font-size="10.00">Kit::Container::DList</text>
<text text-anchor="middle" x="163" y="-150" font-family="Helvetica,sans-Serif" font-size="10.00">&lt; Kit::System::ICounter &gt;</text>
</a>
</g>
</g>
<!-- Node7&#45;&gt;Node6 -->
<g id="edge8_Node000006_Node000007" class="edge">
<title>Node7&#45;&gt;Node6</title>
<g id="a_edge8_Node000006_Node000007"><a xlink:title=" ">
<path fill="none" stroke="#9a32cd" stroke-dasharray="5,2" d="M163,-132.7C163,-116.7 163,-96.7 163,-85.38"/>
<polygon fill="#9a32cd" stroke="#9a32cd" points="159.5,-132.98 163,-142.98 166.5,-132.98 159.5,-132.98"/>
</a>
</g>
<text text-anchor="middle" x="206" y="-117" font-family="Helvetica,sans-Serif" font-size="10.00" fill="grey"> m_counters</text>
<text text-anchor="middle" x="206" y="-106" font-family="Helvetica,sans-Serif" font-size="10.00" fill="grey">m_pendingAttach</text>
</g>
<!-- Node8&#45;&gt;Node7 -->
<g id="edge9_Node000007_Node000008" class="edge">
<title>Node8&#45;&gt;Node7</title>
<g id="a_edge9_Node000007_Node000008"><a xlink:title=" ">
<path fill="none" stroke="#63b8ff" d="M157.73,-294.73C158.95,-263.42 161.36,-201.18 162.45,-173.21"/>
<polygon fill="#63b8ff" stroke="#63b8ff" points="154.23,-294.62 157.34,-304.75 161.23,-294.89 154.23,-294.62"/>
</a>
</g>
</g>
<!-- Node9 -->
<g id="Node000009" class="node">
<title>Node9</title>
<g id="a_Node000009"><a xlink:href="class_kit_1_1_container_1_1_d_list.html" target="_top" xlink:title="This template class implements a singly linked list which maintains the ordering imposed on it by the...">
<polygon fill="white" stroke="#666666" points="288,-250 174,-250 174,-220 288,-220 288,-250"/>
<text text-anchor="start" x="182" y="-238" font-family="Helvetica,sans-Serif" font-size="10.00">Kit::Container::DList</text>
<text text-anchor="middle" x="231" y="-227" font-family="Helvetica,sans-Serif" font-size="10.00">&lt; ITEM &gt;</text>
</a>
</g>
</g>
<!-- Node8&#45;&gt;Node9 -->
<g id="edge12_Node000009_Node000008" class="edge">
<title>Node8&#45;&gt;Node9</title>
<g id="a_edge12_Node000009_Node000008"><a xlink:title=" ">
<path fill="none" stroke="#63b8ff" d="M172.28,-297.5C185.6,-283.55 204.74,-263.51 217.5,-250.14"/>
<polygon fill="#63b8ff" stroke="#63b8ff" points="169.58,-295.26 165.2,-304.91 174.64,-300.09 169.58,-295.26"/>
</a>
</g>
</g>
<!-- Node9&#45;&gt;Node7 -->
<g id="edge11_Node000007_Node000009" class="edge">
<title>Node9&#45;&gt;Node7</title>
<g id="a_edge11_Node000007_Node000009"><a xlink:title=" ">
<path fill="none" stroke="orange" stroke-dasharray="5,2" d="M211.47,-212.46C199.98,-199.79 185.78,-184.13 175.73,-173.04"/>
<polygon fill="orange" stroke="orange" points="208.9,-214.84 218.21,-219.89 214.09,-210.13 208.9,-214.84"/>
</a>
</g>
<text text-anchor="middle" x="266" y="-194" font-family="Helvetica,sans-Serif" font-size="10.00" fill="grey"> &lt; Kit::System::ICounter &gt;</text>
</g>
</g>
</svg>
