<?xml version="1.0" encoding="UTF-8" standalone="no"?>
<!DOCTYPE svg PUBLIC "-//W3C//DTD SVG 1.1//EN"
 "http://www.w3.org/Graphics/SVG/1.1/DTD/svg11.dtd">
<!-- Generated by graphviz version 2.43.0 (0)
 -->
<!-- Title: Graphical Class Hierarchy Pages: 1 -->
<svg width="778pt" height="163pt"
 viewBox="0.00 0.00 778.00 162.50" xmlns="http://www.w3.org/2000/svg" xmlns:xlink="http://www.w3.org/1999/xlink">
<g id="graph0" class="graph" transform="scale(1 1) rotate(0) translate(4 158.5)">
<title>Graphical Class Hierarchy</title>
<!-- Node0 -->
<g id="Node000000" class="node">
<title>Node0</title>
<g id="a_Node000000"><a xlink:href="class_kit_1_1_container_1_1_key.html" target="_top" xlink:title="This abstract class defines the interface that a contained object must support if it has comparable k...">
<polygon fill="white" stroke="#666666" points="107,-101 0,-101 0,-82 107,-82 107,-101"/>
<text text-anchor="middle" x="53.5" y="-89" font-family="Helvetica,sans-Serif" font-size="10.00">Kit::Container::Key</text>
</a>
</g>
</g>
<!-- Node1 -->
<g id="Node000001" class="node">
<title>Node1</title>
<g id="a_Node000001"><a xlink:href="class_kit_1_1_container_1_1_key_plain_type.html" target="_top" xlink:title="This template class is used to generate Key classes for most of the C/C++ primitive data types.">
<polygon fill="white" stroke="#666666" points="276.5,-154.5 145.5,-154.5 145.5,-124.5 276.5,-124.5 276.5,-154.5"/>
<text text-anchor="start" x="153.5" y="-142.5" font-family="Helvetica,sans-Serif" font-size="10.00">Kit::Container::KeyPlain</text>
<text text-anchor="middle" x="211" y="-131.5" font-family="Helvetica,sans-Serif" font-size="10.00">Type&lt; DATATYPE &gt;</text>
</a>
</g>
</g>
<!-- Node0&#45;&gt;Node1 -->
<g id="edge4_Node000000_Node000001" class="edge">
<title>Node0&#45;&gt;Node1</title>
<g id="a_edge4_Node000000_Node000001"><a xlink:title=" ">
<path fill="none" stroke="#63b8ff" d="M95.41,-104.13C115.58,-110.36 140.06,-117.91 161.2,-124.44"/>
<polygon fill="#63b8ff" stroke="#63b8ff" points="96.18,-100.7 85.59,-101.1 94.12,-107.39 96.18,-100.7"/>
</a>
</g>
</g>
<!-- Node2 -->
<g id="Node000002" class="node">
<title>Node2</title>
<g id="a_Node000002"><a xlink:href="class_kit_1_1_container_1_1_key_string_buffer.html" target="_top" xlink:title="This class provides a &#39;Key&#39; wrapper for a array of Character of length N, i.e.">
<polygon fill="white" stroke="#666666" points="279,-106.5 143,-106.5 143,-76.5 279,-76.5 279,-106.5"/>
<text text-anchor="start" x="151" y="-94.5" font-family="Helvetica,sans-Serif" font-size="10.00">Kit::Container::KeyString</text>
<text text-anchor="middle" x="211" y="-83.5" font-family="Helvetica,sans-Serif" font-size="10.00">Buffer</text>
</a>
</g>
</g>
<!-- Node0&#45;&gt;Node2 -->
<g id="edge5_Node000000_Node000002" class="edge">
<title>Node0&#45;&gt;Node2</title>
<g id="a_edge5_Node000000_Node000002"><a xlink:title=" ">
<path fill="none" stroke="#63b8ff" d="M117.25,-91.5C125.66,-91.5 134.32,-91.5 142.8,-91.5"/>
<polygon fill="#63b8ff" stroke="#63b8ff" points="117.15,-88 107.15,-91.5 117.15,-95 117.15,-88"/>
</a>
</g>
</g>
<!-- Node4 -->
<g id="Node000004" class="node">
<title>Node4</title>
<g id="a_Node000004"><a xlink:href="class_kit_1_1_text_1_1_i_string.html" target="_top" xlink:title="This abstract class defines the operations that can be before on a NULL terminated string.">
<polygon fill="white" stroke="#666666" points="258,-58 164,-58 164,-39 258,-39 258,-58"/>
<text text-anchor="middle" x="211" y="-46" font-family="Helvetica,sans-Serif" font-size="10.00">Kit::Text::IString</text>
</a>
</g>
</g>
<!-- Node0&#45;&gt;Node4 -->
<g id="edge7_Node000000_Node000004" class="edge">
<title>Node0&#45;&gt;Node4</title>
<g id="a_edge7_Node000000_Node000004"><a xlink:title=" ">
<path fill="none" stroke="#63b8ff" d="M98.75,-79.26C123.13,-72.52 152.96,-64.27 175.59,-58.02"/>
<polygon fill="#63b8ff" stroke="#63b8ff" points="97.72,-75.92 89.01,-81.96 99.58,-82.66 97.72,-75.92"/>
</a>
</g>
</g>
<!-- Node3 -->
<g id="Node000003" class="node">
<title>Node3</title>
<g id="a_Node000003"><a xlink:href="class_kit_1_1_container_1_1_key_literal_string.html" target="_top" xlink:title="This class provides a &#39;Key&#39; wrapper for a C string literal.">
<polygon fill="white" stroke="#666666" points="453,-106.5 315,-106.5 315,-76.5 453,-76.5 453,-106.5"/>
<text text-anchor="start" x="323" y="-94.5" font-family="Helvetica,sans-Serif" font-size="10.00">Kit::Container::KeyLiteral</text>
<text text-anchor="middle" x="384" y="-83.5" font-family="Helvetica,sans-Serif" font-size="10.00">String</text>
</a>
</g>
</g>
<!-- Node2&#45;&gt;Node3 -->
<g id="edge6_Node000002_Node000003" class="edge">
<title>Node2&#45;&gt;Node3</title>
<g id="a_edge6_Node000002_Node000003"><a xlink:title=" ">
<path fill="none" stroke="#63b8ff" d="M289.14,-91.5C297.75,-91.5 306.49,-91.5 314.98,-91.5"/>
<polygon fill="#63b8ff" stroke="#63b8ff" points="289.09,-88 279.09,-91.5 289.09,-95 289.09,-88"/>
</a>
</g>
</g>
<!-- Node5 -->
<g id="Node000005" class="node">
<title>Node5</title>
<g id="a_Node000005"><a xlink:href="class_kit_1_1_text_1_1_string_base.html" target="_top" xlink:title="This partially concrete class implements the portions of the String Api that is independent of the in...">
<polygon fill="white" stroke="#666666" points="441.5,-58 326.5,-58 326.5,-39 441.5,-39 441.5,-58"/>
<text text-anchor="middle" x="384" y="-46" font-family="Helvetica,sans-Serif" font-size="10.00">Kit::Text::StringBase</text>
</a>
</g>
</g>
<!-- Node4&#45;&gt;Node5 -->
<g id="edge8_Node000004_Node000005" class="edge">
<title>Node4&#45;&gt;Node5</title>
<g id="a_edge8_Node000004_Node000005"><a xlink:title=" ">
<path fill="none" stroke="#63b8ff" d="M268.37,-48.5C286.98,-48.5 307.68,-48.5 326.32,-48.5"/>
<polygon fill="#63b8ff" stroke="#63b8ff" points="268.28,-45 258.28,-48.5 268.28,-52 268.28,-45"/>
</a>
</g>
</g>
<!-- Node6 -->
<g id="Node000006" class="node">
<title>Node6</title>
<g id="a_Node000006"><a xlink:href="class_kit_1_1_text_1_1_d_string.html" target="_top" xlink:title="This concrete class implements a simple &quot;dynamic storage&quot; IString Type.">
<polygon fill="white" stroke="#666666" points="598,-77 500,-77 500,-58 598,-58 598,-77"/>
<text text-anchor="middle" x="549" y="-65" font-family="Helvetica,sans-Serif" font-size="10.00">Kit::Text::DString</text>
</a>
</g>
</g>
<!-- Node5&#45;&gt;Node6 -->
<g id="edge9_Node000005_Node000006" class="edge">
<title>Node5&#45;&gt;Node6</title>
<g id="a_edge9_Node000005_Node000006"><a xlink:title=" ">
<path fill="none" stroke="#63b8ff" d="M451.52,-56.25C467.74,-58.14 484.78,-60.13 499.94,-61.9"/>
<polygon fill="#63b8ff" stroke="#63b8ff" points="451.89,-52.77 441.55,-55.09 451.08,-59.73 451.89,-52.77"/>
</a>
</g>
</g>
<!-- Node7 -->
<g id="Node000007" class="node">
<title>Node7</title>
<g id="a_Node000007"><a xlink:href="class_kit_1_1_text_1_1_f_string_base.html" target="_top" xlink:title="This mostly concrete class implements a &quot;fixed storage&quot; String Type.">
<polygon fill="white" stroke="#666666" points="609,-40 489,-40 489,-21 609,-21 609,-40"/>
<text text-anchor="middle" x="549" y="-28" font-family="Helvetica,sans-Serif" font-size="10.00">Kit::Text::FStringBase</text>
</a>
</g>
</g>
<!-- Node5&#45;&gt;Node7 -->
<g id="edge10_Node000005_Node000007" class="edge">
<title>Node5&#45;&gt;Node7</title>
<g id="a_edge10_Node000005_Node000007"><a xlink:title=" ">
<path fill="none" stroke="#63b8ff" d="M451.73,-41.13C464,-39.78 476.74,-38.37 488.78,-37.04"/>
<polygon fill="#63b8ff" stroke="#63b8ff" points="451.11,-37.68 441.55,-42.25 451.88,-44.64 451.11,-37.68"/>
</a>
</g>
</g>
<!-- Node8 -->
<g id="Node000008" class="node">
<title>Node8</title>
<g id="a_Node000008"><a xlink:href="class_kit_1_1_text_1_1_f_string.html" target="_top" xlink:title=" ">
<polygon fill="white" stroke="#666666" points="755.5,-67.5 659.5,-67.5 659.5,-37.5 755.5,-37.5 755.5,-67.5"/>
<text text-anchor="start" x="667.5" y="-55.5" font-family="Helvetica,sans-Serif" font-size="10.00">Kit::Text::FString</text>
<text text-anchor="middle" x="707.5" y="-44.5" font-family="Helvetica,sans-Serif" font-size="10.00">&lt; 64 &gt;</text>
</a>
</g>
</g>
<!-- Node7&#45;&gt;Node8 -->
<g id="edge11_Node000007_Node000008" class="edge">
<title>Node7&#45;&gt;Node8</title>
<g id="a_edge11_Node000007_Node000008"><a xlink:title=" ">
<path fill="none" stroke="#63b8ff" d="M619.42,-40.26C632.95,-42.16 646.84,-44.11 659.44,-45.88"/>
<polygon fill="#63b8ff" stroke="#63b8ff" points="619.56,-36.74 609.17,-38.82 618.58,-43.68 619.56,-36.74"/>
</a>
</g>
</g>
<!-- Node9 -->
<g id="Node000009" class="node">
<title>Node9</title>
<g id="a_Node000009"><a xlink:href="class_kit_1_1_text_1_1_f_string.html" target="_top" xlink:title="This template class represents a NULL terminated string of a specific length.">
<polygon fill="white" stroke="#666666" points="770,-19 645,-19 645,0 770,0 770,-19"/>
<text text-anchor="middle" x="707.5" y="-7" font-family="Helvetica,sans-Serif" font-size="10.00">Kit::Text::FString&lt; S &gt;</text>
</a>
</g>
</g>
<!-- Node7&#45;&gt;Node9 -->
<g id="edge12_Node000007_Node000009" class="edge">
<title>Node7&#45;&gt;Node9</title>
<g id="a_edge12_Node000007_Node000009"><a xlink:title=" ">
<path fill="none" stroke="#63b8ff" d="M619.14,-21.22C627.72,-20.07 636.45,-18.9 644.91,-17.77"/>
<polygon fill="#63b8ff" stroke="#63b8ff" points="618.61,-17.76 609.17,-22.56 619.54,-24.7 618.61,-17.76"/>
</a>
</g>
</g>
</g>
</svg>
