<?xml version="1.0" encoding="UTF-8" standalone="no"?>
<!DOCTYPE svg PUBLIC "-//W3C//DTD SVG 1.1//EN"
 "http://www.w3.org/Graphics/SVG/1.1/DTD/svg11.dtd">
<!-- Generated by graphviz version 2.43.0 (0)
 -->
<!-- Title: Graphical Class Hierarchy Pages: 1 -->
<svg width="461pt" height="86pt"
 viewBox="0.00 0.00 461.00 86.00" xmlns="http://www.w3.org/2000/svg" xmlns:xlink="http://www.w3.org/1999/xlink">
<g id="graph0" class="graph" transform="scale(1 1) rotate(0) translate(4 82)">
<title>Graphical Class Hierarchy</title>
<!-- Node0 -->
<g id="Node000000" class="node">
<title>Node0</title>
<g id="a_Node000000"><a xlink:href="class_kit_1_1_container_1_1_key.html" target="_top" xlink:title="This abstract class defines the interface that a contained object must support if it has comparable k...">
<polygon fill="white" stroke="#666666" points="107,-48.5 0,-48.5 0,-29.5 107,-29.5 107,-48.5"/>
<text text-anchor="middle" x="53.5" y="-36.5" font-family="Helvetica,sans-Serif" font-size="10.00">Kit::Container::Key</text>
</a>
</g>
</g>
<!-- Node1 -->
<g id="Node000001" class="node">
<title>Node1</title>
<g id="a_Node000001"><a xlink:href="class_kit_1_1_container_1_1_key_plain_type.html" target="_top" xlink:title="This template class is used to generate Key classes for most of the C/C++ primitive data types.">
<polygon fill="white" stroke="#666666" points="276.5,-78 145.5,-78 145.5,-48 276.5,-48 276.5,-78"/>
<text text-anchor="start" x="153.5" y="-66" font-family="Helvetica,sans-Serif" font-size="10.00">Kit::Container::KeyPlain</text>
<text text-anchor="middle" x="211" y="-55" font-family="Helvetica,sans-Serif" font-size="10.00">Type&lt; DATATYPE &gt;</text>
</a>
</g>
</g>
<!-- Node0&#45;&gt;Node1 -->
<g id="edge8_Node000000_Node000001" class="edge">
<title>Node0&#45;&gt;Node1</title>
<g id="a_edge8_Node000000_Node000001"><a xlink:title=" ">
<path fill="none" stroke="#63b8ff" d="M117.08,-48.66C126.36,-50.09 135.94,-51.57 145.27,-53.01"/>
<polygon fill="#63b8ff" stroke="#63b8ff" points="117.56,-45.19 107.15,-47.13 116.49,-52.11 117.56,-45.19"/>
</a>
</g>
</g>
<!-- Node2 -->
<g id="Node000002" class="node">
<title>Node2</title>
<g id="a_Node000002"><a xlink:href="class_kit_1_1_container_1_1_key_string_buffer.html" target="_top" xlink:title="This class provides a &#39;Key&#39; wrapper for a array of Character of length N, i.e.">
<polygon fill="white" stroke="#666666" points="279,-30 143,-30 143,0 279,0 279,-30"/>
<text text-anchor="start" x="151" y="-18" font-family="Helvetica,sans-Serif" font-size="10.00">Kit::Container::KeyString</text>
<text text-anchor="middle" x="211" y="-7" font-family="Helvetica,sans-Serif" font-size="10.00">Buffer</text>
</a>
</g>
</g>
<!-- Node0&#45;&gt;Node2 -->
<g id="edge9_Node000000_Node000002" class="edge">
<title>Node0&#45;&gt;Node2</title>
<g id="a_edge9_Node000000_Node000002"><a xlink:title=" ">
<path fill="none" stroke="#63b8ff" d="M117.25,-29.31C125.66,-28.02 134.32,-26.68 142.8,-25.37"/>
<polygon fill="#63b8ff" stroke="#63b8ff" points="116.49,-25.89 107.15,-30.87 117.56,-32.81 116.49,-25.89"/>
</a>
</g>
</g>
<!-- Node3 -->
<g id="Node000003" class="node">
<title>Node3</title>
<g id="a_Node000003"><a xlink:href="class_kit_1_1_container_1_1_key_literal_string.html" target="_top" xlink:title="This class provides a &#39;Key&#39; wrapper for a C string literal.">
<polygon fill="white" stroke="#666666" points="453,-30 315,-30 315,0 453,0 453,-30"/>
<text text-anchor="start" x="323" y="-18" font-family="Helvetica,sans-Serif" font-size="10.00">Kit::Container::KeyLiteral</text>
<text text-anchor="middle" x="384" y="-7" font-family="Helvetica,sans-Serif" font-size="10.00">String</text>
</a>
</g>
</g>
<!-- Node2&#45;&gt;Node3 -->
<g id="edge10_Node000002_Node000003" class="edge">
<title>Node2&#45;&gt;Node3</title>
<g id="a_edge10_Node000002_Node000003"><a xlink:title=" ">
<path fill="none" stroke="#63b8ff" d="M289.14,-15C297.75,-15 306.49,-15 314.98,-15"/>
<polygon fill="#63b8ff" stroke="#63b8ff" points="289.09,-11.5 279.09,-15 289.09,-18.5 289.09,-11.5"/>
</a>
</g>
</g>
</g>
</svg>
