<?xml version="1.0" encoding="UTF-8" standalone="no"?>
<!DOCTYPE svg PUBLIC "-//W3C//DTD SVG 1.1//EN"
 "http://www.w3.org/Graphics/SVG/1.1/DTD/svg11.dtd">
<!-- Generated by graphviz version 2.43.0 (0)
 -->
<!-- Title: Kit/System/Assert.h Pages: 1 -->
<svg width="2139pt" height="302pt"
 viewBox="0.00 0.00 2138.50 302.00" xmlns="http://www.w3.org/2000/svg" xmlns:xlink="http://www.w3.org/1999/xlink">
<g id="graph0" class="graph" transform="scale(1 1) rotate(0) translate(4 298)">
<title>Kit/System/Assert.h</title>
<!-- Node1 -->
<g id="Node000001" class="node">
<title>Node1</title>
<g id="a_Node000001"><a xlink:title=" ">
<polygon fill="#999999" stroke="#666666" points="1580,-294 1467,-294 1467,-275 1580,-275 1580,-294"/>
<text text-anchor="middle" x="1523.5" y="-282" font-family="Helvetica,sans-Serif" font-size="10.00">Kit/System/Assert.h</text>
</a>
</g>
</g>
<!-- Node2 -->
<g id="Node000002" class="node">
<title>Node2</title>
<g id="a_Node000002"><a xlink:href="_ring_buffer_8h.html" target="_top" xlink:title=" ">
<polygon fill="white" stroke="#666666" points="977,-233.5 834,-233.5 834,-214.5 977,-214.5 977,-233.5"/>
<text text-anchor="middle" x="905.5" y="-221.5" font-family="Helvetica,sans-Serif" font-size="10.00">Kit/Container/RingBuffer.h</text>
</a>
</g>
</g>
<!-- Node1&#45;&gt;Node2 -->
<g id="edge1_Node000001_Node000002" class="edge">
<title>Node1&#45;&gt;Node2</title>
<g id="a_edge1_Node000001_Node000002"><a xlink:title=" ">
<path fill="none" stroke="#63b8ff" d="M1456.55,-279.32C1356.32,-272.73 1161.39,-258.62 996.5,-239 983.64,-237.47 969.81,-235.51 956.91,-233.54"/>
<polygon fill="#63b8ff" stroke="#63b8ff" points="1456.62,-282.83 1466.83,-279.99 1457.08,-275.85 1456.62,-282.83"/>
</a>
</g>
</g>
<!-- Node19 -->
<g id="Node000019" class="node">
<title>Node19</title>
<g id="a_Node000019"><a xlink:href="_record_8h.html" target="_top" xlink:title=" ">
<polygon fill="white" stroke="#666666" points="1115.5,-239 1005.5,-239 1005.5,-209 1115.5,-209 1115.5,-239"/>
<text text-anchor="start" x="1013.5" y="-227" font-family="Helvetica,sans-Serif" font-size="10.00">Kit/Dm/Persistence</text>
<text text-anchor="middle" x="1060.5" y="-216" font-family="Helvetica,sans-Serif" font-size="10.00">/Record.h</text>
</a>
</g>
</g>
<!-- Node1&#45;&gt;Node19 -->
<g id="edge19_Node000001_Node000019" class="edge">
<title>Node1&#45;&gt;Node19</title>
<g id="a_edge19_Node000001_Node000019"><a xlink:title=" ">
<path fill="none" stroke="#63b8ff" d="M1456.39,-278.17C1376.86,-271.35 1240.51,-258.1 1124.5,-239 1121.58,-238.52 1118.6,-237.99 1115.59,-237.43"/>
<polygon fill="#63b8ff" stroke="#63b8ff" points="1456.49,-281.69 1466.75,-279.05 1457.08,-274.71 1456.49,-281.69"/>
</a>
</g>
</g>
<!-- Node20 -->
<g id="Node000020" class="node">
<title>Node20</title>
<g id="a_Node000020"><a xlink:href="_encoder_writer_8h.html" target="_top" xlink:title=" ">
<polygon fill="white" stroke="#666666" points="1287,-233.5 1134,-233.5 1134,-214.5 1287,-214.5 1287,-233.5"/>
<text text-anchor="middle" x="1210.5" y="-221.5" font-family="Helvetica,sans-Serif" font-size="10.00">Kit/Framing/EncoderWriter.h</text>
</a>
</g>
</g>
<!-- Node1&#45;&gt;Node20 -->
<g id="edge20_Node000001_Node000020" class="edge">
<title>Node1&#45;&gt;Node20</title>
<g id="a_edge20_Node000001_Node000020"><a xlink:title=" ">
<path fill="none" stroke="#63b8ff" d="M1467.87,-273.1C1407.49,-261.82 1312.19,-244.01 1256.07,-233.52"/>
<polygon fill="#63b8ff" stroke="#63b8ff" points="1467.51,-276.6 1477.99,-274.99 1468.8,-269.72 1467.51,-276.6"/>
</a>
</g>
</g>
<!-- Node21 -->
<g id="Node000021" class="node">
<title>Node21</title>
<g id="a_Node000021"><a xlink:href="_line_decoder_8h.html" target="_top" xlink:title=" ">
<polygon fill="white" stroke="#666666" points="1450,-233.5 1305,-233.5 1305,-214.5 1450,-214.5 1450,-233.5"/>
<text text-anchor="middle" x="1377.5" y="-221.5" font-family="Helvetica,sans-Serif" font-size="10.00">Kit/Framing/LineDecoder.h</text>
</a>
</g>
</g>
<!-- Node1&#45;&gt;Node21 -->
<g id="edge21_Node000001_Node000021" class="edge">
<title>Node1&#45;&gt;Node21</title>
<g id="a_edge21_Node000001_Node000021"><a xlink:title=" ">
<path fill="none" stroke="#63b8ff" d="M1492.88,-271.23C1464.66,-259.92 1423.53,-243.44 1398.76,-233.52"/>
<polygon fill="#63b8ff" stroke="#63b8ff" points="1491.69,-274.52 1502.27,-274.99 1494.29,-268.03 1491.69,-274.52"/>
</a>
</g>
</g>
<!-- Node23 -->
<g id="Node000023" class="node">
<title>Node23</title>
<g id="a_Node000023"><a xlink:href="_socket_2_win32_2_fdio_8h.html" target="_top" xlink:title=" ">
<polygon fill="white" stroke="#666666" points="1579,-239 1468,-239 1468,-209 1579,-209 1579,-239"/>
<text text-anchor="start" x="1476" y="-227" font-family="Helvetica,sans-Serif" font-size="10.00">Kit/Io/Socket/Win32</text>
<text text-anchor="middle" x="1523.5" y="-216" font-family="Helvetica,sans-Serif" font-size="10.00">/Fdio.h</text>
</a>
</g>
</g>
<!-- Node1&#45;&gt;Node23 -->
<g id="edge23_Node000001_Node000023" class="edge">
<title>Node1&#45;&gt;Node23</title>
<g id="a_edge23_Node000001_Node000023"><a xlink:title=" ">
<path fill="none" stroke="#63b8ff" d="M1523.5,-264.65C1523.5,-256.36 1523.5,-246.78 1523.5,-239.11"/>
<polygon fill="#63b8ff" stroke="#63b8ff" points="1520,-264.87 1523.5,-274.87 1527,-264.87 1520,-264.87"/>
</a>
</g>
</g>
<!-- Node24 -->
<g id="Node000024" class="node">
<title>Node24</title>
<g id="a_Node000024"><a xlink:href="_h_pool_8h.html" target="_top" xlink:title=" ">
<polygon fill="white" stroke="#666666" points="1711.5,-233.5 1597.5,-233.5 1597.5,-214.5 1711.5,-214.5 1711.5,-233.5"/>
<text text-anchor="middle" x="1654.5" y="-221.5" font-family="Helvetica,sans-Serif" font-size="10.00">Kit/Memory/HPool.h</text>
</a>
</g>
</g>
<!-- Node1&#45;&gt;Node24 -->
<g id="edge24_Node000001_Node000024" class="edge">
<title>Node1&#45;&gt;Node24</title>
<g id="a_edge24_Node000001_Node000024"><a xlink:title=" ">
<path fill="none" stroke="#63b8ff" d="M1551.98,-270.78C1577.26,-259.49 1613.49,-243.31 1635.43,-233.52"/>
<polygon fill="#63b8ff" stroke="#63b8ff" points="1550.25,-267.72 1542.55,-274.99 1553.11,-274.11 1550.25,-267.72"/>
</a>
</g>
</g>
<!-- Node25 -->
<g id="Node000025" class="node">
<title>Node25</title>
<g id="a_Node000025"><a xlink:href="_entry_record_8h.html" target="_top" xlink:title=" ">
<polygon fill="white" stroke="#666666" points="1855.5,-239 1729.5,-239 1729.5,-209 1855.5,-209 1855.5,-239"/>
<text text-anchor="start" x="1737.5" y="-227" font-family="Helvetica,sans-Serif" font-size="10.00">Kit/Persistence/Record</text>
<text text-anchor="middle" x="1792.5" y="-216" font-family="Helvetica,sans-Serif" font-size="10.00">/Journal/EntryRecord.h</text>
</a>
</g>
</g>
<!-- Node1&#45;&gt;Node25 -->
<g id="edge25_Node000001_Node000025" class="edge">
<title>Node1&#45;&gt;Node25</title>
<g id="a_edge25_Node000001_Node000025"><a xlink:title=" ">
<path fill="none" stroke="#63b8ff" d="M1572.51,-272.84C1616.55,-263.26 1681.47,-249.15 1729.38,-238.73"/>
<polygon fill="#63b8ff" stroke="#63b8ff" points="1571.64,-269.45 1562.61,-274.99 1573.13,-276.29 1571.64,-269.45"/>
</a>
</g>
</g>
<!-- Node26 -->
<g id="Node000026" class="node">
<title>Node26</title>
<g id="a_Node000026"><a xlink:href="src_2_kit_2_persistence_2_record_2_server_8h.html" target="_top" xlink:title=" ">
<polygon fill="white" stroke="#666666" points="1999.5,-239 1873.5,-239 1873.5,-209 1999.5,-209 1999.5,-239"/>
<text text-anchor="start" x="1881.5" y="-227" font-family="Helvetica,sans-Serif" font-size="10.00">Kit/Persistence/Record</text>
<text text-anchor="middle" x="1936.5" y="-216" font-family="Helvetica,sans-Serif" font-size="10.00">/Server.h</text>
</a>
</g>
</g>
<!-- Node1&#45;&gt;Node26 -->
<g id="edge26_Node000001_Node000026" class="edge">
<title>Node1&#45;&gt;Node26</title>
<g id="a_edge26_Node000001_Node000026"><a xlink:title=" ">
<path fill="none" stroke="#63b8ff" d="M1590.35,-276.02C1659.23,-268.03 1769.63,-254.4 1864.5,-239 1867.39,-238.53 1870.34,-238.03 1873.32,-237.52"/>
<polygon fill="#63b8ff" stroke="#63b8ff" points="1589.61,-272.59 1580.07,-277.21 1590.41,-279.54 1589.61,-272.59"/>
</a>
</g>
</g>
<!-- Node27 -->
<g id="Node000027" class="node">
<title>Node27</title>
<g id="a_Node000027"><a xlink:href="_d_string_8h.html" target="_top" xlink:title=" ">
<polygon fill="white" stroke="#666666" points="2119,-233.5 2018,-233.5 2018,-214.5 2119,-214.5 2119,-233.5"/>
<text text-anchor="middle" x="2068.5" y="-221.5" font-family="Helvetica,sans-Serif" font-size="10.00">Kit/Text/DString.h</text>
</a>
</g>
</g>
<!-- Node1&#45;&gt;Node27 -->
<g id="edge27_Node000001_Node000027" class="edge">
<title>Node1&#45;&gt;Node27</title>
<g id="a_edge27_Node000001_Node000027"><a xlink:title=" ">
<path fill="none" stroke="#63b8ff" d="M1590.4,-280.28C1684.29,-275.1 1860.26,-262.98 2008.5,-239 2017.37,-237.57 2026.88,-235.56 2035.65,-233.52"/>
<polygon fill="#63b8ff" stroke="#63b8ff" points="1589.99,-276.8 1580.2,-280.84 1590.37,-283.79 1589.99,-276.8"/>
</a>
</g>
</g>
<!-- Node3 -->
<g id="Node000003" class="node">
<title>Node3</title>
<g id="a_Node000003"><a xlink:href="_ring_buffer_allocate_8h.html" target="_top" xlink:title=" ">
<polygon fill="white" stroke="#666666" points="292.5,-173 158.5,-173 158.5,-143 292.5,-143 292.5,-173"/>
<text text-anchor="start" x="166.5" y="-161" font-family="Helvetica,sans-Serif" font-size="10.00">Kit/Container/RingBuffer</text>
<text text-anchor="middle" x="225.5" y="-150" font-family="Helvetica,sans-Serif" font-size="10.00">Allocate.h</text>
</a>
</g>
</g>
<!-- Node2&#45;&gt;Node3 -->
<g id="edge2_Node000002_Node000003" class="edge">
<title>Node2&#45;&gt;Node3</title>
<g id="a_edge2_Node000002_Node000003"><a xlink:title=" ">
<path fill="none" stroke="#63b8ff" d="M823.35,-215.27C687.46,-202.48 418.44,-177.16 292.93,-165.35"/>
<polygon fill="#63b8ff" stroke="#63b8ff" points="823.41,-218.79 833.69,-216.24 824.06,-211.82 823.41,-218.79"/>
</a>
</g>
</g>
<!-- Node5 -->
<g id="Node000005" class="node">
<title>Node5</title>
<g id="a_Node000005"><a xlink:href="_ring_buffer_m_p_8h.html" target="_top" xlink:title=" ">
<polygon fill="white" stroke="#666666" points="808,-167.5 651,-167.5 651,-148.5 808,-148.5 808,-167.5"/>
<text text-anchor="middle" x="729.5" y="-155.5" font-family="Helvetica,sans-Serif" font-size="10.00">Kit/Container/RingBufferMP.h</text>
</a>
</g>
</g>
<!-- Node2&#45;&gt;Node5 -->
<g id="edge4_Node000002_Node000005" class="edge">
<title>Node2&#45;&gt;Node5</title>
<g id="a_edge4_Node000002_Node000005"><a xlink:title=" ">
<path fill="none" stroke="#63b8ff" d="M872.06,-210.84C837.29,-198.2 783.75,-178.73 753.14,-167.6"/>
<polygon fill="#63b8ff" stroke="#63b8ff" points="871.17,-214.24 881.76,-214.37 873.56,-207.66 871.17,-214.24"/>
</a>
</g>
</g>
<!-- Node13 -->
<g id="Node000013" class="node">
<title>Node13</title>
<g id="a_Node000013"><a xlink:href="_ring_buffer_m_t_8h.html" target="_top" xlink:title=" ">
<polygon fill="white" stroke="#666666" points="984.5,-167.5 826.5,-167.5 826.5,-148.5 984.5,-148.5 984.5,-167.5"/>
<text text-anchor="middle" x="905.5" y="-155.5" font-family="Helvetica,sans-Serif" font-size="10.00">Kit/Container/RingBufferMT.h</text>
</a>
</g>
</g>
<!-- Node2&#45;&gt;Node13 -->
<g id="edge12_Node000002_Node000013" class="edge">
<title>Node2&#45;&gt;Node13</title>
<g id="a_edge12_Node000002_Node000013"><a xlink:title=" ">
<path fill="none" stroke="#63b8ff" d="M905.5,-204.08C905.5,-192.13 905.5,-177.22 905.5,-167.91"/>
<polygon fill="#63b8ff" stroke="#63b8ff" points="902,-204.37 905.5,-214.37 909,-204.37 902,-204.37"/>
</a>
</g>
</g>
<!-- Node15 -->
<g id="Node000015" class="node">
<title>Node15</title>
<g id="a_Node000015"><a xlink:href="_ram_2_input_output_8h.html" target="_top" xlink:title=" ">
<polygon fill="white" stroke="#666666" points="571,-167.5 434,-167.5 434,-148.5 571,-148.5 571,-167.5"/>
<text text-anchor="middle" x="502.5" y="-155.5" font-family="Helvetica,sans-Serif" font-size="10.00">Kit/Io/Ram/InputOutput.h</text>
</a>
</g>
</g>
<!-- Node2&#45;&gt;Node15 -->
<g id="edge14_Node000002_Node000015" class="edge">
<title>Node2&#45;&gt;Node15</title>
<g id="a_edge14_Node000002_Node000015"><a xlink:title=" ">
<path fill="none" stroke="#63b8ff" d="M841.27,-212.8C762.34,-200.26 629.84,-179.22 556.11,-167.51"/>
<polygon fill="#63b8ff" stroke="#63b8ff" points="841.14,-216.32 851.57,-214.44 842.24,-209.41 841.14,-216.32"/>
</a>
</g>
</g>
<!-- Node16 -->
<g id="Node000016" class="node">
<title>Node16</title>
<g id="a_Node000016"><a xlink:href="_serial_2_r_pi_2_r_p2xxx_2_uart_2_input_output_8h.html" target="_top" xlink:title=" ">
<polygon fill="white" stroke="#666666" points="1134,-173 1003,-173 1003,-143 1134,-143 1134,-173"/>
<text text-anchor="start" x="1011" y="-161" font-family="Helvetica,sans-Serif" font-size="10.00">Kit/Io/Serial/RPi/RP2xxx</text>
<text text-anchor="middle" x="1068.5" y="-150" font-family="Helvetica,sans-Serif" font-size="10.00">/Uart/InputOutput.h</text>
</a>
</g>
</g>
<!-- Node2&#45;&gt;Node16 -->
<g id="edge16_Node000002_Node000016" class="edge">
<title>Node2&#45;&gt;Node16</title>
<g id="a_edge16_Node000002_Node000016"><a xlink:title=" ">
<path fill="none" stroke="#63b8ff" d="M936.96,-210.65C964.32,-199.9 1003.95,-184.35 1032.55,-173.12"/>
<polygon fill="#63b8ff" stroke="#63b8ff" points="935.51,-207.46 927.48,-214.37 938.07,-213.97 935.51,-207.46"/>
</a>
</g>
</g>
<!-- Node17 -->
<g id="Node000017" class="node">
<title>Node17</title>
<g id="a_Node000017"><a xlink:href="_stream_driver_8h.html" target="_top" xlink:title=" ">
<polygon fill="white" stroke="#666666" points="1276.5,-173 1152.5,-173 1152.5,-143 1276.5,-143 1276.5,-173"/>
<text text-anchor="start" x="1160.5" y="-161" font-family="Helvetica,sans-Serif" font-size="10.00">Kit/Io/Serial/ST/M32F4</text>
<text text-anchor="middle" x="1214.5" y="-150" font-family="Helvetica,sans-Serif" font-size="10.00">/StreamDriver.h</text>
</a>
</g>
</g>
<!-- Node2&#45;&gt;Node17 -->
<g id="edge17_Node000002_Node000017" class="edge">
<title>Node2&#45;&gt;Node17</title>
<g id="a_edge17_Node000002_Node000017"><a xlink:title=" ">
<path fill="none" stroke="#63b8ff" d="M956.84,-212.37C1010.54,-201.24 1094.86,-183.78 1152.3,-171.88"/>
<polygon fill="#63b8ff" stroke="#63b8ff" points="955.93,-208.98 946.85,-214.44 957.35,-215.83 955.93,-208.98"/>
</a>
</g>
</g>
<!-- Node4 -->
<g id="Node000004" class="node">
<title>Node4</title>
<g id="a_Node000004"><a xlink:href="_input_output_allocate_8h.html" target="_top" xlink:title=" ">
<polygon fill="white" stroke="#666666" points="177,-96 0,-96 0,-77 177,-77 177,-96"/>
<text text-anchor="middle" x="88.5" y="-84" font-family="Helvetica,sans-Serif" font-size="10.00">Kit/Io/Ram/InputOutputAllocate.h</text>
</a>
</g>
</g>
<!-- Node3&#45;&gt;Node4 -->
<g id="edge3_Node000003_Node000004" class="edge">
<title>Node3&#45;&gt;Node4</title>
<g id="a_edge3_Node000003_Node000004"><a xlink:title=" ">
<path fill="none" stroke="#63b8ff" d="M188.59,-138.28C161.52,-124.54 126.02,-106.53 105.39,-96.07"/>
<polygon fill="#63b8ff" stroke="#63b8ff" points="187.27,-141.53 197.78,-142.94 190.44,-135.29 187.27,-141.53"/>
</a>
</g>
</g>
<!-- Node6 -->
<g id="Node000006" class="node">
<title>Node6</title>
<g id="a_Node000006"><a xlink:href="_led_server_8h.html" target="_top" xlink:title=" ">
<polygon fill="white" stroke="#666666" points="376,-107 195,-107 195,-66 376,-66 376,-107"/>
<text text-anchor="start" x="203" y="-95" font-family="Helvetica,sans-Serif" font-size="10.00">/home/runner/work/kit.core</text>
<text text-anchor="start" x="203" y="-84" font-family="Helvetica,sans-Serif" font-size="10.00">/kit.core/projects/examples</text>
<text text-anchor="middle" x="285.5" y="-73" font-family="Helvetica,sans-Serif" font-size="10.00">/Container/RingBuffer/LedServer.h</text>
</a>
</g>
</g>
<!-- Node5&#45;&gt;Node6 -->
<g id="edge5_Node000005_Node000006" class="edge">
<title>Node5&#45;&gt;Node6</title>
<g id="a_edge5_Node000005_Node000006"><a xlink:title=" ">
<path fill="none" stroke="#63b8ff" d="M653.79,-147.15C583.78,-137.77 476.9,-122.79 384.5,-107 381.74,-106.53 378.93,-106.04 376.1,-105.54"/>
<polygon fill="#63b8ff" stroke="#63b8ff" points="653.47,-150.64 663.85,-148.49 654.4,-143.7 653.47,-150.64"/>
</a>
</g>
</g>
<!-- Node7 -->
<g id="Node000007" class="node">
<title>Node7</title>
<g id="a_Node000007"><a xlink:href="_producer_8h.html" target="_top" xlink:title=" ">
<polygon fill="white" stroke="#666666" points="569,-107 394,-107 394,-66 569,-66 569,-107"/>
<text text-anchor="start" x="402" y="-95" font-family="Helvetica,sans-Serif" font-size="10.00">/home/runner/work/kit.core</text>
<text text-anchor="start" x="402" y="-84" font-family="Helvetica,sans-Serif" font-size="10.00">/kit.core/projects/examples</text>
<text text-anchor="middle" x="481.5" y="-73" font-family="Helvetica,sans-Serif" font-size="10.00">/Container/RingBuffer/Producer.h</text>
</a>
</g>
</g>
<!-- Node5&#45;&gt;Node7 -->
<g id="edge6_Node000005_Node000007" class="edge">
<title>Node5&#45;&gt;Node7</title>
<g id="a_edge6_Node000005_Node000007"><a xlink:title=" ">
<path fill="none" stroke="#63b8ff" d="M689.1,-145.68C651.83,-135.23 595.69,-119.5 551.18,-107.03"/>
<polygon fill="#63b8ff" stroke="#63b8ff" points="688.52,-149.15 699.09,-148.48 690.41,-142.41 688.52,-149.15"/>
</a>
</g>
</g>
<!-- Node8 -->
<g id="Node000008" class="node">
<title>Node8</title>
<g id="a_Node000008"><a xlink:href="_ring_buffer_m_p_allocate_8h.html" target="_top" xlink:title=" ">
<polygon fill="white" stroke="#666666" points="721.5,-101.5 587.5,-101.5 587.5,-71.5 721.5,-71.5 721.5,-101.5"/>
<text text-anchor="start" x="595.5" y="-89.5" font-family="Helvetica,sans-Serif" font-size="10.00">Kit/Container/RingBuffer</text>
<text text-anchor="middle" x="654.5" y="-78.5" font-family="Helvetica,sans-Serif" font-size="10.00">MPAllocate.h</text>
</a>
</g>
</g>
<!-- Node5&#45;&gt;Node8 -->
<g id="edge7_Node000005_Node000008" class="edge">
<title>Node5&#45;&gt;Node8</title>
<g id="a_edge7_Node000005_Node000008"><a xlink:title=" ">
<path fill="none" stroke="#63b8ff" d="M712.63,-141.37C699.77,-129.45 682.2,-113.17 669.76,-101.64"/>
<polygon fill="#63b8ff" stroke="#63b8ff" points="710.59,-144.25 720.3,-148.48 715.35,-139.11 710.59,-144.25"/>
</a>
</g>
</g>
<!-- Node10 -->
<g id="Node000010" class="node">
<title>Node10</title>
<g id="a_Node000010"><a xlink:href="_log_sink_8h.html" target="_top" xlink:title=" ">
<polygon fill="white" stroke="#666666" points="869,-101.5 740,-101.5 740,-71.5 869,-71.5 869,-101.5"/>
<text text-anchor="start" x="748" y="-89.5" font-family="Helvetica,sans-Serif" font-size="10.00">Kit/Logging/Framework</text>
<text text-anchor="middle" x="804.5" y="-78.5" font-family="Helvetica,sans-Serif" font-size="10.00">/LogSink.h</text>
</a>
</g>
</g>
<!-- Node5&#45;&gt;Node10 -->
<g id="edge9_Node000005_Node000010" class="edge">
<title>Node5&#45;&gt;Node10</title>
<g id="a_edge9_Node000005_Node000010"><a xlink:title=" ">
<path fill="none" stroke="#63b8ff" d="M746.37,-141.37C759.23,-129.45 776.8,-113.17 789.24,-101.64"/>
<polygon fill="#63b8ff" stroke="#63b8ff" points="743.65,-139.11 738.7,-148.48 748.41,-144.25 743.65,-139.11"/>
</a>
</g>
</g>
<!-- Node11 -->
<g id="Node000011" class="node">
<title>Node11</title>
<g id="a_Node000011"><a xlink:href="_logger_8h.html" target="_top" xlink:title="This file declares the public facing Logging interface for managing the logging framework (i....">
<polygon fill="white" stroke="#666666" points="1016,-101.5 887,-101.5 887,-71.5 1016,-71.5 1016,-101.5"/>
<text text-anchor="start" x="895" y="-89.5" font-family="Helvetica,sans-Serif" font-size="10.00">Kit/Logging/Framework</text>
<text text-anchor="middle" x="951.5" y="-78.5" font-family="Helvetica,sans-Serif" font-size="10.00">/Logger.h</text>
</a>
</g>
</g>
<!-- Node5&#45;&gt;Node11 -->
<g id="edge10_Node000005_Node000011" class="edge">
<title>Node5&#45;&gt;Node11</title>
<g id="a_edge10_Node000005_Node000011"><a xlink:title=" ">
<path fill="none" stroke="#63b8ff" d="M766.51,-145.41C805.08,-133.34 865.53,-114.41 906.76,-101.51"/>
<polygon fill="#63b8ff" stroke="#63b8ff" points="765.22,-142.15 756.72,-148.48 767.31,-148.83 765.22,-142.15"/>
</a>
</g>
</g>
<!-- Node12 -->
<g id="Node000012" class="node">
<title>Node12</title>
<g id="a_Node000012"><a xlink:href="src_2_kit_2_persistence_2_record_2_journal_2_server_8h.html" target="_top" xlink:title=" ">
<polygon fill="white" stroke="#666666" points="1160.5,-101.5 1034.5,-101.5 1034.5,-71.5 1160.5,-71.5 1160.5,-101.5"/>
<text text-anchor="start" x="1042.5" y="-89.5" font-family="Helvetica,sans-Serif" font-size="10.00">Kit/Persistence/Record</text>
<text text-anchor="middle" x="1097.5" y="-78.5" font-family="Helvetica,sans-Serif" font-size="10.00">/Journal/Server.h</text>
</a>
</g>
</g>
<!-- Node5&#45;&gt;Node12 -->
<g id="edge11_Node000005_Node000012" class="edge">
<title>Node5&#45;&gt;Node12</title>
<g id="a_edge11_Node000005_Node000012"><a xlink:title=" ">
<path fill="none" stroke="#63b8ff" d="M791.41,-146.82C871.15,-133.67 1002.17,-111.86 1024.5,-107 1031.93,-105.38 1039.75,-103.49 1047.38,-101.54"/>
<polygon fill="#63b8ff" stroke="#63b8ff" points="790.77,-143.38 781.48,-148.46 791.91,-150.29 790.77,-143.38"/>
</a>
</g>
</g>
<!-- Node9 -->
<g id="Node000009" class="node">
<title>Node9</title>
<g id="a_Node000009"><a xlink:href="_kit_only_8h.html" target="_top" xlink:title=" ">
<polygon fill="white" stroke="#666666" points="719,-30 590,-30 590,0 719,0 719,-30"/>
<text text-anchor="start" x="598" y="-18" font-family="Helvetica,sans-Serif" font-size="10.00">Kit/Logging/Framework</text>
<text text-anchor="middle" x="654.5" y="-7" font-family="Helvetica,sans-Serif" font-size="10.00">/Mocked4Test/KitOnly.h</text>
</a>
</g>
</g>
<!-- Node8&#45;&gt;Node9 -->
<g id="edge8_Node000008_Node000009" class="edge">
<title>Node8&#45;&gt;Node9</title>
<g id="a_edge8_Node000008_Node000009"><a xlink:title=" ">
<path fill="none" stroke="#63b8ff" d="M654.5,-61.25C654.5,-50.81 654.5,-38.99 654.5,-30.04"/>
<polygon fill="#63b8ff" stroke="#63b8ff" points="651,-61.44 654.5,-71.44 658,-61.44 651,-61.44"/>
</a>
</g>
</g>
<!-- Node14 -->
<g id="Node000014" class="node">
<title>Node14</title>
<g id="a_Node000014"><a xlink:href="_ring_buffer_m_t_allocate_8h.html" target="_top" xlink:title=" ">
<polygon fill="white" stroke="#666666" points="1312.5,-101.5 1178.5,-101.5 1178.5,-71.5 1312.5,-71.5 1312.5,-101.5"/>
<text text-anchor="start" x="1186.5" y="-89.5" font-family="Helvetica,sans-Serif" font-size="10.00">Kit/Container/RingBuffer</text>
<text text-anchor="middle" x="1245.5" y="-78.5" font-family="Helvetica,sans-Serif" font-size="10.00">MTAllocate.h</text>
</a>
</g>
</g>
<!-- Node13&#45;&gt;Node14 -->
<g id="edge13_Node000013_Node000014" class="edge">
<title>Node13&#45;&gt;Node14</title>
<g id="a_edge13_Node000013_Node000014"><a xlink:title=" ">
<path fill="none" stroke="#63b8ff" d="M965.84,-146.7C1019.5,-137.28 1099.99,-122.48 1169.5,-107 1176.95,-105.34 1184.77,-103.48 1192.45,-101.57"/>
<polygon fill="#63b8ff" stroke="#63b8ff" points="965.06,-143.29 955.82,-148.46 966.27,-150.18 965.06,-143.29"/>
</a>
</g>
</g>
<!-- Node15&#45;&gt;Node4 -->
<g id="edge15_Node000015_Node000004" class="edge">
<title>Node15&#45;&gt;Node4</title>
<g id="a_edge15_Node000015_Node000004"><a xlink:title=" ">
<path fill="none" stroke="#63b8ff" d="M433.64,-146.99C369.33,-137.44 270.74,-122.28 185.5,-107 166.9,-103.67 146.38,-99.6 129.02,-96.04"/>
<polygon fill="#63b8ff" stroke="#63b8ff" points="433.25,-150.47 443.66,-148.47 434.28,-143.55 433.25,-150.47"/>
</a>
</g>
</g>
<!-- Node18 -->
<g id="Node000018" class="node">
<title>Node18</title>
<g id="a_Node000018"><a xlink:href="_serial_2_s_t_2_m32_f4_2_input_output_8h.html" target="_top" xlink:title=" ">
<polygon fill="white" stroke="#666666" points="1454.5,-101.5 1330.5,-101.5 1330.5,-71.5 1454.5,-71.5 1454.5,-101.5"/>
<text text-anchor="start" x="1338.5" y="-89.5" font-family="Helvetica,sans-Serif" font-size="10.00">Kit/Io/Serial/ST/M32F4</text>
<text text-anchor="middle" x="1392.5" y="-78.5" font-family="Helvetica,sans-Serif" font-size="10.00">/InputOutput.h</text>
</a>
</g>
</g>
<!-- Node17&#45;&gt;Node18 -->
<g id="edge18_Node000017_Node000018" class="edge">
<title>Node17&#45;&gt;Node18</title>
<g id="a_edge18_Node000017_Node000018"><a xlink:title=" ">
<path fill="none" stroke="#63b8ff" d="M1259.93,-139.26C1289.92,-127.55 1328.68,-112.42 1356.53,-101.54"/>
<polygon fill="#63b8ff" stroke="#63b8ff" points="1258.56,-136.04 1250.52,-142.94 1261.11,-142.56 1258.56,-136.04"/>
</a>
</g>
</g>
<!-- Node22 -->
<g id="Node000022" class="node">
<title>Node22</title>
<g id="a_Node000022"><a xlink:href="_line_decoder_allocate_8h.html" target="_top" xlink:title=" ">
<polygon fill="white" stroke="#666666" points="1480,-167.5 1295,-167.5 1295,-148.5 1480,-148.5 1480,-167.5"/>
<text text-anchor="middle" x="1387.5" y="-155.5" font-family="Helvetica,sans-Serif" font-size="10.00">Kit/Framing/LineDecoderAllocate.h</text>
</a>
</g>
</g>
<!-- Node21&#45;&gt;Node22 -->
<g id="edge22_Node000021_Node000022" class="edge">
<title>Node21&#45;&gt;Node22</title>
<g id="a_edge22_Node000021_Node000022"><a xlink:title=" ">
<path fill="none" stroke="#63b8ff" d="M1380.4,-204.45C1382.28,-192.43 1384.64,-177.32 1386.11,-167.91"/>
<polygon fill="#63b8ff" stroke="#63b8ff" points="1376.93,-203.95 1378.85,-214.37 1383.85,-205.03 1376.93,-203.95"/>
</a>
</g>
</g>
<!-- Node28 -->
<g id="Node000028" class="node">
<title>Node28</title>
<g id="a_Node000028"><a xlink:href="_d_string_item_8h.html" target="_top" xlink:title=" ">
<polygon fill="white" stroke="#666666" points="2130.5,-167.5 2006.5,-167.5 2006.5,-148.5 2130.5,-148.5 2130.5,-167.5"/>
<text text-anchor="middle" x="2068.5" y="-155.5" font-family="Helvetica,sans-Serif" font-size="10.00">Kit/Text/DStringItem.h</text>
</a>
</g>
</g>
<!-- Node27&#45;&gt;Node28 -->
<g id="edge28_Node000027_Node000028" class="edge">
<title>Node27&#45;&gt;Node28</title>
<g id="a_edge28_Node000027_Node000028"><a xlink:title=" ">
<path fill="none" stroke="#63b8ff" d="M2068.5,-204.08C2068.5,-192.13 2068.5,-177.22 2068.5,-167.91"/>
<polygon fill="#63b8ff" stroke="#63b8ff" points="2065,-204.37 2068.5,-214.37 2072,-204.37 2065,-204.37"/>
</a>
</g>
</g>
</g>
</svg>
