<?xml version="1.0" encoding="UTF-8" standalone="no"?>
<!DOCTYPE svg PUBLIC "-//W3C//DTD SVG 1.1//EN"
 "http://www.w3.org/Graphics/SVG/1.1/DTD/svg11.dtd">
<!-- Generated by graphviz version 2.43.0 (0)
 -->
<!-- Title: Kit/System/Assert.h Pages: 1 -->
<svg width="810pt" height="148pt"
 viewBox="0.00 0.00 809.50 148.00" xmlns="http://www.w3.org/2000/svg" xmlns:xlink="http://www.w3.org/1999/xlink">
<g id="graph0" class="graph" transform="scale(1 1) rotate(0) translate(4 144)">
<title>Kit/System/Assert.h</title>
<!-- Node1 -->
<g id="Node000001" class="node">
<title>Node1</title>
<g id="a_Node000001"><a xlink:title=" ">
<polygon fill="#999999" stroke="#666666" points="460,-140 347,-140 347,-121 460,-121 460,-140"/>
<text text-anchor="middle" x="403.5" y="-128" font-family="Helvetica,sans-Serif" font-size="10.00">Kit/System/Assert.h</text>
</a>
</g>
</g>
<!-- Node2 -->
<g id="Node000002" class="node">
<title>Node2</title>
<g id="a_Node000002"><a xlink:href="_ring_buffer_base_8h.html" target="_top" xlink:title=" ">
<polygon fill="white" stroke="#666666" points="138.5,-85 4.5,-85 4.5,-55 138.5,-55 138.5,-85"/>
<text text-anchor="start" x="12.5" y="-73" font-family="Helvetica,sans-Serif" font-size="10.00">Kit/Container/RingBuffer</text>
<text text-anchor="middle" x="71.5" y="-62" font-family="Helvetica,sans-Serif" font-size="10.00">Base.h</text>
</a>
</g>
</g>
<!-- Node1&#45;&gt;Node2 -->
<g id="edge1_Node000001_Node000002" class="edge">
<title>Node1&#45;&gt;Node2</title>
<g id="a_edge1_Node000001_Node000002"><a xlink:title=" ">
<path fill="none" stroke="#63b8ff" d="M343.4,-119.23C291.51,-110.32 214.52,-97 147.5,-85 144.59,-84.48 141.63,-83.95 138.63,-83.4"/>
<polygon fill="#63b8ff" stroke="#63b8ff" points="342.99,-122.71 353.44,-120.95 344.17,-115.81 342.99,-122.71"/>
</a>
</g>
</g>
<!-- Node4 -->
<g id="Node000004" class="node">
<title>Node4</title>
<g id="a_Node000004"><a xlink:href="_file_2_posix_2_fdio_8h.html" target="_top" xlink:title=" ">
<polygon fill="white" stroke="#666666" points="317,-19 192,-19 192,0 317,0 317,-19"/>
<text text-anchor="middle" x="254.5" y="-7" font-family="Helvetica,sans-Serif" font-size="10.00">Kit/Io/File/Posix/Fdio.h</text>
</a>
</g>
</g>
<!-- Node1&#45;&gt;Node4 -->
<g id="edge3_Node000001_Node000004" class="edge">
<title>Node1&#45;&gt;Node4</title>
<g id="a_edge3_Node000001_Node000004"><a xlink:title=" ">
<path fill="none" stroke="#63b8ff" d="M363.42,-117.62C343.85,-110.42 320.85,-99.73 303.5,-85 281.08,-65.96 264.95,-34.15 258.12,-19.01"/>
<polygon fill="#63b8ff" stroke="#63b8ff" points="362.41,-120.97 373,-120.97 364.72,-114.37 362.41,-120.97"/>
</a>
</g>
</g>
<!-- Node5 -->
<g id="Node000005" class="node">
<title>Node5</title>
<g id="a_Node000005"><a xlink:href="_file_2_win32_2_fdio_8h.html" target="_top" xlink:title=" ">
<polygon fill="white" stroke="#666666" points="774,-19 645,-19 645,0 774,0 774,-19"/>
<text text-anchor="middle" x="709.5" y="-7" font-family="Helvetica,sans-Serif" font-size="10.00">Kit/Io/File/Win32/Fdio.h</text>
</a>
</g>
</g>
<!-- Node1&#45;&gt;Node5 -->
<g id="edge4_Node000001_Node000005" class="edge">
<title>Node1&#45;&gt;Node5</title>
<g id="a_edge4_Node000001_Node000005"><a xlink:title=" ">
<path fill="none" stroke="#63b8ff" d="M470.3,-122.72C532.49,-115.46 619.89,-102.58 649.5,-85 676.92,-68.72 696.96,-34.95 705.27,-19.09"/>
<polygon fill="#63b8ff" stroke="#63b8ff" points="469.7,-119.26 460.17,-123.88 470.5,-126.22 469.7,-119.26"/>
</a>
</g>
</g>
<!-- Node6 -->
<g id="Node000006" class="node">
<title>Node6</title>
<g id="a_Node000006"><a xlink:href="_null_8h.html" target="_top" xlink:title=" ">
<polygon fill="white" stroke="#666666" points="386.5,-79.5 312.5,-79.5 312.5,-60.5 386.5,-60.5 386.5,-79.5"/>
<text text-anchor="middle" x="349.5" y="-67.5" font-family="Helvetica,sans-Serif" font-size="10.00">Kit/Io/Null.h</text>
</a>
</g>
</g>
<!-- Node1&#45;&gt;Node6 -->
<g id="edge5_Node000001_Node000006" class="edge">
<title>Node1&#45;&gt;Node6</title>
<g id="a_edge5_Node000001_Node000006"><a xlink:title=" ">
<path fill="none" stroke="#63b8ff" d="M388.52,-113.27C378.48,-102.39 365.65,-88.49 357.5,-79.67"/>
<polygon fill="#63b8ff" stroke="#63b8ff" points="386.18,-115.89 395.53,-120.87 391.32,-111.15 386.18,-115.89"/>
</a>
</g>
</g>
<!-- Node7 -->
<g id="Node000007" class="node">
<title>Node7</title>
<g id="a_Node000007"><a xlink:href="_socket_2_posix_2_fdio_8h.html" target="_top" xlink:title=" ">
<polygon fill="white" stroke="#666666" points="512,-85 405,-85 405,-55 512,-55 512,-85"/>
<text text-anchor="start" x="413" y="-73" font-family="Helvetica,sans-Serif" font-size="10.00">Kit/Io/Socket/Posix</text>
<text text-anchor="middle" x="458.5" y="-62" font-family="Helvetica,sans-Serif" font-size="10.00">/Fdio.h</text>
</a>
</g>
</g>
<!-- Node1&#45;&gt;Node7 -->
<g id="edge6_Node000001_Node000007" class="edge">
<title>Node1&#45;&gt;Node7</title>
<g id="a_edge6_Node000001_Node000007"><a xlink:title=" ">
<path fill="none" stroke="#63b8ff" d="M418.61,-113.43C426.95,-104.56 437.21,-93.65 445.23,-85.11"/>
<polygon fill="#63b8ff" stroke="#63b8ff" points="415.92,-111.19 411.62,-120.87 421.02,-115.98 415.92,-111.19"/>
</a>
</g>
</g>
<!-- Node8 -->
<g id="Node000008" class="node">
<title>Node8</title>
<g id="a_Node000008"><a xlink:href="_socket_2_win32_2_fdio_8h.html" target="_top" xlink:title=" ">
<polygon fill="white" stroke="#666666" points="641,-85 530,-85 530,-55 641,-55 641,-85"/>
<text text-anchor="start" x="538" y="-73" font-family="Helvetica,sans-Serif" font-size="10.00">Kit/Io/Socket/Win32</text>
<text text-anchor="middle" x="585.5" y="-62" font-family="Helvetica,sans-Serif" font-size="10.00">/Fdio.h</text>
</a>
</g>
</g>
<!-- Node1&#45;&gt;Node8 -->
<g id="edge7_Node000001_Node000008" class="edge">
<title>Node1&#45;&gt;Node8</title>
<g id="a_edge7_Node000001_Node000008"><a xlink:title=" ">
<path fill="none" stroke="#63b8ff" d="M439.81,-117.83C469.15,-108.4 510.57,-95.09 541.74,-85.06"/>
<polygon fill="#63b8ff" stroke="#63b8ff" points="438.41,-114.6 429.96,-120.99 440.56,-121.27 438.41,-114.6"/>
</a>
</g>
</g>
<!-- Node9 -->
<g id="Node000009" class="node">
<title>Node9</title>
<g id="a_Node000009"><a xlink:href="_stdio_2_posix_2_fdio_8h.html" target="_top" xlink:title=" ">
<polygon fill="white" stroke="#666666" points="256,-85 157,-85 157,-55 256,-55 256,-85"/>
<text text-anchor="start" x="165" y="-73" font-family="Helvetica,sans-Serif" font-size="10.00">Kit/Io/Stdio/Posix</text>
<text text-anchor="middle" x="206.5" y="-62" font-family="Helvetica,sans-Serif" font-size="10.00">/Fdio.h</text>
</a>
</g>
</g>
<!-- Node1&#45;&gt;Node9 -->
<g id="edge8_Node000001_Node000009" class="edge">
<title>Node1&#45;&gt;Node9</title>
<g id="a_edge8_Node000001_Node000009"><a xlink:title=" ">
<path fill="none" stroke="#63b8ff" d="M365.03,-118.08C333.22,-108.63 287.9,-95.17 253.86,-85.06"/>
<polygon fill="#63b8ff" stroke="#63b8ff" points="364.27,-121.5 374.85,-120.99 366.26,-114.79 364.27,-121.5"/>
</a>
</g>
</g>
<!-- Node10 -->
<g id="Node000010" class="node">
<title>Node10</title>
<g id="a_Node000010"><a xlink:href="_stdio_2_win32_2_fdio_8h.html" target="_top" xlink:title=" ">
<polygon fill="white" stroke="#666666" points="801.5,-85 697.5,-85 697.5,-55 801.5,-55 801.5,-85"/>
<text text-anchor="start" x="705.5" y="-73" font-family="Helvetica,sans-Serif" font-size="10.00">Kit/Io/Stdio/Win32</text>
<text text-anchor="middle" x="749.5" y="-62" font-family="Helvetica,sans-Serif" font-size="10.00">/Fdio.h</text>
</a>
</g>
</g>
<!-- Node1&#45;&gt;Node10 -->
<g id="edge10_Node000001_Node000010" class="edge">
<title>Node1&#45;&gt;Node10</title>
<g id="a_edge10_Node000001_Node000010"><a xlink:title=" ">
<path fill="none" stroke="#63b8ff" d="M470.16,-119.89C527,-111.46 610.79,-98.48 683.5,-85 687.99,-84.17 692.65,-83.26 697.31,-82.33"/>
<polygon fill="#63b8ff" stroke="#63b8ff" points="469.61,-116.44 460.22,-121.36 470.63,-123.36 469.61,-116.44"/>
</a>
</g>
</g>
<!-- Node3 -->
<g id="Node000003" class="node">
<title>Node3</title>
<g id="a_Node000003"><a xlink:href="_ring_buffer_8h.html" target="_top" xlink:title=" ">
<polygon fill="white" stroke="#666666" points="143,-19 0,-19 0,0 143,0 143,-19"/>
<text text-anchor="middle" x="71.5" y="-7" font-family="Helvetica,sans-Serif" font-size="10.00">Kit/Container/RingBuffer.h</text>
</a>
</g>
</g>
<!-- Node2&#45;&gt;Node3 -->
<g id="edge2_Node000002_Node000003" class="edge">
<title>Node2&#45;&gt;Node3</title>
<g id="a_edge2_Node000002_Node000003"><a xlink:title=" ">
<path fill="none" stroke="#63b8ff" d="M71.5,-44.75C71.5,-35.72 71.5,-26.03 71.5,-19.27"/>
<polygon fill="#63b8ff" stroke="#63b8ff" points="68,-44.84 71.5,-54.84 75,-44.84 68,-44.84"/>
</a>
</g>
</g>
<!-- Node9&#45;&gt;Node4 -->
<g id="edge9_Node000009_Node000004" class="edge">
<title>Node9&#45;&gt;Node4</title>
<g id="a_edge9_Node000009_Node000004"><a xlink:title=" ">
<path fill="none" stroke="#63b8ff" d="M224.48,-47.09C232.41,-37.42 241.28,-26.61 247.31,-19.27"/>
<polygon fill="#63b8ff" stroke="#63b8ff" points="221.76,-44.89 218.12,-54.84 227.17,-49.33 221.76,-44.89"/>
</a>
</g>
</g>
<!-- Node10&#45;&gt;Node5 -->
<g id="edge11_Node000010_Node000005" class="edge">
<title>Node10&#45;&gt;Node5</title>
<g id="a_edge11_Node000010_Node000005"><a xlink:title=" ">
<path fill="none" stroke="#63b8ff" d="M734.12,-46.51C727.61,-36.99 720.42,-26.47 715.49,-19.27"/>
<polygon fill="#63b8ff" stroke="#63b8ff" points="731.28,-48.56 739.82,-54.84 737.06,-44.61 731.28,-48.56"/>
</a>
</g>
</g>
</g>
</svg>
