<?xml version="1.0" encoding="UTF-8" standalone="no"?>
<!DOCTYPE svg PUBLIC "-//W3C//DTD SVG 1.1//EN"
 "http://www.w3.org/Graphics/SVG/1.1/DTD/svg11.dtd">
<!-- Generated by graphviz version 2.43.0 (0)
 -->
<!-- Title: Kit/Itc/AsyncReturnHandler.h Pages: 1 -->
<svg width="260pt" height="247pt"
 viewBox="0.00 0.00 259.50 247.00" xmlns="http://www.w3.org/2000/svg" xmlns:xlink="http://www.w3.org/1999/xlink">
<g id="graph0" class="graph" transform="scale(1 1) rotate(0) translate(4 243)">
<title>Kit/Itc/AsyncReturnHandler.h</title>
<!-- Node1 -->
<g id="Node000001" class="node">
<title>Node1</title>
<g id="a_Node000001"><a xlink:title=" ">
<polygon fill="#999999" stroke="#666666" points="208.5,-239 52.5,-239 52.5,-220 208.5,-220 208.5,-239"/>
<text text-anchor="middle" x="130.5" y="-227" font-family="Helvetica,sans-Serif" font-size="10.00">Kit/Itc/AsyncReturnHandler.h</text>
</a>
</g>
</g>
<!-- Node2 -->
<g id="Node000002" class="node">
<title>Node2</title>
<g id="a_Node000002"><a xlink:href="_response_message_8h.html" target="_top" xlink:title=" ">
<polygon fill="white" stroke="#666666" points="204.5,-184 56.5,-184 56.5,-165 204.5,-165 204.5,-184"/>
<text text-anchor="middle" x="130.5" y="-172" font-family="Helvetica,sans-Serif" font-size="10.00">Kit/Itc/ResponseMessage.h</text>
</a>
</g>
</g>
<!-- Node1&#45;&gt;Node2 -->
<g id="edge1_Node000001_Node000002" class="edge">
<title>Node1&#45;&gt;Node2</title>
<g id="a_edge1_Node000001_Node000002"><a xlink:title=" ">
<path fill="none" stroke="#63b8ff" d="M130.5,-209.66C130.5,-200.93 130.5,-190.99 130.5,-184.09"/>
<polygon fill="#63b8ff" stroke="#63b8ff" points="127,-209.75 130.5,-219.75 134,-209.75 127,-209.75"/>
</a>
</g>
</g>
<!-- Node3 -->
<g id="Node000003" class="node">
<title>Node3</title>
<g id="a_Node000003"><a xlink:href="_i_close_request_8h.html" target="_top" xlink:title=" ">
<polygon fill="white" stroke="#666666" points="127,-74 0,-74 0,-55 127,-55 127,-74"/>
<text text-anchor="middle" x="63.5" y="-62" font-family="Helvetica,sans-Serif" font-size="10.00">Kit/Itc/ICloseRequest.h</text>
</a>
</g>
</g>
<!-- Node2&#45;&gt;Node3 -->
<g id="edge2_Node000002_Node000003" class="edge">
<title>Node2&#45;&gt;Node3</title>
<g id="a_edge2_Node000002_Node000003"><a xlink:title=" ">
<path fill="none" stroke="#63b8ff" d="M119.69,-156.07C105.15,-132.64 79.87,-91.89 68.87,-74.16"/>
<polygon fill="#63b8ff" stroke="#63b8ff" points="116.77,-158.01 125.02,-164.66 122.72,-154.32 116.77,-158.01"/>
</a>
</g>
</g>
<!-- Node5 -->
<g id="Node000005" class="node">
<title>Node5</title>
<g id="a_Node000005"><a xlink:href="_i_open_request_8h.html" target="_top" xlink:title=" ">
<polygon fill="white" stroke="#666666" points="250,-129 125,-129 125,-110 250,-110 250,-129"/>
<text text-anchor="middle" x="187.5" y="-117" font-family="Helvetica,sans-Serif" font-size="10.00">Kit/Itc/IOpenRequest.h</text>
</a>
</g>
</g>
<!-- Node2&#45;&gt;Node5 -->
<g id="edge4_Node000002_Node000005" class="edge">
<title>Node2&#45;&gt;Node5</title>
<g id="a_edge4_Node000002_Node000005"><a xlink:title=" ">
<path fill="none" stroke="#63b8ff" d="M147.12,-158.04C157.23,-148.64 169.78,-136.98 178.18,-129.17"/>
<polygon fill="#63b8ff" stroke="#63b8ff" points="144.6,-155.61 139.66,-164.98 149.36,-160.74 144.6,-155.61"/>
</a>
</g>
</g>
<!-- Node4 -->
<g id="Node000004" class="node">
<title>Node4</title>
<g id="a_Node000004"><a xlink:href="_open_close_sync_8h.html" target="_top" xlink:title=" ">
<polygon fill="white" stroke="#666666" points="197,-19 64,-19 64,0 197,0 197,-19"/>
<text text-anchor="middle" x="130.5" y="-7" font-family="Helvetica,sans-Serif" font-size="10.00">Kit/Itc/OpenCloseSync.h</text>
</a>
</g>
</g>
<!-- Node3&#45;&gt;Node4 -->
<g id="edge3_Node000003_Node000004" class="edge">
<title>Node3&#45;&gt;Node4</title>
<g id="a_edge3_Node000003_Node000004"><a xlink:title=" ">
<path fill="none" stroke="#63b8ff" d="M82.33,-48.6C94.34,-39.11 109.47,-27.13 119.54,-19.17"/>
<polygon fill="#63b8ff" stroke="#63b8ff" points="79.94,-46.04 74.26,-54.98 84.28,-51.53 79.94,-46.04"/>
</a>
</g>
</g>
<!-- Node6 -->
<g id="Node000006" class="node">
<title>Node6</title>
<g id="a_Node000006"><a xlink:href="_open_sync_8h.html" target="_top" xlink:title=" ">
<polygon fill="white" stroke="#666666" points="251.5,-74 145.5,-74 145.5,-55 251.5,-55 251.5,-74"/>
<text text-anchor="middle" x="198.5" y="-62" font-family="Helvetica,sans-Serif" font-size="10.00">Kit/Itc/OpenSync.h</text>
</a>
</g>
</g>
<!-- Node5&#45;&gt;Node6 -->
<g id="edge5_Node000005_Node000006" class="edge">
<title>Node5&#45;&gt;Node6</title>
<g id="a_edge5_Node000005_Node000006"><a xlink:title=" ">
<path fill="none" stroke="#63b8ff" d="M191.35,-99.95C193.18,-91.15 195.27,-81.06 196.72,-74.09"/>
<polygon fill="#63b8ff" stroke="#63b8ff" points="187.92,-99.25 189.32,-109.75 194.78,-100.67 187.92,-99.25"/>
</a>
</g>
</g>
<!-- Node6&#45;&gt;Node4 -->
<g id="edge6_Node000006_Node000004" class="edge">
<title>Node6&#45;&gt;Node4</title>
<g id="a_edge6_Node000006_Node000004"><a xlink:title=" ">
<path fill="none" stroke="#63b8ff" d="M179.38,-48.6C167.2,-39.11 151.84,-27.13 141.62,-19.17"/>
<polygon fill="#63b8ff" stroke="#63b8ff" points="177.54,-51.6 187.57,-54.98 181.84,-46.08 177.54,-51.6"/>
</a>
</g>
</g>
</g>
</svg>
