<?xml version="1.0" encoding="UTF-8" standalone="no"?>
<!DOCTYPE svg PUBLIC "-//W3C//DTD SVG 1.1//EN"
 "http://www.w3.org/Graphics/SVG/1.1/DTD/svg11.dtd">
<!-- Generated by graphviz version 2.43.0 (0)
 -->
<!-- Title: Kit/Itc/AsyncReturnHandler.h Pages: 1 -->
<svg width="746pt" height="324pt"
 viewBox="0.00 0.00 745.50 324.00" xmlns="http://www.w3.org/2000/svg" xmlns:xlink="http://www.w3.org/1999/xlink">
<g id="graph0" class="graph" transform="scale(1 1) rotate(0) translate(4 320)">
<title>Kit/Itc/AsyncReturnHandler.h</title>
<!-- Node1 -->
<g id="Node000001" class="node">
<title>Node1</title>
<g id="a_Node000001"><a xlink:title=" ">
<polygon fill="#999999" stroke="#666666" points="426.5,-316 270.5,-316 270.5,-297 426.5,-297 426.5,-316"/>
<text text-anchor="middle" x="348.5" y="-304" font-family="Helvetica,sans-Serif" font-size="10.00">Kit/Itc/AsyncReturnHandler.h</text>
</a>
</g>
</g>
<!-- Node2 -->
<g id="Node000002" class="node">
<title>Node2</title>
<g id="a_Node000002"><a xlink:href="_response_message_8h.html" target="_top" xlink:title=" ">
<polygon fill="white" stroke="#666666" points="422.5,-261 274.5,-261 274.5,-242 422.5,-242 422.5,-261"/>
<text text-anchor="middle" x="348.5" y="-249" font-family="Helvetica,sans-Serif" font-size="10.00">Kit/Itc/ResponseMessage.h</text>
</a>
</g>
</g>
<!-- Node1&#45;&gt;Node2 -->
<g id="edge1_Node000001_Node000002" class="edge">
<title>Node1&#45;&gt;Node2</title>
<g id="a_edge1_Node000001_Node000002"><a xlink:title=" ">
<path fill="none" stroke="#63b8ff" d="M348.5,-286.66C348.5,-277.93 348.5,-267.99 348.5,-261.09"/>
<polygon fill="#63b8ff" stroke="#63b8ff" points="345,-286.75 348.5,-296.75 352,-286.75 345,-286.75"/>
</a>
</g>
</g>
<!-- Node3 -->
<g id="Node000003" class="node">
<title>Node3</title>
<g id="a_Node000003"><a xlink:href="_erase_request_8h.html" target="_top" xlink:title=" ">
<polygon fill="white" stroke="#666666" points="181,-206 0,-206 0,-187 181,-187 181,-206"/>
<text text-anchor="middle" x="90.5" y="-194" font-family="Helvetica,sans-Serif" font-size="10.00">Kit/Dm/Persistent/EraseRequest.h</text>
</a>
</g>
</g>
<!-- Node2&#45;&gt;Node3 -->
<g id="edge2_Node000002_Node000003" class="edge">
<title>Node2&#45;&gt;Node3</title>
<g id="a_edge2_Node000002_Node000003"><a xlink:title=" ">
<path fill="none" stroke="#63b8ff" d="M297.1,-239.94C248.74,-230.01 177.22,-215.31 132.28,-206.08"/>
<polygon fill="#63b8ff" stroke="#63b8ff" points="296.55,-243.4 307.05,-241.98 297.96,-236.54 296.55,-243.4"/>
</a>
</g>
</g>
<!-- Node5 -->
<g id="Node000005" class="node">
<title>Node5</title>
<g id="a_Node000005"><a xlink:href="_flush_request_8h.html" target="_top" xlink:title=" ">
<polygon fill="white" stroke="#666666" points="379.5,-206 199.5,-206 199.5,-187 379.5,-187 379.5,-206"/>
<text text-anchor="middle" x="289.5" y="-194" font-family="Helvetica,sans-Serif" font-size="10.00">Kit/Dm/Persistent/FlushRequest.h</text>
</a>
</g>
</g>
<!-- Node2&#45;&gt;Node5 -->
<g id="edge4_Node000002_Node000005" class="edge">
<title>Node2&#45;&gt;Node5</title>
<g id="a_edge4_Node000002_Node000005"><a xlink:title=" ">
<path fill="none" stroke="#63b8ff" d="M331.3,-235.04C320.83,-225.64 307.85,-213.98 299.15,-206.17"/>
<polygon fill="#63b8ff" stroke="#63b8ff" points="329.24,-237.91 339.02,-241.98 333.92,-232.7 329.24,-237.91"/>
</a>
</g>
</g>
<!-- Node6 -->
<g id="Node000006" class="node">
<title>Node6</title>
<g id="a_Node000006"><a xlink:href="_i_close_request_8h.html" target="_top" xlink:title=" ">
<polygon fill="white" stroke="#666666" points="460,-151 333,-151 333,-132 460,-132 460,-151"/>
<text text-anchor="middle" x="396.5" y="-139" font-family="Helvetica,sans-Serif" font-size="10.00">Kit/Itc/ICloseRequest.h</text>
</a>
</g>
</g>
<!-- Node2&#45;&gt;Node6 -->
<g id="edge6_Node000002_Node000006" class="edge">
<title>Node2&#45;&gt;Node6</title>
<g id="a_edge6_Node000002_Node000006"><a xlink:title=" ">
<path fill="none" stroke="#63b8ff" d="M366.91,-234.86C374.88,-227.04 383.51,-216.91 388.5,-206 396.82,-187.81 397.39,-163.81 397,-151.16"/>
<polygon fill="#63b8ff" stroke="#63b8ff" points="364.3,-232.51 359.32,-241.87 369.05,-237.66 364.3,-232.51"/>
</a>
</g>
</g>
<!-- Node12 -->
<g id="Node000012" class="node">
<title>Node12</title>
<g id="a_Node000012"><a xlink:href="_i_open_request_8h.html" target="_top" xlink:title=" ">
<polygon fill="white" stroke="#666666" points="583,-206 458,-206 458,-187 583,-187 583,-206"/>
<text text-anchor="middle" x="520.5" y="-194" font-family="Helvetica,sans-Serif" font-size="10.00">Kit/Itc/IOpenRequest.h</text>
</a>
</g>
</g>
<!-- Node2&#45;&gt;Node12 -->
<g id="edge12_Node000002_Node000012" class="edge">
<title>Node2&#45;&gt;Node12</title>
<g id="a_edge12_Node000002_Node000012"><a xlink:title=" ">
<path fill="none" stroke="#63b8ff" d="M386.06,-238.93C418.18,-229.03 463.69,-215.01 492.65,-206.08"/>
<polygon fill="#63b8ff" stroke="#63b8ff" points="384.66,-235.69 376.13,-241.98 386.72,-242.38 384.66,-235.69"/>
</a>
</g>
</g>
<!-- Node4 -->
<g id="Node000004" class="node">
<title>Node4</title>
<g id="a_Node000004"><a xlink:href="_record_8h.html" target="_top" xlink:title=" ">
<polygon fill="white" stroke="#666666" points="245.5,-151 97.5,-151 97.5,-132 245.5,-132 245.5,-151"/>
<text text-anchor="middle" x="171.5" y="-139" font-family="Helvetica,sans-Serif" font-size="10.00">Kit/Dm/Persistent/Record.h</text>
</a>
</g>
</g>
<!-- Node3&#45;&gt;Node4 -->
<g id="edge3_Node000003_Node000004" class="edge">
<title>Node3&#45;&gt;Node4</title>
<g id="a_edge3_Node000003_Node000004"><a xlink:title=" ">
<path fill="none" stroke="#63b8ff" d="M112.01,-181.42C126.71,-171.81 145.72,-159.37 158.25,-151.17"/>
<polygon fill="#63b8ff" stroke="#63b8ff" points="109.97,-178.58 103.51,-186.98 113.8,-184.44 109.97,-178.58"/>
</a>
</g>
</g>
<!-- Node5&#45;&gt;Node4 -->
<g id="edge5_Node000005_Node000004" class="edge">
<title>Node5&#45;&gt;Node4</title>
<g id="a_edge5_Node000005_Node000004"><a xlink:title=" ">
<path fill="none" stroke="#63b8ff" d="M261.15,-182.77C239.38,-172.99 209.91,-159.75 190.8,-151.17"/>
<polygon fill="#63b8ff" stroke="#63b8ff" points="259.99,-186.08 270.54,-186.98 262.85,-179.69 259.99,-186.08"/>
</a>
</g>
</g>
<!-- Node7 -->
<g id="Node000007" class="node">
<title>Node7</title>
<g id="a_Node000007"><a xlink:href="_open_close_sync_8h.html" target="_top" xlink:title=" ">
<polygon fill="white" stroke="#666666" points="530,-96 397,-96 397,-77 530,-77 530,-96"/>
<text text-anchor="middle" x="463.5" y="-84" font-family="Helvetica,sans-Serif" font-size="10.00">Kit/Itc/OpenCloseSync.h</text>
</a>
</g>
</g>
<!-- Node6&#45;&gt;Node7 -->
<g id="edge7_Node000006_Node000007" class="edge">
<title>Node6&#45;&gt;Node7</title>
<g id="a_edge7_Node000006_Node000007"><a xlink:title=" ">
<path fill="none" stroke="#63b8ff" d="M415.33,-125.6C427.34,-116.11 442.47,-104.13 452.54,-96.17"/>
<polygon fill="#63b8ff" stroke="#63b8ff" points="412.94,-123.04 407.26,-131.98 417.28,-128.53 412.94,-123.04"/>
</a>
</g>
</g>
<!-- Node8 -->
<g id="Node000008" class="node">
<title>Node8</title>
<g id="a_Node000008"><a xlink:href="_client_8h.html" target="_top" xlink:title=" ">
<polygon fill="white" stroke="#666666" points="293,-41 144,-41 144,0 293,0 293,-41"/>
<text text-anchor="start" x="152" y="-29" font-family="Helvetica,sans-Serif" font-size="10.00">/home/runner/work/kit.core</text>
<text text-anchor="start" x="152" y="-18" font-family="Helvetica,sans-Serif" font-size="10.00">/kit.core/projects/examples</text>
<text text-anchor="middle" x="218.5" y="-7" font-family="Helvetica,sans-Serif" font-size="10.00">/Dm/Transaction/Client.h</text>
</a>
</g>
</g>
<!-- Node7&#45;&gt;Node8 -->
<g id="edge8_Node000007_Node000008" class="edge">
<title>Node7&#45;&gt;Node8</title>
<g id="a_edge8_Node000007_Node000008"><a xlink:title=" ">
<path fill="none" stroke="#63b8ff" d="M420.78,-74.34C385.61,-65.15 334.92,-51.91 293.09,-40.98"/>
<polygon fill="#63b8ff" stroke="#63b8ff" points="420.15,-77.79 430.71,-76.94 421.92,-71.02 420.15,-77.79"/>
</a>
</g>
</g>
<!-- Node9 -->
<g id="Node000009" class="node">
<title>Node9</title>
<g id="a_Node000009"><a xlink:href="projects_2examples_2_dm_2_transaction_2_server_8h.html" target="_top" xlink:title=" ">
<polygon fill="white" stroke="#666666" points="460,-41 311,-41 311,0 460,0 460,-41"/>
<text text-anchor="start" x="319" y="-29" font-family="Helvetica,sans-Serif" font-size="10.00">/home/runner/work/kit.core</text>
<text text-anchor="start" x="319" y="-18" font-family="Helvetica,sans-Serif" font-size="10.00">/kit.core/projects/examples</text>
<text text-anchor="middle" x="385.5" y="-7" font-family="Helvetica,sans-Serif" font-size="10.00">/Dm/Transaction/Server.h</text>
</a>
</g>
</g>
<!-- Node7&#45;&gt;Node9 -->
<g id="edge9_Node000007_Node000009" class="edge">
<title>Node7&#45;&gt;Node9</title>
<g id="a_edge9_Node000007_Node000009"><a xlink:title=" ">
<path fill="none" stroke="#63b8ff" d="M445.11,-70.41C434.41,-61.63 420.79,-50.46 409.28,-41.01"/>
<polygon fill="#63b8ff" stroke="#63b8ff" points="443.03,-73.23 452.98,-76.87 447.47,-67.82 443.03,-73.23"/>
</a>
</g>
</g>
<!-- Node10 -->
<g id="Node000010" class="node">
<title>Node10</title>
<g id="a_Node000010"><a xlink:href="_log_sink_8h.html" target="_top" xlink:title=" ">
<polygon fill="white" stroke="#666666" points="607,-35.5 478,-35.5 478,-5.5 607,-5.5 607,-35.5"/>
<text text-anchor="start" x="486" y="-23.5" font-family="Helvetica,sans-Serif" font-size="10.00">Kit/Logging/Framework</text>
<text text-anchor="middle" x="542.5" y="-12.5" font-family="Helvetica,sans-Serif" font-size="10.00">/LogSink.h</text>
</a>
</g>
</g>
<!-- Node7&#45;&gt;Node10 -->
<g id="edge10_Node000007_Node000010" class="edge">
<title>Node7&#45;&gt;Node10</title>
<g id="a_edge10_Node000007_Node000010"><a xlink:title=" ">
<path fill="none" stroke="#63b8ff" d="M482,-70.52C495.01,-59.98 512.31,-45.96 525.08,-35.62"/>
<polygon fill="#63b8ff" stroke="#63b8ff" points="479.72,-67.85 474.15,-76.87 484.13,-73.29 479.72,-67.85"/>
</a>
</g>
</g>
<!-- Node11 -->
<g id="Node000011" class="node">
<title>Node11</title>
<g id="a_Node000011"><a xlink:href="helpers_8h.html" target="_top" xlink:title="This file defines helper functions/interface for writing unit tests.">
<polygon fill="white" stroke="#666666" points="737.5,-35.5 625.5,-35.5 625.5,-5.5 737.5,-5.5 737.5,-35.5"/>
<text text-anchor="start" x="633.5" y="-23.5" font-family="Helvetica,sans-Serif" font-size="10.00">Kit/_support/testing</text>
<text text-anchor="middle" x="681.5" y="-12.5" font-family="Helvetica,sans-Serif" font-size="10.00">/helpers.h</text>
</a>
</g>
</g>
<!-- Node7&#45;&gt;Node11 -->
<g id="edge11_Node000007_Node000011" class="edge">
<title>Node7&#45;&gt;Node11</title>
<g id="a_edge11_Node000007_Node000011"><a xlink:title=" ">
<path fill="none" stroke="#63b8ff" d="M503.09,-74.08C534,-65.15 578.01,-52.37 616.5,-41 622.49,-39.23 628.78,-37.36 635,-35.5"/>
<polygon fill="#63b8ff" stroke="#63b8ff" points="501.77,-70.82 493.14,-76.96 503.72,-77.55 501.77,-70.82"/>
</a>
</g>
</g>
<!-- Node13 -->
<g id="Node000013" class="node">
<title>Node13</title>
<g id="a_Node000013"><a xlink:href="_open_sync_8h.html" target="_top" xlink:title=" ">
<polygon fill="white" stroke="#666666" points="584.5,-151 478.5,-151 478.5,-132 584.5,-132 584.5,-151"/>
<text text-anchor="middle" x="531.5" y="-139" font-family="Helvetica,sans-Serif" font-size="10.00">Kit/Itc/OpenSync.h</text>
</a>
</g>
</g>
<!-- Node12&#45;&gt;Node13 -->
<g id="edge13_Node000012_Node000013" class="edge">
<title>Node12&#45;&gt;Node13</title>
<g id="a_edge13_Node000012_Node000013"><a xlink:title=" ">
<path fill="none" stroke="#63b8ff" d="M524.35,-176.95C526.18,-168.15 528.27,-158.06 529.72,-151.09"/>
<polygon fill="#63b8ff" stroke="#63b8ff" points="520.92,-176.25 522.32,-186.75 527.78,-177.67 520.92,-176.25"/>
</a>
</g>
</g>
<!-- Node13&#45;&gt;Node7 -->
<g id="edge14_Node000013_Node000007" class="edge">
<title>Node13&#45;&gt;Node7</title>
<g id="a_edge14_Node000013_Node000007"><a xlink:title=" ">
<path fill="none" stroke="#63b8ff" d="M512.38,-125.6C500.2,-116.11 484.84,-104.13 474.62,-96.17"/>
<polygon fill="#63b8ff" stroke="#63b8ff" points="510.54,-128.6 520.57,-131.98 514.84,-123.08 510.54,-128.6"/>
</a>
</g>
</g>
</g>
</svg>
