<?xml version="1.0" encoding="UTF-8" standalone="no"?>
<!DOCTYPE svg PUBLIC "-//W3C//DTD SVG 1.1//EN"
 "http://www.w3.org/Graphics/SVG/1.1/DTD/svg11.dtd">
<!-- Generated by graphviz version 2.43.0 (0)
 -->
<!-- Title: Kit/System/BareMetal/Thread.h Pages: 1 -->
<svg width="1565pt" height="423pt"
 viewBox="0.00 0.00 1564.50 423.00" xmlns="http://www.w3.org/2000/svg" xmlns:xlink="http://www.w3.org/1999/xlink">
<g id="graph0" class="graph" transform="scale(1 1) rotate(0) translate(4 419)">
<title>Kit/System/BareMetal/Thread.h</title>
<!-- Node1 -->
<g id="Node000001" class="node">
<title>Node1</title>
<g id="a_Node000001"><a xlink:title=" ">
<polygon fill="#999999" stroke="#666666" points="1315,-415 1192,-415 1192,-385 1315,-385 1315,-415"/>
<text text-anchor="start" x="1200" y="-403" font-family="Helvetica,sans-Serif" font-size="10.00">Kit/System/BareMetal</text>
<text text-anchor="middle" x="1253.5" y="-392" font-family="Helvetica,sans-Serif" font-size="10.00">/Thread.h</text>
</a>
</g>
</g>
<!-- Node2 -->
<g id="Node000002" class="node">
<title>Node2</title>
<g id="a_Node000002"><a xlink:title=" ">
<polygon fill="#e0e0e0" stroke="#999999" points="1268,-129 1195,-129 1195,-110 1268,-110 1268,-129"/>
<text text-anchor="middle" x="1231.5" y="-117" font-family="Helvetica,sans-Serif" font-size="10.00">kit_config.h</text>
</a>
</g>
</g>
<!-- Node1&#45;&gt;Node2 -->
<g id="edge1_Node000001_Node000002" class="edge">
<title>Node1&#45;&gt;Node2</title>
<g id="a_edge1_Node000001_Node000002"><a xlink:title=" ">
<path fill="none" stroke="#63b8ff" d="M1286.02,-384.99C1321.25,-367.36 1372.5,-333.46 1372.5,-285.5 1372.5,-285.5 1372.5,-285.5 1372.5,-228.5 1372.5,-177.54 1313.75,-147.37 1272.09,-132.38"/>
<polygon fill="#63b8ff" stroke="#63b8ff" points="1273.04,-129.01 1262.44,-129.07 1270.76,-135.63 1273.04,-129.01"/>
</a>
</g>
</g>
<!-- Node3 -->
<g id="Node000003" class="node">
<title>Node3</title>
<g id="a_Node000003"><a xlink:href="_thread_8h.html" target="_top" xlink:title=" ">
<polygon fill="white" stroke="#666666" points="1192.5,-349 1076.5,-349 1076.5,-330 1192.5,-330 1192.5,-349"/>
<text text-anchor="middle" x="1134.5" y="-337" font-family="Helvetica,sans-Serif" font-size="10.00">Kit/System/Thread.h</text>
</a>
</g>
</g>
<!-- Node1&#45;&gt;Node3 -->
<g id="edge2_Node000001_Node000003" class="edge">
<title>Node1&#45;&gt;Node3</title>
<g id="a_edge2_Node000001_Node000003"><a xlink:title=" ">
<path fill="none" stroke="#63b8ff" d="M1225,-384.99C1205.59,-375.45 1180.07,-362.9 1161.08,-353.57"/>
<polygon fill="#63b8ff" stroke="#63b8ff" points="1162.59,-350.41 1152.07,-349.14 1159.5,-356.69 1162.59,-350.41"/>
</a>
</g>
</g>
<!-- Node5 -->
<g id="Node000005" class="node">
<title>Node5</title>
<g id="a_Node000005"><a xlink:href="_i_runnable_8h.html" target="_top" xlink:title=" ">
<polygon fill="white" stroke="#666666" points="131,-294 0,-294 0,-275 131,-275 131,-294"/>
<text text-anchor="middle" x="65.5" y="-282" font-family="Helvetica,sans-Serif" font-size="10.00">Kit/System/IRunnable.h</text>
</a>
</g>
</g>
<!-- Node1&#45;&gt;Node5 -->
<g id="edge51_Node000001_Node000005" class="edge">
<title>Node1&#45;&gt;Node5</title>
<g id="a_edge51_Node000001_Node000005"><a xlink:title=" ">
<path fill="none" stroke="#63b8ff" d="M1191.91,-393.41C1024.02,-378.12 544.19,-334.07 145.5,-294 144.21,-293.87 142.91,-293.74 141.6,-293.61"/>
<polygon fill="#63b8ff" stroke="#63b8ff" points="141.72,-290.1 131.41,-292.56 141.01,-297.06 141.72,-290.1"/>
</a>
</g>
</g>
<!-- Node31 -->
<g id="Node000031" class="node">
<title>Node31</title>
<g id="a_Node000031"><a xlink:href="_semaphore_8h.html" target="_top" xlink:title=" ">
<polygon fill="white" stroke="#666666" points="1538,-349 1401,-349 1401,-330 1538,-330 1538,-349"/>
<text text-anchor="middle" x="1469.5" y="-337" font-family="Helvetica,sans-Serif" font-size="10.00">Kit/System/Semaphore.h</text>
</a>
</g>
</g>
<!-- Node1&#45;&gt;Node31 -->
<g id="edge52_Node000001_Node000031" class="edge">
<title>Node1&#45;&gt;Node31</title>
<g id="a_edge52_Node000001_Node000031"><a xlink:title=" ">
<path fill="none" stroke="#63b8ff" d="M1305.24,-384.99C1342.84,-374.8 1393.06,-361.2 1428.03,-351.73"/>
<polygon fill="#63b8ff" stroke="#63b8ff" points="1429.18,-355.05 1437.92,-349.05 1427.35,-348.29 1429.18,-355.05"/>
</a>
</g>
</g>
<!-- Node3&#45;&gt;Node2 -->
<g id="edge3_Node000003_Node000002" class="edge">
<title>Node3&#45;&gt;Node2</title>
<g id="a_edge3_Node000003_Node000002"><a xlink:title=" ">
<path fill="none" stroke="#63b8ff" d="M1136.79,-329.72C1140.14,-317.32 1146.8,-294.08 1154.5,-275 1175.09,-224.01 1205.71,-166.75 1221.42,-138.4"/>
<polygon fill="#63b8ff" stroke="#63b8ff" points="1224.66,-139.77 1226.48,-129.33 1218.55,-136.35 1224.66,-139.77"/>
</a>
</g>
</g>
<!-- Node4 -->
<g id="Node000004" class="node">
<title>Node4</title>
<g id="a_Node000004"><a xlink:title=" ">
<polygon fill="#e0e0e0" stroke="#999999" points="1390,-74 1325,-74 1325,-55 1390,-55 1390,-74"/>
<text text-anchor="middle" x="1357.5" y="-62" font-family="Helvetica,sans-Serif" font-size="10.00">kit_map.h</text>
</a>
</g>
</g>
<!-- Node3&#45;&gt;Node4 -->
<g id="edge4_Node000003_Node000004" class="edge">
<title>Node3&#45;&gt;Node4</title>
<g id="a_edge4_Node000003_Node000004"><a xlink:title=" ">
<path fill="none" stroke="#63b8ff" d="M1192.85,-330.53C1238.8,-323.13 1297.92,-310.73 1315.5,-294 1336.84,-273.69 1334.5,-259.96 1334.5,-230.5 1334.5,-230.5 1334.5,-230.5 1334.5,-173.5 1334.5,-141.34 1344.38,-104.95 1351.19,-83.69"/>
<polygon fill="#63b8ff" stroke="#63b8ff" points="1354.56,-84.64 1354.4,-74.05 1347.92,-82.43 1354.56,-84.64"/>
</a>
</g>
</g>
<!-- Node3&#45;&gt;Node5 -->
<g id="edge5_Node000003_Node000005" class="edge">
<title>Node3&#45;&gt;Node5</title>
<g id="a_edge5_Node000003_Node000005"><a xlink:title=" ">
<path fill="none" stroke="#63b8ff" d="M1076.46,-337.12C923.81,-333.23 498.56,-320.67 145.5,-294 144.21,-293.9 142.9,-293.8 141.59,-293.7"/>
<polygon fill="#63b8ff" stroke="#63b8ff" points="141.65,-290.19 131.39,-292.82 141.06,-297.16 141.65,-290.19"/>
</a>
</g>
</g>
<!-- Node6 -->
<g id="Node000006" class="node">
<title>Node6</title>
<g id="a_Node000006"><a xlink:href="_i_signable_8h.html" target="_top" xlink:title=" ">
<polygon fill="white" stroke="#666666" points="1528,-294 1401,-294 1401,-275 1528,-275 1528,-294"/>
<text text-anchor="middle" x="1464.5" y="-282" font-family="Helvetica,sans-Serif" font-size="10.00">Kit/System/ISignable.h</text>
</a>
</g>
</g>
<!-- Node3&#45;&gt;Node6 -->
<g id="edge6_Node000003_Node000006" class="edge">
<title>Node3&#45;&gt;Node6</title>
<g id="a_edge6_Node000003_Node000006"><a xlink:title=" ">
<path fill="none" stroke="#63b8ff" d="M1187.52,-329.98C1245.77,-320.63 1339.27,-305.61 1401.28,-295.65"/>
<polygon fill="#63b8ff" stroke="#63b8ff" points="1402.02,-299.08 1411.34,-294.04 1400.91,-292.17 1402.02,-299.08"/>
</a>
</g>
</g>
<!-- Node7 -->
<g id="Node000007" class="node">
<title>Node7</title>
<g id="a_Node000007"><a xlink:href="_tls_8h.html" target="_top" xlink:title=" ">
<polygon fill="white" stroke="#666666" points="1144.5,-184 1048.5,-184 1048.5,-165 1144.5,-165 1144.5,-184"/>
<text text-anchor="middle" x="1096.5" y="-172" font-family="Helvetica,sans-Serif" font-size="10.00">Kit/System/Tls.h</text>
</a>
</g>
</g>
<!-- Node3&#45;&gt;Node7 -->
<g id="edge7_Node000003_Node000007" class="edge">
<title>Node3&#45;&gt;Node7</title>
<g id="a_edge7_Node000003_Node000007"><a xlink:title=" ">
<path fill="none" stroke="#63b8ff" d="M1131.44,-329.71C1128.4,-320.79 1123.74,-306.55 1120.5,-294 1111.49,-259.06 1103.76,-217.62 1099.65,-194.16"/>
<polygon fill="#63b8ff" stroke="#63b8ff" points="1103.08,-193.46 1097.94,-184.19 1096.19,-194.64 1103.08,-193.46"/>
</a>
</g>
</g>
<!-- Node9 -->
<g id="Node000009" class="node">
<title>Node9</title>
<g id="a_Node000009"><a xlink:href="_traverser_status_8h.html" target="_top" xlink:title=" ">
<polygon fill="white" stroke="#666666" points="1306,-294 1163,-294 1163,-275 1306,-275 1306,-294"/>
<text text-anchor="middle" x="1234.5" y="-282" font-family="Helvetica,sans-Serif" font-size="10.00">Kit/Type/TraverserStatus.h</text>
</a>
</g>
</g>
<!-- Node3&#45;&gt;Node9 -->
<g id="edge10_Node000003_Node000009" class="edge">
<title>Node3&#45;&gt;Node9</title>
<g id="a_edge10_Node000003_Node000009"><a xlink:title=" ">
<path fill="none" stroke="#63b8ff" d="M1150.57,-329.98C1166.36,-321.61 1190.72,-308.7 1209.13,-298.95"/>
<polygon fill="#63b8ff" stroke="#63b8ff" points="1210.94,-301.95 1218.14,-294.17 1207.67,-295.76 1210.94,-301.95"/>
</a>
</g>
</g>
<!-- Node10 -->
<g id="Node000010" class="node">
<title>Node10</title>
<g id="a_Node000010"><a xlink:href="_list_item_8h.html" target="_top" xlink:title=" ">
<polygon fill="white" stroke="#666666" points="349.5,-74 217.5,-74 217.5,-55 349.5,-55 349.5,-74"/>
<text text-anchor="middle" x="283.5" y="-62" font-family="Helvetica,sans-Serif" font-size="10.00">Kit/Container/ListItem.h</text>
</a>
</g>
</g>
<!-- Node3&#45;&gt;Node10 -->
<g id="edge11_Node000003_Node000010" class="edge">
<title>Node3&#45;&gt;Node10</title>
<g id="a_edge11_Node000003_Node000010"><a xlink:title=" ">
<path fill="none" stroke="#63b8ff" d="M1076.43,-338.2C866.53,-336.37 159.5,-323.32 159.5,-230.5 159.5,-230.5 159.5,-230.5 159.5,-173.5 159.5,-144.04 158.85,-131.95 178.5,-110 192.62,-94.23 213.27,-83.87 232.52,-77.15"/>
<polygon fill="#63b8ff" stroke="#63b8ff" points="233.68,-80.45 242.12,-74.05 231.53,-73.79 233.68,-80.45"/>
</a>
</g>
</g>
<!-- Node12 -->
<g id="Node000012" class="node">
<title>Node12</title>
<g id="a_Node000012"><a xlink:href="_string_8h.html" target="_top" xlink:title=" ">
<polygon fill="white" stroke="#666666" points="739,-294 686,-294 686,-275 739,-275 739,-294"/>
<text text-anchor="middle" x="712.5" y="-282" font-family="Helvetica,sans-Serif" font-size="10.00">string.h</text>
</a>
</g>
</g>
<!-- Node3&#45;&gt;Node12 -->
<g id="edge13_Node000003_Node000012" class="edge">
<title>Node3&#45;&gt;Node12</title>
<g id="a_edge13_Node000003_Node000012"><a xlink:title=" ">
<path fill="none" stroke="#63b8ff" d="M1076.27,-331.19C987.91,-320.09 822.52,-299.32 749.16,-290.1"/>
<polygon fill="#63b8ff" stroke="#63b8ff" points="749.38,-286.6 739.02,-288.83 748.51,-293.55 749.38,-286.6"/>
</a>
</g>
</g>
<!-- Node7&#45;&gt;Node2 -->
<g id="edge8_Node000007_Node000002" class="edge">
<title>Node7&#45;&gt;Node2</title>
<g id="a_edge8_Node000007_Node000002"><a xlink:title=" ">
<path fill="none" stroke="#63b8ff" d="M1118.19,-164.98C1140.3,-156.3 1174.82,-142.75 1199.95,-132.88"/>
<polygon fill="#63b8ff" stroke="#63b8ff" points="1201.39,-136.08 1209.42,-129.17 1198.83,-129.57 1201.39,-136.08"/>
</a>
</g>
</g>
<!-- Node8 -->
<g id="Node000008" class="node">
<title>Node8</title>
<g id="a_Node000008"><a xlink:title=" ">
<polygon fill="#e0e0e0" stroke="#999999" points="545,-19 492,-19 492,0 545,0 545,-19"/>
<text text-anchor="middle" x="518.5" y="-7" font-family="Helvetica,sans-Serif" font-size="10.00">stdint.h</text>
</a>
</g>
</g>
<!-- Node7&#45;&gt;Node8 -->
<g id="edge9_Node000007_Node000008" class="edge">
<title>Node7&#45;&gt;Node8</title>
<g id="a_edge9_Node000007_Node000008"><a xlink:title=" ">
<path fill="none" stroke="#63b8ff" d="M1087.28,-164.89C1078.45,-156.33 1065.07,-142.56 1055.5,-129 1034.06,-98.63 1047.47,-75.56 1016.5,-55 939.38,-3.8 693.66,-27.72 601.5,-19 586.3,-17.56 569.54,-15.87 555.09,-14.37"/>
<polygon fill="#63b8ff" stroke="#63b8ff" points="555.34,-10.88 545.03,-13.32 554.61,-17.84 555.34,-10.88"/>
</a>
</g>
</g>
<!-- Node11 -->
<g id="Node000011" class="node">
<title>Node11</title>
<g id="a_Node000011"><a xlink:href="_item_8h.html" target="_top" xlink:title=" ">
<polygon fill="white" stroke="#666666" points="341,-19 226,-19 226,0 341,0 341,-19"/>
<text text-anchor="middle" x="283.5" y="-7" font-family="Helvetica,sans-Serif" font-size="10.00">Kit/Container/Item.h</text>
</a>
</g>
</g>
<!-- Node10&#45;&gt;Node11 -->
<g id="edge12_Node000010_Node000011" class="edge">
<title>Node10&#45;&gt;Node11</title>
<g id="a_edge12_Node000010_Node000011"><a xlink:title=" ">
<path fill="none" stroke="#63b8ff" d="M283.5,-54.75C283.5,-47.8 283.5,-37.85 283.5,-29.13"/>
<polygon fill="#63b8ff" stroke="#63b8ff" points="287,-29.09 283.5,-19.09 280,-29.09 287,-29.09"/>
</a>
</g>
</g>
<!-- Node13 -->
<g id="Node000013" class="node">
<title>Node13</title>
<g id="a_Node000013"><a xlink:href="_model_point_base_8h.html" target="_top" xlink:title=" ">
<polygon fill="white" stroke="#666666" points="783,-239 642,-239 642,-220 783,-220 783,-239"/>
<text text-anchor="middle" x="712.5" y="-227" font-family="Helvetica,sans-Serif" font-size="10.00">Kit/Dm/ModelPointBase.h</text>
</a>
</g>
</g>
<!-- Node12&#45;&gt;Node13 -->
<g id="edge14_Node000012_Node000013" class="edge">
<title>Node12&#45;&gt;Node13</title>
<g id="a_edge14_Node000012_Node000013"><a xlink:title=" ">
<path fill="none" stroke="#63b8ff" d="M712.5,-274.75C712.5,-267.8 712.5,-257.85 712.5,-249.13"/>
<polygon fill="#63b8ff" stroke="#63b8ff" points="716,-249.09 712.5,-239.09 709,-249.09 716,-249.09"/>
</a>
</g>
</g>
<!-- Node30 -->
<g id="Node000030" class="node">
<title>Node30</title>
<g id="a_Node000030"><a xlink:href="_observer_8h.html" target="_top" xlink:title=" ">
<polygon fill="white" stroke="#666666" points="515.5,-239 409.5,-239 409.5,-220 515.5,-220 515.5,-239"/>
<text text-anchor="middle" x="462.5" y="-227" font-family="Helvetica,sans-Serif" font-size="10.00">Kit/Dm/Observer.h</text>
</a>
</g>
</g>
<!-- Node12&#45;&gt;Node30 -->
<g id="edge47_Node000012_Node000030" class="edge">
<title>Node12&#45;&gt;Node30</title>
<g id="a_edge47_Node000012_Node000030"><a xlink:title=" ">
<path fill="none" stroke="#63b8ff" d="M685.75,-277.83C644.53,-269.09 564.83,-252.19 512.65,-241.13"/>
<polygon fill="#63b8ff" stroke="#63b8ff" points="513.11,-237.65 502.61,-239 511.66,-244.5 513.11,-237.65"/>
</a>
</g>
</g>
<!-- Node13&#45;&gt;Node8 -->
<g id="edge45_Node000013_Node000008" class="edge">
<title>Node13&#45;&gt;Node8</title>
<g id="a_edge45_Node000013_Node000008"><a xlink:title=" ">
<path fill="none" stroke="#63b8ff" d="M718.97,-219.98C734.12,-198.9 768.66,-143.6 741.5,-110 693.49,-50.62 639.23,-112.87 573.5,-74 554.35,-62.67 538.49,-42.29 528.8,-27.67"/>
<polygon fill="#63b8ff" stroke="#63b8ff" points="531.65,-25.63 523.35,-19.05 525.73,-29.37 531.65,-25.63"/>
</a>
</g>
</g>
<!-- Node14 -->
<g id="Node000014" class="node">
<title>Node14</title>
<g id="a_Node000014"><a xlink:href="_i_model_point_8h.html" target="_top" xlink:title=" ">
<polygon fill="white" stroke="#666666" points="723.5,-184 603.5,-184 603.5,-165 723.5,-165 723.5,-184"/>
<text text-anchor="middle" x="663.5" y="-172" font-family="Helvetica,sans-Serif" font-size="10.00">Kit/Dm/IModelPoint.h</text>
</a>
</g>
</g>
<!-- Node13&#45;&gt;Node14 -->
<g id="edge15_Node000013_Node000014" class="edge">
<title>Node13&#45;&gt;Node14</title>
<g id="a_edge15_Node000013_Node000014"><a xlink:title=" ">
<path fill="none" stroke="#63b8ff" d="M704.41,-219.75C697.34,-212.11 686.91,-200.82 678.35,-191.56"/>
<polygon fill="#63b8ff" stroke="#63b8ff" points="680.8,-189.06 671.44,-184.09 675.66,-193.81 680.8,-189.06"/>
</a>
</g>
</g>
<!-- Node17 -->
<g id="Node000017" class="node">
<title>Node17</title>
<g id="a_Node000017"><a xlink:title=" ">
<polygon fill="#e0e0e0" stroke="#999999" points="1147,-19 1094,-19 1094,0 1147,0 1147,-19"/>
<text text-anchor="middle" x="1120.5" y="-7" font-family="Helvetica,sans-Serif" font-size="10.00">stdlib.h</text>
</a>
</g>
</g>
<!-- Node13&#45;&gt;Node17 -->
<g id="edge46_Node000013_Node000017" class="edge">
<title>Node13&#45;&gt;Node17</title>
<g id="a_edge46_Node000013_Node000017"><a xlink:title=" ">
<path fill="none" stroke="#63b8ff" d="M783.09,-228.13C922.52,-225.62 1224.38,-210.67 1277.5,-129 1312.19,-75.66 1213.23,-37.2 1156.78,-20.21"/>
<polygon fill="#63b8ff" stroke="#63b8ff" points="1157.69,-16.83 1147.11,-17.38 1155.73,-23.54 1157.69,-16.83"/>
</a>
</g>
</g>
<!-- Node23 -->
<g id="Node000023" class="node">
<title>Node23</title>
<g id="a_Node000023"><a xlink:href="_i_observer_8h.html" target="_top" xlink:title=" ">
<polygon fill="white" stroke="#666666" points="456,-129 347,-129 347,-110 456,-110 456,-129"/>
<text text-anchor="middle" x="401.5" y="-117" font-family="Helvetica,sans-Serif" font-size="10.00">Kit/Dm/IObserver.h</text>
</a>
</g>
</g>
<!-- Node13&#45;&gt;Node23 -->
<g id="edge41_Node000013_Node000023" class="edge">
<title>Node13&#45;&gt;Node23</title>
<g id="a_edge41_Node000013_Node000023"><a xlink:title=" ">
<path fill="none" stroke="#63b8ff" d="M687.34,-219.86C663.24,-211.39 626,-197.77 594.5,-184 577.2,-176.44 574.09,-171.86 556.5,-165 520.96,-151.15 479.34,-139.44 448.18,-131.51"/>
<polygon fill="#63b8ff" stroke="#63b8ff" points="449.01,-128.11 438.46,-129.07 447.31,-134.9 449.01,-128.11"/>
</a>
</g>
</g>
<!-- Node26 -->
<g id="Node000026" class="node">
<title>Node26</title>
<g id="a_Node000026"><a xlink:href="_i_model_database_8h.html" target="_top" xlink:title=" ">
<polygon fill="white" stroke="#666666" points="1026.5,-184 884.5,-184 884.5,-165 1026.5,-165 1026.5,-184"/>
<text text-anchor="middle" x="955.5" y="-172" font-family="Helvetica,sans-Serif" font-size="10.00">Kit/Dm/IModelDatabase.h</text>
</a>
</g>
</g>
<!-- Node13&#45;&gt;Node26 -->
<g id="edge34_Node000013_Node000026" class="edge">
<title>Node13&#45;&gt;Node26</title>
<g id="a_edge34_Node000013_Node000026"><a xlink:title=" ">
<path fill="none" stroke="#63b8ff" d="M751.54,-219.98C793.58,-210.82 860.54,-196.21 906.18,-186.26"/>
<polygon fill="#63b8ff" stroke="#63b8ff" points="907.13,-189.63 916.15,-184.08 905.64,-182.79 907.13,-189.63"/>
</a>
</g>
</g>
<!-- Node28 -->
<g id="Node000028" class="node">
<title>Node28</title>
<g id="a_Node000028"><a xlink:href="_d_list_8h.html" target="_top" xlink:title=" ">
<polygon fill="white" stroke="#666666" points="547,-184 430,-184 430,-165 547,-165 547,-184"/>
<text text-anchor="middle" x="488.5" y="-172" font-family="Helvetica,sans-Serif" font-size="10.00">Kit/Container/DList.h</text>
</a>
</g>
</g>
<!-- Node13&#45;&gt;Node28 -->
<g id="edge42_Node000013_Node000028" class="edge">
<title>Node13&#45;&gt;Node28</title>
<g id="a_edge42_Node000013_Node000028"><a xlink:title=" ">
<path fill="none" stroke="#63b8ff" d="M676.51,-219.98C638.01,-210.87 576.81,-196.4 534.76,-186.45"/>
<polygon fill="#63b8ff" stroke="#63b8ff" points="535.31,-182.98 524.77,-184.08 533.7,-189.79 535.31,-182.98"/>
</a>
</g>
</g>
<!-- Node14&#45;&gt;Node2 -->
<g id="edge16_Node000014_Node000002" class="edge">
<title>Node14&#45;&gt;Node2</title>
<g id="a_edge16_Node000014_Node000002"><a xlink:title=" ">
<path fill="none" stroke="#63b8ff" d="M723.72,-170.37C819.4,-164.97 1012.17,-152.29 1184.69,-129.13"/>
<polygon fill="#63b8ff" stroke="#63b8ff" points="1185.27,-132.58 1194.71,-127.76 1184.33,-125.64 1185.27,-132.58"/>
</a>
</g>
</g>
<!-- Node14&#45;&gt;Node8 -->
<g id="edge33_Node000014_Node000008" class="edge">
<title>Node14&#45;&gt;Node8</title>
<g id="a_edge33_Node000014_Node000008"><a xlink:title=" ">
<path fill="none" stroke="#63b8ff" d="M606.06,-164.97C565.46,-157.63 516.1,-145.59 503.5,-129 481.01,-99.4 497.38,-53.13 509.21,-28.07"/>
<polygon fill="#63b8ff" stroke="#63b8ff" points="512.39,-29.52 513.73,-19.01 506.13,-26.4 512.39,-29.52"/>
</a>
</g>
</g>
<!-- Node15 -->
<g id="Node000015" class="node">
<title>Node15</title>
<g id="a_Node000015"><a xlink:href="_keyed_item_8h.html" target="_top" xlink:title=" ">
<polygon fill="white" stroke="#666666" points="732,-129 587,-129 587,-110 732,-110 732,-129"/>
<text text-anchor="middle" x="659.5" y="-117" font-family="Helvetica,sans-Serif" font-size="10.00">Kit/Container/KeyedItem.h</text>
</a>
</g>
</g>
<!-- Node14&#45;&gt;Node15 -->
<g id="edge17_Node000014_Node000015" class="edge">
<title>Node14&#45;&gt;Node15</title>
<g id="a_edge17_Node000014_Node000015"><a xlink:title=" ">
<path fill="none" stroke="#63b8ff" d="M662.84,-164.75C662.32,-157.8 661.56,-147.85 660.91,-139.13"/>
<polygon fill="#63b8ff" stroke="#63b8ff" points="664.39,-138.8 660.15,-129.09 657.41,-139.32 664.39,-138.8"/>
</a>
</g>
</g>
<!-- Node19 -->
<g id="Node000019" class="node">
<title>Node19</title>
<g id="a_Node000019"><a xlink:href="_i_string_8h.html" target="_top" xlink:title=" ">
<polygon fill="white" stroke="#666666" points="886,-129 789,-129 789,-110 886,-110 886,-129"/>
<text text-anchor="middle" x="837.5" y="-117" font-family="Helvetica,sans-Serif" font-size="10.00">Kit/Text/IString.h</text>
</a>
</g>
</g>
<!-- Node14&#45;&gt;Node19 -->
<g id="edge23_Node000014_Node000019" class="edge">
<title>Node14&#45;&gt;Node19</title>
<g id="a_edge23_Node000014_Node000019"><a xlink:title=" ">
<path fill="none" stroke="#63b8ff" d="M691.46,-164.98C720.8,-156.05 767.1,-141.94 799.69,-132.02"/>
<polygon fill="#63b8ff" stroke="#63b8ff" points="800.78,-135.34 809.32,-129.08 798.74,-128.65 800.78,-135.34"/>
</a>
</g>
</g>
<!-- Node14&#45;&gt;Node23 -->
<g id="edge28_Node000014_Node000023" class="edge">
<title>Node14&#45;&gt;Node23</title>
<g id="a_edge28_Node000014_Node000023"><a xlink:title=" ">
<path fill="none" stroke="#63b8ff" d="M621.41,-164.98C575.8,-155.76 502.98,-141.03 453.75,-131.07"/>
<polygon fill="#63b8ff" stroke="#63b8ff" points="454.42,-127.63 443.92,-129.08 453.03,-134.5 454.42,-127.63"/>
</a>
</g>
</g>
<!-- Node24 -->
<g id="Node000024" class="node">
<title>Node24</title>
<g id="a_Node000024"><a xlink:href="_arduino_8h_source.html" target="_top" xlink:title=" ">
<polygon fill="white" stroke="#666666" points="1007,-129 904,-129 904,-110 1007,-110 1007,-129"/>
<text text-anchor="middle" x="955.5" y="-117" font-family="Helvetica,sans-Serif" font-size="10.00">Kit/Json/Arduino.h</text>
</a>
</g>
</g>
<!-- Node14&#45;&gt;Node24 -->
<g id="edge31_Node000014_Node000024" class="edge">
<title>Node14&#45;&gt;Node24</title>
<g id="a_edge31_Node000014_Node000024"><a xlink:title=" ">
<path fill="none" stroke="#63b8ff" d="M710.41,-164.98C761.56,-155.7 843.42,-140.84 898.3,-130.88"/>
<polygon fill="#63b8ff" stroke="#63b8ff" points="899,-134.31 908.22,-129.08 897.75,-127.42 899,-134.31"/>
</a>
</g>
</g>
<!-- Node25 -->
<g id="Node000025" class="node">
<title>Node25</title>
<g id="a_Node000025"><a xlink:title=" ">
<polygon fill="#e0e0e0" stroke="#999999" points="568.5,-129 512.5,-129 512.5,-110 568.5,-110 568.5,-129"/>
<text text-anchor="middle" x="540.5" y="-117" font-family="Helvetica,sans-Serif" font-size="10.00">stddef.h</text>
</a>
</g>
</g>
<!-- Node14&#45;&gt;Node25 -->
<g id="edge32_Node000014_Node000025" class="edge">
<title>Node14&#45;&gt;Node25</title>
<g id="a_edge32_Node000014_Node000025"><a xlink:title=" ">
<path fill="none" stroke="#63b8ff" d="M643.74,-164.98C623.77,-156.38 592.7,-142.99 569.85,-133.15"/>
<polygon fill="#63b8ff" stroke="#63b8ff" points="571.19,-129.91 560.62,-129.17 568.42,-136.34 571.19,-129.91"/>
</a>
</g>
</g>
<!-- Node15&#45;&gt;Node10 -->
<g id="edge18_Node000015_Node000010" class="edge">
<title>Node15&#45;&gt;Node10</title>
<g id="a_edge18_Node000015_Node000010"><a xlink:title=" ">
<path fill="none" stroke="#63b8ff" d="M599.09,-109.98C532.31,-100.57 424.87,-85.43 354.22,-75.47"/>
<polygon fill="#63b8ff" stroke="#63b8ff" points="354.46,-71.97 344.07,-74.04 353.49,-78.9 354.46,-71.97"/>
</a>
</g>
</g>
<!-- Node16 -->
<g id="Node000016" class="node">
<title>Node16</title>
<g id="a_Node000016"><a xlink:href="_key_8h.html" target="_top" xlink:title=" ">
<polygon fill="white" stroke="#666666" points="691,-74 582,-74 582,-55 691,-55 691,-74"/>
<text text-anchor="middle" x="636.5" y="-62" font-family="Helvetica,sans-Serif" font-size="10.00">Kit/Container/Key.h</text>
</a>
</g>
</g>
<!-- Node15&#45;&gt;Node16 -->
<g id="edge19_Node000015_Node000016" class="edge">
<title>Node15&#45;&gt;Node16</title>
<g id="a_edge19_Node000015_Node000016"><a xlink:title=" ">
<path fill="none" stroke="#63b8ff" d="M655.7,-109.75C652.59,-102.57 648.08,-92.18 644.21,-83.27"/>
<polygon fill="#63b8ff" stroke="#63b8ff" points="647.42,-81.87 640.23,-74.09 641,-84.66 647.42,-81.87"/>
</a>
</g>
</g>
<!-- Node16&#45;&gt;Node8 -->
<g id="edge20_Node000016_Node000008" class="edge">
<title>Node16&#45;&gt;Node8</title>
<g id="a_edge20_Node000016_Node000008"><a xlink:title=" ">
<path fill="none" stroke="#63b8ff" d="M617.54,-54.98C598.47,-46.42 568.84,-33.11 546.95,-23.28"/>
<polygon fill="#63b8ff" stroke="#63b8ff" points="548.36,-20.07 537.8,-19.17 545.49,-26.46 548.36,-20.07"/>
</a>
</g>
</g>
<!-- Node16&#45;&gt;Node17 -->
<g id="edge21_Node000016_Node000017" class="edge">
<title>Node16&#45;&gt;Node17</title>
<g id="a_edge21_Node000016_Node000017"><a xlink:title=" ">
<path fill="none" stroke="#63b8ff" d="M691.3,-56.12C694.41,-55.74 697.49,-55.36 700.5,-55 842.07,-38.1 1010.87,-21.2 1083.88,-14.05"/>
<polygon fill="#63b8ff" stroke="#63b8ff" points="1084.33,-17.52 1093.94,-13.07 1083.64,-10.56 1084.33,-17.52"/>
</a>
</g>
</g>
<!-- Node18 -->
<g id="Node000018" class="node">
<title>Node18</title>
<g id="a_Node000018"><a xlink:title=" ">
<polygon fill="#e0e0e0" stroke="#999999" points="663,-19 610,-19 610,0 663,0 663,-19"/>
<text text-anchor="middle" x="636.5" y="-7" font-family="Helvetica,sans-Serif" font-size="10.00">limits.h</text>
</a>
</g>
</g>
<!-- Node16&#45;&gt;Node18 -->
<g id="edge22_Node000016_Node000018" class="edge">
<title>Node16&#45;&gt;Node18</title>
<g id="a_edge22_Node000016_Node000018"><a xlink:title=" ">
<path fill="none" stroke="#63b8ff" d="M636.5,-54.75C636.5,-47.8 636.5,-37.85 636.5,-29.13"/>
<polygon fill="#63b8ff" stroke="#63b8ff" points="640,-29.09 636.5,-19.09 633,-29.09 640,-29.09"/>
</a>
</g>
</g>
<!-- Node19&#45;&gt;Node16 -->
<g id="edge24_Node000019_Node000016" class="edge">
<title>Node19&#45;&gt;Node16</title>
<g id="a_edge24_Node000019_Node000016"><a xlink:title=" ">
<path fill="none" stroke="#63b8ff" d="M805.21,-109.98C770.88,-100.93 716.44,-86.58 678.73,-76.64"/>
<polygon fill="#63b8ff" stroke="#63b8ff" points="679.61,-73.25 669.05,-74.08 677.82,-80.02 679.61,-73.25"/>
</a>
</g>
</g>
<!-- Node20 -->
<g id="Node000020" class="node">
<title>Node20</title>
<g id="a_Node000020"><a xlink:href="printfchecker_8h.html" target="_top" xlink:title="This file contains macro that enables the GCC (and Clang) compiler to validate printf flags with thei...">
<polygon fill="white" stroke="#666666" points="933,-74 788,-74 788,-55 933,-55 933,-74"/>
<text text-anchor="middle" x="860.5" y="-62" font-family="Helvetica,sans-Serif" font-size="10.00">Kit/System/printfchecker.h</text>
</a>
</g>
</g>
<!-- Node19&#45;&gt;Node20 -->
<g id="edge25_Node000019_Node000020" class="edge">
<title>Node19&#45;&gt;Node20</title>
<g id="a_edge25_Node000019_Node000020"><a xlink:title=" ">
<path fill="none" stroke="#63b8ff" d="M841.3,-109.75C844.41,-102.57 848.92,-92.18 852.79,-83.27"/>
<polygon fill="#63b8ff" stroke="#63b8ff" points="856,-84.66 856.77,-74.09 849.58,-81.87 856,-84.66"/>
</a>
</g>
</g>
<!-- Node21 -->
<g id="Node000021" class="node">
<title>Node21</title>
<g id="a_Node000021"><a xlink:title=" ">
<polygon fill="#e0e0e0" stroke="#999999" points="1007.5,-74 951.5,-74 951.5,-55 1007.5,-55 1007.5,-74"/>
<text text-anchor="middle" x="979.5" y="-62" font-family="Helvetica,sans-Serif" font-size="10.00">stdarg.h</text>
</a>
</g>
</g>
<!-- Node19&#45;&gt;Node21 -->
<g id="edge26_Node000019_Node000021" class="edge">
<title>Node19&#45;&gt;Node21</title>
<g id="a_edge26_Node000019_Node000021"><a xlink:title=" ">
<path fill="none" stroke="#63b8ff" d="M860.31,-109.98C883.67,-101.27 920.2,-87.63 946.67,-77.75"/>
<polygon fill="#63b8ff" stroke="#63b8ff" points="948.13,-80.95 956.27,-74.17 945.68,-74.39 948.13,-80.95"/>
</a>
</g>
</g>
<!-- Node22 -->
<g id="Node000022" class="node">
<title>Node22</title>
<g id="a_Node000022"><a xlink:title=" ">
<polygon fill="#e0e0e0" stroke="#999999" points="769.5,-74 709.5,-74 709.5,-55 769.5,-55 769.5,-74"/>
<text text-anchor="middle" x="739.5" y="-62" font-family="Helvetica,sans-Serif" font-size="10.00">iostream</text>
</a>
</g>
</g>
<!-- Node19&#45;&gt;Node22 -->
<g id="edge27_Node000019_Node000022" class="edge">
<title>Node19&#45;&gt;Node22</title>
<g id="a_edge27_Node000019_Node000022"><a xlink:title=" ">
<path fill="none" stroke="#63b8ff" d="M821.75,-109.98C806.27,-101.61 782.41,-88.7 764.36,-78.95"/>
<polygon fill="#63b8ff" stroke="#63b8ff" points="765.99,-75.85 755.53,-74.17 762.66,-82.01 765.99,-75.85"/>
</a>
</g>
</g>
<!-- Node23&#45;&gt;Node8 -->
<g id="edge30_Node000023_Node000008" class="edge">
<title>Node23&#45;&gt;Node8</title>
<g id="a_edge30_Node000023_Node000008"><a xlink:title=" ">
<path fill="none" stroke="#63b8ff" d="M411.07,-109.66C430.88,-91.38 476.6,-49.18 501.53,-26.17"/>
<polygon fill="#63b8ff" stroke="#63b8ff" points="504.15,-28.51 509.12,-19.16 499.4,-23.37 504.15,-28.51"/>
</a>
</g>
</g>
<!-- Node23&#45;&gt;Node10 -->
<g id="edge29_Node000023_Node000010" class="edge">
<title>Node23&#45;&gt;Node10</title>
<g id="a_edge29_Node000023_Node000010"><a xlink:title=" ">
<path fill="none" stroke="#63b8ff" d="M382.54,-109.98C363.47,-101.42 333.84,-88.11 311.95,-78.28"/>
<polygon fill="#63b8ff" stroke="#63b8ff" points="313.36,-75.07 302.8,-74.17 310.49,-81.46 313.36,-75.07"/>
</a>
</g>
</g>
<!-- Node26&#45;&gt;Node2 -->
<g id="edge35_Node000026_Node000002" class="edge">
<title>Node26&#45;&gt;Node2</title>
<g id="a_edge35_Node000026_Node000002"><a xlink:title=" ">
<path fill="none" stroke="#63b8ff" d="M999.84,-164.98C1050.56,-155.25 1133.22,-139.37 1184.87,-129.45"/>
<polygon fill="#63b8ff" stroke="#63b8ff" points="1185.61,-132.88 1194.77,-127.55 1184.29,-126 1185.61,-132.88"/>
</a>
</g>
</g>
<!-- Node26&#45;&gt;Node19 -->
<g id="edge36_Node000026_Node000019" class="edge">
<title>Node26&#45;&gt;Node19</title>
<g id="a_edge36_Node000026_Node000019"><a xlink:title=" ">
<path fill="none" stroke="#63b8ff" d="M936.54,-164.98C917.47,-156.42 887.84,-143.11 865.95,-133.28"/>
<polygon fill="#63b8ff" stroke="#63b8ff" points="867.36,-130.07 856.8,-129.17 864.49,-136.46 867.36,-130.07"/>
</a>
</g>
</g>
<!-- Node26&#45;&gt;Node24 -->
<g id="edge40_Node000026_Node000024" class="edge">
<title>Node26&#45;&gt;Node24</title>
<g id="a_edge40_Node000026_Node000024"><a xlink:title=" ">
<path fill="none" stroke="#63b8ff" d="M955.5,-164.75C955.5,-157.8 955.5,-147.85 955.5,-139.13"/>
<polygon fill="#63b8ff" stroke="#63b8ff" points="959,-139.09 955.5,-129.09 952,-139.09 959,-139.09"/>
</a>
</g>
</g>
<!-- Node27 -->
<g id="Node000027" class="node">
<title>Node27</title>
<g id="a_Node000027"><a xlink:href="_mutex_8h.html" target="_top" xlink:title=" ">
<polygon fill="white" stroke="#666666" points="1177,-129 1064,-129 1064,-110 1177,-110 1177,-129"/>
<text text-anchor="middle" x="1120.5" y="-117" font-family="Helvetica,sans-Serif" font-size="10.00">Kit/System/Mutex.h</text>
</a>
</g>
</g>
<!-- Node26&#45;&gt;Node27 -->
<g id="edge37_Node000026_Node000027" class="edge">
<title>Node26&#45;&gt;Node27</title>
<g id="a_edge37_Node000026_Node000027"><a xlink:title=" ">
<path fill="none" stroke="#63b8ff" d="M982.01,-164.98C1009.71,-156.09 1053.36,-142.07 1084.24,-132.15"/>
<polygon fill="#63b8ff" stroke="#63b8ff" points="1085.33,-135.47 1093.78,-129.08 1083.19,-128.81 1085.33,-135.47"/>
</a>
</g>
</g>
<!-- Node27&#45;&gt;Node4 -->
<g id="edge39_Node000027_Node000004" class="edge">
<title>Node27&#45;&gt;Node4</title>
<g id="a_edge39_Node000027_Node000004"><a xlink:title=" ">
<path fill="none" stroke="#63b8ff" d="M1158.58,-109.98C1201.31,-100.43 1270.45,-84.97 1314.94,-75.02"/>
<polygon fill="#63b8ff" stroke="#63b8ff" points="1315.86,-78.4 1324.86,-72.8 1314.33,-71.57 1315.86,-78.4"/>
</a>
</g>
</g>
<!-- Node27&#45;&gt;Node17 -->
<g id="edge38_Node000027_Node000017" class="edge">
<title>Node27&#45;&gt;Node17</title>
<g id="a_edge38_Node000027_Node000017"><a xlink:title=" ">
<path fill="none" stroke="#63b8ff" d="M1120.5,-109.66C1120.5,-92.17 1120.5,-52.8 1120.5,-29.27"/>
<polygon fill="#63b8ff" stroke="#63b8ff" points="1124,-29.16 1120.5,-19.16 1117,-29.16 1124,-29.16"/>
</a>
</g>
</g>
<!-- Node29 -->
<g id="Node000029" class="node">
<title>Node29</title>
<g id="a_Node000029"><a xlink:href="_d_list_base_8h.html" target="_top" xlink:title=" ">
<polygon fill="white" stroke="#666666" points="329,-129 188,-129 188,-110 329,-110 329,-129"/>
<text text-anchor="middle" x="258.5" y="-117" font-family="Helvetica,sans-Serif" font-size="10.00">Kit/Container/DListBase.h</text>
</a>
</g>
</g>
<!-- Node28&#45;&gt;Node29 -->
<g id="edge43_Node000028_Node000029" class="edge">
<title>Node28&#45;&gt;Node29</title>
<g id="a_edge43_Node000028_Node000029"><a xlink:title=" ">
<path fill="none" stroke="#63b8ff" d="M451.55,-164.98C411.93,-155.86 348.91,-141.33 305.73,-131.38"/>
<polygon fill="#63b8ff" stroke="#63b8ff" points="306.27,-127.92 295.74,-129.08 304.7,-134.74 306.27,-127.92"/>
</a>
</g>
</g>
<!-- Node29&#45;&gt;Node10 -->
<g id="edge44_Node000029_Node000010" class="edge">
<title>Node29&#45;&gt;Node10</title>
<g id="a_edge44_Node000029_Node000010"><a xlink:title=" ">
<path fill="none" stroke="#63b8ff" d="M262.63,-109.75C266.01,-102.57 270.92,-92.18 275.12,-83.27"/>
<polygon fill="#63b8ff" stroke="#63b8ff" points="278.35,-84.63 279.45,-74.09 272.02,-81.64 278.35,-84.63"/>
</a>
</g>
</g>
<!-- Node30&#45;&gt;Node8 -->
<g id="edge50_Node000030_Node000008" class="edge">
<title>Node30&#45;&gt;Node8</title>
<g id="a_edge50_Node000030_Node000008"><a xlink:title=" ">
<path fill="none" stroke="#63b8ff" d="M409.2,-228.5C320.24,-225.8 153.55,-207.84 178.5,-110 185.38,-83.02 185.63,-70.88 208.5,-55 252.13,-24.7 409.75,-14.73 481.94,-11.71"/>
<polygon fill="#63b8ff" stroke="#63b8ff" points="482.09,-15.2 491.94,-11.31 481.81,-8.21 482.09,-15.2"/>
</a>
</g>
</g>
<!-- Node30&#45;&gt;Node14 -->
<g id="edge49_Node000030_Node000014" class="edge">
<title>Node30&#45;&gt;Node14</title>
<g id="a_edge49_Node000030_Node000014"><a xlink:title=" ">
<path fill="none" stroke="#63b8ff" d="M494.79,-219.98C529.12,-210.93 583.56,-196.58 621.27,-186.64"/>
<polygon fill="#63b8ff" stroke="#63b8ff" points="622.18,-190.02 630.95,-184.08 620.39,-183.25 622.18,-190.02"/>
</a>
</g>
</g>
<!-- Node30&#45;&gt;Node23 -->
<g id="edge48_Node000030_Node000023" class="edge">
<title>Node30&#45;&gt;Node23</title>
<g id="a_edge48_Node000030_Node000023"><a xlink:title=" ">
<path fill="none" stroke="#63b8ff" d="M452.38,-219.93C443.14,-211.6 429.71,-198.18 421.5,-184 413.36,-169.93 408.12,-152.16 405.06,-139"/>
<polygon fill="#63b8ff" stroke="#63b8ff" points="408.48,-138.26 402.99,-129.21 401.64,-139.71 408.48,-138.26"/>
</a>
</g>
</g>
<!-- Node31&#45;&gt;Node4 -->
<g id="edge53_Node000031_Node000004" class="edge">
<title>Node31&#45;&gt;Node4</title>
<g id="a_edge53_Node000031_Node000004"><a xlink:title=" ">
<path fill="none" stroke="#63b8ff" d="M1489.87,-329.9C1505.08,-322.5 1525.27,-310.4 1537.5,-294 1555.12,-270.39 1556.5,-259.96 1556.5,-230.5 1556.5,-230.5 1556.5,-230.5 1556.5,-173.5 1556.5,-103.04 1458.95,-78.3 1400.45,-69.8"/>
<polygon fill="#63b8ff" stroke="#63b8ff" points="1400.74,-66.31 1390.36,-68.44 1399.8,-73.25 1400.74,-66.31"/>
</a>
</g>
</g>
<!-- Node31&#45;&gt;Node6 -->
<g id="edge54_Node000031_Node000006" class="edge">
<title>Node31&#45;&gt;Node6</title>
<g id="a_edge54_Node000031_Node000006"><a xlink:title=" ">
<path fill="none" stroke="#63b8ff" d="M1468.67,-329.75C1468.02,-322.8 1467.08,-312.85 1466.26,-304.13"/>
<polygon fill="#63b8ff" stroke="#63b8ff" points="1469.73,-303.72 1465.31,-294.09 1462.77,-304.37 1469.73,-303.72"/>
</a>
</g>
</g>
</g>
</svg>
