<?xml version="1.0" encoding="UTF-8" standalone="no"?>
<!DOCTYPE svg PUBLIC "-//W3C//DTD SVG 1.1//EN"
 "http://www.w3.org/Graphics/SVG/1.1/DTD/svg11.dtd">
<!-- Generated by graphviz version 2.43.0 (0)
 -->
<!-- Title: Kit/Time/BootTime.h Pages: 1 -->
<svg width="1418pt" height="467pt"
 viewBox="0.00 0.00 1418.00 467.00" xmlns="http://www.w3.org/2000/svg" xmlns:xlink="http://www.w3.org/1999/xlink">
<g id="graph0" class="graph" transform="scale(1 1) rotate(0) translate(4 463)">
<title>Kit/Time/BootTime.h</title>
<!-- Node1 -->
<g id="Node000001" class="node">
<title>Node1</title>
<g id="a_Node000001"><a xlink:title=" ">
<polygon fill="#999999" stroke="#666666" points="306.5,-459 189.5,-459 189.5,-440 306.5,-440 306.5,-459"/>
<text text-anchor="middle" x="248" y="-447" font-family="Helvetica,sans-Serif" font-size="10.00">Kit/Time/BootTime.h</text>
</a>
</g>
</g>
<!-- Node2 -->
<g id="Node000002" class="node">
<title>Node2</title>
<g id="a_Node000002"><a xlink:title=" ">
<polygon fill="#e0e0e0" stroke="#999999" points="1212.5,-129 1139.5,-129 1139.5,-110 1212.5,-110 1212.5,-129"/>
<text text-anchor="middle" x="1176" y="-117" font-family="Helvetica,sans-Serif" font-size="10.00">kit_config.h</text>
</a>
</g>
</g>
<!-- Node1&#45;&gt;Node2 -->
<g id="edge1_Node000001_Node000002" class="edge">
<title>Node1&#45;&gt;Node2</title>
<g id="a_edge1_Node000001_Node000002"><a xlink:title=" ">
<path fill="none" stroke="#63b8ff" d="M306.63,-447.85C510.18,-444.82 1174,-428.2 1174,-340.5 1174,-340.5 1174,-340.5 1174,-228.5 1174,-197.18 1174.85,-160.77 1175.44,-139.23"/>
<polygon fill="#63b8ff" stroke="#63b8ff" points="1178.94,-139.27 1175.73,-129.18 1171.95,-139.07 1178.94,-139.27"/>
</a>
</g>
</g>
<!-- Node3 -->
<g id="Node000003" class="node">
<title>Node3</title>
<g id="a_Node000003"><a xlink:title=" ">
<polygon fill="#e0e0e0" stroke="#999999" points="281.5,-19 228.5,-19 228.5,0 281.5,0 281.5,-19"/>
<text text-anchor="middle" x="255" y="-7" font-family="Helvetica,sans-Serif" font-size="10.00">stdint.h</text>
</a>
</g>
</g>
<!-- Node1&#45;&gt;Node3 -->
<g id="edge2_Node000001_Node000003" class="edge">
<title>Node1&#45;&gt;Node3</title>
<g id="a_edge2_Node000001_Node000003"><a xlink:title=" ">
<path fill="none" stroke="#63b8ff" d="M189.23,-447.59C115.89,-442.97 0,-422.68 0,-340.5 0,-340.5 0,-340.5 0,-118.5 0,-24.98 147.22,-11.23 217.94,-10.01"/>
<polygon fill="#63b8ff" stroke="#63b8ff" points="218.23,-13.51 228.19,-9.92 218.16,-6.51 218.23,-13.51"/>
</a>
</g>
</g>
<!-- Node4 -->
<g id="Node000004" class="node">
<title>Node4</title>
<g id="a_Node000004"><a xlink:href="_uint16_8h.html" target="_top" xlink:title=" ">
<polygon fill="white" stroke="#666666" points="304.5,-404 191.5,-404 191.5,-385 304.5,-385 304.5,-404"/>
<text text-anchor="middle" x="248" y="-392" font-family="Helvetica,sans-Serif" font-size="10.00">Kit/Dm/Mp/Uint16.h</text>
</a>
</g>
</g>
<!-- Node1&#45;&gt;Node4 -->
<g id="edge3_Node000001_Node000004" class="edge">
<title>Node1&#45;&gt;Node4</title>
<g id="a_edge3_Node000001_Node000004"><a xlink:title=" ">
<path fill="none" stroke="#63b8ff" d="M248,-439.75C248,-432.8 248,-422.85 248,-414.13"/>
<polygon fill="#63b8ff" stroke="#63b8ff" points="251.5,-414.09 248,-404.09 244.5,-414.09 251.5,-414.09"/>
</a>
</g>
</g>
<!-- Node35 -->
<g id="Node000035" class="node">
<title>Node35</title>
<g id="a_Node000035"><a xlink:href="_uint8_8h.html" target="_top" xlink:title=" ">
<polygon fill="white" stroke="#666666" points="429.5,-404 322.5,-404 322.5,-385 429.5,-385 429.5,-404"/>
<text text-anchor="middle" x="376" y="-392" font-family="Helvetica,sans-Serif" font-size="10.00">Kit/Dm/Mp/Uint8.h</text>
</a>
</g>
</g>
<!-- Node1&#45;&gt;Node35 -->
<g id="edge56_Node000001_Node000035" class="edge">
<title>Node1&#45;&gt;Node35</title>
<g id="a_edge56_Node000001_Node000035"><a xlink:title=" ">
<path fill="none" stroke="#63b8ff" d="M268.57,-439.98C289.43,-431.34 321.97,-417.87 345.77,-408.02"/>
<polygon fill="#63b8ff" stroke="#63b8ff" points="347.16,-411.23 355.06,-404.17 344.48,-404.76 347.16,-411.23"/>
</a>
</g>
</g>
<!-- Node36 -->
<g id="Node000036" class="node">
<title>Node36</title>
<g id="a_Node000036"><a xlink:href="_uint32_8h.html" target="_top" xlink:title=" ">
<polygon fill="white" stroke="#666666" points="173.5,-404 60.5,-404 60.5,-385 173.5,-385 173.5,-404"/>
<text text-anchor="middle" x="117" y="-392" font-family="Helvetica,sans-Serif" font-size="10.00">Kit/Dm/Mp/Uint32.h</text>
</a>
</g>
</g>
<!-- Node1&#45;&gt;Node36 -->
<g id="edge59_Node000001_Node000036" class="edge">
<title>Node1&#45;&gt;Node36</title>
<g id="a_edge59_Node000001_Node000036"><a xlink:title=" ">
<path fill="none" stroke="#63b8ff" d="M226.95,-439.98C205.59,-431.34 172.3,-417.87 147.94,-408.02"/>
<polygon fill="#63b8ff" stroke="#63b8ff" points="149.01,-404.68 138.43,-404.17 146.39,-411.17 149.01,-404.68"/>
</a>
</g>
</g>
<!-- Node4&#45;&gt;Node3 -->
<g id="edge55_Node000004_Node000003" class="edge">
<title>Node4&#45;&gt;Node3</title>
<g id="a_edge55_Node000004_Node000003"><a xlink:title=" ">
<path fill="none" stroke="#63b8ff" d="M201,-384.99C150.07,-372.74 76,-344.74 76,-285.5 76,-285.5 76,-285.5 76,-118.5 76,-52.66 165.88,-25.9 218.26,-15.89"/>
<polygon fill="#63b8ff" stroke="#63b8ff" points="218.98,-19.32 228.2,-14.11 217.74,-12.43 218.98,-19.32"/>
</a>
</g>
</g>
<!-- Node5 -->
<g id="Node000005" class="node">
<title>Node5</title>
<g id="a_Node000005"><a xlink:href="_primitive_type_8h.html" target="_top" xlink:title=" ">
<polygon fill="white" stroke="#666666" points="337.5,-349 190.5,-349 190.5,-330 337.5,-330 337.5,-349"/>
<text text-anchor="middle" x="264" y="-337" font-family="Helvetica,sans-Serif" font-size="10.00">Kit/Dm/Mp/PrimitiveType.h</text>
</a>
</g>
</g>
<!-- Node4&#45;&gt;Node5 -->
<g id="edge4_Node000004_Node000005" class="edge">
<title>Node4&#45;&gt;Node5</title>
<g id="a_edge4_Node000004_Node000005"><a xlink:title=" ">
<path fill="none" stroke="#63b8ff" d="M250.64,-384.75C252.76,-377.72 255.81,-367.62 258.46,-358.84"/>
<polygon fill="#63b8ff" stroke="#63b8ff" points="261.87,-359.67 261.41,-349.09 255.17,-357.65 261.87,-359.67"/>
</a>
</g>
</g>
<!-- Node6 -->
<g id="Node000006" class="node">
<title>Node6</title>
<g id="a_Node000006"><a xlink:href="_scalar_8h.html" target="_top" xlink:title=" ">
<polygon fill="white" stroke="#666666" points="336,-294 226,-294 226,-275 336,-275 336,-294"/>
<text text-anchor="middle" x="281" y="-282" font-family="Helvetica,sans-Serif" font-size="10.00">Kit/Dm/Mp/Scalar.h</text>
</a>
</g>
</g>
<!-- Node5&#45;&gt;Node6 -->
<g id="edge5_Node000005_Node000006" class="edge">
<title>Node5&#45;&gt;Node6</title>
<g id="a_edge5_Node000005_Node000006"><a xlink:title=" ">
<path fill="none" stroke="#63b8ff" d="M266.81,-329.75C269.06,-322.72 272.3,-312.62 275.12,-303.84"/>
<polygon fill="#63b8ff" stroke="#63b8ff" points="278.52,-304.68 278.25,-294.09 271.86,-302.54 278.52,-304.68"/>
</a>
</g>
</g>
<!-- Node28 -->
<g id="Node000028" class="node">
<title>Node28</title>
<g id="a_Node000028"><a xlink:href="_f_string_8h.html" target="_top" xlink:title=" ">
<polygon fill="white" stroke="#666666" points="575.5,-294 476.5,-294 476.5,-275 575.5,-275 575.5,-294"/>
<text text-anchor="middle" x="526" y="-282" font-family="Helvetica,sans-Serif" font-size="10.00">Kit/Text/FString.h</text>
</a>
</g>
</g>
<!-- Node5&#45;&gt;Node28 -->
<g id="edge45_Node000005_Node000028" class="edge">
<title>Node5&#45;&gt;Node28</title>
<g id="a_edge45_Node000005_Node000028"><a xlink:title=" ">
<path fill="none" stroke="#63b8ff" d="M306.09,-329.98C351.7,-320.76 424.52,-306.03 473.75,-296.07"/>
<polygon fill="#63b8ff" stroke="#63b8ff" points="474.47,-299.5 483.58,-294.08 473.08,-292.63 474.47,-299.5"/>
</a>
</g>
</g>
<!-- Node31 -->
<g id="Node000031" class="node">
<title>Node31</title>
<g id="a_Node000031"><a xlink:href="_string_to_8h.html" target="_top" xlink:title=" ">
<polygon fill="white" stroke="#666666" points="458,-294 354,-294 354,-275 458,-275 458,-294"/>
<text text-anchor="middle" x="406" y="-282" font-family="Helvetica,sans-Serif" font-size="10.00">Kit/Text/StringTo.h</text>
</a>
</g>
</g>
<!-- Node5&#45;&gt;Node31 -->
<g id="edge49_Node000005_Node000031" class="edge">
<title>Node5&#45;&gt;Node31</title>
<g id="a_edge49_Node000005_Node000031"><a xlink:title=" ">
<path fill="none" stroke="#63b8ff" d="M286.81,-329.98C310.17,-321.27 346.7,-307.63 373.17,-297.75"/>
<polygon fill="#63b8ff" stroke="#63b8ff" points="374.63,-300.95 382.77,-294.17 372.18,-294.39 374.63,-300.95"/>
</a>
</g>
</g>
<!-- Node32 -->
<g id="Node000032" class="node">
<title>Node32</title>
<g id="a_Node000032"><a xlink:title=" ">
<polygon fill="#e0e0e0" stroke="#999999" points="173.5,-239 104.5,-239 104.5,-220 173.5,-220 173.5,-239"/>
<text text-anchor="middle" x="139" y="-227" font-family="Helvetica,sans-Serif" font-size="10.00">type_traits</text>
</a>
</g>
</g>
<!-- Node5&#45;&gt;Node32 -->
<g id="edge54_Node000005_Node000032" class="edge">
<title>Node5&#45;&gt;Node32</title>
<g id="a_edge54_Node000005_Node000032"><a xlink:title=" ">
<path fill="none" stroke="#63b8ff" d="M190.74,-329.91C168.93,-323.55 147.32,-312.63 134,-294 124.77,-281.08 127.47,-262.67 131.62,-249"/>
<polygon fill="#63b8ff" stroke="#63b8ff" points="135.03,-249.84 135.05,-239.25 128.43,-247.51 135.03,-249.84"/>
</a>
</g>
</g>
<!-- Node34 -->
<g id="Node000034" class="node">
<title>Node34</title>
<g id="a_Node000034"><a xlink:title=" ">
<polygon fill="#e0e0e0" stroke="#999999" points="207.5,-294 142.5,-294 142.5,-275 207.5,-275 207.5,-294"/>
<text text-anchor="middle" x="175" y="-282" font-family="Helvetica,sans-Serif" font-size="10.00">inttypes.h</text>
</a>
</g>
</g>
<!-- Node5&#45;&gt;Node34 -->
<g id="edge53_Node000005_Node000034" class="edge">
<title>Node5&#45;&gt;Node34</title>
<g id="a_edge53_Node000005_Node000034"><a xlink:title=" ">
<path fill="none" stroke="#63b8ff" d="M249.7,-329.98C235.9,-321.77 214.76,-309.18 198.49,-299.49"/>
<polygon fill="#63b8ff" stroke="#63b8ff" points="199.94,-296.28 189.56,-294.17 196.36,-302.29 199.94,-296.28"/>
</a>
</g>
</g>
<!-- Node6&#45;&gt;Node3 -->
<g id="edge44_Node000006_Node000003" class="edge">
<title>Node6&#45;&gt;Node3</title>
<g id="a_edge44_Node000006_Node000003"><a xlink:title=" ">
<path fill="none" stroke="#63b8ff" d="M267.51,-274.75C256.71,-266.87 242.35,-254.21 236,-239 205.52,-165.98 233.83,-68.59 248.01,-28.7"/>
<polygon fill="#63b8ff" stroke="#63b8ff" points="251.32,-29.84 251.49,-19.24 244.75,-27.42 251.32,-29.84"/>
</a>
</g>
</g>
<!-- Node7 -->
<g id="Node000007" class="node">
<title>Node7</title>
<g id="a_Node000007"><a xlink:href="_model_point_base_8h.html" target="_top" xlink:title=" ">
<polygon fill="white" stroke="#666666" points="644.5,-239 503.5,-239 503.5,-220 644.5,-220 644.5,-239"/>
<text text-anchor="middle" x="574" y="-227" font-family="Helvetica,sans-Serif" font-size="10.00">Kit/Dm/ModelPointBase.h</text>
</a>
</g>
</g>
<!-- Node6&#45;&gt;Node7 -->
<g id="edge6_Node000006_Node000007" class="edge">
<title>Node6&#45;&gt;Node7</title>
<g id="a_edge6_Node000006_Node000007"><a xlink:title=" ">
<path fill="none" stroke="#63b8ff" d="M328.08,-274.98C379.4,-265.7 461.54,-250.84 516.6,-240.88"/>
<polygon fill="#63b8ff" stroke="#63b8ff" points="517.34,-244.31 526.56,-239.08 516.09,-237.42 517.34,-244.31"/>
</a>
</g>
</g>
<!-- Node27 -->
<g id="Node000027" class="node">
<title>Node27</title>
<g id="a_Node000027"><a xlink:href="_observer_8h.html" target="_top" xlink:title=" ">
<polygon fill="white" stroke="#666666" points="351,-239 245,-239 245,-220 351,-220 351,-239"/>
<text text-anchor="middle" x="298" y="-227" font-family="Helvetica,sans-Serif" font-size="10.00">Kit/Dm/Observer.h</text>
</a>
</g>
</g>
<!-- Node6&#45;&gt;Node27 -->
<g id="edge40_Node000006_Node000027" class="edge">
<title>Node6&#45;&gt;Node27</title>
<g id="a_edge40_Node000006_Node000027"><a xlink:title=" ">
<path fill="none" stroke="#63b8ff" d="M283.81,-274.75C286.06,-267.72 289.3,-257.62 292.12,-248.84"/>
<polygon fill="#63b8ff" stroke="#63b8ff" points="295.52,-249.68 295.25,-239.09 288.86,-247.54 295.52,-249.68"/>
</a>
</g>
</g>
<!-- Node7&#45;&gt;Node3 -->
<g id="edge38_Node000007_Node000003" class="edge">
<title>Node7&#45;&gt;Node3</title>
<g id="a_edge38_Node000007_Node000003"><a xlink:title=" ">
<path fill="none" stroke="#63b8ff" d="M560.05,-219.95C546.26,-211.33 524.7,-197.41 507,-184 466.81,-153.55 461.88,-139.51 421,-110 373.64,-75.81 314.05,-42.17 280.69,-24.1"/>
<polygon fill="#63b8ff" stroke="#63b8ff" points="282.07,-20.88 271.61,-19.22 278.76,-27.04 282.07,-20.88"/>
</a>
</g>
</g>
<!-- Node8 -->
<g id="Node000008" class="node">
<title>Node8</title>
<g id="a_Node000008"><a xlink:href="_i_model_point_8h.html" target="_top" xlink:title=" ">
<polygon fill="white" stroke="#666666" points="771,-184 651,-184 651,-165 771,-165 771,-184"/>
<text text-anchor="middle" x="711" y="-172" font-family="Helvetica,sans-Serif" font-size="10.00">Kit/Dm/IModelPoint.h</text>
</a>
</g>
</g>
<!-- Node7&#45;&gt;Node8 -->
<g id="edge7_Node000007_Node000008" class="edge">
<title>Node7&#45;&gt;Node8</title>
<g id="a_edge7_Node000007_Node000008"><a xlink:title=" ">
<path fill="none" stroke="#63b8ff" d="M596.01,-219.98C618.45,-211.3 653.48,-197.75 678.99,-187.88"/>
<polygon fill="#63b8ff" stroke="#63b8ff" points="680.52,-191.04 688.59,-184.17 678,-184.51 680.52,-191.04"/>
</a>
</g>
</g>
<!-- Node13 -->
<g id="Node000013" class="node">
<title>Node13</title>
<g id="a_Node000013"><a xlink:title=" ">
<polygon fill="#e0e0e0" stroke="#999999" points="1379.5,-19 1326.5,-19 1326.5,0 1379.5,0 1379.5,-19"/>
<text text-anchor="middle" x="1353" y="-7" font-family="Helvetica,sans-Serif" font-size="10.00">stdlib.h</text>
</a>
</g>
</g>
<!-- Node7&#45;&gt;Node13 -->
<g id="edge39_Node000007_Node000013" class="edge">
<title>Node7&#45;&gt;Node13</title>
<g id="a_edge39_Node000007_Node000013"><a xlink:title=" ">
<path fill="none" stroke="#63b8ff" d="M644.52,-224.78C776.74,-217.51 1057.16,-200.7 1153,-184 1243.82,-168.17 1297.12,-202.32 1353,-129 1375.16,-99.92 1366.56,-54.11 1359.22,-28.81"/>
<polygon fill="#63b8ff" stroke="#63b8ff" points="1362.49,-27.54 1356.15,-19.05 1355.81,-29.64 1362.49,-27.54"/>
</a>
</g>
</g>
<!-- Node19 -->
<g id="Node000019" class="node">
<title>Node19</title>
<g id="a_Node000019"><a xlink:href="_i_observer_8h.html" target="_top" xlink:title=" ">
<polygon fill="white" stroke="#666666" points="411.5,-129 302.5,-129 302.5,-110 411.5,-110 411.5,-129"/>
<text text-anchor="middle" x="357" y="-117" font-family="Helvetica,sans-Serif" font-size="10.00">Kit/Dm/IObserver.h</text>
</a>
</g>
</g>
<!-- Node7&#45;&gt;Node19 -->
<g id="edge34_Node000007_Node000019" class="edge">
<title>Node7&#45;&gt;Node19</title>
<g id="a_edge34_Node000007_Node000019"><a xlink:title=" ">
<path fill="none" stroke="#63b8ff" d="M526.48,-219.94C496.32,-213.16 457.24,-201.8 426,-184 404.24,-171.6 383.72,-151.18 370.81,-136.85"/>
<polygon fill="#63b8ff" stroke="#63b8ff" points="373.35,-134.44 364.13,-129.22 368.08,-139.05 373.35,-134.44"/>
</a>
</g>
</g>
<!-- Node22 -->
<g id="Node000022" class="node">
<title>Node22</title>
<g id="a_Node000022"><a xlink:href="_i_model_database_8h.html" target="_top" xlink:title=" ">
<polygon fill="white" stroke="#666666" points="1144,-184 1002,-184 1002,-165 1144,-165 1144,-184"/>
<text text-anchor="middle" x="1073" y="-172" font-family="Helvetica,sans-Serif" font-size="10.00">Kit/Dm/IModelDatabase.h</text>
</a>
</g>
</g>
<!-- Node7&#45;&gt;Node22 -->
<g id="edge27_Node000007_Node000022" class="edge">
<title>Node7&#45;&gt;Node22</title>
<g id="a_edge27_Node000007_Node000022"><a xlink:title=" ">
<path fill="none" stroke="#63b8ff" d="M644.7,-220.99C736.23,-211.27 895.41,-194.36 991.8,-184.12"/>
<polygon fill="#63b8ff" stroke="#63b8ff" points="992.22,-187.6 1001.79,-183.06 991.48,-180.64 992.22,-187.6"/>
</a>
</g>
</g>
<!-- Node25 -->
<g id="Node000025" class="node">
<title>Node25</title>
<g id="a_Node000025"><a xlink:href="_d_list_8h.html" target="_top" xlink:title=" ">
<polygon fill="white" stroke="#666666" points="632.5,-184 515.5,-184 515.5,-165 632.5,-165 632.5,-184"/>
<text text-anchor="middle" x="574" y="-172" font-family="Helvetica,sans-Serif" font-size="10.00">Kit/Container/DList.h</text>
</a>
</g>
</g>
<!-- Node7&#45;&gt;Node25 -->
<g id="edge35_Node000007_Node000025" class="edge">
<title>Node7&#45;&gt;Node25</title>
<g id="a_edge35_Node000007_Node000025"><a xlink:title=" ">
<path fill="none" stroke="#63b8ff" d="M574,-219.75C574,-212.8 574,-202.85 574,-194.13"/>
<polygon fill="#63b8ff" stroke="#63b8ff" points="577.5,-194.09 574,-184.09 570.5,-194.09 577.5,-194.09"/>
</a>
</g>
</g>
<!-- Node8&#45;&gt;Node2 -->
<g id="edge8_Node000008_Node000002" class="edge">
<title>Node8&#45;&gt;Node2</title>
<g id="a_edge8_Node000008_Node000002"><a xlink:title=" ">
<path fill="none" stroke="#63b8ff" d="M771.01,-168.68C850.69,-161.95 996.01,-148.47 1129.23,-129.16"/>
<polygon fill="#63b8ff" stroke="#63b8ff" points="1129.82,-132.61 1139.2,-127.7 1128.8,-125.69 1129.82,-132.61"/>
</a>
</g>
</g>
<!-- Node8&#45;&gt;Node3 -->
<g id="edge26_Node000008_Node000003" class="edge">
<title>Node8&#45;&gt;Node3</title>
<g id="a_edge26_Node000008_Node000003"><a xlink:title=" ">
<path fill="none" stroke="#63b8ff" d="M659.46,-164.97C600.71,-154.89 511.07,-138.33 498,-129 466.86,-106.76 484.98,-77.46 454,-55 405.64,-19.95 334.6,-11.77 291.77,-10.27"/>
<polygon fill="#63b8ff" stroke="#63b8ff" points="291.6,-6.76 281.52,-10.02 291.43,-13.76 291.6,-6.76"/>
</a>
</g>
</g>
<!-- Node9 -->
<g id="Node000009" class="node">
<title>Node9</title>
<g id="a_Node000009"><a xlink:href="_keyed_item_8h.html" target="_top" xlink:title=" ">
<polygon fill="white" stroke="#666666" points="885.5,-129 740.5,-129 740.5,-110 885.5,-110 885.5,-129"/>
<text text-anchor="middle" x="813" y="-117" font-family="Helvetica,sans-Serif" font-size="10.00">Kit/Container/KeyedItem.h</text>
</a>
</g>
</g>
<!-- Node8&#45;&gt;Node9 -->
<g id="edge9_Node000008_Node000009" class="edge">
<title>Node8&#45;&gt;Node9</title>
<g id="a_edge9_Node000008_Node000009"><a xlink:title=" ">
<path fill="none" stroke="#63b8ff" d="M727.39,-164.98C743.57,-156.57 768.57,-143.59 787.38,-133.81"/>
<polygon fill="#63b8ff" stroke="#63b8ff" points="789.05,-136.89 796.31,-129.17 785.83,-130.68 789.05,-136.89"/>
</a>
</g>
</g>
<!-- Node15 -->
<g id="Node000015" class="node">
<title>Node15</title>
<g id="a_Node000015"><a xlink:href="_i_string_8h.html" target="_top" xlink:title=" ">
<polygon fill="white" stroke="#666666" points="1121.5,-129 1024.5,-129 1024.5,-110 1121.5,-110 1121.5,-129"/>
<text text-anchor="middle" x="1073" y="-117" font-family="Helvetica,sans-Serif" font-size="10.00">Kit/Text/IString.h</text>
</a>
</g>
</g>
<!-- Node8&#45;&gt;Node15 -->
<g id="edge16_Node000008_Node000015" class="edge">
<title>Node8&#45;&gt;Node15</title>
<g id="a_edge16_Node000008_Node000015"><a xlink:title=" ">
<path fill="none" stroke="#63b8ff" d="M769.76,-164.98C829.03,-156.38 923.44,-142.64 1014.55,-129.21"/>
<polygon fill="#63b8ff" stroke="#63b8ff" points="1015.11,-132.67 1024.49,-127.74 1014.09,-125.74 1015.11,-132.67"/>
</a>
</g>
</g>
<!-- Node8&#45;&gt;Node19 -->
<g id="edge21_Node000008_Node000019" class="edge">
<title>Node8&#45;&gt;Node19</title>
<g id="a_edge21_Node000008_Node000019"><a xlink:title=" ">
<path fill="none" stroke="#63b8ff" d="M654.12,-164.98C590.64,-155.48 488.12,-140.13 421.64,-130.18"/>
<polygon fill="#63b8ff" stroke="#63b8ff" points="422.11,-126.71 411.7,-128.69 421.07,-133.63 422.11,-126.71"/>
</a>
</g>
</g>
<!-- Node20 -->
<g id="Node000020" class="node">
<title>Node20</title>
<g id="a_Node000020"><a xlink:href="_arduino_8h_source.html" target="_top" xlink:title=" ">
<polygon fill="white" stroke="#666666" points="1006.5,-129 903.5,-129 903.5,-110 1006.5,-110 1006.5,-129"/>
<text text-anchor="middle" x="955" y="-117" font-family="Helvetica,sans-Serif" font-size="10.00">Kit/Json/Arduino.h</text>
</a>
</g>
</g>
<!-- Node8&#45;&gt;Node20 -->
<g id="edge24_Node000008_Node000020" class="edge">
<title>Node8&#45;&gt;Node20</title>
<g id="a_edge24_Node000008_Node000020"><a xlink:title=" ">
<path fill="none" stroke="#63b8ff" d="M750.2,-164.98C792.41,-155.82 859.65,-141.21 905.48,-131.26"/>
<polygon fill="#63b8ff" stroke="#63b8ff" points="906.46,-134.63 915.49,-129.08 904.97,-127.78 906.46,-134.63"/>
</a>
</g>
</g>
<!-- Node21 -->
<g id="Node000021" class="node">
<title>Node21</title>
<g id="a_Node000021"><a xlink:title=" ">
<polygon fill="#e0e0e0" stroke="#999999" points="722,-129 666,-129 666,-110 722,-110 722,-129"/>
<text text-anchor="middle" x="694" y="-117" font-family="Helvetica,sans-Serif" font-size="10.00">stddef.h</text>
</a>
</g>
</g>
<!-- Node8&#45;&gt;Node21 -->
<g id="edge25_Node000008_Node000021" class="edge">
<title>Node8&#45;&gt;Node21</title>
<g id="a_edge25_Node000008_Node000021"><a xlink:title=" ">
<path fill="none" stroke="#63b8ff" d="M708.19,-164.75C705.94,-157.72 702.7,-147.62 699.88,-138.84"/>
<polygon fill="#63b8ff" stroke="#63b8ff" points="703.14,-137.54 696.75,-129.09 696.48,-139.68 703.14,-137.54"/>
</a>
</g>
</g>
<!-- Node10 -->
<g id="Node000010" class="node">
<title>Node10</title>
<g id="a_Node000010"><a xlink:href="_list_item_8h.html" target="_top" xlink:title=" ">
<polygon fill="white" stroke="#666666" points="643,-74 511,-74 511,-55 643,-55 643,-74"/>
<text text-anchor="middle" x="577" y="-62" font-family="Helvetica,sans-Serif" font-size="10.00">Kit/Container/ListItem.h</text>
</a>
</g>
</g>
<!-- Node9&#45;&gt;Node10 -->
<g id="edge10_Node000009_Node000010" class="edge">
<title>Node9&#45;&gt;Node10</title>
<g id="a_edge10_Node000009_Node000010"><a xlink:title=" ">
<path fill="none" stroke="#63b8ff" d="M775.08,-109.98C734.35,-100.84 669.5,-86.27 625.18,-76.32"/>
<polygon fill="#63b8ff" stroke="#63b8ff" points="625.74,-72.86 615.21,-74.08 624.2,-79.69 625.74,-72.86"/>
</a>
</g>
</g>
<!-- Node12 -->
<g id="Node000012" class="node">
<title>Node12</title>
<g id="a_Node000012"><a xlink:href="_key_8h.html" target="_top" xlink:title=" ">
<polygon fill="white" stroke="#666666" points="886.5,-74 777.5,-74 777.5,-55 886.5,-55 886.5,-74"/>
<text text-anchor="middle" x="832" y="-62" font-family="Helvetica,sans-Serif" font-size="10.00">Kit/Container/Key.h</text>
</a>
</g>
</g>
<!-- Node9&#45;&gt;Node12 -->
<g id="edge12_Node000009_Node000012" class="edge">
<title>Node9&#45;&gt;Node12</title>
<g id="a_edge12_Node000009_Node000012"><a xlink:title=" ">
<path fill="none" stroke="#63b8ff" d="M816.14,-109.75C818.68,-102.65 822.36,-92.4 825.53,-83.56"/>
<polygon fill="#63b8ff" stroke="#63b8ff" points="828.84,-84.68 828.92,-74.09 822.25,-82.32 828.84,-84.68"/>
</a>
</g>
</g>
<!-- Node11 -->
<g id="Node000011" class="node">
<title>Node11</title>
<g id="a_Node000011"><a xlink:href="_item_8h.html" target="_top" xlink:title=" ">
<polygon fill="white" stroke="#666666" points="634.5,-19 519.5,-19 519.5,0 634.5,0 634.5,-19"/>
<text text-anchor="middle" x="577" y="-7" font-family="Helvetica,sans-Serif" font-size="10.00">Kit/Container/Item.h</text>
</a>
</g>
</g>
<!-- Node10&#45;&gt;Node11 -->
<g id="edge11_Node000010_Node000011" class="edge">
<title>Node10&#45;&gt;Node11</title>
<g id="a_edge11_Node000010_Node000011"><a xlink:title=" ">
<path fill="none" stroke="#63b8ff" d="M577,-54.75C577,-47.8 577,-37.85 577,-29.13"/>
<polygon fill="#63b8ff" stroke="#63b8ff" points="580.5,-29.09 577,-19.09 573.5,-29.09 580.5,-29.09"/>
</a>
</g>
</g>
<!-- Node12&#45;&gt;Node3 -->
<g id="edge13_Node000012_Node000003" class="edge">
<title>Node12&#45;&gt;Node3</title>
<g id="a_edge13_Node000012_Node000003"><a xlink:title=" ">
<path fill="none" stroke="#63b8ff" d="M777.46,-58.49C660.91,-47.78 390.19,-22.92 291.68,-13.87"/>
<polygon fill="#63b8ff" stroke="#63b8ff" points="291.89,-10.37 281.62,-12.94 291.25,-17.34 291.89,-10.37"/>
</a>
</g>
</g>
<!-- Node12&#45;&gt;Node13 -->
<g id="edge14_Node000012_Node000013" class="edge">
<title>Node12&#45;&gt;Node13</title>
<g id="a_edge14_Node000012_Node000013"><a xlink:title=" ">
<path fill="none" stroke="#63b8ff" d="M886.77,-57.93C993.33,-47.09 1225.97,-23.42 1316.2,-14.24"/>
<polygon fill="#63b8ff" stroke="#63b8ff" points="1316.64,-17.72 1326.23,-13.22 1315.93,-10.75 1316.64,-17.72"/>
</a>
</g>
</g>
<!-- Node14 -->
<g id="Node000014" class="node">
<title>Node14</title>
<g id="a_Node000014"><a xlink:title=" ">
<polygon fill="#e0e0e0" stroke="#999999" points="858.5,-19 805.5,-19 805.5,0 858.5,0 858.5,-19"/>
<text text-anchor="middle" x="832" y="-7" font-family="Helvetica,sans-Serif" font-size="10.00">limits.h</text>
</a>
</g>
</g>
<!-- Node12&#45;&gt;Node14 -->
<g id="edge15_Node000012_Node000014" class="edge">
<title>Node12&#45;&gt;Node14</title>
<g id="a_edge15_Node000012_Node000014"><a xlink:title=" ">
<path fill="none" stroke="#63b8ff" d="M832,-54.75C832,-47.8 832,-37.85 832,-29.13"/>
<polygon fill="#63b8ff" stroke="#63b8ff" points="835.5,-29.09 832,-19.09 828.5,-29.09 835.5,-29.09"/>
</a>
</g>
</g>
<!-- Node15&#45;&gt;Node12 -->
<g id="edge17_Node000015_Node000012" class="edge">
<title>Node15&#45;&gt;Node12</title>
<g id="a_edge17_Node000015_Node000012"><a xlink:title=" ">
<path fill="none" stroke="#63b8ff" d="M1034.28,-109.98C992.59,-100.82 926.18,-86.21 880.91,-76.26"/>
<polygon fill="#63b8ff" stroke="#63b8ff" points="881.54,-72.81 871.02,-74.08 880.04,-79.65 881.54,-72.81"/>
</a>
</g>
</g>
<!-- Node16 -->
<g id="Node000016" class="node">
<title>Node16</title>
<g id="a_Node000016"><a xlink:href="printfchecker_8h.html" target="_top" xlink:title="This file contains macro that enables the GCC (and Clang) compiler to validate printf flags with thei...">
<polygon fill="white" stroke="#666666" points="1222.5,-74 1077.5,-74 1077.5,-55 1222.5,-55 1222.5,-74"/>
<text text-anchor="middle" x="1150" y="-62" font-family="Helvetica,sans-Serif" font-size="10.00">Kit/System/printfchecker.h</text>
</a>
</g>
</g>
<!-- Node15&#45;&gt;Node16 -->
<g id="edge18_Node000015_Node000016" class="edge">
<title>Node15&#45;&gt;Node16</title>
<g id="a_edge18_Node000015_Node000016"><a xlink:title=" ">
<path fill="none" stroke="#63b8ff" d="M1085.37,-109.98C1097.09,-101.92 1114.92,-89.65 1128.89,-80.03"/>
<polygon fill="#63b8ff" stroke="#63b8ff" points="1131.15,-82.72 1137.4,-74.17 1127.18,-76.96 1131.15,-82.72"/>
</a>
</g>
</g>
<!-- Node17 -->
<g id="Node000017" class="node">
<title>Node17</title>
<g id="a_Node000017"><a xlink:title=" ">
<polygon fill="#e0e0e0" stroke="#999999" points="981,-74 925,-74 925,-55 981,-55 981,-74"/>
<text text-anchor="middle" x="953" y="-62" font-family="Helvetica,sans-Serif" font-size="10.00">stdarg.h</text>
</a>
</g>
</g>
<!-- Node15&#45;&gt;Node17 -->
<g id="edge19_Node000015_Node000017" class="edge">
<title>Node15&#45;&gt;Node17</title>
<g id="a_edge19_Node000015_Node000017"><a xlink:title=" ">
<path fill="none" stroke="#63b8ff" d="M1053.72,-109.98C1034.33,-101.42 1004.19,-88.11 981.93,-78.28"/>
<polygon fill="#63b8ff" stroke="#63b8ff" points="983.19,-75.01 972.63,-74.17 980.36,-81.41 983.19,-75.01"/>
</a>
</g>
</g>
<!-- Node18 -->
<g id="Node000018" class="node">
<title>Node18</title>
<g id="a_Node000018"><a xlink:title=" ">
<polygon fill="#e0e0e0" stroke="#999999" points="1059,-74 999,-74 999,-55 1059,-55 1059,-74"/>
<text text-anchor="middle" x="1029" y="-62" font-family="Helvetica,sans-Serif" font-size="10.00">iostream</text>
</a>
</g>
</g>
<!-- Node15&#45;&gt;Node18 -->
<g id="edge20_Node000015_Node000018" class="edge">
<title>Node15&#45;&gt;Node18</title>
<g id="a_edge20_Node000015_Node000018"><a xlink:title=" ">
<path fill="none" stroke="#63b8ff" d="M1065.73,-109.75C1059.46,-102.18 1050.21,-91.05 1042.57,-81.84"/>
<polygon fill="#63b8ff" stroke="#63b8ff" points="1045.21,-79.55 1036.13,-74.09 1039.83,-84.02 1045.21,-79.55"/>
</a>
</g>
</g>
<!-- Node19&#45;&gt;Node3 -->
<g id="edge23_Node000019_Node000003" class="edge">
<title>Node19&#45;&gt;Node3</title>
<g id="a_edge23_Node000019_Node000003"><a xlink:title=" ">
<path fill="none" stroke="#63b8ff" d="M348.65,-109.66C331.46,-91.46 291.88,-49.55 270.08,-26.47"/>
<polygon fill="#63b8ff" stroke="#63b8ff" points="272.59,-24.03 263.18,-19.16 267.5,-28.83 272.59,-24.03"/>
</a>
</g>
</g>
<!-- Node19&#45;&gt;Node10 -->
<g id="edge22_Node000019_Node000010" class="edge">
<title>Node19&#45;&gt;Node10</title>
<g id="a_edge22_Node000019_Node000010"><a xlink:title=" ">
<path fill="none" stroke="#63b8ff" d="M392.35,-109.98C430.16,-100.87 490.26,-86.4 531.57,-76.45"/>
<polygon fill="#63b8ff" stroke="#63b8ff" points="532.47,-79.83 541.38,-74.08 530.83,-73.02 532.47,-79.83"/>
</a>
</g>
</g>
<!-- Node22&#45;&gt;Node2 -->
<g id="edge28_Node000022_Node000002" class="edge">
<title>Node22&#45;&gt;Node2</title>
<g id="a_edge28_Node000022_Node000002"><a xlink:title=" ">
<path fill="none" stroke="#63b8ff" d="M1089.55,-164.98C1105.89,-156.57 1131.13,-143.59 1150.13,-133.81"/>
<polygon fill="#63b8ff" stroke="#63b8ff" points="1151.86,-136.86 1159.15,-129.17 1148.66,-130.63 1151.86,-136.86"/>
</a>
</g>
</g>
<!-- Node22&#45;&gt;Node15 -->
<g id="edge29_Node000022_Node000015" class="edge">
<title>Node22&#45;&gt;Node15</title>
<g id="a_edge29_Node000022_Node000015"><a xlink:title=" ">
<path fill="none" stroke="#63b8ff" d="M1073,-164.75C1073,-157.8 1073,-147.85 1073,-139.13"/>
<polygon fill="#63b8ff" stroke="#63b8ff" points="1076.5,-139.09 1073,-129.09 1069.5,-139.09 1076.5,-139.09"/>
</a>
</g>
</g>
<!-- Node22&#45;&gt;Node20 -->
<g id="edge33_Node000022_Node000020" class="edge">
<title>Node22&#45;&gt;Node20</title>
<g id="a_edge33_Node000022_Node000020"><a xlink:title=" ">
<path fill="none" stroke="#63b8ff" d="M1054.04,-164.98C1034.97,-156.42 1005.34,-143.11 983.45,-133.28"/>
<polygon fill="#63b8ff" stroke="#63b8ff" points="984.86,-130.07 974.3,-129.17 981.99,-136.46 984.86,-130.07"/>
</a>
</g>
</g>
<!-- Node23 -->
<g id="Node000023" class="node">
<title>Node23</title>
<g id="a_Node000023"><a xlink:href="_mutex_8h.html" target="_top" xlink:title=" ">
<polygon fill="white" stroke="#666666" points="1343.5,-129 1230.5,-129 1230.5,-110 1343.5,-110 1343.5,-129"/>
<text text-anchor="middle" x="1287" y="-117" font-family="Helvetica,sans-Serif" font-size="10.00">Kit/System/Mutex.h</text>
</a>
</g>
</g>
<!-- Node22&#45;&gt;Node23 -->
<g id="edge30_Node000022_Node000023" class="edge">
<title>Node22&#45;&gt;Node23</title>
<g id="a_edge30_Node000022_Node000023"><a xlink:title=" ">
<path fill="none" stroke="#63b8ff" d="M1107.38,-164.98C1144.09,-155.89 1202.38,-141.46 1242.55,-131.51"/>
<polygon fill="#63b8ff" stroke="#63b8ff" points="1243.48,-134.88 1252.35,-129.08 1241.8,-128.09 1243.48,-134.88"/>
</a>
</g>
</g>
<!-- Node23&#45;&gt;Node13 -->
<g id="edge31_Node000023_Node000013" class="edge">
<title>Node23&#45;&gt;Node13</title>
<g id="a_edge31_Node000023_Node000013"><a xlink:title=" ">
<path fill="none" stroke="#63b8ff" d="M1292.64,-109.67C1298.33,-100.72 1307.36,-86.45 1315,-74 1324.53,-58.47 1335.17,-40.65 1342.76,-27.85"/>
<polygon fill="#63b8ff" stroke="#63b8ff" points="1345.82,-29.55 1347.9,-19.16 1339.79,-25.99 1345.82,-29.55"/>
</a>
</g>
</g>
<!-- Node24 -->
<g id="Node000024" class="node">
<title>Node24</title>
<g id="a_Node000024"><a xlink:title=" ">
<polygon fill="#e0e0e0" stroke="#999999" points="1305.5,-74 1240.5,-74 1240.5,-55 1305.5,-55 1305.5,-74"/>
<text text-anchor="middle" x="1273" y="-62" font-family="Helvetica,sans-Serif" font-size="10.00">kit_map.h</text>
</a>
</g>
</g>
<!-- Node23&#45;&gt;Node24 -->
<g id="edge32_Node000023_Node000024" class="edge">
<title>Node23&#45;&gt;Node24</title>
<g id="a_edge32_Node000023_Node000024"><a xlink:title=" ">
<path fill="none" stroke="#63b8ff" d="M1284.69,-109.75C1282.83,-102.72 1280.16,-92.62 1277.85,-83.84"/>
<polygon fill="#63b8ff" stroke="#63b8ff" points="1281.21,-82.86 1275.27,-74.09 1274.44,-84.65 1281.21,-82.86"/>
</a>
</g>
</g>
<!-- Node26 -->
<g id="Node000026" class="node">
<title>Node26</title>
<g id="a_Node000026"><a xlink:href="_d_list_base_8h.html" target="_top" xlink:title=" ">
<polygon fill="white" stroke="#666666" points="647.5,-129 506.5,-129 506.5,-110 647.5,-110 647.5,-129"/>
<text text-anchor="middle" x="577" y="-117" font-family="Helvetica,sans-Serif" font-size="10.00">Kit/Container/DListBase.h</text>
</a>
</g>
</g>
<!-- Node25&#45;&gt;Node26 -->
<g id="edge36_Node000025_Node000026" class="edge">
<title>Node25&#45;&gt;Node26</title>
<g id="a_edge36_Node000025_Node000026"><a xlink:title=" ">
<path fill="none" stroke="#63b8ff" d="M574.5,-164.75C574.89,-157.8 575.45,-147.85 575.95,-139.13"/>
<polygon fill="#63b8ff" stroke="#63b8ff" points="579.44,-139.27 576.51,-129.09 572.45,-138.88 579.44,-139.27"/>
</a>
</g>
</g>
<!-- Node26&#45;&gt;Node10 -->
<g id="edge37_Node000026_Node000010" class="edge">
<title>Node26&#45;&gt;Node10</title>
<g id="a_edge37_Node000026_Node000010"><a xlink:title=" ">
<path fill="none" stroke="#63b8ff" d="M577,-109.75C577,-102.8 577,-92.85 577,-84.13"/>
<polygon fill="#63b8ff" stroke="#63b8ff" points="580.5,-84.09 577,-74.09 573.5,-84.09 580.5,-84.09"/>
</a>
</g>
</g>
<!-- Node27&#45;&gt;Node3 -->
<g id="edge43_Node000027_Node000003" class="edge">
<title>Node27&#45;&gt;Node3</title>
<g id="a_edge43_Node000027_Node000003"><a xlink:title=" ">
<path fill="none" stroke="#63b8ff" d="M291.74,-219.72C285.84,-211.04 277.14,-197.17 272,-184 251.34,-131.01 251.85,-62.32 253.58,-29.54"/>
<polygon fill="#63b8ff" stroke="#63b8ff" points="257.1,-29.38 254.24,-19.18 250.11,-28.94 257.1,-29.38"/>
</a>
</g>
</g>
<!-- Node27&#45;&gt;Node8 -->
<g id="edge42_Node000027_Node000008" class="edge">
<title>Node27&#45;&gt;Node8</title>
<g id="a_edge42_Node000027_Node000008"><a xlink:title=" ">
<path fill="none" stroke="#63b8ff" d="M351.15,-221.68C424.97,-212.21 558.71,-195.04 640.71,-184.52"/>
<polygon fill="#63b8ff" stroke="#63b8ff" points="641.22,-187.98 650.69,-183.24 640.33,-181.04 641.22,-187.98"/>
</a>
</g>
</g>
<!-- Node27&#45;&gt;Node19 -->
<g id="edge41_Node000027_Node000019" class="edge">
<title>Node27&#45;&gt;Node19</title>
<g id="a_edge41_Node000027_Node000019"><a xlink:title=" ">
<path fill="none" stroke="#63b8ff" d="M302.83,-219.66C312.56,-201.85 334.68,-161.37 347.44,-138.01"/>
<polygon fill="#63b8ff" stroke="#63b8ff" points="350.55,-139.61 352.27,-129.16 344.4,-136.26 350.55,-139.61"/>
</a>
</g>
</g>
<!-- Node29 -->
<g id="Node000029" class="node">
<title>Node29</title>
<g id="a_Node000029"><a xlink:href="_f_string_base_8h.html" target="_top" xlink:title=" ">
<polygon fill="white" stroke="#666666" points="867.5,-239 744.5,-239 744.5,-220 867.5,-220 867.5,-239"/>
<text text-anchor="middle" x="806" y="-227" font-family="Helvetica,sans-Serif" font-size="10.00">Kit/Text/FStringBase.h</text>
</a>
</g>
</g>
<!-- Node28&#45;&gt;Node29 -->
<g id="edge46_Node000028_Node000029" class="edge">
<title>Node28&#45;&gt;Node29</title>
<g id="a_edge46_Node000028_Node000029"><a xlink:title=" ">
<path fill="none" stroke="#63b8ff" d="M570.99,-274.98C619.93,-265.72 698.2,-250.9 750.82,-240.94"/>
<polygon fill="#63b8ff" stroke="#63b8ff" points="751.49,-244.38 760.66,-239.08 750.18,-237.5 751.49,-244.38"/>
</a>
</g>
</g>
<!-- Node30 -->
<g id="Node000030" class="node">
<title>Node30</title>
<g id="a_Node000030"><a xlink:href="_string_base_8h.html" target="_top" xlink:title=" ">
<polygon fill="white" stroke="#666666" points="947,-184 829,-184 829,-165 947,-165 947,-184"/>
<text text-anchor="middle" x="888" y="-172" font-family="Helvetica,sans-Serif" font-size="10.00">Kit/Text/StringBase.h</text>
</a>
</g>
</g>
<!-- Node29&#45;&gt;Node30 -->
<g id="edge47_Node000029_Node000030" class="edge">
<title>Node29&#45;&gt;Node30</title>
<g id="a_edge47_Node000029_Node000030"><a xlink:title=" ">
<path fill="none" stroke="#63b8ff" d="M819.17,-219.98C831.77,-211.84 851,-199.41 865.94,-189.76"/>
<polygon fill="#63b8ff" stroke="#63b8ff" points="868.09,-192.54 874.59,-184.17 864.29,-186.66 868.09,-192.54"/>
</a>
</g>
</g>
<!-- Node30&#45;&gt;Node15 -->
<g id="edge48_Node000030_Node000015" class="edge">
<title>Node30&#45;&gt;Node15</title>
<g id="a_edge48_Node000030_Node000015"><a xlink:title=" ">
<path fill="none" stroke="#63b8ff" d="M917.72,-164.98C949.05,-156.01 998.57,-141.82 1033.24,-131.89"/>
<polygon fill="#63b8ff" stroke="#63b8ff" points="1034.39,-135.2 1043.04,-129.08 1032.47,-128.47 1034.39,-135.2"/>
</a>
</g>
</g>
<!-- Node31&#45;&gt;Node13 -->
<g id="edge50_Node000031_Node000013" class="edge">
<title>Node31&#45;&gt;Node13</title>
<g id="a_edge50_Node000031_Node000013"><a xlink:title=" ">
<path fill="none" stroke="#63b8ff" d="M458.07,-276.17C461.43,-275.76 464.76,-275.36 468,-275 572.59,-263.23 1410,-280.75 1410,-175.5 1410,-175.5 1410,-175.5 1410,-118.5 1410,-82.51 1384.94,-46.76 1368.05,-26.76"/>
<polygon fill="#63b8ff" stroke="#63b8ff" points="1370.64,-24.4 1361.41,-19.2 1365.38,-29.02 1370.64,-24.4"/>
</a>
</g>
</g>
<!-- Node31&#45;&gt;Node32 -->
<g id="edge51_Node000031_Node000032" class="edge">
<title>Node31&#45;&gt;Node32</title>
<g id="a_edge51_Node000031_Node000032"><a xlink:title=" ">
<path fill="none" stroke="#63b8ff" d="M363.1,-274.98C313.87,-265.21 233.51,-249.26 183.58,-239.35"/>
<polygon fill="#63b8ff" stroke="#63b8ff" points="184.2,-235.9 173.71,-237.39 182.84,-242.77 184.2,-235.9"/>
</a>
</g>
</g>
<!-- Node33 -->
<g id="Node000033" class="node">
<title>Node33</title>
<g id="a_Node000033"><a xlink:title=" ">
<polygon fill="#e0e0e0" stroke="#999999" points="428,-239 384,-239 384,-220 428,-220 428,-239"/>
<text text-anchor="middle" x="406" y="-227" font-family="Helvetica,sans-Serif" font-size="10.00">limits</text>
</a>
</g>
</g>
<!-- Node31&#45;&gt;Node33 -->
<g id="edge52_Node000031_Node000033" class="edge">
<title>Node31&#45;&gt;Node33</title>
<g id="a_edge52_Node000031_Node000033"><a xlink:title=" ">
<path fill="none" stroke="#63b8ff" d="M406,-274.75C406,-267.8 406,-257.85 406,-249.13"/>
<polygon fill="#63b8ff" stroke="#63b8ff" points="409.5,-249.09 406,-239.09 402.5,-249.09 409.5,-249.09"/>
</a>
</g>
</g>
<!-- Node35&#45;&gt;Node3 -->
<g id="edge58_Node000035_Node000003" class="edge">
<title>Node35&#45;&gt;Node3</title>
<g id="a_edge58_Node000035_Node000003"><a xlink:title=" ">
<path fill="none" stroke="#63b8ff" d="M429.58,-385.16C504.65,-371.05 627.44,-337.69 585,-275 560.85,-239.33 533.97,-257.37 495,-239 402.89,-195.57 359.14,-207.28 294,-129 269.61,-99.69 260.32,-54.66 256.9,-29.38"/>
<polygon fill="#63b8ff" stroke="#63b8ff" points="260.36,-28.81 255.71,-19.29 253.41,-29.63 260.36,-28.81"/>
</a>
</g>
</g>
<!-- Node35&#45;&gt;Node5 -->
<g id="edge57_Node000035_Node000005" class="edge">
<title>Node35&#45;&gt;Node5</title>
<g id="a_edge57_Node000035_Node000005"><a xlink:title=" ">
<path fill="none" stroke="#63b8ff" d="M358.01,-384.98C340.07,-376.5 312.28,-363.35 291.57,-353.54"/>
<polygon fill="#63b8ff" stroke="#63b8ff" points="292.86,-350.28 282.32,-349.17 289.86,-356.61 292.86,-350.28"/>
</a>
</g>
</g>
<!-- Node36&#45;&gt;Node3 -->
<g id="edge61_Node000036_Node000003" class="edge">
<title>Node36&#45;&gt;Node3</title>
<g id="a_edge61_Node000036_Node000003"><a xlink:title=" ">
<path fill="none" stroke="#63b8ff" d="M104.66,-384.99C82.44,-368.55 38,-330.1 38,-285.5 38,-285.5 38,-285.5 38,-118.5 38,-38.94 156.36,-17.99 218.25,-12.47"/>
<polygon fill="#63b8ff" stroke="#63b8ff" points="218.7,-15.95 228.39,-11.66 218.14,-8.97 218.7,-15.95"/>
</a>
</g>
</g>
<!-- Node36&#45;&gt;Node5 -->
<g id="edge60_Node000036_Node000005" class="edge">
<title>Node36&#45;&gt;Node5</title>
<g id="a_edge60_Node000036_Node000005"><a xlink:title=" ">
<path fill="none" stroke="#63b8ff" d="M140.62,-384.98C164.9,-376.23 202.95,-362.51 230.37,-352.62"/>
<polygon fill="#63b8ff" stroke="#63b8ff" points="231.73,-355.85 239.95,-349.17 229.36,-349.27 231.73,-355.85"/>
</a>
</g>
</g>
</g>
</svg>
