<?xml version="1.0" encoding="UTF-8" standalone="no"?>
<!DOCTYPE svg PUBLIC "-//W3C//DTD SVG 1.1//EN"
 "http://www.w3.org/Graphics/SVG/1.1/DTD/svg11.dtd">
<!-- Generated by graphviz version 2.43.0 (0)
 -->
<!-- Title: Kit/Bsp/Api.h Pages: 1 -->
<svg width="795pt" height="170pt"
 viewBox="0.00 0.00 794.50 170.00" xmlns="http://www.w3.org/2000/svg" xmlns:xlink="http://www.w3.org/1999/xlink">
<g id="graph0" class="graph" transform="scale(1 1) rotate(0) translate(4 166)">
<title>Kit/Bsp/Api.h</title>
<!-- Node1 -->
<g id="Node000001" class="node">
<title>Node1</title>
<g id="a_Node000001"><a xlink:title="This file defines a common/generic Board Support Package (BSP) Interface that provides an indirect re...">
<polygon fill="#999999" stroke="#666666" points="457,-162 378,-162 378,-143 457,-143 457,-162"/>
<text text-anchor="middle" x="417.5" y="-150" font-family="Helvetica,sans-Serif" font-size="10.00">Kit/Bsp/Api.h</text>
</a>
</g>
</g>
<!-- Node2 -->
<g id="Node000002" class="node">
<title>Node2</title>
<g id="a_Node000002"><a xlink:href="projects_2examples_2_dm_2_transaction_2_server_8h.html" target="_top" xlink:title=" ">
<polygon fill="white" stroke="#666666" points="149,-107 0,-107 0,-66 149,-66 149,-107"/>
<text text-anchor="start" x="8" y="-95" font-family="Helvetica,sans-Serif" font-size="10.00">/home/runner/work/kit.core</text>
<text text-anchor="start" x="8" y="-84" font-family="Helvetica,sans-Serif" font-size="10.00">/kit.core/projects/examples</text>
<text text-anchor="middle" x="74.5" y="-73" font-family="Helvetica,sans-Serif" font-size="10.00">/Dm/Transaction/Server.h</text>
</a>
</g>
</g>
<!-- Node1&#45;&gt;Node2 -->
<g id="edge1_Node000001_Node000002" class="edge">
<title>Node1&#45;&gt;Node2</title>
<g id="a_edge1_Node000001_Node000002"><a xlink:title=" ">
<path fill="none" stroke="#63b8ff" d="M367.67,-143.9C315.21,-135.68 230.29,-121.77 157.5,-107 154.74,-106.44 151.94,-105.86 149.11,-105.26"/>
<polygon fill="#63b8ff" stroke="#63b8ff" points="367.3,-147.38 377.72,-145.47 368.37,-140.47 367.3,-147.38"/>
</a>
</g>
</g>
<!-- Node3 -->
<g id="Node000003" class="node">
<title>Node3</title>
<g id="a_Node000003"><a xlink:href="_s_t_2baremetal___n_u_c_l_e_o-_f413_z_h_2console_8h.html" target="_top" xlink:title="By default the BSP provides a KIT IO Stream for application&#39; console.">
<polygon fill="white" stroke="#666666" points="322,-101.5 167,-101.5 167,-71.5 322,-71.5 322,-101.5"/>
<text text-anchor="start" x="175" y="-89.5" font-family="Helvetica,sans-Serif" font-size="10.00">Kit/Bsp/ST/baremetal</text>
<text text-anchor="middle" x="244.5" y="-78.5" font-family="Helvetica,sans-Serif" font-size="10.00">_NUCLEO&#45;F413ZH/console.h</text>
</a>
</g>
</g>
<!-- Node1&#45;&gt;Node3 -->
<g id="edge2_Node000001_Node000003" class="edge">
<title>Node1&#45;&gt;Node3</title>
<g id="a_edge2_Node000001_Node000003"><a xlink:title=" ">
<path fill="none" stroke="#63b8ff" d="M384.49,-139.29C355.44,-128.54 313.15,-112.9 282.66,-101.62"/>
<polygon fill="#63b8ff" stroke="#63b8ff" points="383.58,-142.68 394.17,-142.87 386,-136.12 383.58,-142.68"/>
</a>
</g>
</g>
<!-- Node4 -->
<g id="Node000004" class="node">
<title>Node4</title>
<g id="a_Node000004"><a xlink:href="_s_t_2freertos___n_u_c_l_e_o-_f413_z_h_2console_8h.html" target="_top" xlink:title="By default the BSP provides a KIT IO Stream for application&#39; console.">
<polygon fill="white" stroke="#666666" points="495,-101.5 340,-101.5 340,-71.5 495,-71.5 495,-101.5"/>
<text text-anchor="start" x="348" y="-89.5" font-family="Helvetica,sans-Serif" font-size="10.00">Kit/Bsp/ST/freertos</text>
<text text-anchor="middle" x="417.5" y="-78.5" font-family="Helvetica,sans-Serif" font-size="10.00">_NUCLEO&#45;F413ZH/console.h</text>
</a>
</g>
</g>
<!-- Node1&#45;&gt;Node4 -->
<g id="edge3_Node000001_Node000004" class="edge">
<title>Node1&#45;&gt;Node4</title>
<g id="a_edge3_Node000001_Node000004"><a xlink:title=" ">
<path fill="none" stroke="#63b8ff" d="M417.5,-132.85C417.5,-122.97 417.5,-111.01 417.5,-101.86"/>
<polygon fill="#63b8ff" stroke="#63b8ff" points="414,-132.87 417.5,-142.87 421,-132.87 414,-132.87"/>
</a>
</g>
</g>
<!-- Node6 -->
<g id="Node000006" class="node">
<title>Node6</title>
<g id="a_Node000006"><a xlink:href="_serial_2_r_pi_2_r_p2xxx_2_uart_2_input_output_8h.html" target="_top" xlink:title=" ">
<polygon fill="white" stroke="#666666" points="644,-101.5 513,-101.5 513,-71.5 644,-71.5 644,-101.5"/>
<text text-anchor="start" x="521" y="-89.5" font-family="Helvetica,sans-Serif" font-size="10.00">Kit/Io/Serial/RPi/RP2xxx</text>
<text text-anchor="middle" x="578.5" y="-78.5" font-family="Helvetica,sans-Serif" font-size="10.00">/Uart/InputOutput.h</text>
</a>
</g>
</g>
<!-- Node1&#45;&gt;Node6 -->
<g id="edge5_Node000001_Node000006" class="edge">
<title>Node1&#45;&gt;Node6</title>
<g id="a_edge5_Node000001_Node000006"><a xlink:title=" ">
<path fill="none" stroke="#63b8ff" d="M448.58,-139.15C475.6,-128.4 514.74,-112.85 542.99,-101.62"/>
<polygon fill="#63b8ff" stroke="#63b8ff" points="447.21,-135.92 439.21,-142.87 449.8,-142.43 447.21,-135.92"/>
</a>
</g>
</g>
<!-- Node7 -->
<g id="Node000007" class="node">
<title>Node7</title>
<g id="a_Node000007"><a xlink:href="_stream_driver_8h.html" target="_top" xlink:title=" ">
<polygon fill="white" stroke="#666666" points="786.5,-101.5 662.5,-101.5 662.5,-71.5 786.5,-71.5 786.5,-101.5"/>
<text text-anchor="start" x="670.5" y="-89.5" font-family="Helvetica,sans-Serif" font-size="10.00">Kit/Io/Serial/ST/M32F4</text>
<text text-anchor="middle" x="724.5" y="-78.5" font-family="Helvetica,sans-Serif" font-size="10.00">/StreamDriver.h</text>
</a>
</g>
</g>
<!-- Node1&#45;&gt;Node7 -->
<g id="edge6_Node000001_Node000007" class="edge">
<title>Node1&#45;&gt;Node7</title>
<g id="a_edge6_Node000001_Node000007"><a xlink:title=" ">
<path fill="none" stroke="#63b8ff" d="M467.49,-143.29C515.43,-135.14 589.73,-121.74 653.5,-107 660.6,-105.36 668.06,-103.48 675.36,-101.56"/>
<polygon fill="#63b8ff" stroke="#63b8ff" points="466.65,-139.89 457.38,-145 467.82,-146.79 466.65,-139.89"/>
</a>
</g>
</g>
<!-- Node5 -->
<g id="Node000005" class="node">
<title>Node5</title>
<g id="a_Node000005"><a xlink:href="_bsp_2_s_t_2freertos___n_u_c_l_e_o-_f413_z_h_2_api_8h.html" target="_top" xlink:title="This BSP is developed/build with a &#39;just&#45;in&#45;time&#39; approach.">
<polygon fill="white" stroke="#666666" points="484,-30 351,-30 351,0 484,0 484,-30"/>
<text text-anchor="start" x="359" y="-18" font-family="Helvetica,sans-Serif" font-size="10.00">Kit/Bsp/ST/freertos</text>
<text text-anchor="middle" x="417.5" y="-7" font-family="Helvetica,sans-Serif" font-size="10.00">_NUCLEO&#45;F413ZH/Api.h</text>
</a>
</g>
</g>
<!-- Node4&#45;&gt;Node5 -->
<g id="edge4_Node000004_Node000005" class="edge">
<title>Node4&#45;&gt;Node5</title>
<g id="a_edge4_Node000004_Node000005"><a xlink:title=" ">
<path fill="none" stroke="#63b8ff" d="M417.5,-61.25C417.5,-50.81 417.5,-38.99 417.5,-30.04"/>
<polygon fill="#63b8ff" stroke="#63b8ff" points="414,-61.44 417.5,-71.44 421,-61.44 414,-61.44"/>
</a>
</g>
</g>
<!-- Node8 -->
<g id="Node000008" class="node">
<title>Node8</title>
<g id="a_Node000008"><a xlink:href="_serial_2_s_t_2_m32_f4_2_input_output_8h.html" target="_top" xlink:title=" ">
<polygon fill="white" stroke="#666666" points="786.5,-30 662.5,-30 662.5,0 786.5,0 786.5,-30"/>
<text text-anchor="start" x="670.5" y="-18" font-family="Helvetica,sans-Serif" font-size="10.00">Kit/Io/Serial/ST/M32F4</text>
<text text-anchor="middle" x="724.5" y="-7" font-family="Helvetica,sans-Serif" font-size="10.00">/InputOutput.h</text>
</a>
</g>
</g>
<!-- Node7&#45;&gt;Node8 -->
<g id="edge7_Node000007_Node000008" class="edge">
<title>Node7&#45;&gt;Node8</title>
<g id="a_edge7_Node000007_Node000008"><a xlink:title=" ">
<path fill="none" stroke="#63b8ff" d="M724.5,-61.25C724.5,-50.81 724.5,-38.99 724.5,-30.04"/>
<polygon fill="#63b8ff" stroke="#63b8ff" points="721,-61.44 724.5,-71.44 728,-61.44 721,-61.44"/>
</a>
</g>
</g>
</g>
</svg>
