<?xml version="1.0" encoding="UTF-8" standalone="no"?>
<!DOCTYPE svg PUBLIC "-//W3C//DTD SVG 1.1//EN"
 "http://www.w3.org/Graphics/SVG/1.1/DTD/svg11.dtd">
<!-- Generated by graphviz version 2.43.0 (0)
 -->
<!-- Title: Kit/Bsp/Api.h Pages: 1 -->
<svg width="628pt" height="159pt"
 viewBox="0.00 0.00 627.50 159.00" xmlns="http://www.w3.org/2000/svg" xmlns:xlink="http://www.w3.org/1999/xlink">
<g id="graph0" class="graph" transform="scale(1 1) rotate(0) translate(4 155)">
<title>Kit/Bsp/Api.h</title>
<!-- Node1 -->
<g id="Node000001" class="node">
<title>Node1</title>
<g id="a_Node000001"><a xlink:title="This file defines a common/generic Board Support Package (BSP) Interface that provides an indirect re...">
<polygon fill="#999999" stroke="#666666" points="370,-151 291,-151 291,-132 370,-132 370,-151"/>
<text text-anchor="middle" x="330.5" y="-139" font-family="Helvetica,sans-Serif" font-size="10.00">Kit/Bsp/Api.h</text>
</a>
</g>
</g>
<!-- Node2 -->
<g id="Node000002" class="node">
<title>Node2</title>
<g id="a_Node000002"><a xlink:href="_s_t_2baremetal___n_u_c_l_e_o-_f413_z_h_2console_8h.html" target="_top" xlink:title="By default the BSP provides a KIT IO Stream for application&#39; console.">
<polygon fill="white" stroke="#666666" points="155,-96 0,-96 0,-66 155,-66 155,-96"/>
<text text-anchor="start" x="8" y="-84" font-family="Helvetica,sans-Serif" font-size="10.00">Kit/Bsp/ST/baremetal</text>
<text text-anchor="middle" x="77.5" y="-73" font-family="Helvetica,sans-Serif" font-size="10.00">_NUCLEO&#45;F413ZH/console.h</text>
</a>
</g>
</g>
<!-- Node1&#45;&gt;Node2 -->
<g id="edge1_Node000001_Node000002" class="edge">
<title>Node1&#45;&gt;Node2</title>
<g id="a_edge1_Node000001_Node000002"><a xlink:title=" ">
<path fill="none" stroke="#63b8ff" d="M283.72,-129.68C242.77,-120.21 182.99,-106.39 138.32,-96.06"/>
<polygon fill="#63b8ff" stroke="#63b8ff" points="283.18,-133.15 293.71,-131.99 284.76,-126.33 283.18,-133.15"/>
</a>
</g>
</g>
<!-- Node3 -->
<g id="Node000003" class="node">
<title>Node3</title>
<g id="a_Node000003"><a xlink:href="_s_t_2freertos___n_u_c_l_e_o-_f413_z_h_2console_8h.html" target="_top" xlink:title="By default the BSP provides a KIT IO Stream for application&#39; console.">
<polygon fill="white" stroke="#666666" points="328,-96 173,-96 173,-66 328,-66 328,-96"/>
<text text-anchor="start" x="181" y="-84" font-family="Helvetica,sans-Serif" font-size="10.00">Kit/Bsp/ST/freertos</text>
<text text-anchor="middle" x="250.5" y="-73" font-family="Helvetica,sans-Serif" font-size="10.00">_NUCLEO&#45;F413ZH/console.h</text>
</a>
</g>
</g>
<!-- Node1&#45;&gt;Node3 -->
<g id="edge2_Node000001_Node000003" class="edge">
<title>Node1&#45;&gt;Node3</title>
<g id="a_edge2_Node000001_Node000003"><a xlink:title=" ">
<path fill="none" stroke="#63b8ff" d="M310.35,-125.77C297.92,-116.68 282.07,-105.09 269.8,-96.11"/>
<polygon fill="#63b8ff" stroke="#63b8ff" points="308.56,-128.79 318.7,-131.87 312.69,-123.14 308.56,-128.79"/>
</a>
</g>
</g>
<!-- Node5 -->
<g id="Node000005" class="node">
<title>Node5</title>
<g id="a_Node000005"><a xlink:href="_serial_2_r_pi_2_r_p2xxx_2_uart_2_input_output_8h.html" target="_top" xlink:title=" ">
<polygon fill="white" stroke="#666666" points="477,-96 346,-96 346,-66 477,-66 477,-96"/>
<text text-anchor="start" x="354" y="-84" font-family="Helvetica,sans-Serif" font-size="10.00">Kit/Io/Serial/RPi/RP2xxx</text>
<text text-anchor="middle" x="411.5" y="-73" font-family="Helvetica,sans-Serif" font-size="10.00">/Uart/InputOutput.h</text>
</a>
</g>
</g>
<!-- Node1&#45;&gt;Node5 -->
<g id="edge4_Node000001_Node000005" class="edge">
<title>Node1&#45;&gt;Node5</title>
<g id="a_edge4_Node000001_Node000005"><a xlink:title=" ">
<path fill="none" stroke="#63b8ff" d="M350.9,-125.77C363.48,-116.68 379.54,-105.09 391.96,-96.11"/>
<polygon fill="#63b8ff" stroke="#63b8ff" points="348.51,-123.18 342.45,-131.87 352.61,-128.85 348.51,-123.18"/>
</a>
</g>
</g>
<!-- Node6 -->
<g id="Node000006" class="node">
<title>Node6</title>
<g id="a_Node000006"><a xlink:href="_stream_driver_8h.html" target="_top" xlink:title=" ">
<polygon fill="white" stroke="#666666" points="619.5,-96 495.5,-96 495.5,-66 619.5,-66 619.5,-96"/>
<text text-anchor="start" x="503.5" y="-84" font-family="Helvetica,sans-Serif" font-size="10.00">Kit/Io/Serial/ST/M32F4</text>
<text text-anchor="middle" x="557.5" y="-73" font-family="Helvetica,sans-Serif" font-size="10.00">/StreamDriver.h</text>
</a>
</g>
</g>
<!-- Node1&#45;&gt;Node6 -->
<g id="edge5_Node000001_Node000006" class="edge">
<title>Node1&#45;&gt;Node6</title>
<g id="a_edge5_Node000001_Node000006"><a xlink:title=" ">
<path fill="none" stroke="#63b8ff" d="M373.41,-129.44C410.12,-119.98 463.19,-106.3 502.93,-96.06"/>
<polygon fill="#63b8ff" stroke="#63b8ff" points="372.32,-126.11 363.51,-131.99 374.06,-132.89 372.32,-126.11"/>
</a>
</g>
</g>
<!-- Node4 -->
<g id="Node000004" class="node">
<title>Node4</title>
<g id="a_Node000004"><a xlink:href="_bsp_2_s_t_2freertos___n_u_c_l_e_o-_f413_z_h_2_api_8h.html" target="_top" xlink:title="This BSP is developed/build with a &#39;just&#45;in&#45;time&#39; approach.">
<polygon fill="white" stroke="#666666" points="317,-30 184,-30 184,0 317,0 317,-30"/>
<text text-anchor="start" x="192" y="-18" font-family="Helvetica,sans-Serif" font-size="10.00">Kit/Bsp/ST/freertos</text>
<text text-anchor="middle" x="250.5" y="-7" font-family="Helvetica,sans-Serif" font-size="10.00">_NUCLEO&#45;F413ZH/Api.h</text>
</a>
</g>
</g>
<!-- Node3&#45;&gt;Node4 -->
<g id="edge3_Node000003_Node000004" class="edge">
<title>Node3&#45;&gt;Node4</title>
<g id="a_edge3_Node000003_Node000004"><a xlink:title=" ">
<path fill="none" stroke="#63b8ff" d="M250.5,-55.54C250.5,-46.96 250.5,-37.61 250.5,-30.16"/>
<polygon fill="#63b8ff" stroke="#63b8ff" points="247,-55.8 250.5,-65.8 254,-55.8 247,-55.8"/>
</a>
</g>
</g>
<!-- Node7 -->
<g id="Node000007" class="node">
<title>Node7</title>
<g id="a_Node000007"><a xlink:href="_serial_2_s_t_2_m32_f4_2_input_output_8h.html" target="_top" xlink:title=" ">
<polygon fill="white" stroke="#666666" points="619.5,-30 495.5,-30 495.5,0 619.5,0 619.5,-30"/>
<text text-anchor="start" x="503.5" y="-18" font-family="Helvetica,sans-Serif" font-size="10.00">Kit/Io/Serial/ST/M32F4</text>
<text text-anchor="middle" x="557.5" y="-7" font-family="Helvetica,sans-Serif" font-size="10.00">/InputOutput.h</text>
</a>
</g>
</g>
<!-- Node6&#45;&gt;Node7 -->
<g id="edge6_Node000006_Node000007" class="edge">
<title>Node6&#45;&gt;Node7</title>
<g id="a_edge6_Node000006_Node000007"><a xlink:title=" ">
<path fill="none" stroke="#63b8ff" d="M557.5,-55.54C557.5,-46.96 557.5,-37.61 557.5,-30.16"/>
<polygon fill="#63b8ff" stroke="#63b8ff" points="554,-55.8 557.5,-65.8 561,-55.8 554,-55.8"/>
</a>
</g>
</g>
</g>
</svg>
