<?xml version="1.0" encoding="UTF-8" standalone="no"?>
<!DOCTYPE svg PUBLIC "-//W3C//DTD SVG 1.1//EN"
 "http://www.w3.org/Graphics/SVG/1.1/DTD/svg11.dtd">
<!-- Generated by graphviz version 2.43.0 (0)
 -->
<!-- Title: Kit/Persistence/Record/Chunk/Common.h Pages: 1 -->
<svg width="2311pt" height="665pt"
 viewBox="0.00 0.00 2310.78 665.00" xmlns="http://www.w3.org/2000/svg" xmlns:xlink="http://www.w3.org/1999/xlink">
<g id="graph0" class="graph" transform="scale(1 1) rotate(0) translate(4 661)">
<title>Kit/Persistence/Record/Chunk/Common.h</title>
<!-- Node1 -->
<g id="Node000001" class="node">
<title>Node1</title>
<g id="a_Node000001"><a xlink:title=" ">
<polygon fill="#999999" stroke="#666666" points="896,-657 770,-657 770,-627 896,-627 896,-657"/>
<text text-anchor="start" x="778" y="-645" font-family="Helvetica,sans-Serif" font-size="10.00">Kit/Persistence/Record</text>
<text text-anchor="middle" x="833" y="-634" font-family="Helvetica,sans-Serif" font-size="10.00">/Chunk/Common.h</text>
</a>
</g>
</g>
<!-- Node2 -->
<g id="Node000002" class="node">
<title>Node2</title>
<g id="a_Node000002"><a xlink:title=" ">
<polygon fill="#e0e0e0" stroke="#999999" points="2285.5,-129 2212.5,-129 2212.5,-110 2285.5,-110 2285.5,-129"/>
<text text-anchor="middle" x="2249" y="-117" font-family="Helvetica,sans-Serif" font-size="10.00">kit_config.h</text>
</a>
</g>
</g>
<!-- Node1&#45;&gt;Node2 -->
<g id="edge1_Node000001_Node000002" class="edge">
<title>Node1&#45;&gt;Node2</title>
<g id="a_edge1_Node000001_Node000002"><a xlink:title=" ">
<path fill="none" stroke="#63b8ff" d="M896.04,-638.56C1170.44,-627.52 2247,-579.83 2247,-511 2247,-511 2247,-511 2247,-228.5 2247,-197.18 2247.85,-160.77 2248.44,-139.23"/>
<polygon fill="#63b8ff" stroke="#63b8ff" points="2251.94,-139.27 2248.73,-129.18 2244.95,-139.07 2251.94,-139.27"/>
</a>
</g>
</g>
<!-- Node3 -->
<g id="Node000003" class="node">
<title>Node3</title>
<g id="a_Node000003"><a xlink:href="_i_payload_8h.html" target="_top" xlink:title=" ">
<polygon fill="white" stroke="#666666" points="987,-525 861,-525 861,-495 987,-495 987,-525"/>
<text text-anchor="start" x="869" y="-513" font-family="Helvetica,sans-Serif" font-size="10.00">Kit/Persistence/Record</text>
<text text-anchor="middle" x="924" y="-502" font-family="Helvetica,sans-Serif" font-size="10.00">/IPayload.h</text>
</a>
</g>
</g>
<!-- Node1&#45;&gt;Node3 -->
<g id="edge2_Node000001_Node000003" class="edge">
<title>Node1&#45;&gt;Node3</title>
<g id="a_edge2_Node000001_Node000003"><a xlink:title=" ">
<path fill="none" stroke="#63b8ff" d="M862.93,-626.85C877.7,-618.41 894.54,-606.34 905,-591 916.22,-574.55 920.85,-552.29 922.75,-535.42"/>
<polygon fill="#63b8ff" stroke="#63b8ff" points="926.25,-535.5 923.64,-525.23 919.28,-534.89 926.25,-535.5"/>
</a>
</g>
</g>
<!-- Node34 -->
<g id="Node000034" class="node">
<title>Node34</title>
<g id="a_Node000034"><a xlink:href="_i_chunk_8h.html" target="_top" xlink:title=" ">
<polygon fill="white" stroke="#666666" points="896,-591 770,-591 770,-561 896,-561 896,-591"/>
<text text-anchor="start" x="778" y="-579" font-family="Helvetica,sans-Serif" font-size="10.00">Kit/Persistence/Record</text>
<text text-anchor="middle" x="833" y="-568" font-family="Helvetica,sans-Serif" font-size="10.00">/IChunk.h</text>
</a>
</g>
</g>
<!-- Node1&#45;&gt;Node34 -->
<g id="edge54_Node000001_Node000034" class="edge">
<title>Node1&#45;&gt;Node34</title>
<g id="a_edge54_Node000001_Node000034"><a xlink:title=" ">
<path fill="none" stroke="#63b8ff" d="M833,-626.8C833,-619.34 833,-609.99 833,-601.41"/>
<polygon fill="#63b8ff" stroke="#63b8ff" points="836.5,-601.16 833,-591.16 829.5,-601.16 836.5,-601.16"/>
</a>
</g>
</g>
<!-- Node43 -->
<g id="Node000043" class="node">
<title>Node43</title>
<g id="a_Node000043"><a xlink:href="_i_media_8h.html" target="_top" xlink:title=" ">
<polygon fill="white" stroke="#666666" points="805,-525 679,-525 679,-495 805,-495 805,-525"/>
<text text-anchor="start" x="687" y="-513" font-family="Helvetica,sans-Serif" font-size="10.00">Kit/Persistence/Record</text>
<text text-anchor="middle" x="742" y="-502" font-family="Helvetica,sans-Serif" font-size="10.00">/IMedia.h</text>
</a>
</g>
</g>
<!-- Node1&#45;&gt;Node43 -->
<g id="edge68_Node000001_Node000043" class="edge">
<title>Node1&#45;&gt;Node43</title>
<g id="a_edge68_Node000001_Node000043"><a xlink:title=" ">
<path fill="none" stroke="#63b8ff" d="M803.07,-626.85C788.3,-618.41 771.46,-606.34 761,-591 749.78,-574.55 745.15,-552.29 743.25,-535.42"/>
<polygon fill="#63b8ff" stroke="#63b8ff" points="746.72,-534.89 742.36,-525.23 739.75,-535.5 746.72,-534.89"/>
</a>
</g>
</g>
<!-- Node44 -->
<g id="Node000044" class="node">
<title>Node44</title>
<g id="a_Node000044"><a xlink:href="_i_edc_8h.html" target="_top" xlink:title=" ">
<polygon fill="white" stroke="#666666" points="361,-459 245,-459 245,-440 361,-440 361,-459"/>
<text text-anchor="middle" x="303" y="-447" font-family="Helvetica,sans-Serif" font-size="10.00">Kit/Checksum/IEdc.h</text>
</a>
</g>
</g>
<!-- Node1&#45;&gt;Node44 -->
<g id="edge71_Node000001_Node000044" class="edge">
<title>Node1&#45;&gt;Node44</title>
<g id="a_edge71_Node000001_Node000044"><a xlink:title=" ">
<path fill="none" stroke="#63b8ff" d="M794.03,-626.99C694.04,-591.05 429.73,-496.05 336.3,-462.47"/>
<polygon fill="#63b8ff" stroke="#63b8ff" points="337.37,-459.14 326.78,-459.05 335.01,-465.72 337.37,-459.14"/>
</a>
</g>
</g>
<!-- Node4 -->
<g id="Node000004" class="node">
<title>Node4</title>
<g id="a_Node000004"><a xlink:href="_persistence_2_types_8h.html" target="_top" xlink:title=" ">
<polygon fill="white" stroke="#666666" points="1130.5,-459 1001.5,-459 1001.5,-440 1130.5,-440 1130.5,-459"/>
<text text-anchor="middle" x="1066" y="-447" font-family="Helvetica,sans-Serif" font-size="10.00">Kit/Persistence/Types.h</text>
</a>
</g>
</g>
<!-- Node3&#45;&gt;Node4 -->
<g id="edge3_Node000003_Node000004" class="edge">
<title>Node3&#45;&gt;Node4</title>
<g id="a_edge3_Node000003_Node000004"><a xlink:title=" ">
<path fill="none" stroke="#63b8ff" d="M958.01,-494.99C981.6,-485.27 1012.74,-472.44 1035.52,-463.06"/>
<polygon fill="#63b8ff" stroke="#63b8ff" points="1037.12,-466.18 1045.03,-459.14 1034.45,-459.71 1037.12,-466.18"/>
</a>
</g>
</g>
<!-- Node4&#45;&gt;Node2 -->
<g id="edge4_Node000004_Node000002" class="edge">
<title>Node4&#45;&gt;Node2</title>
<g id="a_edge4_Node000004_Node000002"><a xlink:title=" ">
<path fill="none" stroke="#63b8ff" d="M1130.67,-445.8C1372.25,-435.3 2208,-395.02 2208,-340.5 2208,-340.5 2208,-340.5 2208,-228.5 2208,-194.57 2225.91,-158.31 2238.06,-137.62"/>
<polygon fill="#63b8ff" stroke="#63b8ff" points="2241.07,-139.4 2243.3,-129.04 2235.1,-135.75 2241.07,-139.4"/>
</a>
</g>
</g>
<!-- Node5 -->
<g id="Node000005" class="node">
<title>Node5</title>
<g id="a_Node000005"><a xlink:title=" ">
<polygon fill="#e0e0e0" stroke="#999999" points="1204.5,-19 1151.5,-19 1151.5,0 1204.5,0 1204.5,-19"/>
<text text-anchor="middle" x="1178" y="-7" font-family="Helvetica,sans-Serif" font-size="10.00">stdint.h</text>
</a>
</g>
</g>
<!-- Node4&#45;&gt;Node5 -->
<g id="edge5_Node000004_Node000005" class="edge">
<title>Node4&#45;&gt;Node5</title>
<g id="a_edge5_Node000004_Node000005"><a xlink:title=" ">
<path fill="none" stroke="#63b8ff" d="M1120.11,-439.92C1173.76,-427.97 1248,-400.57 1248,-340.5 1248,-340.5 1248,-340.5 1248,-283.5 1248,-184.51 1204.28,-71.47 1185.94,-28.42"/>
<polygon fill="#63b8ff" stroke="#63b8ff" points="1189.15,-27.03 1181.96,-19.24 1182.73,-29.81 1189.15,-27.03"/>
</a>
</g>
</g>
<!-- Node6 -->
<g id="Node000006" class="node">
<title>Node6</title>
<g id="a_Node000006"><a xlink:href="_cursor_l_e_8h.html" target="_top" xlink:title=" ">
<polygon fill="white" stroke="#666666" points="1130,-404 1002,-404 1002,-385 1130,-385 1130,-404"/>
<text text-anchor="middle" x="1066" y="-392" font-family="Helvetica,sans-Serif" font-size="10.00">Kit/Memory/CursorLE.h</text>
</a>
</g>
</g>
<!-- Node4&#45;&gt;Node6 -->
<g id="edge6_Node000004_Node000006" class="edge">
<title>Node4&#45;&gt;Node6</title>
<g id="a_edge6_Node000004_Node000006"><a xlink:title=" ">
<path fill="none" stroke="#63b8ff" d="M1066,-439.75C1066,-432.8 1066,-422.85 1066,-414.13"/>
<polygon fill="#63b8ff" stroke="#63b8ff" points="1069.5,-414.09 1066,-404.09 1062.5,-414.09 1069.5,-414.09"/>
</a>
</g>
</g>
<!-- Node7 -->
<g id="Node000007" class="node">
<title>Node7</title>
<g id="a_Node000007"><a xlink:href="_cursor_base_8h.html" target="_top" xlink:title=" ">
<polygon fill="white" stroke="#666666" points="1013.5,-349 872.5,-349 872.5,-330 1013.5,-330 1013.5,-349"/>
<text text-anchor="middle" x="943" y="-337" font-family="Helvetica,sans-Serif" font-size="10.00">Kit/Memory/CursorBase.h</text>
</a>
</g>
</g>
<!-- Node6&#45;&gt;Node7 -->
<g id="edge7_Node000006_Node000007" class="edge">
<title>Node6&#45;&gt;Node7</title>
<g id="a_edge7_Node000006_Node000007"><a xlink:title=" ">
<path fill="none" stroke="#63b8ff" d="M1046.24,-384.98C1026.27,-376.38 995.2,-362.99 972.35,-353.15"/>
<polygon fill="#63b8ff" stroke="#63b8ff" points="973.69,-349.91 963.12,-349.17 970.92,-356.34 973.69,-349.91"/>
</a>
</g>
</g>
<!-- Node10 -->
<g id="Node000010" class="node">
<title>Node10</title>
<g id="a_Node000010"><a xlink:href="endian_8h.html" target="_top" xlink:title="This file provides a set of macros/method to convert between the &#39;host&#39; platform and Big/Little endia...">
<polygon fill="white" stroke="#666666" points="1219.5,-349 1118.5,-349 1118.5,-330 1219.5,-330 1219.5,-349"/>
<text text-anchor="middle" x="1169" y="-337" font-family="Helvetica,sans-Serif" font-size="10.00">Kit/Type/endian.h</text>
</a>
</g>
</g>
<!-- Node6&#45;&gt;Node10 -->
<g id="edge11_Node000006_Node000010" class="edge">
<title>Node6&#45;&gt;Node10</title>
<g id="a_edge11_Node000006_Node000010"><a xlink:title=" ">
<path fill="none" stroke="#63b8ff" d="M1082.55,-384.98C1098.89,-376.57 1124.13,-363.59 1143.13,-353.81"/>
<polygon fill="#63b8ff" stroke="#63b8ff" points="1144.86,-356.86 1152.15,-349.17 1141.66,-350.63 1144.86,-356.86"/>
</a>
</g>
</g>
<!-- Node33 -->
<g id="Node000033" class="node">
<title>Node33</title>
<g id="a_Node000033"><a xlink:title=" ">
<polygon fill="#e0e0e0" stroke="#999999" points="1100.5,-349 1031.5,-349 1031.5,-330 1100.5,-330 1100.5,-349"/>
<text text-anchor="middle" x="1066" y="-337" font-family="Helvetica,sans-Serif" font-size="10.00">type_traits</text>
</a>
</g>
</g>
<!-- Node6&#45;&gt;Node33 -->
<g id="edge53_Node000006_Node000033" class="edge">
<title>Node6&#45;&gt;Node33</title>
<g id="a_edge53_Node000006_Node000033"><a xlink:title=" ">
<path fill="none" stroke="#63b8ff" d="M1066,-384.75C1066,-377.8 1066,-367.85 1066,-359.13"/>
<polygon fill="#63b8ff" stroke="#63b8ff" points="1069.5,-359.09 1066,-349.09 1062.5,-359.09 1069.5,-359.09"/>
</a>
</g>
</g>
<!-- Node7&#45;&gt;Node5 -->
<g id="edge9_Node000007_Node000005" class="edge">
<title>Node7&#45;&gt;Node5</title>
<g id="a_edge9_Node000007_Node000005"><a xlink:title=" ">
<path fill="none" stroke="#63b8ff" d="M942.37,-329.77C941.68,-317.43 941.14,-294.25 945,-275 966.18,-169.51 960.07,-119.74 1046,-55 1074.21,-33.74 1113.2,-22.26 1141.49,-16.31"/>
<polygon fill="#63b8ff" stroke="#63b8ff" points="1142.25,-19.73 1151.38,-14.36 1140.9,-12.86 1142.25,-19.73"/>
</a>
</g>
</g>
<!-- Node8 -->
<g id="Node000008" class="node">
<title>Node8</title>
<g id="a_Node000008"><a xlink:title=" ">
<polygon fill="#e0e0e0" stroke="#999999" points="1072,-294 1022,-294 1022,-275 1072,-275 1072,-294"/>
<text text-anchor="middle" x="1047" y="-282" font-family="Helvetica,sans-Serif" font-size="10.00">cstdint</text>
</a>
</g>
</g>
<!-- Node7&#45;&gt;Node8 -->
<g id="edge8_Node000007_Node000008" class="edge">
<title>Node7&#45;&gt;Node8</title>
<g id="a_edge8_Node000007_Node000008"><a xlink:title=" ">
<path fill="none" stroke="#63b8ff" d="M959.71,-329.98C976.21,-321.57 1001.7,-308.59 1020.88,-298.81"/>
<polygon fill="#63b8ff" stroke="#63b8ff" points="1022.67,-301.83 1029.99,-294.17 1019.49,-295.59 1022.67,-301.83"/>
</a>
</g>
</g>
<!-- Node9 -->
<g id="Node000009" class="node">
<title>Node9</title>
<g id="a_Node000009"><a xlink:title=" ">
<polygon fill="#e0e0e0" stroke="#999999" points="1003.5,-294 954.5,-294 954.5,-275 1003.5,-275 1003.5,-294"/>
<text text-anchor="middle" x="979" y="-282" font-family="Helvetica,sans-Serif" font-size="10.00">cstdlib</text>
</a>
</g>
</g>
<!-- Node7&#45;&gt;Node9 -->
<g id="edge10_Node000007_Node000009" class="edge">
<title>Node7&#45;&gt;Node9</title>
<g id="a_edge10_Node000007_Node000009"><a xlink:title=" ">
<path fill="none" stroke="#63b8ff" d="M948.94,-329.75C953.98,-322.34 961.34,-311.5 967.51,-302.41"/>
<polygon fill="#63b8ff" stroke="#63b8ff" points="970.44,-304.33 973.17,-294.09 964.65,-300.39 970.44,-304.33"/>
</a>
</g>
</g>
<!-- Node10&#45;&gt;Node2 -->
<g id="edge12_Node000010_Node000002" class="edge">
<title>Node10&#45;&gt;Node2</title>
<g id="a_edge12_Node000010_Node000002"><a xlink:title=" ">
<path fill="none" stroke="#63b8ff" d="M1219.76,-336.59C1365.92,-329.77 1798.78,-300.44 2135,-184 2169.84,-171.93 2206.46,-149.54 2228.51,-134.84"/>
<polygon fill="#63b8ff" stroke="#63b8ff" points="2230.72,-137.57 2237.02,-129.05 2226.78,-131.78 2230.72,-137.57"/>
</a>
</g>
</g>
<!-- Node10&#45;&gt;Node5 -->
<g id="edge13_Node000010_Node000005" class="edge">
<title>Node10&#45;&gt;Node5</title>
<g id="a_edge13_Node000010_Node000005"><a xlink:title=" ">
<path fill="none" stroke="#63b8ff" d="M1155.2,-329.87C1109.62,-300.23 969.45,-199.46 1019,-110 1045,-63.06 1103.4,-35.33 1141.72,-21.52"/>
<polygon fill="#63b8ff" stroke="#63b8ff" points="1143.17,-24.72 1151.48,-18.15 1140.88,-18.11 1143.17,-24.72"/>
</a>
</g>
</g>
<!-- Node11 -->
<g id="Node000011" class="node">
<title>Node11</title>
<g id="a_Node000011"><a xlink:href="_string_8h.html" target="_top" xlink:title=" ">
<polygon fill="white" stroke="#666666" points="1195.5,-294 1142.5,-294 1142.5,-275 1195.5,-275 1195.5,-294"/>
<text text-anchor="middle" x="1169" y="-282" font-family="Helvetica,sans-Serif" font-size="10.00">string.h</text>
</a>
</g>
</g>
<!-- Node10&#45;&gt;Node11 -->
<g id="edge14_Node000010_Node000011" class="edge">
<title>Node10&#45;&gt;Node11</title>
<g id="a_edge14_Node000010_Node000011"><a xlink:title=" ">
<path fill="none" stroke="#63b8ff" d="M1169,-329.75C1169,-322.8 1169,-312.85 1169,-304.13"/>
<polygon fill="#63b8ff" stroke="#63b8ff" points="1172.5,-304.09 1169,-294.09 1165.5,-304.09 1172.5,-304.09"/>
</a>
</g>
</g>
<!-- Node12 -->
<g id="Node000012" class="node">
<title>Node12</title>
<g id="a_Node000012"><a xlink:href="_model_point_base_8h.html" target="_top" xlink:title=" ">
<polygon fill="white" stroke="#666666" points="1551.5,-239 1410.5,-239 1410.5,-220 1551.5,-220 1551.5,-239"/>
<text text-anchor="middle" x="1481" y="-227" font-family="Helvetica,sans-Serif" font-size="10.00">Kit/Dm/ModelPointBase.h</text>
</a>
</g>
</g>
<!-- Node11&#45;&gt;Node12 -->
<g id="edge15_Node000011_Node000012" class="edge">
<title>Node11&#45;&gt;Node12</title>
<g id="a_edge15_Node000011_Node000012"><a xlink:title=" ">
<path fill="none" stroke="#63b8ff" d="M1195.6,-278.98C1245.15,-270.56 1352.71,-252.29 1420.71,-240.74"/>
<polygon fill="#63b8ff" stroke="#63b8ff" points="1421.59,-244.14 1430.86,-239.02 1420.41,-237.24 1421.59,-244.14"/>
</a>
</g>
</g>
<!-- Node32 -->
<g id="Node000032" class="node">
<title>Node32</title>
<g id="a_Node000032"><a xlink:href="_observer_8h.html" target="_top" xlink:title=" ">
<polygon fill="white" stroke="#666666" points="1220,-239 1114,-239 1114,-220 1220,-220 1220,-239"/>
<text text-anchor="middle" x="1167" y="-227" font-family="Helvetica,sans-Serif" font-size="10.00">Kit/Dm/Observer.h</text>
</a>
</g>
</g>
<!-- Node11&#45;&gt;Node32 -->
<g id="edge49_Node000011_Node000032" class="edge">
<title>Node11&#45;&gt;Node32</title>
<g id="a_edge49_Node000011_Node000032"><a xlink:title=" ">
<path fill="none" stroke="#63b8ff" d="M1168.67,-274.75C1168.41,-267.8 1168.03,-257.85 1167.7,-249.13"/>
<polygon fill="#63b8ff" stroke="#63b8ff" points="1171.2,-248.95 1167.32,-239.09 1164.2,-249.21 1171.2,-248.95"/>
</a>
</g>
</g>
<!-- Node12&#45;&gt;Node5 -->
<g id="edge47_Node000012_Node000005" class="edge">
<title>Node12&#45;&gt;Node5</title>
<g id="a_edge47_Node000012_Node000005"><a xlink:title=" ">
<path fill="none" stroke="#63b8ff" d="M1464.62,-219.93C1450.25,-211.89 1429.3,-198.91 1414,-184 1385.21,-155.95 1392.03,-136.72 1362,-110 1315.85,-68.95 1249.8,-38.52 1210.67,-22.73"/>
<polygon fill="#63b8ff" stroke="#63b8ff" points="1211.91,-19.46 1201.33,-19.03 1209.34,-25.96 1211.91,-19.46"/>
</a>
</g>
</g>
<!-- Node13 -->
<g id="Node000013" class="node">
<title>Node13</title>
<g id="a_Node000013"><a xlink:href="_i_model_point_8h.html" target="_top" xlink:title=" ">
<polygon fill="white" stroke="#666666" points="1696,-184 1576,-184 1576,-165 1696,-165 1696,-184"/>
<text text-anchor="middle" x="1636" y="-172" font-family="Helvetica,sans-Serif" font-size="10.00">Kit/Dm/IModelPoint.h</text>
</a>
</g>
</g>
<!-- Node12&#45;&gt;Node13 -->
<g id="edge16_Node000012_Node000013" class="edge">
<title>Node12&#45;&gt;Node13</title>
<g id="a_edge16_Node000012_Node000013"><a xlink:title=" ">
<path fill="none" stroke="#63b8ff" d="M1505.9,-219.98C1531.7,-211.16 1572.22,-197.31 1601.18,-187.41"/>
<polygon fill="#63b8ff" stroke="#63b8ff" points="1602.57,-190.63 1610.9,-184.08 1600.31,-184.01 1602.57,-190.63"/>
</a>
</g>
</g>
<!-- Node18 -->
<g id="Node000018" class="node">
<title>Node18</title>
<g id="a_Node000018"><a xlink:title=" ">
<polygon fill="#e0e0e0" stroke="#999999" points="2263.5,-19 2210.5,-19 2210.5,0 2263.5,0 2263.5,-19"/>
<text text-anchor="middle" x="2237" y="-7" font-family="Helvetica,sans-Serif" font-size="10.00">stdlib.h</text>
</a>
</g>
</g>
<!-- Node12&#45;&gt;Node18 -->
<g id="edge48_Node000012_Node000018" class="edge">
<title>Node12&#45;&gt;Node18</title>
<g id="a_edge48_Node000012_Node000018"><a xlink:title=" ">
<path fill="none" stroke="#63b8ff" d="M1551.69,-226.04C1697.07,-220.59 2025.13,-206.22 2135,-184 2208.7,-169.1 2251.32,-190.21 2295,-129 2319.25,-95.02 2279.57,-49.35 2254.7,-25.87"/>
<polygon fill="#63b8ff" stroke="#63b8ff" points="2256.99,-23.22 2247.24,-19.07 2252.27,-28.39 2256.99,-23.22"/>
</a>
</g>
</g>
<!-- Node24 -->
<g id="Node000024" class="node">
<title>Node24</title>
<g id="a_Node000024"><a xlink:href="_i_observer_8h.html" target="_top" xlink:title=" ">
<polygon fill="white" stroke="#666666" points="1353.5,-129 1244.5,-129 1244.5,-110 1353.5,-110 1353.5,-129"/>
<text text-anchor="middle" x="1299" y="-117" font-family="Helvetica,sans-Serif" font-size="10.00">Kit/Dm/IObserver.h</text>
</a>
</g>
</g>
<!-- Node12&#45;&gt;Node24 -->
<g id="edge43_Node000012_Node000024" class="edge">
<title>Node12&#45;&gt;Node24</title>
<g id="a_edge43_Node000012_Node000024"><a xlink:title=" ">
<path fill="none" stroke="#63b8ff" d="M1450.79,-219.96C1427.17,-212.52 1394.09,-200.34 1368,-184 1347.01,-170.85 1326.6,-150.9 1313.49,-136.88"/>
<polygon fill="#63b8ff" stroke="#63b8ff" points="1315.99,-134.43 1306.67,-129.41 1310.82,-139.15 1315.99,-134.43"/>
</a>
</g>
</g>
<!-- Node27 -->
<g id="Node000027" class="node">
<title>Node27</title>
<g id="a_Node000027"><a xlink:href="_i_model_database_8h.html" target="_top" xlink:title=" ">
<polygon fill="white" stroke="#666666" points="2086,-184 1944,-184 1944,-165 2086,-165 2086,-184"/>
<text text-anchor="middle" x="2015" y="-172" font-family="Helvetica,sans-Serif" font-size="10.00">Kit/Dm/IModelDatabase.h</text>
</a>
</g>
</g>
<!-- Node12&#45;&gt;Node27 -->
<g id="edge36_Node000012_Node000027" class="edge">
<title>Node12&#45;&gt;Node27</title>
<g id="a_edge36_Node000012_Node000027"><a xlink:title=" ">
<path fill="none" stroke="#63b8ff" d="M1551.64,-221.49C1650.39,-211.69 1829.3,-193.93 1933.55,-183.58"/>
<polygon fill="#63b8ff" stroke="#63b8ff" points="1934.11,-187.05 1943.71,-182.58 1933.42,-180.08 1934.11,-187.05"/>
</a>
</g>
</g>
<!-- Node30 -->
<g id="Node000030" class="node">
<title>Node30</title>
<g id="a_Node000030"><a xlink:href="_d_list_8h.html" target="_top" xlink:title=" ">
<polygon fill="white" stroke="#666666" points="1539.5,-184 1422.5,-184 1422.5,-165 1539.5,-165 1539.5,-184"/>
<text text-anchor="middle" x="1481" y="-172" font-family="Helvetica,sans-Serif" font-size="10.00">Kit/Container/DList.h</text>
</a>
</g>
</g>
<!-- Node12&#45;&gt;Node30 -->
<g id="edge44_Node000012_Node000030" class="edge">
<title>Node12&#45;&gt;Node30</title>
<g id="a_edge44_Node000012_Node000030"><a xlink:title=" ">
<path fill="none" stroke="#63b8ff" d="M1481,-219.75C1481,-212.8 1481,-202.85 1481,-194.13"/>
<polygon fill="#63b8ff" stroke="#63b8ff" points="1484.5,-194.09 1481,-184.09 1477.5,-194.09 1484.5,-194.09"/>
</a>
</g>
</g>
<!-- Node13&#45;&gt;Node2 -->
<g id="edge17_Node000013_Node000002" class="edge">
<title>Node13&#45;&gt;Node2</title>
<g id="a_edge17_Node000013_Node000002"><a xlink:title=" ">
<path fill="none" stroke="#63b8ff" d="M1696.34,-170.93C1798.51,-166.1 2012.23,-153.96 2202.05,-129.13"/>
<polygon fill="#63b8ff" stroke="#63b8ff" points="2202.76,-132.57 2212.22,-127.78 2201.84,-125.63 2202.76,-132.57"/>
</a>
</g>
</g>
<!-- Node13&#45;&gt;Node5 -->
<g id="edge35_Node000013_Node000005" class="edge">
<title>Node13&#45;&gt;Node5</title>
<g id="a_edge35_Node000013_Node000005"><a xlink:title=" ">
<path fill="none" stroke="#63b8ff" d="M1628.23,-164.94C1620.46,-156.2 1608.34,-142.08 1599,-129 1576.63,-97.67 1586.38,-75.81 1554,-55 1498.38,-19.26 1298.03,-12.21 1214.73,-10.83"/>
<polygon fill="#63b8ff" stroke="#63b8ff" points="1214.75,-7.33 1204.7,-10.68 1214.65,-14.33 1214.75,-7.33"/>
</a>
</g>
</g>
<!-- Node14 -->
<g id="Node000014" class="node">
<title>Node14</title>
<g id="a_Node000014"><a xlink:href="_keyed_item_8h.html" target="_top" xlink:title=" ">
<polygon fill="white" stroke="#666666" points="1827.5,-129 1682.5,-129 1682.5,-110 1827.5,-110 1827.5,-129"/>
<text text-anchor="middle" x="1755" y="-117" font-family="Helvetica,sans-Serif" font-size="10.00">Kit/Container/KeyedItem.h</text>
</a>
</g>
</g>
<!-- Node13&#45;&gt;Node14 -->
<g id="edge18_Node000013_Node000014" class="edge">
<title>Node13&#45;&gt;Node14</title>
<g id="a_edge18_Node000013_Node000014"><a xlink:title=" ">
<path fill="none" stroke="#63b8ff" d="M1655.12,-164.98C1674.35,-156.42 1704.23,-143.11 1726.31,-133.28"/>
<polygon fill="#63b8ff" stroke="#63b8ff" points="1727.82,-136.44 1735.53,-129.17 1724.97,-130.04 1727.82,-136.44"/>
</a>
</g>
</g>
<!-- Node20 -->
<g id="Node000020" class="node">
<title>Node20</title>
<g id="a_Node000020"><a xlink:href="_i_string_8h.html" target="_top" xlink:title=" ">
<polygon fill="white" stroke="#666666" points="2063.5,-129 1966.5,-129 1966.5,-110 2063.5,-110 2063.5,-129"/>
<text text-anchor="middle" x="2015" y="-117" font-family="Helvetica,sans-Serif" font-size="10.00">Kit/Text/IString.h</text>
</a>
</g>
</g>
<!-- Node13&#45;&gt;Node20 -->
<g id="edge25_Node000013_Node000020" class="edge">
<title>Node13&#45;&gt;Node20</title>
<g id="a_edge25_Node000013_Node000020"><a xlink:title=" ">
<path fill="none" stroke="#63b8ff" d="M1696.26,-165.37C1758.83,-156.88 1859.83,-143.06 1956.55,-129.2"/>
<polygon fill="#63b8ff" stroke="#63b8ff" points="1957.09,-132.65 1966.5,-127.77 1956.1,-125.73 1957.09,-132.65"/>
</a>
</g>
</g>
<!-- Node13&#45;&gt;Node24 -->
<g id="edge30_Node000013_Node000024" class="edge">
<title>Node13&#45;&gt;Node24</title>
<g id="a_edge30_Node000013_Node000024"><a xlink:title=" ">
<path fill="none" stroke="#63b8ff" d="M1581.86,-164.98C1522.37,-155.63 1426.89,-140.61 1363.56,-130.65"/>
<polygon fill="#63b8ff" stroke="#63b8ff" points="1363.71,-127.13 1353.29,-129.04 1362.62,-134.05 1363.71,-127.13"/>
</a>
</g>
</g>
<!-- Node25 -->
<g id="Node000025" class="node">
<title>Node25</title>
<g id="a_Node000025"><a xlink:href="_arduino_8h_source.html" target="_top" xlink:title=" ">
<polygon fill="white" stroke="#666666" points="1948.5,-129 1845.5,-129 1845.5,-110 1948.5,-110 1948.5,-129"/>
<text text-anchor="middle" x="1897" y="-117" font-family="Helvetica,sans-Serif" font-size="10.00">Kit/Json/Arduino.h</text>
</a>
</g>
</g>
<!-- Node13&#45;&gt;Node25 -->
<g id="edge33_Node000013_Node000025" class="edge">
<title>Node13&#45;&gt;Node25</title>
<g id="a_edge33_Node000013_Node000025"><a xlink:title=" ">
<path fill="none" stroke="#63b8ff" d="M1677.93,-164.98C1723.27,-155.78 1795.61,-141.09 1844.65,-131.13"/>
<polygon fill="#63b8ff" stroke="#63b8ff" points="1845.63,-134.5 1854.74,-129.08 1844.24,-127.64 1845.63,-134.5"/>
</a>
</g>
</g>
<!-- Node26 -->
<g id="Node000026" class="node">
<title>Node26</title>
<g id="a_Node000026"><a xlink:title=" ">
<polygon fill="#e0e0e0" stroke="#999999" points="1664,-129 1608,-129 1608,-110 1664,-110 1664,-129"/>
<text text-anchor="middle" x="1636" y="-117" font-family="Helvetica,sans-Serif" font-size="10.00">stddef.h</text>
</a>
</g>
</g>
<!-- Node13&#45;&gt;Node26 -->
<g id="edge34_Node000013_Node000026" class="edge">
<title>Node13&#45;&gt;Node26</title>
<g id="a_edge34_Node000013_Node000026"><a xlink:title=" ">
<path fill="none" stroke="#63b8ff" d="M1636,-164.75C1636,-157.8 1636,-147.85 1636,-139.13"/>
<polygon fill="#63b8ff" stroke="#63b8ff" points="1639.5,-139.09 1636,-129.09 1632.5,-139.09 1639.5,-139.09"/>
</a>
</g>
</g>
<!-- Node15 -->
<g id="Node000015" class="node">
<title>Node15</title>
<g id="a_Node000015"><a xlink:href="_list_item_8h.html" target="_top" xlink:title=" ">
<polygon fill="white" stroke="#666666" points="1545,-74 1413,-74 1413,-55 1545,-55 1545,-74"/>
<text text-anchor="middle" x="1479" y="-62" font-family="Helvetica,sans-Serif" font-size="10.00">Kit/Container/ListItem.h</text>
</a>
</g>
</g>
<!-- Node14&#45;&gt;Node15 -->
<g id="edge19_Node000014_Node000015" class="edge">
<title>Node14&#45;&gt;Node15</title>
<g id="a_edge19_Node000014_Node000015"><a xlink:title=" ">
<path fill="none" stroke="#63b8ff" d="M1710.66,-109.98C1662.51,-100.74 1585.58,-85.97 1533.71,-76.01"/>
<polygon fill="#63b8ff" stroke="#63b8ff" points="1534.17,-72.53 1523.69,-74.08 1532.85,-79.41 1534.17,-72.53"/>
</a>
</g>
</g>
<!-- Node17 -->
<g id="Node000017" class="node">
<title>Node17</title>
<g id="a_Node000017"><a xlink:href="_key_8h.html" target="_top" xlink:title=" ">
<polygon fill="white" stroke="#666666" points="1809.5,-74 1700.5,-74 1700.5,-55 1809.5,-55 1809.5,-74"/>
<text text-anchor="middle" x="1755" y="-62" font-family="Helvetica,sans-Serif" font-size="10.00">Kit/Container/Key.h</text>
</a>
</g>
</g>
<!-- Node14&#45;&gt;Node17 -->
<g id="edge21_Node000014_Node000017" class="edge">
<title>Node14&#45;&gt;Node17</title>
<g id="a_edge21_Node000014_Node000017"><a xlink:title=" ">
<path fill="none" stroke="#63b8ff" d="M1755,-109.75C1755,-102.8 1755,-92.85 1755,-84.13"/>
<polygon fill="#63b8ff" stroke="#63b8ff" points="1758.5,-84.09 1755,-74.09 1751.5,-84.09 1758.5,-84.09"/>
</a>
</g>
</g>
<!-- Node16 -->
<g id="Node000016" class="node">
<title>Node16</title>
<g id="a_Node000016"><a xlink:href="_item_8h.html" target="_top" xlink:title=" ">
<polygon fill="white" stroke="#666666" points="1536.5,-19 1421.5,-19 1421.5,0 1536.5,0 1536.5,-19"/>
<text text-anchor="middle" x="1479" y="-7" font-family="Helvetica,sans-Serif" font-size="10.00">Kit/Container/Item.h</text>
</a>
</g>
</g>
<!-- Node15&#45;&gt;Node16 -->
<g id="edge20_Node000015_Node000016" class="edge">
<title>Node15&#45;&gt;Node16</title>
<g id="a_edge20_Node000015_Node000016"><a xlink:title=" ">
<path fill="none" stroke="#63b8ff" d="M1479,-54.75C1479,-47.8 1479,-37.85 1479,-29.13"/>
<polygon fill="#63b8ff" stroke="#63b8ff" points="1482.5,-29.09 1479,-19.09 1475.5,-29.09 1482.5,-29.09"/>
</a>
</g>
</g>
<!-- Node17&#45;&gt;Node5 -->
<g id="edge22_Node000017_Node000005" class="edge">
<title>Node17&#45;&gt;Node5</title>
<g id="a_edge22_Node000017_Node000005"><a xlink:title=" ">
<path fill="none" stroke="#63b8ff" d="M1700.46,-58.49C1583.91,-47.78 1313.19,-22.92 1214.68,-13.87"/>
<polygon fill="#63b8ff" stroke="#63b8ff" points="1214.89,-10.37 1204.62,-12.94 1214.25,-17.34 1214.89,-10.37"/>
</a>
</g>
</g>
<!-- Node17&#45;&gt;Node18 -->
<g id="edge23_Node000017_Node000018" class="edge">
<title>Node17&#45;&gt;Node18</title>
<g id="a_edge23_Node000017_Node000018"><a xlink:title=" ">
<path fill="none" stroke="#63b8ff" d="M1809.8,-56.13C1812.91,-55.74 1816,-55.36 1819,-55 1959.55,-38.19 2127.07,-21.31 2200.02,-14.11"/>
<polygon fill="#63b8ff" stroke="#63b8ff" points="2200.47,-17.58 2210.08,-13.12 2199.78,-10.62 2200.47,-17.58"/>
</a>
</g>
</g>
<!-- Node19 -->
<g id="Node000019" class="node">
<title>Node19</title>
<g id="a_Node000019"><a xlink:title=" ">
<polygon fill="#e0e0e0" stroke="#999999" points="1781.5,-19 1728.5,-19 1728.5,0 1781.5,0 1781.5,-19"/>
<text text-anchor="middle" x="1755" y="-7" font-family="Helvetica,sans-Serif" font-size="10.00">limits.h</text>
</a>
</g>
</g>
<!-- Node17&#45;&gt;Node19 -->
<g id="edge24_Node000017_Node000019" class="edge">
<title>Node17&#45;&gt;Node19</title>
<g id="a_edge24_Node000017_Node000019"><a xlink:title=" ">
<path fill="none" stroke="#63b8ff" d="M1755,-54.75C1755,-47.8 1755,-37.85 1755,-29.13"/>
<polygon fill="#63b8ff" stroke="#63b8ff" points="1758.5,-29.09 1755,-19.09 1751.5,-29.09 1758.5,-29.09"/>
</a>
</g>
</g>
<!-- Node20&#45;&gt;Node17 -->
<g id="edge26_Node000020_Node000017" class="edge">
<title>Node20&#45;&gt;Node17</title>
<g id="a_edge26_Node000020_Node000017"><a xlink:title=" ">
<path fill="none" stroke="#63b8ff" d="M1973.23,-109.98C1928.06,-100.78 1856,-86.09 1807.15,-76.13"/>
<polygon fill="#63b8ff" stroke="#63b8ff" points="1807.6,-72.65 1797.1,-74.08 1806.2,-79.51 1807.6,-72.65"/>
</a>
</g>
</g>
<!-- Node21 -->
<g id="Node000021" class="node">
<title>Node21</title>
<g id="a_Node000021"><a xlink:href="printfchecker_8h.html" target="_top" xlink:title="This file contains macro that enables the GCC (and Clang) compiler to validate printf flags with thei...">
<polygon fill="white" stroke="#666666" points="2125.5,-74 1980.5,-74 1980.5,-55 2125.5,-55 2125.5,-74"/>
<text text-anchor="middle" x="2053" y="-62" font-family="Helvetica,sans-Serif" font-size="10.00">Kit/System/printfchecker.h</text>
</a>
</g>
</g>
<!-- Node20&#45;&gt;Node21 -->
<g id="edge27_Node000020_Node000021" class="edge">
<title>Node20&#45;&gt;Node21</title>
<g id="a_edge27_Node000020_Node000021"><a xlink:title=" ">
<path fill="none" stroke="#63b8ff" d="M2021.27,-109.75C2026.59,-102.34 2034.36,-91.5 2040.88,-82.41"/>
<polygon fill="#63b8ff" stroke="#63b8ff" points="2043.86,-84.26 2046.84,-74.09 2038.17,-80.18 2043.86,-84.26"/>
</a>
</g>
</g>
<!-- Node22 -->
<g id="Node000022" class="node">
<title>Node22</title>
<g id="a_Node000022"><a xlink:title=" ">
<polygon fill="#e0e0e0" stroke="#999999" points="1884,-74 1828,-74 1828,-55 1884,-55 1884,-74"/>
<text text-anchor="middle" x="1856" y="-62" font-family="Helvetica,sans-Serif" font-size="10.00">stdarg.h</text>
</a>
</g>
</g>
<!-- Node20&#45;&gt;Node22 -->
<g id="edge28_Node000020_Node000022" class="edge">
<title>Node20&#45;&gt;Node22</title>
<g id="a_edge28_Node000020_Node000022"><a xlink:title=" ">
<path fill="none" stroke="#63b8ff" d="M1989.45,-109.98C1962.88,-101.13 1921.06,-87.19 1891.33,-77.28"/>
<polygon fill="#63b8ff" stroke="#63b8ff" points="1892.34,-73.92 1881.75,-74.08 1890.13,-80.56 1892.34,-73.92"/>
</a>
</g>
</g>
<!-- Node23 -->
<g id="Node000023" class="node">
<title>Node23</title>
<g id="a_Node000023"><a xlink:title=" ">
<polygon fill="#e0e0e0" stroke="#999999" points="1962,-74 1902,-74 1902,-55 1962,-55 1962,-74"/>
<text text-anchor="middle" x="1932" y="-62" font-family="Helvetica,sans-Serif" font-size="10.00">iostream</text>
</a>
</g>
</g>
<!-- Node20&#45;&gt;Node23 -->
<g id="edge29_Node000020_Node000023" class="edge">
<title>Node20&#45;&gt;Node23</title>
<g id="a_edge29_Node000020_Node000023"><a xlink:title=" ">
<path fill="none" stroke="#63b8ff" d="M2001.66,-109.98C1988.91,-101.84 1969.45,-89.41 1954.33,-79.76"/>
<polygon fill="#63b8ff" stroke="#63b8ff" points="1955.89,-76.6 1945.58,-74.17 1952.12,-82.5 1955.89,-76.6"/>
</a>
</g>
</g>
<!-- Node24&#45;&gt;Node5 -->
<g id="edge32_Node000024_Node000005" class="edge">
<title>Node24&#45;&gt;Node5</title>
<g id="a_edge32_Node000024_Node000005"><a xlink:title=" ">
<path fill="none" stroke="#63b8ff" d="M1289.72,-109.76C1276.57,-97.42 1251.67,-74.24 1230,-55 1218.89,-45.14 1206.23,-34.3 1196.19,-25.79"/>
<polygon fill="#63b8ff" stroke="#63b8ff" points="1198.35,-23.03 1188.45,-19.26 1193.84,-28.38 1198.35,-23.03"/>
</a>
</g>
</g>
<!-- Node24&#45;&gt;Node15 -->
<g id="edge31_Node000024_Node000015" class="edge">
<title>Node24&#45;&gt;Node15</title>
<g id="a_edge31_Node000024_Node000015"><a xlink:title=" ">
<path fill="none" stroke="#63b8ff" d="M1327.92,-109.98C1358.27,-101.05 1406.17,-86.94 1439.88,-77.02"/>
<polygon fill="#63b8ff" stroke="#63b8ff" points="1441.25,-80.26 1449.85,-74.08 1439.27,-73.55 1441.25,-80.26"/>
</a>
</g>
</g>
<!-- Node27&#45;&gt;Node2 -->
<g id="edge37_Node000027_Node000002" class="edge">
<title>Node27&#45;&gt;Node2</title>
<g id="a_edge37_Node000027_Node000002"><a xlink:title=" ">
<path fill="none" stroke="#63b8ff" d="M2052.6,-164.98C2093.35,-155.75 2158.43,-141.01 2202.4,-131.05"/>
<polygon fill="#63b8ff" stroke="#63b8ff" points="2203.29,-134.44 2212.27,-128.82 2201.74,-127.62 2203.29,-134.44"/>
</a>
</g>
</g>
<!-- Node27&#45;&gt;Node20 -->
<g id="edge38_Node000027_Node000020" class="edge">
<title>Node27&#45;&gt;Node20</title>
<g id="a_edge38_Node000027_Node000020"><a xlink:title=" ">
<path fill="none" stroke="#63b8ff" d="M2015,-164.75C2015,-157.8 2015,-147.85 2015,-139.13"/>
<polygon fill="#63b8ff" stroke="#63b8ff" points="2018.5,-139.09 2015,-129.09 2011.5,-139.09 2018.5,-139.09"/>
</a>
</g>
</g>
<!-- Node27&#45;&gt;Node25 -->
<g id="edge42_Node000027_Node000025" class="edge">
<title>Node27&#45;&gt;Node25</title>
<g id="a_edge42_Node000027_Node000025"><a xlink:title=" ">
<path fill="none" stroke="#63b8ff" d="M1996.04,-164.98C1976.97,-156.42 1947.34,-143.11 1925.45,-133.28"/>
<polygon fill="#63b8ff" stroke="#63b8ff" points="1926.86,-130.07 1916.3,-129.17 1923.99,-136.46 1926.86,-130.07"/>
</a>
</g>
</g>
<!-- Node28 -->
<g id="Node000028" class="node">
<title>Node28</title>
<g id="a_Node000028"><a xlink:href="_mutex_8h.html" target="_top" xlink:title=" ">
<polygon fill="white" stroke="#666666" points="2194.5,-129 2081.5,-129 2081.5,-110 2194.5,-110 2194.5,-129"/>
<text text-anchor="middle" x="2138" y="-117" font-family="Helvetica,sans-Serif" font-size="10.00">Kit/System/Mutex.h</text>
</a>
</g>
</g>
<!-- Node27&#45;&gt;Node28 -->
<g id="edge39_Node000027_Node000028" class="edge">
<title>Node27&#45;&gt;Node28</title>
<g id="a_edge39_Node000027_Node000028"><a xlink:title=" ">
<path fill="none" stroke="#63b8ff" d="M2034.76,-164.98C2054.73,-156.38 2085.8,-142.99 2108.65,-133.15"/>
<polygon fill="#63b8ff" stroke="#63b8ff" points="2110.08,-136.34 2117.88,-129.17 2107.31,-129.91 2110.08,-136.34"/>
</a>
</g>
</g>
<!-- Node28&#45;&gt;Node18 -->
<g id="edge40_Node000028_Node000018" class="edge">
<title>Node28&#45;&gt;Node18</title>
<g id="a_edge40_Node000028_Node000018"><a xlink:title=" ">
<path fill="none" stroke="#63b8ff" d="M2164.18,-109.9C2181.77,-102.86 2204.16,-91.22 2218,-74 2228.25,-61.25 2232.97,-43.07 2235.15,-29.43"/>
<polygon fill="#63b8ff" stroke="#63b8ff" points="2238.65,-29.62 2236.44,-19.26 2231.71,-28.74 2238.65,-29.62"/>
</a>
</g>
</g>
<!-- Node29 -->
<g id="Node000029" class="node">
<title>Node29</title>
<g id="a_Node000029"><a xlink:title=" ">
<polygon fill="#e0e0e0" stroke="#999999" points="2208.5,-74 2143.5,-74 2143.5,-55 2208.5,-55 2208.5,-74"/>
<text text-anchor="middle" x="2176" y="-62" font-family="Helvetica,sans-Serif" font-size="10.00">kit_map.h</text>
</a>
</g>
</g>
<!-- Node28&#45;&gt;Node29 -->
<g id="edge41_Node000028_Node000029" class="edge">
<title>Node28&#45;&gt;Node29</title>
<g id="a_edge41_Node000028_Node000029"><a xlink:title=" ">
<path fill="none" stroke="#63b8ff" d="M2144.27,-109.75C2149.59,-102.34 2157.36,-91.5 2163.88,-82.41"/>
<polygon fill="#63b8ff" stroke="#63b8ff" points="2166.86,-84.26 2169.84,-74.09 2161.17,-80.18 2166.86,-84.26"/>
</a>
</g>
</g>
<!-- Node31 -->
<g id="Node000031" class="node">
<title>Node31</title>
<g id="a_Node000031"><a xlink:href="_d_list_base_8h.html" target="_top" xlink:title=" ">
<polygon fill="white" stroke="#666666" points="1551.5,-129 1410.5,-129 1410.5,-110 1551.5,-110 1551.5,-129"/>
<text text-anchor="middle" x="1481" y="-117" font-family="Helvetica,sans-Serif" font-size="10.00">Kit/Container/DListBase.h</text>
</a>
</g>
</g>
<!-- Node30&#45;&gt;Node31 -->
<g id="edge45_Node000030_Node000031" class="edge">
<title>Node30&#45;&gt;Node31</title>
<g id="a_edge45_Node000030_Node000031"><a xlink:title=" ">
<path fill="none" stroke="#63b8ff" d="M1481,-164.75C1481,-157.8 1481,-147.85 1481,-139.13"/>
<polygon fill="#63b8ff" stroke="#63b8ff" points="1484.5,-139.09 1481,-129.09 1477.5,-139.09 1484.5,-139.09"/>
</a>
</g>
</g>
<!-- Node31&#45;&gt;Node15 -->
<g id="edge46_Node000031_Node000015" class="edge">
<title>Node31&#45;&gt;Node15</title>
<g id="a_edge46_Node000031_Node000015"><a xlink:title=" ">
<path fill="none" stroke="#63b8ff" d="M1480.67,-109.75C1480.41,-102.8 1480.03,-92.85 1479.7,-84.13"/>
<polygon fill="#63b8ff" stroke="#63b8ff" points="1483.2,-83.95 1479.32,-74.09 1476.2,-84.21 1483.2,-83.95"/>
</a>
</g>
</g>
<!-- Node32&#45;&gt;Node5 -->
<g id="edge52_Node000032_Node000005" class="edge">
<title>Node32&#45;&gt;Node5</title>
<g id="a_edge52_Node000032_Node000005"><a xlink:title=" ">
<path fill="none" stroke="#63b8ff" d="M1167.43,-219.95C1169.05,-187.95 1174.76,-74.68 1177.05,-29.4"/>
<polygon fill="#63b8ff" stroke="#63b8ff" points="1180.55,-29.39 1177.56,-19.22 1173.56,-29.03 1180.55,-29.39"/>
</a>
</g>
</g>
<!-- Node32&#45;&gt;Node13 -->
<g id="edge51_Node000032_Node000013" class="edge">
<title>Node32&#45;&gt;Node13</title>
<g id="a_edge51_Node000032_Node000013"><a xlink:title=" ">
<path fill="none" stroke="#63b8ff" d="M1220.34,-222.47C1305.24,-212.88 1471.14,-194.13 1565.65,-183.45"/>
<polygon fill="#63b8ff" stroke="#63b8ff" points="1566.15,-186.92 1575.69,-182.31 1565.36,-179.96 1566.15,-186.92"/>
</a>
</g>
</g>
<!-- Node32&#45;&gt;Node24 -->
<g id="edge50_Node000032_Node000024" class="edge">
<title>Node32&#45;&gt;Node24</title>
<g id="a_edge50_Node000032_Node000024"><a xlink:title=" ">
<path fill="none" stroke="#63b8ff" d="M1177.8,-219.66C1200.35,-201.22 1252.62,-158.45 1280.58,-135.57"/>
<polygon fill="#63b8ff" stroke="#63b8ff" points="1282.89,-138.2 1288.42,-129.16 1278.46,-132.78 1282.89,-138.2"/>
</a>
</g>
</g>
<!-- Node34&#45;&gt;Node3 -->
<g id="edge67_Node000034_Node000003" class="edge">
<title>Node34&#45;&gt;Node3</title>
<g id="a_edge67_Node000034_Node000003"><a xlink:title=" ">
<path fill="none" stroke="#63b8ff" d="M853.2,-560.8C865.68,-552.01 881.9,-540.61 895.66,-530.93"/>
<polygon fill="#63b8ff" stroke="#63b8ff" points="897.69,-533.78 903.86,-525.16 893.67,-528.05 897.69,-533.78"/>
</a>
</g>
</g>
<!-- Node35 -->
<g id="Node000035" class="node">
<title>Node35</title>
<g id="a_Node000035"><a xlink:href="_i_queue_8h.html" target="_top" xlink:title=" ">
<polygon fill="white" stroke="#666666" points="767.5,-239 628.5,-239 628.5,-220 767.5,-220 767.5,-239"/>
<text text-anchor="middle" x="698" y="-227" font-family="Helvetica,sans-Serif" font-size="10.00">Kit/EventQueue/IQueue.h</text>
</a>
</g>
</g>
<!-- Node34&#45;&gt;Node35 -->
<g id="edge55_Node000034_Node000035" class="edge">
<title>Node34&#45;&gt;Node35</title>
<g id="a_edge55_Node000034_Node000035"><a xlink:title=" ">
<path fill="none" stroke="#63b8ff" d="M833,-560.81C833,-537.7 833,-490.49 833,-450.5 833,-450.5 833,-450.5 833,-338.5 833,-288.45 775.72,-257.78 735.78,-242.48"/>
<polygon fill="#63b8ff" stroke="#63b8ff" points="736.89,-239.16 726.3,-239 734.49,-245.73 736.89,-239.16"/>
</a>
</g>
</g>
<!-- Node35&#45;&gt;Node2 -->
<g id="edge56_Node000035_Node000002" class="edge">
<title>Node35&#45;&gt;Node2</title>
<g id="a_edge56_Node000035_Node000002"><a xlink:title=" ">
<path fill="none" stroke="#63b8ff" d="M767.83,-226.97C1041.57,-220.88 2029.64,-198.03 2095,-184 2120.05,-178.62 2184.18,-150.27 2221.31,-133.33"/>
<polygon fill="#63b8ff" stroke="#63b8ff" points="2222.94,-136.43 2230.57,-129.08 2220.02,-130.07 2222.94,-136.43"/>
</a>
</g>
</g>
<!-- Node36 -->
<g id="Node000036" class="node">
<title>Node36</title>
<g id="a_Node000036"><a xlink:href="_i_msg_notification_8h.html" target="_top" xlink:title=" ">
<polygon fill="white" stroke="#666666" points="614,-184 430,-184 430,-165 614,-165 614,-184"/>
<text text-anchor="middle" x="522" y="-172" font-family="Helvetica,sans-Serif" font-size="10.00">Kit/EventQueue/IMsgNotification.h</text>
</a>
</g>
</g>
<!-- Node35&#45;&gt;Node36 -->
<g id="edge57_Node000035_Node000036" class="edge">
<title>Node35&#45;&gt;Node36</title>
<g id="a_edge57_Node000035_Node000036"><a xlink:title=" ">
<path fill="none" stroke="#63b8ff" d="M669.72,-219.98C640.05,-211.05 593.21,-196.94 560.25,-187.02"/>
<polygon fill="#63b8ff" stroke="#63b8ff" points="561.08,-183.61 550.5,-184.08 559.07,-190.32 561.08,-183.61"/>
</a>
</g>
</g>
<!-- Node37 -->
<g id="Node000037" class="node">
<title>Node37</title>
<g id="a_Node000037"><a xlink:href="_i_timing_source_8h.html" target="_top" xlink:title=" ">
<polygon fill="white" stroke="#666666" points="934,-184 782,-184 782,-165 934,-165 934,-184"/>
<text text-anchor="middle" x="858" y="-172" font-family="Helvetica,sans-Serif" font-size="10.00">Kit/System/ITimingSource.h</text>
</a>
</g>
</g>
<!-- Node35&#45;&gt;Node37 -->
<g id="edge58_Node000035_Node000037" class="edge">
<title>Node35&#45;&gt;Node37</title>
<g id="a_edge58_Node000035_Node000037"><a xlink:title=" ">
<path fill="none" stroke="#63b8ff" d="M723.71,-219.98C750.45,-211.13 792.53,-197.19 822.45,-187.28"/>
<polygon fill="#63b8ff" stroke="#63b8ff" points="823.7,-190.55 832.09,-184.08 821.5,-183.9 823.7,-190.55"/>
</a>
</g>
</g>
<!-- Node39 -->
<g id="Node000039" class="node">
<title>Node39</title>
<g id="a_Node000039"><a xlink:href="_i_runnable_8h.html" target="_top" xlink:title=" ">
<polygon fill="white" stroke="#666666" points="763.5,-184 632.5,-184 632.5,-165 763.5,-165 763.5,-184"/>
<text text-anchor="middle" x="698" y="-172" font-family="Helvetica,sans-Serif" font-size="10.00">Kit/System/IRunnable.h</text>
</a>
</g>
</g>
<!-- Node35&#45;&gt;Node39 -->
<g id="edge62_Node000035_Node000039" class="edge">
<title>Node35&#45;&gt;Node39</title>
<g id="a_edge62_Node000035_Node000039"><a xlink:title=" ">
<path fill="none" stroke="#63b8ff" d="M698,-219.75C698,-212.8 698,-202.85 698,-194.13"/>
<polygon fill="#63b8ff" stroke="#63b8ff" points="701.5,-194.09 698,-184.09 694.5,-194.09 701.5,-194.09"/>
</a>
</g>
</g>
<!-- Node40 -->
<g id="Node000040" class="node">
<title>Node40</title>
<g id="a_Node000040"><a xlink:href="_i_event_manager_8h.html" target="_top" xlink:title=" ">
<polygon fill="white" stroke="#666666" points="558.5,-74 403.5,-74 403.5,-55 558.5,-55 558.5,-74"/>
<text text-anchor="middle" x="481" y="-62" font-family="Helvetica,sans-Serif" font-size="10.00">Kit/System/IEventManager.h</text>
</a>
</g>
</g>
<!-- Node35&#45;&gt;Node40 -->
<g id="edge63_Node000035_Node000040" class="edge">
<title>Node35&#45;&gt;Node40</title>
<g id="a_edge63_Node000035_Node000040"><a xlink:title=" ">
<path fill="none" stroke="#63b8ff" d="M628.43,-228.89C470.45,-229.06 95.33,-225.09 57,-184 8.23,-131.73 257.14,-92.57 394.72,-75.28"/>
<polygon fill="#63b8ff" stroke="#63b8ff" points="395.35,-78.73 404.84,-74.02 394.48,-71.78 395.35,-78.73"/>
</a>
</g>
</g>
<!-- Node41 -->
<g id="Node000041" class="node">
<title>Node41</title>
<g id="a_Node000041"><a xlink:href="_i_signable_8h.html" target="_top" xlink:title=" ">
<polygon fill="white" stroke="#666666" points="193.5,-184 66.5,-184 66.5,-165 193.5,-165 193.5,-184"/>
<text text-anchor="middle" x="130" y="-172" font-family="Helvetica,sans-Serif" font-size="10.00">Kit/System/ISignable.h</text>
</a>
</g>
</g>
<!-- Node35&#45;&gt;Node41 -->
<g id="edge65_Node000035_Node000041" class="edge">
<title>Node35&#45;&gt;Node41</title>
<g id="a_edge65_Node000035_Node000041"><a xlink:title=" ">
<path fill="none" stroke="#63b8ff" d="M628.27,-222.81C534.44,-215.03 362.09,-200.28 204.08,-184.08"/>
<polygon fill="#63b8ff" stroke="#63b8ff" points="204,-180.56 193.69,-183.02 203.28,-187.52 204,-180.56"/>
</a>
</g>
</g>
<!-- Node42 -->
<g id="Node000042" class="node">
<title>Node42</title>
<g id="a_Node000042"><a xlink:href="_i_change_notification_8h.html" target="_top" xlink:title=" ">
<polygon fill="white" stroke="#666666" points="412,-184 212,-184 212,-165 412,-165 412,-184"/>
<text text-anchor="middle" x="312" y="-172" font-family="Helvetica,sans-Serif" font-size="10.00">Kit/EventQueue/IChangeNotification.h</text>
</a>
</g>
</g>
<!-- Node35&#45;&gt;Node42 -->
<g id="edge66_Node000035_Node000042" class="edge">
<title>Node35&#45;&gt;Node42</title>
<g id="a_edge66_Node000035_Node000042"><a xlink:title=" ">
<path fill="none" stroke="#63b8ff" d="M635.98,-219.98C567.29,-210.55 456.68,-195.36 384.16,-185.41"/>
<polygon fill="#63b8ff" stroke="#63b8ff" points="384.57,-181.93 374.18,-184.04 383.61,-188.87 384.57,-181.93"/>
</a>
</g>
</g>
<!-- Node38 -->
<g id="Node000038" class="node">
<title>Node38</title>
<g id="a_Node000038"><a xlink:href="_i_counter_8h.html" target="_top" xlink:title=" ">
<polygon fill="white" stroke="#666666" points="1150,-129 1028,-129 1028,-110 1150,-110 1150,-129"/>
<text text-anchor="middle" x="1089" y="-117" font-family="Helvetica,sans-Serif" font-size="10.00">Kit/System/ICounter.h</text>
</a>
</g>
</g>
<!-- Node37&#45;&gt;Node38 -->
<g id="edge59_Node000037_Node000038" class="edge">
<title>Node37&#45;&gt;Node38</title>
<g id="a_edge59_Node000037_Node000038"><a xlink:title=" ">
<path fill="none" stroke="#63b8ff" d="M895.11,-164.98C934.99,-155.84 998.46,-141.27 1041.84,-131.32"/>
<polygon fill="#63b8ff" stroke="#63b8ff" points="1042.63,-134.73 1051.59,-129.08 1041.07,-127.91 1042.63,-134.73"/>
</a>
</g>
</g>
<!-- Node38&#45;&gt;Node5 -->
<g id="edge61_Node000038_Node000005" class="edge">
<title>Node38&#45;&gt;Node5</title>
<g id="a_edge61_Node000038_Node000005"><a xlink:title=" ">
<path fill="none" stroke="#63b8ff" d="M1096.28,-109.66C1111.16,-91.61 1145.22,-50.28 1164.34,-27.08"/>
<polygon fill="#63b8ff" stroke="#63b8ff" points="1167.21,-29.1 1170.86,-19.16 1161.8,-24.65 1167.21,-29.1"/>
</a>
</g>
</g>
<!-- Node38&#45;&gt;Node15 -->
<g id="edge60_Node000038_Node000015" class="edge">
<title>Node38&#45;&gt;Node15</title>
<g id="a_edge60_Node000038_Node000015"><a xlink:title=" ">
<path fill="none" stroke="#63b8ff" d="M1150.37,-110.16C1219.72,-100.74 1332.52,-85.41 1406.24,-75.39"/>
<polygon fill="#63b8ff" stroke="#63b8ff" points="1406.94,-78.82 1416.38,-74.01 1406,-71.89 1406.94,-78.82"/>
</a>
</g>
</g>
<!-- Node40&#45;&gt;Node5 -->
<g id="edge64_Node000040_Node000005" class="edge">
<title>Node40&#45;&gt;Node5</title>
<g id="a_edge64_Node000040_Node000005"><a xlink:title=" ">
<path fill="none" stroke="#63b8ff" d="M558.59,-57.6C708.31,-46.22 1031.94,-21.61 1141.15,-13.3"/>
<polygon fill="#63b8ff" stroke="#63b8ff" points="1141.63,-16.78 1151.33,-12.53 1141.1,-9.8 1141.63,-16.78"/>
</a>
</g>
</g>
<!-- Node43&#45;&gt;Node4 -->
<g id="edge70_Node000043_Node000004" class="edge">
<title>Node43&#45;&gt;Node4</title>
<g id="a_edge70_Node000043_Node000004"><a xlink:title=" ">
<path fill="none" stroke="#63b8ff" d="M805.24,-497.58C864.31,-486.92 951.7,-471.14 1008.75,-460.84"/>
<polygon fill="#63b8ff" stroke="#63b8ff" points="1009.47,-464.26 1018.69,-459.04 1008.22,-457.38 1009.47,-464.26"/>
</a>
</g>
</g>
<!-- Node43&#45;&gt;Node35 -->
<g id="edge69_Node000043_Node000035" class="edge">
<title>Node43&#45;&gt;Node35</title>
<g id="a_edge69_Node000043_Node000035"><a xlink:title=" ">
<path fill="none" stroke="#63b8ff" d="M735,-494.7C725.31,-473.54 709,-432.44 709,-395.5 709,-395.5 709,-395.5 709,-338.5 709,-307.03 704.32,-270.66 701.06,-249.18"/>
<polygon fill="#63b8ff" stroke="#63b8ff" points="704.5,-248.48 699.48,-239.15 697.58,-249.57 704.5,-248.48"/>
</a>
</g>
</g>
<!-- Node44&#45;&gt;Node5 -->
<g id="edge72_Node000044_Node000005" class="edge">
<title>Node44&#45;&gt;Node5</title>
<g id="a_edge72_Node000044_Node000005"><a xlink:title=" ">
<path fill="none" stroke="#63b8ff" d="M245.29,-439.99C157.38,-425.37 0,-392.02 0,-340.5 0,-340.5 0,-340.5 0,-118.5 0,-59.73 941.91,-19.71 1141.23,-11.9"/>
<polygon fill="#63b8ff" stroke="#63b8ff" points="1141.61,-15.39 1151.46,-11.5 1141.34,-8.39 1141.61,-15.39"/>
</a>
</g>
</g>
</g>
</svg>
