<?xml version="1.0" encoding="UTF-8" standalone="no"?>
<!DOCTYPE svg PUBLIC "-//W3C//DTD SVG 1.1//EN"
 "http://www.w3.org/Graphics/SVG/1.1/DTD/svg11.dtd">
<!-- Generated by graphviz version 2.43.0 (0)
 -->
<!-- Title: /home/runner/work/kit.core/kit.core/projects/examples/Container/RingBuffer/ModelPoints.h Pages: 1 -->
<svg width="1372pt" height="500pt"
 viewBox="0.00 0.00 1371.50 500.00" xmlns="http://www.w3.org/2000/svg" xmlns:xlink="http://www.w3.org/1999/xlink">
<g id="graph0" class="graph" transform="scale(1 1) rotate(0) translate(4 496)">
<title>/home/runner/work/kit.core/kit.core/projects/examples/Container/RingBuffer/ModelPoints.h</title>
<!-- Node1 -->
<g id="Node000001" class="node">
<title>Node1</title>
<g id="a_Node000001"><a xlink:title="This file defines all of the Model Points for Example application.">
<polygon fill="#999999" stroke="#666666" points="876,-492 683,-492 683,-451 876,-451 876,-492"/>
<text text-anchor="start" x="691" y="-480" font-family="Helvetica,sans-Serif" font-size="10.00">/home/runner/work/kit.core</text>
<text text-anchor="start" x="691" y="-469" font-family="Helvetica,sans-Serif" font-size="10.00">/kit.core/projects/examples</text>
<text text-anchor="middle" x="779.5" y="-458" font-family="Helvetica,sans-Serif" font-size="10.00">/Container/RingBuffer/ModelPoints.h</text>
</a>
</g>
</g>
<!-- Node2 -->
<g id="Node000002" class="node">
<title>Node2</title>
<g id="a_Node000002"><a xlink:href="_model_database_8h.html" target="_top" xlink:title=" ">
<polygon fill="white" stroke="#666666" points="739,-305 600,-305 600,-286 739,-286 739,-305"/>
<text text-anchor="middle" x="669.5" y="-293" font-family="Helvetica,sans-Serif" font-size="10.00">Kit/Dm/ModelDatabase.h</text>
</a>
</g>
</g>
<!-- Node1&#45;&gt;Node2 -->
<g id="edge1_Node000001_Node000002" class="edge">
<title>Node1&#45;&gt;Node2</title>
<g id="a_edge1_Node000001_Node000002"><a xlink:title=" ">
<path fill="none" stroke="#63b8ff" d="M767.1,-450.88C745.41,-416.58 700.97,-346.28 680.4,-313.74"/>
<polygon fill="#63b8ff" stroke="#63b8ff" points="683.35,-311.86 675.05,-305.27 677.43,-315.6 683.35,-311.86"/>
</a>
</g>
</g>
<!-- Node22 -->
<g id="Node000022" class="node">
<title>Node22</title>
<g id="a_Node000022"><a xlink:href="_uint32_8h.html" target="_top" xlink:title=" ">
<polygon fill="white" stroke="#666666" points="946,-415 833,-415 833,-396 946,-396 946,-415"/>
<text text-anchor="middle" x="889.5" y="-403" font-family="Helvetica,sans-Serif" font-size="10.00">Kit/Dm/Mp/Uint32.h</text>
</a>
</g>
</g>
<!-- Node1&#45;&gt;Node22 -->
<g id="edge24_Node000001_Node000022" class="edge">
<title>Node1&#45;&gt;Node22</title>
<g id="a_edge24_Node000001_Node000022"><a xlink:title=" ">
<path fill="none" stroke="#63b8ff" d="M813.1,-450.95C830.16,-441.03 850.47,-429.21 865.86,-420.25"/>
<polygon fill="#63b8ff" stroke="#63b8ff" points="867.85,-423.15 874.73,-415.09 864.33,-417.1 867.85,-423.15"/>
</a>
</g>
</g>
<!-- Node3 -->
<g id="Node000003" class="node">
<title>Node3</title>
<g id="a_Node000003"><a xlink:href="_i_model_database_8h.html" target="_top" xlink:title=" ">
<polygon fill="white" stroke="#666666" points="584.5,-189.5 442.5,-189.5 442.5,-170.5 584.5,-170.5 584.5,-189.5"/>
<text text-anchor="middle" x="513.5" y="-177.5" font-family="Helvetica,sans-Serif" font-size="10.00">Kit/Dm/IModelDatabase.h</text>
</a>
</g>
</g>
<!-- Node2&#45;&gt;Node3 -->
<g id="edge2_Node000002_Node000003" class="edge">
<title>Node2&#45;&gt;Node3</title>
<g id="a_edge2_Node000002_Node000003"><a xlink:title=" ">
<path fill="none" stroke="#63b8ff" d="M654.99,-285.91C640.61,-277.27 618.12,-263.33 599.5,-250 575.24,-232.64 548.65,-210.85 531.55,-196.45"/>
<polygon fill="#63b8ff" stroke="#63b8ff" points="533.43,-193.45 523.54,-189.66 528.91,-198.79 533.43,-193.45"/>
</a>
</g>
</g>
<!-- Node16 -->
<g id="Node000016" class="node">
<title>Node16</title>
<g id="a_Node000016"><a xlink:href="_ordered_list_8h.html" target="_top" xlink:title=" ">
<polygon fill="white" stroke="#666666" points="757,-250 608,-250 608,-231 757,-231 757,-250"/>
<text text-anchor="middle" x="682.5" y="-238" font-family="Helvetica,sans-Serif" font-size="10.00">Kit/Container/OrderedList.h</text>
</a>
</g>
</g>
<!-- Node2&#45;&gt;Node16 -->
<g id="edge16_Node000002_Node000016" class="edge">
<title>Node2&#45;&gt;Node16</title>
<g id="a_edge16_Node000002_Node000016"><a xlink:title=" ">
<path fill="none" stroke="#63b8ff" d="M671.65,-285.75C673.37,-278.72 675.85,-268.62 678,-259.84"/>
<polygon fill="#63b8ff" stroke="#63b8ff" points="681.41,-260.63 680.39,-250.09 674.61,-258.97 681.41,-260.63"/>
</a>
</g>
</g>
<!-- Node4 -->
<g id="Node000004" class="node">
<title>Node4</title>
<g id="a_Node000004"><a xlink:title=" ">
<polygon fill="#e0e0e0" stroke="#999999" points="620,-129 547,-129 547,-110 620,-110 620,-129"/>
<text text-anchor="middle" x="583.5" y="-117" font-family="Helvetica,sans-Serif" font-size="10.00">kit_config.h</text>
</a>
</g>
</g>
<!-- Node3&#45;&gt;Node4 -->
<g id="edge3_Node000003_Node000004" class="edge">
<title>Node3&#45;&gt;Node4</title>
<g id="a_edge3_Node000003_Node000004"><a xlink:title=" ">
<path fill="none" stroke="#63b8ff" d="M523.83,-170.37C534.69,-161.3 551.99,-146.84 565.17,-135.82"/>
<polygon fill="#63b8ff" stroke="#63b8ff" points="567.7,-138.27 573.13,-129.17 563.21,-132.89 567.7,-138.27"/>
</a>
</g>
</g>
<!-- Node5 -->
<g id="Node000005" class="node">
<title>Node5</title>
<g id="a_Node000005"><a xlink:href="_i_string_8h.html" target="_top" xlink:title=" ">
<polygon fill="white" stroke="#666666" points="408,-129 311,-129 311,-110 408,-110 408,-129"/>
<text text-anchor="middle" x="359.5" y="-117" font-family="Helvetica,sans-Serif" font-size="10.00">Kit/Text/IString.h</text>
</a>
</g>
</g>
<!-- Node3&#45;&gt;Node5 -->
<g id="edge4_Node000003_Node000005" class="edge">
<title>Node3&#45;&gt;Node5</title>
<g id="a_edge4_Node000003_Node000005"><a xlink:title=" ">
<path fill="none" stroke="#63b8ff" d="M491.11,-170.49C464.88,-160.53 421.22,-143.95 391.44,-132.63"/>
<polygon fill="#63b8ff" stroke="#63b8ff" points="392.51,-129.3 381.92,-129.02 390.03,-135.84 392.51,-129.3"/>
</a>
</g>
</g>
<!-- Node13 -->
<g id="Node000013" class="node">
<title>Node13</title>
<g id="a_Node000013"><a xlink:href="_mutex_8h.html" target="_top" xlink:title=" ">
<polygon fill="white" stroke="#666666" points="293,-129 180,-129 180,-110 293,-110 293,-129"/>
<text text-anchor="middle" x="236.5" y="-117" font-family="Helvetica,sans-Serif" font-size="10.00">Kit/System/Mutex.h</text>
</a>
</g>
</g>
<!-- Node3&#45;&gt;Node13 -->
<g id="edge12_Node000003_Node000013" class="edge">
<title>Node3&#45;&gt;Node13</title>
<g id="a_edge12_Node000003_Node000013"><a xlink:title=" ">
<path fill="none" stroke="#63b8ff" d="M473.22,-170.49C423.88,-160.07 340.29,-142.42 286.78,-131.12"/>
<polygon fill="#63b8ff" stroke="#63b8ff" points="287.33,-127.66 276.83,-129.02 285.89,-134.51 287.33,-127.66"/>
</a>
</g>
</g>
<!-- Node15 -->
<g id="Node000015" class="node">
<title>Node15</title>
<g id="a_Node000015"><a xlink:href="_arduino_8h_source.html" target="_top" xlink:title=" ">
<polygon fill="white" stroke="#666666" points="529,-129 426,-129 426,-110 529,-110 529,-129"/>
<text text-anchor="middle" x="477.5" y="-117" font-family="Helvetica,sans-Serif" font-size="10.00">Kit/Json/Arduino.h</text>
</a>
</g>
</g>
<!-- Node3&#45;&gt;Node15 -->
<g id="edge15_Node000003_Node000015" class="edge">
<title>Node3&#45;&gt;Node15</title>
<g id="a_edge15_Node000003_Node000015"><a xlink:title=" ">
<path fill="none" stroke="#63b8ff" d="M508.19,-170.37C502.92,-161.81 494.71,-148.47 488.11,-137.74"/>
<polygon fill="#63b8ff" stroke="#63b8ff" points="491.06,-135.85 482.83,-129.17 485.09,-139.52 491.06,-135.85"/>
</a>
</g>
</g>
<!-- Node6 -->
<g id="Node000006" class="node">
<title>Node6</title>
<g id="a_Node000006"><a xlink:href="_key_8h.html" target="_top" xlink:title=" ">
<polygon fill="white" stroke="#666666" points="795,-74 686,-74 686,-55 795,-55 795,-74"/>
<text text-anchor="middle" x="740.5" y="-62" font-family="Helvetica,sans-Serif" font-size="10.00">Kit/Container/Key.h</text>
</a>
</g>
</g>
<!-- Node5&#45;&gt;Node6 -->
<g id="edge5_Node000005_Node000006" class="edge">
<title>Node5&#45;&gt;Node6</title>
<g id="a_edge5_Node000005_Node000006"><a xlink:title=" ">
<path fill="none" stroke="#63b8ff" d="M408,-111.23C410.88,-110.81 413.73,-110.4 416.5,-110 506.26,-97.14 610.13,-83.01 675.56,-74.19"/>
<polygon fill="#63b8ff" stroke="#63b8ff" points="676.28,-77.63 685.73,-72.83 675.35,-70.69 676.28,-77.63"/>
</a>
</g>
</g>
<!-- Node10 -->
<g id="Node000010" class="node">
<title>Node10</title>
<g id="a_Node000010"><a xlink:href="printfchecker_8h.html" target="_top" xlink:title="This file contains macro that enables the GCC (and Clang) compiler to validate printf flags with thei...">
<polygon fill="white" stroke="#666666" points="447,-74 302,-74 302,-55 447,-55 447,-74"/>
<text text-anchor="middle" x="374.5" y="-62" font-family="Helvetica,sans-Serif" font-size="10.00">Kit/System/printfchecker.h</text>
</a>
</g>
</g>
<!-- Node5&#45;&gt;Node10 -->
<g id="edge9_Node000005_Node000010" class="edge">
<title>Node5&#45;&gt;Node10</title>
<g id="a_edge9_Node000005_Node000010"><a xlink:title=" ">
<path fill="none" stroke="#63b8ff" d="M361.98,-109.75C363.96,-102.72 366.82,-92.62 369.31,-83.84"/>
<polygon fill="#63b8ff" stroke="#63b8ff" points="372.71,-84.66 372.07,-74.09 365.98,-82.76 372.71,-84.66"/>
</a>
</g>
</g>
<!-- Node11 -->
<g id="Node000011" class="node">
<title>Node11</title>
<g id="a_Node000011"><a xlink:title=" ">
<polygon fill="#e0e0e0" stroke="#999999" points="521.5,-74 465.5,-74 465.5,-55 521.5,-55 521.5,-74"/>
<text text-anchor="middle" x="493.5" y="-62" font-family="Helvetica,sans-Serif" font-size="10.00">stdarg.h</text>
</a>
</g>
</g>
<!-- Node5&#45;&gt;Node11 -->
<g id="edge10_Node000005_Node000011" class="edge">
<title>Node5&#45;&gt;Node11</title>
<g id="a_edge10_Node000005_Node000011"><a xlink:title=" ">
<path fill="none" stroke="#63b8ff" d="M381.03,-109.98C402.97,-101.3 437.24,-87.75 462.19,-77.88"/>
<polygon fill="#63b8ff" stroke="#63b8ff" points="463.57,-81.1 471.58,-74.17 460.99,-74.59 463.57,-81.1"/>
</a>
</g>
</g>
<!-- Node12 -->
<g id="Node000012" class="node">
<title>Node12</title>
<g id="a_Node000012"><a xlink:title=" ">
<polygon fill="#e0e0e0" stroke="#999999" points="599.5,-74 539.5,-74 539.5,-55 599.5,-55 599.5,-74"/>
<text text-anchor="middle" x="569.5" y="-62" font-family="Helvetica,sans-Serif" font-size="10.00">iostream</text>
</a>
</g>
</g>
<!-- Node5&#45;&gt;Node12 -->
<g id="edge11_Node000005_Node000012" class="edge">
<title>Node5&#45;&gt;Node12</title>
<g id="a_edge11_Node000005_Node000012"><a xlink:title=" ">
<path fill="none" stroke="#63b8ff" d="M393.24,-109.98C430.36,-100.62 489.97,-85.57 529.43,-75.61"/>
<polygon fill="#63b8ff" stroke="#63b8ff" points="530.41,-78.97 539.25,-73.13 528.7,-72.19 530.41,-78.97"/>
</a>
</g>
</g>
<!-- Node7 -->
<g id="Node000007" class="node">
<title>Node7</title>
<g id="a_Node000007"><a xlink:title=" ">
<polygon fill="#e0e0e0" stroke="#999999" points="1231,-19 1178,-19 1178,0 1231,0 1231,-19"/>
<text text-anchor="middle" x="1204.5" y="-7" font-family="Helvetica,sans-Serif" font-size="10.00">stdint.h</text>
</a>
</g>
</g>
<!-- Node6&#45;&gt;Node7 -->
<g id="edge6_Node000006_Node000007" class="edge">
<title>Node6&#45;&gt;Node7</title>
<g id="a_edge6_Node000006_Node000007"><a xlink:title=" ">
<path fill="none" stroke="#63b8ff" d="M795.09,-57.26C890.7,-46.34 1086,-24.04 1167.49,-14.73"/>
<polygon fill="#63b8ff" stroke="#63b8ff" points="1168.23,-18.17 1177.76,-13.55 1167.43,-11.21 1168.23,-18.17"/>
</a>
</g>
</g>
<!-- Node8 -->
<g id="Node000008" class="node">
<title>Node8</title>
<g id="a_Node000008"><a xlink:title=" ">
<polygon fill="#e0e0e0" stroke="#999999" points="488,-19 435,-19 435,0 488,0 488,-19"/>
<text text-anchor="middle" x="461.5" y="-7" font-family="Helvetica,sans-Serif" font-size="10.00">stdlib.h</text>
</a>
</g>
</g>
<!-- Node6&#45;&gt;Node8 -->
<g id="edge7_Node000006_Node000008" class="edge">
<title>Node6&#45;&gt;Node8</title>
<g id="a_edge7_Node000006_Node000008"><a xlink:title=" ">
<path fill="none" stroke="#63b8ff" d="M695.67,-54.98C640.77,-44.55 548.82,-27.09 498.01,-17.44"/>
<polygon fill="#63b8ff" stroke="#63b8ff" points="498.6,-13.98 488.12,-15.56 497.29,-20.86 498.6,-13.98"/>
</a>
</g>
</g>
<!-- Node9 -->
<g id="Node000009" class="node">
<title>Node9</title>
<g id="a_Node000009"><a xlink:title=" ">
<polygon fill="#e0e0e0" stroke="#999999" points="767,-19 714,-19 714,0 767,0 767,-19"/>
<text text-anchor="middle" x="740.5" y="-7" font-family="Helvetica,sans-Serif" font-size="10.00">limits.h</text>
</a>
</g>
</g>
<!-- Node6&#45;&gt;Node9 -->
<g id="edge8_Node000006_Node000009" class="edge">
<title>Node6&#45;&gt;Node9</title>
<g id="a_edge8_Node000006_Node000009"><a xlink:title=" ">
<path fill="none" stroke="#63b8ff" d="M740.5,-54.75C740.5,-47.8 740.5,-37.85 740.5,-29.13"/>
<polygon fill="#63b8ff" stroke="#63b8ff" points="744,-29.09 740.5,-19.09 737,-29.09 744,-29.09"/>
</a>
</g>
</g>
<!-- Node13&#45;&gt;Node8 -->
<g id="edge13_Node000013_Node000008" class="edge">
<title>Node13&#45;&gt;Node8</title>
<g id="a_edge13_Node000013_Node000008"><a xlink:title=" ">
<path fill="none" stroke="#63b8ff" d="M241.84,-109.63C250.62,-95.79 269.48,-69.2 292.5,-55 333.51,-29.7 388.68,-18.66 424.66,-13.93"/>
<polygon fill="#63b8ff" stroke="#63b8ff" points="425.22,-17.39 434.72,-12.71 424.37,-10.44 425.22,-17.39"/>
</a>
</g>
</g>
<!-- Node14 -->
<g id="Node000014" class="node">
<title>Node14</title>
<g id="a_Node000014"><a xlink:title=" ">
<polygon fill="#e0e0e0" stroke="#999999" points="245,-74 180,-74 180,-55 245,-55 245,-74"/>
<text text-anchor="middle" x="212.5" y="-62" font-family="Helvetica,sans-Serif" font-size="10.00">kit_map.h</text>
</a>
</g>
</g>
<!-- Node13&#45;&gt;Node14 -->
<g id="edge14_Node000013_Node000014" class="edge">
<title>Node13&#45;&gt;Node14</title>
<g id="a_edge14_Node000013_Node000014"><a xlink:title=" ">
<path fill="none" stroke="#63b8ff" d="M232.54,-109.75C229.29,-102.57 224.58,-92.18 220.55,-83.27"/>
<polygon fill="#63b8ff" stroke="#63b8ff" points="223.7,-81.75 216.39,-74.09 217.33,-84.64 223.7,-81.75"/>
</a>
</g>
</g>
<!-- Node17 -->
<g id="Node000017" class="node">
<title>Node17</title>
<g id="a_Node000017"><a xlink:href="_ordered_list_base_8h.html" target="_top" xlink:title=" ">
<polygon fill="white" stroke="#666666" points="819.5,-195 679.5,-195 679.5,-165 819.5,-165 819.5,-195"/>
<text text-anchor="start" x="687.5" y="-183" font-family="Helvetica,sans-Serif" font-size="10.00">Kit/Container/OrderedList</text>
<text text-anchor="middle" x="749.5" y="-172" font-family="Helvetica,sans-Serif" font-size="10.00">Base.h</text>
</a>
</g>
</g>
<!-- Node16&#45;&gt;Node17 -->
<g id="edge17_Node000016_Node000017" class="edge">
<title>Node16&#45;&gt;Node17</title>
<g id="a_edge17_Node000016_Node000017"><a xlink:title=" ">
<path fill="none" stroke="#63b8ff" d="M692.39,-230.87C701.14,-223.22 714.27,-211.76 725.74,-201.75"/>
<polygon fill="#63b8ff" stroke="#63b8ff" points="728.1,-204.33 733.33,-195.11 723.5,-199.06 728.1,-204.33"/>
</a>
</g>
</g>
<!-- Node18 -->
<g id="Node000018" class="node">
<title>Node18</title>
<g id="a_Node000018"><a xlink:href="_d_list_base_8h.html" target="_top" xlink:title=" ">
<polygon fill="white" stroke="#666666" points="981,-129 840,-129 840,-110 981,-110 981,-129"/>
<text text-anchor="middle" x="910.5" y="-117" font-family="Helvetica,sans-Serif" font-size="10.00">Kit/Container/DListBase.h</text>
</a>
</g>
</g>
<!-- Node17&#45;&gt;Node18 -->
<g id="edge18_Node000017_Node000018" class="edge">
<title>Node17&#45;&gt;Node18</title>
<g id="a_edge18_Node000017_Node000018"><a xlink:title=" ">
<path fill="none" stroke="#63b8ff" d="M788.06,-164.99C815.29,-155.1 851.38,-141.98 877.32,-132.56"/>
<polygon fill="#63b8ff" stroke="#63b8ff" points="878.52,-135.84 886.72,-129.14 876.13,-129.26 878.52,-135.84"/>
</a>
</g>
</g>
<!-- Node21 -->
<g id="Node000021" class="node">
<title>Node21</title>
<g id="a_Node000021"><a xlink:href="_keyed_item_8h.html" target="_top" xlink:title=" ">
<polygon fill="white" stroke="#666666" points="822,-129 677,-129 677,-110 822,-110 822,-129"/>
<text text-anchor="middle" x="749.5" y="-117" font-family="Helvetica,sans-Serif" font-size="10.00">Kit/Container/KeyedItem.h</text>
</a>
</g>
</g>
<!-- Node17&#45;&gt;Node21 -->
<g id="edge21_Node000017_Node000021" class="edge">
<title>Node17&#45;&gt;Node21</title>
<g id="a_edge21_Node000017_Node000021"><a xlink:title=" ">
<path fill="none" stroke="#63b8ff" d="M749.5,-164.84C749.5,-157.21 749.5,-147.7 749.5,-139.45"/>
<polygon fill="#63b8ff" stroke="#63b8ff" points="753,-139.27 749.5,-129.27 746,-139.27 753,-139.27"/>
</a>
</g>
</g>
<!-- Node19 -->
<g id="Node000019" class="node">
<title>Node19</title>
<g id="a_Node000019"><a xlink:href="_list_item_8h.html" target="_top" xlink:title=" ">
<polygon fill="white" stroke="#666666" points="976.5,-74 844.5,-74 844.5,-55 976.5,-55 976.5,-74"/>
<text text-anchor="middle" x="910.5" y="-62" font-family="Helvetica,sans-Serif" font-size="10.00">Kit/Container/ListItem.h</text>
</a>
</g>
</g>
<!-- Node18&#45;&gt;Node19 -->
<g id="edge19_Node000018_Node000019" class="edge">
<title>Node18&#45;&gt;Node19</title>
<g id="a_edge19_Node000018_Node000019"><a xlink:title=" ">
<path fill="none" stroke="#63b8ff" d="M910.5,-109.75C910.5,-102.8 910.5,-92.85 910.5,-84.13"/>
<polygon fill="#63b8ff" stroke="#63b8ff" points="914,-84.09 910.5,-74.09 907,-84.09 914,-84.09"/>
</a>
</g>
</g>
<!-- Node20 -->
<g id="Node000020" class="node">
<title>Node20</title>
<g id="a_Node000020"><a xlink:href="_item_8h.html" target="_top" xlink:title=" ">
<polygon fill="white" stroke="#666666" points="968,-19 853,-19 853,0 968,0 968,-19"/>
<text text-anchor="middle" x="910.5" y="-7" font-family="Helvetica,sans-Serif" font-size="10.00">Kit/Container/Item.h</text>
</a>
</g>
</g>
<!-- Node19&#45;&gt;Node20 -->
<g id="edge20_Node000019_Node000020" class="edge">
<title>Node19&#45;&gt;Node20</title>
<g id="a_edge20_Node000019_Node000020"><a xlink:title=" ">
<path fill="none" stroke="#63b8ff" d="M910.5,-54.75C910.5,-47.8 910.5,-37.85 910.5,-29.13"/>
<polygon fill="#63b8ff" stroke="#63b8ff" points="914,-29.09 910.5,-19.09 907,-29.09 914,-29.09"/>
</a>
</g>
</g>
<!-- Node21&#45;&gt;Node6 -->
<g id="edge23_Node000021_Node000006" class="edge">
<title>Node21&#45;&gt;Node6</title>
<g id="a_edge23_Node000021_Node000006"><a xlink:title=" ">
<path fill="none" stroke="#63b8ff" d="M748.01,-109.75C746.83,-102.8 745.14,-92.85 743.66,-84.13"/>
<polygon fill="#63b8ff" stroke="#63b8ff" points="747.08,-83.36 741.96,-74.09 740.18,-84.53 747.08,-83.36"/>
</a>
</g>
</g>
<!-- Node21&#45;&gt;Node19 -->
<g id="edge22_Node000021_Node000019" class="edge">
<title>Node21&#45;&gt;Node19</title>
<g id="a_edge22_Node000021_Node000019"><a xlink:title=" ">
<path fill="none" stroke="#63b8ff" d="M775.37,-109.98C802.28,-101.13 844.62,-87.19 874.73,-77.28"/>
<polygon fill="#63b8ff" stroke="#63b8ff" points="876.03,-80.53 884.43,-74.08 873.84,-73.88 876.03,-80.53"/>
</a>
</g>
</g>
<!-- Node22&#45;&gt;Node7 -->
<g id="edge59_Node000022_Node000007" class="edge">
<title>Node22&#45;&gt;Node7</title>
<g id="a_edge59_Node000022_Node000007"><a xlink:title=" ">
<path fill="none" stroke="#63b8ff" d="M946.2,-403.42C1072.02,-399.48 1363.5,-381.22 1363.5,-296.5 1363.5,-296.5 1363.5,-296.5 1363.5,-118.5 1363.5,-59.59 1287.88,-30.57 1240.94,-18.23"/>
<polygon fill="#63b8ff" stroke="#63b8ff" points="1241.66,-14.8 1231.11,-15.78 1239.97,-21.59 1241.66,-14.8"/>
</a>
</g>
</g>
<!-- Node23 -->
<g id="Node000023" class="node">
<title>Node23</title>
<g id="a_Node000023"><a xlink:href="_primitive_type_8h.html" target="_top" xlink:title=" ">
<polygon fill="white" stroke="#666666" points="963,-360 816,-360 816,-341 963,-341 963,-360"/>
<text text-anchor="middle" x="889.5" y="-348" font-family="Helvetica,sans-Serif" font-size="10.00">Kit/Dm/Mp/PrimitiveType.h</text>
</a>
</g>
</g>
<!-- Node22&#45;&gt;Node23 -->
<g id="edge25_Node000022_Node000023" class="edge">
<title>Node22&#45;&gt;Node23</title>
<g id="a_edge25_Node000022_Node000023"><a xlink:title=" ">
<path fill="none" stroke="#63b8ff" d="M889.5,-395.75C889.5,-388.8 889.5,-378.85 889.5,-370.13"/>
<polygon fill="#63b8ff" stroke="#63b8ff" points="893,-370.09 889.5,-360.09 886,-370.09 893,-370.09"/>
</a>
</g>
</g>
<!-- Node24 -->
<g id="Node000024" class="node">
<title>Node24</title>
<g id="a_Node000024"><a xlink:href="_scalar_8h.html" target="_top" xlink:title=" ">
<polygon fill="white" stroke="#666666" points="1180.5,-305 1070.5,-305 1070.5,-286 1180.5,-286 1180.5,-305"/>
<text text-anchor="middle" x="1125.5" y="-293" font-family="Helvetica,sans-Serif" font-size="10.00">Kit/Dm/Mp/Scalar.h</text>
</a>
</g>
</g>
<!-- Node23&#45;&gt;Node24 -->
<g id="edge26_Node000023_Node000024" class="edge">
<title>Node23&#45;&gt;Node24</title>
<g id="a_edge26_Node000023_Node000024"><a xlink:title=" ">
<path fill="none" stroke="#63b8ff" d="M927.42,-340.98C968.15,-331.84 1033,-317.27 1077.32,-307.32"/>
<polygon fill="#63b8ff" stroke="#63b8ff" points="1078.3,-310.69 1087.29,-305.08 1076.76,-303.86 1078.3,-310.69"/>
</a>
</g>
</g>
<!-- Node31 -->
<g id="Node000031" class="node">
<title>Node31</title>
<g id="a_Node000031"><a xlink:href="_f_string_8h.html" target="_top" xlink:title=" ">
<polygon fill="white" stroke="#666666" points="336,-305 237,-305 237,-286 336,-286 336,-305"/>
<text text-anchor="middle" x="286.5" y="-293" font-family="Helvetica,sans-Serif" font-size="10.00">Kit/Text/FString.h</text>
</a>
</g>
</g>
<!-- Node23&#45;&gt;Node31 -->
<g id="edge49_Node000023_Node000031" class="edge">
<title>Node23&#45;&gt;Node31</title>
<g id="a_edge49_Node000023_Node000031"><a xlink:title=" ">
<path fill="none" stroke="#63b8ff" d="M815.86,-343.03C695.06,-332.41 457.16,-311.5 346.16,-301.74"/>
<polygon fill="#63b8ff" stroke="#63b8ff" points="346.41,-298.25 336.14,-300.86 345.8,-305.23 346.41,-298.25"/>
</a>
</g>
</g>
<!-- Node34 -->
<g id="Node000034" class="node">
<title>Node34</title>
<g id="a_Node000034"><a xlink:href="_string_to_8h.html" target="_top" xlink:title=" ">
<polygon fill="white" stroke="#666666" points="861.5,-305 757.5,-305 757.5,-286 861.5,-286 861.5,-305"/>
<text text-anchor="middle" x="809.5" y="-293" font-family="Helvetica,sans-Serif" font-size="10.00">Kit/Text/StringTo.h</text>
</a>
</g>
</g>
<!-- Node23&#45;&gt;Node34 -->
<g id="edge53_Node000023_Node000034" class="edge">
<title>Node23&#45;&gt;Node34</title>
<g id="a_edge53_Node000023_Node000034"><a xlink:title=" ">
<path fill="none" stroke="#63b8ff" d="M876.65,-340.98C864.36,-332.84 845.59,-320.41 831.02,-310.76"/>
<polygon fill="#63b8ff" stroke="#63b8ff" points="832.86,-307.78 822.59,-305.17 828.99,-313.61 832.86,-307.78"/>
</a>
</g>
</g>
<!-- Node35 -->
<g id="Node000035" class="node">
<title>Node35</title>
<g id="a_Node000035"><a xlink:title=" ">
<polygon fill="#e0e0e0" stroke="#999999" points="922,-250 853,-250 853,-231 922,-231 922,-250"/>
<text text-anchor="middle" x="887.5" y="-238" font-family="Helvetica,sans-Serif" font-size="10.00">type_traits</text>
</a>
</g>
</g>
<!-- Node23&#45;&gt;Node35 -->
<g id="edge58_Node000023_Node000035" class="edge">
<title>Node23&#45;&gt;Node35</title>
<g id="a_edge58_Node000023_Node000035"><a xlink:title=" ">
<path fill="none" stroke="#63b8ff" d="M889.34,-340.66C889.01,-323.17 888.28,-283.8 887.85,-260.27"/>
<polygon fill="#63b8ff" stroke="#63b8ff" points="891.34,-260.09 887.66,-250.16 884.35,-260.22 891.34,-260.09"/>
</a>
</g>
</g>
<!-- Node37 -->
<g id="Node000037" class="node">
<title>Node37</title>
<g id="a_Node000037"><a xlink:title=" ">
<polygon fill="#e0e0e0" stroke="#999999" points="983,-305 918,-305 918,-286 983,-286 983,-305"/>
<text text-anchor="middle" x="950.5" y="-293" font-family="Helvetica,sans-Serif" font-size="10.00">inttypes.h</text>
</a>
</g>
</g>
<!-- Node23&#45;&gt;Node37 -->
<g id="edge57_Node000023_Node000037" class="edge">
<title>Node23&#45;&gt;Node37</title>
<g id="a_edge57_Node000023_Node000037"><a xlink:title=" ">
<path fill="none" stroke="#63b8ff" d="M899.3,-340.98C908.32,-333.15 921.91,-321.34 932.82,-311.86"/>
<polygon fill="#63b8ff" stroke="#63b8ff" points="935.27,-314.37 940.52,-305.17 930.68,-309.09 935.27,-314.37"/>
</a>
</g>
</g>
<!-- Node24&#45;&gt;Node7 -->
<g id="edge48_Node000024_Node000007" class="edge">
<title>Node24&#45;&gt;Node7</title>
<g id="a_edge48_Node000024_Node000007"><a xlink:title=" ">
<path fill="none" stroke="#63b8ff" d="M1180.68,-287.16C1239.88,-275.83 1325.5,-247.87 1325.5,-181 1325.5,-181 1325.5,-181 1325.5,-118.5 1325.5,-71.14 1273.27,-39.4 1237.44,-23.19"/>
<polygon fill="#63b8ff" stroke="#63b8ff" points="1238.4,-19.79 1227.83,-19.03 1235.62,-26.21 1238.4,-19.79"/>
</a>
</g>
</g>
<!-- Node25 -->
<g id="Node000025" class="node">
<title>Node25</title>
<g id="a_Node000025"><a xlink:href="_model_point_base_8h.html" target="_top" xlink:title=" ">
<polygon fill="white" stroke="#666666" points="1104,-250 963,-250 963,-231 1104,-231 1104,-250"/>
<text text-anchor="middle" x="1033.5" y="-238" font-family="Helvetica,sans-Serif" font-size="10.00">Kit/Dm/ModelPointBase.h</text>
</a>
</g>
</g>
<!-- Node24&#45;&gt;Node25 -->
<g id="edge27_Node000024_Node000025" class="edge">
<title>Node24&#45;&gt;Node25</title>
<g id="a_edge27_Node000024_Node000025"><a xlink:title=" ">
<path fill="none" stroke="#63b8ff" d="M1110.72,-285.98C1096.32,-277.69 1074.19,-264.94 1057.31,-255.22"/>
<polygon fill="#63b8ff" stroke="#63b8ff" points="1058.96,-252.13 1048.55,-250.17 1055.47,-258.19 1058.96,-252.13"/>
</a>
</g>
</g>
<!-- Node30 -->
<g id="Node000030" class="node">
<title>Node30</title>
<g id="a_Node000030"><a xlink:href="_observer_8h.html" target="_top" xlink:title=" ">
<polygon fill="white" stroke="#666666" points="1241.5,-250 1135.5,-250 1135.5,-231 1241.5,-231 1241.5,-250"/>
<text text-anchor="middle" x="1188.5" y="-238" font-family="Helvetica,sans-Serif" font-size="10.00">Kit/Dm/Observer.h</text>
</a>
</g>
</g>
<!-- Node24&#45;&gt;Node30 -->
<g id="edge44_Node000024_Node000030" class="edge">
<title>Node24&#45;&gt;Node30</title>
<g id="a_edge44_Node000024_Node000030"><a xlink:title=" ">
<path fill="none" stroke="#63b8ff" d="M1135.62,-285.98C1144.94,-278.15 1158.97,-266.34 1170.24,-256.86"/>
<polygon fill="#63b8ff" stroke="#63b8ff" points="1172.79,-259.29 1178.19,-250.17 1168.29,-253.93 1172.79,-259.29"/>
</a>
</g>
</g>
<!-- Node25&#45;&gt;Node3 -->
<g id="edge38_Node000025_Node000003" class="edge">
<title>Node25&#45;&gt;Node3</title>
<g id="a_edge38_Node000025_Node000003"><a xlink:title=" ">
<path fill="none" stroke="#63b8ff" d="M962.86,-231.71C883.1,-222.89 749.46,-208.06 634.5,-195 621.61,-193.54 607.94,-191.97 594.62,-190.43"/>
<polygon fill="#63b8ff" stroke="#63b8ff" points="594.85,-186.94 584.51,-189.27 594.05,-193.89 594.85,-186.94"/>
</a>
</g>
</g>
<!-- Node25&#45;&gt;Node7 -->
<g id="edge42_Node000025_Node000007" class="edge">
<title>Node25&#45;&gt;Node7</title>
<g id="a_edge42_Node000025_Node000007"><a xlink:title=" ">
<path fill="none" stroke="#63b8ff" d="M1052.6,-230.93C1067.78,-223.32 1088.68,-210.94 1102.5,-195 1129.72,-163.59 1121.67,-146.53 1141.5,-110 1157.76,-80.04 1179.56,-46.9 1192.79,-27.43"/>
<polygon fill="#63b8ff" stroke="#63b8ff" points="1195.77,-29.28 1198.53,-19.05 1190,-25.32 1195.77,-29.28"/>
</a>
</g>
</g>
<!-- Node25&#45;&gt;Node8 -->
<g id="edge43_Node000025_Node000008" class="edge">
<title>Node25&#45;&gt;Node8</title>
<g id="a_edge43_Node000025_Node000008"><a xlink:title=" ">
<path fill="none" stroke="#63b8ff" d="M962.95,-232.65C860.68,-222.46 682.1,-203.6 670.5,-195 615.83,-154.47 659.48,-100.07 608.5,-55 577.67,-27.75 530.6,-17.18 498.07,-13.09"/>
<polygon fill="#63b8ff" stroke="#63b8ff" points="498.38,-9.6 488.06,-11.97 497.61,-16.56 498.38,-9.6"/>
</a>
</g>
</g>
<!-- Node26 -->
<g id="Node000026" class="node">
<title>Node26</title>
<g id="a_Node000026"><a xlink:href="_i_model_point_8h.html" target="_top" xlink:title=" ">
<polygon fill="white" stroke="#666666" points="1093.5,-189.5 973.5,-189.5 973.5,-170.5 1093.5,-170.5 1093.5,-189.5"/>
<text text-anchor="middle" x="1033.5" y="-177.5" font-family="Helvetica,sans-Serif" font-size="10.00">Kit/Dm/IModelPoint.h</text>
</a>
</g>
</g>
<!-- Node25&#45;&gt;Node26 -->
<g id="edge28_Node000025_Node000026" class="edge">
<title>Node25&#45;&gt;Node26</title>
<g id="a_edge28_Node000025_Node000026"><a xlink:title=" ">
<path fill="none" stroke="#63b8ff" d="M1033.5,-230.87C1033.5,-222.75 1033.5,-210.31 1033.5,-199.89"/>
<polygon fill="#63b8ff" stroke="#63b8ff" points="1037,-199.67 1033.5,-189.67 1030,-199.67 1037,-199.67"/>
</a>
</g>
</g>
<!-- Node27 -->
<g id="Node000027" class="node">
<title>Node27</title>
<g id="a_Node000027"><a xlink:href="_i_observer_8h.html" target="_top" xlink:title=" ">
<polygon fill="white" stroke="#666666" points="1259,-129 1150,-129 1150,-110 1259,-110 1259,-129"/>
<text text-anchor="middle" x="1204.5" y="-117" font-family="Helvetica,sans-Serif" font-size="10.00">Kit/Dm/IObserver.h</text>
</a>
</g>
</g>
<!-- Node25&#45;&gt;Node27 -->
<g id="edge39_Node000025_Node000027" class="edge">
<title>Node25&#45;&gt;Node27</title>
<g id="a_edge39_Node000025_Node000027"><a xlink:title=" ">
<path fill="none" stroke="#63b8ff" d="M1061.07,-230.96C1082.56,-223.51 1112.5,-211.33 1135.5,-195 1158.3,-178.81 1179.34,-154.08 1192.04,-137.61"/>
<polygon fill="#63b8ff" stroke="#63b8ff" points="1194.99,-139.51 1198.2,-129.41 1189.39,-135.3 1194.99,-139.51"/>
</a>
</g>
</g>
<!-- Node29 -->
<g id="Node000029" class="node">
<title>Node29</title>
<g id="a_Node000029"><a xlink:href="_d_list_8h.html" target="_top" xlink:title=" ">
<polygon fill="white" stroke="#666666" points="955,-189.5 838,-189.5 838,-170.5 955,-170.5 955,-189.5"/>
<text text-anchor="middle" x="896.5" y="-177.5" font-family="Helvetica,sans-Serif" font-size="10.00">Kit/Container/DList.h</text>
</a>
</g>
</g>
<!-- Node25&#45;&gt;Node29 -->
<g id="edge40_Node000025_Node000029" class="edge">
<title>Node25&#45;&gt;Node29</title>
<g id="a_edge40_Node000025_Node000029"><a xlink:title=" ">
<path fill="none" stroke="#63b8ff" d="M1013.58,-230.99C990.55,-221.16 952.42,-204.88 925.96,-193.58"/>
<polygon fill="#63b8ff" stroke="#63b8ff" points="927.02,-190.22 916.45,-189.52 924.27,-196.66 927.02,-190.22"/>
</a>
</g>
</g>
<!-- Node26&#45;&gt;Node4 -->
<g id="edge29_Node000026_Node000004" class="edge">
<title>Node26&#45;&gt;Node4</title>
<g id="a_edge29_Node000026_Node000004"><a xlink:title=" ">
<path fill="none" stroke="#63b8ff" d="M994.2,-170.43C984.52,-168.49 974.16,-166.54 964.5,-165 901.15,-154.89 717.35,-134.79 630.28,-125.47"/>
<polygon fill="#63b8ff" stroke="#63b8ff" points="630.48,-121.97 620.16,-124.38 629.73,-128.93 630.48,-121.97"/>
</a>
</g>
</g>
<!-- Node26&#45;&gt;Node5 -->
<g id="edge31_Node000026_Node000005" class="edge">
<title>Node26&#45;&gt;Node5</title>
<g id="a_edge31_Node000026_Node000005"><a xlink:title=" ">
<path fill="none" stroke="#63b8ff" d="M996.05,-170.45C985.86,-168.38 974.8,-166.38 964.5,-165 725.88,-133.1 660.96,-154.42 418.47,-129.12"/>
<polygon fill="#63b8ff" stroke="#63b8ff" points="418.6,-125.62 408.28,-128.04 417.86,-132.58 418.6,-125.62"/>
</a>
</g>
</g>
<!-- Node26&#45;&gt;Node7 -->
<g id="edge37_Node000026_Node000007" class="edge">
<title>Node26&#45;&gt;Node7</title>
<g id="a_edge37_Node000026_Node000007"><a xlink:title=" ">
<path fill="none" stroke="#63b8ff" d="M1039.06,-170.2C1045.33,-160.24 1055.77,-143.54 1064.5,-129 1084.08,-96.39 1079.34,-80.57 1107.5,-55 1124.75,-39.34 1148.46,-28.32 1168.12,-21.17"/>
<polygon fill="#63b8ff" stroke="#63b8ff" points="1169.37,-24.44 1177.69,-17.87 1167.09,-17.82 1169.37,-24.44"/>
</a>
</g>
</g>
<!-- Node26&#45;&gt;Node15 -->
<g id="edge35_Node000026_Node000015" class="edge">
<title>Node26&#45;&gt;Node15</title>
<g id="a_edge35_Node000026_Node000015"><a xlink:title=" ">
<path fill="none" stroke="#63b8ff" d="M995.32,-170.43C985.33,-168.41 974.54,-166.44 964.5,-165 779.19,-138.48 728.47,-149.95 539.19,-129.13"/>
<polygon fill="#63b8ff" stroke="#63b8ff" points="539.51,-125.64 529.19,-128.01 538.74,-132.6 539.51,-125.64"/>
</a>
</g>
</g>
<!-- Node26&#45;&gt;Node21 -->
<g id="edge30_Node000026_Node000021" class="edge">
<title>Node26&#45;&gt;Node21</title>
<g id="a_edge30_Node000026_Node000021"><a xlink:title=" ">
<path fill="none" stroke="#63b8ff" d="M992.2,-170.49C941.51,-160.05 855.55,-142.35 800.71,-131.05"/>
<polygon fill="#63b8ff" stroke="#63b8ff" points="801.35,-127.61 790.85,-129.02 799.93,-134.46 801.35,-127.61"/>
</a>
</g>
</g>
<!-- Node26&#45;&gt;Node27 -->
<g id="edge32_Node000026_Node000027" class="edge">
<title>Node26&#45;&gt;Node27</title>
<g id="a_edge32_Node000026_Node000027"><a xlink:title=" ">
<path fill="none" stroke="#63b8ff" d="M1058.36,-170.49C1087.75,-160.44 1136.81,-143.66 1169.89,-132.34"/>
<polygon fill="#63b8ff" stroke="#63b8ff" points="1171.28,-135.57 1179.61,-129.02 1169.01,-128.94 1171.28,-135.57"/>
</a>
</g>
</g>
<!-- Node28 -->
<g id="Node000028" class="node">
<title>Node28</title>
<g id="a_Node000028"><a xlink:title=" ">
<polygon fill="#e0e0e0" stroke="#999999" points="1055.5,-129 999.5,-129 999.5,-110 1055.5,-110 1055.5,-129"/>
<text text-anchor="middle" x="1027.5" y="-117" font-family="Helvetica,sans-Serif" font-size="10.00">stddef.h</text>
</a>
</g>
</g>
<!-- Node26&#45;&gt;Node28 -->
<g id="edge36_Node000026_Node000028" class="edge">
<title>Node26&#45;&gt;Node28</title>
<g id="a_edge36_Node000026_Node000028"><a xlink:title=" ">
<path fill="none" stroke="#63b8ff" d="M1032.61,-170.37C1031.78,-162.25 1030.51,-149.81 1029.44,-139.39"/>
<polygon fill="#63b8ff" stroke="#63b8ff" points="1032.89,-138.76 1028.39,-129.17 1025.93,-139.47 1032.89,-138.76"/>
</a>
</g>
</g>
<!-- Node27&#45;&gt;Node7 -->
<g id="edge34_Node000027_Node000007" class="edge">
<title>Node27&#45;&gt;Node7</title>
<g id="a_edge34_Node000027_Node000007"><a xlink:title=" ">
<path fill="none" stroke="#63b8ff" d="M1204.5,-109.66C1204.5,-92.17 1204.5,-52.8 1204.5,-29.27"/>
<polygon fill="#63b8ff" stroke="#63b8ff" points="1208,-29.16 1204.5,-19.16 1201,-29.16 1208,-29.16"/>
</a>
</g>
</g>
<!-- Node27&#45;&gt;Node19 -->
<g id="edge33_Node000027_Node000019" class="edge">
<title>Node27&#45;&gt;Node19</title>
<g id="a_edge33_Node000027_Node000019"><a xlink:title=" ">
<path fill="none" stroke="#63b8ff" d="M1157.26,-109.98C1105.77,-100.7 1023.34,-85.84 968.09,-75.88"/>
<polygon fill="#63b8ff" stroke="#63b8ff" points="968.57,-72.41 958.11,-74.08 967.33,-79.3 968.57,-72.41"/>
</a>
</g>
</g>
<!-- Node29&#45;&gt;Node18 -->
<g id="edge41_Node000029_Node000018" class="edge">
<title>Node29&#45;&gt;Node18</title>
<g id="a_edge41_Node000029_Node000018"><a xlink:title=" ">
<path fill="none" stroke="#63b8ff" d="M898.57,-170.37C900.53,-162.16 903.55,-149.54 906.06,-139.05"/>
<polygon fill="#63b8ff" stroke="#63b8ff" points="909.5,-139.71 908.43,-129.17 902.69,-138.08 909.5,-139.71"/>
</a>
</g>
</g>
<!-- Node30&#45;&gt;Node7 -->
<g id="edge47_Node000030_Node000007" class="edge">
<title>Node30&#45;&gt;Node7</title>
<g id="a_edge47_Node000030_Node000007"><a xlink:title=" ">
<path fill="none" stroke="#63b8ff" d="M1197.81,-230.89C1215.7,-213.63 1254.34,-172.71 1268.5,-129 1281.26,-89.6 1245.73,-48 1222.62,-26.1"/>
<polygon fill="#63b8ff" stroke="#63b8ff" points="1224.81,-23.36 1215.06,-19.21 1220.1,-28.53 1224.81,-23.36"/>
</a>
</g>
</g>
<!-- Node30&#45;&gt;Node26 -->
<g id="edge46_Node000030_Node000026" class="edge">
<title>Node30&#45;&gt;Node26</title>
<g id="a_edge46_Node000030_Node000026"><a xlink:title=" ">
<path fill="none" stroke="#63b8ff" d="M1165.96,-230.99C1139.56,-221.03 1095.62,-204.45 1065.65,-193.13"/>
<polygon fill="#63b8ff" stroke="#63b8ff" points="1066.66,-189.77 1056.07,-189.52 1064.19,-196.32 1066.66,-189.77"/>
</a>
</g>
</g>
<!-- Node30&#45;&gt;Node27 -->
<g id="edge45_Node000030_Node000027" class="edge">
<title>Node30&#45;&gt;Node27</title>
<g id="a_edge45_Node000030_Node000027"><a xlink:title=" ">
<path fill="none" stroke="#63b8ff" d="M1189.65,-230.94C1192.21,-211.91 1198.42,-165.69 1201.95,-139.47"/>
<polygon fill="#63b8ff" stroke="#63b8ff" points="1205.45,-139.68 1203.32,-129.3 1198.52,-138.75 1205.45,-139.68"/>
</a>
</g>
</g>
<!-- Node32 -->
<g id="Node000032" class="node">
<title>Node32</title>
<g id="a_Node000032"><a xlink:href="_f_string_base_8h.html" target="_top" xlink:title=" ">
<polygon fill="white" stroke="#666666" points="123,-250 0,-250 0,-231 123,-231 123,-250"/>
<text text-anchor="middle" x="61.5" y="-238" font-family="Helvetica,sans-Serif" font-size="10.00">Kit/Text/FStringBase.h</text>
</a>
</g>
</g>
<!-- Node31&#45;&gt;Node32 -->
<g id="edge50_Node000031_Node000032" class="edge">
<title>Node31&#45;&gt;Node32</title>
<g id="a_edge50_Node000031_Node000032"><a xlink:title=" ">
<path fill="none" stroke="#63b8ff" d="M250.35,-285.98C211.59,-276.86 149.95,-262.33 107.7,-252.38"/>
<polygon fill="#63b8ff" stroke="#63b8ff" points="108.47,-248.97 97.93,-250.08 106.86,-255.78 108.47,-248.97"/>
</a>
</g>
</g>
<!-- Node33 -->
<g id="Node000033" class="node">
<title>Node33</title>
<g id="a_Node000033"><a xlink:href="_string_base_8h.html" target="_top" xlink:title=" ">
<polygon fill="white" stroke="#666666" points="121.5,-189.5 3.5,-189.5 3.5,-170.5 121.5,-170.5 121.5,-189.5"/>
<text text-anchor="middle" x="62.5" y="-177.5" font-family="Helvetica,sans-Serif" font-size="10.00">Kit/Text/StringBase.h</text>
</a>
</g>
</g>
<!-- Node32&#45;&gt;Node33 -->
<g id="edge51_Node000032_Node000033" class="edge">
<title>Node32&#45;&gt;Node33</title>
<g id="a_edge51_Node000032_Node000033"><a xlink:title=" ">
<path fill="none" stroke="#63b8ff" d="M61.65,-230.87C61.79,-222.75 62,-210.31 62.18,-199.89"/>
<polygon fill="#63b8ff" stroke="#63b8ff" points="65.68,-199.73 62.35,-189.67 58.68,-199.61 65.68,-199.73"/>
</a>
</g>
</g>
<!-- Node33&#45;&gt;Node5 -->
<g id="edge52_Node000033_Node000005" class="edge">
<title>Node33&#45;&gt;Node5</title>
<g id="a_edge52_Node000033_Node000005"><a xlink:title=" ">
<path fill="none" stroke="#63b8ff" d="M105.69,-170.49C158.81,-160.03 248.97,-142.27 306.3,-130.98"/>
<polygon fill="#63b8ff" stroke="#63b8ff" points="307.13,-134.38 316.26,-129.02 305.77,-127.52 307.13,-134.38"/>
</a>
</g>
</g>
<!-- Node34&#45;&gt;Node8 -->
<g id="edge54_Node000034_Node000008" class="edge">
<title>Node34&#45;&gt;Node8</title>
<g id="a_edge54_Node000034_Node000008"><a xlink:title=" ">
<path fill="none" stroke="#63b8ff" d="M757.32,-286.87C601.69,-263.96 151.5,-196.34 151.5,-181 151.5,-181 151.5,-181 151.5,-118.5 151.5,-89.04 148.27,-74.33 170.5,-55 207.82,-22.54 355.07,-13.72 424.67,-11.36"/>
<polygon fill="#63b8ff" stroke="#63b8ff" points="424.87,-14.85 434.75,-11.04 424.65,-7.86 424.87,-14.85"/>
</a>
</g>
</g>
<!-- Node34&#45;&gt;Node35 -->
<g id="edge55_Node000034_Node000035" class="edge">
<title>Node34&#45;&gt;Node35</title>
<g id="a_edge55_Node000034_Node000035"><a xlink:title=" ">
<path fill="none" stroke="#63b8ff" d="M822.03,-285.98C833.9,-277.92 851.96,-265.65 866.11,-256.03"/>
<polygon fill="#63b8ff" stroke="#63b8ff" points="868.44,-258.69 874.74,-250.17 864.5,-252.9 868.44,-258.69"/>
</a>
</g>
</g>
<!-- Node36 -->
<g id="Node000036" class="node">
<title>Node36</title>
<g id="a_Node000036"><a xlink:title=" ">
<polygon fill="#e0e0e0" stroke="#999999" points="831.5,-250 787.5,-250 787.5,-231 831.5,-231 831.5,-250"/>
<text text-anchor="middle" x="809.5" y="-238" font-family="Helvetica,sans-Serif" font-size="10.00">limits</text>
</a>
</g>
</g>
<!-- Node34&#45;&gt;Node36 -->
<g id="edge56_Node000034_Node000036" class="edge">
<title>Node34&#45;&gt;Node36</title>
<g id="a_edge56_Node000034_Node000036"><a xlink:title=" ">
<path fill="none" stroke="#63b8ff" d="M809.5,-285.75C809.5,-278.8 809.5,-268.85 809.5,-260.13"/>
<polygon fill="#63b8ff" stroke="#63b8ff" points="813,-260.09 809.5,-250.09 806,-260.09 813,-260.09"/>
</a>
</g>
</g>
</g>
</svg>
