<?xml version="1.0" encoding="UTF-8" standalone="no"?>
<!DOCTYPE svg PUBLIC "-//W3C//DTD SVG 1.1//EN"
 "http://www.w3.org/Graphics/SVG/1.1/DTD/svg11.dtd">
<!-- Generated by graphviz version 2.43.0 (0)
 -->
<!-- Title: Kit/Container/DList.h Pages: 1 -->
<svg width="3831pt" height="412pt"
 viewBox="0.00 0.00 3830.50 412.00" xmlns="http://www.w3.org/2000/svg" xmlns:xlink="http://www.w3.org/1999/xlink">
<g id="graph0" class="graph" transform="scale(1 1) rotate(0) translate(4 408)">
<title>Kit/Container/DList.h</title>
<!-- Node1 -->
<g id="Node000001" class="node">
<title>Node1</title>
<g id="a_Node000001"><a xlink:title=" ">
<polygon fill="#999999" stroke="#666666" points="2855,-404 2738,-404 2738,-385 2855,-385 2855,-404"/>
<text text-anchor="middle" x="2796.5" y="-392" font-family="Helvetica,sans-Serif" font-size="10.00">Kit/Container/DList.h</text>
</a>
</g>
</g>
<!-- Node2 -->
<g id="Node000002" class="node">
<title>Node2</title>
<g id="a_Node000002"><a xlink:href="_flasher_8h.html" target="_top" xlink:title=" ">
<polygon fill="white" stroke="#666666" points="2367,-272 2218,-272 2218,-231 2367,-231 2367,-272"/>
<text text-anchor="start" x="2226" y="-260" font-family="Helvetica,sans-Serif" font-size="10.00">/home/runner/work/kit.core</text>
<text text-anchor="start" x="2226" y="-249" font-family="Helvetica,sans-Serif" font-size="10.00">/kit.core/projects/examples</text>
<text text-anchor="middle" x="2292.5" y="-238" font-family="Helvetica,sans-Serif" font-size="10.00">/Container/Lists/Flasher.h</text>
</a>
</g>
</g>
<!-- Node1&#45;&gt;Node2 -->
<g id="edge1_Node000001_Node000002" class="edge">
<title>Node1&#45;&gt;Node2</title>
<g id="a_edge1_Node000001_Node000002"><a xlink:title=" ">
<path fill="none" stroke="#63b8ff" d="M2727.55,-389.06C2637.19,-382.57 2484.06,-369.03 2431.5,-349 2385.11,-331.32 2339.39,-294.93 2313.68,-272.23"/>
<polygon fill="#63b8ff" stroke="#63b8ff" points="2727.48,-392.57 2737.7,-389.78 2727.97,-385.58 2727.48,-392.57"/>
</a>
</g>
</g>
<!-- Node3 -->
<g id="Node000003" class="node">
<title>Node3</title>
<g id="a_Node000003"><a xlink:href="_period_8h.html" target="_top" xlink:title=" ">
<polygon fill="white" stroke="#666666" points="2590,-349 2441,-349 2441,-308 2590,-308 2590,-349"/>
<text text-anchor="start" x="2449" y="-337" font-family="Helvetica,sans-Serif" font-size="10.00">/home/runner/work/kit.core</text>
<text text-anchor="start" x="2449" y="-326" font-family="Helvetica,sans-Serif" font-size="10.00">/kit.core/projects/examples</text>
<text text-anchor="middle" x="2515.5" y="-315" font-family="Helvetica,sans-Serif" font-size="10.00">/Container/Lists/Period.h</text>
</a>
</g>
</g>
<!-- Node1&#45;&gt;Node3 -->
<g id="edge2_Node000001_Node000003" class="edge">
<title>Node1&#45;&gt;Node3</title>
<g id="a_edge2_Node000001_Node000003"><a xlink:title=" ">
<path fill="none" stroke="#63b8ff" d="M2748.87,-382.65C2705.39,-372.75 2640.41,-357.95 2590.05,-346.48"/>
<polygon fill="#63b8ff" stroke="#63b8ff" points="2748.37,-386.13 2758.89,-384.94 2749.92,-379.3 2748.37,-386.13"/>
</a>
</g>
</g>
<!-- Node4 -->
<g id="Node000004" class="node">
<title>Node4</title>
<g id="a_Node000004"><a xlink:href="_change_handler_8h.html" target="_top" xlink:title=" ">
<polygon fill="white" stroke="#666666" points="3389,-338 3252,-338 3252,-319 3389,-319 3389,-338"/>
<text text-anchor="middle" x="3320.5" y="-326" font-family="Helvetica,sans-Serif" font-size="10.00">Kit/Dm/ChangeHandler.h</text>
</a>
</g>
</g>
<!-- Node1&#45;&gt;Node4 -->
<g id="edge4_Node000001_Node000004" class="edge">
<title>Node1&#45;&gt;Node4</title>
<g id="a_edge4_Node000001_Node000004"><a xlink:title=" ">
<path fill="none" stroke="#63b8ff" d="M2865.12,-385.12C2965.57,-372.85 3151.57,-350.13 3251.97,-337.87"/>
<polygon fill="#63b8ff" stroke="#63b8ff" points="2864.59,-381.66 2855.08,-386.34 2865.43,-388.61 2864.59,-381.66"/>
</a>
</g>
</g>
<!-- Node8 -->
<g id="Node000008" class="node">
<title>Node8</title>
<g id="a_Node000008"><a xlink:href="_model_point_base_8h.html" target="_top" xlink:title=" ">
<polygon fill="white" stroke="#666666" points="2789,-338 2648,-338 2648,-319 2789,-319 2789,-338"/>
<text text-anchor="middle" x="2718.5" y="-326" font-family="Helvetica,sans-Serif" font-size="10.00">Kit/Dm/ModelPointBase.h</text>
</a>
</g>
</g>
<!-- Node1&#45;&gt;Node8 -->
<g id="edge8_Node000001_Node000008" class="edge">
<title>Node1&#45;&gt;Node8</title>
<g id="a_edge8_Node000001_Node000008"><a xlink:title=" ">
<path fill="none" stroke="#63b8ff" d="M2778.2,-378.49C2762.93,-365.96 2741.7,-348.54 2729.1,-338.2"/>
<polygon fill="#63b8ff" stroke="#63b8ff" points="2776.03,-381.23 2785.98,-384.87 2780.47,-375.82 2776.03,-381.23"/>
</a>
</g>
</g>
<!-- Node94 -->
<g id="Node000094" class="node">
<title>Node94</title>
<g id="a_Node000094"><a xlink:href="_pool_8h.html" target="_top" xlink:title=" ">
<polygon fill="white" stroke="#666666" points="3685,-338 3578,-338 3578,-319 3685,-319 3685,-338"/>
<text text-anchor="middle" x="3631.5" y="-326" font-family="Helvetica,sans-Serif" font-size="10.00">Kit/Memory/Pool.h</text>
</a>
</g>
</g>
<!-- Node1&#45;&gt;Node94 -->
<g id="edge49_Node000001_Node000094" class="edge">
<title>Node1&#45;&gt;Node94</title>
<g id="a_edge49_Node000001_Node000094"><a xlink:title=" ">
<path fill="none" stroke="#63b8ff" d="M2865.61,-391.66C3028.85,-386.98 3434.62,-373.21 3568.5,-349 3582.02,-346.56 3596.71,-342.12 3608.5,-338.09"/>
<polygon fill="#63b8ff" stroke="#63b8ff" points="2865.11,-388.18 2855.21,-391.96 2865.31,-395.17 2865.11,-388.18"/>
</a>
</g>
</g>
<!-- Node97 -->
<g id="Node000097" class="node">
<title>Node97</title>
<g id="a_Node000097"><a xlink:href="_timer_manager_8h.html" target="_top" xlink:title=" ">
<polygon fill="white" stroke="#666666" points="3559.5,-338 3407.5,-338 3407.5,-319 3559.5,-319 3559.5,-338"/>
<text text-anchor="middle" x="3483.5" y="-326" font-family="Helvetica,sans-Serif" font-size="10.00">Kit/System/TimerManager.h</text>
</a>
</g>
</g>
<!-- Node1&#45;&gt;Node97 -->
<g id="edge52_Node000001_Node000097" class="edge">
<title>Node1&#45;&gt;Node97</title>
<g id="a_edge52_Node000001_Node000097"><a xlink:title=" ">
<path fill="none" stroke="#63b8ff" d="M2865.41,-391.73C2977.52,-388.12 3206.1,-377.62 3397.5,-349 3415.37,-346.33 3435.03,-341.98 3451.05,-338.06"/>
<polygon fill="#63b8ff" stroke="#63b8ff" points="2865.15,-388.24 2855.26,-392.05 2865.37,-395.24 2865.15,-388.24"/>
</a>
</g>
</g>
<!-- Node3&#45;&gt;Node2 -->
<g id="edge3_Node000003_Node000002" class="edge">
<title>Node3&#45;&gt;Node2</title>
<g id="a_edge3_Node000003_Node000002"><a xlink:title=" ">
<path fill="none" stroke="#63b8ff" d="M2447.63,-304.67C2416.64,-294.25 2380.31,-282.03 2350.61,-272.04"/>
<polygon fill="#63b8ff" stroke="#63b8ff" points="2446.9,-308.12 2457.49,-307.99 2449.13,-301.49 2446.9,-308.12"/>
</a>
</g>
</g>
<!-- Node5 -->
<g id="Node000005" class="node">
<title>Node5</title>
<g id="a_Node000005"><a xlink:href="src_2_kit_2_event_queue_2_server_8h.html" target="_top" xlink:title=" ">
<polygon fill="white" stroke="#666666" points="3658,-184 3523,-184 3523,-165 3658,-165 3658,-184"/>
<text text-anchor="middle" x="3590.5" y="-172" font-family="Helvetica,sans-Serif" font-size="10.00">Kit/EventQueue/Server.h</text>
</a>
</g>
</g>
<!-- Node4&#45;&gt;Node5 -->
<g id="edge5_Node000004_Node000005" class="edge">
<title>Node4&#45;&gt;Node5</title>
<g id="a_edge5_Node000004_Node000005"><a xlink:title=" ">
<path fill="none" stroke="#63b8ff" d="M3332.55,-310.75C3348.83,-289.3 3379.82,-252.36 3414.5,-231 3438.51,-216.22 3512.69,-195.53 3556.71,-184.04"/>
<polygon fill="#63b8ff" stroke="#63b8ff" points="3329.65,-308.79 3326.51,-318.91 3335.28,-312.96 3329.65,-308.79"/>
</a>
</g>
</g>
<!-- Node6 -->
<g id="Node000006" class="node">
<title>Node6</title>
<g id="a_Node000006"><a xlink:href="_with_periodic_scheduling_8h.html" target="_top" xlink:title=" ">
<polygon fill="white" stroke="#666666" points="3669,-112.5 3512,-112.5 3512,-82.5 3669,-82.5 3669,-112.5"/>
<text text-anchor="start" x="3520" y="-100.5" font-family="Helvetica,sans-Serif" font-size="10.00">Kit/EventQueue/WithPeriodic</text>
<text text-anchor="middle" x="3590.5" y="-89.5" font-family="Helvetica,sans-Serif" font-size="10.00">Scheduling.h</text>
</a>
</g>
</g>
<!-- Node5&#45;&gt;Node6 -->
<g id="edge6_Node000005_Node000006" class="edge">
<title>Node5&#45;&gt;Node6</title>
<g id="a_edge6_Node000005_Node000006"><a xlink:title=" ">
<path fill="none" stroke="#63b8ff" d="M3590.5,-154.7C3590.5,-141.64 3590.5,-124.51 3590.5,-112.61"/>
<polygon fill="#63b8ff" stroke="#63b8ff" points="3587,-154.9 3590.5,-164.9 3594,-154.9 3587,-154.9"/>
</a>
</g>
</g>
<!-- Node7 -->
<g id="Node000007" class="node">
<title>Node7</title>
<g id="a_Node000007"><a xlink:href="helpers_8h.html" target="_top" xlink:title="This file defines helper functions/interface for writing unit tests.">
<polygon fill="white" stroke="#666666" points="3376.5,-112.5 3264.5,-112.5 3264.5,-82.5 3376.5,-82.5 3376.5,-112.5"/>
<text text-anchor="start" x="3272.5" y="-100.5" font-family="Helvetica,sans-Serif" font-size="10.00">Kit/_support/testing</text>
<text text-anchor="middle" x="3320.5" y="-89.5" font-family="Helvetica,sans-Serif" font-size="10.00">/helpers.h</text>
</a>
</g>
</g>
<!-- Node5&#45;&gt;Node7 -->
<g id="edge7_Node000005_Node000007" class="edge">
<title>Node5&#45;&gt;Node7</title>
<g id="a_edge7_Node000005_Node000007"><a xlink:title=" ">
<path fill="none" stroke="#63b8ff" d="M3550.1,-162.28C3502.3,-149 3422.7,-126.89 3370.92,-112.5"/>
<polygon fill="#63b8ff" stroke="#63b8ff" points="3549.22,-165.67 3559.79,-164.97 3551.09,-158.92 3549.22,-165.67"/>
</a>
</g>
</g>
<!-- Node9 -->
<g id="Node000009" class="node">
<title>Node9</title>
<g id="a_Node000009"><a xlink:href="_array_base_8h.html" target="_top" xlink:title=" ">
<polygon fill="white" stroke="#666666" points="3194,-261 3063,-261 3063,-242 3194,-242 3194,-261"/>
<text text-anchor="middle" x="3128.5" y="-249" font-family="Helvetica,sans-Serif" font-size="10.00">Kit/Dm/Mp/ArrayBase.h</text>
</a>
</g>
</g>
<!-- Node8&#45;&gt;Node9 -->
<g id="edge9_Node000008_Node000009" class="edge">
<title>Node8&#45;&gt;Node9</title>
<g id="a_edge9_Node000008_Node000009"><a xlink:title=" ">
<path fill="none" stroke="#63b8ff" d="M2774.99,-317.17C2856.65,-302.23 3006.18,-274.88 3081.91,-261.02"/>
<polygon fill="#63b8ff" stroke="#63b8ff" points="2774.34,-313.73 2765.13,-318.97 2775.6,-320.61 2774.34,-313.73"/>
</a>
</g>
</g>
<!-- Node11 -->
<g id="Node000011" class="node">
<title>Node11</title>
<g id="a_Node000011"><a xlink:href="_enum_base_8h.html" target="_top" xlink:title=" ">
<polygon fill="white" stroke="#666666" points="2645.5,-261 2513.5,-261 2513.5,-242 2645.5,-242 2645.5,-261"/>
<text text-anchor="middle" x="2579.5" y="-249" font-family="Helvetica,sans-Serif" font-size="10.00">Kit/Dm/Mp/EnumBase.h</text>
</a>
</g>
</g>
<!-- Node8&#45;&gt;Node11 -->
<g id="edge11_Node000008_Node000011" class="edge">
<title>Node8&#45;&gt;Node11</title>
<g id="a_edge11_Node000008_Node000011"><a xlink:title=" ">
<path fill="none" stroke="#63b8ff" d="M2693.61,-314.07C2665.09,-298.68 2619.24,-273.94 2595.26,-261"/>
<polygon fill="#63b8ff" stroke="#63b8ff" points="2692.09,-317.23 2702.55,-318.9 2695.42,-311.07 2692.09,-317.23"/>
</a>
</g>
</g>
<!-- Node12 -->
<g id="Node000012" class="node">
<title>Node12</title>
<g id="a_Node000012"><a xlink:href="_scalar_8h.html" target="_top" xlink:title=" ">
<polygon fill="white" stroke="#666666" points="2495.5,-261 2385.5,-261 2385.5,-242 2495.5,-242 2495.5,-261"/>
<text text-anchor="middle" x="2440.5" y="-249" font-family="Helvetica,sans-Serif" font-size="10.00">Kit/Dm/Mp/Scalar.h</text>
</a>
</g>
</g>
<!-- Node8&#45;&gt;Node12 -->
<g id="edge12_Node000008_Node000012" class="edge">
<title>Node8&#45;&gt;Node12</title>
<g id="a_edge12_Node000008_Node000012"><a xlink:title=" ">
<path fill="none" stroke="#63b8ff" d="M2673.58,-316.43C2630.18,-305.6 2562.64,-288.39 2504.5,-272 2492.31,-268.57 2478.9,-264.52 2467.52,-261.01"/>
<polygon fill="#63b8ff" stroke="#63b8ff" points="2672.99,-319.89 2683.54,-318.91 2674.68,-313.1 2672.99,-319.89"/>
</a>
</g>
</g>
<!-- Node42 -->
<g id="Node000042" class="node">
<title>Node42</title>
<g id="a_Node000042"><a xlink:href="_string_8h.html" target="_top" xlink:title=" ">
<polygon fill="white" stroke="#666666" points="2773,-261 2664,-261 2664,-242 2773,-242 2773,-261"/>
<text text-anchor="middle" x="2718.5" y="-249" font-family="Helvetica,sans-Serif" font-size="10.00">Kit/Dm/Mp/String.h</text>
</a>
</g>
</g>
<!-- Node8&#45;&gt;Node42 -->
<g id="edge32_Node000008_Node000042" class="edge">
<title>Node8&#45;&gt;Node42</title>
<g id="a_edge32_Node000008_Node000042"><a xlink:title=" ">
<path fill="none" stroke="#63b8ff" d="M2718.5,-308.52C2718.5,-293.24 2718.5,-272.48 2718.5,-261"/>
<polygon fill="#63b8ff" stroke="#63b8ff" points="2715,-308.9 2718.5,-318.9 2722,-308.9 2715,-308.9"/>
</a>
</g>
</g>
<!-- Node10 -->
<g id="Node000010" class="node">
<title>Node10</title>
<g id="a_Node000010"><a xlink:href="_numeric_array_8h.html" target="_top" xlink:title=" ">
<polygon fill="white" stroke="#666666" points="3504.5,-184 3358.5,-184 3358.5,-165 3504.5,-165 3504.5,-184"/>
<text text-anchor="middle" x="3431.5" y="-172" font-family="Helvetica,sans-Serif" font-size="10.00">Kit/Dm/Mp/NumericArray.h</text>
</a>
</g>
</g>
<!-- Node9&#45;&gt;Node10 -->
<g id="edge10_Node000009_Node000010" class="edge">
<title>Node9&#45;&gt;Node10</title>
<g id="a_edge10_Node000009_Node000010"><a xlink:title=" ">
<path fill="none" stroke="#63b8ff" d="M3173.04,-239.47C3233.96,-224.4 3341.96,-197.66 3397.07,-184.02"/>
<polygon fill="#63b8ff" stroke="#63b8ff" points="3171.83,-236.17 3162.96,-241.97 3173.51,-242.96 3171.83,-236.17"/>
</a>
</g>
</g>
<!-- Node13 -->
<g id="Node000013" class="node">
<title>Node13</title>
<g id="a_Node000013"><a xlink:href="_mp_foo_8h.html" target="_top" xlink:title=" ">
<polygon fill="white" stroke="#666666" points="1699,-118 1550,-118 1550,-77 1699,-77 1699,-118"/>
<text text-anchor="start" x="1558" y="-106" font-family="Helvetica,sans-Serif" font-size="10.00">/home/runner/work/kit.core</text>
<text text-anchor="start" x="1558" y="-95" font-family="Helvetica,sans-Serif" font-size="10.00">/kit.core/projects/examples</text>
<text text-anchor="middle" x="1624.5" y="-84" font-family="Helvetica,sans-Serif" font-size="10.00">/Dm/Transaction/MpFoo.h</text>
</a>
</g>
</g>
<!-- Node12&#45;&gt;Node13 -->
<g id="edge13_Node000012_Node000013" class="edge">
<title>Node12&#45;&gt;Node13</title>
<g id="a_edge13_Node000012_Node000013"><a xlink:title=" ">
<path fill="none" stroke="#63b8ff" d="M2407.39,-238.84C2397.28,-235.75 2386.04,-232.78 2375.5,-231 2329.72,-223.27 1572.62,-228.53 1540.5,-195 1527.9,-181.84 1531.87,-170.05 1540.5,-154 1548.78,-138.61 1563.41,-126.77 1578.16,-118.06"/>
<polygon fill="#63b8ff" stroke="#63b8ff" points="2406.47,-242.22 2417.06,-241.93 2408.6,-235.55 2406.47,-242.22"/>
</a>
</g>
</g>
<!-- Node18 -->
<g id="Node000018" class="node">
<title>Node18</title>
<g id="a_Node000018"><a xlink:href="_primitive_type_8h.html" target="_top" xlink:title=" ">
<polygon fill="#fff0f0" stroke="red" points="883,-184 736,-184 736,-165 883,-165 883,-184"/>
<text text-anchor="middle" x="809.5" y="-172" font-family="Helvetica,sans-Serif" font-size="10.00">Kit/Dm/Mp/PrimitiveType.h</text>
</a>
</g>
</g>
<!-- Node12&#45;&gt;Node18 -->
<g id="edge18_Node000012_Node000018" class="edge">
<title>Node12&#45;&gt;Node18</title>
<g id="a_edge18_Node000012_Node000018"><a xlink:title=" ">
<path fill="none" stroke="#63b8ff" d="M2407.65,-238.87C2397.47,-235.75 2386.14,-232.75 2375.5,-231 2301.18,-218.74 1183.11,-186.15 883.11,-177.58"/>
<polygon fill="#63b8ff" stroke="#63b8ff" points="2406.78,-242.26 2417.37,-241.99 2408.92,-235.6 2406.78,-242.26"/>
</a>
</g>
</g>
<!-- Node14 -->
<g id="Node000014" class="node">
<title>Node14</title>
<g id="a_Node000014"><a xlink:href="_dm_2_transaction_2_client_8h.html" target="_top" xlink:title=" ">
<polygon fill="white" stroke="#666666" points="2033,-41 1884,-41 1884,0 2033,0 2033,-41"/>
<text text-anchor="start" x="1892" y="-29" font-family="Helvetica,sans-Serif" font-size="10.00">/home/runner/work/kit.core</text>
<text text-anchor="start" x="1892" y="-18" font-family="Helvetica,sans-Serif" font-size="10.00">/kit.core/projects/examples</text>
<text text-anchor="middle" x="1958.5" y="-7" font-family="Helvetica,sans-Serif" font-size="10.00">/Dm/Transaction/Client.h</text>
</a>
</g>
</g>
<!-- Node13&#45;&gt;Node14 -->
<g id="edge14_Node000013_Node000014" class="edge">
<title>Node13&#45;&gt;Node14</title>
<g id="a_edge14_Node000013_Node000014"><a xlink:title=" ">
<path fill="none" stroke="#63b8ff" d="M1709.02,-77.95C1757.48,-67.26 1819.44,-53.5 1874.5,-41 1877.57,-40.3 1880.69,-39.59 1883.85,-38.87"/>
<polygon fill="#63b8ff" stroke="#63b8ff" points="1708.22,-74.54 1699.2,-80.11 1709.72,-81.38 1708.22,-74.54"/>
</a>
</g>
</g>
<!-- Node15 -->
<g id="Node000015" class="node">
<title>Node15</title>
<g id="a_Node000015"><a xlink:href="_dm_2_transaction_2_model_points_8h.html" target="_top" xlink:title="This file defines all of the Model Points for Example application.">
<polygon fill="white" stroke="#666666" points="1532,-41 1365,-41 1365,0 1532,0 1532,-41"/>
<text text-anchor="start" x="1373" y="-29" font-family="Helvetica,sans-Serif" font-size="10.00">/home/runner/work/kit.core</text>
<text text-anchor="start" x="1373" y="-18" font-family="Helvetica,sans-Serif" font-size="10.00">/kit.core/projects/examples</text>
<text text-anchor="middle" x="1448.5" y="-7" font-family="Helvetica,sans-Serif" font-size="10.00">/Dm/Transaction/ModelPoints.h</text>
</a>
</g>
</g>
<!-- Node13&#45;&gt;Node15 -->
<g id="edge15_Node000013_Node000015" class="edge">
<title>Node13&#45;&gt;Node15</title>
<g id="a_edge15_Node000013_Node000015"><a xlink:title=" ">
<path fill="none" stroke="#63b8ff" d="M1569.34,-73C1545.24,-62.72 1517.3,-50.82 1494.36,-41.04"/>
<polygon fill="#63b8ff" stroke="#63b8ff" points="1568.15,-76.29 1578.72,-76.99 1570.89,-69.85 1568.15,-76.29"/>
</a>
</g>
</g>
<!-- Node16 -->
<g id="Node000016" class="node">
<title>Node16</title>
<g id="a_Node000016"><a xlink:href="projects_2examples_2_dm_2_transaction_2_server_8h.html" target="_top" xlink:title=" ">
<polygon fill="white" stroke="#666666" points="1699,-41 1550,-41 1550,0 1699,0 1699,-41"/>
<text text-anchor="start" x="1558" y="-29" font-family="Helvetica,sans-Serif" font-size="10.00">/home/runner/work/kit.core</text>
<text text-anchor="start" x="1558" y="-18" font-family="Helvetica,sans-Serif" font-size="10.00">/kit.core/projects/examples</text>
<text text-anchor="middle" x="1624.5" y="-7" font-family="Helvetica,sans-Serif" font-size="10.00">/Dm/Transaction/Server.h</text>
</a>
</g>
</g>
<!-- Node13&#45;&gt;Node16 -->
<g id="edge16_Node000013_Node000016" class="edge">
<title>Node13&#45;&gt;Node16</title>
<g id="a_edge16_Node000013_Node000016"><a xlink:title=" ">
<path fill="none" stroke="#63b8ff" d="M1624.5,-66.69C1624.5,-58.08 1624.5,-48.9 1624.5,-41.07"/>
<polygon fill="#63b8ff" stroke="#63b8ff" points="1621,-66.79 1624.5,-76.79 1628,-66.79 1621,-66.79"/>
</a>
</g>
</g>
<!-- Node17 -->
<g id="Node000017" class="node">
<title>Node17</title>
<g id="a_Node000017"><a xlink:href="_itc_2_synchronous_2_client_8h.html" target="_top" xlink:title=" ">
<polygon fill="white" stroke="#666666" points="1866,-41 1717,-41 1717,0 1866,0 1866,-41"/>
<text text-anchor="start" x="1725" y="-29" font-family="Helvetica,sans-Serif" font-size="10.00">/home/runner/work/kit.core</text>
<text text-anchor="start" x="1725" y="-18" font-family="Helvetica,sans-Serif" font-size="10.00">/kit.core/projects/examples</text>
<text text-anchor="middle" x="1791.5" y="-7" font-family="Helvetica,sans-Serif" font-size="10.00">/Itc/Synchronous/Client.h</text>
</a>
</g>
</g>
<!-- Node13&#45;&gt;Node17 -->
<g id="edge17_Node000013_Node000017" class="edge">
<title>Node13&#45;&gt;Node17</title>
<g id="a_edge17_Node000013_Node000017"><a xlink:title=" ">
<path fill="none" stroke="#63b8ff" d="M1677.14,-72.86C1699.94,-62.62 1726.32,-50.77 1747.99,-41.04"/>
<polygon fill="#63b8ff" stroke="#63b8ff" points="1675.63,-69.7 1667.94,-76.99 1678.5,-76.09 1675.63,-69.7"/>
</a>
</g>
</g>
<!-- Node19 -->
<g id="Node000019" class="node">
<title>Node19</title>
<g id="a_Node000019"><a xlink:href="_bool_8h.html" target="_top" xlink:title=" ">
<polygon fill="white" stroke="#666666" points="1515.5,-107 1413.5,-107 1413.5,-88 1515.5,-88 1515.5,-107"/>
<text text-anchor="middle" x="1464.5" y="-95" font-family="Helvetica,sans-Serif" font-size="10.00">Kit/Dm/Mp/Bool.h</text>
</a>
</g>
</g>
<!-- Node18&#45;&gt;Node19 -->
<g id="edge19_Node000018_Node000019" class="edge">
<title>Node18&#45;&gt;Node19</title>
<g id="a_edge19_Node000018_Node000019"><a xlink:title=" ">
<path fill="none" stroke="#63b8ff" d="M893.62,-171.35C1009.49,-167.11 1224.21,-154.58 1403.5,-118 1416.46,-115.35 1430.56,-110.96 1441.93,-107"/>
<polygon fill="#63b8ff" stroke="#63b8ff" points="893.28,-167.86 883.41,-171.72 893.52,-174.86 893.28,-167.86"/>
</a>
</g>
</g>
<!-- Node20 -->
<g id="Node000020" class="node">
<title>Node20</title>
<g id="a_Node000020"><a xlink:href="_double_8h.html" target="_top" xlink:title=" ">
<polygon fill="white" stroke="#666666" points="115,-107 0,-107 0,-88 115,-88 115,-107"/>
<text text-anchor="middle" x="57.5" y="-95" font-family="Helvetica,sans-Serif" font-size="10.00">Kit/Dm/Mp/Double.h</text>
</a>
</g>
</g>
<!-- Node18&#45;&gt;Node20 -->
<g id="edge21_Node000018_Node000020" class="edge">
<title>Node18&#45;&gt;Node20</title>
<g id="a_edge21_Node000018_Node000020"><a xlink:title=" ">
<path fill="none" stroke="#63b8ff" d="M725.72,-172.28C595.74,-169.14 338.09,-157.94 123.5,-118 109.52,-115.4 94.28,-111 81.97,-107.04"/>
<polygon fill="#63b8ff" stroke="#63b8ff" points="725.92,-175.78 736,-172.52 726.08,-168.79 725.92,-175.78"/>
</a>
</g>
</g>
<!-- Node21 -->
<g id="Node000021" class="node">
<title>Node21</title>
<g id="a_Node000021"><a xlink:href="_float_8h.html" target="_top" xlink:title=" ">
<polygon fill="white" stroke="#666666" points="238,-107 133,-107 133,-88 238,-88 238,-107"/>
<text text-anchor="middle" x="185.5" y="-95" font-family="Helvetica,sans-Serif" font-size="10.00">Kit/Dm/Mp/Float.h</text>
</a>
</g>
</g>
<!-- Node18&#45;&gt;Node21 -->
<g id="edge22_Node000018_Node000021" class="edge">
<title>Node18&#45;&gt;Node21</title>
<g id="a_edge22_Node000018_Node000021"><a xlink:title=" ">
<path fill="none" stroke="#63b8ff" d="M725.78,-170.76C615.07,-165.88 414.39,-152.7 246.5,-118 233.65,-115.34 219.69,-110.99 208.37,-107.08"/>
<polygon fill="#63b8ff" stroke="#63b8ff" points="725.74,-174.26 735.88,-171.19 726.04,-167.27 725.74,-174.26"/>
</a>
</g>
</g>
<!-- Node22 -->
<g id="Node000022" class="node">
<title>Node22</title>
<g id="a_Node000022"><a xlink:href="_int16_8h.html" target="_top" xlink:title=" ">
<polygon fill="white" stroke="#666666" points="361,-107 256,-107 256,-88 361,-88 361,-107"/>
<text text-anchor="middle" x="308.5" y="-95" font-family="Helvetica,sans-Serif" font-size="10.00">Kit/Dm/Mp/Int16.h</text>
</a>
</g>
</g>
<!-- Node18&#45;&gt;Node22 -->
<g id="edge23_Node000018_Node000022" class="edge">
<title>Node18&#45;&gt;Node22</title>
<g id="a_edge23_Node000018_Node000022"><a xlink:title=" ">
<path fill="none" stroke="#63b8ff" d="M725.56,-167.53C636.44,-160.12 491.84,-145.03 369.5,-118 356.8,-115.19 342.96,-110.88 331.69,-107.02"/>
<polygon fill="#63b8ff" stroke="#63b8ff" points="725.36,-171.03 735.61,-168.35 725.93,-164.05 725.36,-171.03"/>
</a>
</g>
</g>
<!-- Node23 -->
<g id="Node000023" class="node">
<title>Node23</title>
<g id="a_Node000023"><a xlink:href="_int32_8h.html" target="_top" xlink:title=" ">
<polygon fill="white" stroke="#666666" points="484,-107 379,-107 379,-88 484,-88 484,-107"/>
<text text-anchor="middle" x="431.5" y="-95" font-family="Helvetica,sans-Serif" font-size="10.00">Kit/Dm/Mp/Int32.h</text>
</a>
</g>
</g>
<!-- Node18&#45;&gt;Node23 -->
<g id="edge24_Node000018_Node000023" class="edge">
<title>Node18&#45;&gt;Node23</title>
<g id="a_edge24_Node000018_Node000023"><a xlink:title=" ">
<path fill="none" stroke="#63b8ff" d="M736.03,-163.53C671.4,-154.08 575.02,-138.31 492.5,-118 480.19,-114.97 466.75,-110.77 455.62,-107.05"/>
<polygon fill="#63b8ff" stroke="#63b8ff" points="735.72,-167.03 746.12,-165 736.73,-160.1 735.72,-167.03"/>
</a>
</g>
</g>
<!-- Node24 -->
<g id="Node000024" class="node">
<title>Node24</title>
<g id="a_Node000024"><a xlink:href="_int64_8h.html" target="_top" xlink:title=" ">
<polygon fill="white" stroke="#666666" points="607,-107 502,-107 502,-88 607,-88 607,-107"/>
<text text-anchor="middle" x="554.5" y="-95" font-family="Helvetica,sans-Serif" font-size="10.00">Kit/Dm/Mp/Int64.h</text>
</a>
</g>
</g>
<!-- Node18&#45;&gt;Node24 -->
<g id="edge25_Node000018_Node000024" class="edge">
<title>Node18&#45;&gt;Node24</title>
<g id="a_edge25_Node000018_Node000024"><a xlink:title=" ">
<path fill="none" stroke="#63b8ff" d="M768.75,-162.23C729.42,-151.27 668.24,-133.97 615.5,-118 604.01,-114.52 591.36,-110.51 580.57,-107.03"/>
<polygon fill="#63b8ff" stroke="#63b8ff" points="767.93,-165.64 778.5,-164.95 769.81,-158.9 767.93,-165.64"/>
</a>
</g>
</g>
<!-- Node25 -->
<g id="Node000025" class="node">
<title>Node25</title>
<g id="a_Node000025"><a xlink:href="_int8_8h.html" target="_top" xlink:title=" ">
<polygon fill="white" stroke="#666666" points="724,-107 625,-107 625,-88 724,-88 724,-107"/>
<text text-anchor="middle" x="674.5" y="-95" font-family="Helvetica,sans-Serif" font-size="10.00">Kit/Dm/Mp/Int8.h</text>
</a>
</g>
</g>
<!-- Node18&#45;&gt;Node25 -->
<g id="edge26_Node000018_Node000025" class="edge">
<title>Node18&#45;&gt;Node25</title>
<g id="a_edge26_Node000018_Node000025"><a xlink:title=" ">
<path fill="none" stroke="#63b8ff" d="M784.96,-159.87C757.24,-144.47 712.99,-119.88 689.81,-107"/>
<polygon fill="#63b8ff" stroke="#63b8ff" points="783.57,-163.1 794.01,-164.9 786.97,-156.98 783.57,-163.1"/>
</a>
</g>
</g>
<!-- Node26 -->
<g id="Node000026" class="node">
<title>Node26</title>
<g id="a_Node000026"><a xlink:href="_ref_counter_8h.html" target="_top" xlink:title=" ">
<polygon fill="white" stroke="#666666" points="876.5,-107 742.5,-107 742.5,-88 876.5,-88 876.5,-107"/>
<text text-anchor="middle" x="809.5" y="-95" font-family="Helvetica,sans-Serif" font-size="10.00">Kit/Dm/Mp/RefCounter.h</text>
</a>
</g>
</g>
<!-- Node18&#45;&gt;Node26 -->
<g id="edge27_Node000018_Node000026" class="edge">
<title>Node18&#45;&gt;Node26</title>
<g id="a_edge27_Node000018_Node000026"><a xlink:title=" ">
<path fill="none" stroke="#63b8ff" d="M809.5,-154.52C809.5,-139.24 809.5,-118.48 809.5,-107"/>
<polygon fill="#63b8ff" stroke="#63b8ff" points="806,-154.9 809.5,-164.9 813,-154.9 806,-154.9"/>
</a>
</g>
</g>
<!-- Node27 -->
<g id="Node000027" class="node">
<title>Node27</title>
<g id="a_Node000027"><a xlink:href="_uint16_8h.html" target="_top" xlink:title=" ">
<polygon fill="#fff0f0" stroke="red" points="1008,-107 895,-107 895,-88 1008,-88 1008,-107"/>
<text text-anchor="middle" x="951.5" y="-95" font-family="Helvetica,sans-Serif" font-size="10.00">Kit/Dm/Mp/Uint16.h</text>
</a>
</g>
</g>
<!-- Node18&#45;&gt;Node27 -->
<g id="edge28_Node000018_Node000027" class="edge">
<title>Node18&#45;&gt;Node27</title>
<g id="a_edge28_Node000018_Node000027"><a xlink:title=" ">
<path fill="none" stroke="#63b8ff" d="M834.93,-160.07C864.06,-144.68 910.91,-119.94 935.4,-107"/>
<polygon fill="#63b8ff" stroke="#63b8ff" points="833,-157.13 825.79,-164.9 836.27,-163.32 833,-157.13"/>
</a>
</g>
</g>
<!-- Node29 -->
<g id="Node000029" class="node">
<title>Node29</title>
<g id="a_Node000029"><a xlink:href="_uint32_8h.html" target="_top" xlink:title=" ">
<polygon fill="#fff0f0" stroke="red" points="1139,-107 1026,-107 1026,-88 1139,-88 1139,-107"/>
<text text-anchor="middle" x="1082.5" y="-95" font-family="Helvetica,sans-Serif" font-size="10.00">Kit/Dm/Mp/Uint32.h</text>
</a>
</g>
</g>
<!-- Node18&#45;&gt;Node29 -->
<g id="edge29_Node000018_Node000029" class="edge">
<title>Node18&#45;&gt;Node29</title>
<g id="a_edge29_Node000018_Node000029"><a xlink:title=" ">
<path fill="none" stroke="#63b8ff" d="M852.42,-162.33C894.35,-151.34 959.93,-133.94 1016.5,-118 1028.92,-114.5 1042.61,-110.48 1054.28,-107.01"/>
<polygon fill="#63b8ff" stroke="#63b8ff" points="851.34,-159 842.55,-164.91 853.11,-165.77 851.34,-159"/>
</a>
</g>
</g>
<!-- Node39 -->
<g id="Node000039" class="node">
<title>Node39</title>
<g id="a_Node000039"><a xlink:href="_uint64_8h.html" target="_top" xlink:title=" ">
<polygon fill="white" stroke="#666666" points="1270,-107 1157,-107 1157,-88 1270,-88 1270,-107"/>
<text text-anchor="middle" x="1213.5" y="-95" font-family="Helvetica,sans-Serif" font-size="10.00">Kit/Dm/Mp/Uint64.h</text>
</a>
</g>
</g>
<!-- Node18&#45;&gt;Node39 -->
<g id="edge30_Node000018_Node000039" class="edge">
<title>Node18&#45;&gt;Node39</title>
<g id="a_edge30_Node000018_Node000039"><a xlink:title=" ">
<path fill="none" stroke="#63b8ff" d="M887,-163.57C955.86,-154.09 1059.01,-138.26 1147.5,-118 1160.78,-114.96 1175.32,-110.76 1187.36,-107.04"/>
<polygon fill="#63b8ff" stroke="#63b8ff" points="886.11,-160.16 876.68,-164.98 887.06,-167.1 886.11,-160.16"/>
</a>
</g>
</g>
<!-- Node40 -->
<g id="Node000040" class="node">
<title>Node40</title>
<g id="a_Node000040"><a xlink:href="_uint8_8h.html" target="_top" xlink:title=" ">
<polygon fill="#fff0f0" stroke="red" points="1395,-107 1288,-107 1288,-88 1395,-88 1395,-107"/>
<text text-anchor="middle" x="1341.5" y="-95" font-family="Helvetica,sans-Serif" font-size="10.00">Kit/Dm/Mp/Uint8.h</text>
</a>
</g>
</g>
<!-- Node18&#45;&gt;Node40 -->
<g id="edge31_Node000018_Node000040" class="edge">
<title>Node18&#45;&gt;Node40</title>
<g id="a_edge31_Node000018_Node000040"><a xlink:title=" ">
<path fill="none" stroke="#63b8ff" d="M893.35,-168.21C987.77,-161.18 1145.39,-146.23 1278.5,-118 1291.6,-115.22 1305.89,-110.91 1317.54,-107.05"/>
<polygon fill="#63b8ff" stroke="#63b8ff" points="893.01,-164.72 883.29,-168.95 893.52,-171.71 893.01,-164.72"/>
</a>
</g>
</g>
<!-- Node19&#45;&gt;Node15 -->
<g id="edge20_Node000019_Node000015" class="edge">
<title>Node19&#45;&gt;Node15</title>
<g id="a_edge20_Node000019_Node000015"><a xlink:title=" ">
<path fill="none" stroke="#63b8ff" d="M1460.55,-77.96C1458.16,-66.79 1455.13,-52.58 1452.7,-41.21"/>
<polygon fill="#63b8ff" stroke="#63b8ff" points="1457.16,-78.85 1462.66,-87.9 1464,-77.39 1457.16,-78.85"/>
</a>
</g>
</g>
<!-- Node43 -->
<g id="Node000043" class="node">
<title>Node43</title>
<g id="a_Node000043"><a xlink:href="_foo_t_8h.html" target="_top" xlink:title=" ">
<polygon fill="white" stroke="#666666" points="1699,-195 1550,-195 1550,-154 1699,-154 1699,-195"/>
<text text-anchor="start" x="1558" y="-183" font-family="Helvetica,sans-Serif" font-size="10.00">/home/runner/work/kit.core</text>
<text text-anchor="start" x="1558" y="-172" font-family="Helvetica,sans-Serif" font-size="10.00">/kit.core/projects/examples</text>
<text text-anchor="middle" x="1624.5" y="-161" font-family="Helvetica,sans-Serif" font-size="10.00">/Dm/Transaction/FooT.h</text>
</a>
</g>
</g>
<!-- Node42&#45;&gt;Node43 -->
<g id="edge33_Node000042_Node000043" class="edge">
<title>Node42&#45;&gt;Node43</title>
<g id="a_edge33_Node000042_Node000043"><a xlink:title=" ">
<path fill="none" stroke="#63b8ff" d="M2686.17,-238.88C2676.15,-235.76 2664.98,-232.77 2654.5,-231 2239.6,-161.11 2125.53,-250.82 1708.5,-195 1705.38,-194.58 1702.21,-194.1 1699.02,-193.57"/>
<polygon fill="#63b8ff" stroke="#63b8ff" points="2685.15,-242.23 2695.74,-242 2687.31,-235.57 2685.15,-242.23"/>
</a>
</g>
</g>
<!-- Node44 -->
<g id="Node000044" class="node">
<title>Node44</title>
<g id="a_Node000044"><a xlink:href="_ring_buffer_8h.html" target="_top" xlink:title=" ">
<polygon fill="#fff0f0" stroke="red" points="3168,-184 3025,-184 3025,-165 3168,-165 3168,-184"/>
<text text-anchor="middle" x="3096.5" y="-172" font-family="Helvetica,sans-Serif" font-size="10.00">Kit/Container/RingBuffer.h</text>
</a>
</g>
</g>
<!-- Node42&#45;&gt;Node44 -->
<g id="edge35_Node000042_Node000044" class="edge">
<title>Node42&#45;&gt;Node44</title>
<g id="a_edge35_Node000042_Node000044"><a xlink:title=" ">
<path fill="none" stroke="#63b8ff" d="M2778.39,-240.24C2838.5,-229.73 2933.67,-212.48 3015.5,-195 3031.06,-191.68 3048.2,-187.61 3062.7,-184.05"/>
<polygon fill="#63b8ff" stroke="#63b8ff" points="2777.57,-236.83 2768.32,-242 2778.77,-243.73 2777.57,-236.83"/>
</a>
</g>
</g>
<!-- Node45 -->
<g id="Node000045" class="node">
<title>Node45</title>
<g id="a_Node000045"><a xlink:href="_ring_buffer_allocate_8h.html" target="_top" xlink:title=" ">
<polygon fill="#fff0f0" stroke="red" points="3224.5,-112.5 3090.5,-112.5 3090.5,-82.5 3224.5,-82.5 3224.5,-112.5"/>
<text text-anchor="start" x="3098.5" y="-100.5" font-family="Helvetica,sans-Serif" font-size="10.00">Kit/Container/RingBuffer</text>
<text text-anchor="middle" x="3157.5" y="-89.5" font-family="Helvetica,sans-Serif" font-size="10.00">Allocate.h</text>
</a>
</g>
</g>
<!-- Node42&#45;&gt;Node45 -->
<g id="edge37_Node000042_Node000045" class="edge">
<title>Node42&#45;&gt;Node45</title>
<g id="a_edge37_Node000042_Node000045"><a xlink:title=" ">
<path fill="none" stroke="#63b8ff" d="M2783.18,-247.34C2903.26,-240.8 3150.85,-223.94 3176.5,-195 3197,-171.87 3179.01,-133.21 3166.71,-112.54"/>
<polygon fill="#63b8ff" stroke="#63b8ff" points="2782.81,-243.85 2773.01,-247.88 2783.18,-250.84 2782.81,-243.85"/>
</a>
</g>
</g>
<!-- Node34 -->
<g id="Node000034" class="node">
<title>Node34</title>
<g id="a_Node000034"><a xlink:href="_ring_buffer_m_p_allocate_8h.html" target="_top" xlink:title=" ">
<polygon fill="#fff0f0" stroke="red" points="1851.5,-189.5 1717.5,-189.5 1717.5,-159.5 1851.5,-159.5 1851.5,-189.5"/>
<text text-anchor="start" x="1725.5" y="-177.5" font-family="Helvetica,sans-Serif" font-size="10.00">Kit/Container/RingBuffer</text>
<text text-anchor="middle" x="1784.5" y="-166.5" font-family="Helvetica,sans-Serif" font-size="10.00">MPAllocate.h</text>
</a>
</g>
</g>
<!-- Node42&#45;&gt;Node34 -->
<g id="edge38_Node000042_Node000034" class="edge">
<title>Node42&#45;&gt;Node34</title>
<g id="a_edge38_Node000042_Node000034"><a xlink:title=" ">
<path fill="none" stroke="#63b8ff" d="M2685.91,-238.85C2675.95,-235.76 2664.89,-232.79 2654.5,-231 2306.37,-171.05 2209.88,-247.17 1860.5,-195 1851.61,-193.67 1842.25,-191.73 1833.26,-189.59"/>
<polygon fill="#63b8ff" stroke="#63b8ff" points="2684.84,-242.18 2695.43,-241.94 2687,-235.52 2684.84,-242.18"/>
</a>
</g>
</g>
<!-- Node48 -->
<g id="Node000048" class="node">
<title>Node48</title>
<g id="a_Node000048"><a xlink:href="_ring_buffer_m_t_allocate_8h.html" target="_top" xlink:title=" ">
<polygon fill="white" stroke="#666666" points="2003.5,-189.5 1869.5,-189.5 1869.5,-159.5 2003.5,-159.5 2003.5,-189.5"/>
<text text-anchor="start" x="1877.5" y="-177.5" font-family="Helvetica,sans-Serif" font-size="10.00">Kit/Container/RingBuffer</text>
<text text-anchor="middle" x="1936.5" y="-166.5" font-family="Helvetica,sans-Serif" font-size="10.00">MTAllocate.h</text>
</a>
</g>
</g>
<!-- Node42&#45;&gt;Node48 -->
<g id="edge39_Node000042_Node000048" class="edge">
<title>Node42&#45;&gt;Node48</title>
<g id="a_edge39_Node000042_Node000048"><a xlink:title=" ">
<path fill="none" stroke="#63b8ff" d="M2685.34,-238.75C2675.53,-235.72 2664.69,-232.81 2654.5,-231 2373.13,-180.99 2294.92,-238.72 2012.5,-195 2003.62,-193.62 1994.26,-191.66 1985.27,-189.51"/>
<polygon fill="#63b8ff" stroke="#63b8ff" points="2684.53,-242.16 2695.12,-241.9 2686.68,-235.5 2684.53,-242.16"/>
</a>
</g>
</g>
<!-- Node53 -->
<g id="Node000053" class="node">
<title>Node53</title>
<g id="a_Node000053"><a xlink:href="_driver_2_n_v_2_null_8h.html" target="_top" xlink:title=" ">
<polygon fill="white" stroke="#666666" points="2133.5,-184 2021.5,-184 2021.5,-165 2133.5,-165 2133.5,-184"/>
<text text-anchor="middle" x="2077.5" y="-172" font-family="Helvetica,sans-Serif" font-size="10.00">Kit/Driver/NV/Null.h</text>
</a>
</g>
</g>
<!-- Node42&#45;&gt;Node53 -->
<g id="edge40_Node000042_Node000053" class="edge">
<title>Node42&#45;&gt;Node53</title>
<g id="a_edge40_Node000042_Node000053"><a xlink:title=" ">
<path fill="none" stroke="#63b8ff" d="M2685.33,-238.84C2675.51,-235.82 2664.67,-232.88 2654.5,-231 2430.19,-189.49 2366.9,-236.03 2142.5,-195 2128.59,-192.46 2113.44,-188.01 2101.27,-184.01"/>
<polygon fill="#63b8ff" stroke="#63b8ff" points="2684.52,-242.26 2695.11,-241.98 2686.66,-235.59 2684.52,-242.26"/>
</a>
</g>
</g>
<!-- Node54 -->
<g id="Node000054" class="node">
<title>Node54</title>
<g id="a_Node000054"><a xlink:href="_string_source_8h.html" target="_top" xlink:title=" ">
<polygon fill="white" stroke="#666666" points="2297.5,-184 2151.5,-184 2151.5,-165 2297.5,-165 2297.5,-184"/>
<text text-anchor="middle" x="2224.5" y="-172" font-family="Helvetica,sans-Serif" font-size="10.00">Kit/Framing/StringSource.h</text>
</a>
</g>
</g>
<!-- Node42&#45;&gt;Node54 -->
<g id="edge41_Node000042_Node000054" class="edge">
<title>Node42&#45;&gt;Node54</title>
<g id="a_edge41_Node000042_Node000054"><a xlink:title=" ">
<path fill="none" stroke="#63b8ff" d="M2684.79,-238.9C2675.11,-235.93 2664.47,-233.02 2654.5,-231 2502.09,-200.2 2459.8,-221.04 2306.5,-195 2289.77,-192.16 2271.36,-187.89 2256.23,-184.07"/>
<polygon fill="#63b8ff" stroke="#63b8ff" points="2683.88,-242.28 2694.47,-241.98 2686,-235.61 2683.88,-242.28"/>
</a>
</g>
</g>
<!-- Node55 -->
<g id="Node000055" class="node">
<title>Node55</title>
<g id="a_Node000055"><a xlink:href="_entry_data_8h.html" target="_top" xlink:title=" ">
<polygon fill="#fff0f0" stroke="red" points="2445,-189.5 2316,-189.5 2316,-159.5 2445,-159.5 2445,-189.5"/>
<text text-anchor="start" x="2324" y="-177.5" font-family="Helvetica,sans-Serif" font-size="10.00">Kit/Logging/Framework</text>
<text text-anchor="middle" x="2380.5" y="-166.5" font-family="Helvetica,sans-Serif" font-size="10.00">/EntryData.h</text>
</a>
</g>
</g>
<!-- Node42&#45;&gt;Node55 -->
<g id="edge42_Node000042_Node000055" class="edge">
<title>Node42&#45;&gt;Node55</title>
<g id="a_edge42_Node000042_Node000055"><a xlink:title=" ">
<path fill="none" stroke="#63b8ff" d="M2683.15,-238.92C2673.89,-236.11 2663.87,-233.26 2654.5,-231 2566.71,-209.8 2542.68,-214.52 2454.5,-195 2447.11,-193.36 2439.34,-191.49 2431.72,-189.56"/>
<polygon fill="#63b8ff" stroke="#63b8ff" points="2682.26,-242.3 2692.84,-241.93 2684.33,-235.62 2682.26,-242.3"/>
</a>
</g>
</g>
<!-- Node57 -->
<g id="Node000057" class="node">
<title>Node57</title>
<g id="a_Node000057"><a xlink:href="_real_expression_parser_8h.html" target="_top" xlink:title="This file contains a collection of methods that parses a null terminated string that contains an arit...">
<polygon fill="white" stroke="#666666" points="2637.5,-184 2463.5,-184 2463.5,-165 2637.5,-165 2637.5,-184"/>
<text text-anchor="middle" x="2550.5" y="-172" font-family="Helvetica,sans-Serif" font-size="10.00">Kit/Math/RealExpressionParser.h</text>
</a>
</g>
</g>
<!-- Node42&#45;&gt;Node57 -->
<g id="edge43_Node000042_Node000057" class="edge">
<title>Node42&#45;&gt;Node57</title>
<g id="a_edge43_Node000042_Node000057"><a xlink:title=" ">
<path fill="none" stroke="#63b8ff" d="M2689.75,-237.67C2655.4,-222.33 2598.9,-197.11 2569.55,-184"/>
<polygon fill="#63b8ff" stroke="#63b8ff" points="2688.67,-241.02 2699.23,-241.9 2691.52,-234.62 2688.67,-241.02"/>
</a>
</g>
</g>
<!-- Node58 -->
<g id="Node000058" class="node">
<title>Node58</title>
<g id="a_Node000058"><a xlink:href="_persistence_2_record_2_media_2_null_8h.html" target="_top" xlink:title=" ">
<polygon fill="white" stroke="#666666" points="2781.5,-189.5 2655.5,-189.5 2655.5,-159.5 2781.5,-159.5 2781.5,-189.5"/>
<text text-anchor="start" x="2663.5" y="-177.5" font-family="Helvetica,sans-Serif" font-size="10.00">Kit/Persistence/Record</text>
<text text-anchor="middle" x="2718.5" y="-166.5" font-family="Helvetica,sans-Serif" font-size="10.00">/Media/Null.h</text>
</a>
</g>
</g>
<!-- Node42&#45;&gt;Node58 -->
<g id="edge44_Node000042_Node000058" class="edge">
<title>Node42&#45;&gt;Node58</title>
<g id="a_edge44_Node000042_Node000058"><a xlink:title=" ">
<path fill="none" stroke="#63b8ff" d="M2718.5,-231.7C2718.5,-218.64 2718.5,-201.51 2718.5,-189.61"/>
<polygon fill="#63b8ff" stroke="#63b8ff" points="2715,-231.9 2718.5,-241.9 2722,-231.9 2715,-231.9"/>
</a>
</g>
</g>
<!-- Node59 -->
<g id="Node000059" class="node">
<title>Node59</title>
<g id="a_Node000059"><a xlink:href="_thread_8h.html" target="_top" xlink:title=" ">
<polygon fill="#fff0f0" stroke="red" points="3340.5,-184 3224.5,-184 3224.5,-165 3340.5,-165 3340.5,-184"/>
<text text-anchor="middle" x="3282.5" y="-172" font-family="Helvetica,sans-Serif" font-size="10.00">Kit/System/Thread.h</text>
</a>
</g>
</g>
<!-- Node42&#45;&gt;Node59 -->
<g id="edge45_Node000042_Node000059" class="edge">
<title>Node42&#45;&gt;Node59</title>
<g id="a_edge45_Node000042_Node000059"><a xlink:title=" ">
<path fill="none" stroke="#63b8ff" d="M2783.12,-246.36C2877.62,-239.59 3058.76,-223.93 3210.5,-195 3225.26,-192.19 3241.42,-187.92 3254.69,-184.09"/>
<polygon fill="#63b8ff" stroke="#63b8ff" points="2782.87,-242.87 2773.14,-247.06 2783.37,-249.85 2782.87,-242.87"/>
</a>
</g>
</g>
<!-- Node67 -->
<g id="Node000067" class="node">
<title>Node67</title>
<g id="a_Node000067"><a xlink:href="_strip_8h.html" target="_top" xlink:title=" ">
<polygon fill="white" stroke="#666666" points="2887.5,-184 2799.5,-184 2799.5,-165 2887.5,-165 2887.5,-184"/>
<text text-anchor="middle" x="2843.5" y="-172" font-family="Helvetica,sans-Serif" font-size="10.00">Kit/Text/Strip.h</text>
</a>
</g>
</g>
<!-- Node42&#45;&gt;Node67 -->
<g id="edge47_Node000042_Node000067" class="edge">
<title>Node42&#45;&gt;Node67</title>
<g id="a_edge47_Node000042_Node000067"><a xlink:title=" ">
<path fill="none" stroke="#63b8ff" d="M2741.56,-236.67C2767.24,-221.25 2807.95,-196.83 2829.33,-184"/>
<polygon fill="#63b8ff" stroke="#63b8ff" points="2739.61,-233.75 2732.84,-241.9 2743.21,-239.75 2739.61,-233.75"/>
</a>
</g>
</g>
<!-- Node68 -->
<g id="Node000068" class="node">
<title>Node68</title>
<g id="a_Node000068"><a xlink:href="endian_8h.html" target="_top" xlink:title="This file provides a set of macros/method to convert between the &#39;host&#39; platform and Big/Little endia...">
<polygon fill="#fff0f0" stroke="red" points="3007,-184 2906,-184 2906,-165 3007,-165 3007,-184"/>
<text text-anchor="middle" x="2956.5" y="-172" font-family="Helvetica,sans-Serif" font-size="10.00">Kit/Type/endian.h</text>
</a>
</g>
</g>
<!-- Node42&#45;&gt;Node68 -->
<g id="edge48_Node000042_Node000068" class="edge">
<title>Node42&#45;&gt;Node68</title>
<g id="a_edge48_Node000042_Node000068"><a xlink:title=" ">
<path fill="none" stroke="#63b8ff" d="M2755.89,-238.98C2791.94,-227.85 2848.01,-210.44 2896.5,-195 2907.67,-191.44 2919.98,-187.45 2930.53,-184.01"/>
<polygon fill="#63b8ff" stroke="#63b8ff" points="2754.8,-235.66 2746.28,-241.95 2756.87,-242.35 2754.8,-235.66"/>
</a>
</g>
</g>
<!-- Node43&#45;&gt;Node13 -->
<g id="edge34_Node000043_Node000013" class="edge">
<title>Node43&#45;&gt;Node13</title>
<g id="a_edge34_Node000043_Node000013"><a xlink:title=" ">
<path fill="none" stroke="#63b8ff" d="M1624.5,-143.69C1624.5,-135.08 1624.5,-125.9 1624.5,-118.07"/>
<polygon fill="#63b8ff" stroke="#63b8ff" points="1621,-143.79 1624.5,-153.79 1628,-143.79 1621,-143.79"/>
</a>
</g>
</g>
<!-- Node44&#45;&gt;Node45 -->
<g id="edge36_Node000044_Node000045" class="edge">
<title>Node44&#45;&gt;Node45</title>
<g id="a_edge36_Node000044_Node000045"><a xlink:title=" ">
<path fill="none" stroke="#63b8ff" d="M3109.9,-157.03C3120.71,-143.73 3135.76,-125.23 3146.02,-112.61"/>
<polygon fill="#63b8ff" stroke="#63b8ff" points="3107.09,-154.93 3103.5,-164.9 3112.52,-159.35 3107.09,-154.93"/>
</a>
</g>
</g>
<!-- Node59&#45;&gt;Node7 -->
<g id="edge46_Node000059_Node000007" class="edge">
<title>Node59&#45;&gt;Node7</title>
<g id="a_edge46_Node000059_Node000007"><a xlink:title=" ">
<path fill="none" stroke="#63b8ff" d="M3291.43,-155.88C3298.11,-142.68 3307.14,-124.87 3313.35,-112.61"/>
<polygon fill="#63b8ff" stroke="#63b8ff" points="3288.26,-154.39 3286.86,-164.9 3294.5,-157.56 3288.26,-154.39"/>
</a>
</g>
</g>
<!-- Node95 -->
<g id="Node000095" class="node">
<title>Node95</title>
<g id="a_Node000095"><a xlink:href="_h_pool_8h.html" target="_top" xlink:title=" ">
<polygon fill="white" stroke="#666666" points="3820.5,-261 3706.5,-261 3706.5,-242 3820.5,-242 3820.5,-261"/>
<text text-anchor="middle" x="3763.5" y="-249" font-family="Helvetica,sans-Serif" font-size="10.00">Kit/Memory/HPool.h</text>
</a>
</g>
</g>
<!-- Node94&#45;&gt;Node95 -->
<g id="edge50_Node000094_Node000095" class="edge">
<title>Node94&#45;&gt;Node95</title>
<g id="a_edge50_Node000094_Node000095"><a xlink:title=" ">
<path fill="none" stroke="#63b8ff" d="M3655.49,-313.87C3682.59,-298.47 3725.86,-273.88 3748.53,-261"/>
<polygon fill="#63b8ff" stroke="#63b8ff" points="3653.61,-310.91 3646.64,-318.9 3657.07,-317 3653.61,-310.91"/>
</a>
</g>
</g>
<!-- Node96 -->
<g id="Node000096" class="node">
<title>Node96</title>
<g id="a_Node000096"><a xlink:href="_s_pool_8h.html" target="_top" xlink:title=" ">
<polygon fill="white" stroke="#666666" points="3688,-261 3575,-261 3575,-242 3688,-242 3688,-261"/>
<text text-anchor="middle" x="3631.5" y="-249" font-family="Helvetica,sans-Serif" font-size="10.00">Kit/Memory/SPool.h</text>
</a>
</g>
</g>
<!-- Node94&#45;&gt;Node96 -->
<g id="edge51_Node000094_Node000096" class="edge">
<title>Node94&#45;&gt;Node96</title>
<g id="a_edge51_Node000094_Node000096"><a xlink:title=" ">
<path fill="none" stroke="#63b8ff" d="M3631.5,-308.52C3631.5,-293.24 3631.5,-272.48 3631.5,-261"/>
<polygon fill="#63b8ff" stroke="#63b8ff" points="3628,-308.9 3631.5,-318.9 3635,-308.9 3628,-308.9"/>
</a>
</g>
</g>
<!-- Node98 -->
<g id="Node000098" class="node">
<title>Node98</title>
<g id="a_Node000098"><a xlink:href="_event_loop_8h.html" target="_top" xlink:title=" ">
<polygon fill="white" stroke="#666666" points="3557,-261 3424,-261 3424,-242 3557,-242 3557,-261"/>
<text text-anchor="middle" x="3490.5" y="-249" font-family="Helvetica,sans-Serif" font-size="10.00">Kit/System/EventLoop.h</text>
</a>
</g>
</g>
<!-- Node97&#45;&gt;Node98 -->
<g id="edge53_Node000097_Node000098" class="edge">
<title>Node97&#45;&gt;Node98</title>
<g id="a_edge53_Node000097_Node000098"><a xlink:title=" ">
<path fill="none" stroke="#63b8ff" d="M3485.27,-308.52C3486.7,-293.24 3488.64,-272.48 3489.71,-261"/>
<polygon fill="#63b8ff" stroke="#63b8ff" points="3481.75,-308.61 3484.3,-318.9 3488.72,-309.27 3481.75,-308.61"/>
</a>
</g>
</g>
<!-- Node98&#45;&gt;Node5 -->
<g id="edge54_Node000098_Node000005" class="edge">
<title>Node98&#45;&gt;Node5</title>
<g id="a_edge54_Node000098_Node000005"><a xlink:title=" ">
<path fill="none" stroke="#63b8ff" d="M3510.04,-235.85C3530.63,-220.4 3562.36,-196.6 3579.16,-184"/>
<polygon fill="#63b8ff" stroke="#63b8ff" points="3507.87,-233.1 3501.97,-241.9 3512.07,-238.7 3507.87,-233.1"/>
</a>
</g>
</g>
<!-- Node99 -->
<g id="Node000099" class="node">
<title>Node99</title>
<g id="a_Node000099"><a xlink:href="_event_loop_with_p_scheduling_8h.html" target="_top" xlink:title=" ">
<polygon fill="white" stroke="#666666" points="3822.5,-189.5 3676.5,-189.5 3676.5,-159.5 3822.5,-159.5 3822.5,-189.5"/>
<text text-anchor="start" x="3684.5" y="-177.5" font-family="Helvetica,sans-Serif" font-size="10.00">Kit/System/EventLoopWith</text>
<text text-anchor="middle" x="3749.5" y="-166.5" font-family="Helvetica,sans-Serif" font-size="10.00">PScheduling.h</text>
</a>
</g>
</g>
<!-- Node98&#45;&gt;Node99 -->
<g id="edge55_Node000098_Node000099" class="edge">
<title>Node98&#45;&gt;Node99</title>
<g id="a_edge55_Node000098_Node000099"><a xlink:title=" ">
<path fill="none" stroke="#63b8ff" d="M3529.84,-239.11C3575.74,-225.82 3651.67,-203.83 3701.14,-189.5"/>
<polygon fill="#63b8ff" stroke="#63b8ff" points="3528.59,-235.83 3519.96,-241.97 3530.54,-242.55 3528.59,-235.83"/>
</a>
</g>
</g>
</g>
</svg>
