<?xml version="1.0" encoding="UTF-8" standalone="no"?>
<!DOCTYPE svg PUBLIC "-//W3C//DTD SVG 1.1//EN"
 "http://www.w3.org/Graphics/SVG/1.1/DTD/svg11.dtd">
<!-- Generated by graphviz version 2.43.0 (0)
 -->
<!-- Title: Kit/Container/DListBase.h Pages: 1 -->
<svg width="2807pt" height="489pt"
 viewBox="0.00 0.00 2806.54 489.00" xmlns="http://www.w3.org/2000/svg" xmlns:xlink="http://www.w3.org/1999/xlink">
<g id="graph0" class="graph" transform="scale(1 1) rotate(0) translate(4 485)">
<title>Kit/Container/DListBase.h</title>
<!-- Node1 -->
<g id="Node000001" class="node">
<title>Node1</title>
<g id="a_Node000001"><a xlink:title=" ">
<polygon fill="#999999" stroke="#666666" points="952.5,-481 811.5,-481 811.5,-462 952.5,-462 952.5,-481"/>
<text text-anchor="middle" x="882" y="-469" font-family="Helvetica,sans-Serif" font-size="10.00">Kit/Container/DListBase.h</text>
</a>
</g>
</g>
<!-- Node2 -->
<g id="Node000002" class="node">
<title>Node2</title>
<g id="a_Node000002"><a xlink:href="_d_list_8h.html" target="_top" xlink:title=" ">
<polygon fill="white" stroke="#666666" points="940.5,-426 823.5,-426 823.5,-407 940.5,-407 940.5,-426"/>
<text text-anchor="middle" x="882" y="-414" font-family="Helvetica,sans-Serif" font-size="10.00">Kit/Container/DList.h</text>
</a>
</g>
</g>
<!-- Node1&#45;&gt;Node2 -->
<g id="edge1_Node000001_Node000002" class="edge">
<title>Node1&#45;&gt;Node2</title>
<g id="a_edge1_Node000001_Node000002"><a xlink:title=" ">
<path fill="none" stroke="#63b8ff" d="M882,-451.66C882,-442.93 882,-432.99 882,-426.09"/>
<polygon fill="#63b8ff" stroke="#63b8ff" points="878.5,-451.75 882,-461.75 885.5,-451.75 878.5,-451.75"/>
</a>
</g>
</g>
<!-- Node3 -->
<g id="Node000003" class="node">
<title>Node3</title>
<g id="a_Node000003"><a xlink:href="_change_handler_8h.html" target="_top" xlink:title=" ">
<polygon fill="white" stroke="#666666" points="665.5,-371 528.5,-371 528.5,-352 665.5,-352 665.5,-371"/>
<text text-anchor="middle" x="597" y="-359" font-family="Helvetica,sans-Serif" font-size="10.00">Kit/Dm/ChangeHandler.h</text>
</a>
</g>
</g>
<!-- Node2&#45;&gt;Node3 -->
<g id="edge2_Node000002_Node000003" class="edge">
<title>Node2&#45;&gt;Node3</title>
<g id="a_edge2_Node000002_Node000003"><a xlink:title=" ">
<path fill="none" stroke="#63b8ff" d="M826.22,-405.13C772.79,-395.19 693.11,-380.37 643.15,-371.08"/>
<polygon fill="#63b8ff" stroke="#63b8ff" points="825.74,-408.6 836.21,-406.98 827.02,-401.72 825.74,-408.6"/>
</a>
</g>
</g>
<!-- Node7 -->
<g id="Node000007" class="node">
<title>Node7</title>
<g id="a_Node000007"><a xlink:href="_model_point_base_8h.html" target="_top" xlink:title=" ">
<polygon fill="white" stroke="#666666" points="1055.5,-371 914.5,-371 914.5,-352 1055.5,-352 1055.5,-371"/>
<text text-anchor="middle" x="985" y="-359" font-family="Helvetica,sans-Serif" font-size="10.00">Kit/Dm/ModelPointBase.h</text>
</a>
</g>
</g>
<!-- Node2&#45;&gt;Node7 -->
<g id="edge6_Node000002_Node000007" class="edge">
<title>Node2&#45;&gt;Node7</title>
<g id="a_edge6_Node000002_Node000007"><a xlink:title=" ">
<path fill="none" stroke="#63b8ff" d="M907.52,-402.37C926.44,-392.63 951.7,-379.64 968.15,-371.17"/>
<polygon fill="#63b8ff" stroke="#63b8ff" points="905.84,-399.3 898.55,-406.98 909.04,-405.52 905.84,-399.3"/>
</a>
</g>
</g>
<!-- Node60 -->
<g id="Node000060" class="node">
<title>Node60</title>
<g id="a_Node000060"><a xlink:href="_pool_8h.html" target="_top" xlink:title=" ">
<polygon fill="white" stroke="#666666" points="2452.5,-371 2345.5,-371 2345.5,-352 2452.5,-352 2452.5,-371"/>
<text text-anchor="middle" x="2399" y="-359" font-family="Helvetica,sans-Serif" font-size="10.00">Kit/Memory/Pool.h</text>
</a>
</g>
</g>
<!-- Node2&#45;&gt;Node60 -->
<g id="edge52_Node000002_Node000060" class="edge">
<title>Node2&#45;&gt;Node60</title>
<g id="a_edge52_Node000002_Node000060"><a xlink:title=" ">
<path fill="none" stroke="#63b8ff" d="M950.89,-413.09C1208.91,-404.08 2115.11,-372.42 2345.44,-364.37"/>
<polygon fill="#63b8ff" stroke="#63b8ff" points="950.41,-409.61 940.54,-413.45 950.65,-416.6 950.41,-409.61"/>
</a>
</g>
</g>
<!-- Node63 -->
<g id="Node000063" class="node">
<title>Node63</title>
<g id="a_Node000063"><a xlink:href="_timer_manager_8h.html" target="_top" xlink:title=" ">
<polygon fill="white" stroke="#666666" points="876,-371 724,-371 724,-352 876,-352 876,-371"/>
<text text-anchor="middle" x="800" y="-359" font-family="Helvetica,sans-Serif" font-size="10.00">Kit/System/TimerManager.h</text>
</a>
</g>
</g>
<!-- Node2&#45;&gt;Node63 -->
<g id="edge55_Node000002_Node000063" class="edge">
<title>Node2&#45;&gt;Node63</title>
<g id="a_edge55_Node000002_Node000063"><a xlink:title=" ">
<path fill="none" stroke="#63b8ff" d="M860.22,-401.42C845.34,-391.81 826.09,-379.37 813.41,-371.17"/>
<polygon fill="#63b8ff" stroke="#63b8ff" points="858.53,-404.5 868.83,-406.98 862.33,-398.62 858.53,-404.5"/>
</a>
</g>
</g>
<!-- Node4 -->
<g id="Node000004" class="node">
<title>Node4</title>
<g id="a_Node000004"><a xlink:href="src_2_kit_2_event_queue_2_server_8h.html" target="_top" xlink:title=" ">
<polygon fill="white" stroke="#666666" points="283.5,-250 148.5,-250 148.5,-231 283.5,-231 283.5,-250"/>
<text text-anchor="middle" x="216" y="-238" font-family="Helvetica,sans-Serif" font-size="10.00">Kit/EventQueue/Server.h</text>
</a>
</g>
</g>
<!-- Node3&#45;&gt;Node4 -->
<g id="edge3_Node000003_Node000004" class="edge">
<title>Node3&#45;&gt;Node4</title>
<g id="a_edge3_Node000003_Node000004"><a xlink:title=" ">
<path fill="none" stroke="#63b8ff" d="M559.93,-348.92C483.64,-325.09 310.61,-271.05 243.41,-250.06"/>
<polygon fill="#63b8ff" stroke="#63b8ff" points="559.01,-352.3 569.6,-351.94 561.1,-345.62 559.01,-352.3"/>
</a>
</g>
</g>
<!-- Node5 -->
<g id="Node000005" class="node">
<title>Node5</title>
<g id="a_Node000005"><a xlink:href="_with_periodic_scheduling_8h.html" target="_top" xlink:title=" ">
<polygon fill="white" stroke="#666666" points="287.5,-178.5 130.5,-178.5 130.5,-148.5 287.5,-148.5 287.5,-178.5"/>
<text text-anchor="start" x="138.5" y="-166.5" font-family="Helvetica,sans-Serif" font-size="10.00">Kit/EventQueue/WithPeriodic</text>
<text text-anchor="middle" x="209" y="-155.5" font-family="Helvetica,sans-Serif" font-size="10.00">Scheduling.h</text>
</a>
</g>
</g>
<!-- Node4&#45;&gt;Node5 -->
<g id="edge4_Node000004_Node000005" class="edge">
<title>Node4&#45;&gt;Node5</title>
<g id="a_edge4_Node000004_Node000005"><a xlink:title=" ">
<path fill="none" stroke="#63b8ff" d="M214.25,-220.7C213.03,-207.64 211.43,-190.51 210.32,-178.61"/>
<polygon fill="#63b8ff" stroke="#63b8ff" points="210.78,-221.27 215.2,-230.9 217.75,-220.61 210.78,-221.27"/>
</a>
</g>
</g>
<!-- Node6 -->
<g id="Node000006" class="node">
<title>Node6</title>
<g id="a_Node000006"><a xlink:href="helpers_8h.html" target="_top" xlink:title="This file defines helper functions/interface for writing unit tests.">
<polygon fill="white" stroke="#666666" points="112,-178.5 0,-178.5 0,-148.5 112,-148.5 112,-178.5"/>
<text text-anchor="start" x="8" y="-166.5" font-family="Helvetica,sans-Serif" font-size="10.00">Kit/_support/testing</text>
<text text-anchor="middle" x="56" y="-155.5" font-family="Helvetica,sans-Serif" font-size="10.00">/helpers.h</text>
</a>
</g>
</g>
<!-- Node4&#45;&gt;Node6 -->
<g id="edge5_Node000004_Node000006" class="edge">
<title>Node4&#45;&gt;Node6</title>
<g id="a_edge5_Node000004_Node000006"><a xlink:title=" ">
<path fill="none" stroke="#63b8ff" d="M188.27,-226.5C159.75,-213.13 115.47,-192.37 86.11,-178.61"/>
<polygon fill="#63b8ff" stroke="#63b8ff" points="187.11,-229.82 197.65,-230.9 190.08,-223.48 187.11,-229.82"/>
</a>
</g>
</g>
<!-- Node8 -->
<g id="Node000008" class="node">
<title>Node8</title>
<g id="a_Node000008"><a xlink:href="_array_base_8h.html" target="_top" xlink:title=" ">
<polygon fill="white" stroke="#666666" points="900.5,-316 769.5,-316 769.5,-297 900.5,-297 900.5,-316"/>
<text text-anchor="middle" x="835" y="-304" font-family="Helvetica,sans-Serif" font-size="10.00">Kit/Dm/Mp/ArrayBase.h</text>
</a>
</g>
</g>
<!-- Node7&#45;&gt;Node8 -->
<g id="edge7_Node000007_Node000008" class="edge">
<title>Node7&#45;&gt;Node8</title>
<g id="a_edge7_Node000007_Node000008"><a xlink:title=" ">
<path fill="none" stroke="#63b8ff" d="M951.18,-348.55C923.32,-338.71 884.49,-324.98 859.54,-316.17"/>
<polygon fill="#63b8ff" stroke="#63b8ff" points="950.31,-351.95 960.9,-351.98 952.64,-345.35 950.31,-351.95"/>
</a>
</g>
</g>
<!-- Node10 -->
<g id="Node000010" class="node">
<title>Node10</title>
<g id="a_Node000010"><a xlink:href="_enum_base_8h.html" target="_top" xlink:title=" ">
<polygon fill="white" stroke="#666666" points="1051,-316 919,-316 919,-297 1051,-297 1051,-316"/>
<text text-anchor="middle" x="985" y="-304" font-family="Helvetica,sans-Serif" font-size="10.00">Kit/Dm/Mp/EnumBase.h</text>
</a>
</g>
</g>
<!-- Node7&#45;&gt;Node10 -->
<g id="edge9_Node000007_Node000010" class="edge">
<title>Node7&#45;&gt;Node10</title>
<g id="a_edge9_Node000007_Node000010"><a xlink:title=" ">
<path fill="none" stroke="#63b8ff" d="M985,-341.66C985,-332.93 985,-322.99 985,-316.09"/>
<polygon fill="#63b8ff" stroke="#63b8ff" points="981.5,-341.75 985,-351.75 988.5,-341.75 981.5,-341.75"/>
</a>
</g>
</g>
<!-- Node11 -->
<g id="Node000011" class="node">
<title>Node11</title>
<g id="a_Node000011"><a xlink:href="_scalar_8h.html" target="_top" xlink:title=" ">
<polygon fill="white" stroke="#666666" points="1179,-316 1069,-316 1069,-297 1179,-297 1179,-316"/>
<text text-anchor="middle" x="1124" y="-304" font-family="Helvetica,sans-Serif" font-size="10.00">Kit/Dm/Mp/Scalar.h</text>
</a>
</g>
</g>
<!-- Node7&#45;&gt;Node11 -->
<g id="edge10_Node000007_Node000011" class="edge">
<title>Node7&#45;&gt;Node11</title>
<g id="a_edge10_Node000007_Node000011"><a xlink:title=" ">
<path fill="none" stroke="#63b8ff" d="M1016.68,-348.42C1042.47,-338.59 1078.24,-324.95 1101.26,-316.17"/>
<polygon fill="#63b8ff" stroke="#63b8ff" points="1015.43,-345.15 1007.33,-351.98 1017.92,-351.69 1015.43,-345.15"/>
</a>
</g>
</g>
<!-- Node34 -->
<g id="Node000034" class="node">
<title>Node34</title>
<g id="a_Node000034"><a xlink:href="_string_8h.html" target="_top" xlink:title=" ">
<polygon fill="white" stroke="#666666" points="2323.5,-316 2214.5,-316 2214.5,-297 2323.5,-297 2323.5,-316"/>
<text text-anchor="middle" x="2269" y="-304" font-family="Helvetica,sans-Serif" font-size="10.00">Kit/Dm/Mp/String.h</text>
</a>
</g>
</g>
<!-- Node7&#45;&gt;Node34 -->
<g id="edge32_Node000007_Node000034" class="edge">
<title>Node7&#45;&gt;Node34</title>
<g id="a_edge32_Node000007_Node000034"><a xlink:title=" ">
<path fill="none" stroke="#63b8ff" d="M1065.93,-357.16C1306.39,-347.23 2012.31,-318.1 2214.38,-309.75"/>
<polygon fill="#63b8ff" stroke="#63b8ff" points="1065.71,-353.67 1055.86,-357.57 1066,-360.66 1065.71,-353.67"/>
</a>
</g>
</g>
<!-- Node9 -->
<g id="Node000009" class="node">
<title>Node9</title>
<g id="a_Node000009"><a xlink:href="_numeric_array_8h.html" target="_top" xlink:title=" ">
<polygon fill="white" stroke="#666666" points="908,-250 762,-250 762,-231 908,-231 908,-250"/>
<text text-anchor="middle" x="835" y="-238" font-family="Helvetica,sans-Serif" font-size="10.00">Kit/Dm/Mp/NumericArray.h</text>
</a>
</g>
</g>
<!-- Node8&#45;&gt;Node9 -->
<g id="edge8_Node000008_Node000009" class="edge">
<title>Node8&#45;&gt;Node9</title>
<g id="a_edge8_Node000008_Node000009"><a xlink:title=" ">
<path fill="none" stroke="#63b8ff" d="M835,-286.58C835,-274.63 835,-259.72 835,-250.41"/>
<polygon fill="#63b8ff" stroke="#63b8ff" points="831.5,-286.87 835,-296.87 838.5,-286.87 831.5,-286.87"/>
</a>
</g>
</g>
<!-- Node12 -->
<g id="Node000012" class="node">
<title>Node12</title>
<g id="a_Node000012"><a xlink:href="_mp_foo_8h.html" target="_top" xlink:title=" ">
<polygon fill="white" stroke="#666666" points="454.5,-184 305.5,-184 305.5,-143 454.5,-143 454.5,-184"/>
<text text-anchor="start" x="313.5" y="-172" font-family="Helvetica,sans-Serif" font-size="10.00">/home/runner/work/kit.core</text>
<text text-anchor="start" x="313.5" y="-161" font-family="Helvetica,sans-Serif" font-size="10.00">/kit.core/projects/examples</text>
<text text-anchor="middle" x="380" y="-150" font-family="Helvetica,sans-Serif" font-size="10.00">/Dm/Transaction/MpFoo.h</text>
</a>
</g>
</g>
<!-- Node11&#45;&gt;Node12 -->
<g id="edge11_Node000011_Node000012" class="edge">
<title>Node11&#45;&gt;Node12</title>
<g id="a_edge11_Node000011_Node000012"><a xlink:title=" ">
<path fill="none" stroke="#63b8ff" d="M1096.21,-292.75C1048.51,-271.08 952.73,-228.57 917,-220 720.17,-172.79 662.99,-215.24 463,-184 460.22,-183.57 457.4,-183.09 454.55,-182.58"/>
<polygon fill="#63b8ff" stroke="#63b8ff" points="1094.8,-295.95 1105.35,-296.91 1097.7,-289.58 1094.8,-295.95"/>
</a>
</g>
</g>
<!-- Node16 -->
<g id="Node000016" class="node">
<title>Node16</title>
<g id="a_Node000016"><a xlink:href="_primitive_type_8h.html" target="_top" xlink:title=" ">
<polygon fill="white" stroke="#666666" points="1363.5,-250 1216.5,-250 1216.5,-231 1363.5,-231 1363.5,-250"/>
<text text-anchor="middle" x="1290" y="-238" font-family="Helvetica,sans-Serif" font-size="10.00">Kit/Dm/Mp/PrimitiveType.h</text>
</a>
</g>
</g>
<!-- Node11&#45;&gt;Node16 -->
<g id="edge15_Node000011_Node000016" class="edge">
<title>Node11&#45;&gt;Node16</title>
<g id="a_edge15_Node000011_Node000016"><a xlink:title=" ">
<path fill="none" stroke="#63b8ff" d="M1155.97,-293.18C1188.77,-280.53 1238.96,-261.18 1267.7,-250.1"/>
<polygon fill="#63b8ff" stroke="#63b8ff" points="1154.46,-290.01 1146.39,-296.87 1156.98,-296.54 1154.46,-290.01"/>
</a>
</g>
</g>
<!-- Node13 -->
<g id="Node000013" class="node">
<title>Node13</title>
<g id="a_Node000013"><a xlink:href="_client_8h.html" target="_top" xlink:title=" ">
<polygon fill="white" stroke="#666666" points="371.5,-107 222.5,-107 222.5,-66 371.5,-66 371.5,-107"/>
<text text-anchor="start" x="230.5" y="-95" font-family="Helvetica,sans-Serif" font-size="10.00">/home/runner/work/kit.core</text>
<text text-anchor="start" x="230.5" y="-84" font-family="Helvetica,sans-Serif" font-size="10.00">/kit.core/projects/examples</text>
<text text-anchor="middle" x="297" y="-73" font-family="Helvetica,sans-Serif" font-size="10.00">/Dm/Transaction/Client.h</text>
</a>
</g>
</g>
<!-- Node12&#45;&gt;Node13 -->
<g id="edge12_Node000012_Node000013" class="edge">
<title>Node12&#45;&gt;Node13</title>
<g id="a_edge12_Node000012_Node000013"><a xlink:title=" ">
<path fill="none" stroke="#63b8ff" d="M350.75,-136.07C340.19,-126.52 328.46,-115.93 318.66,-107.07"/>
<polygon fill="#63b8ff" stroke="#63b8ff" points="348.43,-138.69 358.19,-142.79 353.12,-133.49 348.43,-138.69"/>
</a>
</g>
</g>
<!-- Node14 -->
<g id="Node000014" class="node">
<title>Node14</title>
<g id="a_Node000014"><a xlink:href="_model_points_8h.html" target="_top" xlink:title="This file defines all of the Model Points for Example application.">
<polygon fill="white" stroke="#666666" points="888.5,-107 721.5,-107 721.5,-66 888.5,-66 888.5,-107"/>
<text text-anchor="start" x="729.5" y="-95" font-family="Helvetica,sans-Serif" font-size="10.00">/home/runner/work/kit.core</text>
<text text-anchor="start" x="729.5" y="-84" font-family="Helvetica,sans-Serif" font-size="10.00">/kit.core/projects/examples</text>
<text text-anchor="middle" x="805" y="-73" font-family="Helvetica,sans-Serif" font-size="10.00">/Dm/Transaction/ModelPoints.h</text>
</a>
</g>
</g>
<!-- Node12&#45;&gt;Node14 -->
<g id="edge13_Node000012_Node000014" class="edge">
<title>Node12&#45;&gt;Node14</title>
<g id="a_edge13_Node000012_Node000014"><a xlink:title=" ">
<path fill="none" stroke="#63b8ff" d="M464.48,-142.76C557.65,-124.51 654.38,-109.32 721.43,-99.39"/>
<polygon fill="#63b8ff" stroke="#63b8ff" points="463.74,-139.34 454.6,-144.71 465.09,-146.21 463.74,-139.34"/>
</a>
</g>
</g>
<!-- Node15 -->
<g id="Node000015" class="node">
<title>Node15</title>
<g id="a_Node000015"><a xlink:href="projects_2examples_2_dm_2_transaction_2_server_8h.html" target="_top" xlink:title=" ">
<polygon fill="white" stroke="#666666" points="538.5,-107 389.5,-107 389.5,-66 538.5,-66 538.5,-107"/>
<text text-anchor="start" x="397.5" y="-95" font-family="Helvetica,sans-Serif" font-size="10.00">/home/runner/work/kit.core</text>
<text text-anchor="start" x="397.5" y="-84" font-family="Helvetica,sans-Serif" font-size="10.00">/kit.core/projects/examples</text>
<text text-anchor="middle" x="464" y="-73" font-family="Helvetica,sans-Serif" font-size="10.00">/Dm/Transaction/Server.h</text>
</a>
</g>
</g>
<!-- Node12&#45;&gt;Node15 -->
<g id="edge14_Node000012_Node000015" class="edge">
<title>Node12&#45;&gt;Node15</title>
<g id="a_edge14_Node000012_Node000015"><a xlink:title=" ">
<path fill="none" stroke="#63b8ff" d="M409.6,-136.07C420.29,-126.52 432.16,-115.93 442.08,-107.07"/>
<polygon fill="#63b8ff" stroke="#63b8ff" points="407.2,-133.52 402.07,-142.79 411.86,-138.75 407.2,-133.52"/>
</a>
</g>
</g>
<!-- Node17 -->
<g id="Node000017" class="node">
<title>Node17</title>
<g id="a_Node000017"><a xlink:href="_bool_8h.html" target="_top" xlink:title=" ">
<polygon fill="white" stroke="#666666" points="938,-173 836,-173 836,-154 938,-154 938,-173"/>
<text text-anchor="middle" x="887" y="-161" font-family="Helvetica,sans-Serif" font-size="10.00">Kit/Dm/Mp/Bool.h</text>
</a>
</g>
</g>
<!-- Node16&#45;&gt;Node17 -->
<g id="edge16_Node000016_Node000017" class="edge">
<title>Node16&#45;&gt;Node17</title>
<g id="a_edge16_Node000016_Node000017"><a xlink:title=" ">
<path fill="none" stroke="#63b8ff" d="M1240.89,-228.85C1226.17,-225.81 1209.96,-222.62 1195,-220 1085.29,-200.79 1055.46,-209.3 947,-184 934.63,-181.11 921.15,-176.84 910.1,-173.03"/>
<polygon fill="#63b8ff" stroke="#63b8ff" points="1240.31,-232.3 1250.81,-230.92 1241.74,-225.45 1240.31,-232.3"/>
</a>
</g>
</g>
<!-- Node18 -->
<g id="Node000018" class="node">
<title>Node18</title>
<g id="a_Node000018"><a xlink:href="_double_8h.html" target="_top" xlink:title=" ">
<polygon fill="white" stroke="#666666" points="1729.5,-173 1614.5,-173 1614.5,-154 1729.5,-154 1729.5,-173"/>
<text text-anchor="middle" x="1672" y="-161" font-family="Helvetica,sans-Serif" font-size="10.00">Kit/Dm/Mp/Double.h</text>
</a>
</g>
</g>
<!-- Node16&#45;&gt;Node18 -->
<g id="edge18_Node000016_Node000018" class="edge">
<title>Node16&#45;&gt;Node18</title>
<g id="a_edge18_Node000016_Node000018"><a xlink:title=" ">
<path fill="none" stroke="#63b8ff" d="M1359.6,-229.46C1423.73,-219.69 1521.32,-203.49 1605,-184 1618.33,-180.89 1632.95,-176.73 1645.12,-173.05"/>
<polygon fill="#63b8ff" stroke="#63b8ff" points="1358.97,-226.02 1349.61,-230.98 1360.02,-232.94 1358.97,-226.02"/>
</a>
</g>
</g>
<!-- Node19 -->
<g id="Node000019" class="node">
<title>Node19</title>
<g id="a_Node000019"><a xlink:href="_float_8h.html" target="_top" xlink:title=" ">
<polygon fill="white" stroke="#666666" points="1852.5,-173 1747.5,-173 1747.5,-154 1852.5,-154 1852.5,-173"/>
<text text-anchor="middle" x="1800" y="-161" font-family="Helvetica,sans-Serif" font-size="10.00">Kit/Dm/Mp/Float.h</text>
</a>
</g>
</g>
<!-- Node16&#45;&gt;Node19 -->
<g id="edge19_Node000016_Node000019" class="edge">
<title>Node16&#45;&gt;Node19</title>
<g id="a_edge19_Node000016_Node000019"><a xlink:title=" ">
<path fill="none" stroke="#63b8ff" d="M1373.84,-233.68C1464.43,-226.34 1612.64,-211.24 1738,-184 1750.9,-181.2 1764.96,-176.88 1776.42,-173.02"/>
<polygon fill="#63b8ff" stroke="#63b8ff" points="1373.32,-230.21 1363.63,-234.5 1373.87,-237.19 1373.32,-230.21"/>
</a>
</g>
</g>
<!-- Node20 -->
<g id="Node000020" class="node">
<title>Node20</title>
<g id="a_Node000020"><a xlink:href="_int16_8h.html" target="_top" xlink:title=" ">
<polygon fill="white" stroke="#666666" points="1975.5,-173 1870.5,-173 1870.5,-154 1975.5,-154 1975.5,-173"/>
<text text-anchor="middle" x="1923" y="-161" font-family="Helvetica,sans-Serif" font-size="10.00">Kit/Dm/Mp/Int16.h</text>
</a>
</g>
</g>
<!-- Node16&#45;&gt;Node20 -->
<g id="edge20_Node000016_Node000020" class="edge">
<title>Node16&#45;&gt;Node20</title>
<g id="a_edge20_Node000016_Node000020"><a xlink:title=" ">
<path fill="none" stroke="#63b8ff" d="M1373.95,-236.79C1486.01,-231.94 1690.17,-218.77 1861,-184 1874.05,-181.34 1888.24,-176.99 1899.75,-173.08"/>
<polygon fill="#63b8ff" stroke="#63b8ff" points="1373.58,-233.3 1363.73,-237.22 1373.87,-240.3 1373.58,-233.3"/>
</a>
</g>
</g>
<!-- Node21 -->
<g id="Node000021" class="node">
<title>Node21</title>
<g id="a_Node000021"><a xlink:href="_int32_8h.html" target="_top" xlink:title=" ">
<polygon fill="white" stroke="#666666" points="577.5,-173 472.5,-173 472.5,-154 577.5,-154 577.5,-173"/>
<text text-anchor="middle" x="525" y="-161" font-family="Helvetica,sans-Serif" font-size="10.00">Kit/Dm/Mp/Int32.h</text>
</a>
</g>
</g>
<!-- Node16&#45;&gt;Node21 -->
<g id="edge21_Node000016_Node000021" class="edge">
<title>Node16&#45;&gt;Node21</title>
<g id="a_edge21_Node000016_Node000021"><a xlink:title=" ">
<path fill="none" stroke="#63b8ff" d="M1244.62,-228.8C1228.98,-225.49 1211.3,-222.14 1195,-220 926.18,-184.65 852.55,-233.67 586,-184 572.88,-181.56 558.66,-177.12 547.25,-173.09"/>
<polygon fill="#63b8ff" stroke="#63b8ff" points="1244.05,-232.26 1254.57,-230.97 1245.54,-225.42 1244.05,-232.26"/>
</a>
</g>
</g>
<!-- Node22 -->
<g id="Node000022" class="node">
<title>Node22</title>
<g id="a_Node000022"><a xlink:href="_int64_8h.html" target="_top" xlink:title=" ">
<polygon fill="white" stroke="#666666" points="700.5,-173 595.5,-173 595.5,-154 700.5,-154 700.5,-173"/>
<text text-anchor="middle" x="648" y="-161" font-family="Helvetica,sans-Serif" font-size="10.00">Kit/Dm/Mp/Int64.h</text>
</a>
</g>
</g>
<!-- Node16&#45;&gt;Node22 -->
<g id="edge22_Node000016_Node000022" class="edge">
<title>Node16&#45;&gt;Node22</title>
<g id="a_edge22_Node000016_Node000022"><a xlink:title=" ">
<path fill="none" stroke="#63b8ff" d="M1244.2,-228.86C1228.66,-225.58 1211.14,-222.25 1195,-220 980.47,-190.16 921.63,-225.26 709,-184 695.9,-181.46 681.68,-177.01 670.27,-173.01"/>
<polygon fill="#63b8ff" stroke="#63b8ff" points="1243.59,-232.31 1254.1,-231 1245.06,-225.46 1243.59,-232.31"/>
</a>
</g>
</g>
<!-- Node23 -->
<g id="Node000023" class="node">
<title>Node23</title>
<g id="a_Node000023"><a xlink:href="_int8_8h.html" target="_top" xlink:title=" ">
<polygon fill="white" stroke="#666666" points="817.5,-173 718.5,-173 718.5,-154 817.5,-154 817.5,-173"/>
<text text-anchor="middle" x="768" y="-161" font-family="Helvetica,sans-Serif" font-size="10.00">Kit/Dm/Mp/Int8.h</text>
</a>
</g>
</g>
<!-- Node16&#45;&gt;Node23 -->
<g id="edge23_Node000016_Node000023" class="edge">
<title>Node16&#45;&gt;Node23</title>
<g id="a_edge23_Node000016_Node000023"><a xlink:title=" ">
<path fill="none" stroke="#63b8ff" d="M1242.55,-228.74C1227.41,-225.58 1210.56,-222.35 1195,-220 1032.51,-195.44 987.78,-217.99 827,-184 814.55,-181.37 801.04,-177.02 790.09,-173.09"/>
<polygon fill="#63b8ff" stroke="#63b8ff" points="1242.2,-232.25 1252.71,-230.9 1243.66,-225.4 1242.2,-232.25"/>
</a>
</g>
</g>
<!-- Node24 -->
<g id="Node000024" class="node">
<title>Node24</title>
<g id="a_Node000024"><a xlink:href="_ref_counter_8h.html" target="_top" xlink:title=" ">
<polygon fill="white" stroke="#666666" points="1090,-173 956,-173 956,-154 1090,-154 1090,-173"/>
<text text-anchor="middle" x="1023" y="-161" font-family="Helvetica,sans-Serif" font-size="10.00">Kit/Dm/Mp/RefCounter.h</text>
</a>
</g>
</g>
<!-- Node16&#45;&gt;Node24 -->
<g id="edge24_Node000016_Node000024" class="edge">
<title>Node16&#45;&gt;Node24</title>
<g id="a_edge24_Node000016_Node000024"><a xlink:title=" ">
<path fill="none" stroke="#63b8ff" d="M1249.75,-228.19C1195.89,-213.07 1101.6,-186.58 1053.34,-173.02"/>
<polygon fill="#63b8ff" stroke="#63b8ff" points="1249.06,-231.63 1259.63,-230.97 1250.95,-224.9 1249.06,-231.63"/>
</a>
</g>
</g>
<!-- Node25 -->
<g id="Node000025" class="node">
<title>Node25</title>
<g id="a_Node000025"><a xlink:href="_uint16_8h.html" target="_top" xlink:title=" ">
<polygon fill="white" stroke="#666666" points="1221.5,-173 1108.5,-173 1108.5,-154 1221.5,-154 1221.5,-173"/>
<text text-anchor="middle" x="1165" y="-161" font-family="Helvetica,sans-Serif" font-size="10.00">Kit/Dm/Mp/Uint16.h</text>
</a>
</g>
</g>
<!-- Node16&#45;&gt;Node25 -->
<g id="edge25_Node000016_Node000025" class="edge">
<title>Node16&#45;&gt;Node25</title>
<g id="a_edge25_Node000016_Node000025"><a xlink:title=" ">
<path fill="none" stroke="#63b8ff" d="M1266.94,-225.67C1241.26,-210.25 1200.55,-185.83 1179.17,-173"/>
<polygon fill="#63b8ff" stroke="#63b8ff" points="1265.29,-228.75 1275.66,-230.9 1268.89,-222.75 1265.29,-228.75"/>
</a>
</g>
</g>
<!-- Node26 -->
<g id="Node000026" class="node">
<title>Node26</title>
<g id="a_Node000026"><a xlink:href="_uint32_8h.html" target="_top" xlink:title=" ">
<polygon fill="#fff0f0" stroke="red" points="2106.5,-173 1993.5,-173 1993.5,-154 2106.5,-154 2106.5,-173"/>
<text text-anchor="middle" x="2050" y="-161" font-family="Helvetica,sans-Serif" font-size="10.00">Kit/Dm/Mp/Uint32.h</text>
</a>
</g>
</g>
<!-- Node16&#45;&gt;Node26 -->
<g id="edge26_Node000016_Node000026" class="edge">
<title>Node16&#45;&gt;Node26</title>
<g id="a_edge26_Node000016_Node000026"><a xlink:title=" ">
<path fill="none" stroke="#63b8ff" d="M1373.97,-238.39C1505.21,-235.39 1766.47,-224.38 1984,-184 1997.98,-181.41 2013.22,-177.01 2025.54,-173.05"/>
<polygon fill="#63b8ff" stroke="#63b8ff" points="1373.52,-234.89 1363.59,-238.61 1373.67,-241.89 1373.52,-234.89"/>
</a>
</g>
</g>
<!-- Node31 -->
<g id="Node000031" class="node">
<title>Node31</title>
<g id="a_Node000031"><a xlink:href="_uint64_8h.html" target="_top" xlink:title=" ">
<polygon fill="white" stroke="#666666" points="1352.5,-173 1239.5,-173 1239.5,-154 1352.5,-154 1352.5,-173"/>
<text text-anchor="middle" x="1296" y="-161" font-family="Helvetica,sans-Serif" font-size="10.00">Kit/Dm/Mp/Uint64.h</text>
</a>
</g>
</g>
<!-- Node16&#45;&gt;Node31 -->
<g id="edge29_Node000016_Node000031" class="edge">
<title>Node16&#45;&gt;Node31</title>
<g id="a_edge29_Node000016_Node000031"><a xlink:title=" ">
<path fill="none" stroke="#63b8ff" d="M1291.52,-220.52C1292.74,-205.24 1294.4,-184.48 1295.32,-173"/>
<polygon fill="#63b8ff" stroke="#63b8ff" points="1288,-220.65 1290.69,-230.9 1294.97,-221.21 1288,-220.65"/>
</a>
</g>
</g>
<!-- Node32 -->
<g id="Node000032" class="node">
<title>Node32</title>
<g id="a_Node000032"><a xlink:href="_uint8_8h.html" target="_top" xlink:title=" ">
<polygon fill="white" stroke="#666666" points="1477.5,-173 1370.5,-173 1370.5,-154 1477.5,-154 1477.5,-173"/>
<text text-anchor="middle" x="1424" y="-161" font-family="Helvetica,sans-Serif" font-size="10.00">Kit/Dm/Mp/Uint8.h</text>
</a>
</g>
</g>
<!-- Node16&#45;&gt;Node32 -->
<g id="edge30_Node000016_Node000032" class="edge">
<title>Node16&#45;&gt;Node32</title>
<g id="a_edge30_Node000016_Node000032"><a xlink:title=" ">
<path fill="none" stroke="#63b8ff" d="M1314.36,-225.87C1341.87,-210.47 1385.79,-185.88 1408.81,-173"/>
<polygon fill="#63b8ff" stroke="#63b8ff" points="1312.39,-222.96 1305.37,-230.9 1315.81,-229.07 1312.39,-222.96"/>
</a>
</g>
</g>
<!-- Node33 -->
<g id="Node000033" class="node">
<title>Node33</title>
<g id="a_Node000033"><a xlink:href="_void_8h.html" target="_top" xlink:title=" ">
<polygon fill="white" stroke="#666666" points="1596.5,-173 1495.5,-173 1495.5,-154 1596.5,-154 1596.5,-173"/>
<text text-anchor="middle" x="1546" y="-161" font-family="Helvetica,sans-Serif" font-size="10.00">Kit/Dm/Mp/Void.h</text>
</a>
</g>
</g>
<!-- Node16&#45;&gt;Node33 -->
<g id="edge31_Node000016_Node000033" class="edge">
<title>Node16&#45;&gt;Node33</title>
<g id="a_edge31_Node000016_Node000033"><a xlink:title=" ">
<path fill="none" stroke="#63b8ff" d="M1331.55,-228.23C1371.31,-217.33 1432.93,-200.13 1486,-184 1497.32,-180.56 1509.77,-176.55 1520.37,-173.07"/>
<polygon fill="#63b8ff" stroke="#63b8ff" points="1330.4,-224.92 1321.68,-230.93 1332.25,-231.67 1330.4,-224.92"/>
</a>
</g>
</g>
<!-- Node17&#45;&gt;Node14 -->
<g id="edge17_Node000017_Node000014" class="edge">
<title>Node17&#45;&gt;Node14</title>
<g id="a_edge17_Node000017_Node000014"><a xlink:title=" ">
<path fill="none" stroke="#63b8ff" d="M870.07,-147.02C857.46,-135.48 840.15,-119.65 826.55,-107.21"/>
<polygon fill="#63b8ff" stroke="#63b8ff" points="867.85,-149.73 877.59,-153.9 872.58,-144.56 867.85,-149.73"/>
</a>
</g>
</g>
<!-- Node27 -->
<g id="Node000027" class="node">
<title>Node27</title>
<g id="a_Node000027"><a xlink:href="_ring_buffer_m_p_8h.html" target="_top" xlink:title=" ">
<polygon fill="#fff0f0" stroke="red" points="2504.5,-96 2347.5,-96 2347.5,-77 2504.5,-77 2504.5,-96"/>
<text text-anchor="middle" x="2426" y="-84" font-family="Helvetica,sans-Serif" font-size="10.00">Kit/Container/RingBufferMP.h</text>
</a>
</g>
</g>
<!-- Node26&#45;&gt;Node27 -->
<g id="edge27_Node000026_Node000027" class="edge">
<title>Node26&#45;&gt;Node27</title>
<g id="a_edge27_Node000026_Node000027"><a xlink:title=" ">
<path fill="none" stroke="#63b8ff" d="M2085.91,-150.93C2095.31,-148.11 2105.49,-145.27 2115,-143 2201.7,-122.33 2303.64,-105.54 2366.54,-96.03"/>
<polygon fill="#63b8ff" stroke="#63b8ff" points="2084.6,-147.66 2076.06,-153.93 2086.65,-154.36 2084.6,-147.66"/>
</a>
</g>
</g>
<!-- Node28 -->
<g id="Node000028" class="node">
<title>Node28</title>
<g id="a_Node000028"><a xlink:href="_ring_buffer_m_p_allocate_8h.html" target="_top" xlink:title=" ">
<polygon fill="white" stroke="#666666" points="2695,-30 2561,-30 2561,0 2695,0 2695,-30"/>
<text text-anchor="start" x="2569" y="-18" font-family="Helvetica,sans-Serif" font-size="10.00">Kit/Container/RingBuffer</text>
<text text-anchor="middle" x="2628" y="-7" font-family="Helvetica,sans-Serif" font-size="10.00">MPAllocate.h</text>
</a>
</g>
</g>
<!-- Node27&#45;&gt;Node28 -->
<g id="edge28_Node000027_Node000028" class="edge">
<title>Node27&#45;&gt;Node28</title>
<g id="a_edge28_Node000027_Node000028"><a xlink:title=" ">
<path fill="none" stroke="#63b8ff" d="M2460.57,-73.6C2495.7,-61.52 2550.1,-42.8 2587.29,-30.01"/>
<polygon fill="#63b8ff" stroke="#63b8ff" points="2459.09,-70.41 2450.77,-76.98 2461.36,-77.03 2459.09,-70.41"/>
</a>
</g>
</g>
<!-- Node34&#45;&gt;Node28 -->
<g id="edge43_Node000034_Node000028" class="edge">
<title>Node34&#45;&gt;Node28</title>
<g id="a_edge43_Node000034_Node000028"><a xlink:title=" ">
<path fill="none" stroke="#63b8ff" d="M2333.95,-297.09C2439.81,-288.32 2669.41,-307.87 2745,-261 2792.98,-231.25 2808.76,-196.91 2792,-143 2779.67,-103.33 2770.89,-92.62 2739,-66 2719.94,-50.09 2694.99,-38.25 2673.57,-30.09"/>
<polygon fill="#63b8ff" stroke="#63b8ff" points="2333.41,-293.62 2323.79,-298.06 2334.08,-300.59 2333.41,-293.62"/>
</a>
</g>
</g>
<!-- Node35 -->
<g id="Node000035" class="node">
<title>Node35</title>
<g id="a_Node000035"><a xlink:href="_foo_t_8h.html" target="_top" xlink:title=" ">
<polygon fill="white" stroke="#666666" points="1186.5,-261 1037.5,-261 1037.5,-220 1186.5,-220 1186.5,-261"/>
<text text-anchor="start" x="1045.5" y="-249" font-family="Helvetica,sans-Serif" font-size="10.00">/home/runner/work/kit.core</text>
<text text-anchor="start" x="1045.5" y="-238" font-family="Helvetica,sans-Serif" font-size="10.00">/kit.core/projects/examples</text>
<text text-anchor="middle" x="1112" y="-227" font-family="Helvetica,sans-Serif" font-size="10.00">/Dm/Transaction/FooT.h</text>
</a>
</g>
</g>
<!-- Node34&#45;&gt;Node35 -->
<g id="edge33_Node000034_Node000035" class="edge">
<title>Node34&#45;&gt;Node35</title>
<g id="a_edge33_Node000034_Node000035"><a xlink:title=" ">
<path fill="none" stroke="#63b8ff" d="M2204.44,-304.16C2005.19,-299.79 1401.66,-284.9 1207,-261 1200.4,-260.19 1193.57,-259.16 1186.75,-258.01"/>
<polygon fill="#63b8ff" stroke="#63b8ff" points="2204.39,-307.65 2214.46,-304.37 2204.54,-300.66 2204.39,-307.65"/>
</a>
</g>
</g>
<!-- Node36 -->
<g id="Node000036" class="node">
<title>Node36</title>
<g id="a_Node000036"><a xlink:href="_ring_buffer_8h.html" target="_top" xlink:title=" ">
<polygon fill="#fff0f0" stroke="red" points="2549.5,-250 2406.5,-250 2406.5,-231 2549.5,-231 2549.5,-250"/>
<text text-anchor="middle" x="2478" y="-238" font-family="Helvetica,sans-Serif" font-size="10.00">Kit/Container/RingBuffer.h</text>
</a>
</g>
</g>
<!-- Node34&#45;&gt;Node36 -->
<g id="edge35_Node000034_Node000036" class="edge">
<title>Node34&#45;&gt;Node36</title>
<g id="a_edge35_Node000034_Node000036"><a xlink:title=" ">
<path fill="none" stroke="#63b8ff" d="M2306.87,-293.9C2348.09,-281.28 2413.03,-261.39 2449.93,-250.1"/>
<polygon fill="#63b8ff" stroke="#63b8ff" points="2305.72,-290.59 2297.19,-296.87 2307.77,-297.29 2305.72,-290.59"/>
</a>
</g>
</g>
<!-- Node37 -->
<g id="Node000037" class="node">
<title>Node37</title>
<g id="a_Node000037"><a xlink:href="_ring_buffer_allocate_8h.html" target="_top" xlink:title=" ">
<polygon fill="#fff0f0" stroke="red" points="2764,-178.5 2630,-178.5 2630,-148.5 2764,-148.5 2764,-178.5"/>
<text text-anchor="start" x="2638" y="-166.5" font-family="Helvetica,sans-Serif" font-size="10.00">Kit/Container/RingBuffer</text>
<text text-anchor="middle" x="2697" y="-155.5" font-family="Helvetica,sans-Serif" font-size="10.00">Allocate.h</text>
</a>
</g>
</g>
<!-- Node34&#45;&gt;Node37 -->
<g id="edge42_Node000034_Node000037" class="edge">
<title>Node34&#45;&gt;Node37</title>
<g id="a_edge42_Node000034_Node000037"><a xlink:title=" ">
<path fill="none" stroke="#63b8ff" d="M2333.85,-297.12C2425.03,-289.68 2623.2,-311.06 2678,-261 2700.95,-240.04 2700.87,-200.11 2698.91,-178.77"/>
<polygon fill="#63b8ff" stroke="#63b8ff" points="2333.41,-293.65 2323.8,-298.12 2334.1,-300.62 2333.41,-293.65"/>
</a>
</g>
</g>
<!-- Node40 -->
<g id="Node000040" class="node">
<title>Node40</title>
<g id="a_Node000040"><a xlink:href="_ring_buffer_m_t_allocate_8h.html" target="_top" xlink:title=" ">
<polygon fill="white" stroke="#666666" points="2730,-101.5 2596,-101.5 2596,-71.5 2730,-71.5 2730,-101.5"/>
<text text-anchor="start" x="2604" y="-89.5" font-family="Helvetica,sans-Serif" font-size="10.00">Kit/Container/RingBuffer</text>
<text text-anchor="middle" x="2663" y="-78.5" font-family="Helvetica,sans-Serif" font-size="10.00">MTAllocate.h</text>
</a>
</g>
</g>
<!-- Node34&#45;&gt;Node40 -->
<g id="edge44_Node000034_Node000040" class="edge">
<title>Node34&#45;&gt;Node40</title>
<g id="a_edge44_Node000034_Node000040"><a xlink:title=" ">
<path fill="none" stroke="#63b8ff" d="M2333.82,-297.06C2429.41,-288.22 2629.9,-296.07 2701,-261 2756.1,-233.82 2805.2,-195.32 2773,-143 2760.67,-122.96 2738.62,-109.9 2717.49,-101.51"/>
<polygon fill="#63b8ff" stroke="#63b8ff" points="2333.38,-293.59 2323.8,-298.1 2334.1,-300.55 2333.38,-293.59"/>
</a>
</g>
</g>
<!-- Node45 -->
<g id="Node000045" class="node">
<title>Node45</title>
<g id="a_Node000045"><a xlink:href="_entry_data_8h.html" target="_top" xlink:title=" ">
<polygon fill="#fff0f0" stroke="red" points="2089.5,-255.5 1960.5,-255.5 1960.5,-225.5 2089.5,-225.5 2089.5,-255.5"/>
<text text-anchor="start" x="1968.5" y="-243.5" font-family="Helvetica,sans-Serif" font-size="10.00">Kit/Logging/Framework</text>
<text text-anchor="middle" x="2025" y="-232.5" font-family="Helvetica,sans-Serif" font-size="10.00">/EntryData.h</text>
</a>
</g>
</g>
<!-- Node34&#45;&gt;Node45 -->
<g id="edge45_Node000034_Node000045" class="edge">
<title>Node34&#45;&gt;Node45</title>
<g id="a_edge45_Node000034_Node000045"><a xlink:title=" ">
<path fill="none" stroke="#63b8ff" d="M2226.69,-294.45C2192.29,-285.45 2142.51,-272.43 2099,-261 2092.32,-259.25 2085.3,-257.4 2078.35,-255.57"/>
<polygon fill="#63b8ff" stroke="#63b8ff" points="2225.85,-297.84 2236.41,-296.98 2227.62,-291.07 2225.85,-297.84"/>
</a>
</g>
</g>
<!-- Node47 -->
<g id="Node000047" class="node">
<title>Node47</title>
<g id="a_Node000047"><a xlink:href="_real_expression_parser_8h.html" target="_top" xlink:title="This file contains a collection of methods that parses a null terminated string that contains an arit...">
<polygon fill="white" stroke="#666666" points="2282,-250 2108,-250 2108,-231 2282,-231 2282,-250"/>
<text text-anchor="middle" x="2195" y="-238" font-family="Helvetica,sans-Serif" font-size="10.00">Kit/Math/RealExpressionParser.h</text>
</a>
</g>
</g>
<!-- Node34&#45;&gt;Node47 -->
<g id="edge46_Node000034_Node000047" class="edge">
<title>Node34&#45;&gt;Node47</title>
<g id="a_edge46_Node000034_Node000047"><a xlink:title=" ">
<path fill="none" stroke="#63b8ff" d="M2251.29,-290.18C2236.92,-277.76 2217.18,-260.68 2205.3,-250.41"/>
<polygon fill="#63b8ff" stroke="#63b8ff" points="2249.17,-292.97 2259.02,-296.87 2253.75,-287.68 2249.17,-292.97"/>
</a>
</g>
</g>
<!-- Node48 -->
<g id="Node000048" class="node">
<title>Node48</title>
<g id="a_Node000048"><a xlink:href="_thread_8h.html" target="_top" xlink:title=" ">
<polygon fill="#fff0f0" stroke="red" points="1942,-250 1826,-250 1826,-231 1942,-231 1942,-250"/>
<text text-anchor="middle" x="1884" y="-238" font-family="Helvetica,sans-Serif" font-size="10.00">Kit/System/Thread.h</text>
</a>
</g>
</g>
<!-- Node34&#45;&gt;Node48 -->
<g id="edge47_Node000034_Node000048" class="edge">
<title>Node34&#45;&gt;Node48</title>
<g id="a_edge47_Node000034_Node000048"><a xlink:title=" ">
<path fill="none" stroke="#63b8ff" d="M2204.24,-299.21C2139.65,-292.28 2037.79,-279.6 1951,-261 1937.38,-258.08 1922.47,-253.85 1910.19,-250.07"/>
<polygon fill="#63b8ff" stroke="#63b8ff" points="2203.97,-302.7 2214.28,-300.27 2204.71,-295.74 2203.97,-302.7"/>
</a>
</g>
</g>
<!-- Node56 -->
<g id="Node000056" class="node">
<title>Node56</title>
<g id="a_Node000056"><a xlink:href="_strip_8h.html" target="_top" xlink:title=" ">
<polygon fill="white" stroke="#666666" points="2388,-250 2300,-250 2300,-231 2388,-231 2388,-250"/>
<text text-anchor="middle" x="2344" y="-238" font-family="Helvetica,sans-Serif" font-size="10.00">Kit/Text/Strip.h</text>
</a>
</g>
</g>
<!-- Node34&#45;&gt;Node56 -->
<g id="edge50_Node000034_Node000056" class="edge">
<title>Node34&#45;&gt;Node56</title>
<g id="a_edge50_Node000034_Node000056"><a xlink:title=" ">
<path fill="none" stroke="#63b8ff" d="M2286.95,-290.18C2301.51,-277.76 2321.52,-260.68 2333.56,-250.41"/>
<polygon fill="#63b8ff" stroke="#63b8ff" points="2284.45,-287.72 2279.11,-296.87 2288.99,-293.04 2284.45,-287.72"/>
</a>
</g>
</g>
<!-- Node57 -->
<g id="Node000057" class="node">
<title>Node57</title>
<g id="a_Node000057"><a xlink:href="endian_8h.html" target="_top" xlink:title="This file provides a set of macros/method to convert between the &#39;host&#39; platform and Big/Little endia...">
<polygon fill="#fff0f0" stroke="red" points="2668.5,-250 2567.5,-250 2567.5,-231 2668.5,-231 2668.5,-250"/>
<text text-anchor="middle" x="2618" y="-238" font-family="Helvetica,sans-Serif" font-size="10.00">Kit/Type/endian.h</text>
</a>
</g>
</g>
<!-- Node34&#45;&gt;Node57 -->
<g id="edge51_Node000034_Node000057" class="edge">
<title>Node34&#45;&gt;Node57</title>
<g id="a_edge51_Node000034_Node000057"><a xlink:title=" ">
<path fill="none" stroke="#63b8ff" d="M2334.12,-296.8C2406.15,-286.94 2517.52,-270.96 2559,-261 2571.06,-258.1 2584.19,-253.87 2595,-250.09"/>
<polygon fill="#63b8ff" stroke="#63b8ff" points="2333.23,-293.39 2323.8,-298.2 2334.18,-300.32 2333.23,-293.39"/>
</a>
</g>
</g>
<!-- Node35&#45;&gt;Node12 -->
<g id="edge34_Node000035_Node000012" class="edge">
<title>Node35&#45;&gt;Node12</title>
<g id="a_edge34_Node000035_Node000012"><a xlink:title=" ">
<path fill="none" stroke="#63b8ff" d="M1027.46,-223.93C1017.88,-222.46 1008.24,-221.1 999,-220 761.93,-191.66 699.12,-219.42 463,-184 460.22,-183.58 457.39,-183.12 454.55,-182.62"/>
<polygon fill="#63b8ff" stroke="#63b8ff" points="1026.97,-227.4 1037.4,-225.5 1028.07,-220.48 1026.97,-227.4"/>
</a>
</g>
</g>
<!-- Node36&#45;&gt;Node27 -->
<g id="edge37_Node000036_Node000027" class="edge">
<title>Node36&#45;&gt;Node27</title>
<g id="a_edge37_Node000036_Node000027"><a xlink:title=" ">
<path fill="none" stroke="#63b8ff" d="M2465.91,-222.65C2458.83,-212.03 2450.27,-197.77 2445,-184 2433.1,-152.9 2428.31,-113.19 2426.7,-96.03"/>
<polygon fill="#63b8ff" stroke="#63b8ff" points="2463.07,-224.7 2471.64,-230.94 2468.83,-220.73 2463.07,-224.7"/>
</a>
</g>
</g>
<!-- Node36&#45;&gt;Node37 -->
<g id="edge36_Node000036_Node000037" class="edge">
<title>Node36&#45;&gt;Node37</title>
<g id="a_edge36_Node000036_Node000037"><a xlink:title=" ">
<path fill="none" stroke="#63b8ff" d="M2512.94,-227.53C2551.81,-214.22 2614.55,-192.73 2655.79,-178.61"/>
<polygon fill="#63b8ff" stroke="#63b8ff" points="2511.45,-224.35 2503.12,-230.9 2513.72,-230.97 2511.45,-224.35"/>
</a>
</g>
</g>
<!-- Node39 -->
<g id="Node000039" class="node">
<title>Node39</title>
<g id="a_Node000039"><a xlink:href="_ring_buffer_m_t_8h.html" target="_top" xlink:title=" ">
<polygon fill="white" stroke="#666666" points="2612,-173 2454,-173 2454,-154 2612,-154 2612,-173"/>
<text text-anchor="middle" x="2533" y="-161" font-family="Helvetica,sans-Serif" font-size="10.00">Kit/Container/RingBufferMT.h</text>
</a>
</g>
</g>
<!-- Node36&#45;&gt;Node39 -->
<g id="edge38_Node000036_Node000039" class="edge">
<title>Node36&#45;&gt;Node39</title>
<g id="a_edge38_Node000036_Node000039"><a xlink:title=" ">
<path fill="none" stroke="#63b8ff" d="M2490.3,-222.73C2501.61,-207.3 2517.94,-185.04 2526.76,-173"/>
<polygon fill="#63b8ff" stroke="#63b8ff" points="2487.4,-220.76 2484.31,-230.9 2493.05,-224.9 2487.4,-220.76"/>
</a>
</g>
</g>
<!-- Node41 -->
<g id="Node000041" class="node">
<title>Node41</title>
<g id="a_Node000041"><a xlink:href="_serial_2_r_pi_2_r_p2xxx_2_uart_2_input_output_8h.html" target="_top" xlink:title=" ">
<polygon fill="white" stroke="#666666" points="2255.5,-178.5 2124.5,-178.5 2124.5,-148.5 2255.5,-148.5 2255.5,-178.5"/>
<text text-anchor="start" x="2132.5" y="-166.5" font-family="Helvetica,sans-Serif" font-size="10.00">Kit/Io/Serial/RPi/RP2xxx</text>
<text text-anchor="middle" x="2190" y="-155.5" font-family="Helvetica,sans-Serif" font-size="10.00">/Uart/InputOutput.h</text>
</a>
</g>
</g>
<!-- Node36&#45;&gt;Node41 -->
<g id="edge40_Node000036_Node000041" class="edge">
<title>Node36&#45;&gt;Node41</title>
<g id="a_edge40_Node000036_Node000041"><a xlink:title=" ">
<path fill="none" stroke="#63b8ff" d="M2435.54,-228.44C2384.63,-215.19 2299.25,-192.95 2243.78,-178.5"/>
<polygon fill="#63b8ff" stroke="#63b8ff" points="2434.68,-231.84 2445.24,-230.97 2436.45,-225.06 2434.68,-231.84"/>
</a>
</g>
</g>
<!-- Node42 -->
<g id="Node000042" class="node">
<title>Node42</title>
<g id="a_Node000042"><a xlink:href="_stream_driver_8h.html" target="_top" xlink:title=" ">
<polygon fill="#fff0f0" stroke="red" points="2398,-178.5 2274,-178.5 2274,-148.5 2398,-148.5 2398,-178.5"/>
<text text-anchor="start" x="2282" y="-166.5" font-family="Helvetica,sans-Serif" font-size="10.00">Kit/Io/Serial/ST/M32F4</text>
<text text-anchor="middle" x="2336" y="-155.5" font-family="Helvetica,sans-Serif" font-size="10.00">/StreamDriver.h</text>
</a>
</g>
</g>
<!-- Node36&#45;&gt;Node42 -->
<g id="edge41_Node000036_Node000042" class="edge">
<title>Node36&#45;&gt;Node42</title>
<g id="a_edge41_Node000036_Node000042"><a xlink:title=" ">
<path fill="none" stroke="#63b8ff" d="M2452.72,-226.15C2427.39,-212.77 2388.55,-192.25 2362.72,-178.61"/>
<polygon fill="#63b8ff" stroke="#63b8ff" points="2451.23,-229.32 2461.71,-230.9 2454.5,-223.13 2451.23,-229.32"/>
</a>
</g>
</g>
<!-- Node39&#45;&gt;Node40 -->
<g id="edge39_Node000039_Node000040" class="edge">
<title>Node39&#45;&gt;Node40</title>
<g id="a_edge39_Node000039_Node000040"><a xlink:title=" ">
<path fill="none" stroke="#63b8ff" d="M2556.76,-148.79C2579.96,-135.41 2615.1,-115.13 2638.54,-101.61"/>
<polygon fill="#63b8ff" stroke="#63b8ff" points="2554.83,-145.87 2547.91,-153.9 2558.32,-151.93 2554.83,-145.87"/>
</a>
</g>
</g>
<!-- Node48&#45;&gt;Node41 -->
<g id="edge48_Node000048_Node000041" class="edge">
<title>Node48&#45;&gt;Node41</title>
<g id="a_edge48_Node000048_Node000041"><a xlink:title=" ">
<path fill="none" stroke="#63b8ff" d="M1921.57,-228.09C1931.13,-225.31 1941.42,-222.44 1951,-220 2023.31,-201.56 2042.43,-201.39 2115,-184 2122.06,-182.31 2129.49,-180.46 2136.8,-178.6"/>
<polygon fill="#63b8ff" stroke="#63b8ff" points="1920.53,-224.74 1911.92,-230.92 1922.5,-231.46 1920.53,-224.74"/>
</a>
</g>
</g>
<!-- Node48&#45;&gt;Node42 -->
<g id="edge49_Node000048_Node000042" class="edge">
<title>Node48&#45;&gt;Node42</title>
<g id="a_edge49_Node000048_Node000042"><a xlink:title=" ">
<path fill="none" stroke="#63b8ff" d="M1919.28,-228.02C1929.43,-225.05 1940.58,-222.1 1951,-220 2088.27,-192.34 2126.48,-210.38 2264,-184 2271.89,-182.49 2280.17,-180.56 2288.21,-178.52"/>
<polygon fill="#63b8ff" stroke="#63b8ff" points="1918.08,-224.73 1909.52,-230.97 1920.1,-231.43 1918.08,-224.73"/>
</a>
</g>
</g>
<!-- Node61 -->
<g id="Node000061" class="node">
<title>Node61</title>
<g id="a_Node000061"><a xlink:href="_h_pool_8h.html" target="_top" xlink:title=" ">
<polygon fill="white" stroke="#666666" points="2456,-316 2342,-316 2342,-297 2456,-297 2456,-316"/>
<text text-anchor="middle" x="2399" y="-304" font-family="Helvetica,sans-Serif" font-size="10.00">Kit/Memory/HPool.h</text>
</a>
</g>
</g>
<!-- Node60&#45;&gt;Node61 -->
<g id="edge53_Node000060_Node000061" class="edge">
<title>Node60&#45;&gt;Node61</title>
<g id="a_edge53_Node000060_Node000061"><a xlink:title=" ">
<path fill="none" stroke="#63b8ff" d="M2399,-341.66C2399,-332.93 2399,-322.99 2399,-316.09"/>
<polygon fill="#63b8ff" stroke="#63b8ff" points="2395.5,-341.75 2399,-351.75 2402.5,-341.75 2395.5,-341.75"/>
</a>
</g>
</g>
<!-- Node62 -->
<g id="Node000062" class="node">
<title>Node62</title>
<g id="a_Node000062"><a xlink:href="_s_pool_8h.html" target="_top" xlink:title=" ">
<polygon fill="white" stroke="#666666" points="2587.5,-316 2474.5,-316 2474.5,-297 2587.5,-297 2587.5,-316"/>
<text text-anchor="middle" x="2531" y="-304" font-family="Helvetica,sans-Serif" font-size="10.00">Kit/Memory/SPool.h</text>
</a>
</g>
</g>
<!-- Node60&#45;&gt;Node62 -->
<g id="edge54_Node000060_Node000062" class="edge">
<title>Node60&#45;&gt;Node62</title>
<g id="a_edge54_Node000060_Node000062"><a xlink:title=" ">
<path fill="none" stroke="#63b8ff" d="M2429.73,-348.16C2454.17,-338.35 2487.74,-324.87 2509.41,-316.17"/>
<polygon fill="#63b8ff" stroke="#63b8ff" points="2428.18,-345.01 2420.21,-351.98 2430.79,-351.51 2428.18,-345.01"/>
</a>
</g>
</g>
<!-- Node64 -->
<g id="Node000064" class="node">
<title>Node64</title>
<g id="a_Node000064"><a xlink:href="_event_loop_8h.html" target="_top" xlink:title=" ">
<polygon fill="white" stroke="#666666" points="638.5,-316 505.5,-316 505.5,-297 638.5,-297 638.5,-316"/>
<text text-anchor="middle" x="572" y="-304" font-family="Helvetica,sans-Serif" font-size="10.00">Kit/System/EventLoop.h</text>
</a>
</g>
</g>
<!-- Node63&#45;&gt;Node64 -->
<g id="edge56_Node000063_Node000064" class="edge">
<title>Node63&#45;&gt;Node64</title>
<g id="a_edge56_Node000063_Node000064"><a xlink:title=" ">
<path fill="none" stroke="#63b8ff" d="M753.5,-349.69C710.78,-339.76 648.3,-325.24 608.92,-316.08"/>
<polygon fill="#63b8ff" stroke="#63b8ff" points="752.84,-353.13 763.37,-351.98 754.42,-346.31 752.84,-353.13"/>
</a>
</g>
</g>
<!-- Node64&#45;&gt;Node4 -->
<g id="edge57_Node000064_Node000004" class="edge">
<title>Node64&#45;&gt;Node4</title>
<g id="a_edge57_Node000064_Node000004"><a xlink:title=" ">
<path fill="none" stroke="#63b8ff" d="M514.4,-295.15C444.58,-282.59 328.22,-261.67 263.36,-250.01"/>
<polygon fill="#63b8ff" stroke="#63b8ff" points="513.9,-298.61 524.36,-296.94 515.13,-291.72 513.9,-298.61"/>
</a>
</g>
</g>
<!-- Node65 -->
<g id="Node000065" class="node">
<title>Node65</title>
<g id="a_Node000065"><a xlink:href="_event_loop_with_p_scheduling_8h.html" target="_top" xlink:title=" ">
<polygon fill="white" stroke="#666666" points="645,-255.5 499,-255.5 499,-225.5 645,-225.5 645,-255.5"/>
<text text-anchor="start" x="507" y="-243.5" font-family="Helvetica,sans-Serif" font-size="10.00">Kit/System/EventLoopWith</text>
<text text-anchor="middle" x="572" y="-232.5" font-family="Helvetica,sans-Serif" font-size="10.00">PScheduling.h</text>
</a>
</g>
</g>
<!-- Node64&#45;&gt;Node65 -->
<g id="edge58_Node000064_Node000065" class="edge">
<title>Node64&#45;&gt;Node65</title>
<g id="a_edge58_Node000064_Node000065"><a xlink:title=" ">
<path fill="none" stroke="#63b8ff" d="M572,-286.85C572,-276.97 572,-265.01 572,-255.86"/>
<polygon fill="#63b8ff" stroke="#63b8ff" points="568.5,-286.87 572,-296.87 575.5,-286.87 568.5,-286.87"/>
</a>
</g>
</g>
</g>
</svg>
