<?xml version="1.0" encoding="UTF-8" standalone="no"?>
<!DOCTYPE svg PUBLIC "-//W3C//DTD SVG 1.1//EN"
 "http://www.w3.org/Graphics/SVG/1.1/DTD/svg11.dtd">
<!-- Generated by graphviz version 2.43.0 (0)
 -->
<!-- Title: Kit/Container/DList.h Pages: 1 -->
<svg width="3212pt" height="478pt"
 viewBox="0.00 0.00 3212.00 478.00" xmlns="http://www.w3.org/2000/svg" xmlns:xlink="http://www.w3.org/1999/xlink">
<g id="graph0" class="graph" transform="scale(1 1) rotate(0) translate(4 474)">
<title>Kit/Container/DList.h</title>
<!-- Node1 -->
<g id="Node000001" class="node">
<title>Node1</title>
<g id="a_Node000001"><a xlink:title=" ">
<polygon fill="#999999" stroke="#666666" points="576,-470 459,-470 459,-451 576,-451 576,-470"/>
<text text-anchor="middle" x="517.5" y="-458" font-family="Helvetica,sans-Serif" font-size="10.00">Kit/Container/DList.h</text>
</a>
</g>
</g>
<!-- Node2 -->
<g id="Node000002" class="node">
<title>Node2</title>
<g id="a_Node000002"><a xlink:href="_flasher_8h.html" target="_top" xlink:title=" ">
<polygon fill="white" stroke="#666666" points="266,-338 117,-338 117,-297 266,-297 266,-338"/>
<text text-anchor="start" x="125" y="-326" font-family="Helvetica,sans-Serif" font-size="10.00">/home/runner/work/kit.core</text>
<text text-anchor="start" x="125" y="-315" font-family="Helvetica,sans-Serif" font-size="10.00">/kit.core/projects/examples</text>
<text text-anchor="middle" x="191.5" y="-304" font-family="Helvetica,sans-Serif" font-size="10.00">/Container/Lists/Flasher.h</text>
</a>
</g>
</g>
<!-- Node1&#45;&gt;Node2 -->
<g id="edge1_Node000001_Node000002" class="edge">
<title>Node1&#45;&gt;Node2</title>
<g id="a_edge1_Node000001_Node000002"><a xlink:title=" ">
<path fill="none" stroke="#63b8ff" d="M448.54,-460.25C362.93,-459.54 224.16,-452.43 191.5,-415 173.21,-394.05 178.64,-359.69 184.72,-338.13"/>
<polygon fill="#63b8ff" stroke="#63b8ff" points="448.69,-463.75 458.71,-460.31 448.73,-456.75 448.69,-463.75"/>
</a>
</g>
</g>
<!-- Node3 -->
<g id="Node000003" class="node">
<title>Node3</title>
<g id="a_Node000003"><a xlink:href="_period_8h.html" target="_top" xlink:title=" ">
<polygon fill="white" stroke="#666666" points="350,-415 201,-415 201,-374 350,-374 350,-415"/>
<text text-anchor="start" x="209" y="-403" font-family="Helvetica,sans-Serif" font-size="10.00">/home/runner/work/kit.core</text>
<text text-anchor="start" x="209" y="-392" font-family="Helvetica,sans-Serif" font-size="10.00">/kit.core/projects/examples</text>
<text text-anchor="middle" x="275.5" y="-381" font-family="Helvetica,sans-Serif" font-size="10.00">/Container/Lists/Period.h</text>
</a>
</g>
</g>
<!-- Node1&#45;&gt;Node3 -->
<g id="edge2_Node000001_Node000003" class="edge">
<title>Node1&#45;&gt;Node3</title>
<g id="a_edge2_Node000001_Node000003"><a xlink:title=" ">
<path fill="none" stroke="#63b8ff" d="M475.32,-448.34C440.65,-439.18 390.71,-425.97 349.43,-415.05"/>
<polygon fill="#63b8ff" stroke="#63b8ff" points="474.55,-451.76 485.11,-450.94 476.34,-444.99 474.55,-451.76"/>
</a>
</g>
</g>
<!-- Node4 -->
<g id="Node000004" class="node">
<title>Node4</title>
<g id="a_Node000004"><a xlink:href="_change_handler_8h.html" target="_top" xlink:title=" ">
<polygon fill="white" stroke="#666666" points="505,-404 368,-404 368,-385 505,-385 505,-404"/>
<text text-anchor="middle" x="436.5" y="-392" font-family="Helvetica,sans-Serif" font-size="10.00">Kit/Dm/ChangeHandler.h</text>
</a>
</g>
</g>
<!-- Node1&#45;&gt;Node4 -->
<g id="edge4_Node000001_Node000004" class="edge">
<title>Node1&#45;&gt;Node4</title>
<g id="a_edge4_Node000001_Node000004"><a xlink:title=" ">
<path fill="none" stroke="#63b8ff" d="M498.5,-444.49C482.64,-431.96 460.59,-414.54 447.51,-404.2"/>
<polygon fill="#63b8ff" stroke="#63b8ff" points="496.56,-447.42 506.58,-450.87 500.9,-441.92 496.56,-447.42"/>
</a>
</g>
</g>
<!-- Node8 -->
<g id="Node000008" class="node">
<title>Node8</title>
<g id="a_Node000008"><a xlink:href="_model_point_base_8h.html" target="_top" xlink:title=" ">
<polygon fill="white" stroke="#666666" points="864,-404 723,-404 723,-385 864,-385 864,-404"/>
<text text-anchor="middle" x="793.5" y="-392" font-family="Helvetica,sans-Serif" font-size="10.00">Kit/Dm/ModelPointBase.h</text>
</a>
</g>
</g>
<!-- Node1&#45;&gt;Node8 -->
<g id="edge8_Node000001_Node000008" class="edge">
<title>Node1&#45;&gt;Node8</title>
<g id="a_edge8_Node000001_Node000008"><a xlink:title=" ">
<path fill="none" stroke="#63b8ff" d="M564.5,-448.6C618.87,-435.99 707.22,-415.51 756.78,-404.01"/>
<polygon fill="#63b8ff" stroke="#63b8ff" points="563.39,-445.27 554.44,-450.94 564.97,-452.09 563.39,-445.27"/>
</a>
</g>
</g>
<!-- Node65 -->
<g id="Node000065" class="node">
<title>Node65</title>
<g id="a_Node000065"><a xlink:href="_pool_8h.html" target="_top" xlink:title=" ">
<polygon fill="white" stroke="#666666" points="2659,-404 2552,-404 2552,-385 2659,-385 2659,-404"/>
<text text-anchor="middle" x="2605.5" y="-392" font-family="Helvetica,sans-Serif" font-size="10.00">Kit/Memory/Pool.h</text>
</a>
</g>
</g>
<!-- Node1&#45;&gt;Node65 -->
<g id="edge51_Node000001_Node000065" class="edge">
<title>Node1&#45;&gt;Node65</title>
<g id="a_edge51_Node000001_Node000065"><a xlink:title=" ">
<path fill="none" stroke="#63b8ff" d="M586.19,-457.39C908.13,-447.53 2263.97,-405.97 2551.69,-397.15"/>
<polygon fill="#63b8ff" stroke="#63b8ff" points="585.96,-453.9 576.07,-457.7 586.18,-460.9 585.96,-453.9"/>
</a>
</g>
</g>
<!-- Node68 -->
<g id="Node000068" class="node">
<title>Node68</title>
<g id="a_Node000068"><a xlink:href="_timer_manager_8h.html" target="_top" xlink:title=" ">
<polygon fill="white" stroke="#666666" points="675.5,-404 523.5,-404 523.5,-385 675.5,-385 675.5,-404"/>
<text text-anchor="middle" x="599.5" y="-392" font-family="Helvetica,sans-Serif" font-size="10.00">Kit/System/TimerManager.h</text>
</a>
</g>
</g>
<!-- Node1&#45;&gt;Node68 -->
<g id="edge54_Node000001_Node000068" class="edge">
<title>Node1&#45;&gt;Node68</title>
<g id="a_edge54_Node000001_Node000068"><a xlink:title=" ">
<path fill="none" stroke="#63b8ff" d="M536.73,-444.49C552.79,-431.96 575.11,-414.54 588.35,-404.2"/>
<polygon fill="#63b8ff" stroke="#63b8ff" points="534.29,-441.96 528.56,-450.87 538.6,-447.48 534.29,-441.96"/>
</a>
</g>
</g>
<!-- Node3&#45;&gt;Node2 -->
<g id="edge3_Node000003_Node000002" class="edge">
<title>Node3&#45;&gt;Node2</title>
<g id="a_edge3_Node000003_Node000002"><a xlink:title=" ">
<path fill="none" stroke="#63b8ff" d="M245.9,-367.07C235.21,-357.52 223.34,-346.93 213.42,-338.07"/>
<polygon fill="#63b8ff" stroke="#63b8ff" points="243.64,-369.75 253.43,-373.79 248.3,-364.52 243.64,-369.75"/>
</a>
</g>
</g>
<!-- Node5 -->
<g id="Node000005" class="node">
<title>Node5</title>
<g id="a_Node000005"><a xlink:href="src_2_kit_2_event_queue_2_server_8h.html" target="_top" xlink:title=" ">
<polygon fill="white" stroke="#666666" points="342,-250 207,-250 207,-231 342,-231 342,-250"/>
<text text-anchor="middle" x="274.5" y="-238" font-family="Helvetica,sans-Serif" font-size="10.00">Kit/EventQueue/Server.h</text>
</a>
</g>
</g>
<!-- Node4&#45;&gt;Node5 -->
<g id="edge5_Node000004_Node000005" class="edge">
<title>Node4&#45;&gt;Node5</title>
<g id="a_edge5_Node000004_Node000005"><a xlink:title=" ">
<path fill="none" stroke="#63b8ff" d="M419.63,-377.67C385.6,-345.74 309.73,-274.56 283.57,-250.01"/>
<polygon fill="#63b8ff" stroke="#63b8ff" points="417.64,-380.6 427.33,-384.89 422.43,-375.5 417.64,-380.6"/>
</a>
</g>
</g>
<!-- Node6 -->
<g id="Node000006" class="node">
<title>Node6</title>
<g id="a_Node000006"><a xlink:href="_with_periodic_scheduling_8h.html" target="_top" xlink:title=" ">
<polygon fill="white" stroke="#666666" points="185,-178.5 28,-178.5 28,-148.5 185,-148.5 185,-178.5"/>
<text text-anchor="start" x="36" y="-166.5" font-family="Helvetica,sans-Serif" font-size="10.00">Kit/EventQueue/WithPeriodic</text>
<text text-anchor="middle" x="106.5" y="-155.5" font-family="Helvetica,sans-Serif" font-size="10.00">Scheduling.h</text>
</a>
</g>
</g>
<!-- Node5&#45;&gt;Node6 -->
<g id="edge6_Node000005_Node000006" class="edge">
<title>Node5&#45;&gt;Node6</title>
<g id="a_edge6_Node000005_Node000006"><a xlink:title=" ">
<path fill="none" stroke="#63b8ff" d="M245.77,-226.67C215.84,-213.31 169.07,-192.43 138.11,-178.61"/>
<polygon fill="#63b8ff" stroke="#63b8ff" points="244.67,-230.02 255.23,-230.9 247.52,-223.62 244.67,-230.02"/>
</a>
</g>
</g>
<!-- Node7 -->
<g id="Node000007" class="node">
<title>Node7</title>
<g id="a_Node000007"><a xlink:href="helpers_8h.html" target="_top" xlink:title="This file defines helper functions/interface for writing unit tests.">
<polygon fill="white" stroke="#666666" points="315.5,-178.5 203.5,-178.5 203.5,-148.5 315.5,-148.5 315.5,-178.5"/>
<text text-anchor="start" x="211.5" y="-166.5" font-family="Helvetica,sans-Serif" font-size="10.00">Kit/_support/testing</text>
<text text-anchor="middle" x="259.5" y="-155.5" font-family="Helvetica,sans-Serif" font-size="10.00">/helpers.h</text>
</a>
</g>
</g>
<!-- Node5&#45;&gt;Node7 -->
<g id="edge7_Node000005_Node000007" class="edge">
<title>Node5&#45;&gt;Node7</title>
<g id="a_edge7_Node000005_Node000007"><a xlink:title=" ">
<path fill="none" stroke="#63b8ff" d="M270.74,-220.7C268.13,-207.64 264.7,-190.51 262.32,-178.61"/>
<polygon fill="#63b8ff" stroke="#63b8ff" points="267.39,-221.78 272.78,-230.9 274.25,-220.4 267.39,-221.78"/>
</a>
</g>
</g>
<!-- Node9 -->
<g id="Node000009" class="node">
<title>Node9</title>
<g id="a_Node000009"><a xlink:href="_array_base_8h.html" target="_top" xlink:title=" ">
<polygon fill="white" stroke="#666666" points="709,-327 578,-327 578,-308 709,-308 709,-327"/>
<text text-anchor="middle" x="643.5" y="-315" font-family="Helvetica,sans-Serif" font-size="10.00">Kit/Dm/Mp/ArrayBase.h</text>
</a>
</g>
</g>
<!-- Node8&#45;&gt;Node9 -->
<g id="edge9_Node000008_Node000009" class="edge">
<title>Node8&#45;&gt;Node9</title>
<g id="a_edge9_Node000008_Node000009"><a xlink:title=" ">
<path fill="none" stroke="#63b8ff" d="M767.04,-380.27C736.3,-364.9 686.49,-340 660.51,-327"/>
<polygon fill="#63b8ff" stroke="#63b8ff" points="765.78,-383.55 776.29,-384.9 768.91,-377.29 765.78,-383.55"/>
</a>
</g>
</g>
<!-- Node11 -->
<g id="Node000011" class="node">
<title>Node11</title>
<g id="a_Node000011"><a xlink:href="_enum_base_8h.html" target="_top" xlink:title=" ">
<polygon fill="white" stroke="#666666" points="859.5,-327 727.5,-327 727.5,-308 859.5,-308 859.5,-327"/>
<text text-anchor="middle" x="793.5" y="-315" font-family="Helvetica,sans-Serif" font-size="10.00">Kit/Dm/Mp/EnumBase.h</text>
</a>
</g>
</g>
<!-- Node8&#45;&gt;Node11 -->
<g id="edge11_Node000008_Node000011" class="edge">
<title>Node8&#45;&gt;Node11</title>
<g id="a_edge11_Node000008_Node000011"><a xlink:title=" ">
<path fill="none" stroke="#63b8ff" d="M793.5,-374.52C793.5,-359.24 793.5,-338.48 793.5,-327"/>
<polygon fill="#63b8ff" stroke="#63b8ff" points="790,-374.9 793.5,-384.9 797,-374.9 790,-374.9"/>
</a>
</g>
</g>
<!-- Node12 -->
<g id="Node000012" class="node">
<title>Node12</title>
<g id="a_Node000012"><a xlink:href="_scalar_8h.html" target="_top" xlink:title=" ">
<polygon fill="white" stroke="#666666" points="987.5,-327 877.5,-327 877.5,-308 987.5,-308 987.5,-327"/>
<text text-anchor="middle" x="932.5" y="-315" font-family="Helvetica,sans-Serif" font-size="10.00">Kit/Dm/Mp/Scalar.h</text>
</a>
</g>
</g>
<!-- Node8&#45;&gt;Node12 -->
<g id="edge12_Node000008_Node000012" class="edge">
<title>Node8&#45;&gt;Node12</title>
<g id="a_edge12_Node000008_Node000012"><a xlink:title=" ">
<path fill="none" stroke="#63b8ff" d="M818.39,-380.07C846.91,-364.68 892.76,-339.94 916.74,-327"/>
<polygon fill="#63b8ff" stroke="#63b8ff" points="816.58,-377.07 809.45,-384.9 819.91,-383.23 816.58,-377.07"/>
</a>
</g>
</g>
<!-- Node39 -->
<g id="Node000039" class="node">
<title>Node39</title>
<g id="a_Node000039"><a xlink:href="_string_8h.html" target="_top" xlink:title=" ">
<polygon fill="white" stroke="#666666" points="2530,-327 2421,-327 2421,-308 2530,-308 2530,-327"/>
<text text-anchor="middle" x="2475.5" y="-315" font-family="Helvetica,sans-Serif" font-size="10.00">Kit/Dm/Mp/String.h</text>
</a>
</g>
</g>
<!-- Node8&#45;&gt;Node39 -->
<g id="edge35_Node000008_Node000039" class="edge">
<title>Node8&#45;&gt;Node39</title>
<g id="a_edge35_Node000008_Node000039"><a xlink:title=" ">
<path fill="none" stroke="#63b8ff" d="M874.31,-389.9C1167.93,-376.8 2174.03,-331.94 2420.61,-320.95"/>
<polygon fill="#63b8ff" stroke="#63b8ff" points="874,-386.41 864.16,-390.35 874.31,-393.4 874,-386.41"/>
</a>
</g>
</g>
<!-- Node10 -->
<g id="Node000010" class="node">
<title>Node10</title>
<g id="a_Node000010"><a xlink:href="_numeric_array_8h.html" target="_top" xlink:title=" ">
<polygon fill="white" stroke="#666666" points="716.5,-250 570.5,-250 570.5,-231 716.5,-231 716.5,-250"/>
<text text-anchor="middle" x="643.5" y="-238" font-family="Helvetica,sans-Serif" font-size="10.00">Kit/Dm/Mp/NumericArray.h</text>
</a>
</g>
</g>
<!-- Node9&#45;&gt;Node10 -->
<g id="edge10_Node000009_Node000010" class="edge">
<title>Node9&#45;&gt;Node10</title>
<g id="a_edge10_Node000009_Node000010"><a xlink:title=" ">
<path fill="none" stroke="#63b8ff" d="M643.5,-297.52C643.5,-282.24 643.5,-261.48 643.5,-250"/>
<polygon fill="#63b8ff" stroke="#63b8ff" points="640,-297.9 643.5,-307.9 647,-297.9 640,-297.9"/>
</a>
</g>
</g>
<!-- Node13 -->
<g id="Node000013" class="node">
<title>Node13</title>
<g id="a_Node000013"><a xlink:href="_mp_foo_8h.html" target="_top" xlink:title=" ">
<polygon fill="white" stroke="#666666" points="483,-184 334,-184 334,-143 483,-143 483,-184"/>
<text text-anchor="start" x="342" y="-172" font-family="Helvetica,sans-Serif" font-size="10.00">/home/runner/work/kit.core</text>
<text text-anchor="start" x="342" y="-161" font-family="Helvetica,sans-Serif" font-size="10.00">/kit.core/projects/examples</text>
<text text-anchor="middle" x="408.5" y="-150" font-family="Helvetica,sans-Serif" font-size="10.00">/Dm/Transaction/MpFoo.h</text>
</a>
</g>
</g>
<!-- Node12&#45;&gt;Node13 -->
<g id="edge13_Node000012_Node000013" class="edge">
<title>Node12&#45;&gt;Node13</title>
<g id="a_edge13_Node000012_Node000013"><a xlink:title=" ">
<path fill="none" stroke="#63b8ff" d="M908.91,-302.78C871.37,-281.58 795.16,-241.13 725.5,-220 624.8,-189.46 594.8,-204.05 491.5,-184 488.74,-183.46 485.93,-182.9 483.1,-182.32"/>
<polygon fill="#63b8ff" stroke="#63b8ff" points="907.59,-306.06 918.01,-307.97 911.06,-299.98 907.59,-306.06"/>
</a>
</g>
</g>
<!-- Node18 -->
<g id="Node000018" class="node">
<title>Node18</title>
<g id="a_Node000018"><a xlink:href="_primitive_type_8h.html" target="_top" xlink:title=" ">
<polygon fill="white" stroke="#666666" points="1355,-250 1208,-250 1208,-231 1355,-231 1355,-250"/>
<text text-anchor="middle" x="1281.5" y="-238" font-family="Helvetica,sans-Serif" font-size="10.00">Kit/Dm/Mp/PrimitiveType.h</text>
</a>
</g>
</g>
<!-- Node12&#45;&gt;Node18 -->
<g id="edge18_Node000012_Node000018" class="edge">
<title>Node12&#45;&gt;Node18</title>
<g id="a_edge18_Node000012_Node000018"><a xlink:title=" ">
<path fill="none" stroke="#63b8ff" d="M982.08,-305.85C1051.91,-290.84 1177.84,-263.78 1241.84,-250.02"/>
<polygon fill="#63b8ff" stroke="#63b8ff" points="981.24,-302.45 972.19,-307.97 982.71,-309.29 981.24,-302.45"/>
</a>
</g>
</g>
<!-- Node14 -->
<g id="Node000014" class="node">
<title>Node14</title>
<g id="a_Node000014"><a xlink:href="_dm_2_transaction_2_client_8h.html" target="_top" xlink:title=" ">
<polygon fill="white" stroke="#666666" points="149,-107 0,-107 0,-66 149,-66 149,-107"/>
<text text-anchor="start" x="8" y="-95" font-family="Helvetica,sans-Serif" font-size="10.00">/home/runner/work/kit.core</text>
<text text-anchor="start" x="8" y="-84" font-family="Helvetica,sans-Serif" font-size="10.00">/kit.core/projects/examples</text>
<text text-anchor="middle" x="74.5" y="-73" font-family="Helvetica,sans-Serif" font-size="10.00">/Dm/Transaction/Client.h</text>
</a>
</g>
</g>
<!-- Node13&#45;&gt;Node14 -->
<g id="edge14_Node000013_Node000014" class="edge">
<title>Node13&#45;&gt;Node14</title>
<g id="a_edge14_Node000013_Node000014"><a xlink:title=" ">
<path fill="none" stroke="#63b8ff" d="M323.91,-142.89C248.77,-126.17 228.53,-123 157.5,-107 154.76,-106.38 151.96,-105.75 149.14,-105.1"/>
<polygon fill="#63b8ff" stroke="#63b8ff" points="323.34,-146.35 333.86,-145.11 324.86,-139.51 323.34,-146.35"/>
</a>
</g>
</g>
<!-- Node15 -->
<g id="Node000015" class="node">
<title>Node15</title>
<g id="a_Node000015"><a xlink:href="_dm_2_transaction_2_model_points_8h.html" target="_top" xlink:title="This file defines all of the Model Points for Example application.">
<polygon fill="white" stroke="#666666" points="668,-107 501,-107 501,-66 668,-66 668,-107"/>
<text text-anchor="start" x="509" y="-95" font-family="Helvetica,sans-Serif" font-size="10.00">/home/runner/work/kit.core</text>
<text text-anchor="start" x="509" y="-84" font-family="Helvetica,sans-Serif" font-size="10.00">/kit.core/projects/examples</text>
<text text-anchor="middle" x="584.5" y="-73" font-family="Helvetica,sans-Serif" font-size="10.00">/Dm/Transaction/ModelPoints.h</text>
</a>
</g>
</g>
<!-- Node13&#45;&gt;Node15 -->
<g id="edge15_Node000013_Node000015" class="edge">
<title>Node13&#45;&gt;Node15</title>
<g id="a_edge15_Node000013_Node000015"><a xlink:title=" ">
<path fill="none" stroke="#63b8ff" d="M463.66,-139C487.76,-128.72 515.7,-116.82 538.64,-107.04"/>
<polygon fill="#63b8ff" stroke="#63b8ff" points="462.11,-135.85 454.28,-142.99 464.85,-142.29 462.11,-135.85"/>
</a>
</g>
</g>
<!-- Node16 -->
<g id="Node000016" class="node">
<title>Node16</title>
<g id="a_Node000016"><a xlink:href="projects_2examples_2_dm_2_transaction_2_server_8h.html" target="_top" xlink:title=" ">
<polygon fill="white" stroke="#666666" points="316,-107 167,-107 167,-66 316,-66 316,-107"/>
<text text-anchor="start" x="175" y="-95" font-family="Helvetica,sans-Serif" font-size="10.00">/home/runner/work/kit.core</text>
<text text-anchor="start" x="175" y="-84" font-family="Helvetica,sans-Serif" font-size="10.00">/kit.core/projects/examples</text>
<text text-anchor="middle" x="241.5" y="-73" font-family="Helvetica,sans-Serif" font-size="10.00">/Dm/Transaction/Server.h</text>
</a>
</g>
</g>
<!-- Node13&#45;&gt;Node16 -->
<g id="edge16_Node000013_Node000016" class="edge">
<title>Node13&#45;&gt;Node16</title>
<g id="a_edge16_Node000013_Node000016"><a xlink:title=" ">
<path fill="none" stroke="#63b8ff" d="M355.86,-138.86C333.06,-128.62 306.68,-116.77 285.01,-107.04"/>
<polygon fill="#63b8ff" stroke="#63b8ff" points="354.5,-142.09 365.06,-142.99 357.37,-135.7 354.5,-142.09"/>
</a>
</g>
</g>
<!-- Node17 -->
<g id="Node000017" class="node">
<title>Node17</title>
<g id="a_Node000017"><a xlink:href="_itc_2_synchronous_2_client_8h.html" target="_top" xlink:title=" ">
<polygon fill="white" stroke="#666666" points="483,-107 334,-107 334,-66 483,-66 483,-107"/>
<text text-anchor="start" x="342" y="-95" font-family="Helvetica,sans-Serif" font-size="10.00">/home/runner/work/kit.core</text>
<text text-anchor="start" x="342" y="-84" font-family="Helvetica,sans-Serif" font-size="10.00">/kit.core/projects/examples</text>
<text text-anchor="middle" x="408.5" y="-73" font-family="Helvetica,sans-Serif" font-size="10.00">/Itc/Synchronous/Client.h</text>
</a>
</g>
</g>
<!-- Node13&#45;&gt;Node17 -->
<g id="edge17_Node000013_Node000017" class="edge">
<title>Node13&#45;&gt;Node17</title>
<g id="a_edge17_Node000013_Node000017"><a xlink:title=" ">
<path fill="none" stroke="#63b8ff" d="M408.5,-132.69C408.5,-124.08 408.5,-114.9 408.5,-107.07"/>
<polygon fill="#63b8ff" stroke="#63b8ff" points="405,-132.79 408.5,-142.79 412,-132.79 405,-132.79"/>
</a>
</g>
</g>
<!-- Node19 -->
<g id="Node000019" class="node">
<title>Node19</title>
<g id="a_Node000019"><a xlink:href="_bool_8h.html" target="_top" xlink:title=" ">
<polygon fill="white" stroke="#666666" points="602.5,-173 500.5,-173 500.5,-154 602.5,-154 602.5,-173"/>
<text text-anchor="middle" x="551.5" y="-161" font-family="Helvetica,sans-Serif" font-size="10.00">Kit/Dm/Mp/Bool.h</text>
</a>
</g>
</g>
<!-- Node18&#45;&gt;Node19 -->
<g id="edge19_Node000018_Node000019" class="edge">
<title>Node18&#45;&gt;Node19</title>
<g id="a_edge19_Node000018_Node000019"><a xlink:title=" ">
<path fill="none" stroke="#63b8ff" d="M1216.37,-229.53C1192.55,-226.14 1165.34,-222.56 1140.5,-220 906.09,-195.84 842.87,-228.76 611.5,-184 598.6,-181.5 584.61,-177.06 573.38,-173.05"/>
<polygon fill="#63b8ff" stroke="#63b8ff" points="1215.96,-233.01 1226.36,-230.97 1216.96,-226.08 1215.96,-233.01"/>
</a>
</g>
</g>
<!-- Node20 -->
<g id="Node000020" class="node">
<title>Node20</title>
<g id="a_Node000020"><a xlink:href="_double_8h.html" target="_top" xlink:title=" ">
<polygon fill="white" stroke="#666666" points="736,-173 621,-173 621,-154 736,-154 736,-173"/>
<text text-anchor="middle" x="678.5" y="-161" font-family="Helvetica,sans-Serif" font-size="10.00">Kit/Dm/Mp/Double.h</text>
</a>
</g>
</g>
<!-- Node18&#45;&gt;Node20 -->
<g id="edge21_Node000018_Node000020" class="edge">
<title>Node18&#45;&gt;Node20</title>
<g id="a_edge21_Node000018_Node000020"><a xlink:title=" ">
<path fill="none" stroke="#63b8ff" d="M1214.16,-229.53C1190.86,-226.26 1164.56,-222.76 1140.5,-220 964.92,-199.89 918.08,-217.2 744.5,-184 730.65,-181.35 715.55,-177 703.29,-173.08"/>
<polygon fill="#63b8ff" stroke="#63b8ff" points="1213.9,-233.03 1224.29,-230.97 1214.88,-226.1 1213.9,-233.03"/>
</a>
</g>
</g>
<!-- Node21 -->
<g id="Node000021" class="node">
<title>Node21</title>
<g id="a_Node000021"><a xlink:href="_float_8h.html" target="_top" xlink:title=" ">
<polygon fill="white" stroke="#666666" points="859,-173 754,-173 754,-154 859,-154 859,-173"/>
<text text-anchor="middle" x="806.5" y="-161" font-family="Helvetica,sans-Serif" font-size="10.00">Kit/Dm/Mp/Float.h</text>
</a>
</g>
</g>
<!-- Node18&#45;&gt;Node21 -->
<g id="edge22_Node000018_Node000021" class="edge">
<title>Node18&#45;&gt;Node21</title>
<g id="a_edge22_Node000018_Node000021"><a xlink:title=" ">
<path fill="none" stroke="#63b8ff" d="M1210.35,-229.57C1188,-226.48 1163.22,-223.07 1140.5,-220 1019.22,-203.62 986.93,-210.74 867.5,-184 854.91,-181.18 841.21,-176.91 829.98,-173.09"/>
<polygon fill="#63b8ff" stroke="#63b8ff" points="1210.05,-233.06 1220.44,-230.97 1211.01,-226.13 1210.05,-233.06"/>
</a>
</g>
</g>
<!-- Node22 -->
<g id="Node000022" class="node">
<title>Node22</title>
<g id="a_Node000022"><a xlink:href="_int16_8h.html" target="_top" xlink:title=" ">
<polygon fill="white" stroke="#666666" points="982,-173 877,-173 877,-154 982,-154 982,-173"/>
<text text-anchor="middle" x="929.5" y="-161" font-family="Helvetica,sans-Serif" font-size="10.00">Kit/Dm/Mp/Int16.h</text>
</a>
</g>
</g>
<!-- Node18&#45;&gt;Node22 -->
<g id="edge23_Node000018_Node000022" class="edge">
<title>Node18&#45;&gt;Node22</title>
<g id="a_edge23_Node000018_Node000022"><a xlink:title=" ">
<path fill="none" stroke="#63b8ff" d="M1216.11,-229.35C1156.8,-219.6 1067.19,-203.49 990.5,-184 978.32,-180.9 965.01,-176.74 953.94,-173.06"/>
<polygon fill="#63b8ff" stroke="#63b8ff" points="1215.65,-232.83 1226.09,-230.98 1216.78,-225.92 1215.65,-232.83"/>
</a>
</g>
</g>
<!-- Node23 -->
<g id="Node000023" class="node">
<title>Node23</title>
<g id="a_Node000023"><a xlink:href="_int32_8h.html" target="_top" xlink:title=" ">
<polygon fill="white" stroke="#666666" points="1105,-173 1000,-173 1000,-154 1105,-154 1105,-173"/>
<text text-anchor="middle" x="1052.5" y="-161" font-family="Helvetica,sans-Serif" font-size="10.00">Kit/Dm/Mp/Int32.h</text>
</a>
</g>
</g>
<!-- Node18&#45;&gt;Node23 -->
<g id="edge24_Node000018_Node000023" class="edge">
<title>Node18&#45;&gt;Node23</title>
<g id="a_edge24_Node000018_Node000023"><a xlink:title=" ">
<path fill="none" stroke="#63b8ff" d="M1245.58,-227.73C1199.15,-212.53 1119.42,-186.42 1078.46,-173"/>
<polygon fill="#63b8ff" stroke="#63b8ff" points="1244.64,-231.11 1255.23,-230.9 1246.82,-224.46 1244.64,-231.11"/>
</a>
</g>
</g>
<!-- Node24 -->
<g id="Node000024" class="node">
<title>Node24</title>
<g id="a_Node000024"><a xlink:href="_int64_8h.html" target="_top" xlink:title=" ">
<polygon fill="white" stroke="#666666" points="1228,-173 1123,-173 1123,-154 1228,-154 1228,-173"/>
<text text-anchor="middle" x="1175.5" y="-161" font-family="Helvetica,sans-Serif" font-size="10.00">Kit/Dm/Mp/Int64.h</text>
</a>
</g>
</g>
<!-- Node18&#45;&gt;Node24 -->
<g id="edge25_Node000018_Node000024" class="edge">
<title>Node18&#45;&gt;Node24</title>
<g id="a_edge25_Node000018_Node000024"><a xlink:title=" ">
<path fill="none" stroke="#63b8ff" d="M1261.08,-225.05C1239.26,-209.61 1205.4,-185.66 1187.52,-173"/>
<polygon fill="#63b8ff" stroke="#63b8ff" points="1259.16,-227.98 1269.34,-230.9 1263.2,-222.26 1259.16,-227.98"/>
</a>
</g>
</g>
<!-- Node25 -->
<g id="Node000025" class="node">
<title>Node25</title>
<g id="a_Node000025"><a xlink:href="_int8_8h.html" target="_top" xlink:title=" ">
<polygon fill="white" stroke="#666666" points="1345,-173 1246,-173 1246,-154 1345,-154 1345,-173"/>
<text text-anchor="middle" x="1295.5" y="-161" font-family="Helvetica,sans-Serif" font-size="10.00">Kit/Dm/Mp/Int8.h</text>
</a>
</g>
</g>
<!-- Node18&#45;&gt;Node25 -->
<g id="edge26_Node000018_Node000025" class="edge">
<title>Node18&#45;&gt;Node25</title>
<g id="a_edge26_Node000018_Node000025"><a xlink:title=" ">
<path fill="none" stroke="#63b8ff" d="M1284.96,-220.97C1287.82,-205.65 1291.75,-184.59 1293.91,-173"/>
<polygon fill="#63b8ff" stroke="#63b8ff" points="1281.5,-220.42 1283.11,-230.9 1288.38,-221.71 1281.5,-220.42"/>
</a>
</g>
</g>
<!-- Node26 -->
<g id="Node000026" class="node">
<title>Node26</title>
<g id="a_Node000026"><a xlink:href="_ref_counter_8h.html" target="_top" xlink:title=" ">
<polygon fill="white" stroke="#666666" points="1497.5,-173 1363.5,-173 1363.5,-154 1497.5,-154 1497.5,-173"/>
<text text-anchor="middle" x="1430.5" y="-161" font-family="Helvetica,sans-Serif" font-size="10.00">Kit/Dm/Mp/RefCounter.h</text>
</a>
</g>
</g>
<!-- Node18&#45;&gt;Node26 -->
<g id="edge27_Node000018_Node000026" class="edge">
<title>Node18&#45;&gt;Node26</title>
<g id="a_edge27_Node000018_Node000026"><a xlink:title=" ">
<path fill="none" stroke="#63b8ff" d="M1307.79,-226.27C1338.32,-210.9 1387.79,-186 1413.61,-173"/>
<polygon fill="#63b8ff" stroke="#63b8ff" points="1305.95,-223.27 1298.59,-230.9 1309.1,-229.53 1305.95,-223.27"/>
</a>
</g>
</g>
<!-- Node27 -->
<g id="Node000027" class="node">
<title>Node27</title>
<g id="a_Node000027"><a xlink:href="_uint16_8h.html" target="_top" xlink:title=" ">
<polygon fill="#fff0f0" stroke="red" points="1629,-173 1516,-173 1516,-154 1629,-154 1629,-173"/>
<text text-anchor="middle" x="1572.5" y="-161" font-family="Helvetica,sans-Serif" font-size="10.00">Kit/Dm/Mp/Uint16.h</text>
</a>
</g>
</g>
<!-- Node18&#45;&gt;Node27 -->
<g id="edge28_Node000018_Node000027" class="edge">
<title>Node18&#45;&gt;Node27</title>
<g id="a_edge28_Node000018_Node000027"><a xlink:title=" ">
<path fill="none" stroke="#63b8ff" d="M1328.16,-228.64C1373.77,-217.88 1445.12,-200.63 1506.5,-184 1519.07,-180.59 1532.9,-176.55 1544.64,-173.04"/>
<polygon fill="#63b8ff" stroke="#63b8ff" points="1327.2,-225.27 1318.27,-230.97 1328.8,-232.09 1327.2,-225.27"/>
</a>
</g>
</g>
<!-- Node29 -->
<g id="Node000029" class="node">
<title>Node29</title>
<g id="a_Node000029"><a xlink:href="_uint32_8h.html" target="_top" xlink:title=" ">
<polygon fill="#fff0f0" stroke="red" points="1760,-173 1647,-173 1647,-154 1760,-154 1760,-173"/>
<text text-anchor="middle" x="1703.5" y="-161" font-family="Helvetica,sans-Serif" font-size="10.00">Kit/Dm/Mp/Uint32.h</text>
</a>
</g>
</g>
<!-- Node18&#45;&gt;Node29 -->
<g id="edge29_Node000018_Node000029" class="edge">
<title>Node18&#45;&gt;Node29</title>
<g id="a_edge29_Node000018_Node000029"><a xlink:title=" ">
<path fill="none" stroke="#63b8ff" d="M1364.64,-229.71C1437.16,-220.42 1544.97,-204.79 1637.5,-184 1650.79,-181.01 1665.33,-176.82 1677.37,-173.09"/>
<polygon fill="#63b8ff" stroke="#63b8ff" points="1364.13,-226.25 1354.65,-230.98 1365.01,-233.19 1364.13,-226.25"/>
</a>
</g>
</g>
<!-- Node36 -->
<g id="Node000036" class="node">
<title>Node36</title>
<g id="a_Node000036"><a xlink:href="_uint64_8h.html" target="_top" xlink:title=" ">
<polygon fill="white" stroke="#666666" points="1891,-173 1778,-173 1778,-154 1891,-154 1891,-173"/>
<text text-anchor="middle" x="1834.5" y="-161" font-family="Helvetica,sans-Serif" font-size="10.00">Kit/Dm/Mp/Uint64.h</text>
</a>
</g>
</g>
<!-- Node18&#45;&gt;Node36 -->
<g id="edge32_Node000018_Node000036" class="edge">
<title>Node18&#45;&gt;Node36</title>
<g id="a_edge32_Node000018_Node000036"><a xlink:title=" ">
<path fill="none" stroke="#63b8ff" d="M1365.24,-234.4C1462.82,-227.43 1628.56,-212.42 1768.5,-184 1782.2,-181.22 1797.16,-176.91 1809.37,-173.04"/>
<polygon fill="#63b8ff" stroke="#63b8ff" points="1364.87,-230.92 1355.14,-235.11 1365.36,-237.9 1364.87,-230.92"/>
</a>
</g>
</g>
<!-- Node37 -->
<g id="Node000037" class="node">
<title>Node37</title>
<g id="a_Node000037"><a xlink:href="_uint8_8h.html" target="_top" xlink:title=" ">
<polygon fill="#fff0f0" stroke="red" points="2016,-173 1909,-173 1909,-154 2016,-154 2016,-173"/>
<text text-anchor="middle" x="1962.5" y="-161" font-family="Helvetica,sans-Serif" font-size="10.00">Kit/Dm/Mp/Uint8.h</text>
</a>
</g>
</g>
<!-- Node18&#45;&gt;Node37 -->
<g id="edge33_Node000018_Node000037" class="edge">
<title>Node18&#45;&gt;Node37</title>
<g id="a_edge33_Node000018_Node000037"><a xlink:title=" ">
<path fill="none" stroke="#63b8ff" d="M1365.65,-237.54C1485.32,-233.5 1711.06,-221.19 1899.5,-184 1912.87,-181.36 1927.42,-176.96 1939.17,-173.01"/>
<polygon fill="#63b8ff" stroke="#63b8ff" points="1365.34,-234.05 1355.46,-237.88 1365.57,-241.05 1365.34,-234.05"/>
</a>
</g>
</g>
<!-- Node38 -->
<g id="Node000038" class="node">
<title>Node38</title>
<g id="a_Node000038"><a xlink:href="_void_8h.html" target="_top" xlink:title=" ">
<polygon fill="white" stroke="#666666" points="2135,-173 2034,-173 2034,-154 2135,-154 2135,-173"/>
<text text-anchor="middle" x="2084.5" y="-161" font-family="Helvetica,sans-Serif" font-size="10.00">Kit/Dm/Mp/Void.h</text>
</a>
</g>
</g>
<!-- Node18&#45;&gt;Node38 -->
<g id="edge34_Node000018_Node000038" class="edge">
<title>Node18&#45;&gt;Node38</title>
<g id="a_edge34_Node000018_Node000038"><a xlink:title=" ">
<path fill="none" stroke="#63b8ff" d="M1365.16,-239.74C1503.64,-238.7 1788.63,-230.44 2024.5,-184 2037.4,-181.46 2051.39,-177.02 2062.61,-173.01"/>
<polygon fill="#63b8ff" stroke="#63b8ff" points="1365.02,-236.24 1355.05,-239.81 1365.07,-243.24 1365.02,-236.24"/>
</a>
</g>
</g>
<!-- Node19&#45;&gt;Node15 -->
<g id="edge20_Node000019_Node000015" class="edge">
<title>Node19&#45;&gt;Node15</title>
<g id="a_edge20_Node000019_Node000015"><a xlink:title=" ">
<path fill="none" stroke="#63b8ff" d="M559.35,-144.66C564.31,-133.39 570.72,-118.82 575.83,-107.21"/>
<polygon fill="#63b8ff" stroke="#63b8ff" points="556.11,-143.33 555.29,-153.9 562.52,-146.15 556.11,-143.33"/>
</a>
</g>
</g>
<!-- Node31 -->
<g id="Node000031" class="node">
<title>Node31</title>
<g id="a_Node000031"><a xlink:href="_ring_buffer_m_p_8h.html" target="_top" xlink:title=" ">
<polygon fill="#fff0f0" stroke="red" points="2173,-96 2016,-96 2016,-77 2173,-77 2173,-96"/>
<text text-anchor="middle" x="2094.5" y="-84" font-family="Helvetica,sans-Serif" font-size="10.00">Kit/Container/RingBufferMP.h</text>
</a>
</g>
</g>
<!-- Node29&#45;&gt;Node31 -->
<g id="edge30_Node000029_Node000031" class="edge">
<title>Node29&#45;&gt;Node31</title>
<g id="a_edge30_Node000029_Node000031"><a xlink:title=" ">
<path fill="none" stroke="#63b8ff" d="M1738.84,-151.04C1748.4,-148.17 1758.79,-145.27 1768.5,-143 1858.64,-121.89 1964.56,-105.35 2030.63,-96.01"/>
<polygon fill="#63b8ff" stroke="#63b8ff" points="1737.77,-147.71 1729.24,-153.98 1739.83,-154.4 1737.77,-147.71"/>
</a>
</g>
</g>
<!-- Node34 -->
<g id="Node000034" class="node">
<title>Node34</title>
<g id="a_Node000034"><a xlink:href="_ring_buffer_m_p_allocate_8h.html" target="_top" xlink:title=" ">
<polygon fill="white" stroke="#666666" points="2214.5,-30 2080.5,-30 2080.5,0 2214.5,0 2214.5,-30"/>
<text text-anchor="start" x="2088.5" y="-18" font-family="Helvetica,sans-Serif" font-size="10.00">Kit/Container/RingBuffer</text>
<text text-anchor="middle" x="2147.5" y="-7" font-family="Helvetica,sans-Serif" font-size="10.00">MPAllocate.h</text>
</a>
</g>
</g>
<!-- Node31&#45;&gt;Node34 -->
<g id="edge31_Node000031_Node000034" class="edge">
<title>Node31&#45;&gt;Node34</title>
<g id="a_edge31_Node000031_Node000034"><a xlink:title=" ">
<path fill="none" stroke="#63b8ff" d="M2107.21,-68.84C2116.22,-57.02 2128.17,-41.34 2136.72,-30.14"/>
<polygon fill="#63b8ff" stroke="#63b8ff" points="2104.28,-66.9 2101,-76.98 2109.85,-71.15 2104.28,-66.9"/>
</a>
</g>
</g>
<!-- Node39&#45;&gt;Node34 -->
<g id="edge44_Node000039_Node000034" class="edge">
<title>Node39&#45;&gt;Node34</title>
<g id="a_edge44_Node000039_Node000034"><a xlink:title=" ">
<path fill="none" stroke="#63b8ff" d="M2410.72,-308.22C2350.83,-299.31 2267.55,-283.36 2243.5,-261 2176.89,-199.08 2221.26,-147.79 2181.5,-66 2175.26,-53.16 2166.05,-39.85 2158.79,-30.2"/>
<polygon fill="#63b8ff" stroke="#63b8ff" points="2410.47,-311.72 2420.87,-309.69 2411.48,-304.79 2410.47,-311.72"/>
</a>
</g>
</g>
<!-- Node40 -->
<g id="Node000040" class="node">
<title>Node40</title>
<g id="a_Node000040"><a xlink:href="_foo_t_8h.html" target="_top" xlink:title=" ">
<polygon fill="white" stroke="#666666" points="1132,-261 983,-261 983,-220 1132,-220 1132,-261"/>
<text text-anchor="start" x="991" y="-249" font-family="Helvetica,sans-Serif" font-size="10.00">/home/runner/work/kit.core</text>
<text text-anchor="start" x="991" y="-238" font-family="Helvetica,sans-Serif" font-size="10.00">/kit.core/projects/examples</text>
<text text-anchor="middle" x="1057.5" y="-227" font-family="Helvetica,sans-Serif" font-size="10.00">/Dm/Transaction/FooT.h</text>
</a>
</g>
</g>
<!-- Node39&#45;&gt;Node40 -->
<g id="edge36_Node000039_Node000040" class="edge">
<title>Node39&#45;&gt;Node40</title>
<g id="a_edge36_Node000039_Node000040"><a xlink:title=" ">
<path fill="none" stroke="#63b8ff" d="M2410.67,-315.83C2222.79,-313.44 1661.86,-303.02 1198.5,-261 1176.97,-259.05 1153.68,-256.15 1132.35,-253.19"/>
<polygon fill="#63b8ff" stroke="#63b8ff" points="2410.88,-319.34 2420.92,-315.96 2410.97,-312.34 2410.88,-319.34"/>
</a>
</g>
</g>
<!-- Node41 -->
<g id="Node000041" class="node">
<title>Node41</title>
<g id="a_Node000041"><a xlink:href="_ring_buffer_8h.html" target="_top" xlink:title=" ">
<polygon fill="#fff0f0" stroke="red" points="2396,-250 2253,-250 2253,-231 2396,-231 2396,-250"/>
<text text-anchor="middle" x="2324.5" y="-238" font-family="Helvetica,sans-Serif" font-size="10.00">Kit/Container/RingBuffer.h</text>
</a>
</g>
</g>
<!-- Node39&#45;&gt;Node41 -->
<g id="edge38_Node000039_Node000041" class="edge">
<title>Node39&#45;&gt;Node41</title>
<g id="a_edge38_Node000039_Node000041"><a xlink:title=" ">
<path fill="none" stroke="#63b8ff" d="M2448.86,-303.27C2417.92,-287.9 2367.78,-263 2341.62,-250"/>
<polygon fill="#63b8ff" stroke="#63b8ff" points="2447.67,-306.58 2458.18,-307.9 2450.78,-300.31 2447.67,-306.58"/>
</a>
</g>
</g>
<!-- Node42 -->
<g id="Node000042" class="node">
<title>Node42</title>
<g id="a_Node000042"><a xlink:href="_ring_buffer_allocate_8h.html" target="_top" xlink:title=" ">
<polygon fill="#fff0f0" stroke="red" points="2539.5,-178.5 2405.5,-178.5 2405.5,-148.5 2539.5,-148.5 2539.5,-178.5"/>
<text text-anchor="start" x="2413.5" y="-166.5" font-family="Helvetica,sans-Serif" font-size="10.00">Kit/Container/RingBuffer</text>
<text text-anchor="middle" x="2472.5" y="-155.5" font-family="Helvetica,sans-Serif" font-size="10.00">Allocate.h</text>
</a>
</g>
</g>
<!-- Node39&#45;&gt;Node42 -->
<g id="edge43_Node000039_Node000042" class="edge">
<title>Node39&#45;&gt;Node42</title>
<g id="a_edge43_Node000039_Node000042"><a xlink:title=" ">
<path fill="none" stroke="#63b8ff" d="M2475.13,-297.69C2474.52,-266.94 2473.33,-206.58 2472.79,-178.94"/>
<polygon fill="#63b8ff" stroke="#63b8ff" points="2471.63,-297.96 2475.33,-307.89 2478.63,-297.83 2471.63,-297.96"/>
</a>
</g>
</g>
<!-- Node45 -->
<g id="Node000045" class="node">
<title>Node45</title>
<g id="a_Node000045"><a xlink:href="_ring_buffer_m_t_allocate_8h.html" target="_top" xlink:title=" ">
<polygon fill="white" stroke="#666666" points="2504.5,-101.5 2370.5,-101.5 2370.5,-71.5 2504.5,-71.5 2504.5,-101.5"/>
<text text-anchor="start" x="2378.5" y="-89.5" font-family="Helvetica,sans-Serif" font-size="10.00">Kit/Container/RingBuffer</text>
<text text-anchor="middle" x="2437.5" y="-78.5" font-family="Helvetica,sans-Serif" font-size="10.00">MTAllocate.h</text>
</a>
</g>
</g>
<!-- Node39&#45;&gt;Node45 -->
<g id="edge45_Node000039_Node000045" class="edge">
<title>Node39&#45;&gt;Node45</title>
<g id="a_edge45_Node000039_Node000045"><a xlink:title=" ">
<path fill="none" stroke="#63b8ff" d="M2480.34,-298.19C2486.21,-277.98 2497.35,-245.02 2513.5,-220 2525.6,-201.25 2540.11,-204.68 2548.5,-184 2555.35,-167.12 2558.08,-158.5 2548.5,-143 2536.1,-122.93 2514,-109.88 2492.76,-101.51"/>
<polygon fill="#63b8ff" stroke="#63b8ff" points="2476.93,-297.4 2477.63,-307.97 2483.68,-299.27 2476.93,-297.4"/>
</a>
</g>
</g>
<!-- Node50 -->
<g id="Node000050" class="node">
<title>Node50</title>
<g id="a_Node000050"><a xlink:href="_entry_data_8h.html" target="_top" xlink:title=" ">
<polygon fill="#fff0f0" stroke="red" points="2652,-255.5 2523,-255.5 2523,-225.5 2652,-225.5 2652,-255.5"/>
<text text-anchor="start" x="2531" y="-243.5" font-family="Helvetica,sans-Serif" font-size="10.00">Kit/Logging/Framework</text>
<text text-anchor="middle" x="2587.5" y="-232.5" font-family="Helvetica,sans-Serif" font-size="10.00">/EntryData.h</text>
</a>
</g>
</g>
<!-- Node39&#45;&gt;Node50 -->
<g id="edge46_Node000039_Node000050" class="edge">
<title>Node39&#45;&gt;Node50</title>
<g id="a_edge46_Node000039_Node000050"><a xlink:title=" ">
<path fill="none" stroke="#63b8ff" d="M2496.78,-302.25C2516.76,-288.87 2546.5,-268.95 2566.43,-255.61"/>
<polygon fill="#63b8ff" stroke="#63b8ff" points="2494.71,-299.42 2488.35,-307.9 2498.6,-305.24 2494.71,-299.42"/>
</a>
</g>
</g>
<!-- Node52 -->
<g id="Node000052" class="node">
<title>Node52</title>
<g id="a_Node000052"><a xlink:href="_real_expression_parser_8h.html" target="_top" xlink:title="This file contains a collection of methods that parses a null terminated string that contains an arit...">
<polygon fill="white" stroke="#666666" points="2844.5,-250 2670.5,-250 2670.5,-231 2844.5,-231 2844.5,-250"/>
<text text-anchor="middle" x="2757.5" y="-238" font-family="Helvetica,sans-Serif" font-size="10.00">Kit/Math/RealExpressionParser.h</text>
</a>
</g>
</g>
<!-- Node39&#45;&gt;Node52 -->
<g id="edge47_Node000039_Node000052" class="edge">
<title>Node39&#45;&gt;Node52</title>
<g id="a_edge47_Node000039_Node000052"><a xlink:title=" ">
<path fill="none" stroke="#63b8ff" d="M2512.24,-304.99C2521.14,-302.29 2530.64,-299.48 2539.5,-297 2603.44,-279.13 2678.59,-260.52 2721.87,-250.03"/>
<polygon fill="#63b8ff" stroke="#63b8ff" points="2511.05,-301.69 2502.51,-307.97 2513.1,-308.38 2511.05,-301.69"/>
</a>
</g>
</g>
<!-- Node53 -->
<g id="Node000053" class="node">
<title>Node53</title>
<g id="a_Node000053"><a xlink:href="_thread_8h.html" target="_top" xlink:title=" ">
<polygon fill="#fff0f0" stroke="red" points="2978.5,-250 2862.5,-250 2862.5,-231 2978.5,-231 2978.5,-250"/>
<text text-anchor="middle" x="2920.5" y="-238" font-family="Helvetica,sans-Serif" font-size="10.00">Kit/System/Thread.h</text>
</a>
</g>
</g>
<!-- Node39&#45;&gt;Node53 -->
<g id="edge48_Node000039_Node000053" class="edge">
<title>Node39&#45;&gt;Node53</title>
<g id="a_edge48_Node000039_Node000053"><a xlink:title=" ">
<path fill="none" stroke="#63b8ff" d="M2509.47,-304.9C2519.09,-301.96 2529.62,-299.05 2539.5,-297 2677.03,-268.41 2715.79,-288.73 2853.5,-261 2867.4,-258.2 2882.58,-253.89 2894.98,-250.03"/>
<polygon fill="#63b8ff" stroke="#63b8ff" points="2508.32,-301.59 2499.85,-307.94 2510.44,-308.26 2508.32,-301.59"/>
</a>
</g>
</g>
<!-- Node61 -->
<g id="Node000061" class="node">
<title>Node61</title>
<g id="a_Node000061"><a xlink:href="_strip_8h.html" target="_top" xlink:title=" ">
<polygon fill="white" stroke="#666666" points="3084.5,-250 2996.5,-250 2996.5,-231 3084.5,-231 3084.5,-250"/>
<text text-anchor="middle" x="3040.5" y="-238" font-family="Helvetica,sans-Serif" font-size="10.00">Kit/Text/Strip.h</text>
</a>
</g>
</g>
<!-- Node39&#45;&gt;Node61 -->
<g id="edge49_Node000039_Node000061" class="edge">
<title>Node39&#45;&gt;Node61</title>
<g id="a_edge49_Node000039_Node000061"><a xlink:title=" ">
<path fill="none" stroke="#63b8ff" d="M2508.93,-304.83C2518.68,-301.83 2529.42,-298.92 2539.5,-297 2735.73,-259.67 2792.4,-303.88 2987.5,-261 2998.99,-258.47 3011.35,-254.03 3021.25,-250.02"/>
<polygon fill="#63b8ff" stroke="#63b8ff" points="2507.66,-301.56 2499.2,-307.94 2509.79,-308.23 2507.66,-301.56"/>
</a>
</g>
</g>
<!-- Node62 -->
<g id="Node000062" class="node">
<title>Node62</title>
<g id="a_Node000062"><a xlink:href="endian_8h.html" target="_top" xlink:title="This file provides a set of macros/method to convert between the &#39;host&#39; platform and Big/Little endia...">
<polygon fill="#fff0f0" stroke="red" points="3204,-250 3103,-250 3103,-231 3204,-231 3204,-250"/>
<text text-anchor="middle" x="3153.5" y="-238" font-family="Helvetica,sans-Serif" font-size="10.00">Kit/Type/endian.h</text>
</a>
</g>
</g>
<!-- Node39&#45;&gt;Node62 -->
<g id="edge50_Node000039_Node000062" class="edge">
<title>Node39&#45;&gt;Node62</title>
<g id="a_edge50_Node000039_Node000062"><a xlink:title=" ">
<path fill="none" stroke="#63b8ff" d="M2508.67,-304.81C2518.48,-301.78 2529.32,-298.86 2539.5,-297 2782.24,-252.75 2851.18,-307.49 3093.5,-261 3106.41,-258.52 3120.4,-254.08 3131.62,-250.07"/>
<polygon fill="#63b8ff" stroke="#63b8ff" points="2507.33,-301.56 2498.89,-307.95 2509.48,-308.22 2507.33,-301.56"/>
</a>
</g>
</g>
<!-- Node40&#45;&gt;Node13 -->
<g id="edge37_Node000040_Node000013" class="edge">
<title>Node40&#45;&gt;Node13</title>
<g id="a_edge37_Node000040_Node000013"><a xlink:title=" ">
<path fill="none" stroke="#63b8ff" d="M972.82,-231.34C817.82,-216.39 503.23,-185.94 491.5,-184 488.73,-183.54 485.91,-183.04 483.06,-182.51"/>
<polygon fill="#63b8ff" stroke="#63b8ff" points="972.5,-234.83 982.79,-232.3 973.17,-227.86 972.5,-234.83"/>
</a>
</g>
</g>
<!-- Node41&#45;&gt;Node31 -->
<g id="edge40_Node000041_Node000031" class="edge">
<title>Node41&#45;&gt;Node31</title>
<g id="a_edge40_Node000041_Node000031"><a xlink:title=" ">
<path fill="none" stroke="#63b8ff" d="M2297.18,-226.45C2275.79,-215.88 2245.57,-200.14 2220.5,-184 2175.09,-154.77 2125.35,-113.73 2104.54,-96.1"/>
<polygon fill="#63b8ff" stroke="#63b8ff" points="2295.81,-229.68 2306.33,-230.93 2298.88,-223.39 2295.81,-229.68"/>
</a>
</g>
</g>
<!-- Node41&#45;&gt;Node42 -->
<g id="edge39_Node000041_Node000042" class="edge">
<title>Node41&#45;&gt;Node42</title>
<g id="a_edge39_Node000041_Node000042"><a xlink:title=" ">
<path fill="none" stroke="#63b8ff" d="M2350.5,-226.32C2376.89,-212.95 2417.61,-192.31 2444.65,-178.61"/>
<polygon fill="#63b8ff" stroke="#63b8ff" points="2348.82,-223.25 2341.48,-230.9 2351.98,-229.5 2348.82,-223.25"/>
</a>
</g>
</g>
<!-- Node44 -->
<g id="Node000044" class="node">
<title>Node44</title>
<g id="a_Node000044"><a xlink:href="_ring_buffer_m_t_8h.html" target="_top" xlink:title=" ">
<polygon fill="white" stroke="#666666" points="2387.5,-173 2229.5,-173 2229.5,-154 2387.5,-154 2387.5,-173"/>
<text text-anchor="middle" x="2308.5" y="-161" font-family="Helvetica,sans-Serif" font-size="10.00">Kit/Container/RingBufferMT.h</text>
</a>
</g>
</g>
<!-- Node41&#45;&gt;Node44 -->
<g id="edge41_Node000041_Node000044" class="edge">
<title>Node41&#45;&gt;Node44</title>
<g id="a_edge41_Node000041_Node000044"><a xlink:title=" ">
<path fill="none" stroke="#63b8ff" d="M2320.55,-220.97C2317.28,-205.65 2312.79,-184.59 2310.31,-173"/>
<polygon fill="#63b8ff" stroke="#63b8ff" points="2317.16,-221.85 2322.66,-230.9 2324,-220.39 2317.16,-221.85"/>
</a>
</g>
</g>
<!-- Node44&#45;&gt;Node45 -->
<g id="edge42_Node000044_Node000045" class="edge">
<title>Node44&#45;&gt;Node45</title>
<g id="a_edge42_Node000044_Node000045"><a xlink:title=" ">
<path fill="none" stroke="#63b8ff" d="M2332.08,-148.79C2355.1,-135.41 2389.97,-115.13 2413.23,-101.61"/>
<polygon fill="#63b8ff" stroke="#63b8ff" points="2330.18,-145.84 2323.3,-153.9 2333.7,-151.9 2330.18,-145.84"/>
</a>
</g>
</g>
<!-- Node66 -->
<g id="Node000066" class="node">
<title>Node66</title>
<g id="a_Node000066"><a xlink:href="_h_pool_8h.html" target="_top" xlink:title=" ">
<polygon fill="white" stroke="#666666" points="2662.5,-327 2548.5,-327 2548.5,-308 2662.5,-308 2662.5,-327"/>
<text text-anchor="middle" x="2605.5" y="-315" font-family="Helvetica,sans-Serif" font-size="10.00">Kit/Memory/HPool.h</text>
</a>
</g>
</g>
<!-- Node65&#45;&gt;Node66 -->
<g id="edge52_Node000065_Node000066" class="edge">
<title>Node65&#45;&gt;Node66</title>
<g id="a_edge52_Node000065_Node000066"><a xlink:title=" ">
<path fill="none" stroke="#63b8ff" d="M2605.5,-374.52C2605.5,-359.24 2605.5,-338.48 2605.5,-327"/>
<polygon fill="#63b8ff" stroke="#63b8ff" points="2602,-374.9 2605.5,-384.9 2609,-374.9 2602,-374.9"/>
</a>
</g>
</g>
<!-- Node67 -->
<g id="Node000067" class="node">
<title>Node67</title>
<g id="a_Node000067"><a xlink:href="_s_pool_8h.html" target="_top" xlink:title=" ">
<polygon fill="white" stroke="#666666" points="2794,-327 2681,-327 2681,-308 2794,-308 2794,-327"/>
<text text-anchor="middle" x="2737.5" y="-315" font-family="Helvetica,sans-Serif" font-size="10.00">Kit/Memory/SPool.h</text>
</a>
</g>
</g>
<!-- Node65&#45;&gt;Node67 -->
<g id="edge53_Node000065_Node000067" class="edge">
<title>Node65&#45;&gt;Node67</title>
<g id="a_edge53_Node000065_Node000067"><a xlink:title=" ">
<path fill="none" stroke="#63b8ff" d="M2629.49,-379.87C2656.59,-364.47 2699.86,-339.88 2722.53,-327"/>
<polygon fill="#63b8ff" stroke="#63b8ff" points="2627.61,-376.91 2620.64,-384.9 2631.07,-383 2627.61,-376.91"/>
</a>
</g>
</g>
<!-- Node69 -->
<g id="Node000069" class="node">
<title>Node69</title>
<g id="a_Node000069"><a xlink:href="_event_loop_8h.html" target="_top" xlink:title=" ">
<polygon fill="white" stroke="#666666" points="538,-327 405,-327 405,-308 538,-308 538,-327"/>
<text text-anchor="middle" x="471.5" y="-315" font-family="Helvetica,sans-Serif" font-size="10.00">Kit/System/EventLoop.h</text>
</a>
</g>
</g>
<!-- Node68&#45;&gt;Node69 -->
<g id="edge55_Node000068_Node000069" class="edge">
<title>Node68&#45;&gt;Node69</title>
<g id="a_edge55_Node000068_Node000069"><a xlink:title=" ">
<path fill="none" stroke="#63b8ff" d="M575.89,-379.67C549.59,-364.25 507.9,-339.83 486.01,-327"/>
<polygon fill="#63b8ff" stroke="#63b8ff" points="574.42,-382.86 584.82,-384.9 577.96,-376.82 574.42,-382.86"/>
</a>
</g>
</g>
<!-- Node69&#45;&gt;Node5 -->
<g id="edge56_Node000069_Node000005" class="edge">
<title>Node69&#45;&gt;Node5</title>
<g id="a_edge56_Node000069_Node000005"><a xlink:title=" ">
<path fill="none" stroke="#63b8ff" d="M439.33,-304.25C399.22,-288.98 331.7,-263.28 296.83,-250"/>
<polygon fill="#63b8ff" stroke="#63b8ff" points="438.31,-307.61 448.9,-307.9 440.8,-301.07 438.31,-307.61"/>
</a>
</g>
</g>
<!-- Node70 -->
<g id="Node000070" class="node">
<title>Node70</title>
<g id="a_Node000070"><a xlink:href="_event_loop_with_p_scheduling_8h.html" target="_top" xlink:title=" ">
<polygon fill="white" stroke="#666666" points="544.5,-255.5 398.5,-255.5 398.5,-225.5 544.5,-225.5 544.5,-255.5"/>
<text text-anchor="start" x="406.5" y="-243.5" font-family="Helvetica,sans-Serif" font-size="10.00">Kit/System/EventLoopWith</text>
<text text-anchor="middle" x="471.5" y="-232.5" font-family="Helvetica,sans-Serif" font-size="10.00">PScheduling.h</text>
</a>
</g>
</g>
<!-- Node69&#45;&gt;Node70 -->
<g id="edge57_Node000069_Node000070" class="edge">
<title>Node69&#45;&gt;Node70</title>
<g id="a_edge57_Node000069_Node000070"><a xlink:title=" ">
<path fill="none" stroke="#63b8ff" d="M471.5,-297.7C471.5,-284.64 471.5,-267.51 471.5,-255.61"/>
<polygon fill="#63b8ff" stroke="#63b8ff" points="468,-297.9 471.5,-307.9 475,-297.9 468,-297.9"/>
</a>
</g>
</g>
</g>
</svg>
