<?xml version="1.0" encoding="UTF-8" standalone="no"?>
<!DOCTYPE svg PUBLIC "-//W3C//DTD SVG 1.1//EN"
 "http://www.w3.org/Graphics/SVG/1.1/DTD/svg11.dtd">
<!-- Generated by graphviz version 2.43.0 (0)
 -->
<!-- Title: Kit/Container/DList.h Pages: 1 -->
<svg width="3835pt" height="412pt"
 viewBox="0.00 0.00 3834.50 412.00" xmlns="http://www.w3.org/2000/svg" xmlns:xlink="http://www.w3.org/1999/xlink">
<g id="graph0" class="graph" transform="scale(1 1) rotate(0) translate(4 408)">
<title>Kit/Container/DList.h</title>
<!-- Node1 -->
<g id="Node000001" class="node">
<title>Node1</title>
<g id="a_Node000001"><a xlink:title=" ">
<polygon fill="#999999" stroke="#666666" points="2860,-404 2743,-404 2743,-385 2860,-385 2860,-404"/>
<text text-anchor="middle" x="2801.5" y="-392" font-family="Helvetica,sans-Serif" font-size="10.00">Kit/Container/DList.h</text>
</a>
</g>
</g>
<!-- Node2 -->
<g id="Node000002" class="node">
<title>Node2</title>
<g id="a_Node000002"><a xlink:href="_flasher_8h.html" target="_top" xlink:title=" ">
<polygon fill="white" stroke="#666666" points="2372,-272 2223,-272 2223,-231 2372,-231 2372,-272"/>
<text text-anchor="start" x="2231" y="-260" font-family="Helvetica,sans-Serif" font-size="10.00">/home/runner/work/kit.core</text>
<text text-anchor="start" x="2231" y="-249" font-family="Helvetica,sans-Serif" font-size="10.00">/kit.core/projects/examples</text>
<text text-anchor="middle" x="2297.5" y="-238" font-family="Helvetica,sans-Serif" font-size="10.00">/Container/Lists/Flasher.h</text>
</a>
</g>
</g>
<!-- Node1&#45;&gt;Node2 -->
<g id="edge1_Node000001_Node000002" class="edge">
<title>Node1&#45;&gt;Node2</title>
<g id="a_edge1_Node000001_Node000002"><a xlink:title=" ">
<path fill="none" stroke="#63b8ff" d="M2732.55,-389.06C2642.19,-382.57 2489.06,-369.03 2436.5,-349 2390.11,-331.32 2344.39,-294.93 2318.68,-272.23"/>
<polygon fill="#63b8ff" stroke="#63b8ff" points="2732.48,-392.57 2742.7,-389.78 2732.97,-385.58 2732.48,-392.57"/>
</a>
</g>
</g>
<!-- Node3 -->
<g id="Node000003" class="node">
<title>Node3</title>
<g id="a_Node000003"><a xlink:href="_period_8h.html" target="_top" xlink:title=" ">
<polygon fill="white" stroke="#666666" points="2595,-349 2446,-349 2446,-308 2595,-308 2595,-349"/>
<text text-anchor="start" x="2454" y="-337" font-family="Helvetica,sans-Serif" font-size="10.00">/home/runner/work/kit.core</text>
<text text-anchor="start" x="2454" y="-326" font-family="Helvetica,sans-Serif" font-size="10.00">/kit.core/projects/examples</text>
<text text-anchor="middle" x="2520.5" y="-315" font-family="Helvetica,sans-Serif" font-size="10.00">/Container/Lists/Period.h</text>
</a>
</g>
</g>
<!-- Node1&#45;&gt;Node3 -->
<g id="edge2_Node000001_Node000003" class="edge">
<title>Node1&#45;&gt;Node3</title>
<g id="a_edge2_Node000001_Node000003"><a xlink:title=" ">
<path fill="none" stroke="#63b8ff" d="M2753.87,-382.65C2710.39,-372.75 2645.41,-357.95 2595.05,-346.48"/>
<polygon fill="#63b8ff" stroke="#63b8ff" points="2753.37,-386.13 2763.89,-384.94 2754.92,-379.3 2753.37,-386.13"/>
</a>
</g>
</g>
<!-- Node4 -->
<g id="Node000004" class="node">
<title>Node4</title>
<g id="a_Node000004"><a xlink:href="_change_handler_8h.html" target="_top" xlink:title=" ">
<polygon fill="white" stroke="#666666" points="3395,-338 3258,-338 3258,-319 3395,-319 3395,-338"/>
<text text-anchor="middle" x="3326.5" y="-326" font-family="Helvetica,sans-Serif" font-size="10.00">Kit/Dm/ChangeHandler.h</text>
</a>
</g>
</g>
<!-- Node1&#45;&gt;Node4 -->
<g id="edge4_Node000001_Node000004" class="edge">
<title>Node1&#45;&gt;Node4</title>
<g id="a_edge4_Node000001_Node000004"><a xlink:title=" ">
<path fill="none" stroke="#63b8ff" d="M2870.25,-385.12C2970.89,-372.85 3157.25,-350.13 3257.84,-337.87"/>
<polygon fill="#63b8ff" stroke="#63b8ff" points="2869.7,-381.66 2860.2,-386.34 2870.55,-388.61 2869.7,-381.66"/>
</a>
</g>
</g>
<!-- Node8 -->
<g id="Node000008" class="node">
<title>Node8</title>
<g id="a_Node000008"><a xlink:href="_model_point_base_8h.html" target="_top" xlink:title=" ">
<polygon fill="white" stroke="#666666" points="2794,-338 2653,-338 2653,-319 2794,-319 2794,-338"/>
<text text-anchor="middle" x="2723.5" y="-326" font-family="Helvetica,sans-Serif" font-size="10.00">Kit/Dm/ModelPointBase.h</text>
</a>
</g>
</g>
<!-- Node1&#45;&gt;Node8 -->
<g id="edge8_Node000001_Node000008" class="edge">
<title>Node1&#45;&gt;Node8</title>
<g id="a_edge8_Node000001_Node000008"><a xlink:title=" ">
<path fill="none" stroke="#63b8ff" d="M2783.2,-378.49C2767.93,-365.96 2746.7,-348.54 2734.1,-338.2"/>
<polygon fill="#63b8ff" stroke="#63b8ff" points="2781.03,-381.23 2790.98,-384.87 2785.47,-375.82 2781.03,-381.23"/>
</a>
</g>
</g>
<!-- Node91 -->
<g id="Node000091" class="node">
<title>Node91</title>
<g id="a_Node000091"><a xlink:href="_pool_8h.html" target="_top" xlink:title=" ">
<polygon fill="white" stroke="#666666" points="3691,-338 3584,-338 3584,-319 3691,-319 3691,-338"/>
<text text-anchor="middle" x="3637.5" y="-326" font-family="Helvetica,sans-Serif" font-size="10.00">Kit/Memory/Pool.h</text>
</a>
</g>
</g>
<!-- Node1&#45;&gt;Node91 -->
<g id="edge48_Node000001_Node000091" class="edge">
<title>Node1&#45;&gt;Node91</title>
<g id="a_edge48_Node000001_Node000091"><a xlink:title=" ">
<path fill="none" stroke="#63b8ff" d="M2870.4,-391.67C3033.66,-387 3440.37,-373.25 3574.5,-349 3588.02,-346.56 3602.71,-342.12 3614.5,-338.09"/>
<polygon fill="#63b8ff" stroke="#63b8ff" points="2869.9,-388.19 2860.01,-391.97 2870.1,-395.18 2869.9,-388.19"/>
</a>
</g>
</g>
<!-- Node94 -->
<g id="Node000094" class="node">
<title>Node94</title>
<g id="a_Node000094"><a xlink:href="_timer_manager_8h.html" target="_top" xlink:title=" ">
<polygon fill="white" stroke="#666666" points="3565.5,-338 3413.5,-338 3413.5,-319 3565.5,-319 3565.5,-338"/>
<text text-anchor="middle" x="3489.5" y="-326" font-family="Helvetica,sans-Serif" font-size="10.00">Kit/System/TimerManager.h</text>
</a>
</g>
</g>
<!-- Node1&#45;&gt;Node94 -->
<g id="edge51_Node000001_Node000094" class="edge">
<title>Node1&#45;&gt;Node94</title>
<g id="a_edge51_Node000001_Node000094"><a xlink:title=" ">
<path fill="none" stroke="#63b8ff" d="M2870.53,-391.74C2982.82,-388.14 3211.78,-377.66 3403.5,-349 3421.37,-346.33 3441.03,-341.98 3457.05,-338.06"/>
<polygon fill="#63b8ff" stroke="#63b8ff" points="2870.24,-388.25 2860.36,-392.06 2870.46,-395.25 2870.24,-388.25"/>
</a>
</g>
</g>
<!-- Node3&#45;&gt;Node2 -->
<g id="edge3_Node000003_Node000002" class="edge">
<title>Node3&#45;&gt;Node2</title>
<g id="a_edge3_Node000003_Node000002"><a xlink:title=" ">
<path fill="none" stroke="#63b8ff" d="M2452.63,-304.67C2421.64,-294.25 2385.31,-282.03 2355.61,-272.04"/>
<polygon fill="#63b8ff" stroke="#63b8ff" points="2451.9,-308.12 2462.49,-307.99 2454.13,-301.49 2451.9,-308.12"/>
</a>
</g>
</g>
<!-- Node5 -->
<g id="Node000005" class="node">
<title>Node5</title>
<g id="a_Node000005"><a xlink:href="src_2_kit_2_event_queue_2_server_8h.html" target="_top" xlink:title=" ">
<polygon fill="white" stroke="#666666" points="3614,-184 3479,-184 3479,-165 3614,-165 3614,-184"/>
<text text-anchor="middle" x="3546.5" y="-172" font-family="Helvetica,sans-Serif" font-size="10.00">Kit/EventQueue/Server.h</text>
</a>
</g>
</g>
<!-- Node4&#45;&gt;Node5 -->
<g id="edge5_Node000004_Node000005" class="edge">
<title>Node4&#45;&gt;Node5</title>
<g id="a_edge5_Node000004_Node000005"><a xlink:title=" ">
<path fill="none" stroke="#63b8ff" d="M3339.18,-311.01C3355.93,-290.13 3387.21,-254.1 3420.5,-231 3451.72,-209.33 3492.77,-193.17 3519.39,-184.03"/>
<polygon fill="#63b8ff" stroke="#63b8ff" points="3336.37,-308.93 3332.93,-318.95 3341.87,-313.26 3336.37,-308.93"/>
</a>
</g>
</g>
<!-- Node6 -->
<g id="Node000006" class="node">
<title>Node6</title>
<g id="a_Node000006"><a xlink:href="_with_periodic_scheduling_8h.html" target="_top" xlink:title=" ">
<polygon fill="white" stroke="#666666" points="3701,-112.5 3544,-112.5 3544,-82.5 3701,-82.5 3701,-112.5"/>
<text text-anchor="start" x="3552" y="-100.5" font-family="Helvetica,sans-Serif" font-size="10.00">Kit/EventQueue/WithPeriodic</text>
<text text-anchor="middle" x="3622.5" y="-89.5" font-family="Helvetica,sans-Serif" font-size="10.00">Scheduling.h</text>
</a>
</g>
</g>
<!-- Node5&#45;&gt;Node6 -->
<g id="edge6_Node000005_Node000006" class="edge">
<title>Node5&#45;&gt;Node6</title>
<g id="a_edge6_Node000005_Node000006"><a xlink:title=" ">
<path fill="none" stroke="#63b8ff" d="M3562.43,-157.78C3575.95,-144.44 3595.17,-125.47 3608.2,-112.61"/>
<polygon fill="#63b8ff" stroke="#63b8ff" points="3559.88,-155.38 3555.22,-164.9 3564.79,-160.36 3559.88,-155.38"/>
</a>
</g>
</g>
<!-- Node7 -->
<g id="Node000007" class="node">
<title>Node7</title>
<g id="a_Node000007"><a xlink:href="helpers_8h.html" target="_top" xlink:title="This file defines helper functions/interface for writing unit tests.">
<polygon fill="white" stroke="#666666" points="3525.5,-112.5 3413.5,-112.5 3413.5,-82.5 3525.5,-82.5 3525.5,-112.5"/>
<text text-anchor="start" x="3421.5" y="-100.5" font-family="Helvetica,sans-Serif" font-size="10.00">Kit/_support/testing</text>
<text text-anchor="middle" x="3469.5" y="-89.5" font-family="Helvetica,sans-Serif" font-size="10.00">/helpers.h</text>
</a>
</g>
</g>
<!-- Node5&#45;&gt;Node7 -->
<g id="edge7_Node000005_Node000007" class="edge">
<title>Node5&#45;&gt;Node7</title>
<g id="a_edge7_Node000005_Node000007"><a xlink:title=" ">
<path fill="none" stroke="#63b8ff" d="M3530.36,-157.78C3516.67,-144.44 3497.19,-125.47 3483.99,-112.61"/>
<polygon fill="#63b8ff" stroke="#63b8ff" points="3528.06,-160.43 3537.67,-164.9 3532.95,-155.41 3528.06,-160.43"/>
</a>
</g>
</g>
<!-- Node9 -->
<g id="Node000009" class="node">
<title>Node9</title>
<g id="a_Node000009"><a xlink:href="_array_base_8h.html" target="_top" xlink:title=" ">
<polygon fill="white" stroke="#666666" points="3200,-261 3069,-261 3069,-242 3200,-242 3200,-261"/>
<text text-anchor="middle" x="3134.5" y="-249" font-family="Helvetica,sans-Serif" font-size="10.00">Kit/Dm/Mp/ArrayBase.h</text>
</a>
</g>
</g>
<!-- Node8&#45;&gt;Node9 -->
<g id="edge9_Node000008_Node000009" class="edge">
<title>Node8&#45;&gt;Node9</title>
<g id="a_edge9_Node000008_Node000009"><a xlink:title=" ">
<path fill="none" stroke="#63b8ff" d="M2780.12,-317.17C2861.99,-302.23 3011.88,-274.88 3087.8,-261.02"/>
<polygon fill="#63b8ff" stroke="#63b8ff" points="2779.46,-313.73 2770.25,-318.97 2780.71,-320.62 2779.46,-313.73"/>
</a>
</g>
</g>
<!-- Node11 -->
<g id="Node000011" class="node">
<title>Node11</title>
<g id="a_Node000011"><a xlink:href="_enum_base_8h.html" target="_top" xlink:title=" ">
<polygon fill="white" stroke="#666666" points="2650.5,-261 2518.5,-261 2518.5,-242 2650.5,-242 2650.5,-261"/>
<text text-anchor="middle" x="2584.5" y="-249" font-family="Helvetica,sans-Serif" font-size="10.00">Kit/Dm/Mp/EnumBase.h</text>
</a>
</g>
</g>
<!-- Node8&#45;&gt;Node11 -->
<g id="edge11_Node000008_Node000011" class="edge">
<title>Node8&#45;&gt;Node11</title>
<g id="a_edge11_Node000008_Node000011"><a xlink:title=" ">
<path fill="none" stroke="#63b8ff" d="M2698.61,-314.07C2670.09,-298.68 2624.24,-273.94 2600.26,-261"/>
<polygon fill="#63b8ff" stroke="#63b8ff" points="2697.09,-317.23 2707.55,-318.9 2700.42,-311.07 2697.09,-317.23"/>
</a>
</g>
</g>
<!-- Node12 -->
<g id="Node000012" class="node">
<title>Node12</title>
<g id="a_Node000012"><a xlink:href="_scalar_8h.html" target="_top" xlink:title=" ">
<polygon fill="white" stroke="#666666" points="2500.5,-261 2390.5,-261 2390.5,-242 2500.5,-242 2500.5,-261"/>
<text text-anchor="middle" x="2445.5" y="-249" font-family="Helvetica,sans-Serif" font-size="10.00">Kit/Dm/Mp/Scalar.h</text>
</a>
</g>
</g>
<!-- Node8&#45;&gt;Node12 -->
<g id="edge12_Node000008_Node000012" class="edge">
<title>Node8&#45;&gt;Node12</title>
<g id="a_edge12_Node000008_Node000012"><a xlink:title=" ">
<path fill="none" stroke="#63b8ff" d="M2678.58,-316.43C2635.18,-305.6 2567.64,-288.39 2509.5,-272 2497.31,-268.57 2483.9,-264.52 2472.52,-261.01"/>
<polygon fill="#63b8ff" stroke="#63b8ff" points="2677.99,-319.89 2688.54,-318.91 2679.68,-313.1 2677.99,-319.89"/>
</a>
</g>
</g>
<!-- Node40 -->
<g id="Node000040" class="node">
<title>Node40</title>
<g id="a_Node000040"><a xlink:href="_string_8h.html" target="_top" xlink:title=" ">
<polygon fill="white" stroke="#666666" points="2778,-261 2669,-261 2669,-242 2778,-242 2778,-261"/>
<text text-anchor="middle" x="2723.5" y="-249" font-family="Helvetica,sans-Serif" font-size="10.00">Kit/Dm/Mp/String.h</text>
</a>
</g>
</g>
<!-- Node8&#45;&gt;Node40 -->
<g id="edge33_Node000008_Node000040" class="edge">
<title>Node8&#45;&gt;Node40</title>
<g id="a_edge33_Node000008_Node000040"><a xlink:title=" ">
<path fill="none" stroke="#63b8ff" d="M2723.5,-308.52C2723.5,-293.24 2723.5,-272.48 2723.5,-261"/>
<polygon fill="#63b8ff" stroke="#63b8ff" points="2720,-308.9 2723.5,-318.9 2727,-308.9 2720,-308.9"/>
</a>
</g>
</g>
<!-- Node10 -->
<g id="Node000010" class="node">
<title>Node10</title>
<g id="a_Node000010"><a xlink:href="_numeric_array_8h.html" target="_top" xlink:title=" ">
<polygon fill="white" stroke="#666666" points="3460.5,-184 3314.5,-184 3314.5,-165 3460.5,-165 3460.5,-184"/>
<text text-anchor="middle" x="3387.5" y="-172" font-family="Helvetica,sans-Serif" font-size="10.00">Kit/Dm/Mp/NumericArray.h</text>
</a>
</g>
</g>
<!-- Node9&#45;&gt;Node10 -->
<g id="edge10_Node000009_Node000010" class="edge">
<title>Node9&#45;&gt;Node10</title>
<g id="a_edge10_Node000009_Node000010"><a xlink:title=" ">
<path fill="none" stroke="#63b8ff" d="M3173.22,-239.02C3224.37,-223.86 3313.28,-197.5 3358.82,-184"/>
<polygon fill="#63b8ff" stroke="#63b8ff" points="3172.12,-235.7 3163.52,-241.9 3174.1,-242.41 3172.12,-235.7"/>
</a>
</g>
</g>
<!-- Node13 -->
<g id="Node000013" class="node">
<title>Node13</title>
<g id="a_Node000013"><a xlink:href="_mp_foo_8h.html" target="_top" xlink:title=" ">
<polygon fill="white" stroke="#666666" points="1818,-118 1669,-118 1669,-77 1818,-77 1818,-118"/>
<text text-anchor="start" x="1677" y="-106" font-family="Helvetica,sans-Serif" font-size="10.00">/home/runner/work/kit.core</text>
<text text-anchor="start" x="1677" y="-95" font-family="Helvetica,sans-Serif" font-size="10.00">/kit.core/projects/examples</text>
<text text-anchor="middle" x="1743.5" y="-84" font-family="Helvetica,sans-Serif" font-size="10.00">/Dm/Transaction/MpFoo.h</text>
</a>
</g>
</g>
<!-- Node12&#45;&gt;Node13 -->
<g id="edge13_Node000012_Node000013" class="edge">
<title>Node12&#45;&gt;Node13</title>
<g id="a_edge13_Node000012_Node000013"><a xlink:title=" ">
<path fill="none" stroke="#63b8ff" d="M2412.38,-238.88C2402.27,-235.79 2391.04,-232.82 2380.5,-231 2301.45,-217.38 1714.79,-253.11 1659.5,-195 1646.94,-181.8 1650.87,-170.05 1659.5,-154 1667.78,-138.61 1682.41,-126.77 1697.16,-118.06"/>
<polygon fill="#63b8ff" stroke="#63b8ff" points="2411.47,-242.26 2422.06,-241.97 2413.59,-235.6 2411.47,-242.26"/>
</a>
</g>
</g>
<!-- Node18 -->
<g id="Node000018" class="node">
<title>Node18</title>
<g id="a_Node000018"><a xlink:href="_primitive_type_8h.html" target="_top" xlink:title=" ">
<polygon fill="white" stroke="#666666" points="954,-184 807,-184 807,-165 954,-165 954,-184"/>
<text text-anchor="middle" x="880.5" y="-172" font-family="Helvetica,sans-Serif" font-size="10.00">Kit/Dm/Mp/PrimitiveType.h</text>
</a>
</g>
</g>
<!-- Node12&#45;&gt;Node18 -->
<g id="edge18_Node000012_Node000018" class="edge">
<title>Node12&#45;&gt;Node18</title>
<g id="a_edge18_Node000012_Node000018"><a xlink:title=" ">
<path fill="none" stroke="#63b8ff" d="M2412.65,-238.88C2402.47,-235.76 2391.14,-232.76 2380.5,-231 2309.6,-219.25 1246.81,-186.53 954.45,-177.71"/>
<polygon fill="#63b8ff" stroke="#63b8ff" points="2411.78,-242.27 2422.37,-242 2413.92,-235.61 2411.78,-242.27"/>
</a>
</g>
</g>
<!-- Node14 -->
<g id="Node000014" class="node">
<title>Node14</title>
<g id="a_Node000014"><a xlink:href="_dm_2_transaction_2_client_8h.html" target="_top" xlink:title=" ">
<polygon fill="white" stroke="#666666" points="2152,-41 2003,-41 2003,0 2152,0 2152,-41"/>
<text text-anchor="start" x="2011" y="-29" font-family="Helvetica,sans-Serif" font-size="10.00">/home/runner/work/kit.core</text>
<text text-anchor="start" x="2011" y="-18" font-family="Helvetica,sans-Serif" font-size="10.00">/kit.core/projects/examples</text>
<text text-anchor="middle" x="2077.5" y="-7" font-family="Helvetica,sans-Serif" font-size="10.00">/Dm/Transaction/Client.h</text>
</a>
</g>
</g>
<!-- Node13&#45;&gt;Node14 -->
<g id="edge14_Node000013_Node000014" class="edge">
<title>Node13&#45;&gt;Node14</title>
<g id="a_edge14_Node000013_Node000014"><a xlink:title=" ">
<path fill="none" stroke="#63b8ff" d="M1828.02,-77.95C1876.48,-67.26 1938.44,-53.5 1993.5,-41 1996.57,-40.3 1999.69,-39.59 2002.85,-38.87"/>
<polygon fill="#63b8ff" stroke="#63b8ff" points="1827.22,-74.54 1818.2,-80.11 1828.72,-81.38 1827.22,-74.54"/>
</a>
</g>
</g>
<!-- Node15 -->
<g id="Node000015" class="node">
<title>Node15</title>
<g id="a_Node000015"><a xlink:href="_dm_2_transaction_2_model_points_8h.html" target="_top" xlink:title="This file defines all of the Model Points for Example application.">
<polygon fill="white" stroke="#666666" points="1651,-41 1484,-41 1484,0 1651,0 1651,-41"/>
<text text-anchor="start" x="1492" y="-29" font-family="Helvetica,sans-Serif" font-size="10.00">/home/runner/work/kit.core</text>
<text text-anchor="start" x="1492" y="-18" font-family="Helvetica,sans-Serif" font-size="10.00">/kit.core/projects/examples</text>
<text text-anchor="middle" x="1567.5" y="-7" font-family="Helvetica,sans-Serif" font-size="10.00">/Dm/Transaction/ModelPoints.h</text>
</a>
</g>
</g>
<!-- Node13&#45;&gt;Node15 -->
<g id="edge15_Node000013_Node000015" class="edge">
<title>Node13&#45;&gt;Node15</title>
<g id="a_edge15_Node000013_Node000015"><a xlink:title=" ">
<path fill="none" stroke="#63b8ff" d="M1688.34,-73C1664.24,-62.72 1636.3,-50.82 1613.36,-41.04"/>
<polygon fill="#63b8ff" stroke="#63b8ff" points="1687.15,-76.29 1697.72,-76.99 1689.89,-69.85 1687.15,-76.29"/>
</a>
</g>
</g>
<!-- Node16 -->
<g id="Node000016" class="node">
<title>Node16</title>
<g id="a_Node000016"><a xlink:href="projects_2examples_2_dm_2_transaction_2_server_8h.html" target="_top" xlink:title=" ">
<polygon fill="white" stroke="#666666" points="1818,-41 1669,-41 1669,0 1818,0 1818,-41"/>
<text text-anchor="start" x="1677" y="-29" font-family="Helvetica,sans-Serif" font-size="10.00">/home/runner/work/kit.core</text>
<text text-anchor="start" x="1677" y="-18" font-family="Helvetica,sans-Serif" font-size="10.00">/kit.core/projects/examples</text>
<text text-anchor="middle" x="1743.5" y="-7" font-family="Helvetica,sans-Serif" font-size="10.00">/Dm/Transaction/Server.h</text>
</a>
</g>
</g>
<!-- Node13&#45;&gt;Node16 -->
<g id="edge16_Node000013_Node000016" class="edge">
<title>Node13&#45;&gt;Node16</title>
<g id="a_edge16_Node000013_Node000016"><a xlink:title=" ">
<path fill="none" stroke="#63b8ff" d="M1743.5,-66.69C1743.5,-58.08 1743.5,-48.9 1743.5,-41.07"/>
<polygon fill="#63b8ff" stroke="#63b8ff" points="1740,-66.79 1743.5,-76.79 1747,-66.79 1740,-66.79"/>
</a>
</g>
</g>
<!-- Node17 -->
<g id="Node000017" class="node">
<title>Node17</title>
<g id="a_Node000017"><a xlink:href="_itc_2_synchronous_2_client_8h.html" target="_top" xlink:title=" ">
<polygon fill="white" stroke="#666666" points="1985,-41 1836,-41 1836,0 1985,0 1985,-41"/>
<text text-anchor="start" x="1844" y="-29" font-family="Helvetica,sans-Serif" font-size="10.00">/home/runner/work/kit.core</text>
<text text-anchor="start" x="1844" y="-18" font-family="Helvetica,sans-Serif" font-size="10.00">/kit.core/projects/examples</text>
<text text-anchor="middle" x="1910.5" y="-7" font-family="Helvetica,sans-Serif" font-size="10.00">/Itc/Synchronous/Client.h</text>
</a>
</g>
</g>
<!-- Node13&#45;&gt;Node17 -->
<g id="edge17_Node000013_Node000017" class="edge">
<title>Node13&#45;&gt;Node17</title>
<g id="a_edge17_Node000013_Node000017"><a xlink:title=" ">
<path fill="none" stroke="#63b8ff" d="M1796.14,-72.86C1818.94,-62.62 1845.32,-50.77 1866.99,-41.04"/>
<polygon fill="#63b8ff" stroke="#63b8ff" points="1794.63,-69.7 1786.94,-76.99 1797.5,-76.09 1794.63,-69.7"/>
</a>
</g>
</g>
<!-- Node19 -->
<g id="Node000019" class="node">
<title>Node19</title>
<g id="a_Node000019"><a xlink:href="_bool_8h.html" target="_top" xlink:title=" ">
<polygon fill="white" stroke="#666666" points="1634.5,-107 1532.5,-107 1532.5,-88 1634.5,-88 1634.5,-107"/>
<text text-anchor="middle" x="1583.5" y="-95" font-family="Helvetica,sans-Serif" font-size="10.00">Kit/Dm/Mp/Bool.h</text>
</a>
</g>
</g>
<!-- Node18&#45;&gt;Node19 -->
<g id="edge19_Node000018_Node000019" class="edge">
<title>Node18&#45;&gt;Node19</title>
<g id="a_edge19_Node000018_Node000019"><a xlink:title=" ">
<path fill="none" stroke="#63b8ff" d="M964.57,-172.19C1088.03,-168.93 1325.12,-157.56 1522.5,-118 1535.47,-115.4 1549.57,-111 1560.93,-107.04"/>
<polygon fill="#63b8ff" stroke="#63b8ff" points="964.34,-168.7 954.43,-172.45 964.51,-175.69 964.34,-168.7"/>
</a>
</g>
</g>
<!-- Node20 -->
<g id="Node000020" class="node">
<title>Node20</title>
<g id="a_Node000020"><a xlink:href="_double_8h.html" target="_top" xlink:title=" ">
<polygon fill="white" stroke="#666666" points="115,-107 0,-107 0,-88 115,-88 115,-107"/>
<text text-anchor="middle" x="57.5" y="-95" font-family="Helvetica,sans-Serif" font-size="10.00">Kit/Dm/Mp/Double.h</text>
</a>
</g>
</g>
<!-- Node18&#45;&gt;Node20 -->
<g id="edge21_Node000018_Node000020" class="edge">
<title>Node18&#45;&gt;Node20</title>
<g id="a_edge21_Node000018_Node000020"><a xlink:title=" ">
<path fill="none" stroke="#63b8ff" d="M796.51,-173.19C656.04,-171.36 365.07,-162.02 123.5,-118 109.51,-115.45 94.27,-111.06 81.96,-107.09"/>
<polygon fill="#63b8ff" stroke="#63b8ff" points="796.72,-176.69 806.77,-173.31 796.81,-169.69 796.72,-176.69"/>
</a>
</g>
</g>
<!-- Node21 -->
<g id="Node000021" class="node">
<title>Node21</title>
<g id="a_Node000021"><a xlink:href="_float_8h.html" target="_top" xlink:title=" ">
<polygon fill="white" stroke="#666666" points="238,-107 133,-107 133,-88 238,-88 238,-107"/>
<text text-anchor="middle" x="185.5" y="-95" font-family="Helvetica,sans-Serif" font-size="10.00">Kit/Dm/Mp/Float.h</text>
</a>
</g>
</g>
<!-- Node18&#45;&gt;Node21 -->
<g id="edge22_Node000018_Node000021" class="edge">
<title>Node18&#45;&gt;Node21</title>
<g id="a_edge22_Node000018_Node000021"><a xlink:title=" ">
<path fill="none" stroke="#63b8ff" d="M796.49,-172.06C674.29,-168.64 440.89,-157.07 246.5,-118 233.53,-115.39 219.44,-111 208.07,-107.04"/>
<polygon fill="#63b8ff" stroke="#63b8ff" points="796.44,-175.56 806.53,-172.33 796.63,-168.56 796.44,-175.56"/>
</a>
</g>
</g>
<!-- Node22 -->
<g id="Node000022" class="node">
<title>Node22</title>
<g id="a_Node000022"><a xlink:href="_int16_8h.html" target="_top" xlink:title=" ">
<polygon fill="white" stroke="#666666" points="361,-107 256,-107 256,-88 361,-88 361,-107"/>
<text text-anchor="middle" x="308.5" y="-95" font-family="Helvetica,sans-Serif" font-size="10.00">Kit/Dm/Mp/Int16.h</text>
</a>
</g>
</g>
<!-- Node18&#45;&gt;Node22 -->
<g id="edge23_Node000018_Node000022" class="edge">
<title>Node18&#45;&gt;Node22</title>
<g id="a_edge23_Node000018_Node000022"><a xlink:title=" ">
<path fill="none" stroke="#63b8ff" d="M796.77,-169.58C694.88,-163.63 518.04,-149.47 369.5,-118 356.67,-115.28 342.7,-110.93 331.38,-107.02"/>
<polygon fill="#63b8ff" stroke="#63b8ff" points="796.81,-173.09 807,-170.17 797.21,-166.1 796.81,-173.09"/>
</a>
</g>
</g>
<!-- Node23 -->
<g id="Node000023" class="node">
<title>Node23</title>
<g id="a_Node000023"><a xlink:href="_int32_8h.html" target="_top" xlink:title=" ">
<polygon fill="white" stroke="#666666" points="484,-107 379,-107 379,-88 484,-88 484,-107"/>
<text text-anchor="middle" x="431.5" y="-95" font-family="Helvetica,sans-Serif" font-size="10.00">Kit/Dm/Mp/Int32.h</text>
</a>
</g>
</g>
<!-- Node18&#45;&gt;Node23 -->
<g id="edge24_Node000018_Node000023" class="edge">
<title>Node18&#45;&gt;Node23</title>
<g id="a_edge24_Node000018_Node000023"><a xlink:title=" ">
<path fill="none" stroke="#63b8ff" d="M796.5,-165.59C717.4,-157.17 595.96,-141.76 492.5,-118 479.93,-115.11 466.23,-110.84 455,-107.03"/>
<polygon fill="#63b8ff" stroke="#63b8ff" points="796.58,-169.11 806.89,-166.68 797.31,-162.15 796.58,-169.11"/>
</a>
</g>
</g>
<!-- Node24 -->
<g id="Node000024" class="node">
<title>Node24</title>
<g id="a_Node000024"><a xlink:href="_int64_8h.html" target="_top" xlink:title=" ">
<polygon fill="white" stroke="#666666" points="607,-107 502,-107 502,-88 607,-88 607,-107"/>
<text text-anchor="middle" x="554.5" y="-95" font-family="Helvetica,sans-Serif" font-size="10.00">Kit/Dm/Mp/Int64.h</text>
</a>
</g>
</g>
<!-- Node18&#45;&gt;Node24 -->
<g id="edge25_Node000018_Node000024" class="edge">
<title>Node18&#45;&gt;Node24</title>
<g id="a_edge25_Node000018_Node000024"><a xlink:title=" ">
<path fill="none" stroke="#63b8ff" d="M822.21,-163.08C768.25,-153.01 685.95,-136.59 615.5,-118 603.46,-114.82 590.28,-110.69 579.26,-107.05"/>
<polygon fill="#63b8ff" stroke="#63b8ff" points="821.81,-166.57 832.28,-164.95 823.08,-159.68 821.81,-166.57"/>
</a>
</g>
</g>
<!-- Node25 -->
<g id="Node000025" class="node">
<title>Node25</title>
<g id="a_Node000025"><a xlink:href="_int8_8h.html" target="_top" xlink:title=" ">
<polygon fill="white" stroke="#666666" points="724,-107 625,-107 625,-88 724,-88 724,-107"/>
<text text-anchor="middle" x="674.5" y="-95" font-family="Helvetica,sans-Serif" font-size="10.00">Kit/Dm/Mp/Int8.h</text>
</a>
</g>
</g>
<!-- Node18&#45;&gt;Node25 -->
<g id="edge26_Node000018_Node000025" class="edge">
<title>Node18&#45;&gt;Node25</title>
<g id="a_edge26_Node000018_Node000025"><a xlink:title=" ">
<path fill="none" stroke="#63b8ff" d="M847.39,-161.45C805.52,-146.2 734.47,-120.33 697.86,-107"/>
<polygon fill="#63b8ff" stroke="#63b8ff" points="846.28,-164.76 856.87,-164.9 848.67,-158.19 846.28,-164.76"/>
</a>
</g>
</g>
<!-- Node26 -->
<g id="Node000026" class="node">
<title>Node26</title>
<g id="a_Node000026"><a xlink:href="_ref_counter_8h.html" target="_top" xlink:title=" ">
<polygon fill="white" stroke="#666666" points="876.5,-107 742.5,-107 742.5,-88 876.5,-88 876.5,-107"/>
<text text-anchor="middle" x="809.5" y="-95" font-family="Helvetica,sans-Serif" font-size="10.00">Kit/Dm/Mp/RefCounter.h</text>
</a>
</g>
</g>
<!-- Node18&#45;&gt;Node26 -->
<g id="edge27_Node000018_Node000026" class="edge">
<title>Node18&#45;&gt;Node26</title>
<g id="a_edge27_Node000018_Node000026"><a xlink:title=" ">
<path fill="none" stroke="#63b8ff" d="M865.44,-157.59C850.81,-142.13 829.16,-119.27 817.55,-107"/>
<polygon fill="#63b8ff" stroke="#63b8ff" points="862.94,-160.04 872.36,-164.9 868.02,-155.23 862.94,-160.04"/>
</a>
</g>
</g>
<!-- Node27 -->
<g id="Node000027" class="node">
<title>Node27</title>
<g id="a_Node000027"><a xlink:href="_uint16_8h.html" target="_top" xlink:title=" ">
<polygon fill="#fff0f0" stroke="red" points="1008,-107 895,-107 895,-88 1008,-88 1008,-107"/>
<text text-anchor="middle" x="951.5" y="-95" font-family="Helvetica,sans-Serif" font-size="10.00">Kit/Dm/Mp/Uint16.h</text>
</a>
</g>
</g>
<!-- Node18&#45;&gt;Node27 -->
<g id="edge28_Node000018_Node000027" class="edge">
<title>Node18&#45;&gt;Node27</title>
<g id="a_edge28_Node000018_Node000027"><a xlink:title=" ">
<path fill="none" stroke="#63b8ff" d="M895.56,-157.59C910.19,-142.13 931.84,-119.27 943.45,-107"/>
<polygon fill="#63b8ff" stroke="#63b8ff" points="892.98,-155.23 888.64,-164.9 898.06,-160.04 892.98,-155.23"/>
</a>
</g>
</g>
<!-- Node29 -->
<g id="Node000029" class="node">
<title>Node29</title>
<g id="a_Node000029"><a xlink:href="_uint32_8h.html" target="_top" xlink:title=" ">
<polygon fill="#fff0f0" stroke="red" points="1139,-107 1026,-107 1026,-88 1139,-88 1139,-107"/>
<text text-anchor="middle" x="1082.5" y="-95" font-family="Helvetica,sans-Serif" font-size="10.00">Kit/Dm/Mp/Uint32.h</text>
</a>
</g>
</g>
<!-- Node18&#45;&gt;Node29 -->
<g id="edge29_Node000018_Node000029" class="edge">
<title>Node18&#45;&gt;Node29</title>
<g id="a_edge29_Node000018_Node000029"><a xlink:title=" ">
<path fill="none" stroke="#63b8ff" d="M913.22,-161.35C954.32,-146.09 1023.77,-120.31 1059.6,-107"/>
<polygon fill="#63b8ff" stroke="#63b8ff" points="911.83,-158.13 903.67,-164.9 914.26,-164.7 911.83,-158.13"/>
</a>
</g>
</g>
<!-- Node37 -->
<g id="Node000037" class="node">
<title>Node37</title>
<g id="a_Node000037"><a xlink:href="_uint64_8h.html" target="_top" xlink:title=" ">
<polygon fill="white" stroke="#666666" points="1270,-107 1157,-107 1157,-88 1270,-88 1270,-107"/>
<text text-anchor="middle" x="1213.5" y="-95" font-family="Helvetica,sans-Serif" font-size="10.00">Kit/Dm/Mp/Uint64.h</text>
</a>
</g>
</g>
<!-- Node18&#45;&gt;Node37 -->
<g id="edge30_Node000018_Node000037" class="edge">
<title>Node18&#45;&gt;Node37</title>
<g id="a_edge30_Node000018_Node000037"><a xlink:title=" ">
<path fill="none" stroke="#63b8ff" d="M937.67,-163.03C991.94,-152.76 1075.68,-136.04 1147.5,-118 1160.36,-114.77 1174.48,-110.67 1186.34,-107.07"/>
<polygon fill="#63b8ff" stroke="#63b8ff" points="936.73,-159.64 927.55,-164.93 938.03,-166.52 936.73,-159.64"/>
</a>
</g>
</g>
<!-- Node38 -->
<g id="Node000038" class="node">
<title>Node38</title>
<g id="a_Node000038"><a xlink:href="_uint8_8h.html" target="_top" xlink:title=" ">
<polygon fill="#fff0f0" stroke="red" points="1395,-107 1288,-107 1288,-88 1395,-88 1395,-107"/>
<text text-anchor="middle" x="1341.5" y="-95" font-family="Helvetica,sans-Serif" font-size="10.00">Kit/Dm/Mp/Uint8.h</text>
</a>
</g>
</g>
<!-- Node18&#45;&gt;Node38 -->
<g id="edge31_Node000018_Node000038" class="edge">
<title>Node18&#45;&gt;Node38</title>
<g id="a_edge31_Node000018_Node000038"><a xlink:title=" ">
<path fill="none" stroke="#63b8ff" d="M964.27,-165.8C1045.3,-157.41 1171.24,-141.91 1278.5,-118 1291.46,-115.11 1305.61,-110.84 1317.21,-107.02"/>
<polygon fill="#63b8ff" stroke="#63b8ff" points="963.72,-162.33 954.12,-166.83 964.43,-169.3 963.72,-162.33"/>
</a>
</g>
</g>
<!-- Node39 -->
<g id="Node000039" class="node">
<title>Node39</title>
<g id="a_Node000039"><a xlink:href="_void_8h.html" target="_top" xlink:title=" ">
<polygon fill="white" stroke="#666666" points="1514,-107 1413,-107 1413,-88 1514,-88 1514,-107"/>
<text text-anchor="middle" x="1463.5" y="-95" font-family="Helvetica,sans-Serif" font-size="10.00">Kit/Dm/Mp/Void.h</text>
</a>
</g>
</g>
<!-- Node18&#45;&gt;Node39 -->
<g id="edge32_Node000018_Node000039" class="edge">
<title>Node18&#45;&gt;Node39</title>
<g id="a_edge32_Node000018_Node000039"><a xlink:title=" ">
<path fill="none" stroke="#63b8ff" d="M964.14,-170C1068.11,-164.42 1250.53,-150.6 1403.5,-118 1416.14,-115.31 1429.88,-110.95 1441.01,-107.04"/>
<polygon fill="#63b8ff" stroke="#63b8ff" points="963.82,-166.51 954.02,-170.53 964.19,-173.5 963.82,-166.51"/>
</a>
</g>
</g>
<!-- Node19&#45;&gt;Node15 -->
<g id="edge20_Node000019_Node000015" class="edge">
<title>Node19&#45;&gt;Node15</title>
<g id="a_edge20_Node000019_Node000015"><a xlink:title=" ">
<path fill="none" stroke="#63b8ff" d="M1579.55,-77.96C1577.16,-66.79 1574.13,-52.58 1571.7,-41.21"/>
<polygon fill="#63b8ff" stroke="#63b8ff" points="1576.16,-78.85 1581.66,-87.9 1583,-77.39 1576.16,-78.85"/>
</a>
</g>
</g>
<!-- Node41 -->
<g id="Node000041" class="node">
<title>Node41</title>
<g id="a_Node000041"><a xlink:href="_foo_t_8h.html" target="_top" xlink:title=" ">
<polygon fill="white" stroke="#666666" points="1818,-195 1669,-195 1669,-154 1818,-154 1818,-195"/>
<text text-anchor="start" x="1677" y="-183" font-family="Helvetica,sans-Serif" font-size="10.00">/home/runner/work/kit.core</text>
<text text-anchor="start" x="1677" y="-172" font-family="Helvetica,sans-Serif" font-size="10.00">/kit.core/projects/examples</text>
<text text-anchor="middle" x="1743.5" y="-161" font-family="Helvetica,sans-Serif" font-size="10.00">/Dm/Transaction/FooT.h</text>
</a>
</g>
</g>
<!-- Node40&#45;&gt;Node41 -->
<g id="edge34_Node000040_Node000041" class="edge">
<title>Node40&#45;&gt;Node41</title>
<g id="a_edge34_Node000040_Node000041"><a xlink:title=" ">
<path fill="none" stroke="#63b8ff" d="M2690.91,-238.84C2680.96,-235.75 2669.89,-232.78 2659.5,-231 2294.68,-168.57 2194.22,-245.06 1827.5,-195 1824.38,-194.57 1821.22,-194.09 1818.02,-193.55"/>
<polygon fill="#63b8ff" stroke="#63b8ff" points="2689.84,-242.17 2700.44,-241.93 2692.01,-235.51 2689.84,-242.17"/>
</a>
</g>
</g>
<!-- Node42 -->
<g id="Node000042" class="node">
<title>Node42</title>
<g id="a_Node000042"><a xlink:href="_ring_buffer_8h.html" target="_top" xlink:title=" ">
<polygon fill="#fff0f0" stroke="red" points="3296,-184 3153,-184 3153,-165 3296,-165 3296,-184"/>
<text text-anchor="middle" x="3224.5" y="-172" font-family="Helvetica,sans-Serif" font-size="10.00">Kit/Container/RingBuffer.h</text>
</a>
</g>
</g>
<!-- Node40&#45;&gt;Node42 -->
<g id="edge36_Node000040_Node000042" class="edge">
<title>Node40&#45;&gt;Node42</title>
<g id="a_edge36_Node000040_Node000042"><a xlink:title=" ">
<path fill="none" stroke="#63b8ff" d="M2788.28,-243.67C2870.18,-234.61 3015.35,-217.15 3138.5,-195 3155.53,-191.94 3174.28,-187.78 3189.91,-184.09"/>
<polygon fill="#63b8ff" stroke="#63b8ff" points="2787.68,-240.21 2778.13,-244.78 2788.45,-247.17 2787.68,-240.21"/>
</a>
</g>
</g>
<!-- Node43 -->
<g id="Node000043" class="node">
<title>Node43</title>
<g id="a_Node000043"><a xlink:href="_ring_buffer_allocate_8h.html" target="_top" xlink:title=" ">
<polygon fill="#fff0f0" stroke="red" points="3241.5,-112.5 3107.5,-112.5 3107.5,-82.5 3241.5,-82.5 3241.5,-112.5"/>
<text text-anchor="start" x="3115.5" y="-100.5" font-family="Helvetica,sans-Serif" font-size="10.00">Kit/Container/RingBuffer</text>
<text text-anchor="middle" x="3174.5" y="-89.5" font-family="Helvetica,sans-Serif" font-size="10.00">Allocate.h</text>
</a>
</g>
</g>
<!-- Node40&#45;&gt;Node43 -->
<g id="edge38_Node000040_Node000043" class="edge">
<title>Node40&#45;&gt;Node43</title>
<g id="a_edge38_Node000040_Node000043"><a xlink:title=" ">
<path fill="none" stroke="#63b8ff" d="M2788.13,-247.12C2882.53,-241.19 3052.56,-226.42 3104.5,-195 3121.24,-184.88 3151.41,-137.1 3166.06,-112.79"/>
<polygon fill="#63b8ff" stroke="#63b8ff" points="2787.89,-243.63 2778.12,-247.74 2788.31,-250.62 2787.89,-243.63"/>
</a>
</g>
</g>
<!-- Node34 -->
<g id="Node000034" class="node">
<title>Node34</title>
<g id="a_Node000034"><a xlink:href="_ring_buffer_m_p_allocate_8h.html" target="_top" xlink:title=" ">
<polygon fill="white" stroke="#666666" points="1970.5,-189.5 1836.5,-189.5 1836.5,-159.5 1970.5,-159.5 1970.5,-189.5"/>
<text text-anchor="start" x="1844.5" y="-177.5" font-family="Helvetica,sans-Serif" font-size="10.00">Kit/Container/RingBuffer</text>
<text text-anchor="middle" x="1903.5" y="-166.5" font-family="Helvetica,sans-Serif" font-size="10.00">MPAllocate.h</text>
</a>
</g>
</g>
<!-- Node40&#45;&gt;Node34 -->
<g id="edge39_Node000040_Node000034" class="edge">
<title>Node40&#45;&gt;Node34</title>
<g id="a_edge39_Node000040_Node000034"><a xlink:title=" ">
<path fill="none" stroke="#63b8ff" d="M2690.9,-238.9C2680.94,-235.81 2669.88,-232.83 2659.5,-231 2361.44,-178.51 2278.65,-240.83 1979.5,-195 1970.61,-193.64 1961.26,-191.68 1952.26,-189.53"/>
<polygon fill="#63b8ff" stroke="#63b8ff" points="2689.83,-242.23 2700.43,-241.98 2691.99,-235.57 2689.83,-242.23"/>
</a>
</g>
</g>
<!-- Node46 -->
<g id="Node000046" class="node">
<title>Node46</title>
<g id="a_Node000046"><a xlink:href="_ring_buffer_m_t_allocate_8h.html" target="_top" xlink:title=" ">
<polygon fill="white" stroke="#666666" points="2122.5,-189.5 1988.5,-189.5 1988.5,-159.5 2122.5,-159.5 2122.5,-189.5"/>
<text text-anchor="start" x="1996.5" y="-177.5" font-family="Helvetica,sans-Serif" font-size="10.00">Kit/Container/RingBuffer</text>
<text text-anchor="middle" x="2055.5" y="-166.5" font-family="Helvetica,sans-Serif" font-size="10.00">MTAllocate.h</text>
</a>
</g>
</g>
<!-- Node40&#45;&gt;Node46 -->
<g id="edge40_Node000040_Node000046" class="edge">
<title>Node40&#45;&gt;Node46</title>
<g id="a_edge40_Node000040_Node000046"><a xlink:title=" ">
<path fill="none" stroke="#63b8ff" d="M2690.33,-238.83C2680.52,-235.8 2669.67,-232.87 2659.5,-231 2428.17,-188.45 2363.72,-232.38 2131.5,-195 2122.76,-193.59 2113.56,-191.64 2104.69,-189.52"/>
<polygon fill="#63b8ff" stroke="#63b8ff" points="2689.52,-242.24 2700.11,-241.97 2691.66,-235.58 2689.52,-242.24"/>
</a>
</g>
</g>
<!-- Node51 -->
<g id="Node000051" class="node">
<title>Node51</title>
<g id="a_Node000051"><a xlink:href="_driver_2_n_v_2_null_8h.html" target="_top" xlink:title=" ">
<polygon fill="white" stroke="#666666" points="2252.5,-184 2140.5,-184 2140.5,-165 2252.5,-165 2252.5,-184"/>
<text text-anchor="middle" x="2196.5" y="-172" font-family="Helvetica,sans-Serif" font-size="10.00">Kit/Driver/NV/Null.h</text>
</a>
</g>
</g>
<!-- Node40&#45;&gt;Node51 -->
<g id="edge41_Node000040_Node000051" class="edge">
<title>Node40&#45;&gt;Node51</title>
<g id="a_edge41_Node000040_Node000051"><a xlink:title=" ">
<path fill="none" stroke="#63b8ff" d="M2689.81,-238.82C2680.13,-235.85 2669.48,-232.95 2659.5,-231 2485.19,-196.94 2435.89,-228.69 2261.5,-195 2247.85,-192.36 2232.97,-188.01 2220.9,-184.09"/>
<polygon fill="#63b8ff" stroke="#63b8ff" points="2688.89,-242.2 2699.48,-241.9 2691.02,-235.53 2688.89,-242.2"/>
</a>
</g>
</g>
<!-- Node52 -->
<g id="Node000052" class="node">
<title>Node52</title>
<g id="a_Node000052"><a xlink:href="_entry_data_8h.html" target="_top" xlink:title=" ">
<polygon fill="#fff0f0" stroke="red" points="2400,-189.5 2271,-189.5 2271,-159.5 2400,-159.5 2400,-189.5"/>
<text text-anchor="start" x="2279" y="-177.5" font-family="Helvetica,sans-Serif" font-size="10.00">Kit/Logging/Framework</text>
<text text-anchor="middle" x="2335.5" y="-166.5" font-family="Helvetica,sans-Serif" font-size="10.00">/EntryData.h</text>
</a>
</g>
</g>
<!-- Node40&#45;&gt;Node52 -->
<g id="edge42_Node000040_Node000052" class="edge">
<title>Node40&#45;&gt;Node52</title>
<g id="a_edge42_Node000040_Node000052"><a xlink:title=" ">
<path fill="none" stroke="#63b8ff" d="M2688.7,-238.84C2679.3,-235.98 2669.07,-233.13 2659.5,-231 2549.93,-206.57 2519.51,-217.34 2409.5,-195 2401.82,-193.44 2393.75,-191.56 2385.87,-189.6"/>
<polygon fill="#63b8ff" stroke="#63b8ff" points="2687.92,-242.27 2698.51,-241.92 2690.01,-235.59 2687.92,-242.27"/>
</a>
</g>
</g>
<!-- Node54 -->
<g id="Node000054" class="node">
<title>Node54</title>
<g id="a_Node000054"><a xlink:href="_real_expression_parser_8h.html" target="_top" xlink:title="This file contains a collection of methods that parses a null terminated string that contains an arit...">
<polygon fill="white" stroke="#666666" points="2592.5,-184 2418.5,-184 2418.5,-165 2592.5,-165 2592.5,-184"/>
<text text-anchor="middle" x="2505.5" y="-172" font-family="Helvetica,sans-Serif" font-size="10.00">Kit/Math/RealExpressionParser.h</text>
</a>
</g>
</g>
<!-- Node40&#45;&gt;Node54 -->
<g id="edge43_Node000040_Node000054" class="edge">
<title>Node40&#45;&gt;Node54</title>
<g id="a_edge43_Node000040_Node000054"><a xlink:title=" ">
<path fill="none" stroke="#63b8ff" d="M2689.02,-238.64C2644.79,-223.42 2569.13,-197.39 2530.22,-184"/>
<polygon fill="#63b8ff" stroke="#63b8ff" points="2687.9,-241.95 2698.49,-241.9 2690.18,-235.33 2687.9,-241.95"/>
</a>
</g>
</g>
<!-- Node55 -->
<g id="Node000055" class="node">
<title>Node55</title>
<g id="a_Node000055"><a xlink:href="_persistence_2_record_2_media_2_null_8h.html" target="_top" xlink:title=" ">
<polygon fill="white" stroke="#666666" points="2736.5,-189.5 2610.5,-189.5 2610.5,-159.5 2736.5,-159.5 2736.5,-189.5"/>
<text text-anchor="start" x="2618.5" y="-177.5" font-family="Helvetica,sans-Serif" font-size="10.00">Kit/Persistence/Record</text>
<text text-anchor="middle" x="2673.5" y="-166.5" font-family="Helvetica,sans-Serif" font-size="10.00">/Media/Null.h</text>
</a>
</g>
</g>
<!-- Node40&#45;&gt;Node55 -->
<g id="edge44_Node000040_Node000055" class="edge">
<title>Node40&#45;&gt;Node55</title>
<g id="a_edge44_Node000040_Node000055"><a xlink:title=" ">
<path fill="none" stroke="#63b8ff" d="M2712.01,-233.26C2703.19,-220.03 2691.16,-201.99 2682.91,-189.61"/>
<polygon fill="#63b8ff" stroke="#63b8ff" points="2709.31,-235.52 2717.76,-241.9 2715.13,-231.63 2709.31,-235.52"/>
</a>
</g>
</g>
<!-- Node56 -->
<g id="Node000056" class="node">
<title>Node56</title>
<g id="a_Node000056"><a xlink:href="_thread_8h.html" target="_top" xlink:title=" ">
<polygon fill="#fff0f0" stroke="red" points="2870.5,-184 2754.5,-184 2754.5,-165 2870.5,-165 2870.5,-184"/>
<text text-anchor="middle" x="2812.5" y="-172" font-family="Helvetica,sans-Serif" font-size="10.00">Kit/System/Thread.h</text>
</a>
</g>
</g>
<!-- Node40&#45;&gt;Node56 -->
<g id="edge45_Node000040_Node000056" class="edge">
<title>Node40&#45;&gt;Node56</title>
<g id="a_edge45_Node000040_Node000056"><a xlink:title=" ">
<path fill="none" stroke="#63b8ff" d="M2741.38,-235.43C2759.72,-219.98 2787.59,-196.49 2802.41,-184"/>
<polygon fill="#63b8ff" stroke="#63b8ff" points="2739.1,-232.78 2733.71,-241.9 2743.61,-238.13 2739.1,-232.78"/>
</a>
</g>
</g>
<!-- Node64 -->
<g id="Node000064" class="node">
<title>Node64</title>
<g id="a_Node000064"><a xlink:href="_strip_8h.html" target="_top" xlink:title=" ">
<polygon fill="white" stroke="#666666" points="2976.5,-184 2888.5,-184 2888.5,-165 2976.5,-165 2976.5,-184"/>
<text text-anchor="middle" x="2932.5" y="-172" font-family="Helvetica,sans-Serif" font-size="10.00">Kit/Text/Strip.h</text>
</a>
</g>
</g>
<!-- Node40&#45;&gt;Node64 -->
<g id="edge46_Node000040_Node000064" class="edge">
<title>Node40&#45;&gt;Node64</title>
<g id="a_edge46_Node000040_Node000064"><a xlink:title=" ">
<path fill="none" stroke="#63b8ff" d="M2757.5,-238.52C2789.12,-227.35 2837.55,-210.18 2879.5,-195 2889.36,-191.43 2900.24,-187.44 2909.56,-184"/>
<polygon fill="#63b8ff" stroke="#63b8ff" points="2756.11,-235.3 2747.85,-241.93 2758.44,-241.9 2756.11,-235.3"/>
</a>
</g>
</g>
<!-- Node65 -->
<g id="Node000065" class="node">
<title>Node65</title>
<g id="a_Node000065"><a xlink:href="endian_8h.html" target="_top" xlink:title="This file provides a set of macros/method to convert between the &#39;host&#39; platform and Big/Little endia...">
<polygon fill="#fff0f0" stroke="red" points="3096,-184 2995,-184 2995,-165 3096,-165 3096,-184"/>
<text text-anchor="middle" x="3045.5" y="-172" font-family="Helvetica,sans-Serif" font-size="10.00">Kit/Type/endian.h</text>
</a>
</g>
</g>
<!-- Node40&#45;&gt;Node65 -->
<g id="edge47_Node000040_Node000065" class="edge">
<title>Node40&#45;&gt;Node65</title>
<g id="a_edge47_Node000040_Node000065"><a xlink:title=" ">
<path fill="none" stroke="#63b8ff" d="M2781.15,-240.1C2834.51,-230.05 2915.88,-213.63 2985.5,-195 2997.35,-191.83 3010.32,-187.7 3021.15,-184.06"/>
<polygon fill="#63b8ff" stroke="#63b8ff" points="2780.37,-236.69 2771.19,-241.97 2781.66,-243.57 2780.37,-236.69"/>
</a>
</g>
</g>
<!-- Node41&#45;&gt;Node13 -->
<g id="edge35_Node000041_Node000013" class="edge">
<title>Node41&#45;&gt;Node13</title>
<g id="a_edge35_Node000041_Node000013"><a xlink:title=" ">
<path fill="none" stroke="#63b8ff" d="M1743.5,-143.69C1743.5,-135.08 1743.5,-125.9 1743.5,-118.07"/>
<polygon fill="#63b8ff" stroke="#63b8ff" points="1740,-143.79 1743.5,-153.79 1747,-143.79 1740,-143.79"/>
</a>
</g>
</g>
<!-- Node42&#45;&gt;Node43 -->
<g id="edge37_Node000042_Node000043" class="edge">
<title>Node42&#45;&gt;Node43</title>
<g id="a_edge37_Node000042_Node000043"><a xlink:title=" ">
<path fill="none" stroke="#63b8ff" d="M3213.01,-156.26C3204.19,-143.03 3192.16,-124.99 3183.91,-112.61"/>
<polygon fill="#63b8ff" stroke="#63b8ff" points="3210.31,-158.52 3218.76,-164.9 3216.13,-154.63 3210.31,-158.52"/>
</a>
</g>
</g>
<!-- Node92 -->
<g id="Node000092" class="node">
<title>Node92</title>
<g id="a_Node000092"><a xlink:href="_h_pool_8h.html" target="_top" xlink:title=" ">
<polygon fill="white" stroke="#666666" points="3826.5,-261 3712.5,-261 3712.5,-242 3826.5,-242 3826.5,-261"/>
<text text-anchor="middle" x="3769.5" y="-249" font-family="Helvetica,sans-Serif" font-size="10.00">Kit/Memory/HPool.h</text>
</a>
</g>
</g>
<!-- Node91&#45;&gt;Node92 -->
<g id="edge49_Node000091_Node000092" class="edge">
<title>Node91&#45;&gt;Node92</title>
<g id="a_edge49_Node000091_Node000092"><a xlink:title=" ">
<path fill="none" stroke="#63b8ff" d="M3661.49,-313.87C3688.59,-298.47 3731.86,-273.88 3754.53,-261"/>
<polygon fill="#63b8ff" stroke="#63b8ff" points="3659.61,-310.91 3652.64,-318.9 3663.07,-317 3659.61,-310.91"/>
</a>
</g>
</g>
<!-- Node93 -->
<g id="Node000093" class="node">
<title>Node93</title>
<g id="a_Node000093"><a xlink:href="_s_pool_8h.html" target="_top" xlink:title=" ">
<polygon fill="white" stroke="#666666" points="3694,-261 3581,-261 3581,-242 3694,-242 3694,-261"/>
<text text-anchor="middle" x="3637.5" y="-249" font-family="Helvetica,sans-Serif" font-size="10.00">Kit/Memory/SPool.h</text>
</a>
</g>
</g>
<!-- Node91&#45;&gt;Node93 -->
<g id="edge50_Node000091_Node000093" class="edge">
<title>Node91&#45;&gt;Node93</title>
<g id="a_edge50_Node000091_Node000093"><a xlink:title=" ">
<path fill="none" stroke="#63b8ff" d="M3637.5,-308.52C3637.5,-293.24 3637.5,-272.48 3637.5,-261"/>
<polygon fill="#63b8ff" stroke="#63b8ff" points="3634,-308.9 3637.5,-318.9 3641,-308.9 3634,-308.9"/>
</a>
</g>
</g>
<!-- Node95 -->
<g id="Node000095" class="node">
<title>Node95</title>
<g id="a_Node000095"><a xlink:href="_event_loop_8h.html" target="_top" xlink:title=" ">
<polygon fill="white" stroke="#666666" points="3563,-261 3430,-261 3430,-242 3563,-242 3563,-261"/>
<text text-anchor="middle" x="3496.5" y="-249" font-family="Helvetica,sans-Serif" font-size="10.00">Kit/System/EventLoop.h</text>
</a>
</g>
</g>
<!-- Node94&#45;&gt;Node95 -->
<g id="edge52_Node000094_Node000095" class="edge">
<title>Node94&#45;&gt;Node95</title>
<g id="a_edge52_Node000094_Node000095"><a xlink:title=" ">
<path fill="none" stroke="#63b8ff" d="M3491.27,-308.52C3492.7,-293.24 3494.64,-272.48 3495.71,-261"/>
<polygon fill="#63b8ff" stroke="#63b8ff" points="3487.75,-308.61 3490.3,-318.9 3494.72,-309.27 3487.75,-308.61"/>
</a>
</g>
</g>
<!-- Node95&#45;&gt;Node5 -->
<g id="edge53_Node000095_Node000005" class="edge">
<title>Node95&#45;&gt;Node5</title>
<g id="a_edge53_Node000095_Node000005"><a xlink:title=" ">
<path fill="none" stroke="#63b8ff" d="M3507.97,-233.29C3518.24,-217.88 3532.88,-195.93 3540.83,-184"/>
<polygon fill="#63b8ff" stroke="#63b8ff" points="3504.87,-231.63 3502.24,-241.9 3510.69,-235.52 3504.87,-231.63"/>
</a>
</g>
</g>
<!-- Node96 -->
<g id="Node000096" class="node">
<title>Node96</title>
<g id="a_Node000096"><a xlink:href="_event_loop_with_p_scheduling_8h.html" target="_top" xlink:title=" ">
<polygon fill="white" stroke="#666666" points="3778.5,-189.5 3632.5,-189.5 3632.5,-159.5 3778.5,-159.5 3778.5,-189.5"/>
<text text-anchor="start" x="3640.5" y="-177.5" font-family="Helvetica,sans-Serif" font-size="10.00">Kit/System/EventLoopWith</text>
<text text-anchor="middle" x="3705.5" y="-166.5" font-family="Helvetica,sans-Serif" font-size="10.00">PScheduling.h</text>
</a>
</g>
</g>
<!-- Node95&#45;&gt;Node96 -->
<g id="edge54_Node000095_Node000096" class="edge">
<title>Node95&#45;&gt;Node96</title>
<g id="a_edge54_Node000095_Node000096"><a xlink:title=" ">
<path fill="none" stroke="#63b8ff" d="M3530.32,-238.36C3567.45,-225.04 3626.99,-203.67 3666.17,-189.61"/>
<polygon fill="#63b8ff" stroke="#63b8ff" points="3528.71,-235.22 3520.47,-241.9 3531.07,-241.81 3528.71,-235.22"/>
</a>
</g>
</g>
</g>
</svg>
