<?xml version="1.0" encoding="UTF-8" standalone="no"?>
<!DOCTYPE svg PUBLIC "-//W3C//DTD SVG 1.1//EN"
 "http://www.w3.org/Graphics/SVG/1.1/DTD/svg11.dtd">
<!-- Generated by graphviz version 2.43.0 (0)
 -->
<!-- Title: Kit/Container/DList.h Pages: 1 -->
<svg width="3131pt" height="478pt"
 viewBox="0.00 0.00 3130.50 478.00" xmlns="http://www.w3.org/2000/svg" xmlns:xlink="http://www.w3.org/1999/xlink">
<g id="graph0" class="graph" transform="scale(1 1) rotate(0) translate(4 474)">
<title>Kit/Container/DList.h</title>
<!-- Node1 -->
<g id="Node000001" class="node">
<title>Node1</title>
<g id="a_Node000001"><a xlink:title=" ">
<polygon fill="#999999" stroke="#666666" points="838,-470 721,-470 721,-451 838,-451 838,-470"/>
<text text-anchor="middle" x="779.5" y="-458" font-family="Helvetica,sans-Serif" font-size="10.00">Kit/Container/DList.h</text>
</a>
</g>
</g>
<!-- Node2 -->
<g id="Node000002" class="node">
<title>Node2</title>
<g id="a_Node000002"><a xlink:href="_flasher_8h.html" target="_top" xlink:title=" ">
<polygon fill="white" stroke="#666666" points="551,-338 402,-338 402,-297 551,-297 551,-338"/>
<text text-anchor="start" x="410" y="-326" font-family="Helvetica,sans-Serif" font-size="10.00">/home/runner/work/kit.core</text>
<text text-anchor="start" x="410" y="-315" font-family="Helvetica,sans-Serif" font-size="10.00">/kit.core/projects/examples</text>
<text text-anchor="middle" x="476.5" y="-304" font-family="Helvetica,sans-Serif" font-size="10.00">/Container/Lists/Flasher.h</text>
</a>
</g>
</g>
<!-- Node1&#45;&gt;Node2 -->
<g id="edge1_Node000001_Node000002" class="edge">
<title>Node1&#45;&gt;Node2</title>
<g id="a_edge1_Node000001_Node000002"><a xlink:title=" ">
<path fill="none" stroke="#63b8ff" d="M710.54,-460.25C624.93,-459.54 486.16,-452.43 453.5,-415 434.81,-393.59 449.77,-359.69 462.76,-338.3"/>
<polygon fill="#63b8ff" stroke="#63b8ff" points="710.69,-463.75 720.71,-460.31 710.73,-456.75 710.69,-463.75"/>
</a>
</g>
</g>
<!-- Node3 -->
<g id="Node000003" class="node">
<title>Node3</title>
<g id="a_Node000003"><a xlink:href="_period_8h.html" target="_top" xlink:title=" ">
<polygon fill="white" stroke="#666666" points="612,-415 463,-415 463,-374 612,-374 612,-415"/>
<text text-anchor="start" x="471" y="-403" font-family="Helvetica,sans-Serif" font-size="10.00">/home/runner/work/kit.core</text>
<text text-anchor="start" x="471" y="-392" font-family="Helvetica,sans-Serif" font-size="10.00">/kit.core/projects/examples</text>
<text text-anchor="middle" x="537.5" y="-381" font-family="Helvetica,sans-Serif" font-size="10.00">/Container/Lists/Period.h</text>
</a>
</g>
</g>
<!-- Node1&#45;&gt;Node3 -->
<g id="edge2_Node000001_Node000003" class="edge">
<title>Node1&#45;&gt;Node3</title>
<g id="a_edge2_Node000001_Node000003"><a xlink:title=" ">
<path fill="none" stroke="#63b8ff" d="M737.32,-448.34C702.65,-439.18 652.71,-425.97 611.43,-415.05"/>
<polygon fill="#63b8ff" stroke="#63b8ff" points="736.55,-451.76 747.11,-450.94 738.34,-444.99 736.55,-451.76"/>
</a>
</g>
</g>
<!-- Node4 -->
<g id="Node000004" class="node">
<title>Node4</title>
<g id="a_Node000004"><a xlink:href="_change_handler_8h.html" target="_top" xlink:title=" ">
<polygon fill="white" stroke="#666666" points="767,-404 630,-404 630,-385 767,-385 767,-404"/>
<text text-anchor="middle" x="698.5" y="-392" font-family="Helvetica,sans-Serif" font-size="10.00">Kit/Dm/ChangeHandler.h</text>
</a>
</g>
</g>
<!-- Node1&#45;&gt;Node4 -->
<g id="edge4_Node000001_Node000004" class="edge">
<title>Node1&#45;&gt;Node4</title>
<g id="a_edge4_Node000001_Node000004"><a xlink:title=" ">
<path fill="none" stroke="#63b8ff" d="M760.5,-444.49C744.64,-431.96 722.59,-414.54 709.51,-404.2"/>
<polygon fill="#63b8ff" stroke="#63b8ff" points="758.56,-447.42 768.58,-450.87 762.9,-441.92 758.56,-447.42"/>
</a>
</g>
</g>
<!-- Node8 -->
<g id="Node000008" class="node">
<title>Node8</title>
<g id="a_Node000008"><a xlink:href="_model_point_base_8h.html" target="_top" xlink:title=" ">
<polygon fill="white" stroke="#666666" points="2197,-404 2056,-404 2056,-385 2197,-385 2197,-404"/>
<text text-anchor="middle" x="2126.5" y="-392" font-family="Helvetica,sans-Serif" font-size="10.00">Kit/Dm/ModelPointBase.h</text>
</a>
</g>
</g>
<!-- Node1&#45;&gt;Node8 -->
<g id="edge8_Node000001_Node000008" class="edge">
<title>Node1&#45;&gt;Node8</title>
<g id="a_edge8_Node000001_Node000008"><a xlink:title=" ">
<path fill="none" stroke="#63b8ff" d="M848.52,-456.22C1079.34,-445.25 1822.88,-409.93 2055.95,-398.85"/>
<polygon fill="#63b8ff" stroke="#63b8ff" points="848.07,-452.74 838.25,-456.71 848.4,-459.73 848.07,-452.74"/>
</a>
</g>
</g>
<!-- Node66 -->
<g id="Node000066" class="node">
<title>Node66</title>
<g id="a_Node000066"><a xlink:href="_pool_8h.html" target="_top" xlink:title=" ">
<polygon fill="white" stroke="#666666" points="2609,-404 2502,-404 2502,-385 2609,-385 2609,-404"/>
<text text-anchor="middle" x="2555.5" y="-392" font-family="Helvetica,sans-Serif" font-size="10.00">Kit/Memory/Pool.h</text>
</a>
</g>
</g>
<!-- Node1&#45;&gt;Node66 -->
<g id="edge50_Node000001_Node000066" class="edge">
<title>Node1&#45;&gt;Node66</title>
<g id="a_edge50_Node000001_Node000066"><a xlink:title=" ">
<path fill="none" stroke="#63b8ff" d="M848.33,-457.95C1054.3,-453.18 1683.82,-437.67 2205.5,-415 2310.53,-410.44 2433.19,-403.15 2501.86,-398.9"/>
<polygon fill="#63b8ff" stroke="#63b8ff" points="848.18,-454.45 838.27,-458.18 848.34,-461.45 848.18,-454.45"/>
</a>
</g>
</g>
<!-- Node69 -->
<g id="Node000069" class="node">
<title>Node69</title>
<g id="a_Node000069"><a xlink:href="_timer_manager_8h.html" target="_top" xlink:title=" ">
<polygon fill="white" stroke="#666666" points="937.5,-404 785.5,-404 785.5,-385 937.5,-385 937.5,-404"/>
<text text-anchor="middle" x="861.5" y="-392" font-family="Helvetica,sans-Serif" font-size="10.00">Kit/System/TimerManager.h</text>
</a>
</g>
</g>
<!-- Node1&#45;&gt;Node69 -->
<g id="edge53_Node000001_Node000069" class="edge">
<title>Node1&#45;&gt;Node69</title>
<g id="a_edge53_Node000001_Node000069"><a xlink:title=" ">
<path fill="none" stroke="#63b8ff" d="M798.73,-444.49C814.79,-431.96 837.11,-414.54 850.35,-404.2"/>
<polygon fill="#63b8ff" stroke="#63b8ff" points="796.29,-441.96 790.56,-450.87 800.6,-447.48 796.29,-441.96"/>
</a>
</g>
</g>
<!-- Node3&#45;&gt;Node2 -->
<g id="edge3_Node000003_Node000002" class="edge">
<title>Node3&#45;&gt;Node2</title>
<g id="a_edge3_Node000003_Node000002"><a xlink:title=" ">
<path fill="none" stroke="#63b8ff" d="M515.1,-365.95C507.57,-356.7 499.34,-346.58 492.42,-338.07"/>
<polygon fill="#63b8ff" stroke="#63b8ff" points="512.45,-368.25 521.47,-373.79 517.88,-363.83 512.45,-368.25"/>
</a>
</g>
</g>
<!-- Node5 -->
<g id="Node000005" class="node">
<title>Node5</title>
<g id="a_Node000005"><a xlink:href="src_2_kit_2_event_queue_2_server_8h.html" target="_top" xlink:title=" ">
<polygon fill="white" stroke="#666666" points="594,-250 459,-250 459,-231 594,-231 594,-250"/>
<text text-anchor="middle" x="526.5" y="-238" font-family="Helvetica,sans-Serif" font-size="10.00">Kit/EventQueue/Server.h</text>
</a>
</g>
</g>
<!-- Node4&#45;&gt;Node5 -->
<g id="edge5_Node000004_Node000005" class="edge">
<title>Node4&#45;&gt;Node5</title>
<g id="a_edge5_Node000004_Node000005"><a xlink:title=" ">
<path fill="none" stroke="#63b8ff" d="M681.05,-378.08C645.14,-346.34 564.03,-274.66 536.13,-250.01"/>
<polygon fill="#63b8ff" stroke="#63b8ff" points="678.95,-380.89 688.76,-384.89 683.58,-375.65 678.95,-380.89"/>
</a>
</g>
</g>
<!-- Node6 -->
<g id="Node000006" class="node">
<title>Node6</title>
<g id="a_Node000006"><a xlink:href="_with_periodic_scheduling_8h.html" target="_top" xlink:title=" ">
<polygon fill="white" stroke="#666666" points="157,-178.5 0,-178.5 0,-148.5 157,-148.5 157,-178.5"/>
<text text-anchor="start" x="8" y="-166.5" font-family="Helvetica,sans-Serif" font-size="10.00">Kit/EventQueue/WithPeriodic</text>
<text text-anchor="middle" x="78.5" y="-155.5" font-family="Helvetica,sans-Serif" font-size="10.00">Scheduling.h</text>
</a>
</g>
</g>
<!-- Node5&#45;&gt;Node6 -->
<g id="edge6_Node000005_Node000006" class="edge">
<title>Node5&#45;&gt;Node6</title>
<g id="a_edge6_Node000005_Node000006"><a xlink:title=" ">
<path fill="none" stroke="#63b8ff" d="M452.88,-229.58C379.95,-219.42 265.19,-202.52 166.5,-184 157.73,-182.35 148.51,-180.48 139.46,-178.55"/>
<polygon fill="#63b8ff" stroke="#63b8ff" points="452.5,-233.06 462.88,-230.97 453.46,-226.13 452.5,-233.06"/>
</a>
</g>
</g>
<!-- Node7 -->
<g id="Node000007" class="node">
<title>Node7</title>
<g id="a_Node000007"><a xlink:href="helpers_8h.html" target="_top" xlink:title="This file defines helper functions/interface for writing unit tests.">
<polygon fill="white" stroke="#666666" points="287.5,-178.5 175.5,-178.5 175.5,-148.5 287.5,-148.5 287.5,-178.5"/>
<text text-anchor="start" x="183.5" y="-166.5" font-family="Helvetica,sans-Serif" font-size="10.00">Kit/_support/testing</text>
<text text-anchor="middle" x="231.5" y="-155.5" font-family="Helvetica,sans-Serif" font-size="10.00">/helpers.h</text>
</a>
</g>
</g>
<!-- Node5&#45;&gt;Node7 -->
<g id="edge7_Node000005_Node000007" class="edge">
<title>Node5&#45;&gt;Node7</title>
<g id="a_edge7_Node000005_Node000007"><a xlink:title=" ">
<path fill="none" stroke="#63b8ff" d="M478.66,-228.76C432,-218.09 359.12,-200.93 296.5,-184 290.24,-182.31 283.68,-180.44 277.22,-178.56"/>
<polygon fill="#63b8ff" stroke="#63b8ff" points="477.96,-232.19 488.49,-231 479.52,-225.36 477.96,-232.19"/>
</a>
</g>
</g>
<!-- Node9 -->
<g id="Node000009" class="node">
<title>Node9</title>
<g id="a_Node000009"><a xlink:href="_array_base_8h.html" target="_top" xlink:title=" ">
<polygon fill="white" stroke="#666666" points="2330,-327 2199,-327 2199,-308 2330,-308 2330,-327"/>
<text text-anchor="middle" x="2264.5" y="-315" font-family="Helvetica,sans-Serif" font-size="10.00">Kit/Dm/Mp/ArrayBase.h</text>
</a>
</g>
</g>
<!-- Node8&#45;&gt;Node9 -->
<g id="edge9_Node000008_Node000009" class="edge">
<title>Node8&#45;&gt;Node9</title>
<g id="a_edge9_Node000008_Node000009"><a xlink:title=" ">
<path fill="none" stroke="#63b8ff" d="M2151.21,-380.07C2179.52,-364.68 2225.05,-339.94 2248.85,-327"/>
<polygon fill="#63b8ff" stroke="#63b8ff" points="2149.45,-377.05 2142.33,-384.9 2152.79,-383.2 2149.45,-377.05"/>
</a>
</g>
</g>
<!-- Node11 -->
<g id="Node000011" class="node">
<title>Node11</title>
<g id="a_Node000011"><a xlink:href="_enum_base_8h.html" target="_top" xlink:title=" ">
<polygon fill="white" stroke="#666666" points="2480.5,-327 2348.5,-327 2348.5,-308 2480.5,-308 2480.5,-327"/>
<text text-anchor="middle" x="2414.5" y="-315" font-family="Helvetica,sans-Serif" font-size="10.00">Kit/Dm/Mp/EnumBase.h</text>
</a>
</g>
</g>
<!-- Node8&#45;&gt;Node11 -->
<g id="edge11_Node000008_Node000011" class="edge">
<title>Node8&#45;&gt;Node11</title>
<g id="a_edge11_Node000008_Node000011"><a xlink:title=" ">
<path fill="none" stroke="#63b8ff" d="M2169.2,-382.38C2227.16,-367.29 2329.5,-340.64 2381.77,-327.02"/>
<polygon fill="#63b8ff" stroke="#63b8ff" points="2168.05,-379.06 2159.26,-384.97 2169.82,-385.84 2168.05,-379.06"/>
</a>
</g>
</g>
<!-- Node12 -->
<g id="Node000012" class="node">
<title>Node12</title>
<g id="a_Node000012"><a xlink:href="_scalar_8h.html" target="_top" xlink:title=" ">
<polygon fill="white" stroke="#666666" points="1617.5,-327 1507.5,-327 1507.5,-308 1617.5,-308 1617.5,-327"/>
<text text-anchor="middle" x="1562.5" y="-315" font-family="Helvetica,sans-Serif" font-size="10.00">Kit/Dm/Mp/Scalar.h</text>
</a>
</g>
</g>
<!-- Node8&#45;&gt;Node12 -->
<g id="edge12_Node000008_Node000012" class="edge">
<title>Node8&#45;&gt;Node12</title>
<g id="a_edge12_Node000008_Node000012"><a xlink:title=" ">
<path fill="none" stroke="#63b8ff" d="M2052.25,-383.63C1937.51,-368.37 1719.73,-339.41 1617.76,-325.85"/>
<polygon fill="#63b8ff" stroke="#63b8ff" points="2051.98,-387.12 2062.35,-384.97 2052.9,-380.18 2051.98,-387.12"/>
</a>
</g>
</g>
<!-- Node39 -->
<g id="Node000039" class="node">
<title>Node39</title>
<g id="a_Node000039"><a xlink:href="_string_8h.html" target="_top" xlink:title=" ">
<polygon fill="white" stroke="#666666" points="2181,-327 2072,-327 2072,-308 2181,-308 2181,-327"/>
<text text-anchor="middle" x="2126.5" y="-315" font-family="Helvetica,sans-Serif" font-size="10.00">Kit/Dm/Mp/String.h</text>
</a>
</g>
</g>
<!-- Node8&#45;&gt;Node39 -->
<g id="edge35_Node000008_Node000039" class="edge">
<title>Node8&#45;&gt;Node39</title>
<g id="a_edge35_Node000008_Node000039"><a xlink:title=" ">
<path fill="none" stroke="#63b8ff" d="M2126.5,-374.52C2126.5,-359.24 2126.5,-338.48 2126.5,-327"/>
<polygon fill="#63b8ff" stroke="#63b8ff" points="2123,-374.9 2126.5,-384.9 2130,-374.9 2123,-374.9"/>
</a>
</g>
</g>
<!-- Node10 -->
<g id="Node000010" class="node">
<title>Node10</title>
<g id="a_Node000010"><a xlink:href="_numeric_array_8h.html" target="_top" xlink:title=" ">
<polygon fill="white" stroke="#666666" points="3122.5,-250 2976.5,-250 2976.5,-231 3122.5,-231 3122.5,-250"/>
<text text-anchor="middle" x="3049.5" y="-238" font-family="Helvetica,sans-Serif" font-size="10.00">Kit/Dm/Mp/NumericArray.h</text>
</a>
</g>
</g>
<!-- Node9&#45;&gt;Node10 -->
<g id="edge10_Node000009_Node000010" class="edge">
<title>Node9&#45;&gt;Node10</title>
<g id="a_edge10_Node000009_Node000010"><a xlink:title=" ">
<path fill="none" stroke="#63b8ff" d="M2301.68,-305.29C2313.65,-302.1 2327.04,-298.96 2339.5,-297 2615.68,-253.61 2690.88,-301.5 2967.5,-261 2984.87,-258.46 3003.98,-254.01 3019.37,-250.01"/>
<polygon fill="#63b8ff" stroke="#63b8ff" points="2300.72,-301.92 2292.01,-307.96 2302.58,-308.67 2300.72,-301.92"/>
</a>
</g>
</g>
<!-- Node13 -->
<g id="Node000013" class="node">
<title>Node13</title>
<g id="a_Node000013"><a xlink:href="_mp_foo_8h.html" target="_top" xlink:title=" ">
<polygon fill="white" stroke="#666666" points="1977,-184 1828,-184 1828,-143 1977,-143 1977,-184"/>
<text text-anchor="start" x="1836" y="-172" font-family="Helvetica,sans-Serif" font-size="10.00">/home/runner/work/kit.core</text>
<text text-anchor="start" x="1836" y="-161" font-family="Helvetica,sans-Serif" font-size="10.00">/kit.core/projects/examples</text>
<text text-anchor="middle" x="1902.5" y="-150" font-family="Helvetica,sans-Serif" font-size="10.00">/Dm/Transaction/MpFoo.h</text>
</a>
</g>
</g>
<!-- Node12&#45;&gt;Node13 -->
<g id="edge13_Node000012_Node000013" class="edge">
<title>Node12&#45;&gt;Node13</title>
<g id="a_edge13_Node000012_Node000013"><a xlink:title=" ">
<path fill="none" stroke="#63b8ff" d="M1560.38,-297.73C1559.04,-275.81 1560.6,-240.01 1581.5,-220 1619.98,-183.16 1766.18,-194.03 1818.5,-184 1821.59,-183.41 1824.73,-182.78 1827.91,-182.13"/>
<polygon fill="#63b8ff" stroke="#63b8ff" points="1556.9,-298.11 1561.26,-307.77 1563.87,-297.51 1556.9,-298.11"/>
</a>
</g>
</g>
<!-- Node18 -->
<g id="Node000018" class="node">
<title>Node18</title>
<g id="a_Node000018"><a xlink:href="_primitive_type_8h.html" target="_top" xlink:title=" ">
<polygon fill="white" stroke="#666666" points="1239,-250 1092,-250 1092,-231 1239,-231 1239,-250"/>
<text text-anchor="middle" x="1165.5" y="-238" font-family="Helvetica,sans-Serif" font-size="10.00">Kit/Dm/Mp/PrimitiveType.h</text>
</a>
</g>
</g>
<!-- Node12&#45;&gt;Node18 -->
<g id="edge18_Node000012_Node000018" class="edge">
<title>Node12&#45;&gt;Node18</title>
<g id="a_edge18_Node000012_Node000018"><a xlink:title=" ">
<path fill="none" stroke="#63b8ff" d="M1507.08,-306.03C1427.85,-291.06 1283.72,-263.83 1210.61,-250.02"/>
<polygon fill="#63b8ff" stroke="#63b8ff" points="1506.87,-309.55 1517.35,-307.97 1508.17,-302.67 1506.87,-309.55"/>
</a>
</g>
</g>
<!-- Node14 -->
<g id="Node000014" class="node">
<title>Node14</title>
<g id="a_Node000014"><a xlink:href="_dm_2_transaction_2_client_8h.html" target="_top" xlink:title=" ">
<polygon fill="white" stroke="#666666" points="1956,-107 1807,-107 1807,-66 1956,-66 1956,-107"/>
<text text-anchor="start" x="1815" y="-95" font-family="Helvetica,sans-Serif" font-size="10.00">/home/runner/work/kit.core</text>
<text text-anchor="start" x="1815" y="-84" font-family="Helvetica,sans-Serif" font-size="10.00">/kit.core/projects/examples</text>
<text text-anchor="middle" x="1881.5" y="-73" font-family="Helvetica,sans-Serif" font-size="10.00">/Dm/Transaction/Client.h</text>
</a>
</g>
</g>
<!-- Node13&#45;&gt;Node14 -->
<g id="edge14_Node000013_Node000014" class="edge">
<title>Node13&#45;&gt;Node14</title>
<g id="a_edge14_Node000013_Node000014"><a xlink:title=" ">
<path fill="none" stroke="#63b8ff" d="M1894.23,-132.98C1891.8,-124.28 1889.19,-114.98 1886.98,-107.07"/>
<polygon fill="#63b8ff" stroke="#63b8ff" points="1890.92,-134.11 1896.98,-142.79 1897.66,-132.22 1890.92,-134.11"/>
</a>
</g>
</g>
<!-- Node15 -->
<g id="Node000015" class="node">
<title>Node15</title>
<g id="a_Node000015"><a xlink:href="_dm_2_transaction_2_model_points_8h.html" target="_top" xlink:title="This file defines all of the Model Points for Example application.">
<polygon fill="white" stroke="#666666" points="1466,-107 1299,-107 1299,-66 1466,-66 1466,-107"/>
<text text-anchor="start" x="1307" y="-95" font-family="Helvetica,sans-Serif" font-size="10.00">/home/runner/work/kit.core</text>
<text text-anchor="start" x="1307" y="-84" font-family="Helvetica,sans-Serif" font-size="10.00">/kit.core/projects/examples</text>
<text text-anchor="middle" x="1382.5" y="-73" font-family="Helvetica,sans-Serif" font-size="10.00">/Dm/Transaction/ModelPoints.h</text>
</a>
</g>
</g>
<!-- Node13&#45;&gt;Node15 -->
<g id="edge15_Node000013_Node000015" class="edge">
<title>Node13&#45;&gt;Node15</title>
<g id="a_edge15_Node000013_Node000015"><a xlink:title=" ">
<path fill="none" stroke="#63b8ff" d="M1817.9,-142.99C1689.43,-120.33 1551.87,-104.48 1466.06,-95.59"/>
<polygon fill="#63b8ff" stroke="#63b8ff" points="1817.47,-146.47 1827.93,-144.77 1818.7,-139.57 1817.47,-146.47"/>
</a>
</g>
</g>
<!-- Node16 -->
<g id="Node000016" class="node">
<title>Node16</title>
<g id="a_Node000016"><a xlink:href="projects_2examples_2_dm_2_transaction_2_server_8h.html" target="_top" xlink:title=" ">
<polygon fill="white" stroke="#666666" points="2123,-107 1974,-107 1974,-66 2123,-66 2123,-107"/>
<text text-anchor="start" x="1982" y="-95" font-family="Helvetica,sans-Serif" font-size="10.00">/home/runner/work/kit.core</text>
<text text-anchor="start" x="1982" y="-84" font-family="Helvetica,sans-Serif" font-size="10.00">/kit.core/projects/examples</text>
<text text-anchor="middle" x="2048.5" y="-73" font-family="Helvetica,sans-Serif" font-size="10.00">/Dm/Transaction/Server.h</text>
</a>
</g>
</g>
<!-- Node13&#45;&gt;Node16 -->
<g id="edge16_Node000013_Node000016" class="edge">
<title>Node13&#45;&gt;Node16</title>
<g id="a_edge16_Node000013_Node000016"><a xlink:title=" ">
<path fill="none" stroke="#63b8ff" d="M1949.59,-138.31C1969.27,-128.2 1991.85,-116.6 2010.46,-107.04"/>
<polygon fill="#63b8ff" stroke="#63b8ff" points="1947.77,-135.31 1940.48,-142.99 1950.97,-141.53 1947.77,-135.31"/>
</a>
</g>
</g>
<!-- Node17 -->
<g id="Node000017" class="node">
<title>Node17</title>
<g id="a_Node000017"><a xlink:href="_itc_2_synchronous_2_client_8h.html" target="_top" xlink:title=" ">
<polygon fill="white" stroke="#666666" points="1789,-107 1640,-107 1640,-66 1789,-66 1789,-107"/>
<text text-anchor="start" x="1648" y="-95" font-family="Helvetica,sans-Serif" font-size="10.00">/home/runner/work/kit.core</text>
<text text-anchor="start" x="1648" y="-84" font-family="Helvetica,sans-Serif" font-size="10.00">/kit.core/projects/examples</text>
<text text-anchor="middle" x="1714.5" y="-73" font-family="Helvetica,sans-Serif" font-size="10.00">/Itc/Synchronous/Client.h</text>
</a>
</g>
</g>
<!-- Node13&#45;&gt;Node17 -->
<g id="edge17_Node000013_Node000017" class="edge">
<title>Node13&#45;&gt;Node17</title>
<g id="a_edge17_Node000013_Node000017"><a xlink:title=" ">
<path fill="none" stroke="#63b8ff" d="M1844.26,-139.27C1818.36,-128.94 1788.21,-116.9 1763.49,-107.04"/>
<polygon fill="#63b8ff" stroke="#63b8ff" points="1843.01,-142.54 1853.6,-142.99 1845.6,-136.03 1843.01,-142.54"/>
</a>
</g>
</g>
<!-- Node19 -->
<g id="Node000019" class="node">
<title>Node19</title>
<g id="a_Node000019"><a xlink:href="_bool_8h.html" target="_top" xlink:title=" ">
<polygon fill="white" stroke="#666666" points="1277.5,-173 1175.5,-173 1175.5,-154 1277.5,-154 1277.5,-173"/>
<text text-anchor="middle" x="1226.5" y="-161" font-family="Helvetica,sans-Serif" font-size="10.00">Kit/Dm/Mp/Bool.h</text>
</a>
</g>
</g>
<!-- Node18&#45;&gt;Node19 -->
<g id="edge19_Node000018_Node000019" class="edge">
<title>Node18&#45;&gt;Node19</title>
<g id="a_edge19_Node000018_Node000019"><a xlink:title=" ">
<path fill="none" stroke="#63b8ff" d="M1179.14,-222.73C1191.69,-207.3 1209.79,-185.04 1219.58,-173"/>
<polygon fill="#63b8ff" stroke="#63b8ff" points="1176.09,-220.93 1172.5,-230.9 1181.52,-225.35 1176.09,-220.93"/>
</a>
</g>
</g>
<!-- Node20 -->
<g id="Node000020" class="node">
<title>Node20</title>
<g id="a_Node000020"><a xlink:href="_double_8h.html" target="_top" xlink:title=" ">
<polygon fill="white" stroke="#666666" points="665,-173 550,-173 550,-154 665,-154 665,-173"/>
<text text-anchor="middle" x="607.5" y="-161" font-family="Helvetica,sans-Serif" font-size="10.00">Kit/Dm/Mp/Double.h</text>
</a>
</g>
</g>
<!-- Node18&#45;&gt;Node20 -->
<g id="edge21_Node000018_Node000020" class="edge">
<title>Node18&#45;&gt;Node20</title>
<g id="a_edge21_Node000018_Node000020"><a xlink:title=" ">
<path fill="none" stroke="#63b8ff" d="M1081.75,-234.53C983.28,-227.66 815.28,-212.71 673.5,-184 659.8,-181.23 644.84,-176.91 632.63,-173.05"/>
<polygon fill="#63b8ff" stroke="#63b8ff" points="1081.72,-238.04 1091.94,-235.23 1082.2,-231.05 1081.72,-238.04"/>
</a>
</g>
</g>
<!-- Node21 -->
<g id="Node000021" class="node">
<title>Node21</title>
<g id="a_Node000021"><a xlink:href="_float_8h.html" target="_top" xlink:title=" ">
<polygon fill="white" stroke="#666666" points="788,-173 683,-173 683,-154 788,-154 788,-173"/>
<text text-anchor="middle" x="735.5" y="-161" font-family="Helvetica,sans-Serif" font-size="10.00">Kit/Dm/Mp/Float.h</text>
</a>
</g>
</g>
<!-- Node18&#45;&gt;Node21 -->
<g id="edge22_Node000018_Node000021" class="edge">
<title>Node18&#45;&gt;Node21</title>
<g id="a_edge22_Node000018_Node000021"><a xlink:title=" ">
<path fill="none" stroke="#63b8ff" d="M1081.32,-230.73C1006.05,-221.97 893.06,-206.54 796.5,-184 784.05,-181.09 770.47,-176.86 759.3,-173.08"/>
<polygon fill="#63b8ff" stroke="#63b8ff" points="1081.35,-234.26 1091.68,-231.92 1082.15,-227.3 1081.35,-234.26"/>
</a>
</g>
</g>
<!-- Node22 -->
<g id="Node000022" class="node">
<title>Node22</title>
<g id="a_Node000022"><a xlink:href="_int16_8h.html" target="_top" xlink:title=" ">
<polygon fill="white" stroke="#666666" points="911,-173 806,-173 806,-154 911,-154 911,-173"/>
<text text-anchor="middle" x="858.5" y="-161" font-family="Helvetica,sans-Serif" font-size="10.00">Kit/Dm/Mp/Int16.h</text>
</a>
</g>
</g>
<!-- Node18&#45;&gt;Node22 -->
<g id="edge23_Node000018_Node000022" class="edge">
<title>Node18&#45;&gt;Node22</title>
<g id="a_edge23_Node000018_Node000022"><a xlink:title=" ">
<path fill="none" stroke="#63b8ff" d="M1112.16,-228.87C1062.11,-218.57 985.31,-201.9 919.5,-184 907.59,-180.76 894.54,-176.66 883.58,-173.06"/>
<polygon fill="#63b8ff" stroke="#63b8ff" points="1111.61,-232.33 1122.11,-230.91 1113.02,-225.48 1111.61,-232.33"/>
</a>
</g>
</g>
<!-- Node23 -->
<g id="Node000023" class="node">
<title>Node23</title>
<g id="a_Node000023"><a xlink:href="_int32_8h.html" target="_top" xlink:title=" ">
<polygon fill="white" stroke="#666666" points="1034,-173 929,-173 929,-154 1034,-154 1034,-173"/>
<text text-anchor="middle" x="981.5" y="-161" font-family="Helvetica,sans-Serif" font-size="10.00">Kit/Dm/Mp/Int32.h</text>
</a>
</g>
</g>
<!-- Node18&#45;&gt;Node23 -->
<g id="edge24_Node000018_Node000023" class="edge">
<title>Node18&#45;&gt;Node23</title>
<g id="a_edge24_Node000018_Node000023"><a xlink:title=" ">
<path fill="none" stroke="#63b8ff" d="M1134.98,-227.06C1097.46,-211.77 1034.79,-186.22 1002.36,-173"/>
<polygon fill="#63b8ff" stroke="#63b8ff" points="1133.81,-230.36 1144.39,-230.9 1136.45,-223.88 1133.81,-230.36"/>
</a>
</g>
</g>
<!-- Node24 -->
<g id="Node000024" class="node">
<title>Node24</title>
<g id="a_Node000024"><a xlink:href="_int64_8h.html" target="_top" xlink:title=" ">
<polygon fill="white" stroke="#666666" points="1157,-173 1052,-173 1052,-154 1157,-154 1157,-173"/>
<text text-anchor="middle" x="1104.5" y="-161" font-family="Helvetica,sans-Serif" font-size="10.00">Kit/Dm/Mp/Int64.h</text>
</a>
</g>
</g>
<!-- Node18&#45;&gt;Node24 -->
<g id="edge25_Node000018_Node000024" class="edge">
<title>Node18&#45;&gt;Node24</title>
<g id="a_edge25_Node000018_Node000024"><a xlink:title=" ">
<path fill="none" stroke="#63b8ff" d="M1151.86,-222.73C1139.31,-207.3 1121.21,-185.04 1111.42,-173"/>
<polygon fill="#63b8ff" stroke="#63b8ff" points="1149.48,-225.35 1158.5,-230.9 1154.91,-220.93 1149.48,-225.35"/>
</a>
</g>
</g>
<!-- Node25 -->
<g id="Node000025" class="node">
<title>Node25</title>
<g id="a_Node000025"><a xlink:href="_int8_8h.html" target="_top" xlink:title=" ">
<polygon fill="white" stroke="#666666" points="1395,-173 1296,-173 1296,-154 1395,-154 1395,-173"/>
<text text-anchor="middle" x="1345.5" y="-161" font-family="Helvetica,sans-Serif" font-size="10.00">Kit/Dm/Mp/Int8.h</text>
</a>
</g>
</g>
<!-- Node18&#45;&gt;Node25 -->
<g id="edge26_Node000018_Node000025" class="edge">
<title>Node18&#45;&gt;Node25</title>
<g id="a_edge26_Node000018_Node000025"><a xlink:title=" ">
<path fill="none" stroke="#63b8ff" d="M1195.83,-226.86C1232.58,-211.55 1293.5,-186.17 1325.09,-173"/>
<polygon fill="#63b8ff" stroke="#63b8ff" points="1194.03,-223.82 1186.15,-230.9 1196.73,-230.28 1194.03,-223.82"/>
</a>
</g>
</g>
<!-- Node26 -->
<g id="Node000026" class="node">
<title>Node26</title>
<g id="a_Node000026"><a xlink:href="_ref_counter_8h.html" target="_top" xlink:title=" ">
<polygon fill="white" stroke="#666666" points="1547.5,-173 1413.5,-173 1413.5,-154 1547.5,-154 1547.5,-173"/>
<text text-anchor="middle" x="1480.5" y="-161" font-family="Helvetica,sans-Serif" font-size="10.00">Kit/Dm/Mp/RefCounter.h</text>
</a>
</g>
</g>
<!-- Node18&#45;&gt;Node26 -->
<g id="edge27_Node000018_Node000026" class="edge">
<title>Node18&#45;&gt;Node26</title>
<g id="a_edge27_Node000018_Node000026"><a xlink:title=" ">
<path fill="none" stroke="#63b8ff" d="M1212.88,-228.73C1260.95,-217.74 1337.49,-200.05 1403.5,-184 1417.84,-180.51 1433.64,-176.53 1447.18,-173.08"/>
<polygon fill="#63b8ff" stroke="#63b8ff" points="1212.03,-225.33 1203.06,-230.97 1213.59,-232.16 1212.03,-225.33"/>
</a>
</g>
</g>
<!-- Node27 -->
<g id="Node000027" class="node">
<title>Node27</title>
<g id="a_Node000027"><a xlink:href="_uint16_8h.html" target="_top" xlink:title=" ">
<polygon fill="#fff0f0" stroke="red" points="1679,-173 1566,-173 1566,-154 1679,-154 1679,-173"/>
<text text-anchor="middle" x="1622.5" y="-161" font-family="Helvetica,sans-Serif" font-size="10.00">Kit/Dm/Mp/Uint16.h</text>
</a>
</g>
</g>
<!-- Node18&#45;&gt;Node27 -->
<g id="edge28_Node000018_Node000027" class="edge">
<title>Node18&#45;&gt;Node27</title>
<g id="a_edge28_Node000018_Node000027"><a xlink:title=" ">
<path fill="none" stroke="#63b8ff" d="M1249.18,-231.21C1328.79,-222.48 1451.61,-206.81 1556.5,-184 1569.93,-181.08 1584.61,-176.85 1596.71,-173.07"/>
<polygon fill="#63b8ff" stroke="#63b8ff" points="1248.78,-227.73 1239.21,-232.29 1249.53,-234.69 1248.78,-227.73"/>
</a>
</g>
</g>
<!-- Node29 -->
<g id="Node000029" class="node">
<title>Node29</title>
<g id="a_Node000029"><a xlink:href="_uint32_8h.html" target="_top" xlink:title=" ">
<polygon fill="#fff0f0" stroke="red" points="2108,-173 1995,-173 1995,-154 2108,-154 2108,-173"/>
<text text-anchor="middle" x="2051.5" y="-161" font-family="Helvetica,sans-Serif" font-size="10.00">Kit/Dm/Mp/Uint32.h</text>
</a>
</g>
</g>
<!-- Node18&#45;&gt;Node29 -->
<g id="edge29_Node000018_Node000029" class="edge">
<title>Node18&#45;&gt;Node29</title>
<g id="a_edge29_Node000018_Node000029"><a xlink:title=" ">
<path fill="none" stroke="#63b8ff" d="M1249.2,-236.17C1428.75,-228.65 1845.92,-209.03 1985.5,-184 1999.61,-181.47 2015,-177.03 2027.36,-173.02"/>
<polygon fill="#63b8ff" stroke="#63b8ff" points="1248.86,-232.68 1239.02,-236.6 1249.15,-239.68 1248.86,-232.68"/>
</a>
</g>
</g>
<!-- Node36 -->
<g id="Node000036" class="node">
<title>Node36</title>
<g id="a_Node000036"><a xlink:href="_uint64_8h.html" target="_top" xlink:title=" ">
<polygon fill="white" stroke="#666666" points="1810,-173 1697,-173 1697,-154 1810,-154 1810,-173"/>
<text text-anchor="middle" x="1753.5" y="-161" font-family="Helvetica,sans-Serif" font-size="10.00">Kit/Dm/Mp/Uint64.h</text>
</a>
</g>
</g>
<!-- Node18&#45;&gt;Node36 -->
<g id="edge32_Node000018_Node000036" class="edge">
<title>Node18&#45;&gt;Node36</title>
<g id="a_edge32_Node000018_Node000036"><a xlink:title=" ">
<path fill="none" stroke="#63b8ff" d="M1249.28,-235.28C1352.98,-228.99 1534.61,-214.45 1687.5,-184 1701.21,-181.27 1716.17,-176.96 1728.38,-173.09"/>
<polygon fill="#63b8ff" stroke="#63b8ff" points="1248.96,-231.79 1239.18,-235.88 1249.37,-238.78 1248.96,-231.79"/>
</a>
</g>
</g>
<!-- Node37 -->
<g id="Node000037" class="node">
<title>Node37</title>
<g id="a_Node000037"><a xlink:href="_uint8_8h.html" target="_top" xlink:title=" ">
<polygon fill="#fff0f0" stroke="red" points="413,-173 306,-173 306,-154 413,-154 413,-173"/>
<text text-anchor="middle" x="359.5" y="-161" font-family="Helvetica,sans-Serif" font-size="10.00">Kit/Dm/Mp/Uint8.h</text>
</a>
</g>
</g>
<!-- Node18&#45;&gt;Node37 -->
<g id="edge33_Node000018_Node000037" class="edge">
<title>Node18&#45;&gt;Node37</title>
<g id="a_edge33_Node000018_Node000037"><a xlink:title=" ">
<path fill="none" stroke="#63b8ff" d="M1081.99,-234.36C901.25,-223.07 484.94,-196.17 421.5,-184 408.2,-181.45 393.75,-177 382.14,-173"/>
<polygon fill="#63b8ff" stroke="#63b8ff" points="1081.79,-237.85 1091.98,-234.98 1082.22,-230.87 1081.79,-237.85"/>
</a>
</g>
</g>
<!-- Node38 -->
<g id="Node000038" class="node">
<title>Node38</title>
<g id="a_Node000038"><a xlink:href="_void_8h.html" target="_top" xlink:title=" ">
<polygon fill="white" stroke="#666666" points="532,-173 431,-173 431,-154 532,-154 532,-173"/>
<text text-anchor="middle" x="481.5" y="-161" font-family="Helvetica,sans-Serif" font-size="10.00">Kit/Dm/Mp/Void.h</text>
</a>
</g>
</g>
<!-- Node18&#45;&gt;Node38 -->
<g id="edge34_Node000018_Node000038" class="edge">
<title>Node18&#45;&gt;Node38</title>
<g id="a_edge34_Node000018_Node000038"><a xlink:title=" ">
<path fill="none" stroke="#63b8ff" d="M1081.52,-234.45C935.71,-225.28 641.62,-204.91 540.5,-184 527.93,-181.4 514.3,-177 503.3,-173.04"/>
<polygon fill="#63b8ff" stroke="#63b8ff" points="1081.56,-237.96 1091.76,-235.09 1082,-230.97 1081.56,-237.96"/>
</a>
</g>
</g>
<!-- Node19&#45;&gt;Node15 -->
<g id="edge20_Node000019_Node000015" class="edge">
<title>Node19&#45;&gt;Node15</title>
<g id="a_edge20_Node000019_Node000015"><a xlink:title=" ">
<path fill="none" stroke="#63b8ff" d="M1253.42,-149.56C1277.76,-137.86 1313.95,-120.45 1341.83,-107.05"/>
<polygon fill="#63b8ff" stroke="#63b8ff" points="1251.89,-146.41 1244.4,-153.9 1254.92,-152.72 1251.89,-146.41"/>
</a>
</g>
</g>
<!-- Node31 -->
<g id="Node000031" class="node">
<title>Node31</title>
<g id="a_Node000031"><a xlink:href="_ring_buffer_m_p_8h.html" target="_top" xlink:title=" ">
<polygon fill="#fff0f0" stroke="red" points="2298,-96 2141,-96 2141,-77 2298,-77 2298,-96"/>
<text text-anchor="middle" x="2219.5" y="-84" font-family="Helvetica,sans-Serif" font-size="10.00">Kit/Container/RingBufferMP.h</text>
</a>
</g>
</g>
<!-- Node29&#45;&gt;Node31 -->
<g id="edge30_Node000029_Node000031" class="edge">
<title>Node29&#45;&gt;Node31</title>
<g id="a_edge30_Node000029_Node000031"><a xlink:title=" ">
<path fill="none" stroke="#63b8ff" d="M2080.25,-149.67C2114.6,-134.33 2171.1,-109.11 2200.45,-96"/>
<polygon fill="#63b8ff" stroke="#63b8ff" points="2078.48,-146.62 2070.77,-153.9 2081.33,-153.02 2078.48,-146.62"/>
</a>
</g>
</g>
<!-- Node34 -->
<g id="Node000034" class="node">
<title>Node34</title>
<g id="a_Node000034"><a xlink:href="_ring_buffer_m_p_allocate_8h.html" target="_top" xlink:title=" ">
<polygon fill="white" stroke="#666666" points="2339.5,-30 2205.5,-30 2205.5,0 2339.5,0 2339.5,-30"/>
<text text-anchor="start" x="2213.5" y="-18" font-family="Helvetica,sans-Serif" font-size="10.00">Kit/Container/RingBuffer</text>
<text text-anchor="middle" x="2272.5" y="-7" font-family="Helvetica,sans-Serif" font-size="10.00">MPAllocate.h</text>
</a>
</g>
</g>
<!-- Node31&#45;&gt;Node34 -->
<g id="edge31_Node000031_Node000034" class="edge">
<title>Node31&#45;&gt;Node34</title>
<g id="a_edge31_Node000031_Node000034"><a xlink:title=" ">
<path fill="none" stroke="#63b8ff" d="M2232.21,-68.84C2241.22,-57.02 2253.17,-41.34 2261.72,-30.14"/>
<polygon fill="#63b8ff" stroke="#63b8ff" points="2229.28,-66.9 2226,-76.98 2234.85,-71.15 2229.28,-66.9"/>
</a>
</g>
</g>
<!-- Node39&#45;&gt;Node34 -->
<g id="edge42_Node000039_Node000034" class="edge">
<title>Node39&#45;&gt;Node34</title>
<g id="a_edge42_Node000039_Node000034"><a xlink:title=" ">
<path fill="none" stroke="#63b8ff" d="M2163.74,-304.96C2172.21,-302.34 2181.16,-299.57 2189.5,-297 2241.49,-280.96 2274.18,-304.76 2306.5,-261 2357.99,-191.29 2331.99,-148.83 2306.5,-66 2302.36,-52.56 2293.24,-39.49 2285.49,-30.08"/>
<polygon fill="#63b8ff" stroke="#63b8ff" points="2162.61,-301.65 2154.1,-307.95 2164.68,-308.33 2162.61,-301.65"/>
</a>
</g>
</g>
<!-- Node40 -->
<g id="Node000040" class="node">
<title>Node40</title>
<g id="a_Node000040"><a xlink:href="_foo_t_8h.html" target="_top" xlink:title=" ">
<polygon fill="white" stroke="#666666" points="2099,-261 1950,-261 1950,-220 2099,-220 2099,-261"/>
<text text-anchor="start" x="1958" y="-249" font-family="Helvetica,sans-Serif" font-size="10.00">/home/runner/work/kit.core</text>
<text text-anchor="start" x="1958" y="-238" font-family="Helvetica,sans-Serif" font-size="10.00">/kit.core/projects/examples</text>
<text text-anchor="middle" x="2024.5" y="-227" font-family="Helvetica,sans-Serif" font-size="10.00">/Dm/Transaction/FooT.h</text>
</a>
</g>
</g>
<!-- Node39&#45;&gt;Node40 -->
<g id="edge36_Node000039_Node000040" class="edge">
<title>Node39&#45;&gt;Node40</title>
<g id="a_edge36_Node000039_Node000040"><a xlink:title=" ">
<path fill="none" stroke="#63b8ff" d="M2106.33,-301.67C2090.58,-290.09 2068.54,-273.88 2051.3,-261.21"/>
<polygon fill="#63b8ff" stroke="#63b8ff" points="2104.67,-304.79 2114.8,-307.9 2108.82,-299.15 2104.67,-304.79"/>
</a>
</g>
</g>
<!-- Node41 -->
<g id="Node000041" class="node">
<title>Node41</title>
<g id="a_Node000041"><a xlink:href="_ring_buffer_8h.html" target="_top" xlink:title=" ">
<polygon fill="#fff0f0" stroke="red" points="2298,-250 2155,-250 2155,-231 2298,-231 2298,-250"/>
<text text-anchor="middle" x="2226.5" y="-238" font-family="Helvetica,sans-Serif" font-size="10.00">Kit/Container/RingBuffer.h</text>
</a>
</g>
</g>
<!-- Node39&#45;&gt;Node41 -->
<g id="edge38_Node000039_Node000041" class="edge">
<title>Node39&#45;&gt;Node41</title>
<g id="a_edge38_Node000039_Node000041"><a xlink:title=" ">
<path fill="none" stroke="#63b8ff" d="M2146.04,-301.85C2166.63,-286.4 2198.36,-262.6 2215.16,-250"/>
<polygon fill="#63b8ff" stroke="#63b8ff" points="2143.87,-299.1 2137.97,-307.9 2148.07,-304.7 2143.87,-299.1"/>
</a>
</g>
</g>
<!-- Node42 -->
<g id="Node000042" class="node">
<title>Node42</title>
<g id="a_Node000042"><a xlink:href="_ring_buffer_allocate_8h.html" target="_top" xlink:title=" ">
<polygon fill="#fff0f0" stroke="red" points="2260.5,-178.5 2126.5,-178.5 2126.5,-148.5 2260.5,-148.5 2260.5,-178.5"/>
<text text-anchor="start" x="2134.5" y="-166.5" font-family="Helvetica,sans-Serif" font-size="10.00">Kit/Container/RingBuffer</text>
<text text-anchor="middle" x="2193.5" y="-155.5" font-family="Helvetica,sans-Serif" font-size="10.00">Allocate.h</text>
</a>
</g>
</g>
<!-- Node39&#45;&gt;Node42 -->
<g id="edge41_Node000039_Node000042" class="edge">
<title>Node39&#45;&gt;Node42</title>
<g id="a_edge41_Node000039_Node000042"><a xlink:title=" ">
<path fill="none" stroke="#63b8ff" d="M2127.35,-297.74C2128.89,-277.6 2133.24,-245.13 2145.5,-220 2153.21,-204.2 2166.55,-189.31 2177.22,-178.93"/>
<polygon fill="#63b8ff" stroke="#63b8ff" points="2123.85,-297.58 2126.74,-307.77 2130.84,-298 2123.85,-297.58"/>
</a>
</g>
</g>
<!-- Node45 -->
<g id="Node000045" class="node">
<title>Node45</title>
<g id="a_Node000045"><a xlink:href="_ring_buffer_m_t_allocate_8h.html" target="_top" xlink:title=" ">
<polygon fill="white" stroke="#666666" points="2488.5,-255.5 2354.5,-255.5 2354.5,-225.5 2488.5,-225.5 2488.5,-255.5"/>
<text text-anchor="start" x="2362.5" y="-243.5" font-family="Helvetica,sans-Serif" font-size="10.00">Kit/Container/RingBuffer</text>
<text text-anchor="middle" x="2421.5" y="-232.5" font-family="Helvetica,sans-Serif" font-size="10.00">MTAllocate.h</text>
</a>
</g>
</g>
<!-- Node39&#45;&gt;Node45 -->
<g id="edge43_Node000039_Node000045" class="edge">
<title>Node39&#45;&gt;Node45</title>
<g id="a_edge43_Node000039_Node000045"><a xlink:title=" ">
<path fill="none" stroke="#63b8ff" d="M2162.39,-304.94C2171.22,-302.22 2180.67,-299.42 2189.5,-297 2256.05,-278.79 2273.41,-277.07 2340.5,-261 2347.81,-259.25 2355.5,-257.4 2363.1,-255.57"/>
<polygon fill="#63b8ff" stroke="#63b8ff" points="2161.25,-301.63 2152.75,-307.95 2163.34,-308.31 2161.25,-301.63"/>
</a>
</g>
</g>
<!-- Node50 -->
<g id="Node000050" class="node">
<title>Node50</title>
<g id="a_Node000050"><a xlink:href="_driver_2_n_v_2_null_8h.html" target="_top" xlink:title=" ">
<polygon fill="white" stroke="#666666" points="2618.5,-250 2506.5,-250 2506.5,-231 2618.5,-231 2618.5,-250"/>
<text text-anchor="middle" x="2562.5" y="-238" font-family="Helvetica,sans-Serif" font-size="10.00">Kit/Driver/NV/Null.h</text>
</a>
</g>
</g>
<!-- Node39&#45;&gt;Node50 -->
<g id="edge44_Node000039_Node000050" class="edge">
<title>Node39&#45;&gt;Node50</title>
<g id="a_edge44_Node000039_Node000050"><a xlink:title=" ">
<path fill="none" stroke="#63b8ff" d="M2160.23,-304.81C2169.61,-301.9 2179.87,-299.03 2189.5,-297 2324.34,-268.5 2362.53,-288.91 2497.5,-261 2511,-258.21 2525.74,-253.9 2537.76,-250.03"/>
<polygon fill="#63b8ff" stroke="#63b8ff" points="2158.91,-301.56 2150.46,-307.95 2161.05,-308.22 2158.91,-301.56"/>
</a>
</g>
</g>
<!-- Node51 -->
<g id="Node000051" class="node">
<title>Node51</title>
<g id="a_Node000051"><a xlink:href="_entry_data_8h.html" target="_top" xlink:title=" ">
<polygon fill="#fff0f0" stroke="red" points="2766,-255.5 2637,-255.5 2637,-225.5 2766,-225.5 2766,-255.5"/>
<text text-anchor="start" x="2645" y="-243.5" font-family="Helvetica,sans-Serif" font-size="10.00">Kit/Logging/Framework</text>
<text text-anchor="middle" x="2701.5" y="-232.5" font-family="Helvetica,sans-Serif" font-size="10.00">/EntryData.h</text>
</a>
</g>
</g>
<!-- Node39&#45;&gt;Node51 -->
<g id="edge45_Node000039_Node000051" class="edge">
<title>Node39&#45;&gt;Node51</title>
<g id="a_edge45_Node000039_Node000051"><a xlink:title=" ">
<path fill="none" stroke="#63b8ff" d="M2159.4,-304.83C2169,-301.84 2179.57,-298.92 2189.5,-297 2381.27,-259.9 2434.99,-294.01 2627.5,-261 2635.88,-259.56 2644.7,-257.63 2653.2,-255.53"/>
<polygon fill="#63b8ff" stroke="#63b8ff" points="2158.25,-301.53 2149.82,-307.95 2160.42,-308.18 2158.25,-301.53"/>
</a>
</g>
</g>
<!-- Node53 -->
<g id="Node000053" class="node">
<title>Node53</title>
<g id="a_Node000053"><a xlink:href="_real_expression_parser_8h.html" target="_top" xlink:title="This file contains a collection of methods that parses a null terminated string that contains an arit...">
<polygon fill="white" stroke="#666666" points="2958.5,-250 2784.5,-250 2784.5,-231 2958.5,-231 2958.5,-250"/>
<text text-anchor="middle" x="2871.5" y="-238" font-family="Helvetica,sans-Serif" font-size="10.00">Kit/Math/RealExpressionParser.h</text>
</a>
</g>
</g>
<!-- Node39&#45;&gt;Node53 -->
<g id="edge46_Node000039_Node000053" class="edge">
<title>Node39&#45;&gt;Node53</title>
<g id="a_edge46_Node000039_Node000053"><a xlink:title=" ">
<path fill="none" stroke="#63b8ff" d="M2159.13,-304.78C2168.79,-301.75 2179.47,-298.83 2189.5,-297 2445.75,-250.16 2516.2,-294.75 2774.5,-261 2794.77,-258.35 2817.15,-253.95 2835.31,-250"/>
<polygon fill="#63b8ff" stroke="#63b8ff" points="2157.92,-301.49 2149.51,-307.93 2160.1,-308.14 2157.92,-301.49"/>
</a>
</g>
</g>
<!-- Node54 -->
<g id="Node000054" class="node">
<title>Node54</title>
<g id="a_Node000054"><a xlink:href="_thread_8h.html" target="_top" xlink:title=" ">
<polygon fill="#fff0f0" stroke="red" points="1706.5,-250 1590.5,-250 1590.5,-231 1706.5,-231 1706.5,-250"/>
<text text-anchor="middle" x="1648.5" y="-238" font-family="Helvetica,sans-Serif" font-size="10.00">Kit/System/Thread.h</text>
</a>
</g>
</g>
<!-- Node39&#45;&gt;Node54 -->
<g id="edge47_Node000039_Node000054" class="edge">
<title>Node39&#45;&gt;Node54</title>
<g id="a_edge47_Node000039_Node000054"><a xlink:title=" ">
<path fill="none" stroke="#63b8ff" d="M2061.78,-310.77C1980.37,-302.87 1836.58,-286.65 1715.5,-261 1701.75,-258.09 1686.71,-253.81 1674.36,-250"/>
<polygon fill="#63b8ff" stroke="#63b8ff" points="2061.58,-314.27 2071.87,-311.74 2062.25,-307.3 2061.58,-314.27"/>
</a>
</g>
</g>
<!-- Node62 -->
<g id="Node000062" class="node">
<title>Node62</title>
<g id="a_Node000062"><a xlink:href="_strip_8h.html" target="_top" xlink:title=" ">
<polygon fill="white" stroke="#666666" points="1812.5,-250 1724.5,-250 1724.5,-231 1812.5,-231 1812.5,-250"/>
<text text-anchor="middle" x="1768.5" y="-238" font-family="Helvetica,sans-Serif" font-size="10.00">Kit/Text/Strip.h</text>
</a>
</g>
</g>
<!-- Node39&#45;&gt;Node62 -->
<g id="edge48_Node000039_Node000062" class="edge">
<title>Node39&#45;&gt;Node62</title>
<g id="a_edge48_Node000039_Node000062"><a xlink:title=" ">
<path fill="none" stroke="#63b8ff" d="M2061.81,-308.04C1999.57,-299.12 1903.15,-283.27 1821.5,-261 1810.62,-258.03 1798.82,-253.8 1789.12,-250.03"/>
<polygon fill="#63b8ff" stroke="#63b8ff" points="2061.48,-311.53 2071.87,-309.46 2062.46,-304.6 2061.48,-311.53"/>
</a>
</g>
</g>
<!-- Node63 -->
<g id="Node000063" class="node">
<title>Node63</title>
<g id="a_Node000063"><a xlink:href="endian_8h.html" target="_top" xlink:title="This file provides a set of macros/method to convert between the &#39;host&#39; platform and Big/Little endia...">
<polygon fill="#fff0f0" stroke="red" points="1932,-250 1831,-250 1831,-231 1932,-231 1932,-250"/>
<text text-anchor="middle" x="1881.5" y="-238" font-family="Helvetica,sans-Serif" font-size="10.00">Kit/Type/endian.h</text>
</a>
</g>
</g>
<!-- Node39&#45;&gt;Node63 -->
<g id="edge49_Node000039_Node000063" class="edge">
<title>Node39&#45;&gt;Node63</title>
<g id="a_edge49_Node000039_Node000063"><a xlink:title=" ">
<path fill="none" stroke="#63b8ff" d="M2086.71,-304.99C2048.98,-293.99 1990.75,-276.8 1940.5,-261 1929.39,-257.51 1917.15,-253.49 1906.71,-250.01"/>
<polygon fill="#63b8ff" stroke="#63b8ff" points="2086.2,-308.49 2096.78,-307.92 2088.16,-301.77 2086.2,-308.49"/>
</a>
</g>
</g>
<!-- Node40&#45;&gt;Node13 -->
<g id="edge37_Node000040_Node000013" class="edge">
<title>Node40&#45;&gt;Node13</title>
<g id="a_edge37_Node000040_Node000013"><a xlink:title=" ">
<path fill="none" stroke="#63b8ff" d="M1984.07,-214.64C1967.95,-204.74 1949.67,-193.5 1934.5,-184.17"/>
<polygon fill="#63b8ff" stroke="#63b8ff" points="1982.41,-217.73 1992.76,-219.99 1986.08,-211.77 1982.41,-217.73"/>
</a>
</g>
</g>
<!-- Node41&#45;&gt;Node31 -->
<g id="edge40_Node000041_Node000031" class="edge">
<title>Node41&#45;&gt;Node31</title>
<g id="a_edge40_Node000041_Node000031"><a xlink:title=" ">
<path fill="none" stroke="#63b8ff" d="M2243.55,-223.53C2253.2,-213.28 2264.33,-199.11 2269.5,-184 2275.4,-166.76 2276.03,-160.01 2269.5,-143 2261.88,-123.14 2243.5,-105.95 2231.28,-96.16"/>
<polygon fill="#63b8ff" stroke="#63b8ff" points="2240.85,-221.28 2236.28,-230.84 2245.81,-226.22 2240.85,-221.28"/>
</a>
</g>
</g>
<!-- Node41&#45;&gt;Node42 -->
<g id="edge39_Node000041_Node000042" class="edge">
<title>Node41&#45;&gt;Node42</title>
<g id="a_edge39_Node000041_Node000042"><a xlink:title=" ">
<path fill="none" stroke="#63b8ff" d="M2218.57,-221.49C2212.79,-208.33 2205.05,-190.75 2199.71,-178.61"/>
<polygon fill="#63b8ff" stroke="#63b8ff" points="2215.48,-223.15 2222.71,-230.9 2221.89,-220.33 2215.48,-223.15"/>
</a>
</g>
</g>
<!-- Node67 -->
<g id="Node000067" class="node">
<title>Node67</title>
<g id="a_Node000067"><a xlink:href="_h_pool_8h.html" target="_top" xlink:title=" ">
<polygon fill="white" stroke="#666666" points="2612.5,-327 2498.5,-327 2498.5,-308 2612.5,-308 2612.5,-327"/>
<text text-anchor="middle" x="2555.5" y="-315" font-family="Helvetica,sans-Serif" font-size="10.00">Kit/Memory/HPool.h</text>
</a>
</g>
</g>
<!-- Node66&#45;&gt;Node67 -->
<g id="edge51_Node000066_Node000067" class="edge">
<title>Node66&#45;&gt;Node67</title>
<g id="a_edge51_Node000066_Node000067"><a xlink:title=" ">
<path fill="none" stroke="#63b8ff" d="M2555.5,-374.52C2555.5,-359.24 2555.5,-338.48 2555.5,-327"/>
<polygon fill="#63b8ff" stroke="#63b8ff" points="2552,-374.9 2555.5,-384.9 2559,-374.9 2552,-374.9"/>
</a>
</g>
</g>
<!-- Node68 -->
<g id="Node000068" class="node">
<title>Node68</title>
<g id="a_Node000068"><a xlink:href="_s_pool_8h.html" target="_top" xlink:title=" ">
<polygon fill="white" stroke="#666666" points="2744,-327 2631,-327 2631,-308 2744,-308 2744,-327"/>
<text text-anchor="middle" x="2687.5" y="-315" font-family="Helvetica,sans-Serif" font-size="10.00">Kit/Memory/SPool.h</text>
</a>
</g>
</g>
<!-- Node66&#45;&gt;Node68 -->
<g id="edge52_Node000066_Node000068" class="edge">
<title>Node66&#45;&gt;Node68</title>
<g id="a_edge52_Node000066_Node000068"><a xlink:title=" ">
<path fill="none" stroke="#63b8ff" d="M2579.49,-379.87C2606.59,-364.47 2649.86,-339.88 2672.53,-327"/>
<polygon fill="#63b8ff" stroke="#63b8ff" points="2577.61,-376.91 2570.64,-384.9 2581.07,-383 2577.61,-376.91"/>
</a>
</g>
</g>
<!-- Node70 -->
<g id="Node000070" class="node">
<title>Node70</title>
<g id="a_Node000070"><a xlink:href="_event_loop_8h.html" target="_top" xlink:title=" ">
<polygon fill="white" stroke="#666666" points="834,-327 701,-327 701,-308 834,-308 834,-327"/>
<text text-anchor="middle" x="767.5" y="-315" font-family="Helvetica,sans-Serif" font-size="10.00">Kit/System/EventLoop.h</text>
</a>
</g>
</g>
<!-- Node69&#45;&gt;Node70 -->
<g id="edge54_Node000069_Node000070" class="edge">
<title>Node69&#45;&gt;Node70</title>
<g id="a_edge54_Node000069_Node000070"><a xlink:title=" ">
<path fill="none" stroke="#63b8ff" d="M842.87,-378.64C823.51,-363.19 793.88,-339.55 778.16,-327"/>
<polygon fill="#63b8ff" stroke="#63b8ff" points="840.72,-381.4 850.72,-384.9 845.08,-375.92 840.72,-381.4"/>
</a>
</g>
</g>
<!-- Node70&#45;&gt;Node5 -->
<g id="edge55_Node000070_Node000005" class="edge">
<title>Node70&#45;&gt;Node5</title>
<g id="a_edge55_Node000070_Node000005"><a xlink:title=" ">
<path fill="none" stroke="#63b8ff" d="M730,-304.83C681.19,-289.64 597.02,-263.45 553.82,-250"/>
<polygon fill="#63b8ff" stroke="#63b8ff" points="729.27,-308.27 739.85,-307.9 731.35,-301.58 729.27,-308.27"/>
</a>
</g>
</g>
<!-- Node71 -->
<g id="Node000071" class="node">
<title>Node71</title>
<g id="a_Node000071"><a xlink:href="_event_loop_with_p_scheduling_8h.html" target="_top" xlink:title=" ">
<polygon fill="white" stroke="#666666" points="840.5,-255.5 694.5,-255.5 694.5,-225.5 840.5,-225.5 840.5,-255.5"/>
<text text-anchor="start" x="702.5" y="-243.5" font-family="Helvetica,sans-Serif" font-size="10.00">Kit/System/EventLoopWith</text>
<text text-anchor="middle" x="767.5" y="-232.5" font-family="Helvetica,sans-Serif" font-size="10.00">PScheduling.h</text>
</a>
</g>
</g>
<!-- Node70&#45;&gt;Node71 -->
<g id="edge56_Node000070_Node000071" class="edge">
<title>Node70&#45;&gt;Node71</title>
<g id="a_edge56_Node000070_Node000071"><a xlink:title=" ">
<path fill="none" stroke="#63b8ff" d="M767.5,-297.7C767.5,-284.64 767.5,-267.51 767.5,-255.61"/>
<polygon fill="#63b8ff" stroke="#63b8ff" points="764,-297.9 767.5,-307.9 771,-297.9 764,-297.9"/>
</a>
</g>
</g>
</g>
</svg>
