<?xml version="1.0" encoding="UTF-8" standalone="no"?>
<!DOCTYPE svg PUBLIC "-//W3C//DTD SVG 1.1//EN"
 "http://www.w3.org/Graphics/SVG/1.1/DTD/svg11.dtd">
<!-- Generated by graphviz version 2.43.0 (0)
 -->
<!-- Title: /home/runner/work/kit.core/kit.core/projects/examples/Dm/Transaction/ModelPoints.h Pages: 1 -->
<svg width="1406pt" height="489pt"
 viewBox="0.00 0.00 1405.50 489.00" xmlns="http://www.w3.org/2000/svg" xmlns:xlink="http://www.w3.org/1999/xlink">
<g id="graph0" class="graph" transform="scale(1 1) rotate(0) translate(4 485)">
<title>/home/runner/work/kit.core/kit.core/projects/examples/Dm/Transaction/ModelPoints.h</title>
<!-- Node1 -->
<g id="Node000001" class="node">
<title>Node1</title>
<g id="a_Node000001"><a xlink:title="This file defines all of the Model Points for Example application.">
<polygon fill="#999999" stroke="#666666" points="517.5,-481 350.5,-481 350.5,-440 517.5,-440 517.5,-481"/>
<text text-anchor="start" x="358.5" y="-469" font-family="Helvetica,sans-Serif" font-size="10.00">/home/runner/work/kit.core</text>
<text text-anchor="start" x="358.5" y="-458" font-family="Helvetica,sans-Serif" font-size="10.00">/kit.core/projects/examples</text>
<text text-anchor="middle" x="434" y="-447" font-family="Helvetica,sans-Serif" font-size="10.00">/Dm/Transaction/ModelPoints.h</text>
</a>
</g>
</g>
<!-- Node2 -->
<g id="Node000002" class="node">
<title>Node2</title>
<g id="a_Node000002"><a xlink:href="_model_database_8h.html" target="_top" xlink:title=" ">
<polygon fill="white" stroke="#666666" points="745.5,-239 606.5,-239 606.5,-220 745.5,-220 745.5,-239"/>
<text text-anchor="middle" x="676" y="-227" font-family="Helvetica,sans-Serif" font-size="10.00">Kit/Dm/ModelDatabase.h</text>
</a>
</g>
</g>
<!-- Node1&#45;&gt;Node2 -->
<g id="edge1_Node000001_Node000002" class="edge">
<title>Node1&#45;&gt;Node2</title>
<g id="a_edge1_Node000001_Node000002"><a xlink:title=" ">
<path fill="none" stroke="#63b8ff" d="M474.46,-439.9C524.6,-413.57 609.25,-362.09 657,-294 666.39,-280.6 671.21,-262.5 673.64,-249.05"/>
<polygon fill="#63b8ff" stroke="#63b8ff" points="677.12,-249.47 675.17,-239.05 670.2,-248.41 677.12,-249.47"/>
</a>
</g>
</g>
<!-- Node20 -->
<g id="Node000020" class="node">
<title>Node20</title>
<g id="a_Node000020"><a xlink:href="_bool_8h.html" target="_top" xlink:title=" ">
<polygon fill="white" stroke="#666666" points="485,-404 383,-404 383,-385 485,-385 485,-404"/>
<text text-anchor="middle" x="434" y="-392" font-family="Helvetica,sans-Serif" font-size="10.00">Kit/Dm/Mp/Bool.h</text>
</a>
</g>
</g>
<!-- Node1&#45;&gt;Node20 -->
<g id="edge20_Node000001_Node000020" class="edge">
<title>Node1&#45;&gt;Node20</title>
<g id="a_edge20_Node000001_Node000020"><a xlink:title=" ">
<path fill="none" stroke="#63b8ff" d="M434,-439.95C434,-431.85 434,-422.5 434,-414.47"/>
<polygon fill="#63b8ff" stroke="#63b8ff" points="437.5,-414.26 434,-404.26 430.5,-414.26 437.5,-414.26"/>
</a>
</g>
</g>
<!-- Node37 -->
<g id="Node000037" class="node">
<title>Node37</title>
<g id="a_Node000037"><a xlink:href="_mp_foo_8h.html" target="_top" xlink:title=" ">
<polygon fill="white" stroke="#666666" points="329.5,-404 192.5,-404 192.5,-385 329.5,-385 329.5,-404"/>
<text text-anchor="middle" x="261" y="-392" font-family="Helvetica,sans-Serif" font-size="10.00">Dm/Transaction/MpFoo.h</text>
</a>
</g>
</g>
<!-- Node1&#45;&gt;Node37 -->
<g id="edge55_Node000001_Node000037" class="edge">
<title>Node1&#45;&gt;Node37</title>
<g id="a_edge55_Node000001_Node000037"><a xlink:title=" ">
<path fill="none" stroke="#63b8ff" d="M381.15,-439.95C352.68,-429.42 318.45,-416.75 293.82,-407.64"/>
<polygon fill="#63b8ff" stroke="#63b8ff" points="294.82,-404.28 284.22,-404.09 292.39,-410.84 294.82,-404.28"/>
</a>
</g>
</g>
<!-- Node3 -->
<g id="Node000003" class="node">
<title>Node3</title>
<g id="a_Node000003"><a xlink:href="_i_model_database_8h.html" target="_top" xlink:title=" ">
<polygon fill="white" stroke="#666666" points="739,-184 597,-184 597,-165 739,-165 739,-184"/>
<text text-anchor="middle" x="668" y="-172" font-family="Helvetica,sans-Serif" font-size="10.00">Kit/Dm/IModelDatabase.h</text>
</a>
</g>
</g>
<!-- Node2&#45;&gt;Node3 -->
<g id="edge2_Node000002_Node000003" class="edge">
<title>Node2&#45;&gt;Node3</title>
<g id="a_edge2_Node000002_Node000003"><a xlink:title=" ">
<path fill="none" stroke="#63b8ff" d="M674.68,-219.75C673.63,-212.8 672.13,-202.85 670.81,-194.13"/>
<polygon fill="#63b8ff" stroke="#63b8ff" points="674.25,-193.45 669.3,-184.09 667.33,-194.5 674.25,-193.45"/>
</a>
</g>
</g>
<!-- Node16 -->
<g id="Node000016" class="node">
<title>Node16</title>
<g id="a_Node000016"><a xlink:href="_s_list_8h.html" target="_top" xlink:title=" ">
<polygon fill="white" stroke="#666666" points="1082,-184 966,-184 966,-165 1082,-165 1082,-184"/>
<text text-anchor="middle" x="1024" y="-172" font-family="Helvetica,sans-Serif" font-size="10.00">Kit/Container/SList.h</text>
</a>
</g>
</g>
<!-- Node2&#45;&gt;Node16 -->
<g id="edge16_Node000002_Node000016" class="edge">
<title>Node2&#45;&gt;Node16</title>
<g id="a_edge16_Node000002_Node000016"><a xlink:title=" ">
<path fill="none" stroke="#63b8ff" d="M731.91,-219.98C793.46,-210.61 892.34,-195.55 957.74,-185.59"/>
<polygon fill="#63b8ff" stroke="#63b8ff" points="958.58,-189 967.94,-184.04 957.53,-182.08 958.58,-189"/>
</a>
</g>
</g>
<!-- Node4 -->
<g id="Node000004" class="node">
<title>Node4</title>
<g id="a_Node000004"><a xlink:title=" ">
<polygon fill="#e0e0e0" stroke="#999999" points="614.5,-129 541.5,-129 541.5,-110 614.5,-110 614.5,-129"/>
<text text-anchor="middle" x="578" y="-117" font-family="Helvetica,sans-Serif" font-size="10.00">kit_config.h</text>
</a>
</g>
</g>
<!-- Node3&#45;&gt;Node4 -->
<g id="edge3_Node000003_Node000004" class="edge">
<title>Node3&#45;&gt;Node4</title>
<g id="a_edge3_Node000003_Node000004"><a xlink:title=" ">
<path fill="none" stroke="#63b8ff" d="M653.54,-164.98C639.58,-156.77 618.21,-144.18 601.75,-134.49"/>
<polygon fill="#63b8ff" stroke="#63b8ff" points="603.12,-131.23 592.72,-129.17 599.56,-137.26 603.12,-131.23"/>
</a>
</g>
</g>
<!-- Node5 -->
<g id="Node000005" class="node">
<title>Node5</title>
<g id="a_Node000005"><a xlink:href="_i_string_8h.html" target="_top" xlink:title=" ">
<polygon fill="white" stroke="#666666" points="1047.5,-129 950.5,-129 950.5,-110 1047.5,-110 1047.5,-129"/>
<text text-anchor="middle" x="999" y="-117" font-family="Helvetica,sans-Serif" font-size="10.00">Kit/Text/IString.h</text>
</a>
</g>
</g>
<!-- Node3&#45;&gt;Node5 -->
<g id="edge4_Node000003_Node000005" class="edge">
<title>Node3&#45;&gt;Node5</title>
<g id="a_edge4_Node000003_Node000005"><a xlink:title=" ">
<path fill="none" stroke="#63b8ff" d="M721.18,-164.98C781.08,-155.39 878.13,-139.85 940.23,-129.91"/>
<polygon fill="#63b8ff" stroke="#63b8ff" points="940.94,-133.34 950.27,-128.3 939.84,-126.43 940.94,-133.34"/>
</a>
</g>
</g>
<!-- Node13 -->
<g id="Node000013" class="node">
<title>Node13</title>
<g id="a_Node000013"><a xlink:href="_mutex_8h.html" target="_top" xlink:title=" ">
<polygon fill="white" stroke="#666666" points="1217.5,-129 1104.5,-129 1104.5,-110 1217.5,-110 1217.5,-129"/>
<text text-anchor="middle" x="1161" y="-117" font-family="Helvetica,sans-Serif" font-size="10.00">Kit/System/Mutex.h</text>
</a>
</g>
</g>
<!-- Node3&#45;&gt;Node13 -->
<g id="edge12_Node000003_Node000013" class="edge">
<title>Node3&#45;&gt;Node13</title>
<g id="a_edge12_Node000003_Node000013"><a xlink:title=" ">
<path fill="none" stroke="#63b8ff" d="M739.16,-165.85C834.26,-155.63 1001.54,-137.64 1094.31,-127.67"/>
<polygon fill="#63b8ff" stroke="#63b8ff" points="1094.85,-131.13 1104.42,-126.58 1094.11,-124.17 1094.85,-131.13"/>
</a>
</g>
</g>
<!-- Node15 -->
<g id="Node000015" class="node">
<title>Node15</title>
<g id="a_Node000015"><a xlink:href="_arduino_8h_source.html" target="_top" xlink:title=" ">
<polygon fill="white" stroke="#666666" points="523.5,-129 420.5,-129 420.5,-110 523.5,-110 523.5,-129"/>
<text text-anchor="middle" x="472" y="-117" font-family="Helvetica,sans-Serif" font-size="10.00">Kit/Json/Arduino.h</text>
</a>
</g>
</g>
<!-- Node3&#45;&gt;Node15 -->
<g id="edge15_Node000003_Node000015" class="edge">
<title>Node3&#45;&gt;Node15</title>
<g id="a_edge15_Node000003_Node000015"><a xlink:title=" ">
<path fill="none" stroke="#63b8ff" d="M636.51,-164.98C603.18,-155.97 550.4,-141.7 513.65,-131.76"/>
<polygon fill="#63b8ff" stroke="#63b8ff" points="514.3,-128.31 503.74,-129.08 512.48,-135.07 514.3,-128.31"/>
</a>
</g>
</g>
<!-- Node6 -->
<g id="Node000006" class="node">
<title>Node6</title>
<g id="a_Node000006"><a xlink:href="_key_8h.html" target="_top" xlink:title=" ">
<polygon fill="white" stroke="#666666" points="736.5,-74 627.5,-74 627.5,-55 736.5,-55 736.5,-74"/>
<text text-anchor="middle" x="682" y="-62" font-family="Helvetica,sans-Serif" font-size="10.00">Kit/Container/Key.h</text>
</a>
</g>
</g>
<!-- Node5&#45;&gt;Node6 -->
<g id="edge5_Node000005_Node000006" class="edge">
<title>Node5&#45;&gt;Node6</title>
<g id="a_edge5_Node000005_Node000006"><a xlink:title=" ">
<path fill="none" stroke="#63b8ff" d="M950.16,-110.33C894.51,-101.03 803.47,-85.81 743.14,-75.72"/>
<polygon fill="#63b8ff" stroke="#63b8ff" points="743.43,-72.22 732.99,-74.03 742.28,-79.13 743.43,-72.22"/>
</a>
</g>
</g>
<!-- Node10 -->
<g id="Node000010" class="node">
<title>Node10</title>
<g id="a_Node000010"><a xlink:href="printfchecker_8h.html" target="_top" xlink:title="This file contains macro that enables the GCC (and Clang) compiler to validate printf flags with thei...">
<polygon fill="white" stroke="#666666" points="1052.5,-74 907.5,-74 907.5,-55 1052.5,-55 1052.5,-74"/>
<text text-anchor="middle" x="980" y="-62" font-family="Helvetica,sans-Serif" font-size="10.00">Kit/System/printfchecker.h</text>
</a>
</g>
</g>
<!-- Node5&#45;&gt;Node10 -->
<g id="edge9_Node000005_Node000010" class="edge">
<title>Node5&#45;&gt;Node10</title>
<g id="a_edge9_Node000005_Node000010"><a xlink:title=" ">
<path fill="none" stroke="#63b8ff" d="M995.86,-109.75C993.32,-102.65 989.64,-92.4 986.47,-83.56"/>
<polygon fill="#63b8ff" stroke="#63b8ff" points="989.75,-82.32 983.08,-74.09 983.16,-84.68 989.75,-82.32"/>
</a>
</g>
</g>
<!-- Node11 -->
<g id="Node000011" class="node">
<title>Node11</title>
<g id="a_Node000011"><a xlink:title=" ">
<polygon fill="#e0e0e0" stroke="#999999" points="811,-74 755,-74 755,-55 811,-55 811,-74"/>
<text text-anchor="middle" x="783" y="-62" font-family="Helvetica,sans-Serif" font-size="10.00">stdarg.h</text>
</a>
</g>
</g>
<!-- Node5&#45;&gt;Node11 -->
<g id="edge10_Node000005_Node000011" class="edge">
<title>Node5&#45;&gt;Node11</title>
<g id="a_edge10_Node000005_Node000011"><a xlink:title=" ">
<path fill="none" stroke="#63b8ff" d="M964.3,-109.98C925.05,-100.35 861.35,-84.72 820.85,-74.79"/>
<polygon fill="#63b8ff" stroke="#63b8ff" points="821.63,-71.37 811.08,-72.39 819.96,-78.17 821.63,-71.37"/>
</a>
</g>
</g>
<!-- Node12 -->
<g id="Node000012" class="node">
<title>Node12</title>
<g id="a_Node000012"><a xlink:title=" ">
<polygon fill="#e0e0e0" stroke="#999999" points="889,-74 829,-74 829,-55 889,-55 889,-74"/>
<text text-anchor="middle" x="859" y="-62" font-family="Helvetica,sans-Serif" font-size="10.00">iostream</text>
</a>
</g>
</g>
<!-- Node5&#45;&gt;Node12 -->
<g id="edge11_Node000005_Node000012" class="edge">
<title>Node5&#45;&gt;Node12</title>
<g id="a_edge11_Node000005_Node000012"><a xlink:title=" ">
<path fill="none" stroke="#63b8ff" d="M976.51,-109.98C953.48,-101.27 917.46,-87.63 891.37,-77.75"/>
<polygon fill="#63b8ff" stroke="#63b8ff" points="892.49,-74.44 881.9,-74.17 890.02,-80.98 892.49,-74.44"/>
</a>
</g>
</g>
<!-- Node7 -->
<g id="Node000007" class="node">
<title>Node7</title>
<g id="a_Node000007"><a xlink:title=" ">
<polygon fill="#e0e0e0" stroke="#999999" points="185.5,-19 132.5,-19 132.5,0 185.5,0 185.5,-19"/>
<text text-anchor="middle" x="159" y="-7" font-family="Helvetica,sans-Serif" font-size="10.00">stdint.h</text>
</a>
</g>
</g>
<!-- Node6&#45;&gt;Node7 -->
<g id="edge6_Node000006_Node000007" class="edge">
<title>Node6&#45;&gt;Node7</title>
<g id="a_edge6_Node000006_Node000007"><a xlink:title=" ">
<path fill="none" stroke="#63b8ff" d="M627.02,-57.93C519.93,-47.08 285.97,-23.37 195.62,-14.21"/>
<polygon fill="#63b8ff" stroke="#63b8ff" points="195.88,-10.72 185.58,-13.19 195.18,-17.68 195.88,-10.72"/>
</a>
</g>
</g>
<!-- Node8 -->
<g id="Node000008" class="node">
<title>Node8</title>
<g id="a_Node000008"><a xlink:title=" ">
<polygon fill="#e0e0e0" stroke="#999999" points="1168.5,-19 1115.5,-19 1115.5,0 1168.5,0 1168.5,-19"/>
<text text-anchor="middle" x="1142" y="-7" font-family="Helvetica,sans-Serif" font-size="10.00">stdlib.h</text>
</a>
</g>
</g>
<!-- Node6&#45;&gt;Node8 -->
<g id="edge7_Node000006_Node000008" class="edge">
<title>Node6&#45;&gt;Node8</title>
<g id="a_edge7_Node000006_Node000008"><a xlink:title=" ">
<path fill="none" stroke="#63b8ff" d="M736.8,-56.15C739.91,-55.75 743,-55.37 746,-55 877.94,-38.83 1034.9,-21.86 1105,-14.41"/>
<polygon fill="#63b8ff" stroke="#63b8ff" points="1105.51,-17.87 1115.09,-13.34 1104.78,-10.91 1105.51,-17.87"/>
</a>
</g>
</g>
<!-- Node9 -->
<g id="Node000009" class="node">
<title>Node9</title>
<g id="a_Node000009"><a xlink:title=" ">
<polygon fill="#e0e0e0" stroke="#999999" points="708.5,-19 655.5,-19 655.5,0 708.5,0 708.5,-19"/>
<text text-anchor="middle" x="682" y="-7" font-family="Helvetica,sans-Serif" font-size="10.00">limits.h</text>
</a>
</g>
</g>
<!-- Node6&#45;&gt;Node9 -->
<g id="edge8_Node000006_Node000009" class="edge">
<title>Node6&#45;&gt;Node9</title>
<g id="a_edge8_Node000006_Node000009"><a xlink:title=" ">
<path fill="none" stroke="#63b8ff" d="M682,-54.75C682,-47.8 682,-37.85 682,-29.13"/>
<polygon fill="#63b8ff" stroke="#63b8ff" points="685.5,-29.09 682,-19.09 678.5,-29.09 685.5,-29.09"/>
</a>
</g>
</g>
<!-- Node13&#45;&gt;Node8 -->
<g id="edge13_Node000013_Node000008" class="edge">
<title>Node13&#45;&gt;Node8</title>
<g id="a_edge13_Node000013_Node000008"><a xlink:title=" ">
<path fill="none" stroke="#63b8ff" d="M1168.25,-109.81C1177.58,-97.52 1191.71,-74.4 1184,-55 1179.48,-43.63 1170.53,-33.48 1162.04,-25.76"/>
<polygon fill="#63b8ff" stroke="#63b8ff" points="1164.11,-22.92 1154.21,-19.14 1159.59,-28.27 1164.11,-22.92"/>
</a>
</g>
</g>
<!-- Node14 -->
<g id="Node000014" class="node">
<title>Node14</title>
<g id="a_Node000014"><a xlink:title=" ">
<polygon fill="#e0e0e0" stroke="#999999" points="1174.5,-74 1109.5,-74 1109.5,-55 1174.5,-55 1174.5,-74"/>
<text text-anchor="middle" x="1142" y="-62" font-family="Helvetica,sans-Serif" font-size="10.00">kit_map.h</text>
</a>
</g>
</g>
<!-- Node13&#45;&gt;Node14 -->
<g id="edge14_Node000013_Node000014" class="edge">
<title>Node13&#45;&gt;Node14</title>
<g id="a_edge14_Node000013_Node000014"><a xlink:title=" ">
<path fill="none" stroke="#63b8ff" d="M1157.86,-109.75C1155.32,-102.65 1151.64,-92.4 1148.47,-83.56"/>
<polygon fill="#63b8ff" stroke="#63b8ff" points="1151.75,-82.32 1145.08,-74.09 1145.16,-84.68 1151.75,-82.32"/>
</a>
</g>
</g>
<!-- Node17 -->
<g id="Node000017" class="node">
<title>Node17</title>
<g id="a_Node000017"><a xlink:href="_s_list_base_8h.html" target="_top" xlink:title=" ">
<polygon fill="white" stroke="#666666" points="932,-129 792,-129 792,-110 932,-110 932,-129"/>
<text text-anchor="middle" x="862" y="-117" font-family="Helvetica,sans-Serif" font-size="10.00">Kit/Container/SListBase.h</text>
</a>
</g>
</g>
<!-- Node16&#45;&gt;Node17 -->
<g id="edge17_Node000016_Node000017" class="edge">
<title>Node16&#45;&gt;Node17</title>
<g id="a_edge17_Node000016_Node000017"><a xlink:title=" ">
<path fill="none" stroke="#63b8ff" d="M997.97,-164.98C970.89,-156.13 928.29,-142.19 897.99,-132.28"/>
<polygon fill="#63b8ff" stroke="#63b8ff" points="898.82,-128.87 888.23,-129.08 896.65,-135.52 898.82,-128.87"/>
</a>
</g>
</g>
<!-- Node18 -->
<g id="Node000018" class="node">
<title>Node18</title>
<g id="a_Node000018"><a xlink:href="_list_item_8h.html" target="_top" xlink:title=" ">
<polygon fill="white" stroke="#666666" points="533,-74 401,-74 401,-55 533,-55 533,-74"/>
<text text-anchor="middle" x="467" y="-62" font-family="Helvetica,sans-Serif" font-size="10.00">Kit/Container/ListItem.h</text>
</a>
</g>
</g>
<!-- Node17&#45;&gt;Node18 -->
<g id="edge18_Node000017_Node000018" class="edge">
<title>Node17&#45;&gt;Node18</title>
<g id="a_edge18_Node000017_Node000018"><a xlink:title=" ">
<path fill="none" stroke="#63b8ff" d="M798.54,-109.98C728.24,-100.55 615.05,-85.36 540.84,-75.41"/>
<polygon fill="#63b8ff" stroke="#63b8ff" points="541.01,-71.9 530.63,-74.04 540.08,-78.84 541.01,-71.9"/>
</a>
</g>
</g>
<!-- Node19 -->
<g id="Node000019" class="node">
<title>Node19</title>
<g id="a_Node000019"><a xlink:href="_item_8h.html" target="_top" xlink:title=" ">
<polygon fill="white" stroke="#666666" points="524.5,-19 409.5,-19 409.5,0 524.5,0 524.5,-19"/>
<text text-anchor="middle" x="467" y="-7" font-family="Helvetica,sans-Serif" font-size="10.00">Kit/Container/Item.h</text>
</a>
</g>
</g>
<!-- Node18&#45;&gt;Node19 -->
<g id="edge19_Node000018_Node000019" class="edge">
<title>Node18&#45;&gt;Node19</title>
<g id="a_edge19_Node000018_Node000019"><a xlink:title=" ">
<path fill="none" stroke="#63b8ff" d="M467,-54.75C467,-47.8 467,-37.85 467,-29.13"/>
<polygon fill="#63b8ff" stroke="#63b8ff" points="470.5,-29.09 467,-19.09 463.5,-29.09 470.5,-29.09"/>
</a>
</g>
</g>
<!-- Node21 -->
<g id="Node000021" class="node">
<title>Node21</title>
<g id="a_Node000021"><a xlink:href="_primitive_type_8h.html" target="_top" xlink:title=" ">
<polygon fill="white" stroke="#666666" points="507.5,-349 360.5,-349 360.5,-330 507.5,-330 507.5,-349"/>
<text text-anchor="middle" x="434" y="-337" font-family="Helvetica,sans-Serif" font-size="10.00">Kit/Dm/Mp/PrimitiveType.h</text>
</a>
</g>
</g>
<!-- Node20&#45;&gt;Node21 -->
<g id="edge21_Node000020_Node000021" class="edge">
<title>Node20&#45;&gt;Node21</title>
<g id="a_edge21_Node000020_Node000021"><a xlink:title=" ">
<path fill="none" stroke="#63b8ff" d="M434,-384.75C434,-377.8 434,-367.85 434,-359.13"/>
<polygon fill="#63b8ff" stroke="#63b8ff" points="437.5,-359.09 434,-349.09 430.5,-359.09 437.5,-359.09"/>
</a>
</g>
</g>
<!-- Node22 -->
<g id="Node000022" class="node">
<title>Node22</title>
<g id="a_Node000022"><a xlink:href="_scalar_8h.html" target="_top" xlink:title=" ">
<polygon fill="white" stroke="#666666" points="316,-294 206,-294 206,-275 316,-275 316,-294"/>
<text text-anchor="middle" x="261" y="-282" font-family="Helvetica,sans-Serif" font-size="10.00">Kit/Dm/Mp/Scalar.h</text>
</a>
</g>
</g>
<!-- Node21&#45;&gt;Node22 -->
<g id="edge22_Node000021_Node000022" class="edge">
<title>Node21&#45;&gt;Node22</title>
<g id="a_edge22_Node000021_Node000022"><a xlink:title=" ">
<path fill="none" stroke="#63b8ff" d="M406.2,-329.98C377.03,-321.05 331,-306.94 298.6,-297.02"/>
<polygon fill="#63b8ff" stroke="#63b8ff" points="299.6,-293.66 289.01,-294.08 297.55,-300.36 299.6,-293.66"/>
</a>
</g>
</g>
<!-- Node30 -->
<g id="Node000030" class="node">
<title>Node30</title>
<g id="a_Node000030"><a xlink:href="_f_string_8h.html" target="_top" xlink:title=" ">
<polygon fill="white" stroke="#666666" points="647.5,-294 548.5,-294 548.5,-275 647.5,-275 647.5,-294"/>
<text text-anchor="middle" x="598" y="-282" font-family="Helvetica,sans-Serif" font-size="10.00">Kit/Text/FString.h</text>
</a>
</g>
</g>
<!-- Node21&#45;&gt;Node30 -->
<g id="edge46_Node000021_Node000030" class="edge">
<title>Node21&#45;&gt;Node30</title>
<g id="a_edge46_Node000021_Node000030"><a xlink:title=" ">
<path fill="none" stroke="#63b8ff" d="M460.35,-329.98C487.76,-321.13 530.89,-307.19 561.56,-297.28"/>
<polygon fill="#63b8ff" stroke="#63b8ff" points="563,-300.49 571.44,-294.08 560.85,-293.83 563,-300.49"/>
</a>
</g>
</g>
<!-- Node33 -->
<g id="Node000033" class="node">
<title>Node33</title>
<g id="a_Node000033"><a xlink:href="_string_to_8h.html" target="_top" xlink:title=" ">
<polygon fill="white" stroke="#666666" points="530,-294 426,-294 426,-275 530,-275 530,-294"/>
<text text-anchor="middle" x="478" y="-282" font-family="Helvetica,sans-Serif" font-size="10.00">Kit/Text/StringTo.h</text>
</a>
</g>
</g>
<!-- Node21&#45;&gt;Node33 -->
<g id="edge50_Node000021_Node000033" class="edge">
<title>Node21&#45;&gt;Node33</title>
<g id="a_edge50_Node000021_Node000033"><a xlink:title=" ">
<path fill="none" stroke="#63b8ff" d="M441.27,-329.75C447.54,-322.18 456.79,-311.05 464.43,-301.84"/>
<polygon fill="#63b8ff" stroke="#63b8ff" points="467.17,-304.02 470.87,-294.09 461.79,-299.55 467.17,-304.02"/>
</a>
</g>
</g>
<!-- Node36 -->
<g id="Node000036" class="node">
<title>Node36</title>
<g id="a_Node000036"><a xlink:title=" ">
<polygon fill="#e0e0e0" stroke="#999999" points="407.5,-294 342.5,-294 342.5,-275 407.5,-275 407.5,-294"/>
<text text-anchor="middle" x="375" y="-282" font-family="Helvetica,sans-Serif" font-size="10.00">inttypes.h</text>
</a>
</g>
</g>
<!-- Node21&#45;&gt;Node36 -->
<g id="edge54_Node000021_Node000036" class="edge">
<title>Node21&#45;&gt;Node36</title>
<g id="a_edge54_Node000021_Node000036"><a xlink:title=" ">
<path fill="none" stroke="#63b8ff" d="M424.52,-329.98C415.8,-322.15 402.66,-310.34 392.1,-300.86"/>
<polygon fill="#63b8ff" stroke="#63b8ff" points="394.43,-298.25 384.65,-294.17 389.75,-303.46 394.43,-298.25"/>
</a>
</g>
</g>
<!-- Node22&#45;&gt;Node7 -->
<g id="edge45_Node000022_Node000007" class="edge">
<title>Node22&#45;&gt;Node7</title>
<g id="a_edge45_Node000022_Node000007"><a xlink:title=" ">
<path fill="none" stroke="#63b8ff" d="M245.15,-274.94C210.06,-254.93 126.52,-201.31 96,-129 79.8,-90.62 116.96,-48.05 140.84,-25.86"/>
<polygon fill="#63b8ff" stroke="#63b8ff" points="143.22,-28.43 148.34,-19.15 138.55,-23.22 143.22,-28.43"/>
</a>
</g>
</g>
<!-- Node23 -->
<g id="Node000023" class="node">
<title>Node23</title>
<g id="a_Node000023"><a xlink:href="_model_point_base_8h.html" target="_top" xlink:title=" ">
<polygon fill="white" stroke="#666666" points="358.5,-239 217.5,-239 217.5,-220 358.5,-220 358.5,-239"/>
<text text-anchor="middle" x="288" y="-227" font-family="Helvetica,sans-Serif" font-size="10.00">Kit/Dm/ModelPointBase.h</text>
</a>
</g>
</g>
<!-- Node22&#45;&gt;Node23 -->
<g id="edge23_Node000022_Node000023" class="edge">
<title>Node22&#45;&gt;Node23</title>
<g id="a_edge23_Node000022_Node000023"><a xlink:title=" ">
<path fill="none" stroke="#63b8ff" d="M265.46,-274.75C269.12,-267.57 274.41,-257.18 278.95,-248.27"/>
<polygon fill="#63b8ff" stroke="#63b8ff" points="282.2,-249.59 283.62,-239.09 275.97,-246.41 282.2,-249.59"/>
</a>
</g>
</g>
<!-- Node29 -->
<g id="Node000029" class="node">
<title>Node29</title>
<g id="a_Node000029"><a xlink:href="_observer_8h.html" target="_top" xlink:title=" ">
<polygon fill="white" stroke="#666666" points="138,-239 32,-239 32,-220 138,-220 138,-239"/>
<text text-anchor="middle" x="85" y="-227" font-family="Helvetica,sans-Serif" font-size="10.00">Kit/Dm/Observer.h</text>
</a>
</g>
</g>
<!-- Node22&#45;&gt;Node29 -->
<g id="edge41_Node000022_Node000029" class="edge">
<title>Node22&#45;&gt;Node29</title>
<g id="a_edge41_Node000022_Node000029"><a xlink:title=" ">
<path fill="none" stroke="#63b8ff" d="M232.72,-274.98C203.05,-266.05 156.21,-251.94 123.25,-242.02"/>
<polygon fill="#63b8ff" stroke="#63b8ff" points="124.08,-238.61 113.5,-239.08 122.07,-245.32 124.08,-238.61"/>
</a>
</g>
</g>
<!-- Node23&#45;&gt;Node3 -->
<g id="edge34_Node000023_Node000003" class="edge">
<title>Node23&#45;&gt;Node3</title>
<g id="a_edge34_Node000023_Node000003"><a xlink:title=" ">
<path fill="none" stroke="#63b8ff" d="M349.05,-219.98C416.54,-210.57 525.13,-195.43 596.53,-185.47"/>
<polygon fill="#63b8ff" stroke="#63b8ff" points="597.36,-188.89 606.78,-184.04 596.4,-181.95 597.36,-188.89"/>
</a>
</g>
</g>
<!-- Node23&#45;&gt;Node7 -->
<g id="edge39_Node000023_Node000007" class="edge">
<title>Node23&#45;&gt;Node7</title>
<g id="a_edge39_Node000023_Node000007"><a xlink:title=" ">
<path fill="none" stroke="#63b8ff" d="M283.47,-219.76C273.17,-199.97 246.99,-150.33 223,-110 205.49,-80.57 183.65,-47.27 170.54,-27.63"/>
<polygon fill="#63b8ff" stroke="#63b8ff" points="173.33,-25.51 164.86,-19.16 167.52,-29.41 173.33,-25.51"/>
</a>
</g>
</g>
<!-- Node23&#45;&gt;Node8 -->
<g id="edge40_Node000023_Node000008" class="edge">
<title>Node23&#45;&gt;Node8</title>
<g id="a_edge40_Node000023_Node000008"><a xlink:title=" ">
<path fill="none" stroke="#63b8ff" d="M358.79,-221.97C478.23,-210.89 710.49,-189.14 748,-184 817.1,-174.52 999.64,-168.68 1057,-129 1088.47,-107.23 1078.14,-85.68 1101,-55 1108.44,-45.02 1117.78,-34.74 1125.66,-26.58"/>
<polygon fill="#63b8ff" stroke="#63b8ff" points="1128.4,-28.79 1132.94,-19.22 1123.42,-23.87 1128.4,-28.79"/>
</a>
</g>
</g>
<!-- Node24 -->
<g id="Node000024" class="node">
<title>Node24</title>
<g id="a_Node000024"><a xlink:href="_i_model_point_8h.html" target="_top" xlink:title=" ">
<polygon fill="white" stroke="#666666" points="396,-184 276,-184 276,-165 396,-165 396,-184"/>
<text text-anchor="middle" x="336" y="-172" font-family="Helvetica,sans-Serif" font-size="10.00">Kit/Dm/IModelPoint.h</text>
</a>
</g>
</g>
<!-- Node23&#45;&gt;Node24 -->
<g id="edge24_Node000023_Node000024" class="edge">
<title>Node23&#45;&gt;Node24</title>
<g id="a_edge24_Node000023_Node000024"><a xlink:title=" ">
<path fill="none" stroke="#63b8ff" d="M295.93,-219.75C302.85,-212.11 313.07,-200.82 321.45,-191.56"/>
<polygon fill="#63b8ff" stroke="#63b8ff" points="324.1,-193.85 328.22,-184.09 318.91,-189.15 324.1,-193.85"/>
</a>
</g>
</g>
<!-- Node25 -->
<g id="Node000025" class="node">
<title>Node25</title>
<g id="a_Node000025"><a xlink:href="_i_observer_8h.html" target="_top" xlink:title=" ">
<polygon fill="white" stroke="#666666" points="213.5,-129 104.5,-129 104.5,-110 213.5,-110 213.5,-129"/>
<text text-anchor="middle" x="159" y="-117" font-family="Helvetica,sans-Serif" font-size="10.00">Kit/Dm/IObserver.h</text>
</a>
</g>
</g>
<!-- Node23&#45;&gt;Node25 -->
<g id="edge35_Node000023_Node000025" class="edge">
<title>Node23&#45;&gt;Node25</title>
<g id="a_edge35_Node000023_Node000025"><a xlink:title=" ">
<path fill="none" stroke="#63b8ff" d="M275.76,-220C263.43,-211.3 243.99,-197.22 228,-184 209.12,-168.39 188.6,-149.19 174.89,-136.02"/>
<polygon fill="#63b8ff" stroke="#63b8ff" points="177.28,-133.47 167.66,-129.03 172.42,-138.5 177.28,-133.47"/>
</a>
</g>
</g>
<!-- Node27 -->
<g id="Node000027" class="node">
<title>Node27</title>
<g id="a_Node000027"><a xlink:href="_d_list_8h.html" target="_top" xlink:title=" ">
<polygon fill="white" stroke="#666666" points="547.5,-184 430.5,-184 430.5,-165 547.5,-165 547.5,-184"/>
<text text-anchor="middle" x="489" y="-172" font-family="Helvetica,sans-Serif" font-size="10.00">Kit/Container/DList.h</text>
</a>
</g>
</g>
<!-- Node23&#45;&gt;Node27 -->
<g id="edge36_Node000023_Node000027" class="edge">
<title>Node23&#45;&gt;Node27</title>
<g id="a_edge36_Node000023_Node000027"><a xlink:title=" ">
<path fill="none" stroke="#63b8ff" d="M320.29,-219.98C354.62,-210.93 409.06,-196.58 446.77,-186.64"/>
<polygon fill="#63b8ff" stroke="#63b8ff" points="447.68,-190.02 456.45,-184.08 445.89,-183.25 447.68,-190.02"/>
</a>
</g>
</g>
<!-- Node24&#45;&gt;Node4 -->
<g id="edge25_Node000024_Node000004" class="edge">
<title>Node24&#45;&gt;Node4</title>
<g id="a_edge25_Node000024_Node000004"><a xlink:title=" ">
<path fill="none" stroke="#63b8ff" d="M374.88,-164.98C417.49,-155.65 485.81,-140.69 531.29,-130.73"/>
<polygon fill="#63b8ff" stroke="#63b8ff" points="532.18,-134.12 541.2,-128.56 530.68,-127.28 532.18,-134.12"/>
</a>
</g>
</g>
<!-- Node24&#45;&gt;Node5 -->
<g id="edge27_Node000024_Node000005" class="edge">
<title>Node24&#45;&gt;Node5</title>
<g id="a_edge27_Node000024_Node000005"><a xlink:title=" ">
<path fill="none" stroke="#63b8ff" d="M396.12,-167.33C404.8,-166.51 413.63,-165.7 422,-165 649.15,-145.9 709.41,-153.56 940.25,-128.99"/>
<polygon fill="#63b8ff" stroke="#63b8ff" points="940.73,-132.46 950.3,-127.91 939.98,-125.5 940.73,-132.46"/>
</a>
</g>
</g>
<!-- Node24&#45;&gt;Node7 -->
<g id="edge33_Node000024_Node000007" class="edge">
<title>Node24&#45;&gt;Node7</title>
<g id="a_edge33_Node000024_Node000007"><a xlink:title=" ">
<path fill="none" stroke="#63b8ff" d="M328.18,-164.98C320.36,-156.27 308.21,-142.18 299,-129 277.21,-97.82 284.16,-80.57 256,-55 238.75,-39.34 215.04,-28.32 195.38,-21.17"/>
<polygon fill="#63b8ff" stroke="#63b8ff" points="196.41,-17.82 185.81,-17.87 194.13,-24.44 196.41,-17.82"/>
</a>
</g>
</g>
<!-- Node24&#45;&gt;Node15 -->
<g id="edge31_Node000024_Node000015" class="edge">
<title>Node24&#45;&gt;Node15</title>
<g id="a_edge31_Node000024_Node000015"><a xlink:title=" ">
<path fill="none" stroke="#63b8ff" d="M357.85,-164.98C380.12,-156.3 414.9,-142.75 440.22,-132.88"/>
<polygon fill="#63b8ff" stroke="#63b8ff" points="441.71,-136.06 449.75,-129.17 439.16,-129.54 441.71,-136.06"/>
</a>
</g>
</g>
<!-- Node24&#45;&gt;Node18 -->
<g id="edge26_Node000024_Node000018" class="edge">
<title>Node24&#45;&gt;Node18</title>
<g id="a_edge26_Node000024_Node000018"><a xlink:title=" ">
<path fill="none" stroke="#63b8ff" d="M346.28,-164.82C360.85,-152.54 388.36,-129.44 412,-110 423.98,-100.15 437.52,-89.19 448.17,-80.62"/>
<polygon fill="#63b8ff" stroke="#63b8ff" points="450.4,-83.31 456,-74.31 446.02,-77.85 450.4,-83.31"/>
</a>
</g>
</g>
<!-- Node24&#45;&gt;Node25 -->
<g id="edge28_Node000024_Node000025" class="edge">
<title>Node24&#45;&gt;Node25</title>
<g id="a_edge28_Node000024_Node000025"><a xlink:title=" ">
<path fill="none" stroke="#63b8ff" d="M307.56,-164.98C277.72,-156.05 230.62,-141.94 197.47,-132.02"/>
<polygon fill="#63b8ff" stroke="#63b8ff" points="198.24,-128.6 187.66,-129.08 196.24,-135.3 198.24,-128.6"/>
</a>
</g>
</g>
<!-- Node26 -->
<g id="Node000026" class="node">
<title>Node26</title>
<g id="a_Node000026"><a xlink:title=" ">
<polygon fill="#e0e0e0" stroke="#999999" points="364,-129 308,-129 308,-110 364,-110 364,-129"/>
<text text-anchor="middle" x="336" y="-117" font-family="Helvetica,sans-Serif" font-size="10.00">stddef.h</text>
</a>
</g>
</g>
<!-- Node24&#45;&gt;Node26 -->
<g id="edge32_Node000024_Node000026" class="edge">
<title>Node24&#45;&gt;Node26</title>
<g id="a_edge32_Node000024_Node000026"><a xlink:title=" ">
<path fill="none" stroke="#63b8ff" d="M336,-164.75C336,-157.8 336,-147.85 336,-139.13"/>
<polygon fill="#63b8ff" stroke="#63b8ff" points="339.5,-139.09 336,-129.09 332.5,-139.09 339.5,-139.09"/>
</a>
</g>
</g>
<!-- Node25&#45;&gt;Node7 -->
<g id="edge30_Node000025_Node000007" class="edge">
<title>Node25&#45;&gt;Node7</title>
<g id="a_edge30_Node000025_Node000007"><a xlink:title=" ">
<path fill="none" stroke="#63b8ff" d="M159,-109.66C159,-92.17 159,-52.8 159,-29.27"/>
<polygon fill="#63b8ff" stroke="#63b8ff" points="162.5,-29.16 159,-19.16 155.5,-29.16 162.5,-29.16"/>
</a>
</g>
</g>
<!-- Node25&#45;&gt;Node18 -->
<g id="edge29_Node000025_Node000018" class="edge">
<title>Node25&#45;&gt;Node18</title>
<g id="a_edge29_Node000025_Node000018"><a xlink:title=" ">
<path fill="none" stroke="#63b8ff" d="M208.49,-109.98C262.63,-100.67 349.4,-85.74 407.28,-75.78"/>
<polygon fill="#63b8ff" stroke="#63b8ff" points="408.12,-79.18 417.38,-74.04 406.93,-72.28 408.12,-79.18"/>
</a>
</g>
</g>
<!-- Node28 -->
<g id="Node000028" class="node">
<title>Node28</title>
<g id="a_Node000028"><a xlink:href="_d_list_base_8h.html" target="_top" xlink:title=" ">
<polygon fill="white" stroke="#666666" points="773.5,-129 632.5,-129 632.5,-110 773.5,-110 773.5,-129"/>
<text text-anchor="middle" x="703" y="-117" font-family="Helvetica,sans-Serif" font-size="10.00">Kit/Container/DListBase.h</text>
</a>
</g>
</g>
<!-- Node27&#45;&gt;Node28 -->
<g id="edge37_Node000027_Node000028" class="edge">
<title>Node27&#45;&gt;Node28</title>
<g id="a_edge37_Node000027_Node000028"><a xlink:title=" ">
<path fill="none" stroke="#63b8ff" d="M523.38,-164.98C560.09,-155.89 618.38,-141.46 658.55,-131.51"/>
<polygon fill="#63b8ff" stroke="#63b8ff" points="659.48,-134.88 668.35,-129.08 657.8,-128.09 659.48,-134.88"/>
</a>
</g>
</g>
<!-- Node28&#45;&gt;Node18 -->
<g id="edge38_Node000028_Node000018" class="edge">
<title>Node28&#45;&gt;Node18</title>
<g id="a_edge38_Node000028_Node000018"><a xlink:title=" ">
<path fill="none" stroke="#63b8ff" d="M665.08,-109.98C624.35,-100.84 559.5,-86.27 515.18,-76.32"/>
<polygon fill="#63b8ff" stroke="#63b8ff" points="515.74,-72.86 505.21,-74.08 514.2,-79.69 515.74,-72.86"/>
</a>
</g>
</g>
<!-- Node29&#45;&gt;Node7 -->
<g id="edge44_Node000029_Node000007" class="edge">
<title>Node29&#45;&gt;Node7</title>
<g id="a_edge44_Node000029_Node000007"><a xlink:title=" ">
<path fill="none" stroke="#63b8ff" d="M80.11,-219.69C65.82,-192.62 27.22,-109.22 62,-55 75.3,-34.27 100.95,-23.07 122.53,-17.09"/>
<polygon fill="#63b8ff" stroke="#63b8ff" points="123.55,-20.44 132.41,-14.63 121.86,-13.65 123.55,-20.44"/>
</a>
</g>
</g>
<!-- Node29&#45;&gt;Node24 -->
<g id="edge43_Node000029_Node000024" class="edge">
<title>Node29&#45;&gt;Node24</title>
<g id="a_edge43_Node000029_Node000024"><a xlink:title=" ">
<path fill="none" stroke="#63b8ff" d="M125.33,-219.98C168.84,-210.8 238.2,-196.15 285.35,-186.19"/>
<polygon fill="#63b8ff" stroke="#63b8ff" points="286.3,-189.57 295.36,-184.08 284.85,-182.72 286.3,-189.57"/>
</a>
</g>
</g>
<!-- Node29&#45;&gt;Node25 -->
<g id="edge42_Node000029_Node000025" class="edge">
<title>Node29&#45;&gt;Node25</title>
<g id="a_edge42_Node000029_Node000025"><a xlink:title=" ">
<path fill="none" stroke="#63b8ff" d="M91.06,-219.66C103.31,-201.77 131.25,-161 147.22,-137.69"/>
<polygon fill="#63b8ff" stroke="#63b8ff" points="150.3,-139.39 153.07,-129.16 144.53,-135.43 150.3,-139.39"/>
</a>
</g>
</g>
<!-- Node31 -->
<g id="Node000031" class="node">
<title>Node31</title>
<g id="a_Node000031"><a xlink:href="_f_string_base_8h.html" target="_top" xlink:title=" ">
<polygon fill="white" stroke="#666666" points="1397.5,-239 1274.5,-239 1274.5,-220 1397.5,-220 1397.5,-239"/>
<text text-anchor="middle" x="1336" y="-227" font-family="Helvetica,sans-Serif" font-size="10.00">Kit/Text/FStringBase.h</text>
</a>
</g>
</g>
<!-- Node30&#45;&gt;Node31 -->
<g id="edge47_Node000030_Node000031" class="edge">
<title>Node30&#45;&gt;Node31</title>
<g id="a_edge47_Node000030_Node000031"><a xlink:title=" ">
<path fill="none" stroke="#63b8ff" d="M647.89,-280.9C758.31,-274.99 1031.68,-259.43 1260,-239 1261.3,-238.88 1262.62,-238.76 1263.94,-238.64"/>
<polygon fill="#63b8ff" stroke="#63b8ff" points="1264.61,-242.09 1274.22,-237.64 1263.93,-235.12 1264.61,-242.09"/>
</a>
</g>
</g>
<!-- Node32 -->
<g id="Node000032" class="node">
<title>Node32</title>
<g id="a_Node000032"><a xlink:href="_string_base_8h.html" target="_top" xlink:title=" ">
<polygon fill="white" stroke="#666666" points="1218,-184 1100,-184 1100,-165 1218,-165 1218,-184"/>
<text text-anchor="middle" x="1159" y="-172" font-family="Helvetica,sans-Serif" font-size="10.00">Kit/Text/StringBase.h</text>
</a>
</g>
</g>
<!-- Node31&#45;&gt;Node32 -->
<g id="edge48_Node000031_Node000032" class="edge">
<title>Node31&#45;&gt;Node32</title>
<g id="a_edge48_Node000031_Node000032"><a xlink:title=" ">
<path fill="none" stroke="#63b8ff" d="M1307.56,-219.98C1277.72,-211.05 1230.62,-196.94 1197.47,-187.02"/>
<polygon fill="#63b8ff" stroke="#63b8ff" points="1198.24,-183.6 1187.66,-184.08 1196.24,-190.3 1198.24,-183.6"/>
</a>
</g>
</g>
<!-- Node32&#45;&gt;Node5 -->
<g id="edge49_Node000032_Node000005" class="edge">
<title>Node32&#45;&gt;Node5</title>
<g id="a_edge49_Node000032_Node000005"><a xlink:title=" ">
<path fill="none" stroke="#63b8ff" d="M1133.29,-164.98C1106.55,-156.13 1064.47,-142.19 1034.55,-132.28"/>
<polygon fill="#63b8ff" stroke="#63b8ff" points="1035.5,-128.9 1024.91,-129.08 1033.3,-135.55 1035.5,-128.9"/>
</a>
</g>
</g>
<!-- Node33&#45;&gt;Node8 -->
<g id="edge51_Node000033_Node000008" class="edge">
<title>Node33&#45;&gt;Node8</title>
<g id="a_edge51_Node000033_Node000008"><a xlink:title=" ">
<path fill="none" stroke="#63b8ff" d="M530.09,-276.34C533.45,-275.89 536.77,-275.44 540,-275 618.51,-264.42 1246,-254.72 1246,-175.5 1246,-175.5 1246,-175.5 1246,-118.5 1246,-74.39 1200.42,-41.35 1169.61,-24.06"/>
<polygon fill="#63b8ff" stroke="#63b8ff" points="1171.06,-20.86 1160.59,-19.2 1167.74,-27.02 1171.06,-20.86"/>
</a>
</g>
</g>
<!-- Node34 -->
<g id="Node000034" class="node">
<title>Node34</title>
<g id="a_Node000034"><a xlink:title=" ">
<polygon fill="#e0e0e0" stroke="#999999" points="520.5,-239 451.5,-239 451.5,-220 520.5,-220 520.5,-239"/>
<text text-anchor="middle" x="486" y="-227" font-family="Helvetica,sans-Serif" font-size="10.00">type_traits</text>
</a>
</g>
</g>
<!-- Node33&#45;&gt;Node34 -->
<g id="edge52_Node000033_Node000034" class="edge">
<title>Node33&#45;&gt;Node34</title>
<g id="a_edge52_Node000033_Node000034"><a xlink:title=" ">
<path fill="none" stroke="#63b8ff" d="M479.32,-274.75C480.37,-267.8 481.87,-257.85 483.19,-249.13"/>
<polygon fill="#63b8ff" stroke="#63b8ff" points="486.67,-249.5 484.7,-239.09 479.75,-248.45 486.67,-249.5"/>
</a>
</g>
</g>
<!-- Node35 -->
<g id="Node000035" class="node">
<title>Node35</title>
<g id="a_Node000035"><a xlink:title=" ">
<polygon fill="#e0e0e0" stroke="#999999" points="433,-239 389,-239 389,-220 433,-220 433,-239"/>
<text text-anchor="middle" x="411" y="-227" font-family="Helvetica,sans-Serif" font-size="10.00">limits</text>
</a>
</g>
</g>
<!-- Node33&#45;&gt;Node35 -->
<g id="edge53_Node000033_Node000035" class="edge">
<title>Node33&#45;&gt;Node35</title>
<g id="a_edge53_Node000033_Node000035"><a xlink:title=" ">
<path fill="none" stroke="#63b8ff" d="M467.24,-274.98C457.23,-267.07 442.11,-255.11 430.07,-245.58"/>
<polygon fill="#63b8ff" stroke="#63b8ff" points="431.97,-242.63 421.96,-239.17 427.63,-248.12 431.97,-242.63"/>
</a>
</g>
</g>
<!-- Node37&#45;&gt;Node22 -->
<g id="edge61_Node000037_Node000022" class="edge">
<title>Node37&#45;&gt;Node22</title>
<g id="a_edge61_Node000037_Node000022"><a xlink:title=" ">
<path fill="none" stroke="#63b8ff" d="M261,-384.66C261,-367.17 261,-327.8 261,-304.27"/>
<polygon fill="#63b8ff" stroke="#63b8ff" points="264.5,-304.16 261,-294.16 257.5,-304.16 264.5,-304.16"/>
</a>
</g>
</g>
<!-- Node38 -->
<g id="Node000038" class="node">
<title>Node38</title>
<g id="a_Node000038"><a xlink:href="_foo_t_8h.html" target="_top" xlink:title=" ">
<polygon fill="white" stroke="#666666" points="208.5,-349 81.5,-349 81.5,-330 208.5,-330 208.5,-349"/>
<text text-anchor="middle" x="145" y="-337" font-family="Helvetica,sans-Serif" font-size="10.00">Dm/Transaction/FooT.h</text>
</a>
</g>
</g>
<!-- Node37&#45;&gt;Node38 -->
<g id="edge56_Node000037_Node000038" class="edge">
<title>Node37&#45;&gt;Node38</title>
<g id="a_edge56_Node000037_Node000038"><a xlink:title=" ">
<path fill="none" stroke="#63b8ff" d="M242.36,-384.98C223.7,-376.46 194.75,-363.23 173.26,-353.41"/>
<polygon fill="#63b8ff" stroke="#63b8ff" points="174.53,-350.14 163.98,-349.17 171.62,-356.51 174.53,-350.14"/>
</a>
</g>
</g>
<!-- Node38&#45;&gt;Node7 -->
<g id="edge57_Node000038_Node000007" class="edge">
<title>Node38&#45;&gt;Node7</title>
<g id="a_edge57_Node000038_Node000007"><a xlink:title=" ">
<path fill="none" stroke="#63b8ff" d="M112.46,-329.98C69.71,-316.59 0,-286.22 0,-230.5 0,-230.5 0,-230.5 0,-118.5 0,-59.59 75.62,-30.57 122.56,-18.23"/>
<polygon fill="#63b8ff" stroke="#63b8ff" points="123.53,-21.59 132.39,-15.78 121.84,-14.8 123.53,-21.59"/>
</a>
</g>
</g>
<!-- Node39 -->
<g id="Node000039" class="node">
<title>Node39</title>
<g id="a_Node000039"><a xlink:href="_string_8h.html" target="_top" xlink:title=" ">
<polygon fill="white" stroke="#666666" points="171.5,-294 118.5,-294 118.5,-275 171.5,-275 171.5,-294"/>
<text text-anchor="middle" x="145" y="-282" font-family="Helvetica,sans-Serif" font-size="10.00">string.h</text>
</a>
</g>
</g>
<!-- Node38&#45;&gt;Node39 -->
<g id="edge58_Node000038_Node000039" class="edge">
<title>Node38&#45;&gt;Node39</title>
<g id="a_edge58_Node000038_Node000039"><a xlink:title=" ">
<path fill="none" stroke="#63b8ff" d="M145,-329.75C145,-322.8 145,-312.85 145,-304.13"/>
<polygon fill="#63b8ff" stroke="#63b8ff" points="148.5,-304.09 145,-294.09 141.5,-304.09 148.5,-304.09"/>
</a>
</g>
</g>
<!-- Node39&#45;&gt;Node23 -->
<g id="edge59_Node000039_Node000023" class="edge">
<title>Node39&#45;&gt;Node23</title>
<g id="a_edge59_Node000039_Node000023"><a xlink:title=" ">
<path fill="none" stroke="#63b8ff" d="M167.98,-274.98C191.5,-266.27 228.29,-252.63 254.94,-242.75"/>
<polygon fill="#63b8ff" stroke="#63b8ff" points="256.45,-245.93 264.61,-239.17 254.01,-239.36 256.45,-245.93"/>
</a>
</g>
</g>
<!-- Node39&#45;&gt;Node29 -->
<g id="edge60_Node000039_Node000029" class="edge">
<title>Node39&#45;&gt;Node29</title>
<g id="a_edge60_Node000039_Node000029"><a xlink:title=" ">
<path fill="none" stroke="#63b8ff" d="M135.36,-274.98C126.49,-267.15 113.13,-255.34 102.39,-245.86"/>
<polygon fill="#63b8ff" stroke="#63b8ff" points="104.63,-243.17 94.82,-239.17 99.99,-248.41 104.63,-243.17"/>
</a>
</g>
</g>
</g>
</svg>
