<?xml version="1.0" encoding="UTF-8" standalone="no"?>
<!DOCTYPE svg PUBLIC "-//W3C//DTD SVG 1.1//EN"
 "http://www.w3.org/Graphics/SVG/1.1/DTD/svg11.dtd">
<!-- Generated by graphviz version 2.43.0 (0)
 -->
<!-- Title: Kit/Dm/Mp/Double.h Pages: 1 -->
<svg width="1181pt" height="412pt"
 viewBox="0.00 0.00 1181.00 412.00" xmlns="http://www.w3.org/2000/svg" xmlns:xlink="http://www.w3.org/1999/xlink">
<g id="graph0" class="graph" transform="scale(1 1) rotate(0) translate(4 408)">
<title>Kit/Dm/Mp/Double.h</title>
<!-- Node1 -->
<g id="Node000001" class="node">
<title>Node1</title>
<g id="a_Node000001"><a xlink:title=" ">
<polygon fill="#999999" stroke="#666666" points="916.5,-404 801.5,-404 801.5,-385 916.5,-385 916.5,-404"/>
<text text-anchor="middle" x="859" y="-392" font-family="Helvetica,sans-Serif" font-size="10.00">Kit/Dm/Mp/Double.h</text>
</a>
</g>
</g>
<!-- Node2 -->
<g id="Node000002" class="node">
<title>Node2</title>
<g id="a_Node000002"><a xlink:href="_primitive_type_8h.html" target="_top" xlink:title=" ">
<polygon fill="white" stroke="#666666" points="813.5,-349 666.5,-349 666.5,-330 813.5,-330 813.5,-349"/>
<text text-anchor="middle" x="740" y="-337" font-family="Helvetica,sans-Serif" font-size="10.00">Kit/Dm/Mp/PrimitiveType.h</text>
</a>
</g>
</g>
<!-- Node1&#45;&gt;Node2 -->
<g id="edge1_Node000001_Node000002" class="edge">
<title>Node1&#45;&gt;Node2</title>
<g id="a_edge1_Node000001_Node000002"><a xlink:title=" ">
<path fill="none" stroke="#63b8ff" d="M839.88,-384.98C820.65,-376.42 790.77,-363.11 768.69,-353.28"/>
<polygon fill="#63b8ff" stroke="#63b8ff" points="770.03,-350.04 759.47,-349.17 767.18,-356.44 770.03,-350.04"/>
</a>
</g>
</g>
<!-- Node34 -->
<g id="Node000034" class="node">
<title>Node34</title>
<g id="a_Node000034"><a xlink:href="real_8h.html" target="_top" xlink:title="This file contains a collection of methods comparing, manipulating, etc.">
<polygon fill="white" stroke="#666666" points="1008.5,-349 919.5,-349 919.5,-330 1008.5,-330 1008.5,-349"/>
<text text-anchor="middle" x="964" y="-337" font-family="Helvetica,sans-Serif" font-size="10.00">Kit/Math/real.h</text>
</a>
</g>
</g>
<!-- Node1&#45;&gt;Node34 -->
<g id="edge52_Node000001_Node000034" class="edge">
<title>Node1&#45;&gt;Node34</title>
<g id="a_edge52_Node000001_Node000034"><a xlink:title=" ">
<path fill="none" stroke="#63b8ff" d="M875.87,-384.98C892.61,-376.54 918.5,-363.47 937.89,-353.68"/>
<polygon fill="#63b8ff" stroke="#63b8ff" points="939.47,-356.8 946.82,-349.17 936.32,-350.55 939.47,-356.8"/>
</a>
</g>
</g>
<!-- Node3 -->
<g id="Node000003" class="node">
<title>Node3</title>
<g id="a_Node000003"><a xlink:href="_scalar_8h.html" target="_top" xlink:title=" ">
<polygon fill="white" stroke="#666666" points="272,-294 162,-294 162,-275 272,-275 272,-294"/>
<text text-anchor="middle" x="217" y="-282" font-family="Helvetica,sans-Serif" font-size="10.00">Kit/Dm/Mp/Scalar.h</text>
</a>
</g>
</g>
<!-- Node2&#45;&gt;Node3 -->
<g id="edge2_Node000002_Node000003" class="edge">
<title>Node2&#45;&gt;Node3</title>
<g id="a_edge2_Node000002_Node000003"><a xlink:title=" ">
<path fill="none" stroke="#63b8ff" d="M666.45,-331.05C564.01,-320.67 379.96,-302.01 282.19,-292.11"/>
<polygon fill="#63b8ff" stroke="#63b8ff" points="282.44,-288.61 272.14,-291.09 281.74,-295.58 282.44,-288.61"/>
</a>
</g>
</g>
<!-- Node27 -->
<g id="Node000027" class="node">
<title>Node27</title>
<g id="a_Node000027"><a xlink:href="_f_string_8h.html" target="_top" xlink:title=" ">
<polygon fill="white" stroke="#666666" points="750.5,-294 651.5,-294 651.5,-275 750.5,-275 750.5,-294"/>
<text text-anchor="middle" x="701" y="-282" font-family="Helvetica,sans-Serif" font-size="10.00">Kit/Text/FString.h</text>
</a>
</g>
</g>
<!-- Node2&#45;&gt;Node27 -->
<g id="edge42_Node000002_Node000027" class="edge">
<title>Node2&#45;&gt;Node27</title>
<g id="a_edge42_Node000002_Node000027"><a xlink:title=" ">
<path fill="none" stroke="#63b8ff" d="M733.56,-329.75C728.11,-322.34 720.14,-311.5 713.44,-302.41"/>
<polygon fill="#63b8ff" stroke="#63b8ff" points="716.07,-300.07 707.32,-294.09 710.43,-304.22 716.07,-300.07"/>
</a>
</g>
</g>
<!-- Node30 -->
<g id="Node000030" class="node">
<title>Node30</title>
<g id="a_Node000030"><a xlink:href="_string_to_8h.html" target="_top" xlink:title=" ">
<polygon fill="white" stroke="#666666" points="911,-294 807,-294 807,-275 911,-275 911,-294"/>
<text text-anchor="middle" x="859" y="-282" font-family="Helvetica,sans-Serif" font-size="10.00">Kit/Text/StringTo.h</text>
</a>
</g>
</g>
<!-- Node2&#45;&gt;Node30 -->
<g id="edge46_Node000002_Node000030" class="edge">
<title>Node2&#45;&gt;Node30</title>
<g id="a_edge46_Node000002_Node000030"><a xlink:title=" ">
<path fill="none" stroke="#63b8ff" d="M759.12,-329.98C778.35,-321.42 808.23,-308.11 830.31,-298.28"/>
<polygon fill="#63b8ff" stroke="#63b8ff" points="831.82,-301.44 839.53,-294.17 828.97,-295.04 831.82,-301.44"/>
</a>
</g>
</g>
<!-- Node31 -->
<g id="Node000031" class="node">
<title>Node31</title>
<g id="a_Node000031"><a xlink:title=" ">
<polygon fill="#e0e0e0" stroke="#999999" points="838.5,-239 769.5,-239 769.5,-220 838.5,-220 838.5,-239"/>
<text text-anchor="middle" x="804" y="-227" font-family="Helvetica,sans-Serif" font-size="10.00">type_traits</text>
</a>
</g>
</g>
<!-- Node2&#45;&gt;Node31 -->
<g id="edge51_Node000002_Node000031" class="edge">
<title>Node2&#45;&gt;Node31</title>
<g id="a_edge51_Node000002_Node000031"><a xlink:title=" ">
<path fill="none" stroke="#63b8ff" d="M745.24,-329.66C755.79,-311.85 779.78,-271.37 793.63,-248.01"/>
<polygon fill="#63b8ff" stroke="#63b8ff" points="796.78,-249.55 798.87,-239.16 790.76,-245.98 796.78,-249.55"/>
</a>
</g>
</g>
<!-- Node33 -->
<g id="Node000033" class="node">
<title>Node33</title>
<g id="a_Node000033"><a xlink:title=" ">
<polygon fill="#e0e0e0" stroke="#999999" points="633.5,-294 568.5,-294 568.5,-275 633.5,-275 633.5,-294"/>
<text text-anchor="middle" x="601" y="-282" font-family="Helvetica,sans-Serif" font-size="10.00">inttypes.h</text>
</a>
</g>
</g>
<!-- Node2&#45;&gt;Node33 -->
<g id="edge50_Node000002_Node000033" class="edge">
<title>Node2&#45;&gt;Node33</title>
<g id="a_edge50_Node000002_Node000033"><a xlink:title=" ">
<path fill="none" stroke="#63b8ff" d="M717.67,-329.98C694.8,-321.27 659.04,-307.63 633.14,-297.75"/>
<polygon fill="#63b8ff" stroke="#63b8ff" points="634.33,-294.46 623.74,-294.17 631.84,-301 634.33,-294.46"/>
</a>
</g>
</g>
<!-- Node4 -->
<g id="Node000004" class="node">
<title>Node4</title>
<g id="a_Node000004"><a xlink:href="_model_point_base_8h.html" target="_top" xlink:title=" ">
<polygon fill="white" stroke="#666666" points="365.5,-239 224.5,-239 224.5,-220 365.5,-220 365.5,-239"/>
<text text-anchor="middle" x="295" y="-227" font-family="Helvetica,sans-Serif" font-size="10.00">Kit/Dm/ModelPointBase.h</text>
</a>
</g>
</g>
<!-- Node3&#45;&gt;Node4 -->
<g id="edge3_Node000003_Node000004" class="edge">
<title>Node3&#45;&gt;Node4</title>
<g id="a_edge3_Node000003_Node000004"><a xlink:title=" ">
<path fill="none" stroke="#63b8ff" d="M229.53,-274.98C241.4,-266.92 259.46,-254.65 273.61,-245.03"/>
<polygon fill="#63b8ff" stroke="#63b8ff" points="275.94,-247.69 282.24,-239.17 272,-241.9 275.94,-247.69"/>
</a>
</g>
</g>
<!-- Node11 -->
<g id="Node000011" class="node">
<title>Node11</title>
<g id="a_Node000011"><a xlink:title=" ">
<polygon fill="#e0e0e0" stroke="#999999" points="189.5,-19 136.5,-19 136.5,0 189.5,0 189.5,-19"/>
<text text-anchor="middle" x="163" y="-7" font-family="Helvetica,sans-Serif" font-size="10.00">stdint.h</text>
</a>
</g>
</g>
<!-- Node3&#45;&gt;Node11 -->
<g id="edge41_Node000003_Node000011" class="edge">
<title>Node3&#45;&gt;Node11</title>
<g id="a_edge41_Node000003_Node000011"><a xlink:title=" ">
<path fill="none" stroke="#63b8ff" d="M161.96,-279.59C97.67,-271.68 0,-247.78 0,-175.5 0,-175.5 0,-175.5 0,-118.5 0,-58.13 78.67,-29.51 126.7,-17.67"/>
<polygon fill="#63b8ff" stroke="#63b8ff" points="127.51,-21.08 136.45,-15.39 125.91,-14.26 127.51,-21.08"/>
</a>
</g>
</g>
<!-- Node26 -->
<g id="Node000026" class="node">
<title>Node26</title>
<g id="a_Node000026"><a xlink:href="_observer_8h.html" target="_top" xlink:title=" ">
<polygon fill="white" stroke="#666666" points="192,-239 86,-239 86,-220 192,-220 192,-239"/>
<text text-anchor="middle" x="139" y="-227" font-family="Helvetica,sans-Serif" font-size="10.00">Kit/Dm/Observer.h</text>
</a>
</g>
</g>
<!-- Node3&#45;&gt;Node26 -->
<g id="edge37_Node000003_Node000026" class="edge">
<title>Node3&#45;&gt;Node26</title>
<g id="a_edge37_Node000003_Node000026"><a xlink:title=" ">
<path fill="none" stroke="#63b8ff" d="M204.47,-274.98C192.6,-266.92 174.54,-254.65 160.39,-245.03"/>
<polygon fill="#63b8ff" stroke="#63b8ff" points="162,-241.9 151.76,-239.17 158.06,-247.69 162,-241.9"/>
</a>
</g>
</g>
<!-- Node5 -->
<g id="Node000005" class="node">
<title>Node5</title>
<g id="a_Node000005"><a xlink:href="_i_model_point_8h.html" target="_top" xlink:title=" ">
<polygon fill="white" stroke="#666666" points="355,-184 235,-184 235,-165 355,-165 355,-184"/>
<text text-anchor="middle" x="295" y="-172" font-family="Helvetica,sans-Serif" font-size="10.00">Kit/Dm/IModelPoint.h</text>
</a>
</g>
</g>
<!-- Node4&#45;&gt;Node5 -->
<g id="edge4_Node000004_Node000005" class="edge">
<title>Node4&#45;&gt;Node5</title>
<g id="a_edge4_Node000004_Node000005"><a xlink:title=" ">
<path fill="none" stroke="#63b8ff" d="M295,-219.75C295,-212.8 295,-202.85 295,-194.13"/>
<polygon fill="#63b8ff" stroke="#63b8ff" points="298.5,-194.09 295,-184.09 291.5,-194.09 298.5,-194.09"/>
</a>
</g>
</g>
<!-- Node4&#45;&gt;Node11 -->
<g id="edge35_Node000004_Node000011" class="edge">
<title>Node4&#45;&gt;Node11</title>
<g id="a_edge35_Node000004_Node000011"><a xlink:title=" ">
<path fill="none" stroke="#63b8ff" d="M274.92,-219.93C259.59,-212.46 238.97,-200.27 226,-184 187.77,-136.05 171.49,-62.84 165.71,-28.92"/>
<polygon fill="#63b8ff" stroke="#63b8ff" points="169.16,-28.35 164.13,-19.02 162.25,-29.45 169.16,-28.35"/>
</a>
</g>
</g>
<!-- Node12 -->
<g id="Node000012" class="node">
<title>Node12</title>
<g id="a_Node000012"><a xlink:title=" ">
<polygon fill="#e0e0e0" stroke="#999999" points="1142.5,-19 1089.5,-19 1089.5,0 1142.5,0 1142.5,-19"/>
<text text-anchor="middle" x="1116" y="-7" font-family="Helvetica,sans-Serif" font-size="10.00">stdlib.h</text>
</a>
</g>
</g>
<!-- Node4&#45;&gt;Node12 -->
<g id="edge36_Node000004_Node000012" class="edge">
<title>Node4&#45;&gt;Node12</title>
<g id="a_edge36_Node000004_Node000012"><a xlink:title=" ">
<path fill="none" stroke="#63b8ff" d="M365.62,-228.03C481.72,-226.23 719.79,-218.25 918,-184 1008,-168.45 1060.73,-201.71 1116,-129 1138.12,-99.89 1129.53,-54.1 1122.21,-28.81"/>
<polygon fill="#63b8ff" stroke="#63b8ff" points="1125.48,-27.54 1119.14,-19.05 1118.8,-29.64 1125.48,-27.54"/>
</a>
</g>
</g>
<!-- Node18 -->
<g id="Node000018" class="node">
<title>Node18</title>
<g id="a_Node000018"><a xlink:href="_i_observer_8h.html" target="_top" xlink:title=" ">
<polygon fill="white" stroke="#666666" points="175.5,-129 66.5,-129 66.5,-110 175.5,-110 175.5,-129"/>
<text text-anchor="middle" x="121" y="-117" font-family="Helvetica,sans-Serif" font-size="10.00">Kit/Dm/IObserver.h</text>
</a>
</g>
</g>
<!-- Node4&#45;&gt;Node18 -->
<g id="edge31_Node000004_Node000018" class="edge">
<title>Node4&#45;&gt;Node18</title>
<g id="a_edge31_Node000004_Node000018"><a xlink:title=" ">
<path fill="none" stroke="#63b8ff" d="M267.86,-219.9C245.88,-212.26 214.63,-199.87 190,-184 169.18,-170.58 148.74,-150.69 135.57,-136.75"/>
<polygon fill="#63b8ff" stroke="#63b8ff" points="138.08,-134.3 128.72,-129.33 132.93,-139.05 138.08,-134.3"/>
</a>
</g>
</g>
<!-- Node21 -->
<g id="Node000021" class="node">
<title>Node21</title>
<g id="a_Node000021"><a xlink:href="_i_model_database_8h.html" target="_top" xlink:title=" ">
<polygon fill="white" stroke="#666666" points="909,-184 767,-184 767,-165 909,-165 909,-184"/>
<text text-anchor="middle" x="838" y="-172" font-family="Helvetica,sans-Serif" font-size="10.00">Kit/Dm/IModelDatabase.h</text>
</a>
</g>
</g>
<!-- Node4&#45;&gt;Node21 -->
<g id="edge24_Node000004_Node000021" class="edge">
<title>Node4&#45;&gt;Node21</title>
<g id="a_edge24_Node000004_Node000021"><a xlink:title=" ">
<path fill="none" stroke="#63b8ff" d="M365.62,-221.93C454.39,-213.63 611.74,-198.75 756.92,-184.1"/>
<polygon fill="#63b8ff" stroke="#63b8ff" points="757.31,-187.58 766.9,-183.09 756.6,-180.61 757.31,-187.58"/>
</a>
</g>
</g>
<!-- Node24 -->
<g id="Node000024" class="node">
<title>Node24</title>
<g id="a_Node000024"><a xlink:href="_d_list_8h.html" target="_top" xlink:title=" ">
<polygon fill="white" stroke="#666666" points="490.5,-184 373.5,-184 373.5,-165 490.5,-165 490.5,-184"/>
<text text-anchor="middle" x="432" y="-172" font-family="Helvetica,sans-Serif" font-size="10.00">Kit/Container/DList.h</text>
</a>
</g>
</g>
<!-- Node4&#45;&gt;Node24 -->
<g id="edge32_Node000004_Node000024" class="edge">
<title>Node4&#45;&gt;Node24</title>
<g id="a_edge32_Node000004_Node000024"><a xlink:title=" ">
<path fill="none" stroke="#63b8ff" d="M317.01,-219.98C339.45,-211.3 374.48,-197.75 399.99,-187.88"/>
<polygon fill="#63b8ff" stroke="#63b8ff" points="401.52,-191.04 409.59,-184.17 399,-184.51 401.52,-191.04"/>
</a>
</g>
</g>
<!-- Node6 -->
<g id="Node000006" class="node">
<title>Node6</title>
<g id="a_Node000006"><a xlink:title=" ">
<polygon fill="#e0e0e0" stroke="#999999" points="975.5,-129 902.5,-129 902.5,-110 975.5,-110 975.5,-129"/>
<text text-anchor="middle" x="939" y="-117" font-family="Helvetica,sans-Serif" font-size="10.00">kit_config.h</text>
</a>
</g>
</g>
<!-- Node5&#45;&gt;Node6 -->
<g id="edge5_Node000005_Node000006" class="edge">
<title>Node5&#45;&gt;Node6</title>
<g id="a_edge5_Node000005_Node000006"><a xlink:title=" ">
<path fill="none" stroke="#63b8ff" d="M355.19,-165.89C358.17,-165.57 361.12,-165.28 364,-165 595.26,-142.9 657.44,-158.02 892.18,-128.94"/>
<polygon fill="#63b8ff" stroke="#63b8ff" points="892.91,-132.37 902.4,-127.65 892.04,-125.42 892.91,-132.37"/>
</a>
</g>
</g>
<!-- Node7 -->
<g id="Node000007" class="node">
<title>Node7</title>
<g id="a_Node000007"><a xlink:href="_keyed_item_8h.html" target="_top" xlink:title=" ">
<polygon fill="white" stroke="#666666" points="648.5,-129 503.5,-129 503.5,-110 648.5,-110 648.5,-129"/>
<text text-anchor="middle" x="576" y="-117" font-family="Helvetica,sans-Serif" font-size="10.00">Kit/Container/KeyedItem.h</text>
</a>
</g>
</g>
<!-- Node5&#45;&gt;Node7 -->
<g id="edge6_Node000005_Node000007" class="edge">
<title>Node5&#45;&gt;Node7</title>
<g id="a_edge6_Node000005_Node000007"><a xlink:title=" ">
<path fill="none" stroke="#63b8ff" d="M340.15,-164.98C389.26,-155.72 467.82,-140.9 520.62,-130.94"/>
<polygon fill="#63b8ff" stroke="#63b8ff" points="521.32,-134.37 530.5,-129.08 520.02,-127.5 521.32,-134.37"/>
</a>
</g>
</g>
<!-- Node5&#45;&gt;Node11 -->
<g id="edge23_Node000005_Node000011" class="edge">
<title>Node5&#45;&gt;Node11</title>
<g id="a_edge23_Node000005_Node000011"><a xlink:title=" ">
<path fill="none" stroke="#63b8ff" d="M287.89,-164.88C280.77,-156.08 269.65,-141.93 261,-129 239.86,-97.38 242.75,-83.88 218,-55 208.29,-43.67 195.4,-33.07 184.55,-25.06"/>
<polygon fill="#63b8ff" stroke="#63b8ff" points="186.55,-22.18 176.37,-19.22 182.48,-27.88 186.55,-22.18"/>
</a>
</g>
</g>
<!-- Node14 -->
<g id="Node000014" class="node">
<title>Node14</title>
<g id="a_Node000014"><a xlink:href="_i_string_8h.html" target="_top" xlink:title=" ">
<polygon fill="white" stroke="#666666" points="884.5,-129 787.5,-129 787.5,-110 884.5,-110 884.5,-129"/>
<text text-anchor="middle" x="836" y="-117" font-family="Helvetica,sans-Serif" font-size="10.00">Kit/Text/IString.h</text>
</a>
</g>
</g>
<!-- Node5&#45;&gt;Node14 -->
<g id="edge13_Node000005_Node000014" class="edge">
<title>Node5&#45;&gt;Node14</title>
<g id="a_edge13_Node000005_Node000014"><a xlink:title=" ">
<path fill="none" stroke="#63b8ff" d="M355.2,-165.96C358.17,-165.62 361.12,-165.3 364,-165 544.46,-146.05 592.86,-150.24 777.26,-129.01"/>
<polygon fill="#63b8ff" stroke="#63b8ff" points="777.76,-132.48 787.29,-127.85 776.96,-125.53 777.76,-132.48"/>
</a>
</g>
</g>
<!-- Node5&#45;&gt;Node18 -->
<g id="edge18_Node000005_Node000018" class="edge">
<title>Node5&#45;&gt;Node18</title>
<g id="a_edge18_Node000005_Node000018"><a xlink:title=" ">
<path fill="none" stroke="#63b8ff" d="M267.04,-164.98C237.7,-156.05 191.4,-141.94 158.81,-132.02"/>
<polygon fill="#63b8ff" stroke="#63b8ff" points="159.76,-128.65 149.18,-129.08 157.72,-135.34 159.76,-128.65"/>
</a>
</g>
</g>
<!-- Node19 -->
<g id="Node000019" class="node">
<title>Node19</title>
<g id="a_Node000019"><a xlink:href="_arduino_8h_source.html" target="_top" xlink:title=" ">
<polygon fill="white" stroke="#666666" points="769.5,-129 666.5,-129 666.5,-110 769.5,-110 769.5,-129"/>
<text text-anchor="middle" x="718" y="-117" font-family="Helvetica,sans-Serif" font-size="10.00">Kit/Json/Arduino.h</text>
</a>
</g>
</g>
<!-- Node5&#45;&gt;Node19 -->
<g id="edge21_Node000005_Node000019" class="edge">
<title>Node5&#45;&gt;Node19</title>
<g id="a_edge21_Node000005_Node000019"><a xlink:title=" ">
<path fill="none" stroke="#63b8ff" d="M355.21,-166.08C358.18,-165.72 361.12,-165.35 364,-165 491.04,-149.37 525.26,-146.2 656.39,-129.06"/>
<polygon fill="#63b8ff" stroke="#63b8ff" points="656.96,-132.52 666.42,-127.75 656.05,-125.58 656.96,-132.52"/>
</a>
</g>
</g>
<!-- Node20 -->
<g id="Node000020" class="node">
<title>Node20</title>
<g id="a_Node000020"><a xlink:title=" ">
<polygon fill="#e0e0e0" stroke="#999999" points="326,-129 270,-129 270,-110 326,-110 326,-129"/>
<text text-anchor="middle" x="298" y="-117" font-family="Helvetica,sans-Serif" font-size="10.00">stddef.h</text>
</a>
</g>
</g>
<!-- Node5&#45;&gt;Node20 -->
<g id="edge22_Node000005_Node000020" class="edge">
<title>Node5&#45;&gt;Node20</title>
<g id="a_edge22_Node000005_Node000020"><a xlink:title=" ">
<path fill="none" stroke="#63b8ff" d="M295.5,-164.75C295.89,-157.8 296.45,-147.85 296.95,-139.13"/>
<polygon fill="#63b8ff" stroke="#63b8ff" points="300.44,-139.27 297.51,-129.09 293.45,-138.88 300.44,-139.27"/>
</a>
</g>
</g>
<!-- Node8 -->
<g id="Node000008" class="node">
<title>Node8</title>
<g id="a_Node000008"><a xlink:href="_list_item_8h.html" target="_top" xlink:title=" ">
<polygon fill="white" stroke="#666666" points="481,-74 349,-74 349,-55 481,-55 481,-74"/>
<text text-anchor="middle" x="415" y="-62" font-family="Helvetica,sans-Serif" font-size="10.00">Kit/Container/ListItem.h</text>
</a>
</g>
</g>
<!-- Node7&#45;&gt;Node8 -->
<g id="edge7_Node000007_Node000008" class="edge">
<title>Node7&#45;&gt;Node8</title>
<g id="a_edge7_Node000007_Node000008"><a xlink:title=" ">
<path fill="none" stroke="#63b8ff" d="M550.13,-109.98C523.22,-101.13 480.88,-87.19 450.77,-77.28"/>
<polygon fill="#63b8ff" stroke="#63b8ff" points="451.66,-73.88 441.07,-74.08 449.47,-80.53 451.66,-73.88"/>
</a>
</g>
</g>
<!-- Node10 -->
<g id="Node000010" class="node">
<title>Node10</title>
<g id="a_Node000010"><a xlink:href="_key_8h.html" target="_top" xlink:title=" ">
<polygon fill="white" stroke="#666666" points="648.5,-74 539.5,-74 539.5,-55 648.5,-55 648.5,-74"/>
<text text-anchor="middle" x="594" y="-62" font-family="Helvetica,sans-Serif" font-size="10.00">Kit/Container/Key.h</text>
</a>
</g>
</g>
<!-- Node7&#45;&gt;Node10 -->
<g id="edge9_Node000007_Node000010" class="edge">
<title>Node7&#45;&gt;Node10</title>
<g id="a_edge9_Node000007_Node000010"><a xlink:title=" ">
<path fill="none" stroke="#63b8ff" d="M578.97,-109.75C581.36,-102.72 584.79,-92.62 587.77,-83.84"/>
<polygon fill="#63b8ff" stroke="#63b8ff" points="591.18,-84.68 591.08,-74.09 584.55,-82.43 591.18,-84.68"/>
</a>
</g>
</g>
<!-- Node9 -->
<g id="Node000009" class="node">
<title>Node9</title>
<g id="a_Node000009"><a xlink:href="_item_8h.html" target="_top" xlink:title=" ">
<polygon fill="white" stroke="#666666" points="472.5,-19 357.5,-19 357.5,0 472.5,0 472.5,-19"/>
<text text-anchor="middle" x="415" y="-7" font-family="Helvetica,sans-Serif" font-size="10.00">Kit/Container/Item.h</text>
</a>
</g>
</g>
<!-- Node8&#45;&gt;Node9 -->
<g id="edge8_Node000008_Node000009" class="edge">
<title>Node8&#45;&gt;Node9</title>
<g id="a_edge8_Node000008_Node000009"><a xlink:title=" ">
<path fill="none" stroke="#63b8ff" d="M415,-54.75C415,-47.8 415,-37.85 415,-29.13"/>
<polygon fill="#63b8ff" stroke="#63b8ff" points="418.5,-29.09 415,-19.09 411.5,-29.09 418.5,-29.09"/>
</a>
</g>
</g>
<!-- Node10&#45;&gt;Node11 -->
<g id="edge10_Node000010_Node000011" class="edge">
<title>Node10&#45;&gt;Node11</title>
<g id="a_edge10_Node000010_Node000011"><a xlink:title=" ">
<path fill="none" stroke="#63b8ff" d="M539.41,-56.79C450.28,-45.83 275.82,-24.37 199.84,-15.03"/>
<polygon fill="#63b8ff" stroke="#63b8ff" points="200.14,-11.54 189.79,-13.79 199.29,-18.49 200.14,-11.54"/>
</a>
</g>
</g>
<!-- Node10&#45;&gt;Node12 -->
<g id="edge11_Node000010_Node000012" class="edge">
<title>Node10&#45;&gt;Node12</title>
<g id="a_edge11_Node000010_Node000012"><a xlink:title=" ">
<path fill="none" stroke="#63b8ff" d="M648.69,-57.81C657.81,-56.87 667.17,-55.9 676,-55 825.42,-39.7 1003.42,-21.8 1079.06,-14.2"/>
<polygon fill="#63b8ff" stroke="#63b8ff" points="1079.86,-17.64 1089.46,-13.16 1079.16,-10.68 1079.86,-17.64"/>
</a>
</g>
</g>
<!-- Node13 -->
<g id="Node000013" class="node">
<title>Node13</title>
<g id="a_Node000013"><a xlink:title=" ">
<polygon fill="#e0e0e0" stroke="#999999" points="620.5,-19 567.5,-19 567.5,0 620.5,0 620.5,-19"/>
<text text-anchor="middle" x="594" y="-7" font-family="Helvetica,sans-Serif" font-size="10.00">limits.h</text>
</a>
</g>
</g>
<!-- Node10&#45;&gt;Node13 -->
<g id="edge12_Node000010_Node000013" class="edge">
<title>Node10&#45;&gt;Node13</title>
<g id="a_edge12_Node000010_Node000013"><a xlink:title=" ">
<path fill="none" stroke="#63b8ff" d="M594,-54.75C594,-47.8 594,-37.85 594,-29.13"/>
<polygon fill="#63b8ff" stroke="#63b8ff" points="597.5,-29.09 594,-19.09 590.5,-29.09 597.5,-29.09"/>
</a>
</g>
</g>
<!-- Node14&#45;&gt;Node10 -->
<g id="edge14_Node000014_Node000010" class="edge">
<title>Node14&#45;&gt;Node10</title>
<g id="a_edge14_Node000014_Node000010"><a xlink:title=" ">
<path fill="none" stroke="#63b8ff" d="M797.12,-109.98C755.26,-100.82 688.57,-86.21 643.12,-76.26"/>
<polygon fill="#63b8ff" stroke="#63b8ff" points="643.7,-72.8 633.19,-74.08 642.21,-79.64 643.7,-72.8"/>
</a>
</g>
</g>
<!-- Node15 -->
<g id="Node000015" class="node">
<title>Node15</title>
<g id="a_Node000015"><a xlink:href="printfchecker_8h.html" target="_top" xlink:title="This file contains macro that enables the GCC (and Clang) compiler to validate printf flags with thei...">
<polygon fill="white" stroke="#666666" points="908.5,-74 763.5,-74 763.5,-55 908.5,-55 908.5,-74"/>
<text text-anchor="middle" x="836" y="-62" font-family="Helvetica,sans-Serif" font-size="10.00">Kit/System/printfchecker.h</text>
</a>
</g>
</g>
<!-- Node14&#45;&gt;Node15 -->
<g id="edge15_Node000014_Node000015" class="edge">
<title>Node14&#45;&gt;Node15</title>
<g id="a_edge15_Node000014_Node000015"><a xlink:title=" ">
<path fill="none" stroke="#63b8ff" d="M836,-109.75C836,-102.8 836,-92.85 836,-84.13"/>
<polygon fill="#63b8ff" stroke="#63b8ff" points="839.5,-84.09 836,-74.09 832.5,-84.09 839.5,-84.09"/>
</a>
</g>
</g>
<!-- Node16 -->
<g id="Node000016" class="node">
<title>Node16</title>
<g id="a_Node000016"><a xlink:title=" ">
<polygon fill="#e0e0e0" stroke="#999999" points="983,-74 927,-74 927,-55 983,-55 983,-74"/>
<text text-anchor="middle" x="955" y="-62" font-family="Helvetica,sans-Serif" font-size="10.00">stdarg.h</text>
</a>
</g>
</g>
<!-- Node14&#45;&gt;Node16 -->
<g id="edge16_Node000014_Node000016" class="edge">
<title>Node14&#45;&gt;Node16</title>
<g id="a_edge16_Node000014_Node000016"><a xlink:title=" ">
<path fill="none" stroke="#63b8ff" d="M855.12,-109.98C874.35,-101.42 904.23,-88.11 926.31,-78.28"/>
<polygon fill="#63b8ff" stroke="#63b8ff" points="927.82,-81.44 935.53,-74.17 924.97,-75.04 927.82,-81.44"/>
</a>
</g>
</g>
<!-- Node17 -->
<g id="Node000017" class="node">
<title>Node17</title>
<g id="a_Node000017"><a xlink:title=" ">
<polygon fill="#e0e0e0" stroke="#999999" points="745,-74 685,-74 685,-55 745,-55 745,-74"/>
<text text-anchor="middle" x="715" y="-62" font-family="Helvetica,sans-Serif" font-size="10.00">iostream</text>
</a>
</g>
</g>
<!-- Node14&#45;&gt;Node17 -->
<g id="edge17_Node000014_Node000017" class="edge">
<title>Node14&#45;&gt;Node17</title>
<g id="a_edge17_Node000014_Node000017"><a xlink:title=" ">
<path fill="none" stroke="#63b8ff" d="M816.56,-109.98C797.01,-101.42 766.62,-88.11 744.18,-78.28"/>
<polygon fill="#63b8ff" stroke="#63b8ff" points="745.36,-74.98 734.79,-74.17 742.55,-81.39 745.36,-74.98"/>
</a>
</g>
</g>
<!-- Node18&#45;&gt;Node8 -->
<g id="edge19_Node000018_Node000008" class="edge">
<title>Node18&#45;&gt;Node8</title>
<g id="a_edge19_Node000018_Node000008"><a xlink:title=" ">
<path fill="none" stroke="#63b8ff" d="M168.24,-109.98C219.73,-100.7 302.16,-85.84 357.41,-75.88"/>
<polygon fill="#63b8ff" stroke="#63b8ff" points="358.17,-79.3 367.39,-74.08 356.93,-72.41 358.17,-79.3"/>
</a>
</g>
</g>
<!-- Node18&#45;&gt;Node11 -->
<g id="edge20_Node000018_Node000011" class="edge">
<title>Node18&#45;&gt;Node11</title>
<g id="a_edge20_Node000018_Node000011"><a xlink:title=" ">
<path fill="none" stroke="#63b8ff" d="M124.44,-109.66C131.3,-92.01 146.83,-52.09 155.95,-28.64"/>
<polygon fill="#63b8ff" stroke="#63b8ff" points="159.27,-29.75 159.63,-19.16 152.75,-27.21 159.27,-29.75"/>
</a>
</g>
</g>
<!-- Node21&#45;&gt;Node6 -->
<g id="edge25_Node000021_Node000006" class="edge">
<title>Node21&#45;&gt;Node6</title>
<g id="a_edge25_Node000021_Node000006"><a xlink:title=" ">
<path fill="none" stroke="#63b8ff" d="M854.23,-164.98C870.18,-156.61 894.78,-143.7 913.38,-133.95"/>
<polygon fill="#63b8ff" stroke="#63b8ff" points="915.25,-136.92 922.48,-129.17 912,-130.72 915.25,-136.92"/>
</a>
</g>
</g>
<!-- Node21&#45;&gt;Node14 -->
<g id="edge26_Node000021_Node000014" class="edge">
<title>Node21&#45;&gt;Node14</title>
<g id="a_edge26_Node000021_Node000014"><a xlink:title=" ">
<path fill="none" stroke="#63b8ff" d="M837.67,-164.75C837.41,-157.8 837.03,-147.85 836.7,-139.13"/>
<polygon fill="#63b8ff" stroke="#63b8ff" points="840.2,-138.95 836.32,-129.09 833.2,-139.21 840.2,-138.95"/>
</a>
</g>
</g>
<!-- Node21&#45;&gt;Node19 -->
<g id="edge30_Node000021_Node000019" class="edge">
<title>Node21&#45;&gt;Node19</title>
<g id="a_edge30_Node000021_Node000019"><a xlink:title=" ">
<path fill="none" stroke="#63b8ff" d="M818.72,-164.98C799.33,-156.42 769.19,-143.11 746.93,-133.28"/>
<polygon fill="#63b8ff" stroke="#63b8ff" points="748.19,-130.01 737.63,-129.17 745.36,-136.41 748.19,-130.01"/>
</a>
</g>
</g>
<!-- Node22 -->
<g id="Node000022" class="node">
<title>Node22</title>
<g id="a_Node000022"><a xlink:href="_mutex_8h.html" target="_top" xlink:title=" ">
<polygon fill="white" stroke="#666666" points="1106.5,-129 993.5,-129 993.5,-110 1106.5,-110 1106.5,-129"/>
<text text-anchor="middle" x="1050" y="-117" font-family="Helvetica,sans-Serif" font-size="10.00">Kit/System/Mutex.h</text>
</a>
</g>
</g>
<!-- Node21&#45;&gt;Node22 -->
<g id="edge27_Node000021_Node000022" class="edge">
<title>Node21&#45;&gt;Node22</title>
<g id="a_edge27_Node000021_Node000022"><a xlink:title=" ">
<path fill="none" stroke="#63b8ff" d="M872.06,-164.98C908.42,-155.89 966.17,-141.46 1005.97,-131.51"/>
<polygon fill="#63b8ff" stroke="#63b8ff" points="1006.82,-134.9 1015.67,-129.08 1005.12,-128.11 1006.82,-134.9"/>
</a>
</g>
</g>
<!-- Node22&#45;&gt;Node12 -->
<g id="edge28_Node000022_Node000012" class="edge">
<title>Node22&#45;&gt;Node12</title>
<g id="a_edge28_Node000022_Node000012"><a xlink:title=" ">
<path fill="none" stroke="#63b8ff" d="M1055.64,-109.67C1061.33,-100.72 1070.36,-86.45 1078,-74 1087.53,-58.47 1098.17,-40.65 1105.76,-27.85"/>
<polygon fill="#63b8ff" stroke="#63b8ff" points="1108.82,-29.55 1110.9,-19.16 1102.79,-25.99 1108.82,-29.55"/>
</a>
</g>
</g>
<!-- Node23 -->
<g id="Node000023" class="node">
<title>Node23</title>
<g id="a_Node000023"><a xlink:title=" ">
<polygon fill="#e0e0e0" stroke="#999999" points="1068.5,-74 1003.5,-74 1003.5,-55 1068.5,-55 1068.5,-74"/>
<text text-anchor="middle" x="1036" y="-62" font-family="Helvetica,sans-Serif" font-size="10.00">kit_map.h</text>
</a>
</g>
</g>
<!-- Node22&#45;&gt;Node23 -->
<g id="edge29_Node000022_Node000023" class="edge">
<title>Node22&#45;&gt;Node23</title>
<g id="a_edge29_Node000022_Node000023"><a xlink:title=" ">
<path fill="none" stroke="#63b8ff" d="M1047.69,-109.75C1045.83,-102.72 1043.16,-92.62 1040.85,-83.84"/>
<polygon fill="#63b8ff" stroke="#63b8ff" points="1044.21,-82.86 1038.27,-74.09 1037.44,-84.65 1044.21,-82.86"/>
</a>
</g>
</g>
<!-- Node25 -->
<g id="Node000025" class="node">
<title>Node25</title>
<g id="a_Node000025"><a xlink:href="_d_list_base_8h.html" target="_top" xlink:title=" ">
<polygon fill="white" stroke="#666666" points="485.5,-129 344.5,-129 344.5,-110 485.5,-110 485.5,-129"/>
<text text-anchor="middle" x="415" y="-117" font-family="Helvetica,sans-Serif" font-size="10.00">Kit/Container/DListBase.h</text>
</a>
</g>
</g>
<!-- Node24&#45;&gt;Node25 -->
<g id="edge33_Node000024_Node000025" class="edge">
<title>Node24&#45;&gt;Node25</title>
<g id="a_edge33_Node000024_Node000025"><a xlink:title=" ">
<path fill="none" stroke="#63b8ff" d="M429.19,-164.75C426.94,-157.72 423.7,-147.62 420.88,-138.84"/>
<polygon fill="#63b8ff" stroke="#63b8ff" points="424.14,-137.54 417.75,-129.09 417.48,-139.68 424.14,-137.54"/>
</a>
</g>
</g>
<!-- Node25&#45;&gt;Node8 -->
<g id="edge34_Node000025_Node000008" class="edge">
<title>Node25&#45;&gt;Node8</title>
<g id="a_edge34_Node000025_Node000008"><a xlink:title=" ">
<path fill="none" stroke="#63b8ff" d="M415,-109.75C415,-102.8 415,-92.85 415,-84.13"/>
<polygon fill="#63b8ff" stroke="#63b8ff" points="418.5,-84.09 415,-74.09 411.5,-84.09 418.5,-84.09"/>
</a>
</g>
</g>
<!-- Node26&#45;&gt;Node5 -->
<g id="edge39_Node000026_Node000005" class="edge">
<title>Node26&#45;&gt;Node5</title>
<g id="a_edge39_Node000026_Node000005"><a xlink:title=" ">
<path fill="none" stroke="#63b8ff" d="M164.06,-219.98C190.03,-211.16 230.81,-197.31 259.96,-187.41"/>
<polygon fill="#63b8ff" stroke="#63b8ff" points="261.4,-190.61 269.74,-184.08 259.15,-183.99 261.4,-190.61"/>
</a>
</g>
</g>
<!-- Node26&#45;&gt;Node11 -->
<g id="edge40_Node000026_Node000011" class="edge">
<title>Node26&#45;&gt;Node11</title>
<g id="a_edge40_Node000026_Node000011"><a xlink:title=" ">
<path fill="none" stroke="#63b8ff" d="M124.82,-219.73C96.53,-201.02 37.42,-155.23 57,-110 73.61,-71.63 113.11,-41.25 138.92,-24.59"/>
<polygon fill="#63b8ff" stroke="#63b8ff" points="141.11,-27.35 147.74,-19.09 137.4,-21.41 141.11,-27.35"/>
</a>
</g>
</g>
<!-- Node26&#45;&gt;Node18 -->
<g id="edge38_Node000026_Node000018" class="edge">
<title>Node26&#45;&gt;Node18</title>
<g id="a_edge38_Node000026_Node000018"><a xlink:title=" ">
<path fill="none" stroke="#63b8ff" d="M137.53,-219.66C134.61,-202.17 128.05,-162.8 124.13,-139.27"/>
<polygon fill="#63b8ff" stroke="#63b8ff" points="127.54,-138.45 122.44,-129.16 120.63,-139.6 127.54,-138.45"/>
</a>
</g>
</g>
<!-- Node28 -->
<g id="Node000028" class="node">
<title>Node28</title>
<g id="a_Node000028"><a xlink:href="_f_string_base_8h.html" target="_top" xlink:title=" ">
<polygon fill="white" stroke="#666666" points="751.5,-239 628.5,-239 628.5,-220 751.5,-220 751.5,-239"/>
<text text-anchor="middle" x="690" y="-227" font-family="Helvetica,sans-Serif" font-size="10.00">Kit/Text/FStringBase.h</text>
</a>
</g>
</g>
<!-- Node27&#45;&gt;Node28 -->
<g id="edge43_Node000027_Node000028" class="edge">
<title>Node27&#45;&gt;Node28</title>
<g id="a_edge43_Node000027_Node000028"><a xlink:title=" ">
<path fill="none" stroke="#63b8ff" d="M699.18,-274.75C697.74,-267.8 695.68,-257.85 693.87,-249.13"/>
<polygon fill="#63b8ff" stroke="#63b8ff" points="697.24,-248.17 691.78,-239.09 690.39,-249.59 697.24,-248.17"/>
</a>
</g>
</g>
<!-- Node29 -->
<g id="Node000029" class="node">
<title>Node29</title>
<g id="a_Node000029"><a xlink:href="_string_base_8h.html" target="_top" xlink:title=" ">
<polygon fill="white" stroke="#666666" points="749,-184 631,-184 631,-165 749,-165 749,-184"/>
<text text-anchor="middle" x="690" y="-172" font-family="Helvetica,sans-Serif" font-size="10.00">Kit/Text/StringBase.h</text>
</a>
</g>
</g>
<!-- Node28&#45;&gt;Node29 -->
<g id="edge44_Node000028_Node000029" class="edge">
<title>Node28&#45;&gt;Node29</title>
<g id="a_edge44_Node000028_Node000029"><a xlink:title=" ">
<path fill="none" stroke="#63b8ff" d="M690,-219.75C690,-212.8 690,-202.85 690,-194.13"/>
<polygon fill="#63b8ff" stroke="#63b8ff" points="693.5,-194.09 690,-184.09 686.5,-194.09 693.5,-194.09"/>
</a>
</g>
</g>
<!-- Node29&#45;&gt;Node14 -->
<g id="edge45_Node000029_Node000014" class="edge">
<title>Node29&#45;&gt;Node14</title>
<g id="a_edge45_Node000029_Node000014"><a xlink:title=" ">
<path fill="none" stroke="#63b8ff" d="M713.46,-164.98C737.58,-156.23 775.37,-142.51 802.6,-132.62"/>
<polygon fill="#63b8ff" stroke="#63b8ff" points="803.91,-135.87 812.12,-129.17 801.52,-129.29 803.91,-135.87"/>
</a>
</g>
</g>
<!-- Node30&#45;&gt;Node12 -->
<g id="edge47_Node000030_Node000012" class="edge">
<title>Node30&#45;&gt;Node12</title>
<g id="a_edge47_Node000030_Node000012"><a xlink:title=" ">
<path fill="none" stroke="#63b8ff" d="M911.2,-276.53C1000.49,-263.14 1173,-230.19 1173,-175.5 1173,-175.5 1173,-175.5 1173,-118.5 1173,-82.51 1147.94,-46.76 1131.05,-26.76"/>
<polygon fill="#63b8ff" stroke="#63b8ff" points="1133.64,-24.4 1124.41,-19.2 1128.38,-29.02 1133.64,-24.4"/>
</a>
</g>
</g>
<!-- Node30&#45;&gt;Node31 -->
<g id="edge48_Node000030_Node000031" class="edge">
<title>Node30&#45;&gt;Node31</title>
<g id="a_edge48_Node000030_Node000031"><a xlink:title=" ">
<path fill="none" stroke="#63b8ff" d="M849.92,-274.75C841.91,-267.03 830.04,-255.6 820.38,-246.28"/>
<polygon fill="#63b8ff" stroke="#63b8ff" points="822.54,-243.51 812.91,-239.09 817.69,-248.55 822.54,-243.51"/>
</a>
</g>
</g>
<!-- Node32 -->
<g id="Node000032" class="node">
<title>Node32</title>
<g id="a_Node000032"><a xlink:title=" ">
<polygon fill="#e0e0e0" stroke="#999999" points="901,-239 857,-239 857,-220 901,-220 901,-239"/>
<text text-anchor="middle" x="879" y="-227" font-family="Helvetica,sans-Serif" font-size="10.00">limits</text>
</a>
</g>
</g>
<!-- Node30&#45;&gt;Node32 -->
<g id="edge49_Node000030_Node000032" class="edge">
<title>Node30&#45;&gt;Node32</title>
<g id="a_edge49_Node000030_Node000032"><a xlink:title=" ">
<path fill="none" stroke="#63b8ff" d="M862.3,-274.75C864.98,-267.65 868.85,-257.4 872.19,-248.56"/>
<polygon fill="#63b8ff" stroke="#63b8ff" points="875.5,-249.68 875.76,-239.09 868.95,-247.21 875.5,-249.68"/>
</a>
</g>
</g>
<!-- Node34&#45;&gt;Node6 -->
<g id="edge53_Node000034_Node000006" class="edge">
<title>Node34&#45;&gt;Node6</title>
<g id="a_edge53_Node000034_Node000006"><a xlink:title=" ">
<path fill="none" stroke="#63b8ff" d="M962.79,-329.98C961.53,-321.03 959.53,-306.54 958,-294 951.13,-237.74 944.16,-171.08 940.9,-139.24"/>
<polygon fill="#63b8ff" stroke="#63b8ff" points="944.37,-138.77 939.87,-129.17 937.4,-139.48 944.37,-138.77"/>
</a>
</g>
</g>
<!-- Node35 -->
<g id="Node000035" class="node">
<title>Node35</title>
<g id="a_Node000035"><a xlink:title=" ">
<polygon fill="#e0e0e0" stroke="#999999" points="1076.5,-294 1029.5,-294 1029.5,-275 1076.5,-275 1076.5,-294"/>
<text text-anchor="middle" x="1053" y="-282" font-family="Helvetica,sans-Serif" font-size="10.00">cmath</text>
</a>
</g>
</g>
<!-- Node34&#45;&gt;Node35 -->
<g id="edge54_Node000034_Node000035" class="edge">
<title>Node34&#45;&gt;Node35</title>
<g id="a_edge54_Node000034_Node000035"><a xlink:title=" ">
<path fill="none" stroke="#63b8ff" d="M978.3,-329.98C992.1,-321.77 1013.24,-309.18 1029.51,-299.49"/>
<polygon fill="#63b8ff" stroke="#63b8ff" points="1031.64,-302.29 1038.44,-294.17 1028.06,-296.28 1031.64,-302.29"/>
</a>
</g>
</g>
<!-- Node36 -->
<g id="Node000036" class="node">
<title>Node36</title>
<g id="a_Node000036"><a xlink:title=" ">
<polygon fill="#e0e0e0" stroke="#999999" points="1011,-294 967,-294 967,-275 1011,-275 1011,-294"/>
<text text-anchor="middle" x="989" y="-282" font-family="Helvetica,sans-Serif" font-size="10.00">cfloat</text>
</a>
</g>
</g>
<!-- Node34&#45;&gt;Node36 -->
<g id="edge55_Node000034_Node000036" class="edge">
<title>Node34&#45;&gt;Node36</title>
<g id="a_edge55_Node000034_Node000036"><a xlink:title=" ">
<path fill="none" stroke="#63b8ff" d="M968.13,-329.75C971.51,-322.57 976.42,-312.18 980.62,-303.27"/>
<polygon fill="#63b8ff" stroke="#63b8ff" points="983.85,-304.63 984.95,-294.09 977.52,-301.64 983.85,-304.63"/>
</a>
</g>
</g>
</g>
</svg>
