<?xml version="1.0" encoding="UTF-8" standalone="no"?>
<!DOCTYPE svg PUBLIC "-//W3C//DTD SVG 1.1//EN"
 "http://www.w3.org/Graphics/SVG/1.1/DTD/svg11.dtd">
<!-- Generated by graphviz version 2.43.0 (0)
 -->
<!-- Title: Kit/Driver/NV/Null.h Pages: 1 -->
<svg width="1153pt" height="357pt"
 viewBox="0.00 0.00 1153.38 357.00" xmlns="http://www.w3.org/2000/svg" xmlns:xlink="http://www.w3.org/1999/xlink">
<g id="graph0" class="graph" transform="scale(1 1) rotate(0) translate(4 353)">
<title>Kit/Driver/NV/Null.h</title>
<!-- Node1 -->
<g id="Node000001" class="node">
<title>Node1</title>
<g id="a_Node000001"><a xlink:title=" ">
<polygon fill="#999999" stroke="#666666" points="332.26,-349 220.26,-349 220.26,-330 332.26,-330 332.26,-349"/>
<text text-anchor="middle" x="276.26" y="-337" font-family="Helvetica,sans-Serif" font-size="10.00">Kit/Driver/NV/Null.h</text>
</a>
</g>
</g>
<!-- Node2 -->
<g id="Node000002" class="node">
<title>Node2</title>
<g id="a_Node000002"><a xlink:title=" ">
<polygon fill="#e0e0e0" stroke="#999999" points="156.76,-129 83.76,-129 83.76,-110 156.76,-110 156.76,-129"/>
<text text-anchor="middle" x="120.26" y="-117" font-family="Helvetica,sans-Serif" font-size="10.00">kit_config.h</text>
</a>
</g>
</g>
<!-- Node1&#45;&gt;Node2 -->
<g id="edge1_Node000001_Node000002" class="edge">
<title>Node1&#45;&gt;Node2</title>
<g id="a_edge1_Node000001_Node000002"><a xlink:title=" ">
<path fill="none" stroke="#63b8ff" d="M277.01,-330C278.38,-309.44 279.4,-256.04 257.26,-220 231.82,-178.57 182.07,-149.14 150.04,-133.5"/>
<polygon fill="#63b8ff" stroke="#63b8ff" points="151.25,-130.2 140.72,-129.09 148.26,-136.53 151.25,-130.2"/>
</a>
</g>
</g>
<!-- Node3 -->
<g id="Node000003" class="node">
<title>Node3</title>
<g id="a_Node000003"><a xlink:href="_i_api_8h.html" target="_top" xlink:title=" ">
<polygon fill="white" stroke="#666666" points="191.76,-294 80.76,-294 80.76,-275 191.76,-275 191.76,-294"/>
<text text-anchor="middle" x="136.26" y="-282" font-family="Helvetica,sans-Serif" font-size="10.00">Kit/Driver/NV/IApi.h</text>
</a>
</g>
</g>
<!-- Node1&#45;&gt;Node3 -->
<g id="edge2_Node000001_Node000003" class="edge">
<title>Node1&#45;&gt;Node3</title>
<g id="a_edge2_Node000001_Node000003"><a xlink:title=" ">
<path fill="none" stroke="#63b8ff" d="M253.77,-329.98C230.74,-321.27 194.73,-307.63 168.63,-297.75"/>
<polygon fill="#63b8ff" stroke="#63b8ff" points="169.76,-294.44 159.17,-294.17 167.28,-300.98 169.76,-294.44"/>
</a>
</g>
</g>
<!-- Node7 -->
<g id="Node000007" class="node">
<title>Node7</title>
<g id="a_Node000007"><a xlink:href="_string_8h.html" target="_top" xlink:title=" ">
<polygon fill="white" stroke="#666666" points="626.76,-294 573.76,-294 573.76,-275 626.76,-275 626.76,-294"/>
<text text-anchor="middle" x="600.26" y="-282" font-family="Helvetica,sans-Serif" font-size="10.00">string.h</text>
</a>
</g>
</g>
<!-- Node1&#45;&gt;Node7 -->
<g id="edge6_Node000001_Node000007" class="edge">
<title>Node1&#45;&gt;Node7</title>
<g id="a_edge6_Node000001_Node000007"><a xlink:title=" ">
<path fill="none" stroke="#63b8ff" d="M328.32,-329.98C394.17,-319.21 505.89,-300.94 563.49,-291.51"/>
<polygon fill="#63b8ff" stroke="#63b8ff" points="564.29,-294.93 573.6,-289.86 563.16,-288.02 564.29,-294.93"/>
</a>
</g>
</g>
<!-- Node4 -->
<g id="Node000004" class="node">
<title>Node4</title>
<g id="a_Node000004"><a xlink:href="_i_start_8h.html" target="_top" xlink:title=" ">
<polygon fill="white" stroke="#666666" points="129.76,-239 28.76,-239 28.76,-220 129.76,-220 129.76,-239"/>
<text text-anchor="middle" x="79.26" y="-227" font-family="Helvetica,sans-Serif" font-size="10.00">Kit/Driver/IStart.h</text>
</a>
</g>
</g>
<!-- Node3&#45;&gt;Node4 -->
<g id="edge3_Node000003_Node000004" class="edge">
<title>Node3&#45;&gt;Node4</title>
<g id="a_edge3_Node000003_Node000004"><a xlink:title=" ">
<path fill="none" stroke="#63b8ff" d="M127.11,-274.98C118.76,-267.23 106.23,-255.58 96.09,-246.14"/>
<polygon fill="#63b8ff" stroke="#63b8ff" points="98.3,-243.42 88.59,-239.17 93.53,-248.54 98.3,-243.42"/>
</a>
</g>
</g>
<!-- Node5 -->
<g id="Node000005" class="node">
<title>Node5</title>
<g id="a_Node000005"><a xlink:href="_i_stop_8h.html" target="_top" xlink:title=" ">
<polygon fill="white" stroke="#666666" points="248.26,-239 148.26,-239 148.26,-220 248.26,-220 248.26,-239"/>
<text text-anchor="middle" x="198.26" y="-227" font-family="Helvetica,sans-Serif" font-size="10.00">Kit/Driver/IStop.h</text>
</a>
</g>
</g>
<!-- Node3&#45;&gt;Node5 -->
<g id="edge4_Node000003_Node000005" class="edge">
<title>Node3&#45;&gt;Node5</title>
<g id="a_edge4_Node000003_Node000005"><a xlink:title=" ">
<path fill="none" stroke="#63b8ff" d="M146.23,-274.98C155.39,-267.15 169.2,-255.34 180.29,-245.86"/>
<polygon fill="#63b8ff" stroke="#63b8ff" points="182.8,-248.33 188.12,-239.17 178.25,-243.01 182.8,-248.33"/>
</a>
</g>
</g>
<!-- Node6 -->
<g id="Node000006" class="node">
<title>Node6</title>
<g id="a_Node000006"><a xlink:title=" ">
<polygon fill="#e0e0e0" stroke="#999999" points="102.76,-19 49.76,-19 49.76,0 102.76,0 102.76,-19"/>
<text text-anchor="middle" x="76.26" y="-7" font-family="Helvetica,sans-Serif" font-size="10.00">stdlib.h</text>
</a>
</g>
</g>
<!-- Node3&#45;&gt;Node6 -->
<g id="edge5_Node000003_Node000006" class="edge">
<title>Node3&#45;&gt;Node6</title>
<g id="a_edge5_Node000003_Node000006"><a xlink:title=" ">
<path fill="none" stroke="#63b8ff" d="M85.85,-274.94C62.73,-268.61 36.65,-257.7 19.26,-239 -0.79,-217.43 0.26,-204.96 0.26,-175.5 0.26,-175.5 0.26,-175.5 0.26,-118.5 0.26,-79.47 33.88,-44.58 56.4,-25.6"/>
<polygon fill="#63b8ff" stroke="#63b8ff" points="58.82,-28.14 64.39,-19.12 54.42,-22.7 58.82,-28.14"/>
</a>
</g>
</g>
<!-- Node8 -->
<g id="Node000008" class="node">
<title>Node8</title>
<g id="a_Node000008"><a xlink:href="_model_point_base_8h.html" target="_top" xlink:title=" ">
<polygon fill="white" stroke="#666666" points="670.76,-239 529.76,-239 529.76,-220 670.76,-220 670.76,-239"/>
<text text-anchor="middle" x="600.26" y="-227" font-family="Helvetica,sans-Serif" font-size="10.00">Kit/Dm/ModelPointBase.h</text>
</a>
</g>
</g>
<!-- Node7&#45;&gt;Node8 -->
<g id="edge7_Node000007_Node000008" class="edge">
<title>Node7&#45;&gt;Node8</title>
<g id="a_edge7_Node000007_Node000008"><a xlink:title=" ">
<path fill="none" stroke="#63b8ff" d="M600.26,-274.75C600.26,-267.8 600.26,-257.85 600.26,-249.13"/>
<polygon fill="#63b8ff" stroke="#63b8ff" points="603.76,-249.09 600.26,-239.09 596.76,-249.09 603.76,-249.09"/>
</a>
</g>
</g>
<!-- Node28 -->
<g id="Node000028" class="node">
<title>Node28</title>
<g id="a_Node000028"><a xlink:href="_observer_8h.html" target="_top" xlink:title=" ">
<polygon fill="white" stroke="#666666" points="903.26,-239 797.26,-239 797.26,-220 903.26,-220 903.26,-239"/>
<text text-anchor="middle" x="850.26" y="-227" font-family="Helvetica,sans-Serif" font-size="10.00">Kit/Dm/Observer.h</text>
</a>
</g>
</g>
<!-- Node7&#45;&gt;Node28 -->
<g id="edge41_Node000007_Node000028" class="edge">
<title>Node7&#45;&gt;Node28</title>
<g id="a_edge41_Node000007_Node000028"><a xlink:title=" ">
<path fill="none" stroke="#63b8ff" d="M627.02,-277.83C668.23,-269.09 747.94,-252.19 800.11,-241.13"/>
<polygon fill="#63b8ff" stroke="#63b8ff" points="801.1,-244.5 810.16,-239 799.65,-237.65 801.1,-244.5"/>
</a>
</g>
</g>
<!-- Node8&#45;&gt;Node6 -->
<g id="edge40_Node000008_Node000006" class="edge">
<title>Node8&#45;&gt;Node6</title>
<g id="a_edge40_Node000008_Node000006"><a xlink:title=" ">
<path fill="none" stroke="#63b8ff" d="M529.65,-226.19C399.36,-220.25 129.39,-199.52 74.26,-129 51.65,-100.06 61.54,-53.87 69.61,-28.55"/>
<polygon fill="#63b8ff" stroke="#63b8ff" points="72.92,-29.68 72.85,-19.09 66.3,-27.41 72.92,-29.68"/>
</a>
</g>
</g>
<!-- Node9 -->
<g id="Node000009" class="node">
<title>Node9</title>
<g id="a_Node000009"><a xlink:href="_i_model_point_8h.html" target="_top" xlink:title=" ">
<polygon fill="white" stroke="#666666" points="709.26,-184 589.26,-184 589.26,-165 709.26,-165 709.26,-184"/>
<text text-anchor="middle" x="649.26" y="-172" font-family="Helvetica,sans-Serif" font-size="10.00">Kit/Dm/IModelPoint.h</text>
</a>
</g>
</g>
<!-- Node8&#45;&gt;Node9 -->
<g id="edge8_Node000008_Node000009" class="edge">
<title>Node8&#45;&gt;Node9</title>
<g id="a_edge8_Node000008_Node000009"><a xlink:title=" ">
<path fill="none" stroke="#63b8ff" d="M608.36,-219.75C615.42,-212.11 625.85,-200.82 634.41,-191.56"/>
<polygon fill="#63b8ff" stroke="#63b8ff" points="637.11,-193.81 641.32,-184.09 631.97,-189.06 637.11,-193.81"/>
</a>
</g>
</g>
<!-- Node14 -->
<g id="Node000014" class="node">
<title>Node14</title>
<g id="a_Node000014"><a xlink:title=" ">
<polygon fill="#e0e0e0" stroke="#999999" points="780.76,-19 727.76,-19 727.76,0 780.76,0 780.76,-19"/>
<text text-anchor="middle" x="754.26" y="-7" font-family="Helvetica,sans-Serif" font-size="10.00">stdint.h</text>
</a>
</g>
</g>
<!-- Node8&#45;&gt;Node14 -->
<g id="edge39_Node000008_Node000014" class="edge">
<title>Node8&#45;&gt;Node14</title>
<g id="a_edge39_Node000008_Node000014"><a xlink:title=" ">
<path fill="none" stroke="#63b8ff" d="M593.91,-219.82C579.4,-198.87 546.99,-144.68 572.26,-110 603.06,-67.75 638.99,-100.16 684.26,-74 706.12,-61.38 726.98,-41 740.15,-26.74"/>
<polygon fill="#63b8ff" stroke="#63b8ff" points="742.89,-28.94 746.97,-19.16 737.68,-24.26 742.89,-28.94"/>
</a>
</g>
</g>
<!-- Node20 -->
<g id="Node000020" class="node">
<title>Node20</title>
<g id="a_Node000020"><a xlink:href="_i_observer_8h.html" target="_top" xlink:title=" ">
<polygon fill="white" stroke="#666666" points="965.76,-129 856.76,-129 856.76,-110 965.76,-110 965.76,-129"/>
<text text-anchor="middle" x="911.26" y="-117" font-family="Helvetica,sans-Serif" font-size="10.00">Kit/Dm/IObserver.h</text>
</a>
</g>
</g>
<!-- Node8&#45;&gt;Node20 -->
<g id="edge35_Node000008_Node000020" class="edge">
<title>Node8&#45;&gt;Node20</title>
<g id="a_edge35_Node000008_Node000020"><a xlink:title=" ">
<path fill="none" stroke="#63b8ff" d="M624.94,-219.95C648.99,-211.43 686.5,-197.69 718.26,-184 735.97,-176.37 739.27,-171.92 757.26,-165 792.73,-151.35 834.19,-139.6 865.14,-131.61"/>
<polygon fill="#63b8ff" stroke="#63b8ff" points="866.39,-134.9 875.21,-129.04 864.66,-128.12 866.39,-134.9"/>
</a>
</g>
</g>
<!-- Node23 -->
<g id="Node000023" class="node">
<title>Node23</title>
<g id="a_Node000023"><a xlink:href="_i_model_database_8h.html" target="_top" xlink:title=" ">
<polygon fill="white" stroke="#666666" points="446.26,-184 304.26,-184 304.26,-165 446.26,-165 446.26,-184"/>
<text text-anchor="middle" x="375.26" y="-172" font-family="Helvetica,sans-Serif" font-size="10.00">Kit/Dm/IModelDatabase.h</text>
</a>
</g>
</g>
<!-- Node8&#45;&gt;Node23 -->
<g id="edge28_Node000008_Node000023" class="edge">
<title>Node8&#45;&gt;Node23</title>
<g id="a_edge28_Node000008_Node000023"><a xlink:title=" ">
<path fill="none" stroke="#63b8ff" d="M564.11,-219.98C525.36,-210.86 463.71,-196.33 421.46,-186.38"/>
<polygon fill="#63b8ff" stroke="#63b8ff" points="422.23,-182.97 411.7,-184.08 420.63,-189.78 422.23,-182.97"/>
</a>
</g>
</g>
<!-- Node26 -->
<g id="Node000026" class="node">
<title>Node26</title>
<g id="a_Node000026"><a xlink:href="_d_list_8h.html" target="_top" xlink:title=" ">
<polygon fill="white" stroke="#666666" points="882.76,-184 765.76,-184 765.76,-165 882.76,-165 882.76,-184"/>
<text text-anchor="middle" x="824.26" y="-172" font-family="Helvetica,sans-Serif" font-size="10.00">Kit/Container/DList.h</text>
</a>
</g>
</g>
<!-- Node8&#45;&gt;Node26 -->
<g id="edge36_Node000008_Node000026" class="edge">
<title>Node8&#45;&gt;Node26</title>
<g id="a_edge36_Node000008_Node000026"><a xlink:title=" ">
<path fill="none" stroke="#63b8ff" d="M636.25,-219.98C674.76,-210.87 735.95,-196.4 778,-186.45"/>
<polygon fill="#63b8ff" stroke="#63b8ff" points="779.07,-189.79 787.99,-184.08 777.46,-182.98 779.07,-189.79"/>
</a>
</g>
</g>
<!-- Node9&#45;&gt;Node2 -->
<g id="edge9_Node000009_Node000002" class="edge">
<title>Node9&#45;&gt;Node2</title>
<g id="a_edge9_Node000009_Node000002"><a xlink:title=" ">
<path fill="none" stroke="#63b8ff" d="M589.07,-169.81C499.3,-163.9 324.85,-150.85 167.4,-129.18"/>
<polygon fill="#63b8ff" stroke="#63b8ff" points="167.44,-125.66 157.05,-127.74 166.48,-132.59 167.44,-125.66"/>
</a>
</g>
</g>
<!-- Node10 -->
<g id="Node000010" class="node">
<title>Node10</title>
<g id="a_Node000010"><a xlink:href="_keyed_item_8h.html" target="_top" xlink:title=" ">
<polygon fill="white" stroke="#666666" points="725.76,-129 580.76,-129 580.76,-110 725.76,-110 725.76,-129"/>
<text text-anchor="middle" x="653.26" y="-117" font-family="Helvetica,sans-Serif" font-size="10.00">Kit/Container/KeyedItem.h</text>
</a>
</g>
</g>
<!-- Node9&#45;&gt;Node10 -->
<g id="edge10_Node000009_Node000010" class="edge">
<title>Node9&#45;&gt;Node10</title>
<g id="a_edge10_Node000009_Node000010"><a xlink:title=" ">
<path fill="none" stroke="#63b8ff" d="M649.93,-164.75C650.45,-157.8 651.2,-147.85 651.86,-139.13"/>
<polygon fill="#63b8ff" stroke="#63b8ff" points="655.35,-139.32 652.62,-129.09 648.37,-138.8 655.35,-139.32"/>
</a>
</g>
</g>
<!-- Node9&#45;&gt;Node14 -->
<g id="edge27_Node000009_Node000014" class="edge">
<title>Node9&#45;&gt;Node14</title>
<g id="a_edge27_Node000009_Node000014"><a xlink:title=" ">
<path fill="none" stroke="#63b8ff" d="M681.1,-164.95C699.8,-158.25 722.26,-146.98 735.26,-129 756.76,-99.28 757.68,-54.4 756.15,-29.26"/>
<polygon fill="#63b8ff" stroke="#63b8ff" points="759.64,-28.91 755.35,-19.23 752.66,-29.48 759.64,-28.91"/>
</a>
</g>
</g>
<!-- Node16 -->
<g id="Node000016" class="node">
<title>Node16</title>
<g id="a_Node000016"><a xlink:href="_i_string_8h.html" target="_top" xlink:title=" ">
<polygon fill="white" stroke="#666666" points="523.76,-129 426.76,-129 426.76,-110 523.76,-110 523.76,-129"/>
<text text-anchor="middle" x="475.26" y="-117" font-family="Helvetica,sans-Serif" font-size="10.00">Kit/Text/IString.h</text>
</a>
</g>
</g>
<!-- Node9&#45;&gt;Node16 -->
<g id="edge17_Node000009_Node000016" class="edge">
<title>Node9&#45;&gt;Node16</title>
<g id="a_edge17_Node000009_Node000016"><a xlink:title=" ">
<path fill="none" stroke="#63b8ff" d="M621.31,-164.98C591.97,-156.05 545.67,-141.94 513.08,-132.02"/>
<polygon fill="#63b8ff" stroke="#63b8ff" points="514.03,-128.65 503.44,-129.08 511.99,-135.34 514.03,-128.65"/>
</a>
</g>
</g>
<!-- Node9&#45;&gt;Node20 -->
<g id="edge22_Node000009_Node000020" class="edge">
<title>Node9&#45;&gt;Node20</title>
<g id="a_edge22_Node000009_Node000020"><a xlink:title=" ">
<path fill="none" stroke="#63b8ff" d="M691.36,-164.98C736.97,-155.76 809.79,-141.03 859.02,-131.07"/>
<polygon fill="#63b8ff" stroke="#63b8ff" points="859.73,-134.5 868.84,-129.08 858.34,-127.63 859.73,-134.5"/>
</a>
</g>
</g>
<!-- Node21 -->
<g id="Node000021" class="node">
<title>Node21</title>
<g id="a_Node000021"><a xlink:href="_arduino_8h_source.html" target="_top" xlink:title=" ">
<polygon fill="white" stroke="#666666" points="408.76,-129 305.76,-129 305.76,-110 408.76,-110 408.76,-129"/>
<text text-anchor="middle" x="357.26" y="-117" font-family="Helvetica,sans-Serif" font-size="10.00">Kit/Json/Arduino.h</text>
</a>
</g>
</g>
<!-- Node9&#45;&gt;Node21 -->
<g id="edge25_Node000009_Node000021" class="edge">
<title>Node9&#45;&gt;Node21</title>
<g id="a_edge25_Node000009_Node000021"><a xlink:title=" ">
<path fill="none" stroke="#63b8ff" d="M602.35,-164.98C551.2,-155.7 469.34,-140.84 414.47,-130.88"/>
<polygon fill="#63b8ff" stroke="#63b8ff" points="415.01,-127.42 404.55,-129.08 413.76,-134.31 415.01,-127.42"/>
</a>
</g>
</g>
<!-- Node22 -->
<g id="Node000022" class="node">
<title>Node22</title>
<g id="a_Node000022"><a xlink:title=" ">
<polygon fill="#e0e0e0" stroke="#999999" points="838.26,-129 782.26,-129 782.26,-110 838.26,-110 838.26,-129"/>
<text text-anchor="middle" x="810.26" y="-117" font-family="Helvetica,sans-Serif" font-size="10.00">stddef.h</text>
</a>
</g>
</g>
<!-- Node9&#45;&gt;Node22 -->
<g id="edge26_Node000009_Node000022" class="edge">
<title>Node9&#45;&gt;Node22</title>
<g id="a_edge26_Node000009_Node000022"><a xlink:title=" ">
<path fill="none" stroke="#63b8ff" d="M675.13,-164.98C702.05,-156.13 744.38,-142.19 774.49,-132.28"/>
<polygon fill="#63b8ff" stroke="#63b8ff" points="775.79,-135.53 784.19,-129.08 773.6,-128.88 775.79,-135.53"/>
</a>
</g>
</g>
<!-- Node11 -->
<g id="Node000011" class="node">
<title>Node11</title>
<g id="a_Node000011"><a xlink:href="_list_item_8h.html" target="_top" xlink:title=" ">
<polygon fill="white" stroke="#666666" points="977.26,-74 845.26,-74 845.26,-55 977.26,-55 977.26,-74"/>
<text text-anchor="middle" x="911.26" y="-62" font-family="Helvetica,sans-Serif" font-size="10.00">Kit/Container/ListItem.h</text>
</a>
</g>
</g>
<!-- Node10&#45;&gt;Node11 -->
<g id="edge11_Node000010_Node000011" class="edge">
<title>Node10&#45;&gt;Node11</title>
<g id="a_edge11_Node000010_Node000011"><a xlink:title=" ">
<path fill="none" stroke="#63b8ff" d="M694.72,-109.98C739.53,-100.78 811.04,-86.09 859.51,-76.13"/>
<polygon fill="#63b8ff" stroke="#63b8ff" points="860.4,-79.52 869.49,-74.08 858.99,-72.67 860.4,-79.52"/>
</a>
</g>
</g>
<!-- Node13 -->
<g id="Node000013" class="node">
<title>Node13</title>
<g id="a_Node000013"><a xlink:href="_key_8h.html" target="_top" xlink:title=" ">
<polygon fill="white" stroke="#666666" points="674.76,-74 565.76,-74 565.76,-55 674.76,-55 674.76,-74"/>
<text text-anchor="middle" x="620.26" y="-62" font-family="Helvetica,sans-Serif" font-size="10.00">Kit/Container/Key.h</text>
</a>
</g>
</g>
<!-- Node10&#45;&gt;Node13 -->
<g id="edge13_Node000010_Node000013" class="edge">
<title>Node10&#45;&gt;Node13</title>
<g id="a_edge13_Node000010_Node000013"><a xlink:title=" ">
<path fill="none" stroke="#63b8ff" d="M647.82,-109.75C643.25,-102.42 636.6,-91.73 630.97,-82.7"/>
<polygon fill="#63b8ff" stroke="#63b8ff" points="633.87,-80.73 625.61,-74.09 627.93,-84.43 633.87,-80.73"/>
</a>
</g>
</g>
<!-- Node12 -->
<g id="Node000012" class="node">
<title>Node12</title>
<g id="a_Node000012"><a xlink:href="_item_8h.html" target="_top" xlink:title=" ">
<polygon fill="white" stroke="#666666" points="968.76,-19 853.76,-19 853.76,0 968.76,0 968.76,-19"/>
<text text-anchor="middle" x="911.26" y="-7" font-family="Helvetica,sans-Serif" font-size="10.00">Kit/Container/Item.h</text>
</a>
</g>
</g>
<!-- Node11&#45;&gt;Node12 -->
<g id="edge12_Node000011_Node000012" class="edge">
<title>Node11&#45;&gt;Node12</title>
<g id="a_edge12_Node000011_Node000012"><a xlink:title=" ">
<path fill="none" stroke="#63b8ff" d="M911.26,-54.75C911.26,-47.8 911.26,-37.85 911.26,-29.13"/>
<polygon fill="#63b8ff" stroke="#63b8ff" points="914.76,-29.09 911.26,-19.09 907.76,-29.09 914.76,-29.09"/>
</a>
</g>
</g>
<!-- Node13&#45;&gt;Node6 -->
<g id="edge15_Node000013_Node000006" class="edge">
<title>Node13&#45;&gt;Node6</title>
<g id="a_edge15_Node000013_Node000006"><a xlink:title=" ">
<path fill="none" stroke="#63b8ff" d="M565.65,-55.99C562.81,-55.64 560.01,-55.31 557.26,-55 391.79,-36.19 193.6,-19.79 113.03,-13.37"/>
<polygon fill="#63b8ff" stroke="#63b8ff" points="113.14,-9.87 102.9,-12.57 112.59,-16.85 113.14,-9.87"/>
</a>
</g>
</g>
<!-- Node13&#45;&gt;Node14 -->
<g id="edge14_Node000013_Node000014" class="edge">
<title>Node13&#45;&gt;Node14</title>
<g id="a_edge14_Node000013_Node000014"><a xlink:title=" ">
<path fill="none" stroke="#63b8ff" d="M641.79,-54.98C663.74,-46.3 698.01,-32.75 722.95,-22.88"/>
<polygon fill="#63b8ff" stroke="#63b8ff" points="724.33,-26.1 732.34,-19.17 721.76,-19.59 724.33,-26.1"/>
</a>
</g>
</g>
<!-- Node15 -->
<g id="Node000015" class="node">
<title>Node15</title>
<g id="a_Node000015"><a xlink:title=" ">
<polygon fill="#e0e0e0" stroke="#999999" points="646.76,-19 593.76,-19 593.76,0 646.76,0 646.76,-19"/>
<text text-anchor="middle" x="620.26" y="-7" font-family="Helvetica,sans-Serif" font-size="10.00">limits.h</text>
</a>
</g>
</g>
<!-- Node13&#45;&gt;Node15 -->
<g id="edge16_Node000013_Node000015" class="edge">
<title>Node13&#45;&gt;Node15</title>
<g id="a_edge16_Node000013_Node000015"><a xlink:title=" ">
<path fill="none" stroke="#63b8ff" d="M620.26,-54.75C620.26,-47.8 620.26,-37.85 620.26,-29.13"/>
<polygon fill="#63b8ff" stroke="#63b8ff" points="623.76,-29.09 620.26,-19.09 616.76,-29.09 623.76,-29.09"/>
</a>
</g>
</g>
<!-- Node16&#45;&gt;Node13 -->
<g id="edge18_Node000016_Node000013" class="edge">
<title>Node16&#45;&gt;Node13</title>
<g id="a_edge18_Node000016_Node000013"><a xlink:title=" ">
<path fill="none" stroke="#63b8ff" d="M498.56,-109.98C522.52,-101.23 560.05,-87.51 587.1,-77.62"/>
<polygon fill="#63b8ff" stroke="#63b8ff" points="588.35,-80.89 596.54,-74.17 585.95,-74.32 588.35,-80.89"/>
</a>
</g>
</g>
<!-- Node17 -->
<g id="Node000017" class="node">
<title>Node17</title>
<g id="a_Node000017"><a xlink:href="printfchecker_8h.html" target="_top" xlink:title="This file contains macro that enables the GCC (and Clang) compiler to validate printf flags with thei...">
<polygon fill="white" stroke="#666666" points="547.76,-74 402.76,-74 402.76,-55 547.76,-55 547.76,-74"/>
<text text-anchor="middle" x="475.26" y="-62" font-family="Helvetica,sans-Serif" font-size="10.00">Kit/System/printfchecker.h</text>
</a>
</g>
</g>
<!-- Node16&#45;&gt;Node17 -->
<g id="edge19_Node000016_Node000017" class="edge">
<title>Node16&#45;&gt;Node17</title>
<g id="a_edge19_Node000016_Node000017"><a xlink:title=" ">
<path fill="none" stroke="#63b8ff" d="M475.26,-109.75C475.26,-102.8 475.26,-92.85 475.26,-84.13"/>
<polygon fill="#63b8ff" stroke="#63b8ff" points="478.76,-84.09 475.26,-74.09 471.76,-84.09 478.76,-84.09"/>
</a>
</g>
</g>
<!-- Node18 -->
<g id="Node000018" class="node">
<title>Node18</title>
<g id="a_Node000018"><a xlink:title=" ">
<polygon fill="#e0e0e0" stroke="#999999" points="306.26,-74 250.26,-74 250.26,-55 306.26,-55 306.26,-74"/>
<text text-anchor="middle" x="278.26" y="-62" font-family="Helvetica,sans-Serif" font-size="10.00">stdarg.h</text>
</a>
</g>
</g>
<!-- Node16&#45;&gt;Node18 -->
<g id="edge20_Node000016_Node000018" class="edge">
<title>Node16&#45;&gt;Node18</title>
<g id="a_edge20_Node000016_Node000018"><a xlink:title=" ">
<path fill="none" stroke="#63b8ff" d="M443.61,-109.98C408.92,-100.65 353.27,-85.68 316.24,-75.72"/>
<polygon fill="#63b8ff" stroke="#63b8ff" points="316.89,-72.27 306.33,-73.05 315.08,-79.03 316.89,-72.27"/>
</a>
</g>
</g>
<!-- Node19 -->
<g id="Node000019" class="node">
<title>Node19</title>
<g id="a_Node000019"><a xlink:title=" ">
<polygon fill="#e0e0e0" stroke="#999999" points="384.26,-74 324.26,-74 324.26,-55 384.26,-55 384.26,-74"/>
<text text-anchor="middle" x="354.26" y="-62" font-family="Helvetica,sans-Serif" font-size="10.00">iostream</text>
</a>
</g>
</g>
<!-- Node16&#45;&gt;Node19 -->
<g id="edge21_Node000016_Node000019" class="edge">
<title>Node16&#45;&gt;Node19</title>
<g id="a_edge21_Node000016_Node000019"><a xlink:title=" ">
<path fill="none" stroke="#63b8ff" d="M455.82,-109.98C436.27,-101.42 405.88,-88.11 383.44,-78.28"/>
<polygon fill="#63b8ff" stroke="#63b8ff" points="384.62,-74.98 374.06,-74.17 381.81,-81.39 384.62,-74.98"/>
</a>
</g>
</g>
<!-- Node20&#45;&gt;Node11 -->
<g id="edge23_Node000020_Node000011" class="edge">
<title>Node20&#45;&gt;Node11</title>
<g id="a_edge23_Node000020_Node000011"><a xlink:title=" ">
<path fill="none" stroke="#63b8ff" d="M911.26,-109.75C911.26,-102.8 911.26,-92.85 911.26,-84.13"/>
<polygon fill="#63b8ff" stroke="#63b8ff" points="914.76,-84.09 911.26,-74.09 907.76,-84.09 914.76,-84.09"/>
</a>
</g>
</g>
<!-- Node20&#45;&gt;Node14 -->
<g id="edge24_Node000020_Node000014" class="edge">
<title>Node20&#45;&gt;Node14</title>
<g id="a_edge24_Node000020_Node000014"><a xlink:title=" ">
<path fill="none" stroke="#63b8ff" d="M895.4,-109.84C879.98,-101.25 856.05,-87.45 836.26,-74 813.65,-58.62 789.01,-39.14 772.7,-25.84"/>
<polygon fill="#63b8ff" stroke="#63b8ff" points="774.52,-22.8 764.57,-19.15 770.07,-28.2 774.52,-22.8"/>
</a>
</g>
</g>
<!-- Node23&#45;&gt;Node2 -->
<g id="edge29_Node000023_Node000002" class="edge">
<title>Node23&#45;&gt;Node2</title>
<g id="a_edge29_Node000023_Node000002"><a xlink:title=" ">
<path fill="none" stroke="#63b8ff" d="M334.29,-164.98C288.55,-155.48 214.68,-140.12 166.8,-130.17"/>
<polygon fill="#63b8ff" stroke="#63b8ff" points="167.5,-126.74 157,-128.13 166.07,-133.6 167.5,-126.74"/>
</a>
</g>
</g>
<!-- Node23&#45;&gt;Node16 -->
<g id="edge30_Node000023_Node000016" class="edge">
<title>Node23&#45;&gt;Node16</title>
<g id="a_edge30_Node000023_Node000016"><a xlink:title=" ">
<path fill="none" stroke="#63b8ff" d="M391.33,-164.98C407.13,-156.61 431.48,-143.7 449.9,-133.95"/>
<polygon fill="#63b8ff" stroke="#63b8ff" points="451.71,-136.95 458.91,-129.17 448.43,-130.76 451.71,-136.95"/>
</a>
</g>
</g>
<!-- Node23&#45;&gt;Node21 -->
<g id="edge34_Node000023_Node000021" class="edge">
<title>Node23&#45;&gt;Node21</title>
<g id="a_edge34_Node000023_Node000021"><a xlink:title=" ">
<path fill="none" stroke="#63b8ff" d="M372.29,-164.75C369.91,-157.72 366.48,-147.62 363.5,-138.84"/>
<polygon fill="#63b8ff" stroke="#63b8ff" points="366.71,-137.43 360.18,-129.09 360.08,-139.68 366.71,-137.43"/>
</a>
</g>
</g>
<!-- Node24 -->
<g id="Node000024" class="node">
<title>Node24</title>
<g id="a_Node000024"><a xlink:href="_mutex_8h.html" target="_top" xlink:title=" ">
<polygon fill="white" stroke="#666666" points="287.76,-129 174.76,-129 174.76,-110 287.76,-110 287.76,-129"/>
<text text-anchor="middle" x="231.26" y="-117" font-family="Helvetica,sans-Serif" font-size="10.00">Kit/System/Mutex.h</text>
</a>
</g>
</g>
<!-- Node23&#45;&gt;Node24 -->
<g id="edge31_Node000023_Node000024" class="edge">
<title>Node23&#45;&gt;Node24</title>
<g id="a_edge31_Node000023_Node000024"><a xlink:title=" ">
<path fill="none" stroke="#63b8ff" d="M352.13,-164.98C328.44,-156.27 291.4,-142.63 264.56,-132.75"/>
<polygon fill="#63b8ff" stroke="#63b8ff" points="265.42,-129.34 254.82,-129.17 263,-135.91 265.42,-129.34"/>
</a>
</g>
</g>
<!-- Node24&#45;&gt;Node6 -->
<g id="edge32_Node000024_Node000006" class="edge">
<title>Node24&#45;&gt;Node6</title>
<g id="a_edge32_Node000024_Node000006"><a xlink:title=" ">
<path fill="none" stroke="#63b8ff" d="M215.9,-110C200.69,-101.41 176.9,-87.52 157.26,-74 134.92,-58.61 110.58,-39.13 94.47,-25.83"/>
<polygon fill="#63b8ff" stroke="#63b8ff" points="96.36,-22.85 86.44,-19.14 91.89,-28.23 96.36,-22.85"/>
</a>
</g>
</g>
<!-- Node25 -->
<g id="Node000025" class="node">
<title>Node25</title>
<g id="a_Node000025"><a xlink:title=" ">
<polygon fill="#e0e0e0" stroke="#999999" points="231.76,-74 166.76,-74 166.76,-55 231.76,-55 231.76,-74"/>
<text text-anchor="middle" x="199.26" y="-62" font-family="Helvetica,sans-Serif" font-size="10.00">kit_map.h</text>
</a>
</g>
</g>
<!-- Node24&#45;&gt;Node25 -->
<g id="edge33_Node000024_Node000025" class="edge">
<title>Node24&#45;&gt;Node25</title>
<g id="a_edge33_Node000024_Node000025"><a xlink:title=" ">
<path fill="none" stroke="#63b8ff" d="M225.98,-109.75C221.55,-102.42 215.1,-91.73 209.65,-82.7"/>
<polygon fill="#63b8ff" stroke="#63b8ff" points="212.62,-80.84 204.45,-74.09 206.62,-84.46 212.62,-80.84"/>
</a>
</g>
</g>
<!-- Node27 -->
<g id="Node000027" class="node">
<title>Node27</title>
<g id="a_Node000027"><a xlink:href="_d_list_base_8h.html" target="_top" xlink:title=" ">
<polygon fill="white" stroke="#666666" points="1124.76,-129 983.76,-129 983.76,-110 1124.76,-110 1124.76,-129"/>
<text text-anchor="middle" x="1054.26" y="-117" font-family="Helvetica,sans-Serif" font-size="10.00">Kit/Container/DListBase.h</text>
</a>
</g>
</g>
<!-- Node26&#45;&gt;Node27 -->
<g id="edge37_Node000026_Node000027" class="edge">
<title>Node26&#45;&gt;Node27</title>
<g id="a_edge37_Node000026_Node000027"><a xlink:title=" ">
<path fill="none" stroke="#63b8ff" d="M861.22,-164.98C900.84,-155.86 963.85,-141.33 1007.04,-131.38"/>
<polygon fill="#63b8ff" stroke="#63b8ff" points="1008.06,-134.74 1017.02,-129.08 1006.49,-127.92 1008.06,-134.74"/>
</a>
</g>
</g>
<!-- Node27&#45;&gt;Node11 -->
<g id="edge38_Node000027_Node000011" class="edge">
<title>Node27&#45;&gt;Node11</title>
<g id="a_edge38_Node000027_Node000011"><a xlink:title=" ">
<path fill="none" stroke="#63b8ff" d="M1031.29,-109.98C1007.77,-101.27 970.98,-87.63 944.33,-77.75"/>
<polygon fill="#63b8ff" stroke="#63b8ff" points="945.25,-74.36 934.66,-74.17 942.82,-80.93 945.25,-74.36"/>
</a>
</g>
</g>
<!-- Node28&#45;&gt;Node9 -->
<g id="edge43_Node000028_Node000009" class="edge">
<title>Node28&#45;&gt;Node9</title>
<g id="a_edge43_Node000028_Node000009"><a xlink:title=" ">
<path fill="none" stroke="#63b8ff" d="M817.97,-219.98C783.64,-210.93 729.21,-196.58 691.5,-186.64"/>
<polygon fill="#63b8ff" stroke="#63b8ff" points="692.37,-183.25 681.81,-184.08 690.59,-190.02 692.37,-183.25"/>
</a>
</g>
</g>
<!-- Node28&#45;&gt;Node14 -->
<g id="edge44_Node000028_Node000014" class="edge">
<title>Node28&#45;&gt;Node14</title>
<g id="a_edge44_Node000028_Node000014"><a xlink:title=" ">
<path fill="none" stroke="#63b8ff" d="M903.33,-225.94C1000.82,-219.15 1193.27,-194.88 1134.26,-110 1094.71,-53.1 878.45,-23.83 790.99,-14.19"/>
<polygon fill="#63b8ff" stroke="#63b8ff" points="791.31,-10.7 780.99,-13.11 790.55,-17.66 791.31,-10.7"/>
</a>
</g>
</g>
<!-- Node28&#45;&gt;Node20 -->
<g id="edge42_Node000028_Node000020" class="edge">
<title>Node28&#45;&gt;Node20</title>
<g id="a_edge42_Node000028_Node000020"><a xlink:title=" ">
<path fill="none" stroke="#63b8ff" d="M861.06,-219.68C870.55,-211.39 884.08,-198.17 892.26,-184 900.28,-170.13 905.19,-152.56 908.01,-139.43"/>
<polygon fill="#63b8ff" stroke="#63b8ff" points="911.52,-139.71 909.97,-129.22 904.65,-138.38 911.52,-139.71"/>
</a>
</g>
</g>
</g>
</svg>
