<?xml version="1.0" encoding="UTF-8" standalone="no"?>
<!DOCTYPE svg PUBLIC "-//W3C//DTD SVG 1.1//EN"
 "http://www.w3.org/Graphics/SVG/1.1/DTD/svg11.dtd">
<!-- Generated by graphviz version 2.43.0 (0)
 -->
<!-- Title: Kit/Framing/EncoderWriter.h Pages: 1 -->
<svg width="428pt" height="192pt"
 viewBox="0.00 0.00 427.50 192.00" xmlns="http://www.w3.org/2000/svg" xmlns:xlink="http://www.w3.org/1999/xlink">
<g id="graph0" class="graph" transform="scale(1 1) rotate(0) translate(4 188)">
<title>Kit/Framing/EncoderWriter.h</title>
<!-- Node1 -->
<g id="Node000001" class="node">
<title>Node1</title>
<g id="a_Node000001"><a xlink:title=" ">
<polygon fill="#999999" stroke="#666666" points="292.5,-184 139.5,-184 139.5,-165 292.5,-165 292.5,-184"/>
<text text-anchor="middle" x="216" y="-172" font-family="Helvetica,sans-Serif" font-size="10.00">Kit/Framing/EncoderWriter.h</text>
</a>
</g>
</g>
<!-- Node2 -->
<g id="Node000002" class="node">
<title>Node2</title>
<g id="a_Node000002"><a xlink:href="_i_encoder_8h.html" target="_top" xlink:title=" ">
<polygon fill="white" stroke="#666666" points="126,-129 0,-129 0,-110 126,-110 126,-129"/>
<text text-anchor="middle" x="63" y="-117" font-family="Helvetica,sans-Serif" font-size="10.00">Kit/Framing/IEncoder.h</text>
</a>
</g>
</g>
<!-- Node1&#45;&gt;Node2 -->
<g id="edge1_Node000001_Node000002" class="edge">
<title>Node1&#45;&gt;Node2</title>
<g id="a_edge1_Node000001_Node000002"><a xlink:title=" ">
<path fill="none" stroke="#63b8ff" d="M191.42,-164.98C165.95,-156.16 125.96,-142.31 97.37,-132.41"/>
<polygon fill="#63b8ff" stroke="#63b8ff" points="98.37,-129.05 87.77,-129.08 96.08,-135.66 98.37,-129.05"/>
</a>
</g>
</g>
<!-- Node6 -->
<g id="Node000006" class="node">
<title>Node6</title>
<g id="a_Node000006"><a xlink:href="_i_destination_8h.html" target="_top" xlink:title=" ">
<polygon fill="white" stroke="#666666" points="288,-129 144,-129 144,-110 288,-110 288,-129"/>
<text text-anchor="middle" x="216" y="-117" font-family="Helvetica,sans-Serif" font-size="10.00">Kit/Framing/IDestination.h</text>
</a>
</g>
</g>
<!-- Node1&#45;&gt;Node6 -->
<g id="edge5_Node000001_Node000006" class="edge">
<title>Node1&#45;&gt;Node6</title>
<g id="a_edge5_Node000001_Node000006"><a xlink:title=" ">
<path fill="none" stroke="#63b8ff" d="M216,-164.75C216,-157.8 216,-147.85 216,-139.13"/>
<polygon fill="#63b8ff" stroke="#63b8ff" points="219.5,-139.09 216,-129.09 212.5,-139.09 219.5,-139.09"/>
</a>
</g>
</g>
<!-- Node7 -->
<g id="Node000007" class="node">
<title>Node7</title>
<g id="a_Node000007"><a xlink:href="_assert_8h.html" target="_top" xlink:title=" ">
<polygon fill="white" stroke="#666666" points="419.5,-129 306.5,-129 306.5,-110 419.5,-110 419.5,-129"/>
<text text-anchor="middle" x="363" y="-117" font-family="Helvetica,sans-Serif" font-size="10.00">Kit/System/Assert.h</text>
</a>
</g>
</g>
<!-- Node1&#45;&gt;Node7 -->
<g id="edge7_Node000001_Node000007" class="edge">
<title>Node1&#45;&gt;Node7</title>
<g id="a_edge7_Node000001_Node000007"><a xlink:title=" ">
<path fill="none" stroke="#63b8ff" d="M239.62,-164.98C263.9,-156.23 301.95,-142.51 329.37,-132.62"/>
<polygon fill="#63b8ff" stroke="#63b8ff" points="330.73,-135.85 338.95,-129.17 328.36,-129.27 330.73,-135.85"/>
</a>
</g>
</g>
<!-- Node3 -->
<g id="Node000003" class="node">
<title>Node3</title>
<g id="a_Node000003"><a xlink:href="_s_size_8h.html" target="_top" xlink:title=" ">
<polygon fill="white" stroke="#666666" points="263,-74 169,-74 169,-55 263,-55 263,-74"/>
<text text-anchor="middle" x="216" y="-62" font-family="Helvetica,sans-Serif" font-size="10.00">Kit/Type/SSize.h</text>
</a>
</g>
</g>
<!-- Node2&#45;&gt;Node3 -->
<g id="edge2_Node000002_Node000003" class="edge">
<title>Node2&#45;&gt;Node3</title>
<g id="a_edge2_Node000002_Node000003"><a xlink:title=" ">
<path fill="none" stroke="#63b8ff" d="M87.58,-109.98C113.05,-101.16 153.04,-87.31 181.63,-77.41"/>
<polygon fill="#63b8ff" stroke="#63b8ff" points="182.92,-80.66 191.23,-74.08 180.63,-74.05 182.92,-80.66"/>
</a>
</g>
</g>
<!-- Node4 -->
<g id="Node000004" class="node">
<title>Node4</title>
<g id="a_Node000004"><a xlink:title=" ">
<polygon fill="#e0e0e0" stroke="#999999" points="335.5,-19 262.5,-19 262.5,0 335.5,0 335.5,-19"/>
<text text-anchor="middle" x="299" y="-7" font-family="Helvetica,sans-Serif" font-size="10.00">kit_config.h</text>
</a>
</g>
</g>
<!-- Node3&#45;&gt;Node4 -->
<g id="edge3_Node000003_Node000004" class="edge">
<title>Node3&#45;&gt;Node4</title>
<g id="a_edge3_Node000003_Node000004"><a xlink:title=" ">
<path fill="none" stroke="#63b8ff" d="M229.34,-54.98C242.09,-46.84 261.55,-34.41 276.67,-24.76"/>
<polygon fill="#63b8ff" stroke="#63b8ff" points="278.88,-27.5 285.42,-19.17 275.11,-21.6 278.88,-27.5"/>
</a>
</g>
</g>
<!-- Node5 -->
<g id="Node000005" class="node">
<title>Node5</title>
<g id="a_Node000005"><a xlink:title=" ">
<polygon fill="#e0e0e0" stroke="#999999" points="242.5,-19 189.5,-19 189.5,0 242.5,0 242.5,-19"/>
<text text-anchor="middle" x="216" y="-7" font-family="Helvetica,sans-Serif" font-size="10.00">stdint.h</text>
</a>
</g>
</g>
<!-- Node3&#45;&gt;Node5 -->
<g id="edge4_Node000003_Node000005" class="edge">
<title>Node3&#45;&gt;Node5</title>
<g id="a_edge4_Node000003_Node000005"><a xlink:title=" ">
<path fill="none" stroke="#63b8ff" d="M216,-54.75C216,-47.8 216,-37.85 216,-29.13"/>
<polygon fill="#63b8ff" stroke="#63b8ff" points="219.5,-29.09 216,-19.09 212.5,-29.09 219.5,-29.09"/>
</a>
</g>
</g>
<!-- Node6&#45;&gt;Node3 -->
<g id="edge6_Node000006_Node000003" class="edge">
<title>Node6&#45;&gt;Node3</title>
<g id="a_edge6_Node000006_Node000003"><a xlink:title=" ">
<path fill="none" stroke="#63b8ff" d="M216,-109.75C216,-102.8 216,-92.85 216,-84.13"/>
<polygon fill="#63b8ff" stroke="#63b8ff" points="219.5,-84.09 216,-74.09 212.5,-84.09 219.5,-84.09"/>
</a>
</g>
</g>
<!-- Node7&#45;&gt;Node4 -->
<g id="edge8_Node000007_Node000004" class="edge">
<title>Node7&#45;&gt;Node4</title>
<g id="a_edge8_Node000007_Node000004"><a xlink:title=" ">
<path fill="none" stroke="#63b8ff" d="M352.71,-109.92C343.31,-101.6 329.59,-88.17 321,-74 312.49,-59.97 306.69,-42.19 303.19,-29.02"/>
<polygon fill="#63b8ff" stroke="#63b8ff" points="306.57,-28.09 300.79,-19.22 299.77,-29.76 306.57,-28.09"/>
</a>
</g>
</g>
<!-- Node8 -->
<g id="Node000008" class="node">
<title>Node8</title>
<g id="a_Node000008"><a xlink:title=" ">
<polygon fill="#e0e0e0" stroke="#999999" points="395.5,-74 330.5,-74 330.5,-55 395.5,-55 395.5,-74"/>
<text text-anchor="middle" x="363" y="-62" font-family="Helvetica,sans-Serif" font-size="10.00">kit_map.h</text>
</a>
</g>
</g>
<!-- Node7&#45;&gt;Node8 -->
<g id="edge9_Node000007_Node000008" class="edge">
<title>Node7&#45;&gt;Node8</title>
<g id="a_edge9_Node000007_Node000008"><a xlink:title=" ">
<path fill="none" stroke="#63b8ff" d="M363,-109.75C363,-102.8 363,-92.85 363,-84.13"/>
<polygon fill="#63b8ff" stroke="#63b8ff" points="366.5,-84.09 363,-74.09 359.5,-84.09 366.5,-84.09"/>
</a>
</g>
</g>
</g>
</svg>
