<?xml version="1.0" encoding="UTF-8" standalone="no"?>
<!DOCTYPE svg PUBLIC "-//W3C//DTD SVG 1.1//EN"
 "http://www.w3.org/Graphics/SVG/1.1/DTD/svg11.dtd">
<!-- Generated by graphviz version 2.43.0 (0)
 -->
<!-- Title: Kit/Logging/Framework/EntryData.h Pages: 1 -->
<svg width="1288pt" height="599pt"
 viewBox="0.00 0.00 1287.50 599.00" xmlns="http://www.w3.org/2000/svg" xmlns:xlink="http://www.w3.org/1999/xlink">
<g id="graph0" class="graph" transform="scale(1 1) rotate(0) translate(4 595)">
<title>Kit/Logging/Framework/EntryData.h</title>
<!-- Node1 -->
<g id="Node000001" class="node">
<title>Node1</title>
<g id="a_Node000001"><a xlink:title=" ">
<polygon fill="#999999" stroke="#666666" points="433,-591 304,-591 304,-561 433,-561 433,-591"/>
<text text-anchor="start" x="312" y="-579" font-family="Helvetica,sans-Serif" font-size="10.00">Kit/Logging/Framework</text>
<text text-anchor="middle" x="368.5" y="-568" font-family="Helvetica,sans-Serif" font-size="10.00">/EntryData.h</text>
</a>
</g>
</g>
<!-- Node2 -->
<g id="Node000002" class="node">
<title>Node2</title>
<g id="a_Node000002"><a xlink:href="_cursor_b_e_8h.html" target="_top" xlink:title=" ">
<polygon fill="white" stroke="#666666" points="286.5,-404 156.5,-404 156.5,-385 286.5,-385 286.5,-404"/>
<text text-anchor="middle" x="221.5" y="-392" font-family="Helvetica,sans-Serif" font-size="10.00">Kit/Memory/CursorBE.h</text>
</a>
</g>
</g>
<!-- Node1&#45;&gt;Node2 -->
<g id="edge1_Node000001_Node000002" class="edge">
<title>Node1&#45;&gt;Node2</title>
<g id="a_edge1_Node000001_Node000002"><a xlink:title=" ">
<path fill="none" stroke="#63b8ff" d="M342.74,-560.95C327.98,-552.02 309.8,-539.44 296.5,-525 264.64,-490.42 240.35,-440.01 228.84,-413.44"/>
<polygon fill="#63b8ff" stroke="#63b8ff" points="232.06,-412.06 224.95,-404.21 225.61,-414.78 232.06,-412.06"/>
</a>
</g>
</g>
<!-- Node4 -->
<g id="Node000004" class="node">
<title>Node4</title>
<g id="a_Node000004"><a xlink:title=" ">
<polygon fill="#e0e0e0" stroke="#999999" points="134.5,-294 84.5,-294 84.5,-275 134.5,-275 134.5,-294"/>
<text text-anchor="middle" x="109.5" y="-282" font-family="Helvetica,sans-Serif" font-size="10.00">cstdint</text>
</a>
</g>
</g>
<!-- Node1&#45;&gt;Node4 -->
<g id="edge55_Node000001_Node000004" class="edge">
<title>Node1&#45;&gt;Node4</title>
<g id="a_edge55_Node000001_Node000004"><a xlink:title=" ">
<path fill="none" stroke="#63b8ff" d="M303.9,-565.55C202.77,-548.92 18.5,-510.4 18.5,-450.5 18.5,-450.5 18.5,-450.5 18.5,-393.5 18.5,-351.65 58.96,-317.59 85.92,-299.54"/>
<polygon fill="#63b8ff" stroke="#63b8ff" points="87.95,-302.4 94.47,-294.04 84.17,-296.51 87.95,-302.4"/>
</a>
</g>
</g>
<!-- Node5 -->
<g id="Node000005" class="node">
<title>Node5</title>
<g id="a_Node000005"><a xlink:title=" ">
<polygon fill="#e0e0e0" stroke="#999999" points="534,-19 481,-19 481,0 534,0 534,-19"/>
<text text-anchor="middle" x="507.5" y="-7" font-family="Helvetica,sans-Serif" font-size="10.00">stdint.h</text>
</a>
</g>
</g>
<!-- Node1&#45;&gt;Node5 -->
<g id="edge56_Node000001_Node000005" class="edge">
<title>Node1&#45;&gt;Node5</title>
<g id="a_edge56_Node000001_Node000005"><a xlink:title=" ">
<path fill="none" stroke="#63b8ff" d="M433.29,-572.97C641.41,-565.59 1279.5,-536 1279.5,-450.5 1279.5,-450.5 1279.5,-450.5 1279.5,-118.5 1279.5,-50.99 1206.9,-71.75 1141.5,-55 1027.35,-25.77 662.37,-14.34 544.55,-11.35"/>
<polygon fill="#63b8ff" stroke="#63b8ff" points="544.34,-7.85 534.25,-11.1 544.16,-14.84 544.34,-7.85"/>
</a>
</g>
</g>
<!-- Node9 -->
<g id="Node000009" class="node">
<title>Node9</title>
<g id="a_Node000009"><a xlink:href="_string_8h.html" target="_top" xlink:title=" ">
<polygon fill="white" stroke="#666666" points="599,-294 546,-294 546,-275 599,-275 599,-294"/>
<text text-anchor="middle" x="572.5" y="-282" font-family="Helvetica,sans-Serif" font-size="10.00">string.h</text>
</a>
</g>
</g>
<!-- Node1&#45;&gt;Node9 -->
<g id="edge57_Node000001_Node000009" class="edge">
<title>Node1&#45;&gt;Node9</title>
<g id="a_edge57_Node000001_Node000009"><a xlink:title=" ">
<path fill="none" stroke="#63b8ff" d="M418.61,-560.98C467.8,-543.8 535.5,-509.45 535.5,-450.5 535.5,-450.5 535.5,-450.5 535.5,-393.5 535.5,-360.12 551.52,-323.91 562.48,-303.04"/>
<polygon fill="#63b8ff" stroke="#63b8ff" points="565.63,-304.57 567.36,-294.12 559.49,-301.21 565.63,-304.57"/>
</a>
</g>
</g>
<!-- Node31 -->
<g id="Node000031" class="node">
<title>Node31</title>
<g id="a_Node000031"><a xlink:href="_i_payload_8h.html" target="_top" xlink:title=" ">
<polygon fill="white" stroke="#666666" points="431.5,-525 305.5,-525 305.5,-495 431.5,-495 431.5,-525"/>
<text text-anchor="start" x="313.5" y="-513" font-family="Helvetica,sans-Serif" font-size="10.00">Kit/Persistence/Record</text>
<text text-anchor="middle" x="368.5" y="-502" font-family="Helvetica,sans-Serif" font-size="10.00">/IPayload.h</text>
</a>
</g>
</g>
<!-- Node1&#45;&gt;Node31 -->
<g id="edge47_Node000001_Node000031" class="edge">
<title>Node1&#45;&gt;Node31</title>
<g id="a_edge47_Node000001_Node000031"><a xlink:title=" ">
<path fill="none" stroke="#63b8ff" d="M368.5,-560.8C368.5,-553.34 368.5,-543.99 368.5,-535.41"/>
<polygon fill="#63b8ff" stroke="#63b8ff" points="372,-535.16 368.5,-525.16 365,-535.16 372,-535.16"/>
</a>
</g>
</g>
<!-- Node3 -->
<g id="Node000003" class="node">
<title>Node3</title>
<g id="a_Node000003"><a xlink:href="_cursor_base_8h.html" target="_top" xlink:title=" ">
<polygon fill="white" stroke="#666666" points="313,-349 172,-349 172,-330 313,-330 313,-349"/>
<text text-anchor="middle" x="242.5" y="-337" font-family="Helvetica,sans-Serif" font-size="10.00">Kit/Memory/CursorBase.h</text>
</a>
</g>
</g>
<!-- Node2&#45;&gt;Node3 -->
<g id="edge2_Node000002_Node000003" class="edge">
<title>Node2&#45;&gt;Node3</title>
<g id="a_edge2_Node000002_Node000003"><a xlink:title=" ">
<path fill="none" stroke="#63b8ff" d="M224.97,-384.75C227.78,-377.65 231.84,-367.4 235.35,-358.56"/>
<polygon fill="#63b8ff" stroke="#63b8ff" points="238.67,-359.68 239.1,-349.09 232.16,-357.1 238.67,-359.68"/>
</a>
</g>
</g>
<!-- Node7 -->
<g id="Node000007" class="node">
<title>Node7</title>
<g id="a_Node000007"><a xlink:href="endian_8h.html" target="_top" xlink:title="This file provides a set of macros/method to convert between the &#39;host&#39; platform and Big/Little endia...">
<polygon fill="white" stroke="#666666" points="432,-349 331,-349 331,-330 432,-330 432,-349"/>
<text text-anchor="middle" x="381.5" y="-337" font-family="Helvetica,sans-Serif" font-size="10.00">Kit/Type/endian.h</text>
</a>
</g>
</g>
<!-- Node2&#45;&gt;Node7 -->
<g id="edge6_Node000002_Node000007" class="edge">
<title>Node2&#45;&gt;Node7</title>
<g id="a_edge6_Node000002_Node000007"><a xlink:title=" ">
<path fill="none" stroke="#63b8ff" d="M247.21,-384.98C273.95,-376.13 316.03,-362.19 345.95,-352.28"/>
<polygon fill="#63b8ff" stroke="#63b8ff" points="347.2,-355.55 355.59,-349.08 345,-348.9 347.2,-355.55"/>
</a>
</g>
</g>
<!-- Node30 -->
<g id="Node000030" class="node">
<title>Node30</title>
<g id="a_Node000030"><a xlink:title=" ">
<polygon fill="#e0e0e0" stroke="#999999" points="154,-349 85,-349 85,-330 154,-330 154,-349"/>
<text text-anchor="middle" x="119.5" y="-337" font-family="Helvetica,sans-Serif" font-size="10.00">type_traits</text>
</a>
</g>
</g>
<!-- Node2&#45;&gt;Node30 -->
<g id="edge46_Node000002_Node000030" class="edge">
<title>Node2&#45;&gt;Node30</title>
<g id="a_edge46_Node000002_Node000030"><a xlink:title=" ">
<path fill="none" stroke="#63b8ff" d="M205.11,-384.98C188.93,-376.57 163.93,-363.59 145.12,-353.81"/>
<polygon fill="#63b8ff" stroke="#63b8ff" points="146.67,-350.68 136.19,-349.17 143.45,-356.89 146.67,-350.68"/>
</a>
</g>
</g>
<!-- Node3&#45;&gt;Node4 -->
<g id="edge3_Node000003_Node000004" class="edge">
<title>Node3&#45;&gt;Node4</title>
<g id="a_edge3_Node000003_Node000004"><a xlink:title=" ">
<path fill="none" stroke="#63b8ff" d="M221.13,-329.98C199.35,-321.3 165.34,-307.75 140.58,-297.88"/>
<polygon fill="#63b8ff" stroke="#63b8ff" points="141.84,-294.62 131.26,-294.17 139.25,-301.12 141.84,-294.62"/>
</a>
</g>
</g>
<!-- Node3&#45;&gt;Node5 -->
<g id="edge4_Node000003_Node000005" class="edge">
<title>Node3&#45;&gt;Node5</title>
<g id="a_edge4_Node000003_Node000005"><a xlink:title=" ">
<path fill="none" stroke="#63b8ff" d="M240.88,-329.86C237.61,-311.59 230.5,-267.66 230.5,-230.5 230.5,-230.5 230.5,-230.5 230.5,-118.5 230.5,-82.3 250.53,-73.74 281.5,-55 340.82,-19.1 423.46,-11.41 470.62,-10.2"/>
<polygon fill="#63b8ff" stroke="#63b8ff" points="470.74,-13.69 480.68,-10.02 470.62,-6.69 470.74,-13.69"/>
</a>
</g>
</g>
<!-- Node6 -->
<g id="Node000006" class="node">
<title>Node6</title>
<g id="a_Node000006"><a xlink:title=" ">
<polygon fill="#e0e0e0" stroke="#999999" points="202,-294 153,-294 153,-275 202,-275 202,-294"/>
<text text-anchor="middle" x="177.5" y="-282" font-family="Helvetica,sans-Serif" font-size="10.00">cstdlib</text>
</a>
</g>
</g>
<!-- Node3&#45;&gt;Node6 -->
<g id="edge5_Node000003_Node000006" class="edge">
<title>Node3&#45;&gt;Node6</title>
<g id="a_edge5_Node000003_Node000006"><a xlink:title=" ">
<path fill="none" stroke="#63b8ff" d="M232.06,-329.98C222.35,-322.07 207.68,-310.11 196,-300.58"/>
<polygon fill="#63b8ff" stroke="#63b8ff" points="198.1,-297.78 188.13,-294.17 193.67,-303.2 198.1,-297.78"/>
</a>
</g>
</g>
<!-- Node7&#45;&gt;Node5 -->
<g id="edge8_Node000007_Node000005" class="edge">
<title>Node7&#45;&gt;Node5</title>
<g id="a_edge8_Node000007_Node000005"><a xlink:title=" ">
<path fill="none" stroke="#63b8ff" d="M360.51,-329.89C327.83,-314.93 268.5,-280.84 268.5,-230.5 268.5,-230.5 268.5,-230.5 268.5,-118.5 268.5,-30.98 403.24,-14 470.38,-10.97"/>
<polygon fill="#63b8ff" stroke="#63b8ff" points="470.68,-14.46 480.55,-10.6 470.43,-7.47 470.68,-14.46"/>
</a>
</g>
</g>
<!-- Node8 -->
<g id="Node000008" class="node">
<title>Node8</title>
<g id="a_Node000008"><a xlink:title=" ">
<polygon fill="#e0e0e0" stroke="#999999" points="370,-129 297,-129 297,-110 370,-110 370,-129"/>
<text text-anchor="middle" x="333.5" y="-117" font-family="Helvetica,sans-Serif" font-size="10.00">kit_config.h</text>
</a>
</g>
</g>
<!-- Node7&#45;&gt;Node8 -->
<g id="edge7_Node000007_Node000008" class="edge">
<title>Node7&#45;&gt;Node8</title>
<g id="a_edge7_Node000007_Node000008"><a xlink:title=" ">
<path fill="none" stroke="#63b8ff" d="M379.62,-329.95C372.56,-297.88 347.53,-184.2 337.6,-139.12"/>
<polygon fill="#63b8ff" stroke="#63b8ff" points="340.99,-138.24 335.42,-129.22 334.15,-139.74 340.99,-138.24"/>
</a>
</g>
</g>
<!-- Node7&#45;&gt;Node9 -->
<g id="edge9_Node000007_Node000009" class="edge">
<title>Node7&#45;&gt;Node9</title>
<g id="a_edge9_Node000007_Node000009"><a xlink:title=" ">
<path fill="none" stroke="#63b8ff" d="M412.19,-329.98C445.88,-320.64 499.94,-305.64 535.83,-295.67"/>
<polygon fill="#63b8ff" stroke="#63b8ff" points="537.19,-298.93 545.89,-292.88 535.32,-292.18 537.19,-298.93"/>
</a>
</g>
</g>
<!-- Node10 -->
<g id="Node000010" class="node">
<title>Node10</title>
<g id="a_Node000010"><a xlink:href="_model_point_base_8h.html" target="_top" xlink:title=" ">
<polygon fill="white" stroke="#666666" points="699,-239 558,-239 558,-220 699,-220 699,-239"/>
<text text-anchor="middle" x="628.5" y="-227" font-family="Helvetica,sans-Serif" font-size="10.00">Kit/Dm/ModelPointBase.h</text>
</a>
</g>
</g>
<!-- Node9&#45;&gt;Node10 -->
<g id="edge10_Node000009_Node000010" class="edge">
<title>Node9&#45;&gt;Node10</title>
<g id="a_edge10_Node000009_Node000010"><a xlink:title=" ">
<path fill="none" stroke="#63b8ff" d="M581.5,-274.98C589.69,-267.23 602.01,-255.58 611.97,-246.14"/>
<polygon fill="#63b8ff" stroke="#63b8ff" points="614.48,-248.59 619.34,-239.17 609.67,-243.5 614.48,-248.59"/>
</a>
</g>
</g>
<!-- Node29 -->
<g id="Node000029" class="node">
<title>Node29</title>
<g id="a_Node000029"><a xlink:href="_observer_8h.html" target="_top" xlink:title=" ">
<polygon fill="white" stroke="#666666" points="937.5,-239 831.5,-239 831.5,-220 937.5,-220 937.5,-239"/>
<text text-anchor="middle" x="884.5" y="-227" font-family="Helvetica,sans-Serif" font-size="10.00">Kit/Dm/Observer.h</text>
</a>
</g>
</g>
<!-- Node9&#45;&gt;Node29 -->
<g id="edge42_Node000009_Node000029" class="edge">
<title>Node9&#45;&gt;Node29</title>
<g id="a_edge42_Node000009_Node000029"><a xlink:title=" ">
<path fill="none" stroke="#63b8ff" d="M599.1,-278.98C648.65,-270.56 756.21,-252.29 824.21,-240.74"/>
<polygon fill="#63b8ff" stroke="#63b8ff" points="825.09,-244.14 834.36,-239.02 823.91,-237.24 825.09,-244.14"/>
</a>
</g>
</g>
<!-- Node10&#45;&gt;Node5 -->
<g id="edge40_Node000010_Node000005" class="edge">
<title>Node10&#45;&gt;Node5</title>
<g id="a_edge40_Node000010_Node000005"><a xlink:title=" ">
<path fill="none" stroke="#63b8ff" d="M601.23,-219.85C583.62,-212.89 561.64,-201.36 548.5,-184 512.92,-136.97 507.59,-63.84 507.19,-29.51"/>
<polygon fill="#63b8ff" stroke="#63b8ff" points="510.69,-29.1 507.22,-19.09 503.69,-29.08 510.69,-29.1"/>
</a>
</g>
</g>
<!-- Node11 -->
<g id="Node000011" class="node">
<title>Node11</title>
<g id="a_Node000011"><a xlink:href="_i_model_point_8h.html" target="_top" xlink:title=" ">
<polygon fill="white" stroke="#666666" points="864.5,-184 744.5,-184 744.5,-165 864.5,-165 864.5,-184"/>
<text text-anchor="middle" x="804.5" y="-172" font-family="Helvetica,sans-Serif" font-size="10.00">Kit/Dm/IModelPoint.h</text>
</a>
</g>
</g>
<!-- Node10&#45;&gt;Node11 -->
<g id="edge11_Node000010_Node000011" class="edge">
<title>Node10&#45;&gt;Node11</title>
<g id="a_edge11_Node000010_Node000011"><a xlink:title=" ">
<path fill="none" stroke="#63b8ff" d="M656.78,-219.98C686.45,-211.05 733.29,-196.94 766.25,-187.02"/>
<polygon fill="#63b8ff" stroke="#63b8ff" points="767.43,-190.32 776,-184.08 765.42,-183.61 767.43,-190.32"/>
</a>
</g>
</g>
<!-- Node16 -->
<g id="Node000016" class="node">
<title>Node16</title>
<g id="a_Node000016"><a xlink:title=" ">
<polygon fill="#e0e0e0" stroke="#999999" points="53,-19 0,-19 0,0 53,0 53,-19"/>
<text text-anchor="middle" x="26.5" y="-7" font-family="Helvetica,sans-Serif" font-size="10.00">stdlib.h</text>
</a>
</g>
</g>
<!-- Node10&#45;&gt;Node16 -->
<g id="edge41_Node000010_Node000016" class="edge">
<title>Node10&#45;&gt;Node16</title>
<g id="a_edge41_Node000010_Node000016"><a xlink:title=" ">
<path fill="none" stroke="#63b8ff" d="M557.81,-220.67C414.17,-203.2 96.16,-155.97 29.5,-74 19.39,-61.57 19.78,-42.81 22.02,-28.91"/>
<polygon fill="#63b8ff" stroke="#63b8ff" points="25.47,-29.5 24.04,-19 18.61,-28.1 25.47,-29.5"/>
</a>
</g>
</g>
<!-- Node21 -->
<g id="Node000021" class="node">
<title>Node21</title>
<g id="a_Node000021"><a xlink:href="_i_observer_8h.html" target="_top" xlink:title=" ">
<polygon fill="white" stroke="#666666" points="1054,-129 945,-129 945,-110 1054,-110 1054,-129"/>
<text text-anchor="middle" x="999.5" y="-117" font-family="Helvetica,sans-Serif" font-size="10.00">Kit/Dm/IObserver.h</text>
</a>
</g>
</g>
<!-- Node10&#45;&gt;Node21 -->
<g id="edge36_Node000010_Node000021" class="edge">
<title>Node10&#45;&gt;Node21</title>
<g id="a_edge36_Node000010_Node000021"><a xlink:title=" ">
<path fill="none" stroke="#63b8ff" d="M699.01,-221.14C748.7,-214.65 816.32,-203.16 873.5,-184 911.43,-171.29 952.25,-148.95 976.83,-134.45"/>
<polygon fill="#63b8ff" stroke="#63b8ff" points="978.94,-137.26 985.72,-129.12 975.34,-131.26 978.94,-137.26"/>
</a>
</g>
</g>
<!-- Node24 -->
<g id="Node000024" class="node">
<title>Node24</title>
<g id="a_Node000024"><a xlink:href="_i_model_database_8h.html" target="_top" xlink:title=" ">
<polygon fill="white" stroke="#666666" points="699.5,-184 557.5,-184 557.5,-165 699.5,-165 699.5,-184"/>
<text text-anchor="middle" x="628.5" y="-172" font-family="Helvetica,sans-Serif" font-size="10.00">Kit/Dm/IModelDatabase.h</text>
</a>
</g>
</g>
<!-- Node10&#45;&gt;Node24 -->
<g id="edge29_Node000010_Node000024" class="edge">
<title>Node10&#45;&gt;Node24</title>
<g id="a_edge29_Node000010_Node000024"><a xlink:title=" ">
<path fill="none" stroke="#63b8ff" d="M628.5,-219.75C628.5,-212.8 628.5,-202.85 628.5,-194.13"/>
<polygon fill="#63b8ff" stroke="#63b8ff" points="632,-194.09 628.5,-184.09 625,-194.09 632,-194.09"/>
</a>
</g>
</g>
<!-- Node27 -->
<g id="Node000027" class="node">
<title>Node27</title>
<g id="a_Node000027"><a xlink:href="_d_list_8h.html" target="_top" xlink:title=" ">
<polygon fill="white" stroke="#666666" points="1156,-184 1039,-184 1039,-165 1156,-165 1156,-184"/>
<text text-anchor="middle" x="1097.5" y="-172" font-family="Helvetica,sans-Serif" font-size="10.00">Kit/Container/DList.h</text>
</a>
</g>
</g>
<!-- Node10&#45;&gt;Node27 -->
<g id="edge37_Node000010_Node000027" class="edge">
<title>Node10&#45;&gt;Node27</title>
<g id="a_edge37_Node000010_Node000027"><a xlink:title=" ">
<path fill="none" stroke="#63b8ff" d="M699.22,-220.51C788.33,-210.44 940.45,-193.25 1028.66,-183.28"/>
<polygon fill="#63b8ff" stroke="#63b8ff" points="1029.29,-186.73 1038.83,-182.13 1028.5,-179.78 1029.29,-186.73"/>
</a>
</g>
</g>
<!-- Node11&#45;&gt;Node5 -->
<g id="edge28_Node000011_Node000005" class="edge">
<title>Node11&#45;&gt;Node5</title>
<g id="a_edge28_Node000011_Node000005"><a xlink:title=" ">
<path fill="none" stroke="#63b8ff" d="M806.56,-164.69C809.59,-152.25 815.75,-128.96 823.5,-110 830.35,-93.25 838.15,-91.56 842.5,-74 844.53,-65.8 848.06,-61.35 842.5,-55 823.06,-32.8 627.28,-18.01 544.33,-12.69"/>
<polygon fill="#63b8ff" stroke="#63b8ff" points="544.3,-9.19 534.1,-12.05 543.86,-16.17 544.3,-9.19"/>
</a>
</g>
</g>
<!-- Node11&#45;&gt;Node8 -->
<g id="edge12_Node000011_Node000008" class="edge">
<title>Node11&#45;&gt;Node8</title>
<g id="a_edge12_Node000011_Node000008"><a xlink:title=" ">
<path fill="none" stroke="#63b8ff" d="M744.28,-167.78C648.33,-158.58 463.88,-140.47 380.06,-128.94"/>
<polygon fill="#63b8ff" stroke="#63b8ff" points="380.51,-125.47 370.12,-127.53 379.53,-132.4 380.51,-125.47"/>
</a>
</g>
</g>
<!-- Node12 -->
<g id="Node000012" class="node">
<title>Node12</title>
<g id="a_Node000012"><a xlink:href="_list_item_8h.html" target="_top" xlink:title=" ">
<polygon fill="white" stroke="#666666" points="1065.5,-74 933.5,-74 933.5,-55 1065.5,-55 1065.5,-74"/>
<text text-anchor="middle" x="999.5" y="-62" font-family="Helvetica,sans-Serif" font-size="10.00">Kit/Container/ListItem.h</text>
</a>
</g>
</g>
<!-- Node11&#45;&gt;Node12 -->
<g id="edge13_Node000011_Node000012" class="edge">
<title>Node11&#45;&gt;Node12</title>
<g id="a_edge13_Node000011_Node000012"><a xlink:title=" ">
<path fill="none" stroke="#63b8ff" d="M824.05,-164.91C843.09,-156.36 872.7,-142.6 897.5,-129 926.05,-113.34 957.71,-93.17 978.07,-79.81"/>
<polygon fill="#63b8ff" stroke="#63b8ff" points="980.16,-82.62 986.57,-74.19 976.3,-76.78 980.16,-82.62"/>
</a>
</g>
</g>
<!-- Node14 -->
<g id="Node000014" class="node">
<title>Node14</title>
<g id="a_Node000014"><a xlink:href="_i_string_8h.html" target="_top" xlink:title=" ">
<polygon fill="white" stroke="#666666" points="776,-129 679,-129 679,-110 776,-110 776,-129"/>
<text text-anchor="middle" x="727.5" y="-117" font-family="Helvetica,sans-Serif" font-size="10.00">Kit/Text/IString.h</text>
</a>
</g>
</g>
<!-- Node11&#45;&gt;Node14 -->
<g id="edge15_Node000011_Node000014" class="edge">
<title>Node11&#45;&gt;Node14</title>
<g id="a_edge15_Node000011_Node000014"><a xlink:title=" ">
<path fill="none" stroke="#63b8ff" d="M792.13,-164.98C780.41,-156.92 762.58,-144.65 748.61,-135.03"/>
<polygon fill="#63b8ff" stroke="#63b8ff" points="750.32,-131.96 740.1,-129.17 746.35,-137.72 750.32,-131.96"/>
</a>
</g>
</g>
<!-- Node11&#45;&gt;Node21 -->
<g id="edge23_Node000011_Node000021" class="edge">
<title>Node11&#45;&gt;Node21</title>
<g id="a_edge23_Node000011_Node000021"><a xlink:title=" ">
<path fill="none" stroke="#63b8ff" d="M835.83,-164.98C868.99,-155.97 921.5,-141.7 958.06,-131.76"/>
<polygon fill="#63b8ff" stroke="#63b8ff" points="959.19,-135.08 967.92,-129.08 957.36,-128.33 959.19,-135.08"/>
</a>
</g>
</g>
<!-- Node22 -->
<g id="Node000022" class="node">
<title>Node22</title>
<g id="a_Node000022"><a xlink:href="_arduino_8h_source.html" target="_top" xlink:title=" ">
<polygon fill="white" stroke="#666666" points="661,-129 558,-129 558,-110 661,-110 661,-129"/>
<text text-anchor="middle" x="609.5" y="-117" font-family="Helvetica,sans-Serif" font-size="10.00">Kit/Json/Arduino.h</text>
</a>
</g>
</g>
<!-- Node11&#45;&gt;Node22 -->
<g id="edge26_Node000011_Node000022" class="edge">
<title>Node11&#45;&gt;Node22</title>
<g id="a_edge26_Node000011_Node000022"><a xlink:title=" ">
<path fill="none" stroke="#63b8ff" d="M773.17,-164.98C740.01,-155.97 687.5,-141.7 650.94,-131.76"/>
<polygon fill="#63b8ff" stroke="#63b8ff" points="651.64,-128.33 641.08,-129.08 649.81,-135.08 651.64,-128.33"/>
</a>
</g>
</g>
<!-- Node23 -->
<g id="Node000023" class="node">
<title>Node23</title>
<g id="a_Node000023"><a xlink:title=" ">
<polygon fill="#e0e0e0" stroke="#999999" points="888.5,-129 832.5,-129 832.5,-110 888.5,-110 888.5,-129"/>
<text text-anchor="middle" x="860.5" y="-117" font-family="Helvetica,sans-Serif" font-size="10.00">stddef.h</text>
</a>
</g>
</g>
<!-- Node11&#45;&gt;Node23 -->
<g id="edge27_Node000011_Node000023" class="edge">
<title>Node11&#45;&gt;Node23</title>
<g id="a_edge27_Node000011_Node000023"><a xlink:title=" ">
<path fill="none" stroke="#63b8ff" d="M813.5,-164.98C821.69,-157.23 834.01,-145.58 843.97,-136.14"/>
<polygon fill="#63b8ff" stroke="#63b8ff" points="846.48,-138.59 851.34,-129.17 841.67,-133.5 846.48,-138.59"/>
</a>
</g>
</g>
<!-- Node13 -->
<g id="Node000013" class="node">
<title>Node13</title>
<g id="a_Node000013"><a xlink:href="_item_8h.html" target="_top" xlink:title=" ">
<polygon fill="white" stroke="#666666" points="1057,-19 942,-19 942,0 1057,0 1057,-19"/>
<text text-anchor="middle" x="999.5" y="-7" font-family="Helvetica,sans-Serif" font-size="10.00">Kit/Container/Item.h</text>
</a>
</g>
</g>
<!-- Node12&#45;&gt;Node13 -->
<g id="edge14_Node000012_Node000013" class="edge">
<title>Node12&#45;&gt;Node13</title>
<g id="a_edge14_Node000012_Node000013"><a xlink:title=" ">
<path fill="none" stroke="#63b8ff" d="M999.5,-54.75C999.5,-47.8 999.5,-37.85 999.5,-29.13"/>
<polygon fill="#63b8ff" stroke="#63b8ff" points="1003,-29.09 999.5,-19.09 996,-29.09 1003,-29.09"/>
</a>
</g>
</g>
<!-- Node15 -->
<g id="Node000015" class="node">
<title>Node15</title>
<g id="a_Node000015"><a xlink:href="_key_8h.html" target="_top" xlink:title=" ">
<polygon fill="white" stroke="#666666" points="164,-74 55,-74 55,-55 164,-55 164,-74"/>
<text text-anchor="middle" x="109.5" y="-62" font-family="Helvetica,sans-Serif" font-size="10.00">Kit/Container/Key.h</text>
</a>
</g>
</g>
<!-- Node14&#45;&gt;Node15 -->
<g id="edge16_Node000014_Node000015" class="edge">
<title>Node14&#45;&gt;Node15</title>
<g id="a_edge16_Node000014_Node000015"><a xlink:title=" ">
<path fill="none" stroke="#63b8ff" d="M678.71,-111C675.94,-110.64 673.18,-110.31 670.5,-110 491.3,-89.56 278.83,-75.46 174.25,-69.18"/>
<polygon fill="#63b8ff" stroke="#63b8ff" points="174.36,-65.68 164.17,-68.58 173.94,-72.67 174.36,-65.68"/>
</a>
</g>
</g>
<!-- Node18 -->
<g id="Node000018" class="node">
<title>Node18</title>
<g id="a_Node000018"><a xlink:href="printfchecker_8h.html" target="_top" xlink:title="This file contains macro that enables the GCC (and Clang) compiler to validate printf flags with thei...">
<polygon fill="white" stroke="#666666" points="833,-74 688,-74 688,-55 833,-55 833,-74"/>
<text text-anchor="middle" x="760.5" y="-62" font-family="Helvetica,sans-Serif" font-size="10.00">Kit/System/printfchecker.h</text>
</a>
</g>
</g>
<!-- Node14&#45;&gt;Node18 -->
<g id="edge20_Node000014_Node000018" class="edge">
<title>Node14&#45;&gt;Node18</title>
<g id="a_edge20_Node000014_Node000018"><a xlink:title=" ">
<path fill="none" stroke="#63b8ff" d="M732.95,-109.75C737.51,-102.42 744.17,-91.73 749.79,-82.7"/>
<polygon fill="#63b8ff" stroke="#63b8ff" points="752.84,-84.43 755.15,-74.09 746.9,-80.73 752.84,-84.43"/>
</a>
</g>
</g>
<!-- Node19 -->
<g id="Node000019" class="node">
<title>Node19</title>
<g id="a_Node000019"><a xlink:title=" ">
<polygon fill="#e0e0e0" stroke="#999999" points="591.5,-74 535.5,-74 535.5,-55 591.5,-55 591.5,-74"/>
<text text-anchor="middle" x="563.5" y="-62" font-family="Helvetica,sans-Serif" font-size="10.00">stdarg.h</text>
</a>
</g>
</g>
<!-- Node14&#45;&gt;Node19 -->
<g id="edge21_Node000014_Node000019" class="edge">
<title>Node14&#45;&gt;Node19</title>
<g id="a_edge21_Node000014_Node000019"><a xlink:title=" ">
<path fill="none" stroke="#63b8ff" d="M701.15,-109.98C673.74,-101.13 630.61,-87.19 599.94,-77.28"/>
<polygon fill="#63b8ff" stroke="#63b8ff" points="600.65,-73.83 590.06,-74.08 598.5,-80.49 600.65,-73.83"/>
</a>
</g>
</g>
<!-- Node20 -->
<g id="Node000020" class="node">
<title>Node20</title>
<g id="a_Node000020"><a xlink:title=" ">
<polygon fill="#e0e0e0" stroke="#999999" points="669.5,-74 609.5,-74 609.5,-55 669.5,-55 669.5,-74"/>
<text text-anchor="middle" x="639.5" y="-62" font-family="Helvetica,sans-Serif" font-size="10.00">iostream</text>
</a>
</g>
</g>
<!-- Node14&#45;&gt;Node20 -->
<g id="edge22_Node000014_Node000020" class="edge">
<title>Node14&#45;&gt;Node20</title>
<g id="a_edge22_Node000014_Node000020"><a xlink:title=" ">
<path fill="none" stroke="#63b8ff" d="M713.36,-109.98C699.71,-101.77 678.81,-89.18 662.72,-79.49"/>
<polygon fill="#63b8ff" stroke="#63b8ff" points="664.27,-76.33 653.9,-74.17 660.66,-82.33 664.27,-76.33"/>
</a>
</g>
</g>
<!-- Node15&#45;&gt;Node5 -->
<g id="edge17_Node000015_Node000005" class="edge">
<title>Node15&#45;&gt;Node5</title>
<g id="a_edge17_Node000015_Node000005"><a xlink:title=" ">
<path fill="none" stroke="#63b8ff" d="M164.01,-56.24C246.22,-45.29 399.83,-24.84 470.36,-15.45"/>
<polygon fill="#63b8ff" stroke="#63b8ff" points="471.09,-18.88 480.54,-14.09 470.17,-11.94 471.09,-18.88"/>
</a>
</g>
</g>
<!-- Node15&#45;&gt;Node16 -->
<g id="edge18_Node000015_Node000016" class="edge">
<title>Node15&#45;&gt;Node16</title>
<g id="a_edge18_Node000015_Node000016"><a xlink:title=" ">
<path fill="none" stroke="#63b8ff" d="M96.16,-54.98C83.41,-46.84 63.95,-34.41 48.83,-24.76"/>
<polygon fill="#63b8ff" stroke="#63b8ff" points="50.39,-21.6 40.08,-19.17 46.62,-27.5 50.39,-21.6"/>
</a>
</g>
</g>
<!-- Node17 -->
<g id="Node000017" class="node">
<title>Node17</title>
<g id="a_Node000017"><a xlink:title=" ">
<polygon fill="#e0e0e0" stroke="#999999" points="136,-19 83,-19 83,0 136,0 136,-19"/>
<text text-anchor="middle" x="109.5" y="-7" font-family="Helvetica,sans-Serif" font-size="10.00">limits.h</text>
</a>
</g>
</g>
<!-- Node15&#45;&gt;Node17 -->
<g id="edge19_Node000015_Node000017" class="edge">
<title>Node15&#45;&gt;Node17</title>
<g id="a_edge19_Node000015_Node000017"><a xlink:title=" ">
<path fill="none" stroke="#63b8ff" d="M109.5,-54.75C109.5,-47.8 109.5,-37.85 109.5,-29.13"/>
<polygon fill="#63b8ff" stroke="#63b8ff" points="113,-29.09 109.5,-19.09 106,-29.09 113,-29.09"/>
</a>
</g>
</g>
<!-- Node21&#45;&gt;Node5 -->
<g id="edge25_Node000021_Node000005" class="edge">
<title>Node21&#45;&gt;Node5</title>
<g id="a_edge25_Node000021_Node000005"><a xlink:title=" ">
<path fill="none" stroke="#63b8ff" d="M986.41,-109.8C964.49,-95.72 918.52,-68.16 875.5,-55 758.09,-19.09 611.28,-11.99 544.11,-10.7"/>
<polygon fill="#63b8ff" stroke="#63b8ff" points="544.09,-7.2 534.03,-10.54 543.97,-14.2 544.09,-7.2"/>
</a>
</g>
</g>
<!-- Node21&#45;&gt;Node12 -->
<g id="edge24_Node000021_Node000012" class="edge">
<title>Node21&#45;&gt;Node12</title>
<g id="a_edge24_Node000021_Node000012"><a xlink:title=" ">
<path fill="none" stroke="#63b8ff" d="M999.5,-109.75C999.5,-102.8 999.5,-92.85 999.5,-84.13"/>
<polygon fill="#63b8ff" stroke="#63b8ff" points="1003,-84.09 999.5,-74.09 996,-84.09 1003,-84.09"/>
</a>
</g>
</g>
<!-- Node24&#45;&gt;Node8 -->
<g id="edge30_Node000024_Node000008" class="edge">
<title>Node24&#45;&gt;Node8</title>
<g id="a_edge30_Node000024_Node000008"><a xlink:title=" ">
<path fill="none" stroke="#63b8ff" d="M580.28,-164.97C532.27,-156.46 456.17,-142.91 380.36,-129.15"/>
<polygon fill="#63b8ff" stroke="#63b8ff" points="380.62,-125.64 370.15,-127.29 379.37,-132.52 380.62,-125.64"/>
</a>
</g>
</g>
<!-- Node24&#45;&gt;Node14 -->
<g id="edge31_Node000024_Node000014" class="edge">
<title>Node24&#45;&gt;Node14</title>
<g id="a_edge31_Node000024_Node000014"><a xlink:title=" ">
<path fill="none" stroke="#63b8ff" d="M644.41,-164.98C660.05,-156.61 684.16,-143.7 702.38,-133.95"/>
<polygon fill="#63b8ff" stroke="#63b8ff" points="704.14,-136.98 711.3,-129.17 700.84,-130.8 704.14,-136.98"/>
</a>
</g>
</g>
<!-- Node24&#45;&gt;Node22 -->
<g id="edge35_Node000024_Node000022" class="edge">
<title>Node24&#45;&gt;Node22</title>
<g id="a_edge35_Node000024_Node000022"><a xlink:title=" ">
<path fill="none" stroke="#63b8ff" d="M625.36,-164.75C622.82,-157.65 619.14,-147.4 615.97,-138.56"/>
<polygon fill="#63b8ff" stroke="#63b8ff" points="619.25,-137.32 612.58,-129.09 612.66,-139.68 619.25,-137.32"/>
</a>
</g>
</g>
<!-- Node25 -->
<g id="Node000025" class="node">
<title>Node25</title>
<g id="a_Node000025"><a xlink:href="_mutex_8h.html" target="_top" xlink:title=" ">
<polygon fill="white" stroke="#666666" points="501,-129 388,-129 388,-110 501,-110 501,-129"/>
<text text-anchor="middle" x="444.5" y="-117" font-family="Helvetica,sans-Serif" font-size="10.00">Kit/System/Mutex.h</text>
</a>
</g>
</g>
<!-- Node24&#45;&gt;Node25 -->
<g id="edge32_Node000024_Node000025" class="edge">
<title>Node24&#45;&gt;Node25</title>
<g id="a_edge32_Node000024_Node000025"><a xlink:title=" ">
<path fill="none" stroke="#63b8ff" d="M598.94,-164.98C567.78,-156.01 518.53,-141.82 484.04,-131.89"/>
<polygon fill="#63b8ff" stroke="#63b8ff" points="484.87,-128.49 474.29,-129.08 482.93,-135.21 484.87,-128.49"/>
</a>
</g>
</g>
<!-- Node25&#45;&gt;Node16 -->
<g id="edge33_Node000025_Node000016" class="edge">
<title>Node25&#45;&gt;Node16</title>
<g id="a_edge33_Node000025_Node000016"><a xlink:title=" ">
<path fill="none" stroke="#63b8ff" d="M387.79,-111.01C384.99,-110.66 382.21,-110.32 379.5,-110 305.37,-101.16 102.9,-121.73 45.5,-74 32.51,-63.2 28.17,-43.91 26.83,-29.42"/>
<polygon fill="#63b8ff" stroke="#63b8ff" points="30.31,-28.88 26.29,-19.08 23.32,-29.25 30.31,-28.88"/>
</a>
</g>
</g>
<!-- Node26 -->
<g id="Node000026" class="node">
<title>Node26</title>
<g id="a_Node000026"><a xlink:title=" ">
<polygon fill="#e0e0e0" stroke="#999999" points="477,-74 412,-74 412,-55 477,-55 477,-74"/>
<text text-anchor="middle" x="444.5" y="-62" font-family="Helvetica,sans-Serif" font-size="10.00">kit_map.h</text>
</a>
</g>
</g>
<!-- Node25&#45;&gt;Node26 -->
<g id="edge34_Node000025_Node000026" class="edge">
<title>Node25&#45;&gt;Node26</title>
<g id="a_edge34_Node000025_Node000026"><a xlink:title=" ">
<path fill="none" stroke="#63b8ff" d="M444.5,-109.75C444.5,-102.8 444.5,-92.85 444.5,-84.13"/>
<polygon fill="#63b8ff" stroke="#63b8ff" points="448,-84.09 444.5,-74.09 441,-84.09 448,-84.09"/>
</a>
</g>
</g>
<!-- Node28 -->
<g id="Node000028" class="node">
<title>Node28</title>
<g id="a_Node000028"><a xlink:href="_d_list_base_8h.html" target="_top" xlink:title=" ">
<polygon fill="white" stroke="#666666" points="1213,-129 1072,-129 1072,-110 1213,-110 1213,-129"/>
<text text-anchor="middle" x="1142.5" y="-117" font-family="Helvetica,sans-Serif" font-size="10.00">Kit/Container/DListBase.h</text>
</a>
</g>
</g>
<!-- Node27&#45;&gt;Node28 -->
<g id="edge38_Node000027_Node000028" class="edge">
<title>Node27&#45;&gt;Node28</title>
<g id="a_edge38_Node000027_Node000028"><a xlink:title=" ">
<path fill="none" stroke="#63b8ff" d="M1104.93,-164.75C1111.35,-157.18 1120.81,-146.05 1128.62,-136.84"/>
<polygon fill="#63b8ff" stroke="#63b8ff" points="1131.4,-138.98 1135.21,-129.09 1126.07,-134.45 1131.4,-138.98"/>
</a>
</g>
</g>
<!-- Node28&#45;&gt;Node12 -->
<g id="edge39_Node000028_Node000012" class="edge">
<title>Node28&#45;&gt;Node12</title>
<g id="a_edge39_Node000028_Node000012"><a xlink:title=" ">
<path fill="none" stroke="#63b8ff" d="M1119.52,-109.98C1096,-101.27 1059.21,-87.63 1032.56,-77.75"/>
<polygon fill="#63b8ff" stroke="#63b8ff" points="1033.49,-74.36 1022.89,-74.17 1031.05,-80.93 1033.49,-74.36"/>
</a>
</g>
</g>
<!-- Node29&#45;&gt;Node5 -->
<g id="edge45_Node000029_Node000005" class="edge">
<title>Node29&#45;&gt;Node5</title>
<g id="a_edge45_Node000029_Node000005"><a xlink:title=" ">
<path fill="none" stroke="#63b8ff" d="M937.81,-228.6C1049.71,-226.85 1293.13,-211.6 1222.5,-110 1182.44,-52.38 1143.03,-70.11 1074.5,-55 878.1,-11.69 635.29,-9.13 544.25,-9.89"/>
<polygon fill="#63b8ff" stroke="#63b8ff" points="544.13,-6.39 534.16,-9.99 544.2,-13.39 544.13,-6.39"/>
</a>
</g>
</g>
<!-- Node29&#45;&gt;Node11 -->
<g id="edge44_Node000029_Node000011" class="edge">
<title>Node29&#45;&gt;Node11</title>
<g id="a_edge44_Node000029_Node000011"><a xlink:title=" ">
<path fill="none" stroke="#63b8ff" d="M871.65,-219.98C859.36,-211.84 840.59,-199.41 826.02,-189.76"/>
<polygon fill="#63b8ff" stroke="#63b8ff" points="827.86,-186.78 817.59,-184.17 823.99,-192.61 827.86,-186.78"/>
</a>
</g>
</g>
<!-- Node29&#45;&gt;Node21 -->
<g id="edge43_Node000029_Node000021" class="edge">
<title>Node29&#45;&gt;Node21</title>
<g id="a_edge43_Node000029_Node000021"><a xlink:title=" ">
<path fill="none" stroke="#63b8ff" d="M893.91,-219.66C913.38,-201.38 958.31,-159.18 982.82,-136.17"/>
<polygon fill="#63b8ff" stroke="#63b8ff" points="985.39,-138.56 990.28,-129.16 980.59,-133.45 985.39,-138.56"/>
</a>
</g>
</g>
<!-- Node32 -->
<g id="Node000032" class="node">
<title>Node32</title>
<g id="a_Node000032"><a xlink:href="_persistence_2_types_8h.html" target="_top" xlink:title=" ">
<polygon fill="white" stroke="#666666" points="433,-459 304,-459 304,-440 433,-440 433,-459"/>
<text text-anchor="middle" x="368.5" y="-447" font-family="Helvetica,sans-Serif" font-size="10.00">Kit/Persistence/Types.h</text>
</a>
</g>
</g>
<!-- Node31&#45;&gt;Node32 -->
<g id="edge48_Node000031_Node000032" class="edge">
<title>Node31&#45;&gt;Node32</title>
<g id="a_edge48_Node000031_Node000032"><a xlink:title=" ">
<path fill="none" stroke="#63b8ff" d="M368.5,-494.84C368.5,-487.21 368.5,-477.7 368.5,-469.45"/>
<polygon fill="#63b8ff" stroke="#63b8ff" points="372,-469.27 368.5,-459.27 365,-469.27 372,-469.27"/>
</a>
</g>
</g>
<!-- Node32&#45;&gt;Node5 -->
<g id="edge50_Node000032_Node000005" class="edge">
<title>Node32&#45;&gt;Node5</title>
<g id="a_edge50_Node000032_Node000005"><a xlink:title=" ">
<path fill="none" stroke="#63b8ff" d="M303.75,-443.24C258.38,-437.73 197.23,-426.54 147.5,-404 110.82,-387.38 93.35,-385.1 75.5,-349 60.92,-319.52 64.7,-306.07 75.5,-275 116.44,-157.25 142.33,-118.69 249.5,-55 286.25,-33.16 408.31,-19.39 470.45,-13.62"/>
<polygon fill="#63b8ff" stroke="#63b8ff" points="470.96,-17.09 480.61,-12.7 470.33,-10.12 470.96,-17.09"/>
</a>
</g>
</g>
<!-- Node32&#45;&gt;Node8 -->
<g id="edge49_Node000032_Node000008" class="edge">
<title>Node32&#45;&gt;Node8</title>
<g id="a_edge49_Node000032_Node000008"><a xlink:title=" ">
<path fill="none" stroke="#63b8ff" d="M391.04,-439.97C407.28,-432.72 428.54,-420.81 441.5,-404 459.49,-380.67 460.5,-369.96 460.5,-340.5 460.5,-340.5 460.5,-340.5 460.5,-228.5 460.5,-180.01 406.11,-148.73 368.52,-132.91"/>
<polygon fill="#63b8ff" stroke="#63b8ff" points="369.48,-129.52 358.9,-129.03 366.86,-136.01 369.48,-129.52"/>
</a>
</g>
</g>
<!-- Node33 -->
<g id="Node000033" class="node">
<title>Node33</title>
<g id="a_Node000033"><a xlink:href="_cursor_l_e_8h.html" target="_top" xlink:title=" ">
<polygon fill="white" stroke="#666666" points="432.5,-404 304.5,-404 304.5,-385 432.5,-385 432.5,-404"/>
<text text-anchor="middle" x="368.5" y="-392" font-family="Helvetica,sans-Serif" font-size="10.00">Kit/Memory/CursorLE.h</text>
</a>
</g>
</g>
<!-- Node32&#45;&gt;Node33 -->
<g id="edge51_Node000032_Node000033" class="edge">
<title>Node32&#45;&gt;Node33</title>
<g id="a_edge51_Node000032_Node000033"><a xlink:title=" ">
<path fill="none" stroke="#63b8ff" d="M368.5,-439.75C368.5,-432.8 368.5,-422.85 368.5,-414.13"/>
<polygon fill="#63b8ff" stroke="#63b8ff" points="372,-414.09 368.5,-404.09 365,-414.09 372,-414.09"/>
</a>
</g>
</g>
<!-- Node33&#45;&gt;Node3 -->
<g id="edge52_Node000033_Node000003" class="edge">
<title>Node33&#45;&gt;Node3</title>
<g id="a_edge52_Node000033_Node000003"><a xlink:title=" ">
<path fill="none" stroke="#63b8ff" d="M348.26,-384.98C327.8,-376.38 295.97,-362.99 272.57,-353.15"/>
<polygon fill="#63b8ff" stroke="#63b8ff" points="273.69,-349.82 263.11,-349.17 270.97,-356.27 273.69,-349.82"/>
</a>
</g>
</g>
<!-- Node33&#45;&gt;Node7 -->
<g id="edge53_Node000033_Node000007" class="edge">
<title>Node33&#45;&gt;Node7</title>
<g id="a_edge53_Node000033_Node000007"><a xlink:title=" ">
<path fill="none" stroke="#63b8ff" d="M370.65,-384.75C372.37,-377.72 374.85,-367.62 377,-358.84"/>
<polygon fill="#63b8ff" stroke="#63b8ff" points="380.41,-359.63 379.39,-349.09 373.61,-357.97 380.41,-359.63"/>
</a>
</g>
</g>
<!-- Node33&#45;&gt;Node30 -->
<g id="edge54_Node000033_Node000030" class="edge">
<title>Node33&#45;&gt;Node30</title>
<g id="a_edge54_Node000033_Node000030"><a xlink:title=" ">
<path fill="none" stroke="#63b8ff" d="M328.49,-384.98C283.54,-375.42 210.76,-359.92 164.03,-349.98"/>
<polygon fill="#63b8ff" stroke="#63b8ff" points="164.7,-346.54 154.19,-347.88 163.24,-353.39 164.7,-346.54"/>
</a>
</g>
</g>
</g>
</svg>
