<?xml version="1.0" encoding="UTF-8" standalone="no"?>
<!DOCTYPE svg PUBLIC "-//W3C//DTD SVG 1.1//EN"
 "http://www.w3.org/Graphics/SVG/1.1/DTD/svg11.dtd">
<!-- Generated by graphviz version 2.43.0 (0)
 -->
<!-- Title: Kit/System/EventLoop.h Pages: 1 -->
<svg width="1032pt" height="313pt"
 viewBox="0.00 0.00 1031.50 313.00" xmlns="http://www.w3.org/2000/svg" xmlns:xlink="http://www.w3.org/1999/xlink">
<g id="graph0" class="graph" transform="scale(1 1) rotate(0) translate(4 309)">
<title>Kit/System/EventLoop.h</title>
<!-- Node1 -->
<g id="Node000001" class="node">
<title>Node1</title>
<g id="a_Node000001"><a xlink:title=" ">
<polygon fill="#999999" stroke="#666666" points="563.5,-305 430.5,-305 430.5,-286 563.5,-286 563.5,-305"/>
<text text-anchor="middle" x="497" y="-293" font-family="Helvetica,sans-Serif" font-size="10.00">Kit/System/EventLoop.h</text>
</a>
</g>
</g>
<!-- Node2 -->
<g id="Node000002" class="node">
<title>Node2</title>
<g id="a_Node000002"><a xlink:title=" ">
<polygon fill="#e0e0e0" stroke="#999999" points="444.5,-184 371.5,-184 371.5,-165 444.5,-165 444.5,-184"/>
<text text-anchor="middle" x="408" y="-172" font-family="Helvetica,sans-Serif" font-size="10.00">kit_config.h</text>
</a>
</g>
</g>
<!-- Node1&#45;&gt;Node2 -->
<g id="edge1_Node000001_Node000002" class="edge">
<title>Node1&#45;&gt;Node2</title>
<g id="a_edge1_Node000001_Node000002"><a xlink:title=" ">
<path fill="none" stroke="#63b8ff" d="M430.24,-294.93C347.24,-293.86 212.62,-286.38 181,-250 172.25,-239.94 172.53,-230.3 181,-220 192.39,-206.16 298.33,-189.98 361.38,-181.45"/>
<polygon fill="#63b8ff" stroke="#63b8ff" points="362.04,-184.9 371.49,-180.1 361.11,-177.96 362.04,-184.9"/>
</a>
</g>
</g>
<!-- Node3 -->
<g id="Node000003" class="node">
<title>Node3</title>
<g id="a_Node000003"><a xlink:href="_i_event_flag_8h.html" target="_top" xlink:title=" ">
<polygon fill="white" stroke="#666666" points="134,-244.5 0,-244.5 0,-225.5 134,-225.5 134,-244.5"/>
<text text-anchor="middle" x="67" y="-232.5" font-family="Helvetica,sans-Serif" font-size="10.00">Kit/System/IEventFlag.h</text>
</a>
</g>
</g>
<!-- Node1&#45;&gt;Node3 -->
<g id="edge2_Node000001_Node000003" class="edge">
<title>Node1&#45;&gt;Node3</title>
<g id="a_edge2_Node000001_Node000003"><a xlink:title=" ">
<path fill="none" stroke="#63b8ff" d="M430.3,-286.89C359.97,-278.65 246.01,-264.71 148,-250 140.36,-248.85 132.33,-247.57 124.41,-246.25"/>
<polygon fill="#63b8ff" stroke="#63b8ff" points="124.93,-242.78 114.49,-244.57 123.76,-249.69 124.93,-242.78"/>
</a>
</g>
</g>
<!-- Node9 -->
<g id="Node000009" class="node">
<title>Node9</title>
<g id="a_Node000009"><a xlink:href="_i_runnable_8h.html" target="_top" xlink:title=" ">
<polygon fill="white" stroke="#666666" points="321.5,-244.5 190.5,-244.5 190.5,-225.5 321.5,-225.5 321.5,-244.5"/>
<text text-anchor="middle" x="256" y="-232.5" font-family="Helvetica,sans-Serif" font-size="10.00">Kit/System/IRunnable.h</text>
</a>
</g>
</g>
<!-- Node1&#45;&gt;Node9 -->
<g id="edge9_Node000001_Node000009" class="edge">
<title>Node1&#45;&gt;Node9</title>
<g id="a_edge9_Node000001_Node000009"><a xlink:title=" ">
<path fill="none" stroke="#63b8ff" d="M461.96,-285.99C419.39,-275.66 347.51,-258.21 300.91,-246.9"/>
<polygon fill="#63b8ff" stroke="#63b8ff" points="301.63,-243.47 291.09,-244.52 299.98,-250.28 301.63,-243.47"/>
</a>
</g>
</g>
<!-- Node10 -->
<g id="Node000010" class="node">
<title>Node10</title>
<g id="a_Node000010"><a xlink:href="_i_signable_8h.html" target="_top" xlink:title=" ">
<polygon fill="white" stroke="#666666" points="921.5,-184 794.5,-184 794.5,-165 921.5,-165 921.5,-184"/>
<text text-anchor="middle" x="858" y="-172" font-family="Helvetica,sans-Serif" font-size="10.00">Kit/System/ISignable.h</text>
</a>
</g>
</g>
<!-- Node1&#45;&gt;Node10 -->
<g id="edge10_Node000001_Node000010" class="edge">
<title>Node1&#45;&gt;Node10</title>
<g id="a_edge10_Node000001_Node000010"><a xlink:title=" ">
<path fill="none" stroke="#63b8ff" d="M563.65,-294.44C651.45,-292.94 799.4,-285.1 839,-250 854.5,-236.26 858.19,-211.8 858.69,-194.67"/>
<polygon fill="#63b8ff" stroke="#63b8ff" points="862.19,-194.18 858.64,-184.2 855.19,-194.22 862.19,-194.18"/>
</a>
</g>
</g>
<!-- Node11 -->
<g id="Node000011" class="node">
<title>Node11</title>
<g id="a_Node000011"><a xlink:href="_i_event_manager_8h.html" target="_top" xlink:title=" ">
<polygon fill="white" stroke="#666666" points="659.5,-244.5 504.5,-244.5 504.5,-225.5 659.5,-225.5 659.5,-244.5"/>
<text text-anchor="middle" x="582" y="-232.5" font-family="Helvetica,sans-Serif" font-size="10.00">Kit/System/IEventManager.h</text>
</a>
</g>
</g>
<!-- Node1&#45;&gt;Node11 -->
<g id="edge11_Node000001_Node000011" class="edge">
<title>Node1&#45;&gt;Node11</title>
<g id="a_edge11_Node000001_Node000011"><a xlink:title=" ">
<path fill="none" stroke="#63b8ff" d="M509.54,-285.87C523.1,-276.54 544.94,-261.51 561.1,-250.38"/>
<polygon fill="#63b8ff" stroke="#63b8ff" points="563.15,-253.22 569.41,-244.67 559.18,-247.45 563.15,-253.22"/>
</a>
</g>
</g>
<!-- Node12 -->
<g id="Node000012" class="node">
<title>Node12</title>
<g id="a_Node000012"><a xlink:href="_semaphore_8h.html" target="_top" xlink:title=" ">
<polygon fill="white" stroke="#666666" points="1023.5,-244.5 886.5,-244.5 886.5,-225.5 1023.5,-225.5 1023.5,-244.5"/>
<text text-anchor="middle" x="955" y="-232.5" font-family="Helvetica,sans-Serif" font-size="10.00">Kit/System/Semaphore.h</text>
</a>
</g>
</g>
<!-- Node1&#45;&gt;Node12 -->
<g id="edge13_Node000001_Node000012" class="edge">
<title>Node1&#45;&gt;Node12</title>
<g id="a_edge13_Node000001_Node000012"><a xlink:title=" ">
<path fill="none" stroke="#63b8ff" d="M563.51,-287.6C638.58,-279.59 764.27,-265.47 872,-250 880.02,-248.85 888.46,-247.54 896.76,-246.19"/>
<polygon fill="#63b8ff" stroke="#63b8ff" points="897.49,-249.62 906.78,-244.54 896.35,-242.71 897.49,-249.62"/>
</a>
</g>
</g>
<!-- Node14 -->
<g id="Node000014" class="node">
<title>Node14</title>
<g id="a_Node000014"><a xlink:href="_timer_manager_8h.html" target="_top" xlink:title=" ">
<polygon fill="white" stroke="#666666" points="830,-244.5 678,-244.5 678,-225.5 830,-225.5 830,-244.5"/>
<text text-anchor="middle" x="754" y="-232.5" font-family="Helvetica,sans-Serif" font-size="10.00">Kit/System/TimerManager.h</text>
</a>
</g>
</g>
<!-- Node1&#45;&gt;Node14 -->
<g id="edge16_Node000001_Node000014" class="edge">
<title>Node1&#45;&gt;Node14</title>
<g id="a_edge16_Node000001_Node000014"><a xlink:title=" ">
<path fill="none" stroke="#63b8ff" d="M534.37,-285.99C579.95,-275.62 657.06,-258.07 706.73,-246.76"/>
<polygon fill="#63b8ff" stroke="#63b8ff" points="707.61,-250.15 716.58,-244.52 706.06,-243.32 707.61,-250.15"/>
</a>
</g>
</g>
<!-- Node18 -->
<g id="Node000018" class="node">
<title>Node18</title>
<g id="a_Node000018"><a xlink:href="_i_watched_event_loop_8h.html" target="_top" xlink:title=" ">
<polygon fill="white" stroke="#666666" points="486,-250 340,-250 340,-220 486,-220 486,-250"/>
<text text-anchor="start" x="348" y="-238" font-family="Helvetica,sans-Serif" font-size="10.00">Kit/System/IWatchedEvent</text>
<text text-anchor="middle" x="413" y="-227" font-family="Helvetica,sans-Serif" font-size="10.00">Loop.h</text>
</a>
</g>
</g>
<!-- Node1&#45;&gt;Node18 -->
<g id="edge23_Node000001_Node000018" class="edge">
<title>Node1&#45;&gt;Node18</title>
<g id="a_edge23_Node000001_Node000018"><a xlink:title=" ">
<path fill="none" stroke="#63b8ff" d="M484.61,-285.87C473.31,-278 456.21,-266.09 441.55,-255.89"/>
<polygon fill="#63b8ff" stroke="#63b8ff" points="443.47,-252.96 433.27,-250.11 439.47,-258.7 443.47,-252.96"/>
</a>
</g>
</g>
<!-- Node4 -->
<g id="Node000004" class="node">
<title>Node4</title>
<g id="a_Node000004"><a xlink:href="_list_item_8h.html" target="_top" xlink:title=" ">
<polygon fill="white" stroke="#666666" points="435,-74 303,-74 303,-55 435,-55 435,-74"/>
<text text-anchor="middle" x="369" y="-62" font-family="Helvetica,sans-Serif" font-size="10.00">Kit/Container/ListItem.h</text>
</a>
</g>
</g>
<!-- Node3&#45;&gt;Node4 -->
<g id="edge3_Node000003_Node000004" class="edge">
<title>Node3&#45;&gt;Node4</title>
<g id="a_edge3_Node000003_Node000004"><a xlink:title=" ">
<path fill="none" stroke="#63b8ff" d="M98.43,-225.48C127.32,-217.01 170.87,-202.6 206,-184 263.16,-153.73 322.77,-105.38 351.48,-80.85"/>
<polygon fill="#63b8ff" stroke="#63b8ff" points="354.08,-83.23 359.36,-74.05 349.51,-77.93 354.08,-83.23"/>
</a>
</g>
</g>
<!-- Node6 -->
<g id="Node000006" class="node">
<title>Node6</title>
<g id="a_Node000006"><a xlink:href="_s_list_8h.html" target="_top" xlink:title=" ">
<polygon fill="white" stroke="#666666" points="197,-184 81,-184 81,-165 197,-165 197,-184"/>
<text text-anchor="middle" x="139" y="-172" font-family="Helvetica,sans-Serif" font-size="10.00">Kit/Container/SList.h</text>
</a>
</g>
</g>
<!-- Node3&#45;&gt;Node6 -->
<g id="edge5_Node000003_Node000006" class="edge">
<title>Node3&#45;&gt;Node6</title>
<g id="a_edge5_Node000003_Node000006"><a xlink:title=" ">
<path fill="none" stroke="#63b8ff" d="M77.62,-225.37C88.9,-216.21 106.92,-201.56 120.53,-190.51"/>
<polygon fill="#63b8ff" stroke="#63b8ff" points="122.78,-193.19 128.33,-184.17 118.36,-187.76 122.78,-193.19"/>
</a>
</g>
</g>
<!-- Node8 -->
<g id="Node000008" class="node">
<title>Node8</title>
<g id="a_Node000008"><a xlink:title=" ">
<polygon fill="#e0e0e0" stroke="#999999" points="508.5,-129 455.5,-129 455.5,-110 508.5,-110 508.5,-129"/>
<text text-anchor="middle" x="482" y="-117" font-family="Helvetica,sans-Serif" font-size="10.00">stdint.h</text>
</a>
</g>
</g>
<!-- Node3&#45;&gt;Node8 -->
<g id="edge8_Node000003_Node000008" class="edge">
<title>Node3&#45;&gt;Node8</title>
<g id="a_edge8_Node000003_Node000008"><a xlink:title=" ">
<path fill="none" stroke="#63b8ff" d="M102.51,-225.46C142.22,-215.8 208.39,-199.43 265,-184 328.81,-166.61 402.63,-144.61 445.64,-131.59"/>
<polygon fill="#63b8ff" stroke="#63b8ff" points="446.81,-134.89 455.37,-128.64 444.78,-128.19 446.81,-134.89"/>
</a>
</g>
</g>
<!-- Node5 -->
<g id="Node000005" class="node">
<title>Node5</title>
<g id="a_Node000005"><a xlink:href="_item_8h.html" target="_top" xlink:title=" ">
<polygon fill="white" stroke="#666666" points="426.5,-19 311.5,-19 311.5,0 426.5,0 426.5,-19"/>
<text text-anchor="middle" x="369" y="-7" font-family="Helvetica,sans-Serif" font-size="10.00">Kit/Container/Item.h</text>
</a>
</g>
</g>
<!-- Node4&#45;&gt;Node5 -->
<g id="edge4_Node000004_Node000005" class="edge">
<title>Node4&#45;&gt;Node5</title>
<g id="a_edge4_Node000004_Node000005"><a xlink:title=" ">
<path fill="none" stroke="#63b8ff" d="M369,-54.75C369,-47.8 369,-37.85 369,-29.13"/>
<polygon fill="#63b8ff" stroke="#63b8ff" points="372.5,-29.09 369,-19.09 365.5,-29.09 372.5,-29.09"/>
</a>
</g>
</g>
<!-- Node7 -->
<g id="Node000007" class="node">
<title>Node7</title>
<g id="a_Node000007"><a xlink:href="_s_list_base_8h.html" target="_top" xlink:title=" ">
<polygon fill="white" stroke="#666666" points="214,-129 74,-129 74,-110 214,-110 214,-129"/>
<text text-anchor="middle" x="144" y="-117" font-family="Helvetica,sans-Serif" font-size="10.00">Kit/Container/SListBase.h</text>
</a>
</g>
</g>
<!-- Node6&#45;&gt;Node7 -->
<g id="edge6_Node000006_Node000007" class="edge">
<title>Node6&#45;&gt;Node7</title>
<g id="a_edge6_Node000006_Node000007"><a xlink:title=" ">
<path fill="none" stroke="#63b8ff" d="M139.83,-164.75C140.48,-157.8 141.42,-147.85 142.24,-139.13"/>
<polygon fill="#63b8ff" stroke="#63b8ff" points="145.73,-139.37 143.19,-129.09 138.77,-138.72 145.73,-139.37"/>
</a>
</g>
</g>
<!-- Node7&#45;&gt;Node4 -->
<g id="edge7_Node000007_Node000004" class="edge">
<title>Node7&#45;&gt;Node4</title>
<g id="a_edge7_Node000007_Node000004"><a xlink:title=" ">
<path fill="none" stroke="#63b8ff" d="M180.15,-109.98C218.91,-100.86 280.55,-86.33 322.8,-76.38"/>
<polygon fill="#63b8ff" stroke="#63b8ff" points="323.64,-79.78 332.57,-74.08 322.03,-72.97 323.64,-79.78"/>
</a>
</g>
</g>
<!-- Node11&#45;&gt;Node8 -->
<g id="edge12_Node000011_Node000008" class="edge">
<title>Node11&#45;&gt;Node8</title>
<g id="a_edge12_Node000011_Node000008"><a xlink:title=" ">
<path fill="none" stroke="#63b8ff" d="M559.6,-225.5C541.3,-217.46 516.09,-203.67 501,-184 491.04,-171.02 486.29,-152.87 484.02,-139.29"/>
<polygon fill="#63b8ff" stroke="#63b8ff" points="487.46,-138.62 482.65,-129.18 480.53,-139.56 487.46,-138.62"/>
</a>
</g>
</g>
<!-- Node12&#45;&gt;Node10 -->
<g id="edge15_Node000012_Node000010" class="edge">
<title>Node12&#45;&gt;Node10</title>
<g id="a_edge15_Node000012_Node000010"><a xlink:title=" ">
<path fill="none" stroke="#63b8ff" d="M940.69,-225.37C925,-215.91 899.6,-200.59 881.09,-189.42"/>
<polygon fill="#63b8ff" stroke="#63b8ff" points="882.74,-186.33 872.37,-184.17 879.13,-192.33 882.74,-186.33"/>
</a>
</g>
</g>
<!-- Node13 -->
<g id="Node000013" class="node">
<title>Node13</title>
<g id="a_Node000013"><a xlink:title=" ">
<polygon fill="#e0e0e0" stroke="#999999" points="1004.5,-184 939.5,-184 939.5,-165 1004.5,-165 1004.5,-184"/>
<text text-anchor="middle" x="972" y="-172" font-family="Helvetica,sans-Serif" font-size="10.00">kit_map.h</text>
</a>
</g>
</g>
<!-- Node12&#45;&gt;Node13 -->
<g id="edge14_Node000012_Node000013" class="edge">
<title>Node12&#45;&gt;Node13</title>
<g id="a_edge14_Node000012_Node000013"><a xlink:title=" ">
<path fill="none" stroke="#63b8ff" d="M957.51,-225.37C959.89,-217.16 963.56,-204.54 966.61,-194.05"/>
<polygon fill="#63b8ff" stroke="#63b8ff" points="970.05,-194.75 969.48,-184.17 963.33,-192.79 970.05,-194.75"/>
</a>
</g>
</g>
<!-- Node15 -->
<g id="Node000015" class="node">
<title>Node15</title>
<g id="a_Node000015"><a xlink:href="_i_counter_8h.html" target="_top" xlink:title=" ">
<polygon fill="white" stroke="#666666" points="632,-184 510,-184 510,-165 632,-165 632,-184"/>
<text text-anchor="middle" x="571" y="-172" font-family="Helvetica,sans-Serif" font-size="10.00">Kit/System/ICounter.h</text>
</a>
</g>
</g>
<!-- Node14&#45;&gt;Node15 -->
<g id="edge17_Node000014_Node000015" class="edge">
<title>Node14&#45;&gt;Node15</title>
<g id="a_edge17_Node000014_Node000015"><a xlink:title=" ">
<path fill="none" stroke="#63b8ff" d="M727.39,-225.49C695.81,-215.4 642.99,-198.51 607.58,-187.19"/>
<polygon fill="#63b8ff" stroke="#63b8ff" points="608.23,-183.73 597.64,-184.02 606.1,-190.4 608.23,-183.73"/>
</a>
</g>
</g>
<!-- Node16 -->
<g id="Node000016" class="node">
<title>Node16</title>
<g id="a_Node000016"><a xlink:href="_d_list_8h.html" target="_top" xlink:title=" ">
<polygon fill="white" stroke="#666666" points="773.5,-184 656.5,-184 656.5,-165 773.5,-165 773.5,-184"/>
<text text-anchor="middle" x="715" y="-172" font-family="Helvetica,sans-Serif" font-size="10.00">Kit/Container/DList.h</text>
</a>
</g>
</g>
<!-- Node14&#45;&gt;Node16 -->
<g id="edge20_Node000014_Node000016" class="edge">
<title>Node14&#45;&gt;Node16</title>
<g id="a_edge20_Node000014_Node000016"><a xlink:title=" ">
<path fill="none" stroke="#63b8ff" d="M748.25,-225.37C742.54,-216.81 733.65,-203.47 726.49,-192.74"/>
<polygon fill="#63b8ff" stroke="#63b8ff" points="729.24,-190.55 720.78,-184.17 723.41,-194.43 729.24,-190.55"/>
</a>
</g>
</g>
<!-- Node15&#45;&gt;Node4 -->
<g id="edge18_Node000015_Node000004" class="edge">
<title>Node15&#45;&gt;Node4</title>
<g id="a_edge18_Node000015_Node000004"><a xlink:title=" ">
<path fill="none" stroke="#63b8ff" d="M565.88,-164.71C557.43,-151 539.29,-124.57 517,-110 491.9,-93.59 460.5,-83.02 433.1,-76.33"/>
<polygon fill="#63b8ff" stroke="#63b8ff" points="433.73,-72.88 423.2,-74.04 432.15,-79.7 433.73,-72.88"/>
</a>
</g>
</g>
<!-- Node15&#45;&gt;Node8 -->
<g id="edge19_Node000015_Node000008" class="edge">
<title>Node15&#45;&gt;Node8</title>
<g id="a_edge19_Node000015_Node000008"><a xlink:title=" ">
<path fill="none" stroke="#63b8ff" d="M556.7,-164.98C542.9,-156.77 521.76,-144.18 505.49,-134.49"/>
<polygon fill="#63b8ff" stroke="#63b8ff" points="506.94,-131.28 496.56,-129.17 503.36,-137.29 506.94,-131.28"/>
</a>
</g>
</g>
<!-- Node17 -->
<g id="Node000017" class="node">
<title>Node17</title>
<g id="a_Node000017"><a xlink:href="_d_list_base_8h.html" target="_top" xlink:title=" ">
<polygon fill="white" stroke="#666666" points="754.5,-129 613.5,-129 613.5,-110 754.5,-110 754.5,-129"/>
<text text-anchor="middle" x="684" y="-117" font-family="Helvetica,sans-Serif" font-size="10.00">Kit/Container/DListBase.h</text>
</a>
</g>
</g>
<!-- Node16&#45;&gt;Node17 -->
<g id="edge21_Node000016_Node000017" class="edge">
<title>Node16&#45;&gt;Node17</title>
<g id="a_edge21_Node000016_Node000017"><a xlink:title=" ">
<path fill="none" stroke="#63b8ff" d="M709.88,-164.75C705.64,-157.49 699.47,-146.95 694.22,-137.98"/>
<polygon fill="#63b8ff" stroke="#63b8ff" points="697.09,-135.95 689.02,-129.09 691.05,-139.49 697.09,-135.95"/>
</a>
</g>
</g>
<!-- Node17&#45;&gt;Node4 -->
<g id="edge22_Node000017_Node000004" class="edge">
<title>Node17&#45;&gt;Node4</title>
<g id="a_edge22_Node000017_Node000004"><a xlink:title=" ">
<path fill="none" stroke="#63b8ff" d="M633.39,-109.98C577.9,-100.65 488.91,-85.67 429.71,-75.71"/>
<polygon fill="#63b8ff" stroke="#63b8ff" points="430.19,-72.25 419.75,-74.04 429.03,-79.15 430.19,-72.25"/>
</a>
</g>
</g>
<!-- Node18&#45;&gt;Node2 -->
<g id="edge24_Node000018_Node000002" class="edge">
<title>Node18&#45;&gt;Node2</title>
<g id="a_edge24_Node000018_Node000002"><a xlink:title=" ">
<path fill="none" stroke="#63b8ff" d="M411.79,-219.84C411.14,-212.21 410.33,-202.7 409.62,-194.45"/>
<polygon fill="#63b8ff" stroke="#63b8ff" points="413.09,-193.93 408.75,-184.27 406.11,-194.53 413.09,-193.93"/>
</a>
</g>
</g>
</g>
</svg>
