<?xml version="1.0" encoding="UTF-8" standalone="no"?>
<!DOCTYPE svg PUBLIC "-//W3C//DTD SVG 1.1//EN"
 "http://www.w3.org/Graphics/SVG/1.1/DTD/svg11.dtd">
<!-- Generated by graphviz version 2.43.0 (0)
 -->
<!-- Title: Kit/System/EventLoop.h Pages: 1 -->
<svg width="847pt" height="302pt"
 viewBox="0.00 0.00 847.00 302.00" xmlns="http://www.w3.org/2000/svg" xmlns:xlink="http://www.w3.org/1999/xlink">
<g id="graph0" class="graph" transform="scale(1 1) rotate(0) translate(4 298)">
<title>Kit/System/EventLoop.h</title>
<!-- Node1 -->
<g id="Node000001" class="node">
<title>Node1</title>
<g id="a_Node000001"><a xlink:title=" ">
<polygon fill="#999999" stroke="#666666" points="570,-294 437,-294 437,-275 570,-275 570,-294"/>
<text text-anchor="middle" x="503.5" y="-282" font-family="Helvetica,sans-Serif" font-size="10.00">Kit/System/EventLoop.h</text>
</a>
</g>
</g>
<!-- Node2 -->
<g id="Node000002" class="node">
<title>Node2</title>
<g id="a_Node000002"><a xlink:href="_i_event_flag_8h.html" target="_top" xlink:title=" ">
<polygon fill="white" stroke="#666666" points="495.5,-239 361.5,-239 361.5,-220 495.5,-220 495.5,-239"/>
<text text-anchor="middle" x="428.5" y="-227" font-family="Helvetica,sans-Serif" font-size="10.00">Kit/System/IEventFlag.h</text>
</a>
</g>
</g>
<!-- Node1&#45;&gt;Node2 -->
<g id="edge1_Node000001_Node000002" class="edge">
<title>Node1&#45;&gt;Node2</title>
<g id="a_edge1_Node000001_Node000002"><a xlink:title=" ">
<path fill="none" stroke="#63b8ff" d="M491.45,-274.98C480.04,-266.92 462.67,-254.65 449.07,-245.03"/>
<polygon fill="#63b8ff" stroke="#63b8ff" points="450.96,-242.08 440.77,-239.17 446.92,-247.8 450.96,-242.08"/>
</a>
</g>
</g>
<!-- Node8 -->
<g id="Node000008" class="node">
<title>Node8</title>
<g id="a_Node000008"><a xlink:href="_i_runnable_8h.html" target="_top" xlink:title=" ">
<polygon fill="white" stroke="#666666" points="645,-239 514,-239 514,-220 645,-220 645,-239"/>
<text text-anchor="middle" x="579.5" y="-227" font-family="Helvetica,sans-Serif" font-size="10.00">Kit/System/IRunnable.h</text>
</a>
</g>
</g>
<!-- Node1&#45;&gt;Node8 -->
<g id="edge8_Node000001_Node000008" class="edge">
<title>Node1&#45;&gt;Node8</title>
<g id="a_edge8_Node000001_Node000008"><a xlink:title=" ">
<path fill="none" stroke="#63b8ff" d="M515.71,-274.98C527.28,-266.92 544.88,-254.65 558.66,-245.03"/>
<polygon fill="#63b8ff" stroke="#63b8ff" points="560.87,-247.76 567.07,-239.17 556.86,-242.02 560.87,-247.76"/>
</a>
</g>
</g>
<!-- Node9 -->
<g id="Node000009" class="node">
<title>Node9</title>
<g id="a_Node000009"><a xlink:href="_i_signable_8h.html" target="_top" xlink:title=" ">
<polygon fill="white" stroke="#666666" points="737,-184 610,-184 610,-165 737,-165 737,-184"/>
<text text-anchor="middle" x="673.5" y="-172" font-family="Helvetica,sans-Serif" font-size="10.00">Kit/System/ISignable.h</text>
</a>
</g>
</g>
<!-- Node1&#45;&gt;Node9 -->
<g id="edge9_Node000001_Node000009" class="edge">
<title>Node1&#45;&gt;Node9</title>
<g id="a_edge9_Node000001_Node000009"><a xlink:title=" ">
<path fill="none" stroke="#63b8ff" d="M570.38,-277.66C599.26,-271.91 631.42,-260.71 653.5,-239 665.46,-227.23 670.29,-208.39 672.23,-194.28"/>
<polygon fill="#63b8ff" stroke="#63b8ff" points="675.72,-194.51 673.24,-184.2 668.76,-193.8 675.72,-194.51"/>
</a>
</g>
</g>
<!-- Node10 -->
<g id="Node000010" class="node">
<title>Node10</title>
<g id="a_Node000010"><a xlink:href="_i_event_manager_8h.html" target="_top" xlink:title=" ">
<polygon fill="white" stroke="#666666" points="343,-239 188,-239 188,-220 343,-220 343,-239"/>
<text text-anchor="middle" x="265.5" y="-227" font-family="Helvetica,sans-Serif" font-size="10.00">Kit/System/IEventManager.h</text>
</a>
</g>
</g>
<!-- Node1&#45;&gt;Node10 -->
<g id="edge10_Node000001_Node000010" class="edge">
<title>Node1&#45;&gt;Node10</title>
<g id="a_edge10_Node000001_Node000010"><a xlink:title=" ">
<path fill="none" stroke="#63b8ff" d="M465.26,-274.98C424.09,-265.82 358.51,-251.21 313.8,-241.26"/>
<polygon fill="#63b8ff" stroke="#63b8ff" points="314.56,-237.84 304.04,-239.08 313.04,-244.67 314.56,-237.84"/>
</a>
</g>
</g>
<!-- Node11 -->
<g id="Node000011" class="node">
<title>Node11</title>
<g id="a_Node000011"><a xlink:href="_semaphore_8h.html" target="_top" xlink:title=" ">
<polygon fill="white" stroke="#666666" points="839,-239 702,-239 702,-220 839,-220 839,-239"/>
<text text-anchor="middle" x="770.5" y="-227" font-family="Helvetica,sans-Serif" font-size="10.00">Kit/System/Semaphore.h</text>
</a>
</g>
</g>
<!-- Node1&#45;&gt;Node11 -->
<g id="edge12_Node000001_Node000011" class="edge">
<title>Node1&#45;&gt;Node11</title>
<g id="a_edge12_Node000001_Node000011"><a xlink:title=" ">
<path fill="none" stroke="#63b8ff" d="M546.4,-274.98C592.87,-265.76 667.09,-251.03 717.26,-241.07"/>
<polygon fill="#63b8ff" stroke="#63b8ff" points="718.14,-244.46 727.27,-239.08 716.78,-237.6 718.14,-244.46"/>
</a>
</g>
</g>
<!-- Node13 -->
<g id="Node000013" class="node">
<title>Node13</title>
<g id="a_Node000013"><a xlink:href="_timer_manager_8h.html" target="_top" xlink:title=" ">
<polygon fill="white" stroke="#666666" points="169.5,-239 17.5,-239 17.5,-220 169.5,-220 169.5,-239"/>
<text text-anchor="middle" x="93.5" y="-227" font-family="Helvetica,sans-Serif" font-size="10.00">Kit/System/TimerManager.h</text>
</a>
</g>
</g>
<!-- Node1&#45;&gt;Node13 -->
<g id="edge15_Node000001_Node000013" class="edge">
<title>Node1&#45;&gt;Node13</title>
<g id="a_edge15_Node000001_Node000013"><a xlink:title=" ">
<path fill="none" stroke="#63b8ff" d="M437.63,-274.98C364.51,-265.53 246.69,-250.3 169.67,-240.35"/>
<polygon fill="#63b8ff" stroke="#63b8ff" points="169.92,-236.85 159.55,-239.04 169.02,-243.79 169.92,-236.85"/>
</a>
</g>
</g>
<!-- Node3 -->
<g id="Node000003" class="node">
<title>Node3</title>
<g id="a_Node000003"><a xlink:href="_list_item_8h.html" target="_top" xlink:title=" ">
<polygon fill="white" stroke="#666666" points="377.5,-74 245.5,-74 245.5,-55 377.5,-55 377.5,-74"/>
<text text-anchor="middle" x="311.5" y="-62" font-family="Helvetica,sans-Serif" font-size="10.00">Kit/Container/ListItem.h</text>
</a>
</g>
</g>
<!-- Node2&#45;&gt;Node3 -->
<g id="edge2_Node000002_Node000003" class="edge">
<title>Node2&#45;&gt;Node3</title>
<g id="a_edge2_Node000002_Node000003"><a xlink:title=" ">
<path fill="none" stroke="#63b8ff" d="M442.87,-219.96C454.37,-212.21 469.68,-199.62 476.5,-184 489.66,-153.86 496.5,-136.11 476.5,-110 464.61,-94.48 421.21,-83.14 381.91,-75.79"/>
<polygon fill="#63b8ff" stroke="#63b8ff" points="382.49,-72.34 372.02,-74.01 381.24,-79.23 382.49,-72.34"/>
</a>
</g>
</g>
<!-- Node5 -->
<g id="Node000005" class="node">
<title>Node5</title>
<g id="a_Node000005"><a xlink:href="_s_list_8h.html" target="_top" xlink:title=" ">
<polygon fill="white" stroke="#666666" points="467.5,-184 351.5,-184 351.5,-165 467.5,-165 467.5,-184"/>
<text text-anchor="middle" x="409.5" y="-172" font-family="Helvetica,sans-Serif" font-size="10.00">Kit/Container/SList.h</text>
</a>
</g>
</g>
<!-- Node2&#45;&gt;Node5 -->
<g id="edge4_Node000002_Node000005" class="edge">
<title>Node2&#45;&gt;Node5</title>
<g id="a_edge4_Node000002_Node000005"><a xlink:title=" ">
<path fill="none" stroke="#63b8ff" d="M425.36,-219.75C422.82,-212.65 419.14,-202.4 415.97,-193.56"/>
<polygon fill="#63b8ff" stroke="#63b8ff" points="419.25,-192.32 412.58,-184.09 412.66,-194.68 419.25,-192.32"/>
</a>
</g>
</g>
<!-- Node7 -->
<g id="Node000007" class="node">
<title>Node7</title>
<g id="a_Node000007"><a xlink:title=" ">
<polygon fill="#e0e0e0" stroke="#999999" points="309,-129 256,-129 256,-110 309,-110 309,-129"/>
<text text-anchor="middle" x="282.5" y="-117" font-family="Helvetica,sans-Serif" font-size="10.00">stdint.h</text>
</a>
</g>
</g>
<!-- Node2&#45;&gt;Node7 -->
<g id="edge7_Node000002_Node000007" class="edge">
<title>Node2&#45;&gt;Node7</title>
<g id="a_edge7_Node000002_Node000007"><a xlink:title=" ">
<path fill="none" stroke="#63b8ff" d="M407.2,-219.89C389.05,-212.01 362.78,-199.27 342.5,-184 324.41,-170.38 307.02,-151.05 295.66,-137.3"/>
<polygon fill="#63b8ff" stroke="#63b8ff" points="298.12,-134.77 289.12,-129.19 292.67,-139.17 298.12,-134.77"/>
</a>
</g>
</g>
<!-- Node4 -->
<g id="Node000004" class="node">
<title>Node4</title>
<g id="a_Node000004"><a xlink:href="_item_8h.html" target="_top" xlink:title=" ">
<polygon fill="white" stroke="#666666" points="369,-19 254,-19 254,0 369,0 369,-19"/>
<text text-anchor="middle" x="311.5" y="-7" font-family="Helvetica,sans-Serif" font-size="10.00">Kit/Container/Item.h</text>
</a>
</g>
</g>
<!-- Node3&#45;&gt;Node4 -->
<g id="edge3_Node000003_Node000004" class="edge">
<title>Node3&#45;&gt;Node4</title>
<g id="a_edge3_Node000003_Node000004"><a xlink:title=" ">
<path fill="none" stroke="#63b8ff" d="M311.5,-54.75C311.5,-47.8 311.5,-37.85 311.5,-29.13"/>
<polygon fill="#63b8ff" stroke="#63b8ff" points="315,-29.09 311.5,-19.09 308,-29.09 315,-29.09"/>
</a>
</g>
</g>
<!-- Node6 -->
<g id="Node000006" class="node">
<title>Node6</title>
<g id="a_Node000006"><a xlink:href="_s_list_base_8h.html" target="_top" xlink:title=" ">
<polygon fill="white" stroke="#666666" points="467.5,-129 327.5,-129 327.5,-110 467.5,-110 467.5,-129"/>
<text text-anchor="middle" x="397.5" y="-117" font-family="Helvetica,sans-Serif" font-size="10.00">Kit/Container/SListBase.h</text>
</a>
</g>
</g>
<!-- Node5&#45;&gt;Node6 -->
<g id="edge5_Node000005_Node000006" class="edge">
<title>Node5&#45;&gt;Node6</title>
<g id="a_edge5_Node000005_Node000006"><a xlink:title=" ">
<path fill="none" stroke="#63b8ff" d="M407.52,-164.75C405.93,-157.72 403.64,-147.62 401.65,-138.84"/>
<polygon fill="#63b8ff" stroke="#63b8ff" points="405.07,-138.07 399.44,-129.09 398.24,-139.62 405.07,-138.07"/>
</a>
</g>
</g>
<!-- Node6&#45;&gt;Node3 -->
<g id="edge6_Node000006_Node000003" class="edge">
<title>Node6&#45;&gt;Node3</title>
<g id="a_edge6_Node000006_Node000003"><a xlink:title=" ">
<path fill="none" stroke="#63b8ff" d="M383.68,-109.98C370.35,-101.77 349.92,-89.18 334.19,-79.49"/>
<polygon fill="#63b8ff" stroke="#63b8ff" points="335.92,-76.44 325.57,-74.17 332.25,-82.4 335.92,-76.44"/>
</a>
</g>
</g>
<!-- Node10&#45;&gt;Node7 -->
<g id="edge11_Node000010_Node000007" class="edge">
<title>Node10&#45;&gt;Node7</title>
<g id="a_edge11_Node000010_Node000007"><a xlink:title=" ">
<path fill="none" stroke="#63b8ff" d="M266.89,-219.66C269.64,-202.17 275.84,-162.8 279.54,-139.27"/>
<polygon fill="#63b8ff" stroke="#63b8ff" points="283.04,-139.58 281.14,-129.16 276.12,-138.49 283.04,-139.58"/>
</a>
</g>
</g>
<!-- Node11&#45;&gt;Node9 -->
<g id="edge14_Node000011_Node000009" class="edge">
<title>Node11&#45;&gt;Node9</title>
<g id="a_edge14_Node000011_Node000009"><a xlink:title=" ">
<path fill="none" stroke="#63b8ff" d="M754.92,-219.98C739.73,-211.69 716.4,-198.94 698.6,-189.22"/>
<polygon fill="#63b8ff" stroke="#63b8ff" points="699.82,-185.89 689.37,-184.17 696.47,-192.04 699.82,-185.89"/>
</a>
</g>
</g>
<!-- Node12 -->
<g id="Node000012" class="node">
<title>Node12</title>
<g id="a_Node000012"><a xlink:title=" ">
<polygon fill="#e0e0e0" stroke="#999999" points="820,-184 755,-184 755,-165 820,-165 820,-184"/>
<text text-anchor="middle" x="787.5" y="-172" font-family="Helvetica,sans-Serif" font-size="10.00">kit_map.h</text>
</a>
</g>
</g>
<!-- Node11&#45;&gt;Node12 -->
<g id="edge13_Node000011_Node000012" class="edge">
<title>Node11&#45;&gt;Node12</title>
<g id="a_edge13_Node000011_Node000012"><a xlink:title=" ">
<path fill="none" stroke="#63b8ff" d="M773.31,-219.75C775.56,-212.72 778.8,-202.62 781.62,-193.84"/>
<polygon fill="#63b8ff" stroke="#63b8ff" points="785.02,-194.68 784.75,-184.09 778.36,-192.54 785.02,-194.68"/>
</a>
</g>
</g>
<!-- Node14 -->
<g id="Node000014" class="node">
<title>Node14</title>
<g id="a_Node000014"><a xlink:href="_i_counter_8h.html" target="_top" xlink:title=" ">
<polygon fill="white" stroke="#666666" points="257.5,-184 135.5,-184 135.5,-165 257.5,-165 257.5,-184"/>
<text text-anchor="middle" x="196.5" y="-172" font-family="Helvetica,sans-Serif" font-size="10.00">Kit/System/ICounter.h</text>
</a>
</g>
</g>
<!-- Node13&#45;&gt;Node14 -->
<g id="edge16_Node000013_Node000014" class="edge">
<title>Node13&#45;&gt;Node14</title>
<g id="a_edge16_Node000013_Node000014"><a xlink:title=" ">
<path fill="none" stroke="#63b8ff" d="M110.05,-219.98C126.39,-211.57 151.63,-198.59 170.63,-188.81"/>
<polygon fill="#63b8ff" stroke="#63b8ff" points="172.36,-191.86 179.65,-184.17 169.16,-185.63 172.36,-191.86"/>
</a>
</g>
</g>
<!-- Node15 -->
<g id="Node000015" class="node">
<title>Node15</title>
<g id="a_Node000015"><a xlink:href="_d_list_8h.html" target="_top" xlink:title=" ">
<polygon fill="white" stroke="#666666" points="117,-184 0,-184 0,-165 117,-165 117,-184"/>
<text text-anchor="middle" x="58.5" y="-172" font-family="Helvetica,sans-Serif" font-size="10.00">Kit/Container/DList.h</text>
</a>
</g>
</g>
<!-- Node13&#45;&gt;Node15 -->
<g id="edge19_Node000013_Node000015" class="edge">
<title>Node13&#45;&gt;Node15</title>
<g id="a_edge19_Node000013_Node000015"><a xlink:title=" ">
<path fill="none" stroke="#63b8ff" d="M87.72,-219.75C82.88,-212.42 75.82,-201.73 69.86,-192.7"/>
<polygon fill="#63b8ff" stroke="#63b8ff" points="72.6,-190.5 64.17,-184.09 66.76,-194.36 72.6,-190.5"/>
</a>
</g>
</g>
<!-- Node14&#45;&gt;Node3 -->
<g id="edge17_Node000014_Node000003" class="edge">
<title>Node14&#45;&gt;Node3</title>
<g id="a_edge17_Node000014_Node000003"><a xlink:title=" ">
<path fill="none" stroke="#63b8ff" d="M202.23,-164.6C210.83,-151.64 228.06,-127.25 246.5,-110 258.96,-98.35 274.7,-87.49 287.58,-79.41"/>
<polygon fill="#63b8ff" stroke="#63b8ff" points="289.65,-82.25 296.36,-74.05 286,-76.27 289.65,-82.25"/>
</a>
</g>
</g>
<!-- Node14&#45;&gt;Node7 -->
<g id="edge18_Node000014_Node000007" class="edge">
<title>Node14&#45;&gt;Node7</title>
<g id="a_edge18_Node000014_Node000007"><a xlink:title=" ">
<path fill="none" stroke="#63b8ff" d="M210.32,-164.98C223.65,-156.77 244.08,-144.18 259.81,-134.49"/>
<polygon fill="#63b8ff" stroke="#63b8ff" points="261.75,-137.4 268.43,-129.17 258.08,-131.44 261.75,-137.4"/>
</a>
</g>
</g>
<!-- Node16 -->
<g id="Node000016" class="node">
<title>Node16</title>
<g id="a_Node000016"><a xlink:href="_d_list_base_8h.html" target="_top" xlink:title=" ">
<polygon fill="white" stroke="#666666" points="164,-129 23,-129 23,-110 164,-110 164,-129"/>
<text text-anchor="middle" x="93.5" y="-117" font-family="Helvetica,sans-Serif" font-size="10.00">Kit/Container/DListBase.h</text>
</a>
</g>
</g>
<!-- Node15&#45;&gt;Node16 -->
<g id="edge20_Node000015_Node000016" class="edge">
<title>Node15&#45;&gt;Node16</title>
<g id="a_edge20_Node000015_Node000016"><a xlink:title=" ">
<path fill="none" stroke="#63b8ff" d="M64.28,-164.75C69.12,-157.42 76.18,-146.73 82.14,-137.7"/>
<polygon fill="#63b8ff" stroke="#63b8ff" points="85.24,-139.36 87.83,-129.09 79.4,-135.5 85.24,-139.36"/>
</a>
</g>
</g>
<!-- Node16&#45;&gt;Node3 -->
<g id="edge21_Node000016_Node000003" class="edge">
<title>Node16&#45;&gt;Node3</title>
<g id="a_edge21_Node000016_Node000003"><a xlink:title=" ">
<path fill="none" stroke="#63b8ff" d="M128.53,-109.98C166,-100.87 225.55,-86.4 266.48,-76.45"/>
<polygon fill="#63b8ff" stroke="#63b8ff" points="267.31,-79.85 276.2,-74.08 265.66,-73.04 267.31,-79.85"/>
</a>
</g>
</g>
</g>
</svg>
