<?xml version="1.0" encoding="UTF-8" standalone="no"?>
<!DOCTYPE svg PUBLIC "-//W3C//DTD SVG 1.1//EN"
 "http://www.w3.org/Graphics/SVG/1.1/DTD/svg11.dtd">
<!-- Generated by graphviz version 2.43.0 (0)
 -->
<!-- Title: Kit/System/EventLoop.h Pages: 1 -->
<svg width="878pt" height="302pt"
 viewBox="0.00 0.00 878.00 302.00" xmlns="http://www.w3.org/2000/svg" xmlns:xlink="http://www.w3.org/1999/xlink">
<g id="graph0" class="graph" transform="scale(1 1) rotate(0) translate(4 298)">
<title>Kit/System/EventLoop.h</title>
<!-- Node1 -->
<g id="Node000001" class="node">
<title>Node1</title>
<g id="a_Node000001"><a xlink:title=" ">
<polygon fill="#999999" stroke="#666666" points="516.5,-294 383.5,-294 383.5,-275 516.5,-275 516.5,-294"/>
<text text-anchor="middle" x="450" y="-282" font-family="Helvetica,sans-Serif" font-size="10.00">Kit/System/EventLoop.h</text>
</a>
</g>
</g>
<!-- Node2 -->
<g id="Node000002" class="node">
<title>Node2</title>
<g id="a_Node000002"><a xlink:href="_i_event_flag_8h.html" target="_top" xlink:title=" ">
<polygon fill="white" stroke="#666666" points="821,-239 687,-239 687,-220 821,-220 821,-239"/>
<text text-anchor="middle" x="754" y="-227" font-family="Helvetica,sans-Serif" font-size="10.00">Kit/System/IEventFlag.h</text>
</a>
</g>
</g>
<!-- Node1&#45;&gt;Node2 -->
<g id="edge1_Node000001_Node000002" class="edge">
<title>Node1&#45;&gt;Node2</title>
<g id="a_edge1_Node000001_Node000002"><a xlink:title=" ">
<path fill="none" stroke="#63b8ff" d="M498.84,-274.98C552.28,-265.67 637.92,-250.74 695.06,-240.78"/>
<polygon fill="#63b8ff" stroke="#63b8ff" points="695.78,-244.2 705.03,-239.04 694.57,-237.31 695.78,-244.2"/>
</a>
</g>
</g>
<!-- Node8 -->
<g id="Node000008" class="node">
<title>Node8</title>
<g id="a_Node000008"><a xlink:href="_i_runnable_8h.html" target="_top" xlink:title=" ">
<polygon fill="white" stroke="#666666" points="301.5,-239 170.5,-239 170.5,-220 301.5,-220 301.5,-239"/>
<text text-anchor="middle" x="236" y="-227" font-family="Helvetica,sans-Serif" font-size="10.00">Kit/System/IRunnable.h</text>
</a>
</g>
</g>
<!-- Node1&#45;&gt;Node8 -->
<g id="edge8_Node000001_Node000008" class="edge">
<title>Node1&#45;&gt;Node8</title>
<g id="a_edge8_Node000001_Node000008"><a xlink:title=" ">
<path fill="none" stroke="#63b8ff" d="M415.62,-274.98C378.91,-265.89 320.62,-251.46 280.45,-241.51"/>
<polygon fill="#63b8ff" stroke="#63b8ff" points="281.2,-238.09 270.65,-239.08 279.52,-244.88 281.2,-238.09"/>
</a>
</g>
</g>
<!-- Node9 -->
<g id="Node000009" class="node">
<title>Node9</title>
<g id="a_Node000009"><a xlink:href="_i_signable_8h.html" target="_top" xlink:title=" ">
<polygon fill="white" stroke="#666666" points="552.5,-184 425.5,-184 425.5,-165 552.5,-165 552.5,-184"/>
<text text-anchor="middle" x="489" y="-172" font-family="Helvetica,sans-Serif" font-size="10.00">Kit/System/ISignable.h</text>
</a>
</g>
</g>
<!-- Node1&#45;&gt;Node9 -->
<g id="edge9_Node000001_Node000009" class="edge">
<title>Node1&#45;&gt;Node9</title>
<g id="a_edge9_Node000001_Node000009"><a xlink:title=" ">
<path fill="none" stroke="#63b8ff" d="M458.71,-274.85C466.55,-266.47 477.63,-253.01 483,-239 488.52,-224.61 489.81,-207.09 489.84,-194.1"/>
<polygon fill="#63b8ff" stroke="#63b8ff" points="493.34,-193.97 489.61,-184.05 486.34,-194.12 493.34,-193.97"/>
</a>
</g>
</g>
<!-- Node10 -->
<g id="Node000010" class="node">
<title>Node10</title>
<g id="a_Node000010"><a xlink:href="_i_event_manager_8h.html" target="_top" xlink:title=" ">
<polygon fill="white" stroke="#666666" points="474.5,-239 319.5,-239 319.5,-220 474.5,-220 474.5,-239"/>
<text text-anchor="middle" x="397" y="-227" font-family="Helvetica,sans-Serif" font-size="10.00">Kit/System/IEventManager.h</text>
</a>
</g>
</g>
<!-- Node1&#45;&gt;Node10 -->
<g id="edge10_Node000001_Node000010" class="edge">
<title>Node1&#45;&gt;Node10</title>
<g id="a_edge10_Node000001_Node000010"><a xlink:title=" ">
<path fill="none" stroke="#63b8ff" d="M441.25,-274.75C433.53,-267.03 422.1,-255.6 412.78,-246.28"/>
<polygon fill="#63b8ff" stroke="#63b8ff" points="415.14,-243.69 405.59,-239.09 410.19,-248.64 415.14,-243.69"/>
</a>
</g>
</g>
<!-- Node11 -->
<g id="Node000011" class="node">
<title>Node11</title>
<g id="a_Node000011"><a xlink:href="_semaphore_8h.html" target="_top" xlink:title=" ">
<polygon fill="white" stroke="#666666" points="668.5,-239 531.5,-239 531.5,-220 668.5,-220 668.5,-239"/>
<text text-anchor="middle" x="600" y="-227" font-family="Helvetica,sans-Serif" font-size="10.00">Kit/System/Semaphore.h</text>
</a>
</g>
</g>
<!-- Node1&#45;&gt;Node11 -->
<g id="edge12_Node000001_Node000011" class="edge">
<title>Node1&#45;&gt;Node11</title>
<g id="a_edge12_Node000001_Node000011"><a xlink:title=" ">
<path fill="none" stroke="#63b8ff" d="M474.1,-274.98C498.88,-266.23 537.7,-252.51 565.69,-242.62"/>
<polygon fill="#63b8ff" stroke="#63b8ff" points="567.2,-245.8 575.46,-239.17 564.87,-239.2 567.2,-245.8"/>
</a>
</g>
</g>
<!-- Node13 -->
<g id="Node000013" class="node">
<title>Node13</title>
<g id="a_Node000013"><a xlink:href="_timer_manager_8h.html" target="_top" xlink:title=" ">
<polygon fill="white" stroke="#666666" points="152,-239 0,-239 0,-220 152,-220 152,-239"/>
<text text-anchor="middle" x="76" y="-227" font-family="Helvetica,sans-Serif" font-size="10.00">Kit/System/TimerManager.h</text>
</a>
</g>
</g>
<!-- Node1&#45;&gt;Node13 -->
<g id="edge15_Node000001_Node000013" class="edge">
<title>Node1&#45;&gt;Node13</title>
<g id="a_edge15_Node000001_Node000013"><a xlink:title=" ">
<path fill="none" stroke="#63b8ff" d="M389.91,-274.98C323.49,-265.57 216.62,-250.43 146.34,-240.47"/>
<polygon fill="#63b8ff" stroke="#63b8ff" points="146.64,-236.98 136.25,-239.04 145.66,-243.91 146.64,-236.98"/>
</a>
</g>
</g>
<!-- Node3 -->
<g id="Node000003" class="node">
<title>Node3</title>
<g id="a_Node000003"><a xlink:href="_list_item_8h.html" target="_top" xlink:title=" ">
<polygon fill="white" stroke="#666666" points="674,-74 542,-74 542,-55 674,-55 674,-74"/>
<text text-anchor="middle" x="608" y="-62" font-family="Helvetica,sans-Serif" font-size="10.00">Kit/Container/ListItem.h</text>
</a>
</g>
</g>
<!-- Node2&#45;&gt;Node3 -->
<g id="edge2_Node000002_Node000003" class="edge">
<title>Node2&#45;&gt;Node3</title>
<g id="a_edge2_Node000002_Node000003"><a xlink:title=" ">
<path fill="none" stroke="#63b8ff" d="M746.15,-219.74C722.78,-193.65 653.39,-116.17 622.78,-82"/>
<polygon fill="#63b8ff" stroke="#63b8ff" points="625.17,-79.42 615.89,-74.31 619.95,-84.09 625.17,-79.42"/>
</a>
</g>
</g>
<!-- Node5 -->
<g id="Node000005" class="node">
<title>Node5</title>
<g id="a_Node000005"><a xlink:href="_s_list_8h.html" target="_top" xlink:title=" ">
<polygon fill="white" stroke="#666666" points="852,-184 736,-184 736,-165 852,-165 852,-184"/>
<text text-anchor="middle" x="794" y="-172" font-family="Helvetica,sans-Serif" font-size="10.00">Kit/Container/SList.h</text>
</a>
</g>
</g>
<!-- Node2&#45;&gt;Node5 -->
<g id="edge4_Node000002_Node000005" class="edge">
<title>Node2&#45;&gt;Node5</title>
<g id="a_edge4_Node000002_Node000005"><a xlink:title=" ">
<path fill="none" stroke="#63b8ff" d="M760.61,-219.75C766.26,-212.26 774.54,-201.28 781.45,-192.13"/>
<polygon fill="#63b8ff" stroke="#63b8ff" points="784.29,-194.18 787.52,-184.09 778.7,-189.96 784.29,-194.18"/>
</a>
</g>
</g>
<!-- Node7 -->
<g id="Node000007" class="node">
<title>Node7</title>
<g id="a_Node000007"><a xlink:title=" ">
<polygon fill="#e0e0e0" stroke="#999999" points="423.5,-129 370.5,-129 370.5,-110 423.5,-110 423.5,-129"/>
<text text-anchor="middle" x="397" y="-117" font-family="Helvetica,sans-Serif" font-size="10.00">stdint.h</text>
</a>
</g>
</g>
<!-- Node2&#45;&gt;Node7 -->
<g id="edge7_Node000002_Node000007" class="edge">
<title>Node2&#45;&gt;Node7</title>
<g id="a_edge7_Node000002_Node000007"><a xlink:title=" ">
<path fill="none" stroke="#63b8ff" d="M742.27,-219.78C723.02,-205.92 683.02,-178.99 645,-165 573.1,-138.55 483.49,-127.46 434.07,-123.1"/>
<polygon fill="#63b8ff" stroke="#63b8ff" points="434.12,-119.59 423.86,-122.24 433.53,-126.56 434.12,-119.59"/>
</a>
</g>
</g>
<!-- Node4 -->
<g id="Node000004" class="node">
<title>Node4</title>
<g id="a_Node000004"><a xlink:href="_item_8h.html" target="_top" xlink:title=" ">
<polygon fill="white" stroke="#666666" points="449.5,-19 334.5,-19 334.5,0 449.5,0 449.5,-19"/>
<text text-anchor="middle" x="392" y="-7" font-family="Helvetica,sans-Serif" font-size="10.00">Kit/Container/Item.h</text>
</a>
</g>
</g>
<!-- Node3&#45;&gt;Node4 -->
<g id="edge3_Node000003_Node000004" class="edge">
<title>Node3&#45;&gt;Node4</title>
<g id="a_edge3_Node000003_Node000004"><a xlink:title=" ">
<path fill="none" stroke="#63b8ff" d="M573.3,-54.98C536.25,-45.89 477.41,-31.46 436.87,-21.51"/>
<polygon fill="#63b8ff" stroke="#63b8ff" points="437.52,-18.07 426.98,-19.08 435.85,-24.86 437.52,-18.07"/>
</a>
</g>
</g>
<!-- Node6 -->
<g id="Node000006" class="node">
<title>Node6</title>
<g id="a_Node000006"><a xlink:href="_s_list_base_8h.html" target="_top" xlink:title=" ">
<polygon fill="white" stroke="#666666" points="870,-129 730,-129 730,-110 870,-110 870,-129"/>
<text text-anchor="middle" x="800" y="-117" font-family="Helvetica,sans-Serif" font-size="10.00">Kit/Container/SListBase.h</text>
</a>
</g>
</g>
<!-- Node5&#45;&gt;Node6 -->
<g id="edge5_Node000005_Node000006" class="edge">
<title>Node5&#45;&gt;Node6</title>
<g id="a_edge5_Node000005_Node000006"><a xlink:title=" ">
<path fill="none" stroke="#63b8ff" d="M794.99,-164.75C795.78,-157.8 796.9,-147.85 797.89,-139.13"/>
<polygon fill="#63b8ff" stroke="#63b8ff" points="801.38,-139.42 799.03,-129.09 794.42,-138.63 801.38,-139.42"/>
</a>
</g>
</g>
<!-- Node6&#45;&gt;Node3 -->
<g id="edge6_Node000006_Node000003" class="edge">
<title>Node6&#45;&gt;Node3</title>
<g id="a_edge6_Node000006_Node000003"><a xlink:title=" ">
<path fill="none" stroke="#63b8ff" d="M769.15,-109.98C736.5,-100.97 684.8,-86.7 648.8,-76.76"/>
<polygon fill="#63b8ff" stroke="#63b8ff" points="649.66,-73.37 639.09,-74.08 647.8,-80.12 649.66,-73.37"/>
</a>
</g>
</g>
<!-- Node10&#45;&gt;Node7 -->
<g id="edge11_Node000010_Node000007" class="edge">
<title>Node10&#45;&gt;Node7</title>
<g id="a_edge11_Node000010_Node000007"><a xlink:title=" ">
<path fill="none" stroke="#63b8ff" d="M397,-219.66C397,-202.17 397,-162.8 397,-139.27"/>
<polygon fill="#63b8ff" stroke="#63b8ff" points="400.5,-139.16 397,-129.16 393.5,-139.16 400.5,-139.16"/>
</a>
</g>
</g>
<!-- Node11&#45;&gt;Node9 -->
<g id="edge14_Node000011_Node000009" class="edge">
<title>Node11&#45;&gt;Node9</title>
<g id="a_edge14_Node000011_Node000009"><a xlink:title=" ">
<path fill="none" stroke="#63b8ff" d="M582.17,-219.98C564.39,-211.5 536.85,-198.35 516.32,-188.54"/>
<polygon fill="#63b8ff" stroke="#63b8ff" points="517.69,-185.32 507.16,-184.17 514.67,-191.64 517.69,-185.32"/>
</a>
</g>
</g>
<!-- Node12 -->
<g id="Node000012" class="node">
<title>Node12</title>
<g id="a_Node000012"><a xlink:title=" ">
<polygon fill="#e0e0e0" stroke="#999999" points="635.5,-184 570.5,-184 570.5,-165 635.5,-165 635.5,-184"/>
<text text-anchor="middle" x="603" y="-172" font-family="Helvetica,sans-Serif" font-size="10.00">kit_map.h</text>
</a>
</g>
</g>
<!-- Node11&#45;&gt;Node12 -->
<g id="edge13_Node000011_Node000012" class="edge">
<title>Node11&#45;&gt;Node12</title>
<g id="a_edge13_Node000011_Node000012"><a xlink:title=" ">
<path fill="none" stroke="#63b8ff" d="M600.5,-219.75C600.89,-212.8 601.45,-202.85 601.95,-194.13"/>
<polygon fill="#63b8ff" stroke="#63b8ff" points="605.44,-194.27 602.51,-184.09 598.45,-193.88 605.44,-194.27"/>
</a>
</g>
</g>
<!-- Node14 -->
<g id="Node000014" class="node">
<title>Node14</title>
<g id="a_Node000014"><a xlink:href="_i_counter_8h.html" target="_top" xlink:title=" ">
<polygon fill="white" stroke="#666666" points="369,-184 247,-184 247,-165 369,-165 369,-184"/>
<text text-anchor="middle" x="308" y="-172" font-family="Helvetica,sans-Serif" font-size="10.00">Kit/System/ICounter.h</text>
</a>
</g>
</g>
<!-- Node13&#45;&gt;Node14 -->
<g id="edge16_Node000013_Node000014" class="edge">
<title>Node13&#45;&gt;Node14</title>
<g id="a_edge16_Node000013_Node000014"><a xlink:title=" ">
<path fill="none" stroke="#63b8ff" d="M113.27,-219.98C153.32,-210.84 217.07,-196.27 260.64,-186.32"/>
<polygon fill="#63b8ff" stroke="#63b8ff" points="261.46,-189.72 270.43,-184.08 259.9,-182.9 261.46,-189.72"/>
</a>
</g>
</g>
<!-- Node15 -->
<g id="Node000015" class="node">
<title>Node15</title>
<g id="a_Node000015"><a xlink:href="_d_list_8h.html" target="_top" xlink:title=" ">
<polygon fill="white" stroke="#666666" points="181.5,-184 64.5,-184 64.5,-165 181.5,-165 181.5,-184"/>
<text text-anchor="middle" x="123" y="-172" font-family="Helvetica,sans-Serif" font-size="10.00">Kit/Container/DList.h</text>
</a>
</g>
</g>
<!-- Node13&#45;&gt;Node15 -->
<g id="edge19_Node000013_Node000015" class="edge">
<title>Node13&#45;&gt;Node15</title>
<g id="a_edge19_Node000013_Node000015"><a xlink:title=" ">
<path fill="none" stroke="#63b8ff" d="M83.76,-219.75C90.47,-212.18 100.34,-201.05 108.51,-191.84"/>
<polygon fill="#63b8ff" stroke="#63b8ff" points="111.37,-193.89 115.38,-184.09 106.13,-189.25 111.37,-193.89"/>
</a>
</g>
</g>
<!-- Node14&#45;&gt;Node3 -->
<g id="edge17_Node000014_Node000003" class="edge">
<title>Node14&#45;&gt;Node3</title>
<g id="a_edge17_Node000014_Node000003"><a xlink:title=" ">
<path fill="none" stroke="#63b8ff" d="M312.54,-164.87C320.4,-150.86 337.91,-123.43 361,-110 412.91,-79.81 480.51,-69.23 531.86,-65.89"/>
<polygon fill="#63b8ff" stroke="#63b8ff" points="532.13,-69.38 541.91,-65.32 531.73,-62.4 532.13,-69.38"/>
</a>
</g>
</g>
<!-- Node14&#45;&gt;Node7 -->
<g id="edge18_Node000014_Node000007" class="edge">
<title>Node14&#45;&gt;Node7</title>
<g id="a_edge18_Node000014_Node000007"><a xlink:title=" ">
<path fill="none" stroke="#63b8ff" d="M322.3,-164.98C336.1,-156.77 357.24,-144.18 373.51,-134.49"/>
<polygon fill="#63b8ff" stroke="#63b8ff" points="375.64,-137.29 382.44,-129.17 372.06,-131.28 375.64,-137.29"/>
</a>
</g>
</g>
<!-- Node16 -->
<g id="Node000016" class="node">
<title>Node16</title>
<g id="a_Node000016"><a xlink:href="_d_list_base_8h.html" target="_top" xlink:title=" ">
<polygon fill="white" stroke="#666666" points="385.5,-74 244.5,-74 244.5,-55 385.5,-55 385.5,-74"/>
<text text-anchor="middle" x="315" y="-62" font-family="Helvetica,sans-Serif" font-size="10.00">Kit/Container/DListBase.h</text>
</a>
</g>
</g>
<!-- Node15&#45;&gt;Node16 -->
<g id="edge20_Node000015_Node000016" class="edge">
<title>Node15&#45;&gt;Node16</title>
<g id="a_edge20_Node000015_Node000016"><a xlink:title=" ">
<path fill="none" stroke="#63b8ff" d="M138.39,-164.84C171.75,-146.08 250.96,-101.52 290.98,-79.01"/>
<polygon fill="#63b8ff" stroke="#63b8ff" points="292.81,-82 299.81,-74.05 289.37,-75.9 292.81,-82"/>
</a>
</g>
</g>
<!-- Node16&#45;&gt;Node4 -->
<g id="edge21_Node000016_Node000004" class="edge">
<title>Node16&#45;&gt;Node4</title>
<g id="a_edge21_Node000016_Node000004"><a xlink:title=" ">
<path fill="none" stroke="#63b8ff" d="M327.37,-54.98C339.09,-46.92 356.92,-34.65 370.89,-25.03"/>
<polygon fill="#63b8ff" stroke="#63b8ff" points="373.15,-27.72 379.4,-19.17 369.18,-21.96 373.15,-27.72"/>
</a>
</g>
</g>
</g>
</svg>
