<?xml version="1.0" encoding="UTF-8" standalone="no"?>
<!DOCTYPE svg PUBLIC "-//W3C//DTD SVG 1.1//EN"
 "http://www.w3.org/Graphics/SVG/1.1/DTD/svg11.dtd">
<!-- Generated by graphviz version 2.43.0 (0)
 -->
<!-- Title: Kit/Text/FStringBase.h Pages: 1 -->
<svg width="2324pt" height="423pt"
 viewBox="0.00 0.00 2323.50 423.00" xmlns="http://www.w3.org/2000/svg" xmlns:xlink="http://www.w3.org/1999/xlink">
<g id="graph0" class="graph" transform="scale(1 1) rotate(0) translate(4 419)">
<title>Kit/Text/FStringBase.h</title>
<!-- Node1 -->
<g id="Node000001" class="node">
<title>Node1</title>
<g id="a_Node000001"><a xlink:title=" ">
<polygon fill="#999999" stroke="#666666" points="638.5,-415 515.5,-415 515.5,-396 638.5,-396 638.5,-415"/>
<text text-anchor="middle" x="577" y="-403" font-family="Helvetica,sans-Serif" font-size="10.00">Kit/Text/FStringBase.h</text>
</a>
</g>
</g>
<!-- Node2 -->
<g id="Node000002" class="node">
<title>Node2</title>
<g id="a_Node000002"><a xlink:href="_b_string_8h.html" target="_top" xlink:title=" ">
<polygon fill="white" stroke="#666666" points="568.5,-360 467.5,-360 467.5,-341 568.5,-341 568.5,-360"/>
<text text-anchor="middle" x="518" y="-348" font-family="Helvetica,sans-Serif" font-size="10.00">Kit/Text/BString.h</text>
</a>
</g>
</g>
<!-- Node1&#45;&gt;Node2 -->
<g id="edge1_Node000001_Node000002" class="edge">
<title>Node1&#45;&gt;Node2</title>
<g id="a_edge1_Node000001_Node000002"><a xlink:title=" ">
<path fill="none" stroke="#63b8ff" d="M559.8,-389.04C549.33,-379.64 536.35,-367.98 527.65,-360.17"/>
<polygon fill="#63b8ff" stroke="#63b8ff" points="557.74,-391.91 567.52,-395.98 562.42,-386.7 557.74,-391.91"/>
</a>
</g>
</g>
<!-- Node5 -->
<g id="Node000005" class="node">
<title>Node5</title>
<g id="a_Node000005"><a xlink:href="_f_string_8h.html" target="_top" xlink:title=" ">
<polygon fill="white" stroke="#666666" points="901.5,-360 802.5,-360 802.5,-341 901.5,-341 901.5,-360"/>
<text text-anchor="middle" x="852" y="-348" font-family="Helvetica,sans-Serif" font-size="10.00">Kit/Text/FString.h</text>
</a>
</g>
</g>
<!-- Node1&#45;&gt;Node5 -->
<g id="edge4_Node000001_Node000005" class="edge">
<title>Node1&#45;&gt;Node5</title>
<g id="a_edge4_Node000001_Node000005"><a xlink:title=" ">
<path fill="none" stroke="#63b8ff" d="M631.14,-394.07C682.7,-384.13 759.36,-369.35 807.47,-360.08"/>
<polygon fill="#63b8ff" stroke="#63b8ff" points="630.34,-390.66 621.18,-395.98 631.67,-397.53 630.34,-390.66"/>
</a>
</g>
</g>
<!-- Node3 -->
<g id="Node000003" class="node">
<title>Node3</title>
<g id="a_Node000003"><a xlink:href="_framework_2_log_8h.html" target="_top" xlink:title="This file declares the public facing Logging interface for generating log entries.">
<polygon fill="white" stroke="#666666" points="204.5,-305 75.5,-305 75.5,-275 204.5,-275 204.5,-305"/>
<text text-anchor="start" x="83.5" y="-293" font-family="Helvetica,sans-Serif" font-size="10.00">Kit/Logging/Framework</text>
<text text-anchor="middle" x="140" y="-282" font-family="Helvetica,sans-Serif" font-size="10.00">/Log.h</text>
</a>
</g>
</g>
<!-- Node2&#45;&gt;Node3 -->
<g id="edge2_Node000002_Node000003" class="edge">
<title>Node2&#45;&gt;Node3</title>
<g id="a_edge2_Node000002_Node000003"><a xlink:title=" ">
<path fill="none" stroke="#63b8ff" d="M457.53,-340.14C388.31,-329.43 275.38,-311.95 204.51,-300.98"/>
<polygon fill="#63b8ff" stroke="#63b8ff" points="457,-343.6 467.41,-341.67 458.07,-336.68 457,-343.6"/>
</a>
</g>
</g>
<!-- Node4 -->
<g id="Node000004" class="node">
<title>Node4</title>
<g id="a_Node000004"><a xlink:href="_pkg_2_log_8h.html" target="_top" xlink:title="This file declares the Logging functions available to the KIT Logging Domain.">
<polygon fill="white" stroke="#666666" points="122,-239 0,-239 0,-220 122,-220 122,-239"/>
<text text-anchor="middle" x="61" y="-227" font-family="Helvetica,sans-Serif" font-size="10.00">Kit/Logging/Pkg/Log.h</text>
</a>
</g>
</g>
<!-- Node3&#45;&gt;Node4 -->
<g id="edge3_Node000003_Node000004" class="edge">
<title>Node3&#45;&gt;Node4</title>
<g id="a_edge3_Node000003_Node000004"><a xlink:title=" ">
<path fill="none" stroke="#63b8ff" d="M112.74,-268.82C99.13,-258.73 83.35,-247.05 72.84,-239.27"/>
<polygon fill="#63b8ff" stroke="#63b8ff" points="110.76,-271.7 120.88,-274.84 114.92,-266.07 110.76,-271.7"/>
</a>
</g>
</g>
<!-- Node6 -->
<g id="Node000006" class="node">
<title>Node6</title>
<g id="a_Node000006"><a xlink:href="_primitive_type_8h.html" target="_top" xlink:title=" ">
<polygon fill="white" stroke="#666666" points="1593.5,-299.5 1446.5,-299.5 1446.5,-280.5 1593.5,-280.5 1593.5,-299.5"/>
<text text-anchor="middle" x="1520" y="-287.5" font-family="Helvetica,sans-Serif" font-size="10.00">Kit/Dm/Mp/PrimitiveType.h</text>
</a>
</g>
</g>
<!-- Node5&#45;&gt;Node6 -->
<g id="edge5_Node000005_Node000006" class="edge">
<title>Node5&#45;&gt;Node6</title>
<g id="a_edge5_Node000005_Node000006"><a xlink:title=" ">
<path fill="none" stroke="#63b8ff" d="M912.04,-346.74C1018.22,-341.46 1245.95,-328.33 1437,-305 1449.04,-303.53 1462,-301.54 1474.01,-299.53"/>
<polygon fill="#63b8ff" stroke="#63b8ff" points="911.66,-343.26 901.84,-347.24 912,-350.25 911.66,-343.26"/>
</a>
</g>
</g>
<!-- Node31 -->
<g id="Node000031" class="node">
<title>Node31</title>
<g id="a_Node000031"><a xlink:href="_system_8h.html" target="_top" xlink:title=" ">
<polygon fill="white" stroke="#666666" points="412.5,-299.5 301.5,-299.5 301.5,-280.5 412.5,-280.5 412.5,-299.5"/>
<text text-anchor="middle" x="357" y="-287.5" font-family="Helvetica,sans-Serif" font-size="10.00">Kit/Io/File/System.h</text>
</a>
</g>
</g>
<!-- Node5&#45;&gt;Node31 -->
<g id="edge33_Node000005_Node000031" class="edge">
<title>Node5&#45;&gt;Node31</title>
<g id="a_edge33_Node000005_Node000031"><a xlink:title=" ">
<path fill="none" stroke="#63b8ff" d="M792.4,-345.4C709.15,-339.2 553.46,-325.9 422,-305 412.65,-303.51 402.62,-301.54 393.31,-299.55"/>
<polygon fill="#63b8ff" stroke="#63b8ff" points="792.21,-348.89 802.44,-346.14 792.72,-341.91 792.21,-348.89"/>
</a>
</g>
</g>
<!-- Node36 -->
<g id="Node000036" class="node">
<title>Node36</title>
<g id="a_Node000036"><a xlink:href="_socket_2_win32_2_fdio_8h.html" target="_top" xlink:title=" ">
<polygon fill="white" stroke="#666666" points="541.5,-305 430.5,-305 430.5,-275 541.5,-275 541.5,-305"/>
<text text-anchor="start" x="438.5" y="-293" font-family="Helvetica,sans-Serif" font-size="10.00">Kit/Io/Socket/Win32</text>
<text text-anchor="middle" x="486" y="-282" font-family="Helvetica,sans-Serif" font-size="10.00">/Fdio.h</text>
</a>
</g>
</g>
<!-- Node5&#45;&gt;Node36 -->
<g id="edge39_Node000005_Node000036" class="edge">
<title>Node5&#45;&gt;Node36</title>
<g id="a_edge39_Node000005_Node000036"><a xlink:title=" ">
<path fill="none" stroke="#63b8ff" d="M792.11,-341.82C731.23,-333.74 634.28,-320.11 551,-305 547.93,-304.44 544.79,-303.85 541.62,-303.23"/>
<polygon fill="#63b8ff" stroke="#63b8ff" points="791.93,-345.33 802.3,-343.17 792.85,-338.39 791.93,-345.33"/>
</a>
</g>
</g>
<!-- Node37 -->
<g id="Node000037" class="node">
<title>Node37</title>
<g id="a_Node000037"><a xlink:href="_free_r_t_o_s_2_thread_8h.html" target="_top" xlink:title=" ">
<polygon fill="white" stroke="#666666" points="678.5,-305 559.5,-305 559.5,-275 678.5,-275 678.5,-305"/>
<text text-anchor="start" x="567.5" y="-293" font-family="Helvetica,sans-Serif" font-size="10.00">Kit/System/FreeRTOS</text>
<text text-anchor="middle" x="619" y="-282" font-family="Helvetica,sans-Serif" font-size="10.00">/Thread.h</text>
</a>
</g>
</g>
<!-- Node5&#45;&gt;Node37 -->
<g id="edge40_Node000005_Node000037" class="edge">
<title>Node5&#45;&gt;Node37</title>
<g id="a_edge40_Node000005_Node000037"><a xlink:title=" ">
<path fill="none" stroke="#63b8ff" d="M807.96,-338.44C770.27,-328.98 715.8,-315.3 675.02,-305.06"/>
<polygon fill="#63b8ff" stroke="#63b8ff" points="807.57,-341.95 818.12,-340.99 809.27,-335.16 807.57,-341.95"/>
</a>
</g>
</g>
<!-- Node38 -->
<g id="Node000038" class="node">
<title>Node38</title>
<g id="a_Node000038"><a xlink:href="_posix_2_thread_8h.html" target="_top" xlink:title=" ">
<polygon fill="white" stroke="#666666" points="841.5,-299.5 696.5,-299.5 696.5,-280.5 841.5,-280.5 841.5,-299.5"/>
<text text-anchor="middle" x="769" y="-287.5" font-family="Helvetica,sans-Serif" font-size="10.00">Kit/System/Posix/Thread.h</text>
</a>
</g>
</g>
<!-- Node5&#45;&gt;Node38 -->
<g id="edge41_Node000005_Node000038" class="edge">
<title>Node5&#45;&gt;Node38</title>
<g id="a_edge41_Node000005_Node000038"><a xlink:title=" ">
<path fill="none" stroke="#63b8ff" d="M831.21,-334.85C815.49,-323.77 794.44,-308.93 781.3,-299.67"/>
<polygon fill="#63b8ff" stroke="#63b8ff" points="829.56,-337.97 839.75,-340.87 833.6,-332.25 829.56,-337.97"/>
</a>
</g>
</g>
<!-- Node39 -->
<g id="Node000039" class="node">
<title>Node39</title>
<g id="a_Node000039"><a xlink:href="_r_p_pico_2_thread_8h.html" target="_top" xlink:title=" ">
<polygon fill="white" stroke="#666666" points="1012,-299.5 860,-299.5 860,-280.5 1012,-280.5 1012,-299.5"/>
<text text-anchor="middle" x="936" y="-287.5" font-family="Helvetica,sans-Serif" font-size="10.00">Kit/System/RPPico/Thread.h</text>
</a>
</g>
</g>
<!-- Node5&#45;&gt;Node39 -->
<g id="edge42_Node000005_Node000039" class="edge">
<title>Node5&#45;&gt;Node39</title>
<g id="a_edge42_Node000005_Node000039"><a xlink:title=" ">
<path fill="none" stroke="#63b8ff" d="M873.04,-334.85C888.95,-323.77 910.26,-308.93 923.55,-299.67"/>
<polygon fill="#63b8ff" stroke="#63b8ff" points="870.6,-332.28 864.39,-340.87 874.6,-338.03 870.6,-332.28"/>
</a>
</g>
</g>
<!-- Node40 -->
<g id="Node000040" class="node">
<title>Node40</title>
<g id="a_Node000040"><a xlink:href="_win32_2_thread_8h.html" target="_top" xlink:title=" ">
<polygon fill="white" stroke="#666666" points="1179.5,-299.5 1030.5,-299.5 1030.5,-280.5 1179.5,-280.5 1179.5,-299.5"/>
<text text-anchor="middle" x="1105" y="-287.5" font-family="Helvetica,sans-Serif" font-size="10.00">Kit/System/Win32/Thread.h</text>
</a>
</g>
</g>
<!-- Node5&#45;&gt;Node40 -->
<g id="edge43_Node000005_Node000040" class="edge">
<title>Node5&#45;&gt;Node40</title>
<g id="a_edge43_Node000005_Node000040"><a xlink:title=" ">
<path fill="none" stroke="#63b8ff" d="M898.79,-338.68C947.68,-327.38 1023.37,-309.88 1068.17,-299.52"/>
<polygon fill="#63b8ff" stroke="#63b8ff" points="897.74,-335.33 888.79,-340.99 899.32,-342.15 897.74,-335.33"/>
</a>
</g>
</g>
<!-- Node41 -->
<g id="Node000041" class="node">
<title>Node41</title>
<g id="a_Node000041"><a xlink:href="_f_string_item_8h.html" target="_top" xlink:title=" ">
<polygon fill="white" stroke="#666666" points="1320,-299.5 1198,-299.5 1198,-280.5 1320,-280.5 1320,-299.5"/>
<text text-anchor="middle" x="1259" y="-287.5" font-family="Helvetica,sans-Serif" font-size="10.00">Kit/Text/FStringItem.h</text>
</a>
</g>
</g>
<!-- Node5&#45;&gt;Node41 -->
<g id="edge44_Node000005_Node000041" class="edge">
<title>Node5&#45;&gt;Node41</title>
<g id="a_edge44_Node000005_Node000041"><a xlink:title=" ">
<path fill="none" stroke="#63b8ff" d="M911.57,-342.84C979.05,-335.02 1092.23,-321.05 1189,-305 1198.66,-303.4 1209.02,-301.45 1218.74,-299.53"/>
<polygon fill="#63b8ff" stroke="#63b8ff" points="911.08,-339.37 901.55,-344 911.88,-346.33 911.08,-339.37"/>
</a>
</g>
</g>
<!-- Node42 -->
<g id="Node000042" class="node">
<title>Node42</title>
<g id="a_Node000042"><a xlink:href="_guid_8h.html" target="_top" xlink:title=" ">
<polygon fill="white" stroke="#666666" points="1428,-299.5 1338,-299.5 1338,-280.5 1428,-280.5 1428,-299.5"/>
<text text-anchor="middle" x="1383" y="-287.5" font-family="Helvetica,sans-Serif" font-size="10.00">Kit/Type/Guid.h</text>
</a>
</g>
</g>
<!-- Node5&#45;&gt;Node42 -->
<g id="edge45_Node000005_Node000042" class="edge">
<title>Node5&#45;&gt;Node42</title>
<g id="a_edge45_Node000005_Node000042"><a xlink:title=" ">
<path fill="none" stroke="#63b8ff" d="M911.89,-347C1002.68,-342.52 1180.3,-331.04 1329,-305 1337.01,-303.6 1345.58,-301.61 1353.48,-299.57"/>
<polygon fill="#63b8ff" stroke="#63b8ff" points="911.61,-343.51 901.79,-347.49 911.95,-350.5 911.61,-343.51"/>
</a>
</g>
</g>
<!-- Node7 -->
<g id="Node000007" class="node">
<title>Node7</title>
<g id="a_Node000007"><a xlink:href="_bool_8h.html" target="_top" xlink:title=" ">
<polygon fill="white" stroke="#666666" points="1813,-239 1711,-239 1711,-220 1813,-220 1813,-239"/>
<text text-anchor="middle" x="1762" y="-227" font-family="Helvetica,sans-Serif" font-size="10.00">Kit/Dm/Mp/Bool.h</text>
</a>
</g>
</g>
<!-- Node6&#45;&gt;Node7 -->
<g id="edge6_Node000006_Node000007" class="edge">
<title>Node6&#45;&gt;Node7</title>
<g id="a_edge6_Node000006_Node000007"><a xlink:title=" ">
<path fill="none" stroke="#63b8ff" d="M1565.05,-278.11C1611.82,-266.8 1684,-249.35 1726.77,-239.02"/>
<polygon fill="#63b8ff" stroke="#63b8ff" points="1564.09,-274.74 1555.19,-280.49 1565.73,-281.55 1564.09,-274.74"/>
</a>
</g>
</g>
<!-- Node9 -->
<g id="Node000009" class="node">
<title>Node9</title>
<g id="a_Node000009"><a xlink:href="_double_8h.html" target="_top" xlink:title=" ">
<polygon fill="white" stroke="#666666" points="1946.5,-239 1831.5,-239 1831.5,-220 1946.5,-220 1946.5,-239"/>
<text text-anchor="middle" x="1889" y="-227" font-family="Helvetica,sans-Serif" font-size="10.00">Kit/Dm/Mp/Double.h</text>
</a>
</g>
</g>
<!-- Node6&#45;&gt;Node9 -->
<g id="edge8_Node000006_Node000009" class="edge">
<title>Node6&#45;&gt;Node9</title>
<g id="a_edge8_Node000006_Node000009"><a xlink:title=" ">
<path fill="none" stroke="#63b8ff" d="M1583.82,-278.88C1654.91,-267.61 1768.57,-249.59 1835.28,-239.02"/>
<polygon fill="#63b8ff" stroke="#63b8ff" points="1582.98,-275.47 1573.66,-280.49 1584.08,-282.38 1582.98,-275.47"/>
</a>
</g>
</g>
<!-- Node10 -->
<g id="Node000010" class="node">
<title>Node10</title>
<g id="a_Node000010"><a xlink:href="_float_8h.html" target="_top" xlink:title=" ">
<polygon fill="white" stroke="#666666" points="2069.5,-239 1964.5,-239 1964.5,-220 2069.5,-220 2069.5,-239"/>
<text text-anchor="middle" x="2017" y="-227" font-family="Helvetica,sans-Serif" font-size="10.00">Kit/Dm/Mp/Float.h</text>
</a>
</g>
</g>
<!-- Node6&#45;&gt;Node10 -->
<g id="edge9_Node000006_Node000010" class="edge">
<title>Node6&#45;&gt;Node10</title>
<g id="a_edge9_Node000006_Node000010"><a xlink:title=" ">
<path fill="none" stroke="#63b8ff" d="M1603.91,-279.99C1691.76,-270.41 1833.67,-254.53 1956,-239 1958.76,-238.65 1961.58,-238.28 1964.44,-237.91"/>
<polygon fill="#63b8ff" stroke="#63b8ff" points="1603.3,-276.53 1593.74,-281.1 1604.06,-283.49 1603.3,-276.53"/>
</a>
</g>
</g>
<!-- Node11 -->
<g id="Node000011" class="node">
<title>Node11</title>
<g id="a_Node000011"><a xlink:href="_int16_8h.html" target="_top" xlink:title=" ">
<polygon fill="white" stroke="#666666" points="2192.5,-239 2087.5,-239 2087.5,-220 2192.5,-220 2192.5,-239"/>
<text text-anchor="middle" x="2140" y="-227" font-family="Helvetica,sans-Serif" font-size="10.00">Kit/Dm/Mp/Int16.h</text>
</a>
</g>
</g>
<!-- Node6&#45;&gt;Node11 -->
<g id="edge10_Node000006_Node000011" class="edge">
<title>Node6&#45;&gt;Node11</title>
<g id="a_edge10_Node000006_Node000011"><a xlink:title=" ">
<path fill="none" stroke="#63b8ff" d="M1603.81,-282.8C1713.25,-274.4 1910.73,-258.24 2079,-239 2081.76,-238.68 2084.59,-238.34 2087.45,-237.99"/>
<polygon fill="#63b8ff" stroke="#63b8ff" points="1603.52,-279.31 1593.82,-283.56 1604.05,-286.29 1603.52,-279.31"/>
</a>
</g>
</g>
<!-- Node12 -->
<g id="Node000012" class="node">
<title>Node12</title>
<g id="a_Node000012"><a xlink:href="_int32_8h.html" target="_top" xlink:title=" ">
<polygon fill="white" stroke="#666666" points="2315.5,-239 2210.5,-239 2210.5,-220 2315.5,-220 2315.5,-239"/>
<text text-anchor="middle" x="2263" y="-227" font-family="Helvetica,sans-Serif" font-size="10.00">Kit/Dm/Mp/Int32.h</text>
</a>
</g>
</g>
<!-- Node6&#45;&gt;Node12 -->
<g id="edge11_Node000006_Node000012" class="edge">
<title>Node6&#45;&gt;Node12</title>
<g id="a_edge11_Node000006_Node000012"><a xlink:title=" ">
<path fill="none" stroke="#63b8ff" d="M1603.75,-284.62C1732.54,-277.5 1986.91,-261.85 2202,-239 2204.76,-238.71 2207.6,-238.38 2210.45,-238.04"/>
<polygon fill="#63b8ff" stroke="#63b8ff" points="1603.36,-281.14 1593.56,-285.19 1603.74,-288.13 1603.36,-281.14"/>
</a>
</g>
</g>
<!-- Node13 -->
<g id="Node000013" class="node">
<title>Node13</title>
<g id="a_Node000013"><a xlink:href="_int64_8h.html" target="_top" xlink:title=" ">
<polygon fill="white" stroke="#666666" points="785.5,-239 680.5,-239 680.5,-220 785.5,-220 785.5,-239"/>
<text text-anchor="middle" x="733" y="-227" font-family="Helvetica,sans-Serif" font-size="10.00">Kit/Dm/Mp/Int64.h</text>
</a>
</g>
</g>
<!-- Node6&#45;&gt;Node13 -->
<g id="edge12_Node000006_Node000013" class="edge">
<title>Node6&#45;&gt;Node13</title>
<g id="a_edge12_Node000006_Node000013"><a xlink:title=" ">
<path fill="none" stroke="#63b8ff" d="M1464.95,-278.83C1455.64,-277.37 1446.07,-276.02 1437,-275 1152.99,-243.18 1079.46,-266.43 795,-239 791.97,-238.71 788.86,-238.38 785.73,-238.02"/>
<polygon fill="#63b8ff" stroke="#63b8ff" points="1464.46,-282.3 1474.9,-280.46 1465.59,-275.39 1464.46,-282.3"/>
</a>
</g>
</g>
<!-- Node14 -->
<g id="Node000014" class="node">
<title>Node14</title>
<g id="a_Node000014"><a xlink:href="_int8_8h.html" target="_top" xlink:title=" ">
<polygon fill="white" stroke="#666666" points="902.5,-239 803.5,-239 803.5,-220 902.5,-220 902.5,-239"/>
<text text-anchor="middle" x="853" y="-227" font-family="Helvetica,sans-Serif" font-size="10.00">Kit/Dm/Mp/Int8.h</text>
</a>
</g>
</g>
<!-- Node6&#45;&gt;Node14 -->
<g id="edge13_Node000006_Node000014" class="edge">
<title>Node6&#45;&gt;Node14</title>
<g id="a_edge13_Node000006_Node000014"><a xlink:title=" ">
<path fill="none" stroke="#63b8ff" d="M1464.31,-278.83C1455.21,-277.39 1445.86,-276.05 1437,-275 1204.74,-247.52 1144.57,-263.69 912,-239 908.91,-238.67 905.74,-238.3 902.54,-237.91"/>
<polygon fill="#63b8ff" stroke="#63b8ff" points="1464.02,-282.33 1474.45,-280.49 1465.15,-275.42 1464.02,-282.33"/>
</a>
</g>
</g>
<!-- Node15 -->
<g id="Node000015" class="node">
<title>Node15</title>
<g id="a_Node000015"><a xlink:href="_ref_counter_8h.html" target="_top" xlink:title=" ">
<polygon fill="white" stroke="#666666" points="1055,-239 921,-239 921,-220 1055,-220 1055,-239"/>
<text text-anchor="middle" x="988" y="-227" font-family="Helvetica,sans-Serif" font-size="10.00">Kit/Dm/Mp/RefCounter.h</text>
</a>
</g>
</g>
<!-- Node6&#45;&gt;Node15 -->
<g id="edge14_Node000006_Node000015" class="edge">
<title>Node6&#45;&gt;Node15</title>
<g id="a_edge14_Node000006_Node000015"><a xlink:title=" ">
<path fill="none" stroke="#63b8ff" d="M1463.03,-278.84C1454.32,-277.45 1445.43,-276.12 1437,-275 1272.33,-253.17 1230.22,-256.11 1065,-239 1061.79,-238.67 1058.5,-238.32 1055.19,-237.97"/>
<polygon fill="#63b8ff" stroke="#63b8ff" points="1462.69,-282.34 1473.12,-280.5 1463.82,-275.43 1462.69,-282.34"/>
</a>
</g>
</g>
<!-- Node16 -->
<g id="Node000016" class="node">
<title>Node16</title>
<g id="a_Node000016"><a xlink:href="_uint16_8h.html" target="_top" xlink:title=" ">
<polygon fill="white" stroke="#666666" points="1317.5,-239 1204.5,-239 1204.5,-220 1317.5,-220 1317.5,-239"/>
<text text-anchor="middle" x="1261" y="-227" font-family="Helvetica,sans-Serif" font-size="10.00">Kit/Dm/Mp/Uint16.h</text>
</a>
</g>
</g>
<!-- Node6&#45;&gt;Node16 -->
<g id="edge15_Node000006_Node000016" class="edge">
<title>Node6&#45;&gt;Node16</title>
<g id="a_edge15_Node000006_Node000016"><a xlink:title=" ">
<path fill="none" stroke="#63b8ff" d="M1472.41,-278.25C1422.38,-266.95 1344.67,-249.4 1298.71,-239.02"/>
<polygon fill="#63b8ff" stroke="#63b8ff" points="1471.81,-281.7 1482.34,-280.49 1473.36,-274.88 1471.81,-281.7"/>
</a>
</g>
</g>
<!-- Node18 -->
<g id="Node000018" class="node">
<title>Node18</title>
<g id="a_Node000018"><a xlink:href="_uint32_8h.html" target="_top" xlink:title=" ">
<polygon fill="white" stroke="#666666" points="1186.5,-239 1073.5,-239 1073.5,-220 1186.5,-220 1186.5,-239"/>
<text text-anchor="middle" x="1130" y="-227" font-family="Helvetica,sans-Serif" font-size="10.00">Kit/Dm/Mp/Uint32.h</text>
</a>
</g>
</g>
<!-- Node6&#45;&gt;Node18 -->
<g id="edge17_Node000006_Node000018" class="edge">
<title>Node6&#45;&gt;Node18</title>
<g id="a_edge17_Node000006_Node000018"><a xlink:title=" ">
<path fill="none" stroke="#63b8ff" d="M1460.51,-278.8C1452.61,-277.49 1444.61,-276.19 1437,-275 1349.74,-261.32 1248.29,-246.9 1186.64,-238.31"/>
<polygon fill="#63b8ff" stroke="#63b8ff" points="1460,-282.26 1470.44,-280.45 1461.15,-275.35 1460,-282.26"/>
</a>
</g>
</g>
<!-- Node28 -->
<g id="Node000028" class="node">
<title>Node28</title>
<g id="a_Node000028"><a xlink:href="_uint64_8h.html" target="_top" xlink:title=" ">
<polygon fill="white" stroke="#666666" points="1448.5,-239 1335.5,-239 1335.5,-220 1448.5,-220 1448.5,-239"/>
<text text-anchor="middle" x="1392" y="-227" font-family="Helvetica,sans-Serif" font-size="10.00">Kit/Dm/Mp/Uint64.h</text>
</a>
</g>
</g>
<!-- Node6&#45;&gt;Node28 -->
<g id="edge29_Node000006_Node000028" class="edge">
<title>Node6&#45;&gt;Node28</title>
<g id="a_edge29_Node000006_Node000028"><a xlink:title=" ">
<path fill="none" stroke="#63b8ff" d="M1492.17,-276.28C1467.47,-264.99 1432.07,-248.81 1410.63,-239.02"/>
<polygon fill="#63b8ff" stroke="#63b8ff" points="1490.84,-279.52 1501.39,-280.49 1493.75,-273.15 1490.84,-279.52"/>
</a>
</g>
</g>
<!-- Node29 -->
<g id="Node000029" class="node">
<title>Node29</title>
<g id="a_Node000029"><a xlink:href="_uint8_8h.html" target="_top" xlink:title=" ">
<polygon fill="white" stroke="#666666" points="1573.5,-239 1466.5,-239 1466.5,-220 1573.5,-220 1573.5,-239"/>
<text text-anchor="middle" x="1520" y="-227" font-family="Helvetica,sans-Serif" font-size="10.00">Kit/Dm/Mp/Uint8.h</text>
</a>
</g>
</g>
<!-- Node6&#45;&gt;Node29 -->
<g id="edge30_Node000006_Node000029" class="edge">
<title>Node6&#45;&gt;Node29</title>
<g id="a_edge30_Node000006_Node000029"><a xlink:title=" ">
<path fill="none" stroke="#63b8ff" d="M1520,-270.16C1520,-259.74 1520,-247.3 1520,-239.17"/>
<polygon fill="#63b8ff" stroke="#63b8ff" points="1516.5,-270.37 1520,-280.37 1523.5,-270.37 1516.5,-270.37"/>
</a>
</g>
</g>
<!-- Node30 -->
<g id="Node000030" class="node">
<title>Node30</title>
<g id="a_Node000030"><a xlink:href="_void_8h.html" target="_top" xlink:title=" ">
<polygon fill="white" stroke="#666666" points="1692.5,-239 1591.5,-239 1591.5,-220 1692.5,-220 1692.5,-239"/>
<text text-anchor="middle" x="1642" y="-227" font-family="Helvetica,sans-Serif" font-size="10.00">Kit/Dm/Mp/Void.h</text>
</a>
</g>
</g>
<!-- Node6&#45;&gt;Node30 -->
<g id="edge32_Node000006_Node000030" class="edge">
<title>Node6&#45;&gt;Node30</title>
<g id="a_edge32_Node000006_Node000030"><a xlink:title=" ">
<path fill="none" stroke="#63b8ff" d="M1546.83,-276.13C1570.36,-264.85 1603.9,-248.77 1624.24,-239.02"/>
<polygon fill="#63b8ff" stroke="#63b8ff" points="1545.24,-273.01 1537.74,-280.49 1548.27,-279.33 1545.24,-273.01"/>
</a>
</g>
</g>
<!-- Node8 -->
<g id="Node000008" class="node">
<title>Node8</title>
<g id="a_Node000008"><a xlink:href="_dm_2_transaction_2_model_points_8h.html" target="_top" xlink:title="This file defines all of the Model Points for Example application.">
<polygon fill="white" stroke="#666666" points="1845.5,-184 1678.5,-184 1678.5,-143 1845.5,-143 1845.5,-184"/>
<text text-anchor="start" x="1686.5" y="-172" font-family="Helvetica,sans-Serif" font-size="10.00">/home/runner/work/kit.core</text>
<text text-anchor="start" x="1686.5" y="-161" font-family="Helvetica,sans-Serif" font-size="10.00">/kit.core/projects/examples</text>
<text text-anchor="middle" x="1762" y="-150" font-family="Helvetica,sans-Serif" font-size="10.00">/Dm/Transaction/ModelPoints.h</text>
</a>
</g>
</g>
<!-- Node7&#45;&gt;Node8 -->
<g id="edge7_Node000007_Node000008" class="edge">
<title>Node7&#45;&gt;Node8</title>
<g id="a_edge7_Node000007_Node000008"><a xlink:title=" ">
<path fill="none" stroke="#63b8ff" d="M1762,-209.63C1762,-201.56 1762,-192.15 1762,-184.01"/>
<polygon fill="#63b8ff" stroke="#63b8ff" points="1758.5,-209.87 1762,-219.87 1765.5,-209.87 1758.5,-209.87"/>
</a>
</g>
</g>
<!-- Node17 -->
<g id="Node000017" class="node">
<title>Node17</title>
<g id="a_Node000017"><a xlink:href="_boot_time_8h.html" target="_top" xlink:title=" ">
<polygon fill="white" stroke="#666666" points="1435.5,-173 1318.5,-173 1318.5,-154 1435.5,-154 1435.5,-173"/>
<text text-anchor="middle" x="1377" y="-161" font-family="Helvetica,sans-Serif" font-size="10.00">Kit/Time/BootTime.h</text>
</a>
</g>
</g>
<!-- Node16&#45;&gt;Node17 -->
<g id="edge16_Node000016_Node000017" class="edge">
<title>Node16&#45;&gt;Node17</title>
<g id="a_edge16_Node000016_Node000017"><a xlink:title=" ">
<path fill="none" stroke="#63b8ff" d="M1285.42,-215.03C1308.27,-202.42 1341.72,-183.97 1361.23,-173.2"/>
<polygon fill="#63b8ff" stroke="#63b8ff" points="1283.71,-211.97 1276.64,-219.87 1287.09,-218.1 1283.71,-211.97"/>
</a>
</g>
</g>
<!-- Node18&#45;&gt;Node17 -->
<g id="edge28_Node000018_Node000017" class="edge">
<title>Node18&#45;&gt;Node17</title>
<g id="a_edge28_Node000018_Node000017"><a xlink:title=" ">
<path fill="none" stroke="#63b8ff" d="M1173.66,-217.47C1208.87,-208.54 1259.66,-195.59 1304,-184 1317.58,-180.45 1332.56,-176.46 1345.4,-173.02"/>
<polygon fill="#63b8ff" stroke="#63b8ff" points="1172.54,-214.14 1163.71,-219.99 1174.26,-220.93 1172.54,-214.14"/>
</a>
</g>
</g>
<!-- Node19 -->
<g id="Node000019" class="node">
<title>Node19</title>
<g id="a_Node000019"><a xlink:href="_container_2_ring_buffer_2_model_points_8h.html" target="_top" xlink:title="This file defines all of the Model Points for Example application.">
<polygon fill="white" stroke="#666666" points="829.5,-184 636.5,-184 636.5,-143 829.5,-143 829.5,-184"/>
<text text-anchor="start" x="644.5" y="-172" font-family="Helvetica,sans-Serif" font-size="10.00">/home/runner/work/kit.core</text>
<text text-anchor="start" x="644.5" y="-161" font-family="Helvetica,sans-Serif" font-size="10.00">/kit.core/projects/examples</text>
<text text-anchor="middle" x="733" y="-150" font-family="Helvetica,sans-Serif" font-size="10.00">/Container/RingBuffer/ModelPoints.h</text>
</a>
</g>
</g>
<!-- Node18&#45;&gt;Node19 -->
<g id="edge18_Node000018_Node000019" class="edge">
<title>Node18&#45;&gt;Node19</title>
<g id="a_edge18_Node000018_Node000019"><a xlink:title=" ">
<path fill="none" stroke="#63b8ff" d="M1063.37,-218.9C1004.33,-210.25 915.82,-196.94 839,-184 835.96,-183.49 832.86,-182.96 829.74,-182.42"/>
<polygon fill="#63b8ff" stroke="#63b8ff" points="1062.92,-222.37 1073.32,-220.35 1063.93,-215.44 1062.92,-222.37"/>
</a>
</g>
</g>
<!-- Node20 -->
<g id="Node000020" class="node">
<title>Node20</title>
<g id="a_Node000020"><a xlink:href="_ring_buffer_m_p_8h.html" target="_top" xlink:title=" ">
<polygon fill="white" stroke="#666666" points="1004.5,-173 847.5,-173 847.5,-154 1004.5,-154 1004.5,-173"/>
<text text-anchor="middle" x="926" y="-161" font-family="Helvetica,sans-Serif" font-size="10.00">Kit/Container/RingBufferMP.h</text>
</a>
</g>
</g>
<!-- Node18&#45;&gt;Node20 -->
<g id="edge19_Node000018_Node000020" class="edge">
<title>Node18&#45;&gt;Node20</title>
<g id="a_edge19_Node000018_Node000020"><a xlink:title=" ">
<path fill="none" stroke="#63b8ff" d="M1092.78,-216.82C1052.54,-204.2 989.34,-184.37 953.4,-173.1"/>
<polygon fill="#63b8ff" stroke="#63b8ff" points="1091.9,-220.21 1102.49,-219.87 1093.99,-213.54 1091.9,-220.21"/>
</a>
</g>
</g>
<!-- Node24 -->
<g id="Node000024" class="node">
<title>Node24</title>
<g id="a_Node000024"><a xlink:href="_kit_only_8h.html" target="_top" xlink:title=" ">
<polygon fill="white" stroke="#666666" points="987.5,-30 858.5,-30 858.5,0 987.5,0 987.5,-30"/>
<text text-anchor="start" x="866.5" y="-18" font-family="Helvetica,sans-Serif" font-size="10.00">Kit/Logging/Framework</text>
<text text-anchor="middle" x="923" y="-7" font-family="Helvetica,sans-Serif" font-size="10.00">/Mocked4Test/KitOnly.h</text>
</a>
</g>
</g>
<!-- Node18&#45;&gt;Node24 -->
<g id="edge27_Node000018_Node000024" class="edge">
<title>Node18&#45;&gt;Node24</title>
<g id="a_edge27_Node000018_Node000024"><a xlink:title=" ">
<path fill="none" stroke="#63b8ff" d="M1156.95,-215.32C1210.06,-187.65 1319.11,-121.52 1271,-66 1235.07,-24.54 1078.03,-16.65 987.67,-15.63"/>
<polygon fill="#63b8ff" stroke="#63b8ff" points="1155.34,-212.2 1148.03,-219.87 1158.53,-218.44 1155.34,-212.2"/>
</a>
</g>
</g>
<!-- Node21 -->
<g id="Node000021" class="node">
<title>Node21</title>
<g id="a_Node000021"><a xlink:href="_led_server_8h.html" target="_top" xlink:title=" ">
<polygon fill="white" stroke="#666666" points="1261.5,-107 1080.5,-107 1080.5,-66 1261.5,-66 1261.5,-107"/>
<text text-anchor="start" x="1088.5" y="-95" font-family="Helvetica,sans-Serif" font-size="10.00">/home/runner/work/kit.core</text>
<text text-anchor="start" x="1088.5" y="-84" font-family="Helvetica,sans-Serif" font-size="10.00">/kit.core/projects/examples</text>
<text text-anchor="middle" x="1171" y="-73" font-family="Helvetica,sans-Serif" font-size="10.00">/Container/RingBuffer/LedServer.h</text>
</a>
</g>
</g>
<!-- Node20&#45;&gt;Node21 -->
<g id="edge20_Node000020_Node000021" class="edge">
<title>Node20&#45;&gt;Node21</title>
<g id="a_edge20_Node000020_Node000021"><a xlink:title=" ">
<path fill="none" stroke="#63b8ff" d="M963.8,-150.93C1001.96,-139.25 1061.61,-120.99 1107.12,-107.05"/>
<polygon fill="#63b8ff" stroke="#63b8ff" points="962.64,-147.62 954.1,-153.9 964.69,-154.32 962.64,-147.62"/>
</a>
</g>
</g>
<!-- Node22 -->
<g id="Node000022" class="node">
<title>Node22</title>
<g id="a_Node000022"><a xlink:href="_producer_8h.html" target="_top" xlink:title=" ">
<polygon fill="white" stroke="#666666" points="470.5,-107 295.5,-107 295.5,-66 470.5,-66 470.5,-107"/>
<text text-anchor="start" x="303.5" y="-95" font-family="Helvetica,sans-Serif" font-size="10.00">/home/runner/work/kit.core</text>
<text text-anchor="start" x="303.5" y="-84" font-family="Helvetica,sans-Serif" font-size="10.00">/kit.core/projects/examples</text>
<text text-anchor="middle" x="383" y="-73" font-family="Helvetica,sans-Serif" font-size="10.00">/Container/RingBuffer/Producer.h</text>
</a>
</g>
</g>
<!-- Node20&#45;&gt;Node22 -->
<g id="edge21_Node000020_Node000022" class="edge">
<title>Node20&#45;&gt;Node22</title>
<g id="a_edge21_Node000020_Node000022"><a xlink:title=" ">
<path fill="none" stroke="#63b8ff" d="M882.54,-151.68C868.69,-148.52 853.26,-145.31 839,-143 680.7,-117.42 638.58,-130.83 480,-107 476.94,-106.54 473.84,-106.05 470.7,-105.53"/>
<polygon fill="#63b8ff" stroke="#63b8ff" points="881.77,-155.09 892.3,-153.95 883.36,-148.28 881.77,-155.09"/>
</a>
</g>
</g>
<!-- Node23 -->
<g id="Node000023" class="node">
<title>Node23</title>
<g id="a_Node000023"><a xlink:href="_ring_buffer_m_p_allocate_8h.html" target="_top" xlink:title=" ">
<polygon fill="white" stroke="#666666" points="623,-101.5 489,-101.5 489,-71.5 623,-71.5 623,-101.5"/>
<text text-anchor="start" x="497" y="-89.5" font-family="Helvetica,sans-Serif" font-size="10.00">Kit/Container/RingBuffer</text>
<text text-anchor="middle" x="556" y="-78.5" font-family="Helvetica,sans-Serif" font-size="10.00">MPAllocate.h</text>
</a>
</g>
</g>
<!-- Node20&#45;&gt;Node23 -->
<g id="edge22_Node000020_Node000023" class="edge">
<title>Node20&#45;&gt;Node23</title>
<g id="a_edge22_Node000020_Node000023"><a xlink:title=" ">
<path fill="none" stroke="#63b8ff" d="M879.88,-151.73C866.7,-148.77 852.31,-145.65 839,-143 747.85,-124.83 723.89,-126.42 633,-107 625.31,-105.36 617.23,-103.48 609.31,-101.55"/>
<polygon fill="#63b8ff" stroke="#63b8ff" points="879.15,-155.16 889.68,-153.95 880.7,-148.33 879.15,-155.16"/>
</a>
</g>
</g>
<!-- Node25 -->
<g id="Node000025" class="node">
<title>Node25</title>
<g id="a_Node000025"><a xlink:href="_log_sink_8h.html" target="_top" xlink:title=" ">
<polygon fill="white" stroke="#666666" points="770.5,-101.5 641.5,-101.5 641.5,-71.5 770.5,-71.5 770.5,-101.5"/>
<text text-anchor="start" x="649.5" y="-89.5" font-family="Helvetica,sans-Serif" font-size="10.00">Kit/Logging/Framework</text>
<text text-anchor="middle" x="706" y="-78.5" font-family="Helvetica,sans-Serif" font-size="10.00">/LogSink.h</text>
</a>
</g>
</g>
<!-- Node20&#45;&gt;Node25 -->
<g id="edge24_Node000020_Node000025" class="edge">
<title>Node20&#45;&gt;Node25</title>
<g id="a_edge24_Node000020_Node000025"><a xlink:title=" ">
<path fill="none" stroke="#63b8ff" d="M890.9,-150.53C851.85,-137.22 788.82,-115.73 747.4,-101.61"/>
<polygon fill="#63b8ff" stroke="#63b8ff" points="890.17,-153.98 900.76,-153.9 892.43,-147.36 890.17,-153.98"/>
</a>
</g>
</g>
<!-- Node26 -->
<g id="Node000026" class="node">
<title>Node26</title>
<g id="a_Node000026"><a xlink:href="_logger_8h.html" target="_top" xlink:title="This file declares the public facing Logging interface for managing the logging framework (i....">
<polygon fill="white" stroke="#666666" points="917.5,-101.5 788.5,-101.5 788.5,-71.5 917.5,-71.5 917.5,-101.5"/>
<text text-anchor="start" x="796.5" y="-89.5" font-family="Helvetica,sans-Serif" font-size="10.00">Kit/Logging/Framework</text>
<text text-anchor="middle" x="853" y="-78.5" font-family="Helvetica,sans-Serif" font-size="10.00">/Logger.h</text>
</a>
</g>
</g>
<!-- Node20&#45;&gt;Node26 -->
<g id="edge25_Node000020_Node000026" class="edge">
<title>Node20&#45;&gt;Node26</title>
<g id="a_edge25_Node000020_Node000026"><a xlink:title=" ">
<path fill="none" stroke="#63b8ff" d="M910.34,-146.41C897.37,-133.09 879.14,-114.35 866.74,-101.61"/>
<polygon fill="#63b8ff" stroke="#63b8ff" points="908.14,-149.17 917.63,-153.9 913.16,-144.29 908.14,-149.17"/>
</a>
</g>
</g>
<!-- Node27 -->
<g id="Node000027" class="node">
<title>Node27</title>
<g id="a_Node000027"><a xlink:href="src_2_kit_2_persistence_2_record_2_journal_2_server_8h.html" target="_top" xlink:title=" ">
<polygon fill="white" stroke="#666666" points="1062,-101.5 936,-101.5 936,-71.5 1062,-71.5 1062,-101.5"/>
<text text-anchor="start" x="944" y="-89.5" font-family="Helvetica,sans-Serif" font-size="10.00">Kit/Persistence/Record</text>
<text text-anchor="middle" x="999" y="-78.5" font-family="Helvetica,sans-Serif" font-size="10.00">/Journal/Server.h</text>
</a>
</g>
</g>
<!-- Node20&#45;&gt;Node27 -->
<g id="edge26_Node000020_Node000027" class="edge">
<title>Node20&#45;&gt;Node27</title>
<g id="a_edge26_Node000020_Node000027"><a xlink:title=" ">
<path fill="none" stroke="#63b8ff" d="M941.66,-146.41C954.63,-133.09 972.86,-114.35 985.26,-101.61"/>
<polygon fill="#63b8ff" stroke="#63b8ff" points="938.84,-144.29 934.37,-153.9 943.86,-149.17 938.84,-144.29"/>
</a>
</g>
</g>
<!-- Node23&#45;&gt;Node24 -->
<g id="edge23_Node000023_Node000024" class="edge">
<title>Node23&#45;&gt;Node24</title>
<g id="a_edge23_Node000023_Node000024"><a xlink:title=" ">
<path fill="none" stroke="#63b8ff" d="M619.38,-69.04C623.98,-67.97 628.55,-66.94 633,-66 709.96,-49.65 799.27,-34.87 858.22,-25.7"/>
<polygon fill="#63b8ff" stroke="#63b8ff" points="618.23,-65.71 609.31,-71.43 619.85,-72.52 618.23,-65.71"/>
</a>
</g>
</g>
<!-- Node29&#45;&gt;Node17 -->
<g id="edge31_Node000029_Node000017" class="edge">
<title>Node29&#45;&gt;Node17</title>
<g id="a_edge31_Node000029_Node000017"><a xlink:title=" ">
<path fill="none" stroke="#63b8ff" d="M1491.39,-215.69C1463.2,-203.08 1420.92,-184.16 1396.44,-173.2"/>
<polygon fill="#63b8ff" stroke="#63b8ff" points="1490.16,-218.98 1500.71,-219.87 1493.02,-212.59 1490.16,-218.98"/>
</a>
</g>
</g>
<!-- Node32 -->
<g id="Node000032" class="node">
<title>Node32</title>
<g id="a_Node000032"><a xlink:href="_dir_walker_8h.html" target="_top" xlink:title=" ">
<polygon fill="white" stroke="#666666" points="465.5,-173 344.5,-173 344.5,-154 465.5,-154 465.5,-173"/>
<text text-anchor="middle" x="405" y="-161" font-family="Helvetica,sans-Serif" font-size="10.00">Kit/Io/File/DirWalker.h</text>
</a>
</g>
</g>
<!-- Node31&#45;&gt;Node32 -->
<g id="edge34_Node000031_Node000032" class="edge">
<title>Node31&#45;&gt;Node32</title>
<g id="a_edge34_Node000031_Node000032"><a xlink:title=" ">
<path fill="none" stroke="#63b8ff" d="M405.76,-278.26C469.88,-264.08 574.65,-240.69 576,-239 609.56,-196.91 527.42,-178.07 465.69,-170.03"/>
<polygon fill="#63b8ff" stroke="#63b8ff" points="404.85,-274.87 395.84,-280.45 406.36,-281.71 404.85,-274.87"/>
</a>
</g>
</g>
<!-- Node33 -->
<g id="Node000033" class="node">
<title>Node33</title>
<g id="a_Node000033"><a xlink:href="_i_dir_traverser_8h.html" target="_top" xlink:title=" ">
<polygon fill="white" stroke="#666666" points="276,-239 140,-239 140,-220 276,-220 276,-239"/>
<text text-anchor="middle" x="208" y="-227" font-family="Helvetica,sans-Serif" font-size="10.00">Kit/Io/File/IDirTraverser.h</text>
</a>
</g>
</g>
<!-- Node31&#45;&gt;Node33 -->
<g id="edge35_Node000031_Node000033" class="edge">
<title>Node31&#45;&gt;Node33</title>
<g id="a_edge35_Node000031_Node000033"><a xlink:title=" ">
<path fill="none" stroke="#63b8ff" d="M325.75,-276.73C296.95,-265.42 254.97,-248.94 229.69,-239.02"/>
<polygon fill="#63b8ff" stroke="#63b8ff" points="324.75,-280.1 335.33,-280.49 327.3,-273.58 324.75,-280.1"/>
</a>
</g>
</g>
<!-- Node34 -->
<g id="Node000034" class="node">
<title>Node34</title>
<g id="a_Node000034"><a xlink:href="_file_2_posix_2_fdio_8h.html" target="_top" xlink:title=" ">
<polygon fill="white" stroke="#666666" points="419.5,-239 294.5,-239 294.5,-220 419.5,-220 419.5,-239"/>
<text text-anchor="middle" x="357" y="-227" font-family="Helvetica,sans-Serif" font-size="10.00">Kit/Io/File/Posix/Fdio.h</text>
</a>
</g>
</g>
<!-- Node31&#45;&gt;Node34 -->
<g id="edge37_Node000031_Node000034" class="edge">
<title>Node31&#45;&gt;Node34</title>
<g id="a_edge37_Node000031_Node000034"><a xlink:title=" ">
<path fill="none" stroke="#63b8ff" d="M357,-270.16C357,-259.74 357,-247.3 357,-239.17"/>
<polygon fill="#63b8ff" stroke="#63b8ff" points="353.5,-270.37 357,-280.37 360.5,-270.37 353.5,-270.37"/>
</a>
</g>
</g>
<!-- Node35 -->
<g id="Node000035" class="node">
<title>Node35</title>
<g id="a_Node000035"><a xlink:href="_file_2_win32_2_fdio_8h.html" target="_top" xlink:title=" ">
<polygon fill="white" stroke="#666666" points="566.5,-239 437.5,-239 437.5,-220 566.5,-220 566.5,-239"/>
<text text-anchor="middle" x="502" y="-227" font-family="Helvetica,sans-Serif" font-size="10.00">Kit/Io/File/Win32/Fdio.h</text>
</a>
</g>
</g>
<!-- Node31&#45;&gt;Node35 -->
<g id="edge38_Node000031_Node000035" class="edge">
<title>Node31&#45;&gt;Node35</title>
<g id="a_edge38_Node000031_Node000035"><a xlink:title=" ">
<path fill="none" stroke="#63b8ff" d="M387.41,-276.73C415.43,-265.42 456.29,-248.94 480.89,-239.02"/>
<polygon fill="#63b8ff" stroke="#63b8ff" points="386.05,-273.51 378.08,-280.49 388.67,-280 386.05,-273.51"/>
</a>
</g>
</g>
<!-- Node33&#45;&gt;Node32 -->
<g id="edge36_Node000033_Node000032" class="edge">
<title>Node33&#45;&gt;Node32</title>
<g id="a_edge36_Node000033_Node000032"><a xlink:title=" ">
<path fill="none" stroke="#63b8ff" d="M244.44,-216.66C283.32,-204.03 343.98,-184.32 378.54,-173.1"/>
<polygon fill="#63b8ff" stroke="#63b8ff" points="243,-213.45 234.57,-219.87 245.16,-220.11 243,-213.45"/>
</a>
</g>
</g>
</g>
</svg>
