<?xml version="1.0" encoding="UTF-8" standalone="no"?>
<!DOCTYPE svg PUBLIC "-//W3C//DTD SVG 1.1//EN"
 "http://www.w3.org/Graphics/SVG/1.1/DTD/svg11.dtd">
<!-- Generated by graphviz version 2.43.0 (0)
 -->
<!-- Title: Kit/Text/FString.h Pages: 1 -->
<svg width="2950pt" height="302pt"
 viewBox="0.00 0.00 2949.50 302.00" xmlns="http://www.w3.org/2000/svg" xmlns:xlink="http://www.w3.org/1999/xlink">
<g id="graph0" class="graph" transform="scale(1 1) rotate(0) translate(4 298)">
<title>Kit/Text/FString.h</title>
<!-- Node1 -->
<g id="Node000001" class="node">
<title>Node1</title>
<g id="a_Node000001"><a xlink:title=" ">
<polygon fill="#999999" stroke="#666666" points="2332,-294 2233,-294 2233,-275 2332,-275 2332,-294"/>
<text text-anchor="middle" x="2282.5" y="-282" font-family="Helvetica,sans-Serif" font-size="10.00">Kit/Text/FString.h</text>
</a>
</g>
</g>
<!-- Node2 -->
<g id="Node000002" class="node">
<title>Node2</title>
<g id="a_Node000002"><a xlink:href="_primitive_type_8h.html" target="_top" xlink:title=" ">
<polygon fill="white" stroke="#666666" points="972,-233.5 825,-233.5 825,-214.5 972,-214.5 972,-233.5"/>
<text text-anchor="middle" x="898.5" y="-221.5" font-family="Helvetica,sans-Serif" font-size="10.00">Kit/Dm/Mp/PrimitiveType.h</text>
</a>
</g>
</g>
<!-- Node1&#45;&gt;Node2 -->
<g id="edge1_Node000001_Node000002" class="edge">
<title>Node1&#45;&gt;Node2</title>
<g id="a_edge1_Node000001_Node000002"><a xlink:title=" ">
<path fill="none" stroke="#63b8ff" d="M2222.64,-280.97C1999.52,-271.54 1216.6,-238.45 972.06,-228.11"/>
<polygon fill="#63b8ff" stroke="#63b8ff" points="2222.7,-284.48 2232.83,-281.4 2222.99,-277.48 2222.7,-284.48"/>
</a>
</g>
</g>
<!-- Node25 -->
<g id="Node000025" class="node">
<title>Node25</title>
<g id="a_Node000025"><a xlink:href="_system_8h.html" target="_top" xlink:title=" ">
<polygon fill="white" stroke="#666666" points="1926,-233.5 1815,-233.5 1815,-214.5 1926,-214.5 1926,-233.5"/>
<text text-anchor="middle" x="1870.5" y="-221.5" font-family="Helvetica,sans-Serif" font-size="10.00">Kit/Io/File/System.h</text>
</a>
</g>
</g>
<!-- Node1&#45;&gt;Node25 -->
<g id="edge26_Node000001_Node000025" class="edge">
<title>Node1&#45;&gt;Node25</title>
<g id="a_edge26_Node000001_Node000025"><a xlink:title=" ">
<path fill="none" stroke="#63b8ff" d="M2222.6,-277.38C2153.25,-269.92 2035.71,-256.19 1935.5,-239 1926.4,-237.44 1916.64,-235.49 1907.52,-233.54"/>
<polygon fill="#63b8ff" stroke="#63b8ff" points="2222.57,-280.89 2232.89,-278.47 2223.31,-273.93 2222.57,-280.89"/>
</a>
</g>
</g>
<!-- Node30 -->
<g id="Node000030" class="node">
<title>Node30</title>
<g id="a_Node000030"><a xlink:href="_socket_2_win32_2_fdio_8h.html" target="_top" xlink:title=" ">
<polygon fill="white" stroke="#666666" points="2055,-239 1944,-239 1944,-209 2055,-209 2055,-239"/>
<text text-anchor="start" x="1952" y="-227" font-family="Helvetica,sans-Serif" font-size="10.00">Kit/Io/Socket/Win32</text>
<text text-anchor="middle" x="1999.5" y="-216" font-family="Helvetica,sans-Serif" font-size="10.00">/Fdio.h</text>
</a>
</g>
</g>
<!-- Node1&#45;&gt;Node30 -->
<g id="edge32_Node000001_Node000030" class="edge">
<title>Node1&#45;&gt;Node30</title>
<g id="a_edge32_Node000001_Node000030"><a xlink:title=" ">
<path fill="none" stroke="#63b8ff" d="M2229.93,-272.93C2185.75,-264.02 2120.97,-250.84 2064.5,-239 2061.45,-238.36 2058.32,-237.7 2055.16,-237.03"/>
<polygon fill="#63b8ff" stroke="#63b8ff" points="2229.37,-276.39 2239.86,-274.94 2230.75,-269.53 2229.37,-276.39"/>
</a>
</g>
</g>
<!-- Node31 -->
<g id="Node000031" class="node">
<title>Node31</title>
<g id="a_Node000031"><a xlink:href="_free_r_t_o_s_2_thread_8h.html" target="_top" xlink:title=" ">
<polygon fill="white" stroke="#666666" points="2192,-239 2073,-239 2073,-209 2192,-209 2192,-239"/>
<text text-anchor="start" x="2081" y="-227" font-family="Helvetica,sans-Serif" font-size="10.00">Kit/System/FreeRTOS</text>
<text text-anchor="middle" x="2132.5" y="-216" font-family="Helvetica,sans-Serif" font-size="10.00">/Thread.h</text>
</a>
</g>
</g>
<!-- Node1&#45;&gt;Node31 -->
<g id="edge33_Node000001_Node000031" class="edge">
<title>Node1&#45;&gt;Node31</title>
<g id="a_edge33_Node000001_Node000031"><a xlink:title=" ">
<path fill="none" stroke="#63b8ff" d="M2251.3,-271.33C2227.2,-261.93 2193.81,-248.91 2168.56,-239.06"/>
<polygon fill="#63b8ff" stroke="#63b8ff" points="2250.1,-274.62 2260.69,-274.99 2252.64,-268.1 2250.1,-274.62"/>
</a>
</g>
</g>
<!-- Node32 -->
<g id="Node000032" class="node">
<title>Node32</title>
<g id="a_Node000032"><a xlink:href="_posix_2_thread_8h.html" target="_top" xlink:title=" ">
<polygon fill="white" stroke="#666666" points="2355,-233.5 2210,-233.5 2210,-214.5 2355,-214.5 2355,-233.5"/>
<text text-anchor="middle" x="2282.5" y="-221.5" font-family="Helvetica,sans-Serif" font-size="10.00">Kit/System/Posix/Thread.h</text>
</a>
</g>
</g>
<!-- Node1&#45;&gt;Node32 -->
<g id="edge34_Node000001_Node000032" class="edge">
<title>Node1&#45;&gt;Node32</title>
<g id="a_edge34_Node000001_Node000032"><a xlink:title=" ">
<path fill="none" stroke="#63b8ff" d="M2282.5,-264.66C2282.5,-254.24 2282.5,-241.8 2282.5,-233.67"/>
<polygon fill="#63b8ff" stroke="#63b8ff" points="2279,-264.87 2282.5,-274.87 2286,-264.87 2279,-264.87"/>
</a>
</g>
</g>
<!-- Node33 -->
<g id="Node000033" class="node">
<title>Node33</title>
<g id="a_Node000033"><a xlink:href="_r_p_pico_2_thread_8h.html" target="_top" xlink:title=" ">
<polygon fill="white" stroke="#666666" points="2525.5,-233.5 2373.5,-233.5 2373.5,-214.5 2525.5,-214.5 2525.5,-233.5"/>
<text text-anchor="middle" x="2449.5" y="-221.5" font-family="Helvetica,sans-Serif" font-size="10.00">Kit/System/RPPico/Thread.h</text>
</a>
</g>
</g>
<!-- Node1&#45;&gt;Node33 -->
<g id="edge35_Node000001_Node000033" class="edge">
<title>Node1&#45;&gt;Node33</title>
<g id="a_edge35_Node000001_Node000033"><a xlink:title=" ">
<path fill="none" stroke="#63b8ff" d="M2316.27,-271.67C2348.56,-260.36 2396.48,-243.57 2425.19,-233.52"/>
<polygon fill="#63b8ff" stroke="#63b8ff" points="2315.06,-268.38 2306.78,-274.99 2317.38,-274.99 2315.06,-268.38"/>
</a>
</g>
</g>
<!-- Node34 -->
<g id="Node000034" class="node">
<title>Node34</title>
<g id="a_Node000034"><a xlink:href="_win32_2_thread_8h.html" target="_top" xlink:title=" ">
<polygon fill="white" stroke="#666666" points="2693,-233.5 2544,-233.5 2544,-214.5 2693,-214.5 2693,-233.5"/>
<text text-anchor="middle" x="2618.5" y="-221.5" font-family="Helvetica,sans-Serif" font-size="10.00">Kit/System/Win32/Thread.h</text>
</a>
</g>
</g>
<!-- Node1&#45;&gt;Node34 -->
<g id="edge36_Node000001_Node000034" class="edge">
<title>Node1&#45;&gt;Node34</title>
<g id="a_edge36_Node000001_Node000034"><a xlink:title=" ">
<path fill="none" stroke="#63b8ff" d="M2341.41,-273.24C2406.19,-261.96 2509.09,-244.05 2569.58,-233.52"/>
<polygon fill="#63b8ff" stroke="#63b8ff" points="2340.61,-269.83 2331.36,-274.99 2341.81,-276.73 2340.61,-269.83"/>
</a>
</g>
</g>
<!-- Node35 -->
<g id="Node000035" class="node">
<title>Node35</title>
<g id="a_Node000035"><a xlink:href="_f_string_item_8h.html" target="_top" xlink:title=" ">
<polygon fill="white" stroke="#666666" points="2833.5,-233.5 2711.5,-233.5 2711.5,-214.5 2833.5,-214.5 2833.5,-233.5"/>
<text text-anchor="middle" x="2772.5" y="-221.5" font-family="Helvetica,sans-Serif" font-size="10.00">Kit/Text/FStringItem.h</text>
</a>
</g>
</g>
<!-- Node1&#45;&gt;Node35 -->
<g id="edge37_Node000001_Node000035" class="edge">
<title>Node1&#45;&gt;Node35</title>
<g id="a_edge37_Node000001_Node000035"><a xlink:title=" ">
<path fill="none" stroke="#63b8ff" d="M2342.24,-278.91C2423.89,-272.24 2574.77,-258.5 2702.5,-239 2712.42,-237.49 2723.08,-235.53 2733,-233.56"/>
<polygon fill="#63b8ff" stroke="#63b8ff" points="2341.84,-275.43 2332.15,-279.73 2342.4,-282.41 2341.84,-275.43"/>
</a>
</g>
</g>
<!-- Node36 -->
<g id="Node000036" class="node">
<title>Node36</title>
<g id="a_Node000036"><a xlink:href="_guid_8h.html" target="_top" xlink:title=" ">
<polygon fill="white" stroke="#666666" points="2941.5,-233.5 2851.5,-233.5 2851.5,-214.5 2941.5,-214.5 2941.5,-233.5"/>
<text text-anchor="middle" x="2896.5" y="-221.5" font-family="Helvetica,sans-Serif" font-size="10.00">Kit/Type/Guid.h</text>
</a>
</g>
</g>
<!-- Node1&#45;&gt;Node36 -->
<g id="edge38_Node000001_Node000036" class="edge">
<title>Node1&#45;&gt;Node36</title>
<g id="a_edge38_Node000001_Node000036"><a xlink:title=" ">
<path fill="none" stroke="#63b8ff" d="M2342.5,-282.16C2445.45,-279.1 2662.11,-269.31 2842.5,-239 2850.62,-237.64 2859.3,-235.63 2867.27,-233.57"/>
<polygon fill="#63b8ff" stroke="#63b8ff" points="2342.19,-278.67 2332.3,-282.45 2342.39,-285.66 2342.19,-278.67"/>
</a>
</g>
</g>
<!-- Node3 -->
<g id="Node000003" class="node">
<title>Node3</title>
<g id="a_Node000003"><a xlink:href="_bool_8h.html" target="_top" xlink:title=" ">
<polygon fill="white" stroke="#666666" points="1255.5,-173 1153.5,-173 1153.5,-154 1255.5,-154 1255.5,-173"/>
<text text-anchor="middle" x="1204.5" y="-161" font-family="Helvetica,sans-Serif" font-size="10.00">Kit/Dm/Mp/Bool.h</text>
</a>
</g>
</g>
<!-- Node2&#45;&gt;Node3 -->
<g id="edge2_Node000002_Node000003" class="edge">
<title>Node2&#45;&gt;Node3</title>
<g id="a_edge2_Node000002_Node000003"><a xlink:title=" ">
<path fill="none" stroke="#63b8ff" d="M952.88,-212.6C1011.92,-201.32 1105.08,-183.51 1159.95,-173.02"/>
<polygon fill="#63b8ff" stroke="#63b8ff" points="952.16,-209.18 943,-214.49 953.47,-216.05 952.16,-209.18"/>
</a>
</g>
</g>
<!-- Node5 -->
<g id="Node000005" class="node">
<title>Node5</title>
<g id="a_Node000005"><a xlink:href="_double_8h.html" target="_top" xlink:title=" ">
<polygon fill="white" stroke="#666666" points="1389,-173 1274,-173 1274,-154 1389,-154 1389,-173"/>
<text text-anchor="middle" x="1331.5" y="-161" font-family="Helvetica,sans-Serif" font-size="10.00">Kit/Dm/Mp/Double.h</text>
</a>
</g>
</g>
<!-- Node2&#45;&gt;Node5 -->
<g id="edge4_Node000002_Node000005" class="edge">
<title>Node2&#45;&gt;Node5</title>
<g id="a_edge4_Node000002_Node000005"><a xlink:title=" ">
<path fill="none" stroke="#63b8ff" d="M971.59,-213.13C1056.85,-201.61 1196.06,-182.8 1274,-172.27"/>
<polygon fill="#63b8ff" stroke="#63b8ff" points="970.9,-209.69 961.46,-214.49 971.84,-216.62 970.9,-209.69"/>
</a>
</g>
</g>
<!-- Node6 -->
<g id="Node000006" class="node">
<title>Node6</title>
<g id="a_Node000006"><a xlink:href="_float_8h.html" target="_top" xlink:title=" ">
<polygon fill="white" stroke="#666666" points="1512,-173 1407,-173 1407,-154 1512,-154 1512,-173"/>
<text text-anchor="middle" x="1459.5" y="-161" font-family="Helvetica,sans-Serif" font-size="10.00">Kit/Dm/Mp/Float.h</text>
</a>
</g>
</g>
<!-- Node2&#45;&gt;Node6 -->
<g id="edge5_Node000002_Node000006" class="edge">
<title>Node2&#45;&gt;Node6</title>
<g id="a_edge5_Node000002_Node000006"><a xlink:title=" ">
<path fill="none" stroke="#63b8ff" d="M982.11,-215.56C1081.31,-206.51 1251.64,-190.3 1397.5,-173 1400.52,-172.64 1403.62,-172.26 1406.75,-171.86"/>
<polygon fill="#63b8ff" stroke="#63b8ff" points="981.79,-212.07 972.15,-216.46 982.42,-219.04 981.79,-212.07"/>
</a>
</g>
</g>
<!-- Node7 -->
<g id="Node000007" class="node">
<title>Node7</title>
<g id="a_Node000007"><a xlink:href="_int16_8h.html" target="_top" xlink:title=" ">
<polygon fill="white" stroke="#666666" points="1635,-173 1530,-173 1530,-154 1635,-154 1635,-173"/>
<text text-anchor="middle" x="1582.5" y="-161" font-family="Helvetica,sans-Serif" font-size="10.00">Kit/Dm/Mp/Int16.h</text>
</a>
</g>
</g>
<!-- Node2&#45;&gt;Node7 -->
<g id="edge6_Node000002_Node000007" class="edge">
<title>Node2&#45;&gt;Node7</title>
<g id="a_edge6_Node000002_Node000007"><a xlink:title=" ">
<path fill="none" stroke="#63b8ff" d="M982.54,-217.74C1102.2,-209.92 1328.47,-193.87 1520.5,-173 1523.52,-172.67 1526.63,-172.31 1529.76,-171.94"/>
<polygon fill="#63b8ff" stroke="#63b8ff" points="982.1,-214.27 972.35,-218.41 982.56,-221.25 982.1,-214.27"/>
</a>
</g>
</g>
<!-- Node8 -->
<g id="Node000008" class="node">
<title>Node8</title>
<g id="a_Node000008"><a xlink:href="_int32_8h.html" target="_top" xlink:title=" ">
<polygon fill="white" stroke="#666666" points="105,-173 0,-173 0,-154 105,-154 105,-173"/>
<text text-anchor="middle" x="52.5" y="-161" font-family="Helvetica,sans-Serif" font-size="10.00">Kit/Dm/Mp/Int32.h</text>
</a>
</g>
</g>
<!-- Node2&#45;&gt;Node8 -->
<g id="edge7_Node000002_Node000008" class="edge">
<title>Node2&#45;&gt;Node8</title>
<g id="a_edge7_Node000002_Node000008"><a xlink:title=" ">
<path fill="none" stroke="#63b8ff" d="M814.68,-219.72C670.94,-213.64 368.25,-198.83 113.5,-173 110.73,-172.72 107.9,-172.41 105.04,-172.08"/>
<polygon fill="#63b8ff" stroke="#63b8ff" points="814.62,-223.22 824.75,-220.15 814.91,-216.23 814.62,-223.22"/>
</a>
</g>
</g>
<!-- Node9 -->
<g id="Node000009" class="node">
<title>Node9</title>
<g id="a_Node000009"><a xlink:href="_int64_8h.html" target="_top" xlink:title=" ">
<polygon fill="white" stroke="#666666" points="228,-173 123,-173 123,-154 228,-154 228,-173"/>
<text text-anchor="middle" x="175.5" y="-161" font-family="Helvetica,sans-Serif" font-size="10.00">Kit/Dm/Mp/Int64.h</text>
</a>
</g>
</g>
<!-- Node2&#45;&gt;Node9 -->
<g id="edge8_Node000002_Node000009" class="edge">
<title>Node2&#45;&gt;Node9</title>
<g id="a_edge8_Node000002_Node000009"><a xlink:title=" ">
<path fill="none" stroke="#63b8ff" d="M814.56,-218.36C688.74,-211.02 443.83,-195.25 236.5,-173 233.74,-172.7 230.9,-172.38 228.05,-172.04"/>
<polygon fill="#63b8ff" stroke="#63b8ff" points="814.7,-221.88 824.89,-218.96 815.11,-214.89 814.7,-221.88"/>
</a>
</g>
</g>
<!-- Node10 -->
<g id="Node000010" class="node">
<title>Node10</title>
<g id="a_Node000010"><a xlink:href="_int8_8h.html" target="_top" xlink:title=" ">
<polygon fill="white" stroke="#666666" points="345,-173 246,-173 246,-154 345,-154 345,-173"/>
<text text-anchor="middle" x="295.5" y="-161" font-family="Helvetica,sans-Serif" font-size="10.00">Kit/Dm/Mp/Int8.h</text>
</a>
</g>
</g>
<!-- Node2&#45;&gt;Node10 -->
<g id="edge9_Node000002_Node000010" class="edge">
<title>Node2&#45;&gt;Node10</title>
<g id="a_edge9_Node000002_Node000010"><a xlink:title=" ">
<path fill="none" stroke="#63b8ff" d="M814.82,-216.65C707.89,-208.23 517.15,-192.18 354.5,-173 351.42,-172.64 348.25,-172.24 345.05,-171.83"/>
<polygon fill="#63b8ff" stroke="#63b8ff" points="814.66,-220.15 824.9,-217.44 815.21,-213.17 814.66,-220.15"/>
</a>
</g>
</g>
<!-- Node11 -->
<g id="Node000011" class="node">
<title>Node11</title>
<g id="a_Node000011"><a xlink:href="_ref_counter_8h.html" target="_top" xlink:title=" ">
<polygon fill="white" stroke="#666666" points="497.5,-173 363.5,-173 363.5,-154 497.5,-154 497.5,-173"/>
<text text-anchor="middle" x="430.5" y="-161" font-family="Helvetica,sans-Serif" font-size="10.00">Kit/Dm/Mp/RefCounter.h</text>
</a>
</g>
</g>
<!-- Node2&#45;&gt;Node11 -->
<g id="edge10_Node000002_Node000011" class="edge">
<title>Node2&#45;&gt;Node11</title>
<g id="a_edge10_Node000002_Node000011"><a xlink:title=" ">
<path fill="none" stroke="#63b8ff" d="M820.28,-213.22C730.06,-201.94 583.23,-183.59 497.87,-172.92"/>
<polygon fill="#63b8ff" stroke="#63b8ff" points="820.09,-216.73 830.45,-214.49 820.96,-209.78 820.09,-216.73"/>
</a>
</g>
</g>
<!-- Node12 -->
<g id="Node000012" class="node">
<title>Node12</title>
<g id="a_Node000012"><a xlink:href="_uint16_8h.html" target="_top" xlink:title=" ">
<polygon fill="white" stroke="#666666" points="760,-173 647,-173 647,-154 760,-154 760,-173"/>
<text text-anchor="middle" x="703.5" y="-161" font-family="Helvetica,sans-Serif" font-size="10.00">Kit/Dm/Mp/Uint16.h</text>
</a>
</g>
</g>
<!-- Node2&#45;&gt;Node12 -->
<g id="edge11_Node000002_Node000012" class="edge">
<title>Node2&#45;&gt;Node12</title>
<g id="a_edge11_Node000002_Node000012"><a xlink:title=" ">
<path fill="none" stroke="#63b8ff" d="M860.53,-211.61C822.81,-200.29 765.84,-183.2 731.89,-173.02"/>
<polygon fill="#63b8ff" stroke="#63b8ff" points="859.56,-214.97 870.15,-214.49 861.57,-208.27 859.56,-214.97"/>
</a>
</g>
</g>
<!-- Node14 -->
<g id="Node000014" class="node">
<title>Node14</title>
<g id="a_Node000014"><a xlink:href="_uint32_8h.html" target="_top" xlink:title=" ">
<polygon fill="white" stroke="#666666" points="629,-173 516,-173 516,-154 629,-154 629,-173"/>
<text text-anchor="middle" x="572.5" y="-161" font-family="Helvetica,sans-Serif" font-size="10.00">Kit/Dm/Mp/Uint32.h</text>
</a>
</g>
</g>
<!-- Node2&#45;&gt;Node14 -->
<g id="edge13_Node000002_Node000014" class="edge">
<title>Node2&#45;&gt;Node14</title>
<g id="a_edge13_Node000002_Node000014"><a xlink:title=" ">
<path fill="none" stroke="#63b8ff" d="M840.95,-212.67C778.08,-201.39 678.54,-183.53 619.96,-173.02"/>
<polygon fill="#63b8ff" stroke="#63b8ff" points="840.64,-216.17 851.1,-214.49 841.87,-209.28 840.64,-216.17"/>
</a>
</g>
</g>
<!-- Node22 -->
<g id="Node000022" class="node">
<title>Node22</title>
<g id="a_Node000022"><a xlink:href="_uint64_8h.html" target="_top" xlink:title=" ">
<polygon fill="white" stroke="#666666" points="891,-173 778,-173 778,-154 891,-154 891,-173"/>
<text text-anchor="middle" x="834.5" y="-161" font-family="Helvetica,sans-Serif" font-size="10.00">Kit/Dm/Mp/Uint64.h</text>
</a>
</g>
</g>
<!-- Node2&#45;&gt;Node22 -->
<g id="edge22_Node000002_Node000022" class="edge">
<title>Node2&#45;&gt;Node22</title>
<g id="a_edge22_Node000002_Node000022"><a xlink:title=" ">
<path fill="none" stroke="#63b8ff" d="M881.44,-207.41C869.44,-196.44 853.83,-182.17 843.98,-173.17"/>
<polygon fill="#63b8ff" stroke="#63b8ff" points="879.31,-210.2 889.06,-214.37 884.04,-205.04 879.31,-210.2"/>
</a>
</g>
</g>
<!-- Node23 -->
<g id="Node000023" class="node">
<title>Node23</title>
<g id="a_Node000023"><a xlink:href="_uint8_8h.html" target="_top" xlink:title=" ">
<polygon fill="white" stroke="#666666" points="1016,-173 909,-173 909,-154 1016,-154 1016,-173"/>
<text text-anchor="middle" x="962.5" y="-161" font-family="Helvetica,sans-Serif" font-size="10.00">Kit/Dm/Mp/Uint8.h</text>
</a>
</g>
</g>
<!-- Node2&#45;&gt;Node23 -->
<g id="edge23_Node000002_Node000023" class="edge">
<title>Node2&#45;&gt;Node23</title>
<g id="a_edge23_Node000002_Node000023"><a xlink:title=" ">
<path fill="none" stroke="#63b8ff" d="M915.56,-207.41C927.56,-196.44 943.17,-182.17 953.02,-173.17"/>
<polygon fill="#63b8ff" stroke="#63b8ff" points="912.96,-205.04 907.94,-214.37 917.69,-210.2 912.96,-205.04"/>
</a>
</g>
</g>
<!-- Node24 -->
<g id="Node000024" class="node">
<title>Node24</title>
<g id="a_Node000024"><a xlink:href="_void_8h.html" target="_top" xlink:title=" ">
<polygon fill="white" stroke="#666666" points="1135,-173 1034,-173 1034,-154 1135,-154 1135,-173"/>
<text text-anchor="middle" x="1084.5" y="-161" font-family="Helvetica,sans-Serif" font-size="10.00">Kit/Dm/Mp/Void.h</text>
</a>
</g>
</g>
<!-- Node2&#45;&gt;Node24 -->
<g id="edge25_Node000002_Node000024" class="edge">
<title>Node2&#45;&gt;Node24</title>
<g id="a_edge25_Node000002_Node000024"><a xlink:title=" ">
<path fill="none" stroke="#63b8ff" d="M935.18,-211.46C971.16,-200.15 1025.17,-183.16 1057.42,-173.02"/>
<polygon fill="#63b8ff" stroke="#63b8ff" points="934.04,-208.15 925.55,-214.49 936.14,-214.83 934.04,-208.15"/>
</a>
</g>
</g>
<!-- Node4 -->
<g id="Node000004" class="node">
<title>Node4</title>
<g id="a_Node000004"><a xlink:href="_dm_2_transaction_2_model_points_8h.html" target="_top" xlink:title="This file defines all of the Model Points for Example application.">
<polygon fill="white" stroke="#666666" points="1288,-118 1121,-118 1121,-77 1288,-77 1288,-118"/>
<text text-anchor="start" x="1129" y="-106" font-family="Helvetica,sans-Serif" font-size="10.00">/home/runner/work/kit.core</text>
<text text-anchor="start" x="1129" y="-95" font-family="Helvetica,sans-Serif" font-size="10.00">/kit.core/projects/examples</text>
<text text-anchor="middle" x="1204.5" y="-84" font-family="Helvetica,sans-Serif" font-size="10.00">/Dm/Transaction/ModelPoints.h</text>
</a>
</g>
</g>
<!-- Node3&#45;&gt;Node4 -->
<g id="edge3_Node000003_Node000004" class="edge">
<title>Node3&#45;&gt;Node4</title>
<g id="a_edge3_Node000003_Node000004"><a xlink:title=" ">
<path fill="none" stroke="#63b8ff" d="M1204.5,-143.63C1204.5,-135.56 1204.5,-126.15 1204.5,-118.01"/>
<polygon fill="#63b8ff" stroke="#63b8ff" points="1201,-143.87 1204.5,-153.87 1208,-143.87 1201,-143.87"/>
</a>
</g>
</g>
<!-- Node13 -->
<g id="Node000013" class="node">
<title>Node13</title>
<g id="a_Node000013"><a xlink:href="_boot_time_8h.html" target="_top" xlink:title=" ">
<polygon fill="white" stroke="#666666" points="786,-107 669,-107 669,-88 786,-88 786,-107"/>
<text text-anchor="middle" x="727.5" y="-95" font-family="Helvetica,sans-Serif" font-size="10.00">Kit/Time/BootTime.h</text>
</a>
</g>
</g>
<!-- Node12&#45;&gt;Node13 -->
<g id="edge12_Node000012_Node000013" class="edge">
<title>Node12&#45;&gt;Node13</title>
<g id="a_edge12_Node000012_Node000013"><a xlink:title=" ">
<path fill="none" stroke="#63b8ff" d="M710.32,-144.32C714.85,-132.24 720.6,-116.91 724.16,-107.41"/>
<polygon fill="#63b8ff" stroke="#63b8ff" points="706.97,-143.28 706.74,-153.87 713.53,-145.73 706.97,-143.28"/>
</a>
</g>
</g>
<!-- Node14&#45;&gt;Node13 -->
<g id="edge21_Node000014_Node000013" class="edge">
<title>Node14&#45;&gt;Node13</title>
<g id="a_edge21_Node000014_Node000013"><a xlink:title=" ">
<path fill="none" stroke="#63b8ff" d="M602.72,-150.02C633.26,-137.41 679.66,-118.25 706.43,-107.2"/>
<polygon fill="#63b8ff" stroke="#63b8ff" points="601.31,-146.82 593.4,-153.87 603.98,-153.29 601.31,-146.82"/>
</a>
</g>
</g>
<!-- Node15 -->
<g id="Node000015" class="node">
<title>Node15</title>
<g id="a_Node000015"><a xlink:href="_container_2_ring_buffer_2_model_points_8h.html" target="_top" xlink:title="This file defines all of the Model Points for Example application.">
<polygon fill="white" stroke="#666666" points="476,-118 283,-118 283,-77 476,-77 476,-118"/>
<text text-anchor="start" x="291" y="-106" font-family="Helvetica,sans-Serif" font-size="10.00">/home/runner/work/kit.core</text>
<text text-anchor="start" x="291" y="-95" font-family="Helvetica,sans-Serif" font-size="10.00">/kit.core/projects/examples</text>
<text text-anchor="middle" x="379.5" y="-84" font-family="Helvetica,sans-Serif" font-size="10.00">/Container/RingBuffer/ModelPoints.h</text>
</a>
</g>
</g>
<!-- Node14&#45;&gt;Node15 -->
<g id="edge14_Node000014_Node000015" class="edge">
<title>Node14&#45;&gt;Node15</title>
<g id="a_edge14_Node000014_Node000015"><a xlink:title=" ">
<path fill="none" stroke="#63b8ff" d="M536.85,-150.68C509.27,-141.53 470.49,-128.67 438.33,-118.01"/>
<polygon fill="#63b8ff" stroke="#63b8ff" points="535.88,-154.04 546.47,-153.87 538.08,-147.4 535.88,-154.04"/>
</a>
</g>
</g>
<!-- Node16 -->
<g id="Node000016" class="node">
<title>Node16</title>
<g id="a_Node000016"><a xlink:href="_ring_buffer_m_p_8h.html" target="_top" xlink:title=" ">
<polygon fill="white" stroke="#666666" points="651,-107 494,-107 494,-88 651,-88 651,-107"/>
<text text-anchor="middle" x="572.5" y="-95" font-family="Helvetica,sans-Serif" font-size="10.00">Kit/Container/RingBufferMP.h</text>
</a>
</g>
</g>
<!-- Node14&#45;&gt;Node16 -->
<g id="edge15_Node000014_Node000016" class="edge">
<title>Node14&#45;&gt;Node16</title>
<g id="a_edge15_Node000014_Node000016"><a xlink:title=" ">
<path fill="none" stroke="#63b8ff" d="M572.5,-143.58C572.5,-131.63 572.5,-116.72 572.5,-107.41"/>
<polygon fill="#63b8ff" stroke="#63b8ff" points="569,-143.87 572.5,-153.87 576,-143.87 569,-143.87"/>
</a>
</g>
</g>
<!-- Node17 -->
<g id="Node000017" class="node">
<title>Node17</title>
<g id="a_Node000017"><a xlink:href="_led_server_8h.html" target="_top" xlink:title=" ">
<polygon fill="white" stroke="#666666" points="294,-41 113,-41 113,0 294,0 294,-41"/>
<text text-anchor="start" x="121" y="-29" font-family="Helvetica,sans-Serif" font-size="10.00">/home/runner/work/kit.core</text>
<text text-anchor="start" x="121" y="-18" font-family="Helvetica,sans-Serif" font-size="10.00">/kit.core/projects/examples</text>
<text text-anchor="middle" x="203.5" y="-7" font-family="Helvetica,sans-Serif" font-size="10.00">/Container/RingBuffer/LedServer.h</text>
</a>
</g>
</g>
<!-- Node16&#45;&gt;Node17 -->
<g id="edge16_Node000016_Node000017" class="edge">
<title>Node16&#45;&gt;Node17</title>
<g id="a_edge16_Node000016_Node000017"><a xlink:title=" ">
<path fill="none" stroke="#63b8ff" d="M525.07,-85.78C511.95,-82.87 497.68,-79.76 484.5,-77 475.01,-75.01 372.74,-54.84 294.29,-39.38"/>
<polygon fill="#63b8ff" stroke="#63b8ff" points="524.34,-89.2 534.86,-87.96 525.86,-82.37 524.34,-89.2"/>
</a>
</g>
</g>
<!-- Node18 -->
<g id="Node000018" class="node">
<title>Node18</title>
<g id="a_Node000018"><a xlink:href="_producer_8h.html" target="_top" xlink:title=" ">
<polygon fill="white" stroke="#666666" points="487,-41 312,-41 312,0 487,0 487,-41"/>
<text text-anchor="start" x="320" y="-29" font-family="Helvetica,sans-Serif" font-size="10.00">/home/runner/work/kit.core</text>
<text text-anchor="start" x="320" y="-18" font-family="Helvetica,sans-Serif" font-size="10.00">/kit.core/projects/examples</text>
<text text-anchor="middle" x="399.5" y="-7" font-family="Helvetica,sans-Serif" font-size="10.00">/Container/RingBuffer/Producer.h</text>
</a>
</g>
</g>
<!-- Node16&#45;&gt;Node18 -->
<g id="edge17_Node000016_Node000018" class="edge">
<title>Node16&#45;&gt;Node18</title>
<g id="a_edge17_Node000016_Node000018"><a xlink:title=" ">
<path fill="none" stroke="#63b8ff" d="M543.36,-83.87C516.36,-72.16 475.79,-54.57 444.6,-41.05"/>
<polygon fill="#63b8ff" stroke="#63b8ff" points="542.09,-87.13 552.65,-87.9 544.87,-80.71 542.09,-87.13"/>
</a>
</g>
</g>
<!-- Node19 -->
<g id="Node000019" class="node">
<title>Node19</title>
<g id="a_Node000019"><a xlink:href="_ring_buffer_m_p_allocate_8h.html" target="_top" xlink:title=" ">
<polygon fill="white" stroke="#666666" points="639.5,-35.5 505.5,-35.5 505.5,-5.5 639.5,-5.5 639.5,-35.5"/>
<text text-anchor="start" x="513.5" y="-23.5" font-family="Helvetica,sans-Serif" font-size="10.00">Kit/Container/RingBuffer</text>
<text text-anchor="middle" x="572.5" y="-12.5" font-family="Helvetica,sans-Serif" font-size="10.00">MPAllocate.h</text>
</a>
</g>
</g>
<!-- Node16&#45;&gt;Node19 -->
<g id="edge18_Node000016_Node000019" class="edge">
<title>Node16&#45;&gt;Node19</title>
<g id="a_edge18_Node000016_Node000019"><a xlink:title=" ">
<path fill="none" stroke="#63b8ff" d="M572.5,-77.7C572.5,-64.64 572.5,-47.51 572.5,-35.61"/>
<polygon fill="#63b8ff" stroke="#63b8ff" points="569,-77.9 572.5,-87.9 576,-77.9 569,-77.9"/>
</a>
</g>
</g>
<!-- Node20 -->
<g id="Node000020" class="node">
<title>Node20</title>
<g id="a_Node000020"><a xlink:href="_log_sink_8h.html" target="_top" xlink:title=" ">
<polygon fill="white" stroke="#666666" points="787,-35.5 658,-35.5 658,-5.5 787,-5.5 787,-35.5"/>
<text text-anchor="start" x="666" y="-23.5" font-family="Helvetica,sans-Serif" font-size="10.00">Kit/Logging/Framework</text>
<text text-anchor="middle" x="722.5" y="-12.5" font-family="Helvetica,sans-Serif" font-size="10.00">/LogSink.h</text>
</a>
</g>
</g>
<!-- Node16&#45;&gt;Node20 -->
<g id="edge19_Node000016_Node000020" class="edge">
<title>Node16&#45;&gt;Node20</title>
<g id="a_edge19_Node000016_Node000020"><a xlink:title=" ">
<path fill="none" stroke="#63b8ff" d="M598.85,-83.32C625.6,-69.95 666.87,-49.31 694.28,-35.61"/>
<polygon fill="#63b8ff" stroke="#63b8ff" points="597.09,-80.29 589.71,-87.9 600.22,-86.55 597.09,-80.29"/>
</a>
</g>
</g>
<!-- Node21 -->
<g id="Node000021" class="node">
<title>Node21</title>
<g id="a_Node000021"><a xlink:href="src_2_kit_2_persistence_2_record_2_journal_2_server_8h.html" target="_top" xlink:title=" ">
<polygon fill="white" stroke="#666666" points="931.5,-35.5 805.5,-35.5 805.5,-5.5 931.5,-5.5 931.5,-35.5"/>
<text text-anchor="start" x="813.5" y="-23.5" font-family="Helvetica,sans-Serif" font-size="10.00">Kit/Persistence/Record</text>
<text text-anchor="middle" x="868.5" y="-12.5" font-family="Helvetica,sans-Serif" font-size="10.00">/Journal/Server.h</text>
</a>
</g>
</g>
<!-- Node16&#45;&gt;Node21 -->
<g id="edge20_Node000016_Node000021" class="edge">
<title>Node16&#45;&gt;Node21</title>
<g id="a_edge20_Node000016_Node000021"><a xlink:title=" ">
<path fill="none" stroke="#63b8ff" d="M617.46,-85.55C662.53,-74.52 733.91,-56.89 795.5,-41 802.23,-39.26 809.31,-37.41 816.29,-35.56"/>
<polygon fill="#63b8ff" stroke="#63b8ff" points="616.58,-82.16 607.69,-87.94 618.24,-88.96 616.58,-82.16"/>
</a>
</g>
</g>
<!-- Node23&#45;&gt;Node13 -->
<g id="edge24_Node000023_Node000013" class="edge">
<title>Node23&#45;&gt;Node13</title>
<g id="a_edge24_Node000023_Node000013"><a xlink:title=" ">
<path fill="none" stroke="#63b8ff" d="M921.09,-151.22C874.81,-138.62 800.9,-118.49 759.07,-107.1"/>
<polygon fill="#63b8ff" stroke="#63b8ff" points="920.24,-154.62 930.81,-153.87 922.08,-147.86 920.24,-154.62"/>
</a>
</g>
</g>
<!-- Node26 -->
<g id="Node000026" class="node">
<title>Node26</title>
<g id="a_Node000026"><a xlink:href="_dir_walker_8h.html" target="_top" xlink:title=" ">
<polygon fill="white" stroke="#666666" points="1975,-107 1854,-107 1854,-88 1975,-88 1975,-107"/>
<text text-anchor="middle" x="1914.5" y="-95" font-family="Helvetica,sans-Serif" font-size="10.00">Kit/Io/File/DirWalker.h</text>
</a>
</g>
</g>
<!-- Node25&#45;&gt;Node26 -->
<g id="edge27_Node000025_Node000026" class="edge">
<title>Node25&#45;&gt;Node26</title>
<g id="a_edge27_Node000025_Node000026"><a xlink:title=" ">
<path fill="none" stroke="#63b8ff" d="M1919.26,-212.26C1983.38,-198.08 2088.15,-174.69 2089.5,-173 2123.98,-129.76 2038.42,-111.21 1975.15,-103.55"/>
<polygon fill="#63b8ff" stroke="#63b8ff" points="1918.35,-208.87 1909.34,-214.45 1919.86,-215.71 1918.35,-208.87"/>
</a>
</g>
</g>
<!-- Node27 -->
<g id="Node000027" class="node">
<title>Node27</title>
<g id="a_Node000027"><a xlink:href="_i_dir_traverser_8h.html" target="_top" xlink:title=" ">
<polygon fill="white" stroke="#666666" points="1789.5,-173 1653.5,-173 1653.5,-154 1789.5,-154 1789.5,-173"/>
<text text-anchor="middle" x="1721.5" y="-161" font-family="Helvetica,sans-Serif" font-size="10.00">Kit/Io/File/IDirTraverser.h</text>
</a>
</g>
</g>
<!-- Node25&#45;&gt;Node27 -->
<g id="edge28_Node000025_Node000027" class="edge">
<title>Node25&#45;&gt;Node27</title>
<g id="a_edge28_Node000025_Node000027"><a xlink:title=" ">
<path fill="none" stroke="#63b8ff" d="M1839.25,-210.73C1810.45,-199.42 1768.47,-182.94 1743.19,-173.02"/>
<polygon fill="#63b8ff" stroke="#63b8ff" points="1838.25,-214.1 1848.83,-214.49 1840.8,-207.58 1838.25,-214.1"/>
</a>
</g>
</g>
<!-- Node28 -->
<g id="Node000028" class="node">
<title>Node28</title>
<g id="a_Node000028"><a xlink:href="_file_2_posix_2_fdio_8h.html" target="_top" xlink:title=" ">
<polygon fill="white" stroke="#666666" points="1933,-173 1808,-173 1808,-154 1933,-154 1933,-173"/>
<text text-anchor="middle" x="1870.5" y="-161" font-family="Helvetica,sans-Serif" font-size="10.00">Kit/Io/File/Posix/Fdio.h</text>
</a>
</g>
</g>
<!-- Node25&#45;&gt;Node28 -->
<g id="edge30_Node000025_Node000028" class="edge">
<title>Node25&#45;&gt;Node28</title>
<g id="a_edge30_Node000025_Node000028"><a xlink:title=" ">
<path fill="none" stroke="#63b8ff" d="M1870.5,-204.16C1870.5,-193.74 1870.5,-181.3 1870.5,-173.17"/>
<polygon fill="#63b8ff" stroke="#63b8ff" points="1867,-204.37 1870.5,-214.37 1874,-204.37 1867,-204.37"/>
</a>
</g>
</g>
<!-- Node29 -->
<g id="Node000029" class="node">
<title>Node29</title>
<g id="a_Node000029"><a xlink:href="_file_2_win32_2_fdio_8h.html" target="_top" xlink:title=" ">
<polygon fill="white" stroke="#666666" points="2080,-173 1951,-173 1951,-154 2080,-154 2080,-173"/>
<text text-anchor="middle" x="2015.5" y="-161" font-family="Helvetica,sans-Serif" font-size="10.00">Kit/Io/File/Win32/Fdio.h</text>
</a>
</g>
</g>
<!-- Node25&#45;&gt;Node29 -->
<g id="edge31_Node000025_Node000029" class="edge">
<title>Node25&#45;&gt;Node29</title>
<g id="a_edge31_Node000025_Node000029"><a xlink:title=" ">
<path fill="none" stroke="#63b8ff" d="M1900.91,-210.73C1928.93,-199.42 1969.79,-182.94 1994.39,-173.02"/>
<polygon fill="#63b8ff" stroke="#63b8ff" points="1899.55,-207.51 1891.58,-214.49 1902.17,-214 1899.55,-207.51"/>
</a>
</g>
</g>
<!-- Node27&#45;&gt;Node26 -->
<g id="edge29_Node000027_Node000026" class="edge">
<title>Node27&#45;&gt;Node26</title>
<g id="a_edge29_Node000027_Node000026"><a xlink:title=" ">
<path fill="none" stroke="#63b8ff" d="M1757.2,-150.66C1795.29,-138.03 1854.72,-118.32 1888.58,-107.1"/>
<polygon fill="#63b8ff" stroke="#63b8ff" points="1755.92,-147.4 1747.53,-153.87 1758.12,-154.04 1755.92,-147.4"/>
</a>
</g>
</g>
</g>
</svg>
