<?xml version="1.0" encoding="UTF-8" standalone="no"?>
<!DOCTYPE svg PUBLIC "-//W3C//DTD SVG 1.1//EN"
 "http://www.w3.org/Graphics/SVG/1.1/DTD/svg11.dtd">
<!-- Generated by graphviz version 2.43.0 (0)
 -->
<!-- Title: Kit/Text/FString.h Pages: 1 -->
<svg width="1091pt" height="203pt"
 viewBox="0.00 0.00 1090.50 203.00" xmlns="http://www.w3.org/2000/svg" xmlns:xlink="http://www.w3.org/1999/xlink">
<g id="graph0" class="graph" transform="scale(1 1) rotate(0) translate(4 199)">
<title>Kit/Text/FString.h</title>
<!-- Node1 -->
<g id="Node000001" class="node">
<title>Node1</title>
<g id="a_Node000001"><a xlink:title=" ">
<polygon fill="#999999" stroke="#666666" points="644,-195 545,-195 545,-176 644,-176 644,-195"/>
<text text-anchor="middle" x="594.5" y="-183" font-family="Helvetica,sans-Serif" font-size="10.00">Kit/Text/FString.h</text>
</a>
</g>
</g>
<!-- Node2 -->
<g id="Node000002" class="node">
<title>Node2</title>
<g id="a_Node000002"><a xlink:href="_system_8h.html" target="_top" xlink:title=" ">
<polygon fill="white" stroke="#666666" points="238,-134.5 127,-134.5 127,-115.5 238,-115.5 238,-134.5"/>
<text text-anchor="middle" x="182.5" y="-122.5" font-family="Helvetica,sans-Serif" font-size="10.00">Kit/Io/File/System.h</text>
</a>
</g>
</g>
<!-- Node1&#45;&gt;Node2 -->
<g id="edge1_Node000001_Node000002" class="edge">
<title>Node1&#45;&gt;Node2</title>
<g id="a_edge1_Node000001_Node000002"><a xlink:title=" ">
<path fill="none" stroke="#63b8ff" d="M534.6,-178.38C465.25,-170.92 347.71,-157.19 247.5,-140 238.4,-138.44 228.64,-136.49 219.52,-134.54"/>
<polygon fill="#63b8ff" stroke="#63b8ff" points="534.57,-181.89 544.89,-179.47 535.31,-174.93 534.57,-181.89"/>
</a>
</g>
</g>
<!-- Node7 -->
<g id="Node000007" class="node">
<title>Node7</title>
<g id="a_Node000007"><a xlink:href="_socket_2_win32_2_fdio_8h.html" target="_top" xlink:title=" ">
<polygon fill="white" stroke="#666666" points="367,-140 256,-140 256,-110 367,-110 367,-140"/>
<text text-anchor="start" x="264" y="-128" font-family="Helvetica,sans-Serif" font-size="10.00">Kit/Io/Socket/Win32</text>
<text text-anchor="middle" x="311.5" y="-117" font-family="Helvetica,sans-Serif" font-size="10.00">/Fdio.h</text>
</a>
</g>
</g>
<!-- Node1&#45;&gt;Node7 -->
<g id="edge7_Node000001_Node000007" class="edge">
<title>Node1&#45;&gt;Node7</title>
<g id="a_edge7_Node000001_Node000007"><a xlink:title=" ">
<path fill="none" stroke="#63b8ff" d="M541.93,-173.93C497.75,-165.02 432.97,-151.84 376.5,-140 373.45,-139.36 370.32,-138.7 367.16,-138.03"/>
<polygon fill="#63b8ff" stroke="#63b8ff" points="541.37,-177.39 551.86,-175.94 542.75,-170.53 541.37,-177.39"/>
</a>
</g>
</g>
<!-- Node8 -->
<g id="Node000008" class="node">
<title>Node8</title>
<g id="a_Node000008"><a xlink:href="_free_r_t_o_s_2_thread_8h.html" target="_top" xlink:title=" ">
<polygon fill="white" stroke="#666666" points="504,-140 385,-140 385,-110 504,-110 504,-140"/>
<text text-anchor="start" x="393" y="-128" font-family="Helvetica,sans-Serif" font-size="10.00">Kit/System/FreeRTOS</text>
<text text-anchor="middle" x="444.5" y="-117" font-family="Helvetica,sans-Serif" font-size="10.00">/Thread.h</text>
</a>
</g>
</g>
<!-- Node1&#45;&gt;Node8 -->
<g id="edge8_Node000001_Node000008" class="edge">
<title>Node1&#45;&gt;Node8</title>
<g id="a_edge8_Node000001_Node000008"><a xlink:title=" ">
<path fill="none" stroke="#63b8ff" d="M563.3,-172.33C539.2,-162.93 505.81,-149.91 480.56,-140.06"/>
<polygon fill="#63b8ff" stroke="#63b8ff" points="562.1,-175.62 572.69,-175.99 564.64,-169.1 562.1,-175.62"/>
</a>
</g>
</g>
<!-- Node9 -->
<g id="Node000009" class="node">
<title>Node9</title>
<g id="a_Node000009"><a xlink:href="_posix_2_thread_8h.html" target="_top" xlink:title=" ">
<polygon fill="white" stroke="#666666" points="667,-134.5 522,-134.5 522,-115.5 667,-115.5 667,-134.5"/>
<text text-anchor="middle" x="594.5" y="-122.5" font-family="Helvetica,sans-Serif" font-size="10.00">Kit/System/Posix/Thread.h</text>
</a>
</g>
</g>
<!-- Node1&#45;&gt;Node9 -->
<g id="edge9_Node000001_Node000009" class="edge">
<title>Node1&#45;&gt;Node9</title>
<g id="a_edge9_Node000001_Node000009"><a xlink:title=" ">
<path fill="none" stroke="#63b8ff" d="M594.5,-165.66C594.5,-155.24 594.5,-142.8 594.5,-134.67"/>
<polygon fill="#63b8ff" stroke="#63b8ff" points="591,-165.87 594.5,-175.87 598,-165.87 591,-165.87"/>
</a>
</g>
</g>
<!-- Node10 -->
<g id="Node000010" class="node">
<title>Node10</title>
<g id="a_Node000010"><a xlink:href="_win32_2_thread_8h.html" target="_top" xlink:title=" ">
<polygon fill="white" stroke="#666666" points="834,-134.5 685,-134.5 685,-115.5 834,-115.5 834,-134.5"/>
<text text-anchor="middle" x="759.5" y="-122.5" font-family="Helvetica,sans-Serif" font-size="10.00">Kit/System/Win32/Thread.h</text>
</a>
</g>
</g>
<!-- Node1&#45;&gt;Node10 -->
<g id="edge10_Node000001_Node000010" class="edge">
<title>Node1&#45;&gt;Node10</title>
<g id="a_edge10_Node000001_Node000010"><a xlink:title=" ">
<path fill="none" stroke="#63b8ff" d="M628.28,-172.52C660.18,-161.21 707.24,-144.53 735.48,-134.52"/>
<polygon fill="#63b8ff" stroke="#63b8ff" points="626.75,-169.35 618.49,-175.99 629.09,-175.95 626.75,-169.35"/>
</a>
</g>
</g>
<!-- Node11 -->
<g id="Node000011" class="node">
<title>Node11</title>
<g id="a_Node000011"><a xlink:href="_f_string_item_8h.html" target="_top" xlink:title=" ">
<polygon fill="white" stroke="#666666" points="974.5,-134.5 852.5,-134.5 852.5,-115.5 974.5,-115.5 974.5,-134.5"/>
<text text-anchor="middle" x="913.5" y="-122.5" font-family="Helvetica,sans-Serif" font-size="10.00">Kit/Text/FStringItem.h</text>
</a>
</g>
</g>
<!-- Node1&#45;&gt;Node11 -->
<g id="edge11_Node000001_Node000011" class="edge">
<title>Node1&#45;&gt;Node11</title>
<g id="a_edge11_Node000001_Node000011"><a xlink:title=" ">
<path fill="none" stroke="#63b8ff" d="M654.25,-174.18C704.73,-165.37 778.91,-152.23 843.5,-140 852.63,-138.27 862.42,-136.35 871.7,-134.51"/>
<polygon fill="#63b8ff" stroke="#63b8ff" points="653.41,-170.77 644.16,-175.93 654.61,-177.67 653.41,-170.77"/>
</a>
</g>
</g>
<!-- Node12 -->
<g id="Node000012" class="node">
<title>Node12</title>
<g id="a_Node000012"><a xlink:href="_guid_8h.html" target="_top" xlink:title=" ">
<polygon fill="white" stroke="#666666" points="1082.5,-134.5 992.5,-134.5 992.5,-115.5 1082.5,-115.5 1082.5,-134.5"/>
<text text-anchor="middle" x="1037.5" y="-122.5" font-family="Helvetica,sans-Serif" font-size="10.00">Kit/Type/Guid.h</text>
</a>
</g>
</g>
<!-- Node1&#45;&gt;Node12 -->
<g id="edge12_Node000001_Node000012" class="edge">
<title>Node1&#45;&gt;Node12</title>
<g id="a_edge12_Node000001_Node000012"><a xlink:title=" ">
<path fill="none" stroke="#63b8ff" d="M654.69,-180.24C731.47,-174.2 868.13,-161.45 983.5,-140 991.4,-138.53 999.86,-136.54 1007.68,-134.53"/>
<polygon fill="#63b8ff" stroke="#63b8ff" points="653.96,-176.78 644.26,-181.05 654.5,-183.76 653.96,-176.78"/>
</a>
</g>
</g>
<!-- Node3 -->
<g id="Node000003" class="node">
<title>Node3</title>
<g id="a_Node000003"><a xlink:href="_dir_walker_8h.html" target="_top" xlink:title=" ">
<polygon fill="white" stroke="#666666" points="121,-19 0,-19 0,0 121,0 121,-19"/>
<text text-anchor="middle" x="60.5" y="-7" font-family="Helvetica,sans-Serif" font-size="10.00">Kit/Io/File/DirWalker.h</text>
</a>
</g>
</g>
<!-- Node2&#45;&gt;Node3 -->
<g id="edge2_Node000002_Node000003" class="edge">
<title>Node2&#45;&gt;Node3</title>
<g id="a_edge2_Node000002_Node000003"><a xlink:title=" ">
<path fill="none" stroke="#63b8ff" d="M116.72,-119.47C85.56,-113.63 50.98,-100.97 31.5,-74 18.73,-56.32 38.25,-32.11 50.97,-19.29"/>
<polygon fill="#63b8ff" stroke="#63b8ff" points="116.25,-122.94 126.69,-121.14 117.41,-116.04 116.25,-122.94"/>
</a>
</g>
</g>
<!-- Node4 -->
<g id="Node000004" class="node">
<title>Node4</title>
<g id="a_Node000004"><a xlink:href="_i_dir_traverser_8h.html" target="_top" xlink:title=" ">
<polygon fill="white" stroke="#666666" points="176.5,-74 40.5,-74 40.5,-55 176.5,-55 176.5,-74"/>
<text text-anchor="middle" x="108.5" y="-62" font-family="Helvetica,sans-Serif" font-size="10.00">Kit/Io/File/IDirTraverser.h</text>
</a>
</g>
</g>
<!-- Node2&#45;&gt;Node4 -->
<g id="edge3_Node000002_Node000004" class="edge">
<title>Node2&#45;&gt;Node4</title>
<g id="a_edge3_Node000002_Node000004"><a xlink:title=" ">
<path fill="none" stroke="#63b8ff" d="M163.57,-109.04C149.6,-97.99 131.07,-83.34 119.46,-74.17"/>
<polygon fill="#63b8ff" stroke="#63b8ff" points="161.57,-111.91 171.58,-115.37 165.91,-106.42 161.57,-111.91"/>
</a>
</g>
</g>
<!-- Node5 -->
<g id="Node000005" class="node">
<title>Node5</title>
<g id="a_Node000005"><a xlink:href="_file_2_posix_2_fdio_8h.html" target="_top" xlink:title=" ">
<polygon fill="white" stroke="#666666" points="320,-74 195,-74 195,-55 320,-55 320,-74"/>
<text text-anchor="middle" x="257.5" y="-62" font-family="Helvetica,sans-Serif" font-size="10.00">Kit/Io/File/Posix/Fdio.h</text>
</a>
</g>
</g>
<!-- Node2&#45;&gt;Node5 -->
<g id="edge5_Node000002_Node000005" class="edge">
<title>Node2&#45;&gt;Node5</title>
<g id="a_edge5_Node000002_Node000005"><a xlink:title=" ">
<path fill="none" stroke="#63b8ff" d="M201.68,-109.04C215.85,-97.99 234.63,-83.34 246.39,-74.17"/>
<polygon fill="#63b8ff" stroke="#63b8ff" points="199.3,-106.46 193.57,-115.37 203.6,-111.98 199.3,-106.46"/>
</a>
</g>
</g>
<!-- Node6 -->
<g id="Node000006" class="node">
<title>Node6</title>
<g id="a_Node000006"><a xlink:href="_file_2_win32_2_fdio_8h.html" target="_top" xlink:title=" ">
<polygon fill="white" stroke="#666666" points="467,-74 338,-74 338,-55 467,-55 467,-74"/>
<text text-anchor="middle" x="402.5" y="-62" font-family="Helvetica,sans-Serif" font-size="10.00">Kit/Io/File/Win32/Fdio.h</text>
</a>
</g>
</g>
<!-- Node2&#45;&gt;Node6 -->
<g id="edge6_Node000002_Node000006" class="edge">
<title>Node2&#45;&gt;Node6</title>
<g id="a_edge6_Node000002_Node000006"><a xlink:title=" ">
<path fill="none" stroke="#63b8ff" d="M224.26,-112.9C266.8,-101.58 331.84,-84.29 370.47,-74.02"/>
<polygon fill="#63b8ff" stroke="#63b8ff" points="223.25,-109.54 214.49,-115.49 225.05,-116.31 223.25,-109.54"/>
</a>
</g>
</g>
<!-- Node4&#45;&gt;Node3 -->
<g id="edge4_Node000004_Node000003" class="edge">
<title>Node4&#45;&gt;Node3</title>
<g id="a_edge4_Node000004_Node000003"><a xlink:title=" ">
<path fill="none" stroke="#63b8ff" d="M93.77,-47.24C85.36,-37.95 75.15,-26.68 68.28,-19.09"/>
<polygon fill="#63b8ff" stroke="#63b8ff" points="91.27,-49.69 100.57,-54.75 96.46,-44.99 91.27,-49.69"/>
</a>
</g>
</g>
</g>
</svg>
