<?xml version="1.0" encoding="UTF-8" standalone="no"?>
<!DOCTYPE svg PUBLIC "-//W3C//DTD SVG 1.1//EN"
 "http://www.w3.org/Graphics/SVG/1.1/DTD/svg11.dtd">
<!-- Generated by graphviz version 2.43.0 (0)
 -->
<!-- Title: /home/runner/work/kit.core/kit.core/projects/examples/Container/Lists/Flasher.h Pages: 1 -->
<svg width="1106pt" height="324pt"
 viewBox="0.00 0.00 1106.00 324.00" xmlns="http://www.w3.org/2000/svg" xmlns:xlink="http://www.w3.org/1999/xlink">
<g id="graph0" class="graph" transform="scale(1 1) rotate(0) translate(4 320)">
<title>/home/runner/work/kit.core/kit.core/projects/examples/Container/Lists/Flasher.h</title>
<!-- Node1 -->
<g id="Node000001" class="node">
<title>Node1</title>
<g id="a_Node000001"><a xlink:title=" ">
<polygon fill="#999999" stroke="#666666" points="436,-316 287,-316 287,-275 436,-275 436,-316"/>
<text text-anchor="start" x="295" y="-304" font-family="Helvetica,sans-Serif" font-size="10.00">/home/runner/work/kit.core</text>
<text text-anchor="start" x="295" y="-293" font-family="Helvetica,sans-Serif" font-size="10.00">/kit.core/projects/examples</text>
<text text-anchor="middle" x="361.5" y="-282" font-family="Helvetica,sans-Serif" font-size="10.00">/Container/Lists/Flasher.h</text>
</a>
</g>
</g>
<!-- Node2 -->
<g id="Node000002" class="node">
<title>Node2</title>
<g id="a_Node000002"><a xlink:href="_d_list_8h.html" target="_top" xlink:title=" ">
<polygon fill="white" stroke="#666666" points="141,-184 24,-184 24,-165 141,-165 141,-184"/>
<text text-anchor="middle" x="82.5" y="-172" font-family="Helvetica,sans-Serif" font-size="10.00">Kit/Container/DList.h</text>
</a>
</g>
</g>
<!-- Node1&#45;&gt;Node2 -->
<g id="edge1_Node000001_Node000002" class="edge">
<title>Node1&#45;&gt;Node2</title>
<g id="a_edge1_Node000001_Node000002"><a xlink:title=" ">
<path fill="none" stroke="#63b8ff" d="M286.9,-287.3C241.39,-280.25 183.51,-266.35 138.5,-239 119.54,-227.48 103.47,-207.47 93.47,-192.99"/>
<polygon fill="#63b8ff" stroke="#63b8ff" points="96.24,-190.83 87.81,-184.41 90.4,-194.68 96.24,-190.83"/>
</a>
</g>
</g>
<!-- Node6 -->
<g id="Node000006" class="node">
<title>Node6</title>
<g id="a_Node000006"><a xlink:href="_bsp_2_api_8h.html" target="_top" xlink:title="This file defines a common/generic Board Support Package (BSP) Interface that provides an indirect re...">
<polygon fill="white" stroke="#666666" points="469,-184 390,-184 390,-165 469,-165 469,-184"/>
<text text-anchor="middle" x="429.5" y="-172" font-family="Helvetica,sans-Serif" font-size="10.00">Kit/Bsp/Api.h</text>
</a>
</g>
</g>
<!-- Node1&#45;&gt;Node6 -->
<g id="edge5_Node000001_Node000006" class="edge">
<title>Node1&#45;&gt;Node6</title>
<g id="a_edge5_Node000001_Node000006"><a xlink:title=" ">
<path fill="none" stroke="#63b8ff" d="M372.73,-274.85C385.75,-252.07 407.01,-214.85 419.49,-193.02"/>
<polygon fill="#63b8ff" stroke="#63b8ff" points="422.62,-194.59 424.54,-184.18 416.54,-191.12 422.62,-194.59"/>
</a>
</g>
</g>
<!-- Node9 -->
<g id="Node000009" class="node">
<title>Node9</title>
<g id="a_Node000009"><a xlink:href="_system_2_api_8h.html" target="_top" xlink:title="This file defines methods for initializing the KIT C++ class library and other startup/init actions.">
<polygon fill="white" stroke="#666666" points="333.5,-184 235.5,-184 235.5,-165 333.5,-165 333.5,-184"/>
<text text-anchor="middle" x="284.5" y="-172" font-family="Helvetica,sans-Serif" font-size="10.00">Kit/System/Api.h</text>
</a>
</g>
</g>
<!-- Node1&#45;&gt;Node9 -->
<g id="edge8_Node000001_Node000009" class="edge">
<title>Node1&#45;&gt;Node9</title>
<g id="a_edge8_Node000001_Node000009"><a xlink:title=" ">
<path fill="none" stroke="#63b8ff" d="M348.79,-274.85C333.98,-251.96 309.75,-214.52 295.64,-192.72"/>
<polygon fill="#63b8ff" stroke="#63b8ff" points="298.48,-190.67 290.11,-184.18 292.61,-194.47 298.48,-190.67"/>
</a>
</g>
</g>
<!-- Node10 -->
<g id="Node000010" class="node">
<title>Node10</title>
<g id="a_Node000010"><a xlink:title=" ">
<polygon fill="#e0e0e0" stroke="#999999" points="388,-19 335,-19 335,0 388,0 388,-19"/>
<text text-anchor="middle" x="361.5" y="-7" font-family="Helvetica,sans-Serif" font-size="10.00">stdint.h</text>
</a>
</g>
</g>
<!-- Node1&#45;&gt;Node10 -->
<g id="edge37_Node000001_Node000010" class="edge">
<title>Node1&#45;&gt;Node10</title>
<g id="a_edge37_Node000001_Node000010"><a xlink:title=" ">
<path fill="none" stroke="#63b8ff" d="M361.5,-274.71C361.5,-251.09 361.5,-210.41 361.5,-175.5 361.5,-175.5 361.5,-175.5 361.5,-118.5 361.5,-87.19 361.5,-50.77 361.5,-29.23"/>
<polygon fill="#63b8ff" stroke="#63b8ff" points="365,-29.18 361.5,-19.18 358,-29.18 365,-29.18"/>
</a>
</g>
</g>
<!-- Node11 -->
<g id="Node000011" class="node">
<title>Node11</title>
<g id="a_Node000011"><a xlink:href="_trace_8h.html" target="_top" xlink:title="This file provides an interface for a &#39;printf&#39; tracing mechanism.">
<polygon fill="white" stroke="#666666" points="562,-239 455,-239 455,-220 562,-220 562,-239"/>
<text text-anchor="middle" x="508.5" y="-227" font-family="Helvetica,sans-Serif" font-size="10.00">Kit/System/Trace.h</text>
</a>
</g>
</g>
<!-- Node1&#45;&gt;Node11 -->
<g id="edge10_Node000001_Node000011" class="edge">
<title>Node1&#45;&gt;Node11</title>
<g id="a_edge10_Node000001_Node000011"><a xlink:title=" ">
<path fill="none" stroke="#63b8ff" d="M406.4,-274.95C430.17,-264.6 458.65,-252.2 479.49,-243.13"/>
<polygon fill="#63b8ff" stroke="#63b8ff" points="480.99,-246.29 488.77,-239.09 478.2,-239.87 480.99,-246.29"/>
</a>
</g>
</g>
<!-- Node23 -->
<g id="Node000023" class="node">
<title>Node23</title>
<g id="a_Node000023"><a xlink:href="_period_8h.html" target="_top" xlink:title=" ">
<polygon fill="white" stroke="#666666" points="279.5,-239 147.5,-239 147.5,-220 279.5,-220 279.5,-239"/>
<text text-anchor="middle" x="213.5" y="-227" font-family="Helvetica,sans-Serif" font-size="10.00">Container/Lists/Period.h</text>
</a>
</g>
</g>
<!-- Node1&#45;&gt;Node23 -->
<g id="edge31_Node000001_Node000023" class="edge">
<title>Node1&#45;&gt;Node23</title>
<g id="a_edge31_Node000001_Node000023"><a xlink:title=" ">
<path fill="none" stroke="#63b8ff" d="M316.29,-274.95C292.37,-264.6 263.69,-252.2 242.71,-243.13"/>
<polygon fill="#63b8ff" stroke="#63b8ff" points="243.94,-239.85 233.37,-239.09 241.16,-246.27 243.94,-239.85"/>
</a>
</g>
</g>
<!-- Node24 -->
<g id="Node000024" class="node">
<title>Node24</title>
<g id="a_Node000024"><a xlink:title=" ">
<polygon fill="#e0e0e0" stroke="#999999" points="645,-239 580,-239 580,-220 645,-220 645,-239"/>
<text text-anchor="middle" x="612.5" y="-227" font-family="Helvetica,sans-Serif" font-size="10.00">inttypes.h</text>
</a>
</g>
</g>
<!-- Node1&#45;&gt;Node24 -->
<g id="edge38_Node000001_Node000024" class="edge">
<title>Node1&#45;&gt;Node24</title>
<g id="a_edge38_Node000001_Node000024"><a xlink:title=" ">
<path fill="none" stroke="#63b8ff" d="M436.13,-275.47C479.85,-264.32 533.49,-250.65 570.05,-241.32"/>
<polygon fill="#63b8ff" stroke="#63b8ff" points="571.07,-244.68 579.89,-238.81 569.34,-237.89 571.07,-244.68"/>
</a>
</g>
</g>
<!-- Node3 -->
<g id="Node000003" class="node">
<title>Node3</title>
<g id="a_Node000003"><a xlink:href="_d_list_base_8h.html" target="_top" xlink:title=" ">
<polygon fill="white" stroke="#666666" points="141,-129 0,-129 0,-110 141,-110 141,-129"/>
<text text-anchor="middle" x="70.5" y="-117" font-family="Helvetica,sans-Serif" font-size="10.00">Kit/Container/DListBase.h</text>
</a>
</g>
</g>
<!-- Node2&#45;&gt;Node3 -->
<g id="edge2_Node000002_Node000003" class="edge">
<title>Node2&#45;&gt;Node3</title>
<g id="a_edge2_Node000002_Node000003"><a xlink:title=" ">
<path fill="none" stroke="#63b8ff" d="M80.52,-164.75C78.93,-157.72 76.64,-147.62 74.65,-138.84"/>
<polygon fill="#63b8ff" stroke="#63b8ff" points="78.07,-138.07 72.44,-129.09 71.24,-139.62 78.07,-138.07"/>
</a>
</g>
</g>
<!-- Node4 -->
<g id="Node000004" class="node">
<title>Node4</title>
<g id="a_Node000004"><a xlink:href="_list_item_8h.html" target="_top" xlink:title=" ">
<polygon fill="white" stroke="#666666" points="158.5,-74 26.5,-74 26.5,-55 158.5,-55 158.5,-74"/>
<text text-anchor="middle" x="92.5" y="-62" font-family="Helvetica,sans-Serif" font-size="10.00">Kit/Container/ListItem.h</text>
</a>
</g>
</g>
<!-- Node3&#45;&gt;Node4 -->
<g id="edge3_Node000003_Node000004" class="edge">
<title>Node3&#45;&gt;Node4</title>
<g id="a_edge3_Node000003_Node000004"><a xlink:title=" ">
<path fill="none" stroke="#63b8ff" d="M74.13,-109.75C77.08,-102.65 81.33,-92.4 85.01,-83.56"/>
<polygon fill="#63b8ff" stroke="#63b8ff" points="88.33,-84.67 88.93,-74.09 81.87,-81.98 88.33,-84.67"/>
</a>
</g>
</g>
<!-- Node5 -->
<g id="Node000005" class="node">
<title>Node5</title>
<g id="a_Node000005"><a xlink:href="_item_8h.html" target="_top" xlink:title=" ">
<polygon fill="white" stroke="#666666" points="150,-19 35,-19 35,0 150,0 150,-19"/>
<text text-anchor="middle" x="92.5" y="-7" font-family="Helvetica,sans-Serif" font-size="10.00">Kit/Container/Item.h</text>
</a>
</g>
</g>
<!-- Node4&#45;&gt;Node5 -->
<g id="edge4_Node000004_Node000005" class="edge">
<title>Node4&#45;&gt;Node5</title>
<g id="a_edge4_Node000004_Node000005"><a xlink:title=" ">
<path fill="none" stroke="#63b8ff" d="M92.5,-54.75C92.5,-47.8 92.5,-37.85 92.5,-29.13"/>
<polygon fill="#63b8ff" stroke="#63b8ff" points="96,-29.09 92.5,-19.09 89,-29.09 96,-29.09"/>
</a>
</g>
</g>
<!-- Node7 -->
<g id="Node000007" class="node">
<title>Node7</title>
<g id="a_Node000007"><a xlink:title=" ">
<polygon fill="#e0e0e0" stroke="#999999" points="546,-74 473,-74 473,-55 546,-55 546,-74"/>
<text text-anchor="middle" x="509.5" y="-62" font-family="Helvetica,sans-Serif" font-size="10.00">kit_config.h</text>
</a>
</g>
</g>
<!-- Node6&#45;&gt;Node7 -->
<g id="edge6_Node000006_Node000007" class="edge">
<title>Node6&#45;&gt;Node7</title>
<g id="a_edge6_Node000006_Node000007"><a xlink:title=" ">
<path fill="none" stroke="#63b8ff" d="M436.05,-164.66C449.36,-146.69 479.77,-105.64 496.99,-82.38"/>
<polygon fill="#63b8ff" stroke="#63b8ff" points="499.95,-84.28 503.09,-74.16 494.32,-80.11 499.95,-84.28"/>
</a>
</g>
</g>
<!-- Node8 -->
<g id="Node000008" class="node">
<title>Node8</title>
<g id="a_Node000008"><a xlink:title=" ">
<polygon fill="#e0e0e0" stroke="#999999" points="455,-74 390,-74 390,-55 455,-55 455,-74"/>
<text text-anchor="middle" x="422.5" y="-62" font-family="Helvetica,sans-Serif" font-size="10.00">kit_map.h</text>
</a>
</g>
</g>
<!-- Node6&#45;&gt;Node8 -->
<g id="edge7_Node000006_Node000008" class="edge">
<title>Node6&#45;&gt;Node8</title>
<g id="a_edge7_Node000006_Node000008"><a xlink:title=" ">
<path fill="none" stroke="#63b8ff" d="M428.93,-164.66C427.79,-147.17 425.24,-107.8 423.72,-84.27"/>
<polygon fill="#63b8ff" stroke="#63b8ff" points="427.2,-83.91 423.06,-74.16 420.22,-84.36 427.2,-83.91"/>
</a>
</g>
</g>
<!-- Node9&#45;&gt;Node10 -->
<g id="edge9_Node000009_Node000010" class="edge">
<title>Node9&#45;&gt;Node10</title>
<g id="a_edge9_Node000009_Node000010"><a xlink:title=" ">
<path fill="none" stroke="#63b8ff" d="M288.64,-164.74C300.76,-139.09 336.33,-63.78 352.87,-28.78"/>
<polygon fill="#63b8ff" stroke="#63b8ff" points="356.23,-29.84 357.34,-19.31 349.9,-26.85 356.23,-29.84"/>
</a>
</g>
</g>
<!-- Node11&#45;&gt;Node7 -->
<g id="edge11_Node000011_Node000007" class="edge">
<title>Node11&#45;&gt;Node7</title>
<g id="a_edge11_Node000011_Node000007"><a xlink:title=" ">
<path fill="none" stroke="#63b8ff" d="M508.55,-219.74C508.71,-194.31 509.17,-120.08 509.38,-84.69"/>
<polygon fill="#63b8ff" stroke="#63b8ff" points="512.88,-84.33 509.45,-74.31 505.88,-84.29 512.88,-84.33"/>
</a>
</g>
</g>
<!-- Node12 -->
<g id="Node000012" class="node">
<title>Node12</title>
<g id="a_Node000012"><a xlink:href="_i_string_8h.html" target="_top" xlink:title=" ">
<polygon fill="white" stroke="#666666" points="954,-129 857,-129 857,-110 954,-110 954,-129"/>
<text text-anchor="middle" x="905.5" y="-117" font-family="Helvetica,sans-Serif" font-size="10.00">Kit/Text/IString.h</text>
</a>
</g>
</g>
<!-- Node11&#45;&gt;Node12 -->
<g id="edge12_Node000011_Node000012" class="edge">
<title>Node11&#45;&gt;Node12</title>
<g id="a_edge12_Node000011_Node000012"><a xlink:title=" ">
<path fill="none" stroke="#63b8ff" d="M562.2,-220.66C635.75,-209.79 761.08,-190.71 781.5,-184 819.03,-171.67 859.14,-149.23 883.27,-134.59"/>
<polygon fill="#63b8ff" stroke="#63b8ff" points="885.31,-137.45 891.99,-129.22 881.64,-131.49 885.31,-137.45"/>
</a>
</g>
</g>
<!-- Node16 -->
<g id="Node000016" class="node">
<title>Node16</title>
<g id="a_Node000016"><a xlink:href="printfchecker_8h.html" target="_top" xlink:title="This file contains macro that enables the GCC (and Clang) compiler to validate printf flags with thei...">
<polygon fill="white" stroke="#666666" points="1098,-74 953,-74 953,-55 1098,-55 1098,-74"/>
<text text-anchor="middle" x="1025.5" y="-62" font-family="Helvetica,sans-Serif" font-size="10.00">Kit/System/printfchecker.h</text>
</a>
</g>
</g>
<!-- Node11&#45;&gt;Node16 -->
<g id="edge20_Node000011_Node000016" class="edge">
<title>Node11&#45;&gt;Node16</title>
<g id="a_edge20_Node000011_Node000016"><a xlink:title=" ">
<path fill="none" stroke="#63b8ff" d="M562.31,-221.25C644.2,-210.13 793.2,-189.59 817.5,-184 895.71,-166 927.21,-179.61 989.5,-129 1003.92,-117.28 1013.63,-98.16 1019.3,-83.95"/>
<polygon fill="#63b8ff" stroke="#63b8ff" points="1022.7,-84.85 1022.85,-74.25 1016.13,-82.44 1022.7,-84.85"/>
</a>
</g>
</g>
<!-- Node19 -->
<g id="Node000019" class="node">
<title>Node19</title>
<g id="a_Node000019"><a xlink:href="_i_output_8h.html" target="_top" xlink:title=" ">
<polygon fill="white" stroke="#666666" points="772.5,-184 682.5,-184 682.5,-165 772.5,-165 772.5,-184"/>
<text text-anchor="middle" x="727.5" y="-172" font-family="Helvetica,sans-Serif" font-size="10.00">Kit/Io/IOutput.h</text>
</a>
</g>
</g>
<!-- Node11&#45;&gt;Node19 -->
<g id="edge21_Node000011_Node000019" class="edge">
<title>Node11&#45;&gt;Node19</title>
<g id="a_edge21_Node000011_Node000019"><a xlink:title=" ">
<path fill="none" stroke="#63b8ff" d="M543.69,-219.98C581.33,-210.87 641.16,-196.4 682.27,-186.45"/>
<polygon fill="#63b8ff" stroke="#63b8ff" points="683.14,-189.84 692.04,-184.08 681.5,-183.03 683.14,-189.84"/>
</a>
</g>
</g>
<!-- Node13 -->
<g id="Node000013" class="node">
<title>Node13</title>
<g id="a_Node000013"><a xlink:href="_key_8h.html" target="_top" xlink:title=" ">
<polygon fill="white" stroke="#666666" points="856,-74 747,-74 747,-55 856,-55 856,-74"/>
<text text-anchor="middle" x="801.5" y="-62" font-family="Helvetica,sans-Serif" font-size="10.00">Kit/Container/Key.h</text>
</a>
</g>
</g>
<!-- Node12&#45;&gt;Node13 -->
<g id="edge13_Node000012_Node000013" class="edge">
<title>Node12&#45;&gt;Node13</title>
<g id="a_edge13_Node000012_Node000013"><a xlink:title=" ">
<path fill="none" stroke="#63b8ff" d="M888.79,-109.98C872.29,-101.57 846.8,-88.59 827.62,-78.81"/>
<polygon fill="#63b8ff" stroke="#63b8ff" points="829.01,-75.59 818.51,-74.17 825.83,-81.83 829.01,-75.59"/>
</a>
</g>
</g>
<!-- Node12&#45;&gt;Node16 -->
<g id="edge17_Node000012_Node000016" class="edge">
<title>Node12&#45;&gt;Node16</title>
<g id="a_edge17_Node000012_Node000016"><a xlink:title=" ">
<path fill="none" stroke="#63b8ff" d="M924.78,-109.98C944.17,-101.42 974.31,-88.11 996.57,-78.28"/>
<polygon fill="#63b8ff" stroke="#63b8ff" points="998.14,-81.41 1005.87,-74.17 995.31,-75.01 998.14,-81.41"/>
</a>
</g>
</g>
<!-- Node17 -->
<g id="Node000017" class="node">
<title>Node17</title>
<g id="a_Node000017"><a xlink:title=" ">
<polygon fill="#e0e0e0" stroke="#999999" points="728.5,-74 672.5,-74 672.5,-55 728.5,-55 728.5,-74"/>
<text text-anchor="middle" x="700.5" y="-62" font-family="Helvetica,sans-Serif" font-size="10.00">stdarg.h</text>
</a>
</g>
</g>
<!-- Node12&#45;&gt;Node17 -->
<g id="edge18_Node000012_Node000017" class="edge">
<title>Node12&#45;&gt;Node17</title>
<g id="a_edge18_Node000012_Node000017"><a xlink:title=" ">
<path fill="none" stroke="#63b8ff" d="M872.56,-109.98C835.99,-100.53 777.05,-85.29 738.54,-75.33"/>
<polygon fill="#63b8ff" stroke="#63b8ff" points="739.29,-71.91 728.74,-72.8 737.54,-78.69 739.29,-71.91"/>
</a>
</g>
</g>
<!-- Node18 -->
<g id="Node000018" class="node">
<title>Node18</title>
<g id="a_Node000018"><a xlink:title=" ">
<polygon fill="#e0e0e0" stroke="#999999" points="934.5,-74 874.5,-74 874.5,-55 934.5,-55 934.5,-74"/>
<text text-anchor="middle" x="904.5" y="-62" font-family="Helvetica,sans-Serif" font-size="10.00">iostream</text>
</a>
</g>
</g>
<!-- Node12&#45;&gt;Node18 -->
<g id="edge19_Node000012_Node000018" class="edge">
<title>Node12&#45;&gt;Node18</title>
<g id="a_edge19_Node000012_Node000018"><a xlink:title=" ">
<path fill="none" stroke="#63b8ff" d="M905.33,-109.75C905.2,-102.8 905.02,-92.85 904.85,-84.13"/>
<polygon fill="#63b8ff" stroke="#63b8ff" points="908.35,-84.02 904.66,-74.09 901.35,-84.15 908.35,-84.02"/>
</a>
</g>
</g>
<!-- Node13&#45;&gt;Node10 -->
<g id="edge14_Node000013_Node000010" class="edge">
<title>Node13&#45;&gt;Node10</title>
<g id="a_edge14_Node000013_Node000010"><a xlink:title=" ">
<path fill="none" stroke="#63b8ff" d="M746.69,-56.17C743.58,-55.77 740.5,-55.38 737.5,-55 613.37,-39.41 465.99,-22.41 398.54,-14.71"/>
<polygon fill="#63b8ff" stroke="#63b8ff" points="398.75,-11.21 388.42,-13.55 397.95,-18.16 398.75,-11.21"/>
</a>
</g>
</g>
<!-- Node14 -->
<g id="Node000014" class="node">
<title>Node14</title>
<g id="a_Node000014"><a xlink:title=" ">
<polygon fill="#e0e0e0" stroke="#999999" points="792,-19 739,-19 739,0 792,0 792,-19"/>
<text text-anchor="middle" x="765.5" y="-7" font-family="Helvetica,sans-Serif" font-size="10.00">stdlib.h</text>
</a>
</g>
</g>
<!-- Node13&#45;&gt;Node14 -->
<g id="edge15_Node000013_Node000014" class="edge">
<title>Node13&#45;&gt;Node14</title>
<g id="a_edge15_Node000013_Node000014"><a xlink:title=" ">
<path fill="none" stroke="#63b8ff" d="M795.56,-54.75C790.52,-47.34 783.16,-36.5 776.99,-27.41"/>
<polygon fill="#63b8ff" stroke="#63b8ff" points="779.85,-25.39 771.33,-19.09 774.06,-29.33 779.85,-25.39"/>
</a>
</g>
</g>
<!-- Node15 -->
<g id="Node000015" class="node">
<title>Node15</title>
<g id="a_Node000015"><a xlink:title=" ">
<polygon fill="#e0e0e0" stroke="#999999" points="863,-19 810,-19 810,0 863,0 863,-19"/>
<text text-anchor="middle" x="836.5" y="-7" font-family="Helvetica,sans-Serif" font-size="10.00">limits.h</text>
</a>
</g>
</g>
<!-- Node13&#45;&gt;Node15 -->
<g id="edge16_Node000013_Node000015" class="edge">
<title>Node13&#45;&gt;Node15</title>
<g id="a_edge16_Node000013_Node000015"><a xlink:title=" ">
<path fill="none" stroke="#63b8ff" d="M807.28,-54.75C812.12,-47.42 819.18,-36.73 825.14,-27.7"/>
<polygon fill="#63b8ff" stroke="#63b8ff" points="828.24,-29.36 830.83,-19.09 822.4,-25.5 828.24,-29.36"/>
</a>
</g>
</g>
<!-- Node19&#45;&gt;Node12 -->
<g id="edge26_Node000019_Node000012" class="edge">
<title>Node19&#45;&gt;Node12</title>
<g id="a_edge26_Node000019_Node000012"><a xlink:title=" ">
<path fill="none" stroke="#63b8ff" d="M756.1,-164.98C786.11,-156.05 833.48,-141.94 866.82,-132.02"/>
<polygon fill="#63b8ff" stroke="#63b8ff" points="868.09,-135.29 876.68,-129.08 866.09,-128.58 868.09,-135.29"/>
</a>
</g>
</g>
<!-- Node19&#45;&gt;Node16 -->
<g id="edge29_Node000019_Node000016" class="edge">
<title>Node19&#45;&gt;Node16</title>
<g id="a_edge29_Node000019_Node000016"><a xlink:title=" ">
<path fill="none" stroke="#63b8ff" d="M772.77,-172.94C822.35,-170.58 902.86,-161.49 963.5,-129 984.42,-117.79 1002.61,-97.08 1013.78,-82.36"/>
<polygon fill="#63b8ff" stroke="#63b8ff" points="1016.74,-84.25 1019.79,-74.11 1011.08,-80.13 1016.74,-84.25"/>
</a>
</g>
</g>
<!-- Node19&#45;&gt;Node17 -->
<g id="edge30_Node000019_Node000017" class="edge">
<title>Node19&#45;&gt;Node17</title>
<g id="a_edge30_Node000019_Node000017"><a xlink:title=" ">
<path fill="none" stroke="#63b8ff" d="M725.29,-164.66C720.9,-147.09 710.99,-107.45 705.11,-83.95"/>
<polygon fill="#63b8ff" stroke="#63b8ff" points="708.49,-83.01 702.66,-74.16 701.69,-84.71 708.49,-83.01"/>
</a>
</g>
</g>
<!-- Node20 -->
<g id="Node000020" class="node">
<title>Node20</title>
<g id="a_Node000020"><a xlink:href="_io_2_types_8h.html" target="_top" xlink:title=" ">
<polygon fill="white" stroke="#666666" points="607.5,-129 525.5,-129 525.5,-110 607.5,-110 607.5,-129"/>
<text text-anchor="middle" x="566.5" y="-117" font-family="Helvetica,sans-Serif" font-size="10.00">Kit/Io/Types.h</text>
</a>
</g>
</g>
<!-- Node19&#45;&gt;Node20 -->
<g id="edge22_Node000019_Node000020" class="edge">
<title>Node19&#45;&gt;Node20</title>
<g id="a_edge22_Node000019_Node000020"><a xlink:title=" ">
<path fill="none" stroke="#63b8ff" d="M701.63,-164.98C674.72,-156.13 632.38,-142.19 602.27,-132.28"/>
<polygon fill="#63b8ff" stroke="#63b8ff" points="603.16,-128.88 592.57,-129.08 600.97,-135.53 603.16,-128.88"/>
</a>
</g>
</g>
<!-- Node21 -->
<g id="Node000021" class="node">
<title>Node21</title>
<g id="a_Node000021"><a xlink:href="_io_2_i_close_8h.html" target="_top" xlink:title=" ">
<polygon fill="white" stroke="#666666" points="839.5,-129 755.5,-129 755.5,-110 839.5,-110 839.5,-129"/>
<text text-anchor="middle" x="797.5" y="-117" font-family="Helvetica,sans-Serif" font-size="10.00">Kit/Io/IClose.h</text>
</a>
</g>
</g>
<!-- Node19&#45;&gt;Node21 -->
<g id="edge27_Node000019_Node000021" class="edge">
<title>Node19&#45;&gt;Node21</title>
<g id="a_edge27_Node000019_Node000021"><a xlink:title=" ">
<path fill="none" stroke="#63b8ff" d="M738.75,-164.98C749.3,-157 765.3,-144.88 777.94,-135.31"/>
<polygon fill="#63b8ff" stroke="#63b8ff" points="780.19,-138 786.05,-129.17 775.96,-132.42 780.19,-138"/>
</a>
</g>
</g>
<!-- Node22 -->
<g id="Node000022" class="node">
<title>Node22</title>
<g id="a_Node000022"><a xlink:href="_i_eos_8h.html" target="_top" xlink:title=" ">
<polygon fill="white" stroke="#666666" points="699.5,-129 625.5,-129 625.5,-110 699.5,-110 699.5,-129"/>
<text text-anchor="middle" x="662.5" y="-117" font-family="Helvetica,sans-Serif" font-size="10.00">Kit/Io/IEos.h</text>
</a>
</g>
</g>
<!-- Node19&#45;&gt;Node22 -->
<g id="edge28_Node000019_Node000022" class="edge">
<title>Node19&#45;&gt;Node22</title>
<g id="a_edge28_Node000019_Node000022"><a xlink:title=" ">
<path fill="none" stroke="#63b8ff" d="M717.06,-164.98C707.35,-157.07 692.68,-145.11 681,-135.58"/>
<polygon fill="#63b8ff" stroke="#63b8ff" points="683.1,-132.78 673.13,-129.17 678.67,-138.2 683.1,-132.78"/>
</a>
</g>
</g>
<!-- Node20&#45;&gt;Node7 -->
<g id="edge23_Node000020_Node000007" class="edge">
<title>Node20&#45;&gt;Node7</title>
<g id="a_edge23_Node000020_Node000007"><a xlink:title=" ">
<path fill="none" stroke="#63b8ff" d="M557.34,-109.98C549,-102.23 536.47,-90.58 526.32,-81.14"/>
<polygon fill="#63b8ff" stroke="#63b8ff" points="528.53,-78.42 518.82,-74.17 523.76,-83.54 528.53,-78.42"/>
</a>
</g>
</g>
<!-- Node20&#45;&gt;Node8 -->
<g id="edge24_Node000020_Node000008" class="edge">
<title>Node20&#45;&gt;Node8</title>
<g id="a_edge24_Node000020_Node000008"><a xlink:title=" ">
<path fill="none" stroke="#63b8ff" d="M543.36,-109.98C519.68,-101.27 482.63,-87.63 455.79,-77.75"/>
<polygon fill="#63b8ff" stroke="#63b8ff" points="456.65,-74.34 446.06,-74.17 454.23,-80.91 456.65,-74.34"/>
</a>
</g>
</g>
<!-- Node20&#45;&gt;Node10 -->
<g id="edge25_Node000020_Node000010" class="edge">
<title>Node20&#45;&gt;Node10</title>
<g id="a_edge25_Node000020_Node000010"><a xlink:title=" ">
<path fill="none" stroke="#63b8ff" d="M567.74,-109.8C569.15,-96.21 569.66,-69.94 555.5,-55 534.31,-32.64 448.52,-19.84 398.4,-14.13"/>
<polygon fill="#63b8ff" stroke="#63b8ff" points="398.6,-10.63 388.28,-13.02 397.84,-17.59 398.6,-10.63"/>
</a>
</g>
</g>
<!-- Node23&#45;&gt;Node2 -->
<g id="edge33_Node000023_Node000002" class="edge">
<title>Node23&#45;&gt;Node2</title>
<g id="a_edge33_Node000023_Node000002"><a xlink:title=" ">
<path fill="none" stroke="#63b8ff" d="M192.45,-219.98C171.09,-211.34 137.8,-197.87 113.44,-188.02"/>
<polygon fill="#63b8ff" stroke="#63b8ff" points="114.51,-184.68 103.93,-184.17 111.89,-191.17 114.51,-184.68"/>
</a>
</g>
</g>
<!-- Node23&#45;&gt;Node4 -->
<g id="edge32_Node000023_Node000004" class="edge">
<title>Node23&#45;&gt;Node4</title>
<g id="a_edge32_Node000023_Node000004"><a xlink:title=" ">
<path fill="none" stroke="#63b8ff" d="M209.42,-219.87C197.95,-195.84 165.27,-128.66 149.5,-110 139.65,-98.35 126.31,-87.73 115.01,-79.79"/>
<polygon fill="#63b8ff" stroke="#63b8ff" points="116.74,-76.73 106.49,-74.03 112.82,-82.53 116.74,-76.73"/>
</a>
</g>
</g>
<!-- Node23&#45;&gt;Node6 -->
<g id="edge34_Node000023_Node000006" class="edge">
<title>Node23&#45;&gt;Node6</title>
<g id="a_edge34_Node000023_Node000006"><a xlink:title=" ">
<path fill="none" stroke="#63b8ff" d="M248.2,-219.98C285.25,-210.89 344.09,-196.46 384.63,-186.51"/>
<polygon fill="#63b8ff" stroke="#63b8ff" points="385.65,-189.86 394.52,-184.08 383.98,-183.07 385.65,-189.86"/>
</a>
</g>
</g>
<!-- Node23&#45;&gt;Node9 -->
<g id="edge35_Node000023_Node000009" class="edge">
<title>Node23&#45;&gt;Node9</title>
<g id="a_edge35_Node000023_Node000009"><a xlink:title=" ">
<path fill="none" stroke="#63b8ff" d="M224.91,-219.98C235.61,-212 251.84,-199.88 264.66,-190.31"/>
<polygon fill="#63b8ff" stroke="#63b8ff" points="266.97,-192.96 272.89,-184.17 262.78,-187.35 266.97,-192.96"/>
</a>
</g>
</g>
<!-- Node23&#45;&gt;Node10 -->
<g id="edge36_Node000023_Node000010" class="edge">
<title>Node23&#45;&gt;Node10</title>
<g id="a_edge36_Node000023_Node000010"><a xlink:title=" ">
<path fill="none" stroke="#63b8ff" d="M213.88,-219.83C214.73,-207.17 217.51,-183.15 226.5,-165 255.72,-106.03 313.08,-51.7 342.74,-26.03"/>
<polygon fill="#63b8ff" stroke="#63b8ff" points="345.32,-28.44 350.66,-19.29 340.78,-23.11 345.32,-28.44"/>
</a>
</g>
</g>
</g>
</svg>
