<?xml version="1.0" encoding="UTF-8" standalone="no"?>
<!DOCTYPE svg PUBLIC "-//W3C//DTD SVG 1.1//EN"
 "http://www.w3.org/Graphics/SVG/1.1/DTD/svg11.dtd">
<!-- Generated by graphviz version 2.43.0 (0)
 -->
<!-- Title: Kit/Logging/Framework/Formatter.h Pages: 1 -->
<svg width="1764pt" height="566pt"
 viewBox="0.00 0.00 1764.00 566.00" xmlns="http://www.w3.org/2000/svg" xmlns:xlink="http://www.w3.org/1999/xlink">
<g id="graph0" class="graph" transform="scale(1 1) rotate(0) translate(4 562)">
<title>Kit/Logging/Framework/Formatter.h</title>
<!-- Node1 -->
<g id="Node000001" class="node">
<title>Node1</title>
<g id="a_Node000001"><a xlink:title=" ">
<polygon fill="#999999" stroke="#666666" points="463,-558 334,-558 334,-528 463,-528 463,-558"/>
<text text-anchor="start" x="342" y="-546" font-family="Helvetica,sans-Serif" font-size="10.00">Kit/Logging/Framework</text>
<text text-anchor="middle" x="398.5" y="-535" font-family="Helvetica,sans-Serif" font-size="10.00">/Formatter.h</text>
</a>
</g>
</g>
<!-- Node2 -->
<g id="Node000002" class="node">
<title>Node2</title>
<g id="a_Node000002"><a xlink:href="_entry_data_8h.html" target="_top" xlink:title=" ">
<polygon fill="white" stroke="#666666" points="463,-492 334,-492 334,-462 463,-462 463,-492"/>
<text text-anchor="start" x="342" y="-480" font-family="Helvetica,sans-Serif" font-size="10.00">Kit/Logging/Framework</text>
<text text-anchor="middle" x="398.5" y="-469" font-family="Helvetica,sans-Serif" font-size="10.00">/EntryData.h</text>
</a>
</g>
</g>
<!-- Node1&#45;&gt;Node2 -->
<g id="edge1_Node000001_Node000002" class="edge">
<title>Node1&#45;&gt;Node2</title>
<g id="a_edge1_Node000001_Node000002"><a xlink:title=" ">
<path fill="none" stroke="#63b8ff" d="M398.5,-527.8C398.5,-520.34 398.5,-510.99 398.5,-502.41"/>
<polygon fill="#63b8ff" stroke="#63b8ff" points="402,-502.16 398.5,-492.16 395,-502.16 402,-502.16"/>
</a>
</g>
</g>
<!-- Node15 -->
<g id="Node000015" class="node">
<title>Node15</title>
<g id="a_Node000015"><a xlink:href="_i_string_8h.html" target="_top" xlink:title=" ">
<polygon fill="white" stroke="#666666" points="1452,-129 1355,-129 1355,-110 1452,-110 1452,-129"/>
<text text-anchor="middle" x="1403.5" y="-117" font-family="Helvetica,sans-Serif" font-size="10.00">Kit/Text/IString.h</text>
</a>
</g>
</g>
<!-- Node1&#45;&gt;Node15 -->
<g id="edge56_Node000001_Node000015" class="edge">
<title>Node1&#45;&gt;Node15</title>
<g id="a_edge56_Node000001_Node000015"><a xlink:title=" ">
<path fill="none" stroke="#63b8ff" d="M463.19,-538.98C656.81,-529.07 1218.5,-493.77 1218.5,-417.5 1218.5,-417.5 1218.5,-417.5 1218.5,-245 1218.5,-180.31 1297.32,-147.03 1352.07,-131.71"/>
<polygon fill="#63b8ff" stroke="#63b8ff" points="1353.23,-135.02 1361.98,-129.06 1351.42,-128.26 1353.23,-135.02"/>
</a>
</g>
</g>
<!-- Node31 -->
<g id="Node000031" class="node">
<title>Node31</title>
<g id="a_Node000031"><a xlink:href="_i_application_8h.html" target="_top" xlink:title=" ">
<polygon fill="white" stroke="#666666" points="129,-261 0,-261 0,-231 129,-231 129,-261"/>
<text text-anchor="start" x="8" y="-249" font-family="Helvetica,sans-Serif" font-size="10.00">Kit/Logging/Framework</text>
<text text-anchor="middle" x="64.5" y="-238" font-family="Helvetica,sans-Serif" font-size="10.00">/IApplication.h</text>
</a>
</g>
</g>
<!-- Node1&#45;&gt;Node31 -->
<g id="edge51_Node000001_Node000031" class="edge">
<title>Node1&#45;&gt;Node31</title>
<g id="a_edge51_Node000001_Node000031"><a xlink:title=" ">
<path fill="none" stroke="#63b8ff" d="M333.98,-529.33C244.2,-509.81 92.5,-469.19 92.5,-417.5 92.5,-417.5 92.5,-417.5 92.5,-360.5 92.5,-328.64 81.97,-293.18 73.83,-270.51"/>
<polygon fill="#63b8ff" stroke="#63b8ff" points="77.08,-269.2 70.3,-261.06 70.52,-271.65 77.08,-269.2"/>
</a>
</g>
</g>
<!-- Node3 -->
<g id="Node000003" class="node">
<title>Node3</title>
<g id="a_Node000003"><a xlink:href="_cursor_b_e_8h.html" target="_top" xlink:title=" ">
<polygon fill="white" stroke="#666666" points="417.5,-426 287.5,-426 287.5,-407 417.5,-407 417.5,-426"/>
<text text-anchor="middle" x="352.5" y="-414" font-family="Helvetica,sans-Serif" font-size="10.00">Kit/Memory/CursorBE.h</text>
</a>
</g>
</g>
<!-- Node2&#45;&gt;Node3 -->
<g id="edge2_Node000002_Node000003" class="edge">
<title>Node2&#45;&gt;Node3</title>
<g id="a_edge2_Node000002_Node000003"><a xlink:title=" ">
<path fill="none" stroke="#63b8ff" d="M387.36,-461.84C380.82,-453.52 372.52,-442.96 365.66,-434.23"/>
<polygon fill="#63b8ff" stroke="#63b8ff" points="368.33,-431.96 359.39,-426.27 362.82,-436.29 368.33,-431.96"/>
</a>
</g>
</g>
<!-- Node5 -->
<g id="Node000005" class="node">
<title>Node5</title>
<g id="a_Node000005"><a xlink:title=" ">
<polygon fill="#e0e0e0" stroke="#999999" points="456.5,-316 406.5,-316 406.5,-297 456.5,-297 456.5,-316"/>
<text text-anchor="middle" x="431.5" y="-304" font-family="Helvetica,sans-Serif" font-size="10.00">cstdint</text>
</a>
</g>
</g>
<!-- Node2&#45;&gt;Node5 -->
<g id="edge48_Node000002_Node000005" class="edge">
<title>Node2&#45;&gt;Node5</title>
<g id="a_edge48_Node000002_Node000005"><a xlink:title=" ">
<path fill="none" stroke="#63b8ff" d="M408.76,-461.92C415.14,-452.32 422.81,-439.02 426.5,-426 436.2,-391.78 435.09,-349.79 433.34,-326.09"/>
<polygon fill="#63b8ff" stroke="#63b8ff" points="436.82,-325.71 432.47,-316.05 429.84,-326.31 436.82,-325.71"/>
</a>
</g>
</g>
<!-- Node6 -->
<g id="Node000006" class="node">
<title>Node6</title>
<g id="a_Node000006"><a xlink:title=" ">
<polygon fill="#e0e0e0" stroke="#999999" points="424,-19 371,-19 371,0 424,0 424,-19"/>
<text text-anchor="middle" x="397.5" y="-7" font-family="Helvetica,sans-Serif" font-size="10.00">stdint.h</text>
</a>
</g>
</g>
<!-- Node2&#45;&gt;Node6 -->
<g id="edge49_Node000002_Node000006" class="edge">
<title>Node2&#45;&gt;Node6</title>
<g id="a_edge49_Node000002_Node000006"><a xlink:title=" ">
<path fill="none" stroke="#63b8ff" d="M333.92,-472.66C262.53,-465.09 157.5,-440.66 157.5,-362.5 157.5,-362.5 157.5,-362.5 157.5,-305.5 157.5,-242.6 144.44,-220.25 174.5,-165 215.63,-89.4 311.65,-43.01 363.26,-22.65"/>
<polygon fill="#63b8ff" stroke="#63b8ff" points="364.58,-25.89 372.65,-19.03 362.06,-19.36 364.58,-25.89"/>
</a>
</g>
</g>
<!-- Node10 -->
<g id="Node000010" class="node">
<title>Node10</title>
<g id="a_Node000010"><a xlink:href="_string_8h.html" target="_top" xlink:title=" ">
<polygon fill="white" stroke="#666666" points="630,-316 577,-316 577,-297 630,-297 630,-316"/>
<text text-anchor="middle" x="603.5" y="-304" font-family="Helvetica,sans-Serif" font-size="10.00">string.h</text>
</a>
</g>
</g>
<!-- Node2&#45;&gt;Node10 -->
<g id="edge50_Node000002_Node000010" class="edge">
<title>Node2&#45;&gt;Node10</title>
<g id="a_edge50_Node000002_Node000010"><a xlink:title=" ">
<path fill="none" stroke="#63b8ff" d="M442.93,-461.9C485.26,-446.24 547.83,-416.93 584.5,-371 594.71,-358.21 599.44,-340.04 601.63,-326.41"/>
<polygon fill="#63b8ff" stroke="#63b8ff" points="605.13,-326.61 602.93,-316.25 598.19,-325.72 605.13,-326.61"/>
</a>
</g>
</g>
<!-- Node4 -->
<g id="Node000004" class="node">
<title>Node4</title>
<g id="a_Node000004"><a xlink:href="_cursor_base_8h.html" target="_top" xlink:title=" ">
<polygon fill="white" stroke="#666666" points="330,-371 189,-371 189,-352 330,-352 330,-371"/>
<text text-anchor="middle" x="259.5" y="-359" font-family="Helvetica,sans-Serif" font-size="10.00">Kit/Memory/CursorBase.h</text>
</a>
</g>
</g>
<!-- Node3&#45;&gt;Node4 -->
<g id="edge3_Node000003_Node000004" class="edge">
<title>Node3&#45;&gt;Node4</title>
<g id="a_edge3_Node000003_Node000004"><a xlink:title=" ">
<path fill="none" stroke="#63b8ff" d="M337.56,-406.98C323,-398.69 300.63,-385.94 283.57,-376.22"/>
<polygon fill="#63b8ff" stroke="#63b8ff" points="285.14,-373.08 274.71,-371.17 281.67,-379.16 285.14,-373.08"/>
</a>
</g>
</g>
<!-- Node8 -->
<g id="Node000008" class="node">
<title>Node8</title>
<g id="a_Node000008"><a xlink:href="endian_8h.html" target="_top" xlink:title="This file provides a set of macros/method to convert between the &#39;host&#39; platform and Big/Little endia...">
<polygon fill="white" stroke="#666666" points="575,-371 474,-371 474,-352 575,-352 575,-371"/>
<text text-anchor="middle" x="524.5" y="-359" font-family="Helvetica,sans-Serif" font-size="10.00">Kit/Type/endian.h</text>
</a>
</g>
</g>
<!-- Node3&#45;&gt;Node8 -->
<g id="edge7_Node000003_Node000008" class="edge">
<title>Node3&#45;&gt;Node8</title>
<g id="a_edge7_Node000003_Node000008"><a xlink:title=" ">
<path fill="none" stroke="#63b8ff" d="M380.13,-406.98C409.01,-398.09 454.51,-384.07 486.7,-374.15"/>
<polygon fill="#63b8ff" stroke="#63b8ff" points="488.12,-377.37 496.65,-371.08 486.06,-370.68 488.12,-377.37"/>
</a>
</g>
</g>
<!-- Node30 -->
<g id="Node000030" class="node">
<title>Node30</title>
<g id="a_Node000030"><a xlink:title=" ">
<polygon fill="#e0e0e0" stroke="#999999" points="417,-371 348,-371 348,-352 417,-352 417,-371"/>
<text text-anchor="middle" x="382.5" y="-359" font-family="Helvetica,sans-Serif" font-size="10.00">type_traits</text>
</a>
</g>
</g>
<!-- Node3&#45;&gt;Node30 -->
<g id="edge47_Node000003_Node000030" class="edge">
<title>Node3&#45;&gt;Node30</title>
<g id="a_edge47_Node000003_Node000030"><a xlink:title=" ">
<path fill="none" stroke="#63b8ff" d="M357.45,-406.75C361.56,-399.49 367.53,-388.95 372.6,-379.98"/>
<polygon fill="#63b8ff" stroke="#63b8ff" points="375.76,-381.52 377.64,-371.09 369.67,-378.07 375.76,-381.52"/>
</a>
</g>
</g>
<!-- Node4&#45;&gt;Node5 -->
<g id="edge4_Node000004_Node000005" class="edge">
<title>Node4&#45;&gt;Node5</title>
<g id="a_edge4_Node000004_Node000005"><a xlink:title=" ">
<path fill="none" stroke="#63b8ff" d="M287.13,-351.98C316.87,-342.82 364.23,-328.23 396.53,-318.27"/>
<polygon fill="#63b8ff" stroke="#63b8ff" points="397.93,-321.51 406.45,-315.22 395.86,-314.82 397.93,-321.51"/>
</a>
</g>
</g>
<!-- Node4&#45;&gt;Node6 -->
<g id="edge5_Node000004_Node000006" class="edge">
<title>Node4&#45;&gt;Node6</title>
<g id="a_edge5_Node000004_Node000006"><a xlink:title=" ">
<path fill="none" stroke="#63b8ff" d="M271.8,-351.75C294.46,-334.51 340.5,-293.72 340.5,-247 340.5,-247 340.5,-247 340.5,-118.5 340.5,-82.51 365.56,-46.76 382.45,-26.76"/>
<polygon fill="#63b8ff" stroke="#63b8ff" points="385.12,-29.02 389.09,-19.2 379.86,-24.4 385.12,-29.02"/>
</a>
</g>
</g>
<!-- Node7 -->
<g id="Node000007" class="node">
<title>Node7</title>
<g id="a_Node000007"><a xlink:title=" ">
<polygon fill="#e0e0e0" stroke="#999999" points="1268,-19 1215,-19 1215,0 1268,0 1268,-19"/>
<text text-anchor="middle" x="1241.5" y="-7" font-family="Helvetica,sans-Serif" font-size="10.00">stdlib.h</text>
</a>
</g>
</g>
<!-- Node4&#45;&gt;Node7 -->
<g id="edge6_Node000004_Node000007" class="edge">
<title>Node4&#45;&gt;Node7</title>
<g id="a_edge6_Node000004_Node000007"><a xlink:title=" ">
<path fill="none" stroke="#63b8ff" d="M273.76,-351.83C298.12,-337.52 349.74,-309.31 397.5,-297 560.38,-255.02 1022.07,-307.07 1147.5,-195 1197.11,-150.67 1165.54,-111.61 1200.5,-55 1206.96,-44.54 1216.08,-34.35 1224.08,-26.36"/>
<polygon fill="#63b8ff" stroke="#63b8ff" points="1226.77,-28.63 1231.56,-19.18 1221.92,-23.58 1226.77,-28.63"/>
</a>
</g>
</g>
<!-- Node8&#45;&gt;Node6 -->
<g id="edge9_Node000008_Node000006" class="edge">
<title>Node8&#45;&gt;Node6</title>
<g id="a_edge9_Node000008_Node000006"><a xlink:title=" ">
<path fill="none" stroke="#63b8ff" d="M519,-351.56C498.26,-317.25 424.78,-190.19 400.5,-74 397.42,-59.28 396.77,-42.23 396.84,-29.51"/>
<polygon fill="#63b8ff" stroke="#63b8ff" points="400.34,-29.31 397.05,-19.24 393.34,-29.16 400.34,-29.31"/>
</a>
</g>
</g>
<!-- Node9 -->
<g id="Node000009" class="node">
<title>Node9</title>
<g id="a_Node000009"><a xlink:title=" ">
<polygon fill="#e0e0e0" stroke="#999999" points="518,-129 445,-129 445,-110 518,-110 518,-129"/>
<text text-anchor="middle" x="481.5" y="-117" font-family="Helvetica,sans-Serif" font-size="10.00">kit_config.h</text>
</a>
</g>
</g>
<!-- Node8&#45;&gt;Node9 -->
<g id="edge8_Node000008_Node000009" class="edge">
<title>Node8&#45;&gt;Node9</title>
<g id="a_edge8_Node000008_Node000009"><a xlink:title=" ">
<path fill="none" stroke="#63b8ff" d="M522.97,-351.96C516.79,-317.48 493.61,-188.08 484.87,-139.28"/>
<polygon fill="#63b8ff" stroke="#63b8ff" points="488.27,-138.42 483.06,-129.19 481.38,-139.65 488.27,-138.42"/>
</a>
</g>
</g>
<!-- Node8&#45;&gt;Node10 -->
<g id="edge10_Node000008_Node000010" class="edge">
<title>Node8&#45;&gt;Node10</title>
<g id="a_edge10_Node000008_Node000010"><a xlink:title=" ">
<path fill="none" stroke="#63b8ff" d="M537.19,-351.98C549.33,-343.84 567.86,-331.41 582.25,-321.76"/>
<polygon fill="#63b8ff" stroke="#63b8ff" points="584.22,-324.65 590.58,-316.17 580.32,-318.84 584.22,-324.65"/>
</a>
</g>
</g>
<!-- Node11 -->
<g id="Node000011" class="node">
<title>Node11</title>
<g id="a_Node000011"><a xlink:href="_model_point_base_8h.html" target="_top" xlink:title=" ">
<polygon fill="white" stroke="#666666" points="879,-255.5 738,-255.5 738,-236.5 879,-236.5 879,-255.5"/>
<text text-anchor="middle" x="808.5" y="-243.5" font-family="Helvetica,sans-Serif" font-size="10.00">Kit/Dm/ModelPointBase.h</text>
</a>
</g>
</g>
<!-- Node10&#45;&gt;Node11 -->
<g id="edge11_Node000010_Node000011" class="edge">
<title>Node10&#45;&gt;Node11</title>
<g id="a_edge11_Node000010_Node000011"><a xlink:title=" ">
<path fill="none" stroke="#63b8ff" d="M630.3,-297.85C665.69,-287.75 728.29,-269.89 769.08,-258.25"/>
<polygon fill="#63b8ff" stroke="#63b8ff" points="770.05,-261.61 778.7,-255.5 768.12,-254.88 770.05,-261.61"/>
</a>
</g>
</g>
<!-- Node29 -->
<g id="Node000029" class="node">
<title>Node29</title>
<g id="a_Node000029"><a xlink:href="_observer_8h.html" target="_top" xlink:title=" ">
<polygon fill="white" stroke="#666666" points="656.5,-255.5 550.5,-255.5 550.5,-236.5 656.5,-236.5 656.5,-255.5"/>
<text text-anchor="middle" x="603.5" y="-243.5" font-family="Helvetica,sans-Serif" font-size="10.00">Kit/Dm/Observer.h</text>
</a>
</g>
</g>
<!-- Node10&#45;&gt;Node29 -->
<g id="edge43_Node000010_Node000029" class="edge">
<title>Node10&#45;&gt;Node29</title>
<g id="a_edge43_Node000010_Node000029"><a xlink:title=" ">
<path fill="none" stroke="#63b8ff" d="M603.5,-296.87C603.5,-288.75 603.5,-276.31 603.5,-265.89"/>
<polygon fill="#63b8ff" stroke="#63b8ff" points="607,-265.67 603.5,-255.67 600,-265.67 607,-265.67"/>
</a>
</g>
</g>
<!-- Node11&#45;&gt;Node6 -->
<g id="edge41_Node000011_Node000006" class="edge">
<title>Node11&#45;&gt;Node6</title>
<g id="a_edge41_Node000011_Node000006"><a xlink:title=" ">
<path fill="none" stroke="#63b8ff" d="M808.63,-236.49C808.5,-212.58 804.64,-144.31 766.5,-110 670.35,-23.51 506.7,-11.04 434.08,-10.02"/>
<polygon fill="#63b8ff" stroke="#63b8ff" points="434.07,-6.52 424.04,-9.94 434.02,-13.52 434.07,-6.52"/>
</a>
</g>
</g>
<!-- Node11&#45;&gt;Node7 -->
<g id="edge42_Node000011_Node000007" class="edge">
<title>Node11&#45;&gt;Node7</title>
<g id="a_edge42_Node000011_Node000007"><a xlink:title=" ">
<path fill="none" stroke="#63b8ff" d="M879.23,-242.31C960.72,-237.78 1087.96,-225.86 1123.5,-195 1172.65,-152.32 1126.25,-106.16 1166.5,-55 1177.41,-41.14 1193.91,-30.68 1208.67,-23.39"/>
<polygon fill="#63b8ff" stroke="#63b8ff" points="1210.43,-26.44 1218.04,-19.06 1207.49,-20.08 1210.43,-26.44"/>
</a>
</g>
</g>
<!-- Node12 -->
<g id="Node000012" class="node">
<title>Node12</title>
<g id="a_Node000012"><a xlink:href="_i_model_point_8h.html" target="_top" xlink:title=" ">
<polygon fill="white" stroke="#666666" points="780.5,-189.5 660.5,-189.5 660.5,-170.5 780.5,-170.5 780.5,-189.5"/>
<text text-anchor="middle" x="720.5" y="-177.5" font-family="Helvetica,sans-Serif" font-size="10.00">Kit/Dm/IModelPoint.h</text>
</a>
</g>
</g>
<!-- Node11&#45;&gt;Node12 -->
<g id="edge12_Node000011_Node000012" class="edge">
<title>Node11&#45;&gt;Node12</title>
<g id="a_edge12_Node000011_Node000012"><a xlink:title=" ">
<path fill="none" stroke="#63b8ff" d="M796.63,-236.37C782.33,-225.97 758.07,-208.32 740.78,-195.75"/>
<polygon fill="#63b8ff" stroke="#63b8ff" points="742.61,-192.75 732.46,-189.7 738.49,-198.41 742.61,-192.75"/>
</a>
</g>
</g>
<!-- Node21 -->
<g id="Node000021" class="node">
<title>Node21</title>
<g id="a_Node000021"><a xlink:href="_i_observer_8h.html" target="_top" xlink:title=" ">
<polygon fill="white" stroke="#666666" points="645,-129 536,-129 536,-110 645,-110 645,-129"/>
<text text-anchor="middle" x="590.5" y="-117" font-family="Helvetica,sans-Serif" font-size="10.00">Kit/Dm/IObserver.h</text>
</a>
</g>
</g>
<!-- Node11&#45;&gt;Node21 -->
<g id="edge37_Node000011_Node000021" class="edge">
<title>Node11&#45;&gt;Node21</title>
<g id="a_edge37_Node000011_Node000021"><a xlink:title=" ">
<path fill="none" stroke="#63b8ff" d="M757.12,-236.43C724.74,-229.22 683.21,-216.53 651.5,-195 629.53,-180.09 611.34,-155 600.7,-138.11"/>
<polygon fill="#63b8ff" stroke="#63b8ff" points="603.51,-135.99 595.33,-129.24 597.52,-139.61 603.51,-135.99"/>
</a>
</g>
</g>
<!-- Node24 -->
<g id="Node000024" class="node">
<title>Node24</title>
<g id="a_Node000024"><a xlink:href="_i_model_database_8h.html" target="_top" xlink:title=" ">
<polygon fill="white" stroke="#666666" points="978.5,-189.5 836.5,-189.5 836.5,-170.5 978.5,-170.5 978.5,-189.5"/>
<text text-anchor="middle" x="907.5" y="-177.5" font-family="Helvetica,sans-Serif" font-size="10.00">Kit/Dm/IModelDatabase.h</text>
</a>
</g>
</g>
<!-- Node11&#45;&gt;Node24 -->
<g id="edge30_Node000011_Node000024" class="edge">
<title>Node11&#45;&gt;Node24</title>
<g id="a_edge30_Node000011_Node000024"><a xlink:title=" ">
<path fill="none" stroke="#63b8ff" d="M821.85,-236.37C838.16,-225.82 865.99,-207.84 885.49,-195.23"/>
<polygon fill="#63b8ff" stroke="#63b8ff" points="887.55,-198.07 894.04,-189.7 883.75,-192.19 887.55,-198.07"/>
</a>
</g>
</g>
<!-- Node27 -->
<g id="Node000027" class="node">
<title>Node27</title>
<g id="a_Node000027"><a xlink:href="_d_list_8h.html" target="_top" xlink:title=" ">
<polygon fill="white" stroke="#666666" points="1114,-189.5 997,-189.5 997,-170.5 1114,-170.5 1114,-189.5"/>
<text text-anchor="middle" x="1055.5" y="-177.5" font-family="Helvetica,sans-Serif" font-size="10.00">Kit/Container/DList.h</text>
</a>
</g>
</g>
<!-- Node11&#45;&gt;Node27 -->
<g id="edge38_Node000011_Node000027" class="edge">
<title>Node11&#45;&gt;Node27</title>
<g id="a_edge38_Node000011_Node000027"><a xlink:title=" ">
<path fill="none" stroke="#63b8ff" d="M841.56,-236.44C885.74,-224.99 964.1,-204.68 1012.74,-192.08"/>
<polygon fill="#63b8ff" stroke="#63b8ff" points="1013.84,-195.41 1022.64,-189.51 1012.08,-188.63 1013.84,-195.41"/>
</a>
</g>
</g>
<!-- Node12&#45;&gt;Node6 -->
<g id="edge29_Node000012_Node000006" class="edge">
<title>Node12&#45;&gt;Node6</title>
<g id="a_edge29_Node000012_Node000006"><a xlink:title=" ">
<path fill="none" stroke="#63b8ff" d="M714.15,-170.18C703.37,-155.78 680.15,-127.12 654.5,-110 583.24,-62.44 485.93,-32.73 433.88,-19.17"/>
<polygon fill="#63b8ff" stroke="#63b8ff" points="434.65,-15.76 424.09,-16.68 432.91,-22.54 434.65,-15.76"/>
</a>
</g>
</g>
<!-- Node12&#45;&gt;Node9 -->
<g id="edge13_Node000012_Node000009" class="edge">
<title>Node12&#45;&gt;Node9</title>
<g id="a_edge13_Node000012_Node000009"><a xlink:title=" ">
<path fill="none" stroke="#63b8ff" d="M685.75,-170.49C643.53,-160.16 572.25,-142.71 526.04,-131.4"/>
<polygon fill="#63b8ff" stroke="#63b8ff" points="526.84,-127.99 516.29,-129.02 525.18,-134.79 526.84,-127.99"/>
</a>
</g>
</g>
<!-- Node13 -->
<g id="Node000013" class="node">
<title>Node13</title>
<g id="a_Node000013"><a xlink:href="_list_item_8h.html" target="_top" xlink:title=" ">
<polygon fill="white" stroke="#666666" points="983.5,-74 851.5,-74 851.5,-55 983.5,-55 983.5,-74"/>
<text text-anchor="middle" x="917.5" y="-62" font-family="Helvetica,sans-Serif" font-size="10.00">Kit/Container/ListItem.h</text>
</a>
</g>
</g>
<!-- Node12&#45;&gt;Node13 -->
<g id="edge14_Node000012_Node000013" class="edge">
<title>Node12&#45;&gt;Node13</title>
<g id="a_edge14_Node000012_Node000013"><a xlink:title=" ">
<path fill="none" stroke="#63b8ff" d="M735.31,-170.47C769.18,-150.96 852.54,-102.92 893.71,-79.21"/>
<polygon fill="#63b8ff" stroke="#63b8ff" points="895.6,-82.15 902.52,-74.13 892.11,-76.09 895.6,-82.15"/>
</a>
</g>
</g>
<!-- Node12&#45;&gt;Node15 -->
<g id="edge16_Node000012_Node000015" class="edge">
<title>Node12&#45;&gt;Node15</title>
<g id="a_edge16_Node000012_Node000015"><a xlink:title=" ">
<path fill="none" stroke="#63b8ff" d="M780.7,-170.49C795.95,-168.51 812.31,-166.54 827.5,-165 1050.93,-142.42 1107.93,-150.17 1331.5,-129 1335.73,-128.6 1340.09,-128.16 1344.49,-127.69"/>
<polygon fill="#63b8ff" stroke="#63b8ff" points="1345.17,-131.14 1354.73,-126.57 1344.41,-124.18 1345.17,-131.14"/>
</a>
</g>
</g>
<!-- Node12&#45;&gt;Node21 -->
<g id="edge24_Node000012_Node000021" class="edge">
<title>Node12&#45;&gt;Node21</title>
<g id="a_edge24_Node000012_Node000021"><a xlink:title=" ">
<path fill="none" stroke="#63b8ff" d="M701.6,-170.49C679.84,-160.7 643.88,-144.52 618.79,-133.23"/>
<polygon fill="#63b8ff" stroke="#63b8ff" points="619.98,-129.93 609.43,-129.02 617.11,-136.31 619.98,-129.93"/>
</a>
</g>
</g>
<!-- Node22 -->
<g id="Node000022" class="node">
<title>Node22</title>
<g id="a_Node000022"><a xlink:href="_arduino_8h_source.html" target="_top" xlink:title=" ">
<polygon fill="white" stroke="#666666" points="955,-129 852,-129 852,-110 955,-110 955,-129"/>
<text text-anchor="middle" x="903.5" y="-117" font-family="Helvetica,sans-Serif" font-size="10.00">Kit/Json/Arduino.h</text>
</a>
</g>
</g>
<!-- Node12&#45;&gt;Node22 -->
<g id="edge27_Node000012_Node000022" class="edge">
<title>Node12&#45;&gt;Node22</title>
<g id="a_edge27_Node000012_Node000022"><a xlink:title=" ">
<path fill="none" stroke="#63b8ff" d="M747.11,-170.49C778.69,-160.4 831.51,-143.51 866.92,-132.19"/>
<polygon fill="#63b8ff" stroke="#63b8ff" points="868.4,-135.4 876.86,-129.02 866.27,-128.73 868.4,-135.4"/>
</a>
</g>
</g>
<!-- Node23 -->
<g id="Node000023" class="node">
<title>Node23</title>
<g id="a_Node000023"><a xlink:title=" ">
<polygon fill="#e0e0e0" stroke="#999999" points="757.5,-129 701.5,-129 701.5,-110 757.5,-110 757.5,-129"/>
<text text-anchor="middle" x="729.5" y="-117" font-family="Helvetica,sans-Serif" font-size="10.00">stddef.h</text>
</a>
</g>
</g>
<!-- Node12&#45;&gt;Node23 -->
<g id="edge28_Node000012_Node000023" class="edge">
<title>Node12&#45;&gt;Node23</title>
<g id="a_edge28_Node000012_Node000023"><a xlink:title=" ">
<path fill="none" stroke="#63b8ff" d="M721.83,-170.37C723.09,-162.16 725.03,-149.54 726.65,-139.05"/>
<polygon fill="#63b8ff" stroke="#63b8ff" points="730.11,-139.58 728.17,-129.17 723.19,-138.52 730.11,-139.58"/>
</a>
</g>
</g>
<!-- Node14 -->
<g id="Node000014" class="node">
<title>Node14</title>
<g id="a_Node000014"><a xlink:href="_item_8h.html" target="_top" xlink:title=" ">
<polygon fill="white" stroke="#666666" points="975,-19 860,-19 860,0 975,0 975,-19"/>
<text text-anchor="middle" x="917.5" y="-7" font-family="Helvetica,sans-Serif" font-size="10.00">Kit/Container/Item.h</text>
</a>
</g>
</g>
<!-- Node13&#45;&gt;Node14 -->
<g id="edge15_Node000013_Node000014" class="edge">
<title>Node13&#45;&gt;Node14</title>
<g id="a_edge15_Node000013_Node000014"><a xlink:title=" ">
<path fill="none" stroke="#63b8ff" d="M917.5,-54.75C917.5,-47.8 917.5,-37.85 917.5,-29.13"/>
<polygon fill="#63b8ff" stroke="#63b8ff" points="921,-29.09 917.5,-19.09 914,-29.09 921,-29.09"/>
</a>
</g>
</g>
<!-- Node16 -->
<g id="Node000016" class="node">
<title>Node16</title>
<g id="a_Node000016"><a xlink:href="_key_8h.html" target="_top" xlink:title=" ">
<polygon fill="white" stroke="#666666" points="1756,-74 1647,-74 1647,-55 1756,-55 1756,-74"/>
<text text-anchor="middle" x="1701.5" y="-62" font-family="Helvetica,sans-Serif" font-size="10.00">Kit/Container/Key.h</text>
</a>
</g>
</g>
<!-- Node15&#45;&gt;Node16 -->
<g id="edge17_Node000015_Node000016" class="edge">
<title>Node15&#45;&gt;Node16</title>
<g id="a_edge17_Node000015_Node000016"><a xlink:title=" ">
<path fill="none" stroke="#63b8ff" d="M1451.38,-109.98C1503.58,-100.7 1587.12,-85.84 1643.12,-75.88"/>
<polygon fill="#63b8ff" stroke="#63b8ff" points="1644.01,-79.28 1653.25,-74.08 1642.79,-72.39 1644.01,-79.28"/>
</a>
</g>
</g>
<!-- Node18 -->
<g id="Node000018" class="node">
<title>Node18</title>
<g id="a_Node000018"><a xlink:href="printfchecker_8h.html" target="_top" xlink:title="This file contains macro that enables the GCC (and Clang) compiler to validate printf flags with thei...">
<polygon fill="white" stroke="#666666" points="1476,-74 1331,-74 1331,-55 1476,-55 1476,-74"/>
<text text-anchor="middle" x="1403.5" y="-62" font-family="Helvetica,sans-Serif" font-size="10.00">Kit/System/printfchecker.h</text>
</a>
</g>
</g>
<!-- Node15&#45;&gt;Node18 -->
<g id="edge21_Node000015_Node000018" class="edge">
<title>Node15&#45;&gt;Node18</title>
<g id="a_edge21_Node000015_Node000018"><a xlink:title=" ">
<path fill="none" stroke="#63b8ff" d="M1403.5,-109.75C1403.5,-102.8 1403.5,-92.85 1403.5,-84.13"/>
<polygon fill="#63b8ff" stroke="#63b8ff" points="1407,-84.09 1403.5,-74.09 1400,-84.09 1407,-84.09"/>
</a>
</g>
</g>
<!-- Node19 -->
<g id="Node000019" class="node">
<title>Node19</title>
<g id="a_Node000019"><a xlink:title=" ">
<polygon fill="#e0e0e0" stroke="#999999" points="1550.5,-74 1494.5,-74 1494.5,-55 1550.5,-55 1550.5,-74"/>
<text text-anchor="middle" x="1522.5" y="-62" font-family="Helvetica,sans-Serif" font-size="10.00">stdarg.h</text>
</a>
</g>
</g>
<!-- Node15&#45;&gt;Node19 -->
<g id="edge22_Node000015_Node000019" class="edge">
<title>Node15&#45;&gt;Node19</title>
<g id="a_edge22_Node000015_Node000019"><a xlink:title=" ">
<path fill="none" stroke="#63b8ff" d="M1422.62,-109.98C1441.85,-101.42 1471.73,-88.11 1493.81,-78.28"/>
<polygon fill="#63b8ff" stroke="#63b8ff" points="1495.32,-81.44 1503.03,-74.17 1492.47,-75.04 1495.32,-81.44"/>
</a>
</g>
</g>
<!-- Node20 -->
<g id="Node000020" class="node">
<title>Node20</title>
<g id="a_Node000020"><a xlink:title=" ">
<polygon fill="#e0e0e0" stroke="#999999" points="1628.5,-74 1568.5,-74 1568.5,-55 1628.5,-55 1628.5,-74"/>
<text text-anchor="middle" x="1598.5" y="-62" font-family="Helvetica,sans-Serif" font-size="10.00">iostream</text>
</a>
</g>
</g>
<!-- Node15&#45;&gt;Node20 -->
<g id="edge23_Node000015_Node000020" class="edge">
<title>Node15&#45;&gt;Node20</title>
<g id="a_edge23_Node000015_Node000020"><a xlink:title=" ">
<path fill="none" stroke="#63b8ff" d="M1434.83,-109.98C1468.39,-100.86 1521.74,-86.36 1558.36,-76.41"/>
<polygon fill="#63b8ff" stroke="#63b8ff" points="1559.48,-79.73 1568.21,-73.73 1557.64,-72.98 1559.48,-79.73"/>
</a>
</g>
</g>
<!-- Node16&#45;&gt;Node6 -->
<g id="edge18_Node000016_Node000006" class="edge">
<title>Node16&#45;&gt;Node6</title>
<g id="a_edge18_Node000016_Node000006"><a xlink:title=" ">
<path fill="none" stroke="#63b8ff" d="M1646.72,-55.87C1643.61,-55.55 1640.52,-55.25 1637.5,-55 1394.8,-34.58 613.34,-15.51 434.29,-11.34"/>
<polygon fill="#63b8ff" stroke="#63b8ff" points="434.16,-7.84 424.08,-11.11 434,-14.84 434.16,-7.84"/>
</a>
</g>
</g>
<!-- Node16&#45;&gt;Node7 -->
<g id="edge19_Node000016_Node000007" class="edge">
<title>Node16&#45;&gt;Node7</title>
<g id="a_edge19_Node000016_Node000007"><a xlink:title=" ">
<path fill="none" stroke="#63b8ff" d="M1646.7,-56.15C1643.59,-55.75 1640.5,-55.37 1637.5,-55 1505.56,-38.83 1348.6,-21.86 1278.5,-14.41"/>
<polygon fill="#63b8ff" stroke="#63b8ff" points="1278.72,-10.91 1268.41,-13.34 1277.99,-17.87 1278.72,-10.91"/>
</a>
</g>
</g>
<!-- Node17 -->
<g id="Node000017" class="node">
<title>Node17</title>
<g id="a_Node000017"><a xlink:title=" ">
<polygon fill="#e0e0e0" stroke="#999999" points="1728,-19 1675,-19 1675,0 1728,0 1728,-19"/>
<text text-anchor="middle" x="1701.5" y="-7" font-family="Helvetica,sans-Serif" font-size="10.00">limits.h</text>
</a>
</g>
</g>
<!-- Node16&#45;&gt;Node17 -->
<g id="edge20_Node000016_Node000017" class="edge">
<title>Node16&#45;&gt;Node17</title>
<g id="a_edge20_Node000016_Node000017"><a xlink:title=" ">
<path fill="none" stroke="#63b8ff" d="M1701.5,-54.75C1701.5,-47.8 1701.5,-37.85 1701.5,-29.13"/>
<polygon fill="#63b8ff" stroke="#63b8ff" points="1705,-29.09 1701.5,-19.09 1698,-29.09 1705,-29.09"/>
</a>
</g>
</g>
<!-- Node21&#45;&gt;Node6 -->
<g id="edge26_Node000021_Node000006" class="edge">
<title>Node21&#45;&gt;Node6</title>
<g id="a_edge26_Node000021_Node000006"><a xlink:title=" ">
<path fill="none" stroke="#63b8ff" d="M575.03,-109.84C541.49,-91.08 461.87,-46.52 421.64,-24.01"/>
<polygon fill="#63b8ff" stroke="#63b8ff" points="423.21,-20.88 412.77,-19.05 419.79,-26.98 423.21,-20.88"/>
</a>
</g>
</g>
<!-- Node21&#45;&gt;Node13 -->
<g id="edge25_Node000021_Node000013" class="edge">
<title>Node21&#45;&gt;Node13</title>
<g id="a_edge25_Node000021_Node000013"><a xlink:title=" ">
<path fill="none" stroke="#63b8ff" d="M643.04,-109.98C700.76,-100.63 793.41,-85.61 854.86,-75.65"/>
<polygon fill="#63b8ff" stroke="#63b8ff" points="855.51,-79.09 864.82,-74.04 854.39,-72.18 855.51,-79.09"/>
</a>
</g>
</g>
<!-- Node24&#45;&gt;Node9 -->
<g id="edge31_Node000024_Node000009" class="edge">
<title>Node24&#45;&gt;Node9</title>
<g id="a_edge31_Node000024_Node000009"><a xlink:title=" ">
<path fill="none" stroke="#63b8ff" d="M839.46,-170.48C751.2,-159.35 600.93,-140.15 528.27,-129.03"/>
<polygon fill="#63b8ff" stroke="#63b8ff" points="528.55,-125.53 518.13,-127.45 527.47,-132.44 528.55,-125.53"/>
</a>
</g>
</g>
<!-- Node24&#45;&gt;Node15 -->
<g id="edge32_Node000024_Node000015" class="edge">
<title>Node24&#45;&gt;Node15</title>
<g id="a_edge32_Node000024_Node000015"><a xlink:title=" ">
<path fill="none" stroke="#63b8ff" d="M953.68,-170.47C965.04,-168.52 977.19,-166.57 988.5,-165 1140.33,-143.94 1179.16,-145.99 1331.5,-129 1335.72,-128.53 1340.08,-128.03 1344.47,-127.53"/>
<polygon fill="#63b8ff" stroke="#63b8ff" points="1345.18,-130.97 1354.71,-126.35 1344.37,-124.02 1345.18,-130.97"/>
</a>
</g>
</g>
<!-- Node24&#45;&gt;Node22 -->
<g id="edge36_Node000024_Node000022" class="edge">
<title>Node24&#45;&gt;Node22</title>
<g id="a_edge36_Node000024_Node000022"><a xlink:title=" ">
<path fill="none" stroke="#63b8ff" d="M906.91,-170.37C906.35,-162.25 905.5,-149.81 904.79,-139.39"/>
<polygon fill="#63b8ff" stroke="#63b8ff" points="908.27,-138.91 904.09,-129.17 901.28,-139.38 908.27,-138.91"/>
</a>
</g>
</g>
<!-- Node25 -->
<g id="Node000025" class="node">
<title>Node25</title>
<g id="a_Node000025"><a xlink:href="_mutex_8h.html" target="_top" xlink:title=" ">
<polygon fill="white" stroke="#666666" points="1322,-129 1209,-129 1209,-110 1322,-110 1322,-129"/>
<text text-anchor="middle" x="1265.5" y="-117" font-family="Helvetica,sans-Serif" font-size="10.00">Kit/System/Mutex.h</text>
</a>
</g>
</g>
<!-- Node24&#45;&gt;Node25 -->
<g id="edge33_Node000024_Node000025" class="edge">
<title>Node24&#45;&gt;Node25</title>
<g id="a_edge33_Node000024_Node000025"><a xlink:title=" ">
<path fill="none" stroke="#63b8ff" d="M956.31,-170.47C966.92,-168.64 978.08,-166.74 988.5,-165 1061.32,-152.86 1145.01,-139.5 1201.17,-130.61"/>
<polygon fill="#63b8ff" stroke="#63b8ff" points="1202,-134.03 1211.33,-129.01 1200.91,-127.11 1202,-134.03"/>
</a>
</g>
</g>
<!-- Node25&#45;&gt;Node7 -->
<g id="edge34_Node000025_Node000007" class="edge">
<title>Node25&#45;&gt;Node7</title>
<g id="a_edge34_Node000025_Node000007"><a xlink:title=" ">
<path fill="none" stroke="#63b8ff" d="M1271.59,-109.69C1279.39,-97.25 1291.03,-73.95 1283.5,-55 1278.98,-43.63 1270.03,-33.48 1261.54,-25.76"/>
<polygon fill="#63b8ff" stroke="#63b8ff" points="1263.61,-22.92 1253.71,-19.14 1259.09,-28.27 1263.61,-22.92"/>
</a>
</g>
</g>
<!-- Node26 -->
<g id="Node000026" class="node">
<title>Node26</title>
<g id="a_Node000026"><a xlink:title=" ">
<polygon fill="#e0e0e0" stroke="#999999" points="1274,-74 1209,-74 1209,-55 1274,-55 1274,-74"/>
<text text-anchor="middle" x="1241.5" y="-62" font-family="Helvetica,sans-Serif" font-size="10.00">kit_map.h</text>
</a>
</g>
</g>
<!-- Node25&#45;&gt;Node26 -->
<g id="edge35_Node000025_Node000026" class="edge">
<title>Node25&#45;&gt;Node26</title>
<g id="a_edge35_Node000025_Node000026"><a xlink:title=" ">
<path fill="none" stroke="#63b8ff" d="M1261.54,-109.75C1258.29,-102.57 1253.58,-92.18 1249.55,-83.27"/>
<polygon fill="#63b8ff" stroke="#63b8ff" points="1252.7,-81.75 1245.39,-74.09 1246.33,-84.64 1252.7,-81.75"/>
</a>
</g>
</g>
<!-- Node28 -->
<g id="Node000028" class="node">
<title>Node28</title>
<g id="a_Node000028"><a xlink:href="_d_list_base_8h.html" target="_top" xlink:title=" ">
<polygon fill="white" stroke="#666666" points="1114,-129 973,-129 973,-110 1114,-110 1114,-129"/>
<text text-anchor="middle" x="1043.5" y="-117" font-family="Helvetica,sans-Serif" font-size="10.00">Kit/Container/DListBase.h</text>
</a>
</g>
</g>
<!-- Node27&#45;&gt;Node28 -->
<g id="edge39_Node000027_Node000028" class="edge">
<title>Node27&#45;&gt;Node28</title>
<g id="a_edge39_Node000027_Node000028"><a xlink:title=" ">
<path fill="none" stroke="#63b8ff" d="M1053.73,-170.37C1052.05,-162.16 1049.46,-149.54 1047.31,-139.05"/>
<polygon fill="#63b8ff" stroke="#63b8ff" points="1050.72,-138.26 1045.28,-129.17 1043.86,-139.67 1050.72,-138.26"/>
</a>
</g>
</g>
<!-- Node28&#45;&gt;Node13 -->
<g id="edge40_Node000028_Node000013" class="edge">
<title>Node28&#45;&gt;Node13</title>
<g id="a_edge40_Node000028_Node000013"><a xlink:title=" ">
<path fill="none" stroke="#63b8ff" d="M1023.26,-109.98C1002.8,-101.38 970.97,-87.99 947.57,-78.15"/>
<polygon fill="#63b8ff" stroke="#63b8ff" points="948.69,-74.82 938.11,-74.17 945.97,-81.27 948.69,-74.82"/>
</a>
</g>
</g>
<!-- Node29&#45;&gt;Node6 -->
<g id="edge46_Node000029_Node000006" class="edge">
<title>Node29&#45;&gt;Node6</title>
<g id="a_edge46_Node000029_Node000006"><a xlink:title=" ">
<path fill="none" stroke="#63b8ff" d="M583.64,-236.44C548.79,-220.42 476.49,-182.62 436.5,-129 413.71,-98.44 403.82,-53.87 399.87,-29.02"/>
<polygon fill="#63b8ff" stroke="#63b8ff" points="403.33,-28.5 398.44,-19.1 396.4,-29.5 403.33,-28.5"/>
</a>
</g>
</g>
<!-- Node29&#45;&gt;Node12 -->
<g id="edge45_Node000029_Node000012" class="edge">
<title>Node29&#45;&gt;Node12</title>
<g id="a_edge45_Node000029_Node000012"><a xlink:title=" ">
<path fill="none" stroke="#63b8ff" d="M619.28,-236.37C638.91,-225.63 672.64,-207.18 695.73,-194.55"/>
<polygon fill="#63b8ff" stroke="#63b8ff" points="697.5,-197.57 704.6,-189.7 694.14,-191.43 697.5,-197.57"/>
</a>
</g>
</g>
<!-- Node29&#45;&gt;Node21 -->
<g id="edge44_Node000029_Node000021" class="edge">
<title>Node29&#45;&gt;Node21</title>
<g id="a_edge44_Node000029_Node000021"><a xlink:title=" ">
<path fill="none" stroke="#63b8ff" d="M602.61,-236.44C600.53,-216.54 595.33,-166.76 592.47,-139.35"/>
<polygon fill="#63b8ff" stroke="#63b8ff" points="595.92,-138.7 591.4,-129.12 588.96,-139.43 595.92,-138.7"/>
</a>
</g>
</g>
<!-- Node31&#45;&gt;Node6 -->
<g id="edge55_Node000031_Node000006" class="edge">
<title>Node31&#45;&gt;Node6</title>
<g id="a_edge55_Node000031_Node000006"><a xlink:title=" ">
<path fill="none" stroke="#63b8ff" d="M65.61,-230.84C69.22,-195.1 83.91,-100.84 140.5,-55 173.68,-28.12 297.45,-16.7 360.33,-12.54"/>
<polygon fill="#63b8ff" stroke="#63b8ff" points="360.84,-16.02 370.6,-11.89 360.4,-9.03 360.84,-16.02"/>
</a>
</g>
</g>
<!-- Node32 -->
<g id="Node000032" class="node">
<title>Node32</title>
<g id="a_Node000032"><a xlink:href="_i_package_8h.html" target="_top" xlink:title=" ">
<polygon fill="white" stroke="#666666" points="312,-195 183,-195 183,-165 312,-165 312,-195"/>
<text text-anchor="start" x="191" y="-183" font-family="Helvetica,sans-Serif" font-size="10.00">Kit/Logging/Framework</text>
<text text-anchor="middle" x="247.5" y="-172" font-family="Helvetica,sans-Serif" font-size="10.00">/IPackage.h</text>
</a>
</g>
</g>
<!-- Node31&#45;&gt;Node32 -->
<g id="edge52_Node000031_Node000032" class="edge">
<title>Node31&#45;&gt;Node32</title>
<g id="a_edge52_Node000031_Node000032"><a xlink:title=" ">
<path fill="none" stroke="#63b8ff" d="M104.66,-230.95C132.07,-221.37 168.58,-208.6 197.82,-198.37"/>
<polygon fill="#63b8ff" stroke="#63b8ff" points="199.15,-201.62 207.43,-195.01 196.84,-195.01 199.15,-201.62"/>
</a>
</g>
</g>
<!-- Node32&#45;&gt;Node6 -->
<g id="edge54_Node000032_Node000006" class="edge">
<title>Node32&#45;&gt;Node6</title>
<g id="a_edge54_Node000032_Node000006"><a xlink:title=" ">
<path fill="none" stroke="#63b8ff" d="M253.87,-164.95C265.52,-140.38 292.26,-88.99 326.5,-55 339.17,-42.43 356,-31.68 370.1,-23.91"/>
<polygon fill="#63b8ff" stroke="#63b8ff" points="372.14,-26.78 379.33,-19.01 368.86,-20.6 372.14,-26.78"/>
</a>
</g>
</g>
<!-- Node32&#45;&gt;Node9 -->
<g id="edge53_Node000032_Node000009" class="edge">
<title>Node32&#45;&gt;Node9</title>
<g id="a_edge53_Node000032_Node000009"><a xlink:title=" ">
<path fill="none" stroke="#63b8ff" d="M303.55,-164.99C344.63,-154.72 399.62,-140.97 437.55,-131.49"/>
<polygon fill="#63b8ff" stroke="#63b8ff" points="438.43,-134.87 447.29,-129.05 436.74,-128.08 438.43,-134.87"/>
</a>
</g>
</g>
</g>
</svg>
