<?xml version="1.0" encoding="UTF-8" standalone="no"?>
<!DOCTYPE svg PUBLIC "-//W3C//DTD SVG 1.1//EN"
 "http://www.w3.org/Graphics/SVG/1.1/DTD/svg11.dtd">
<!-- Generated by graphviz version 2.43.0 (0)
 -->
<!-- Title: Kit/Logging/Framework/Formatter.h Pages: 1 -->
<svg width="1729pt" height="687pt"
 viewBox="0.00 0.00 1728.50 687.00" xmlns="http://www.w3.org/2000/svg" xmlns:xlink="http://www.w3.org/1999/xlink">
<g id="graph0" class="graph" transform="scale(1 1) rotate(0) translate(4 683)">
<title>Kit/Logging/Framework/Formatter.h</title>
<!-- Node1 -->
<g id="Node000001" class="node">
<title>Node1</title>
<g id="a_Node000001"><a xlink:title=" ">
<polygon fill="#999999" stroke="#666666" points="391,-679 262,-679 262,-649 391,-649 391,-679"/>
<text text-anchor="start" x="270" y="-667" font-family="Helvetica,sans-Serif" font-size="10.00">Kit/Logging/Framework</text>
<text text-anchor="middle" x="326.5" y="-656" font-family="Helvetica,sans-Serif" font-size="10.00">/Formatter.h</text>
</a>
</g>
</g>
<!-- Node2 -->
<g id="Node000002" class="node">
<title>Node2</title>
<g id="a_Node000002"><a xlink:href="_entry_data_8h.html" target="_top" xlink:title=" ">
<polygon fill="white" stroke="#666666" points="391,-613 262,-613 262,-583 391,-583 391,-613"/>
<text text-anchor="start" x="270" y="-601" font-family="Helvetica,sans-Serif" font-size="10.00">Kit/Logging/Framework</text>
<text text-anchor="middle" x="326.5" y="-590" font-family="Helvetica,sans-Serif" font-size="10.00">/EntryData.h</text>
</a>
</g>
</g>
<!-- Node1&#45;&gt;Node2 -->
<g id="edge1_Node000001_Node000002" class="edge">
<title>Node1&#45;&gt;Node2</title>
<g id="a_edge1_Node000001_Node000002"><a xlink:title=" ">
<path fill="none" stroke="#63b8ff" d="M326.5,-648.8C326.5,-641.34 326.5,-631.99 326.5,-623.41"/>
<polygon fill="#63b8ff" stroke="#63b8ff" points="330,-623.16 326.5,-613.16 323,-623.16 330,-623.16"/>
</a>
</g>
</g>
<!-- Node19 -->
<g id="Node000019" class="node">
<title>Node19</title>
<g id="a_Node000019"><a xlink:href="_i_string_8h.html" target="_top" xlink:title=" ">
<polygon fill="white" stroke="#666666" points="1471,-129 1374,-129 1374,-110 1471,-110 1471,-129"/>
<text text-anchor="middle" x="1422.5" y="-117" font-family="Helvetica,sans-Serif" font-size="10.00">Kit/Text/IString.h</text>
</a>
</g>
</g>
<!-- Node1&#45;&gt;Node19 -->
<g id="edge66_Node000001_Node000019" class="edge">
<title>Node1&#45;&gt;Node19</title>
<g id="a_edge66_Node000001_Node000019"><a xlink:title=" ">
<path fill="none" stroke="#63b8ff" d="M391.4,-660.4C666.28,-648.95 1720.5,-600.64 1720.5,-533 1720.5,-533 1720.5,-533 1720.5,-245 1720.5,-192.41 1560.52,-150.05 1474.99,-131.16"/>
<polygon fill="#63b8ff" stroke="#63b8ff" points="1475.71,-127.73 1465.2,-129.03 1474.22,-134.57 1475.71,-127.73"/>
</a>
</g>
</g>
<!-- Node36 -->
<g id="Node000036" class="node">
<title>Node36</title>
<g id="a_Node000036"><a xlink:href="_i_application_8h.html" target="_top" xlink:title=" ">
<polygon fill="white" stroke="#666666" points="129,-261 0,-261 0,-231 129,-231 129,-261"/>
<text text-anchor="start" x="8" y="-249" font-family="Helvetica,sans-Serif" font-size="10.00">Kit/Logging/Framework</text>
<text text-anchor="middle" x="64.5" y="-238" font-family="Helvetica,sans-Serif" font-size="10.00">/IApplication.h</text>
</a>
</g>
</g>
<!-- Node1&#45;&gt;Node36 -->
<g id="edge61_Node000001_Node000036" class="edge">
<title>Node1&#45;&gt;Node36</title>
<g id="a_edge61_Node000001_Node000036"><a xlink:title=" ">
<path fill="none" stroke="#63b8ff" d="M261.82,-657.76C186.28,-647.69 71.5,-618.35 71.5,-533 71.5,-533 71.5,-533 71.5,-360.5 71.5,-329.79 68.92,-294.5 66.89,-271.53"/>
<polygon fill="#63b8ff" stroke="#63b8ff" points="70.35,-270.95 65.95,-261.32 63.38,-271.59 70.35,-270.95"/>
</a>
</g>
</g>
<!-- Node3 -->
<g id="Node000003" class="node">
<title>Node3</title>
<g id="a_Node000003"><a xlink:href="_cursor_b_e_8h.html" target="_top" xlink:title=" ">
<polygon fill="white" stroke="#666666" points="391.5,-426 261.5,-426 261.5,-407 391.5,-407 391.5,-426"/>
<text text-anchor="middle" x="326.5" y="-414" font-family="Helvetica,sans-Serif" font-size="10.00">Kit/Memory/CursorBE.h</text>
</a>
</g>
</g>
<!-- Node2&#45;&gt;Node3 -->
<g id="edge2_Node000002_Node000003" class="edge">
<title>Node2&#45;&gt;Node3</title>
<g id="a_edge2_Node000002_Node000003"><a xlink:title=" ">
<path fill="none" stroke="#63b8ff" d="M326.5,-582.91C326.5,-550.85 326.5,-472.38 326.5,-436.26"/>
<polygon fill="#63b8ff" stroke="#63b8ff" points="330,-436.13 326.5,-426.13 323,-436.13 330,-436.13"/>
</a>
</g>
</g>
<!-- Node5 -->
<g id="Node000005" class="node">
<title>Node5</title>
<g id="a_Node000005"><a xlink:title=" ">
<polygon fill="#e0e0e0" stroke="#999999" points="267.5,-316 217.5,-316 217.5,-297 267.5,-297 267.5,-316"/>
<text text-anchor="middle" x="242.5" y="-304" font-family="Helvetica,sans-Serif" font-size="10.00">cstdint</text>
</a>
</g>
</g>
<!-- Node2&#45;&gt;Node5 -->
<g id="edge58_Node000002_Node000005" class="edge">
<title>Node2&#45;&gt;Node5</title>
<g id="a_edge58_Node000002_Node000005"><a xlink:title=" ">
<path fill="none" stroke="#63b8ff" d="M277.44,-582.96C228.8,-565.68 161.5,-531.17 161.5,-472.5 161.5,-472.5 161.5,-472.5 161.5,-415.5 161.5,-385.91 164.24,-376.03 181.5,-352 190.58,-339.36 204.36,-328.87 216.53,-321.26"/>
<polygon fill="#63b8ff" stroke="#63b8ff" points="218.58,-324.11 225.41,-316.01 215.02,-318.08 218.58,-324.11"/>
</a>
</g>
</g>
<!-- Node6 -->
<g id="Node000006" class="node">
<title>Node6</title>
<g id="a_Node000006"><a xlink:title=" ">
<polygon fill="#e0e0e0" stroke="#999999" points="520,-19 467,-19 467,0 520,0 520,-19"/>
<text text-anchor="middle" x="493.5" y="-7" font-family="Helvetica,sans-Serif" font-size="10.00">stdint.h</text>
</a>
</g>
</g>
<!-- Node2&#45;&gt;Node6 -->
<g id="edge59_Node000002_Node000006" class="edge">
<title>Node2&#45;&gt;Node6</title>
<g id="a_edge59_Node000002_Node000006"><a xlink:title=" ">
<path fill="none" stroke="#63b8ff" d="M261.99,-585.44C202.55,-570.64 123.5,-538.55 123.5,-472.5 123.5,-472.5 123.5,-472.5 123.5,-415.5 123.5,-310.19 157.5,-286.31 157.5,-181 157.5,-181 157.5,-181 157.5,-118.5 157.5,-56.16 369.77,-24.69 456.87,-14.4"/>
<polygon fill="#63b8ff" stroke="#63b8ff" points="457.32,-17.87 466.85,-13.25 456.52,-10.92 457.32,-17.87"/>
</a>
</g>
</g>
<!-- Node10 -->
<g id="Node000010" class="node">
<title>Node10</title>
<g id="a_Node000010"><a xlink:href="_string_8h.html" target="_top" xlink:title=" ">
<polygon fill="white" stroke="#666666" points="682,-316 629,-316 629,-297 682,-297 682,-316"/>
<text text-anchor="middle" x="655.5" y="-304" font-family="Helvetica,sans-Serif" font-size="10.00">string.h</text>
</a>
</g>
</g>
<!-- Node2&#45;&gt;Node10 -->
<g id="edge60_Node000002_Node000010" class="edge">
<title>Node2&#45;&gt;Node10</title>
<g id="a_edge60_Node000002_Node000010"><a xlink:title=" ">
<path fill="none" stroke="#63b8ff" d="M391.22,-591.41C439.32,-585.31 505.49,-572.73 558.5,-547 605.21,-524.33 648.5,-524.43 648.5,-472.5 648.5,-472.5 648.5,-472.5 648.5,-415.5 648.5,-384.12 651.48,-347.73 653.55,-326.21"/>
<polygon fill="#63b8ff" stroke="#63b8ff" points="657.04,-326.47 654.56,-316.17 650.08,-325.77 657.04,-326.47"/>
</a>
</g>
</g>
<!-- Node33 -->
<g id="Node000033" class="node">
<title>Node33</title>
<g id="a_Node000033"><a xlink:href="_i_payload_8h.html" target="_top" xlink:title=" ">
<polygon fill="white" stroke="#666666" points="549.5,-547 423.5,-547 423.5,-517 549.5,-517 549.5,-547"/>
<text text-anchor="start" x="431.5" y="-535" font-family="Helvetica,sans-Serif" font-size="10.00">Kit/Persistence/Record</text>
<text text-anchor="middle" x="486.5" y="-524" font-family="Helvetica,sans-Serif" font-size="10.00">/IPayload.h</text>
</a>
</g>
</g>
<!-- Node2&#45;&gt;Node33 -->
<g id="edge50_Node000002_Node000033" class="edge">
<title>Node2&#45;&gt;Node33</title>
<g id="a_edge50_Node000002_Node000033"><a xlink:title=" ">
<path fill="none" stroke="#63b8ff" d="M361.61,-582.95C385.27,-573.49 416.66,-560.93 442.06,-550.78"/>
<polygon fill="#63b8ff" stroke="#63b8ff" points="443.48,-553.98 451.47,-547.01 440.88,-547.48 443.48,-553.98"/>
</a>
</g>
</g>
<!-- Node4 -->
<g id="Node000004" class="node">
<title>Node4</title>
<g id="a_Node000004"><a xlink:href="_cursor_base_8h.html" target="_top" xlink:title=" ">
<polygon fill="white" stroke="#666666" points="331,-371 190,-371 190,-352 331,-352 331,-371"/>
<text text-anchor="middle" x="260.5" y="-359" font-family="Helvetica,sans-Serif" font-size="10.00">Kit/Memory/CursorBase.h</text>
</a>
</g>
</g>
<!-- Node3&#45;&gt;Node4 -->
<g id="edge3_Node000003_Node000004" class="edge">
<title>Node3&#45;&gt;Node4</title>
<g id="a_edge3_Node000003_Node000004"><a xlink:title=" ">
<path fill="none" stroke="#63b8ff" d="M315.9,-406.98C306.04,-399.07 291.15,-387.11 279.28,-377.58"/>
<polygon fill="#63b8ff" stroke="#63b8ff" points="281.29,-374.7 271.3,-371.17 276.9,-380.16 281.29,-374.7"/>
</a>
</g>
</g>
<!-- Node8 -->
<g id="Node000008" class="node">
<title>Node8</title>
<g id="a_Node000008"><a xlink:href="endian_8h.html" target="_top" xlink:title="This file provides a set of macros/method to convert between the &#39;host&#39; platform and Big/Little endia...">
<polygon fill="white" stroke="#666666" points="537,-371 436,-371 436,-352 537,-352 537,-371"/>
<text text-anchor="middle" x="486.5" y="-359" font-family="Helvetica,sans-Serif" font-size="10.00">Kit/Type/endian.h</text>
</a>
</g>
</g>
<!-- Node3&#45;&gt;Node8 -->
<g id="edge7_Node000003_Node000008" class="edge">
<title>Node3&#45;&gt;Node8</title>
<g id="a_edge7_Node000003_Node000008"><a xlink:title=" ">
<path fill="none" stroke="#63b8ff" d="M352.21,-406.98C378.95,-398.13 421.03,-384.19 450.95,-374.28"/>
<polygon fill="#63b8ff" stroke="#63b8ff" points="452.2,-377.55 460.59,-371.08 450,-370.9 452.2,-377.55"/>
</a>
</g>
</g>
<!-- Node32 -->
<g id="Node000032" class="node">
<title>Node32</title>
<g id="a_Node000032"><a xlink:title=" ">
<polygon fill="#e0e0e0" stroke="#999999" points="418,-371 349,-371 349,-352 418,-352 418,-371"/>
<text text-anchor="middle" x="383.5" y="-359" font-family="Helvetica,sans-Serif" font-size="10.00">type_traits</text>
</a>
</g>
</g>
<!-- Node3&#45;&gt;Node32 -->
<g id="edge49_Node000003_Node000032" class="edge">
<title>Node3&#45;&gt;Node32</title>
<g id="a_edge49_Node000003_Node000032"><a xlink:title=" ">
<path fill="none" stroke="#63b8ff" d="M335.66,-406.98C344,-399.23 356.53,-387.58 366.68,-378.14"/>
<polygon fill="#63b8ff" stroke="#63b8ff" points="369.24,-380.54 374.18,-371.17 364.47,-375.42 369.24,-380.54"/>
</a>
</g>
</g>
<!-- Node4&#45;&gt;Node5 -->
<g id="edge4_Node000004_Node000005" class="edge">
<title>Node4&#45;&gt;Node5</title>
<g id="a_edge4_Node000004_Node000005"><a xlink:title=" ">
<path fill="none" stroke="#63b8ff" d="M257.53,-351.75C255.14,-344.72 251.71,-334.62 248.73,-325.84"/>
<polygon fill="#63b8ff" stroke="#63b8ff" points="251.95,-324.43 245.42,-316.09 245.32,-326.68 251.95,-324.43"/>
</a>
</g>
</g>
<!-- Node4&#45;&gt;Node6 -->
<g id="edge5_Node000004_Node000006" class="edge">
<title>Node4&#45;&gt;Node6</title>
<g id="a_edge5_Node000004_Node000006"><a xlink:title=" ">
<path fill="none" stroke="#63b8ff" d="M274.25,-351.74C299,-334.78 348.5,-294.87 348.5,-247 348.5,-247 348.5,-247 348.5,-118.5 348.5,-64.34 414.38,-34.12 457.33,-20.18"/>
<polygon fill="#63b8ff" stroke="#63b8ff" points="458.39,-23.51 466.9,-17.21 456.32,-16.83 458.39,-23.51"/>
</a>
</g>
</g>
<!-- Node7 -->
<g id="Node000007" class="node">
<title>Node7</title>
<g id="a_Node000007"><a xlink:title=" ">
<polygon fill="#e0e0e0" stroke="#999999" points="426,-316 377,-316 377,-297 426,-297 426,-316"/>
<text text-anchor="middle" x="401.5" y="-304" font-family="Helvetica,sans-Serif" font-size="10.00">cstdlib</text>
</a>
</g>
</g>
<!-- Node4&#45;&gt;Node7 -->
<g id="edge6_Node000004_Node000007" class="edge">
<title>Node4&#45;&gt;Node7</title>
<g id="a_edge6_Node000004_Node000007"><a xlink:title=" ">
<path fill="none" stroke="#63b8ff" d="M283.15,-351.98C306.35,-343.27 342.62,-329.63 368.9,-319.75"/>
<polygon fill="#63b8ff" stroke="#63b8ff" points="370.3,-322.97 378.43,-316.17 367.84,-316.41 370.3,-322.97"/>
</a>
</g>
</g>
<!-- Node8&#45;&gt;Node6 -->
<g id="edge9_Node000008_Node000006" class="edge">
<title>Node8&#45;&gt;Node6</title>
<g id="a_edge9_Node000008_Node000006"><a xlink:title=" ">
<path fill="none" stroke="#63b8ff" d="M482.45,-351.89C474.04,-333.22 455.5,-287.44 455.5,-247 455.5,-247 455.5,-247 455.5,-118.5 455.5,-85.02 471.95,-48.84 483.2,-28.01"/>
<polygon fill="#63b8ff" stroke="#63b8ff" points="486.37,-29.53 488.22,-19.1 480.26,-26.1 486.37,-29.53"/>
</a>
</g>
</g>
<!-- Node9 -->
<g id="Node000009" class="node">
<title>Node9</title>
<g id="a_Node000009"><a xlink:title=" ">
<polygon fill="#e0e0e0" stroke="#999999" points="595,-129 522,-129 522,-110 595,-110 595,-129"/>
<text text-anchor="middle" x="558.5" y="-117" font-family="Helvetica,sans-Serif" font-size="10.00">kit_config.h</text>
</a>
</g>
</g>
<!-- Node8&#45;&gt;Node9 -->
<g id="edge8_Node000008_Node000009" class="edge">
<title>Node8&#45;&gt;Node9</title>
<g id="a_edge8_Node000008_Node000009"><a xlink:title=" ">
<path fill="none" stroke="#63b8ff" d="M489.06,-351.96C499.43,-317.41 538.39,-187.54 552.96,-138.97"/>
<polygon fill="#63b8ff" stroke="#63b8ff" points="556.37,-139.77 555.89,-129.19 549.67,-137.76 556.37,-139.77"/>
</a>
</g>
</g>
<!-- Node8&#45;&gt;Node10 -->
<g id="edge10_Node000008_Node000010" class="edge">
<title>Node8&#45;&gt;Node10</title>
<g id="a_edge10_Node000008_Node000010"><a xlink:title=" ">
<path fill="none" stroke="#63b8ff" d="M513.65,-351.98C542.28,-343.01 587.53,-328.82 619.2,-318.88"/>
<polygon fill="#63b8ff" stroke="#63b8ff" points="620.48,-322.15 628.97,-315.82 618.38,-315.47 620.48,-322.15"/>
</a>
</g>
</g>
<!-- Node11 -->
<g id="Node000011" class="node">
<title>Node11</title>
<g id="a_Node000011"><a xlink:href="_model_point_base_8h.html" target="_top" xlink:title=" ">
<polygon fill="white" stroke="#666666" points="1014,-255.5 873,-255.5 873,-236.5 1014,-236.5 1014,-255.5"/>
<text text-anchor="middle" x="943.5" y="-243.5" font-family="Helvetica,sans-Serif" font-size="10.00">Kit/Dm/ModelPointBase.h</text>
</a>
</g>
</g>
<!-- Node10&#45;&gt;Node11 -->
<g id="edge11_Node000010_Node000011" class="edge">
<title>Node10&#45;&gt;Node11</title>
<g id="a_edge11_Node000010_Node000011"><a xlink:title=" ">
<path fill="none" stroke="#63b8ff" d="M682.08,-300.1C729.57,-290.46 829.77,-270.1 891.4,-257.58"/>
<polygon fill="#63b8ff" stroke="#63b8ff" points="892.21,-260.99 901.31,-255.57 890.82,-254.13 892.21,-260.99"/>
</a>
</g>
</g>
<!-- Node31 -->
<g id="Node000031" class="node">
<title>Node31</title>
<g id="a_Node000031"><a xlink:href="_observer_8h.html" target="_top" xlink:title=" ">
<polygon fill="white" stroke="#666666" points="720.5,-255.5 614.5,-255.5 614.5,-236.5 720.5,-236.5 720.5,-255.5"/>
<text text-anchor="middle" x="667.5" y="-243.5" font-family="Helvetica,sans-Serif" font-size="10.00">Kit/Dm/Observer.h</text>
</a>
</g>
</g>
<!-- Node10&#45;&gt;Node31 -->
<g id="edge45_Node000010_Node000031" class="edge">
<title>Node10&#45;&gt;Node31</title>
<g id="a_edge45_Node000010_Node000031"><a xlink:title=" ">
<path fill="none" stroke="#63b8ff" d="M657.27,-296.87C658.95,-288.66 661.54,-276.04 663.69,-265.55"/>
<polygon fill="#63b8ff" stroke="#63b8ff" points="667.14,-266.17 665.72,-255.67 660.28,-264.76 667.14,-266.17"/>
</a>
</g>
</g>
<!-- Node11&#45;&gt;Node6 -->
<g id="edge43_Node000011_Node000006" class="edge">
<title>Node11&#45;&gt;Node6</title>
<g id="a_edge43_Node000011_Node000006"><a xlink:title=" ">
<path fill="none" stroke="#63b8ff" d="M969.86,-236.35C988.51,-228.69 1012.15,-215.49 1023.5,-195 1042.27,-161.14 1033.69,-135.43 1004.5,-110 933.02,-47.72 635.51,-20.69 530.44,-12.97"/>
<polygon fill="#63b8ff" stroke="#63b8ff" points="530.54,-9.47 520.32,-12.24 530.04,-16.45 530.54,-9.47"/>
</a>
</g>
</g>
<!-- Node12 -->
<g id="Node000012" class="node">
<title>Node12</title>
<g id="a_Node000012"><a xlink:href="_i_model_point_8h.html" target="_top" xlink:title=" ">
<polygon fill="white" stroke="#666666" points="854.5,-189.5 734.5,-189.5 734.5,-170.5 854.5,-170.5 854.5,-189.5"/>
<text text-anchor="middle" x="794.5" y="-177.5" font-family="Helvetica,sans-Serif" font-size="10.00">Kit/Dm/IModelPoint.h</text>
</a>
</g>
</g>
<!-- Node11&#45;&gt;Node12 -->
<g id="edge12_Node000011_Node000012" class="edge">
<title>Node11&#45;&gt;Node12</title>
<g id="a_edge12_Node000011_Node000012"><a xlink:title=" ">
<path fill="none" stroke="#63b8ff" d="M923.41,-236.37C897.86,-225.39 853.54,-206.36 824.11,-193.72"/>
<polygon fill="#63b8ff" stroke="#63b8ff" points="825.32,-190.43 814.75,-189.7 822.56,-196.86 825.32,-190.43"/>
</a>
</g>
</g>
<!-- Node17 -->
<g id="Node000017" class="node">
<title>Node17</title>
<g id="a_Node000017"><a xlink:title=" ">
<polygon fill="#e0e0e0" stroke="#999999" points="1671,-19 1618,-19 1618,0 1671,0 1671,-19"/>
<text text-anchor="middle" x="1644.5" y="-7" font-family="Helvetica,sans-Serif" font-size="10.00">stdlib.h</text>
</a>
</g>
</g>
<!-- Node11&#45;&gt;Node17 -->
<g id="edge44_Node000011_Node000017" class="edge">
<title>Node11&#45;&gt;Node17</title>
<g id="a_edge44_Node000011_Node000017"><a xlink:title=" ">
<path fill="none" stroke="#63b8ff" d="M1014.03,-244.52C1176.4,-241.75 1568.92,-225.05 1649.5,-129 1673.12,-100.84 1661.37,-54.34 1652.09,-28.76"/>
<polygon fill="#63b8ff" stroke="#63b8ff" points="1655.26,-27.25 1648.38,-19.2 1648.74,-29.79 1655.26,-27.25"/>
</a>
</g>
</g>
<!-- Node23 -->
<g id="Node000023" class="node">
<title>Node23</title>
<g id="a_Node000023"><a xlink:href="_i_observer_8h.html" target="_top" xlink:title=" ">
<polygon fill="white" stroke="#666666" points="761,-129 652,-129 652,-110 761,-110 761,-129"/>
<text text-anchor="middle" x="706.5" y="-117" font-family="Helvetica,sans-Serif" font-size="10.00">Kit/Dm/IObserver.h</text>
</a>
</g>
</g>
<!-- Node11&#45;&gt;Node23 -->
<g id="edge39_Node000011_Node000023" class="edge">
<title>Node11&#45;&gt;Node23</title>
<g id="a_edge39_Node000011_Node000023"><a xlink:title=" ">
<path fill="none" stroke="#63b8ff" d="M872.77,-236.81C817.37,-228.97 746.31,-215.31 725.5,-195 710.75,-180.61 706.88,-156.48 706.13,-139.6"/>
<polygon fill="#63b8ff" stroke="#63b8ff" points="709.63,-139.23 706.02,-129.27 702.63,-139.31 709.63,-139.23"/>
</a>
</g>
</g>
<!-- Node26 -->
<g id="Node000026" class="node">
<title>Node26</title>
<g id="a_Node000026"><a xlink:href="_i_model_database_8h.html" target="_top" xlink:title=" ">
<polygon fill="white" stroke="#666666" points="1014.5,-189.5 872.5,-189.5 872.5,-170.5 1014.5,-170.5 1014.5,-189.5"/>
<text text-anchor="middle" x="943.5" y="-177.5" font-family="Helvetica,sans-Serif" font-size="10.00">Kit/Dm/IModelDatabase.h</text>
</a>
</g>
</g>
<!-- Node11&#45;&gt;Node26 -->
<g id="edge32_Node000011_Node000026" class="edge">
<title>Node11&#45;&gt;Node26</title>
<g id="a_edge32_Node000011_Node000026"><a xlink:title=" ">
<path fill="none" stroke="#63b8ff" d="M943.5,-236.37C943.5,-227.16 943.5,-212.29 943.5,-200.27"/>
<polygon fill="#63b8ff" stroke="#63b8ff" points="947,-199.91 943.5,-189.91 940,-199.91 947,-199.91"/>
</a>
</g>
</g>
<!-- Node29 -->
<g id="Node000029" class="node">
<title>Node29</title>
<g id="a_Node000029"><a xlink:href="_d_list_8h.html" target="_top" xlink:title=" ">
<polygon fill="white" stroke="#666666" points="1266,-189.5 1149,-189.5 1149,-170.5 1266,-170.5 1266,-189.5"/>
<text text-anchor="middle" x="1207.5" y="-177.5" font-family="Helvetica,sans-Serif" font-size="10.00">Kit/Container/DList.h</text>
</a>
</g>
</g>
<!-- Node11&#45;&gt;Node29 -->
<g id="edge40_Node000011_Node000029" class="edge">
<title>Node11&#45;&gt;Node29</title>
<g id="a_edge40_Node000011_Node000029"><a xlink:title=" ">
<path fill="none" stroke="#63b8ff" d="M978.83,-236.44C1026.25,-224.94 1110.51,-204.51 1162.44,-191.92"/>
<polygon fill="#63b8ff" stroke="#63b8ff" points="1163.49,-195.27 1172.38,-189.51 1161.84,-188.47 1163.49,-195.27"/>
</a>
</g>
</g>
<!-- Node12&#45;&gt;Node6 -->
<g id="edge31_Node000012_Node000006" class="edge">
<title>Node12&#45;&gt;Node6</title>
<g id="a_edge31_Node000012_Node000006"><a xlink:title=" ">
<path fill="none" stroke="#63b8ff" d="M793.57,-170.34C791.63,-156.16 785.97,-127.81 770.5,-110 708.21,-38.32 590.38,-18.27 530.48,-12.67"/>
<polygon fill="#63b8ff" stroke="#63b8ff" points="530.6,-9.17 520.34,-11.81 530,-16.14 530.6,-9.17"/>
</a>
</g>
</g>
<!-- Node12&#45;&gt;Node9 -->
<g id="edge13_Node000012_Node000009" class="edge">
<title>Node12&#45;&gt;Node9</title>
<g id="a_edge13_Node000012_Node000009"><a xlink:title=" ">
<path fill="none" stroke="#63b8ff" d="M760.18,-170.49C718.59,-160.18 648.4,-142.78 602.77,-131.47"/>
<polygon fill="#63b8ff" stroke="#63b8ff" points="603.41,-128.03 592.86,-129.02 601.72,-134.82 603.41,-128.03"/>
</a>
</g>
</g>
<!-- Node13 -->
<g id="Node000013" class="node">
<title>Node13</title>
<g id="a_Node000013"><a xlink:href="_keyed_item_8h.html" target="_top" xlink:title=" ">
<polygon fill="white" stroke="#666666" points="1197,-129 1052,-129 1052,-110 1197,-110 1197,-129"/>
<text text-anchor="middle" x="1124.5" y="-117" font-family="Helvetica,sans-Serif" font-size="10.00">Kit/Container/KeyedItem.h</text>
</a>
</g>
</g>
<!-- Node12&#45;&gt;Node13 -->
<g id="edge14_Node000012_Node000013" class="edge">
<title>Node12&#45;&gt;Node13</title>
<g id="a_edge14_Node000012_Node000013"><a xlink:title=" ">
<path fill="none" stroke="#63b8ff" d="M835.32,-170.5C844.58,-168.63 854.37,-166.7 863.5,-165 931,-152.4 1008.59,-139.36 1061.51,-130.67"/>
<polygon fill="#63b8ff" stroke="#63b8ff" points="1062.12,-134.12 1071.43,-129.05 1060.99,-127.21 1062.12,-134.12"/>
</a>
</g>
</g>
<!-- Node12&#45;&gt;Node19 -->
<g id="edge21_Node000012_Node000019" class="edge">
<title>Node12&#45;&gt;Node19</title>
<g id="a_edge21_Node000012_Node000019"><a xlink:title=" ">
<path fill="none" stroke="#63b8ff" d="M831.95,-170.49C842.14,-168.42 853.21,-166.41 863.5,-165 1081.88,-135.14 1141.43,-152.97 1363.69,-129.12"/>
<polygon fill="#63b8ff" stroke="#63b8ff" points="1364.15,-132.59 1373.71,-128.03 1363.39,-125.63 1364.15,-132.59"/>
</a>
</g>
</g>
<!-- Node12&#45;&gt;Node23 -->
<g id="edge26_Node000012_Node000023" class="edge">
<title>Node12&#45;&gt;Node23</title>
<g id="a_edge26_Node000012_Node000023"><a xlink:title=" ">
<path fill="none" stroke="#63b8ff" d="M781.52,-170.37C767.48,-161.04 744.87,-146.01 728.14,-134.88"/>
<polygon fill="#63b8ff" stroke="#63b8ff" points="729.8,-131.79 719.54,-129.17 725.93,-137.62 729.8,-131.79"/>
</a>
</g>
</g>
<!-- Node24 -->
<g id="Node000024" class="node">
<title>Node24</title>
<g id="a_Node000024"><a xlink:href="_arduino_8h_source.html" target="_top" xlink:title=" ">
<polygon fill="white" stroke="#666666" points="995,-129 892,-129 892,-110 995,-110 995,-129"/>
<text text-anchor="middle" x="943.5" y="-117" font-family="Helvetica,sans-Serif" font-size="10.00">Kit/Json/Arduino.h</text>
</a>
</g>
</g>
<!-- Node12&#45;&gt;Node24 -->
<g id="edge29_Node000012_Node000024" class="edge">
<title>Node12&#45;&gt;Node24</title>
<g id="a_edge29_Node000012_Node000024"><a xlink:title=" ">
<path fill="none" stroke="#63b8ff" d="M816.17,-170.49C841.44,-160.57 883.41,-144.09 912.22,-132.78"/>
<polygon fill="#63b8ff" stroke="#63b8ff" points="913.78,-135.93 921.81,-129.02 911.22,-129.41 913.78,-135.93"/>
</a>
</g>
</g>
<!-- Node25 -->
<g id="Node000025" class="node">
<title>Node25</title>
<g id="a_Node000025"><a xlink:title=" ">
<polygon fill="#e0e0e0" stroke="#999999" points="873.5,-129 817.5,-129 817.5,-110 873.5,-110 873.5,-129"/>
<text text-anchor="middle" x="845.5" y="-117" font-family="Helvetica,sans-Serif" font-size="10.00">stddef.h</text>
</a>
</g>
</g>
<!-- Node12&#45;&gt;Node25 -->
<g id="edge30_Node000012_Node000025" class="edge">
<title>Node12&#45;&gt;Node25</title>
<g id="a_edge30_Node000012_Node000025"><a xlink:title=" ">
<path fill="none" stroke="#63b8ff" d="M802.03,-170.37C809.71,-161.55 821.82,-147.66 831.31,-136.77"/>
<polygon fill="#63b8ff" stroke="#63b8ff" points="834.01,-139.01 837.94,-129.17 828.73,-134.41 834.01,-139.01"/>
</a>
</g>
</g>
<!-- Node14 -->
<g id="Node000014" class="node">
<title>Node14</title>
<g id="a_Node000014"><a xlink:href="_list_item_8h.html" target="_top" xlink:title=" ">
<polygon fill="white" stroke="#666666" points="1088.5,-74 956.5,-74 956.5,-55 1088.5,-55 1088.5,-74"/>
<text text-anchor="middle" x="1022.5" y="-62" font-family="Helvetica,sans-Serif" font-size="10.00">Kit/Container/ListItem.h</text>
</a>
</g>
</g>
<!-- Node13&#45;&gt;Node14 -->
<g id="edge15_Node000013_Node000014" class="edge">
<title>Node13&#45;&gt;Node14</title>
<g id="a_edge15_Node000013_Node000014"><a xlink:title=" ">
<path fill="none" stroke="#63b8ff" d="M1108.11,-109.98C1091.93,-101.57 1066.93,-88.59 1048.12,-78.81"/>
<polygon fill="#63b8ff" stroke="#63b8ff" points="1049.67,-75.68 1039.19,-74.17 1046.45,-81.89 1049.67,-75.68"/>
</a>
</g>
</g>
<!-- Node16 -->
<g id="Node000016" class="node">
<title>Node16</title>
<g id="a_Node000016"><a xlink:href="_key_8h.html" target="_top" xlink:title=" ">
<polygon fill="white" stroke="#666666" points="1216,-74 1107,-74 1107,-55 1216,-55 1216,-74"/>
<text text-anchor="middle" x="1161.5" y="-62" font-family="Helvetica,sans-Serif" font-size="10.00">Kit/Container/Key.h</text>
</a>
</g>
</g>
<!-- Node13&#45;&gt;Node16 -->
<g id="edge17_Node000013_Node000016" class="edge">
<title>Node13&#45;&gt;Node16</title>
<g id="a_edge17_Node000013_Node000016"><a xlink:title=" ">
<path fill="none" stroke="#63b8ff" d="M1130.61,-109.75C1135.78,-102.34 1143.35,-91.5 1149.69,-82.41"/>
<polygon fill="#63b8ff" stroke="#63b8ff" points="1152.65,-84.29 1155.5,-74.09 1146.91,-80.29 1152.65,-84.29"/>
</a>
</g>
</g>
<!-- Node15 -->
<g id="Node000015" class="node">
<title>Node15</title>
<g id="a_Node000015"><a xlink:href="_item_8h.html" target="_top" xlink:title=" ">
<polygon fill="white" stroke="#666666" points="1080,-19 965,-19 965,0 1080,0 1080,-19"/>
<text text-anchor="middle" x="1022.5" y="-7" font-family="Helvetica,sans-Serif" font-size="10.00">Kit/Container/Item.h</text>
</a>
</g>
</g>
<!-- Node14&#45;&gt;Node15 -->
<g id="edge16_Node000014_Node000015" class="edge">
<title>Node14&#45;&gt;Node15</title>
<g id="a_edge16_Node000014_Node000015"><a xlink:title=" ">
<path fill="none" stroke="#63b8ff" d="M1022.5,-54.75C1022.5,-47.8 1022.5,-37.85 1022.5,-29.13"/>
<polygon fill="#63b8ff" stroke="#63b8ff" points="1026,-29.09 1022.5,-19.09 1019,-29.09 1026,-29.09"/>
</a>
</g>
</g>
<!-- Node16&#45;&gt;Node6 -->
<g id="edge18_Node000016_Node000006" class="edge">
<title>Node16&#45;&gt;Node6</title>
<g id="a_edge18_Node000016_Node000006"><a xlink:title=" ">
<path fill="none" stroke="#63b8ff" d="M1106.71,-56.01C1103.6,-55.65 1100.51,-55.31 1097.5,-55 882.99,-32.87 624.51,-17.64 530.2,-12.45"/>
<polygon fill="#63b8ff" stroke="#63b8ff" points="530.22,-8.95 520.04,-11.9 529.84,-15.94 530.22,-8.95"/>
</a>
</g>
</g>
<!-- Node16&#45;&gt;Node17 -->
<g id="edge19_Node000016_Node000017" class="edge">
<title>Node16&#45;&gt;Node17</title>
<g id="a_edge19_Node000016_Node000017"><a xlink:title=" ">
<path fill="none" stroke="#63b8ff" d="M1216.3,-56.13C1219.41,-55.74 1222.5,-55.36 1225.5,-55 1366.38,-38.17 1534.31,-21.3 1607.43,-14.11"/>
<polygon fill="#63b8ff" stroke="#63b8ff" points="1607.9,-17.58 1617.51,-13.12 1607.22,-10.61 1607.9,-17.58"/>
</a>
</g>
</g>
<!-- Node18 -->
<g id="Node000018" class="node">
<title>Node18</title>
<g id="a_Node000018"><a xlink:title=" ">
<polygon fill="#e0e0e0" stroke="#999999" points="1188,-19 1135,-19 1135,0 1188,0 1188,-19"/>
<text text-anchor="middle" x="1161.5" y="-7" font-family="Helvetica,sans-Serif" font-size="10.00">limits.h</text>
</a>
</g>
</g>
<!-- Node16&#45;&gt;Node18 -->
<g id="edge20_Node000016_Node000018" class="edge">
<title>Node16&#45;&gt;Node18</title>
<g id="a_edge20_Node000016_Node000018"><a xlink:title=" ">
<path fill="none" stroke="#63b8ff" d="M1161.5,-54.75C1161.5,-47.8 1161.5,-37.85 1161.5,-29.13"/>
<polygon fill="#63b8ff" stroke="#63b8ff" points="1165,-29.09 1161.5,-19.09 1158,-29.09 1165,-29.09"/>
</a>
</g>
</g>
<!-- Node19&#45;&gt;Node16 -->
<g id="edge22_Node000019_Node000016" class="edge">
<title>Node19&#45;&gt;Node16</title>
<g id="a_edge22_Node000019_Node000016"><a xlink:title=" ">
<path fill="none" stroke="#63b8ff" d="M1380.57,-109.98C1335.23,-100.78 1262.89,-86.09 1213.85,-76.13"/>
<polygon fill="#63b8ff" stroke="#63b8ff" points="1214.26,-72.64 1203.76,-74.08 1212.87,-79.5 1214.26,-72.64"/>
</a>
</g>
</g>
<!-- Node20 -->
<g id="Node000020" class="node">
<title>Node20</title>
<g id="a_Node000020"><a xlink:href="printfchecker_8h.html" target="_top" xlink:title="This file contains macro that enables the GCC (and Clang) compiler to validate printf flags with thei...">
<polygon fill="white" stroke="#666666" points="1458,-74 1313,-74 1313,-55 1458,-55 1458,-74"/>
<text text-anchor="middle" x="1385.5" y="-62" font-family="Helvetica,sans-Serif" font-size="10.00">Kit/System/printfchecker.h</text>
</a>
</g>
</g>
<!-- Node19&#45;&gt;Node20 -->
<g id="edge23_Node000019_Node000020" class="edge">
<title>Node19&#45;&gt;Node20</title>
<g id="a_edge23_Node000019_Node000020"><a xlink:title=" ">
<path fill="none" stroke="#63b8ff" d="M1416.39,-109.75C1411.22,-102.34 1403.65,-91.5 1397.31,-82.41"/>
<polygon fill="#63b8ff" stroke="#63b8ff" points="1400.09,-80.29 1391.5,-74.09 1394.35,-84.29 1400.09,-80.29"/>
</a>
</g>
</g>
<!-- Node21 -->
<g id="Node000021" class="node">
<title>Node21</title>
<g id="a_Node000021"><a xlink:title=" ">
<polygon fill="#e0e0e0" stroke="#999999" points="1532.5,-74 1476.5,-74 1476.5,-55 1532.5,-55 1532.5,-74"/>
<text text-anchor="middle" x="1504.5" y="-62" font-family="Helvetica,sans-Serif" font-size="10.00">stdarg.h</text>
</a>
</g>
</g>
<!-- Node19&#45;&gt;Node21 -->
<g id="edge24_Node000019_Node000021" class="edge">
<title>Node19&#45;&gt;Node21</title>
<g id="a_edge24_Node000019_Node000021"><a xlink:title=" ">
<path fill="none" stroke="#63b8ff" d="M1435.67,-109.98C1448.27,-101.84 1467.5,-89.41 1482.44,-79.76"/>
<polygon fill="#63b8ff" stroke="#63b8ff" points="1484.59,-82.54 1491.09,-74.17 1480.79,-76.66 1484.59,-82.54"/>
</a>
</g>
</g>
<!-- Node22 -->
<g id="Node000022" class="node">
<title>Node22</title>
<g id="a_Node000022"><a xlink:title=" ">
<polygon fill="#e0e0e0" stroke="#999999" points="1294.5,-74 1234.5,-74 1234.5,-55 1294.5,-55 1294.5,-74"/>
<text text-anchor="middle" x="1264.5" y="-62" font-family="Helvetica,sans-Serif" font-size="10.00">iostream</text>
</a>
</g>
</g>
<!-- Node19&#45;&gt;Node22 -->
<g id="edge25_Node000019_Node000022" class="edge">
<title>Node19&#45;&gt;Node22</title>
<g id="a_edge25_Node000019_Node000022"><a xlink:title=" ">
<path fill="none" stroke="#63b8ff" d="M1397.11,-109.98C1370.7,-101.13 1329.15,-87.19 1299.61,-77.28"/>
<polygon fill="#63b8ff" stroke="#63b8ff" points="1300.68,-73.94 1290.08,-74.08 1298.45,-80.58 1300.68,-73.94"/>
</a>
</g>
</g>
<!-- Node23&#45;&gt;Node6 -->
<g id="edge28_Node000023_Node000006" class="edge">
<title>Node23&#45;&gt;Node6</title>
<g id="a_edge28_Node000023_Node000006"><a xlink:title=" ">
<path fill="none" stroke="#63b8ff" d="M699.36,-109.8C687.75,-96.2 663.47,-69.93 637.5,-55 603.71,-35.57 560.5,-23.69 530.26,-17.15"/>
<polygon fill="#63b8ff" stroke="#63b8ff" points="530.65,-13.65 520.15,-15.05 529.23,-20.51 530.65,-13.65"/>
</a>
</g>
</g>
<!-- Node23&#45;&gt;Node14 -->
<g id="edge27_Node000023_Node000014" class="edge">
<title>Node23&#45;&gt;Node14</title>
<g id="a_edge27_Node000023_Node000014"><a xlink:title=" ">
<path fill="none" stroke="#63b8ff" d="M757.27,-109.98C812.93,-100.65 902.21,-85.67 961.6,-75.71"/>
<polygon fill="#63b8ff" stroke="#63b8ff" points="962.31,-79.14 971.59,-74.04 961.15,-72.24 962.31,-79.14"/>
</a>
</g>
</g>
<!-- Node26&#45;&gt;Node9 -->
<g id="edge33_Node000026_Node000009" class="edge">
<title>Node26&#45;&gt;Node9</title>
<g id="a_edge33_Node000026_Node000009"><a xlink:title=" ">
<path fill="none" stroke="#63b8ff" d="M896.16,-170.49C885.43,-168.62 874.08,-166.7 863.5,-165 772.29,-150.37 665.39,-135.23 605.45,-126.93"/>
<polygon fill="#63b8ff" stroke="#63b8ff" points="605.56,-123.41 595.17,-125.51 604.6,-130.34 605.56,-123.41"/>
</a>
</g>
</g>
<!-- Node26&#45;&gt;Node19 -->
<g id="edge34_Node000026_Node000019" class="edge">
<title>Node26&#45;&gt;Node19</title>
<g id="a_edge34_Node000026_Node000019"><a xlink:title=" ">
<path fill="none" stroke="#63b8ff" d="M1014.52,-171.25C1096.32,-162.17 1235.02,-146.31 1363.66,-129.22"/>
<polygon fill="#63b8ff" stroke="#63b8ff" points="1364.25,-132.67 1373.7,-127.88 1363.32,-125.73 1364.25,-132.67"/>
</a>
</g>
</g>
<!-- Node26&#45;&gt;Node24 -->
<g id="edge38_Node000026_Node000024" class="edge">
<title>Node26&#45;&gt;Node24</title>
<g id="a_edge38_Node000026_Node000024"><a xlink:title=" ">
<path fill="none" stroke="#63b8ff" d="M943.5,-170.37C943.5,-162.25 943.5,-149.81 943.5,-139.39"/>
<polygon fill="#63b8ff" stroke="#63b8ff" points="947,-139.17 943.5,-129.17 940,-139.17 947,-139.17"/>
</a>
</g>
</g>
<!-- Node27 -->
<g id="Node000027" class="node">
<title>Node27</title>
<g id="a_Node000027"><a xlink:href="_mutex_8h.html" target="_top" xlink:title=" ">
<polygon fill="white" stroke="#666666" points="1640,-129 1527,-129 1527,-110 1640,-110 1640,-129"/>
<text text-anchor="middle" x="1583.5" y="-117" font-family="Helvetica,sans-Serif" font-size="10.00">Kit/System/Mutex.h</text>
</a>
</g>
</g>
<!-- Node26&#45;&gt;Node27 -->
<g id="edge35_Node000026_Node000027" class="edge">
<title>Node26&#45;&gt;Node27</title>
<g id="a_edge35_Node000026_Node000027"><a xlink:title=" ">
<path fill="none" stroke="#63b8ff" d="M1014.74,-172.49C1139.32,-161.1 1395.03,-137.73 1516.53,-126.62"/>
<polygon fill="#63b8ff" stroke="#63b8ff" points="1517.17,-130.08 1526.81,-125.68 1516.53,-123.11 1517.17,-130.08"/>
</a>
</g>
</g>
<!-- Node27&#45;&gt;Node17 -->
<g id="edge36_Node000027_Node000017" class="edge">
<title>Node27&#45;&gt;Node17</title>
<g id="a_edge36_Node000027_Node000017"><a xlink:title=" ">
<path fill="none" stroke="#63b8ff" d="M1594.29,-109.68C1603.78,-101.39 1617.32,-88.17 1625.5,-74 1633.51,-60.13 1638.43,-42.56 1641.25,-29.43"/>
<polygon fill="#63b8ff" stroke="#63b8ff" points="1644.76,-29.71 1643.21,-19.22 1637.88,-28.38 1644.76,-29.71"/>
</a>
</g>
</g>
<!-- Node28 -->
<g id="Node000028" class="node">
<title>Node28</title>
<g id="a_Node000028"><a xlink:title=" ">
<polygon fill="#e0e0e0" stroke="#999999" points="1616,-74 1551,-74 1551,-55 1616,-55 1616,-74"/>
<text text-anchor="middle" x="1583.5" y="-62" font-family="Helvetica,sans-Serif" font-size="10.00">kit_map.h</text>
</a>
</g>
</g>
<!-- Node27&#45;&gt;Node28 -->
<g id="edge37_Node000027_Node000028" class="edge">
<title>Node27&#45;&gt;Node28</title>
<g id="a_edge37_Node000027_Node000028"><a xlink:title=" ">
<path fill="none" stroke="#63b8ff" d="M1583.5,-109.75C1583.5,-102.8 1583.5,-92.85 1583.5,-84.13"/>
<polygon fill="#63b8ff" stroke="#63b8ff" points="1587,-84.09 1583.5,-74.09 1580,-84.09 1587,-84.09"/>
</a>
</g>
</g>
<!-- Node30 -->
<g id="Node000030" class="node">
<title>Node30</title>
<g id="a_Node000030"><a xlink:href="_d_list_base_8h.html" target="_top" xlink:title=" ">
<polygon fill="white" stroke="#666666" points="1356,-129 1215,-129 1215,-110 1356,-110 1356,-129"/>
<text text-anchor="middle" x="1285.5" y="-117" font-family="Helvetica,sans-Serif" font-size="10.00">Kit/Container/DListBase.h</text>
</a>
</g>
</g>
<!-- Node29&#45;&gt;Node30 -->
<g id="edge41_Node000029_Node000030" class="edge">
<title>Node29&#45;&gt;Node30</title>
<g id="a_edge41_Node000029_Node000030"><a xlink:title=" ">
<path fill="none" stroke="#63b8ff" d="M1219.01,-170.37C1231.34,-161.12 1251.12,-146.28 1265.91,-135.19"/>
<polygon fill="#63b8ff" stroke="#63b8ff" points="1268.04,-137.97 1273.94,-129.17 1263.84,-132.37 1268.04,-137.97"/>
</a>
</g>
</g>
<!-- Node30&#45;&gt;Node14 -->
<g id="edge42_Node000030_Node000014" class="edge">
<title>Node30&#45;&gt;Node14</title>
<g id="a_edge42_Node000030_Node000014"><a xlink:title=" ">
<path fill="none" stroke="#63b8ff" d="M1243.24,-109.98C1197.46,-100.76 1124.36,-86.03 1074.95,-76.07"/>
<polygon fill="#63b8ff" stroke="#63b8ff" points="1075.58,-72.63 1065.09,-74.08 1074.2,-79.49 1075.58,-72.63"/>
</a>
</g>
</g>
<!-- Node31&#45;&gt;Node6 -->
<g id="edge48_Node000031_Node000006" class="edge">
<title>Node31&#45;&gt;Node6</title>
<g id="a_edge48_Node000031_Node000006"><a xlink:title=" ">
<path fill="none" stroke="#63b8ff" d="M664.86,-236.46C657.69,-214.13 636.25,-152.79 604.5,-110 578.41,-74.83 538.31,-42.68 514.12,-24.92"/>
<polygon fill="#63b8ff" stroke="#63b8ff" points="516.14,-22.07 505.99,-19.06 512.05,-27.75 516.14,-22.07"/>
</a>
</g>
</g>
<!-- Node31&#45;&gt;Node12 -->
<g id="edge47_Node000031_Node000012" class="edge">
<title>Node31&#45;&gt;Node12</title>
<g id="a_edge47_Node000031_Node000012"><a xlink:title=" ">
<path fill="none" stroke="#63b8ff" d="M684.63,-236.37C706.12,-225.54 743.2,-206.85 768.27,-194.22"/>
<polygon fill="#63b8ff" stroke="#63b8ff" points="769.88,-197.32 777.24,-189.7 766.73,-191.07 769.88,-197.32"/>
</a>
</g>
</g>
<!-- Node31&#45;&gt;Node23 -->
<g id="edge46_Node000031_Node000023" class="edge">
<title>Node31&#45;&gt;Node23</title>
<g id="a_edge46_Node000031_Node000023"><a xlink:title=" ">
<path fill="none" stroke="#63b8ff" d="M670.27,-236.12C674.87,-221.35 684.4,-190.83 692.5,-165 695.2,-156.39 698.2,-146.85 700.73,-138.82"/>
<polygon fill="#63b8ff" stroke="#63b8ff" points="704.15,-139.62 703.81,-129.03 697.47,-137.52 704.15,-139.62"/>
</a>
</g>
</g>
<!-- Node34 -->
<g id="Node000034" class="node">
<title>Node34</title>
<g id="a_Node000034"><a xlink:href="_persistence_2types_8h.html" target="_top" xlink:title=" ">
<polygon fill="white" stroke="#666666" points="579,-481 450,-481 450,-462 579,-462 579,-481"/>
<text text-anchor="middle" x="514.5" y="-469" font-family="Helvetica,sans-Serif" font-size="10.00">Kit/Persistence/Types.h</text>
</a>
</g>
</g>
<!-- Node33&#45;&gt;Node34 -->
<g id="edge51_Node000033_Node000034" class="edge">
<title>Node33&#45;&gt;Node34</title>
<g id="a_edge51_Node000033_Node000034"><a xlink:title=" ">
<path fill="none" stroke="#63b8ff" d="M493.28,-516.84C497.09,-508.87 501.89,-498.84 505.96,-490.33"/>
<polygon fill="#63b8ff" stroke="#63b8ff" points="509.14,-491.8 510.3,-481.27 502.83,-488.77 509.14,-491.8"/>
</a>
</g>
</g>
<!-- Node34&#45;&gt;Node6 -->
<g id="edge53_Node000034_Node000006" class="edge">
<title>Node34&#45;&gt;Node6</title>
<g id="a_edge53_Node000034_Node000006"><a xlink:title=" ">
<path fill="none" stroke="#63b8ff" d="M523.25,-461.9C531.06,-453.56 541.95,-440.13 546.5,-426 556.59,-394.7 549.03,-384.79 546.5,-352 543.99,-319.48 507.51,-95.87 496.58,-29.21"/>
<polygon fill="#63b8ff" stroke="#63b8ff" points="500.02,-28.59 494.95,-19.29 493.11,-29.72 500.02,-28.59"/>
</a>
</g>
</g>
<!-- Node34&#45;&gt;Node9 -->
<g id="edge52_Node000034_Node000009" class="edge">
<title>Node34&#45;&gt;Node9</title>
<g id="a_edge52_Node000034_Node000009"><a xlink:title=" ">
<path fill="none" stroke="#63b8ff" d="M536.62,-461.95C551.7,-454.82 570.51,-443.06 579.5,-426 631.02,-328.3 585.09,-187.97 565.95,-138.55"/>
<polygon fill="#63b8ff" stroke="#63b8ff" points="569.17,-137.19 562.21,-129.19 562.67,-139.78 569.17,-137.19"/>
</a>
</g>
</g>
<!-- Node35 -->
<g id="Node000035" class="node">
<title>Node35</title>
<g id="a_Node000035"><a xlink:href="_cursor_l_e_8h.html" target="_top" xlink:title=" ">
<polygon fill="white" stroke="#666666" points="537.5,-426 409.5,-426 409.5,-407 537.5,-407 537.5,-426"/>
<text text-anchor="middle" x="473.5" y="-414" font-family="Helvetica,sans-Serif" font-size="10.00">Kit/Memory/CursorLE.h</text>
</a>
</g>
</g>
<!-- Node34&#45;&gt;Node35 -->
<g id="edge54_Node000034_Node000035" class="edge">
<title>Node34&#45;&gt;Node35</title>
<g id="a_edge54_Node000034_Node000035"><a xlink:title=" ">
<path fill="none" stroke="#63b8ff" d="M507.73,-461.75C501.94,-454.26 493.44,-443.28 486.36,-434.13"/>
<polygon fill="#63b8ff" stroke="#63b8ff" points="489.03,-431.86 480.14,-426.09 483.49,-436.14 489.03,-431.86"/>
</a>
</g>
</g>
<!-- Node35&#45;&gt;Node4 -->
<g id="edge55_Node000035_Node000004" class="edge">
<title>Node35&#45;&gt;Node4</title>
<g id="a_edge55_Node000035_Node000004"><a xlink:title=" ">
<path fill="none" stroke="#63b8ff" d="M439.28,-406.98C402.74,-397.89 344.72,-383.46 304.74,-373.51"/>
<polygon fill="#63b8ff" stroke="#63b8ff" points="305.54,-370.1 294.99,-371.08 303.85,-376.89 305.54,-370.1"/>
</a>
</g>
</g>
<!-- Node35&#45;&gt;Node8 -->
<g id="edge56_Node000035_Node000008" class="edge">
<title>Node35&#45;&gt;Node8</title>
<g id="a_edge56_Node000035_Node000008"><a xlink:title=" ">
<path fill="none" stroke="#63b8ff" d="M475.65,-406.75C477.37,-399.72 479.85,-389.62 482,-380.84"/>
<polygon fill="#63b8ff" stroke="#63b8ff" points="485.41,-381.63 484.39,-371.09 478.61,-379.97 485.41,-381.63"/>
</a>
</g>
</g>
<!-- Node35&#45;&gt;Node32 -->
<g id="edge57_Node000035_Node000032" class="edge">
<title>Node35&#45;&gt;Node32</title>
<g id="a_edge57_Node000035_Node000032"><a xlink:title=" ">
<path fill="none" stroke="#63b8ff" d="M459.04,-406.98C445.08,-398.77 423.71,-386.18 407.25,-376.49"/>
<polygon fill="#63b8ff" stroke="#63b8ff" points="408.62,-373.23 398.22,-371.17 405.06,-379.26 408.62,-373.23"/>
</a>
</g>
</g>
<!-- Node36&#45;&gt;Node6 -->
<g id="edge65_Node000036_Node000006" class="edge">
<title>Node36&#45;&gt;Node6</title>
<g id="a_edge65_Node000036_Node000006"><a xlink:title=" ">
<path fill="none" stroke="#63b8ff" d="M65.7,-230.93C69.56,-195 85.13,-99.52 143.5,-55 192.03,-17.98 377.13,-11.63 456.74,-10.63"/>
<polygon fill="#63b8ff" stroke="#63b8ff" points="456.84,-14.13 466.8,-10.53 456.77,-7.13 456.84,-14.13"/>
</a>
</g>
</g>
<!-- Node37 -->
<g id="Node000037" class="node">
<title>Node37</title>
<g id="a_Node000037"><a xlink:href="_i_package_8h.html" target="_top" xlink:title=" ">
<polygon fill="white" stroke="#666666" points="320,-195 191,-195 191,-165 320,-165 320,-195"/>
<text text-anchor="start" x="199" y="-183" font-family="Helvetica,sans-Serif" font-size="10.00">Kit/Logging/Framework</text>
<text text-anchor="middle" x="255.5" y="-172" font-family="Helvetica,sans-Serif" font-size="10.00">/IPackage.h</text>
</a>
</g>
</g>
<!-- Node36&#45;&gt;Node37 -->
<g id="edge62_Node000036_Node000037" class="edge">
<title>Node36&#45;&gt;Node37</title>
<g id="a_edge62_Node000036_Node000037"><a xlink:title=" ">
<path fill="none" stroke="#63b8ff" d="M106.42,-230.95C135.15,-221.33 173.46,-208.49 204.04,-198.24"/>
<polygon fill="#63b8ff" stroke="#63b8ff" points="205.31,-201.51 213.68,-195.01 203.09,-194.87 205.31,-201.51"/>
</a>
</g>
</g>
<!-- Node37&#45;&gt;Node6 -->
<g id="edge64_Node000037_Node000006" class="edge">
<title>Node37&#45;&gt;Node6</title>
<g id="a_edge64_Node000037_Node000006"><a xlink:title=" ">
<path fill="none" stroke="#63b8ff" d="M260.62,-164.69C270.64,-138.78 295.34,-84.05 334.5,-55 370.59,-28.23 422.11,-17.56 456.63,-13.31"/>
<polygon fill="#63b8ff" stroke="#63b8ff" points="457.2,-16.76 466.76,-12.18 456.43,-9.81 457.2,-16.76"/>
</a>
</g>
</g>
<!-- Node37&#45;&gt;Node9 -->
<g id="edge63_Node000037_Node000009" class="edge">
<title>Node37&#45;&gt;Node9</title>
<g id="a_edge63_Node000037_Node000009"><a xlink:title=" ">
<path fill="none" stroke="#63b8ff" d="M320.13,-166.52C377.81,-155.39 460.87,-139.35 512.17,-129.45"/>
<polygon fill="#63b8ff" stroke="#63b8ff" points="512.83,-132.88 521.99,-127.55 511.51,-126.01 512.83,-132.88"/>
</a>
</g>
</g>
</g>
</svg>
