<?xml version="1.0" encoding="UTF-8" standalone="no"?>
<!DOCTYPE svg PUBLIC "-//W3C//DTD SVG 1.1//EN"
 "http://www.w3.org/Graphics/SVG/1.1/DTD/svg11.dtd">
<!-- Generated by graphviz version 2.43.0 (0)
 -->
<!-- Title: Kit/System/FreeRTOS/Thread.h Pages: 1 -->
<svg width="1062pt" height="368pt"
 viewBox="0.00 0.00 1061.74 368.00" xmlns="http://www.w3.org/2000/svg" xmlns:xlink="http://www.w3.org/1999/xlink">
<g id="graph0" class="graph" transform="scale(1 1) rotate(0) translate(4 364)">
<title>Kit/System/FreeRTOS/Thread.h</title>
<!-- Node1 -->
<g id="Node000001" class="node">
<title>Node1</title>
<g id="a_Node000001"><a xlink:title=" ">
<polygon fill="#999999" stroke="#666666" points="410.74,-360 291.74,-360 291.74,-330 410.74,-330 410.74,-360"/>
<text text-anchor="start" x="299.74" y="-348" font-family="Helvetica,sans-Serif" font-size="10.00">Kit/System/FreeRTOS</text>
<text text-anchor="middle" x="351.24" y="-337" font-family="Helvetica,sans-Serif" font-size="10.00">/Thread.h</text>
</a>
</g>
</g>
<!-- Node2 -->
<g id="Node000002" class="node">
<title>Node2</title>
<g id="a_Node000002"><a xlink:title=" ">
<polygon fill="#e0e0e0" stroke="#999999" points="212.74,-184 139.74,-184 139.74,-165 212.74,-165 212.74,-184"/>
<text text-anchor="middle" x="176.24" y="-172" font-family="Helvetica,sans-Serif" font-size="10.00">kit_config.h</text>
</a>
</g>
</g>
<!-- Node1&#45;&gt;Node2 -->
<g id="edge1_Node000001_Node000002" class="edge">
<title>Node1&#45;&gt;Node2</title>
<g id="a_edge1_Node000001_Node000002"><a xlink:title=" ">
<path fill="none" stroke="#63b8ff" d="M291.57,-334.46C202.42,-318.84 41.24,-284.92 7.24,-239 -25.9,-194.23 68.42,-181.02 129.2,-177.12"/>
<polygon fill="#63b8ff" stroke="#63b8ff" points="129.6,-180.61 139.38,-176.54 129.2,-173.62 129.6,-180.61"/>
</a>
</g>
</g>
<!-- Node3 -->
<g id="Node000003" class="node">
<title>Node3</title>
<g id="a_Node000003"><a xlink:href="_thread_8h.html" target="_top" xlink:title=" ">
<polygon fill="white" stroke="#666666" points="409.24,-294 293.24,-294 293.24,-275 409.24,-275 409.24,-294"/>
<text text-anchor="middle" x="351.24" y="-282" font-family="Helvetica,sans-Serif" font-size="10.00">Kit/System/Thread.h</text>
</a>
</g>
</g>
<!-- Node1&#45;&gt;Node3 -->
<g id="edge2_Node000001_Node000003" class="edge">
<title>Node1&#45;&gt;Node3</title>
<g id="a_edge2_Node000001_Node000003"><a xlink:title=" ">
<path fill="none" stroke="#63b8ff" d="M351.24,-329.84C351.24,-322.21 351.24,-312.7 351.24,-304.45"/>
<polygon fill="#63b8ff" stroke="#63b8ff" points="354.74,-304.27 351.24,-294.27 347.74,-304.27 354.74,-304.27"/>
</a>
</g>
</g>
<!-- Node5 -->
<g id="Node000005" class="node">
<title>Node5</title>
<g id="a_Node000005"><a xlink:href="_i_runnable_8h.html" target="_top" xlink:title=" ">
<polygon fill="white" stroke="#666666" points="147.74,-239 16.74,-239 16.74,-220 147.74,-220 147.74,-239"/>
<text text-anchor="middle" x="82.24" y="-227" font-family="Helvetica,sans-Serif" font-size="10.00">Kit/System/IRunnable.h</text>
</a>
</g>
</g>
<!-- Node1&#45;&gt;Node5 -->
<g id="edge14_Node000001_Node000005" class="edge">
<title>Node1&#45;&gt;Node5</title>
<g id="a_edge14_Node000001_Node000005"><a xlink:title=" ">
<path fill="none" stroke="#63b8ff" d="M317.99,-329.97C265.14,-307.67 162.8,-264.49 112.14,-243.12"/>
<polygon fill="#63b8ff" stroke="#63b8ff" points="113.3,-239.81 102.73,-239.14 110.58,-246.26 113.3,-239.81"/>
</a>
</g>
</g>
<!-- Node13 -->
<g id="Node000013" class="node">
<title>Node13</title>
<g id="a_Node000013"><a xlink:href="_f_string_8h.html" target="_top" xlink:title=" ">
<polygon fill="white" stroke="#666666" points="526.74,-294 427.74,-294 427.74,-275 526.74,-275 526.74,-294"/>
<text text-anchor="middle" x="477.24" y="-282" font-family="Helvetica,sans-Serif" font-size="10.00">Kit/Text/FString.h</text>
</a>
</g>
</g>
<!-- Node1&#45;&gt;Node13 -->
<g id="edge15_Node000001_Node000013" class="edge">
<title>Node1&#45;&gt;Node13</title>
<g id="a_edge15_Node000001_Node000013"><a xlink:title=" ">
<path fill="none" stroke="#63b8ff" d="M381.42,-329.99C402.07,-320.4 429.24,-307.79 449.38,-298.44"/>
<polygon fill="#63b8ff" stroke="#63b8ff" points="451.04,-301.52 458.63,-294.14 448.09,-295.18 451.04,-301.52"/>
</a>
</g>
</g>
<!-- Node23 -->
<g id="Node000023" class="node">
<title>Node23</title>
<g id="a_Node000023"><a xlink:title=" ">
<polygon fill="#e0e0e0" stroke="#999999" points="591.74,-294 544.74,-294 544.74,-275 591.74,-275 591.74,-294"/>
<text text-anchor="middle" x="568.24" y="-282" font-family="Helvetica,sans-Serif" font-size="10.00">task.h</text>
</a>
</g>
</g>
<!-- Node1&#45;&gt;Node23 -->
<g id="edge26_Node000001_Node000023" class="edge">
<title>Node1&#45;&gt;Node23</title>
<g id="a_edge26_Node000001_Node000023"><a xlink:title=" ">
<path fill="none" stroke="#63b8ff" d="M403.22,-329.99C444.07,-318.97 499.76,-303.96 534.86,-294.5"/>
<polygon fill="#63b8ff" stroke="#63b8ff" points="535.87,-297.85 544.62,-291.87 534.05,-291.09 535.87,-297.85"/>
</a>
</g>
</g>
<!-- Node3&#45;&gt;Node2 -->
<g id="edge3_Node000003_Node000002" class="edge">
<title>Node3&#45;&gt;Node2</title>
<g id="a_edge3_Node000003_Node000002"><a xlink:title=" ">
<path fill="none" stroke="#63b8ff" d="M292.86,-280.3C260.2,-275.54 221,-264.43 195.24,-239 183.35,-227.26 178.84,-208.41 177.16,-194.3"/>
<polygon fill="#63b8ff" stroke="#63b8ff" points="180.64,-193.89 176.33,-184.21 173.66,-194.47 180.64,-193.89"/>
</a>
</g>
</g>
<!-- Node4 -->
<g id="Node000004" class="node">
<title>Node4</title>
<g id="a_Node000004"><a xlink:title=" ">
<polygon fill="#e0e0e0" stroke="#999999" points="269.74,-239 204.74,-239 204.74,-220 269.74,-220 269.74,-239"/>
<text text-anchor="middle" x="237.24" y="-227" font-family="Helvetica,sans-Serif" font-size="10.00">kit_map.h</text>
</a>
</g>
</g>
<!-- Node3&#45;&gt;Node4 -->
<g id="edge4_Node000003_Node000004" class="edge">
<title>Node3&#45;&gt;Node4</title>
<g id="a_edge4_Node000003_Node000004"><a xlink:title=" ">
<path fill="none" stroke="#63b8ff" d="M332.93,-274.98C314.59,-266.46 286.13,-253.23 265.02,-243.41"/>
<polygon fill="#63b8ff" stroke="#63b8ff" points="266.44,-240.21 255.89,-239.17 263.48,-246.56 266.44,-240.21"/>
</a>
</g>
</g>
<!-- Node3&#45;&gt;Node5 -->
<g id="edge5_Node000003_Node000005" class="edge">
<title>Node3&#45;&gt;Node5</title>
<g id="a_edge5_Node000003_Node000005"><a xlink:title=" ">
<path fill="none" stroke="#63b8ff" d="M308.02,-274.98C261.2,-265.76 186.43,-251.03 135.89,-241.07"/>
<polygon fill="#63b8ff" stroke="#63b8ff" points="136.29,-237.58 125.8,-239.08 134.94,-244.45 136.29,-237.58"/>
</a>
</g>
</g>
<!-- Node6 -->
<g id="Node000006" class="node">
<title>Node6</title>
<g id="a_Node000006"><a xlink:href="_i_signable_8h.html" target="_top" xlink:title=" ">
<polygon fill="white" stroke="#666666" points="414.74,-239 287.74,-239 287.74,-220 414.74,-220 414.74,-239"/>
<text text-anchor="middle" x="351.24" y="-227" font-family="Helvetica,sans-Serif" font-size="10.00">Kit/System/ISignable.h</text>
</a>
</g>
</g>
<!-- Node3&#45;&gt;Node6 -->
<g id="edge6_Node000003_Node000006" class="edge">
<title>Node3&#45;&gt;Node6</title>
<g id="a_edge6_Node000003_Node000006"><a xlink:title=" ">
<path fill="none" stroke="#63b8ff" d="M351.24,-274.75C351.24,-267.8 351.24,-257.85 351.24,-249.13"/>
<polygon fill="#63b8ff" stroke="#63b8ff" points="354.74,-249.09 351.24,-239.09 347.74,-249.09 354.74,-249.09"/>
</a>
</g>
</g>
<!-- Node7 -->
<g id="Node000007" class="node">
<title>Node7</title>
<g id="a_Node000007"><a xlink:href="_tls_8h.html" target="_top" xlink:title=" ">
<polygon fill="white" stroke="#666666" points="529.24,-239 433.24,-239 433.24,-220 529.24,-220 529.24,-239"/>
<text text-anchor="middle" x="481.24" y="-227" font-family="Helvetica,sans-Serif" font-size="10.00">Kit/System/Tls.h</text>
</a>
</g>
</g>
<!-- Node3&#45;&gt;Node7 -->
<g id="edge7_Node000003_Node000007" class="edge">
<title>Node3&#45;&gt;Node7</title>
<g id="a_edge7_Node000003_Node000007"><a xlink:title=" ">
<path fill="none" stroke="#63b8ff" d="M372.13,-274.98C393.32,-266.34 426.37,-252.87 450.54,-243.02"/>
<polygon fill="#63b8ff" stroke="#63b8ff" points="452.04,-246.19 459.98,-239.17 449.39,-239.7 452.04,-246.19"/>
</a>
</g>
</g>
<!-- Node9 -->
<g id="Node000009" class="node">
<title>Node9</title>
<g id="a_Node000009"><a xlink:href="_traverser_status_8h.html" target="_top" xlink:title=" ">
<polygon fill="white" stroke="#666666" points="690.74,-239 547.74,-239 547.74,-220 690.74,-220 690.74,-239"/>
<text text-anchor="middle" x="619.24" y="-227" font-family="Helvetica,sans-Serif" font-size="10.00">Kit/Type/TraverserStatus.h</text>
</a>
</g>
</g>
<!-- Node3&#45;&gt;Node9 -->
<g id="edge10_Node000003_Node000009" class="edge">
<title>Node3&#45;&gt;Node9</title>
<g id="a_edge10_Node000003_Node000009"><a xlink:title=" ">
<path fill="none" stroke="#63b8ff" d="M394.3,-274.98C440.95,-265.76 515.44,-251.03 565.8,-241.07"/>
<polygon fill="#63b8ff" stroke="#63b8ff" points="566.72,-244.46 575.85,-239.08 565.36,-237.59 566.72,-244.46"/>
</a>
</g>
</g>
<!-- Node10 -->
<g id="Node000010" class="node">
<title>Node10</title>
<g id="a_Node000010"><a xlink:href="_list_item_8h.html" target="_top" xlink:title=" ">
<polygon fill="white" stroke="#666666" points="841.24,-239 709.24,-239 709.24,-220 841.24,-220 841.24,-239"/>
<text text-anchor="middle" x="775.24" y="-227" font-family="Helvetica,sans-Serif" font-size="10.00">Kit/Container/ListItem.h</text>
</a>
</g>
</g>
<!-- Node3&#45;&gt;Node10 -->
<g id="edge11_Node000003_Node000010" class="edge">
<title>Node3&#45;&gt;Node10</title>
<g id="a_edge11_Node000003_Node000010"><a xlink:title=" ">
<path fill="none" stroke="#63b8ff" d="M409.35,-276.12C412.35,-275.74 415.33,-275.37 418.24,-275 515.16,-262.81 626.9,-248.91 699.18,-239.93"/>
<polygon fill="#63b8ff" stroke="#63b8ff" points="699.62,-243.4 709.11,-238.7 698.76,-236.46 699.62,-243.4"/>
</a>
</g>
</g>
<!-- Node12 -->
<g id="Node000012" class="node">
<title>Node12</title>
<g id="a_Node000012"><a xlink:title=" ">
<polygon fill="#e0e0e0" stroke="#999999" points="912.74,-239 859.74,-239 859.74,-220 912.74,-220 912.74,-239"/>
<text text-anchor="middle" x="886.24" y="-227" font-family="Helvetica,sans-Serif" font-size="10.00">string.h</text>
</a>
</g>
</g>
<!-- Node3&#45;&gt;Node12 -->
<g id="edge13_Node000003_Node000012" class="edge">
<title>Node3&#45;&gt;Node12</title>
<g id="a_edge13_Node000003_Node000012"><a xlink:title=" ">
<path fill="none" stroke="#63b8ff" d="M409.33,-275.98C412.34,-275.63 415.33,-275.31 418.24,-275 606.58,-255.22 658.21,-268.74 849.49,-238.86"/>
<polygon fill="#63b8ff" stroke="#63b8ff" points="850.26,-242.28 859.59,-237.26 849.17,-235.36 850.26,-242.28"/>
</a>
</g>
</g>
<!-- Node7&#45;&gt;Node2 -->
<g id="edge8_Node000007_Node000002" class="edge">
<title>Node7&#45;&gt;Node2</title>
<g id="a_edge8_Node000007_Node000002"><a xlink:title=" ">
<path fill="none" stroke="#63b8ff" d="M432.91,-220.1C375.35,-210.1 279.87,-193.51 223.01,-183.63"/>
<polygon fill="#63b8ff" stroke="#63b8ff" points="223.31,-180.13 212.86,-181.86 222.11,-187.02 223.31,-180.13"/>
</a>
</g>
</g>
<!-- Node8 -->
<g id="Node000008" class="node">
<title>Node8</title>
<g id="a_Node000008"><a xlink:title=" ">
<polygon fill="#e0e0e0" stroke="#999999" points="549.74,-19 496.74,-19 496.74,0 549.74,0 549.74,-19"/>
<text text-anchor="middle" x="523.24" y="-7" font-family="Helvetica,sans-Serif" font-size="10.00">stdint.h</text>
</a>
</g>
</g>
<!-- Node7&#45;&gt;Node8 -->
<g id="edge9_Node000007_Node000008" class="edge">
<title>Node7&#45;&gt;Node8</title>
<g id="a_edge9_Node000007_Node000008"><a xlink:title=" ">
<path fill="none" stroke="#63b8ff" d="M482.89,-219.95C489.07,-187.88 510.97,-74.2 519.66,-29.12"/>
<polygon fill="#63b8ff" stroke="#63b8ff" points="523.11,-29.71 521.56,-19.22 516.23,-28.38 523.11,-29.71"/>
</a>
</g>
</g>
<!-- Node11 -->
<g id="Node000011" class="node">
<title>Node11</title>
<g id="a_Node000011"><a xlink:href="_item_8h.html" target="_top" xlink:title=" ">
<polygon fill="white" stroke="#666666" points="832.74,-184 717.74,-184 717.74,-165 832.74,-165 832.74,-184"/>
<text text-anchor="middle" x="775.24" y="-172" font-family="Helvetica,sans-Serif" font-size="10.00">Kit/Container/Item.h</text>
</a>
</g>
</g>
<!-- Node10&#45;&gt;Node11 -->
<g id="edge12_Node000010_Node000011" class="edge">
<title>Node10&#45;&gt;Node11</title>
<g id="a_edge12_Node000010_Node000011"><a xlink:title=" ">
<path fill="none" stroke="#63b8ff" d="M775.24,-219.75C775.24,-212.8 775.24,-202.85 775.24,-194.13"/>
<polygon fill="#63b8ff" stroke="#63b8ff" points="778.74,-194.09 775.24,-184.09 771.74,-194.09 778.74,-194.09"/>
</a>
</g>
</g>
<!-- Node14 -->
<g id="Node000014" class="node">
<title>Node14</title>
<g id="a_Node000014"><a xlink:href="_f_string_base_8h.html" target="_top" xlink:title=" ">
<polygon fill="white" stroke="#666666" points="1053.74,-239 930.74,-239 930.74,-220 1053.74,-220 1053.74,-239"/>
<text text-anchor="middle" x="992.24" y="-227" font-family="Helvetica,sans-Serif" font-size="10.00">Kit/Text/FStringBase.h</text>
</a>
</g>
</g>
<!-- Node13&#45;&gt;Node14 -->
<g id="edge16_Node000013_Node000014" class="edge">
<title>Node13&#45;&gt;Node14</title>
<g id="a_edge16_Node000013_Node000014"><a xlink:title=" ">
<path fill="none" stroke="#63b8ff" d="M526.89,-276.05C529.72,-275.68 532.51,-275.33 535.24,-275 703.49,-254.86 748.77,-257.31 920.28,-239.18"/>
<polygon fill="#63b8ff" stroke="#63b8ff" points="920.84,-242.64 930.42,-238.1 920.1,-235.68 920.84,-242.64"/>
</a>
</g>
</g>
<!-- Node15 -->
<g id="Node000015" class="node">
<title>Node15</title>
<g id="a_Node000015"><a xlink:href="_string_base_8h.html" target="_top" xlink:title=" ">
<polygon fill="white" stroke="#666666" points="1010.24,-184 892.24,-184 892.24,-165 1010.24,-165 1010.24,-184"/>
<text text-anchor="middle" x="951.24" y="-172" font-family="Helvetica,sans-Serif" font-size="10.00">Kit/Text/StringBase.h</text>
</a>
</g>
</g>
<!-- Node14&#45;&gt;Node15 -->
<g id="edge17_Node000014_Node000015" class="edge">
<title>Node14&#45;&gt;Node15</title>
<g id="a_edge17_Node000014_Node000015"><a xlink:title=" ">
<path fill="none" stroke="#63b8ff" d="M985.47,-219.75C979.68,-212.26 971.18,-201.28 964.1,-192.13"/>
<polygon fill="#63b8ff" stroke="#63b8ff" points="966.77,-189.86 957.89,-184.09 961.24,-194.14 966.77,-189.86"/>
</a>
</g>
</g>
<!-- Node16 -->
<g id="Node000016" class="node">
<title>Node16</title>
<g id="a_Node000016"><a xlink:href="_i_string_8h.html" target="_top" xlink:title=" ">
<polygon fill="white" stroke="#666666" points="985.74,-129 888.74,-129 888.74,-110 985.74,-110 985.74,-129"/>
<text text-anchor="middle" x="937.24" y="-117" font-family="Helvetica,sans-Serif" font-size="10.00">Kit/Text/IString.h</text>
</a>
</g>
</g>
<!-- Node15&#45;&gt;Node16 -->
<g id="edge18_Node000015_Node000016" class="edge">
<title>Node15&#45;&gt;Node16</title>
<g id="a_edge18_Node000015_Node000016"><a xlink:title=" ">
<path fill="none" stroke="#63b8ff" d="M948.93,-164.75C947.08,-157.72 944.41,-147.62 942.09,-138.84"/>
<polygon fill="#63b8ff" stroke="#63b8ff" points="945.45,-137.86 939.51,-129.09 938.68,-139.65 945.45,-137.86"/>
</a>
</g>
</g>
<!-- Node17 -->
<g id="Node000017" class="node">
<title>Node17</title>
<g id="a_Node000017"><a xlink:href="_key_8h.html" target="_top" xlink:title=" ">
<polygon fill="white" stroke="#666666" points="698.74,-74 589.74,-74 589.74,-55 698.74,-55 698.74,-74"/>
<text text-anchor="middle" x="644.24" y="-62" font-family="Helvetica,sans-Serif" font-size="10.00">Kit/Container/Key.h</text>
</a>
</g>
</g>
<!-- Node16&#45;&gt;Node17 -->
<g id="edge19_Node000016_Node000017" class="edge">
<title>Node16&#45;&gt;Node17</title>
<g id="a_edge19_Node000016_Node000017"><a xlink:title=" ">
<path fill="none" stroke="#63b8ff" d="M890.17,-109.98C838.85,-100.7 756.7,-85.84 701.64,-75.88"/>
<polygon fill="#63b8ff" stroke="#63b8ff" points="702.15,-72.42 691.69,-74.08 700.9,-79.31 702.15,-72.42"/>
</a>
</g>
</g>
<!-- Node20 -->
<g id="Node000020" class="node">
<title>Node20</title>
<g id="a_Node000020"><a xlink:href="printfchecker_8h.html" target="_top" xlink:title="This file contains macro that enables the GCC (and Clang) compiler to validate printf flags with thei...">
<polygon fill="white" stroke="#666666" points="890.74,-74 745.74,-74 745.74,-55 890.74,-55 890.74,-74"/>
<text text-anchor="middle" x="818.24" y="-62" font-family="Helvetica,sans-Serif" font-size="10.00">Kit/System/printfchecker.h</text>
</a>
</g>
</g>
<!-- Node16&#45;&gt;Node20 -->
<g id="edge23_Node000016_Node000020" class="edge">
<title>Node16&#45;&gt;Node20</title>
<g id="a_edge23_Node000016_Node000020"><a xlink:title=" ">
<path fill="none" stroke="#63b8ff" d="M918.12,-109.98C898.89,-101.42 869.01,-88.11 846.94,-78.28"/>
<polygon fill="#63b8ff" stroke="#63b8ff" points="848.27,-75.04 837.71,-74.17 845.42,-81.44 848.27,-75.04"/>
</a>
</g>
</g>
<!-- Node21 -->
<g id="Node000021" class="node">
<title>Node21</title>
<g id="a_Node000021"><a xlink:title=" ">
<polygon fill="#e0e0e0" stroke="#999999" points="965.24,-74 909.24,-74 909.24,-55 965.24,-55 965.24,-74"/>
<text text-anchor="middle" x="937.24" y="-62" font-family="Helvetica,sans-Serif" font-size="10.00">stdarg.h</text>
</a>
</g>
</g>
<!-- Node16&#45;&gt;Node21 -->
<g id="edge24_Node000016_Node000021" class="edge">
<title>Node16&#45;&gt;Node21</title>
<g id="a_edge24_Node000016_Node000021"><a xlink:title=" ">
<path fill="none" stroke="#63b8ff" d="M937.24,-109.75C937.24,-102.8 937.24,-92.85 937.24,-84.13"/>
<polygon fill="#63b8ff" stroke="#63b8ff" points="940.74,-84.09 937.24,-74.09 933.74,-84.09 940.74,-84.09"/>
</a>
</g>
</g>
<!-- Node22 -->
<g id="Node000022" class="node">
<title>Node22</title>
<g id="a_Node000022"><a xlink:title=" ">
<polygon fill="#e0e0e0" stroke="#999999" points="1043.24,-74 983.24,-74 983.24,-55 1043.24,-55 1043.24,-74"/>
<text text-anchor="middle" x="1013.24" y="-62" font-family="Helvetica,sans-Serif" font-size="10.00">iostream</text>
</a>
</g>
</g>
<!-- Node16&#45;&gt;Node22 -->
<g id="edge25_Node000016_Node000022" class="edge">
<title>Node16&#45;&gt;Node22</title>
<g id="a_edge25_Node000016_Node000022"><a xlink:title=" ">
<path fill="none" stroke="#63b8ff" d="M949.45,-109.98C961.02,-101.92 978.62,-89.65 992.4,-80.03"/>
<polygon fill="#63b8ff" stroke="#63b8ff" points="994.61,-82.76 1000.81,-74.17 990.61,-77.02 994.61,-82.76"/>
</a>
</g>
</g>
<!-- Node17&#45;&gt;Node8 -->
<g id="edge20_Node000017_Node000008" class="edge">
<title>Node17&#45;&gt;Node8</title>
<g id="a_edge20_Node000017_Node000008"><a xlink:title=" ">
<path fill="none" stroke="#63b8ff" d="M624.8,-54.98C605.25,-46.42 574.86,-33.11 552.42,-23.28"/>
<polygon fill="#63b8ff" stroke="#63b8ff" points="553.6,-19.98 543.04,-19.17 550.79,-26.39 553.6,-19.98"/>
</a>
</g>
</g>
<!-- Node18 -->
<g id="Node000018" class="node">
<title>Node18</title>
<g id="a_Node000018"><a xlink:title=" ">
<polygon fill="#e0e0e0" stroke="#999999" points="634.74,-19 581.74,-19 581.74,0 634.74,0 634.74,-19"/>
<text text-anchor="middle" x="608.24" y="-7" font-family="Helvetica,sans-Serif" font-size="10.00">stdlib.h</text>
</a>
</g>
</g>
<!-- Node17&#45;&gt;Node18 -->
<g id="edge21_Node000017_Node000018" class="edge">
<title>Node17&#45;&gt;Node18</title>
<g id="a_edge21_Node000017_Node000018"><a xlink:title=" ">
<path fill="none" stroke="#63b8ff" d="M638.3,-54.75C633.27,-47.34 625.91,-36.5 619.73,-27.41"/>
<polygon fill="#63b8ff" stroke="#63b8ff" points="622.59,-25.39 614.08,-19.09 616.8,-29.33 622.59,-25.39"/>
</a>
</g>
</g>
<!-- Node19 -->
<g id="Node000019" class="node">
<title>Node19</title>
<g id="a_Node000019"><a xlink:title=" ">
<polygon fill="#e0e0e0" stroke="#999999" points="705.74,-19 652.74,-19 652.74,0 705.74,0 705.74,-19"/>
<text text-anchor="middle" x="679.24" y="-7" font-family="Helvetica,sans-Serif" font-size="10.00">limits.h</text>
</a>
</g>
</g>
<!-- Node17&#45;&gt;Node19 -->
<g id="edge22_Node000017_Node000019" class="edge">
<title>Node17&#45;&gt;Node19</title>
<g id="a_edge22_Node000017_Node000019"><a xlink:title=" ">
<path fill="none" stroke="#63b8ff" d="M650.02,-54.75C654.86,-47.42 661.92,-36.73 667.89,-27.7"/>
<polygon fill="#63b8ff" stroke="#63b8ff" points="670.98,-29.36 673.57,-19.09 665.14,-25.5 670.98,-29.36"/>
</a>
</g>
</g>
</g>
</svg>
