<?xml version="1.0" encoding="UTF-8" standalone="no"?>
<!DOCTYPE svg PUBLIC "-//W3C//DTD SVG 1.1//EN"
 "http://www.w3.org/Graphics/SVG/1.1/DTD/svg11.dtd">
<!-- Generated by graphviz version 2.43.0 (0)
 -->
<!-- Title: Kit/System/FreeRTOS/Thread.h Pages: 1 -->
<svg width="1319pt" height="423pt"
 viewBox="0.00 0.00 1319.13 423.00" xmlns="http://www.w3.org/2000/svg" xmlns:xlink="http://www.w3.org/1999/xlink">
<g id="graph0" class="graph" transform="scale(1 1) rotate(0) translate(4 419)">
<title>Kit/System/FreeRTOS/Thread.h</title>
<!-- Node1 -->
<g id="Node000001" class="node">
<title>Node1</title>
<g id="a_Node000001"><a xlink:title=" ">
<polygon fill="#999999" stroke="#666666" points="680.13,-415 561.13,-415 561.13,-385 680.13,-385 680.13,-415"/>
<text text-anchor="start" x="569.13" y="-403" font-family="Helvetica,sans-Serif" font-size="10.00">Kit/System/FreeRTOS</text>
<text text-anchor="middle" x="620.63" y="-392" font-family="Helvetica,sans-Serif" font-size="10.00">/Thread.h</text>
</a>
</g>
</g>
<!-- Node2 -->
<g id="Node000002" class="node">
<title>Node2</title>
<g id="a_Node000002"><a xlink:title=" ">
<polygon fill="#e0e0e0" stroke="#999999" points="412.13,-129 339.13,-129 339.13,-110 412.13,-110 412.13,-129"/>
<text text-anchor="middle" x="375.63" y="-117" font-family="Helvetica,sans-Serif" font-size="10.00">kit_config.h</text>
</a>
</g>
</g>
<!-- Node1&#45;&gt;Node2 -->
<g id="edge1_Node000001_Node000002" class="edge">
<title>Node1&#45;&gt;Node2</title>
<g id="a_edge1_Node000001_Node000002"><a xlink:title=" ">
<path fill="none" stroke="#63b8ff" d="M560.94,-393.7C505.21,-387.42 420.4,-374.42 350.63,-349 304.07,-332.03 278.58,-336.82 253.63,-294 234.95,-261.92 321.4,-172.72 358.95,-136.3"/>
<polygon fill="#63b8ff" stroke="#63b8ff" points="361.38,-138.82 366.16,-129.37 356.53,-133.77 361.38,-138.82"/>
</a>
</g>
</g>
<!-- Node3 -->
<g id="Node000003" class="node">
<title>Node3</title>
<g id="a_Node000003"><a xlink:href="_thread_8h.html" target="_top" xlink:title=" ">
<polygon fill="white" stroke="#666666" points="678.63,-349 562.63,-349 562.63,-330 678.63,-330 678.63,-349"/>
<text text-anchor="middle" x="620.63" y="-337" font-family="Helvetica,sans-Serif" font-size="10.00">Kit/System/Thread.h</text>
</a>
</g>
</g>
<!-- Node1&#45;&gt;Node3 -->
<g id="edge2_Node000001_Node000003" class="edge">
<title>Node1&#45;&gt;Node3</title>
<g id="a_edge2_Node000001_Node000003"><a xlink:title=" ">
<path fill="none" stroke="#63b8ff" d="M620.63,-384.84C620.63,-377.21 620.63,-367.7 620.63,-359.45"/>
<polygon fill="#63b8ff" stroke="#63b8ff" points="624.13,-359.27 620.63,-349.27 617.13,-359.27 624.13,-359.27"/>
</a>
</g>
</g>
<!-- Node5 -->
<g id="Node000005" class="node">
<title>Node5</title>
<g id="a_Node000005"><a xlink:href="_i_runnable_8h.html" target="_top" xlink:title=" ">
<polygon fill="white" stroke="#666666" points="1311.13,-294 1180.13,-294 1180.13,-275 1311.13,-275 1311.13,-294"/>
<text text-anchor="middle" x="1245.63" y="-282" font-family="Helvetica,sans-Serif" font-size="10.00">Kit/System/IRunnable.h</text>
</a>
</g>
</g>
<!-- Node1&#45;&gt;Node5 -->
<g id="edge49_Node000001_Node000005" class="edge">
<title>Node1&#45;&gt;Node5</title>
<g id="a_edge49_Node000001_Node000005"><a xlink:title=" ">
<path fill="none" stroke="#63b8ff" d="M639.86,-384.83C665.11,-366.52 708.35,-336.25 726.63,-330 911.87,-266.67 970.73,-312.34 1165.63,-294 1166.92,-293.88 1168.23,-293.75 1169.54,-293.63"/>
<polygon fill="#63b8ff" stroke="#63b8ff" points="1170.12,-297.09 1179.73,-292.63 1169.43,-290.12 1170.12,-297.09"/>
</a>
</g>
</g>
<!-- Node30 -->
<g id="Node000030" class="node">
<title>Node30</title>
<g id="a_Node000030"><a xlink:href="_f_string_8h.html" target="_top" xlink:title=" ">
<polygon fill="white" stroke="#666666" points="459.13,-349 360.13,-349 360.13,-330 459.13,-330 459.13,-349"/>
<text text-anchor="middle" x="409.63" y="-337" font-family="Helvetica,sans-Serif" font-size="10.00">Kit/Text/FString.h</text>
</a>
</g>
</g>
<!-- Node1&#45;&gt;Node30 -->
<g id="edge50_Node000001_Node000030" class="edge">
<title>Node1&#45;&gt;Node30</title>
<g id="a_edge50_Node000001_Node000030"><a xlink:title=" ">
<path fill="none" stroke="#63b8ff" d="M570.09,-384.99C533.37,-374.8 484.31,-361.2 450.14,-351.73"/>
<polygon fill="#63b8ff" stroke="#63b8ff" points="451.06,-348.35 440.49,-349.05 449.19,-355.1 451.06,-348.35"/>
</a>
</g>
</g>
<!-- Node33 -->
<g id="Node000033" class="node">
<title>Node33</title>
<g id="a_Node000033"><a xlink:title=" ">
<polygon fill="#e0e0e0" stroke="#999999" points="782.13,-349 735.13,-349 735.13,-330 782.13,-330 782.13,-349"/>
<text text-anchor="middle" x="758.63" y="-337" font-family="Helvetica,sans-Serif" font-size="10.00">task.h</text>
</a>
</g>
</g>
<!-- Node1&#45;&gt;Node33 -->
<g id="edge54_Node000001_Node000033" class="edge">
<title>Node1&#45;&gt;Node33</title>
<g id="a_edge54_Node000001_Node000033"><a xlink:title=" ">
<path fill="none" stroke="#63b8ff" d="M653.69,-384.99C676.61,-375.27 706.87,-362.44 729.01,-353.06"/>
<polygon fill="#63b8ff" stroke="#63b8ff" points="730.41,-356.26 738.25,-349.14 727.68,-349.82 730.41,-356.26"/>
</a>
</g>
</g>
<!-- Node3&#45;&gt;Node2 -->
<g id="edge3_Node000003_Node000002" class="edge">
<title>Node3&#45;&gt;Node2</title>
<g id="a_edge3_Node000003_Node000002"><a xlink:title=" ">
<path fill="none" stroke="#63b8ff" d="M648.74,-329.95C678.34,-319.42 718.49,-299.84 701.63,-275 693.95,-263.67 484.78,-190.31 472.63,-184 444.57,-169.43 414.42,-148.82 395.31,-135.08"/>
<polygon fill="#63b8ff" stroke="#63b8ff" points="397.26,-132.17 387.11,-129.12 393.14,-137.83 397.26,-132.17"/>
</a>
</g>
</g>
<!-- Node4 -->
<g id="Node000004" class="node">
<title>Node4</title>
<g id="a_Node000004"><a xlink:title=" ">
<polygon fill="#e0e0e0" stroke="#999999" points="78.13,-74 13.13,-74 13.13,-55 78.13,-55 78.13,-74"/>
<text text-anchor="middle" x="45.63" y="-62" font-family="Helvetica,sans-Serif" font-size="10.00">kit_map.h</text>
</a>
</g>
</g>
<!-- Node3&#45;&gt;Node4 -->
<g id="edge4_Node000003_Node000004" class="edge">
<title>Node3&#45;&gt;Node4</title>
<g id="a_edge4_Node000003_Node000004"><a xlink:title=" ">
<path fill="none" stroke="#63b8ff" d="M562.42,-334.14C462.1,-326.28 264.65,-309.12 236.63,-294 143.35,-243.65 76.97,-127.38 54.24,-83.08"/>
<polygon fill="#63b8ff" stroke="#63b8ff" points="57.35,-81.47 49.73,-74.1 51.09,-84.61 57.35,-81.47"/>
</a>
</g>
</g>
<!-- Node3&#45;&gt;Node5 -->
<g id="edge5_Node000003_Node000005" class="edge">
<title>Node3&#45;&gt;Node5</title>
<g id="a_edge5_Node000003_Node000005"><a xlink:title=" ">
<path fill="none" stroke="#63b8ff" d="M678.77,-331.43C683.46,-330.92 688.12,-330.44 692.63,-330 902.48,-309.64 955.67,-313.14 1165.63,-294 1166.93,-293.88 1168.23,-293.76 1169.54,-293.64"/>
<polygon fill="#63b8ff" stroke="#63b8ff" points="1170.11,-297.1 1179.73,-292.66 1169.44,-290.13 1170.11,-297.1"/>
</a>
</g>
</g>
<!-- Node6 -->
<g id="Node000006" class="node">
<title>Node6</title>
<g id="a_Node000006"><a xlink:href="_i_signable_8h.html" target="_top" xlink:title=" ">
<polygon fill="white" stroke="#666666" points="531.13,-294 404.13,-294 404.13,-275 531.13,-275 531.13,-294"/>
<text text-anchor="middle" x="467.63" y="-282" font-family="Helvetica,sans-Serif" font-size="10.00">Kit/System/ISignable.h</text>
</a>
</g>
</g>
<!-- Node3&#45;&gt;Node6 -->
<g id="edge6_Node000003_Node000006" class="edge">
<title>Node3&#45;&gt;Node6</title>
<g id="a_edge6_Node000003_Node000006"><a xlink:title=" ">
<path fill="none" stroke="#63b8ff" d="M596.05,-329.98C570.59,-321.16 530.59,-307.31 502,-297.41"/>
<polygon fill="#63b8ff" stroke="#63b8ff" points="503,-294.05 492.41,-294.08 500.71,-300.66 503,-294.05"/>
</a>
</g>
</g>
<!-- Node7 -->
<g id="Node000007" class="node">
<title>Node7</title>
<g id="a_Node000007"><a xlink:href="_tls_8h.html" target="_top" xlink:title=" ">
<polygon fill="white" stroke="#666666" points="282.63,-184 186.63,-184 186.63,-165 282.63,-165 282.63,-184"/>
<text text-anchor="middle" x="234.63" y="-172" font-family="Helvetica,sans-Serif" font-size="10.00">Kit/System/Tls.h</text>
</a>
</g>
</g>
<!-- Node3&#45;&gt;Node7 -->
<g id="edge7_Node000003_Node000007" class="edge">
<title>Node3&#45;&gt;Node7</title>
<g id="a_edge7_Node000003_Node000007"><a xlink:title=" ">
<path fill="none" stroke="#63b8ff" d="M562.48,-335.25C464.61,-329.22 275.46,-315 253.63,-294 226.83,-268.2 228.17,-220.73 231.44,-194.38"/>
<polygon fill="#63b8ff" stroke="#63b8ff" points="234.94,-194.61 232.93,-184.21 228.02,-193.6 234.94,-194.61"/>
</a>
</g>
</g>
<!-- Node9 -->
<g id="Node000009" class="node">
<title>Node9</title>
<g id="a_Node000009"><a xlink:href="_traverser_status_8h.html" target="_top" xlink:title=" ">
<polygon fill="white" stroke="#666666" points="692.13,-294 549.13,-294 549.13,-275 692.13,-275 692.13,-294"/>
<text text-anchor="middle" x="620.63" y="-282" font-family="Helvetica,sans-Serif" font-size="10.00">Kit/Type/TraverserStatus.h</text>
</a>
</g>
</g>
<!-- Node3&#45;&gt;Node9 -->
<g id="edge10_Node000003_Node000009" class="edge">
<title>Node3&#45;&gt;Node9</title>
<g id="a_edge10_Node000003_Node000009"><a xlink:title=" ">
<path fill="none" stroke="#63b8ff" d="M620.63,-329.75C620.63,-322.8 620.63,-312.85 620.63,-304.13"/>
<polygon fill="#63b8ff" stroke="#63b8ff" points="624.13,-304.09 620.63,-294.09 617.13,-304.09 624.13,-304.09"/>
</a>
</g>
</g>
<!-- Node10 -->
<g id="Node000010" class="node">
<title>Node10</title>
<g id="a_Node000010"><a xlink:href="_list_item_8h.html" target="_top" xlink:title=" ">
<polygon fill="white" stroke="#666666" points="984.63,-74 852.63,-74 852.63,-55 984.63,-55 984.63,-74"/>
<text text-anchor="middle" x="918.63" y="-62" font-family="Helvetica,sans-Serif" font-size="10.00">Kit/Container/ListItem.h</text>
</a>
</g>
</g>
<!-- Node3&#45;&gt;Node10 -->
<g id="edge11_Node000003_Node000010" class="edge">
<title>Node3&#45;&gt;Node10</title>
<g id="a_edge11_Node000003_Node000010"><a xlink:title=" ">
<path fill="none" stroke="#63b8ff" d="M676.96,-329.99C813.62,-308.96 1151.63,-254.52 1151.63,-230.5 1151.63,-230.5 1151.63,-230.5 1151.63,-173.5 1151.63,-103.1 1063,-78.46 995.06,-69.91"/>
<polygon fill="#63b8ff" stroke="#63b8ff" points="995.12,-66.39 984.78,-68.72 994.31,-73.35 995.12,-66.39"/>
</a>
</g>
</g>
<!-- Node12 -->
<g id="Node000012" class="node">
<title>Node12</title>
<g id="a_Node000012"><a xlink:href="_string_8h.html" target="_top" xlink:title=" ">
<polygon fill="white" stroke="#666666" points="802.13,-294 749.13,-294 749.13,-275 802.13,-275 802.13,-294"/>
<text text-anchor="middle" x="775.63" y="-282" font-family="Helvetica,sans-Serif" font-size="10.00">string.h</text>
</a>
</g>
</g>
<!-- Node3&#45;&gt;Node12 -->
<g id="edge13_Node000003_Node000012" class="edge">
<title>Node3&#45;&gt;Node12</title>
<g id="a_edge13_Node000003_Node000012"><a xlink:title=" ">
<path fill="none" stroke="#63b8ff" d="M645.54,-329.98C671.34,-321.16 711.85,-307.31 740.82,-297.41"/>
<polygon fill="#63b8ff" stroke="#63b8ff" points="742.21,-300.63 750.54,-294.08 739.94,-294.01 742.21,-300.63"/>
</a>
</g>
</g>
<!-- Node7&#45;&gt;Node2 -->
<g id="edge8_Node000007_Node000002" class="edge">
<title>Node7&#45;&gt;Node2</title>
<g id="a_edge8_Node000007_Node000002"><a xlink:title=" ">
<path fill="none" stroke="#63b8ff" d="M257.29,-164.98C280.48,-156.27 316.76,-142.63 343.03,-132.75"/>
<polygon fill="#63b8ff" stroke="#63b8ff" points="344.44,-135.97 352.57,-129.17 341.98,-129.41 344.44,-135.97"/>
</a>
</g>
</g>
<!-- Node8 -->
<g id="Node000008" class="node">
<title>Node8</title>
<g id="a_Node000008"><a xlink:title=" ">
<polygon fill="#e0e0e0" stroke="#999999" points="520.13,-19 467.13,-19 467.13,0 520.13,0 520.13,-19"/>
<text text-anchor="middle" x="493.63" y="-7" font-family="Helvetica,sans-Serif" font-size="10.00">stdint.h</text>
</a>
</g>
</g>
<!-- Node7&#45;&gt;Node8 -->
<g id="edge9_Node000007_Node000008" class="edge">
<title>Node7&#45;&gt;Node8</title>
<g id="a_edge9_Node000007_Node000008"><a xlink:title=" ">
<path fill="none" stroke="#63b8ff" d="M238.05,-164.84C247.97,-140.08 277.31,-69.86 296.63,-55 343.53,-18.95 414.17,-11.09 456.89,-9.92"/>
<polygon fill="#63b8ff" stroke="#63b8ff" points="457.18,-13.41 467.12,-9.75 457.07,-6.41 457.18,-13.41"/>
</a>
</g>
</g>
<!-- Node11 -->
<g id="Node000011" class="node">
<title>Node11</title>
<g id="a_Node000011"><a xlink:href="_item_8h.html" target="_top" xlink:title=" ">
<polygon fill="white" stroke="#666666" points="976.13,-19 861.13,-19 861.13,0 976.13,0 976.13,-19"/>
<text text-anchor="middle" x="918.63" y="-7" font-family="Helvetica,sans-Serif" font-size="10.00">Kit/Container/Item.h</text>
</a>
</g>
</g>
<!-- Node10&#45;&gt;Node11 -->
<g id="edge12_Node000010_Node000011" class="edge">
<title>Node10&#45;&gt;Node11</title>
<g id="a_edge12_Node000010_Node000011"><a xlink:title=" ">
<path fill="none" stroke="#63b8ff" d="M918.63,-54.75C918.63,-47.8 918.63,-37.85 918.63,-29.13"/>
<polygon fill="#63b8ff" stroke="#63b8ff" points="922.13,-29.09 918.63,-19.09 915.13,-29.09 922.13,-29.09"/>
</a>
</g>
</g>
<!-- Node13 -->
<g id="Node000013" class="node">
<title>Node13</title>
<g id="a_Node000013"><a xlink:href="_model_point_base_8h.html" target="_top" xlink:title=" ">
<polygon fill="white" stroke="#666666" points="772.13,-239 631.13,-239 631.13,-220 772.13,-220 772.13,-239"/>
<text text-anchor="middle" x="701.63" y="-227" font-family="Helvetica,sans-Serif" font-size="10.00">Kit/Dm/ModelPointBase.h</text>
</a>
</g>
</g>
<!-- Node12&#45;&gt;Node13 -->
<g id="edge14_Node000012_Node000013" class="edge">
<title>Node12&#45;&gt;Node13</title>
<g id="a_edge14_Node000012_Node000013"><a xlink:title=" ">
<path fill="none" stroke="#63b8ff" d="M763.74,-274.98C752.48,-266.92 735.35,-254.65 721.93,-245.03"/>
<polygon fill="#63b8ff" stroke="#63b8ff" points="723.91,-242.15 713.74,-239.17 719.83,-247.84 723.91,-242.15"/>
</a>
</g>
</g>
<!-- Node29 -->
<g id="Node000029" class="node">
<title>Node29</title>
<g id="a_Node000029"><a xlink:href="_observer_8h.html" target="_top" xlink:title=" ">
<polygon fill="white" stroke="#666666" points="956.63,-239 850.63,-239 850.63,-220 956.63,-220 956.63,-239"/>
<text text-anchor="middle" x="903.63" y="-227" font-family="Helvetica,sans-Serif" font-size="10.00">Kit/Dm/Observer.h</text>
</a>
</g>
</g>
<!-- Node12&#45;&gt;Node29 -->
<g id="edge45_Node000012_Node000029" class="edge">
<title>Node12&#45;&gt;Node29</title>
<g id="a_edge45_Node000012_Node000029"><a xlink:title=" ">
<path fill="none" stroke="#63b8ff" d="M796.2,-274.98C817.07,-266.34 849.61,-252.87 873.41,-243.02"/>
<polygon fill="#63b8ff" stroke="#63b8ff" points="874.79,-246.23 882.69,-239.17 872.12,-239.76 874.79,-246.23"/>
</a>
</g>
</g>
<!-- Node13&#45;&gt;Node8 -->
<g id="edge43_Node000013_Node000008" class="edge">
<title>Node13&#45;&gt;Node8</title>
<g id="a_edge43_Node000013_Node000008"><a xlink:title=" ">
<path fill="none" stroke="#63b8ff" d="M630.93,-220.4C532.83,-207.48 363.6,-178.46 329.63,-129 311.01,-101.89 309.65,-81.12 329.63,-55 345.02,-34.88 413.57,-21.73 457.03,-15.25"/>
<polygon fill="#63b8ff" stroke="#63b8ff" points="457.55,-18.71 466.95,-13.82 456.56,-11.78 457.55,-18.71"/>
</a>
</g>
</g>
<!-- Node14 -->
<g id="Node000014" class="node">
<title>Node14</title>
<g id="a_Node000014"><a xlink:href="_i_model_point_8h.html" target="_top" xlink:title=" ">
<polygon fill="white" stroke="#666666" points="761.63,-184 641.63,-184 641.63,-165 761.63,-165 761.63,-184"/>
<text text-anchor="middle" x="701.63" y="-172" font-family="Helvetica,sans-Serif" font-size="10.00">Kit/Dm/IModelPoint.h</text>
</a>
</g>
</g>
<!-- Node13&#45;&gt;Node14 -->
<g id="edge15_Node000013_Node000014" class="edge">
<title>Node13&#45;&gt;Node14</title>
<g id="a_edge15_Node000013_Node000014"><a xlink:title=" ">
<path fill="none" stroke="#63b8ff" d="M701.63,-219.75C701.63,-212.8 701.63,-202.85 701.63,-194.13"/>
<polygon fill="#63b8ff" stroke="#63b8ff" points="705.13,-194.09 701.63,-184.09 698.13,-194.09 705.13,-194.09"/>
</a>
</g>
</g>
<!-- Node17 -->
<g id="Node000017" class="node">
<title>Node17</title>
<g id="a_Node000017"><a xlink:title=" ">
<polygon fill="#e0e0e0" stroke="#999999" points="133.13,-19 80.13,-19 80.13,0 133.13,0 133.13,-19"/>
<text text-anchor="middle" x="106.63" y="-7" font-family="Helvetica,sans-Serif" font-size="10.00">stdlib.h</text>
</a>
</g>
</g>
<!-- Node13&#45;&gt;Node17 -->
<g id="edge44_Node000013_Node000017" class="edge">
<title>Node13&#45;&gt;Node17</title>
<g id="a_edge44_Node000013_Node000017"><a xlink:title=" ">
<path fill="none" stroke="#63b8ff" d="M630.93,-224.37C497.81,-216.32 219.53,-198.08 177.63,-184 90.91,-154.85 47.78,-154.14 3.63,-74 -13.04,-43.73 34.26,-26.14 70.2,-17.43"/>
<polygon fill="#63b8ff" stroke="#63b8ff" points="70.99,-20.84 79.97,-15.21 69.44,-14.02 70.99,-20.84"/>
</a>
</g>
</g>
<!-- Node22 -->
<g id="Node000022" class="node">
<title>Node22</title>
<g id="a_Node000022"><a xlink:href="_i_observer_8h.html" target="_top" xlink:title=" ">
<polygon fill="white" stroke="#666666" points="926.13,-129 817.13,-129 817.13,-110 926.13,-110 926.13,-129"/>
<text text-anchor="middle" x="871.63" y="-117" font-family="Helvetica,sans-Serif" font-size="10.00">Kit/Dm/IObserver.h</text>
</a>
</g>
</g>
<!-- Node13&#45;&gt;Node22 -->
<g id="edge39_Node000013_Node000022" class="edge">
<title>Node13&#45;&gt;Node22</title>
<g id="a_edge39_Node000013_Node000022"><a xlink:title=" ">
<path fill="none" stroke="#63b8ff" d="M715.26,-219.84C744.48,-201.28 813.41,-157.49 849.2,-134.75"/>
<polygon fill="#63b8ff" stroke="#63b8ff" points="851.38,-137.51 857.95,-129.2 847.63,-131.6 851.38,-137.51"/>
</a>
</g>
</g>
<!-- Node25 -->
<g id="Node000025" class="node">
<title>Node25</title>
<g id="a_Node000025"><a xlink:href="_i_model_database_8h.html" target="_top" xlink:title=" ">
<polygon fill="white" stroke="#666666" points="623.63,-184 481.63,-184 481.63,-165 623.63,-165 623.63,-184"/>
<text text-anchor="middle" x="552.63" y="-172" font-family="Helvetica,sans-Serif" font-size="10.00">Kit/Dm/IModelDatabase.h</text>
</a>
</g>
</g>
<!-- Node13&#45;&gt;Node25 -->
<g id="edge32_Node000013_Node000025" class="edge">
<title>Node13&#45;&gt;Node25</title>
<g id="a_edge32_Node000013_Node000025"><a xlink:title=" ">
<path fill="none" stroke="#63b8ff" d="M677.69,-219.98C653.08,-211.23 614.51,-197.51 586.72,-187.62"/>
<polygon fill="#63b8ff" stroke="#63b8ff" points="587.6,-184.22 577.01,-184.17 585.26,-190.82 587.6,-184.22"/>
</a>
</g>
</g>
<!-- Node27 -->
<g id="Node000027" class="node">
<title>Node27</title>
<g id="a_Node000027"><a xlink:href="_d_list_8h.html" target="_top" xlink:title=" ">
<polygon fill="white" stroke="#666666" points="935.13,-184 818.13,-184 818.13,-165 935.13,-165 935.13,-184"/>
<text text-anchor="middle" x="876.63" y="-172" font-family="Helvetica,sans-Serif" font-size="10.00">Kit/Container/DList.h</text>
</a>
</g>
</g>
<!-- Node13&#45;&gt;Node27 -->
<g id="edge40_Node000013_Node000027" class="edge">
<title>Node13&#45;&gt;Node27</title>
<g id="a_edge40_Node000013_Node000027"><a xlink:title=" ">
<path fill="none" stroke="#63b8ff" d="M729.75,-219.98C759.26,-211.05 805.83,-196.94 838.6,-187.02"/>
<polygon fill="#63b8ff" stroke="#63b8ff" points="839.74,-190.33 848.3,-184.08 837.71,-183.63 839.74,-190.33"/>
</a>
</g>
</g>
<!-- Node14&#45;&gt;Node2 -->
<g id="edge16_Node000014_Node000002" class="edge">
<title>Node14&#45;&gt;Node2</title>
<g id="a_edge16_Node000014_Node000002"><a xlink:title=" ">
<path fill="none" stroke="#63b8ff" d="M644.5,-164.96C589.89,-156.68 504.97,-143.51 422.5,-129.29"/>
<polygon fill="#63b8ff" stroke="#63b8ff" points="422.91,-125.81 412.46,-127.55 421.71,-132.7 422.91,-125.81"/>
</a>
</g>
</g>
<!-- Node14&#45;&gt;Node8 -->
<g id="edge31_Node000014_Node000008" class="edge">
<title>Node14&#45;&gt;Node8</title>
<g id="a_edge31_Node000014_Node000008"><a xlink:title=" ">
<path fill="none" stroke="#63b8ff" d="M700.07,-164.87C695.67,-143.06 681.1,-85.3 645.63,-55 613.19,-27.28 564.22,-16.81 530.68,-12.87"/>
<polygon fill="#63b8ff" stroke="#63b8ff" points="530.68,-9.35 520.38,-11.81 529.96,-16.32 530.68,-9.35"/>
</a>
</g>
</g>
<!-- Node14&#45;&gt;Node10 -->
<g id="edge17_Node000014_Node000010" class="edge">
<title>Node14&#45;&gt;Node10</title>
<g id="a_edge17_Node000014_Node000010"><a xlink:title=" ">
<path fill="none" stroke="#63b8ff" d="M714.78,-164.81C734.62,-151.91 773.6,-127.36 808.63,-110 833.61,-97.63 862.9,-85.9 884.98,-77.6"/>
<polygon fill="#63b8ff" stroke="#63b8ff" points="886.42,-80.8 894.58,-74.03 883.98,-74.24 886.42,-80.8"/>
</a>
</g>
</g>
<!-- Node15 -->
<g id="Node000015" class="node">
<title>Node15</title>
<g id="a_Node000015"><a xlink:href="_i_string_8h.html" target="_top" xlink:title=" ">
<polygon fill="white" stroke="#666666" points="527.13,-129 430.13,-129 430.13,-110 527.13,-110 527.13,-129"/>
<text text-anchor="middle" x="478.63" y="-117" font-family="Helvetica,sans-Serif" font-size="10.00">Kit/Text/IString.h</text>
</a>
</g>
</g>
<!-- Node14&#45;&gt;Node15 -->
<g id="edge18_Node000014_Node000015" class="edge">
<title>Node14&#45;&gt;Node15</title>
<g id="a_edge18_Node000014_Node000015"><a xlink:title=" ">
<path fill="none" stroke="#63b8ff" d="M665.81,-164.98C627.47,-155.87 566.55,-141.4 524.69,-131.45"/>
<polygon fill="#63b8ff" stroke="#63b8ff" points="525.28,-127.99 514.74,-129.08 523.66,-134.8 525.28,-127.99"/>
</a>
</g>
</g>
<!-- Node14&#45;&gt;Node22 -->
<g id="edge26_Node000014_Node000022" class="edge">
<title>Node14&#45;&gt;Node22</title>
<g id="a_edge26_Node000014_Node000022"><a xlink:title=" ">
<path fill="none" stroke="#63b8ff" d="M728.95,-164.98C757.49,-156.09 802.46,-142.07 834.28,-132.15"/>
<polygon fill="#63b8ff" stroke="#63b8ff" points="835.6,-135.4 844.11,-129.08 833.52,-128.72 835.6,-135.4"/>
</a>
</g>
</g>
<!-- Node23 -->
<g id="Node000023" class="node">
<title>Node23</title>
<g id="a_Node000023"><a xlink:href="_arduino_8h_source.html" target="_top" xlink:title=" ">
<polygon fill="white" stroke="#666666" points="648.13,-129 545.13,-129 545.13,-110 648.13,-110 648.13,-129"/>
<text text-anchor="middle" x="596.63" y="-117" font-family="Helvetica,sans-Serif" font-size="10.00">Kit/Json/Arduino.h</text>
</a>
</g>
</g>
<!-- Node14&#45;&gt;Node23 -->
<g id="edge29_Node000014_Node000023" class="edge">
<title>Node14&#45;&gt;Node23</title>
<g id="a_edge29_Node000014_Node000023"><a xlink:title=" ">
<path fill="none" stroke="#63b8ff" d="M684.76,-164.98C668.03,-156.54 642.14,-143.47 622.74,-133.68"/>
<polygon fill="#63b8ff" stroke="#63b8ff" points="624.32,-130.55 613.81,-129.17 621.16,-136.8 624.32,-130.55"/>
</a>
</g>
</g>
<!-- Node24 -->
<g id="Node000024" class="node">
<title>Node24</title>
<g id="a_Node000024"><a xlink:title=" ">
<polygon fill="#e0e0e0" stroke="#999999" points="760.63,-129 704.63,-129 704.63,-110 760.63,-110 760.63,-129"/>
<text text-anchor="middle" x="732.63" y="-117" font-family="Helvetica,sans-Serif" font-size="10.00">stddef.h</text>
</a>
</g>
</g>
<!-- Node14&#45;&gt;Node24 -->
<g id="edge30_Node000014_Node000024" class="edge">
<title>Node14&#45;&gt;Node24</title>
<g id="a_edge30_Node000014_Node000024"><a xlink:title=" ">
<path fill="none" stroke="#63b8ff" d="M706.75,-164.75C711,-157.49 717.16,-146.95 722.41,-137.98"/>
<polygon fill="#63b8ff" stroke="#63b8ff" points="725.58,-139.49 727.61,-129.09 719.54,-135.95 725.58,-139.49"/>
</a>
</g>
</g>
<!-- Node16 -->
<g id="Node000016" class="node">
<title>Node16</title>
<g id="a_Node000016"><a xlink:href="_key_8h.html" target="_top" xlink:title=" ">
<polygon fill="white" stroke="#666666" points="244.13,-74 135.13,-74 135.13,-55 244.13,-55 244.13,-74"/>
<text text-anchor="middle" x="189.63" y="-62" font-family="Helvetica,sans-Serif" font-size="10.00">Kit/Container/Key.h</text>
</a>
</g>
</g>
<!-- Node15&#45;&gt;Node16 -->
<g id="edge19_Node000015_Node000016" class="edge">
<title>Node15&#45;&gt;Node16</title>
<g id="a_edge19_Node000015_Node000016"><a xlink:title=" ">
<path fill="none" stroke="#63b8ff" d="M432.2,-109.98C381.69,-100.72 300.9,-85.9 246.59,-75.94"/>
<polygon fill="#63b8ff" stroke="#63b8ff" points="246.9,-72.44 236.43,-74.08 245.64,-79.33 246.9,-72.44"/>
</a>
</g>
</g>
<!-- Node19 -->
<g id="Node000019" class="node">
<title>Node19</title>
<g id="a_Node000019"><a xlink:href="printfchecker_8h.html" target="_top" xlink:title="This file contains macro that enables the GCC (and Clang) compiler to validate printf flags with thei...">
<polygon fill="white" stroke="#666666" points="562.13,-74 417.13,-74 417.13,-55 562.13,-55 562.13,-74"/>
<text text-anchor="middle" x="489.63" y="-62" font-family="Helvetica,sans-Serif" font-size="10.00">Kit/System/printfchecker.h</text>
</a>
</g>
</g>
<!-- Node15&#45;&gt;Node19 -->
<g id="edge23_Node000015_Node000019" class="edge">
<title>Node15&#45;&gt;Node19</title>
<g id="a_edge23_Node000015_Node000019"><a xlink:title=" ">
<path fill="none" stroke="#63b8ff" d="M480.45,-109.75C481.89,-102.8 483.96,-92.85 485.77,-84.13"/>
<polygon fill="#63b8ff" stroke="#63b8ff" points="489.25,-84.59 487.85,-74.09 482.39,-83.17 489.25,-84.59"/>
</a>
</g>
</g>
<!-- Node20 -->
<g id="Node000020" class="node">
<title>Node20</title>
<g id="a_Node000020"><a xlink:title=" ">
<polygon fill="#e0e0e0" stroke="#999999" points="636.63,-74 580.63,-74 580.63,-55 636.63,-55 636.63,-74"/>
<text text-anchor="middle" x="608.63" y="-62" font-family="Helvetica,sans-Serif" font-size="10.00">stdarg.h</text>
</a>
</g>
</g>
<!-- Node15&#45;&gt;Node20 -->
<g id="edge24_Node000015_Node000020" class="edge">
<title>Node15&#45;&gt;Node20</title>
<g id="a_edge24_Node000015_Node000020"><a xlink:title=" ">
<path fill="none" stroke="#63b8ff" d="M499.52,-109.98C520.72,-101.34 553.76,-87.87 577.94,-78.02"/>
<polygon fill="#63b8ff" stroke="#63b8ff" points="579.43,-81.19 587.37,-74.17 576.79,-74.7 579.43,-81.19"/>
</a>
</g>
</g>
<!-- Node21 -->
<g id="Node000021" class="node">
<title>Node21</title>
<g id="a_Node000021"><a xlink:title=" ">
<polygon fill="#e0e0e0" stroke="#999999" points="398.63,-74 338.63,-74 338.63,-55 398.63,-55 398.63,-74"/>
<text text-anchor="middle" x="368.63" y="-62" font-family="Helvetica,sans-Serif" font-size="10.00">iostream</text>
</a>
</g>
</g>
<!-- Node15&#45;&gt;Node21 -->
<g id="edge25_Node000015_Node000021" class="edge">
<title>Node15&#45;&gt;Node21</title>
<g id="a_edge25_Node000015_Node000021"><a xlink:title=" ">
<path fill="none" stroke="#63b8ff" d="M460.96,-109.98C443.35,-101.5 416.06,-88.35 395.71,-78.54"/>
<polygon fill="#63b8ff" stroke="#63b8ff" points="397.16,-75.36 386.63,-74.17 394.12,-81.66 397.16,-75.36"/>
</a>
</g>
</g>
<!-- Node16&#45;&gt;Node8 -->
<g id="edge20_Node000016_Node000008" class="edge">
<title>Node16&#45;&gt;Node8</title>
<g id="a_edge20_Node000016_Node000008"><a xlink:title=" ">
<path fill="none" stroke="#63b8ff" d="M238.48,-54.98C299.5,-44.35 402.52,-26.39 457.12,-16.87"/>
<polygon fill="#63b8ff" stroke="#63b8ff" points="457.8,-20.3 467.05,-15.13 456.6,-13.4 457.8,-20.3"/>
</a>
</g>
</g>
<!-- Node16&#45;&gt;Node17 -->
<g id="edge21_Node000016_Node000017" class="edge">
<title>Node16&#45;&gt;Node17</title>
<g id="a_edge21_Node000016_Node000017"><a xlink:title=" ">
<path fill="none" stroke="#63b8ff" d="M176.3,-54.98C163.55,-46.84 144.08,-34.41 128.96,-24.76"/>
<polygon fill="#63b8ff" stroke="#63b8ff" points="130.52,-21.6 120.21,-19.17 126.76,-27.5 130.52,-21.6"/>
</a>
</g>
</g>
<!-- Node18 -->
<g id="Node000018" class="node">
<title>Node18</title>
<g id="a_Node000018"><a xlink:title=" ">
<polygon fill="#e0e0e0" stroke="#999999" points="216.13,-19 163.13,-19 163.13,0 216.13,0 216.13,-19"/>
<text text-anchor="middle" x="189.63" y="-7" font-family="Helvetica,sans-Serif" font-size="10.00">limits.h</text>
</a>
</g>
</g>
<!-- Node16&#45;&gt;Node18 -->
<g id="edge22_Node000016_Node000018" class="edge">
<title>Node16&#45;&gt;Node18</title>
<g id="a_edge22_Node000016_Node000018"><a xlink:title=" ">
<path fill="none" stroke="#63b8ff" d="M189.63,-54.75C189.63,-47.8 189.63,-37.85 189.63,-29.13"/>
<polygon fill="#63b8ff" stroke="#63b8ff" points="193.13,-29.09 189.63,-19.09 186.13,-29.09 193.13,-29.09"/>
</a>
</g>
</g>
<!-- Node22&#45;&gt;Node8 -->
<g id="edge28_Node000022_Node000008" class="edge">
<title>Node22&#45;&gt;Node8</title>
<g id="a_edge28_Node000022_Node000008"><a xlink:title=" ">
<path fill="none" stroke="#63b8ff" d="M849.89,-109.95C816.16,-96.91 749.05,-71.78 690.63,-55 635.41,-39.13 570.18,-25.35 530.37,-17.48"/>
<polygon fill="#63b8ff" stroke="#63b8ff" points="530.81,-14 520.33,-15.51 529.47,-20.87 530.81,-14"/>
</a>
</g>
</g>
<!-- Node22&#45;&gt;Node10 -->
<g id="edge27_Node000022_Node000010" class="edge">
<title>Node22&#45;&gt;Node10</title>
<g id="a_edge27_Node000022_Node000010"><a xlink:title=" ">
<path fill="none" stroke="#63b8ff" d="M879.4,-109.75C886.1,-102.18 895.98,-91.05 904.14,-81.84"/>
<polygon fill="#63b8ff" stroke="#63b8ff" points="907,-83.89 911.02,-74.09 901.76,-79.25 907,-83.89"/>
</a>
</g>
</g>
<!-- Node25&#45;&gt;Node2 -->
<g id="edge33_Node000025_Node000002" class="edge">
<title>Node25&#45;&gt;Node2</title>
<g id="a_edge33_Node000025_Node000002"><a xlink:title=" ">
<path fill="none" stroke="#63b8ff" d="M524.2,-164.98C494.35,-156.05 447.25,-141.94 414.1,-132.02"/>
<polygon fill="#63b8ff" stroke="#63b8ff" points="414.88,-128.6 404.3,-129.08 412.87,-135.3 414.88,-128.6"/>
</a>
</g>
</g>
<!-- Node25&#45;&gt;Node15 -->
<g id="edge34_Node000025_Node000015" class="edge">
<title>Node25&#45;&gt;Node15</title>
<g id="a_edge34_Node000025_Node000015"><a xlink:title=" ">
<path fill="none" stroke="#63b8ff" d="M540.74,-164.98C529.48,-156.92 512.35,-144.65 498.93,-135.03"/>
<polygon fill="#63b8ff" stroke="#63b8ff" points="500.91,-132.15 490.74,-129.17 496.83,-137.84 500.91,-132.15"/>
</a>
</g>
</g>
<!-- Node25&#45;&gt;Node23 -->
<g id="edge38_Node000025_Node000023" class="edge">
<title>Node25&#45;&gt;Node23</title>
<g id="a_edge38_Node000025_Node000023"><a xlink:title=" ">
<path fill="none" stroke="#63b8ff" d="M559.9,-164.75C566.18,-157.18 575.42,-146.05 583.07,-136.84"/>
<polygon fill="#63b8ff" stroke="#63b8ff" points="585.81,-139.02 589.5,-129.09 580.42,-134.55 585.81,-139.02"/>
</a>
</g>
</g>
<!-- Node26 -->
<g id="Node000026" class="node">
<title>Node26</title>
<g id="a_Node000026"><a xlink:href="_mutex_8h.html" target="_top" xlink:title=" ">
<polygon fill="white" stroke="#666666" points="244.13,-129 131.13,-129 131.13,-110 244.13,-110 244.13,-129"/>
<text text-anchor="middle" x="187.63" y="-117" font-family="Helvetica,sans-Serif" font-size="10.00">Kit/System/Mutex.h</text>
</a>
</g>
</g>
<!-- Node25&#45;&gt;Node26 -->
<g id="edge35_Node000025_Node000026" class="edge">
<title>Node25&#45;&gt;Node26</title>
<g id="a_edge35_Node000025_Node000026"><a xlink:title=" ">
<path fill="none" stroke="#63b8ff" d="M493.99,-164.98C428.63,-155.49 323.13,-140.18 254.59,-130.22"/>
<polygon fill="#63b8ff" stroke="#63b8ff" points="254.73,-126.71 244.33,-128.73 253.72,-133.63 254.73,-126.71"/>
</a>
</g>
</g>
<!-- Node26&#45;&gt;Node4 -->
<g id="edge37_Node000026_Node000004" class="edge">
<title>Node26&#45;&gt;Node4</title>
<g id="a_edge37_Node000026_Node000004"><a xlink:title=" ">
<path fill="none" stroke="#63b8ff" d="M164.82,-109.98C141.46,-101.27 104.93,-87.63 78.47,-77.75"/>
<polygon fill="#63b8ff" stroke="#63b8ff" points="79.46,-74.39 68.86,-74.17 77.01,-80.95 79.46,-74.39"/>
</a>
</g>
</g>
<!-- Node26&#45;&gt;Node17 -->
<g id="edge36_Node000026_Node000017" class="edge">
<title>Node26&#45;&gt;Node17</title>
<g id="a_edge36_Node000026_Node000017"><a xlink:title=" ">
<path fill="none" stroke="#63b8ff" d="M169.92,-109.95C155.96,-102.34 137.02,-89.97 125.63,-74 116.13,-60.68 111.33,-42.57 108.93,-29.09"/>
<polygon fill="#63b8ff" stroke="#63b8ff" points="112.37,-28.45 107.43,-19.08 105.45,-29.48 112.37,-28.45"/>
</a>
</g>
</g>
<!-- Node28 -->
<g id="Node000028" class="node">
<title>Node28</title>
<g id="a_Node000028"><a xlink:href="_d_list_base_8h.html" target="_top" xlink:title=" ">
<polygon fill="white" stroke="#666666" points="1085.13,-129 944.13,-129 944.13,-110 1085.13,-110 1085.13,-129"/>
<text text-anchor="middle" x="1014.63" y="-117" font-family="Helvetica,sans-Serif" font-size="10.00">Kit/Container/DListBase.h</text>
</a>
</g>
</g>
<!-- Node27&#45;&gt;Node28 -->
<g id="edge41_Node000027_Node000028" class="edge">
<title>Node27&#45;&gt;Node28</title>
<g id="a_edge41_Node000027_Node000028"><a xlink:title=" ">
<path fill="none" stroke="#63b8ff" d="M898.81,-164.98C921.41,-156.3 956.7,-142.75 982.39,-132.88"/>
<polygon fill="#63b8ff" stroke="#63b8ff" points="983.98,-136.02 992.06,-129.17 981.47,-129.49 983.98,-136.02"/>
</a>
</g>
</g>
<!-- Node28&#45;&gt;Node10 -->
<g id="edge42_Node000028_Node000010" class="edge">
<title>Node28&#45;&gt;Node10</title>
<g id="a_edge42_Node000028_Node000010"><a xlink:title=" ">
<path fill="none" stroke="#63b8ff" d="M999.21,-109.98C984.18,-101.69 961.09,-88.94 943.48,-79.22"/>
<polygon fill="#63b8ff" stroke="#63b8ff" points="944.79,-75.94 934.34,-74.17 941.4,-82.07 944.79,-75.94"/>
</a>
</g>
</g>
<!-- Node29&#45;&gt;Node8 -->
<g id="edge48_Node000029_Node000008" class="edge">
<title>Node29&#45;&gt;Node8</title>
<g id="a_edge48_Node000029_Node000008"><a xlink:title=" ">
<path fill="none" stroke="#63b8ff" d="M950.82,-219.95C1018.45,-205.38 1131.01,-171.23 1094.63,-110 1036.56,-12.25 652.09,-8.51 530.46,-9.82"/>
<polygon fill="#63b8ff" stroke="#63b8ff" points="530.13,-6.32 520.18,-9.95 530.22,-13.32 530.13,-6.32"/>
</a>
</g>
</g>
<!-- Node29&#45;&gt;Node14 -->
<g id="edge47_Node000029_Node000014" class="edge">
<title>Node29&#45;&gt;Node14</title>
<g id="a_edge47_Node000029_Node000014"><a xlink:title=" ">
<path fill="none" stroke="#63b8ff" d="M871.18,-219.98C836.68,-210.93 781.97,-196.58 744.07,-186.64"/>
<polygon fill="#63b8ff" stroke="#63b8ff" points="744.9,-183.23 734.34,-184.08 743.13,-190.01 744.9,-183.23"/>
</a>
</g>
</g>
<!-- Node29&#45;&gt;Node22 -->
<g id="edge46_Node000029_Node000022" class="edge">
<title>Node29&#45;&gt;Node22</title>
<g id="a_edge46_Node000029_Node000022"><a xlink:title=" ">
<path fill="none" stroke="#63b8ff" d="M916.19,-219.88C932.05,-207.86 956.01,-185.25 944.63,-165 936.53,-150.56 921.62,-140.26 907.38,-133.22"/>
<polygon fill="#63b8ff" stroke="#63b8ff" points="908.75,-130 898.2,-129.06 905.87,-136.38 908.75,-130"/>
</a>
</g>
</g>
<!-- Node31 -->
<g id="Node000031" class="node">
<title>Node31</title>
<g id="a_Node000031"><a xlink:href="_f_string_base_8h.html" target="_top" xlink:title=" ">
<polygon fill="white" stroke="#666666" points="386.13,-294 263.13,-294 263.13,-275 386.13,-275 386.13,-294"/>
<text text-anchor="middle" x="324.63" y="-282" font-family="Helvetica,sans-Serif" font-size="10.00">Kit/Text/FStringBase.h</text>
</a>
</g>
</g>
<!-- Node30&#45;&gt;Node31 -->
<g id="edge51_Node000030_Node000031" class="edge">
<title>Node30&#45;&gt;Node31</title>
<g id="a_edge51_Node000030_Node000031"><a xlink:title=" ">
<path fill="none" stroke="#63b8ff" d="M395.98,-329.98C382.8,-321.77 362.61,-309.18 347.07,-299.49"/>
<polygon fill="#63b8ff" stroke="#63b8ff" points="348.88,-296.49 338.54,-294.17 345.17,-302.43 348.88,-296.49"/>
</a>
</g>
</g>
<!-- Node32 -->
<g id="Node000032" class="node">
<title>Node32</title>
<g id="a_Node000032"><a xlink:href="_string_base_8h.html" target="_top" xlink:title=" ">
<polygon fill="white" stroke="#666666" points="488.63,-239 370.63,-239 370.63,-220 488.63,-220 488.63,-239"/>
<text text-anchor="middle" x="429.63" y="-227" font-family="Helvetica,sans-Serif" font-size="10.00">Kit/Text/StringBase.h</text>
</a>
</g>
</g>
<!-- Node31&#45;&gt;Node32 -->
<g id="edge52_Node000031_Node000032" class="edge">
<title>Node31&#45;&gt;Node32</title>
<g id="a_edge52_Node000031_Node000032"><a xlink:title=" ">
<path fill="none" stroke="#63b8ff" d="M341.5,-274.98C358.24,-266.54 384.13,-253.47 403.53,-243.68"/>
<polygon fill="#63b8ff" stroke="#63b8ff" points="405.11,-246.8 412.46,-239.17 401.95,-240.55 405.11,-246.8"/>
</a>
</g>
</g>
<!-- Node32&#45;&gt;Node15 -->
<g id="edge53_Node000032_Node000015" class="edge">
<title>Node32&#45;&gt;Node15</title>
<g id="a_edge53_Node000032_Node000015"><a xlink:title=" ">
<path fill="none" stroke="#63b8ff" d="M433.64,-219.66C441.69,-201.93 459.93,-161.73 470.55,-138.32"/>
<polygon fill="#63b8ff" stroke="#63b8ff" points="473.76,-139.71 474.71,-129.16 467.39,-136.82 473.76,-139.71"/>
</a>
</g>
</g>
</g>
</svg>
