<?xml version="1.0" encoding="UTF-8" standalone="no"?>
<!DOCTYPE svg PUBLIC "-//W3C//DTD SVG 1.1//EN"
 "http://www.w3.org/Graphics/SVG/1.1/DTD/svg11.dtd">
<!-- Generated by graphviz version 2.43.0 (0)
 -->
<!-- Title: Kit/Memory/HPool.h Pages: 1 -->
<svg width="576pt" height="302pt"
 viewBox="0.00 0.00 576.00 302.00" xmlns="http://www.w3.org/2000/svg" xmlns:xlink="http://www.w3.org/1999/xlink">
<g id="graph0" class="graph" transform="scale(1 1) rotate(0) translate(4 298)">
<title>Kit/Memory/HPool.h</title>
<!-- Node1 -->
<g id="Node000001" class="node">
<title>Node1</title>
<g id="a_Node000001"><a xlink:title=" ">
<polygon fill="#999999" stroke="#666666" points="422.5,-294 308.5,-294 308.5,-275 422.5,-275 422.5,-294"/>
<text text-anchor="middle" x="365.5" y="-282" font-family="Helvetica,sans-Serif" font-size="10.00">Kit/Memory/HPool.h</text>
</a>
</g>
</g>
<!-- Node2 -->
<g id="Node000002" class="node">
<title>Node2</title>
<g id="a_Node000002"><a xlink:href="_pool_8h.html" target="_top" xlink:title=" ">
<polygon fill="white" stroke="#666666" points="346,-239 239,-239 239,-220 346,-220 346,-239"/>
<text text-anchor="middle" x="292.5" y="-227" font-family="Helvetica,sans-Serif" font-size="10.00">Kit/Memory/Pool.h</text>
</a>
</g>
</g>
<!-- Node1&#45;&gt;Node2 -->
<g id="edge1_Node000001_Node000002" class="edge">
<title>Node1&#45;&gt;Node2</title>
<g id="a_edge1_Node000001_Node000002"><a xlink:title=" ">
<path fill="none" stroke="#63b8ff" d="M353.77,-274.98C342.77,-267 326.08,-254.88 312.9,-245.31"/>
<polygon fill="#63b8ff" stroke="#63b8ff" points="314.59,-242.21 304.44,-239.17 310.48,-247.88 314.59,-242.21"/>
</a>
</g>
</g>
<!-- Node11 -->
<g id="Node000011" class="node">
<title>Node11</title>
<g id="a_Node000011"><a xlink:href="_aligned_class_8h.html" target="_top" xlink:title=" ">
<polygon fill="white" stroke="#666666" points="513,-239 364,-239 364,-220 513,-220 513,-239"/>
<text text-anchor="middle" x="438.5" y="-227" font-family="Helvetica,sans-Serif" font-size="10.00">Kit/Memory/AlignedClass.h</text>
</a>
</g>
</g>
<!-- Node1&#45;&gt;Node11 -->
<g id="edge11_Node000001_Node000011" class="edge">
<title>Node1&#45;&gt;Node11</title>
<g id="a_edge11_Node000001_Node000011"><a xlink:title=" ">
<path fill="none" stroke="#63b8ff" d="M377.23,-274.98C388.23,-267 404.92,-254.88 418.1,-245.31"/>
<polygon fill="#63b8ff" stroke="#63b8ff" points="420.52,-247.88 426.56,-239.17 416.41,-242.21 420.52,-247.88"/>
</a>
</g>
</g>
<!-- Node12 -->
<g id="Node000012" class="node">
<title>Node12</title>
<g id="a_Node000012"><a xlink:href="_assert_8h.html" target="_top" xlink:title=" ">
<polygon fill="white" stroke="#666666" points="176,-239 63,-239 63,-220 176,-220 176,-239"/>
<text text-anchor="middle" x="119.5" y="-227" font-family="Helvetica,sans-Serif" font-size="10.00">Kit/System/Assert.h</text>
</a>
</g>
</g>
<!-- Node1&#45;&gt;Node12 -->
<g id="edge13_Node000001_Node000012" class="edge">
<title>Node1&#45;&gt;Node12</title>
<g id="a_edge13_Node000001_Node000012"><a xlink:title=" ">
<path fill="none" stroke="#63b8ff" d="M325.98,-274.98C283.33,-265.8 215.35,-251.15 169.14,-241.19"/>
<polygon fill="#63b8ff" stroke="#63b8ff" points="169.85,-237.77 159.33,-239.08 168.37,-244.61 169.85,-237.77"/>
</a>
</g>
</g>
<!-- Node14 -->
<g id="Node000014" class="node">
<title>Node14</title>
<g id="a_Node000014"><a xlink:title=" ">
<polygon fill="#e0e0e0" stroke="#999999" points="568,-239 531,-239 531,-220 568,-220 568,-239"/>
<text text-anchor="middle" x="549.5" y="-227" font-family="Helvetica,sans-Serif" font-size="10.00">new</text>
</a>
</g>
</g>
<!-- Node1&#45;&gt;Node14 -->
<g id="edge16_Node000001_Node000014" class="edge">
<title>Node1&#45;&gt;Node14</title>
<g id="a_edge16_Node000001_Node000014"><a xlink:title=" ">
<path fill="none" stroke="#63b8ff" d="M396.03,-274.95C425.55,-266.66 471.77,-253.57 520.96,-239.12"/>
<polygon fill="#63b8ff" stroke="#63b8ff" points="522.23,-242.4 530.84,-236.21 520.26,-235.68 522.23,-242.4"/>
</a>
</g>
</g>
<!-- Node3 -->
<g id="Node000003" class="node">
<title>Node3</title>
<g id="a_Node000003"><a xlink:title=" ">
<polygon fill="#e0e0e0" stroke="#999999" points="156,-184 83,-184 83,-165 156,-165 156,-184"/>
<text text-anchor="middle" x="119.5" y="-172" font-family="Helvetica,sans-Serif" font-size="10.00">kit_config.h</text>
</a>
</g>
</g>
<!-- Node2&#45;&gt;Node3 -->
<g id="edge2_Node000002_Node000003" class="edge">
<title>Node2&#45;&gt;Node3</title>
<g id="a_edge2_Node000002_Node000003"><a xlink:title=" ">
<path fill="none" stroke="#63b8ff" d="M264.7,-219.98C235.53,-211.05 189.5,-196.94 157.1,-187.02"/>
<polygon fill="#63b8ff" stroke="#63b8ff" points="158.1,-183.66 147.51,-184.08 156.05,-190.36 158.1,-183.66"/>
</a>
</g>
</g>
<!-- Node4 -->
<g id="Node000004" class="node">
<title>Node4</title>
<g id="a_Node000004"><a xlink:href="_i_allocator_8h.html" target="_top" xlink:title=" ">
<polygon fill="white" stroke="#666666" points="305,-184 174,-184 174,-165 305,-165 305,-184"/>
<text text-anchor="middle" x="239.5" y="-172" font-family="Helvetica,sans-Serif" font-size="10.00">Kit/Memory/IAllocator.h</text>
</a>
</g>
</g>
<!-- Node2&#45;&gt;Node4 -->
<g id="edge3_Node000002_Node000004" class="edge">
<title>Node2&#45;&gt;Node4</title>
<g id="a_edge3_Node000002_Node000004"><a xlink:title=" ">
<path fill="none" stroke="#63b8ff" d="M283.75,-219.75C276.03,-212.03 264.6,-200.6 255.28,-191.28"/>
<polygon fill="#63b8ff" stroke="#63b8ff" points="257.64,-188.69 248.09,-184.09 252.69,-193.64 257.64,-188.69"/>
</a>
</g>
</g>
<!-- Node8 -->
<g id="Node000008" class="node">
<title>Node8</title>
<g id="a_Node000008"><a xlink:href="_d_list_8h.html" target="_top" xlink:title=" ">
<polygon fill="white" stroke="#666666" points="440,-184 323,-184 323,-165 440,-165 440,-184"/>
<text text-anchor="middle" x="381.5" y="-172" font-family="Helvetica,sans-Serif" font-size="10.00">Kit/Container/DList.h</text>
</a>
</g>
</g>
<!-- Node2&#45;&gt;Node8 -->
<g id="edge7_Node000002_Node000008" class="edge">
<title>Node2&#45;&gt;Node8</title>
<g id="a_edge7_Node000002_Node000008"><a xlink:title=" ">
<path fill="none" stroke="#63b8ff" d="M306.8,-219.98C320.6,-211.77 341.74,-199.18 358.01,-189.49"/>
<polygon fill="#63b8ff" stroke="#63b8ff" points="360.14,-192.29 366.94,-184.17 356.56,-186.28 360.14,-192.29"/>
</a>
</g>
</g>
<!-- Node10 -->
<g id="Node000010" class="node">
<title>Node10</title>
<g id="a_Node000010"><a xlink:title=" ">
<polygon fill="#e0e0e0" stroke="#999999" points="511,-184 458,-184 458,-165 511,-165 511,-184"/>
<text text-anchor="middle" x="484.5" y="-172" font-family="Helvetica,sans-Serif" font-size="10.00">stdint.h</text>
</a>
</g>
</g>
<!-- Node2&#45;&gt;Node10 -->
<g id="edge10_Node000002_Node000010" class="edge">
<title>Node2&#45;&gt;Node10</title>
<g id="a_edge10_Node000002_Node000010"><a xlink:title=" ">
<path fill="none" stroke="#63b8ff" d="M323.35,-219.98C357.36,-210.6 412.02,-195.51 448.1,-185.55"/>
<polygon fill="#63b8ff" stroke="#63b8ff" points="449.05,-188.92 457.75,-182.88 447.18,-182.17 449.05,-188.92"/>
</a>
</g>
</g>
<!-- Node5 -->
<g id="Node000005" class="node">
<title>Node5</title>
<g id="a_Node000005"><a xlink:href="_list_item_8h.html" target="_top" xlink:title=" ">
<polygon fill="white" stroke="#666666" points="362.5,-74 230.5,-74 230.5,-55 362.5,-55 362.5,-74"/>
<text text-anchor="middle" x="296.5" y="-62" font-family="Helvetica,sans-Serif" font-size="10.00">Kit/Container/ListItem.h</text>
</a>
</g>
</g>
<!-- Node4&#45;&gt;Node5 -->
<g id="edge4_Node000004_Node000005" class="edge">
<title>Node4&#45;&gt;Node5</title>
<g id="a_edge4_Node000004_Node000005"><a xlink:title=" ">
<path fill="none" stroke="#63b8ff" d="M235.1,-164.71C229.36,-151.9 221.09,-127.7 230.5,-110 237.81,-96.25 251.47,-85.99 264.47,-78.8"/>
<polygon fill="#63b8ff" stroke="#63b8ff" points="266.39,-81.75 273.72,-74.11 263.22,-75.51 266.39,-81.75"/>
</a>
</g>
</g>
<!-- Node7 -->
<g id="Node000007" class="node">
<title>Node7</title>
<g id="a_Node000007"><a xlink:title=" ">
<polygon fill="#e0e0e0" stroke="#999999" points="293,-129 240,-129 240,-110 293,-110 293,-129"/>
<text text-anchor="middle" x="266.5" y="-117" font-family="Helvetica,sans-Serif" font-size="10.00">stdlib.h</text>
</a>
</g>
</g>
<!-- Node4&#45;&gt;Node7 -->
<g id="edge6_Node000004_Node000007" class="edge">
<title>Node4&#45;&gt;Node7</title>
<g id="a_edge6_Node000004_Node000007"><a xlink:title=" ">
<path fill="none" stroke="#63b8ff" d="M243.96,-164.75C247.62,-157.57 252.91,-147.18 257.45,-138.27"/>
<polygon fill="#63b8ff" stroke="#63b8ff" points="260.7,-139.59 262.12,-129.09 254.47,-136.41 260.7,-139.59"/>
</a>
</g>
</g>
<!-- Node6 -->
<g id="Node000006" class="node">
<title>Node6</title>
<g id="a_Node000006"><a xlink:href="_item_8h.html" target="_top" xlink:title=" ">
<polygon fill="white" stroke="#666666" points="354,-19 239,-19 239,0 354,0 354,-19"/>
<text text-anchor="middle" x="296.5" y="-7" font-family="Helvetica,sans-Serif" font-size="10.00">Kit/Container/Item.h</text>
</a>
</g>
</g>
<!-- Node5&#45;&gt;Node6 -->
<g id="edge5_Node000005_Node000006" class="edge">
<title>Node5&#45;&gt;Node6</title>
<g id="a_edge5_Node000005_Node000006"><a xlink:title=" ">
<path fill="none" stroke="#63b8ff" d="M296.5,-54.75C296.5,-47.8 296.5,-37.85 296.5,-29.13"/>
<polygon fill="#63b8ff" stroke="#63b8ff" points="300,-29.09 296.5,-19.09 293,-29.09 300,-29.09"/>
</a>
</g>
</g>
<!-- Node9 -->
<g id="Node000009" class="node">
<title>Node9</title>
<g id="a_Node000009"><a xlink:href="_d_list_base_8h.html" target="_top" xlink:title=" ">
<polygon fill="white" stroke="#666666" points="452,-129 311,-129 311,-110 452,-110 452,-129"/>
<text text-anchor="middle" x="381.5" y="-117" font-family="Helvetica,sans-Serif" font-size="10.00">Kit/Container/DListBase.h</text>
</a>
</g>
</g>
<!-- Node8&#45;&gt;Node9 -->
<g id="edge8_Node000008_Node000009" class="edge">
<title>Node8&#45;&gt;Node9</title>
<g id="a_edge8_Node000008_Node000009"><a xlink:title=" ">
<path fill="none" stroke="#63b8ff" d="M381.5,-164.75C381.5,-157.8 381.5,-147.85 381.5,-139.13"/>
<polygon fill="#63b8ff" stroke="#63b8ff" points="385,-139.09 381.5,-129.09 378,-139.09 385,-139.09"/>
</a>
</g>
</g>
<!-- Node9&#45;&gt;Node5 -->
<g id="edge9_Node000009_Node000005" class="edge">
<title>Node9&#45;&gt;Node5</title>
<g id="a_edge9_Node000009_Node000005"><a xlink:title=" ">
<path fill="none" stroke="#63b8ff" d="M367.84,-109.98C354.66,-101.77 334.47,-89.18 318.93,-79.49"/>
<polygon fill="#63b8ff" stroke="#63b8ff" points="320.74,-76.49 310.41,-74.17 317.04,-82.43 320.74,-76.49"/>
</a>
</g>
</g>
<!-- Node11&#45;&gt;Node10 -->
<g id="edge12_Node000011_Node000010" class="edge">
<title>Node11&#45;&gt;Node10</title>
<g id="a_edge12_Node000011_Node000010"><a xlink:title=" ">
<path fill="none" stroke="#63b8ff" d="M446.1,-219.75C452.66,-212.18 462.32,-201.05 470.31,-191.84"/>
<polygon fill="#63b8ff" stroke="#63b8ff" points="473.13,-193.94 477.05,-184.09 467.85,-189.35 473.13,-193.94"/>
</a>
</g>
</g>
<!-- Node12&#45;&gt;Node3 -->
<g id="edge14_Node000012_Node000003" class="edge">
<title>Node12&#45;&gt;Node3</title>
<g id="a_edge14_Node000012_Node000003"><a xlink:title=" ">
<path fill="none" stroke="#63b8ff" d="M119.5,-219.75C119.5,-212.8 119.5,-202.85 119.5,-194.13"/>
<polygon fill="#63b8ff" stroke="#63b8ff" points="123,-194.09 119.5,-184.09 116,-194.09 123,-194.09"/>
</a>
</g>
</g>
<!-- Node13 -->
<g id="Node000013" class="node">
<title>Node13</title>
<g id="a_Node000013"><a xlink:title=" ">
<polygon fill="#e0e0e0" stroke="#999999" points="65,-184 0,-184 0,-165 65,-165 65,-184"/>
<text text-anchor="middle" x="32.5" y="-172" font-family="Helvetica,sans-Serif" font-size="10.00">kit_map.h</text>
</a>
</g>
</g>
<!-- Node12&#45;&gt;Node13 -->
<g id="edge15_Node000012_Node000013" class="edge">
<title>Node12&#45;&gt;Node13</title>
<g id="a_edge15_Node000012_Node000013"><a xlink:title=" ">
<path fill="none" stroke="#63b8ff" d="M105.52,-219.98C92.03,-211.77 71.37,-199.18 55.46,-189.49"/>
<polygon fill="#63b8ff" stroke="#63b8ff" points="57.09,-186.38 46.73,-184.17 53.45,-192.36 57.09,-186.38"/>
</a>
</g>
</g>
</g>
</svg>
