<?xml version="1.0" encoding="UTF-8" standalone="no"?>
<!DOCTYPE svg PUBLIC "-//W3C//DTD SVG 1.1//EN"
 "http://www.w3.org/Graphics/SVG/1.1/DTD/svg11.dtd">
<!-- Generated by graphviz version 2.43.0 (0)
 -->
<!-- Title: Kit/Persistence/Record/Journal/HeadRecord.h Pages: 1 -->
<svg width="2194pt" height="731pt"
 viewBox="0.00 0.00 2194.17 731.00" xmlns="http://www.w3.org/2000/svg" xmlns:xlink="http://www.w3.org/1999/xlink">
<g id="graph0" class="graph" transform="scale(1 1) rotate(0) translate(4 727)">
<title>Kit/Persistence/Record/Journal/HeadRecord.h</title>
<!-- Node1 -->
<g id="Node000001" class="node">
<title>Node1</title>
<g id="a_Node000001"><a xlink:title=" ">
<polygon fill="#999999" stroke="#666666" points="1650.5,-723 1524.5,-723 1524.5,-693 1650.5,-693 1650.5,-723"/>
<text text-anchor="start" x="1532.5" y="-711" font-family="Helvetica,sans-Serif" font-size="10.00">Kit/Persistence/Record</text>
<text text-anchor="middle" x="1587.5" y="-700" font-family="Helvetica,sans-Serif" font-size="10.00">/Journal/HeadRecord.h</text>
</a>
</g>
</g>
<!-- Node2 -->
<g id="Node000002" class="node">
<title>Node2</title>
<g id="a_Node000002"><a xlink:href="_i_queue_8h.html" target="_top" xlink:title=" ">
<polygon fill="white" stroke="#666666" points="1738,-239 1599,-239 1599,-220 1738,-220 1738,-239"/>
<text text-anchor="middle" x="1668.5" y="-227" font-family="Helvetica,sans-Serif" font-size="10.00">Kit/EventQueue/IQueue.h</text>
</a>
</g>
</g>
<!-- Node1&#45;&gt;Node2 -->
<g id="edge1_Node000001_Node000002" class="edge">
<title>Node1&#45;&gt;Node2</title>
<g id="a_edge1_Node000001_Node000002"><a xlink:title=" ">
<path fill="none" stroke="#63b8ff" d="M1608.71,-692.98C1638.06,-671.7 1687.5,-628.25 1687.5,-577 1687.5,-577 1687.5,-577 1687.5,-338.5 1687.5,-306.56 1679.34,-270.1 1673.72,-248.77"/>
<polygon fill="#63b8ff" stroke="#63b8ff" points="1677.08,-247.81 1671.06,-239.09 1670.33,-249.66 1677.08,-247.81"/>
</a>
</g>
</g>
<!-- Node14 -->
<g id="Node000014" class="node">
<title>Node14</title>
<g id="a_Node000014"><a xlink:href="_i_head_8h.html" target="_top" xlink:title=" ">
<polygon fill="white" stroke="#666666" points="1487.5,-657 1361.5,-657 1361.5,-627 1487.5,-627 1487.5,-657"/>
<text text-anchor="start" x="1369.5" y="-645" font-family="Helvetica,sans-Serif" font-size="10.00">Kit/Persistence/Record</text>
<text text-anchor="middle" x="1424.5" y="-634" font-family="Helvetica,sans-Serif" font-size="10.00">/Journal/IHead.h</text>
</a>
</g>
</g>
<!-- Node1&#45;&gt;Node14 -->
<g id="edge14_Node000001_Node000014" class="edge">
<title>Node1&#45;&gt;Node14</title>
<g id="a_edge14_Node000001_Node000014"><a xlink:title=" ">
<path fill="none" stroke="#63b8ff" d="M1551.73,-692.95C1527.63,-683.49 1495.65,-670.93 1469.77,-660.78"/>
<polygon fill="#63b8ff" stroke="#63b8ff" points="1470.77,-657.41 1460.19,-657.01 1468.22,-663.93 1470.77,-657.41"/>
</a>
</g>
</g>
<!-- Node45 -->
<g id="Node000045" class="node">
<title>Node45</title>
<g id="a_Node000045"><a xlink:href="_i_chunk_8h.html" target="_top" xlink:title=" ">
<polygon fill="white" stroke="#666666" points="1650.5,-591 1524.5,-591 1524.5,-561 1650.5,-561 1650.5,-591"/>
<text text-anchor="start" x="1532.5" y="-579" font-family="Helvetica,sans-Serif" font-size="10.00">Kit/Persistence/Record</text>
<text text-anchor="middle" x="1587.5" y="-568" font-family="Helvetica,sans-Serif" font-size="10.00">/IChunk.h</text>
</a>
</g>
</g>
<!-- Node1&#45;&gt;Node45 -->
<g id="edge71_Node000001_Node000045" class="edge">
<title>Node1&#45;&gt;Node45</title>
<g id="a_edge71_Node000001_Node000045"><a xlink:title=" ">
<path fill="none" stroke="#63b8ff" d="M1587.5,-692.84C1587.5,-670.86 1587.5,-628.27 1587.5,-601.3"/>
<polygon fill="#63b8ff" stroke="#63b8ff" points="1591,-601.14 1587.5,-591.14 1584,-601.14 1591,-601.14"/>
</a>
</g>
</g>
<!-- Node3 -->
<g id="Node000003" class="node">
<title>Node3</title>
<g id="a_Node000003"><a xlink:title=" ">
<polygon fill="#e0e0e0" stroke="#999999" points="1121,-129 1048,-129 1048,-110 1121,-110 1121,-129"/>
<text text-anchor="middle" x="1084.5" y="-117" font-family="Helvetica,sans-Serif" font-size="10.00">kit_config.h</text>
</a>
</g>
</g>
<!-- Node2&#45;&gt;Node3 -->
<g id="edge2_Node000002_Node000003" class="edge">
<title>Node2&#45;&gt;Node3</title>
<g id="a_edge2_Node000002_Node000003"><a xlink:title=" ">
<path fill="none" stroke="#63b8ff" d="M1598.8,-224.58C1520.98,-219.25 1391.63,-207.55 1282.5,-184 1222.41,-171.03 1154.66,-147.22 1116.02,-132.73"/>
<polygon fill="#63b8ff" stroke="#63b8ff" points="1116.98,-129.35 1106.39,-129.08 1114.5,-135.89 1116.98,-129.35"/>
</a>
</g>
</g>
<!-- Node4 -->
<g id="Node000004" class="node">
<title>Node4</title>
<g id="a_Node000004"><a xlink:href="_i_msg_notification_8h.html" target="_top" xlink:title=" ">
<polygon fill="white" stroke="#666666" points="1645.5,-184 1461.5,-184 1461.5,-165 1645.5,-165 1645.5,-184"/>
<text text-anchor="middle" x="1553.5" y="-172" font-family="Helvetica,sans-Serif" font-size="10.00">Kit/EventQueue/IMsgNotification.h</text>
</a>
</g>
</g>
<!-- Node2&#45;&gt;Node4 -->
<g id="edge3_Node000002_Node000004" class="edge">
<title>Node2&#45;&gt;Node4</title>
<g id="a_edge3_Node000002_Node000004"><a xlink:title=" ">
<path fill="none" stroke="#63b8ff" d="M1650.02,-219.98C1631.52,-211.46 1602.82,-198.23 1581.52,-188.41"/>
<polygon fill="#63b8ff" stroke="#63b8ff" points="1582.86,-185.18 1572.31,-184.17 1579.93,-191.53 1582.86,-185.18"/>
</a>
</g>
</g>
<!-- Node5 -->
<g id="Node000005" class="node">
<title>Node5</title>
<g id="a_Node000005"><a xlink:href="_i_timing_source_8h.html" target="_top" xlink:title=" ">
<polygon fill="white" stroke="#666666" points="1443.5,-184 1291.5,-184 1291.5,-165 1443.5,-165 1443.5,-184"/>
<text text-anchor="middle" x="1367.5" y="-172" font-family="Helvetica,sans-Serif" font-size="10.00">Kit/System/ITimingSource.h</text>
</a>
</g>
</g>
<!-- Node2&#45;&gt;Node5 -->
<g id="edge4_Node000002_Node000005" class="edge">
<title>Node2&#45;&gt;Node5</title>
<g id="a_edge4_Node000002_Node000005"><a xlink:title=" ">
<path fill="none" stroke="#63b8ff" d="M1620.14,-219.98C1567.31,-210.68 1482.68,-195.78 1426.11,-185.82"/>
<polygon fill="#63b8ff" stroke="#63b8ff" points="1426.7,-182.37 1416.24,-184.08 1425.48,-189.26 1426.7,-182.37"/>
</a>
</g>
</g>
<!-- Node10 -->
<g id="Node000010" class="node">
<title>Node10</title>
<g id="a_Node000010"><a xlink:href="_i_runnable_8h.html" target="_top" xlink:title=" ">
<polygon fill="white" stroke="#666666" points="1795,-184 1664,-184 1664,-165 1795,-165 1795,-184"/>
<text text-anchor="middle" x="1729.5" y="-172" font-family="Helvetica,sans-Serif" font-size="10.00">Kit/System/IRunnable.h</text>
</a>
</g>
</g>
<!-- Node2&#45;&gt;Node10 -->
<g id="edge9_Node000002_Node000010" class="edge">
<title>Node2&#45;&gt;Node10</title>
<g id="a_edge9_Node000002_Node000010"><a xlink:title=" ">
<path fill="none" stroke="#63b8ff" d="M1678.3,-219.98C1687.32,-212.15 1700.91,-200.34 1711.82,-190.86"/>
<polygon fill="#63b8ff" stroke="#63b8ff" points="1714.27,-193.37 1719.52,-184.17 1709.68,-188.09 1714.27,-193.37"/>
</a>
</g>
</g>
<!-- Node11 -->
<g id="Node000011" class="node">
<title>Node11</title>
<g id="a_Node000011"><a xlink:href="_i_event_manager_8h.html" target="_top" xlink:title=" ">
<polygon fill="white" stroke="#666666" points="1868,-74 1713,-74 1713,-55 1868,-55 1868,-74"/>
<text text-anchor="middle" x="1790.5" y="-62" font-family="Helvetica,sans-Serif" font-size="10.00">Kit/System/IEventManager.h</text>
</a>
</g>
</g>
<!-- Node2&#45;&gt;Node11 -->
<g id="edge10_Node000002_Node000011" class="edge">
<title>Node2&#45;&gt;Node11</title>
<g id="a_edge10_Node000002_Node000011"><a xlink:title=" ">
<path fill="none" stroke="#63b8ff" d="M1738.13,-227.39C1868.54,-224.58 2139.1,-215.04 2167.5,-184 2253.79,-89.67 2014.73,-69.88 1878.23,-66.09"/>
<polygon fill="#63b8ff" stroke="#63b8ff" points="1878.26,-62.59 1868.18,-65.84 1878.09,-69.59 1878.26,-62.59"/>
</a>
</g>
</g>
<!-- Node12 -->
<g id="Node000012" class="node">
<title>Node12</title>
<g id="a_Node000012"><a xlink:href="_i_signable_8h.html" target="_top" xlink:title=" ">
<polygon fill="white" stroke="#666666" points="1940,-184 1813,-184 1813,-165 1940,-165 1940,-184"/>
<text text-anchor="middle" x="1876.5" y="-172" font-family="Helvetica,sans-Serif" font-size="10.00">Kit/System/ISignable.h</text>
</a>
</g>
</g>
<!-- Node2&#45;&gt;Node12 -->
<g id="edge12_Node000002_Node000012" class="edge">
<title>Node2&#45;&gt;Node12</title>
<g id="a_edge12_Node000002_Node000012"><a xlink:title=" ">
<path fill="none" stroke="#63b8ff" d="M1701.92,-219.98C1737.44,-210.93 1793.77,-196.58 1832.8,-186.64"/>
<polygon fill="#63b8ff" stroke="#63b8ff" points="1833.99,-189.94 1842.82,-184.08 1832.26,-183.16 1833.99,-189.94"/>
</a>
</g>
</g>
<!-- Node13 -->
<g id="Node000013" class="node">
<title>Node13</title>
<g id="a_Node000013"><a xlink:href="_i_change_notification_8h.html" target="_top" xlink:title=" ">
<polygon fill="white" stroke="#666666" points="2158.5,-184 1958.5,-184 1958.5,-165 2158.5,-165 2158.5,-184"/>
<text text-anchor="middle" x="2058.5" y="-172" font-family="Helvetica,sans-Serif" font-size="10.00">Kit/EventQueue/IChangeNotification.h</text>
</a>
</g>
</g>
<!-- Node2&#45;&gt;Node13 -->
<g id="edge13_Node000002_Node000013" class="edge">
<title>Node2&#45;&gt;Node13</title>
<g id="a_edge13_Node000002_Node000013"><a xlink:title=" ">
<path fill="none" stroke="#63b8ff" d="M1731.16,-219.98C1800.57,-210.55 1912.32,-195.36 1985.6,-185.41"/>
<polygon fill="#63b8ff" stroke="#63b8ff" points="1986.23,-188.85 1995.67,-184.04 1985.29,-181.92 1986.23,-188.85"/>
</a>
</g>
</g>
<!-- Node6 -->
<g id="Node000006" class="node">
<title>Node6</title>
<g id="a_Node000006"><a xlink:href="_i_counter_8h.html" target="_top" xlink:title=" ">
<polygon fill="white" stroke="#666666" points="1375.5,-129 1253.5,-129 1253.5,-110 1375.5,-110 1375.5,-129"/>
<text text-anchor="middle" x="1314.5" y="-117" font-family="Helvetica,sans-Serif" font-size="10.00">Kit/System/ICounter.h</text>
</a>
</g>
</g>
<!-- Node5&#45;&gt;Node6 -->
<g id="edge5_Node000005_Node000006" class="edge">
<title>Node5&#45;&gt;Node6</title>
<g id="a_edge5_Node000005_Node000006"><a xlink:title=" ">
<path fill="none" stroke="#63b8ff" d="M1358.75,-164.75C1351.03,-157.03 1339.6,-145.6 1330.28,-136.28"/>
<polygon fill="#63b8ff" stroke="#63b8ff" points="1332.64,-133.69 1323.09,-129.09 1327.69,-138.64 1332.64,-133.69"/>
</a>
</g>
</g>
<!-- Node7 -->
<g id="Node000007" class="node">
<title>Node7</title>
<g id="a_Node000007"><a xlink:href="_list_item_8h.html" target="_top" xlink:title=" ">
<polygon fill="white" stroke="#666666" points="713.5,-74 581.5,-74 581.5,-55 713.5,-55 713.5,-74"/>
<text text-anchor="middle" x="647.5" y="-62" font-family="Helvetica,sans-Serif" font-size="10.00">Kit/Container/ListItem.h</text>
</a>
</g>
</g>
<!-- Node6&#45;&gt;Node7 -->
<g id="edge6_Node000006_Node000007" class="edge">
<title>Node6&#45;&gt;Node7</title>
<g id="a_edge6_Node000006_Node000007"><a xlink:title=" ">
<path fill="none" stroke="#63b8ff" d="M1253.24,-113.63C1131.15,-103.93 857.74,-82.21 724.05,-71.58"/>
<polygon fill="#63b8ff" stroke="#63b8ff" points="724.14,-68.08 713.89,-70.78 723.58,-75.06 724.14,-68.08"/>
</a>
</g>
</g>
<!-- Node9 -->
<g id="Node000009" class="node">
<title>Node9</title>
<g id="a_Node000009"><a xlink:title=" ">
<polygon fill="#e0e0e0" stroke="#999999" points="1111,-19 1058,-19 1058,0 1111,0 1111,-19"/>
<text text-anchor="middle" x="1084.5" y="-7" font-family="Helvetica,sans-Serif" font-size="10.00">stdint.h</text>
</a>
</g>
</g>
<!-- Node6&#45;&gt;Node9 -->
<g id="edge8_Node000006_Node000009" class="edge">
<title>Node6&#45;&gt;Node9</title>
<g id="a_edge8_Node000006_Node000009"><a xlink:title=" ">
<path fill="none" stroke="#63b8ff" d="M1306.61,-109.77C1293.82,-96.13 1267.18,-69.8 1239.5,-55 1201.63,-34.75 1153.49,-22.79 1120.99,-16.46"/>
<polygon fill="#63b8ff" stroke="#63b8ff" points="1121.49,-12.99 1111.01,-14.59 1120.2,-19.87 1121.49,-12.99"/>
</a>
</g>
</g>
<!-- Node8 -->
<g id="Node000008" class="node">
<title>Node8</title>
<g id="a_Node000008"><a xlink:href="_item_8h.html" target="_top" xlink:title=" ">
<polygon fill="white" stroke="#666666" points="705,-19 590,-19 590,0 705,0 705,-19"/>
<text text-anchor="middle" x="647.5" y="-7" font-family="Helvetica,sans-Serif" font-size="10.00">Kit/Container/Item.h</text>
</a>
</g>
</g>
<!-- Node7&#45;&gt;Node8 -->
<g id="edge7_Node000007_Node000008" class="edge">
<title>Node7&#45;&gt;Node8</title>
<g id="a_edge7_Node000007_Node000008"><a xlink:title=" ">
<path fill="none" stroke="#63b8ff" d="M647.5,-54.75C647.5,-47.8 647.5,-37.85 647.5,-29.13"/>
<polygon fill="#63b8ff" stroke="#63b8ff" points="651,-29.09 647.5,-19.09 644,-29.09 651,-29.09"/>
</a>
</g>
</g>
<!-- Node11&#45;&gt;Node9 -->
<g id="edge11_Node000011_Node000009" class="edge">
<title>Node11&#45;&gt;Node9</title>
<g id="a_edge11_Node000011_Node000009"><a xlink:title=" ">
<path fill="none" stroke="#63b8ff" d="M1712.93,-57.68C1561.46,-46.31 1231.53,-21.54 1121.24,-13.26"/>
<polygon fill="#63b8ff" stroke="#63b8ff" points="1121.5,-9.77 1111.27,-12.51 1120.97,-16.75 1121.5,-9.77"/>
</a>
</g>
</g>
<!-- Node15 -->
<g id="Node000015" class="node">
<title>Node15</title>
<g id="a_Node000015"><a xlink:href="_i_data_record_8h.html" target="_top" xlink:title=" ">
<polygon fill="white" stroke="#666666" points="1487.5,-591 1361.5,-591 1361.5,-561 1487.5,-561 1487.5,-591"/>
<text text-anchor="start" x="1369.5" y="-579" font-family="Helvetica,sans-Serif" font-size="10.00">Kit/Persistence/Record</text>
<text text-anchor="middle" x="1424.5" y="-568" font-family="Helvetica,sans-Serif" font-size="10.00">/IDataRecord.h</text>
</a>
</g>
</g>
<!-- Node14&#45;&gt;Node15 -->
<g id="edge15_Node000014_Node000015" class="edge">
<title>Node14&#45;&gt;Node15</title>
<g id="a_edge15_Node000014_Node000015"><a xlink:title=" ">
<path fill="none" stroke="#63b8ff" d="M1424.5,-626.8C1424.5,-619.34 1424.5,-609.99 1424.5,-601.41"/>
<polygon fill="#63b8ff" stroke="#63b8ff" points="1428,-601.16 1424.5,-591.16 1421,-601.16 1428,-601.16"/>
</a>
</g>
</g>
<!-- Node17 -->
<g id="Node000017" class="node">
<title>Node17</title>
<g id="a_Node000017"><a xlink:href="_persistence_2_types_8h.html" target="_top" xlink:title=" ">
<polygon fill="white" stroke="#666666" points="1433,-459 1304,-459 1304,-440 1433,-440 1433,-459"/>
<text text-anchor="middle" x="1368.5" y="-447" font-family="Helvetica,sans-Serif" font-size="10.00">Kit/Persistence/Types.h</text>
</a>
</g>
</g>
<!-- Node14&#45;&gt;Node17 -->
<g id="edge70_Node000014_Node000017" class="edge">
<title>Node14&#45;&gt;Node17</title>
<g id="a_edge70_Node000014_Node000017"><a xlink:title=" ">
<path fill="none" stroke="#63b8ff" d="M1393.67,-626.99C1378.85,-618.66 1362.24,-606.63 1352.5,-591 1329.82,-554.59 1331.29,-536.41 1342.5,-495 1345.16,-485.19 1350.57,-475.33 1355.78,-467.39"/>
<polygon fill="#63b8ff" stroke="#63b8ff" points="1358.73,-469.27 1361.61,-459.07 1353,-465.25 1358.73,-469.27"/>
</a>
</g>
</g>
<!-- Node16 -->
<g id="Node000016" class="node">
<title>Node16</title>
<g id="a_Node000016"><a xlink:href="_i_record_8h.html" target="_top" xlink:title=" ">
<polygon fill="white" stroke="#666666" points="1621.5,-525 1495.5,-525 1495.5,-495 1621.5,-495 1621.5,-525"/>
<text text-anchor="start" x="1503.5" y="-513" font-family="Helvetica,sans-Serif" font-size="10.00">Kit/Persistence/Record</text>
<text text-anchor="middle" x="1558.5" y="-502" font-family="Helvetica,sans-Serif" font-size="10.00">/IRecord.h</text>
</a>
</g>
</g>
<!-- Node15&#45;&gt;Node16 -->
<g id="edge16_Node000015_Node000016" class="edge">
<title>Node15&#45;&gt;Node16</title>
<g id="a_edge16_Node000015_Node000016"><a xlink:title=" ">
<path fill="none" stroke="#63b8ff" d="M1453.91,-560.95C1473.28,-551.7 1498.86,-539.49 1519.87,-529.45"/>
<polygon fill="#63b8ff" stroke="#63b8ff" points="1521.65,-532.48 1529.16,-525.01 1518.63,-526.16 1521.65,-532.48"/>
</a>
</g>
</g>
<!-- Node44 -->
<g id="Node000044" class="node">
<title>Node44</title>
<g id="a_Node000044"><a xlink:href="_i_payload_8h.html" target="_top" xlink:title=" ">
<polygon fill="white" stroke="#666666" points="1477.5,-525 1351.5,-525 1351.5,-495 1477.5,-495 1477.5,-525"/>
<text text-anchor="start" x="1359.5" y="-513" font-family="Helvetica,sans-Serif" font-size="10.00">Kit/Persistence/Record</text>
<text text-anchor="middle" x="1414.5" y="-502" font-family="Helvetica,sans-Serif" font-size="10.00">/IPayload.h</text>
</a>
</g>
</g>
<!-- Node15&#45;&gt;Node44 -->
<g id="edge68_Node000015_Node000044" class="edge">
<title>Node15&#45;&gt;Node44</title>
<g id="a_edge68_Node000015_Node000044"><a xlink:title=" ">
<path fill="none" stroke="#63b8ff" d="M1422.28,-560.8C1421.1,-553.26 1419.62,-543.78 1418.27,-535.13"/>
<polygon fill="#63b8ff" stroke="#63b8ff" points="1421.72,-534.5 1416.71,-525.16 1414.8,-535.58 1421.72,-534.5"/>
</a>
</g>
</g>
<!-- Node16&#45;&gt;Node2 -->
<g id="edge17_Node000016_Node000002" class="edge">
<title>Node16&#45;&gt;Node2</title>
<g id="a_edge17_Node000016_Node000002"><a xlink:title=" ">
<path fill="none" stroke="#63b8ff" d="M1564.09,-494.92C1572,-473.72 1585.5,-432.16 1585.5,-395.5 1585.5,-395.5 1585.5,-395.5 1585.5,-338.5 1585.5,-298.1 1622.47,-263.52 1647.06,-244.99"/>
<polygon fill="#63b8ff" stroke="#63b8ff" points="1649.12,-247.82 1655.16,-239.12 1645.01,-242.15 1649.12,-247.82"/>
</a>
</g>
</g>
<!-- Node16&#45;&gt;Node17 -->
<g id="edge18_Node000016_Node000017" class="edge">
<title>Node16&#45;&gt;Node17</title>
<g id="a_edge18_Node000016_Node000017"><a xlink:title=" ">
<path fill="none" stroke="#63b8ff" d="M1512.99,-494.99C1480.34,-484.94 1436.87,-471.55 1406.17,-462.1"/>
<polygon fill="#63b8ff" stroke="#63b8ff" points="1406.87,-458.65 1396.28,-459.05 1404.81,-465.34 1406.87,-458.65"/>
</a>
</g>
</g>
<!-- Node17&#45;&gt;Node3 -->
<g id="edge19_Node000017_Node000003" class="edge">
<title>Node17&#45;&gt;Node3</title>
<g id="a_edge19_Node000017_Node000003"><a xlink:title=" ">
<path fill="none" stroke="#63b8ff" d="M1314.13,-439.95C1229.82,-425.45 1073.86,-393.24 1041.5,-349 993.41,-283.24 1047.87,-179.15 1073.07,-138.04"/>
<polygon fill="#63b8ff" stroke="#63b8ff" points="1076.14,-139.74 1078.5,-129.41 1070.21,-136.01 1076.14,-139.74"/>
</a>
</g>
</g>
<!-- Node17&#45;&gt;Node9 -->
<g id="edge20_Node000017_Node000009" class="edge">
<title>Node17&#45;&gt;Node9</title>
<g id="a_edge20_Node000017_Node000009"><a xlink:title=" ">
<path fill="none" stroke="#63b8ff" d="M1375.3,-439.79C1389.83,-420.07 1421.4,-370.56 1406.5,-330 1377.14,-250.09 1336.78,-249.59 1282.5,-184 1235.55,-127.26 1236.35,-100.57 1178.5,-55 1160.87,-41.11 1138.19,-30.21 1119.53,-22.68"/>
<polygon fill="#63b8ff" stroke="#63b8ff" points="1120.77,-19.41 1110.18,-19.05 1118.24,-25.94 1120.77,-19.41"/>
</a>
</g>
</g>
<!-- Node18 -->
<g id="Node000018" class="node">
<title>Node18</title>
<g id="a_Node000018"><a xlink:href="_cursor_l_e_8h.html" target="_top" xlink:title=" ">
<polygon fill="white" stroke="#666666" points="1351.5,-404 1223.5,-404 1223.5,-385 1351.5,-385 1351.5,-404"/>
<text text-anchor="middle" x="1287.5" y="-392" font-family="Helvetica,sans-Serif" font-size="10.00">Kit/Memory/CursorLE.h</text>
</a>
</g>
</g>
<!-- Node17&#45;&gt;Node18 -->
<g id="edge21_Node000017_Node000018" class="edge">
<title>Node17&#45;&gt;Node18</title>
<g id="a_edge21_Node000017_Node000018"><a xlink:title=" ">
<path fill="none" stroke="#63b8ff" d="M1355.49,-439.98C1343.04,-431.84 1324.04,-419.41 1309.29,-409.76"/>
<polygon fill="#63b8ff" stroke="#63b8ff" points="1311.04,-406.72 1300.75,-404.17 1307.2,-412.57 1311.04,-406.72"/>
</a>
</g>
</g>
<!-- Node19 -->
<g id="Node000019" class="node">
<title>Node19</title>
<g id="a_Node000019"><a xlink:href="_cursor_base_8h.html" target="_top" xlink:title=" ">
<polygon fill="white" stroke="#666666" points="1311,-349 1170,-349 1170,-330 1311,-330 1311,-349"/>
<text text-anchor="middle" x="1240.5" y="-337" font-family="Helvetica,sans-Serif" font-size="10.00">Kit/Memory/CursorBase.h</text>
</a>
</g>
</g>
<!-- Node18&#45;&gt;Node19 -->
<g id="edge22_Node000018_Node000019" class="edge">
<title>Node18&#45;&gt;Node19</title>
<g id="a_edge22_Node000018_Node000019"><a xlink:title=" ">
<path fill="none" stroke="#63b8ff" d="M1279.74,-384.75C1273.03,-377.18 1263.16,-366.05 1254.99,-356.84"/>
<polygon fill="#63b8ff" stroke="#63b8ff" points="1257.37,-354.25 1248.12,-349.09 1252.13,-358.89 1257.37,-354.25"/>
</a>
</g>
</g>
<!-- Node22 -->
<g id="Node000022" class="node">
<title>Node22</title>
<g id="a_Node000022"><a xlink:href="endian_8h.html" target="_top" xlink:title="This file provides a set of macros/method to convert between the &#39;host&#39; platform and Big/Little endia...">
<polygon fill="white" stroke="#666666" points="1152,-349 1051,-349 1051,-330 1152,-330 1152,-349"/>
<text text-anchor="middle" x="1101.5" y="-337" font-family="Helvetica,sans-Serif" font-size="10.00">Kit/Type/endian.h</text>
</a>
</g>
</g>
<!-- Node18&#45;&gt;Node22 -->
<g id="edge26_Node000018_Node000022" class="edge">
<title>Node18&#45;&gt;Node22</title>
<g id="a_edge26_Node000018_Node000022"><a xlink:title=" ">
<path fill="none" stroke="#63b8ff" d="M1257.62,-384.98C1226.12,-376.01 1176.33,-361.82 1141.47,-351.89"/>
<polygon fill="#63b8ff" stroke="#63b8ff" points="1142.19,-348.46 1131.62,-349.08 1140.28,-355.19 1142.19,-348.46"/>
</a>
</g>
</g>
<!-- Node43 -->
<g id="Node000043" class="node">
<title>Node43</title>
<g id="a_Node000043"><a xlink:title=" ">
<polygon fill="#e0e0e0" stroke="#999999" points="1398,-349 1329,-349 1329,-330 1398,-330 1398,-349"/>
<text text-anchor="middle" x="1363.5" y="-337" font-family="Helvetica,sans-Serif" font-size="10.00">type_traits</text>
</a>
</g>
</g>
<!-- Node18&#45;&gt;Node43 -->
<g id="edge67_Node000018_Node000043" class="edge">
<title>Node18&#45;&gt;Node43</title>
<g id="a_edge67_Node000018_Node000043"><a xlink:title=" ">
<path fill="none" stroke="#63b8ff" d="M1299.71,-384.98C1311.28,-376.92 1328.88,-364.65 1342.66,-355.03"/>
<polygon fill="#63b8ff" stroke="#63b8ff" points="1344.87,-357.76 1351.07,-349.17 1340.86,-352.02 1344.87,-357.76"/>
</a>
</g>
</g>
<!-- Node19&#45;&gt;Node9 -->
<g id="edge24_Node000019_Node000009" class="edge">
<title>Node19&#45;&gt;Node9</title>
<g id="a_edge24_Node000019_Node000009"><a xlink:title=" ">
<path fill="none" stroke="#63b8ff" d="M1232.44,-329.95C1224.79,-321.43 1213.48,-307.69 1206.5,-294 1193.12,-267.76 1187.5,-259.96 1187.5,-230.5 1187.5,-230.5 1187.5,-230.5 1187.5,-118.5 1187.5,-74.36 1141.88,-41.13 1111.36,-23.85"/>
<polygon fill="#63b8ff" stroke="#63b8ff" points="1112.9,-20.7 1102.44,-19 1109.56,-26.85 1112.9,-20.7"/>
</a>
</g>
</g>
<!-- Node20 -->
<g id="Node000020" class="node">
<title>Node20</title>
<g id="a_Node000020"><a xlink:title=" ">
<polygon fill="#e0e0e0" stroke="#999999" points="1333.5,-294 1283.5,-294 1283.5,-275 1333.5,-275 1333.5,-294"/>
<text text-anchor="middle" x="1308.5" y="-282" font-family="Helvetica,sans-Serif" font-size="10.00">cstdint</text>
</a>
</g>
</g>
<!-- Node19&#45;&gt;Node20 -->
<g id="edge23_Node000019_Node000020" class="edge">
<title>Node19&#45;&gt;Node20</title>
<g id="a_edge23_Node000019_Node000020"><a xlink:title=" ">
<path fill="none" stroke="#63b8ff" d="M1251.43,-329.98C1261.58,-322.07 1276.92,-310.11 1289.15,-300.58"/>
<polygon fill="#63b8ff" stroke="#63b8ff" points="1291.64,-303.08 1297.38,-294.17 1287.34,-297.56 1291.64,-303.08"/>
</a>
</g>
</g>
<!-- Node21 -->
<g id="Node000021" class="node">
<title>Node21</title>
<g id="a_Node000021"><a xlink:title=" ">
<polygon fill="#e0e0e0" stroke="#999999" points="1265,-294 1216,-294 1216,-275 1265,-275 1265,-294"/>
<text text-anchor="middle" x="1240.5" y="-282" font-family="Helvetica,sans-Serif" font-size="10.00">cstdlib</text>
</a>
</g>
</g>
<!-- Node19&#45;&gt;Node21 -->
<g id="edge25_Node000019_Node000021" class="edge">
<title>Node19&#45;&gt;Node21</title>
<g id="a_edge25_Node000019_Node000021"><a xlink:title=" ">
<path fill="none" stroke="#63b8ff" d="M1240.5,-329.75C1240.5,-322.8 1240.5,-312.85 1240.5,-304.13"/>
<polygon fill="#63b8ff" stroke="#63b8ff" points="1244,-304.09 1240.5,-294.09 1237,-304.09 1244,-304.09"/>
</a>
</g>
</g>
<!-- Node22&#45;&gt;Node3 -->
<g id="edge27_Node000022_Node000003" class="edge">
<title>Node22&#45;&gt;Node3</title>
<g id="a_edge27_Node000022_Node000003"><a xlink:title=" ">
<path fill="none" stroke="#63b8ff" d="M1100.83,-329.95C1098.34,-297.95 1089.5,-184.68 1085.97,-139.4"/>
<polygon fill="#63b8ff" stroke="#63b8ff" points="1089.45,-138.92 1085.18,-129.22 1082.47,-139.47 1089.45,-138.92"/>
</a>
</g>
</g>
<!-- Node22&#45;&gt;Node9 -->
<g id="edge28_Node000022_Node000009" class="edge">
<title>Node22&#45;&gt;Node9</title>
<g id="a_edge28_Node000022_Node000009"><a xlink:title=" ">
<path fill="none" stroke="#63b8ff" d="M1108.38,-329.84C1121.65,-312.23 1149.5,-270.51 1149.5,-230.5 1149.5,-230.5 1149.5,-230.5 1149.5,-118.5 1149.5,-81.38 1120.96,-46.03 1101.7,-26.41"/>
<polygon fill="#63b8ff" stroke="#63b8ff" points="1103.97,-23.72 1094.37,-19.23 1099.07,-28.73 1103.97,-23.72"/>
</a>
</g>
</g>
<!-- Node23 -->
<g id="Node000023" class="node">
<title>Node23</title>
<g id="a_Node000023"><a xlink:href="_string_8h.html" target="_top" xlink:title=" ">
<polygon fill="white" stroke="#666666" points="982,-294 929,-294 929,-275 982,-275 982,-294"/>
<text text-anchor="middle" x="955.5" y="-282" font-family="Helvetica,sans-Serif" font-size="10.00">string.h</text>
</a>
</g>
</g>
<!-- Node22&#45;&gt;Node23 -->
<g id="edge29_Node000022_Node000023" class="edge">
<title>Node22&#45;&gt;Node23</title>
<g id="a_edge29_Node000022_Node000023"><a xlink:title=" ">
<path fill="none" stroke="#63b8ff" d="M1078.04,-329.98C1053.92,-321.23 1016.13,-307.51 988.9,-297.62"/>
<polygon fill="#63b8ff" stroke="#63b8ff" points="989.98,-294.29 979.38,-294.17 987.59,-300.87 989.98,-294.29"/>
</a>
</g>
</g>
<!-- Node24 -->
<g id="Node000024" class="node">
<title>Node24</title>
<g id="a_Node000024"><a xlink:href="_model_point_base_8h.html" target="_top" xlink:title=" ">
<polygon fill="white" stroke="#666666" points="812,-239 671,-239 671,-220 812,-220 812,-239"/>
<text text-anchor="middle" x="741.5" y="-227" font-family="Helvetica,sans-Serif" font-size="10.00">Kit/Dm/ModelPointBase.h</text>
</a>
</g>
</g>
<!-- Node23&#45;&gt;Node24 -->
<g id="edge30_Node000023_Node000024" class="edge">
<title>Node23&#45;&gt;Node24</title>
<g id="a_edge30_Node000023_Node000024"><a xlink:title=" ">
<path fill="none" stroke="#63b8ff" d="M928.83,-276.89C893.04,-268.03 829.01,-252.17 785.89,-241.49"/>
<polygon fill="#63b8ff" stroke="#63b8ff" points="786.5,-238.04 775.95,-239.03 784.82,-244.83 786.5,-238.04"/>
</a>
</g>
</g>
<!-- Node42 -->
<g id="Node000042" class="node">
<title>Node42</title>
<g id="a_Node000042"><a xlink:href="_observer_8h.html" target="_top" xlink:title=" ">
<polygon fill="white" stroke="#666666" points="1008.5,-239 902.5,-239 902.5,-220 1008.5,-220 1008.5,-239"/>
<text text-anchor="middle" x="955.5" y="-227" font-family="Helvetica,sans-Serif" font-size="10.00">Kit/Dm/Observer.h</text>
</a>
</g>
</g>
<!-- Node23&#45;&gt;Node42 -->
<g id="edge63_Node000023_Node000042" class="edge">
<title>Node23&#45;&gt;Node42</title>
<g id="a_edge63_Node000023_Node000042"><a xlink:title=" ">
<path fill="none" stroke="#63b8ff" d="M955.5,-274.75C955.5,-267.8 955.5,-257.85 955.5,-249.13"/>
<polygon fill="#63b8ff" stroke="#63b8ff" points="959,-249.09 955.5,-239.09 952,-249.09 959,-249.09"/>
</a>
</g>
</g>
<!-- Node24&#45;&gt;Node9 -->
<g id="edge61_Node000024_Node000009" class="edge">
<title>Node24&#45;&gt;Node9</title>
<g id="a_edge61_Node000024_Node000009"><a xlink:title=" ">
<path fill="none" stroke="#63b8ff" d="M740.15,-219.84C737.32,-198.46 733.14,-142.53 760.5,-110 833.13,-23.66 978.72,-10.84 1047.24,-9.84"/>
<polygon fill="#63b8ff" stroke="#63b8ff" points="1047.57,-13.34 1057.55,-9.77 1047.52,-6.34 1047.57,-13.34"/>
</a>
</g>
</g>
<!-- Node25 -->
<g id="Node000025" class="node">
<title>Node25</title>
<g id="a_Node000025"><a xlink:href="_i_model_point_8h.html" target="_top" xlink:title=" ">
<polygon fill="white" stroke="#666666" points="889.5,-184 769.5,-184 769.5,-165 889.5,-165 889.5,-184"/>
<text text-anchor="middle" x="829.5" y="-172" font-family="Helvetica,sans-Serif" font-size="10.00">Kit/Dm/IModelPoint.h</text>
</a>
</g>
</g>
<!-- Node24&#45;&gt;Node25 -->
<g id="edge31_Node000024_Node000025" class="edge">
<title>Node24&#45;&gt;Node25</title>
<g id="a_edge31_Node000024_Node000025"><a xlink:title=" ">
<path fill="none" stroke="#63b8ff" d="M755.64,-219.98C769.29,-211.77 790.19,-199.18 806.28,-189.49"/>
<polygon fill="#63b8ff" stroke="#63b8ff" points="808.34,-192.33 815.1,-184.17 804.73,-186.33 808.34,-192.33"/>
</a>
</g>
</g>
<!-- Node28 -->
<g id="Node000028" class="node">
<title>Node28</title>
<g id="a_Node000028"><a xlink:title=" ">
<polygon fill="#e0e0e0" stroke="#999999" points="53,-19 0,-19 0,0 53,0 53,-19"/>
<text text-anchor="middle" x="26.5" y="-7" font-family="Helvetica,sans-Serif" font-size="10.00">stdlib.h</text>
</a>
</g>
</g>
<!-- Node24&#45;&gt;Node28 -->
<g id="edge62_Node000024_Node000028" class="edge">
<title>Node24&#45;&gt;Node28</title>
<g id="a_edge62_Node000024_Node000028"><a xlink:title=" ">
<path fill="none" stroke="#63b8ff" d="M670.69,-224.16C497.13,-212.79 61.72,-179.44 21.5,-129 -1.42,-100.26 10.06,-53.99 19.1,-28.6"/>
<polygon fill="#63b8ff" stroke="#63b8ff" points="22.43,-29.71 22.72,-19.12 15.89,-27.21 22.43,-29.71"/>
</a>
</g>
</g>
<!-- Node34 -->
<g id="Node000034" class="node">
<title>Node34</title>
<g id="a_Node000034"><a xlink:href="_i_observer_8h.html" target="_top" xlink:title=" ">
<polygon fill="white" stroke="#666666" points="991,-129 882,-129 882,-110 991,-110 991,-129"/>
<text text-anchor="middle" x="936.5" y="-117" font-family="Helvetica,sans-Serif" font-size="10.00">Kit/Dm/IObserver.h</text>
</a>
</g>
</g>
<!-- Node24&#45;&gt;Node34 -->
<g id="edge57_Node000024_Node000034" class="edge">
<title>Node24&#45;&gt;Node34</title>
<g id="a_edge57_Node000024_Node000034"><a xlink:title=" ">
<path fill="none" stroke="#63b8ff" d="M812.31,-220.08C841.3,-213.84 873.76,-202.96 898.5,-184 913.6,-172.43 923.94,-153 929.98,-138.68"/>
<polygon fill="#63b8ff" stroke="#63b8ff" points="933.25,-139.92 933.63,-129.33 926.73,-137.38 933.25,-139.92"/>
</a>
</g>
</g>
<!-- Node37 -->
<g id="Node000037" class="node">
<title>Node37</title>
<g id="a_Node000037"><a xlink:href="_i_model_database_8h.html" target="_top" xlink:title=" ">
<polygon fill="white" stroke="#666666" points="413.5,-184 271.5,-184 271.5,-165 413.5,-165 413.5,-184"/>
<text text-anchor="middle" x="342.5" y="-172" font-family="Helvetica,sans-Serif" font-size="10.00">Kit/Dm/IModelDatabase.h</text>
</a>
</g>
</g>
<!-- Node24&#45;&gt;Node37 -->
<g id="edge50_Node000024_Node000037" class="edge">
<title>Node24&#45;&gt;Node37</title>
<g id="a_edge50_Node000024_Node000037"><a xlink:title=" ">
<path fill="none" stroke="#63b8ff" d="M677.39,-219.98C606.39,-210.55 492.05,-195.36 417.09,-185.41"/>
<polygon fill="#63b8ff" stroke="#63b8ff" points="417.15,-181.89 406.78,-184.04 416.23,-188.82 417.15,-181.89"/>
</a>
</g>
</g>
<!-- Node40 -->
<g id="Node000040" class="node">
<title>Node40</title>
<g id="a_Node000040"><a xlink:href="_d_list_8h.html" target="_top" xlink:title=" ">
<polygon fill="white" stroke="#666666" points="707,-184 590,-184 590,-165 707,-165 707,-184"/>
<text text-anchor="middle" x="648.5" y="-172" font-family="Helvetica,sans-Serif" font-size="10.00">Kit/Container/DList.h</text>
</a>
</g>
</g>
<!-- Node24&#45;&gt;Node40 -->
<g id="edge58_Node000024_Node000040" class="edge">
<title>Node24&#45;&gt;Node40</title>
<g id="a_edge58_Node000024_Node000040"><a xlink:title=" ">
<path fill="none" stroke="#63b8ff" d="M726.56,-219.98C712,-211.69 689.63,-198.94 672.57,-189.22"/>
<polygon fill="#63b8ff" stroke="#63b8ff" points="674.14,-186.08 663.71,-184.17 670.67,-192.16 674.14,-186.08"/>
</a>
</g>
</g>
<!-- Node25&#45;&gt;Node3 -->
<g id="edge32_Node000025_Node000003" class="edge">
<title>Node25&#45;&gt;Node3</title>
<g id="a_edge32_Node000025_Node000003"><a xlink:title=" ">
<path fill="none" stroke="#63b8ff" d="M870.47,-164.98C916.21,-155.48 990.08,-140.12 1037.97,-130.17"/>
<polygon fill="#63b8ff" stroke="#63b8ff" points="1038.69,-133.6 1047.77,-128.13 1037.27,-126.74 1038.69,-133.6"/>
</a>
</g>
</g>
<!-- Node25&#45;&gt;Node9 -->
<g id="edge49_Node000025_Node000009" class="edge">
<title>Node25&#45;&gt;Node9</title>
<g id="a_edge49_Node000025_Node000009"><a xlink:title=" ">
<path fill="none" stroke="#63b8ff" d="M833.66,-164.68C840.28,-151.39 854.37,-126.07 872.5,-110 924.97,-63.49 1002.96,-34.49 1048.27,-20.51"/>
<polygon fill="#63b8ff" stroke="#63b8ff" points="1049.39,-23.83 1057.96,-17.6 1047.38,-17.13 1049.39,-23.83"/>
</a>
</g>
</g>
<!-- Node26 -->
<g id="Node000026" class="node">
<title>Node26</title>
<g id="a_Node000026"><a xlink:href="_keyed_item_8h.html" target="_top" xlink:title=" ">
<polygon fill="white" stroke="#666666" points="554,-129 409,-129 409,-110 554,-110 554,-129"/>
<text text-anchor="middle" x="481.5" y="-117" font-family="Helvetica,sans-Serif" font-size="10.00">Kit/Container/KeyedItem.h</text>
</a>
</g>
</g>
<!-- Node25&#45;&gt;Node26 -->
<g id="edge33_Node000025_Node000026" class="edge">
<title>Node25&#45;&gt;Node26</title>
<g id="a_edge33_Node000025_Node000026"><a xlink:title=" ">
<path fill="none" stroke="#63b8ff" d="M773.59,-164.98C712.04,-155.61 613.16,-140.55 547.76,-130.59"/>
<polygon fill="#63b8ff" stroke="#63b8ff" points="547.97,-127.08 537.56,-129.04 546.92,-134 547.97,-127.08"/>
</a>
</g>
</g>
<!-- Node30 -->
<g id="Node000030" class="node">
<title>Node30</title>
<g id="a_Node000030"><a xlink:href="_i_string_8h.html" target="_top" xlink:title=" ">
<polygon fill="white" stroke="#666666" points="391,-129 294,-129 294,-110 391,-110 391,-129"/>
<text text-anchor="middle" x="342.5" y="-117" font-family="Helvetica,sans-Serif" font-size="10.00">Kit/Text/IString.h</text>
</a>
</g>
</g>
<!-- Node25&#45;&gt;Node30 -->
<g id="edge39_Node000025_Node000030" class="edge">
<title>Node25&#45;&gt;Node30</title>
<g id="a_edge39_Node000025_Node000030"><a xlink:title=" ">
<path fill="none" stroke="#63b8ff" d="M769.23,-168.12C688,-160.69 538.63,-146.34 401.56,-129.21"/>
<polygon fill="#63b8ff" stroke="#63b8ff" points="401.66,-125.7 391.3,-127.92 400.78,-132.64 401.66,-125.7"/>
</a>
</g>
</g>
<!-- Node25&#45;&gt;Node34 -->
<g id="edge44_Node000025_Node000034" class="edge">
<title>Node25&#45;&gt;Node34</title>
<g id="a_edge44_Node000025_Node000034"><a xlink:title=" ">
<path fill="none" stroke="#63b8ff" d="M846.69,-164.98C863.75,-156.54 890.13,-143.47 909.9,-133.68"/>
<polygon fill="#63b8ff" stroke="#63b8ff" points="911.59,-136.75 919,-129.17 908.48,-130.47 911.59,-136.75"/>
</a>
</g>
</g>
<!-- Node35 -->
<g id="Node000035" class="node">
<title>Node35</title>
<g id="a_Node000035"><a xlink:href="_arduino_8h_source.html" target="_top" xlink:title=" ">
<polygon fill="white" stroke="#666666" points="276,-129 173,-129 173,-110 276,-110 276,-129"/>
<text text-anchor="middle" x="224.5" y="-117" font-family="Helvetica,sans-Serif" font-size="10.00">Kit/Json/Arduino.h</text>
</a>
</g>
</g>
<!-- Node25&#45;&gt;Node35 -->
<g id="edge47_Node000025_Node000035" class="edge">
<title>Node25&#45;&gt;Node35</title>
<g id="a_edge47_Node000025_Node000035"><a xlink:title=" ">
<path fill="none" stroke="#63b8ff" d="M769.42,-169.05C651.79,-160.26 393.87,-140.61 286.13,-129.11"/>
<polygon fill="#63b8ff" stroke="#63b8ff" points="286.51,-125.63 276.19,-128.02 285.75,-132.59 286.51,-125.63"/>
</a>
</g>
</g>
<!-- Node36 -->
<g id="Node000036" class="node">
<title>Node36</title>
<g id="a_Node000036"><a xlink:title=" ">
<polygon fill="#e0e0e0" stroke="#999999" points="825.5,-129 769.5,-129 769.5,-110 825.5,-110 825.5,-129"/>
<text text-anchor="middle" x="797.5" y="-117" font-family="Helvetica,sans-Serif" font-size="10.00">stddef.h</text>
</a>
</g>
</g>
<!-- Node25&#45;&gt;Node36 -->
<g id="edge48_Node000025_Node000036" class="edge">
<title>Node25&#45;&gt;Node36</title>
<g id="a_edge48_Node000025_Node000036"><a xlink:title=" ">
<path fill="none" stroke="#63b8ff" d="M824.22,-164.75C819.79,-157.42 813.34,-146.73 807.88,-137.7"/>
<polygon fill="#63b8ff" stroke="#63b8ff" points="810.85,-135.84 802.69,-129.09 804.86,-139.46 810.85,-135.84"/>
</a>
</g>
</g>
<!-- Node26&#45;&gt;Node7 -->
<g id="edge34_Node000026_Node000007" class="edge">
<title>Node26&#45;&gt;Node7</title>
<g id="a_edge34_Node000026_Node000007"><a xlink:title=" ">
<path fill="none" stroke="#63b8ff" d="M508.17,-109.98C536.04,-101.09 579.95,-87.07 611.02,-77.15"/>
<polygon fill="#63b8ff" stroke="#63b8ff" points="612.16,-80.46 620.62,-74.08 610.03,-73.79 612.16,-80.46"/>
</a>
</g>
</g>
<!-- Node27 -->
<g id="Node000027" class="node">
<title>Node27</title>
<g id="a_Node000027"><a xlink:href="_key_8h.html" target="_top" xlink:title=" ">
<polygon fill="white" stroke="#666666" points="563,-74 454,-74 454,-55 563,-55 563,-74"/>
<text text-anchor="middle" x="508.5" y="-62" font-family="Helvetica,sans-Serif" font-size="10.00">Kit/Container/Key.h</text>
</a>
</g>
</g>
<!-- Node26&#45;&gt;Node27 -->
<g id="edge35_Node000026_Node000027" class="edge">
<title>Node26&#45;&gt;Node27</title>
<g id="a_edge35_Node000026_Node000027"><a xlink:title=" ">
<path fill="none" stroke="#63b8ff" d="M485.96,-109.75C489.62,-102.57 494.91,-92.18 499.45,-83.27"/>
<polygon fill="#63b8ff" stroke="#63b8ff" points="502.7,-84.59 504.12,-74.09 496.47,-81.41 502.7,-84.59"/>
</a>
</g>
</g>
<!-- Node27&#45;&gt;Node9 -->
<g id="edge36_Node000027_Node000009" class="edge">
<title>Node27&#45;&gt;Node9</title>
<g id="a_edge36_Node000027_Node000009"><a xlink:title=" ">
<path fill="none" stroke="#63b8ff" d="M563.29,-56.06C566.41,-55.69 569.49,-55.33 572.5,-55 750.26,-35.48 963.51,-19.25 1047.72,-13.12"/>
<polygon fill="#63b8ff" stroke="#63b8ff" points="1048.09,-16.6 1057.81,-12.39 1047.58,-9.62 1048.09,-16.6"/>
</a>
</g>
</g>
<!-- Node27&#45;&gt;Node28 -->
<g id="edge37_Node000027_Node000028" class="edge">
<title>Node27&#45;&gt;Node28</title>
<g id="a_edge37_Node000027_Node000028"><a xlink:title=" ">
<path fill="none" stroke="#63b8ff" d="M453.7,-56.13C450.59,-55.74 447.5,-55.36 444.5,-55 303.95,-38.19 136.43,-21.31 63.48,-14.11"/>
<polygon fill="#63b8ff" stroke="#63b8ff" points="63.72,-10.62 53.42,-13.12 63.03,-17.58 63.72,-10.62"/>
</a>
</g>
</g>
<!-- Node29 -->
<g id="Node000029" class="node">
<title>Node29</title>
<g id="a_Node000029"><a xlink:title=" ">
<polygon fill="#e0e0e0" stroke="#999999" points="535,-19 482,-19 482,0 535,0 535,-19"/>
<text text-anchor="middle" x="508.5" y="-7" font-family="Helvetica,sans-Serif" font-size="10.00">limits.h</text>
</a>
</g>
</g>
<!-- Node27&#45;&gt;Node29 -->
<g id="edge38_Node000027_Node000029" class="edge">
<title>Node27&#45;&gt;Node29</title>
<g id="a_edge38_Node000027_Node000029"><a xlink:title=" ">
<path fill="none" stroke="#63b8ff" d="M508.5,-54.75C508.5,-47.8 508.5,-37.85 508.5,-29.13"/>
<polygon fill="#63b8ff" stroke="#63b8ff" points="512,-29.09 508.5,-19.09 505,-29.09 512,-29.09"/>
</a>
</g>
</g>
<!-- Node30&#45;&gt;Node27 -->
<g id="edge40_Node000030_Node000027" class="edge">
<title>Node30&#45;&gt;Node27</title>
<g id="a_edge40_Node000030_Node000027"><a xlink:title=" ">
<path fill="none" stroke="#63b8ff" d="M369.17,-109.98C397.04,-101.09 440.95,-87.07 472.02,-77.15"/>
<polygon fill="#63b8ff" stroke="#63b8ff" points="473.16,-80.46 481.62,-74.08 471.03,-73.79 473.16,-80.46"/>
</a>
</g>
</g>
<!-- Node31 -->
<g id="Node000031" class="node">
<title>Node31</title>
<g id="a_Node000031"><a xlink:href="printfchecker_8h.html" target="_top" xlink:title="This file contains macro that enables the GCC (and Clang) compiler to validate printf flags with thei...">
<polygon fill="white" stroke="#666666" points="436,-74 291,-74 291,-55 436,-55 436,-74"/>
<text text-anchor="middle" x="363.5" y="-62" font-family="Helvetica,sans-Serif" font-size="10.00">Kit/System/printfchecker.h</text>
</a>
</g>
</g>
<!-- Node30&#45;&gt;Node31 -->
<g id="edge41_Node000030_Node000031" class="edge">
<title>Node30&#45;&gt;Node31</title>
<g id="a_edge41_Node000030_Node000031"><a xlink:title=" ">
<path fill="none" stroke="#63b8ff" d="M345.97,-109.75C348.78,-102.65 352.84,-92.4 356.35,-83.56"/>
<polygon fill="#63b8ff" stroke="#63b8ff" points="359.67,-84.68 360.1,-74.09 353.16,-82.1 359.67,-84.68"/>
</a>
</g>
</g>
<!-- Node32 -->
<g id="Node000032" class="node">
<title>Node32</title>
<g id="a_Node000032"><a xlink:title=" ">
<polygon fill="#e0e0e0" stroke="#999999" points="194.5,-74 138.5,-74 138.5,-55 194.5,-55 194.5,-74"/>
<text text-anchor="middle" x="166.5" y="-62" font-family="Helvetica,sans-Serif" font-size="10.00">stdarg.h</text>
</a>
</g>
</g>
<!-- Node30&#45;&gt;Node32 -->
<g id="edge42_Node000030_Node000032" class="edge">
<title>Node30&#45;&gt;Node32</title>
<g id="a_edge42_Node000030_Node000032"><a xlink:title=" ">
<path fill="none" stroke="#63b8ff" d="M314.22,-109.98C284.46,-101.02 237.43,-86.86 204.46,-76.93"/>
<polygon fill="#63b8ff" stroke="#63b8ff" points="205.29,-73.53 194.71,-73.99 203.27,-80.23 205.29,-73.53"/>
</a>
</g>
</g>
<!-- Node33 -->
<g id="Node000033" class="node">
<title>Node33</title>
<g id="a_Node000033"><a xlink:title=" ">
<polygon fill="#e0e0e0" stroke="#999999" points="272.5,-74 212.5,-74 212.5,-55 272.5,-55 272.5,-74"/>
<text text-anchor="middle" x="242.5" y="-62" font-family="Helvetica,sans-Serif" font-size="10.00">iostream</text>
</a>
</g>
</g>
<!-- Node30&#45;&gt;Node33 -->
<g id="edge43_Node000030_Node000033" class="edge">
<title>Node30&#45;&gt;Node33</title>
<g id="a_edge43_Node000030_Node000033"><a xlink:title=" ">
<path fill="none" stroke="#63b8ff" d="M326.43,-109.98C310.64,-101.61 286.28,-88.7 267.87,-78.95"/>
<polygon fill="#63b8ff" stroke="#63b8ff" points="269.33,-75.76 258.86,-74.17 266.06,-81.95 269.33,-75.76"/>
</a>
</g>
</g>
<!-- Node34&#45;&gt;Node7 -->
<g id="edge45_Node000034_Node000007" class="edge">
<title>Node34&#45;&gt;Node7</title>
<g id="a_edge45_Node000034_Node000007"><a xlink:title=" ">
<path fill="none" stroke="#63b8ff" d="M890.07,-109.98C839.55,-100.72 758.76,-85.9 704.45,-75.94"/>
<polygon fill="#63b8ff" stroke="#63b8ff" points="704.76,-72.44 694.3,-74.08 703.5,-79.33 704.76,-72.44"/>
</a>
</g>
</g>
<!-- Node34&#45;&gt;Node9 -->
<g id="edge46_Node000034_Node000009" class="edge">
<title>Node34&#45;&gt;Node9</title>
<g id="a_edge46_Node000034_Node000009"><a xlink:title=" ">
<path fill="none" stroke="#63b8ff" d="M944.87,-109.59C957.31,-96.62 981.79,-72.23 1005.5,-55 1021.85,-43.12 1041.66,-31.97 1057.36,-23.8"/>
<polygon fill="#63b8ff" stroke="#63b8ff" points="1059.21,-26.78 1066.53,-19.12 1056.03,-20.54 1059.21,-26.78"/>
</a>
</g>
</g>
<!-- Node37&#45;&gt;Node3 -->
<g id="edge51_Node000037_Node000003" class="edge">
<title>Node37&#45;&gt;Node3</title>
<g id="a_edge51_Node000037_Node000003"><a xlink:title=" ">
<path fill="none" stroke="#63b8ff" d="M413.53,-169.44C534.09,-162.37 786.46,-146.86 999.5,-129 1011.85,-127.96 1025.2,-126.7 1037.58,-125.46"/>
<polygon fill="#63b8ff" stroke="#63b8ff" points="1038.11,-128.93 1047.71,-124.44 1037.4,-121.96 1038.11,-128.93"/>
</a>
</g>
</g>
<!-- Node37&#45;&gt;Node30 -->
<g id="edge52_Node000037_Node000030" class="edge">
<title>Node37&#45;&gt;Node30</title>
<g id="a_edge52_Node000037_Node000030"><a xlink:title=" ">
<path fill="none" stroke="#63b8ff" d="M342.5,-164.75C342.5,-157.8 342.5,-147.85 342.5,-139.13"/>
<polygon fill="#63b8ff" stroke="#63b8ff" points="346,-139.09 342.5,-129.09 339,-139.09 346,-139.09"/>
</a>
</g>
</g>
<!-- Node37&#45;&gt;Node35 -->
<g id="edge56_Node000037_Node000035" class="edge">
<title>Node37&#45;&gt;Node35</title>
<g id="a_edge56_Node000037_Node000035"><a xlink:title=" ">
<path fill="none" stroke="#63b8ff" d="M323.54,-164.98C304.47,-156.42 274.84,-143.11 252.95,-133.28"/>
<polygon fill="#63b8ff" stroke="#63b8ff" points="254.36,-130.07 243.8,-129.17 251.49,-136.46 254.36,-130.07"/>
</a>
</g>
</g>
<!-- Node38 -->
<g id="Node000038" class="node">
<title>Node38</title>
<g id="a_Node000038"><a xlink:href="_mutex_8h.html" target="_top" xlink:title=" ">
<polygon fill="white" stroke="#666666" points="144,-129 31,-129 31,-110 144,-110 144,-129"/>
<text text-anchor="middle" x="87.5" y="-117" font-family="Helvetica,sans-Serif" font-size="10.00">Kit/System/Mutex.h</text>
</a>
</g>
</g>
<!-- Node37&#45;&gt;Node38 -->
<g id="edge53_Node000037_Node000038" class="edge">
<title>Node37&#45;&gt;Node38</title>
<g id="a_edge53_Node000037_Node000038"><a xlink:title=" ">
<path fill="none" stroke="#63b8ff" d="M301.53,-164.98C257.24,-155.78 186.56,-141.09 138.65,-131.13"/>
<polygon fill="#63b8ff" stroke="#63b8ff" points="139.29,-127.69 128.79,-129.08 137.87,-134.54 139.29,-127.69"/>
</a>
</g>
</g>
<!-- Node38&#45;&gt;Node28 -->
<g id="edge54_Node000038_Node000028" class="edge">
<title>Node38&#45;&gt;Node28</title>
<g id="a_edge54_Node000038_Node000028"><a xlink:title=" ">
<path fill="none" stroke="#63b8ff" d="M76.71,-109.68C67.22,-101.39 53.68,-88.17 45.5,-74 37.49,-60.13 32.57,-42.56 29.75,-29.43"/>
<polygon fill="#63b8ff" stroke="#63b8ff" points="33.12,-28.38 27.79,-19.22 26.24,-29.71 33.12,-28.38"/>
</a>
</g>
</g>
<!-- Node39 -->
<g id="Node000039" class="node">
<title>Node39</title>
<g id="a_Node000039"><a xlink:title=" ">
<polygon fill="#e0e0e0" stroke="#999999" points="120,-74 55,-74 55,-55 120,-55 120,-74"/>
<text text-anchor="middle" x="87.5" y="-62" font-family="Helvetica,sans-Serif" font-size="10.00">kit_map.h</text>
</a>
</g>
</g>
<!-- Node38&#45;&gt;Node39 -->
<g id="edge55_Node000038_Node000039" class="edge">
<title>Node38&#45;&gt;Node39</title>
<g id="a_edge55_Node000038_Node000039"><a xlink:title=" ">
<path fill="none" stroke="#63b8ff" d="M87.5,-109.75C87.5,-102.8 87.5,-92.85 87.5,-84.13"/>
<polygon fill="#63b8ff" stroke="#63b8ff" points="91,-84.09 87.5,-74.09 84,-84.09 91,-84.09"/>
</a>
</g>
</g>
<!-- Node41 -->
<g id="Node000041" class="node">
<title>Node41</title>
<g id="a_Node000041"><a xlink:href="_d_list_base_8h.html" target="_top" xlink:title=" ">
<polygon fill="white" stroke="#666666" points="713,-129 572,-129 572,-110 713,-110 713,-129"/>
<text text-anchor="middle" x="642.5" y="-117" font-family="Helvetica,sans-Serif" font-size="10.00">Kit/Container/DListBase.h</text>
</a>
</g>
</g>
<!-- Node40&#45;&gt;Node41 -->
<g id="edge59_Node000040_Node000041" class="edge">
<title>Node40&#45;&gt;Node41</title>
<g id="a_edge59_Node000040_Node000041"><a xlink:title=" ">
<path fill="none" stroke="#63b8ff" d="M647.51,-164.75C646.72,-157.8 645.6,-147.85 644.61,-139.13"/>
<polygon fill="#63b8ff" stroke="#63b8ff" points="648.08,-138.63 643.47,-129.09 641.12,-139.42 648.08,-138.63"/>
</a>
</g>
</g>
<!-- Node41&#45;&gt;Node7 -->
<g id="edge60_Node000041_Node000007" class="edge">
<title>Node41&#45;&gt;Node7</title>
<g id="a_edge60_Node000041_Node000007"><a xlink:title=" ">
<path fill="none" stroke="#63b8ff" d="M643.33,-109.75C643.98,-102.8 644.92,-92.85 645.74,-84.13"/>
<polygon fill="#63b8ff" stroke="#63b8ff" points="649.23,-84.37 646.69,-74.09 642.27,-83.72 649.23,-84.37"/>
</a>
</g>
</g>
<!-- Node42&#45;&gt;Node9 -->
<g id="edge66_Node000042_Node000009" class="edge">
<title>Node42&#45;&gt;Node9</title>
<g id="a_edge66_Node000042_Node000009"><a xlink:title=" ">
<path fill="none" stroke="#63b8ff" d="M960.56,-219.95C979.7,-187.61 1047.95,-72.26 1074.15,-27.98"/>
<polygon fill="#63b8ff" stroke="#63b8ff" points="1077.26,-29.61 1079.34,-19.22 1071.23,-26.05 1077.26,-29.61"/>
</a>
</g>
</g>
<!-- Node42&#45;&gt;Node25 -->
<g id="edge65_Node000042_Node000025" class="edge">
<title>Node42&#45;&gt;Node25</title>
<g id="a_edge65_Node000042_Node000025"><a xlink:title=" ">
<path fill="none" stroke="#63b8ff" d="M935.26,-219.98C914.8,-211.38 882.97,-197.99 859.57,-188.15"/>
<polygon fill="#63b8ff" stroke="#63b8ff" points="860.69,-184.82 850.11,-184.17 857.97,-191.27 860.69,-184.82"/>
</a>
</g>
</g>
<!-- Node42&#45;&gt;Node34 -->
<g id="edge64_Node000042_Node000034" class="edge">
<title>Node42&#45;&gt;Node34</title>
<g id="a_edge64_Node000042_Node000034"><a xlink:title=" ">
<path fill="none" stroke="#63b8ff" d="M953.95,-219.66C950.87,-202.17 943.94,-162.8 939.8,-139.27"/>
<polygon fill="#63b8ff" stroke="#63b8ff" points="943.2,-138.4 938.02,-129.16 936.31,-139.61 943.2,-138.4"/>
</a>
</g>
</g>
<!-- Node44&#45;&gt;Node17 -->
<g id="edge69_Node000044_Node000017" class="edge">
<title>Node44&#45;&gt;Node17</title>
<g id="a_edge69_Node000044_Node000017"><a xlink:title=" ">
<path fill="none" stroke="#63b8ff" d="M1403.36,-494.84C1396.82,-486.52 1388.52,-475.96 1381.66,-467.23"/>
<polygon fill="#63b8ff" stroke="#63b8ff" points="1384.33,-464.96 1375.39,-459.27 1378.82,-469.29 1384.33,-464.96"/>
</a>
</g>
</g>
<!-- Node45&#45;&gt;Node2 -->
<g id="edge72_Node000045_Node000002" class="edge">
<title>Node45&#45;&gt;Node2</title>
<g id="a_edge72_Node000045_Node000002"><a xlink:title=" ">
<path fill="none" stroke="#63b8ff" d="M1603.08,-560.61C1612.31,-551.28 1623.52,-538.41 1630.5,-525 1646.28,-494.69 1649.5,-484.67 1649.5,-450.5 1649.5,-450.5 1649.5,-450.5 1649.5,-338.5 1649.5,-306.56 1657.66,-270.1 1663.28,-248.77"/>
<polygon fill="#63b8ff" stroke="#63b8ff" points="1666.67,-249.66 1665.94,-239.09 1659.92,-247.81 1666.67,-249.66"/>
</a>
</g>
</g>
<!-- Node45&#45;&gt;Node44 -->
<g id="edge73_Node000045_Node000044" class="edge">
<title>Node45&#45;&gt;Node44</title>
<g id="a_edge73_Node000045_Node000044"><a xlink:title=" ">
<path fill="none" stroke="#63b8ff" d="M1549.53,-560.95C1523.73,-551.41 1489.41,-538.71 1461.83,-528.51"/>
<polygon fill="#63b8ff" stroke="#63b8ff" points="1462.97,-525.2 1452.38,-525.01 1460.54,-531.76 1462.97,-525.2"/>
</a>
</g>
</g>
</g>
</svg>
