<?xml version="1.0" encoding="UTF-8" standalone="no"?>
<!DOCTYPE svg PUBLIC "-//W3C//DTD SVG 1.1//EN"
 "http://www.w3.org/Graphics/SVG/1.1/DTD/svg11.dtd">
<!-- Generated by graphviz version 2.43.0 (0)
 -->
<!-- Title: Kit/Persistence/Record/IChunk.h Pages: 1 -->
<svg width="2272pt" height="599pt"
 viewBox="0.00 0.00 2271.77 599.00" xmlns="http://www.w3.org/2000/svg" xmlns:xlink="http://www.w3.org/1999/xlink">
<g id="graph0" class="graph" transform="scale(1 1) rotate(0) translate(4 595)">
<title>Kit/Persistence/Record/IChunk.h</title>
<!-- Node1 -->
<g id="Node000001" class="node">
<title>Node1</title>
<g id="a_Node000001"><a xlink:title=" ">
<polygon fill="#999999" stroke="#666666" points="933.26,-591 807.26,-591 807.26,-561 933.26,-561 933.26,-591"/>
<text text-anchor="start" x="815.26" y="-579" font-family="Helvetica,sans-Serif" font-size="10.00">Kit/Persistence/Record</text>
<text text-anchor="middle" x="870.26" y="-568" font-family="Helvetica,sans-Serif" font-size="10.00">/IChunk.h</text>
</a>
</g>
</g>
<!-- Node2 -->
<g id="Node000002" class="node">
<title>Node2</title>
<g id="a_Node000002"><a xlink:href="_i_queue_8h.html" target="_top" xlink:title=" ">
<polygon fill="white" stroke="#666666" points="597.76,-239 458.76,-239 458.76,-220 597.76,-220 597.76,-239"/>
<text text-anchor="middle" x="528.26" y="-227" font-family="Helvetica,sans-Serif" font-size="10.00">Kit/EventQueue/IQueue.h</text>
</a>
</g>
</g>
<!-- Node1&#45;&gt;Node2 -->
<g id="edge1_Node000001_Node000002" class="edge">
<title>Node1&#45;&gt;Node2</title>
<g id="a_edge1_Node000001_Node000002"><a xlink:title=" ">
<path fill="none" stroke="#63b8ff" d="M861.37,-560.66C848.25,-538.11 825.26,-492.56 825.26,-450.5 825.26,-450.5 825.26,-450.5 825.26,-338.5 825.26,-289.62 681.36,-256.46 593.88,-240.82"/>
<polygon fill="#63b8ff" stroke="#63b8ff" points="594.23,-237.32 583.77,-239.04 593.02,-244.22 594.23,-237.32"/>
</a>
</g>
</g>
<!-- Node14 -->
<g id="Node000014" class="node">
<title>Node14</title>
<g id="a_Node000014"><a xlink:href="_i_payload_8h.html" target="_top" xlink:title=" ">
<polygon fill="white" stroke="#666666" points="980.26,-525 854.26,-525 854.26,-495 980.26,-495 980.26,-525"/>
<text text-anchor="start" x="862.26" y="-513" font-family="Helvetica,sans-Serif" font-size="10.00">Kit/Persistence/Record</text>
<text text-anchor="middle" x="917.26" y="-502" font-family="Helvetica,sans-Serif" font-size="10.00">/IPayload.h</text>
</a>
</g>
</g>
<!-- Node1&#45;&gt;Node14 -->
<g id="edge14_Node000001_Node000014" class="edge">
<title>Node1&#45;&gt;Node14</title>
<g id="a_edge14_Node000001_Node000014"><a xlink:title=" ">
<path fill="none" stroke="#63b8ff" d="M880.69,-560.8C886.59,-552.76 894.11,-542.53 900.79,-533.43"/>
<polygon fill="#63b8ff" stroke="#63b8ff" points="903.76,-535.3 906.86,-525.16 898.11,-531.15 903.76,-535.3"/>
</a>
</g>
</g>
<!-- Node3 -->
<g id="Node000003" class="node">
<title>Node3</title>
<g id="a_Node000003"><a xlink:title=" ">
<polygon fill="#e0e0e0" stroke="#999999" points="2246.76,-129 2173.76,-129 2173.76,-110 2246.76,-110 2246.76,-129"/>
<text text-anchor="middle" x="2210.26" y="-117" font-family="Helvetica,sans-Serif" font-size="10.00">kit_config.h</text>
</a>
</g>
</g>
<!-- Node2&#45;&gt;Node3 -->
<g id="edge2_Node000002_Node000003" class="edge">
<title>Node2&#45;&gt;Node3</title>
<g id="a_edge2_Node000002_Node000003"><a xlink:title=" ">
<path fill="none" stroke="#63b8ff" d="M597.95,-227.92C877.58,-225.38 1910.03,-214.04 2053.26,-184 2102.07,-173.76 2155.13,-149.21 2185.38,-133.81"/>
<polygon fill="#63b8ff" stroke="#63b8ff" points="2187.09,-136.86 2194.36,-129.16 2183.87,-130.65 2187.09,-136.86"/>
</a>
</g>
</g>
<!-- Node4 -->
<g id="Node000004" class="node">
<title>Node4</title>
<g id="a_Node000004"><a xlink:href="_i_msg_notification_8h.html" target="_top" xlink:title=" ">
<polygon fill="white" stroke="#666666" points="725.26,-184 541.26,-184 541.26,-165 725.26,-165 725.26,-184"/>
<text text-anchor="middle" x="633.26" y="-172" font-family="Helvetica,sans-Serif" font-size="10.00">Kit/EventQueue/IMsgNotification.h</text>
</a>
</g>
</g>
<!-- Node2&#45;&gt;Node4 -->
<g id="edge3_Node000002_Node000004" class="edge">
<title>Node2&#45;&gt;Node4</title>
<g id="a_edge3_Node000002_Node000004"><a xlink:title=" ">
<path fill="none" stroke="#63b8ff" d="M545.13,-219.98C561.87,-211.54 587.75,-198.47 607.15,-188.68"/>
<polygon fill="#63b8ff" stroke="#63b8ff" points="608.73,-191.8 616.08,-184.17 605.58,-185.55 608.73,-191.8"/>
</a>
</g>
</g>
<!-- Node5 -->
<g id="Node000005" class="node">
<title>Node5</title>
<g id="a_Node000005"><a xlink:href="_i_timing_source_8h.html" target="_top" xlink:title=" ">
<polygon fill="white" stroke="#666666" points="895.26,-184 743.26,-184 743.26,-165 895.26,-165 895.26,-184"/>
<text text-anchor="middle" x="819.26" y="-172" font-family="Helvetica,sans-Serif" font-size="10.00">Kit/System/ITimingSource.h</text>
</a>
</g>
</g>
<!-- Node2&#45;&gt;Node5 -->
<g id="edge4_Node000002_Node000005" class="edge">
<title>Node2&#45;&gt;Node5</title>
<g id="a_edge4_Node000002_Node000005"><a xlink:title=" ">
<path fill="none" stroke="#63b8ff" d="M575.01,-219.98C625.98,-210.7 707.56,-195.84 762.25,-185.88"/>
<polygon fill="#63b8ff" stroke="#63b8ff" points="762.93,-189.32 772.14,-184.08 761.67,-182.43 762.93,-189.32"/>
</a>
</g>
</g>
<!-- Node10 -->
<g id="Node000010" class="node">
<title>Node10</title>
<g id="a_Node000010"><a xlink:href="_i_runnable_8h.html" target="_top" xlink:title=" ">
<polygon fill="white" stroke="#666666" points="159.76,-184 28.76,-184 28.76,-165 159.76,-165 159.76,-184"/>
<text text-anchor="middle" x="94.26" y="-172" font-family="Helvetica,sans-Serif" font-size="10.00">Kit/System/IRunnable.h</text>
</a>
</g>
</g>
<!-- Node2&#45;&gt;Node10 -->
<g id="edge9_Node000002_Node000010" class="edge">
<title>Node2&#45;&gt;Node10</title>
<g id="a_edge9_Node000002_Node000010"><a xlink:title=" ">
<path fill="none" stroke="#63b8ff" d="M458.53,-219.98C379.6,-210.35 251.44,-194.7 170.08,-184.76"/>
<polygon fill="#63b8ff" stroke="#63b8ff" points="170.26,-181.26 159.9,-183.52 169.41,-188.2 170.26,-181.26"/>
</a>
</g>
</g>
<!-- Node11 -->
<g id="Node000011" class="node">
<title>Node11</title>
<g id="a_Node000011"><a xlink:href="_i_event_manager_8h.html" target="_top" xlink:title=" ">
<polygon fill="white" stroke="#666666" points="486.76,-74 331.76,-74 331.76,-55 486.76,-55 486.76,-74"/>
<text text-anchor="middle" x="409.26" y="-62" font-family="Helvetica,sans-Serif" font-size="10.00">Kit/System/IEventManager.h</text>
</a>
</g>
</g>
<!-- Node2&#45;&gt;Node11 -->
<g id="edge10_Node000002_Node000011" class="edge">
<title>Node2&#45;&gt;Node11</title>
<g id="a_edge10_Node000002_Node000011"><a xlink:title=" ">
<path fill="none" stroke="#63b8ff" d="M458.52,-227.52C326,-224.93 48.34,-215.74 19.26,-184 -70.41,-86.15 180.65,-68.07 321.3,-65.4"/>
<polygon fill="#63b8ff" stroke="#63b8ff" points="321.71,-68.89 331.65,-65.23 321.59,-61.89 321.71,-68.89"/>
</a>
</g>
</g>
<!-- Node12 -->
<g id="Node000012" class="node">
<title>Node12</title>
<g id="a_Node000012"><a xlink:href="_i_signable_8h.html" target="_top" xlink:title=" ">
<polygon fill="white" stroke="#666666" points="304.76,-184 177.76,-184 177.76,-165 304.76,-165 304.76,-184"/>
<text text-anchor="middle" x="241.26" y="-172" font-family="Helvetica,sans-Serif" font-size="10.00">Kit/System/ISignable.h</text>
</a>
</g>
</g>
<!-- Node2&#45;&gt;Node12 -->
<g id="edge12_Node000002_Node000012" class="edge">
<title>Node2&#45;&gt;Node12</title>
<g id="a_edge12_Node000002_Node000012"><a xlink:title=" ">
<path fill="none" stroke="#63b8ff" d="M482.15,-219.98C431.98,-210.72 351.75,-195.9 297.81,-185.94"/>
<polygon fill="#63b8ff" stroke="#63b8ff" points="298.2,-182.46 287.73,-184.08 296.93,-189.34 298.2,-182.46"/>
</a>
</g>
</g>
<!-- Node13 -->
<g id="Node000013" class="node">
<title>Node13</title>
<g id="a_Node000013"><a xlink:href="_i_change_notification_8h.html" target="_top" xlink:title=" ">
<polygon fill="white" stroke="#666666" points="523.26,-184 323.26,-184 323.26,-165 523.26,-165 523.26,-184"/>
<text text-anchor="middle" x="423.26" y="-172" font-family="Helvetica,sans-Serif" font-size="10.00">Kit/EventQueue/IChangeNotification.h</text>
</a>
</g>
</g>
<!-- Node2&#45;&gt;Node13 -->
<g id="edge13_Node000002_Node000013" class="edge">
<title>Node2&#45;&gt;Node13</title>
<g id="a_edge13_Node000002_Node000013"><a xlink:title=" ">
<path fill="none" stroke="#63b8ff" d="M511.39,-219.98C494.65,-211.54 468.76,-198.47 449.36,-188.68"/>
<polygon fill="#63b8ff" stroke="#63b8ff" points="450.94,-185.55 440.43,-184.17 447.78,-191.8 450.94,-185.55"/>
</a>
</g>
</g>
<!-- Node6 -->
<g id="Node000006" class="node">
<title>Node6</title>
<g id="a_Node000006"><a xlink:href="_i_counter_8h.html" target="_top" xlink:title=" ">
<polygon fill="white" stroke="#666666" points="1111.26,-129 989.26,-129 989.26,-110 1111.26,-110 1111.26,-129"/>
<text text-anchor="middle" x="1050.26" y="-117" font-family="Helvetica,sans-Serif" font-size="10.00">Kit/System/ICounter.h</text>
</a>
</g>
</g>
<!-- Node5&#45;&gt;Node6 -->
<g id="edge5_Node000005_Node000006" class="edge">
<title>Node5&#45;&gt;Node6</title>
<g id="a_edge5_Node000005_Node000006"><a xlink:title=" ">
<path fill="none" stroke="#63b8ff" d="M856.37,-164.98C896.24,-155.84 959.72,-141.27 1003.1,-131.32"/>
<polygon fill="#63b8ff" stroke="#63b8ff" points="1003.89,-134.73 1012.85,-129.08 1002.32,-127.91 1003.89,-134.73"/>
</a>
</g>
</g>
<!-- Node7 -->
<g id="Node000007" class="node">
<title>Node7</title>
<g id="a_Node000007"><a xlink:href="_list_item_8h.html" target="_top" xlink:title=" ">
<polygon fill="white" stroke="#666666" points="1505.26,-74 1373.26,-74 1373.26,-55 1505.26,-55 1505.26,-74"/>
<text text-anchor="middle" x="1439.26" y="-62" font-family="Helvetica,sans-Serif" font-size="10.00">Kit/Container/ListItem.h</text>
</a>
</g>
</g>
<!-- Node6&#45;&gt;Node7 -->
<g id="edge6_Node000006_Node000007" class="edge">
<title>Node6&#45;&gt;Node7</title>
<g id="a_edge6_Node000006_Node000007"><a xlink:title=" ">
<path fill="none" stroke="#63b8ff" d="M1111.47,-110.16C1180.64,-100.74 1293.15,-85.41 1366.69,-75.39"/>
<polygon fill="#63b8ff" stroke="#63b8ff" points="1367.36,-78.83 1376.8,-74.01 1366.41,-71.89 1367.36,-78.83"/>
</a>
</g>
</g>
<!-- Node9 -->
<g id="Node000009" class="node">
<title>Node9</title>
<g id="a_Node000009"><a xlink:title=" ">
<polygon fill="#e0e0e0" stroke="#999999" points="1184.76,-19 1131.76,-19 1131.76,0 1184.76,0 1184.76,-19"/>
<text text-anchor="middle" x="1158.26" y="-7" font-family="Helvetica,sans-Serif" font-size="10.00">stdint.h</text>
</a>
</g>
</g>
<!-- Node6&#45;&gt;Node9 -->
<g id="edge8_Node000006_Node000009" class="edge">
<title>Node6&#45;&gt;Node9</title>
<g id="a_edge8_Node000006_Node000009"><a xlink:title=" ">
<path fill="none" stroke="#63b8ff" d="M1059.09,-109.66C1077.3,-91.46 1119.21,-49.55 1142.29,-26.47"/>
<polygon fill="#63b8ff" stroke="#63b8ff" points="1145,-28.7 1149.6,-19.16 1140.05,-23.75 1145,-28.7"/>
</a>
</g>
</g>
<!-- Node8 -->
<g id="Node000008" class="node">
<title>Node8</title>
<g id="a_Node000008"><a xlink:href="_item_8h.html" target="_top" xlink:title=" ">
<polygon fill="white" stroke="#666666" points="1496.76,-19 1381.76,-19 1381.76,0 1496.76,0 1496.76,-19"/>
<text text-anchor="middle" x="1439.26" y="-7" font-family="Helvetica,sans-Serif" font-size="10.00">Kit/Container/Item.h</text>
</a>
</g>
</g>
<!-- Node7&#45;&gt;Node8 -->
<g id="edge7_Node000007_Node000008" class="edge">
<title>Node7&#45;&gt;Node8</title>
<g id="a_edge7_Node000007_Node000008"><a xlink:title=" ">
<path fill="none" stroke="#63b8ff" d="M1439.26,-54.75C1439.26,-47.8 1439.26,-37.85 1439.26,-29.13"/>
<polygon fill="#63b8ff" stroke="#63b8ff" points="1442.76,-29.09 1439.26,-19.09 1435.76,-29.09 1442.76,-29.09"/>
</a>
</g>
</g>
<!-- Node11&#45;&gt;Node9 -->
<g id="edge11_Node000011_Node000009" class="edge">
<title>Node11&#45;&gt;Node9</title>
<g id="a_edge11_Node000011_Node000009"><a xlink:title=" ">
<path fill="none" stroke="#63b8ff" d="M486.94,-58C646.44,-46.72 1005.56,-21.3 1121.45,-13.1"/>
<polygon fill="#63b8ff" stroke="#63b8ff" points="1121.85,-16.58 1131.58,-12.39 1121.36,-9.6 1121.85,-16.58"/>
</a>
</g>
</g>
<!-- Node15 -->
<g id="Node000015" class="node">
<title>Node15</title>
<g id="a_Node000015"><a xlink:href="_persistence_2types_8h.html" target="_top" xlink:title=" ">
<polygon fill="white" stroke="#666666" points="1047.76,-459 918.76,-459 918.76,-440 1047.76,-440 1047.76,-459"/>
<text text-anchor="middle" x="983.26" y="-447" font-family="Helvetica,sans-Serif" font-size="10.00">Kit/Persistence/Types.h</text>
</a>
</g>
</g>
<!-- Node14&#45;&gt;Node15 -->
<g id="edge15_Node000014_Node000015" class="edge">
<title>Node14&#45;&gt;Node15</title>
<g id="a_edge15_Node000014_Node000015"><a xlink:title=" ">
<path fill="none" stroke="#63b8ff" d="M933.23,-494.84C943.01,-486.17 955.53,-475.08 965.6,-466.15"/>
<polygon fill="#63b8ff" stroke="#63b8ff" points="968.2,-468.52 973.37,-459.27 963.56,-463.28 968.2,-468.52"/>
</a>
</g>
</g>
<!-- Node15&#45;&gt;Node3 -->
<g id="edge16_Node000015_Node000003" class="edge">
<title>Node15&#45;&gt;Node3</title>
<g id="a_edge16_Node000015_Node000003"><a xlink:title=" ">
<path fill="none" stroke="#63b8ff" d="M1047.93,-446.19C1299.95,-436.78 2202.26,-398.99 2202.26,-340.5 2202.26,-340.5 2202.26,-340.5 2202.26,-228.5 2202.26,-197.1 2205.66,-160.71 2208.03,-139.2"/>
<polygon fill="#63b8ff" stroke="#63b8ff" points="2211.52,-139.5 2209.18,-129.16 2204.56,-138.7 2211.52,-139.5"/>
</a>
</g>
</g>
<!-- Node15&#45;&gt;Node9 -->
<g id="edge17_Node000015_Node000009" class="edge">
<title>Node15&#45;&gt;Node9</title>
<g id="a_edge17_Node000015_Node000009"><a xlink:title=" ">
<path fill="none" stroke="#63b8ff" d="M974.4,-439.89C957.71,-422.68 923.26,-382.11 923.26,-340.5 923.26,-340.5 923.26,-340.5 923.26,-118.5 923.26,-32.19 1055.74,-14.61 1121.76,-11.2"/>
<polygon fill="#63b8ff" stroke="#63b8ff" points="1121.92,-14.7 1131.76,-10.77 1121.61,-7.7 1121.92,-14.7"/>
</a>
</g>
</g>
<!-- Node16 -->
<g id="Node000016" class="node">
<title>Node16</title>
<g id="a_Node000016"><a xlink:href="_cursor_l_e_8h.html" target="_top" xlink:title=" ">
<polygon fill="white" stroke="#666666" points="1140.26,-404 1012.26,-404 1012.26,-385 1140.26,-385 1140.26,-404"/>
<text text-anchor="middle" x="1076.26" y="-392" font-family="Helvetica,sans-Serif" font-size="10.00">Kit/Memory/CursorLE.h</text>
</a>
</g>
</g>
<!-- Node15&#45;&gt;Node16 -->
<g id="edge18_Node000015_Node000016" class="edge">
<title>Node15&#45;&gt;Node16</title>
<g id="a_edge18_Node000015_Node000016"><a xlink:title=" ">
<path fill="none" stroke="#63b8ff" d="M998.2,-439.98C1012.76,-431.69 1035.12,-418.94 1052.19,-409.22"/>
<polygon fill="#63b8ff" stroke="#63b8ff" points="1054.09,-412.16 1061.04,-404.17 1050.62,-406.08 1054.09,-412.16"/>
</a>
</g>
</g>
<!-- Node17 -->
<g id="Node000017" class="node">
<title>Node17</title>
<g id="a_Node000017"><a xlink:href="_cursor_base_8h.html" target="_top" xlink:title=" ">
<polygon fill="white" stroke="#666666" points="1179.76,-349 1038.76,-349 1038.76,-330 1179.76,-330 1179.76,-349"/>
<text text-anchor="middle" x="1109.26" y="-337" font-family="Helvetica,sans-Serif" font-size="10.00">Kit/Memory/CursorBase.h</text>
</a>
</g>
</g>
<!-- Node16&#45;&gt;Node17 -->
<g id="edge19_Node000016_Node000017" class="edge">
<title>Node16&#45;&gt;Node17</title>
<g id="a_edge19_Node000016_Node000017"><a xlink:title=" ">
<path fill="none" stroke="#63b8ff" d="M1081.71,-384.75C1086.27,-377.42 1092.93,-366.73 1098.55,-357.7"/>
<polygon fill="#63b8ff" stroke="#63b8ff" points="1101.59,-359.43 1103.91,-349.09 1095.65,-355.73 1101.59,-359.43"/>
</a>
</g>
</g>
<!-- Node20 -->
<g id="Node000020" class="node">
<title>Node20</title>
<g id="a_Node000020"><a xlink:href="endian_8h.html" target="_top" xlink:title="This file provides a set of macros/method to convert between the &#39;host&#39; platform and Big/Little endia...">
<polygon fill="white" stroke="#666666" points="1304.76,-349 1203.76,-349 1203.76,-330 1304.76,-330 1304.76,-349"/>
<text text-anchor="middle" x="1254.26" y="-337" font-family="Helvetica,sans-Serif" font-size="10.00">Kit/Type/endian.h</text>
</a>
</g>
</g>
<!-- Node16&#45;&gt;Node20 -->
<g id="edge23_Node000016_Node000020" class="edge">
<title>Node16&#45;&gt;Node20</title>
<g id="a_edge23_Node000016_Node000020"><a xlink:title=" ">
<path fill="none" stroke="#63b8ff" d="M1104.86,-384.98C1134.87,-376.05 1182.23,-361.94 1215.57,-352.02"/>
<polygon fill="#63b8ff" stroke="#63b8ff" points="1216.85,-355.29 1225.43,-349.08 1214.85,-348.58 1216.85,-355.29"/>
</a>
</g>
</g>
<!-- Node41 -->
<g id="Node000041" class="node">
<title>Node41</title>
<g id="a_Node000041"><a xlink:title=" ">
<polygon fill="#e0e0e0" stroke="#999999" points="1020.76,-349 951.76,-349 951.76,-330 1020.76,-330 1020.76,-349"/>
<text text-anchor="middle" x="986.26" y="-337" font-family="Helvetica,sans-Serif" font-size="10.00">type_traits</text>
</a>
</g>
</g>
<!-- Node16&#45;&gt;Node41 -->
<g id="edge64_Node000016_Node000041" class="edge">
<title>Node16&#45;&gt;Node41</title>
<g id="a_edge64_Node000016_Node000041"><a xlink:title=" ">
<path fill="none" stroke="#63b8ff" d="M1061.8,-384.98C1047.84,-376.77 1026.46,-364.18 1010.01,-354.49"/>
<polygon fill="#63b8ff" stroke="#63b8ff" points="1011.37,-351.23 1000.98,-349.17 1007.82,-357.26 1011.37,-351.23"/>
</a>
</g>
</g>
<!-- Node17&#45;&gt;Node9 -->
<g id="edge21_Node000017_Node000009" class="edge">
<title>Node17&#45;&gt;Node9</title>
<g id="a_edge21_Node000017_Node000009"><a xlink:title=" ">
<path fill="none" stroke="#63b8ff" d="M1056.16,-329.98C1031.88,-323.67 1004.34,-312.76 985.26,-294 963.74,-272.85 961.26,-260.67 961.26,-230.5 961.26,-230.5 961.26,-230.5 961.26,-118.5 961.26,-46.16 1064.65,-21.95 1121.62,-14.1"/>
<polygon fill="#63b8ff" stroke="#63b8ff" points="1122.21,-17.56 1131.69,-12.82 1121.33,-10.61 1122.21,-17.56"/>
</a>
</g>
</g>
<!-- Node18 -->
<g id="Node000018" class="node">
<title>Node18</title>
<g id="a_Node000018"><a xlink:title=" ">
<polygon fill="#e0e0e0" stroke="#999999" points="1111.26,-294 1061.26,-294 1061.26,-275 1111.26,-275 1111.26,-294"/>
<text text-anchor="middle" x="1086.26" y="-282" font-family="Helvetica,sans-Serif" font-size="10.00">cstdint</text>
</a>
</g>
</g>
<!-- Node17&#45;&gt;Node18 -->
<g id="edge20_Node000017_Node000018" class="edge">
<title>Node17&#45;&gt;Node18</title>
<g id="a_edge20_Node000017_Node000018"><a xlink:title=" ">
<path fill="none" stroke="#63b8ff" d="M1105.46,-329.75C1102.34,-322.57 1097.83,-312.18 1093.97,-303.27"/>
<polygon fill="#63b8ff" stroke="#63b8ff" points="1097.18,-301.87 1089.98,-294.09 1090.75,-304.66 1097.18,-301.87"/>
</a>
</g>
</g>
<!-- Node19 -->
<g id="Node000019" class="node">
<title>Node19</title>
<g id="a_Node000019"><a xlink:title=" ">
<polygon fill="#e0e0e0" stroke="#999999" points="1042.76,-294 993.76,-294 993.76,-275 1042.76,-275 1042.76,-294"/>
<text text-anchor="middle" x="1018.26" y="-282" font-family="Helvetica,sans-Serif" font-size="10.00">cstdlib</text>
</a>
</g>
</g>
<!-- Node17&#45;&gt;Node19 -->
<g id="edge22_Node000017_Node000019" class="edge">
<title>Node17&#45;&gt;Node19</title>
<g id="a_edge22_Node000017_Node000019"><a xlink:title=" ">
<path fill="none" stroke="#63b8ff" d="M1094.64,-329.98C1080.39,-321.69 1058.51,-308.94 1041.81,-299.22"/>
<polygon fill="#63b8ff" stroke="#63b8ff" points="1043.55,-296.18 1033.14,-294.17 1040.02,-302.23 1043.55,-296.18"/>
</a>
</g>
</g>
<!-- Node20&#45;&gt;Node3 -->
<g id="edge24_Node000020_Node000003" class="edge">
<title>Node20&#45;&gt;Node3</title>
<g id="a_edge24_Node000020_Node000003"><a xlink:title=" ">
<path fill="none" stroke="#63b8ff" d="M1304.77,-335.15C1438.18,-325.05 1809.48,-288.89 2098.26,-184 2132.27,-171.65 2168.05,-149.53 2189.76,-134.93"/>
<polygon fill="#63b8ff" stroke="#63b8ff" points="2191.88,-137.72 2198.16,-129.19 2187.93,-131.94 2191.88,-137.72"/>
</a>
</g>
</g>
<!-- Node20&#45;&gt;Node9 -->
<g id="edge25_Node000020_Node000009" class="edge">
<title>Node20&#45;&gt;Node9</title>
<g id="a_edge25_Node000020_Node000009"><a xlink:title=" ">
<path fill="none" stroke="#63b8ff" d="M1232.9,-330C1199.64,-315.19 1139.26,-281.31 1139.26,-230.5 1139.26,-230.5 1139.26,-230.5 1139.26,-118.5 1139.26,-86.56 1147.42,-50.1 1153.04,-28.77"/>
<polygon fill="#63b8ff" stroke="#63b8ff" points="1156.42,-29.66 1155.69,-19.09 1149.67,-27.81 1156.42,-29.66"/>
</a>
</g>
</g>
<!-- Node21 -->
<g id="Node000021" class="node">
<title>Node21</title>
<g id="a_Node000021"><a xlink:href="_string_8h.html" target="_top" xlink:title=" ">
<polygon fill="white" stroke="#666666" points="1286.76,-294 1233.76,-294 1233.76,-275 1286.76,-275 1286.76,-294"/>
<text text-anchor="middle" x="1260.26" y="-282" font-family="Helvetica,sans-Serif" font-size="10.00">string.h</text>
</a>
</g>
</g>
<!-- Node20&#45;&gt;Node21 -->
<g id="edge26_Node000020_Node000021" class="edge">
<title>Node20&#45;&gt;Node21</title>
<g id="a_edge26_Node000020_Node000021"><a xlink:title=" ">
<path fill="none" stroke="#63b8ff" d="M1255.25,-329.75C1256.03,-322.8 1257.16,-312.85 1258.15,-304.13"/>
<polygon fill="#63b8ff" stroke="#63b8ff" points="1261.64,-304.42 1259.28,-294.09 1254.68,-303.63 1261.64,-304.42"/>
</a>
</g>
</g>
<!-- Node22 -->
<g id="Node000022" class="node">
<title>Node22</title>
<g id="a_Node000022"><a xlink:href="_model_point_base_8h.html" target="_top" xlink:title=" ">
<polygon fill="white" stroke="#666666" points="1512.76,-239 1371.76,-239 1371.76,-220 1512.76,-220 1512.76,-239"/>
<text text-anchor="middle" x="1442.26" y="-227" font-family="Helvetica,sans-Serif" font-size="10.00">Kit/Dm/ModelPointBase.h</text>
</a>
</g>
</g>
<!-- Node21&#45;&gt;Node22 -->
<g id="edge27_Node000021_Node000022" class="edge">
<title>Node21&#45;&gt;Node22</title>
<g id="a_edge27_Node000021_Node000022"><a xlink:title=" ">
<path fill="none" stroke="#63b8ff" d="M1287.11,-275.68C1317.71,-266.77 1368,-252.13 1402.99,-241.93"/>
<polygon fill="#63b8ff" stroke="#63b8ff" points="1404.25,-245.21 1412.88,-239.06 1402.3,-238.49 1404.25,-245.21"/>
</a>
</g>
</g>
<!-- Node40 -->
<g id="Node000040" class="node">
<title>Node40</title>
<g id="a_Node000040"><a xlink:href="_observer_8h.html" target="_top" xlink:title=" ">
<polygon fill="white" stroke="#666666" points="1313.26,-239 1207.26,-239 1207.26,-220 1313.26,-220 1313.26,-239"/>
<text text-anchor="middle" x="1260.26" y="-227" font-family="Helvetica,sans-Serif" font-size="10.00">Kit/Dm/Observer.h</text>
</a>
</g>
</g>
<!-- Node21&#45;&gt;Node40 -->
<g id="edge60_Node000021_Node000040" class="edge">
<title>Node21&#45;&gt;Node40</title>
<g id="a_edge60_Node000021_Node000040"><a xlink:title=" ">
<path fill="none" stroke="#63b8ff" d="M1260.26,-274.75C1260.26,-267.8 1260.26,-257.85 1260.26,-249.13"/>
<polygon fill="#63b8ff" stroke="#63b8ff" points="1263.76,-249.09 1260.26,-239.09 1256.76,-249.09 1263.76,-249.09"/>
</a>
</g>
</g>
<!-- Node22&#45;&gt;Node9 -->
<g id="edge58_Node000022_Node000009" class="edge">
<title>Node22&#45;&gt;Node9</title>
<g id="a_edge58_Node000022_Node000009"><a xlink:title=" ">
<path fill="none" stroke="#63b8ff" d="M1425.85,-219.96C1411.45,-211.95 1390.49,-198.98 1375.26,-184 1346.77,-156 1353.38,-137.33 1324.26,-110 1282.49,-70.8 1222.74,-39.69 1187.48,-23.27"/>
<polygon fill="#63b8ff" stroke="#63b8ff" points="1188.76,-20.01 1178.21,-19.04 1185.85,-26.38 1188.76,-20.01"/>
</a>
</g>
</g>
<!-- Node23 -->
<g id="Node000023" class="node">
<title>Node23</title>
<g id="a_Node000023"><a xlink:href="_i_model_point_8h.html" target="_top" xlink:title=" ">
<polygon fill="white" stroke="#666666" points="1657.26,-184 1537.26,-184 1537.26,-165 1657.26,-165 1657.26,-184"/>
<text text-anchor="middle" x="1597.26" y="-172" font-family="Helvetica,sans-Serif" font-size="10.00">Kit/Dm/IModelPoint.h</text>
</a>
</g>
</g>
<!-- Node22&#45;&gt;Node23 -->
<g id="edge28_Node000022_Node000023" class="edge">
<title>Node22&#45;&gt;Node23</title>
<g id="a_edge28_Node000022_Node000023"><a xlink:title=" ">
<path fill="none" stroke="#63b8ff" d="M1467.16,-219.98C1492.96,-211.16 1533.48,-197.31 1562.44,-187.41"/>
<polygon fill="#63b8ff" stroke="#63b8ff" points="1563.83,-190.63 1572.16,-184.08 1561.56,-184.01 1563.83,-190.63"/>
</a>
</g>
</g>
<!-- Node26 -->
<g id="Node000026" class="node">
<title>Node26</title>
<g id="a_Node000026"><a xlink:title=" ">
<polygon fill="#e0e0e0" stroke="#999999" points="2186.76,-19 2133.76,-19 2133.76,0 2186.76,0 2186.76,-19"/>
<text text-anchor="middle" x="2160.26" y="-7" font-family="Helvetica,sans-Serif" font-size="10.00">stdlib.h</text>
</a>
</g>
</g>
<!-- Node22&#45;&gt;Node26 -->
<g id="edge59_Node000022_Node000026" class="edge">
<title>Node22&#45;&gt;Node26</title>
<g id="a_edge59_Node000022_Node000026"><a xlink:title=" ">
<path fill="none" stroke="#63b8ff" d="M1512.9,-226.09C1658.59,-220.74 1988.02,-206.5 2098.26,-184 2171.11,-169.13 2213.18,-189.61 2256.26,-129 2284.4,-89.41 2222.91,-45.71 2185.8,-24.12"/>
<polygon fill="#63b8ff" stroke="#63b8ff" points="2187.38,-20.99 2176.95,-19.12 2183.94,-27.09 2187.38,-20.99"/>
</a>
</g>
</g>
<!-- Node32 -->
<g id="Node000032" class="node">
<title>Node32</title>
<g id="a_Node000032"><a xlink:href="_i_observer_8h.html" target="_top" xlink:title=" ">
<polygon fill="white" stroke="#666666" points="1314.76,-129 1205.76,-129 1205.76,-110 1314.76,-110 1314.76,-129"/>
<text text-anchor="middle" x="1260.26" y="-117" font-family="Helvetica,sans-Serif" font-size="10.00">Kit/Dm/IObserver.h</text>
</a>
</g>
</g>
<!-- Node22&#45;&gt;Node32 -->
<g id="edge54_Node000022_Node000032" class="edge">
<title>Node22&#45;&gt;Node32</title>
<g id="a_edge54_Node000022_Node000032"><a xlink:title=" ">
<path fill="none" stroke="#63b8ff" d="M1412.05,-219.96C1388.43,-212.52 1355.35,-200.34 1329.26,-184 1308.27,-170.85 1287.85,-150.9 1274.75,-136.88"/>
<polygon fill="#63b8ff" stroke="#63b8ff" points="1277.25,-134.43 1267.93,-129.41 1272.08,-139.15 1277.25,-134.43"/>
</a>
</g>
</g>
<!-- Node35 -->
<g id="Node000035" class="node">
<title>Node35</title>
<g id="a_Node000035"><a xlink:href="_i_model_database_8h.html" target="_top" xlink:title=" ">
<polygon fill="white" stroke="#666666" points="2044.26,-184 1902.26,-184 1902.26,-165 2044.26,-165 2044.26,-184"/>
<text text-anchor="middle" x="1973.26" y="-172" font-family="Helvetica,sans-Serif" font-size="10.00">Kit/Dm/IModelDatabase.h</text>
</a>
</g>
</g>
<!-- Node22&#45;&gt;Node35 -->
<g id="edge47_Node000022_Node000035" class="edge">
<title>Node22&#45;&gt;Node35</title>
<g id="a_edge47_Node000022_Node000035"><a xlink:title=" ">
<path fill="none" stroke="#63b8ff" d="M1512.77,-221.46C1610.92,-211.67 1788.31,-193.96 1891.93,-183.62"/>
<polygon fill="#63b8ff" stroke="#63b8ff" points="1892.43,-187.09 1902.03,-182.61 1891.73,-180.12 1892.43,-187.09"/>
</a>
</g>
</g>
<!-- Node38 -->
<g id="Node000038" class="node">
<title>Node38</title>
<g id="a_Node000038"><a xlink:href="_d_list_8h.html" target="_top" xlink:title=" ">
<polygon fill="white" stroke="#666666" points="1500.76,-184 1383.76,-184 1383.76,-165 1500.76,-165 1500.76,-184"/>
<text text-anchor="middle" x="1442.26" y="-172" font-family="Helvetica,sans-Serif" font-size="10.00">Kit/Container/DList.h</text>
</a>
</g>
</g>
<!-- Node22&#45;&gt;Node38 -->
<g id="edge55_Node000022_Node000038" class="edge">
<title>Node22&#45;&gt;Node38</title>
<g id="a_edge55_Node000022_Node000038"><a xlink:title=" ">
<path fill="none" stroke="#63b8ff" d="M1442.26,-219.75C1442.26,-212.8 1442.26,-202.85 1442.26,-194.13"/>
<polygon fill="#63b8ff" stroke="#63b8ff" points="1445.76,-194.09 1442.26,-184.09 1438.76,-194.09 1445.76,-194.09"/>
</a>
</g>
</g>
<!-- Node23&#45;&gt;Node3 -->
<g id="edge29_Node000023_Node000003" class="edge">
<title>Node23&#45;&gt;Node3</title>
<g id="a_edge29_Node000023_Node000003"><a xlink:title=" ">
<path fill="none" stroke="#63b8ff" d="M1657.59,-170.93C1759.76,-166.1 1973.49,-153.96 2163.31,-129.13"/>
<polygon fill="#63b8ff" stroke="#63b8ff" points="2164.02,-132.57 2173.47,-127.78 2163.1,-125.63 2164.02,-132.57"/>
</a>
</g>
</g>
<!-- Node23&#45;&gt;Node9 -->
<g id="edge46_Node000023_Node000009" class="edge">
<title>Node23&#45;&gt;Node9</title>
<g id="a_edge46_Node000023_Node000009"><a xlink:title=" ">
<path fill="none" stroke="#63b8ff" d="M1589.52,-164.92C1581.76,-156.16 1569.66,-142.04 1560.26,-129 1537.6,-97.59 1546.87,-75.88 1514.26,-55 1461.92,-21.49 1274.88,-13.18 1194.93,-11.15"/>
<polygon fill="#63b8ff" stroke="#63b8ff" points="1194.91,-7.65 1184.83,-10.91 1194.74,-14.65 1194.91,-7.65"/>
</a>
</g>
</g>
<!-- Node24 -->
<g id="Node000024" class="node">
<title>Node24</title>
<g id="a_Node000024"><a xlink:href="_keyed_item_8h.html" target="_top" xlink:title=" ">
<polygon fill="white" stroke="#666666" points="1788.76,-129 1643.76,-129 1643.76,-110 1788.76,-110 1788.76,-129"/>
<text text-anchor="middle" x="1716.26" y="-117" font-family="Helvetica,sans-Serif" font-size="10.00">Kit/Container/KeyedItem.h</text>
</a>
</g>
</g>
<!-- Node23&#45;&gt;Node24 -->
<g id="edge30_Node000023_Node000024" class="edge">
<title>Node23&#45;&gt;Node24</title>
<g id="a_edge30_Node000023_Node000024"><a xlink:title=" ">
<path fill="none" stroke="#63b8ff" d="M1616.38,-164.98C1635.61,-156.42 1665.49,-143.11 1687.56,-133.28"/>
<polygon fill="#63b8ff" stroke="#63b8ff" points="1689.08,-136.44 1696.79,-129.17 1686.23,-130.04 1689.08,-136.44"/>
</a>
</g>
</g>
<!-- Node28 -->
<g id="Node000028" class="node">
<title>Node28</title>
<g id="a_Node000028"><a xlink:href="_i_string_8h.html" target="_top" xlink:title=" ">
<polygon fill="white" stroke="#666666" points="1903.76,-129 1806.76,-129 1806.76,-110 1903.76,-110 1903.76,-129"/>
<text text-anchor="middle" x="1855.26" y="-117" font-family="Helvetica,sans-Serif" font-size="10.00">Kit/Text/IString.h</text>
</a>
</g>
</g>
<!-- Node23&#45;&gt;Node28 -->
<g id="edge36_Node000023_Node000028" class="edge">
<title>Node23&#45;&gt;Node28</title>
<g id="a_edge36_Node000023_Node000028"><a xlink:title=" ">
<path fill="none" stroke="#63b8ff" d="M1638.71,-164.98C1683.52,-155.78 1755.03,-141.09 1803.5,-131.13"/>
<polygon fill="#63b8ff" stroke="#63b8ff" points="1804.39,-134.52 1813.48,-129.08 1802.98,-127.67 1804.39,-134.52"/>
</a>
</g>
</g>
<!-- Node23&#45;&gt;Node32 -->
<g id="edge41_Node000023_Node000032" class="edge">
<title>Node23&#45;&gt;Node32</title>
<g id="a_edge41_Node000023_Node000032"><a xlink:title=" ">
<path fill="none" stroke="#63b8ff" d="M1543.11,-164.98C1483.63,-155.63 1388.15,-140.61 1324.81,-130.65"/>
<polygon fill="#63b8ff" stroke="#63b8ff" points="1324.97,-127.13 1314.55,-129.04 1323.88,-134.05 1324.97,-127.13"/>
</a>
</g>
</g>
<!-- Node33 -->
<g id="Node000033" class="node">
<title>Node33</title>
<g id="a_Node000033"><a xlink:href="_arduino_8h_source.html" target="_top" xlink:title=" ">
<polygon fill="white" stroke="#666666" points="2024.76,-129 1921.76,-129 1921.76,-110 2024.76,-110 2024.76,-129"/>
<text text-anchor="middle" x="1973.26" y="-117" font-family="Helvetica,sans-Serif" font-size="10.00">Kit/Json/Arduino.h</text>
</a>
</g>
</g>
<!-- Node23&#45;&gt;Node33 -->
<g id="edge44_Node000023_Node000033" class="edge">
<title>Node23&#45;&gt;Node33</title>
<g id="a_edge44_Node000023_Node000033"><a xlink:title=" ">
<path fill="none" stroke="#63b8ff" d="M1657.54,-165.03C1718.96,-156.39 1817.25,-142.56 1911.55,-129.24"/>
<polygon fill="#63b8ff" stroke="#63b8ff" points="1912.13,-132.69 1921.55,-127.83 1911.16,-125.76 1912.13,-132.69"/>
</a>
</g>
</g>
<!-- Node34 -->
<g id="Node000034" class="node">
<title>Node34</title>
<g id="a_Node000034"><a xlink:title=" ">
<polygon fill="#e0e0e0" stroke="#999999" points="1625.26,-129 1569.26,-129 1569.26,-110 1625.26,-110 1625.26,-129"/>
<text text-anchor="middle" x="1597.26" y="-117" font-family="Helvetica,sans-Serif" font-size="10.00">stddef.h</text>
</a>
</g>
</g>
<!-- Node23&#45;&gt;Node34 -->
<g id="edge45_Node000023_Node000034" class="edge">
<title>Node23&#45;&gt;Node34</title>
<g id="a_edge45_Node000023_Node000034"><a xlink:title=" ">
<path fill="none" stroke="#63b8ff" d="M1597.26,-164.75C1597.26,-157.8 1597.26,-147.85 1597.26,-139.13"/>
<polygon fill="#63b8ff" stroke="#63b8ff" points="1600.76,-139.09 1597.26,-129.09 1593.76,-139.09 1600.76,-139.09"/>
</a>
</g>
</g>
<!-- Node24&#45;&gt;Node7 -->
<g id="edge31_Node000024_Node000007" class="edge">
<title>Node24&#45;&gt;Node7</title>
<g id="a_edge31_Node000024_Node000007"><a xlink:title=" ">
<path fill="none" stroke="#63b8ff" d="M1671.75,-109.98C1623.43,-100.74 1546.22,-85.97 1494.17,-76.01"/>
<polygon fill="#63b8ff" stroke="#63b8ff" points="1494.59,-72.52 1484.11,-74.08 1493.27,-79.4 1494.59,-72.52"/>
</a>
</g>
</g>
<!-- Node25 -->
<g id="Node000025" class="node">
<title>Node25</title>
<g id="a_Node000025"><a xlink:href="_key_8h.html" target="_top" xlink:title=" ">
<polygon fill="white" stroke="#666666" points="1731.76,-74 1622.76,-74 1622.76,-55 1731.76,-55 1731.76,-74"/>
<text text-anchor="middle" x="1677.26" y="-62" font-family="Helvetica,sans-Serif" font-size="10.00">Kit/Container/Key.h</text>
</a>
</g>
</g>
<!-- Node24&#45;&gt;Node25 -->
<g id="edge32_Node000024_Node000025" class="edge">
<title>Node24&#45;&gt;Node25</title>
<g id="a_edge32_Node000024_Node000025"><a xlink:title=" ">
<path fill="none" stroke="#63b8ff" d="M1709.82,-109.75C1704.36,-102.34 1696.39,-91.5 1689.7,-82.41"/>
<polygon fill="#63b8ff" stroke="#63b8ff" points="1692.32,-80.07 1683.58,-74.09 1686.68,-84.22 1692.32,-80.07"/>
</a>
</g>
</g>
<!-- Node25&#45;&gt;Node9 -->
<g id="edge33_Node000025_Node000009" class="edge">
<title>Node25&#45;&gt;Node9</title>
<g id="a_edge33_Node000025_Node000009"><a xlink:title=" ">
<path fill="none" stroke="#63b8ff" d="M1622.7,-57.93C1516.55,-47.09 1284.8,-23.42 1194.91,-14.24"/>
<polygon fill="#63b8ff" stroke="#63b8ff" points="1195.22,-10.76 1184.92,-13.22 1194.51,-17.72 1195.22,-10.76"/>
</a>
</g>
</g>
<!-- Node25&#45;&gt;Node26 -->
<g id="edge34_Node000025_Node000026" class="edge">
<title>Node25&#45;&gt;Node26</title>
<g id="a_edge34_Node000025_Node000026"><a xlink:title=" ">
<path fill="none" stroke="#63b8ff" d="M1732.06,-56.13C1735.17,-55.74 1738.25,-55.36 1741.26,-55 1882.14,-38.17 2050.07,-21.3 2123.18,-14.11"/>
<polygon fill="#63b8ff" stroke="#63b8ff" points="2123.66,-17.58 2133.27,-13.12 2122.97,-10.61 2123.66,-17.58"/>
</a>
</g>
</g>
<!-- Node27 -->
<g id="Node000027" class="node">
<title>Node27</title>
<g id="a_Node000027"><a xlink:title=" ">
<polygon fill="#e0e0e0" stroke="#999999" points="1703.76,-19 1650.76,-19 1650.76,0 1703.76,0 1703.76,-19"/>
<text text-anchor="middle" x="1677.26" y="-7" font-family="Helvetica,sans-Serif" font-size="10.00">limits.h</text>
</a>
</g>
</g>
<!-- Node25&#45;&gt;Node27 -->
<g id="edge35_Node000025_Node000027" class="edge">
<title>Node25&#45;&gt;Node27</title>
<g id="a_edge35_Node000025_Node000027"><a xlink:title=" ">
<path fill="none" stroke="#63b8ff" d="M1677.26,-54.75C1677.26,-47.8 1677.26,-37.85 1677.26,-29.13"/>
<polygon fill="#63b8ff" stroke="#63b8ff" points="1680.76,-29.09 1677.26,-19.09 1673.76,-29.09 1680.76,-29.09"/>
</a>
</g>
</g>
<!-- Node28&#45;&gt;Node25 -->
<g id="edge37_Node000028_Node000025" class="edge">
<title>Node28&#45;&gt;Node25</title>
<g id="a_edge37_Node000028_Node000025"><a xlink:title=" ">
<path fill="none" stroke="#63b8ff" d="M1826.66,-109.98C1796.64,-101.05 1749.28,-86.94 1715.94,-77.02"/>
<polygon fill="#63b8ff" stroke="#63b8ff" points="1716.66,-73.58 1706.08,-74.08 1714.66,-80.29 1716.66,-73.58"/>
</a>
</g>
</g>
<!-- Node29 -->
<g id="Node000029" class="node">
<title>Node29</title>
<g id="a_Node000029"><a xlink:href="printfchecker_8h.html" target="_top" xlink:title="This file contains macro that enables the GCC (and Clang) compiler to validate printf flags with thei...">
<polygon fill="white" stroke="#666666" points="1973.76,-74 1828.76,-74 1828.76,-55 1973.76,-55 1973.76,-74"/>
<text text-anchor="middle" x="1901.26" y="-62" font-family="Helvetica,sans-Serif" font-size="10.00">Kit/System/printfchecker.h</text>
</a>
</g>
</g>
<!-- Node28&#45;&gt;Node29 -->
<g id="edge38_Node000028_Node000029" class="edge">
<title>Node28&#45;&gt;Node29</title>
<g id="a_edge38_Node000028_Node000029"><a xlink:title=" ">
<path fill="none" stroke="#63b8ff" d="M1862.85,-109.75C1869.42,-102.18 1879.08,-91.05 1887.07,-81.84"/>
<polygon fill="#63b8ff" stroke="#63b8ff" points="1889.89,-83.94 1893.8,-74.09 1884.6,-79.35 1889.89,-83.94"/>
</a>
</g>
</g>
<!-- Node30 -->
<g id="Node000030" class="node">
<title>Node30</title>
<g id="a_Node000030"><a xlink:title=" ">
<polygon fill="#e0e0e0" stroke="#999999" points="2048.26,-74 1992.26,-74 1992.26,-55 2048.26,-55 2048.26,-74"/>
<text text-anchor="middle" x="2020.26" y="-62" font-family="Helvetica,sans-Serif" font-size="10.00">stdarg.h</text>
</a>
</g>
</g>
<!-- Node28&#45;&gt;Node30 -->
<g id="edge39_Node000028_Node000030" class="edge">
<title>Node28&#45;&gt;Node30</title>
<g id="a_edge39_Node000028_Node000030"><a xlink:title=" ">
<path fill="none" stroke="#63b8ff" d="M1881.77,-109.98C1909.47,-101.09 1953.12,-87.07 1984,-77.15"/>
<polygon fill="#63b8ff" stroke="#63b8ff" points="1985.09,-80.47 1993.54,-74.08 1982.95,-73.81 1985.09,-80.47"/>
</a>
</g>
</g>
<!-- Node31 -->
<g id="Node000031" class="node">
<title>Node31</title>
<g id="a_Node000031"><a xlink:title=" ">
<polygon fill="#e0e0e0" stroke="#999999" points="1810.26,-74 1750.26,-74 1750.26,-55 1810.26,-55 1810.26,-74"/>
<text text-anchor="middle" x="1780.26" y="-62" font-family="Helvetica,sans-Serif" font-size="10.00">iostream</text>
</a>
</g>
</g>
<!-- Node28&#45;&gt;Node31 -->
<g id="edge40_Node000028_Node000031" class="edge">
<title>Node28&#45;&gt;Node31</title>
<g id="a_edge40_Node000028_Node000031"><a xlink:title=" ">
<path fill="none" stroke="#63b8ff" d="M1843.21,-109.98C1831.79,-101.92 1814.43,-89.65 1800.82,-80.03"/>
<polygon fill="#63b8ff" stroke="#63b8ff" points="1802.71,-77.08 1792.53,-74.17 1798.67,-82.8 1802.71,-77.08"/>
</a>
</g>
</g>
<!-- Node32&#45;&gt;Node7 -->
<g id="edge42_Node000032_Node000007" class="edge">
<title>Node32&#45;&gt;Node7</title>
<g id="a_edge42_Node000032_Node000007"><a xlink:title=" ">
<path fill="none" stroke="#63b8ff" d="M1289.02,-109.98C1319.2,-101.05 1366.83,-86.94 1400.36,-77.02"/>
<polygon fill="#63b8ff" stroke="#63b8ff" points="1401.68,-80.28 1410.27,-74.08 1399.69,-73.57 1401.68,-80.28"/>
</a>
</g>
</g>
<!-- Node32&#45;&gt;Node9 -->
<g id="edge43_Node000032_Node000009" class="edge">
<title>Node32&#45;&gt;Node9</title>
<g id="a_edge43_Node000032_Node000009"><a xlink:title=" ">
<path fill="none" stroke="#63b8ff" d="M1251.91,-109.66C1234.71,-91.46 1195.13,-49.55 1173.34,-26.47"/>
<polygon fill="#63b8ff" stroke="#63b8ff" points="1175.84,-24.03 1166.43,-19.16 1170.76,-28.83 1175.84,-24.03"/>
</a>
</g>
</g>
<!-- Node35&#45;&gt;Node3 -->
<g id="edge48_Node000035_Node000003" class="edge">
<title>Node35&#45;&gt;Node3</title>
<g id="a_edge48_Node000035_Node000003"><a xlink:title=" ">
<path fill="none" stroke="#63b8ff" d="M2011.33,-164.98C2052.73,-155.73 2118.91,-140.93 2163.45,-130.97"/>
<polygon fill="#63b8ff" stroke="#63b8ff" points="2164.45,-134.33 2173.44,-128.73 2162.92,-127.5 2164.45,-134.33"/>
</a>
</g>
</g>
<!-- Node35&#45;&gt;Node28 -->
<g id="edge49_Node000035_Node000028" class="edge">
<title>Node35&#45;&gt;Node28</title>
<g id="a_edge49_Node000035_Node000028"><a xlink:title=" ">
<path fill="none" stroke="#63b8ff" d="M1954.3,-164.98C1935.23,-156.42 1905.6,-143.11 1883.71,-133.28"/>
<polygon fill="#63b8ff" stroke="#63b8ff" points="1885.12,-130.07 1874.56,-129.17 1882.25,-136.46 1885.12,-130.07"/>
</a>
</g>
</g>
<!-- Node35&#45;&gt;Node33 -->
<g id="edge53_Node000035_Node000033" class="edge">
<title>Node35&#45;&gt;Node33</title>
<g id="a_edge53_Node000035_Node000033"><a xlink:title=" ">
<path fill="none" stroke="#63b8ff" d="M1973.26,-164.75C1973.26,-157.8 1973.26,-147.85 1973.26,-139.13"/>
<polygon fill="#63b8ff" stroke="#63b8ff" points="1976.76,-139.09 1973.26,-129.09 1969.76,-139.09 1976.76,-139.09"/>
</a>
</g>
</g>
<!-- Node36 -->
<g id="Node000036" class="node">
<title>Node36</title>
<g id="a_Node000036"><a xlink:href="_mutex_8h.html" target="_top" xlink:title=" ">
<polygon fill="white" stroke="#666666" points="2155.76,-129 2042.76,-129 2042.76,-110 2155.76,-110 2155.76,-129"/>
<text text-anchor="middle" x="2099.26" y="-117" font-family="Helvetica,sans-Serif" font-size="10.00">Kit/System/Mutex.h</text>
</a>
</g>
</g>
<!-- Node35&#45;&gt;Node36 -->
<g id="edge50_Node000035_Node000036" class="edge">
<title>Node35&#45;&gt;Node36</title>
<g id="a_edge50_Node000035_Node000036"><a xlink:title=" ">
<path fill="none" stroke="#63b8ff" d="M1993.5,-164.98C2013.95,-156.38 2045.79,-142.99 2069.19,-133.15"/>
<polygon fill="#63b8ff" stroke="#63b8ff" points="2070.78,-136.27 2078.64,-129.17 2068.07,-129.82 2070.78,-136.27"/>
</a>
</g>
</g>
<!-- Node36&#45;&gt;Node26 -->
<g id="edge51_Node000036_Node000026" class="edge">
<title>Node36&#45;&gt;Node26</title>
<g id="a_edge51_Node000036_Node000026"><a xlink:title=" ">
<path fill="none" stroke="#63b8ff" d="M2110.05,-109.68C2119.54,-101.39 2133.08,-88.17 2141.26,-74 2149.27,-60.13 2154.18,-42.56 2157,-29.43"/>
<polygon fill="#63b8ff" stroke="#63b8ff" points="2160.51,-29.71 2158.97,-19.22 2153.64,-28.38 2160.51,-29.71"/>
</a>
</g>
</g>
<!-- Node37 -->
<g id="Node000037" class="node">
<title>Node37</title>
<g id="a_Node000037"><a xlink:title=" ">
<polygon fill="#e0e0e0" stroke="#999999" points="2131.76,-74 2066.76,-74 2066.76,-55 2131.76,-55 2131.76,-74"/>
<text text-anchor="middle" x="2099.26" y="-62" font-family="Helvetica,sans-Serif" font-size="10.00">kit_map.h</text>
</a>
</g>
</g>
<!-- Node36&#45;&gt;Node37 -->
<g id="edge52_Node000036_Node000037" class="edge">
<title>Node36&#45;&gt;Node37</title>
<g id="a_edge52_Node000036_Node000037"><a xlink:title=" ">
<path fill="none" stroke="#63b8ff" d="M2099.26,-109.75C2099.26,-102.8 2099.26,-92.85 2099.26,-84.13"/>
<polygon fill="#63b8ff" stroke="#63b8ff" points="2102.76,-84.09 2099.26,-74.09 2095.76,-84.09 2102.76,-84.09"/>
</a>
</g>
</g>
<!-- Node39 -->
<g id="Node000039" class="node">
<title>Node39</title>
<g id="a_Node000039"><a xlink:href="_d_list_base_8h.html" target="_top" xlink:title=" ">
<polygon fill="white" stroke="#666666" points="1512.76,-129 1371.76,-129 1371.76,-110 1512.76,-110 1512.76,-129"/>
<text text-anchor="middle" x="1442.26" y="-117" font-family="Helvetica,sans-Serif" font-size="10.00">Kit/Container/DListBase.h</text>
</a>
</g>
</g>
<!-- Node38&#45;&gt;Node39 -->
<g id="edge56_Node000038_Node000039" class="edge">
<title>Node38&#45;&gt;Node39</title>
<g id="a_edge56_Node000038_Node000039"><a xlink:title=" ">
<path fill="none" stroke="#63b8ff" d="M1442.26,-164.75C1442.26,-157.8 1442.26,-147.85 1442.26,-139.13"/>
<polygon fill="#63b8ff" stroke="#63b8ff" points="1445.76,-139.09 1442.26,-129.09 1438.76,-139.09 1445.76,-139.09"/>
</a>
</g>
</g>
<!-- Node39&#45;&gt;Node7 -->
<g id="edge57_Node000039_Node000007" class="edge">
<title>Node39&#45;&gt;Node7</title>
<g id="a_edge57_Node000039_Node000007"><a xlink:title=" ">
<path fill="none" stroke="#63b8ff" d="M1441.76,-109.75C1441.37,-102.8 1440.8,-92.85 1440.31,-84.13"/>
<polygon fill="#63b8ff" stroke="#63b8ff" points="1443.8,-83.88 1439.74,-74.09 1436.81,-84.27 1443.8,-83.88"/>
</a>
</g>
</g>
<!-- Node40&#45;&gt;Node9 -->
<g id="edge63_Node000040_Node000009" class="edge">
<title>Node40&#45;&gt;Node9</title>
<g id="a_edge63_Node000040_Node000009"><a xlink:title=" ">
<path fill="none" stroke="#63b8ff" d="M1253.75,-219.87C1241.36,-203.12 1214.11,-164.68 1197.26,-129 1181.21,-95.02 1169,-52.66 1162.8,-28.89"/>
<polygon fill="#63b8ff" stroke="#63b8ff" points="1166.16,-27.94 1160.31,-19.11 1159.38,-29.66 1166.16,-27.94"/>
</a>
</g>
</g>
<!-- Node40&#45;&gt;Node23 -->
<g id="edge62_Node000040_Node000023" class="edge">
<title>Node40&#45;&gt;Node23</title>
<g id="a_edge62_Node000040_Node000023"><a xlink:title=" ">
<path fill="none" stroke="#63b8ff" d="M1313.28,-220.16C1372.84,-210.79 1469.48,-195.59 1533.21,-185.57"/>
<polygon fill="#63b8ff" stroke="#63b8ff" points="1533.81,-189.02 1543.15,-184.01 1532.72,-182.11 1533.81,-189.02"/>
</a>
</g>
</g>
<!-- Node40&#45;&gt;Node32 -->
<g id="edge61_Node000040_Node000032" class="edge">
<title>Node40&#45;&gt;Node32</title>
<g id="a_edge61_Node000040_Node000032"><a xlink:title=" ">
<path fill="none" stroke="#63b8ff" d="M1260.26,-219.66C1260.26,-202.17 1260.26,-162.8 1260.26,-139.27"/>
<polygon fill="#63b8ff" stroke="#63b8ff" points="1263.76,-139.16 1260.26,-129.16 1256.76,-139.16 1263.76,-139.16"/>
</a>
</g>
</g>
</g>
</svg>
