<?xml version="1.0" encoding="UTF-8" standalone="no"?>
<!DOCTYPE svg PUBLIC "-//W3C//DTD SVG 1.1//EN"
 "http://www.w3.org/Graphics/SVG/1.1/DTD/svg11.dtd">
<!-- Generated by graphviz version 2.43.0 (0)
 -->
<!-- Title: Kit/Io/IEos.h Pages: 1 -->
<svg width="1545pt" height="280pt"
 viewBox="0.00 0.00 1544.50 280.00" xmlns="http://www.w3.org/2000/svg" xmlns:xlink="http://www.w3.org/1999/xlink">
<g id="graph0" class="graph" transform="scale(1 1) rotate(0) translate(4 276)">
<title>Kit/Io/IEos.h</title>
<!-- Node1 -->
<g id="Node000001" class="node">
<title>Node1</title>
<g id="a_Node000001"><a xlink:title=" ">
<polygon fill="#999999" stroke="#666666" points="854.5,-272 780.5,-272 780.5,-253 854.5,-253 854.5,-272"/>
<text text-anchor="middle" x="817.5" y="-260" font-family="Helvetica,sans-Serif" font-size="10.00">Kit/Io/IEos.h</text>
</a>
</g>
</g>
<!-- Node2 -->
<g id="Node000002" class="node">
<title>Node2</title>
<g id="a_Node000002"><a xlink:href="_i_input_8h.html" target="_top" xlink:title=" ">
<polygon fill="white" stroke="#666666" points="1162.5,-217 1080.5,-217 1080.5,-198 1162.5,-198 1162.5,-217"/>
<text text-anchor="middle" x="1121.5" y="-205" font-family="Helvetica,sans-Serif" font-size="10.00">Kit/Io/IInput.h</text>
</a>
</g>
</g>
<!-- Node1&#45;&gt;Node2 -->
<g id="edge1_Node000001_Node000002" class="edge">
<title>Node1&#45;&gt;Node2</title>
<g id="a_edge1_Node000001_Node000002"><a xlink:title=" ">
<path fill="none" stroke="#63b8ff" d="M864.95,-253.23C924.01,-242.93 1023.9,-225.52 1080.03,-215.73"/>
<polygon fill="#63b8ff" stroke="#63b8ff" points="864.03,-249.84 854.78,-255 865.23,-256.73 864.03,-249.84"/>
</a>
</g>
</g>
<!-- Node18 -->
<g id="Node000018" class="node">
<title>Node18</title>
<g id="a_Node000018"><a xlink:href="_i_output_8h.html" target="_top" xlink:title=" ">
<polygon fill="white" stroke="#666666" points="671.5,-217 581.5,-217 581.5,-198 671.5,-198 671.5,-217"/>
<text text-anchor="middle" x="626.5" y="-205" font-family="Helvetica,sans-Serif" font-size="10.00">Kit/Io/IOutput.h</text>
</a>
</g>
</g>
<!-- Node1&#45;&gt;Node18 -->
<g id="edge17_Node000001_Node000018" class="edge">
<title>Node1&#45;&gt;Node18</title>
<g id="a_edge17_Node000001_Node000018"><a xlink:title=" ">
<path fill="none" stroke="#63b8ff" d="M776.72,-250.18C741,-240.27 689.87,-226.08 657.43,-217.08"/>
<polygon fill="#63b8ff" stroke="#63b8ff" points="776.24,-253.68 786.81,-252.98 778.11,-246.94 776.24,-253.68"/>
</a>
</g>
</g>
<!-- Node3 -->
<g id="Node000003" class="node">
<title>Node3</title>
<g id="a_Node000003"><a xlink:href="_file_2_i_input_8h.html" target="_top" xlink:title=" ">
<polygon fill="white" stroke="#666666" points="1110.5,-156.5 1008.5,-156.5 1008.5,-137.5 1110.5,-137.5 1110.5,-156.5"/>
<text text-anchor="middle" x="1059.5" y="-144.5" font-family="Helvetica,sans-Serif" font-size="10.00">Kit/Io/File/IInput.h</text>
</a>
</g>
</g>
<!-- Node2&#45;&gt;Node3 -->
<g id="edge2_Node000002_Node000003" class="edge">
<title>Node2&#45;&gt;Node3</title>
<g id="a_edge2_Node000002_Node000003"><a xlink:title=" ">
<path fill="none" stroke="#63b8ff" d="M1104.98,-190.91C1093.35,-179.94 1078.22,-165.67 1068.69,-156.67"/>
<polygon fill="#63b8ff" stroke="#63b8ff" points="1102.68,-193.55 1112.35,-197.87 1107.48,-188.46 1102.68,-193.55"/>
</a>
</g>
</g>
<!-- Node8 -->
<g id="Node000008" class="node">
<title>Node8</title>
<g id="a_Node000008"><a xlink:href="_i_input_output_8h.html" target="_top" xlink:title=" ">
<polygon fill="white" stroke="#666666" points="990,-156.5 875,-156.5 875,-137.5 990,-137.5 990,-156.5"/>
<text text-anchor="middle" x="932.5" y="-144.5" font-family="Helvetica,sans-Serif" font-size="10.00">Kit/Io/IInputOutput.h</text>
</a>
</g>
</g>
<!-- Node2&#45;&gt;Node8 -->
<g id="edge7_Node000002_Node000008" class="edge">
<title>Node2&#45;&gt;Node8</title>
<g id="a_edge7_Node000002_Node000008"><a xlink:title=" ">
<path fill="none" stroke="#63b8ff" d="M1084.23,-194.96C1047.67,-183.65 992.78,-166.66 960.02,-156.52"/>
<polygon fill="#63b8ff" stroke="#63b8ff" points="1083.43,-198.38 1094.02,-197.99 1085.5,-191.69 1083.43,-198.38"/>
</a>
</g>
</g>
<!-- Node14 -->
<g id="Node000014" class="node">
<title>Node14</title>
<g id="a_Node000014"><a xlink:href="_line_reader_8h.html" target="_top" xlink:title=" ">
<polygon fill="white" stroke="#666666" points="1536.5,-156.5 1428.5,-156.5 1428.5,-137.5 1536.5,-137.5 1536.5,-156.5"/>
<text text-anchor="middle" x="1482.5" y="-144.5" font-family="Helvetica,sans-Serif" font-size="10.00">Kit/Io/LineReader.h</text>
</a>
</g>
</g>
<!-- Node2&#45;&gt;Node14 -->
<g id="edge13_Node000002_Node000014" class="edge">
<title>Node2&#45;&gt;Node14</title>
<g id="a_edge13_Node000002_Node000014"><a xlink:title=" ">
<path fill="none" stroke="#63b8ff" d="M1172.89,-199.95C1232.43,-192.09 1333.38,-177.98 1419.5,-162 1428.2,-160.39 1437.53,-158.43 1446.28,-156.51"/>
<polygon fill="#63b8ff" stroke="#63b8ff" points="1172.09,-196.52 1162.62,-201.29 1173,-203.46 1172.09,-196.52"/>
</a>
</g>
</g>
<!-- Node15 -->
<g id="Node000015" class="node">
<title>Node15</title>
<g id="a_Node000015"><a xlink:href="_input_delegate_8h.html" target="_top" xlink:title=" ">
<polygon fill="white" stroke="#666666" points="1410,-156.5 1259,-156.5 1259,-137.5 1410,-137.5 1410,-156.5"/>
<text text-anchor="middle" x="1334.5" y="-144.5" font-family="Helvetica,sans-Serif" font-size="10.00">Kit/Io/Stdio/InputDelegate.h</text>
</a>
</g>
</g>
<!-- Node2&#45;&gt;Node15 -->
<g id="edge14_Node000002_Node000015" class="edge">
<title>Node2&#45;&gt;Node15</title>
<g id="a_edge14_Node000002_Node000015"><a xlink:title=" ">
<path fill="none" stroke="#63b8ff" d="M1162.19,-195.32C1203.38,-184.01 1266.17,-166.77 1303.49,-156.52"/>
<polygon fill="#63b8ff" stroke="#63b8ff" points="1161.19,-191.97 1152.47,-197.99 1163.04,-198.72 1161.19,-191.97"/>
</a>
</g>
</g>
<!-- Node17 -->
<g id="Node000017" class="node">
<title>Node17</title>
<g id="a_Node000017"><a xlink:href="helpers_8h.html" target="_top" xlink:title="This file defines helper functions/interface for writing unit tests.">
<polygon fill="white" stroke="#666666" points="1240.5,-162 1128.5,-162 1128.5,-132 1240.5,-132 1240.5,-162"/>
<text text-anchor="start" x="1136.5" y="-150" font-family="Helvetica,sans-Serif" font-size="10.00">Kit/_support/testing</text>
<text text-anchor="middle" x="1184.5" y="-139" font-family="Helvetica,sans-Serif" font-size="10.00">/helpers.h</text>
</a>
</g>
</g>
<!-- Node2&#45;&gt;Node17 -->
<g id="edge16_Node000002_Node000017" class="edge">
<title>Node2&#45;&gt;Node17</title>
<g id="a_edge16_Node000002_Node000017"><a xlink:title=" ">
<path fill="none" stroke="#63b8ff" d="M1138.23,-190.97C1147.88,-182.01 1159.92,-170.82 1169.3,-162.11"/>
<polygon fill="#63b8ff" stroke="#63b8ff" points="1135.74,-188.5 1130.8,-197.87 1140.51,-193.63 1135.74,-188.5"/>
</a>
</g>
</g>
<!-- Node4 -->
<g id="Node000004" class="node">
<title>Node4</title>
<g id="a_Node000004"><a xlink:href="_file_2_i_input_output_8h.html" target="_top" xlink:title=" ">
<polygon fill="white" stroke="#666666" points="901,-90.5 766,-90.5 766,-71.5 901,-71.5 901,-90.5"/>
<text text-anchor="middle" x="833.5" y="-78.5" font-family="Helvetica,sans-Serif" font-size="10.00">Kit/Io/File/IInputOutput.h</text>
</a>
</g>
</g>
<!-- Node3&#45;&gt;Node4 -->
<g id="edge3_Node000003_Node000004" class="edge">
<title>Node3&#45;&gt;Node4</title>
<g id="a_edge3_Node000003_Node000004"><a xlink:title=" ">
<path fill="none" stroke="#63b8ff" d="M1019.4,-134.64C974.87,-122.03 904.01,-101.97 863.86,-90.6"/>
<polygon fill="#63b8ff" stroke="#63b8ff" points="1018.45,-138.01 1029.02,-137.37 1020.35,-131.28 1018.45,-138.01"/>
</a>
</g>
</g>
<!-- Node7 -->
<g id="Node000007" class="node">
<title>Node7</title>
<g id="a_Node000007"><a xlink:href="_input_8h.html" target="_top" xlink:title=" ">
<polygon fill="white" stroke="#666666" points="1329,-90.5 1230,-90.5 1230,-71.5 1329,-71.5 1329,-90.5"/>
<text text-anchor="middle" x="1279.5" y="-78.5" font-family="Helvetica,sans-Serif" font-size="10.00">Kit/Io/File/Input.h</text>
</a>
</g>
</g>
<!-- Node3&#45;&gt;Node7 -->
<g id="edge6_Node000003_Node000007" class="edge">
<title>Node3&#45;&gt;Node7</title>
<g id="a_edge6_Node000003_Node000007"><a xlink:title=" ">
<path fill="none" stroke="#63b8ff" d="M1098.81,-134.56C1142.17,-121.95 1210.95,-101.94 1249.95,-90.6"/>
<polygon fill="#63b8ff" stroke="#63b8ff" points="1097.79,-131.21 1089.17,-137.37 1099.75,-137.94 1097.79,-131.21"/>
</a>
</g>
</g>
<!-- Node5 -->
<g id="Node000005" class="node">
<title>Node5</title>
<g id="a_Node000005"><a xlink:href="_file_2_input_output_8h.html" target="_top" xlink:title=" ">
<polygon fill="white" stroke="#666666" points="893.5,-24.5 761.5,-24.5 761.5,-5.5 893.5,-5.5 893.5,-24.5"/>
<text text-anchor="middle" x="827.5" y="-12.5" font-family="Helvetica,sans-Serif" font-size="10.00">Kit/Io/File/InputOutput.h</text>
</a>
</g>
</g>
<!-- Node4&#45;&gt;Node5 -->
<g id="edge4_Node000004_Node000005" class="edge">
<title>Node4&#45;&gt;Node5</title>
<g id="a_edge4_Node000004_Node000005"><a xlink:title=" ">
<path fill="none" stroke="#63b8ff" d="M831.73,-61.08C830.61,-49.13 829.21,-34.22 828.33,-24.91"/>
<polygon fill="#63b8ff" stroke="#63b8ff" points="828.27,-61.74 832.69,-71.37 835.24,-61.09 828.27,-61.74"/>
</a>
</g>
</g>
<!-- Node6 -->
<g id="Node000006" class="node">
<title>Node6</title>
<g id="a_Node000006"><a xlink:href="_file_2_null_8h.html" target="_top" xlink:title=" ">
<polygon fill="white" stroke="#666666" points="743.5,-24.5 649.5,-24.5 649.5,-5.5 743.5,-5.5 743.5,-24.5"/>
<text text-anchor="middle" x="696.5" y="-12.5" font-family="Helvetica,sans-Serif" font-size="10.00">Kit/Io/File/Null.h</text>
</a>
</g>
</g>
<!-- Node4&#45;&gt;Node6 -->
<g id="edge5_Node000004_Node000006" class="edge">
<title>Node4&#45;&gt;Node6</title>
<g id="a_edge5_Node000004_Node000006"><a xlink:title=" ">
<path fill="none" stroke="#63b8ff" d="M805.73,-67.03C778.73,-54.42 738.48,-35.61 715.12,-24.7"/>
<polygon fill="#63b8ff" stroke="#63b8ff" points="804.48,-70.31 815.02,-71.37 807.44,-63.97 804.48,-70.31"/>
</a>
</g>
</g>
<!-- Node9 -->
<g id="Node000009" class="node">
<title>Node9</title>
<g id="a_Node000009"><a xlink:href="_null_8h.html" target="_top" xlink:title=" ">
<polygon fill="white" stroke="#666666" points="747.5,-90.5 673.5,-90.5 673.5,-71.5 747.5,-71.5 747.5,-90.5"/>
<text text-anchor="middle" x="710.5" y="-78.5" font-family="Helvetica,sans-Serif" font-size="10.00">Kit/Io/Null.h</text>
</a>
</g>
</g>
<!-- Node8&#45;&gt;Node9 -->
<g id="edge8_Node000008_Node000009" class="edge">
<title>Node8&#45;&gt;Node9</title>
<g id="a_edge8_Node000008_Node000009"><a xlink:title=" ">
<path fill="none" stroke="#63b8ff" d="M892.15,-134.61C856.65,-124.56 803.6,-109.45 757.5,-96 751.62,-94.28 745.32,-92.42 739.32,-90.64"/>
<polygon fill="#63b8ff" stroke="#63b8ff" points="891.55,-138.08 902.12,-137.43 893.45,-131.34 891.55,-138.08"/>
</a>
</g>
</g>
<!-- Node10 -->
<g id="Node000010" class="node">
<title>Node10</title>
<g id="a_Node000010"><a xlink:href="_serial_2_s_t_2_m32_f4_2_input_output_8h.html" target="_top" xlink:title=" ">
<polygon fill="white" stroke="#666666" points="1043.5,-96 919.5,-96 919.5,-66 1043.5,-66 1043.5,-96"/>
<text text-anchor="start" x="927.5" y="-84" font-family="Helvetica,sans-Serif" font-size="10.00">Kit/Io/Serial/ST/M32F4</text>
<text text-anchor="middle" x="981.5" y="-73" font-family="Helvetica,sans-Serif" font-size="10.00">/InputOutput.h</text>
</a>
</g>
</g>
<!-- Node8&#45;&gt;Node10 -->
<g id="edge9_Node000008_Node000010" class="edge">
<title>Node8&#45;&gt;Node10</title>
<g id="a_edge9_Node000008_Node000010"><a xlink:title=" ">
<path fill="none" stroke="#63b8ff" d="M945.34,-129.24C953.16,-119.02 963.05,-106.1 970.51,-96.36"/>
<polygon fill="#63b8ff" stroke="#63b8ff" points="942.41,-127.3 939.11,-137.37 947.97,-131.56 942.41,-127.3"/>
</a>
</g>
</g>
<!-- Node12 -->
<g id="Node000012" class="node">
<title>Node12</title>
<g id="a_Node000012"><a xlink:href="_socket_2_i_input_output_8h.html" target="_top" xlink:title=" ">
<polygon fill="white" stroke="#666666" points="1211.5,-90.5 1061.5,-90.5 1061.5,-71.5 1211.5,-71.5 1211.5,-90.5"/>
<text text-anchor="middle" x="1136.5" y="-78.5" font-family="Helvetica,sans-Serif" font-size="10.00">Kit/Io/Socket/IInputOutput.h</text>
</a>
</g>
</g>
<!-- Node8&#45;&gt;Node12 -->
<g id="edge11_Node000008_Node000012" class="edge">
<title>Node8&#45;&gt;Node12</title>
<g id="a_edge11_Node000008_Node000012"><a xlink:title=" ">
<path fill="none" stroke="#63b8ff" d="M969.72,-134.32C1009.96,-121.7 1073.16,-101.87 1109.1,-90.6"/>
<polygon fill="#63b8ff" stroke="#63b8ff" points="968.51,-131.04 960.01,-137.37 970.6,-137.71 968.51,-131.04"/>
</a>
</g>
</g>
<!-- Node11 -->
<g id="Node000011" class="node">
<title>Node11</title>
<g id="a_Node000011"><a xlink:href="stdio_8h.html" target="_top" xlink:title="By default the BSP provides a KIT IO Stream for application&#39; console.">
<polygon fill="white" stroke="#666666" points="1063.5,-30 911.5,-30 911.5,0 1063.5,0 1063.5,-30"/>
<text text-anchor="start" x="919.5" y="-18" font-family="Helvetica,sans-Serif" font-size="10.00">Kit/Bsp/ST/NUCLEO&#45;F413ZH</text>
<text text-anchor="middle" x="987.5" y="-7" font-family="Helvetica,sans-Serif" font-size="10.00">/stdio.h</text>
</a>
</g>
</g>
<!-- Node10&#45;&gt;Node11 -->
<g id="edge10_Node000010_Node000011" class="edge">
<title>Node10&#45;&gt;Node11</title>
<g id="a_edge10_Node000010_Node000011"><a xlink:title=" ">
<path fill="none" stroke="#63b8ff" d="M983.77,-55.83C984.58,-47.17 985.47,-37.7 986.17,-30.16"/>
<polygon fill="#63b8ff" stroke="#63b8ff" points="980.28,-55.51 982.83,-65.8 987.25,-56.17 980.28,-55.51"/>
</a>
</g>
</g>
<!-- Node13 -->
<g id="Node000013" class="node">
<title>Node13</title>
<g id="a_Node000013"><a xlink:href="_socket_2_input_output_8h.html" target="_top" xlink:title=" ">
<polygon fill="white" stroke="#666666" points="1229,-24.5 1082,-24.5 1082,-5.5 1229,-5.5 1229,-24.5"/>
<text text-anchor="middle" x="1155.5" y="-12.5" font-family="Helvetica,sans-Serif" font-size="10.00">Kit/Io/Socket/InputOutput.h</text>
</a>
</g>
</g>
<!-- Node12&#45;&gt;Node13 -->
<g id="edge12_Node000012_Node000013" class="edge">
<title>Node12&#45;&gt;Node13</title>
<g id="a_edge12_Node000012_Node000013"><a xlink:title=" ">
<path fill="none" stroke="#63b8ff" d="M1142.01,-61.45C1145.57,-49.43 1150.06,-34.32 1152.86,-24.91"/>
<polygon fill="#63b8ff" stroke="#63b8ff" points="1138.55,-60.79 1139.06,-71.37 1145.26,-62.78 1138.55,-60.79"/>
</a>
</g>
</g>
<!-- Node16 -->
<g id="Node000016" class="node">
<title>Node16</title>
<g id="a_Node000016"><a xlink:href="_std_in_8h.html" target="_top" xlink:title=" ">
<polygon fill="white" stroke="#666666" points="1454,-90.5 1347,-90.5 1347,-71.5 1454,-71.5 1454,-90.5"/>
<text text-anchor="middle" x="1400.5" y="-78.5" font-family="Helvetica,sans-Serif" font-size="10.00">Kit/Io/Stdio/StdIn.h</text>
</a>
</g>
</g>
<!-- Node15&#45;&gt;Node16 -->
<g id="edge15_Node000015_Node000016" class="edge">
<title>Node15&#45;&gt;Node16</title>
<g id="a_edge15_Node000015_Node000016"><a xlink:title=" ">
<path fill="none" stroke="#63b8ff" d="M1350.66,-130.33C1363.44,-117.94 1380.82,-101.09 1391.32,-90.91"/>
<polygon fill="#63b8ff" stroke="#63b8ff" points="1348.14,-127.89 1343.4,-137.37 1353.02,-132.92 1348.14,-127.89"/>
</a>
</g>
</g>
<!-- Node18&#45;&gt;Node8 -->
<g id="edge21_Node000018_Node000008" class="edge">
<title>Node18&#45;&gt;Node8</title>
<g id="a_edge21_Node000018_Node000008"><a xlink:title=" ">
<path fill="none" stroke="#63b8ff" d="M680.88,-196.1C739.92,-184.82 833.08,-167.01 887.95,-156.52"/>
<polygon fill="#63b8ff" stroke="#63b8ff" points="680.16,-192.68 671,-197.99 681.47,-199.55 680.16,-192.68"/>
</a>
</g>
</g>
<!-- Node19 -->
<g id="Node000019" class="node">
<title>Node19</title>
<g id="a_Node000019"><a xlink:href="_file_2_i_output_8h.html" target="_top" xlink:title=" ">
<polygon fill="white" stroke="#666666" points="806.5,-156.5 696.5,-156.5 696.5,-137.5 806.5,-137.5 806.5,-156.5"/>
<text text-anchor="middle" x="751.5" y="-144.5" font-family="Helvetica,sans-Serif" font-size="10.00">Kit/Io/File/IOutput.h</text>
</a>
</g>
</g>
<!-- Node18&#45;&gt;Node19 -->
<g id="edge18_Node000018_Node000019" class="edge">
<title>Node18&#45;&gt;Node19</title>
<g id="a_edge18_Node000018_Node000019"><a xlink:title=" ">
<path fill="none" stroke="#63b8ff" d="M653.99,-193.63C678.1,-182.35 712.46,-166.27 733.3,-156.52"/>
<polygon fill="#63b8ff" stroke="#63b8ff" points="652.25,-190.58 644.68,-197.99 655.22,-196.92 652.25,-190.58"/>
</a>
</g>
</g>
<!-- Node21 -->
<g id="Node000021" class="node">
<title>Node21</title>
<g id="a_Node000021"><a xlink:href="_line_writer_8h.html" target="_top" xlink:title=" ">
<polygon fill="white" stroke="#666666" points="378.5,-156.5 274.5,-156.5 274.5,-137.5 378.5,-137.5 378.5,-156.5"/>
<text text-anchor="middle" x="326.5" y="-144.5" font-family="Helvetica,sans-Serif" font-size="10.00">Kit/Io/LineWriter.h</text>
</a>
</g>
</g>
<!-- Node18&#45;&gt;Node21 -->
<g id="edge22_Node000018_Node000021" class="edge">
<title>Node18&#45;&gt;Node21</title>
<g id="a_edge22_Node000018_Node000021"><a xlink:title=" ">
<path fill="none" stroke="#63b8ff" d="M571.28,-196.78C522.97,-188.13 450.96,-174.89 388.5,-162 380.29,-160.31 371.49,-158.38 363.17,-156.52"/>
<polygon fill="#63b8ff" stroke="#63b8ff" points="570.76,-200.24 581.22,-198.55 571.99,-193.35 570.76,-200.24"/>
</a>
</g>
</g>
<!-- Node22 -->
<g id="Node000022" class="node">
<title>Node22</title>
<g id="a_Node000022"><a xlink:href="_output_delegate_8h.html" target="_top" xlink:title=" ">
<polygon fill="white" stroke="#666666" points="556,-156.5 397,-156.5 397,-137.5 556,-137.5 556,-156.5"/>
<text text-anchor="middle" x="476.5" y="-144.5" font-family="Helvetica,sans-Serif" font-size="10.00">Kit/Io/Stdio/OutputDelegate.h</text>
</a>
</g>
</g>
<!-- Node18&#45;&gt;Node22 -->
<g id="edge23_Node000018_Node000022" class="edge">
<title>Node18&#45;&gt;Node22</title>
<g id="a_edge23_Node000018_Node000022"><a xlink:title=" ">
<path fill="none" stroke="#63b8ff" d="M595.04,-194.23C566.05,-182.92 523.79,-166.44 498.34,-156.52"/>
<polygon fill="#63b8ff" stroke="#63b8ff" points="594.1,-197.62 604.69,-197.99 596.64,-191.1 594.1,-197.62"/>
</a>
</g>
</g>
<!-- Node25 -->
<g id="Node000025" class="node">
<title>Node25</title>
<g id="a_Node000025"><a xlink:href="_tee_output_8h.html" target="_top" xlink:title=" ">
<polygon fill="white" stroke="#666666" points="678.5,-156.5 574.5,-156.5 574.5,-137.5 678.5,-137.5 678.5,-156.5"/>
<text text-anchor="middle" x="626.5" y="-144.5" font-family="Helvetica,sans-Serif" font-size="10.00">Kit/Io/TeeOutput.h</text>
</a>
</g>
</g>
<!-- Node18&#45;&gt;Node25 -->
<g id="edge26_Node000018_Node000025" class="edge">
<title>Node18&#45;&gt;Node25</title>
<g id="a_edge26_Node000018_Node000025"><a xlink:title=" ">
<path fill="none" stroke="#63b8ff" d="M626.5,-187.66C626.5,-177.24 626.5,-164.8 626.5,-156.67"/>
<polygon fill="#63b8ff" stroke="#63b8ff" points="623,-187.87 626.5,-197.87 630,-187.87 623,-187.87"/>
</a>
</g>
</g>
<!-- Node26 -->
<g id="Node000026" class="node">
<title>Node26</title>
<g id="a_Node000026"><a xlink:href="_trace_8h.html" target="_top" xlink:title="This file provides an interface for a &#39;printf&#39; tracing mechanism.">
<polygon fill="white" stroke="#666666" points="256,-156.5 149,-156.5 149,-137.5 256,-137.5 256,-156.5"/>
<text text-anchor="middle" x="202.5" y="-144.5" font-family="Helvetica,sans-Serif" font-size="10.00">Kit/System/Trace.h</text>
</a>
</g>
</g>
<!-- Node18&#45;&gt;Node26 -->
<g id="edge27_Node000018_Node000026" class="edge">
<title>Node18&#45;&gt;Node26</title>
<g id="a_edge27_Node000018_Node000026"><a xlink:title=" ">
<path fill="none" stroke="#63b8ff" d="M571.21,-201.35C500.16,-194.35 373.15,-180.55 265.5,-162 256.56,-160.46 246.97,-158.49 238.03,-156.52"/>
<polygon fill="#63b8ff" stroke="#63b8ff" points="570.98,-204.84 581.27,-202.33 571.66,-197.88 570.98,-204.84"/>
</a>
</g>
</g>
<!-- Node19&#45;&gt;Node4 -->
<g id="edge19_Node000019_Node000004" class="edge">
<title>Node19&#45;&gt;Node4</title>
<g id="a_edge19_Node000019_Node000004"><a xlink:title=" ">
<path fill="none" stroke="#63b8ff" d="M770.73,-130.99C786.79,-118.46 809.11,-101.04 822.35,-90.7"/>
<polygon fill="#63b8ff" stroke="#63b8ff" points="768.29,-128.46 762.56,-137.37 772.6,-133.98 768.29,-128.46"/>
</a>
</g>
</g>
<!-- Node20 -->
<g id="Node000020" class="node">
<title>Node20</title>
<g id="a_Node000020"><a xlink:href="_output_8h.html" target="_top" xlink:title=" ">
<polygon fill="white" stroke="#666666" points="655,-90.5 548,-90.5 548,-71.5 655,-71.5 655,-90.5"/>
<text text-anchor="middle" x="601.5" y="-78.5" font-family="Helvetica,sans-Serif" font-size="10.00">Kit/Io/File/Output.h</text>
</a>
</g>
</g>
<!-- Node19&#45;&gt;Node20 -->
<g id="edge20_Node000019_Node000020" class="edge">
<title>Node19&#45;&gt;Node20</title>
<g id="a_edge20_Node000019_Node000020"><a xlink:title=" ">
<path fill="none" stroke="#63b8ff" d="M721.87,-133.36C692.31,-120.75 647.69,-101.71 621.89,-90.7"/>
<polygon fill="#63b8ff" stroke="#63b8ff" points="720.7,-136.66 731.27,-137.37 723.45,-130.23 720.7,-136.66"/>
</a>
</g>
</g>
<!-- Node23 -->
<g id="Node000023" class="node">
<title>Node23</title>
<g id="a_Node000023"><a xlink:href="_std_err_8h.html" target="_top" xlink:title=" ">
<polygon fill="white" stroke="#666666" points="529.5,-90.5 419.5,-90.5 419.5,-71.5 529.5,-71.5 529.5,-90.5"/>
<text text-anchor="middle" x="474.5" y="-78.5" font-family="Helvetica,sans-Serif" font-size="10.00">Kit/Io/Stdio/StdErr.h</text>
</a>
</g>
</g>
<!-- Node22&#45;&gt;Node23 -->
<g id="edge24_Node000022_Node000023" class="edge">
<title>Node22&#45;&gt;Node23</title>
<g id="a_edge24_Node000022_Node000023"><a xlink:title=" ">
<path fill="none" stroke="#63b8ff" d="M475.91,-127.08C475.54,-115.13 475.07,-100.22 474.78,-90.91"/>
<polygon fill="#63b8ff" stroke="#63b8ff" points="472.42,-127.48 476.23,-137.37 479.42,-127.26 472.42,-127.48"/>
</a>
</g>
</g>
<!-- Node24 -->
<g id="Node000024" class="node">
<title>Node24</title>
<g id="a_Node000024"><a xlink:href="_std_out_8h.html" target="_top" xlink:title=" ">
<polygon fill="white" stroke="#666666" points="401,-90.5 286,-90.5 286,-71.5 401,-71.5 401,-90.5"/>
<text text-anchor="middle" x="343.5" y="-78.5" font-family="Helvetica,sans-Serif" font-size="10.00">Kit/Io/Stdio/StdOut.h</text>
</a>
</g>
</g>
<!-- Node22&#45;&gt;Node24 -->
<g id="edge25_Node000022_Node000024" class="edge">
<title>Node22&#45;&gt;Node24</title>
<g id="a_edge25_Node000022_Node000024"><a xlink:title=" ">
<path fill="none" stroke="#63b8ff" d="M449.54,-133.03C423.33,-120.42 384.25,-101.61 361.58,-90.7"/>
<polygon fill="#63b8ff" stroke="#63b8ff" points="448.03,-136.19 458.56,-137.37 451.07,-129.88 448.03,-136.19"/>
</a>
</g>
</g>
<!-- Node27 -->
<g id="Node000027" class="node">
<title>Node27</title>
<g id="a_Node000027"><a xlink:href="_framework_2_log_8h.html" target="_top" xlink:title="This file declares the public facing Logging interface for generating log entries.">
<polygon fill="white" stroke="#666666" points="129,-96 0,-96 0,-66 129,-66 129,-96"/>
<text text-anchor="start" x="8" y="-84" font-family="Helvetica,sans-Serif" font-size="10.00">Kit/Logging/Framework</text>
<text text-anchor="middle" x="64.5" y="-73" font-family="Helvetica,sans-Serif" font-size="10.00">/Log.h</text>
</a>
</g>
</g>
<!-- Node26&#45;&gt;Node27 -->
<g id="edge28_Node000026_Node000027" class="edge">
<title>Node26&#45;&gt;Node27</title>
<g id="a_edge28_Node000026_Node000027"><a xlink:title=" ">
<path fill="none" stroke="#63b8ff" d="M174.63,-133.08C151.53,-122.36 118.73,-107.15 94.94,-96.12"/>
<polygon fill="#63b8ff" stroke="#63b8ff" points="173.34,-136.34 183.89,-137.37 176.29,-129.99 173.34,-136.34"/>
</a>
</g>
</g>
<!-- Node29 -->
<g id="Node000029" class="node">
<title>Node29</title>
<g id="a_Node000029"><a xlink:href="_private_8h.html" target="_top" xlink:title="This file contains a collection of classes, interfaces, etc.">
<polygon fill="white" stroke="#666666" points="263.5,-90.5 147.5,-90.5 147.5,-71.5 263.5,-71.5 263.5,-90.5"/>
<text text-anchor="middle" x="205.5" y="-78.5" font-family="Helvetica,sans-Serif" font-size="10.00">Kit/System/Private.h</text>
</a>
</g>
</g>
<!-- Node26&#45;&gt;Node29 -->
<g id="edge30_Node000026_Node000029" class="edge">
<title>Node26&#45;&gt;Node29</title>
<g id="a_edge30_Node000026_Node000029"><a xlink:title=" ">
<path fill="none" stroke="#63b8ff" d="M203.39,-127.08C203.95,-115.13 204.65,-100.22 205.08,-90.91"/>
<polygon fill="#63b8ff" stroke="#63b8ff" points="199.88,-127.22 202.9,-137.37 206.87,-127.54 199.88,-127.22"/>
</a>
</g>
</g>
<!-- Node28 -->
<g id="Node000028" class="node">
<title>Node28</title>
<g id="a_Node000028"><a xlink:href="_pkg_2_log_8h.html" target="_top" xlink:title="This file declares the Logging functions available to the KIT Logging Domain.">
<polygon fill="white" stroke="#666666" points="125.5,-24.5 3.5,-24.5 3.5,-5.5 125.5,-5.5 125.5,-24.5"/>
<text text-anchor="middle" x="64.5" y="-12.5" font-family="Helvetica,sans-Serif" font-size="10.00">Kit/Logging/Pkg/Log.h</text>
</a>
</g>
</g>
<!-- Node27&#45;&gt;Node28 -->
<g id="edge29_Node000027_Node000028" class="edge">
<title>Node27&#45;&gt;Node28</title>
<g id="a_edge29_Node000027_Node000028"><a xlink:title=" ">
<path fill="none" stroke="#63b8ff" d="M64.5,-55.6C64.5,-44.8 64.5,-32.78 64.5,-24.84"/>
<polygon fill="#63b8ff" stroke="#63b8ff" points="61,-55.8 64.5,-65.8 68,-55.8 61,-55.8"/>
</a>
</g>
</g>
</g>
</svg>
