<?xml version="1.0" encoding="UTF-8" standalone="no"?>
<!DOCTYPE svg PUBLIC "-//W3C//DTD SVG 1.1//EN"
 "http://www.w3.org/Graphics/SVG/1.1/DTD/svg11.dtd">
<!-- Generated by graphviz version 2.43.0 (0)
 -->
<!-- Title: Kit/System/IEventFlag.h Pages: 1 -->
<svg width="363pt" height="214pt"
 viewBox="0.00 0.00 362.50 214.00" xmlns="http://www.w3.org/2000/svg" xmlns:xlink="http://www.w3.org/1999/xlink">
<g id="graph0" class="graph" transform="scale(1 1) rotate(0) translate(4 210)">
<title>Kit/System/IEventFlag.h</title>
<!-- Node1 -->
<g id="Node000001" class="node">
<title>Node1</title>
<g id="a_Node000001"><a xlink:title=" ">
<polygon fill="#999999" stroke="#666666" points="354.5,-206 220.5,-206 220.5,-187 354.5,-187 354.5,-206"/>
<text text-anchor="middle" x="287.5" y="-194" font-family="Helvetica,sans-Serif" font-size="10.00">Kit/System/IEventFlag.h</text>
</a>
</g>
</g>
<!-- Node2 -->
<g id="Node000002" class="node">
<title>Node2</title>
<g id="a_Node000002"><a xlink:href="_event_loop_8h.html" target="_top" xlink:title=" ">
<polygon fill="white" stroke="#666666" points="304,-151 171,-151 171,-132 304,-132 304,-151"/>
<text text-anchor="middle" x="237.5" y="-139" font-family="Helvetica,sans-Serif" font-size="10.00">Kit/System/EventLoop.h</text>
</a>
</g>
</g>
<!-- Node1&#45;&gt;Node2 -->
<g id="edge1_Node000001_Node000002" class="edge">
<title>Node1&#45;&gt;Node2</title>
<g id="a_edge1_Node000001_Node000002"><a xlink:title=" ">
<path fill="none" stroke="#63b8ff" d="M272.16,-179.24C263.4,-169.95 252.76,-158.68 245.6,-151.09"/>
<polygon fill="#63b8ff" stroke="#63b8ff" points="269.84,-181.88 279.24,-186.75 274.93,-177.07 269.84,-181.88"/>
</a>
</g>
</g>
<!-- Node5 -->
<g id="Node000005" class="node">
<title>Node5</title>
<g id="a_Node000005"><a xlink:href="helpers_8h.html" target="_top" xlink:title="This file defines helper functions/interface for writing unit tests.">
<polygon fill="white" stroke="#666666" points="340.5,-30 228.5,-30 228.5,0 340.5,0 340.5,-30"/>
<text text-anchor="start" x="236.5" y="-18" font-family="Helvetica,sans-Serif" font-size="10.00">Kit/_support/testing</text>
<text text-anchor="middle" x="284.5" y="-7" font-family="Helvetica,sans-Serif" font-size="10.00">/helpers.h</text>
</a>
</g>
</g>
<!-- Node1&#45;&gt;Node5 -->
<g id="edge6_Node000001_Node000005" class="edge">
<title>Node1&#45;&gt;Node5</title>
<g id="a_edge6_Node000001_Node000005"><a xlink:title=" ">
<path fill="none" stroke="#63b8ff" d="M299.33,-178.11C304.18,-170.18 309.38,-160.45 312.5,-151 324.4,-115.01 330.9,-102.15 319.5,-66 315.23,-52.46 305.84,-39.39 297.86,-30.02"/>
<polygon fill="#63b8ff" stroke="#63b8ff" points="296.23,-176.47 293.75,-186.77 302.11,-180.26 296.23,-176.47"/>
</a>
</g>
</g>
<!-- Node3 -->
<g id="Node000003" class="node">
<title>Node3</title>
<g id="a_Node000003"><a xlink:href="src_2_kit_2_event_queue_2_server_8h.html" target="_top" xlink:title=" ">
<polygon fill="white" stroke="#666666" points="146,-90.5 11,-90.5 11,-71.5 146,-71.5 146,-90.5"/>
<text text-anchor="middle" x="78.5" y="-78.5" font-family="Helvetica,sans-Serif" font-size="10.00">Kit/EventQueue/Server.h</text>
</a>
</g>
</g>
<!-- Node2&#45;&gt;Node3 -->
<g id="edge2_Node000002_Node000003" class="edge">
<title>Node2&#45;&gt;Node3</title>
<g id="a_edge2_Node000002_Node000003"><a xlink:title=" ">
<path fill="none" stroke="#63b8ff" d="M204.95,-128.52C174.21,-117.21 128.86,-100.53 101.65,-90.52"/>
<polygon fill="#63b8ff" stroke="#63b8ff" points="203.79,-131.83 214.38,-131.99 206.2,-125.26 203.79,-131.83"/>
</a>
</g>
</g>
<!-- Node6 -->
<g id="Node000006" class="node">
<title>Node6</title>
<g id="a_Node000006"><a xlink:href="_event_loop_with_p_scheduling_8h.html" target="_top" xlink:title=" ">
<polygon fill="white" stroke="#666666" points="310.5,-96 164.5,-96 164.5,-66 310.5,-66 310.5,-96"/>
<text text-anchor="start" x="172.5" y="-84" font-family="Helvetica,sans-Serif" font-size="10.00">Kit/System/EventLoopWith</text>
<text text-anchor="middle" x="237.5" y="-73" font-family="Helvetica,sans-Serif" font-size="10.00">PScheduling.h</text>
</a>
</g>
</g>
<!-- Node2&#45;&gt;Node6 -->
<g id="edge5_Node000002_Node000006" class="edge">
<title>Node2&#45;&gt;Node6</title>
<g id="a_edge5_Node000002_Node000006"><a xlink:title=" ">
<path fill="none" stroke="#63b8ff" d="M237.5,-121.65C237.5,-113.36 237.5,-103.78 237.5,-96.11"/>
<polygon fill="#63b8ff" stroke="#63b8ff" points="234,-121.87 237.5,-131.87 241,-121.87 234,-121.87"/>
</a>
</g>
</g>
<!-- Node4 -->
<g id="Node000004" class="node">
<title>Node4</title>
<g id="a_Node000004"><a xlink:href="_with_periodic_scheduling_8h.html" target="_top" xlink:title=" ">
<polygon fill="white" stroke="#666666" points="157,-30 0,-30 0,0 157,0 157,-30"/>
<text text-anchor="start" x="8" y="-18" font-family="Helvetica,sans-Serif" font-size="10.00">Kit/EventQueue/WithPeriodic</text>
<text text-anchor="middle" x="78.5" y="-7" font-family="Helvetica,sans-Serif" font-size="10.00">Scheduling.h</text>
</a>
</g>
</g>
<!-- Node3&#45;&gt;Node4 -->
<g id="edge3_Node000003_Node000004" class="edge">
<title>Node3&#45;&gt;Node4</title>
<g id="a_edge3_Node000003_Node000004"><a xlink:title=" ">
<path fill="none" stroke="#63b8ff" d="M78.5,-61.35C78.5,-51.47 78.5,-39.51 78.5,-30.36"/>
<polygon fill="#63b8ff" stroke="#63b8ff" points="75,-61.37 78.5,-71.37 82,-61.37 75,-61.37"/>
</a>
</g>
</g>
<!-- Node3&#45;&gt;Node5 -->
<g id="edge4_Node000003_Node000005" class="edge">
<title>Node3&#45;&gt;Node5</title>
<g id="a_edge4_Node000003_Node000005"><a xlink:title=" ">
<path fill="none" stroke="#63b8ff" d="M116.01,-68.35C150.63,-57.59 202.13,-41.59 239.07,-30.12"/>
<polygon fill="#63b8ff" stroke="#63b8ff" points="114.79,-65.06 106.28,-71.37 116.87,-71.74 114.79,-65.06"/>
</a>
</g>
</g>
</g>
</svg>
