<?xml version="1.0" encoding="UTF-8" standalone="no"?>
<!DOCTYPE svg PUBLIC "-//W3C//DTD SVG 1.1//EN"
 "http://www.w3.org/Graphics/SVG/1.1/DTD/svg11.dtd">
<!-- Generated by graphviz version 2.43.0 (0)
 -->
<!-- Title: Kit/Framing/IEncoder.h Pages: 1 -->
<svg width="152pt" height="137pt"
 viewBox="0.00 0.00 152.00 137.00" xmlns="http://www.w3.org/2000/svg" xmlns:xlink="http://www.w3.org/1999/xlink">
<g id="graph0" class="graph" transform="scale(1 1) rotate(0) translate(4 133)">
<title>Kit/Framing/IEncoder.h</title>
<!-- Node1 -->
<g id="Node000001" class="node">
<title>Node1</title>
<g id="a_Node000001"><a xlink:title=" ">
<polygon fill="#999999" stroke="#666666" points="139.5,-129 13.5,-129 13.5,-110 139.5,-110 139.5,-129"/>
<text text-anchor="middle" x="76.5" y="-117" font-family="Helvetica,sans-Serif" font-size="10.00">Kit/Framing/IEncoder.h</text>
</a>
</g>
</g>
<!-- Node2 -->
<g id="Node000002" class="node">
<title>Node2</title>
<g id="a_Node000002"><a xlink:href="_s_size_8h.html" target="_top" xlink:title=" ">
<polygon fill="white" stroke="#666666" points="123.5,-74 29.5,-74 29.5,-55 123.5,-55 123.5,-74"/>
<text text-anchor="middle" x="76.5" y="-62" font-family="Helvetica,sans-Serif" font-size="10.00">Kit/Type/SSize.h</text>
</a>
</g>
</g>
<!-- Node1&#45;&gt;Node2 -->
<g id="edge1_Node000001_Node000002" class="edge">
<title>Node1&#45;&gt;Node2</title>
<g id="a_edge1_Node000001_Node000002"><a xlink:title=" ">
<path fill="none" stroke="#63b8ff" d="M76.5,-109.75C76.5,-102.8 76.5,-92.85 76.5,-84.13"/>
<polygon fill="#63b8ff" stroke="#63b8ff" points="80,-84.09 76.5,-74.09 73,-84.09 80,-84.09"/>
</a>
</g>
</g>
<!-- Node3 -->
<g id="Node000003" class="node">
<title>Node3</title>
<g id="a_Node000003"><a xlink:title=" ">
<polygon fill="#e0e0e0" stroke="#999999" points="73,-19 0,-19 0,0 73,0 73,-19"/>
<text text-anchor="middle" x="36.5" y="-7" font-family="Helvetica,sans-Serif" font-size="10.00">kit_config.h</text>
</a>
</g>
</g>
<!-- Node2&#45;&gt;Node3 -->
<g id="edge2_Node000002_Node000003" class="edge">
<title>Node2&#45;&gt;Node3</title>
<g id="a_edge2_Node000002_Node000003"><a xlink:title=" ">
<path fill="none" stroke="#63b8ff" d="M69.89,-54.75C64.24,-47.26 55.96,-36.28 49.05,-27.13"/>
<polygon fill="#63b8ff" stroke="#63b8ff" points="51.8,-24.96 42.98,-19.09 46.21,-29.18 51.8,-24.96"/>
</a>
</g>
</g>
<!-- Node4 -->
<g id="Node000004" class="node">
<title>Node4</title>
<g id="a_Node000004"><a xlink:title=" ">
<polygon fill="#e0e0e0" stroke="#999999" points="144,-19 91,-19 91,0 144,0 144,-19"/>
<text text-anchor="middle" x="117.5" y="-7" font-family="Helvetica,sans-Serif" font-size="10.00">stdint.h</text>
</a>
</g>
</g>
<!-- Node2&#45;&gt;Node4 -->
<g id="edge3_Node000002_Node000004" class="edge">
<title>Node2&#45;&gt;Node4</title>
<g id="a_edge3_Node000002_Node000004"><a xlink:title=" ">
<path fill="none" stroke="#63b8ff" d="M83.27,-54.75C89.06,-47.26 97.56,-36.28 104.64,-27.13"/>
<polygon fill="#63b8ff" stroke="#63b8ff" points="107.51,-29.14 110.86,-19.09 101.97,-24.86 107.51,-29.14"/>
</a>
</g>
</g>
</g>
</svg>
