<?xml version="1.0" encoding="UTF-8" standalone="no"?>
<!DOCTYPE svg PUBLIC "-//W3C//DTD SVG 1.1//EN"
 "http://www.w3.org/Graphics/SVG/1.1/DTD/svg11.dtd">
<!-- Generated by graphviz version 2.43.0 (0)
 -->
<!-- Title: Kit/Io/IEos.h Pages: 1 -->
<svg width="1420pt" height="269pt"
 viewBox="0.00 0.00 1420.00 269.00" xmlns="http://www.w3.org/2000/svg" xmlns:xlink="http://www.w3.org/1999/xlink">
<g id="graph0" class="graph" transform="scale(1 1) rotate(0) translate(4 265)">
<title>Kit/Io/IEos.h</title>
<!-- Node1 -->
<g id="Node000001" class="node">
<title>Node1</title>
<g id="a_Node000001"><a xlink:title=" ">
<polygon fill="#999999" stroke="#666666" points="729,-261 655,-261 655,-242 729,-242 729,-261"/>
<text text-anchor="middle" x="692" y="-249" font-family="Helvetica,sans-Serif" font-size="10.00">Kit/Io/IEos.h</text>
</a>
</g>
</g>
<!-- Node2 -->
<g id="Node000002" class="node">
<title>Node2</title>
<g id="a_Node000002"><a xlink:href="_i_input_8h.html" target="_top" xlink:title=" ">
<polygon fill="white" stroke="#666666" points="1016,-206 934,-206 934,-187 1016,-187 1016,-206"/>
<text text-anchor="middle" x="975" y="-194" font-family="Helvetica,sans-Serif" font-size="10.00">Kit/Io/IInput.h</text>
</a>
</g>
</g>
<!-- Node1&#45;&gt;Node2 -->
<g id="edge1_Node000001_Node000002" class="edge">
<title>Node1&#45;&gt;Node2</title>
<g id="a_edge1_Node000001_Node000002"><a xlink:title=" ">
<path fill="none" stroke="#63b8ff" d="M739.37,-241.63C793.83,-231.43 882.32,-214.86 933.96,-205.19"/>
<polygon fill="#63b8ff" stroke="#63b8ff" points="738.47,-238.24 729.29,-243.52 739.76,-245.12 738.47,-238.24"/>
</a>
</g>
</g>
<!-- Node18 -->
<g id="Node000018" class="node">
<title>Node18</title>
<g id="a_Node000018"><a xlink:href="_i_output_8h.html" target="_top" xlink:title=" ">
<polygon fill="white" stroke="#666666" points="530,-206 440,-206 440,-187 530,-187 530,-206"/>
<text text-anchor="middle" x="485" y="-194" font-family="Helvetica,sans-Serif" font-size="10.00">Kit/Io/IOutput.h</text>
</a>
</g>
</g>
<!-- Node1&#45;&gt;Node18 -->
<g id="edge17_Node000001_Node000018" class="edge">
<title>Node1&#45;&gt;Node18</title>
<g id="a_edge17_Node000001_Node000018"><a xlink:title=" ">
<path fill="none" stroke="#63b8ff" d="M648.79,-239.44C610.04,-229.52 553.97,-215.16 518.52,-206.08"/>
<polygon fill="#63b8ff" stroke="#63b8ff" points="648.19,-242.89 658.74,-241.98 649.92,-236.11 648.19,-242.89"/>
</a>
</g>
</g>
<!-- Node3 -->
<g id="Node000003" class="node">
<title>Node3</title>
<g id="a_Node000003"><a xlink:href="_file_2_i_input_8h.html" target="_top" xlink:title=" ">
<polygon fill="white" stroke="#666666" points="956,-151 854,-151 854,-132 956,-132 956,-151"/>
<text text-anchor="middle" x="905" y="-139" font-family="Helvetica,sans-Serif" font-size="10.00">Kit/Io/File/IInput.h</text>
</a>
</g>
</g>
<!-- Node2&#45;&gt;Node3 -->
<g id="edge2_Node000002_Node000003" class="edge">
<title>Node2&#45;&gt;Node3</title>
<g id="a_edge2_Node000002_Node000003"><a xlink:title=" ">
<path fill="none" stroke="#63b8ff" d="M955.69,-180.88C943.09,-171.34 927.07,-159.21 916.45,-151.17"/>
<polygon fill="#63b8ff" stroke="#63b8ff" points="953.67,-183.74 963.75,-186.98 957.89,-178.16 953.67,-183.74"/>
</a>
</g>
</g>
<!-- Node8 -->
<g id="Node000008" class="node">
<title>Node8</title>
<g id="a_Node000008"><a xlink:href="_i_input_output_8h.html" target="_top" xlink:title=" ">
<polygon fill="white" stroke="#666666" points="814.5,-151 699.5,-151 699.5,-132 814.5,-132 814.5,-151"/>
<text text-anchor="middle" x="757" y="-139" font-family="Helvetica,sans-Serif" font-size="10.00">Kit/Io/IInputOutput.h</text>
</a>
</g>
</g>
<!-- Node2&#45;&gt;Node8 -->
<g id="edge7_Node000002_Node000008" class="edge">
<title>Node2&#45;&gt;Node8</title>
<g id="a_edge7_Node000002_Node000008"><a xlink:title=" ">
<path fill="none" stroke="#63b8ff" d="M930.02,-184.56C889.19,-174.64 829.8,-160.2 792.3,-151.08"/>
<polygon fill="#63b8ff" stroke="#63b8ff" points="929.43,-188.02 939.97,-186.98 931.08,-181.22 929.43,-188.02"/>
</a>
</g>
</g>
<!-- Node14 -->
<g id="Node000014" class="node">
<title>Node14</title>
<g id="a_Node000014"><a xlink:href="_line_reader_8h.html" target="_top" xlink:title=" ">
<polygon fill="white" stroke="#666666" points="1412,-151 1304,-151 1304,-132 1412,-132 1412,-151"/>
<text text-anchor="middle" x="1358" y="-139" font-family="Helvetica,sans-Serif" font-size="10.00">Kit/Io/LineReader.h</text>
</a>
</g>
</g>
<!-- Node2&#45;&gt;Node14 -->
<g id="edge13_Node000002_Node000014" class="edge">
<title>Node2&#45;&gt;Node14</title>
<g id="a_edge13_Node000002_Node000014"><a xlink:title=" ">
<path fill="none" stroke="#63b8ff" d="M1026.6,-188.36C1099.03,-178.34 1230.23,-160.18 1303.96,-149.98"/>
<polygon fill="#63b8ff" stroke="#63b8ff" points="1025.78,-184.94 1016.35,-189.78 1026.74,-191.87 1025.78,-184.94"/>
</a>
</g>
</g>
<!-- Node15 -->
<g id="Node000015" class="node">
<title>Node15</title>
<g id="a_Node000015"><a xlink:href="_input_delegate_8h.html" target="_top" xlink:title=" ">
<polygon fill="white" stroke="#666666" points="1285.5,-151 1134.5,-151 1134.5,-132 1285.5,-132 1285.5,-151"/>
<text text-anchor="middle" x="1210" y="-139" font-family="Helvetica,sans-Serif" font-size="10.00">Kit/Io/Stdio/InputDelegate.h</text>
</a>
</g>
</g>
<!-- Node2&#45;&gt;Node15 -->
<g id="edge14_Node000002_Node000015" class="edge">
<title>Node2&#45;&gt;Node15</title>
<g id="a_edge14_Node000002_Node000015"><a xlink:title=" ">
<path fill="none" stroke="#63b8ff" d="M1022.65,-184.75C1066.69,-174.82 1131.27,-160.26 1171.95,-151.08"/>
<polygon fill="#63b8ff" stroke="#63b8ff" points="1021.74,-181.37 1012.76,-186.98 1023.28,-188.2 1021.74,-181.37"/>
</a>
</g>
</g>
<!-- Node17 -->
<g id="Node000017" class="node">
<title>Node17</title>
<g id="a_Node000017"><a xlink:href="helpers_8h.html" target="_top" xlink:title="This file defines helper functions/interface for writing unit tests.">
<polygon fill="white" stroke="#666666" points="1116,-151 974,-151 974,-132 1116,-132 1116,-151"/>
<text text-anchor="middle" x="1045" y="-139" font-family="Helvetica,sans-Serif" font-size="10.00">Kit/_testsupport/helpers.h</text>
</a>
</g>
</g>
<!-- Node2&#45;&gt;Node17 -->
<g id="edge16_Node000002_Node000017" class="edge">
<title>Node2&#45;&gt;Node17</title>
<g id="a_edge16_Node000002_Node000017"><a xlink:title=" ">
<path fill="none" stroke="#63b8ff" d="M994.31,-180.88C1006.91,-171.34 1022.93,-159.21 1033.55,-151.17"/>
<polygon fill="#63b8ff" stroke="#63b8ff" points="992.11,-178.16 986.25,-186.98 996.33,-183.74 992.11,-178.16"/>
</a>
</g>
</g>
<!-- Node4 -->
<g id="Node000004" class="node">
<title>Node4</title>
<g id="a_Node000004"><a xlink:href="_file_2_i_input_output_8h.html" target="_top" xlink:title=" ">
<polygon fill="white" stroke="#666666" points="972.5,-90.5 837.5,-90.5 837.5,-71.5 972.5,-71.5 972.5,-90.5"/>
<text text-anchor="middle" x="905" y="-78.5" font-family="Helvetica,sans-Serif" font-size="10.00">Kit/Io/File/IInputOutput.h</text>
</a>
</g>
</g>
<!-- Node3&#45;&gt;Node4 -->
<g id="edge3_Node000003_Node000004" class="edge">
<title>Node3&#45;&gt;Node4</title>
<g id="a_edge3_Node000003_Node000004"><a xlink:title=" ">
<path fill="none" stroke="#63b8ff" d="M905,-121.66C905,-111.24 905,-98.8 905,-90.67"/>
<polygon fill="#63b8ff" stroke="#63b8ff" points="901.5,-121.87 905,-131.87 908.5,-121.87 901.5,-121.87"/>
</a>
</g>
</g>
<!-- Node7 -->
<g id="Node000007" class="node">
<title>Node7</title>
<g id="a_Node000007"><a xlink:href="_input_8h.html" target="_top" xlink:title=" ">
<polygon fill="white" stroke="#666666" points="1182.5,-90.5 1083.5,-90.5 1083.5,-71.5 1182.5,-71.5 1182.5,-90.5"/>
<text text-anchor="middle" x="1133" y="-78.5" font-family="Helvetica,sans-Serif" font-size="10.00">Kit/Io/File/Input.h</text>
</a>
</g>
</g>
<!-- Node3&#45;&gt;Node7 -->
<g id="edge6_Node000003_Node000007" class="edge">
<title>Node3&#45;&gt;Node7</title>
<g id="a_edge6_Node000003_Node000007"><a xlink:title=" ">
<path fill="none" stroke="#63b8ff" d="M948,-129.47C992.08,-118.16 1059.69,-100.81 1099.81,-90.52"/>
<polygon fill="#63b8ff" stroke="#63b8ff" points="946.97,-126.12 938.15,-131.99 948.71,-132.9 946.97,-126.12"/>
</a>
</g>
</g>
<!-- Node5 -->
<g id="Node000005" class="node">
<title>Node5</title>
<g id="a_Node000005"><a xlink:href="_file_2_input_output_8h.html" target="_top" xlink:title=" ">
<polygon fill="white" stroke="#666666" points="977,-24.5 845,-24.5 845,-5.5 977,-5.5 977,-24.5"/>
<text text-anchor="middle" x="911" y="-12.5" font-family="Helvetica,sans-Serif" font-size="10.00">Kit/Io/File/InputOutput.h</text>
</a>
</g>
</g>
<!-- Node4&#45;&gt;Node5 -->
<g id="edge4_Node000004_Node000005" class="edge">
<title>Node4&#45;&gt;Node5</title>
<g id="a_edge4_Node000004_Node000005"><a xlink:title=" ">
<path fill="none" stroke="#63b8ff" d="M906.77,-61.08C907.89,-49.13 909.29,-34.22 910.17,-24.91"/>
<polygon fill="#63b8ff" stroke="#63b8ff" points="903.26,-61.09 905.81,-71.37 910.23,-61.74 903.26,-61.09"/>
</a>
</g>
</g>
<!-- Node6 -->
<g id="Node000006" class="node">
<title>Node6</title>
<g id="a_Node000006"><a xlink:href="_file_2_null_8h.html" target="_top" xlink:title=" ">
<polygon fill="white" stroke="#666666" points="1089,-24.5 995,-24.5 995,-5.5 1089,-5.5 1089,-24.5"/>
<text text-anchor="middle" x="1042" y="-12.5" font-family="Helvetica,sans-Serif" font-size="10.00">Kit/Io/File/Null.h</text>
</a>
</g>
</g>
<!-- Node4&#45;&gt;Node6 -->
<g id="edge5_Node000004_Node000006" class="edge">
<title>Node4&#45;&gt;Node6</title>
<g id="a_edge5_Node000004_Node000006"><a xlink:title=" ">
<path fill="none" stroke="#63b8ff" d="M932.77,-67.03C959.77,-54.42 1000.02,-35.61 1023.38,-24.7"/>
<polygon fill="#63b8ff" stroke="#63b8ff" points="931.06,-63.97 923.48,-71.37 934.02,-70.31 931.06,-63.97"/>
</a>
</g>
</g>
<!-- Node9 -->
<g id="Node000009" class="node">
<title>Node9</title>
<g id="a_Node000009"><a xlink:href="_null_8h.html" target="_top" xlink:title=" ">
<polygon fill="white" stroke="#666666" points="1065,-90.5 991,-90.5 991,-71.5 1065,-71.5 1065,-90.5"/>
<text text-anchor="middle" x="1028" y="-78.5" font-family="Helvetica,sans-Serif" font-size="10.00">Kit/Io/Null.h</text>
</a>
</g>
</g>
<!-- Node8&#45;&gt;Node9 -->
<g id="edge8_Node000008_Node000009" class="edge">
<title>Node8&#45;&gt;Node9</title>
<g id="a_edge8_Node000008_Node000009"><a xlink:title=" ">
<path fill="none" stroke="#63b8ff" d="M817.81,-130.18C863.29,-122.04 926.88,-109.8 982,-96 988.32,-94.42 995.05,-92.5 1001.37,-90.6"/>
<polygon fill="#63b8ff" stroke="#63b8ff" points="817.05,-126.76 807.81,-131.95 818.27,-133.65 817.05,-126.76"/>
</a>
</g>
</g>
<!-- Node10 -->
<g id="Node000010" class="node">
<title>Node10</title>
<g id="a_Node000010"><a xlink:href="_serial_2_s_t_2_m32_f4_2_input_output_8h.html" target="_top" xlink:title=" ">
<polygon fill="white" stroke="#666666" points="819,-96 695,-96 695,-66 819,-66 819,-96"/>
<text text-anchor="start" x="703" y="-84" font-family="Helvetica,sans-Serif" font-size="10.00">Kit/Io/Serial/ST/M32F4</text>
<text text-anchor="middle" x="757" y="-73" font-family="Helvetica,sans-Serif" font-size="10.00">/InputOutput.h</text>
</a>
</g>
</g>
<!-- Node8&#45;&gt;Node10 -->
<g id="edge9_Node000008_Node000010" class="edge">
<title>Node8&#45;&gt;Node10</title>
<g id="a_edge9_Node000008_Node000010"><a xlink:title=" ">
<path fill="none" stroke="#63b8ff" d="M757,-121.65C757,-113.36 757,-103.78 757,-96.11"/>
<polygon fill="#63b8ff" stroke="#63b8ff" points="753.5,-121.87 757,-131.87 760.5,-121.87 753.5,-121.87"/>
</a>
</g>
</g>
<!-- Node12 -->
<g id="Node000012" class="node">
<title>Node12</title>
<g id="a_Node000012"><a xlink:href="_socket_2_i_input_output_8h.html" target="_top" xlink:title=" ">
<polygon fill="white" stroke="#666666" points="677,-90.5 527,-90.5 527,-71.5 677,-71.5 677,-90.5"/>
<text text-anchor="middle" x="602" y="-78.5" font-family="Helvetica,sans-Serif" font-size="10.00">Kit/Io/Socket/IInputOutput.h</text>
</a>
</g>
</g>
<!-- Node8&#45;&gt;Node12 -->
<g id="edge11_Node000008_Node000012" class="edge">
<title>Node8&#45;&gt;Node12</title>
<g id="a_edge11_Node000008_Node000012"><a xlink:title=" ">
<path fill="none" stroke="#63b8ff" d="M724.88,-128.38C694.92,-117.07 650.98,-100.49 624.57,-90.52"/>
<polygon fill="#63b8ff" stroke="#63b8ff" points="723.87,-131.74 734.46,-131.99 726.34,-125.19 723.87,-131.74"/>
</a>
</g>
</g>
<!-- Node11 -->
<g id="Node000011" class="node">
<title>Node11</title>
<g id="a_Node000011"><a xlink:href="stdio_8h.html" target="_top" xlink:title="By default the BSP provides a KIT IO Stream for application&#39; console.">
<polygon fill="white" stroke="#666666" points="827,-30 675,-30 675,0 827,0 827,-30"/>
<text text-anchor="start" x="683" y="-18" font-family="Helvetica,sans-Serif" font-size="10.00">Kit/Bsp/ST/NUCLEO&#45;F413ZH</text>
<text text-anchor="middle" x="751" y="-7" font-family="Helvetica,sans-Serif" font-size="10.00">/stdio.h</text>
</a>
</g>
</g>
<!-- Node10&#45;&gt;Node11 -->
<g id="edge10_Node000010_Node000011" class="edge">
<title>Node10&#45;&gt;Node11</title>
<g id="a_edge10_Node000010_Node000011"><a xlink:title=" ">
<path fill="none" stroke="#63b8ff" d="M754.73,-55.83C753.92,-47.17 753.03,-37.7 752.33,-30.16"/>
<polygon fill="#63b8ff" stroke="#63b8ff" points="751.25,-56.17 755.67,-65.8 758.22,-55.51 751.25,-56.17"/>
</a>
</g>
</g>
<!-- Node13 -->
<g id="Node000013" class="node">
<title>Node13</title>
<g id="a_Node000013"><a xlink:href="_socket_2_input_output_8h.html" target="_top" xlink:title=" ">
<polygon fill="white" stroke="#666666" points="656.5,-24.5 509.5,-24.5 509.5,-5.5 656.5,-5.5 656.5,-24.5"/>
<text text-anchor="middle" x="583" y="-12.5" font-family="Helvetica,sans-Serif" font-size="10.00">Kit/Io/Socket/InputOutput.h</text>
</a>
</g>
</g>
<!-- Node12&#45;&gt;Node13 -->
<g id="edge12_Node000012_Node000013" class="edge">
<title>Node12&#45;&gt;Node13</title>
<g id="a_edge12_Node000012_Node000013"><a xlink:title=" ">
<path fill="none" stroke="#63b8ff" d="M596.49,-61.45C592.93,-49.43 588.44,-34.32 585.64,-24.91"/>
<polygon fill="#63b8ff" stroke="#63b8ff" points="593.24,-62.78 599.44,-71.37 599.95,-60.79 593.24,-62.78"/>
</a>
</g>
</g>
<!-- Node16 -->
<g id="Node000016" class="node">
<title>Node16</title>
<g id="a_Node000016"><a xlink:href="_std_in_8h.html" target="_top" xlink:title=" ">
<polygon fill="white" stroke="#666666" points="1307.5,-90.5 1200.5,-90.5 1200.5,-71.5 1307.5,-71.5 1307.5,-90.5"/>
<text text-anchor="middle" x="1254" y="-78.5" font-family="Helvetica,sans-Serif" font-size="10.00">Kit/Io/Stdio/StdIn.h</text>
</a>
</g>
</g>
<!-- Node15&#45;&gt;Node16 -->
<g id="edge15_Node000015_Node000016" class="edge">
<title>Node15&#45;&gt;Node16</title>
<g id="a_edge15_Node000015_Node000016"><a xlink:title=" ">
<path fill="none" stroke="#63b8ff" d="M1222.69,-123.63C1230.8,-112.85 1240.97,-99.32 1247.48,-90.67"/>
<polygon fill="#63b8ff" stroke="#63b8ff" points="1219.71,-121.77 1216.49,-131.87 1225.3,-125.98 1219.71,-121.77"/>
</a>
</g>
</g>
<!-- Node18&#45;&gt;Node8 -->
<g id="edge21_Node000018_Node000008" class="edge">
<title>Node18&#45;&gt;Node8</title>
<g id="a_edge21_Node000018_Node000008"><a xlink:title=" ">
<path fill="none" stroke="#63b8ff" d="M538.55,-185.07C589.55,-175.13 665.37,-160.35 712.96,-151.08"/>
<polygon fill="#63b8ff" stroke="#63b8ff" points="537.85,-181.64 528.7,-186.98 539.19,-188.51 537.85,-181.64"/>
</a>
</g>
</g>
<!-- Node19 -->
<g id="Node000019" class="node">
<title>Node19</title>
<g id="a_Node000019"><a xlink:href="_file_2_i_output_8h.html" target="_top" xlink:title=" ">
<polygon fill="white" stroke="#666666" points="540,-151 430,-151 430,-132 540,-132 540,-151"/>
<text text-anchor="middle" x="485" y="-139" font-family="Helvetica,sans-Serif" font-size="10.00">Kit/Io/File/IOutput.h</text>
</a>
</g>
</g>
<!-- Node18&#45;&gt;Node19 -->
<g id="edge18_Node000018_Node000019" class="edge">
<title>Node18&#45;&gt;Node19</title>
<g id="a_edge18_Node000018_Node000019"><a xlink:title=" ">
<path fill="none" stroke="#63b8ff" d="M485,-176.66C485,-167.93 485,-157.99 485,-151.09"/>
<polygon fill="#63b8ff" stroke="#63b8ff" points="481.5,-176.75 485,-186.75 488.5,-176.75 481.5,-176.75"/>
</a>
</g>
</g>
<!-- Node21 -->
<g id="Node000021" class="node">
<title>Node21</title>
<g id="a_Node000021"><a xlink:href="_line_writer_8h.html" target="_top" xlink:title=" ">
<polygon fill="white" stroke="#666666" points="234,-151 130,-151 130,-132 234,-132 234,-151"/>
<text text-anchor="middle" x="182" y="-139" font-family="Helvetica,sans-Serif" font-size="10.00">Kit/Io/LineWriter.h</text>
</a>
</g>
</g>
<!-- Node18&#45;&gt;Node21 -->
<g id="edge22_Node000018_Node000021" class="edge">
<title>Node18&#45;&gt;Node21</title>
<g id="a_edge22_Node000018_Node000021"><a xlink:title=" ">
<path fill="none" stroke="#63b8ff" d="M430.08,-185.89C373.23,-175.95 285.28,-160.57 230.8,-151.04"/>
<polygon fill="#63b8ff" stroke="#63b8ff" points="429.51,-189.35 439.97,-187.62 430.72,-182.45 429.51,-189.35"/>
</a>
</g>
</g>
<!-- Node22 -->
<g id="Node000022" class="node">
<title>Node22</title>
<g id="a_Node000022"><a xlink:href="_output_delegate_8h.html" target="_top" xlink:title=" ">
<polygon fill="white" stroke="#666666" points="411.5,-151 252.5,-151 252.5,-132 411.5,-132 411.5,-151"/>
<text text-anchor="middle" x="332" y="-139" font-family="Helvetica,sans-Serif" font-size="10.00">Kit/Io/Stdio/OutputDelegate.h</text>
</a>
</g>
</g>
<!-- Node18&#45;&gt;Node22 -->
<g id="edge23_Node000018_Node000022" class="edge">
<title>Node18&#45;&gt;Node22</title>
<g id="a_edge23_Node000018_Node000022"><a xlink:title=" ">
<path fill="none" stroke="#63b8ff" d="M450.85,-183.67C422.32,-173.79 382.31,-159.93 356.77,-151.08"/>
<polygon fill="#63b8ff" stroke="#63b8ff" points="449.82,-187.02 460.42,-186.98 452.11,-180.4 449.82,-187.02"/>
</a>
</g>
</g>
<!-- Node25 -->
<g id="Node000025" class="node">
<title>Node25</title>
<g id="a_Node000025"><a xlink:href="_tee_output_8h.html" target="_top" xlink:title=" ">
<polygon fill="white" stroke="#666666" points="662,-151 558,-151 558,-132 662,-132 662,-151"/>
<text text-anchor="middle" x="610" y="-139" font-family="Helvetica,sans-Serif" font-size="10.00">Kit/Io/TeeOutput.h</text>
</a>
</g>
</g>
<!-- Node18&#45;&gt;Node25 -->
<g id="edge26_Node000018_Node000025" class="edge">
<title>Node18&#45;&gt;Node25</title>
<g id="a_edge26_Node000018_Node000025"><a xlink:title=" ">
<path fill="none" stroke="#63b8ff" d="M514.41,-183.03C537.53,-173.23 569.13,-159.83 589.55,-151.17"/>
<polygon fill="#63b8ff" stroke="#63b8ff" points="512.92,-179.86 505.08,-186.98 515.66,-186.3 512.92,-179.86"/>
</a>
</g>
</g>
<!-- Node26 -->
<g id="Node000026" class="node">
<title>Node26</title>
<g id="a_Node000026"><a xlink:href="_trace_8h.html" target="_top" xlink:title="This file provides an interface for a &#39;printf&#39; tracing mechanism.">
<polygon fill="white" stroke="#666666" points="111.5,-151 4.5,-151 4.5,-132 111.5,-132 111.5,-151"/>
<text text-anchor="middle" x="58" y="-139" font-family="Helvetica,sans-Serif" font-size="10.00">Kit/System/Trace.h</text>
</a>
</g>
</g>
<!-- Node18&#45;&gt;Node26 -->
<g id="edge27_Node000018_Node000026" class="edge">
<title>Node18&#45;&gt;Node26</title>
<g id="a_edge27_Node000018_Node000026"><a xlink:title=" ">
<path fill="none" stroke="#63b8ff" d="M429.76,-188.96C358.41,-180.47 230.39,-165.07 121,-151 117.93,-150.61 114.79,-150.2 111.61,-149.78"/>
<polygon fill="#63b8ff" stroke="#63b8ff" points="429.52,-192.46 439.86,-190.17 430.35,-185.51 429.52,-192.46"/>
</a>
</g>
</g>
<!-- Node19&#45;&gt;Node4 -->
<g id="edge19_Node000019_Node000004" class="edge">
<title>Node19&#45;&gt;Node4</title>
<g id="a_edge19_Node000019_Node000004"><a xlink:title=" ">
<path fill="none" stroke="#63b8ff" d="M550.08,-131.87C674.63,-115.73 707.59,-114.7 828,-96 838.47,-94.37 849.71,-92.44 860.28,-90.53"/>
<polygon fill="#63b8ff" stroke="#63b8ff" points="549.62,-128.4 540.16,-133.16 550.52,-135.34 549.62,-128.4"/>
</a>
</g>
</g>
<!-- Node20 -->
<g id="Node000020" class="node">
<title>Node20</title>
<g id="a_Node000020"><a xlink:href="_output_8h.html" target="_top" xlink:title=" ">
<polygon fill="white" stroke="#666666" points="508.5,-90.5 401.5,-90.5 401.5,-71.5 508.5,-71.5 508.5,-90.5"/>
<text text-anchor="middle" x="455" y="-78.5" font-family="Helvetica,sans-Serif" font-size="10.00">Kit/Io/File/Output.h</text>
</a>
</g>
</g>
<!-- Node19&#45;&gt;Node20 -->
<g id="edge20_Node000019_Node000020" class="edge">
<title>Node19&#45;&gt;Node20</title>
<g id="a_edge20_Node000019_Node000020"><a xlink:title=" ">
<path fill="none" stroke="#63b8ff" d="M475.85,-122.65C470.41,-112.04 463.75,-99.06 459.44,-90.67"/>
<polygon fill="#63b8ff" stroke="#63b8ff" points="472.9,-124.57 480.57,-131.87 479.12,-121.37 472.9,-124.57"/>
</a>
</g>
</g>
<!-- Node23 -->
<g id="Node000023" class="node">
<title>Node23</title>
<g id="a_Node000023"><a xlink:href="_std_err_8h.html" target="_top" xlink:title=" ">
<polygon fill="white" stroke="#666666" points="250,-90.5 140,-90.5 140,-71.5 250,-71.5 250,-90.5"/>
<text text-anchor="middle" x="195" y="-78.5" font-family="Helvetica,sans-Serif" font-size="10.00">Kit/Io/Stdio/StdErr.h</text>
</a>
</g>
</g>
<!-- Node22&#45;&gt;Node23 -->
<g id="edge24_Node000022_Node000023" class="edge">
<title>Node22&#45;&gt;Node23</title>
<g id="a_edge24_Node000022_Node000023"><a xlink:title=" ">
<path fill="none" stroke="#63b8ff" d="M302.57,-127.93C276.12,-116.64 237.99,-100.36 214.95,-90.52"/>
<polygon fill="#63b8ff" stroke="#63b8ff" points="301.51,-131.29 312.08,-131.99 304.26,-124.85 301.51,-131.29"/>
</a>
</g>
</g>
<!-- Node24 -->
<g id="Node000024" class="node">
<title>Node24</title>
<g id="a_Node000024"><a xlink:href="_std_out_8h.html" target="_top" xlink:title=" ">
<polygon fill="white" stroke="#666666" points="383.5,-90.5 268.5,-90.5 268.5,-71.5 383.5,-71.5 383.5,-90.5"/>
<text text-anchor="middle" x="326" y="-78.5" font-family="Helvetica,sans-Serif" font-size="10.00">Kit/Io/Stdio/StdOut.h</text>
</a>
</g>
</g>
<!-- Node22&#45;&gt;Node24 -->
<g id="edge25_Node000022_Node000024" class="edge">
<title>Node22&#45;&gt;Node24</title>
<g id="a_edge25_Node000022_Node000024"><a xlink:title=" ">
<path fill="none" stroke="#63b8ff" d="M330.07,-121.66C329,-111.24 327.72,-98.8 326.89,-90.67"/>
<polygon fill="#63b8ff" stroke="#63b8ff" points="326.61,-122.28 331.11,-131.87 333.58,-121.56 326.61,-122.28"/>
</a>
</g>
</g>
<!-- Node27 -->
<g id="Node000027" class="node">
<title>Node27</title>
<g id="a_Node000027"><a xlink:href="_private_8h.html" target="_top" xlink:title="This file contains a collection of classes, interfaces, etc.">
<polygon fill="white" stroke="#666666" points="116,-90.5 0,-90.5 0,-71.5 116,-71.5 116,-90.5"/>
<text text-anchor="middle" x="58" y="-78.5" font-family="Helvetica,sans-Serif" font-size="10.00">Kit/System/Private.h</text>
</a>
</g>
</g>
<!-- Node26&#45;&gt;Node27 -->
<g id="edge28_Node000026_Node000027" class="edge">
<title>Node26&#45;&gt;Node27</title>
<g id="a_edge28_Node000026_Node000027"><a xlink:title=" ">
<path fill="none" stroke="#63b8ff" d="M58,-121.66C58,-111.24 58,-98.8 58,-90.67"/>
<polygon fill="#63b8ff" stroke="#63b8ff" points="54.5,-121.87 58,-131.87 61.5,-121.87 54.5,-121.87"/>
</a>
</g>
</g>
</g>
</svg>
