<?xml version="1.0" encoding="UTF-8" standalone="no"?>
<!DOCTYPE svg PUBLIC "-//W3C//DTD SVG 1.1//EN"
 "http://www.w3.org/Graphics/SVG/1.1/DTD/svg11.dtd">
<!-- Generated by graphviz version 2.43.0 (0)
 -->
<!-- Title: Kit/Persistence/Record/Journal/IEntry.h Pages: 1 -->
<svg width="768pt" height="236pt"
 viewBox="0.00 0.00 768.24 236.00" xmlns="http://www.w3.org/2000/svg" xmlns:xlink="http://www.w3.org/1999/xlink">
<g id="graph0" class="graph" transform="scale(1 1) rotate(0) translate(4 232)">
<title>Kit/Persistence/Record/Journal/IEntry.h</title>
<!-- Node1 -->
<g id="Node000001" class="node">
<title>Node1</title>
<g id="a_Node000001"><a xlink:title=" ">
<polygon fill="#999999" stroke="#666666" points="502,-228 376,-228 376,-198 502,-198 502,-228"/>
<text text-anchor="start" x="384" y="-216" font-family="Helvetica,sans-Serif" font-size="10.00">Kit/Persistence/Record</text>
<text text-anchor="middle" x="439" y="-205" font-family="Helvetica,sans-Serif" font-size="10.00">/Journal/IEntry.h</text>
</a>
</g>
</g>
<!-- Node2 -->
<g id="Node000002" class="node">
<title>Node2</title>
<g id="a_Node000002"><a xlink:href="_entry_record_8h.html" target="_top" xlink:title=" ">
<polygon fill="white" stroke="#666666" points="126,-162 0,-162 0,-132 126,-132 126,-162"/>
<text text-anchor="start" x="8" y="-150" font-family="Helvetica,sans-Serif" font-size="10.00">Kit/Persistence/Record</text>
<text text-anchor="middle" x="63" y="-139" font-family="Helvetica,sans-Serif" font-size="10.00">/Journal/EntryRecord.h</text>
</a>
</g>
</g>
<!-- Node1&#45;&gt;Node2 -->
<g id="edge1_Node000001_Node000002" class="edge">
<title>Node1&#45;&gt;Node2</title>
<g id="a_edge1_Node000001_Node000002"><a xlink:title=" ">
<path fill="none" stroke="#63b8ff" d="M365.72,-200.56C304.08,-190.79 213.67,-176.11 135,-162 132.12,-161.48 129.17,-160.95 126.2,-160.4"/>
<polygon fill="#63b8ff" stroke="#63b8ff" points="365.31,-204.04 375.74,-202.14 366.41,-197.12 365.31,-204.04"/>
</a>
</g>
</g>
<!-- Node3 -->
<g id="Node000003" class="node">
<title>Node3</title>
<g id="a_Node000003"><a xlink:href="_i_reader_8h.html" target="_top" xlink:title=" ">
<polygon fill="white" stroke="#666666" points="270,-162 144,-162 144,-132 270,-132 270,-162"/>
<text text-anchor="start" x="152" y="-150" font-family="Helvetica,sans-Serif" font-size="10.00">Kit/Persistence/Record</text>
<text text-anchor="middle" x="207" y="-139" font-family="Helvetica,sans-Serif" font-size="10.00">/Journal/IReader.h</text>
</a>
</g>
</g>
<!-- Node1&#45;&gt;Node3 -->
<g id="edge2_Node000001_Node000003" class="edge">
<title>Node1&#45;&gt;Node3</title>
<g id="a_edge2_Node000001_Node000003"><a xlink:title=" ">
<path fill="none" stroke="#63b8ff" d="M378.29,-195.25C340.81,-184.91 293.28,-171.8 257.79,-162.01"/>
<polygon fill="#63b8ff" stroke="#63b8ff" points="377.52,-198.67 388.09,-197.95 379.38,-191.92 377.52,-198.67"/>
</a>
</g>
</g>
<!-- Node6 -->
<g id="Node000006" class="node">
<title>Node6</title>
<g id="a_Node000006"><a xlink:href="src_2_kit_2_persistence_2_record_2_journal_2_server_8h.html" target="_top" xlink:title=" ">
<polygon fill="white" stroke="#666666" points="537,-30 411,-30 411,0 537,0 537,-30"/>
<text text-anchor="start" x="419" y="-18" font-family="Helvetica,sans-Serif" font-size="10.00">Kit/Persistence/Record</text>
<text text-anchor="middle" x="474" y="-7" font-family="Helvetica,sans-Serif" font-size="10.00">/Journal/Server.h</text>
</a>
</g>
</g>
<!-- Node1&#45;&gt;Node6 -->
<g id="edge15_Node000001_Node000006" class="edge">
<title>Node1&#45;&gt;Node6</title>
<g id="a_edge15_Node000001_Node000006"><a xlink:title=" ">
<path fill="none" stroke="#63b8ff" d="M512.48,-210.18C591.68,-206.49 710.29,-195.38 739,-162 766.83,-129.65 767.24,-98.84 740,-66 714.72,-35.53 607.48,-23.51 537.12,-18.85"/>
<polygon fill="#63b8ff" stroke="#63b8ff" points="511.9,-206.7 502.06,-210.63 512.2,-213.69 511.9,-206.7"/>
</a>
</g>
</g>
<!-- Node7 -->
<g id="Node000007" class="node">
<title>Node7</title>
<g id="a_Node000007"><a xlink:href="_i_reader_request_8h.html" target="_top" xlink:title=" ">
<polygon fill="white" stroke="#666666" points="431.5,-162 288.5,-162 288.5,-132 431.5,-132 431.5,-162"/>
<text text-anchor="start" x="296.5" y="-150" font-family="Helvetica,sans-Serif" font-size="10.00">Kit/Persistence/Record</text>
<text text-anchor="middle" x="360" y="-139" font-family="Helvetica,sans-Serif" font-size="10.00">/Journal/IReaderRequest.h</text>
</a>
</g>
</g>
<!-- Node1&#45;&gt;Node7 -->
<g id="edge6_Node000001_Node000007" class="edge">
<title>Node1&#45;&gt;Node7</title>
<g id="a_edge6_Node000001_Node000007"><a xlink:title=" ">
<path fill="none" stroke="#63b8ff" d="M413.67,-191.48C401.86,-181.91 388.11,-170.77 377.48,-162.16"/>
<polygon fill="#63b8ff" stroke="#63b8ff" points="411.49,-194.22 421.47,-197.8 415.9,-188.78 411.49,-194.22"/>
</a>
</g>
</g>
<!-- Node8 -->
<g id="Node000008" class="node">
<title>Node8</title>
<g id="a_Node000008"><a xlink:href="_i_reset_8h.html" target="_top" xlink:title=" ">
<polygon fill="white" stroke="#666666" points="730,-162 604,-162 604,-132 730,-132 730,-162"/>
<text text-anchor="start" x="612" y="-150" font-family="Helvetica,sans-Serif" font-size="10.00">Kit/Persistence/Record</text>
<text text-anchor="middle" x="667" y="-139" font-family="Helvetica,sans-Serif" font-size="10.00">/Journal/IReset.h</text>
</a>
</g>
</g>
<!-- Node1&#45;&gt;Node8 -->
<g id="edge9_Node000001_Node000008" class="edge">
<title>Node1&#45;&gt;Node8</title>
<g id="a_edge9_Node000001_Node000008"><a xlink:title=" ">
<path fill="none" stroke="#63b8ff" d="M499.13,-195.12C535.89,-184.8 582.36,-171.76 617.08,-162.01"/>
<polygon fill="#63b8ff" stroke="#63b8ff" points="497.72,-191.88 489.04,-197.95 499.61,-198.62 497.72,-191.88"/>
</a>
</g>
</g>
<!-- Node11 -->
<g id="Node000011" class="node">
<title>Node11</title>
<g id="a_Node000011"><a xlink:href="_i_reset_request_8h.html" target="_top" xlink:title=" ">
<polygon fill="white" stroke="#666666" points="586,-162 450,-162 450,-132 586,-132 586,-162"/>
<text text-anchor="start" x="458" y="-150" font-family="Helvetica,sans-Serif" font-size="10.00">Kit/Persistence/Record</text>
<text text-anchor="middle" x="518" y="-139" font-family="Helvetica,sans-Serif" font-size="10.00">/Journal/IResetRequest.h</text>
</a>
</g>
</g>
<!-- Node1&#45;&gt;Node11 -->
<g id="edge13_Node000001_Node000011" class="edge">
<title>Node1&#45;&gt;Node11</title>
<g id="a_edge13_Node000001_Node000011"><a xlink:title=" ">
<path fill="none" stroke="#63b8ff" d="M464.33,-191.48C476.14,-181.91 489.89,-170.77 500.52,-162.16"/>
<polygon fill="#63b8ff" stroke="#63b8ff" points="462.1,-188.78 456.53,-197.8 466.51,-194.22 462.1,-188.78"/>
</a>
</g>
</g>
<!-- Node4 -->
<g id="Node000004" class="node">
<title>Node4</title>
<g id="a_Node000004"><a xlink:href="_viewer_8h.html" target="_top" xlink:title=" ">
<polygon fill="white" stroke="#666666" points="256.5,-96 127.5,-96 127.5,-66 256.5,-66 256.5,-96"/>
<text text-anchor="start" x="135.5" y="-84" font-family="Helvetica,sans-Serif" font-size="10.00">Kit/Logging/Framework</text>
<text text-anchor="middle" x="192" y="-73" font-family="Helvetica,sans-Serif" font-size="10.00">/TShell/Viewer.h</text>
</a>
</g>
</g>
<!-- Node3&#45;&gt;Node4 -->
<g id="edge3_Node000003_Node000004" class="edge">
<title>Node3&#45;&gt;Node4</title>
<g id="a_edge3_Node000003_Node000004"><a xlink:title=" ">
<path fill="none" stroke="#63b8ff" d="M201.33,-121.83C199.31,-113.17 197.09,-103.7 195.32,-96.16"/>
<polygon fill="#63b8ff" stroke="#63b8ff" points="197.98,-122.86 203.67,-131.8 204.8,-121.26 197.98,-122.86"/>
</a>
</g>
</g>
<!-- Node5 -->
<g id="Node000005" class="node">
<title>Node5</title>
<g id="a_Node000005"><a xlink:href="_reader_sync_8h.html" target="_top" xlink:title=" ">
<polygon fill="white" stroke="#666666" points="401,-96 275,-96 275,-66 401,-66 401,-96"/>
<text text-anchor="start" x="283" y="-84" font-family="Helvetica,sans-Serif" font-size="10.00">Kit/Persistence/Record</text>
<text text-anchor="middle" x="338" y="-73" font-family="Helvetica,sans-Serif" font-size="10.00">/Journal/ReaderSync.h</text>
</a>
</g>
</g>
<!-- Node3&#45;&gt;Node5 -->
<g id="edge4_Node000003_Node000005" class="edge">
<title>Node3&#45;&gt;Node5</title>
<g id="a_edge4_Node000003_Node000005"><a xlink:title=" ">
<path fill="none" stroke="#63b8ff" d="M244.84,-127.51C265.39,-117.47 290.39,-105.26 309.32,-96.01"/>
<polygon fill="#63b8ff" stroke="#63b8ff" points="243.2,-124.42 235.75,-131.95 246.27,-130.71 243.2,-124.42"/>
</a>
</g>
</g>
<!-- Node5&#45;&gt;Node6 -->
<g id="edge5_Node000005_Node000006" class="edge">
<title>Node5&#45;&gt;Node6</title>
<g id="a_edge5_Node000005_Node000006"><a xlink:title=" ">
<path fill="none" stroke="#63b8ff" d="M377,-61.65C398.39,-51.58 424.49,-39.3 444.22,-30.01"/>
<polygon fill="#63b8ff" stroke="#63b8ff" points="375.4,-58.53 367.85,-65.95 378.38,-64.86 375.4,-58.53"/>
</a>
</g>
</g>
<!-- Node7&#45;&gt;Node5 -->
<g id="edge7_Node000007_Node000005" class="edge">
<title>Node7&#45;&gt;Node5</title>
<g id="a_edge7_Node000007_Node000005"><a xlink:title=" ">
<path fill="none" stroke="#63b8ff" d="M351.79,-122.11C348.79,-113.38 345.49,-103.78 342.87,-96.16"/>
<polygon fill="#63b8ff" stroke="#63b8ff" points="348.56,-123.48 355.12,-131.8 355.18,-121.2 348.56,-123.48"/>
</a>
</g>
</g>
<!-- Node7&#45;&gt;Node6 -->
<g id="edge8_Node000007_Node000006" class="edge">
<title>Node7&#45;&gt;Node6</title>
<g id="a_edge8_Node000007_Node000006"><a xlink:title=" ">
<path fill="none" stroke="#63b8ff" d="M382.26,-124.78C391.12,-116.08 401.26,-105.76 410,-96 429.81,-73.87 451.01,-46.57 463.36,-30.26"/>
<polygon fill="#63b8ff" stroke="#63b8ff" points="379.6,-122.49 374.87,-131.97 384.48,-127.51 379.6,-122.49"/>
</a>
</g>
</g>
<!-- Node9 -->
<g id="Node000009" class="node">
<title>Node9</title>
<g id="a_Node000009"><a xlink:href="_manage_8h.html" target="_top" xlink:title=" ">
<polygon fill="white" stroke="#666666" points="730.5,-96 601.5,-96 601.5,-66 730.5,-66 730.5,-96"/>
<text text-anchor="start" x="609.5" y="-84" font-family="Helvetica,sans-Serif" font-size="10.00">Kit/Logging/Framework</text>
<text text-anchor="middle" x="666" y="-73" font-family="Helvetica,sans-Serif" font-size="10.00">/TShell/Manage.h</text>
</a>
</g>
</g>
<!-- Node8&#45;&gt;Node9 -->
<g id="edge10_Node000008_Node000009" class="edge">
<title>Node8&#45;&gt;Node9</title>
<g id="a_edge10_Node000008_Node000009"><a xlink:title=" ">
<path fill="none" stroke="#63b8ff" d="M666.62,-121.54C666.48,-112.96 666.34,-103.61 666.22,-96.16"/>
<polygon fill="#63b8ff" stroke="#63b8ff" points="663.12,-121.85 666.78,-131.8 670.12,-121.74 663.12,-121.85"/>
</a>
</g>
</g>
<!-- Node10 -->
<g id="Node000010" class="node">
<title>Node10</title>
<g id="a_Node000010"><a xlink:href="_reset_sync_8h.html" target="_top" xlink:title=" ">
<polygon fill="white" stroke="#666666" points="583,-96 457,-96 457,-66 583,-66 583,-96"/>
<text text-anchor="start" x="465" y="-84" font-family="Helvetica,sans-Serif" font-size="10.00">Kit/Persistence/Record</text>
<text text-anchor="middle" x="520" y="-73" font-family="Helvetica,sans-Serif" font-size="10.00">/Journal/ResetSync.h</text>
</a>
</g>
</g>
<!-- Node8&#45;&gt;Node10 -->
<g id="edge11_Node000008_Node000010" class="edge">
<title>Node8&#45;&gt;Node10</title>
<g id="a_edge11_Node000008_Node000010"><a xlink:title=" ">
<path fill="none" stroke="#63b8ff" d="M625.47,-127.92C602.24,-117.8 573.71,-105.38 552.18,-96.01"/>
<polygon fill="#63b8ff" stroke="#63b8ff" points="624.17,-131.17 634.74,-131.95 626.97,-124.75 624.17,-131.17"/>
</a>
</g>
</g>
<!-- Node10&#45;&gt;Node6 -->
<g id="edge12_Node000010_Node000006" class="edge">
<title>Node10&#45;&gt;Node6</title>
<g id="a_edge12_Node000010_Node000006"><a xlink:title=" ">
<path fill="none" stroke="#63b8ff" d="M503.85,-57.53C497.31,-48.43 489.95,-38.19 484.18,-30.16"/>
<polygon fill="#63b8ff" stroke="#63b8ff" points="501.11,-59.72 509.79,-65.8 506.8,-55.63 501.11,-59.72"/>
</a>
</g>
</g>
<!-- Node11&#45;&gt;Node10 -->
<g id="edge14_Node000011_Node000010" class="edge">
<title>Node11&#45;&gt;Node10</title>
<g id="a_edge14_Node000011_Node000010"><a xlink:title=" ">
<path fill="none" stroke="#63b8ff" d="M518.76,-121.54C519.03,-112.96 519.32,-103.61 519.56,-96.16"/>
<polygon fill="#63b8ff" stroke="#63b8ff" points="515.26,-121.69 518.44,-131.8 522.25,-121.91 515.26,-121.69"/>
</a>
</g>
</g>
</g>
</svg>
