<?xml version="1.0" encoding="UTF-8" standalone="no"?>
<!DOCTYPE svg PUBLIC "-//W3C//DTD SVG 1.1//EN"
 "http://www.w3.org/Graphics/SVG/1.1/DTD/svg11.dtd">
<!-- Generated by graphviz version 2.43.0 (0)
 -->
<!-- Title: Kit/Checksum/IEdc.h Pages: 1 -->
<svg width="924pt" height="159pt"
 viewBox="0.00 0.00 924.00 159.00" xmlns="http://www.w3.org/2000/svg" xmlns:xlink="http://www.w3.org/1999/xlink">
<g id="graph0" class="graph" transform="scale(1 1) rotate(0) translate(4 155)">
<title>Kit/Checksum/IEdc.h</title>
<!-- Node1 -->
<g id="Node000001" class="node">
<title>Node1</title>
<g id="a_Node000001"><a xlink:title=" ">
<polygon fill="#999999" stroke="#666666" points="504,-151 388,-151 388,-132 504,-132 504,-151"/>
<text text-anchor="middle" x="446" y="-139" font-family="Helvetica,sans-Serif" font-size="10.00">Kit/Checksum/IEdc.h</text>
</a>
</g>
</g>
<!-- Node2 -->
<g id="Node000002" class="node">
<title>Node2</title>
<g id="a_Node000002"><a xlink:href="_crc16_ccitt_fast_8h.html" target="_top" xlink:title=" ">
<polygon fill="white" stroke="#666666" points="166,-90.5 0,-90.5 0,-71.5 166,-71.5 166,-90.5"/>
<text text-anchor="middle" x="83" y="-78.5" font-family="Helvetica,sans-Serif" font-size="10.00">Kit/Checksum/Crc16CcittFast.h</text>
</a>
</g>
</g>
<!-- Node1&#45;&gt;Node2 -->
<g id="edge1_Node000001_Node000002" class="edge">
<title>Node1&#45;&gt;Node2</title>
<g id="a_edge1_Node000001_Node000002"><a xlink:title=" ">
<path fill="none" stroke="#63b8ff" d="M383.21,-130.38C313.28,-119.11 201.47,-101.09 135.85,-90.52"/>
<polygon fill="#63b8ff" stroke="#63b8ff" points="382.79,-133.86 393.22,-131.99 383.9,-126.95 382.79,-133.86"/>
</a>
</g>
</g>
<!-- Node3 -->
<g id="Node000003" class="node">
<title>Node3</title>
<g id="a_Node000003"><a xlink:href="_crc32_ethernet_fast_8h.html" target="_top" xlink:title=" ">
<polygon fill="white" stroke="#666666" points="340,-96 184,-96 184,-66 340,-66 340,-96"/>
<text text-anchor="start" x="192" y="-84" font-family="Helvetica,sans-Serif" font-size="10.00">Kit/Checksum/Crc32Ethernet</text>
<text text-anchor="middle" x="262" y="-73" font-family="Helvetica,sans-Serif" font-size="10.00">Fast.h</text>
</a>
</g>
</g>
<!-- Node1&#45;&gt;Node3 -->
<g id="edge2_Node000001_Node000003" class="edge">
<title>Node1&#45;&gt;Node3</title>
<g id="a_edge2_Node000001_Node000003"><a xlink:title=" ">
<path fill="none" stroke="#63b8ff" d="M409.68,-128.95C379.99,-119.51 337.89,-106.13 306.24,-96.06"/>
<polygon fill="#63b8ff" stroke="#63b8ff" points="408.65,-132.3 419.24,-131.99 410.78,-125.63 408.65,-132.3"/>
</a>
</g>
</g>
<!-- Node4 -->
<g id="Node000004" class="node">
<title>Node4</title>
<g id="a_Node000004"><a xlink:href="_crc32_mpeg2_fast_8h.html" target="_top" xlink:title=" ">
<polygon fill="white" stroke="#666666" points="534,-90.5 358,-90.5 358,-71.5 534,-71.5 534,-90.5"/>
<text text-anchor="middle" x="446" y="-78.5" font-family="Helvetica,sans-Serif" font-size="10.00">Kit/Checksum/Crc32Mpeg2Fast.h</text>
</a>
</g>
</g>
<!-- Node1&#45;&gt;Node4 -->
<g id="edge3_Node000001_Node000004" class="edge">
<title>Node1&#45;&gt;Node4</title>
<g id="a_edge3_Node000001_Node000004"><a xlink:title=" ">
<path fill="none" stroke="#63b8ff" d="M446,-121.66C446,-111.24 446,-98.8 446,-90.67"/>
<polygon fill="#63b8ff" stroke="#63b8ff" points="442.5,-121.87 446,-131.87 449.5,-121.87 442.5,-121.87"/>
</a>
</g>
</g>
<!-- Node5 -->
<g id="Node000005" class="node">
<title>Node5</title>
<g id="a_Node000005"><a xlink:href="_fletcher16_8h.html" target="_top" xlink:title=" ">
<polygon fill="white" stroke="#666666" points="700,-90.5 552,-90.5 552,-71.5 700,-71.5 700,-90.5"/>
<text text-anchor="middle" x="626" y="-78.5" font-family="Helvetica,sans-Serif" font-size="10.00">Kit/Checksum/Fletcher16.h</text>
</a>
</g>
</g>
<!-- Node1&#45;&gt;Node5 -->
<g id="edge4_Node000001_Node000005" class="edge">
<title>Node1&#45;&gt;Node5</title>
<g id="a_edge4_Node000001_Node000005"><a xlink:title=" ">
<path fill="none" stroke="#63b8ff" d="M481.95,-128.82C516.76,-117.5 568.72,-100.62 599.79,-90.52"/>
<polygon fill="#63b8ff" stroke="#63b8ff" points="480.6,-125.57 472.17,-131.99 482.77,-132.23 480.6,-125.57"/>
</a>
</g>
</g>
<!-- Node6 -->
<g id="Node000006" class="node">
<title>Node6</title>
<g id="a_Node000006"><a xlink:href="_common_8h.html" target="_top" xlink:title=" ">
<polygon fill="white" stroke="#666666" points="844,-96 718,-96 718,-66 844,-66 844,-96"/>
<text text-anchor="start" x="726" y="-84" font-family="Helvetica,sans-Serif" font-size="10.00">Kit/Persistence/Record</text>
<text text-anchor="middle" x="781" y="-73" font-family="Helvetica,sans-Serif" font-size="10.00">/Chunk/Common.h</text>
</a>
</g>
</g>
<!-- Node1&#45;&gt;Node6 -->
<g id="edge5_Node000001_Node000006" class="edge">
<title>Node1&#45;&gt;Node6</title>
<g id="a_edge5_Node000001_Node000006"><a xlink:title=" ">
<path fill="none" stroke="#63b8ff" d="M508.7,-130.33C562.03,-121.58 640.62,-108.43 709,-96 711.88,-95.48 714.83,-94.93 717.8,-94.38"/>
<polygon fill="#63b8ff" stroke="#63b8ff" points="508.01,-126.9 498.71,-131.97 509.14,-133.81 508.01,-126.9"/>
</a>
</g>
</g>
<!-- Node7 -->
<g id="Node000007" class="node">
<title>Node7</title>
<g id="a_Node000007"><a xlink:href="_crc_8h.html" target="_top" xlink:title=" ">
<polygon fill="white" stroke="#666666" points="772,-30 646,-30 646,0 772,0 772,-30"/>
<text text-anchor="start" x="654" y="-18" font-family="Helvetica,sans-Serif" font-size="10.00">Kit/Persistence/Record</text>
<text text-anchor="middle" x="709" y="-7" font-family="Helvetica,sans-Serif" font-size="10.00">/Chunk/Crc.h</text>
</a>
</g>
</g>
<!-- Node6&#45;&gt;Node7 -->
<g id="edge6_Node000006_Node000007" class="edge">
<title>Node6&#45;&gt;Node7</title>
<g id="a_edge6_Node000006_Node000007"><a xlink:title=" ">
<path fill="none" stroke="#63b8ff" d="M757.29,-58.92C746.67,-49.49 734.43,-38.61 724.93,-30.16"/>
<polygon fill="#63b8ff" stroke="#63b8ff" points="755.22,-61.77 765.02,-65.8 759.87,-56.54 755.22,-61.77"/>
</a>
</g>
</g>
<!-- Node8 -->
<g id="Node000008" class="node">
<title>Node8</title>
<g id="a_Node000008"><a xlink:href="_mirrored_8h.html" target="_top" xlink:title=" ">
<polygon fill="white" stroke="#666666" points="916,-30 790,-30 790,0 916,0 916,-30"/>
<text text-anchor="start" x="798" y="-18" font-family="Helvetica,sans-Serif" font-size="10.00">Kit/Persistence/Record</text>
<text text-anchor="middle" x="853" y="-7" font-family="Helvetica,sans-Serif" font-size="10.00">/Chunk/Mirrored.h</text>
</a>
</g>
</g>
<!-- Node6&#45;&gt;Node8 -->
<g id="edge7_Node000006_Node000008" class="edge">
<title>Node6&#45;&gt;Node8</title>
<g id="a_edge7_Node000006_Node000008"><a xlink:title=" ">
<path fill="none" stroke="#63b8ff" d="M804.71,-58.92C815.33,-49.49 827.57,-38.61 837.07,-30.16"/>
<polygon fill="#63b8ff" stroke="#63b8ff" points="802.13,-56.54 796.98,-65.8 806.78,-61.77 802.13,-56.54"/>
</a>
</g>
</g>
</g>
</svg>
