<?xml version="1.0" encoding="UTF-8" standalone="no"?>
<!DOCTYPE svg PUBLIC "-//W3C//DTD SVG 1.1//EN"
 "http://www.w3.org/Graphics/SVG/1.1/DTD/svg11.dtd">
<!-- Generated by graphviz version 2.43.0 (0)
 -->
<!-- Title: Kit/Io/IInput.h Pages: 1 -->
<svg width="698pt" height="192pt"
 viewBox="0.00 0.00 698.13 192.00" xmlns="http://www.w3.org/2000/svg" xmlns:xlink="http://www.w3.org/1999/xlink">
<g id="graph0" class="graph" transform="scale(1 1) rotate(0) translate(4 188)">
<title>Kit/Io/IInput.h</title>
<!-- Node1 -->
<g id="Node000001" class="node">
<title>Node1</title>
<g id="a_Node000001"><a xlink:title=" ">
<polygon fill="#999999" stroke="#666666" points="542.13,-184 460.13,-184 460.13,-165 542.13,-165 542.13,-184"/>
<text text-anchor="middle" x="501.13" y="-172" font-family="Helvetica,sans-Serif" font-size="10.00">Kit/Io/IInput.h</text>
</a>
</g>
</g>
<!-- Node2 -->
<g id="Node000002" class="node">
<title>Node2</title>
<g id="a_Node000002"><a xlink:href="_io_2types_8h.html" target="_top" xlink:title=" ">
<polygon fill="white" stroke="#666666" points="185.13,-129 103.13,-129 103.13,-110 185.13,-110 185.13,-129"/>
<text text-anchor="middle" x="144.13" y="-117" font-family="Helvetica,sans-Serif" font-size="10.00">Kit/Io/Types.h</text>
</a>
</g>
</g>
<!-- Node1&#45;&gt;Node2 -->
<g id="edge1_Node000001_Node000002" class="edge">
<title>Node1&#45;&gt;Node2</title>
<g id="a_edge1_Node000001_Node000002"><a xlink:title=" ">
<path fill="none" stroke="#63b8ff" d="M459.83,-167.37C394.32,-157.64 266.71,-138.7 195.43,-128.12"/>
<polygon fill="#63b8ff" stroke="#63b8ff" points="195.74,-124.62 185.34,-126.62 194.71,-131.55 195.74,-124.62"/>
</a>
</g>
</g>
<!-- Node7 -->
<g id="Node000007" class="node">
<title>Node7</title>
<g id="a_Node000007"><a xlink:href="_i_string_8h.html" target="_top" xlink:title=" ">
<polygon fill="white" stroke="#666666" points="495.63,-129 398.63,-129 398.63,-110 495.63,-110 495.63,-129"/>
<text text-anchor="middle" x="447.13" y="-117" font-family="Helvetica,sans-Serif" font-size="10.00">Kit/Text/IString.h</text>
</a>
</g>
</g>
<!-- Node1&#45;&gt;Node7 -->
<g id="edge8_Node000001_Node000007" class="edge">
<title>Node1&#45;&gt;Node7</title>
<g id="a_edge8_Node000001_Node000007"><a xlink:title=" ">
<path fill="none" stroke="#63b8ff" d="M492.21,-164.75C484.35,-157.03 472.7,-145.6 463.21,-136.28"/>
<polygon fill="#63b8ff" stroke="#63b8ff" points="465.47,-133.6 455.88,-129.09 460.57,-138.59 465.47,-133.6"/>
</a>
</g>
</g>
<!-- Node14 -->
<g id="Node000014" class="node">
<title>Node14</title>
<g id="a_Node000014"><a xlink:href="_io_2_i_close_8h.html" target="_top" xlink:title=" ">
<polygon fill="white" stroke="#666666" points="598.13,-129 514.13,-129 514.13,-110 598.13,-110 598.13,-129"/>
<text text-anchor="middle" x="556.13" y="-117" font-family="Helvetica,sans-Serif" font-size="10.00">Kit/Io/IClose.h</text>
</a>
</g>
</g>
<!-- Node1&#45;&gt;Node14 -->
<g id="edge16_Node000001_Node000014" class="edge">
<title>Node1&#45;&gt;Node14</title>
<g id="a_edge16_Node000001_Node000014"><a xlink:title=" ">
<path fill="none" stroke="#63b8ff" d="M510.21,-164.75C518.22,-157.03 530.09,-145.6 539.75,-136.28"/>
<polygon fill="#63b8ff" stroke="#63b8ff" points="542.45,-138.55 547.22,-129.09 537.59,-133.51 542.45,-138.55"/>
</a>
</g>
</g>
<!-- Node15 -->
<g id="Node000015" class="node">
<title>Node15</title>
<g id="a_Node000015"><a xlink:href="_i_eos_8h.html" target="_top" xlink:title=" ">
<polygon fill="white" stroke="#666666" points="690.13,-129 616.13,-129 616.13,-110 690.13,-110 690.13,-129"/>
<text text-anchor="middle" x="653.13" y="-117" font-family="Helvetica,sans-Serif" font-size="10.00">Kit/Io/IEos.h</text>
</a>
</g>
</g>
<!-- Node1&#45;&gt;Node15 -->
<g id="edge17_Node000001_Node000015" class="edge">
<title>Node1&#45;&gt;Node15</title>
<g id="a_edge17_Node000001_Node000015"><a xlink:title=" ">
<path fill="none" stroke="#63b8ff" d="M525.55,-164.98C550.85,-156.16 590.59,-142.31 618.99,-132.41"/>
<polygon fill="#63b8ff" stroke="#63b8ff" points="620.23,-135.68 628.52,-129.08 617.92,-129.07 620.23,-135.68"/>
</a>
</g>
</g>
<!-- Node3 -->
<g id="Node000003" class="node">
<title>Node3</title>
<g id="a_Node000003"><a xlink:title=" ">
<polygon fill="#e0e0e0" stroke="#999999" points="98.63,-19 25.63,-19 25.63,0 98.63,0 98.63,-19"/>
<text text-anchor="middle" x="62.13" y="-7" font-family="Helvetica,sans-Serif" font-size="10.00">kit_config.h</text>
</a>
</g>
</g>
<!-- Node2&#45;&gt;Node3 -->
<g id="edge2_Node000002_Node000003" class="edge">
<title>Node2&#45;&gt;Node3</title>
<g id="a_edge2_Node000002_Node000003"><a xlink:title=" ">
<path fill="none" stroke="#63b8ff" d="M102.96,-117.75C70.31,-114.71 26.57,-104.67 4.13,-74 -9.44,-55.44 14.3,-36.23 35.38,-23.87"/>
<polygon fill="#63b8ff" stroke="#63b8ff" points="37.09,-26.93 44.13,-19.01 33.69,-20.8 37.09,-26.93"/>
</a>
</g>
</g>
<!-- Node4 -->
<g id="Node000004" class="node">
<title>Node4</title>
<g id="a_Node000004"><a xlink:title=" ">
<polygon fill="#e0e0e0" stroke="#999999" points="78.63,-74 13.63,-74 13.63,-55 78.63,-55 78.63,-74"/>
<text text-anchor="middle" x="46.13" y="-62" font-family="Helvetica,sans-Serif" font-size="10.00">kit_map.h</text>
</a>
</g>
</g>
<!-- Node2&#45;&gt;Node4 -->
<g id="edge3_Node000002_Node000004" class="edge">
<title>Node2&#45;&gt;Node4</title>
<g id="a_edge3_Node000002_Node000004"><a xlink:title=" ">
<path fill="none" stroke="#63b8ff" d="M128.39,-109.98C112.9,-101.61 89.04,-88.7 70.99,-78.95"/>
<polygon fill="#63b8ff" stroke="#63b8ff" points="72.62,-75.85 62.16,-74.17 69.29,-82.01 72.62,-75.85"/>
</a>
</g>
</g>
<!-- Node5 -->
<g id="Node000005" class="node">
<title>Node5</title>
<g id="a_Node000005"><a xlink:href="_s_size_8h.html" target="_top" xlink:title=" ">
<polygon fill="white" stroke="#666666" points="191.13,-74 97.13,-74 97.13,-55 191.13,-55 191.13,-74"/>
<text text-anchor="middle" x="144.13" y="-62" font-family="Helvetica,sans-Serif" font-size="10.00">Kit/Type/SSize.h</text>
</a>
</g>
</g>
<!-- Node2&#45;&gt;Node5 -->
<g id="edge4_Node000002_Node000005" class="edge">
<title>Node2&#45;&gt;Node5</title>
<g id="a_edge4_Node000002_Node000005"><a xlink:title=" ">
<path fill="none" stroke="#63b8ff" d="M144.13,-109.75C144.13,-102.8 144.13,-92.85 144.13,-84.13"/>
<polygon fill="#63b8ff" stroke="#63b8ff" points="147.63,-84.09 144.13,-74.09 140.63,-84.09 147.63,-84.09"/>
</a>
</g>
</g>
<!-- Node6 -->
<g id="Node000006" class="node">
<title>Node6</title>
<g id="a_Node000006"><a xlink:title=" ">
<polygon fill="#e0e0e0" stroke="#999999" points="245.63,-19 192.63,-19 192.63,0 245.63,0 245.63,-19"/>
<text text-anchor="middle" x="219.13" y="-7" font-family="Helvetica,sans-Serif" font-size="10.00">stdint.h</text>
</a>
</g>
</g>
<!-- Node2&#45;&gt;Node6 -->
<g id="edge7_Node000002_Node000006" class="edge">
<title>Node2&#45;&gt;Node6</title>
<g id="a_edge7_Node000002_Node000006"><a xlink:title=" ">
<path fill="none" stroke="#63b8ff" d="M159.61,-109.86C172.26,-102.05 189.69,-89.43 200.13,-74 209.3,-60.45 214.15,-42.36 216.64,-28.96"/>
<polygon fill="#63b8ff" stroke="#63b8ff" points="220.11,-29.43 218.23,-19 213.2,-28.33 220.11,-29.43"/>
</a>
</g>
</g>
<!-- Node5&#45;&gt;Node3 -->
<g id="edge5_Node000005_Node000003" class="edge">
<title>Node5&#45;&gt;Node3</title>
<g id="a_edge5_Node000005_Node000003"><a xlink:title=" ">
<path fill="none" stroke="#63b8ff" d="M130.96,-54.98C118.36,-46.84 99.13,-34.41 84.19,-24.76"/>
<polygon fill="#63b8ff" stroke="#63b8ff" points="85.84,-21.66 75.55,-19.17 82.04,-27.54 85.84,-21.66"/>
</a>
</g>
</g>
<!-- Node5&#45;&gt;Node6 -->
<g id="edge6_Node000005_Node000006" class="edge">
<title>Node5&#45;&gt;Node6</title>
<g id="a_edge6_Node000005_Node000006"><a xlink:title=" ">
<path fill="none" stroke="#63b8ff" d="M156.18,-54.98C167.59,-46.92 184.96,-34.65 198.57,-25.03"/>
<polygon fill="#63b8ff" stroke="#63b8ff" points="200.72,-27.8 206.86,-19.17 196.68,-22.08 200.72,-27.8"/>
</a>
</g>
</g>
<!-- Node8 -->
<g id="Node000008" class="node">
<title>Node8</title>
<g id="a_Node000008"><a xlink:href="_key_8h.html" target="_top" xlink:title=" ">
<polygon fill="white" stroke="#666666" points="356.63,-74 247.63,-74 247.63,-55 356.63,-55 356.63,-74"/>
<text text-anchor="middle" x="302.13" y="-62" font-family="Helvetica,sans-Serif" font-size="10.00">Kit/Container/Key.h</text>
</a>
</g>
</g>
<!-- Node7&#45;&gt;Node8 -->
<g id="edge9_Node000007_Node000008" class="edge">
<title>Node7&#45;&gt;Node8</title>
<g id="a_edge9_Node000007_Node000008"><a xlink:title=" ">
<path fill="none" stroke="#63b8ff" d="M423.83,-109.98C399.88,-101.23 362.35,-87.51 335.3,-77.62"/>
<polygon fill="#63b8ff" stroke="#63b8ff" points="336.45,-74.32 325.85,-74.17 334.04,-80.89 336.45,-74.32"/>
</a>
</g>
</g>
<!-- Node11 -->
<g id="Node000011" class="node">
<title>Node11</title>
<g id="a_Node000011"><a xlink:href="printfchecker_8h.html" target="_top" xlink:title="This file contains macro that enables the GCC (and Clang) compiler to validate printf flags with thei...">
<polygon fill="white" stroke="#666666" points="519.63,-74 374.63,-74 374.63,-55 519.63,-55 519.63,-74"/>
<text text-anchor="middle" x="447.13" y="-62" font-family="Helvetica,sans-Serif" font-size="10.00">Kit/System/printfchecker.h</text>
</a>
</g>
</g>
<!-- Node7&#45;&gt;Node11 -->
<g id="edge13_Node000007_Node000011" class="edge">
<title>Node7&#45;&gt;Node11</title>
<g id="a_edge13_Node000007_Node000011"><a xlink:title=" ">
<path fill="none" stroke="#63b8ff" d="M447.13,-109.75C447.13,-102.8 447.13,-92.85 447.13,-84.13"/>
<polygon fill="#63b8ff" stroke="#63b8ff" points="450.63,-84.09 447.13,-74.09 443.63,-84.09 450.63,-84.09"/>
</a>
</g>
</g>
<!-- Node12 -->
<g id="Node000012" class="node">
<title>Node12</title>
<g id="a_Node000012"><a xlink:title=" ">
<polygon fill="#e0e0e0" stroke="#999999" points="594.13,-74 538.13,-74 538.13,-55 594.13,-55 594.13,-74"/>
<text text-anchor="middle" x="566.13" y="-62" font-family="Helvetica,sans-Serif" font-size="10.00">stdarg.h</text>
</a>
</g>
</g>
<!-- Node7&#45;&gt;Node12 -->
<g id="edge14_Node000007_Node000012" class="edge">
<title>Node7&#45;&gt;Node12</title>
<g id="a_edge14_Node000007_Node000012"><a xlink:title=" ">
<path fill="none" stroke="#63b8ff" d="M466.25,-109.98C485.48,-101.42 515.36,-88.11 537.44,-78.28"/>
<polygon fill="#63b8ff" stroke="#63b8ff" points="538.95,-81.44 546.66,-74.17 536.11,-75.04 538.95,-81.44"/>
</a>
</g>
</g>
<!-- Node13 -->
<g id="Node000013" class="node">
<title>Node13</title>
<g id="a_Node000013"><a xlink:title=" ">
<polygon fill="#e0e0e0" stroke="#999999" points="672.13,-74 612.13,-74 612.13,-55 672.13,-55 672.13,-74"/>
<text text-anchor="middle" x="642.13" y="-62" font-family="Helvetica,sans-Serif" font-size="10.00">iostream</text>
</a>
</g>
</g>
<!-- Node7&#45;&gt;Node13 -->
<g id="edge15_Node000007_Node000013" class="edge">
<title>Node7&#45;&gt;Node13</title>
<g id="a_edge15_Node000007_Node000013"><a xlink:title=" ">
<path fill="none" stroke="#63b8ff" d="M478.46,-109.98C512.02,-100.86 565.38,-86.36 601.99,-76.41"/>
<polygon fill="#63b8ff" stroke="#63b8ff" points="603.11,-79.73 611.84,-73.73 601.27,-72.98 603.11,-79.73"/>
</a>
</g>
</g>
<!-- Node8&#45;&gt;Node6 -->
<g id="edge10_Node000008_Node000006" class="edge">
<title>Node8&#45;&gt;Node6</title>
<g id="a_edge10_Node000008_Node000006"><a xlink:title=" ">
<path fill="none" stroke="#63b8ff" d="M288.8,-54.98C276.05,-46.84 256.58,-34.41 241.46,-24.76"/>
<polygon fill="#63b8ff" stroke="#63b8ff" points="243.02,-21.6 232.71,-19.17 239.25,-27.5 243.02,-21.6"/>
</a>
</g>
</g>
<!-- Node9 -->
<g id="Node000009" class="node">
<title>Node9</title>
<g id="a_Node000009"><a xlink:title=" ">
<polygon fill="#e0e0e0" stroke="#999999" points="322.63,-19 269.63,-19 269.63,0 322.63,0 322.63,-19"/>
<text text-anchor="middle" x="296.13" y="-7" font-family="Helvetica,sans-Serif" font-size="10.00">stdlib.h</text>
</a>
</g>
</g>
<!-- Node8&#45;&gt;Node9 -->
<g id="edge11_Node000008_Node000009" class="edge">
<title>Node8&#45;&gt;Node9</title>
<g id="a_edge11_Node000008_Node000009"><a xlink:title=" ">
<path fill="none" stroke="#63b8ff" d="M301.14,-54.75C300.35,-47.8 299.23,-37.85 298.24,-29.13"/>
<polygon fill="#63b8ff" stroke="#63b8ff" points="301.71,-28.63 297.1,-19.09 294.75,-29.42 301.71,-28.63"/>
</a>
</g>
</g>
<!-- Node10 -->
<g id="Node000010" class="node">
<title>Node10</title>
<g id="a_Node000010"><a xlink:title=" ">
<polygon fill="#e0e0e0" stroke="#999999" points="393.63,-19 340.63,-19 340.63,0 393.63,0 393.63,-19"/>
<text text-anchor="middle" x="367.13" y="-7" font-family="Helvetica,sans-Serif" font-size="10.00">limits.h</text>
</a>
</g>
</g>
<!-- Node8&#45;&gt;Node10 -->
<g id="edge12_Node000008_Node000010" class="edge">
<title>Node8&#45;&gt;Node10</title>
<g id="a_edge12_Node000008_Node000010"><a xlink:title=" ">
<path fill="none" stroke="#63b8ff" d="M312.57,-54.98C322.28,-47.07 336.95,-35.11 348.63,-25.58"/>
<polygon fill="#63b8ff" stroke="#63b8ff" points="350.96,-28.2 356.5,-19.17 346.54,-22.78 350.96,-28.2"/>
</a>
</g>
</g>
</g>
</svg>
