<?xml version="1.0" encoding="UTF-8" standalone="no"?>
<!DOCTYPE svg PUBLIC "-//W3C//DTD SVG 1.1//EN"
 "http://www.w3.org/Graphics/SVG/1.1/DTD/svg11.dtd">
<!-- Generated by graphviz version 2.43.0 (0)
 -->
<!-- Title: Kit/Io/IInputOutput.h Pages: 1 -->
<svg width="400pt" height="159pt"
 viewBox="0.00 0.00 399.50 159.00" xmlns="http://www.w3.org/2000/svg" xmlns:xlink="http://www.w3.org/1999/xlink">
<g id="graph0" class="graph" transform="scale(1 1) rotate(0) translate(4 155)">
<title>Kit/Io/IInputOutput.h</title>
<!-- Node1 -->
<g id="Node000001" class="node">
<title>Node1</title>
<g id="a_Node000001"><a xlink:title=" ">
<polygon fill="#999999" stroke="#666666" points="211.5,-151 96.5,-151 96.5,-132 211.5,-132 211.5,-151"/>
<text text-anchor="middle" x="154" y="-139" font-family="Helvetica,sans-Serif" font-size="10.00">Kit/Io/IInputOutput.h</text>
</a>
</g>
</g>
<!-- Node2 -->
<g id="Node000002" class="node">
<title>Node2</title>
<g id="a_Node000002"><a xlink:href="_null_8h.html" target="_top" xlink:title=" ">
<polygon fill="white" stroke="#666666" points="74,-90.5 0,-90.5 0,-71.5 74,-71.5 74,-90.5"/>
<text text-anchor="middle" x="37" y="-78.5" font-family="Helvetica,sans-Serif" font-size="10.00">Kit/Io/Null.h</text>
</a>
</g>
</g>
<!-- Node1&#45;&gt;Node2 -->
<g id="edge1_Node000001_Node000002" class="edge">
<title>Node1&#45;&gt;Node2</title>
<g id="a_edge1_Node000001_Node000002"><a xlink:title=" ">
<path fill="none" stroke="#63b8ff" d="M127.96,-127.48C105.42,-116.21 73.45,-100.23 54.03,-90.52"/>
<polygon fill="#63b8ff" stroke="#63b8ff" points="126.48,-130.65 136.99,-131.99 129.61,-124.39 126.48,-130.65"/>
</a>
</g>
</g>
<!-- Node3 -->
<g id="Node000003" class="node">
<title>Node3</title>
<g id="a_Node000003"><a xlink:href="_serial_2_s_t_2_m32_f4_2_input_output_8h.html" target="_top" xlink:title=" ">
<polygon fill="white" stroke="#666666" points="216,-96 92,-96 92,-66 216,-66 216,-96"/>
<text text-anchor="start" x="100" y="-84" font-family="Helvetica,sans-Serif" font-size="10.00">Kit/Io/Serial/ST/M32F4</text>
<text text-anchor="middle" x="154" y="-73" font-family="Helvetica,sans-Serif" font-size="10.00">/InputOutput.h</text>
</a>
</g>
</g>
<!-- Node1&#45;&gt;Node3 -->
<g id="edge2_Node000001_Node000003" class="edge">
<title>Node1&#45;&gt;Node3</title>
<g id="a_edge2_Node000001_Node000003"><a xlink:title=" ">
<path fill="none" stroke="#63b8ff" d="M154,-121.65C154,-113.36 154,-103.78 154,-96.11"/>
<polygon fill="#63b8ff" stroke="#63b8ff" points="150.5,-121.87 154,-131.87 157.5,-121.87 150.5,-121.87"/>
</a>
</g>
</g>
<!-- Node5 -->
<g id="Node000005" class="node">
<title>Node5</title>
<g id="a_Node000005"><a xlink:href="_socket_2_i_input_output_8h.html" target="_top" xlink:title=" ">
<polygon fill="white" stroke="#666666" points="390,-90.5 240,-90.5 240,-71.5 390,-71.5 390,-90.5"/>
<text text-anchor="middle" x="315" y="-78.5" font-family="Helvetica,sans-Serif" font-size="10.00">Kit/Io/Socket/IInputOutput.h</text>
</a>
</g>
</g>
<!-- Node1&#45;&gt;Node5 -->
<g id="edge4_Node000001_Node000005" class="edge">
<title>Node1&#45;&gt;Node5</title>
<g id="a_edge4_Node000001_Node000005"><a xlink:title=" ">
<path fill="none" stroke="#63b8ff" d="M186.96,-128.52C218.09,-117.21 264,-100.53 291.56,-90.52"/>
<polygon fill="#63b8ff" stroke="#63b8ff" points="185.61,-125.29 177.41,-131.99 188,-131.87 185.61,-125.29"/>
</a>
</g>
</g>
<!-- Node4 -->
<g id="Node000004" class="node">
<title>Node4</title>
<g id="a_Node000004"><a xlink:href="stdio_8h.html" target="_top" xlink:title="By default the BSP provides a KIT IO Stream for application&#39; console.">
<polygon fill="white" stroke="#666666" points="226,-30 74,-30 74,0 226,0 226,-30"/>
<text text-anchor="start" x="82" y="-18" font-family="Helvetica,sans-Serif" font-size="10.00">Kit/Bsp/ST/NUCLEO&#45;F413ZH</text>
<text text-anchor="middle" x="150" y="-7" font-family="Helvetica,sans-Serif" font-size="10.00">/stdio.h</text>
</a>
</g>
</g>
<!-- Node3&#45;&gt;Node4 -->
<g id="edge3_Node000003_Node000004" class="edge">
<title>Node3&#45;&gt;Node4</title>
<g id="a_edge3_Node000003_Node000004"><a xlink:title=" ">
<path fill="none" stroke="#63b8ff" d="M152.47,-55.54C151.94,-46.96 151.35,-37.61 150.89,-30.16"/>
<polygon fill="#63b8ff" stroke="#63b8ff" points="149,-56.03 153.11,-65.8 155.98,-55.6 149,-56.03"/>
</a>
</g>
</g>
<!-- Node6 -->
<g id="Node000006" class="node">
<title>Node6</title>
<g id="a_Node000006"><a xlink:href="_socket_2_input_output_8h.html" target="_top" xlink:title=" ">
<polygon fill="white" stroke="#666666" points="391.5,-24.5 244.5,-24.5 244.5,-5.5 391.5,-5.5 391.5,-24.5"/>
<text text-anchor="middle" x="318" y="-12.5" font-family="Helvetica,sans-Serif" font-size="10.00">Kit/Io/Socket/InputOutput.h</text>
</a>
</g>
</g>
<!-- Node5&#45;&gt;Node6 -->
<g id="edge5_Node000005_Node000006" class="edge">
<title>Node5&#45;&gt;Node6</title>
<g id="a_edge5_Node000005_Node000006"><a xlink:title=" ">
<path fill="none" stroke="#63b8ff" d="M315.89,-61.08C316.45,-49.13 317.15,-34.22 317.58,-24.91"/>
<polygon fill="#63b8ff" stroke="#63b8ff" points="312.38,-61.22 315.4,-71.37 319.37,-61.54 312.38,-61.22"/>
</a>
</g>
</g>
</g>
</svg>
