<?xml version="1.0" encoding="UTF-8" standalone="no"?>
<!DOCTYPE svg PUBLIC "-//W3C//DTD SVG 1.1//EN"
 "http://www.w3.org/Graphics/SVG/1.1/DTD/svg11.dtd">
<!-- Generated by graphviz version 2.43.0 (0)
 -->
<!-- Title: Kit/Io/IInput.h Pages: 1 -->
<svg width="1143pt" height="214pt"
 viewBox="0.00 0.00 1143.00 214.00" xmlns="http://www.w3.org/2000/svg" xmlns:xlink="http://www.w3.org/1999/xlink">
<g id="graph0" class="graph" transform="scale(1 1) rotate(0) translate(4 210)">
<title>Kit/Io/IInput.h</title>
<!-- Node1 -->
<g id="Node000001" class="node">
<title>Node1</title>
<g id="a_Node000001"><a xlink:title=" ">
<polygon fill="#999999" stroke="#666666" points="742,-206 660,-206 660,-187 742,-187 742,-206"/>
<text text-anchor="middle" x="701" y="-194" font-family="Helvetica,sans-Serif" font-size="10.00">Kit/Io/IInput.h</text>
</a>
</g>
</g>
<!-- Node2 -->
<g id="Node000002" class="node">
<title>Node2</title>
<g id="a_Node000002"><a xlink:href="_file_2_i_input_8h.html" target="_top" xlink:title=" ">
<polygon fill="white" stroke="#666666" points="317,-145.5 215,-145.5 215,-126.5 317,-126.5 317,-145.5"/>
<text text-anchor="middle" x="266" y="-133.5" font-family="Helvetica,sans-Serif" font-size="10.00">Kit/Io/File/IInput.h</text>
</a>
</g>
</g>
<!-- Node1&#45;&gt;Node2 -->
<g id="edge1_Node000001_Node000002" class="edge">
<title>Node1&#45;&gt;Node2</title>
<g id="a_edge1_Node000001_Node000002"><a xlink:title=" ">
<path fill="none" stroke="#63b8ff" d="M649.63,-188.59C565.81,-177.32 400.59,-155.1 317,-143.86"/>
<polygon fill="#63b8ff" stroke="#63b8ff" points="649.31,-192.08 659.68,-189.94 650.24,-185.14 649.31,-192.08"/>
</a>
</g>
</g>
<!-- Node7 -->
<g id="Node000007" class="node">
<title>Node7</title>
<g id="a_Node000007"><a xlink:href="_i_input_output_8h.html" target="_top" xlink:title=" ">
<polygon fill="white" stroke="#666666" points="559.5,-145.5 444.5,-145.5 444.5,-126.5 559.5,-126.5 559.5,-145.5"/>
<text text-anchor="middle" x="502" y="-133.5" font-family="Helvetica,sans-Serif" font-size="10.00">Kit/Io/IInputOutput.h</text>
</a>
</g>
</g>
<!-- Node1&#45;&gt;Node7 -->
<g id="edge6_Node000001_Node000007" class="edge">
<title>Node1&#45;&gt;Node7</title>
<g id="a_edge6_Node000001_Node000007"><a xlink:title=" ">
<path fill="none" stroke="#63b8ff" d="M662.25,-184.11C623.76,-172.79 565.62,-155.7 530.97,-145.52"/>
<polygon fill="#63b8ff" stroke="#63b8ff" points="661.48,-187.53 672.06,-186.99 663.46,-180.82 661.48,-187.53"/>
</a>
</g>
</g>
<!-- Node13 -->
<g id="Node000013" class="node">
<title>Node13</title>
<g id="a_Node000013"><a xlink:href="_line_reader_8h.html" target="_top" xlink:title=" ">
<polygon fill="white" stroke="#666666" points="686,-145.5 578,-145.5 578,-126.5 686,-126.5 686,-145.5"/>
<text text-anchor="middle" x="632" y="-133.5" font-family="Helvetica,sans-Serif" font-size="10.00">Kit/Io/LineReader.h</text>
</a>
</g>
</g>
<!-- Node1&#45;&gt;Node13 -->
<g id="edge12_Node000001_Node000013" class="edge">
<title>Node1&#45;&gt;Node13</title>
<g id="a_edge12_Node000001_Node000013"><a xlink:title=" ">
<path fill="none" stroke="#63b8ff" d="M682.98,-180.22C670,-169.21 652.94,-154.75 642.22,-145.67"/>
<polygon fill="#63b8ff" stroke="#63b8ff" points="680.93,-183.07 690.82,-186.87 685.45,-177.73 680.93,-183.07"/>
</a>
</g>
</g>
<!-- Node14 -->
<g id="Node000014" class="node">
<title>Node14</title>
<g id="a_Node000014"><a xlink:href="_serial_2_r_pi_2_r_p2xxx_2_stdio_2_input_8h.html" target="_top" xlink:title=" ">
<polygon fill="white" stroke="#666666" points="835.5,-151 704.5,-151 704.5,-121 835.5,-121 835.5,-151"/>
<text text-anchor="start" x="712.5" y="-139" font-family="Helvetica,sans-Serif" font-size="10.00">Kit/Io/Serial/RPi/RP2xxx</text>
<text text-anchor="middle" x="770" y="-128" font-family="Helvetica,sans-Serif" font-size="10.00">/Stdio/Input.h</text>
</a>
</g>
</g>
<!-- Node1&#45;&gt;Node14 -->
<g id="edge13_Node000001_Node000014" class="edge">
<title>Node1&#45;&gt;Node14</title>
<g id="a_edge13_Node000001_Node000014"><a xlink:title=" ">
<path fill="none" stroke="#63b8ff" d="M719.01,-180.23C729.63,-171.23 742.98,-159.91 753.35,-151.11"/>
<polygon fill="#63b8ff" stroke="#63b8ff" points="716.55,-177.73 711.18,-186.87 721.07,-183.07 716.55,-177.73"/>
</a>
</g>
</g>
<!-- Node15 -->
<g id="Node000015" class="node">
<title>Node15</title>
<g id="a_Node000015"><a xlink:href="_input_delegate_8h.html" target="_top" xlink:title=" ">
<polygon fill="white" stroke="#666666" points="1004.5,-145.5 853.5,-145.5 853.5,-126.5 1004.5,-126.5 1004.5,-145.5"/>
<text text-anchor="middle" x="929" y="-133.5" font-family="Helvetica,sans-Serif" font-size="10.00">Kit/Io/Stdio/InputDelegate.h</text>
</a>
</g>
</g>
<!-- Node1&#45;&gt;Node15 -->
<g id="edge14_Node000001_Node000015" class="edge">
<title>Node1&#45;&gt;Node15</title>
<g id="a_edge14_Node000001_Node000015"><a xlink:title=" ">
<path fill="none" stroke="#63b8ff" d="M744,-184.47C788.08,-173.16 855.69,-155.81 895.81,-145.52"/>
<polygon fill="#63b8ff" stroke="#63b8ff" points="742.97,-181.12 734.15,-186.99 744.71,-187.9 742.97,-181.12"/>
</a>
</g>
</g>
<!-- Node17 -->
<g id="Node000017" class="node">
<title>Node17</title>
<g id="a_Node000017"><a xlink:href="helpers_8h.html" target="_top" xlink:title="This file defines helper functions/interface for writing unit tests.">
<polygon fill="white" stroke="#666666" points="1135,-151 1023,-151 1023,-121 1135,-121 1135,-151"/>
<text text-anchor="start" x="1031" y="-139" font-family="Helvetica,sans-Serif" font-size="10.00">Kit/_support/testing</text>
<text text-anchor="middle" x="1079" y="-128" font-family="Helvetica,sans-Serif" font-size="10.00">/helpers.h</text>
</a>
</g>
</g>
<!-- Node1&#45;&gt;Node17 -->
<g id="edge16_Node000001_Node000017" class="edge">
<title>Node1&#45;&gt;Node17</title>
<g id="a_edge16_Node000001_Node000017"><a xlink:title=" ">
<path fill="none" stroke="#63b8ff" d="M752.1,-189.37C814.22,-181.65 922.13,-167.4 1014,-151 1016.84,-150.49 1019.75,-149.95 1022.68,-149.39"/>
<polygon fill="#63b8ff" stroke="#63b8ff" points="751.66,-185.89 742.16,-190.59 752.52,-192.84 751.66,-185.89"/>
</a>
</g>
</g>
<!-- Node3 -->
<g id="Node000003" class="node">
<title>Node3</title>
<g id="a_Node000003"><a xlink:href="_file_2_i_input_output_8h.html" target="_top" xlink:title=" ">
<polygon fill="white" stroke="#666666" points="198.5,-79.5 63.5,-79.5 63.5,-60.5 198.5,-60.5 198.5,-79.5"/>
<text text-anchor="middle" x="131" y="-67.5" font-family="Helvetica,sans-Serif" font-size="10.00">Kit/Io/File/IInputOutput.h</text>
</a>
</g>
</g>
<!-- Node2&#45;&gt;Node3 -->
<g id="edge2_Node000002_Node000003" class="edge">
<title>Node2&#45;&gt;Node3</title>
<g id="a_edge2_Node000002_Node000003"><a xlink:title=" ">
<path fill="none" stroke="#63b8ff" d="M238.64,-122.03C212.03,-109.42 172.37,-90.61 149.35,-79.7"/>
<polygon fill="#63b8ff" stroke="#63b8ff" points="237.26,-125.25 247.79,-126.37 240.26,-118.92 237.26,-125.25"/>
</a>
</g>
</g>
<!-- Node6 -->
<g id="Node000006" class="node">
<title>Node6</title>
<g id="a_Node000006"><a xlink:href="_file_2_input_8h.html" target="_top" xlink:title=" ">
<polygon fill="white" stroke="#666666" points="315.5,-79.5 216.5,-79.5 216.5,-60.5 315.5,-60.5 315.5,-79.5"/>
<text text-anchor="middle" x="266" y="-67.5" font-family="Helvetica,sans-Serif" font-size="10.00">Kit/Io/File/Input.h</text>
</a>
</g>
</g>
<!-- Node2&#45;&gt;Node6 -->
<g id="edge5_Node000002_Node000006" class="edge">
<title>Node2&#45;&gt;Node6</title>
<g id="a_edge5_Node000002_Node000006"><a xlink:title=" ">
<path fill="none" stroke="#63b8ff" d="M266,-116.08C266,-104.13 266,-89.22 266,-79.91"/>
<polygon fill="#63b8ff" stroke="#63b8ff" points="262.5,-116.37 266,-126.37 269.5,-116.37 262.5,-116.37"/>
</a>
</g>
</g>
<!-- Node4 -->
<g id="Node000004" class="node">
<title>Node4</title>
<g id="a_Node000004"><a xlink:href="_file_2_input_output_8h.html" target="_top" xlink:title=" ">
<polygon fill="white" stroke="#666666" points="132,-19 0,-19 0,0 132,0 132,-19"/>
<text text-anchor="middle" x="66" y="-7" font-family="Helvetica,sans-Serif" font-size="10.00">Kit/Io/File/InputOutput.h</text>
</a>
</g>
</g>
<!-- Node3&#45;&gt;Node4 -->
<g id="edge3_Node000003_Node000004" class="edge">
<title>Node3&#45;&gt;Node4</title>
<g id="a_edge3_Node000003_Node000004"><a xlink:title=" ">
<path fill="none" stroke="#63b8ff" d="M113.68,-53.41C101.49,-42.44 85.63,-28.17 75.63,-19.17"/>
<polygon fill="#63b8ff" stroke="#63b8ff" points="111.63,-56.28 121.41,-60.37 116.32,-51.08 111.63,-56.28"/>
</a>
</g>
</g>
<!-- Node5 -->
<g id="Node000005" class="node">
<title>Node5</title>
<g id="a_Node000005"><a xlink:href="_file_2_null_8h.html" target="_top" xlink:title=" ">
<polygon fill="white" stroke="#666666" points="244,-19 150,-19 150,0 244,0 244,-19"/>
<text text-anchor="middle" x="197" y="-7" font-family="Helvetica,sans-Serif" font-size="10.00">Kit/Io/File/Null.h</text>
</a>
</g>
</g>
<!-- Node3&#45;&gt;Node5 -->
<g id="edge4_Node000003_Node000005" class="edge">
<title>Node3&#45;&gt;Node5</title>
<g id="a_edge4_Node000003_Node000005"><a xlink:title=" ">
<path fill="none" stroke="#63b8ff" d="M148.24,-53.72C160.66,-42.71 176.97,-28.25 187.22,-19.17"/>
<polygon fill="#63b8ff" stroke="#63b8ff" points="145.9,-51.12 140.74,-60.37 150.54,-56.35 145.9,-51.12"/>
</a>
</g>
</g>
<!-- Node8 -->
<g id="Node000008" class="node">
<title>Node8</title>
<g id="a_Node000008"><a xlink:href="_null_8h.html" target="_top" xlink:title=" ">
<polygon fill="white" stroke="#666666" points="408,-79.5 334,-79.5 334,-60.5 408,-60.5 408,-79.5"/>
<text text-anchor="middle" x="371" y="-67.5" font-family="Helvetica,sans-Serif" font-size="10.00">Kit/Io/Null.h</text>
</a>
</g>
</g>
<!-- Node7&#45;&gt;Node8 -->
<g id="edge7_Node000007_Node000008" class="edge">
<title>Node7&#45;&gt;Node8</title>
<g id="a_edge7_Node000007_Node000008"><a xlink:title=" ">
<path fill="none" stroke="#63b8ff" d="M475.11,-121.86C449.3,-109.25 411.04,-90.56 388.81,-79.7"/>
<polygon fill="#63b8ff" stroke="#63b8ff" points="473.81,-125.12 484.33,-126.37 476.88,-118.83 473.81,-125.12"/>
</a>
</g>
</g>
<!-- Node9 -->
<g id="Node000009" class="node">
<title>Node9</title>
<g id="a_Node000009"><a xlink:href="_serial_2_r_pi_2_r_p2xxx_2_uart_2_input_output_8h.html" target="_top" xlink:title=" ">
<polygon fill="white" stroke="#666666" points="557.5,-85 426.5,-85 426.5,-55 557.5,-55 557.5,-85"/>
<text text-anchor="start" x="434.5" y="-73" font-family="Helvetica,sans-Serif" font-size="10.00">Kit/Io/Serial/RPi/RP2xxx</text>
<text text-anchor="middle" x="492" y="-62" font-family="Helvetica,sans-Serif" font-size="10.00">/Uart/InputOutput.h</text>
</a>
</g>
</g>
<!-- Node7&#45;&gt;Node9 -->
<g id="edge8_Node000007_Node000009" class="edge">
<title>Node7&#45;&gt;Node9</title>
<g id="a_edge8_Node000007_Node000009"><a xlink:title=" ">
<path fill="none" stroke="#63b8ff" d="M499.09,-116.35C497.54,-106.47 495.67,-94.51 494.24,-85.36"/>
<polygon fill="#63b8ff" stroke="#63b8ff" points="495.65,-117.03 500.65,-126.37 502.57,-115.95 495.65,-117.03"/>
</a>
</g>
</g>
<!-- Node10 -->
<g id="Node000010" class="node">
<title>Node10</title>
<g id="a_Node000010"><a xlink:href="_serial_2_s_t_2_m32_f4_2_input_output_8h.html" target="_top" xlink:title=" ">
<polygon fill="white" stroke="#666666" points="700,-85 576,-85 576,-55 700,-55 700,-85"/>
<text text-anchor="start" x="584" y="-73" font-family="Helvetica,sans-Serif" font-size="10.00">Kit/Io/Serial/ST/M32F4</text>
<text text-anchor="middle" x="638" y="-62" font-family="Helvetica,sans-Serif" font-size="10.00">/InputOutput.h</text>
</a>
</g>
</g>
<!-- Node7&#45;&gt;Node10 -->
<g id="edge9_Node000007_Node000010" class="edge">
<title>Node7&#45;&gt;Node10</title>
<g id="a_edge9_Node000007_Node000010"><a xlink:title=" ">
<path fill="none" stroke="#63b8ff" d="M529.46,-122.08C552.23,-111.36 584.56,-96.15 608,-85.12"/>
<polygon fill="#63b8ff" stroke="#63b8ff" points="527.9,-118.94 520.34,-126.37 530.88,-125.28 527.9,-118.94"/>
</a>
</g>
</g>
<!-- Node11 -->
<g id="Node000011" class="node">
<title>Node11</title>
<g id="a_Node000011"><a xlink:href="_socket_2_i_input_output_8h.html" target="_top" xlink:title=" ">
<polygon fill="white" stroke="#666666" points="868,-79.5 718,-79.5 718,-60.5 868,-60.5 868,-79.5"/>
<text text-anchor="middle" x="793" y="-67.5" font-family="Helvetica,sans-Serif" font-size="10.00">Kit/Io/Socket/IInputOutput.h</text>
</a>
</g>
</g>
<!-- Node7&#45;&gt;Node11 -->
<g id="edge10_Node000007_Node000011" class="edge">
<title>Node7&#45;&gt;Node11</title>
<g id="a_edge10_Node000007_Node000011"><a xlink:title=" ">
<path fill="none" stroke="#63b8ff" d="M550.85,-124.26C608.1,-111.67 701.81,-91.06 754.29,-79.51"/>
<polygon fill="#63b8ff" stroke="#63b8ff" points="549.96,-120.87 540.94,-126.44 551.46,-127.71 549.96,-120.87"/>
</a>
</g>
</g>
<!-- Node12 -->
<g id="Node000012" class="node">
<title>Node12</title>
<g id="a_Node000012"><a xlink:href="_socket_2_input_output_8h.html" target="_top" xlink:title=" ">
<polygon fill="white" stroke="#666666" points="866.5,-19 719.5,-19 719.5,0 866.5,0 866.5,-19"/>
<text text-anchor="middle" x="793" y="-7" font-family="Helvetica,sans-Serif" font-size="10.00">Kit/Io/Socket/InputOutput.h</text>
</a>
</g>
</g>
<!-- Node11&#45;&gt;Node12 -->
<g id="edge11_Node000011_Node000012" class="edge">
<title>Node11&#45;&gt;Node12</title>
<g id="a_edge11_Node000011_Node000012"><a xlink:title=" ">
<path fill="none" stroke="#63b8ff" d="M793,-50.16C793,-39.74 793,-27.3 793,-19.17"/>
<polygon fill="#63b8ff" stroke="#63b8ff" points="789.5,-50.37 793,-60.37 796.5,-50.37 789.5,-50.37"/>
</a>
</g>
</g>
<!-- Node16 -->
<g id="Node000016" class="node">
<title>Node16</title>
<g id="a_Node000016"><a xlink:href="_std_in_8h.html" target="_top" xlink:title=" ">
<polygon fill="white" stroke="#666666" points="992.5,-79.5 885.5,-79.5 885.5,-60.5 992.5,-60.5 992.5,-79.5"/>
<text text-anchor="middle" x="939" y="-67.5" font-family="Helvetica,sans-Serif" font-size="10.00">Kit/Io/Stdio/StdIn.h</text>
</a>
</g>
</g>
<!-- Node15&#45;&gt;Node16 -->
<g id="edge15_Node000015_Node000016" class="edge">
<title>Node15&#45;&gt;Node16</title>
<g id="a_edge15_Node000015_Node000016"><a xlink:title=" ">
<path fill="none" stroke="#63b8ff" d="M931.9,-116.45C933.78,-104.43 936.14,-89.32 937.61,-79.91"/>
<polygon fill="#63b8ff" stroke="#63b8ff" points="928.43,-115.95 930.35,-126.37 935.35,-117.03 928.43,-115.95"/>
</a>
</g>
</g>
</g>
</svg>
