<?xml version="1.0" encoding="UTF-8" standalone="no"?>
<!DOCTYPE svg PUBLIC "-//W3C//DTD SVG 1.1//EN"
 "http://www.w3.org/Graphics/SVG/1.1/DTD/svg11.dtd">
<!-- Generated by graphviz version 2.43.0 (0)
 -->
<!-- Title: Kit/Io/Socket/IListenerClientRequest.h Pages: 1 -->
<svg width="1083pt" height="423pt"
 viewBox="0.00 0.00 1083.41 423.00" xmlns="http://www.w3.org/2000/svg" xmlns:xlink="http://www.w3.org/1999/xlink">
<g id="graph0" class="graph" transform="scale(1 1) rotate(0) translate(4 419)">
<title>Kit/Io/Socket/IListenerClientRequest.h</title>
<!-- Node1 -->
<g id="Node000001" class="node">
<title>Node1</title>
<g id="a_Node000001"><a xlink:title=" ">
<polygon fill="#999999" stroke="#666666" points="461.91,-415 310.91,-415 310.91,-385 461.91,-385 461.91,-415"/>
<text text-anchor="start" x="318.91" y="-403" font-family="Helvetica,sans-Serif" font-size="10.00">Kit/Io/Socket/IListenerClient</text>
<text text-anchor="middle" x="386.41" y="-392" font-family="Helvetica,sans-Serif" font-size="10.00">Request.h</text>
</a>
</g>
</g>
<!-- Node2 -->
<g id="Node000002" class="node">
<title>Node2</title>
<g id="a_Node000002"><a xlink:href="_io_2types_8h.html" target="_top" xlink:title=" ">
<polygon fill="white" stroke="#666666" points="207.41,-294 125.41,-294 125.41,-275 207.41,-275 207.41,-294"/>
<text text-anchor="middle" x="166.41" y="-282" font-family="Helvetica,sans-Serif" font-size="10.00">Kit/Io/Types.h</text>
</a>
</g>
</g>
<!-- Node1&#45;&gt;Node2 -->
<g id="edge1_Node000001_Node000002" class="edge">
<title>Node1&#45;&gt;Node2</title>
<g id="a_edge1_Node000001_Node000002"><a xlink:title=" ">
<path fill="none" stroke="#63b8ff" d="M358.99,-384.85C316.14,-362.75 233.89,-320.31 192.11,-298.76"/>
<polygon fill="#63b8ff" stroke="#63b8ff" points="193.62,-295.6 183.13,-294.12 190.41,-301.82 193.62,-295.6"/>
</a>
</g>
</g>
<!-- Node7 -->
<g id="Node000007" class="node">
<title>Node7</title>
<g id="a_Node000007"><a xlink:href="_request_message_8h.html" target="_top" xlink:title=" ">
<polygon fill="white" stroke="#666666" points="554.41,-349 414.41,-349 414.41,-330 554.41,-330 554.41,-349"/>
<text text-anchor="middle" x="484.41" y="-337" font-family="Helvetica,sans-Serif" font-size="10.00">Kit/Itc/RequestMessage.h</text>
</a>
</g>
</g>
<!-- Node1&#45;&gt;Node7 -->
<g id="edge8_Node000001_Node000007" class="edge">
<title>Node1&#45;&gt;Node7</title>
<g id="a_edge8_Node000001_Node000007"><a xlink:title=" ">
<path fill="none" stroke="#63b8ff" d="M410.13,-384.84C425.61,-375.6 445.73,-363.59 461.12,-354.4"/>
<polygon fill="#63b8ff" stroke="#63b8ff" points="463.22,-357.23 470.01,-349.09 459.63,-351.21 463.22,-357.23"/>
</a>
</g>
</g>
<!-- Node13 -->
<g id="Node000013" class="node">
<title>Node13</title>
<g id="a_Node000013"><a xlink:href="_s_a_p_8h.html" target="_top" xlink:title=" ">
<polygon fill="white" stroke="#666666" points="472.91,-294 397.91,-294 397.91,-275 472.91,-275 472.91,-294"/>
<text text-anchor="middle" x="435.41" y="-282" font-family="Helvetica,sans-Serif" font-size="10.00">Kit/Itc/SAP.h</text>
</a>
</g>
</g>
<!-- Node1&#45;&gt;Node13 -->
<g id="edge27_Node000001_Node000013" class="edge">
<title>Node1&#45;&gt;Node13</title>
<g id="a_edge27_Node000001_Node000013"><a xlink:title=" ">
<path fill="none" stroke="#63b8ff" d="M388.92,-384.79C391.76,-370.5 397.1,-348.06 405.41,-330 409.88,-320.28 416.37,-310.33 422.17,-302.31"/>
<polygon fill="#63b8ff" stroke="#63b8ff" points="425.07,-304.28 428.29,-294.19 419.48,-300.07 425.07,-304.28"/>
</a>
</g>
</g>
<!-- Node3 -->
<g id="Node000003" class="node">
<title>Node3</title>
<g id="a_Node000003"><a xlink:title=" ">
<polygon fill="#e0e0e0" stroke="#999999" points="132.91,-184 59.91,-184 59.91,-165 132.91,-165 132.91,-184"/>
<text text-anchor="middle" x="96.41" y="-172" font-family="Helvetica,sans-Serif" font-size="10.00">kit_config.h</text>
</a>
</g>
</g>
<!-- Node2&#45;&gt;Node3 -->
<g id="edge2_Node000002_Node000003" class="edge">
<title>Node2&#45;&gt;Node3</title>
<g id="a_edge2_Node000002_Node000003"><a xlink:title=" ">
<path fill="none" stroke="#63b8ff" d="M179.15,-274.8C195.56,-262.49 220.5,-239.35 207.41,-220 199.16,-207.81 166,-195.47 138.05,-186.89"/>
<polygon fill="#63b8ff" stroke="#63b8ff" points="139.02,-183.53 128.44,-184.02 137.02,-190.23 139.02,-183.53"/>
</a>
</g>
</g>
<!-- Node4 -->
<g id="Node000004" class="node">
<title>Node4</title>
<g id="a_Node000004"><a xlink:title=" ">
<polygon fill="#e0e0e0" stroke="#999999" points="198.91,-239 133.91,-239 133.91,-220 198.91,-220 198.91,-239"/>
<text text-anchor="middle" x="166.41" y="-227" font-family="Helvetica,sans-Serif" font-size="10.00">kit_map.h</text>
</a>
</g>
</g>
<!-- Node2&#45;&gt;Node4 -->
<g id="edge3_Node000002_Node000004" class="edge">
<title>Node2&#45;&gt;Node4</title>
<g id="a_edge3_Node000002_Node000004"><a xlink:title=" ">
<path fill="none" stroke="#63b8ff" d="M166.41,-274.75C166.41,-267.8 166.41,-257.85 166.41,-249.13"/>
<polygon fill="#63b8ff" stroke="#63b8ff" points="169.91,-249.09 166.41,-239.09 162.91,-249.09 169.91,-249.09"/>
</a>
</g>
</g>
<!-- Node5 -->
<g id="Node000005" class="node">
<title>Node5</title>
<g id="a_Node000005"><a xlink:href="_s_size_8h.html" target="_top" xlink:title=" ">
<polygon fill="white" stroke="#666666" points="115.41,-239 21.41,-239 21.41,-220 115.41,-220 115.41,-239"/>
<text text-anchor="middle" x="68.41" y="-227" font-family="Helvetica,sans-Serif" font-size="10.00">Kit/Type/SSize.h</text>
</a>
</g>
</g>
<!-- Node2&#45;&gt;Node5 -->
<g id="edge4_Node000002_Node000005" class="edge">
<title>Node2&#45;&gt;Node5</title>
<g id="a_edge4_Node000002_Node000005"><a xlink:title=" ">
<path fill="none" stroke="#63b8ff" d="M150.66,-274.98C135.18,-266.61 111.32,-253.7 93.27,-243.95"/>
<polygon fill="#63b8ff" stroke="#63b8ff" points="94.9,-240.85 84.44,-239.17 91.57,-247.01 94.9,-240.85"/>
</a>
</g>
</g>
<!-- Node6 -->
<g id="Node000006" class="node">
<title>Node6</title>
<g id="a_Node000006"><a xlink:title=" ">
<polygon fill="#e0e0e0" stroke="#999999" points="110.91,-74 57.91,-74 57.91,-55 110.91,-55 110.91,-74"/>
<text text-anchor="middle" x="84.41" y="-62" font-family="Helvetica,sans-Serif" font-size="10.00">stdint.h</text>
</a>
</g>
</g>
<!-- Node2&#45;&gt;Node6 -->
<g id="edge7_Node000002_Node000006" class="edge">
<title>Node2&#45;&gt;Node6</title>
<g id="a_edge7_Node000002_Node000006"><a xlink:title=" ">
<path fill="none" stroke="#63b8ff" d="M125.22,-277.26C84.39,-270.13 26,-257.07 12.41,-239 -25.9,-188.06 36.25,-113.78 67.79,-81.48"/>
<polygon fill="#63b8ff" stroke="#63b8ff" points="70.47,-83.76 75.08,-74.22 65.53,-78.8 70.47,-83.76"/>
</a>
</g>
</g>
<!-- Node5&#45;&gt;Node3 -->
<g id="edge5_Node000005_Node000003" class="edge">
<title>Node5&#45;&gt;Node3</title>
<g id="a_edge5_Node000005_Node000003"><a xlink:title=" ">
<path fill="none" stroke="#63b8ff" d="M73.03,-219.75C76.86,-212.49 82.43,-201.95 87.17,-192.98"/>
<polygon fill="#63b8ff" stroke="#63b8ff" points="90.29,-194.57 91.87,-184.09 84.1,-191.3 90.29,-194.57"/>
</a>
</g>
</g>
<!-- Node5&#45;&gt;Node6 -->
<g id="edge6_Node000005_Node000006" class="edge">
<title>Node5&#45;&gt;Node6</title>
<g id="a_edge6_Node000005_Node000006"><a xlink:title=" ">
<path fill="none" stroke="#63b8ff" d="M63.79,-219.94C59.35,-211.2 52.96,-197.09 50.41,-184 43.32,-147.58 61.42,-106.15 73.85,-83.19"/>
<polygon fill="#63b8ff" stroke="#63b8ff" points="77.01,-84.72 78.89,-74.29 70.92,-81.27 77.01,-84.72"/>
</a>
</g>
</g>
<!-- Node8 -->
<g id="Node000008" class="node">
<title>Node8</title>
<g id="a_Node000008"><a xlink:href="_server_message_8h.html" target="_top" xlink:title=" ">
<polygon fill="white" stroke="#666666" points="856.41,-294 724.41,-294 724.41,-275 856.41,-275 856.41,-294"/>
<text text-anchor="middle" x="790.41" y="-282" font-family="Helvetica,sans-Serif" font-size="10.00">Kit/Itc/ServerMessage.h</text>
</a>
</g>
</g>
<!-- Node7&#45;&gt;Node8 -->
<g id="edge9_Node000007_Node000008" class="edge">
<title>Node7&#45;&gt;Node8</title>
<g id="a_edge9_Node000007_Node000008"><a xlink:title=" ">
<path fill="none" stroke="#63b8ff" d="M533.57,-329.98C587.36,-320.67 673.57,-305.74 731.08,-295.78"/>
<polygon fill="#63b8ff" stroke="#63b8ff" points="731.86,-299.19 741.11,-294.04 730.66,-292.3 731.86,-299.19"/>
</a>
</g>
</g>
<!-- Node7&#45;&gt;Node13 -->
<g id="edge14_Node000007_Node000013" class="edge">
<title>Node7&#45;&gt;Node13</title>
<g id="a_edge14_Node000007_Node000013"><a xlink:title=" ">
<path fill="none" stroke="#63b8ff" d="M476.32,-329.75C469.25,-322.11 458.82,-310.82 450.26,-301.56"/>
<polygon fill="#63b8ff" stroke="#63b8ff" points="452.71,-299.06 443.35,-294.09 447.57,-303.81 452.71,-299.06"/>
</a>
</g>
</g>
<!-- Node9 -->
<g id="Node000009" class="node">
<title>Node9</title>
<g id="a_Node000009"><a xlink:href="_i_message_8h.html" target="_top" xlink:title=" ">
<polygon fill="white" stroke="#666666" points="1075.41,-129 971.41,-129 971.41,-110 1075.41,-110 1075.41,-129"/>
<text text-anchor="middle" x="1023.41" y="-117" font-family="Helvetica,sans-Serif" font-size="10.00">Kit/Itc/IMessage.h</text>
</a>
</g>
</g>
<!-- Node8&#45;&gt;Node9 -->
<g id="edge10_Node000008_Node000009" class="edge">
<title>Node8&#45;&gt;Node9</title>
<g id="a_edge10_Node000008_Node000009"><a xlink:title=" ">
<path fill="none" stroke="#63b8ff" d="M856.44,-280.32C921.96,-273.23 1019.2,-251.21 1066.41,-184 1078.01,-167.49 1060.8,-148.27 1044.83,-135.33"/>
<polygon fill="#63b8ff" stroke="#63b8ff" points="1046.82,-132.46 1036.75,-129.19 1042.59,-138.03 1046.82,-132.46"/>
</a>
</g>
</g>
<!-- Node12 -->
<g id="Node000012" class="node">
<title>Node12</title>
<g id="a_Node000012"><a xlink:href="_i_return_handler_8h.html" target="_top" xlink:title=" ">
<polygon fill="white" stroke="#666666" points="855.41,-239 725.41,-239 725.41,-220 855.41,-220 855.41,-239"/>
<text text-anchor="middle" x="790.41" y="-227" font-family="Helvetica,sans-Serif" font-size="10.00">Kit/Itc/IReturnHandler.h</text>
</a>
</g>
</g>
<!-- Node8&#45;&gt;Node12 -->
<g id="edge13_Node000008_Node000012" class="edge">
<title>Node8&#45;&gt;Node12</title>
<g id="a_edge13_Node000008_Node000012"><a xlink:title=" ">
<path fill="none" stroke="#63b8ff" d="M790.41,-274.75C790.41,-267.8 790.41,-257.85 790.41,-249.13"/>
<polygon fill="#63b8ff" stroke="#63b8ff" points="793.91,-249.09 790.41,-239.09 786.91,-249.09 793.91,-249.09"/>
</a>
</g>
</g>
<!-- Node10 -->
<g id="Node000010" class="node">
<title>Node10</title>
<g id="a_Node000010"><a xlink:href="_list_item_8h.html" target="_top" xlink:title=" ">
<polygon fill="white" stroke="#666666" points="993.41,-74 861.41,-74 861.41,-55 993.41,-55 993.41,-74"/>
<text text-anchor="middle" x="927.41" y="-62" font-family="Helvetica,sans-Serif" font-size="10.00">Kit/Container/ListItem.h</text>
</a>
</g>
</g>
<!-- Node9&#45;&gt;Node10 -->
<g id="edge11_Node000009_Node000010" class="edge">
<title>Node9&#45;&gt;Node10</title>
<g id="a_edge11_Node000009_Node000010"><a xlink:title=" ">
<path fill="none" stroke="#63b8ff" d="M1007.98,-109.98C992.96,-101.69 969.87,-88.94 952.25,-79.22"/>
<polygon fill="#63b8ff" stroke="#63b8ff" points="953.56,-75.94 943.11,-74.17 950.18,-82.07 953.56,-75.94"/>
</a>
</g>
</g>
<!-- Node11 -->
<g id="Node000011" class="node">
<title>Node11</title>
<g id="a_Node000011"><a xlink:href="_item_8h.html" target="_top" xlink:title=" ">
<polygon fill="white" stroke="#666666" points="984.91,-19 869.91,-19 869.91,0 984.91,0 984.91,-19"/>
<text text-anchor="middle" x="927.41" y="-7" font-family="Helvetica,sans-Serif" font-size="10.00">Kit/Container/Item.h</text>
</a>
</g>
</g>
<!-- Node10&#45;&gt;Node11 -->
<g id="edge12_Node000010_Node000011" class="edge">
<title>Node10&#45;&gt;Node11</title>
<g id="a_edge12_Node000010_Node000011"><a xlink:title=" ">
<path fill="none" stroke="#63b8ff" d="M927.41,-54.75C927.41,-47.8 927.41,-37.85 927.41,-29.13"/>
<polygon fill="#63b8ff" stroke="#63b8ff" points="930.91,-29.09 927.41,-19.09 923.91,-29.09 930.91,-29.09"/>
</a>
</g>
</g>
<!-- Node14 -->
<g id="Node000014" class="node">
<title>Node14</title>
<g id="a_Node000014"><a xlink:href="_i_queue_8h.html" target="_top" xlink:title=" ">
<polygon fill="white" stroke="#666666" points="504.91,-239 365.91,-239 365.91,-220 504.91,-220 504.91,-239"/>
<text text-anchor="middle" x="435.41" y="-227" font-family="Helvetica,sans-Serif" font-size="10.00">Kit/EventQueue/IQueue.h</text>
</a>
</g>
</g>
<!-- Node13&#45;&gt;Node14 -->
<g id="edge15_Node000013_Node000014" class="edge">
<title>Node13&#45;&gt;Node14</title>
<g id="a_edge15_Node000013_Node000014"><a xlink:title=" ">
<path fill="none" stroke="#63b8ff" d="M435.41,-274.75C435.41,-267.8 435.41,-257.85 435.41,-249.13"/>
<polygon fill="#63b8ff" stroke="#63b8ff" points="438.91,-249.09 435.41,-239.09 431.91,-249.09 438.91,-249.09"/>
</a>
</g>
</g>
<!-- Node14&#45;&gt;Node3 -->
<g id="edge16_Node000014_Node000003" class="edge">
<title>Node14&#45;&gt;Node3</title>
<g id="a_edge16_Node000014_Node000003"><a xlink:title=" ">
<path fill="none" stroke="#63b8ff" d="M379.09,-220C321.01,-211.19 227.83,-196.91 147.41,-184 146.11,-183.79 144.8,-183.58 143.47,-183.36"/>
<polygon fill="#63b8ff" stroke="#63b8ff" points="143.6,-179.84 133.17,-181.68 142.48,-186.75 143.6,-179.84"/>
</a>
</g>
</g>
<!-- Node15 -->
<g id="Node000015" class="node">
<title>Node15</title>
<g id="a_Node000015"><a xlink:href="_i_msg_notification_8h.html" target="_top" xlink:title=" ">
<polygon fill="white" stroke="#666666" points="737.41,-184 553.41,-184 553.41,-165 737.41,-165 737.41,-184"/>
<text text-anchor="middle" x="645.41" y="-172" font-family="Helvetica,sans-Serif" font-size="10.00">Kit/EventQueue/IMsgNotification.h</text>
</a>
</g>
</g>
<!-- Node14&#45;&gt;Node15 -->
<g id="edge17_Node000014_Node000015" class="edge">
<title>Node14&#45;&gt;Node15</title>
<g id="a_edge17_Node000014_Node000015"><a xlink:title=" ">
<path fill="none" stroke="#63b8ff" d="M469.15,-219.98C505.09,-210.91 562.13,-196.52 601.54,-186.57"/>
<polygon fill="#63b8ff" stroke="#63b8ff" points="602.56,-189.92 611.4,-184.08 600.85,-183.14 602.56,-189.92"/>
</a>
</g>
</g>
<!-- Node16 -->
<g id="Node000016" class="node">
<title>Node16</title>
<g id="a_Node000016"><a xlink:href="_i_timing_source_8h.html" target="_top" xlink:title=" ">
<polygon fill="white" stroke="#666666" points="907.41,-184 755.41,-184 755.41,-165 907.41,-165 907.41,-184"/>
<text text-anchor="middle" x="831.41" y="-172" font-family="Helvetica,sans-Serif" font-size="10.00">Kit/System/ITimingSource.h</text>
</a>
</g>
</g>
<!-- Node14&#45;&gt;Node16 -->
<g id="edge18_Node000014_Node000016" class="edge">
<title>Node14&#45;&gt;Node16</title>
<g id="a_edge18_Node000014_Node000016"><a xlink:title=" ">
<path fill="none" stroke="#63b8ff" d="M499.03,-219.98C569.51,-210.55 682.98,-195.36 757.38,-185.41"/>
<polygon fill="#63b8ff" stroke="#63b8ff" points="758.17,-188.83 767.61,-184.04 757.24,-181.9 758.17,-188.83"/>
</a>
</g>
</g>
<!-- Node18 -->
<g id="Node000018" class="node">
<title>Node18</title>
<g id="a_Node000018"><a xlink:href="_i_runnable_8h.html" target="_top" xlink:title=" ">
<polygon fill="white" stroke="#666666" points="1056.91,-184 925.91,-184 925.91,-165 1056.91,-165 1056.91,-184"/>
<text text-anchor="middle" x="991.41" y="-172" font-family="Helvetica,sans-Serif" font-size="10.00">Kit/System/IRunnable.h</text>
</a>
</g>
</g>
<!-- Node14&#45;&gt;Node18 -->
<g id="edge22_Node000014_Node000018" class="edge">
<title>Node14&#45;&gt;Node18</title>
<g id="a_edge22_Node000014_Node000018"><a xlink:title=" ">
<path fill="none" stroke="#63b8ff" d="M505.15,-222.5C596.75,-214.52 762.88,-199.7 915.53,-184.07"/>
<polygon fill="#63b8ff" stroke="#63b8ff" points="915.98,-187.54 925.57,-183.04 915.26,-180.58 915.98,-187.54"/>
</a>
</g>
</g>
<!-- Node19 -->
<g id="Node000019" class="node">
<title>Node19</title>
<g id="a_Node000019"><a xlink:href="_i_event_manager_8h.html" target="_top" xlink:title=" ">
<polygon fill="white" stroke="#666666" points="226.91,-129 71.91,-129 71.91,-110 226.91,-110 226.91,-129"/>
<text text-anchor="middle" x="149.41" y="-117" font-family="Helvetica,sans-Serif" font-size="10.00">Kit/System/IEventManager.h</text>
</a>
</g>
</g>
<!-- Node14&#45;&gt;Node19 -->
<g id="edge23_Node000014_Node000019" class="edge">
<title>Node14&#45;&gt;Node19</title>
<g id="a_edge23_Node000014_Node000019"><a xlink:title=" ">
<path fill="none" stroke="#63b8ff" d="M365.62,-223.42C300.42,-217.44 208.96,-205.47 180.41,-184 165.88,-173.07 157.78,-153.51 153.54,-138.98"/>
<polygon fill="#63b8ff" stroke="#63b8ff" points="156.87,-137.89 151,-129.07 150.09,-139.63 156.87,-137.89"/>
</a>
</g>
</g>
<!-- Node20 -->
<g id="Node000020" class="node">
<title>Node20</title>
<g id="a_Node000020"><a xlink:href="_i_signable_8h.html" target="_top" xlink:title=" ">
<polygon fill="white" stroke="#666666" points="316.91,-184 189.91,-184 189.91,-165 316.91,-165 316.91,-184"/>
<text text-anchor="middle" x="253.41" y="-172" font-family="Helvetica,sans-Serif" font-size="10.00">Kit/System/ISignable.h</text>
</a>
</g>
</g>
<!-- Node14&#45;&gt;Node20 -->
<g id="edge25_Node000014_Node000020" class="edge">
<title>Node14&#45;&gt;Node20</title>
<g id="a_edge25_Node000014_Node000020"><a xlink:title=" ">
<path fill="none" stroke="#63b8ff" d="M406.17,-219.98C375.35,-211.01 326.63,-196.82 292.52,-186.89"/>
<polygon fill="#63b8ff" stroke="#63b8ff" points="293.46,-183.52 282.88,-184.08 291.5,-190.24 293.46,-183.52"/>
</a>
</g>
</g>
<!-- Node21 -->
<g id="Node000021" class="node">
<title>Node21</title>
<g id="a_Node000021"><a xlink:href="_i_change_notification_8h.html" target="_top" xlink:title=" ">
<polygon fill="white" stroke="#666666" points="535.41,-184 335.41,-184 335.41,-165 535.41,-165 535.41,-184"/>
<text text-anchor="middle" x="435.41" y="-172" font-family="Helvetica,sans-Serif" font-size="10.00">Kit/EventQueue/IChangeNotification.h</text>
</a>
</g>
</g>
<!-- Node14&#45;&gt;Node21 -->
<g id="edge26_Node000014_Node000021" class="edge">
<title>Node14&#45;&gt;Node21</title>
<g id="a_edge26_Node000014_Node000021"><a xlink:title=" ">
<path fill="none" stroke="#63b8ff" d="M435.41,-219.75C435.41,-212.8 435.41,-202.85 435.41,-194.13"/>
<polygon fill="#63b8ff" stroke="#63b8ff" points="438.91,-194.09 435.41,-184.09 431.91,-194.09 438.91,-194.09"/>
</a>
</g>
</g>
<!-- Node17 -->
<g id="Node000017" class="node">
<title>Node17</title>
<g id="a_Node000017"><a xlink:href="_i_counter_8h.html" target="_top" xlink:title=" ">
<polygon fill="white" stroke="#666666" points="892.41,-129 770.41,-129 770.41,-110 892.41,-110 892.41,-129"/>
<text text-anchor="middle" x="831.41" y="-117" font-family="Helvetica,sans-Serif" font-size="10.00">Kit/System/ICounter.h</text>
</a>
</g>
</g>
<!-- Node16&#45;&gt;Node17 -->
<g id="edge19_Node000016_Node000017" class="edge">
<title>Node16&#45;&gt;Node17</title>
<g id="a_edge19_Node000016_Node000017"><a xlink:title=" ">
<path fill="none" stroke="#63b8ff" d="M831.41,-164.75C831.41,-157.8 831.41,-147.85 831.41,-139.13"/>
<polygon fill="#63b8ff" stroke="#63b8ff" points="834.91,-139.09 831.41,-129.09 827.91,-139.09 834.91,-139.09"/>
</a>
</g>
</g>
<!-- Node17&#45;&gt;Node6 -->
<g id="edge21_Node000017_Node000006" class="edge">
<title>Node17&#45;&gt;Node6</title>
<g id="a_edge21_Node000017_Node000006"><a xlink:title=" ">
<path fill="none" stroke="#63b8ff" d="M770.28,-114.16C620.95,-103.57 241.06,-76.61 121.22,-68.11"/>
<polygon fill="#63b8ff" stroke="#63b8ff" points="121.31,-64.61 111.09,-67.39 120.82,-71.59 121.31,-64.61"/>
</a>
</g>
</g>
<!-- Node17&#45;&gt;Node10 -->
<g id="edge20_Node000017_Node000010" class="edge">
<title>Node17&#45;&gt;Node10</title>
<g id="a_edge20_Node000017_Node000010"><a xlink:title=" ">
<path fill="none" stroke="#63b8ff" d="M846.83,-109.98C861.86,-101.69 884.95,-88.94 902.57,-79.22"/>
<polygon fill="#63b8ff" stroke="#63b8ff" points="904.64,-82.07 911.7,-74.17 901.26,-75.94 904.64,-82.07"/>
</a>
</g>
</g>
<!-- Node19&#45;&gt;Node6 -->
<g id="edge24_Node000019_Node000006" class="edge">
<title>Node19&#45;&gt;Node6</title>
<g id="a_edge24_Node000019_Node000006"><a xlink:title=" ">
<path fill="none" stroke="#63b8ff" d="M138.97,-109.98C129.26,-102.07 114.59,-90.11 102.91,-80.58"/>
<polygon fill="#63b8ff" stroke="#63b8ff" points="105,-77.78 95.04,-74.17 100.58,-83.2 105,-77.78"/>
</a>
</g>
</g>
</g>
</svg>
