<?xml version="1.0" encoding="UTF-8" standalone="no"?>
<!DOCTYPE svg PUBLIC "-//W3C//DTD SVG 1.1//EN"
 "http://www.w3.org/Graphics/SVG/1.1/DTD/svg11.dtd">
<!-- Generated by graphviz version 2.43.0 (0)
 -->
<!-- Title: Kit/Io/Socket/IListenerClientRequest.h Pages: 1 -->
<svg width="1314pt" height="423pt"
 viewBox="0.00 0.00 1313.50 423.00" xmlns="http://www.w3.org/2000/svg" xmlns:xlink="http://www.w3.org/1999/xlink">
<g id="graph0" class="graph" transform="scale(1 1) rotate(0) translate(4 419)">
<title>Kit/Io/Socket/IListenerClientRequest.h</title>
<!-- Node1 -->
<g id="Node000001" class="node">
<title>Node1</title>
<g id="a_Node000001"><a xlink:title=" ">
<polygon fill="#999999" stroke="#666666" points="517,-415 366,-415 366,-385 517,-385 517,-415"/>
<text text-anchor="start" x="374" y="-403" font-family="Helvetica,sans-Serif" font-size="10.00">Kit/Io/Socket/IListenerClient</text>
<text text-anchor="middle" x="441.5" y="-392" font-family="Helvetica,sans-Serif" font-size="10.00">Request.h</text>
</a>
</g>
</g>
<!-- Node2 -->
<g id="Node000002" class="node">
<title>Node2</title>
<g id="a_Node000002"><a xlink:href="_io_2_types_8h.html" target="_top" xlink:title=" ">
<polygon fill="white" stroke="#666666" points="167.5,-239 85.5,-239 85.5,-220 167.5,-220 167.5,-239"/>
<text text-anchor="middle" x="126.5" y="-227" font-family="Helvetica,sans-Serif" font-size="10.00">Kit/Io/Types.h</text>
</a>
</g>
</g>
<!-- Node1&#45;&gt;Node2 -->
<g id="edge1_Node000001_Node000002" class="edge">
<title>Node1&#45;&gt;Node2</title>
<g id="a_edge1_Node000001_Node000002"><a xlink:title=" ">
<path fill="none" stroke="#63b8ff" d="M415.19,-384.92C355.38,-352.93 209.9,-275.11 151.43,-243.84"/>
<polygon fill="#63b8ff" stroke="#63b8ff" points="152.98,-240.69 142.51,-239.06 149.67,-246.87 152.98,-240.69"/>
</a>
</g>
</g>
<!-- Node6 -->
<g id="Node000006" class="node">
<title>Node6</title>
<g id="a_Node000006"><a xlink:href="_request_message_8h.html" target="_top" xlink:title=" ">
<polygon fill="white" stroke="#666666" points="609.5,-349 469.5,-349 469.5,-330 609.5,-330 609.5,-349"/>
<text text-anchor="middle" x="539.5" y="-337" font-family="Helvetica,sans-Serif" font-size="10.00">Kit/Itc/RequestMessage.h</text>
</a>
</g>
</g>
<!-- Node1&#45;&gt;Node6 -->
<g id="edge5_Node000001_Node000006" class="edge">
<title>Node1&#45;&gt;Node6</title>
<g id="a_edge5_Node000001_Node000006"><a xlink:title=" ">
<path fill="none" stroke="#63b8ff" d="M465.22,-384.84C480.7,-375.6 500.82,-363.59 516.21,-354.4"/>
<polygon fill="#63b8ff" stroke="#63b8ff" points="518.31,-357.23 525.1,-349.09 514.72,-351.21 518.31,-357.23"/>
</a>
</g>
</g>
<!-- Node12 -->
<g id="Node000012" class="node">
<title>Node12</title>
<g id="a_Node000012"><a xlink:href="_s_a_p_8h.html" target="_top" xlink:title=" ">
<polygon fill="white" stroke="#666666" points="535,-294 460,-294 460,-275 535,-275 535,-294"/>
<text text-anchor="middle" x="497.5" y="-282" font-family="Helvetica,sans-Serif" font-size="10.00">Kit/Itc/SAP.h</text>
</a>
</g>
</g>
<!-- Node1&#45;&gt;Node12 -->
<g id="edge24_Node000001_Node000012" class="edge">
<title>Node1&#45;&gt;Node12</title>
<g id="a_edge24_Node000001_Node000012"><a xlink:title=" ">
<path fill="none" stroke="#63b8ff" d="M443.58,-384.87C446.11,-370.45 451.24,-347.73 460.5,-330 465.88,-319.69 473.97,-309.6 481.2,-301.65"/>
<polygon fill="#63b8ff" stroke="#63b8ff" points="483.93,-303.86 488.29,-294.21 478.86,-299.03 483.93,-303.86"/>
</a>
</g>
</g>
<!-- Node3 -->
<g id="Node000003" class="node">
<title>Node3</title>
<g id="a_Node000003"><a xlink:title=" ">
<polygon fill="#e0e0e0" stroke="#999999" points="195,-184 122,-184 122,-165 195,-165 195,-184"/>
<text text-anchor="middle" x="158.5" y="-172" font-family="Helvetica,sans-Serif" font-size="10.00">kit_config.h</text>
</a>
</g>
</g>
<!-- Node2&#45;&gt;Node3 -->
<g id="edge2_Node000002_Node000003" class="edge">
<title>Node2&#45;&gt;Node3</title>
<g id="a_edge2_Node000002_Node000003"><a xlink:title=" ">
<path fill="none" stroke="#63b8ff" d="M131.78,-219.75C136.21,-212.42 142.66,-201.73 148.12,-192.7"/>
<polygon fill="#63b8ff" stroke="#63b8ff" points="151.14,-194.46 153.31,-184.09 145.15,-190.84 151.14,-194.46"/>
</a>
</g>
</g>
<!-- Node4 -->
<g id="Node000004" class="node">
<title>Node4</title>
<g id="a_Node000004"><a xlink:title=" ">
<polygon fill="#e0e0e0" stroke="#999999" points="65,-184 0,-184 0,-165 65,-165 65,-184"/>
<text text-anchor="middle" x="32.5" y="-172" font-family="Helvetica,sans-Serif" font-size="10.00">kit_map.h</text>
</a>
</g>
</g>
<!-- Node2&#45;&gt;Node4 -->
<g id="edge3_Node000002_Node000004" class="edge">
<title>Node2&#45;&gt;Node4</title>
<g id="a_edge3_Node000002_Node000004"><a xlink:title=" ">
<path fill="none" stroke="#63b8ff" d="M111.4,-219.98C96.68,-211.69 74.08,-198.94 56.83,-189.22"/>
<polygon fill="#63b8ff" stroke="#63b8ff" points="58.31,-186.03 47.88,-184.17 54.87,-192.13 58.31,-186.03"/>
</a>
</g>
</g>
<!-- Node5 -->
<g id="Node000005" class="node">
<title>Node5</title>
<g id="a_Node000005"><a xlink:title=" ">
<polygon fill="#e0e0e0" stroke="#999999" points="250,-74 197,-74 197,-55 250,-55 250,-74"/>
<text text-anchor="middle" x="223.5" y="-62" font-family="Helvetica,sans-Serif" font-size="10.00">stdint.h</text>
</a>
</g>
</g>
<!-- Node2&#45;&gt;Node5 -->
<g id="edge4_Node000002_Node000005" class="edge">
<title>Node2&#45;&gt;Node5</title>
<g id="a_edge4_Node000002_Node000005"><a xlink:title=" ">
<path fill="none" stroke="#63b8ff" d="M122.9,-219.82C119.44,-210.99 114.47,-196.81 112.5,-184 107.25,-149.83 112.81,-135.19 136.5,-110 150.3,-95.33 170,-84.7 187.17,-77.51"/>
<polygon fill="#63b8ff" stroke="#63b8ff" points="188.9,-80.59 196.93,-73.67 186.34,-74.08 188.9,-80.59"/>
</a>
</g>
</g>
<!-- Node7 -->
<g id="Node000007" class="node">
<title>Node7</title>
<g id="a_Node000007"><a xlink:href="_server_message_8h.html" target="_top" xlink:title=" ">
<polygon fill="white" stroke="#666666" points="1213.5,-294 1081.5,-294 1081.5,-275 1213.5,-275 1213.5,-294"/>
<text text-anchor="middle" x="1147.5" y="-282" font-family="Helvetica,sans-Serif" font-size="10.00">Kit/Itc/ServerMessage.h</text>
</a>
</g>
</g>
<!-- Node6&#45;&gt;Node7 -->
<g id="edge6_Node000006_Node000007" class="edge">
<title>Node6&#45;&gt;Node7</title>
<g id="a_edge6_Node000006_Node000007"><a xlink:title=" ">
<path fill="none" stroke="#63b8ff" d="M609.54,-332.39C724.53,-322.37 952.42,-302.51 1071.3,-292.14"/>
<polygon fill="#63b8ff" stroke="#63b8ff" points="1071.76,-295.62 1081.41,-291.26 1071.15,-288.64 1071.76,-295.62"/>
</a>
</g>
</g>
<!-- Node6&#45;&gt;Node12 -->
<g id="edge11_Node000006_Node000012" class="edge">
<title>Node6&#45;&gt;Node12</title>
<g id="a_edge11_Node000006_Node000012"><a xlink:title=" ">
<path fill="none" stroke="#63b8ff" d="M532.56,-329.75C526.63,-322.26 517.93,-311.28 510.68,-302.13"/>
<polygon fill="#63b8ff" stroke="#63b8ff" points="513.26,-299.75 504.31,-294.09 507.77,-304.1 513.26,-299.75"/>
</a>
</g>
</g>
<!-- Node8 -->
<g id="Node000008" class="node">
<title>Node8</title>
<g id="a_Node000008"><a xlink:href="_i_message_8h.html" target="_top" xlink:title=" ">
<polygon fill="white" stroke="#666666" points="1137.5,-129 1033.5,-129 1033.5,-110 1137.5,-110 1137.5,-129"/>
<text text-anchor="middle" x="1085.5" y="-117" font-family="Helvetica,sans-Serif" font-size="10.00">Kit/Itc/IMessage.h</text>
</a>
</g>
</g>
<!-- Node7&#45;&gt;Node8 -->
<g id="edge7_Node000007_Node000008" class="edge">
<title>Node7&#45;&gt;Node8</title>
<g id="a_edge7_Node000007_Node000008"><a xlink:title=" ">
<path fill="none" stroke="#63b8ff" d="M1147.83,-274.93C1148.27,-254.66 1147.32,-202.65 1128.5,-165 1122.89,-153.79 1113.46,-143.55 1104.86,-135.73"/>
<polygon fill="#63b8ff" stroke="#63b8ff" points="1106.89,-132.86 1097.02,-129.02 1102.34,-138.18 1106.89,-132.86"/>
</a>
</g>
</g>
<!-- Node11 -->
<g id="Node000011" class="node">
<title>Node11</title>
<g id="a_Node000011"><a xlink:href="_i_return_handler_8h.html" target="_top" xlink:title=" ">
<polygon fill="white" stroke="#666666" points="1305.5,-239 1175.5,-239 1175.5,-220 1305.5,-220 1305.5,-239"/>
<text text-anchor="middle" x="1240.5" y="-227" font-family="Helvetica,sans-Serif" font-size="10.00">Kit/Itc/IReturnHandler.h</text>
</a>
</g>
</g>
<!-- Node7&#45;&gt;Node11 -->
<g id="edge10_Node000007_Node000011" class="edge">
<title>Node7&#45;&gt;Node11</title>
<g id="a_edge10_Node000007_Node000011"><a xlink:title=" ">
<path fill="none" stroke="#63b8ff" d="M1162.44,-274.98C1177,-266.69 1199.37,-253.94 1216.43,-244.22"/>
<polygon fill="#63b8ff" stroke="#63b8ff" points="1218.33,-247.16 1225.29,-239.17 1214.86,-241.08 1218.33,-247.16"/>
</a>
</g>
</g>
<!-- Node9 -->
<g id="Node000009" class="node">
<title>Node9</title>
<g id="a_Node000009"><a xlink:href="_list_item_8h.html" target="_top" xlink:title=" ">
<polygon fill="white" stroke="#666666" points="1055.5,-74 923.5,-74 923.5,-55 1055.5,-55 1055.5,-74"/>
<text text-anchor="middle" x="989.5" y="-62" font-family="Helvetica,sans-Serif" font-size="10.00">Kit/Container/ListItem.h</text>
</a>
</g>
</g>
<!-- Node8&#45;&gt;Node9 -->
<g id="edge8_Node000008_Node000009" class="edge">
<title>Node8&#45;&gt;Node9</title>
<g id="a_edge8_Node000008_Node000009"><a xlink:title=" ">
<path fill="none" stroke="#63b8ff" d="M1070.08,-109.98C1055.05,-101.69 1031.96,-88.94 1014.34,-79.22"/>
<polygon fill="#63b8ff" stroke="#63b8ff" points="1015.65,-75.94 1005.2,-74.17 1012.27,-82.07 1015.65,-75.94"/>
</a>
</g>
</g>
<!-- Node10 -->
<g id="Node000010" class="node">
<title>Node10</title>
<g id="a_Node000010"><a xlink:href="_item_8h.html" target="_top" xlink:title=" ">
<polygon fill="white" stroke="#666666" points="1047,-19 932,-19 932,0 1047,0 1047,-19"/>
<text text-anchor="middle" x="989.5" y="-7" font-family="Helvetica,sans-Serif" font-size="10.00">Kit/Container/Item.h</text>
</a>
</g>
</g>
<!-- Node9&#45;&gt;Node10 -->
<g id="edge9_Node000009_Node000010" class="edge">
<title>Node9&#45;&gt;Node10</title>
<g id="a_edge9_Node000009_Node000010"><a xlink:title=" ">
<path fill="none" stroke="#63b8ff" d="M989.5,-54.75C989.5,-47.8 989.5,-37.85 989.5,-29.13"/>
<polygon fill="#63b8ff" stroke="#63b8ff" points="993,-29.09 989.5,-19.09 986,-29.09 993,-29.09"/>
</a>
</g>
</g>
<!-- Node13 -->
<g id="Node000013" class="node">
<title>Node13</title>
<g id="a_Node000013"><a xlink:href="_i_queue_8h.html" target="_top" xlink:title=" ">
<polygon fill="white" stroke="#666666" points="567,-239 428,-239 428,-220 567,-220 567,-239"/>
<text text-anchor="middle" x="497.5" y="-227" font-family="Helvetica,sans-Serif" font-size="10.00">Kit/EventQueue/IQueue.h</text>
</a>
</g>
</g>
<!-- Node12&#45;&gt;Node13 -->
<g id="edge12_Node000012_Node000013" class="edge">
<title>Node12&#45;&gt;Node13</title>
<g id="a_edge12_Node000012_Node000013"><a xlink:title=" ">
<path fill="none" stroke="#63b8ff" d="M497.5,-274.75C497.5,-267.8 497.5,-257.85 497.5,-249.13"/>
<polygon fill="#63b8ff" stroke="#63b8ff" points="501,-249.09 497.5,-239.09 494,-249.09 501,-249.09"/>
</a>
</g>
</g>
<!-- Node13&#45;&gt;Node3 -->
<g id="edge13_Node000013_Node000003" class="edge">
<title>Node13&#45;&gt;Node3</title>
<g id="a_edge13_Node000013_Node000003"><a xlink:title=" ">
<path fill="none" stroke="#63b8ff" d="M441.18,-220C383.1,-211.19 289.92,-196.91 209.5,-184 208.2,-183.79 206.89,-183.58 205.56,-183.36"/>
<polygon fill="#63b8ff" stroke="#63b8ff" points="205.7,-179.84 195.26,-181.68 204.57,-186.75 205.7,-179.84"/>
</a>
</g>
</g>
<!-- Node14 -->
<g id="Node000014" class="node">
<title>Node14</title>
<g id="a_Node000014"><a xlink:href="_i_msg_notification_8h.html" target="_top" xlink:title=" ">
<polygon fill="white" stroke="#666666" points="799.5,-184 615.5,-184 615.5,-165 799.5,-165 799.5,-184"/>
<text text-anchor="middle" x="707.5" y="-172" font-family="Helvetica,sans-Serif" font-size="10.00">Kit/EventQueue/IMsgNotification.h</text>
</a>
</g>
</g>
<!-- Node13&#45;&gt;Node14 -->
<g id="edge14_Node000013_Node000014" class="edge">
<title>Node13&#45;&gt;Node14</title>
<g id="a_edge14_Node000013_Node000014"><a xlink:title=" ">
<path fill="none" stroke="#63b8ff" d="M531.24,-219.98C567.18,-210.91 624.22,-196.52 663.63,-186.57"/>
<polygon fill="#63b8ff" stroke="#63b8ff" points="664.66,-189.92 673.5,-184.08 662.94,-183.14 664.66,-189.92"/>
</a>
</g>
</g>
<!-- Node15 -->
<g id="Node000015" class="node">
<title>Node15</title>
<g id="a_Node000015"><a xlink:href="_i_timing_source_8h.html" target="_top" xlink:title=" ">
<polygon fill="white" stroke="#666666" points="969.5,-184 817.5,-184 817.5,-165 969.5,-165 969.5,-184"/>
<text text-anchor="middle" x="893.5" y="-172" font-family="Helvetica,sans-Serif" font-size="10.00">Kit/System/ITimingSource.h</text>
</a>
</g>
</g>
<!-- Node13&#45;&gt;Node15 -->
<g id="edge15_Node000013_Node000015" class="edge">
<title>Node13&#45;&gt;Node15</title>
<g id="a_edge15_Node000013_Node000015"><a xlink:title=" ">
<path fill="none" stroke="#63b8ff" d="M561.12,-219.98C631.6,-210.55 745.07,-195.36 819.48,-185.41"/>
<polygon fill="#63b8ff" stroke="#63b8ff" points="820.26,-188.83 829.71,-184.04 819.33,-181.9 820.26,-188.83"/>
</a>
</g>
</g>
<!-- Node17 -->
<g id="Node000017" class="node">
<title>Node17</title>
<g id="a_Node000017"><a xlink:href="_i_runnable_8h.html" target="_top" xlink:title=" ">
<polygon fill="white" stroke="#666666" points="1119,-184 988,-184 988,-165 1119,-165 1119,-184"/>
<text text-anchor="middle" x="1053.5" y="-172" font-family="Helvetica,sans-Serif" font-size="10.00">Kit/System/IRunnable.h</text>
</a>
</g>
</g>
<!-- Node13&#45;&gt;Node17 -->
<g id="edge19_Node000013_Node000017" class="edge">
<title>Node13&#45;&gt;Node17</title>
<g id="a_edge19_Node000013_Node000017"><a xlink:title=" ">
<path fill="none" stroke="#63b8ff" d="M567.24,-222.5C658.84,-214.52 824.97,-199.7 977.62,-184.07"/>
<polygon fill="#63b8ff" stroke="#63b8ff" points="978.07,-187.54 987.66,-183.04 977.35,-180.58 978.07,-187.54"/>
</a>
</g>
</g>
<!-- Node18 -->
<g id="Node000018" class="node">
<title>Node18</title>
<g id="a_Node000018"><a xlink:href="_i_event_manager_8h.html" target="_top" xlink:title=" ">
<polygon fill="white" stroke="#666666" points="301,-129 146,-129 146,-110 301,-110 301,-129"/>
<text text-anchor="middle" x="223.5" y="-117" font-family="Helvetica,sans-Serif" font-size="10.00">Kit/System/IEventManager.h</text>
</a>
</g>
</g>
<!-- Node13&#45;&gt;Node18 -->
<g id="edge20_Node000013_Node000018" class="edge">
<title>Node13&#45;&gt;Node18</title>
<g id="a_edge20_Node000013_Node000018"><a xlink:title=" ">
<path fill="none" stroke="#63b8ff" d="M427.85,-224.47C361.98,-219.26 269.33,-207.84 242.5,-184 230.01,-172.9 225.58,-153.97 224.08,-139.66"/>
<polygon fill="#63b8ff" stroke="#63b8ff" points="227.55,-139.16 223.41,-129.41 220.57,-139.61 227.55,-139.16"/>
</a>
</g>
</g>
<!-- Node19 -->
<g id="Node000019" class="node">
<title>Node19</title>
<g id="a_Node000019"><a xlink:href="_i_signable_8h.html" target="_top" xlink:title=" ">
<polygon fill="white" stroke="#666666" points="379,-184 252,-184 252,-165 379,-165 379,-184"/>
<text text-anchor="middle" x="315.5" y="-172" font-family="Helvetica,sans-Serif" font-size="10.00">Kit/System/ISignable.h</text>
</a>
</g>
</g>
<!-- Node13&#45;&gt;Node19 -->
<g id="edge22_Node000013_Node000019" class="edge">
<title>Node13&#45;&gt;Node19</title>
<g id="a_edge22_Node000013_Node000019"><a xlink:title=" ">
<path fill="none" stroke="#63b8ff" d="M468.26,-219.98C437.44,-211.01 388.72,-196.82 354.61,-186.89"/>
<polygon fill="#63b8ff" stroke="#63b8ff" points="355.55,-183.52 344.97,-184.08 353.59,-190.24 355.55,-183.52"/>
</a>
</g>
</g>
<!-- Node20 -->
<g id="Node000020" class="node">
<title>Node20</title>
<g id="a_Node000020"><a xlink:href="_i_change_notification_8h.html" target="_top" xlink:title=" ">
<polygon fill="white" stroke="#666666" points="597.5,-184 397.5,-184 397.5,-165 597.5,-165 597.5,-184"/>
<text text-anchor="middle" x="497.5" y="-172" font-family="Helvetica,sans-Serif" font-size="10.00">Kit/EventQueue/IChangeNotification.h</text>
</a>
</g>
</g>
<!-- Node13&#45;&gt;Node20 -->
<g id="edge23_Node000013_Node000020" class="edge">
<title>Node13&#45;&gt;Node20</title>
<g id="a_edge23_Node000013_Node000020"><a xlink:title=" ">
<path fill="none" stroke="#63b8ff" d="M497.5,-219.75C497.5,-212.8 497.5,-202.85 497.5,-194.13"/>
<polygon fill="#63b8ff" stroke="#63b8ff" points="501,-194.09 497.5,-184.09 494,-194.09 501,-194.09"/>
</a>
</g>
</g>
<!-- Node16 -->
<g id="Node000016" class="node">
<title>Node16</title>
<g id="a_Node000016"><a xlink:href="_i_counter_8h.html" target="_top" xlink:title=" ">
<polygon fill="white" stroke="#666666" points="954.5,-129 832.5,-129 832.5,-110 954.5,-110 954.5,-129"/>
<text text-anchor="middle" x="893.5" y="-117" font-family="Helvetica,sans-Serif" font-size="10.00">Kit/System/ICounter.h</text>
</a>
</g>
</g>
<!-- Node15&#45;&gt;Node16 -->
<g id="edge16_Node000015_Node000016" class="edge">
<title>Node15&#45;&gt;Node16</title>
<g id="a_edge16_Node000015_Node000016"><a xlink:title=" ">
<path fill="none" stroke="#63b8ff" d="M893.5,-164.75C893.5,-157.8 893.5,-147.85 893.5,-139.13"/>
<polygon fill="#63b8ff" stroke="#63b8ff" points="897,-139.09 893.5,-129.09 890,-139.09 897,-139.09"/>
</a>
</g>
</g>
<!-- Node16&#45;&gt;Node5 -->
<g id="edge18_Node000016_Node000005" class="edge">
<title>Node16&#45;&gt;Node5</title>
<g id="a_edge18_Node000016_Node000005"><a xlink:title=" ">
<path fill="none" stroke="#63b8ff" d="M832.27,-113.66C695.8,-102.86 370.12,-77.1 260.34,-68.41"/>
<polygon fill="#63b8ff" stroke="#63b8ff" points="260.35,-64.9 250.11,-67.6 259.8,-71.88 260.35,-64.9"/>
</a>
</g>
</g>
<!-- Node16&#45;&gt;Node9 -->
<g id="edge17_Node000016_Node000009" class="edge">
<title>Node16&#45;&gt;Node9</title>
<g id="a_edge17_Node000016_Node000009"><a xlink:title=" ">
<path fill="none" stroke="#63b8ff" d="M908.92,-109.98C923.95,-101.69 947.04,-88.94 964.66,-79.22"/>
<polygon fill="#63b8ff" stroke="#63b8ff" points="966.73,-82.07 973.8,-74.17 963.35,-75.94 966.73,-82.07"/>
</a>
</g>
</g>
<!-- Node18&#45;&gt;Node5 -->
<g id="edge21_Node000018_Node000005" class="edge">
<title>Node18&#45;&gt;Node5</title>
<g id="a_edge21_Node000018_Node000005"><a xlink:title=" ">
<path fill="none" stroke="#63b8ff" d="M223.5,-109.75C223.5,-102.8 223.5,-92.85 223.5,-84.13"/>
<polygon fill="#63b8ff" stroke="#63b8ff" points="227,-84.09 223.5,-74.09 220,-84.09 227,-84.09"/>
</a>
</g>
</g>
</g>
</svg>
