<?xml version="1.0" encoding="UTF-8" standalone="no"?>
<!DOCTYPE svg PUBLIC "-//W3C//DTD SVG 1.1//EN"
 "http://www.w3.org/Graphics/SVG/1.1/DTD/svg11.dtd">
<!-- Generated by graphviz version 2.43.0 (0)
 -->
<!-- Title: Kit/EventQueue/IMsgNotification.h Pages: 1 -->
<svg width="591pt" height="423pt"
 viewBox="0.00 0.00 591.40 423.00" xmlns="http://www.w3.org/2000/svg" xmlns:xlink="http://www.w3.org/1999/xlink">
<g id="graph0" class="graph" transform="scale(1 1) rotate(0) translate(4 419)">
<title>Kit/EventQueue/IMsgNotification.h</title>
<!-- Node1 -->
<g id="Node000001" class="node">
<title>Node1</title>
<g id="a_Node000001"><a xlink:title=" ">
<polygon fill="#999999" stroke="#666666" points="453.9,-415 269.9,-415 269.9,-396 453.9,-396 453.9,-415"/>
<text text-anchor="middle" x="361.9" y="-403" font-family="Helvetica,sans-Serif" font-size="10.00">Kit/EventQueue/IMsgNotification.h</text>
</a>
</g>
</g>
<!-- Node2 -->
<g id="Node000002" class="node">
<title>Node2</title>
<g id="a_Node000002"><a xlink:href="_i_queue_8h.html" target="_top" xlink:title=" ">
<polygon fill="white" stroke="#666666" points="431.4,-360 292.4,-360 292.4,-341 431.4,-341 431.4,-360"/>
<text text-anchor="middle" x="361.9" y="-348" font-family="Helvetica,sans-Serif" font-size="10.00">Kit/EventQueue/IQueue.h</text>
</a>
</g>
</g>
<!-- Node1&#45;&gt;Node2 -->
<g id="edge1_Node000001_Node000002" class="edge">
<title>Node1&#45;&gt;Node2</title>
<g id="a_edge1_Node000001_Node000002"><a xlink:title=" ">
<path fill="none" stroke="#63b8ff" d="M361.9,-385.66C361.9,-376.93 361.9,-366.99 361.9,-360.09"/>
<polygon fill="#63b8ff" stroke="#63b8ff" points="358.4,-385.75 361.9,-395.75 365.4,-385.75 358.4,-385.75"/>
</a>
</g>
</g>
<!-- Node3 -->
<g id="Node000003" class="node">
<title>Node3</title>
<g id="a_Node000003"><a xlink:href="_async_return_handler_8h.html" target="_top" xlink:title=" ">
<polygon fill="white" stroke="#666666" points="331.9,-250 175.9,-250 175.9,-231 331.9,-231 331.9,-250"/>
<text text-anchor="middle" x="253.9" y="-238" font-family="Helvetica,sans-Serif" font-size="10.00">Kit/Itc/AsyncReturnHandler.h</text>
</a>
</g>
</g>
<!-- Node2&#45;&gt;Node3 -->
<g id="edge2_Node000002_Node000003" class="edge">
<title>Node2&#45;&gt;Node3</title>
<g id="a_edge2_Node000002_Node000003"><a xlink:title=" ">
<path fill="none" stroke="#63b8ff" d="M345.71,-333.3C322.5,-310.1 280.61,-268.21 262.56,-250.16"/>
<polygon fill="#63b8ff" stroke="#63b8ff" points="343.52,-336.07 353.07,-340.66 348.47,-331.12 343.52,-336.07"/>
</a>
</g>
</g>
<!-- Node8 -->
<g id="Node000008" class="node">
<title>Node8</title>
<g id="a_Node000008"><a xlink:href="_open_sync_8h.html" target="_top" xlink:title=" ">
<polygon fill="white" stroke="#666666" points="284.9,-74 178.9,-74 178.9,-55 284.9,-55 284.9,-74"/>
<text text-anchor="middle" x="231.9" y="-62" font-family="Helvetica,sans-Serif" font-size="10.00">Kit/Itc/OpenSync.h</text>
</a>
</g>
</g>
<!-- Node2&#45;&gt;Node8 -->
<g id="edge12_Node000002_Node000008" class="edge">
<title>Node2&#45;&gt;Node8</title>
<g id="a_edge12_Node000002_Node000008"><a xlink:title=" ">
<path fill="none" stroke="#63b8ff" d="M371.66,-331.92C382.32,-311.03 397.9,-274.79 397.9,-241.5 397.9,-241.5 397.9,-241.5 397.9,-179 397.9,-117.9 320.33,-87.3 271.24,-74.05"/>
<polygon fill="#63b8ff" stroke="#63b8ff" points="368.51,-330.39 366.91,-340.87 374.69,-333.68 368.51,-330.39"/>
</a>
</g>
</g>
<!-- Node9 -->
<g id="Node000009" class="node">
<title>Node9</title>
<g id="a_Node000009"><a xlink:href="_mailbox_8h.html" target="_top" xlink:title=" ">
<polygon fill="white" stroke="#666666" points="536.9,-305 440.9,-305 440.9,-286 536.9,-286 536.9,-305"/>
<text text-anchor="middle" x="488.9" y="-293" font-family="Helvetica,sans-Serif" font-size="10.00">Kit/Itc/Mailbox.h</text>
</a>
</g>
</g>
<!-- Node2&#45;&gt;Node9 -->
<g id="edge9_Node000002_Node000009" class="edge">
<title>Node2&#45;&gt;Node9</title>
<g id="a_edge9_Node000002_Node000009"><a xlink:title=" ">
<path fill="none" stroke="#63b8ff" d="M391.79,-337.03C415.27,-327.23 447.38,-313.83 468.13,-305.17"/>
<polygon fill="#63b8ff" stroke="#63b8ff" points="390.19,-333.9 382.31,-340.98 392.89,-340.36 390.19,-333.9"/>
</a>
</g>
</g>
<!-- Node12 -->
<g id="Node000012" class="node">
<title>Node12</title>
<g id="a_Node000012"><a xlink:href="_s_a_p_8h.html" target="_top" xlink:title=" ">
<polygon fill="white" stroke="#666666" points="211.4,-305 136.4,-305 136.4,-286 211.4,-286 211.4,-305"/>
<text text-anchor="middle" x="173.9" y="-293" font-family="Helvetica,sans-Serif" font-size="10.00">Kit/Itc/SAP.h</text>
</a>
</g>
</g>
<!-- Node2&#45;&gt;Node12 -->
<g id="edge13_Node000002_Node000012" class="edge">
<title>Node2&#45;&gt;Node12</title>
<g id="a_edge13_Node000002_Node000012"><a xlink:title=" ">
<path fill="none" stroke="#63b8ff" d="M321.76,-338.18C286.6,-328.27 236.27,-314.08 204.35,-305.08"/>
<polygon fill="#63b8ff" stroke="#63b8ff" points="321.12,-341.64 331.7,-340.98 323.02,-334.9 321.12,-341.64"/>
</a>
</g>
</g>
<!-- Node4 -->
<g id="Node000004" class="node">
<title>Node4</title>
<g id="a_Node000004"><a xlink:href="_response_message_8h.html" target="_top" xlink:title=" ">
<polygon fill="white" stroke="#666666" points="304.9,-189.5 156.9,-189.5 156.9,-170.5 304.9,-170.5 304.9,-189.5"/>
<text text-anchor="middle" x="230.9" y="-177.5" font-family="Helvetica,sans-Serif" font-size="10.00">Kit/Itc/ResponseMessage.h</text>
</a>
</g>
</g>
<!-- Node3&#45;&gt;Node4 -->
<g id="edge3_Node000003_Node000004" class="edge">
<title>Node3&#45;&gt;Node4</title>
<g id="a_edge3_Node000003_Node000004"><a xlink:title=" ">
<path fill="none" stroke="#63b8ff" d="M246.76,-221.32C242.61,-210.78 237.58,-197.98 234.31,-189.67"/>
<polygon fill="#63b8ff" stroke="#63b8ff" points="243.59,-222.84 250.51,-230.87 250.11,-220.28 243.59,-222.84"/>
</a>
</g>
</g>
<!-- Node5 -->
<g id="Node000005" class="node">
<title>Node5</title>
<g id="a_Node000005"><a xlink:href="_i_close_request_8h.html" target="_top" xlink:title=" ">
<polygon fill="white" stroke="#666666" points="151.4,-129 24.4,-129 24.4,-110 151.4,-110 151.4,-129"/>
<text text-anchor="middle" x="87.9" y="-117" font-family="Helvetica,sans-Serif" font-size="10.00">Kit/Itc/ICloseRequest.h</text>
</a>
</g>
</g>
<!-- Node4&#45;&gt;Node5 -->
<g id="edge4_Node000004_Node000005" class="edge">
<title>Node4&#45;&gt;Node5</title>
<g id="a_edge4_Node000004_Node000005"><a xlink:title=" ">
<path fill="none" stroke="#63b8ff" d="M200.55,-166.58C172.92,-155.28 132.88,-138.9 108.72,-129.02"/>
<polygon fill="#63b8ff" stroke="#63b8ff" points="199.53,-169.95 210.11,-170.49 202.18,-163.47 199.53,-169.95"/>
</a>
</g>
</g>
<!-- Node7 -->
<g id="Node000007" class="node">
<title>Node7</title>
<g id="a_Node000007"><a xlink:href="_i_open_request_8h.html" target="_top" xlink:title=" ">
<polygon fill="white" stroke="#666666" points="294.4,-129 169.4,-129 169.4,-110 294.4,-110 294.4,-129"/>
<text text-anchor="middle" x="231.9" y="-117" font-family="Helvetica,sans-Serif" font-size="10.00">Kit/Itc/IOpenRequest.h</text>
</a>
</g>
</g>
<!-- Node4&#45;&gt;Node7 -->
<g id="edge6_Node000004_Node000007" class="edge">
<title>Node4&#45;&gt;Node7</title>
<g id="a_edge6_Node000004_Node000007"><a xlink:title=" ">
<path fill="none" stroke="#63b8ff" d="M231.23,-160.16C231.4,-149.74 231.62,-137.3 231.76,-129.17"/>
<polygon fill="#63b8ff" stroke="#63b8ff" points="227.72,-160.31 231.05,-170.37 234.72,-160.43 227.72,-160.31"/>
</a>
</g>
</g>
<!-- Node6 -->
<g id="Node000006" class="node">
<title>Node6</title>
<g id="a_Node000006"><a xlink:href="_open_close_sync_8h.html" target="_top" xlink:title=" ">
<polygon fill="white" stroke="#666666" points="226.4,-19 93.4,-19 93.4,0 226.4,0 226.4,-19"/>
<text text-anchor="middle" x="159.9" y="-7" font-family="Helvetica,sans-Serif" font-size="10.00">Kit/Itc/OpenCloseSync.h</text>
</a>
</g>
</g>
<!-- Node5&#45;&gt;Node6 -->
<g id="edge5_Node000005_Node000006" class="edge">
<title>Node5&#45;&gt;Node6</title>
<g id="a_edge5_Node000005_Node000006"><a xlink:title=" ">
<path fill="none" stroke="#63b8ff" d="M99.52,-101.07C115.14,-77.64 142.31,-36.89 154.13,-19.16"/>
<polygon fill="#63b8ff" stroke="#63b8ff" points="96.43,-99.4 93.8,-109.66 102.26,-103.28 96.43,-99.4"/>
</a>
</g>
</g>
<!-- Node7&#45;&gt;Node8 -->
<g id="edge7_Node000007_Node000008" class="edge">
<title>Node7&#45;&gt;Node8</title>
<g id="a_edge7_Node000007_Node000008"><a xlink:title=" ">
<path fill="none" stroke="#63b8ff" d="M231.9,-99.66C231.9,-90.93 231.9,-80.99 231.9,-74.09"/>
<polygon fill="#63b8ff" stroke="#63b8ff" points="228.4,-99.75 231.9,-109.75 235.4,-99.75 228.4,-99.75"/>
</a>
</g>
</g>
<!-- Node8&#45;&gt;Node6 -->
<g id="edge8_Node000008_Node000006" class="edge">
<title>Node8&#45;&gt;Node6</title>
<g id="a_edge8_Node000008_Node000006"><a xlink:title=" ">
<path fill="none" stroke="#63b8ff" d="M212.04,-48.88C199.08,-39.34 182.61,-27.21 171.68,-19.17"/>
<polygon fill="#63b8ff" stroke="#63b8ff" points="210.21,-51.88 220.34,-54.98 214.36,-46.24 210.21,-51.88"/>
</a>
</g>
</g>
<!-- Node10 -->
<g id="Node000010" class="node">
<title>Node10</title>
<g id="a_Node000010"><a xlink:href="_server_8h.html" target="_top" xlink:title=" ">
<polygon fill="white" stroke="#666666" points="567.4,-250 432.4,-250 432.4,-231 567.4,-231 567.4,-250"/>
<text text-anchor="middle" x="499.9" y="-238" font-family="Helvetica,sans-Serif" font-size="10.00">Kit/EventQueue/Server.h</text>
</a>
</g>
</g>
<!-- Node9&#45;&gt;Node10 -->
<g id="edge10_Node000009_Node000010" class="edge">
<title>Node9&#45;&gt;Node10</title>
<g id="a_edge10_Node000009_Node000010"><a xlink:title=" ">
<path fill="none" stroke="#63b8ff" d="M492.75,-275.95C494.58,-267.15 496.67,-257.06 498.12,-250.09"/>
<polygon fill="#63b8ff" stroke="#63b8ff" points="489.33,-275.25 490.72,-285.75 496.18,-276.67 489.33,-275.25"/>
</a>
</g>
</g>
<!-- Node11 -->
<g id="Node000011" class="node">
<title>Node11</title>
<g id="a_Node000011"><a xlink:href="_with_periodic_scheduling_8h.html" target="_top" xlink:title=" ">
<polygon fill="white" stroke="#666666" points="583.4,-195 426.4,-195 426.4,-165 583.4,-165 583.4,-195"/>
<text text-anchor="start" x="434.4" y="-183" font-family="Helvetica,sans-Serif" font-size="10.00">Kit/EventQueue/WithPeriodic</text>
<text text-anchor="middle" x="504.9" y="-172" font-family="Helvetica,sans-Serif" font-size="10.00">Scheduling.h</text>
</a>
</g>
</g>
<!-- Node10&#45;&gt;Node11 -->
<g id="edge11_Node000010_Node000011" class="edge">
<title>Node10&#45;&gt;Node11</title>
<g id="a_edge11_Node000010_Node000011"><a xlink:title=" ">
<path fill="none" stroke="#63b8ff" d="M501.51,-220.65C502.22,-212.36 503.04,-202.78 503.7,-195.11"/>
<polygon fill="#63b8ff" stroke="#63b8ff" points="498.01,-220.61 500.64,-230.87 504.98,-221.2 498.01,-220.61"/>
</a>
</g>
</g>
<!-- Node12&#45;&gt;Node5 -->
<g id="edge14_Node000012_Node000005" class="edge">
<title>Node12&#45;&gt;Node5</title>
<g id="a_edge14_Node000012_Node000005"><a xlink:title=" ">
<path fill="none" stroke="#63b8ff" d="M126.02,-288.09C82.55,-281.17 23.14,-268.59 8.9,-250 -23.77,-207.35 45.8,-150.44 75.41,-129.08"/>
<polygon fill="#63b8ff" stroke="#63b8ff" points="125.71,-291.58 136.13,-289.64 126.78,-284.66 125.71,-291.58"/>
</a>
</g>
</g>
<!-- Node12&#45;&gt;Node7 -->
<g id="edge15_Node000012_Node000007" class="edge">
<title>Node12&#45;&gt;Node7</title>
<g id="a_edge15_Node000012_Node000007"><a xlink:title=" ">
<path fill="none" stroke="#63b8ff" d="M221.7,-288.28C265.74,-281.44 326.4,-268.87 340.9,-250 358.76,-226.77 341.71,-196.01 313.9,-165 298.66,-148 275.33,-136.22 257.45,-129.08"/>
<polygon fill="#63b8ff" stroke="#63b8ff" points="221.11,-284.82 211.74,-289.77 222.15,-291.75 221.11,-284.82"/>
</a>
</g>
</g>
<!-- Node13 -->
<g id="Node000013" class="node">
<title>Node13</title>
<g id="a_Node000013"><a xlink:href="_request_message_8h.html" target="_top" xlink:title=" ">
<polygon fill="white" stroke="#666666" points="157.9,-250 17.9,-250 17.9,-231 157.9,-231 157.9,-250"/>
<text text-anchor="middle" x="87.9" y="-238" font-family="Helvetica,sans-Serif" font-size="10.00">Kit/Itc/RequestMessage.h</text>
</a>
</g>
</g>
<!-- Node12&#45;&gt;Node13 -->
<g id="edge16_Node000012_Node000013" class="edge">
<title>Node12&#45;&gt;Node13</title>
<g id="a_edge16_Node000012_Node000013"><a xlink:title=" ">
<path fill="none" stroke="#63b8ff" d="M151.5,-280.7C135.84,-271.04 115.4,-258.44 101.97,-250.17"/>
<polygon fill="#63b8ff" stroke="#63b8ff" points="149.74,-283.72 160.09,-285.98 153.41,-277.76 149.74,-283.72"/>
</a>
</g>
</g>
<!-- Node13&#45;&gt;Node4 -->
<g id="edge19_Node000013_Node000004" class="edge">
<title>Node13&#45;&gt;Node4</title>
<g id="a_edge19_Node000013_Node000004"><a xlink:title=" ">
<path fill="none" stroke="#63b8ff" d="M118.26,-227.08C145.88,-215.78 185.93,-199.4 210.09,-189.52"/>
<polygon fill="#63b8ff" stroke="#63b8ff" points="116.63,-223.97 108.7,-230.99 119.28,-230.45 116.63,-223.97"/>
</a>
</g>
</g>
<!-- Node13&#45;&gt;Node5 -->
<g id="edge17_Node000013_Node000005" class="edge">
<title>Node13&#45;&gt;Node5</title>
<g id="a_edge17_Node000013_Node000005"><a xlink:title=" ">
<path fill="none" stroke="#63b8ff" d="M87.9,-220.86C87.9,-194.81 87.9,-148.56 87.9,-129.3"/>
<polygon fill="#63b8ff" stroke="#63b8ff" points="84.4,-220.94 87.9,-230.94 91.4,-220.94 84.4,-220.94"/>
</a>
</g>
</g>
<!-- Node13&#45;&gt;Node7 -->
<g id="edge18_Node000013_Node000007" class="edge">
<title>Node13&#45;&gt;Node7</title>
<g id="a_edge18_Node000013_Node000007"><a xlink:title=" ">
<path fill="none" stroke="#63b8ff" d="M98.83,-222.19C109.75,-205.9 127.77,-181.61 147.9,-165 166.87,-149.35 192.21,-136.84 210.09,-129.12"/>
<polygon fill="#63b8ff" stroke="#63b8ff" points="95.79,-220.44 93.26,-230.73 101.65,-224.26 95.79,-220.44"/>
</a>
</g>
</g>
</g>
</svg>
