<?xml version="1.0" encoding="UTF-8" standalone="no"?>
<!DOCTYPE svg PUBLIC "-//W3C//DTD SVG 1.1//EN"
 "http://www.w3.org/Graphics/SVG/1.1/DTD/svg11.dtd">
<!-- Generated by graphviz version 2.43.0 (0)
 -->
<!-- Title: Kit/Itc/IMessage.h Pages: 1 -->
<svg width="625pt" height="445pt"
 viewBox="0.00 0.00 625.00 445.00" xmlns="http://www.w3.org/2000/svg" xmlns:xlink="http://www.w3.org/1999/xlink">
<g id="graph0" class="graph" transform="scale(1 1) rotate(0) translate(4 441)">
<title>Kit/Itc/IMessage.h</title>
<!-- Node1 -->
<g id="Node000001" class="node">
<title>Node1</title>
<g id="a_Node000001"><a xlink:title=" ">
<polygon fill="#999999" stroke="#666666" points="268.5,-437 164.5,-437 164.5,-418 268.5,-418 268.5,-437"/>
<text text-anchor="middle" x="216.5" y="-425" font-family="Helvetica,sans-Serif" font-size="10.00">Kit/Itc/IMessage.h</text>
</a>
</g>
</g>
<!-- Node2 -->
<g id="Node000002" class="node">
<title>Node2</title>
<g id="a_Node000002"><a xlink:href="_mailbox_8h.html" target="_top" xlink:title=" ">
<polygon fill="white" stroke="#666666" points="198.5,-382 102.5,-382 102.5,-363 198.5,-363 198.5,-382"/>
<text text-anchor="middle" x="150.5" y="-370" font-family="Helvetica,sans-Serif" font-size="10.00">Kit/Itc/Mailbox.h</text>
</a>
</g>
</g>
<!-- Node1&#45;&gt;Node2 -->
<g id="edge1_Node000001_Node000002" class="edge">
<title>Node1&#45;&gt;Node2</title>
<g id="a_edge1_Node000001_Node000002"><a xlink:title=" ">
<path fill="none" stroke="#63b8ff" d="M197.95,-411.6C186.12,-402.11 171.21,-390.13 161.3,-382.17"/>
<polygon fill="#63b8ff" stroke="#63b8ff" points="195.91,-414.45 205.9,-417.98 200.29,-408.99 195.91,-414.45"/>
</a>
</g>
</g>
<!-- Node5 -->
<g id="Node000005" class="node">
<title>Node5</title>
<g id="a_Node000005"><a xlink:href="_server_message_8h.html" target="_top" xlink:title=" ">
<polygon fill="white" stroke="#666666" points="354.5,-382 222.5,-382 222.5,-363 354.5,-363 354.5,-382"/>
<text text-anchor="middle" x="288.5" y="-370" font-family="Helvetica,sans-Serif" font-size="10.00">Kit/Itc/ServerMessage.h</text>
</a>
</g>
</g>
<!-- Node1&#45;&gt;Node5 -->
<g id="edge4_Node000001_Node000005" class="edge">
<title>Node1&#45;&gt;Node5</title>
<g id="a_edge4_Node000001_Node000005"><a xlink:title=" ">
<path fill="none" stroke="#63b8ff" d="M236.37,-411.88C249.32,-402.34 265.8,-390.21 276.72,-382.17"/>
<polygon fill="#63b8ff" stroke="#63b8ff" points="234.05,-409.24 228.07,-417.98 238.2,-414.88 234.05,-409.24"/>
</a>
</g>
</g>
<!-- Node3 -->
<g id="Node000003" class="node">
<title>Node3</title>
<g id="a_Node000003"><a xlink:href="_server_8h.html" target="_top" xlink:title=" ">
<polygon fill="white" stroke="#666666" points="206,-327 71,-327 71,-308 206,-308 206,-327"/>
<text text-anchor="middle" x="138.5" y="-315" font-family="Helvetica,sans-Serif" font-size="10.00">Kit/EventQueue/Server.h</text>
</a>
</g>
</g>
<!-- Node2&#45;&gt;Node3 -->
<g id="edge2_Node000002_Node000003" class="edge">
<title>Node2&#45;&gt;Node3</title>
<g id="a_edge2_Node000002_Node000003"><a xlink:title=" ">
<path fill="none" stroke="#63b8ff" d="M146.3,-352.95C144.31,-344.15 142.02,-334.06 140.44,-327.09"/>
<polygon fill="#63b8ff" stroke="#63b8ff" points="142.9,-353.77 148.52,-362.75 149.72,-352.22 142.9,-353.77"/>
</a>
</g>
</g>
<!-- Node4 -->
<g id="Node000004" class="node">
<title>Node4</title>
<g id="a_Node000004"><a xlink:href="_with_periodic_scheduling_8h.html" target="_top" xlink:title=" ">
<polygon fill="white" stroke="#666666" points="157,-272 0,-272 0,-242 157,-242 157,-272"/>
<text text-anchor="start" x="8" y="-260" font-family="Helvetica,sans-Serif" font-size="10.00">Kit/EventQueue/WithPeriodic</text>
<text text-anchor="middle" x="78.5" y="-249" font-family="Helvetica,sans-Serif" font-size="10.00">Scheduling.h</text>
</a>
</g>
</g>
<!-- Node3&#45;&gt;Node4 -->
<g id="edge3_Node000003_Node000004" class="edge">
<title>Node3&#45;&gt;Node4</title>
<g id="a_edge3_Node000003_Node000004"><a xlink:title=" ">
<path fill="none" stroke="#63b8ff" d="M122.29,-300.7C113.15,-291.78 101.82,-280.74 92.98,-272.11"/>
<polygon fill="#63b8ff" stroke="#63b8ff" points="120.04,-303.39 129.65,-307.87 124.93,-298.38 120.04,-303.39"/>
</a>
</g>
</g>
<!-- Node6 -->
<g id="Node000006" class="node">
<title>Node6</title>
<g id="a_Node000006"><a xlink:href="_request_message_8h.html" target="_top" xlink:title=" ">
<polygon fill="white" stroke="#666666" points="424.5,-327 284.5,-327 284.5,-308 424.5,-308 424.5,-327"/>
<text text-anchor="middle" x="354.5" y="-315" font-family="Helvetica,sans-Serif" font-size="10.00">Kit/Itc/RequestMessage.h</text>
</a>
</g>
</g>
<!-- Node5&#45;&gt;Node6 -->
<g id="edge5_Node000005_Node000006" class="edge">
<title>Node5&#45;&gt;Node6</title>
<g id="a_edge5_Node000005_Node000006"><a xlink:title=" ">
<path fill="none" stroke="#63b8ff" d="M307.05,-356.6C318.88,-347.11 333.79,-335.13 343.7,-327.17"/>
<polygon fill="#63b8ff" stroke="#63b8ff" points="304.71,-353.99 299.1,-362.98 309.09,-359.45 304.71,-353.99"/>
</a>
</g>
</g>
<!-- Node7 -->
<g id="Node000007" class="node">
<title>Node7</title>
<g id="a_Node000007"><a xlink:href="_i_listener_client_request_8h.html" target="_top" xlink:title=" ">
<polygon fill="white" stroke="#666666" points="326,-272 175,-272 175,-242 326,-242 326,-272"/>
<text text-anchor="start" x="183" y="-260" font-family="Helvetica,sans-Serif" font-size="10.00">Kit/Io/Socket/IListenerClient</text>
<text text-anchor="middle" x="250.5" y="-249" font-family="Helvetica,sans-Serif" font-size="10.00">Request.h</text>
</a>
</g>
</g>
<!-- Node6&#45;&gt;Node7 -->
<g id="edge6_Node000006_Node000007" class="edge">
<title>Node6&#45;&gt;Node7</title>
<g id="a_edge6_Node000006_Node000007"><a xlink:title=" ">
<path fill="none" stroke="#63b8ff" d="M330.17,-302.81C313.76,-293.58 292.16,-281.43 275.59,-272.11"/>
<polygon fill="#63b8ff" stroke="#63b8ff" points="328.72,-306.02 339.15,-307.87 332.15,-299.91 328.72,-306.02"/>
</a>
</g>
</g>
<!-- Node9 -->
<g id="Node000009" class="node">
<title>Node9</title>
<g id="a_Node000009"><a xlink:href="_i_close_request_8h.html" target="_top" xlink:title=" ">
<polygon fill="white" stroke="#666666" points="474,-200.5 347,-200.5 347,-181.5 474,-181.5 474,-200.5"/>
<text text-anchor="middle" x="410.5" y="-188.5" font-family="Helvetica,sans-Serif" font-size="10.00">Kit/Itc/ICloseRequest.h</text>
</a>
</g>
</g>
<!-- Node6&#45;&gt;Node9 -->
<g id="edge8_Node000006_Node000009" class="edge">
<title>Node6&#45;&gt;Node9</title>
<g id="a_edge8_Node000006_Node000009"><a xlink:title=" ">
<path fill="none" stroke="#63b8ff" d="M357.17,-297.96C359.89,-282.46 364.93,-260.05 373.5,-242 381.1,-226 394.15,-209.98 402.54,-200.53"/>
<polygon fill="#63b8ff" stroke="#63b8ff" points="353.71,-297.44 355.6,-307.87 360.63,-298.54 353.71,-297.44"/>
</a>
</g>
</g>
<!-- Node12 -->
<g id="Node000012" class="node">
<title>Node12</title>
<g id="a_Node000012"><a xlink:href="_i_open_request_8h.html" target="_top" xlink:title=" ">
<polygon fill="white" stroke="#666666" points="617,-200.5 492,-200.5 492,-181.5 617,-181.5 617,-200.5"/>
<text text-anchor="middle" x="554.5" y="-188.5" font-family="Helvetica,sans-Serif" font-size="10.00">Kit/Itc/IOpenRequest.h</text>
</a>
</g>
</g>
<!-- Node6&#45;&gt;Node12 -->
<g id="edge11_Node000006_Node000012" class="edge">
<title>Node6&#45;&gt;Node12</title>
<g id="a_edge11_Node000006_Node000012"><a xlink:title=" ">
<path fill="none" stroke="#63b8ff" d="M432.35,-306.37C475.96,-299.09 524.51,-287.77 539.5,-272 558.19,-252.34 557.28,-217.17 555.66,-200.81"/>
<polygon fill="#63b8ff" stroke="#63b8ff" points="431.59,-302.95 422.27,-308 432.7,-309.86 431.59,-302.95"/>
</a>
</g>
</g>
<!-- Node14 -->
<g id="Node000014" class="node">
<title>Node14</title>
<g id="a_Node000014"><a xlink:href="_response_message_8h.html" target="_top" xlink:title=" ">
<polygon fill="white" stroke="#666666" points="530.5,-266.5 382.5,-266.5 382.5,-247.5 530.5,-247.5 530.5,-266.5"/>
<text text-anchor="middle" x="456.5" y="-254.5" font-family="Helvetica,sans-Serif" font-size="10.00">Kit/Itc/ResponseMessage.h</text>
</a>
</g>
</g>
<!-- Node6&#45;&gt;Node14 -->
<g id="edge14_Node000006_Node000014" class="edge">
<title>Node6&#45;&gt;Node14</title>
<g id="a_edge14_Node000006_Node000014"><a xlink:title=" ">
<path fill="none" stroke="#63b8ff" d="M378.44,-302.77C397.91,-291.6 424.79,-276.19 441.39,-266.67"/>
<polygon fill="#63b8ff" stroke="#63b8ff" points="376.48,-299.86 369.55,-307.87 379.97,-305.93 376.48,-299.86"/>
</a>
</g>
</g>
<!-- Node8 -->
<g id="Node000008" class="node">
<title>Node8</title>
<g id="a_Node000008"><a xlink:href="_listener_client_sync_8h.html" target="_top" xlink:title=" ">
<polygon fill="white" stroke="#666666" points="324.5,-206 176.5,-206 176.5,-176 324.5,-176 324.5,-206"/>
<text text-anchor="start" x="184.5" y="-194" font-family="Helvetica,sans-Serif" font-size="10.00">Kit/Io/Socket/ListenerClient</text>
<text text-anchor="middle" x="250.5" y="-183" font-family="Helvetica,sans-Serif" font-size="10.00">Sync.h</text>
</a>
</g>
</g>
<!-- Node7&#45;&gt;Node8 -->
<g id="edge7_Node000007_Node000008" class="edge">
<title>Node7&#45;&gt;Node8</title>
<g id="a_edge7_Node000007_Node000008"><a xlink:title=" ">
<path fill="none" stroke="#63b8ff" d="M250.5,-231.54C250.5,-222.96 250.5,-213.61 250.5,-206.16"/>
<polygon fill="#63b8ff" stroke="#63b8ff" points="247,-231.8 250.5,-241.8 254,-231.8 247,-231.8"/>
</a>
</g>
</g>
<!-- Node10 -->
<g id="Node000010" class="node">
<title>Node10</title>
<g id="a_Node000010"><a xlink:href="_open_close_sync_8h.html" target="_top" xlink:title=" ">
<polygon fill="white" stroke="#666666" points="548,-85 415,-85 415,-66 548,-66 548,-85"/>
<text text-anchor="middle" x="481.5" y="-73" font-family="Helvetica,sans-Serif" font-size="10.00">Kit/Itc/OpenCloseSync.h</text>
</a>
</g>
</g>
<!-- Node9&#45;&gt;Node10 -->
<g id="edge9_Node000009_Node000010" class="edge">
<title>Node9&#45;&gt;Node10</title>
<g id="a_edge9_Node000009_Node000010"><a xlink:title=" ">
<path fill="none" stroke="#63b8ff" d="M421.25,-172.82C436.65,-148.19 464.43,-103.79 476.1,-85.13"/>
<polygon fill="#63b8ff" stroke="#63b8ff" points="418.17,-171.13 415.84,-181.47 424.11,-174.85 418.17,-171.13"/>
</a>
</g>
</g>
<!-- Node11 -->
<g id="Node000011" class="node">
<title>Node11</title>
<g id="a_Node000011"><a xlink:href="_log_sink_8h.html" target="_top" xlink:title=" ">
<polygon fill="white" stroke="#666666" points="546,-30 417,-30 417,0 546,0 546,-30"/>
<text text-anchor="start" x="425" y="-18" font-family="Helvetica,sans-Serif" font-size="10.00">Kit/Logging/Framework</text>
<text text-anchor="middle" x="481.5" y="-7" font-family="Helvetica,sans-Serif" font-size="10.00">/LogSink.h</text>
</a>
</g>
</g>
<!-- Node10&#45;&gt;Node11 -->
<g id="edge10_Node000010_Node000011" class="edge">
<title>Node10&#45;&gt;Node11</title>
<g id="a_edge10_Node000010_Node000011"><a xlink:title=" ">
<path fill="none" stroke="#63b8ff" d="M481.5,-55.65C481.5,-47.36 481.5,-37.78 481.5,-30.11"/>
<polygon fill="#63b8ff" stroke="#63b8ff" points="478,-55.87 481.5,-65.87 485,-55.87 478,-55.87"/>
</a>
</g>
</g>
<!-- Node13 -->
<g id="Node000013" class="node">
<title>Node13</title>
<g id="a_Node000013"><a xlink:href="_open_sync_8h.html" target="_top" xlink:title=" ">
<polygon fill="white" stroke="#666666" points="591.5,-140 485.5,-140 485.5,-121 591.5,-121 591.5,-140"/>
<text text-anchor="middle" x="538.5" y="-128" font-family="Helvetica,sans-Serif" font-size="10.00">Kit/Itc/OpenSync.h</text>
</a>
</g>
</g>
<!-- Node12&#45;&gt;Node13 -->
<g id="edge12_Node000012_Node000013" class="edge">
<title>Node12&#45;&gt;Node13</title>
<g id="a_edge12_Node000012_Node000013"><a xlink:title=" ">
<path fill="none" stroke="#63b8ff" d="M549.44,-171.49C546.57,-161.01 543.12,-148.39 540.87,-140.17"/>
<polygon fill="#63b8ff" stroke="#63b8ff" points="546.12,-172.65 552.14,-181.37 552.88,-170.8 546.12,-172.65"/>
</a>
</g>
</g>
<!-- Node13&#45;&gt;Node10 -->
<g id="edge13_Node000013_Node000010" class="edge">
<title>Node13&#45;&gt;Node10</title>
<g id="a_edge13_Node000013_Node000010"><a xlink:title=" ">
<path fill="none" stroke="#63b8ff" d="M521.88,-114.04C511.77,-104.64 499.22,-92.98 490.82,-85.17"/>
<polygon fill="#63b8ff" stroke="#63b8ff" points="519.64,-116.74 529.34,-120.98 524.4,-111.61 519.64,-116.74"/>
</a>
</g>
</g>
<!-- Node14&#45;&gt;Node9 -->
<g id="edge15_Node000014_Node000009" class="edge">
<title>Node14&#45;&gt;Node9</title>
<g id="a_edge15_Node000014_Node000009"><a xlink:title=" ">
<path fill="none" stroke="#63b8ff" d="M444.22,-238.91C435.42,-226.68 423.94,-210.7 416.9,-200.91"/>
<polygon fill="#63b8ff" stroke="#63b8ff" points="441.62,-241.29 450.3,-247.37 447.3,-237.21 441.62,-241.29"/>
</a>
</g>
</g>
<!-- Node14&#45;&gt;Node12 -->
<g id="edge16_Node000014_Node000012" class="edge">
<title>Node14&#45;&gt;Node12</title>
<g id="a_edge16_Node000014_Node000012"><a xlink:title=" ">
<path fill="none" stroke="#63b8ff" d="M478.17,-241.85C497.43,-229.27 524.98,-211.28 541.18,-200.7"/>
<polygon fill="#63b8ff" stroke="#63b8ff" points="476.18,-238.97 469.72,-247.37 480,-244.83 476.18,-238.97"/>
</a>
</g>
</g>
</g>
</svg>
