<?xml version="1.0" encoding="UTF-8" standalone="no"?>
<!DOCTYPE svg PUBLIC "-//W3C//DTD SVG 1.1//EN"
 "http://www.w3.org/Graphics/SVG/1.1/DTD/svg11.dtd">
<!-- Generated by graphviz version 2.43.0 (0)
 -->
<!-- Title: Kit/Itc/IMessage.h Pages: 1 -->
<svg width="625pt" height="379pt"
 viewBox="0.00 0.00 625.00 379.00" xmlns="http://www.w3.org/2000/svg" xmlns:xlink="http://www.w3.org/1999/xlink">
<g id="graph0" class="graph" transform="scale(1 1) rotate(0) translate(4 375)">
<title>Kit/Itc/IMessage.h</title>
<!-- Node1 -->
<g id="Node000001" class="node">
<title>Node1</title>
<g id="a_Node000001"><a xlink:title=" ">
<polygon fill="#999999" stroke="#666666" points="268.5,-371 164.5,-371 164.5,-352 268.5,-352 268.5,-371"/>
<text text-anchor="middle" x="216.5" y="-359" font-family="Helvetica,sans-Serif" font-size="10.00">Kit/Itc/IMessage.h</text>
</a>
</g>
</g>
<!-- Node2 -->
<g id="Node000002" class="node">
<title>Node2</title>
<g id="a_Node000002"><a xlink:href="_mailbox_8h.html" target="_top" xlink:title=" ">
<polygon fill="white" stroke="#666666" points="198.5,-316 102.5,-316 102.5,-297 198.5,-297 198.5,-316"/>
<text text-anchor="middle" x="150.5" y="-304" font-family="Helvetica,sans-Serif" font-size="10.00">Kit/Itc/Mailbox.h</text>
</a>
</g>
</g>
<!-- Node1&#45;&gt;Node2 -->
<g id="edge1_Node000001_Node000002" class="edge">
<title>Node1&#45;&gt;Node2</title>
<g id="a_edge1_Node000001_Node000002"><a xlink:title=" ">
<path fill="none" stroke="#63b8ff" d="M197.95,-345.6C186.12,-336.11 171.21,-324.13 161.3,-316.17"/>
<polygon fill="#63b8ff" stroke="#63b8ff" points="195.91,-348.45 205.9,-351.98 200.29,-342.99 195.91,-348.45"/>
</a>
</g>
</g>
<!-- Node5 -->
<g id="Node000005" class="node">
<title>Node5</title>
<g id="a_Node000005"><a xlink:href="_server_message_8h.html" target="_top" xlink:title=" ">
<polygon fill="white" stroke="#666666" points="354.5,-316 222.5,-316 222.5,-297 354.5,-297 354.5,-316"/>
<text text-anchor="middle" x="288.5" y="-304" font-family="Helvetica,sans-Serif" font-size="10.00">Kit/Itc/ServerMessage.h</text>
</a>
</g>
</g>
<!-- Node1&#45;&gt;Node5 -->
<g id="edge4_Node000001_Node000005" class="edge">
<title>Node1&#45;&gt;Node5</title>
<g id="a_edge4_Node000001_Node000005"><a xlink:title=" ">
<path fill="none" stroke="#63b8ff" d="M236.37,-345.88C249.32,-336.34 265.8,-324.21 276.72,-316.17"/>
<polygon fill="#63b8ff" stroke="#63b8ff" points="234.05,-343.24 228.07,-351.98 238.2,-348.88 234.05,-343.24"/>
</a>
</g>
</g>
<!-- Node3 -->
<g id="Node000003" class="node">
<title>Node3</title>
<g id="a_Node000003"><a xlink:href="_server_8h.html" target="_top" xlink:title=" ">
<polygon fill="white" stroke="#666666" points="206,-261 71,-261 71,-242 206,-242 206,-261"/>
<text text-anchor="middle" x="138.5" y="-249" font-family="Helvetica,sans-Serif" font-size="10.00">Kit/EventQueue/Server.h</text>
</a>
</g>
</g>
<!-- Node2&#45;&gt;Node3 -->
<g id="edge2_Node000002_Node000003" class="edge">
<title>Node2&#45;&gt;Node3</title>
<g id="a_edge2_Node000002_Node000003"><a xlink:title=" ">
<path fill="none" stroke="#63b8ff" d="M146.3,-286.95C144.31,-278.15 142.02,-268.06 140.44,-261.09"/>
<polygon fill="#63b8ff" stroke="#63b8ff" points="142.9,-287.77 148.52,-296.75 149.72,-286.22 142.9,-287.77"/>
</a>
</g>
</g>
<!-- Node4 -->
<g id="Node000004" class="node">
<title>Node4</title>
<g id="a_Node000004"><a xlink:href="_with_periodic_scheduling_8h.html" target="_top" xlink:title=" ">
<polygon fill="white" stroke="#666666" points="157,-206 0,-206 0,-176 157,-176 157,-206"/>
<text text-anchor="start" x="8" y="-194" font-family="Helvetica,sans-Serif" font-size="10.00">Kit/EventQueue/WithPeriodic</text>
<text text-anchor="middle" x="78.5" y="-183" font-family="Helvetica,sans-Serif" font-size="10.00">Scheduling.h</text>
</a>
</g>
</g>
<!-- Node3&#45;&gt;Node4 -->
<g id="edge3_Node000003_Node000004" class="edge">
<title>Node3&#45;&gt;Node4</title>
<g id="a_edge3_Node000003_Node000004"><a xlink:title=" ">
<path fill="none" stroke="#63b8ff" d="M122.29,-234.7C113.15,-225.78 101.82,-214.74 92.98,-206.11"/>
<polygon fill="#63b8ff" stroke="#63b8ff" points="120.04,-237.39 129.65,-241.87 124.93,-232.38 120.04,-237.39"/>
</a>
</g>
</g>
<!-- Node6 -->
<g id="Node000006" class="node">
<title>Node6</title>
<g id="a_Node000006"><a xlink:href="_request_message_8h.html" target="_top" xlink:title=" ">
<polygon fill="white" stroke="#666666" points="424.5,-261 284.5,-261 284.5,-242 424.5,-242 424.5,-261"/>
<text text-anchor="middle" x="354.5" y="-249" font-family="Helvetica,sans-Serif" font-size="10.00">Kit/Itc/RequestMessage.h</text>
</a>
</g>
</g>
<!-- Node5&#45;&gt;Node6 -->
<g id="edge5_Node000005_Node000006" class="edge">
<title>Node5&#45;&gt;Node6</title>
<g id="a_edge5_Node000005_Node000006"><a xlink:title=" ">
<path fill="none" stroke="#63b8ff" d="M307.05,-290.6C318.88,-281.11 333.79,-269.13 343.7,-261.17"/>
<polygon fill="#63b8ff" stroke="#63b8ff" points="304.71,-287.99 299.1,-296.98 309.09,-293.45 304.71,-287.99"/>
</a>
</g>
</g>
<!-- Node7 -->
<g id="Node000007" class="node">
<title>Node7</title>
<g id="a_Node000007"><a xlink:href="_i_listener_client_request_8h.html" target="_top" xlink:title=" ">
<polygon fill="white" stroke="#666666" points="326,-206 175,-206 175,-176 326,-176 326,-206"/>
<text text-anchor="start" x="183" y="-194" font-family="Helvetica,sans-Serif" font-size="10.00">Kit/Io/Socket/IListenerClient</text>
<text text-anchor="middle" x="250.5" y="-183" font-family="Helvetica,sans-Serif" font-size="10.00">Request.h</text>
</a>
</g>
</g>
<!-- Node6&#45;&gt;Node7 -->
<g id="edge6_Node000006_Node000007" class="edge">
<title>Node6&#45;&gt;Node7</title>
<g id="a_edge6_Node000006_Node000007"><a xlink:title=" ">
<path fill="none" stroke="#63b8ff" d="M330.17,-236.81C313.76,-227.58 292.16,-215.43 275.59,-206.11"/>
<polygon fill="#63b8ff" stroke="#63b8ff" points="328.72,-240.02 339.15,-241.87 332.15,-233.91 328.72,-240.02"/>
</a>
</g>
</g>
<!-- Node9 -->
<g id="Node000009" class="node">
<title>Node9</title>
<g id="a_Node000009"><a xlink:href="_i_close_request_8h.html" target="_top" xlink:title=" ">
<polygon fill="white" stroke="#666666" points="474,-134.5 347,-134.5 347,-115.5 474,-115.5 474,-134.5"/>
<text text-anchor="middle" x="410.5" y="-122.5" font-family="Helvetica,sans-Serif" font-size="10.00">Kit/Itc/ICloseRequest.h</text>
</a>
</g>
</g>
<!-- Node6&#45;&gt;Node9 -->
<g id="edge8_Node000006_Node000009" class="edge">
<title>Node6&#45;&gt;Node9</title>
<g id="a_edge8_Node000006_Node000009"><a xlink:title=" ">
<path fill="none" stroke="#63b8ff" d="M357.17,-231.96C359.89,-216.46 364.93,-194.05 373.5,-176 381.1,-160 394.15,-143.98 402.54,-134.53"/>
<polygon fill="#63b8ff" stroke="#63b8ff" points="353.71,-231.44 355.6,-241.87 360.63,-232.54 353.71,-231.44"/>
</a>
</g>
</g>
<!-- Node11 -->
<g id="Node000011" class="node">
<title>Node11</title>
<g id="a_Node000011"><a xlink:href="_i_open_request_8h.html" target="_top" xlink:title=" ">
<polygon fill="white" stroke="#666666" points="617,-134.5 492,-134.5 492,-115.5 617,-115.5 617,-134.5"/>
<text text-anchor="middle" x="554.5" y="-122.5" font-family="Helvetica,sans-Serif" font-size="10.00">Kit/Itc/IOpenRequest.h</text>
</a>
</g>
</g>
<!-- Node6&#45;&gt;Node11 -->
<g id="edge10_Node000006_Node000011" class="edge">
<title>Node6&#45;&gt;Node11</title>
<g id="a_edge10_Node000006_Node000011"><a xlink:title=" ">
<path fill="none" stroke="#63b8ff" d="M432.35,-240.37C475.96,-233.09 524.51,-221.77 539.5,-206 558.19,-186.34 557.28,-151.17 555.66,-134.81"/>
<polygon fill="#63b8ff" stroke="#63b8ff" points="431.59,-236.95 422.27,-242 432.7,-243.86 431.59,-236.95"/>
</a>
</g>
</g>
<!-- Node13 -->
<g id="Node000013" class="node">
<title>Node13</title>
<g id="a_Node000013"><a xlink:href="_response_message_8h.html" target="_top" xlink:title=" ">
<polygon fill="white" stroke="#666666" points="530.5,-200.5 382.5,-200.5 382.5,-181.5 530.5,-181.5 530.5,-200.5"/>
<text text-anchor="middle" x="456.5" y="-188.5" font-family="Helvetica,sans-Serif" font-size="10.00">Kit/Itc/ResponseMessage.h</text>
</a>
</g>
</g>
<!-- Node6&#45;&gt;Node13 -->
<g id="edge13_Node000006_Node000013" class="edge">
<title>Node6&#45;&gt;Node13</title>
<g id="a_edge13_Node000006_Node000013"><a xlink:title=" ">
<path fill="none" stroke="#63b8ff" d="M378.44,-236.77C397.91,-225.6 424.79,-210.19 441.39,-200.67"/>
<polygon fill="#63b8ff" stroke="#63b8ff" points="376.48,-233.86 369.55,-241.87 379.97,-239.93 376.48,-233.86"/>
</a>
</g>
</g>
<!-- Node8 -->
<g id="Node000008" class="node">
<title>Node8</title>
<g id="a_Node000008"><a xlink:href="_listener_client_sync_8h.html" target="_top" xlink:title=" ">
<polygon fill="white" stroke="#666666" points="324.5,-140 176.5,-140 176.5,-110 324.5,-110 324.5,-140"/>
<text text-anchor="start" x="184.5" y="-128" font-family="Helvetica,sans-Serif" font-size="10.00">Kit/Io/Socket/ListenerClient</text>
<text text-anchor="middle" x="250.5" y="-117" font-family="Helvetica,sans-Serif" font-size="10.00">Sync.h</text>
</a>
</g>
</g>
<!-- Node7&#45;&gt;Node8 -->
<g id="edge7_Node000007_Node000008" class="edge">
<title>Node7&#45;&gt;Node8</title>
<g id="a_edge7_Node000007_Node000008"><a xlink:title=" ">
<path fill="none" stroke="#63b8ff" d="M250.5,-165.54C250.5,-156.96 250.5,-147.61 250.5,-140.16"/>
<polygon fill="#63b8ff" stroke="#63b8ff" points="247,-165.8 250.5,-175.8 254,-165.8 247,-165.8"/>
</a>
</g>
</g>
<!-- Node10 -->
<g id="Node000010" class="node">
<title>Node10</title>
<g id="a_Node000010"><a xlink:href="_open_close_sync_8h.html" target="_top" xlink:title=" ">
<polygon fill="white" stroke="#666666" points="548,-19 415,-19 415,0 548,0 548,-19"/>
<text text-anchor="middle" x="481.5" y="-7" font-family="Helvetica,sans-Serif" font-size="10.00">Kit/Itc/OpenCloseSync.h</text>
</a>
</g>
</g>
<!-- Node9&#45;&gt;Node10 -->
<g id="edge9_Node000009_Node000010" class="edge">
<title>Node9&#45;&gt;Node10</title>
<g id="a_edge9_Node000009_Node000010"><a xlink:title=" ">
<path fill="none" stroke="#63b8ff" d="M421.25,-106.82C436.65,-82.19 464.43,-37.79 476.1,-19.13"/>
<polygon fill="#63b8ff" stroke="#63b8ff" points="418.17,-105.13 415.84,-115.47 424.11,-108.85 418.17,-105.13"/>
</a>
</g>
</g>
<!-- Node12 -->
<g id="Node000012" class="node">
<title>Node12</title>
<g id="a_Node000012"><a xlink:href="_open_sync_8h.html" target="_top" xlink:title=" ">
<polygon fill="white" stroke="#666666" points="591.5,-74 485.5,-74 485.5,-55 591.5,-55 591.5,-74"/>
<text text-anchor="middle" x="538.5" y="-62" font-family="Helvetica,sans-Serif" font-size="10.00">Kit/Itc/OpenSync.h</text>
</a>
</g>
</g>
<!-- Node11&#45;&gt;Node12 -->
<g id="edge11_Node000011_Node000012" class="edge">
<title>Node11&#45;&gt;Node12</title>
<g id="a_edge11_Node000011_Node000012"><a xlink:title=" ">
<path fill="none" stroke="#63b8ff" d="M549.44,-105.49C546.57,-95.01 543.12,-82.39 540.87,-74.17"/>
<polygon fill="#63b8ff" stroke="#63b8ff" points="546.12,-106.65 552.14,-115.37 552.88,-104.8 546.12,-106.65"/>
</a>
</g>
</g>
<!-- Node12&#45;&gt;Node10 -->
<g id="edge12_Node000012_Node000010" class="edge">
<title>Node12&#45;&gt;Node10</title>
<g id="a_edge12_Node000012_Node000010"><a xlink:title=" ">
<path fill="none" stroke="#63b8ff" d="M521.88,-48.04C511.77,-38.64 499.22,-26.98 490.82,-19.17"/>
<polygon fill="#63b8ff" stroke="#63b8ff" points="519.64,-50.74 529.34,-54.98 524.4,-45.61 519.64,-50.74"/>
</a>
</g>
</g>
<!-- Node13&#45;&gt;Node9 -->
<g id="edge14_Node000013_Node000009" class="edge">
<title>Node13&#45;&gt;Node9</title>
<g id="a_edge14_Node000013_Node000009"><a xlink:title=" ">
<path fill="none" stroke="#63b8ff" d="M444.22,-172.91C435.42,-160.68 423.94,-144.7 416.9,-134.91"/>
<polygon fill="#63b8ff" stroke="#63b8ff" points="441.62,-175.29 450.3,-181.37 447.3,-171.21 441.62,-175.29"/>
</a>
</g>
</g>
<!-- Node13&#45;&gt;Node11 -->
<g id="edge15_Node000013_Node000011" class="edge">
<title>Node13&#45;&gt;Node11</title>
<g id="a_edge15_Node000013_Node000011"><a xlink:title=" ">
<path fill="none" stroke="#63b8ff" d="M478.17,-175.85C497.43,-163.27 524.98,-145.28 541.18,-134.7"/>
<polygon fill="#63b8ff" stroke="#63b8ff" points="476.18,-172.97 469.72,-181.37 480,-178.83 476.18,-172.97"/>
</a>
</g>
</g>
</g>
</svg>
