<?xml version="1.0" encoding="UTF-8" standalone="no"?>
<!DOCTYPE svg PUBLIC "-//W3C//DTD SVG 1.1//EN"
 "http://www.w3.org/Graphics/SVG/1.1/DTD/svg11.dtd">
<!-- Generated by graphviz version 2.43.0 (0)
 -->
<!-- Title: Kit/Persistence/Record/IMedia.h Pages: 1 -->
<svg width="1987pt" height="533pt"
 viewBox="0.00 0.00 1986.98 533.00" xmlns="http://www.w3.org/2000/svg" xmlns:xlink="http://www.w3.org/1999/xlink">
<g id="graph0" class="graph" transform="scale(1 1) rotate(0) translate(4 529)">
<title>Kit/Persistence/Record/IMedia.h</title>
<!-- Node1 -->
<g id="Node000001" class="node">
<title>Node1</title>
<g id="a_Node000001"><a xlink:title=" ">
<polygon fill="#999999" stroke="#666666" points="804,-525 678,-525 678,-495 804,-495 804,-525"/>
<text text-anchor="start" x="686" y="-513" font-family="Helvetica,sans-Serif" font-size="10.00">Kit/Persistence/Record</text>
<text text-anchor="middle" x="741" y="-502" font-family="Helvetica,sans-Serif" font-size="10.00">/IMedia.h</text>
</a>
</g>
</g>
<!-- Node2 -->
<g id="Node000002" class="node">
<title>Node2</title>
<g id="a_Node000002"><a xlink:href="_i_queue_8h.html" target="_top" xlink:title=" ">
<polygon fill="white" stroke="#666666" points="700.5,-239 561.5,-239 561.5,-220 700.5,-220 700.5,-239"/>
<text text-anchor="middle" x="631" y="-227" font-family="Helvetica,sans-Serif" font-size="10.00">Kit/EventQueue/IQueue.h</text>
</a>
</g>
</g>
<!-- Node1&#45;&gt;Node2 -->
<g id="edge1_Node000001_Node000002" class="edge">
<title>Node1&#45;&gt;Node2</title>
<g id="a_edge1_Node000001_Node000002"><a xlink:title=" ">
<path fill="none" stroke="#63b8ff" d="M731.02,-494.7C717.49,-473.89 695,-433.56 695,-395.5 695,-395.5 695,-395.5 695,-338.5 695,-301.53 666.9,-266.14 647.94,-246.46"/>
<polygon fill="#63b8ff" stroke="#63b8ff" points="650.27,-243.84 640.72,-239.26 645.33,-248.8 650.27,-243.84"/>
</a>
</g>
</g>
<!-- Node14 -->
<g id="Node000014" class="node">
<title>Node14</title>
<g id="a_Node000014"><a xlink:href="_persistence_2_types_8h.html" target="_top" xlink:title=" ">
<polygon fill="white" stroke="#666666" points="917.5,-459 788.5,-459 788.5,-440 917.5,-440 917.5,-459"/>
<text text-anchor="middle" x="853" y="-447" font-family="Helvetica,sans-Serif" font-size="10.00">Kit/Persistence/Types.h</text>
</a>
</g>
</g>
<!-- Node1&#45;&gt;Node14 -->
<g id="edge14_Node000001_Node000014" class="edge">
<title>Node1&#45;&gt;Node14</title>
<g id="a_edge14_Node000001_Node000014"><a xlink:title=" ">
<path fill="none" stroke="#63b8ff" d="M767.83,-494.99C785.85,-485.58 809.46,-473.24 827.25,-463.95"/>
<polygon fill="#63b8ff" stroke="#63b8ff" points="829.22,-466.87 836.46,-459.14 825.98,-460.67 829.22,-466.87"/>
</a>
</g>
</g>
<!-- Node3 -->
<g id="Node000003" class="node">
<title>Node3</title>
<g id="a_Node000003"><a xlink:title=" ">
<polygon fill="#e0e0e0" stroke="#999999" points="1960.5,-129 1887.5,-129 1887.5,-110 1960.5,-110 1960.5,-129"/>
<text text-anchor="middle" x="1924" y="-117" font-family="Helvetica,sans-Serif" font-size="10.00">kit_config.h</text>
</a>
</g>
</g>
<!-- Node2&#45;&gt;Node3 -->
<g id="edge2_Node000002_Node000003" class="edge">
<title>Node2&#45;&gt;Node3</title>
<g id="a_edge2_Node000002_Node000003"><a xlink:title=" ">
<path fill="none" stroke="#63b8ff" d="M700.7,-227.17C931.66,-222.55 1663.22,-206.31 1767,-184 1815.76,-173.52 1868.84,-149.04 1899.1,-133.72"/>
<polygon fill="#63b8ff" stroke="#63b8ff" points="1900.8,-136.79 1908.09,-129.1 1897.6,-130.56 1900.8,-136.79"/>
</a>
</g>
</g>
<!-- Node4 -->
<g id="Node000004" class="node">
<title>Node4</title>
<g id="a_Node000004"><a xlink:href="_i_msg_notification_8h.html" target="_top" xlink:title=" ">
<polygon fill="white" stroke="#666666" points="184,-184 0,-184 0,-165 184,-165 184,-184"/>
<text text-anchor="middle" x="92" y="-172" font-family="Helvetica,sans-Serif" font-size="10.00">Kit/EventQueue/IMsgNotification.h</text>
</a>
</g>
</g>
<!-- Node2&#45;&gt;Node4 -->
<g id="edge3_Node000002_Node000004" class="edge">
<title>Node2&#45;&gt;Node4</title>
<g id="a_edge3_Node000002_Node000004"><a xlink:title=" ">
<path fill="none" stroke="#63b8ff" d="M561.36,-221.65C466.53,-212.33 296.3,-195.59 189,-185.04"/>
<polygon fill="#63b8ff" stroke="#63b8ff" points="189.11,-181.53 178.82,-184.04 188.43,-188.5 189.11,-181.53"/>
</a>
</g>
</g>
<!-- Node5 -->
<g id="Node000005" class="node">
<title>Node5</title>
<g id="a_Node000005"><a xlink:href="_i_timing_source_8h.html" target="_top" xlink:title=" ">
<polygon fill="white" stroke="#666666" points="1019,-184 867,-184 867,-165 1019,-165 1019,-184"/>
<text text-anchor="middle" x="943" y="-172" font-family="Helvetica,sans-Serif" font-size="10.00">Kit/System/ITimingSource.h</text>
</a>
</g>
</g>
<!-- Node2&#45;&gt;Node5 -->
<g id="edge4_Node000002_Node000005" class="edge">
<title>Node2&#45;&gt;Node5</title>
<g id="a_edge4_Node000002_Node000005"><a xlink:title=" ">
<path fill="none" stroke="#63b8ff" d="M681.13,-219.98C736.09,-210.65 824.23,-195.67 882.87,-185.71"/>
<polygon fill="#63b8ff" stroke="#63b8ff" points="883.47,-189.16 892.74,-184.04 882.29,-182.26 883.47,-189.16"/>
</a>
</g>
</g>
<!-- Node10 -->
<g id="Node000010" class="node">
<title>Node10</title>
<g id="a_Node000010"><a xlink:href="_i_runnable_8h.html" target="_top" xlink:title=" ">
<polygon fill="white" stroke="#666666" points="333.5,-184 202.5,-184 202.5,-165 333.5,-165 333.5,-184"/>
<text text-anchor="middle" x="268" y="-172" font-family="Helvetica,sans-Serif" font-size="10.00">Kit/System/IRunnable.h</text>
</a>
</g>
</g>
<!-- Node2&#45;&gt;Node10 -->
<g id="edge9_Node000002_Node000010" class="edge">
<title>Node2&#45;&gt;Node10</title>
<g id="a_edge9_Node000002_Node000010"><a xlink:title=" ">
<path fill="none" stroke="#63b8ff" d="M572.68,-219.98C508.34,-210.59 404.91,-195.49 336.69,-185.53"/>
<polygon fill="#63b8ff" stroke="#63b8ff" points="336.88,-182.02 326.48,-184.04 335.87,-188.95 336.88,-182.02"/>
</a>
</g>
</g>
<!-- Node11 -->
<g id="Node000011" class="node">
<title>Node11</title>
<g id="a_Node000011"><a xlink:href="_i_event_manager_8h.html" target="_top" xlink:title=" ">
<polygon fill="white" stroke="#666666" points="734.5,-74 579.5,-74 579.5,-55 734.5,-55 734.5,-74"/>
<text text-anchor="middle" x="657" y="-62" font-family="Helvetica,sans-Serif" font-size="10.00">Kit/System/IEventManager.h</text>
</a>
</g>
</g>
<!-- Node2&#45;&gt;Node11 -->
<g id="edge10_Node000002_Node000011" class="edge">
<title>Node2&#45;&gt;Node11</title>
<g id="a_edge10_Node000002_Node000011"><a xlink:title=" ">
<path fill="none" stroke="#63b8ff" d="M658.65,-219.98C675.58,-213.17 695.89,-201.76 706,-184 725.81,-149.22 693.62,-104.84 672.7,-81.5"/>
<polygon fill="#63b8ff" stroke="#63b8ff" points="675.26,-79.11 665.88,-74.17 670.13,-83.88 675.26,-79.11"/>
</a>
</g>
</g>
<!-- Node12 -->
<g id="Node000012" class="node">
<title>Node12</title>
<g id="a_Node000012"><a xlink:href="_i_signable_8h.html" target="_top" xlink:title=" ">
<polygon fill="white" stroke="#666666" points="478.5,-184 351.5,-184 351.5,-165 478.5,-165 478.5,-184"/>
<text text-anchor="middle" x="415" y="-172" font-family="Helvetica,sans-Serif" font-size="10.00">Kit/System/ISignable.h</text>
</a>
</g>
</g>
<!-- Node2&#45;&gt;Node12 -->
<g id="edge12_Node000002_Node000012" class="edge">
<title>Node2&#45;&gt;Node12</title>
<g id="a_edge12_Node000002_Node000012"><a xlink:title=" ">
<path fill="none" stroke="#63b8ff" d="M596.3,-219.98C559.25,-210.89 500.41,-196.46 459.87,-186.51"/>
<polygon fill="#63b8ff" stroke="#63b8ff" points="460.52,-183.07 449.98,-184.08 458.85,-189.86 460.52,-183.07"/>
</a>
</g>
</g>
<!-- Node13 -->
<g id="Node000013" class="node">
<title>Node13</title>
<g id="a_Node000013"><a xlink:href="_i_change_notification_8h.html" target="_top" xlink:title=" ">
<polygon fill="white" stroke="#666666" points="697,-184 497,-184 497,-165 697,-165 697,-184"/>
<text text-anchor="middle" x="597" y="-172" font-family="Helvetica,sans-Serif" font-size="10.00">Kit/EventQueue/IChangeNotification.h</text>
</a>
</g>
</g>
<!-- Node2&#45;&gt;Node13 -->
<g id="edge13_Node000002_Node000013" class="edge">
<title>Node2&#45;&gt;Node13</title>
<g id="a_edge13_Node000002_Node000013"><a xlink:title=" ">
<path fill="none" stroke="#63b8ff" d="M625.39,-219.75C620.68,-212.42 613.83,-201.73 608.03,-192.7"/>
<polygon fill="#63b8ff" stroke="#63b8ff" points="610.86,-190.62 602.51,-184.09 604.96,-194.4 610.86,-190.62"/>
</a>
</g>
</g>
<!-- Node6 -->
<g id="Node000006" class="node">
<title>Node6</title>
<g id="a_Node000006"><a xlink:href="_i_counter_8h.html" target="_top" xlink:title=" ">
<polygon fill="white" stroke="#666666" points="989,-129 867,-129 867,-110 989,-110 989,-129"/>
<text text-anchor="middle" x="928" y="-117" font-family="Helvetica,sans-Serif" font-size="10.00">Kit/System/ICounter.h</text>
</a>
</g>
</g>
<!-- Node5&#45;&gt;Node6 -->
<g id="edge5_Node000005_Node000006" class="edge">
<title>Node5&#45;&gt;Node6</title>
<g id="a_edge5_Node000005_Node000006"><a xlink:title=" ">
<path fill="none" stroke="#63b8ff" d="M940.52,-164.75C938.54,-157.72 935.68,-147.62 933.19,-138.84"/>
<polygon fill="#63b8ff" stroke="#63b8ff" points="936.52,-137.76 930.43,-129.09 929.79,-139.66 936.52,-137.76"/>
</a>
</g>
</g>
<!-- Node7 -->
<g id="Node000007" class="node">
<title>Node7</title>
<g id="a_Node000007"><a xlink:href="_list_item_8h.html" target="_top" xlink:title=" ">
<polygon fill="white" stroke="#666666" points="1381,-74 1249,-74 1249,-55 1381,-55 1381,-74"/>
<text text-anchor="middle" x="1315" y="-62" font-family="Helvetica,sans-Serif" font-size="10.00">Kit/Container/ListItem.h</text>
</a>
</g>
</g>
<!-- Node6&#45;&gt;Node7 -->
<g id="edge6_Node000006_Node000007" class="edge">
<title>Node6&#45;&gt;Node7</title>
<g id="a_edge6_Node000006_Node000007"><a xlink:title=" ">
<path fill="none" stroke="#63b8ff" d="M989.32,-110.1C1058.12,-100.68 1169.63,-85.41 1242.65,-75.41"/>
<polygon fill="#63b8ff" stroke="#63b8ff" points="1243.25,-78.86 1252.68,-74.03 1242.3,-71.92 1243.25,-78.86"/>
</a>
</g>
</g>
<!-- Node9 -->
<g id="Node000009" class="node">
<title>Node9</title>
<g id="a_Node000009"><a xlink:title=" ">
<polygon fill="#e0e0e0" stroke="#999999" points="1011.5,-19 958.5,-19 958.5,0 1011.5,0 1011.5,-19"/>
<text text-anchor="middle" x="985" y="-7" font-family="Helvetica,sans-Serif" font-size="10.00">stdint.h</text>
</a>
</g>
</g>
<!-- Node6&#45;&gt;Node9 -->
<g id="edge8_Node000006_Node000009" class="edge">
<title>Node6&#45;&gt;Node9</title>
<g id="a_edge8_Node000006_Node000009"><a xlink:title=" ">
<path fill="none" stroke="#63b8ff" d="M932.66,-109.66C942.06,-91.85 963.43,-51.37 975.76,-28.01"/>
<polygon fill="#63b8ff" stroke="#63b8ff" points="978.86,-29.64 980.43,-19.16 972.67,-26.37 978.86,-29.64"/>
</a>
</g>
</g>
<!-- Node8 -->
<g id="Node000008" class="node">
<title>Node8</title>
<g id="a_Node000008"><a xlink:href="_item_8h.html" target="_top" xlink:title=" ">
<polygon fill="white" stroke="#666666" points="1372.5,-19 1257.5,-19 1257.5,0 1372.5,0 1372.5,-19"/>
<text text-anchor="middle" x="1315" y="-7" font-family="Helvetica,sans-Serif" font-size="10.00">Kit/Container/Item.h</text>
</a>
</g>
</g>
<!-- Node7&#45;&gt;Node8 -->
<g id="edge7_Node000007_Node000008" class="edge">
<title>Node7&#45;&gt;Node8</title>
<g id="a_edge7_Node000007_Node000008"><a xlink:title=" ">
<path fill="none" stroke="#63b8ff" d="M1315,-54.75C1315,-47.8 1315,-37.85 1315,-29.13"/>
<polygon fill="#63b8ff" stroke="#63b8ff" points="1318.5,-29.09 1315,-19.09 1311.5,-29.09 1318.5,-29.09"/>
</a>
</g>
</g>
<!-- Node11&#45;&gt;Node9 -->
<g id="edge11_Node000011_Node000009" class="edge">
<title>Node11&#45;&gt;Node9</title>
<g id="a_edge11_Node000011_Node000009"><a xlink:title=" ">
<path fill="none" stroke="#63b8ff" d="M709.7,-54.98C776.53,-44.19 890.04,-25.84 948.22,-16.44"/>
<polygon fill="#63b8ff" stroke="#63b8ff" points="949.11,-19.85 958.42,-14.8 947.99,-12.94 949.11,-19.85"/>
</a>
</g>
</g>
<!-- Node14&#45;&gt;Node3 -->
<g id="edge15_Node000014_Node000003" class="edge">
<title>Node14&#45;&gt;Node3</title>
<g id="a_edge15_Node000014_Node000003"><a xlink:title=" ">
<path fill="none" stroke="#63b8ff" d="M917.82,-449.03C1155.03,-450.13 1962,-446.11 1962,-340.5 1962,-340.5 1962,-340.5 1962,-228.5 1962,-195.02 1945.55,-158.84 1934.3,-138.01"/>
<polygon fill="#63b8ff" stroke="#63b8ff" points="1937.24,-136.1 1929.28,-129.1 1931.13,-139.53 1937.24,-136.1"/>
</a>
</g>
</g>
<!-- Node14&#45;&gt;Node9 -->
<g id="edge16_Node000014_Node000009" class="edge">
<title>Node14&#45;&gt;Node9</title>
<g id="a_edge16_Node000014_Node000009"><a xlink:title=" ">
<path fill="none" stroke="#63b8ff" d="M838.14,-439.91C812.58,-423.9 763,-386.87 763,-340.5 763,-340.5 763,-340.5 763,-118.5 763,-37.26 884.69,-17.12 947.88,-12.13"/>
<polygon fill="#63b8ff" stroke="#63b8ff" points="948.49,-15.6 958.22,-11.41 948,-8.61 948.49,-15.6"/>
</a>
</g>
</g>
<!-- Node15 -->
<g id="Node000015" class="node">
<title>Node15</title>
<g id="a_Node000015"><a xlink:href="_cursor_l_e_8h.html" target="_top" xlink:title=" ">
<polygon fill="white" stroke="#666666" points="980,-404 852,-404 852,-385 980,-385 980,-404"/>
<text text-anchor="middle" x="916" y="-392" font-family="Helvetica,sans-Serif" font-size="10.00">Kit/Memory/CursorLE.h</text>
</a>
</g>
</g>
<!-- Node14&#45;&gt;Node15 -->
<g id="edge17_Node000014_Node000015" class="edge">
<title>Node14&#45;&gt;Node15</title>
<g id="a_edge17_Node000014_Node000015"><a xlink:title=" ">
<path fill="none" stroke="#63b8ff" d="M863.12,-439.98C872.44,-432.15 886.47,-420.34 897.74,-410.86"/>
<polygon fill="#63b8ff" stroke="#63b8ff" points="900.29,-413.29 905.69,-404.17 895.79,-407.93 900.29,-413.29"/>
</a>
</g>
</g>
<!-- Node16 -->
<g id="Node000016" class="node">
<title>Node16</title>
<g id="a_Node000016"><a xlink:href="_cursor_base_8h.html" target="_top" xlink:title=" ">
<polygon fill="white" stroke="#666666" points="1019.5,-349 878.5,-349 878.5,-330 1019.5,-330 1019.5,-349"/>
<text text-anchor="middle" x="949" y="-337" font-family="Helvetica,sans-Serif" font-size="10.00">Kit/Memory/CursorBase.h</text>
</a>
</g>
</g>
<!-- Node15&#45;&gt;Node16 -->
<g id="edge18_Node000015_Node000016" class="edge">
<title>Node15&#45;&gt;Node16</title>
<g id="a_edge18_Node000015_Node000016"><a xlink:title=" ">
<path fill="none" stroke="#63b8ff" d="M921.45,-384.75C926.01,-377.42 932.67,-366.73 938.29,-357.7"/>
<polygon fill="#63b8ff" stroke="#63b8ff" points="941.34,-359.43 943.65,-349.09 935.4,-355.73 941.34,-359.43"/>
</a>
</g>
</g>
<!-- Node19 -->
<g id="Node000019" class="node">
<title>Node19</title>
<g id="a_Node000019"><a xlink:href="endian_8h.html" target="_top" xlink:title="This file provides a set of macros/method to convert between the &#39;host&#39; platform and Big/Little endia...">
<polygon fill="white" stroke="#666666" points="1138.5,-349 1037.5,-349 1037.5,-330 1138.5,-330 1138.5,-349"/>
<text text-anchor="middle" x="1088" y="-337" font-family="Helvetica,sans-Serif" font-size="10.00">Kit/Type/endian.h</text>
</a>
</g>
</g>
<!-- Node15&#45;&gt;Node19 -->
<g id="edge22_Node000015_Node000019" class="edge">
<title>Node15&#45;&gt;Node19</title>
<g id="a_edge22_Node000015_Node000019"><a xlink:title=" ">
<path fill="none" stroke="#63b8ff" d="M943.63,-384.98C972.51,-376.09 1018.01,-362.07 1050.2,-352.15"/>
<polygon fill="#63b8ff" stroke="#63b8ff" points="1051.62,-355.37 1060.15,-349.08 1049.56,-348.68 1051.62,-355.37"/>
</a>
</g>
</g>
<!-- Node39 -->
<g id="Node000039" class="node">
<title>Node39</title>
<g id="a_Node000039"><a xlink:title=" ">
<polygon fill="#e0e0e0" stroke="#999999" points="860.5,-349 791.5,-349 791.5,-330 860.5,-330 860.5,-349"/>
<text text-anchor="middle" x="826" y="-337" font-family="Helvetica,sans-Serif" font-size="10.00">type_traits</text>
</a>
</g>
</g>
<!-- Node15&#45;&gt;Node39 -->
<g id="edge61_Node000015_Node000039" class="edge">
<title>Node15&#45;&gt;Node39</title>
<g id="a_edge61_Node000015_Node000039"><a xlink:title=" ">
<path fill="none" stroke="#63b8ff" d="M901.54,-384.98C887.58,-376.77 866.21,-364.18 849.75,-354.49"/>
<polygon fill="#63b8ff" stroke="#63b8ff" points="851.12,-351.23 840.72,-349.17 847.56,-357.26 851.12,-351.23"/>
</a>
</g>
</g>
<!-- Node16&#45;&gt;Node9 -->
<g id="edge20_Node000016_Node000009" class="edge">
<title>Node16&#45;&gt;Node9</title>
<g id="a_edge20_Node000016_Node000009"><a xlink:title=" ">
<path fill="none" stroke="#63b8ff" d="M888.59,-329.94C864.4,-323.67 838.04,-312.81 820,-294 799.61,-272.74 801,-259.96 801,-230.5 801,-230.5 801,-230.5 801,-118.5 801,-88.33 802.73,-75.35 825,-55 858.9,-24.02 912.55,-14.37 948.26,-11.49"/>
<polygon fill="#63b8ff" stroke="#63b8ff" points="948.52,-14.98 958.27,-10.82 948.06,-8 948.52,-14.98"/>
</a>
</g>
</g>
<!-- Node17 -->
<g id="Node000017" class="node">
<title>Node17</title>
<g id="a_Node000017"><a xlink:title=" ">
<polygon fill="#e0e0e0" stroke="#999999" points="947,-294 897,-294 897,-275 947,-275 947,-294"/>
<text text-anchor="middle" x="922" y="-282" font-family="Helvetica,sans-Serif" font-size="10.00">cstdint</text>
</a>
</g>
</g>
<!-- Node16&#45;&gt;Node17 -->
<g id="edge19_Node000016_Node000017" class="edge">
<title>Node16&#45;&gt;Node17</title>
<g id="a_edge19_Node000016_Node000017"><a xlink:title=" ">
<path fill="none" stroke="#63b8ff" d="M944.54,-329.75C940.88,-322.57 935.59,-312.18 931.05,-303.27"/>
<polygon fill="#63b8ff" stroke="#63b8ff" points="934.03,-301.41 926.38,-294.09 927.8,-304.59 934.03,-301.41"/>
</a>
</g>
</g>
<!-- Node18 -->
<g id="Node000018" class="node">
<title>Node18</title>
<g id="a_Node000018"><a xlink:title=" ">
<polygon fill="#e0e0e0" stroke="#999999" points="878.5,-294 829.5,-294 829.5,-275 878.5,-275 878.5,-294"/>
<text text-anchor="middle" x="854" y="-282" font-family="Helvetica,sans-Serif" font-size="10.00">cstdlib</text>
</a>
</g>
</g>
<!-- Node16&#45;&gt;Node18 -->
<g id="edge21_Node000016_Node000018" class="edge">
<title>Node16&#45;&gt;Node18</title>
<g id="a_edge21_Node000016_Node000018"><a xlink:title=" ">
<path fill="none" stroke="#63b8ff" d="M933.74,-329.98C918.87,-321.69 896.02,-308.94 878.58,-299.22"/>
<polygon fill="#63b8ff" stroke="#63b8ff" points="879.98,-295.99 869.54,-294.17 876.57,-302.1 879.98,-295.99"/>
</a>
</g>
</g>
<!-- Node19&#45;&gt;Node3 -->
<g id="edge23_Node000019_Node000003" class="edge">
<title>Node19&#45;&gt;Node3</title>
<g id="a_edge23_Node000019_Node000003"><a xlink:title=" ">
<path fill="none" stroke="#63b8ff" d="M1138.82,-332.81C1258.67,-318.29 1567.09,-274.45 1809,-184 1843.73,-171.01 1880.74,-148.91 1903.12,-134.5"/>
<polygon fill="#63b8ff" stroke="#63b8ff" points="1905.03,-137.43 1911.49,-129.03 1901.2,-131.57 1905.03,-137.43"/>
</a>
</g>
</g>
<!-- Node19&#45;&gt;Node9 -->
<g id="edge24_Node000019_Node000009" class="edge">
<title>Node19&#45;&gt;Node9</title>
<g id="a_edge24_Node000019_Node000009"><a xlink:title=" ">
<path fill="none" stroke="#63b8ff" d="M1071.04,-329.83C1021.97,-304.34 881.81,-228.68 858,-184 842.53,-154.98 843.6,-139.57 858,-110 878.22,-68.46 925.11,-39.15 955.9,-23.55"/>
<polygon fill="#63b8ff" stroke="#63b8ff" points="957.45,-26.68 964.89,-19.15 954.37,-20.4 957.45,-26.68"/>
</a>
</g>
</g>
<!-- Node20 -->
<g id="Node000020" class="node">
<title>Node20</title>
<g id="a_Node000020"><a xlink:href="_string_8h.html" target="_top" xlink:title=" ">
<polygon fill="white" stroke="#666666" points="1114.5,-294 1061.5,-294 1061.5,-275 1114.5,-275 1114.5,-294"/>
<text text-anchor="middle" x="1088" y="-282" font-family="Helvetica,sans-Serif" font-size="10.00">string.h</text>
</a>
</g>
</g>
<!-- Node19&#45;&gt;Node20 -->
<g id="edge25_Node000019_Node000020" class="edge">
<title>Node19&#45;&gt;Node20</title>
<g id="a_edge25_Node000019_Node000020"><a xlink:title=" ">
<path fill="none" stroke="#63b8ff" d="M1088,-329.75C1088,-322.8 1088,-312.85 1088,-304.13"/>
<polygon fill="#63b8ff" stroke="#63b8ff" points="1091.5,-304.09 1088,-294.09 1084.5,-304.09 1091.5,-304.09"/>
</a>
</g>
</g>
<!-- Node21 -->
<g id="Node000021" class="node">
<title>Node21</title>
<g id="a_Node000021"><a xlink:href="_model_point_base_8h.html" target="_top" xlink:title=" ">
<polygon fill="white" stroke="#666666" points="1352.5,-239 1211.5,-239 1211.5,-220 1352.5,-220 1352.5,-239"/>
<text text-anchor="middle" x="1282" y="-227" font-family="Helvetica,sans-Serif" font-size="10.00">Kit/Dm/ModelPointBase.h</text>
</a>
</g>
</g>
<!-- Node20&#45;&gt;Node21 -->
<g id="edge26_Node000020_Node000021" class="edge">
<title>Node20&#45;&gt;Node21</title>
<g id="a_edge26_Node000020_Node000021"><a xlink:title=" ">
<path fill="none" stroke="#63b8ff" d="M1114.57,-276.24C1147.15,-267.34 1202.72,-252.16 1240.85,-241.74"/>
<polygon fill="#63b8ff" stroke="#63b8ff" points="1241.9,-245.08 1250.62,-239.07 1240.05,-238.33 1241.9,-245.08"/>
</a>
</g>
</g>
<!-- Node38 -->
<g id="Node000038" class="node">
<title>Node38</title>
<g id="a_Node000038"><a xlink:href="_observer_8h.html" target="_top" xlink:title=" ">
<polygon fill="white" stroke="#666666" points="1139,-239 1033,-239 1033,-220 1139,-220 1139,-239"/>
<text text-anchor="middle" x="1086" y="-227" font-family="Helvetica,sans-Serif" font-size="10.00">Kit/Dm/Observer.h</text>
</a>
</g>
</g>
<!-- Node20&#45;&gt;Node38 -->
<g id="edge57_Node000020_Node000038" class="edge">
<title>Node20&#45;&gt;Node38</title>
<g id="a_edge57_Node000020_Node000038"><a xlink:title=" ">
<path fill="none" stroke="#63b8ff" d="M1087.67,-274.75C1087.41,-267.8 1087.03,-257.85 1086.7,-249.13"/>
<polygon fill="#63b8ff" stroke="#63b8ff" points="1090.2,-248.95 1086.32,-239.09 1083.2,-249.21 1090.2,-248.95"/>
</a>
</g>
</g>
<!-- Node21&#45;&gt;Node9 -->
<g id="edge55_Node000021_Node000009" class="edge">
<title>Node21&#45;&gt;Node9</title>
<g id="a_edge55_Node000021_Node000009"><a xlink:title=" ">
<path fill="none" stroke="#63b8ff" d="M1252.78,-219.96C1209.95,-206.31 1129.32,-176.21 1075,-129 1044.85,-102.8 1048.54,-86.52 1024,-55 1016.43,-45.27 1007.38,-34.89 999.91,-26.6"/>
<polygon fill="#63b8ff" stroke="#63b8ff" points="1002.41,-24.14 993.08,-19.11 997.24,-28.85 1002.41,-24.14"/>
</a>
</g>
</g>
<!-- Node22 -->
<g id="Node000022" class="node">
<title>Node22</title>
<g id="a_Node000022"><a xlink:href="_i_model_point_8h.html" target="_top" xlink:title=" ">
<polygon fill="white" stroke="#666666" points="1342,-184 1222,-184 1222,-165 1342,-165 1342,-184"/>
<text text-anchor="middle" x="1282" y="-172" font-family="Helvetica,sans-Serif" font-size="10.00">Kit/Dm/IModelPoint.h</text>
</a>
</g>
</g>
<!-- Node21&#45;&gt;Node22 -->
<g id="edge27_Node000021_Node000022" class="edge">
<title>Node21&#45;&gt;Node22</title>
<g id="a_edge27_Node000021_Node000022"><a xlink:title=" ">
<path fill="none" stroke="#63b8ff" d="M1282,-219.75C1282,-212.8 1282,-202.85 1282,-194.13"/>
<polygon fill="#63b8ff" stroke="#63b8ff" points="1285.5,-194.09 1282,-184.09 1278.5,-194.09 1285.5,-194.09"/>
</a>
</g>
</g>
<!-- Node25 -->
<g id="Node000025" class="node">
<title>Node25</title>
<g id="a_Node000025"><a xlink:title=" ">
<polygon fill="#e0e0e0" stroke="#999999" points="1961.5,-19 1908.5,-19 1908.5,0 1961.5,0 1961.5,-19"/>
<text text-anchor="middle" x="1935" y="-7" font-family="Helvetica,sans-Serif" font-size="10.00">stdlib.h</text>
</a>
</g>
</g>
<!-- Node21&#45;&gt;Node25 -->
<g id="edge56_Node000021_Node000025" class="edge">
<title>Node21&#45;&gt;Node25</title>
<g id="a_edge56_Node000021_Node000025"><a xlink:title=" ">
<path fill="none" stroke="#63b8ff" d="M1352.69,-228C1454.58,-226.05 1648.14,-217.73 1809,-184 1883.01,-168.48 1926.02,-190.51 1970,-129 1992.46,-97.59 1966.03,-51.76 1948.36,-27.32"/>
<polygon fill="#63b8ff" stroke="#63b8ff" points="1950.95,-24.95 1942.14,-19.08 1945.37,-29.17 1950.95,-24.95"/>
</a>
</g>
</g>
<!-- Node30 -->
<g id="Node000030" class="node">
<title>Node30</title>
<g id="a_Node000030"><a xlink:href="_i_observer_8h.html" target="_top" xlink:title=" ">
<polygon fill="white" stroke="#666666" points="1192.5,-129 1083.5,-129 1083.5,-110 1192.5,-110 1192.5,-129"/>
<text text-anchor="middle" x="1138" y="-117" font-family="Helvetica,sans-Serif" font-size="10.00">Kit/Dm/IObserver.h</text>
</a>
</g>
</g>
<!-- Node21&#45;&gt;Node30 -->
<g id="edge51_Node000021_Node000030" class="edge">
<title>Node21&#45;&gt;Node30</title>
<g id="a_edge51_Node000021_Node000030"><a xlink:title=" ">
<path fill="none" stroke="#63b8ff" d="M1267.63,-219.99C1253.42,-211.39 1231.21,-197.49 1213,-184 1192.37,-168.72 1170.08,-149.46 1155.21,-136.18"/>
<polygon fill="#63b8ff" stroke="#63b8ff" points="1157.15,-133.22 1147.38,-129.13 1152.47,-138.43 1157.15,-133.22"/>
</a>
</g>
</g>
<!-- Node33 -->
<g id="Node000033" class="node">
<title>Node33</title>
<g id="a_Node000033"><a xlink:href="_i_model_database_8h.html" target="_top" xlink:title=" ">
<polygon fill="white" stroke="#666666" points="1758,-184 1616,-184 1616,-165 1758,-165 1758,-184"/>
<text text-anchor="middle" x="1687" y="-172" font-family="Helvetica,sans-Serif" font-size="10.00">Kit/Dm/IModelDatabase.h</text>
</a>
</g>
</g>
<!-- Node21&#45;&gt;Node33 -->
<g id="edge44_Node000021_Node000033" class="edge">
<title>Node21&#45;&gt;Node33</title>
<g id="a_edge44_Node000021_Node000033"><a xlink:title=" ">
<path fill="none" stroke="#63b8ff" d="M1347.07,-219.98C1419.29,-210.53 1535.68,-195.3 1611.76,-185.35"/>
<polygon fill="#63b8ff" stroke="#63b8ff" points="1612.29,-188.81 1621.76,-184.04 1611.39,-181.87 1612.29,-188.81"/>
</a>
</g>
</g>
<!-- Node36 -->
<g id="Node000036" class="node">
<title>Node36</title>
<g id="a_Node000036"><a xlink:href="_d_list_8h.html" target="_top" xlink:title=" ">
<polygon fill="white" stroke="#666666" points="1486.5,-184 1369.5,-184 1369.5,-165 1486.5,-165 1486.5,-184"/>
<text text-anchor="middle" x="1428" y="-172" font-family="Helvetica,sans-Serif" font-size="10.00">Kit/Container/DList.h</text>
</a>
</g>
</g>
<!-- Node21&#45;&gt;Node36 -->
<g id="edge52_Node000021_Node000036" class="edge">
<title>Node21&#45;&gt;Node36</title>
<g id="a_edge52_Node000021_Node000036"><a xlink:title=" ">
<path fill="none" stroke="#63b8ff" d="M1305.46,-219.98C1329.58,-211.23 1367.37,-197.51 1394.6,-187.62"/>
<polygon fill="#63b8ff" stroke="#63b8ff" points="1395.91,-190.87 1404.12,-184.17 1393.52,-184.29 1395.91,-190.87"/>
</a>
</g>
</g>
<!-- Node22&#45;&gt;Node3 -->
<g id="edge28_Node000022_Node000003" class="edge">
<title>Node22&#45;&gt;Node3</title>
<g id="a_edge28_Node000022_Node000003"><a xlink:title=" ">
<path fill="none" stroke="#63b8ff" d="M1342.36,-166.77C1348.65,-166.14 1354.95,-165.54 1361,-165 1587.62,-144.94 1648.4,-158.08 1877.25,-129.09"/>
<polygon fill="#63b8ff" stroke="#63b8ff" points="1877.74,-132.55 1887.22,-127.81 1876.86,-125.61 1877.74,-132.55"/>
</a>
</g>
</g>
<!-- Node22&#45;&gt;Node7 -->
<g id="edge29_Node000022_Node000007" class="edge">
<title>Node22&#45;&gt;Node7</title>
<g id="a_edge29_Node000022_Node000007"><a xlink:title=" ">
<path fill="none" stroke="#63b8ff" d="M1290.7,-164.89C1298.47,-156.53 1309.34,-143.09 1314,-129 1318.77,-114.59 1318.7,-97.31 1317.61,-84.42"/>
<polygon fill="#63b8ff" stroke="#63b8ff" points="1321.08,-83.95 1316.5,-74.4 1314.13,-84.73 1321.08,-83.95"/>
</a>
</g>
</g>
<!-- Node22&#45;&gt;Node9 -->
<g id="edge43_Node000022_Node000009" class="edge">
<title>Node22&#45;&gt;Node9</title>
<g id="a_edge43_Node000022_Node000009"><a xlink:title=" ">
<path fill="none" stroke="#63b8ff" d="M1272.13,-164.59C1257.5,-151.64 1228.86,-127.25 1202,-110 1141.34,-71.04 1062.93,-39.08 1018.89,-22.6"/>
<polygon fill="#63b8ff" stroke="#63b8ff" points="1019.85,-19.22 1009.25,-19.04 1017.42,-25.79 1019.85,-19.22"/>
</a>
</g>
</g>
<!-- Node23 -->
<g id="Node000023" class="node">
<title>Node23</title>
<g id="a_Node000023"><a xlink:href="_i_string_8h.html" target="_top" xlink:title=" ">
<polygon fill="white" stroke="#666666" points="1617.5,-129 1520.5,-129 1520.5,-110 1617.5,-110 1617.5,-129"/>
<text text-anchor="middle" x="1569" y="-117" font-family="Helvetica,sans-Serif" font-size="10.00">Kit/Text/IString.h</text>
</a>
</g>
</g>
<!-- Node22&#45;&gt;Node23 -->
<g id="edge30_Node000022_Node000023" class="edge">
<title>Node22&#45;&gt;Node23</title>
<g id="a_edge30_Node000022_Node000023"><a xlink:title=" ">
<path fill="none" stroke="#63b8ff" d="M1328.11,-164.98C1378.28,-155.72 1458.51,-140.9 1512.44,-130.94"/>
<polygon fill="#63b8ff" stroke="#63b8ff" points="1513.33,-134.34 1522.53,-129.08 1512.06,-127.46 1513.33,-134.34"/>
</a>
</g>
</g>
<!-- Node22&#45;&gt;Node30 -->
<g id="edge38_Node000022_Node000030" class="edge">
<title>Node22&#45;&gt;Node30</title>
<g id="a_edge38_Node000022_Node000030"><a xlink:title=" ">
<path fill="none" stroke="#63b8ff" d="M1258.86,-164.98C1235.18,-156.27 1198.13,-142.63 1171.29,-132.75"/>
<polygon fill="#63b8ff" stroke="#63b8ff" points="1172.15,-129.34 1161.56,-129.17 1169.73,-135.91 1172.15,-129.34"/>
</a>
</g>
</g>
<!-- Node31 -->
<g id="Node000031" class="node">
<title>Node31</title>
<g id="a_Node000031"><a xlink:href="_arduino_8h_source.html" target="_top" xlink:title=" ">
<polygon fill="white" stroke="#666666" points="1738.5,-129 1635.5,-129 1635.5,-110 1738.5,-110 1738.5,-129"/>
<text text-anchor="middle" x="1687" y="-117" font-family="Helvetica,sans-Serif" font-size="10.00">Kit/Json/Arduino.h</text>
</a>
</g>
</g>
<!-- Node22&#45;&gt;Node31 -->
<g id="edge41_Node000022_Node000031" class="edge">
<title>Node22&#45;&gt;Node31</title>
<g id="a_edge41_Node000022_Node000031"><a xlink:title=" ">
<path fill="none" stroke="#63b8ff" d="M1342.17,-165.97C1408.89,-157.57 1519.99,-143.42 1625.14,-129.24"/>
<polygon fill="#63b8ff" stroke="#63b8ff" points="1625.85,-132.67 1635.3,-127.87 1624.92,-125.74 1625.85,-132.67"/>
</a>
</g>
</g>
<!-- Node32 -->
<g id="Node000032" class="node">
<title>Node32</title>
<g id="a_Node000032"><a xlink:title=" ">
<polygon fill="#e0e0e0" stroke="#999999" points="1305,-129 1249,-129 1249,-110 1305,-110 1305,-129"/>
<text text-anchor="middle" x="1277" y="-117" font-family="Helvetica,sans-Serif" font-size="10.00">stddef.h</text>
</a>
</g>
</g>
<!-- Node22&#45;&gt;Node32 -->
<g id="edge42_Node000022_Node000032" class="edge">
<title>Node22&#45;&gt;Node32</title>
<g id="a_edge42_Node000022_Node000032"><a xlink:title=" ">
<path fill="none" stroke="#63b8ff" d="M1281.17,-164.75C1280.52,-157.8 1279.58,-147.85 1278.76,-139.13"/>
<polygon fill="#63b8ff" stroke="#63b8ff" points="1282.23,-138.72 1277.81,-129.09 1275.27,-139.37 1282.23,-138.72"/>
</a>
</g>
</g>
<!-- Node24 -->
<g id="Node000024" class="node">
<title>Node24</title>
<g id="a_Node000024"><a xlink:href="_key_8h.html" target="_top" xlink:title=" ">
<polygon fill="white" stroke="#666666" points="1823.5,-74 1714.5,-74 1714.5,-55 1823.5,-55 1823.5,-74"/>
<text text-anchor="middle" x="1769" y="-62" font-family="Helvetica,sans-Serif" font-size="10.00">Kit/Container/Key.h</text>
</a>
</g>
</g>
<!-- Node23&#45;&gt;Node24 -->
<g id="edge31_Node000023_Node000024" class="edge">
<title>Node23&#45;&gt;Node24</title>
<g id="a_edge31_Node000023_Node000024"><a xlink:title=" ">
<path fill="none" stroke="#63b8ff" d="M1601.13,-109.98C1635.15,-100.97 1689,-86.7 1726.5,-76.76"/>
<polygon fill="#63b8ff" stroke="#63b8ff" points="1727.84,-80.03 1736.61,-74.08 1726.05,-73.26 1727.84,-80.03"/>
</a>
</g>
</g>
<!-- Node27 -->
<g id="Node000027" class="node">
<title>Node27</title>
<g id="a_Node000027"><a xlink:href="printfchecker_8h.html" target="_top" xlink:title="This file contains macro that enables the GCC (and Clang) compiler to validate printf flags with thei...">
<polygon fill="white" stroke="#666666" points="1696.5,-74 1551.5,-74 1551.5,-55 1696.5,-55 1696.5,-74"/>
<text text-anchor="middle" x="1624" y="-62" font-family="Helvetica,sans-Serif" font-size="10.00">Kit/System/printfchecker.h</text>
</a>
</g>
</g>
<!-- Node23&#45;&gt;Node27 -->
<g id="edge35_Node000023_Node000027" class="edge">
<title>Node23&#45;&gt;Node27</title>
<g id="a_edge35_Node000023_Node000027"><a xlink:title=" ">
<path fill="none" stroke="#63b8ff" d="M1578.08,-109.75C1586.09,-102.03 1597.96,-90.6 1607.62,-81.28"/>
<polygon fill="#63b8ff" stroke="#63b8ff" points="1610.31,-83.55 1615.09,-74.09 1605.46,-78.51 1610.31,-83.55"/>
</a>
</g>
</g>
<!-- Node28 -->
<g id="Node000028" class="node">
<title>Node28</title>
<g id="a_Node000028"><a xlink:title=" ">
<polygon fill="#e0e0e0" stroke="#999999" points="1455,-74 1399,-74 1399,-55 1455,-55 1455,-74"/>
<text text-anchor="middle" x="1427" y="-62" font-family="Helvetica,sans-Serif" font-size="10.00">stdarg.h</text>
</a>
</g>
</g>
<!-- Node23&#45;&gt;Node28 -->
<g id="edge36_Node000023_Node000028" class="edge">
<title>Node23&#45;&gt;Node28</title>
<g id="a_edge36_Node000023_Node000028"><a xlink:title=" ">
<path fill="none" stroke="#63b8ff" d="M1546.19,-109.98C1522.83,-101.27 1486.3,-87.63 1459.83,-77.75"/>
<polygon fill="#63b8ff" stroke="#63b8ff" points="1460.82,-74.39 1450.23,-74.17 1458.37,-80.95 1460.82,-74.39"/>
</a>
</g>
</g>
<!-- Node29 -->
<g id="Node000029" class="node">
<title>Node29</title>
<g id="a_Node000029"><a xlink:title=" ">
<polygon fill="#e0e0e0" stroke="#999999" points="1533,-74 1473,-74 1473,-55 1533,-55 1533,-74"/>
<text text-anchor="middle" x="1503" y="-62" font-family="Helvetica,sans-Serif" font-size="10.00">iostream</text>
</a>
</g>
</g>
<!-- Node23&#45;&gt;Node29 -->
<g id="edge37_Node000023_Node000029" class="edge">
<title>Node23&#45;&gt;Node29</title>
<g id="a_edge37_Node000023_Node000029"><a xlink:title=" ">
<path fill="none" stroke="#63b8ff" d="M1558.4,-109.98C1548.54,-102.07 1533.65,-90.11 1521.78,-80.58"/>
<polygon fill="#63b8ff" stroke="#63b8ff" points="1523.79,-77.7 1513.8,-74.17 1519.4,-83.16 1523.79,-77.7"/>
</a>
</g>
</g>
<!-- Node24&#45;&gt;Node9 -->
<g id="edge32_Node000024_Node000009" class="edge">
<title>Node24&#45;&gt;Node9</title>
<g id="a_edge32_Node000024_Node000009"><a xlink:title=" ">
<path fill="none" stroke="#63b8ff" d="M1714.39,-55.89C1711.56,-55.57 1708.75,-55.27 1706,-55 1444.45,-29.32 1127.99,-15.86 1021.76,-11.83"/>
<polygon fill="#63b8ff" stroke="#63b8ff" points="1021.7,-8.32 1011.57,-11.44 1021.43,-15.32 1021.7,-8.32"/>
</a>
</g>
</g>
<!-- Node24&#45;&gt;Node25 -->
<g id="edge33_Node000024_Node000025" class="edge">
<title>Node24&#45;&gt;Node25</title>
<g id="a_edge33_Node000024_Node000025"><a xlink:title=" ">
<path fill="none" stroke="#63b8ff" d="M1795.67,-54.98C1823.62,-46.06 1867.71,-31.98 1898.8,-22.06"/>
<polygon fill="#63b8ff" stroke="#63b8ff" points="1899.93,-25.37 1908.4,-18.99 1897.8,-18.7 1899.93,-25.37"/>
</a>
</g>
</g>
<!-- Node26 -->
<g id="Node000026" class="node">
<title>Node26</title>
<g id="a_Node000026"><a xlink:title=" ">
<polygon fill="#e0e0e0" stroke="#999999" points="1795.5,-19 1742.5,-19 1742.5,0 1795.5,0 1795.5,-19"/>
<text text-anchor="middle" x="1769" y="-7" font-family="Helvetica,sans-Serif" font-size="10.00">limits.h</text>
</a>
</g>
</g>
<!-- Node24&#45;&gt;Node26 -->
<g id="edge34_Node000024_Node000026" class="edge">
<title>Node24&#45;&gt;Node26</title>
<g id="a_edge34_Node000024_Node000026"><a xlink:title=" ">
<path fill="none" stroke="#63b8ff" d="M1769,-54.75C1769,-47.8 1769,-37.85 1769,-29.13"/>
<polygon fill="#63b8ff" stroke="#63b8ff" points="1772.5,-29.09 1769,-19.09 1765.5,-29.09 1772.5,-29.09"/>
</a>
</g>
</g>
<!-- Node30&#45;&gt;Node7 -->
<g id="edge39_Node000030_Node000007" class="edge">
<title>Node30&#45;&gt;Node7</title>
<g id="a_edge39_Node000030_Node000007"><a xlink:title=" ">
<path fill="none" stroke="#63b8ff" d="M1166.44,-109.98C1196.28,-101.05 1243.38,-86.94 1276.53,-77.02"/>
<polygon fill="#63b8ff" stroke="#63b8ff" points="1277.76,-80.3 1286.34,-74.08 1275.76,-73.6 1277.76,-80.3"/>
</a>
</g>
</g>
<!-- Node30&#45;&gt;Node9 -->
<g id="edge40_Node000030_Node000009" class="edge">
<title>Node30&#45;&gt;Node9</title>
<g id="a_edge40_Node000030_Node000009"><a xlink:title=" ">
<path fill="none" stroke="#63b8ff" d="M1130.1,-109.94C1117.86,-96.99 1093.19,-72.11 1069,-55 1051.65,-42.73 1030.51,-31.55 1013.78,-23.46"/>
<polygon fill="#63b8ff" stroke="#63b8ff" points="1015.03,-20.19 1004.5,-19.07 1012.04,-26.51 1015.03,-20.19"/>
</a>
</g>
</g>
<!-- Node33&#45;&gt;Node3 -->
<g id="edge45_Node000033_Node000003" class="edge">
<title>Node33&#45;&gt;Node3</title>
<g id="a_edge45_Node000033_Node000003"><a xlink:title=" ">
<path fill="none" stroke="#63b8ff" d="M1725.08,-164.98C1766.47,-155.73 1832.66,-140.93 1877.19,-130.97"/>
<polygon fill="#63b8ff" stroke="#63b8ff" points="1878.19,-134.33 1887.19,-128.73 1876.66,-127.5 1878.19,-134.33"/>
</a>
</g>
</g>
<!-- Node33&#45;&gt;Node23 -->
<g id="edge46_Node000033_Node000023" class="edge">
<title>Node33&#45;&gt;Node23</title>
<g id="a_edge46_Node000033_Node000023"><a xlink:title=" ">
<path fill="none" stroke="#63b8ff" d="M1668.04,-164.98C1648.97,-156.42 1619.34,-143.11 1597.45,-133.28"/>
<polygon fill="#63b8ff" stroke="#63b8ff" points="1598.86,-130.07 1588.3,-129.17 1595.99,-136.46 1598.86,-130.07"/>
</a>
</g>
</g>
<!-- Node33&#45;&gt;Node31 -->
<g id="edge50_Node000033_Node000031" class="edge">
<title>Node33&#45;&gt;Node31</title>
<g id="a_edge50_Node000033_Node000031"><a xlink:title=" ">
<path fill="none" stroke="#63b8ff" d="M1687,-164.75C1687,-157.8 1687,-147.85 1687,-139.13"/>
<polygon fill="#63b8ff" stroke="#63b8ff" points="1690.5,-139.09 1687,-129.09 1683.5,-139.09 1690.5,-139.09"/>
</a>
</g>
</g>
<!-- Node34 -->
<g id="Node000034" class="node">
<title>Node34</title>
<g id="a_Node000034"><a xlink:href="_mutex_8h.html" target="_top" xlink:title=" ">
<polygon fill="white" stroke="#666666" points="1869.5,-129 1756.5,-129 1756.5,-110 1869.5,-110 1869.5,-129"/>
<text text-anchor="middle" x="1813" y="-117" font-family="Helvetica,sans-Serif" font-size="10.00">Kit/System/Mutex.h</text>
</a>
</g>
</g>
<!-- Node33&#45;&gt;Node34 -->
<g id="edge47_Node000033_Node000034" class="edge">
<title>Node33&#45;&gt;Node34</title>
<g id="a_edge47_Node000033_Node000034"><a xlink:title=" ">
<path fill="none" stroke="#63b8ff" d="M1707.24,-164.98C1727.7,-156.38 1759.53,-142.99 1782.93,-133.15"/>
<polygon fill="#63b8ff" stroke="#63b8ff" points="1784.53,-136.27 1792.39,-129.17 1781.81,-129.82 1784.53,-136.27"/>
</a>
</g>
</g>
<!-- Node34&#45;&gt;Node25 -->
<g id="edge48_Node000034_Node000025" class="edge">
<title>Node34&#45;&gt;Node25</title>
<g id="a_edge48_Node000034_Node000025"><a xlink:title=" ">
<path fill="none" stroke="#63b8ff" d="M1852.83,-109.99C1874.28,-103.5 1899.63,-92.41 1916,-74 1926.87,-61.77 1931.53,-43.54 1933.52,-29.74"/>
<polygon fill="#63b8ff" stroke="#63b8ff" points="1937.04,-29.75 1934.64,-19.43 1930.08,-28.99 1937.04,-29.75"/>
</a>
</g>
</g>
<!-- Node35 -->
<g id="Node000035" class="node">
<title>Node35</title>
<g id="a_Node000035"><a xlink:title=" ">
<polygon fill="#e0e0e0" stroke="#999999" points="1906.5,-74 1841.5,-74 1841.5,-55 1906.5,-55 1906.5,-74"/>
<text text-anchor="middle" x="1874" y="-62" font-family="Helvetica,sans-Serif" font-size="10.00">kit_map.h</text>
</a>
</g>
</g>
<!-- Node34&#45;&gt;Node35 -->
<g id="edge49_Node000034_Node000035" class="edge">
<title>Node34&#45;&gt;Node35</title>
<g id="a_edge49_Node000034_Node000035"><a xlink:title=" ">
<path fill="none" stroke="#63b8ff" d="M1822.8,-109.98C1831.82,-102.15 1845.41,-90.34 1856.32,-80.86"/>
<polygon fill="#63b8ff" stroke="#63b8ff" points="1858.77,-83.37 1864.02,-74.17 1854.18,-78.09 1858.77,-83.37"/>
</a>
</g>
</g>
<!-- Node37 -->
<g id="Node000037" class="node">
<title>Node37</title>
<g id="a_Node000037"><a xlink:href="_d_list_base_8h.html" target="_top" xlink:title=" ">
<polygon fill="white" stroke="#666666" points="1502.5,-129 1361.5,-129 1361.5,-110 1502.5,-110 1502.5,-129"/>
<text text-anchor="middle" x="1432" y="-117" font-family="Helvetica,sans-Serif" font-size="10.00">Kit/Container/DListBase.h</text>
</a>
</g>
</g>
<!-- Node36&#45;&gt;Node37 -->
<g id="edge53_Node000036_Node000037" class="edge">
<title>Node36&#45;&gt;Node37</title>
<g id="a_edge53_Node000036_Node000037"><a xlink:title=" ">
<path fill="none" stroke="#63b8ff" d="M1428.66,-164.75C1429.18,-157.8 1429.94,-147.85 1430.59,-139.13"/>
<polygon fill="#63b8ff" stroke="#63b8ff" points="1434.09,-139.32 1431.35,-129.09 1427.11,-138.8 1434.09,-139.32"/>
</a>
</g>
</g>
<!-- Node37&#45;&gt;Node7 -->
<g id="edge54_Node000037_Node000007" class="edge">
<title>Node37&#45;&gt;Node7</title>
<g id="a_edge54_Node000037_Node000007"><a xlink:title=" ">
<path fill="none" stroke="#63b8ff" d="M1413.2,-109.98C1394.38,-101.46 1365.18,-88.23 1343.5,-78.41"/>
<polygon fill="#63b8ff" stroke="#63b8ff" points="1344.69,-75.11 1334.14,-74.17 1341.8,-81.48 1344.69,-75.11"/>
</a>
</g>
</g>
<!-- Node38&#45;&gt;Node9 -->
<g id="edge60_Node000038_Node000009" class="edge">
<title>Node38&#45;&gt;Node9</title>
<g id="a_edge60_Node000038_Node000009"><a xlink:title=" ">
<path fill="none" stroke="#63b8ff" d="M1082.04,-219.95C1067.12,-187.74 1014.06,-73.23 993.36,-28.55"/>
<polygon fill="#63b8ff" stroke="#63b8ff" points="996.42,-26.83 989.04,-19.22 990.07,-29.77 996.42,-26.83"/>
</a>
</g>
</g>
<!-- Node38&#45;&gt;Node22 -->
<g id="edge59_Node000038_Node000022" class="edge">
<title>Node38&#45;&gt;Node22</title>
<g id="a_edge59_Node000038_Node000022"><a xlink:title=" ">
<path fill="none" stroke="#63b8ff" d="M1117.49,-219.98C1150.82,-210.97 1203.6,-196.7 1240.35,-186.76"/>
<polygon fill="#63b8ff" stroke="#63b8ff" points="1241.52,-190.07 1250.26,-184.08 1239.7,-183.31 1241.52,-190.07"/>
</a>
</g>
</g>
<!-- Node38&#45;&gt;Node30 -->
<g id="edge58_Node000038_Node000030" class="edge">
<title>Node38&#45;&gt;Node30</title>
<g id="a_edge58_Node000038_Node000030"><a xlink:title=" ">
<path fill="none" stroke="#63b8ff" d="M1090.26,-219.66C1098.79,-201.93 1118.15,-161.73 1129.42,-138.32"/>
<polygon fill="#63b8ff" stroke="#63b8ff" points="1132.65,-139.69 1133.83,-129.16 1126.34,-136.65 1132.65,-139.69"/>
</a>
</g>
</g>
</g>
</svg>
