<?xml version="1.0" encoding="UTF-8" standalone="no"?>
<!DOCTYPE svg PUBLIC "-//W3C//DTD SVG 1.1//EN"
 "http://www.w3.org/Graphics/SVG/1.1/DTD/svg11.dtd">
<!-- Generated by graphviz version 2.43.0 (0)
 -->
<!-- Title: Kit/Itc/IMessage.h Pages: 1 -->
<svg width="1617pt" height="500pt"
 viewBox="0.00 0.00 1616.50 500.00" xmlns="http://www.w3.org/2000/svg" xmlns:xlink="http://www.w3.org/1999/xlink">
<g id="graph0" class="graph" transform="scale(1 1) rotate(0) translate(4 496)">
<title>Kit/Itc/IMessage.h</title>
<!-- Node1 -->
<g id="Node000001" class="node">
<title>Node1</title>
<g id="a_Node000001"><a xlink:title=" ">
<polygon fill="#999999" stroke="#666666" points="467,-492 363,-492 363,-473 467,-473 467,-492"/>
<text text-anchor="middle" x="415" y="-480" font-family="Helvetica,sans-Serif" font-size="10.00">Kit/Itc/IMessage.h</text>
</a>
</g>
</g>
<!-- Node2 -->
<g id="Node000002" class="node">
<title>Node2</title>
<g id="a_Node000002"><a xlink:href="_mailbox_8h.html" target="_top" xlink:title=" ">
<polygon fill="white" stroke="#666666" points="397,-437 301,-437 301,-418 397,-418 397,-437"/>
<text text-anchor="middle" x="349" y="-425" font-family="Helvetica,sans-Serif" font-size="10.00">Kit/Itc/Mailbox.h</text>
</a>
</g>
</g>
<!-- Node1&#45;&gt;Node2 -->
<g id="edge1_Node000001_Node000002" class="edge">
<title>Node1&#45;&gt;Node2</title>
<g id="a_edge1_Node000001_Node000002"><a xlink:title=" ">
<path fill="none" stroke="#63b8ff" d="M396.45,-466.6C384.62,-457.11 369.71,-445.13 359.8,-437.17"/>
<polygon fill="#63b8ff" stroke="#63b8ff" points="394.41,-469.45 404.4,-472.98 398.79,-463.99 394.41,-469.45"/>
</a>
</g>
</g>
<!-- Node6 -->
<g id="Node000006" class="node">
<title>Node6</title>
<g id="a_Node000006"><a xlink:href="_server_message_8h.html" target="_top" xlink:title=" ">
<polygon fill="white" stroke="#666666" points="621,-437 489,-437 489,-418 621,-418 621,-437"/>
<text text-anchor="middle" x="555" y="-425" font-family="Helvetica,sans-Serif" font-size="10.00">Kit/Itc/ServerMessage.h</text>
</a>
</g>
</g>
<!-- Node1&#45;&gt;Node6 -->
<g id="edge5_Node000001_Node000006" class="edge">
<title>Node1&#45;&gt;Node6</title>
<g id="a_edge5_Node000001_Node000006"><a xlink:title=" ">
<path fill="none" stroke="#63b8ff" d="M446.91,-469.42C472.88,-459.59 508.92,-445.95 532.1,-437.17"/>
<polygon fill="#63b8ff" stroke="#63b8ff" points="445.61,-466.17 437.49,-472.98 448.08,-472.72 445.61,-466.17"/>
</a>
</g>
</g>
<!-- Node3 -->
<g id="Node000003" class="node">
<title>Node3</title>
<g id="a_Node000003"><a xlink:href="src_2_kit_2_event_queue_2_server_8h.html" target="_top" xlink:title=" ">
<polygon fill="white" stroke="#666666" points="267.5,-382 132.5,-382 132.5,-363 267.5,-363 267.5,-382"/>
<text text-anchor="middle" x="200" y="-370" font-family="Helvetica,sans-Serif" font-size="10.00">Kit/EventQueue/Server.h</text>
</a>
</g>
</g>
<!-- Node2&#45;&gt;Node3 -->
<g id="edge2_Node000002_Node000003" class="edge">
<title>Node2&#45;&gt;Node3</title>
<g id="a_edge2_Node000002_Node000003"><a xlink:title=" ">
<path fill="none" stroke="#63b8ff" d="M315.41,-414.55C287.74,-404.71 249.16,-390.98 224.38,-382.17"/>
<polygon fill="#63b8ff" stroke="#63b8ff" points="314.47,-417.93 325.06,-417.98 316.81,-411.34 314.47,-417.93"/>
</a>
</g>
</g>
<!-- Node4 -->
<g id="Node000004" class="node">
<title>Node4</title>
<g id="a_Node000004"><a xlink:href="_with_periodic_scheduling_8h.html" target="_top" xlink:title=" ">
<polygon fill="white" stroke="#666666" points="278.5,-321.5 121.5,-321.5 121.5,-291.5 278.5,-291.5 278.5,-321.5"/>
<text text-anchor="start" x="129.5" y="-309.5" font-family="Helvetica,sans-Serif" font-size="10.00">Kit/EventQueue/WithPeriodic</text>
<text text-anchor="middle" x="200" y="-298.5" font-family="Helvetica,sans-Serif" font-size="10.00">Scheduling.h</text>
</a>
</g>
</g>
<!-- Node3&#45;&gt;Node4 -->
<g id="edge3_Node000003_Node000004" class="edge">
<title>Node3&#45;&gt;Node4</title>
<g id="a_edge3_Node000003_Node000004"><a xlink:title=" ">
<path fill="none" stroke="#63b8ff" d="M200,-352.85C200,-342.97 200,-331.01 200,-321.86"/>
<polygon fill="#63b8ff" stroke="#63b8ff" points="196.5,-352.87 200,-362.87 203.5,-352.87 196.5,-352.87"/>
</a>
</g>
</g>
<!-- Node5 -->
<g id="Node000005" class="node">
<title>Node5</title>
<g id="a_Node000005"><a xlink:href="helpers_8h.html" target="_top" xlink:title="This file defines helper functions/interface for writing unit tests.">
<polygon fill="white" stroke="#666666" points="112,-35.5 0,-35.5 0,-5.5 112,-5.5 112,-35.5"/>
<text text-anchor="start" x="8" y="-23.5" font-family="Helvetica,sans-Serif" font-size="10.00">Kit/_support/testing</text>
<text text-anchor="middle" x="56" y="-12.5" font-family="Helvetica,sans-Serif" font-size="10.00">/helpers.h</text>
</a>
</g>
</g>
<!-- Node3&#45;&gt;Node5 -->
<g id="edge4_Node000003_Node000005" class="edge">
<title>Node3&#45;&gt;Node5</title>
<g id="a_edge4_Node000003_Node000005"><a xlink:title=" ">
<path fill="none" stroke="#63b8ff" d="M165.33,-359.22C147.91,-351.82 127.31,-341.08 112,-327 77.05,-294.85 56,-283.49 56,-236 56,-236 56,-236 56,-168 56,-119.42 56,-61.78 56,-35.64"/>
<polygon fill="#63b8ff" stroke="#63b8ff" points="164.04,-362.47 174.63,-362.98 166.67,-355.99 164.04,-362.47"/>
</a>
</g>
</g>
<!-- Node7 -->
<g id="Node000007" class="node">
<title>Node7</title>
<g id="a_Node000007"><a xlink:href="_request_message_8h.html" target="_top" xlink:title=" ">
<polygon fill="white" stroke="#666666" points="714,-382 574,-382 574,-363 714,-363 714,-382"/>
<text text-anchor="middle" x="644" y="-370" font-family="Helvetica,sans-Serif" font-size="10.00">Kit/Itc/RequestMessage.h</text>
</a>
</g>
</g>
<!-- Node6&#45;&gt;Node7 -->
<g id="edge6_Node000006_Node000007" class="edge">
<title>Node6&#45;&gt;Node7</title>
<g id="a_edge6_Node000006_Node000007"><a xlink:title=" ">
<path fill="none" stroke="#63b8ff" d="M578.18,-412.7C594.39,-403.04 615.55,-390.44 629.44,-382.17"/>
<polygon fill="#63b8ff" stroke="#63b8ff" points="576.1,-409.86 569.3,-417.98 579.68,-415.88 576.1,-409.86"/>
</a>
</g>
</g>
<!-- Node8 -->
<g id="Node000008" class="node">
<title>Node8</title>
<g id="a_Node000008"><a xlink:href="_i_rate_request_8h.html" target="_top" xlink:title=" ">
<polygon fill="white" stroke="#666666" points="1088,-327 914,-327 914,-286 1088,-286 1088,-327"/>
<text text-anchor="start" x="922" y="-315" font-family="Helvetica,sans-Serif" font-size="10.00">/home/runner/work/kit.core</text>
<text text-anchor="start" x="922" y="-304" font-family="Helvetica,sans-Serif" font-size="10.00">/kit.core/projects/examples</text>
<text text-anchor="middle" x="1001" y="-293" font-family="Helvetica,sans-Serif" font-size="10.00">/Itc/Synchronous/IRateRequest.h</text>
</a>
</g>
</g>
<!-- Node7&#45;&gt;Node8 -->
<g id="edge7_Node000007_Node000008" class="edge">
<title>Node7&#45;&gt;Node8</title>
<g id="a_edge7_Node000007_Node000008"><a xlink:title=" ">
<path fill="none" stroke="#63b8ff" d="M701.76,-361.15C759.13,-350.86 847.82,-334.96 913.77,-323.14"/>
<polygon fill="#63b8ff" stroke="#63b8ff" points="701,-357.73 691.78,-362.94 702.24,-364.62 701,-357.73"/>
</a>
</g>
</g>
<!-- Node11 -->
<g id="Node000011" class="node">
<title>Node11</title>
<g id="a_Node000011"><a xlink:href="_erase_request_8h.html" target="_top" xlink:title=" ">
<polygon fill="white" stroke="#666666" points="581.5,-244.5 400.5,-244.5 400.5,-225.5 581.5,-225.5 581.5,-244.5"/>
<text text-anchor="middle" x="491" y="-232.5" font-family="Helvetica,sans-Serif" font-size="10.00">Kit/Dm/Persistent/EraseRequest.h</text>
</a>
</g>
</g>
<!-- Node7&#45;&gt;Node11 -->
<g id="edge10_Node000007_Node000011" class="edge">
<title>Node7&#45;&gt;Node11</title>
<g id="a_edge10_Node000007_Node000011"><a xlink:title=" ">
<path fill="none" stroke="#63b8ff" d="M565.5,-360.07C544.9,-353.51 524.43,-343.19 510,-327 488.95,-303.39 489,-262.59 490.17,-244.76"/>
<polygon fill="#63b8ff" stroke="#63b8ff" points="564.7,-363.48 575.28,-362.92 566.65,-356.76 564.7,-363.48"/>
</a>
</g>
</g>
<!-- Node13 -->
<g id="Node000013" class="node">
<title>Node13</title>
<g id="a_Node000013"><a xlink:href="_flush_request_8h.html" target="_top" xlink:title=" ">
<polygon fill="white" stroke="#666666" points="780,-244.5 600,-244.5 600,-225.5 780,-225.5 780,-244.5"/>
<text text-anchor="middle" x="690" y="-232.5" font-family="Helvetica,sans-Serif" font-size="10.00">Kit/Dm/Persistent/FlushRequest.h</text>
</a>
</g>
</g>
<!-- Node7&#45;&gt;Node13 -->
<g id="edge12_Node000007_Node000013" class="edge">
<title>Node7&#45;&gt;Node13</title>
<g id="a_edge12_Node000007_Node000013"><a xlink:title=" ">
<path fill="none" stroke="#63b8ff" d="M658.73,-355C665.03,-347.06 671.88,-337.09 676,-327 687.67,-298.44 689.7,-261.22 689.99,-244.63"/>
<polygon fill="#63b8ff" stroke="#63b8ff" points="656,-352.81 652.26,-362.72 661.37,-357.31 656,-352.81"/>
</a>
</g>
</g>
<!-- Node14 -->
<g id="Node000014" class="node">
<title>Node14</title>
<g id="a_Node000014"><a xlink:href="_i_listener_client_request_8h.html" target="_top" xlink:title=" ">
<polygon fill="white" stroke="#666666" points="1265.5,-321.5 1114.5,-321.5 1114.5,-291.5 1265.5,-291.5 1265.5,-321.5"/>
<text text-anchor="start" x="1122.5" y="-309.5" font-family="Helvetica,sans-Serif" font-size="10.00">Kit/Io/Socket/IListenerClient</text>
<text text-anchor="middle" x="1190" y="-298.5" font-family="Helvetica,sans-Serif" font-size="10.00">Request.h</text>
</a>
</g>
</g>
<!-- Node7&#45;&gt;Node14 -->
<g id="edge14_Node000007_Node000014" class="edge">
<title>Node7&#45;&gt;Node14</title>
<g id="a_edge14_Node000007_Node000014"><a xlink:title=" ">
<path fill="none" stroke="#63b8ff" d="M724.36,-366.26C815.18,-359.72 967.26,-346.91 1097,-327 1106.95,-325.47 1117.43,-323.57 1127.64,-321.55"/>
<polygon fill="#63b8ff" stroke="#63b8ff" points="723.86,-362.78 714.14,-366.99 724.36,-369.77 723.86,-362.78"/>
</a>
</g>
</g>
<!-- Node16 -->
<g id="Node000016" class="node">
<title>Node16</title>
<g id="a_Node000016"><a xlink:href="_i_close_request_8h.html" target="_top" xlink:title=" ">
<polygon fill="white" stroke="#666666" points="1068.5,-244.5 941.5,-244.5 941.5,-225.5 1068.5,-225.5 1068.5,-244.5"/>
<text text-anchor="middle" x="1005" y="-232.5" font-family="Helvetica,sans-Serif" font-size="10.00">Kit/Itc/ICloseRequest.h</text>
</a>
</g>
</g>
<!-- Node7&#45;&gt;Node16 -->
<g id="edge16_Node000007_Node000016" class="edge">
<title>Node7&#45;&gt;Node16</title>
<g id="a_edge16_Node000007_Node000016"><a xlink:title=" ">
<path fill="none" stroke="#63b8ff" d="M676.87,-359.37C701,-350.45 734.55,-338.02 764,-327 844.42,-296.9 939.77,-260.76 982.42,-244.58"/>
<polygon fill="#63b8ff" stroke="#63b8ff" points="675.64,-356.09 667.47,-362.84 678.06,-362.66 675.64,-356.09"/>
</a>
</g>
</g>
<!-- Node26 -->
<g id="Node000026" class="node">
<title>Node26</title>
<g id="a_Node000026"><a xlink:href="_i_open_request_8h.html" target="_top" xlink:title=" ">
<polygon fill="white" stroke="#666666" points="923.5,-244.5 798.5,-244.5 798.5,-225.5 923.5,-225.5 923.5,-244.5"/>
<text text-anchor="middle" x="861" y="-232.5" font-family="Helvetica,sans-Serif" font-size="10.00">Kit/Itc/IOpenRequest.h</text>
</a>
</g>
</g>
<!-- Node7&#45;&gt;Node26 -->
<g id="edge28_Node000007_Node000026" class="edge">
<title>Node7&#45;&gt;Node26</title>
<g id="a_edge28_Node000007_Node000026"><a xlink:title=" ">
<path fill="none" stroke="#63b8ff" d="M666.62,-357.37C711.53,-329.33 810.75,-267.38 847.21,-244.61"/>
<polygon fill="#63b8ff" stroke="#63b8ff" points="664.53,-354.55 657.9,-362.82 668.24,-360.49 664.53,-354.55"/>
</a>
</g>
</g>
<!-- Node28 -->
<g id="Node000028" class="node">
<title>Node28</title>
<g id="a_Node000028"><a xlink:href="_response_message_8h.html" target="_top" xlink:title=" ">
<polygon fill="white" stroke="#666666" points="667,-316 519,-316 519,-297 667,-297 667,-316"/>
<text text-anchor="middle" x="593" y="-304" font-family="Helvetica,sans-Serif" font-size="10.00">Kit/Itc/ResponseMessage.h</text>
</a>
</g>
</g>
<!-- Node7&#45;&gt;Node28 -->
<g id="edge31_Node000007_Node000028" class="edge">
<title>Node7&#45;&gt;Node28</title>
<g id="a_edge31_Node000007_Node000028"><a xlink:title=" ">
<path fill="none" stroke="#63b8ff" d="M630.67,-354.77C620.88,-342.49 607.98,-326.3 600.1,-316.41"/>
<polygon fill="#63b8ff" stroke="#63b8ff" points="628.15,-357.23 637.12,-362.87 633.63,-352.87 628.15,-357.23"/>
</a>
</g>
</g>
<!-- Node29 -->
<g id="Node000029" class="node">
<title>Node29</title>
<g id="a_Node000029"><a xlink:href="_i_reader_request_8h.html" target="_top" xlink:title=" ">
<polygon fill="white" stroke="#666666" points="227.5,-250 84.5,-250 84.5,-220 227.5,-220 227.5,-250"/>
<text text-anchor="start" x="92.5" y="-238" font-family="Helvetica,sans-Serif" font-size="10.00">Kit/Persistence/Record</text>
<text text-anchor="middle" x="156" y="-227" font-family="Helvetica,sans-Serif" font-size="10.00">/Journal/IReaderRequest.h</text>
</a>
</g>
</g>
<!-- Node7&#45;&gt;Node29 -->
<g id="edge43_Node000007_Node000029" class="edge">
<title>Node7&#45;&gt;Node29</title>
<g id="a_edge43_Node000007_Node000029"><a xlink:title=" ">
<path fill="none" stroke="#63b8ff" d="M571.08,-361.45C522.66,-353.96 457.95,-342.37 402,-327 381.2,-321.29 256.4,-274.17 192.96,-250.07"/>
<polygon fill="#63b8ff" stroke="#63b8ff" points="570.75,-364.94 581.16,-362.99 571.8,-358.02 570.75,-364.94"/>
</a>
</g>
</g>
<!-- Node31 -->
<g id="Node000031" class="node">
<title>Node31</title>
<g id="a_Node000031"><a xlink:href="_i_reset_request_8h.html" target="_top" xlink:title=" ">
<polygon fill="white" stroke="#666666" points="382,-250 246,-250 246,-220 382,-220 382,-250"/>
<text text-anchor="start" x="254" y="-238" font-family="Helvetica,sans-Serif" font-size="10.00">Kit/Persistence/Record</text>
<text text-anchor="middle" x="314" y="-227" font-family="Helvetica,sans-Serif" font-size="10.00">/Journal/IResetRequest.h</text>
</a>
</g>
</g>
<!-- Node7&#45;&gt;Node31 -->
<g id="edge44_Node000007_Node000031" class="edge">
<title>Node7&#45;&gt;Node31</title>
<g id="a_edge44_Node000007_Node000031"><a xlink:title=" ">
<path fill="none" stroke="#63b8ff" d="M596.62,-360.52C565.5,-352.67 524.2,-341.04 489,-327 432.54,-304.48 370.24,-269.44 337.35,-250.07"/>
<polygon fill="#63b8ff" stroke="#63b8ff" points="595.8,-363.92 606.35,-362.93 597.48,-357.13 595.8,-363.92"/>
</a>
</g>
</g>
<!-- Node9 -->
<g id="Node000009" class="node">
<title>Node9</title>
<g id="a_Node000009"><a xlink:href="_rate_sync_8h.html" target="_top" xlink:title=" ">
<polygon fill="white" stroke="#666666" points="1392.5,-118 1237.5,-118 1237.5,-77 1392.5,-77 1392.5,-118"/>
<text text-anchor="start" x="1245.5" y="-106" font-family="Helvetica,sans-Serif" font-size="10.00">/home/runner/work/kit.core</text>
<text text-anchor="start" x="1245.5" y="-95" font-family="Helvetica,sans-Serif" font-size="10.00">/kit.core/projects/examples</text>
<text text-anchor="middle" x="1315" y="-84" font-family="Helvetica,sans-Serif" font-size="10.00">/Itc/Synchronous/RateSync.h</text>
</a>
</g>
</g>
<!-- Node8&#45;&gt;Node9 -->
<g id="edge8_Node000008_Node000009" class="edge">
<title>Node8&#45;&gt;Node9</title>
<g id="a_edge8_Node000008_Node000009"><a xlink:title=" ">
<path fill="none" stroke="#63b8ff" d="M1036.36,-279.96C1049.21,-270.6 1063.81,-259.89 1077,-250 1094.5,-236.88 1097.98,-232.38 1116,-220 1172.05,-181.49 1240.24,-141.2 1280.49,-118.05"/>
<polygon fill="#63b8ff" stroke="#63b8ff" points="1034.24,-277.17 1028.2,-285.88 1038.35,-282.84 1034.24,-277.17"/>
</a>
</g>
</g>
<!-- Node10 -->
<g id="Node000010" class="node">
<title>Node10</title>
<g id="a_Node000010"><a xlink:href="projects_2examples_2_itc_2_synchronous_2_server_8h.html" target="_top" xlink:title=" ">
<polygon fill="white" stroke="#666666" points="1608.5,-41 1459.5,-41 1459.5,0 1608.5,0 1608.5,-41"/>
<text text-anchor="start" x="1467.5" y="-29" font-family="Helvetica,sans-Serif" font-size="10.00">/home/runner/work/kit.core</text>
<text text-anchor="start" x="1467.5" y="-18" font-family="Helvetica,sans-Serif" font-size="10.00">/kit.core/projects/examples</text>
<text text-anchor="middle" x="1534" y="-7" font-family="Helvetica,sans-Serif" font-size="10.00">/Itc/Synchronous/Server.h</text>
</a>
</g>
</g>
<!-- Node9&#45;&gt;Node10 -->
<g id="edge9_Node000009_Node000010" class="edge">
<title>Node9&#45;&gt;Node10</title>
<g id="a_edge9_Node000009_Node000010"><a xlink:title=" ">
<path fill="none" stroke="#63b8ff" d="M1381.65,-73.67C1412.08,-63.25 1447.76,-51.03 1476.94,-41.04"/>
<polygon fill="#63b8ff" stroke="#63b8ff" points="1380.29,-70.44 1371.97,-76.99 1382.56,-77.06 1380.29,-70.44"/>
</a>
</g>
</g>
<!-- Node12 -->
<g id="Node000012" class="node">
<title>Node12</title>
<g id="a_Node000012"><a xlink:href="_record_8h.html" target="_top" xlink:title=" ">
<polygon fill="white" stroke="#666666" points="664,-178.5 516,-178.5 516,-159.5 664,-159.5 664,-178.5"/>
<text text-anchor="middle" x="590" y="-166.5" font-family="Helvetica,sans-Serif" font-size="10.00">Kit/Dm/Persistent/Record.h</text>
</a>
</g>
</g>
<!-- Node11&#45;&gt;Node12 -->
<g id="edge11_Node000011_Node000012" class="edge">
<title>Node11&#45;&gt;Node12</title>
<g id="a_edge11_Node000011_Node000012"><a xlink:title=" ">
<path fill="none" stroke="#63b8ff" d="M512.89,-219.85C532.35,-207.27 560.18,-189.28 576.54,-178.7"/>
<polygon fill="#63b8ff" stroke="#63b8ff" points="510.85,-217 504.35,-225.37 514.65,-222.88 510.85,-217"/>
</a>
</g>
</g>
<!-- Node13&#45;&gt;Node12 -->
<g id="edge13_Node000013_Node000012" class="edge">
<title>Node13&#45;&gt;Node12</title>
<g id="a_edge13_Node000013_Node000012"><a xlink:title=" ">
<path fill="none" stroke="#63b8ff" d="M667.89,-219.85C648.23,-207.27 620.12,-189.28 603.59,-178.7"/>
<polygon fill="#63b8ff" stroke="#63b8ff" points="666.2,-222.93 676.51,-225.37 669.98,-217.03 666.2,-222.93"/>
</a>
</g>
</g>
<!-- Node15 -->
<g id="Node000015" class="node">
<title>Node15</title>
<g id="a_Node000015"><a xlink:href="_listener_client_sync_8h.html" target="_top" xlink:title=" ">
<polygon fill="white" stroke="#666666" points="1273,-250 1125,-250 1125,-220 1273,-220 1273,-250"/>
<text text-anchor="start" x="1133" y="-238" font-family="Helvetica,sans-Serif" font-size="10.00">Kit/Io/Socket/ListenerClient</text>
<text text-anchor="middle" x="1199" y="-227" font-family="Helvetica,sans-Serif" font-size="10.00">Sync.h</text>
</a>
</g>
</g>
<!-- Node14&#45;&gt;Node15 -->
<g id="edge15_Node000014_Node000015" class="edge">
<title>Node14&#45;&gt;Node15</title>
<g id="a_edge15_Node000014_Node000015"><a xlink:title=" ">
<path fill="none" stroke="#63b8ff" d="M1193.14,-281.25C1194.49,-270.81 1196.02,-258.99 1197.18,-250.04"/>
<polygon fill="#63b8ff" stroke="#63b8ff" points="1189.63,-281.07 1191.82,-291.44 1196.58,-281.97 1189.63,-281.07"/>
</a>
</g>
</g>
<!-- Node17 -->
<g id="Node000017" class="node">
<title>Node17</title>
<g id="a_Node000017"><a xlink:href="_open_close_sync_8h.html" target="_top" xlink:title=" ">
<polygon fill="white" stroke="#666666" points="938.5,-107 805.5,-107 805.5,-88 938.5,-88 938.5,-107"/>
<text text-anchor="middle" x="872" y="-95" font-family="Helvetica,sans-Serif" font-size="10.00">Kit/Itc/OpenCloseSync.h</text>
</a>
</g>
</g>
<!-- Node16&#45;&gt;Node17 -->
<g id="edge17_Node000016_Node000017" class="edge">
<title>Node16&#45;&gt;Node17</title>
<g id="a_edge17_Node000016_Node000017"><a xlink:title=" ">
<path fill="none" stroke="#63b8ff" d="M990.34,-217.85C975.4,-201.52 951.44,-175.66 930,-154 913.14,-136.96 892.75,-117.77 881.19,-107"/>
<polygon fill="#63b8ff" stroke="#63b8ff" points="987.94,-220.42 997.27,-225.45 993.11,-215.7 987.94,-220.42"/>
</a>
</g>
</g>
<!-- Node17&#45;&gt;Node5 -->
<g id="edge27_Node000017_Node000005" class="edge">
<title>Node17&#45;&gt;Node5</title>
<g id="a_edge27_Node000017_Node000005"><a xlink:title=" ">
<path fill="none" stroke="#63b8ff" d="M794.96,-96.31C658.14,-94.76 364.24,-85.92 121,-41 113.47,-39.61 105.57,-37.67 97.98,-35.54"/>
<polygon fill="#63b8ff" stroke="#63b8ff" points="795.29,-99.81 805.33,-96.42 795.37,-92.81 795.29,-99.81"/>
</a>
</g>
</g>
<!-- Node17&#45;&gt;Node10 -->
<g id="edge23_Node000017_Node000010" class="edge">
<title>Node17&#45;&gt;Node10</title>
<g id="a_edge23_Node000017_Node000010"><a xlink:title=" ">
<path fill="none" stroke="#63b8ff" d="M948.93,-92.44C1060.26,-85.82 1272.49,-70.39 1451,-41 1453.78,-40.54 1456.6,-40.05 1459.44,-39.52"/>
<polygon fill="#63b8ff" stroke="#63b8ff" points="948.58,-88.96 938.81,-93.04 949,-95.95 948.58,-88.96"/>
</a>
</g>
</g>
<!-- Node18 -->
<g id="Node000018" class="node">
<title>Node18</title>
<g id="a_Node000018"><a xlink:href="_led_server_8h.html" target="_top" xlink:title=" ">
<polygon fill="white" stroke="#666666" points="1441.5,-41 1260.5,-41 1260.5,0 1441.5,0 1441.5,-41"/>
<text text-anchor="start" x="1268.5" y="-29" font-family="Helvetica,sans-Serif" font-size="10.00">/home/runner/work/kit.core</text>
<text text-anchor="start" x="1268.5" y="-18" font-family="Helvetica,sans-Serif" font-size="10.00">/kit.core/projects/examples</text>
<text text-anchor="middle" x="1351" y="-7" font-family="Helvetica,sans-Serif" font-size="10.00">/Container/RingBuffer/LedServer.h</text>
</a>
</g>
</g>
<!-- Node17&#45;&gt;Node18 -->
<g id="edge18_Node000017_Node000018" class="edge">
<title>Node17&#45;&gt;Node18</title>
<g id="a_edge18_Node000017_Node000018"><a xlink:title=" ">
<path fill="none" stroke="#63b8ff" d="M946.55,-86.64C1023.1,-76.27 1145.6,-58.98 1251,-41 1254.05,-40.48 1257.15,-39.94 1260.28,-39.38"/>
<polygon fill="#63b8ff" stroke="#63b8ff" points="945.96,-83.19 936.52,-88 946.9,-90.13 945.96,-83.19"/>
</a>
</g>
</g>
<!-- Node19 -->
<g id="Node000019" class="node">
<title>Node19</title>
<g id="a_Node000019"><a xlink:href="_producer_8h.html" target="_top" xlink:title=" ">
<polygon fill="white" stroke="#666666" points="449.5,-41 274.5,-41 274.5,0 449.5,0 449.5,-41"/>
<text text-anchor="start" x="282.5" y="-29" font-family="Helvetica,sans-Serif" font-size="10.00">/home/runner/work/kit.core</text>
<text text-anchor="start" x="282.5" y="-18" font-family="Helvetica,sans-Serif" font-size="10.00">/kit.core/projects/examples</text>
<text text-anchor="middle" x="362" y="-7" font-family="Helvetica,sans-Serif" font-size="10.00">/Container/RingBuffer/Producer.h</text>
</a>
</g>
</g>
<!-- Node17&#45;&gt;Node19 -->
<g id="edge19_Node000017_Node000019" class="edge">
<title>Node17&#45;&gt;Node19</title>
<g id="a_edge19_Node000017_Node000019"><a xlink:title=" ">
<path fill="none" stroke="#63b8ff" d="M795.33,-87.78C712.05,-77.95 575.22,-60.74 458,-41 455.23,-40.53 452.42,-40.05 449.59,-39.54"/>
<polygon fill="#63b8ff" stroke="#63b8ff" points="795.13,-91.28 805.47,-88.98 795.95,-84.33 795.13,-91.28"/>
</a>
</g>
</g>
<!-- Node20 -->
<g id="Node000020" class="node">
<title>Node20</title>
<g id="a_Node000020"><a xlink:href="_dm_2_transaction_2_client_8h.html" target="_top" xlink:title=" ">
<polygon fill="white" stroke="#666666" points="616.5,-41 467.5,-41 467.5,0 616.5,0 616.5,-41"/>
<text text-anchor="start" x="475.5" y="-29" font-family="Helvetica,sans-Serif" font-size="10.00">/home/runner/work/kit.core</text>
<text text-anchor="start" x="475.5" y="-18" font-family="Helvetica,sans-Serif" font-size="10.00">/kit.core/projects/examples</text>
<text text-anchor="middle" x="542" y="-7" font-family="Helvetica,sans-Serif" font-size="10.00">/Dm/Transaction/Client.h</text>
</a>
</g>
</g>
<!-- Node17&#45;&gt;Node20 -->
<g id="edge20_Node000017_Node000020" class="edge">
<title>Node17&#45;&gt;Node20</title>
<g id="a_edge20_Node000017_Node000020"><a xlink:title=" ">
<path fill="none" stroke="#63b8ff" d="M823.61,-85.77C773.79,-74.7 693.93,-56.84 625,-41 622.26,-40.37 619.47,-39.73 616.65,-39.07"/>
<polygon fill="#63b8ff" stroke="#63b8ff" points="822.95,-89.21 833.47,-87.96 824.47,-82.38 822.95,-89.21"/>
</a>
</g>
</g>
<!-- Node21 -->
<g id="Node000021" class="node">
<title>Node21</title>
<g id="a_Node000021"><a xlink:href="projects_2examples_2_dm_2_transaction_2_server_8h.html" target="_top" xlink:title=" ">
<polygon fill="white" stroke="#666666" points="783.5,-41 634.5,-41 634.5,0 783.5,0 783.5,-41"/>
<text text-anchor="start" x="642.5" y="-29" font-family="Helvetica,sans-Serif" font-size="10.00">/home/runner/work/kit.core</text>
<text text-anchor="start" x="642.5" y="-18" font-family="Helvetica,sans-Serif" font-size="10.00">/kit.core/projects/examples</text>
<text text-anchor="middle" x="709" y="-7" font-family="Helvetica,sans-Serif" font-size="10.00">/Dm/Transaction/Server.h</text>
</a>
</g>
</g>
<!-- Node17&#45;&gt;Node21 -->
<g id="edge21_Node000017_Node000021" class="edge">
<title>Node17&#45;&gt;Node21</title>
<g id="a_edge21_Node000017_Node000021"><a xlink:title=" ">
<path fill="none" stroke="#63b8ff" d="M844.21,-83.71C818.77,-72.01 780.75,-54.51 751.5,-41.05"/>
<polygon fill="#63b8ff" stroke="#63b8ff" points="842.75,-86.9 853.3,-87.9 845.68,-80.54 842.75,-86.9"/>
</a>
</g>
</g>
<!-- Node22 -->
<g id="Node000022" class="node">
<title>Node22</title>
<g id="a_Node000022"><a xlink:href="_itc_2_synchronous_2_client_8h.html" target="_top" xlink:title=" ">
<polygon fill="white" stroke="#666666" points="950.5,-41 801.5,-41 801.5,0 950.5,0 950.5,-41"/>
<text text-anchor="start" x="809.5" y="-29" font-family="Helvetica,sans-Serif" font-size="10.00">/home/runner/work/kit.core</text>
<text text-anchor="start" x="809.5" y="-18" font-family="Helvetica,sans-Serif" font-size="10.00">/kit.core/projects/examples</text>
<text text-anchor="middle" x="876" y="-7" font-family="Helvetica,sans-Serif" font-size="10.00">/Itc/Synchronous/Client.h</text>
</a>
</g>
</g>
<!-- Node17&#45;&gt;Node22 -->
<g id="edge22_Node000017_Node000022" class="edge">
<title>Node17&#45;&gt;Node22</title>
<g id="a_edge22_Node000017_Node000022"><a xlink:title=" ">
<path fill="none" stroke="#63b8ff" d="M873.01,-77.61C873.6,-66.5 874.35,-52.46 874.95,-41.21"/>
<polygon fill="#63b8ff" stroke="#63b8ff" points="869.5,-77.72 872.46,-87.9 876.49,-78.1 869.5,-77.72"/>
</a>
</g>
</g>
<!-- Node23 -->
<g id="Node000023" class="node">
<title>Node23</title>
<g id="a_Node000023"><a xlink:href="_log_sink_8h.html" target="_top" xlink:title=" ">
<polygon fill="white" stroke="#666666" points="1097.5,-35.5 968.5,-35.5 968.5,-5.5 1097.5,-5.5 1097.5,-35.5"/>
<text text-anchor="start" x="976.5" y="-23.5" font-family="Helvetica,sans-Serif" font-size="10.00">Kit/Logging/Framework</text>
<text text-anchor="middle" x="1033" y="-12.5" font-family="Helvetica,sans-Serif" font-size="10.00">/LogSink.h</text>
</a>
</g>
</g>
<!-- Node17&#45;&gt;Node23 -->
<g id="edge24_Node000017_Node000023" class="edge">
<title>Node17&#45;&gt;Node23</title>
<g id="a_edge24_Node000017_Node000023"><a xlink:title=" ">
<path fill="none" stroke="#63b8ff" d="M899.91,-83.5C928.61,-70.13 973.16,-49.37 1002.71,-35.61"/>
<polygon fill="#63b8ff" stroke="#63b8ff" points="898.06,-80.5 890.47,-87.9 901.01,-86.85 898.06,-80.5"/>
</a>
</g>
</g>
<!-- Node24 -->
<g id="Node000024" class="node">
<title>Node24</title>
<g id="a_Node000024"><a xlink:href="src_2_kit_2_persistence_2_record_2_journal_2_server_8h.html" target="_top" xlink:title=" ">
<polygon fill="white" stroke="#666666" points="256,-35.5 130,-35.5 130,-5.5 256,-5.5 256,-35.5"/>
<text text-anchor="start" x="138" y="-23.5" font-family="Helvetica,sans-Serif" font-size="10.00">Kit/Persistence/Record</text>
<text text-anchor="middle" x="193" y="-12.5" font-family="Helvetica,sans-Serif" font-size="10.00">/Journal/Server.h</text>
</a>
</g>
</g>
<!-- Node17&#45;&gt;Node24 -->
<g id="edge25_Node000017_Node000024" class="edge">
<title>Node17&#45;&gt;Node24</title>
<g id="a_edge25_Node000017_Node000024"><a xlink:title=" ">
<path fill="none" stroke="#63b8ff" d="M795.31,-93.75C679.59,-88.64 453.81,-74.93 265,-41 256.97,-39.56 248.53,-37.64 240.37,-35.58"/>
<polygon fill="#63b8ff" stroke="#63b8ff" points="795.34,-97.25 805.48,-94.19 795.64,-90.26 795.34,-97.25"/>
</a>
</g>
</g>
<!-- Node25 -->
<g id="Node000025" class="node">
<title>Node25</title>
<g id="a_Node000025"><a xlink:href="src_2_kit_2_persistence_2_record_2_server_8h.html" target="_top" xlink:title=" ">
<polygon fill="white" stroke="#666666" points="1242,-35.5 1116,-35.5 1116,-5.5 1242,-5.5 1242,-35.5"/>
<text text-anchor="start" x="1124" y="-23.5" font-family="Helvetica,sans-Serif" font-size="10.00">Kit/Persistence/Record</text>
<text text-anchor="middle" x="1179" y="-12.5" font-family="Helvetica,sans-Serif" font-size="10.00">/Server.h</text>
</a>
</g>
</g>
<!-- Node17&#45;&gt;Node25 -->
<g id="edge26_Node000017_Node000025" class="edge">
<title>Node17&#45;&gt;Node25</title>
<g id="a_edge26_Node000017_Node000025"><a xlink:title=" ">
<path fill="none" stroke="#63b8ff" d="M919.32,-85.69C966.66,-74.78 1041.5,-57.26 1106,-41 1112.87,-39.27 1120.09,-37.4 1127.2,-35.53"/>
<polygon fill="#63b8ff" stroke="#63b8ff" points="918.32,-82.33 909.36,-87.98 919.89,-89.15 918.32,-82.33"/>
</a>
</g>
</g>
<!-- Node27 -->
<g id="Node000027" class="node">
<title>Node27</title>
<g id="a_Node000027"><a xlink:href="_open_sync_8h.html" target="_top" xlink:title=" ">
<polygon fill="white" stroke="#666666" points="921,-178.5 815,-178.5 815,-159.5 921,-159.5 921,-178.5"/>
<text text-anchor="middle" x="868" y="-166.5" font-family="Helvetica,sans-Serif" font-size="10.00">Kit/Itc/OpenSync.h</text>
</a>
</g>
</g>
<!-- Node26&#45;&gt;Node27 -->
<g id="edge29_Node000026_Node000027" class="edge">
<title>Node26&#45;&gt;Node27</title>
<g id="a_edge29_Node000026_Node000027"><a xlink:title=" ">
<path fill="none" stroke="#63b8ff" d="M863.07,-215.08C864.38,-203.13 866.01,-188.22 867.03,-178.91"/>
<polygon fill="#63b8ff" stroke="#63b8ff" points="859.55,-215.05 861.94,-225.37 866.51,-215.81 859.55,-215.05"/>
</a>
</g>
</g>
<!-- Node27&#45;&gt;Node17 -->
<g id="edge30_Node000027_Node000017" class="edge">
<title>Node27&#45;&gt;Node17</title>
<g id="a_edge30_Node000027_Node000017"><a xlink:title=" ">
<path fill="none" stroke="#63b8ff" d="M869.08,-149.21C869.87,-135.5 870.9,-117.55 871.51,-107.09"/>
<polygon fill="#63b8ff" stroke="#63b8ff" points="865.57,-149.29 868.49,-159.48 872.56,-149.7 865.57,-149.29"/>
</a>
</g>
</g>
<!-- Node28&#45;&gt;Node11 -->
<g id="edge32_Node000028_Node000011" class="edge">
<title>Node28&#45;&gt;Node11</title>
<g id="a_edge32_Node000028_Node000011"><a xlink:title=" ">
<path fill="none" stroke="#63b8ff" d="M572.1,-291.26C551.5,-277.23 520.72,-256.25 503.61,-244.59"/>
<polygon fill="#63b8ff" stroke="#63b8ff" points="570.26,-294.24 580.49,-296.98 574.2,-288.45 570.26,-294.24"/>
</a>
</g>
</g>
<!-- Node28&#45;&gt;Node13 -->
<g id="edge33_Node000028_Node000013" class="edge">
<title>Node28&#45;&gt;Node13</title>
<g id="a_edge33_Node000028_Node000013"><a xlink:title=" ">
<path fill="none" stroke="#63b8ff" d="M613.14,-291.07C632.72,-277.04 661.81,-256.2 678.01,-244.59"/>
<polygon fill="#63b8ff" stroke="#63b8ff" points="610.98,-288.31 604.89,-296.98 615.06,-294 610.98,-288.31"/>
</a>
</g>
</g>
<!-- Node28&#45;&gt;Node16 -->
<g id="edge34_Node000028_Node000016" class="edge">
<title>Node28&#45;&gt;Node16</title>
<g id="a_edge34_Node000028_Node000016"><a xlink:title=" ">
<path fill="none" stroke="#63b8ff" d="M658.16,-295.37C726.48,-284.63 836.91,-266.9 932,-250 941.53,-248.31 951.74,-246.4 961.42,-244.56"/>
<polygon fill="#63b8ff" stroke="#63b8ff" points="657.31,-291.96 647.98,-296.97 658.4,-298.88 657.31,-291.96"/>
</a>
</g>
</g>
<!-- Node28&#45;&gt;Node26 -->
<g id="edge35_Node000028_Node000026" class="edge">
<title>Node28&#45;&gt;Node26</title>
<g id="a_edge35_Node000028_Node000026"><a xlink:title=" ">
<path fill="none" stroke="#63b8ff" d="M635.71,-294.42C689.11,-280.58 779.39,-257.16 827.87,-244.59"/>
<polygon fill="#63b8ff" stroke="#63b8ff" points="634.66,-291.08 625.86,-296.98 636.42,-297.86 634.66,-291.08"/>
</a>
</g>
</g>
<!-- Node28&#45;&gt;Node29 -->
<g id="edge36_Node000028_Node000029" class="edge">
<title>Node28&#45;&gt;Node29</title>
<g id="a_edge36_Node000028_Node000029"><a xlink:title=" ">
<path fill="none" stroke="#63b8ff" d="M526.31,-295.44C454.74,-284.56 337.75,-266.56 237,-250 233.9,-249.49 230.74,-248.97 227.54,-248.43"/>
<polygon fill="#63b8ff" stroke="#63b8ff" points="526.13,-298.95 536.54,-296.99 527.18,-292.03 526.13,-298.95"/>
</a>
</g>
</g>
<!-- Node28&#45;&gt;Node31 -->
<g id="edge40_Node000028_Node000031" class="edge">
<title>Node28&#45;&gt;Node31</title>
<g id="a_edge40_Node000028_Node000031"><a xlink:title=" ">
<path fill="none" stroke="#63b8ff" d="M548.94,-294.52C500.61,-282.49 422.92,-263.13 370.23,-250.01"/>
<polygon fill="#63b8ff" stroke="#63b8ff" points="548.24,-297.96 558.79,-296.98 549.93,-291.16 548.24,-297.96"/>
</a>
</g>
</g>
<!-- Node29&#45;&gt;Node24 -->
<g id="edge39_Node000029_Node000024" class="edge">
<title>Node29&#45;&gt;Node24</title>
<g id="a_edge39_Node000029_Node000024"><a xlink:title=" ">
<path fill="none" stroke="#63b8ff" d="M142.86,-210.92C126.73,-179.29 103.95,-121.36 125,-77 133.49,-59.1 150.9,-45.07 165.97,-35.59"/>
<polygon fill="#63b8ff" stroke="#63b8ff" points="139.82,-212.65 147.6,-219.84 146.01,-209.37 139.82,-212.65"/>
</a>
</g>
</g>
<!-- Node30 -->
<g id="Node000030" class="node">
<title>Node30</title>
<g id="a_Node000030"><a xlink:href="_reader_sync_8h.html" target="_top" xlink:title=" ">
<polygon fill="white" stroke="#666666" points="260,-112.5 134,-112.5 134,-82.5 260,-82.5 260,-112.5"/>
<text text-anchor="start" x="142" y="-100.5" font-family="Helvetica,sans-Serif" font-size="10.00">Kit/Persistence/Record</text>
<text text-anchor="middle" x="197" y="-89.5" font-family="Helvetica,sans-Serif" font-size="10.00">/Journal/ReaderSync.h</text>
</a>
</g>
</g>
<!-- Node29&#45;&gt;Node30 -->
<g id="edge37_Node000029_Node000030" class="edge">
<title>Node29&#45;&gt;Node30</title>
<g id="a_edge37_Node000029_Node000030"><a xlink:title=" ">
<path fill="none" stroke="#63b8ff" d="M163.31,-209.85C171.87,-181.54 185.79,-135.56 192.75,-112.55"/>
<polygon fill="#63b8ff" stroke="#63b8ff" points="159.86,-209.17 160.31,-219.76 166.56,-211.2 159.86,-209.17"/>
</a>
</g>
</g>
<!-- Node30&#45;&gt;Node24 -->
<g id="edge38_Node000030_Node000024" class="edge">
<title>Node30&#45;&gt;Node24</title>
<g id="a_edge38_Node000030_Node000024"><a xlink:title=" ">
<path fill="none" stroke="#63b8ff" d="M195.7,-72.04C195.05,-59.95 194.3,-45.79 193.75,-35.54"/>
<polygon fill="#63b8ff" stroke="#63b8ff" points="192.22,-72.59 196.25,-82.39 199.21,-72.22 192.22,-72.59"/>
</a>
</g>
</g>
<!-- Node32 -->
<g id="Node000032" class="node">
<title>Node32</title>
<g id="a_Node000032"><a xlink:href="_reset_sync_8h.html" target="_top" xlink:title=" ">
<polygon fill="white" stroke="#666666" points="370,-184 244,-184 244,-154 370,-154 370,-184"/>
<text text-anchor="start" x="252" y="-172" font-family="Helvetica,sans-Serif" font-size="10.00">Kit/Persistence/Record</text>
<text text-anchor="middle" x="307" y="-161" font-family="Helvetica,sans-Serif" font-size="10.00">/Journal/ResetSync.h</text>
</a>
</g>
</g>
<!-- Node31&#45;&gt;Node32 -->
<g id="edge41_Node000031_Node000032" class="edge">
<title>Node31&#45;&gt;Node32</title>
<g id="a_edge41_Node000031_Node000032"><a xlink:title=" ">
<path fill="none" stroke="#63b8ff" d="M311.36,-209.83C310.41,-201.17 309.37,-191.7 308.55,-184.16"/>
<polygon fill="#63b8ff" stroke="#63b8ff" points="307.88,-210.24 312.45,-219.8 314.84,-209.48 307.88,-210.24"/>
</a>
</g>
</g>
<!-- Node32&#45;&gt;Node24 -->
<g id="edge42_Node000032_Node000024" class="edge">
<title>Node32&#45;&gt;Node24</title>
<g id="a_edge42_Node000032_Node000024"><a xlink:title=" ">
<path fill="none" stroke="#63b8ff" d="M300.94,-144.17C295.1,-124.64 284.82,-97.06 269,-77 255.44,-59.81 235.25,-45.41 219.09,-35.59"/>
<polygon fill="#63b8ff" stroke="#63b8ff" points="297.57,-145.15 303.65,-153.83 304.31,-143.25 297.57,-145.15"/>
</a>
</g>
</g>
</g>
</svg>
