<?xml version="1.0" encoding="UTF-8" standalone="no"?>
<!DOCTYPE svg PUBLIC "-//W3C//DTD SVG 1.1//EN"
 "http://www.w3.org/Graphics/SVG/1.1/DTD/svg11.dtd">
<!-- Generated by graphviz version 2.43.0 (0)
 -->
<!-- Title: Kit/Itc/IMessage.h Pages: 1 -->
<svg width="1691pt" height="500pt"
 viewBox="0.00 0.00 1690.50 500.00" xmlns="http://www.w3.org/2000/svg" xmlns:xlink="http://www.w3.org/1999/xlink">
<g id="graph0" class="graph" transform="scale(1 1) rotate(0) translate(4 496)">
<title>Kit/Itc/IMessage.h</title>
<!-- Node1 -->
<g id="Node000001" class="node">
<title>Node1</title>
<g id="a_Node000001"><a xlink:title=" ">
<polygon fill="#999999" stroke="#666666" points="663.5,-492 559.5,-492 559.5,-473 663.5,-473 663.5,-492"/>
<text text-anchor="middle" x="611.5" y="-480" font-family="Helvetica,sans-Serif" font-size="10.00">Kit/Itc/IMessage.h</text>
</a>
</g>
</g>
<!-- Node2 -->
<g id="Node000002" class="node">
<title>Node2</title>
<g id="a_Node000002"><a xlink:href="_mailbox_8h.html" target="_top" xlink:title=" ">
<polygon fill="white" stroke="#666666" points="593.5,-437 497.5,-437 497.5,-418 593.5,-418 593.5,-437"/>
<text text-anchor="middle" x="545.5" y="-425" font-family="Helvetica,sans-Serif" font-size="10.00">Kit/Itc/Mailbox.h</text>
</a>
</g>
</g>
<!-- Node1&#45;&gt;Node2 -->
<g id="edge1_Node000001_Node000002" class="edge">
<title>Node1&#45;&gt;Node2</title>
<g id="a_edge1_Node000001_Node000002"><a xlink:title=" ">
<path fill="none" stroke="#63b8ff" d="M592.95,-466.6C581.12,-457.11 566.21,-445.13 556.3,-437.17"/>
<polygon fill="#63b8ff" stroke="#63b8ff" points="590.91,-469.45 600.9,-472.98 595.29,-463.99 590.91,-469.45"/>
</a>
</g>
</g>
<!-- Node6 -->
<g id="Node000006" class="node">
<title>Node6</title>
<g id="a_Node000006"><a xlink:href="_server_message_8h.html" target="_top" xlink:title=" ">
<polygon fill="white" stroke="#666666" points="923.5,-437 791.5,-437 791.5,-418 923.5,-418 923.5,-437"/>
<text text-anchor="middle" x="857.5" y="-425" font-family="Helvetica,sans-Serif" font-size="10.00">Kit/Itc/ServerMessage.h</text>
</a>
</g>
</g>
<!-- Node1&#45;&gt;Node6 -->
<g id="edge5_Node000001_Node000006" class="edge">
<title>Node1&#45;&gt;Node6</title>
<g id="a_edge5_Node000001_Node000006"><a xlink:title=" ">
<path fill="none" stroke="#63b8ff" d="M660.8,-470.88C706.91,-460.94 774.9,-446.3 817.67,-437.08"/>
<polygon fill="#63b8ff" stroke="#63b8ff" points="660.06,-467.46 651.02,-472.98 661.54,-474.3 660.06,-467.46"/>
</a>
</g>
</g>
<!-- Node3 -->
<g id="Node000003" class="node">
<title>Node3</title>
<g id="a_Node000003"><a xlink:href="src_2_kit_2_event_queue_2_server_8h.html" target="_top" xlink:title=" ">
<polygon fill="white" stroke="#666666" points="253,-382 118,-382 118,-363 253,-363 253,-382"/>
<text text-anchor="middle" x="185.5" y="-370" font-family="Helvetica,sans-Serif" font-size="10.00">Kit/EventQueue/Server.h</text>
</a>
</g>
</g>
<!-- Node2&#45;&gt;Node3 -->
<g id="edge2_Node000002_Node000003" class="edge">
<title>Node2&#45;&gt;Node3</title>
<g id="a_edge2_Node000002_Node000003"><a xlink:title=" ">
<path fill="none" stroke="#63b8ff" d="M487.34,-417.94C420.23,-408.06 310.55,-391.91 243.51,-382.04"/>
<polygon fill="#63b8ff" stroke="#63b8ff" points="486.92,-421.41 497.32,-419.41 487.94,-414.49 486.92,-421.41"/>
</a>
</g>
</g>
<!-- Node4 -->
<g id="Node000004" class="node">
<title>Node4</title>
<g id="a_Node000004"><a xlink:href="_with_periodic_scheduling_8h.html" target="_top" xlink:title=" ">
<polygon fill="white" stroke="#666666" points="157,-321.5 0,-321.5 0,-291.5 157,-291.5 157,-321.5"/>
<text text-anchor="start" x="8" y="-309.5" font-family="Helvetica,sans-Serif" font-size="10.00">Kit/EventQueue/WithPeriodic</text>
<text text-anchor="middle" x="78.5" y="-298.5" font-family="Helvetica,sans-Serif" font-size="10.00">Scheduling.h</text>
</a>
</g>
</g>
<!-- Node3&#45;&gt;Node4 -->
<g id="edge3_Node000003_Node000004" class="edge">
<title>Node3&#45;&gt;Node4</title>
<g id="a_edge3_Node000003_Node000004"><a xlink:title=" ">
<path fill="none" stroke="#63b8ff" d="M162.44,-357.71C144.62,-347.05 120.05,-332.35 102.1,-321.62"/>
<polygon fill="#63b8ff" stroke="#63b8ff" points="160.69,-360.74 171.07,-362.87 164.28,-354.73 160.69,-360.74"/>
</a>
</g>
</g>
<!-- Node5 -->
<g id="Node000005" class="node">
<title>Node5</title>
<g id="a_Node000005"><a xlink:href="helpers_8h.html" target="_top" xlink:title="This file defines helper functions/interface for writing unit tests.">
<polygon fill="white" stroke="#666666" points="186.5,-35.5 74.5,-35.5 74.5,-5.5 186.5,-5.5 186.5,-35.5"/>
<text text-anchor="start" x="82.5" y="-23.5" font-family="Helvetica,sans-Serif" font-size="10.00">Kit/_support/testing</text>
<text text-anchor="middle" x="130.5" y="-12.5" font-family="Helvetica,sans-Serif" font-size="10.00">/helpers.h</text>
</a>
</g>
</g>
<!-- Node3&#45;&gt;Node5 -->
<g id="edge4_Node000003_Node000005" class="edge">
<title>Node3&#45;&gt;Node5</title>
<g id="a_edge4_Node000003_Node000005"><a xlink:title=" ">
<path fill="none" stroke="#63b8ff" d="M185.5,-352.61C185.5,-326.42 185.5,-277.62 185.5,-236 185.5,-236 185.5,-236 185.5,-168 185.5,-116.65 155.52,-61.27 139.83,-35.8"/>
<polygon fill="#63b8ff" stroke="#63b8ff" points="182,-352.94 185.5,-362.94 189,-352.94 182,-352.94"/>
</a>
</g>
</g>
<!-- Node7 -->
<g id="Node000007" class="node">
<title>Node7</title>
<g id="a_Node000007"><a xlink:href="_request_message_8h.html" target="_top" xlink:title=" ">
<polygon fill="white" stroke="#666666" points="1075.5,-382 935.5,-382 935.5,-363 1075.5,-363 1075.5,-382"/>
<text text-anchor="middle" x="1005.5" y="-370" font-family="Helvetica,sans-Serif" font-size="10.00">Kit/Itc/RequestMessage.h</text>
</a>
</g>
</g>
<!-- Node6&#45;&gt;Node7 -->
<g id="edge6_Node000006_Node000007" class="edge">
<title>Node6&#45;&gt;Node7</title>
<g id="a_edge6_Node000006_Node000007"><a xlink:title=" ">
<path fill="none" stroke="#63b8ff" d="M890.87,-414.55C918.35,-404.71 956.67,-390.98 981.29,-382.17"/>
<polygon fill="#63b8ff" stroke="#63b8ff" points="889.51,-411.32 881.28,-417.98 891.87,-417.91 889.51,-411.32"/>
</a>
</g>
</g>
<!-- Node8 -->
<g id="Node000008" class="node">
<title>Node8</title>
<g id="a_Node000008"><a xlink:href="_i_rate_request_8h.html" target="_top" xlink:title=" ">
<polygon fill="white" stroke="#666666" points="497.5,-327 323.5,-327 323.5,-286 497.5,-286 497.5,-327"/>
<text text-anchor="start" x="331.5" y="-315" font-family="Helvetica,sans-Serif" font-size="10.00">/home/runner/work/kit.core</text>
<text text-anchor="start" x="331.5" y="-304" font-family="Helvetica,sans-Serif" font-size="10.00">/kit.core/projects/examples</text>
<text text-anchor="middle" x="410.5" y="-293" font-family="Helvetica,sans-Serif" font-size="10.00">/Itc/Synchronous/IRateRequest.h</text>
</a>
</g>
</g>
<!-- Node7&#45;&gt;Node8 -->
<g id="edge7_Node000007_Node000008" class="edge">
<title>Node7&#45;&gt;Node8</title>
<g id="a_edge7_Node000007_Node000008"><a xlink:title=" ">
<path fill="none" stroke="#63b8ff" d="M925.32,-362.88C813.8,-350.88 612.63,-329.24 497.56,-316.86"/>
<polygon fill="#63b8ff" stroke="#63b8ff" points="925.18,-366.38 935.5,-363.97 925.93,-359.42 925.18,-366.38"/>
</a>
</g>
</g>
<!-- Node11 -->
<g id="Node000011" class="node">
<title>Node11</title>
<g id="a_Node000011"><a xlink:href="_i_manage_request_8h.html" target="_top" xlink:title=" ">
<polygon fill="white" stroke="#666666" points="757.5,-250 647.5,-250 647.5,-220 757.5,-220 757.5,-250"/>
<text text-anchor="start" x="655.5" y="-238" font-family="Helvetica,sans-Serif" font-size="10.00">Kit/Dm/Persistence</text>
<text text-anchor="middle" x="702.5" y="-227" font-family="Helvetica,sans-Serif" font-size="10.00">/IManageRequest.h</text>
</a>
</g>
</g>
<!-- Node7&#45;&gt;Node11 -->
<g id="edge10_Node000007_Node000011" class="edge">
<title>Node7&#45;&gt;Node11</title>
<g id="a_edge10_Node000007_Node000011"><a xlink:title=" ">
<path fill="none" stroke="#63b8ff" d="M925.21,-365.85C883.59,-360.25 833.12,-349.11 792.5,-327 757.37,-307.88 727.15,-270.66 712.3,-250.24"/>
<polygon fill="#63b8ff" stroke="#63b8ff" points="924.95,-369.35 935.31,-367.13 925.83,-362.4 924.95,-369.35"/>
</a>
</g>
</g>
<!-- Node13 -->
<g id="Node000013" class="node">
<title>Node13</title>
<g id="a_Node000013"><a xlink:href="_i_listener_client_request_8h.html" target="_top" xlink:title=" ">
<polygon fill="white" stroke="#666666" points="953,-321.5 802,-321.5 802,-291.5 953,-291.5 953,-321.5"/>
<text text-anchor="start" x="810" y="-309.5" font-family="Helvetica,sans-Serif" font-size="10.00">Kit/Io/Socket/IListenerClient</text>
<text text-anchor="middle" x="877.5" y="-298.5" font-family="Helvetica,sans-Serif" font-size="10.00">Request.h</text>
</a>
</g>
</g>
<!-- Node7&#45;&gt;Node13 -->
<g id="edge12_Node000007_Node000013" class="edge">
<title>Node7&#45;&gt;Node13</title>
<g id="a_edge12_Node000007_Node000013"><a xlink:title=" ">
<path fill="none" stroke="#63b8ff" d="M979.08,-358.29C957.68,-347.59 927.6,-332.55 905.73,-321.62"/>
<polygon fill="#63b8ff" stroke="#63b8ff" points="977.73,-361.53 988.24,-362.87 980.86,-355.27 977.73,-361.53"/>
</a>
</g>
</g>
<!-- Node15 -->
<g id="Node000015" class="node">
<title>Node15</title>
<g id="a_Node000015"><a xlink:href="_i_close_request_8h.html" target="_top" xlink:title=" ">
<polygon fill="white" stroke="#666666" points="1069,-244.5 942,-244.5 942,-225.5 1069,-225.5 1069,-244.5"/>
<text text-anchor="middle" x="1005.5" y="-232.5" font-family="Helvetica,sans-Serif" font-size="10.00">Kit/Itc/ICloseRequest.h</text>
</a>
</g>
</g>
<!-- Node7&#45;&gt;Node15 -->
<g id="edge14_Node000007_Node000015" class="edge">
<title>Node7&#45;&gt;Node15</title>
<g id="a_edge14_Node000007_Node000015"><a xlink:title=" ">
<path fill="none" stroke="#63b8ff" d="M1005.5,-352.28C1005.5,-322.48 1005.5,-266.32 1005.5,-244.75"/>
<polygon fill="#63b8ff" stroke="#63b8ff" points="1002,-352.61 1005.5,-362.61 1009,-352.61 1002,-352.61"/>
</a>
</g>
</g>
<!-- Node25 -->
<g id="Node000025" class="node">
<title>Node25</title>
<g id="a_Node000025"><a xlink:href="_i_open_request_8h.html" target="_top" xlink:title=" ">
<polygon fill="white" stroke="#666666" points="1212,-244.5 1087,-244.5 1087,-225.5 1212,-225.5 1212,-244.5"/>
<text text-anchor="middle" x="1149.5" y="-232.5" font-family="Helvetica,sans-Serif" font-size="10.00">Kit/Itc/IOpenRequest.h</text>
</a>
</g>
</g>
<!-- Node7&#45;&gt;Node25 -->
<g id="edge26_Node000007_Node000025" class="edge">
<title>Node7&#45;&gt;Node25</title>
<g id="a_edge26_Node000007_Node000025"><a xlink:title=" ">
<path fill="none" stroke="#63b8ff" d="M1014.81,-354.01C1025.3,-335.48 1043.75,-306.18 1065.5,-286 1085.03,-267.88 1112.2,-253.18 1130.29,-244.52"/>
<polygon fill="#63b8ff" stroke="#63b8ff" points="1011.7,-352.39 1009.95,-362.84 1017.84,-355.76 1011.7,-352.39"/>
</a>
</g>
</g>
<!-- Node27 -->
<g id="Node000027" class="node">
<title>Node27</title>
<g id="a_Node000027"><a xlink:href="_response_message_8h.html" target="_top" xlink:title=" ">
<polygon fill="white" stroke="#666666" points="1222.5,-316 1074.5,-316 1074.5,-297 1222.5,-297 1222.5,-316"/>
<text text-anchor="middle" x="1148.5" y="-304" font-family="Helvetica,sans-Serif" font-size="10.00">Kit/Itc/ResponseMessage.h</text>
</a>
</g>
</g>
<!-- Node7&#45;&gt;Node27 -->
<g id="edge29_Node000007_Node000027" class="edge">
<title>Node7&#45;&gt;Node27</title>
<g id="a_edge29_Node000007_Node000027"><a xlink:title=" ">
<path fill="none" stroke="#63b8ff" d="M1034.11,-358.69C1062.3,-346.08 1104.58,-327.16 1129.06,-316.2"/>
<polygon fill="#63b8ff" stroke="#63b8ff" points="1032.48,-355.59 1024.79,-362.87 1035.34,-361.98 1032.48,-355.59"/>
</a>
</g>
</g>
<!-- Node28 -->
<g id="Node000028" class="node">
<title>Node28</title>
<g id="a_Node000028"><a xlink:href="_i_reader_request_8h.html" target="_top" xlink:title=" ">
<polygon fill="white" stroke="#666666" points="1373,-250 1230,-250 1230,-220 1373,-220 1373,-250"/>
<text text-anchor="start" x="1238" y="-238" font-family="Helvetica,sans-Serif" font-size="10.00">Kit/Persistence/Record</text>
<text text-anchor="middle" x="1301.5" y="-227" font-family="Helvetica,sans-Serif" font-size="10.00">/Journal/IReaderRequest.h</text>
</a>
</g>
</g>
<!-- Node7&#45;&gt;Node28 -->
<g id="edge40_Node000007_Node000028" class="edge">
<title>Node7&#45;&gt;Node28</title>
<g id="a_edge40_Node000007_Node000028"><a xlink:title=" ">
<path fill="none" stroke="#63b8ff" d="M1085.8,-369.48C1131.43,-365.1 1187.97,-353.98 1231.5,-327 1262,-308.1 1284.21,-270.79 1294.72,-250.3"/>
<polygon fill="#63b8ff" stroke="#63b8ff" points="1085.3,-366.01 1075.64,-370.36 1085.91,-372.98 1085.3,-366.01"/>
</a>
</g>
</g>
<!-- Node30 -->
<g id="Node000030" class="node">
<title>Node30</title>
<g id="a_Node000030"><a xlink:href="_i_reset_request_8h.html" target="_top" xlink:title=" ">
<polygon fill="white" stroke="#666666" points="1527.5,-250 1391.5,-250 1391.5,-220 1527.5,-220 1527.5,-250"/>
<text text-anchor="start" x="1399.5" y="-238" font-family="Helvetica,sans-Serif" font-size="10.00">Kit/Persistence/Record</text>
<text text-anchor="middle" x="1459.5" y="-227" font-family="Helvetica,sans-Serif" font-size="10.00">/Journal/IResetRequest.h</text>
</a>
</g>
</g>
<!-- Node7&#45;&gt;Node30 -->
<g id="edge41_Node000007_Node000030" class="edge">
<title>Node7&#45;&gt;Node30</title>
<g id="a_edge41_Node000007_Node000030"><a xlink:title=" ">
<path fill="none" stroke="#63b8ff" d="M1085.81,-363.3C1137.63,-356.65 1206.03,-345.31 1264.5,-327 1328.5,-306.97 1398.62,-270.29 1434.81,-250.15"/>
<polygon fill="#63b8ff" stroke="#63b8ff" points="1085.16,-359.86 1075.67,-364.57 1086.03,-366.8 1085.16,-359.86"/>
</a>
</g>
</g>
<!-- Node9 -->
<g id="Node000009" class="node">
<title>Node9</title>
<g id="a_Node000009"><a xlink:href="_rate_sync_8h.html" target="_top" xlink:title=" ">
<polygon fill="white" stroke="#666666" points="390,-118 235,-118 235,-77 390,-77 390,-118"/>
<text text-anchor="start" x="243" y="-106" font-family="Helvetica,sans-Serif" font-size="10.00">/home/runner/work/kit.core</text>
<text text-anchor="start" x="243" y="-95" font-family="Helvetica,sans-Serif" font-size="10.00">/kit.core/projects/examples</text>
<text text-anchor="middle" x="312.5" y="-84" font-family="Helvetica,sans-Serif" font-size="10.00">/Itc/Synchronous/RateSync.h</text>
</a>
</g>
</g>
<!-- Node8&#45;&gt;Node9 -->
<g id="edge8_Node000008_Node000009" class="edge">
<title>Node8&#45;&gt;Node9</title>
<g id="a_edge8_Node000008_Node000009"><a xlink:title=" ">
<path fill="none" stroke="#63b8ff" d="M396.7,-276.35C376.45,-233.58 339.22,-154.95 321.87,-118.29"/>
<polygon fill="#63b8ff" stroke="#63b8ff" points="393.66,-278.11 401.1,-285.65 399.99,-275.12 393.66,-278.11"/>
</a>
</g>
</g>
<!-- Node10 -->
<g id="Node000010" class="node">
<title>Node10</title>
<g id="a_Node000010"><a xlink:href="projects_2examples_2_itc_2_synchronous_2_server_8h.html" target="_top" xlink:title=" ">
<polygon fill="white" stroke="#666666" points="354,-41 205,-41 205,0 354,0 354,-41"/>
<text text-anchor="start" x="213" y="-29" font-family="Helvetica,sans-Serif" font-size="10.00">/home/runner/work/kit.core</text>
<text text-anchor="start" x="213" y="-18" font-family="Helvetica,sans-Serif" font-size="10.00">/kit.core/projects/examples</text>
<text text-anchor="middle" x="279.5" y="-7" font-family="Helvetica,sans-Serif" font-size="10.00">/Itc/Synchronous/Server.h</text>
</a>
</g>
</g>
<!-- Node9&#45;&gt;Node10 -->
<g id="edge9_Node000009_Node000010" class="edge">
<title>Node9&#45;&gt;Node10</title>
<g id="a_edge9_Node000009_Node000010"><a xlink:title=" ">
<path fill="none" stroke="#63b8ff" d="M299.76,-67.55C295.86,-58.69 291.67,-49.15 288.11,-41.07"/>
<polygon fill="#63b8ff" stroke="#63b8ff" points="296.6,-69.05 303.83,-76.79 303.01,-66.23 296.6,-69.05"/>
</a>
</g>
</g>
<!-- Node12 -->
<g id="Node000012" class="node">
<title>Node12</title>
<g id="a_Node000012"><a xlink:href="_record_8h.html" target="_top" xlink:title=" ">
<polygon fill="white" stroke="#666666" points="757.5,-184 647.5,-184 647.5,-154 757.5,-154 757.5,-184"/>
<text text-anchor="start" x="655.5" y="-172" font-family="Helvetica,sans-Serif" font-size="10.00">Kit/Dm/Persistence</text>
<text text-anchor="middle" x="702.5" y="-161" font-family="Helvetica,sans-Serif" font-size="10.00">/Record.h</text>
</a>
</g>
</g>
<!-- Node11&#45;&gt;Node12 -->
<g id="edge11_Node000011_Node000012" class="edge">
<title>Node11&#45;&gt;Node12</title>
<g id="a_edge11_Node000011_Node000012"><a xlink:title=" ">
<path fill="none" stroke="#63b8ff" d="M702.5,-209.54C702.5,-200.96 702.5,-191.61 702.5,-184.16"/>
<polygon fill="#63b8ff" stroke="#63b8ff" points="699,-209.8 702.5,-219.8 706,-209.8 699,-209.8"/>
</a>
</g>
</g>
<!-- Node14 -->
<g id="Node000014" class="node">
<title>Node14</title>
<g id="a_Node000014"><a xlink:href="_listener_client_sync_8h.html" target="_top" xlink:title=" ">
<polygon fill="white" stroke="#666666" points="923.5,-250 775.5,-250 775.5,-220 923.5,-220 923.5,-250"/>
<text text-anchor="start" x="783.5" y="-238" font-family="Helvetica,sans-Serif" font-size="10.00">Kit/Io/Socket/ListenerClient</text>
<text text-anchor="middle" x="849.5" y="-227" font-family="Helvetica,sans-Serif" font-size="10.00">Sync.h</text>
</a>
</g>
</g>
<!-- Node13&#45;&gt;Node14 -->
<g id="edge13_Node000013_Node000014" class="edge">
<title>Node13&#45;&gt;Node14</title>
<g id="a_edge13_Node000013_Node000014"><a xlink:title=" ">
<path fill="none" stroke="#63b8ff" d="M867.99,-281.9C863.73,-271.31 858.84,-259.18 855.16,-250.04"/>
<polygon fill="#63b8ff" stroke="#63b8ff" points="864.85,-283.47 871.83,-291.44 871.34,-280.85 864.85,-283.47"/>
</a>
</g>
</g>
<!-- Node16 -->
<g id="Node000016" class="node">
<title>Node16</title>
<g id="a_Node000016"><a xlink:href="_open_close_sync_8h.html" target="_top" xlink:title=" ">
<polygon fill="white" stroke="#666666" points="1072,-107 939,-107 939,-88 1072,-88 1072,-107"/>
<text text-anchor="middle" x="1005.5" y="-95" font-family="Helvetica,sans-Serif" font-size="10.00">Kit/Itc/OpenCloseSync.h</text>
</a>
</g>
</g>
<!-- Node15&#45;&gt;Node16 -->
<g id="edge15_Node000015_Node000016" class="edge">
<title>Node15&#45;&gt;Node16</title>
<g id="a_edge15_Node000015_Node000016"><a xlink:title=" ">
<path fill="none" stroke="#63b8ff" d="M1005.5,-214.78C1005.5,-184.98 1005.5,-128.82 1005.5,-107.25"/>
<polygon fill="#63b8ff" stroke="#63b8ff" points="1002,-215.11 1005.5,-225.11 1009,-215.11 1002,-215.11"/>
</a>
</g>
</g>
<!-- Node16&#45;&gt;Node5 -->
<g id="edge25_Node000016_Node000005" class="edge">
<title>Node16&#45;&gt;Node5</title>
<g id="a_edge25_Node000016_Node000005"><a xlink:title=" ">
<path fill="none" stroke="#63b8ff" d="M928.9,-96.91C784.31,-96.44 461.79,-89.44 195.5,-41 187.97,-39.63 180.07,-37.7 172.47,-35.58"/>
<polygon fill="#63b8ff" stroke="#63b8ff" points="928.99,-100.41 939,-96.93 929.01,-93.41 928.99,-100.41"/>
</a>
</g>
</g>
<!-- Node16&#45;&gt;Node10 -->
<g id="edge21_Node000016_Node000010" class="edge">
<title>Node16&#45;&gt;Node10</title>
<g id="a_edge21_Node000016_Node000010"><a xlink:title=" ">
<path fill="none" stroke="#63b8ff" d="M928.66,-93.46C807.62,-87.87 565.43,-73.42 362.5,-41 359.72,-40.56 356.9,-40.07 354.06,-39.55"/>
<polygon fill="#63b8ff" stroke="#63b8ff" points="928.78,-96.97 938.93,-93.93 929.1,-89.98 928.78,-96.97"/>
</a>
</g>
</g>
<!-- Node17 -->
<g id="Node000017" class="node">
<title>Node17</title>
<g id="a_Node000017"><a xlink:href="_led_server_8h.html" target="_top" xlink:title=" ">
<polygon fill="white" stroke="#666666" points="553,-41 372,-41 372,0 553,0 553,-41"/>
<text text-anchor="start" x="380" y="-29" font-family="Helvetica,sans-Serif" font-size="10.00">/home/runner/work/kit.core</text>
<text text-anchor="start" x="380" y="-18" font-family="Helvetica,sans-Serif" font-size="10.00">/kit.core/projects/examples</text>
<text text-anchor="middle" x="462.5" y="-7" font-family="Helvetica,sans-Serif" font-size="10.00">/Container/RingBuffer/LedServer.h</text>
</a>
</g>
</g>
<!-- Node16&#45;&gt;Node17 -->
<g id="edge16_Node000016_Node000017" class="edge">
<title>Node16&#45;&gt;Node17</title>
<g id="a_edge16_Node000016_Node000017"><a xlink:title=" ">
<path fill="none" stroke="#63b8ff" d="M928.75,-88.56C840.05,-79 689.82,-61.63 561.5,-41 558.73,-40.56 555.92,-40.09 553.09,-39.61"/>
<polygon fill="#63b8ff" stroke="#63b8ff" points="928.41,-92.04 938.72,-89.63 929.15,-85.08 928.41,-92.04"/>
</a>
</g>
</g>
<!-- Node18 -->
<g id="Node000018" class="node">
<title>Node18</title>
<g id="a_Node000018"><a xlink:href="_producer_8h.html" target="_top" xlink:title=" ">
<polygon fill="white" stroke="#666666" points="746,-41 571,-41 571,0 746,0 746,-41"/>
<text text-anchor="start" x="579" y="-29" font-family="Helvetica,sans-Serif" font-size="10.00">/home/runner/work/kit.core</text>
<text text-anchor="start" x="579" y="-18" font-family="Helvetica,sans-Serif" font-size="10.00">/kit.core/projects/examples</text>
<text text-anchor="middle" x="658.5" y="-7" font-family="Helvetica,sans-Serif" font-size="10.00">/Container/RingBuffer/Producer.h</text>
</a>
</g>
</g>
<!-- Node16&#45;&gt;Node18 -->
<g id="edge17_Node000016_Node000018" class="edge">
<title>Node16&#45;&gt;Node18</title>
<g id="a_edge17_Node000016_Node000018"><a xlink:title=" ">
<path fill="none" stroke="#63b8ff" d="M955.93,-85.79C901.39,-74 812.68,-54.82 746.31,-40.48"/>
<polygon fill="#63b8ff" stroke="#63b8ff" points="955.52,-89.28 966.03,-87.97 957,-82.44 955.52,-89.28"/>
</a>
</g>
</g>
<!-- Node19 -->
<g id="Node000019" class="node">
<title>Node19</title>
<g id="a_Node000019"><a xlink:href="_dm_2_transaction_2_client_8h.html" target="_top" xlink:title=" ">
<polygon fill="white" stroke="#666666" points="913,-41 764,-41 764,0 913,0 913,-41"/>
<text text-anchor="start" x="772" y="-29" font-family="Helvetica,sans-Serif" font-size="10.00">/home/runner/work/kit.core</text>
<text text-anchor="start" x="772" y="-18" font-family="Helvetica,sans-Serif" font-size="10.00">/kit.core/projects/examples</text>
<text text-anchor="middle" x="838.5" y="-7" font-family="Helvetica,sans-Serif" font-size="10.00">/Dm/Transaction/Client.h</text>
</a>
</g>
</g>
<!-- Node16&#45;&gt;Node19 -->
<g id="edge18_Node000016_Node000019" class="edge">
<title>Node16&#45;&gt;Node19</title>
<g id="a_edge18_Node000016_Node000019"><a xlink:title=" ">
<path fill="none" stroke="#63b8ff" d="M977.03,-83.71C950.97,-72.01 912.01,-54.51 882.04,-41.05"/>
<polygon fill="#63b8ff" stroke="#63b8ff" points="975.79,-86.99 986.34,-87.9 978.65,-80.61 975.79,-86.99"/>
</a>
</g>
</g>
<!-- Node20 -->
<g id="Node000020" class="node">
<title>Node20</title>
<g id="a_Node000020"><a xlink:href="projects_2examples_2_dm_2_transaction_2_server_8h.html" target="_top" xlink:title=" ">
<polygon fill="white" stroke="#666666" points="1080,-41 931,-41 931,0 1080,0 1080,-41"/>
<text text-anchor="start" x="939" y="-29" font-family="Helvetica,sans-Serif" font-size="10.00">/home/runner/work/kit.core</text>
<text text-anchor="start" x="939" y="-18" font-family="Helvetica,sans-Serif" font-size="10.00">/kit.core/projects/examples</text>
<text text-anchor="middle" x="1005.5" y="-7" font-family="Helvetica,sans-Serif" font-size="10.00">/Dm/Transaction/Server.h</text>
</a>
</g>
</g>
<!-- Node16&#45;&gt;Node20 -->
<g id="edge19_Node000016_Node000020" class="edge">
<title>Node16&#45;&gt;Node20</title>
<g id="a_edge19_Node000016_Node000020"><a xlink:title=" ">
<path fill="none" stroke="#63b8ff" d="M1005.5,-77.61C1005.5,-66.5 1005.5,-52.46 1005.5,-41.21"/>
<polygon fill="#63b8ff" stroke="#63b8ff" points="1002,-77.9 1005.5,-87.9 1009,-77.9 1002,-77.9"/>
</a>
</g>
</g>
<!-- Node21 -->
<g id="Node000021" class="node">
<title>Node21</title>
<g id="a_Node000021"><a xlink:href="_itc_2_synchronous_2_client_8h.html" target="_top" xlink:title=" ">
<polygon fill="white" stroke="#666666" points="1247,-41 1098,-41 1098,0 1247,0 1247,-41"/>
<text text-anchor="start" x="1106" y="-29" font-family="Helvetica,sans-Serif" font-size="10.00">/home/runner/work/kit.core</text>
<text text-anchor="start" x="1106" y="-18" font-family="Helvetica,sans-Serif" font-size="10.00">/kit.core/projects/examples</text>
<text text-anchor="middle" x="1172.5" y="-7" font-family="Helvetica,sans-Serif" font-size="10.00">/Itc/Synchronous/Client.h</text>
</a>
</g>
</g>
<!-- Node16&#45;&gt;Node21 -->
<g id="edge20_Node000016_Node000021" class="edge">
<title>Node16&#45;&gt;Node21</title>
<g id="a_edge20_Node000016_Node000021"><a xlink:title=" ">
<path fill="none" stroke="#63b8ff" d="M1033.97,-83.71C1060.03,-72.01 1098.99,-54.51 1128.96,-41.05"/>
<polygon fill="#63b8ff" stroke="#63b8ff" points="1032.35,-80.61 1024.66,-87.9 1035.21,-86.99 1032.35,-80.61"/>
</a>
</g>
</g>
<!-- Node22 -->
<g id="Node000022" class="node">
<title>Node22</title>
<g id="a_Node000022"><a xlink:href="_log_sink_8h.html" target="_top" xlink:title=" ">
<polygon fill="white" stroke="#666666" points="1394,-35.5 1265,-35.5 1265,-5.5 1394,-5.5 1394,-35.5"/>
<text text-anchor="start" x="1273" y="-23.5" font-family="Helvetica,sans-Serif" font-size="10.00">Kit/Logging/Framework</text>
<text text-anchor="middle" x="1329.5" y="-12.5" font-family="Helvetica,sans-Serif" font-size="10.00">/LogSink.h</text>
</a>
</g>
</g>
<!-- Node16&#45;&gt;Node22 -->
<g id="edge22_Node000016_Node000022" class="edge">
<title>Node16&#45;&gt;Node22</title>
<g id="a_edge22_Node000016_Node000022"><a xlink:title=" ">
<path fill="none" stroke="#63b8ff" d="M1057.02,-85.79C1107.86,-75.06 1187.75,-57.78 1256.5,-41 1263.51,-39.29 1270.88,-37.41 1278.12,-35.52"/>
<polygon fill="#63b8ff" stroke="#63b8ff" points="1056,-82.43 1046.93,-87.91 1057.44,-89.28 1056,-82.43"/>
</a>
</g>
</g>
<!-- Node23 -->
<g id="Node000023" class="node">
<title>Node23</title>
<g id="a_Node000023"><a xlink:href="src_2_kit_2_persistence_2_record_2_journal_2_server_8h.html" target="_top" xlink:title=" ">
<polygon fill="white" stroke="#666666" points="1682.5,-35.5 1556.5,-35.5 1556.5,-5.5 1682.5,-5.5 1682.5,-35.5"/>
<text text-anchor="start" x="1564.5" y="-23.5" font-family="Helvetica,sans-Serif" font-size="10.00">Kit/Persistence/Record</text>
<text text-anchor="middle" x="1619.5" y="-12.5" font-family="Helvetica,sans-Serif" font-size="10.00">/Journal/Server.h</text>
</a>
</g>
</g>
<!-- Node16&#45;&gt;Node23 -->
<g id="edge23_Node000016_Node000023" class="edge">
<title>Node16&#45;&gt;Node23</title>
<g id="a_edge23_Node000016_Node000023"><a xlink:title=" ">
<path fill="none" stroke="#63b8ff" d="M1082.57,-92.56C1188.18,-86.26 1383.46,-71.4 1547.5,-41 1555.52,-39.51 1563.96,-37.58 1572.11,-35.5"/>
<polygon fill="#63b8ff" stroke="#63b8ff" points="1082.1,-89.08 1072.33,-93.16 1082.51,-96.07 1082.1,-89.08"/>
</a>
</g>
</g>
<!-- Node24 -->
<g id="Node000024" class="node">
<title>Node24</title>
<g id="a_Node000024"><a xlink:href="src_2_kit_2_persistence_2_record_2_server_8h.html" target="_top" xlink:title=" ">
<polygon fill="white" stroke="#666666" points="1538.5,-35.5 1412.5,-35.5 1412.5,-5.5 1538.5,-5.5 1538.5,-35.5"/>
<text text-anchor="start" x="1420.5" y="-23.5" font-family="Helvetica,sans-Serif" font-size="10.00">Kit/Persistence/Record</text>
<text text-anchor="middle" x="1475.5" y="-12.5" font-family="Helvetica,sans-Serif" font-size="10.00">/Server.h</text>
</a>
</g>
</g>
<!-- Node16&#45;&gt;Node24 -->
<g id="edge24_Node000016_Node000024" class="edge">
<title>Node16&#45;&gt;Node24</title>
<g id="a_edge24_Node000016_Node000024"><a xlink:title=" ">
<path fill="none" stroke="#63b8ff" d="M1082.18,-88.71C1162.69,-79.85 1292.72,-63.63 1403.5,-41 1411.11,-39.44 1419.11,-37.55 1426.9,-35.55"/>
<polygon fill="#63b8ff" stroke="#63b8ff" points="1081.69,-85.24 1072.13,-89.8 1082.45,-92.2 1081.69,-85.24"/>
</a>
</g>
</g>
<!-- Node26 -->
<g id="Node000026" class="node">
<title>Node26</title>
<g id="a_Node000026"><a xlink:href="_open_sync_8h.html" target="_top" xlink:title=" ">
<polygon fill="white" stroke="#666666" points="1171.5,-178.5 1065.5,-178.5 1065.5,-159.5 1171.5,-159.5 1171.5,-178.5"/>
<text text-anchor="middle" x="1118.5" y="-166.5" font-family="Helvetica,sans-Serif" font-size="10.00">Kit/Itc/OpenSync.h</text>
</a>
</g>
</g>
<!-- Node25&#45;&gt;Node26 -->
<g id="edge27_Node000025_Node000026" class="edge">
<title>Node25&#45;&gt;Node26</title>
<g id="a_edge27_Node000025_Node000026"><a xlink:title=" ">
<path fill="none" stroke="#63b8ff" d="M1140.87,-216.18C1134.99,-204.05 1127.47,-188.51 1122.81,-178.91"/>
<polygon fill="#63b8ff" stroke="#63b8ff" points="1137.81,-217.89 1145.32,-225.37 1144.11,-214.84 1137.81,-217.89"/>
</a>
</g>
</g>
<!-- Node26&#45;&gt;Node16 -->
<g id="edge28_Node000026_Node000016" class="edge">
<title>Node26&#45;&gt;Node16</title>
<g id="a_edge28_Node000026_Node000016"><a xlink:title=" ">
<path fill="none" stroke="#63b8ff" d="M1095.95,-154.13C1073.14,-140.1 1038.59,-118.85 1019.47,-107.09"/>
<polygon fill="#63b8ff" stroke="#63b8ff" points="1094.29,-157.22 1104.64,-159.48 1097.96,-151.26 1094.29,-157.22"/>
</a>
</g>
</g>
<!-- Node27&#45;&gt;Node11 -->
<g id="edge30_Node000027_Node000011" class="edge">
<title>Node27&#45;&gt;Node11</title>
<g id="a_edge30_Node000027_Node000011"><a xlink:title=" ">
<path fill="none" stroke="#63b8ff" d="M1069.44,-295.68C992,-285.67 870.78,-268.96 766.5,-250 763.59,-249.47 760.61,-248.91 757.61,-248.32"/>
<polygon fill="#63b8ff" stroke="#63b8ff" points="1069.23,-299.18 1079.6,-296.99 1070.13,-292.24 1069.23,-299.18"/>
</a>
</g>
</g>
<!-- Node27&#45;&gt;Node15 -->
<g id="edge31_Node000027_Node000015" class="edge">
<title>Node27&#45;&gt;Node15</title>
<g id="a_edge31_Node000027_Node000015"><a xlink:title=" ">
<path fill="none" stroke="#63b8ff" d="M1121.87,-292.56C1093.05,-278.55 1047.92,-256.61 1023.18,-244.59"/>
<polygon fill="#63b8ff" stroke="#63b8ff" points="1120.44,-295.75 1130.97,-296.98 1123.5,-289.46 1120.44,-295.75"/>
</a>
</g>
</g>
<!-- Node27&#45;&gt;Node25 -->
<g id="edge32_Node000027_Node000025" class="edge">
<title>Node27&#45;&gt;Node25</title>
<g id="a_edge32_Node000027_Node000025"><a xlink:title=" ">
<path fill="none" stroke="#63b8ff" d="M1148.77,-286.71C1148.97,-273 1149.23,-255.05 1149.38,-244.59"/>
<polygon fill="#63b8ff" stroke="#63b8ff" points="1145.27,-286.93 1148.62,-296.98 1152.27,-287.03 1145.27,-286.93"/>
</a>
</g>
</g>
<!-- Node27&#45;&gt;Node28 -->
<g id="edge33_Node000027_Node000028" class="edge">
<title>Node27&#45;&gt;Node28</title>
<g id="a_edge33_Node000027_Node000028"><a xlink:title=" ">
<path fill="none" stroke="#63b8ff" d="M1176.42,-292.82C1203.06,-280.72 1243.1,-262.53 1270.66,-250.01"/>
<polygon fill="#63b8ff" stroke="#63b8ff" points="1174.92,-289.66 1167.26,-296.98 1177.81,-296.03 1174.92,-289.66"/>
</a>
</g>
</g>
<!-- Node27&#45;&gt;Node30 -->
<g id="edge37_Node000027_Node000030" class="edge">
<title>Node27&#45;&gt;Node30</title>
<g id="a_edge37_Node000027_Node000030"><a xlink:title=" ">
<path fill="none" stroke="#63b8ff" d="M1196.6,-294.75C1250.4,-282.73 1337.72,-263.21 1396.82,-250.01"/>
<polygon fill="#63b8ff" stroke="#63b8ff" points="1195.63,-291.38 1186.63,-296.98 1197.16,-298.21 1195.63,-291.38"/>
</a>
</g>
</g>
<!-- Node28&#45;&gt;Node23 -->
<g id="edge36_Node000028_Node000023" class="edge">
<title>Node28&#45;&gt;Node23</title>
<g id="a_edge36_Node000028_Node000023"><a xlink:title=" ">
<path fill="none" stroke="#63b8ff" d="M1309.16,-209.84C1321.53,-174.92 1349.27,-110.84 1395.5,-77 1451.52,-35.99 1480.21,-58.08 1547.5,-41 1554.28,-39.28 1561.4,-37.42 1568.42,-35.55"/>
<polygon fill="#63b8ff" stroke="#63b8ff" points="1305.73,-209.08 1305.82,-219.67 1312.35,-211.33 1305.73,-209.08"/>
</a>
</g>
</g>
<!-- Node29 -->
<g id="Node000029" class="node">
<title>Node29</title>
<g id="a_Node000029"><a xlink:href="_reader_sync_8h.html" target="_top" xlink:title=" ">
<polygon fill="white" stroke="#666666" points="1530.5,-112.5 1404.5,-112.5 1404.5,-82.5 1530.5,-82.5 1530.5,-112.5"/>
<text text-anchor="start" x="1412.5" y="-100.5" font-family="Helvetica,sans-Serif" font-size="10.00">Kit/Persistence/Record</text>
<text text-anchor="middle" x="1467.5" y="-89.5" font-family="Helvetica,sans-Serif" font-size="10.00">/Journal/ReaderSync.h</text>
</a>
</g>
</g>
<!-- Node28&#45;&gt;Node29 -->
<g id="edge34_Node000028_Node000029" class="edge">
<title>Node28&#45;&gt;Node29</title>
<g id="a_edge34_Node000028_Node000029"><a xlink:title=" ">
<path fill="none" stroke="#63b8ff" d="M1327.06,-213.14C1361.26,-185.22 1420.98,-136.48 1450.28,-112.55"/>
<polygon fill="#63b8ff" stroke="#63b8ff" points="1324.48,-210.72 1318.95,-219.76 1328.91,-216.14 1324.48,-210.72"/>
</a>
</g>
</g>
<!-- Node29&#45;&gt;Node23 -->
<g id="edge35_Node000029_Node000023" class="edge">
<title>Node29&#45;&gt;Node23</title>
<g id="a_edge35_Node000029_Node000023"><a xlink:title=" ">
<path fill="none" stroke="#63b8ff" d="M1505.11,-77.94C1531.69,-64.83 1566.77,-47.52 1591.04,-35.54"/>
<polygon fill="#63b8ff" stroke="#63b8ff" points="1503.51,-74.83 1496.09,-82.39 1506.61,-81.11 1503.51,-74.83"/>
</a>
</g>
</g>
<!-- Node31 -->
<g id="Node000031" class="node">
<title>Node31</title>
<g id="a_Node000031"><a xlink:href="_reset_sync_8h.html" target="_top" xlink:title=" ">
<polygon fill="white" stroke="#666666" points="1578.5,-184 1452.5,-184 1452.5,-154 1578.5,-154 1578.5,-184"/>
<text text-anchor="start" x="1460.5" y="-172" font-family="Helvetica,sans-Serif" font-size="10.00">Kit/Persistence/Record</text>
<text text-anchor="middle" x="1515.5" y="-161" font-family="Helvetica,sans-Serif" font-size="10.00">/Journal/ResetSync.h</text>
</a>
</g>
</g>
<!-- Node30&#45;&gt;Node31 -->
<g id="edge38_Node000030_Node000031" class="edge">
<title>Node30&#45;&gt;Node31</title>
<g id="a_edge38_Node000030_Node000031"><a xlink:title=" ">
<path fill="none" stroke="#63b8ff" d="M1478.67,-212.09C1486.76,-202.85 1495.94,-192.36 1503.11,-184.16"/>
<polygon fill="#63b8ff" stroke="#63b8ff" points="1475.88,-209.97 1471.93,-219.8 1481.15,-214.58 1475.88,-209.97"/>
</a>
</g>
</g>
<!-- Node31&#45;&gt;Node23 -->
<g id="edge39_Node000031_Node000023" class="edge">
<title>Node31&#45;&gt;Node23</title>
<g id="a_edge39_Node000031_Node000023"><a xlink:title=" ">
<path fill="none" stroke="#63b8ff" d="M1531.37,-145.64C1553.04,-115.12 1591.27,-61.27 1609.41,-35.72"/>
<polygon fill="#63b8ff" stroke="#63b8ff" points="1528.41,-143.77 1525.47,-153.95 1534.11,-147.82 1528.41,-143.77"/>
</a>
</g>
</g>
</g>
</svg>
