<?xml version="1.0" encoding="UTF-8" standalone="no"?>
<!DOCTYPE svg PUBLIC "-//W3C//DTD SVG 1.1//EN"
 "http://www.w3.org/Graphics/SVG/1.1/DTD/svg11.dtd">
<!-- Generated by graphviz version 2.43.0 (0)
 -->
<!-- Title: Kit/Io/IOutput.h Pages: 1 -->
<svg width="1309pt" height="214pt"
 viewBox="0.00 0.00 1309.00 214.00" xmlns="http://www.w3.org/2000/svg" xmlns:xlink="http://www.w3.org/1999/xlink">
<g id="graph0" class="graph" transform="scale(1 1) rotate(0) translate(4 210)">
<title>Kit/Io/IOutput.h</title>
<!-- Node1 -->
<g id="Node000001" class="node">
<title>Node1</title>
<g id="a_Node000001"><a xlink:title=" ">
<polygon fill="#999999" stroke="#666666" points="799,-206 709,-206 709,-187 799,-187 799,-206"/>
<text text-anchor="middle" x="754" y="-194" font-family="Helvetica,sans-Serif" font-size="10.00">Kit/Io/IOutput.h</text>
</a>
</g>
</g>
<!-- Node2 -->
<g id="Node000002" class="node">
<title>Node2</title>
<g id="a_Node000002"><a xlink:href="_file_2_i_output_8h.html" target="_top" xlink:title=" ">
<polygon fill="white" stroke="#666666" points="356,-151 246,-151 246,-132 356,-132 356,-151"/>
<text text-anchor="middle" x="301" y="-139" font-family="Helvetica,sans-Serif" font-size="10.00">Kit/Io/File/IOutput.h</text>
</a>
</g>
</g>
<!-- Node1&#45;&gt;Node2 -->
<g id="edge1_Node000001_Node000002" class="edge">
<title>Node1&#45;&gt;Node2</title>
<g id="a_edge1_Node000001_Node000002"><a xlink:title=" ">
<path fill="none" stroke="#63b8ff" d="M698.95,-189.06C611.84,-178.87 443.17,-159.13 356.05,-148.94"/>
<polygon fill="#63b8ff" stroke="#63b8ff" points="698.57,-192.54 708.91,-190.22 699.38,-185.59 698.57,-192.54"/>
</a>
</g>
</g>
<!-- Node7 -->
<g id="Node000007" class="node">
<title>Node7</title>
<g id="a_Node000007"><a xlink:href="_i_input_output_8h.html" target="_top" xlink:title=" ">
<polygon fill="white" stroke="#666666" points="595.5,-151 480.5,-151 480.5,-132 595.5,-132 595.5,-151"/>
<text text-anchor="middle" x="538" y="-139" font-family="Helvetica,sans-Serif" font-size="10.00">Kit/Io/IInputOutput.h</text>
</a>
</g>
</g>
<!-- Node1&#45;&gt;Node7 -->
<g id="edge6_Node000001_Node000007" class="edge">
<title>Node1&#45;&gt;Node7</title>
<g id="a_edge6_Node000001_Node000007"><a xlink:title=" ">
<path fill="none" stroke="#63b8ff" d="M709.43,-184.56C668.98,-174.64 610.13,-160.2 572.98,-151.08"/>
<polygon fill="#63b8ff" stroke="#63b8ff" points="708.75,-188 719.3,-186.98 710.42,-181.2 708.75,-188"/>
</a>
</g>
</g>
<!-- Node14 -->
<g id="Node000014" class="node">
<title>Node14</title>
<g id="a_Node000014"><a xlink:href="_line_writer_8h.html" target="_top" xlink:title=" ">
<polygon fill="white" stroke="#666666" points="731,-151 627,-151 627,-132 731,-132 731,-151"/>
<text text-anchor="middle" x="679" y="-139" font-family="Helvetica,sans-Serif" font-size="10.00">Kit/Io/LineWriter.h</text>
</a>
</g>
</g>
<!-- Node1&#45;&gt;Node14 -->
<g id="edge13_Node000001_Node000014" class="edge">
<title>Node1&#45;&gt;Node14</title>
<g id="a_edge13_Node000001_Node000014"><a xlink:title=" ">
<path fill="none" stroke="#63b8ff" d="M733.69,-181.15C720.14,-171.57 702.76,-159.29 691.27,-151.17"/>
<polygon fill="#63b8ff" stroke="#63b8ff" points="731.76,-184.07 741.95,-186.98 735.8,-178.36 731.76,-184.07"/>
</a>
</g>
</g>
<!-- Node15 -->
<g id="Node000015" class="node">
<title>Node15</title>
<g id="a_Node000015"><a xlink:href="_output_delegate_8h.html" target="_top" xlink:title=" ">
<polygon fill="white" stroke="#666666" points="908.5,-151 749.5,-151 749.5,-132 908.5,-132 908.5,-151"/>
<text text-anchor="middle" x="829" y="-139" font-family="Helvetica,sans-Serif" font-size="10.00">Kit/Io/Stdio/OutputDelegate.h</text>
</a>
</g>
</g>
<!-- Node1&#45;&gt;Node15 -->
<g id="edge14_Node000001_Node000015" class="edge">
<title>Node1&#45;&gt;Node15</title>
<g id="a_edge14_Node000001_Node000015"><a xlink:title=" ">
<path fill="none" stroke="#63b8ff" d="M774.31,-181.15C787.86,-171.57 805.24,-159.29 816.73,-151.17"/>
<polygon fill="#63b8ff" stroke="#63b8ff" points="772.2,-178.36 766.05,-186.98 776.24,-184.07 772.2,-178.36"/>
</a>
</g>
</g>
<!-- Node18 -->
<g id="Node000018" class="node">
<title>Node18</title>
<g id="a_Node000018"><a xlink:href="_tee_output_8h.html" target="_top" xlink:title=" ">
<polygon fill="white" stroke="#666666" points="1031,-151 927,-151 927,-132 1031,-132 1031,-151"/>
<text text-anchor="middle" x="979" y="-139" font-family="Helvetica,sans-Serif" font-size="10.00">Kit/Io/TeeOutput.h</text>
</a>
</g>
</g>
<!-- Node1&#45;&gt;Node18 -->
<g id="edge17_Node000001_Node000018" class="edge">
<title>Node1&#45;&gt;Node18</title>
<g id="a_edge17_Node000001_Node000018"><a xlink:title=" ">
<path fill="none" stroke="#63b8ff" d="M799.89,-184.69C842.05,-174.76 903.7,-160.24 942.57,-151.08"/>
<polygon fill="#63b8ff" stroke="#63b8ff" points="799.08,-181.28 790.15,-186.98 800.69,-188.1 799.08,-181.28"/>
</a>
</g>
</g>
<!-- Node19 -->
<g id="Node000019" class="node">
<title>Node19</title>
<g id="a_Node000019"><a xlink:href="_trace_8h.html" target="_top" xlink:title="This file provides an interface for a &#39;printf&#39; tracing mechanism.">
<polygon fill="white" stroke="#666666" points="1156.5,-151 1049.5,-151 1049.5,-132 1156.5,-132 1156.5,-151"/>
<text text-anchor="middle" x="1103" y="-139" font-family="Helvetica,sans-Serif" font-size="10.00">Kit/System/Trace.h</text>
</a>
</g>
</g>
<!-- Node1&#45;&gt;Node19 -->
<g id="edge18_Node000001_Node000019" class="edge">
<title>Node1&#45;&gt;Node19</title>
<g id="a_edge18_Node000001_Node000019"><a xlink:title=" ">
<path fill="none" stroke="#63b8ff" d="M809.44,-187.08C875.23,-177.09 984.18,-160.54 1049.23,-150.67"/>
<polygon fill="#63b8ff" stroke="#63b8ff" points="808.63,-183.66 799.27,-188.63 809.68,-190.58 808.63,-183.66"/>
</a>
</g>
</g>
<!-- Node3 -->
<g id="Node000003" class="node">
<title>Node3</title>
<g id="a_Node000003"><a xlink:href="_file_2_i_input_output_8h.html" target="_top" xlink:title=" ">
<polygon fill="white" stroke="#666666" points="229.5,-90.5 94.5,-90.5 94.5,-71.5 229.5,-71.5 229.5,-90.5"/>
<text text-anchor="middle" x="162" y="-78.5" font-family="Helvetica,sans-Serif" font-size="10.00">Kit/Io/File/IInputOutput.h</text>
</a>
</g>
</g>
<!-- Node2&#45;&gt;Node3 -->
<g id="edge2_Node000002_Node000003" class="edge">
<title>Node2&#45;&gt;Node3</title>
<g id="a_edge2_Node000002_Node000003"><a xlink:title=" ">
<path fill="none" stroke="#63b8ff" d="M271.49,-128.08C244.64,-116.78 205.72,-100.4 182.24,-90.52"/>
<polygon fill="#63b8ff" stroke="#63b8ff" points="270.21,-131.34 280.79,-131.99 272.93,-124.89 270.21,-131.34"/>
</a>
</g>
</g>
<!-- Node6 -->
<g id="Node000006" class="node">
<title>Node6</title>
<g id="a_Node000006"><a xlink:href="_output_8h.html" target="_top" xlink:title=" ">
<polygon fill="white" stroke="#666666" points="354.5,-90.5 247.5,-90.5 247.5,-71.5 354.5,-71.5 354.5,-90.5"/>
<text text-anchor="middle" x="301" y="-78.5" font-family="Helvetica,sans-Serif" font-size="10.00">Kit/Io/File/Output.h</text>
</a>
</g>
</g>
<!-- Node2&#45;&gt;Node6 -->
<g id="edge5_Node000002_Node000006" class="edge">
<title>Node2&#45;&gt;Node6</title>
<g id="a_edge5_Node000002_Node000006"><a xlink:title=" ">
<path fill="none" stroke="#63b8ff" d="M301,-121.66C301,-111.24 301,-98.8 301,-90.67"/>
<polygon fill="#63b8ff" stroke="#63b8ff" points="297.5,-121.87 301,-131.87 304.5,-121.87 297.5,-121.87"/>
</a>
</g>
</g>
<!-- Node4 -->
<g id="Node000004" class="node">
<title>Node4</title>
<g id="a_Node000004"><a xlink:href="_file_2_input_output_8h.html" target="_top" xlink:title=" ">
<polygon fill="white" stroke="#666666" points="132,-24.5 0,-24.5 0,-5.5 132,-5.5 132,-24.5"/>
<text text-anchor="middle" x="66" y="-12.5" font-family="Helvetica,sans-Serif" font-size="10.00">Kit/Io/File/InputOutput.h</text>
</a>
</g>
</g>
<!-- Node3&#45;&gt;Node4 -->
<g id="edge3_Node000003_Node000004" class="edge">
<title>Node3&#45;&gt;Node4</title>
<g id="a_edge3_Node000003_Node000004"><a xlink:title=" ">
<path fill="none" stroke="#63b8ff" d="M140.52,-65.68C121.66,-53.11 94.84,-35.23 79.05,-24.7"/>
<polygon fill="#63b8ff" stroke="#63b8ff" points="138.79,-68.73 149.05,-71.37 142.67,-62.91 138.79,-68.73"/>
</a>
</g>
</g>
<!-- Node5 -->
<g id="Node000005" class="node">
<title>Node5</title>
<g id="a_Node000005"><a xlink:href="_file_2_null_8h.html" target="_top" xlink:title=" ">
<polygon fill="white" stroke="#666666" points="244,-24.5 150,-24.5 150,-5.5 244,-5.5 244,-24.5"/>
<text text-anchor="middle" x="197" y="-12.5" font-family="Helvetica,sans-Serif" font-size="10.00">Kit/Io/File/Null.h</text>
</a>
</g>
</g>
<!-- Node3&#45;&gt;Node5 -->
<g id="edge4_Node000003_Node000005" class="edge">
<title>Node3&#45;&gt;Node5</title>
<g id="a_edge4_Node000003_Node000005"><a xlink:title=" ">
<path fill="none" stroke="#63b8ff" d="M171.54,-62.55C178.21,-50.36 186.83,-34.61 192.13,-24.91"/>
<polygon fill="#63b8ff" stroke="#63b8ff" points="168.45,-60.92 166.72,-71.37 174.59,-64.27 168.45,-60.92"/>
</a>
</g>
</g>
<!-- Node8 -->
<g id="Node000008" class="node">
<title>Node8</title>
<g id="a_Node000008"><a xlink:href="_null_8h.html" target="_top" xlink:title=" ">
<polygon fill="white" stroke="#666666" points="447,-90.5 373,-90.5 373,-71.5 447,-71.5 447,-90.5"/>
<text text-anchor="middle" x="410" y="-78.5" font-family="Helvetica,sans-Serif" font-size="10.00">Kit/Io/Null.h</text>
</a>
</g>
</g>
<!-- Node7&#45;&gt;Node8 -->
<g id="edge7_Node000007_Node000008" class="edge">
<title>Node7&#45;&gt;Node8</title>
<g id="a_edge7_Node000007_Node000008"><a xlink:title=" ">
<path fill="none" stroke="#63b8ff" d="M510.17,-127.78C485.47,-116.49 450.07,-100.31 428.63,-90.52"/>
<polygon fill="#63b8ff" stroke="#63b8ff" points="508.84,-131.02 519.39,-131.99 511.75,-124.65 508.84,-131.02"/>
</a>
</g>
</g>
<!-- Node9 -->
<g id="Node000009" class="node">
<title>Node9</title>
<g id="a_Node000009"><a xlink:href="_serial_2_s_t_2_m32_f4_2_input_output_8h.html" target="_top" xlink:title=" ">
<polygon fill="white" stroke="#666666" points="589,-96 465,-96 465,-66 589,-66 589,-96"/>
<text text-anchor="start" x="473" y="-84" font-family="Helvetica,sans-Serif" font-size="10.00">Kit/Io/Serial/ST/M32F4</text>
<text text-anchor="middle" x="527" y="-73" font-family="Helvetica,sans-Serif" font-size="10.00">/InputOutput.h</text>
</a>
</g>
</g>
<!-- Node7&#45;&gt;Node9 -->
<g id="edge8_Node000007_Node000009" class="edge">
<title>Node7&#45;&gt;Node9</title>
<g id="a_edge8_Node000007_Node000009"><a xlink:title=" ">
<path fill="none" stroke="#63b8ff" d="M534.51,-121.93C532.94,-113.58 531.11,-103.87 529.65,-96.11"/>
<polygon fill="#63b8ff" stroke="#63b8ff" points="531.09,-122.69 536.38,-131.87 537.97,-121.39 531.09,-122.69"/>
</a>
</g>
</g>
<!-- Node12 -->
<g id="Node000012" class="node">
<title>Node12</title>
<g id="a_Node000012"><a xlink:href="_socket_2_i_input_output_8h.html" target="_top" xlink:title=" ">
<polygon fill="white" stroke="#666666" points="757,-90.5 607,-90.5 607,-71.5 757,-71.5 757,-90.5"/>
<text text-anchor="middle" x="682" y="-78.5" font-family="Helvetica,sans-Serif" font-size="10.00">Kit/Io/Socket/IInputOutput.h</text>
</a>
</g>
</g>
<!-- Node7&#45;&gt;Node12 -->
<g id="edge11_Node000007_Node000012" class="edge">
<title>Node7&#45;&gt;Node12</title>
<g id="a_edge11_Node000007_Node000012"><a xlink:title=" ">
<path fill="none" stroke="#63b8ff" d="M568.57,-128.08C596.39,-116.78 636.71,-100.4 661.04,-90.52"/>
<polygon fill="#63b8ff" stroke="#63b8ff" points="566.89,-124.99 558.94,-131.99 569.52,-131.47 566.89,-124.99"/>
</a>
</g>
</g>
<!-- Node10 -->
<g id="Node000010" class="node">
<title>Node10</title>
<g id="a_Node000010"><a xlink:href="baremetal___n_u_c_l_e_o-_f413_z_h_2stdio_8h.html" target="_top" xlink:title="By default the BSP provides a KIT IO Stream for application&#39; console.">
<polygon fill="white" stroke="#666666" points="438.5,-30 297.5,-30 297.5,0 438.5,0 438.5,-30"/>
<text text-anchor="start" x="305.5" y="-18" font-family="Helvetica,sans-Serif" font-size="10.00">Kit/Bsp/ST/baremetal</text>
<text text-anchor="middle" x="368" y="-7" font-family="Helvetica,sans-Serif" font-size="10.00">_NUCLEO&#45;F413ZH/stdio.h</text>
</a>
</g>
</g>
<!-- Node9&#45;&gt;Node10 -->
<g id="edge9_Node000009_Node000010" class="edge">
<title>Node9&#45;&gt;Node10</title>
<g id="a_edge9_Node000009_Node000010"><a xlink:title=" ">
<path fill="none" stroke="#63b8ff" d="M482.75,-62.19C457.5,-52.02 426.3,-39.47 402.81,-30.01"/>
<polygon fill="#63b8ff" stroke="#63b8ff" points="481.52,-65.47 492.11,-65.95 484.14,-58.97 481.52,-65.47"/>
</a>
</g>
</g>
<!-- Node11 -->
<g id="Node000011" class="node">
<title>Node11</title>
<g id="a_Node000011"><a xlink:href="freertos___n_u_c_l_e_o-_f413_z_h_2stdio_8h.html" target="_top" xlink:title="By default the BSP provides a KIT IO Stream for application&#39; console.">
<polygon fill="white" stroke="#666666" points="597.5,-30 456.5,-30 456.5,0 597.5,0 597.5,-30"/>
<text text-anchor="start" x="464.5" y="-18" font-family="Helvetica,sans-Serif" font-size="10.00">Kit/Bsp/ST/freertos</text>
<text text-anchor="middle" x="527" y="-7" font-family="Helvetica,sans-Serif" font-size="10.00">_NUCLEO&#45;F413ZH/stdio.h</text>
</a>
</g>
</g>
<!-- Node9&#45;&gt;Node11 -->
<g id="edge10_Node000009_Node000011" class="edge">
<title>Node9&#45;&gt;Node11</title>
<g id="a_edge10_Node000009_Node000011"><a xlink:title=" ">
<path fill="none" stroke="#63b8ff" d="M527,-55.54C527,-46.96 527,-37.61 527,-30.16"/>
<polygon fill="#63b8ff" stroke="#63b8ff" points="523.5,-55.8 527,-65.8 530.5,-55.8 523.5,-55.8"/>
</a>
</g>
</g>
<!-- Node13 -->
<g id="Node000013" class="node">
<title>Node13</title>
<g id="a_Node000013"><a xlink:href="_socket_2_input_output_8h.html" target="_top" xlink:title=" ">
<polygon fill="white" stroke="#666666" points="762.5,-24.5 615.5,-24.5 615.5,-5.5 762.5,-5.5 762.5,-24.5"/>
<text text-anchor="middle" x="689" y="-12.5" font-family="Helvetica,sans-Serif" font-size="10.00">Kit/Io/Socket/InputOutput.h</text>
</a>
</g>
</g>
<!-- Node12&#45;&gt;Node13 -->
<g id="edge12_Node000012_Node000013" class="edge">
<title>Node12&#45;&gt;Node13</title>
<g id="a_edge12_Node000012_Node000013"><a xlink:title=" ">
<path fill="none" stroke="#63b8ff" d="M684.07,-61.08C685.38,-49.13 687.01,-34.22 688.03,-24.91"/>
<polygon fill="#63b8ff" stroke="#63b8ff" points="680.55,-61.05 682.94,-71.37 687.51,-61.81 680.55,-61.05"/>
</a>
</g>
</g>
<!-- Node16 -->
<g id="Node000016" class="node">
<title>Node16</title>
<g id="a_Node000016"><a xlink:href="_std_err_8h.html" target="_top" xlink:title=" ">
<polygon fill="white" stroke="#666666" points="885,-90.5 775,-90.5 775,-71.5 885,-71.5 885,-90.5"/>
<text text-anchor="middle" x="830" y="-78.5" font-family="Helvetica,sans-Serif" font-size="10.00">Kit/Io/Stdio/StdErr.h</text>
</a>
</g>
</g>
<!-- Node15&#45;&gt;Node16 -->
<g id="edge15_Node000015_Node000016" class="edge">
<title>Node15&#45;&gt;Node16</title>
<g id="a_edge15_Node000015_Node000016"><a xlink:title=" ">
<path fill="none" stroke="#63b8ff" d="M829.32,-121.66C829.5,-111.24 829.71,-98.8 829.85,-90.67"/>
<polygon fill="#63b8ff" stroke="#63b8ff" points="825.82,-121.81 829.15,-131.87 832.82,-121.93 825.82,-121.81"/>
</a>
</g>
</g>
<!-- Node17 -->
<g id="Node000017" class="node">
<title>Node17</title>
<g id="a_Node000017"><a xlink:href="_std_out_8h.html" target="_top" xlink:title=" ">
<polygon fill="white" stroke="#666666" points="1018.5,-90.5 903.5,-90.5 903.5,-71.5 1018.5,-71.5 1018.5,-90.5"/>
<text text-anchor="middle" x="961" y="-78.5" font-family="Helvetica,sans-Serif" font-size="10.00">Kit/Io/Stdio/StdOut.h</text>
</a>
</g>
</g>
<!-- Node15&#45;&gt;Node17 -->
<g id="edge16_Node000015_Node000017" class="edge">
<title>Node15&#45;&gt;Node17</title>
<g id="a_edge16_Node000015_Node000017"><a xlink:title=" ">
<path fill="none" stroke="#63b8ff" d="M857.36,-127.93C882.84,-116.64 919.58,-100.36 941.78,-90.52"/>
<polygon fill="#63b8ff" stroke="#63b8ff" points="855.92,-124.74 848.19,-131.99 858.75,-131.14 855.92,-124.74"/>
</a>
</g>
</g>
<!-- Node20 -->
<g id="Node000020" class="node">
<title>Node20</title>
<g id="a_Node000020"><a xlink:href="_framework_2_log_8h.html" target="_top" xlink:title="This file declares the public facing Logging interface for generating log entries.">
<polygon fill="white" stroke="#666666" points="1166.5,-96 1037.5,-96 1037.5,-66 1166.5,-66 1166.5,-96"/>
<text text-anchor="start" x="1045.5" y="-84" font-family="Helvetica,sans-Serif" font-size="10.00">Kit/Logging/Framework</text>
<text text-anchor="middle" x="1102" y="-73" font-family="Helvetica,sans-Serif" font-size="10.00">/Log.h</text>
</a>
</g>
</g>
<!-- Node19&#45;&gt;Node20 -->
<g id="edge19_Node000019_Node000020" class="edge">
<title>Node19&#45;&gt;Node20</title>
<g id="a_edge19_Node000019_Node000020"><a xlink:title=" ">
<path fill="none" stroke="#63b8ff" d="M1102.68,-121.65C1102.54,-113.36 1102.37,-103.78 1102.24,-96.11"/>
<polygon fill="#63b8ff" stroke="#63b8ff" points="1099.18,-121.93 1102.85,-131.87 1106.18,-121.81 1099.18,-121.93"/>
</a>
</g>
</g>
<!-- Node22 -->
<g id="Node000022" class="node">
<title>Node22</title>
<g id="a_Node000022"><a xlink:href="_private_8h.html" target="_top" xlink:title="This file contains a collection of classes, interfaces, etc.">
<polygon fill="white" stroke="#666666" points="1301,-90.5 1185,-90.5 1185,-71.5 1301,-71.5 1301,-90.5"/>
<text text-anchor="middle" x="1243" y="-78.5" font-family="Helvetica,sans-Serif" font-size="10.00">Kit/System/Private.h</text>
</a>
</g>
</g>
<!-- Node19&#45;&gt;Node22 -->
<g id="edge21_Node000019_Node000022" class="edge">
<title>Node19&#45;&gt;Node22</title>
<g id="a_edge21_Node000019_Node000022"><a xlink:title=" ">
<path fill="none" stroke="#63b8ff" d="M1132.72,-128.08C1159.76,-116.78 1198.97,-100.4 1222.62,-90.52"/>
<polygon fill="#63b8ff" stroke="#63b8ff" points="1131.23,-124.91 1123.36,-131.99 1133.93,-131.37 1131.23,-124.91"/>
</a>
</g>
</g>
<!-- Node21 -->
<g id="Node000021" class="node">
<title>Node21</title>
<g id="a_Node000021"><a xlink:href="_pkg_2_log_8h.html" target="_top" xlink:title="This file declares the Logging functions available to the KIT Logging Domain.">
<polygon fill="white" stroke="#666666" points="1163,-24.5 1041,-24.5 1041,-5.5 1163,-5.5 1163,-24.5"/>
<text text-anchor="middle" x="1102" y="-12.5" font-family="Helvetica,sans-Serif" font-size="10.00">Kit/Logging/Pkg/Log.h</text>
</a>
</g>
</g>
<!-- Node20&#45;&gt;Node21 -->
<g id="edge20_Node000020_Node000021" class="edge">
<title>Node20&#45;&gt;Node21</title>
<g id="a_edge20_Node000020_Node000021"><a xlink:title=" ">
<path fill="none" stroke="#63b8ff" d="M1102,-55.6C1102,-44.8 1102,-32.78 1102,-24.84"/>
<polygon fill="#63b8ff" stroke="#63b8ff" points="1098.5,-55.8 1102,-65.8 1105.5,-55.8 1098.5,-55.8"/>
</a>
</g>
</g>
</g>
</svg>
