<?xml version="1.0" encoding="UTF-8" standalone="no"?>
<!DOCTYPE svg PUBLIC "-//W3C//DTD SVG 1.1//EN"
 "http://www.w3.org/Graphics/SVG/1.1/DTD/svg11.dtd">
<!-- Generated by graphviz version 2.43.0 (0)
 -->
<!-- Title: Kit/Io/IOutput.h Pages: 1 -->
<svg width="3013pt" height="225pt"
 viewBox="0.00 0.00 3013.00 225.00" xmlns="http://www.w3.org/2000/svg" xmlns:xlink="http://www.w3.org/1999/xlink">
<g id="graph0" class="graph" transform="scale(1 1) rotate(0) translate(4 221)">
<title>Kit/Io/IOutput.h</title>
<!-- Node1 -->
<g id="Node000001" class="node">
<title>Node1</title>
<g id="a_Node000001"><a xlink:title=" ">
<polygon fill="#999999" stroke="#666666" points="893,-217 803,-217 803,-198 893,-198 893,-217"/>
<text text-anchor="middle" x="848" y="-205" font-family="Helvetica,sans-Serif" font-size="10.00">Kit/Io/IOutput.h</text>
</a>
</g>
</g>
<!-- Node2 -->
<g id="Node000002" class="node">
<title>Node2</title>
<g id="a_Node000002"><a xlink:href="_file_2_i_output_8h.html" target="_top" xlink:title=" ">
<polygon fill="white" stroke="#666666" points="325,-156.5 215,-156.5 215,-137.5 325,-137.5 325,-156.5"/>
<text text-anchor="middle" x="270" y="-144.5" font-family="Helvetica,sans-Serif" font-size="10.00">Kit/Io/File/IOutput.h</text>
</a>
</g>
</g>
<!-- Node1&#45;&gt;Node2 -->
<g id="edge1_Node000001_Node000002" class="edge">
<title>Node1&#45;&gt;Node2</title>
<g id="a_edge1_Node000001_Node000002"><a xlink:title=" ">
<path fill="none" stroke="#63b8ff" d="M792.37,-200.87C681.75,-189.67 435.34,-164.73 325.13,-153.58"/>
<polygon fill="#63b8ff" stroke="#63b8ff" points="792.34,-204.38 802.65,-201.91 793.05,-197.42 792.34,-204.38"/>
</a>
</g>
</g>
<!-- Node7 -->
<g id="Node000007" class="node">
<title>Node7</title>
<g id="a_Node000007"><a xlink:href="_i_input_output_8h.html" target="_top" xlink:title=" ">
<polygon fill="white" stroke="#666666" points="641.5,-156.5 526.5,-156.5 526.5,-137.5 641.5,-137.5 641.5,-156.5"/>
<text text-anchor="middle" x="584" y="-144.5" font-family="Helvetica,sans-Serif" font-size="10.00">Kit/Io/IInputOutput.h</text>
</a>
</g>
</g>
<!-- Node1&#45;&gt;Node7 -->
<g id="edge6_Node000001_Node000007" class="edge">
<title>Node1&#45;&gt;Node7</title>
<g id="a_edge6_Node000001_Node000007"><a xlink:title=" ">
<path fill="none" stroke="#63b8ff" d="M799.81,-195.82C748.82,-184.52 669.38,-166.92 622.43,-156.52"/>
<polygon fill="#63b8ff" stroke="#63b8ff" points="799.09,-199.25 809.61,-197.99 800.61,-192.41 799.09,-199.25"/>
</a>
</g>
</g>
<!-- Node13 -->
<g id="Node000013" class="node">
<title>Node13</title>
<g id="a_Node000013"><a xlink:href="_line_writer_8h.html" target="_top" xlink:title=" ">
<polygon fill="white" stroke="#666666" points="764,-156.5 660,-156.5 660,-137.5 764,-137.5 764,-156.5"/>
<text text-anchor="middle" x="712" y="-144.5" font-family="Helvetica,sans-Serif" font-size="10.00">Kit/Io/LineWriter.h</text>
</a>
</g>
</g>
<!-- Node1&#45;&gt;Node13 -->
<g id="edge12_Node000001_Node000013" class="edge">
<title>Node1&#45;&gt;Node13</title>
<g id="a_edge12_Node000001_Node000013"><a xlink:title=" ">
<path fill="none" stroke="#63b8ff" d="M818.78,-193.93C792.52,-182.64 754.67,-166.36 731.8,-156.52"/>
<polygon fill="#63b8ff" stroke="#63b8ff" points="817.66,-197.26 828.22,-197.99 820.42,-190.83 817.66,-197.26"/>
</a>
</g>
</g>
<!-- Node14 -->
<g id="Node000014" class="node">
<title>Node14</title>
<g id="a_Node000014"><a xlink:href="_serial_2_r_pi_2_r_p2xxx_2_stdio_2_output_8h.html" target="_top" xlink:title=" ">
<polygon fill="white" stroke="#666666" points="913.5,-162 782.5,-162 782.5,-132 913.5,-132 913.5,-162"/>
<text text-anchor="start" x="790.5" y="-150" font-family="Helvetica,sans-Serif" font-size="10.00">Kit/Io/Serial/RPi/RP2xxx</text>
<text text-anchor="middle" x="848" y="-139" font-family="Helvetica,sans-Serif" font-size="10.00">/Stdio/Output.h</text>
</a>
</g>
</g>
<!-- Node1&#45;&gt;Node14 -->
<g id="edge13_Node000001_Node000014" class="edge">
<title>Node1&#45;&gt;Node14</title>
<g id="a_edge13_Node000001_Node000014"><a xlink:title=" ">
<path fill="none" stroke="#63b8ff" d="M848,-187.65C848,-179.36 848,-169.78 848,-162.11"/>
<polygon fill="#63b8ff" stroke="#63b8ff" points="844.5,-187.87 848,-197.87 851.5,-187.87 844.5,-187.87"/>
</a>
</g>
</g>
<!-- Node15 -->
<g id="Node000015" class="node">
<title>Node15</title>
<g id="a_Node000015"><a xlink:href="_output_delegate_8h.html" target="_top" xlink:title=" ">
<polygon fill="white" stroke="#666666" points="1090.5,-156.5 931.5,-156.5 931.5,-137.5 1090.5,-137.5 1090.5,-156.5"/>
<text text-anchor="middle" x="1011" y="-144.5" font-family="Helvetica,sans-Serif" font-size="10.00">Kit/Io/Stdio/OutputDelegate.h</text>
</a>
</g>
</g>
<!-- Node1&#45;&gt;Node15 -->
<g id="edge14_Node000001_Node000015" class="edge">
<title>Node1&#45;&gt;Node15</title>
<g id="a_edge14_Node000001_Node000015"><a xlink:title=" ">
<path fill="none" stroke="#63b8ff" d="M881.37,-194.52C912.88,-183.21 959.37,-166.53 987.27,-156.52"/>
<polygon fill="#63b8ff" stroke="#63b8ff" points="879.93,-191.32 871.7,-197.99 882.3,-197.91 879.93,-191.32"/>
</a>
</g>
</g>
<!-- Node18 -->
<g id="Node000018" class="node">
<title>Node18</title>
<g id="a_Node000018"><a xlink:href="_tee_output_8h.html" target="_top" xlink:title=" ">
<polygon fill="white" stroke="#666666" points="1213,-156.5 1109,-156.5 1109,-137.5 1213,-137.5 1213,-156.5"/>
<text text-anchor="middle" x="1161" y="-144.5" font-family="Helvetica,sans-Serif" font-size="10.00">Kit/Io/TeeOutput.h</text>
</a>
</g>
</g>
<!-- Node1&#45;&gt;Node18 -->
<g id="edge17_Node000001_Node000018" class="edge">
<title>Node1&#45;&gt;Node18</title>
<g id="a_edge17_Node000001_Node000018"><a xlink:title=" ">
<path fill="none" stroke="#63b8ff" d="M903.14,-197.48C954.09,-188.97 1031.83,-175.53 1099,-162 1107.33,-160.32 1116.26,-158.39 1124.67,-156.5"/>
<polygon fill="#63b8ff" stroke="#63b8ff" points="902.3,-194.08 893.01,-199.17 903.45,-200.98 902.3,-194.08"/>
</a>
</g>
</g>
<!-- Node19 -->
<g id="Node000019" class="node">
<title>Node19</title>
<g id="a_Node000019"><a xlink:href="_trace_8h.html" target="_top" xlink:title="This file provides an interface for a &#39;printf&#39; tracing mechanism.">
<polygon fill="white" stroke="#666666" points="2092.5,-156.5 1985.5,-156.5 1985.5,-137.5 2092.5,-137.5 2092.5,-156.5"/>
<text text-anchor="middle" x="2039" y="-144.5" font-family="Helvetica,sans-Serif" font-size="10.00">Kit/System/Trace.h</text>
</a>
</g>
</g>
<!-- Node1&#45;&gt;Node19 -->
<g id="edge18_Node000001_Node000019" class="edge">
<title>Node1&#45;&gt;Node19</title>
<g id="a_edge18_Node000001_Node000019"><a xlink:title=" ">
<path fill="none" stroke="#63b8ff" d="M903.52,-203.77C1103.88,-193.93 1788.26,-160.32 1985.44,-150.63"/>
<polygon fill="#63b8ff" stroke="#63b8ff" points="903.05,-200.29 893.23,-204.28 903.39,-207.28 903.05,-200.29"/>
</a>
</g>
</g>
<!-- Node3 -->
<g id="Node000003" class="node">
<title>Node3</title>
<g id="a_Node000003"><a xlink:href="_file_2_i_input_output_8h.html" target="_top" xlink:title=" ">
<polygon fill="white" stroke="#666666" points="198.5,-85 63.5,-85 63.5,-66 198.5,-66 198.5,-85"/>
<text text-anchor="middle" x="131" y="-73" font-family="Helvetica,sans-Serif" font-size="10.00">Kit/Io/File/IInputOutput.h</text>
</a>
</g>
</g>
<!-- Node2&#45;&gt;Node3 -->
<g id="edge2_Node000002_Node000003" class="edge">
<title>Node2&#45;&gt;Node3</title>
<g id="a_edge2_Node000002_Node000003"><a xlink:title=" ">
<path fill="none" stroke="#63b8ff" d="M243.75,-132.87C215.72,-118.86 172.12,-97.06 148.18,-85.09"/>
<polygon fill="#63b8ff" stroke="#63b8ff" points="242.45,-136.14 252.96,-137.48 245.58,-129.88 242.45,-136.14"/>
</a>
</g>
</g>
<!-- Node6 -->
<g id="Node000006" class="node">
<title>Node6</title>
<g id="a_Node000006"><a xlink:href="_file_2_output_8h.html" target="_top" xlink:title=" ">
<polygon fill="white" stroke="#666666" points="323.5,-85 216.5,-85 216.5,-66 323.5,-66 323.5,-85"/>
<text text-anchor="middle" x="270" y="-73" font-family="Helvetica,sans-Serif" font-size="10.00">Kit/Io/File/Output.h</text>
</a>
</g>
</g>
<!-- Node2&#45;&gt;Node6 -->
<g id="edge5_Node000002_Node000006" class="edge">
<title>Node2&#45;&gt;Node6</title>
<g id="a_edge5_Node000002_Node000006"><a xlink:title=" ">
<path fill="none" stroke="#63b8ff" d="M270,-127.21C270,-113.5 270,-95.55 270,-85.09"/>
<polygon fill="#63b8ff" stroke="#63b8ff" points="266.5,-127.48 270,-137.48 273.5,-127.48 266.5,-127.48"/>
</a>
</g>
</g>
<!-- Node4 -->
<g id="Node000004" class="node">
<title>Node4</title>
<g id="a_Node000004"><a xlink:href="_file_2_input_output_8h.html" target="_top" xlink:title=" ">
<polygon fill="white" stroke="#666666" points="132,-19 0,-19 0,0 132,0 132,-19"/>
<text text-anchor="middle" x="66" y="-7" font-family="Helvetica,sans-Serif" font-size="10.00">Kit/Io/File/InputOutput.h</text>
</a>
</g>
</g>
<!-- Node3&#45;&gt;Node4 -->
<g id="edge3_Node000003_Node000004" class="edge">
<title>Node3&#45;&gt;Node4</title>
<g id="a_edge3_Node000003_Node000004"><a xlink:title=" ">
<path fill="none" stroke="#63b8ff" d="M115.08,-58.83C102.5,-46.44 85.38,-29.59 75.04,-19.41"/>
<polygon fill="#63b8ff" stroke="#63b8ff" points="112.65,-61.35 122.23,-65.87 117.56,-56.36 112.65,-61.35"/>
</a>
</g>
</g>
<!-- Node5 -->
<g id="Node000005" class="node">
<title>Node5</title>
<g id="a_Node000005"><a xlink:href="_file_2_null_8h.html" target="_top" xlink:title=" ">
<polygon fill="white" stroke="#666666" points="244,-19 150,-19 150,0 244,0 244,-19"/>
<text text-anchor="middle" x="197" y="-7" font-family="Helvetica,sans-Serif" font-size="10.00">Kit/Io/File/Null.h</text>
</a>
</g>
</g>
<!-- Node3&#45;&gt;Node5 -->
<g id="edge4_Node000003_Node000005" class="edge">
<title>Node3&#45;&gt;Node5</title>
<g id="a_edge4_Node000003_Node000005"><a xlink:title=" ">
<path fill="none" stroke="#63b8ff" d="M147.16,-58.83C159.94,-46.44 177.32,-29.59 187.82,-19.41"/>
<polygon fill="#63b8ff" stroke="#63b8ff" points="144.64,-56.39 139.9,-65.87 149.52,-61.42 144.64,-56.39"/>
</a>
</g>
</g>
<!-- Node8 -->
<g id="Node000008" class="node">
<title>Node8</title>
<g id="a_Node000008"><a xlink:href="_null_8h.html" target="_top" xlink:title=" ">
<polygon fill="white" stroke="#666666" points="416,-85 342,-85 342,-66 416,-66 416,-85"/>
<text text-anchor="middle" x="379" y="-73" font-family="Helvetica,sans-Serif" font-size="10.00">Kit/Io/Null.h</text>
</a>
</g>
</g>
<!-- Node7&#45;&gt;Node8 -->
<g id="edge7_Node000007_Node000008" class="edge">
<title>Node7&#45;&gt;Node8</title>
<g id="a_edge7_Node000007_Node000008"><a xlink:title=" ">
<path fill="none" stroke="#63b8ff" d="M543.84,-134.54C511.47,-125.02 464.94,-110.71 425,-96 416.05,-92.7 406.29,-88.64 398.08,-85.08"/>
<polygon fill="#63b8ff" stroke="#63b8ff" points="543.24,-138.01 553.82,-137.45 545.2,-131.29 543.24,-138.01"/>
</a>
</g>
</g>
<!-- Node9 -->
<g id="Node000009" class="node">
<title>Node9</title>
<g id="a_Node000009"><a xlink:href="_serial_2_r_pi_2_r_p2xxx_2_uart_2_input_output_8h.html" target="_top" xlink:title=" ">
<polygon fill="white" stroke="#666666" points="565.5,-90.5 434.5,-90.5 434.5,-60.5 565.5,-60.5 565.5,-90.5"/>
<text text-anchor="start" x="442.5" y="-78.5" font-family="Helvetica,sans-Serif" font-size="10.00">Kit/Io/Serial/RPi/RP2xxx</text>
<text text-anchor="middle" x="500" y="-67.5" font-family="Helvetica,sans-Serif" font-size="10.00">/Uart/InputOutput.h</text>
</a>
</g>
</g>
<!-- Node7&#45;&gt;Node9 -->
<g id="edge8_Node000007_Node000009" class="edge">
<title>Node7&#45;&gt;Node9</title>
<g id="a_edge8_Node000007_Node000009"><a xlink:title=" ">
<path fill="none" stroke="#63b8ff" d="M565.92,-131.04C551.45,-119.07 531.29,-102.39 517.09,-90.64"/>
<polygon fill="#63b8ff" stroke="#63b8ff" points="563.76,-133.8 573.7,-137.48 568.23,-128.41 563.76,-133.8"/>
</a>
</g>
</g>
<!-- Node10 -->
<g id="Node000010" class="node">
<title>Node10</title>
<g id="a_Node000010"><a xlink:href="_serial_2_s_t_2_m32_f4_2_input_output_8h.html" target="_top" xlink:title=" ">
<polygon fill="white" stroke="#666666" points="708,-90.5 584,-90.5 584,-60.5 708,-60.5 708,-90.5"/>
<text text-anchor="start" x="592" y="-78.5" font-family="Helvetica,sans-Serif" font-size="10.00">Kit/Io/Serial/ST/M32F4</text>
<text text-anchor="middle" x="646" y="-67.5" font-family="Helvetica,sans-Serif" font-size="10.00">/InputOutput.h</text>
</a>
</g>
</g>
<!-- Node7&#45;&gt;Node10 -->
<g id="edge9_Node000007_Node000010" class="edge">
<title>Node7&#45;&gt;Node10</title>
<g id="a_edge9_Node000007_Node000010"><a xlink:title=" ">
<path fill="none" stroke="#63b8ff" d="M598.56,-129.68C609.13,-117.83 623.3,-101.95 633.39,-90.64"/>
<polygon fill="#63b8ff" stroke="#63b8ff" points="595.65,-127.69 591.6,-137.48 600.87,-132.35 595.65,-127.69"/>
</a>
</g>
</g>
<!-- Node11 -->
<g id="Node000011" class="node">
<title>Node11</title>
<g id="a_Node000011"><a xlink:href="_socket_2_i_input_output_8h.html" target="_top" xlink:title=" ">
<polygon fill="white" stroke="#666666" points="876,-85 726,-85 726,-66 876,-66 876,-85"/>
<text text-anchor="middle" x="801" y="-73" font-family="Helvetica,sans-Serif" font-size="10.00">Kit/Io/Socket/IInputOutput.h</text>
</a>
</g>
</g>
<!-- Node7&#45;&gt;Node11 -->
<g id="edge10_Node000007_Node000011" class="edge">
<title>Node7&#45;&gt;Node11</title>
<g id="a_edge10_Node000007_Node000011"><a xlink:title=" ">
<path fill="none" stroke="#63b8ff" d="M620.21,-134.4C663.64,-120.49 735.41,-97.51 774.17,-85.09"/>
<polygon fill="#63b8ff" stroke="#63b8ff" points="619.06,-131.09 610.61,-137.48 621.2,-137.76 619.06,-131.09"/>
</a>
</g>
</g>
<!-- Node12 -->
<g id="Node000012" class="node">
<title>Node12</title>
<g id="a_Node000012"><a xlink:href="_socket_2_input_output_8h.html" target="_top" xlink:title=" ">
<polygon fill="white" stroke="#666666" points="874.5,-19 727.5,-19 727.5,0 874.5,0 874.5,-19"/>
<text text-anchor="middle" x="801" y="-7" font-family="Helvetica,sans-Serif" font-size="10.00">Kit/Io/Socket/InputOutput.h</text>
</a>
</g>
</g>
<!-- Node11&#45;&gt;Node12 -->
<g id="edge11_Node000011_Node000012" class="edge">
<title>Node11&#45;&gt;Node12</title>
<g id="a_edge11_Node000011_Node000012"><a xlink:title=" ">
<path fill="none" stroke="#63b8ff" d="M801,-55.58C801,-43.63 801,-28.72 801,-19.41"/>
<polygon fill="#63b8ff" stroke="#63b8ff" points="797.5,-55.87 801,-65.87 804.5,-55.87 797.5,-55.87"/>
</a>
</g>
</g>
<!-- Node16 -->
<g id="Node000016" class="node">
<title>Node16</title>
<g id="a_Node000016"><a xlink:href="_std_err_8h.html" target="_top" xlink:title=" ">
<polygon fill="white" stroke="#666666" points="1004,-85 894,-85 894,-66 1004,-66 1004,-85"/>
<text text-anchor="middle" x="949" y="-73" font-family="Helvetica,sans-Serif" font-size="10.00">Kit/Io/Stdio/StdErr.h</text>
</a>
</g>
</g>
<!-- Node15&#45;&gt;Node16 -->
<g id="edge15_Node000015_Node000016" class="edge">
<title>Node15&#45;&gt;Node16</title>
<g id="a_edge15_Node000015_Node000016"><a xlink:title=" ">
<path fill="none" stroke="#63b8ff" d="M996.4,-129.63C983.95,-115.68 966.55,-96.17 956.66,-85.09"/>
<polygon fill="#63b8ff" stroke="#63b8ff" points="994.13,-132.35 1003.4,-137.48 999.35,-127.69 994.13,-132.35"/>
</a>
</g>
</g>
<!-- Node17 -->
<g id="Node000017" class="node">
<title>Node17</title>
<g id="a_Node000017"><a xlink:href="_std_out_8h.html" target="_top" xlink:title=" ">
<polygon fill="white" stroke="#666666" points="1137.5,-85 1022.5,-85 1022.5,-66 1137.5,-66 1137.5,-85"/>
<text text-anchor="middle" x="1080" y="-73" font-family="Helvetica,sans-Serif" font-size="10.00">Kit/Io/Stdio/StdOut.h</text>
</a>
</g>
</g>
<!-- Node15&#45;&gt;Node17 -->
<g id="edge16_Node000015_Node000017" class="edge">
<title>Node15&#45;&gt;Node17</title>
<g id="a_edge16_Node000015_Node000017"><a xlink:title=" ">
<path fill="none" stroke="#63b8ff" d="M1026.86,-130.03C1040.74,-116.05 1060.36,-96.28 1071.47,-85.09"/>
<polygon fill="#63b8ff" stroke="#63b8ff" points="1024.02,-127.92 1019.46,-137.48 1028.99,-132.85 1024.02,-127.92"/>
</a>
</g>
</g>
<!-- Node20 -->
<g id="Node000020" class="node">
<title>Node20</title>
<g id="a_Node000020"><a xlink:href="_flasher_8h.html" target="_top" xlink:title=" ">
<polygon fill="white" stroke="#666666" points="1304.5,-96 1155.5,-96 1155.5,-55 1304.5,-55 1304.5,-96"/>
<text text-anchor="start" x="1163.5" y="-84" font-family="Helvetica,sans-Serif" font-size="10.00">/home/runner/work/kit.core</text>
<text text-anchor="start" x="1163.5" y="-73" font-family="Helvetica,sans-Serif" font-size="10.00">/kit.core/projects/examples</text>
<text text-anchor="middle" x="1230" y="-62" font-family="Helvetica,sans-Serif" font-size="10.00">/Container/Lists/Flasher.h</text>
</a>
</g>
</g>
<!-- Node19&#45;&gt;Node20 -->
<g id="edge19_Node000019_Node000020" class="edge">
<title>Node19&#45;&gt;Node20</title>
<g id="a_edge19_Node000019_Node000020"><a xlink:title=" ">
<path fill="none" stroke="#63b8ff" d="M1975.09,-145.07C1848.19,-142.46 1555.72,-132.62 1313,-96 1310.22,-95.58 1307.39,-95.12 1304.55,-94.61"/>
<polygon fill="#63b8ff" stroke="#63b8ff" points="1975.33,-148.57 1985.39,-145.27 1975.46,-141.58 1975.33,-148.57"/>
</a>
</g>
</g>
<!-- Node21 -->
<g id="Node000021" class="node">
<title>Node21</title>
<g id="a_Node000021"><a xlink:href="_led_server_8h.html" target="_top" xlink:title=" ">
<polygon fill="white" stroke="#666666" points="1503.5,-96 1322.5,-96 1322.5,-55 1503.5,-55 1503.5,-96"/>
<text text-anchor="start" x="1330.5" y="-84" font-family="Helvetica,sans-Serif" font-size="10.00">/home/runner/work/kit.core</text>
<text text-anchor="start" x="1330.5" y="-73" font-family="Helvetica,sans-Serif" font-size="10.00">/kit.core/projects/examples</text>
<text text-anchor="middle" x="1413" y="-62" font-family="Helvetica,sans-Serif" font-size="10.00">/Container/RingBuffer/LedServer.h</text>
</a>
</g>
</g>
<!-- Node19&#45;&gt;Node21 -->
<g id="edge20_Node000019_Node000021" class="edge">
<title>Node19&#45;&gt;Node21</title>
<g id="a_edge20_Node000019_Node000021"><a xlink:title=" ">
<path fill="none" stroke="#63b8ff" d="M1975.13,-142.01C1875.74,-135.33 1678.23,-120.2 1512,-96 1509.23,-95.6 1506.41,-95.17 1503.57,-94.72"/>
<polygon fill="#63b8ff" stroke="#63b8ff" points="1975.09,-145.51 1985.3,-142.68 1975.56,-138.53 1975.09,-145.51"/>
</a>
</g>
</g>
<!-- Node22 -->
<g id="Node000022" class="node">
<title>Node22</title>
<g id="a_Node000022"><a xlink:href="_producer_8h.html" target="_top" xlink:title=" ">
<polygon fill="white" stroke="#666666" points="1696.5,-96 1521.5,-96 1521.5,-55 1696.5,-55 1696.5,-96"/>
<text text-anchor="start" x="1529.5" y="-84" font-family="Helvetica,sans-Serif" font-size="10.00">/home/runner/work/kit.core</text>
<text text-anchor="start" x="1529.5" y="-73" font-family="Helvetica,sans-Serif" font-size="10.00">/kit.core/projects/examples</text>
<text text-anchor="middle" x="1609" y="-62" font-family="Helvetica,sans-Serif" font-size="10.00">/Container/RingBuffer/Producer.h</text>
</a>
</g>
</g>
<!-- Node19&#45;&gt;Node22 -->
<g id="edge21_Node000019_Node000022" class="edge">
<title>Node19&#45;&gt;Node22</title>
<g id="a_edge21_Node000019_Node000022"><a xlink:title=" ">
<path fill="none" stroke="#63b8ff" d="M1975.32,-137.47C1908,-128.21 1798.78,-112.53 1705,-96 1702.24,-95.51 1699.43,-95.01 1696.6,-94.49"/>
<polygon fill="#63b8ff" stroke="#63b8ff" points="1974.97,-140.95 1985.35,-138.84 1975.92,-134.02 1974.97,-140.95"/>
</a>
</g>
</g>
<!-- Node23 -->
<g id="Node000023" class="node">
<title>Node23</title>
<g id="a_Node000023"><a xlink:href="_dm_2_transaction_2_client_8h.html" target="_top" xlink:title=" ">
<polygon fill="white" stroke="#666666" points="1863.5,-96 1714.5,-96 1714.5,-55 1863.5,-55 1863.5,-96"/>
<text text-anchor="start" x="1722.5" y="-84" font-family="Helvetica,sans-Serif" font-size="10.00">/home/runner/work/kit.core</text>
<text text-anchor="start" x="1722.5" y="-73" font-family="Helvetica,sans-Serif" font-size="10.00">/kit.core/projects/examples</text>
<text text-anchor="middle" x="1789" y="-62" font-family="Helvetica,sans-Serif" font-size="10.00">/Dm/Transaction/Client.h</text>
</a>
</g>
</g>
<!-- Node19&#45;&gt;Node23 -->
<g id="edge22_Node000019_Node000023" class="edge">
<title>Node19&#45;&gt;Node23</title>
<g id="a_edge22_Node000019_Node000023"><a xlink:title=" ">
<path fill="none" stroke="#63b8ff" d="M1998.28,-134.68C1960.7,-124.23 1904.11,-108.5 1859.24,-96.03"/>
<polygon fill="#63b8ff" stroke="#63b8ff" points="1997.77,-138.17 2008.35,-137.48 1999.65,-131.43 1997.77,-138.17"/>
</a>
</g>
</g>
<!-- Node24 -->
<g id="Node000024" class="node">
<title>Node24</title>
<g id="a_Node000024"><a xlink:href="projects_2examples_2_dm_2_transaction_2_server_8h.html" target="_top" xlink:title=" ">
<polygon fill="white" stroke="#666666" points="2030.5,-96 1881.5,-96 1881.5,-55 2030.5,-55 2030.5,-96"/>
<text text-anchor="start" x="1889.5" y="-84" font-family="Helvetica,sans-Serif" font-size="10.00">/home/runner/work/kit.core</text>
<text text-anchor="start" x="1889.5" y="-73" font-family="Helvetica,sans-Serif" font-size="10.00">/kit.core/projects/examples</text>
<text text-anchor="middle" x="1956" y="-62" font-family="Helvetica,sans-Serif" font-size="10.00">/Dm/Transaction/Server.h</text>
</a>
</g>
</g>
<!-- Node19&#45;&gt;Node24 -->
<g id="edge23_Node000019_Node000024" class="edge">
<title>Node19&#45;&gt;Node24</title>
<g id="a_edge23_Node000019_Node000024"><a xlink:title=" ">
<path fill="none" stroke="#63b8ff" d="M2021.13,-131.04C2008.96,-120.84 1992.71,-107.24 1979.49,-96.17"/>
<polygon fill="#63b8ff" stroke="#63b8ff" points="2018.91,-133.74 2028.82,-137.48 2023.4,-128.37 2018.91,-133.74"/>
</a>
</g>
</g>
<!-- Node25 -->
<g id="Node000025" class="node">
<title>Node25</title>
<g id="a_Node000025"><a xlink:href="_itc_2_synchronous_2_client_8h.html" target="_top" xlink:title=" ">
<polygon fill="white" stroke="#666666" points="2197.5,-96 2048.5,-96 2048.5,-55 2197.5,-55 2197.5,-96"/>
<text text-anchor="start" x="2056.5" y="-84" font-family="Helvetica,sans-Serif" font-size="10.00">/home/runner/work/kit.core</text>
<text text-anchor="start" x="2056.5" y="-73" font-family="Helvetica,sans-Serif" font-size="10.00">/kit.core/projects/examples</text>
<text text-anchor="middle" x="2123" y="-62" font-family="Helvetica,sans-Serif" font-size="10.00">/Itc/Synchronous/Client.h</text>
</a>
</g>
</g>
<!-- Node19&#45;&gt;Node25 -->
<g id="edge24_Node000019_Node000025" class="edge">
<title>Node19&#45;&gt;Node25</title>
<g id="a_edge24_Node000019_Node000025"><a xlink:title=" ">
<path fill="none" stroke="#63b8ff" d="M2057.08,-131.04C2069.4,-120.84 2085.84,-107.24 2099.22,-96.17"/>
<polygon fill="#63b8ff" stroke="#63b8ff" points="2054.77,-128.41 2049.3,-137.48 2059.24,-133.8 2054.77,-128.41"/>
</a>
</g>
</g>
<!-- Node26 -->
<g id="Node000026" class="node">
<title>Node26</title>
<g id="a_Node000026"><a xlink:href="projects_2examples_2_itc_2_synchronous_2_server_8h.html" target="_top" xlink:title=" ">
<polygon fill="white" stroke="#666666" points="2364.5,-96 2215.5,-96 2215.5,-55 2364.5,-55 2364.5,-96"/>
<text text-anchor="start" x="2223.5" y="-84" font-family="Helvetica,sans-Serif" font-size="10.00">/home/runner/work/kit.core</text>
<text text-anchor="start" x="2223.5" y="-73" font-family="Helvetica,sans-Serif" font-size="10.00">/kit.core/projects/examples</text>
<text text-anchor="middle" x="2290" y="-62" font-family="Helvetica,sans-Serif" font-size="10.00">/Itc/Synchronous/Server.h</text>
</a>
</g>
</g>
<!-- Node19&#45;&gt;Node26 -->
<g id="edge25_Node000019_Node000026" class="edge">
<title>Node19&#45;&gt;Node26</title>
<g id="a_edge25_Node000019_Node000026"><a xlink:title=" ">
<path fill="none" stroke="#63b8ff" d="M2079.89,-134.68C2117.61,-124.23 2174.43,-108.5 2219.48,-96.03"/>
<polygon fill="#63b8ff" stroke="#63b8ff" points="2078.48,-131.44 2069.78,-137.48 2080.35,-138.18 2078.48,-131.44"/>
</a>
</g>
</g>
<!-- Node27 -->
<g id="Node000027" class="node">
<title>Node27</title>
<g id="a_Node000027"><a xlink:href="_framework_2_log_8h.html" target="_top" xlink:title="This file declares the public facing Logging interface for generating log entries.">
<polygon fill="white" stroke="#666666" points="2511.5,-90.5 2382.5,-90.5 2382.5,-60.5 2511.5,-60.5 2511.5,-90.5"/>
<text text-anchor="start" x="2390.5" y="-78.5" font-family="Helvetica,sans-Serif" font-size="10.00">Kit/Logging/Framework</text>
<text text-anchor="middle" x="2447" y="-67.5" font-family="Helvetica,sans-Serif" font-size="10.00">/Log.h</text>
</a>
</g>
</g>
<!-- Node19&#45;&gt;Node27 -->
<g id="edge26_Node000019_Node000027" class="edge">
<title>Node19&#45;&gt;Node27</title>
<g id="a_edge26_Node000019_Node000027"><a xlink:title=" ">
<path fill="none" stroke="#63b8ff" d="M2102.59,-138.58C2170.05,-130.21 2279.6,-115.24 2373,-96 2380.68,-94.42 2388.75,-92.53 2396.62,-90.56"/>
<polygon fill="#63b8ff" stroke="#63b8ff" points="2102.03,-135.12 2092.54,-139.81 2102.89,-142.07 2102.03,-135.12"/>
</a>
</g>
</g>
<!-- Node29 -->
<g id="Node000029" class="node">
<title>Node29</title>
<g id="a_Node000029"><a xlink:href="_integer_expression_parser_8h.html" target="_top" xlink:title="This file contains a collection of methods that parses a null terminated string that contains an arit...">
<polygon fill="white" stroke="#666666" points="2678.5,-90.5 2529.5,-90.5 2529.5,-60.5 2678.5,-60.5 2678.5,-90.5"/>
<text text-anchor="start" x="2537.5" y="-78.5" font-family="Helvetica,sans-Serif" font-size="10.00">Kit/Math/IntegerExpression</text>
<text text-anchor="middle" x="2604" y="-67.5" font-family="Helvetica,sans-Serif" font-size="10.00">Parser.h</text>
</a>
</g>
</g>
<!-- Node19&#45;&gt;Node29 -->
<g id="edge28_Node000019_Node000029" class="edge">
<title>Node19&#45;&gt;Node29</title>
<g id="a_edge28_Node000019_Node000029"><a xlink:title=" ">
<path fill="none" stroke="#63b8ff" d="M2102.71,-141.91C2195.12,-135.41 2371.55,-120.85 2520,-96 2529.01,-94.49 2538.49,-92.6 2547.71,-90.58"/>
<polygon fill="#63b8ff" stroke="#63b8ff" points="2102.41,-138.43 2092.68,-142.61 2102.89,-145.41 2102.41,-138.43"/>
</a>
</g>
</g>
<!-- Node30 -->
<g id="Node000030" class="node">
<title>Node30</title>
<g id="a_Node000030"><a xlink:href="_real_expression_parser_8h.html" target="_top" xlink:title="This file contains a collection of methods that parses a null terminated string that contains an arit...">
<polygon fill="white" stroke="#666666" points="2871,-85 2697,-85 2697,-66 2871,-66 2871,-85"/>
<text text-anchor="middle" x="2784" y="-73" font-family="Helvetica,sans-Serif" font-size="10.00">Kit/Math/RealExpressionParser.h</text>
</a>
</g>
</g>
<!-- Node19&#45;&gt;Node30 -->
<g id="edge29_Node000019_Node000030" class="edge">
<title>Node19&#45;&gt;Node30</title>
<g id="a_edge29_Node000019_Node000030"><a xlink:title=" ">
<path fill="none" stroke="#63b8ff" d="M2102.74,-143.65C2219.22,-138.79 2474.08,-125.5 2687,-96 2706.91,-93.24 2728.88,-88.93 2746.87,-85.06"/>
<polygon fill="#63b8ff" stroke="#63b8ff" points="2102.42,-140.16 2092.58,-144.07 2102.71,-147.15 2102.42,-140.16"/>
</a>
</g>
</g>
<!-- Node31 -->
<g id="Node000031" class="node">
<title>Node31</title>
<g id="a_Node000031"><a xlink:href="_private_8h.html" target="_top" xlink:title="This file contains a collection of classes, interfaces, etc.">
<polygon fill="white" stroke="#666666" points="3005,-85 2889,-85 2889,-66 3005,-66 3005,-85"/>
<text text-anchor="middle" x="2947" y="-73" font-family="Helvetica,sans-Serif" font-size="10.00">Kit/System/Private.h</text>
</a>
</g>
</g>
<!-- Node19&#45;&gt;Node31 -->
<g id="edge30_Node000019_Node000031" class="edge">
<title>Node19&#45;&gt;Node31</title>
<g id="a_edge30_Node000019_Node000031"><a xlink:title=" ">
<path fill="none" stroke="#63b8ff" d="M2102.59,-144.06C2271.85,-138.61 2730.64,-121.84 2880,-96 2894.32,-93.52 2909.94,-89.08 2922.49,-85.06"/>
<polygon fill="#63b8ff" stroke="#63b8ff" points="2102.47,-140.57 2092.59,-144.38 2102.69,-147.56 2102.47,-140.57"/>
</a>
</g>
</g>
<!-- Node28 -->
<g id="Node000028" class="node">
<title>Node28</title>
<g id="a_Node000028"><a xlink:href="_pkg_2_log_8h.html" target="_top" xlink:title="This file declares the Logging functions available to the KIT Logging Domain.">
<polygon fill="white" stroke="#666666" points="2508,-19 2386,-19 2386,0 2508,0 2508,-19"/>
<text text-anchor="middle" x="2447" y="-7" font-family="Helvetica,sans-Serif" font-size="10.00">Kit/Logging/Pkg/Log.h</text>
</a>
</g>
</g>
<!-- Node27&#45;&gt;Node28 -->
<g id="edge27_Node000027_Node000028" class="edge">
<title>Node27&#45;&gt;Node28</title>
<g id="a_edge27_Node000027_Node000028"><a xlink:title=" ">
<path fill="none" stroke="#63b8ff" d="M2447,-50.1C2447,-39.3 2447,-27.28 2447,-19.34"/>
<polygon fill="#63b8ff" stroke="#63b8ff" points="2443.5,-50.3 2447,-60.3 2450.5,-50.3 2443.5,-50.3"/>
</a>
</g>
</g>
</g>
</svg>
