<?xml version="1.0" encoding="UTF-8" standalone="no"?>
<!DOCTYPE svg PUBLIC "-//W3C//DTD SVG 1.1//EN"
 "http://www.w3.org/Graphics/SVG/1.1/DTD/svg11.dtd">
<!-- Generated by graphviz version 2.43.0 (0)
 -->
<!-- Title: Kit/Io/IOutput.h Pages: 1 -->
<svg width="2120pt" height="225pt"
 viewBox="0.00 0.00 2120.00 225.00" xmlns="http://www.w3.org/2000/svg" xmlns:xlink="http://www.w3.org/1999/xlink">
<g id="graph0" class="graph" transform="scale(1 1) rotate(0) translate(4 221)">
<title>Kit/Io/IOutput.h</title>
<!-- Node1 -->
<g id="Node000001" class="node">
<title>Node1</title>
<g id="a_Node000001"><a xlink:title=" ">
<polygon fill="#999999" stroke="#666666" points="893,-217 803,-217 803,-198 893,-198 893,-217"/>
<text text-anchor="middle" x="848" y="-205" font-family="Helvetica,sans-Serif" font-size="10.00">Kit/Io/IOutput.h</text>
</a>
</g>
</g>
<!-- Node2 -->
<g id="Node000002" class="node">
<title>Node2</title>
<g id="a_Node000002"><a xlink:href="_file_2_i_output_8h.html" target="_top" xlink:title=" ">
<polygon fill="white" stroke="#666666" points="325,-156.5 215,-156.5 215,-137.5 325,-137.5 325,-156.5"/>
<text text-anchor="middle" x="270" y="-144.5" font-family="Helvetica,sans-Serif" font-size="10.00">Kit/Io/File/IOutput.h</text>
</a>
</g>
</g>
<!-- Node1&#45;&gt;Node2 -->
<g id="edge1_Node000001_Node000002" class="edge">
<title>Node1&#45;&gt;Node2</title>
<g id="a_edge1_Node000001_Node000002"><a xlink:title=" ">
<path fill="none" stroke="#63b8ff" d="M792.37,-200.87C681.75,-189.67 435.34,-164.73 325.13,-153.58"/>
<polygon fill="#63b8ff" stroke="#63b8ff" points="792.34,-204.38 802.65,-201.91 793.05,-197.42 792.34,-204.38"/>
</a>
</g>
</g>
<!-- Node7 -->
<g id="Node000007" class="node">
<title>Node7</title>
<g id="a_Node000007"><a xlink:href="_i_input_output_8h.html" target="_top" xlink:title=" ">
<polygon fill="white" stroke="#666666" points="641.5,-156.5 526.5,-156.5 526.5,-137.5 641.5,-137.5 641.5,-156.5"/>
<text text-anchor="middle" x="584" y="-144.5" font-family="Helvetica,sans-Serif" font-size="10.00">Kit/Io/IInputOutput.h</text>
</a>
</g>
</g>
<!-- Node1&#45;&gt;Node7 -->
<g id="edge6_Node000001_Node000007" class="edge">
<title>Node1&#45;&gt;Node7</title>
<g id="a_edge6_Node000001_Node000007"><a xlink:title=" ">
<path fill="none" stroke="#63b8ff" d="M799.81,-195.82C748.82,-184.52 669.38,-166.92 622.43,-156.52"/>
<polygon fill="#63b8ff" stroke="#63b8ff" points="799.09,-199.25 809.61,-197.99 800.61,-192.41 799.09,-199.25"/>
</a>
</g>
</g>
<!-- Node13 -->
<g id="Node000013" class="node">
<title>Node13</title>
<g id="a_Node000013"><a xlink:href="_line_writer_8h.html" target="_top" xlink:title=" ">
<polygon fill="white" stroke="#666666" points="764,-156.5 660,-156.5 660,-137.5 764,-137.5 764,-156.5"/>
<text text-anchor="middle" x="712" y="-144.5" font-family="Helvetica,sans-Serif" font-size="10.00">Kit/Io/LineWriter.h</text>
</a>
</g>
</g>
<!-- Node1&#45;&gt;Node13 -->
<g id="edge12_Node000001_Node000013" class="edge">
<title>Node1&#45;&gt;Node13</title>
<g id="a_edge12_Node000001_Node000013"><a xlink:title=" ">
<path fill="none" stroke="#63b8ff" d="M818.78,-193.93C792.52,-182.64 754.67,-166.36 731.8,-156.52"/>
<polygon fill="#63b8ff" stroke="#63b8ff" points="817.66,-197.26 828.22,-197.99 820.42,-190.83 817.66,-197.26"/>
</a>
</g>
</g>
<!-- Node14 -->
<g id="Node000014" class="node">
<title>Node14</title>
<g id="a_Node000014"><a xlink:href="_serial_2_r_pi_2_r_p2xxx_2_stdio_2_output_8h.html" target="_top" xlink:title=" ">
<polygon fill="white" stroke="#666666" points="913.5,-162 782.5,-162 782.5,-132 913.5,-132 913.5,-162"/>
<text text-anchor="start" x="790.5" y="-150" font-family="Helvetica,sans-Serif" font-size="10.00">Kit/Io/Serial/RPi/RP2xxx</text>
<text text-anchor="middle" x="848" y="-139" font-family="Helvetica,sans-Serif" font-size="10.00">/Stdio/Output.h</text>
</a>
</g>
</g>
<!-- Node1&#45;&gt;Node14 -->
<g id="edge13_Node000001_Node000014" class="edge">
<title>Node1&#45;&gt;Node14</title>
<g id="a_edge13_Node000001_Node000014"><a xlink:title=" ">
<path fill="none" stroke="#63b8ff" d="M848,-187.65C848,-179.36 848,-169.78 848,-162.11"/>
<polygon fill="#63b8ff" stroke="#63b8ff" points="844.5,-187.87 848,-197.87 851.5,-187.87 844.5,-187.87"/>
</a>
</g>
</g>
<!-- Node15 -->
<g id="Node000015" class="node">
<title>Node15</title>
<g id="a_Node000015"><a xlink:href="_output_delegate_8h.html" target="_top" xlink:title=" ">
<polygon fill="white" stroke="#666666" points="1090.5,-156.5 931.5,-156.5 931.5,-137.5 1090.5,-137.5 1090.5,-156.5"/>
<text text-anchor="middle" x="1011" y="-144.5" font-family="Helvetica,sans-Serif" font-size="10.00">Kit/Io/Stdio/OutputDelegate.h</text>
</a>
</g>
</g>
<!-- Node1&#45;&gt;Node15 -->
<g id="edge14_Node000001_Node000015" class="edge">
<title>Node1&#45;&gt;Node15</title>
<g id="a_edge14_Node000001_Node000015"><a xlink:title=" ">
<path fill="none" stroke="#63b8ff" d="M881.37,-194.52C912.88,-183.21 959.37,-166.53 987.27,-156.52"/>
<polygon fill="#63b8ff" stroke="#63b8ff" points="879.93,-191.32 871.7,-197.99 882.3,-197.91 879.93,-191.32"/>
</a>
</g>
</g>
<!-- Node18 -->
<g id="Node000018" class="node">
<title>Node18</title>
<g id="a_Node000018"><a xlink:href="_tee_output_8h.html" target="_top" xlink:title=" ">
<polygon fill="white" stroke="#666666" points="1213,-156.5 1109,-156.5 1109,-137.5 1213,-137.5 1213,-156.5"/>
<text text-anchor="middle" x="1161" y="-144.5" font-family="Helvetica,sans-Serif" font-size="10.00">Kit/Io/TeeOutput.h</text>
</a>
</g>
</g>
<!-- Node1&#45;&gt;Node18 -->
<g id="edge17_Node000001_Node000018" class="edge">
<title>Node1&#45;&gt;Node18</title>
<g id="a_edge17_Node000001_Node000018"><a xlink:title=" ">
<path fill="none" stroke="#63b8ff" d="M903.14,-197.48C954.09,-188.97 1031.83,-175.53 1099,-162 1107.33,-160.32 1116.26,-158.39 1124.67,-156.5"/>
<polygon fill="#63b8ff" stroke="#63b8ff" points="902.3,-194.08 893.01,-199.17 903.45,-200.98 902.3,-194.08"/>
</a>
</g>
</g>
<!-- Node19 -->
<g id="Node000019" class="node">
<title>Node19</title>
<g id="a_Node000019"><a xlink:href="_trace_8h.html" target="_top" xlink:title="This file provides an interface for a &#39;printf&#39; tracing mechanism.">
<polygon fill="white" stroke="#666666" points="1607.5,-156.5 1500.5,-156.5 1500.5,-137.5 1607.5,-137.5 1607.5,-156.5"/>
<text text-anchor="middle" x="1554" y="-144.5" font-family="Helvetica,sans-Serif" font-size="10.00">Kit/System/Trace.h</text>
</a>
</g>
</g>
<!-- Node1&#45;&gt;Node19 -->
<g id="edge18_Node000001_Node000019" class="edge">
<title>Node1&#45;&gt;Node19</title>
<g id="a_edge18_Node000001_Node000019"><a xlink:title=" ">
<path fill="none" stroke="#63b8ff" d="M903.55,-201.9C1036.06,-190.92 1369.36,-163.3 1500.14,-152.46"/>
<polygon fill="#63b8ff" stroke="#63b8ff" points="902.91,-198.44 893.24,-202.75 903.49,-205.41 902.91,-198.44"/>
</a>
</g>
</g>
<!-- Node3 -->
<g id="Node000003" class="node">
<title>Node3</title>
<g id="a_Node000003"><a xlink:href="_file_2_i_input_output_8h.html" target="_top" xlink:title=" ">
<polygon fill="white" stroke="#666666" points="198.5,-85 63.5,-85 63.5,-66 198.5,-66 198.5,-85"/>
<text text-anchor="middle" x="131" y="-73" font-family="Helvetica,sans-Serif" font-size="10.00">Kit/Io/File/IInputOutput.h</text>
</a>
</g>
</g>
<!-- Node2&#45;&gt;Node3 -->
<g id="edge2_Node000002_Node000003" class="edge">
<title>Node2&#45;&gt;Node3</title>
<g id="a_edge2_Node000002_Node000003"><a xlink:title=" ">
<path fill="none" stroke="#63b8ff" d="M243.75,-132.87C215.72,-118.86 172.12,-97.06 148.18,-85.09"/>
<polygon fill="#63b8ff" stroke="#63b8ff" points="242.45,-136.14 252.96,-137.48 245.58,-129.88 242.45,-136.14"/>
</a>
</g>
</g>
<!-- Node6 -->
<g id="Node000006" class="node">
<title>Node6</title>
<g id="a_Node000006"><a xlink:href="_file_2_output_8h.html" target="_top" xlink:title=" ">
<polygon fill="white" stroke="#666666" points="323.5,-85 216.5,-85 216.5,-66 323.5,-66 323.5,-85"/>
<text text-anchor="middle" x="270" y="-73" font-family="Helvetica,sans-Serif" font-size="10.00">Kit/Io/File/Output.h</text>
</a>
</g>
</g>
<!-- Node2&#45;&gt;Node6 -->
<g id="edge5_Node000002_Node000006" class="edge">
<title>Node2&#45;&gt;Node6</title>
<g id="a_edge5_Node000002_Node000006"><a xlink:title=" ">
<path fill="none" stroke="#63b8ff" d="M270,-127.21C270,-113.5 270,-95.55 270,-85.09"/>
<polygon fill="#63b8ff" stroke="#63b8ff" points="266.5,-127.48 270,-137.48 273.5,-127.48 266.5,-127.48"/>
</a>
</g>
</g>
<!-- Node4 -->
<g id="Node000004" class="node">
<title>Node4</title>
<g id="a_Node000004"><a xlink:href="_file_2_input_output_8h.html" target="_top" xlink:title=" ">
<polygon fill="white" stroke="#666666" points="132,-19 0,-19 0,0 132,0 132,-19"/>
<text text-anchor="middle" x="66" y="-7" font-family="Helvetica,sans-Serif" font-size="10.00">Kit/Io/File/InputOutput.h</text>
</a>
</g>
</g>
<!-- Node3&#45;&gt;Node4 -->
<g id="edge3_Node000003_Node000004" class="edge">
<title>Node3&#45;&gt;Node4</title>
<g id="a_edge3_Node000003_Node000004"><a xlink:title=" ">
<path fill="none" stroke="#63b8ff" d="M115.08,-58.83C102.5,-46.44 85.38,-29.59 75.04,-19.41"/>
<polygon fill="#63b8ff" stroke="#63b8ff" points="112.65,-61.35 122.23,-65.87 117.56,-56.36 112.65,-61.35"/>
</a>
</g>
</g>
<!-- Node5 -->
<g id="Node000005" class="node">
<title>Node5</title>
<g id="a_Node000005"><a xlink:href="_file_2_null_8h.html" target="_top" xlink:title=" ">
<polygon fill="white" stroke="#666666" points="244,-19 150,-19 150,0 244,0 244,-19"/>
<text text-anchor="middle" x="197" y="-7" font-family="Helvetica,sans-Serif" font-size="10.00">Kit/Io/File/Null.h</text>
</a>
</g>
</g>
<!-- Node3&#45;&gt;Node5 -->
<g id="edge4_Node000003_Node000005" class="edge">
<title>Node3&#45;&gt;Node5</title>
<g id="a_edge4_Node000003_Node000005"><a xlink:title=" ">
<path fill="none" stroke="#63b8ff" d="M147.16,-58.83C159.94,-46.44 177.32,-29.59 187.82,-19.41"/>
<polygon fill="#63b8ff" stroke="#63b8ff" points="144.64,-56.39 139.9,-65.87 149.52,-61.42 144.64,-56.39"/>
</a>
</g>
</g>
<!-- Node8 -->
<g id="Node000008" class="node">
<title>Node8</title>
<g id="a_Node000008"><a xlink:href="_null_8h.html" target="_top" xlink:title=" ">
<polygon fill="white" stroke="#666666" points="416,-85 342,-85 342,-66 416,-66 416,-85"/>
<text text-anchor="middle" x="379" y="-73" font-family="Helvetica,sans-Serif" font-size="10.00">Kit/Io/Null.h</text>
</a>
</g>
</g>
<!-- Node7&#45;&gt;Node8 -->
<g id="edge7_Node000007_Node000008" class="edge">
<title>Node7&#45;&gt;Node8</title>
<g id="a_edge7_Node000007_Node000008"><a xlink:title=" ">
<path fill="none" stroke="#63b8ff" d="M543.84,-134.54C511.47,-125.02 464.94,-110.71 425,-96 416.05,-92.7 406.29,-88.64 398.08,-85.08"/>
<polygon fill="#63b8ff" stroke="#63b8ff" points="543.24,-138.01 553.82,-137.45 545.2,-131.29 543.24,-138.01"/>
</a>
</g>
</g>
<!-- Node9 -->
<g id="Node000009" class="node">
<title>Node9</title>
<g id="a_Node000009"><a xlink:href="_serial_2_r_pi_2_r_p2xxx_2_uart_2_input_output_8h.html" target="_top" xlink:title=" ">
<polygon fill="white" stroke="#666666" points="565.5,-90.5 434.5,-90.5 434.5,-60.5 565.5,-60.5 565.5,-90.5"/>
<text text-anchor="start" x="442.5" y="-78.5" font-family="Helvetica,sans-Serif" font-size="10.00">Kit/Io/Serial/RPi/RP2xxx</text>
<text text-anchor="middle" x="500" y="-67.5" font-family="Helvetica,sans-Serif" font-size="10.00">/Uart/InputOutput.h</text>
</a>
</g>
</g>
<!-- Node7&#45;&gt;Node9 -->
<g id="edge8_Node000007_Node000009" class="edge">
<title>Node7&#45;&gt;Node9</title>
<g id="a_edge8_Node000007_Node000009"><a xlink:title=" ">
<path fill="none" stroke="#63b8ff" d="M565.92,-131.04C551.45,-119.07 531.29,-102.39 517.09,-90.64"/>
<polygon fill="#63b8ff" stroke="#63b8ff" points="563.76,-133.8 573.7,-137.48 568.23,-128.41 563.76,-133.8"/>
</a>
</g>
</g>
<!-- Node10 -->
<g id="Node000010" class="node">
<title>Node10</title>
<g id="a_Node000010"><a xlink:href="_serial_2_s_t_2_m32_f4_2_input_output_8h.html" target="_top" xlink:title=" ">
<polygon fill="white" stroke="#666666" points="708,-90.5 584,-90.5 584,-60.5 708,-60.5 708,-90.5"/>
<text text-anchor="start" x="592" y="-78.5" font-family="Helvetica,sans-Serif" font-size="10.00">Kit/Io/Serial/ST/M32F4</text>
<text text-anchor="middle" x="646" y="-67.5" font-family="Helvetica,sans-Serif" font-size="10.00">/InputOutput.h</text>
</a>
</g>
</g>
<!-- Node7&#45;&gt;Node10 -->
<g id="edge9_Node000007_Node000010" class="edge">
<title>Node7&#45;&gt;Node10</title>
<g id="a_edge9_Node000007_Node000010"><a xlink:title=" ">
<path fill="none" stroke="#63b8ff" d="M598.56,-129.68C609.13,-117.83 623.3,-101.95 633.39,-90.64"/>
<polygon fill="#63b8ff" stroke="#63b8ff" points="595.65,-127.69 591.6,-137.48 600.87,-132.35 595.65,-127.69"/>
</a>
</g>
</g>
<!-- Node11 -->
<g id="Node000011" class="node">
<title>Node11</title>
<g id="a_Node000011"><a xlink:href="_socket_2_i_input_output_8h.html" target="_top" xlink:title=" ">
<polygon fill="white" stroke="#666666" points="876,-85 726,-85 726,-66 876,-66 876,-85"/>
<text text-anchor="middle" x="801" y="-73" font-family="Helvetica,sans-Serif" font-size="10.00">Kit/Io/Socket/IInputOutput.h</text>
</a>
</g>
</g>
<!-- Node7&#45;&gt;Node11 -->
<g id="edge10_Node000007_Node000011" class="edge">
<title>Node7&#45;&gt;Node11</title>
<g id="a_edge10_Node000007_Node000011"><a xlink:title=" ">
<path fill="none" stroke="#63b8ff" d="M620.21,-134.4C663.64,-120.49 735.41,-97.51 774.17,-85.09"/>
<polygon fill="#63b8ff" stroke="#63b8ff" points="619.06,-131.09 610.61,-137.48 621.2,-137.76 619.06,-131.09"/>
</a>
</g>
</g>
<!-- Node12 -->
<g id="Node000012" class="node">
<title>Node12</title>
<g id="a_Node000012"><a xlink:href="_socket_2_input_output_8h.html" target="_top" xlink:title=" ">
<polygon fill="white" stroke="#666666" points="874.5,-19 727.5,-19 727.5,0 874.5,0 874.5,-19"/>
<text text-anchor="middle" x="801" y="-7" font-family="Helvetica,sans-Serif" font-size="10.00">Kit/Io/Socket/InputOutput.h</text>
</a>
</g>
</g>
<!-- Node11&#45;&gt;Node12 -->
<g id="edge11_Node000011_Node000012" class="edge">
<title>Node11&#45;&gt;Node12</title>
<g id="a_edge11_Node000011_Node000012"><a xlink:title=" ">
<path fill="none" stroke="#63b8ff" d="M801,-55.58C801,-43.63 801,-28.72 801,-19.41"/>
<polygon fill="#63b8ff" stroke="#63b8ff" points="797.5,-55.87 801,-65.87 804.5,-55.87 797.5,-55.87"/>
</a>
</g>
</g>
<!-- Node16 -->
<g id="Node000016" class="node">
<title>Node16</title>
<g id="a_Node000016"><a xlink:href="_std_err_8h.html" target="_top" xlink:title=" ">
<polygon fill="white" stroke="#666666" points="1004,-85 894,-85 894,-66 1004,-66 1004,-85"/>
<text text-anchor="middle" x="949" y="-73" font-family="Helvetica,sans-Serif" font-size="10.00">Kit/Io/Stdio/StdErr.h</text>
</a>
</g>
</g>
<!-- Node15&#45;&gt;Node16 -->
<g id="edge15_Node000015_Node000016" class="edge">
<title>Node15&#45;&gt;Node16</title>
<g id="a_edge15_Node000015_Node000016"><a xlink:title=" ">
<path fill="none" stroke="#63b8ff" d="M996.4,-129.63C983.95,-115.68 966.55,-96.17 956.66,-85.09"/>
<polygon fill="#63b8ff" stroke="#63b8ff" points="994.13,-132.35 1003.4,-137.48 999.35,-127.69 994.13,-132.35"/>
</a>
</g>
</g>
<!-- Node17 -->
<g id="Node000017" class="node">
<title>Node17</title>
<g id="a_Node000017"><a xlink:href="_std_out_8h.html" target="_top" xlink:title=" ">
<polygon fill="white" stroke="#666666" points="1137.5,-85 1022.5,-85 1022.5,-66 1137.5,-66 1137.5,-85"/>
<text text-anchor="middle" x="1080" y="-73" font-family="Helvetica,sans-Serif" font-size="10.00">Kit/Io/Stdio/StdOut.h</text>
</a>
</g>
</g>
<!-- Node15&#45;&gt;Node17 -->
<g id="edge16_Node000015_Node000017" class="edge">
<title>Node15&#45;&gt;Node17</title>
<g id="a_edge16_Node000015_Node000017"><a xlink:title=" ">
<path fill="none" stroke="#63b8ff" d="M1026.86,-130.03C1040.74,-116.05 1060.36,-96.28 1071.47,-85.09"/>
<polygon fill="#63b8ff" stroke="#63b8ff" points="1024.02,-127.92 1019.46,-137.48 1028.99,-132.85 1024.02,-127.92"/>
</a>
</g>
</g>
<!-- Node20 -->
<g id="Node000020" class="node">
<title>Node20</title>
<g id="a_Node000020"><a xlink:href="_client_8h.html" target="_top" xlink:title=" ">
<polygon fill="white" stroke="#666666" points="1304.5,-96 1155.5,-96 1155.5,-55 1304.5,-55 1304.5,-96"/>
<text text-anchor="start" x="1163.5" y="-84" font-family="Helvetica,sans-Serif" font-size="10.00">/home/runner/work/kit.core</text>
<text text-anchor="start" x="1163.5" y="-73" font-family="Helvetica,sans-Serif" font-size="10.00">/kit.core/projects/examples</text>
<text text-anchor="middle" x="1230" y="-62" font-family="Helvetica,sans-Serif" font-size="10.00">/Dm/Transaction/Client.h</text>
</a>
</g>
</g>
<!-- Node19&#45;&gt;Node20 -->
<g id="edge19_Node000019_Node000020" class="edge">
<title>Node19&#45;&gt;Node20</title>
<g id="a_edge19_Node000019_Node000020"><a xlink:title=" ">
<path fill="none" stroke="#63b8ff" d="M1501.24,-135.47C1452.36,-125.61 1377.66,-110.3 1313,-96 1310.25,-95.39 1307.46,-94.77 1304.64,-94.13"/>
<polygon fill="#63b8ff" stroke="#63b8ff" points="1500.77,-138.94 1511.26,-137.49 1502.15,-132.08 1500.77,-138.94"/>
</a>
</g>
</g>
<!-- Node21 -->
<g id="Node000021" class="node">
<title>Node21</title>
<g id="a_Node000021"><a xlink:href="projects_2examples_2_dm_2_transaction_2_server_8h.html" target="_top" xlink:title=" ">
<polygon fill="white" stroke="#666666" points="1471.5,-96 1322.5,-96 1322.5,-55 1471.5,-55 1471.5,-96"/>
<text text-anchor="start" x="1330.5" y="-84" font-family="Helvetica,sans-Serif" font-size="10.00">/home/runner/work/kit.core</text>
<text text-anchor="start" x="1330.5" y="-73" font-family="Helvetica,sans-Serif" font-size="10.00">/kit.core/projects/examples</text>
<text text-anchor="middle" x="1397" y="-62" font-family="Helvetica,sans-Serif" font-size="10.00">/Dm/Transaction/Server.h</text>
</a>
</g>
</g>
<!-- Node19&#45;&gt;Node21 -->
<g id="edge20_Node000019_Node000021" class="edge">
<title>Node19&#45;&gt;Node21</title>
<g id="a_edge20_Node000019_Node000021"><a xlink:title=" ">
<path fill="none" stroke="#63b8ff" d="M1525.34,-133.31C1501.8,-122.89 1468.08,-107.97 1441.11,-96.03"/>
<polygon fill="#63b8ff" stroke="#63b8ff" points="1524.19,-136.63 1534.75,-137.48 1527.02,-130.23 1524.19,-136.63"/>
</a>
</g>
</g>
<!-- Node22 -->
<g id="Node000022" class="node">
<title>Node22</title>
<g id="a_Node000022"><a xlink:href="_framework_2_log_8h.html" target="_top" xlink:title="This file declares the public facing Logging interface for generating log entries.">
<polygon fill="white" stroke="#666666" points="1618.5,-90.5 1489.5,-90.5 1489.5,-60.5 1618.5,-60.5 1618.5,-90.5"/>
<text text-anchor="start" x="1497.5" y="-78.5" font-family="Helvetica,sans-Serif" font-size="10.00">Kit/Logging/Framework</text>
<text text-anchor="middle" x="1554" y="-67.5" font-family="Helvetica,sans-Serif" font-size="10.00">/Log.h</text>
</a>
</g>
</g>
<!-- Node19&#45;&gt;Node22 -->
<g id="edge21_Node000019_Node000022" class="edge">
<title>Node19&#45;&gt;Node22</title>
<g id="a_edge21_Node000019_Node000022"><a xlink:title=" ">
<path fill="none" stroke="#63b8ff" d="M1554,-127.21C1554,-115.69 1554,-101.18 1554,-90.64"/>
<polygon fill="#63b8ff" stroke="#63b8ff" points="1550.5,-127.48 1554,-137.48 1557.5,-127.48 1550.5,-127.48"/>
</a>
</g>
</g>
<!-- Node24 -->
<g id="Node000024" class="node">
<title>Node24</title>
<g id="a_Node000024"><a xlink:href="_integer_expression_parser_8h.html" target="_top" xlink:title="This file contains a collection of methods that parses a null terminated string that contains an arit...">
<polygon fill="white" stroke="#666666" points="1785.5,-90.5 1636.5,-90.5 1636.5,-60.5 1785.5,-60.5 1785.5,-90.5"/>
<text text-anchor="start" x="1644.5" y="-78.5" font-family="Helvetica,sans-Serif" font-size="10.00">Kit/Math/IntegerExpression</text>
<text text-anchor="middle" x="1711" y="-67.5" font-family="Helvetica,sans-Serif" font-size="10.00">Parser.h</text>
</a>
</g>
</g>
<!-- Node19&#45;&gt;Node24 -->
<g id="edge23_Node000019_Node000024" class="edge">
<title>Node19&#45;&gt;Node24</title>
<g id="a_edge23_Node000019_Node000024"><a xlink:title=" ">
<path fill="none" stroke="#63b8ff" d="M1582.65,-133.32C1609.98,-121.22 1651.07,-103.03 1679.36,-90.51"/>
<polygon fill="#63b8ff" stroke="#63b8ff" points="1580.98,-130.23 1573.25,-137.48 1583.81,-136.63 1580.98,-130.23"/>
</a>
</g>
</g>
<!-- Node25 -->
<g id="Node000025" class="node">
<title>Node25</title>
<g id="a_Node000025"><a xlink:href="_real_expression_parser_8h.html" target="_top" xlink:title="This file contains a collection of methods that parses a null terminated string that contains an arit...">
<polygon fill="white" stroke="#666666" points="1978,-85 1804,-85 1804,-66 1978,-66 1978,-85"/>
<text text-anchor="middle" x="1891" y="-73" font-family="Helvetica,sans-Serif" font-size="10.00">Kit/Math/RealExpressionParser.h</text>
</a>
</g>
</g>
<!-- Node19&#45;&gt;Node25 -->
<g id="edge24_Node000019_Node000025" class="edge">
<title>Node19&#45;&gt;Node25</title>
<g id="a_edge24_Node000019_Node000025"><a xlink:title=" ">
<path fill="none" stroke="#63b8ff" d="M1605.22,-135.44C1672.13,-121.64 1787.96,-97.75 1849.6,-85.04"/>
<polygon fill="#63b8ff" stroke="#63b8ff" points="1604.41,-132.03 1595.32,-137.48 1605.82,-138.89 1604.41,-132.03"/>
</a>
</g>
</g>
<!-- Node26 -->
<g id="Node000026" class="node">
<title>Node26</title>
<g id="a_Node000026"><a xlink:href="_private_8h.html" target="_top" xlink:title="This file contains a collection of classes, interfaces, etc.">
<polygon fill="white" stroke="#666666" points="2112,-85 1996,-85 1996,-66 2112,-66 2112,-85"/>
<text text-anchor="middle" x="2054" y="-73" font-family="Helvetica,sans-Serif" font-size="10.00">Kit/System/Private.h</text>
</a>
</g>
</g>
<!-- Node19&#45;&gt;Node26 -->
<g id="edge25_Node000019_Node000026" class="edge">
<title>Node19&#45;&gt;Node26</title>
<g id="a_edge25_Node000019_Node000026"><a xlink:title=" ">
<path fill="none" stroke="#63b8ff" d="M1617.79,-142.01C1702.71,-135.92 1857.27,-122.18 1987,-96 2000.89,-93.2 2016.08,-88.88 2028.48,-85.02"/>
<polygon fill="#63b8ff" stroke="#63b8ff" points="1617.51,-138.52 1607.78,-142.71 1618,-145.5 1617.51,-138.52"/>
</a>
</g>
</g>
<!-- Node23 -->
<g id="Node000023" class="node">
<title>Node23</title>
<g id="a_Node000023"><a xlink:href="_pkg_2_log_8h.html" target="_top" xlink:title="This file declares the Logging functions available to the KIT Logging Domain.">
<polygon fill="white" stroke="#666666" points="1615,-19 1493,-19 1493,0 1615,0 1615,-19"/>
<text text-anchor="middle" x="1554" y="-7" font-family="Helvetica,sans-Serif" font-size="10.00">Kit/Logging/Pkg/Log.h</text>
</a>
</g>
</g>
<!-- Node22&#45;&gt;Node23 -->
<g id="edge22_Node000022_Node000023" class="edge">
<title>Node22&#45;&gt;Node23</title>
<g id="a_edge22_Node000022_Node000023"><a xlink:title=" ">
<path fill="none" stroke="#63b8ff" d="M1554,-50.1C1554,-39.3 1554,-27.28 1554,-19.34"/>
<polygon fill="#63b8ff" stroke="#63b8ff" points="1550.5,-50.3 1554,-60.3 1557.5,-50.3 1550.5,-50.3"/>
</a>
</g>
</g>
</g>
</svg>
