<?xml version="1.0" encoding="UTF-8" standalone="no"?>
<!DOCTYPE svg PUBLIC "-//W3C//DTD SVG 1.1//EN"
 "http://www.w3.org/Graphics/SVG/1.1/DTD/svg11.dtd">
<!-- Generated by graphviz version 2.43.0 (0)
 -->
<!-- Title: Kit/EventQueue/IQueue.h Pages: 1 -->
<svg width="1893pt" height="478pt"
 viewBox="0.00 0.00 1893.14 478.00" xmlns="http://www.w3.org/2000/svg" xmlns:xlink="http://www.w3.org/1999/xlink">
<g id="graph0" class="graph" transform="scale(1 1) rotate(0) translate(4 474)">
<title>Kit/EventQueue/IQueue.h</title>
<!-- Node1 -->
<g id="Node000001" class="node">
<title>Node1</title>
<g id="a_Node000001"><a xlink:title=" ">
<polygon fill="#999999" stroke="#666666" points="674,-470 535,-470 535,-451 674,-451 674,-470"/>
<text text-anchor="middle" x="604.5" y="-458" font-family="Helvetica,sans-Serif" font-size="10.00">Kit/EventQueue/IQueue.h</text>
</a>
</g>
</g>
<!-- Node2 -->
<g id="Node000002" class="node">
<title>Node2</title>
<g id="a_Node000002"><a xlink:href="_led_server_8h.html" target="_top" xlink:title=" ">
<polygon fill="white" stroke="#666666" points="181,-41 0,-41 0,0 181,0 181,-41"/>
<text text-anchor="start" x="8" y="-29" font-family="Helvetica,sans-Serif" font-size="10.00">/home/runner/work/kit.core</text>
<text text-anchor="start" x="8" y="-18" font-family="Helvetica,sans-Serif" font-size="10.00">/kit.core/projects/examples</text>
<text text-anchor="middle" x="90.5" y="-7" font-family="Helvetica,sans-Serif" font-size="10.00">/Container/RingBuffer/LedServer.h</text>
</a>
</g>
</g>
<!-- Node1&#45;&gt;Node2 -->
<g id="edge1_Node000001_Node000002" class="edge">
<title>Node1&#45;&gt;Node2</title>
<g id="a_edge1_Node000001_Node000002"><a xlink:title=" ">
<path fill="none" stroke="#63b8ff" d="M524.72,-454.32C407.25,-444.46 201.5,-417.75 201.5,-351.5 201.5,-351.5 201.5,-351.5 201.5,-140.5 201.5,-96 159.49,-61.21 127.15,-41.03"/>
<polygon fill="#63b8ff" stroke="#63b8ff" points="524.51,-457.81 534.76,-455.14 525.08,-450.83 524.51,-457.81"/>
</a>
</g>
</g>
<!-- Node3 -->
<g id="Node000003" class="node">
<title>Node3</title>
<g id="a_Node000003"><a xlink:href="_producer_8h.html" target="_top" xlink:title=" ">
<polygon fill="white" stroke="#666666" points="374,-41 199,-41 199,0 374,0 374,-41"/>
<text text-anchor="start" x="207" y="-29" font-family="Helvetica,sans-Serif" font-size="10.00">/home/runner/work/kit.core</text>
<text text-anchor="start" x="207" y="-18" font-family="Helvetica,sans-Serif" font-size="10.00">/kit.core/projects/examples</text>
<text text-anchor="middle" x="286.5" y="-7" font-family="Helvetica,sans-Serif" font-size="10.00">/Container/RingBuffer/Producer.h</text>
</a>
</g>
</g>
<!-- Node1&#45;&gt;Node3 -->
<g id="edge2_Node000001_Node000003" class="edge">
<title>Node1&#45;&gt;Node3</title>
<g id="a_edge2_Node000001_Node000003"><a xlink:title=" ">
<path fill="none" stroke="#63b8ff" d="M524.43,-457.7C449.98,-451.25 350.5,-428.27 350.5,-351.5 350.5,-351.5 350.5,-351.5 350.5,-140.5 350.5,-101.79 323.91,-63.55 305.01,-41.25"/>
<polygon fill="#63b8ff" stroke="#63b8ff" points="524.52,-461.22 534.76,-458.5 525.06,-454.24 524.52,-461.22"/>
</a>
</g>
</g>
<!-- Node4 -->
<g id="Node000004" class="node">
<title>Node4</title>
<g id="a_Node000004"><a xlink:href="_dm_2_transaction_2_client_8h.html" target="_top" xlink:title=" ">
<polygon fill="white" stroke="#666666" points="541,-41 392,-41 392,0 541,0 541,-41"/>
<text text-anchor="start" x="400" y="-29" font-family="Helvetica,sans-Serif" font-size="10.00">/home/runner/work/kit.core</text>
<text text-anchor="start" x="400" y="-18" font-family="Helvetica,sans-Serif" font-size="10.00">/kit.core/projects/examples</text>
<text text-anchor="middle" x="466.5" y="-7" font-family="Helvetica,sans-Serif" font-size="10.00">/Dm/Transaction/Client.h</text>
</a>
</g>
</g>
<!-- Node1&#45;&gt;Node4 -->
<g id="edge3_Node000001_Node000004" class="edge">
<title>Node1&#45;&gt;Node4</title>
<g id="a_edge3_Node000001_Node000004"><a xlink:title=" ">
<path fill="none" stroke="#63b8ff" d="M558.64,-447.91C513.89,-433.51 452.5,-404.17 452.5,-351.5 452.5,-351.5 452.5,-351.5 452.5,-140.5 452.5,-105.34 458.6,-64.74 462.75,-41.21"/>
<polygon fill="#63b8ff" stroke="#63b8ff" points="557.89,-451.34 568.48,-450.92 559.94,-444.64 557.89,-451.34"/>
</a>
</g>
</g>
<!-- Node5 -->
<g id="Node000005" class="node">
<title>Node5</title>
<g id="a_Node000005"><a xlink:href="projects_2examples_2_dm_2_transaction_2_server_8h.html" target="_top" xlink:title=" ">
<polygon fill="white" stroke="#666666" points="708,-41 559,-41 559,0 708,0 708,-41"/>
<text text-anchor="start" x="567" y="-29" font-family="Helvetica,sans-Serif" font-size="10.00">/home/runner/work/kit.core</text>
<text text-anchor="start" x="567" y="-18" font-family="Helvetica,sans-Serif" font-size="10.00">/kit.core/projects/examples</text>
<text text-anchor="middle" x="633.5" y="-7" font-family="Helvetica,sans-Serif" font-size="10.00">/Dm/Transaction/Server.h</text>
</a>
</g>
</g>
<!-- Node1&#45;&gt;Node5 -->
<g id="edge4_Node000001_Node000005" class="edge">
<title>Node1&#45;&gt;Node5</title>
<g id="a_edge4_Node000001_Node000005"><a xlink:title=" ">
<path fill="none" stroke="#63b8ff" d="M564.81,-447.34C547.41,-440.29 527.93,-429.82 514.5,-415 494.23,-392.65 490.5,-381.67 490.5,-351.5 490.5,-351.5 490.5,-351.5 490.5,-140.5 490.5,-110.33 493.98,-99.12 514.5,-77 529.15,-61.21 549.2,-49.51 568.67,-41.04"/>
<polygon fill="#63b8ff" stroke="#63b8ff" points="563.62,-450.63 574.21,-450.91 566.1,-444.09 563.62,-450.63"/>
</a>
</g>
</g>
<!-- Node6 -->
<g id="Node000006" class="node">
<title>Node6</title>
<g id="a_Node000006"><a xlink:href="_itc_2_synchronous_2_client_8h.html" target="_top" xlink:title=" ">
<polygon fill="white" stroke="#666666" points="875,-41 726,-41 726,0 875,0 875,-41"/>
<text text-anchor="start" x="734" y="-29" font-family="Helvetica,sans-Serif" font-size="10.00">/home/runner/work/kit.core</text>
<text text-anchor="start" x="734" y="-18" font-family="Helvetica,sans-Serif" font-size="10.00">/kit.core/projects/examples</text>
<text text-anchor="middle" x="800.5" y="-7" font-family="Helvetica,sans-Serif" font-size="10.00">/Itc/Synchronous/Client.h</text>
</a>
</g>
</g>
<!-- Node1&#45;&gt;Node6 -->
<g id="edge5_Node000001_Node000006" class="edge">
<title>Node1&#45;&gt;Node6</title>
<g id="a_edge5_Node000001_Node000006"><a xlink:title=" ">
<path fill="none" stroke="#63b8ff" d="M584.63,-444.4C562.11,-425.42 528.5,-390.53 528.5,-351.5 528.5,-351.5 528.5,-351.5 528.5,-140.5 528.5,-109.47 533.42,-96.57 557.5,-77 613.72,-31.3 645.88,-57.19 716.5,-41 719.56,-40.3 722.69,-39.58 725.85,-38.85"/>
<polygon fill="#63b8ff" stroke="#63b8ff" points="582.65,-447.3 592.62,-450.88 587.06,-441.86 582.65,-447.3"/>
</a>
</g>
</g>
<!-- Node7 -->
<g id="Node000007" class="node">
<title>Node7</title>
<g id="a_Node000007"><a xlink:href="_rate_sync_8h.html" target="_top" xlink:title=" ">
<polygon fill="white" stroke="#666666" points="1641,-228 1486,-228 1486,-187 1641,-187 1641,-228"/>
<text text-anchor="start" x="1494" y="-216" font-family="Helvetica,sans-Serif" font-size="10.00">/home/runner/work/kit.core</text>
<text text-anchor="start" x="1494" y="-205" font-family="Helvetica,sans-Serif" font-size="10.00">/kit.core/projects/examples</text>
<text text-anchor="middle" x="1563.5" y="-194" font-family="Helvetica,sans-Serif" font-size="10.00">/Itc/Synchronous/RateSync.h</text>
</a>
</g>
</g>
<!-- Node1&#45;&gt;Node7 -->
<g id="edge6_Node000001_Node000007" class="edge">
<title>Node1&#45;&gt;Node7</title>
<g id="a_edge6_Node000001_Node000007"><a xlink:title=" ">
<path fill="none" stroke="#63b8ff" d="M684.54,-460.27C812.14,-460.16 1069.04,-454.42 1282.5,-415 1398.68,-393.55 1455.62,-400.99 1524.5,-305 1541.57,-281.22 1552.65,-248.89 1558.49,-228.36"/>
<polygon fill="#63b8ff" stroke="#63b8ff" points="684.46,-456.77 674.46,-460.27 684.46,-463.77 684.46,-456.77"/>
</a>
</g>
</g>
<!-- Node8 -->
<g id="Node000008" class="node">
<title>Node8</title>
<g id="a_Node000008"><a xlink:href="projects_2examples_2_itc_2_synchronous_2_server_8h.html" target="_top" xlink:title=" ">
<polygon fill="white" stroke="#666666" points="1042,-41 893,-41 893,0 1042,0 1042,-41"/>
<text text-anchor="start" x="901" y="-29" font-family="Helvetica,sans-Serif" font-size="10.00">/home/runner/work/kit.core</text>
<text text-anchor="start" x="901" y="-18" font-family="Helvetica,sans-Serif" font-size="10.00">/kit.core/projects/examples</text>
<text text-anchor="middle" x="967.5" y="-7" font-family="Helvetica,sans-Serif" font-size="10.00">/Itc/Synchronous/Server.h</text>
</a>
</g>
</g>
<!-- Node1&#45;&gt;Node8 -->
<g id="edge8_Node000001_Node000008" class="edge">
<title>Node1&#45;&gt;Node8</title>
<g id="a_edge8_Node000001_Node000008"><a xlink:title=" ">
<path fill="none" stroke="#63b8ff" d="M604.5,-440.77C604.5,-419.23 604.5,-382.81 604.5,-351.5 604.5,-351.5 604.5,-351.5 604.5,-283.5 604.5,-239.79 596.75,-221.58 623.5,-187 643.24,-161.48 832.03,-79.01 921.24,-41.01"/>
<polygon fill="#63b8ff" stroke="#63b8ff" points="601,-440.82 604.5,-450.82 608,-440.82 601,-440.82"/>
</a>
</g>
</g>
<!-- Node9 -->
<g id="Node000009" class="node">
<title>Node9</title>
<g id="a_Node000009"><a xlink:href="_listener_client_sync_8h.html" target="_top" xlink:title=" ">
<polygon fill="white" stroke="#666666" points="1467.5,-222.5 1319.5,-222.5 1319.5,-192.5 1467.5,-192.5 1467.5,-222.5"/>
<text text-anchor="start" x="1327.5" y="-210.5" font-family="Helvetica,sans-Serif" font-size="10.00">Kit/Io/Socket/ListenerClient</text>
<text text-anchor="middle" x="1393.5" y="-199.5" font-family="Helvetica,sans-Serif" font-size="10.00">Sync.h</text>
</a>
</g>
</g>
<!-- Node1&#45;&gt;Node9 -->
<g id="edge9_Node000001_Node000009" class="edge">
<title>Node1&#45;&gt;Node9</title>
<g id="a_edge9_Node000001_Node000009"><a xlink:title=" ">
<path fill="none" stroke="#63b8ff" d="M684.33,-458.77C885.65,-455.04 1405.2,-432.94 1506.5,-305 1517.81,-290.71 1516.13,-279.47 1506.5,-264 1494.02,-243.96 1471.96,-230.96 1450.62,-222.61"/>
<polygon fill="#63b8ff" stroke="#63b8ff" points="684.06,-455.28 674.12,-458.95 684.18,-462.28 684.06,-455.28"/>
</a>
</g>
</g>
<!-- Node10 -->
<g id="Node000010" class="node">
<title>Node10</title>
<g id="a_Node000010"><a xlink:href="_async_return_handler_8h.html" target="_top" xlink:title=" ">
<polygon fill="white" stroke="#666666" points="916.5,-360 760.5,-360 760.5,-341 916.5,-341 916.5,-360"/>
<text text-anchor="middle" x="838.5" y="-348" font-family="Helvetica,sans-Serif" font-size="10.00">Kit/Itc/AsyncReturnHandler.h</text>
</a>
</g>
</g>
<!-- Node1&#45;&gt;Node10 -->
<g id="edge10_Node000001_Node000010" class="edge">
<title>Node1&#45;&gt;Node10</title>
<g id="a_edge10_Node000001_Node000010"><a xlink:title=" ">
<path fill="none" stroke="#63b8ff" d="M632.52,-446.57C680.97,-424.21 779.11,-378.91 819.98,-360.05"/>
<polygon fill="#63b8ff" stroke="#63b8ff" points="630.87,-443.48 623.25,-450.84 633.8,-449.83 630.87,-443.48"/>
</a>
</g>
</g>
<!-- Node17 -->
<g id="Node000017" class="node">
<title>Node17</title>
<g id="a_Node000017"><a xlink:href="_log_sink_8h.html" target="_top" xlink:title=" ">
<polygon fill="white" stroke="#666666" points="1461,-35.5 1332,-35.5 1332,-5.5 1461,-5.5 1461,-35.5"/>
<text text-anchor="start" x="1340" y="-23.5" font-family="Helvetica,sans-Serif" font-size="10.00">Kit/Logging/Framework</text>
<text text-anchor="middle" x="1396.5" y="-12.5" font-family="Helvetica,sans-Serif" font-size="10.00">/LogSink.h</text>
</a>
</g>
</g>
<!-- Node1&#45;&gt;Node17 -->
<g id="edge51_Node000001_Node000017" class="edge">
<title>Node1&#45;&gt;Node17</title>
<g id="a_edge51_Node000001_Node000017"><a xlink:title=" ">
<path fill="none" stroke="#63b8ff" d="M684.38,-459.76C931.9,-459.51 1669.5,-450.48 1669.5,-351.5 1669.5,-351.5 1669.5,-351.5 1669.5,-140.5 1669.5,-50.02 1541.93,-27.63 1461.2,-22.53"/>
<polygon fill="#63b8ff" stroke="#63b8ff" points="684.38,-456.26 674.38,-459.76 684.38,-463.26 684.38,-456.26"/>
</a>
</g>
</g>
<!-- Node20 -->
<g id="Node000020" class="node">
<title>Node20</title>
<g id="a_Node000020"><a xlink:href="_open_sync_8h.html" target="_top" xlink:title=" ">
<polygon fill="white" stroke="#666666" points="662.5,-151 556.5,-151 556.5,-132 662.5,-132 662.5,-151"/>
<text text-anchor="middle" x="609.5" y="-139" font-family="Helvetica,sans-Serif" font-size="10.00">Kit/Itc/OpenSync.h</text>
</a>
</g>
</g>
<!-- Node1&#45;&gt;Node20 -->
<g id="edge33_Node000001_Node000020" class="edge">
<title>Node1&#45;&gt;Node20</title>
<g id="a_edge33_Node000001_Node000020"><a xlink:title=" ">
<path fill="none" stroke="#63b8ff" d="M594.2,-441.99C582.95,-421.16 566.5,-384.98 566.5,-351.5 566.5,-351.5 566.5,-351.5 566.5,-283.5 566.5,-231.29 593.81,-172.75 604.9,-151.13"/>
<polygon fill="#63b8ff" stroke="#63b8ff" points="591.26,-443.9 599.22,-450.9 597.37,-440.47 591.26,-443.9"/>
</a>
</g>
</g>
<!-- Node21 -->
<g id="Node000021" class="node">
<title>Node21</title>
<g id="a_Node000021"><a xlink:href="_mailbox_8h.html" target="_top" xlink:title=" ">
<polygon fill="white" stroke="#666666" points="1808.5,-415 1712.5,-415 1712.5,-396 1808.5,-396 1808.5,-415"/>
<text text-anchor="middle" x="1760.5" y="-403" font-family="Helvetica,sans-Serif" font-size="10.00">Kit/Itc/Mailbox.h</text>
</a>
</g>
</g>
<!-- Node1&#45;&gt;Node21 -->
<g id="edge29_Node000001_Node000021" class="edge">
<title>Node1&#45;&gt;Node21</title>
<g id="a_edge29_Node000001_Node000021"><a xlink:title=" ">
<path fill="none" stroke="#63b8ff" d="M684.14,-458.09C863.03,-454.51 1310.3,-443.26 1683.5,-415 1692.89,-414.29 1702.9,-413.33 1712.49,-412.32"/>
<polygon fill="#63b8ff" stroke="#63b8ff" points="683.95,-454.59 674.02,-458.29 684.09,-461.59 683.95,-454.59"/>
</a>
</g>
</g>
<!-- Node24 -->
<g id="Node000024" class="node">
<title>Node24</title>
<g id="a_Node000024"><a xlink:href="_s_a_p_8h.html" target="_top" xlink:title=" ">
<polygon fill="white" stroke="#666666" points="1031,-415 956,-415 956,-396 1031,-396 1031,-415"/>
<text text-anchor="middle" x="993.5" y="-403" font-family="Helvetica,sans-Serif" font-size="10.00">Kit/Itc/SAP.h</text>
</a>
</g>
</g>
<!-- Node1&#45;&gt;Node24 -->
<g id="edge34_Node000001_Node000024" class="edge">
<title>Node1&#45;&gt;Node24</title>
<g id="a_edge34_Node000001_Node000024"><a xlink:title=" ">
<path fill="none" stroke="#63b8ff" d="M677.08,-449.61C759.73,-438.35 891.61,-420.38 955.86,-411.63"/>
<polygon fill="#63b8ff" stroke="#63b8ff" points="676.44,-446.17 667,-450.98 677.38,-453.1 676.44,-446.17"/>
</a>
</g>
</g>
<!-- Node7&#45;&gt;Node8 -->
<g id="edge7_Node000007_Node000008" class="edge">
<title>Node7&#45;&gt;Node8</title>
<g id="a_edge7_Node000007_Node000008"><a xlink:title=" ">
<path fill="none" stroke="#63b8ff" d="M1490.9,-183.96C1373.03,-147.38 1142.02,-75.67 1030.59,-41.08"/>
<polygon fill="#63b8ff" stroke="#63b8ff" points="1489.98,-187.34 1500.56,-186.96 1492.05,-180.66 1489.98,-187.34"/>
</a>
</g>
</g>
<!-- Node11 -->
<g id="Node000011" class="node">
<title>Node11</title>
<g id="a_Node000011"><a xlink:href="_response_message_8h.html" target="_top" xlink:title=" ">
<polygon fill="white" stroke="#666666" points="914.5,-294 766.5,-294 766.5,-275 914.5,-275 914.5,-294"/>
<text text-anchor="middle" x="840.5" y="-282" font-family="Helvetica,sans-Serif" font-size="10.00">Kit/Itc/ResponseMessage.h</text>
</a>
</g>
</g>
<!-- Node10&#45;&gt;Node11 -->
<g id="edge11_Node000010_Node000011" class="edge">
<title>Node10&#45;&gt;Node11</title>
<g id="a_edge11_Node000010_Node000011"><a xlink:title=" ">
<path fill="none" stroke="#63b8ff" d="M839.09,-330.58C839.46,-318.63 839.93,-303.72 840.22,-294.41"/>
<polygon fill="#63b8ff" stroke="#63b8ff" points="835.58,-330.76 838.77,-340.87 842.58,-330.98 835.58,-330.76"/>
</a>
</g>
</g>
<!-- Node12 -->
<g id="Node000012" class="node">
<title>Node12</title>
<g id="a_Node000012"><a xlink:href="_erase_request_8h.html" target="_top" xlink:title=" ">
<polygon fill="white" stroke="#666666" points="1301,-217 1120,-217 1120,-198 1301,-198 1301,-217"/>
<text text-anchor="middle" x="1210.5" y="-205" font-family="Helvetica,sans-Serif" font-size="10.00">Kit/Dm/Persistent/EraseRequest.h</text>
</a>
</g>
</g>
<!-- Node11&#45;&gt;Node12 -->
<g id="edge12_Node000011_Node000012" class="edge">
<title>Node11&#45;&gt;Node12</title>
<g id="a_edge12_Node000011_Node000012"><a xlink:title=" ">
<path fill="none" stroke="#63b8ff" d="M892.61,-272.94C966.54,-257.95 1100.46,-230.8 1168.46,-217.02"/>
<polygon fill="#63b8ff" stroke="#63b8ff" points="891.69,-269.55 882.58,-274.97 893.08,-276.41 891.69,-269.55"/>
</a>
</g>
</g>
<!-- Node14 -->
<g id="Node000014" class="node">
<title>Node14</title>
<g id="a_Node000014"><a xlink:href="_flush_request_8h.html" target="_top" xlink:title=" ">
<polygon fill="white" stroke="#666666" points="1101.5,-217 921.5,-217 921.5,-198 1101.5,-198 1101.5,-217"/>
<text text-anchor="middle" x="1011.5" y="-205" font-family="Helvetica,sans-Serif" font-size="10.00">Kit/Dm/Persistent/FlushRequest.h</text>
</a>
</g>
</g>
<!-- Node11&#45;&gt;Node14 -->
<g id="edge14_Node000011_Node000014" class="edge">
<title>Node11&#45;&gt;Node14</title>
<g id="a_edge14_Node000011_Node000014"><a xlink:title=" ">
<path fill="none" stroke="#63b8ff" d="M869.31,-270.86C904.23,-255.55 962.1,-230.17 992.11,-217"/>
<polygon fill="#63b8ff" stroke="#63b8ff" points="867.87,-267.67 860.12,-274.9 870.68,-274.09 867.87,-267.67"/>
</a>
</g>
</g>
<!-- Node15 -->
<g id="Node000015" class="node">
<title>Node15</title>
<g id="a_Node000015"><a xlink:href="_i_close_request_8h.html" target="_top" xlink:title=" ">
<polygon fill="white" stroke="#666666" points="903,-217 776,-217 776,-198 903,-198 903,-217"/>
<text text-anchor="middle" x="839.5" y="-205" font-family="Helvetica,sans-Serif" font-size="10.00">Kit/Itc/ICloseRequest.h</text>
</a>
</g>
</g>
<!-- Node11&#45;&gt;Node15 -->
<g id="edge16_Node000011_Node000015" class="edge">
<title>Node11&#45;&gt;Node15</title>
<g id="a_edge16_Node000011_Node000015"><a xlink:title=" ">
<path fill="none" stroke="#63b8ff" d="M840.25,-264.52C840.04,-249.24 839.77,-228.48 839.61,-217"/>
<polygon fill="#63b8ff" stroke="#63b8ff" points="836.75,-264.94 840.39,-274.9 843.75,-264.85 836.75,-264.94"/>
</a>
</g>
</g>
<!-- Node19 -->
<g id="Node000019" class="node">
<title>Node19</title>
<g id="a_Node000019"><a xlink:href="_i_open_request_8h.html" target="_top" xlink:title=" ">
<polygon fill="white" stroke="#666666" points="758,-217 633,-217 633,-198 758,-198 758,-217"/>
<text text-anchor="middle" x="695.5" y="-205" font-family="Helvetica,sans-Serif" font-size="10.00">Kit/Itc/IOpenRequest.h</text>
</a>
</g>
</g>
<!-- Node11&#45;&gt;Node19 -->
<g id="edge26_Node000011_Node000019" class="edge">
<title>Node11&#45;&gt;Node19</title>
<g id="a_edge26_Node000011_Node000019"><a xlink:title=" ">
<path fill="none" stroke="#63b8ff" d="M814.92,-270.27C785.21,-254.9 737.06,-230 711.94,-217"/>
<polygon fill="#63b8ff" stroke="#63b8ff" points="813.38,-273.41 823.87,-274.9 816.59,-267.19 813.38,-273.41"/>
</a>
</g>
</g>
<!-- Node13 -->
<g id="Node000013" class="node">
<title>Node13</title>
<g id="a_Node000013"><a xlink:href="_record_8h.html" target="_top" xlink:title=" ">
<polygon fill="white" stroke="#666666" points="1184.5,-151 1036.5,-151 1036.5,-132 1184.5,-132 1184.5,-151"/>
<text text-anchor="middle" x="1110.5" y="-139" font-family="Helvetica,sans-Serif" font-size="10.00">Kit/Dm/Persistent/Record.h</text>
</a>
</g>
</g>
<!-- Node12&#45;&gt;Node13 -->
<g id="edge13_Node000012_Node000013" class="edge">
<title>Node12&#45;&gt;Node13</title>
<g id="a_edge13_Node000012_Node000013"><a xlink:title=" ">
<path fill="none" stroke="#63b8ff" d="M1188.39,-192.35C1168.73,-179.77 1140.62,-161.78 1124.09,-151.2"/>
<polygon fill="#63b8ff" stroke="#63b8ff" points="1186.7,-195.43 1197.01,-197.87 1190.48,-189.53 1186.7,-195.43"/>
</a>
</g>
</g>
<!-- Node14&#45;&gt;Node13 -->
<g id="edge15_Node000014_Node000013" class="edge">
<title>Node14&#45;&gt;Node13</title>
<g id="a_edge15_Node000014_Node000013"><a xlink:title=" ">
<path fill="none" stroke="#63b8ff" d="M1033.39,-192.35C1052.85,-179.77 1080.68,-161.78 1097.04,-151.2"/>
<polygon fill="#63b8ff" stroke="#63b8ff" points="1031.35,-189.5 1024.85,-197.87 1035.15,-195.38 1031.35,-189.5"/>
</a>
</g>
</g>
<!-- Node16 -->
<g id="Node000016" class="node">
<title>Node16</title>
<g id="a_Node000016"><a xlink:href="_open_close_sync_8h.html" target="_top" xlink:title=" ">
<polygon fill="white" stroke="#666666" points="700,-96 567,-96 567,-77 700,-77 700,-96"/>
<text text-anchor="middle" x="633.5" y="-84" font-family="Helvetica,sans-Serif" font-size="10.00">Kit/Itc/OpenCloseSync.h</text>
</a>
</g>
</g>
<!-- Node15&#45;&gt;Node16 -->
<g id="edge17_Node000015_Node000016" class="edge">
<title>Node15&#45;&gt;Node16</title>
<g id="a_edge17_Node000015_Node000016"><a xlink:title=" ">
<path fill="none" stroke="#63b8ff" d="M815.81,-192.81C772.98,-168.07 683.85,-116.59 648.46,-96.14"/>
<polygon fill="#63b8ff" stroke="#63b8ff" points="814.28,-195.97 824.68,-197.94 817.78,-189.91 814.28,-195.97"/>
</a>
</g>
</g>
<!-- Node16&#45;&gt;Node2 -->
<g id="edge18_Node000016_Node000002" class="edge">
<title>Node16&#45;&gt;Node2</title>
<g id="a_edge18_Node000016_Node000002"><a xlink:title=" ">
<path fill="none" stroke="#63b8ff" d="M556.71,-80.02C467.97,-73.18 317.71,-60.01 189.5,-41 186.73,-40.59 183.91,-40.15 181.08,-39.7"/>
<polygon fill="#63b8ff" stroke="#63b8ff" points="556.45,-83.51 566.69,-80.78 556.98,-76.53 556.45,-83.51"/>
</a>
</g>
</g>
<!-- Node16&#45;&gt;Node3 -->
<g id="edge19_Node000016_Node000003" class="edge">
<title>Node16&#45;&gt;Node3</title>
<g id="a_edge19_Node000016_Node000003"><a xlink:title=" ">
<path fill="none" stroke="#63b8ff" d="M572.78,-75.17C521.9,-66.41 447.38,-53.34 382.5,-41 379.74,-40.48 376.94,-39.94 374.12,-39.39"/>
<polygon fill="#63b8ff" stroke="#63b8ff" points="572.5,-78.68 582.95,-76.92 573.69,-71.78 572.5,-78.68"/>
</a>
</g>
</g>
<!-- Node16&#45;&gt;Node4 -->
<g id="edge20_Node000016_Node000004" class="edge">
<title>Node16&#45;&gt;Node4</title>
<g id="a_edge20_Node000016_Node000004"><a xlink:title=" ">
<path fill="none" stroke="#63b8ff" d="M601.39,-73.19C577.61,-64.08 544.75,-51.49 517.41,-41.01"/>
<polygon fill="#63b8ff" stroke="#63b8ff" points="600.39,-76.56 610.98,-76.87 602.89,-70.02 600.39,-76.56"/>
</a>
</g>
</g>
<!-- Node16&#45;&gt;Node5 -->
<g id="edge21_Node000016_Node000005" class="edge">
<title>Node16&#45;&gt;Node5</title>
<g id="a_edge21_Node000016_Node000005"><a xlink:title=" ">
<path fill="none" stroke="#63b8ff" d="M633.5,-66.63C633.5,-58.56 633.5,-49.15 633.5,-41.01"/>
<polygon fill="#63b8ff" stroke="#63b8ff" points="630,-66.87 633.5,-76.87 637,-66.87 630,-66.87"/>
</a>
</g>
</g>
<!-- Node16&#45;&gt;Node6 -->
<g id="edge22_Node000016_Node000006" class="edge">
<title>Node16&#45;&gt;Node6</title>
<g id="a_edge22_Node000016_Node000006"><a xlink:title=" ">
<path fill="none" stroke="#63b8ff" d="M665.61,-73.19C689.39,-64.08 722.25,-51.49 749.59,-41.01"/>
<polygon fill="#63b8ff" stroke="#63b8ff" points="664.11,-70.02 656.02,-76.87 666.61,-76.56 664.11,-70.02"/>
</a>
</g>
</g>
<!-- Node16&#45;&gt;Node8 -->
<g id="edge23_Node000016_Node000008" class="edge">
<title>Node16&#45;&gt;Node8</title>
<g id="a_edge23_Node000016_Node000008"><a xlink:title=" ">
<path fill="none" stroke="#63b8ff" d="M695.98,-75.3C746.66,-66.81 819.86,-54.04 883.5,-41 886.58,-40.37 889.72,-39.71 892.89,-39.03"/>
<polygon fill="#63b8ff" stroke="#63b8ff" points="695.13,-71.9 685.84,-77 696.28,-78.8 695.13,-71.9"/>
</a>
</g>
</g>
<!-- Node16&#45;&gt;Node17 -->
<g id="edge24_Node000016_Node000017" class="edge">
<title>Node16&#45;&gt;Node17</title>
<g id="a_edge24_Node000016_Node000017"><a xlink:title=" ">
<path fill="none" stroke="#63b8ff" d="M710.29,-79.06C860.77,-66.44 1191.95,-38.66 1331.97,-26.91"/>
<polygon fill="#63b8ff" stroke="#63b8ff" points="709.88,-75.58 700.21,-79.9 710.47,-82.56 709.88,-75.58"/>
</a>
</g>
</g>
<!-- Node18 -->
<g id="Node000018" class="node">
<title>Node18</title>
<g id="a_Node000018"><a xlink:href="helpers_8h.html" target="_top" xlink:title="This file defines helper functions/interface for writing unit tests.">
<polygon fill="white" stroke="#666666" points="1765.5,-35.5 1653.5,-35.5 1653.5,-5.5 1765.5,-5.5 1765.5,-35.5"/>
<text text-anchor="start" x="1661.5" y="-23.5" font-family="Helvetica,sans-Serif" font-size="10.00">Kit/_support/testing</text>
<text text-anchor="middle" x="1709.5" y="-12.5" font-family="Helvetica,sans-Serif" font-size="10.00">/helpers.h</text>
</a>
</g>
</g>
<!-- Node16&#45;&gt;Node18 -->
<g id="edge25_Node000016_Node000018" class="edge">
<title>Node16&#45;&gt;Node18</title>
<g id="a_edge25_Node000016_Node000018"><a xlink:title=" ">
<path fill="none" stroke="#63b8ff" d="M710.47,-82.12C857.87,-75.49 1190.16,-59.78 1469.5,-41 1532.48,-36.77 1604.66,-30.74 1653.28,-26.51"/>
<polygon fill="#63b8ff" stroke="#63b8ff" points="710.02,-78.64 700.18,-82.58 710.33,-85.63 710.02,-78.64"/>
</a>
</g>
</g>
<!-- Node19&#45;&gt;Node20 -->
<g id="edge27_Node000019_Node000020" class="edge">
<title>Node19&#45;&gt;Node20</title>
<g id="a_edge27_Node000019_Node000020"><a xlink:title=" ">
<path fill="none" stroke="#63b8ff" d="M675.79,-191.83C658.93,-179.28 635.21,-161.63 621.19,-151.2"/>
<polygon fill="#63b8ff" stroke="#63b8ff" points="673.79,-194.71 683.9,-197.87 677.97,-189.09 673.79,-194.71"/>
</a>
</g>
</g>
<!-- Node20&#45;&gt;Node16 -->
<g id="edge28_Node000020_Node000016" class="edge">
<title>Node20&#45;&gt;Node16</title>
<g id="a_edge28_Node000020_Node000016"><a xlink:title=" ">
<path fill="none" stroke="#63b8ff" d="M617.64,-122.53C621.68,-113.6 626.38,-103.22 629.61,-96.09"/>
<polygon fill="#63b8ff" stroke="#63b8ff" points="614.4,-121.19 613.46,-131.75 620.78,-124.08 614.4,-121.19"/>
</a>
</g>
</g>
<!-- Node22 -->
<g id="Node000022" class="node">
<title>Node22</title>
<g id="a_Node000022"><a xlink:href="src_2_kit_2_event_queue_2_server_8h.html" target="_top" xlink:title=" ">
<polygon fill="white" stroke="#666666" points="1844,-360 1709,-360 1709,-341 1844,-341 1844,-360"/>
<text text-anchor="middle" x="1776.5" y="-348" font-family="Helvetica,sans-Serif" font-size="10.00">Kit/EventQueue/Server.h</text>
</a>
</g>
</g>
<!-- Node21&#45;&gt;Node22 -->
<g id="edge30_Node000021_Node000022" class="edge">
<title>Node21&#45;&gt;Node22</title>
<g id="a_edge30_Node000021_Node000022"><a xlink:title=" ">
<path fill="none" stroke="#63b8ff" d="M1766.1,-385.95C1768.76,-377.15 1771.8,-367.06 1773.91,-360.09"/>
<polygon fill="#63b8ff" stroke="#63b8ff" points="1762.68,-385.16 1763.14,-395.75 1769.38,-387.19 1762.68,-385.16"/>
</a>
</g>
</g>
<!-- Node22&#45;&gt;Node18 -->
<g id="edge32_Node000022_Node000018" class="edge">
<title>Node22&#45;&gt;Node18</title>
<g id="a_edge32_Node000022_Node000018"><a xlink:title=" ">
<path fill="none" stroke="#63b8ff" d="M1817.55,-337.29C1834.16,-330.37 1852.07,-320 1863.5,-305 1890.05,-270.16 1883.5,-252.3 1883.5,-208.5 1883.5,-208.5 1883.5,-208.5 1883.5,-140.5 1883.5,-82.31 1816.38,-50.5 1765.51,-34.74"/>
<polygon fill="#63b8ff" stroke="#63b8ff" points="1816.05,-334.12 1807.98,-340.98 1818.57,-340.65 1816.05,-334.12"/>
</a>
</g>
</g>
<!-- Node23 -->
<g id="Node000023" class="node">
<title>Node23</title>
<g id="a_Node000023"><a xlink:href="_with_periodic_scheduling_8h.html" target="_top" xlink:title=" ">
<polygon fill="white" stroke="#666666" points="1855,-299.5 1698,-299.5 1698,-269.5 1855,-269.5 1855,-299.5"/>
<text text-anchor="start" x="1706" y="-287.5" font-family="Helvetica,sans-Serif" font-size="10.00">Kit/EventQueue/WithPeriodic</text>
<text text-anchor="middle" x="1776.5" y="-276.5" font-family="Helvetica,sans-Serif" font-size="10.00">Scheduling.h</text>
</a>
</g>
</g>
<!-- Node22&#45;&gt;Node23 -->
<g id="edge31_Node000022_Node000023" class="edge">
<title>Node22&#45;&gt;Node23</title>
<g id="a_edge31_Node000022_Node000023"><a xlink:title=" ">
<path fill="none" stroke="#63b8ff" d="M1776.5,-330.85C1776.5,-320.97 1776.5,-309.01 1776.5,-299.86"/>
<polygon fill="#63b8ff" stroke="#63b8ff" points="1773,-330.87 1776.5,-340.87 1780,-330.87 1773,-330.87"/>
</a>
</g>
</g>
<!-- Node24&#45;&gt;Node12 -->
<g id="edge37_Node000024_Node000012" class="edge">
<title>Node24&#45;&gt;Node12</title>
<g id="a_edge37_Node000024_Node000012"><a xlink:title=" ">
<path fill="none" stroke="#63b8ff" d="M1041.14,-399.24C1068.34,-393.78 1100.99,-382.66 1121.5,-360 1150.94,-327.47 1121.44,-301.33 1144.5,-264 1157.25,-243.37 1180.29,-226.62 1195.49,-217.11"/>
<polygon fill="#63b8ff" stroke="#63b8ff" points="1040.24,-395.84 1031.03,-401.07 1041.49,-402.73 1040.24,-395.84"/>
</a>
</g>
</g>
<!-- Node24&#45;&gt;Node14 -->
<g id="edge38_Node000024_Node000014" class="edge">
<title>Node24&#45;&gt;Node14</title>
<g id="a_edge38_Node000024_Node000014"><a xlink:title=" ">
<path fill="none" stroke="#63b8ff" d="M978.81,-387.85C972.82,-379.98 966.59,-370.1 963.5,-360 961.03,-351.92 962.04,-349.32 963.5,-341 972.05,-292.32 996.99,-237.97 1007.13,-217.2"/>
<polygon fill="#63b8ff" stroke="#63b8ff" points="976.26,-390.26 985.29,-395.8 981.68,-385.84 976.26,-390.26"/>
</a>
</g>
</g>
<!-- Node24&#45;&gt;Node15 -->
<g id="edge41_Node000024_Node000015" class="edge">
<title>Node24&#45;&gt;Node15</title>
<g id="a_edge41_Node000024_Node000015"><a xlink:title=" ">
<path fill="none" stroke="#63b8ff" d="M945.65,-402.71C882.29,-399.22 775.71,-389.07 751.5,-360 739.17,-345.2 716.05,-335.27 757.5,-264 770.81,-241.12 797.78,-225.68 817.16,-217.01"/>
<polygon fill="#63b8ff" stroke="#63b8ff" points="945.64,-406.21 955.81,-403.23 946,-399.22 945.64,-406.21"/>
</a>
</g>
</g>
<!-- Node24&#45;&gt;Node19 -->
<g id="edge42_Node000024_Node000019" class="edge">
<title>Node24&#45;&gt;Node19</title>
<g id="a_edge42_Node000024_Node000019"><a xlink:title=" ">
<path fill="none" stroke="#63b8ff" d="M945.63,-402.19C879.36,-398.04 764.34,-387.06 733.5,-360 690.29,-322.08 692.59,-243.07 694.65,-217.03"/>
<polygon fill="#63b8ff" stroke="#63b8ff" points="945.63,-405.7 955.83,-402.8 946.05,-398.71 945.63,-405.7"/>
</a>
</g>
</g>
<!-- Node25 -->
<g id="Node000025" class="node">
<title>Node25</title>
<g id="a_Node000025"><a xlink:href="_i_rate_request_8h.html" target="_top" xlink:title=" ">
<polygon fill="white" stroke="#666666" points="1497.5,-305 1323.5,-305 1323.5,-264 1497.5,-264 1497.5,-305"/>
<text text-anchor="start" x="1331.5" y="-293" font-family="Helvetica,sans-Serif" font-size="10.00">/home/runner/work/kit.core</text>
<text text-anchor="start" x="1331.5" y="-282" font-family="Helvetica,sans-Serif" font-size="10.00">/kit.core/projects/examples</text>
<text text-anchor="middle" x="1410.5" y="-271" font-family="Helvetica,sans-Serif" font-size="10.00">/Itc/Synchronous/IRateRequest.h</text>
</a>
</g>
</g>
<!-- Node24&#45;&gt;Node25 -->
<g id="edge35_Node000024_Node000025" class="edge">
<title>Node24&#45;&gt;Node25</title>
<g id="a_edge35_Node000024_Node000025"><a xlink:title=" ">
<path fill="none" stroke="#63b8ff" d="M1041,-394.39C1079.18,-385.99 1134.07,-373.3 1181.5,-360 1241.28,-343.23 1308.76,-320.85 1354.89,-305.01"/>
<polygon fill="#63b8ff" stroke="#63b8ff" points="1040.21,-390.98 1031.19,-396.53 1041.7,-397.82 1040.21,-390.98"/>
</a>
</g>
</g>
<!-- Node26 -->
<g id="Node000026" class="node">
<title>Node26</title>
<g id="a_Node000026"><a xlink:href="_i_listener_client_request_8h.html" target="_top" xlink:title=" ">
<polygon fill="white" stroke="#666666" points="1305,-299.5 1154,-299.5 1154,-269.5 1305,-269.5 1305,-299.5"/>
<text text-anchor="start" x="1162" y="-287.5" font-family="Helvetica,sans-Serif" font-size="10.00">Kit/Io/Socket/IListenerClient</text>
<text text-anchor="middle" x="1229.5" y="-276.5" font-family="Helvetica,sans-Serif" font-size="10.00">Request.h</text>
</a>
</g>
</g>
<!-- Node24&#45;&gt;Node26 -->
<g id="edge39_Node000024_Node000026" class="edge">
<title>Node24&#45;&gt;Node26</title>
<g id="a_edge39_Node000024_Node000026"><a xlink:title=" ">
<path fill="none" stroke="#63b8ff" d="M1041.07,-397.92C1074.52,-391.78 1119.38,-380.38 1154.5,-360 1181.48,-344.34 1205.7,-316.62 1218.93,-299.77"/>
<polygon fill="#63b8ff" stroke="#63b8ff" points="1040.33,-394.5 1031.08,-399.67 1041.54,-401.4 1040.33,-394.5"/>
</a>
</g>
</g>
<!-- Node27 -->
<g id="Node000027" class="node">
<title>Node27</title>
<g id="a_Node000027"><a xlink:href="_request_message_8h.html" target="_top" xlink:title=" ">
<polygon fill="white" stroke="#666666" points="1112.5,-360 972.5,-360 972.5,-341 1112.5,-341 1112.5,-360"/>
<text text-anchor="middle" x="1042.5" y="-348" font-family="Helvetica,sans-Serif" font-size="10.00">Kit/Itc/RequestMessage.h</text>
</a>
</g>
</g>
<!-- Node24&#45;&gt;Node27 -->
<g id="edge43_Node000024_Node000027" class="edge">
<title>Node24&#45;&gt;Node27</title>
<g id="a_edge43_Node000024_Node000027"><a xlink:title=" ">
<path fill="none" stroke="#63b8ff" d="M1008.53,-388.24C1017.12,-378.95 1027.54,-367.68 1034.56,-360.09"/>
<polygon fill="#63b8ff" stroke="#63b8ff" points="1005.81,-386.03 1001.59,-395.75 1010.95,-390.78 1005.81,-386.03"/>
</a>
</g>
</g>
<!-- Node25&#45;&gt;Node7 -->
<g id="edge36_Node000025_Node000007" class="edge">
<title>Node25&#45;&gt;Node7</title>
<g id="a_edge36_Node000025_Node000007"><a xlink:title=" ">
<path fill="none" stroke="#63b8ff" d="M1459.29,-259.59C1480.05,-249.41 1503.96,-237.69 1523.63,-228.04"/>
<polygon fill="#63b8ff" stroke="#63b8ff" points="1457.74,-256.45 1450.3,-263.99 1460.82,-262.73 1457.74,-256.45"/>
</a>
</g>
</g>
<!-- Node26&#45;&gt;Node9 -->
<g id="edge40_Node000026_Node000009" class="edge">
<title>Node26&#45;&gt;Node9</title>
<g id="a_edge40_Node000026_Node000009"><a xlink:title=" ">
<path fill="none" stroke="#63b8ff" d="M1269.7,-265.12C1298.42,-251.98 1336.49,-234.57 1362.79,-222.54"/>
<polygon fill="#63b8ff" stroke="#63b8ff" points="1267.99,-262.05 1260.35,-269.39 1270.9,-268.42 1267.99,-262.05"/>
</a>
</g>
</g>
<!-- Node27&#45;&gt;Node11 -->
<g id="edge50_Node000027_Node000011" class="edge">
<title>Node27&#45;&gt;Node11</title>
<g id="a_edge50_Node000027_Node000011"><a xlink:title=" ">
<path fill="none" stroke="#63b8ff" d="M1005.65,-337.82C965.8,-325.2 903.22,-305.37 867.63,-294.1"/>
<polygon fill="#63b8ff" stroke="#63b8ff" points="1004.67,-341.18 1015.26,-340.87 1006.78,-334.51 1004.67,-341.18"/>
</a>
</g>
</g>
<!-- Node27&#45;&gt;Node12 -->
<g id="edge45_Node000027_Node000012" class="edge">
<title>Node27&#45;&gt;Node12</title>
<g id="a_edge45_Node000027_Node000012"><a xlink:title=" ">
<path fill="none" stroke="#63b8ff" d="M1053.49,-332.25C1065.91,-313.72 1087.55,-284.23 1111.5,-264 1135.89,-243.4 1169.05,-226.65 1190.12,-217.12"/>
<polygon fill="#63b8ff" stroke="#63b8ff" points="1050.42,-330.55 1047.87,-340.83 1056.28,-334.38 1050.42,-330.55"/>
</a>
</g>
</g>
<!-- Node27&#45;&gt;Node14 -->
<g id="edge46_Node000027_Node000014" class="edge">
<title>Node27&#45;&gt;Node14</title>
<g id="a_edge46_Node000027_Node000014"><a xlink:title=" ">
<path fill="none" stroke="#63b8ff" d="M1038.39,-330.79C1031.62,-300.02 1018.4,-239.87 1013.44,-217.32"/>
<polygon fill="#63b8ff" stroke="#63b8ff" points="1035,-331.66 1040.56,-340.68 1041.83,-330.16 1035,-331.66"/>
</a>
</g>
</g>
<!-- Node27&#45;&gt;Node15 -->
<g id="edge48_Node000027_Node000015" class="edge">
<title>Node27&#45;&gt;Node15</title>
<g id="a_edge48_Node000027_Node000015"><a xlink:title=" ">
<path fill="none" stroke="#63b8ff" d="M1022.66,-334.88C999.17,-317.66 958.79,-288.32 923.5,-264 898.89,-247.04 869.68,-227.97 852.99,-217.18"/>
<polygon fill="#63b8ff" stroke="#63b8ff" points="1020.65,-337.75 1030.79,-340.85 1024.8,-332.11 1020.65,-337.75"/>
</a>
</g>
</g>
<!-- Node27&#45;&gt;Node19 -->
<g id="edge49_Node000027_Node000019" class="edge">
<title>Node27&#45;&gt;Node19</title>
<g id="a_edge49_Node000027_Node000019"><a xlink:title=" ">
<path fill="none" stroke="#63b8ff" d="M962.2,-344.29C890.01,-338.31 790.41,-326.44 757.5,-305 724.13,-283.26 705.06,-236.59 698.31,-217.21"/>
<polygon fill="#63b8ff" stroke="#63b8ff" points="961.95,-347.78 972.2,-345.1 962.51,-340.81 961.95,-347.78"/>
</a>
</g>
</g>
<!-- Node27&#45;&gt;Node25 -->
<g id="edge44_Node000027_Node000025" class="edge">
<title>Node27&#45;&gt;Node25</title>
<g id="a_edge44_Node000027_Node000025"><a xlink:title=" ">
<path fill="none" stroke="#63b8ff" d="M1107.83,-339.44C1162.79,-330.82 1243.4,-317.8 1313.5,-305 1316.71,-304.41 1319.98,-303.81 1323.28,-303.19"/>
<polygon fill="#63b8ff" stroke="#63b8ff" points="1107.21,-335.99 1097.88,-341 1108.3,-342.91 1107.21,-335.99"/>
</a>
</g>
</g>
<!-- Node27&#45;&gt;Node26 -->
<g id="edge47_Node000027_Node000026" class="edge">
<title>Node27&#45;&gt;Node26</title>
<g id="a_edge47_Node000027_Node000026"><a xlink:title=" ">
<path fill="none" stroke="#63b8ff" d="M1077.36,-337.57C1108.78,-326.81 1155.01,-310.99 1188.26,-299.62"/>
<polygon fill="#63b8ff" stroke="#63b8ff" points="1076.05,-334.32 1067.72,-340.87 1078.31,-340.94 1076.05,-334.32"/>
</a>
</g>
</g>
</g>
</svg>
