<?xml version="1.0" encoding="UTF-8" standalone="no"?>
<!DOCTYPE svg PUBLIC "-//W3C//DTD SVG 1.1//EN"
 "http://www.w3.org/Graphics/SVG/1.1/DTD/svg11.dtd">
<!-- Generated by graphviz version 2.43.0 (0)
 -->
<!-- Title: Kit/EventQueue/IQueue.h Pages: 1 -->
<svg width="1148pt" height="456pt"
 viewBox="0.00 0.00 1148.00 456.00" xmlns="http://www.w3.org/2000/svg" xmlns:xlink="http://www.w3.org/1999/xlink">
<g id="graph0" class="graph" transform="scale(1 1) rotate(0) translate(4 452)">
<title>Kit/EventQueue/IQueue.h</title>
<!-- Node1 -->
<g id="Node000001" class="node">
<title>Node1</title>
<g id="a_Node000001"><a xlink:title=" ">
<polygon fill="#999999" stroke="#666666" points="796.5,-448 657.5,-448 657.5,-429 796.5,-429 796.5,-448"/>
<text text-anchor="middle" x="727" y="-436" font-family="Helvetica,sans-Serif" font-size="10.00">Kit/EventQueue/IQueue.h</text>
</a>
</g>
</g>
<!-- Node2 -->
<g id="Node000002" class="node">
<title>Node2</title>
<g id="a_Node000002"><a xlink:href="_client_8h.html" target="_top" xlink:title=" ">
<polygon fill="white" stroke="#666666" points="228.5,-41 79.5,-41 79.5,0 228.5,0 228.5,-41"/>
<text text-anchor="start" x="87.5" y="-29" font-family="Helvetica,sans-Serif" font-size="10.00">/home/runner/work/kit.core</text>
<text text-anchor="start" x="87.5" y="-18" font-family="Helvetica,sans-Serif" font-size="10.00">/kit.core/projects/examples</text>
<text text-anchor="middle" x="154" y="-7" font-family="Helvetica,sans-Serif" font-size="10.00">/Dm/Transaction/Client.h</text>
</a>
</g>
</g>
<!-- Node1&#45;&gt;Node2 -->
<g id="edge1_Node000001_Node000002" class="edge">
<title>Node1&#45;&gt;Node2</title>
<g id="a_edge1_Node000001_Node000002"><a xlink:title=" ">
<path fill="none" stroke="#63b8ff" d="M647.31,-435.09C508.83,-430.31 229.51,-417.87 135,-393 70.88,-376.12 0,-395.81 0,-329.5 0,-329.5 0,-329.5 0,-140.5 0,-91 50.43,-59.18 93.58,-41.02"/>
<polygon fill="#63b8ff" stroke="#63b8ff" points="647.33,-438.6 657.44,-435.44 647.57,-431.6 647.33,-438.6"/>
</a>
</g>
</g>
<!-- Node3 -->
<g id="Node000003" class="node">
<title>Node3</title>
<g id="a_Node000003"><a xlink:href="projects_2examples_2_dm_2_transaction_2_server_8h.html" target="_top" xlink:title=" ">
<polygon fill="white" stroke="#666666" points="493.5,-41 344.5,-41 344.5,0 493.5,0 493.5,-41"/>
<text text-anchor="start" x="352.5" y="-29" font-family="Helvetica,sans-Serif" font-size="10.00">/home/runner/work/kit.core</text>
<text text-anchor="start" x="352.5" y="-18" font-family="Helvetica,sans-Serif" font-size="10.00">/kit.core/projects/examples</text>
<text text-anchor="middle" x="419" y="-7" font-family="Helvetica,sans-Serif" font-size="10.00">/Dm/Transaction/Server.h</text>
</a>
</g>
</g>
<!-- Node1&#45;&gt;Node3 -->
<g id="edge2_Node000001_Node000003" class="edge">
<title>Node1&#45;&gt;Node3</title>
<g id="a_edge2_Node000001_Node000003"><a xlink:title=" ">
<path fill="none" stroke="#63b8ff" d="M647.45,-433.24C466.18,-422.48 38,-390.59 38,-329.5 38,-329.5 38,-329.5 38,-140.5 38,-77.01 233.22,-43.44 344.18,-29.49"/>
<polygon fill="#63b8ff" stroke="#63b8ff" points="647.27,-436.74 657.46,-433.83 647.69,-429.75 647.27,-436.74"/>
</a>
</g>
</g>
<!-- Node4 -->
<g id="Node000004" class="node">
<title>Node4</title>
<g id="a_Node000004"><a xlink:href="_listener_client_sync_8h.html" target="_top" xlink:title=" ">
<polygon fill="white" stroke="#666666" points="901,-217 753,-217 753,-187 901,-187 901,-217"/>
<text text-anchor="start" x="761" y="-205" font-family="Helvetica,sans-Serif" font-size="10.00">Kit/Io/Socket/ListenerClient</text>
<text text-anchor="middle" x="827" y="-194" font-family="Helvetica,sans-Serif" font-size="10.00">Sync.h</text>
</a>
</g>
</g>
<!-- Node1&#45;&gt;Node4 -->
<g id="edge3_Node000001_Node000004" class="edge">
<title>Node1&#45;&gt;Node4</title>
<g id="a_edge3_Node000001_Node000004"><a xlink:title=" ">
<path fill="none" stroke="#63b8ff" d="M742.9,-421.25C767.46,-394.87 813.63,-339.93 831,-283 837.78,-260.79 834.01,-233.51 830.57,-217.23"/>
<polygon fill="#63b8ff" stroke="#63b8ff" points="740.1,-419.11 735.75,-428.77 745.17,-423.94 740.1,-419.11"/>
</a>
</g>
</g>
<!-- Node5 -->
<g id="Node000005" class="node">
<title>Node5</title>
<g id="a_Node000005"><a xlink:href="_async_return_handler_8h.html" target="_top" xlink:title=" ">
<polygon fill="white" stroke="#666666" points="341,-338 185,-338 185,-319 341,-319 341,-338"/>
<text text-anchor="middle" x="263" y="-326" font-family="Helvetica,sans-Serif" font-size="10.00">Kit/Itc/AsyncReturnHandler.h</text>
</a>
</g>
</g>
<!-- Node1&#45;&gt;Node5 -->
<g id="edge4_Node000001_Node000005" class="edge">
<title>Node1&#45;&gt;Node5</title>
<g id="a_edge4_Node000001_Node000005"><a xlink:title=" ">
<path fill="none" stroke="#63b8ff" d="M680.3,-426.63C587.9,-405.12 383.48,-357.54 299.8,-338.07"/>
<polygon fill="#63b8ff" stroke="#63b8ff" points="679.67,-430.08 690.2,-428.94 681.26,-423.26 679.67,-430.08"/>
</a>
</g>
</g>
<!-- Node12 -->
<g id="Node000012" class="node">
<title>Node12</title>
<g id="a_Node000012"><a xlink:href="_log_sink_8h.html" target="_top" xlink:title=" ">
<polygon fill="white" stroke="#666666" points="1094.5,-35.5 965.5,-35.5 965.5,-5.5 1094.5,-5.5 1094.5,-35.5"/>
<text text-anchor="start" x="973.5" y="-23.5" font-family="Helvetica,sans-Serif" font-size="10.00">Kit/Logging/Framework</text>
<text text-anchor="middle" x="1030" y="-12.5" font-family="Helvetica,sans-Serif" font-size="10.00">/LogSink.h</text>
</a>
</g>
</g>
<!-- Node1&#45;&gt;Node12 -->
<g id="edge38_Node000001_Node000012" class="edge">
<title>Node1&#45;&gt;Node12</title>
<g id="a_edge38_Node000001_Node000012"><a xlink:title=" ">
<path fill="none" stroke="#63b8ff" d="M806.85,-432.84C926.9,-423.62 1140,-397.64 1140,-329.5 1140,-329.5 1140,-329.5 1140,-140.5 1140,-91.83 1089.77,-54.59 1057.19,-35.57"/>
<polygon fill="#63b8ff" stroke="#63b8ff" points="806.3,-429.37 796.59,-433.6 806.83,-436.35 806.3,-429.37"/>
</a>
</g>
</g>
<!-- Node15 -->
<g id="Node000015" class="node">
<title>Node15</title>
<g id="a_Node000015"><a xlink:href="_open_sync_8h.html" target="_top" xlink:title=" ">
<polygon fill="white" stroke="#666666" points="725,-151 619,-151 619,-132 725,-132 725,-151"/>
<text text-anchor="middle" x="672" y="-139" font-family="Helvetica,sans-Serif" font-size="10.00">Kit/Itc/OpenSync.h</text>
</a>
</g>
</g>
<!-- Node1&#45;&gt;Node15 -->
<g id="edge23_Node000001_Node000015" class="edge">
<title>Node1&#45;&gt;Node15</title>
<g id="a_edge23_Node000001_Node000015"><a xlink:title=" ">
<path fill="none" stroke="#63b8ff" d="M750.01,-423.39C762.09,-415.35 776.69,-404.59 788,-393 825.16,-354.93 943.99,-227.93 910,-187 886.97,-159.27 787.99,-148.72 725.15,-144.78"/>
<polygon fill="#63b8ff" stroke="#63b8ff" points="747.87,-420.61 741.37,-428.98 751.66,-426.49 747.87,-420.61"/>
</a>
</g>
</g>
<!-- Node16 -->
<g id="Node000016" class="node">
<title>Node16</title>
<g id="a_Node000016"><a xlink:href="_mailbox_8h.html" target="_top" xlink:title=" ">
<polygon fill="white" stroke="#666666" points="1028,-393 932,-393 932,-374 1028,-374 1028,-393"/>
<text text-anchor="middle" x="980" y="-381" font-family="Helvetica,sans-Serif" font-size="10.00">Kit/Itc/Mailbox.h</text>
</a>
</g>
</g>
<!-- Node1&#45;&gt;Node16 -->
<g id="edge19_Node000001_Node000016" class="edge">
<title>Node1&#45;&gt;Node16</title>
<g id="a_edge19_Node000001_Node000016"><a xlink:title=" ">
<path fill="none" stroke="#63b8ff" d="M777.7,-426.88C825.12,-416.94 895.05,-402.3 939.03,-393.08"/>
<polygon fill="#63b8ff" stroke="#63b8ff" points="776.72,-423.51 767.65,-428.98 778.15,-430.36 776.72,-423.51"/>
</a>
</g>
</g>
<!-- Node19 -->
<g id="Node000019" class="node">
<title>Node19</title>
<g id="a_Node000019"><a xlink:href="_s_a_p_8h.html" target="_top" xlink:title=" ">
<polygon fill="white" stroke="#666666" points="641.5,-393 566.5,-393 566.5,-374 641.5,-374 641.5,-393"/>
<text text-anchor="middle" x="604" y="-381" font-family="Helvetica,sans-Serif" font-size="10.00">Kit/Itc/SAP.h</text>
</a>
</g>
</g>
<!-- Node1&#45;&gt;Node19 -->
<g id="edge24_Node000001_Node000019" class="edge">
<title>Node1&#45;&gt;Node19</title>
<g id="a_edge24_Node000001_Node000019"><a xlink:title=" ">
<path fill="none" stroke="#63b8ff" d="M697.75,-424.9C675.03,-415.11 644.13,-401.79 624.12,-393.17"/>
<polygon fill="#63b8ff" stroke="#63b8ff" points="696.67,-428.24 707.24,-428.98 699.44,-421.81 696.67,-428.24"/>
</a>
</g>
</g>
<!-- Node6 -->
<g id="Node000006" class="node">
<title>Node6</title>
<g id="a_Node000006"><a xlink:href="_response_message_8h.html" target="_top" xlink:title=" ">
<polygon fill="white" stroke="#666666" points="462,-277.5 314,-277.5 314,-258.5 462,-258.5 462,-277.5"/>
<text text-anchor="middle" x="388" y="-265.5" font-family="Helvetica,sans-Serif" font-size="10.00">Kit/Itc/ResponseMessage.h</text>
</a>
</g>
</g>
<!-- Node5&#45;&gt;Node6 -->
<g id="edge5_Node000005_Node000006" class="edge">
<title>Node5&#45;&gt;Node6</title>
<g id="a_edge5_Node000005_Node000006"><a xlink:title=" ">
<path fill="none" stroke="#63b8ff" d="M290.49,-314.63C314.6,-303.35 348.96,-287.27 369.8,-277.52"/>
<polygon fill="#63b8ff" stroke="#63b8ff" points="288.75,-311.58 281.18,-318.99 291.72,-317.92 288.75,-311.58"/>
</a>
</g>
</g>
<!-- Node7 -->
<g id="Node000007" class="node">
<title>Node7</title>
<g id="a_Node000007"><a xlink:href="_erase_request_8h.html" target="_top" xlink:title=" ">
<polygon fill="white" stroke="#666666" points="247.5,-211.5 66.5,-211.5 66.5,-192.5 247.5,-192.5 247.5,-211.5"/>
<text text-anchor="middle" x="157" y="-199.5" font-family="Helvetica,sans-Serif" font-size="10.00">Kit/Dm/Persistent/EraseRequest.h</text>
</a>
</g>
</g>
<!-- Node6&#45;&gt;Node7 -->
<g id="edge6_Node000006_Node000007" class="edge">
<title>Node6&#45;&gt;Node7</title>
<g id="a_edge6_Node000006_Node000007"><a xlink:title=" ">
<path fill="none" stroke="#63b8ff" d="M347.01,-255.64C301.5,-243.03 229.07,-222.97 188.03,-211.6"/>
<polygon fill="#63b8ff" stroke="#63b8ff" points="346.27,-259.07 356.85,-258.37 348.14,-252.33 346.27,-259.07"/>
</a>
</g>
</g>
<!-- Node9 -->
<g id="Node000009" class="node">
<title>Node9</title>
<g id="a_Node000009"><a xlink:href="_flush_request_8h.html" target="_top" xlink:title=" ">
<polygon fill="white" stroke="#666666" points="446,-211.5 266,-211.5 266,-192.5 446,-192.5 446,-211.5"/>
<text text-anchor="middle" x="356" y="-199.5" font-family="Helvetica,sans-Serif" font-size="10.00">Kit/Dm/Persistent/FlushRequest.h</text>
</a>
</g>
</g>
<!-- Node6&#45;&gt;Node9 -->
<g id="edge8_Node000006_Node000009" class="edge">
<title>Node6&#45;&gt;Node9</title>
<g id="a_edge8_Node000006_Node000009"><a xlink:title=" ">
<path fill="none" stroke="#63b8ff" d="M379.09,-249.18C373.03,-237.05 365.25,-221.51 360.45,-211.91"/>
<polygon fill="#63b8ff" stroke="#63b8ff" points="376.08,-250.99 383.68,-258.37 382.34,-247.86 376.08,-250.99"/>
</a>
</g>
</g>
<!-- Node10 -->
<g id="Node000010" class="node">
<title>Node10</title>
<g id="a_Node000010"><a xlink:href="_i_close_request_8h.html" target="_top" xlink:title=" ">
<polygon fill="white" stroke="#666666" points="591.5,-211.5 464.5,-211.5 464.5,-192.5 591.5,-192.5 591.5,-211.5"/>
<text text-anchor="middle" x="528" y="-199.5" font-family="Helvetica,sans-Serif" font-size="10.00">Kit/Itc/ICloseRequest.h</text>
</a>
</g>
</g>
<!-- Node6&#45;&gt;Node10 -->
<g id="edge10_Node000006_Node000010" class="edge">
<title>Node6&#45;&gt;Node10</title>
<g id="a_edge10_Node000006_Node000010"><a xlink:title=" ">
<path fill="none" stroke="#63b8ff" d="M416.01,-254.19C443.6,-241.58 485,-222.66 508.97,-211.7"/>
<polygon fill="#63b8ff" stroke="#63b8ff" points="414.52,-251.03 406.88,-258.37 417.43,-257.39 414.52,-251.03"/>
</a>
</g>
</g>
<!-- Node14 -->
<g id="Node000014" class="node">
<title>Node14</title>
<g id="a_Node000014"><a xlink:href="_i_open_request_8h.html" target="_top" xlink:title=" ">
<polygon fill="white" stroke="#666666" points="734.5,-211.5 609.5,-211.5 609.5,-192.5 734.5,-192.5 734.5,-211.5"/>
<text text-anchor="middle" x="672" y="-199.5" font-family="Helvetica,sans-Serif" font-size="10.00">Kit/Itc/IOpenRequest.h</text>
</a>
</g>
</g>
<!-- Node6&#45;&gt;Node14 -->
<g id="edge16_Node000006_Node000014" class="edge">
<title>Node6&#45;&gt;Node14</title>
<g id="a_edge16_Node000006_Node000014"><a xlink:title=" ">
<path fill="none" stroke="#63b8ff" d="M436.02,-256.18C491.93,-243.58 583.11,-223.03 634.22,-211.51"/>
<polygon fill="#63b8ff" stroke="#63b8ff" points="434.99,-252.82 426.01,-258.44 436.53,-259.65 434.99,-252.82"/>
</a>
</g>
</g>
<!-- Node8 -->
<g id="Node000008" class="node">
<title>Node8</title>
<g id="a_Node000008"><a xlink:href="_record_8h.html" target="_top" xlink:title=" ">
<polygon fill="white" stroke="#666666" points="330,-151 182,-151 182,-132 330,-132 330,-151"/>
<text text-anchor="middle" x="256" y="-139" font-family="Helvetica,sans-Serif" font-size="10.00">Kit/Dm/Persistent/Record.h</text>
</a>
</g>
</g>
<!-- Node7&#45;&gt;Node8 -->
<g id="edge7_Node000007_Node000008" class="edge">
<title>Node7&#45;&gt;Node8</title>
<g id="a_edge7_Node000007_Node000008"><a xlink:title=" ">
<path fill="none" stroke="#63b8ff" d="M180.23,-187.27C199.13,-176.1 225.22,-160.69 241.33,-151.17"/>
<polygon fill="#63b8ff" stroke="#63b8ff" points="178.44,-184.27 171.61,-192.37 182,-190.29 178.44,-184.27"/>
</a>
</g>
</g>
<!-- Node9&#45;&gt;Node8 -->
<g id="edge9_Node000009_Node000008" class="edge">
<title>Node9&#45;&gt;Node8</title>
<g id="a_edge9_Node000009_Node000008"><a xlink:title=" ">
<path fill="none" stroke="#63b8ff" d="M332.53,-187.27C313.44,-176.1 287.09,-160.69 270.82,-151.17"/>
<polygon fill="#63b8ff" stroke="#63b8ff" points="330.85,-190.34 341.24,-192.37 334.38,-184.3 330.85,-190.34"/>
</a>
</g>
</g>
<!-- Node11 -->
<g id="Node000011" class="node">
<title>Node11</title>
<g id="a_Node000011"><a xlink:href="_open_close_sync_8h.html" target="_top" xlink:title=" ">
<polygon fill="white" stroke="#666666" points="681.5,-96 548.5,-96 548.5,-77 681.5,-77 681.5,-96"/>
<text text-anchor="middle" x="615" y="-84" font-family="Helvetica,sans-Serif" font-size="10.00">Kit/Itc/OpenCloseSync.h</text>
</a>
</g>
</g>
<!-- Node10&#45;&gt;Node11 -->
<g id="edge11_Node000010_Node000011" class="edge">
<title>Node10&#45;&gt;Node11</title>
<g id="a_edge11_Node000010_Node000011"><a xlink:title=" ">
<path fill="none" stroke="#63b8ff" d="M540.67,-184.46C559.44,-159.98 593.95,-114.96 608.38,-96.13"/>
<polygon fill="#63b8ff" stroke="#63b8ff" points="537.84,-182.4 534.54,-192.47 543.4,-186.66 537.84,-182.4"/>
</a>
</g>
</g>
<!-- Node11&#45;&gt;Node2 -->
<g id="edge12_Node000011_Node000002" class="edge">
<title>Node11&#45;&gt;Node2</title>
<g id="a_edge12_Node000011_Node000002"><a xlink:title=" ">
<path fill="none" stroke="#63b8ff" d="M543.16,-75.53C457.62,-63.65 315.46,-43.91 228.68,-31.87"/>
<polygon fill="#63b8ff" stroke="#63b8ff" points="542.92,-79.03 553.31,-76.94 543.88,-72.09 542.92,-79.03"/>
</a>
</g>
</g>
<!-- Node11&#45;&gt;Node3 -->
<g id="edge13_Node000011_Node000003" class="edge">
<title>Node11&#45;&gt;Node3</title>
<g id="a_edge13_Node000011_Node000003"><a xlink:title=" ">
<path fill="none" stroke="#63b8ff" d="M578.8,-73.68C550.79,-64.53 511.41,-51.67 478.75,-41.01"/>
<polygon fill="#63b8ff" stroke="#63b8ff" points="577.97,-77.09 588.57,-76.87 580.15,-70.44 577.97,-77.09"/>
</a>
</g>
</g>
<!-- Node11&#45;&gt;Node12 -->
<g id="edge14_Node000011_Node000012" class="edge">
<title>Node11&#45;&gt;Node12</title>
<g id="a_edge14_Node000011_Node000012"><a xlink:title=" ">
<path fill="none" stroke="#63b8ff" d="M680.72,-75.37C758.65,-63.35 887.73,-43.44 965.24,-31.49"/>
<polygon fill="#63b8ff" stroke="#63b8ff" points="679.89,-71.95 670.54,-76.94 680.95,-78.87 679.89,-71.95"/>
</a>
</g>
</g>
<!-- Node13 -->
<g id="Node000013" class="node">
<title>Node13</title>
<g id="a_Node000013"><a xlink:href="helpers_8h.html" target="_top" xlink:title="This file defines helper functions/interface for writing unit tests.">
<polygon fill="white" stroke="#666666" points="727,-35.5 615,-35.5 615,-5.5 727,-5.5 727,-35.5"/>
<text text-anchor="start" x="623" y="-23.5" font-family="Helvetica,sans-Serif" font-size="10.00">Kit/_support/testing</text>
<text text-anchor="middle" x="671" y="-12.5" font-family="Helvetica,sans-Serif" font-size="10.00">/helpers.h</text>
</a>
</g>
</g>
<!-- Node11&#45;&gt;Node13 -->
<g id="edge15_Node000011_Node000013" class="edge">
<title>Node11&#45;&gt;Node13</title>
<g id="a_edge15_Node000011_Node000013"><a xlink:title=" ">
<path fill="none" stroke="#63b8ff" d="M629.4,-69.04C638.38,-58.78 649.82,-45.7 658.43,-35.86"/>
<polygon fill="#63b8ff" stroke="#63b8ff" points="626.5,-67.04 622.55,-76.87 631.77,-71.65 626.5,-67.04"/>
</a>
</g>
</g>
<!-- Node14&#45;&gt;Node15 -->
<g id="edge17_Node000014_Node000015" class="edge">
<title>Node14&#45;&gt;Node15</title>
<g id="a_edge17_Node000014_Node000015"><a xlink:title=" ">
<path fill="none" stroke="#63b8ff" d="M672,-182.16C672,-171.74 672,-159.3 672,-151.17"/>
<polygon fill="#63b8ff" stroke="#63b8ff" points="668.5,-182.37 672,-192.37 675.5,-182.37 668.5,-182.37"/>
</a>
</g>
</g>
<!-- Node15&#45;&gt;Node11 -->
<g id="edge18_Node000015_Node000011" class="edge">
<title>Node15&#45;&gt;Node11</title>
<g id="a_edge18_Node000015_Node000011"><a xlink:title=" ">
<path fill="none" stroke="#63b8ff" d="M655.38,-125.04C645.27,-115.64 632.72,-103.98 624.32,-96.17"/>
<polygon fill="#63b8ff" stroke="#63b8ff" points="653.14,-127.74 662.84,-131.98 657.9,-122.61 653.14,-127.74"/>
</a>
</g>
</g>
<!-- Node17 -->
<g id="Node000017" class="node">
<title>Node17</title>
<g id="a_Node000017"><a xlink:href="src_2_kit_2_event_queue_2_server_8h.html" target="_top" xlink:title=" ">
<polygon fill="white" stroke="#666666" points="1062.5,-338 927.5,-338 927.5,-319 1062.5,-319 1062.5,-338"/>
<text text-anchor="middle" x="995" y="-326" font-family="Helvetica,sans-Serif" font-size="10.00">Kit/EventQueue/Server.h</text>
</a>
</g>
</g>
<!-- Node16&#45;&gt;Node17 -->
<g id="edge20_Node000016_Node000017" class="edge">
<title>Node16&#45;&gt;Node17</title>
<g id="a_edge20_Node000016_Node000017"><a xlink:title=" ">
<path fill="none" stroke="#63b8ff" d="M985.25,-363.95C987.74,-355.15 990.6,-345.06 992.57,-338.09"/>
<polygon fill="#63b8ff" stroke="#63b8ff" points="981.83,-363.17 982.48,-373.75 988.57,-365.08 981.83,-363.17"/>
</a>
</g>
</g>
<!-- Node17&#45;&gt;Node13 -->
<g id="edge22_Node000017_Node000013" class="edge">
<title>Node17&#45;&gt;Node13</title>
<g id="a_edge22_Node000017_Node000013"><a xlink:title=" ">
<path fill="none" stroke="#63b8ff" d="M1036.31,-315.24C1053.06,-308.3 1071.21,-297.94 1083,-283 1105.63,-254.31 1102,-239.54 1102,-203 1102,-203 1102,-203 1102,-140.5 1102,-63.65 844.17,-34.49 727.35,-25.22"/>
<polygon fill="#63b8ff" stroke="#63b8ff" points="1034.74,-312.09 1026.66,-318.93 1037.25,-318.62 1034.74,-312.09"/>
</a>
</g>
</g>
<!-- Node18 -->
<g id="Node000018" class="node">
<title>Node18</title>
<g id="a_Node000018"><a xlink:href="_with_periodic_scheduling_8h.html" target="_top" xlink:title=" ">
<polygon fill="white" stroke="#666666" points="1073.5,-283 916.5,-283 916.5,-253 1073.5,-253 1073.5,-283"/>
<text text-anchor="start" x="924.5" y="-271" font-family="Helvetica,sans-Serif" font-size="10.00">Kit/EventQueue/WithPeriodic</text>
<text text-anchor="middle" x="995" y="-260" font-family="Helvetica,sans-Serif" font-size="10.00">Scheduling.h</text>
</a>
</g>
</g>
<!-- Node17&#45;&gt;Node18 -->
<g id="edge21_Node000017_Node000018" class="edge">
<title>Node17&#45;&gt;Node18</title>
<g id="a_edge21_Node000017_Node000018"><a xlink:title=" ">
<path fill="none" stroke="#63b8ff" d="M995,-308.65C995,-300.36 995,-290.78 995,-283.11"/>
<polygon fill="#63b8ff" stroke="#63b8ff" points="991.5,-308.87 995,-318.87 998.5,-308.87 991.5,-308.87"/>
</a>
</g>
</g>
<!-- Node19&#45;&gt;Node7 -->
<g id="edge25_Node000019_Node000007" class="edge">
<title>Node19&#45;&gt;Node7</title>
<g id="a_edge25_Node000019_Node000007"><a xlink:title=" ">
<path fill="none" stroke="#63b8ff" d="M556.29,-380.8C450.4,-376.58 202.96,-364 176,-338 140.39,-303.66 150.26,-235.41 155.09,-211.51"/>
<polygon fill="#63b8ff" stroke="#63b8ff" points="556.25,-384.3 566.38,-381.2 556.52,-377.31 556.25,-384.3"/>
</a>
</g>
</g>
<!-- Node19&#45;&gt;Node9 -->
<g id="edge26_Node000019_Node000009" class="edge">
<title>Node19&#45;&gt;Node9</title>
<g id="a_edge26_Node000019_Node000009"><a xlink:title=" ">
<path fill="none" stroke="#63b8ff" d="M556.42,-374.04C479.29,-359.2 332.74,-325.93 305,-283 288.28,-257.13 323.2,-226.37 343.24,-211.66"/>
<polygon fill="#63b8ff" stroke="#63b8ff" points="555.9,-377.5 566.37,-375.93 557.2,-370.63 555.9,-377.5"/>
</a>
</g>
</g>
<!-- Node19&#45;&gt;Node10 -->
<g id="edge29_Node000019_Node000010" class="edge">
<title>Node19&#45;&gt;Node10</title>
<g id="a_edge29_Node000019_Node000010"><a xlink:title=" ">
<path fill="none" stroke="#63b8ff" d="M599.28,-363.79C595.84,-351 590.78,-333.75 585,-319 568.7,-277.43 543.3,-230.39 532.79,-211.51"/>
<polygon fill="#63b8ff" stroke="#63b8ff" points="595.96,-364.92 601.87,-373.72 602.73,-363.16 595.96,-364.92"/>
</a>
</g>
</g>
<!-- Node19&#45;&gt;Node14 -->
<g id="edge30_Node000019_Node000014" class="edge">
<title>Node19&#45;&gt;Node14</title>
<g id="a_edge30_Node000019_Node000014"><a xlink:title=" ">
<path fill="none" stroke="#63b8ff" d="M611,-364.03C625.49,-325.76 658.32,-239.11 668.75,-211.57"/>
<polygon fill="#63b8ff" stroke="#63b8ff" points="607.55,-363.25 607.28,-373.84 614.1,-365.73 607.55,-363.25"/>
</a>
</g>
</g>
<!-- Node20 -->
<g id="Node000020" class="node">
<title>Node20</title>
<g id="a_Node000020"><a xlink:href="_i_listener_client_request_8h.html" target="_top" xlink:title=" ">
<polygon fill="white" stroke="#666666" points="821.5,-283 670.5,-283 670.5,-253 821.5,-253 821.5,-283"/>
<text text-anchor="start" x="678.5" y="-271" font-family="Helvetica,sans-Serif" font-size="10.00">Kit/Io/Socket/IListenerClient</text>
<text text-anchor="middle" x="746" y="-260" font-family="Helvetica,sans-Serif" font-size="10.00">Request.h</text>
</a>
</g>
</g>
<!-- Node19&#45;&gt;Node20 -->
<g id="edge27_Node000019_Node000020" class="edge">
<title>Node19&#45;&gt;Node20</title>
<g id="a_edge27_Node000019_Node000020"><a xlink:title=" ">
<path fill="none" stroke="#63b8ff" d="M622.73,-367.53C650.26,-345.53 701.3,-304.73 728.26,-283.18"/>
<polygon fill="#63b8ff" stroke="#63b8ff" points="620.3,-364.99 614.67,-373.97 624.67,-370.46 620.3,-364.99"/>
</a>
</g>
</g>
<!-- Node21 -->
<g id="Node000021" class="node">
<title>Node21</title>
<g id="a_Node000021"><a xlink:href="_request_message_8h.html" target="_top" xlink:title=" ">
<polygon fill="white" stroke="#666666" points="576,-338 436,-338 436,-319 576,-319 576,-338"/>
<text text-anchor="middle" x="506" y="-326" font-family="Helvetica,sans-Serif" font-size="10.00">Kit/Itc/RequestMessage.h</text>
</a>
</g>
</g>
<!-- Node19&#45;&gt;Node21 -->
<g id="edge31_Node000019_Node000021" class="edge">
<title>Node19&#45;&gt;Node21</title>
<g id="a_edge31_Node000019_Node000021"><a xlink:title=" ">
<path fill="none" stroke="#63b8ff" d="M578.97,-368.97C561.06,-359.28 537.47,-346.52 522.03,-338.17"/>
<polygon fill="#63b8ff" stroke="#63b8ff" points="577.79,-372.31 588.25,-373.98 581.12,-366.15 577.79,-372.31"/>
</a>
</g>
</g>
<!-- Node20&#45;&gt;Node4 -->
<g id="edge28_Node000020_Node000004" class="edge">
<title>Node20&#45;&gt;Node4</title>
<g id="a_edge28_Node000020_Node000004"><a xlink:title=" ">
<path fill="none" stroke="#63b8ff" d="M771.97,-246.48C784.08,-236.91 798.18,-225.77 809.07,-217.16"/>
<polygon fill="#63b8ff" stroke="#63b8ff" points="769.65,-243.85 763.98,-252.8 773.99,-249.34 769.65,-243.85"/>
</a>
</g>
</g>
<!-- Node21&#45;&gt;Node6 -->
<g id="edge37_Node000021_Node000006" class="edge">
<title>Node21&#45;&gt;Node6</title>
<g id="a_edge37_Node000021_Node000006"><a xlink:title=" ">
<path fill="none" stroke="#63b8ff" d="M479.74,-314.48C457,-303.21 424.76,-287.23 405.18,-277.52"/>
<polygon fill="#63b8ff" stroke="#63b8ff" points="478.33,-317.69 488.84,-318.99 481.44,-311.42 478.33,-317.69"/>
</a>
</g>
</g>
<!-- Node21&#45;&gt;Node7 -->
<g id="edge32_Node000021_Node000007" class="edge">
<title>Node21&#45;&gt;Node7</title>
<g id="a_edge32_Node000021_Node000007"><a xlink:title=" ">
<path fill="none" stroke="#63b8ff" d="M437.53,-317.21C398.02,-310.08 347.82,-298.96 305,-283 252.18,-263.32 194.88,-227.84 169.88,-211.57"/>
<polygon fill="#63b8ff" stroke="#63b8ff" points="437.14,-320.69 447.59,-318.98 438.35,-313.8 437.14,-320.69"/>
</a>
</g>
</g>
<!-- Node21&#45;&gt;Node9 -->
<g id="edge33_Node000021_Node000009" class="edge">
<title>Node21&#45;&gt;Node9</title>
<g id="a_edge33_Node000021_Node000009"><a xlink:title=" ">
<path fill="none" stroke="#63b8ff" d="M501.31,-308.87C496.29,-292.29 486.82,-268.37 471,-253 449.29,-231.92 417.25,-218.99 392.5,-211.57"/>
<polygon fill="#63b8ff" stroke="#63b8ff" points="498.07,-310.26 504.1,-318.97 504.82,-308.4 498.07,-310.26"/>
</a>
</g>
</g>
<!-- Node21&#45;&gt;Node10 -->
<g id="edge35_Node000021_Node000010" class="edge">
<title>Node21&#45;&gt;Node10</title>
<g id="a_edge35_Node000021_Node000010"><a xlink:title=" ">
<path fill="none" stroke="#63b8ff" d="M509.32,-308.74C514.15,-281.36 522.95,-231.58 526.48,-211.62"/>
<polygon fill="#63b8ff" stroke="#63b8ff" points="505.81,-308.49 507.51,-318.94 512.7,-309.7 505.81,-308.49"/>
</a>
</g>
</g>
<!-- Node21&#45;&gt;Node14 -->
<g id="edge36_Node000021_Node000014" class="edge">
<title>Node21&#45;&gt;Node14</title>
<g id="a_edge36_Node000021_Node000014"><a xlink:title=" ">
<path fill="none" stroke="#63b8ff" d="M525.42,-312.93C560.29,-286.78 632.47,-232.65 660.51,-211.62"/>
<polygon fill="#63b8ff" stroke="#63b8ff" points="523.31,-310.14 517.41,-318.94 527.51,-315.74 523.31,-310.14"/>
</a>
</g>
</g>
<!-- Node21&#45;&gt;Node20 -->
<g id="edge34_Node000021_Node000020" class="edge">
<title>Node21&#45;&gt;Node20</title>
<g id="a_edge34_Node000021_Node000020"><a xlink:title=" ">
<path fill="none" stroke="#63b8ff" d="M550.87,-316.56C589.7,-307.1 646.11,-293.35 688.3,-283.06"/>
<polygon fill="#63b8ff" stroke="#63b8ff" points="549.78,-313.22 540.9,-318.99 551.44,-320.03 549.78,-313.22"/>
</a>
</g>
</g>
</g>
</svg>
