<?xml version="1.0" encoding="UTF-8" standalone="no"?>
<!DOCTYPE svg PUBLIC "-//W3C//DTD SVG 1.1//EN"
 "http://www.w3.org/Graphics/SVG/1.1/DTD/svg11.dtd">
<!-- Generated by graphviz version 2.43.0 (0)
 -->
<!-- Title: /home/runner/work/kit.core/kit.core/projects/examples/Itc/Synchronous/IRateRequest.h Pages: 1 -->
<svg width="182pt" height="203pt"
 viewBox="0.00 0.00 182.00 203.00" xmlns="http://www.w3.org/2000/svg" xmlns:xlink="http://www.w3.org/1999/xlink">
<g id="graph0" class="graph" transform="scale(1 1) rotate(0) translate(4 199)">
<title>/home/runner/work/kit.core/kit.core/projects/examples/Itc/Synchronous/IRateRequest.h</title>
<!-- Node1 -->
<g id="Node000001" class="node">
<title>Node1</title>
<g id="a_Node000001"><a xlink:title=" ">
<polygon fill="#999999" stroke="#666666" points="174,-195 0,-195 0,-154 174,-154 174,-195"/>
<text text-anchor="start" x="8" y="-183" font-family="Helvetica,sans-Serif" font-size="10.00">/home/runner/work/kit.core</text>
<text text-anchor="start" x="8" y="-172" font-family="Helvetica,sans-Serif" font-size="10.00">/kit.core/projects/examples</text>
<text text-anchor="middle" x="87" y="-161" font-family="Helvetica,sans-Serif" font-size="10.00">/Itc/Synchronous/IRateRequest.h</text>
</a>
</g>
</g>
<!-- Node2 -->
<g id="Node000002" class="node">
<title>Node2</title>
<g id="a_Node000002"><a xlink:href="_rate_sync_8h.html" target="_top" xlink:title=" ">
<polygon fill="white" stroke="#666666" points="164.5,-118 9.5,-118 9.5,-77 164.5,-77 164.5,-118"/>
<text text-anchor="start" x="17.5" y="-106" font-family="Helvetica,sans-Serif" font-size="10.00">/home/runner/work/kit.core</text>
<text text-anchor="start" x="17.5" y="-95" font-family="Helvetica,sans-Serif" font-size="10.00">/kit.core/projects/examples</text>
<text text-anchor="middle" x="87" y="-84" font-family="Helvetica,sans-Serif" font-size="10.00">/Itc/Synchronous/RateSync.h</text>
</a>
</g>
</g>
<!-- Node1&#45;&gt;Node2 -->
<g id="edge1_Node000001_Node000002" class="edge">
<title>Node1&#45;&gt;Node2</title>
<g id="a_edge1_Node000001_Node000002"><a xlink:title=" ">
<path fill="none" stroke="#63b8ff" d="M87,-143.69C87,-135.08 87,-125.9 87,-118.07"/>
<polygon fill="#63b8ff" stroke="#63b8ff" points="83.5,-143.79 87,-153.79 90.5,-143.79 83.5,-143.79"/>
</a>
</g>
</g>
<!-- Node3 -->
<g id="Node000003" class="node">
<title>Node3</title>
<g id="a_Node000003"><a xlink:href="projects_2examples_2_itc_2_synchronous_2_server_8h.html" target="_top" xlink:title=" ">
<polygon fill="white" stroke="#666666" points="161.5,-41 12.5,-41 12.5,0 161.5,0 161.5,-41"/>
<text text-anchor="start" x="20.5" y="-29" font-family="Helvetica,sans-Serif" font-size="10.00">/home/runner/work/kit.core</text>
<text text-anchor="start" x="20.5" y="-18" font-family="Helvetica,sans-Serif" font-size="10.00">/kit.core/projects/examples</text>
<text text-anchor="middle" x="87" y="-7" font-family="Helvetica,sans-Serif" font-size="10.00">/Itc/Synchronous/Server.h</text>
</a>
</g>
</g>
<!-- Node2&#45;&gt;Node3 -->
<g id="edge2_Node000002_Node000003" class="edge">
<title>Node2&#45;&gt;Node3</title>
<g id="a_edge2_Node000002_Node000003"><a xlink:title=" ">
<path fill="none" stroke="#63b8ff" d="M87,-66.69C87,-58.08 87,-48.9 87,-41.07"/>
<polygon fill="#63b8ff" stroke="#63b8ff" points="83.5,-66.79 87,-76.79 90.5,-66.79 83.5,-66.79"/>
</a>
</g>
</g>
</g>
</svg>
