<?xml version="1.0" encoding="UTF-8" standalone="no"?>
<!DOCTYPE svg PUBLIC "-//W3C//DTD SVG 1.1//EN"
 "http://www.w3.org/Graphics/SVG/1.1/DTD/svg11.dtd">
<!-- Generated by graphviz version 2.43.0 (0)
 -->
<!-- Title: Kit/Persistence/Record/IRecord.h Pages: 1 -->
<svg width="920pt" height="368pt"
 viewBox="0.00 0.00 920.00 368.00" xmlns="http://www.w3.org/2000/svg" xmlns:xlink="http://www.w3.org/1999/xlink">
<g id="graph0" class="graph" transform="scale(1 1) rotate(0) translate(4 364)">
<title>Kit/Persistence/Record/IRecord.h</title>
<!-- Node1 -->
<g id="Node000001" class="node">
<title>Node1</title>
<g id="a_Node000001"><a xlink:title=" ">
<polygon fill="#999999" stroke="#666666" points="677,-360 551,-360 551,-330 677,-330 677,-360"/>
<text text-anchor="start" x="559" y="-348" font-family="Helvetica,sans-Serif" font-size="10.00">Kit/Persistence/Record</text>
<text text-anchor="middle" x="614" y="-337" font-family="Helvetica,sans-Serif" font-size="10.00">/IRecord.h</text>
</a>
</g>
</g>
<!-- Node2 -->
<g id="Node000002" class="node">
<title>Node2</title>
<g id="a_Node000002"><a xlink:href="_record_8h.html" target="_top" xlink:title=" ">
<polygon fill="white" stroke="#666666" points="533,-294 423,-294 423,-264 533,-264 533,-294"/>
<text text-anchor="start" x="431" y="-282" font-family="Helvetica,sans-Serif" font-size="10.00">Kit/Dm/Persistence</text>
<text text-anchor="middle" x="478" y="-271" font-family="Helvetica,sans-Serif" font-size="10.00">/Record.h</text>
</a>
</g>
</g>
<!-- Node1&#45;&gt;Node2 -->
<g id="edge1_Node000001_Node000002" class="edge">
<title>Node1&#45;&gt;Node2</title>
<g id="a_edge1_Node000001_Node000002"><a xlink:title=" ">
<path fill="none" stroke="#63b8ff" d="M575,-325.65C553.61,-315.58 527.51,-303.3 507.78,-294.01"/>
<polygon fill="#63b8ff" stroke="#63b8ff" points="573.62,-328.86 584.15,-329.95 576.6,-322.53 573.62,-328.86"/>
</a>
</g>
</g>
<!-- Node3 -->
<g id="Node000003" class="node">
<title>Node3</title>
<g id="a_Node000003"><a xlink:href="_i_data_record_8h.html" target="_top" xlink:title=" ">
<polygon fill="white" stroke="#666666" points="677,-294 551,-294 551,-264 677,-264 677,-294"/>
<text text-anchor="start" x="559" y="-282" font-family="Helvetica,sans-Serif" font-size="10.00">Kit/Persistence/Record</text>
<text text-anchor="middle" x="614" y="-271" font-family="Helvetica,sans-Serif" font-size="10.00">/IDataRecord.h</text>
</a>
</g>
</g>
<!-- Node1&#45;&gt;Node3 -->
<g id="edge2_Node000001_Node000003" class="edge">
<title>Node1&#45;&gt;Node3</title>
<g id="a_edge2_Node000001_Node000003"><a xlink:title=" ">
<path fill="none" stroke="#63b8ff" d="M614,-319.54C614,-310.96 614,-301.61 614,-294.16"/>
<polygon fill="#63b8ff" stroke="#63b8ff" points="610.5,-319.8 614,-329.8 617.5,-319.8 610.5,-319.8"/>
</a>
</g>
</g>
<!-- Node15 -->
<g id="Node000015" class="node">
<title>Node15</title>
<g id="a_Node000015"><a xlink:href="src_2_kit_2_persistence_2_record_2_server_8h.html" target="_top" xlink:title=" ">
<polygon fill="white" stroke="#666666" points="821,-294 695,-294 695,-264 821,-264 821,-294"/>
<text text-anchor="start" x="703" y="-282" font-family="Helvetica,sans-Serif" font-size="10.00">Kit/Persistence/Record</text>
<text text-anchor="middle" x="758" y="-271" font-family="Helvetica,sans-Serif" font-size="10.00">/Server.h</text>
</a>
</g>
</g>
<!-- Node1&#45;&gt;Node15 -->
<g id="edge20_Node000001_Node000015" class="edge">
<title>Node1&#45;&gt;Node15</title>
<g id="a_edge20_Node000001_Node000015"><a xlink:title=" ">
<path fill="none" stroke="#63b8ff" d="M654.99,-325.78C677.69,-315.69 705.48,-303.34 726.47,-294.01"/>
<polygon fill="#63b8ff" stroke="#63b8ff" points="653.32,-322.7 645.6,-329.95 656.16,-329.09 653.32,-322.7"/>
</a>
</g>
</g>
<!-- Node4 -->
<g id="Node000004" class="node">
<title>Node4</title>
<g id="a_Node000004"><a xlink:href="_i_entry_8h.html" target="_top" xlink:title=" ">
<polygon fill="white" stroke="#666666" points="586,-228 460,-228 460,-198 586,-198 586,-228"/>
<text text-anchor="start" x="468" y="-216" font-family="Helvetica,sans-Serif" font-size="10.00">Kit/Persistence/Record</text>
<text text-anchor="middle" x="523" y="-205" font-family="Helvetica,sans-Serif" font-size="10.00">/Journal/IEntry.h</text>
</a>
</g>
</g>
<!-- Node3&#45;&gt;Node4 -->
<g id="edge3_Node000003_Node000004" class="edge">
<title>Node3&#45;&gt;Node4</title>
<g id="a_edge3_Node000003_Node000004"><a xlink:title=" ">
<path fill="none" stroke="#63b8ff" d="M585.6,-258.03C571.83,-248.34 555.62,-236.94 543.14,-228.16"/>
<polygon fill="#63b8ff" stroke="#63b8ff" points="583.61,-260.91 593.8,-263.8 587.64,-255.18 583.61,-260.91"/>
</a>
</g>
</g>
<!-- Node13 -->
<g id="Node000013" class="node">
<title>Node13</title>
<g id="a_Node000013"><a xlink:href="_i_head_8h.html" target="_top" xlink:title=" ">
<polygon fill="white" stroke="#666666" points="768,-228 642,-228 642,-198 768,-198 768,-228"/>
<text text-anchor="start" x="650" y="-216" font-family="Helvetica,sans-Serif" font-size="10.00">Kit/Persistence/Record</text>
<text text-anchor="middle" x="705" y="-205" font-family="Helvetica,sans-Serif" font-size="10.00">/Journal/IHead.h</text>
</a>
</g>
</g>
<!-- Node3&#45;&gt;Node13 -->
<g id="edge17_Node000003_Node000013" class="edge">
<title>Node3&#45;&gt;Node13</title>
<g id="a_edge17_Node000003_Node000013"><a xlink:title=" ">
<path fill="none" stroke="#63b8ff" d="M642.4,-258.03C656.17,-248.34 672.38,-236.94 684.86,-228.16"/>
<polygon fill="#63b8ff" stroke="#63b8ff" points="640.36,-255.18 634.2,-263.8 644.39,-260.91 640.36,-255.18"/>
</a>
</g>
</g>
<!-- Node5 -->
<g id="Node000005" class="node">
<title>Node5</title>
<g id="a_Node000005"><a xlink:href="_entry_record_8h.html" target="_top" xlink:title=" ">
<polygon fill="white" stroke="#666666" points="768,-162 642,-162 642,-132 768,-132 768,-162"/>
<text text-anchor="start" x="650" y="-150" font-family="Helvetica,sans-Serif" font-size="10.00">Kit/Persistence/Record</text>
<text text-anchor="middle" x="705" y="-139" font-family="Helvetica,sans-Serif" font-size="10.00">/Journal/EntryRecord.h</text>
</a>
</g>
</g>
<!-- Node4&#45;&gt;Node5 -->
<g id="edge4_Node000004_Node000005" class="edge">
<title>Node4&#45;&gt;Node5</title>
<g id="a_edge4_Node000004_Node000005"><a xlink:title=" ">
<path fill="none" stroke="#63b8ff" d="M572.51,-194.59C601.61,-184.36 637.91,-171.59 665.15,-162.01"/>
<polygon fill="#63b8ff" stroke="#63b8ff" points="571.21,-191.34 562.94,-197.95 573.54,-197.94 571.21,-191.34"/>
</a>
</g>
</g>
<!-- Node6 -->
<g id="Node000006" class="node">
<title>Node6</title>
<g id="a_Node000006"><a xlink:href="_i_reader_8h.html" target="_top" xlink:title=" ">
<polygon fill="white" stroke="#666666" points="586,-162 460,-162 460,-132 586,-132 586,-162"/>
<text text-anchor="start" x="468" y="-150" font-family="Helvetica,sans-Serif" font-size="10.00">Kit/Persistence/Record</text>
<text text-anchor="middle" x="523" y="-139" font-family="Helvetica,sans-Serif" font-size="10.00">/Journal/IReader.h</text>
</a>
</g>
</g>
<!-- Node4&#45;&gt;Node6 -->
<g id="edge5_Node000004_Node000006" class="edge">
<title>Node4&#45;&gt;Node6</title>
<g id="a_edge5_Node000004_Node000006"><a xlink:title=" ">
<path fill="none" stroke="#63b8ff" d="M523,-187.54C523,-178.96 523,-169.61 523,-162.16"/>
<polygon fill="#63b8ff" stroke="#63b8ff" points="519.5,-187.8 523,-197.8 526.5,-187.8 519.5,-187.8"/>
</a>
</g>
</g>
<!-- Node8 -->
<g id="Node000008" class="node">
<title>Node8</title>
<g id="a_Node000008"><a xlink:href="src_2_kit_2_persistence_2_record_2_journal_2_server_8h.html" target="_top" xlink:title=" ">
<polygon fill="white" stroke="#666666" points="478,-30 352,-30 352,0 478,0 478,-30"/>
<text text-anchor="start" x="360" y="-18" font-family="Helvetica,sans-Serif" font-size="10.00">Kit/Persistence/Record</text>
<text text-anchor="middle" x="415" y="-7" font-family="Helvetica,sans-Serif" font-size="10.00">/Journal/Server.h</text>
</a>
</g>
</g>
<!-- Node4&#45;&gt;Node8 -->
<g id="edge16_Node000004_Node000008" class="edge">
<title>Node4&#45;&gt;Node8</title>
<g id="a_edge16_Node000004_Node000008"><a xlink:title=" ">
<path fill="none" stroke="#63b8ff" d="M564.68,-192.74C576.67,-184.99 588.3,-174.8 595,-162 601.18,-150.19 599.91,-144.4 595,-132 573.44,-77.56 510.28,-46.2 464.86,-30.13"/>
<polygon fill="#63b8ff" stroke="#63b8ff" points="562.74,-189.82 555.95,-197.95 566.33,-195.82 562.74,-189.82"/>
</a>
</g>
</g>
<!-- Node9 -->
<g id="Node000009" class="node">
<title>Node9</title>
<g id="a_Node000009"><a xlink:href="_i_reader_request_8h.html" target="_top" xlink:title=" ">
<polygon fill="white" stroke="#666666" points="441.5,-162 298.5,-162 298.5,-132 441.5,-132 441.5,-162"/>
<text text-anchor="start" x="306.5" y="-150" font-family="Helvetica,sans-Serif" font-size="10.00">Kit/Persistence/Record</text>
<text text-anchor="middle" x="370" y="-139" font-family="Helvetica,sans-Serif" font-size="10.00">/Journal/IReaderRequest.h</text>
</a>
</g>
</g>
<!-- Node4&#45;&gt;Node9 -->
<g id="edge8_Node000004_Node000009" class="edge">
<title>Node4&#45;&gt;Node9</title>
<g id="a_edge8_Node000004_Node000009"><a xlink:title=" ">
<path fill="none" stroke="#63b8ff" d="M480.1,-194.05C455.86,-183.91 426,-171.43 403.5,-162.01"/>
<polygon fill="#63b8ff" stroke="#63b8ff" points="478.85,-197.32 489.42,-197.95 481.55,-190.87 478.85,-197.32"/>
</a>
</g>
</g>
<!-- Node10 -->
<g id="Node000010" class="node">
<title>Node10</title>
<g id="a_Node000010"><a xlink:href="_i_reset_8h.html" target="_top" xlink:title=" ">
<polygon fill="white" stroke="#666666" points="126,-162 0,-162 0,-132 126,-132 126,-162"/>
<text text-anchor="start" x="8" y="-150" font-family="Helvetica,sans-Serif" font-size="10.00">Kit/Persistence/Record</text>
<text text-anchor="middle" x="63" y="-139" font-family="Helvetica,sans-Serif" font-size="10.00">/Journal/IReset.h</text>
</a>
</g>
</g>
<!-- Node4&#45;&gt;Node10 -->
<g id="edge11_Node000004_Node000010" class="edge">
<title>Node4&#45;&gt;Node10</title>
<g id="a_edge11_Node000004_Node000010"><a xlink:title=" ">
<path fill="none" stroke="#63b8ff" d="M449.76,-203.98C371.6,-195.08 244.25,-179.64 135,-162 132.11,-161.53 129.16,-161.04 126.18,-160.52"/>
<polygon fill="#63b8ff" stroke="#63b8ff" points="449.66,-207.49 459.99,-205.13 450.44,-200.53 449.66,-207.49"/>
</a>
</g>
</g>
<!-- Node12 -->
<g id="Node000012" class="node">
<title>Node12</title>
<g id="a_Node000012"><a xlink:href="_i_reset_request_8h.html" target="_top" xlink:title=" ">
<polygon fill="white" stroke="#666666" points="280,-162 144,-162 144,-132 280,-132 280,-162"/>
<text text-anchor="start" x="152" y="-150" font-family="Helvetica,sans-Serif" font-size="10.00">Kit/Persistence/Record</text>
<text text-anchor="middle" x="212" y="-139" font-family="Helvetica,sans-Serif" font-size="10.00">/Journal/IResetRequest.h</text>
</a>
</g>
</g>
<!-- Node4&#45;&gt;Node12 -->
<g id="edge14_Node000004_Node000012" class="edge">
<title>Node4&#45;&gt;Node12</title>
<g id="a_edge14_Node000004_Node000012"><a xlink:title=" ">
<path fill="none" stroke="#63b8ff" d="M449.66,-196.91C398.31,-186.34 330.21,-172.33 280.07,-162.01"/>
<polygon fill="#63b8ff" stroke="#63b8ff" points="449.19,-200.38 459.69,-198.97 450.6,-193.53 449.19,-200.38"/>
</a>
</g>
</g>
<!-- Node7 -->
<g id="Node000007" class="node">
<title>Node7</title>
<g id="a_Node000007"><a xlink:href="_reader_sync_8h.html" target="_top" xlink:title=" ">
<polygon fill="white" stroke="#666666" points="524,-96 398,-96 398,-66 524,-66 524,-96"/>
<text text-anchor="start" x="406" y="-84" font-family="Helvetica,sans-Serif" font-size="10.00">Kit/Persistence/Record</text>
<text text-anchor="middle" x="461" y="-73" font-family="Helvetica,sans-Serif" font-size="10.00">/Journal/ReaderSync.h</text>
</a>
</g>
</g>
<!-- Node6&#45;&gt;Node7 -->
<g id="edge6_Node000006_Node000007" class="edge">
<title>Node6&#45;&gt;Node7</title>
<g id="a_edge6_Node000006_Node000007"><a xlink:title=" ">
<path fill="none" stroke="#63b8ff" d="M502.04,-124.37C493.03,-115.06 482.74,-104.44 474.72,-96.16"/>
<polygon fill="#63b8ff" stroke="#63b8ff" points="499.77,-127.05 509.24,-131.8 504.8,-122.18 499.77,-127.05"/>
</a>
</g>
</g>
<!-- Node7&#45;&gt;Node8 -->
<g id="edge7_Node000007_Node000008" class="edge">
<title>Node7&#45;&gt;Node8</title>
<g id="a_edge7_Node000007_Node000008"><a xlink:title=" ">
<path fill="none" stroke="#63b8ff" d="M444.85,-57.53C438.31,-48.43 430.95,-38.19 425.18,-30.16"/>
<polygon fill="#63b8ff" stroke="#63b8ff" points="442.11,-59.72 450.79,-65.8 447.8,-55.63 442.11,-59.72"/>
</a>
</g>
</g>
<!-- Node9&#45;&gt;Node7 -->
<g id="edge9_Node000009_Node000007" class="edge">
<title>Node9&#45;&gt;Node7</title>
<g id="a_edge9_Node000009_Node000007"><a xlink:title=" ">
<path fill="none" stroke="#63b8ff" d="M398.4,-126.03C412.17,-116.34 428.38,-104.94 440.86,-96.16"/>
<polygon fill="#63b8ff" stroke="#63b8ff" points="396.36,-123.18 390.2,-131.8 400.39,-128.91 396.36,-123.18"/>
</a>
</g>
</g>
<!-- Node9&#45;&gt;Node8 -->
<g id="edge10_Node000009_Node000008" class="edge">
<title>Node9&#45;&gt;Node8</title>
<g id="a_edge10_Node000009_Node000008"><a xlink:title=" ">
<path fill="none" stroke="#63b8ff" d="M374.17,-121.63C377.31,-105.54 382.24,-84.15 389,-66 393.71,-53.35 400.9,-39.81 406.52,-30.01"/>
<polygon fill="#63b8ff" stroke="#63b8ff" points="370.66,-121.35 372.28,-131.82 377.54,-122.62 370.66,-121.35"/>
</a>
</g>
</g>
<!-- Node11 -->
<g id="Node000011" class="node">
<title>Node11</title>
<g id="a_Node000011"><a xlink:href="_reset_sync_8h.html" target="_top" xlink:title=" ">
<polygon fill="white" stroke="#666666" points="275,-96 149,-96 149,-66 275,-66 275,-96"/>
<text text-anchor="start" x="157" y="-84" font-family="Helvetica,sans-Serif" font-size="10.00">Kit/Persistence/Record</text>
<text text-anchor="middle" x="212" y="-73" font-family="Helvetica,sans-Serif" font-size="10.00">/Journal/ResetSync.h</text>
</a>
</g>
</g>
<!-- Node10&#45;&gt;Node11 -->
<g id="edge12_Node000010_Node000011" class="edge">
<title>Node10&#45;&gt;Node11</title>
<g id="a_edge12_Node000010_Node000011"><a xlink:title=" ">
<path fill="none" stroke="#63b8ff" d="M105.09,-127.92C128.64,-117.8 157.56,-105.38 179.38,-96.01"/>
<polygon fill="#63b8ff" stroke="#63b8ff" points="103.51,-124.79 95.7,-131.95 106.27,-131.22 103.51,-124.79"/>
</a>
</g>
</g>
<!-- Node11&#45;&gt;Node8 -->
<g id="edge13_Node000011_Node000008" class="edge">
<title>Node11&#45;&gt;Node8</title>
<g id="a_edge13_Node000011_Node000008"><a xlink:title=" ">
<path fill="none" stroke="#63b8ff" d="M266.38,-62.86C298.97,-52.58 339.9,-39.68 370.55,-30.01"/>
<polygon fill="#63b8ff" stroke="#63b8ff" points="265.03,-59.61 256.55,-65.95 267.14,-66.29 265.03,-59.61"/>
</a>
</g>
</g>
<!-- Node12&#45;&gt;Node11 -->
<g id="edge15_Node000012_Node000011" class="edge">
<title>Node12&#45;&gt;Node11</title>
<g id="a_edge15_Node000012_Node000011"><a xlink:title=" ">
<path fill="none" stroke="#63b8ff" d="M212,-121.54C212,-112.96 212,-103.61 212,-96.16"/>
<polygon fill="#63b8ff" stroke="#63b8ff" points="208.5,-121.8 212,-131.8 215.5,-121.8 208.5,-121.8"/>
</a>
</g>
</g>
<!-- Node13&#45;&gt;Node5 -->
<g id="edge18_Node000013_Node000005" class="edge">
<title>Node13&#45;&gt;Node5</title>
<g id="a_edge18_Node000013_Node000005"><a xlink:title=" ">
<path fill="none" stroke="#63b8ff" d="M705,-187.54C705,-178.96 705,-169.61 705,-162.16"/>
<polygon fill="#63b8ff" stroke="#63b8ff" points="701.5,-187.8 705,-197.8 708.5,-187.8 701.5,-187.8"/>
</a>
</g>
</g>
<!-- Node14 -->
<g id="Node000014" class="node">
<title>Node14</title>
<g id="a_Node000014"><a xlink:href="_head_record_8h.html" target="_top" xlink:title=" ">
<polygon fill="white" stroke="#666666" points="912,-162 786,-162 786,-132 912,-132 912,-162"/>
<text text-anchor="start" x="794" y="-150" font-family="Helvetica,sans-Serif" font-size="10.00">Kit/Persistence/Record</text>
<text text-anchor="middle" x="849" y="-139" font-family="Helvetica,sans-Serif" font-size="10.00">/Journal/HeadRecord.h</text>
</a>
</g>
</g>
<!-- Node13&#45;&gt;Node14 -->
<g id="edge19_Node000013_Node000014" class="edge">
<title>Node13&#45;&gt;Node14</title>
<g id="a_edge19_Node000013_Node000014"><a xlink:title=" ">
<path fill="none" stroke="#63b8ff" d="M745.99,-193.78C768.69,-183.69 796.48,-171.34 817.47,-162.01"/>
<polygon fill="#63b8ff" stroke="#63b8ff" points="744.32,-190.7 736.6,-197.95 747.16,-197.09 744.32,-190.7"/>
</a>
</g>
</g>
</g>
</svg>
