<?xml version="1.0" encoding="UTF-8" standalone="no"?>
<!DOCTYPE svg PUBLIC "-//W3C//DTD SVG 1.1//EN"
 "http://www.w3.org/Graphics/SVG/1.1/DTD/svg11.dtd">
<!-- Generated by graphviz version 2.43.0 (0)
 -->
<!-- Title: Kit/Persistence/Record/Journal/IReaderRequest.h Pages: 1 -->
<svg width="188pt" height="170pt"
 viewBox="0.00 0.00 187.50 170.00" xmlns="http://www.w3.org/2000/svg" xmlns:xlink="http://www.w3.org/1999/xlink">
<g id="graph0" class="graph" transform="scale(1 1) rotate(0) translate(4 166)">
<title>Kit/Persistence/Record/Journal/IReaderRequest.h</title>
<!-- Node1 -->
<g id="Node000001" class="node">
<title>Node1</title>
<g id="a_Node000001"><a xlink:title=" ">
<polygon fill="#999999" stroke="#666666" points="179.5,-162 36.5,-162 36.5,-132 179.5,-132 179.5,-162"/>
<text text-anchor="start" x="44.5" y="-150" font-family="Helvetica,sans-Serif" font-size="10.00">Kit/Persistence/Record</text>
<text text-anchor="middle" x="108" y="-139" font-family="Helvetica,sans-Serif" font-size="10.00">/Journal/IReaderRequest.h</text>
</a>
</g>
</g>
<!-- Node2 -->
<g id="Node000002" class="node">
<title>Node2</title>
<g id="a_Node000002"><a xlink:href="_reader_sync_8h.html" target="_top" xlink:title=" ">
<polygon fill="white" stroke="#666666" points="126,-96 0,-96 0,-66 126,-66 126,-96"/>
<text text-anchor="start" x="8" y="-84" font-family="Helvetica,sans-Serif" font-size="10.00">Kit/Persistence/Record</text>
<text text-anchor="middle" x="63" y="-73" font-family="Helvetica,sans-Serif" font-size="10.00">/Journal/ReaderSync.h</text>
</a>
</g>
</g>
<!-- Node1&#45;&gt;Node2 -->
<g id="edge1_Node000001_Node000002" class="edge">
<title>Node1&#45;&gt;Node2</title>
<g id="a_edge1_Node000001_Node000002"><a xlink:title=" ">
<path fill="none" stroke="#63b8ff" d="M92.2,-123.53C85.8,-114.43 78.61,-104.19 72.96,-96.16"/>
<polygon fill="#63b8ff" stroke="#63b8ff" points="89.4,-125.63 98.01,-131.8 95.12,-121.6 89.4,-125.63"/>
</a>
</g>
</g>
<!-- Node3 -->
<g id="Node000003" class="node">
<title>Node3</title>
<g id="a_Node000003"><a xlink:href="src_2_kit_2_persistence_2_record_2_journal_2_server_8h.html" target="_top" xlink:title=" ">
<polygon fill="white" stroke="#666666" points="171,-30 45,-30 45,0 171,0 171,-30"/>
<text text-anchor="start" x="53" y="-18" font-family="Helvetica,sans-Serif" font-size="10.00">Kit/Persistence/Record</text>
<text text-anchor="middle" x="108" y="-7" font-family="Helvetica,sans-Serif" font-size="10.00">/Journal/Server.h</text>
</a>
</g>
</g>
<!-- Node1&#45;&gt;Node3 -->
<g id="edge3_Node000001_Node000003" class="edge">
<title>Node1&#45;&gt;Node3</title>
<g id="a_edge3_Node000001_Node000003"><a xlink:title=" ">
<path fill="none" stroke="#63b8ff" d="M123.34,-123.29C128.04,-115.06 132.61,-105.45 135,-96 138.27,-83.07 138.27,-78.93 135,-66 131.71,-52.99 124.3,-39.69 118.07,-30.08"/>
<polygon fill="#63b8ff" stroke="#63b8ff" points="120.29,-121.56 118.07,-131.92 126.27,-125.2 120.29,-121.56"/>
</a>
</g>
</g>
<!-- Node2&#45;&gt;Node3 -->
<g id="edge2_Node000002_Node000003" class="edge">
<title>Node2&#45;&gt;Node3</title>
<g id="a_edge2_Node000002_Node000003"><a xlink:title=" ">
<path fill="none" stroke="#63b8ff" d="M78.8,-57.53C85.2,-48.43 92.39,-38.19 98.04,-30.16"/>
<polygon fill="#63b8ff" stroke="#63b8ff" points="75.88,-55.6 72.99,-65.8 81.6,-59.63 75.88,-55.6"/>
</a>
</g>
</g>
</g>
</svg>
