<?xml version="1.0" encoding="UTF-8" standalone="no"?>
<!DOCTYPE svg PUBLIC "-//W3C//DTD SVG 1.1//EN"
 "http://www.w3.org/Graphics/SVG/1.1/DTD/svg11.dtd">
<!-- Generated by graphviz version 2.43.0 (0)
 -->
<!-- Title: Kit/Itc/IReturnHandler.h Pages: 1 -->
<svg width="1430pt" height="489pt"
 viewBox="0.00 0.00 1429.50 489.00" xmlns="http://www.w3.org/2000/svg" xmlns:xlink="http://www.w3.org/1999/xlink">
<g id="graph0" class="graph" transform="scale(1 1) rotate(0) translate(4 485)">
<title>Kit/Itc/IReturnHandler.h</title>
<!-- Node1 -->
<g id="Node000001" class="node">
<title>Node1</title>
<g id="a_Node000001"><a xlink:title=" ">
<polygon fill="#999999" stroke="#666666" points="1121.5,-481 991.5,-481 991.5,-462 1121.5,-462 1121.5,-481"/>
<text text-anchor="middle" x="1056.5" y="-469" font-family="Helvetica,sans-Serif" font-size="10.00">Kit/Itc/IReturnHandler.h</text>
</a>
</g>
</g>
<!-- Node2 -->
<g id="Node000002" class="node">
<title>Node2</title>
<g id="a_Node000002"><a xlink:href="_async_return_handler_8h.html" target="_top" xlink:title=" ">
<polygon fill="white" stroke="#666666" points="908.5,-371 752.5,-371 752.5,-352 908.5,-352 908.5,-371"/>
<text text-anchor="middle" x="830.5" y="-359" font-family="Helvetica,sans-Serif" font-size="10.00">Kit/Itc/AsyncReturnHandler.h</text>
</a>
</g>
</g>
<!-- Node1&#45;&gt;Node2 -->
<g id="edge1_Node000001_Node000002" class="edge">
<title>Node1&#45;&gt;Node2</title>
<g id="a_edge1_Node000001_Node000002"><a xlink:title=" ">
<path fill="none" stroke="#63b8ff" d="M998.13,-459.77C968.58,-452.82 932.84,-442.01 903.5,-426 876.37,-411.2 850.53,-384.87 838.14,-371.23"/>
<polygon fill="#63b8ff" stroke="#63b8ff" points="997.37,-463.19 1007.89,-461.99 998.91,-456.36 997.37,-463.19"/>
</a>
</g>
</g>
<!-- Node19 -->
<g id="Node000019" class="node">
<title>Node19</title>
<g id="a_Node000019"><a xlink:href="_null_return_handler_8h.html" target="_top" xlink:title=" ">
<polygon fill="white" stroke="#666666" points="1208.5,-426 1062.5,-426 1062.5,-407 1208.5,-407 1208.5,-426"/>
<text text-anchor="middle" x="1135.5" y="-414" font-family="Helvetica,sans-Serif" font-size="10.00">Kit/Itc/NullReturnHandler.h</text>
</a>
</g>
</g>
<!-- Node1&#45;&gt;Node19 -->
<g id="edge20_Node000001_Node000019" class="edge">
<title>Node1&#45;&gt;Node19</title>
<g id="a_edge20_Node000001_Node000019"><a xlink:title=" ">
<path fill="none" stroke="#63b8ff" d="M1077.89,-456.15C1092.17,-446.57 1110.47,-434.29 1122.58,-426.17"/>
<polygon fill="#63b8ff" stroke="#63b8ff" points="1075.55,-453.51 1069.19,-461.98 1079.45,-459.32 1075.55,-453.51"/>
</a>
</g>
</g>
<!-- Node20 -->
<g id="Node000020" class="node">
<title>Node20</title>
<g id="a_Node000020"><a xlink:href="_server_message_8h.html" target="_top" xlink:title=" ">
<polygon fill="white" stroke="#666666" points="1044.5,-426 912.5,-426 912.5,-407 1044.5,-407 1044.5,-426"/>
<text text-anchor="middle" x="978.5" y="-414" font-family="Helvetica,sans-Serif" font-size="10.00">Kit/Itc/ServerMessage.h</text>
</a>
</g>
</g>
<!-- Node1&#45;&gt;Node20 -->
<g id="edge21_Node000001_Node000020" class="edge">
<title>Node1&#45;&gt;Node20</title>
<g id="a_edge21_Node000001_Node000020"><a xlink:title=" ">
<path fill="none" stroke="#63b8ff" d="M1035.38,-456.15C1021.29,-446.57 1003.21,-434.29 991.26,-426.17"/>
<polygon fill="#63b8ff" stroke="#63b8ff" points="1033.73,-459.26 1043.97,-461.98 1037.66,-453.47 1033.73,-459.26"/>
</a>
</g>
</g>
<!-- Node26 -->
<g id="Node000026" class="node">
<title>Node26</title>
<g id="a_Node000026"><a xlink:href="_sync_return_handler_8h.html" target="_top" xlink:title=" ">
<polygon fill="white" stroke="#666666" points="1376.5,-426 1226.5,-426 1226.5,-407 1376.5,-407 1376.5,-426"/>
<text text-anchor="middle" x="1301.5" y="-414" font-family="Helvetica,sans-Serif" font-size="10.00">Kit/Itc/SyncReturnHandler.h</text>
</a>
</g>
</g>
<!-- Node1&#45;&gt;Node26 -->
<g id="edge33_Node000001_Node000026" class="edge">
<title>Node1&#45;&gt;Node26</title>
<g id="a_edge33_Node000001_Node000026"><a xlink:title=" ">
<path fill="none" stroke="#63b8ff" d="M1105.89,-459.82C1151.8,-449.88 1219.33,-435.28 1261.83,-426.08"/>
<polygon fill="#63b8ff" stroke="#63b8ff" points="1104.9,-456.45 1095.86,-461.98 1106.38,-463.29 1104.9,-456.45"/>
</a>
</g>
</g>
<!-- Node3 -->
<g id="Node000003" class="node">
<title>Node3</title>
<g id="a_Node000003"><a xlink:href="_response_message_8h.html" target="_top" xlink:title=" ">
<polygon fill="white" stroke="#666666" points="907.5,-305 759.5,-305 759.5,-286 907.5,-286 907.5,-305"/>
<text text-anchor="middle" x="833.5" y="-293" font-family="Helvetica,sans-Serif" font-size="10.00">Kit/Itc/ResponseMessage.h</text>
</a>
</g>
</g>
<!-- Node2&#45;&gt;Node3 -->
<g id="edge2_Node000002_Node000003" class="edge">
<title>Node2&#45;&gt;Node3</title>
<g id="a_edge2_Node000002_Node000003"><a xlink:title=" ">
<path fill="none" stroke="#63b8ff" d="M831.39,-341.58C831.95,-329.63 832.65,-314.72 833.08,-305.41"/>
<polygon fill="#63b8ff" stroke="#63b8ff" points="827.88,-341.72 830.9,-351.87 834.87,-342.04 827.88,-341.72"/>
</a>
</g>
</g>
<!-- Node4 -->
<g id="Node000004" class="node">
<title>Node4</title>
<g id="a_Node000004"><a xlink:href="_erase_request_8h.html" target="_top" xlink:title=" ">
<polygon fill="white" stroke="#666666" points="873,-233.5 692,-233.5 692,-214.5 873,-214.5 873,-233.5"/>
<text text-anchor="middle" x="782.5" y="-221.5" font-family="Helvetica,sans-Serif" font-size="10.00">Kit/Dm/Persistent/EraseRequest.h</text>
</a>
</g>
</g>
<!-- Node3&#45;&gt;Node4 -->
<g id="edge3_Node000003_Node000004" class="edge">
<title>Node3&#45;&gt;Node4</title>
<g id="a_edge3_Node000003_Node000004"><a xlink:title=" ">
<path fill="none" stroke="#63b8ff" d="M821.2,-277.74C810.98,-263.81 796.86,-244.57 788.8,-233.59"/>
<polygon fill="#63b8ff" stroke="#63b8ff" points="818.51,-279.99 827.25,-285.98 824.15,-275.85 818.51,-279.99"/>
</a>
</g>
</g>
<!-- Node6 -->
<g id="Node000006" class="node">
<title>Node6</title>
<g id="a_Node000006"><a xlink:href="_flush_request_8h.html" target="_top" xlink:title=" ">
<polygon fill="white" stroke="#666666" points="1071.5,-233.5 891.5,-233.5 891.5,-214.5 1071.5,-214.5 1071.5,-233.5"/>
<text text-anchor="middle" x="981.5" y="-221.5" font-family="Helvetica,sans-Serif" font-size="10.00">Kit/Dm/Persistent/FlushRequest.h</text>
</a>
</g>
</g>
<!-- Node3&#45;&gt;Node6 -->
<g id="edge5_Node000003_Node000006" class="edge">
<title>Node3&#45;&gt;Node6</title>
<g id="a_edge5_Node000003_Node000006"><a xlink:title=" ">
<path fill="none" stroke="#63b8ff" d="M861.06,-281.56C890.88,-267.55 937.6,-245.61 963.2,-233.59"/>
<polygon fill="#63b8ff" stroke="#63b8ff" points="859.21,-278.56 851.65,-285.98 862.19,-284.9 859.21,-278.56"/>
</a>
</g>
</g>
<!-- Node7 -->
<g id="Node000007" class="node">
<title>Node7</title>
<g id="a_Node000007"><a xlink:href="_i_close_request_8h.html" target="_top" xlink:title=" ">
<polygon fill="white" stroke="#666666" points="1217,-233.5 1090,-233.5 1090,-214.5 1217,-214.5 1217,-233.5"/>
<text text-anchor="middle" x="1153.5" y="-221.5" font-family="Helvetica,sans-Serif" font-size="10.00">Kit/Itc/ICloseRequest.h</text>
</a>
</g>
</g>
<!-- Node3&#45;&gt;Node7 -->
<g id="edge7_Node000003_Node000007" class="edge">
<title>Node3&#45;&gt;Node7</title>
<g id="a_edge7_Node000003_Node000007"><a xlink:title=" ">
<path fill="none" stroke="#63b8ff" d="M882.52,-283.85C946.01,-270.06 1055.46,-246.29 1113.94,-233.59"/>
<polygon fill="#63b8ff" stroke="#63b8ff" points="881.77,-280.44 872.74,-285.98 883.25,-287.28 881.77,-280.44"/>
</a>
</g>
</g>
<!-- Node17 -->
<g id="Node000017" class="node">
<title>Node17</title>
<g id="a_Node000017"><a xlink:href="_i_open_request_8h.html" target="_top" xlink:title=" ">
<polygon fill="white" stroke="#666666" points="674,-233.5 549,-233.5 549,-214.5 674,-214.5 674,-233.5"/>
<text text-anchor="middle" x="611.5" y="-221.5" font-family="Helvetica,sans-Serif" font-size="10.00">Kit/Itc/IOpenRequest.h</text>
</a>
</g>
</g>
<!-- Node3&#45;&gt;Node17 -->
<g id="edge17_Node000003_Node000017" class="edge">
<title>Node3&#45;&gt;Node17</title>
<g id="a_edge17_Node000003_Node000017"><a xlink:title=" ">
<path fill="none" stroke="#63b8ff" d="M796.73,-282.99C752.34,-269.09 678.68,-246.03 638.94,-233.59"/>
<polygon fill="#63b8ff" stroke="#63b8ff" points="795.69,-286.33 806.28,-285.98 797.78,-279.65 795.69,-286.33"/>
</a>
</g>
</g>
<!-- Node5 -->
<g id="Node000005" class="node">
<title>Node5</title>
<g id="a_Node000005"><a xlink:href="_record_8h.html" target="_top" xlink:title=" ">
<polygon fill="white" stroke="#666666" points="956.5,-173 808.5,-173 808.5,-154 956.5,-154 956.5,-173"/>
<text text-anchor="middle" x="882.5" y="-161" font-family="Helvetica,sans-Serif" font-size="10.00">Kit/Dm/Persistent/Record.h</text>
</a>
</g>
</g>
<!-- Node4&#45;&gt;Node5 -->
<g id="edge4_Node000004_Node000005" class="edge">
<title>Node4&#45;&gt;Node5</title>
<g id="a_edge4_Node000004_Node000005"><a xlink:title=" ">
<path fill="none" stroke="#63b8ff" d="M805.97,-209.27C825.06,-198.1 851.41,-182.69 867.68,-173.17"/>
<polygon fill="#63b8ff" stroke="#63b8ff" points="804.12,-206.3 797.26,-214.37 807.65,-212.34 804.12,-206.3"/>
</a>
</g>
</g>
<!-- Node6&#45;&gt;Node5 -->
<g id="edge6_Node000006_Node000005" class="edge">
<title>Node6&#45;&gt;Node5</title>
<g id="a_edge6_Node000006_Node000005"><a xlink:title=" ">
<path fill="none" stroke="#63b8ff" d="M958.27,-209.27C939.37,-198.1 913.28,-182.69 897.17,-173.17"/>
<polygon fill="#63b8ff" stroke="#63b8ff" points="956.5,-212.29 966.89,-214.37 960.06,-206.27 956.5,-212.29"/>
</a>
</g>
</g>
<!-- Node8 -->
<g id="Node000008" class="node">
<title>Node8</title>
<g id="a_Node000008"><a xlink:href="_open_close_sync_8h.html" target="_top" xlink:title=" ">
<polygon fill="white" stroke="#666666" points="746,-107 613,-107 613,-88 746,-88 746,-107"/>
<text text-anchor="middle" x="679.5" y="-95" font-family="Helvetica,sans-Serif" font-size="10.00">Kit/Itc/OpenCloseSync.h</text>
</a>
</g>
</g>
<!-- Node7&#45;&gt;Node8 -->
<g id="edge8_Node000007_Node000008" class="edge">
<title>Node7&#45;&gt;Node8</title>
<g id="a_edge8_Node000007_Node000008"><a xlink:title=" ">
<path fill="none" stroke="#63b8ff" d="M1123.98,-210.49C1087.36,-195.36 1022.75,-169.95 965.5,-154 887.91,-132.38 796.18,-116.18 737.92,-107.03"/>
<polygon fill="#63b8ff" stroke="#63b8ff" points="1122.96,-213.86 1133.54,-214.47 1125.65,-207.39 1122.96,-213.86"/>
</a>
</g>
</g>
<!-- Node9 -->
<g id="Node000009" class="node">
<title>Node9</title>
<g id="a_Node000009"><a xlink:href="_led_server_8h.html" target="_top" xlink:title=" ">
<polygon fill="white" stroke="#666666" points="793,-41 612,-41 612,0 793,0 793,-41"/>
<text text-anchor="start" x="620" y="-29" font-family="Helvetica,sans-Serif" font-size="10.00">/home/runner/work/kit.core</text>
<text text-anchor="start" x="620" y="-18" font-family="Helvetica,sans-Serif" font-size="10.00">/kit.core/projects/examples</text>
<text text-anchor="middle" x="702.5" y="-7" font-family="Helvetica,sans-Serif" font-size="10.00">/Container/RingBuffer/LedServer.h</text>
</a>
</g>
</g>
<!-- Node8&#45;&gt;Node9 -->
<g id="edge9_Node000008_Node000009" class="edge">
<title>Node8&#45;&gt;Node9</title>
<g id="a_edge9_Node000008_Node000009"><a xlink:title=" ">
<path fill="none" stroke="#63b8ff" d="M685.08,-78.31C688.52,-67.09 692.93,-52.7 696.46,-41.21"/>
<polygon fill="#63b8ff" stroke="#63b8ff" points="681.72,-77.31 682.14,-87.9 688.42,-79.36 681.72,-77.31"/>
</a>
</g>
</g>
<!-- Node10 -->
<g id="Node000010" class="node">
<title>Node10</title>
<g id="a_Node000010"><a xlink:href="_producer_8h.html" target="_top" xlink:title=" ">
<polygon fill="white" stroke="#666666" points="986,-41 811,-41 811,0 986,0 986,-41"/>
<text text-anchor="start" x="819" y="-29" font-family="Helvetica,sans-Serif" font-size="10.00">/home/runner/work/kit.core</text>
<text text-anchor="start" x="819" y="-18" font-family="Helvetica,sans-Serif" font-size="10.00">/kit.core/projects/examples</text>
<text text-anchor="middle" x="898.5" y="-7" font-family="Helvetica,sans-Serif" font-size="10.00">/Container/RingBuffer/Producer.h</text>
</a>
</g>
</g>
<!-- Node8&#45;&gt;Node10 -->
<g id="edge10_Node000008_Node000010" class="edge">
<title>Node8&#45;&gt;Node10</title>
<g id="a_edge10_Node000008_Node000010"><a xlink:title=" ">
<path fill="none" stroke="#63b8ff" d="M714.16,-84.63C748.3,-72.94 801.06,-54.87 841.4,-41.05"/>
<polygon fill="#63b8ff" stroke="#63b8ff" points="712.95,-81.35 704.62,-87.9 715.22,-87.97 712.95,-81.35"/>
</a>
</g>
</g>
<!-- Node11 -->
<g id="Node000011" class="node">
<title>Node11</title>
<g id="a_Node000011"><a xlink:href="_dm_2_transaction_2_client_8h.html" target="_top" xlink:title=" ">
<polygon fill="white" stroke="#666666" points="1153,-41 1004,-41 1004,0 1153,0 1153,-41"/>
<text text-anchor="start" x="1012" y="-29" font-family="Helvetica,sans-Serif" font-size="10.00">/home/runner/work/kit.core</text>
<text text-anchor="start" x="1012" y="-18" font-family="Helvetica,sans-Serif" font-size="10.00">/kit.core/projects/examples</text>
<text text-anchor="middle" x="1078.5" y="-7" font-family="Helvetica,sans-Serif" font-size="10.00">/Dm/Transaction/Client.h</text>
</a>
</g>
</g>
<!-- Node8&#45;&gt;Node11 -->
<g id="edge11_Node000008_Node000011" class="edge">
<title>Node8&#45;&gt;Node11</title>
<g id="a_edge11_Node000008_Node000011"><a xlink:title=" ">
<path fill="none" stroke="#63b8ff" d="M742.79,-86.37C806.53,-75.94 907.61,-58.73 994.5,-41 997.58,-40.37 1000.72,-39.71 1003.89,-39.04"/>
<polygon fill="#63b8ff" stroke="#63b8ff" points="742.2,-82.93 732.89,-87.99 743.33,-89.83 742.2,-82.93"/>
</a>
</g>
</g>
<!-- Node12 -->
<g id="Node000012" class="node">
<title>Node12</title>
<g id="a_Node000012"><a xlink:href="projects_2examples_2_dm_2_transaction_2_server_8h.html" target="_top" xlink:title=" ">
<polygon fill="white" stroke="#666666" points="149,-41 0,-41 0,0 149,0 149,-41"/>
<text text-anchor="start" x="8" y="-29" font-family="Helvetica,sans-Serif" font-size="10.00">/home/runner/work/kit.core</text>
<text text-anchor="start" x="8" y="-18" font-family="Helvetica,sans-Serif" font-size="10.00">/kit.core/projects/examples</text>
<text text-anchor="middle" x="74.5" y="-7" font-family="Helvetica,sans-Serif" font-size="10.00">/Dm/Transaction/Server.h</text>
</a>
</g>
</g>
<!-- Node8&#45;&gt;Node12 -->
<g id="edge12_Node000008_Node000012" class="edge">
<title>Node8&#45;&gt;Node12</title>
<g id="a_edge12_Node000008_Node000012"><a xlink:title=" ">
<path fill="none" stroke="#63b8ff" d="M602.58,-91.34C500.39,-83.8 314.51,-67.68 157.5,-41 154.73,-40.53 151.91,-40.02 149.07,-39.48"/>
<polygon fill="#63b8ff" stroke="#63b8ff" points="602.57,-94.85 612.8,-92.09 603.08,-87.87 602.57,-94.85"/>
</a>
</g>
</g>
<!-- Node13 -->
<g id="Node000013" class="node">
<title>Node13</title>
<g id="a_Node000013"><a xlink:href="_itc_2_synchronous_2_client_8h.html" target="_top" xlink:title=" ">
<polygon fill="white" stroke="#666666" points="316,-41 167,-41 167,0 316,0 316,-41"/>
<text text-anchor="start" x="175" y="-29" font-family="Helvetica,sans-Serif" font-size="10.00">/home/runner/work/kit.core</text>
<text text-anchor="start" x="175" y="-18" font-family="Helvetica,sans-Serif" font-size="10.00">/kit.core/projects/examples</text>
<text text-anchor="middle" x="241.5" y="-7" font-family="Helvetica,sans-Serif" font-size="10.00">/Itc/Synchronous/Client.h</text>
</a>
</g>
</g>
<!-- Node8&#45;&gt;Node13 -->
<g id="edge13_Node000008_Node000013" class="edge">
<title>Node8&#45;&gt;Node13</title>
<g id="a_edge13_Node000008_Node000013"><a xlink:title=" ">
<path fill="none" stroke="#63b8ff" d="M605.11,-86.54C533.08,-76.5 420.93,-59.84 324.5,-41 321.74,-40.46 318.93,-39.89 316.1,-39.31"/>
<polygon fill="#63b8ff" stroke="#63b8ff" points="605.05,-90.07 615.44,-87.97 606.01,-83.13 605.05,-90.07"/>
</a>
</g>
</g>
<!-- Node14 -->
<g id="Node000014" class="node">
<title>Node14</title>
<g id="a_Node000014"><a xlink:href="projects_2examples_2_itc_2_synchronous_2_server_8h.html" target="_top" xlink:title=" ">
<polygon fill="white" stroke="#666666" points="1320,-41 1171,-41 1171,0 1320,0 1320,-41"/>
<text text-anchor="start" x="1179" y="-29" font-family="Helvetica,sans-Serif" font-size="10.00">/home/runner/work/kit.core</text>
<text text-anchor="start" x="1179" y="-18" font-family="Helvetica,sans-Serif" font-size="10.00">/kit.core/projects/examples</text>
<text text-anchor="middle" x="1245.5" y="-7" font-family="Helvetica,sans-Serif" font-size="10.00">/Itc/Synchronous/Server.h</text>
</a>
</g>
</g>
<!-- Node8&#45;&gt;Node14 -->
<g id="edge14_Node000008_Node000014" class="edge">
<title>Node8&#45;&gt;Node14</title>
<g id="a_edge14_Node000008_Node000014"><a xlink:title=" ">
<path fill="none" stroke="#63b8ff" d="M756.25,-90.37C851.68,-82.13 1019.36,-65.6 1161.5,-41 1164.6,-40.46 1167.75,-39.88 1170.93,-39.27"/>
<polygon fill="#63b8ff" stroke="#63b8ff" points="755.78,-86.9 746.11,-91.24 756.37,-93.87 755.78,-86.9"/>
</a>
</g>
</g>
<!-- Node15 -->
<g id="Node000015" class="node">
<title>Node15</title>
<g id="a_Node000015"><a xlink:href="_log_sink_8h.html" target="_top" xlink:title=" ">
<polygon fill="white" stroke="#666666" points="463,-35.5 334,-35.5 334,-5.5 463,-5.5 463,-35.5"/>
<text text-anchor="start" x="342" y="-23.5" font-family="Helvetica,sans-Serif" font-size="10.00">Kit/Logging/Framework</text>
<text text-anchor="middle" x="398.5" y="-12.5" font-family="Helvetica,sans-Serif" font-size="10.00">/LogSink.h</text>
</a>
</g>
</g>
<!-- Node8&#45;&gt;Node15 -->
<g id="edge15_Node000008_Node000015" class="edge">
<title>Node8&#45;&gt;Node15</title>
<g id="a_edge15_Node000008_Node000015"><a xlink:title=" ">
<path fill="none" stroke="#63b8ff" d="M637.76,-85.36C588.05,-72.09 504.98,-49.92 450.97,-35.5"/>
<polygon fill="#63b8ff" stroke="#63b8ff" points="636.97,-88.77 647.54,-87.97 638.78,-82.01 636.97,-88.77"/>
</a>
</g>
</g>
<!-- Node16 -->
<g id="Node000016" class="node">
<title>Node16</title>
<g id="a_Node000016"><a xlink:href="helpers_8h.html" target="_top" xlink:title="This file defines helper functions/interface for writing unit tests.">
<polygon fill="white" stroke="#666666" points="593.5,-35.5 481.5,-35.5 481.5,-5.5 593.5,-5.5 593.5,-35.5"/>
<text text-anchor="start" x="489.5" y="-23.5" font-family="Helvetica,sans-Serif" font-size="10.00">Kit/_support/testing</text>
<text text-anchor="middle" x="537.5" y="-12.5" font-family="Helvetica,sans-Serif" font-size="10.00">/helpers.h</text>
</a>
</g>
</g>
<!-- Node8&#45;&gt;Node16 -->
<g id="edge16_Node000008_Node000016" class="edge">
<title>Node8&#45;&gt;Node16</title>
<g id="a_edge16_Node000008_Node000016"><a xlink:title=" ">
<path fill="none" stroke="#63b8ff" d="M654.22,-83.15C628.89,-69.77 590.05,-49.25 564.22,-35.61"/>
<polygon fill="#63b8ff" stroke="#63b8ff" points="652.73,-86.32 663.21,-87.9 656,-80.13 652.73,-86.32"/>
</a>
</g>
</g>
<!-- Node18 -->
<g id="Node000018" class="node">
<title>Node18</title>
<g id="a_Node000018"><a xlink:href="_open_sync_8h.html" target="_top" xlink:title=" ">
<polygon fill="white" stroke="#666666" points="687.5,-173 581.5,-173 581.5,-154 687.5,-154 687.5,-173"/>
<text text-anchor="middle" x="634.5" y="-161" font-family="Helvetica,sans-Serif" font-size="10.00">Kit/Itc/OpenSync.h</text>
</a>
</g>
</g>
<!-- Node17&#45;&gt;Node18 -->
<g id="edge18_Node000017_Node000018" class="edge">
<title>Node17&#45;&gt;Node18</title>
<g id="a_edge18_Node000017_Node000018"><a xlink:title=" ">
<path fill="none" stroke="#63b8ff" d="M618.65,-204.82C622.79,-194.28 627.83,-181.48 631.09,-173.17"/>
<polygon fill="#63b8ff" stroke="#63b8ff" points="615.3,-203.78 614.89,-214.37 621.81,-206.34 615.3,-203.78"/>
</a>
</g>
</g>
<!-- Node18&#45;&gt;Node8 -->
<g id="edge19_Node000018_Node000008" class="edge">
<title>Node18&#45;&gt;Node8</title>
<g id="a_edge19_Node000018_Node000008"><a xlink:title=" ">
<path fill="none" stroke="#63b8ff" d="M646.52,-145.41C655.12,-133.18 666.35,-117.2 673.24,-107.41"/>
<polygon fill="#63b8ff" stroke="#63b8ff" points="643.46,-143.68 640.57,-153.87 649.18,-147.7 643.46,-143.68"/>
</a>
</g>
</g>
<!-- Node21 -->
<g id="Node000021" class="node">
<title>Node21</title>
<g id="a_Node000021"><a xlink:href="_request_message_8h.html" target="_top" xlink:title=" ">
<polygon fill="white" stroke="#666666" points="1066.5,-371 926.5,-371 926.5,-352 1066.5,-352 1066.5,-371"/>
<text text-anchor="middle" x="996.5" y="-359" font-family="Helvetica,sans-Serif" font-size="10.00">Kit/Itc/RequestMessage.h</text>
</a>
</g>
</g>
<!-- Node20&#45;&gt;Node21 -->
<g id="edge22_Node000020_Node000021" class="edge">
<title>Node20&#45;&gt;Node21</title>
<g id="a_edge22_Node000020_Node000021"><a xlink:title=" ">
<path fill="none" stroke="#63b8ff" d="M984.7,-397.24C987.71,-388.37 991.19,-378.14 993.58,-371.09"/>
<polygon fill="#63b8ff" stroke="#63b8ff" points="981.37,-396.15 981.47,-406.75 988,-398.4 981.37,-396.15"/>
</a>
</g>
</g>
<!-- Node21&#45;&gt;Node3 -->
<g id="edge32_Node000021_Node000003" class="edge">
<title>Node21&#45;&gt;Node3</title>
<g id="a_edge32_Node000021_Node000003"><a xlink:title=" ">
<path fill="none" stroke="#63b8ff" d="M965.11,-348.18C932.9,-335.53 883.62,-316.18 855.39,-305.1"/>
<polygon fill="#63b8ff" stroke="#63b8ff" points="963.93,-351.47 974.52,-351.87 966.49,-344.96 963.93,-351.47"/>
</a>
</g>
</g>
<!-- Node21&#45;&gt;Node4 -->
<g id="edge26_Node000021_Node000004" class="edge">
<title>Node21&#45;&gt;Node4</title>
<g id="a_edge26_Node000021_Node000004"><a xlink:title=" ">
<path fill="none" stroke="#63b8ff" d="M984.61,-343.71C970.36,-324.69 944.85,-293.89 916.5,-275 886.23,-254.83 846.72,-241.37 818.46,-233.54"/>
<polygon fill="#63b8ff" stroke="#63b8ff" points="981.93,-345.98 990.66,-351.99 987.59,-341.85 981.93,-345.98"/>
</a>
</g>
</g>
<!-- Node21&#45;&gt;Node6 -->
<g id="edge27_Node000021_Node000006" class="edge">
<title>Node21&#45;&gt;Node6</title>
<g id="a_edge27_Node000021_Node000006"><a xlink:title=" ">
<path fill="none" stroke="#63b8ff" d="M994.37,-341.28C991.07,-311.48 984.86,-255.32 982.47,-233.75"/>
<polygon fill="#63b8ff" stroke="#63b8ff" points="990.94,-342.06 995.52,-351.61 997.89,-341.29 990.94,-342.06"/>
</a>
</g>
</g>
<!-- Node21&#45;&gt;Node7 -->
<g id="edge30_Node000021_Node000007" class="edge">
<title>Node21&#45;&gt;Node7</title>
<g id="a_edge30_Node000021_Node000007"><a xlink:title=" ">
<path fill="none" stroke="#63b8ff" d="M1007.28,-343.24C1019.48,-324.71 1040.77,-295.21 1064.5,-275 1085.68,-256.96 1114.36,-242.24 1133.37,-233.56"/>
<polygon fill="#63b8ff" stroke="#63b8ff" points="1004.23,-341.52 1001.76,-351.83 1010.11,-345.31 1004.23,-341.52"/>
</a>
</g>
</g>
<!-- Node21&#45;&gt;Node17 -->
<g id="edge31_Node000021_Node000017" class="edge">
<title>Node21&#45;&gt;Node17</title>
<g id="a_edge31_Node000021_Node000017"><a xlink:title=" ">
<path fill="none" stroke="#63b8ff" d="M923.19,-350.53C862.41,-341.66 781.2,-328.24 750.5,-316 697.45,-294.85 643.31,-251.98 621.5,-233.64"/>
<polygon fill="#63b8ff" stroke="#63b8ff" points="922.74,-354 933.13,-351.97 923.74,-347.07 922.74,-354"/>
</a>
</g>
</g>
<!-- Node22 -->
<g id="Node000022" class="node">
<title>Node22</title>
<g id="a_Node000022"><a xlink:href="_i_rate_request_8h.html" target="_top" xlink:title=" ">
<polygon fill="white" stroke="#666666" points="1247.5,-316 1073.5,-316 1073.5,-275 1247.5,-275 1247.5,-316"/>
<text text-anchor="start" x="1081.5" y="-304" font-family="Helvetica,sans-Serif" font-size="10.00">/home/runner/work/kit.core</text>
<text text-anchor="start" x="1081.5" y="-293" font-family="Helvetica,sans-Serif" font-size="10.00">/kit.core/projects/examples</text>
<text text-anchor="middle" x="1160.5" y="-282" font-family="Helvetica,sans-Serif" font-size="10.00">/Itc/Synchronous/IRateRequest.h</text>
</a>
</g>
</g>
<!-- Node21&#45;&gt;Node22 -->
<g id="edge23_Node000021_Node000022" class="edge">
<title>Node21&#45;&gt;Node22</title>
<g id="a_edge23_Node000021_Node000022"><a xlink:title=" ">
<path fill="none" stroke="#63b8ff" d="M1028.04,-348.19C1051.38,-339.08 1083.66,-326.49 1110.51,-316.01"/>
<polygon fill="#63b8ff" stroke="#63b8ff" points="1026.66,-344.97 1018.62,-351.87 1029.21,-351.49 1026.66,-344.97"/>
</a>
</g>
</g>
<!-- Node24 -->
<g id="Node000024" class="node">
<title>Node24</title>
<g id="a_Node000024"><a xlink:href="_i_listener_client_request_8h.html" target="_top" xlink:title=" ">
<polygon fill="white" stroke="#666666" points="1421,-310.5 1270,-310.5 1270,-280.5 1421,-280.5 1421,-310.5"/>
<text text-anchor="start" x="1278" y="-298.5" font-family="Helvetica,sans-Serif" font-size="10.00">Kit/Io/Socket/IListenerClient</text>
<text text-anchor="middle" x="1345.5" y="-287.5" font-family="Helvetica,sans-Serif" font-size="10.00">Request.h</text>
</a>
</g>
</g>
<!-- Node21&#45;&gt;Node24 -->
<g id="edge28_Node000021_Node000024" class="edge">
<title>Node21&#45;&gt;Node24</title>
<g id="a_edge28_Node000021_Node000024"><a xlink:title=" ">
<path fill="none" stroke="#63b8ff" d="M1060.55,-350.38C1113.27,-341.85 1189.89,-328.99 1256.5,-316 1265.19,-314.3 1274.34,-312.42 1283.33,-310.5"/>
<polygon fill="#63b8ff" stroke="#63b8ff" points="1059.98,-346.93 1050.66,-351.98 1061.09,-353.84 1059.98,-346.93"/>
</a>
</g>
</g>
<!-- Node23 -->
<g id="Node000023" class="node">
<title>Node23</title>
<g id="a_Node000023"><a xlink:href="_rate_sync_8h.html" target="_top" xlink:title=" ">
<polygon fill="white" stroke="#666666" points="1323,-118 1168,-118 1168,-77 1323,-77 1323,-118"/>
<text text-anchor="start" x="1176" y="-106" font-family="Helvetica,sans-Serif" font-size="10.00">/home/runner/work/kit.core</text>
<text text-anchor="start" x="1176" y="-95" font-family="Helvetica,sans-Serif" font-size="10.00">/kit.core/projects/examples</text>
<text text-anchor="middle" x="1245.5" y="-84" font-family="Helvetica,sans-Serif" font-size="10.00">/Itc/Synchronous/RateSync.h</text>
</a>
</g>
</g>
<!-- Node22&#45;&gt;Node23 -->
<g id="edge24_Node000022_Node000023" class="edge">
<title>Node22&#45;&gt;Node23</title>
<g id="a_edge24_Node000022_Node000023"><a xlink:title=" ">
<path fill="none" stroke="#63b8ff" d="M1200.02,-268.6C1209.82,-260.3 1219.29,-250.29 1225.5,-239 1246.87,-200.14 1248.08,-146.46 1246.91,-118.02"/>
<polygon fill="#63b8ff" stroke="#63b8ff" points="1197.77,-265.92 1192.14,-274.89 1202.14,-271.39 1197.77,-265.92"/>
</a>
</g>
</g>
<!-- Node23&#45;&gt;Node14 -->
<g id="edge25_Node000023_Node000014" class="edge">
<title>Node23&#45;&gt;Node14</title>
<g id="a_edge25_Node000023_Node000014"><a xlink:title=" ">
<path fill="none" stroke="#63b8ff" d="M1245.5,-66.69C1245.5,-58.08 1245.5,-48.9 1245.5,-41.07"/>
<polygon fill="#63b8ff" stroke="#63b8ff" points="1242,-66.79 1245.5,-76.79 1249,-66.79 1242,-66.79"/>
</a>
</g>
</g>
<!-- Node25 -->
<g id="Node000025" class="node">
<title>Node25</title>
<g id="a_Node000025"><a xlink:href="_listener_client_sync_8h.html" target="_top" xlink:title=" ">
<polygon fill="white" stroke="#666666" points="1421.5,-239 1273.5,-239 1273.5,-209 1421.5,-209 1421.5,-239"/>
<text text-anchor="start" x="1281.5" y="-227" font-family="Helvetica,sans-Serif" font-size="10.00">Kit/Io/Socket/ListenerClient</text>
<text text-anchor="middle" x="1347.5" y="-216" font-family="Helvetica,sans-Serif" font-size="10.00">Sync.h</text>
</a>
</g>
</g>
<!-- Node24&#45;&gt;Node25 -->
<g id="edge29_Node000024_Node000025" class="edge">
<title>Node24&#45;&gt;Node25</title>
<g id="a_edge29_Node000024_Node000025"><a xlink:title=" ">
<path fill="none" stroke="#63b8ff" d="M1346.2,-270.25C1346.5,-259.81 1346.84,-247.99 1347.1,-239.04"/>
<polygon fill="#63b8ff" stroke="#63b8ff" points="1342.69,-270.34 1345.9,-280.44 1349.69,-270.54 1342.69,-270.34"/>
</a>
</g>
</g>
</g>
</svg>
