<?xml version="1.0" encoding="UTF-8" standalone="no"?>
<!DOCTYPE svg PUBLIC "-//W3C//DTD SVG 1.1//EN"
 "http://www.w3.org/Graphics/SVG/1.1/DTD/svg11.dtd">
<!-- Generated by graphviz version 2.43.0 (0)
 -->
<!-- Title: Kit/Itc/IReturnHandler.h Pages: 1 -->
<svg width="885pt" height="456pt"
 viewBox="0.00 0.00 884.50 456.00" xmlns="http://www.w3.org/2000/svg" xmlns:xlink="http://www.w3.org/1999/xlink">
<g id="graph0" class="graph" transform="scale(1 1) rotate(0) translate(4 452)">
<title>Kit/Itc/IReturnHandler.h</title>
<!-- Node1 -->
<g id="Node000001" class="node">
<title>Node1</title>
<g id="a_Node000001"><a xlink:title=" ">
<polygon fill="#999999" stroke="#666666" points="601.5,-448 471.5,-448 471.5,-429 601.5,-429 601.5,-448"/>
<text text-anchor="middle" x="536.5" y="-436" font-family="Helvetica,sans-Serif" font-size="10.00">Kit/Itc/IReturnHandler.h</text>
</a>
</g>
</g>
<!-- Node2 -->
<g id="Node000002" class="node">
<title>Node2</title>
<g id="a_Node000002"><a xlink:href="_async_return_handler_8h.html" target="_top" xlink:title=" ">
<polygon fill="white" stroke="#666666" points="388.5,-338 232.5,-338 232.5,-319 388.5,-319 388.5,-338"/>
<text text-anchor="middle" x="310.5" y="-326" font-family="Helvetica,sans-Serif" font-size="10.00">Kit/Itc/AsyncReturnHandler.h</text>
</a>
</g>
</g>
<!-- Node1&#45;&gt;Node2 -->
<g id="edge1_Node000001_Node000002" class="edge">
<title>Node1&#45;&gt;Node2</title>
<g id="a_edge1_Node000001_Node000002"><a xlink:title=" ">
<path fill="none" stroke="#63b8ff" d="M478.13,-426.77C448.58,-419.82 412.84,-409.01 383.5,-393 356.37,-378.2 330.53,-351.87 318.14,-338.23"/>
<polygon fill="#63b8ff" stroke="#63b8ff" points="477.37,-430.19 487.89,-428.99 478.91,-423.36 477.37,-430.19"/>
</a>
</g>
</g>
<!-- Node15 -->
<g id="Node000015" class="node">
<title>Node15</title>
<g id="a_Node000015"><a xlink:href="_null_return_handler_8h.html" target="_top" xlink:title=" ">
<polygon fill="white" stroke="#666666" points="688.5,-393 542.5,-393 542.5,-374 688.5,-374 688.5,-393"/>
<text text-anchor="middle" x="615.5" y="-381" font-family="Helvetica,sans-Serif" font-size="10.00">Kit/Itc/NullReturnHandler.h</text>
</a>
</g>
</g>
<!-- Node1&#45;&gt;Node15 -->
<g id="edge16_Node000001_Node000015" class="edge">
<title>Node1&#45;&gt;Node15</title>
<g id="a_edge16_Node000001_Node000015"><a xlink:title=" ">
<path fill="none" stroke="#63b8ff" d="M557.89,-423.15C572.17,-413.57 590.47,-401.29 602.58,-393.17"/>
<polygon fill="#63b8ff" stroke="#63b8ff" points="555.55,-420.51 549.19,-428.98 559.45,-426.32 555.55,-420.51"/>
</a>
</g>
</g>
<!-- Node16 -->
<g id="Node000016" class="node">
<title>Node16</title>
<g id="a_Node000016"><a xlink:href="_server_message_8h.html" target="_top" xlink:title=" ">
<polygon fill="white" stroke="#666666" points="524.5,-393 392.5,-393 392.5,-374 524.5,-374 524.5,-393"/>
<text text-anchor="middle" x="458.5" y="-381" font-family="Helvetica,sans-Serif" font-size="10.00">Kit/Itc/ServerMessage.h</text>
</a>
</g>
</g>
<!-- Node1&#45;&gt;Node16 -->
<g id="edge17_Node000001_Node000016" class="edge">
<title>Node1&#45;&gt;Node16</title>
<g id="a_edge17_Node000001_Node000016"><a xlink:title=" ">
<path fill="none" stroke="#63b8ff" d="M515.38,-423.15C501.29,-413.57 483.21,-401.29 471.26,-393.17"/>
<polygon fill="#63b8ff" stroke="#63b8ff" points="513.73,-426.26 523.97,-428.98 517.66,-420.47 513.73,-426.26"/>
</a>
</g>
</g>
<!-- Node20 -->
<g id="Node000020" class="node">
<title>Node20</title>
<g id="a_Node000020"><a xlink:href="_sync_return_handler_8h.html" target="_top" xlink:title=" ">
<polygon fill="white" stroke="#666666" points="856.5,-393 706.5,-393 706.5,-374 856.5,-374 856.5,-393"/>
<text text-anchor="middle" x="781.5" y="-381" font-family="Helvetica,sans-Serif" font-size="10.00">Kit/Itc/SyncReturnHandler.h</text>
</a>
</g>
</g>
<!-- Node1&#45;&gt;Node20 -->
<g id="edge26_Node000001_Node000020" class="edge">
<title>Node1&#45;&gt;Node20</title>
<g id="a_edge26_Node000001_Node000020"><a xlink:title=" ">
<path fill="none" stroke="#63b8ff" d="M585.89,-426.82C631.8,-416.88 699.33,-402.28 741.83,-393.08"/>
<polygon fill="#63b8ff" stroke="#63b8ff" points="584.9,-423.45 575.86,-428.98 586.38,-430.29 584.9,-423.45"/>
</a>
</g>
</g>
<!-- Node3 -->
<g id="Node000003" class="node">
<title>Node3</title>
<g id="a_Node000003"><a xlink:href="_response_message_8h.html" target="_top" xlink:title=" ">
<polygon fill="white" stroke="#666666" points="390.5,-277.5 242.5,-277.5 242.5,-258.5 390.5,-258.5 390.5,-277.5"/>
<text text-anchor="middle" x="316.5" y="-265.5" font-family="Helvetica,sans-Serif" font-size="10.00">Kit/Itc/ResponseMessage.h</text>
</a>
</g>
</g>
<!-- Node2&#45;&gt;Node3 -->
<g id="edge2_Node000002_Node000003" class="edge">
<title>Node2&#45;&gt;Node3</title>
<g id="a_edge2_Node000002_Node000003"><a xlink:title=" ">
<path fill="none" stroke="#63b8ff" d="M312.43,-308.66C313.5,-298.24 314.78,-285.8 315.61,-277.67"/>
<polygon fill="#63b8ff" stroke="#63b8ff" points="308.92,-308.56 311.39,-318.87 315.89,-309.28 308.92,-308.56"/>
</a>
</g>
</g>
<!-- Node4 -->
<g id="Node000004" class="node">
<title>Node4</title>
<g id="a_Node000004"><a xlink:href="_erase_request_8h.html" target="_top" xlink:title=" ">
<polygon fill="white" stroke="#666666" points="567,-211.5 386,-211.5 386,-192.5 567,-192.5 567,-211.5"/>
<text text-anchor="middle" x="476.5" y="-199.5" font-family="Helvetica,sans-Serif" font-size="10.00">Kit/Dm/Persistent/EraseRequest.h</text>
</a>
</g>
</g>
<!-- Node3&#45;&gt;Node4 -->
<g id="edge3_Node000003_Node000004" class="edge">
<title>Node3&#45;&gt;Node4</title>
<g id="a_edge3_Node000003_Node000004"><a xlink:title=" ">
<path fill="none" stroke="#63b8ff" d="M347.72,-254.51C379.35,-241.86 427.42,-222.63 455.01,-211.6"/>
<polygon fill="#63b8ff" stroke="#63b8ff" points="346.06,-251.41 338.08,-258.37 348.66,-257.9 346.06,-251.41"/>
</a>
</g>
</g>
<!-- Node6 -->
<g id="Node000006" class="node">
<title>Node6</title>
<g id="a_Node000006"><a xlink:href="_flush_request_8h.html" target="_top" xlink:title=" ">
<polygon fill="white" stroke="#666666" points="367.5,-211.5 187.5,-211.5 187.5,-192.5 367.5,-192.5 367.5,-211.5"/>
<text text-anchor="middle" x="277.5" y="-199.5" font-family="Helvetica,sans-Serif" font-size="10.00">Kit/Dm/Persistent/FlushRequest.h</text>
</a>
</g>
</g>
<!-- Node3&#45;&gt;Node6 -->
<g id="edge5_Node000003_Node000006" class="edge">
<title>Node3&#45;&gt;Node6</title>
<g id="a_edge5_Node000003_Node000006"><a xlink:title=" ">
<path fill="none" stroke="#63b8ff" d="M305.87,-249.55C298.44,-237.36 288.84,-221.61 282.93,-211.91"/>
<polygon fill="#63b8ff" stroke="#63b8ff" points="303.05,-251.65 311.24,-258.37 309.03,-248.01 303.05,-251.65"/>
</a>
</g>
</g>
<!-- Node7 -->
<g id="Node000007" class="node">
<title>Node7</title>
<g id="a_Node000007"><a xlink:href="_i_close_request_8h.html" target="_top" xlink:title=" ">
<polygon fill="white" stroke="#666666" points="169,-211.5 42,-211.5 42,-192.5 169,-192.5 169,-211.5"/>
<text text-anchor="middle" x="105.5" y="-199.5" font-family="Helvetica,sans-Serif" font-size="10.00">Kit/Itc/ICloseRequest.h</text>
</a>
</g>
</g>
<!-- Node3&#45;&gt;Node7 -->
<g id="edge7_Node000003_Node000007" class="edge">
<title>Node3&#45;&gt;Node7</title>
<g id="a_edge7_Node000003_Node000007"><a xlink:title=" ">
<path fill="none" stroke="#63b8ff" d="M278.27,-255.4C236.66,-242.78 171.09,-222.89 133.84,-211.6"/>
<polygon fill="#63b8ff" stroke="#63b8ff" points="277.46,-258.82 288.04,-258.37 279.49,-252.12 277.46,-258.82"/>
</a>
</g>
</g>
<!-- Node13 -->
<g id="Node000013" class="node">
<title>Node13</title>
<g id="a_Node000013"><a xlink:href="_i_open_request_8h.html" target="_top" xlink:title=" ">
<polygon fill="white" stroke="#666666" points="710,-211.5 585,-211.5 585,-192.5 710,-192.5 710,-211.5"/>
<text text-anchor="middle" x="647.5" y="-199.5" font-family="Helvetica,sans-Serif" font-size="10.00">Kit/Itc/IOpenRequest.h</text>
</a>
</g>
</g>
<!-- Node3&#45;&gt;Node13 -->
<g id="edge13_Node000003_Node000013" class="edge">
<title>Node3&#45;&gt;Node13</title>
<g id="a_edge13_Node000003_Node000013"><a xlink:title=" ">
<path fill="none" stroke="#63b8ff" d="M371.04,-256.49C423.46,-246.39 504.9,-230.68 575.5,-217 584.63,-215.23 594.4,-213.33 603.72,-211.52"/>
<polygon fill="#63b8ff" stroke="#63b8ff" points="370.12,-253.11 360.96,-258.44 371.44,-259.98 370.12,-253.11"/>
</a>
</g>
</g>
<!-- Node5 -->
<g id="Node000005" class="node">
<title>Node5</title>
<g id="a_Node000005"><a xlink:href="_record_8h.html" target="_top" xlink:title=" ">
<polygon fill="white" stroke="#666666" points="407.5,-151 259.5,-151 259.5,-132 407.5,-132 407.5,-151"/>
<text text-anchor="middle" x="333.5" y="-139" font-family="Helvetica,sans-Serif" font-size="10.00">Kit/Dm/Persistent/Record.h</text>
</a>
</g>
</g>
<!-- Node4&#45;&gt;Node5 -->
<g id="edge4_Node000004_Node000005" class="edge">
<title>Node4&#45;&gt;Node5</title>
<g id="a_edge4_Node000004_Node000005"><a xlink:title=" ">
<path fill="none" stroke="#63b8ff" d="M446.14,-188.58C418.52,-177.28 378.48,-160.9 354.32,-151.02"/>
<polygon fill="#63b8ff" stroke="#63b8ff" points="445.13,-191.95 455.71,-192.49 447.78,-185.47 445.13,-191.95"/>
</a>
</g>
</g>
<!-- Node6&#45;&gt;Node5 -->
<g id="edge6_Node000006_Node000005" class="edge">
<title>Node6&#45;&gt;Node5</title>
<g id="a_edge6_Node000006_Node000005"><a xlink:title=" ">
<path fill="none" stroke="#63b8ff" d="M292.73,-185.09C303.19,-174.17 316.67,-160.08 325.2,-151.17"/>
<polygon fill="#63b8ff" stroke="#63b8ff" points="290.15,-182.72 285.76,-192.37 295.21,-187.56 290.15,-182.72"/>
</a>
</g>
</g>
<!-- Node8 -->
<g id="Node000008" class="node">
<title>Node8</title>
<g id="a_Node000008"><a xlink:href="_open_close_sync_8h.html" target="_top" xlink:title=" ">
<polygon fill="white" stroke="#666666" points="386,-96 253,-96 253,-77 386,-77 386,-96"/>
<text text-anchor="middle" x="319.5" y="-84" font-family="Helvetica,sans-Serif" font-size="10.00">Kit/Itc/OpenCloseSync.h</text>
</a>
</g>
</g>
<!-- Node7&#45;&gt;Node8 -->
<g id="edge8_Node000007_Node000008" class="edge">
<title>Node7&#45;&gt;Node8</title>
<g id="a_edge8_Node000007_Node000008"><a xlink:title=" ">
<path fill="none" stroke="#63b8ff" d="M130.55,-187.71C174.92,-164.18 266.1,-115.82 303.23,-96.13"/>
<polygon fill="#63b8ff" stroke="#63b8ff" points="128.78,-184.69 121.58,-192.47 132.06,-190.88 128.78,-184.69"/>
</a>
</g>
</g>
<!-- Node9 -->
<g id="Node000009" class="node">
<title>Node9</title>
<g id="a_Node000009"><a xlink:href="_client_8h.html" target="_top" xlink:title=" ">
<polygon fill="white" stroke="#666666" points="149,-41 0,-41 0,0 149,0 149,-41"/>
<text text-anchor="start" x="8" y="-29" font-family="Helvetica,sans-Serif" font-size="10.00">/home/runner/work/kit.core</text>
<text text-anchor="start" x="8" y="-18" font-family="Helvetica,sans-Serif" font-size="10.00">/kit.core/projects/examples</text>
<text text-anchor="middle" x="74.5" y="-7" font-family="Helvetica,sans-Serif" font-size="10.00">/Dm/Transaction/Client.h</text>
</a>
</g>
</g>
<!-- Node8&#45;&gt;Node9 -->
<g id="edge9_Node000008_Node000009" class="edge">
<title>Node8&#45;&gt;Node9</title>
<g id="a_edge9_Node000008_Node000009"><a xlink:title=" ">
<path fill="none" stroke="#63b8ff" d="M276.78,-74.34C241.61,-65.15 190.92,-51.91 149.09,-40.98"/>
<polygon fill="#63b8ff" stroke="#63b8ff" points="276.15,-77.79 286.71,-76.94 277.92,-71.02 276.15,-77.79"/>
</a>
</g>
</g>
<!-- Node10 -->
<g id="Node000010" class="node">
<title>Node10</title>
<g id="a_Node000010"><a xlink:href="projects_2examples_2_dm_2_transaction_2_server_8h.html" target="_top" xlink:title=" ">
<polygon fill="white" stroke="#666666" points="316,-41 167,-41 167,0 316,0 316,-41"/>
<text text-anchor="start" x="175" y="-29" font-family="Helvetica,sans-Serif" font-size="10.00">/home/runner/work/kit.core</text>
<text text-anchor="start" x="175" y="-18" font-family="Helvetica,sans-Serif" font-size="10.00">/kit.core/projects/examples</text>
<text text-anchor="middle" x="241.5" y="-7" font-family="Helvetica,sans-Serif" font-size="10.00">/Dm/Transaction/Server.h</text>
</a>
</g>
</g>
<!-- Node8&#45;&gt;Node10 -->
<g id="edge10_Node000008_Node000010" class="edge">
<title>Node8&#45;&gt;Node10</title>
<g id="a_edge10_Node000008_Node000010"><a xlink:title=" ">
<path fill="none" stroke="#63b8ff" d="M301.11,-70.41C290.41,-61.63 276.79,-50.46 265.28,-41.01"/>
<polygon fill="#63b8ff" stroke="#63b8ff" points="299.03,-73.23 308.98,-76.87 303.47,-67.82 299.03,-73.23"/>
</a>
</g>
</g>
<!-- Node11 -->
<g id="Node000011" class="node">
<title>Node11</title>
<g id="a_Node000011"><a xlink:href="_log_sink_8h.html" target="_top" xlink:title=" ">
<polygon fill="white" stroke="#666666" points="463,-35.5 334,-35.5 334,-5.5 463,-5.5 463,-35.5"/>
<text text-anchor="start" x="342" y="-23.5" font-family="Helvetica,sans-Serif" font-size="10.00">Kit/Logging/Framework</text>
<text text-anchor="middle" x="398.5" y="-12.5" font-family="Helvetica,sans-Serif" font-size="10.00">/LogSink.h</text>
</a>
</g>
</g>
<!-- Node8&#45;&gt;Node11 -->
<g id="edge11_Node000008_Node000011" class="edge">
<title>Node8&#45;&gt;Node11</title>
<g id="a_edge11_Node000008_Node000011"><a xlink:title=" ">
<path fill="none" stroke="#63b8ff" d="M338,-70.52C351.01,-59.98 368.31,-45.96 381.08,-35.62"/>
<polygon fill="#63b8ff" stroke="#63b8ff" points="335.72,-67.85 330.15,-76.87 340.13,-73.29 335.72,-67.85"/>
</a>
</g>
</g>
<!-- Node12 -->
<g id="Node000012" class="node">
<title>Node12</title>
<g id="a_Node000012"><a xlink:href="helpers_8h.html" target="_top" xlink:title="This file defines helper functions/interface for writing unit tests.">
<polygon fill="white" stroke="#666666" points="593.5,-35.5 481.5,-35.5 481.5,-5.5 593.5,-5.5 593.5,-35.5"/>
<text text-anchor="start" x="489.5" y="-23.5" font-family="Helvetica,sans-Serif" font-size="10.00">Kit/_support/testing</text>
<text text-anchor="middle" x="537.5" y="-12.5" font-family="Helvetica,sans-Serif" font-size="10.00">/helpers.h</text>
</a>
</g>
</g>
<!-- Node8&#45;&gt;Node12 -->
<g id="edge12_Node000008_Node000012" class="edge">
<title>Node8&#45;&gt;Node12</title>
<g id="a_edge12_Node000008_Node000012"><a xlink:title=" ">
<path fill="none" stroke="#63b8ff" d="M358.53,-74.1C389.24,-65.13 433.11,-52.29 471.5,-41 477.46,-39.25 483.72,-37.4 489.92,-35.57"/>
<polygon fill="#63b8ff" stroke="#63b8ff" points="357.26,-70.83 348.65,-76.99 359.23,-77.55 357.26,-70.83"/>
</a>
</g>
</g>
<!-- Node14 -->
<g id="Node000014" class="node">
<title>Node14</title>
<g id="a_Node000014"><a xlink:href="_open_sync_8h.html" target="_top" xlink:title=" ">
<polygon fill="white" stroke="#666666" points="643.5,-151 537.5,-151 537.5,-132 643.5,-132 643.5,-151"/>
<text text-anchor="middle" x="590.5" y="-139" font-family="Helvetica,sans-Serif" font-size="10.00">Kit/Itc/OpenSync.h</text>
</a>
</g>
</g>
<!-- Node13&#45;&gt;Node14 -->
<g id="edge14_Node000013_Node000014" class="edge">
<title>Node13&#45;&gt;Node14</title>
<g id="a_edge14_Node000013_Node000014"><a xlink:title=" ">
<path fill="none" stroke="#63b8ff" d="M632,-185.09C621.35,-174.17 607.63,-160.08 598.95,-151.17"/>
<polygon fill="#63b8ff" stroke="#63b8ff" points="629.6,-187.65 639.09,-192.37 634.62,-182.76 629.6,-187.65"/>
</a>
</g>
</g>
<!-- Node14&#45;&gt;Node8 -->
<g id="edge15_Node000014_Node000008" class="edge">
<title>Node14&#45;&gt;Node8</title>
<g id="a_edge15_Node000014_Node000008"><a xlink:title=" ">
<path fill="none" stroke="#63b8ff" d="M537.14,-130.07C486.34,-120.13 410.79,-105.35 363.38,-96.08"/>
<polygon fill="#63b8ff" stroke="#63b8ff" points="536.47,-133.5 546.96,-131.98 537.82,-126.63 536.47,-133.5"/>
</a>
</g>
</g>
<!-- Node17 -->
<g id="Node000017" class="node">
<title>Node17</title>
<g id="a_Node000017"><a xlink:href="_request_message_8h.html" target="_top" xlink:title=" ">
<polygon fill="white" stroke="#666666" points="546.5,-338 406.5,-338 406.5,-319 546.5,-319 546.5,-338"/>
<text text-anchor="middle" x="476.5" y="-326" font-family="Helvetica,sans-Serif" font-size="10.00">Kit/Itc/RequestMessage.h</text>
</a>
</g>
</g>
<!-- Node16&#45;&gt;Node17 -->
<g id="edge18_Node000016_Node000017" class="edge">
<title>Node16&#45;&gt;Node17</title>
<g id="a_edge18_Node000016_Node000017"><a xlink:title=" ">
<path fill="none" stroke="#63b8ff" d="M464.7,-364.24C467.71,-355.37 471.19,-345.14 473.58,-338.09"/>
<polygon fill="#63b8ff" stroke="#63b8ff" points="461.37,-363.15 461.47,-373.75 468,-365.4 461.37,-363.15"/>
</a>
</g>
</g>
<!-- Node17&#45;&gt;Node3 -->
<g id="edge25_Node000017_Node000003" class="edge">
<title>Node17&#45;&gt;Node3</title>
<g id="a_edge25_Node000017_Node000003"><a xlink:title=" ">
<path fill="none" stroke="#63b8ff" d="M443.75,-315.52C412.81,-304.21 367.18,-287.53 339.79,-277.52"/>
<polygon fill="#63b8ff" stroke="#63b8ff" points="442.64,-318.85 453.23,-318.99 445.04,-312.27 442.64,-318.85"/>
</a>
</g>
</g>
<!-- Node17&#45;&gt;Node4 -->
<g id="edge19_Node000017_Node000004" class="edge">
<title>Node17&#45;&gt;Node4</title>
<g id="a_edge19_Node000017_Node000004"><a xlink:title=" ">
<path fill="none" stroke="#63b8ff" d="M476.5,-308.74C476.5,-281.36 476.5,-231.58 476.5,-211.62"/>
<polygon fill="#63b8ff" stroke="#63b8ff" points="473,-308.94 476.5,-318.94 480,-308.94 473,-308.94"/>
</a>
</g>
</g>
<!-- Node17&#45;&gt;Node6 -->
<g id="edge20_Node000017_Node000006" class="edge">
<title>Node17&#45;&gt;Node6</title>
<g id="a_edge20_Node000017_Node000006"><a xlink:title=" ">
<path fill="none" stroke="#63b8ff" d="M462.67,-310.83C448.29,-294.34 424.43,-269.29 399.5,-253 370.28,-233.9 332.58,-219.81 306.87,-211.54"/>
<polygon fill="#63b8ff" stroke="#63b8ff" points="460.13,-313.24 469.28,-318.57 465.45,-308.69 460.13,-313.24"/>
</a>
</g>
</g>
<!-- Node17&#45;&gt;Node7 -->
<g id="edge23_Node000017_Node000007" class="edge">
<title>Node17&#45;&gt;Node7</title>
<g id="a_edge23_Node000017_Node000007"><a xlink:title=" ">
<path fill="none" stroke="#63b8ff" d="M405.17,-317.47C345.06,-308.46 264.12,-294.87 233.5,-283 186.1,-264.62 137.03,-228.16 116.05,-211.57"/>
<polygon fill="#63b8ff" stroke="#63b8ff" points="404.97,-320.98 415.37,-318.99 406,-314.06 404.97,-320.98"/>
</a>
</g>
</g>
<!-- Node17&#45;&gt;Node13 -->
<g id="edge24_Node000017_Node000013" class="edge">
<title>Node17&#45;&gt;Node13</title>
<g id="a_edge24_Node000017_Node000013"><a xlink:title=" ">
<path fill="none" stroke="#63b8ff" d="M496.51,-312.93C532.42,-286.78 606.78,-232.65 635.66,-211.62"/>
<polygon fill="#63b8ff" stroke="#63b8ff" points="494.28,-310.23 488.25,-318.94 498.4,-315.89 494.28,-310.23"/>
</a>
</g>
</g>
<!-- Node18 -->
<g id="Node000018" class="node">
<title>Node18</title>
<g id="a_Node000018"><a xlink:href="_i_listener_client_request_8h.html" target="_top" xlink:title=" ">
<polygon fill="white" stroke="#666666" points="819,-283 668,-283 668,-253 819,-253 819,-283"/>
<text text-anchor="start" x="676" y="-271" font-family="Helvetica,sans-Serif" font-size="10.00">Kit/Io/Socket/IListenerClient</text>
<text text-anchor="middle" x="743.5" y="-260" font-family="Helvetica,sans-Serif" font-size="10.00">Request.h</text>
</a>
</g>
</g>
<!-- Node17&#45;&gt;Node18 -->
<g id="edge21_Node000017_Node000018" class="edge">
<title>Node17&#45;&gt;Node18</title>
<g id="a_edge21_Node000017_Node000018"><a xlink:title=" ">
<path fill="none" stroke="#63b8ff" d="M525.33,-316.8C568.65,-307.31 632.21,-293.38 679.57,-283.01"/>
<polygon fill="#63b8ff" stroke="#63b8ff" points="524.34,-313.43 515.32,-318.99 525.84,-320.27 524.34,-313.43"/>
</a>
</g>
</g>
<!-- Node19 -->
<g id="Node000019" class="node">
<title>Node19</title>
<g id="a_Node000019"><a xlink:href="_listener_client_sync_8h.html" target="_top" xlink:title=" ">
<polygon fill="white" stroke="#666666" points="876.5,-217 728.5,-217 728.5,-187 876.5,-187 876.5,-217"/>
<text text-anchor="start" x="736.5" y="-205" font-family="Helvetica,sans-Serif" font-size="10.00">Kit/Io/Socket/ListenerClient</text>
<text text-anchor="middle" x="802.5" y="-194" font-family="Helvetica,sans-Serif" font-size="10.00">Sync.h</text>
</a>
</g>
</g>
<!-- Node18&#45;&gt;Node19 -->
<g id="edge22_Node000018_Node000019" class="edge">
<title>Node18&#45;&gt;Node19</title>
<g id="a_edge22_Node000018_Node000019"><a xlink:title=" ">
<path fill="none" stroke="#63b8ff" d="M763.44,-245.37C772.02,-236.06 781.81,-225.44 789.44,-217.16"/>
<polygon fill="#63b8ff" stroke="#63b8ff" points="760.8,-243.07 756.59,-252.8 765.95,-247.82 760.8,-243.07"/>
</a>
</g>
</g>
</g>
</svg>
