<?xml version="1.0" encoding="UTF-8" standalone="no"?>
<!DOCTYPE svg PUBLIC "-//W3C//DTD SVG 1.1//EN"
 "http://www.w3.org/Graphics/SVG/1.1/DTD/svg11.dtd">
<!-- Generated by graphviz version 2.43.0 (0)
 -->
<!-- Title: Kit/Text/IString.h Pages: 1 -->
<svg width="2239pt" height="401pt"
 viewBox="0.00 0.00 2239.00 401.00" xmlns="http://www.w3.org/2000/svg" xmlns:xlink="http://www.w3.org/1999/xlink">
<g id="graph0" class="graph" transform="scale(1 1) rotate(0) translate(4 397)">
<title>Kit/Text/IString.h</title>
<!-- Node1 -->
<g id="Node000001" class="node">
<title>Node1</title>
<g id="a_Node000001"><a xlink:title=" ">
<polygon fill="#999999" stroke="#666666" points="1323.5,-393 1226.5,-393 1226.5,-374 1323.5,-374 1323.5,-393"/>
<text text-anchor="middle" x="1275" y="-381" font-family="Helvetica,sans-Serif" font-size="10.00">Kit/Text/IString.h</text>
</a>
</g>
</g>
<!-- Node2 -->
<g id="Node000002" class="node">
<title>Node2</title>
<g id="a_Node000002"><a xlink:href="_i_input_8h.html" target="_top" xlink:title=" ">
<polygon fill="white" stroke="#666666" points="451,-332.5 369,-332.5 369,-313.5 451,-313.5 451,-332.5"/>
<text text-anchor="middle" x="410" y="-320.5" font-family="Helvetica,sans-Serif" font-size="10.00">Kit/Io/IInput.h</text>
</a>
</g>
</g>
<!-- Node1&#45;&gt;Node2 -->
<g id="edge1_Node000001_Node000002" class="edge">
<title>Node1&#45;&gt;Node2</title>
<g id="a_edge1_Node000001_Node000002"><a xlink:title=" ">
<path fill="none" stroke="#63b8ff" d="M1215.94,-378.51C1051.58,-367.39 591.75,-336.29 451.28,-326.79"/>
<polygon fill="#63b8ff" stroke="#63b8ff" points="1216.11,-382.03 1226.33,-379.21 1216.59,-375.04 1216.11,-382.03"/>
</a>
</g>
</g>
<!-- Node19 -->
<g id="Node000019" class="node">
<title>Node19</title>
<g id="a_Node000019"><a xlink:href="_i_line_reader_8h.html" target="_top" xlink:title=" ">
<polygon fill="white" stroke="#666666" points="199.5,-332.5 88.5,-332.5 88.5,-313.5 199.5,-313.5 199.5,-332.5"/>
<text text-anchor="middle" x="144" y="-320.5" font-family="Helvetica,sans-Serif" font-size="10.00">Kit/Io/ILineReader.h</text>
</a>
</g>
</g>
<!-- Node1&#45;&gt;Node19 -->
<g id="edge18_Node000001_Node000019" class="edge">
<title>Node1&#45;&gt;Node19</title>
<g id="a_edge18_Node000001_Node000019"><a xlink:title=" ">
<path fill="none" stroke="#63b8ff" d="M1216.35,-379.98C1071.15,-373.66 683.31,-356.34 360,-338 305.6,-334.91 243.53,-330.83 199.93,-327.87"/>
<polygon fill="#63b8ff" stroke="#63b8ff" points="1216.24,-383.47 1226.38,-380.41 1216.54,-376.48 1216.24,-383.47"/>
</a>
</g>
</g>
<!-- Node20 -->
<g id="Node000020" class="node">
<title>Node20</title>
<g id="a_Node000020"><a xlink:href="_i_line_writer_8h.html" target="_top" xlink:title=" ">
<polygon fill="white" stroke="#666666" points="882.5,-332.5 775.5,-332.5 775.5,-313.5 882.5,-313.5 882.5,-332.5"/>
<text text-anchor="middle" x="829" y="-320.5" font-family="Helvetica,sans-Serif" font-size="10.00">Kit/Io/ILineWriter.h</text>
</a>
</g>
</g>
<!-- Node1&#45;&gt;Node20 -->
<g id="edge20_Node000001_Node000020" class="edge">
<title>Node1&#45;&gt;Node20</title>
<g id="a_edge20_Node000001_Node000020"><a xlink:title=" ">
<path fill="none" stroke="#63b8ff" d="M1216.44,-374.82C1129.34,-363.39 966.9,-342.09 882.7,-331.04"/>
<polygon fill="#63b8ff" stroke="#63b8ff" points="1216.05,-378.3 1226.42,-376.13 1216.96,-371.36 1216.05,-378.3"/>
</a>
</g>
</g>
<!-- Node22 -->
<g id="Node000022" class="node">
<title>Node22</title>
<g id="a_Node000022"><a xlink:href="_i_output_8h.html" target="_top" xlink:title=" ">
<polygon fill="white" stroke="#666666" points="1071,-332.5 981,-332.5 981,-313.5 1071,-313.5 1071,-332.5"/>
<text text-anchor="middle" x="1026" y="-320.5" font-family="Helvetica,sans-Serif" font-size="10.00">Kit/Io/IOutput.h</text>
</a>
</g>
</g>
<!-- Node1&#45;&gt;Node22 -->
<g id="edge22_Node000001_Node000022" class="edge">
<title>Node1&#45;&gt;Node22</title>
<g id="a_edge22_Node000001_Node000022"><a xlink:title=" ">
<path fill="none" stroke="#63b8ff" d="M1228.95,-371.68C1180.83,-360.38 1106.34,-342.88 1062.25,-332.52"/>
<polygon fill="#63b8ff" stroke="#63b8ff" points="1228.26,-375.11 1238.79,-373.99 1229.86,-368.3 1228.26,-375.11"/>
</a>
</g>
</g>
<!-- Node29 -->
<g id="Node000029" class="node">
<title>Node29</title>
<g id="a_Node000029"><a xlink:href="_trace_8h.html" target="_top" xlink:title="This file provides an interface for a &#39;printf&#39; tracing mechanism.">
<polygon fill="white" stroke="#666666" points="1391.5,-266.5 1284.5,-266.5 1284.5,-247.5 1391.5,-247.5 1391.5,-266.5"/>
<text text-anchor="middle" x="1338" y="-254.5" font-family="Helvetica,sans-Serif" font-size="10.00">Kit/System/Trace.h</text>
</a>
</g>
</g>
<!-- Node1&#45;&gt;Node29 -->
<g id="edge38_Node000001_Node000029" class="edge">
<title>Node1&#45;&gt;Node29</title>
<g id="a_edge38_Node000001_Node000029"><a xlink:title=" ">
<path fill="none" stroke="#63b8ff" d="M1283.94,-364.82C1297.67,-337.7 1323.4,-286.85 1333.64,-266.62"/>
<polygon fill="#63b8ff" stroke="#63b8ff" points="1280.72,-363.44 1279.33,-373.94 1286.97,-366.6 1280.72,-363.44"/>
</a>
</g>
</g>
<!-- Node32 -->
<g id="Node000032" class="node">
<title>Node32</title>
<g id="a_Node000032"><a xlink:href="_private_8h.html" target="_top" xlink:title="This file contains a collection of classes, interfaces, etc.">
<polygon fill="white" stroke="#666666" points="1331,-200.5 1215,-200.5 1215,-181.5 1331,-181.5 1331,-200.5"/>
<text text-anchor="middle" x="1273" y="-188.5" font-family="Helvetica,sans-Serif" font-size="10.00">Kit/System/Private.h</text>
</a>
</g>
</g>
<!-- Node1&#45;&gt;Node32 -->
<g id="edge37_Node000001_Node000032" class="edge">
<title>Node1&#45;&gt;Node32</title>
<g id="a_edge37_Node000001_Node000032"><a xlink:title=" ">
<path fill="none" stroke="#63b8ff" d="M1274.8,-363.75C1274.38,-323.43 1273.4,-229.75 1273.09,-200.73"/>
<polygon fill="#63b8ff" stroke="#63b8ff" points="1271.3,-363.86 1274.91,-373.82 1278.3,-363.78 1271.3,-363.86"/>
</a>
</g>
</g>
<!-- Node33 -->
<g id="Node000033" class="node">
<title>Node33</title>
<g id="a_Node000033"><a xlink:href="_formatter_8h.html" target="_top" xlink:title=" ">
<polygon fill="white" stroke="#666666" points="1451.5,-338 1322.5,-338 1322.5,-308 1451.5,-308 1451.5,-338"/>
<text text-anchor="start" x="1330.5" y="-326" font-family="Helvetica,sans-Serif" font-size="10.00">Kit/Logging/Framework</text>
<text text-anchor="middle" x="1387" y="-315" font-family="Helvetica,sans-Serif" font-size="10.00">/Formatter.h</text>
</a>
</g>
</g>
<!-- Node1&#45;&gt;Node33 -->
<g id="edge36_Node000001_Node000033" class="edge">
<title>Node1&#45;&gt;Node33</title>
<g id="a_edge36_Node000001_Node000033"><a xlink:title=" ">
<path fill="none" stroke="#63b8ff" d="M1300.71,-369.07C1318.44,-359.81 1341.97,-347.52 1359.98,-338.11"/>
<polygon fill="#63b8ff" stroke="#63b8ff" points="1298.77,-366.14 1291.53,-373.87 1302.01,-372.34 1298.77,-366.14"/>
</a>
</g>
</g>
<!-- Node34 -->
<g id="Node000034" class="node">
<title>Node34</title>
<g id="a_Node000034"><a xlink:href="_format_8h.html" target="_top" xlink:title=" ">
<polygon fill="white" stroke="#666666" points="1570,-332.5 1470,-332.5 1470,-313.5 1570,-313.5 1570,-332.5"/>
<text text-anchor="middle" x="1520" y="-320.5" font-family="Helvetica,sans-Serif" font-size="10.00">Kit/Text/Format.h</text>
</a>
</g>
</g>
<!-- Node1&#45;&gt;Node34 -->
<g id="edge39_Node000001_Node000034" class="edge">
<title>Node1&#45;&gt;Node34</title>
<g id="a_edge39_Node000001_Node000034"><a xlink:title=" ">
<path fill="none" stroke="#63b8ff" d="M1320.61,-371.61C1367.96,-360.3 1441.04,-342.85 1484.33,-332.52"/>
<polygon fill="#63b8ff" stroke="#63b8ff" points="1319.54,-368.27 1310.63,-373.99 1321.16,-375.08 1319.54,-368.27"/>
</a>
</g>
</g>
<!-- Node35 -->
<g id="Node000035" class="node">
<title>Node35</title>
<g id="a_Node000035"><a xlink:href="_string_base_8h.html" target="_top" xlink:title=" ">
<polygon fill="white" stroke="#666666" points="1706,-332.5 1588,-332.5 1588,-313.5 1706,-313.5 1706,-332.5"/>
<text text-anchor="middle" x="1647" y="-320.5" font-family="Helvetica,sans-Serif" font-size="10.00">Kit/Text/StringBase.h</text>
</a>
</g>
</g>
<!-- Node1&#45;&gt;Node35 -->
<g id="edge40_Node000001_Node000035" class="edge">
<title>Node1&#45;&gt;Node35</title>
<g id="a_edge40_Node000001_Node000035"><a xlink:title=" ">
<path fill="none" stroke="#63b8ff" d="M1333.84,-374.91C1395.2,-366.76 1494.08,-352.94 1579,-338 1588.26,-336.37 1598.19,-334.43 1607.52,-332.53"/>
<polygon fill="#63b8ff" stroke="#63b8ff" points="1333.03,-371.49 1323.58,-376.27 1333.95,-378.43 1333.03,-371.49"/>
</a>
</g>
</g>
<!-- Node52 -->
<g id="Node000052" class="node">
<title>Node52</title>
<g id="a_Node000052"><a xlink:href="_string_item_8h.html" target="_top" xlink:title=" ">
<polygon fill="white" stroke="#666666" points="1932,-266.5 1816,-266.5 1816,-247.5 1932,-247.5 1932,-266.5"/>
<text text-anchor="middle" x="1874" y="-254.5" font-family="Helvetica,sans-Serif" font-size="10.00">Kit/Text/StringItem.h</text>
</a>
</g>
</g>
<!-- Node1&#45;&gt;Node52 -->
<g id="edge57_Node000001_Node000052" class="edge">
<title>Node1&#45;&gt;Node52</title>
<g id="a_edge57_Node000001_Node000052"><a xlink:title=" ">
<path fill="none" stroke="#63b8ff" d="M1333.66,-383.28C1419.24,-382.93 1582.54,-376.59 1715,-338 1772.85,-321.15 1834.82,-283.55 1861.07,-266.59"/>
<polygon fill="#63b8ff" stroke="#63b8ff" points="1333.62,-379.78 1323.62,-383.3 1333.63,-386.78 1333.62,-379.78"/>
</a>
</g>
</g>
<!-- Node3 -->
<g id="Node000003" class="node">
<title>Node3</title>
<g id="a_Node000003"><a xlink:href="_file_2_i_input_8h.html" target="_top" xlink:title=" ">
<polygon fill="white" stroke="#666666" points="398,-266.5 296,-266.5 296,-247.5 398,-247.5 398,-266.5"/>
<text text-anchor="middle" x="347" y="-254.5" font-family="Helvetica,sans-Serif" font-size="10.00">Kit/Io/File/IInput.h</text>
</a>
</g>
</g>
<!-- Node2&#45;&gt;Node3 -->
<g id="edge2_Node000002_Node000003" class="edge">
<title>Node2&#45;&gt;Node3</title>
<g id="a_edge2_Node000002_Node000003"><a xlink:title=" ">
<path fill="none" stroke="#63b8ff" d="M394.23,-305.98C382.06,-293.62 365.69,-276.99 355.77,-266.91"/>
<polygon fill="#63b8ff" stroke="#63b8ff" points="391.99,-308.7 401.5,-313.37 396.98,-303.79 391.99,-308.7"/>
</a>
</g>
</g>
<!-- Node8 -->
<g id="Node000008" class="node">
<title>Node8</title>
<g id="a_Node000008"><a xlink:href="_i_input_output_8h.html" target="_top" xlink:title=" ">
<polygon fill="white" stroke="#666666" points="677.5,-266.5 562.5,-266.5 562.5,-247.5 677.5,-247.5 677.5,-266.5"/>
<text text-anchor="middle" x="620" y="-254.5" font-family="Helvetica,sans-Serif" font-size="10.00">Kit/Io/IInputOutput.h</text>
</a>
</g>
</g>
<!-- Node2&#45;&gt;Node8 -->
<g id="edge7_Node000002_Node000008" class="edge">
<title>Node2&#45;&gt;Node8</title>
<g id="a_edge7_Node000002_Node000008"><a xlink:title=" ">
<path fill="none" stroke="#63b8ff" d="M448.05,-310.4C489.47,-297.78 554.72,-277.89 591.79,-266.6"/>
<polygon fill="#63b8ff" stroke="#63b8ff" points="446.87,-307.11 438.32,-313.37 448.91,-313.8 446.87,-307.11"/>
</a>
</g>
</g>
<!-- Node15 -->
<g id="Node000015" class="node">
<title>Node15</title>
<g id="a_Node000015"><a xlink:href="_line_reader_8h.html" target="_top" xlink:title=" ">
<polygon fill="white" stroke="#666666" points="108,-266.5 0,-266.5 0,-247.5 108,-247.5 108,-266.5"/>
<text text-anchor="middle" x="54" y="-254.5" font-family="Helvetica,sans-Serif" font-size="10.00">Kit/Io/LineReader.h</text>
</a>
</g>
</g>
<!-- Node2&#45;&gt;Node15 -->
<g id="edge14_Node000002_Node000015" class="edge">
<title>Node2&#45;&gt;Node15</title>
<g id="a_edge14_Node000002_Node000015"><a xlink:title=" ">
<path fill="none" stroke="#63b8ff" d="M358.71,-313.95C300.29,-304.6 202.05,-288.38 118,-272 109.4,-270.32 100.19,-268.39 91.5,-266.51"/>
<polygon fill="#63b8ff" stroke="#63b8ff" points="358.36,-317.43 368.79,-315.55 359.46,-310.52 358.36,-317.43"/>
</a>
</g>
</g>
<!-- Node16 -->
<g id="Node000016" class="node">
<title>Node16</title>
<g id="a_Node000016"><a xlink:href="_input_delegate_8h.html" target="_top" xlink:title=" ">
<polygon fill="white" stroke="#666666" points="277.5,-266.5 126.5,-266.5 126.5,-247.5 277.5,-247.5 277.5,-266.5"/>
<text text-anchor="middle" x="202" y="-254.5" font-family="Helvetica,sans-Serif" font-size="10.00">Kit/Io/Stdio/InputDelegate.h</text>
</a>
</g>
</g>
<!-- Node2&#45;&gt;Node16 -->
<g id="edge15_Node000002_Node000016" class="edge">
<title>Node2&#45;&gt;Node16</title>
<g id="a_edge15_Node000002_Node000016"><a xlink:title=" ">
<path fill="none" stroke="#63b8ff" d="M372.31,-310.4C331.29,-297.78 266.66,-277.89 229.94,-266.6"/>
<polygon fill="#63b8ff" stroke="#63b8ff" points="371.36,-313.77 381.95,-313.37 373.42,-307.08 371.36,-313.77"/>
</a>
</g>
</g>
<!-- Node18 -->
<g id="Node000018" class="node">
<title>Node18</title>
<g id="a_Node000018"><a xlink:href="helpers_8h.html" target="_top" xlink:title="This file defines helper functions/interface for writing unit tests.">
<polygon fill="white" stroke="#666666" points="528,-272 416,-272 416,-242 528,-242 528,-272"/>
<text text-anchor="start" x="424" y="-260" font-family="Helvetica,sans-Serif" font-size="10.00">Kit/_support/testing</text>
<text text-anchor="middle" x="472" y="-249" font-family="Helvetica,sans-Serif" font-size="10.00">/helpers.h</text>
</a>
</g>
</g>
<!-- Node2&#45;&gt;Node18 -->
<g id="edge17_Node000002_Node000018" class="edge">
<title>Node2&#45;&gt;Node18</title>
<g id="a_edge17_Node000002_Node000018"><a xlink:title=" ">
<path fill="none" stroke="#63b8ff" d="M425.35,-306.16C435.38,-295.81 448.36,-282.4 458.09,-272.36"/>
<polygon fill="#63b8ff" stroke="#63b8ff" points="422.81,-303.75 418.36,-313.37 427.83,-308.62 422.81,-303.75"/>
</a>
</g>
</g>
<!-- Node4 -->
<g id="Node000004" class="node">
<title>Node4</title>
<g id="a_Node000004"><a xlink:href="_file_2_i_input_output_8h.html" target="_top" xlink:title=" ">
<polygon fill="white" stroke="#666666" points="406.5,-200.5 271.5,-200.5 271.5,-181.5 406.5,-181.5 406.5,-200.5"/>
<text text-anchor="middle" x="339" y="-188.5" font-family="Helvetica,sans-Serif" font-size="10.00">Kit/Io/File/IInputOutput.h</text>
</a>
</g>
</g>
<!-- Node3&#45;&gt;Node4 -->
<g id="edge3_Node000003_Node000004" class="edge">
<title>Node3&#45;&gt;Node4</title>
<g id="a_edge3_Node000003_Node000004"><a xlink:title=" ">
<path fill="none" stroke="#63b8ff" d="M344.64,-237.08C343.14,-225.13 341.28,-210.22 340.11,-200.91"/>
<polygon fill="#63b8ff" stroke="#63b8ff" points="341.21,-237.88 345.92,-247.37 348.15,-237.01 341.21,-237.88"/>
</a>
</g>
</g>
<!-- Node7 -->
<g id="Node000007" class="node">
<title>Node7</title>
<g id="a_Node000007"><a xlink:href="_input_8h.html" target="_top" xlink:title=" ">
<polygon fill="white" stroke="#666666" points="253.5,-200.5 154.5,-200.5 154.5,-181.5 253.5,-181.5 253.5,-200.5"/>
<text text-anchor="middle" x="204" y="-188.5" font-family="Helvetica,sans-Serif" font-size="10.00">Kit/Io/File/Input.h</text>
</a>
</g>
</g>
<!-- Node3&#45;&gt;Node7 -->
<g id="edge6_Node000003_Node000007" class="edge">
<title>Node3&#45;&gt;Node7</title>
<g id="a_edge6_Node000003_Node000007"><a xlink:title=" ">
<path fill="none" stroke="#63b8ff" d="M318.39,-243.19C290.2,-230.58 247.92,-211.66 223.44,-200.7"/>
<polygon fill="#63b8ff" stroke="#63b8ff" points="317.16,-246.48 327.71,-247.37 320.02,-240.09 317.16,-246.48"/>
</a>
</g>
</g>
<!-- Node5 -->
<g id="Node000005" class="node">
<title>Node5</title>
<g id="a_Node000005"><a xlink:href="_file_2_input_output_8h.html" target="_top" xlink:title=" ">
<polygon fill="white" stroke="#666666" points="285,-134.5 153,-134.5 153,-115.5 285,-115.5 285,-134.5"/>
<text text-anchor="middle" x="219" y="-122.5" font-family="Helvetica,sans-Serif" font-size="10.00">Kit/Io/File/InputOutput.h</text>
</a>
</g>
</g>
<!-- Node4&#45;&gt;Node5 -->
<g id="edge4_Node000004_Node000005" class="edge">
<title>Node4&#45;&gt;Node5</title>
<g id="a_edge4_Node000004_Node000005"><a xlink:title=" ">
<path fill="none" stroke="#63b8ff" d="M313.74,-176.53C290.1,-163.92 255.5,-145.47 235.31,-134.7"/>
<polygon fill="#63b8ff" stroke="#63b8ff" points="312.35,-179.75 322.82,-181.37 315.64,-173.57 312.35,-179.75"/>
</a>
</g>
</g>
<!-- Node6 -->
<g id="Node000006" class="node">
<title>Node6</title>
<g id="a_Node000006"><a xlink:href="_file_2_null_8h.html" target="_top" xlink:title=" ">
<polygon fill="white" stroke="#666666" points="397,-134.5 303,-134.5 303,-115.5 397,-115.5 397,-134.5"/>
<text text-anchor="middle" x="350" y="-122.5" font-family="Helvetica,sans-Serif" font-size="10.00">Kit/Io/File/Null.h</text>
</a>
</g>
</g>
<!-- Node4&#45;&gt;Node6 -->
<g id="edge5_Node000004_Node000006" class="edge">
<title>Node4&#45;&gt;Node6</title>
<g id="a_edge5_Node000004_Node000006"><a xlink:title=" ">
<path fill="none" stroke="#63b8ff" d="M342.19,-171.45C344.25,-159.43 346.85,-144.32 348.47,-134.91"/>
<polygon fill="#63b8ff" stroke="#63b8ff" points="338.73,-170.92 340.48,-181.37 345.63,-172.11 338.73,-170.92"/>
</a>
</g>
</g>
<!-- Node9 -->
<g id="Node000009" class="node">
<title>Node9</title>
<g id="a_Node000009"><a xlink:href="_null_8h.html" target="_top" xlink:title=" ">
<polygon fill="white" stroke="#666666" points="667,-200.5 593,-200.5 593,-181.5 667,-181.5 667,-200.5"/>
<text text-anchor="middle" x="630" y="-188.5" font-family="Helvetica,sans-Serif" font-size="10.00">Kit/Io/Null.h</text>
</a>
</g>
</g>
<!-- Node8&#45;&gt;Node9 -->
<g id="edge8_Node000008_Node000009" class="edge">
<title>Node8&#45;&gt;Node9</title>
<g id="a_edge8_Node000008_Node000009"><a xlink:title=" ">
<path fill="none" stroke="#63b8ff" d="M622.9,-237.45C624.78,-225.43 627.14,-210.32 628.61,-200.91"/>
<polygon fill="#63b8ff" stroke="#63b8ff" points="619.43,-236.95 621.35,-247.37 626.35,-238.03 619.43,-236.95"/>
</a>
</g>
</g>
<!-- Node10 -->
<g id="Node000010" class="node">
<title>Node10</title>
<g id="a_Node000010"><a xlink:href="_serial_2_s_t_2_m32_f4_2_input_output_8h.html" target="_top" xlink:title=" ">
<polygon fill="white" stroke="#666666" points="809,-206 685,-206 685,-176 809,-176 809,-206"/>
<text text-anchor="start" x="693" y="-194" font-family="Helvetica,sans-Serif" font-size="10.00">Kit/Io/Serial/ST/M32F4</text>
<text text-anchor="middle" x="747" y="-183" font-family="Helvetica,sans-Serif" font-size="10.00">/InputOutput.h</text>
</a>
</g>
</g>
<!-- Node8&#45;&gt;Node10 -->
<g id="edge9_Node000008_Node000010" class="edge">
<title>Node8&#45;&gt;Node10</title>
<g id="a_edge9_Node000008_Node000010"><a xlink:title=" ">
<path fill="none" stroke="#63b8ff" d="M646.22,-242.79C667.45,-232.09 697.29,-217.05 718.99,-206.12"/>
<polygon fill="#63b8ff" stroke="#63b8ff" points="644.48,-239.74 637.13,-247.37 647.63,-245.99 644.48,-239.74"/>
</a>
</g>
</g>
<!-- Node13 -->
<g id="Node000013" class="node">
<title>Node13</title>
<g id="a_Node000013"><a xlink:href="_socket_2_i_input_output_8h.html" target="_top" xlink:title=" ">
<polygon fill="white" stroke="#666666" points="575,-200.5 425,-200.5 425,-181.5 575,-181.5 575,-200.5"/>
<text text-anchor="middle" x="500" y="-188.5" font-family="Helvetica,sans-Serif" font-size="10.00">Kit/Io/Socket/IInputOutput.h</text>
</a>
</g>
</g>
<!-- Node8&#45;&gt;Node13 -->
<g id="edge12_Node000008_Node000013" class="edge">
<title>Node8&#45;&gt;Node13</title>
<g id="a_edge12_Node000008_Node000013"><a xlink:title=" ">
<path fill="none" stroke="#63b8ff" d="M594.74,-242.53C571.1,-229.92 536.5,-211.47 516.31,-200.7"/>
<polygon fill="#63b8ff" stroke="#63b8ff" points="593.35,-245.75 603.82,-247.37 596.64,-239.57 593.35,-245.75"/>
</a>
</g>
</g>
<!-- Node11 -->
<g id="Node000011" class="node">
<title>Node11</title>
<g id="a_Node000011"><a xlink:href="baremetal___n_u_c_l_e_o-_f413_z_h_2stdio_8h.html" target="_top" xlink:title="By default the BSP provides a KIT IO Stream for application&#39; console.">
<polygon fill="white" stroke="#666666" points="934.5,-140 793.5,-140 793.5,-110 934.5,-110 934.5,-140"/>
<text text-anchor="start" x="801.5" y="-128" font-family="Helvetica,sans-Serif" font-size="10.00">Kit/Bsp/ST/baremetal</text>
<text text-anchor="middle" x="864" y="-117" font-family="Helvetica,sans-Serif" font-size="10.00">_NUCLEO&#45;F413ZH/stdio.h</text>
</a>
</g>
</g>
<!-- Node10&#45;&gt;Node11 -->
<g id="edge10_Node000010_Node000011" class="edge">
<title>Node10&#45;&gt;Node11</title>
<g id="a_edge10_Node000010_Node000011"><a xlink:title=" ">
<path fill="none" stroke="#63b8ff" d="M781.79,-170.97C799.95,-161.03 821.78,-149.09 838.38,-140.01"/>
<polygon fill="#63b8ff" stroke="#63b8ff" points="779.77,-168.09 772.68,-175.95 783.13,-174.23 779.77,-168.09"/>
</a>
</g>
</g>
<!-- Node12 -->
<g id="Node000012" class="node">
<title>Node12</title>
<g id="a_Node000012"><a xlink:href="freertos___n_u_c_l_e_o-_f413_z_h_2stdio_8h.html" target="_top" xlink:title="By default the BSP provides a KIT IO Stream for application&#39; console.">
<polygon fill="white" stroke="#666666" points="775.5,-140 634.5,-140 634.5,-110 775.5,-110 775.5,-140"/>
<text text-anchor="start" x="642.5" y="-128" font-family="Helvetica,sans-Serif" font-size="10.00">Kit/Bsp/ST/freertos</text>
<text text-anchor="middle" x="705" y="-117" font-family="Helvetica,sans-Serif" font-size="10.00">_NUCLEO&#45;F413ZH/stdio.h</text>
</a>
</g>
</g>
<!-- Node10&#45;&gt;Node12 -->
<g id="edge11_Node000010_Node000012" class="edge">
<title>Node10&#45;&gt;Node12</title>
<g id="a_edge11_Node000010_Node000012"><a xlink:title=" ">
<path fill="none" stroke="#63b8ff" d="M732.07,-167.24C726.14,-158.21 719.51,-148.11 714.3,-140.16"/>
<polygon fill="#63b8ff" stroke="#63b8ff" points="729.27,-169.36 737.68,-175.8 735.12,-165.52 729.27,-169.36"/>
</a>
</g>
</g>
<!-- Node14 -->
<g id="Node000014" class="node">
<title>Node14</title>
<g id="a_Node000014"><a xlink:href="_socket_2_input_output_8h.html" target="_top" xlink:title=" ">
<polygon fill="white" stroke="#666666" points="573.5,-134.5 426.5,-134.5 426.5,-115.5 573.5,-115.5 573.5,-134.5"/>
<text text-anchor="middle" x="500" y="-122.5" font-family="Helvetica,sans-Serif" font-size="10.00">Kit/Io/Socket/InputOutput.h</text>
</a>
</g>
</g>
<!-- Node13&#45;&gt;Node14 -->
<g id="edge13_Node000013_Node000014" class="edge">
<title>Node13&#45;&gt;Node14</title>
<g id="a_edge13_Node000013_Node000014"><a xlink:title=" ">
<path fill="none" stroke="#63b8ff" d="M500,-171.08C500,-159.13 500,-144.22 500,-134.91"/>
<polygon fill="#63b8ff" stroke="#63b8ff" points="496.5,-171.37 500,-181.37 503.5,-171.37 496.5,-171.37"/>
</a>
</g>
</g>
<!-- Node17 -->
<g id="Node000017" class="node">
<title>Node17</title>
<g id="a_Node000017"><a xlink:href="_std_in_8h.html" target="_top" xlink:title=" ">
<polygon fill="white" stroke="#666666" points="136.5,-200.5 29.5,-200.5 29.5,-181.5 136.5,-181.5 136.5,-200.5"/>
<text text-anchor="middle" x="83" y="-188.5" font-family="Helvetica,sans-Serif" font-size="10.00">Kit/Io/Stdio/StdIn.h</text>
</a>
</g>
</g>
<!-- Node16&#45;&gt;Node17 -->
<g id="edge16_Node000016_Node000017" class="edge">
<title>Node16&#45;&gt;Node17</title>
<g id="a_edge16_Node000016_Node000017"><a xlink:title=" ">
<path fill="none" stroke="#63b8ff" d="M176.95,-242.53C153.51,-229.92 119.2,-211.47 99.17,-200.7"/>
<polygon fill="#63b8ff" stroke="#63b8ff" points="175.49,-245.71 185.95,-247.37 178.8,-239.55 175.49,-245.71"/>
</a>
</g>
</g>
<!-- Node19&#45;&gt;Node15 -->
<g id="edge19_Node000019_Node000015" class="edge">
<title>Node19&#45;&gt;Node15</title>
<g id="a_edge19_Node000019_Node000015"><a xlink:title=" ">
<path fill="none" stroke="#63b8ff" d="M123.38,-307.33C105.72,-294.78 80.9,-277.13 66.23,-266.7"/>
<polygon fill="#63b8ff" stroke="#63b8ff" points="121.68,-310.43 131.86,-313.37 125.74,-304.72 121.68,-310.43"/>
</a>
</g>
</g>
<!-- Node21 -->
<g id="Node000021" class="node">
<title>Node21</title>
<g id="a_Node000021"><a xlink:href="_line_writer_8h.html" target="_top" xlink:title=" ">
<polygon fill="white" stroke="#666666" points="800,-266.5 696,-266.5 696,-247.5 800,-247.5 800,-266.5"/>
<text text-anchor="middle" x="748" y="-254.5" font-family="Helvetica,sans-Serif" font-size="10.00">Kit/Io/LineWriter.h</text>
</a>
</g>
</g>
<!-- Node20&#45;&gt;Node21 -->
<g id="edge21_Node000020_Node000021" class="edge">
<title>Node20&#45;&gt;Node21</title>
<g id="a_edge21_Node000020_Node000021"><a xlink:title=" ">
<path fill="none" stroke="#63b8ff" d="M810,-306.99C794.14,-294.46 772.09,-277.04 759.01,-266.7"/>
<polygon fill="#63b8ff" stroke="#63b8ff" points="808.06,-309.92 818.08,-313.37 812.4,-304.42 808.06,-309.92"/>
</a>
</g>
</g>
<!-- Node22&#45;&gt;Node8 -->
<g id="edge26_Node000022_Node000008" class="edge">
<title>Node22&#45;&gt;Node8</title>
<g id="a_edge26_Node000022_Node000008"><a xlink:title=" ">
<path fill="none" stroke="#63b8ff" d="M970.95,-314.91C903.75,-306.01 786.72,-289.76 687,-272 677.87,-270.38 668.09,-268.44 658.9,-266.54"/>
<polygon fill="#63b8ff" stroke="#63b8ff" points="970.52,-318.38 980.9,-316.22 971.44,-311.44 970.52,-318.38"/>
</a>
</g>
</g>
<!-- Node22&#45;&gt;Node21 -->
<g id="edge27_Node000022_Node000021" class="edge">
<title>Node22&#45;&gt;Node21</title>
<g id="a_edge27_Node000022_Node000021"><a xlink:title=" ">
<path fill="none" stroke="#63b8ff" d="M979,-311.18C924.27,-298.58 835.01,-278.03 784.98,-266.51"/>
<polygon fill="#63b8ff" stroke="#63b8ff" points="978.27,-314.6 988.8,-313.44 979.84,-307.78 978.27,-314.6"/>
</a>
</g>
</g>
<!-- Node23 -->
<g id="Node000023" class="node">
<title>Node23</title>
<g id="a_Node000023"><a xlink:href="_file_2_i_output_8h.html" target="_top" xlink:title=" ">
<polygon fill="white" stroke="#666666" points="928,-266.5 818,-266.5 818,-247.5 928,-247.5 928,-266.5"/>
<text text-anchor="middle" x="873" y="-254.5" font-family="Helvetica,sans-Serif" font-size="10.00">Kit/Io/File/IOutput.h</text>
</a>
</g>
</g>
<!-- Node22&#45;&gt;Node23 -->
<g id="edge23_Node000022_Node000023" class="edge">
<title>Node22&#45;&gt;Node23</title>
<g id="a_edge23_Node000022_Node000023"><a xlink:title=" ">
<path fill="none" stroke="#63b8ff" d="M995.78,-309.36C965.63,-296.75 920.11,-277.71 893.8,-266.7"/>
<polygon fill="#63b8ff" stroke="#63b8ff" points="994.79,-312.74 1005.37,-313.37 997.49,-306.28 994.79,-312.74"/>
</a>
</g>
</g>
<!-- Node25 -->
<g id="Node000025" class="node">
<title>Node25</title>
<g id="a_Node000025"><a xlink:href="_output_delegate_8h.html" target="_top" xlink:title=" ">
<polygon fill="white" stroke="#666666" points="1105.5,-266.5 946.5,-266.5 946.5,-247.5 1105.5,-247.5 1105.5,-266.5"/>
<text text-anchor="middle" x="1026" y="-254.5" font-family="Helvetica,sans-Serif" font-size="10.00">Kit/Io/Stdio/OutputDelegate.h</text>
</a>
</g>
</g>
<!-- Node22&#45;&gt;Node25 -->
<g id="edge28_Node000022_Node000025" class="edge">
<title>Node22&#45;&gt;Node25</title>
<g id="a_edge28_Node000022_Node000025"><a xlink:title=" ">
<path fill="none" stroke="#63b8ff" d="M1026,-303.08C1026,-291.13 1026,-276.22 1026,-266.91"/>
<polygon fill="#63b8ff" stroke="#63b8ff" points="1022.5,-303.37 1026,-313.37 1029.5,-303.37 1022.5,-303.37"/>
</a>
</g>
</g>
<!-- Node28 -->
<g id="Node000028" class="node">
<title>Node28</title>
<g id="a_Node000028"><a xlink:href="_tee_output_8h.html" target="_top" xlink:title=" ">
<polygon fill="white" stroke="#666666" points="1228,-266.5 1124,-266.5 1124,-247.5 1228,-247.5 1228,-266.5"/>
<text text-anchor="middle" x="1176" y="-254.5" font-family="Helvetica,sans-Serif" font-size="10.00">Kit/Io/TeeOutput.h</text>
</a>
</g>
</g>
<!-- Node22&#45;&gt;Node28 -->
<g id="edge31_Node000022_Node000028" class="edge">
<title>Node22&#45;&gt;Node28</title>
<g id="a_edge31_Node000022_Node000028"><a xlink:title=" ">
<path fill="none" stroke="#63b8ff" d="M1055.63,-309.36C1085.19,-296.75 1129.81,-277.71 1155.61,-266.7"/>
<polygon fill="#63b8ff" stroke="#63b8ff" points="1054.05,-306.23 1046.23,-313.37 1056.8,-312.66 1054.05,-306.23"/>
</a>
</g>
</g>
<!-- Node22&#45;&gt;Node29 -->
<g id="edge32_Node000022_Node000029" class="edge">
<title>Node22&#45;&gt;Node29</title>
<g id="a_edge32_Node000022_Node000029"><a xlink:title=" ">
<path fill="none" stroke="#63b8ff" d="M1077.61,-311.41C1138.92,-298.84 1240,-278.1 1296.49,-266.51"/>
<polygon fill="#63b8ff" stroke="#63b8ff" points="1076.85,-308 1067.75,-313.44 1078.25,-314.85 1076.85,-308"/>
</a>
</g>
</g>
<!-- Node23&#45;&gt;Node4 -->
<g id="edge24_Node000023_Node000004" class="edge">
<title>Node23&#45;&gt;Node4</title>
<g id="a_edge24_Node000023_Node000004"><a xlink:title=" ">
<path fill="none" stroke="#63b8ff" d="M827.39,-245.3C821.23,-244.07 814.98,-242.92 809,-242 635.66,-215.21 589.79,-229.71 416,-206 404.96,-204.49 393.09,-202.52 382.06,-200.52"/>
<polygon fill="#63b8ff" stroke="#63b8ff" points="827.1,-248.81 837.6,-247.44 828.53,-241.96 827.1,-248.81"/>
</a>
</g>
</g>
<!-- Node24 -->
<g id="Node000024" class="node">
<title>Node24</title>
<g id="a_Node000024"><a xlink:href="_output_8h.html" target="_top" xlink:title=" ">
<polygon fill="white" stroke="#666666" points="934.5,-200.5 827.5,-200.5 827.5,-181.5 934.5,-181.5 934.5,-200.5"/>
<text text-anchor="middle" x="881" y="-188.5" font-family="Helvetica,sans-Serif" font-size="10.00">Kit/Io/File/Output.h</text>
</a>
</g>
</g>
<!-- Node23&#45;&gt;Node24 -->
<g id="edge25_Node000023_Node000024" class="edge">
<title>Node23&#45;&gt;Node24</title>
<g id="a_edge25_Node000023_Node000024"><a xlink:title=" ">
<path fill="none" stroke="#63b8ff" d="M875.36,-237.08C876.86,-225.13 878.72,-210.22 879.89,-200.91"/>
<polygon fill="#63b8ff" stroke="#63b8ff" points="871.85,-237.01 874.08,-247.37 878.79,-237.88 871.85,-237.01"/>
</a>
</g>
</g>
<!-- Node26 -->
<g id="Node000026" class="node">
<title>Node26</title>
<g id="a_Node000026"><a xlink:href="_std_err_8h.html" target="_top" xlink:title=" ">
<polygon fill="white" stroke="#666666" points="1063,-200.5 953,-200.5 953,-181.5 1063,-181.5 1063,-200.5"/>
<text text-anchor="middle" x="1008" y="-188.5" font-family="Helvetica,sans-Serif" font-size="10.00">Kit/Io/Stdio/StdErr.h</text>
</a>
</g>
</g>
<!-- Node25&#45;&gt;Node26 -->
<g id="edge29_Node000025_Node000026" class="edge">
<title>Node25&#45;&gt;Node26</title>
<g id="a_edge29_Node000025_Node000026"><a xlink:title=" ">
<path fill="none" stroke="#63b8ff" d="M1020.78,-237.45C1017.4,-225.43 1013.15,-210.32 1010.5,-200.91"/>
<polygon fill="#63b8ff" stroke="#63b8ff" points="1017.5,-238.69 1023.57,-247.37 1024.23,-236.79 1017.5,-238.69"/>
</a>
</g>
</g>
<!-- Node27 -->
<g id="Node000027" class="node">
<title>Node27</title>
<g id="a_Node000027"><a xlink:href="_std_out_8h.html" target="_top" xlink:title=" ">
<polygon fill="white" stroke="#666666" points="1196.5,-200.5 1081.5,-200.5 1081.5,-181.5 1196.5,-181.5 1196.5,-200.5"/>
<text text-anchor="middle" x="1139" y="-188.5" font-family="Helvetica,sans-Serif" font-size="10.00">Kit/Io/Stdio/StdOut.h</text>
</a>
</g>
</g>
<!-- Node25&#45;&gt;Node27 -->
<g id="edge30_Node000025_Node000027" class="edge">
<title>Node25&#45;&gt;Node27</title>
<g id="a_edge30_Node000025_Node000027"><a xlink:title=" ">
<path fill="none" stroke="#63b8ff" d="M1050.09,-242.36C1072.33,-229.76 1104.71,-211.42 1123.64,-200.7"/>
<polygon fill="#63b8ff" stroke="#63b8ff" points="1048.22,-239.39 1041.24,-247.37 1051.67,-245.49 1048.22,-239.39"/>
</a>
</g>
</g>
<!-- Node30 -->
<g id="Node000030" class="node">
<title>Node30</title>
<g id="a_Node000030"><a xlink:href="_framework_2_log_8h.html" target="_top" xlink:title="This file declares the public facing Logging interface for generating log entries.">
<polygon fill="white" stroke="#666666" points="1256.5,-140 1127.5,-140 1127.5,-110 1256.5,-110 1256.5,-140"/>
<text text-anchor="start" x="1135.5" y="-128" font-family="Helvetica,sans-Serif" font-size="10.00">Kit/Logging/Framework</text>
<text text-anchor="middle" x="1192" y="-117" font-family="Helvetica,sans-Serif" font-size="10.00">/Log.h</text>
</a>
</g>
</g>
<!-- Node29&#45;&gt;Node30 -->
<g id="edge33_Node000029_Node000030" class="edge">
<title>Node29&#45;&gt;Node30</title>
<g id="a_edge33_Node000029_Node000030"><a xlink:title=" ">
<path fill="none" stroke="#63b8ff" d="M1344.27,-237.7C1349.03,-220.18 1352.81,-193.85 1340,-176 1329.72,-161.68 1291.72,-149.01 1256.8,-140.01"/>
<polygon fill="#63b8ff" stroke="#63b8ff" points="1340.9,-236.73 1341.31,-247.32 1347.6,-238.78 1340.9,-236.73"/>
</a>
</g>
</g>
<!-- Node29&#45;&gt;Node32 -->
<g id="edge35_Node000029_Node000032" class="edge">
<title>Node29&#45;&gt;Node32</title>
<g id="a_edge35_Node000029_Node000032"><a xlink:title=" ">
<path fill="none" stroke="#63b8ff" d="M1322.08,-240.33C1309.5,-227.94 1292.38,-211.09 1282.04,-200.91"/>
<polygon fill="#63b8ff" stroke="#63b8ff" points="1319.65,-242.85 1329.23,-247.37 1324.56,-237.86 1319.65,-242.85"/>
</a>
</g>
</g>
<!-- Node31 -->
<g id="Node000031" class="node">
<title>Node31</title>
<g id="a_Node000031"><a xlink:href="_pkg_2_log_8h.html" target="_top" xlink:title="This file declares the Logging functions available to the KIT Logging Domain.">
<polygon fill="white" stroke="#666666" points="1253,-74 1131,-74 1131,-55 1253,-55 1253,-74"/>
<text text-anchor="middle" x="1192" y="-62" font-family="Helvetica,sans-Serif" font-size="10.00">Kit/Logging/Pkg/Log.h</text>
</a>
</g>
</g>
<!-- Node30&#45;&gt;Node31 -->
<g id="edge34_Node000030_Node000031" class="edge">
<title>Node30&#45;&gt;Node31</title>
<g id="a_edge34_Node000030_Node000031"><a xlink:title=" ">
<path fill="none" stroke="#63b8ff" d="M1192,-99.75C1192,-90.72 1192,-81.03 1192,-74.27"/>
<polygon fill="#63b8ff" stroke="#63b8ff" points="1188.5,-99.84 1192,-109.84 1195.5,-99.84 1188.5,-99.84"/>
</a>
</g>
</g>
<!-- Node36 -->
<g id="Node000036" class="node">
<title>Node36</title>
<g id="a_Node000036"><a xlink:href="_d_string_8h.html" target="_top" xlink:title=" ">
<polygon fill="white" stroke="#666666" points="1797.5,-266.5 1696.5,-266.5 1696.5,-247.5 1797.5,-247.5 1797.5,-266.5"/>
<text text-anchor="middle" x="1747" y="-254.5" font-family="Helvetica,sans-Serif" font-size="10.00">Kit/Text/DString.h</text>
</a>
</g>
</g>
<!-- Node35&#45;&gt;Node36 -->
<g id="edge41_Node000035_Node000036" class="edge">
<title>Node35&#45;&gt;Node36</title>
<g id="a_edge41_Node000035_Node000036"><a xlink:title=" ">
<path fill="none" stroke="#63b8ff" d="M1669.11,-307.85C1688.77,-295.27 1716.88,-277.28 1733.41,-266.7"/>
<polygon fill="#63b8ff" stroke="#63b8ff" points="1667.02,-305.03 1660.49,-313.37 1670.8,-310.93 1667.02,-305.03"/>
</a>
</g>
</g>
<!-- Node38 -->
<g id="Node000038" class="node">
<title>Node38</title>
<g id="a_Node000038"><a xlink:href="_f_string_base_8h.html" target="_top" xlink:title=" ">
<polygon fill="white" stroke="#666666" points="1678.5,-266.5 1555.5,-266.5 1555.5,-247.5 1678.5,-247.5 1678.5,-266.5"/>
<text text-anchor="middle" x="1617" y="-254.5" font-family="Helvetica,sans-Serif" font-size="10.00">Kit/Text/FStringBase.h</text>
</a>
</g>
</g>
<!-- Node35&#45;&gt;Node38 -->
<g id="edge43_Node000035_Node000038" class="edge">
<title>Node35&#45;&gt;Node38</title>
<g id="a_edge43_Node000035_Node000038"><a xlink:title=" ">
<path fill="none" stroke="#63b8ff" d="M1638.65,-304.18C1632.96,-292.05 1625.68,-276.51 1621.17,-266.91"/>
<polygon fill="#63b8ff" stroke="#63b8ff" points="1635.54,-305.8 1642.95,-313.37 1641.88,-302.83 1635.54,-305.8"/>
</a>
</g>
</g>
<!-- Node37 -->
<g id="Node000037" class="node">
<title>Node37</title>
<g id="a_Node000037"><a xlink:href="_d_string_item_8h.html" target="_top" xlink:title=" ">
<polygon fill="white" stroke="#666666" points="1886,-200.5 1762,-200.5 1762,-181.5 1886,-181.5 1886,-200.5"/>
<text text-anchor="middle" x="1824" y="-188.5" font-family="Helvetica,sans-Serif" font-size="10.00">Kit/Text/DStringItem.h</text>
</a>
</g>
</g>
<!-- Node36&#45;&gt;Node37 -->
<g id="edge42_Node000036_Node000037" class="edge">
<title>Node36&#45;&gt;Node37</title>
<g id="a_edge42_Node000036_Node000037"><a xlink:title=" ">
<path fill="none" stroke="#63b8ff" d="M1765.43,-240.68C1780.38,-228.26 1800.92,-211.18 1813.29,-200.91"/>
<polygon fill="#63b8ff" stroke="#63b8ff" points="1762.84,-238.28 1757.38,-247.37 1767.31,-243.67 1762.84,-238.28"/>
</a>
</g>
</g>
<!-- Node39 -->
<g id="Node000039" class="node">
<title>Node39</title>
<g id="a_Node000039"><a xlink:href="_b_string_8h.html" target="_top" xlink:title=" ">
<polygon fill="white" stroke="#666666" points="1518.5,-200.5 1417.5,-200.5 1417.5,-181.5 1518.5,-181.5 1518.5,-200.5"/>
<text text-anchor="middle" x="1468" y="-188.5" font-family="Helvetica,sans-Serif" font-size="10.00">Kit/Text/BString.h</text>
</a>
</g>
</g>
<!-- Node38&#45;&gt;Node39 -->
<g id="edge44_Node000038_Node000039" class="edge">
<title>Node38&#45;&gt;Node39</title>
<g id="a_edge44_Node000038_Node000039"><a xlink:title=" ">
<path fill="none" stroke="#63b8ff" d="M1587.57,-243.36C1558.21,-230.75 1513.88,-211.71 1488.25,-200.7"/>
<polygon fill="#63b8ff" stroke="#63b8ff" points="1586.34,-246.64 1596.91,-247.37 1589.1,-240.21 1586.34,-246.64"/>
</a>
</g>
</g>
<!-- Node40 -->
<g id="Node000040" class="node">
<title>Node40</title>
<g id="a_Node000040"><a xlink:href="_f_string_8h.html" target="_top" xlink:title=" ">
<polygon fill="white" stroke="#666666" points="1684.5,-200.5 1585.5,-200.5 1585.5,-181.5 1684.5,-181.5 1684.5,-200.5"/>
<text text-anchor="middle" x="1635" y="-188.5" font-family="Helvetica,sans-Serif" font-size="10.00">Kit/Text/FString.h</text>
</a>
</g>
</g>
<!-- Node38&#45;&gt;Node40 -->
<g id="edge46_Node000038_Node000040" class="edge">
<title>Node38&#45;&gt;Node40</title>
<g id="a_edge46_Node000038_Node000040"><a xlink:title=" ">
<path fill="none" stroke="#63b8ff" d="M1622.22,-237.45C1625.6,-225.43 1629.85,-210.32 1632.5,-200.91"/>
<polygon fill="#63b8ff" stroke="#63b8ff" points="1618.77,-236.79 1619.43,-247.37 1625.5,-238.69 1618.77,-236.79"/>
</a>
</g>
</g>
<!-- Node39&#45;&gt;Node30 -->
<g id="edge45_Node000039_Node000030" class="edge">
<title>Node39&#45;&gt;Node30</title>
<g id="a_edge45_Node000039_Node000030"><a xlink:title=" ">
<path fill="none" stroke="#63b8ff" d="M1421.25,-179.16C1374.78,-168.38 1303.26,-151.8 1252.48,-140.02"/>
<polygon fill="#63b8ff" stroke="#63b8ff" points="1420.53,-182.59 1431.06,-181.44 1422.11,-175.77 1420.53,-182.59"/>
</a>
</g>
</g>
<!-- Node41 -->
<g id="Node000041" class="node">
<title>Node41</title>
<g id="a_Node000041"><a xlink:href="_system_8h.html" target="_top" xlink:title=" ">
<polygon fill="#fff0f0" stroke="red" points="1494.5,-134.5 1383.5,-134.5 1383.5,-115.5 1494.5,-115.5 1494.5,-134.5"/>
<text text-anchor="middle" x="1439" y="-122.5" font-family="Helvetica,sans-Serif" font-size="10.00">Kit/Io/File/System.h</text>
</a>
</g>
</g>
<!-- Node40&#45;&gt;Node41 -->
<g id="edge47_Node000040_Node000041" class="edge">
<title>Node40&#45;&gt;Node41</title>
<g id="a_edge47_Node000040_Node000041"><a xlink:title=" ">
<path fill="none" stroke="#63b8ff" d="M1598.75,-178.16C1560.06,-165.53 1499.71,-145.82 1465.33,-134.6"/>
<polygon fill="#63b8ff" stroke="#63b8ff" points="1597.97,-181.59 1608.57,-181.37 1600.15,-174.94 1597.97,-181.59"/>
</a>
</g>
</g>
<!-- Node46 -->
<g id="Node000046" class="node">
<title>Node46</title>
<g id="a_Node000046"><a xlink:href="_socket_2_win32_2_fdio_8h.html" target="_top" xlink:title=" ">
<polygon fill="white" stroke="#666666" points="1623.5,-140 1512.5,-140 1512.5,-110 1623.5,-110 1623.5,-140"/>
<text text-anchor="start" x="1520.5" y="-128" font-family="Helvetica,sans-Serif" font-size="10.00">Kit/Io/Socket/Win32</text>
<text text-anchor="middle" x="1568" y="-117" font-family="Helvetica,sans-Serif" font-size="10.00">/Fdio.h</text>
</a>
</g>
</g>
<!-- Node40&#45;&gt;Node46 -->
<g id="edge51_Node000040_Node000046" class="edge">
<title>Node40&#45;&gt;Node46</title>
<g id="a_edge51_Node000040_Node000046"><a xlink:title=" ">
<path fill="none" stroke="#63b8ff" d="M1618.68,-174.41C1607.72,-163.94 1593.4,-150.26 1582.78,-140.12"/>
<polygon fill="#63b8ff" stroke="#63b8ff" points="1616.32,-176.99 1625.96,-181.37 1621.15,-171.93 1616.32,-176.99"/>
</a>
</g>
</g>
<!-- Node47 -->
<g id="Node000047" class="node">
<title>Node47</title>
<g id="a_Node000047"><a xlink:href="_free_r_t_o_s_2_thread_8h.html" target="_top" xlink:title=" ">
<polygon fill="white" stroke="#666666" points="1760.5,-140 1641.5,-140 1641.5,-110 1760.5,-110 1760.5,-140"/>
<text text-anchor="start" x="1649.5" y="-128" font-family="Helvetica,sans-Serif" font-size="10.00">Kit/System/FreeRTOS</text>
<text text-anchor="middle" x="1701" y="-117" font-family="Helvetica,sans-Serif" font-size="10.00">/Thread.h</text>
</a>
</g>
</g>
<!-- Node40&#45;&gt;Node47 -->
<g id="edge52_Node000040_Node000047" class="edge">
<title>Node40&#45;&gt;Node47</title>
<g id="a_edge52_Node000040_Node000047"><a xlink:title=" ">
<path fill="none" stroke="#63b8ff" d="M1651.39,-174.1C1662.15,-163.68 1676.08,-150.16 1686.44,-140.12"/>
<polygon fill="#63b8ff" stroke="#63b8ff" points="1648.64,-171.89 1643.9,-181.37 1653.52,-176.92 1648.64,-171.89"/>
</a>
</g>
</g>
<!-- Node48 -->
<g id="Node000048" class="node">
<title>Node48</title>
<g id="a_Node000048"><a xlink:href="_posix_2_thread_8h.html" target="_top" xlink:title=" ">
<polygon fill="white" stroke="#666666" points="1923.5,-134.5 1778.5,-134.5 1778.5,-115.5 1923.5,-115.5 1923.5,-134.5"/>
<text text-anchor="middle" x="1851" y="-122.5" font-family="Helvetica,sans-Serif" font-size="10.00">Kit/System/Posix/Thread.h</text>
</a>
</g>
</g>
<!-- Node40&#45;&gt;Node48 -->
<g id="edge53_Node000040_Node000048" class="edge">
<title>Node40&#45;&gt;Node48</title>
<g id="a_edge53_Node000040_Node000048"><a xlink:title=" ">
<path fill="none" stroke="#63b8ff" d="M1673.87,-178.48C1716.45,-165.87 1783.77,-145.92 1821.99,-134.6"/>
<polygon fill="#63b8ff" stroke="#63b8ff" points="1672.72,-175.17 1664.13,-181.37 1674.71,-181.88 1672.72,-175.17"/>
</a>
</g>
</g>
<!-- Node49 -->
<g id="Node000049" class="node">
<title>Node49</title>
<g id="a_Node000049"><a xlink:href="_win32_2_thread_8h.html" target="_top" xlink:title=" ">
<polygon fill="white" stroke="#666666" points="2090.5,-134.5 1941.5,-134.5 1941.5,-115.5 2090.5,-115.5 2090.5,-134.5"/>
<text text-anchor="middle" x="2016" y="-122.5" font-family="Helvetica,sans-Serif" font-size="10.00">Kit/System/Win32/Thread.h</text>
</a>
</g>
</g>
<!-- Node40&#45;&gt;Node49 -->
<g id="edge54_Node000040_Node000049" class="edge">
<title>Node40&#45;&gt;Node49</title>
<g id="a_edge54_Node000040_Node000049"><a xlink:title=" ">
<path fill="none" stroke="#63b8ff" d="M1694.64,-180.01C1754.8,-169.93 1850.35,-153.9 1933,-140 1943.52,-138.23 1954.79,-136.33 1965.53,-134.52"/>
<polygon fill="#63b8ff" stroke="#63b8ff" points="1693.85,-176.59 1684.57,-181.7 1695.01,-183.5 1693.85,-176.59"/>
</a>
</g>
</g>
<!-- Node50 -->
<g id="Node000050" class="node">
<title>Node50</title>
<g id="a_Node000050"><a xlink:href="_f_string_item_8h.html" target="_top" xlink:title=" ">
<polygon fill="white" stroke="#666666" points="2231,-134.5 2109,-134.5 2109,-115.5 2231,-115.5 2231,-134.5"/>
<text text-anchor="middle" x="2170" y="-122.5" font-family="Helvetica,sans-Serif" font-size="10.00">Kit/Text/FStringItem.h</text>
</a>
</g>
</g>
<!-- Node40&#45;&gt;Node50 -->
<g id="edge55_Node000040_Node000050" class="edge">
<title>Node40&#45;&gt;Node50</title>
<g id="a_edge55_Node000040_Node000050"><a xlink:title=" ">
<path fill="none" stroke="#63b8ff" d="M1694.77,-182.74C1713.42,-180.52 1734.06,-178.11 1753,-176 1907.1,-158.87 1946.7,-163.23 2100,-140 2110.05,-138.48 2120.84,-136.49 2130.87,-134.5"/>
<polygon fill="#63b8ff" stroke="#63b8ff" points="1694.16,-179.28 1684.64,-183.95 1694.99,-186.23 1694.16,-179.28"/>
</a>
</g>
</g>
<!-- Node51 -->
<g id="Node000051" class="node">
<title>Node51</title>
<g id="a_Node000051"><a xlink:href="_guid_8h.html" target="_top" xlink:title=" ">
<polygon fill="white" stroke="#666666" points="1365,-134.5 1275,-134.5 1275,-115.5 1365,-115.5 1365,-134.5"/>
<text text-anchor="middle" x="1320" y="-122.5" font-family="Helvetica,sans-Serif" font-size="10.00">Kit/Type/Guid.h</text>
</a>
</g>
</g>
<!-- Node40&#45;&gt;Node51 -->
<g id="edge56_Node000040_Node000051" class="edge">
<title>Node40&#45;&gt;Node51</title>
<g id="a_edge56_Node000040_Node000051"><a xlink:title=" ">
<path fill="none" stroke="#63b8ff" d="M1576.07,-179.7C1523.24,-170.21 1443.7,-155.33 1375,-140 1367.6,-138.35 1359.67,-136.42 1352.21,-134.54"/>
<polygon fill="#63b8ff" stroke="#63b8ff" points="1575.48,-183.15 1585.94,-181.46 1576.71,-176.26 1575.48,-183.15"/>
</a>
</g>
</g>
<!-- Node42 -->
<g id="Node000042" class="node">
<title>Node42</title>
<g id="a_Node000042"><a xlink:href="_dir_walker_8h.html" target="_top" xlink:title=" ">
<polygon fill="white" stroke="#666666" points="1499.5,-19 1378.5,-19 1378.5,0 1499.5,0 1499.5,-19"/>
<text text-anchor="middle" x="1439" y="-7" font-family="Helvetica,sans-Serif" font-size="10.00">Kit/Io/File/DirWalker.h</text>
</a>
</g>
</g>
<!-- Node41&#45;&gt;Node42 -->
<g id="edge48_Node000041_Node000042" class="edge">
<title>Node41&#45;&gt;Node42</title>
<g id="a_edge48_Node000041_Node000042"><a xlink:title=" ">
<path fill="none" stroke="#63b8ff" d="M1453.12,-107.27C1462.98,-93.52 1473.46,-73.39 1468,-55 1463.9,-41.21 1454.03,-27.7 1446.94,-19.25"/>
<polygon fill="#63b8ff" stroke="#63b8ff" points="1450.26,-105.24 1446.91,-115.3 1455.8,-109.53 1450.26,-105.24"/>
</a>
</g>
</g>
<!-- Node43 -->
<g id="Node000043" class="node">
<title>Node43</title>
<g id="a_Node000043"><a xlink:href="_i_dir_traverser_8h.html" target="_top" xlink:title=" ">
<polygon fill="white" stroke="#666666" points="1459,-74 1323,-74 1323,-55 1459,-55 1459,-74"/>
<text text-anchor="middle" x="1391" y="-62" font-family="Helvetica,sans-Serif" font-size="10.00">Kit/Io/File/IDirTraverser.h</text>
</a>
</g>
</g>
<!-- Node41&#45;&gt;Node43 -->
<g id="edge49_Node000041_Node000043" class="edge">
<title>Node41&#45;&gt;Node43</title>
<g id="a_edge49_Node000041_Node000043"><a xlink:title=" ">
<path fill="none" stroke="#63b8ff" d="M1425.42,-107.45C1416.54,-96.62 1405.28,-82.91 1398.11,-74.17"/>
<polygon fill="#63b8ff" stroke="#63b8ff" points="1422.87,-109.86 1431.92,-115.37 1428.28,-105.42 1422.87,-109.86"/>
</a>
</g>
</g>
<!-- Node43&#45;&gt;Node42 -->
<g id="edge50_Node000043_Node000042" class="edge">
<title>Node43&#45;&gt;Node42</title>
<g id="a_edge50_Node000043_Node000042"><a xlink:title=" ">
<path fill="none" stroke="#63b8ff" d="M1405.73,-47.24C1414.14,-37.95 1424.35,-26.68 1431.22,-19.09"/>
<polygon fill="#63b8ff" stroke="#63b8ff" points="1403.04,-44.99 1398.93,-54.75 1408.23,-49.69 1403.04,-44.99"/>
</a>
</g>
</g>
<!-- Node52&#45;&gt;Node37 -->
<g id="edge58_Node000052_Node000037" class="edge">
<title>Node52&#45;&gt;Node37</title>
<g id="a_edge58_Node000052_Node000037"><a xlink:title=" ">
<path fill="none" stroke="#63b8ff" d="M1860.93,-239.27C1851.34,-226.99 1838.69,-210.8 1830.96,-200.91"/>
<polygon fill="#63b8ff" stroke="#63b8ff" points="1858.34,-241.64 1867.26,-247.37 1863.86,-237.33 1858.34,-241.64"/>
</a>
</g>
</g>
<!-- Node52&#45;&gt;Node50 -->
<g id="edge59_Node000052_Node000050" class="edge">
<title>Node52&#45;&gt;Node50</title>
<g id="a_edge59_Node000052_Node000050"><a xlink:title=" ">
<path fill="none" stroke="#63b8ff" d="M1902.68,-243.4C1962.58,-217.1 2099.62,-156.91 2150.51,-134.56"/>
<polygon fill="#63b8ff" stroke="#63b8ff" points="1901.17,-240.24 1893.42,-247.47 1903.98,-246.65 1901.17,-240.24"/>
</a>
</g>
</g>
</g>
</svg>
