<?xml version="1.0" encoding="UTF-8" standalone="no"?>
<!DOCTYPE svg PUBLIC "-//W3C//DTD SVG 1.1//EN"
 "http://www.w3.org/Graphics/SVG/1.1/DTD/svg11.dtd">
<!-- Generated by graphviz version 2.43.0 (0)
 -->
<!-- Title: Kit/System/ISignable.h Pages: 1 -->
<svg width="1633pt" height="280pt"
 viewBox="0.00 0.00 1632.50 280.00" xmlns="http://www.w3.org/2000/svg" xmlns:xlink="http://www.w3.org/1999/xlink">
<g id="graph0" class="graph" transform="scale(1 1) rotate(0) translate(4 276)">
<title>Kit/System/ISignable.h</title>
<!-- Node1 -->
<g id="Node000001" class="node">
<title>Node1</title>
<g id="a_Node000001"><a xlink:title=" ">
<polygon fill="#999999" stroke="#666666" points="650,-272 523,-272 523,-253 650,-253 650,-272"/>
<text text-anchor="middle" x="586.5" y="-260" font-family="Helvetica,sans-Serif" font-size="10.00">Kit/System/ISignable.h</text>
</a>
</g>
</g>
<!-- Node2 -->
<g id="Node000002" class="node">
<title>Node2</title>
<g id="a_Node000002"><a xlink:href="_mailbox_8h.html" target="_top" xlink:title=" ">
<polygon fill="white" stroke="#666666" points="268.5,-217 172.5,-217 172.5,-198 268.5,-198 268.5,-217"/>
<text text-anchor="middle" x="220.5" y="-205" font-family="Helvetica,sans-Serif" font-size="10.00">Kit/Itc/Mailbox.h</text>
</a>
</g>
</g>
<!-- Node1&#45;&gt;Node2 -->
<g id="edge1_Node000001_Node000002" class="edge">
<title>Node1&#45;&gt;Node2</title>
<g id="a_edge1_Node000001_Node000002"><a xlink:title=" ">
<path fill="none" stroke="#63b8ff" d="M517.72,-251.54C445.05,-241.02 332.35,-224.7 268.64,-215.47"/>
<polygon fill="#63b8ff" stroke="#63b8ff" points="517.3,-255.02 527.7,-252.98 518.3,-248.09 517.3,-255.02"/>
</a>
</g>
</g>
<!-- Node5 -->
<g id="Node000005" class="node">
<title>Node5</title>
<g id="a_Node000005"><a xlink:href="_sync_return_handler_8h.html" target="_top" xlink:title=" ">
<polygon fill="white" stroke="#666666" points="1624.5,-156.5 1474.5,-156.5 1474.5,-137.5 1624.5,-137.5 1624.5,-156.5"/>
<text text-anchor="middle" x="1549.5" y="-144.5" font-family="Helvetica,sans-Serif" font-size="10.00">Kit/Itc/SyncReturnHandler.h</text>
</a>
</g>
</g>
<!-- Node1&#45;&gt;Node5 -->
<g id="edge4_Node000001_Node000005" class="edge">
<title>Node1&#45;&gt;Node5</title>
<g id="a_edge4_Node000001_Node000005"><a xlink:title=" ">
<path fill="none" stroke="#63b8ff" d="M660.18,-254.79C748.83,-246.57 902.18,-231.89 1033.5,-217 1225.82,-195.19 1274.01,-190.14 1465.5,-162 1476.76,-160.35 1488.85,-158.42 1500.25,-156.53"/>
<polygon fill="#63b8ff" stroke="#63b8ff" points="659.85,-251.3 650.22,-255.71 660.5,-258.27 659.85,-251.3"/>
</a>
</g>
</g>
<!-- Node6 -->
<g id="Node000006" class="node">
<title>Node6</title>
<g id="a_Node000006"><a xlink:href="_event_loop_8h.html" target="_top" xlink:title=" ">
<polygon fill="white" stroke="#666666" points="240,-156.5 107,-156.5 107,-137.5 240,-137.5 240,-156.5"/>
<text text-anchor="middle" x="173.5" y="-144.5" font-family="Helvetica,sans-Serif" font-size="10.00">Kit/System/EventLoop.h</text>
</a>
</g>
</g>
<!-- Node1&#45;&gt;Node6 -->
<g id="edge5_Node000001_Node000006" class="edge">
<title>Node1&#45;&gt;Node6</title>
<g id="a_edge5_Node000001_Node000006"><a xlink:title=" ">
<path fill="none" stroke="#63b8ff" d="M545.69,-250.28C463.2,-227.62 278.26,-176.79 204.62,-156.55"/>
<polygon fill="#63b8ff" stroke="#63b8ff" points="544.89,-253.69 555.46,-252.97 546.74,-246.94 544.89,-253.69"/>
</a>
</g>
</g>
<!-- Node8 -->
<g id="Node000008" class="node">
<title>Node8</title>
<g id="a_Node000008"><a xlink:href="_semaphore_8h.html" target="_top" xlink:title=" ">
<polygon fill="white" stroke="#666666" points="655,-217 518,-217 518,-198 655,-198 655,-217"/>
<text text-anchor="middle" x="586.5" y="-205" font-family="Helvetica,sans-Serif" font-size="10.00">Kit/System/Semaphore.h</text>
</a>
</g>
</g>
<!-- Node1&#45;&gt;Node8 -->
<g id="edge8_Node000001_Node000008" class="edge">
<title>Node1&#45;&gt;Node8</title>
<g id="a_edge8_Node000001_Node000008"><a xlink:title=" ">
<path fill="none" stroke="#63b8ff" d="M586.5,-242.66C586.5,-233.93 586.5,-223.99 586.5,-217.09"/>
<polygon fill="#63b8ff" stroke="#63b8ff" points="583,-242.75 586.5,-252.75 590,-242.75 583,-242.75"/>
</a>
</g>
</g>
<!-- Node14 -->
<g id="Node000014" class="node">
<title>Node14</title>
<g id="a_Node000014"><a xlink:href="_thread_8h.html" target="_top" xlink:title=" ">
<polygon fill="white" stroke="#666666" points="1024.5,-217 908.5,-217 908.5,-198 1024.5,-198 1024.5,-217"/>
<text text-anchor="middle" x="966.5" y="-205" font-family="Helvetica,sans-Serif" font-size="10.00">Kit/System/Thread.h</text>
</a>
</g>
</g>
<!-- Node1&#45;&gt;Node14 -->
<g id="edge15_Node000001_Node000014" class="edge">
<title>Node1&#45;&gt;Node14</title>
<g id="a_edge15_Node000001_Node000014"><a xlink:title=" ">
<path fill="none" stroke="#63b8ff" d="M657.51,-251.6C729.95,-241.49 841.02,-226 908.4,-216.6"/>
<polygon fill="#63b8ff" stroke="#63b8ff" points="656.97,-248.14 647.55,-252.98 657.94,-255.07 656.97,-248.14"/>
</a>
</g>
</g>
<!-- Node3 -->
<g id="Node000003" class="node">
<title>Node3</title>
<g id="a_Node000003"><a xlink:href="_server_8h.html" target="_top" xlink:title=" ">
<polygon fill="white" stroke="#666666" points="146,-90.5 11,-90.5 11,-71.5 146,-71.5 146,-90.5"/>
<text text-anchor="middle" x="78.5" y="-78.5" font-family="Helvetica,sans-Serif" font-size="10.00">Kit/EventQueue/Server.h</text>
</a>
</g>
</g>
<!-- Node2&#45;&gt;Node3 -->
<g id="edge2_Node000002_Node000003" class="edge">
<title>Node2&#45;&gt;Node3</title>
<g id="a_edge2_Node000002_Node000003"><a xlink:title=" ">
<path fill="none" stroke="#63b8ff" d="M162.5,-197.82C139.29,-191.53 114.17,-180.68 97.5,-162 79.25,-141.55 77.69,-106.77 78.05,-90.67"/>
<polygon fill="#63b8ff" stroke="#63b8ff" points="161.75,-201.24 172.29,-200.25 163.43,-194.44 161.75,-201.24"/>
</a>
</g>
</g>
<!-- Node4 -->
<g id="Node000004" class="node">
<title>Node4</title>
<g id="a_Node000004"><a xlink:href="_with_periodic_scheduling_8h.html" target="_top" xlink:title=" ">
<polygon fill="white" stroke="#666666" points="157,-30 0,-30 0,0 157,0 157,-30"/>
<text text-anchor="start" x="8" y="-18" font-family="Helvetica,sans-Serif" font-size="10.00">Kit/EventQueue/WithPeriodic</text>
<text text-anchor="middle" x="78.5" y="-7" font-family="Helvetica,sans-Serif" font-size="10.00">Scheduling.h</text>
</a>
</g>
</g>
<!-- Node3&#45;&gt;Node4 -->
<g id="edge3_Node000003_Node000004" class="edge">
<title>Node3&#45;&gt;Node4</title>
<g id="a_edge3_Node000003_Node000004"><a xlink:title=" ">
<path fill="none" stroke="#63b8ff" d="M78.5,-61.35C78.5,-51.47 78.5,-39.51 78.5,-30.36"/>
<polygon fill="#63b8ff" stroke="#63b8ff" points="75,-61.37 78.5,-71.37 82,-61.37 75,-61.37"/>
</a>
</g>
</g>
<!-- Node6&#45;&gt;Node3 -->
<g id="edge6_Node000006_Node000003" class="edge">
<title>Node6&#45;&gt;Node3</title>
<g id="a_edge6_Node000006_Node000003"><a xlink:title=" ">
<path fill="none" stroke="#63b8ff" d="M152.24,-131.68C133.58,-119.11 107.04,-101.23 91.41,-90.7"/>
<polygon fill="#63b8ff" stroke="#63b8ff" points="150.44,-134.68 160.69,-137.37 154.35,-128.88 150.44,-134.68"/>
</a>
</g>
</g>
<!-- Node7 -->
<g id="Node000007" class="node">
<title>Node7</title>
<g id="a_Node000007"><a xlink:href="_event_loop_with_p_scheduling_8h.html" target="_top" xlink:title=" ">
<polygon fill="white" stroke="#666666" points="310.5,-96 164.5,-96 164.5,-66 310.5,-66 310.5,-96"/>
<text text-anchor="start" x="172.5" y="-84" font-family="Helvetica,sans-Serif" font-size="10.00">Kit/System/EventLoopWith</text>
<text text-anchor="middle" x="237.5" y="-73" font-family="Helvetica,sans-Serif" font-size="10.00">PScheduling.h</text>
</a>
</g>
</g>
<!-- Node6&#45;&gt;Node7 -->
<g id="edge7_Node000006_Node000007" class="edge">
<title>Node6&#45;&gt;Node7</title>
<g id="a_edge7_Node000006_Node000007"><a xlink:title=" ">
<path fill="none" stroke="#63b8ff" d="M189.34,-130.16C199.69,-119.81 213.1,-106.4 223.14,-96.36"/>
<polygon fill="#63b8ff" stroke="#63b8ff" points="186.73,-127.82 182.13,-137.37 191.68,-132.77 186.73,-127.82"/>
</a>
</g>
</g>
<!-- Node8&#45;&gt;Node6 -->
<g id="edge10_Node000008_Node000006" class="edge">
<title>Node8&#45;&gt;Node6</title>
<g id="a_edge10_Node000008_Node000006"><a xlink:title=" ">
<path fill="none" stroke="#63b8ff" d="M507.43,-197.31C438.82,-189.04 336.9,-176.06 248.5,-162 238.3,-160.38 227.35,-158.44 217.06,-156.54"/>
<polygon fill="#63b8ff" stroke="#63b8ff" points="507.38,-200.83 517.72,-198.54 508.21,-193.87 507.38,-200.83"/>
</a>
</g>
</g>
<!-- Node9 -->
<g id="Node000009" class="node">
<title>Node9</title>
<g id="a_Node000009"><a xlink:href="_bare_metal_2_thread_8h.html" target="_top" xlink:title=" ">
<polygon fill="white" stroke="#666666" points="725,-162 602,-162 602,-132 725,-132 725,-162"/>
<text text-anchor="start" x="610" y="-150" font-family="Helvetica,sans-Serif" font-size="10.00">Kit/System/BareMetal</text>
<text text-anchor="middle" x="663.5" y="-139" font-family="Helvetica,sans-Serif" font-size="10.00">/Thread.h</text>
</a>
</g>
</g>
<!-- Node8&#45;&gt;Node9 -->
<g id="edge9_Node000008_Node000009" class="edge">
<title>Node8&#45;&gt;Node9</title>
<g id="a_edge9_Node000008_Node000009"><a xlink:title=" ">
<path fill="none" stroke="#63b8ff" d="M605.89,-191.77C617.85,-182.68 633.11,-171.09 644.92,-162.11"/>
<polygon fill="#63b8ff" stroke="#63b8ff" points="603.71,-189.03 597.86,-197.87 607.94,-194.61 603.71,-189.03"/>
</a>
</g>
</g>
<!-- Node10 -->
<g id="Node000010" class="node">
<title>Node10</title>
<g id="a_Node000010"><a xlink:href="_posix_2_thread_8h.html" target="_top" xlink:title=" ">
<polygon fill="white" stroke="#666666" points="888,-156.5 743,-156.5 743,-137.5 888,-137.5 888,-156.5"/>
<text text-anchor="middle" x="815.5" y="-144.5" font-family="Helvetica,sans-Serif" font-size="10.00">Kit/System/Posix/Thread.h</text>
</a>
</g>
</g>
<!-- Node8&#45;&gt;Node10 -->
<g id="edge11_Node000008_Node000010" class="edge">
<title>Node8&#45;&gt;Node10</title>
<g id="a_edge11_Node000008_Node000010"><a xlink:title=" ">
<path fill="none" stroke="#63b8ff" d="M629.69,-195.47C673.96,-184.16 741.86,-166.81 782.16,-156.52"/>
<polygon fill="#63b8ff" stroke="#63b8ff" points="628.62,-192.13 619.8,-197.99 630.35,-198.91 628.62,-192.13"/>
</a>
</g>
</g>
<!-- Node11 -->
<g id="Node000011" class="node">
<title>Node11</title>
<g id="a_Node000011"><a xlink:href="_posix_2mappings_8h.html" target="_top" xlink:title="This file provides the mappings for Platform specific types, etc.">
<polygon fill="white" stroke="#666666" points="417,-156.5 258,-156.5 258,-137.5 417,-137.5 417,-156.5"/>
<text text-anchor="middle" x="337.5" y="-144.5" font-family="Helvetica,sans-Serif" font-size="10.00">Kit/System/Posix/mappings.h</text>
</a>
</g>
</g>
<!-- Node8&#45;&gt;Node11 -->
<g id="edge12_Node000008_Node000011" class="edge">
<title>Node8&#45;&gt;Node11</title>
<g id="a_edge12_Node000008_Node000011"><a xlink:title=" ">
<path fill="none" stroke="#63b8ff" d="M540.45,-195.68C492.33,-184.38 417.84,-166.88 373.75,-156.52"/>
<polygon fill="#63b8ff" stroke="#63b8ff" points="539.76,-199.11 550.29,-197.99 541.36,-192.3 539.76,-199.11"/>
</a>
</g>
</g>
<!-- Node12 -->
<g id="Node000012" class="node">
<title>Node12</title>
<g id="a_Node000012"><a xlink:href="_sim_tick_8h.html" target="_top" xlink:title=" ">
<polygon fill="white" stroke="#666666" points="1027,-156.5 906,-156.5 906,-137.5 1027,-137.5 1027,-156.5"/>
<text text-anchor="middle" x="966.5" y="-144.5" font-family="Helvetica,sans-Serif" font-size="10.00">Kit/System/SimTick.h</text>
</a>
</g>
</g>
<!-- Node8&#45;&gt;Node12 -->
<g id="edge13_Node000008_Node000012" class="edge">
<title>Node8&#45;&gt;Node12</title>
<g id="a_edge13_Node000008_Node000012"><a xlink:title=" ">
<path fill="none" stroke="#63b8ff" d="M663.71,-196.61C726.54,-188.28 817.44,-175.57 896.5,-162 906.03,-160.36 916.25,-158.43 925.85,-156.52"/>
<polygon fill="#63b8ff" stroke="#63b8ff" points="662.94,-193.18 653.49,-197.96 663.86,-200.12 662.94,-193.18"/>
</a>
</g>
</g>
<!-- Node13 -->
<g id="Node000013" class="node">
<title>Node13</title>
<g id="a_Node000013"><a xlink:href="_win32_2_thread_8h.html" target="_top" xlink:title=" ">
<polygon fill="white" stroke="#666666" points="584,-156.5 435,-156.5 435,-137.5 584,-137.5 584,-156.5"/>
<text text-anchor="middle" x="509.5" y="-144.5" font-family="Helvetica,sans-Serif" font-size="10.00">Kit/System/Win32/Thread.h</text>
</a>
</g>
</g>
<!-- Node8&#45;&gt;Node13 -->
<g id="edge14_Node000008_Node000013" class="edge">
<title>Node8&#45;&gt;Node13</title>
<g id="a_edge14_Node000008_Node000013"><a xlink:title=" ">
<path fill="none" stroke="#63b8ff" d="M566.81,-191.54C552.27,-180.49 532.98,-165.84 520.91,-156.67"/>
<polygon fill="#63b8ff" stroke="#63b8ff" points="565.06,-194.61 575.14,-197.87 569.29,-189.03 565.06,-194.61"/>
</a>
</g>
</g>
<!-- Node14&#45;&gt;Node5 -->
<g id="edge19_Node000014_Node000005" class="edge">
<title>Node14&#45;&gt;Node5</title>
<g id="a_edge19_Node000014_Node000005"><a xlink:title=" ">
<path fill="none" stroke="#63b8ff" d="M1034.84,-202.06C1131.14,-195.43 1312.13,-181.59 1465.5,-162 1477.38,-160.48 1490.15,-158.52 1502.06,-156.56"/>
<polygon fill="#63b8ff" stroke="#63b8ff" points="1034.4,-198.58 1024.66,-202.76 1034.88,-205.57 1034.4,-198.58"/>
</a>
</g>
</g>
<!-- Node14&#45;&gt;Node9 -->
<g id="edge20_Node000014_Node000009" class="edge">
<title>Node14&#45;&gt;Node9</title>
<g id="a_edge20_Node000014_Node000009"><a xlink:title=" ">
<path fill="none" stroke="#63b8ff" d="M910.92,-196.02C863.69,-187.09 794.12,-173.85 733.5,-162 730.82,-161.48 728.09,-160.94 725.33,-160.4"/>
<polygon fill="#63b8ff" stroke="#63b8ff" points="910.46,-199.5 920.94,-197.92 911.76,-192.62 910.46,-199.5"/>
</a>
</g>
</g>
<!-- Node14&#45;&gt;Node10 -->
<g id="edge22_Node000014_Node000010" class="edge">
<title>Node14&#45;&gt;Node10</title>
<g id="a_edge22_Node000014_Node000010"><a xlink:title=" ">
<path fill="none" stroke="#63b8ff" d="M935.21,-194.38C906.02,-183.07 863.22,-166.49 837.48,-156.52"/>
<polygon fill="#63b8ff" stroke="#63b8ff" points="933.95,-197.64 944.54,-197.99 936.48,-191.12 933.95,-197.64"/>
</a>
</g>
</g>
<!-- Node14&#45;&gt;Node12 -->
<g id="edge23_Node000014_Node000012" class="edge">
<title>Node14&#45;&gt;Node12</title>
<g id="a_edge23_Node000014_Node000012"><a xlink:title=" ">
<path fill="none" stroke="#63b8ff" d="M966.5,-187.66C966.5,-177.24 966.5,-164.8 966.5,-156.67"/>
<polygon fill="#63b8ff" stroke="#63b8ff" points="963,-187.87 966.5,-197.87 970,-187.87 963,-187.87"/>
</a>
</g>
</g>
<!-- Node14&#45;&gt;Node13 -->
<g id="edge24_Node000014_Node000013" class="edge">
<title>Node14&#45;&gt;Node13</title>
<g id="a_edge24_Node000014_Node000013"><a xlink:title=" ">
<path fill="none" stroke="#63b8ff" d="M898.14,-199.38C823.05,-191.32 698.98,-177.31 592.5,-162 581.22,-160.38 569.11,-158.45 557.72,-156.54"/>
<polygon fill="#63b8ff" stroke="#63b8ff" points="898.09,-202.89 908.4,-200.47 898.83,-195.93 898.09,-202.89"/>
</a>
</g>
</g>
<!-- Node15 -->
<g id="Node000015" class="node">
<title>Node15</title>
<g id="a_Node000015"><a xlink:href="_serial_2_r_pi_2_r_p2xxx_2_uart_2_input_output_8h.html" target="_top" xlink:title=" ">
<polygon fill="white" stroke="#666666" points="1176,-162 1045,-162 1045,-132 1176,-132 1176,-162"/>
<text text-anchor="start" x="1053" y="-150" font-family="Helvetica,sans-Serif" font-size="10.00">Kit/Io/Serial/RPi/RP2xxx</text>
<text text-anchor="middle" x="1110.5" y="-139" font-family="Helvetica,sans-Serif" font-size="10.00">/Uart/InputOutput.h</text>
</a>
</g>
</g>
<!-- Node14&#45;&gt;Node15 -->
<g id="edge16_Node000014_Node000015" class="edge">
<title>Node14&#45;&gt;Node15</title>
<g id="a_edge16_Node000014_Node000015"><a xlink:title=" ">
<path fill="none" stroke="#63b8ff" d="M996.76,-194.21C1019.87,-184.82 1051.75,-171.87 1075.88,-162.06"/>
<polygon fill="#63b8ff" stroke="#63b8ff" points="995.39,-190.99 987.44,-197.99 998.02,-197.47 995.39,-190.99"/>
</a>
</g>
</g>
<!-- Node16 -->
<g id="Node000016" class="node">
<title>Node16</title>
<g id="a_Node000016"><a xlink:href="_stream_driver_8h.html" target="_top" xlink:title=" ">
<polygon fill="white" stroke="#666666" points="1318.5,-162 1194.5,-162 1194.5,-132 1318.5,-132 1318.5,-162"/>
<text text-anchor="start" x="1202.5" y="-150" font-family="Helvetica,sans-Serif" font-size="10.00">Kit/Io/Serial/ST/M32F4</text>
<text text-anchor="middle" x="1256.5" y="-139" font-family="Helvetica,sans-Serif" font-size="10.00">/StreamDriver.h</text>
</a>
</g>
</g>
<!-- Node14&#45;&gt;Node16 -->
<g id="edge17_Node000014_Node000016" class="edge">
<title>Node14&#45;&gt;Node16</title>
<g id="a_edge17_Node000014_Node000016"><a xlink:title=" ">
<path fill="none" stroke="#63b8ff" d="M1018.5,-196.01C1067.85,-186.05 1142.08,-171.08 1194.49,-160.51"/>
<polygon fill="#63b8ff" stroke="#63b8ff" points="1017.78,-192.59 1008.67,-197.99 1019.16,-199.45 1017.78,-192.59"/>
</a>
</g>
</g>
<!-- Node18 -->
<g id="Node000018" class="node">
<title>Node18</title>
<g id="a_Node000018"><a xlink:href="_free_r_t_o_s_2_thread_8h.html" target="_top" xlink:title=" ">
<polygon fill="white" stroke="#666666" points="1456,-162 1337,-162 1337,-132 1456,-132 1456,-162"/>
<text text-anchor="start" x="1345" y="-150" font-family="Helvetica,sans-Serif" font-size="10.00">Kit/System/FreeRTOS</text>
<text text-anchor="middle" x="1396.5" y="-139" font-family="Helvetica,sans-Serif" font-size="10.00">/Thread.h</text>
</a>
</g>
</g>
<!-- Node14&#45;&gt;Node18 -->
<g id="edge21_Node000014_Node000018" class="edge">
<title>Node14&#45;&gt;Node18</title>
<g id="a_edge21_Node000014_Node000018"><a xlink:title=" ">
<path fill="none" stroke="#63b8ff" d="M1034.48,-199.71C1107.22,-192.07 1225.86,-178.55 1327.5,-162 1330.52,-161.51 1333.6,-160.98 1336.71,-160.43"/>
<polygon fill="#63b8ff" stroke="#63b8ff" points="1034.11,-196.23 1024.53,-200.75 1034.84,-203.19 1034.11,-196.23"/>
</a>
</g>
</g>
<!-- Node17 -->
<g id="Node000017" class="node">
<title>Node17</title>
<g id="a_Node000017"><a xlink:href="_serial_2_s_t_2_m32_f4_2_input_output_8h.html" target="_top" xlink:title=" ">
<polygon fill="white" stroke="#666666" points="1318.5,-96 1194.5,-96 1194.5,-66 1318.5,-66 1318.5,-96"/>
<text text-anchor="start" x="1202.5" y="-84" font-family="Helvetica,sans-Serif" font-size="10.00">Kit/Io/Serial/ST/M32F4</text>
<text text-anchor="middle" x="1256.5" y="-73" font-family="Helvetica,sans-Serif" font-size="10.00">/InputOutput.h</text>
</a>
</g>
</g>
<!-- Node16&#45;&gt;Node17 -->
<g id="edge18_Node000016_Node000017" class="edge">
<title>Node16&#45;&gt;Node17</title>
<g id="a_edge18_Node000016_Node000017"><a xlink:title=" ">
<path fill="none" stroke="#63b8ff" d="M1256.5,-121.54C1256.5,-112.96 1256.5,-103.61 1256.5,-96.16"/>
<polygon fill="#63b8ff" stroke="#63b8ff" points="1253,-121.8 1256.5,-131.8 1260,-121.8 1253,-121.8"/>
</a>
</g>
</g>
</g>
</svg>
