<?xml version="1.0" encoding="UTF-8" standalone="no"?>
<!DOCTYPE svg PUBLIC "-//W3C//DTD SVG 1.1//EN"
 "http://www.w3.org/Graphics/SVG/1.1/DTD/svg11.dtd">
<!-- Generated by graphviz version 2.43.0 (0)
 -->
<!-- Title: Kit/System/ISignable.h Pages: 1 -->
<svg width="1010pt" height="269pt"
 viewBox="0.00 0.00 1010.00 269.00" xmlns="http://www.w3.org/2000/svg" xmlns:xlink="http://www.w3.org/1999/xlink">
<g id="graph0" class="graph" transform="scale(1 1) rotate(0) translate(4 265)">
<title>Kit/System/ISignable.h</title>
<!-- Node1 -->
<g id="Node000001" class="node">
<title>Node1</title>
<g id="a_Node000001"><a xlink:title=" ">
<polygon fill="#999999" stroke="#666666" points="353,-261 226,-261 226,-242 353,-242 353,-261"/>
<text text-anchor="middle" x="289.5" y="-249" font-family="Helvetica,sans-Serif" font-size="10.00">Kit/System/ISignable.h</text>
</a>
</g>
</g>
<!-- Node2 -->
<g id="Node000002" class="node">
<title>Node2</title>
<g id="a_Node000002"><a xlink:href="_mailbox_8h.html" target="_top" xlink:title=" ">
<polygon fill="white" stroke="#666666" points="112.5,-206 16.5,-206 16.5,-187 112.5,-187 112.5,-206"/>
<text text-anchor="middle" x="64.5" y="-194" font-family="Helvetica,sans-Serif" font-size="10.00">Kit/Itc/Mailbox.h</text>
</a>
</g>
</g>
<!-- Node1&#45;&gt;Node2 -->
<g id="edge1_Node000001_Node000002" class="edge">
<title>Node1&#45;&gt;Node2</title>
<g id="a_edge1_Node000001_Node000002"><a xlink:title=" ">
<path fill="none" stroke="#63b8ff" d="M243.61,-239.69C201.45,-229.76 139.8,-215.24 100.93,-206.08"/>
<polygon fill="#63b8ff" stroke="#63b8ff" points="242.81,-243.1 253.35,-241.98 244.42,-236.28 242.81,-243.1"/>
</a>
</g>
</g>
<!-- Node5 -->
<g id="Node000005" class="node">
<title>Node5</title>
<g id="a_Node000005"><a xlink:href="_sync_return_handler_8h.html" target="_top" xlink:title=" ">
<polygon fill="white" stroke="#666666" points="204.5,-151 54.5,-151 54.5,-132 204.5,-132 204.5,-151"/>
<text text-anchor="middle" x="129.5" y="-139" font-family="Helvetica,sans-Serif" font-size="10.00">Kit/Itc/SyncReturnHandler.h</text>
</a>
</g>
</g>
<!-- Node1&#45;&gt;Node5 -->
<g id="edge4_Node000001_Node000005" class="edge">
<title>Node1&#45;&gt;Node5</title>
<g id="a_edge4_Node000001_Node000005"><a xlink:title=" ">
<path fill="none" stroke="#63b8ff" d="M268.03,-236.01C234.27,-213.22 169.82,-169.72 142.38,-151.2"/>
<polygon fill="#63b8ff" stroke="#63b8ff" points="266.43,-239.15 276.68,-241.84 270.35,-233.35 266.43,-239.15"/>
</a>
</g>
</g>
<!-- Node6 -->
<g id="Node000006" class="node">
<title>Node6</title>
<g id="a_Node000006"><a xlink:href="_event_loop_8h.html" target="_top" xlink:title=" ">
<polygon fill="white" stroke="#666666" points="356,-151 223,-151 223,-132 356,-132 356,-151"/>
<text text-anchor="middle" x="289.5" y="-139" font-family="Helvetica,sans-Serif" font-size="10.00">Kit/System/EventLoop.h</text>
</a>
</g>
</g>
<!-- Node1&#45;&gt;Node6 -->
<g id="edge5_Node000001_Node000006" class="edge">
<title>Node1&#45;&gt;Node6</title>
<g id="a_edge5_Node000001_Node000006"><a xlink:title=" ">
<path fill="none" stroke="#63b8ff" d="M289.5,-231.48C289.5,-207.84 289.5,-168.5 289.5,-151.16"/>
<polygon fill="#63b8ff" stroke="#63b8ff" points="286,-231.66 289.5,-241.66 293,-231.66 286,-231.66"/>
</a>
</g>
</g>
<!-- Node8 -->
<g id="Node000008" class="node">
<title>Node8</title>
<g id="a_Node000008"><a xlink:href="_semaphore_8h.html" target="_top" xlink:title=" ">
<polygon fill="white" stroke="#666666" points="663,-206 526,-206 526,-187 663,-187 663,-206"/>
<text text-anchor="middle" x="594.5" y="-194" font-family="Helvetica,sans-Serif" font-size="10.00">Kit/System/Semaphore.h</text>
</a>
</g>
</g>
<!-- Node1&#45;&gt;Node8 -->
<g id="edge8_Node000001_Node000008" class="edge">
<title>Node1&#45;&gt;Node8</title>
<g id="a_edge8_Node000001_Node000008"><a xlink:title=" ">
<path fill="none" stroke="#63b8ff" d="M348.5,-240.25C405.77,-230.3 491.7,-215.36 545.37,-206.04"/>
<polygon fill="#63b8ff" stroke="#63b8ff" points="347.76,-236.82 338.5,-241.98 348.96,-243.72 347.76,-236.82"/>
</a>
</g>
</g>
<!-- Node13 -->
<g id="Node000013" class="node">
<title>Node13</title>
<g id="a_Node000013"><a xlink:href="_thread_8h.html" target="_top" xlink:title=" ">
<polygon fill="white" stroke="#666666" points="504.5,-206 388.5,-206 388.5,-187 504.5,-187 504.5,-206"/>
<text text-anchor="middle" x="446.5" y="-194" font-family="Helvetica,sans-Serif" font-size="10.00">Kit/System/Thread.h</text>
</a>
</g>
</g>
<!-- Node1&#45;&gt;Node13 -->
<g id="edge14_Node000001_Node000013" class="edge">
<title>Node1&#45;&gt;Node13</title>
<g id="a_edge14_Node000001_Node000013"><a xlink:title=" ">
<path fill="none" stroke="#63b8ff" d="M324.55,-238.67C353.82,-228.79 394.87,-214.93 421.08,-206.08"/>
<polygon fill="#63b8ff" stroke="#63b8ff" points="323.08,-235.47 314.72,-241.98 325.32,-242.1 323.08,-235.47"/>
</a>
</g>
</g>
<!-- Node3 -->
<g id="Node000003" class="node">
<title>Node3</title>
<g id="a_Node000003"><a xlink:href="_server_8h.html" target="_top" xlink:title=" ">
<polygon fill="white" stroke="#666666" points="146,-90.5 11,-90.5 11,-71.5 146,-71.5 146,-90.5"/>
<text text-anchor="middle" x="78.5" y="-78.5" font-family="Helvetica,sans-Serif" font-size="10.00">Kit/EventQueue/Server.h</text>
</a>
</g>
</g>
<!-- Node2&#45;&gt;Node3 -->
<g id="edge2_Node000002_Node000003" class="edge">
<title>Node2&#45;&gt;Node3</title>
<g id="a_edge2_Node000002_Node000003"><a xlink:title=" ">
<path fill="none" stroke="#63b8ff" d="M53.54,-177.83C47.02,-165.09 40.85,-147.48 45.5,-132 50.35,-115.86 62.27,-100.13 70.38,-90.75"/>
<polygon fill="#63b8ff" stroke="#63b8ff" points="50.68,-179.88 58.64,-186.87 56.78,-176.44 50.68,-179.88"/>
</a>
</g>
</g>
<!-- Node4 -->
<g id="Node000004" class="node">
<title>Node4</title>
<g id="a_Node000004"><a xlink:href="_with_periodic_scheduling_8h.html" target="_top" xlink:title=" ">
<polygon fill="white" stroke="#666666" points="157,-30 0,-30 0,0 157,0 157,-30"/>
<text text-anchor="start" x="8" y="-18" font-family="Helvetica,sans-Serif" font-size="10.00">Kit/EventQueue/WithPeriodic</text>
<text text-anchor="middle" x="78.5" y="-7" font-family="Helvetica,sans-Serif" font-size="10.00">Scheduling.h</text>
</a>
</g>
</g>
<!-- Node3&#45;&gt;Node4 -->
<g id="edge3_Node000003_Node000004" class="edge">
<title>Node3&#45;&gt;Node4</title>
<g id="a_edge3_Node000003_Node000004"><a xlink:title=" ">
<path fill="none" stroke="#63b8ff" d="M78.5,-61.35C78.5,-51.47 78.5,-39.51 78.5,-30.36"/>
<polygon fill="#63b8ff" stroke="#63b8ff" points="75,-61.37 78.5,-71.37 82,-61.37 75,-61.37"/>
</a>
</g>
</g>
<!-- Node6&#45;&gt;Node3 -->
<g id="edge6_Node000006_Node000003" class="edge">
<title>Node6&#45;&gt;Node3</title>
<g id="a_edge6_Node000006_Node000003"><a xlink:title=" ">
<path fill="none" stroke="#63b8ff" d="M248.93,-129.25C208.12,-117.94 146.11,-100.75 109.22,-90.52"/>
<polygon fill="#63b8ff" stroke="#63b8ff" points="248.25,-132.69 258.82,-131.99 250.12,-125.95 248.25,-132.69"/>
</a>
</g>
</g>
<!-- Node7 -->
<g id="Node000007" class="node">
<title>Node7</title>
<g id="a_Node000007"><a xlink:href="_event_loop_with_p_scheduling_8h.html" target="_top" xlink:title=" ">
<polygon fill="white" stroke="#666666" points="362.5,-96 216.5,-96 216.5,-66 362.5,-66 362.5,-96"/>
<text text-anchor="start" x="224.5" y="-84" font-family="Helvetica,sans-Serif" font-size="10.00">Kit/System/EventLoopWith</text>
<text text-anchor="middle" x="289.5" y="-73" font-family="Helvetica,sans-Serif" font-size="10.00">PScheduling.h</text>
</a>
</g>
</g>
<!-- Node6&#45;&gt;Node7 -->
<g id="edge7_Node000006_Node000007" class="edge">
<title>Node6&#45;&gt;Node7</title>
<g id="a_edge7_Node000006_Node000007"><a xlink:title=" ">
<path fill="none" stroke="#63b8ff" d="M289.5,-121.65C289.5,-113.36 289.5,-103.78 289.5,-96.11"/>
<polygon fill="#63b8ff" stroke="#63b8ff" points="286,-121.87 289.5,-131.87 293,-121.87 286,-121.87"/>
</a>
</g>
</g>
<!-- Node8&#45;&gt;Node6 -->
<g id="edge9_Node000008_Node000006" class="edge">
<title>Node8&#45;&gt;Node6</title>
<g id="a_edge9_Node000008_Node000006"><a xlink:title=" ">
<path fill="none" stroke="#63b8ff" d="M535.5,-185.25C478.23,-175.3 392.3,-160.36 338.63,-151.04"/>
<polygon fill="#63b8ff" stroke="#63b8ff" points="535.04,-188.72 545.5,-186.98 536.24,-181.82 535.04,-188.72"/>
</a>
</g>
</g>
<!-- Node9 -->
<g id="Node000009" class="node">
<title>Node9</title>
<g id="a_Node000009"><a xlink:href="_posix_2_thread_8h.html" target="_top" xlink:title=" ">
<polygon fill="white" stroke="#666666" points="519,-151 374,-151 374,-132 519,-132 519,-151"/>
<text text-anchor="middle" x="446.5" y="-139" font-family="Helvetica,sans-Serif" font-size="10.00">Kit/System/Posix/Thread.h</text>
</a>
</g>
</g>
<!-- Node8&#45;&gt;Node9 -->
<g id="edge10_Node000008_Node000009" class="edge">
<title>Node8&#45;&gt;Node9</title>
<g id="a_edge10_Node000008_Node000009"><a xlink:title=" ">
<path fill="none" stroke="#63b8ff" d="M561.13,-183.55C533.65,-173.71 495.33,-159.98 470.71,-151.17"/>
<polygon fill="#63b8ff" stroke="#63b8ff" points="560.13,-186.91 570.72,-186.98 562.49,-180.32 560.13,-186.91"/>
</a>
</g>
</g>
<!-- Node10 -->
<g id="Node000010" class="node">
<title>Node10</title>
<g id="a_Node000010"><a xlink:href="_posix_2mappings_8h.html" target="_top" xlink:title="This file provides the mappings for Platform specific types, etc.">
<polygon fill="white" stroke="#666666" points="1002,-151 843,-151 843,-132 1002,-132 1002,-151"/>
<text text-anchor="middle" x="922.5" y="-139" font-family="Helvetica,sans-Serif" font-size="10.00">Kit/System/Posix/mappings.h</text>
</a>
</g>
</g>
<!-- Node8&#45;&gt;Node10 -->
<g id="edge11_Node000008_Node000010" class="edge">
<title>Node8&#45;&gt;Node10</title>
<g id="a_edge11_Node000008_Node000010"><a xlink:title=" ">
<path fill="none" stroke="#63b8ff" d="M657.18,-185.37C718.77,-175.42 811.71,-160.4 869.66,-151.04"/>
<polygon fill="#63b8ff" stroke="#63b8ff" points="656.51,-181.93 647.2,-186.98 657.63,-188.84 656.51,-181.93"/>
</a>
</g>
</g>
<!-- Node11 -->
<g id="Node000011" class="node">
<title>Node11</title>
<g id="a_Node000011"><a xlink:href="_sim_tick_8h.html" target="_top" xlink:title=" ">
<polygon fill="white" stroke="#666666" points="658,-151 537,-151 537,-132 658,-132 658,-151"/>
<text text-anchor="middle" x="597.5" y="-139" font-family="Helvetica,sans-Serif" font-size="10.00">Kit/System/SimTick.h</text>
</a>
</g>
</g>
<!-- Node8&#45;&gt;Node11 -->
<g id="edge12_Node000008_Node000011" class="edge">
<title>Node8&#45;&gt;Node11</title>
<g id="a_edge12_Node000008_Node000011"><a xlink:title=" ">
<path fill="none" stroke="#63b8ff" d="M595.57,-176.66C596.06,-167.93 596.62,-157.99 597.01,-151.09"/>
<polygon fill="#63b8ff" stroke="#63b8ff" points="592.07,-176.57 595,-186.75 599.06,-176.96 592.07,-176.57"/>
</a>
</g>
</g>
<!-- Node12 -->
<g id="Node000012" class="node">
<title>Node12</title>
<g id="a_Node000012"><a xlink:href="_win32_2_thread_8h.html" target="_top" xlink:title=" ">
<polygon fill="white" stroke="#666666" points="825,-151 676,-151 676,-132 825,-132 825,-151"/>
<text text-anchor="middle" x="750.5" y="-139" font-family="Helvetica,sans-Serif" font-size="10.00">Kit/System/Win32/Thread.h</text>
</a>
</g>
</g>
<!-- Node8&#45;&gt;Node12 -->
<g id="edge13_Node000008_Node000012" class="edge">
<title>Node8&#45;&gt;Node12</title>
<g id="a_edge13_Node000008_Node000012"><a xlink:title=" ">
<path fill="none" stroke="#63b8ff" d="M629.32,-183.67C658.41,-173.79 699.2,-159.93 725.24,-151.08"/>
<polygon fill="#63b8ff" stroke="#63b8ff" points="627.91,-180.45 619.56,-186.98 630.16,-187.08 627.91,-180.45"/>
</a>
</g>
</g>
<!-- Node13&#45;&gt;Node5 -->
<g id="edge15_Node000013_Node000005" class="edge">
<title>Node13&#45;&gt;Node5</title>
<g id="a_edge15_Node000013_Node000005"><a xlink:title=" ">
<path fill="none" stroke="#63b8ff" d="M385.55,-185.31C326.02,-175.36 236.46,-160.38 180.57,-151.04"/>
<polygon fill="#63b8ff" stroke="#63b8ff" points="385.13,-188.79 395.57,-186.98 386.28,-181.88 385.13,-188.79"/>
</a>
</g>
</g>
<!-- Node13&#45;&gt;Node9 -->
<g id="edge16_Node000013_Node000009" class="edge">
<title>Node13&#45;&gt;Node9</title>
<g id="a_edge16_Node000013_Node000009"><a xlink:title=" ">
<path fill="none" stroke="#63b8ff" d="M446.5,-176.66C446.5,-167.93 446.5,-157.99 446.5,-151.09"/>
<polygon fill="#63b8ff" stroke="#63b8ff" points="443,-176.75 446.5,-186.75 450,-176.75 443,-176.75"/>
</a>
</g>
</g>
<!-- Node13&#45;&gt;Node11 -->
<g id="edge17_Node000013_Node000011" class="edge">
<title>Node13&#45;&gt;Node11</title>
<g id="a_edge17_Node000013_Node000011"><a xlink:title=" ">
<path fill="none" stroke="#63b8ff" d="M480.55,-183.55C508.59,-173.71 547.68,-159.98 572.8,-151.17"/>
<polygon fill="#63b8ff" stroke="#63b8ff" points="479.04,-180.37 470.76,-186.98 481.36,-186.98 479.04,-180.37"/>
</a>
</g>
</g>
<!-- Node13&#45;&gt;Node12 -->
<g id="edge18_Node000013_Node000012" class="edge">
<title>Node13&#45;&gt;Node12</title>
<g id="a_edge18_Node000013_Node000012"><a xlink:title=" ">
<path fill="none" stroke="#63b8ff" d="M505.3,-185.25C562.39,-175.3 648.04,-160.36 701.53,-151.04"/>
<polygon fill="#63b8ff" stroke="#63b8ff" points="504.59,-181.82 495.34,-186.98 505.8,-188.72 504.59,-181.82"/>
</a>
</g>
</g>
</g>
</svg>
