<?xml version="1.0" encoding="UTF-8" standalone="no"?>
<!DOCTYPE svg PUBLIC "-//W3C//DTD SVG 1.1//EN"
 "http://www.w3.org/Graphics/SVG/1.1/DTD/svg11.dtd">
<!-- Generated by graphviz version 2.43.0 (0)
 -->
<!-- Title: Kit/System/ITimingSource.h Pages: 1 -->
<svg width="2062pt" height="566pt"
 viewBox="0.00 0.00 2061.50 566.00" xmlns="http://www.w3.org/2000/svg" xmlns:xlink="http://www.w3.org/1999/xlink">
<g id="graph0" class="graph" transform="scale(1 1) rotate(0) translate(4 562)">
<title>Kit/System/ITimingSource.h</title>
<!-- Node1 -->
<g id="Node000001" class="node">
<title>Node1</title>
<g id="a_Node000001"><a xlink:title=" ">
<polygon fill="#999999" stroke="#666666" points="1763.5,-558 1611.5,-558 1611.5,-539 1763.5,-539 1763.5,-558"/>
<text text-anchor="middle" x="1687.5" y="-546" font-family="Helvetica,sans-Serif" font-size="10.00">Kit/System/ITimingSource.h</text>
</a>
</g>
</g>
<!-- Node2 -->
<g id="Node000002" class="node">
<title>Node2</title>
<g id="a_Node000002"><a xlink:href="_i_queue_8h.html" target="_top" xlink:title=" ">
<polygon fill="white" stroke="#666666" points="766,-497.5 627,-497.5 627,-478.5 766,-478.5 766,-497.5"/>
<text text-anchor="middle" x="696.5" y="-485.5" font-family="Helvetica,sans-Serif" font-size="10.00">Kit/EventQueue/IQueue.h</text>
</a>
</g>
</g>
<!-- Node1&#45;&gt;Node2 -->
<g id="edge1_Node000001_Node000002" class="edge">
<title>Node1&#45;&gt;Node2</title>
<g id="a_edge1_Node000001_Node000002"><a xlink:title=" ">
<path fill="none" stroke="#63b8ff" d="M1601.27,-542.41C1407.92,-531 942.87,-503.54 766.2,-493.11"/>
<polygon fill="#63b8ff" stroke="#63b8ff" points="1601.19,-545.91 1611.38,-543.01 1601.61,-538.92 1601.19,-545.91"/>
</a>
</g>
</g>
<!-- Node29 -->
<g id="Node000029" class="node">
<title>Node29</title>
<g id="a_Node000029"><a xlink:href="_i_watched_event_loop_8h.html" target="_top" xlink:title=" ">
<polygon fill="white" stroke="#666666" points="1861.5,-503 1715.5,-503 1715.5,-473 1861.5,-473 1861.5,-503"/>
<text text-anchor="start" x="1723.5" y="-491" font-family="Helvetica,sans-Serif" font-size="10.00">Kit/System/IWatchedEvent</text>
<text text-anchor="middle" x="1788.5" y="-480" font-family="Helvetica,sans-Serif" font-size="10.00">Loop.h</text>
</a>
</g>
</g>
<!-- Node1&#45;&gt;Node29 -->
<g id="edge53_Node000001_Node000029" class="edge">
<title>Node1&#45;&gt;Node29</title>
<g id="a_edge53_Node000001_Node000029"><a xlink:title=" ">
<path fill="none" stroke="#63b8ff" d="M1711.13,-533.81C1727.07,-524.58 1748.04,-512.43 1764.13,-503.11"/>
<polygon fill="#63b8ff" stroke="#63b8ff" points="1709.3,-530.83 1702.4,-538.87 1712.81,-536.88 1709.3,-530.83"/>
</a>
</g>
</g>
<!-- Node32 -->
<g id="Node000032" class="node">
<title>Node32</title>
<g id="a_Node000032"><a xlink:href="_watched_event_thread_8h.html" target="_top" xlink:title=" ">
<polygon fill="white" stroke="#666666" points="1744.5,-162 1612.5,-162 1612.5,-132 1744.5,-132 1744.5,-162"/>
<text text-anchor="start" x="1620.5" y="-150" font-family="Helvetica,sans-Serif" font-size="10.00">Kit/System/Watchdog</text>
<text text-anchor="middle" x="1678.5" y="-139" font-family="Helvetica,sans-Serif" font-size="10.00">/WatchedEventThread.h</text>
</a>
</g>
</g>
<!-- Node1&#45;&gt;Node32 -->
<g id="edge67_Node000001_Node000032" class="edge">
<title>Node1&#45;&gt;Node32</title>
<g id="a_edge67_Node000001_Node000032"><a xlink:title=" ">
<path fill="none" stroke="#63b8ff" d="M1687.5,-528.58C1687.5,-505.1 1687.5,-463.85 1687.5,-428.5 1687.5,-428.5 1687.5,-428.5 1687.5,-294.5 1687.5,-245.83 1682.49,-188.23 1679.95,-162.12"/>
<polygon fill="#63b8ff" stroke="#63b8ff" points="1684,-528.84 1687.5,-538.84 1691,-528.84 1684,-528.84"/>
</a>
</g>
</g>
<!-- Node33 -->
<g id="Node000033" class="node">
<title>Node33</title>
<g id="a_Node000033"><a xlink:href="_timer_8h.html" target="_top" xlink:title=" ">
<polygon fill="white" stroke="#666666" points="1659.5,-228 1549.5,-228 1549.5,-209 1659.5,-209 1659.5,-228"/>
<text text-anchor="middle" x="1604.5" y="-216" font-family="Helvetica,sans-Serif" font-size="10.00">Kit/System/Timer.h</text>
</a>
</g>
</g>
<!-- Node1&#45;&gt;Node33 -->
<g id="edge59_Node000001_Node000033" class="edge">
<title>Node1&#45;&gt;Node33</title>
<g id="a_edge59_Node000001_Node000033"><a xlink:title=" ">
<path fill="none" stroke="#63b8ff" d="M1647.95,-535.66C1602.92,-519.45 1535.5,-485.64 1535.5,-428.5 1535.5,-428.5 1535.5,-428.5 1535.5,-366 1535.5,-308.65 1579.32,-249.67 1597.12,-228.08"/>
<polygon fill="#63b8ff" stroke="#63b8ff" points="1646.87,-538.99 1657.47,-538.95 1649.16,-532.38 1646.87,-538.99"/>
</a>
</g>
</g>
<!-- Node34 -->
<g id="Node000034" class="node">
<title>Node34</title>
<g id="a_Node000034"><a xlink:href="_timer_manager_8h.html" target="_top" xlink:title=" ">
<polygon fill="white" stroke="#666666" points="2031.5,-497.5 1879.5,-497.5 1879.5,-478.5 2031.5,-478.5 2031.5,-497.5"/>
<text text-anchor="middle" x="1955.5" y="-485.5" font-family="Helvetica,sans-Serif" font-size="10.00">Kit/System/TimerManager.h</text>
</a>
</g>
</g>
<!-- Node1&#45;&gt;Node34 -->
<g id="edge65_Node000001_Node000034" class="edge">
<title>Node1&#45;&gt;Node34</title>
<g id="a_edge65_Node000001_Node000034"><a xlink:title=" ">
<path fill="none" stroke="#63b8ff" d="M1736.42,-536.82C1788.18,-525.52 1868.83,-507.92 1916.48,-497.52"/>
<polygon fill="#63b8ff" stroke="#63b8ff" points="1735.49,-533.44 1726.47,-538.99 1736.99,-540.28 1735.49,-533.44"/>
</a>
</g>
</g>
<!-- Node3 -->
<g id="Node000003" class="node">
<title>Node3</title>
<g id="a_Node000003"><a xlink:href="_led_server_8h.html" target="_top" xlink:title=" ">
<polygon fill="white" stroke="#666666" points="688,-41 507,-41 507,0 688,0 688,-41"/>
<text text-anchor="start" x="515" y="-29" font-family="Helvetica,sans-Serif" font-size="10.00">/home/runner/work/kit.core</text>
<text text-anchor="start" x="515" y="-18" font-family="Helvetica,sans-Serif" font-size="10.00">/kit.core/projects/examples</text>
<text text-anchor="middle" x="597.5" y="-7" font-family="Helvetica,sans-Serif" font-size="10.00">/Container/RingBuffer/LedServer.h</text>
</a>
</g>
</g>
<!-- Node2&#45;&gt;Node3 -->
<g id="edge2_Node000002_Node000003" class="edge">
<title>Node2&#45;&gt;Node3</title>
<g id="a_edge2_Node000002_Node000003"><a xlink:title=" ">
<path fill="none" stroke="#63b8ff" d="M616.87,-481.89C537.21,-475.45 421.38,-462.06 384.5,-437 354.99,-416.95 343.5,-403.67 343.5,-368 343.5,-368 343.5,-368 343.5,-146 343.5,-101.36 377.92,-99.47 416.5,-77 444.05,-60.95 476.71,-49.1 506.65,-40.57"/>
<polygon fill="#63b8ff" stroke="#63b8ff" points="616.64,-485.39 626.88,-482.68 617.19,-478.41 616.64,-485.39"/>
</a>
</g>
</g>
<!-- Node4 -->
<g id="Node000004" class="node">
<title>Node4</title>
<g id="a_Node000004"><a xlink:href="_producer_8h.html" target="_top" xlink:title=" ">
<polygon fill="white" stroke="#666666" points="175,-41 0,-41 0,0 175,0 175,-41"/>
<text text-anchor="start" x="8" y="-29" font-family="Helvetica,sans-Serif" font-size="10.00">/home/runner/work/kit.core</text>
<text text-anchor="start" x="8" y="-18" font-family="Helvetica,sans-Serif" font-size="10.00">/kit.core/projects/examples</text>
<text text-anchor="middle" x="87.5" y="-7" font-family="Helvetica,sans-Serif" font-size="10.00">/Container/RingBuffer/Producer.h</text>
</a>
</g>
</g>
<!-- Node2&#45;&gt;Node4 -->
<g id="edge3_Node000002_Node000004" class="edge">
<title>Node2&#45;&gt;Node4</title>
<g id="a_edge3_Node000002_Node000004"><a xlink:title=" ">
<path fill="none" stroke="#63b8ff" d="M616.93,-485.76C467.21,-481.27 158.5,-460.75 158.5,-368 158.5,-368 158.5,-368 158.5,-146 158.5,-104.45 128.29,-64.13 107.28,-41.11"/>
<polygon fill="#63b8ff" stroke="#63b8ff" points="616.9,-489.26 626.99,-486.05 617.1,-482.27 616.9,-489.26"/>
</a>
</g>
</g>
<!-- Node5 -->
<g id="Node000005" class="node">
<title>Node5</title>
<g id="a_Node000005"><a xlink:href="_dm_2_transaction_2_client_8h.html" target="_top" xlink:title=" ">
<polygon fill="white" stroke="#666666" points="855,-41 706,-41 706,0 855,0 855,-41"/>
<text text-anchor="start" x="714" y="-29" font-family="Helvetica,sans-Serif" font-size="10.00">/home/runner/work/kit.core</text>
<text text-anchor="start" x="714" y="-18" font-family="Helvetica,sans-Serif" font-size="10.00">/kit.core/projects/examples</text>
<text text-anchor="middle" x="780.5" y="-7" font-family="Helvetica,sans-Serif" font-size="10.00">/Dm/Transaction/Client.h</text>
</a>
</g>
</g>
<!-- Node2&#45;&gt;Node5 -->
<g id="edge4_Node000002_Node000005" class="edge">
<title>Node2&#45;&gt;Node5</title>
<g id="a_edge4_Node000002_Node000005"><a xlink:title=" ">
<path fill="none" stroke="#63b8ff" d="M616.91,-485.36C535.06,-478.94 419.5,-454.55 419.5,-368 419.5,-368 419.5,-368 419.5,-294.5 419.5,-250.7 411.37,-231.58 439.5,-198 467.17,-164.98 490.62,-180.56 529.5,-162 610.62,-123.27 701.76,-69.54 748.72,-41.06"/>
<polygon fill="#63b8ff" stroke="#63b8ff" points="616.74,-488.86 626.96,-486.07 617.23,-481.87 616.74,-488.86"/>
</a>
</g>
</g>
<!-- Node6 -->
<g id="Node000006" class="node">
<title>Node6</title>
<g id="a_Node000006"><a xlink:href="projects_2examples_2_dm_2_transaction_2_server_8h.html" target="_top" xlink:title=" ">
<polygon fill="white" stroke="#666666" points="342,-41 193,-41 193,0 342,0 342,-41"/>
<text text-anchor="start" x="201" y="-29" font-family="Helvetica,sans-Serif" font-size="10.00">/home/runner/work/kit.core</text>
<text text-anchor="start" x="201" y="-18" font-family="Helvetica,sans-Serif" font-size="10.00">/kit.core/projects/examples</text>
<text text-anchor="middle" x="267.5" y="-7" font-family="Helvetica,sans-Serif" font-size="10.00">/Dm/Transaction/Server.h</text>
</a>
</g>
</g>
<!-- Node2&#45;&gt;Node6 -->
<g id="edge5_Node000002_Node000006" class="edge">
<title>Node2&#45;&gt;Node6</title>
<g id="a_edge5_Node000002_Node000006"><a xlink:title=" ">
<path fill="none" stroke="#63b8ff" d="M616.59,-483.16C522.31,-477.46 372.23,-464.33 323.5,-437 289.05,-417.68 267.5,-407.5 267.5,-368 267.5,-368 267.5,-368 267.5,-146 267.5,-109.04 267.5,-65.91 267.5,-41.34"/>
<polygon fill="#63b8ff" stroke="#63b8ff" points="616.47,-486.66 626.66,-483.76 616.89,-479.67 616.47,-486.66"/>
</a>
</g>
</g>
<!-- Node7 -->
<g id="Node000007" class="node">
<title>Node7</title>
<g id="a_Node000007"><a xlink:href="_itc_2_synchronous_2_client_8h.html" target="_top" xlink:title=" ">
<polygon fill="white" stroke="#666666" points="1331,-41 1182,-41 1182,0 1331,0 1331,-41"/>
<text text-anchor="start" x="1190" y="-29" font-family="Helvetica,sans-Serif" font-size="10.00">/home/runner/work/kit.core</text>
<text text-anchor="start" x="1190" y="-18" font-family="Helvetica,sans-Serif" font-size="10.00">/kit.core/projects/examples</text>
<text text-anchor="middle" x="1256.5" y="-7" font-family="Helvetica,sans-Serif" font-size="10.00">/Itc/Synchronous/Client.h</text>
</a>
</g>
</g>
<!-- Node2&#45;&gt;Node7 -->
<g id="edge6_Node000002_Node000007" class="edge">
<title>Node2&#45;&gt;Node7</title>
<g id="a_edge6_Node000002_Node000007"><a xlink:title=" ">
<path fill="none" stroke="#63b8ff" d="M776.42,-484.7C881.45,-478.63 1068.94,-457.15 1208.5,-382 1248.78,-360.31 1267.32,-357.06 1287.5,-316 1333.88,-221.65 1286.38,-90.11 1265.39,-41"/>
<polygon fill="#63b8ff" stroke="#63b8ff" points="776,-481.21 766.2,-485.25 776.38,-488.2 776,-481.21"/>
</a>
</g>
</g>
<!-- Node8 -->
<g id="Node000008" class="node">
<title>Node8</title>
<g id="a_Node000008"><a xlink:href="_rate_sync_8h.html" target="_top" xlink:title=" ">
<polygon fill="white" stroke="#666666" points="1531,-239 1376,-239 1376,-198 1531,-198 1531,-239"/>
<text text-anchor="start" x="1384" y="-227" font-family="Helvetica,sans-Serif" font-size="10.00">/home/runner/work/kit.core</text>
<text text-anchor="start" x="1384" y="-216" font-family="Helvetica,sans-Serif" font-size="10.00">/kit.core/projects/examples</text>
<text text-anchor="middle" x="1453.5" y="-205" font-family="Helvetica,sans-Serif" font-size="10.00">/Itc/Synchronous/RateSync.h</text>
</a>
</g>
</g>
<!-- Node2&#45;&gt;Node8 -->
<g id="edge7_Node000002_Node000008" class="edge">
<title>Node2&#45;&gt;Node8</title>
<g id="a_edge7_Node000002_Node000008"><a xlink:title=" ">
<path fill="none" stroke="#63b8ff" d="M776.21,-486.04C946.2,-483.31 1332.71,-473.16 1379.5,-437 1442.62,-388.22 1452.28,-282.91 1453.49,-239.17"/>
<polygon fill="#63b8ff" stroke="#63b8ff" points="776.01,-482.55 766.06,-486.2 776.12,-489.55 776.01,-482.55"/>
</a>
</g>
</g>
<!-- Node9 -->
<g id="Node000009" class="node">
<title>Node9</title>
<g id="a_Node000009"><a xlink:href="projects_2examples_2_itc_2_synchronous_2_server_8h.html" target="_top" xlink:title=" ">
<polygon fill="white" stroke="#666666" points="1498,-41 1349,-41 1349,0 1498,0 1498,-41"/>
<text text-anchor="start" x="1357" y="-29" font-family="Helvetica,sans-Serif" font-size="10.00">/home/runner/work/kit.core</text>
<text text-anchor="start" x="1357" y="-18" font-family="Helvetica,sans-Serif" font-size="10.00">/kit.core/projects/examples</text>
<text text-anchor="middle" x="1423.5" y="-7" font-family="Helvetica,sans-Serif" font-size="10.00">/Itc/Synchronous/Server.h</text>
</a>
</g>
</g>
<!-- Node2&#45;&gt;Node9 -->
<g id="edge9_Node000002_Node000009" class="edge">
<title>Node2&#45;&gt;Node9</title>
<g id="a_edge9_Node000002_Node000009"><a xlink:title=" ">
<path fill="none" stroke="#63b8ff" d="M776.42,-483.67C861.03,-478.69 997.93,-466.49 1112.5,-437 1175.64,-420.75 1195.16,-419.5 1248.5,-382 1280.69,-359.37 1286.86,-349.49 1307.5,-316 1366.32,-220.57 1405.06,-90.22 1418.37,-41.2"/>
<polygon fill="#63b8ff" stroke="#63b8ff" points="776.15,-480.18 766.36,-484.24 776.54,-487.17 776.15,-480.18"/>
</a>
</g>
</g>
<!-- Node10 -->
<g id="Node000010" class="node">
<title>Node10</title>
<g id="a_Node000010"><a xlink:href="_listener_client_sync_8h.html" target="_top" xlink:title=" ">
<polygon fill="white" stroke="#666666" points="1281.5,-233.5 1133.5,-233.5 1133.5,-203.5 1281.5,-203.5 1281.5,-233.5"/>
<text text-anchor="start" x="1141.5" y="-221.5" font-family="Helvetica,sans-Serif" font-size="10.00">Kit/Io/Socket/ListenerClient</text>
<text text-anchor="middle" x="1207.5" y="-210.5" font-family="Helvetica,sans-Serif" font-size="10.00">Sync.h</text>
</a>
</g>
</g>
<!-- Node2&#45;&gt;Node10 -->
<g id="edge10_Node000002_Node000010" class="edge">
<title>Node2&#45;&gt;Node10</title>
<g id="a_edge10_Node000002_Node000010"><a xlink:title=" ">
<path fill="none" stroke="#63b8ff" d="M765.04,-476.88C903.68,-454.87 1209.41,-397.94 1270.5,-316 1281.39,-301.39 1278,-291.61 1270.5,-275 1262.58,-257.47 1246.08,-243.26 1231.95,-233.61"/>
<polygon fill="#63b8ff" stroke="#63b8ff" points="764.29,-473.46 754.95,-478.47 765.38,-480.37 764.29,-473.46"/>
</a>
</g>
</g>
<!-- Node11 -->
<g id="Node000011" class="node">
<title>Node11</title>
<g id="a_Node000011"><a xlink:href="_async_return_handler_8h.html" target="_top" xlink:title=" ">
<polygon fill="white" stroke="#666666" points="721.5,-376.5 565.5,-376.5 565.5,-357.5 721.5,-357.5 721.5,-376.5"/>
<text text-anchor="middle" x="643.5" y="-364.5" font-family="Helvetica,sans-Serif" font-size="10.00">Kit/Itc/AsyncReturnHandler.h</text>
</a>
</g>
</g>
<!-- Node2&#45;&gt;Node11 -->
<g id="edge11_Node000002_Node000011" class="edge">
<title>Node2&#45;&gt;Node11</title>
<g id="a_edge11_Node000002_Node000011"><a xlink:title=" ">
<path fill="none" stroke="#63b8ff" d="M688.51,-469.05C676.97,-443.14 656.08,-396.24 647.42,-376.8"/>
<polygon fill="#63b8ff" stroke="#63b8ff" points="685.42,-470.73 692.69,-478.44 691.82,-467.88 685.42,-470.73"/>
</a>
</g>
</g>
<!-- Node18 -->
<g id="Node000018" class="node">
<title>Node18</title>
<g id="a_Node000018"><a xlink:href="_log_sink_8h.html" target="_top" xlink:title=" ">
<polygon fill="white" stroke="#666666" points="489,-35.5 360,-35.5 360,-5.5 489,-5.5 489,-35.5"/>
<text text-anchor="start" x="368" y="-23.5" font-family="Helvetica,sans-Serif" font-size="10.00">Kit/Logging/Framework</text>
<text text-anchor="middle" x="424.5" y="-12.5" font-family="Helvetica,sans-Serif" font-size="10.00">/LogSink.h</text>
</a>
</g>
</g>
<!-- Node2&#45;&gt;Node18 -->
<g id="edge52_Node000002_Node000018" class="edge">
<title>Node2&#45;&gt;Node18</title>
<g id="a_edge52_Node000002_Node000018"><a xlink:title=" ">
<path fill="none" stroke="#63b8ff" d="M616.74,-482.32C530.35,-476.04 399.14,-462.57 356.5,-437 323.79,-417.39 305.5,-406.13 305.5,-368 305.5,-368 305.5,-368 305.5,-146 305.5,-93.97 360.48,-55.15 395.69,-35.62"/>
<polygon fill="#63b8ff" stroke="#63b8ff" points="616.56,-485.82 626.79,-483.04 617.06,-478.84 616.56,-485.82"/>
</a>
</g>
</g>
<!-- Node21 -->
<g id="Node000021" class="node">
<title>Node21</title>
<g id="a_Node000021"><a xlink:href="_open_sync_8h.html" target="_top" xlink:title=" ">
<polygon fill="white" stroke="#666666" points="520.5,-156.5 414.5,-156.5 414.5,-137.5 520.5,-137.5 520.5,-156.5"/>
<text text-anchor="middle" x="467.5" y="-144.5" font-family="Helvetica,sans-Serif" font-size="10.00">Kit/Itc/OpenSync.h</text>
</a>
</g>
</g>
<!-- Node2&#45;&gt;Node21 -->
<g id="edge34_Node000002_Node000021" class="edge">
<title>Node2&#45;&gt;Node21</title>
<g id="a_edge34_Node000002_Node000021"><a xlink:title=" ">
<path fill="none" stroke="#63b8ff" d="M616.58,-482.28C541.66,-476.3 436.64,-463.39 405.5,-437 380.73,-416.01 381.5,-400.47 381.5,-368 381.5,-368 381.5,-368 381.5,-294.5 381.5,-250.3 381.73,-235.26 405.5,-198 417.1,-179.81 437.59,-165.23 451.82,-156.6"/>
<polygon fill="#63b8ff" stroke="#63b8ff" points="616.7,-485.8 626.94,-483.08 617.24,-478.82 616.7,-485.8"/>
</a>
</g>
</g>
<!-- Node22 -->
<g id="Node000022" class="node">
<title>Node22</title>
<g id="a_Node000022"><a xlink:href="_mailbox_8h.html" target="_top" xlink:title=" ">
<polygon fill="white" stroke="#666666" points="1659.5,-437 1563.5,-437 1563.5,-418 1659.5,-418 1659.5,-437"/>
<text text-anchor="middle" x="1611.5" y="-425" font-family="Helvetica,sans-Serif" font-size="10.00">Kit/Itc/Mailbox.h</text>
</a>
</g>
</g>
<!-- Node2&#45;&gt;Node22 -->
<g id="edge30_Node000002_Node000022" class="edge">
<title>Node2&#45;&gt;Node22</title>
<g id="a_edge30_Node000002_Node000022"><a xlink:title=" ">
<path fill="none" stroke="#63b8ff" d="M776.22,-481.9C961.04,-470.09 1414.37,-441.1 1563.26,-431.58"/>
<polygon fill="#63b8ff" stroke="#63b8ff" points="775.78,-478.42 766.02,-482.55 776.23,-485.41 775.78,-478.42"/>
</a>
</g>
</g>
<!-- Node25 -->
<g id="Node000025" class="node">
<title>Node25</title>
<g id="a_Node000025"><a xlink:href="_s_a_p_8h.html" target="_top" xlink:title=" ">
<polygon fill="white" stroke="#666666" points="836,-437 761,-437 761,-418 836,-418 836,-437"/>
<text text-anchor="middle" x="798.5" y="-425" font-family="Helvetica,sans-Serif" font-size="10.00">Kit/Itc/SAP.h</text>
</a>
</g>
</g>
<!-- Node2&#45;&gt;Node25 -->
<g id="edge35_Node000002_Node000025" class="edge">
<title>Node2&#45;&gt;Node25</title>
<g id="a_edge35_Node000002_Node000025"><a xlink:title=" ">
<path fill="none" stroke="#63b8ff" d="M720.44,-473.27C739.91,-462.1 766.79,-446.69 783.39,-437.17"/>
<polygon fill="#63b8ff" stroke="#63b8ff" points="718.48,-470.36 711.55,-478.37 721.97,-476.43 718.48,-470.36"/>
</a>
</g>
</g>
<!-- Node8&#45;&gt;Node9 -->
<g id="edge8_Node000008_Node000009" class="edge">
<title>Node8&#45;&gt;Node9</title>
<g id="a_edge8_Node000008_Node000009"><a xlink:title=" ">
<path fill="none" stroke="#63b8ff" d="M1448.97,-187.93C1442.77,-147.42 1431.81,-75.77 1426.52,-41.22"/>
<polygon fill="#63b8ff" stroke="#63b8ff" points="1445.54,-188.63 1450.51,-197.99 1452.46,-187.58 1445.54,-188.63"/>
</a>
</g>
</g>
<!-- Node12 -->
<g id="Node000012" class="node">
<title>Node12</title>
<g id="a_Node000012"><a xlink:href="_response_message_8h.html" target="_top" xlink:title=" ">
<polygon fill="white" stroke="#666666" points="747.5,-305 599.5,-305 599.5,-286 747.5,-286 747.5,-305"/>
<text text-anchor="middle" x="673.5" y="-293" font-family="Helvetica,sans-Serif" font-size="10.00">Kit/Itc/ResponseMessage.h</text>
</a>
</g>
</g>
<!-- Node11&#45;&gt;Node12 -->
<g id="edge12_Node000011_Node000012" class="edge">
<title>Node11&#45;&gt;Node12</title>
<g id="a_edge12_Node000011_Node000012"><a xlink:title=" ">
<path fill="none" stroke="#63b8ff" d="M651.26,-348.03C657.22,-334.22 665.19,-315.76 669.79,-305.09"/>
<polygon fill="#63b8ff" stroke="#63b8ff" points="647.93,-346.91 647.18,-357.48 654.36,-349.68 647.93,-346.91"/>
</a>
</g>
</g>
<!-- Node13 -->
<g id="Node000013" class="node">
<title>Node13</title>
<g id="a_Node000013"><a xlink:href="_erase_request_8h.html" target="_top" xlink:title=" ">
<polygon fill="white" stroke="#666666" points="917,-228 736,-228 736,-209 917,-209 917,-228"/>
<text text-anchor="middle" x="826.5" y="-216" font-family="Helvetica,sans-Serif" font-size="10.00">Kit/Dm/Persistent/EraseRequest.h</text>
</a>
</g>
</g>
<!-- Node12&#45;&gt;Node13 -->
<g id="edge13_Node000012_Node000013" class="edge">
<title>Node12&#45;&gt;Node13</title>
<g id="a_edge13_Node000012_Node000013"><a xlink:title=" ">
<path fill="none" stroke="#63b8ff" d="M700.09,-281.47C731.4,-266.12 782.53,-241.05 809.15,-228"/>
<polygon fill="#63b8ff" stroke="#63b8ff" points="698.49,-278.35 691.05,-285.9 701.57,-284.64 698.49,-278.35"/>
</a>
</g>
</g>
<!-- Node15 -->
<g id="Node000015" class="node">
<title>Node15</title>
<g id="a_Node000015"><a xlink:href="_flush_request_8h.html" target="_top" xlink:title=" ">
<polygon fill="white" stroke="#666666" points="1115.5,-228 935.5,-228 935.5,-209 1115.5,-209 1115.5,-228"/>
<text text-anchor="middle" x="1025.5" y="-216" font-family="Helvetica,sans-Serif" font-size="10.00">Kit/Dm/Persistent/FlushRequest.h</text>
</a>
</g>
</g>
<!-- Node12&#45;&gt;Node15 -->
<g id="edge15_Node000012_Node000015" class="edge">
<title>Node12&#45;&gt;Node15</title>
<g id="a_edge15_Node000012_Node000015"><a xlink:title=" ">
<path fill="none" stroke="#63b8ff" d="M723.5,-283.85C793.93,-268.84 920.95,-241.78 985.5,-228.02"/>
<polygon fill="#63b8ff" stroke="#63b8ff" points="722.59,-280.46 713.54,-285.97 724.05,-287.31 722.59,-280.46"/>
</a>
</g>
</g>
<!-- Node16 -->
<g id="Node000016" class="node">
<title>Node16</title>
<g id="a_Node000016"><a xlink:href="_i_close_request_8h.html" target="_top" xlink:title=" ">
<polygon fill="white" stroke="#666666" points="718,-228 591,-228 591,-209 718,-209 718,-228"/>
<text text-anchor="middle" x="654.5" y="-216" font-family="Helvetica,sans-Serif" font-size="10.00">Kit/Itc/ICloseRequest.h</text>
</a>
</g>
</g>
<!-- Node12&#45;&gt;Node16 -->
<g id="edge17_Node000012_Node000016" class="edge">
<title>Node12&#45;&gt;Node16</title>
<g id="a_edge17_Node000012_Node000016"><a xlink:title=" ">
<path fill="none" stroke="#63b8ff" d="M668.81,-275.97C664.92,-260.65 659.59,-239.59 656.65,-228"/>
<polygon fill="#63b8ff" stroke="#63b8ff" points="665.47,-277.06 671.32,-285.9 672.26,-275.34 665.47,-277.06"/>
</a>
</g>
</g>
<!-- Node20 -->
<g id="Node000020" class="node">
<title>Node20</title>
<g id="a_Node000020"><a xlink:href="_i_open_request_8h.html" target="_top" xlink:title=" ">
<polygon fill="white" stroke="#666666" points="573,-228 448,-228 448,-209 573,-209 573,-228"/>
<text text-anchor="middle" x="510.5" y="-216" font-family="Helvetica,sans-Serif" font-size="10.00">Kit/Itc/IOpenRequest.h</text>
</a>
</g>
</g>
<!-- Node12&#45;&gt;Node20 -->
<g id="edge27_Node000012_Node000020" class="edge">
<title>Node12&#45;&gt;Node20</title>
<g id="a_edge27_Node000012_Node000020"><a xlink:title=" ">
<path fill="none" stroke="#63b8ff" d="M645.61,-281.67C612.28,-266.33 557.46,-241.11 528.98,-228"/>
<polygon fill="#63b8ff" stroke="#63b8ff" points="644.25,-284.9 654.8,-285.9 647.18,-278.54 644.25,-284.9"/>
</a>
</g>
</g>
<!-- Node14 -->
<g id="Node000014" class="node">
<title>Node14</title>
<g id="a_Node000014"><a xlink:href="_record_8h.html" target="_top" xlink:title=" ">
<polygon fill="white" stroke="#666666" points="1099.5,-156.5 951.5,-156.5 951.5,-137.5 1099.5,-137.5 1099.5,-156.5"/>
<text text-anchor="middle" x="1025.5" y="-144.5" font-family="Helvetica,sans-Serif" font-size="10.00">Kit/Dm/Persistent/Record.h</text>
</a>
</g>
</g>
<!-- Node13&#45;&gt;Node14 -->
<g id="edge14_Node000013_Node000014" class="edge">
<title>Node13&#45;&gt;Node14</title>
<g id="a_edge14_Node000013_Node000014"><a xlink:title=" ">
<path fill="none" stroke="#63b8ff" d="M860.47,-205.64C900.36,-191.7 965.58,-168.93 1000.9,-156.59"/>
<polygon fill="#63b8ff" stroke="#63b8ff" points="859.19,-202.38 850.9,-208.98 861.5,-208.98 859.19,-202.38"/>
</a>
</g>
</g>
<!-- Node15&#45;&gt;Node14 -->
<g id="edge16_Node000015_Node000014" class="edge">
<title>Node15&#45;&gt;Node14</title>
<g id="a_edge16_Node000015_Node000014"><a xlink:title=" ">
<path fill="none" stroke="#63b8ff" d="M1025.5,-198.71C1025.5,-185 1025.5,-167.05 1025.5,-156.59"/>
<polygon fill="#63b8ff" stroke="#63b8ff" points="1022,-198.98 1025.5,-208.98 1029,-198.98 1022,-198.98"/>
</a>
</g>
</g>
<!-- Node17 -->
<g id="Node000017" class="node">
<title>Node17</title>
<g id="a_Node000017"><a xlink:href="_open_close_sync_8h.html" target="_top" xlink:title=" ">
<polygon fill="white" stroke="#666666" points="558,-96 425,-96 425,-77 558,-77 558,-96"/>
<text text-anchor="middle" x="491.5" y="-84" font-family="Helvetica,sans-Serif" font-size="10.00">Kit/Itc/OpenCloseSync.h</text>
</a>
</g>
</g>
<!-- Node16&#45;&gt;Node17 -->
<g id="edge18_Node000016_Node000017" class="edge">
<title>Node16&#45;&gt;Node17</title>
<g id="a_edge18_Node000016_Node000017"><a xlink:title=" ">
<path fill="none" stroke="#63b8ff" d="M635.99,-202.73C601.83,-175.49 529.89,-118.11 502.45,-96.23"/>
<polygon fill="#63b8ff" stroke="#63b8ff" points="633.8,-205.47 643.81,-208.97 638.17,-200 633.8,-205.47"/>
</a>
</g>
</g>
<!-- Node17&#45;&gt;Node3 -->
<g id="edge19_Node000017_Node000003" class="edge">
<title>Node17&#45;&gt;Node3</title>
<g id="a_edge19_Node000017_Node000003"><a xlink:title=" ">
<path fill="none" stroke="#63b8ff" d="M514.78,-71.45C529.57,-62.52 548.92,-50.83 565.19,-41.01"/>
<polygon fill="#63b8ff" stroke="#63b8ff" points="512.55,-68.7 505.8,-76.87 516.17,-74.7 512.55,-68.7"/>
</a>
</g>
</g>
<!-- Node17&#45;&gt;Node4 -->
<g id="edge20_Node000017_Node000004" class="edge">
<title>Node17&#45;&gt;Node4</title>
<g id="a_edge20_Node000017_Node000004"><a xlink:title=" ">
<path fill="none" stroke="#63b8ff" d="M415.33,-75.63C353.1,-67.29 262.92,-54.56 184.5,-41 181.45,-40.47 178.36,-39.92 175.23,-39.36"/>
<polygon fill="#63b8ff" stroke="#63b8ff" points="415.09,-79.13 425.46,-76.99 416.01,-72.19 415.09,-79.13"/>
</a>
</g>
</g>
<!-- Node17&#45;&gt;Node5 -->
<g id="edge21_Node000017_Node000005" class="edge">
<title>Node17&#45;&gt;Node5</title>
<g id="a_edge21_Node000017_Node000005"><a xlink:title=" ">
<path fill="none" stroke="#63b8ff" d="M542.12,-74.83C583.85,-65.97 644.58,-52.93 697.5,-41 700.24,-40.38 703.04,-39.75 705.86,-39.1"/>
<polygon fill="#63b8ff" stroke="#63b8ff" points="541.25,-71.44 532.2,-76.93 542.71,-78.28 541.25,-71.44"/>
</a>
</g>
</g>
<!-- Node17&#45;&gt;Node6 -->
<g id="edge22_Node000017_Node000006" class="edge">
<title>Node17&#45;&gt;Node6</title>
<g id="a_edge22_Node000017_Node000006"><a xlink:title=" ">
<path fill="none" stroke="#63b8ff" d="M451.38,-74.04C419.3,-64.87 373.6,-51.81 335.78,-41.01"/>
<polygon fill="#63b8ff" stroke="#63b8ff" points="450.71,-77.49 461.29,-76.87 452.64,-70.76 450.71,-77.49"/>
</a>
</g>
</g>
<!-- Node17&#45;&gt;Node7 -->
<g id="edge23_Node000017_Node000007" class="edge">
<title>Node17&#45;&gt;Node7</title>
<g id="a_edge23_Node000017_Node000007"><a xlink:title=" ">
<path fill="none" stroke="#63b8ff" d="M568.35,-79.07C715.66,-66.75 1036.06,-39.94 1181.73,-27.76"/>
<polygon fill="#63b8ff" stroke="#63b8ff" points="567.72,-75.61 558.05,-79.93 568.31,-82.59 567.72,-75.61"/>
</a>
</g>
</g>
<!-- Node17&#45;&gt;Node9 -->
<g id="edge24_Node000017_Node000009" class="edge">
<title>Node17&#45;&gt;Node9</title>
<g id="a_edge24_Node000017_Node000009"><a xlink:title=" ">
<path fill="none" stroke="#63b8ff" d="M568.65,-86.04C718.31,-86.09 1058.14,-81.24 1340.5,-41 1343.28,-40.6 1346.11,-40.16 1348.96,-39.67"/>
<polygon fill="#63b8ff" stroke="#63b8ff" points="568.21,-82.54 558.21,-86.03 568.21,-89.54 568.21,-82.54"/>
</a>
</g>
</g>
<!-- Node17&#45;&gt;Node18 -->
<g id="edge25_Node000017_Node000018" class="edge">
<title>Node17&#45;&gt;Node18</title>
<g id="a_edge25_Node000017_Node000018"><a xlink:title=" ">
<path fill="none" stroke="#63b8ff" d="M475.18,-69.91C464.22,-59.44 449.9,-45.76 439.28,-35.62"/>
<polygon fill="#63b8ff" stroke="#63b8ff" points="472.82,-72.49 482.46,-76.87 477.65,-67.43 472.82,-72.49"/>
</a>
</g>
</g>
<!-- Node19 -->
<g id="Node000019" class="node">
<title>Node19</title>
<g id="a_Node000019"><a xlink:href="helpers_8h.html" target="_top" xlink:title="This file defines helper functions/interface for writing unit tests.">
<polygon fill="white" stroke="#666666" points="1723.5,-35.5 1611.5,-35.5 1611.5,-5.5 1723.5,-5.5 1723.5,-35.5"/>
<text text-anchor="start" x="1619.5" y="-23.5" font-family="Helvetica,sans-Serif" font-size="10.00">Kit/_support/testing</text>
<text text-anchor="middle" x="1667.5" y="-12.5" font-family="Helvetica,sans-Serif" font-size="10.00">/helpers.h</text>
</a>
</g>
</g>
<!-- Node17&#45;&gt;Node19 -->
<g id="edge26_Node000017_Node000019" class="edge">
<title>Node17&#45;&gt;Node19</title>
<g id="a_edge26_Node000017_Node000019"><a xlink:title=" ">
<path fill="none" stroke="#63b8ff" d="M568.26,-84.17C737.91,-80.78 1157.46,-69.95 1507.5,-41 1542.08,-38.14 1580.7,-33.48 1611.33,-29.43"/>
<polygon fill="#63b8ff" stroke="#63b8ff" points="568.11,-80.67 558.18,-84.37 568.25,-87.67 568.11,-80.67"/>
</a>
</g>
</g>
<!-- Node20&#45;&gt;Node21 -->
<g id="edge28_Node000020_Node000021" class="edge">
<title>Node20&#45;&gt;Node21</title>
<g id="a_edge28_Node000020_Node000021"><a xlink:title=" ">
<path fill="none" stroke="#63b8ff" d="M499.88,-200.34C491.29,-186.45 479.54,-167.46 472.82,-156.59"/>
<polygon fill="#63b8ff" stroke="#63b8ff" points="496.99,-202.32 505.23,-208.98 502.94,-198.63 496.99,-202.32"/>
</a>
</g>
</g>
<!-- Node21&#45;&gt;Node17 -->
<g id="edge29_Node000021_Node000017" class="edge">
<title>Node21&#45;&gt;Node17</title>
<g id="a_edge29_Node000021_Node000017"><a xlink:title=" ">
<path fill="none" stroke="#63b8ff" d="M474.96,-127.82C479.28,-117.28 484.54,-104.48 487.94,-96.17"/>
<polygon fill="#63b8ff" stroke="#63b8ff" points="471.6,-126.79 471.04,-137.37 478.07,-129.44 471.6,-126.79"/>
</a>
</g>
</g>
<!-- Node23 -->
<g id="Node000023" class="node">
<title>Node23</title>
<g id="a_Node000023"><a xlink:href="src_2_kit_2_event_queue_2_server_8h.html" target="_top" xlink:title=" ">
<polygon fill="white" stroke="#666666" points="1889,-376.5 1754,-376.5 1754,-357.5 1889,-357.5 1889,-376.5"/>
<text text-anchor="middle" x="1821.5" y="-364.5" font-family="Helvetica,sans-Serif" font-size="10.00">Kit/EventQueue/Server.h</text>
</a>
</g>
</g>
<!-- Node22&#45;&gt;Node23 -->
<g id="edge31_Node000022_Node000023" class="edge">
<title>Node22&#45;&gt;Node23</title>
<g id="a_edge31_Node000022_Node000023"><a xlink:title=" ">
<path fill="none" stroke="#63b8ff" d="M1651.88,-415.25C1692.49,-403.94 1754.21,-386.75 1790.93,-376.52"/>
<polygon fill="#63b8ff" stroke="#63b8ff" points="1650.73,-411.94 1642.04,-417.99 1652.61,-418.68 1650.73,-411.94"/>
</a>
</g>
</g>
<!-- Node23&#45;&gt;Node19 -->
<g id="edge33_Node000023_Node000019" class="edge">
<title>Node23&#45;&gt;Node19</title>
<g id="a_edge33_Node000023_Node000019"><a xlink:title=" ">
<path fill="none" stroke="#63b8ff" d="M1809.72,-348.87C1803.77,-339.52 1796.91,-327.53 1792.5,-316 1776.87,-275.08 1772.5,-263.3 1772.5,-219.5 1772.5,-219.5 1772.5,-219.5 1772.5,-146 1772.5,-96.09 1722.59,-55.82 1691.59,-35.62"/>
<polygon fill="#63b8ff" stroke="#63b8ff" points="1806.8,-350.81 1815.23,-357.23 1812.64,-346.95 1806.8,-350.81"/>
</a>
</g>
</g>
<!-- Node24 -->
<g id="Node000024" class="node">
<title>Node24</title>
<g id="a_Node000024"><a xlink:href="_with_periodic_scheduling_8h.html" target="_top" xlink:title=" ">
<polygon fill="white" stroke="#666666" points="1958,-310.5 1801,-310.5 1801,-280.5 1958,-280.5 1958,-310.5"/>
<text text-anchor="start" x="1809" y="-298.5" font-family="Helvetica,sans-Serif" font-size="10.00">Kit/EventQueue/WithPeriodic</text>
<text text-anchor="middle" x="1879.5" y="-287.5" font-family="Helvetica,sans-Serif" font-size="10.00">Scheduling.h</text>
</a>
</g>
</g>
<!-- Node23&#45;&gt;Node24 -->
<g id="edge32_Node000023_Node000024" class="edge">
<title>Node23&#45;&gt;Node24</title>
<g id="a_edge32_Node000023_Node000024"><a xlink:title=" ">
<path fill="none" stroke="#63b8ff" d="M1835.12,-349.68C1845.01,-337.83 1858.26,-321.95 1867.7,-310.64"/>
<polygon fill="#63b8ff" stroke="#63b8ff" points="1832.33,-347.56 1828.61,-357.48 1837.71,-352.04 1832.33,-347.56"/>
</a>
</g>
</g>
<!-- Node25&#45;&gt;Node13 -->
<g id="edge38_Node000025_Node000013" class="edge">
<title>Node25&#45;&gt;Node13</title>
<g id="a_edge38_Node000025_Node000013"><a xlink:title=" ">
<path fill="none" stroke="#63b8ff" d="M783.81,-409.85C777.82,-401.98 771.59,-392.1 768.5,-382 764.6,-369.25 765.77,-365.05 768.5,-352 778.89,-302.35 809,-248.56 821.23,-228.07"/>
<polygon fill="#63b8ff" stroke="#63b8ff" points="781.26,-412.26 790.29,-417.8 786.68,-407.84 781.26,-412.26"/>
</a>
</g>
</g>
<!-- Node25&#45;&gt;Node15 -->
<g id="edge39_Node000025_Node000015" class="edge">
<title>Node25&#45;&gt;Node15</title>
<g id="a_edge39_Node000025_Node000015"><a xlink:title=" ">
<path fill="none" stroke="#63b8ff" d="M846.38,-423.18C874.68,-418.47 908.41,-407.44 926.5,-382 934.23,-371.13 929.42,-365.01 926.5,-352 922.63,-334.73 913.37,-333.27 909.5,-316 905.51,-298.22 899.79,-290.42 909.5,-275 925.45,-249.69 956.48,-235.67 982.44,-228.06"/>
<polygon fill="#63b8ff" stroke="#63b8ff" points="845.64,-419.75 836.24,-424.65 846.64,-426.68 845.64,-419.75"/>
</a>
</g>
</g>
<!-- Node25&#45;&gt;Node16 -->
<g id="edge42_Node000025_Node000016" class="edge">
<title>Node25&#45;&gt;Node16</title>
<g id="a_edge42_Node000025_Node000016"><a xlink:title=" ">
<path fill="none" stroke="#63b8ff" d="M750.65,-424.71C687.29,-421.22 580.71,-411.07 556.5,-382 537.5,-359.19 560.78,-300.4 578.5,-275 593.46,-253.56 619.41,-237.24 636.76,-228.02"/>
<polygon fill="#63b8ff" stroke="#63b8ff" points="750.64,-428.21 760.81,-425.23 751,-421.22 750.64,-428.21"/>
</a>
</g>
</g>
<!-- Node25&#45;&gt;Node20 -->
<g id="edge43_Node000025_Node000020" class="edge">
<title>Node25&#45;&gt;Node20</title>
<g id="a_edge43_Node000025_Node000020"><a xlink:title=" ">
<path fill="none" stroke="#63b8ff" d="M750.6,-424.37C685.32,-420.45 573.21,-409.78 544.5,-382 500.38,-339.31 506.14,-255.16 509.32,-228.1"/>
<polygon fill="#63b8ff" stroke="#63b8ff" points="750.47,-427.87 760.66,-424.94 750.87,-420.88 750.47,-427.87"/>
</a>
</g>
</g>
<!-- Node26 -->
<g id="Node000026" class="node">
<title>Node26</title>
<g id="a_Node000026"><a xlink:href="_i_rate_request_8h.html" target="_top" xlink:title=" ">
<polygon fill="white" stroke="#666666" points="1261.5,-316 1087.5,-316 1087.5,-275 1261.5,-275 1261.5,-316"/>
<text text-anchor="start" x="1095.5" y="-304" font-family="Helvetica,sans-Serif" font-size="10.00">/home/runner/work/kit.core</text>
<text text-anchor="start" x="1095.5" y="-293" font-family="Helvetica,sans-Serif" font-size="10.00">/kit.core/projects/examples</text>
<text text-anchor="middle" x="1174.5" y="-282" font-family="Helvetica,sans-Serif" font-size="10.00">/Itc/Synchronous/IRateRequest.h</text>
</a>
</g>
</g>
<!-- Node25&#45;&gt;Node26 -->
<g id="edge36_Node000025_Node000026" class="edge">
<title>Node25&#45;&gt;Node26</title>
<g id="a_edge36_Node000025_Node000026"><a xlink:title=" ">
<path fill="none" stroke="#63b8ff" d="M846.22,-417.44C883.77,-409.73 937.14,-397.44 982.5,-382 1037.25,-363.36 1097.8,-335.03 1135.99,-316.15"/>
<polygon fill="#63b8ff" stroke="#63b8ff" points="845.18,-414.08 836.07,-419.5 846.57,-420.95 845.18,-414.08"/>
</a>
</g>
</g>
<!-- Node27 -->
<g id="Node000027" class="node">
<title>Node27</title>
<g id="a_Node000027"><a xlink:href="_i_listener_client_request_8h.html" target="_top" xlink:title=" ">
<polygon fill="white" stroke="#666666" points="1069,-310.5 918,-310.5 918,-280.5 1069,-280.5 1069,-310.5"/>
<text text-anchor="start" x="926" y="-298.5" font-family="Helvetica,sans-Serif" font-size="10.00">Kit/Io/Socket/IListenerClient</text>
<text text-anchor="middle" x="993.5" y="-287.5" font-family="Helvetica,sans-Serif" font-size="10.00">Request.h</text>
</a>
</g>
</g>
<!-- Node25&#45;&gt;Node27 -->
<g id="edge40_Node000025_Node000027" class="edge">
<title>Node25&#45;&gt;Node27</title>
<g id="a_edge40_Node000025_Node000027"><a xlink:title=" ">
<path fill="none" stroke="#63b8ff" d="M846.28,-424.39C881.48,-420.45 928.45,-409.84 959.5,-382 980.55,-363.12 988.75,-329.48 991.8,-310.51"/>
<polygon fill="#63b8ff" stroke="#63b8ff" points="845.83,-420.92 836.22,-425.38 846.51,-427.89 845.83,-420.92"/>
</a>
</g>
</g>
<!-- Node28 -->
<g id="Node000028" class="node">
<title>Node28</title>
<g id="a_Node000028"><a xlink:href="_request_message_8h.html" target="_top" xlink:title=" ">
<polygon fill="white" stroke="#666666" points="917.5,-376.5 777.5,-376.5 777.5,-357.5 917.5,-357.5 917.5,-376.5"/>
<text text-anchor="middle" x="847.5" y="-364.5" font-family="Helvetica,sans-Serif" font-size="10.00">Kit/Itc/RequestMessage.h</text>
</a>
</g>
</g>
<!-- Node25&#45;&gt;Node28 -->
<g id="edge44_Node000025_Node000028" class="edge">
<title>Node25&#45;&gt;Node28</title>
<g id="a_edge44_Node000025_Node000028"><a xlink:title=" ">
<path fill="none" stroke="#63b8ff" d="M812.36,-409.95C821.43,-399.12 832.92,-385.41 840.24,-376.67"/>
<polygon fill="#63b8ff" stroke="#63b8ff" points="809.47,-407.95 805.73,-417.87 814.83,-412.45 809.47,-407.95"/>
</a>
</g>
</g>
<!-- Node26&#45;&gt;Node8 -->
<g id="edge37_Node000026_Node000008" class="edge">
<title>Node26&#45;&gt;Node8</title>
<g id="a_edge37_Node000026_Node000008"><a xlink:title=" ">
<path fill="none" stroke="#63b8ff" d="M1256.9,-272.35C1296.21,-261.78 1342.83,-249.25 1380.8,-239.04"/>
<polygon fill="#63b8ff" stroke="#63b8ff" points="1255.82,-269.01 1247.08,-274.99 1257.64,-275.77 1255.82,-269.01"/>
</a>
</g>
</g>
<!-- Node27&#45;&gt;Node10 -->
<g id="edge41_Node000027_Node000010" class="edge">
<title>Node27&#45;&gt;Node10</title>
<g id="a_edge41_Node000027_Node000010"><a xlink:title=" ">
<path fill="none" stroke="#63b8ff" d="M1043.27,-277.06C1081,-263.83 1132.19,-245.89 1167.33,-233.58"/>
<polygon fill="#63b8ff" stroke="#63b8ff" points="1041.78,-273.87 1033.5,-280.48 1044.1,-280.48 1041.78,-273.87"/>
</a>
</g>
</g>
<!-- Node28&#45;&gt;Node12 -->
<g id="edge51_Node000028_Node000012" class="edge">
<title>Node28&#45;&gt;Node12</title>
<g id="a_edge51_Node000028_Node000012"><a xlink:title=" ">
<path fill="none" stroke="#63b8ff" d="M816.46,-353.6C781.47,-339.63 725.5,-317.27 695.01,-305.09"/>
<polygon fill="#63b8ff" stroke="#63b8ff" points="815.58,-357.02 826.16,-357.48 818.18,-350.52 815.58,-357.02"/>
</a>
</g>
</g>
<!-- Node28&#45;&gt;Node13 -->
<g id="edge46_Node000028_Node000013" class="edge">
<title>Node28&#45;&gt;Node13</title>
<g id="a_edge46_Node000028_Node000013"><a xlink:title=" ">
<path fill="none" stroke="#63b8ff" d="M843.39,-347.38C841.42,-338 839.14,-326.43 837.5,-316 832.44,-283.68 828.73,-244.93 827.23,-228.05"/>
<polygon fill="#63b8ff" stroke="#63b8ff" points="839.98,-348.15 845.5,-357.19 846.82,-346.68 839.98,-348.15"/>
</a>
</g>
</g>
<!-- Node28&#45;&gt;Node15 -->
<g id="edge47_Node000028_Node000015" class="edge">
<title>Node28&#45;&gt;Node15</title>
<g id="a_edge47_Node000028_Node000015"><a xlink:title=" ">
<path fill="none" stroke="#63b8ff" d="M848.48,-347.36C850.51,-327.07 856.71,-294.87 875.5,-275 899.73,-249.38 936.83,-235.52 968.08,-228.06"/>
<polygon fill="#63b8ff" stroke="#63b8ff" points="844.98,-347.26 847.71,-357.5 851.96,-347.79 844.98,-347.26"/>
</a>
</g>
</g>
<!-- Node28&#45;&gt;Node16 -->
<g id="edge49_Node000028_Node000016" class="edge">
<title>Node28&#45;&gt;Node16</title>
<g id="a_edge49_Node000028_Node000016"><a xlink:title=" ">
<path fill="none" stroke="#63b8ff" d="M770.59,-356.03C699.14,-345.98 602.04,-330 590.5,-316 578.91,-301.94 582.93,-291.58 590.5,-275 600.27,-253.59 622.83,-237.27 638.37,-228.03"/>
<polygon fill="#63b8ff" stroke="#63b8ff" points="770.55,-359.56 780.93,-357.47 771.51,-352.63 770.55,-359.56"/>
</a>
</g>
</g>
<!-- Node28&#45;&gt;Node20 -->
<g id="edge50_Node000028_Node000020" class="edge">
<title>Node28&#45;&gt;Node20</title>
<g id="a_edge50_Node000028_Node000020"><a xlink:title=" ">
<path fill="none" stroke="#63b8ff" d="M778.49,-355.93C704.45,-344.7 595.18,-326.7 578.5,-316 544,-293.87 521.9,-247.42 513.89,-228.16"/>
<polygon fill="#63b8ff" stroke="#63b8ff" points="778.28,-359.44 788.69,-357.47 779.32,-352.52 778.28,-359.44"/>
</a>
</g>
</g>
<!-- Node28&#45;&gt;Node26 -->
<g id="edge45_Node000028_Node000026" class="edge">
<title>Node28&#45;&gt;Node26</title>
<g id="a_edge45_Node000028_Node000026"><a xlink:title=" ">
<path fill="none" stroke="#63b8ff" d="M897.59,-355.35C947.99,-344.64 1026.71,-327.91 1087.35,-315.02"/>
<polygon fill="#63b8ff" stroke="#63b8ff" points="896.65,-351.98 887.6,-357.48 898.11,-358.82 896.65,-351.98"/>
</a>
</g>
</g>
<!-- Node28&#45;&gt;Node27 -->
<g id="edge48_Node000028_Node000027" class="edge">
<title>Node28&#45;&gt;Node27</title>
<g id="a_edge48_Node000028_Node000027"><a xlink:title=" ">
<path fill="none" stroke="#63b8ff" d="M874.48,-353.16C899.9,-341.06 937.89,-322.97 964.08,-310.51"/>
<polygon fill="#63b8ff" stroke="#63b8ff" points="872.93,-350.02 865.4,-357.48 875.94,-356.34 872.93,-350.02"/>
</a>
</g>
</g>
<!-- Node29&#45;&gt;Node23 -->
<g id="edge54_Node000029_Node000023" class="edge">
<title>Node29&#45;&gt;Node23</title>
<g id="a_edge54_Node000029_Node000023"><a xlink:title=" ">
<path fill="none" stroke="#63b8ff" d="M1795.11,-463.16C1802.51,-436.49 1814.1,-394.7 1819.08,-376.71"/>
<polygon fill="#63b8ff" stroke="#63b8ff" points="1791.71,-462.31 1792.42,-472.88 1798.46,-464.18 1791.71,-462.31"/>
</a>
</g>
</g>
<!-- Node30 -->
<g id="Node000030" class="node">
<title>Node30</title>
<g id="a_Node000030"><a xlink:href="_event_loop_8h.html" target="_top" xlink:title=" ">
<polygon fill="white" stroke="#666666" points="2002,-437 1869,-437 1869,-418 2002,-418 2002,-437"/>
<text text-anchor="middle" x="1935.5" y="-425" font-family="Helvetica,sans-Serif" font-size="10.00">Kit/System/EventLoop.h</text>
</a>
</g>
</g>
<!-- Node29&#45;&gt;Node30 -->
<g id="edge55_Node000029_Node000030" class="edge">
<title>Node29&#45;&gt;Node30</title>
<g id="a_edge55_Node000029_Node000030"><a xlink:title=" ">
<path fill="none" stroke="#63b8ff" d="M1833.24,-469.19C1859.95,-458.57 1892.67,-445.54 1913.79,-437.14"/>
<polygon fill="#63b8ff" stroke="#63b8ff" points="1831.71,-466.04 1823.71,-472.99 1834.3,-472.54 1831.71,-466.04"/>
</a>
</g>
</g>
<!-- Node29&#45;&gt;Node32 -->
<g id="edge58_Node000029_Node000032" class="edge">
<title>Node29&#45;&gt;Node32</title>
<g id="a_edge58_Node000029_Node000032"><a xlink:title=" ">
<path fill="none" stroke="#63b8ff" d="M1768.67,-465.26C1750.21,-442.68 1725.5,-405.48 1725.5,-368 1725.5,-368 1725.5,-368 1725.5,-294.5 1725.5,-243.75 1699.61,-187.63 1686.26,-162.07"/>
<polygon fill="#63b8ff" stroke="#63b8ff" points="1766,-467.52 1775.14,-472.89 1771.34,-463 1766,-467.52"/>
</a>
</g>
</g>
<!-- Node30&#45;&gt;Node23 -->
<g id="edge56_Node000030_Node000023" class="edge">
<title>Node30&#45;&gt;Node23</title>
<g id="a_edge56_Node000030_Node000023"><a xlink:title=" ">
<path fill="none" stroke="#63b8ff" d="M1909.63,-413.23C1887.81,-402.03 1857.19,-386.32 1838.39,-376.67"/>
<polygon fill="#63b8ff" stroke="#63b8ff" points="1908.18,-416.42 1918.68,-417.87 1911.38,-410.19 1908.18,-416.42"/>
</a>
</g>
</g>
<!-- Node31 -->
<g id="Node000031" class="node">
<title>Node31</title>
<g id="a_Node000031"><a xlink:href="_event_loop_with_p_scheduling_8h.html" target="_top" xlink:title=" ">
<polygon fill="white" stroke="#666666" points="2053.5,-382 1907.5,-382 1907.5,-352 2053.5,-352 2053.5,-382"/>
<text text-anchor="start" x="1915.5" y="-370" font-family="Helvetica,sans-Serif" font-size="10.00">Kit/System/EventLoopWith</text>
<text text-anchor="middle" x="1980.5" y="-359" font-family="Helvetica,sans-Serif" font-size="10.00">PScheduling.h</text>
</a>
</g>
</g>
<!-- Node30&#45;&gt;Node31 -->
<g id="edge57_Node000030_Node000031" class="edge">
<title>Node30&#45;&gt;Node31</title>
<g id="a_edge57_Node000030_Node000031"><a xlink:title=" ">
<path fill="none" stroke="#63b8ff" d="M1948.28,-409.88C1955.03,-401.11 1963.21,-390.48 1969.64,-382.11"/>
<polygon fill="#63b8ff" stroke="#63b8ff" points="1945.46,-407.81 1942.14,-417.87 1951.01,-412.08 1945.46,-407.81"/>
</a>
</g>
</g>
<!-- Node33&#45;&gt;Node5 -->
<g id="edge60_Node000033_Node000005" class="edge">
<title>Node33&#45;&gt;Node5</title>
<g id="a_edge60_Node000033_Node000005"><a xlink:title=" ">
<path fill="none" stroke="#63b8ff" d="M1568.04,-205.93C1559.07,-203.21 1549.47,-200.4 1540.5,-198 1291.1,-131.13 991.72,-65.98 855.08,-37.07"/>
<polygon fill="#63b8ff" stroke="#63b8ff" points="1567.25,-209.34 1577.84,-208.94 1569.31,-202.65 1567.25,-209.34"/>
</a>
</g>
</g>
<!-- Node33&#45;&gt;Node7 -->
<g id="edge61_Node000033_Node000007" class="edge">
<title>Node33&#45;&gt;Node7</title>
<g id="a_edge61_Node000033_Node000007"><a xlink:title=" ">
<path fill="none" stroke="#63b8ff" d="M1580.25,-203.84C1519.74,-169.76 1361.9,-80.86 1291.4,-41.15"/>
<polygon fill="#63b8ff" stroke="#63b8ff" points="1578.67,-206.97 1589.1,-208.83 1582.1,-200.87 1578.67,-206.97"/>
</a>
</g>
</g>
<!-- Node33&#45;&gt;Node9 -->
<g id="edge62_Node000033_Node000009" class="edge">
<title>Node33&#45;&gt;Node9</title>
<g id="a_edge62_Node000033_Node000009"><a xlink:title=" ">
<path fill="none" stroke="#63b8ff" d="M1589.46,-201.22C1556.39,-165.4 1477.41,-79.88 1441.65,-41.15"/>
<polygon fill="#63b8ff" stroke="#63b8ff" points="1587.13,-203.85 1596.49,-208.83 1592.28,-199.1 1587.13,-203.85"/>
</a>
</g>
</g>
<!-- Node33&#45;&gt;Node14 -->
<g id="edge63_Node000033_Node000014" class="edge">
<title>Node33&#45;&gt;Node14</title>
<g id="a_edge63_Node000033_Node000014"><a xlink:title=" ">
<path fill="none" stroke="#63b8ff" d="M1570.8,-205.86C1561.12,-202.89 1550.48,-199.98 1540.5,-198 1519.23,-193.77 1236.96,-167.47 1099.59,-154.8"/>
<polygon fill="#63b8ff" stroke="#63b8ff" points="1569.89,-209.24 1580.48,-208.94 1572.01,-202.57 1569.89,-209.24"/>
</a>
</g>
</g>
<!-- Node33&#45;&gt;Node32 -->
<g id="edge64_Node000033_Node000032" class="edge">
<title>Node33&#45;&gt;Node32</title>
<g id="a_edge64_Node000033_Node000032"><a xlink:title=" ">
<path fill="none" stroke="#63b8ff" d="M1621.14,-201.87C1633.84,-189.95 1651.17,-173.67 1663.45,-162.14"/>
<polygon fill="#63b8ff" stroke="#63b8ff" points="1618.47,-199.58 1613.57,-208.98 1623.26,-204.68 1618.47,-199.58"/>
</a>
</g>
</g>
<!-- Node34&#45;&gt;Node30 -->
<g id="edge66_Node000034_Node000030" class="edge">
<title>Node34&#45;&gt;Node30</title>
<g id="a_edge66_Node000034_Node000030"><a xlink:title=" ">
<path fill="none" stroke="#63b8ff" d="M1949.29,-468.82C1945.68,-458.28 1941.3,-445.48 1938.46,-437.17"/>
<polygon fill="#63b8ff" stroke="#63b8ff" points="1946,-470.04 1952.55,-478.37 1952.63,-467.77 1946,-470.04"/>
</a>
</g>
</g>
</g>
</svg>
