<?xml version="1.0" encoding="UTF-8" standalone="no"?>
<!DOCTYPE svg PUBLIC "-//W3C//DTD SVG 1.1//EN"
 "http://www.w3.org/Graphics/SVG/1.1/DTD/svg11.dtd">
<!-- Generated by graphviz version 2.43.0 (0)
 -->
<!-- Title: Kit/System/IWatchedEventLoop.h Pages: 1 -->
<svg width="475pt" height="236pt"
 viewBox="0.00 0.00 474.50 236.00" xmlns="http://www.w3.org/2000/svg" xmlns:xlink="http://www.w3.org/1999/xlink">
<g id="graph0" class="graph" transform="scale(1 1) rotate(0) translate(4 232)">
<title>Kit/System/IWatchedEventLoop.h</title>
<!-- Node1 -->
<g id="Node000001" class="node">
<title>Node1</title>
<g id="a_Node000001"><a xlink:title=" ">
<polygon fill="#999999" stroke="#666666" points="322.5,-228 176.5,-228 176.5,-198 322.5,-198 322.5,-228"/>
<text text-anchor="start" x="184.5" y="-216" font-family="Helvetica,sans-Serif" font-size="10.00">Kit/System/IWatchedEvent</text>
<text text-anchor="middle" x="249.5" y="-205" font-family="Helvetica,sans-Serif" font-size="10.00">Loop.h</text>
</a>
</g>
</g>
<!-- Node2 -->
<g id="Node000002" class="node">
<title>Node2</title>
<g id="a_Node000002"><a xlink:href="src_2_kit_2_event_queue_2_server_8h.html" target="_top" xlink:title=" ">
<polygon fill="white" stroke="#666666" points="222,-90.5 87,-90.5 87,-71.5 222,-71.5 222,-90.5"/>
<text text-anchor="middle" x="154.5" y="-78.5" font-family="Helvetica,sans-Serif" font-size="10.00">Kit/EventQueue/Server.h</text>
</a>
</g>
</g>
<!-- Node1&#45;&gt;Node2 -->
<g id="edge1_Node000001_Node000002" class="edge">
<title>Node1&#45;&gt;Node2</title>
<g id="a_edge1_Node000001_Node000002"><a xlink:title=" ">
<path fill="none" stroke="#63b8ff" d="M209.28,-192.77C196.48,-184.87 183.36,-174.58 174.5,-162 158.75,-139.65 155.37,-106.12 154.67,-90.53"/>
<polygon fill="#63b8ff" stroke="#63b8ff" points="207.62,-195.86 218.03,-197.86 211.14,-189.81 207.62,-195.86"/>
</a>
</g>
</g>
<!-- Node5 -->
<g id="Node000005" class="node">
<title>Node5</title>
<g id="a_Node000005"><a xlink:href="_event_loop_8h.html" target="_top" xlink:title=" ">
<polygon fill="white" stroke="#666666" points="316,-156.5 183,-156.5 183,-137.5 316,-137.5 316,-156.5"/>
<text text-anchor="middle" x="249.5" y="-144.5" font-family="Helvetica,sans-Serif" font-size="10.00">Kit/System/EventLoop.h</text>
</a>
</g>
</g>
<!-- Node1&#45;&gt;Node5 -->
<g id="edge4_Node000001_Node000005" class="edge">
<title>Node1&#45;&gt;Node5</title>
<g id="a_edge4_Node000001_Node000005"><a xlink:title=" ">
<path fill="none" stroke="#63b8ff" d="M249.5,-187.6C249.5,-176.8 249.5,-164.78 249.5,-156.84"/>
<polygon fill="#63b8ff" stroke="#63b8ff" points="246,-187.8 249.5,-197.8 253,-187.8 246,-187.8"/>
</a>
</g>
</g>
<!-- Node7 -->
<g id="Node000007" class="node">
<title>Node7</title>
<g id="a_Node000007"><a xlink:href="_watched_event_thread_8h.html" target="_top" xlink:title=" ">
<polygon fill="white" stroke="#666666" points="466.5,-162 334.5,-162 334.5,-132 466.5,-132 466.5,-162"/>
<text text-anchor="start" x="342.5" y="-150" font-family="Helvetica,sans-Serif" font-size="10.00">Kit/System/Watchdog</text>
<text text-anchor="middle" x="400.5" y="-139" font-family="Helvetica,sans-Serif" font-size="10.00">/WatchedEventThread.h</text>
</a>
</g>
</g>
<!-- Node1&#45;&gt;Node7 -->
<g id="edge7_Node000001_Node000007" class="edge">
<title>Node1&#45;&gt;Node7</title>
<g id="a_edge7_Node000001_Node000007"><a xlink:title=" ">
<path fill="none" stroke="#63b8ff" d="M292.16,-193.92C316.03,-183.8 345.33,-171.38 367.44,-162.01"/>
<polygon fill="#63b8ff" stroke="#63b8ff" points="290.48,-190.83 282.64,-197.95 293.21,-197.28 290.48,-190.83"/>
</a>
</g>
</g>
<!-- Node3 -->
<g id="Node000003" class="node">
<title>Node3</title>
<g id="a_Node000003"><a xlink:href="_with_periodic_scheduling_8h.html" target="_top" xlink:title=" ">
<polygon fill="white" stroke="#666666" points="157,-30 0,-30 0,0 157,0 157,-30"/>
<text text-anchor="start" x="8" y="-18" font-family="Helvetica,sans-Serif" font-size="10.00">Kit/EventQueue/WithPeriodic</text>
<text text-anchor="middle" x="78.5" y="-7" font-family="Helvetica,sans-Serif" font-size="10.00">Scheduling.h</text>
</a>
</g>
</g>
<!-- Node2&#45;&gt;Node3 -->
<g id="edge2_Node000002_Node000003" class="edge">
<title>Node2&#45;&gt;Node3</title>
<g id="a_edge2_Node000002_Node000003"><a xlink:title=" ">
<path fill="none" stroke="#63b8ff" d="M136.35,-64.71C123.87,-54.21 107.43,-40.36 95.26,-30.12"/>
<polygon fill="#63b8ff" stroke="#63b8ff" points="134.35,-67.6 144.25,-71.37 138.86,-62.25 134.35,-67.6"/>
</a>
</g>
</g>
<!-- Node4 -->
<g id="Node000004" class="node">
<title>Node4</title>
<g id="a_Node000004"><a xlink:href="helpers_8h.html" target="_top" xlink:title="This file defines helper functions/interface for writing unit tests.">
<polygon fill="white" stroke="#666666" points="287.5,-30 175.5,-30 175.5,0 287.5,0 287.5,-30"/>
<text text-anchor="start" x="183.5" y="-18" font-family="Helvetica,sans-Serif" font-size="10.00">Kit/_support/testing</text>
<text text-anchor="middle" x="231.5" y="-7" font-family="Helvetica,sans-Serif" font-size="10.00">/helpers.h</text>
</a>
</g>
</g>
<!-- Node2&#45;&gt;Node4 -->
<g id="edge3_Node000002_Node000004" class="edge">
<title>Node2&#45;&gt;Node4</title>
<g id="a_edge3_Node000002_Node000004"><a xlink:title=" ">
<path fill="none" stroke="#63b8ff" d="M172.89,-64.71C185.53,-54.21 202.19,-40.36 214.52,-30.12"/>
<polygon fill="#63b8ff" stroke="#63b8ff" points="170.34,-62.28 164.88,-71.37 174.81,-67.67 170.34,-62.28"/>
</a>
</g>
</g>
<!-- Node5&#45;&gt;Node2 -->
<g id="edge5_Node000005_Node000002" class="edge">
<title>Node5&#45;&gt;Node2</title>
<g id="a_edge5_Node000005_Node000002"><a xlink:title=" ">
<path fill="none" stroke="#63b8ff" d="M228.24,-131.68C209.58,-119.11 183.04,-101.23 167.41,-90.7"/>
<polygon fill="#63b8ff" stroke="#63b8ff" points="226.44,-134.68 236.69,-137.37 230.35,-128.88 226.44,-134.68"/>
</a>
</g>
</g>
<!-- Node6 -->
<g id="Node000006" class="node">
<title>Node6</title>
<g id="a_Node000006"><a xlink:href="_event_loop_with_p_scheduling_8h.html" target="_top" xlink:title=" ">
<polygon fill="white" stroke="#666666" points="386.5,-96 240.5,-96 240.5,-66 386.5,-66 386.5,-96"/>
<text text-anchor="start" x="248.5" y="-84" font-family="Helvetica,sans-Serif" font-size="10.00">Kit/System/EventLoopWith</text>
<text text-anchor="middle" x="313.5" y="-73" font-family="Helvetica,sans-Serif" font-size="10.00">PScheduling.h</text>
</a>
</g>
</g>
<!-- Node5&#45;&gt;Node6 -->
<g id="edge6_Node000005_Node000006" class="edge">
<title>Node5&#45;&gt;Node6</title>
<g id="a_edge6_Node000005_Node000006"><a xlink:title=" ">
<path fill="none" stroke="#63b8ff" d="M265.34,-130.16C275.69,-119.81 289.1,-106.4 299.14,-96.36"/>
<polygon fill="#63b8ff" stroke="#63b8ff" points="262.73,-127.82 258.13,-137.37 267.68,-132.77 262.73,-127.82"/>
</a>
</g>
</g>
</g>
</svg>
