<?xml version="1.0" encoding="UTF-8" standalone="no"?>
<!DOCTYPE svg PUBLIC "-//W3C//DTD SVG 1.1//EN"
 "http://www.w3.org/Graphics/SVG/1.1/DTD/svg11.dtd">
<!-- Generated by graphviz version 2.43.0 (0)
 -->
<!-- Title: Kit/Io/Ram/InputOutputAllocate.h Pages: 1 -->
<svg width="1692pt" height="489pt"
 viewBox="0.00 0.00 1691.94 489.00" xmlns="http://www.w3.org/2000/svg" xmlns:xlink="http://www.w3.org/1999/xlink">
<g id="graph0" class="graph" transform="scale(1 1) rotate(0) translate(4 485)">
<title>Kit/Io/Ram/InputOutputAllocate.h</title>
<!-- Node1 -->
<g id="Node000001" class="node">
<title>Node1</title>
<g id="a_Node000001"><a xlink:title=" ">
<polygon fill="#999999" stroke="#666666" points="801.26,-481 624.26,-481 624.26,-462 801.26,-462 801.26,-481"/>
<text text-anchor="middle" x="712.76" y="-469" font-family="Helvetica,sans-Serif" font-size="10.00">Kit/Io/Ram/InputOutputAllocate.h</text>
</a>
</g>
</g>
<!-- Node2 -->
<g id="Node000002" class="node">
<title>Node2</title>
<g id="a_Node000002"><a xlink:href="_ram_2_input_output_8h.html" target="_top" xlink:title=" ">
<polygon fill="white" stroke="#666666" points="704.26,-420.5 567.26,-420.5 567.26,-401.5 704.26,-401.5 704.26,-420.5"/>
<text text-anchor="middle" x="635.76" y="-408.5" font-family="Helvetica,sans-Serif" font-size="10.00">Kit/Io/Ram/InputOutput.h</text>
</a>
</g>
</g>
<!-- Node1&#45;&gt;Node2 -->
<g id="edge1_Node000001_Node000002" class="edge">
<title>Node1&#45;&gt;Node2</title>
<g id="a_edge1_Node000001_Node000002"><a xlink:title=" ">
<path fill="none" stroke="#63b8ff" d="M701.39,-461.87C689.34,-452.71 670.06,-438.06 655.51,-427.01"/>
<polygon fill="#63b8ff" stroke="#63b8ff" points="657.24,-423.93 647.16,-420.67 653.01,-429.5 657.24,-423.93"/>
</a>
</g>
</g>
<!-- Node40 -->
<g id="Node000040" class="node">
<title>Node40</title>
<g id="a_Node000040"><a xlink:href="_ring_buffer_allocate_8h.html" target="_top" xlink:title=" ">
<polygon fill="white" stroke="#666666" points="856.76,-426 722.76,-426 722.76,-396 856.76,-396 856.76,-426"/>
<text text-anchor="start" x="730.76" y="-414" font-family="Helvetica,sans-Serif" font-size="10.00">Kit/Container/RingBuffer</text>
<text text-anchor="middle" x="789.76" y="-403" font-family="Helvetica,sans-Serif" font-size="10.00">Allocate.h</text>
</a>
</g>
</g>
<!-- Node1&#45;&gt;Node40 -->
<g id="edge73_Node000001_Node000040" class="edge">
<title>Node1&#45;&gt;Node40</title>
<g id="a_edge73_Node000001_Node000040"><a xlink:title=" ">
<path fill="none" stroke="#63b8ff" d="M724.12,-461.87C734.37,-454.08 749.85,-442.32 763.2,-432.17"/>
<polygon fill="#63b8ff" stroke="#63b8ff" points="765.33,-434.95 771.18,-426.11 761.1,-429.38 765.33,-434.95"/>
</a>
</g>
</g>
<!-- Node3 -->
<g id="Node000003" class="node">
<title>Node3</title>
<g id="a_Node000003"><a xlink:href="_i_input_output_8h.html" target="_top" xlink:title=" ">
<polygon fill="white" stroke="#666666" points="195.26,-250 80.26,-250 80.26,-231 195.26,-231 195.26,-250"/>
<text text-anchor="middle" x="137.76" y="-238" font-family="Helvetica,sans-Serif" font-size="10.00">Kit/Io/IInputOutput.h</text>
</a>
</g>
</g>
<!-- Node2&#45;&gt;Node3 -->
<g id="edge2_Node000002_Node000003" class="edge">
<title>Node2&#45;&gt;Node3</title>
<g id="a_edge2_Node000002_Node000003"><a xlink:title=" ">
<path fill="none" stroke="#63b8ff" d="M567.24,-409.22C419.4,-405.92 78.04,-389.17 6.76,-305 -16.58,-277.44 26.93,-260.87 69.95,-251.6"/>
<polygon fill="#63b8ff" stroke="#63b8ff" points="70.86,-254.99 79.96,-249.56 69.46,-248.13 70.86,-254.99"/>
</a>
</g>
</g>
<!-- Node20 -->
<g id="Node000020" class="node">
<title>Node20</title>
<g id="a_Node000020"><a xlink:href="_ring_buffer_8h.html" target="_top" xlink:title=" ">
<polygon fill="white" stroke="#666666" points="848.26,-360 705.26,-360 705.26,-341 848.26,-341 848.26,-360"/>
<text text-anchor="middle" x="776.76" y="-348" font-family="Helvetica,sans-Serif" font-size="10.00">Kit/Container/RingBuffer.h</text>
</a>
</g>
</g>
<!-- Node2&#45;&gt;Node20 -->
<g id="edge28_Node000002_Node000020" class="edge">
<title>Node2&#45;&gt;Node20</title>
<g id="a_edge28_Node000002_Node000020"><a xlink:title=" ">
<path fill="none" stroke="#63b8ff" d="M656.26,-401.49C680.07,-391.62 719.55,-375.23 746.8,-363.93"/>
<polygon fill="#63b8ff" stroke="#63b8ff" points="748.33,-367.08 756.23,-360.02 745.65,-360.62 748.33,-367.08"/>
</a>
</g>
</g>
<!-- Node32 -->
<g id="Node000032" class="node">
<title>Node32</title>
<g id="a_Node000032"><a xlink:href="_mutex_8h.html" target="_top" xlink:title=" ">
<polygon fill="white" stroke="#666666" points="788.26,-140 675.26,-140 675.26,-121 788.26,-121 788.26,-140"/>
<text text-anchor="middle" x="731.76" y="-128" font-family="Helvetica,sans-Serif" font-size="10.00">Kit/System/Mutex.h</text>
</a>
</g>
</g>
<!-- Node2&#45;&gt;Node32 -->
<g id="edge72_Node000002_Node000032" class="edge">
<title>Node2&#45;&gt;Node32</title>
<g id="a_edge72_Node000002_Node000032"><a xlink:title=" ">
<path fill="none" stroke="#63b8ff" d="M637.59,-401.22C641.38,-382.21 649.76,-335.81 649.76,-296.5 649.76,-296.5 649.76,-296.5 649.76,-239.5 649.76,-209 657.45,-200.39 675.76,-176 684.7,-164.09 697.55,-153.57 708.69,-145.76"/>
<polygon fill="#63b8ff" stroke="#63b8ff" points="710.79,-148.56 717.15,-140.09 706.89,-142.75 710.79,-148.56"/>
</a>
</g>
</g>
<!-- Node38 -->
<g id="Node000038" class="node">
<title>Node38</title>
<g id="a_Node000038"><a xlink:href="_semaphore_8h.html" target="_top" xlink:title=" ">
<polygon fill="white" stroke="#666666" points="615.26,-360 478.26,-360 478.26,-341 615.26,-341 615.26,-360"/>
<text text-anchor="middle" x="546.76" y="-348" font-family="Helvetica,sans-Serif" font-size="10.00">Kit/System/Semaphore.h</text>
</a>
</g>
</g>
<!-- Node2&#45;&gt;Node38 -->
<g id="edge69_Node000002_Node000038" class="edge">
<title>Node2&#45;&gt;Node38</title>
<g id="a_edge69_Node000002_Node000038"><a xlink:title=" ">
<path fill="none" stroke="#63b8ff" d="M622.62,-401.37C608.43,-392.04 585.56,-377.01 568.64,-365.88"/>
<polygon fill="#63b8ff" stroke="#63b8ff" points="570.22,-362.74 559.94,-360.17 566.38,-368.58 570.22,-362.74"/>
</a>
</g>
</g>
<!-- Node4 -->
<g id="Node000004" class="node">
<title>Node4</title>
<g id="a_Node000004"><a xlink:href="_i_input_8h.html" target="_top" xlink:title=" ">
<polygon fill="white" stroke="#666666" points="282.76,-195 200.76,-195 200.76,-176 282.76,-176 282.76,-195"/>
<text text-anchor="middle" x="241.76" y="-183" font-family="Helvetica,sans-Serif" font-size="10.00">Kit/Io/IInput.h</text>
</a>
</g>
</g>
<!-- Node3&#45;&gt;Node4 -->
<g id="edge3_Node000003_Node000004" class="edge">
<title>Node3&#45;&gt;Node4</title>
<g id="a_edge3_Node000003_Node000004"><a xlink:title=" ">
<path fill="none" stroke="#63b8ff" d="M154.46,-230.98C170.97,-222.57 196.45,-209.59 215.63,-199.81"/>
<polygon fill="#63b8ff" stroke="#63b8ff" points="217.42,-202.83 224.74,-195.17 214.24,-196.59 217.42,-202.83"/>
</a>
</g>
</g>
<!-- Node19 -->
<g id="Node000019" class="node">
<title>Node19</title>
<g id="a_Node000019"><a xlink:href="_i_output_8h.html" target="_top" xlink:title=" ">
<polygon fill="white" stroke="#666666" points="182.76,-195 92.76,-195 92.76,-176 182.76,-176 182.76,-195"/>
<text text-anchor="middle" x="137.76" y="-183" font-family="Helvetica,sans-Serif" font-size="10.00">Kit/Io/IOutput.h</text>
</a>
</g>
</g>
<!-- Node3&#45;&gt;Node19 -->
<g id="edge21_Node000003_Node000019" class="edge">
<title>Node3&#45;&gt;Node19</title>
<g id="a_edge21_Node000003_Node000019"><a xlink:title=" ">
<path fill="none" stroke="#63b8ff" d="M137.76,-230.75C137.76,-223.8 137.76,-213.85 137.76,-205.13"/>
<polygon fill="#63b8ff" stroke="#63b8ff" points="141.26,-205.09 137.76,-195.09 134.26,-205.09 141.26,-205.09"/>
</a>
</g>
</g>
<!-- Node5 -->
<g id="Node000005" class="node">
<title>Node5</title>
<g id="a_Node000005"><a xlink:href="_io_2types_8h.html" target="_top" xlink:title=" ">
<polygon fill="white" stroke="#666666" points="656.76,-140 574.76,-140 574.76,-121 656.76,-121 656.76,-140"/>
<text text-anchor="middle" x="615.76" y="-128" font-family="Helvetica,sans-Serif" font-size="10.00">Kit/Io/Types.h</text>
</a>
</g>
</g>
<!-- Node4&#45;&gt;Node5 -->
<g id="edge4_Node000004_Node000005" class="edge">
<title>Node4&#45;&gt;Node5</title>
<g id="a_edge4_Node000004_Node000005"><a xlink:title=" ">
<path fill="none" stroke="#63b8ff" d="M282.85,-178.68C351.54,-168.94 489.5,-149.39 564.45,-138.77"/>
<polygon fill="#63b8ff" stroke="#63b8ff" points="565.18,-142.2 574.59,-137.33 564.2,-135.27 565.18,-142.2"/>
</a>
</g>
</g>
<!-- Node10 -->
<g id="Node000010" class="node">
<title>Node10</title>
<g id="a_Node000010"><a xlink:href="_i_string_8h.html" target="_top" xlink:title=" ">
<polygon fill="white" stroke="#666666" points="387.26,-140 290.26,-140 290.26,-121 387.26,-121 387.26,-140"/>
<text text-anchor="middle" x="338.76" y="-128" font-family="Helvetica,sans-Serif" font-size="10.00">Kit/Text/IString.h</text>
</a>
</g>
</g>
<!-- Node4&#45;&gt;Node10 -->
<g id="edge11_Node000004_Node000010" class="edge">
<title>Node4&#45;&gt;Node10</title>
<g id="a_edge11_Node000004_Node000010"><a xlink:title=" ">
<path fill="none" stroke="#63b8ff" d="M257.34,-175.98C272.52,-167.69 295.85,-154.94 313.65,-145.22"/>
<polygon fill="#63b8ff" stroke="#63b8ff" points="315.79,-148.04 322.89,-140.17 312.43,-141.89 315.79,-148.04"/>
</a>
</g>
</g>
<!-- Node17 -->
<g id="Node000017" class="node">
<title>Node17</title>
<g id="a_Node000017"><a xlink:href="_io_2_i_close_8h.html" target="_top" xlink:title=" ">
<polygon fill="white" stroke="#666666" points="179.76,-140 95.76,-140 95.76,-121 179.76,-121 179.76,-140"/>
<text text-anchor="middle" x="137.76" y="-128" font-family="Helvetica,sans-Serif" font-size="10.00">Kit/Io/IClose.h</text>
</a>
</g>
</g>
<!-- Node4&#45;&gt;Node17 -->
<g id="edge19_Node000004_Node000017" class="edge">
<title>Node4&#45;&gt;Node17</title>
<g id="a_edge19_Node000004_Node000017"><a xlink:title=" ">
<path fill="none" stroke="#63b8ff" d="M225.05,-175.98C208.54,-167.57 183.06,-154.59 163.88,-144.81"/>
<polygon fill="#63b8ff" stroke="#63b8ff" points="165.27,-141.59 154.77,-140.17 162.09,-147.83 165.27,-141.59"/>
</a>
</g>
</g>
<!-- Node18 -->
<g id="Node000018" class="node">
<title>Node18</title>
<g id="a_Node000018"><a xlink:href="_i_eos_8h.html" target="_top" xlink:title=" ">
<polygon fill="white" stroke="#666666" points="271.76,-140 197.76,-140 197.76,-121 271.76,-121 271.76,-140"/>
<text text-anchor="middle" x="234.76" y="-128" font-family="Helvetica,sans-Serif" font-size="10.00">Kit/Io/IEos.h</text>
</a>
</g>
</g>
<!-- Node4&#45;&gt;Node18 -->
<g id="edge20_Node000004_Node000018" class="edge">
<title>Node4&#45;&gt;Node18</title>
<g id="a_edge20_Node000004_Node000018"><a xlink:title=" ">
<path fill="none" stroke="#63b8ff" d="M240.6,-175.75C239.68,-168.8 238.37,-158.85 237.22,-150.13"/>
<polygon fill="#63b8ff" stroke="#63b8ff" points="240.67,-149.54 235.89,-140.09 233.73,-150.46 240.67,-149.54"/>
</a>
</g>
</g>
<!-- Node6 -->
<g id="Node000006" class="node">
<title>Node6</title>
<g id="a_Node000006"><a xlink:title=" ">
<polygon fill="#e0e0e0" stroke="#999999" points="654.26,-19 581.26,-19 581.26,0 654.26,0 654.26,-19"/>
<text text-anchor="middle" x="617.76" y="-7" font-family="Helvetica,sans-Serif" font-size="10.00">kit_config.h</text>
</a>
</g>
</g>
<!-- Node5&#45;&gt;Node6 -->
<g id="edge5_Node000005_Node000006" class="edge">
<title>Node5&#45;&gt;Node6</title>
<g id="a_edge5_Node000005_Node000006"><a xlink:title=" ">
<path fill="none" stroke="#63b8ff" d="M615.9,-120.94C616.22,-101.91 617,-55.69 617.44,-29.47"/>
<polygon fill="#63b8ff" stroke="#63b8ff" points="620.94,-29.36 617.61,-19.3 613.94,-29.24 620.94,-29.36"/>
</a>
</g>
</g>
<!-- Node7 -->
<g id="Node000007" class="node">
<title>Node7</title>
<g id="a_Node000007"><a xlink:title=" ">
<polygon fill="#e0e0e0" stroke="#999999" points="570.26,-79.5 505.26,-79.5 505.26,-60.5 570.26,-60.5 570.26,-79.5"/>
<text text-anchor="middle" x="537.76" y="-67.5" font-family="Helvetica,sans-Serif" font-size="10.00">kit_map.h</text>
</a>
</g>
</g>
<!-- Node5&#45;&gt;Node7 -->
<g id="edge6_Node000005_Node000007" class="edge">
<title>Node5&#45;&gt;Node7</title>
<g id="a_edge6_Node000005_Node000007"><a xlink:title=" ">
<path fill="none" stroke="#63b8ff" d="M604.25,-120.87C591.92,-111.62 572.13,-96.78 557.35,-85.69"/>
<polygon fill="#63b8ff" stroke="#63b8ff" points="559.41,-82.87 549.31,-79.67 555.21,-88.47 559.41,-82.87"/>
</a>
</g>
</g>
<!-- Node8 -->
<g id="Node000008" class="node">
<title>Node8</title>
<g id="a_Node000008"><a xlink:href="_s_size_8h.html" target="_top" xlink:title=" ">
<polygon fill="white" stroke="#666666" points="796.76,-79.5 702.76,-79.5 702.76,-60.5 796.76,-60.5 796.76,-79.5"/>
<text text-anchor="middle" x="749.76" y="-67.5" font-family="Helvetica,sans-Serif" font-size="10.00">Kit/Type/SSize.h</text>
</a>
</g>
</g>
<!-- Node5&#45;&gt;Node8 -->
<g id="edge7_Node000005_Node000008" class="edge">
<title>Node5&#45;&gt;Node8</title>
<g id="a_edge7_Node000005_Node000008"><a xlink:title=" ">
<path fill="none" stroke="#63b8ff" d="M635.24,-120.99C657.77,-111.16 695.06,-94.88 720.94,-83.58"/>
<polygon fill="#63b8ff" stroke="#63b8ff" points="722.48,-86.73 730.25,-79.52 719.68,-80.31 722.48,-86.73"/>
</a>
</g>
</g>
<!-- Node9 -->
<g id="Node000009" class="node">
<title>Node9</title>
<g id="a_Node000009"><a xlink:title=" ">
<polygon fill="#e0e0e0" stroke="#999999" points="1226.26,-19 1173.26,-19 1173.26,0 1226.26,0 1226.26,-19"/>
<text text-anchor="middle" x="1199.76" y="-7" font-family="Helvetica,sans-Serif" font-size="10.00">stdint.h</text>
</a>
</g>
</g>
<!-- Node5&#45;&gt;Node9 -->
<g id="edge10_Node000005_Node000009" class="edge">
<title>Node5&#45;&gt;Node9</title>
<g id="a_edge10_Node000005_Node000009"><a xlink:title=" ">
<path fill="none" stroke="#63b8ff" d="M656.9,-122.31C660.23,-121.83 663.55,-121.38 666.76,-121 776.27,-107.92 1069.86,-145.98 1161.76,-85 1180.99,-72.24 1190.99,-46.59 1195.81,-28.98"/>
<polygon fill="#63b8ff" stroke="#63b8ff" points="1199.21,-29.79 1198.17,-19.25 1192.41,-28.14 1199.21,-29.79"/>
</a>
</g>
</g>
<!-- Node8&#45;&gt;Node6 -->
<g id="edge8_Node000008_Node000006" class="edge">
<title>Node8&#45;&gt;Node6</title>
<g id="a_edge8_Node000008_Node000006"><a xlink:title=" ">
<path fill="none" stroke="#63b8ff" d="M730.56,-60.49C708.37,-50.66 671.63,-34.38 646.14,-23.08"/>
<polygon fill="#63b8ff" stroke="#63b8ff" points="647.53,-19.87 636.97,-19.02 644.7,-26.27 647.53,-19.87"/>
</a>
</g>
</g>
<!-- Node8&#45;&gt;Node9 -->
<g id="edge9_Node000008_Node000009" class="edge">
<title>Node8&#45;&gt;Node9</title>
<g id="a_edge9_Node000008_Node000009"><a xlink:title=" ">
<path fill="none" stroke="#63b8ff" d="M797.06,-61.72C811.99,-59.49 828.55,-57.08 843.76,-55 972.44,-37.43 1004.9,-35.29 1133.76,-19 1143.27,-17.8 1153.55,-16.48 1163.1,-15.25"/>
<polygon fill="#63b8ff" stroke="#63b8ff" points="1163.63,-18.71 1173.1,-13.96 1162.74,-11.77 1163.63,-18.71"/>
</a>
</g>
</g>
<!-- Node11 -->
<g id="Node000011" class="node">
<title>Node11</title>
<g id="a_Node000011"><a xlink:href="_key_8h.html" target="_top" xlink:title=" ">
<polygon fill="white" stroke="#666666" points="1152.26,-79.5 1043.26,-79.5 1043.26,-60.5 1152.26,-60.5 1152.26,-79.5"/>
<text text-anchor="middle" x="1097.76" y="-67.5" font-family="Helvetica,sans-Serif" font-size="10.00">Kit/Container/Key.h</text>
</a>
</g>
</g>
<!-- Node10&#45;&gt;Node11 -->
<g id="edge12_Node000010_Node000011" class="edge">
<title>Node10&#45;&gt;Node11</title>
<g id="a_edge12_Node000010_Node000011"><a xlink:title=" ">
<path fill="none" stroke="#63b8ff" d="M387.54,-121.94C390.31,-121.6 393.07,-121.28 395.76,-121 661.46,-93.27 729.9,-111.18 995.76,-85 1007.78,-83.82 1020.56,-82.28 1032.86,-80.66"/>
<polygon fill="#63b8ff" stroke="#63b8ff" points="1033.61,-84.09 1043.06,-79.29 1032.68,-77.16 1033.61,-84.09"/>
</a>
</g>
</g>
<!-- Node14 -->
<g id="Node000014" class="node">
<title>Node14</title>
<g id="a_Node000014"><a xlink:href="printfchecker_8h.html" target="_top" xlink:title="This file contains macro that enables the GCC (and Clang) compiler to validate printf flags with thei...">
<polygon fill="white" stroke="#666666" points="277.26,-79.5 132.26,-79.5 132.26,-60.5 277.26,-60.5 277.26,-79.5"/>
<text text-anchor="middle" x="204.76" y="-67.5" font-family="Helvetica,sans-Serif" font-size="10.00">Kit/System/printfchecker.h</text>
</a>
</g>
</g>
<!-- Node10&#45;&gt;Node14 -->
<g id="edge16_Node000010_Node000014" class="edge">
<title>Node10&#45;&gt;Node14</title>
<g id="a_edge16_Node000010_Node000014"><a xlink:title=" ">
<path fill="none" stroke="#63b8ff" d="M319.27,-120.99C296.74,-111.16 259.45,-94.88 233.57,-83.58"/>
<polygon fill="#63b8ff" stroke="#63b8ff" points="234.83,-80.31 224.26,-79.52 232.03,-86.73 234.83,-80.31"/>
</a>
</g>
</g>
<!-- Node15 -->
<g id="Node000015" class="node">
<title>Node15</title>
<g id="a_Node000015"><a xlink:title=" ">
<polygon fill="#e0e0e0" stroke="#999999" points="100.76,-79.5 44.76,-79.5 44.76,-60.5 100.76,-60.5 100.76,-79.5"/>
<text text-anchor="middle" x="72.76" y="-67.5" font-family="Helvetica,sans-Serif" font-size="10.00">stdarg.h</text>
</a>
</g>
</g>
<!-- Node10&#45;&gt;Node15 -->
<g id="edge17_Node000010_Node000015" class="edge">
<title>Node10&#45;&gt;Node15</title>
<g id="a_edge17_Node000010_Node000015"><a xlink:title=" ">
<path fill="none" stroke="#63b8ff" d="M292.62,-120.96C248.74,-112.62 180.99,-99.13 122.76,-85 118.87,-84.06 114.84,-83.02 110.82,-81.96"/>
<polygon fill="#63b8ff" stroke="#63b8ff" points="111.53,-78.52 100.96,-79.27 109.69,-85.27 111.53,-78.52"/>
</a>
</g>
</g>
<!-- Node16 -->
<g id="Node000016" class="node">
<title>Node16</title>
<g id="a_Node000016"><a xlink:title=" ">
<polygon fill="#e0e0e0" stroke="#999999" points="368.76,-79.5 308.76,-79.5 308.76,-60.5 368.76,-60.5 368.76,-79.5"/>
<text text-anchor="middle" x="338.76" y="-67.5" font-family="Helvetica,sans-Serif" font-size="10.00">iostream</text>
</a>
</g>
</g>
<!-- Node10&#45;&gt;Node16 -->
<g id="edge18_Node000010_Node000016" class="edge">
<title>Node10&#45;&gt;Node16</title>
<g id="a_edge18_Node000010_Node000016"><a xlink:title=" ">
<path fill="none" stroke="#63b8ff" d="M338.76,-120.87C338.76,-112.75 338.76,-100.31 338.76,-89.89"/>
<polygon fill="#63b8ff" stroke="#63b8ff" points="342.26,-89.67 338.76,-79.67 335.26,-89.67 342.26,-89.67"/>
</a>
</g>
</g>
<!-- Node11&#45;&gt;Node9 -->
<g id="edge13_Node000011_Node000009" class="edge">
<title>Node11&#45;&gt;Node9</title>
<g id="a_edge13_Node000011_Node000009"><a xlink:title=" ">
<path fill="none" stroke="#63b8ff" d="M1112.81,-60.37C1129.38,-50.86 1156.26,-35.45 1175.75,-24.27"/>
<polygon fill="#63b8ff" stroke="#63b8ff" points="1177.71,-27.18 1184.64,-19.17 1174.23,-21.11 1177.71,-27.18"/>
</a>
</g>
</g>
<!-- Node12 -->
<g id="Node000012" class="node">
<title>Node12</title>
<g id="a_Node000012"><a xlink:title=" ">
<polygon fill="#e0e0e0" stroke="#999999" points="1029.26,-19 976.26,-19 976.26,0 1029.26,0 1029.26,-19"/>
<text text-anchor="middle" x="1002.76" y="-7" font-family="Helvetica,sans-Serif" font-size="10.00">stdlib.h</text>
</a>
</g>
</g>
<!-- Node11&#45;&gt;Node12 -->
<g id="edge14_Node000011_Node000012" class="edge">
<title>Node11&#45;&gt;Node12</title>
<g id="a_edge14_Node000011_Node000012"><a xlink:title=" ">
<path fill="none" stroke="#63b8ff" d="M1083.74,-60.37C1068.44,-50.95 1043.72,-35.73 1025.61,-24.58"/>
<polygon fill="#63b8ff" stroke="#63b8ff" points="1027.18,-21.43 1016.83,-19.17 1023.51,-27.39 1027.18,-21.43"/>
</a>
</g>
</g>
<!-- Node13 -->
<g id="Node000013" class="node">
<title>Node13</title>
<g id="a_Node000013"><a xlink:title=" ">
<polygon fill="#e0e0e0" stroke="#999999" points="1124.26,-19 1071.26,-19 1071.26,0 1124.26,0 1124.26,-19"/>
<text text-anchor="middle" x="1097.76" y="-7" font-family="Helvetica,sans-Serif" font-size="10.00">limits.h</text>
</a>
</g>
</g>
<!-- Node11&#45;&gt;Node13 -->
<g id="edge15_Node000011_Node000013" class="edge">
<title>Node11&#45;&gt;Node13</title>
<g id="a_edge15_Node000011_Node000013"><a xlink:title=" ">
<path fill="none" stroke="#63b8ff" d="M1097.76,-60.37C1097.76,-52.25 1097.76,-39.81 1097.76,-29.39"/>
<polygon fill="#63b8ff" stroke="#63b8ff" points="1101.26,-29.17 1097.76,-19.17 1094.26,-29.17 1101.26,-29.17"/>
</a>
</g>
</g>
<!-- Node19&#45;&gt;Node5 -->
<g id="edge22_Node000019_Node000005" class="edge">
<title>Node19&#45;&gt;Node5</title>
<g id="a_edge22_Node000019_Node000005"><a xlink:title=" ">
<path fill="none" stroke="#63b8ff" d="M182.81,-177.23C185.84,-176.8 188.84,-176.38 191.76,-176 262.65,-166.71 468.05,-146.09 564.54,-136.54"/>
<polygon fill="#63b8ff" stroke="#63b8ff" points="565.04,-140.01 574.64,-135.54 564.35,-133.04 565.04,-140.01"/>
</a>
</g>
</g>
<!-- Node19&#45;&gt;Node10 -->
<g id="edge23_Node000019_Node000010" class="edge">
<title>Node19&#45;&gt;Node10</title>
<g id="a_edge23_Node000019_Node000010"><a xlink:title=" ">
<path fill="none" stroke="#63b8ff" d="M170.05,-175.98C204.38,-166.93 258.81,-152.58 296.53,-142.64"/>
<polygon fill="#63b8ff" stroke="#63b8ff" points="297.43,-146.02 306.21,-140.08 295.65,-139.25 297.43,-146.02"/>
</a>
</g>
</g>
<!-- Node19&#45;&gt;Node14 -->
<g id="edge26_Node000019_Node000014" class="edge">
<title>Node19&#45;&gt;Node14</title>
<g id="a_edge26_Node000019_Node000014"><a xlink:title=" ">
<path fill="none" stroke="#63b8ff" d="M121.9,-175.85C102.27,-163.98 73.01,-141.75 86.76,-121 99.49,-101.78 121.25,-89.92 142.64,-82.62"/>
<polygon fill="#63b8ff" stroke="#63b8ff" points="143.9,-85.9 152.41,-79.58 141.82,-79.21 143.9,-85.9"/>
</a>
</g>
</g>
<!-- Node19&#45;&gt;Node15 -->
<g id="edge27_Node000019_Node000015" class="edge">
<title>Node19&#45;&gt;Node15</title>
<g id="a_edge27_Node000019_Node000015"><a xlink:title=" ">
<path fill="none" stroke="#63b8ff" d="M104.35,-175.98C85.98,-169.4 64.73,-158.24 53.76,-140 44.08,-123.93 52.42,-102.83 60.89,-88.21"/>
<polygon fill="#63b8ff" stroke="#63b8ff" points="63.91,-89.98 66.29,-79.66 58,-86.24 63.91,-89.98"/>
</a>
</g>
</g>
<!-- Node19&#45;&gt;Node17 -->
<g id="edge24_Node000019_Node000017" class="edge">
<title>Node19&#45;&gt;Node17</title>
<g id="a_edge24_Node000019_Node000017"><a xlink:title=" ">
<path fill="none" stroke="#63b8ff" d="M137.76,-175.75C137.76,-168.8 137.76,-158.85 137.76,-150.13"/>
<polygon fill="#63b8ff" stroke="#63b8ff" points="141.26,-150.09 137.76,-140.09 134.26,-150.09 141.26,-150.09"/>
</a>
</g>
</g>
<!-- Node19&#45;&gt;Node18 -->
<g id="edge25_Node000019_Node000018" class="edge">
<title>Node19&#45;&gt;Node18</title>
<g id="a_edge25_Node000019_Node000018"><a xlink:title=" ">
<path fill="none" stroke="#63b8ff" d="M153.34,-175.98C168.52,-167.69 191.85,-154.94 209.65,-145.22"/>
<polygon fill="#63b8ff" stroke="#63b8ff" points="211.79,-148.04 218.89,-140.17 208.43,-141.89 211.79,-148.04"/>
</a>
</g>
</g>
<!-- Node20&#45;&gt;Node6 -->
<g id="edge29_Node000020_Node000006" class="edge">
<title>Node20&#45;&gt;Node6</title>
<g id="a_edge29_Node000020_Node000006"><a xlink:title=" ">
<path fill="none" stroke="#63b8ff" d="M705.08,-343.99C534.86,-330.27 117.05,-292.58 70.76,-250 15.58,-199.25 42.49,-159.66 35.76,-85 34.56,-71.72 26.69,-64.78 35.76,-55 71.84,-16.05 438.89,-11.05 570.84,-10.52"/>
<polygon fill="#63b8ff" stroke="#63b8ff" points="571.04,-14.02 581.03,-10.48 571.02,-7.02 571.04,-14.02"/>
</a>
</g>
</g>
<!-- Node21 -->
<g id="Node000021" class="node">
<title>Node21</title>
<g id="a_Node000021"><a xlink:href="_assert_8h.html" target="_top" xlink:title=" ">
<polygon fill="white" stroke="#666666" points="518.26,-140 405.26,-140 405.26,-121 518.26,-121 518.26,-140"/>
<text text-anchor="middle" x="461.76" y="-128" font-family="Helvetica,sans-Serif" font-size="10.00">Kit/System/Assert.h</text>
</a>
</g>
</g>
<!-- Node20&#45;&gt;Node21 -->
<g id="edge30_Node000020_Node000021" class="edge">
<title>Node20&#45;&gt;Node21</title>
<g id="a_edge30_Node000020_Node000021"><a xlink:title=" ">
<path fill="none" stroke="#63b8ff" d="M761.33,-340.93C721.9,-318.76 614.76,-256.97 532.76,-195 512.9,-180 491.86,-160.69 477.88,-147.33"/>
<polygon fill="#63b8ff" stroke="#63b8ff" points="480.16,-144.66 470.53,-140.22 475.29,-149.69 480.16,-144.66"/>
</a>
</g>
</g>
<!-- Node22 -->
<g id="Node000022" class="node">
<title>Node22</title>
<g id="a_Node000022"><a xlink:href="_string_8h.html" target="_top" xlink:title=" ">
<polygon fill="white" stroke="#666666" points="1008.26,-305 955.26,-305 955.26,-286 1008.26,-286 1008.26,-305"/>
<text text-anchor="middle" x="981.76" y="-293" font-family="Helvetica,sans-Serif" font-size="10.00">string.h</text>
</a>
</g>
</g>
<!-- Node20&#45;&gt;Node22 -->
<g id="edge33_Node000020_Node000022" class="edge">
<title>Node20&#45;&gt;Node22</title>
<g id="a_edge33_Node000020_Node000022"><a xlink:title=" ">
<path fill="none" stroke="#63b8ff" d="M809.69,-340.98C846.78,-331.4 906.88,-315.86 945.34,-305.91"/>
<polygon fill="#63b8ff" stroke="#63b8ff" points="946.3,-309.28 955.1,-303.39 944.55,-302.5 946.3,-309.28"/>
</a>
</g>
</g>
<!-- Node36 -->
<g id="Node000036" class="node">
<title>Node36</title>
<g id="a_Node000036"><a xlink:href="_ring_buffer_base_atomic_8h.html" target="_top" xlink:title=" ">
<polygon fill="white" stroke="#666666" points="986.76,-85 852.76,-85 852.76,-55 986.76,-55 986.76,-85"/>
<text text-anchor="start" x="860.76" y="-73" font-family="Helvetica,sans-Serif" font-size="10.00">Kit/Container/RingBuffer</text>
<text text-anchor="middle" x="919.76" y="-62" font-family="Helvetica,sans-Serif" font-size="10.00">BaseAtomic.h</text>
</a>
</g>
</g>
<!-- Node20&#45;&gt;Node36 -->
<g id="edge65_Node000020_Node000036" class="edge">
<title>Node20&#45;&gt;Node36</title>
<g id="a_edge65_Node000020_Node000036"><a xlink:title=" ">
<path fill="none" stroke="#63b8ff" d="M788.94,-340.95C810.88,-324.45 854.76,-285.91 854.76,-241.5 854.76,-241.5 854.76,-241.5 854.76,-184.5 854.76,-154.91 860.08,-146.69 874.76,-121 880.55,-110.86 888.69,-101.01 896.45,-92.77"/>
<polygon fill="#63b8ff" stroke="#63b8ff" points="899.17,-94.99 903.69,-85.41 894.18,-90.08 899.17,-94.99"/>
</a>
</g>
</g>
<!-- Node21&#45;&gt;Node6 -->
<g id="edge31_Node000021_Node000006" class="edge">
<title>Node21&#45;&gt;Node6</title>
<g id="a_edge31_Node000021_Node000006"><a xlink:title=" ">
<path fill="none" stroke="#63b8ff" d="M463.41,-120.85C466.8,-105.49 475.92,-73.34 495.76,-55 516.49,-35.83 546.14,-24.77 571.01,-18.47"/>
<polygon fill="#63b8ff" stroke="#63b8ff" points="572.05,-21.82 580.99,-16.12 570.45,-15 572.05,-21.82"/>
</a>
</g>
</g>
<!-- Node21&#45;&gt;Node7 -->
<g id="edge32_Node000021_Node000007" class="edge">
<title>Node21&#45;&gt;Node7</title>
<g id="a_edge32_Node000021_Node000007"><a xlink:title=" ">
<path fill="none" stroke="#63b8ff" d="M472.97,-120.87C484.87,-111.71 503.9,-97.06 518.26,-86.01"/>
<polygon fill="#63b8ff" stroke="#63b8ff" points="520.71,-88.54 526.5,-79.67 516.44,-82.99 520.71,-88.54"/>
</a>
</g>
</g>
<!-- Node23 -->
<g id="Node000023" class="node">
<title>Node23</title>
<g id="a_Node000023"><a xlink:href="_model_point_base_8h.html" target="_top" xlink:title=" ">
<polygon fill="white" stroke="#666666" points="1123.26,-250 982.26,-250 982.26,-231 1123.26,-231 1123.26,-250"/>
<text text-anchor="middle" x="1052.76" y="-238" font-family="Helvetica,sans-Serif" font-size="10.00">Kit/Dm/ModelPointBase.h</text>
</a>
</g>
</g>
<!-- Node22&#45;&gt;Node23 -->
<g id="edge34_Node000022_Node000023" class="edge">
<title>Node22&#45;&gt;Node23</title>
<g id="a_edge34_Node000022_Node000023"><a xlink:title=" ">
<path fill="none" stroke="#63b8ff" d="M993.16,-285.98C1003.86,-278 1020.1,-265.88 1032.92,-256.31"/>
<polygon fill="#63b8ff" stroke="#63b8ff" points="1035.22,-258.96 1041.14,-250.17 1031.03,-253.35 1035.22,-258.96"/>
</a>
</g>
</g>
<!-- Node35 -->
<g id="Node000035" class="node">
<title>Node35</title>
<g id="a_Node000035"><a xlink:href="_observer_8h.html" target="_top" xlink:title=" ">
<polygon fill="white" stroke="#666666" points="1374.76,-250 1268.76,-250 1268.76,-231 1374.76,-231 1374.76,-250"/>
<text text-anchor="middle" x="1321.76" y="-238" font-family="Helvetica,sans-Serif" font-size="10.00">Kit/Dm/Observer.h</text>
</a>
</g>
</g>
<!-- Node22&#45;&gt;Node35 -->
<g id="edge61_Node000022_Node000035" class="edge">
<title>Node22&#45;&gt;Node35</title>
<g id="a_edge61_Node000022_Node000035"><a xlink:title=" ">
<path fill="none" stroke="#63b8ff" d="M1008.43,-290.34C1061.89,-282.01 1183.39,-263.07 1258.41,-251.38"/>
<polygon fill="#63b8ff" stroke="#63b8ff" points="1259.33,-254.77 1268.67,-249.77 1258.25,-247.86 1259.33,-254.77"/>
</a>
</g>
</g>
<!-- Node23&#45;&gt;Node9 -->
<g id="edge59_Node000023_Node000009" class="edge">
<title>Node23&#45;&gt;Node9</title>
<g id="a_edge59_Node000023_Node000009"><a xlink:title=" ">
<path fill="none" stroke="#63b8ff" d="M1053.82,-230.64C1055.71,-217.73 1060.54,-193.42 1071.76,-176 1091.87,-144.75 1105.43,-143.84 1134.76,-121 1156.93,-103.73 1171.61,-108.68 1186.76,-85 1197.46,-68.27 1200.05,-45.29 1200.38,-29.3"/>
<polygon fill="#63b8ff" stroke="#63b8ff" points="1203.88,-29.05 1200.31,-19.08 1196.88,-29.1 1203.88,-29.05"/>
</a>
</g>
</g>
<!-- Node23&#45;&gt;Node12 -->
<g id="edge60_Node000023_Node000012" class="edge">
<title>Node23&#45;&gt;Node12</title>
<g id="a_edge60_Node000023_Node000012"><a xlink:title=" ">
<path fill="none" stroke="#63b8ff" d="M1049.67,-230.72C1046.62,-221.8 1041.95,-207.56 1038.76,-195 1023.52,-135.02 1011.1,-62.66 1005.69,-29.17"/>
<polygon fill="#63b8ff" stroke="#63b8ff" points="1009.1,-28.36 1004.07,-19.03 1002.19,-29.46 1009.1,-28.36"/>
</a>
</g>
</g>
<!-- Node24 -->
<g id="Node000024" class="node">
<title>Node24</title>
<g id="a_Node000024"><a xlink:href="_i_model_point_8h.html" target="_top" xlink:title=" ">
<polygon fill="white" stroke="#666666" points="1200.76,-195 1080.76,-195 1080.76,-176 1200.76,-176 1200.76,-195"/>
<text text-anchor="middle" x="1140.76" y="-183" font-family="Helvetica,sans-Serif" font-size="10.00">Kit/Dm/IModelPoint.h</text>
</a>
</g>
</g>
<!-- Node23&#45;&gt;Node24 -->
<g id="edge35_Node000023_Node000024" class="edge">
<title>Node23&#45;&gt;Node24</title>
<g id="a_edge35_Node000023_Node000024"><a xlink:title=" ">
<path fill="none" stroke="#63b8ff" d="M1066.89,-230.98C1080.54,-222.77 1101.44,-210.18 1117.53,-200.49"/>
<polygon fill="#63b8ff" stroke="#63b8ff" points="1119.6,-203.33 1126.36,-195.17 1115.99,-197.33 1119.6,-203.33"/>
</a>
</g>
</g>
<!-- Node28 -->
<g id="Node000028" class="node">
<title>Node28</title>
<g id="a_Node000028"><a xlink:href="_i_observer_8h.html" target="_top" xlink:title=" ">
<polygon fill="white" stroke="#666666" points="1503.26,-140 1394.26,-140 1394.26,-121 1503.26,-121 1503.26,-140"/>
<text text-anchor="middle" x="1448.76" y="-128" font-family="Helvetica,sans-Serif" font-size="10.00">Kit/Dm/IObserver.h</text>
</a>
</g>
</g>
<!-- Node23&#45;&gt;Node28 -->
<g id="edge55_Node000023_Node000028" class="edge">
<title>Node23&#45;&gt;Node28</title>
<g id="a_edge55_Node000023_Node000028"><a xlink:title=" ">
<path fill="none" stroke="#63b8ff" d="M1084.77,-230.94C1116.6,-222.31 1166.74,-208.38 1209.76,-195 1234.85,-187.19 1240.52,-183.33 1265.76,-176 1310.53,-162.99 1362.2,-150.67 1399.19,-142.3"/>
<polygon fill="#63b8ff" stroke="#63b8ff" points="1400.23,-145.66 1409.22,-140.05 1398.7,-138.83 1400.23,-145.66"/>
</a>
</g>
</g>
<!-- Node31 -->
<g id="Node000031" class="node">
<title>Node31</title>
<g id="a_Node000031"><a xlink:href="_i_model_database_8h.html" target="_top" xlink:title=" ">
<polygon fill="white" stroke="#666666" points="826.76,-195 684.76,-195 684.76,-176 826.76,-176 826.76,-195"/>
<text text-anchor="middle" x="755.76" y="-183" font-family="Helvetica,sans-Serif" font-size="10.00">Kit/Dm/IModelDatabase.h</text>
</a>
</g>
</g>
<!-- Node23&#45;&gt;Node31 -->
<g id="edge48_Node000023_Node000031" class="edge">
<title>Node23&#45;&gt;Node31</title>
<g id="a_edge48_Node000023_Node000031"><a xlink:title=" ">
<path fill="none" stroke="#63b8ff" d="M1005.04,-230.98C953.02,-221.7 869.75,-206.84 813.94,-196.88"/>
<polygon fill="#63b8ff" stroke="#63b8ff" points="814.31,-193.39 803.85,-195.08 813.08,-200.28 814.31,-193.39"/>
</a>
</g>
</g>
<!-- Node33 -->
<g id="Node000033" class="node">
<title>Node33</title>
<g id="a_Node000033"><a xlink:href="_d_list_8h.html" target="_top" xlink:title=" ">
<polygon fill="white" stroke="#666666" points="1391.26,-195 1274.26,-195 1274.26,-176 1391.26,-176 1391.26,-195"/>
<text text-anchor="middle" x="1332.76" y="-183" font-family="Helvetica,sans-Serif" font-size="10.00">Kit/Container/DList.h</text>
</a>
</g>
</g>
<!-- Node23&#45;&gt;Node33 -->
<g id="edge56_Node000023_Node000033" class="edge">
<title>Node23&#45;&gt;Node33</title>
<g id="a_edge56_Node000023_Node000033"><a xlink:title=" ">
<path fill="none" stroke="#63b8ff" d="M1097.74,-230.98C1146.68,-221.72 1224.96,-206.9 1277.58,-196.94"/>
<polygon fill="#63b8ff" stroke="#63b8ff" points="1278.24,-200.38 1287.42,-195.08 1276.94,-193.5 1278.24,-200.38"/>
</a>
</g>
</g>
<!-- Node24&#45;&gt;Node6 -->
<g id="edge36_Node000024_Node000006" class="edge">
<title>Node24&#45;&gt;Node6</title>
<g id="a_edge36_Node000024_Node000006"><a xlink:title=" ">
<path fill="none" stroke="#63b8ff" d="M1125.22,-175.86C1099.27,-161.86 1045.08,-134.42 995.76,-121 865.33,-85.5 815.64,-143.43 693.76,-85 686.4,-81.47 653.04,-47.37 633.04,-26.55"/>
<polygon fill="#63b8ff" stroke="#63b8ff" points="635.32,-23.87 625.88,-19.06 630.26,-28.71 635.32,-23.87"/>
</a>
</g>
</g>
<!-- Node24&#45;&gt;Node9 -->
<g id="edge47_Node000024_Node000009" class="edge">
<title>Node24&#45;&gt;Node9</title>
<g id="a_edge47_Node000024_Node000009"><a xlink:title=" ">
<path fill="none" stroke="#63b8ff" d="M1139.15,-175.71C1137.25,-162.46 1135.7,-137.19 1147.76,-121 1172.26,-88.09 1210.1,-119.2 1232.76,-85 1245.13,-66.32 1229.56,-42.24 1215.89,-26.59"/>
<polygon fill="#63b8ff" stroke="#63b8ff" points="1218.44,-24.19 1209.07,-19.24 1213.31,-28.95 1218.44,-24.19"/>
</a>
</g>
</g>
<!-- Node24&#45;&gt;Node10 -->
<g id="edge41_Node000024_Node000010" class="edge">
<title>Node24&#45;&gt;Node10</title>
<g id="a_edge41_Node000024_Node000010"><a xlink:title=" ">
<path fill="none" stroke="#63b8ff" d="M1080.74,-182.71C955.56,-178.6 657.33,-166.77 397.54,-140.1"/>
<polygon fill="#63b8ff" stroke="#63b8ff" points="397.84,-136.61 387.54,-139.06 397.12,-143.58 397.84,-136.61"/>
</a>
</g>
</g>
<!-- Node25 -->
<g id="Node000025" class="node">
<title>Node25</title>
<g id="a_Node000025"><a xlink:href="_keyed_item_8h.html" target="_top" xlink:title=" ">
<polygon fill="white" stroke="#666666" points="1376.26,-140 1231.26,-140 1231.26,-121 1376.26,-121 1376.26,-140"/>
<text text-anchor="middle" x="1303.76" y="-128" font-family="Helvetica,sans-Serif" font-size="10.00">Kit/Container/KeyedItem.h</text>
</a>
</g>
</g>
<!-- Node24&#45;&gt;Node25 -->
<g id="edge37_Node000024_Node000025" class="edge">
<title>Node24&#45;&gt;Node25</title>
<g id="a_edge37_Node000024_Node000025"><a xlink:title=" ">
<path fill="none" stroke="#63b8ff" d="M1166.94,-175.98C1194.19,-167.13 1237.06,-153.19 1267.54,-143.28"/>
<polygon fill="#63b8ff" stroke="#63b8ff" points="1268.93,-146.5 1277.36,-140.08 1266.77,-139.85 1268.93,-146.5"/>
</a>
</g>
</g>
<!-- Node24&#45;&gt;Node28 -->
<g id="edge42_Node000024_Node000028" class="edge">
<title>Node24&#45;&gt;Node28</title>
<g id="a_edge42_Node000024_Node000028"><a xlink:title=" ">
<path fill="none" stroke="#63b8ff" d="M1190.24,-175.98C1244.38,-166.67 1331.15,-151.74 1389.04,-141.78"/>
<polygon fill="#63b8ff" stroke="#63b8ff" points="1389.88,-145.18 1399.14,-140.04 1388.69,-138.28 1389.88,-145.18"/>
</a>
</g>
</g>
<!-- Node29 -->
<g id="Node000029" class="node">
<title>Node29</title>
<g id="a_Node000029"><a xlink:href="_arduino_8h_source.html" target="_top" xlink:title=" ">
<polygon fill="white" stroke="#666666" points="986.26,-140 883.26,-140 883.26,-121 986.26,-121 986.26,-140"/>
<text text-anchor="middle" x="934.76" y="-128" font-family="Helvetica,sans-Serif" font-size="10.00">Kit/Json/Arduino.h</text>
</a>
</g>
</g>
<!-- Node24&#45;&gt;Node29 -->
<g id="edge45_Node000024_Node000029" class="edge">
<title>Node24&#45;&gt;Node29</title>
<g id="a_edge45_Node000024_Node000029"><a xlink:title=" ">
<path fill="none" stroke="#63b8ff" d="M1107.66,-175.98C1072.47,-166.93 1016.69,-152.58 978.04,-142.64"/>
<polygon fill="#63b8ff" stroke="#63b8ff" points="978.67,-139.18 968.11,-140.08 976.92,-145.96 978.67,-139.18"/>
</a>
</g>
</g>
<!-- Node30 -->
<g id="Node000030" class="node">
<title>Node30</title>
<g id="a_Node000030"><a xlink:title=" ">
<polygon fill="#e0e0e0" stroke="#999999" points="1212.76,-140 1156.76,-140 1156.76,-121 1212.76,-121 1212.76,-140"/>
<text text-anchor="middle" x="1184.76" y="-128" font-family="Helvetica,sans-Serif" font-size="10.00">stddef.h</text>
</a>
</g>
</g>
<!-- Node24&#45;&gt;Node30 -->
<g id="edge46_Node000024_Node000030" class="edge">
<title>Node24&#45;&gt;Node30</title>
<g id="a_edge46_Node000024_Node000030"><a xlink:title=" ">
<path fill="none" stroke="#63b8ff" d="M1148.02,-175.75C1154.3,-168.18 1163.54,-157.05 1171.19,-147.84"/>
<polygon fill="#63b8ff" stroke="#63b8ff" points="1173.93,-150.02 1177.62,-140.09 1168.54,-145.55 1173.93,-150.02"/>
</a>
</g>
</g>
<!-- Node25&#45;&gt;Node11 -->
<g id="edge40_Node000025_Node000011" class="edge">
<title>Node25&#45;&gt;Node11</title>
<g id="a_edge40_Node000025_Node000011"><a xlink:title=" ">
<path fill="none" stroke="#63b8ff" d="M1273.8,-120.99C1237.8,-110.77 1177.26,-93.58 1137.4,-82.26"/>
<polygon fill="#63b8ff" stroke="#63b8ff" points="1138.32,-78.88 1127.75,-79.52 1136.41,-85.62 1138.32,-78.88"/>
</a>
</g>
</g>
<!-- Node26 -->
<g id="Node000026" class="node">
<title>Node26</title>
<g id="a_Node000026"><a xlink:href="_list_item_8h.html" target="_top" xlink:title=" ">
<polygon fill="white" stroke="#666666" points="1514.76,-79.5 1382.76,-79.5 1382.76,-60.5 1514.76,-60.5 1514.76,-79.5"/>
<text text-anchor="middle" x="1448.76" y="-67.5" font-family="Helvetica,sans-Serif" font-size="10.00">Kit/Container/ListItem.h</text>
</a>
</g>
</g>
<!-- Node25&#45;&gt;Node26 -->
<g id="edge38_Node000025_Node000026" class="edge">
<title>Node25&#45;&gt;Node26</title>
<g id="a_edge38_Node000025_Node000026"><a xlink:title=" ">
<path fill="none" stroke="#63b8ff" d="M1324.84,-120.99C1349.43,-111.07 1390.28,-94.59 1418.31,-83.28"/>
<polygon fill="#63b8ff" stroke="#63b8ff" points="1419.68,-86.5 1427.65,-79.52 1417.06,-80.01 1419.68,-86.5"/>
</a>
</g>
</g>
<!-- Node27 -->
<g id="Node000027" class="node">
<title>Node27</title>
<g id="a_Node000027"><a xlink:href="_item_8h.html" target="_top" xlink:title=" ">
<polygon fill="white" stroke="#666666" points="1506.26,-19 1391.26,-19 1391.26,0 1506.26,0 1506.26,-19"/>
<text text-anchor="middle" x="1448.76" y="-7" font-family="Helvetica,sans-Serif" font-size="10.00">Kit/Container/Item.h</text>
</a>
</g>
</g>
<!-- Node26&#45;&gt;Node27 -->
<g id="edge39_Node000026_Node000027" class="edge">
<title>Node26&#45;&gt;Node27</title>
<g id="a_edge39_Node000026_Node000027"><a xlink:title=" ">
<path fill="none" stroke="#63b8ff" d="M1448.76,-60.37C1448.76,-52.25 1448.76,-39.81 1448.76,-29.39"/>
<polygon fill="#63b8ff" stroke="#63b8ff" points="1452.26,-29.17 1448.76,-19.17 1445.26,-29.17 1452.26,-29.17"/>
</a>
</g>
</g>
<!-- Node28&#45;&gt;Node9 -->
<g id="edge44_Node000028_Node000009" class="edge">
<title>Node28&#45;&gt;Node9</title>
<g id="a_edge44_Node000028_Node000009"><a xlink:title=" ">
<path fill="none" stroke="#63b8ff" d="M1430.85,-120.94C1387.79,-100.36 1278.25,-48.01 1226.99,-23.51"/>
<polygon fill="#63b8ff" stroke="#63b8ff" points="1228.37,-20.29 1217.84,-19.14 1225.35,-26.61 1228.37,-20.29"/>
</a>
</g>
</g>
<!-- Node28&#45;&gt;Node26 -->
<g id="edge43_Node000028_Node000026" class="edge">
<title>Node28&#45;&gt;Node26</title>
<g id="a_edge43_Node000028_Node000026"><a xlink:title=" ">
<path fill="none" stroke="#63b8ff" d="M1448.76,-120.87C1448.76,-112.75 1448.76,-100.31 1448.76,-89.89"/>
<polygon fill="#63b8ff" stroke="#63b8ff" points="1452.26,-89.67 1448.76,-79.67 1445.26,-89.67 1452.26,-89.67"/>
</a>
</g>
</g>
<!-- Node31&#45;&gt;Node6 -->
<g id="edge49_Node000031_Node000006" class="edge">
<title>Node31&#45;&gt;Node6</title>
<g id="a_edge49_Node000031_Node000006"><a xlink:title=" ">
<path fill="none" stroke="#63b8ff" d="M768.79,-175.81C785.91,-163.32 812.2,-139.74 797.76,-121 759.31,-71.15 710.79,-123.21 660.76,-85 642.16,-70.8 630.22,-46.08 623.75,-29.03"/>
<polygon fill="#63b8ff" stroke="#63b8ff" points="626.89,-27.4 620.28,-19.12 620.29,-29.72 626.89,-27.4"/>
</a>
</g>
</g>
<!-- Node31&#45;&gt;Node10 -->
<g id="edge50_Node000031_Node000010" class="edge">
<title>Node31&#45;&gt;Node10</title>
<g id="a_edge50_Node000031_Node000010"><a xlink:title=" ">
<path fill="none" stroke="#63b8ff" d="M684.65,-176.24C614.25,-167.95 503.12,-154.53 397.74,-140.24"/>
<polygon fill="#63b8ff" stroke="#63b8ff" points="397.94,-136.74 387.56,-138.86 397,-143.68 397.94,-136.74"/>
</a>
</g>
</g>
<!-- Node31&#45;&gt;Node29 -->
<g id="edge54_Node000031_Node000029" class="edge">
<title>Node31&#45;&gt;Node29</title>
<g id="a_edge54_Node000031_Node000029"><a xlink:title=" ">
<path fill="none" stroke="#63b8ff" d="M784.51,-175.98C814.7,-167.05 862.33,-152.94 895.85,-143.02"/>
<polygon fill="#63b8ff" stroke="#63b8ff" points="897.18,-146.28 905.77,-140.08 895.19,-139.57 897.18,-146.28"/>
</a>
</g>
</g>
<!-- Node31&#45;&gt;Node32 -->
<g id="edge51_Node000031_Node000032" class="edge">
<title>Node31&#45;&gt;Node32</title>
<g id="a_edge51_Node000031_Node000032"><a xlink:title=" ">
<path fill="none" stroke="#63b8ff" d="M751.79,-175.75C748.54,-168.57 743.84,-158.18 739.8,-149.27"/>
<polygon fill="#63b8ff" stroke="#63b8ff" points="742.96,-147.75 735.64,-140.09 736.58,-150.64 742.96,-147.75"/>
</a>
</g>
</g>
<!-- Node32&#45;&gt;Node7 -->
<g id="edge53_Node000032_Node000007" class="edge">
<title>Node32&#45;&gt;Node7</title>
<g id="a_edge53_Node000032_Node000007"><a xlink:title=" ">
<path fill="none" stroke="#63b8ff" d="M703.55,-120.99C669.78,-110.81 613.11,-93.72 575.57,-82.4"/>
<polygon fill="#63b8ff" stroke="#63b8ff" points="576.58,-79.05 566,-79.52 574.56,-85.75 576.58,-79.05"/>
</a>
</g>
</g>
<!-- Node32&#45;&gt;Node12 -->
<g id="edge52_Node000032_Node000012" class="edge">
<title>Node32&#45;&gt;Node12</title>
<g id="a_edge52_Node000032_Node000012"><a xlink:title=" ">
<path fill="none" stroke="#63b8ff" d="M747.42,-120.85C762.65,-112.26 786.27,-98.47 805.76,-85 823.46,-72.76 824.58,-64.76 843.76,-55 865.08,-44.15 926.23,-28.52 966.18,-18.97"/>
<polygon fill="#63b8ff" stroke="#63b8ff" points="967.16,-22.33 976.09,-16.62 965.55,-15.52 967.16,-22.33"/>
</a>
</g>
</g>
<!-- Node34 -->
<g id="Node000034" class="node">
<title>Node34</title>
<g id="a_Node000034"><a xlink:href="_d_list_base_8h.html" target="_top" xlink:title=" ">
<polygon fill="white" stroke="#666666" points="1662.26,-140 1521.26,-140 1521.26,-121 1662.26,-121 1662.26,-140"/>
<text text-anchor="middle" x="1591.76" y="-128" font-family="Helvetica,sans-Serif" font-size="10.00">Kit/Container/DListBase.h</text>
</a>
</g>
</g>
<!-- Node33&#45;&gt;Node34 -->
<g id="edge57_Node000033_Node000034" class="edge">
<title>Node33&#45;&gt;Node34</title>
<g id="a_edge57_Node000033_Node000034"><a xlink:title=" ">
<path fill="none" stroke="#63b8ff" d="M1374.37,-175.98C1419.36,-166.78 1491.14,-152.09 1539.8,-142.13"/>
<polygon fill="#63b8ff" stroke="#63b8ff" points="1540.72,-145.52 1549.82,-140.08 1539.32,-138.66 1540.72,-145.52"/>
</a>
</g>
</g>
<!-- Node34&#45;&gt;Node26 -->
<g id="edge58_Node000034_Node000026" class="edge">
<title>Node34&#45;&gt;Node26</title>
<g id="a_edge58_Node000034_Node000026"><a xlink:title=" ">
<path fill="none" stroke="#63b8ff" d="M1570.96,-120.99C1546.82,-111.12 1506.77,-94.73 1479.14,-83.43"/>
<polygon fill="#63b8ff" stroke="#63b8ff" points="1480.15,-80.06 1469.57,-79.52 1477.5,-86.54 1480.15,-80.06"/>
</a>
</g>
</g>
<!-- Node35&#45;&gt;Node9 -->
<g id="edge64_Node000035_Node000009" class="edge">
<title>Node35&#45;&gt;Node9</title>
<g id="a_edge64_Node000035_Node000009"><a xlink:title=" ">
<path fill="none" stroke="#63b8ff" d="M1375.13,-240.42C1489.32,-240.38 1741.52,-228.49 1671.76,-121 1623.85,-47.19 1339.31,-20.24 1236.65,-12.84"/>
<polygon fill="#63b8ff" stroke="#63b8ff" points="1236.68,-9.33 1226.46,-12.12 1236.19,-16.31 1236.68,-9.33"/>
</a>
</g>
</g>
<!-- Node35&#45;&gt;Node24 -->
<g id="edge63_Node000035_Node000024" class="edge">
<title>Node35&#45;&gt;Node24</title>
<g id="a_edge63_Node000035_Node000024"><a xlink:title=" ">
<path fill="none" stroke="#63b8ff" d="M1292.67,-230.98C1262.16,-222.05 1213.99,-207.94 1180.09,-198.02"/>
<polygon fill="#63b8ff" stroke="#63b8ff" points="1180.64,-194.53 1170.06,-195.08 1178.68,-201.25 1180.64,-194.53"/>
</a>
</g>
</g>
<!-- Node35&#45;&gt;Node28 -->
<g id="edge62_Node000035_Node000028" class="edge">
<title>Node35&#45;&gt;Node28</title>
<g id="a_edge62_Node000035_Node000028"><a xlink:title=" ">
<path fill="none" stroke="#63b8ff" d="M1342.03,-230.92C1358.91,-223.15 1382.98,-210.54 1400.76,-195 1416.14,-181.55 1429.77,-162.45 1438.54,-148.72"/>
<polygon fill="#63b8ff" stroke="#63b8ff" points="1441.52,-150.55 1443.79,-140.2 1435.56,-146.87 1441.52,-150.55"/>
</a>
</g>
</g>
<!-- Node36&#45;&gt;Node9 -->
<g id="edge66_Node000036_Node000009" class="edge">
<title>Node36&#45;&gt;Node9</title>
<g id="a_edge66_Node000036_Node000009"><a xlink:title=" ">
<path fill="none" stroke="#63b8ff" d="M986.82,-54.99C1042.21,-43.42 1118.72,-27.43 1163.35,-18.11"/>
<polygon fill="#63b8ff" stroke="#63b8ff" points="1164.1,-21.52 1173.17,-16.05 1162.67,-14.67 1164.1,-21.52"/>
</a>
</g>
</g>
<!-- Node36&#45;&gt;Node12 -->
<g id="edge67_Node000036_Node000012" class="edge">
<title>Node36&#45;&gt;Node12</title>
<g id="a_edge67_Node000036_Node000012"><a xlink:title=" ">
<path fill="none" stroke="#63b8ff" d="M939.85,-54.84C952.63,-45.83 969.15,-34.18 982.05,-25.09"/>
<polygon fill="#63b8ff" stroke="#63b8ff" points="984.16,-27.89 990.32,-19.27 980.13,-22.17 984.16,-27.89"/>
</a>
</g>
</g>
<!-- Node37 -->
<g id="Node000037" class="node">
<title>Node37</title>
<g id="a_Node000037"><a xlink:title=" ">
<polygon fill="#e0e0e0" stroke="#999999" points="944.76,-19 894.76,-19 894.76,0 944.76,0 944.76,-19"/>
<text text-anchor="middle" x="919.76" y="-7" font-family="Helvetica,sans-Serif" font-size="10.00">atomic</text>
</a>
</g>
</g>
<!-- Node36&#45;&gt;Node37 -->
<g id="edge68_Node000036_Node000037" class="edge">
<title>Node36&#45;&gt;Node37</title>
<g id="a_edge68_Node000036_Node000037"><a xlink:title=" ">
<path fill="none" stroke="#63b8ff" d="M919.76,-54.84C919.76,-47.21 919.76,-37.7 919.76,-29.45"/>
<polygon fill="#63b8ff" stroke="#63b8ff" points="923.26,-29.27 919.76,-19.27 916.26,-29.27 923.26,-29.27"/>
</a>
</g>
</g>
<!-- Node38&#45;&gt;Node7 -->
<g id="edge70_Node000038_Node000007" class="edge">
<title>Node38&#45;&gt;Node7</title>
<g id="a_edge70_Node000038_Node000007"><a xlink:title=" ">
<path fill="none" stroke="#63b8ff" d="M546.76,-340.82C546.76,-322.48 546.76,-278.44 546.76,-241.5 546.76,-241.5 546.76,-241.5 546.76,-184.5 546.76,-151 542.81,-112.12 540.15,-89.66"/>
<polygon fill="#63b8ff" stroke="#63b8ff" points="543.59,-89.02 538.9,-79.52 536.65,-89.88 543.59,-89.02"/>
</a>
</g>
</g>
<!-- Node39 -->
<g id="Node000039" class="node">
<title>Node39</title>
<g id="a_Node000039"><a xlink:href="_i_signable_8h.html" target="_top" xlink:title=" ">
<polygon fill="white" stroke="#666666" points="143.26,-305 16.26,-305 16.26,-286 143.26,-286 143.26,-305"/>
<text text-anchor="middle" x="79.76" y="-293" font-family="Helvetica,sans-Serif" font-size="10.00">Kit/System/ISignable.h</text>
</a>
</g>
</g>
<!-- Node38&#45;&gt;Node39 -->
<g id="edge71_Node000038_Node000039" class="edge">
<title>Node38&#45;&gt;Node39</title>
<g id="a_edge71_Node000038_Node000039"><a xlink:title=" ">
<path fill="none" stroke="#63b8ff" d="M478.1,-341.71C391.31,-331.86 242.52,-314.97 153.42,-304.86"/>
<polygon fill="#63b8ff" stroke="#63b8ff" points="153.72,-301.37 143.39,-303.72 152.93,-308.33 153.72,-301.37"/>
</a>
</g>
</g>
<!-- Node40&#45;&gt;Node20 -->
<g id="edge74_Node000040_Node000020" class="edge">
<title>Node40&#45;&gt;Node20</title>
<g id="a_edge74_Node000040_Node000020"><a xlink:title=" ">
<path fill="none" stroke="#63b8ff" d="M786.61,-395.84C784.89,-388.13 782.75,-378.49 780.9,-370.17"/>
<polygon fill="#63b8ff" stroke="#63b8ff" points="784.29,-369.27 778.7,-360.27 777.46,-370.79 784.29,-369.27"/>
</a>
</g>
</g>
<!-- Node40&#45;&gt;Node22 -->
<g id="edge75_Node000040_Node000022" class="edge">
<title>Node40&#45;&gt;Node22</title>
<g id="a_edge75_Node000040_Node000022"><a xlink:title=" ">
<path fill="none" stroke="#63b8ff" d="M813.68,-395.85C850.6,-374.03 921.01,-332.41 957.88,-310.61"/>
<polygon fill="#63b8ff" stroke="#63b8ff" points="960.09,-313.37 966.92,-305.27 956.53,-307.35 960.09,-313.37"/>
</a>
</g>
</g>
</g>
</svg>
