<?xml version="1.0" encoding="UTF-8" standalone="no"?>
<!DOCTYPE svg PUBLIC "-//W3C//DTD SVG 1.1//EN"
 "http://www.w3.org/Graphics/SVG/1.1/DTD/svg11.dtd">
<!-- Generated by graphviz version 2.43.0 (0)
 -->
<!-- Title: Kit/Io/Types.h Pages: 1 -->
<svg width="2668pt" height="291pt"
 viewBox="0.00 0.00 2668.00 291.00" xmlns="http://www.w3.org/2000/svg" xmlns:xlink="http://www.w3.org/1999/xlink">
<g id="graph0" class="graph" transform="scale(1 1) rotate(0) translate(4 287)">
<title>Kit/Io/Types.h</title>
<!-- Node1 -->
<g id="Node000001" class="node">
<title>Node1</title>
<g id="a_Node000001"><a xlink:title=" ">
<polygon fill="#999999" stroke="#666666" points="1814.5,-283 1732.5,-283 1732.5,-264 1814.5,-264 1814.5,-283"/>
<text text-anchor="middle" x="1773.5" y="-271" font-family="Helvetica,sans-Serif" font-size="10.00">Kit/Io/Types.h</text>
</a>
</g>
</g>
<!-- Node2 -->
<g id="Node000002" class="node">
<title>Node2</title>
<g id="a_Node000002"><a xlink:href="_i_position_8h.html" target="_top" xlink:title=" ">
<polygon fill="white" stroke="#666666" points="356.5,-222.5 240.5,-222.5 240.5,-203.5 356.5,-203.5 356.5,-222.5"/>
<text text-anchor="middle" x="298.5" y="-210.5" font-family="Helvetica,sans-Serif" font-size="10.00">Kit/Io/File/IPosition.h</text>
</a>
</g>
</g>
<!-- Node1&#45;&gt;Node2 -->
<g id="edge1_Node000001_Node000002" class="edge">
<title>Node1&#45;&gt;Node2</title>
<g id="a_edge1_Node000001_Node000002"><a xlink:title=" ">
<path fill="none" stroke="#63b8ff" d="M1722.1,-270.82C1556.38,-265.35 1021.2,-247.31 578.5,-228 501.79,-224.65 413.3,-220.12 356.67,-217.13"/>
<polygon fill="#63b8ff" stroke="#63b8ff" points="1722.37,-274.33 1732.48,-271.16 1722.6,-267.33 1722.37,-274.33"/>
</a>
</g>
</g>
<!-- Node9 -->
<g id="Node000009" class="node">
<title>Node9</title>
<g id="a_Node000009"><a xlink:href="_output_8h.html" target="_top" xlink:title=" ">
<polygon fill="white" stroke="#666666" points="107,-90.5 0,-90.5 0,-71.5 107,-71.5 107,-90.5"/>
<text text-anchor="middle" x="53.5" y="-78.5" font-family="Helvetica,sans-Serif" font-size="10.00">Kit/Io/File/Output.h</text>
</a>
</g>
</g>
<!-- Node1&#45;&gt;Node9 -->
<g id="edge10_Node000001_Node000009" class="edge">
<title>Node1&#45;&gt;Node9</title>
<g id="a_edge10_Node000001_Node000009"><a xlink:title=" ">
<path fill="none" stroke="#63b8ff" d="M1722.19,-272.48C1471.04,-272.2 377.53,-268.61 231.5,-228 173.98,-212 159.52,-201.21 114.5,-162 89.34,-140.09 67.77,-106.34 58.44,-90.62"/>
<polygon fill="#63b8ff" stroke="#63b8ff" points="1722.48,-275.98 1732.49,-272.49 1722.49,-268.98 1722.48,-275.98"/>
</a>
</g>
</g>
<!-- Node10 -->
<g id="Node000010" class="node">
<title>Node10</title>
<g id="a_Node000010"><a xlink:href="_system_8h.html" target="_top" xlink:title=" ">
<polygon fill="white" stroke="#666666" points="1586,-222.5 1475,-222.5 1475,-203.5 1586,-203.5 1586,-222.5"/>
<text text-anchor="middle" x="1530.5" y="-210.5" font-family="Helvetica,sans-Serif" font-size="10.00">Kit/Io/File/System.h</text>
</a>
</g>
</g>
<!-- Node1&#45;&gt;Node10 -->
<g id="edge11_Node000001_Node000010" class="edge">
<title>Node1&#45;&gt;Node10</title>
<g id="a_edge11_Node000001_Node000010"><a xlink:title=" ">
<path fill="none" stroke="#63b8ff" d="M1728.26,-261.61C1681.3,-250.3 1608.82,-232.85 1565.88,-222.52"/>
<polygon fill="#63b8ff" stroke="#63b8ff" points="1727.62,-265.06 1738.17,-263.99 1729.26,-258.25 1727.62,-265.06"/>
</a>
</g>
</g>
<!-- Node15 -->
<g id="Node000015" class="node">
<title>Node15</title>
<g id="a_Node000015"><a xlink:href="_i_input_8h.html" target="_top" xlink:title=" ">
<polygon fill="white" stroke="#666666" points="669.5,-222.5 587.5,-222.5 587.5,-203.5 669.5,-203.5 669.5,-222.5"/>
<text text-anchor="middle" x="628.5" y="-210.5" font-family="Helvetica,sans-Serif" font-size="10.00">Kit/Io/IInput.h</text>
</a>
</g>
</g>
<!-- Node1&#45;&gt;Node15 -->
<g id="edge17_Node000001_Node000015" class="edge">
<title>Node1&#45;&gt;Node15</title>
<g id="a_edge17_Node000001_Node000015"><a xlink:title=" ">
<path fill="none" stroke="#63b8ff" d="M1722.27,-270.07C1585.35,-263.53 1199.49,-244.97 878.5,-228 804.92,-224.11 719.18,-219.23 669.64,-216.38"/>
<polygon fill="#63b8ff" stroke="#63b8ff" points="1722.3,-273.57 1732.46,-270.55 1722.64,-266.58 1722.3,-273.57"/>
</a>
</g>
</g>
<!-- Node26 -->
<g id="Node000026" class="node">
<title>Node26</title>
<g id="a_Node000026"><a xlink:href="_i_output_8h.html" target="_top" xlink:title=" ">
<polygon fill="white" stroke="#666666" points="1243.5,-222.5 1153.5,-222.5 1153.5,-203.5 1243.5,-203.5 1243.5,-222.5"/>
<text text-anchor="middle" x="1198.5" y="-210.5" font-family="Helvetica,sans-Serif" font-size="10.00">Kit/Io/IOutput.h</text>
</a>
</g>
</g>
<!-- Node1&#45;&gt;Node26 -->
<g id="edge29_Node000001_Node000026" class="edge">
<title>Node1&#45;&gt;Node26</title>
<g id="a_edge29_Node000001_Node000026"><a xlink:title=" ">
<path fill="none" stroke="#63b8ff" d="M1722.18,-267.28C1610.98,-255.97 1349.33,-229.35 1243.8,-218.61"/>
<polygon fill="#63b8ff" stroke="#63b8ff" points="1721.84,-270.76 1732.15,-268.29 1722.55,-263.8 1721.84,-270.76"/>
</a>
</g>
</g>
<!-- Node36 -->
<g id="Node000036" class="node">
<title>Node36</title>
<g id="a_Node000036"><a xlink:href="_stream_driver_8h.html" target="_top" xlink:title=" ">
<polygon fill="white" stroke="#666666" points="1011.5,-228 887.5,-228 887.5,-198 1011.5,-198 1011.5,-228"/>
<text text-anchor="start" x="895.5" y="-216" font-family="Helvetica,sans-Serif" font-size="10.00">Kit/Io/Serial/ST/M32F4</text>
<text text-anchor="middle" x="949.5" y="-205" font-family="Helvetica,sans-Serif" font-size="10.00">/StreamDriver.h</text>
</a>
</g>
</g>
<!-- Node1&#45;&gt;Node36 -->
<g id="edge41_Node000001_Node000036" class="edge">
<title>Node1&#45;&gt;Node36</title>
<g id="a_edge41_Node000001_Node000036"><a xlink:title=" ">
<path fill="none" stroke="#63b8ff" d="M1722.06,-268.88C1614.73,-261.32 1359.03,-243.29 1144.5,-228 1100.15,-224.84 1050.13,-221.25 1011.85,-218.49"/>
<polygon fill="#63b8ff" stroke="#63b8ff" points="1722.07,-272.39 1732.29,-269.6 1722.56,-265.41 1722.07,-272.39"/>
</a>
</g>
</g>
<!-- Node37 -->
<g id="Node000037" class="node">
<title>Node37</title>
<g id="a_Node000037"><a xlink:href="_connector_8h.html" target="_top" xlink:title=" ">
<polygon fill="white" stroke="#666666" points="1981.5,-222.5 1843.5,-222.5 1843.5,-203.5 1981.5,-203.5 1981.5,-222.5"/>
<text text-anchor="middle" x="1912.5" y="-210.5" font-family="Helvetica,sans-Serif" font-size="10.00">Kit/Io/Socket/Connector.h</text>
</a>
</g>
</g>
<!-- Node1&#45;&gt;Node37 -->
<g id="edge43_Node000001_Node000037" class="edge">
<title>Node1&#45;&gt;Node37</title>
<g id="a_edge43_Node000001_Node000037"><a xlink:title=" ">
<path fill="none" stroke="#63b8ff" d="M1803.01,-260.08C1829.86,-248.78 1868.78,-232.4 1892.26,-222.52"/>
<polygon fill="#63b8ff" stroke="#63b8ff" points="1801.57,-256.89 1793.71,-263.99 1804.29,-263.34 1801.57,-256.89"/>
</a>
</g>
</g>
<!-- Node38 -->
<g id="Node000038" class="node">
<title>Node38</title>
<g id="a_Node000038"><a xlink:href="_i_listener_client_8h.html" target="_top" xlink:title=" ">
<polygon fill="white" stroke="#666666" points="2197.5,-222.5 2037.5,-222.5 2037.5,-203.5 2197.5,-203.5 2197.5,-222.5"/>
<text text-anchor="middle" x="2117.5" y="-210.5" font-family="Helvetica,sans-Serif" font-size="10.00">Kit/Io/Socket/IListenerClient.h</text>
</a>
</g>
</g>
<!-- Node1&#45;&gt;Node38 -->
<g id="edge44_Node000001_Node000038" class="edge">
<title>Node1&#45;&gt;Node38</title>
<g id="a_edge44_Node000001_Node000038"><a xlink:title=" ">
<path fill="none" stroke="#63b8ff" d="M1824.73,-263.79C1890.13,-252.67 2002.54,-233.55 2067.39,-222.52"/>
<polygon fill="#63b8ff" stroke="#63b8ff" points="1823.92,-260.37 1814.65,-265.5 1825.1,-267.28 1823.92,-260.37"/>
</a>
</g>
</g>
<!-- Node40 -->
<g id="Node000040" class="node">
<title>Node40</title>
<g id="a_Node000040"><a xlink:href="_listener_runnable_8h.html" target="_top" xlink:title=" ">
<polygon fill="white" stroke="#666666" points="2146.5,-90.5 1972.5,-90.5 1972.5,-71.5 2146.5,-71.5 2146.5,-90.5"/>
<text text-anchor="middle" x="2059.5" y="-78.5" font-family="Helvetica,sans-Serif" font-size="10.00">Kit/Io/Socket/ListenerRunnable.h</text>
</a>
</g>
</g>
<!-- Node1&#45;&gt;Node40 -->
<g id="edge51_Node000001_Node000040" class="edge">
<title>Node1&#45;&gt;Node40</title>
<g id="a_edge51_Node000001_Node000040"><a xlink:title=" ">
<path fill="none" stroke="#63b8ff" d="M1824.7,-267.32C1880.52,-260.77 1965.26,-247.89 1990.5,-228 2027.51,-198.84 2015.3,-174.57 2035.5,-132 2042.35,-117.56 2050.41,-100.82 2055.23,-90.84"/>
<polygon fill="#63b8ff" stroke="#63b8ff" points="1824.17,-263.86 1814.64,-268.47 1824.97,-270.81 1824.17,-263.86"/>
</a>
</g>
</g>
<!-- Node41 -->
<g id="Node000041" class="node">
<title>Node41</title>
<g id="a_Node000041"><a xlink:href="_listener_client_sync_8h.html" target="_top" xlink:title=" ">
<polygon fill="white" stroke="#666666" points="2365.5,-162 2217.5,-162 2217.5,-132 2365.5,-132 2365.5,-162"/>
<text text-anchor="start" x="2225.5" y="-150" font-family="Helvetica,sans-Serif" font-size="10.00">Kit/Io/Socket/ListenerClient</text>
<text text-anchor="middle" x="2291.5" y="-139" font-family="Helvetica,sans-Serif" font-size="10.00">Sync.h</text>
</a>
</g>
</g>
<!-- Node1&#45;&gt;Node41 -->
<g id="edge50_Node000001_Node000041" class="edge">
<title>Node1&#45;&gt;Node41</title>
<g id="a_edge50_Node000001_Node000041"><a xlink:title=" ">
<path fill="none" stroke="#63b8ff" d="M1824.99,-272.6C1963.89,-272.35 2338.4,-267.94 2375.5,-228 2398.05,-203.73 2356.93,-177.62 2324.66,-162.05"/>
<polygon fill="#63b8ff" stroke="#63b8ff" points="1824.61,-269.11 1814.62,-272.62 1824.62,-276.11 1824.61,-269.11"/>
</a>
</g>
</g>
<!-- Node42 -->
<g id="Node000042" class="node">
<title>Node42</title>
<g id="a_Node000042"><a xlink:href="_i_listener_client_request_8h.html" target="_top" xlink:title=" ">
<polygon fill="white" stroke="#666666" points="2367,-228 2216,-228 2216,-198 2367,-198 2367,-228"/>
<text text-anchor="start" x="2224" y="-216" font-family="Helvetica,sans-Serif" font-size="10.00">Kit/Io/Socket/IListenerClient</text>
<text text-anchor="middle" x="2291.5" y="-205" font-family="Helvetica,sans-Serif" font-size="10.00">Request.h</text>
</a>
</g>
</g>
<!-- Node1&#45;&gt;Node42 -->
<g id="edge48_Node000001_Node000042" class="edge">
<title>Node1&#45;&gt;Node42</title>
<g id="a_edge48_Node000001_Node000042"><a xlink:title=" ">
<path fill="none" stroke="#63b8ff" d="M1825.25,-268.21C1906.58,-261.23 2069.22,-246.34 2206.5,-228 2209.61,-227.58 2212.79,-227.14 2215.99,-226.68"/>
<polygon fill="#63b8ff" stroke="#63b8ff" points="1824.46,-264.76 1814.79,-269.1 1825.05,-271.74 1824.46,-264.76"/>
</a>
</g>
</g>
<!-- Node43 -->
<g id="Node000043" class="node">
<title>Node43</title>
<g id="a_Node000043"><a xlink:href="_socket_2_posix_2_fdio_8h.html" target="_top" xlink:title=" ">
<polygon fill="white" stroke="#666666" points="2531,-228 2424,-228 2424,-198 2531,-198 2531,-228"/>
<text text-anchor="start" x="2432" y="-216" font-family="Helvetica,sans-Serif" font-size="10.00">Kit/Io/Socket/Posix</text>
<text text-anchor="middle" x="2477.5" y="-205" font-family="Helvetica,sans-Serif" font-size="10.00">/Fdio.h</text>
</a>
</g>
</g>
<!-- Node1&#45;&gt;Node43 -->
<g id="edge52_Node000001_Node000043" class="edge">
<title>Node1&#45;&gt;Node43</title>
<g id="a_edge52_Node000001_Node000043"><a xlink:title=" ">
<path fill="none" stroke="#63b8ff" d="M1824.62,-271.23C1932.93,-268.04 2193.32,-257.68 2409.5,-228 2414.16,-227.36 2418.97,-226.59 2423.79,-225.75"/>
<polygon fill="#63b8ff" stroke="#63b8ff" points="1824.51,-267.73 1814.62,-271.52 1824.71,-274.73 1824.51,-267.73"/>
</a>
</g>
</g>
<!-- Node44 -->
<g id="Node000044" class="node">
<title>Node44</title>
<g id="a_Node000044"><a xlink:href="_socket_2_win32_2_fdio_8h.html" target="_top" xlink:title=" ">
<polygon fill="white" stroke="#666666" points="2660,-228 2549,-228 2549,-198 2660,-198 2660,-228"/>
<text text-anchor="start" x="2557" y="-216" font-family="Helvetica,sans-Serif" font-size="10.00">Kit/Io/Socket/Win32</text>
<text text-anchor="middle" x="2604.5" y="-205" font-family="Helvetica,sans-Serif" font-size="10.00">/Fdio.h</text>
</a>
</g>
</g>
<!-- Node1&#45;&gt;Node44 -->
<g id="edge53_Node000001_Node000044" class="edge">
<title>Node1&#45;&gt;Node44</title>
<g id="a_edge53_Node000001_Node000044"><a xlink:title=" ">
<path fill="none" stroke="#63b8ff" d="M1825.21,-272.3C1949.21,-271.21 2273.11,-264.77 2540.5,-228 2543.2,-227.63 2545.96,-227.2 2548.75,-226.74"/>
<polygon fill="#63b8ff" stroke="#63b8ff" points="1824.85,-268.8 1814.88,-272.38 1824.91,-275.8 1824.85,-268.8"/>
</a>
</g>
</g>
<!-- Node45 -->
<g id="Node000045" class="node">
<title>Node45</title>
<g id="a_Node000045"><a xlink:href="_stdio_2_posix_2_fdio_8h.html" target="_top" xlink:title=" ">
<polygon fill="white" stroke="#666666" points="1703,-228 1604,-228 1604,-198 1703,-198 1703,-228"/>
<text text-anchor="start" x="1612" y="-216" font-family="Helvetica,sans-Serif" font-size="10.00">Kit/Io/Stdio/Posix</text>
<text text-anchor="middle" x="1653.5" y="-205" font-family="Helvetica,sans-Serif" font-size="10.00">/Fdio.h</text>
</a>
</g>
</g>
<!-- Node1&#45;&gt;Node45 -->
<g id="edge54_Node000001_Node000045" class="edge">
<title>Node1&#45;&gt;Node45</title>
<g id="a_edge54_Node000001_Node000045"><a xlink:title=" ">
<path fill="none" stroke="#63b8ff" d="M1747.02,-259.59C1727.94,-250.29 1702.22,-237.75 1682.58,-228.18"/>
<polygon fill="#63b8ff" stroke="#63b8ff" points="1745.53,-262.76 1756.05,-263.99 1748.6,-256.47 1745.53,-262.76"/>
</a>
</g>
</g>
<!-- Node46 -->
<g id="Node000046" class="node">
<title>Node46</title>
<g id="a_Node000046"><a xlink:href="_stdio_2_win32_2_fdio_8h.html" target="_top" xlink:title=" ">
<polygon fill="white" stroke="#666666" points="1825.5,-228 1721.5,-228 1721.5,-198 1825.5,-198 1825.5,-228"/>
<text text-anchor="start" x="1729.5" y="-216" font-family="Helvetica,sans-Serif" font-size="10.00">Kit/Io/Stdio/Win32</text>
<text text-anchor="middle" x="1773.5" y="-205" font-family="Helvetica,sans-Serif" font-size="10.00">/Fdio.h</text>
</a>
</g>
</g>
<!-- Node1&#45;&gt;Node46 -->
<g id="edge56_Node000001_Node000046" class="edge">
<title>Node1&#45;&gt;Node46</title>
<g id="a_edge56_Node000001_Node000046"><a xlink:title=" ">
<path fill="none" stroke="#63b8ff" d="M1773.5,-253.65C1773.5,-245.36 1773.5,-235.78 1773.5,-228.11"/>
<polygon fill="#63b8ff" stroke="#63b8ff" points="1770,-253.87 1773.5,-263.87 1777,-253.87 1770,-253.87"/>
</a>
</g>
</g>
<!-- Node3 -->
<g id="Node000003" class="node">
<title>Node3</title>
<g id="a_Node000003"><a xlink:href="_file_2_i_input_8h.html" target="_top" xlink:title=" ">
<polygon fill="white" stroke="#666666" points="225.5,-156.5 123.5,-156.5 123.5,-137.5 225.5,-137.5 225.5,-156.5"/>
<text text-anchor="middle" x="174.5" y="-144.5" font-family="Helvetica,sans-Serif" font-size="10.00">Kit/Io/File/IInput.h</text>
</a>
</g>
</g>
<!-- Node2&#45;&gt;Node3 -->
<g id="edge2_Node000002_Node000003" class="edge">
<title>Node2&#45;&gt;Node3</title>
<g id="a_edge2_Node000002_Node000003"><a xlink:title=" ">
<path fill="none" stroke="#63b8ff" d="M272.72,-198.69C248.29,-186.09 212.31,-167.51 191.35,-156.7"/>
<polygon fill="#63b8ff" stroke="#63b8ff" points="271.29,-201.89 281.78,-203.37 274.5,-195.67 271.29,-201.89"/>
</a>
</g>
</g>
<!-- Node8 -->
<g id="Node000008" class="node">
<title>Node8</title>
<g id="a_Node000008"><a xlink:href="_file_2_i_output_8h.html" target="_top" xlink:title=" ">
<polygon fill="white" stroke="#666666" points="353.5,-156.5 243.5,-156.5 243.5,-137.5 353.5,-137.5 353.5,-156.5"/>
<text text-anchor="middle" x="298.5" y="-144.5" font-family="Helvetica,sans-Serif" font-size="10.00">Kit/Io/File/IOutput.h</text>
</a>
</g>
</g>
<!-- Node2&#45;&gt;Node8 -->
<g id="edge7_Node000002_Node000008" class="edge">
<title>Node2&#45;&gt;Node8</title>
<g id="a_edge7_Node000002_Node000008"><a xlink:title=" ">
<path fill="none" stroke="#63b8ff" d="M298.5,-193.08C298.5,-181.13 298.5,-166.22 298.5,-156.91"/>
<polygon fill="#63b8ff" stroke="#63b8ff" points="295,-193.37 298.5,-203.37 302,-193.37 295,-193.37"/>
</a>
</g>
</g>
<!-- Node4 -->
<g id="Node000004" class="node">
<title>Node4</title>
<g id="a_Node000004"><a xlink:href="_file_2_i_input_output_8h.html" target="_top" xlink:title=" ">
<polygon fill="white" stroke="#666666" points="377,-90.5 242,-90.5 242,-71.5 377,-71.5 377,-90.5"/>
<text text-anchor="middle" x="309.5" y="-78.5" font-family="Helvetica,sans-Serif" font-size="10.00">Kit/Io/File/IInputOutput.h</text>
</a>
</g>
</g>
<!-- Node3&#45;&gt;Node4 -->
<g id="edge3_Node000003_Node000004" class="edge">
<title>Node3&#45;&gt;Node4</title>
<g id="a_edge3_Node000003_Node000004"><a xlink:title=" ">
<path fill="none" stroke="#63b8ff" d="M201.86,-133.03C228.47,-120.42 268.13,-101.61 291.15,-90.7"/>
<polygon fill="#63b8ff" stroke="#63b8ff" points="200.24,-129.92 192.71,-137.37 203.24,-136.25 200.24,-129.92"/>
</a>
</g>
</g>
<!-- Node7 -->
<g id="Node000007" class="node">
<title>Node7</title>
<g id="a_Node000007"><a xlink:href="_input_8h.html" target="_top" xlink:title=" ">
<polygon fill="white" stroke="#666666" points="224,-90.5 125,-90.5 125,-71.5 224,-71.5 224,-90.5"/>
<text text-anchor="middle" x="174.5" y="-78.5" font-family="Helvetica,sans-Serif" font-size="10.00">Kit/Io/File/Input.h</text>
</a>
</g>
</g>
<!-- Node3&#45;&gt;Node7 -->
<g id="edge6_Node000003_Node000007" class="edge">
<title>Node3&#45;&gt;Node7</title>
<g id="a_edge6_Node000003_Node000007"><a xlink:title=" ">
<path fill="none" stroke="#63b8ff" d="M174.5,-127.08C174.5,-115.13 174.5,-100.22 174.5,-90.91"/>
<polygon fill="#63b8ff" stroke="#63b8ff" points="171,-127.37 174.5,-137.37 178,-127.37 171,-127.37"/>
</a>
</g>
</g>
<!-- Node5 -->
<g id="Node000005" class="node">
<title>Node5</title>
<g id="a_Node000005"><a xlink:href="_file_2_input_output_8h.html" target="_top" xlink:title=" ">
<polygon fill="white" stroke="#666666" points="440.5,-24.5 308.5,-24.5 308.5,-5.5 440.5,-5.5 440.5,-24.5"/>
<text text-anchor="middle" x="374.5" y="-12.5" font-family="Helvetica,sans-Serif" font-size="10.00">Kit/Io/File/InputOutput.h</text>
</a>
</g>
</g>
<!-- Node4&#45;&gt;Node5 -->
<g id="edge4_Node000004_Node000005" class="edge">
<title>Node4&#45;&gt;Node5</title>
<g id="a_edge4_Node000004_Node000005"><a xlink:title=" ">
<path fill="none" stroke="#63b8ff" d="M325.42,-64.33C338,-51.94 355.12,-35.09 365.46,-24.91"/>
<polygon fill="#63b8ff" stroke="#63b8ff" points="322.94,-61.86 318.27,-71.37 327.85,-66.85 322.94,-61.86"/>
</a>
</g>
</g>
<!-- Node6 -->
<g id="Node000006" class="node">
<title>Node6</title>
<g id="a_Node000006"><a xlink:href="_file_2_null_8h.html" target="_top" xlink:title=" ">
<polygon fill="white" stroke="#666666" points="290.5,-24.5 196.5,-24.5 196.5,-5.5 290.5,-5.5 290.5,-24.5"/>
<text text-anchor="middle" x="243.5" y="-12.5" font-family="Helvetica,sans-Serif" font-size="10.00">Kit/Io/File/Null.h</text>
</a>
</g>
</g>
<!-- Node4&#45;&gt;Node6 -->
<g id="edge5_Node000004_Node000006" class="edge">
<title>Node4&#45;&gt;Node6</title>
<g id="a_edge5_Node000004_Node000006"><a xlink:title=" ">
<path fill="none" stroke="#63b8ff" d="M293.34,-64.33C280.56,-51.94 263.18,-35.09 252.68,-24.91"/>
<polygon fill="#63b8ff" stroke="#63b8ff" points="290.98,-66.92 300.6,-71.37 295.86,-61.89 290.98,-66.92"/>
</a>
</g>
</g>
<!-- Node8&#45;&gt;Node4 -->
<g id="edge8_Node000008_Node000004" class="edge">
<title>Node8&#45;&gt;Node4</title>
<g id="a_edge8_Node000008_Node000004"><a xlink:title=" ">
<path fill="none" stroke="#63b8ff" d="M301.69,-127.45C303.75,-115.43 306.35,-100.32 307.97,-90.91"/>
<polygon fill="#63b8ff" stroke="#63b8ff" points="298.23,-126.92 299.98,-137.37 305.13,-128.11 298.23,-126.92"/>
</a>
</g>
</g>
<!-- Node8&#45;&gt;Node9 -->
<g id="edge9_Node000008_Node000009" class="edge">
<title>Node8&#45;&gt;Node9</title>
<g id="a_edge9_Node000008_Node000009"><a xlink:title=" ">
<path fill="none" stroke="#63b8ff" d="M255.87,-134.86C207.54,-122.24 129.82,-101.94 86.09,-90.51"/>
<polygon fill="#63b8ff" stroke="#63b8ff" points="255.15,-138.29 265.71,-137.44 256.92,-131.52 255.15,-138.29"/>
</a>
</g>
</g>
<!-- Node11 -->
<g id="Node000011" class="node">
<title>Node11</title>
<g id="a_Node000011"><a xlink:href="_dir_walker_8h.html" target="_top" xlink:title=" ">
<polygon fill="white" stroke="#666666" points="1675,-90.5 1554,-90.5 1554,-71.5 1675,-71.5 1675,-90.5"/>
<text text-anchor="middle" x="1614.5" y="-78.5" font-family="Helvetica,sans-Serif" font-size="10.00">Kit/Io/File/DirWalker.h</text>
</a>
</g>
</g>
<!-- Node10&#45;&gt;Node11 -->
<g id="edge12_Node000010_Node000011" class="edge">
<title>Node10&#45;&gt;Node11</title>
<g id="a_edge12_Node000010_Node000011"><a xlink:title=" ">
<path fill="none" stroke="#63b8ff" d="M1530.2,-192.9C1530.78,-175.72 1533.83,-150.43 1545.5,-132 1557.53,-113 1579.6,-98.94 1595.55,-90.65"/>
<polygon fill="#63b8ff" stroke="#63b8ff" points="1526.69,-193.28 1530.11,-203.31 1533.69,-193.34 1526.69,-193.28"/>
</a>
</g>
</g>
<!-- Node12 -->
<g id="Node000012" class="node">
<title>Node12</title>
<g id="a_Node000012"><a xlink:href="_i_dir_traverser_8h.html" target="_top" xlink:title=" ">
<polygon fill="white" stroke="#666666" points="1690.5,-156.5 1554.5,-156.5 1554.5,-137.5 1690.5,-137.5 1690.5,-156.5"/>
<text text-anchor="middle" x="1622.5" y="-144.5" font-family="Helvetica,sans-Serif" font-size="10.00">Kit/Io/File/IDirTraverser.h</text>
</a>
</g>
</g>
<!-- Node10&#45;&gt;Node12 -->
<g id="edge13_Node000010_Node000012" class="edge">
<title>Node10&#45;&gt;Node12</title>
<g id="a_edge13_Node000010_Node000012"><a xlink:title=" ">
<path fill="none" stroke="#63b8ff" d="M1551.58,-197.33C1569.63,-184.78 1595,-167.13 1610,-156.7"/>
<polygon fill="#63b8ff" stroke="#63b8ff" points="1549.12,-194.78 1542.91,-203.37 1553.12,-200.53 1549.12,-194.78"/>
</a>
</g>
</g>
<!-- Node13 -->
<g id="Node000013" class="node">
<title>Node13</title>
<g id="a_Node000013"><a xlink:href="_file_2_posix_2_fdio_8h.html" target="_top" xlink:title=" ">
<polygon fill="white" stroke="#666666" points="1834,-156.5 1709,-156.5 1709,-137.5 1834,-137.5 1834,-156.5"/>
<text text-anchor="middle" x="1771.5" y="-144.5" font-family="Helvetica,sans-Serif" font-size="10.00">Kit/Io/File/Posix/Fdio.h</text>
</a>
</g>
</g>
<!-- Node10&#45;&gt;Node13 -->
<g id="edge15_Node000010_Node000013" class="edge">
<title>Node10&#45;&gt;Node13</title>
<g id="a_edge15_Node000010_Node000013"><a xlink:title=" ">
<path fill="none" stroke="#63b8ff" d="M1572.67,-200.8C1620.11,-188.2 1696.13,-168.01 1739.13,-156.6"/>
<polygon fill="#63b8ff" stroke="#63b8ff" points="1571.77,-197.42 1563,-203.37 1573.57,-204.18 1571.77,-197.42"/>
</a>
</g>
</g>
<!-- Node14 -->
<g id="Node000014" class="node">
<title>Node14</title>
<g id="a_Node000014"><a xlink:href="_file_2_win32_2_fdio_8h.html" target="_top" xlink:title=" ">
<polygon fill="white" stroke="#666666" points="1981,-156.5 1852,-156.5 1852,-137.5 1981,-137.5 1981,-156.5"/>
<text text-anchor="middle" x="1916.5" y="-144.5" font-family="Helvetica,sans-Serif" font-size="10.00">Kit/Io/File/Win32/Fdio.h</text>
</a>
</g>
</g>
<!-- Node10&#45;&gt;Node14 -->
<g id="edge16_Node000010_Node000014" class="edge">
<title>Node10&#45;&gt;Node14</title>
<g id="a_edge16_Node000010_Node000014"><a xlink:title=" ">
<path fill="none" stroke="#63b8ff" d="M1577.48,-201.32C1583.2,-200.14 1588.97,-199 1594.5,-198 1704.08,-178.09 1732.65,-180.36 1842.5,-162 1852.43,-160.34 1863.08,-158.41 1873.12,-156.53"/>
<polygon fill="#63b8ff" stroke="#63b8ff" points="1576.36,-197.98 1567.3,-203.48 1577.81,-204.83 1576.36,-197.98"/>
</a>
</g>
</g>
<!-- Node12&#45;&gt;Node11 -->
<g id="edge14_Node000012_Node000011" class="edge">
<title>Node12&#45;&gt;Node11</title>
<g id="a_edge14_Node000012_Node000011"><a xlink:title=" ">
<path fill="none" stroke="#63b8ff" d="M1620.14,-127.08C1618.64,-115.13 1616.78,-100.22 1615.61,-90.91"/>
<polygon fill="#63b8ff" stroke="#63b8ff" points="1616.71,-127.88 1621.42,-137.37 1623.65,-127.01 1616.71,-127.88"/>
</a>
</g>
</g>
<!-- Node15&#45;&gt;Node3 -->
<g id="edge18_Node000015_Node000003" class="edge">
<title>Node15&#45;&gt;Node3</title>
<g id="a_edge18_Node000015_Node000003"><a xlink:title=" ">
<path fill="none" stroke="#63b8ff" d="M577.28,-207.2C501.87,-199.75 356.68,-183.95 234.5,-162 225.97,-160.47 216.83,-158.5 208.33,-156.53"/>
<polygon fill="#63b8ff" stroke="#63b8ff" points="577.16,-210.71 587.45,-208.2 577.84,-203.74 577.16,-210.71"/>
</a>
</g>
</g>
<!-- Node16 -->
<g id="Node000016" class="node">
<title>Node16</title>
<g id="a_Node000016"><a xlink:href="_i_input_output_8h.html" target="_top" xlink:title=" ">
<polygon fill="white" stroke="#666666" points="951,-156.5 836,-156.5 836,-137.5 951,-137.5 951,-156.5"/>
<text text-anchor="middle" x="893.5" y="-144.5" font-family="Helvetica,sans-Serif" font-size="10.00">Kit/Io/IInputOutput.h</text>
</a>
</g>
</g>
<!-- Node15&#45;&gt;Node16 -->
<g id="edge19_Node000015_Node000016" class="edge">
<title>Node15&#45;&gt;Node16</title>
<g id="a_edge19_Node000015_Node000016"><a xlink:title=" ">
<path fill="none" stroke="#63b8ff" d="M673.96,-201.02C726.18,-188.41 810.76,-167.98 858.25,-156.51"/>
<polygon fill="#63b8ff" stroke="#63b8ff" points="672.86,-197.69 663.96,-203.44 674.51,-204.49 672.86,-197.69"/>
</a>
</g>
</g>
<!-- Node22 -->
<g id="Node000022" class="node">
<title>Node22</title>
<g id="a_Node000022"><a xlink:href="_line_reader_8h.html" target="_top" xlink:title=" ">
<polygon fill="white" stroke="#666666" points="479.5,-156.5 371.5,-156.5 371.5,-137.5 479.5,-137.5 479.5,-156.5"/>
<text text-anchor="middle" x="425.5" y="-144.5" font-family="Helvetica,sans-Serif" font-size="10.00">Kit/Io/LineReader.h</text>
</a>
</g>
</g>
<!-- Node15&#45;&gt;Node22 -->
<g id="edge25_Node000015_Node000022" class="edge">
<title>Node15&#45;&gt;Node22</title>
<g id="a_edge25_Node000015_Node000022"><a xlink:title=" ">
<path fill="none" stroke="#63b8ff" d="M591.46,-200.32C551.42,-187.7 488.53,-167.87 452.77,-156.6"/>
<polygon fill="#63b8ff" stroke="#63b8ff" points="590.53,-203.7 601.12,-203.37 592.64,-197.02 590.53,-203.7"/>
</a>
</g>
</g>
<!-- Node23 -->
<g id="Node000023" class="node">
<title>Node23</title>
<g id="a_Node000023"><a xlink:href="_input_delegate_8h.html" target="_top" xlink:title=" ">
<polygon fill="white" stroke="#666666" points="779,-156.5 628,-156.5 628,-137.5 779,-137.5 779,-156.5"/>
<text text-anchor="middle" x="703.5" y="-144.5" font-family="Helvetica,sans-Serif" font-size="10.00">Kit/Io/Stdio/InputDelegate.h</text>
</a>
</g>
</g>
<!-- Node15&#45;&gt;Node23 -->
<g id="edge26_Node000015_Node000023" class="edge">
<title>Node15&#45;&gt;Node23</title>
<g id="a_edge26_Node000015_Node000023"><a xlink:title=" ">
<path fill="none" stroke="#63b8ff" d="M646.45,-196.68C661.01,-184.26 681.02,-167.18 693.06,-156.91"/>
<polygon fill="#63b8ff" stroke="#63b8ff" points="643.95,-194.22 638.61,-203.37 648.49,-199.54 643.95,-194.22"/>
</a>
</g>
</g>
<!-- Node25 -->
<g id="Node000025" class="node">
<title>Node25</title>
<g id="a_Node000025"><a xlink:href="helpers_8h.html" target="_top" xlink:title="This file defines helper functions/interface for writing unit tests.">
<polygon fill="white" stroke="#666666" points="609.5,-162 497.5,-162 497.5,-132 609.5,-132 609.5,-162"/>
<text text-anchor="start" x="505.5" y="-150" font-family="Helvetica,sans-Serif" font-size="10.00">Kit/_support/testing</text>
<text text-anchor="middle" x="553.5" y="-139" font-family="Helvetica,sans-Serif" font-size="10.00">/helpers.h</text>
</a>
</g>
</g>
<!-- Node15&#45;&gt;Node25 -->
<g id="edge28_Node000015_Node000025" class="edge">
<title>Node15&#45;&gt;Node25</title>
<g id="a_edge28_Node000015_Node000025"><a xlink:title=" ">
<path fill="none" stroke="#63b8ff" d="M610.59,-196.71C598.28,-186.21 582.05,-172.36 570.04,-162.12"/>
<polygon fill="#63b8ff" stroke="#63b8ff" points="608.51,-199.54 618.39,-203.37 613.05,-194.22 608.51,-199.54"/>
</a>
</g>
</g>
<!-- Node17 -->
<g id="Node000017" class="node">
<title>Node17</title>
<g id="a_Node000017"><a xlink:href="_null_8h.html" target="_top" xlink:title=" ">
<polygon fill="white" stroke="#666666" points="817.5,-90.5 743.5,-90.5 743.5,-71.5 817.5,-71.5 817.5,-90.5"/>
<text text-anchor="middle" x="780.5" y="-78.5" font-family="Helvetica,sans-Serif" font-size="10.00">Kit/Io/Null.h</text>
</a>
</g>
</g>
<!-- Node16&#45;&gt;Node17 -->
<g id="edge20_Node000016_Node000017" class="edge">
<title>Node16&#45;&gt;Node17</title>
<g id="a_edge20_Node000016_Node000017"><a xlink:title=" ">
<path fill="none" stroke="#63b8ff" d="M869.41,-132.36C847.17,-119.76 814.79,-101.42 795.86,-90.7"/>
<polygon fill="#63b8ff" stroke="#63b8ff" points="867.83,-135.49 878.26,-137.37 871.28,-129.39 867.83,-135.49"/>
</a>
</g>
</g>
<!-- Node18 -->
<g id="Node000018" class="node">
<title>Node18</title>
<g id="a_Node000018"><a xlink:href="_serial_2_s_t_2_m32_f4_2_input_output_8h.html" target="_top" xlink:title=" ">
<polygon fill="white" stroke="#666666" points="725.5,-96 601.5,-96 601.5,-66 725.5,-66 725.5,-96"/>
<text text-anchor="start" x="609.5" y="-84" font-family="Helvetica,sans-Serif" font-size="10.00">Kit/Io/Serial/ST/M32F4</text>
<text text-anchor="middle" x="663.5" y="-73" font-family="Helvetica,sans-Serif" font-size="10.00">/InputOutput.h</text>
</a>
</g>
</g>
<!-- Node16&#45;&gt;Node18 -->
<g id="edge21_Node000016_Node000018" class="edge">
<title>Node16&#45;&gt;Node18</title>
<g id="a_edge21_Node000016_Node000018"><a xlink:title=" ">
<path fill="none" stroke="#63b8ff" d="M852.61,-134.62C813.95,-123.86 755.83,-107.69 714.23,-96.12"/>
<polygon fill="#63b8ff" stroke="#63b8ff" points="851.91,-138.06 862.48,-137.37 853.79,-131.32 851.91,-138.06"/>
</a>
</g>
</g>
<!-- Node20 -->
<g id="Node000020" class="node">
<title>Node20</title>
<g id="a_Node000020"><a xlink:href="_socket_2_i_input_output_8h.html" target="_top" xlink:title=" ">
<polygon fill="white" stroke="#666666" points="985.5,-90.5 835.5,-90.5 835.5,-71.5 985.5,-71.5 985.5,-90.5"/>
<text text-anchor="middle" x="910.5" y="-78.5" font-family="Helvetica,sans-Serif" font-size="10.00">Kit/Io/Socket/IInputOutput.h</text>
</a>
</g>
</g>
<!-- Node16&#45;&gt;Node20 -->
<g id="edge23_Node000016_Node000020" class="edge">
<title>Node16&#45;&gt;Node20</title>
<g id="a_edge23_Node000016_Node000020"><a xlink:title=" ">
<path fill="none" stroke="#63b8ff" d="M898.43,-127.45C901.62,-115.43 905.63,-100.32 908.13,-90.91"/>
<polygon fill="#63b8ff" stroke="#63b8ff" points="894.98,-126.81 895.79,-137.37 901.74,-128.6 894.98,-126.81"/>
</a>
</g>
</g>
<!-- Node19 -->
<g id="Node000019" class="node">
<title>Node19</title>
<g id="a_Node000019"><a xlink:href="stdio_8h.html" target="_top" xlink:title="By default the BSP provides a KIT IO Stream for application&#39; console.">
<polygon fill="white" stroke="#666666" points="739.5,-30 587.5,-30 587.5,0 739.5,0 739.5,-30"/>
<text text-anchor="start" x="595.5" y="-18" font-family="Helvetica,sans-Serif" font-size="10.00">Kit/Bsp/ST/NUCLEO&#45;F413ZH</text>
<text text-anchor="middle" x="663.5" y="-7" font-family="Helvetica,sans-Serif" font-size="10.00">/stdio.h</text>
</a>
</g>
</g>
<!-- Node18&#45;&gt;Node19 -->
<g id="edge22_Node000018_Node000019" class="edge">
<title>Node18&#45;&gt;Node19</title>
<g id="a_edge22_Node000018_Node000019"><a xlink:title=" ">
<path fill="none" stroke="#63b8ff" d="M663.5,-55.54C663.5,-46.96 663.5,-37.61 663.5,-30.16"/>
<polygon fill="#63b8ff" stroke="#63b8ff" points="660,-55.8 663.5,-65.8 667,-55.8 660,-55.8"/>
</a>
</g>
</g>
<!-- Node21 -->
<g id="Node000021" class="node">
<title>Node21</title>
<g id="a_Node000021"><a xlink:href="_socket_2_input_output_8h.html" target="_top" xlink:title=" ">
<polygon fill="white" stroke="#666666" points="984,-24.5 837,-24.5 837,-5.5 984,-5.5 984,-24.5"/>
<text text-anchor="middle" x="910.5" y="-12.5" font-family="Helvetica,sans-Serif" font-size="10.00">Kit/Io/Socket/InputOutput.h</text>
</a>
</g>
</g>
<!-- Node20&#45;&gt;Node21 -->
<g id="edge24_Node000020_Node000021" class="edge">
<title>Node20&#45;&gt;Node21</title>
<g id="a_edge24_Node000020_Node000021"><a xlink:title=" ">
<path fill="none" stroke="#63b8ff" d="M910.5,-61.08C910.5,-49.13 910.5,-34.22 910.5,-24.91"/>
<polygon fill="#63b8ff" stroke="#63b8ff" points="907,-61.37 910.5,-71.37 914,-61.37 907,-61.37"/>
</a>
</g>
</g>
<!-- Node24 -->
<g id="Node000024" class="node">
<title>Node24</title>
<g id="a_Node000024"><a xlink:href="_std_in_8h.html" target="_top" xlink:title=" ">
<polygon fill="white" stroke="#666666" points="583,-90.5 476,-90.5 476,-71.5 583,-71.5 583,-90.5"/>
<text text-anchor="middle" x="529.5" y="-78.5" font-family="Helvetica,sans-Serif" font-size="10.00">Kit/Io/Stdio/StdIn.h</text>
</a>
</g>
</g>
<!-- Node23&#45;&gt;Node24 -->
<g id="edge27_Node000023_Node000024" class="edge">
<title>Node23&#45;&gt;Node24</title>
<g id="a_edge27_Node000023_Node000024"><a xlink:title=" ">
<path fill="none" stroke="#63b8ff" d="M670.44,-133.84C636.06,-121.2 583.13,-101.73 552.87,-90.6"/>
<polygon fill="#63b8ff" stroke="#63b8ff" points="669.44,-137.2 680.03,-137.37 671.86,-130.63 669.44,-137.2"/>
</a>
</g>
</g>
<!-- Node26&#45;&gt;Node8 -->
<g id="edge30_Node000026_Node000008" class="edge">
<title>Node26&#45;&gt;Node8</title>
<g id="a_edge30_Node000026_Node000008"><a xlink:title=" ">
<path fill="none" stroke="#63b8ff" d="M1143.11,-207.3C1107.99,-204.41 1061.6,-200.74 1020.5,-198 728.27,-178.52 652.72,-201.42 362.5,-162 352.69,-160.67 342.16,-158.62 332.53,-156.51"/>
<polygon fill="#63b8ff" stroke="#63b8ff" points="1142.91,-210.8 1153.16,-208.13 1143.49,-203.82 1142.91,-210.8"/>
</a>
</g>
</g>
<!-- Node26&#45;&gt;Node16 -->
<g id="edge31_Node000026_Node000016" class="edge">
<title>Node26&#45;&gt;Node16</title>
<g id="a_edge31_Node000026_Node000016"><a xlink:title=" ">
<path fill="none" stroke="#63b8ff" d="M1147.56,-201.39C1099.17,-191.29 1024.37,-175.66 959.5,-162 951.13,-160.24 942.17,-158.34 933.63,-156.53"/>
<polygon fill="#63b8ff" stroke="#63b8ff" points="1146.97,-204.84 1157.47,-203.45 1148.4,-197.98 1146.97,-204.84"/>
</a>
</g>
</g>
<!-- Node27 -->
<g id="Node000027" class="node">
<title>Node27</title>
<g id="a_Node000027"><a xlink:href="_line_writer_8h.html" target="_top" xlink:title=" ">
<polygon fill="white" stroke="#666666" points="1498.5,-156.5 1394.5,-156.5 1394.5,-137.5 1498.5,-137.5 1498.5,-156.5"/>
<text text-anchor="middle" x="1446.5" y="-144.5" font-family="Helvetica,sans-Serif" font-size="10.00">Kit/Io/LineWriter.h</text>
</a>
</g>
</g>
<!-- Node26&#45;&gt;Node27 -->
<g id="edge32_Node000026_Node000027" class="edge">
<title>Node26&#45;&gt;Node27</title>
<g id="a_edge32_Node000026_Node000027"><a xlink:title=" ">
<path fill="none" stroke="#63b8ff" d="M1241.65,-200.86C1290.57,-188.24 1369.25,-167.94 1413.51,-156.51"/>
<polygon fill="#63b8ff" stroke="#63b8ff" points="1240.5,-197.55 1231.69,-203.44 1242.25,-204.33 1240.5,-197.55"/>
</a>
</g>
</g>
<!-- Node28 -->
<g id="Node000028" class="node">
<title>Node28</title>
<g id="a_Node000028"><a xlink:href="_output_delegate_8h.html" target="_top" xlink:title=" ">
<polygon fill="white" stroke="#666666" points="1128,-156.5 969,-156.5 969,-137.5 1128,-137.5 1128,-156.5"/>
<text text-anchor="middle" x="1048.5" y="-144.5" font-family="Helvetica,sans-Serif" font-size="10.00">Kit/Io/Stdio/OutputDelegate.h</text>
</a>
</g>
</g>
<!-- Node26&#45;&gt;Node28 -->
<g id="edge33_Node000026_Node000028" class="edge">
<title>Node26&#45;&gt;Node28</title>
<g id="a_edge33_Node000026_Node000028"><a xlink:title=" ">
<path fill="none" stroke="#63b8ff" d="M1168.87,-199.36C1139.31,-186.75 1094.69,-167.71 1068.89,-156.7"/>
<polygon fill="#63b8ff" stroke="#63b8ff" points="1167.7,-202.66 1178.27,-203.37 1170.45,-196.23 1167.7,-202.66"/>
</a>
</g>
</g>
<!-- Node31 -->
<g id="Node000031" class="node">
<title>Node31</title>
<g id="a_Node000031"><a xlink:href="_tee_output_8h.html" target="_top" xlink:title=" ">
<polygon fill="white" stroke="#666666" points="1250.5,-156.5 1146.5,-156.5 1146.5,-137.5 1250.5,-137.5 1250.5,-156.5"/>
<text text-anchor="middle" x="1198.5" y="-144.5" font-family="Helvetica,sans-Serif" font-size="10.00">Kit/Io/TeeOutput.h</text>
</a>
</g>
</g>
<!-- Node26&#45;&gt;Node31 -->
<g id="edge36_Node000026_Node000031" class="edge">
<title>Node26&#45;&gt;Node31</title>
<g id="a_edge36_Node000026_Node000031"><a xlink:title=" ">
<path fill="none" stroke="#63b8ff" d="M1198.5,-193.08C1198.5,-181.13 1198.5,-166.22 1198.5,-156.91"/>
<polygon fill="#63b8ff" stroke="#63b8ff" points="1195,-193.37 1198.5,-203.37 1202,-193.37 1195,-193.37"/>
</a>
</g>
</g>
<!-- Node32 -->
<g id="Node000032" class="node">
<title>Node32</title>
<g id="a_Node000032"><a xlink:href="_trace_8h.html" target="_top" xlink:title="This file provides an interface for a &#39;printf&#39; tracing mechanism.">
<polygon fill="white" stroke="#666666" points="1376,-156.5 1269,-156.5 1269,-137.5 1376,-137.5 1376,-156.5"/>
<text text-anchor="middle" x="1322.5" y="-144.5" font-family="Helvetica,sans-Serif" font-size="10.00">Kit/System/Trace.h</text>
</a>
</g>
</g>
<!-- Node26&#45;&gt;Node32 -->
<g id="edge37_Node000026_Node000032" class="edge">
<title>Node26&#45;&gt;Node32</title>
<g id="a_edge37_Node000026_Node000032"><a xlink:title=" ">
<path fill="none" stroke="#63b8ff" d="M1224.28,-198.69C1248.71,-186.09 1284.69,-167.51 1305.65,-156.7"/>
<polygon fill="#63b8ff" stroke="#63b8ff" points="1222.5,-195.67 1215.22,-203.37 1225.71,-201.89 1222.5,-195.67"/>
</a>
</g>
</g>
<!-- Node29 -->
<g id="Node000029" class="node">
<title>Node29</title>
<g id="a_Node000029"><a xlink:href="_std_err_8h.html" target="_top" xlink:title=" ">
<polygon fill="white" stroke="#666666" points="1246.5,-90.5 1136.5,-90.5 1136.5,-71.5 1246.5,-71.5 1246.5,-90.5"/>
<text text-anchor="middle" x="1191.5" y="-78.5" font-family="Helvetica,sans-Serif" font-size="10.00">Kit/Io/Stdio/StdErr.h</text>
</a>
</g>
</g>
<!-- Node28&#45;&gt;Node29 -->
<g id="edge34_Node000028_Node000029" class="edge">
<title>Node28&#45;&gt;Node29</title>
<g id="a_edge34_Node000028_Node000029"><a xlink:title=" ">
<path fill="none" stroke="#63b8ff" d="M1077.11,-133.19C1105.3,-120.58 1147.58,-101.66 1172.06,-90.7"/>
<polygon fill="#63b8ff" stroke="#63b8ff" points="1075.48,-130.09 1067.79,-137.37 1078.34,-136.48 1075.48,-130.09"/>
</a>
</g>
</g>
<!-- Node30 -->
<g id="Node000030" class="node">
<title>Node30</title>
<g id="a_Node000030"><a xlink:href="_std_out_8h.html" target="_top" xlink:title=" ">
<polygon fill="white" stroke="#666666" points="1118,-90.5 1003,-90.5 1003,-71.5 1118,-71.5 1118,-90.5"/>
<text text-anchor="middle" x="1060.5" y="-78.5" font-family="Helvetica,sans-Serif" font-size="10.00">Kit/Io/Stdio/StdOut.h</text>
</a>
</g>
</g>
<!-- Node28&#45;&gt;Node30 -->
<g id="edge35_Node000028_Node000030" class="edge">
<title>Node28&#45;&gt;Node30</title>
<g id="a_edge35_Node000028_Node000030"><a xlink:title=" ">
<path fill="none" stroke="#63b8ff" d="M1051.98,-127.45C1054.23,-115.43 1057.07,-100.32 1058.83,-90.91"/>
<polygon fill="#63b8ff" stroke="#63b8ff" points="1048.52,-126.89 1050.12,-137.37 1055.4,-128.18 1048.52,-126.89"/>
</a>
</g>
</g>
<!-- Node33 -->
<g id="Node000033" class="node">
<title>Node33</title>
<g id="a_Node000033"><a xlink:href="_framework_2_log_8h.html" target="_top" xlink:title="This file declares the public facing Logging interface for generating log entries.">
<polygon fill="white" stroke="#666666" points="1528,-96 1399,-96 1399,-66 1528,-66 1528,-96"/>
<text text-anchor="start" x="1407" y="-84" font-family="Helvetica,sans-Serif" font-size="10.00">Kit/Logging/Framework</text>
<text text-anchor="middle" x="1463.5" y="-73" font-family="Helvetica,sans-Serif" font-size="10.00">/Log.h</text>
</a>
</g>
</g>
<!-- Node32&#45;&gt;Node33 -->
<g id="edge38_Node000032_Node000033" class="edge">
<title>Node32&#45;&gt;Node33</title>
<g id="a_edge38_Node000032_Node000033"><a xlink:title=" ">
<path fill="none" stroke="#63b8ff" d="M1350.66,-133.22C1374.28,-122.5 1407.99,-107.2 1432.4,-96.12"/>
<polygon fill="#63b8ff" stroke="#63b8ff" points="1349.18,-130.05 1341.52,-137.37 1352.07,-136.42 1349.18,-130.05"/>
</a>
</g>
</g>
<!-- Node35 -->
<g id="Node000035" class="node">
<title>Node35</title>
<g id="a_Node000035"><a xlink:href="_private_8h.html" target="_top" xlink:title="This file contains a collection of classes, interfaces, etc.">
<polygon fill="white" stroke="#666666" points="1380.5,-90.5 1264.5,-90.5 1264.5,-71.5 1380.5,-71.5 1380.5,-90.5"/>
<text text-anchor="middle" x="1322.5" y="-78.5" font-family="Helvetica,sans-Serif" font-size="10.00">Kit/System/Private.h</text>
</a>
</g>
</g>
<!-- Node32&#45;&gt;Node35 -->
<g id="edge40_Node000032_Node000035" class="edge">
<title>Node32&#45;&gt;Node35</title>
<g id="a_edge40_Node000032_Node000035"><a xlink:title=" ">
<path fill="none" stroke="#63b8ff" d="M1322.5,-127.08C1322.5,-115.13 1322.5,-100.22 1322.5,-90.91"/>
<polygon fill="#63b8ff" stroke="#63b8ff" points="1319,-127.37 1322.5,-137.37 1326,-127.37 1319,-127.37"/>
</a>
</g>
</g>
<!-- Node34 -->
<g id="Node000034" class="node">
<title>Node34</title>
<g id="a_Node000034"><a xlink:href="_pkg_2_log_8h.html" target="_top" xlink:title="This file declares the Logging functions available to the KIT Logging Domain.">
<polygon fill="white" stroke="#666666" points="1524.5,-24.5 1402.5,-24.5 1402.5,-5.5 1524.5,-5.5 1524.5,-24.5"/>
<text text-anchor="middle" x="1463.5" y="-12.5" font-family="Helvetica,sans-Serif" font-size="10.00">Kit/Logging/Pkg/Log.h</text>
</a>
</g>
</g>
<!-- Node33&#45;&gt;Node34 -->
<g id="edge39_Node000033_Node000034" class="edge">
<title>Node33&#45;&gt;Node34</title>
<g id="a_edge39_Node000033_Node000034"><a xlink:title=" ">
<path fill="none" stroke="#63b8ff" d="M1463.5,-55.6C1463.5,-44.8 1463.5,-32.78 1463.5,-24.84"/>
<polygon fill="#63b8ff" stroke="#63b8ff" points="1460,-55.8 1463.5,-65.8 1467,-55.8 1460,-55.8"/>
</a>
</g>
</g>
<!-- Node36&#45;&gt;Node18 -->
<g id="edge42_Node000036_Node000018" class="edge">
<title>Node36&#45;&gt;Node18</title>
<g id="a_edge42_Node000036_Node000018"><a xlink:title=" ">
<path fill="none" stroke="#63b8ff" d="M897.52,-194.43C875.03,-185.94 848.81,-174.8 826.5,-162 807.53,-151.12 806.48,-142.86 787.5,-132 761.81,-117.31 730.95,-104.85 706.44,-96.04"/>
<polygon fill="#63b8ff" stroke="#63b8ff" points="896.32,-197.72 906.91,-197.91 898.75,-191.15 896.32,-197.72"/>
</a>
</g>
</g>
<!-- Node39 -->
<g id="Node000039" class="node">
<title>Node39</title>
<g id="a_Node000039"><a xlink:href="_i_listener_8h.html" target="_top" xlink:title=" ">
<polygon fill="white" stroke="#666666" points="2176,-156.5 2045,-156.5 2045,-137.5 2176,-137.5 2176,-156.5"/>
<text text-anchor="middle" x="2110.5" y="-144.5" font-family="Helvetica,sans-Serif" font-size="10.00">Kit/Io/Socket/IListener.h</text>
</a>
</g>
</g>
<!-- Node38&#45;&gt;Node39 -->
<g id="edge45_Node000038_Node000039" class="edge">
<title>Node38&#45;&gt;Node39</title>
<g id="a_edge45_Node000038_Node000039"><a xlink:title=" ">
<path fill="none" stroke="#63b8ff" d="M2115.43,-193.08C2114.12,-181.13 2112.49,-166.22 2111.47,-156.91"/>
<polygon fill="#63b8ff" stroke="#63b8ff" points="2111.99,-193.81 2116.56,-203.37 2118.95,-193.05 2111.99,-193.81"/>
</a>
</g>
</g>
<!-- Node38&#45;&gt;Node41 -->
<g id="edge47_Node000038_Node000041" class="edge">
<title>Node38&#45;&gt;Node41</title>
<g id="a_edge47_Node000038_Node000041"><a xlink:title=" ">
<path fill="none" stroke="#63b8ff" d="M2150.7,-199.79C2179.92,-189.04 2222.46,-173.4 2253.12,-162.12"/>
<polygon fill="#63b8ff" stroke="#63b8ff" points="2149.14,-196.63 2140.97,-203.37 2151.56,-203.2 2149.14,-196.63"/>
</a>
</g>
</g>
<!-- Node39&#45;&gt;Node40 -->
<g id="edge46_Node000039_Node000040" class="edge">
<title>Node39&#45;&gt;Node40</title>
<g id="a_edge46_Node000039_Node000040"><a xlink:title=" ">
<path fill="none" stroke="#63b8ff" d="M2097.17,-129.27C2087.38,-116.99 2074.48,-100.8 2066.6,-90.91"/>
<polygon fill="#63b8ff" stroke="#63b8ff" points="2094.65,-131.73 2103.62,-137.37 2100.13,-127.37 2094.65,-131.73"/>
</a>
</g>
</g>
<!-- Node42&#45;&gt;Node41 -->
<g id="edge49_Node000042_Node000041" class="edge">
<title>Node42&#45;&gt;Node41</title>
<g id="a_edge49_Node000042_Node000041"><a xlink:title=" ">
<path fill="none" stroke="#63b8ff" d="M2291.5,-187.54C2291.5,-178.96 2291.5,-169.61 2291.5,-162.16"/>
<polygon fill="#63b8ff" stroke="#63b8ff" points="2288,-187.8 2291.5,-197.8 2295,-187.8 2288,-187.8"/>
</a>
</g>
</g>
<!-- Node45&#45;&gt;Node13 -->
<g id="edge55_Node000045_Node000013" class="edge">
<title>Node45&#45;&gt;Node13</title>
<g id="a_edge55_Node000045_Node000013"><a xlink:title=" ">
<path fill="none" stroke="#63b8ff" d="M1688.28,-193.14C1710.65,-181 1738.65,-165.82 1755.8,-156.52"/>
<polygon fill="#63b8ff" stroke="#63b8ff" points="1686.52,-190.11 1679.4,-197.95 1689.85,-196.26 1686.52,-190.11"/>
</a>
</g>
</g>
<!-- Node46&#45;&gt;Node14 -->
<g id="edge57_Node000046_Node000014" class="edge">
<title>Node46&#45;&gt;Node14</title>
<g id="a_edge57_Node000046_Node000014"><a xlink:title=" ">
<path fill="none" stroke="#63b8ff" d="M1814.21,-193.78C1841.55,-181.54 1876.32,-165.98 1897.47,-156.52"/>
<polygon fill="#63b8ff" stroke="#63b8ff" points="1812.58,-190.68 1804.88,-197.95 1815.44,-197.06 1812.58,-190.68"/>
</a>
</g>
</g>
</g>
</svg>
