<?xml version="1.0" encoding="UTF-8" standalone="no"?>
<!DOCTYPE svg PUBLIC "-//W3C//DTD SVG 1.1//EN"
 "http://www.w3.org/Graphics/SVG/1.1/DTD/svg11.dtd">
<!-- Generated by graphviz version 2.43.0 (0)
 -->
<!-- Title: Kit/Container/Item.h Pages: 1 -->
<svg width="2560pt" height="467pt"
 viewBox="0.00 0.00 2559.50 467.00" xmlns="http://www.w3.org/2000/svg" xmlns:xlink="http://www.w3.org/1999/xlink">
<g id="graph0" class="graph" transform="scale(1 1) rotate(0) translate(4 463)">
<title>Kit/Container/Item.h</title>
<!-- Node1 -->
<g id="Node000001" class="node">
<title>Node1</title>
<g id="a_Node000001"><a xlink:title=" ">
<polygon fill="#999999" stroke="#666666" points="1365.5,-459 1250.5,-459 1250.5,-440 1365.5,-440 1365.5,-459"/>
<text text-anchor="middle" x="1308" y="-447" font-family="Helvetica,sans-Serif" font-size="10.00">Kit/Container/Item.h</text>
</a>
</g>
</g>
<!-- Node2 -->
<g id="Node000002" class="node">
<title>Node2</title>
<g id="a_Node000002"><a xlink:href="_list_item_8h.html" target="_top" xlink:title=" ">
<polygon fill="white" stroke="#666666" points="776,-404 644,-404 644,-385 776,-385 776,-404"/>
<text text-anchor="middle" x="710" y="-392" font-family="Helvetica,sans-Serif" font-size="10.00">Kit/Container/ListItem.h</text>
</a>
</g>
</g>
<!-- Node1&#45;&gt;Node2 -->
<g id="edge1_Node000001_Node000002" class="edge">
<title>Node1&#45;&gt;Node2</title>
<g id="a_edge1_Node000001_Node000002"><a xlink:title=" ">
<path fill="none" stroke="#63b8ff" d="M1240.25,-442.5C1124.63,-432.25 890.62,-411.51 776.12,-401.36"/>
<polygon fill="#63b8ff" stroke="#63b8ff" points="1240.12,-446 1250.39,-443.39 1240.74,-439.02 1240.12,-446"/>
</a>
</g>
</g>
<!-- Node51 -->
<g id="Node000051" class="node">
<title>Node51</title>
<g id="a_Node000051"><a xlink:href="_sim_tick_8h.html" target="_top" xlink:title=" ">
<polygon fill="white" stroke="#666666" points="2551.5,-288.5 2430.5,-288.5 2430.5,-269.5 2551.5,-269.5 2551.5,-288.5"/>
<text text-anchor="middle" x="2491" y="-276.5" font-family="Helvetica,sans-Serif" font-size="10.00">Kit/System/SimTick.h</text>
</a>
</g>
</g>
<!-- Node1&#45;&gt;Node51 -->
<g id="edge60_Node000001_Node000051" class="edge">
<title>Node1&#45;&gt;Node51</title>
<g id="a_edge60_Node000001_Node000051"><a xlink:title=" ">
<path fill="none" stroke="#63b8ff" d="M1375.56,-440.54C1549.42,-419.76 2026.38,-360.79 2421,-294 2430.53,-292.39 2440.75,-290.46 2450.36,-288.55"/>
<polygon fill="#63b8ff" stroke="#63b8ff" points="1375.04,-437.08 1365.53,-441.74 1375.87,-444.03 1375.04,-437.08"/>
</a>
</g>
</g>
<!-- Node3 -->
<g id="Node000003" class="node">
<title>Node3</title>
<g id="a_Node000003"><a xlink:href="_d_list_base_8h.html" target="_top" xlink:title=" ">
<polygon fill="white" stroke="#666666" points="188.5,-349 47.5,-349 47.5,-330 188.5,-330 188.5,-349"/>
<text text-anchor="middle" x="118" y="-337" font-family="Helvetica,sans-Serif" font-size="10.00">Kit/Container/DListBase.h</text>
</a>
</g>
</g>
<!-- Node2&#45;&gt;Node3 -->
<g id="edge2_Node000002_Node000003" class="edge">
<title>Node2&#45;&gt;Node3</title>
<g id="a_edge2_Node000002_Node000003"><a xlink:title=" ">
<path fill="none" stroke="#63b8ff" d="M633.65,-386.66C518.21,-376.33 300.87,-356.87 188.8,-346.84"/>
<polygon fill="#63b8ff" stroke="#63b8ff" points="633.54,-390.17 643.81,-387.57 634.17,-383.2 633.54,-390.17"/>
</a>
</g>
</g>
<!-- Node12 -->
<g id="Node000012" class="node">
<title>Node12</title>
<g id="a_Node000012"><a xlink:href="_keyed_item_8h.html" target="_top" xlink:title=" ">
<polygon fill="white" stroke="#666666" points="883.5,-349 738.5,-349 738.5,-330 883.5,-330 883.5,-349"/>
<text text-anchor="middle" x="811" y="-337" font-family="Helvetica,sans-Serif" font-size="10.00">Kit/Container/KeyedItem.h</text>
</a>
</g>
</g>
<!-- Node2&#45;&gt;Node12 -->
<g id="edge11_Node000002_Node000012" class="edge">
<title>Node2&#45;&gt;Node12</title>
<g id="a_edge11_Node000002_Node000012"><a xlink:title=" ">
<path fill="none" stroke="#63b8ff" d="M735.28,-380.23C753.8,-370.51 778.42,-357.6 794.48,-349.17"/>
<polygon fill="#63b8ff" stroke="#63b8ff" points="733.46,-377.24 726.23,-384.98 736.71,-383.44 733.46,-377.24"/>
</a>
</g>
</g>
<!-- Node19 -->
<g id="Node000019" class="node">
<title>Node19</title>
<g id="a_Node000019"><a xlink:href="_s_list_base_8h.html" target="_top" xlink:title=" ">
<polygon fill="white" stroke="#666666" points="560,-349 420,-349 420,-330 560,-330 560,-349"/>
<text text-anchor="middle" x="490" y="-337" font-family="Helvetica,sans-Serif" font-size="10.00">Kit/Container/SListBase.h</text>
</a>
</g>
</g>
<!-- Node2&#45;&gt;Node19 -->
<g id="edge18_Node000002_Node000019" class="edge">
<title>Node2&#45;&gt;Node19</title>
<g id="a_edge18_Node000002_Node000019"><a xlink:title=" ">
<path fill="none" stroke="#63b8ff" d="M664.87,-382.63C623.66,-372.7 563.55,-358.22 525.62,-349.08"/>
<polygon fill="#63b8ff" stroke="#63b8ff" points="664.11,-386.05 674.65,-384.98 665.75,-379.24 664.11,-386.05"/>
</a>
</g>
</g>
<!-- Node23 -->
<g id="Node000023" class="node">
<title>Node23</title>
<g id="a_Node000023"><a xlink:href="_i_event_flag_8h.html" target="_top" xlink:title=" ">
<polygon fill="white" stroke="#666666" points="304,-222.5 170,-222.5 170,-203.5 304,-203.5 304,-222.5"/>
<text text-anchor="middle" x="237" y="-210.5" font-family="Helvetica,sans-Serif" font-size="10.00">Kit/System/IEventFlag.h</text>
</a>
</g>
</g>
<!-- Node2&#45;&gt;Node23 -->
<g id="edge40_Node000002_Node000023" class="edge">
<title>Node2&#45;&gt;Node23</title>
<g id="a_edge40_Node000002_Node000023"><a xlink:title=" ">
<path fill="none" stroke="#63b8ff" d="M633.7,-392.73C571.5,-389.66 482.55,-379.57 411,-349 337.52,-317.6 268.04,-247.49 245.01,-222.81"/>
<polygon fill="#63b8ff" stroke="#63b8ff" points="633.69,-396.24 643.83,-393.18 634,-389.24 633.69,-396.24"/>
</a>
</g>
</g>
<!-- Node26 -->
<g id="Node000026" class="node">
<title>Node26</title>
<g id="a_Node000026"><a xlink:href="_i_message_8h.html" target="_top" xlink:title=" ">
<polygon fill="white" stroke="#666666" points="682,-349 578,-349 578,-330 682,-330 682,-349"/>
<text text-anchor="middle" x="630" y="-337" font-family="Helvetica,sans-Serif" font-size="10.00">Kit/Itc/IMessage.h</text>
</a>
</g>
</g>
<!-- Node2&#45;&gt;Node26 -->
<g id="edge27_Node000002_Node000026" class="edge">
<title>Node2&#45;&gt;Node26</title>
<g id="a_edge27_Node000002_Node000026"><a xlink:title=" ">
<path fill="none" stroke="#63b8ff" d="M688.75,-379.42C674.24,-369.81 655.46,-357.37 643.09,-349.17"/>
<polygon fill="#63b8ff" stroke="#63b8ff" points="686.88,-382.38 697.15,-384.98 690.74,-376.54 686.88,-382.38"/>
</a>
</g>
</g>
<!-- Node37 -->
<g id="Node000037" class="node">
<title>Node37</title>
<g id="a_Node000037"><a xlink:href="_i_counter_8h.html" target="_top" xlink:title=" ">
<polygon fill="white" stroke="#666666" points="349,-349 227,-349 227,-330 349,-330 349,-349"/>
<text text-anchor="middle" x="288" y="-337" font-family="Helvetica,sans-Serif" font-size="10.00">Kit/System/ICounter.h</text>
</a>
</g>
</g>
<!-- Node2&#45;&gt;Node37 -->
<g id="edge38_Node000002_Node000037" class="edge">
<title>Node2&#45;&gt;Node37</title>
<g id="a_edge38_Node000002_Node000037"><a xlink:title=" ">
<path fill="none" stroke="#63b8ff" d="M633.39,-383.88C551.82,-373.63 424.36,-357.63 349.22,-348.19"/>
<polygon fill="#63b8ff" stroke="#63b8ff" points="633.24,-387.39 643.6,-385.16 634.11,-380.44 633.24,-387.39"/>
</a>
</g>
</g>
<!-- Node38 -->
<g id="Node000038" class="node">
<title>Node38</title>
<g id="a_Node000038"><a xlink:href="_private_startup_8h.html" target="_top" xlink:title=" ">
<polygon fill="white" stroke="#666666" points="1054,-349 902,-349 902,-330 1054,-330 1054,-349"/>
<text text-anchor="middle" x="978" y="-337" font-family="Helvetica,sans-Serif" font-size="10.00">Kit/System/PrivateStartup.h</text>
</a>
</g>
</g>
<!-- Node2&#45;&gt;Node38 -->
<g id="edge41_Node000002_Node000038" class="edge">
<title>Node2&#45;&gt;Node38</title>
<g id="a_edge41_Node000002_Node000038"><a xlink:title=" ">
<path fill="none" stroke="#63b8ff" d="M763.08,-383C813.32,-373.07 887.82,-358.33 934.6,-349.08"/>
<polygon fill="#63b8ff" stroke="#63b8ff" points="762.19,-379.61 753.06,-384.98 763.55,-386.48 762.19,-379.61"/>
</a>
</g>
</g>
<!-- Node39 -->
<g id="Node000039" class="node">
<title>Node39</title>
<g id="a_Node000039"><a xlink:href="_shutdown_8h.html" target="_top" xlink:title=" ">
<polygon fill="white" stroke="#666666" points="1274,-349 1144,-349 1144,-330 1274,-330 1274,-349"/>
<text text-anchor="middle" x="1209" y="-337" font-family="Helvetica,sans-Serif" font-size="10.00">Kit/System/Shutdown.h</text>
</a>
</g>
</g>
<!-- Node2&#45;&gt;Node39 -->
<g id="edge42_Node000002_Node000039" class="edge">
<title>Node2&#45;&gt;Node39</title>
<g id="a_edge42_Node000002_Node000039"><a xlink:title=" ">
<path fill="none" stroke="#63b8ff" d="M786.11,-385.42C883.88,-375.03 1051.9,-357.19 1143.97,-347.41"/>
<polygon fill="#63b8ff" stroke="#63b8ff" points="785.58,-381.95 776.01,-386.49 786.32,-388.91 785.58,-381.95"/>
</a>
</g>
</g>
<!-- Node43 -->
<g id="Node000043" class="node">
<title>Node43</title>
<g id="a_Node000043"><a xlink:href="_thread_8h.html" target="_top" xlink:title=" ">
<polygon fill="white" stroke="#666666" points="1942,-349 1826,-349 1826,-330 1942,-330 1942,-349"/>
<text text-anchor="middle" x="1884" y="-337" font-family="Helvetica,sans-Serif" font-size="10.00">Kit/System/Thread.h</text>
</a>
</g>
</g>
<!-- Node2&#45;&gt;Node43 -->
<g id="edge46_Node000002_Node000043" class="edge">
<title>Node2&#45;&gt;Node43</title>
<g id="a_edge46_Node000002_Node000043"><a xlink:title=" ">
<path fill="none" stroke="#63b8ff" d="M786.16,-390.06C1004.9,-380.19 1631.74,-351.89 1825.93,-343.12"/>
<polygon fill="#63b8ff" stroke="#63b8ff" points="785.89,-386.57 776.06,-390.52 786.21,-393.56 785.89,-386.57"/>
</a>
</g>
</g>
<!-- Node53 -->
<g id="Node000053" class="node">
<title>Node53</title>
<g id="a_Node000053"><a xlink:href="_watched_thread_8h.html" target="_top" xlink:title=" ">
<polygon fill="white" stroke="#666666" points="769.5,-294 648.5,-294 648.5,-264 769.5,-264 769.5,-294"/>
<text text-anchor="start" x="656.5" y="-282" font-family="Helvetica,sans-Serif" font-size="10.00">Kit/System/Watchdog</text>
<text text-anchor="middle" x="709" y="-271" font-family="Helvetica,sans-Serif" font-size="10.00">/WatchedThread.h</text>
</a>
</g>
</g>
<!-- Node2&#45;&gt;Node53 -->
<g id="edge56_Node000002_Node000053" class="edge">
<title>Node2&#45;&gt;Node53</title>
<g id="a_edge56_Node000002_Node000053"><a xlink:title=" ">
<path fill="none" stroke="#63b8ff" d="M709.84,-374.96C709.64,-352.34 709.3,-314.61 709.12,-294.18"/>
<polygon fill="#63b8ff" stroke="#63b8ff" points="706.34,-375 709.92,-384.97 713.34,-374.94 706.34,-375"/>
</a>
</g>
</g>
<!-- Node4 -->
<g id="Node000004" class="node">
<title>Node4</title>
<g id="a_Node000004"><a xlink:href="_d_list_8h.html" target="_top" xlink:title=" ">
<polygon fill="white" stroke="#666666" points="137.5,-288.5 20.5,-288.5 20.5,-269.5 137.5,-269.5 137.5,-288.5"/>
<text text-anchor="middle" x="79" y="-276.5" font-family="Helvetica,sans-Serif" font-size="10.00">Kit/Container/DList.h</text>
</a>
</g>
</g>
<!-- Node3&#45;&gt;Node4 -->
<g id="edge3_Node000003_Node000004" class="edge">
<title>Node3&#45;&gt;Node4</title>
<g id="a_edge3_Node000003_Node000004"><a xlink:title=" ">
<path fill="none" stroke="#63b8ff" d="M106.54,-321.3C99.39,-310.58 90.49,-297.23 84.78,-288.67"/>
<polygon fill="#63b8ff" stroke="#63b8ff" points="103.79,-323.49 112.25,-329.87 109.61,-319.61 103.79,-323.49"/>
</a>
</g>
</g>
<!-- Node5 -->
<g id="Node000005" class="node">
<title>Node5</title>
<g id="a_Node000005"><a xlink:href="_timer_manager_8h.html" target="_top" xlink:title=" ">
<polygon fill="white" stroke="#666666" points="152,-222.5 0,-222.5 0,-203.5 152,-203.5 152,-222.5"/>
<text text-anchor="middle" x="76" y="-210.5" font-family="Helvetica,sans-Serif" font-size="10.00">Kit/System/TimerManager.h</text>
</a>
</g>
</g>
<!-- Node4&#45;&gt;Node5 -->
<g id="edge4_Node000004_Node000005" class="edge">
<title>Node4&#45;&gt;Node5</title>
<g id="a_edge4_Node000004_Node000005"><a xlink:title=" ">
<path fill="none" stroke="#63b8ff" d="M78.11,-259.08C77.55,-247.13 76.85,-232.22 76.42,-222.91"/>
<polygon fill="#63b8ff" stroke="#63b8ff" points="74.63,-259.54 78.6,-269.37 81.62,-259.22 74.63,-259.54"/>
</a>
</g>
</g>
<!-- Node6 -->
<g id="Node000006" class="node">
<title>Node6</title>
<g id="a_Node000006"><a xlink:href="_event_loop_8h.html" target="_top" xlink:title=" ">
<polygon fill="white" stroke="#666666" points="303.5,-156.5 170.5,-156.5 170.5,-137.5 303.5,-137.5 303.5,-156.5"/>
<text text-anchor="middle" x="237" y="-144.5" font-family="Helvetica,sans-Serif" font-size="10.00">Kit/System/EventLoop.h</text>
</a>
</g>
</g>
<!-- Node5&#45;&gt;Node6 -->
<g id="edge5_Node000005_Node000006" class="edge">
<title>Node5&#45;&gt;Node6</title>
<g id="a_edge5_Node000005_Node000006"><a xlink:title=" ">
<path fill="none" stroke="#63b8ff" d="M107.42,-199.51C139.24,-186.86 187.61,-167.63 215.37,-156.6"/>
<polygon fill="#63b8ff" stroke="#63b8ff" points="105.71,-196.42 97.71,-203.37 108.3,-202.93 105.71,-196.42"/>
</a>
</g>
</g>
<!-- Node10 -->
<g id="Node000010" class="node">
<title>Node10</title>
<g id="a_Node000010"><a xlink:href="_timer_8h.html" target="_top" xlink:title=" ">
<polygon fill="white" stroke="#666666" points="537,-156.5 427,-156.5 427,-137.5 537,-137.5 537,-156.5"/>
<text text-anchor="middle" x="482" y="-144.5" font-family="Helvetica,sans-Serif" font-size="10.00">Kit/System/Timer.h</text>
</a>
</g>
</g>
<!-- Node5&#45;&gt;Node10 -->
<g id="edge9_Node000005_Node000010" class="edge">
<title>Node5&#45;&gt;Node10</title>
<g id="a_edge9_Node000005_Node000010"><a xlink:title=" ">
<path fill="none" stroke="#63b8ff" d="M137.26,-201.84C145.24,-200.54 153.32,-199.23 161,-198 254.28,-183.05 362.92,-166.26 426.88,-156.44"/>
<polygon fill="#63b8ff" stroke="#63b8ff" points="136.53,-198.42 127.23,-203.49 137.66,-205.33 136.53,-198.42"/>
</a>
</g>
</g>
<!-- Node7 -->
<g id="Node000007" class="node">
<title>Node7</title>
<g id="a_Node000007"><a xlink:href="_server_8h.html" target="_top" xlink:title=" ">
<polygon fill="white" stroke="#666666" points="465.5,-90.5 330.5,-90.5 330.5,-71.5 465.5,-71.5 465.5,-90.5"/>
<text text-anchor="middle" x="398" y="-78.5" font-family="Helvetica,sans-Serif" font-size="10.00">Kit/EventQueue/Server.h</text>
</a>
</g>
</g>
<!-- Node6&#45;&gt;Node7 -->
<g id="edge6_Node000006_Node000007" class="edge">
<title>Node6&#45;&gt;Node7</title>
<g id="a_edge6_Node000006_Node000007"><a xlink:title=" ">
<path fill="none" stroke="#63b8ff" d="M268.42,-133.51C300.24,-120.86 348.61,-101.63 376.37,-90.6"/>
<polygon fill="#63b8ff" stroke="#63b8ff" points="266.71,-130.42 258.71,-137.37 269.3,-136.93 266.71,-130.42"/>
</a>
</g>
</g>
<!-- Node9 -->
<g id="Node000009" class="node">
<title>Node9</title>
<g id="a_Node000009"><a xlink:href="_event_loop_with_p_scheduling_8h.html" target="_top" xlink:title=" ">
<polygon fill="white" stroke="#666666" points="310,-96 164,-96 164,-66 310,-66 310,-96"/>
<text text-anchor="start" x="172" y="-84" font-family="Helvetica,sans-Serif" font-size="10.00">Kit/System/EventLoopWith</text>
<text text-anchor="middle" x="237" y="-73" font-family="Helvetica,sans-Serif" font-size="10.00">PScheduling.h</text>
</a>
</g>
</g>
<!-- Node6&#45;&gt;Node9 -->
<g id="edge8_Node000006_Node000009" class="edge">
<title>Node6&#45;&gt;Node9</title>
<g id="a_edge8_Node000006_Node000009"><a xlink:title=" ">
<path fill="none" stroke="#63b8ff" d="M237,-127.35C237,-117.47 237,-105.51 237,-96.36"/>
<polygon fill="#63b8ff" stroke="#63b8ff" points="233.5,-127.37 237,-137.37 240.5,-127.37 233.5,-127.37"/>
</a>
</g>
</g>
<!-- Node8 -->
<g id="Node000008" class="node">
<title>Node8</title>
<g id="a_Node000008"><a xlink:href="_with_periodic_scheduling_8h.html" target="_top" xlink:title=" ">
<polygon fill="white" stroke="#666666" points="476.5,-30 319.5,-30 319.5,0 476.5,0 476.5,-30"/>
<text text-anchor="start" x="327.5" y="-18" font-family="Helvetica,sans-Serif" font-size="10.00">Kit/EventQueue/WithPeriodic</text>
<text text-anchor="middle" x="398" y="-7" font-family="Helvetica,sans-Serif" font-size="10.00">Scheduling.h</text>
</a>
</g>
</g>
<!-- Node7&#45;&gt;Node8 -->
<g id="edge7_Node000007_Node000008" class="edge">
<title>Node7&#45;&gt;Node8</title>
<g id="a_edge7_Node000007_Node000008"><a xlink:title=" ">
<path fill="none" stroke="#63b8ff" d="M398,-61.35C398,-51.47 398,-39.51 398,-30.36"/>
<polygon fill="#63b8ff" stroke="#63b8ff" points="394.5,-61.37 398,-71.37 401.5,-61.37 394.5,-61.37"/>
</a>
</g>
</g>
<!-- Node11 -->
<g id="Node000011" class="node">
<title>Node11</title>
<g id="a_Node000011"><a xlink:href="_watched_event_thread_8h.html" target="_top" xlink:title=" ">
<polygon fill="white" stroke="#666666" points="669,-96 537,-96 537,-66 669,-66 669,-96"/>
<text text-anchor="start" x="545" y="-84" font-family="Helvetica,sans-Serif" font-size="10.00">Kit/System/Watchdog</text>
<text text-anchor="middle" x="603" y="-73" font-family="Helvetica,sans-Serif" font-size="10.00">/WatchedEventThread.h</text>
</a>
</g>
</g>
<!-- Node10&#45;&gt;Node11 -->
<g id="edge10_Node000010_Node000011" class="edge">
<title>Node10&#45;&gt;Node11</title>
<g id="a_edge10_Node000010_Node000011"><a xlink:title=" ">
<path fill="none" stroke="#63b8ff" d="M507.25,-132.64C527.46,-121.95 555.73,-107 576.31,-96.12"/>
<polygon fill="#63b8ff" stroke="#63b8ff" points="505.52,-129.6 498.32,-137.37 508.79,-135.79 505.52,-129.6"/>
</a>
</g>
</g>
<!-- Node13 -->
<g id="Node000013" class="node">
<title>Node13</title>
<g id="a_Node000013"><a xlink:href="_map_item_8h.html" target="_top" xlink:title=" ">
<polygon fill="white" stroke="#666666" points="1124,-288.5 988,-288.5 988,-269.5 1124,-269.5 1124,-288.5"/>
<text text-anchor="middle" x="1056" y="-276.5" font-family="Helvetica,sans-Serif" font-size="10.00">Kit/Container/MapItem.h</text>
</a>
</g>
</g>
<!-- Node12&#45;&gt;Node13 -->
<g id="edge12_Node000012_Node000013" class="edge">
<title>Node12&#45;&gt;Node13</title>
<g id="a_edge12_Node000012_Node000013"><a xlink:title=" ">
<path fill="none" stroke="#63b8ff" d="M856.61,-327.61C903.96,-316.3 977.04,-298.85 1020.33,-288.52"/>
<polygon fill="#63b8ff" stroke="#63b8ff" points="855.54,-324.27 846.63,-329.99 857.16,-331.08 855.54,-324.27"/>
</a>
</g>
</g>
<!-- Node14 -->
<g id="Node000014" class="node">
<title>Node14</title>
<g id="a_Node000014"><a xlink:href="_avl_tree___8h.html" target="_top" xlink:title=" ">
<polygon fill="white" stroke="#666666" points="1122.5,-222.5 989.5,-222.5 989.5,-203.5 1122.5,-203.5 1122.5,-222.5"/>
<text text-anchor="middle" x="1056" y="-210.5" font-family="Helvetica,sans-Serif" font-size="10.00">Kit/Container/AvlTree_.h</text>
</a>
</g>
</g>
<!-- Node13&#45;&gt;Node14 -->
<g id="edge13_Node000013_Node000014" class="edge">
<title>Node13&#45;&gt;Node14</title>
<g id="a_edge13_Node000013_Node000014"><a xlink:title=" ">
<path fill="none" stroke="#63b8ff" d="M1056,-259.08C1056,-247.13 1056,-232.22 1056,-222.91"/>
<polygon fill="#63b8ff" stroke="#63b8ff" points="1052.5,-259.37 1056,-269.37 1059.5,-259.37 1052.5,-259.37"/>
</a>
</g>
</g>
<!-- Node16 -->
<g id="Node000016" class="node">
<title>Node16</title>
<g id="a_Node000016"><a xlink:href="_string_item_8h.html" target="_top" xlink:title=" ">
<polygon fill="white" stroke="#666666" points="1257,-222.5 1141,-222.5 1141,-203.5 1257,-203.5 1257,-222.5"/>
<text text-anchor="middle" x="1199" y="-210.5" font-family="Helvetica,sans-Serif" font-size="10.00">Kit/Text/StringItem.h</text>
</a>
</g>
</g>
<!-- Node13&#45;&gt;Node16 -->
<g id="edge15_Node000013_Node000016" class="edge">
<title>Node13&#45;&gt;Node16</title>
<g id="a_edge15_Node000013_Node000016"><a xlink:title=" ">
<path fill="none" stroke="#63b8ff" d="M1084.61,-265.19C1112.8,-252.58 1155.08,-233.66 1179.56,-222.7"/>
<polygon fill="#63b8ff" stroke="#63b8ff" points="1082.98,-262.09 1075.29,-269.37 1085.84,-268.48 1082.98,-262.09"/>
</a>
</g>
</g>
<!-- Node15 -->
<g id="Node000015" class="node">
<title>Node15</title>
<g id="a_Node000015"><a xlink:href="_map_8h.html" target="_top" xlink:title=" ">
<polygon fill="white" stroke="#666666" points="1262.5,-156.5 1149.5,-156.5 1149.5,-137.5 1262.5,-137.5 1262.5,-156.5"/>
<text text-anchor="middle" x="1206" y="-144.5" font-family="Helvetica,sans-Serif" font-size="10.00">Kit/Container/Map.h</text>
</a>
</g>
</g>
<!-- Node14&#45;&gt;Node15 -->
<g id="edge14_Node000014_Node000015" class="edge">
<title>Node14&#45;&gt;Node15</title>
<g id="a_edge14_Node000014_Node000015"><a xlink:title=" ">
<path fill="none" stroke="#63b8ff" d="M1085.63,-199.36C1115.19,-186.75 1159.81,-167.71 1185.61,-156.7"/>
<polygon fill="#63b8ff" stroke="#63b8ff" points="1084.05,-196.23 1076.23,-203.37 1086.8,-202.66 1084.05,-196.23"/>
</a>
</g>
</g>
<!-- Node17 -->
<g id="Node000017" class="node">
<title>Node17</title>
<g id="a_Node000017"><a xlink:href="_d_string_item_8h.html" target="_top" xlink:title=" ">
<polygon fill="white" stroke="#666666" points="1405,-156.5 1281,-156.5 1281,-137.5 1405,-137.5 1405,-156.5"/>
<text text-anchor="middle" x="1343" y="-144.5" font-family="Helvetica,sans-Serif" font-size="10.00">Kit/Text/DStringItem.h</text>
</a>
</g>
</g>
<!-- Node16&#45;&gt;Node17 -->
<g id="edge16_Node000016_Node000017" class="edge">
<title>Node16&#45;&gt;Node17</title>
<g id="a_edge16_Node000016_Node000017"><a xlink:title=" ">
<path fill="none" stroke="#63b8ff" d="M1227.81,-199.19C1256.19,-186.58 1298.77,-167.66 1323.43,-156.7"/>
<polygon fill="#63b8ff" stroke="#63b8ff" points="1226.14,-196.11 1218.42,-203.37 1228.98,-202.51 1226.14,-196.11"/>
</a>
</g>
</g>
<!-- Node18 -->
<g id="Node000018" class="node">
<title>Node18</title>
<g id="a_Node000018"><a xlink:href="_f_string_item_8h.html" target="_top" xlink:title=" ">
<polygon fill="white" stroke="#666666" points="1545,-156.5 1423,-156.5 1423,-137.5 1545,-137.5 1545,-156.5"/>
<text text-anchor="middle" x="1484" y="-144.5" font-family="Helvetica,sans-Serif" font-size="10.00">Kit/Text/FStringItem.h</text>
</a>
</g>
</g>
<!-- Node16&#45;&gt;Node18 -->
<g id="edge17_Node000016_Node000018" class="edge">
<title>Node16&#45;&gt;Node18</title>
<g id="a_edge17_Node000016_Node000018"><a xlink:title=" ">
<path fill="none" stroke="#63b8ff" d="M1247.19,-201.18C1303.29,-188.58 1394.8,-168.03 1446.09,-156.51"/>
<polygon fill="#63b8ff" stroke="#63b8ff" points="1246.13,-197.83 1237.14,-203.44 1247.66,-204.66 1246.13,-197.83"/>
</a>
</g>
</g>
<!-- Node20 -->
<g id="Node000020" class="node">
<title>Node20</title>
<g id="a_Node000020"><a xlink:href="_s_list_8h.html" target="_top" xlink:title=" ">
<polygon fill="white" stroke="#666666" points="548,-288.5 432,-288.5 432,-269.5 548,-269.5 548,-288.5"/>
<text text-anchor="middle" x="490" y="-276.5" font-family="Helvetica,sans-Serif" font-size="10.00">Kit/Container/SList.h</text>
</a>
</g>
</g>
<!-- Node19&#45;&gt;Node20 -->
<g id="edge19_Node000019_Node000020" class="edge">
<title>Node19&#45;&gt;Node20</title>
<g id="a_edge19_Node000019_Node000020"><a xlink:title=" ">
<path fill="none" stroke="#63b8ff" d="M490,-319.66C490,-309.24 490,-296.8 490,-288.67"/>
<polygon fill="#63b8ff" stroke="#63b8ff" points="486.5,-319.87 490,-329.87 493.5,-319.87 486.5,-319.87"/>
</a>
</g>
</g>
<!-- Node21 -->
<g id="Node000021" class="node">
<title>Node21</title>
<g id="a_Node000021"><a xlink:href="_tee_output_8h.html" target="_top" xlink:title=" ">
<polygon fill="white" stroke="#666666" points="426,-222.5 322,-222.5 322,-203.5 426,-203.5 426,-222.5"/>
<text text-anchor="middle" x="374" y="-210.5" font-family="Helvetica,sans-Serif" font-size="10.00">Kit/Io/TeeOutput.h</text>
</a>
</g>
</g>
<!-- Node20&#45;&gt;Node21 -->
<g id="edge20_Node000020_Node000021" class="edge">
<title>Node20&#45;&gt;Node21</title>
<g id="a_edge20_Node000020_Node000021"><a xlink:title=" ">
<path fill="none" stroke="#63b8ff" d="M465.58,-264.53C442.73,-251.92 409.28,-233.47 389.77,-222.7"/>
<polygon fill="#63b8ff" stroke="#63b8ff" points="463.91,-267.6 474.36,-269.37 467.29,-261.47 463.91,-267.6"/>
</a>
</g>
</g>
<!-- Node22 -->
<g id="Node000022" class="node">
<title>Node22</title>
<g id="a_Node000022"><a xlink:href="_mailbox_8h.html" target="_top" xlink:title=" ">
<polygon fill="white" stroke="#666666" points="540,-222.5 444,-222.5 444,-203.5 540,-203.5 540,-222.5"/>
<text text-anchor="middle" x="492" y="-210.5" font-family="Helvetica,sans-Serif" font-size="10.00">Kit/Itc/Mailbox.h</text>
</a>
</g>
</g>
<!-- Node20&#45;&gt;Node22 -->
<g id="edge21_Node000020_Node000022" class="edge">
<title>Node20&#45;&gt;Node22</title>
<g id="a_edge21_Node000020_Node000022"><a xlink:title=" ">
<path fill="none" stroke="#63b8ff" d="M490.59,-259.08C490.96,-247.13 491.43,-232.22 491.72,-222.91"/>
<polygon fill="#63b8ff" stroke="#63b8ff" points="487.08,-259.26 490.27,-269.37 494.08,-259.48 487.08,-259.26"/>
</a>
</g>
</g>
<!-- Node20&#45;&gt;Node23 -->
<g id="edge23_Node000020_Node000023" class="edge">
<title>Node20&#45;&gt;Node23</title>
<g id="a_edge23_Node000020_Node000023"><a xlink:title=" ">
<path fill="none" stroke="#63b8ff" d="M446.29,-266.94C396.41,-254.32 315.9,-233.96 270.66,-222.51"/>
<polygon fill="#63b8ff" stroke="#63b8ff" points="445.59,-270.38 456.14,-269.44 447.31,-263.59 445.59,-270.38"/>
</a>
</g>
</g>
<!-- Node24 -->
<g id="Node000024" class="node">
<title>Node24</title>
<g id="a_Node000024"><a xlink:href="_supervisor_8h.html" target="_top" xlink:title=" ">
<polygon fill="white" stroke="#666666" points="679.5,-228 558.5,-228 558.5,-198 679.5,-198 679.5,-228"/>
<text text-anchor="start" x="566.5" y="-216" font-family="Helvetica,sans-Serif" font-size="10.00">Kit/System/Watchdog</text>
<text text-anchor="middle" x="619" y="-205" font-family="Helvetica,sans-Serif" font-size="10.00">/Supervisor.h</text>
</a>
</g>
</g>
<!-- Node20&#45;&gt;Node24 -->
<g id="edge25_Node000020_Node000024" class="edge">
<title>Node20&#45;&gt;Node24</title>
<g id="a_edge25_Node000020_Node000024"><a xlink:title=" ">
<path fill="none" stroke="#63b8ff" d="M516.63,-264.79C538.2,-254.09 568.51,-239.05 590.55,-228.12"/>
<polygon fill="#63b8ff" stroke="#63b8ff" points="514.8,-261.79 507.4,-269.37 517.91,-268.06 514.8,-261.79"/>
</a>
</g>
</g>
<!-- Node22&#45;&gt;Node7 -->
<g id="edge22_Node000022_Node000007" class="edge">
<title>Node22&#45;&gt;Node7</title>
<g id="a_edge22_Node000022_Node000007"><a xlink:title=" ">
<path fill="none" stroke="#63b8ff" d="M462.45,-198.6C447.03,-190.18 429.12,-177.88 418,-162 402.32,-139.6 398.9,-106.09 398.18,-90.52"/>
<polygon fill="#63b8ff" stroke="#63b8ff" points="461.15,-201.87 471.64,-203.35 464.36,-195.65 461.15,-201.87"/>
</a>
</g>
</g>
<!-- Node23&#45;&gt;Node6 -->
<g id="edge24_Node000023_Node000006" class="edge">
<title>Node23&#45;&gt;Node6</title>
<g id="a_edge24_Node000023_Node000006"><a xlink:title=" ">
<path fill="none" stroke="#63b8ff" d="M237,-193.08C237,-181.13 237,-166.22 237,-156.91"/>
<polygon fill="#63b8ff" stroke="#63b8ff" points="233.5,-193.37 237,-203.37 240.5,-193.37 233.5,-193.37"/>
</a>
</g>
</g>
<!-- Node25 -->
<g id="Node000025" class="node">
<title>Node25</title>
<g id="a_Node000025"><a xlink:href="_watched_raw_thread_8h.html" target="_top" xlink:title=" ">
<polygon fill="white" stroke="#666666" points="680.5,-162 555.5,-162 555.5,-132 680.5,-132 680.5,-162"/>
<text text-anchor="start" x="563.5" y="-150" font-family="Helvetica,sans-Serif" font-size="10.00">Kit/System/Watchdog</text>
<text text-anchor="middle" x="618" y="-139" font-family="Helvetica,sans-Serif" font-size="10.00">/WatchedRawThread.h</text>
</a>
</g>
</g>
<!-- Node24&#45;&gt;Node25 -->
<g id="edge26_Node000024_Node000025" class="edge">
<title>Node24&#45;&gt;Node25</title>
<g id="a_edge26_Node000024_Node000025"><a xlink:title=" ">
<path fill="none" stroke="#63b8ff" d="M618.62,-187.54C618.48,-178.96 618.34,-169.61 618.22,-162.16"/>
<polygon fill="#63b8ff" stroke="#63b8ff" points="615.12,-187.85 618.78,-197.8 622.12,-187.74 615.12,-187.85"/>
</a>
</g>
</g>
<!-- Node26&#45;&gt;Node22 -->
<g id="edge28_Node000026_Node000022" class="edge">
<title>Node26&#45;&gt;Node22</title>
<g id="a_edge28_Node000026_Node000022"><a xlink:title=" ">
<path fill="none" stroke="#63b8ff" d="M615.22,-322.14C600.89,-306.59 578.26,-282.86 557,-264 539.53,-248.51 517.77,-232.34 504.38,-222.73"/>
<polygon fill="#63b8ff" stroke="#63b8ff" points="612.93,-324.83 622.26,-329.85 618.1,-320.11 612.93,-324.83"/>
</a>
</g>
</g>
<!-- Node27 -->
<g id="Node000027" class="node">
<title>Node27</title>
<g id="a_Node000027"><a xlink:href="_server_message_8h.html" target="_top" xlink:title=" ">
<polygon fill="white" stroke="#666666" points="937,-288.5 805,-288.5 805,-269.5 937,-269.5 937,-288.5"/>
<text text-anchor="middle" x="871" y="-276.5" font-family="Helvetica,sans-Serif" font-size="10.00">Kit/Itc/ServerMessage.h</text>
</a>
</g>
</g>
<!-- Node26&#45;&gt;Node27 -->
<g id="edge29_Node000026_Node000027" class="edge">
<title>Node26&#45;&gt;Node27</title>
<g id="a_edge29_Node000026_Node000027"><a xlink:title=" ">
<path fill="none" stroke="#63b8ff" d="M674.87,-327.61C721.44,-316.3 793.33,-298.85 835.91,-288.52"/>
<polygon fill="#63b8ff" stroke="#63b8ff" points="673.94,-324.23 665.04,-329.99 675.59,-331.04 673.94,-324.23"/>
</a>
</g>
</g>
<!-- Node28 -->
<g id="Node000028" class="node">
<title>Node28</title>
<g id="a_Node000028"><a xlink:href="_request_message_8h.html" target="_top" xlink:title=" ">
<polygon fill="white" stroke="#666666" points="971,-222.5 831,-222.5 831,-203.5 971,-203.5 971,-222.5"/>
<text text-anchor="middle" x="901" y="-210.5" font-family="Helvetica,sans-Serif" font-size="10.00">Kit/Itc/RequestMessage.h</text>
</a>
</g>
</g>
<!-- Node27&#45;&gt;Node28 -->
<g id="edge30_Node000027_Node000028" class="edge">
<title>Node27&#45;&gt;Node28</title>
<g id="a_edge30_Node000027_Node000028"><a xlink:title=" ">
<path fill="none" stroke="#63b8ff" d="M879.35,-260.18C885.04,-248.05 892.32,-232.51 896.83,-222.91"/>
<polygon fill="#63b8ff" stroke="#63b8ff" points="876.12,-258.83 875.05,-269.37 882.46,-261.8 876.12,-258.83"/>
</a>
</g>
</g>
<!-- Node29 -->
<g id="Node000029" class="node">
<title>Node29</title>
<g id="a_Node000029"><a xlink:href="_i_listener_client_request_8h.html" target="_top" xlink:title=" ">
<polygon fill="white" stroke="#666666" points="888.5,-162 737.5,-162 737.5,-132 888.5,-132 888.5,-162"/>
<text text-anchor="start" x="745.5" y="-150" font-family="Helvetica,sans-Serif" font-size="10.00">Kit/Io/Socket/IListenerClient</text>
<text text-anchor="middle" x="813" y="-139" font-family="Helvetica,sans-Serif" font-size="10.00">Request.h</text>
</a>
</g>
</g>
<!-- Node28&#45;&gt;Node29 -->
<g id="edge31_Node000028_Node000029" class="edge">
<title>Node28&#45;&gt;Node29</title>
<g id="a_edge31_Node000028_Node000029"><a xlink:title=" ">
<path fill="none" stroke="#63b8ff" d="M880.81,-197.32C866.27,-186.74 846.77,-172.56 832.41,-162.12"/>
<polygon fill="#63b8ff" stroke="#63b8ff" points="878.99,-200.32 889.13,-203.37 883.1,-194.66 878.99,-200.32"/>
</a>
</g>
</g>
<!-- Node31 -->
<g id="Node000031" class="node">
<title>Node31</title>
<g id="a_Node000031"><a xlink:href="_i_close_request_8h.html" target="_top" xlink:title=" ">
<polygon fill="#fff0f0" stroke="red" points="1036.5,-90.5 909.5,-90.5 909.5,-71.5 1036.5,-71.5 1036.5,-90.5"/>
<text text-anchor="middle" x="973" y="-78.5" font-family="Helvetica,sans-Serif" font-size="10.00">Kit/Itc/ICloseRequest.h</text>
</a>
</g>
</g>
<!-- Node28&#45;&gt;Node31 -->
<g id="edge33_Node000028_Node000031" class="edge">
<title>Node28&#45;&gt;Node31</title>
<g id="a_edge33_Node000028_Node000031"><a xlink:title=" ">
<path fill="none" stroke="#63b8ff" d="M907.64,-193.71C913.98,-177.12 924.29,-152.23 936,-132 944.87,-116.67 957.56,-100.46 965.54,-90.79"/>
<polygon fill="#63b8ff" stroke="#63b8ff" points="904.29,-192.69 904.07,-203.29 910.85,-195.14 904.29,-192.69"/>
</a>
</g>
</g>
<!-- Node34 -->
<g id="Node000034" class="node">
<title>Node34</title>
<g id="a_Node000034"><a xlink:href="_i_open_request_8h.html" target="_top" xlink:title=" ">
<polygon fill="#fff0f0" stroke="red" points="1181.5,-90.5 1056.5,-90.5 1056.5,-71.5 1181.5,-71.5 1181.5,-90.5"/>
<text text-anchor="middle" x="1119" y="-78.5" font-family="Helvetica,sans-Serif" font-size="10.00">Kit/Itc/IOpenRequest.h</text>
</a>
</g>
</g>
<!-- Node28&#45;&gt;Node34 -->
<g id="edge34_Node000028_Node000034" class="edge">
<title>Node28&#45;&gt;Node34</title>
<g id="a_edge34_Node000028_Node000034"><a xlink:title=" ">
<path fill="none" stroke="#63b8ff" d="M955.97,-201.43C1011.88,-190.2 1091.74,-172.62 1102,-162 1120.94,-142.39 1121.03,-107.2 1119.9,-90.82"/>
<polygon fill="#63b8ff" stroke="#63b8ff" points="954.95,-198.07 945.83,-203.45 956.32,-204.93 954.95,-198.07"/>
</a>
</g>
</g>
<!-- Node36 -->
<g id="Node000036" class="node">
<title>Node36</title>
<g id="a_Node000036"><a xlink:href="_response_message_8h.html" target="_top" xlink:title=" ">
<polygon fill="white" stroke="#666666" points="1093,-156.5 945,-156.5 945,-137.5 1093,-137.5 1093,-156.5"/>
<text text-anchor="middle" x="1019" y="-144.5" font-family="Helvetica,sans-Serif" font-size="10.00">Kit/Itc/ResponseMessage.h</text>
</a>
</g>
</g>
<!-- Node28&#45;&gt;Node36 -->
<g id="edge35_Node000028_Node000036" class="edge">
<title>Node28&#45;&gt;Node36</title>
<g id="a_edge35_Node000028_Node000036"><a xlink:title=" ">
<path fill="none" stroke="#63b8ff" d="M925.84,-198.53C949.08,-185.92 983.11,-167.47 1002.96,-156.7"/>
<polygon fill="#63b8ff" stroke="#63b8ff" points="924.04,-195.52 916.91,-203.37 927.37,-201.68 924.04,-195.52"/>
</a>
</g>
</g>
<!-- Node30 -->
<g id="Node000030" class="node">
<title>Node30</title>
<g id="a_Node000030"><a xlink:href="_listener_client_sync_8h.html" target="_top" xlink:title=" ">
<polygon fill="white" stroke="#666666" points="887,-96 739,-96 739,-66 887,-66 887,-96"/>
<text text-anchor="start" x="747" y="-84" font-family="Helvetica,sans-Serif" font-size="10.00">Kit/Io/Socket/ListenerClient</text>
<text text-anchor="middle" x="813" y="-73" font-family="Helvetica,sans-Serif" font-size="10.00">Sync.h</text>
</a>
</g>
</g>
<!-- Node29&#45;&gt;Node30 -->
<g id="edge32_Node000029_Node000030" class="edge">
<title>Node29&#45;&gt;Node30</title>
<g id="a_edge32_Node000029_Node000030"><a xlink:title=" ">
<path fill="none" stroke="#63b8ff" d="M813,-121.54C813,-112.96 813,-103.61 813,-96.16"/>
<polygon fill="#63b8ff" stroke="#63b8ff" points="809.5,-121.8 813,-131.8 816.5,-121.8 809.5,-121.8"/>
</a>
</g>
</g>
<!-- Node36&#45;&gt;Node31 -->
<g id="edge36_Node000036_Node000031" class="edge">
<title>Node36&#45;&gt;Node31</title>
<g id="a_edge36_Node000036_Node000031"><a xlink:title=" ">
<path fill="none" stroke="#63b8ff" d="M1006.72,-128.91C997.92,-116.68 986.44,-100.7 979.4,-90.91"/>
<polygon fill="#63b8ff" stroke="#63b8ff" points="1004.12,-131.29 1012.8,-137.37 1009.8,-127.21 1004.12,-131.29"/>
</a>
</g>
</g>
<!-- Node36&#45;&gt;Node34 -->
<g id="edge37_Node000036_Node000034" class="edge">
<title>Node36&#45;&gt;Node34</title>
<g id="a_edge37_Node000036_Node000034"><a xlink:title=" ">
<path fill="none" stroke="#63b8ff" d="M1041.11,-131.85C1060.77,-119.27 1088.88,-101.28 1105.41,-90.7"/>
<polygon fill="#63b8ff" stroke="#63b8ff" points="1039.02,-129.03 1032.49,-137.37 1042.8,-134.93 1039.02,-129.03"/>
</a>
</g>
</g>
<!-- Node37&#45;&gt;Node5 -->
<g id="edge39_Node000037_Node000005" class="edge">
<title>Node37&#45;&gt;Node5</title>
<g id="a_edge39_Node000037_Node000005"><a xlink:title=" ">
<path fill="none" stroke="#63b8ff" d="M264.6,-324.76C220.63,-298.94 126.86,-243.87 90.67,-222.62"/>
<polygon fill="#63b8ff" stroke="#63b8ff" points="263.03,-327.9 273.43,-329.94 266.58,-321.86 263.03,-327.9"/>
</a>
</g>
</g>
<!-- Node40 -->
<g id="Node000040" class="node">
<title>Node40</title>
<g id="a_Node000040"><a xlink:href="_fatal_error_8h.html" target="_top" xlink:title=" ">
<polygon fill="white" stroke="#666666" points="1344,-288.5 1216,-288.5 1216,-269.5 1344,-269.5 1344,-288.5"/>
<text text-anchor="middle" x="1280" y="-276.5" font-family="Helvetica,sans-Serif" font-size="10.00">Kit/System/FatalError.h</text>
</a>
</g>
</g>
<!-- Node39&#45;&gt;Node40 -->
<g id="edge43_Node000039_Node000040" class="edge">
<title>Node39&#45;&gt;Node40</title>
<g id="a_edge43_Node000039_Node000040"><a xlink:title=" ">
<path fill="none" stroke="#63b8ff" d="M1227.54,-323.22C1240.9,-312.21 1258.45,-297.75 1269.48,-288.67"/>
<polygon fill="#63b8ff" stroke="#63b8ff" points="1224.97,-320.81 1219.48,-329.87 1229.42,-326.21 1224.97,-320.81"/>
</a>
</g>
</g>
<!-- Node41 -->
<g id="Node000041" class="node">
<title>Node41</title>
<g id="a_Node000041"><a xlink:href="_posix_2mappings_8h.html" target="_top" xlink:title="This file provides the mappings for Platform specific types, etc.">
<polygon fill="white" stroke="#666666" points="1434.5,-222.5 1275.5,-222.5 1275.5,-203.5 1434.5,-203.5 1434.5,-222.5"/>
<text text-anchor="middle" x="1355" y="-210.5" font-family="Helvetica,sans-Serif" font-size="10.00">Kit/System/Posix/mappings.h</text>
</a>
</g>
</g>
<!-- Node40&#45;&gt;Node41 -->
<g id="edge44_Node000040_Node000041" class="edge">
<title>Node40&#45;&gt;Node41</title>
<g id="a_edge44_Node000040_Node000041"><a xlink:title=" ">
<path fill="none" stroke="#63b8ff" d="M1297.95,-262.68C1312.51,-250.26 1332.52,-233.18 1344.56,-222.91"/>
<polygon fill="#63b8ff" stroke="#63b8ff" points="1295.45,-260.22 1290.11,-269.37 1299.99,-265.54 1295.45,-260.22"/>
</a>
</g>
</g>
<!-- Node42 -->
<g id="Node000042" class="node">
<title>Node42</title>
<g id="a_Node000042"><a xlink:href="_win32_2mappings_8h.html" target="_top" xlink:title="This file provides the mappings for Platform specific types, etc.">
<polygon fill="white" stroke="#666666" points="1617,-222.5 1453,-222.5 1453,-203.5 1617,-203.5 1617,-222.5"/>
<text text-anchor="middle" x="1535" y="-210.5" font-family="Helvetica,sans-Serif" font-size="10.00">Kit/System/Win32/mappings.h</text>
</a>
</g>
</g>
<!-- Node40&#45;&gt;Node42 -->
<g id="edge45_Node000040_Node000042" class="edge">
<title>Node40&#45;&gt;Node42</title>
<g id="a_edge45_Node000040_Node000042"><a xlink:title=" ">
<path fill="none" stroke="#63b8ff" d="M1324.06,-266.94C1374.33,-254.32 1455.47,-233.96 1501.08,-222.51"/>
<polygon fill="#63b8ff" stroke="#63b8ff" points="1322.97,-263.61 1314.13,-269.44 1324.68,-270.4 1322.97,-263.61"/>
</a>
</g>
</g>
<!-- Node44 -->
<g id="Node000044" class="node">
<title>Node44</title>
<g id="a_Node000044"><a xlink:href="_serial_2_r_pi_2_r_p2xxx_2_uart_2_input_output_8h.html" target="_top" xlink:title=" ">
<polygon fill="white" stroke="#666666" points="1493.5,-294 1362.5,-294 1362.5,-264 1493.5,-264 1493.5,-294"/>
<text text-anchor="start" x="1370.5" y="-282" font-family="Helvetica,sans-Serif" font-size="10.00">Kit/Io/Serial/RPi/RP2xxx</text>
<text text-anchor="middle" x="1428" y="-271" font-family="Helvetica,sans-Serif" font-size="10.00">/Uart/InputOutput.h</text>
</a>
</g>
</g>
<!-- Node43&#45;&gt;Node44 -->
<g id="edge47_Node000043_Node000044" class="edge">
<title>Node43&#45;&gt;Node44</title>
<g id="a_edge47_Node000043_Node000044"><a xlink:title=" ">
<path fill="none" stroke="#63b8ff" d="M1815.77,-331.95C1739.38,-324.29 1612.01,-310.52 1503,-294 1499.99,-293.54 1496.91,-293.06 1493.81,-292.55"/>
<polygon fill="#63b8ff" stroke="#63b8ff" points="1815.44,-335.43 1825.74,-332.94 1816.14,-328.47 1815.44,-335.43"/>
</a>
</g>
</g>
<!-- Node45 -->
<g id="Node000045" class="node">
<title>Node45</title>
<g id="a_Node000045"><a xlink:href="_stream_driver_8h.html" target="_top" xlink:title=" ">
<polygon fill="white" stroke="#666666" points="1636,-294 1512,-294 1512,-264 1636,-264 1636,-294"/>
<text text-anchor="start" x="1520" y="-282" font-family="Helvetica,sans-Serif" font-size="10.00">Kit/Io/Serial/ST/M32F4</text>
<text text-anchor="middle" x="1574" y="-271" font-family="Helvetica,sans-Serif" font-size="10.00">/StreamDriver.h</text>
</a>
</g>
</g>
<!-- Node43&#45;&gt;Node45 -->
<g id="edge48_Node000043_Node000045" class="edge">
<title>Node43&#45;&gt;Node45</title>
<g id="a_edge48_Node000043_Node000045"><a xlink:title=" ">
<path fill="none" stroke="#63b8ff" d="M1827.28,-328.11C1778.84,-319.2 1707.31,-305.94 1645,-294 1642.16,-293.46 1639.26,-292.9 1636.33,-292.33"/>
<polygon fill="#63b8ff" stroke="#63b8ff" points="1826.79,-331.58 1837.26,-329.95 1828.06,-324.7 1826.79,-331.58"/>
</a>
</g>
</g>
<!-- Node47 -->
<g id="Node000047" class="node">
<title>Node47</title>
<g id="a_Node000047"><a xlink:href="_sync_return_handler_8h.html" target="_top" xlink:title=" ">
<polygon fill="white" stroke="#666666" points="1804,-288.5 1654,-288.5 1654,-269.5 1804,-269.5 1804,-288.5"/>
<text text-anchor="middle" x="1729" y="-276.5" font-family="Helvetica,sans-Serif" font-size="10.00">Kit/Itc/SyncReturnHandler.h</text>
</a>
</g>
</g>
<!-- Node43&#45;&gt;Node47 -->
<g id="edge50_Node000043_Node000047" class="edge">
<title>Node43&#45;&gt;Node47</title>
<g id="a_edge50_Node000043_Node000047"><a xlink:title=" ">
<path fill="none" stroke="#63b8ff" d="M1851.88,-326.38C1821.92,-315.07 1777.98,-298.49 1751.57,-288.52"/>
<polygon fill="#63b8ff" stroke="#63b8ff" points="1850.87,-329.74 1861.46,-329.99 1853.34,-323.19 1850.87,-329.74"/>
</a>
</g>
</g>
<!-- Node48 -->
<g id="Node000048" class="node">
<title>Node48</title>
<g id="a_Node000048"><a xlink:href="_bare_metal_2_thread_8h.html" target="_top" xlink:title=" ">
<polygon fill="white" stroke="#666666" points="1945.5,-294 1822.5,-294 1822.5,-264 1945.5,-264 1945.5,-294"/>
<text text-anchor="start" x="1830.5" y="-282" font-family="Helvetica,sans-Serif" font-size="10.00">Kit/System/BareMetal</text>
<text text-anchor="middle" x="1884" y="-271" font-family="Helvetica,sans-Serif" font-size="10.00">/Thread.h</text>
</a>
</g>
</g>
<!-- Node43&#45;&gt;Node48 -->
<g id="edge51_Node000043_Node000048" class="edge">
<title>Node43&#45;&gt;Node48</title>
<g id="a_edge51_Node000043_Node000048"><a xlink:title=" ">
<path fill="none" stroke="#63b8ff" d="M1884,-319.65C1884,-311.36 1884,-301.78 1884,-294.11"/>
<polygon fill="#63b8ff" stroke="#63b8ff" points="1880.5,-319.87 1884,-329.87 1887.5,-319.87 1880.5,-319.87"/>
</a>
</g>
</g>
<!-- Node49 -->
<g id="Node000049" class="node">
<title>Node49</title>
<g id="a_Node000049"><a xlink:href="_free_r_t_o_s_2_thread_8h.html" target="_top" xlink:title=" ">
<polygon fill="white" stroke="#666666" points="2082.5,-294 1963.5,-294 1963.5,-264 2082.5,-264 2082.5,-294"/>
<text text-anchor="start" x="1971.5" y="-282" font-family="Helvetica,sans-Serif" font-size="10.00">Kit/System/FreeRTOS</text>
<text text-anchor="middle" x="2023" y="-271" font-family="Helvetica,sans-Serif" font-size="10.00">/Thread.h</text>
</a>
</g>
</g>
<!-- Node43&#45;&gt;Node49 -->
<g id="edge52_Node000043_Node000049" class="edge">
<title>Node43&#45;&gt;Node49</title>
<g id="a_edge52_Node000043_Node000049"><a xlink:title=" ">
<path fill="none" stroke="#63b8ff" d="M1913.51,-326.08C1935.79,-316.7 1966.4,-303.82 1989.58,-294.06"/>
<polygon fill="#63b8ff" stroke="#63b8ff" points="1912.07,-322.89 1904.21,-329.99 1914.79,-329.34 1912.07,-322.89"/>
</a>
</g>
</g>
<!-- Node50 -->
<g id="Node000050" class="node">
<title>Node50</title>
<g id="a_Node000050"><a xlink:href="_posix_2_thread_8h.html" target="_top" xlink:title=" ">
<polygon fill="white" stroke="#666666" points="2245.5,-288.5 2100.5,-288.5 2100.5,-269.5 2245.5,-269.5 2245.5,-288.5"/>
<text text-anchor="middle" x="2173" y="-276.5" font-family="Helvetica,sans-Serif" font-size="10.00">Kit/System/Posix/Thread.h</text>
</a>
</g>
</g>
<!-- Node43&#45;&gt;Node50 -->
<g id="edge53_Node000043_Node000050" class="edge">
<title>Node43&#45;&gt;Node50</title>
<g id="a_edge53_Node000043_Node000050"><a xlink:title=" ">
<path fill="none" stroke="#63b8ff" d="M1936.06,-327.96C1991.84,-316.67 2079.32,-298.96 2130.93,-288.52"/>
<polygon fill="#63b8ff" stroke="#63b8ff" points="1935.13,-324.58 1926.02,-329.99 1936.52,-331.44 1935.13,-324.58"/>
</a>
</g>
</g>
<!-- Node43&#45;&gt;Node51 -->
<g id="edge54_Node000043_Node000051" class="edge">
<title>Node43&#45;&gt;Node51</title>
<g id="a_edge54_Node000043_Node000051"><a xlink:title=" ">
<path fill="none" stroke="#63b8ff" d="M1952.45,-335.35C2054.78,-330.06 2253.53,-317.61 2421,-294 2431.19,-292.56 2442.13,-290.59 2452.26,-288.57"/>
<polygon fill="#63b8ff" stroke="#63b8ff" points="1952.06,-331.86 1942.25,-335.87 1952.42,-338.85 1952.06,-331.86"/>
</a>
</g>
</g>
<!-- Node52 -->
<g id="Node000052" class="node">
<title>Node52</title>
<g id="a_Node000052"><a xlink:href="_win32_2_thread_8h.html" target="_top" xlink:title=" ">
<polygon fill="white" stroke="#666666" points="2412.5,-288.5 2263.5,-288.5 2263.5,-269.5 2412.5,-269.5 2412.5,-288.5"/>
<text text-anchor="middle" x="2338" y="-276.5" font-family="Helvetica,sans-Serif" font-size="10.00">Kit/System/Win32/Thread.h</text>
</a>
</g>
</g>
<!-- Node43&#45;&gt;Node52 -->
<g id="edge55_Node000043_Node000052" class="edge">
<title>Node43&#45;&gt;Node52</title>
<g id="a_edge55_Node000043_Node000052"><a xlink:title=" ">
<path fill="none" stroke="#63b8ff" d="M1952.27,-331.23C2026.61,-323.09 2148.95,-309.06 2254,-294 2265.42,-292.36 2277.67,-290.42 2289.2,-288.52"/>
<polygon fill="#63b8ff" stroke="#63b8ff" points="1951.67,-327.77 1942.1,-332.34 1952.43,-334.73 1951.67,-327.77"/>
</a>
</g>
</g>
<!-- Node46 -->
<g id="Node000046" class="node">
<title>Node46</title>
<g id="a_Node000046"><a xlink:href="_serial_2_s_t_2_m32_f4_2_input_output_8h.html" target="_top" xlink:title=" ">
<polygon fill="white" stroke="#666666" points="1759,-228 1635,-228 1635,-198 1759,-198 1759,-228"/>
<text text-anchor="start" x="1643" y="-216" font-family="Helvetica,sans-Serif" font-size="10.00">Kit/Io/Serial/ST/M32F4</text>
<text text-anchor="middle" x="1697" y="-205" font-family="Helvetica,sans-Serif" font-size="10.00">/InputOutput.h</text>
</a>
</g>
</g>
<!-- Node45&#45;&gt;Node46 -->
<g id="edge49_Node000045_Node000046" class="edge">
<title>Node45&#45;&gt;Node46</title>
<g id="a_edge49_Node000045_Node000046"><a xlink:title=" ">
<path fill="none" stroke="#63b8ff" d="M1610.05,-259.24C1629.25,-249.25 1652.46,-237.18 1670.07,-228.01"/>
<polygon fill="#63b8ff" stroke="#63b8ff" points="1608.25,-256.23 1600.99,-263.95 1611.48,-262.44 1608.25,-256.23"/>
</a>
</g>
</g>
<!-- Node53&#45;&gt;Node11 -->
<g id="edge58_Node000053_Node000011" class="edge">
<title>Node53&#45;&gt;Node11</title>
<g id="a_edge58_Node000053_Node000011"><a xlink:title=" ">
<path fill="none" stroke="#63b8ff" d="M712.63,-253.64C715.93,-222.09 716.68,-167 689,-132 676.46,-116.15 657.42,-104.35 640.44,-96.2"/>
<polygon fill="#63b8ff" stroke="#63b8ff" points="709.14,-253.4 711.41,-263.75 716.09,-254.24 709.14,-253.4"/>
</a>
</g>
</g>
<!-- Node53&#45;&gt;Node24 -->
<g id="edge57_Node000053_Node000024" class="edge">
<title>Node53&#45;&gt;Node24</title>
<g id="a_edge57_Node000053_Node000024"><a xlink:title=" ">
<path fill="none" stroke="#63b8ff" d="M680.53,-257.75C666.99,-248.13 651.14,-236.86 638.92,-228.16"/>
<polygon fill="#63b8ff" stroke="#63b8ff" points="678.85,-260.85 689.03,-263.8 682.9,-255.15 678.85,-260.85"/>
</a>
</g>
</g>
<!-- Node53&#45;&gt;Node25 -->
<g id="edge59_Node000053_Node000025" class="edge">
<title>Node53&#45;&gt;Node25</title>
<g id="a_edge59_Node000053_Node000025"><a xlink:title=" ">
<path fill="none" stroke="#63b8ff" d="M706.97,-253.61C704.58,-236.75 699.37,-214.49 688,-198 677.49,-182.75 660.74,-170.55 646.26,-162.01"/>
<polygon fill="#63b8ff" stroke="#63b8ff" points="703.53,-254.26 708.17,-263.79 710.48,-253.44 703.53,-254.26"/>
</a>
</g>
</g>
</g>
</svg>
