<?xml version="1.0" encoding="UTF-8" standalone="no"?>
<!DOCTYPE svg PUBLIC "-//W3C//DTD SVG 1.1//EN"
 "http://www.w3.org/Graphics/SVG/1.1/DTD/svg11.dtd">
<!-- Generated by graphviz version 2.43.0 (0)
 -->
<!-- Title: Kit/Container/Item.h Pages: 1 -->
<svg width="1913pt" height="522pt"
 viewBox="0.00 0.00 1912.50 522.00" xmlns="http://www.w3.org/2000/svg" xmlns:xlink="http://www.w3.org/1999/xlink">
<g id="graph0" class="graph" transform="scale(1 1) rotate(0) translate(4 518)">
<title>Kit/Container/Item.h</title>
<!-- Node1 -->
<g id="Node000001" class="node">
<title>Node1</title>
<g id="a_Node000001"><a xlink:title=" ">
<polygon fill="#999999" stroke="#666666" points="1193.5,-514 1078.5,-514 1078.5,-495 1193.5,-495 1193.5,-514"/>
<text text-anchor="middle" x="1136" y="-502" font-family="Helvetica,sans-Serif" font-size="10.00">Kit/Container/Item.h</text>
</a>
</g>
</g>
<!-- Node2 -->
<g id="Node000002" class="node">
<title>Node2</title>
<g id="a_Node000002"><a xlink:href="_list_item_8h.html" target="_top" xlink:title=" ">
<polygon fill="white" stroke="#666666" points="776,-459 644,-459 644,-440 776,-440 776,-459"/>
<text text-anchor="middle" x="710" y="-447" font-family="Helvetica,sans-Serif" font-size="10.00">Kit/Container/ListItem.h</text>
</a>
</g>
</g>
<!-- Node1&#45;&gt;Node2 -->
<g id="edge1_Node000001_Node000002" class="edge">
<title>Node1&#45;&gt;Node2</title>
<g id="a_edge1_Node000001_Node000002"><a xlink:title=" ">
<path fill="none" stroke="#63b8ff" d="M1068.12,-495.05C987.97,-485.08 855.56,-468.61 776.17,-458.73"/>
<polygon fill="#63b8ff" stroke="#63b8ff" points="1067.75,-498.54 1078.1,-496.3 1068.61,-491.59 1067.75,-498.54"/>
</a>
</g>
</g>
<!-- Node45 -->
<g id="Node000045" class="node">
<title>Node45</title>
<g id="a_Node000045"><a xlink:href="_sim_tick_8h.html" target="_top" xlink:title=" ">
<polygon fill="white" stroke="#666666" points="1904.5,-343.5 1783.5,-343.5 1783.5,-324.5 1904.5,-324.5 1904.5,-343.5"/>
<text text-anchor="middle" x="1844" y="-331.5" font-family="Helvetica,sans-Serif" font-size="10.00">Kit/System/SimTick.h</text>
</a>
</g>
</g>
<!-- Node1&#45;&gt;Node45 -->
<g id="edge58_Node000001_Node000045" class="edge">
<title>Node1&#45;&gt;Node45</title>
<g id="a_edge58_Node000001_Node000045"><a xlink:title=" ">
<path fill="none" stroke="#63b8ff" d="M1188.99,-492.93C1274.37,-475.68 1447.53,-439.8 1593,-404 1673.75,-384.13 1768.09,-357.18 1814.77,-343.59"/>
<polygon fill="#63b8ff" stroke="#63b8ff" points="1188.13,-489.53 1179.02,-494.94 1189.52,-496.39 1188.13,-489.53"/>
</a>
</g>
</g>
<!-- Node3 -->
<g id="Node000003" class="node">
<title>Node3</title>
<g id="a_Node000003"><a xlink:href="_d_list_base_8h.html" target="_top" xlink:title=" ">
<polygon fill="white" stroke="#666666" points="188.5,-404 47.5,-404 47.5,-385 188.5,-385 188.5,-404"/>
<text text-anchor="middle" x="118" y="-392" font-family="Helvetica,sans-Serif" font-size="10.00">Kit/Container/DListBase.h</text>
</a>
</g>
</g>
<!-- Node2&#45;&gt;Node3 -->
<g id="edge2_Node000002_Node000003" class="edge">
<title>Node2&#45;&gt;Node3</title>
<g id="a_edge2_Node000002_Node000003"><a xlink:title=" ">
<path fill="none" stroke="#63b8ff" d="M633.65,-441.66C518.21,-431.33 300.87,-411.87 188.8,-401.84"/>
<polygon fill="#63b8ff" stroke="#63b8ff" points="633.54,-445.17 643.81,-442.57 634.17,-438.2 633.54,-445.17"/>
</a>
</g>
</g>
<!-- Node12 -->
<g id="Node000012" class="node">
<title>Node12</title>
<g id="a_Node000012"><a xlink:href="_keyed_item_8h.html" target="_top" xlink:title=" ">
<polygon fill="white" stroke="#666666" points="883.5,-404 738.5,-404 738.5,-385 883.5,-385 883.5,-404"/>
<text text-anchor="middle" x="811" y="-392" font-family="Helvetica,sans-Serif" font-size="10.00">Kit/Container/KeyedItem.h</text>
</a>
</g>
</g>
<!-- Node2&#45;&gt;Node12 -->
<g id="edge11_Node000002_Node000012" class="edge">
<title>Node2&#45;&gt;Node12</title>
<g id="a_edge11_Node000002_Node000012"><a xlink:title=" ">
<path fill="none" stroke="#63b8ff" d="M735.28,-435.23C753.8,-425.51 778.42,-412.6 794.48,-404.17"/>
<polygon fill="#63b8ff" stroke="#63b8ff" points="733.46,-432.24 726.23,-439.98 736.71,-438.44 733.46,-432.24"/>
</a>
</g>
</g>
<!-- Node19 -->
<g id="Node000019" class="node">
<title>Node19</title>
<g id="a_Node000019"><a xlink:href="_s_list_base_8h.html" target="_top" xlink:title=" ">
<polygon fill="white" stroke="#666666" points="560,-404 420,-404 420,-385 560,-385 560,-404"/>
<text text-anchor="middle" x="490" y="-392" font-family="Helvetica,sans-Serif" font-size="10.00">Kit/Container/SListBase.h</text>
</a>
</g>
</g>
<!-- Node2&#45;&gt;Node19 -->
<g id="edge18_Node000002_Node000019" class="edge">
<title>Node2&#45;&gt;Node19</title>
<g id="a_edge18_Node000002_Node000019"><a xlink:title=" ">
<path fill="none" stroke="#63b8ff" d="M664.87,-437.63C623.66,-427.7 563.55,-413.22 525.62,-404.08"/>
<polygon fill="#63b8ff" stroke="#63b8ff" points="664.11,-441.05 674.65,-439.98 665.75,-434.24 664.11,-441.05"/>
</a>
</g>
</g>
<!-- Node23 -->
<g id="Node000023" class="node">
<title>Node23</title>
<g id="a_Node000023"><a xlink:href="_i_event_flag_8h.html" target="_top" xlink:title=" ">
<polygon fill="white" stroke="#666666" points="304,-277.5 170,-277.5 170,-258.5 304,-258.5 304,-277.5"/>
<text text-anchor="middle" x="237" y="-265.5" font-family="Helvetica,sans-Serif" font-size="10.00">Kit/System/IEventFlag.h</text>
</a>
</g>
</g>
<!-- Node2&#45;&gt;Node23 -->
<g id="edge43_Node000002_Node000023" class="edge">
<title>Node2&#45;&gt;Node23</title>
<g id="a_edge43_Node000002_Node000023"><a xlink:title=" ">
<path fill="none" stroke="#63b8ff" d="M633.7,-447.73C571.5,-444.66 482.55,-434.57 411,-404 337.52,-372.6 268.04,-302.49 245.01,-277.81"/>
<polygon fill="#63b8ff" stroke="#63b8ff" points="633.69,-451.24 643.83,-448.18 634,-444.24 633.69,-451.24"/>
</a>
</g>
</g>
<!-- Node26 -->
<g id="Node000026" class="node">
<title>Node26</title>
<g id="a_Node000026"><a xlink:href="_i_message_8h.html" target="_top" xlink:title=" ">
<polygon fill="white" stroke="#666666" points="682,-404 578,-404 578,-385 682,-385 682,-404"/>
<text text-anchor="middle" x="630" y="-392" font-family="Helvetica,sans-Serif" font-size="10.00">Kit/Itc/IMessage.h</text>
</a>
</g>
</g>
<!-- Node2&#45;&gt;Node26 -->
<g id="edge27_Node000002_Node000026" class="edge">
<title>Node2&#45;&gt;Node26</title>
<g id="a_edge27_Node000002_Node000026"><a xlink:title=" ">
<path fill="none" stroke="#63b8ff" d="M688.75,-434.42C674.24,-424.81 655.46,-412.37 643.09,-404.17"/>
<polygon fill="#63b8ff" stroke="#63b8ff" points="686.88,-437.38 697.15,-439.98 690.74,-431.54 686.88,-437.38"/>
</a>
</g>
</g>
<!-- Node36 -->
<g id="Node000036" class="node">
<title>Node36</title>
<g id="a_Node000036"><a xlink:href="_i_counter_8h.html" target="_top" xlink:title=" ">
<polygon fill="white" stroke="#666666" points="349,-404 227,-404 227,-385 349,-385 349,-404"/>
<text text-anchor="middle" x="288" y="-392" font-family="Helvetica,sans-Serif" font-size="10.00">Kit/System/ICounter.h</text>
</a>
</g>
</g>
<!-- Node2&#45;&gt;Node36 -->
<g id="edge41_Node000002_Node000036" class="edge">
<title>Node2&#45;&gt;Node36</title>
<g id="a_edge41_Node000002_Node000036"><a xlink:title=" ">
<path fill="none" stroke="#63b8ff" d="M633.39,-438.88C551.82,-428.63 424.36,-412.63 349.22,-403.19"/>
<polygon fill="#63b8ff" stroke="#63b8ff" points="633.24,-442.39 643.6,-440.16 634.11,-435.44 633.24,-442.39"/>
</a>
</g>
</g>
<!-- Node37 -->
<g id="Node000037" class="node">
<title>Node37</title>
<g id="a_Node000037"><a xlink:href="_private_startup_8h.html" target="_top" xlink:title=" ">
<polygon fill="white" stroke="#666666" points="1054,-404 902,-404 902,-385 1054,-385 1054,-404"/>
<text text-anchor="middle" x="978" y="-392" font-family="Helvetica,sans-Serif" font-size="10.00">Kit/System/PrivateStartup.h</text>
</a>
</g>
</g>
<!-- Node2&#45;&gt;Node37 -->
<g id="edge44_Node000002_Node000037" class="edge">
<title>Node2&#45;&gt;Node37</title>
<g id="a_edge44_Node000002_Node000037"><a xlink:title=" ">
<path fill="none" stroke="#63b8ff" d="M763.08,-438C813.32,-428.07 887.82,-413.33 934.6,-404.08"/>
<polygon fill="#63b8ff" stroke="#63b8ff" points="762.19,-434.61 753.06,-439.98 763.55,-441.48 762.19,-434.61"/>
</a>
</g>
</g>
<!-- Node38 -->
<g id="Node000038" class="node">
<title>Node38</title>
<g id="a_Node000038"><a xlink:href="_shutdown_8h.html" target="_top" xlink:title=" ">
<polygon fill="white" stroke="#666666" points="1235,-404 1105,-404 1105,-385 1235,-385 1235,-404"/>
<text text-anchor="middle" x="1170" y="-392" font-family="Helvetica,sans-Serif" font-size="10.00">Kit/System/Shutdown.h</text>
</a>
</g>
</g>
<!-- Node2&#45;&gt;Node38 -->
<g id="edge45_Node000002_Node000038" class="edge">
<title>Node2&#45;&gt;Node38</title>
<g id="a_edge45_Node000002_Node000038"><a xlink:title=" ">
<path fill="none" stroke="#63b8ff" d="M786.43,-439.69C875.4,-429.44 1020.84,-412.69 1104.74,-403.02"/>
<polygon fill="#63b8ff" stroke="#63b8ff" points="785.93,-436.23 776.4,-440.85 786.73,-443.18 785.93,-436.23"/>
</a>
</g>
</g>
<!-- Node42 -->
<g id="Node000042" class="node">
<title>Node42</title>
<g id="a_Node000042"><a xlink:href="_thread_8h.html" target="_top" xlink:title=" ">
<polygon fill="white" stroke="#666666" points="1584,-404 1468,-404 1468,-385 1584,-385 1584,-404"/>
<text text-anchor="middle" x="1526" y="-392" font-family="Helvetica,sans-Serif" font-size="10.00">Kit/System/Thread.h</text>
</a>
</g>
</g>
<!-- Node2&#45;&gt;Node42 -->
<g id="edge49_Node000002_Node000042" class="edge">
<title>Node2&#45;&gt;Node42</title>
<g id="a_edge49_Node000002_Node000042"><a xlink:title=" ">
<path fill="none" stroke="#63b8ff" d="M786.45,-443.53C948.51,-433.01 1323.54,-408.65 1467.9,-399.27"/>
<polygon fill="#63b8ff" stroke="#63b8ff" points="785.84,-440.07 776.09,-444.21 786.29,-447.05 785.84,-440.07"/>
</a>
</g>
</g>
<!-- Node47 -->
<g id="Node000047" class="node">
<title>Node47</title>
<g id="a_Node000047"><a xlink:href="_watched_thread_8h.html" target="_top" xlink:title=" ">
<polygon fill="white" stroke="#666666" points="769.5,-349 648.5,-349 648.5,-319 769.5,-319 769.5,-349"/>
<text text-anchor="start" x="656.5" y="-337" font-family="Helvetica,sans-Serif" font-size="10.00">Kit/System/Watchdog</text>
<text text-anchor="middle" x="709" y="-326" font-family="Helvetica,sans-Serif" font-size="10.00">/WatchedThread.h</text>
</a>
</g>
</g>
<!-- Node2&#45;&gt;Node47 -->
<g id="edge54_Node000002_Node000047" class="edge">
<title>Node2&#45;&gt;Node47</title>
<g id="a_edge54_Node000002_Node000047"><a xlink:title=" ">
<path fill="none" stroke="#63b8ff" d="M709.84,-429.96C709.64,-407.34 709.3,-369.61 709.12,-349.18"/>
<polygon fill="#63b8ff" stroke="#63b8ff" points="706.34,-430 709.92,-439.97 713.34,-429.94 706.34,-430"/>
</a>
</g>
</g>
<!-- Node4 -->
<g id="Node000004" class="node">
<title>Node4</title>
<g id="a_Node000004"><a xlink:href="_d_list_8h.html" target="_top" xlink:title=" ">
<polygon fill="white" stroke="#666666" points="137.5,-343.5 20.5,-343.5 20.5,-324.5 137.5,-324.5 137.5,-343.5"/>
<text text-anchor="middle" x="79" y="-331.5" font-family="Helvetica,sans-Serif" font-size="10.00">Kit/Container/DList.h</text>
</a>
</g>
</g>
<!-- Node3&#45;&gt;Node4 -->
<g id="edge3_Node000003_Node000004" class="edge">
<title>Node3&#45;&gt;Node4</title>
<g id="a_edge3_Node000003_Node000004"><a xlink:title=" ">
<path fill="none" stroke="#63b8ff" d="M106.54,-376.3C99.39,-365.58 90.49,-352.23 84.78,-343.67"/>
<polygon fill="#63b8ff" stroke="#63b8ff" points="103.79,-378.49 112.25,-384.87 109.61,-374.61 103.79,-378.49"/>
</a>
</g>
</g>
<!-- Node5 -->
<g id="Node000005" class="node">
<title>Node5</title>
<g id="a_Node000005"><a xlink:href="_timer_manager_8h.html" target="_top" xlink:title=" ">
<polygon fill="white" stroke="#666666" points="152,-277.5 0,-277.5 0,-258.5 152,-258.5 152,-277.5"/>
<text text-anchor="middle" x="76" y="-265.5" font-family="Helvetica,sans-Serif" font-size="10.00">Kit/System/TimerManager.h</text>
</a>
</g>
</g>
<!-- Node4&#45;&gt;Node5 -->
<g id="edge4_Node000004_Node000005" class="edge">
<title>Node4&#45;&gt;Node5</title>
<g id="a_edge4_Node000004_Node000005"><a xlink:title=" ">
<path fill="none" stroke="#63b8ff" d="M78.11,-314.08C77.55,-302.13 76.85,-287.22 76.42,-277.91"/>
<polygon fill="#63b8ff" stroke="#63b8ff" points="74.63,-314.54 78.6,-324.37 81.62,-314.22 74.63,-314.54"/>
</a>
</g>
</g>
<!-- Node6 -->
<g id="Node000006" class="node">
<title>Node6</title>
<g id="a_Node000006"><a xlink:href="_event_loop_8h.html" target="_top" xlink:title=" ">
<polygon fill="white" stroke="#666666" points="303.5,-211.5 170.5,-211.5 170.5,-192.5 303.5,-192.5 303.5,-211.5"/>
<text text-anchor="middle" x="237" y="-199.5" font-family="Helvetica,sans-Serif" font-size="10.00">Kit/System/EventLoop.h</text>
</a>
</g>
</g>
<!-- Node5&#45;&gt;Node6 -->
<g id="edge5_Node000005_Node000006" class="edge">
<title>Node5&#45;&gt;Node6</title>
<g id="a_edge5_Node000005_Node000006"><a xlink:title=" ">
<path fill="none" stroke="#63b8ff" d="M107.42,-254.51C139.24,-241.86 187.61,-222.63 215.37,-211.6"/>
<polygon fill="#63b8ff" stroke="#63b8ff" points="105.71,-251.42 97.71,-258.37 108.3,-257.93 105.71,-251.42"/>
</a>
</g>
</g>
<!-- Node10 -->
<g id="Node000010" class="node">
<title>Node10</title>
<g id="a_Node000010"><a xlink:href="_timer_8h.html" target="_top" xlink:title=" ">
<polygon fill="white" stroke="#666666" points="537,-211.5 427,-211.5 427,-192.5 537,-192.5 537,-211.5"/>
<text text-anchor="middle" x="482" y="-199.5" font-family="Helvetica,sans-Serif" font-size="10.00">Kit/System/Timer.h</text>
</a>
</g>
</g>
<!-- Node5&#45;&gt;Node10 -->
<g id="edge9_Node000005_Node000010" class="edge">
<title>Node5&#45;&gt;Node10</title>
<g id="a_edge9_Node000005_Node000010"><a xlink:title=" ">
<path fill="none" stroke="#63b8ff" d="M137.26,-256.84C145.24,-255.54 153.32,-254.23 161,-253 254.28,-238.05 362.92,-221.26 426.88,-211.44"/>
<polygon fill="#63b8ff" stroke="#63b8ff" points="136.53,-253.42 127.23,-258.49 137.66,-260.33 136.53,-253.42"/>
</a>
</g>
</g>
<!-- Node7 -->
<g id="Node000007" class="node">
<title>Node7</title>
<g id="a_Node000007"><a xlink:href="_server_8h.html" target="_top" xlink:title=" ">
<polygon fill="white" stroke="#666666" points="465.5,-145.5 330.5,-145.5 330.5,-126.5 465.5,-126.5 465.5,-145.5"/>
<text text-anchor="middle" x="398" y="-133.5" font-family="Helvetica,sans-Serif" font-size="10.00">Kit/EventQueue/Server.h</text>
</a>
</g>
</g>
<!-- Node6&#45;&gt;Node7 -->
<g id="edge6_Node000006_Node000007" class="edge">
<title>Node6&#45;&gt;Node7</title>
<g id="a_edge6_Node000006_Node000007"><a xlink:title=" ">
<path fill="none" stroke="#63b8ff" d="M268.42,-188.51C300.24,-175.86 348.61,-156.63 376.37,-145.6"/>
<polygon fill="#63b8ff" stroke="#63b8ff" points="266.71,-185.42 258.71,-192.37 269.3,-191.93 266.71,-185.42"/>
</a>
</g>
</g>
<!-- Node9 -->
<g id="Node000009" class="node">
<title>Node9</title>
<g id="a_Node000009"><a xlink:href="_event_loop_with_p_scheduling_8h.html" target="_top" xlink:title=" ">
<polygon fill="white" stroke="#666666" points="310,-151 164,-151 164,-121 310,-121 310,-151"/>
<text text-anchor="start" x="172" y="-139" font-family="Helvetica,sans-Serif" font-size="10.00">Kit/System/EventLoopWith</text>
<text text-anchor="middle" x="237" y="-128" font-family="Helvetica,sans-Serif" font-size="10.00">PScheduling.h</text>
</a>
</g>
</g>
<!-- Node6&#45;&gt;Node9 -->
<g id="edge8_Node000006_Node000009" class="edge">
<title>Node6&#45;&gt;Node9</title>
<g id="a_edge8_Node000006_Node000009"><a xlink:title=" ">
<path fill="none" stroke="#63b8ff" d="M237,-182.35C237,-172.47 237,-160.51 237,-151.36"/>
<polygon fill="#63b8ff" stroke="#63b8ff" points="233.5,-182.37 237,-192.37 240.5,-182.37 233.5,-182.37"/>
</a>
</g>
</g>
<!-- Node8 -->
<g id="Node000008" class="node">
<title>Node8</title>
<g id="a_Node000008"><a xlink:href="_with_periodic_scheduling_8h.html" target="_top" xlink:title=" ">
<polygon fill="white" stroke="#666666" points="476.5,-85 319.5,-85 319.5,-55 476.5,-55 476.5,-85"/>
<text text-anchor="start" x="327.5" y="-73" font-family="Helvetica,sans-Serif" font-size="10.00">Kit/EventQueue/WithPeriodic</text>
<text text-anchor="middle" x="398" y="-62" font-family="Helvetica,sans-Serif" font-size="10.00">Scheduling.h</text>
</a>
</g>
</g>
<!-- Node7&#45;&gt;Node8 -->
<g id="edge7_Node000007_Node000008" class="edge">
<title>Node7&#45;&gt;Node8</title>
<g id="a_edge7_Node000007_Node000008"><a xlink:title=" ">
<path fill="none" stroke="#63b8ff" d="M398,-116.35C398,-106.47 398,-94.51 398,-85.36"/>
<polygon fill="#63b8ff" stroke="#63b8ff" points="394.5,-116.37 398,-126.37 401.5,-116.37 394.5,-116.37"/>
</a>
</g>
</g>
<!-- Node11 -->
<g id="Node000011" class="node">
<title>Node11</title>
<g id="a_Node000011"><a xlink:href="_watched_event_thread_8h.html" target="_top" xlink:title=" ">
<polygon fill="white" stroke="#666666" points="669,-151 537,-151 537,-121 669,-121 669,-151"/>
<text text-anchor="start" x="545" y="-139" font-family="Helvetica,sans-Serif" font-size="10.00">Kit/System/Watchdog</text>
<text text-anchor="middle" x="603" y="-128" font-family="Helvetica,sans-Serif" font-size="10.00">/WatchedEventThread.h</text>
</a>
</g>
</g>
<!-- Node10&#45;&gt;Node11 -->
<g id="edge10_Node000010_Node000011" class="edge">
<title>Node10&#45;&gt;Node11</title>
<g id="a_edge10_Node000010_Node000011"><a xlink:title=" ">
<path fill="none" stroke="#63b8ff" d="M507.25,-187.64C527.46,-176.95 555.73,-162 576.31,-151.12"/>
<polygon fill="#63b8ff" stroke="#63b8ff" points="505.52,-184.6 498.32,-192.37 508.79,-190.79 505.52,-184.6"/>
</a>
</g>
</g>
<!-- Node13 -->
<g id="Node000013" class="node">
<title>Node13</title>
<g id="a_Node000013"><a xlink:href="_map_item_8h.html" target="_top" xlink:title=" ">
<polygon fill="white" stroke="#666666" points="1121,-343.5 985,-343.5 985,-324.5 1121,-324.5 1121,-343.5"/>
<text text-anchor="middle" x="1053" y="-331.5" font-family="Helvetica,sans-Serif" font-size="10.00">Kit/Container/MapItem.h</text>
</a>
</g>
</g>
<!-- Node12&#45;&gt;Node13 -->
<g id="edge12_Node000012_Node000013" class="edge">
<title>Node12&#45;&gt;Node13</title>
<g id="a_edge12_Node000012_Node000013"><a xlink:title=" ">
<path fill="none" stroke="#63b8ff" d="M856.05,-382.61C902.82,-371.3 975,-353.85 1017.77,-343.52"/>
<polygon fill="#63b8ff" stroke="#63b8ff" points="855.09,-379.24 846.19,-384.99 856.73,-386.05 855.09,-379.24"/>
</a>
</g>
</g>
<!-- Node14 -->
<g id="Node000014" class="node">
<title>Node14</title>
<g id="a_Node000014"><a xlink:href="_avl_tree___8h.html" target="_top" xlink:title=" ">
<polygon fill="white" stroke="#666666" points="1129.5,-277.5 996.5,-277.5 996.5,-258.5 1129.5,-258.5 1129.5,-277.5"/>
<text text-anchor="middle" x="1063" y="-265.5" font-family="Helvetica,sans-Serif" font-size="10.00">Kit/Container/AvlTree_.h</text>
</a>
</g>
</g>
<!-- Node13&#45;&gt;Node14 -->
<g id="edge13_Node000013_Node000014" class="edge">
<title>Node13&#45;&gt;Node14</title>
<g id="a_edge13_Node000013_Node000014"><a xlink:title=" ">
<path fill="none" stroke="#63b8ff" d="M1055.9,-314.45C1057.78,-302.43 1060.14,-287.32 1061.61,-277.91"/>
<polygon fill="#63b8ff" stroke="#63b8ff" points="1052.43,-313.95 1054.35,-324.37 1059.35,-315.03 1052.43,-313.95"/>
</a>
</g>
</g>
<!-- Node16 -->
<g id="Node000016" class="node">
<title>Node16</title>
<g id="a_Node000016"><a xlink:href="_string_item_8h.html" target="_top" xlink:title=" ">
<polygon fill="white" stroke="#666666" points="1264,-277.5 1148,-277.5 1148,-258.5 1264,-258.5 1264,-277.5"/>
<text text-anchor="middle" x="1206" y="-265.5" font-family="Helvetica,sans-Serif" font-size="10.00">Kit/Text/StringItem.h</text>
</a>
</g>
</g>
<!-- Node13&#45;&gt;Node16 -->
<g id="edge15_Node000013_Node000016" class="edge">
<title>Node13&#45;&gt;Node16</title>
<g id="a_edge15_Node000013_Node000016"><a xlink:title=" ">
<path fill="none" stroke="#63b8ff" d="M1083.22,-320.36C1113.37,-307.75 1158.89,-288.71 1185.2,-277.7"/>
<polygon fill="#63b8ff" stroke="#63b8ff" points="1081.51,-317.28 1073.63,-324.37 1084.21,-323.74 1081.51,-317.28"/>
</a>
</g>
</g>
<!-- Node15 -->
<g id="Node000015" class="node">
<title>Node15</title>
<g id="a_Node000015"><a xlink:href="_map_8h.html" target="_top" xlink:title=" ">
<polygon fill="white" stroke="#666666" points="1262.5,-211.5 1149.5,-211.5 1149.5,-192.5 1262.5,-192.5 1262.5,-211.5"/>
<text text-anchor="middle" x="1206" y="-199.5" font-family="Helvetica,sans-Serif" font-size="10.00">Kit/Container/Map.h</text>
</a>
</g>
</g>
<!-- Node14&#45;&gt;Node15 -->
<g id="edge14_Node000014_Node000015" class="edge">
<title>Node14&#45;&gt;Node15</title>
<g id="a_edge14_Node000014_Node000015"><a xlink:title=" ">
<path fill="none" stroke="#63b8ff" d="M1091.61,-254.19C1119.8,-241.58 1162.08,-222.66 1186.56,-211.7"/>
<polygon fill="#63b8ff" stroke="#63b8ff" points="1089.98,-251.09 1082.29,-258.37 1092.84,-257.48 1089.98,-251.09"/>
</a>
</g>
</g>
<!-- Node17 -->
<g id="Node000017" class="node">
<title>Node17</title>
<g id="a_Node000017"><a xlink:href="_d_string_item_8h.html" target="_top" xlink:title=" ">
<polygon fill="white" stroke="#666666" points="1405,-211.5 1281,-211.5 1281,-192.5 1405,-192.5 1405,-211.5"/>
<text text-anchor="middle" x="1343" y="-199.5" font-family="Helvetica,sans-Serif" font-size="10.00">Kit/Text/DStringItem.h</text>
</a>
</g>
</g>
<!-- Node16&#45;&gt;Node17 -->
<g id="edge16_Node000016_Node000017" class="edge">
<title>Node16&#45;&gt;Node17</title>
<g id="a_edge16_Node000016_Node000017"><a xlink:title=" ">
<path fill="none" stroke="#63b8ff" d="M1233.77,-254.03C1260.77,-241.42 1301.02,-222.61 1324.38,-211.7"/>
<polygon fill="#63b8ff" stroke="#63b8ff" points="1232.06,-250.97 1224.48,-258.37 1235.02,-257.31 1232.06,-250.97"/>
</a>
</g>
</g>
<!-- Node18 -->
<g id="Node000018" class="node">
<title>Node18</title>
<g id="a_Node000018"><a xlink:href="_f_string_item_8h.html" target="_top" xlink:title=" ">
<polygon fill="white" stroke="#666666" points="1545,-211.5 1423,-211.5 1423,-192.5 1545,-192.5 1545,-211.5"/>
<text text-anchor="middle" x="1484" y="-199.5" font-family="Helvetica,sans-Serif" font-size="10.00">Kit/Text/FStringItem.h</text>
</a>
</g>
</g>
<!-- Node16&#45;&gt;Node18 -->
<g id="edge17_Node000016_Node000018" class="edge">
<title>Node16&#45;&gt;Node18</title>
<g id="a_edge17_Node000016_Node000018"><a xlink:title=" ">
<path fill="none" stroke="#63b8ff" d="M1253,-256.18C1307.73,-243.58 1396.99,-223.03 1447.02,-211.51"/>
<polygon fill="#63b8ff" stroke="#63b8ff" points="1252.16,-252.78 1243.2,-258.44 1253.73,-259.6 1252.16,-252.78"/>
</a>
</g>
</g>
<!-- Node20 -->
<g id="Node000020" class="node">
<title>Node20</title>
<g id="a_Node000020"><a xlink:href="_s_list_8h.html" target="_top" xlink:title=" ">
<polygon fill="white" stroke="#666666" points="548,-343.5 432,-343.5 432,-324.5 548,-324.5 548,-343.5"/>
<text text-anchor="middle" x="490" y="-331.5" font-family="Helvetica,sans-Serif" font-size="10.00">Kit/Container/SList.h</text>
</a>
</g>
</g>
<!-- Node19&#45;&gt;Node20 -->
<g id="edge19_Node000019_Node000020" class="edge">
<title>Node19&#45;&gt;Node20</title>
<g id="a_edge19_Node000019_Node000020"><a xlink:title=" ">
<path fill="none" stroke="#63b8ff" d="M490,-374.66C490,-364.24 490,-351.8 490,-343.67"/>
<polygon fill="#63b8ff" stroke="#63b8ff" points="486.5,-374.87 490,-384.87 493.5,-374.87 486.5,-374.87"/>
</a>
</g>
</g>
<!-- Node21 -->
<g id="Node000021" class="node">
<title>Node21</title>
<g id="a_Node000021"><a xlink:href="_tee_output_8h.html" target="_top" xlink:title=" ">
<polygon fill="white" stroke="#666666" points="426,-277.5 322,-277.5 322,-258.5 426,-258.5 426,-277.5"/>
<text text-anchor="middle" x="374" y="-265.5" font-family="Helvetica,sans-Serif" font-size="10.00">Kit/Io/TeeOutput.h</text>
</a>
</g>
</g>
<!-- Node20&#45;&gt;Node21 -->
<g id="edge20_Node000020_Node000021" class="edge">
<title>Node20&#45;&gt;Node21</title>
<g id="a_edge20_Node000020_Node000021"><a xlink:title=" ">
<path fill="none" stroke="#63b8ff" d="M465.58,-319.53C442.73,-306.92 409.28,-288.47 389.77,-277.7"/>
<polygon fill="#63b8ff" stroke="#63b8ff" points="463.91,-322.6 474.36,-324.37 467.29,-316.47 463.91,-322.6"/>
</a>
</g>
</g>
<!-- Node22 -->
<g id="Node000022" class="node">
<title>Node22</title>
<g id="a_Node000022"><a xlink:href="_mailbox_8h.html" target="_top" xlink:title=" ">
<polygon fill="white" stroke="#666666" points="540,-277.5 444,-277.5 444,-258.5 540,-258.5 540,-277.5"/>
<text text-anchor="middle" x="492" y="-265.5" font-family="Helvetica,sans-Serif" font-size="10.00">Kit/Itc/Mailbox.h</text>
</a>
</g>
</g>
<!-- Node20&#45;&gt;Node22 -->
<g id="edge21_Node000020_Node000022" class="edge">
<title>Node20&#45;&gt;Node22</title>
<g id="a_edge21_Node000020_Node000022"><a xlink:title=" ">
<path fill="none" stroke="#63b8ff" d="M490.59,-314.08C490.96,-302.13 491.43,-287.22 491.72,-277.91"/>
<polygon fill="#63b8ff" stroke="#63b8ff" points="487.08,-314.26 490.27,-324.37 494.08,-314.48 487.08,-314.26"/>
</a>
</g>
</g>
<!-- Node20&#45;&gt;Node23 -->
<g id="edge23_Node000020_Node000023" class="edge">
<title>Node20&#45;&gt;Node23</title>
<g id="a_edge23_Node000020_Node000023"><a xlink:title=" ">
<path fill="none" stroke="#63b8ff" d="M446.29,-321.94C396.41,-309.32 315.9,-288.96 270.66,-277.51"/>
<polygon fill="#63b8ff" stroke="#63b8ff" points="445.59,-325.38 456.14,-324.44 447.31,-318.59 445.59,-325.38"/>
</a>
</g>
</g>
<!-- Node24 -->
<g id="Node000024" class="node">
<title>Node24</title>
<g id="a_Node000024"><a xlink:href="_supervisor_8h.html" target="_top" xlink:title=" ">
<polygon fill="white" stroke="#666666" points="679.5,-283 558.5,-283 558.5,-253 679.5,-253 679.5,-283"/>
<text text-anchor="start" x="566.5" y="-271" font-family="Helvetica,sans-Serif" font-size="10.00">Kit/System/Watchdog</text>
<text text-anchor="middle" x="619" y="-260" font-family="Helvetica,sans-Serif" font-size="10.00">/Supervisor.h</text>
</a>
</g>
</g>
<!-- Node20&#45;&gt;Node24 -->
<g id="edge25_Node000020_Node000024" class="edge">
<title>Node20&#45;&gt;Node24</title>
<g id="a_edge25_Node000020_Node000024"><a xlink:title=" ">
<path fill="none" stroke="#63b8ff" d="M516.63,-319.79C538.2,-309.09 568.51,-294.05 590.55,-283.12"/>
<polygon fill="#63b8ff" stroke="#63b8ff" points="514.8,-316.79 507.4,-324.37 517.91,-323.06 514.8,-316.79"/>
</a>
</g>
</g>
<!-- Node22&#45;&gt;Node7 -->
<g id="edge22_Node000022_Node000007" class="edge">
<title>Node22&#45;&gt;Node7</title>
<g id="a_edge22_Node000022_Node000007"><a xlink:title=" ">
<path fill="none" stroke="#63b8ff" d="M462.45,-253.6C447.03,-245.18 429.12,-232.88 418,-217 402.32,-194.6 398.9,-161.09 398.18,-145.52"/>
<polygon fill="#63b8ff" stroke="#63b8ff" points="461.15,-256.87 471.64,-258.35 464.36,-250.65 461.15,-256.87"/>
</a>
</g>
</g>
<!-- Node23&#45;&gt;Node6 -->
<g id="edge24_Node000023_Node000006" class="edge">
<title>Node23&#45;&gt;Node6</title>
<g id="a_edge24_Node000023_Node000006"><a xlink:title=" ">
<path fill="none" stroke="#63b8ff" d="M237,-248.08C237,-236.13 237,-221.22 237,-211.91"/>
<polygon fill="#63b8ff" stroke="#63b8ff" points="233.5,-248.37 237,-258.37 240.5,-248.37 233.5,-248.37"/>
</a>
</g>
</g>
<!-- Node25 -->
<g id="Node000025" class="node">
<title>Node25</title>
<g id="a_Node000025"><a xlink:href="_watched_raw_thread_8h.html" target="_top" xlink:title=" ">
<polygon fill="white" stroke="#666666" points="680.5,-217 555.5,-217 555.5,-187 680.5,-187 680.5,-217"/>
<text text-anchor="start" x="563.5" y="-205" font-family="Helvetica,sans-Serif" font-size="10.00">Kit/System/Watchdog</text>
<text text-anchor="middle" x="618" y="-194" font-family="Helvetica,sans-Serif" font-size="10.00">/WatchedRawThread.h</text>
</a>
</g>
</g>
<!-- Node24&#45;&gt;Node25 -->
<g id="edge26_Node000024_Node000025" class="edge">
<title>Node24&#45;&gt;Node25</title>
<g id="a_edge26_Node000024_Node000025"><a xlink:title=" ">
<path fill="none" stroke="#63b8ff" d="M618.62,-242.54C618.48,-233.96 618.34,-224.61 618.22,-217.16"/>
<polygon fill="#63b8ff" stroke="#63b8ff" points="615.12,-242.85 618.78,-252.8 622.12,-242.74 615.12,-242.85"/>
</a>
</g>
</g>
<!-- Node26&#45;&gt;Node22 -->
<g id="edge28_Node000026_Node000022" class="edge">
<title>Node26&#45;&gt;Node22</title>
<g id="a_edge28_Node000026_Node000022"><a xlink:title=" ">
<path fill="none" stroke="#63b8ff" d="M615.22,-377.14C600.89,-361.59 578.26,-337.86 557,-319 539.53,-303.51 517.77,-287.34 504.38,-277.73"/>
<polygon fill="#63b8ff" stroke="#63b8ff" points="612.93,-379.83 622.26,-384.85 618.1,-375.11 612.93,-379.83"/>
</a>
</g>
</g>
<!-- Node27 -->
<g id="Node000027" class="node">
<title>Node27</title>
<g id="a_Node000027"><a xlink:href="_server_message_8h.html" target="_top" xlink:title=" ">
<polygon fill="white" stroke="#666666" points="950,-343.5 818,-343.5 818,-324.5 950,-324.5 950,-343.5"/>
<text text-anchor="middle" x="884" y="-331.5" font-family="Helvetica,sans-Serif" font-size="10.00">Kit/Itc/ServerMessage.h</text>
</a>
</g>
</g>
<!-- Node26&#45;&gt;Node27 -->
<g id="edge29_Node000026_Node000027" class="edge">
<title>Node26&#45;&gt;Node27</title>
<g id="a_edge29_Node000026_Node000027"><a xlink:title=" ">
<path fill="none" stroke="#63b8ff" d="M676.98,-382.68C726.06,-371.38 802.04,-353.88 847.02,-343.52"/>
<polygon fill="#63b8ff" stroke="#63b8ff" points="675.89,-379.34 666.93,-384.99 677.46,-386.16 675.89,-379.34"/>
</a>
</g>
</g>
<!-- Node28 -->
<g id="Node000028" class="node">
<title>Node28</title>
<g id="a_Node000028"><a xlink:href="_request_message_8h.html" target="_top" xlink:title=" ">
<polygon fill="white" stroke="#666666" points="978,-277.5 838,-277.5 838,-258.5 978,-258.5 978,-277.5"/>
<text text-anchor="middle" x="908" y="-265.5" font-family="Helvetica,sans-Serif" font-size="10.00">Kit/Itc/RequestMessage.h</text>
</a>
</g>
</g>
<!-- Node27&#45;&gt;Node28 -->
<g id="edge30_Node000027_Node000028" class="edge">
<title>Node27&#45;&gt;Node28</title>
<g id="a_edge30_Node000027_Node000028"><a xlink:title=" ">
<path fill="none" stroke="#63b8ff" d="M890.82,-314.82C895.35,-302.74 901.1,-287.41 904.66,-277.91"/>
<polygon fill="#63b8ff" stroke="#63b8ff" points="887.47,-313.78 887.24,-324.37 894.03,-316.23 887.47,-313.78"/>
</a>
</g>
</g>
<!-- Node29 -->
<g id="Node000029" class="node">
<title>Node29</title>
<g id="a_Node000029"><a xlink:href="_i_listener_client_request_8h.html" target="_top" xlink:title=" ">
<polygon fill="white" stroke="#666666" points="888.5,-217 737.5,-217 737.5,-187 888.5,-187 888.5,-217"/>
<text text-anchor="start" x="745.5" y="-205" font-family="Helvetica,sans-Serif" font-size="10.00">Kit/Io/Socket/IListenerClient</text>
<text text-anchor="middle" x="813" y="-194" font-family="Helvetica,sans-Serif" font-size="10.00">Request.h</text>
</a>
</g>
</g>
<!-- Node28&#45;&gt;Node29 -->
<g id="edge31_Node000028_Node000029" class="edge">
<title>Node28&#45;&gt;Node29</title>
<g id="a_edge31_Node000028_Node000029"><a xlink:title=" ">
<path fill="none" stroke="#63b8ff" d="M886.65,-252.62C870.91,-242.01 849.6,-227.66 833.95,-217.12"/>
<polygon fill="#63b8ff" stroke="#63b8ff" points="884.94,-255.68 895.19,-258.37 888.85,-249.88 884.94,-255.68"/>
</a>
</g>
</g>
<!-- Node31 -->
<g id="Node000031" class="node">
<title>Node31</title>
<g id="a_Node000031"><a xlink:href="_i_close_request_8h.html" target="_top" xlink:title=" ">
<polygon fill="white" stroke="#666666" points="1036.5,-145.5 909.5,-145.5 909.5,-126.5 1036.5,-126.5 1036.5,-145.5"/>
<text text-anchor="middle" x="973" y="-133.5" font-family="Helvetica,sans-Serif" font-size="10.00">Kit/Itc/ICloseRequest.h</text>
</a>
</g>
</g>
<!-- Node28&#45;&gt;Node31 -->
<g id="edge33_Node000028_Node000031" class="edge">
<title>Node28&#45;&gt;Node31</title>
<g id="a_edge33_Node000028_Node000031"><a xlink:title=" ">
<path fill="none" stroke="#63b8ff" d="M912.86,-248.15C917.55,-231.51 925.48,-206.87 936,-187 944.29,-171.35 957.14,-155.23 965.31,-145.67"/>
<polygon fill="#63b8ff" stroke="#63b8ff" points="909.36,-247.67 910.14,-258.24 916.12,-249.5 909.36,-247.67"/>
</a>
</g>
</g>
<!-- Node33 -->
<g id="Node000033" class="node">
<title>Node33</title>
<g id="a_Node000033"><a xlink:href="_i_open_request_8h.html" target="_top" xlink:title=" ">
<polygon fill="white" stroke="#666666" points="1179.5,-145.5 1054.5,-145.5 1054.5,-126.5 1179.5,-126.5 1179.5,-145.5"/>
<text text-anchor="middle" x="1117" y="-133.5" font-family="Helvetica,sans-Serif" font-size="10.00">Kit/Itc/IOpenRequest.h</text>
</a>
</g>
</g>
<!-- Node28&#45;&gt;Node33 -->
<g id="edge35_Node000028_Node000033" class="edge">
<title>Node28&#45;&gt;Node33</title>
<g id="a_edge35_Node000028_Node000033"><a xlink:title=" ">
<path fill="none" stroke="#63b8ff" d="M960.65,-256.46C1014.68,-245.17 1092.21,-227.46 1102,-217 1120.53,-197.18 1119.7,-162.09 1118.13,-145.78"/>
<polygon fill="#63b8ff" stroke="#63b8ff" points="959.93,-253.03 950.85,-258.49 961.36,-259.89 959.93,-253.03"/>
</a>
</g>
</g>
<!-- Node35 -->
<g id="Node000035" class="node">
<title>Node35</title>
<g id="a_Node000035"><a xlink:href="_response_message_8h.html" target="_top" xlink:title=" ">
<polygon fill="white" stroke="#666666" points="1093,-211.5 945,-211.5 945,-192.5 1093,-192.5 1093,-211.5"/>
<text text-anchor="middle" x="1019" y="-199.5" font-family="Helvetica,sans-Serif" font-size="10.00">Kit/Itc/ResponseMessage.h</text>
</a>
</g>
</g>
<!-- Node28&#45;&gt;Node35 -->
<g id="edge38_Node000028_Node000035" class="edge">
<title>Node28&#45;&gt;Node35</title>
<g id="a_edge38_Node000028_Node000035"><a xlink:title=" ">
<path fill="none" stroke="#63b8ff" d="M931.66,-253.36C953.51,-240.76 985.32,-222.42 1003.91,-211.7"/>
<polygon fill="#63b8ff" stroke="#63b8ff" points="929.88,-250.34 922.97,-258.37 933.38,-256.41 929.88,-250.34"/>
</a>
</g>
</g>
<!-- Node30 -->
<g id="Node000030" class="node">
<title>Node30</title>
<g id="a_Node000030"><a xlink:href="_listener_client_sync_8h.html" target="_top" xlink:title=" ">
<polygon fill="white" stroke="#666666" points="887,-151 739,-151 739,-121 887,-121 887,-151"/>
<text text-anchor="start" x="747" y="-139" font-family="Helvetica,sans-Serif" font-size="10.00">Kit/Io/Socket/ListenerClient</text>
<text text-anchor="middle" x="813" y="-128" font-family="Helvetica,sans-Serif" font-size="10.00">Sync.h</text>
</a>
</g>
</g>
<!-- Node29&#45;&gt;Node30 -->
<g id="edge32_Node000029_Node000030" class="edge">
<title>Node29&#45;&gt;Node30</title>
<g id="a_edge32_Node000029_Node000030"><a xlink:title=" ">
<path fill="none" stroke="#63b8ff" d="M813,-176.54C813,-167.96 813,-158.61 813,-151.16"/>
<polygon fill="#63b8ff" stroke="#63b8ff" points="809.5,-176.8 813,-186.8 816.5,-176.8 809.5,-176.8"/>
</a>
</g>
</g>
<!-- Node32 -->
<g id="Node000032" class="node">
<title>Node32</title>
<g id="a_Node000032"><a xlink:href="_open_close_sync_8h.html" target="_top" xlink:title=" ">
<polygon fill="white" stroke="#666666" points="1095.5,-19 962.5,-19 962.5,0 1095.5,0 1095.5,-19"/>
<text text-anchor="middle" x="1029" y="-7" font-family="Helvetica,sans-Serif" font-size="10.00">Kit/Itc/OpenCloseSync.h</text>
</a>
</g>
</g>
<!-- Node31&#45;&gt;Node32 -->
<g id="edge34_Node000031_Node000032" class="edge">
<title>Node31&#45;&gt;Node32</title>
<g id="a_edge34_Node000031_Node000032"><a xlink:title=" ">
<path fill="none" stroke="#63b8ff" d="M981.11,-116.96C993.35,-89.76 1016.07,-39.26 1025.12,-19.12"/>
<polygon fill="#63b8ff" stroke="#63b8ff" points="977.76,-115.89 976.85,-126.44 984.14,-118.76 977.76,-115.89"/>
</a>
</g>
</g>
<!-- Node34 -->
<g id="Node000034" class="node">
<title>Node34</title>
<g id="a_Node000034"><a xlink:href="_open_sync_8h.html" target="_top" xlink:title=" ">
<polygon fill="white" stroke="#666666" points="1154,-79.5 1048,-79.5 1048,-60.5 1154,-60.5 1154,-79.5"/>
<text text-anchor="middle" x="1101" y="-67.5" font-family="Helvetica,sans-Serif" font-size="10.00">Kit/Itc/OpenSync.h</text>
</a>
</g>
</g>
<!-- Node33&#45;&gt;Node34 -->
<g id="edge36_Node000033_Node000034" class="edge">
<title>Node33&#45;&gt;Node34</title>
<g id="a_edge36_Node000033_Node000034"><a xlink:title=" ">
<path fill="none" stroke="#63b8ff" d="M1112.36,-116.45C1109.36,-104.43 1105.58,-89.32 1103.23,-79.91"/>
<polygon fill="#63b8ff" stroke="#63b8ff" points="1109.02,-117.52 1114.84,-126.37 1115.81,-115.82 1109.02,-117.52"/>
</a>
</g>
</g>
<!-- Node34&#45;&gt;Node32 -->
<g id="edge37_Node000034_Node000032" class="edge">
<title>Node34&#45;&gt;Node32</title>
<g id="a_edge37_Node000034_Node000032"><a xlink:title=" ">
<path fill="none" stroke="#63b8ff" d="M1082.58,-54.04C1068.99,-42.99 1050.96,-28.34 1039.67,-19.17"/>
<polygon fill="#63b8ff" stroke="#63b8ff" points="1080.41,-56.78 1090.38,-60.37 1084.82,-51.35 1080.41,-56.78"/>
</a>
</g>
</g>
<!-- Node35&#45;&gt;Node31 -->
<g id="edge39_Node000035_Node000031" class="edge">
<title>Node35&#45;&gt;Node31</title>
<g id="a_edge39_Node000035_Node000031"><a xlink:title=" ">
<path fill="none" stroke="#63b8ff" d="M1006.72,-183.91C997.92,-171.68 986.44,-155.7 979.4,-145.91"/>
<polygon fill="#63b8ff" stroke="#63b8ff" points="1004.12,-186.29 1012.8,-192.37 1009.8,-182.21 1004.12,-186.29"/>
</a>
</g>
</g>
<!-- Node35&#45;&gt;Node33 -->
<g id="edge40_Node000035_Node000033" class="edge">
<title>Node35&#45;&gt;Node33</title>
<g id="a_edge40_Node000035_Node000033"><a xlink:title=" ">
<path fill="none" stroke="#63b8ff" d="M1040.67,-186.85C1059.93,-174.27 1087.48,-156.28 1103.68,-145.7"/>
<polygon fill="#63b8ff" stroke="#63b8ff" points="1038.68,-183.97 1032.22,-192.37 1042.5,-189.83 1038.68,-183.97"/>
</a>
</g>
</g>
<!-- Node36&#45;&gt;Node5 -->
<g id="edge42_Node000036_Node000005" class="edge">
<title>Node36&#45;&gt;Node5</title>
<g id="a_edge42_Node000036_Node000005"><a xlink:title=" ">
<path fill="none" stroke="#63b8ff" d="M264.6,-379.76C220.63,-353.94 126.86,-298.87 90.67,-277.62"/>
<polygon fill="#63b8ff" stroke="#63b8ff" points="263.03,-382.9 273.43,-384.94 266.58,-376.86 263.03,-382.9"/>
</a>
</g>
</g>
<!-- Node39 -->
<g id="Node000039" class="node">
<title>Node39</title>
<g id="a_Node000039"><a xlink:href="_fatal_error_8h.html" target="_top" xlink:title=" ">
<polygon fill="white" stroke="#666666" points="1267,-343.5 1139,-343.5 1139,-324.5 1267,-324.5 1267,-343.5"/>
<text text-anchor="middle" x="1203" y="-331.5" font-family="Helvetica,sans-Serif" font-size="10.00">Kit/System/FatalError.h</text>
</a>
</g>
</g>
<!-- Node38&#45;&gt;Node39 -->
<g id="edge46_Node000038_Node000039" class="edge">
<title>Node38&#45;&gt;Node39</title>
<g id="a_edge46_Node000038_Node000039"><a xlink:title=" ">
<path fill="none" stroke="#63b8ff" d="M1179.88,-375.98C1185.9,-365.31 1193.33,-352.15 1198.11,-343.67"/>
<polygon fill="#63b8ff" stroke="#63b8ff" points="1176.73,-374.44 1174.87,-384.87 1182.83,-377.88 1176.73,-374.44"/>
</a>
</g>
</g>
<!-- Node40 -->
<g id="Node000040" class="node">
<title>Node40</title>
<g id="a_Node000040"><a xlink:href="_posix_2mappings_8h.html" target="_top" xlink:title="This file provides the mappings for Platform specific types, etc.">
<polygon fill="white" stroke="#666666" points="1441.5,-277.5 1282.5,-277.5 1282.5,-258.5 1441.5,-258.5 1441.5,-277.5"/>
<text text-anchor="middle" x="1362" y="-265.5" font-family="Helvetica,sans-Serif" font-size="10.00">Kit/System/Posix/mappings.h</text>
</a>
</g>
</g>
<!-- Node39&#45;&gt;Node40 -->
<g id="edge47_Node000039_Node000040" class="edge">
<title>Node39&#45;&gt;Node40</title>
<g id="a_edge47_Node000039_Node000040"><a xlink:title=" ">
<path fill="none" stroke="#63b8ff" d="M1234.03,-320.51C1265.45,-307.86 1313.23,-288.63 1340.64,-277.6"/>
<polygon fill="#63b8ff" stroke="#63b8ff" points="1232.41,-317.39 1224.44,-324.37 1235.03,-323.88 1232.41,-317.39"/>
</a>
</g>
</g>
<!-- Node41 -->
<g id="Node000041" class="node">
<title>Node41</title>
<g id="a_Node000041"><a xlink:href="_win32_2mappings_8h.html" target="_top" xlink:title="This file provides the mappings for Platform specific types, etc.">
<polygon fill="white" stroke="#666666" points="1624,-277.5 1460,-277.5 1460,-258.5 1624,-258.5 1624,-277.5"/>
<text text-anchor="middle" x="1542" y="-265.5" font-family="Helvetica,sans-Serif" font-size="10.00">Kit/System/Win32/mappings.h</text>
</a>
</g>
</g>
<!-- Node39&#45;&gt;Node41 -->
<g id="edge48_Node000039_Node000041" class="edge">
<title>Node39&#45;&gt;Node41</title>
<g id="a_edge48_Node000039_Node000041"><a xlink:title=" ">
<path fill="none" stroke="#63b8ff" d="M1257.25,-322.57C1263.57,-321.37 1269.93,-320.15 1276,-319 1353.33,-304.32 1443.34,-287.44 1496.33,-277.53"/>
<polygon fill="#63b8ff" stroke="#63b8ff" points="1256.55,-319.14 1247.39,-324.46 1257.87,-326.02 1256.55,-319.14"/>
</a>
</g>
</g>
<!-- Node43 -->
<g id="Node000043" class="node">
<title>Node43</title>
<g id="a_Node000043"><a xlink:href="_sync_return_handler_8h.html" target="_top" xlink:title=" ">
<polygon fill="white" stroke="#666666" points="1435,-343.5 1285,-343.5 1285,-324.5 1435,-324.5 1435,-343.5"/>
<text text-anchor="middle" x="1360" y="-331.5" font-family="Helvetica,sans-Serif" font-size="10.00">Kit/Itc/SyncReturnHandler.h</text>
</a>
</g>
</g>
<!-- Node42&#45;&gt;Node43 -->
<g id="edge50_Node000042_Node000043" class="edge">
<title>Node42&#45;&gt;Node43</title>
<g id="a_edge50_Node000042_Node000043"><a xlink:title=" ">
<path fill="none" stroke="#63b8ff" d="M1492.02,-381.52C1459.92,-370.21 1412.58,-353.53 1384.17,-343.52"/>
<polygon fill="#63b8ff" stroke="#63b8ff" points="1491.27,-384.97 1501.86,-384.99 1493.59,-378.37 1491.27,-384.97"/>
</a>
</g>
</g>
<!-- Node44 -->
<g id="Node000044" class="node">
<title>Node44</title>
<g id="a_Node000044"><a xlink:href="_posix_2_thread_8h.html" target="_top" xlink:title=" ">
<polygon fill="white" stroke="#666666" points="1598.5,-343.5 1453.5,-343.5 1453.5,-324.5 1598.5,-324.5 1598.5,-343.5"/>
<text text-anchor="middle" x="1526" y="-331.5" font-family="Helvetica,sans-Serif" font-size="10.00">Kit/System/Posix/Thread.h</text>
</a>
</g>
</g>
<!-- Node42&#45;&gt;Node44 -->
<g id="edge51_Node000042_Node000044" class="edge">
<title>Node42&#45;&gt;Node44</title>
<g id="a_edge51_Node000042_Node000044"><a xlink:title=" ">
<path fill="none" stroke="#63b8ff" d="M1526,-374.66C1526,-364.24 1526,-351.8 1526,-343.67"/>
<polygon fill="#63b8ff" stroke="#63b8ff" points="1522.5,-374.87 1526,-384.87 1529.5,-374.87 1522.5,-374.87"/>
</a>
</g>
</g>
<!-- Node42&#45;&gt;Node45 -->
<g id="edge52_Node000042_Node000045" class="edge">
<title>Node42&#45;&gt;Node45</title>
<g id="a_edge52_Node000042_Node000045"><a xlink:title=" ">
<path fill="none" stroke="#63b8ff" d="M1585.5,-383.16C1635.78,-374.35 1709.67,-361.2 1774,-349 1783.13,-347.27 1792.92,-345.35 1802.2,-343.5"/>
<polygon fill="#63b8ff" stroke="#63b8ff" points="1584.71,-379.75 1575.46,-384.92 1585.91,-386.65 1584.71,-379.75"/>
</a>
</g>
</g>
<!-- Node46 -->
<g id="Node000046" class="node">
<title>Node46</title>
<g id="a_Node000046"><a xlink:href="_win32_2_thread_8h.html" target="_top" xlink:title=" ">
<polygon fill="white" stroke="#666666" points="1765.5,-343.5 1616.5,-343.5 1616.5,-324.5 1765.5,-324.5 1765.5,-343.5"/>
<text text-anchor="middle" x="1691" y="-331.5" font-family="Helvetica,sans-Serif" font-size="10.00">Kit/System/Win32/Thread.h</text>
</a>
</g>
</g>
<!-- Node42&#45;&gt;Node46 -->
<g id="edge53_Node000042_Node000046" class="edge">
<title>Node42&#45;&gt;Node46</title>
<g id="a_edge53_Node000042_Node000046"><a xlink:title=" ">
<path fill="none" stroke="#63b8ff" d="M1559.78,-381.52C1591.68,-370.21 1638.74,-353.53 1666.98,-343.52"/>
<polygon fill="#63b8ff" stroke="#63b8ff" points="1558.25,-378.35 1549.99,-384.99 1560.59,-384.95 1558.25,-378.35"/>
</a>
</g>
</g>
<!-- Node47&#45;&gt;Node11 -->
<g id="edge56_Node000047_Node000011" class="edge">
<title>Node47&#45;&gt;Node11</title>
<g id="a_edge56_Node000047_Node000011"><a xlink:title=" ">
<path fill="none" stroke="#63b8ff" d="M712.63,-308.64C715.93,-277.09 716.68,-222 689,-187 676.46,-171.15 657.42,-159.35 640.44,-151.2"/>
<polygon fill="#63b8ff" stroke="#63b8ff" points="709.14,-308.4 711.41,-318.75 716.09,-309.24 709.14,-308.4"/>
</a>
</g>
</g>
<!-- Node47&#45;&gt;Node24 -->
<g id="edge55_Node000047_Node000024" class="edge">
<title>Node47&#45;&gt;Node24</title>
<g id="a_edge55_Node000047_Node000024"><a xlink:title=" ">
<path fill="none" stroke="#63b8ff" d="M680.53,-312.75C666.99,-303.13 651.14,-291.86 638.92,-283.16"/>
<polygon fill="#63b8ff" stroke="#63b8ff" points="678.85,-315.85 689.03,-318.8 682.9,-310.15 678.85,-315.85"/>
</a>
</g>
</g>
<!-- Node47&#45;&gt;Node25 -->
<g id="edge57_Node000047_Node000025" class="edge">
<title>Node47&#45;&gt;Node25</title>
<g id="a_edge57_Node000047_Node000025"><a xlink:title=" ">
<path fill="none" stroke="#63b8ff" d="M706.97,-308.61C704.58,-291.75 699.37,-269.49 688,-253 677.49,-237.75 660.74,-225.55 646.26,-217.01"/>
<polygon fill="#63b8ff" stroke="#63b8ff" points="703.53,-309.26 708.17,-318.79 710.48,-308.44 703.53,-309.26"/>
</a>
</g>
</g>
</g>
</svg>
