<?xml version="1.0" encoding="UTF-8" standalone="no"?>
<!DOCTYPE svg PUBLIC "-//W3C//DTD SVG 1.1//EN"
 "http://www.w3.org/Graphics/SVG/1.1/DTD/svg11.dtd">
<!-- Generated by graphviz version 2.43.0 (0)
 -->
<!-- Title: Kit/Container/Item.h Pages: 1 -->
<svg width="2438pt" height="467pt"
 viewBox="0.00 0.00 2438.00 467.00" xmlns="http://www.w3.org/2000/svg" xmlns:xlink="http://www.w3.org/1999/xlink">
<g id="graph0" class="graph" transform="scale(1 1) rotate(0) translate(4 463)">
<title>Kit/Container/Item.h</title>
<!-- Node1 -->
<g id="Node000001" class="node">
<title>Node1</title>
<g id="a_Node000001"><a xlink:title=" ">
<polygon fill="#999999" stroke="#666666" points="1543,-459 1428,-459 1428,-440 1543,-440 1543,-459"/>
<text text-anchor="middle" x="1485.5" y="-447" font-family="Helvetica,sans-Serif" font-size="10.00">Kit/Container/Item.h</text>
</a>
</g>
</g>
<!-- Node2 -->
<g id="Node000002" class="node">
<title>Node2</title>
<g id="a_Node000002"><a xlink:href="_list_item_8h.html" target="_top" xlink:title=" ">
<polygon fill="white" stroke="#666666" points="1057.5,-404 925.5,-404 925.5,-385 1057.5,-385 1057.5,-404"/>
<text text-anchor="middle" x="991.5" y="-392" font-family="Helvetica,sans-Serif" font-size="10.00">Kit/Container/ListItem.h</text>
</a>
</g>
</g>
<!-- Node1&#45;&gt;Node2 -->
<g id="edge1_Node000001_Node000002" class="edge">
<title>Node1&#45;&gt;Node2</title>
<g id="a_edge1_Node000001_Node000002"><a xlink:title=" ">
<path fill="none" stroke="#63b8ff" d="M1417.82,-441.24C1323.02,-431.07 1151.82,-412.7 1057.79,-402.61"/>
<polygon fill="#63b8ff" stroke="#63b8ff" points="1417.55,-444.73 1427.87,-442.32 1418.3,-437.77 1417.55,-444.73"/>
</a>
</g>
</g>
<!-- Node49 -->
<g id="Node000049" class="node">
<title>Node49</title>
<g id="a_Node000049"><a xlink:href="_sim_tick_8h.html" target="_top" xlink:title=" ">
<polygon fill="white" stroke="#666666" points="2430,-288.5 2309,-288.5 2309,-269.5 2430,-269.5 2430,-288.5"/>
<text text-anchor="middle" x="2369.5" y="-276.5" font-family="Helvetica,sans-Serif" font-size="10.00">Kit/System/SimTick.h</text>
</a>
</g>
</g>
<!-- Node1&#45;&gt;Node49 -->
<g id="edge60_Node000001_Node000049" class="edge">
<title>Node1&#45;&gt;Node49</title>
<g id="a_edge60_Node000001_Node000049"><a xlink:title=" ">
<path fill="none" stroke="#63b8ff" d="M1541.31,-438.1C1673.24,-413.48 2014.67,-349.51 2299.5,-294 2308.5,-292.25 2318.15,-290.34 2327.31,-288.51"/>
<polygon fill="#63b8ff" stroke="#63b8ff" points="1540.62,-434.67 1531.43,-439.95 1541.9,-441.55 1540.62,-434.67"/>
</a>
</g>
</g>
<!-- Node3 -->
<g id="Node000003" class="node">
<title>Node3</title>
<g id="a_Node000003"><a xlink:href="_d_list_base_8h.html" target="_top" xlink:title=" ">
<polygon fill="white" stroke="#666666" points="1062,-349 921,-349 921,-330 1062,-330 1062,-349"/>
<text text-anchor="middle" x="991.5" y="-337" font-family="Helvetica,sans-Serif" font-size="10.00">Kit/Container/DListBase.h</text>
</a>
</g>
</g>
<!-- Node2&#45;&gt;Node3 -->
<g id="edge2_Node000002_Node000003" class="edge">
<title>Node2&#45;&gt;Node3</title>
<g id="a_edge2_Node000002_Node000003"><a xlink:title=" ">
<path fill="none" stroke="#63b8ff" d="M991.5,-374.66C991.5,-365.93 991.5,-355.99 991.5,-349.09"/>
<polygon fill="#63b8ff" stroke="#63b8ff" points="988,-374.75 991.5,-384.75 995,-374.75 988,-374.75"/>
</a>
</g>
</g>
<!-- Node12 -->
<g id="Node000012" class="node">
<title>Node12</title>
<g id="a_Node000012"><a xlink:href="_keyed_item_8h.html" target="_top" xlink:title=" ">
<polygon fill="white" stroke="#666666" points="1396,-349 1251,-349 1251,-330 1396,-330 1396,-349"/>
<text text-anchor="middle" x="1323.5" y="-337" font-family="Helvetica,sans-Serif" font-size="10.00">Kit/Container/KeyedItem.h</text>
</a>
</g>
</g>
<!-- Node2&#45;&gt;Node12 -->
<g id="edge11_Node000002_Node000012" class="edge">
<title>Node2&#45;&gt;Node12</title>
<g id="a_edge11_Node000002_Node000012"><a xlink:title=" ">
<path fill="none" stroke="#63b8ff" d="M1054.95,-383.37C1117.29,-373.42 1211.36,-358.4 1270.02,-349.04"/>
<polygon fill="#63b8ff" stroke="#63b8ff" points="1054.16,-379.95 1044.84,-384.98 1055.27,-386.86 1054.16,-379.95"/>
</a>
</g>
</g>
<!-- Node19 -->
<g id="Node000019" class="node">
<title>Node19</title>
<g id="a_Node000019"><a xlink:href="_s_list_base_8h.html" target="_top" xlink:title=" ">
<polygon fill="white" stroke="#666666" points="641.5,-349 501.5,-349 501.5,-330 641.5,-330 641.5,-349"/>
<text text-anchor="middle" x="571.5" y="-337" font-family="Helvetica,sans-Serif" font-size="10.00">Kit/Container/SListBase.h</text>
</a>
</g>
</g>
<!-- Node2&#45;&gt;Node19 -->
<g id="edge18_Node000002_Node000019" class="edge">
<title>Node2&#45;&gt;Node19</title>
<g id="a_edge18_Node000002_Node000019"><a xlink:title=" ">
<path fill="none" stroke="#63b8ff" d="M915.06,-383.85C836.18,-373.9 714.34,-358.52 638.94,-349.01"/>
<polygon fill="#63b8ff" stroke="#63b8ff" points="915.05,-387.38 925.41,-385.16 915.93,-380.44 915.05,-387.38"/>
</a>
</g>
</g>
<!-- Node23 -->
<g id="Node000023" class="node">
<title>Node23</title>
<g id="a_Node000023"><a xlink:href="_i_event_flag_8h.html" target="_top" xlink:title=" ">
<polygon fill="white" stroke="#666666" points="825.5,-222.5 691.5,-222.5 691.5,-203.5 825.5,-203.5 825.5,-222.5"/>
<text text-anchor="middle" x="758.5" y="-210.5" font-family="Helvetica,sans-Serif" font-size="10.00">Kit/System/IEventFlag.h</text>
</a>
</g>
</g>
<!-- Node2&#45;&gt;Node23 -->
<g id="edge41_Node000002_Node000023" class="edge">
<title>Node2&#45;&gt;Node23</title>
<g id="a_edge41_Node000002_Node000023"><a xlink:title=" ">
<path fill="none" stroke="#63b8ff" d="M915.01,-387.61C859.35,-381.62 790.54,-370.12 771.5,-349 738.71,-312.62 750.62,-246.24 756.24,-222.62"/>
<polygon fill="#63b8ff" stroke="#63b8ff" points="914.92,-391.12 925.23,-388.66 915.64,-384.15 914.92,-391.12"/>
</a>
</g>
</g>
<!-- Node26 -->
<g id="Node000026" class="node">
<title>Node26</title>
<g id="a_Node000026"><a xlink:href="_i_message_8h.html" target="_top" xlink:title=" ">
<polygon fill="white" stroke="#666666" points="377.5,-349 273.5,-349 273.5,-330 377.5,-330 377.5,-349"/>
<text text-anchor="middle" x="325.5" y="-337" font-family="Helvetica,sans-Serif" font-size="10.00">Kit/Itc/IMessage.h</text>
</a>
</g>
</g>
<!-- Node2&#45;&gt;Node26 -->
<g id="edge27_Node000002_Node000026" class="edge">
<title>Node2&#45;&gt;Node26</title>
<g id="a_edge27_Node000002_Node000026"><a xlink:title=" ">
<path fill="none" stroke="#63b8ff" d="M915.22,-387.43C778.48,-376.55 495.01,-353.99 377.89,-344.67"/>
<polygon fill="#63b8ff" stroke="#63b8ff" points="914.96,-390.92 925.21,-388.22 915.52,-383.94 914.96,-390.92"/>
</a>
</g>
</g>
<!-- Node36 -->
<g id="Node000036" class="node">
<title>Node36</title>
<g id="a_Node000036"><a xlink:href="_i_counter_8h.html" target="_top" xlink:title=" ">
<polygon fill="white" stroke="#666666" points="902.5,-349 780.5,-349 780.5,-330 902.5,-330 902.5,-349"/>
<text text-anchor="middle" x="841.5" y="-337" font-family="Helvetica,sans-Serif" font-size="10.00">Kit/System/ICounter.h</text>
</a>
</g>
</g>
<!-- Node2&#45;&gt;Node36 -->
<g id="edge39_Node000002_Node000036" class="edge">
<title>Node2&#45;&gt;Node36</title>
<g id="a_edge39_Node000002_Node000036"><a xlink:title=" ">
<path fill="none" stroke="#63b8ff" d="M957.68,-381.55C929.82,-371.71 890.99,-357.98 866.04,-349.17"/>
<polygon fill="#63b8ff" stroke="#63b8ff" points="956.81,-384.95 967.4,-384.98 959.14,-378.35 956.81,-384.95"/>
</a>
</g>
</g>
<!-- Node37 -->
<g id="Node000037" class="node">
<title>Node37</title>
<g id="a_Node000037"><a xlink:href="_private_startup_8h.html" target="_top" xlink:title=" ">
<polygon fill="white" stroke="#666666" points="1232.5,-349 1080.5,-349 1080.5,-330 1232.5,-330 1232.5,-349"/>
<text text-anchor="middle" x="1156.5" y="-337" font-family="Helvetica,sans-Serif" font-size="10.00">Kit/System/PrivateStartup.h</text>
</a>
</g>
</g>
<!-- Node2&#45;&gt;Node37 -->
<g id="edge42_Node000002_Node000037" class="edge">
<title>Node2&#45;&gt;Node37</title>
<g id="a_edge42_Node000002_Node000037"><a xlink:title=" ">
<path fill="none" stroke="#63b8ff" d="M1027.93,-381.8C1058.72,-371.91 1102.12,-357.97 1129.78,-349.08"/>
<polygon fill="#63b8ff" stroke="#63b8ff" points="1026.46,-378.59 1018.01,-384.98 1028.6,-385.26 1026.46,-378.59"/>
</a>
</g>
</g>
<!-- Node38 -->
<g id="Node000038" class="node">
<title>Node38</title>
<g id="a_Node000038"><a xlink:href="_shutdown_8h.html" target="_top" xlink:title=" ">
<polygon fill="white" stroke="#666666" points="1544.5,-349 1414.5,-349 1414.5,-330 1544.5,-330 1544.5,-349"/>
<text text-anchor="middle" x="1479.5" y="-337" font-family="Helvetica,sans-Serif" font-size="10.00">Kit/System/Shutdown.h</text>
</a>
</g>
</g>
<!-- Node2&#45;&gt;Node38 -->
<g id="edge43_Node000002_Node000038" class="edge">
<title>Node2&#45;&gt;Node38</title>
<g id="a_edge43_Node000002_Node000038"><a xlink:title=" ">
<path fill="none" stroke="#63b8ff" d="M1067.76,-385.41C1150.66,-376.59 1287.01,-361.99 1404.5,-349 1407.76,-348.64 1411.09,-348.27 1414.46,-347.89"/>
<polygon fill="#63b8ff" stroke="#63b8ff" points="1067.25,-381.94 1057.68,-386.48 1067.99,-388.91 1067.25,-381.94"/>
</a>
</g>
</g>
<!-- Node42 -->
<g id="Node000042" class="node">
<title>Node42</title>
<g id="a_Node000042"><a xlink:href="_thread_8h.html" target="_top" xlink:title=" ">
<polygon fill="white" stroke="#666666" points="1983.5,-349 1867.5,-349 1867.5,-330 1983.5,-330 1983.5,-349"/>
<text text-anchor="middle" x="1925.5" y="-337" font-family="Helvetica,sans-Serif" font-size="10.00">Kit/System/Thread.h</text>
</a>
</g>
</g>
<!-- Node2&#45;&gt;Node42 -->
<g id="edge47_Node000002_Node000042" class="edge">
<title>Node2&#45;&gt;Node42</title>
<g id="a_edge47_Node000002_Node000042"><a xlink:title=" ">
<path fill="none" stroke="#63b8ff" d="M1067.55,-389.18C1249.2,-378.88 1705.21,-353 1867.25,-343.81"/>
<polygon fill="#63b8ff" stroke="#63b8ff" points="1067.33,-385.69 1057.55,-389.75 1067.73,-392.68 1067.33,-385.69"/>
</a>
</g>
</g>
<!-- Node51 -->
<g id="Node000051" class="node">
<title>Node51</title>
<g id="a_Node000051"><a xlink:href="_watched_thread_8h.html" target="_top" xlink:title=" ">
<polygon fill="white" stroke="#666666" points="724,-294 603,-294 603,-264 724,-264 724,-294"/>
<text text-anchor="start" x="611" y="-282" font-family="Helvetica,sans-Serif" font-size="10.00">Kit/System/Watchdog</text>
<text text-anchor="middle" x="663.5" y="-271" font-family="Helvetica,sans-Serif" font-size="10.00">/WatchedThread.h</text>
</a>
</g>
</g>
<!-- Node2&#45;&gt;Node51 -->
<g id="edge56_Node000002_Node000051" class="edge">
<title>Node2&#45;&gt;Node51</title>
<g id="a_edge56_Node000002_Node000051"><a xlink:title=" ">
<path fill="none" stroke="#63b8ff" d="M915.28,-391.26C863.17,-387.11 793.79,-376.32 738.5,-349 711.85,-335.83 687.88,-310.23 674.55,-294.19"/>
<polygon fill="#63b8ff" stroke="#63b8ff" points="915.24,-394.76 925.46,-392 915.75,-387.78 915.24,-394.76"/>
</a>
</g>
</g>
<!-- Node4 -->
<g id="Node000004" class="node">
<title>Node4</title>
<g id="a_Node000004"><a xlink:href="_d_list_8h.html" target="_top" xlink:title=" ">
<polygon fill="white" stroke="#666666" points="1033,-288.5 916,-288.5 916,-269.5 1033,-269.5 1033,-288.5"/>
<text text-anchor="middle" x="974.5" y="-276.5" font-family="Helvetica,sans-Serif" font-size="10.00">Kit/Container/DList.h</text>
</a>
</g>
</g>
<!-- Node3&#45;&gt;Node4 -->
<g id="edge3_Node000003_Node000004" class="edge">
<title>Node3&#45;&gt;Node4</title>
<g id="a_edge3_Node000003_Node000004"><a xlink:title=" ">
<path fill="none" stroke="#63b8ff" d="M986.12,-319.99C983.08,-309.51 979.41,-296.89 977.02,-288.67"/>
<polygon fill="#63b8ff" stroke="#63b8ff" points="982.84,-321.24 988.99,-329.87 989.56,-319.29 982.84,-321.24"/>
</a>
</g>
</g>
<!-- Node5 -->
<g id="Node000005" class="node">
<title>Node5</title>
<g id="a_Node000005"><a xlink:href="_timer_manager_8h.html" target="_top" xlink:title=" ">
<polygon fill="white" stroke="#666666" points="1033.5,-222.5 881.5,-222.5 881.5,-203.5 1033.5,-203.5 1033.5,-222.5"/>
<text text-anchor="middle" x="957.5" y="-210.5" font-family="Helvetica,sans-Serif" font-size="10.00">Kit/System/TimerManager.h</text>
</a>
</g>
</g>
<!-- Node4&#45;&gt;Node5 -->
<g id="edge4_Node000004_Node000005" class="edge">
<title>Node4&#45;&gt;Node5</title>
<g id="a_edge4_Node000004_Node000005"><a xlink:title=" ">
<path fill="none" stroke="#63b8ff" d="M969.57,-259.45C966.38,-247.43 962.37,-232.32 959.87,-222.91"/>
<polygon fill="#63b8ff" stroke="#63b8ff" points="966.26,-260.6 972.21,-269.37 973.02,-258.81 966.26,-260.6"/>
</a>
</g>
</g>
<!-- Node6 -->
<g id="Node000006" class="node">
<title>Node6</title>
<g id="a_Node000006"><a xlink:href="_event_loop_8h.html" target="_top" xlink:title=" ">
<polygon fill="white" stroke="#666666" points="825,-156.5 692,-156.5 692,-137.5 825,-137.5 825,-156.5"/>
<text text-anchor="middle" x="758.5" y="-144.5" font-family="Helvetica,sans-Serif" font-size="10.00">Kit/System/EventLoop.h</text>
</a>
</g>
</g>
<!-- Node5&#45;&gt;Node6 -->
<g id="edge5_Node000005_Node000006" class="edge">
<title>Node5&#45;&gt;Node6</title>
<g id="a_edge5_Node000005_Node000006"><a xlink:title=" ">
<path fill="none" stroke="#63b8ff" d="M920.94,-200.24C881.67,-187.61 820.21,-167.85 785.23,-156.6"/>
<polygon fill="#63b8ff" stroke="#63b8ff" points="920.07,-203.64 930.66,-203.37 922.21,-196.98 920.07,-203.64"/>
</a>
</g>
</g>
<!-- Node10 -->
<g id="Node000010" class="node">
<title>Node10</title>
<g id="a_Node000010"><a xlink:href="_timer_8h.html" target="_top" xlink:title=" ">
<polygon fill="white" stroke="#666666" points="1002.5,-156.5 892.5,-156.5 892.5,-137.5 1002.5,-137.5 1002.5,-156.5"/>
<text text-anchor="middle" x="947.5" y="-144.5" font-family="Helvetica,sans-Serif" font-size="10.00">Kit/System/Timer.h</text>
</a>
</g>
</g>
<!-- Node5&#45;&gt;Node10 -->
<g id="edge9_Node000005_Node000010" class="edge">
<title>Node5&#45;&gt;Node10</title>
<g id="a_edge9_Node000005_Node000010"><a xlink:title=" ">
<path fill="none" stroke="#63b8ff" d="M954.6,-193.45C952.72,-181.43 950.36,-166.32 948.89,-156.91"/>
<polygon fill="#63b8ff" stroke="#63b8ff" points="951.15,-194.03 956.15,-203.37 958.07,-192.95 951.15,-194.03"/>
</a>
</g>
</g>
<!-- Node7 -->
<g id="Node000007" class="node">
<title>Node7</title>
<g id="a_Node000007"><a xlink:href="_server_8h.html" target="_top" xlink:title=" ">
<polygon fill="white" stroke="#666666" points="631,-90.5 496,-90.5 496,-71.5 631,-71.5 631,-90.5"/>
<text text-anchor="middle" x="563.5" y="-78.5" font-family="Helvetica,sans-Serif" font-size="10.00">Kit/EventQueue/Server.h</text>
</a>
</g>
</g>
<!-- Node6&#45;&gt;Node7 -->
<g id="edge6_Node000006_Node000007" class="edge">
<title>Node6&#45;&gt;Node7</title>
<g id="a_edge6_Node000006_Node000007"><a xlink:title=" ">
<path fill="none" stroke="#63b8ff" d="M722.43,-134.16C683.94,-121.53 623.9,-101.82 589.69,-90.6"/>
<polygon fill="#63b8ff" stroke="#63b8ff" points="721.61,-137.58 732.2,-137.37 723.79,-130.92 721.61,-137.58"/>
</a>
</g>
</g>
<!-- Node9 -->
<g id="Node000009" class="node">
<title>Node9</title>
<g id="a_Node000009"><a xlink:href="_event_loop_with_p_scheduling_8h.html" target="_top" xlink:title=" ">
<polygon fill="white" stroke="#666666" points="831.5,-96 685.5,-96 685.5,-66 831.5,-66 831.5,-96"/>
<text text-anchor="start" x="693.5" y="-84" font-family="Helvetica,sans-Serif" font-size="10.00">Kit/System/EventLoopWith</text>
<text text-anchor="middle" x="758.5" y="-73" font-family="Helvetica,sans-Serif" font-size="10.00">PScheduling.h</text>
</a>
</g>
</g>
<!-- Node6&#45;&gt;Node9 -->
<g id="edge8_Node000006_Node000009" class="edge">
<title>Node6&#45;&gt;Node9</title>
<g id="a_edge8_Node000006_Node000009"><a xlink:title=" ">
<path fill="none" stroke="#63b8ff" d="M758.5,-127.35C758.5,-117.47 758.5,-105.51 758.5,-96.36"/>
<polygon fill="#63b8ff" stroke="#63b8ff" points="755,-127.37 758.5,-137.37 762,-127.37 755,-127.37"/>
</a>
</g>
</g>
<!-- Node8 -->
<g id="Node000008" class="node">
<title>Node8</title>
<g id="a_Node000008"><a xlink:href="_with_periodic_scheduling_8h.html" target="_top" xlink:title=" ">
<polygon fill="white" stroke="#666666" points="642,-30 485,-30 485,0 642,0 642,-30"/>
<text text-anchor="start" x="493" y="-18" font-family="Helvetica,sans-Serif" font-size="10.00">Kit/EventQueue/WithPeriodic</text>
<text text-anchor="middle" x="563.5" y="-7" font-family="Helvetica,sans-Serif" font-size="10.00">Scheduling.h</text>
</a>
</g>
</g>
<!-- Node7&#45;&gt;Node8 -->
<g id="edge7_Node000007_Node000008" class="edge">
<title>Node7&#45;&gt;Node8</title>
<g id="a_edge7_Node000007_Node000008"><a xlink:title=" ">
<path fill="none" stroke="#63b8ff" d="M563.5,-61.35C563.5,-51.47 563.5,-39.51 563.5,-30.36"/>
<polygon fill="#63b8ff" stroke="#63b8ff" points="560,-61.37 563.5,-71.37 567,-61.37 560,-61.37"/>
</a>
</g>
</g>
<!-- Node11 -->
<g id="Node000011" class="node">
<title>Node11</title>
<g id="a_Node000011"><a xlink:href="_watched_event_thread_8h.html" target="_top" xlink:title=" ">
<polygon fill="white" stroke="#666666" points="997.5,-96 865.5,-96 865.5,-66 997.5,-66 997.5,-96"/>
<text text-anchor="start" x="873.5" y="-84" font-family="Helvetica,sans-Serif" font-size="10.00">Kit/System/Watchdog</text>
<text text-anchor="middle" x="931.5" y="-73" font-family="Helvetica,sans-Serif" font-size="10.00">/WatchedEventThread.h</text>
</a>
</g>
</g>
<!-- Node10&#45;&gt;Node11 -->
<g id="edge10_Node000010_Node000011" class="edge">
<title>Node10&#45;&gt;Node11</title>
<g id="a_edge10_Node000010_Node000011"><a xlink:title=" ">
<path fill="none" stroke="#63b8ff" d="M942.84,-127.35C940.37,-117.47 937.38,-105.51 935.09,-96.36"/>
<polygon fill="#63b8ff" stroke="#63b8ff" points="939.52,-128.52 945.34,-137.37 946.31,-126.82 939.52,-128.52"/>
</a>
</g>
</g>
<!-- Node13 -->
<g id="Node000013" class="node">
<title>Node13</title>
<g id="a_Node000013"><a xlink:href="_map_item_8h.html" target="_top" xlink:title=" ">
<polygon fill="white" stroke="#666666" points="1360.5,-288.5 1224.5,-288.5 1224.5,-269.5 1360.5,-269.5 1360.5,-288.5"/>
<text text-anchor="middle" x="1292.5" y="-276.5" font-family="Helvetica,sans-Serif" font-size="10.00">Kit/Container/MapItem.h</text>
</a>
</g>
</g>
<!-- Node12&#45;&gt;Node13 -->
<g id="edge12_Node000012_Node000013" class="edge">
<title>Node12&#45;&gt;Node13</title>
<g id="a_edge12_Node000012_Node000013"><a xlink:title=" ">
<path fill="none" stroke="#63b8ff" d="M1314.22,-320.98C1308.56,-310.31 1301.59,-297.15 1297.09,-288.67"/>
<polygon fill="#63b8ff" stroke="#63b8ff" points="1311.15,-322.67 1318.93,-329.87 1317.34,-319.39 1311.15,-322.67"/>
</a>
</g>
</g>
<!-- Node14 -->
<g id="Node000014" class="node">
<title>Node14</title>
<g id="a_Node000014"><a xlink:href="_avl_tree___8h.html" target="_top" xlink:title=" ">
<polygon fill="white" stroke="#666666" points="1216,-222.5 1083,-222.5 1083,-203.5 1216,-203.5 1216,-222.5"/>
<text text-anchor="middle" x="1149.5" y="-210.5" font-family="Helvetica,sans-Serif" font-size="10.00">Kit/Container/AvlTree_.h</text>
</a>
</g>
</g>
<!-- Node13&#45;&gt;Node14 -->
<g id="edge13_Node000013_Node000014" class="edge">
<title>Node13&#45;&gt;Node14</title>
<g id="a_edge13_Node000013_Node000014"><a xlink:title=" ">
<path fill="none" stroke="#63b8ff" d="M1263.89,-265.19C1235.7,-252.58 1193.42,-233.66 1168.94,-222.7"/>
<polygon fill="#63b8ff" stroke="#63b8ff" points="1262.66,-268.48 1273.21,-269.37 1265.52,-262.09 1262.66,-268.48"/>
</a>
</g>
</g>
<!-- Node16 -->
<g id="Node000016" class="node">
<title>Node16</title>
<g id="a_Node000016"><a xlink:href="_string_item_8h.html" target="_top" xlink:title=" ">
<polygon fill="white" stroke="#666666" points="1350.5,-222.5 1234.5,-222.5 1234.5,-203.5 1350.5,-203.5 1350.5,-222.5"/>
<text text-anchor="middle" x="1292.5" y="-210.5" font-family="Helvetica,sans-Serif" font-size="10.00">Kit/Text/StringItem.h</text>
</a>
</g>
</g>
<!-- Node13&#45;&gt;Node16 -->
<g id="edge15_Node000013_Node000016" class="edge">
<title>Node13&#45;&gt;Node16</title>
<g id="a_edge15_Node000013_Node000016"><a xlink:title=" ">
<path fill="none" stroke="#63b8ff" d="M1292.5,-259.08C1292.5,-247.13 1292.5,-232.22 1292.5,-222.91"/>
<polygon fill="#63b8ff" stroke="#63b8ff" points="1289,-259.37 1292.5,-269.37 1296,-259.37 1289,-259.37"/>
</a>
</g>
</g>
<!-- Node15 -->
<g id="Node000015" class="node">
<title>Node15</title>
<g id="a_Node000015"><a xlink:href="_map_8h.html" target="_top" xlink:title=" ">
<polygon fill="white" stroke="#666666" points="1206,-156.5 1093,-156.5 1093,-137.5 1206,-137.5 1206,-156.5"/>
<text text-anchor="middle" x="1149.5" y="-144.5" font-family="Helvetica,sans-Serif" font-size="10.00">Kit/Container/Map.h</text>
</a>
</g>
</g>
<!-- Node14&#45;&gt;Node15 -->
<g id="edge14_Node000014_Node000015" class="edge">
<title>Node14&#45;&gt;Node15</title>
<g id="a_edge14_Node000014_Node000015"><a xlink:title=" ">
<path fill="none" stroke="#63b8ff" d="M1149.5,-193.08C1149.5,-181.13 1149.5,-166.22 1149.5,-156.91"/>
<polygon fill="#63b8ff" stroke="#63b8ff" points="1146,-193.37 1149.5,-203.37 1153,-193.37 1146,-193.37"/>
</a>
</g>
</g>
<!-- Node17 -->
<g id="Node000017" class="node">
<title>Node17</title>
<g id="a_Node000017"><a xlink:href="_d_string_item_8h.html" target="_top" xlink:title=" ">
<polygon fill="white" stroke="#666666" points="1351.5,-156.5 1227.5,-156.5 1227.5,-137.5 1351.5,-137.5 1351.5,-156.5"/>
<text text-anchor="middle" x="1289.5" y="-144.5" font-family="Helvetica,sans-Serif" font-size="10.00">Kit/Text/DStringItem.h</text>
</a>
</g>
</g>
<!-- Node16&#45;&gt;Node17 -->
<g id="edge16_Node000016_Node000017" class="edge">
<title>Node16&#45;&gt;Node17</title>
<g id="a_edge16_Node000016_Node000017"><a xlink:title=" ">
<path fill="none" stroke="#63b8ff" d="M1291.61,-193.08C1291.05,-181.13 1290.35,-166.22 1289.92,-156.91"/>
<polygon fill="#63b8ff" stroke="#63b8ff" points="1288.13,-193.54 1292.1,-203.37 1295.12,-193.22 1288.13,-193.54"/>
</a>
</g>
</g>
<!-- Node18 -->
<g id="Node000018" class="node">
<title>Node18</title>
<g id="a_Node000018"><a xlink:href="_f_string_item_8h.html" target="_top" xlink:title=" ">
<polygon fill="white" stroke="#666666" points="1491.5,-156.5 1369.5,-156.5 1369.5,-137.5 1491.5,-137.5 1491.5,-156.5"/>
<text text-anchor="middle" x="1430.5" y="-144.5" font-family="Helvetica,sans-Serif" font-size="10.00">Kit/Text/FStringItem.h</text>
</a>
</g>
</g>
<!-- Node16&#45;&gt;Node18 -->
<g id="edge17_Node000016_Node000018" class="edge">
<title>Node16&#45;&gt;Node18</title>
<g id="a_edge17_Node000016_Node000018"><a xlink:title=" ">
<path fill="none" stroke="#63b8ff" d="M1320.47,-199.03C1347.67,-186.42 1388.21,-167.61 1411.74,-156.7"/>
<polygon fill="#63b8ff" stroke="#63b8ff" points="1318.71,-195.99 1311.11,-203.37 1321.66,-202.34 1318.71,-195.99"/>
</a>
</g>
</g>
<!-- Node20 -->
<g id="Node000020" class="node">
<title>Node20</title>
<g id="a_Node000020"><a xlink:href="_s_list_8h.html" target="_top" xlink:title=" ">
<polygon fill="white" stroke="#666666" points="584.5,-288.5 468.5,-288.5 468.5,-269.5 584.5,-269.5 584.5,-288.5"/>
<text text-anchor="middle" x="526.5" y="-276.5" font-family="Helvetica,sans-Serif" font-size="10.00">Kit/Container/SList.h</text>
</a>
</g>
</g>
<!-- Node19&#45;&gt;Node20 -->
<g id="edge19_Node000019_Node000020" class="edge">
<title>Node19&#45;&gt;Node20</title>
<g id="a_edge19_Node000019_Node000020"><a xlink:title=" ">
<path fill="none" stroke="#63b8ff" d="M558.52,-321.63C550.23,-310.85 539.82,-297.32 533.17,-288.67"/>
<polygon fill="#63b8ff" stroke="#63b8ff" points="555.99,-324.08 564.86,-329.87 561.54,-319.81 555.99,-324.08"/>
</a>
</g>
</g>
<!-- Node21 -->
<g id="Node000021" class="node">
<title>Node21</title>
<g id="a_Node000021"><a xlink:href="_tee_output_8h.html" target="_top" xlink:title=" ">
<polygon fill="white" stroke="#666666" points="495.5,-222.5 391.5,-222.5 391.5,-203.5 495.5,-203.5 495.5,-222.5"/>
<text text-anchor="middle" x="443.5" y="-210.5" font-family="Helvetica,sans-Serif" font-size="10.00">Kit/Io/TeeOutput.h</text>
</a>
</g>
</g>
<!-- Node20&#45;&gt;Node21 -->
<g id="edge20_Node000020_Node000021" class="edge">
<title>Node20&#45;&gt;Node21</title>
<g id="a_edge20_Node000020_Node000021"><a xlink:title=" ">
<path fill="none" stroke="#63b8ff" d="M507.03,-262.99C490.78,-250.46 468.19,-233.04 454.78,-222.7"/>
<polygon fill="#63b8ff" stroke="#63b8ff" points="505.25,-266.03 515.31,-269.37 509.52,-260.49 505.25,-266.03"/>
</a>
</g>
</g>
<!-- Node22 -->
<g id="Node000022" class="node">
<title>Node22</title>
<g id="a_Node000022"><a xlink:href="_mailbox_8h.html" target="_top" xlink:title=" ">
<polygon fill="white" stroke="#666666" points="373.5,-222.5 277.5,-222.5 277.5,-203.5 373.5,-203.5 373.5,-222.5"/>
<text text-anchor="middle" x="325.5" y="-210.5" font-family="Helvetica,sans-Serif" font-size="10.00">Kit/Itc/Mailbox.h</text>
</a>
</g>
</g>
<!-- Node20&#45;&gt;Node22 -->
<g id="edge21_Node000020_Node000022" class="edge">
<title>Node20&#45;&gt;Node22</title>
<g id="a_edge21_Node000020_Node000022"><a xlink:title=" ">
<path fill="none" stroke="#63b8ff" d="M489.83,-266.32C450.18,-253.7 387.91,-233.87 352.5,-222.6"/>
<polygon fill="#63b8ff" stroke="#63b8ff" points="488.8,-269.67 499.39,-269.37 490.93,-263 488.8,-269.67"/>
</a>
</g>
</g>
<!-- Node20&#45;&gt;Node23 -->
<g id="edge23_Node000020_Node000023" class="edge">
<title>Node20&#45;&gt;Node23</title>
<g id="a_edge23_Node000020_Node000023"><a xlink:title=" ">
<path fill="none" stroke="#63b8ff" d="M567.67,-266.64C613.38,-254.03 686.12,-233.97 727.34,-222.6"/>
<polygon fill="#63b8ff" stroke="#63b8ff" points="566.5,-263.34 557.79,-269.37 568.36,-270.08 566.5,-263.34"/>
</a>
</g>
</g>
<!-- Node24 -->
<g id="Node000024" class="node">
<title>Node24</title>
<g id="a_Node000024"><a xlink:href="_supervisor_8h.html" target="_top" xlink:title=" ">
<polygon fill="white" stroke="#666666" points="635,-228 514,-228 514,-198 635,-198 635,-228"/>
<text text-anchor="start" x="522" y="-216" font-family="Helvetica,sans-Serif" font-size="10.00">Kit/System/Watchdog</text>
<text text-anchor="middle" x="574.5" y="-205" font-family="Helvetica,sans-Serif" font-size="10.00">/Supervisor.h</text>
</a>
</g>
</g>
<!-- Node20&#45;&gt;Node24 -->
<g id="edge25_Node000020_Node000024" class="edge">
<title>Node20&#45;&gt;Node24</title>
<g id="a_edge25_Node000020_Node000024"><a xlink:title=" ">
<path fill="none" stroke="#63b8ff" d="M539.07,-261.24C546.73,-251.02 556.42,-238.1 563.73,-228.36"/>
<polygon fill="#63b8ff" stroke="#63b8ff" points="536.17,-259.27 532.97,-269.37 541.77,-263.47 536.17,-259.27"/>
</a>
</g>
</g>
<!-- Node22&#45;&gt;Node7 -->
<g id="edge22_Node000022_Node000007" class="edge">
<title>Node22&#45;&gt;Node7</title>
<g id="a_edge22_Node000022_Node000007"><a xlink:title=" ">
<path fill="none" stroke="#63b8ff" d="M350.07,-198.58C398.99,-171.86 507.33,-112.68 547.83,-90.56"/>
<polygon fill="#63b8ff" stroke="#63b8ff" points="348.21,-195.6 341.12,-203.47 351.57,-201.75 348.21,-195.6"/>
</a>
</g>
</g>
<!-- Node23&#45;&gt;Node6 -->
<g id="edge24_Node000023_Node000006" class="edge">
<title>Node23&#45;&gt;Node6</title>
<g id="a_edge24_Node000023_Node000006"><a xlink:title=" ">
<path fill="none" stroke="#63b8ff" d="M758.5,-193.08C758.5,-181.13 758.5,-166.22 758.5,-156.91"/>
<polygon fill="#63b8ff" stroke="#63b8ff" points="755,-193.37 758.5,-203.37 762,-193.37 755,-193.37"/>
</a>
</g>
</g>
<!-- Node25 -->
<g id="Node000025" class="node">
<title>Node25</title>
<g id="a_Node000025"><a xlink:href="_watched_raw_thread_8h.html" target="_top" xlink:title=" ">
<polygon fill="white" stroke="#666666" points="656,-162 531,-162 531,-132 656,-132 656,-162"/>
<text text-anchor="start" x="539" y="-150" font-family="Helvetica,sans-Serif" font-size="10.00">Kit/System/Watchdog</text>
<text text-anchor="middle" x="593.5" y="-139" font-family="Helvetica,sans-Serif" font-size="10.00">/WatchedRawThread.h</text>
</a>
</g>
</g>
<!-- Node24&#45;&gt;Node25 -->
<g id="edge26_Node000024_Node000025" class="edge">
<title>Node24&#45;&gt;Node25</title>
<g id="a_edge26_Node000024_Node000025"><a xlink:title=" ">
<path fill="none" stroke="#63b8ff" d="M581.59,-188.11C584.19,-179.38 587.03,-169.78 589.3,-162.16"/>
<polygon fill="#63b8ff" stroke="#63b8ff" points="578.21,-187.21 578.72,-197.8 584.92,-189.21 578.21,-187.21"/>
</a>
</g>
</g>
<!-- Node26&#45;&gt;Node22 -->
<g id="edge28_Node000026_Node000022" class="edge">
<title>Node26&#45;&gt;Node22</title>
<g id="a_edge28_Node000026_Node000022"><a xlink:title=" ">
<path fill="none" stroke="#63b8ff" d="M325.5,-319.74C325.5,-292.36 325.5,-242.58 325.5,-222.62"/>
<polygon fill="#63b8ff" stroke="#63b8ff" points="322,-319.94 325.5,-329.94 329,-319.94 322,-319.94"/>
</a>
</g>
</g>
<!-- Node27 -->
<g id="Node000027" class="node">
<title>Node27</title>
<g id="a_Node000027"><a xlink:href="_server_message_8h.html" target="_top" xlink:title=" ">
<polygon fill="white" stroke="#666666" points="276.5,-288.5 144.5,-288.5 144.5,-269.5 276.5,-269.5 276.5,-288.5"/>
<text text-anchor="middle" x="210.5" y="-276.5" font-family="Helvetica,sans-Serif" font-size="10.00">Kit/Itc/ServerMessage.h</text>
</a>
</g>
</g>
<!-- Node26&#45;&gt;Node27 -->
<g id="edge29_Node000026_Node000027" class="edge">
<title>Node26&#45;&gt;Node27</title>
<g id="a_edge29_Node000026_Node000027"><a xlink:title=" ">
<path fill="none" stroke="#63b8ff" d="M299.41,-325.23C277.39,-314.03 246.51,-298.32 227.54,-288.67"/>
<polygon fill="#63b8ff" stroke="#63b8ff" points="298.03,-328.45 308.53,-329.87 301.21,-322.21 298.03,-328.45"/>
</a>
</g>
</g>
<!-- Node28 -->
<g id="Node000028" class="node">
<title>Node28</title>
<g id="a_Node000028"><a xlink:href="_request_message_8h.html" target="_top" xlink:title=" ">
<polygon fill="white" stroke="#666666" points="259.5,-222.5 119.5,-222.5 119.5,-203.5 259.5,-203.5 259.5,-222.5"/>
<text text-anchor="middle" x="189.5" y="-210.5" font-family="Helvetica,sans-Serif" font-size="10.00">Kit/Itc/RequestMessage.h</text>
</a>
</g>
</g>
<!-- Node27&#45;&gt;Node28 -->
<g id="edge30_Node000027_Node000028" class="edge">
<title>Node27&#45;&gt;Node28</title>
<g id="a_edge30_Node000027_Node000028"><a xlink:title=" ">
<path fill="none" stroke="#63b8ff" d="M204.53,-259.82C200.57,-247.74 195.54,-232.41 192.42,-222.91"/>
<polygon fill="#63b8ff" stroke="#63b8ff" points="201.22,-260.96 207.67,-269.37 207.88,-258.78 201.22,-260.96"/>
</a>
</g>
</g>
<!-- Node29 -->
<g id="Node000029" class="node">
<title>Node29</title>
<g id="a_Node000029"><a xlink:href="_i_listener_client_request_8h.html" target="_top" xlink:title=" ">
<polygon fill="white" stroke="#666666" points="151,-162 0,-162 0,-132 151,-132 151,-162"/>
<text text-anchor="start" x="8" y="-150" font-family="Helvetica,sans-Serif" font-size="10.00">Kit/Io/Socket/IListenerClient</text>
<text text-anchor="middle" x="75.5" y="-139" font-family="Helvetica,sans-Serif" font-size="10.00">Request.h</text>
</a>
</g>
</g>
<!-- Node28&#45;&gt;Node29 -->
<g id="edge31_Node000028_Node000029" class="edge">
<title>Node28&#45;&gt;Node29</title>
<g id="a_edge31_Node000028_Node000029"><a xlink:title=" ">
<path fill="none" stroke="#63b8ff" d="M165.19,-198.35C146.19,-187.68 119.86,-172.9 100.64,-162.12"/>
<polygon fill="#63b8ff" stroke="#63b8ff" points="163.69,-201.53 174.13,-203.37 167.12,-195.42 163.69,-201.53"/>
</a>
</g>
</g>
<!-- Node31 -->
<g id="Node000031" class="node">
<title>Node31</title>
<g id="a_Node000031"><a xlink:href="_i_close_request_8h.html" target="_top" xlink:title=" ">
<polygon fill="white" stroke="#666666" points="297,-90.5 170,-90.5 170,-71.5 297,-71.5 297,-90.5"/>
<text text-anchor="middle" x="233.5" y="-78.5" font-family="Helvetica,sans-Serif" font-size="10.00">Kit/Itc/ICloseRequest.h</text>
</a>
</g>
</g>
<!-- Node28&#45;&gt;Node31 -->
<g id="edge33_Node000028_Node000031" class="edge">
<title>Node28&#45;&gt;Node31</title>
<g id="a_edge33_Node000028_Node000031"><a xlink:title=" ">
<path fill="none" stroke="#63b8ff" d="M189.03,-193.2C189.21,-176.59 190.95,-151.97 198.5,-132 204.57,-115.94 216.97,-100.19 225.26,-90.78"/>
<polygon fill="#63b8ff" stroke="#63b8ff" points="185.53,-193.29 189.1,-203.27 192.53,-193.24 185.53,-193.29"/>
</a>
</g>
</g>
<!-- Node33 -->
<g id="Node000033" class="node">
<title>Node33</title>
<g id="a_Node000033"><a xlink:href="_i_open_request_8h.html" target="_top" xlink:title=" ">
<polygon fill="#fff0f0" stroke="red" points="442,-90.5 317,-90.5 317,-71.5 442,-71.5 442,-90.5"/>
<text text-anchor="middle" x="379.5" y="-78.5" font-family="Helvetica,sans-Serif" font-size="10.00">Kit/Itc/IOpenRequest.h</text>
</a>
</g>
</g>
<!-- Node28&#45;&gt;Node33 -->
<g id="edge35_Node000028_Node000033" class="edge">
<title>Node28&#45;&gt;Node33</title>
<g id="a_edge35_Node000028_Node000033"><a xlink:title=" ">
<path fill="none" stroke="#63b8ff" d="M250.8,-201.54C294.84,-192.76 349.05,-178.96 364.5,-162 382.77,-141.94 382.07,-106.97 380.58,-90.74"/>
<polygon fill="#63b8ff" stroke="#63b8ff" points="249.86,-198.15 240.71,-203.49 251.2,-205.02 249.86,-198.15"/>
</a>
</g>
</g>
<!-- Node35 -->
<g id="Node000035" class="node">
<title>Node35</title>
<g id="a_Node000035"><a xlink:href="_response_message_8h.html" target="_top" xlink:title=" ">
<polygon fill="white" stroke="#666666" points="355.5,-156.5 207.5,-156.5 207.5,-137.5 355.5,-137.5 355.5,-156.5"/>
<text text-anchor="middle" x="281.5" y="-144.5" font-family="Helvetica,sans-Serif" font-size="10.00">Kit/Itc/ResponseMessage.h</text>
</a>
</g>
</g>
<!-- Node28&#45;&gt;Node35 -->
<g id="edge36_Node000028_Node000035" class="edge">
<title>Node28&#45;&gt;Node35</title>
<g id="a_edge36_Node000028_Node000035"><a xlink:title=" ">
<path fill="none" stroke="#63b8ff" d="M210.58,-197.33C228.63,-184.78 254,-167.13 269,-156.7"/>
<polygon fill="#63b8ff" stroke="#63b8ff" points="208.12,-194.78 201.91,-203.37 212.12,-200.53 208.12,-194.78"/>
</a>
</g>
</g>
<!-- Node30 -->
<g id="Node000030" class="node">
<title>Node30</title>
<g id="a_Node000030"><a xlink:href="_listener_client_sync_8h.html" target="_top" xlink:title=" ">
<polygon fill="white" stroke="#666666" points="149.5,-96 1.5,-96 1.5,-66 149.5,-66 149.5,-96"/>
<text text-anchor="start" x="9.5" y="-84" font-family="Helvetica,sans-Serif" font-size="10.00">Kit/Io/Socket/ListenerClient</text>
<text text-anchor="middle" x="75.5" y="-73" font-family="Helvetica,sans-Serif" font-size="10.00">Sync.h</text>
</a>
</g>
</g>
<!-- Node29&#45;&gt;Node30 -->
<g id="edge32_Node000029_Node000030" class="edge">
<title>Node29&#45;&gt;Node30</title>
<g id="a_edge32_Node000029_Node000030"><a xlink:title=" ">
<path fill="none" stroke="#63b8ff" d="M75.5,-121.54C75.5,-112.96 75.5,-103.61 75.5,-96.16"/>
<polygon fill="#63b8ff" stroke="#63b8ff" points="72,-121.8 75.5,-131.8 79,-121.8 72,-121.8"/>
</a>
</g>
</g>
<!-- Node32 -->
<g id="Node000032" class="node">
<title>Node32</title>
<g id="a_Node000032"><a xlink:href="_open_close_sync_8h.html" target="_top" xlink:title=" ">
<polygon fill="white" stroke="#666666" points="300,-24.5 167,-24.5 167,-5.5 300,-5.5 300,-24.5"/>
<text text-anchor="middle" x="233.5" y="-12.5" font-family="Helvetica,sans-Serif" font-size="10.00">Kit/Itc/OpenCloseSync.h</text>
</a>
</g>
</g>
<!-- Node31&#45;&gt;Node32 -->
<g id="edge34_Node000031_Node000032" class="edge">
<title>Node31&#45;&gt;Node32</title>
<g id="a_edge34_Node000031_Node000032"><a xlink:title=" ">
<path fill="none" stroke="#63b8ff" d="M233.5,-61.08C233.5,-49.13 233.5,-34.22 233.5,-24.91"/>
<polygon fill="#63b8ff" stroke="#63b8ff" points="230,-61.37 233.5,-71.37 237,-61.37 230,-61.37"/>
</a>
</g>
</g>
<!-- Node35&#45;&gt;Node31 -->
<g id="edge37_Node000035_Node000031" class="edge">
<title>Node35&#45;&gt;Node31</title>
<g id="a_edge37_Node000035_Node000031"><a xlink:title=" ">
<path fill="none" stroke="#63b8ff" d="M268.95,-129.27C259.74,-116.99 247.6,-100.8 240.18,-90.91"/>
<polygon fill="#63b8ff" stroke="#63b8ff" points="266.23,-131.47 275.03,-137.37 271.83,-127.27 266.23,-131.47"/>
</a>
</g>
</g>
<!-- Node35&#45;&gt;Node33 -->
<g id="edge38_Node000035_Node000033" class="edge">
<title>Node35&#45;&gt;Node33</title>
<g id="a_edge38_Node000035_Node000033"><a xlink:title=" ">
<path fill="none" stroke="#63b8ff" d="M303.17,-131.85C322.43,-119.27 349.98,-101.28 366.18,-90.7"/>
<polygon fill="#63b8ff" stroke="#63b8ff" points="301.18,-128.97 294.72,-137.37 305,-134.83 301.18,-128.97"/>
</a>
</g>
</g>
<!-- Node36&#45;&gt;Node5 -->
<g id="edge40_Node000036_Node000005" class="edge">
<title>Node36&#45;&gt;Node5</title>
<g id="a_edge40_Node000036_Node000005"><a xlink:title=" ">
<path fill="none" stroke="#63b8ff" d="M855.64,-321.54C868.57,-306.22 888.38,-283.2 906.5,-264 920.63,-249.03 937.88,-232.45 948.26,-222.64"/>
<polygon fill="#63b8ff" stroke="#63b8ff" points="852.64,-319.68 848.89,-329.59 858,-324.18 852.64,-319.68"/>
</a>
</g>
</g>
<!-- Node39 -->
<g id="Node000039" class="node">
<title>Node39</title>
<g id="a_Node000039"><a xlink:href="_fatal_error_8h.html" target="_top" xlink:title=" ">
<polygon fill="white" stroke="#666666" points="1512.5,-288.5 1384.5,-288.5 1384.5,-269.5 1512.5,-269.5 1512.5,-288.5"/>
<text text-anchor="middle" x="1448.5" y="-276.5" font-family="Helvetica,sans-Serif" font-size="10.00">Kit/System/FatalError.h</text>
</a>
</g>
</g>
<!-- Node38&#45;&gt;Node39 -->
<g id="edge44_Node000038_Node000039" class="edge">
<title>Node38&#45;&gt;Node39</title>
<g id="a_edge44_Node000038_Node000039"><a xlink:title=" ">
<path fill="none" stroke="#63b8ff" d="M1470.22,-320.98C1464.56,-310.31 1457.59,-297.15 1453.09,-288.67"/>
<polygon fill="#63b8ff" stroke="#63b8ff" points="1467.15,-322.67 1474.93,-329.87 1473.34,-319.39 1467.15,-322.67"/>
</a>
</g>
</g>
<!-- Node40 -->
<g id="Node000040" class="node">
<title>Node40</title>
<g id="a_Node000040"><a xlink:href="_posix_2mappings_8h.html" target="_top" xlink:title="This file provides the mappings for Platform specific types, etc.">
<polygon fill="white" stroke="#666666" points="1528,-222.5 1369,-222.5 1369,-203.5 1528,-203.5 1528,-222.5"/>
<text text-anchor="middle" x="1448.5" y="-210.5" font-family="Helvetica,sans-Serif" font-size="10.00">Kit/System/Posix/mappings.h</text>
</a>
</g>
</g>
<!-- Node39&#45;&gt;Node40 -->
<g id="edge45_Node000039_Node000040" class="edge">
<title>Node39&#45;&gt;Node40</title>
<g id="a_edge45_Node000039_Node000040"><a xlink:title=" ">
<path fill="none" stroke="#63b8ff" d="M1448.5,-259.08C1448.5,-247.13 1448.5,-232.22 1448.5,-222.91"/>
<polygon fill="#63b8ff" stroke="#63b8ff" points="1445,-259.37 1448.5,-269.37 1452,-259.37 1445,-259.37"/>
</a>
</g>
</g>
<!-- Node41 -->
<g id="Node000041" class="node">
<title>Node41</title>
<g id="a_Node000041"><a xlink:href="_win32_2mappings_8h.html" target="_top" xlink:title="This file provides the mappings for Platform specific types, etc.">
<polygon fill="white" stroke="#666666" points="1710.5,-222.5 1546.5,-222.5 1546.5,-203.5 1710.5,-203.5 1710.5,-222.5"/>
<text text-anchor="middle" x="1628.5" y="-210.5" font-family="Helvetica,sans-Serif" font-size="10.00">Kit/System/Win32/mappings.h</text>
</a>
</g>
</g>
<!-- Node39&#45;&gt;Node41 -->
<g id="edge46_Node000039_Node000041" class="edge">
<title>Node39&#45;&gt;Node41</title>
<g id="a_edge46_Node000039_Node000041"><a xlink:title=" ">
<path fill="none" stroke="#63b8ff" d="M1482.25,-266C1517.79,-253.36 1572.88,-233.78 1604.32,-222.6"/>
<polygon fill="#63b8ff" stroke="#63b8ff" points="1481.03,-262.72 1472.78,-269.37 1483.37,-269.32 1481.03,-262.72"/>
</a>
</g>
</g>
<!-- Node43 -->
<g id="Node000043" class="node">
<title>Node43</title>
<g id="a_Node000043"><a xlink:href="_stream_driver_8h.html" target="_top" xlink:title=" ">
<polygon fill="white" stroke="#666666" points="2290.5,-294 2166.5,-294 2166.5,-264 2290.5,-264 2290.5,-294"/>
<text text-anchor="start" x="2174.5" y="-282" font-family="Helvetica,sans-Serif" font-size="10.00">Kit/Io/Serial/ST/M32F4</text>
<text text-anchor="middle" x="2228.5" y="-271" font-family="Helvetica,sans-Serif" font-size="10.00">/StreamDriver.h</text>
</a>
</g>
</g>
<!-- Node42&#45;&gt;Node43 -->
<g id="edge48_Node000042_Node000043" class="edge">
<title>Node42&#45;&gt;Node43</title>
<g id="a_edge48_Node000042_Node000043"><a xlink:title=" ">
<path fill="none" stroke="#63b8ff" d="M1979.72,-328.08C2026.53,-319.08 2095.98,-305.71 2156.5,-294 2159.75,-293.37 2163.08,-292.73 2166.45,-292.07"/>
<polygon fill="#63b8ff" stroke="#63b8ff" points="1978.95,-324.67 1969.79,-329.99 1980.27,-331.54 1978.95,-324.67"/>
</a>
</g>
</g>
<!-- Node46 -->
<g id="Node000046" class="node">
<title>Node46</title>
<g id="a_Node000046"><a xlink:href="_sync_return_handler_8h.html" target="_top" xlink:title=" ">
<polygon fill="white" stroke="#666666" points="1847.5,-288.5 1697.5,-288.5 1697.5,-269.5 1847.5,-269.5 1847.5,-288.5"/>
<text text-anchor="middle" x="1772.5" y="-276.5" font-family="Helvetica,sans-Serif" font-size="10.00">Kit/Itc/SyncReturnHandler.h</text>
</a>
</g>
</g>
<!-- Node42&#45;&gt;Node46 -->
<g id="edge51_Node000042_Node000046" class="edge">
<title>Node42&#45;&gt;Node46</title>
<g id="a_edge51_Node000042_Node000046"><a xlink:title=" ">
<path fill="none" stroke="#63b8ff" d="M1893.8,-326.38C1864.22,-315.07 1820.85,-298.49 1794.77,-288.52"/>
<polygon fill="#63b8ff" stroke="#63b8ff" points="1892.66,-329.69 1903.25,-329.99 1895.16,-323.15 1892.66,-329.69"/>
</a>
</g>
</g>
<!-- Node47 -->
<g id="Node000047" class="node">
<title>Node47</title>
<g id="a_Node000047"><a xlink:href="_free_r_t_o_s_2_thread_8h.html" target="_top" xlink:title=" ">
<polygon fill="white" stroke="#666666" points="1985,-294 1866,-294 1866,-264 1985,-264 1985,-294"/>
<text text-anchor="start" x="1874" y="-282" font-family="Helvetica,sans-Serif" font-size="10.00">Kit/System/FreeRTOS</text>
<text text-anchor="middle" x="1925.5" y="-271" font-family="Helvetica,sans-Serif" font-size="10.00">/Thread.h</text>
</a>
</g>
</g>
<!-- Node42&#45;&gt;Node47 -->
<g id="edge52_Node000042_Node000047" class="edge">
<title>Node42&#45;&gt;Node47</title>
<g id="a_edge52_Node000042_Node000047"><a xlink:title=" ">
<path fill="none" stroke="#63b8ff" d="M1925.5,-319.65C1925.5,-311.36 1925.5,-301.78 1925.5,-294.11"/>
<polygon fill="#63b8ff" stroke="#63b8ff" points="1922,-319.87 1925.5,-329.87 1929,-319.87 1922,-319.87"/>
</a>
</g>
</g>
<!-- Node48 -->
<g id="Node000048" class="node">
<title>Node48</title>
<g id="a_Node000048"><a xlink:href="_posix_2_thread_8h.html" target="_top" xlink:title=" ">
<polygon fill="white" stroke="#666666" points="2148,-288.5 2003,-288.5 2003,-269.5 2148,-269.5 2148,-288.5"/>
<text text-anchor="middle" x="2075.5" y="-276.5" font-family="Helvetica,sans-Serif" font-size="10.00">Kit/System/Posix/Thread.h</text>
</a>
</g>
</g>
<!-- Node42&#45;&gt;Node48 -->
<g id="edge53_Node000042_Node000048" class="edge">
<title>Node42&#45;&gt;Node48</title>
<g id="a_edge53_Node000042_Node000048"><a xlink:title=" ">
<path fill="none" stroke="#63b8ff" d="M1956.96,-326.23C1985.95,-314.92 2028.21,-298.44 2053.66,-288.52"/>
<polygon fill="#63b8ff" stroke="#63b8ff" points="1955.36,-323.1 1947.31,-329.99 1957.9,-329.62 1955.36,-323.1"/>
</a>
</g>
</g>
<!-- Node42&#45;&gt;Node49 -->
<g id="edge54_Node000042_Node000049" class="edge">
<title>Node42&#45;&gt;Node49</title>
<g id="a_edge54_Node000042_Node000049"><a xlink:title=" ">
<path fill="none" stroke="#63b8ff" d="M1993.95,-331.99C2069.12,-324.47 2193.27,-310.92 2299.5,-294 2309.29,-292.44 2319.8,-290.49 2329.62,-288.54"/>
<polygon fill="#63b8ff" stroke="#63b8ff" points="1993.28,-328.54 1983.68,-333.02 1993.98,-335.51 1993.28,-328.54"/>
</a>
</g>
</g>
<!-- Node50 -->
<g id="Node000050" class="node">
<title>Node50</title>
<g id="a_Node000050"><a xlink:href="_win32_2_thread_8h.html" target="_top" xlink:title=" ">
<polygon fill="white" stroke="#666666" points="1680,-288.5 1531,-288.5 1531,-269.5 1680,-269.5 1680,-288.5"/>
<text text-anchor="middle" x="1605.5" y="-276.5" font-family="Helvetica,sans-Serif" font-size="10.00">Kit/System/Win32/Thread.h</text>
</a>
</g>
</g>
<!-- Node42&#45;&gt;Node50 -->
<g id="edge55_Node000042_Node000050" class="edge">
<title>Node42&#45;&gt;Node50</title>
<g id="a_edge55_Node000042_Node000050"><a xlink:title=" ">
<path fill="none" stroke="#63b8ff" d="M1869.01,-328.17C1807.3,-316.89 1709.58,-299.03 1652.09,-288.52"/>
<polygon fill="#63b8ff" stroke="#63b8ff" points="1868.5,-331.64 1878.97,-329.99 1869.76,-324.75 1868.5,-331.64"/>
</a>
</g>
</g>
<!-- Node44 -->
<g id="Node000044" class="node">
<title>Node44</title>
<g id="a_Node000044"><a xlink:href="_serial_2_s_t_2_m32_f4_2_input_output_8h.html" target="_top" xlink:title=" ">
<polygon fill="white" stroke="#666666" points="2290.5,-228 2166.5,-228 2166.5,-198 2290.5,-198 2290.5,-228"/>
<text text-anchor="start" x="2174.5" y="-216" font-family="Helvetica,sans-Serif" font-size="10.00">Kit/Io/Serial/ST/M32F4</text>
<text text-anchor="middle" x="2228.5" y="-205" font-family="Helvetica,sans-Serif" font-size="10.00">/InputOutput.h</text>
</a>
</g>
</g>
<!-- Node43&#45;&gt;Node44 -->
<g id="edge49_Node000043_Node000044" class="edge">
<title>Node43&#45;&gt;Node44</title>
<g id="a_edge49_Node000043_Node000044"><a xlink:title=" ">
<path fill="none" stroke="#63b8ff" d="M2228.5,-253.54C2228.5,-244.96 2228.5,-235.61 2228.5,-228.16"/>
<polygon fill="#63b8ff" stroke="#63b8ff" points="2225,-253.8 2228.5,-263.8 2232,-253.8 2225,-253.8"/>
</a>
</g>
</g>
<!-- Node45 -->
<g id="Node000045" class="node">
<title>Node45</title>
<g id="a_Node000045"><a xlink:href="stdio_8h.html" target="_top" xlink:title="By default the BSP provides a KIT IO Stream for application&#39; console.">
<polygon fill="white" stroke="#666666" points="2304.5,-162 2152.5,-162 2152.5,-132 2304.5,-132 2304.5,-162"/>
<text text-anchor="start" x="2160.5" y="-150" font-family="Helvetica,sans-Serif" font-size="10.00">Kit/Bsp/ST/NUCLEO&#45;F413ZH</text>
<text text-anchor="middle" x="2228.5" y="-139" font-family="Helvetica,sans-Serif" font-size="10.00">/stdio.h</text>
</a>
</g>
</g>
<!-- Node44&#45;&gt;Node45 -->
<g id="edge50_Node000044_Node000045" class="edge">
<title>Node44&#45;&gt;Node45</title>
<g id="a_edge50_Node000044_Node000045"><a xlink:title=" ">
<path fill="none" stroke="#63b8ff" d="M2228.5,-187.54C2228.5,-178.96 2228.5,-169.61 2228.5,-162.16"/>
<polygon fill="#63b8ff" stroke="#63b8ff" points="2225,-187.8 2228.5,-197.8 2232,-187.8 2225,-187.8"/>
</a>
</g>
</g>
<!-- Node51&#45;&gt;Node11 -->
<g id="edge58_Node000051_Node000011" class="edge">
<title>Node51&#45;&gt;Node11</title>
<g id="a_edge58_Node000051_Node000011"><a xlink:title=" ">
<path fill="none" stroke="#63b8ff" d="M734.27,-270.41C767.69,-263.78 806.33,-251.33 834.5,-228 871.39,-197.45 855.73,-171.03 883.5,-132 892.85,-118.86 905.56,-105.78 915.56,-96.29"/>
<polygon fill="#63b8ff" stroke="#63b8ff" points="733.28,-267.04 724.08,-272.29 734.55,-273.92 733.28,-267.04"/>
</a>
</g>
</g>
<!-- Node51&#45;&gt;Node24 -->
<g id="edge57_Node000051_Node000024" class="edge">
<title>Node51&#45;&gt;Node24</title>
<g id="a_edge57_Node000051_Node000024"><a xlink:title=" ">
<path fill="none" stroke="#63b8ff" d="M635.34,-257.75C621.96,-248.13 606.28,-236.86 594.2,-228.16"/>
<polygon fill="#63b8ff" stroke="#63b8ff" points="633.59,-260.8 643.75,-263.8 637.67,-255.12 633.59,-260.8"/>
</a>
</g>
</g>
<!-- Node51&#45;&gt;Node25 -->
<g id="edge59_Node000051_Node000025" class="edge">
<title>Node51&#45;&gt;Node25</title>
<g id="a_edge59_Node000051_Node000025"><a xlink:title=" ">
<path fill="none" stroke="#63b8ff" d="M660.91,-253.86C658.33,-237.3 653.28,-215.27 643.5,-198 635.64,-184.11 622.87,-171.44 612.2,-162.32"/>
<polygon fill="#63b8ff" stroke="#63b8ff" points="657.45,-254.42 662.27,-263.86 664.39,-253.48 657.45,-254.42"/>
</a>
</g>
</g>
</g>
</svg>
