<?xml version="1.0" encoding="UTF-8" standalone="no"?>
<!DOCTYPE svg PUBLIC "-//W3C//DTD SVG 1.1//EN"
 "http://www.w3.org/Graphics/SVG/1.1/DTD/svg11.dtd">
<!-- Generated by graphviz version 2.43.0 (0)
 -->
<!-- Title: Kit/Container/Item.h Pages: 1 -->
<svg width="1702pt" height="489pt"
 viewBox="0.00 0.00 1702.00 489.00" xmlns="http://www.w3.org/2000/svg" xmlns:xlink="http://www.w3.org/1999/xlink">
<g id="graph0" class="graph" transform="scale(1 1) rotate(0) translate(4 485)">
<title>Kit/Container/Item.h</title>
<!-- Node1 -->
<g id="Node000001" class="node">
<title>Node1</title>
<g id="a_Node000001"><a xlink:title=" ">
<polygon fill="#999999" stroke="#666666" points="652,-481 537,-481 537,-462 652,-462 652,-481"/>
<text text-anchor="middle" x="594.5" y="-469" font-family="Helvetica,sans-Serif" font-size="10.00">Kit/Container/Item.h</text>
</a>
</g>
</g>
<!-- Node2 -->
<g id="Node000002" class="node">
<title>Node2</title>
<g id="a_Node000002"><a xlink:href="_d_list_base_8h.html" target="_top" xlink:title=" ">
<polygon fill="white" stroke="#666666" points="355,-426 214,-426 214,-407 355,-407 355,-426"/>
<text text-anchor="middle" x="284.5" y="-414" font-family="Helvetica,sans-Serif" font-size="10.00">Kit/Container/DListBase.h</text>
</a>
</g>
</g>
<!-- Node1&#45;&gt;Node2 -->
<g id="edge1_Node000001_Node000002" class="edge">
<title>Node1&#45;&gt;Node2</title>
<g id="a_edge1_Node000001_Node000002"><a xlink:title=" ">
<path fill="none" stroke="#63b8ff" d="M534.54,-460.25C476.32,-450.3 388.99,-435.36 334.44,-426.04"/>
<polygon fill="#63b8ff" stroke="#63b8ff" points="534.25,-463.75 544.69,-461.98 535.43,-456.85 534.25,-463.75"/>
</a>
</g>
</g>
<!-- Node10 -->
<g id="Node000010" class="node">
<title>Node10</title>
<g id="a_Node000010"><a xlink:href="_list_item_8h.html" target="_top" xlink:title=" ">
<polygon fill="white" stroke="#666666" points="660.5,-426 528.5,-426 528.5,-407 660.5,-407 660.5,-426"/>
<text text-anchor="middle" x="594.5" y="-414" font-family="Helvetica,sans-Serif" font-size="10.00">Kit/Container/ListItem.h</text>
</a>
</g>
</g>
<!-- Node1&#45;&gt;Node10 -->
<g id="edge9_Node000001_Node000010" class="edge">
<title>Node1&#45;&gt;Node10</title>
<g id="a_edge9_Node000001_Node000010"><a xlink:title=" ">
<path fill="none" stroke="#63b8ff" d="M594.5,-451.66C594.5,-442.93 594.5,-432.99 594.5,-426.09"/>
<polygon fill="#63b8ff" stroke="#63b8ff" points="591,-451.75 594.5,-461.75 598,-451.75 591,-451.75"/>
</a>
</g>
</g>
<!-- Node40 -->
<g id="Node000040" class="node">
<title>Node40</title>
<g id="a_Node000040"><a xlink:href="_sim_tick_8h.html" target="_top" xlink:title=" ">
<polygon fill="white" stroke="#666666" points="1694,-316 1573,-316 1573,-297 1694,-297 1694,-316"/>
<text text-anchor="middle" x="1633.5" y="-304" font-family="Helvetica,sans-Serif" font-size="10.00">Kit/System/SimTick.h</text>
</a>
</g>
</g>
<!-- Node1&#45;&gt;Node40 -->
<g id="edge49_Node000001_Node000040" class="edge">
<title>Node1&#45;&gt;Node40</title>
<g id="a_edge49_Node000001_Node000040"><a xlink:title=" ">
<path fill="none" stroke="#63b8ff" d="M662.56,-464.73C799.63,-452.49 1118.39,-420.89 1382.5,-371 1463.77,-355.65 1557.88,-329.56 1604.39,-316.1"/>
<polygon fill="#63b8ff" stroke="#63b8ff" points="661.87,-461.28 652.22,-465.65 662.49,-468.25 661.87,-461.28"/>
</a>
</g>
</g>
<!-- Node3 -->
<g id="Node000003" class="node">
<title>Node3</title>
<g id="a_Node000003"><a xlink:href="_d_list_8h.html" target="_top" xlink:title=" ">
<polygon fill="white" stroke="#666666" points="117,-371 0,-371 0,-352 117,-352 117,-371"/>
<text text-anchor="middle" x="58.5" y="-359" font-family="Helvetica,sans-Serif" font-size="10.00">Kit/Container/DList.h</text>
</a>
</g>
</g>
<!-- Node2&#45;&gt;Node3 -->
<g id="edge2_Node000002_Node000003" class="edge">
<title>Node2&#45;&gt;Node3</title>
<g id="a_edge2_Node000002_Node000003"><a xlink:title=" ">
<path fill="none" stroke="#63b8ff" d="M238.41,-404.69C196.06,-394.76 134.14,-380.24 95.1,-371.08"/>
<polygon fill="#63b8ff" stroke="#63b8ff" points="237.65,-408.11 248.19,-406.98 239.25,-401.29 237.65,-408.11"/>
</a>
</g>
</g>
<!-- Node4 -->
<g id="Node000004" class="node">
<title>Node4</title>
<g id="a_Node000004"><a xlink:href="_timer_manager_8h.html" target="_top" xlink:title=" ">
<polygon fill="white" stroke="#666666" points="158.5,-316 6.5,-316 6.5,-297 158.5,-297 158.5,-316"/>
<text text-anchor="middle" x="82.5" y="-304" font-family="Helvetica,sans-Serif" font-size="10.00">Kit/System/TimerManager.h</text>
</a>
</g>
</g>
<!-- Node3&#45;&gt;Node4 -->
<g id="edge3_Node000003_Node000004" class="edge">
<title>Node3&#45;&gt;Node4</title>
<g id="a_edge3_Node000003_Node000004"><a xlink:title=" ">
<path fill="none" stroke="#63b8ff" d="M66.64,-342.53C70.68,-333.6 75.38,-323.22 78.61,-316.09"/>
<polygon fill="#63b8ff" stroke="#63b8ff" points="63.4,-341.19 62.46,-351.75 69.78,-344.08 63.4,-341.19"/>
</a>
</g>
</g>
<!-- Node5 -->
<g id="Node000005" class="node">
<title>Node5</title>
<g id="a_Node000005"><a xlink:href="_event_loop_8h.html" target="_top" xlink:title=" ">
<polygon fill="white" stroke="#666666" points="298,-206 165,-206 165,-187 298,-187 298,-206"/>
<text text-anchor="middle" x="231.5" y="-194" font-family="Helvetica,sans-Serif" font-size="10.00">Kit/System/EventLoop.h</text>
</a>
</g>
</g>
<!-- Node4&#45;&gt;Node5 -->
<g id="edge4_Node000004_Node000005" class="edge">
<title>Node4&#45;&gt;Node5</title>
<g id="a_edge4_Node000004_Node000005"><a xlink:title=" ">
<path fill="none" stroke="#63b8ff" d="M56.63,-291.67C36.23,-278.96 13.4,-259.51 27.5,-242 44.61,-220.76 112.11,-209.11 164.84,-203.12"/>
<polygon fill="#63b8ff" stroke="#63b8ff" points="55,-294.77 65.39,-296.83 58.56,-288.74 55,-294.77"/>
</a>
</g>
</g>
<!-- Node9 -->
<g id="Node000009" class="node">
<title>Node9</title>
<g id="a_Node000009"><a xlink:href="_timer_8h.html" target="_top" xlink:title=" ">
<polygon fill="white" stroke="#666666" points="146.5,-261 36.5,-261 36.5,-242 146.5,-242 146.5,-261"/>
<text text-anchor="middle" x="91.5" y="-249" font-family="Helvetica,sans-Serif" font-size="10.00">Kit/System/Timer.h</text>
</a>
</g>
</g>
<!-- Node4&#45;&gt;Node9 -->
<g id="edge8_Node000004_Node000009" class="edge">
<title>Node4&#45;&gt;Node9</title>
<g id="a_edge8_Node000004_Node000009"><a xlink:title=" ">
<path fill="none" stroke="#63b8ff" d="M85.7,-286.66C87.18,-277.93 88.87,-267.99 90.04,-261.09"/>
<polygon fill="#63b8ff" stroke="#63b8ff" points="82.21,-286.3 83.99,-296.75 89.11,-287.48 82.21,-286.3"/>
</a>
</g>
</g>
<!-- Node6 -->
<g id="Node000006" class="node">
<title>Node6</title>
<g id="a_Node000006"><a xlink:href="_server_8h.html" target="_top" xlink:title=" ">
<polygon fill="white" stroke="#666666" points="489,-145.5 354,-145.5 354,-126.5 489,-126.5 489,-145.5"/>
<text text-anchor="middle" x="421.5" y="-133.5" font-family="Helvetica,sans-Serif" font-size="10.00">Kit/EventQueue/Server.h</text>
</a>
</g>
</g>
<!-- Node5&#45;&gt;Node6 -->
<g id="edge5_Node000005_Node000006" class="edge">
<title>Node5&#45;&gt;Node6</title>
<g id="a_edge5_Node000005_Node000006"><a xlink:title=" ">
<path fill="none" stroke="#63b8ff" d="M268.97,-183.96C305.72,-172.65 360.9,-155.66 393.84,-145.52"/>
<polygon fill="#63b8ff" stroke="#63b8ff" points="267.65,-180.71 259.13,-186.99 269.71,-187.4 267.65,-180.71"/>
</a>
</g>
</g>
<!-- Node8 -->
<g id="Node000008" class="node">
<title>Node8</title>
<g id="a_Node000008"><a xlink:href="_event_loop_with_p_scheduling_8h.html" target="_top" xlink:title=" ">
<polygon fill="white" stroke="#666666" points="304.5,-151 158.5,-151 158.5,-121 304.5,-121 304.5,-151"/>
<text text-anchor="start" x="166.5" y="-139" font-family="Helvetica,sans-Serif" font-size="10.00">Kit/System/EventLoopWith</text>
<text text-anchor="middle" x="231.5" y="-128" font-family="Helvetica,sans-Serif" font-size="10.00">PScheduling.h</text>
</a>
</g>
</g>
<!-- Node5&#45;&gt;Node8 -->
<g id="edge7_Node000005_Node000008" class="edge">
<title>Node5&#45;&gt;Node8</title>
<g id="a_edge7_Node000005_Node000008"><a xlink:title=" ">
<path fill="none" stroke="#63b8ff" d="M231.5,-176.65C231.5,-168.36 231.5,-158.78 231.5,-151.11"/>
<polygon fill="#63b8ff" stroke="#63b8ff" points="228,-176.87 231.5,-186.87 235,-176.87 228,-176.87"/>
</a>
</g>
</g>
<!-- Node7 -->
<g id="Node000007" class="node">
<title>Node7</title>
<g id="a_Node000007"><a xlink:href="_with_periodic_scheduling_8h.html" target="_top" xlink:title=" ">
<polygon fill="white" stroke="#666666" points="500,-85 343,-85 343,-55 500,-55 500,-85"/>
<text text-anchor="start" x="351" y="-73" font-family="Helvetica,sans-Serif" font-size="10.00">Kit/EventQueue/WithPeriodic</text>
<text text-anchor="middle" x="421.5" y="-62" font-family="Helvetica,sans-Serif" font-size="10.00">Scheduling.h</text>
</a>
</g>
</g>
<!-- Node6&#45;&gt;Node7 -->
<g id="edge6_Node000006_Node000007" class="edge">
<title>Node6&#45;&gt;Node7</title>
<g id="a_edge6_Node000006_Node000007"><a xlink:title=" ">
<path fill="none" stroke="#63b8ff" d="M421.5,-116.35C421.5,-106.47 421.5,-94.51 421.5,-85.36"/>
<polygon fill="#63b8ff" stroke="#63b8ff" points="418,-116.37 421.5,-126.37 425,-116.37 418,-116.37"/>
</a>
</g>
</g>
<!-- Node11 -->
<g id="Node000011" class="node">
<title>Node11</title>
<g id="a_Node000011"><a xlink:href="_keyed_item_8h.html" target="_top" xlink:title=" ">
<polygon fill="white" stroke="#666666" points="739,-371 594,-371 594,-352 739,-352 739,-371"/>
<text text-anchor="middle" x="666.5" y="-359" font-family="Helvetica,sans-Serif" font-size="10.00">Kit/Container/KeyedItem.h</text>
</a>
</g>
</g>
<!-- Node10&#45;&gt;Node11 -->
<g id="edge10_Node000010_Node000011" class="edge">
<title>Node10&#45;&gt;Node11</title>
<g id="a_edge10_Node000010_Node000011"><a xlink:title=" ">
<path fill="none" stroke="#63b8ff" d="M614.37,-400.88C627.32,-391.34 643.8,-379.21 654.72,-371.17"/>
<polygon fill="#63b8ff" stroke="#63b8ff" points="612.05,-398.24 606.07,-406.98 616.2,-403.88 612.05,-398.24"/>
</a>
</g>
</g>
<!-- Node18 -->
<g id="Node000018" class="node">
<title>Node18</title>
<g id="a_Node000018"><a xlink:href="_s_list_base_8h.html" target="_top" xlink:title=" ">
<polygon fill="white" stroke="#666666" points="453.5,-371 313.5,-371 313.5,-352 453.5,-352 453.5,-371"/>
<text text-anchor="middle" x="383.5" y="-359" font-family="Helvetica,sans-Serif" font-size="10.00">Kit/Container/SListBase.h</text>
</a>
</g>
</g>
<!-- Node10&#45;&gt;Node18 -->
<g id="edge17_Node000010_Node000018" class="edge">
<title>Node10&#45;&gt;Node18</title>
<g id="a_edge17_Node000010_Node000018"><a xlink:title=" ">
<path fill="none" stroke="#63b8ff" d="M550.71,-404.5C511.2,-394.58 453.88,-380.18 417.67,-371.08"/>
<polygon fill="#63b8ff" stroke="#63b8ff" points="550.05,-407.94 560.6,-406.98 551.75,-401.15 550.05,-407.94"/>
</a>
</g>
</g>
<!-- Node22 -->
<g id="Node000022" class="node">
<title>Node22</title>
<g id="a_Node000022"><a xlink:href="_i_event_flag_8h.html" target="_top" xlink:title=" ">
<polygon fill="white" stroke="#666666" points="298.5,-261 164.5,-261 164.5,-242 298.5,-242 298.5,-261"/>
<text text-anchor="middle" x="231.5" y="-249" font-family="Helvetica,sans-Serif" font-size="10.00">Kit/System/IEventFlag.h</text>
</a>
</g>
</g>
<!-- Node10&#45;&gt;Node22 -->
<g id="edge38_Node000010_Node000022" class="edge">
<title>Node10&#45;&gt;Node22</title>
<g id="a_edge38_Node000010_Node000022"><a xlink:title=" ">
<path fill="none" stroke="#63b8ff" d="M518.03,-410.99C444.16,-405.37 338.61,-393.61 304.5,-371 263.01,-343.49 241.03,-283.52 234.02,-261.15"/>
<polygon fill="#63b8ff" stroke="#63b8ff" points="518,-414.5 528.23,-411.75 518.51,-407.52 518,-414.5"/>
</a>
</g>
</g>
<!-- Node23 -->
<g id="Node000023" class="node">
<title>Node23</title>
<g id="a_Node000023"><a xlink:href="_i_message_8h.html" target="_top" xlink:title=" ">
<polygon fill="white" stroke="#666666" points="575.5,-371 471.5,-371 471.5,-352 575.5,-352 575.5,-371"/>
<text text-anchor="middle" x="523.5" y="-359" font-family="Helvetica,sans-Serif" font-size="10.00">Kit/Itc/IMessage.h</text>
</a>
</g>
</g>
<!-- Node10&#45;&gt;Node23 -->
<g id="edge24_Node000010_Node000023" class="edge">
<title>Node10&#45;&gt;Node23</title>
<g id="a_edge24_Node000010_Node000023"><a xlink:title=" ">
<path fill="none" stroke="#63b8ff" d="M574.91,-400.88C562.13,-391.34 545.89,-379.21 535.11,-371.17"/>
<polygon fill="#63b8ff" stroke="#63b8ff" points="572.99,-403.81 583.09,-406.98 577.17,-398.2 572.99,-403.81"/>
</a>
</g>
</g>
<!-- Node31 -->
<g id="Node000031" class="node">
<title>Node31</title>
<g id="a_Node000031"><a xlink:href="_i_counter_8h.html" target="_top" xlink:title=" ">
<polygon fill="white" stroke="#666666" points="257.5,-371 135.5,-371 135.5,-352 257.5,-352 257.5,-371"/>
<text text-anchor="middle" x="196.5" y="-359" font-family="Helvetica,sans-Serif" font-size="10.00">Kit/System/ICounter.h</text>
</a>
</g>
</g>
<!-- Node10&#45;&gt;Node31 -->
<g id="edge36_Node000010_Node000031" class="edge">
<title>Node10&#45;&gt;Node31</title>
<g id="a_edge36_Node000010_Node000031"><a xlink:title=" ">
<path fill="none" stroke="#63b8ff" d="M520.61,-405.66C444.86,-395.57 328.42,-380.07 257.67,-370.65"/>
<polygon fill="#63b8ff" stroke="#63b8ff" points="520.18,-409.13 530.55,-406.98 521.1,-402.2 520.18,-409.13"/>
</a>
</g>
</g>
<!-- Node32 -->
<g id="Node000032" class="node">
<title>Node32</title>
<g id="a_Node000032"><a xlink:href="_private_startup_8h.html" target="_top" xlink:title=" ">
<polygon fill="white" stroke="#666666" points="909.5,-371 757.5,-371 757.5,-352 909.5,-352 909.5,-371"/>
<text text-anchor="middle" x="833.5" y="-359" font-family="Helvetica,sans-Serif" font-size="10.00">Kit/System/PrivateStartup.h</text>
</a>
</g>
</g>
<!-- Node10&#45;&gt;Node32 -->
<g id="edge39_Node000010_Node000032" class="edge">
<title>Node10&#45;&gt;Node32</title>
<g id="a_edge39_Node000010_Node000032"><a xlink:title=" ">
<path fill="none" stroke="#63b8ff" d="M642.68,-404.82C687.47,-394.88 753.34,-380.28 794.8,-371.08"/>
<polygon fill="#63b8ff" stroke="#63b8ff" points="641.9,-401.4 632.9,-406.98 643.42,-408.24 641.9,-401.4"/>
</a>
</g>
</g>
<!-- Node33 -->
<g id="Node000033" class="node">
<title>Node33</title>
<g id="a_Node000033"><a xlink:href="_shutdown_8h.html" target="_top" xlink:title=" ">
<polygon fill="white" stroke="#666666" points="1057.5,-371 927.5,-371 927.5,-352 1057.5,-352 1057.5,-371"/>
<text text-anchor="middle" x="992.5" y="-359" font-family="Helvetica,sans-Serif" font-size="10.00">Kit/System/Shutdown.h</text>
</a>
</g>
</g>
<!-- Node10&#45;&gt;Node33 -->
<g id="edge40_Node000010_Node000033" class="edge">
<title>Node10&#45;&gt;Node33</title>
<g id="a_edge40_Node000010_Node000033"><a xlink:title=" ">
<path fill="none" stroke="#63b8ff" d="M668.72,-405.62C743.43,-395.67 857.48,-380.48 928.38,-371.04"/>
<polygon fill="#63b8ff" stroke="#63b8ff" points="667.9,-402.2 658.45,-406.98 668.82,-409.13 667.9,-402.2"/>
</a>
</g>
</g>
<!-- Node37 -->
<g id="Node000037" class="node">
<title>Node37</title>
<g id="a_Node000037"><a xlink:href="_thread_8h.html" target="_top" xlink:title=" ">
<polygon fill="white" stroke="#666666" points="1373.5,-371 1257.5,-371 1257.5,-352 1373.5,-352 1373.5,-371"/>
<text text-anchor="middle" x="1315.5" y="-359" font-family="Helvetica,sans-Serif" font-size="10.00">Kit/System/Thread.h</text>
</a>
</g>
</g>
<!-- Node10&#45;&gt;Node37 -->
<g id="edge44_Node000010_Node000037" class="edge">
<title>Node10&#45;&gt;Node37</title>
<g id="a_edge44_Node000010_Node000037"><a xlink:title=" ">
<path fill="none" stroke="#63b8ff" d="M670.85,-409.89C815.74,-399.24 1127.61,-376.31 1257.2,-366.79"/>
<polygon fill="#63b8ff" stroke="#63b8ff" points="670.43,-406.41 660.72,-410.63 670.95,-413.39 670.43,-406.41"/>
</a>
</g>
</g>
<!-- Node12 -->
<g id="Node000012" class="node">
<title>Node12</title>
<g id="a_Node000012"><a xlink:href="_map_item_8h.html" target="_top" xlink:title=" ">
<polygon fill="white" stroke="#666666" points="734.5,-316 598.5,-316 598.5,-297 734.5,-297 734.5,-316"/>
<text text-anchor="middle" x="666.5" y="-304" font-family="Helvetica,sans-Serif" font-size="10.00">Kit/Container/MapItem.h</text>
</a>
</g>
</g>
<!-- Node11&#45;&gt;Node12 -->
<g id="edge11_Node000011_Node000012" class="edge">
<title>Node11&#45;&gt;Node12</title>
<g id="a_edge11_Node000011_Node000012"><a xlink:title=" ">
<path fill="none" stroke="#63b8ff" d="M666.5,-341.66C666.5,-332.93 666.5,-322.99 666.5,-316.09"/>
<polygon fill="#63b8ff" stroke="#63b8ff" points="663,-341.75 666.5,-351.75 670,-341.75 663,-341.75"/>
</a>
</g>
</g>
<!-- Node13 -->
<g id="Node000013" class="node">
<title>Node13</title>
<g id="a_Node000013"><a xlink:href="_avl_tree___8h.html" target="_top" xlink:title=" ">
<polygon fill="white" stroke="#666666" points="686,-261 553,-261 553,-242 686,-242 686,-261"/>
<text text-anchor="middle" x="619.5" y="-249" font-family="Helvetica,sans-Serif" font-size="10.00">Kit/Container/AvlTree_.h</text>
</a>
</g>
</g>
<!-- Node12&#45;&gt;Node13 -->
<g id="edge12_Node000012_Node000013" class="edge">
<title>Node12&#45;&gt;Node13</title>
<g id="a_edge12_Node000012_Node000013"><a xlink:title=" ">
<path fill="none" stroke="#63b8ff" d="M652.08,-289.24C643.84,-279.95 633.85,-268.68 627.12,-261.09"/>
<polygon fill="#63b8ff" stroke="#63b8ff" points="649.49,-291.59 658.74,-296.75 654.72,-286.94 649.49,-291.59"/>
</a>
</g>
</g>
<!-- Node15 -->
<g id="Node000015" class="node">
<title>Node15</title>
<g id="a_Node000015"><a xlink:href="_string_item_8h.html" target="_top" xlink:title=" ">
<polygon fill="white" stroke="#666666" points="820.5,-261 704.5,-261 704.5,-242 820.5,-242 820.5,-261"/>
<text text-anchor="middle" x="762.5" y="-249" font-family="Helvetica,sans-Serif" font-size="10.00">Kit/Text/StringItem.h</text>
</a>
</g>
</g>
<!-- Node12&#45;&gt;Node15 -->
<g id="edge14_Node000012_Node000015" class="edge">
<title>Node12&#45;&gt;Node15</title>
<g id="a_edge14_Node000012_Node000015"><a xlink:title=" ">
<path fill="none" stroke="#63b8ff" d="M691.02,-291.97C708.56,-282.28 731.67,-269.52 746.8,-261.17"/>
<polygon fill="#63b8ff" stroke="#63b8ff" points="688.99,-289.09 681.92,-296.98 692.37,-295.22 688.99,-289.09"/>
</a>
</g>
</g>
<!-- Node14 -->
<g id="Node000014" class="node">
<title>Node14</title>
<g id="a_Node000014"><a xlink:href="_map_8h.html" target="_top" xlink:title=" ">
<polygon fill="white" stroke="#666666" points="569,-206 456,-206 456,-187 569,-187 569,-206"/>
<text text-anchor="middle" x="512.5" y="-194" font-family="Helvetica,sans-Serif" font-size="10.00">Kit/Container/Map.h</text>
</a>
</g>
</g>
<!-- Node13&#45;&gt;Node14 -->
<g id="edge13_Node000013_Node000014" class="edge">
<title>Node13&#45;&gt;Node14</title>
<g id="a_edge13_Node000013_Node000014"><a xlink:title=" ">
<path fill="none" stroke="#63b8ff" d="M593.26,-237.5C573.57,-227.75 547.18,-214.68 530,-206.17"/>
<polygon fill="#63b8ff" stroke="#63b8ff" points="591.79,-240.68 602.31,-241.98 594.9,-234.41 591.79,-240.68"/>
</a>
</g>
</g>
<!-- Node16 -->
<g id="Node000016" class="node">
<title>Node16</title>
<g id="a_Node000016"><a xlink:href="_d_string_item_8h.html" target="_top" xlink:title=" ">
<polygon fill="white" stroke="#666666" points="711.5,-206 587.5,-206 587.5,-187 711.5,-187 711.5,-206"/>
<text text-anchor="middle" x="649.5" y="-194" font-family="Helvetica,sans-Serif" font-size="10.00">Kit/Text/DStringItem.h</text>
</a>
</g>
</g>
<!-- Node15&#45;&gt;Node16 -->
<g id="edge15_Node000015_Node000016" class="edge">
<title>Node15&#45;&gt;Node16</title>
<g id="a_edge15_Node000015_Node000016"><a xlink:title=" ">
<path fill="none" stroke="#63b8ff" d="M735.07,-237.63C714.25,-227.87 686.2,-214.71 667.99,-206.17"/>
<polygon fill="#63b8ff" stroke="#63b8ff" points="733.8,-240.91 744.34,-241.98 736.78,-234.57 733.8,-240.91"/>
</a>
</g>
</g>
<!-- Node17 -->
<g id="Node000017" class="node">
<title>Node17</title>
<g id="a_Node000017"><a xlink:href="_f_string_item_8h.html" target="_top" xlink:title=" ">
<polygon fill="white" stroke="#666666" points="851.5,-206 729.5,-206 729.5,-187 851.5,-187 851.5,-206"/>
<text text-anchor="middle" x="790.5" y="-194" font-family="Helvetica,sans-Serif" font-size="10.00">Kit/Text/FStringItem.h</text>
</a>
</g>
</g>
<!-- Node15&#45;&gt;Node17 -->
<g id="edge16_Node000015_Node000017" class="edge">
<title>Node15&#45;&gt;Node17</title>
<g id="a_edge16_Node000015_Node000017"><a xlink:title=" ">
<path fill="none" stroke="#63b8ff" d="M771.84,-232.82C776.59,-223.82 782.16,-213.29 785.96,-206.09"/>
<polygon fill="#63b8ff" stroke="#63b8ff" points="768.7,-231.27 767.12,-241.75 774.89,-234.54 768.7,-231.27"/>
</a>
</g>
</g>
<!-- Node19 -->
<g id="Node000019" class="node">
<title>Node19</title>
<g id="a_Node000019"><a xlink:href="_s_list_8h.html" target="_top" xlink:title=" ">
<polygon fill="white" stroke="#666666" points="435.5,-316 319.5,-316 319.5,-297 435.5,-297 435.5,-316"/>
<text text-anchor="middle" x="377.5" y="-304" font-family="Helvetica,sans-Serif" font-size="10.00">Kit/Container/SList.h</text>
</a>
</g>
</g>
<!-- Node18&#45;&gt;Node19 -->
<g id="edge18_Node000018_Node000019" class="edge">
<title>Node18&#45;&gt;Node19</title>
<g id="a_edge18_Node000018_Node000019"><a xlink:title=" ">
<path fill="none" stroke="#63b8ff" d="M381.37,-341.66C380.38,-332.93 379.25,-322.99 378.47,-316.09"/>
<polygon fill="#63b8ff" stroke="#63b8ff" points="377.91,-342.21 382.51,-351.75 384.86,-341.42 377.91,-342.21"/>
</a>
</g>
</g>
<!-- Node20 -->
<g id="Node000020" class="node">
<title>Node20</title>
<g id="a_Node000020"><a xlink:href="_tee_output_8h.html" target="_top" xlink:title=" ">
<polygon fill="white" stroke="#666666" points="420.5,-261 316.5,-261 316.5,-242 420.5,-242 420.5,-261"/>
<text text-anchor="middle" x="368.5" y="-249" font-family="Helvetica,sans-Serif" font-size="10.00">Kit/Io/TeeOutput.h</text>
</a>
</g>
</g>
<!-- Node19&#45;&gt;Node20 -->
<g id="edge19_Node000019_Node000020" class="edge">
<title>Node19&#45;&gt;Node20</title>
<g id="a_edge19_Node000019_Node000020"><a xlink:title=" ">
<path fill="none" stroke="#63b8ff" d="M374.3,-286.66C372.82,-277.93 371.13,-267.99 369.96,-261.09"/>
<polygon fill="#63b8ff" stroke="#63b8ff" points="370.89,-287.48 376.01,-296.75 377.79,-286.3 370.89,-287.48"/>
</a>
</g>
</g>
<!-- Node21 -->
<g id="Node000021" class="node">
<title>Node21</title>
<g id="a_Node000021"><a xlink:href="_mailbox_8h.html" target="_top" xlink:title=" ">
<polygon fill="white" stroke="#666666" points="534.5,-261 438.5,-261 438.5,-242 534.5,-242 534.5,-261"/>
<text text-anchor="middle" x="486.5" y="-249" font-family="Helvetica,sans-Serif" font-size="10.00">Kit/Itc/Mailbox.h</text>
</a>
</g>
</g>
<!-- Node19&#45;&gt;Node21 -->
<g id="edge20_Node000019_Node000021" class="edge">
<title>Node19&#45;&gt;Node21</title>
<g id="a_edge20_Node000019_Node000021"><a xlink:title=" ">
<path fill="none" stroke="#63b8ff" d="M404.23,-292.5C424.29,-282.75 451.18,-269.68 468.67,-261.17"/>
<polygon fill="#63b8ff" stroke="#63b8ff" points="402.48,-289.46 395.01,-296.98 405.54,-295.76 402.48,-289.46"/>
</a>
</g>
</g>
<!-- Node19&#45;&gt;Node22 -->
<g id="edge22_Node000019_Node000022" class="edge">
<title>Node19&#45;&gt;Node22</title>
<g id="a_edge22_Node000019_Node000022"><a xlink:title=" ">
<path fill="none" stroke="#63b8ff" d="M344.58,-293.55C317.47,-283.71 279.67,-269.98 255.38,-261.17"/>
<polygon fill="#63b8ff" stroke="#63b8ff" points="343.45,-296.86 354.04,-296.98 345.84,-290.28 343.45,-296.86"/>
</a>
</g>
</g>
<!-- Node21&#45;&gt;Node6 -->
<g id="edge21_Node000021_Node000006" class="edge">
<title>Node21&#45;&gt;Node6</title>
<g id="a_edge21_Node000021_Node000006"><a xlink:title=" ">
<path fill="none" stroke="#63b8ff" d="M469.45,-234.61C461.64,-226.62 452.75,-216.43 446.5,-206 434.45,-185.89 426.81,-159.04 423.46,-145.53"/>
<polygon fill="#63b8ff" stroke="#63b8ff" points="467.18,-237.29 476.77,-241.8 472.09,-232.29 467.18,-237.29"/>
</a>
</g>
</g>
<!-- Node22&#45;&gt;Node5 -->
<g id="edge23_Node000022_Node000005" class="edge">
<title>Node22&#45;&gt;Node5</title>
<g id="a_edge23_Node000022_Node000005"><a xlink:title=" ">
<path fill="none" stroke="#63b8ff" d="M231.5,-231.66C231.5,-222.93 231.5,-212.99 231.5,-206.09"/>
<polygon fill="#63b8ff" stroke="#63b8ff" points="228,-231.75 231.5,-241.75 235,-231.75 228,-231.75"/>
</a>
</g>
</g>
<!-- Node23&#45;&gt;Node21 -->
<g id="edge25_Node000023_Node000021" class="edge">
<title>Node23&#45;&gt;Node21</title>
<g id="a_edge25_Node000023_Node000021"><a xlink:title=" ">
<path fill="none" stroke="#63b8ff" d="M517.2,-342.12C509.13,-318.56 495.46,-278.66 489.47,-261.16"/>
<polygon fill="#63b8ff" stroke="#63b8ff" points="513.92,-343.34 520.47,-351.66 520.54,-341.07 513.92,-343.34"/>
</a>
</g>
</g>
<!-- Node24 -->
<g id="Node000024" class="node">
<title>Node24</title>
<g id="a_Node000024"><a xlink:href="_server_message_8h.html" target="_top" xlink:title=" ">
<polygon fill="white" stroke="#666666" points="897.5,-316 765.5,-316 765.5,-297 897.5,-297 897.5,-316"/>
<text text-anchor="middle" x="831.5" y="-304" font-family="Helvetica,sans-Serif" font-size="10.00">Kit/Itc/ServerMessage.h</text>
</a>
</g>
</g>
<!-- Node23&#45;&gt;Node24 -->
<g id="edge26_Node000023_Node000024" class="edge">
<title>Node23&#45;&gt;Node24</title>
<g id="a_edge26_Node000023_Node000024"><a xlink:title=" ">
<path fill="none" stroke="#63b8ff" d="M583.08,-350.25C640.91,-340.3 727.69,-325.36 781.88,-316.04"/>
<polygon fill="#63b8ff" stroke="#63b8ff" points="582.25,-346.84 572.99,-351.98 583.43,-353.74 582.25,-346.84"/>
</a>
</g>
</g>
<!-- Node25 -->
<g id="Node000025" class="node">
<title>Node25</title>
<g id="a_Node000025"><a xlink:href="_request_message_8h.html" target="_top" xlink:title=" ">
<polygon fill="white" stroke="#666666" points="978.5,-261 838.5,-261 838.5,-242 978.5,-242 978.5,-261"/>
<text text-anchor="middle" x="908.5" y="-249" font-family="Helvetica,sans-Serif" font-size="10.00">Kit/Itc/RequestMessage.h</text>
</a>
</g>
</g>
<!-- Node24&#45;&gt;Node25 -->
<g id="edge27_Node000024_Node000025" class="edge">
<title>Node24&#45;&gt;Node25</title>
<g id="a_edge27_Node000024_Node000025"><a xlink:title=" ">
<path fill="none" stroke="#63b8ff" d="M852.35,-291.15C866.26,-281.57 884.11,-269.29 895.9,-261.17"/>
<polygon fill="#63b8ff" stroke="#63b8ff" points="850.12,-288.43 843.87,-296.98 854.09,-294.2 850.12,-288.43"/>
</a>
</g>
</g>
<!-- Node26 -->
<g id="Node000026" class="node">
<title>Node26</title>
<g id="a_Node000026"><a xlink:href="_i_close_request_8h.html" target="_top" xlink:title=" ">
<polygon fill="white" stroke="#666666" points="973,-145.5 846,-145.5 846,-126.5 973,-126.5 973,-145.5"/>
<text text-anchor="middle" x="909.5" y="-133.5" font-family="Helvetica,sans-Serif" font-size="10.00">Kit/Itc/ICloseRequest.h</text>
</a>
</g>
</g>
<!-- Node25&#45;&gt;Node26 -->
<g id="edge28_Node000025_Node000026" class="edge">
<title>Node25&#45;&gt;Node26</title>
<g id="a_edge28_Node000025_Node000026"><a xlink:title=" ">
<path fill="none" stroke="#63b8ff" d="M903.39,-232.03C901.44,-224.09 899.46,-214.66 898.5,-206 896.09,-184.3 902.51,-159 906.53,-145.9"/>
<polygon fill="#63b8ff" stroke="#63b8ff" points="900.01,-232.94 905.93,-241.73 906.78,-231.17 900.01,-232.94"/>
</a>
</g>
</g>
<!-- Node28 -->
<g id="Node000028" class="node">
<title>Node28</title>
<g id="a_Node000028"><a xlink:href="_i_open_request_8h.html" target="_top" xlink:title=" ">
<polygon fill="white" stroke="#666666" points="1116,-145.5 991,-145.5 991,-126.5 1116,-126.5 1116,-145.5"/>
<text text-anchor="middle" x="1053.5" y="-133.5" font-family="Helvetica,sans-Serif" font-size="10.00">Kit/Itc/IOpenRequest.h</text>
</a>
</g>
</g>
<!-- Node25&#45;&gt;Node28 -->
<g id="edge30_Node000025_Node000028" class="edge">
<title>Node25&#45;&gt;Node28</title>
<g id="a_edge30_Node000025_Node000028"><a xlink:title=" ">
<path fill="none" stroke="#63b8ff" d="M973.64,-240C1011.2,-232.47 1053.17,-221.01 1064.5,-206 1078.09,-187.99 1066.13,-159.73 1058.57,-145.62"/>
<polygon fill="#63b8ff" stroke="#63b8ff" points="972.86,-236.59 963.71,-241.93 974.19,-243.46 972.86,-236.59"/>
</a>
</g>
</g>
<!-- Node30 -->
<g id="Node000030" class="node">
<title>Node30</title>
<g id="a_Node000030"><a xlink:href="_response_message_8h.html" target="_top" xlink:title=" ">
<polygon fill="white" stroke="#666666" points="1055.5,-206 907.5,-206 907.5,-187 1055.5,-187 1055.5,-206"/>
<text text-anchor="middle" x="981.5" y="-194" font-family="Helvetica,sans-Serif" font-size="10.00">Kit/Itc/ResponseMessage.h</text>
</a>
</g>
</g>
<!-- Node25&#45;&gt;Node30 -->
<g id="edge33_Node000025_Node000030" class="edge">
<title>Node25&#45;&gt;Node30</title>
<g id="a_edge33_Node000025_Node000030"><a xlink:title=" ">
<path fill="none" stroke="#63b8ff" d="M928.64,-235.88C941.78,-226.34 958.48,-214.21 969.56,-206.17"/>
<polygon fill="#63b8ff" stroke="#63b8ff" points="926.26,-233.28 920.23,-241.98 930.38,-238.94 926.26,-233.28"/>
</a>
</g>
</g>
<!-- Node27 -->
<g id="Node000027" class="node">
<title>Node27</title>
<g id="a_Node000027"><a xlink:href="_open_close_sync_8h.html" target="_top" xlink:title=" ">
<polygon fill="white" stroke="#666666" points="1032,-19 899,-19 899,0 1032,0 1032,-19"/>
<text text-anchor="middle" x="965.5" y="-7" font-family="Helvetica,sans-Serif" font-size="10.00">Kit/Itc/OpenCloseSync.h</text>
</a>
</g>
</g>
<!-- Node26&#45;&gt;Node27 -->
<g id="edge29_Node000026_Node000027" class="edge">
<title>Node26&#45;&gt;Node27</title>
<g id="a_edge29_Node000026_Node000027"><a xlink:title=" ">
<path fill="none" stroke="#63b8ff" d="M917.61,-116.96C929.85,-89.76 952.57,-39.26 961.62,-19.12"/>
<polygon fill="#63b8ff" stroke="#63b8ff" points="914.26,-115.89 913.35,-126.44 920.64,-118.76 914.26,-115.89"/>
</a>
</g>
</g>
<!-- Node29 -->
<g id="Node000029" class="node">
<title>Node29</title>
<g id="a_Node000029"><a xlink:href="_open_sync_8h.html" target="_top" xlink:title=" ">
<polygon fill="white" stroke="#666666" points="1090.5,-79.5 984.5,-79.5 984.5,-60.5 1090.5,-60.5 1090.5,-79.5"/>
<text text-anchor="middle" x="1037.5" y="-67.5" font-family="Helvetica,sans-Serif" font-size="10.00">Kit/Itc/OpenSync.h</text>
</a>
</g>
</g>
<!-- Node28&#45;&gt;Node29 -->
<g id="edge31_Node000028_Node000029" class="edge">
<title>Node28&#45;&gt;Node29</title>
<g id="a_edge31_Node000028_Node000029"><a xlink:title=" ">
<path fill="none" stroke="#63b8ff" d="M1048.86,-116.45C1045.86,-104.43 1042.08,-89.32 1039.73,-79.91"/>
<polygon fill="#63b8ff" stroke="#63b8ff" points="1045.52,-117.52 1051.34,-126.37 1052.31,-115.82 1045.52,-117.52"/>
</a>
</g>
</g>
<!-- Node29&#45;&gt;Node27 -->
<g id="edge32_Node000029_Node000027" class="edge">
<title>Node29&#45;&gt;Node27</title>
<g id="a_edge32_Node000029_Node000027"><a xlink:title=" ">
<path fill="none" stroke="#63b8ff" d="M1019.08,-54.04C1005.49,-42.99 987.46,-28.34 976.17,-19.17"/>
<polygon fill="#63b8ff" stroke="#63b8ff" points="1016.91,-56.78 1026.88,-60.37 1021.32,-51.35 1016.91,-56.78"/>
</a>
</g>
</g>
<!-- Node30&#45;&gt;Node26 -->
<g id="edge34_Node000030_Node000026" class="edge">
<title>Node30&#45;&gt;Node26</title>
<g id="a_edge34_Node000030_Node000026"><a xlink:title=" ">
<path fill="none" stroke="#63b8ff" d="M963.08,-180.54C949.49,-169.49 931.46,-154.84 920.17,-145.67"/>
<polygon fill="#63b8ff" stroke="#63b8ff" points="960.91,-183.28 970.88,-186.87 965.32,-177.85 960.91,-183.28"/>
</a>
</g>
</g>
<!-- Node30&#45;&gt;Node28 -->
<g id="edge35_Node000030_Node000028" class="edge">
<title>Node30&#45;&gt;Node28</title>
<g id="a_edge35_Node000030_Node000028"><a xlink:title=" ">
<path fill="none" stroke="#63b8ff" d="M999.92,-180.54C1013.51,-169.49 1031.54,-154.84 1042.83,-145.67"/>
<polygon fill="#63b8ff" stroke="#63b8ff" points="997.68,-177.85 992.12,-186.87 1002.09,-183.28 997.68,-177.85"/>
</a>
</g>
</g>
<!-- Node31&#45;&gt;Node4 -->
<g id="edge37_Node000031_Node000004" class="edge">
<title>Node31&#45;&gt;Node4</title>
<g id="a_edge37_Node000031_Node000004"><a xlink:title=" ">
<path fill="none" stroke="#63b8ff" d="M169.11,-347.77C148.08,-337.99 119.61,-324.75 101.15,-316.17"/>
<polygon fill="#63b8ff" stroke="#63b8ff" points="167.64,-350.94 178.18,-351.98 170.59,-344.6 167.64,-350.94"/>
</a>
</g>
</g>
<!-- Node34 -->
<g id="Node000034" class="node">
<title>Node34</title>
<g id="a_Node000034"><a xlink:href="_fatal_error_8h.html" target="_top" xlink:title=" ">
<polygon fill="white" stroke="#666666" points="1056.5,-316 928.5,-316 928.5,-297 1056.5,-297 1056.5,-316"/>
<text text-anchor="middle" x="992.5" y="-304" font-family="Helvetica,sans-Serif" font-size="10.00">Kit/System/FatalError.h</text>
</a>
</g>
</g>
<!-- Node33&#45;&gt;Node34 -->
<g id="edge41_Node000033_Node000034" class="edge">
<title>Node33&#45;&gt;Node34</title>
<g id="a_edge41_Node000033_Node000034"><a xlink:title=" ">
<path fill="none" stroke="#63b8ff" d="M992.5,-341.66C992.5,-332.93 992.5,-322.99 992.5,-316.09"/>
<polygon fill="#63b8ff" stroke="#63b8ff" points="989,-341.75 992.5,-351.75 996,-341.75 989,-341.75"/>
</a>
</g>
</g>
<!-- Node35 -->
<g id="Node000035" class="node">
<title>Node35</title>
<g id="a_Node000035"><a xlink:href="_posix_2mappings_8h.html" target="_top" xlink:title="This file provides the mappings for Platform specific types, etc.">
<polygon fill="white" stroke="#666666" points="1156,-261 997,-261 997,-242 1156,-242 1156,-261"/>
<text text-anchor="middle" x="1076.5" y="-249" font-family="Helvetica,sans-Serif" font-size="10.00">Kit/System/Posix/mappings.h</text>
</a>
</g>
</g>
<!-- Node34&#45;&gt;Node35 -->
<g id="edge42_Node000034_Node000035" class="edge">
<title>Node34&#45;&gt;Node35</title>
<g id="a_edge42_Node000034_Node000035"><a xlink:title=" ">
<path fill="none" stroke="#63b8ff" d="M1014.81,-291.42C1030.05,-281.81 1049.77,-269.37 1062.76,-261.17"/>
<polygon fill="#63b8ff" stroke="#63b8ff" points="1012.59,-288.69 1006,-296.98 1016.32,-294.61 1012.59,-288.69"/>
</a>
</g>
</g>
<!-- Node36 -->
<g id="Node000036" class="node">
<title>Node36</title>
<g id="a_Node000036"><a xlink:href="_win32_2mappings_8h.html" target="_top" xlink:title="This file provides the mappings for Platform specific types, etc.">
<polygon fill="white" stroke="#666666" points="1338.5,-261 1174.5,-261 1174.5,-242 1338.5,-242 1338.5,-261"/>
<text text-anchor="middle" x="1256.5" y="-249" font-family="Helvetica,sans-Serif" font-size="10.00">Kit/System/Win32/mappings.h</text>
</a>
</g>
</g>
<!-- Node34&#45;&gt;Node36 -->
<g id="edge43_Node000034_Node000036" class="edge">
<title>Node34&#45;&gt;Node36</title>
<g id="a_edge43_Node000034_Node000036"><a xlink:title=" ">
<path fill="none" stroke="#63b8ff" d="M1044.79,-295C1094.28,-285.07 1167.67,-270.33 1213.75,-261.08"/>
<polygon fill="#63b8ff" stroke="#63b8ff" points="1044.03,-291.58 1034.92,-296.98 1045.41,-298.45 1044.03,-291.58"/>
</a>
</g>
</g>
<!-- Node38 -->
<g id="Node000038" class="node">
<title>Node38</title>
<g id="a_Node000038"><a xlink:href="_sync_return_handler_8h.html" target="_top" xlink:title=" ">
<polygon fill="white" stroke="#666666" points="1224.5,-316 1074.5,-316 1074.5,-297 1224.5,-297 1224.5,-316"/>
<text text-anchor="middle" x="1149.5" y="-304" font-family="Helvetica,sans-Serif" font-size="10.00">Kit/Itc/SyncReturnHandler.h</text>
</a>
</g>
</g>
<!-- Node37&#45;&gt;Node38 -->
<g id="edge45_Node000037_Node000038" class="edge">
<title>Node37&#45;&gt;Node38</title>
<g id="a_edge45_Node000037_Node000038"><a xlink:title=" ">
<path fill="none" stroke="#63b8ff" d="M1279.25,-348.93C1248.25,-339.03 1204.33,-325.01 1176.38,-316.08"/>
<polygon fill="#63b8ff" stroke="#63b8ff" points="1278.24,-352.28 1288.83,-351.98 1280.37,-345.61 1278.24,-352.28"/>
</a>
</g>
</g>
<!-- Node39 -->
<g id="Node000039" class="node">
<title>Node39</title>
<g id="a_Node000039"><a xlink:href="_posix_2_thread_8h.html" target="_top" xlink:title=" ">
<polygon fill="white" stroke="#666666" points="1388,-316 1243,-316 1243,-297 1388,-297 1388,-316"/>
<text text-anchor="middle" x="1315.5" y="-304" font-family="Helvetica,sans-Serif" font-size="10.00">Kit/System/Posix/Thread.h</text>
</a>
</g>
</g>
<!-- Node37&#45;&gt;Node39 -->
<g id="edge46_Node000037_Node000039" class="edge">
<title>Node37&#45;&gt;Node39</title>
<g id="a_edge46_Node000037_Node000039"><a xlink:title=" ">
<path fill="none" stroke="#63b8ff" d="M1315.5,-341.66C1315.5,-332.93 1315.5,-322.99 1315.5,-316.09"/>
<polygon fill="#63b8ff" stroke="#63b8ff" points="1312,-341.75 1315.5,-351.75 1319,-341.75 1312,-341.75"/>
</a>
</g>
</g>
<!-- Node37&#45;&gt;Node40 -->
<g id="edge47_Node000037_Node000040" class="edge">
<title>Node37&#45;&gt;Node40</title>
<g id="a_edge47_Node000037_Node000040"><a xlink:title=" ">
<path fill="none" stroke="#63b8ff" d="M1376.64,-350.31C1436.36,-340.36 1526.2,-325.38 1582.27,-316.04"/>
<polygon fill="#63b8ff" stroke="#63b8ff" points="1375.88,-346.89 1366.59,-351.98 1377.03,-353.79 1375.88,-346.89"/>
</a>
</g>
</g>
<!-- Node41 -->
<g id="Node000041" class="node">
<title>Node41</title>
<g id="a_Node000041"><a xlink:href="_win32_2_thread_8h.html" target="_top" xlink:title=" ">
<polygon fill="white" stroke="#666666" points="1555,-316 1406,-316 1406,-297 1555,-297 1555,-316"/>
<text text-anchor="middle" x="1480.5" y="-304" font-family="Helvetica,sans-Serif" font-size="10.00">Kit/System/Win32/Thread.h</text>
</a>
</g>
</g>
<!-- Node37&#45;&gt;Node41 -->
<g id="edge48_Node000037_Node000041" class="edge">
<title>Node37&#45;&gt;Node41</title>
<g id="a_edge48_Node000037_Node000041"><a xlink:title=" ">
<path fill="none" stroke="#63b8ff" d="M1351.93,-348.8C1382.72,-338.91 1426.12,-324.97 1453.78,-316.08"/>
<polygon fill="#63b8ff" stroke="#63b8ff" points="1350.46,-345.59 1342.01,-351.98 1352.6,-352.26 1350.46,-345.59"/>
</a>
</g>
</g>
</g>
</svg>
