<?xml version="1.0" encoding="UTF-8" standalone="no"?>
<!DOCTYPE svg PUBLIC "-//W3C//DTD SVG 1.1//EN"
 "http://www.w3.org/Graphics/SVG/1.1/DTD/svg11.dtd">
<!-- Generated by graphviz version 2.43.0 (0)
 -->
<!-- Title: Kit/Container/Key.h Pages: 1 -->
<svg width="2140pt" height="401pt"
 viewBox="0.00 0.00 2139.50 401.00" xmlns="http://www.w3.org/2000/svg" xmlns:xlink="http://www.w3.org/1999/xlink">
<g id="graph0" class="graph" transform="scale(1 1) rotate(0) translate(4 397)">
<title>Kit/Container/Key.h</title>
<!-- Node1 -->
<g id="Node000001" class="node">
<title>Node1</title>
<g id="a_Node000001"><a xlink:title=" ">
<polygon fill="#999999" stroke="#666666" points="706,-393 597,-393 597,-374 706,-374 706,-393"/>
<text text-anchor="middle" x="651.5" y="-381" font-family="Helvetica,sans-Serif" font-size="10.00">Kit/Container/Key.h</text>
</a>
</g>
</g>
<!-- Node2 -->
<g id="Node000002" class="node">
<title>Node2</title>
<g id="a_Node000002"><a xlink:href="_keyed_item_8h.html" target="_top" xlink:title=" ">
<polygon fill="white" stroke="#666666" points="655,-338 510,-338 510,-319 655,-319 655,-338"/>
<text text-anchor="middle" x="582.5" y="-326" font-family="Helvetica,sans-Serif" font-size="10.00">Kit/Container/KeyedItem.h</text>
</a>
</g>
</g>
<!-- Node1&#45;&gt;Node2 -->
<g id="edge1_Node000001_Node000002" class="edge">
<title>Node1&#45;&gt;Node2</title>
<g id="a_edge1_Node000001_Node000002"><a xlink:title=" ">
<path fill="none" stroke="#63b8ff" d="M632.46,-367.88C620.04,-358.34 604.26,-346.21 593.79,-338.17"/>
<polygon fill="#63b8ff" stroke="#63b8ff" points="630.35,-370.67 640.41,-373.98 634.62,-365.12 630.35,-370.67"/>
</a>
</g>
</g>
<!-- Node9 -->
<g id="Node000009" class="node">
<title>Node9</title>
<g id="a_Node000009"><a xlink:href="_i_string_8h.html" target="_top" xlink:title=" ">
<polygon fill="white" stroke="#666666" points="937,-338 840,-338 840,-319 937,-319 937,-338"/>
<text text-anchor="middle" x="888.5" y="-326" font-family="Helvetica,sans-Serif" font-size="10.00">Kit/Text/IString.h</text>
</a>
</g>
</g>
<!-- Node1&#45;&gt;Node9 -->
<g id="edge8_Node000001_Node000009" class="edge">
<title>Node1&#45;&gt;Node9</title>
<g id="a_edge8_Node000001_Node000009"><a xlink:title=" ">
<path fill="none" stroke="#63b8ff" d="M699.56,-371.75C743.97,-361.82 809.1,-347.26 850.12,-338.08"/>
<polygon fill="#63b8ff" stroke="#63b8ff" points="698.57,-368.39 689.58,-373.98 700.1,-375.22 698.57,-368.39"/>
</a>
</g>
</g>
<!-- Node3 -->
<g id="Node000003" class="node">
<title>Node3</title>
<g id="a_Node000003"><a xlink:href="_map_item_8h.html" target="_top" xlink:title=" ">
<polygon fill="white" stroke="#666666" points="483.5,-277.5 347.5,-277.5 347.5,-258.5 483.5,-258.5 483.5,-277.5"/>
<text text-anchor="middle" x="415.5" y="-265.5" font-family="Helvetica,sans-Serif" font-size="10.00">Kit/Container/MapItem.h</text>
</a>
</g>
</g>
<!-- Node2&#45;&gt;Node3 -->
<g id="edge2_Node000002_Node000003" class="edge">
<title>Node2&#45;&gt;Node3</title>
<g id="a_edge2_Node000002_Node000003"><a xlink:title=" ">
<path fill="none" stroke="#63b8ff" d="M548.73,-315.67C516.44,-304.36 468.52,-287.57 439.81,-277.52"/>
<polygon fill="#63b8ff" stroke="#63b8ff" points="547.62,-318.99 558.22,-318.99 549.94,-312.38 547.62,-318.99"/>
</a>
</g>
</g>
<!-- Node4 -->
<g id="Node000004" class="node">
<title>Node4</title>
<g id="a_Node000004"><a xlink:href="_avl_tree___8h.html" target="_top" xlink:title=" ">
<polygon fill="white" stroke="#666666" points="339,-211.5 206,-211.5 206,-192.5 339,-192.5 339,-211.5"/>
<text text-anchor="middle" x="272.5" y="-199.5" font-family="Helvetica,sans-Serif" font-size="10.00">Kit/Container/AvlTree_.h</text>
</a>
</g>
</g>
<!-- Node3&#45;&gt;Node4 -->
<g id="edge3_Node000003_Node000004" class="edge">
<title>Node3&#45;&gt;Node4</title>
<g id="a_edge3_Node000003_Node000004"><a xlink:title=" ">
<path fill="none" stroke="#63b8ff" d="M386.89,-254.19C358.7,-241.58 316.42,-222.66 291.94,-211.7"/>
<polygon fill="#63b8ff" stroke="#63b8ff" points="385.66,-257.48 396.21,-258.37 388.52,-251.09 385.66,-257.48"/>
</a>
</g>
</g>
<!-- Node6 -->
<g id="Node000006" class="node">
<title>Node6</title>
<g id="a_Node000006"><a xlink:href="_string_item_8h.html" target="_top" xlink:title=" ">
<polygon fill="white" stroke="#666666" points="473.5,-211.5 357.5,-211.5 357.5,-192.5 473.5,-192.5 473.5,-211.5"/>
<text text-anchor="middle" x="415.5" y="-199.5" font-family="Helvetica,sans-Serif" font-size="10.00">Kit/Text/StringItem.h</text>
</a>
</g>
</g>
<!-- Node3&#45;&gt;Node6 -->
<g id="edge5_Node000003_Node000006" class="edge">
<title>Node3&#45;&gt;Node6</title>
<g id="a_edge5_Node000003_Node000006"><a xlink:title=" ">
<path fill="none" stroke="#63b8ff" d="M415.5,-248.08C415.5,-236.13 415.5,-221.22 415.5,-211.91"/>
<polygon fill="#63b8ff" stroke="#63b8ff" points="412,-248.37 415.5,-258.37 419,-248.37 412,-248.37"/>
</a>
</g>
</g>
<!-- Node5 -->
<g id="Node000005" class="node">
<title>Node5</title>
<g id="a_Node000005"><a xlink:href="_map_8h.html" target="_top" xlink:title=" ">
<polygon fill="white" stroke="#666666" points="325,-145.5 212,-145.5 212,-126.5 325,-126.5 325,-145.5"/>
<text text-anchor="middle" x="268.5" y="-133.5" font-family="Helvetica,sans-Serif" font-size="10.00">Kit/Container/Map.h</text>
</a>
</g>
</g>
<!-- Node4&#45;&gt;Node5 -->
<g id="edge4_Node000004_Node000005" class="edge">
<title>Node4&#45;&gt;Node5</title>
<g id="a_edge4_Node000004_Node000005"><a xlink:title=" ">
<path fill="none" stroke="#63b8ff" d="M271.32,-182.08C270.57,-170.13 269.64,-155.22 269.06,-145.91"/>
<polygon fill="#63b8ff" stroke="#63b8ff" points="267.84,-182.61 271.96,-192.37 274.83,-182.17 267.84,-182.61"/>
</a>
</g>
</g>
<!-- Node7 -->
<g id="Node000007" class="node">
<title>Node7</title>
<g id="a_Node000007"><a xlink:href="_d_string_item_8h.html" target="_top" xlink:title=" ">
<polygon fill="white" stroke="#666666" points="742.5,-145.5 618.5,-145.5 618.5,-126.5 742.5,-126.5 742.5,-145.5"/>
<text text-anchor="middle" x="680.5" y="-133.5" font-family="Helvetica,sans-Serif" font-size="10.00">Kit/Text/DStringItem.h</text>
</a>
</g>
</g>
<!-- Node6&#45;&gt;Node7 -->
<g id="edge6_Node000006_Node000007" class="edge">
<title>Node6&#45;&gt;Node7</title>
<g id="a_edge6_Node000006_Node000007"><a xlink:title=" ">
<path fill="none" stroke="#63b8ff" d="M460.96,-190.02C513.18,-177.41 597.76,-156.98 645.25,-145.51"/>
<polygon fill="#63b8ff" stroke="#63b8ff" points="459.86,-186.69 450.96,-192.44 461.51,-193.49 459.86,-186.69"/>
</a>
</g>
</g>
<!-- Node8 -->
<g id="Node000008" class="node">
<title>Node8</title>
<g id="a_Node000008"><a xlink:href="_f_string_item_8h.html" target="_top" xlink:title=" ">
<polygon fill="white" stroke="#666666" points="680.5,-79.5 558.5,-79.5 558.5,-60.5 680.5,-60.5 680.5,-79.5"/>
<text text-anchor="middle" x="619.5" y="-67.5" font-family="Helvetica,sans-Serif" font-size="10.00">Kit/Text/FStringItem.h</text>
</a>
</g>
</g>
<!-- Node6&#45;&gt;Node8 -->
<g id="edge7_Node000006_Node000008" class="edge">
<title>Node6&#45;&gt;Node8</title>
<g id="a_edge7_Node000006_Node000008"><a xlink:title=" ">
<path fill="none" stroke="#63b8ff" d="M427.69,-184.03C441.26,-166.22 464.7,-138.41 490.5,-121 519.97,-101.11 558.48,-87.51 585.73,-79.57"/>
<polygon fill="#63b8ff" stroke="#63b8ff" points="424.68,-182.22 421.54,-192.33 430.31,-186.39 424.68,-182.22"/>
</a>
</g>
</g>
<!-- Node9&#45;&gt;Node6 -->
<g id="edge59_Node000009_Node000006" class="edge">
<title>Node9&#45;&gt;Node6</title>
<g id="a_edge59_Node000009_Node000006"><a xlink:title=" ">
<path fill="none" stroke="#63b8ff" d="M829.56,-322.05C772.7,-315.87 684.59,-303.83 610.5,-283 542.34,-263.84 465.81,-227.94 432.5,-211.55"/>
<polygon fill="#63b8ff" stroke="#63b8ff" points="829.49,-325.56 839.81,-323.14 830.23,-318.6 829.49,-325.56"/>
</a>
</g>
</g>
<!-- Node10 -->
<g id="Node000010" class="node">
<title>Node10</title>
<g id="a_Node000010"><a xlink:href="_i_input_8h.html" target="_top" xlink:title=" ">
<polygon fill="white" stroke="#666666" points="1767.5,-277.5 1685.5,-277.5 1685.5,-258.5 1767.5,-258.5 1767.5,-277.5"/>
<text text-anchor="middle" x="1726.5" y="-265.5" font-family="Helvetica,sans-Serif" font-size="10.00">Kit/Io/IInput.h</text>
</a>
</g>
</g>
<!-- Node9&#45;&gt;Node10 -->
<g id="edge9_Node000009_Node000010" class="edge">
<title>Node9&#45;&gt;Node10</title>
<g id="a_edge9_Node000009_Node000010"><a xlink:title=" ">
<path fill="none" stroke="#63b8ff" d="M947.31,-323.39C1107.41,-312.22 1548.21,-281.45 1685.28,-271.88"/>
<polygon fill="#63b8ff" stroke="#63b8ff" points="946.91,-319.91 937.18,-324.1 947.4,-326.9 946.91,-319.91"/>
</a>
</g>
</g>
<!-- Node26 -->
<g id="Node000026" class="node">
<title>Node26</title>
<g id="a_Node000026"><a xlink:href="_i_line_reader_8h.html" target="_top" xlink:title=" ">
<polygon fill="white" stroke="#666666" points="2051,-277.5 1940,-277.5 1940,-258.5 2051,-258.5 2051,-277.5"/>
<text text-anchor="middle" x="1995.5" y="-265.5" font-family="Helvetica,sans-Serif" font-size="10.00">Kit/Io/ILineReader.h</text>
</a>
</g>
</g>
<!-- Node9&#45;&gt;Node26 -->
<g id="edge25_Node000009_Node000026" class="edge">
<title>Node9&#45;&gt;Node26</title>
<g id="a_edge25_Node000009_Node000026"><a xlink:title=" ">
<path fill="none" stroke="#63b8ff" d="M947.37,-324.83C1089.78,-318.31 1464.15,-300.81 1776.5,-283 1832.03,-279.83 1895.46,-275.73 1939.71,-272.78"/>
<polygon fill="#63b8ff" stroke="#63b8ff" points="946.95,-321.35 937.12,-325.3 947.27,-328.34 946.95,-321.35"/>
</a>
</g>
</g>
<!-- Node27 -->
<g id="Node000027" class="node">
<title>Node27</title>
<g id="a_Node000027"><a xlink:href="_i_line_writer_8h.html" target="_top" xlink:title=" ">
<polygon fill="white" stroke="#666666" points="942,-277.5 835,-277.5 835,-258.5 942,-258.5 942,-277.5"/>
<text text-anchor="middle" x="888.5" y="-265.5" font-family="Helvetica,sans-Serif" font-size="10.00">Kit/Io/ILineWriter.h</text>
</a>
</g>
</g>
<!-- Node9&#45;&gt;Node27 -->
<g id="edge27_Node000009_Node000027" class="edge">
<title>Node9&#45;&gt;Node27</title>
<g id="a_edge27_Node000009_Node000027"><a xlink:title=" ">
<path fill="none" stroke="#63b8ff" d="M888.5,-308.66C888.5,-298.24 888.5,-285.8 888.5,-277.67"/>
<polygon fill="#63b8ff" stroke="#63b8ff" points="885,-308.87 888.5,-318.87 892,-308.87 885,-308.87"/>
</a>
</g>
</g>
<!-- Node29 -->
<g id="Node000029" class="node">
<title>Node29</title>
<g id="a_Node000029"><a xlink:href="_i_output_8h.html" target="_top" xlink:title=" ">
<polygon fill="white" stroke="#666666" points="1315.5,-277.5 1225.5,-277.5 1225.5,-258.5 1315.5,-258.5 1315.5,-277.5"/>
<text text-anchor="middle" x="1270.5" y="-265.5" font-family="Helvetica,sans-Serif" font-size="10.00">Kit/Io/IOutput.h</text>
</a>
</g>
</g>
<!-- Node9&#45;&gt;Node29 -->
<g id="edge29_Node000009_Node000029" class="edge">
<title>Node9&#45;&gt;Node29</title>
<g id="a_edge29_Node000009_Node000029"><a xlink:title=" ">
<path fill="none" stroke="#63b8ff" d="M947.34,-321.65C1013.25,-314.6 1123.1,-301.37 1216.5,-283 1224.2,-281.49 1232.43,-279.53 1240.09,-277.56"/>
<polygon fill="#63b8ff" stroke="#63b8ff" points="946.72,-318.19 937.15,-322.73 947.46,-325.16 946.72,-318.19"/>
</a>
</g>
</g>
<!-- Node36 -->
<g id="Node000036" class="node">
<title>Node36</title>
<g id="a_Node000036"><a xlink:href="_trace_8h.html" target="_top" xlink:title="This file provides an interface for a &#39;printf&#39; tracing mechanism.">
<polygon fill="white" stroke="#666666" points="901,-211.5 794,-211.5 794,-192.5 901,-192.5 901,-211.5"/>
<text text-anchor="middle" x="847.5" y="-199.5" font-family="Helvetica,sans-Serif" font-size="10.00">Kit/System/Trace.h</text>
</a>
</g>
</g>
<!-- Node9&#45;&gt;Node36 -->
<g id="edge45_Node000009_Node000036" class="edge">
<title>Node9&#45;&gt;Node36</title>
<g id="a_edge45_Node000009_Node000036"><a xlink:title=" ">
<path fill="none" stroke="#63b8ff" d="M859.15,-314.22C846.69,-306.93 833.46,-296.56 826.5,-283 814.17,-258.98 831.28,-227.1 841.23,-211.85"/>
<polygon fill="#63b8ff" stroke="#63b8ff" points="857.52,-317.32 867.98,-319 860.85,-311.16 857.52,-317.32"/>
</a>
</g>
</g>
<!-- Node39 -->
<g id="Node000039" class="node">
<title>Node39</title>
<g id="a_Node000039"><a xlink:href="_private_8h.html" target="_top" xlink:title="This file contains a collection of classes, interfaces, etc.">
<polygon fill="white" stroke="#666666" points="876.5,-145.5 760.5,-145.5 760.5,-126.5 876.5,-126.5 876.5,-145.5"/>
<text text-anchor="middle" x="818.5" y="-133.5" font-family="Helvetica,sans-Serif" font-size="10.00">Kit/System/Private.h</text>
</a>
</g>
</g>
<!-- Node9&#45;&gt;Node39 -->
<g id="edge44_Node000009_Node000039" class="edge">
<title>Node9&#45;&gt;Node39</title>
<g id="a_edge44_Node000009_Node000039"><a xlink:title=" ">
<path fill="none" stroke="#63b8ff" d="M859.63,-314.22C845.55,-306.63 829.18,-296.02 817.5,-283 795.73,-258.73 792.8,-248.77 785.5,-217 782.52,-204 781.67,-199.77 785.5,-187 790.35,-170.86 802.27,-155.13 810.38,-145.75"/>
<polygon fill="#63b8ff" stroke="#63b8ff" points="858.43,-317.53 868.93,-318.98 861.63,-311.3 858.43,-317.53"/>
</a>
</g>
</g>
<!-- Node40 -->
<g id="Node000040" class="node">
<title>Node40</title>
<g id="a_Node000040"><a xlink:href="_formatter_8h.html" target="_top" xlink:title=" ">
<polygon fill="white" stroke="#666666" points="1089,-283 960,-283 960,-253 1089,-253 1089,-283"/>
<text text-anchor="start" x="968" y="-271" font-family="Helvetica,sans-Serif" font-size="10.00">Kit/Logging/Framework</text>
<text text-anchor="middle" x="1024.5" y="-260" font-family="Helvetica,sans-Serif" font-size="10.00">/Formatter.h</text>
</a>
</g>
</g>
<!-- Node9&#45;&gt;Node40 -->
<g id="edge43_Node000009_Node000040" class="edge">
<title>Node9&#45;&gt;Node40</title>
<g id="a_edge43_Node000009_Node000040"><a xlink:title=" ">
<path fill="none" stroke="#63b8ff" d="M917.67,-314.95C939.44,-305.59 969.22,-292.78 991.8,-283.06"/>
<polygon fill="#63b8ff" stroke="#63b8ff" points="916.08,-311.83 908.28,-318.99 918.84,-318.26 916.08,-311.83"/>
</a>
</g>
</g>
<!-- Node41 -->
<g id="Node000041" class="node">
<title>Node41</title>
<g id="a_Node000041"><a xlink:href="_format_8h.html" target="_top" xlink:title=" ">
<polygon fill="white" stroke="#666666" points="1207.5,-277.5 1107.5,-277.5 1107.5,-258.5 1207.5,-258.5 1207.5,-277.5"/>
<text text-anchor="middle" x="1157.5" y="-265.5" font-family="Helvetica,sans-Serif" font-size="10.00">Kit/Text/Format.h</text>
</a>
</g>
</g>
<!-- Node9&#45;&gt;Node41 -->
<g id="edge46_Node000009_Node000041" class="edge">
<title>Node9&#45;&gt;Node41</title>
<g id="a_edge46_Node000009_Node000041"><a xlink:title=" ">
<path fill="none" stroke="#63b8ff" d="M940.25,-316.9C982.8,-308.09 1044.64,-295.1 1098.5,-283 1106.2,-281.27 1114.46,-279.35 1122.28,-277.5"/>
<polygon fill="#63b8ff" stroke="#63b8ff" points="939.49,-313.48 930.4,-318.93 940.9,-320.34 939.49,-313.48"/>
</a>
</g>
</g>
<!-- Node42 -->
<g id="Node000042" class="node">
<title>Node42</title>
<g id="a_Node000042"><a xlink:href="_string_base_8h.html" target="_top" xlink:title=" ">
<polygon fill="white" stroke="#666666" points="737.5,-277.5 619.5,-277.5 619.5,-258.5 737.5,-258.5 737.5,-277.5"/>
<text text-anchor="middle" x="678.5" y="-265.5" font-family="Helvetica,sans-Serif" font-size="10.00">Kit/Text/StringBase.h</text>
</a>
</g>
</g>
<!-- Node9&#45;&gt;Node42 -->
<g id="edge47_Node000009_Node000042" class="edge">
<title>Node9&#45;&gt;Node42</title>
<g id="a_edge47_Node000009_Node000042"><a xlink:title=" ">
<path fill="none" stroke="#63b8ff" d="M848.12,-316.25C807.51,-304.94 745.79,-287.75 709.07,-277.52"/>
<polygon fill="#63b8ff" stroke="#63b8ff" points="847.39,-319.68 857.96,-318.99 849.27,-312.94 847.39,-319.68"/>
</a>
</g>
</g>
<!-- Node11 -->
<g id="Node000011" class="node">
<title>Node11</title>
<g id="a_Node000011"><a xlink:href="_file_2_i_input_8h.html" target="_top" xlink:title=" ">
<polygon fill="white" stroke="#666666" points="1705.5,-211.5 1603.5,-211.5 1603.5,-192.5 1705.5,-192.5 1705.5,-211.5"/>
<text text-anchor="middle" x="1654.5" y="-199.5" font-family="Helvetica,sans-Serif" font-size="10.00">Kit/Io/File/IInput.h</text>
</a>
</g>
</g>
<!-- Node10&#45;&gt;Node11 -->
<g id="edge10_Node000010_Node000011" class="edge">
<title>Node10&#45;&gt;Node11</title>
<g id="a_edge10_Node000010_Node000011"><a xlink:title=" ">
<path fill="none" stroke="#63b8ff" d="M1709.26,-251.68C1695.29,-239.26 1676.08,-222.18 1664.52,-211.91"/>
<polygon fill="#63b8ff" stroke="#63b8ff" points="1706.99,-254.34 1716.79,-258.37 1711.64,-249.11 1706.99,-254.34"/>
</a>
</g>
</g>
<!-- Node16 -->
<g id="Node000016" class="node">
<title>Node16</title>
<g id="a_Node000016"><a xlink:href="_i_input_output_8h.html" target="_top" xlink:title=" ">
<polygon fill="white" stroke="#666666" points="1585,-211.5 1470,-211.5 1470,-192.5 1585,-192.5 1585,-211.5"/>
<text text-anchor="middle" x="1527.5" y="-199.5" font-family="Helvetica,sans-Serif" font-size="10.00">Kit/Io/IInputOutput.h</text>
</a>
</g>
</g>
<!-- Node10&#45;&gt;Node16 -->
<g id="edge15_Node000010_Node000016" class="edge">
<title>Node10&#45;&gt;Node16</title>
<g id="a_edge15_Node000010_Node000016"><a xlink:title=" ">
<path fill="none" stroke="#63b8ff" d="M1689.94,-255.24C1650.67,-242.61 1589.21,-222.85 1554.23,-211.6"/>
<polygon fill="#63b8ff" stroke="#63b8ff" points="1689.07,-258.64 1699.66,-258.37 1691.21,-251.98 1689.07,-258.64"/>
</a>
</g>
</g>
<!-- Node22 -->
<g id="Node000022" class="node">
<title>Node22</title>
<g id="a_Node000022"><a xlink:href="_line_reader_8h.html" target="_top" xlink:title=" ">
<polygon fill="white" stroke="#666666" points="2131.5,-211.5 2023.5,-211.5 2023.5,-192.5 2131.5,-192.5 2131.5,-211.5"/>
<text text-anchor="middle" x="2077.5" y="-199.5" font-family="Helvetica,sans-Serif" font-size="10.00">Kit/Io/LineReader.h</text>
</a>
</g>
</g>
<!-- Node10&#45;&gt;Node22 -->
<g id="edge21_Node000010_Node000022" class="edge">
<title>Node10&#45;&gt;Node22</title>
<g id="a_edge21_Node000010_Node000022"><a xlink:title=" ">
<path fill="none" stroke="#63b8ff" d="M1777.58,-258.87C1835.26,-249.52 1931.84,-233.35 2014.5,-217 2022.96,-215.33 2032.04,-213.39 2040.58,-211.51"/>
<polygon fill="#63b8ff" stroke="#63b8ff" points="1776.94,-255.43 1767.63,-260.48 1778.06,-262.34 1776.94,-255.43"/>
</a>
</g>
</g>
<!-- Node23 -->
<g id="Node000023" class="node">
<title>Node23</title>
<g id="a_Node000023"><a xlink:href="_input_delegate_8h.html" target="_top" xlink:title=" ">
<polygon fill="white" stroke="#666666" points="1875,-211.5 1724,-211.5 1724,-192.5 1875,-192.5 1875,-211.5"/>
<text text-anchor="middle" x="1799.5" y="-199.5" font-family="Helvetica,sans-Serif" font-size="10.00">Kit/Io/Stdio/InputDelegate.h</text>
</a>
</g>
</g>
<!-- Node10&#45;&gt;Node23 -->
<g id="edge22_Node000010_Node000023" class="edge">
<title>Node10&#45;&gt;Node23</title>
<g id="a_edge22_Node000010_Node000023"><a xlink:title=" ">
<path fill="none" stroke="#63b8ff" d="M1743.98,-251.68C1758.14,-239.26 1777.62,-222.18 1789.34,-211.91"/>
<polygon fill="#63b8ff" stroke="#63b8ff" points="1741.56,-249.14 1736.35,-258.37 1746.17,-254.41 1741.56,-249.14"/>
</a>
</g>
</g>
<!-- Node25 -->
<g id="Node000025" class="node">
<title>Node25</title>
<g id="a_Node000025"><a xlink:href="helpers_8h.html" target="_top" xlink:title="This file defines helper functions/interface for writing unit tests.">
<polygon fill="white" stroke="#666666" points="2005.5,-217 1893.5,-217 1893.5,-187 2005.5,-187 2005.5,-217"/>
<text text-anchor="start" x="1901.5" y="-205" font-family="Helvetica,sans-Serif" font-size="10.00">Kit/_support/testing</text>
<text text-anchor="middle" x="1949.5" y="-194" font-family="Helvetica,sans-Serif" font-size="10.00">/helpers.h</text>
</a>
</g>
</g>
<!-- Node10&#45;&gt;Node25 -->
<g id="edge24_Node000010_Node000025" class="edge">
<title>Node10&#45;&gt;Node25</title>
<g id="a_edge24_Node000010_Node000025"><a xlink:title=" ">
<path fill="none" stroke="#63b8ff" d="M1766.63,-255.48C1804.11,-244.73 1860.16,-228.64 1900.32,-217.12"/>
<polygon fill="#63b8ff" stroke="#63b8ff" points="1765.22,-252.25 1756.57,-258.37 1767.15,-258.97 1765.22,-252.25"/>
</a>
</g>
</g>
<!-- Node12 -->
<g id="Node000012" class="node">
<title>Node12</title>
<g id="a_Node000012"><a xlink:href="_file_2_i_input_output_8h.html" target="_top" xlink:title=" ">
<polygon fill="white" stroke="#666666" points="1455,-145.5 1320,-145.5 1320,-126.5 1455,-126.5 1455,-145.5"/>
<text text-anchor="middle" x="1387.5" y="-133.5" font-family="Helvetica,sans-Serif" font-size="10.00">Kit/Io/File/IInputOutput.h</text>
</a>
</g>
</g>
<!-- Node11&#45;&gt;Node12 -->
<g id="edge11_Node000011_Node000012" class="edge">
<title>Node11&#45;&gt;Node12</title>
<g id="a_edge11_Node000011_Node000012"><a xlink:title=" ">
<path fill="none" stroke="#63b8ff" d="M1609.03,-190.1C1556.44,-177.49 1470.97,-157.01 1423.02,-145.51"/>
<polygon fill="#63b8ff" stroke="#63b8ff" points="1608.23,-193.51 1618.77,-192.44 1609.86,-186.7 1608.23,-193.51"/>
</a>
</g>
</g>
<!-- Node15 -->
<g id="Node000015" class="node">
<title>Node15</title>
<g id="a_Node000015"><a xlink:href="_input_8h.html" target="_top" xlink:title=" ">
<polygon fill="white" stroke="#666666" points="1975,-145.5 1876,-145.5 1876,-126.5 1975,-126.5 1975,-145.5"/>
<text text-anchor="middle" x="1925.5" y="-133.5" font-family="Helvetica,sans-Serif" font-size="10.00">Kit/Io/File/Input.h</text>
</a>
</g>
</g>
<!-- Node11&#45;&gt;Node15 -->
<g id="edge14_Node000011_Node000015" class="edge">
<title>Node11&#45;&gt;Node15</title>
<g id="a_edge14_Node000011_Node000015"><a xlink:title=" ">
<path fill="none" stroke="#63b8ff" d="M1700.77,-190.11C1743.72,-179.99 1809.44,-164.5 1866.5,-151 1873.98,-149.23 1881.99,-147.33 1889.62,-145.52"/>
<polygon fill="#63b8ff" stroke="#63b8ff" points="1699.82,-186.73 1690.89,-192.43 1701.43,-193.55 1699.82,-186.73"/>
</a>
</g>
</g>
<!-- Node13 -->
<g id="Node000013" class="node">
<title>Node13</title>
<g id="a_Node000013"><a xlink:href="_file_2_input_output_8h.html" target="_top" xlink:title=" ">
<polygon fill="white" stroke="#666666" points="1365.5,-79.5 1233.5,-79.5 1233.5,-60.5 1365.5,-60.5 1365.5,-79.5"/>
<text text-anchor="middle" x="1299.5" y="-67.5" font-family="Helvetica,sans-Serif" font-size="10.00">Kit/Io/File/InputOutput.h</text>
</a>
</g>
</g>
<!-- Node12&#45;&gt;Node13 -->
<g id="edge12_Node000012_Node000013" class="edge">
<title>Node12&#45;&gt;Node13</title>
<g id="a_edge12_Node000012_Node000013"><a xlink:title=" ">
<path fill="none" stroke="#63b8ff" d="M1367.33,-120.33C1350.07,-107.78 1325.81,-90.13 1311.46,-79.7"/>
<polygon fill="#63b8ff" stroke="#63b8ff" points="1365.49,-123.32 1375.63,-126.37 1369.6,-117.66 1365.49,-123.32"/>
</a>
</g>
</g>
<!-- Node14 -->
<g id="Node000014" class="node">
<title>Node14</title>
<g id="a_Node000014"><a xlink:href="_file_2_null_8h.html" target="_top" xlink:title=" ">
<polygon fill="white" stroke="#666666" points="1477.5,-79.5 1383.5,-79.5 1383.5,-60.5 1477.5,-60.5 1477.5,-79.5"/>
<text text-anchor="middle" x="1430.5" y="-67.5" font-family="Helvetica,sans-Serif" font-size="10.00">Kit/Io/File/Null.h</text>
</a>
</g>
</g>
<!-- Node12&#45;&gt;Node14 -->
<g id="edge13_Node000012_Node000014" class="edge">
<title>Node12&#45;&gt;Node14</title>
<g id="a_edge13_Node000012_Node000014"><a xlink:title=" ">
<path fill="none" stroke="#63b8ff" d="M1398.98,-117.91C1407.2,-105.68 1417.94,-89.7 1424.52,-79.91"/>
<polygon fill="#63b8ff" stroke="#63b8ff" points="1395.97,-116.12 1393.3,-126.37 1401.78,-120.02 1395.97,-116.12"/>
</a>
</g>
</g>
<!-- Node17 -->
<g id="Node000017" class="node">
<title>Node17</title>
<g id="a_Node000017"><a xlink:href="_null_8h.html" target="_top" xlink:title=" ">
<polygon fill="white" stroke="#666666" points="1547.5,-145.5 1473.5,-145.5 1473.5,-126.5 1547.5,-126.5 1547.5,-145.5"/>
<text text-anchor="middle" x="1510.5" y="-133.5" font-family="Helvetica,sans-Serif" font-size="10.00">Kit/Io/Null.h</text>
</a>
</g>
</g>
<!-- Node16&#45;&gt;Node17 -->
<g id="edge16_Node000016_Node000017" class="edge">
<title>Node16&#45;&gt;Node17</title>
<g id="a_edge16_Node000016_Node000017"><a xlink:title=" ">
<path fill="none" stroke="#63b8ff" d="M1522.57,-182.45C1519.38,-170.43 1515.37,-155.32 1512.87,-145.91"/>
<polygon fill="#63b8ff" stroke="#63b8ff" points="1519.26,-183.6 1525.21,-192.37 1526.02,-181.81 1519.26,-183.6"/>
</a>
</g>
</g>
<!-- Node18 -->
<g id="Node000018" class="node">
<title>Node18</title>
<g id="a_Node000018"><a xlink:href="_serial_2_s_t_2_m32_f4_2_input_output_8h.html" target="_top" xlink:title=" ">
<polygon fill="white" stroke="#666666" points="1689.5,-151 1565.5,-151 1565.5,-121 1689.5,-121 1689.5,-151"/>
<text text-anchor="start" x="1573.5" y="-139" font-family="Helvetica,sans-Serif" font-size="10.00">Kit/Io/Serial/ST/M32F4</text>
<text text-anchor="middle" x="1627.5" y="-128" font-family="Helvetica,sans-Serif" font-size="10.00">/InputOutput.h</text>
</a>
</g>
</g>
<!-- Node16&#45;&gt;Node18 -->
<g id="edge17_Node000016_Node000018" class="edge">
<title>Node16&#45;&gt;Node18</title>
<g id="a_edge17_Node000016_Node000018"><a xlink:title=" ">
<path fill="none" stroke="#63b8ff" d="M1549.51,-186.91C1566.13,-176.28 1588.82,-161.75 1605.44,-151.12"/>
<polygon fill="#63b8ff" stroke="#63b8ff" points="1547.52,-184.03 1540.99,-192.37 1551.3,-189.93 1547.52,-184.03"/>
</a>
</g>
</g>
<!-- Node20 -->
<g id="Node000020" class="node">
<title>Node20</title>
<g id="a_Node000020"><a xlink:href="_socket_2_i_input_output_8h.html" target="_top" xlink:title=" ">
<polygon fill="white" stroke="#666666" points="1857.5,-145.5 1707.5,-145.5 1707.5,-126.5 1857.5,-126.5 1857.5,-145.5"/>
<text text-anchor="middle" x="1782.5" y="-133.5" font-family="Helvetica,sans-Serif" font-size="10.00">Kit/Io/Socket/IInputOutput.h</text>
</a>
</g>
</g>
<!-- Node16&#45;&gt;Node20 -->
<g id="edge19_Node000016_Node000020" class="edge">
<title>Node16&#45;&gt;Node20</title>
<g id="a_edge19_Node000016_Node000020"><a xlink:title=" ">
<path fill="none" stroke="#63b8ff" d="M1571.56,-189.94C1621.83,-177.32 1702.97,-156.96 1748.58,-145.51"/>
<polygon fill="#63b8ff" stroke="#63b8ff" points="1570.47,-186.61 1561.63,-192.44 1572.18,-193.4 1570.47,-186.61"/>
</a>
</g>
</g>
<!-- Node19 -->
<g id="Node000019" class="node">
<title>Node19</title>
<g id="a_Node000019"><a xlink:href="stdio_8h.html" target="_top" xlink:title="By default the BSP provides a KIT IO Stream for application&#39; console.">
<polygon fill="white" stroke="#666666" points="1696.5,-85 1544.5,-85 1544.5,-55 1696.5,-55 1696.5,-85"/>
<text text-anchor="start" x="1552.5" y="-73" font-family="Helvetica,sans-Serif" font-size="10.00">Kit/Bsp/ST/NUCLEO&#45;F413ZH</text>
<text text-anchor="middle" x="1620.5" y="-62" font-family="Helvetica,sans-Serif" font-size="10.00">/stdio.h</text>
</a>
</g>
</g>
<!-- Node18&#45;&gt;Node19 -->
<g id="edge18_Node000018_Node000019" class="edge">
<title>Node18&#45;&gt;Node19</title>
<g id="a_edge18_Node000018_Node000019"><a xlink:title=" ">
<path fill="none" stroke="#63b8ff" d="M1624.86,-110.83C1623.91,-102.17 1622.87,-92.7 1622.05,-85.16"/>
<polygon fill="#63b8ff" stroke="#63b8ff" points="1621.38,-111.24 1625.95,-120.8 1628.34,-110.48 1621.38,-111.24"/>
</a>
</g>
</g>
<!-- Node21 -->
<g id="Node000021" class="node">
<title>Node21</title>
<g id="a_Node000021"><a xlink:href="_socket_2_input_output_8h.html" target="_top" xlink:title=" ">
<polygon fill="white" stroke="#666666" points="1862,-79.5 1715,-79.5 1715,-60.5 1862,-60.5 1862,-79.5"/>
<text text-anchor="middle" x="1788.5" y="-67.5" font-family="Helvetica,sans-Serif" font-size="10.00">Kit/Io/Socket/InputOutput.h</text>
</a>
</g>
</g>
<!-- Node20&#45;&gt;Node21 -->
<g id="edge20_Node000020_Node000021" class="edge">
<title>Node20&#45;&gt;Node21</title>
<g id="a_edge20_Node000020_Node000021"><a xlink:title=" ">
<path fill="none" stroke="#63b8ff" d="M1784.27,-116.08C1785.39,-104.13 1786.79,-89.22 1787.67,-79.91"/>
<polygon fill="#63b8ff" stroke="#63b8ff" points="1780.76,-116.09 1783.31,-126.37 1787.73,-116.74 1780.76,-116.09"/>
</a>
</g>
</g>
<!-- Node24 -->
<g id="Node000024" class="node">
<title>Node24</title>
<g id="a_Node000024"><a xlink:href="_std_in_8h.html" target="_top" xlink:title=" ">
<polygon fill="white" stroke="#666666" points="2100,-145.5 1993,-145.5 1993,-126.5 2100,-126.5 2100,-145.5"/>
<text text-anchor="middle" x="2046.5" y="-133.5" font-family="Helvetica,sans-Serif" font-size="10.00">Kit/Io/Stdio/StdIn.h</text>
</a>
</g>
</g>
<!-- Node23&#45;&gt;Node24 -->
<g id="edge23_Node000023_Node000024" class="edge">
<title>Node23&#45;&gt;Node24</title>
<g id="a_edge23_Node000023_Node000024"><a xlink:title=" ">
<path fill="none" stroke="#63b8ff" d="M1842.48,-189.86C1891.2,-177.24 1969.56,-156.94 2013.64,-145.51"/>
<polygon fill="#63b8ff" stroke="#63b8ff" points="1841.36,-186.54 1832.56,-192.44 1843.11,-193.31 1841.36,-186.54"/>
</a>
</g>
</g>
<!-- Node26&#45;&gt;Node22 -->
<g id="edge26_Node000026_Node000022" class="edge">
<title>Node26&#45;&gt;Node22</title>
<g id="a_edge26_Node000026_Node000022"><a xlink:title=" ">
<path fill="none" stroke="#63b8ff" d="M2014.73,-251.99C2030.79,-239.46 2053.11,-222.04 2066.35,-211.7"/>
<polygon fill="#63b8ff" stroke="#63b8ff" points="2012.29,-249.46 2006.56,-258.37 2016.6,-254.98 2012.29,-249.46"/>
</a>
</g>
</g>
<!-- Node28 -->
<g id="Node000028" class="node">
<title>Node28</title>
<g id="a_Node000028"><a xlink:href="_line_writer_8h.html" target="_top" xlink:title=" ">
<polygon fill="white" stroke="#666666" points="1023.5,-211.5 919.5,-211.5 919.5,-192.5 1023.5,-192.5 1023.5,-211.5"/>
<text text-anchor="middle" x="971.5" y="-199.5" font-family="Helvetica,sans-Serif" font-size="10.00">Kit/Io/LineWriter.h</text>
</a>
</g>
</g>
<!-- Node27&#45;&gt;Node28 -->
<g id="edge28_Node000027_Node000028" class="edge">
<title>Node27&#45;&gt;Node28</title>
<g id="a_edge28_Node000027_Node000028"><a xlink:title=" ">
<path fill="none" stroke="#63b8ff" d="M907.97,-251.99C924.22,-239.46 946.81,-222.04 960.22,-211.7"/>
<polygon fill="#63b8ff" stroke="#63b8ff" points="905.48,-249.49 899.69,-258.37 909.75,-255.03 905.48,-249.49"/>
</a>
</g>
</g>
<!-- Node29&#45;&gt;Node16 -->
<g id="edge33_Node000029_Node000016" class="edge">
<title>Node29&#45;&gt;Node16</title>
<g id="a_edge33_Node000029_Node000016"><a xlink:title=" ">
<path fill="none" stroke="#63b8ff" d="M1314.9,-255.94C1365.57,-243.32 1447.35,-222.96 1493.31,-211.51"/>
<polygon fill="#63b8ff" stroke="#63b8ff" points="1313.75,-252.62 1304.89,-258.44 1315.44,-259.41 1313.75,-252.62"/>
</a>
</g>
</g>
<!-- Node29&#45;&gt;Node28 -->
<g id="edge34_Node000029_Node000028" class="edge">
<title>Node29&#45;&gt;Node28</title>
<g id="a_edge34_Node000029_Node000028"><a xlink:title=" ">
<path fill="none" stroke="#63b8ff" d="M1229.08,-256C1224.84,-254.95 1220.59,-253.93 1216.5,-253 1135.68,-234.59 1114.6,-234.13 1033.5,-217 1025.4,-215.29 1016.73,-213.38 1008.51,-211.53"/>
<polygon fill="#63b8ff" stroke="#63b8ff" points="1228.33,-259.42 1238.88,-258.47 1230.04,-252.63 1228.33,-259.42"/>
</a>
</g>
</g>
<!-- Node30 -->
<g id="Node000030" class="node">
<title>Node30</title>
<g id="a_Node000030"><a xlink:href="_file_2_i_output_8h.html" target="_top" xlink:title=" ">
<polygon fill="white" stroke="#666666" points="1329.5,-211.5 1219.5,-211.5 1219.5,-192.5 1329.5,-192.5 1329.5,-211.5"/>
<text text-anchor="middle" x="1274.5" y="-199.5" font-family="Helvetica,sans-Serif" font-size="10.00">Kit/Io/File/IOutput.h</text>
</a>
</g>
</g>
<!-- Node29&#45;&gt;Node30 -->
<g id="edge30_Node000029_Node000030" class="edge">
<title>Node29&#45;&gt;Node30</title>
<g id="a_edge30_Node000029_Node000030"><a xlink:title=" ">
<path fill="none" stroke="#63b8ff" d="M1271.68,-248.08C1272.43,-236.13 1273.36,-221.22 1273.94,-211.91"/>
<polygon fill="#63b8ff" stroke="#63b8ff" points="1268.17,-248.17 1271.04,-258.37 1275.16,-248.61 1268.17,-248.17"/>
</a>
</g>
</g>
<!-- Node32 -->
<g id="Node000032" class="node">
<title>Node32</title>
<g id="a_Node000032"><a xlink:href="_output_delegate_8h.html" target="_top" xlink:title=" ">
<polygon fill="white" stroke="#666666" points="1201,-211.5 1042,-211.5 1042,-192.5 1201,-192.5 1201,-211.5"/>
<text text-anchor="middle" x="1121.5" y="-199.5" font-family="Helvetica,sans-Serif" font-size="10.00">Kit/Io/Stdio/OutputDelegate.h</text>
</a>
</g>
</g>
<!-- Node29&#45;&gt;Node32 -->
<g id="edge35_Node000029_Node000032" class="edge">
<title>Node29&#45;&gt;Node32</title>
<g id="a_edge35_Node000029_Node000032"><a xlink:title=" ">
<path fill="none" stroke="#63b8ff" d="M1241.07,-254.36C1211.71,-241.75 1167.38,-222.71 1141.75,-211.7"/>
<polygon fill="#63b8ff" stroke="#63b8ff" points="1239.84,-257.64 1250.41,-258.37 1242.6,-251.21 1239.84,-257.64"/>
</a>
</g>
</g>
<!-- Node35 -->
<g id="Node000035" class="node">
<title>Node35</title>
<g id="a_Node000035"><a xlink:href="_tee_output_8h.html" target="_top" xlink:title=" ">
<polygon fill="white" stroke="#666666" points="1451.5,-211.5 1347.5,-211.5 1347.5,-192.5 1451.5,-192.5 1451.5,-211.5"/>
<text text-anchor="middle" x="1399.5" y="-199.5" font-family="Helvetica,sans-Serif" font-size="10.00">Kit/Io/TeeOutput.h</text>
</a>
</g>
</g>
<!-- Node29&#45;&gt;Node35 -->
<g id="edge38_Node000029_Node000035" class="edge">
<title>Node29&#45;&gt;Node35</title>
<g id="a_edge38_Node000029_Node000035"><a xlink:title=" ">
<path fill="none" stroke="#63b8ff" d="M1296.98,-253.86C1322.4,-241.25 1360.07,-222.56 1381.97,-211.7"/>
<polygon fill="#63b8ff" stroke="#63b8ff" points="1295.3,-250.79 1287.9,-258.37 1298.41,-257.06 1295.3,-250.79"/>
</a>
</g>
</g>
<!-- Node29&#45;&gt;Node36 -->
<g id="edge39_Node000029_Node000036" class="edge">
<title>Node29&#45;&gt;Node36</title>
<g id="a_edge39_Node000029_Node000036"><a xlink:title=" ">
<path fill="none" stroke="#63b8ff" d="M1230.91,-256.08C1226.08,-254.94 1221.19,-253.88 1216.5,-253 1081.91,-227.76 1045.51,-239.88 910.5,-217 901.55,-215.48 891.96,-213.53 883.03,-211.56"/>
<polygon fill="#63b8ff" stroke="#63b8ff" points="1230.12,-259.49 1240.67,-258.49 1231.8,-252.69 1230.12,-259.49"/>
</a>
</g>
</g>
<!-- Node30&#45;&gt;Node12 -->
<g id="edge31_Node000030_Node000012" class="edge">
<title>Node30&#45;&gt;Node12</title>
<g id="a_edge31_Node000030_Node000012"><a xlink:title=" ">
<path fill="none" stroke="#63b8ff" d="M1298.59,-187.36C1320.83,-174.76 1353.21,-156.42 1372.14,-145.7"/>
<polygon fill="#63b8ff" stroke="#63b8ff" points="1296.72,-184.39 1289.74,-192.37 1300.17,-190.49 1296.72,-184.39"/>
</a>
</g>
</g>
<!-- Node31 -->
<g id="Node000031" class="node">
<title>Node31</title>
<g id="a_Node000031"><a xlink:href="_output_8h.html" target="_top" xlink:title=" ">
<polygon fill="white" stroke="#666666" points="1302,-145.5 1195,-145.5 1195,-126.5 1302,-126.5 1302,-145.5"/>
<text text-anchor="middle" x="1248.5" y="-133.5" font-family="Helvetica,sans-Serif" font-size="10.00">Kit/Io/File/Output.h</text>
</a>
</g>
</g>
<!-- Node30&#45;&gt;Node31 -->
<g id="edge32_Node000030_Node000031" class="edge">
<title>Node30&#45;&gt;Node31</title>
<g id="a_edge32_Node000030_Node000031"><a xlink:title=" ">
<path fill="none" stroke="#63b8ff" d="M1267.11,-182.82C1262.21,-170.74 1255.98,-155.41 1252.12,-145.91"/>
<polygon fill="#63b8ff" stroke="#63b8ff" points="1263.99,-184.42 1270.99,-192.37 1270.47,-181.79 1263.99,-184.42"/>
</a>
</g>
</g>
<!-- Node33 -->
<g id="Node000033" class="node">
<title>Node33</title>
<g id="a_Node000033"><a xlink:href="_std_err_8h.html" target="_top" xlink:title=" ">
<polygon fill="white" stroke="#666666" points="1176.5,-145.5 1066.5,-145.5 1066.5,-126.5 1176.5,-126.5 1176.5,-145.5"/>
<text text-anchor="middle" x="1121.5" y="-133.5" font-family="Helvetica,sans-Serif" font-size="10.00">Kit/Io/Stdio/StdErr.h</text>
</a>
</g>
</g>
<!-- Node32&#45;&gt;Node33 -->
<g id="edge36_Node000032_Node000033" class="edge">
<title>Node32&#45;&gt;Node33</title>
<g id="a_edge36_Node000032_Node000033"><a xlink:title=" ">
<path fill="none" stroke="#63b8ff" d="M1121.5,-182.08C1121.5,-170.13 1121.5,-155.22 1121.5,-145.91"/>
<polygon fill="#63b8ff" stroke="#63b8ff" points="1118,-182.37 1121.5,-192.37 1125,-182.37 1118,-182.37"/>
</a>
</g>
</g>
<!-- Node34 -->
<g id="Node000034" class="node">
<title>Node34</title>
<g id="a_Node000034"><a xlink:href="_std_out_8h.html" target="_top" xlink:title=" ">
<polygon fill="white" stroke="#666666" points="1048,-145.5 933,-145.5 933,-126.5 1048,-126.5 1048,-145.5"/>
<text text-anchor="middle" x="990.5" y="-133.5" font-family="Helvetica,sans-Serif" font-size="10.00">Kit/Io/Stdio/StdOut.h</text>
</a>
</g>
</g>
<!-- Node32&#45;&gt;Node34 -->
<g id="edge37_Node000032_Node000034" class="edge">
<title>Node32&#45;&gt;Node34</title>
<g id="a_edge37_Node000032_Node000034"><a xlink:title=" ">
<path fill="none" stroke="#63b8ff" d="M1094.61,-187.86C1068.8,-175.25 1030.54,-156.56 1008.31,-145.7"/>
<polygon fill="#63b8ff" stroke="#63b8ff" points="1093.31,-191.12 1103.83,-192.37 1096.38,-184.83 1093.31,-191.12"/>
</a>
</g>
</g>
<!-- Node37 -->
<g id="Node000037" class="node">
<title>Node37</title>
<g id="a_Node000037"><a xlink:href="_framework_2_log_8h.html" target="_top" xlink:title="This file declares the public facing Logging interface for generating log entries.">
<polygon fill="white" stroke="#666666" points="936,-85 807,-85 807,-55 936,-55 936,-85"/>
<text text-anchor="start" x="815" y="-73" font-family="Helvetica,sans-Serif" font-size="10.00">Kit/Logging/Framework</text>
<text text-anchor="middle" x="871.5" y="-62" font-family="Helvetica,sans-Serif" font-size="10.00">/Log.h</text>
</a>
</g>
</g>
<!-- Node36&#45;&gt;Node37 -->
<g id="edge40_Node000036_Node000037" class="edge">
<title>Node36&#45;&gt;Node37</title>
<g id="a_edge40_Node000036_Node000037"><a xlink:title=" ">
<path fill="none" stroke="#63b8ff" d="M863.94,-185.05C872.13,-175.95 881.18,-163.82 885.5,-151 893.02,-128.69 884.77,-101.44 878.13,-85.19"/>
<polygon fill="#63b8ff" stroke="#63b8ff" points="861.21,-182.85 856.83,-192.5 866.27,-187.69 861.21,-182.85"/>
</a>
</g>
</g>
<!-- Node36&#45;&gt;Node39 -->
<g id="edge42_Node000036_Node000039" class="edge">
<title>Node36&#45;&gt;Node39</title>
<g id="a_edge42_Node000036_Node000039"><a xlink:title=" ">
<path fill="none" stroke="#63b8ff" d="M839.43,-183.18C833.93,-171.05 826.89,-155.51 822.54,-145.91"/>
<polygon fill="#63b8ff" stroke="#63b8ff" points="836.27,-184.7 843.59,-192.37 842.65,-181.82 836.27,-184.7"/>
</a>
</g>
</g>
<!-- Node38 -->
<g id="Node000038" class="node">
<title>Node38</title>
<g id="a_Node000038"><a xlink:href="_pkg_2_log_8h.html" target="_top" xlink:title="This file declares the Logging functions available to the KIT Logging Domain.">
<polygon fill="white" stroke="#666666" points="932.5,-19 810.5,-19 810.5,0 932.5,0 932.5,-19"/>
<text text-anchor="middle" x="871.5" y="-7" font-family="Helvetica,sans-Serif" font-size="10.00">Kit/Logging/Pkg/Log.h</text>
</a>
</g>
</g>
<!-- Node37&#45;&gt;Node38 -->
<g id="edge41_Node000037_Node000038" class="edge">
<title>Node37&#45;&gt;Node38</title>
<g id="a_edge41_Node000037_Node000038"><a xlink:title=" ">
<path fill="none" stroke="#63b8ff" d="M871.5,-44.75C871.5,-35.72 871.5,-26.03 871.5,-19.27"/>
<polygon fill="#63b8ff" stroke="#63b8ff" points="868,-44.84 871.5,-54.84 875,-44.84 868,-44.84"/>
</a>
</g>
</g>
<!-- Node43 -->
<g id="Node000043" class="node">
<title>Node43</title>
<g id="a_Node000043"><a xlink:href="_d_string_8h.html" target="_top" xlink:title=" ">
<polygon fill="white" stroke="#666666" points="734,-211.5 633,-211.5 633,-192.5 734,-192.5 734,-211.5"/>
<text text-anchor="middle" x="683.5" y="-199.5" font-family="Helvetica,sans-Serif" font-size="10.00">Kit/Text/DString.h</text>
</a>
</g>
</g>
<!-- Node42&#45;&gt;Node43 -->
<g id="edge48_Node000042_Node000043" class="edge">
<title>Node42&#45;&gt;Node43</title>
<g id="a_edge48_Node000042_Node000043"><a xlink:title=" ">
<path fill="none" stroke="#63b8ff" d="M679.98,-248.08C680.91,-236.13 682.08,-221.22 682.8,-211.91"/>
<polygon fill="#63b8ff" stroke="#63b8ff" points="676.46,-248.13 679.17,-258.37 683.44,-248.67 676.46,-248.13"/>
</a>
</g>
</g>
<!-- Node44 -->
<g id="Node000044" class="node">
<title>Node44</title>
<g id="a_Node000044"><a xlink:href="_f_string_base_8h.html" target="_top" xlink:title=" ">
<polygon fill="white" stroke="#666666" points="615,-211.5 492,-211.5 492,-192.5 615,-192.5 615,-211.5"/>
<text text-anchor="middle" x="553.5" y="-199.5" font-family="Helvetica,sans-Serif" font-size="10.00">Kit/Text/FStringBase.h</text>
</a>
</g>
</g>
<!-- Node42&#45;&gt;Node44 -->
<g id="edge50_Node000042_Node000044" class="edge">
<title>Node42&#45;&gt;Node44</title>
<g id="a_edge50_Node000042_Node000044"><a xlink:title=" ">
<path fill="none" stroke="#63b8ff" d="M652.51,-253.69C627.89,-241.09 591.61,-222.51 570.49,-211.7"/>
<polygon fill="#63b8ff" stroke="#63b8ff" points="651.15,-256.93 661.64,-258.37 654.34,-250.7 651.15,-256.93"/>
</a>
</g>
</g>
<!-- Node43&#45;&gt;Node7 -->
<g id="edge49_Node000043_Node000007" class="edge">
<title>Node43&#45;&gt;Node7</title>
<g id="a_edge49_Node000043_Node000007"><a xlink:title=" ">
<path fill="none" stroke="#63b8ff" d="M682.61,-182.08C682.05,-170.13 681.35,-155.22 680.92,-145.91"/>
<polygon fill="#63b8ff" stroke="#63b8ff" points="679.13,-182.54 683.1,-192.37 686.12,-182.22 679.13,-182.54"/>
</a>
</g>
</g>
<!-- Node45 -->
<g id="Node000045" class="node">
<title>Node45</title>
<g id="a_Node000045"><a xlink:href="_b_string_8h.html" target="_top" xlink:title=" ">
<polygon fill="white" stroke="#666666" points="600,-145.5 499,-145.5 499,-126.5 600,-126.5 600,-145.5"/>
<text text-anchor="middle" x="549.5" y="-133.5" font-family="Helvetica,sans-Serif" font-size="10.00">Kit/Text/BString.h</text>
</a>
</g>
</g>
<!-- Node44&#45;&gt;Node45 -->
<g id="edge51_Node000044_Node000045" class="edge">
<title>Node44&#45;&gt;Node45</title>
<g id="a_edge51_Node000044_Node000045"><a xlink:title=" ">
<path fill="none" stroke="#63b8ff" d="M552.32,-182.08C551.57,-170.13 550.64,-155.22 550.06,-145.91"/>
<polygon fill="#63b8ff" stroke="#63b8ff" points="548.84,-182.61 552.96,-192.37 555.83,-182.17 548.84,-182.61"/>
</a>
</g>
</g>
<!-- Node46 -->
<g id="Node000046" class="node">
<title>Node46</title>
<g id="a_Node000046"><a xlink:href="_f_string_8h.html" target="_top" xlink:title=" ">
<polygon fill="#fff0f0" stroke="red" points="442,-145.5 343,-145.5 343,-126.5 442,-126.5 442,-145.5"/>
<text text-anchor="middle" x="392.5" y="-133.5" font-family="Helvetica,sans-Serif" font-size="10.00">Kit/Text/FString.h</text>
</a>
</g>
</g>
<!-- Node44&#45;&gt;Node46 -->
<g id="edge53_Node000044_Node000046" class="edge">
<title>Node44&#45;&gt;Node46</title>
<g id="a_edge53_Node000044_Node000046"><a xlink:title=" ">
<path fill="none" stroke="#63b8ff" d="M522.08,-188.51C490.26,-175.86 441.89,-156.63 414.13,-145.6"/>
<polygon fill="#63b8ff" stroke="#63b8ff" points="521.2,-191.93 531.79,-192.37 523.79,-185.42 521.2,-191.93"/>
</a>
</g>
</g>
<!-- Node45&#45;&gt;Node37 -->
<g id="edge52_Node000045_Node000037" class="edge">
<title>Node45&#45;&gt;Node37</title>
<g id="a_edge52_Node000045_Node000037"><a xlink:title=" ">
<path fill="none" stroke="#63b8ff" d="M594.95,-124.19C599.86,-123.08 604.78,-122 609.5,-121 676.54,-106.79 753.64,-92.3 806.75,-82.6"/>
<polygon fill="#63b8ff" stroke="#63b8ff" points="593.95,-120.83 584.98,-126.47 595.51,-127.65 593.95,-120.83"/>
</a>
</g>
</g>
<!-- Node46&#45;&gt;Node8 -->
<g id="edge58_Node000046_Node000008" class="edge">
<title>Node46&#45;&gt;Node8</title>
<g id="a_edge58_Node000046_Node000008"><a xlink:title=" ">
<path fill="none" stroke="#63b8ff" d="M432.78,-123.64C477.5,-111.03 548.68,-90.97 589.01,-79.6"/>
<polygon fill="#63b8ff" stroke="#63b8ff" points="431.79,-120.29 423.11,-126.37 433.69,-127.02 431.79,-120.29"/>
</a>
</g>
</g>
<!-- Node47 -->
<g id="Node000047" class="node">
<title>Node47</title>
<g id="a_Node000047"><a xlink:href="_system_8h.html" target="_top" xlink:title=" ">
<polygon fill="#fff0f0" stroke="red" points="111,-79.5 0,-79.5 0,-60.5 111,-60.5 111,-79.5"/>
<text text-anchor="middle" x="55.5" y="-67.5" font-family="Helvetica,sans-Serif" font-size="10.00">Kit/Io/File/System.h</text>
</a>
</g>
</g>
<!-- Node46&#45;&gt;Node47 -->
<g id="edge54_Node000046_Node000047" class="edge">
<title>Node46&#45;&gt;Node47</title>
<g id="a_edge54_Node000046_Node000047"><a xlink:title=" ">
<path fill="none" stroke="#63b8ff" d="M348.21,-124.16C343.26,-123.04 338.28,-121.97 333.5,-121 238.97,-101.86 214.19,-103.31 119.5,-85 110.9,-83.34 101.69,-81.41 93,-79.52"/>
<polygon fill="#63b8ff" stroke="#63b8ff" points="347.74,-127.64 358.27,-126.47 349.31,-120.82 347.74,-127.64"/>
</a>
</g>
</g>
<!-- Node52 -->
<g id="Node000052" class="node">
<title>Node52</title>
<g id="a_Node000052"><a xlink:href="_socket_2_win32_2_fdio_8h.html" target="_top" xlink:title=" ">
<polygon fill="white" stroke="#666666" points="240,-85 129,-85 129,-55 240,-55 240,-85"/>
<text text-anchor="start" x="137" y="-73" font-family="Helvetica,sans-Serif" font-size="10.00">Kit/Io/Socket/Win32</text>
<text text-anchor="middle" x="184.5" y="-62" font-family="Helvetica,sans-Serif" font-size="10.00">/Fdio.h</text>
</a>
</g>
</g>
<!-- Node46&#45;&gt;Node52 -->
<g id="edge55_Node000046_Node000052" class="edge">
<title>Node46&#45;&gt;Node52</title>
<g id="a_edge55_Node000046_Node000052"><a xlink:title=" ">
<path fill="none" stroke="#63b8ff" d="M354.62,-123.35C319.67,-112.59 267.67,-96.59 230.38,-85.12"/>
<polygon fill="#63b8ff" stroke="#63b8ff" points="353.86,-126.77 364.45,-126.37 355.92,-120.08 353.86,-126.77"/>
</a>
</g>
</g>
<!-- Node53 -->
<g id="Node000053" class="node">
<title>Node53</title>
<g id="a_Node000053"><a xlink:href="_free_r_t_o_s_2_thread_8h.html" target="_top" xlink:title=" ">
<polygon fill="white" stroke="#666666" points="377,-85 258,-85 258,-55 377,-55 377,-85"/>
<text text-anchor="start" x="266" y="-73" font-family="Helvetica,sans-Serif" font-size="10.00">Kit/System/FreeRTOS</text>
<text text-anchor="middle" x="317.5" y="-62" font-family="Helvetica,sans-Serif" font-size="10.00">/Thread.h</text>
</a>
</g>
</g>
<!-- Node46&#45;&gt;Node53 -->
<g id="edge56_Node000046_Node000053" class="edge">
<title>Node46&#45;&gt;Node53</title>
<g id="a_edge56_Node000046_Node000053"><a xlink:title=" ">
<path fill="none" stroke="#63b8ff" d="M374.59,-119.71C362.28,-109.21 346.05,-95.36 334.04,-85.12"/>
<polygon fill="#63b8ff" stroke="#63b8ff" points="372.51,-122.54 382.39,-126.37 377.05,-117.22 372.51,-122.54"/>
</a>
</g>
</g>
<!-- Node54 -->
<g id="Node000054" class="node">
<title>Node54</title>
<g id="a_Node000054"><a xlink:href="_posix_2_thread_8h.html" target="_top" xlink:title=" ">
<polygon fill="white" stroke="#666666" points="540,-79.5 395,-79.5 395,-60.5 540,-60.5 540,-79.5"/>
<text text-anchor="middle" x="467.5" y="-67.5" font-family="Helvetica,sans-Serif" font-size="10.00">Kit/System/Posix/Thread.h</text>
</a>
</g>
</g>
<!-- Node46&#45;&gt;Node54 -->
<g id="edge57_Node000046_Node000054" class="edge">
<title>Node46&#45;&gt;Node54</title>
<g id="a_edge57_Node000046_Node000054"><a xlink:title=" ">
<path fill="none" stroke="#63b8ff" d="M410.45,-119.68C425.01,-107.26 445.02,-90.18 457.06,-79.91"/>
<polygon fill="#63b8ff" stroke="#63b8ff" points="407.95,-117.22 402.61,-126.37 412.49,-122.54 407.95,-117.22"/>
</a>
</g>
</g>
</g>
</svg>
