<?xml version="1.0" encoding="UTF-8" standalone="no"?>
<!DOCTYPE svg PUBLIC "-//W3C//DTD SVG 1.1//EN"
 "http://www.w3.org/Graphics/SVG/1.1/DTD/svg11.dtd">
<!-- Generated by graphviz version 2.43.0 (0)
 -->
<!-- Title: Kit/Container/Key.h Pages: 1 -->
<svg width="2243pt" height="434pt"
 viewBox="0.00 0.00 2242.50 434.00" xmlns="http://www.w3.org/2000/svg" xmlns:xlink="http://www.w3.org/1999/xlink">
<g id="graph0" class="graph" transform="scale(1 1) rotate(0) translate(4 430)">
<title>Kit/Container/Key.h</title>
<!-- Node1 -->
<g id="Node000001" class="node">
<title>Node1</title>
<g id="a_Node000001"><a xlink:title=" ">
<polygon fill="#999999" stroke="#666666" points="1133,-426 1024,-426 1024,-407 1133,-407 1133,-426"/>
<text text-anchor="middle" x="1078.5" y="-414" font-family="Helvetica,sans-Serif" font-size="10.00">Kit/Container/Key.h</text>
</a>
</g>
</g>
<!-- Node2 -->
<g id="Node000002" class="node">
<title>Node2</title>
<g id="a_Node000002"><a xlink:href="_keyed_item_8h.html" target="_top" xlink:title=" ">
<polygon fill="white" stroke="#666666" points="1082,-371 937,-371 937,-352 1082,-352 1082,-371"/>
<text text-anchor="middle" x="1009.5" y="-359" font-family="Helvetica,sans-Serif" font-size="10.00">Kit/Container/KeyedItem.h</text>
</a>
</g>
</g>
<!-- Node1&#45;&gt;Node2 -->
<g id="edge1_Node000001_Node000002" class="edge">
<title>Node1&#45;&gt;Node2</title>
<g id="a_edge1_Node000001_Node000002"><a xlink:title=" ">
<path fill="none" stroke="#63b8ff" d="M1059.46,-400.88C1047.04,-391.34 1031.26,-379.21 1020.79,-371.17"/>
<polygon fill="#63b8ff" stroke="#63b8ff" points="1057.35,-403.67 1067.41,-406.98 1061.62,-398.12 1057.35,-403.67"/>
</a>
</g>
</g>
<!-- Node9 -->
<g id="Node000009" class="node">
<title>Node9</title>
<g id="a_Node000009"><a xlink:href="_i_string_8h.html" target="_top" xlink:title=" ">
<polygon fill="white" stroke="#666666" points="1404,-371 1307,-371 1307,-352 1404,-352 1404,-371"/>
<text text-anchor="middle" x="1355.5" y="-359" font-family="Helvetica,sans-Serif" font-size="10.00">Kit/Text/IString.h</text>
</a>
</g>
</g>
<!-- Node1&#45;&gt;Node9 -->
<g id="edge8_Node000001_Node000009" class="edge">
<title>Node1&#45;&gt;Node9</title>
<g id="a_edge8_Node000001_Node000009"><a xlink:title=" ">
<path fill="none" stroke="#63b8ff" d="M1133.04,-405.07C1184.97,-395.13 1262.19,-380.35 1310.65,-371.08"/>
<polygon fill="#63b8ff" stroke="#63b8ff" points="1132.17,-401.67 1123,-406.98 1133.48,-408.54 1132.17,-401.67"/>
</a>
</g>
</g>
<!-- Node3 -->
<g id="Node000003" class="node">
<title>Node3</title>
<g id="a_Node000003"><a xlink:href="_map_item_8h.html" target="_top" xlink:title=" ">
<polygon fill="white" stroke="#666666" points="684.5,-316 548.5,-316 548.5,-297 684.5,-297 684.5,-316"/>
<text text-anchor="middle" x="616.5" y="-304" font-family="Helvetica,sans-Serif" font-size="10.00">Kit/Container/MapItem.h</text>
</a>
</g>
</g>
<!-- Node2&#45;&gt;Node3 -->
<g id="edge2_Node000002_Node000003" class="edge">
<title>Node2&#45;&gt;Node3</title>
<g id="a_edge2_Node000002_Node000003"><a xlink:title=" ">
<path fill="none" stroke="#63b8ff" d="M936.21,-350.62C862.44,-340.67 749.82,-325.48 679.81,-316.04"/>
<polygon fill="#63b8ff" stroke="#63b8ff" points="935.98,-354.12 946.36,-351.98 936.92,-347.18 935.98,-354.12"/>
</a>
</g>
</g>
<!-- Node4 -->
<g id="Node000004" class="node">
<title>Node4</title>
<g id="a_Node000004"><a xlink:href="_avl_tree___8h.html" target="_top" xlink:title=" ">
<polygon fill="white" stroke="#666666" points="416,-261 283,-261 283,-242 416,-242 416,-261"/>
<text text-anchor="middle" x="349.5" y="-249" font-family="Helvetica,sans-Serif" font-size="10.00">Kit/Container/AvlTree_.h</text>
</a>
</g>
</g>
<!-- Node3&#45;&gt;Node4 -->
<g id="edge3_Node000003_Node000004" class="edge">
<title>Node3&#45;&gt;Node4</title>
<g id="a_edge3_Node000003_Node000004"><a xlink:title=" ">
<path fill="none" stroke="#63b8ff" d="M563.62,-295C513.57,-285.07 439.34,-270.33 392.73,-261.08"/>
<polygon fill="#63b8ff" stroke="#63b8ff" points="563.11,-298.47 573.6,-296.98 564.47,-291.6 563.11,-298.47"/>
</a>
</g>
</g>
<!-- Node6 -->
<g id="Node000006" class="node">
<title>Node6</title>
<g id="a_Node000006"><a xlink:href="_string_item_8h.html" target="_top" xlink:title=" ">
<polygon fill="white" stroke="#666666" points="810.5,-261 694.5,-261 694.5,-242 810.5,-242 810.5,-261"/>
<text text-anchor="middle" x="752.5" y="-249" font-family="Helvetica,sans-Serif" font-size="10.00">Kit/Text/StringItem.h</text>
</a>
</g>
</g>
<!-- Node3&#45;&gt;Node6 -->
<g id="edge5_Node000003_Node000006" class="edge">
<title>Node3&#45;&gt;Node6</title>
<g id="a_edge5_Node000003_Node000006"><a xlink:title=" ">
<path fill="none" stroke="#63b8ff" d="M647.83,-293.29C673.04,-283.47 707.83,-269.91 730.25,-261.17"/>
<polygon fill="#63b8ff" stroke="#63b8ff" points="646.4,-290.09 638.35,-296.98 648.94,-296.61 646.4,-290.09"/>
</a>
</g>
</g>
<!-- Node5 -->
<g id="Node000005" class="node">
<title>Node5</title>
<g id="a_Node000005"><a xlink:href="_map_8h.html" target="_top" xlink:title=" ">
<polygon fill="white" stroke="#666666" points="406,-200.5 293,-200.5 293,-181.5 406,-181.5 406,-200.5"/>
<text text-anchor="middle" x="349.5" y="-188.5" font-family="Helvetica,sans-Serif" font-size="10.00">Kit/Container/Map.h</text>
</a>
</g>
</g>
<!-- Node4&#45;&gt;Node5 -->
<g id="edge4_Node000004_Node000005" class="edge">
<title>Node4&#45;&gt;Node5</title>
<g id="a_edge4_Node000004_Node000005"><a xlink:title=" ">
<path fill="none" stroke="#63b8ff" d="M349.5,-231.66C349.5,-221.24 349.5,-208.8 349.5,-200.67"/>
<polygon fill="#63b8ff" stroke="#63b8ff" points="346,-231.87 349.5,-241.87 353,-231.87 346,-231.87"/>
</a>
</g>
</g>
<!-- Node7 -->
<g id="Node000007" class="node">
<title>Node7</title>
<g id="a_Node000007"><a xlink:href="_d_string_item_8h.html" target="_top" xlink:title=" ">
<polygon fill="white" stroke="#666666" points="714.5,-200.5 590.5,-200.5 590.5,-181.5 714.5,-181.5 714.5,-200.5"/>
<text text-anchor="middle" x="652.5" y="-188.5" font-family="Helvetica,sans-Serif" font-size="10.00">Kit/Text/DStringItem.h</text>
</a>
</g>
</g>
<!-- Node6&#45;&gt;Node7 -->
<g id="edge6_Node000006_Node000007" class="edge">
<title>Node6&#45;&gt;Node7</title>
<g id="a_edge6_Node000006_Node000007"><a xlink:title=" ">
<path fill="none" stroke="#63b8ff" d="M729.03,-236.77C709.94,-225.6 683.59,-210.19 667.32,-200.67"/>
<polygon fill="#63b8ff" stroke="#63b8ff" points="727.35,-239.84 737.74,-241.87 730.88,-233.8 727.35,-239.84"/>
</a>
</g>
</g>
<!-- Node8 -->
<g id="Node000008" class="node">
<title>Node8</title>
<g id="a_Node000008"><a xlink:href="_f_string_item_8h.html" target="_top" xlink:title=" ">
<polygon fill="white" stroke="#666666" points="847.5,-134.5 725.5,-134.5 725.5,-115.5 847.5,-115.5 847.5,-134.5"/>
<text text-anchor="middle" x="786.5" y="-122.5" font-family="Helvetica,sans-Serif" font-size="10.00">Kit/Text/FStringItem.h</text>
</a>
</g>
</g>
<!-- Node6&#45;&gt;Node8 -->
<g id="edge7_Node000006_Node000008" class="edge">
<title>Node6&#45;&gt;Node8</title>
<g id="a_edge7_Node000006_Node000008"><a xlink:title=" ">
<path fill="none" stroke="#63b8ff" d="M757.52,-232.1C764.98,-204.81 778.67,-154.67 784.15,-134.62"/>
<polygon fill="#63b8ff" stroke="#63b8ff" points="754.1,-231.37 754.84,-241.94 760.85,-233.22 754.1,-231.37"/>
</a>
</g>
</g>
<!-- Node9&#45;&gt;Node6 -->
<g id="edge59_Node000009_Node000006" class="edge">
<title>Node9&#45;&gt;Node6</title>
<g id="a_edge59_Node000009_Node000006"><a xlink:title=" ">
<path fill="none" stroke="#63b8ff" d="M1296.41,-350.62C1243.68,-341.75 1164.4,-328.27 1095.5,-316 988.48,-296.94 862.9,-273.39 797.41,-261.02"/>
<polygon fill="#63b8ff" stroke="#63b8ff" points="1296.15,-354.13 1306.59,-352.33 1297.31,-347.22 1296.15,-354.13"/>
</a>
</g>
</g>
<!-- Node10 -->
<g id="Node000010" class="node">
<title>Node10</title>
<g id="a_Node000010"><a xlink:href="_i_input_8h.html" target="_top" xlink:title=" ">
<polygon fill="white" stroke="#666666" points="1768.5,-316 1686.5,-316 1686.5,-297 1768.5,-297 1768.5,-316"/>
<text text-anchor="middle" x="1727.5" y="-304" font-family="Helvetica,sans-Serif" font-size="10.00">Kit/Io/IInput.h</text>
</a>
</g>
</g>
<!-- Node9&#45;&gt;Node10 -->
<g id="edge9_Node000009_Node000010" class="edge">
<title>Node9&#45;&gt;Node10</title>
<g id="a_edge9_Node000009_Node000010"><a xlink:title=" ">
<path fill="none" stroke="#63b8ff" d="M1414.47,-352.1C1490.35,-341.29 1620.23,-322.78 1686.3,-313.37"/>
<polygon fill="#63b8ff" stroke="#63b8ff" points="1413.54,-348.7 1404.13,-353.57 1414.53,-355.63 1413.54,-348.7"/>
</a>
</g>
</g>
<!-- Node26 -->
<g id="Node000026" class="node">
<title>Node26</title>
<g id="a_Node000026"><a xlink:href="_i_line_reader_8h.html" target="_top" xlink:title=" ">
<polygon fill="white" stroke="#666666" points="2126,-316 2015,-316 2015,-297 2126,-297 2126,-316"/>
<text text-anchor="middle" x="2070.5" y="-304" font-family="Helvetica,sans-Serif" font-size="10.00">Kit/Io/ILineReader.h</text>
</a>
</g>
</g>
<!-- Node9&#45;&gt;Node26 -->
<g id="edge25_Node000009_Node000026" class="edge">
<title>Node9&#45;&gt;Node26</title>
<g id="a_edge25_Node000009_Node000026"><a xlink:title=" ">
<path fill="none" stroke="#63b8ff" d="M1414.26,-356.14C1549.71,-346.1 1882.39,-321.44 2014.81,-311.63"/>
<polygon fill="#63b8ff" stroke="#63b8ff" points="1413.8,-352.67 1404.08,-356.9 1414.31,-359.65 1413.8,-352.67"/>
</a>
</g>
</g>
<!-- Node27 -->
<g id="Node000027" class="node">
<title>Node27</title>
<g id="a_Node000027"><a xlink:href="_i_line_writer_8h.html" target="_top" xlink:title=" ">
<polygon fill="white" stroke="#666666" points="1212,-316 1105,-316 1105,-297 1212,-297 1212,-316"/>
<text text-anchor="middle" x="1158.5" y="-304" font-family="Helvetica,sans-Serif" font-size="10.00">Kit/Io/ILineWriter.h</text>
</a>
</g>
</g>
<!-- Node9&#45;&gt;Node27 -->
<g id="edge27_Node000009_Node000027" class="edge">
<title>Node9&#45;&gt;Node27</title>
<g id="a_edge27_Node000009_Node000027"><a xlink:title=" ">
<path fill="none" stroke="#63b8ff" d="M1313.91,-349.31C1277.05,-339.39 1224,-325.12 1190.4,-316.08"/>
<polygon fill="#63b8ff" stroke="#63b8ff" points="1313.28,-352.77 1323.85,-351.98 1315.1,-346.01 1313.28,-352.77"/>
</a>
</g>
</g>
<!-- Node29 -->
<g id="Node000029" class="node">
<title>Node29</title>
<g id="a_Node000029"><a xlink:href="_i_output_8h.html" target="_top" xlink:title=" ">
<polygon fill="white" stroke="#666666" points="1350.5,-316 1260.5,-316 1260.5,-297 1350.5,-297 1350.5,-316"/>
<text text-anchor="middle" x="1305.5" y="-304" font-family="Helvetica,sans-Serif" font-size="10.00">Kit/Io/IOutput.h</text>
</a>
</g>
</g>
<!-- Node9&#45;&gt;Node29 -->
<g id="edge29_Node000009_Node000029" class="edge">
<title>Node9&#45;&gt;Node29</title>
<g id="a_edge29_Node000009_Node000029"><a xlink:title=" ">
<path fill="none" stroke="#63b8ff" d="M1340.16,-344.24C1331.4,-334.95 1320.76,-323.68 1313.6,-316.09"/>
<polygon fill="#63b8ff" stroke="#63b8ff" points="1337.84,-346.88 1347.24,-351.75 1342.93,-342.07 1337.84,-346.88"/>
</a>
</g>
</g>
<!-- Node36 -->
<g id="Node000036" class="node">
<title>Node36</title>
<g id="a_Node000036"><a xlink:href="_trace_8h.html" target="_top" xlink:title="This file provides an interface for a &#39;printf&#39; tracing mechanism.">
<polygon fill="white" stroke="#666666" points="1486,-261 1379,-261 1379,-242 1486,-242 1486,-261"/>
<text text-anchor="middle" x="1432.5" y="-249" font-family="Helvetica,sans-Serif" font-size="10.00">Kit/System/Trace.h</text>
</a>
</g>
</g>
<!-- Node9&#45;&gt;Node36 -->
<g id="edge42_Node000009_Node000036" class="edge">
<title>Node9&#45;&gt;Node36</title>
<g id="a_edge42_Node000009_Node000036"><a xlink:title=" ">
<path fill="none" stroke="#63b8ff" d="M1367.7,-343.38C1384.37,-320.01 1413.63,-278.97 1426.33,-261.16"/>
<polygon fill="#63b8ff" stroke="#63b8ff" points="1364.76,-341.49 1361.8,-351.66 1370.46,-345.55 1364.76,-341.49"/>
</a>
</g>
</g>
<!-- Node37 -->
<g id="Node000037" class="node">
<title>Node37</title>
<g id="a_Node000037"><a xlink:href="_private_8h.html" target="_top" xlink:title="This file contains a collection of classes, interfaces, etc.">
<polygon fill="white" stroke="#666666" points="1504.5,-200.5 1388.5,-200.5 1388.5,-181.5 1504.5,-181.5 1504.5,-200.5"/>
<text text-anchor="middle" x="1446.5" y="-188.5" font-family="Helvetica,sans-Serif" font-size="10.00">Kit/System/Private.h</text>
</a>
</g>
</g>
<!-- Node9&#45;&gt;Node37 -->
<g id="edge41_Node000009_Node000037" class="edge">
<title>Node9&#45;&gt;Node37</title>
<g id="a_edge41_Node000009_Node000037"><a xlink:title=" ">
<path fill="none" stroke="#63b8ff" d="M1388.45,-347.85C1422.31,-332.85 1473.16,-304.29 1495.5,-261 1507.56,-237.63 1478.8,-213.21 1460.41,-200.63"/>
<polygon fill="#63b8ff" stroke="#63b8ff" points="1386.78,-344.75 1378.96,-351.9 1389.53,-351.19 1386.78,-344.75"/>
</a>
</g>
</g>
<!-- Node38 -->
<g id="Node000038" class="node">
<title>Node38</title>
<g id="a_Node000038"><a xlink:href="_format_8h.html" target="_top" xlink:title=" ">
<polygon fill="white" stroke="#666666" points="1886.5,-316 1786.5,-316 1786.5,-297 1886.5,-297 1886.5,-316"/>
<text text-anchor="middle" x="1836.5" y="-304" font-family="Helvetica,sans-Serif" font-size="10.00">Kit/Text/Format.h</text>
</a>
</g>
</g>
<!-- Node9&#45;&gt;Node38 -->
<g id="edge43_Node000009_Node000038" class="edge">
<title>Node9&#45;&gt;Node38</title>
<g id="a_edge43_Node000009_Node000038"><a xlink:title=" ">
<path fill="none" stroke="#63b8ff" d="M1414.39,-355C1496.02,-347.22 1648.16,-332.13 1777.5,-316 1780.38,-315.64 1783.33,-315.26 1786.31,-314.86"/>
<polygon fill="#63b8ff" stroke="#63b8ff" points="1413.93,-351.53 1404.3,-355.96 1414.59,-358.5 1413.93,-351.53"/>
</a>
</g>
</g>
<!-- Node39 -->
<g id="Node000039" class="node">
<title>Node39</title>
<g id="a_Node000039"><a xlink:href="_string_base_8h.html" target="_top" xlink:title=" ">
<polygon fill="white" stroke="#666666" points="820.5,-316 702.5,-316 702.5,-297 820.5,-297 820.5,-316"/>
<text text-anchor="middle" x="761.5" y="-304" font-family="Helvetica,sans-Serif" font-size="10.00">Kit/Text/StringBase.h</text>
</a>
</g>
</g>
<!-- Node9&#45;&gt;Node39 -->
<g id="edge44_Node000009_Node000039" class="edge">
<title>Node9&#45;&gt;Node39</title>
<g id="a_edge44_Node000009_Node000039"><a xlink:title=" ">
<path fill="none" stroke="#63b8ff" d="M1296.65,-355.25C1183.06,-345.11 934.72,-322.96 820.78,-312.79"/>
<polygon fill="#63b8ff" stroke="#63b8ff" points="1296.62,-358.76 1306.89,-356.16 1297.24,-351.79 1296.62,-358.76"/>
</a>
</g>
</g>
<!-- Node11 -->
<g id="Node000011" class="node">
<title>Node11</title>
<g id="a_Node000011"><a xlink:href="_file_2_i_input_8h.html" target="_top" xlink:title=" ">
<polygon fill="white" stroke="#666666" points="1778.5,-261 1676.5,-261 1676.5,-242 1778.5,-242 1778.5,-261"/>
<text text-anchor="middle" x="1727.5" y="-249" font-family="Helvetica,sans-Serif" font-size="10.00">Kit/Io/File/IInput.h</text>
</a>
</g>
</g>
<!-- Node10&#45;&gt;Node11 -->
<g id="edge10_Node000010_Node000011" class="edge">
<title>Node10&#45;&gt;Node11</title>
<g id="a_edge10_Node000010_Node000011"><a xlink:title=" ">
<path fill="none" stroke="#63b8ff" d="M1727.5,-286.66C1727.5,-277.93 1727.5,-267.99 1727.5,-261.09"/>
<polygon fill="#63b8ff" stroke="#63b8ff" points="1724,-286.75 1727.5,-296.75 1731,-286.75 1724,-286.75"/>
</a>
</g>
</g>
<!-- Node16 -->
<g id="Node000016" class="node">
<title>Node16</title>
<g id="a_Node000016"><a xlink:href="_i_input_output_8h.html" target="_top" xlink:title=" ">
<polygon fill="white" stroke="#666666" points="1658,-261 1543,-261 1543,-242 1658,-242 1658,-261"/>
<text text-anchor="middle" x="1600.5" y="-249" font-family="Helvetica,sans-Serif" font-size="10.00">Kit/Io/IInputOutput.h</text>
</a>
</g>
</g>
<!-- Node10&#45;&gt;Node16 -->
<g id="edge15_Node000010_Node000016" class="edge">
<title>Node10&#45;&gt;Node16</title>
<g id="a_edge15_Node000010_Node000016"><a xlink:title=" ">
<path fill="none" stroke="#63b8ff" d="M1697.62,-293.03C1674.13,-283.23 1642.03,-269.83 1621.28,-261.17"/>
<polygon fill="#63b8ff" stroke="#63b8ff" points="1696.52,-296.36 1707.1,-296.98 1699.21,-289.9 1696.52,-296.36"/>
</a>
</g>
</g>
<!-- Node22 -->
<g id="Node000022" class="node">
<title>Node22</title>
<g id="a_Node000022"><a xlink:href="_line_reader_8h.html" target="_top" xlink:title=" ">
<polygon fill="white" stroke="#666666" points="2234.5,-261 2126.5,-261 2126.5,-242 2234.5,-242 2234.5,-261"/>
<text text-anchor="middle" x="2180.5" y="-249" font-family="Helvetica,sans-Serif" font-size="10.00">Kit/Io/LineReader.h</text>
</a>
</g>
</g>
<!-- Node10&#45;&gt;Node22 -->
<g id="edge21_Node000010_Node000022" class="edge">
<title>Node10&#45;&gt;Node22</title>
<g id="a_edge21_Node000010_Node000022"><a xlink:title=" ">
<path fill="none" stroke="#63b8ff" d="M1778.78,-296.9C1929.74,-276.37 1969.87,-278.77 2117.5,-261 2120.35,-260.66 2123.27,-260.3 2126.22,-259.92"/>
<polygon fill="#63b8ff" stroke="#63b8ff" points="1778.1,-293.46 1768.67,-298.29 1779.05,-300.4 1778.1,-293.46"/>
</a>
</g>
</g>
<!-- Node23 -->
<g id="Node000023" class="node">
<title>Node23</title>
<g id="a_Node000023"><a xlink:href="_input_delegate_8h.html" target="_top" xlink:title=" ">
<polygon fill="white" stroke="#666666" points="1948,-261 1797,-261 1797,-242 1948,-242 1948,-261"/>
<text text-anchor="middle" x="1872.5" y="-249" font-family="Helvetica,sans-Serif" font-size="10.00">Kit/Io/Stdio/InputDelegate.h</text>
</a>
</g>
</g>
<!-- Node10&#45;&gt;Node23 -->
<g id="edge22_Node000010_Node000023" class="edge">
<title>Node10&#45;&gt;Node23</title>
<g id="a_edge22_Node000010_Node000023"><a xlink:title=" ">
<path fill="none" stroke="#63b8ff" d="M1760.19,-293.55C1787.12,-283.71 1824.66,-269.98 1848.78,-261.17"/>
<polygon fill="#63b8ff" stroke="#63b8ff" points="1758.99,-290.26 1750.8,-296.98 1761.39,-296.84 1758.99,-290.26"/>
</a>
</g>
</g>
<!-- Node25 -->
<g id="Node000025" class="node">
<title>Node25</title>
<g id="a_Node000025"><a xlink:href="helpers_8h.html" target="_top" xlink:title="This file defines helper functions/interface for writing unit tests.">
<polygon fill="white" stroke="#666666" points="2108.5,-261 1966.5,-261 1966.5,-242 2108.5,-242 2108.5,-261"/>
<text text-anchor="middle" x="2037.5" y="-249" font-family="Helvetica,sans-Serif" font-size="10.00">Kit/_testsupport/helpers.h</text>
</a>
</g>
</g>
<!-- Node10&#45;&gt;Node25 -->
<g id="edge24_Node000010_Node000025" class="edge">
<title>Node10&#45;&gt;Node25</title>
<g id="a_edge24_Node000010_Node000025"><a xlink:title=" ">
<path fill="none" stroke="#63b8ff" d="M1778.7,-296.75C1836.63,-286.84 1930.35,-270.82 1987.7,-261.01"/>
<polygon fill="#63b8ff" stroke="#63b8ff" points="1777.93,-293.33 1768.67,-298.46 1779.11,-300.23 1777.93,-293.33"/>
</a>
</g>
</g>
<!-- Node12 -->
<g id="Node000012" class="node">
<title>Node12</title>
<g id="a_Node000012"><a xlink:href="_file_2_i_input_output_8h.html" target="_top" xlink:title=" ">
<polygon fill="white" stroke="#666666" points="1370,-200.5 1235,-200.5 1235,-181.5 1370,-181.5 1370,-200.5"/>
<text text-anchor="middle" x="1302.5" y="-188.5" font-family="Helvetica,sans-Serif" font-size="10.00">Kit/Io/File/IInputOutput.h</text>
</a>
</g>
</g>
<!-- Node11&#45;&gt;Node12 -->
<g id="edge11_Node000011_Node000012" class="edge">
<title>Node11&#45;&gt;Node12</title>
<g id="a_edge11_Node000011_Node000012"><a xlink:title=" ">
<path fill="none" stroke="#63b8ff" d="M1666.22,-241.85C1537.92,-224.97 1503.77,-225.05 1379.5,-206 1369.02,-204.39 1357.78,-202.47 1347.22,-200.56"/>
<polygon fill="#63b8ff" stroke="#63b8ff" points="1666.07,-245.36 1676.44,-243.21 1666.99,-238.43 1666.07,-245.36"/>
</a>
</g>
</g>
<!-- Node15 -->
<g id="Node000015" class="node">
<title>Node15</title>
<g id="a_Node000015"><a xlink:href="_input_8h.html" target="_top" xlink:title=" ">
<polygon fill="white" stroke="#666666" points="2024,-200.5 1925,-200.5 1925,-181.5 2024,-181.5 2024,-200.5"/>
<text text-anchor="middle" x="1974.5" y="-188.5" font-family="Helvetica,sans-Serif" font-size="10.00">Kit/Io/File/Input.h</text>
</a>
</g>
</g>
<!-- Node11&#45;&gt;Node15 -->
<g id="edge14_Node000011_Node000015" class="edge">
<title>Node11&#45;&gt;Node15</title>
<g id="a_edge14_Node000011_Node000015"><a xlink:title=" ">
<path fill="none" stroke="#63b8ff" d="M1773.31,-239.66C1811.38,-230.66 1866.97,-217.5 1915.5,-206 1922.98,-204.23 1930.99,-202.33 1938.62,-200.52"/>
<polygon fill="#63b8ff" stroke="#63b8ff" points="1772.47,-236.27 1763.54,-241.97 1774.08,-243.08 1772.47,-236.27"/>
</a>
</g>
</g>
<!-- Node13 -->
<g id="Node000013" class="node">
<title>Node13</title>
<g id="a_Node000013"><a xlink:href="_file_2_input_output_8h.html" target="_top" xlink:title=" ">
<polygon fill="white" stroke="#666666" points="1303.5,-134.5 1171.5,-134.5 1171.5,-115.5 1303.5,-115.5 1303.5,-134.5"/>
<text text-anchor="middle" x="1237.5" y="-122.5" font-family="Helvetica,sans-Serif" font-size="10.00">Kit/Io/File/InputOutput.h</text>
</a>
</g>
</g>
<!-- Node12&#45;&gt;Node13 -->
<g id="edge12_Node000012_Node000013" class="edge">
<title>Node12&#45;&gt;Node13</title>
<g id="a_edge12_Node000012_Node000013"><a xlink:title=" ">
<path fill="none" stroke="#63b8ff" d="M1286.58,-174.33C1274,-161.94 1256.88,-145.09 1246.54,-134.91"/>
<polygon fill="#63b8ff" stroke="#63b8ff" points="1284.15,-176.85 1293.73,-181.37 1289.06,-171.86 1284.15,-176.85"/>
</a>
</g>
</g>
<!-- Node14 -->
<g id="Node000014" class="node">
<title>Node14</title>
<g id="a_Node000014"><a xlink:href="_file_2_null_8h.html" target="_top" xlink:title=" ">
<polygon fill="white" stroke="#666666" points="1415.5,-134.5 1321.5,-134.5 1321.5,-115.5 1415.5,-115.5 1415.5,-134.5"/>
<text text-anchor="middle" x="1368.5" y="-122.5" font-family="Helvetica,sans-Serif" font-size="10.00">Kit/Io/File/Null.h</text>
</a>
</g>
</g>
<!-- Node12&#45;&gt;Node14 -->
<g id="edge13_Node000012_Node000014" class="edge">
<title>Node12&#45;&gt;Node14</title>
<g id="a_edge13_Node000012_Node000014"><a xlink:title=" ">
<path fill="none" stroke="#63b8ff" d="M1318.66,-174.33C1331.44,-161.94 1348.82,-145.09 1359.32,-134.91"/>
<polygon fill="#63b8ff" stroke="#63b8ff" points="1316.14,-171.89 1311.4,-181.37 1321.02,-176.92 1316.14,-171.89"/>
</a>
</g>
</g>
<!-- Node17 -->
<g id="Node000017" class="node">
<title>Node17</title>
<g id="a_Node000017"><a xlink:href="_null_8h.html" target="_top" xlink:title=" ">
<polygon fill="white" stroke="#666666" points="1738.5,-200.5 1664.5,-200.5 1664.5,-181.5 1738.5,-181.5 1738.5,-200.5"/>
<text text-anchor="middle" x="1701.5" y="-188.5" font-family="Helvetica,sans-Serif" font-size="10.00">Kit/Io/Null.h</text>
</a>
</g>
</g>
<!-- Node16&#45;&gt;Node17 -->
<g id="edge16_Node000016_Node000017" class="edge">
<title>Node16&#45;&gt;Node17</title>
<g id="a_edge16_Node000016_Node000017"><a xlink:title=" ">
<path fill="none" stroke="#63b8ff" d="M1624.2,-236.77C1643.48,-225.6 1670.1,-210.19 1686.54,-200.67"/>
<polygon fill="#63b8ff" stroke="#63b8ff" points="1622.3,-233.83 1615.4,-241.87 1625.81,-239.88 1622.3,-233.83"/>
</a>
</g>
</g>
<!-- Node18 -->
<g id="Node000018" class="node">
<title>Node18</title>
<g id="a_Node000018"><a xlink:href="_serial_2_s_t_2_m32_f4_2_input_output_8h.html" target="_top" xlink:title=" ">
<polygon fill="white" stroke="#666666" points="1646.5,-206 1522.5,-206 1522.5,-176 1646.5,-176 1646.5,-206"/>
<text text-anchor="start" x="1530.5" y="-194" font-family="Helvetica,sans-Serif" font-size="10.00">Kit/Io/Serial/ST/M32F4</text>
<text text-anchor="middle" x="1584.5" y="-183" font-family="Helvetica,sans-Serif" font-size="10.00">/InputOutput.h</text>
</a>
</g>
</g>
<!-- Node16&#45;&gt;Node18 -->
<g id="edge17_Node000016_Node000018" class="edge">
<title>Node16&#45;&gt;Node18</title>
<g id="a_edge17_Node000016_Node000018"><a xlink:title=" ">
<path fill="none" stroke="#63b8ff" d="M1595.5,-232.22C1593.2,-223.79 1590.5,-213.95 1588.36,-206.11"/>
<polygon fill="#63b8ff" stroke="#63b8ff" points="1592.12,-233.15 1598.14,-241.87 1598.88,-231.3 1592.12,-233.15"/>
</a>
</g>
</g>
<!-- Node20 -->
<g id="Node000020" class="node">
<title>Node20</title>
<g id="a_Node000020"><a xlink:href="_socket_2_i_input_output_8h.html" target="_top" xlink:title=" ">
<polygon fill="white" stroke="#666666" points="1906.5,-200.5 1756.5,-200.5 1756.5,-181.5 1906.5,-181.5 1906.5,-200.5"/>
<text text-anchor="middle" x="1831.5" y="-188.5" font-family="Helvetica,sans-Serif" font-size="10.00">Kit/Io/Socket/IInputOutput.h</text>
</a>
</g>
</g>
<!-- Node16&#45;&gt;Node20 -->
<g id="edge19_Node000016_Node000020" class="edge">
<title>Node16&#45;&gt;Node20</title>
<g id="a_edge19_Node000016_Node000020"><a xlink:title=" ">
<path fill="none" stroke="#63b8ff" d="M1643.79,-239.54C1688.44,-228.23 1757.13,-210.83 1797.87,-200.52"/>
<polygon fill="#63b8ff" stroke="#63b8ff" points="1642.92,-236.15 1634.09,-241.99 1644.64,-242.93 1642.92,-236.15"/>
</a>
</g>
</g>
<!-- Node19 -->
<g id="Node000019" class="node">
<title>Node19</title>
<g id="a_Node000019"><a xlink:href="stdio_8h.html" target="_top" xlink:title="By default the BSP provides a KIT IO Stream for application&#39; console.">
<polygon fill="white" stroke="#666666" points="1660.5,-140 1508.5,-140 1508.5,-110 1660.5,-110 1660.5,-140"/>
<text text-anchor="start" x="1516.5" y="-128" font-family="Helvetica,sans-Serif" font-size="10.00">Kit/Bsp/ST/NUCLEO&#45;F413ZH</text>
<text text-anchor="middle" x="1584.5" y="-117" font-family="Helvetica,sans-Serif" font-size="10.00">/stdio.h</text>
</a>
</g>
</g>
<!-- Node18&#45;&gt;Node19 -->
<g id="edge18_Node000018_Node000019" class="edge">
<title>Node18&#45;&gt;Node19</title>
<g id="a_edge18_Node000018_Node000019"><a xlink:title=" ">
<path fill="none" stroke="#63b8ff" d="M1584.5,-165.54C1584.5,-156.96 1584.5,-147.61 1584.5,-140.16"/>
<polygon fill="#63b8ff" stroke="#63b8ff" points="1581,-165.8 1584.5,-175.8 1588,-165.8 1581,-165.8"/>
</a>
</g>
</g>
<!-- Node21 -->
<g id="Node000021" class="node">
<title>Node21</title>
<g id="a_Node000021"><a xlink:href="_socket_2_input_output_8h.html" target="_top" xlink:title=" ">
<polygon fill="white" stroke="#666666" points="1905,-134.5 1758,-134.5 1758,-115.5 1905,-115.5 1905,-134.5"/>
<text text-anchor="middle" x="1831.5" y="-122.5" font-family="Helvetica,sans-Serif" font-size="10.00">Kit/Io/Socket/InputOutput.h</text>
</a>
</g>
</g>
<!-- Node20&#45;&gt;Node21 -->
<g id="edge20_Node000020_Node000021" class="edge">
<title>Node20&#45;&gt;Node21</title>
<g id="a_edge20_Node000020_Node000021"><a xlink:title=" ">
<path fill="none" stroke="#63b8ff" d="M1831.5,-171.08C1831.5,-159.13 1831.5,-144.22 1831.5,-134.91"/>
<polygon fill="#63b8ff" stroke="#63b8ff" points="1828,-171.37 1831.5,-181.37 1835,-171.37 1828,-171.37"/>
</a>
</g>
</g>
<!-- Node24 -->
<g id="Node000024" class="node">
<title>Node24</title>
<g id="a_Node000024"><a xlink:href="_std_in_8h.html" target="_top" xlink:title=" ">
<polygon fill="white" stroke="#666666" points="2149,-200.5 2042,-200.5 2042,-181.5 2149,-181.5 2149,-200.5"/>
<text text-anchor="middle" x="2095.5" y="-188.5" font-family="Helvetica,sans-Serif" font-size="10.00">Kit/Io/Stdio/StdIn.h</text>
</a>
</g>
</g>
<!-- Node23&#45;&gt;Node24 -->
<g id="edge23_Node000023_Node000024" class="edge">
<title>Node23&#45;&gt;Node24</title>
<g id="a_edge23_Node000023_Node000024"><a xlink:title=" ">
<path fill="none" stroke="#63b8ff" d="M1914.83,-239.4C1957.95,-228.08 2023.88,-210.79 2063.03,-200.52"/>
<polygon fill="#63b8ff" stroke="#63b8ff" points="1913.71,-236.07 1904.93,-241.99 1915.49,-242.84 1913.71,-236.07"/>
</a>
</g>
</g>
<!-- Node26&#45;&gt;Node22 -->
<g id="edge26_Node000026_Node000022" class="edge">
<title>Node26&#45;&gt;Node22</title>
<g id="a_edge26_Node000026_Node000022"><a xlink:title=" ">
<path fill="none" stroke="#63b8ff" d="M2097.2,-292.63C2117.47,-282.87 2144.77,-269.71 2162.51,-261.17"/>
<polygon fill="#63b8ff" stroke="#63b8ff" points="2095.66,-289.49 2088.17,-296.98 2098.7,-295.8 2095.66,-289.49"/>
</a>
</g>
</g>
<!-- Node28 -->
<g id="Node000028" class="node">
<title>Node28</title>
<g id="a_Node000028"><a xlink:href="_line_writer_8h.html" target="_top" xlink:title=" ">
<polygon fill="white" stroke="#666666" points="932.5,-261 828.5,-261 828.5,-242 932.5,-242 932.5,-261"/>
<text text-anchor="middle" x="880.5" y="-249" font-family="Helvetica,sans-Serif" font-size="10.00">Kit/Io/LineWriter.h</text>
</a>
</g>
</g>
<!-- Node27&#45;&gt;Node28 -->
<g id="edge28_Node000027_Node000028" class="edge">
<title>Node27&#45;&gt;Node28</title>
<g id="a_edge28_Node000027_Node000028"><a xlink:title=" ">
<path fill="none" stroke="#63b8ff" d="M1103.77,-295.07C1051.65,-285.13 974.15,-270.35 925.52,-261.08"/>
<polygon fill="#63b8ff" stroke="#63b8ff" points="1103.36,-298.55 1113.83,-296.98 1104.67,-291.67 1103.36,-298.55"/>
</a>
</g>
</g>
<!-- Node29&#45;&gt;Node16 -->
<g id="edge33_Node000029_Node000016" class="edge">
<title>Node29&#45;&gt;Node16</title>
<g id="a_edge33_Node000029_Node000016"><a xlink:title=" ">
<path fill="none" stroke="#63b8ff" d="M1360.61,-295.6C1415.98,-285.65 1500.41,-270.48 1552.93,-261.05"/>
<polygon fill="#63b8ff" stroke="#63b8ff" points="1359.85,-292.18 1350.63,-297.39 1361.09,-299.07 1359.85,-292.18"/>
</a>
</g>
</g>
<!-- Node29&#45;&gt;Node28 -->
<g id="edge34_Node000029_Node000028" class="edge">
<title>Node29&#45;&gt;Node28</title>
<g id="a_edge34_Node000029_Node000028"><a xlink:title=" ">
<path fill="none" stroke="#63b8ff" d="M1250.25,-299.04C1178.89,-290.63 1050.86,-275.3 941.5,-261 938.64,-260.63 935.7,-260.24 932.74,-259.84"/>
<polygon fill="#63b8ff" stroke="#63b8ff" points="1250.01,-302.53 1260.36,-300.23 1250.83,-295.58 1250.01,-302.53"/>
</a>
</g>
</g>
<!-- Node30 -->
<g id="Node000030" class="node">
<title>Node30</title>
<g id="a_Node000030"><a xlink:href="_file_2_i_output_8h.html" target="_top" xlink:title=" ">
<polygon fill="white" stroke="#666666" points="1360.5,-261 1250.5,-261 1250.5,-242 1360.5,-242 1360.5,-261"/>
<text text-anchor="middle" x="1305.5" y="-249" font-family="Helvetica,sans-Serif" font-size="10.00">Kit/Io/File/IOutput.h</text>
</a>
</g>
</g>
<!-- Node29&#45;&gt;Node30 -->
<g id="edge30_Node000029_Node000030" class="edge">
<title>Node29&#45;&gt;Node30</title>
<g id="a_edge30_Node000029_Node000030"><a xlink:title=" ">
<path fill="none" stroke="#63b8ff" d="M1305.5,-286.66C1305.5,-277.93 1305.5,-267.99 1305.5,-261.09"/>
<polygon fill="#63b8ff" stroke="#63b8ff" points="1302,-286.75 1305.5,-296.75 1309,-286.75 1302,-286.75"/>
</a>
</g>
</g>
<!-- Node32 -->
<g id="Node000032" class="node">
<title>Node32</title>
<g id="a_Node000032"><a xlink:href="_output_delegate_8h.html" target="_top" xlink:title=" ">
<polygon fill="white" stroke="#666666" points="1110,-261 951,-261 951,-242 1110,-242 1110,-261"/>
<text text-anchor="middle" x="1030.5" y="-249" font-family="Helvetica,sans-Serif" font-size="10.00">Kit/Io/Stdio/OutputDelegate.h</text>
</a>
</g>
</g>
<!-- Node29&#45;&gt;Node32 -->
<g id="edge35_Node000029_Node000032" class="edge">
<title>Node29&#45;&gt;Node32</title>
<g id="a_edge35_Node000029_Node000032"><a xlink:title=" ">
<path fill="none" stroke="#63b8ff" d="M1251.36,-295.07C1199.8,-285.13 1123.14,-270.35 1075.03,-261.08"/>
<polygon fill="#63b8ff" stroke="#63b8ff" points="1250.83,-298.53 1261.32,-296.98 1252.16,-291.66 1250.83,-298.53"/>
</a>
</g>
</g>
<!-- Node35 -->
<g id="Node000035" class="node">
<title>Node35</title>
<g id="a_Node000035"><a xlink:href="_tee_output_8h.html" target="_top" xlink:title=" ">
<polygon fill="white" stroke="#666666" points="1232.5,-261 1128.5,-261 1128.5,-242 1232.5,-242 1232.5,-261"/>
<text text-anchor="middle" x="1180.5" y="-249" font-family="Helvetica,sans-Serif" font-size="10.00">Kit/Io/TeeOutput.h</text>
</a>
</g>
</g>
<!-- Node29&#45;&gt;Node35 -->
<g id="edge38_Node000029_Node000035" class="edge">
<title>Node29&#45;&gt;Node35</title>
<g id="a_edge38_Node000029_Node000035"><a xlink:title=" ">
<path fill="none" stroke="#63b8ff" d="M1276.09,-293.03C1252.97,-283.23 1221.37,-269.83 1200.95,-261.17"/>
<polygon fill="#63b8ff" stroke="#63b8ff" points="1274.84,-296.3 1285.42,-296.98 1277.58,-289.86 1274.84,-296.3"/>
</a>
</g>
</g>
<!-- Node29&#45;&gt;Node36 -->
<g id="edge39_Node000029_Node000036" class="edge">
<title>Node29&#45;&gt;Node36</title>
<g id="a_edge39_Node000029_Node000036"><a xlink:title=" ">
<path fill="none" stroke="#63b8ff" d="M1335.38,-293.03C1358.87,-283.23 1390.97,-269.83 1411.72,-261.17"/>
<polygon fill="#63b8ff" stroke="#63b8ff" points="1333.79,-289.9 1325.9,-296.98 1336.48,-296.36 1333.79,-289.9"/>
</a>
</g>
</g>
<!-- Node30&#45;&gt;Node12 -->
<g id="edge31_Node000030_Node000012" class="edge">
<title>Node30&#45;&gt;Node12</title>
<g id="a_edge31_Node000030_Node000012"><a xlink:title=" ">
<path fill="none" stroke="#63b8ff" d="M1304.53,-231.66C1304,-221.24 1303.36,-208.8 1302.94,-200.67"/>
<polygon fill="#63b8ff" stroke="#63b8ff" points="1301.05,-232.06 1305.06,-241.87 1308.04,-231.7 1301.05,-232.06"/>
</a>
</g>
</g>
<!-- Node31 -->
<g id="Node000031" class="node">
<title>Node31</title>
<g id="a_Node000031"><a xlink:href="_output_8h.html" target="_top" xlink:title=" ">
<polygon fill="white" stroke="#666666" points="1217,-200.5 1110,-200.5 1110,-181.5 1217,-181.5 1217,-200.5"/>
<text text-anchor="middle" x="1163.5" y="-188.5" font-family="Helvetica,sans-Serif" font-size="10.00">Kit/Io/File/Output.h</text>
</a>
</g>
</g>
<!-- Node30&#45;&gt;Node31 -->
<g id="edge32_Node000030_Node000031" class="edge">
<title>Node30&#45;&gt;Node31</title>
<g id="a_edge32_Node000030_Node000031"><a xlink:title=" ">
<path fill="none" stroke="#63b8ff" d="M1275.36,-238.08C1247.93,-226.78 1208.16,-210.4 1184.17,-200.52"/>
<polygon fill="#63b8ff" stroke="#63b8ff" points="1274.27,-241.42 1284.85,-241.99 1276.94,-234.95 1274.27,-241.42"/>
</a>
</g>
</g>
<!-- Node33 -->
<g id="Node000033" class="node">
<title>Node33</title>
<g id="a_Node000033"><a xlink:href="_std_err_8h.html" target="_top" xlink:title=" ">
<polygon fill="white" stroke="#666666" points="1087.5,-200.5 977.5,-200.5 977.5,-181.5 1087.5,-181.5 1087.5,-200.5"/>
<text text-anchor="middle" x="1032.5" y="-188.5" font-family="Helvetica,sans-Serif" font-size="10.00">Kit/Io/Stdio/StdErr.h</text>
</a>
</g>
</g>
<!-- Node32&#45;&gt;Node33 -->
<g id="edge36_Node000032_Node000033" class="edge">
<title>Node32&#45;&gt;Node33</title>
<g id="a_edge36_Node000032_Node000033"><a xlink:title=" ">
<path fill="none" stroke="#63b8ff" d="M1031.14,-231.66C1031.5,-221.24 1031.93,-208.8 1032.2,-200.67"/>
<polygon fill="#63b8ff" stroke="#63b8ff" points="1027.64,-231.75 1030.8,-241.87 1034.63,-231.99 1027.64,-231.75"/>
</a>
</g>
</g>
<!-- Node34 -->
<g id="Node000034" class="node">
<title>Node34</title>
<g id="a_Node000034"><a xlink:href="_std_out_8h.html" target="_top" xlink:title=" ">
<polygon fill="white" stroke="#666666" points="959,-200.5 844,-200.5 844,-181.5 959,-181.5 959,-200.5"/>
<text text-anchor="middle" x="901.5" y="-188.5" font-family="Helvetica,sans-Serif" font-size="10.00">Kit/Io/Stdio/StdOut.h</text>
</a>
</g>
</g>
<!-- Node32&#45;&gt;Node34 -->
<g id="edge37_Node000032_Node000034" class="edge">
<title>Node32&#45;&gt;Node34</title>
<g id="a_edge37_Node000032_Node000034"><a xlink:title=" ">
<path fill="none" stroke="#63b8ff" d="M1002.46,-237.78C977.56,-226.49 941.88,-210.31 920.28,-200.52"/>
<polygon fill="#63b8ff" stroke="#63b8ff" points="1001.19,-241.05 1011.74,-241.99 1004.08,-234.68 1001.19,-241.05"/>
</a>
</g>
</g>
<!-- Node36&#45;&gt;Node37 -->
<g id="edge40_Node000036_Node000037" class="edge">
<title>Node36&#45;&gt;Node37</title>
<g id="a_edge40_Node000036_Node000037"><a xlink:title=" ">
<path fill="none" stroke="#63b8ff" d="M1436.93,-231.99C1439.44,-221.51 1442.46,-208.89 1444.43,-200.67"/>
<polygon fill="#63b8ff" stroke="#63b8ff" points="1433.49,-231.33 1434.57,-241.87 1440.3,-232.96 1433.49,-231.33"/>
</a>
</g>
</g>
<!-- Node40 -->
<g id="Node000040" class="node">
<title>Node40</title>
<g id="a_Node000040"><a xlink:href="_d_string_8h.html" target="_top" xlink:title=" ">
<polygon fill="white" stroke="#666666" points="676,-261 575,-261 575,-242 676,-242 676,-261"/>
<text text-anchor="middle" x="625.5" y="-249" font-family="Helvetica,sans-Serif" font-size="10.00">Kit/Text/DString.h</text>
</a>
</g>
</g>
<!-- Node39&#45;&gt;Node40 -->
<g id="edge45_Node000039_Node000040" class="edge">
<title>Node39&#45;&gt;Node40</title>
<g id="a_edge45_Node000039_Node000040"><a xlink:title=" ">
<path fill="none" stroke="#63b8ff" d="M730.17,-293.29C704.96,-283.47 670.17,-269.91 647.75,-261.17"/>
<polygon fill="#63b8ff" stroke="#63b8ff" points="729.06,-296.61 739.65,-296.98 731.6,-290.09 729.06,-296.61"/>
</a>
</g>
</g>
<!-- Node41 -->
<g id="Node000041" class="node">
<title>Node41</title>
<g id="a_Node000041"><a xlink:href="_f_string_base_8h.html" target="_top" xlink:title=" ">
<polygon fill="white" stroke="#666666" points="557,-261 434,-261 434,-242 557,-242 557,-261"/>
<text text-anchor="middle" x="495.5" y="-249" font-family="Helvetica,sans-Serif" font-size="10.00">Kit/Text/FStringBase.h</text>
</a>
</g>
</g>
<!-- Node39&#45;&gt;Node41 -->
<g id="edge47_Node000039_Node000041" class="edge">
<title>Node39&#45;&gt;Node41</title>
<g id="a_edge47_Node000039_Node000041"><a xlink:title=" ">
<path fill="none" stroke="#63b8ff" d="M708.82,-295C658.95,-285.07 585.01,-270.33 538.57,-261.08"/>
<polygon fill="#63b8ff" stroke="#63b8ff" points="708.27,-298.46 718.76,-296.98 709.64,-291.6 708.27,-298.46"/>
</a>
</g>
</g>
<!-- Node40&#45;&gt;Node7 -->
<g id="edge46_Node000040_Node000007" class="edge">
<title>Node40&#45;&gt;Node7</title>
<g id="a_edge46_Node000040_Node000007"><a xlink:title=" ">
<path fill="none" stroke="#63b8ff" d="M633.74,-232.65C638.63,-222.04 644.63,-209.06 648.5,-200.67"/>
<polygon fill="#63b8ff" stroke="#63b8ff" points="630.5,-231.32 629.48,-241.87 636.85,-234.26 630.5,-231.32"/>
</a>
</g>
</g>
<!-- Node42 -->
<g id="Node000042" class="node">
<title>Node42</title>
<g id="a_Node000042"><a xlink:href="_f_string_8h.html" target="_top" xlink:title=" ">
<polygon fill="white" stroke="#666666" points="534,-200.5 435,-200.5 435,-181.5 534,-181.5 534,-200.5"/>
<text text-anchor="middle" x="484.5" y="-188.5" font-family="Helvetica,sans-Serif" font-size="10.00">Kit/Text/FString.h</text>
</a>
</g>
</g>
<!-- Node41&#45;&gt;Node42 -->
<g id="edge48_Node000041_Node000042" class="edge">
<title>Node41&#45;&gt;Node42</title>
<g id="a_edge48_Node000041_Node000042"><a xlink:title=" ">
<path fill="none" stroke="#63b8ff" d="M492.02,-231.99C490.05,-221.51 487.68,-208.89 486.13,-200.67"/>
<polygon fill="#63b8ff" stroke="#63b8ff" points="488.59,-232.69 493.88,-241.87 495.47,-231.39 488.59,-232.69"/>
</a>
</g>
</g>
<!-- Node42&#45;&gt;Node8 -->
<g id="edge58_Node000042_Node000008" class="edge">
<title>Node42&#45;&gt;Node8</title>
<g id="a_edge58_Node000042_Node000008"><a xlink:title=" ">
<path fill="none" stroke="#63b8ff" d="M534.82,-179.34C594.21,-166.75 691.75,-146.08 746.32,-134.51"/>
<polygon fill="#63b8ff" stroke="#63b8ff" points="533.97,-175.94 524.92,-181.44 535.42,-182.79 533.97,-175.94"/>
</a>
</g>
</g>
<!-- Node43 -->
<g id="Node000043" class="node">
<title>Node43</title>
<g id="a_Node000043"><a xlink:href="_system_8h.html" target="_top" xlink:title=" ">
<polygon fill="#fff0f0" stroke="red" points="278,-134.5 167,-134.5 167,-115.5 278,-115.5 278,-134.5"/>
<text text-anchor="middle" x="222.5" y="-122.5" font-family="Helvetica,sans-Serif" font-size="10.00">Kit/Io/File/System.h</text>
</a>
</g>
</g>
<!-- Node42&#45;&gt;Node43 -->
<g id="edge49_Node000042_Node000043" class="edge">
<title>Node42&#45;&gt;Node43</title>
<g id="a_edge49_Node000042_Node000043"><a xlink:title=" ">
<path fill="none" stroke="#63b8ff" d="M439.56,-179.02C387.93,-166.41 304.31,-145.98 257.36,-134.51"/>
<polygon fill="#63b8ff" stroke="#63b8ff" points="438.89,-182.46 449.44,-181.44 440.55,-175.66 438.89,-182.46"/>
</a>
</g>
</g>
<!-- Node48 -->
<g id="Node000048" class="node">
<title>Node48</title>
<g id="a_Node000048"><a xlink:href="_socket_2_win32_2_fdio_8h.html" target="_top" xlink:title=" ">
<polygon fill="white" stroke="#666666" points="407,-140 296,-140 296,-110 407,-110 407,-140"/>
<text text-anchor="start" x="304" y="-128" font-family="Helvetica,sans-Serif" font-size="10.00">Kit/Io/Socket/Win32</text>
<text text-anchor="middle" x="351.5" y="-117" font-family="Helvetica,sans-Serif" font-size="10.00">/Fdio.h</text>
</a>
</g>
</g>
<!-- Node42&#45;&gt;Node48 -->
<g id="edge54_Node000042_Node000048" class="edge">
<title>Node42&#45;&gt;Node48</title>
<g id="a_edge54_Node000042_Node000048"><a xlink:title=" ">
<path fill="none" stroke="#63b8ff" d="M457.34,-176.93C435.09,-166.22 403.66,-151.1 380.83,-140.12"/>
<polygon fill="#63b8ff" stroke="#63b8ff" points="456.03,-180.19 466.56,-181.37 459.07,-173.88 456.03,-180.19"/>
</a>
</g>
</g>
<!-- Node49 -->
<g id="Node000049" class="node">
<title>Node49</title>
<g id="a_Node000049"><a xlink:href="_free_r_t_o_s_2_thread_8h.html" target="_top" xlink:title=" ">
<polygon fill="white" stroke="#666666" points="544,-140 425,-140 425,-110 544,-110 544,-140"/>
<text text-anchor="start" x="433" y="-128" font-family="Helvetica,sans-Serif" font-size="10.00">Kit/System/FreeRTOS</text>
<text text-anchor="middle" x="484.5" y="-117" font-family="Helvetica,sans-Serif" font-size="10.00">/Thread.h</text>
</a>
</g>
</g>
<!-- Node42&#45;&gt;Node49 -->
<g id="edge55_Node000042_Node000049" class="edge">
<title>Node42&#45;&gt;Node49</title>
<g id="a_edge55_Node000042_Node000049"><a xlink:title=" ">
<path fill="none" stroke="#63b8ff" d="M484.5,-171.35C484.5,-161.47 484.5,-149.51 484.5,-140.36"/>
<polygon fill="#63b8ff" stroke="#63b8ff" points="481,-171.37 484.5,-181.37 488,-171.37 481,-171.37"/>
</a>
</g>
</g>
<!-- Node50 -->
<g id="Node000050" class="node">
<title>Node50</title>
<g id="a_Node000050"><a xlink:href="_posix_2_thread_8h.html" target="_top" xlink:title=" ">
<polygon fill="white" stroke="#666666" points="707,-134.5 562,-134.5 562,-115.5 707,-115.5 707,-134.5"/>
<text text-anchor="middle" x="634.5" y="-122.5" font-family="Helvetica,sans-Serif" font-size="10.00">Kit/System/Posix/Thread.h</text>
</a>
</g>
</g>
<!-- Node42&#45;&gt;Node50 -->
<g id="edge56_Node000042_Node000050" class="edge">
<title>Node42&#45;&gt;Node50</title>
<g id="a_edge56_Node000042_Node000050"><a xlink:title=" ">
<path fill="none" stroke="#63b8ff" d="M514.13,-177.36C543.69,-164.75 588.31,-145.71 614.11,-134.7"/>
<polygon fill="#63b8ff" stroke="#63b8ff" points="512.55,-174.23 504.73,-181.37 515.3,-180.66 512.55,-174.23"/>
</a>
</g>
</g>
<!-- Node51 -->
<g id="Node000051" class="node">
<title>Node51</title>
<g id="a_Node000051"><a xlink:href="_win32_2_thread_8h.html" target="_top" xlink:title=" ">
<polygon fill="white" stroke="#666666" points="149,-134.5 0,-134.5 0,-115.5 149,-115.5 149,-134.5"/>
<text text-anchor="middle" x="74.5" y="-122.5" font-family="Helvetica,sans-Serif" font-size="10.00">Kit/System/Win32/Thread.h</text>
</a>
</g>
</g>
<!-- Node42&#45;&gt;Node51 -->
<g id="edge57_Node000042_Node000051" class="edge">
<title>Node42&#45;&gt;Node51</title>
<g id="a_edge57_Node000042_Node000051"><a xlink:title=" ">
<path fill="none" stroke="#63b8ff" d="M433.79,-179.5C427.31,-178.26 420.75,-177.06 414.5,-176 300.79,-156.68 271.49,-157.59 157.5,-140 146.52,-138.31 134.75,-136.38 123.62,-134.52"/>
<polygon fill="#63b8ff" stroke="#63b8ff" points="433.37,-182.98 443.86,-181.46 434.71,-176.11 433.37,-182.98"/>
</a>
</g>
</g>
<!-- Node44 -->
<g id="Node000044" class="node">
<title>Node44</title>
<g id="a_Node000044"><a xlink:href="_dir_walker_8h.html" target="_top" xlink:title=" ">
<polygon fill="white" stroke="#666666" points="235,-19 114,-19 114,0 235,0 235,-19"/>
<text text-anchor="middle" x="174.5" y="-7" font-family="Helvetica,sans-Serif" font-size="10.00">Kit/Io/File/DirWalker.h</text>
</a>
</g>
</g>
<!-- Node43&#45;&gt;Node44 -->
<g id="edge50_Node000043_Node000044" class="edge">
<title>Node43&#45;&gt;Node44</title>
<g id="a_edge50_Node000043_Node000044"><a xlink:title=" ">
<path fill="none" stroke="#63b8ff" d="M218.97,-105.19C215.91,-91 210.83,-71.27 203.5,-55 197.52,-41.72 187.87,-27.88 181.37,-19.23"/>
<polygon fill="#63b8ff" stroke="#63b8ff" points="215.58,-106.09 220.98,-115.21 222.44,-104.71 215.58,-106.09"/>
</a>
</g>
</g>
<!-- Node45 -->
<g id="Node000045" class="node">
<title>Node45</title>
<g id="a_Node000045"><a xlink:href="_i_dir_traverser_8h.html" target="_top" xlink:title=" ">
<polygon fill="white" stroke="#666666" points="194.5,-74 58.5,-74 58.5,-55 194.5,-55 194.5,-74"/>
<text text-anchor="middle" x="126.5" y="-62" font-family="Helvetica,sans-Serif" font-size="10.00">Kit/Io/File/IDirTraverser.h</text>
</a>
</g>
</g>
<!-- Node43&#45;&gt;Node45 -->
<g id="edge51_Node000043_Node000045" class="edge">
<title>Node43&#45;&gt;Node45</title>
<g id="a_edge51_Node000043_Node000045"><a xlink:title=" ">
<path fill="none" stroke="#63b8ff" d="M199.72,-110.12C181.42,-98.96 156.27,-83.64 140.72,-74.17"/>
<polygon fill="#63b8ff" stroke="#63b8ff" points="197.97,-113.15 208.33,-115.37 201.62,-107.18 197.97,-113.15"/>
</a>
</g>
</g>
<!-- Node46 -->
<g id="Node000046" class="node">
<title>Node46</title>
<g id="a_Node000046"><a xlink:href="_file_2_posix_2_fdio_8h.html" target="_top" xlink:title=" ">
<polygon fill="white" stroke="#666666" points="376,-74 251,-74 251,-55 376,-55 376,-74"/>
<text text-anchor="middle" x="313.5" y="-62" font-family="Helvetica,sans-Serif" font-size="10.00">Kit/Io/File/Posix/Fdio.h</text>
</a>
</g>
</g>
<!-- Node43&#45;&gt;Node46 -->
<g id="edge53_Node000043_Node000046" class="edge">
<title>Node43&#45;&gt;Node46</title>
<g id="a_edge53_Node000043_Node000046"><a xlink:title=" ">
<path fill="none" stroke="#63b8ff" d="M244.81,-109.66C262.1,-98.55 285.48,-83.51 300.02,-74.17"/>
<polygon fill="#63b8ff" stroke="#63b8ff" points="242.45,-107.02 235.93,-115.37 246.23,-112.9 242.45,-107.02"/>
</a>
</g>
</g>
<!-- Node45&#45;&gt;Node44 -->
<g id="edge52_Node000045_Node000044" class="edge">
<title>Node45&#45;&gt;Node44</title>
<g id="a_edge52_Node000045_Node000044"><a xlink:title=" ">
<path fill="none" stroke="#63b8ff" d="M141.23,-47.24C149.64,-37.95 159.85,-26.68 166.72,-19.09"/>
<polygon fill="#63b8ff" stroke="#63b8ff" points="138.54,-44.99 134.43,-54.75 143.73,-49.69 138.54,-44.99"/>
</a>
</g>
</g>
</g>
</svg>
