<?xml version="1.0" encoding="UTF-8" standalone="no"?>
<!DOCTYPE svg PUBLIC "-//W3C//DTD SVG 1.1//EN"
 "http://www.w3.org/Graphics/SVG/1.1/DTD/svg11.dtd">
<!-- Generated by graphviz version 2.43.0 (0)
 -->
<!-- Title: Kit/Container/KeyedItem.h Pages: 1 -->
<svg width="445pt" height="203pt"
 viewBox="0.00 0.00 445.00 203.00" xmlns="http://www.w3.org/2000/svg" xmlns:xlink="http://www.w3.org/1999/xlink">
<g id="graph0" class="graph" transform="scale(1 1) rotate(0) translate(4 199)">
<title>Kit/Container/KeyedItem.h</title>
<!-- Node1 -->
<g id="Node000001" class="node">
<title>Node1</title>
<g id="a_Node000001"><a xlink:title=" ">
<polygon fill="#999999" stroke="#666666" points="357,-195 212,-195 212,-176 357,-176 357,-195"/>
<text text-anchor="middle" x="284.5" y="-183" font-family="Helvetica,sans-Serif" font-size="10.00">Kit/Container/KeyedItem.h</text>
</a>
</g>
</g>
<!-- Node2 -->
<g id="Node000002" class="node">
<title>Node2</title>
<g id="a_Node000002"><a xlink:href="_map_item_8h.html" target="_top" xlink:title=" ">
<polygon fill="white" stroke="#666666" points="274.5,-134.5 138.5,-134.5 138.5,-115.5 274.5,-115.5 274.5,-134.5"/>
<text text-anchor="middle" x="206.5" y="-122.5" font-family="Helvetica,sans-Serif" font-size="10.00">Kit/Container/MapItem.h</text>
</a>
</g>
</g>
<!-- Node1&#45;&gt;Node2 -->
<g id="edge1_Node000001_Node000002" class="edge">
<title>Node1&#45;&gt;Node2</title>
<g id="a_edge1_Node000001_Node000002"><a xlink:title=" ">
<path fill="none" stroke="#63b8ff" d="M264.96,-169.85C250.19,-158.77 230.4,-143.93 218.06,-134.67"/>
<polygon fill="#63b8ff" stroke="#63b8ff" points="262.89,-172.67 272.99,-175.87 267.09,-167.07 262.89,-172.67"/>
</a>
</g>
</g>
<!-- Node8 -->
<g id="Node000008" class="node">
<title>Node8</title>
<g id="a_Node000008"><a xlink:href="_ordered_list_base_8h.html" target="_top" xlink:title=" ">
<polygon fill="white" stroke="#666666" points="432.5,-140 292.5,-140 292.5,-110 432.5,-110 432.5,-140"/>
<text text-anchor="start" x="300.5" y="-128" font-family="Helvetica,sans-Serif" font-size="10.00">Kit/Container/OrderedList</text>
<text text-anchor="middle" x="362.5" y="-117" font-family="Helvetica,sans-Serif" font-size="10.00">Base.h</text>
</a>
</g>
</g>
<!-- Node1&#45;&gt;Node8 -->
<g id="edge7_Node000001_Node000008" class="edge">
<title>Node1&#45;&gt;Node8</title>
<g id="a_edge7_Node000001_Node000008"><a xlink:title=" ">
<path fill="none" stroke="#63b8ff" d="M304.14,-169.77C316.26,-160.68 331.72,-149.09 343.68,-140.11"/>
<polygon fill="#63b8ff" stroke="#63b8ff" points="301.91,-167.07 296.01,-175.87 306.11,-172.67 301.91,-167.07"/>
</a>
</g>
</g>
<!-- Node3 -->
<g id="Node000003" class="node">
<title>Node3</title>
<g id="a_Node000003"><a xlink:href="_avl_tree___8h.html" target="_top" xlink:title=" ">
<polygon fill="white" stroke="#666666" points="133,-74 0,-74 0,-55 133,-55 133,-74"/>
<text text-anchor="middle" x="66.5" y="-62" font-family="Helvetica,sans-Serif" font-size="10.00">Kit/Container/AvlTree_.h</text>
</a>
</g>
</g>
<!-- Node2&#45;&gt;Node3 -->
<g id="edge2_Node000002_Node000003" class="edge">
<title>Node2&#45;&gt;Node3</title>
<g id="a_edge2_Node000002_Node000003"><a xlink:title=" ">
<path fill="none" stroke="#63b8ff" d="M176.78,-111.58C149.74,-100.28 110.53,-83.9 86.88,-74.02"/>
<polygon fill="#63b8ff" stroke="#63b8ff" points="175.57,-114.87 186.14,-115.49 178.27,-108.41 175.57,-114.87"/>
</a>
</g>
</g>
<!-- Node5 -->
<g id="Node000005" class="node">
<title>Node5</title>
<g id="a_Node000005"><a xlink:href="_string_item_8h.html" target="_top" xlink:title=" ">
<polygon fill="white" stroke="#666666" points="267.5,-74 151.5,-74 151.5,-55 267.5,-55 267.5,-74"/>
<text text-anchor="middle" x="209.5" y="-62" font-family="Helvetica,sans-Serif" font-size="10.00">Kit/Text/StringItem.h</text>
</a>
</g>
</g>
<!-- Node2&#45;&gt;Node5 -->
<g id="edge4_Node000002_Node000005" class="edge">
<title>Node2&#45;&gt;Node5</title>
<g id="a_edge4_Node000002_Node000005"><a xlink:title=" ">
<path fill="none" stroke="#63b8ff" d="M207.47,-105.16C208,-94.74 208.64,-82.3 209.06,-74.17"/>
<polygon fill="#63b8ff" stroke="#63b8ff" points="203.96,-105.2 206.94,-115.37 210.95,-105.56 203.96,-105.2"/>
</a>
</g>
</g>
<!-- Node4 -->
<g id="Node000004" class="node">
<title>Node4</title>
<g id="a_Node000004"><a xlink:href="_map_8h.html" target="_top" xlink:title=" ">
<polygon fill="white" stroke="#666666" points="123,-19 10,-19 10,0 123,0 123,-19"/>
<text text-anchor="middle" x="66.5" y="-7" font-family="Helvetica,sans-Serif" font-size="10.00">Kit/Container/Map.h</text>
</a>
</g>
</g>
<!-- Node3&#45;&gt;Node4 -->
<g id="edge3_Node000003_Node000004" class="edge">
<title>Node3&#45;&gt;Node4</title>
<g id="a_edge3_Node000003_Node000004"><a xlink:title=" ">
<path fill="none" stroke="#63b8ff" d="M66.5,-44.66C66.5,-35.93 66.5,-25.99 66.5,-19.09"/>
<polygon fill="#63b8ff" stroke="#63b8ff" points="63,-44.75 66.5,-54.75 70,-44.75 63,-44.75"/>
</a>
</g>
</g>
<!-- Node6 -->
<g id="Node000006" class="node">
<title>Node6</title>
<g id="a_Node000006"><a xlink:href="_d_string_item_8h.html" target="_top" xlink:title=" ">
<polygon fill="white" stroke="#666666" points="268.5,-19 144.5,-19 144.5,0 268.5,0 268.5,-19"/>
<text text-anchor="middle" x="206.5" y="-7" font-family="Helvetica,sans-Serif" font-size="10.00">Kit/Text/DStringItem.h</text>
</a>
</g>
</g>
<!-- Node5&#45;&gt;Node6 -->
<g id="edge5_Node000005_Node000006" class="edge">
<title>Node5&#45;&gt;Node6</title>
<g id="a_edge5_Node000005_Node000006"><a xlink:title=" ">
<path fill="none" stroke="#63b8ff" d="M208.43,-44.66C207.94,-35.93 207.38,-25.99 206.99,-19.09"/>
<polygon fill="#63b8ff" stroke="#63b8ff" points="204.94,-44.96 209,-54.75 211.93,-44.57 204.94,-44.96"/>
</a>
</g>
</g>
<!-- Node7 -->
<g id="Node000007" class="node">
<title>Node7</title>
<g id="a_Node000007"><a xlink:href="_f_string_item_8h.html" target="_top" xlink:title=" ">
<polygon fill="white" stroke="#666666" points="408.5,-19 286.5,-19 286.5,0 408.5,0 408.5,-19"/>
<text text-anchor="middle" x="347.5" y="-7" font-family="Helvetica,sans-Serif" font-size="10.00">Kit/Text/FStringItem.h</text>
</a>
</g>
</g>
<!-- Node5&#45;&gt;Node7 -->
<g id="edge6_Node000005_Node000007" class="edge">
<title>Node5&#45;&gt;Node7</title>
<g id="a_edge6_Node000005_Node000007"><a xlink:title=" ">
<path fill="none" stroke="#63b8ff" d="M241.29,-51.29C266.87,-41.47 302.17,-27.91 324.92,-19.17"/>
<polygon fill="#63b8ff" stroke="#63b8ff" points="239.75,-48.13 231.67,-54.98 242.26,-54.67 239.75,-48.13"/>
</a>
</g>
</g>
<!-- Node9 -->
<g id="Node000009" class="node">
<title>Node9</title>
<g id="a_Node000009"><a xlink:href="_ordered_list_8h.html" target="_top" xlink:title=" ">
<polygon fill="white" stroke="#666666" points="437,-74 288,-74 288,-55 437,-55 437,-74"/>
<text text-anchor="middle" x="362.5" y="-62" font-family="Helvetica,sans-Serif" font-size="10.00">Kit/Container/OrderedList.h</text>
</a>
</g>
</g>
<!-- Node8&#45;&gt;Node9 -->
<g id="edge8_Node000008_Node000009" class="edge">
<title>Node8&#45;&gt;Node9</title>
<g id="a_edge8_Node000008_Node000009"><a xlink:title=" ">
<path fill="none" stroke="#63b8ff" d="M362.5,-99.75C362.5,-90.72 362.5,-81.03 362.5,-74.27"/>
<polygon fill="#63b8ff" stroke="#63b8ff" points="359,-99.84 362.5,-109.84 366,-99.84 359,-99.84"/>
</a>
</g>
</g>
</g>
</svg>
