<?xml version="1.0" encoding="UTF-8" standalone="no"?>
<!DOCTYPE svg PUBLIC "-//W3C//DTD SVG 1.1//EN"
 "http://www.w3.org/Graphics/SVG/1.1/DTD/svg11.dtd">
<!-- Generated by graphviz version 2.43.0 (0)
 -->
<!-- Title: Kit/Container/Key.h Pages: 1 -->
<svg width="2213pt" height="445pt"
 viewBox="0.00 0.00 2212.50 445.00" xmlns="http://www.w3.org/2000/svg" xmlns:xlink="http://www.w3.org/1999/xlink">
<g id="graph0" class="graph" transform="scale(1 1) rotate(0) translate(4 441)">
<title>Kit/Container/Key.h</title>
<!-- Node1 -->
<g id="Node000001" class="node">
<title>Node1</title>
<g id="a_Node000001"><a xlink:title=" ">
<polygon fill="#999999" stroke="#666666" points="1133,-437 1024,-437 1024,-418 1133,-418 1133,-437"/>
<text text-anchor="middle" x="1078.5" y="-425" font-family="Helvetica,sans-Serif" font-size="10.00">Kit/Container/Key.h</text>
</a>
</g>
</g>
<!-- Node2 -->
<g id="Node000002" class="node">
<title>Node2</title>
<g id="a_Node000002"><a xlink:href="_keyed_item_8h.html" target="_top" xlink:title=" ">
<polygon fill="white" stroke="#666666" points="1082,-382 937,-382 937,-363 1082,-363 1082,-382"/>
<text text-anchor="middle" x="1009.5" y="-370" font-family="Helvetica,sans-Serif" font-size="10.00">Kit/Container/KeyedItem.h</text>
</a>
</g>
</g>
<!-- Node1&#45;&gt;Node2 -->
<g id="edge1_Node000001_Node000002" class="edge">
<title>Node1&#45;&gt;Node2</title>
<g id="a_edge1_Node000001_Node000002"><a xlink:title=" ">
<path fill="none" stroke="#63b8ff" d="M1059.46,-411.88C1047.04,-402.34 1031.26,-390.21 1020.79,-382.17"/>
<polygon fill="#63b8ff" stroke="#63b8ff" points="1057.35,-414.67 1067.41,-417.98 1061.62,-409.12 1057.35,-414.67"/>
</a>
</g>
</g>
<!-- Node9 -->
<g id="Node000009" class="node">
<title>Node9</title>
<g id="a_Node000009"><a xlink:href="_i_string_8h.html" target="_top" xlink:title=" ">
<polygon fill="white" stroke="#666666" points="1404,-382 1307,-382 1307,-363 1404,-363 1404,-382"/>
<text text-anchor="middle" x="1355.5" y="-370" font-family="Helvetica,sans-Serif" font-size="10.00">Kit/Text/IString.h</text>
</a>
</g>
</g>
<!-- Node1&#45;&gt;Node9 -->
<g id="edge8_Node000001_Node000009" class="edge">
<title>Node1&#45;&gt;Node9</title>
<g id="a_edge8_Node000001_Node000009"><a xlink:title=" ">
<path fill="none" stroke="#63b8ff" d="M1133.04,-416.07C1184.97,-406.13 1262.19,-391.35 1310.65,-382.08"/>
<polygon fill="#63b8ff" stroke="#63b8ff" points="1132.17,-412.67 1123,-417.98 1133.48,-419.54 1132.17,-412.67"/>
</a>
</g>
</g>
<!-- Node3 -->
<g id="Node000003" class="node">
<title>Node3</title>
<g id="a_Node000003"><a xlink:href="_map_item_8h.html" target="_top" xlink:title=" ">
<polygon fill="white" stroke="#666666" points="684.5,-327 548.5,-327 548.5,-308 684.5,-308 684.5,-327"/>
<text text-anchor="middle" x="616.5" y="-315" font-family="Helvetica,sans-Serif" font-size="10.00">Kit/Container/MapItem.h</text>
</a>
</g>
</g>
<!-- Node2&#45;&gt;Node3 -->
<g id="edge2_Node000002_Node000003" class="edge">
<title>Node2&#45;&gt;Node3</title>
<g id="a_edge2_Node000002_Node000003"><a xlink:title=" ">
<path fill="none" stroke="#63b8ff" d="M936.21,-361.62C862.44,-351.67 749.82,-336.48 679.81,-327.04"/>
<polygon fill="#63b8ff" stroke="#63b8ff" points="935.98,-365.12 946.36,-362.98 936.92,-358.18 935.98,-365.12"/>
</a>
</g>
</g>
<!-- Node4 -->
<g id="Node000004" class="node">
<title>Node4</title>
<g id="a_Node000004"><a xlink:href="_avl_tree___8h.html" target="_top" xlink:title=" ">
<polygon fill="white" stroke="#666666" points="416,-266.5 283,-266.5 283,-247.5 416,-247.5 416,-266.5"/>
<text text-anchor="middle" x="349.5" y="-254.5" font-family="Helvetica,sans-Serif" font-size="10.00">Kit/Container/AvlTree_.h</text>
</a>
</g>
</g>
<!-- Node3&#45;&gt;Node4 -->
<g id="edge3_Node000003_Node000004" class="edge">
<title>Node3&#45;&gt;Node4</title>
<g id="a_edge3_Node000003_Node000004"><a xlink:title=" ">
<path fill="none" stroke="#63b8ff" d="M567.76,-305.82C516.2,-294.52 435.85,-276.92 388.37,-266.52"/>
<polygon fill="#63b8ff" stroke="#63b8ff" points="567.16,-309.27 577.68,-307.99 568.66,-302.43 567.16,-309.27"/>
</a>
</g>
</g>
<!-- Node6 -->
<g id="Node000006" class="node">
<title>Node6</title>
<g id="a_Node000006"><a xlink:href="_string_item_8h.html" target="_top" xlink:title=" ">
<polygon fill="white" stroke="#666666" points="810.5,-266.5 694.5,-266.5 694.5,-247.5 810.5,-247.5 810.5,-266.5"/>
<text text-anchor="middle" x="752.5" y="-254.5" font-family="Helvetica,sans-Serif" font-size="10.00">Kit/Text/StringItem.h</text>
</a>
</g>
</g>
<!-- Node3&#45;&gt;Node6 -->
<g id="edge5_Node000003_Node000006" class="edge">
<title>Node3&#45;&gt;Node6</title>
<g id="a_edge5_Node000003_Node000006"><a xlink:title=" ">
<path fill="none" stroke="#63b8ff" d="M645.72,-303.93C671.98,-292.64 709.83,-276.36 732.7,-266.52"/>
<polygon fill="#63b8ff" stroke="#63b8ff" points="644.08,-300.83 636.28,-307.99 646.84,-307.26 644.08,-300.83"/>
</a>
</g>
</g>
<!-- Node5 -->
<g id="Node000005" class="node">
<title>Node5</title>
<g id="a_Node000005"><a xlink:href="_map_8h.html" target="_top" xlink:title=" ">
<polygon fill="white" stroke="#666666" points="406,-200.5 293,-200.5 293,-181.5 406,-181.5 406,-200.5"/>
<text text-anchor="middle" x="349.5" y="-188.5" font-family="Helvetica,sans-Serif" font-size="10.00">Kit/Container/Map.h</text>
</a>
</g>
</g>
<!-- Node4&#45;&gt;Node5 -->
<g id="edge4_Node000004_Node000005" class="edge">
<title>Node4&#45;&gt;Node5</title>
<g id="a_edge4_Node000004_Node000005"><a xlink:title=" ">
<path fill="none" stroke="#63b8ff" d="M349.5,-237.08C349.5,-225.13 349.5,-210.22 349.5,-200.91"/>
<polygon fill="#63b8ff" stroke="#63b8ff" points="346,-237.37 349.5,-247.37 353,-237.37 346,-237.37"/>
</a>
</g>
</g>
<!-- Node7 -->
<g id="Node000007" class="node">
<title>Node7</title>
<g id="a_Node000007"><a xlink:href="_d_string_item_8h.html" target="_top" xlink:title=" ">
<polygon fill="white" stroke="#666666" points="714.5,-200.5 590.5,-200.5 590.5,-181.5 714.5,-181.5 714.5,-200.5"/>
<text text-anchor="middle" x="652.5" y="-188.5" font-family="Helvetica,sans-Serif" font-size="10.00">Kit/Text/DStringItem.h</text>
</a>
</g>
</g>
<!-- Node6&#45;&gt;Node7 -->
<g id="edge6_Node000006_Node000007" class="edge">
<title>Node6&#45;&gt;Node7</title>
<g id="a_edge6_Node000006_Node000007"><a xlink:title=" ">
<path fill="none" stroke="#63b8ff" d="M730.39,-241.85C710.73,-229.27 682.62,-211.28 666.09,-200.7"/>
<polygon fill="#63b8ff" stroke="#63b8ff" points="728.7,-244.93 739.01,-247.37 732.48,-239.03 728.7,-244.93"/>
</a>
</g>
</g>
<!-- Node8 -->
<g id="Node000008" class="node">
<title>Node8</title>
<g id="a_Node000008"><a xlink:href="_f_string_item_8h.html" target="_top" xlink:title=" ">
<polygon fill="white" stroke="#666666" points="847.5,-134.5 725.5,-134.5 725.5,-115.5 847.5,-115.5 847.5,-134.5"/>
<text text-anchor="middle" x="786.5" y="-122.5" font-family="Helvetica,sans-Serif" font-size="10.00">Kit/Text/FStringItem.h</text>
</a>
</g>
</g>
<!-- Node6&#45;&gt;Node8 -->
<g id="edge7_Node000006_Node000008" class="edge">
<title>Node6&#45;&gt;Node8</title>
<g id="a_edge7_Node000006_Node000008"><a xlink:title=" ">
<path fill="none" stroke="#63b8ff" d="M757.31,-237.61C764.74,-209.19 778.74,-155.69 784.22,-134.73"/>
<polygon fill="#63b8ff" stroke="#63b8ff" points="753.88,-236.91 754.73,-247.47 760.65,-238.68 753.88,-236.91"/>
</a>
</g>
</g>
<!-- Node9&#45;&gt;Node6 -->
<g id="edge59_Node000009_Node000006" class="edge">
<title>Node9&#45;&gt;Node6</title>
<g id="a_edge59_Node000009_Node000006"><a xlink:title=" ">
<path fill="none" stroke="#63b8ff" d="M1296.37,-361.85C1243.61,-353.13 1164.31,-339.74 1095.5,-327 972.51,-304.23 942.05,-297.01 819.5,-272 810.88,-270.24 801.65,-268.33 792.88,-266.5"/>
<polygon fill="#63b8ff" stroke="#63b8ff" points="1296.11,-365.36 1306.55,-363.53 1297.25,-358.45 1296.11,-365.36"/>
</a>
</g>
</g>
<!-- Node10 -->
<g id="Node000010" class="node">
<title>Node10</title>
<g id="a_Node000010"><a xlink:href="_i_input_8h.html" target="_top" xlink:title=" ">
<polygon fill="white" stroke="#666666" points="1768.5,-327 1686.5,-327 1686.5,-308 1768.5,-308 1768.5,-327"/>
<text text-anchor="middle" x="1727.5" y="-315" font-family="Helvetica,sans-Serif" font-size="10.00">Kit/Io/IInput.h</text>
</a>
</g>
</g>
<!-- Node9&#45;&gt;Node10 -->
<g id="edge9_Node000009_Node000010" class="edge">
<title>Node9&#45;&gt;Node10</title>
<g id="a_edge9_Node000009_Node000010"><a xlink:title=" ">
<path fill="none" stroke="#63b8ff" d="M1414.47,-363.1C1490.35,-352.29 1620.23,-333.78 1686.3,-324.37"/>
<polygon fill="#63b8ff" stroke="#63b8ff" points="1413.54,-359.7 1404.13,-364.57 1414.53,-366.63 1413.54,-359.7"/>
</a>
</g>
</g>
<!-- Node26 -->
<g id="Node000026" class="node">
<title>Node26</title>
<g id="a_Node000026"><a xlink:href="_i_line_reader_8h.html" target="_top" xlink:title=" ">
<polygon fill="white" stroke="#666666" points="2111,-327 2000,-327 2000,-308 2111,-308 2111,-327"/>
<text text-anchor="middle" x="2055.5" y="-315" font-family="Helvetica,sans-Serif" font-size="10.00">Kit/Io/ILineReader.h</text>
</a>
</g>
</g>
<!-- Node9&#45;&gt;Node26 -->
<g id="edge25_Node000009_Node000026" class="edge">
<title>Node9&#45;&gt;Node26</title>
<g id="a_edge25_Node000009_Node000026"><a xlink:title=" ">
<path fill="none" stroke="#63b8ff" d="M1414.17,-367.06C1547.16,-356.99 1870.06,-332.54 1999.99,-322.7"/>
<polygon fill="#63b8ff" stroke="#63b8ff" points="1413.87,-363.57 1404.17,-367.82 1414.4,-370.55 1413.87,-363.57"/>
</a>
</g>
</g>
<!-- Node27 -->
<g id="Node000027" class="node">
<title>Node27</title>
<g id="a_Node000027"><a xlink:href="_i_line_writer_8h.html" target="_top" xlink:title=" ">
<polygon fill="white" stroke="#666666" points="1212,-327 1105,-327 1105,-308 1212,-308 1212,-327"/>
<text text-anchor="middle" x="1158.5" y="-315" font-family="Helvetica,sans-Serif" font-size="10.00">Kit/Io/ILineWriter.h</text>
</a>
</g>
</g>
<!-- Node9&#45;&gt;Node27 -->
<g id="edge27_Node000009_Node000027" class="edge">
<title>Node9&#45;&gt;Node27</title>
<g id="a_edge27_Node000009_Node000027"><a xlink:title=" ">
<path fill="none" stroke="#63b8ff" d="M1313.91,-360.31C1277.05,-350.39 1224,-336.12 1190.4,-327.08"/>
<polygon fill="#63b8ff" stroke="#63b8ff" points="1313.28,-363.77 1323.85,-362.98 1315.1,-357.01 1313.28,-363.77"/>
</a>
</g>
</g>
<!-- Node29 -->
<g id="Node000029" class="node">
<title>Node29</title>
<g id="a_Node000029"><a xlink:href="_i_output_8h.html" target="_top" xlink:title=" ">
<polygon fill="white" stroke="#666666" points="1350.5,-327 1260.5,-327 1260.5,-308 1350.5,-308 1350.5,-327"/>
<text text-anchor="middle" x="1305.5" y="-315" font-family="Helvetica,sans-Serif" font-size="10.00">Kit/Io/IOutput.h</text>
</a>
</g>
</g>
<!-- Node9&#45;&gt;Node29 -->
<g id="edge29_Node000009_Node000029" class="edge">
<title>Node9&#45;&gt;Node29</title>
<g id="a_edge29_Node000009_Node000029"><a xlink:title=" ">
<path fill="none" stroke="#63b8ff" d="M1340.16,-355.24C1331.4,-345.95 1320.76,-334.68 1313.6,-327.09"/>
<polygon fill="#63b8ff" stroke="#63b8ff" points="1337.84,-357.88 1347.24,-362.75 1342.93,-353.07 1337.84,-357.88"/>
</a>
</g>
</g>
<!-- Node36 -->
<g id="Node000036" class="node">
<title>Node36</title>
<g id="a_Node000036"><a xlink:href="_trace_8h.html" target="_top" xlink:title="This file provides an interface for a &#39;printf&#39; tracing mechanism.">
<polygon fill="white" stroke="#666666" points="1486,-266.5 1379,-266.5 1379,-247.5 1486,-247.5 1486,-266.5"/>
<text text-anchor="middle" x="1432.5" y="-254.5" font-family="Helvetica,sans-Serif" font-size="10.00">Kit/System/Trace.h</text>
</a>
</g>
</g>
<!-- Node9&#45;&gt;Node36 -->
<g id="edge42_Node000009_Node000036" class="edge">
<title>Node9&#45;&gt;Node36</title>
<g id="a_edge42_Node000009_Node000036"><a xlink:title=" ">
<path fill="none" stroke="#63b8ff" d="M1366.94,-354.64C1383.6,-330.09 1413.93,-285.37 1426.65,-266.63"/>
<polygon fill="#63b8ff" stroke="#63b8ff" points="1364.01,-352.73 1361.29,-362.97 1369.8,-356.66 1364.01,-352.73"/>
</a>
</g>
</g>
<!-- Node37 -->
<g id="Node000037" class="node">
<title>Node37</title>
<g id="a_Node000037"><a xlink:href="_private_8h.html" target="_top" xlink:title="This file contains a collection of classes, interfaces, etc.">
<polygon fill="white" stroke="#666666" points="1504.5,-200.5 1388.5,-200.5 1388.5,-181.5 1504.5,-181.5 1504.5,-200.5"/>
<text text-anchor="middle" x="1446.5" y="-188.5" font-family="Helvetica,sans-Serif" font-size="10.00">Kit/System/Private.h</text>
</a>
</g>
</g>
<!-- Node9&#45;&gt;Node37 -->
<g id="edge41_Node000009_Node000037" class="edge">
<title>Node9&#45;&gt;Node37</title>
<g id="a_edge41_Node000009_Node000037"><a xlink:title=" ">
<path fill="none" stroke="#63b8ff" d="M1388.45,-358.85C1422.31,-343.85 1473.16,-315.29 1495.5,-272 1501.62,-260.15 1500.54,-254.34 1495.5,-242 1488.24,-224.22 1471.28,-209.34 1459.35,-200.56"/>
<polygon fill="#63b8ff" stroke="#63b8ff" points="1386.78,-355.75 1378.96,-362.9 1389.53,-362.19 1386.78,-355.75"/>
</a>
</g>
</g>
<!-- Node38 -->
<g id="Node000038" class="node">
<title>Node38</title>
<g id="a_Node000038"><a xlink:href="_format_8h.html" target="_top" xlink:title=" ">
<polygon fill="white" stroke="#666666" points="1886.5,-327 1786.5,-327 1786.5,-308 1886.5,-308 1886.5,-327"/>
<text text-anchor="middle" x="1836.5" y="-315" font-family="Helvetica,sans-Serif" font-size="10.00">Kit/Text/Format.h</text>
</a>
</g>
</g>
<!-- Node9&#45;&gt;Node38 -->
<g id="edge43_Node000009_Node000038" class="edge">
<title>Node9&#45;&gt;Node38</title>
<g id="a_edge43_Node000009_Node000038"><a xlink:title=" ">
<path fill="none" stroke="#63b8ff" d="M1414.39,-366C1496.02,-358.22 1648.16,-343.13 1777.5,-327 1780.38,-326.64 1783.33,-326.26 1786.31,-325.86"/>
<polygon fill="#63b8ff" stroke="#63b8ff" points="1413.93,-362.53 1404.3,-366.96 1414.59,-369.5 1413.93,-362.53"/>
</a>
</g>
</g>
<!-- Node39 -->
<g id="Node000039" class="node">
<title>Node39</title>
<g id="a_Node000039"><a xlink:href="_string_base_8h.html" target="_top" xlink:title=" ">
<polygon fill="white" stroke="#666666" points="820.5,-327 702.5,-327 702.5,-308 820.5,-308 820.5,-327"/>
<text text-anchor="middle" x="761.5" y="-315" font-family="Helvetica,sans-Serif" font-size="10.00">Kit/Text/StringBase.h</text>
</a>
</g>
</g>
<!-- Node9&#45;&gt;Node39 -->
<g id="edge44_Node000009_Node000039" class="edge">
<title>Node9&#45;&gt;Node39</title>
<g id="a_edge44_Node000009_Node000039"><a xlink:title=" ">
<path fill="none" stroke="#63b8ff" d="M1296.65,-366.25C1183.06,-356.11 934.72,-333.96 820.78,-323.79"/>
<polygon fill="#63b8ff" stroke="#63b8ff" points="1296.62,-369.76 1306.89,-367.16 1297.24,-362.79 1296.62,-369.76"/>
</a>
</g>
</g>
<!-- Node11 -->
<g id="Node000011" class="node">
<title>Node11</title>
<g id="a_Node000011"><a xlink:href="_file_2_i_input_8h.html" target="_top" xlink:title=" ">
<polygon fill="white" stroke="#666666" points="1778.5,-266.5 1676.5,-266.5 1676.5,-247.5 1778.5,-247.5 1778.5,-266.5"/>
<text text-anchor="middle" x="1727.5" y="-254.5" font-family="Helvetica,sans-Serif" font-size="10.00">Kit/Io/File/IInput.h</text>
</a>
</g>
</g>
<!-- Node10&#45;&gt;Node11 -->
<g id="edge10_Node000010_Node000011" class="edge">
<title>Node10&#45;&gt;Node11</title>
<g id="a_edge10_Node000010_Node000011"><a xlink:title=" ">
<path fill="none" stroke="#63b8ff" d="M1727.5,-297.66C1727.5,-287.24 1727.5,-274.8 1727.5,-266.67"/>
<polygon fill="#63b8ff" stroke="#63b8ff" points="1724,-297.87 1727.5,-307.87 1731,-297.87 1724,-297.87"/>
</a>
</g>
</g>
<!-- Node16 -->
<g id="Node000016" class="node">
<title>Node16</title>
<g id="a_Node000016"><a xlink:href="_i_input_output_8h.html" target="_top" xlink:title=" ">
<polygon fill="white" stroke="#666666" points="1658,-266.5 1543,-266.5 1543,-247.5 1658,-247.5 1658,-266.5"/>
<text text-anchor="middle" x="1600.5" y="-254.5" font-family="Helvetica,sans-Serif" font-size="10.00">Kit/Io/IInputOutput.h</text>
</a>
</g>
</g>
<!-- Node10&#45;&gt;Node16 -->
<g id="edge15_Node000010_Node000016" class="edge">
<title>Node10&#45;&gt;Node16</title>
<g id="a_edge15_Node000010_Node000016"><a xlink:title=" ">
<path fill="none" stroke="#63b8ff" d="M1699.89,-303.78C1675.38,-292.49 1640.26,-276.31 1618.99,-266.52"/>
<polygon fill="#63b8ff" stroke="#63b8ff" points="1698.49,-306.99 1709.03,-307.99 1701.41,-300.63 1698.49,-306.99"/>
</a>
</g>
</g>
<!-- Node22 -->
<g id="Node000022" class="node">
<title>Node22</title>
<g id="a_Node000022"><a xlink:href="_line_reader_8h.html" target="_top" xlink:title=" ">
<polygon fill="white" stroke="#666666" points="2204.5,-266.5 2096.5,-266.5 2096.5,-247.5 2204.5,-247.5 2204.5,-266.5"/>
<text text-anchor="middle" x="2150.5" y="-254.5" font-family="Helvetica,sans-Serif" font-size="10.00">Kit/Io/LineReader.h</text>
</a>
</g>
</g>
<!-- Node10&#45;&gt;Node22 -->
<g id="edge21_Node000010_Node000022" class="edge">
<title>Node10&#45;&gt;Node22</title>
<g id="a_edge21_Node000010_Node000022"><a xlink:title=" ">
<path fill="none" stroke="#63b8ff" d="M1778.77,-307.89C1916.55,-288.67 1953.93,-294.53 2087.5,-272 2096.45,-270.49 2106.04,-268.53 2114.98,-266.57"/>
<polygon fill="#63b8ff" stroke="#63b8ff" points="1778.08,-304.46 1768.67,-309.32 1779.07,-311.39 1778.08,-304.46"/>
</a>
</g>
</g>
<!-- Node23 -->
<g id="Node000023" class="node">
<title>Node23</title>
<g id="a_Node000023"><a xlink:href="_input_delegate_8h.html" target="_top" xlink:title=" ">
<polygon fill="white" stroke="#666666" points="1948,-266.5 1797,-266.5 1797,-247.5 1948,-247.5 1948,-266.5"/>
<text text-anchor="middle" x="1872.5" y="-254.5" font-family="Helvetica,sans-Serif" font-size="10.00">Kit/Io/Stdio/InputDelegate.h</text>
</a>
</g>
</g>
<!-- Node10&#45;&gt;Node23 -->
<g id="edge22_Node000010_Node000023" class="edge">
<title>Node10&#45;&gt;Node23</title>
<g id="a_edge22_Node000010_Node000023"><a xlink:title=" ">
<path fill="none" stroke="#63b8ff" d="M1757.91,-304.23C1785.93,-292.92 1826.79,-276.44 1851.39,-266.52"/>
<polygon fill="#63b8ff" stroke="#63b8ff" points="1756.55,-301.01 1748.58,-307.99 1759.17,-307.5 1756.55,-301.01"/>
</a>
</g>
</g>
<!-- Node25 -->
<g id="Node000025" class="node">
<title>Node25</title>
<g id="a_Node000025"><a xlink:href="helpers_8h.html" target="_top" xlink:title="This file defines helper functions/interface for writing unit tests.">
<polygon fill="white" stroke="#666666" points="2078.5,-272 1966.5,-272 1966.5,-242 2078.5,-242 2078.5,-272"/>
<text text-anchor="start" x="1974.5" y="-260" font-family="Helvetica,sans-Serif" font-size="10.00">Kit/_support/testing</text>
<text text-anchor="middle" x="2022.5" y="-249" font-family="Helvetica,sans-Serif" font-size="10.00">/helpers.h</text>
</a>
</g>
</g>
<!-- Node10&#45;&gt;Node25 -->
<g id="edge24_Node000010_Node000025" class="edge">
<title>Node10&#45;&gt;Node25</title>
<g id="a_edge24_Node000010_Node000025"><a xlink:title=" ">
<path fill="none" stroke="#63b8ff" d="M1778.55,-306.94C1825.2,-298.13 1896.06,-284.56 1957.5,-272 1960.44,-271.4 1963.45,-270.78 1966.5,-270.14"/>
<polygon fill="#63b8ff" stroke="#63b8ff" points="1777.86,-303.51 1768.68,-308.8 1779.16,-310.39 1777.86,-303.51"/>
</a>
</g>
</g>
<!-- Node12 -->
<g id="Node000012" class="node">
<title>Node12</title>
<g id="a_Node000012"><a xlink:href="_file_2_i_input_output_8h.html" target="_top" xlink:title=" ">
<polygon fill="white" stroke="#666666" points="1370,-200.5 1235,-200.5 1235,-181.5 1370,-181.5 1370,-200.5"/>
<text text-anchor="middle" x="1302.5" y="-188.5" font-family="Helvetica,sans-Serif" font-size="10.00">Kit/Io/File/IInputOutput.h</text>
</a>
</g>
</g>
<!-- Node11&#45;&gt;Node12 -->
<g id="edge11_Node000011_Node000012" class="edge">
<title>Node11&#45;&gt;Node12</title>
<g id="a_edge11_Node000011_Node000012"><a xlink:title=" ">
<path fill="none" stroke="#63b8ff" d="M1683.9,-245.26C1678.4,-244.08 1672.83,-242.95 1667.5,-242 1540.51,-219.31 1507.01,-225.55 1379.5,-206 1369.02,-204.39 1357.78,-202.47 1347.22,-200.56"/>
<polygon fill="#63b8ff" stroke="#63b8ff" points="1683.15,-248.68 1693.68,-247.45 1684.68,-241.85 1683.15,-248.68"/>
</a>
</g>
</g>
<!-- Node15 -->
<g id="Node000015" class="node">
<title>Node15</title>
<g id="a_Node000015"><a xlink:href="_input_8h.html" target="_top" xlink:title=" ">
<polygon fill="white" stroke="#666666" points="2024,-200.5 1925,-200.5 1925,-181.5 2024,-181.5 2024,-200.5"/>
<text text-anchor="middle" x="1974.5" y="-188.5" font-family="Helvetica,sans-Serif" font-size="10.00">Kit/Io/File/Input.h</text>
</a>
</g>
</g>
<!-- Node11&#45;&gt;Node15 -->
<g id="edge14_Node000011_Node000015" class="edge">
<title>Node11&#45;&gt;Node15</title>
<g id="a_edge14_Node000011_Node000015"><a xlink:title=" ">
<path fill="none" stroke="#63b8ff" d="M1770.48,-244.86C1819.2,-232.24 1897.56,-211.94 1941.64,-200.51"/>
<polygon fill="#63b8ff" stroke="#63b8ff" points="1769.36,-241.54 1760.56,-247.44 1771.11,-248.31 1769.36,-241.54"/>
</a>
</g>
</g>
<!-- Node13 -->
<g id="Node000013" class="node">
<title>Node13</title>
<g id="a_Node000013"><a xlink:href="_file_2_input_output_8h.html" target="_top" xlink:title=" ">
<polygon fill="white" stroke="#666666" points="1303.5,-134.5 1171.5,-134.5 1171.5,-115.5 1303.5,-115.5 1303.5,-134.5"/>
<text text-anchor="middle" x="1237.5" y="-122.5" font-family="Helvetica,sans-Serif" font-size="10.00">Kit/Io/File/InputOutput.h</text>
</a>
</g>
</g>
<!-- Node12&#45;&gt;Node13 -->
<g id="edge12_Node000012_Node000013" class="edge">
<title>Node12&#45;&gt;Node13</title>
<g id="a_edge12_Node000012_Node000013"><a xlink:title=" ">
<path fill="none" stroke="#63b8ff" d="M1286.58,-174.33C1274,-161.94 1256.88,-145.09 1246.54,-134.91"/>
<polygon fill="#63b8ff" stroke="#63b8ff" points="1284.15,-176.85 1293.73,-181.37 1289.06,-171.86 1284.15,-176.85"/>
</a>
</g>
</g>
<!-- Node14 -->
<g id="Node000014" class="node">
<title>Node14</title>
<g id="a_Node000014"><a xlink:href="_file_2_null_8h.html" target="_top" xlink:title=" ">
<polygon fill="white" stroke="#666666" points="1415.5,-134.5 1321.5,-134.5 1321.5,-115.5 1415.5,-115.5 1415.5,-134.5"/>
<text text-anchor="middle" x="1368.5" y="-122.5" font-family="Helvetica,sans-Serif" font-size="10.00">Kit/Io/File/Null.h</text>
</a>
</g>
</g>
<!-- Node12&#45;&gt;Node14 -->
<g id="edge13_Node000012_Node000014" class="edge">
<title>Node12&#45;&gt;Node14</title>
<g id="a_edge13_Node000012_Node000014"><a xlink:title=" ">
<path fill="none" stroke="#63b8ff" d="M1318.66,-174.33C1331.44,-161.94 1348.82,-145.09 1359.32,-134.91"/>
<polygon fill="#63b8ff" stroke="#63b8ff" points="1316.14,-171.89 1311.4,-181.37 1321.02,-176.92 1316.14,-171.89"/>
</a>
</g>
</g>
<!-- Node17 -->
<g id="Node000017" class="node">
<title>Node17</title>
<g id="a_Node000017"><a xlink:href="_null_8h.html" target="_top" xlink:title=" ">
<polygon fill="white" stroke="#666666" points="1738.5,-200.5 1664.5,-200.5 1664.5,-181.5 1738.5,-181.5 1738.5,-200.5"/>
<text text-anchor="middle" x="1701.5" y="-188.5" font-family="Helvetica,sans-Serif" font-size="10.00">Kit/Io/Null.h</text>
</a>
</g>
</g>
<!-- Node16&#45;&gt;Node17 -->
<g id="edge16_Node000016_Node000017" class="edge">
<title>Node16&#45;&gt;Node17</title>
<g id="a_edge16_Node000016_Node000017"><a xlink:title=" ">
<path fill="none" stroke="#63b8ff" d="M1622.83,-241.85C1642.69,-229.27 1671.08,-211.28 1687.77,-200.7"/>
<polygon fill="#63b8ff" stroke="#63b8ff" points="1620.69,-239.06 1614.12,-247.37 1624.44,-244.97 1620.69,-239.06"/>
</a>
</g>
</g>
<!-- Node18 -->
<g id="Node000018" class="node">
<title>Node18</title>
<g id="a_Node000018"><a xlink:href="_serial_2_s_t_2_m32_f4_2_input_output_8h.html" target="_top" xlink:title=" ">
<polygon fill="white" stroke="#666666" points="1646.5,-206 1522.5,-206 1522.5,-176 1646.5,-176 1646.5,-206"/>
<text text-anchor="start" x="1530.5" y="-194" font-family="Helvetica,sans-Serif" font-size="10.00">Kit/Io/Serial/ST/M32F4</text>
<text text-anchor="middle" x="1584.5" y="-183" font-family="Helvetica,sans-Serif" font-size="10.00">/InputOutput.h</text>
</a>
</g>
</g>
<!-- Node16&#45;&gt;Node18 -->
<g id="edge17_Node000016_Node000018" class="edge">
<title>Node16&#45;&gt;Node18</title>
<g id="a_edge17_Node000016_Node000018"><a xlink:title=" ">
<path fill="none" stroke="#63b8ff" d="M1595.84,-237.35C1593.37,-227.47 1590.38,-215.51 1588.09,-206.36"/>
<polygon fill="#63b8ff" stroke="#63b8ff" points="1592.52,-238.52 1598.34,-247.37 1599.31,-236.82 1592.52,-238.52"/>
</a>
</g>
</g>
<!-- Node20 -->
<g id="Node000020" class="node">
<title>Node20</title>
<g id="a_Node000020"><a xlink:href="_socket_2_i_input_output_8h.html" target="_top" xlink:title=" ">
<polygon fill="white" stroke="#666666" points="1906.5,-200.5 1756.5,-200.5 1756.5,-181.5 1906.5,-181.5 1906.5,-200.5"/>
<text text-anchor="middle" x="1831.5" y="-188.5" font-family="Helvetica,sans-Serif" font-size="10.00">Kit/Io/Socket/IInputOutput.h</text>
</a>
</g>
</g>
<!-- Node16&#45;&gt;Node20 -->
<g id="edge19_Node000016_Node000020" class="edge">
<title>Node16&#45;&gt;Node20</title>
<g id="a_edge19_Node000016_Node000020"><a xlink:title=" ">
<path fill="none" stroke="#63b8ff" d="M1641.49,-244.64C1687,-232.03 1759.43,-211.97 1800.47,-200.6"/>
<polygon fill="#63b8ff" stroke="#63b8ff" points="1640.36,-241.33 1631.65,-247.37 1642.23,-248.07 1640.36,-241.33"/>
</a>
</g>
</g>
<!-- Node19 -->
<g id="Node000019" class="node">
<title>Node19</title>
<g id="a_Node000019"><a xlink:href="stdio_8h.html" target="_top" xlink:title="By default the BSP provides a KIT IO Stream for application&#39; console.">
<polygon fill="white" stroke="#666666" points="1660.5,-140 1508.5,-140 1508.5,-110 1660.5,-110 1660.5,-140"/>
<text text-anchor="start" x="1516.5" y="-128" font-family="Helvetica,sans-Serif" font-size="10.00">Kit/Bsp/ST/NUCLEO&#45;F413ZH</text>
<text text-anchor="middle" x="1584.5" y="-117" font-family="Helvetica,sans-Serif" font-size="10.00">/stdio.h</text>
</a>
</g>
</g>
<!-- Node18&#45;&gt;Node19 -->
<g id="edge18_Node000018_Node000019" class="edge">
<title>Node18&#45;&gt;Node19</title>
<g id="a_edge18_Node000018_Node000019"><a xlink:title=" ">
<path fill="none" stroke="#63b8ff" d="M1584.5,-165.54C1584.5,-156.96 1584.5,-147.61 1584.5,-140.16"/>
<polygon fill="#63b8ff" stroke="#63b8ff" points="1581,-165.8 1584.5,-175.8 1588,-165.8 1581,-165.8"/>
</a>
</g>
</g>
<!-- Node21 -->
<g id="Node000021" class="node">
<title>Node21</title>
<g id="a_Node000021"><a xlink:href="_socket_2_input_output_8h.html" target="_top" xlink:title=" ">
<polygon fill="white" stroke="#666666" points="1905,-134.5 1758,-134.5 1758,-115.5 1905,-115.5 1905,-134.5"/>
<text text-anchor="middle" x="1831.5" y="-122.5" font-family="Helvetica,sans-Serif" font-size="10.00">Kit/Io/Socket/InputOutput.h</text>
</a>
</g>
</g>
<!-- Node20&#45;&gt;Node21 -->
<g id="edge20_Node000020_Node000021" class="edge">
<title>Node20&#45;&gt;Node21</title>
<g id="a_edge20_Node000020_Node000021"><a xlink:title=" ">
<path fill="none" stroke="#63b8ff" d="M1831.5,-171.08C1831.5,-159.13 1831.5,-144.22 1831.5,-134.91"/>
<polygon fill="#63b8ff" stroke="#63b8ff" points="1828,-171.37 1831.5,-181.37 1835,-171.37 1828,-171.37"/>
</a>
</g>
</g>
<!-- Node24 -->
<g id="Node000024" class="node">
<title>Node24</title>
<g id="a_Node000024"><a xlink:href="_std_in_8h.html" target="_top" xlink:title=" ">
<polygon fill="white" stroke="#666666" points="2149,-200.5 2042,-200.5 2042,-181.5 2149,-181.5 2149,-200.5"/>
<text text-anchor="middle" x="2095.5" y="-188.5" font-family="Helvetica,sans-Serif" font-size="10.00">Kit/Io/Stdio/StdIn.h</text>
</a>
</g>
</g>
<!-- Node23&#45;&gt;Node24 -->
<g id="edge23_Node000023_Node000024" class="edge">
<title>Node23&#45;&gt;Node24</title>
<g id="a_edge23_Node000023_Node000024"><a xlink:title=" ">
<path fill="none" stroke="#63b8ff" d="M1912.35,-244.56C1956.3,-231.95 2026.01,-211.94 2065.55,-200.6"/>
<polygon fill="#63b8ff" stroke="#63b8ff" points="1911.22,-241.25 1902.57,-247.37 1913.15,-247.97 1911.22,-241.25"/>
</a>
</g>
</g>
<!-- Node26&#45;&gt;Node22 -->
<g id="edge26_Node000026_Node000022" class="edge">
<title>Node26&#45;&gt;Node22</title>
<g id="a_edge26_Node000026_Node000022"><a xlink:title=" ">
<path fill="none" stroke="#63b8ff" d="M2078.29,-302.47C2096.38,-291.32 2121.11,-276.1 2136.42,-266.67"/>
<polygon fill="#63b8ff" stroke="#63b8ff" points="2076.2,-299.64 2069.52,-307.87 2079.87,-305.6 2076.2,-299.64"/>
</a>
</g>
</g>
<!-- Node28 -->
<g id="Node000028" class="node">
<title>Node28</title>
<g id="a_Node000028"><a xlink:href="_line_writer_8h.html" target="_top" xlink:title=" ">
<polygon fill="white" stroke="#666666" points="932.5,-266.5 828.5,-266.5 828.5,-247.5 932.5,-247.5 932.5,-266.5"/>
<text text-anchor="middle" x="880.5" y="-254.5" font-family="Helvetica,sans-Serif" font-size="10.00">Kit/Io/LineWriter.h</text>
</a>
</g>
</g>
<!-- Node27&#45;&gt;Node28 -->
<g id="edge28_Node000027_Node000028" class="edge">
<title>Node27&#45;&gt;Node28</title>
<g id="a_edge28_Node000027_Node000028"><a xlink:title=" ">
<path fill="none" stroke="#63b8ff" d="M1105.31,-305.95C1061.33,-297.15 997.28,-284.12 941.5,-272 933.54,-270.27 925,-268.35 916.92,-266.5"/>
<polygon fill="#63b8ff" stroke="#63b8ff" points="1104.71,-309.4 1115.21,-307.93 1106.09,-302.54 1104.71,-309.4"/>
</a>
</g>
</g>
<!-- Node29&#45;&gt;Node16 -->
<g id="edge33_Node000029_Node000016" class="edge">
<title>Node29&#45;&gt;Node16</title>
<g id="a_edge33_Node000029_Node000016"><a xlink:title=" ">
<path fill="none" stroke="#63b8ff" d="M1358.28,-306.03C1415.21,-294.74 1504.77,-276.98 1557.55,-266.52"/>
<polygon fill="#63b8ff" stroke="#63b8ff" points="1357.52,-302.62 1348.4,-307.99 1358.89,-309.48 1357.52,-302.62"/>
</a>
</g>
</g>
<!-- Node29&#45;&gt;Node28 -->
<g id="edge34_Node000029_Node000028" class="edge">
<title>Node29&#45;&gt;Node28</title>
<g id="a_edge34_Node000029_Node000028"><a xlink:title=" ">
<path fill="none" stroke="#63b8ff" d="M1250.05,-310.44C1163.31,-300.83 999.42,-282.16 941.5,-272 932.83,-270.48 923.54,-268.52 914.89,-266.55"/>
<polygon fill="#63b8ff" stroke="#63b8ff" points="1249.91,-313.94 1260.24,-311.56 1250.68,-306.99 1249.91,-313.94"/>
</a>
</g>
</g>
<!-- Node30 -->
<g id="Node000030" class="node">
<title>Node30</title>
<g id="a_Node000030"><a xlink:href="_file_2_i_output_8h.html" target="_top" xlink:title=" ">
<polygon fill="white" stroke="#666666" points="1360.5,-266.5 1250.5,-266.5 1250.5,-247.5 1360.5,-247.5 1360.5,-266.5"/>
<text text-anchor="middle" x="1305.5" y="-254.5" font-family="Helvetica,sans-Serif" font-size="10.00">Kit/Io/File/IOutput.h</text>
</a>
</g>
</g>
<!-- Node29&#45;&gt;Node30 -->
<g id="edge30_Node000029_Node000030" class="edge">
<title>Node29&#45;&gt;Node30</title>
<g id="a_edge30_Node000029_Node000030"><a xlink:title=" ">
<path fill="none" stroke="#63b8ff" d="M1305.5,-297.66C1305.5,-287.24 1305.5,-274.8 1305.5,-266.67"/>
<polygon fill="#63b8ff" stroke="#63b8ff" points="1302,-297.87 1305.5,-307.87 1309,-297.87 1302,-297.87"/>
</a>
</g>
</g>
<!-- Node32 -->
<g id="Node000032" class="node">
<title>Node32</title>
<g id="a_Node000032"><a xlink:href="_output_delegate_8h.html" target="_top" xlink:title=" ">
<polygon fill="white" stroke="#666666" points="1110,-266.5 951,-266.5 951,-247.5 1110,-247.5 1110,-266.5"/>
<text text-anchor="middle" x="1030.5" y="-254.5" font-family="Helvetica,sans-Serif" font-size="10.00">Kit/Io/Stdio/OutputDelegate.h</text>
</a>
</g>
</g>
<!-- Node29&#45;&gt;Node32 -->
<g id="edge35_Node000029_Node000032" class="edge">
<title>Node29&#45;&gt;Node32</title>
<g id="a_edge35_Node000029_Node000032"><a xlink:title=" ">
<path fill="none" stroke="#63b8ff" d="M1255.64,-305.89C1202.54,-294.6 1119.54,-276.94 1070.54,-266.52"/>
<polygon fill="#63b8ff" stroke="#63b8ff" points="1255,-309.34 1265.51,-307.99 1256.46,-302.49 1255,-309.34"/>
</a>
</g>
</g>
<!-- Node35 -->
<g id="Node000035" class="node">
<title>Node35</title>
<g id="a_Node000035"><a xlink:href="_tee_output_8h.html" target="_top" xlink:title=" ">
<polygon fill="white" stroke="#666666" points="1232.5,-266.5 1128.5,-266.5 1128.5,-247.5 1232.5,-247.5 1232.5,-266.5"/>
<text text-anchor="middle" x="1180.5" y="-254.5" font-family="Helvetica,sans-Serif" font-size="10.00">Kit/Io/TeeOutput.h</text>
</a>
</g>
</g>
<!-- Node29&#45;&gt;Node35 -->
<g id="edge38_Node000029_Node000035" class="edge">
<title>Node29&#45;&gt;Node35</title>
<g id="a_edge38_Node000029_Node000035"><a xlink:title=" ">
<path fill="none" stroke="#63b8ff" d="M1278.01,-303.63C1253.9,-292.35 1219.54,-276.27 1198.7,-266.52"/>
<polygon fill="#63b8ff" stroke="#63b8ff" points="1276.78,-306.92 1287.32,-307.99 1279.75,-300.58 1276.78,-306.92"/>
</a>
</g>
</g>
<!-- Node29&#45;&gt;Node36 -->
<g id="edge39_Node000029_Node000036" class="edge">
<title>Node29&#45;&gt;Node36</title>
<g id="a_edge39_Node000029_Node000036"><a xlink:title=" ">
<path fill="none" stroke="#63b8ff" d="M1333.11,-303.78C1357.62,-292.49 1392.74,-276.31 1414.01,-266.52"/>
<polygon fill="#63b8ff" stroke="#63b8ff" points="1331.59,-300.63 1323.97,-307.99 1334.51,-306.99 1331.59,-300.63"/>
</a>
</g>
</g>
<!-- Node30&#45;&gt;Node12 -->
<g id="edge31_Node000030_Node000012" class="edge">
<title>Node30&#45;&gt;Node12</title>
<g id="a_edge31_Node000030_Node000012"><a xlink:title=" ">
<path fill="none" stroke="#63b8ff" d="M1304.61,-237.08C1304.05,-225.13 1303.35,-210.22 1302.92,-200.91"/>
<polygon fill="#63b8ff" stroke="#63b8ff" points="1301.13,-237.54 1305.1,-247.37 1308.12,-237.22 1301.13,-237.54"/>
</a>
</g>
</g>
<!-- Node31 -->
<g id="Node000031" class="node">
<title>Node31</title>
<g id="a_Node000031"><a xlink:href="_output_8h.html" target="_top" xlink:title=" ">
<polygon fill="white" stroke="#666666" points="1217,-200.5 1110,-200.5 1110,-181.5 1217,-181.5 1217,-200.5"/>
<text text-anchor="middle" x="1163.5" y="-188.5" font-family="Helvetica,sans-Serif" font-size="10.00">Kit/Io/File/Output.h</text>
</a>
</g>
</g>
<!-- Node30&#45;&gt;Node31 -->
<g id="edge32_Node000030_Node000031" class="edge">
<title>Node30&#45;&gt;Node31</title>
<g id="a_edge32_Node000030_Node000031"><a xlink:title=" ">
<path fill="none" stroke="#63b8ff" d="M1277.09,-243.19C1249.1,-230.58 1207.12,-211.66 1182.8,-200.7"/>
<polygon fill="#63b8ff" stroke="#63b8ff" points="1275.79,-246.45 1286.35,-247.37 1278.67,-240.07 1275.79,-246.45"/>
</a>
</g>
</g>
<!-- Node33 -->
<g id="Node000033" class="node">
<title>Node33</title>
<g id="a_Node000033"><a xlink:href="_std_err_8h.html" target="_top" xlink:title=" ">
<polygon fill="white" stroke="#666666" points="1087.5,-200.5 977.5,-200.5 977.5,-181.5 1087.5,-181.5 1087.5,-200.5"/>
<text text-anchor="middle" x="1032.5" y="-188.5" font-family="Helvetica,sans-Serif" font-size="10.00">Kit/Io/Stdio/StdErr.h</text>
</a>
</g>
</g>
<!-- Node32&#45;&gt;Node33 -->
<g id="edge36_Node000032_Node000033" class="edge">
<title>Node32&#45;&gt;Node33</title>
<g id="a_edge36_Node000032_Node000033"><a xlink:title=" ">
<path fill="none" stroke="#63b8ff" d="M1031.09,-237.08C1031.46,-225.13 1031.93,-210.22 1032.22,-200.91"/>
<polygon fill="#63b8ff" stroke="#63b8ff" points="1027.58,-237.26 1030.77,-247.37 1034.58,-237.48 1027.58,-237.26"/>
</a>
</g>
</g>
<!-- Node34 -->
<g id="Node000034" class="node">
<title>Node34</title>
<g id="a_Node000034"><a xlink:href="_std_out_8h.html" target="_top" xlink:title=" ">
<polygon fill="white" stroke="#666666" points="959,-200.5 844,-200.5 844,-181.5 959,-181.5 959,-200.5"/>
<text text-anchor="middle" x="901.5" y="-188.5" font-family="Helvetica,sans-Serif" font-size="10.00">Kit/Io/Stdio/StdOut.h</text>
</a>
</g>
</g>
<!-- Node32&#45;&gt;Node34 -->
<g id="edge37_Node000032_Node000034" class="edge">
<title>Node32&#45;&gt;Node34</title>
<g id="a_edge37_Node000032_Node000034"><a xlink:title=" ">
<path fill="none" stroke="#63b8ff" d="M1004.02,-242.86C978.6,-230.25 940.93,-211.56 919.03,-200.7"/>
<polygon fill="#63b8ff" stroke="#63b8ff" points="1002.59,-246.06 1013.1,-247.37 1005.7,-239.79 1002.59,-246.06"/>
</a>
</g>
</g>
<!-- Node36&#45;&gt;Node37 -->
<g id="edge40_Node000036_Node000037" class="edge">
<title>Node36&#45;&gt;Node37</title>
<g id="a_edge40_Node000036_Node000037"><a xlink:title=" ">
<path fill="none" stroke="#63b8ff" d="M1436.56,-237.45C1439.19,-225.43 1442.49,-210.32 1444.55,-200.91"/>
<polygon fill="#63b8ff" stroke="#63b8ff" points="1433.11,-236.85 1434.39,-247.37 1439.94,-238.35 1433.11,-236.85"/>
</a>
</g>
</g>
<!-- Node40 -->
<g id="Node000040" class="node">
<title>Node40</title>
<g id="a_Node000040"><a xlink:href="_d_string_8h.html" target="_top" xlink:title=" ">
<polygon fill="white" stroke="#666666" points="676,-266.5 575,-266.5 575,-247.5 676,-247.5 676,-266.5"/>
<text text-anchor="middle" x="625.5" y="-254.5" font-family="Helvetica,sans-Serif" font-size="10.00">Kit/Text/DString.h</text>
</a>
</g>
</g>
<!-- Node39&#45;&gt;Node40 -->
<g id="edge45_Node000039_Node000040" class="edge">
<title>Node39&#45;&gt;Node40</title>
<g id="a_edge45_Node000039_Node000040"><a xlink:title=" ">
<path fill="none" stroke="#63b8ff" d="M732.28,-303.93C706.02,-292.64 668.17,-276.36 645.3,-266.52"/>
<polygon fill="#63b8ff" stroke="#63b8ff" points="731.16,-307.26 741.72,-307.99 733.92,-300.83 731.16,-307.26"/>
</a>
</g>
</g>
<!-- Node41 -->
<g id="Node000041" class="node">
<title>Node41</title>
<g id="a_Node000041"><a xlink:href="_f_string_base_8h.html" target="_top" xlink:title=" ">
<polygon fill="white" stroke="#666666" points="557,-266.5 434,-266.5 434,-247.5 557,-247.5 557,-266.5"/>
<text text-anchor="middle" x="495.5" y="-254.5" font-family="Helvetica,sans-Serif" font-size="10.00">Kit/Text/FStringBase.h</text>
</a>
</g>
</g>
<!-- Node39&#45;&gt;Node41 -->
<g id="edge47_Node000039_Node000041" class="edge">
<title>Node39&#45;&gt;Node41</title>
<g id="a_edge47_Node000039_Node000041"><a xlink:title=" ">
<path fill="none" stroke="#63b8ff" d="M712.95,-305.82C661.57,-294.52 581.53,-276.92 534.23,-266.52"/>
<polygon fill="#63b8ff" stroke="#63b8ff" points="712.3,-309.26 722.82,-307.99 713.81,-302.43 712.3,-309.26"/>
</a>
</g>
</g>
<!-- Node40&#45;&gt;Node7 -->
<g id="edge46_Node000040_Node000007" class="edge">
<title>Node40&#45;&gt;Node7</title>
<g id="a_edge46_Node000040_Node000007"><a xlink:title=" ">
<path fill="none" stroke="#63b8ff" d="M633.17,-237.82C638.27,-225.74 644.73,-210.41 648.74,-200.91"/>
<polygon fill="#63b8ff" stroke="#63b8ff" points="629.8,-236.79 629.14,-247.37 636.25,-239.52 629.8,-236.79"/>
</a>
</g>
</g>
<!-- Node42 -->
<g id="Node000042" class="node">
<title>Node42</title>
<g id="a_Node000042"><a xlink:href="_f_string_8h.html" target="_top" xlink:title=" ">
<polygon fill="white" stroke="#666666" points="534,-200.5 435,-200.5 435,-181.5 534,-181.5 534,-200.5"/>
<text text-anchor="middle" x="484.5" y="-188.5" font-family="Helvetica,sans-Serif" font-size="10.00">Kit/Text/FString.h</text>
</a>
</g>
</g>
<!-- Node41&#45;&gt;Node42 -->
<g id="edge48_Node000041_Node000042" class="edge">
<title>Node41&#45;&gt;Node42</title>
<g id="a_edge48_Node000041_Node000042"><a xlink:title=" ">
<path fill="none" stroke="#63b8ff" d="M492.31,-237.45C490.25,-225.43 487.65,-210.32 486.03,-200.91"/>
<polygon fill="#63b8ff" stroke="#63b8ff" points="488.87,-238.11 494.02,-247.37 495.77,-236.92 488.87,-238.11"/>
</a>
</g>
</g>
<!-- Node42&#45;&gt;Node8 -->
<g id="edge58_Node000042_Node000008" class="edge">
<title>Node42&#45;&gt;Node8</title>
<g id="a_edge58_Node000042_Node000008"><a xlink:title=" ">
<path fill="none" stroke="#63b8ff" d="M534.82,-179.34C594.21,-166.75 691.75,-146.08 746.32,-134.51"/>
<polygon fill="#63b8ff" stroke="#63b8ff" points="533.97,-175.94 524.92,-181.44 535.42,-182.79 533.97,-175.94"/>
</a>
</g>
</g>
<!-- Node43 -->
<g id="Node000043" class="node">
<title>Node43</title>
<g id="a_Node000043"><a xlink:href="_system_8h.html" target="_top" xlink:title=" ">
<polygon fill="#fff0f0" stroke="red" points="278,-134.5 167,-134.5 167,-115.5 278,-115.5 278,-134.5"/>
<text text-anchor="middle" x="222.5" y="-122.5" font-family="Helvetica,sans-Serif" font-size="10.00">Kit/Io/File/System.h</text>
</a>
</g>
</g>
<!-- Node42&#45;&gt;Node43 -->
<g id="edge49_Node000042_Node000043" class="edge">
<title>Node42&#45;&gt;Node43</title>
<g id="a_edge49_Node000042_Node000043"><a xlink:title=" ">
<path fill="none" stroke="#63b8ff" d="M439.56,-179.02C387.93,-166.41 304.31,-145.98 257.36,-134.51"/>
<polygon fill="#63b8ff" stroke="#63b8ff" points="438.89,-182.46 449.44,-181.44 440.55,-175.66 438.89,-182.46"/>
</a>
</g>
</g>
<!-- Node48 -->
<g id="Node000048" class="node">
<title>Node48</title>
<g id="a_Node000048"><a xlink:href="_socket_2_win32_2_fdio_8h.html" target="_top" xlink:title=" ">
<polygon fill="white" stroke="#666666" points="407,-140 296,-140 296,-110 407,-110 407,-140"/>
<text text-anchor="start" x="304" y="-128" font-family="Helvetica,sans-Serif" font-size="10.00">Kit/Io/Socket/Win32</text>
<text text-anchor="middle" x="351.5" y="-117" font-family="Helvetica,sans-Serif" font-size="10.00">/Fdio.h</text>
</a>
</g>
</g>
<!-- Node42&#45;&gt;Node48 -->
<g id="edge54_Node000042_Node000048" class="edge">
<title>Node42&#45;&gt;Node48</title>
<g id="a_edge54_Node000042_Node000048"><a xlink:title=" ">
<path fill="none" stroke="#63b8ff" d="M457.34,-176.93C435.09,-166.22 403.66,-151.1 380.83,-140.12"/>
<polygon fill="#63b8ff" stroke="#63b8ff" points="456.03,-180.19 466.56,-181.37 459.07,-173.88 456.03,-180.19"/>
</a>
</g>
</g>
<!-- Node49 -->
<g id="Node000049" class="node">
<title>Node49</title>
<g id="a_Node000049"><a xlink:href="_free_r_t_o_s_2_thread_8h.html" target="_top" xlink:title=" ">
<polygon fill="white" stroke="#666666" points="544,-140 425,-140 425,-110 544,-110 544,-140"/>
<text text-anchor="start" x="433" y="-128" font-family="Helvetica,sans-Serif" font-size="10.00">Kit/System/FreeRTOS</text>
<text text-anchor="middle" x="484.5" y="-117" font-family="Helvetica,sans-Serif" font-size="10.00">/Thread.h</text>
</a>
</g>
</g>
<!-- Node42&#45;&gt;Node49 -->
<g id="edge55_Node000042_Node000049" class="edge">
<title>Node42&#45;&gt;Node49</title>
<g id="a_edge55_Node000042_Node000049"><a xlink:title=" ">
<path fill="none" stroke="#63b8ff" d="M484.5,-171.35C484.5,-161.47 484.5,-149.51 484.5,-140.36"/>
<polygon fill="#63b8ff" stroke="#63b8ff" points="481,-171.37 484.5,-181.37 488,-171.37 481,-171.37"/>
</a>
</g>
</g>
<!-- Node50 -->
<g id="Node000050" class="node">
<title>Node50</title>
<g id="a_Node000050"><a xlink:href="_posix_2_thread_8h.html" target="_top" xlink:title=" ">
<polygon fill="white" stroke="#666666" points="707,-134.5 562,-134.5 562,-115.5 707,-115.5 707,-134.5"/>
<text text-anchor="middle" x="634.5" y="-122.5" font-family="Helvetica,sans-Serif" font-size="10.00">Kit/System/Posix/Thread.h</text>
</a>
</g>
</g>
<!-- Node42&#45;&gt;Node50 -->
<g id="edge56_Node000042_Node000050" class="edge">
<title>Node42&#45;&gt;Node50</title>
<g id="a_edge56_Node000042_Node000050"><a xlink:title=" ">
<path fill="none" stroke="#63b8ff" d="M514.13,-177.36C543.69,-164.75 588.31,-145.71 614.11,-134.7"/>
<polygon fill="#63b8ff" stroke="#63b8ff" points="512.55,-174.23 504.73,-181.37 515.3,-180.66 512.55,-174.23"/>
</a>
</g>
</g>
<!-- Node51 -->
<g id="Node000051" class="node">
<title>Node51</title>
<g id="a_Node000051"><a xlink:href="_win32_2_thread_8h.html" target="_top" xlink:title=" ">
<polygon fill="white" stroke="#666666" points="149,-134.5 0,-134.5 0,-115.5 149,-115.5 149,-134.5"/>
<text text-anchor="middle" x="74.5" y="-122.5" font-family="Helvetica,sans-Serif" font-size="10.00">Kit/System/Win32/Thread.h</text>
</a>
</g>
</g>
<!-- Node42&#45;&gt;Node51 -->
<g id="edge57_Node000042_Node000051" class="edge">
<title>Node42&#45;&gt;Node51</title>
<g id="a_edge57_Node000042_Node000051"><a xlink:title=" ">
<path fill="none" stroke="#63b8ff" d="M433.79,-179.5C427.31,-178.26 420.75,-177.06 414.5,-176 300.79,-156.68 271.49,-157.59 157.5,-140 146.52,-138.31 134.75,-136.38 123.62,-134.52"/>
<polygon fill="#63b8ff" stroke="#63b8ff" points="433.37,-182.98 443.86,-181.46 434.71,-176.11 433.37,-182.98"/>
</a>
</g>
</g>
<!-- Node44 -->
<g id="Node000044" class="node">
<title>Node44</title>
<g id="a_Node000044"><a xlink:href="_dir_walker_8h.html" target="_top" xlink:title=" ">
<polygon fill="white" stroke="#666666" points="235,-19 114,-19 114,0 235,0 235,-19"/>
<text text-anchor="middle" x="174.5" y="-7" font-family="Helvetica,sans-Serif" font-size="10.00">Kit/Io/File/DirWalker.h</text>
</a>
</g>
</g>
<!-- Node43&#45;&gt;Node44 -->
<g id="edge50_Node000043_Node000044" class="edge">
<title>Node43&#45;&gt;Node44</title>
<g id="a_edge50_Node000043_Node000044"><a xlink:title=" ">
<path fill="none" stroke="#63b8ff" d="M218.97,-105.19C215.91,-91 210.83,-71.27 203.5,-55 197.52,-41.72 187.87,-27.88 181.37,-19.23"/>
<polygon fill="#63b8ff" stroke="#63b8ff" points="215.58,-106.09 220.98,-115.21 222.44,-104.71 215.58,-106.09"/>
</a>
</g>
</g>
<!-- Node45 -->
<g id="Node000045" class="node">
<title>Node45</title>
<g id="a_Node000045"><a xlink:href="_i_dir_traverser_8h.html" target="_top" xlink:title=" ">
<polygon fill="white" stroke="#666666" points="194.5,-74 58.5,-74 58.5,-55 194.5,-55 194.5,-74"/>
<text text-anchor="middle" x="126.5" y="-62" font-family="Helvetica,sans-Serif" font-size="10.00">Kit/Io/File/IDirTraverser.h</text>
</a>
</g>
</g>
<!-- Node43&#45;&gt;Node45 -->
<g id="edge51_Node000043_Node000045" class="edge">
<title>Node43&#45;&gt;Node45</title>
<g id="a_edge51_Node000043_Node000045"><a xlink:title=" ">
<path fill="none" stroke="#63b8ff" d="M199.72,-110.12C181.42,-98.96 156.27,-83.64 140.72,-74.17"/>
<polygon fill="#63b8ff" stroke="#63b8ff" points="197.97,-113.15 208.33,-115.37 201.62,-107.18 197.97,-113.15"/>
</a>
</g>
</g>
<!-- Node46 -->
<g id="Node000046" class="node">
<title>Node46</title>
<g id="a_Node000046"><a xlink:href="_file_2_posix_2_fdio_8h.html" target="_top" xlink:title=" ">
<polygon fill="white" stroke="#666666" points="376,-74 251,-74 251,-55 376,-55 376,-74"/>
<text text-anchor="middle" x="313.5" y="-62" font-family="Helvetica,sans-Serif" font-size="10.00">Kit/Io/File/Posix/Fdio.h</text>
</a>
</g>
</g>
<!-- Node43&#45;&gt;Node46 -->
<g id="edge53_Node000043_Node000046" class="edge">
<title>Node43&#45;&gt;Node46</title>
<g id="a_edge53_Node000043_Node000046"><a xlink:title=" ">
<path fill="none" stroke="#63b8ff" d="M244.81,-109.66C262.1,-98.55 285.48,-83.51 300.02,-74.17"/>
<polygon fill="#63b8ff" stroke="#63b8ff" points="242.45,-107.02 235.93,-115.37 246.23,-112.9 242.45,-107.02"/>
</a>
</g>
</g>
<!-- Node45&#45;&gt;Node44 -->
<g id="edge52_Node000045_Node000044" class="edge">
<title>Node45&#45;&gt;Node44</title>
<g id="a_edge52_Node000045_Node000044"><a xlink:title=" ">
<path fill="none" stroke="#63b8ff" d="M141.23,-47.24C149.64,-37.95 159.85,-26.68 166.72,-19.09"/>
<polygon fill="#63b8ff" stroke="#63b8ff" points="138.54,-44.99 134.43,-54.75 143.73,-49.69 138.54,-44.99"/>
</a>
</g>
</g>
</g>
</svg>
