<?xml version="1.0" encoding="UTF-8" standalone="no"?>
<!DOCTYPE svg PUBLIC "-//W3C//DTD SVG 1.1//EN"
 "http://www.w3.org/Graphics/SVG/1.1/DTD/svg11.dtd">
<!-- Generated by graphviz version 2.43.0 (0)
 -->
<!-- Title: Kit/Container/ListItem.h Pages: 1 -->
<svg width="3316pt" height="346pt"
 viewBox="0.00 0.00 3315.50 346.00" xmlns="http://www.w3.org/2000/svg" xmlns:xlink="http://www.w3.org/1999/xlink">
<g id="graph0" class="graph" transform="scale(1 1) rotate(0) translate(4 342)">
<title>Kit/Container/ListItem.h</title>
<!-- Node1 -->
<g id="Node000001" class="node">
<title>Node1</title>
<g id="a_Node000001"><a xlink:title=" ">
<polygon fill="#999999" stroke="#666666" points="992,-338 860,-338 860,-319 992,-319 992,-338"/>
<text text-anchor="middle" x="926" y="-326" font-family="Helvetica,sans-Serif" font-size="10.00">Kit/Container/ListItem.h</text>
</a>
</g>
</g>
<!-- Node2 -->
<g id="Node000002" class="node">
<title>Node2</title>
<g id="a_Node000002"><a xlink:href="_d_list_base_8h.html" target="_top" xlink:title=" ">
<polygon fill="white" stroke="#666666" points="247.5,-283 106.5,-283 106.5,-264 247.5,-264 247.5,-283"/>
<text text-anchor="middle" x="177" y="-271" font-family="Helvetica,sans-Serif" font-size="10.00">Kit/Container/DListBase.h</text>
</a>
</g>
</g>
<!-- Node1&#45;&gt;Node2 -->
<g id="edge1_Node000001_Node000002" class="edge">
<title>Node1&#45;&gt;Node2</title>
<g id="a_edge1_Node000001_Node000002"><a xlink:title=" ">
<path fill="none" stroke="#63b8ff" d="M849.7,-322.46C729.41,-314.46 488.35,-298.2 284,-283 272.29,-282.13 259.87,-281.17 247.79,-280.22"/>
<polygon fill="#63b8ff" stroke="#63b8ff" points="849.69,-325.97 859.9,-323.14 850.16,-318.98 849.69,-325.97"/>
</a>
</g>
</g>
<!-- Node14 -->
<g id="Node000014" class="node">
<title>Node14</title>
<g id="a_Node000014"><a xlink:href="_keyed_item_8h.html" target="_top" xlink:title=" ">
<polygon fill="white" stroke="#666666" points="1277.5,-283 1132.5,-283 1132.5,-264 1277.5,-264 1277.5,-283"/>
<text text-anchor="middle" x="1205" y="-271" font-family="Helvetica,sans-Serif" font-size="10.00">Kit/Container/KeyedItem.h</text>
</a>
</g>
</g>
<!-- Node1&#45;&gt;Node14 -->
<g id="edge12_Node000001_Node000014" class="edge">
<title>Node1&#45;&gt;Node14</title>
<g id="a_edge12_Node000001_Node000014"><a xlink:title=" ">
<path fill="none" stroke="#63b8ff" d="M980.93,-317.07C1033.24,-307.13 1111.02,-292.35 1159.82,-283.08"/>
<polygon fill="#63b8ff" stroke="#63b8ff" points="980,-313.68 970.83,-318.98 981.3,-320.56 980,-313.68"/>
</a>
</g>
</g>
<!-- Node21 -->
<g id="Node000021" class="node">
<title>Node21</title>
<g id="a_Node000021"><a xlink:href="_s_list_base_8h.html" target="_top" xlink:title=" ">
<polygon fill="white" stroke="#666666" points="856,-283 716,-283 716,-264 856,-264 856,-283"/>
<text text-anchor="middle" x="786" y="-271" font-family="Helvetica,sans-Serif" font-size="10.00">Kit/Container/SListBase.h</text>
</a>
</g>
</g>
<!-- Node1&#45;&gt;Node21 -->
<g id="edge16_Node000001_Node000021" class="edge">
<title>Node1&#45;&gt;Node21</title>
<g id="a_edge16_Node000001_Node000021"><a xlink:title=" ">
<path fill="none" stroke="#63b8ff" d="M894.09,-315.42C868.12,-305.59 832.08,-291.95 808.9,-283.17"/>
<polygon fill="#63b8ff" stroke="#63b8ff" points="892.92,-318.72 903.51,-318.98 895.39,-312.17 892.92,-318.72"/>
</a>
</g>
</g>
<!-- Node25 -->
<g id="Node000025" class="node">
<title>Node25</title>
<g id="a_Node000025"><a xlink:href="_i_event_flag_8h.html" target="_top" xlink:title=" ">
<polygon fill="white" stroke="#666666" points="651,-156.5 517,-156.5 517,-137.5 651,-137.5 651,-156.5"/>
<text text-anchor="middle" x="584" y="-144.5" font-family="Helvetica,sans-Serif" font-size="10.00">Kit/System/IEventFlag.h</text>
</a>
</g>
</g>
<!-- Node1&#45;&gt;Node25 -->
<g id="edge35_Node000001_Node000025" class="edge">
<title>Node1&#45;&gt;Node25</title>
<g id="a_edge35_Node000001_Node000025"><a xlink:title=" ">
<path fill="none" stroke="#63b8ff" d="M849.88,-323.74C805.76,-318.8 750.51,-307.69 707,-283 649.37,-250.29 603.86,-181.01 589.09,-156.67"/>
<polygon fill="#63b8ff" stroke="#63b8ff" points="849.66,-327.24 859.97,-324.79 850.39,-320.28 849.66,-327.24"/>
</a>
</g>
</g>
<!-- Node28 -->
<g id="Node000028" class="node">
<title>Node28</title>
<g id="a_Node000028"><a xlink:href="_i_message_8h.html" target="_top" xlink:title=" ">
<polygon fill="white" stroke="#666666" points="978,-283 874,-283 874,-264 978,-264 978,-283"/>
<text text-anchor="middle" x="926" y="-271" font-family="Helvetica,sans-Serif" font-size="10.00">Kit/Itc/IMessage.h</text>
</a>
</g>
</g>
<!-- Node1&#45;&gt;Node28 -->
<g id="edge25_Node000001_Node000028" class="edge">
<title>Node1&#45;&gt;Node28</title>
<g id="a_edge25_Node000001_Node000028"><a xlink:title=" ">
<path fill="none" stroke="#63b8ff" d="M926,-308.66C926,-299.93 926,-289.99 926,-283.09"/>
<polygon fill="#63b8ff" stroke="#63b8ff" points="922.5,-308.75 926,-318.75 929.5,-308.75 922.5,-308.75"/>
</a>
</g>
</g>
<!-- Node39 -->
<g id="Node000039" class="node">
<title>Node39</title>
<g id="a_Node000039"><a xlink:href="_allocator_8h.html" target="_top" xlink:title=" ">
<polygon fill="white" stroke="#666666" points="421,-283 293,-283 293,-264 421,-264 421,-283"/>
<text text-anchor="middle" x="357" y="-271" font-family="Helvetica,sans-Serif" font-size="10.00">Kit/Memory/Allocator.h</text>
</a>
</g>
</g>
<!-- Node1&#45;&gt;Node39 -->
<g id="edge29_Node000001_Node000039" class="edge">
<title>Node1&#45;&gt;Node39</title>
<g id="a_edge29_Node000001_Node000039"><a xlink:title=" ">
<path fill="none" stroke="#63b8ff" d="M849.6,-320.38C736.59,-309.86 526.89,-290.32 421.29,-280.49"/>
<polygon fill="#63b8ff" stroke="#63b8ff" points="849.61,-323.9 859.89,-321.34 850.26,-316.93 849.61,-323.9"/>
</a>
</g>
</g>
<!-- Node42 -->
<g id="Node000042" class="node">
<title>Node42</title>
<g id="a_Node000042"><a xlink:href="_i_counter_8h.html" target="_top" xlink:title=" ">
<polygon fill="white" stroke="#666666" points="618,-283 496,-283 496,-264 618,-264 618,-283"/>
<text text-anchor="middle" x="557" y="-271" font-family="Helvetica,sans-Serif" font-size="10.00">Kit/System/ICounter.h</text>
</a>
</g>
</g>
<!-- Node1&#45;&gt;Node42 -->
<g id="edge33_Node000001_Node000042" class="edge">
<title>Node1&#45;&gt;Node42</title>
<g id="a_edge33_Node000001_Node000042"><a xlink:title=" ">
<path fill="none" stroke="#63b8ff" d="M856.76,-317.56C787.49,-307.61 682.04,-292.46 616.44,-283.04"/>
<polygon fill="#63b8ff" stroke="#63b8ff" points="856.32,-321.03 866.71,-318.98 857.31,-314.1 856.32,-321.03"/>
</a>
</g>
</g>
<!-- Node43 -->
<g id="Node000043" class="node">
<title>Node43</title>
<g id="a_Node000043"><a xlink:href="_private_startup_8h.html" target="_top" xlink:title=" ">
<polygon fill="white" stroke="#666666" points="1547,-283 1395,-283 1395,-264 1547,-264 1547,-283"/>
<text text-anchor="middle" x="1471" y="-271" font-family="Helvetica,sans-Serif" font-size="10.00">Kit/System/PrivateStartup.h</text>
</a>
</g>
</g>
<!-- Node1&#45;&gt;Node43 -->
<g id="edge36_Node000001_Node000043" class="edge">
<title>Node1&#45;&gt;Node43</title>
<g id="a_edge36_Node000001_Node000043"><a xlink:title=" ">
<path fill="none" stroke="#63b8ff" d="M1002.1,-320.1C1105.87,-310.01 1290.68,-292.04 1394.6,-281.93"/>
<polygon fill="#63b8ff" stroke="#63b8ff" points="1001.63,-316.63 992.01,-321.08 1002.3,-323.6 1001.63,-316.63"/>
</a>
</g>
</g>
<!-- Node47 -->
<g id="Node000047" class="node">
<title>Node47</title>
<g id="a_Node000047"><a xlink:href="_shutdown_8h.html" target="_top" xlink:title=" ">
<polygon fill="white" stroke="#666666" points="1801,-283 1671,-283 1671,-264 1801,-264 1801,-283"/>
<text text-anchor="middle" x="1736" y="-271" font-family="Helvetica,sans-Serif" font-size="10.00">Kit/System/Shutdown.h</text>
</a>
</g>
</g>
<!-- Node1&#45;&gt;Node47 -->
<g id="edge41_Node000001_Node000047" class="edge">
<title>Node1&#45;&gt;Node47</title>
<g id="a_edge41_Node000001_Node000047"><a xlink:title=" ">
<path fill="none" stroke="#63b8ff" d="M1002.42,-322.5C1160.82,-312.14 1522.53,-288.47 1670.78,-278.77"/>
<polygon fill="#63b8ff" stroke="#63b8ff" points="1002.04,-319.02 992.29,-323.16 1002.49,-326 1002.04,-319.02"/>
</a>
</g>
</g>
<!-- Node51 -->
<g id="Node000051" class="node">
<title>Node51</title>
<g id="a_Node000051"><a xlink:href="_thread_8h.html" target="_top" xlink:title=" ">
<polygon fill="white" stroke="#666666" points="2596,-283 2480,-283 2480,-264 2596,-264 2596,-283"/>
<text text-anchor="middle" x="2538" y="-271" font-family="Helvetica,sans-Serif" font-size="10.00">Kit/System/Thread.h</text>
</a>
</g>
</g>
<!-- Node1&#45;&gt;Node51 -->
<g id="edge45_Node000001_Node000051" class="edge">
<title>Node1&#45;&gt;Node51</title>
<g id="a_edge45_Node000001_Node000051"><a xlink:title=" ">
<path fill="none" stroke="#63b8ff" d="M1002.59,-324.98C1280.77,-315.84 2234.25,-284.49 2479.9,-276.41"/>
<polygon fill="#63b8ff" stroke="#63b8ff" points="1002.08,-321.5 992.2,-325.32 1002.31,-328.49 1002.08,-321.5"/>
</a>
</g>
</g>
<!-- Node62 -->
<g id="Node000062" class="node">
<title>Node62</title>
<g id="a_Node000062"><a xlink:href="_watched_thread_8h.html" target="_top" xlink:title=" ">
<polygon fill="white" stroke="#666666" points="1066.5,-228 945.5,-228 945.5,-198 1066.5,-198 1066.5,-228"/>
<text text-anchor="start" x="953.5" y="-216" font-family="Helvetica,sans-Serif" font-size="10.00">Kit/System/Watchdog</text>
<text text-anchor="middle" x="1006" y="-205" font-family="Helvetica,sans-Serif" font-size="10.00">/WatchedThread.h</text>
</a>
</g>
</g>
<!-- Node1&#45;&gt;Node62 -->
<g id="edge56_Node000001_Node000062" class="edge">
<title>Node1&#45;&gt;Node62</title>
<g id="a_edge56_Node000001_Node000062"><a xlink:title=" ">
<path fill="none" stroke="#63b8ff" d="M952.42,-313.73C964.57,-306.16 978.21,-295.72 987,-283 998.51,-266.34 1003.07,-242.92 1004.86,-228.11"/>
<polygon fill="#63b8ff" stroke="#63b8ff" points="950.38,-310.87 943.52,-318.94 953.92,-316.91 950.38,-310.87"/>
</a>
</g>
</g>
<!-- Node3 -->
<g id="Node000003" class="node">
<title>Node3</title>
<g id="a_Node000003"><a xlink:href="_d_list_8h.html" target="_top" xlink:title=" ">
<polygon fill="white" stroke="#666666" points="208.5,-222.5 91.5,-222.5 91.5,-203.5 208.5,-203.5 208.5,-222.5"/>
<text text-anchor="middle" x="150" y="-210.5" font-family="Helvetica,sans-Serif" font-size="10.00">Kit/Container/DList.h</text>
</a>
</g>
</g>
<!-- Node2&#45;&gt;Node3 -->
<g id="edge2_Node000002_Node000003" class="edge">
<title>Node2&#45;&gt;Node3</title>
<g id="a_edge2_Node000002_Node000003"><a xlink:title=" ">
<path fill="none" stroke="#63b8ff" d="M168.76,-254.65C163.87,-244.04 157.87,-231.06 154,-222.67"/>
<polygon fill="#63b8ff" stroke="#63b8ff" points="165.65,-256.26 173.02,-263.87 172,-253.32 165.65,-256.26"/>
</a>
</g>
</g>
<!-- Node4 -->
<g id="Node000004" class="node">
<title>Node4</title>
<g id="a_Node000004"><a xlink:href="_pool_8h.html" target="_top" xlink:title=" ">
<polygon fill="white" stroke="#666666" points="176.5,-156.5 69.5,-156.5 69.5,-137.5 176.5,-137.5 176.5,-156.5"/>
<text text-anchor="middle" x="123" y="-144.5" font-family="Helvetica,sans-Serif" font-size="10.00">Kit/Memory/Pool.h</text>
</a>
</g>
</g>
<!-- Node3&#45;&gt;Node4 -->
<g id="edge3_Node000003_Node000004" class="edge">
<title>Node3&#45;&gt;Node4</title>
<g id="a_edge3_Node000003_Node000004"><a xlink:title=" ">
<path fill="none" stroke="#63b8ff" d="M142.33,-193.82C137.23,-181.74 130.77,-166.41 126.76,-156.91"/>
<polygon fill="#63b8ff" stroke="#63b8ff" points="139.25,-195.52 146.36,-203.37 145.7,-192.79 139.25,-195.52"/>
</a>
</g>
</g>
<!-- Node7 -->
<g id="Node000007" class="node">
<title>Node7</title>
<g id="a_Node000007"><a xlink:href="_timer_manager_8h.html" target="_top" xlink:title=" ">
<polygon fill="white" stroke="#666666" points="499,-156.5 347,-156.5 347,-137.5 499,-137.5 499,-156.5"/>
<text text-anchor="middle" x="423" y="-144.5" font-family="Helvetica,sans-Serif" font-size="10.00">Kit/System/TimerManager.h</text>
</a>
</g>
</g>
<!-- Node3&#45;&gt;Node7 -->
<g id="edge6_Node000003_Node000007" class="edge">
<title>Node3&#45;&gt;Node7</title>
<g id="a_edge6_Node000003_Node000007"><a xlink:title=" ">
<path fill="none" stroke="#63b8ff" d="M196.49,-201.1C250.26,-188.49 337.66,-168.01 386.68,-156.51"/>
<polygon fill="#63b8ff" stroke="#63b8ff" points="195.47,-197.74 186.53,-203.44 197.07,-204.56 195.47,-197.74"/>
</a>
</g>
</g>
<!-- Node5 -->
<g id="Node000005" class="node">
<title>Node5</title>
<g id="a_Node000005"><a xlink:href="_h_pool_8h.html" target="_top" xlink:title=" ">
<polygon fill="white" stroke="#666666" points="114,-90.5 0,-90.5 0,-71.5 114,-71.5 114,-90.5"/>
<text text-anchor="middle" x="57" y="-78.5" font-family="Helvetica,sans-Serif" font-size="10.00">Kit/Memory/HPool.h</text>
</a>
</g>
</g>
<!-- Node4&#45;&gt;Node5 -->
<g id="edge4_Node000004_Node000005" class="edge">
<title>Node4&#45;&gt;Node5</title>
<g id="a_edge4_Node000004_Node000005"><a xlink:title=" ">
<path fill="none" stroke="#63b8ff" d="M106.84,-130.33C94.06,-117.94 76.68,-101.09 66.18,-90.91"/>
<polygon fill="#63b8ff" stroke="#63b8ff" points="104.48,-132.92 114.1,-137.37 109.36,-127.89 104.48,-132.92"/>
</a>
</g>
</g>
<!-- Node6 -->
<g id="Node000006" class="node">
<title>Node6</title>
<g id="a_Node000006"><a xlink:href="_s_pool_8h.html" target="_top" xlink:title=" ">
<polygon fill="white" stroke="#666666" points="245.5,-90.5 132.5,-90.5 132.5,-71.5 245.5,-71.5 245.5,-90.5"/>
<text text-anchor="middle" x="189" y="-78.5" font-family="Helvetica,sans-Serif" font-size="10.00">Kit/Memory/SPool.h</text>
</a>
</g>
</g>
<!-- Node4&#45;&gt;Node6 -->
<g id="edge5_Node000004_Node000006" class="edge">
<title>Node4&#45;&gt;Node6</title>
<g id="a_edge5_Node000004_Node000006"><a xlink:title=" ">
<path fill="none" stroke="#63b8ff" d="M139.16,-130.33C151.94,-117.94 169.32,-101.09 179.82,-90.91"/>
<polygon fill="#63b8ff" stroke="#63b8ff" points="136.64,-127.89 131.9,-137.37 141.52,-132.92 136.64,-127.89"/>
</a>
</g>
</g>
<!-- Node8 -->
<g id="Node000008" class="node">
<title>Node8</title>
<g id="a_Node000008"><a xlink:href="_event_loop_8h.html" target="_top" xlink:title=" ">
<polygon fill="white" stroke="#666666" points="650.5,-90.5 517.5,-90.5 517.5,-71.5 650.5,-71.5 650.5,-90.5"/>
<text text-anchor="middle" x="584" y="-78.5" font-family="Helvetica,sans-Serif" font-size="10.00">Kit/System/EventLoop.h</text>
</a>
</g>
</g>
<!-- Node7&#45;&gt;Node8 -->
<g id="edge7_Node000007_Node000008" class="edge">
<title>Node7&#45;&gt;Node8</title>
<g id="a_edge7_Node000007_Node000008"><a xlink:title=" ">
<path fill="none" stroke="#63b8ff" d="M454.42,-133.51C486.24,-120.86 534.61,-101.63 562.37,-90.6"/>
<polygon fill="#63b8ff" stroke="#63b8ff" points="452.71,-130.42 444.71,-137.37 455.3,-136.93 452.71,-130.42"/>
</a>
</g>
</g>
<!-- Node12 -->
<g id="Node000012" class="node">
<title>Node12</title>
<g id="a_Node000012"><a xlink:href="_timer_8h.html" target="_top" xlink:title=" ">
<polygon fill="white" stroke="#666666" points="902,-90.5 792,-90.5 792,-71.5 902,-71.5 902,-90.5"/>
<text text-anchor="middle" x="847" y="-78.5" font-family="Helvetica,sans-Serif" font-size="10.00">Kit/System/Timer.h</text>
</a>
</g>
</g>
<!-- Node7&#45;&gt;Node12 -->
<g id="edge10_Node000007_Node000012" class="edge">
<title>Node7&#45;&gt;Node12</title>
<g id="a_edge10_Node000007_Node000012"><a xlink:title=" ">
<path fill="none" stroke="#63b8ff" d="M483.66,-135.88C491.84,-134.55 500.12,-133.23 508,-132 607.92,-116.4 724.63,-99.47 791.76,-89.86"/>
<polygon fill="#63b8ff" stroke="#63b8ff" points="483.07,-132.43 473.77,-137.5 484.2,-139.34 483.07,-132.43"/>
</a>
</g>
</g>
<!-- Node9 -->
<g id="Node000009" class="node">
<title>Node9</title>
<g id="a_Node000009"><a xlink:href="_server_8h.html" target="_top" xlink:title=" ">
<polygon fill="#fff0f0" stroke="red" points="829.5,-24.5 694.5,-24.5 694.5,-5.5 829.5,-5.5 829.5,-24.5"/>
<text text-anchor="middle" x="762" y="-12.5" font-family="Helvetica,sans-Serif" font-size="10.00">Kit/EventQueue/Server.h</text>
</a>
</g>
</g>
<!-- Node8&#45;&gt;Node9 -->
<g id="edge8_Node000008_Node000009" class="edge">
<title>Node8&#45;&gt;Node9</title>
<g id="a_edge8_Node000008_Node000009"><a xlink:title=" ">
<path fill="none" stroke="#63b8ff" d="M617.82,-67.84C652.99,-55.2 707.13,-35.73 738.09,-24.6"/>
<polygon fill="#63b8ff" stroke="#63b8ff" points="616.23,-64.69 608.01,-71.37 618.6,-71.28 616.23,-64.69"/>
</a>
</g>
</g>
<!-- Node11 -->
<g id="Node000011" class="node">
<title>Node11</title>
<g id="a_Node000011"><a xlink:href="_event_loop_with_p_scheduling_8h.html" target="_top" xlink:title=" ">
<polygon fill="white" stroke="#666666" points="657,-30 511,-30 511,0 657,0 657,-30"/>
<text text-anchor="start" x="519" y="-18" font-family="Helvetica,sans-Serif" font-size="10.00">Kit/System/EventLoopWith</text>
<text text-anchor="middle" x="584" y="-7" font-family="Helvetica,sans-Serif" font-size="10.00">PScheduling.h</text>
</a>
</g>
</g>
<!-- Node8&#45;&gt;Node11 -->
<g id="edge9_Node000008_Node000011" class="edge">
<title>Node8&#45;&gt;Node11</title>
<g id="a_edge9_Node000008_Node000011"><a xlink:title=" ">
<path fill="none" stroke="#63b8ff" d="M584,-61.35C584,-51.47 584,-39.51 584,-30.36"/>
<polygon fill="#63b8ff" stroke="#63b8ff" points="580.5,-61.37 584,-71.37 587.5,-61.37 580.5,-61.37"/>
</a>
</g>
</g>
<!-- Node13 -->
<g id="Node000013" class="node">
<title>Node13</title>
<g id="a_Node000013"><a xlink:href="_watched_event_thread_8h.html" target="_top" xlink:title=" ">
<polygon fill="white" stroke="#666666" points="1077,-30 945,-30 945,0 1077,0 1077,-30"/>
<text text-anchor="start" x="953" y="-18" font-family="Helvetica,sans-Serif" font-size="10.00">Kit/System/Watchdog</text>
<text text-anchor="middle" x="1011" y="-7" font-family="Helvetica,sans-Serif" font-size="10.00">/WatchedEventThread.h</text>
</a>
</g>
</g>
<!-- Node12&#45;&gt;Node13 -->
<g id="edge11_Node000012_Node000013" class="edge">
<title>Node12&#45;&gt;Node13</title>
<g id="a_edge11_Node000012_Node000013"><a xlink:title=" ">
<path fill="none" stroke="#63b8ff" d="M878.66,-67.65C906.18,-56.9 946.05,-41.35 974.83,-30.12"/>
<polygon fill="#63b8ff" stroke="#63b8ff" points="877.16,-64.47 869.12,-71.37 879.71,-70.99 877.16,-64.47"/>
</a>
</g>
</g>
<!-- Node15 -->
<g id="Node000015" class="node">
<title>Node15</title>
<g id="a_Node000015"><a xlink:href="_map_item_8h.html" target="_top" xlink:title=" ">
<polygon fill="white" stroke="#666666" points="1371,-222.5 1235,-222.5 1235,-203.5 1371,-203.5 1371,-222.5"/>
<text text-anchor="middle" x="1303" y="-210.5" font-family="Helvetica,sans-Serif" font-size="10.00">Kit/Container/MapItem.h</text>
</a>
</g>
</g>
<!-- Node14&#45;&gt;Node15 -->
<g id="edge13_Node000014_Node000015" class="edge">
<title>Node14&#45;&gt;Node15</title>
<g id="a_edge13_Node000014_Node000015"><a xlink:title=" ">
<path fill="none" stroke="#63b8ff" d="M1228.25,-258.62C1246.94,-247.46 1272.61,-232.14 1288.48,-222.67"/>
<polygon fill="#63b8ff" stroke="#63b8ff" points="1226.25,-255.74 1219.46,-263.87 1229.84,-261.75 1226.25,-255.74"/>
</a>
</g>
</g>
<!-- Node16 -->
<g id="Node000016" class="node">
<title>Node16</title>
<g id="a_Node000016"><a xlink:href="_avl_tree___8h.html" target="_top" xlink:title=" ">
<polygon fill="#fff0f0" stroke="red" points="1412.5,-156.5 1279.5,-156.5 1279.5,-137.5 1412.5,-137.5 1412.5,-156.5"/>
<text text-anchor="middle" x="1346" y="-144.5" font-family="Helvetica,sans-Serif" font-size="10.00">Kit/Container/AvlTree_.h</text>
</a>
</g>
</g>
<!-- Node15&#45;&gt;Node16 -->
<g id="edge14_Node000015_Node000016" class="edge">
<title>Node15&#45;&gt;Node16</title>
<g id="a_edge14_Node000015_Node000016"><a xlink:title=" ">
<path fill="none" stroke="#63b8ff" d="M1314.48,-194.91C1322.7,-182.68 1333.44,-166.7 1340.02,-156.91"/>
<polygon fill="#63b8ff" stroke="#63b8ff" points="1311.47,-193.12 1308.8,-203.37 1317.28,-197.02 1311.47,-193.12"/>
</a>
</g>
</g>
<!-- Node18 -->
<g id="Node000018" class="node">
<title>Node18</title>
<g id="a_Node000018"><a xlink:href="_string_item_8h.html" target="_top" xlink:title=" ">
<polygon fill="#fff0f0" stroke="red" points="1547,-156.5 1431,-156.5 1431,-137.5 1547,-137.5 1547,-156.5"/>
<text text-anchor="middle" x="1489" y="-144.5" font-family="Helvetica,sans-Serif" font-size="10.00">Kit/Text/StringItem.h</text>
</a>
</g>
</g>
<!-- Node15&#45;&gt;Node18 -->
<g id="edge15_Node000015_Node000018" class="edge">
<title>Node15&#45;&gt;Node18</title>
<g id="a_edge15_Node000015_Node000018"><a xlink:title=" ">
<path fill="none" stroke="#63b8ff" d="M1337.87,-200C1374.6,-187.36 1431.53,-167.78 1464.02,-156.6"/>
<polygon fill="#63b8ff" stroke="#63b8ff" points="1336.4,-196.81 1328.08,-203.37 1338.68,-203.42 1336.4,-196.81"/>
</a>
</g>
</g>
<!-- Node22 -->
<g id="Node000022" class="node">
<title>Node22</title>
<g id="a_Node000022"><a xlink:href="_s_list_8h.html" target="_top" xlink:title=" ">
<polygon fill="white" stroke="#666666" points="844,-222.5 728,-222.5 728,-203.5 844,-203.5 844,-222.5"/>
<text text-anchor="middle" x="786" y="-210.5" font-family="Helvetica,sans-Serif" font-size="10.00">Kit/Container/SList.h</text>
</a>
</g>
</g>
<!-- Node21&#45;&gt;Node22 -->
<g id="edge17_Node000021_Node000022" class="edge">
<title>Node21&#45;&gt;Node22</title>
<g id="a_edge17_Node000021_Node000022"><a xlink:title=" ">
<path fill="none" stroke="#63b8ff" d="M786,-253.66C786,-243.24 786,-230.8 786,-222.67"/>
<polygon fill="#63b8ff" stroke="#63b8ff" points="782.5,-253.87 786,-263.87 789.5,-253.87 782.5,-253.87"/>
</a>
</g>
</g>
<!-- Node23 -->
<g id="Node000023" class="node">
<title>Node23</title>
<g id="a_Node000023"><a xlink:href="_tee_output_8h.html" target="_top" xlink:title=" ">
<polygon fill="white" stroke="#666666" points="773,-156.5 669,-156.5 669,-137.5 773,-137.5 773,-156.5"/>
<text text-anchor="middle" x="721" y="-144.5" font-family="Helvetica,sans-Serif" font-size="10.00">Kit/Io/TeeOutput.h</text>
</a>
</g>
</g>
<!-- Node22&#45;&gt;Node23 -->
<g id="edge18_Node000022_Node000023" class="edge">
<title>Node22&#45;&gt;Node23</title>
<g id="a_edge18_Node000022_Node000023"><a xlink:title=" ">
<path fill="none" stroke="#63b8ff" d="M770.08,-196.33C757.5,-183.94 740.38,-167.09 730.04,-156.91"/>
<polygon fill="#63b8ff" stroke="#63b8ff" points="767.65,-198.85 777.23,-203.37 772.56,-193.86 767.65,-198.85"/>
</a>
</g>
</g>
<!-- Node24 -->
<g id="Node000024" class="node">
<title>Node24</title>
<g id="a_Node000024"><a xlink:href="_mailbox_8h.html" target="_top" xlink:title=" ">
<polygon fill="white" stroke="#666666" points="887,-156.5 791,-156.5 791,-137.5 887,-137.5 887,-156.5"/>
<text text-anchor="middle" x="839" y="-144.5" font-family="Helvetica,sans-Serif" font-size="10.00">Kit/Itc/Mailbox.h</text>
</a>
</g>
</g>
<!-- Node22&#45;&gt;Node24 -->
<g id="edge19_Node000022_Node000024" class="edge">
<title>Node22&#45;&gt;Node24</title>
<g id="a_edge19_Node000022_Node000024"><a xlink:title=" ">
<path fill="none" stroke="#63b8ff" d="M799.56,-195.62C809.76,-183.31 823.35,-166.89 831.63,-156.91"/>
<polygon fill="#63b8ff" stroke="#63b8ff" points="796.83,-193.43 793.15,-203.37 802.22,-197.9 796.83,-193.43"/>
</a>
</g>
</g>
<!-- Node22&#45;&gt;Node25 -->
<g id="edge21_Node000022_Node000025" class="edge">
<title>Node22&#45;&gt;Node25</title>
<g id="a_edge21_Node000022_Node000025"><a xlink:title=" ">
<path fill="none" stroke="#63b8ff" d="M749.15,-200.32C709.3,-187.7 646.72,-167.87 611.13,-156.6"/>
<polygon fill="#63b8ff" stroke="#63b8ff" points="748.17,-203.68 758.76,-203.37 750.28,-197.01 748.17,-203.68"/>
</a>
</g>
</g>
<!-- Node26 -->
<g id="Node000026" class="node">
<title>Node26</title>
<g id="a_Node000026"><a xlink:href="_supervisor_8h.html" target="_top" xlink:title=" ">
<polygon fill="white" stroke="#666666" points="1026.5,-162 905.5,-162 905.5,-132 1026.5,-132 1026.5,-162"/>
<text text-anchor="start" x="913.5" y="-150" font-family="Helvetica,sans-Serif" font-size="10.00">Kit/System/Watchdog</text>
<text text-anchor="middle" x="966" y="-139" font-family="Helvetica,sans-Serif" font-size="10.00">/Supervisor.h</text>
</a>
</g>
</g>
<!-- Node22&#45;&gt;Node26 -->
<g id="edge23_Node000022_Node000026" class="edge">
<title>Node22&#45;&gt;Node26</title>
<g id="a_edge23_Node000022_Node000026"><a xlink:title=" ">
<path fill="none" stroke="#63b8ff" d="M819.95,-199.93C850.19,-189.18 894.44,-173.44 926.3,-162.12"/>
<polygon fill="#63b8ff" stroke="#63b8ff" points="818.53,-196.72 810.28,-203.37 820.87,-203.32 818.53,-196.72"/>
</a>
</g>
</g>
<!-- Node24&#45;&gt;Node9 -->
<g id="edge20_Node000024_Node000009" class="edge">
<title>Node24&#45;&gt;Node9</title>
<g id="a_edge20_Node000024_Node000009"><a xlink:title=" ">
<path fill="none" stroke="#63b8ff" d="M816.95,-131.23C805.25,-122.32 791.57,-110 783,-96 768.76,-72.73 764.09,-39.93 762.63,-24.57"/>
<polygon fill="#63b8ff" stroke="#63b8ff" points="815.24,-134.31 825.39,-137.35 819.35,-128.65 815.24,-134.31"/>
</a>
</g>
</g>
<!-- Node25&#45;&gt;Node8 -->
<g id="edge22_Node000025_Node000008" class="edge">
<title>Node25&#45;&gt;Node8</title>
<g id="a_edge22_Node000025_Node000008"><a xlink:title=" ">
<path fill="none" stroke="#63b8ff" d="M584,-127.08C584,-115.13 584,-100.22 584,-90.91"/>
<polygon fill="#63b8ff" stroke="#63b8ff" points="580.5,-127.37 584,-137.37 587.5,-127.37 580.5,-127.37"/>
</a>
</g>
</g>
<!-- Node27 -->
<g id="Node000027" class="node">
<title>Node27</title>
<g id="a_Node000027"><a xlink:href="_watched_raw_thread_8h.html" target="_top" xlink:title=" ">
<polygon fill="white" stroke="#666666" points="1046.5,-96 921.5,-96 921.5,-66 1046.5,-66 1046.5,-96"/>
<text text-anchor="start" x="929.5" y="-84" font-family="Helvetica,sans-Serif" font-size="10.00">Kit/System/Watchdog</text>
<text text-anchor="middle" x="984" y="-73" font-family="Helvetica,sans-Serif" font-size="10.00">/WatchedRawThread.h</text>
</a>
</g>
</g>
<!-- Node26&#45;&gt;Node27 -->
<g id="edge24_Node000026_Node000027" class="edge">
<title>Node26&#45;&gt;Node27</title>
<g id="a_edge24_Node000026_Node000027"><a xlink:title=" ">
<path fill="none" stroke="#63b8ff" d="M972.72,-122.11C975.18,-113.38 977.87,-103.78 980.02,-96.16"/>
<polygon fill="#63b8ff" stroke="#63b8ff" points="969.33,-121.22 969.99,-131.8 976.07,-123.12 969.33,-121.22"/>
</a>
</g>
</g>
<!-- Node28&#45;&gt;Node24 -->
<g id="edge26_Node000028_Node000024" class="edge">
<title>Node28&#45;&gt;Node24</title>
<g id="a_edge26_Node000028_Node000024"><a xlink:title=" ">
<path fill="none" stroke="#63b8ff" d="M914.15,-255.54C895.32,-228.6 859.28,-177.02 845.02,-156.62"/>
<polygon fill="#63b8ff" stroke="#63b8ff" points="911.42,-257.75 920.02,-263.94 917.16,-253.74 911.42,-257.75"/>
</a>
</g>
</g>
<!-- Node29 -->
<g id="Node000029" class="node">
<title>Node29</title>
<g id="a_Node000029"><a xlink:href="_server_message_8h.html" target="_top" xlink:title=" ">
<polygon fill="white" stroke="#666666" points="1217,-222.5 1085,-222.5 1085,-203.5 1217,-203.5 1217,-222.5"/>
<text text-anchor="middle" x="1151" y="-210.5" font-family="Helvetica,sans-Serif" font-size="10.00">Kit/Itc/ServerMessage.h</text>
</a>
</g>
</g>
<!-- Node28&#45;&gt;Node29 -->
<g id="edge27_Node000028_Node000029" class="edge">
<title>Node28&#45;&gt;Node29</title>
<g id="a_edge27_Node000028_Node000029"><a xlink:title=" ">
<path fill="none" stroke="#63b8ff" d="M968.44,-261.47C1011.93,-250.16 1078.65,-232.81 1118.24,-222.52"/>
<polygon fill="#63b8ff" stroke="#63b8ff" points="967.51,-258.09 958.72,-263.99 969.28,-264.86 967.51,-258.09"/>
</a>
</g>
</g>
<!-- Node30 -->
<g id="Node000030" class="node">
<title>Node30</title>
<g id="a_Node000030"><a xlink:href="_request_message_8h.html" target="_top" xlink:title=" ">
<polygon fill="#fff0f0" stroke="red" points="1261,-156.5 1121,-156.5 1121,-137.5 1261,-137.5 1261,-156.5"/>
<text text-anchor="middle" x="1191" y="-144.5" font-family="Helvetica,sans-Serif" font-size="10.00">Kit/Itc/RequestMessage.h</text>
</a>
</g>
</g>
<!-- Node29&#45;&gt;Node30 -->
<g id="edge28_Node000029_Node000030" class="edge">
<title>Node29&#45;&gt;Node30</title>
<g id="a_edge28_Node000029_Node000030"><a xlink:title=" ">
<path fill="none" stroke="#63b8ff" d="M1161.91,-194.55C1169.52,-182.36 1179.37,-166.61 1185.43,-156.91"/>
<polygon fill="#63b8ff" stroke="#63b8ff" points="1158.73,-193.03 1156.39,-203.37 1164.66,-196.74 1158.73,-193.03"/>
</a>
</g>
</g>
<!-- Node39&#45;&gt;Node4 -->
<g id="edge32_Node000039_Node000004" class="edge">
<title>Node39&#45;&gt;Node4</title>
<g id="a_edge32_Node000039_Node000004"><a xlink:title=" ">
<path fill="none" stroke="#63b8ff" d="M323.94,-260.28C303.72,-252.24 277.67,-240.85 256,-228 237.19,-216.84 235.38,-209.84 217,-198 191.67,-181.68 160.49,-165.87 141.17,-156.54"/>
<polygon fill="#63b8ff" stroke="#63b8ff" points="322.76,-263.58 333.35,-263.95 325.31,-257.06 322.76,-263.58"/>
</a>
</g>
</g>
<!-- Node40 -->
<g id="Node000040" class="node">
<title>Node40</title>
<g id="a_Node000040"><a xlink:href="_contiguous_allocator_8h.html" target="_top" xlink:title=" ">
<polygon fill="white" stroke="#666666" points="448.5,-222.5 265.5,-222.5 265.5,-203.5 448.5,-203.5 448.5,-222.5"/>
<text text-anchor="middle" x="357" y="-210.5" font-family="Helvetica,sans-Serif" font-size="10.00">Kit/Memory/ContiguousAllocator.h</text>
</a>
</g>
</g>
<!-- Node39&#45;&gt;Node40 -->
<g id="edge30_Node000039_Node000040" class="edge">
<title>Node39&#45;&gt;Node40</title>
<g id="a_edge30_Node000039_Node000040"><a xlink:title=" ">
<path fill="none" stroke="#63b8ff" d="M357,-253.66C357,-243.24 357,-230.8 357,-222.67"/>
<polygon fill="#63b8ff" stroke="#63b8ff" points="353.5,-253.87 357,-263.87 360.5,-253.87 353.5,-253.87"/>
</a>
</g>
</g>
<!-- Node41 -->
<g id="Node000041" class="node">
<title>Node41</title>
<g id="a_Node000041"><a xlink:href="_lean_heap_8h.html" target="_top" xlink:title=" ">
<polygon fill="white" stroke="#666666" points="329,-156.5 195,-156.5 195,-137.5 329,-137.5 329,-156.5"/>
<text text-anchor="middle" x="262" y="-144.5" font-family="Helvetica,sans-Serif" font-size="10.00">Kit/Memory/LeanHeap.h</text>
</a>
</g>
</g>
<!-- Node40&#45;&gt;Node41 -->
<g id="edge31_Node000040_Node000041" class="edge">
<title>Node40&#45;&gt;Node41</title>
<g id="a_edge31_Node000040_Node000041"><a xlink:title=" ">
<path fill="none" stroke="#63b8ff" d="M335.74,-197.68C317.08,-185.11 290.54,-167.23 274.91,-156.7"/>
<polygon fill="#63b8ff" stroke="#63b8ff" points="333.94,-200.68 344.19,-203.37 337.85,-194.88 333.94,-200.68"/>
</a>
</g>
</g>
<!-- Node42&#45;&gt;Node7 -->
<g id="edge34_Node000042_Node000007" class="edge">
<title>Node42&#45;&gt;Node7</title>
<g id="a_edge34_Node000042_Node000007"><a xlink:title=" ">
<path fill="none" stroke="#63b8ff" d="M540.24,-256.92C511.7,-230.41 454.62,-177.38 432.27,-156.62"/>
<polygon fill="#63b8ff" stroke="#63b8ff" points="538.08,-259.7 547.79,-263.94 542.85,-254.57 538.08,-259.7"/>
</a>
</g>
</g>
<!-- Node44 -->
<g id="Node000044" class="node">
<title>Node44</title>
<g id="a_Node000044"><a xlink:href="mutex__t___8h.html" target="_top" xlink:title=" ">
<polygon fill="white" stroke="#666666" points="1553,-222.5 1389,-222.5 1389,-203.5 1553,-203.5 1553,-222.5"/>
<text text-anchor="middle" x="1471" y="-210.5" font-family="Helvetica,sans-Serif" font-size="10.00">Kit/System/RPPico/mutex_t_.h</text>
</a>
</g>
</g>
<!-- Node43&#45;&gt;Node44 -->
<g id="edge37_Node000043_Node000044" class="edge">
<title>Node43&#45;&gt;Node44</title>
<g id="a_edge37_Node000043_Node000044"><a xlink:title=" ">
<path fill="none" stroke="#63b8ff" d="M1471,-253.66C1471,-243.24 1471,-230.8 1471,-222.67"/>
<polygon fill="#63b8ff" stroke="#63b8ff" points="1467.5,-253.87 1471,-263.87 1474.5,-253.87 1467.5,-253.87"/>
</a>
</g>
</g>
<!-- Node46 -->
<g id="Node000046" class="node">
<title>Node46</title>
<g id="a_Node000046"><a xlink:href="semaphore__t___8h.html" target="_top" xlink:title=" ">
<polygon fill="white" stroke="#666666" points="1758.5,-222.5 1571.5,-222.5 1571.5,-203.5 1758.5,-203.5 1758.5,-222.5"/>
<text text-anchor="middle" x="1665" y="-210.5" font-family="Helvetica,sans-Serif" font-size="10.00">Kit/System/RPPico/semaphore_t_.h</text>
</a>
</g>
</g>
<!-- Node43&#45;&gt;Node46 -->
<g id="edge39_Node000043_Node000046" class="edge">
<title>Node43&#45;&gt;Node46</title>
<g id="a_edge39_Node000043_Node000046"><a xlink:title=" ">
<path fill="none" stroke="#63b8ff" d="M1509.26,-260.96C1546.78,-249.65 1603.12,-232.66 1636.76,-222.52"/>
<polygon fill="#63b8ff" stroke="#63b8ff" points="1507.77,-257.76 1499.21,-263.99 1509.79,-264.46 1507.77,-257.76"/>
</a>
</g>
</g>
<!-- Node45 -->
<g id="Node000045" class="node">
<title>Node45</title>
<g id="a_Node000045"><a xlink:href="_r_p_pico_2mappings_8h.html" target="_top" xlink:title="This file provides the mappings for Platform specific types, etc.">
<polygon fill="white" stroke="#666666" points="1731,-156.5 1565,-156.5 1565,-137.5 1731,-137.5 1731,-156.5"/>
<text text-anchor="middle" x="1648" y="-144.5" font-family="Helvetica,sans-Serif" font-size="10.00">Kit/System/RPPico/mappings.h</text>
</a>
</g>
</g>
<!-- Node44&#45;&gt;Node45 -->
<g id="edge38_Node000044_Node000045" class="edge">
<title>Node44&#45;&gt;Node45</title>
<g id="a_edge38_Node000044_Node000045"><a xlink:title=" ">
<path fill="none" stroke="#63b8ff" d="M1504.63,-199.84C1539.6,-187.2 1593.44,-167.73 1624.23,-156.6"/>
<polygon fill="#63b8ff" stroke="#63b8ff" points="1503.08,-196.68 1494.87,-203.37 1505.47,-203.26 1503.08,-196.68"/>
</a>
</g>
</g>
<!-- Node46&#45;&gt;Node45 -->
<g id="edge40_Node000046_Node000045" class="edge">
<title>Node46&#45;&gt;Node45</title>
<g id="a_edge40_Node000046_Node000045"><a xlink:title=" ">
<path fill="none" stroke="#63b8ff" d="M1660.07,-193.45C1656.88,-181.43 1652.87,-166.32 1650.37,-156.91"/>
<polygon fill="#63b8ff" stroke="#63b8ff" points="1656.76,-194.6 1662.71,-203.37 1663.52,-192.81 1656.76,-194.6"/>
</a>
</g>
</g>
<!-- Node48 -->
<g id="Node000048" class="node">
<title>Node48</title>
<g id="a_Node000048"><a xlink:href="_fatal_error_8h.html" target="_top" xlink:title=" ">
<polygon fill="white" stroke="#666666" points="1905,-222.5 1777,-222.5 1777,-203.5 1905,-203.5 1905,-222.5"/>
<text text-anchor="middle" x="1841" y="-210.5" font-family="Helvetica,sans-Serif" font-size="10.00">Kit/System/FatalError.h</text>
</a>
</g>
</g>
<!-- Node47&#45;&gt;Node48 -->
<g id="edge42_Node000047_Node000048" class="edge">
<title>Node47&#45;&gt;Node48</title>
<g id="a_edge42_Node000047_Node000048"><a xlink:title=" ">
<path fill="none" stroke="#63b8ff" d="M1760.37,-258.92C1780.43,-247.74 1808.28,-232.23 1825.44,-222.67"/>
<polygon fill="#63b8ff" stroke="#63b8ff" points="1758.53,-255.94 1751.49,-263.87 1761.93,-262.06 1758.53,-255.94"/>
</a>
</g>
</g>
<!-- Node49 -->
<g id="Node000049" class="node">
<title>Node49</title>
<g id="a_Node000049"><a xlink:href="_posix_2mappings_8h.html" target="_top" xlink:title="This file provides the mappings for Platform specific types, etc.">
<polygon fill="white" stroke="#666666" points="1908.5,-156.5 1749.5,-156.5 1749.5,-137.5 1908.5,-137.5 1908.5,-156.5"/>
<text text-anchor="middle" x="1829" y="-144.5" font-family="Helvetica,sans-Serif" font-size="10.00">Kit/System/Posix/mappings.h</text>
</a>
</g>
</g>
<!-- Node48&#45;&gt;Node49 -->
<g id="edge43_Node000048_Node000049" class="edge">
<title>Node48&#45;&gt;Node49</title>
<g id="a_edge43_Node000048_Node000049"><a xlink:title=" ">
<path fill="none" stroke="#63b8ff" d="M1837.52,-193.45C1835.27,-181.43 1832.43,-166.32 1830.67,-156.91"/>
<polygon fill="#63b8ff" stroke="#63b8ff" points="1834.1,-194.18 1839.38,-203.37 1840.98,-192.89 1834.1,-194.18"/>
</a>
</g>
</g>
<!-- Node50 -->
<g id="Node000050" class="node">
<title>Node50</title>
<g id="a_Node000050"><a xlink:href="_win32_2mappings_8h.html" target="_top" xlink:title="This file provides the mappings for Platform specific types, etc.">
<polygon fill="white" stroke="#666666" points="2091,-156.5 1927,-156.5 1927,-137.5 2091,-137.5 2091,-156.5"/>
<text text-anchor="middle" x="2009" y="-144.5" font-family="Helvetica,sans-Serif" font-size="10.00">Kit/System/Win32/mappings.h</text>
</a>
</g>
</g>
<!-- Node48&#45;&gt;Node50 -->
<g id="edge44_Node000048_Node000050" class="edge">
<title>Node48&#45;&gt;Node50</title>
<g id="a_edge44_Node000048_Node000050"><a xlink:title=" ">
<path fill="none" stroke="#63b8ff" d="M1873.35,-199.68C1906.55,-187.03 1957.34,-167.68 1986.43,-156.6"/>
<polygon fill="#63b8ff" stroke="#63b8ff" points="1871.76,-196.54 1863.66,-203.37 1874.25,-203.08 1871.76,-196.54"/>
</a>
</g>
</g>
<!-- Node52 -->
<g id="Node000052" class="node">
<title>Node52</title>
<g id="a_Node000052"><a xlink:href="_serial_2_r_pi_2_r_p2xxx_2_uart_2_input_output_8h.html" target="_top" xlink:title=" ">
<polygon fill="white" stroke="#666666" points="2078.5,-228 1947.5,-228 1947.5,-198 2078.5,-198 2078.5,-228"/>
<text text-anchor="start" x="1955.5" y="-216" font-family="Helvetica,sans-Serif" font-size="10.00">Kit/Io/Serial/RPi/RP2xxx</text>
<text text-anchor="middle" x="2013" y="-205" font-family="Helvetica,sans-Serif" font-size="10.00">/Uart/InputOutput.h</text>
</a>
</g>
</g>
<!-- Node51&#45;&gt;Node52 -->
<g id="edge46_Node000051_Node000052" class="edge">
<title>Node51&#45;&gt;Node52</title>
<g id="a_edge46_Node000051_Node000052"><a xlink:title=" ">
<path fill="none" stroke="#63b8ff" d="M2469.76,-267.59C2381.4,-260.81 2222.76,-247.2 2088,-228 2084.98,-227.57 2081.9,-227.1 2078.8,-226.61"/>
<polygon fill="#63b8ff" stroke="#63b8ff" points="2469.68,-271.09 2479.91,-268.36 2470.21,-264.11 2469.68,-271.09"/>
</a>
</g>
</g>
<!-- Node53 -->
<g id="Node000053" class="node">
<title>Node53</title>
<g id="a_Node000053"><a xlink:href="_stream_driver_8h.html" target="_top" xlink:title=" ">
<polygon fill="white" stroke="#666666" points="2221,-228 2097,-228 2097,-198 2221,-198 2221,-228"/>
<text text-anchor="start" x="2105" y="-216" font-family="Helvetica,sans-Serif" font-size="10.00">Kit/Io/Serial/ST/M32F4</text>
<text text-anchor="middle" x="2159" y="-205" font-family="Helvetica,sans-Serif" font-size="10.00">/StreamDriver.h</text>
</a>
</g>
</g>
<!-- Node51&#45;&gt;Node53 -->
<g id="edge47_Node000051_Node000053" class="edge">
<title>Node51&#45;&gt;Node53</title>
<g id="a_edge47_Node000051_Node000053"><a xlink:title=" ">
<path fill="none" stroke="#63b8ff" d="M2469.83,-263.67C2407.31,-255.33 2312.23,-242.04 2230,-228 2227.15,-227.51 2224.24,-227 2221.3,-226.47"/>
<polygon fill="#63b8ff" stroke="#63b8ff" points="2469.59,-267.17 2479.96,-265.02 2470.51,-260.23 2469.59,-267.17"/>
</a>
</g>
</g>
<!-- Node55 -->
<g id="Node000055" class="node">
<title>Node55</title>
<g id="a_Node000055"><a xlink:href="_sync_return_handler_8h.html" target="_top" xlink:title=" ">
<polygon fill="white" stroke="#666666" points="2389,-222.5 2239,-222.5 2239,-203.5 2389,-203.5 2389,-222.5"/>
<text text-anchor="middle" x="2314" y="-210.5" font-family="Helvetica,sans-Serif" font-size="10.00">Kit/Itc/SyncReturnHandler.h</text>
</a>
</g>
</g>
<!-- Node51&#45;&gt;Node55 -->
<g id="edge49_Node000051_Node000055" class="edge">
<title>Node51&#45;&gt;Node55</title>
<g id="a_edge49_Node000051_Node000055"><a xlink:title=" ">
<path fill="none" stroke="#63b8ff" d="M2495.48,-261.4C2452.17,-250.08 2385.95,-232.79 2346.61,-222.52"/>
<polygon fill="#63b8ff" stroke="#63b8ff" points="2494.87,-264.85 2505.43,-263.99 2496.64,-258.08 2494.87,-264.85"/>
</a>
</g>
</g>
<!-- Node56 -->
<g id="Node000056" class="node">
<title>Node56</title>
<g id="a_Node000056"><a xlink:href="_bare_metal_2_thread_8h.html" target="_top" xlink:title=" ">
<polygon fill="white" stroke="#666666" points="2530.5,-228 2407.5,-228 2407.5,-198 2530.5,-198 2530.5,-228"/>
<text text-anchor="start" x="2415.5" y="-216" font-family="Helvetica,sans-Serif" font-size="10.00">Kit/System/BareMetal</text>
<text text-anchor="middle" x="2469" y="-205" font-family="Helvetica,sans-Serif" font-size="10.00">/Thread.h</text>
</a>
</g>
</g>
<!-- Node51&#45;&gt;Node56 -->
<g id="edge50_Node000051_Node000056" class="edge">
<title>Node51&#45;&gt;Node56</title>
<g id="a_edge50_Node000051_Node000056"><a xlink:title=" ">
<path fill="none" stroke="#63b8ff" d="M2519.99,-257.23C2509.37,-248.23 2496.02,-236.91 2485.65,-228.11"/>
<polygon fill="#63b8ff" stroke="#63b8ff" points="2517.93,-260.07 2527.82,-263.87 2522.45,-254.73 2517.93,-260.07"/>
</a>
</g>
</g>
<!-- Node57 -->
<g id="Node000057" class="node">
<title>Node57</title>
<g id="a_Node000057"><a xlink:href="_free_r_t_o_s_2_thread_8h.html" target="_top" xlink:title=" ">
<polygon fill="white" stroke="#666666" points="2667.5,-228 2548.5,-228 2548.5,-198 2667.5,-198 2667.5,-228"/>
<text text-anchor="start" x="2556.5" y="-216" font-family="Helvetica,sans-Serif" font-size="10.00">Kit/System/FreeRTOS</text>
<text text-anchor="middle" x="2608" y="-205" font-family="Helvetica,sans-Serif" font-size="10.00">/Thread.h</text>
</a>
</g>
</g>
<!-- Node51&#45;&gt;Node57 -->
<g id="edge51_Node000051_Node000057" class="edge">
<title>Node51&#45;&gt;Node57</title>
<g id="a_edge51_Node000051_Node000057"><a xlink:title=" ">
<path fill="none" stroke="#63b8ff" d="M2556.27,-257.23C2567.04,-248.23 2580.58,-236.91 2591.11,-228.11"/>
<polygon fill="#63b8ff" stroke="#63b8ff" points="2553.76,-254.77 2548.33,-263.87 2558.25,-260.14 2553.76,-254.77"/>
</a>
</g>
</g>
<!-- Node58 -->
<g id="Node000058" class="node">
<title>Node58</title>
<g id="a_Node000058"><a xlink:href="_posix_2_thread_8h.html" target="_top" xlink:title=" ">
<polygon fill="white" stroke="#666666" points="2830.5,-222.5 2685.5,-222.5 2685.5,-203.5 2830.5,-203.5 2830.5,-222.5"/>
<text text-anchor="middle" x="2758" y="-210.5" font-family="Helvetica,sans-Serif" font-size="10.00">Kit/System/Posix/Thread.h</text>
</a>
</g>
</g>
<!-- Node51&#45;&gt;Node58 -->
<g id="edge52_Node000051_Node000058" class="edge">
<title>Node51&#45;&gt;Node58</title>
<g id="a_edge52_Node000051_Node000058"><a xlink:title=" ">
<path fill="none" stroke="#63b8ff" d="M2579.76,-261.4C2622.3,-250.08 2687.34,-232.79 2725.97,-222.52"/>
<polygon fill="#63b8ff" stroke="#63b8ff" points="2578.75,-258.04 2569.99,-263.99 2580.55,-264.81 2578.75,-258.04"/>
</a>
</g>
</g>
<!-- Node59 -->
<g id="Node000059" class="node">
<title>Node59</title>
<g id="a_Node000059"><a xlink:href="_r_p_pico_2_thread_8h.html" target="_top" xlink:title=" ">
<polygon fill="white" stroke="#666666" points="3001,-222.5 2849,-222.5 2849,-203.5 3001,-203.5 3001,-222.5"/>
<text text-anchor="middle" x="2925" y="-210.5" font-family="Helvetica,sans-Serif" font-size="10.00">Kit/System/RPPico/Thread.h</text>
</a>
</g>
</g>
<!-- Node51&#45;&gt;Node59 -->
<g id="edge53_Node000051_Node000059" class="edge">
<title>Node51&#45;&gt;Node59</title>
<g id="a_edge53_Node000051_Node000059"><a xlink:title=" ">
<path fill="none" stroke="#63b8ff" d="M2606.15,-262.79C2667.39,-253.99 2759.77,-240.52 2840,-228 2851.08,-226.27 2862.97,-224.35 2874.23,-222.51"/>
<polygon fill="#63b8ff" stroke="#63b8ff" points="2605.62,-259.33 2596.22,-264.22 2606.62,-266.26 2605.62,-259.33"/>
</a>
</g>
</g>
<!-- Node60 -->
<g id="Node000060" class="node">
<title>Node60</title>
<g id="a_Node000060"><a xlink:href="_sim_tick_8h.html" target="_top" xlink:title=" ">
<polygon fill="white" stroke="#666666" points="3140.5,-222.5 3019.5,-222.5 3019.5,-203.5 3140.5,-203.5 3140.5,-222.5"/>
<text text-anchor="middle" x="3080" y="-210.5" font-family="Helvetica,sans-Serif" font-size="10.00">Kit/System/SimTick.h</text>
</a>
</g>
</g>
<!-- Node51&#45;&gt;Node60 -->
<g id="edge54_Node000051_Node000060" class="edge">
<title>Node51&#45;&gt;Node60</title>
<g id="a_edge54_Node000051_Node000060"><a xlink:title=" ">
<path fill="none" stroke="#63b8ff" d="M2606.39,-268.28C2698.44,-262.09 2867.14,-248.96 3010,-228 3020.05,-226.52 3030.85,-224.56 3040.88,-222.57"/>
<polygon fill="#63b8ff" stroke="#63b8ff" points="2606.11,-264.79 2596.36,-268.95 2606.57,-271.78 2606.11,-264.79"/>
</a>
</g>
</g>
<!-- Node61 -->
<g id="Node000061" class="node">
<title>Node61</title>
<g id="a_Node000061"><a xlink:href="_win32_2_thread_8h.html" target="_top" xlink:title=" ">
<polygon fill="white" stroke="#666666" points="3307.5,-222.5 3158.5,-222.5 3158.5,-203.5 3307.5,-203.5 3307.5,-222.5"/>
<text text-anchor="middle" x="3233" y="-210.5" font-family="Helvetica,sans-Serif" font-size="10.00">Kit/System/Win32/Thread.h</text>
</a>
</g>
</g>
<!-- Node51&#45;&gt;Node61 -->
<g id="edge55_Node000051_Node000061" class="edge">
<title>Node51&#45;&gt;Node61</title>
<g id="a_edge55_Node000051_Node000061"><a xlink:title=" ">
<path fill="none" stroke="#63b8ff" d="M2606.67,-269.63C2720.09,-264.41 2953.59,-251.65 3150,-228 3162.04,-226.55 3175,-224.57 3187.01,-222.55"/>
<polygon fill="#63b8ff" stroke="#63b8ff" points="2606.23,-266.14 2596.4,-270.09 2606.55,-273.14 2606.23,-266.14"/>
</a>
</g>
</g>
<!-- Node54 -->
<g id="Node000054" class="node">
<title>Node54</title>
<g id="a_Node000054"><a xlink:href="_serial_2_s_t_2_m32_f4_2_input_output_8h.html" target="_top" xlink:title=" ">
<polygon fill="white" stroke="#666666" points="2233,-162 2109,-162 2109,-132 2233,-132 2233,-162"/>
<text text-anchor="start" x="2117" y="-150" font-family="Helvetica,sans-Serif" font-size="10.00">Kit/Io/Serial/ST/M32F4</text>
<text text-anchor="middle" x="2171" y="-139" font-family="Helvetica,sans-Serif" font-size="10.00">/InputOutput.h</text>
</a>
</g>
</g>
<!-- Node53&#45;&gt;Node54 -->
<g id="edge48_Node000053_Node000054" class="edge">
<title>Node53&#45;&gt;Node54</title>
<g id="a_edge48_Node000053_Node000054"><a xlink:title=" ">
<path fill="none" stroke="#63b8ff" d="M2163.53,-187.83C2165.16,-179.17 2166.93,-169.7 2168.34,-162.16"/>
<polygon fill="#63b8ff" stroke="#63b8ff" points="2160.07,-187.32 2161.66,-197.8 2166.95,-188.61 2160.07,-187.32"/>
</a>
</g>
</g>
<!-- Node62&#45;&gt;Node13 -->
<g id="edge58_Node000062_Node000013" class="edge">
<title>Node62&#45;&gt;Node13</title>
<g id="a_edge58_Node000062_Node000013"><a xlink:title=" ">
<path fill="none" stroke="#63b8ff" d="M1031.33,-190.31C1039.03,-182.26 1046.6,-172.5 1051,-162 1062.35,-134.89 1054.11,-125.37 1055,-96 1055.4,-82.67 1059.71,-78.47 1055,-66 1049.69,-51.94 1038.43,-39.26 1028.63,-30.19"/>
<polygon fill="#63b8ff" stroke="#63b8ff" points="1028.41,-188.27 1023.71,-197.76 1033.31,-193.27 1028.41,-188.27"/>
</a>
</g>
</g>
<!-- Node62&#45;&gt;Node26 -->
<g id="edge57_Node000062_Node000026" class="edge">
<title>Node62&#45;&gt;Node26</title>
<g id="a_edge57_Node000062_Node000026"><a xlink:title=" ">
<path fill="none" stroke="#63b8ff" d="M991.78,-189.24C986.13,-180.21 979.82,-170.11 974.85,-162.16"/>
<polygon fill="#63b8ff" stroke="#63b8ff" points="988.85,-191.17 997.12,-197.8 994.79,-187.46 988.85,-191.17"/>
</a>
</g>
</g>
<!-- Node62&#45;&gt;Node27 -->
<g id="edge59_Node000062_Node000027" class="edge">
<title>Node62&#45;&gt;Node27</title>
<g id="a_edge59_Node000062_Node000027"><a xlink:title=" ">
<path fill="none" stroke="#63b8ff" d="M1023.2,-189.67C1033.46,-173.49 1043.06,-151.19 1035,-132 1028.85,-117.37 1016.1,-104.87 1004.89,-96.03"/>
<polygon fill="#63b8ff" stroke="#63b8ff" points="1020.29,-187.73 1017.54,-197.96 1026.07,-191.68 1020.29,-187.73"/>
</a>
</g>
</g>
</g>
</svg>
