<?xml version="1.0" encoding="UTF-8" standalone="no"?>
<!DOCTYPE svg PUBLIC "-//W3C//DTD SVG 1.1//EN"
 "http://www.w3.org/Graphics/SVG/1.1/DTD/svg11.dtd">
<!-- Generated by graphviz version 2.43.0 (0)
 -->
<!-- Title: Kit/Io/Socket/ListenerRunnable.h Pages: 1 -->
<svg width="515pt" height="302pt"
 viewBox="0.00 0.00 514.50 302.00" xmlns="http://www.w3.org/2000/svg" xmlns:xlink="http://www.w3.org/1999/xlink">
<g id="graph0" class="graph" transform="scale(1 1) rotate(0) translate(4 298)">
<title>Kit/Io/Socket/ListenerRunnable.h</title>
<!-- Node1 -->
<g id="Node000001" class="node">
<title>Node1</title>
<g id="a_Node000001"><a xlink:title=" ">
<polygon fill="#999999" stroke="#666666" points="303,-294 129,-294 129,-275 303,-275 303,-294"/>
<text text-anchor="middle" x="216" y="-282" font-family="Helvetica,sans-Serif" font-size="10.00">Kit/Io/Socket/ListenerRunnable.h</text>
</a>
</g>
</g>
<!-- Node2 -->
<g id="Node000002" class="node">
<title>Node2</title>
<g id="a_Node000002"><a xlink:title=" ">
<polygon fill="#e0e0e0" stroke="#999999" points="101.5,-19 28.5,-19 28.5,0 101.5,0 101.5,-19"/>
<text text-anchor="middle" x="65" y="-7" font-family="Helvetica,sans-Serif" font-size="10.00">kit_config.h</text>
</a>
</g>
</g>
<!-- Node1&#45;&gt;Node2 -->
<g id="edge1_Node000001_Node000002" class="edge">
<title>Node1&#45;&gt;Node2</title>
<g id="a_edge1_Node000001_Node000002"><a xlink:title=" ">
<path fill="none" stroke="#63b8ff" d="M131.87,-274.95C71.22,-263.59 0,-237.13 0,-175.5 0,-175.5 0,-175.5 0,-118.5 0,-81.38 28.54,-46.03 47.8,-26.41"/>
<polygon fill="#63b8ff" stroke="#63b8ff" points="50.43,-28.73 55.13,-19.23 45.53,-23.72 50.43,-28.73"/>
</a>
</g>
</g>
<!-- Node3 -->
<g id="Node000003" class="node">
<title>Node3</title>
<g id="a_Node000003"><a xlink:href="_i_listener_8h.html" target="_top" xlink:title=" ">
<polygon fill="white" stroke="#666666" points="180.5,-239 49.5,-239 49.5,-220 180.5,-220 180.5,-239"/>
<text text-anchor="middle" x="115" y="-227" font-family="Helvetica,sans-Serif" font-size="10.00">Kit/Io/Socket/IListener.h</text>
</a>
</g>
</g>
<!-- Node1&#45;&gt;Node3 -->
<g id="edge2_Node000001_Node000003" class="edge">
<title>Node1&#45;&gt;Node3</title>
<g id="a_edge2_Node000001_Node000003"><a xlink:title=" ">
<path fill="none" stroke="#63b8ff" d="M199.77,-274.98C183.82,-266.61 159.22,-253.7 140.62,-243.95"/>
<polygon fill="#63b8ff" stroke="#63b8ff" points="142,-240.72 131.52,-239.17 138.75,-246.92 142,-240.72"/>
</a>
</g>
</g>
<!-- Node5 -->
<g id="Node000005" class="node">
<title>Node5</title>
<g id="a_Node000005"><a xlink:href="_io_2types_8h.html" target="_top" xlink:title=" ">
<polygon fill="white" stroke="#666666" points="208,-129 126,-129 126,-110 208,-110 208,-129"/>
<text text-anchor="middle" x="167" y="-117" font-family="Helvetica,sans-Serif" font-size="10.00">Kit/Io/Types.h</text>
</a>
</g>
</g>
<!-- Node1&#45;&gt;Node5 -->
<g id="edge11_Node000001_Node000005" class="edge">
<title>Node1&#45;&gt;Node5</title>
<g id="a_edge11_Node000001_Node000005"><a xlink:title=" ">
<path fill="none" stroke="#63b8ff" d="M215.88,-274.84C215.32,-254.79 212.38,-203.95 197,-165 193.07,-155.05 186.63,-145.08 180.73,-137.1"/>
<polygon fill="#63b8ff" stroke="#63b8ff" points="183.36,-134.78 174.45,-129.05 177.84,-139.09 183.36,-134.78"/>
</a>
</g>
</g>
<!-- Node9 -->
<g id="Node000009" class="node">
<title>Node9</title>
<g id="a_Node000009"><a xlink:href="_i_runnable_8h.html" target="_top" xlink:title=" ">
<polygon fill="white" stroke="#666666" points="375.5,-239 244.5,-239 244.5,-220 375.5,-220 375.5,-239"/>
<text text-anchor="middle" x="310" y="-227" font-family="Helvetica,sans-Serif" font-size="10.00">Kit/System/IRunnable.h</text>
</a>
</g>
</g>
<!-- Node1&#45;&gt;Node9 -->
<g id="edge12_Node000001_Node000009" class="edge">
<title>Node1&#45;&gt;Node9</title>
<g id="a_edge12_Node000001_Node000009"><a xlink:title=" ">
<path fill="none" stroke="#63b8ff" d="M231.1,-274.98C245.82,-266.69 268.42,-253.94 285.67,-244.22"/>
<polygon fill="#63b8ff" stroke="#63b8ff" points="287.63,-247.13 294.62,-239.17 284.19,-241.03 287.63,-247.13"/>
</a>
</g>
</g>
<!-- Node10 -->
<g id="Node000010" class="node">
<title>Node10</title>
<g id="a_Node000010"><a xlink:href="_mutex_8h.html" target="_top" xlink:title=" ">
<polygon fill="white" stroke="#666666" points="506.5,-239 393.5,-239 393.5,-220 506.5,-220 506.5,-239"/>
<text text-anchor="middle" x="450" y="-227" font-family="Helvetica,sans-Serif" font-size="10.00">Kit/System/Mutex.h</text>
</a>
</g>
</g>
<!-- Node1&#45;&gt;Node10 -->
<g id="edge13_Node000001_Node000010" class="edge">
<title>Node1&#45;&gt;Node10</title>
<g id="a_edge13_Node000001_Node000010"><a xlink:title=" ">
<path fill="none" stroke="#63b8ff" d="M253.6,-274.98C293.99,-265.84 358.28,-251.27 402.23,-241.32"/>
<polygon fill="#63b8ff" stroke="#63b8ff" points="403.13,-244.7 412.11,-239.08 401.58,-237.88 403.13,-244.7"/>
</a>
</g>
</g>
<!-- Node4 -->
<g id="Node000004" class="node">
<title>Node4</title>
<g id="a_Node000004"><a xlink:href="_i_listener_client_8h.html" target="_top" xlink:title=" ">
<polygon fill="white" stroke="#666666" points="188,-184 28,-184 28,-165 188,-165 188,-184"/>
<text text-anchor="middle" x="108" y="-172" font-family="Helvetica,sans-Serif" font-size="10.00">Kit/Io/Socket/IListenerClient.h</text>
</a>
</g>
</g>
<!-- Node3&#45;&gt;Node4 -->
<g id="edge3_Node000003_Node000004" class="edge">
<title>Node3&#45;&gt;Node4</title>
<g id="a_edge3_Node000003_Node000004"><a xlink:title=" ">
<path fill="none" stroke="#63b8ff" d="M113.84,-219.75C112.93,-212.8 111.61,-202.85 110.46,-194.13"/>
<polygon fill="#63b8ff" stroke="#63b8ff" points="113.91,-193.54 109.13,-184.09 106.97,-194.46 113.91,-193.54"/>
</a>
</g>
</g>
<!-- Node4&#45;&gt;Node5 -->
<g id="edge4_Node000004_Node000005" class="edge">
<title>Node4&#45;&gt;Node5</title>
<g id="a_edge4_Node000004_Node000005"><a xlink:title=" ">
<path fill="none" stroke="#63b8ff" d="M117.48,-164.98C126.2,-157.15 139.34,-145.34 149.9,-135.86"/>
<polygon fill="#63b8ff" stroke="#63b8ff" points="152.25,-138.46 157.35,-129.17 147.57,-133.25 152.25,-138.46"/>
</a>
</g>
</g>
<!-- Node5&#45;&gt;Node2 -->
<g id="edge5_Node000005_Node000002" class="edge">
<title>Node5&#45;&gt;Node2</title>
<g id="a_edge5_Node000005_Node000002"><a xlink:title=" ">
<path fill="none" stroke="#63b8ff" d="M139.45,-109.99C121.27,-103.04 98.27,-91.48 84,-74 73.65,-61.33 68.94,-43.14 66.79,-29.48"/>
<polygon fill="#63b8ff" stroke="#63b8ff" points="70.23,-28.78 65.52,-19.28 63.28,-29.64 70.23,-28.78"/>
</a>
</g>
</g>
<!-- Node6 -->
<g id="Node000006" class="node">
<title>Node6</title>
<g id="a_Node000006"><a xlink:title=" ">
<polygon fill="#e0e0e0" stroke="#999999" points="354.5,-74 289.5,-74 289.5,-55 354.5,-55 354.5,-74"/>
<text text-anchor="middle" x="322" y="-62" font-family="Helvetica,sans-Serif" font-size="10.00">kit_map.h</text>
</a>
</g>
</g>
<!-- Node5&#45;&gt;Node6 -->
<g id="edge6_Node000005_Node000006" class="edge">
<title>Node5&#45;&gt;Node6</title>
<g id="a_edge6_Node000005_Node000006"><a xlink:title=" ">
<path fill="none" stroke="#63b8ff" d="M191.9,-109.98C217.7,-101.16 258.22,-87.31 287.18,-77.41"/>
<polygon fill="#63b8ff" stroke="#63b8ff" points="288.57,-80.63 296.9,-74.08 286.31,-74.01 288.57,-80.63"/>
</a>
</g>
</g>
<!-- Node7 -->
<g id="Node000007" class="node">
<title>Node7</title>
<g id="a_Node000007"><a xlink:href="_s_size_8h.html" target="_top" xlink:title=" ">
<polygon fill="white" stroke="#666666" points="187,-74 93,-74 93,-55 187,-55 187,-74"/>
<text text-anchor="middle" x="140" y="-62" font-family="Helvetica,sans-Serif" font-size="10.00">Kit/Type/SSize.h</text>
</a>
</g>
</g>
<!-- Node5&#45;&gt;Node7 -->
<g id="edge7_Node000005_Node000007" class="edge">
<title>Node5&#45;&gt;Node7</title>
<g id="a_edge7_Node000005_Node000007"><a xlink:title=" ">
<path fill="none" stroke="#63b8ff" d="M162.54,-109.75C158.88,-102.57 153.59,-92.18 149.05,-83.27"/>
<polygon fill="#63b8ff" stroke="#63b8ff" points="152.03,-81.41 144.38,-74.09 145.8,-84.59 152.03,-81.41"/>
</a>
</g>
</g>
<!-- Node8 -->
<g id="Node000008" class="node">
<title>Node8</title>
<g id="a_Node000008"><a xlink:title=" ">
<polygon fill="#e0e0e0" stroke="#999999" points="206.5,-19 153.5,-19 153.5,0 206.5,0 206.5,-19"/>
<text text-anchor="middle" x="180" y="-7" font-family="Helvetica,sans-Serif" font-size="10.00">stdint.h</text>
</a>
</g>
</g>
<!-- Node5&#45;&gt;Node8 -->
<g id="edge10_Node000005_Node000008" class="edge">
<title>Node5&#45;&gt;Node8</title>
<g id="a_edge10_Node000005_Node000008"><a xlink:title=" ">
<path fill="none" stroke="#63b8ff" d="M174.94,-109.75C182.03,-101.3 191.9,-87.79 196,-74 200.55,-58.69 195.29,-41.07 189.62,-28.28"/>
<polygon fill="#63b8ff" stroke="#63b8ff" points="192.7,-26.63 185.16,-19.19 186.42,-29.71 192.7,-26.63"/>
</a>
</g>
</g>
<!-- Node7&#45;&gt;Node2 -->
<g id="edge8_Node000007_Node000002" class="edge">
<title>Node7&#45;&gt;Node2</title>
<g id="a_edge8_Node000007_Node000002"><a xlink:title=" ">
<path fill="none" stroke="#63b8ff" d="M127.95,-54.98C116.54,-46.92 99.17,-34.65 85.57,-25.03"/>
<polygon fill="#63b8ff" stroke="#63b8ff" points="87.46,-22.08 77.27,-19.17 83.42,-27.8 87.46,-22.08"/>
</a>
</g>
</g>
<!-- Node7&#45;&gt;Node8 -->
<g id="edge9_Node000007_Node000008" class="edge">
<title>Node7&#45;&gt;Node8</title>
<g id="a_edge9_Node000007_Node000008"><a xlink:title=" ">
<path fill="none" stroke="#63b8ff" d="M146.61,-54.75C152.26,-47.26 160.54,-36.28 167.45,-27.13"/>
<polygon fill="#63b8ff" stroke="#63b8ff" points="170.29,-29.18 173.52,-19.09 164.7,-24.96 170.29,-29.18"/>
</a>
</g>
</g>
<!-- Node10&#45;&gt;Node6 -->
<g id="edge15_Node000010_Node000006" class="edge">
<title>Node10&#45;&gt;Node6</title>
<g id="a_edge15_Node000010_Node000006"><a xlink:title=" ">
<path fill="none" stroke="#63b8ff" d="M443.29,-219.97C436.24,-211.02 424.84,-196.52 415,-184 386.47,-147.69 353.06,-105.1 335.07,-82.16"/>
<polygon fill="#63b8ff" stroke="#63b8ff" points="337.69,-79.83 328.76,-74.13 332.18,-84.15 337.69,-79.83"/>
</a>
</g>
</g>
<!-- Node11 -->
<g id="Node000011" class="node">
<title>Node11</title>
<g id="a_Node000011"><a xlink:title=" ">
<polygon fill="#e0e0e0" stroke="#999999" points="476.5,-184 423.5,-184 423.5,-165 476.5,-165 476.5,-184"/>
<text text-anchor="middle" x="450" y="-172" font-family="Helvetica,sans-Serif" font-size="10.00">stdlib.h</text>
</a>
</g>
</g>
<!-- Node10&#45;&gt;Node11 -->
<g id="edge14_Node000010_Node000011" class="edge">
<title>Node10&#45;&gt;Node11</title>
<g id="a_edge14_Node000010_Node000011"><a xlink:title=" ">
<path fill="none" stroke="#63b8ff" d="M450,-219.75C450,-212.8 450,-202.85 450,-194.13"/>
<polygon fill="#63b8ff" stroke="#63b8ff" points="453.5,-194.09 450,-184.09 446.5,-194.09 453.5,-194.09"/>
</a>
</g>
</g>
</g>
</svg>
