<?xml version="1.0" encoding="UTF-8" standalone="no"?>
<!DOCTYPE svg PUBLIC "-//W3C//DTD SVG 1.1//EN"
 "http://www.w3.org/Graphics/SVG/1.1/DTD/svg11.dtd">
<!-- Generated by graphviz version 2.43.0 (0)
 -->
<!-- Title: Kit/Io/Socket/ListenerClientSync.h Pages: 1 -->
<svg width="715pt" height="379pt"
 viewBox="0.00 0.00 714.50 379.00" xmlns="http://www.w3.org/2000/svg" xmlns:xlink="http://www.w3.org/1999/xlink">
<g id="graph0" class="graph" transform="scale(1 1) rotate(0) translate(4 375)">
<title>Kit/Io/Socket/ListenerClientSync.h</title>
<!-- Node1 -->
<g id="Node000001" class="node">
<title>Node1</title>
<g id="a_Node000001"><a xlink:title=" ">
<polygon fill="#999999" stroke="#666666" points="249.5,-371 101.5,-371 101.5,-341 249.5,-341 249.5,-371"/>
<text text-anchor="start" x="109.5" y="-359" font-family="Helvetica,sans-Serif" font-size="10.00">Kit/Io/Socket/ListenerClient</text>
<text text-anchor="middle" x="175.5" y="-348" font-family="Helvetica,sans-Serif" font-size="10.00">Sync.h</text>
</a>
</g>
</g>
<!-- Node2 -->
<g id="Node000002" class="node">
<title>Node2</title>
<g id="a_Node000002"><a xlink:href="_i_listener_client_8h.html" target="_top" xlink:title=" ">
<polygon fill="white" stroke="#666666" points="201.5,-299.5 41.5,-299.5 41.5,-280.5 201.5,-280.5 201.5,-299.5"/>
<text text-anchor="middle" x="121.5" y="-287.5" font-family="Helvetica,sans-Serif" font-size="10.00">Kit/Io/Socket/IListenerClient.h</text>
</a>
</g>
</g>
<!-- Node1&#45;&gt;Node2 -->
<g id="edge1_Node000001_Node000002" class="edge">
<title>Node1&#45;&gt;Node2</title>
<g id="a_edge1_Node000001_Node000002"><a xlink:title=" ">
<path fill="none" stroke="#63b8ff" d="M163.52,-340.8C155.26,-331.01 144.26,-317.98 135.59,-307.7"/>
<polygon fill="#63b8ff" stroke="#63b8ff" points="138.09,-305.23 128.96,-299.84 132.74,-309.74 138.09,-305.23"/>
</a>
</g>
</g>
<!-- Node3 -->
<g id="Node000003" class="node">
<title>Node3</title>
<g id="a_Node000003"><a xlink:href="_io_2_types_8h.html" target="_top" xlink:title=" ">
<polygon fill="white" stroke="#666666" points="150.5,-239 68.5,-239 68.5,-220 150.5,-220 150.5,-239"/>
<text text-anchor="middle" x="109.5" y="-227" font-family="Helvetica,sans-Serif" font-size="10.00">Kit/Io/Types.h</text>
</a>
</g>
</g>
<!-- Node1&#45;&gt;Node3 -->
<g id="edge21_Node000001_Node000003" class="edge">
<title>Node1&#45;&gt;Node3</title>
<g id="a_edge21_Node000001_Node000003"><a xlink:title=" ">
<path fill="none" stroke="#63b8ff" d="M101.24,-346.74C75.16,-339.86 48.41,-327.41 32.5,-305 24.78,-294.13 25.84,-286.55 32.5,-275 40.92,-260.41 56.15,-250.17 70.85,-243.23"/>
<polygon fill="#63b8ff" stroke="#63b8ff" points="72.57,-246.3 80.36,-239.13 69.79,-239.87 72.57,-246.3"/>
</a>
</g>
</g>
<!-- Node7 -->
<g id="Node000007" class="node">
<title>Node7</title>
<g id="a_Node000007"><a xlink:href="_i_listener_client_request_8h.html" target="_top" xlink:title=" ">
<polygon fill="white" stroke="#666666" points="409,-305 258,-305 258,-275 409,-275 409,-305"/>
<text text-anchor="start" x="266" y="-293" font-family="Helvetica,sans-Serif" font-size="10.00">Kit/Io/Socket/IListenerClient</text>
<text text-anchor="middle" x="333.5" y="-282" font-family="Helvetica,sans-Serif" font-size="10.00">Request.h</text>
</a>
</g>
</g>
<!-- Node1&#45;&gt;Node7 -->
<g id="edge6_Node000001_Node000007" class="edge">
<title>Node1&#45;&gt;Node7</title>
<g id="a_edge6_Node000001_Node000007"><a xlink:title=" ">
<path fill="none" stroke="#63b8ff" d="M210.17,-340.95C233.53,-331.49 264.54,-318.93 289.61,-308.78"/>
<polygon fill="#63b8ff" stroke="#63b8ff" points="290.95,-312.01 298.91,-305.01 288.32,-305.52 290.95,-312.01"/>
</a>
</g>
</g>
<!-- Node15 -->
<g id="Node000015" class="node">
<title>Node15</title>
<g id="a_Node000015"><a xlink:href="_i_queue_8h.html" target="_top" xlink:title=" ">
<polygon fill="white" stroke="#666666" points="299,-129 160,-129 160,-110 299,-110 299,-129"/>
<text text-anchor="middle" x="229.5" y="-117" font-family="Helvetica,sans-Serif" font-size="10.00">Kit/EventQueue/IQueue.h</text>
</a>
</g>
</g>
<!-- Node1&#45;&gt;Node15 -->
<g id="edge20_Node000001_Node000015" class="edge">
<title>Node1&#45;&gt;Node15</title>
<g id="a_edge20_Node000001_Node000015"><a xlink:title=" ">
<path fill="none" stroke="#63b8ff" d="M188.39,-340.82C196.19,-331.38 205.54,-318.3 210.5,-305 231.82,-247.78 231.98,-174.09 230.63,-139.73"/>
<polygon fill="#63b8ff" stroke="#63b8ff" points="234.1,-139.13 230.12,-129.31 227.11,-139.47 234.1,-139.13"/>
</a>
</g>
</g>
<!-- Node2&#45;&gt;Node3 -->
<g id="edge2_Node000002_Node000003" class="edge">
<title>Node2&#45;&gt;Node3</title>
<g id="a_edge2_Node000002_Node000003"><a xlink:title=" ">
<path fill="none" stroke="#63b8ff" d="M119.73,-280.37C118.05,-272.16 115.46,-259.54 113.31,-249.05"/>
<polygon fill="#63b8ff" stroke="#63b8ff" points="116.72,-248.26 111.28,-239.17 109.86,-249.67 116.72,-248.26"/>
</a>
</g>
</g>
<!-- Node4 -->
<g id="Node000004" class="node">
<title>Node4</title>
<g id="a_Node000004"><a xlink:title=" ">
<polygon fill="#e0e0e0" stroke="#999999" points="73,-74 0,-74 0,-55 73,-55 73,-74"/>
<text text-anchor="middle" x="36.5" y="-62" font-family="Helvetica,sans-Serif" font-size="10.00">kit_config.h</text>
</a>
</g>
</g>
<!-- Node3&#45;&gt;Node4 -->
<g id="edge3_Node000003_Node000004" class="edge">
<title>Node3&#45;&gt;Node4</title>
<g id="a_edge3_Node000003_Node000004"><a xlink:title=" ">
<path fill="none" stroke="#63b8ff" d="M93.8,-219.91C81.31,-212.2 64.5,-199.71 55.5,-184 37.44,-152.47 35.17,-108.91 35.55,-84.34"/>
<polygon fill="#63b8ff" stroke="#63b8ff" points="39.06,-84.33 35.89,-74.22 32.06,-84.1 39.06,-84.33"/>
</a>
</g>
</g>
<!-- Node5 -->
<g id="Node000005" class="node">
<title>Node5</title>
<g id="a_Node000005"><a xlink:title=" ">
<polygon fill="#e0e0e0" stroke="#999999" points="130,-184 65,-184 65,-165 130,-165 130,-184"/>
<text text-anchor="middle" x="97.5" y="-172" font-family="Helvetica,sans-Serif" font-size="10.00">kit_map.h</text>
</a>
</g>
</g>
<!-- Node3&#45;&gt;Node5 -->
<g id="edge4_Node000003_Node000005" class="edge">
<title>Node3&#45;&gt;Node5</title>
<g id="a_edge4_Node000003_Node000005"><a xlink:title=" ">
<path fill="none" stroke="#63b8ff" d="M107.52,-219.75C105.93,-212.72 103.64,-202.62 101.65,-193.84"/>
<polygon fill="#63b8ff" stroke="#63b8ff" points="105.07,-193.07 99.44,-184.09 98.24,-194.62 105.07,-193.07"/>
</a>
</g>
</g>
<!-- Node6 -->
<g id="Node000006" class="node">
<title>Node6</title>
<g id="a_Node000006"><a xlink:title=" ">
<polygon fill="#e0e0e0" stroke="#999999" points="201,-184 148,-184 148,-165 201,-165 201,-184"/>
<text text-anchor="middle" x="174.5" y="-172" font-family="Helvetica,sans-Serif" font-size="10.00">stdint.h</text>
</a>
</g>
</g>
<!-- Node3&#45;&gt;Node6 -->
<g id="edge5_Node000003_Node000006" class="edge">
<title>Node3&#45;&gt;Node6</title>
<g id="a_edge5_Node000003_Node000006"><a xlink:title=" ">
<path fill="none" stroke="#63b8ff" d="M119.94,-219.98C129.65,-212.07 144.32,-200.11 156,-190.58"/>
<polygon fill="#63b8ff" stroke="#63b8ff" points="158.33,-193.2 163.87,-184.17 153.9,-187.78 158.33,-193.2"/>
</a>
</g>
</g>
<!-- Node7&#45;&gt;Node3 -->
<g id="edge7_Node000007_Node000003" class="edge">
<title>Node7&#45;&gt;Node3</title>
<g id="a_edge7_Node000007_Node000003"><a xlink:title=" ">
<path fill="none" stroke="#63b8ff" d="M279.85,-274.99C240.69,-264.76 188.32,-251.09 152.04,-241.61"/>
<polygon fill="#63b8ff" stroke="#63b8ff" points="152.81,-238.19 142.25,-239.05 151.04,-244.97 152.81,-238.19"/>
</a>
</g>
</g>
<!-- Node8 -->
<g id="Node000008" class="node">
<title>Node8</title>
<g id="a_Node000008"><a xlink:href="_request_message_8h.html" target="_top" xlink:title=" ">
<polygon fill="white" stroke="#666666" points="482.5,-239 342.5,-239 342.5,-220 482.5,-220 482.5,-239"/>
<text text-anchor="middle" x="412.5" y="-227" font-family="Helvetica,sans-Serif" font-size="10.00">Kit/Itc/RequestMessage.h</text>
</a>
</g>
</g>
<!-- Node7&#45;&gt;Node8 -->
<g id="edge8_Node000007_Node000008" class="edge">
<title>Node7&#45;&gt;Node8</title>
<g id="a_edge8_Node000007_Node000008"><a xlink:title=" ">
<path fill="none" stroke="#63b8ff" d="M352.62,-274.84C364.68,-265.91 380.21,-254.41 392.44,-245.35"/>
<polygon fill="#63b8ff" stroke="#63b8ff" points="394.71,-248.03 400.66,-239.27 390.54,-242.4 394.71,-248.03"/>
</a>
</g>
</g>
<!-- Node14 -->
<g id="Node000014" class="node">
<title>Node14</title>
<g id="a_Node000014"><a xlink:href="_s_a_p_8h.html" target="_top" xlink:title=" ">
<polygon fill="white" stroke="#666666" points="352,-184 277,-184 277,-165 352,-165 352,-184"/>
<text text-anchor="middle" x="314.5" y="-172" font-family="Helvetica,sans-Serif" font-size="10.00">Kit/Itc/SAP.h</text>
</a>
</g>
</g>
<!-- Node7&#45;&gt;Node14 -->
<g id="edge19_Node000007_Node000014" class="edge">
<title>Node7&#45;&gt;Node14</title>
<g id="a_edge19_Node000007_Node000014"><a xlink:title=" ">
<path fill="none" stroke="#63b8ff" d="M331.09,-274.63C327.68,-254.21 321.42,-216.81 317.64,-194.24"/>
<polygon fill="#63b8ff" stroke="#63b8ff" points="321.06,-193.51 315.96,-184.23 314.16,-194.67 321.06,-193.51"/>
</a>
</g>
</g>
<!-- Node9 -->
<g id="Node000009" class="node">
<title>Node9</title>
<g id="a_Node000009"><a xlink:href="_server_message_8h.html" target="_top" xlink:title=" ">
<polygon fill="white" stroke="#666666" points="572.5,-184 440.5,-184 440.5,-165 572.5,-165 572.5,-184"/>
<text text-anchor="middle" x="506.5" y="-172" font-family="Helvetica,sans-Serif" font-size="10.00">Kit/Itc/ServerMessage.h</text>
</a>
</g>
</g>
<!-- Node8&#45;&gt;Node9 -->
<g id="edge9_Node000008_Node000009" class="edge">
<title>Node8&#45;&gt;Node9</title>
<g id="a_edge9_Node000008_Node000009"><a xlink:title=" ">
<path fill="none" stroke="#63b8ff" d="M427.6,-219.98C442.32,-211.69 464.92,-198.94 482.17,-189.22"/>
<polygon fill="#63b8ff" stroke="#63b8ff" points="484.13,-192.13 491.12,-184.17 480.69,-186.03 484.13,-192.13"/>
</a>
</g>
</g>
<!-- Node8&#45;&gt;Node14 -->
<g id="edge14_Node000008_Node000014" class="edge">
<title>Node8&#45;&gt;Node14</title>
<g id="a_edge14_Node000008_Node000014"><a xlink:title=" ">
<path fill="none" stroke="#63b8ff" d="M396.75,-219.98C381.27,-211.61 357.41,-198.7 339.36,-188.95"/>
<polygon fill="#63b8ff" stroke="#63b8ff" points="340.99,-185.85 330.53,-184.17 337.66,-192.01 340.99,-185.85"/>
</a>
</g>
</g>
<!-- Node10 -->
<g id="Node000010" class="node">
<title>Node10</title>
<g id="a_Node000010"><a xlink:href="_i_message_8h.html" target="_top" xlink:title=" ">
<polygon fill="white" stroke="#666666" points="558.5,-129 454.5,-129 454.5,-110 558.5,-110 558.5,-129"/>
<text text-anchor="middle" x="506.5" y="-117" font-family="Helvetica,sans-Serif" font-size="10.00">Kit/Itc/IMessage.h</text>
</a>
</g>
</g>
<!-- Node9&#45;&gt;Node10 -->
<g id="edge10_Node000009_Node000010" class="edge">
<title>Node9&#45;&gt;Node10</title>
<g id="a_edge10_Node000009_Node000010"><a xlink:title=" ">
<path fill="none" stroke="#63b8ff" d="M506.5,-164.75C506.5,-157.8 506.5,-147.85 506.5,-139.13"/>
<polygon fill="#63b8ff" stroke="#63b8ff" points="510,-139.09 506.5,-129.09 503,-139.09 510,-139.09"/>
</a>
</g>
</g>
<!-- Node13 -->
<g id="Node000013" class="node">
<title>Node13</title>
<g id="a_Node000013"><a xlink:href="_i_return_handler_8h.html" target="_top" xlink:title=" ">
<polygon fill="white" stroke="#666666" points="706.5,-129 576.5,-129 576.5,-110 706.5,-110 706.5,-129"/>
<text text-anchor="middle" x="641.5" y="-117" font-family="Helvetica,sans-Serif" font-size="10.00">Kit/Itc/IReturnHandler.h</text>
</a>
</g>
</g>
<!-- Node9&#45;&gt;Node13 -->
<g id="edge13_Node000009_Node000013" class="edge">
<title>Node9&#45;&gt;Node13</title>
<g id="a_edge13_Node000009_Node000013"><a xlink:title=" ">
<path fill="none" stroke="#63b8ff" d="M528.19,-164.98C550.3,-156.3 584.82,-142.75 609.95,-132.88"/>
<polygon fill="#63b8ff" stroke="#63b8ff" points="611.39,-136.08 619.42,-129.17 608.83,-129.57 611.39,-136.08"/>
</a>
</g>
</g>
<!-- Node11 -->
<g id="Node000011" class="node">
<title>Node11</title>
<g id="a_Node000011"><a xlink:href="_list_item_8h.html" target="_top" xlink:title=" ">
<polygon fill="white" stroke="#666666" points="643.5,-74 511.5,-74 511.5,-55 643.5,-55 643.5,-74"/>
<text text-anchor="middle" x="577.5" y="-62" font-family="Helvetica,sans-Serif" font-size="10.00">Kit/Container/ListItem.h</text>
</a>
</g>
</g>
<!-- Node10&#45;&gt;Node11 -->
<g id="edge11_Node000010_Node000011" class="edge">
<title>Node10&#45;&gt;Node11</title>
<g id="a_edge11_Node000010_Node000011"><a xlink:title=" ">
<path fill="none" stroke="#63b8ff" d="M517.91,-109.98C528.61,-102 544.84,-89.88 557.66,-80.31"/>
<polygon fill="#63b8ff" stroke="#63b8ff" points="559.97,-82.96 565.89,-74.17 555.78,-77.35 559.97,-82.96"/>
</a>
</g>
</g>
<!-- Node12 -->
<g id="Node000012" class="node">
<title>Node12</title>
<g id="a_Node000012"><a xlink:href="_item_8h.html" target="_top" xlink:title=" ">
<polygon fill="white" stroke="#666666" points="635,-19 520,-19 520,0 635,0 635,-19"/>
<text text-anchor="middle" x="577.5" y="-7" font-family="Helvetica,sans-Serif" font-size="10.00">Kit/Container/Item.h</text>
</a>
</g>
</g>
<!-- Node11&#45;&gt;Node12 -->
<g id="edge12_Node000011_Node000012" class="edge">
<title>Node11&#45;&gt;Node12</title>
<g id="a_edge12_Node000011_Node000012"><a xlink:title=" ">
<path fill="none" stroke="#63b8ff" d="M577.5,-54.75C577.5,-47.8 577.5,-37.85 577.5,-29.13"/>
<polygon fill="#63b8ff" stroke="#63b8ff" points="581,-29.09 577.5,-19.09 574,-29.09 581,-29.09"/>
</a>
</g>
</g>
<!-- Node14&#45;&gt;Node15 -->
<g id="edge15_Node000014_Node000015" class="edge">
<title>Node14&#45;&gt;Node15</title>
<g id="a_edge15_Node000014_Node000015"><a xlink:title=" ">
<path fill="none" stroke="#63b8ff" d="M300.84,-164.98C287.66,-156.77 267.47,-144.18 251.93,-134.49"/>
<polygon fill="#63b8ff" stroke="#63b8ff" points="253.74,-131.49 243.41,-129.17 250.04,-137.43 253.74,-131.49"/>
</a>
</g>
</g>
<!-- Node15&#45;&gt;Node4 -->
<g id="edge16_Node000015_Node000004" class="edge">
<title>Node15&#45;&gt;Node4</title>
<g id="a_edge16_Node000015_Node000004"><a xlink:title=" ">
<path fill="none" stroke="#63b8ff" d="M198.49,-109.98C165.67,-100.97 113.7,-86.7 77.51,-76.76"/>
<polygon fill="#63b8ff" stroke="#63b8ff" points="78.32,-73.36 67.75,-74.08 76.47,-80.11 78.32,-73.36"/>
</a>
</g>
</g>
<!-- Node16 -->
<g id="Node000016" class="node">
<title>Node16</title>
<g id="a_Node000016"><a xlink:href="_i_msg_notification_8h.html" target="_top" xlink:title=" ">
<polygon fill="white" stroke="#666666" points="275.5,-74 91.5,-74 91.5,-55 275.5,-55 275.5,-74"/>
<text text-anchor="middle" x="183.5" y="-62" font-family="Helvetica,sans-Serif" font-size="10.00">Kit/EventQueue/IMsgNotification.h</text>
</a>
</g>
</g>
<!-- Node15&#45;&gt;Node16 -->
<g id="edge17_Node000015_Node000016" class="edge">
<title>Node15&#45;&gt;Node16</title>
<g id="a_edge17_Node000015_Node000016"><a xlink:title=" ">
<path fill="none" stroke="#63b8ff" d="M221.9,-109.75C215.34,-102.18 205.68,-91.05 197.69,-81.84"/>
<polygon fill="#63b8ff" stroke="#63b8ff" points="200.15,-79.35 190.95,-74.09 194.87,-83.94 200.15,-79.35"/>
</a>
</g>
</g>
<!-- Node17 -->
<g id="Node000017" class="node">
<title>Node17</title>
<g id="a_Node000017"><a xlink:href="_i_change_notification_8h.html" target="_top" xlink:title=" ">
<polygon fill="white" stroke="#666666" points="493.5,-74 293.5,-74 293.5,-55 493.5,-55 493.5,-74"/>
<text text-anchor="middle" x="393.5" y="-62" font-family="Helvetica,sans-Serif" font-size="10.00">Kit/EventQueue/IChangeNotification.h</text>
</a>
</g>
</g>
<!-- Node15&#45;&gt;Node17 -->
<g id="edge18_Node000015_Node000017" class="edge">
<title>Node15&#45;&gt;Node17</title>
<g id="a_edge18_Node000015_Node000017"><a xlink:title=" ">
<path fill="none" stroke="#63b8ff" d="M255.85,-109.98C283.26,-101.13 326.39,-87.19 357.06,-77.28"/>
<polygon fill="#63b8ff" stroke="#63b8ff" points="358.5,-80.49 366.94,-74.08 356.35,-73.83 358.5,-80.49"/>
</a>
</g>
</g>
</g>
</svg>
