<?xml version="1.0" encoding="UTF-8" standalone="no"?>
<!DOCTYPE svg PUBLIC "-//W3C//DTD SVG 1.1//EN"
 "http://www.w3.org/Graphics/SVG/1.1/DTD/svg11.dtd">
<!-- Generated by graphviz version 2.43.0 (0)
 -->
<!-- Title: Kit/Logging/Framework/Logger.h Pages: 1 -->
<svg width="1321pt" height="291pt"
 viewBox="0.00 0.00 1320.78 291.00" xmlns="http://www.w3.org/2000/svg" xmlns:xlink="http://www.w3.org/1999/xlink">
<g id="graph0" class="graph" transform="scale(1 1) rotate(0) translate(4 287)">
<title>Kit/Logging/Framework/Logger.h</title>
<!-- Node1 -->
<g id="Node000001" class="node">
<title>Node1</title>
<g id="a_Node000001"><a xlink:title="This file declares the public facing Logging interface for managing the logging framework (i....">
<polygon fill="#999999" stroke="#666666" points="477.97,-283 348.97,-283 348.97,-253 477.97,-253 477.97,-283"/>
<text text-anchor="start" x="356.97" y="-271" font-family="Helvetica,sans-Serif" font-size="10.00">Kit/Logging/Framework</text>
<text text-anchor="middle" x="413.47" y="-260" font-family="Helvetica,sans-Serif" font-size="10.00">/Logger.h</text>
</a>
</g>
</g>
<!-- Node2 -->
<g id="Node000002" class="node">
<title>Node2</title>
<g id="a_Node000002"><a xlink:href="_i_application_8h.html" target="_top" xlink:title=" ">
<polygon fill="white" stroke="#666666" points="643.97,-151 514.97,-151 514.97,-121 643.97,-121 643.97,-151"/>
<text text-anchor="start" x="522.97" y="-139" font-family="Helvetica,sans-Serif" font-size="10.00">Kit/Logging/Framework</text>
<text text-anchor="middle" x="579.47" y="-128" font-family="Helvetica,sans-Serif" font-size="10.00">/IApplication.h</text>
</a>
</g>
</g>
<!-- Node1&#45;&gt;Node2 -->
<g id="edge1_Node000001_Node000002" class="edge">
<title>Node1&#45;&gt;Node2</title>
<g id="a_edge1_Node000001_Node000002"><a xlink:title=" ">
<path fill="none" stroke="#63b8ff" d="M431.55,-252.84C460.98,-229.79 519.39,-184.05 553.34,-157.46"/>
<polygon fill="#63b8ff" stroke="#63b8ff" points="555.69,-160.06 561.41,-151.14 551.38,-154.55 555.69,-160.06"/>
</a>
</g>
</g>
<!-- Node6 -->
<g id="Node000006" class="node">
<title>Node6</title>
<g id="a_Node000006"><a xlink:href="_logging_2_framework_2_types_8h.html" target="_top" xlink:title="This file declares various Logging specific types.">
<polygon fill="white" stroke="#666666" points="326.97,-85 197.97,-85 197.97,-55 326.97,-55 326.97,-85"/>
<text text-anchor="start" x="205.97" y="-73" font-family="Helvetica,sans-Serif" font-size="10.00">Kit/Logging/Framework</text>
<text text-anchor="middle" x="262.47" y="-62" font-family="Helvetica,sans-Serif" font-size="10.00">/types.h</text>
</a>
</g>
</g>
<!-- Node1&#45;&gt;Node6 -->
<g id="edge6_Node000001_Node000006" class="edge">
<title>Node1&#45;&gt;Node6</title>
<g id="a_edge6_Node000001_Node000006"><a xlink:title=" ">
<path fill="none" stroke="#63b8ff" d="M402.61,-252.9C376.66,-219.22 310.9,-133.86 279.57,-93.2"/>
<polygon fill="#63b8ff" stroke="#63b8ff" points="282.31,-91.02 273.43,-85.23 276.76,-95.29 282.31,-91.02"/>
</a>
</g>
</g>
<!-- Node7 -->
<g id="Node000007" class="node">
<title>Node7</title>
<g id="a_Node000007"><a xlink:href="_entry_data_8h.html" target="_top" xlink:title=" ">
<polygon fill="white" stroke="#666666" points="1183.97,-217 1054.97,-217 1054.97,-187 1183.97,-187 1183.97,-217"/>
<text text-anchor="start" x="1062.97" y="-205" font-family="Helvetica,sans-Serif" font-size="10.00">Kit/Logging/Framework</text>
<text text-anchor="middle" x="1119.47" y="-194" font-family="Helvetica,sans-Serif" font-size="10.00">/EntryData.h</text>
</a>
</g>
</g>
<!-- Node1&#45;&gt;Node7 -->
<g id="edge9_Node000001_Node000007" class="edge">
<title>Node1&#45;&gt;Node7</title>
<g id="a_edge9_Node000001_Node000007"><a xlink:title=" ">
<path fill="none" stroke="#63b8ff" d="M477.99,-261.15C609,-249.27 905.52,-222.4 1044.69,-209.78"/>
<polygon fill="#63b8ff" stroke="#63b8ff" points="1045.19,-213.25 1054.84,-208.86 1044.56,-206.28 1045.19,-213.25"/>
</a>
</g>
</g>
<!-- Node15 -->
<g id="Node000015" class="node">
<title>Node15</title>
<g id="a_Node000015"><a xlink:href="_classification_id_8h.html" target="_top" xlink:title="Note: The Application is responsible for defining the Classification values.">
<polygon fill="white" stroke="#666666" points="189.97,-145.5 10.97,-145.5 10.97,-126.5 189.97,-126.5 189.97,-145.5"/>
<text text-anchor="middle" x="100.47" y="-133.5" font-family="Helvetica,sans-Serif" font-size="10.00">Kit/Logging/Pkg/ClassificationId.h</text>
</a>
</g>
</g>
<!-- Node1&#45;&gt;Node15 -->
<g id="edge23_Node000001_Node000015" class="edge">
<title>Node1&#45;&gt;Node15</title>
<g id="a_edge23_Node000001_Node000015"><a xlink:title=" ">
<path fill="none" stroke="#63b8ff" d="M368.56,-252.96C339.67,-243.57 301.49,-230.51 268.47,-217 216.98,-195.94 158.75,-167.02 126.14,-150.34"/>
<polygon fill="#63b8ff" stroke="#63b8ff" points="127.37,-147.04 116.88,-145.58 124.17,-153.26 127.37,-147.04"/>
</a>
</g>
</g>
<!-- Node17 -->
<g id="Node000017" class="node">
<title>Node17</title>
<g id="a_Node000017"><a xlink:href="_ring_buffer_8h.html" target="_top" xlink:title=" ">
<polygon fill="white" stroke="#666666" points="484.97,-145.5 341.97,-145.5 341.97,-126.5 484.97,-126.5 484.97,-145.5"/>
<text text-anchor="middle" x="413.47" y="-133.5" font-family="Helvetica,sans-Serif" font-size="10.00">Kit/Container/RingBuffer.h</text>
</a>
</g>
</g>
<!-- Node1&#45;&gt;Node17 -->
<g id="edge28_Node000001_Node000017" class="edge">
<title>Node1&#45;&gt;Node17</title>
<g id="a_edge28_Node000001_Node000017"><a xlink:title=" ">
<path fill="none" stroke="#63b8ff" d="M413.47,-252.84C413.47,-229.34 413.47,-182.26 413.47,-155.93"/>
<polygon fill="#63b8ff" stroke="#63b8ff" points="416.97,-155.75 413.47,-145.75 409.97,-155.75 416.97,-155.75"/>
</a>
</g>
</g>
<!-- Node3 -->
<g id="Node000003" class="node">
<title>Node3</title>
<g id="a_Node000003"><a xlink:href="_i_package_8h.html" target="_top" xlink:title=" ">
<polygon fill="white" stroke="#666666" points="643.97,-85 514.97,-85 514.97,-55 643.97,-55 643.97,-85"/>
<text text-anchor="start" x="522.97" y="-73" font-family="Helvetica,sans-Serif" font-size="10.00">Kit/Logging/Framework</text>
<text text-anchor="middle" x="579.47" y="-62" font-family="Helvetica,sans-Serif" font-size="10.00">/IPackage.h</text>
</a>
</g>
</g>
<!-- Node2&#45;&gt;Node3 -->
<g id="edge2_Node000002_Node000003" class="edge">
<title>Node2&#45;&gt;Node3</title>
<g id="a_edge2_Node000002_Node000003"><a xlink:title=" ">
<path fill="none" stroke="#63b8ff" d="M579.47,-120.8C579.47,-113.34 579.47,-103.99 579.47,-95.41"/>
<polygon fill="#63b8ff" stroke="#63b8ff" points="582.97,-95.16 579.47,-85.16 575.97,-95.16 582.97,-95.16"/>
</a>
</g>
</g>
<!-- Node5 -->
<g id="Node000005" class="node">
<title>Node5</title>
<g id="a_Node000005"><a xlink:title=" ">
<polygon fill="#e0e0e0" stroke="#999999" points="717.97,-19 664.97,-19 664.97,0 717.97,0 717.97,-19"/>
<text text-anchor="middle" x="691.47" y="-7" font-family="Helvetica,sans-Serif" font-size="10.00">stdint.h</text>
</a>
</g>
</g>
<!-- Node2&#45;&gt;Node5 -->
<g id="edge5_Node000002_Node000005" class="edge">
<title>Node2&#45;&gt;Node5</title>
<g id="a_edge5_Node000002_Node000005"><a xlink:title=" ">
<path fill="none" stroke="#63b8ff" d="M606.96,-120.94C622.11,-112.17 640.42,-99.75 653.47,-85 668.16,-68.39 678.85,-45.08 685.08,-28.97"/>
<polygon fill="#63b8ff" stroke="#63b8ff" points="688.52,-29.74 688.68,-19.15 681.95,-27.34 688.52,-29.74"/>
</a>
</g>
</g>
<!-- Node4 -->
<g id="Node000004" class="node">
<title>Node4</title>
<g id="a_Node000004"><a xlink:title=" ">
<polygon fill="#e0e0e0" stroke="#999999" points="298.97,-19 225.97,-19 225.97,0 298.97,0 298.97,-19"/>
<text text-anchor="middle" x="262.47" y="-7" font-family="Helvetica,sans-Serif" font-size="10.00">kit_config.h</text>
</a>
</g>
</g>
<!-- Node3&#45;&gt;Node4 -->
<g id="edge3_Node000003_Node000004" class="edge">
<title>Node3&#45;&gt;Node4</title>
<g id="a_edge3_Node000003_Node000004"><a xlink:title=" ">
<path fill="none" stroke="#63b8ff" d="M514.94,-57.09C453.88,-45.82 363.71,-29.18 309.28,-19.14"/>
<polygon fill="#63b8ff" stroke="#63b8ff" points="309.69,-15.66 299.22,-17.28 308.42,-22.54 309.69,-15.66"/>
</a>
</g>
</g>
<!-- Node3&#45;&gt;Node5 -->
<g id="edge4_Node000003_Node000005" class="edge">
<title>Node3&#45;&gt;Node5</title>
<g id="a_edge4_Node000003_Node000005"><a xlink:title=" ">
<path fill="none" stroke="#63b8ff" d="M606.29,-54.99C624.31,-45.58 647.92,-33.24 665.71,-23.95"/>
<polygon fill="#63b8ff" stroke="#63b8ff" points="667.68,-26.87 674.93,-19.14 664.44,-20.67 667.68,-26.87"/>
</a>
</g>
</g>
<!-- Node6&#45;&gt;Node4 -->
<g id="edge7_Node000006_Node000004" class="edge">
<title>Node6&#45;&gt;Node4</title>
<g id="a_edge7_Node000006_Node000004"><a xlink:title=" ">
<path fill="none" stroke="#63b8ff" d="M262.47,-54.84C262.47,-47.21 262.47,-37.7 262.47,-29.45"/>
<polygon fill="#63b8ff" stroke="#63b8ff" points="265.97,-29.27 262.47,-19.27 258.97,-29.27 265.97,-29.27"/>
</a>
</g>
</g>
<!-- Node6&#45;&gt;Node5 -->
<g id="edge8_Node000006_Node000005" class="edge">
<title>Node6&#45;&gt;Node5</title>
<g id="a_edge8_Node000006_Node000005"><a xlink:title=" ">
<path fill="none" stroke="#63b8ff" d="M327.31,-56.34C330.06,-55.87 332.79,-55.42 335.47,-55 451.44,-36.65 589.65,-21.2 654.46,-14.32"/>
<polygon fill="#63b8ff" stroke="#63b8ff" points="655.01,-17.78 664.59,-13.26 654.28,-10.82 655.01,-17.78"/>
</a>
</g>
</g>
<!-- Node7&#45;&gt;Node5 -->
<g id="edge21_Node000007_Node000005" class="edge">
<title>Node7&#45;&gt;Node5</title>
<g id="a_edge21_Node000007_Node000005"><a xlink:title=" ">
<path fill="none" stroke="#63b8ff" d="M1054.79,-196.96C971.22,-188.62 825.24,-163.09 730.47,-85 712.91,-70.53 702.27,-46.07 696.64,-29.14"/>
<polygon fill="#63b8ff" stroke="#63b8ff" points="699.9,-27.83 693.64,-19.28 693.2,-29.87 699.9,-27.83"/>
</a>
</g>
</g>
<!-- Node8 -->
<g id="Node000008" class="node">
<title>Node8</title>
<g id="a_Node000008"><a xlink:href="_cursor_b_e_8h.html" target="_top" xlink:title=" ">
<polygon fill="white" stroke="#666666" points="1184.47,-145.5 1054.47,-145.5 1054.47,-126.5 1184.47,-126.5 1184.47,-145.5"/>
<text text-anchor="middle" x="1119.47" y="-133.5" font-family="Helvetica,sans-Serif" font-size="10.00">Kit/Memory/CursorBE.h</text>
</a>
</g>
</g>
<!-- Node7&#45;&gt;Node8 -->
<g id="edge10_Node000007_Node000008" class="edge">
<title>Node7&#45;&gt;Node8</title>
<g id="a_edge10_Node000007_Node000008"><a xlink:title=" ">
<path fill="none" stroke="#63b8ff" d="M1119.47,-186.8C1119.47,-177.7 1119.47,-165.79 1119.47,-155.9"/>
<polygon fill="#63b8ff" stroke="#63b8ff" points="1122.97,-155.84 1119.47,-145.84 1115.97,-155.84 1122.97,-155.84"/>
</a>
</g>
</g>
<!-- Node10 -->
<g id="Node000010" class="node">
<title>Node10</title>
<g id="a_Node000010"><a xlink:title=" ">
<polygon fill="#e0e0e0" stroke="#999999" points="1284.47,-19 1234.47,-19 1234.47,0 1284.47,0 1284.47,-19"/>
<text text-anchor="middle" x="1259.47" y="-7" font-family="Helvetica,sans-Serif" font-size="10.00">cstdint</text>
</a>
</g>
</g>
<!-- Node7&#45;&gt;Node10 -->
<g id="edge20_Node000007_Node000010" class="edge">
<title>Node7&#45;&gt;Node10</title>
<g id="a_edge20_Node000007_Node000010"><a xlink:title=" ">
<path fill="none" stroke="#63b8ff" d="M1184.13,-191.26C1213.45,-184.15 1246.95,-171.92 1271.47,-151 1305.9,-121.62 1323.13,-96.67 1305.47,-55 1300.49,-43.25 1290.72,-33.09 1281.46,-25.45"/>
<polygon fill="#63b8ff" stroke="#63b8ff" points="1283.32,-22.47 1273.25,-19.18 1279.07,-28.03 1283.32,-22.47"/>
</a>
</g>
</g>
<!-- Node13 -->
<g id="Node000013" class="node">
<title>Node13</title>
<g id="a_Node000013"><a xlink:title=" ">
<polygon fill="#e0e0e0" stroke="#999999" points="1046.97,-19 993.97,-19 993.97,0 1046.97,0 1046.97,-19"/>
<text text-anchor="middle" x="1020.47" y="-7" font-family="Helvetica,sans-Serif" font-size="10.00">string.h</text>
</a>
</g>
</g>
<!-- Node7&#45;&gt;Node13 -->
<g id="edge22_Node000007_Node000013" class="edge">
<title>Node7&#45;&gt;Node13</title>
<g id="a_edge22_Node000007_Node000013"><a xlink:title=" ">
<path fill="none" stroke="#63b8ff" d="M1159.22,-186.97C1222.16,-162.66 1333.08,-110.02 1286.47,-55 1255.01,-17.87 1118.45,-27.08 1070.47,-19 1066.22,-18.28 1061.77,-17.53 1057.34,-16.78"/>
<polygon fill="#63b8ff" stroke="#63b8ff" points="1057.64,-13.28 1047.19,-15.06 1056.46,-20.18 1057.64,-13.28"/>
</a>
</g>
</g>
<!-- Node9 -->
<g id="Node000009" class="node">
<title>Node9</title>
<g id="a_Node000009"><a xlink:href="_cursor_base_8h.html" target="_top" xlink:title=" ">
<polygon fill="white" stroke="#666666" points="1189.97,-79.5 1048.97,-79.5 1048.97,-60.5 1189.97,-60.5 1189.97,-79.5"/>
<text text-anchor="middle" x="1119.47" y="-67.5" font-family="Helvetica,sans-Serif" font-size="10.00">Kit/Memory/CursorBase.h</text>
</a>
</g>
</g>
<!-- Node8&#45;&gt;Node9 -->
<g id="edge11_Node000008_Node000009" class="edge">
<title>Node8&#45;&gt;Node9</title>
<g id="a_edge11_Node000008_Node000009"><a xlink:title=" ">
<path fill="none" stroke="#63b8ff" d="M1119.47,-126.37C1119.47,-117.16 1119.47,-102.29 1119.47,-90.27"/>
<polygon fill="#63b8ff" stroke="#63b8ff" points="1122.97,-89.91 1119.47,-79.91 1115.97,-89.91 1122.97,-89.91"/>
</a>
</g>
</g>
<!-- Node12 -->
<g id="Node000012" class="node">
<title>Node12</title>
<g id="a_Node000012"><a xlink:href="endian_8h.html" target="_top" xlink:title="This file provides a set of macros/method to convert between the &#39;host&#39; platform and Big/Little endia...">
<polygon fill="white" stroke="#666666" points="839.97,-79.5 738.97,-79.5 738.97,-60.5 839.97,-60.5 839.97,-79.5"/>
<text text-anchor="middle" x="789.47" y="-67.5" font-family="Helvetica,sans-Serif" font-size="10.00">Kit/Type/endian.h</text>
</a>
</g>
</g>
<!-- Node8&#45;&gt;Node12 -->
<g id="edge15_Node000008_Node000012" class="edge">
<title>Node8&#45;&gt;Node12</title>
<g id="a_edge15_Node000008_Node000012"><a xlink:title=" ">
<path fill="none" stroke="#63b8ff" d="M1069.57,-126.47C1015.28,-117.02 925.99,-101 849.47,-85 844.74,-84.01 839.82,-82.94 834.91,-81.84"/>
<polygon fill="#63b8ff" stroke="#63b8ff" points="835.47,-78.37 824.94,-79.56 833.91,-85.2 835.47,-78.37"/>
</a>
</g>
</g>
<!-- Node14 -->
<g id="Node000014" class="node">
<title>Node14</title>
<g id="a_Node000014"><a xlink:title=" ">
<polygon fill="#e0e0e0" stroke="#999999" points="1276.97,-79.5 1207.97,-79.5 1207.97,-60.5 1276.97,-60.5 1276.97,-79.5"/>
<text text-anchor="middle" x="1242.47" y="-67.5" font-family="Helvetica,sans-Serif" font-size="10.00">type_traits</text>
</a>
</g>
</g>
<!-- Node8&#45;&gt;Node14 -->
<g id="edge19_Node000008_Node000014" class="edge">
<title>Node8&#45;&gt;Node14</title>
<g id="a_edge19_Node000008_Node000014"><a xlink:title=" ">
<path fill="none" stroke="#63b8ff" d="M1136.06,-126.37C1156.78,-115.59 1192.47,-97.02 1216.74,-84.38"/>
<polygon fill="#63b8ff" stroke="#63b8ff" points="1218.49,-87.42 1225.75,-79.7 1215.26,-81.21 1218.49,-87.42"/>
</a>
</g>
</g>
<!-- Node9&#45;&gt;Node5 -->
<g id="edge13_Node000009_Node000005" class="edge">
<title>Node9&#45;&gt;Node5</title>
<g id="a_edge13_Node000009_Node000005"><a xlink:title=" ">
<path fill="none" stroke="#63b8ff" d="M1057.23,-60.49C966.85,-48.14 802.06,-25.62 728.57,-15.57"/>
<polygon fill="#63b8ff" stroke="#63b8ff" points="728.79,-12.07 718.41,-14.18 727.84,-19 728.79,-12.07"/>
</a>
</g>
</g>
<!-- Node9&#45;&gt;Node10 -->
<g id="edge12_Node000009_Node000010" class="edge">
<title>Node9&#45;&gt;Node10</title>
<g id="a_edge12_Node000009_Node000010"><a xlink:title=" ">
<path fill="none" stroke="#63b8ff" d="M1139.82,-60.49C1163.46,-50.62 1202.67,-34.23 1229.72,-22.93"/>
<polygon fill="#63b8ff" stroke="#63b8ff" points="1231.21,-26.1 1239.09,-19.02 1228.51,-19.64 1231.21,-26.1"/>
</a>
</g>
</g>
<!-- Node11 -->
<g id="Node000011" class="node">
<title>Node11</title>
<g id="a_Node000011"><a xlink:title=" ">
<polygon fill="#e0e0e0" stroke="#999999" points="1131.97,-19 1078.97,-19 1078.97,0 1131.97,0 1131.97,-19"/>
<text text-anchor="middle" x="1105.47" y="-7" font-family="Helvetica,sans-Serif" font-size="10.00">stdlib.h</text>
</a>
</g>
</g>
<!-- Node9&#45;&gt;Node11 -->
<g id="edge14_Node000009_Node000011" class="edge">
<title>Node9&#45;&gt;Node11</title>
<g id="a_edge14_Node000009_Node000011"><a xlink:title=" ">
<path fill="none" stroke="#63b8ff" d="M1117.4,-60.37C1115.44,-52.16 1112.42,-39.54 1109.91,-29.05"/>
<polygon fill="#63b8ff" stroke="#63b8ff" points="1113.27,-28.08 1107.54,-19.17 1106.46,-29.71 1113.27,-28.08"/>
</a>
</g>
</g>
<!-- Node12&#45;&gt;Node4 -->
<g id="edge16_Node000012_Node000004" class="edge">
<title>Node12&#45;&gt;Node4</title>
<g id="a_edge16_Node000012_Node000004"><a xlink:title=" ">
<path fill="none" stroke="#63b8ff" d="M738.94,-63.39C636.92,-52.07 407.7,-26.62 309.06,-15.67"/>
<polygon fill="#63b8ff" stroke="#63b8ff" points="309.41,-12.19 299.09,-14.56 308.64,-19.15 309.41,-12.19"/>
</a>
</g>
</g>
<!-- Node12&#45;&gt;Node5 -->
<g id="edge17_Node000012_Node000005" class="edge">
<title>Node12&#45;&gt;Node5</title>
<g id="a_edge17_Node000012_Node000005"><a xlink:title=" ">
<path fill="none" stroke="#63b8ff" d="M775.01,-60.37C759.16,-50.91 733.49,-35.59 714.79,-24.42"/>
<polygon fill="#63b8ff" stroke="#63b8ff" points="716.37,-21.29 705.99,-19.17 712.78,-27.3 716.37,-21.29"/>
</a>
</g>
</g>
<!-- Node12&#45;&gt;Node13 -->
<g id="edge18_Node000012_Node000013" class="edge">
<title>Node12&#45;&gt;Node13</title>
<g id="a_edge18_Node000012_Node000013"><a xlink:title=" ">
<path fill="none" stroke="#63b8ff" d="M823.06,-60.49C865.89,-49.65 939.7,-30.95 983.91,-19.76"/>
<polygon fill="#63b8ff" stroke="#63b8ff" points="984.84,-23.13 993.68,-17.28 983.12,-16.35 984.84,-23.13"/>
</a>
</g>
</g>
<!-- Node15&#45;&gt;Node4 -->
<g id="edge24_Node000015_Node000004" class="edge">
<title>Node15&#45;&gt;Node4</title>
<g id="a_edge24_Node000015_Node000004"><a xlink:title=" ">
<path fill="none" stroke="#63b8ff" d="M75.45,-126.4C39.78,-112.84 -18.71,-84.93 6.47,-55 32.69,-23.83 149.31,-14.49 215.74,-11.69"/>
<polygon fill="#63b8ff" stroke="#63b8ff" points="216.09,-15.18 225.95,-11.3 215.82,-8.19 216.09,-15.18"/>
</a>
</g>
</g>
<!-- Node15&#45;&gt;Node5 -->
<g id="edge27_Node000015_Node000005" class="edge">
<title>Node15&#45;&gt;Node5</title>
<g id="a_edge27_Node000015_Node000005"><a xlink:title=" ">
<path fill="none" stroke="#63b8ff" d="M190.16,-128.1C282.29,-120.08 418.88,-105.29 467.47,-85 487.65,-76.57 486.74,-64.43 506.47,-55 554.82,-31.89 616.19,-20.2 654.66,-14.73"/>
<polygon fill="#63b8ff" stroke="#63b8ff" points="655.43,-18.16 664.87,-13.35 654.49,-11.22 655.43,-18.16"/>
</a>
</g>
</g>
<!-- Node16 -->
<g id="Node000016" class="node">
<title>Node16</title>
<g id="a_Node000016"><a xlink:href="_better_enum_8h_source.html" target="_top" xlink:title=" ">
<polygon fill="white" stroke="#666666" points="140.97,-79.5 15.97,-79.5 15.97,-60.5 140.97,-60.5 140.97,-79.5"/>
<text text-anchor="middle" x="78.47" y="-67.5" font-family="Helvetica,sans-Serif" font-size="10.00">Kit/Type/BetterEnum.h</text>
</a>
</g>
</g>
<!-- Node15&#45;&gt;Node16 -->
<g id="edge25_Node000015_Node000016" class="edge">
<title>Node15&#45;&gt;Node16</title>
<g id="a_edge25_Node000015_Node000016"><a xlink:title=" ">
<path fill="none" stroke="#63b8ff" d="M97.5,-126.37C94.27,-116.97 89.01,-101.67 84.84,-89.53"/>
<polygon fill="#63b8ff" stroke="#63b8ff" points="88.09,-88.22 81.53,-79.91 81.47,-90.5 88.09,-88.22"/>
</a>
</g>
</g>
<!-- Node16&#45;&gt;Node4 -->
<g id="edge26_Node000016_Node000004" class="edge">
<title>Node16&#45;&gt;Node4</title>
<g id="a_edge26_Node000016_Node000004"><a xlink:title=" ">
<path fill="none" stroke="#63b8ff" d="M105.22,-60.49C137.11,-50.36 190.54,-33.37 226.14,-22.05"/>
<polygon fill="#63b8ff" stroke="#63b8ff" points="227.21,-25.38 235.68,-19.02 225.09,-18.71 227.21,-25.38"/>
</a>
</g>
</g>
<!-- Node17&#45;&gt;Node4 -->
<g id="edge29_Node000017_Node000004" class="edge">
<title>Node17&#45;&gt;Node4</title>
<g id="a_edge29_Node000017_Node000004"><a xlink:title=" ">
<path fill="none" stroke="#63b8ff" d="M341.95,-128.73C283.5,-121.94 207.53,-108.76 188.47,-85 180.12,-74.6 181.9,-66.61 188.47,-55 196.64,-40.55 211.59,-30.27 225.92,-23.26"/>
<polygon fill="#63b8ff" stroke="#63b8ff" points="227.48,-26.4 235.18,-19.12 224.62,-20.01 227.48,-26.4"/>
</a>
</g>
</g>
<!-- Node17&#45;&gt;Node13 -->
<g id="edge33_Node000017_Node000013" class="edge">
<title>Node17&#45;&gt;Node13</title>
<g id="a_edge33_Node000017_Node000013"><a xlink:title=" ">
<path fill="none" stroke="#63b8ff" d="M465.51,-126.44C478.84,-124.45 493.16,-122.48 506.47,-121 561.27,-114.89 959.18,-120.39 1001.47,-85 1017.59,-71.51 1021.07,-46.42 1021.35,-29.11"/>
<polygon fill="#63b8ff" stroke="#63b8ff" points="1024.85,-29 1021.18,-19.06 1017.85,-29.11 1024.85,-29"/>
</a>
</g>
</g>
<!-- Node18 -->
<g id="Node000018" class="node">
<title>Node18</title>
<g id="a_Node000018"><a xlink:href="_assert_8h.html" target="_top" xlink:title=" ">
<polygon fill="white" stroke="#666666" points="457.97,-79.5 344.97,-79.5 344.97,-60.5 457.97,-60.5 457.97,-79.5"/>
<text text-anchor="middle" x="401.47" y="-67.5" font-family="Helvetica,sans-Serif" font-size="10.00">Kit/System/Assert.h</text>
</a>
</g>
</g>
<!-- Node17&#45;&gt;Node18 -->
<g id="edge30_Node000017_Node000018" class="edge">
<title>Node17&#45;&gt;Node18</title>
<g id="a_edge30_Node000017_Node000018"><a xlink:title=" ">
<path fill="none" stroke="#63b8ff" d="M411.85,-126.37C410.11,-117.07 407.28,-101.98 405.01,-89.9"/>
<polygon fill="#63b8ff" stroke="#63b8ff" points="408.42,-89.09 403.14,-79.91 401.54,-90.38 408.42,-89.09"/>
</a>
</g>
</g>
<!-- Node20 -->
<g id="Node000020" class="node">
<title>Node20</title>
<g id="a_Node000020"><a xlink:href="_ring_buffer_base_atomic_8h.html" target="_top" xlink:title=" ">
<polygon fill="white" stroke="#666666" points="992.47,-85 858.47,-85 858.47,-55 992.47,-55 992.47,-85"/>
<text text-anchor="start" x="866.47" y="-73" font-family="Helvetica,sans-Serif" font-size="10.00">Kit/Container/RingBuffer</text>
<text text-anchor="middle" x="925.47" y="-62" font-family="Helvetica,sans-Serif" font-size="10.00">BaseAtomic.h</text>
</a>
</g>
</g>
<!-- Node17&#45;&gt;Node20 -->
<g id="edge34_Node000017_Node000020" class="edge">
<title>Node17&#45;&gt;Node20</title>
<g id="a_edge34_Node000017_Node000020"><a xlink:title=" ">
<path fill="none" stroke="#63b8ff" d="M467.5,-126.45C480.27,-124.54 493.83,-122.61 506.47,-121 655.25,-102 696.02,-106.68 848.19,-85.11"/>
<polygon fill="#63b8ff" stroke="#63b8ff" points="848.97,-88.53 858.38,-83.65 847.98,-81.6 848.97,-88.53"/>
</a>
</g>
</g>
<!-- Node18&#45;&gt;Node4 -->
<g id="edge31_Node000018_Node000004" class="edge">
<title>Node18&#45;&gt;Node4</title>
<g id="a_edge31_Node000018_Node000004"><a xlink:title=" ">
<path fill="none" stroke="#63b8ff" d="M381.26,-60.49C357.78,-50.62 318.86,-34.23 292,-22.93"/>
<polygon fill="#63b8ff" stroke="#63b8ff" points="293.28,-19.67 282.7,-19.02 290.56,-26.12 293.28,-19.67"/>
</a>
</g>
</g>
<!-- Node19 -->
<g id="Node000019" class="node">
<title>Node19</title>
<g id="a_Node000019"><a xlink:title=" ">
<polygon fill="#e0e0e0" stroke="#999999" points="433.97,-19 368.97,-19 368.97,0 433.97,0 433.97,-19"/>
<text text-anchor="middle" x="401.47" y="-7" font-family="Helvetica,sans-Serif" font-size="10.00">kit_map.h</text>
</a>
</g>
</g>
<!-- Node18&#45;&gt;Node19 -->
<g id="edge32_Node000018_Node000019" class="edge">
<title>Node18&#45;&gt;Node19</title>
<g id="a_edge32_Node000018_Node000019"><a xlink:title=" ">
<path fill="none" stroke="#63b8ff" d="M401.47,-60.37C401.47,-52.25 401.47,-39.81 401.47,-29.39"/>
<polygon fill="#63b8ff" stroke="#63b8ff" points="404.97,-29.17 401.47,-19.17 397.97,-29.17 404.97,-29.17"/>
</a>
</g>
</g>
<!-- Node20&#45;&gt;Node5 -->
<g id="edge35_Node000020_Node000005" class="edge">
<title>Node20&#45;&gt;Node5</title>
<g id="a_edge35_Node000020_Node000005"><a xlink:title=" ">
<path fill="none" stroke="#63b8ff" d="M869.42,-54.99C825.67,-44.05 766.14,-29.17 728.25,-19.7"/>
<polygon fill="#63b8ff" stroke="#63b8ff" points="728.72,-16.21 718.17,-17.18 727.03,-23 728.72,-16.21"/>
</a>
</g>
</g>
<!-- Node20&#45;&gt;Node11 -->
<g id="edge36_Node000020_Node000011" class="edge">
<title>Node20&#45;&gt;Node11</title>
<g id="a_edge36_Node000020_Node000011"><a xlink:title=" ">
<path fill="none" stroke="#63b8ff" d="M968.58,-54.99C999.38,-44.98 1040.33,-31.67 1069.4,-22.22"/>
<polygon fill="#63b8ff" stroke="#63b8ff" points="1070.72,-25.47 1079.15,-19.05 1068.56,-18.82 1070.72,-25.47"/>
</a>
</g>
</g>
<!-- Node21 -->
<g id="Node000021" class="node">
<title>Node21</title>
<g id="a_Node000021"><a xlink:title=" ">
<polygon fill="#e0e0e0" stroke="#999999" points="950.47,-19 900.47,-19 900.47,0 950.47,0 950.47,-19"/>
<text text-anchor="middle" x="925.47" y="-7" font-family="Helvetica,sans-Serif" font-size="10.00">atomic</text>
</a>
</g>
</g>
<!-- Node20&#45;&gt;Node21 -->
<g id="edge37_Node000020_Node000021" class="edge">
<title>Node20&#45;&gt;Node21</title>
<g id="a_edge37_Node000020_Node000021"><a xlink:title=" ">
<path fill="none" stroke="#63b8ff" d="M925.47,-54.84C925.47,-47.21 925.47,-37.7 925.47,-29.45"/>
<polygon fill="#63b8ff" stroke="#63b8ff" points="928.97,-29.27 925.47,-19.27 921.97,-29.27 928.97,-29.27"/>
</a>
</g>
</g>
</g>
</svg>
