<?xml version="1.0" encoding="UTF-8" standalone="no"?>
<!DOCTYPE svg PUBLIC "-//W3C//DTD SVG 1.1//EN"
 "http://www.w3.org/Graphics/SVG/1.1/DTD/svg11.dtd">
<!-- Generated by graphviz version 2.43.0 (0)
 -->
<!-- Title: Kit/Logging/Framework/Logger.h Pages: 1 -->
<svg width="1334pt" height="291pt"
 viewBox="0.00 0.00 1334.37 291.00" xmlns="http://www.w3.org/2000/svg" xmlns:xlink="http://www.w3.org/1999/xlink">
<g id="graph0" class="graph" transform="scale(1 1) rotate(0) translate(4 287)">
<title>Kit/Logging/Framework/Logger.h</title>
<!-- Node1 -->
<g id="Node000001" class="node">
<title>Node1</title>
<g id="a_Node000001"><a xlink:title="This file declares the public facing Logging interface for managing the logging framework (i....">
<polygon fill="#999999" stroke="#666666" points="610.87,-283 481.87,-283 481.87,-253 610.87,-253 610.87,-283"/>
<text text-anchor="start" x="489.87" y="-271" font-family="Helvetica,sans-Serif" font-size="10.00">Kit/Logging/Framework</text>
<text text-anchor="middle" x="546.37" y="-260" font-family="Helvetica,sans-Serif" font-size="10.00">/Logger.h</text>
</a>
</g>
</g>
<!-- Node2 -->
<g id="Node000002" class="node">
<title>Node2</title>
<g id="a_Node000002"><a xlink:href="_i_application_8h.html" target="_top" xlink:title=" ">
<polygon fill="white" stroke="#666666" points="610.87,-151 481.87,-151 481.87,-121 610.87,-121 610.87,-151"/>
<text text-anchor="start" x="489.87" y="-139" font-family="Helvetica,sans-Serif" font-size="10.00">Kit/Logging/Framework</text>
<text text-anchor="middle" x="546.37" y="-128" font-family="Helvetica,sans-Serif" font-size="10.00">/IApplication.h</text>
</a>
</g>
</g>
<!-- Node1&#45;&gt;Node2 -->
<g id="edge1_Node000001_Node000002" class="edge">
<title>Node1&#45;&gt;Node2</title>
<g id="a_edge1_Node000001_Node000002"><a xlink:title=" ">
<path fill="none" stroke="#63b8ff" d="M546.37,-252.84C546.37,-230.86 546.37,-188.27 546.37,-161.3"/>
<polygon fill="#63b8ff" stroke="#63b8ff" points="549.87,-161.14 546.37,-151.14 542.87,-161.14 549.87,-161.14"/>
</a>
</g>
</g>
<!-- Node6 -->
<g id="Node000006" class="node">
<title>Node6</title>
<g id="a_Node000006"><a xlink:href="_logging_2_framework_2_types_8h.html" target="_top" xlink:title="This file declares various Logging specific types.">
<polygon fill="white" stroke="#666666" points="419.87,-85 290.87,-85 290.87,-55 419.87,-55 419.87,-85"/>
<text text-anchor="start" x="298.87" y="-73" font-family="Helvetica,sans-Serif" font-size="10.00">Kit/Logging/Framework</text>
<text text-anchor="middle" x="355.37" y="-62" font-family="Helvetica,sans-Serif" font-size="10.00">/types.h</text>
</a>
</g>
</g>
<!-- Node1&#45;&gt;Node6 -->
<g id="edge6_Node000001_Node000006" class="edge">
<title>Node1&#45;&gt;Node6</title>
<g id="a_edge6_Node000001_Node000006"><a xlink:title=" ">
<path fill="none" stroke="#63b8ff" d="M532.64,-252.9C499.68,-219.08 415.93,-133.15 376.51,-92.69"/>
<polygon fill="#63b8ff" stroke="#63b8ff" points="378.73,-89.95 369.24,-85.23 373.71,-94.84 378.73,-89.95"/>
</a>
</g>
</g>
<!-- Node7 -->
<g id="Node000007" class="node">
<title>Node7</title>
<g id="a_Node000007"><a xlink:href="_entry_data_8h.html" target="_top" xlink:title=" ">
<polygon fill="white" stroke="#666666" points="882.87,-217 753.87,-217 753.87,-187 882.87,-187 882.87,-217"/>
<text text-anchor="start" x="761.87" y="-205" font-family="Helvetica,sans-Serif" font-size="10.00">Kit/Logging/Framework</text>
<text text-anchor="middle" x="818.37" y="-194" font-family="Helvetica,sans-Serif" font-size="10.00">/EntryData.h</text>
</a>
</g>
</g>
<!-- Node1&#45;&gt;Node7 -->
<g id="edge9_Node000001_Node000007" class="edge">
<title>Node1&#45;&gt;Node7</title>
<g id="a_edge9_Node000001_Node000007"><a xlink:title=" ">
<path fill="none" stroke="#63b8ff" d="M606.06,-252.95C648.23,-243.03 704.86,-229.71 749.02,-219.32"/>
<polygon fill="#63b8ff" stroke="#63b8ff" points="749.89,-222.71 758.82,-217.01 748.28,-215.9 749.89,-222.71"/>
</a>
</g>
</g>
<!-- Node15 -->
<g id="Node000015" class="node">
<title>Node15</title>
<g id="a_Node000015"><a xlink:href="_classification_id_8h.html" target="_top" xlink:title="Note: The Application is responsible for defining the Classification values.">
<polygon fill="white" stroke="#666666" points="215.87,-145.5 36.87,-145.5 36.87,-126.5 215.87,-126.5 215.87,-145.5"/>
<text text-anchor="middle" x="126.37" y="-133.5" font-family="Helvetica,sans-Serif" font-size="10.00">Kit/Logging/Pkg/ClassificationId.h</text>
</a>
</g>
</g>
<!-- Node1&#45;&gt;Node15 -->
<g id="edge23_Node000001_Node000015" class="edge">
<title>Node1&#45;&gt;Node15</title>
<g id="a_edge23_Node000001_Node000015"><a xlink:title=" ">
<path fill="none" stroke="#63b8ff" d="M496.58,-252.94C462.18,-243.13 415.4,-229.58 374.37,-217 298.25,-193.66 209.59,-164.61 161.6,-148.72"/>
<polygon fill="#63b8ff" stroke="#63b8ff" points="162.59,-145.36 152,-145.54 160.39,-152.01 162.59,-145.36"/>
</a>
</g>
</g>
<!-- Node17 -->
<g id="Node000017" class="node">
<title>Node17</title>
<g id="a_Node000017"><a xlink:href="_ring_buffer_8h.html" target="_top" xlink:title=" ">
<polygon fill="white" stroke="#666666" points="1044.87,-145.5 901.87,-145.5 901.87,-126.5 1044.87,-126.5 1044.87,-145.5"/>
<text text-anchor="middle" x="973.37" y="-133.5" font-family="Helvetica,sans-Serif" font-size="10.00">Kit/Container/RingBuffer.h</text>
</a>
</g>
</g>
<!-- Node1&#45;&gt;Node17 -->
<g id="edge28_Node000001_Node000017" class="edge">
<title>Node1&#45;&gt;Node17</title>
<g id="a_edge28_Node000001_Node000017"><a xlink:title=" ">
<path fill="none" stroke="#63b8ff" d="M611.14,-262.49C697.28,-255.66 844.28,-240.91 892.37,-217 922.03,-202.26 947.57,-172.53 961.67,-153.76"/>
<polygon fill="#63b8ff" stroke="#63b8ff" points="964.6,-155.69 967.65,-145.54 958.94,-151.57 964.6,-155.69"/>
</a>
</g>
</g>
<!-- Node3 -->
<g id="Node000003" class="node">
<title>Node3</title>
<g id="a_Node000003"><a xlink:href="_i_package_8h.html" target="_top" xlink:title=" ">
<polygon fill="white" stroke="#666666" points="566.87,-85 437.87,-85 437.87,-55 566.87,-55 566.87,-85"/>
<text text-anchor="start" x="445.87" y="-73" font-family="Helvetica,sans-Serif" font-size="10.00">Kit/Logging/Framework</text>
<text text-anchor="middle" x="502.37" y="-62" font-family="Helvetica,sans-Serif" font-size="10.00">/IPackage.h</text>
</a>
</g>
</g>
<!-- Node2&#45;&gt;Node3 -->
<g id="edge2_Node000002_Node000003" class="edge">
<title>Node2&#45;&gt;Node3</title>
<g id="a_edge2_Node000002_Node000003"><a xlink:title=" ">
<path fill="none" stroke="#63b8ff" d="M536.61,-120.8C531.08,-112.76 524.05,-102.53 517.79,-93.43"/>
<polygon fill="#63b8ff" stroke="#63b8ff" points="520.66,-91.42 512.11,-85.16 514.89,-95.39 520.66,-91.42"/>
</a>
</g>
</g>
<!-- Node5 -->
<g id="Node000005" class="node">
<title>Node5</title>
<g id="a_Node000005"><a xlink:title=" ">
<polygon fill="#e0e0e0" stroke="#999999" points="678.87,-19 625.87,-19 625.87,0 678.87,0 678.87,-19"/>
<text text-anchor="middle" x="652.37" y="-7" font-family="Helvetica,sans-Serif" font-size="10.00">stdint.h</text>
</a>
</g>
</g>
<!-- Node2&#45;&gt;Node5 -->
<g id="edge5_Node000002_Node000005" class="edge">
<title>Node2&#45;&gt;Node5</title>
<g id="a_edge5_Node000002_Node000005"><a xlink:title=" ">
<path fill="none" stroke="#63b8ff" d="M567.92,-121C580.96,-111.81 597.33,-98.96 609.37,-85 624.26,-67.75 636.67,-44.59 644.28,-28.7"/>
<polygon fill="#63b8ff" stroke="#63b8ff" points="647.54,-29.99 648.56,-19.45 641.18,-27.06 647.54,-29.99"/>
</a>
</g>
</g>
<!-- Node4 -->
<g id="Node000004" class="node">
<title>Node4</title>
<g id="a_Node000004"><a xlink:title=" ">
<polygon fill="#e0e0e0" stroke="#999999" points="365.87,-19 292.87,-19 292.87,0 365.87,0 365.87,-19"/>
<text text-anchor="middle" x="329.37" y="-7" font-family="Helvetica,sans-Serif" font-size="10.00">kit_config.h</text>
</a>
</g>
</g>
<!-- Node3&#45;&gt;Node4 -->
<g id="edge3_Node000003_Node000004" class="edge">
<title>Node3&#45;&gt;Node4</title>
<g id="a_edge3_Node000003_Node000004"><a xlink:title=" ">
<path fill="none" stroke="#63b8ff" d="M460.94,-54.99C431.47,-45.02 392.32,-31.78 364.4,-22.35"/>
<polygon fill="#63b8ff" stroke="#63b8ff" points="365.26,-18.94 354.67,-19.05 363.02,-25.57 365.26,-18.94"/>
</a>
</g>
</g>
<!-- Node3&#45;&gt;Node5 -->
<g id="edge4_Node000003_Node000005" class="edge">
<title>Node3&#45;&gt;Node5</title>
<g id="a_edge4_Node000003_Node000005"><a xlink:title=" ">
<path fill="none" stroke="#63b8ff" d="M538.3,-54.99C563.44,-45.18 596.7,-32.21 620.82,-22.81"/>
<polygon fill="#63b8ff" stroke="#63b8ff" points="622.18,-26.03 630.22,-19.14 619.63,-19.51 622.18,-26.03"/>
</a>
</g>
</g>
<!-- Node6&#45;&gt;Node4 -->
<g id="edge7_Node000006_Node000004" class="edge">
<title>Node6&#45;&gt;Node4</title>
<g id="a_edge7_Node000006_Node000004"><a xlink:title=" ">
<path fill="none" stroke="#63b8ff" d="M349.08,-54.84C345.57,-46.95 341.17,-37.05 337.42,-28.61"/>
<polygon fill="#63b8ff" stroke="#63b8ff" points="340.53,-26.98 333.27,-19.27 334.13,-29.83 340.53,-26.98"/>
</a>
</g>
</g>
<!-- Node6&#45;&gt;Node5 -->
<g id="edge8_Node000006_Node000005" class="edge">
<title>Node6&#45;&gt;Node5</title>
<g id="a_edge8_Node000006_Node000005"><a xlink:title=" ">
<path fill="none" stroke="#63b8ff" d="M420.18,-56.23C479.97,-44.46 566.64,-27.39 615.41,-17.78"/>
<polygon fill="#63b8ff" stroke="#63b8ff" points="616.38,-21.16 625.51,-15.79 615.03,-14.29 616.38,-21.16"/>
</a>
</g>
</g>
<!-- Node7&#45;&gt;Node5 -->
<g id="edge21_Node000007_Node000005" class="edge">
<title>Node7&#45;&gt;Node5</title>
<g id="a_edge21_Node000007_Node000005"><a xlink:title=" ">
<path fill="none" stroke="#63b8ff" d="M793.7,-186.93C778.63,-177.72 759.43,-164.86 744.37,-151 716.7,-125.52 711.97,-116.48 691.37,-85 679.29,-66.54 667.88,-43.91 660.56,-28.47"/>
<polygon fill="#63b8ff" stroke="#63b8ff" points="663.58,-26.66 656.19,-19.07 657.23,-29.61 663.58,-26.66"/>
</a>
</g>
</g>
<!-- Node8 -->
<g id="Node000008" class="node">
<title>Node8</title>
<g id="a_Node000008"><a xlink:href="_cursor_b_e_8h.html" target="_top" xlink:title=" ">
<polygon fill="white" stroke="#666666" points="883.37,-145.5 753.37,-145.5 753.37,-126.5 883.37,-126.5 883.37,-145.5"/>
<text text-anchor="middle" x="818.37" y="-133.5" font-family="Helvetica,sans-Serif" font-size="10.00">Kit/Memory/CursorBE.h</text>
</a>
</g>
</g>
<!-- Node7&#45;&gt;Node8 -->
<g id="edge10_Node000007_Node000008" class="edge">
<title>Node7&#45;&gt;Node8</title>
<g id="a_edge10_Node000007_Node000008"><a xlink:title=" ">
<path fill="none" stroke="#63b8ff" d="M818.37,-186.8C818.37,-177.7 818.37,-165.79 818.37,-155.9"/>
<polygon fill="#63b8ff" stroke="#63b8ff" points="821.87,-155.84 818.37,-145.84 814.87,-155.84 821.87,-155.84"/>
</a>
</g>
</g>
<!-- Node10 -->
<g id="Node000010" class="node">
<title>Node10</title>
<g id="a_Node000010"><a xlink:title=" ">
<polygon fill="#e0e0e0" stroke="#999999" points="1326.37,-19 1276.37,-19 1276.37,0 1326.37,0 1326.37,-19"/>
<text text-anchor="middle" x="1301.37" y="-7" font-family="Helvetica,sans-Serif" font-size="10.00">cstdint</text>
</a>
</g>
</g>
<!-- Node7&#45;&gt;Node10 -->
<g id="edge20_Node000007_Node000010" class="edge">
<title>Node7&#45;&gt;Node10</title>
<g id="a_edge20_Node000007_Node000010"><a xlink:title=" ">
<path fill="none" stroke="#63b8ff" d="M882.92,-200.24C952.33,-197.43 1064.78,-187.04 1154.37,-151 1201.4,-132.08 1211.36,-120.66 1247.37,-85 1265.05,-67.5 1281.2,-43.73 1291.14,-27.79"/>
<polygon fill="#63b8ff" stroke="#63b8ff" points="1294.28,-29.37 1296.48,-19 1288.3,-25.73 1294.28,-29.37"/>
</a>
</g>
</g>
<!-- Node13 -->
<g id="Node000013" class="node">
<title>Node13</title>
<g id="a_Node000013"><a xlink:title=" ">
<polygon fill="#e0e0e0" stroke="#999999" points="1254.87,-19 1201.87,-19 1201.87,0 1254.87,0 1254.87,-19"/>
<text text-anchor="middle" x="1228.37" y="-7" font-family="Helvetica,sans-Serif" font-size="10.00">string.h</text>
</a>
</g>
</g>
<!-- Node7&#45;&gt;Node13 -->
<g id="edge22_Node000007_Node000013" class="edge">
<title>Node7&#45;&gt;Node13</title>
<g id="a_edge22_Node000007_Node000013"><a xlink:title=" ">
<path fill="none" stroke="#63b8ff" d="M882.98,-192.77C988.66,-177.77 1190.75,-142.18 1230.37,-85 1241.63,-68.76 1238.74,-45.37 1234.58,-29.15"/>
<polygon fill="#63b8ff" stroke="#63b8ff" points="1237.84,-27.84 1231.65,-19.24 1231.13,-29.83 1237.84,-27.84"/>
</a>
</g>
</g>
<!-- Node9 -->
<g id="Node000009" class="node">
<title>Node9</title>
<g id="a_Node000009"><a xlink:href="_cursor_base_8h.html" target="_top" xlink:title=" ">
<polygon fill="white" stroke="#666666" points="1199.87,-79.5 1058.87,-79.5 1058.87,-60.5 1199.87,-60.5 1199.87,-79.5"/>
<text text-anchor="middle" x="1129.37" y="-67.5" font-family="Helvetica,sans-Serif" font-size="10.00">Kit/Memory/CursorBase.h</text>
</a>
</g>
</g>
<!-- Node8&#45;&gt;Node9 -->
<g id="edge11_Node000008_Node000009" class="edge">
<title>Node8&#45;&gt;Node9</title>
<g id="a_edge11_Node000008_Node000009"><a xlink:title=" ">
<path fill="none" stroke="#63b8ff" d="M859.99,-126.44C916.44,-114.82 1017.19,-94.09 1078.2,-81.53"/>
<polygon fill="#63b8ff" stroke="#63b8ff" points="1078.91,-84.96 1088,-79.51 1077.5,-78.1 1078.91,-84.96"/>
</a>
</g>
</g>
<!-- Node12 -->
<g id="Node000012" class="node">
<title>Node12</title>
<g id="a_Node000012"><a xlink:href="endian_8h.html" target="_top" xlink:title="This file provides a set of macros/method to convert between the &#39;host&#39; platform and Big/Little endia...">
<polygon fill="white" stroke="#666666" points="800.87,-79.5 699.87,-79.5 699.87,-60.5 800.87,-60.5 800.87,-79.5"/>
<text text-anchor="middle" x="750.37" y="-67.5" font-family="Helvetica,sans-Serif" font-size="10.00">Kit/Type/endian.h</text>
</a>
</g>
</g>
<!-- Node8&#45;&gt;Node12 -->
<g id="edge15_Node000008_Node000012" class="edge">
<title>Node8&#45;&gt;Node12</title>
<g id="a_edge15_Node000008_Node000012"><a xlink:title=" ">
<path fill="none" stroke="#63b8ff" d="M809.2,-126.37C798.51,-116.31 780.63,-99.48 767.38,-87.01"/>
<polygon fill="#63b8ff" stroke="#63b8ff" points="769.52,-84.21 759.83,-79.91 764.72,-89.31 769.52,-84.21"/>
</a>
</g>
</g>
<!-- Node14 -->
<g id="Node000014" class="node">
<title>Node14</title>
<g id="a_Node000014"><a xlink:title=" ">
<polygon fill="#e0e0e0" stroke="#999999" points="887.87,-79.5 818.87,-79.5 818.87,-60.5 887.87,-60.5 887.87,-79.5"/>
<text text-anchor="middle" x="853.37" y="-67.5" font-family="Helvetica,sans-Serif" font-size="10.00">type_traits</text>
</a>
</g>
</g>
<!-- Node8&#45;&gt;Node14 -->
<g id="edge19_Node000008_Node000014" class="edge">
<title>Node8&#45;&gt;Node14</title>
<g id="a_edge19_Node000008_Node000014"><a xlink:title=" ">
<path fill="none" stroke="#63b8ff" d="M823.09,-126.37C828.33,-116.78 836.94,-101.05 843.64,-88.8"/>
<polygon fill="#63b8ff" stroke="#63b8ff" points="846.78,-90.36 848.5,-79.91 840.63,-87 846.78,-90.36"/>
</a>
</g>
</g>
<!-- Node9&#45;&gt;Node5 -->
<g id="edge13_Node000009_Node000005" class="edge">
<title>Node9&#45;&gt;Node5</title>
<g id="a_edge13_Node000009_Node000005"><a xlink:title=" ">
<path fill="none" stroke="#63b8ff" d="M1083.34,-60.44C1072.24,-58.52 1060.4,-56.58 1049.37,-55 917.14,-36.04 759.15,-20.42 689.02,-13.85"/>
<polygon fill="#63b8ff" stroke="#63b8ff" points="689.21,-10.35 678.93,-12.91 688.56,-17.32 689.21,-10.35"/>
</a>
</g>
</g>
<!-- Node9&#45;&gt;Node10 -->
<g id="edge12_Node000009_Node000010" class="edge">
<title>Node9&#45;&gt;Node10</title>
<g id="a_edge12_Node000009_Node000010"><a xlink:title=" ">
<path fill="none" stroke="#63b8ff" d="M1154.38,-60.49C1183.94,-50.44 1233.29,-33.66 1266.56,-22.34"/>
<polygon fill="#63b8ff" stroke="#63b8ff" points="1267.99,-25.55 1276.33,-19.02 1265.74,-18.92 1267.99,-25.55"/>
</a>
</g>
</g>
<!-- Node11 -->
<g id="Node000011" class="node">
<title>Node11</title>
<g id="a_Node000011"><a xlink:title=" ">
<polygon fill="#e0e0e0" stroke="#999999" points="1077.87,-19 1024.87,-19 1024.87,0 1077.87,0 1077.87,-19"/>
<text text-anchor="middle" x="1051.37" y="-7" font-family="Helvetica,sans-Serif" font-size="10.00">stdlib.h</text>
</a>
</g>
</g>
<!-- Node9&#45;&gt;Node11 -->
<g id="edge14_Node000009_Node000011" class="edge">
<title>Node9&#45;&gt;Node11</title>
<g id="a_edge14_Node000009_Node000011"><a xlink:title=" ">
<path fill="none" stroke="#63b8ff" d="M1117.86,-60.37C1105.54,-51.12 1085.75,-36.28 1070.96,-25.19"/>
<polygon fill="#63b8ff" stroke="#63b8ff" points="1073.03,-22.37 1062.93,-19.17 1068.83,-27.97 1073.03,-22.37"/>
</a>
</g>
</g>
<!-- Node12&#45;&gt;Node4 -->
<g id="edge16_Node000012_Node000004" class="edge">
<title>Node12&#45;&gt;Node4</title>
<g id="a_edge16_Node000012_Node000004"><a xlink:title=" ">
<path fill="none" stroke="#63b8ff" d="M699.59,-61.94C617.34,-50.51 456.15,-28.12 376.38,-17.03"/>
<polygon fill="#63b8ff" stroke="#63b8ff" points="376.53,-13.52 366.15,-15.61 375.57,-20.45 376.53,-13.52"/>
</a>
</g>
</g>
<!-- Node12&#45;&gt;Node5 -->
<g id="edge17_Node000012_Node000005" class="edge">
<title>Node12&#45;&gt;Node5</title>
<g id="a_edge17_Node000012_Node000005"><a xlink:title=" ">
<path fill="none" stroke="#63b8ff" d="M735.91,-60.37C720.06,-50.91 694.4,-35.59 675.7,-24.42"/>
<polygon fill="#63b8ff" stroke="#63b8ff" points="677.27,-21.29 666.89,-19.17 673.69,-27.3 677.27,-21.29"/>
</a>
</g>
</g>
<!-- Node12&#45;&gt;Node13 -->
<g id="edge18_Node000012_Node000013" class="edge">
<title>Node12&#45;&gt;Node13</title>
<g id="a_edge18_Node000012_Node000013"><a xlink:title=" ">
<path fill="none" stroke="#63b8ff" d="M783.55,-60.49C792.23,-58.47 801.62,-56.48 810.37,-55 950.28,-31.32 1118.8,-17.94 1191.75,-12.87"/>
<polygon fill="#63b8ff" stroke="#63b8ff" points="1192.07,-16.36 1201.81,-12.19 1191.59,-9.38 1192.07,-16.36"/>
</a>
</g>
</g>
<!-- Node15&#45;&gt;Node4 -->
<g id="edge24_Node000015_Node000004" class="edge">
<title>Node15&#45;&gt;Node4</title>
<g id="a_edge24_Node000015_Node000004"><a xlink:title=" ">
<path fill="none" stroke="#63b8ff" d="M91.48,-126.44C46.78,-113.89 -21.65,-88.32 7.37,-55 11.87,-49.84 194.59,-26.93 282.74,-16.15"/>
<polygon fill="#63b8ff" stroke="#63b8ff" points="283.25,-19.61 292.75,-14.93 282.4,-12.66 283.25,-19.61"/>
</a>
</g>
</g>
<!-- Node15&#45;&gt;Node5 -->
<g id="edge27_Node000015_Node000005" class="edge">
<title>Node15&#45;&gt;Node5</title>
<g id="a_edge27_Node000015_Node000005"><a xlink:title=" ">
<path fill="none" stroke="#63b8ff" d="M216.29,-131.92C328.9,-126.88 514.59,-114.32 576.37,-85 583.74,-81.5 617.1,-47.39 637.09,-26.56"/>
<polygon fill="#63b8ff" stroke="#63b8ff" points="639.87,-28.71 644.25,-19.07 634.81,-23.88 639.87,-28.71"/>
</a>
</g>
</g>
<!-- Node16 -->
<g id="Node000016" class="node">
<title>Node16</title>
<g id="a_Node000016"><a xlink:href="_better_enum_8h_source.html" target="_top" xlink:title=" ">
<polygon fill="white" stroke="#666666" points="141.87,-79.5 16.87,-79.5 16.87,-60.5 141.87,-60.5 141.87,-79.5"/>
<text text-anchor="middle" x="79.37" y="-67.5" font-family="Helvetica,sans-Serif" font-size="10.00">Kit/Type/BetterEnum.h</text>
</a>
</g>
</g>
<!-- Node15&#45;&gt;Node16 -->
<g id="edge25_Node000015_Node000016" class="edge">
<title>Node15&#45;&gt;Node16</title>
<g id="a_edge25_Node000015_Node000016"><a xlink:title=" ">
<path fill="none" stroke="#63b8ff" d="M120.03,-126.37C112.86,-116.59 100.98,-100.42 91.91,-88.08"/>
<polygon fill="#63b8ff" stroke="#63b8ff" points="94.65,-85.89 85.91,-79.91 89.01,-90.04 94.65,-85.89"/>
</a>
</g>
</g>
<!-- Node16&#45;&gt;Node4 -->
<g id="edge26_Node000016_Node000004" class="edge">
<title>Node16&#45;&gt;Node4</title>
<g id="a_edge26_Node000016_Node000004"><a xlink:title=" ">
<path fill="none" stroke="#63b8ff" d="M115.73,-60.49C159.98,-50.14 234.76,-32.64 283.09,-21.33"/>
<polygon fill="#63b8ff" stroke="#63b8ff" points="284.04,-24.7 292.98,-19.02 282.44,-17.89 284.04,-24.7"/>
</a>
</g>
</g>
<!-- Node17&#45;&gt;Node13 -->
<g id="edge35_Node000017_Node000013" class="edge">
<title>Node17&#45;&gt;Node13</title>
<g id="a_edge35_Node000017_Node000013"><a xlink:title=" ">
<path fill="none" stroke="#63b8ff" d="M1045.13,-128.11C1105.69,-120.85 1186.15,-107.3 1209.37,-85 1224.24,-70.73 1228.08,-46.58 1228.8,-29.65"/>
<polygon fill="#63b8ff" stroke="#63b8ff" points="1232.3,-29.33 1228.88,-19.3 1225.3,-29.27 1232.3,-29.33"/>
</a>
</g>
</g>
<!-- Node18 -->
<g id="Node000018" class="node">
<title>Node18</title>
<g id="a_Node000018"><a xlink:href="_ring_buffer_base_8h.html" target="_top" xlink:title=" ">
<polygon fill="white" stroke="#666666" points="1040.37,-85 906.37,-85 906.37,-55 1040.37,-55 1040.37,-85"/>
<text text-anchor="start" x="914.37" y="-73" font-family="Helvetica,sans-Serif" font-size="10.00">Kit/Container/RingBuffer</text>
<text text-anchor="middle" x="973.37" y="-62" font-family="Helvetica,sans-Serif" font-size="10.00">Base.h</text>
</a>
</g>
</g>
<!-- Node17&#45;&gt;Node18 -->
<g id="edge29_Node000017_Node000018" class="edge">
<title>Node17&#45;&gt;Node18</title>
<g id="a_edge29_Node000017_Node000018"><a xlink:title=" ">
<path fill="none" stroke="#63b8ff" d="M973.37,-126.37C973.37,-118.49 973.37,-106.45 973.37,-95.6"/>
<polygon fill="#63b8ff" stroke="#63b8ff" points="976.87,-95.36 973.37,-85.36 969.87,-95.36 976.87,-95.36"/>
</a>
</g>
</g>
<!-- Node19 -->
<g id="Node000019" class="node">
<title>Node19</title>
<g id="a_Node000019"><a xlink:href="_assert_8h.html" target="_top" xlink:title=" ">
<polygon fill="white" stroke="#666666" points="272.87,-79.5 159.87,-79.5 159.87,-60.5 272.87,-60.5 272.87,-79.5"/>
<text text-anchor="middle" x="216.37" y="-67.5" font-family="Helvetica,sans-Serif" font-size="10.00">Kit/System/Assert.h</text>
</a>
</g>
</g>
<!-- Node17&#45;&gt;Node19 -->
<g id="edge32_Node000017_Node000019" class="edge">
<title>Node17&#45;&gt;Node19</title>
<g id="a_edge32_Node000017_Node000019"><a xlink:title=" ">
<path fill="none" stroke="#63b8ff" d="M929.36,-126.47C917.4,-124.4 904.42,-122.39 892.37,-121 622.14,-89.79 550.91,-121.75 281.37,-85 274.92,-84.12 268.15,-82.95 261.52,-81.65"/>
<polygon fill="#63b8ff" stroke="#63b8ff" points="261.78,-78.13 251.28,-79.55 260.37,-84.99 261.78,-78.13"/>
</a>
</g>
</g>
<!-- Node18&#45;&gt;Node5 -->
<g id="edge30_Node000018_Node000005" class="edge">
<title>Node18&#45;&gt;Node5</title>
<g id="a_edge30_Node000018_Node000005"><a xlink:title=" ">
<path fill="none" stroke="#63b8ff" d="M906.24,-56.62C903.24,-56.07 900.28,-55.53 897.37,-55 823.49,-41.48 737.03,-25.82 689.11,-17.14"/>
<polygon fill="#63b8ff" stroke="#63b8ff" points="689.67,-13.69 679.2,-15.35 688.42,-20.58 689.67,-13.69"/>
</a>
</g>
</g>
<!-- Node18&#45;&gt;Node11 -->
<g id="edge31_Node000018_Node000011" class="edge">
<title>Node18&#45;&gt;Node11</title>
<g id="a_edge31_Node000018_Node000011"><a xlink:title=" ">
<path fill="none" stroke="#63b8ff" d="M992.25,-54.84C1004.15,-45.91 1019.5,-34.41 1031.57,-25.35"/>
<polygon fill="#63b8ff" stroke="#63b8ff" points="1033.79,-28.07 1039.69,-19.27 1029.59,-22.47 1033.79,-28.07"/>
</a>
</g>
</g>
<!-- Node19&#45;&gt;Node4 -->
<g id="edge33_Node000019_Node000004" class="edge">
<title>Node19&#45;&gt;Node4</title>
<g id="a_edge33_Node000019_Node000004"><a xlink:title=" ">
<path fill="none" stroke="#63b8ff" d="M233.05,-60.37C251.66,-50.73 282,-35.03 303.65,-23.81"/>
<polygon fill="#63b8ff" stroke="#63b8ff" points="305.36,-26.87 312.63,-19.17 302.14,-20.66 305.36,-26.87"/>
</a>
</g>
</g>
<!-- Node20 -->
<g id="Node000020" class="node">
<title>Node20</title>
<g id="a_Node000020"><a xlink:title=" ">
<polygon fill="#e0e0e0" stroke="#999999" points="248.87,-19 183.87,-19 183.87,0 248.87,0 248.87,-19"/>
<text text-anchor="middle" x="216.37" y="-7" font-family="Helvetica,sans-Serif" font-size="10.00">kit_map.h</text>
</a>
</g>
</g>
<!-- Node19&#45;&gt;Node20 -->
<g id="edge34_Node000019_Node000020" class="edge">
<title>Node19&#45;&gt;Node20</title>
<g id="a_edge34_Node000019_Node000020"><a xlink:title=" ">
<path fill="none" stroke="#63b8ff" d="M216.37,-60.37C216.37,-52.25 216.37,-39.81 216.37,-29.39"/>
<polygon fill="#63b8ff" stroke="#63b8ff" points="219.87,-29.17 216.37,-19.17 212.87,-29.17 219.87,-29.17"/>
</a>
</g>
</g>
</g>
</svg>
