<?xml version="1.0" encoding="UTF-8" standalone="no"?>
<!DOCTYPE svg PUBLIC "-//W3C//DTD SVG 1.1//EN"
 "http://www.w3.org/Graphics/SVG/1.1/DTD/svg11.dtd">
<!-- Generated by graphviz version 2.43.0 (0)
 -->
<!-- Title: Kit/Dm/ModelDatabase.h Pages: 1 -->
<svg width="773pt" height="313pt"
 viewBox="0.00 0.00 773.00 313.00" xmlns="http://www.w3.org/2000/svg" xmlns:xlink="http://www.w3.org/1999/xlink">
<g id="graph0" class="graph" transform="scale(1 1) rotate(0) translate(4 309)">
<title>Kit/Dm/ModelDatabase.h</title>
<!-- Node1 -->
<g id="Node000001" class="node">
<title>Node1</title>
<g id="a_Node000001"><a xlink:title=" ">
<polygon fill="#999999" stroke="#666666" points="479,-305 340,-305 340,-286 479,-286 479,-305"/>
<text text-anchor="middle" x="409.5" y="-293" font-family="Helvetica,sans-Serif" font-size="10.00">Kit/Dm/ModelDatabase.h</text>
</a>
</g>
</g>
<!-- Node2 -->
<g id="Node000002" class="node">
<title>Node2</title>
<g id="a_Node000002"><a xlink:href="_i_model_database_8h.html" target="_top" xlink:title=" ">
<polygon fill="white" stroke="#666666" points="359.5,-189.5 217.5,-189.5 217.5,-170.5 359.5,-170.5 359.5,-189.5"/>
<text text-anchor="middle" x="288.5" y="-177.5" font-family="Helvetica,sans-Serif" font-size="10.00">Kit/Dm/IModelDatabase.h</text>
</a>
</g>
</g>
<!-- Node1&#45;&gt;Node2 -->
<g id="edge1_Node000001_Node000002" class="edge">
<title>Node1&#45;&gt;Node2</title>
<g id="a_edge1_Node000001_Node000002"><a xlink:title=" ">
<path fill="none" stroke="#63b8ff" d="M400.41,-285.97C380.17,-266.99 331.18,-221.03 305.24,-196.71"/>
<polygon fill="#63b8ff" stroke="#63b8ff" points="307.39,-193.92 297.7,-189.63 302.6,-199.02 307.39,-193.92"/>
</a>
</g>
</g>
<!-- Node15 -->
<g id="Node000015" class="node">
<title>Node15</title>
<g id="a_Node000015"><a xlink:href="_ordered_list_8h.html" target="_top" xlink:title=" ">
<polygon fill="white" stroke="#666666" points="570,-250 421,-250 421,-231 570,-231 570,-250"/>
<text text-anchor="middle" x="495.5" y="-238" font-family="Helvetica,sans-Serif" font-size="10.00">Kit/Container/OrderedList.h</text>
</a>
</g>
</g>
<!-- Node1&#45;&gt;Node15 -->
<g id="edge15_Node000001_Node000015" class="edge">
<title>Node1&#45;&gt;Node15</title>
<g id="a_edge15_Node000001_Node000015"><a xlink:title=" ">
<path fill="none" stroke="#63b8ff" d="M423.32,-285.98C436.65,-277.77 457.08,-265.18 472.81,-255.49"/>
<polygon fill="#63b8ff" stroke="#63b8ff" points="474.75,-258.4 481.43,-250.17 471.08,-252.44 474.75,-258.4"/>
</a>
</g>
</g>
<!-- Node3 -->
<g id="Node000003" class="node">
<title>Node3</title>
<g id="a_Node000003"><a xlink:title=" ">
<polygon fill="#e0e0e0" stroke="#999999" points="325,-129 252,-129 252,-110 325,-110 325,-129"/>
<text text-anchor="middle" x="288.5" y="-117" font-family="Helvetica,sans-Serif" font-size="10.00">kit_config.h</text>
</a>
</g>
</g>
<!-- Node2&#45;&gt;Node3 -->
<g id="edge2_Node000002_Node000003" class="edge">
<title>Node2&#45;&gt;Node3</title>
<g id="a_edge2_Node000002_Node000003"><a xlink:title=" ">
<path fill="none" stroke="#63b8ff" d="M288.5,-170.37C288.5,-162.25 288.5,-149.81 288.5,-139.39"/>
<polygon fill="#63b8ff" stroke="#63b8ff" points="292,-139.17 288.5,-129.17 285,-139.17 292,-139.17"/>
</a>
</g>
</g>
<!-- Node4 -->
<g id="Node000004" class="node">
<title>Node4</title>
<g id="a_Node000004"><a xlink:href="_i_string_8h.html" target="_top" xlink:title=" ">
<polygon fill="white" stroke="#666666" points="440,-129 343,-129 343,-110 440,-110 440,-129"/>
<text text-anchor="middle" x="391.5" y="-117" font-family="Helvetica,sans-Serif" font-size="10.00">Kit/Text/IString.h</text>
</a>
</g>
</g>
<!-- Node2&#45;&gt;Node4 -->
<g id="edge3_Node000002_Node000004" class="edge">
<title>Node2&#45;&gt;Node4</title>
<g id="a_edge3_Node000002_Node000004"><a xlink:title=" ">
<path fill="none" stroke="#63b8ff" d="M303.7,-170.37C320.51,-160.82 347.82,-145.31 367.52,-134.12"/>
<polygon fill="#63b8ff" stroke="#63b8ff" points="369.27,-137.15 376.24,-129.17 365.82,-131.06 369.27,-137.15"/>
</a>
</g>
</g>
<!-- Node12 -->
<g id="Node000012" class="node">
<title>Node12</title>
<g id="a_Node000012"><a xlink:href="_mutex_8h.html" target="_top" xlink:title=" ">
<polygon fill="white" stroke="#666666" points="113,-129 0,-129 0,-110 113,-110 113,-129"/>
<text text-anchor="middle" x="56.5" y="-117" font-family="Helvetica,sans-Serif" font-size="10.00">Kit/System/Mutex.h</text>
</a>
</g>
</g>
<!-- Node2&#45;&gt;Node12 -->
<g id="edge11_Node000002_Node000012" class="edge">
<title>Node2&#45;&gt;Node12</title>
<g id="a_edge11_Node000002_Node000012"><a xlink:title=" ">
<path fill="none" stroke="#63b8ff" d="M254.77,-170.49C213.87,-160.18 144.88,-142.78 100.02,-131.47"/>
<polygon fill="#63b8ff" stroke="#63b8ff" points="100.83,-128.07 90.28,-129.02 99.12,-134.86 100.83,-128.07"/>
</a>
</g>
</g>
<!-- Node14 -->
<g id="Node000014" class="node">
<title>Node14</title>
<g id="a_Node000014"><a xlink:href="_arduino_8h_source.html" target="_top" xlink:title=" ">
<polygon fill="white" stroke="#666666" points="234,-129 131,-129 131,-110 234,-110 234,-129"/>
<text text-anchor="middle" x="182.5" y="-117" font-family="Helvetica,sans-Serif" font-size="10.00">Kit/Json/Arduino.h</text>
</a>
</g>
</g>
<!-- Node2&#45;&gt;Node14 -->
<g id="edge14_Node000002_Node000014" class="edge">
<title>Node2&#45;&gt;Node14</title>
<g id="a_edge14_Node000002_Node000014"><a xlink:title=" ">
<path fill="none" stroke="#63b8ff" d="M272.86,-170.37C255.56,-160.82 227.45,-145.31 207.17,-134.12"/>
<polygon fill="#63b8ff" stroke="#63b8ff" points="208.65,-130.93 198.2,-129.17 205.27,-137.06 208.65,-130.93"/>
</a>
</g>
</g>
<!-- Node5 -->
<g id="Node000005" class="node">
<title>Node5</title>
<g id="a_Node000005"><a xlink:href="_key_8h.html" target="_top" xlink:title=" ">
<polygon fill="white" stroke="#666666" points="589,-74 480,-74 480,-55 589,-55 589,-74"/>
<text text-anchor="middle" x="534.5" y="-62" font-family="Helvetica,sans-Serif" font-size="10.00">Kit/Container/Key.h</text>
</a>
</g>
</g>
<!-- Node4&#45;&gt;Node5 -->
<g id="edge4_Node000004_Node000005" class="edge">
<title>Node4&#45;&gt;Node5</title>
<g id="a_edge4_Node000004_Node000005"><a xlink:title=" ">
<path fill="none" stroke="#63b8ff" d="M414.48,-109.98C438,-101.27 474.79,-87.63 501.44,-77.75"/>
<polygon fill="#63b8ff" stroke="#63b8ff" points="502.95,-80.93 511.11,-74.17 500.51,-74.36 502.95,-80.93"/>
</a>
</g>
</g>
<!-- Node9 -->
<g id="Node000009" class="node">
<title>Node9</title>
<g id="a_Node000009"><a xlink:href="printfchecker_8h.html" target="_top" xlink:title="This file contains macro that enables the GCC (and Clang) compiler to validate printf flags with thei...">
<polygon fill="white" stroke="#666666" points="462,-74 317,-74 317,-55 462,-55 462,-74"/>
<text text-anchor="middle" x="389.5" y="-62" font-family="Helvetica,sans-Serif" font-size="10.00">Kit/System/printfchecker.h</text>
</a>
</g>
</g>
<!-- Node4&#45;&gt;Node9 -->
<g id="edge8_Node000004_Node000009" class="edge">
<title>Node4&#45;&gt;Node9</title>
<g id="a_edge8_Node000004_Node000009"><a xlink:title=" ">
<path fill="none" stroke="#63b8ff" d="M391.17,-109.75C390.91,-102.8 390.53,-92.85 390.2,-84.13"/>
<polygon fill="#63b8ff" stroke="#63b8ff" points="393.7,-83.95 389.82,-74.09 386.7,-84.21 393.7,-83.95"/>
</a>
</g>
</g>
<!-- Node10 -->
<g id="Node000010" class="node">
<title>Node10</title>
<g id="a_Node000010"><a xlink:title=" ">
<polygon fill="#e0e0e0" stroke="#999999" points="220.5,-74 164.5,-74 164.5,-55 220.5,-55 220.5,-74"/>
<text text-anchor="middle" x="192.5" y="-62" font-family="Helvetica,sans-Serif" font-size="10.00">stdarg.h</text>
</a>
</g>
</g>
<!-- Node4&#45;&gt;Node10 -->
<g id="edge9_Node000004_Node000010" class="edge">
<title>Node4&#45;&gt;Node10</title>
<g id="a_edge9_Node000004_Node000010"><a xlink:title=" ">
<path fill="none" stroke="#63b8ff" d="M359.53,-109.98C324.38,-100.62 267.94,-85.59 230.54,-75.63"/>
<polygon fill="#63b8ff" stroke="#63b8ff" points="231.1,-72.16 220.53,-72.97 229.3,-78.92 231.1,-72.16"/>
</a>
</g>
</g>
<!-- Node11 -->
<g id="Node000011" class="node">
<title>Node11</title>
<g id="a_Node000011"><a xlink:title=" ">
<polygon fill="#e0e0e0" stroke="#999999" points="298.5,-74 238.5,-74 238.5,-55 298.5,-55 298.5,-74"/>
<text text-anchor="middle" x="268.5" y="-62" font-family="Helvetica,sans-Serif" font-size="10.00">iostream</text>
</a>
</g>
</g>
<!-- Node4&#45;&gt;Node11 -->
<g id="edge10_Node000004_Node000011" class="edge">
<title>Node4&#45;&gt;Node11</title>
<g id="a_edge10_Node000004_Node000011"><a xlink:title=" ">
<path fill="none" stroke="#63b8ff" d="M371.74,-109.98C351.77,-101.38 320.7,-87.99 297.85,-78.15"/>
<polygon fill="#63b8ff" stroke="#63b8ff" points="299.19,-74.91 288.62,-74.17 296.42,-81.34 299.19,-74.91"/>
</a>
</g>
</g>
<!-- Node6 -->
<g id="Node000006" class="node">
<title>Node6</title>
<g id="a_Node000006"><a xlink:title=" ">
<polygon fill="#e0e0e0" stroke="#999999" points="514,-19 461,-19 461,0 514,0 514,-19"/>
<text text-anchor="middle" x="487.5" y="-7" font-family="Helvetica,sans-Serif" font-size="10.00">stdint.h</text>
</a>
</g>
</g>
<!-- Node5&#45;&gt;Node6 -->
<g id="edge5_Node000005_Node000006" class="edge">
<title>Node5&#45;&gt;Node6</title>
<g id="a_edge5_Node000005_Node000006"><a xlink:title=" ">
<path fill="none" stroke="#63b8ff" d="M526.74,-54.75C520.03,-47.18 510.16,-36.05 501.99,-26.84"/>
<polygon fill="#63b8ff" stroke="#63b8ff" points="504.37,-24.25 495.12,-19.09 499.13,-28.89 504.37,-24.25"/>
</a>
</g>
</g>
<!-- Node7 -->
<g id="Node000007" class="node">
<title>Node7</title>
<g id="a_Node000007"><a xlink:title=" ">
<polygon fill="#e0e0e0" stroke="#999999" points="311,-19 258,-19 258,0 311,0 311,-19"/>
<text text-anchor="middle" x="284.5" y="-7" font-family="Helvetica,sans-Serif" font-size="10.00">stdlib.h</text>
</a>
</g>
</g>
<!-- Node5&#45;&gt;Node7 -->
<g id="edge6_Node000005_Node000007" class="edge">
<title>Node5&#45;&gt;Node7</title>
<g id="a_edge6_Node000005_Node000007"><a xlink:title=" ">
<path fill="none" stroke="#63b8ff" d="M494.33,-54.98C446.47,-44.84 367.19,-28.03 321,-18.24"/>
<polygon fill="#63b8ff" stroke="#63b8ff" points="321.62,-14.79 311.12,-16.14 320.17,-21.64 321.62,-14.79"/>
</a>
</g>
</g>
<!-- Node8 -->
<g id="Node000008" class="node">
<title>Node8</title>
<g id="a_Node000008"><a xlink:title=" ">
<polygon fill="#e0e0e0" stroke="#999999" points="585,-19 532,-19 532,0 585,0 585,-19"/>
<text text-anchor="middle" x="558.5" y="-7" font-family="Helvetica,sans-Serif" font-size="10.00">limits.h</text>
</a>
</g>
</g>
<!-- Node5&#45;&gt;Node8 -->
<g id="edge7_Node000005_Node000008" class="edge">
<title>Node5&#45;&gt;Node8</title>
<g id="a_edge7_Node000005_Node000008"><a xlink:title=" ">
<path fill="none" stroke="#63b8ff" d="M538.46,-54.75C541.71,-47.57 546.42,-37.18 550.45,-28.27"/>
<polygon fill="#63b8ff" stroke="#63b8ff" points="553.67,-29.64 554.61,-19.09 547.3,-26.75 553.67,-29.64"/>
</a>
</g>
</g>
<!-- Node12&#45;&gt;Node7 -->
<g id="edge12_Node000012_Node000007" class="edge">
<title>Node12&#45;&gt;Node7</title>
<g id="a_edge12_Node000012_Node000007"><a xlink:title=" ">
<path fill="none" stroke="#63b8ff" d="M67.86,-109.93C85.73,-96.74 121.87,-71.3 155.5,-55 185.52,-40.45 221.54,-28.45 247.88,-20.59"/>
<polygon fill="#63b8ff" stroke="#63b8ff" points="249.21,-23.84 257.82,-17.68 247.24,-17.13 249.21,-23.84"/>
</a>
</g>
</g>
<!-- Node13 -->
<g id="Node000013" class="node">
<title>Node13</title>
<g id="a_Node000013"><a xlink:title=" ">
<polygon fill="#e0e0e0" stroke="#999999" points="89,-74 24,-74 24,-55 89,-55 89,-74"/>
<text text-anchor="middle" x="56.5" y="-62" font-family="Helvetica,sans-Serif" font-size="10.00">kit_map.h</text>
</a>
</g>
</g>
<!-- Node12&#45;&gt;Node13 -->
<g id="edge13_Node000012_Node000013" class="edge">
<title>Node12&#45;&gt;Node13</title>
<g id="a_edge13_Node000012_Node000013"><a xlink:title=" ">
<path fill="none" stroke="#63b8ff" d="M56.5,-109.75C56.5,-102.8 56.5,-92.85 56.5,-84.13"/>
<polygon fill="#63b8ff" stroke="#63b8ff" points="60,-84.09 56.5,-74.09 53,-84.09 60,-84.09"/>
</a>
</g>
</g>
<!-- Node16 -->
<g id="Node000016" class="node">
<title>Node16</title>
<g id="a_Node000016"><a xlink:href="_ordered_list_base_8h.html" target="_top" xlink:title=" ">
<polygon fill="white" stroke="#666666" points="603.5,-195 463.5,-195 463.5,-165 603.5,-165 603.5,-195"/>
<text text-anchor="start" x="471.5" y="-183" font-family="Helvetica,sans-Serif" font-size="10.00">Kit/Container/OrderedList</text>
<text text-anchor="middle" x="533.5" y="-172" font-family="Helvetica,sans-Serif" font-size="10.00">Base.h</text>
</a>
</g>
</g>
<!-- Node15&#45;&gt;Node16 -->
<g id="edge16_Node000015_Node000016" class="edge">
<title>Node15&#45;&gt;Node16</title>
<g id="a_edge16_Node000015_Node000016"><a xlink:title=" ">
<path fill="none" stroke="#63b8ff" d="M501.11,-230.87C505.74,-223.74 512.53,-213.28 518.7,-203.79"/>
<polygon fill="#63b8ff" stroke="#63b8ff" points="521.82,-205.41 524.33,-195.11 515.95,-201.59 521.82,-205.41"/>
</a>
</g>
</g>
<!-- Node17 -->
<g id="Node000017" class="node">
<title>Node17</title>
<g id="a_Node000017"><a xlink:href="_d_list_base_8h.html" target="_top" xlink:title=" ">
<polygon fill="white" stroke="#666666" points="765,-129 624,-129 624,-110 765,-110 765,-129"/>
<text text-anchor="middle" x="694.5" y="-117" font-family="Helvetica,sans-Serif" font-size="10.00">Kit/Container/DListBase.h</text>
</a>
</g>
</g>
<!-- Node16&#45;&gt;Node17 -->
<g id="edge17_Node000016_Node000017" class="edge">
<title>Node16&#45;&gt;Node17</title>
<g id="a_edge17_Node000016_Node000017"><a xlink:title=" ">
<path fill="none" stroke="#63b8ff" d="M572.06,-164.99C599.29,-155.1 635.38,-141.98 661.32,-132.56"/>
<polygon fill="#63b8ff" stroke="#63b8ff" points="662.52,-135.84 670.72,-129.14 660.13,-129.26 662.52,-135.84"/>
</a>
</g>
</g>
<!-- Node20 -->
<g id="Node000020" class="node">
<title>Node20</title>
<g id="a_Node000020"><a xlink:href="_keyed_item_8h.html" target="_top" xlink:title=" ">
<polygon fill="white" stroke="#666666" points="606,-129 461,-129 461,-110 606,-110 606,-129"/>
<text text-anchor="middle" x="533.5" y="-117" font-family="Helvetica,sans-Serif" font-size="10.00">Kit/Container/KeyedItem.h</text>
</a>
</g>
</g>
<!-- Node16&#45;&gt;Node20 -->
<g id="edge20_Node000016_Node000020" class="edge">
<title>Node16&#45;&gt;Node20</title>
<g id="a_edge20_Node000016_Node000020"><a xlink:title=" ">
<path fill="none" stroke="#63b8ff" d="M533.5,-164.84C533.5,-157.21 533.5,-147.7 533.5,-139.45"/>
<polygon fill="#63b8ff" stroke="#63b8ff" points="537,-139.27 533.5,-129.27 530,-139.27 537,-139.27"/>
</a>
</g>
</g>
<!-- Node18 -->
<g id="Node000018" class="node">
<title>Node18</title>
<g id="a_Node000018"><a xlink:href="_list_item_8h.html" target="_top" xlink:title=" ">
<polygon fill="white" stroke="#666666" points="750.5,-74 618.5,-74 618.5,-55 750.5,-55 750.5,-74"/>
<text text-anchor="middle" x="684.5" y="-62" font-family="Helvetica,sans-Serif" font-size="10.00">Kit/Container/ListItem.h</text>
</a>
</g>
</g>
<!-- Node17&#45;&gt;Node18 -->
<g id="edge18_Node000017_Node000018" class="edge">
<title>Node17&#45;&gt;Node18</title>
<g id="a_edge18_Node000017_Node000018"><a xlink:title=" ">
<path fill="none" stroke="#63b8ff" d="M692.85,-109.75C691.54,-102.8 689.66,-92.85 688.02,-84.13"/>
<polygon fill="#63b8ff" stroke="#63b8ff" points="691.41,-83.27 686.12,-74.09 684.54,-84.56 691.41,-83.27"/>
</a>
</g>
</g>
<!-- Node19 -->
<g id="Node000019" class="node">
<title>Node19</title>
<g id="a_Node000019"><a xlink:href="_item_8h.html" target="_top" xlink:title=" ">
<polygon fill="white" stroke="#666666" points="742,-19 627,-19 627,0 742,0 742,-19"/>
<text text-anchor="middle" x="684.5" y="-7" font-family="Helvetica,sans-Serif" font-size="10.00">Kit/Container/Item.h</text>
</a>
</g>
</g>
<!-- Node18&#45;&gt;Node19 -->
<g id="edge19_Node000018_Node000019" class="edge">
<title>Node18&#45;&gt;Node19</title>
<g id="a_edge19_Node000018_Node000019"><a xlink:title=" ">
<path fill="none" stroke="#63b8ff" d="M684.5,-54.75C684.5,-47.8 684.5,-37.85 684.5,-29.13"/>
<polygon fill="#63b8ff" stroke="#63b8ff" points="688,-29.09 684.5,-19.09 681,-29.09 688,-29.09"/>
</a>
</g>
</g>
<!-- Node20&#45;&gt;Node5 -->
<g id="edge22_Node000020_Node000005" class="edge">
<title>Node20&#45;&gt;Node5</title>
<g id="a_edge22_Node000020_Node000005"><a xlink:title=" ">
<path fill="none" stroke="#63b8ff" d="M533.67,-109.75C533.8,-102.8 533.98,-92.85 534.15,-84.13"/>
<polygon fill="#63b8ff" stroke="#63b8ff" points="537.65,-84.15 534.34,-74.09 530.65,-84.02 537.65,-84.15"/>
</a>
</g>
</g>
<!-- Node20&#45;&gt;Node18 -->
<g id="edge21_Node000020_Node000018" class="edge">
<title>Node20&#45;&gt;Node18</title>
<g id="a_edge21_Node000020_Node000018"><a xlink:title=" ">
<path fill="none" stroke="#63b8ff" d="M557.76,-109.98C582.82,-101.19 622.13,-87.39 650.33,-77.49"/>
<polygon fill="#63b8ff" stroke="#63b8ff" points="651.52,-80.78 659.8,-74.17 649.2,-74.18 651.52,-80.78"/>
</a>
</g>
</g>
</g>
</svg>
