<?xml version="1.0" encoding="UTF-8" standalone="no"?>
<!DOCTYPE svg PUBLIC "-//W3C//DTD SVG 1.1//EN"
 "http://www.w3.org/Graphics/SVG/1.1/DTD/svg11.dtd">
<!-- Generated by graphviz version 2.43.0 (0)
 -->
<!-- Title: /home/runner/work/kit.core/kit.core/projects/examples/Dm/Transaction/MpFoo.h Pages: 1 -->
<svg width="509pt" height="126pt"
 viewBox="0.00 0.00 509.00 126.00" xmlns="http://www.w3.org/2000/svg" xmlns:xlink="http://www.w3.org/1999/xlink">
<g id="graph0" class="graph" transform="scale(1 1) rotate(0) translate(4 122)">
<title>/home/runner/work/kit.core/kit.core/projects/examples/Dm/Transaction/MpFoo.h</title>
<!-- Node1 -->
<g id="Node000001" class="node">
<title>Node1</title>
<g id="a_Node000001"><a xlink:title=" ">
<polygon fill="#999999" stroke="#666666" points="325,-118 176,-118 176,-77 325,-77 325,-118"/>
<text text-anchor="start" x="184" y="-106" font-family="Helvetica,sans-Serif" font-size="10.00">/home/runner/work/kit.core</text>
<text text-anchor="start" x="184" y="-95" font-family="Helvetica,sans-Serif" font-size="10.00">/kit.core/projects/examples</text>
<text text-anchor="middle" x="250.5" y="-84" font-family="Helvetica,sans-Serif" font-size="10.00">/Dm/Transaction/MpFoo.h</text>
</a>
</g>
</g>
<!-- Node2 -->
<g id="Node000002" class="node">
<title>Node2</title>
<g id="a_Node000002"><a xlink:href="_client_8h.html" target="_top" xlink:title=" ">
<polygon fill="white" stroke="#666666" points="149,-41 0,-41 0,0 149,0 149,-41"/>
<text text-anchor="start" x="8" y="-29" font-family="Helvetica,sans-Serif" font-size="10.00">/home/runner/work/kit.core</text>
<text text-anchor="start" x="8" y="-18" font-family="Helvetica,sans-Serif" font-size="10.00">/kit.core/projects/examples</text>
<text text-anchor="middle" x="74.5" y="-7" font-family="Helvetica,sans-Serif" font-size="10.00">/Dm/Transaction/Client.h</text>
</a>
</g>
</g>
<!-- Node1&#45;&gt;Node2 -->
<g id="edge1_Node000001_Node000002" class="edge">
<title>Node1&#45;&gt;Node2</title>
<g id="a_edge1_Node000001_Node000002"><a xlink:title=" ">
<path fill="none" stroke="#63b8ff" d="M195.34,-73C171.24,-62.72 143.3,-50.82 120.36,-41.04"/>
<polygon fill="#63b8ff" stroke="#63b8ff" points="194.15,-76.29 204.72,-76.99 196.89,-69.85 194.15,-76.29"/>
</a>
</g>
</g>
<!-- Node3 -->
<g id="Node000003" class="node">
<title>Node3</title>
<g id="a_Node000003"><a xlink:href="_model_points_8h.html" target="_top" xlink:title="This file defines all of the Model Points for Example application.">
<polygon fill="white" stroke="#666666" points="334,-41 167,-41 167,0 334,0 334,-41"/>
<text text-anchor="start" x="175" y="-29" font-family="Helvetica,sans-Serif" font-size="10.00">/home/runner/work/kit.core</text>
<text text-anchor="start" x="175" y="-18" font-family="Helvetica,sans-Serif" font-size="10.00">/kit.core/projects/examples</text>
<text text-anchor="middle" x="250.5" y="-7" font-family="Helvetica,sans-Serif" font-size="10.00">/Dm/Transaction/ModelPoints.h</text>
</a>
</g>
</g>
<!-- Node1&#45;&gt;Node3 -->
<g id="edge2_Node000001_Node000003" class="edge">
<title>Node1&#45;&gt;Node3</title>
<g id="a_edge2_Node000001_Node000003"><a xlink:title=" ">
<path fill="none" stroke="#63b8ff" d="M250.5,-66.69C250.5,-58.08 250.5,-48.9 250.5,-41.07"/>
<polygon fill="#63b8ff" stroke="#63b8ff" points="247,-66.79 250.5,-76.79 254,-66.79 247,-66.79"/>
</a>
</g>
</g>
<!-- Node4 -->
<g id="Node000004" class="node">
<title>Node4</title>
<g id="a_Node000004"><a xlink:href="projects_2examples_2_dm_2_transaction_2_server_8h.html" target="_top" xlink:title=" ">
<polygon fill="white" stroke="#666666" points="501,-41 352,-41 352,0 501,0 501,-41"/>
<text text-anchor="start" x="360" y="-29" font-family="Helvetica,sans-Serif" font-size="10.00">/home/runner/work/kit.core</text>
<text text-anchor="start" x="360" y="-18" font-family="Helvetica,sans-Serif" font-size="10.00">/kit.core/projects/examples</text>
<text text-anchor="middle" x="426.5" y="-7" font-family="Helvetica,sans-Serif" font-size="10.00">/Dm/Transaction/Server.h</text>
</a>
</g>
</g>
<!-- Node1&#45;&gt;Node4 -->
<g id="edge3_Node000001_Node000004" class="edge">
<title>Node1&#45;&gt;Node4</title>
<g id="a_edge3_Node000001_Node000004"><a xlink:title=" ">
<path fill="none" stroke="#63b8ff" d="M305.66,-73C329.76,-62.72 357.7,-50.82 380.64,-41.04"/>
<polygon fill="#63b8ff" stroke="#63b8ff" points="304.11,-69.85 296.28,-76.99 306.85,-76.29 304.11,-69.85"/>
</a>
</g>
</g>
</g>
</svg>
