<?xml version="1.0" encoding="UTF-8" standalone="no"?>
<!DOCTYPE svg PUBLIC "-//W3C//DTD SVG 1.1//EN"
 "http://www.w3.org/Graphics/SVG/1.1/DTD/svg11.dtd">
<!-- Generated by graphviz version 2.43.0 (0)
 -->
<!-- Title: /home/runner/work/kit.core/kit.core/projects/examples/Dm/Transaction/MpFoo.h Pages: 1 -->
<svg width="1037pt" height="434pt"
 viewBox="0.00 0.00 1037.23 434.00" xmlns="http://www.w3.org/2000/svg" xmlns:xlink="http://www.w3.org/1999/xlink">
<g id="graph0" class="graph" transform="scale(1 1) rotate(0) translate(4 430)">
<title>/home/runner/work/kit.core/kit.core/projects/examples/Dm/Transaction/MpFoo.h</title>
<!-- Node1 -->
<g id="Node000001" class="node">
<title>Node1</title>
<g id="a_Node000001"><a xlink:title=" ">
<polygon fill="#999999" stroke="#666666" points="994.23,-426 845.23,-426 845.23,-385 994.23,-385 994.23,-426"/>
<text text-anchor="start" x="853.23" y="-414" font-family="Helvetica,sans-Serif" font-size="10.00">/home/runner/work/kit.core</text>
<text text-anchor="start" x="853.23" y="-403" font-family="Helvetica,sans-Serif" font-size="10.00">/kit.core/projects/examples</text>
<text text-anchor="middle" x="919.73" y="-392" font-family="Helvetica,sans-Serif" font-size="10.00">/Dm/Transaction/MpFoo.h</text>
</a>
</g>
</g>
<!-- Node2 -->
<g id="Node000002" class="node">
<title>Node2</title>
<g id="a_Node000002"><a xlink:href="_foo_t_8h.html" target="_top" xlink:title=" ">
<polygon fill="white" stroke="#666666" points="1029.23,-349 902.23,-349 902.23,-330 1029.23,-330 1029.23,-349"/>
<text text-anchor="middle" x="965.73" y="-337" font-family="Helvetica,sans-Serif" font-size="10.00">Dm/Transaction/FooT.h</text>
</a>
</g>
</g>
<!-- Node1&#45;&gt;Node2 -->
<g id="edge1_Node000001_Node000002" class="edge">
<title>Node1&#45;&gt;Node2</title>
<g id="a_edge1_Node000001_Node000002"><a xlink:title=" ">
<path fill="none" stroke="#63b8ff" d="M933.78,-384.95C940.07,-376.2 947.41,-365.99 953.47,-357.56"/>
<polygon fill="#63b8ff" stroke="#63b8ff" points="956.44,-359.42 959.44,-349.26 950.76,-355.34 956.44,-359.42"/>
</a>
</g>
</g>
<!-- Node26 -->
<g id="Node000026" class="node">
<title>Node26</title>
<g id="a_Node000026"><a xlink:href="_scalar_8h.html" target="_top" xlink:title=" ">
<polygon fill="white" stroke="#666666" points="928.73,-294 818.73,-294 818.73,-275 928.73,-275 928.73,-294"/>
<text text-anchor="middle" x="873.73" y="-282" font-family="Helvetica,sans-Serif" font-size="10.00">Kit/Dm/Mp/Scalar.h</text>
</a>
</g>
</g>
<!-- Node1&#45;&gt;Node26 -->
<g id="edge40_Node000001_Node000026" class="edge">
<title>Node1&#45;&gt;Node26</title>
<g id="a_edge40_Node000001_Node000026"><a xlink:title=" ">
<path fill="none" stroke="#63b8ff" d="M909.82,-385C904.67,-374.48 898.49,-361.19 893.73,-349 887.95,-334.17 882.61,-316.93 878.9,-304.16"/>
<polygon fill="#63b8ff" stroke="#63b8ff" points="882.19,-302.92 876.09,-294.25 875.45,-304.83 882.19,-302.92"/>
</a>
</g>
</g>
<!-- Node3 -->
<g id="Node000003" class="node">
<title>Node3</title>
<g id="a_Node000003"><a xlink:title=" ">
<polygon fill="#e0e0e0" stroke="#999999" points="867.23,-19 814.23,-19 814.23,0 867.23,0 867.23,-19"/>
<text text-anchor="middle" x="840.73" y="-7" font-family="Helvetica,sans-Serif" font-size="10.00">stdint.h</text>
</a>
</g>
</g>
<!-- Node2&#45;&gt;Node3 -->
<g id="edge2_Node000002_Node000003" class="edge">
<title>Node2&#45;&gt;Node3</title>
<g id="a_edge2_Node000002_Node000003"><a xlink:title=" ">
<path fill="none" stroke="#63b8ff" d="M970.46,-329.83C979.8,-311.87 999.73,-269.03 999.73,-230.5 999.73,-230.5 999.73,-230.5 999.73,-118.5 999.73,-59.59 924.11,-30.57 877.17,-18.23"/>
<polygon fill="#63b8ff" stroke="#63b8ff" points="877.9,-14.8 867.35,-15.78 876.2,-21.59 877.9,-14.8"/>
</a>
</g>
</g>
<!-- Node4 -->
<g id="Node000004" class="node">
<title>Node4</title>
<g id="a_Node000004"><a xlink:href="_string_8h.html" target="_top" xlink:title=" ">
<polygon fill="white" stroke="#666666" points="800.23,-294 747.23,-294 747.23,-275 800.23,-275 800.23,-294"/>
<text text-anchor="middle" x="773.73" y="-282" font-family="Helvetica,sans-Serif" font-size="10.00">string.h</text>
</a>
</g>
</g>
<!-- Node2&#45;&gt;Node4 -->
<g id="edge3_Node000002_Node000004" class="edge">
<title>Node2&#45;&gt;Node4</title>
<g id="a_edge3_Node000002_Node000004"><a xlink:title=" ">
<path fill="none" stroke="#63b8ff" d="M934.88,-329.98C900.87,-320.6 846.21,-305.51 810.13,-295.55"/>
<polygon fill="#63b8ff" stroke="#63b8ff" points="811.05,-292.17 800.48,-292.88 809.19,-298.92 811.05,-292.17"/>
</a>
</g>
</g>
<!-- Node5 -->
<g id="Node000005" class="node">
<title>Node5</title>
<g id="a_Node000005"><a xlink:href="_model_point_base_8h.html" target="_top" xlink:title=" ">
<polygon fill="white" stroke="#666666" points="686.23,-239 545.23,-239 545.23,-220 686.23,-220 686.23,-239"/>
<text text-anchor="middle" x="615.73" y="-227" font-family="Helvetica,sans-Serif" font-size="10.00">Kit/Dm/ModelPointBase.h</text>
</a>
</g>
</g>
<!-- Node4&#45;&gt;Node5 -->
<g id="edge4_Node000004_Node000005" class="edge">
<title>Node4&#45;&gt;Node5</title>
<g id="a_edge4_Node000004_Node000005"><a xlink:title=" ">
<path fill="none" stroke="#63b8ff" d="M748.35,-274.98C721.94,-266.13 680.39,-252.19 650.84,-242.28"/>
<polygon fill="#63b8ff" stroke="#63b8ff" points="651.91,-238.94 641.32,-239.08 649.68,-245.58 651.91,-238.94"/>
</a>
</g>
</g>
<!-- Node25 -->
<g id="Node000025" class="node">
<title>Node25</title>
<g id="a_Node000025"><a xlink:href="_observer_8h.html" target="_top" xlink:title=" ">
<polygon fill="white" stroke="#666666" points="893.73,-239 787.73,-239 787.73,-220 893.73,-220 893.73,-239"/>
<text text-anchor="middle" x="840.73" y="-227" font-family="Helvetica,sans-Serif" font-size="10.00">Kit/Dm/Observer.h</text>
</a>
</g>
</g>
<!-- Node4&#45;&gt;Node25 -->
<g id="edge36_Node000004_Node000025" class="edge">
<title>Node4&#45;&gt;Node25</title>
<g id="a_edge36_Node000004_Node000025"><a xlink:title=" ">
<path fill="none" stroke="#63b8ff" d="M784.5,-274.98C794.5,-267.07 809.62,-255.11 821.66,-245.58"/>
<polygon fill="#63b8ff" stroke="#63b8ff" points="824.1,-248.12 829.77,-239.17 819.76,-242.63 824.1,-248.12"/>
</a>
</g>
</g>
<!-- Node5&#45;&gt;Node3 -->
<g id="edge34_Node000005_Node000003" class="edge">
<title>Node5&#45;&gt;Node3</title>
<g id="a_edge34_Node000005_Node000003"><a xlink:title=" ">
<path fill="none" stroke="#63b8ff" d="M545.21,-228.75C378.46,-227.64 -23.77,-214.23 8.73,-110 17.58,-81.64 20.8,-69.5 46.73,-55 111.6,-18.71 640.54,-23.5 714.73,-19 744.8,-17.18 778.88,-14.86 804.01,-13.11"/>
<polygon fill="#63b8ff" stroke="#63b8ff" points="804.46,-16.59 814.19,-12.4 803.97,-9.6 804.46,-16.59"/>
</a>
</g>
</g>
<!-- Node6 -->
<g id="Node000006" class="node">
<title>Node6</title>
<g id="a_Node000006"><a xlink:href="_i_model_point_8h.html" target="_top" xlink:title=" ">
<polygon fill="white" stroke="#666666" points="743.73,-184 623.73,-184 623.73,-165 743.73,-165 743.73,-184"/>
<text text-anchor="middle" x="683.73" y="-172" font-family="Helvetica,sans-Serif" font-size="10.00">Kit/Dm/IModelPoint.h</text>
</a>
</g>
</g>
<!-- Node5&#45;&gt;Node6 -->
<g id="edge5_Node000005_Node000006" class="edge">
<title>Node5&#45;&gt;Node6</title>
<g id="a_edge5_Node000005_Node000006"><a xlink:title=" ">
<path fill="none" stroke="#63b8ff" d="M626.66,-219.98C636.81,-212.07 652.15,-200.11 664.38,-190.58"/>
<polygon fill="#63b8ff" stroke="#63b8ff" points="666.87,-193.08 672.61,-184.17 662.57,-187.56 666.87,-193.08"/>
</a>
</g>
</g>
<!-- Node12 -->
<g id="Node000012" class="node">
<title>Node12</title>
<g id="a_Node000012"><a xlink:title=" ">
<polygon fill="#e0e0e0" stroke="#999999" points="54.23,-19 1.23,-19 1.23,0 54.23,0 54.23,-19"/>
<text text-anchor="middle" x="27.73" y="-7" font-family="Helvetica,sans-Serif" font-size="10.00">stdlib.h</text>
</a>
</g>
</g>
<!-- Node5&#45;&gt;Node12 -->
<g id="edge35_Node000005_Node000012" class="edge">
<title>Node5&#45;&gt;Node12</title>
<g id="a_edge35_Node000005_Node000012"><a xlink:title=" ">
<path fill="none" stroke="#63b8ff" d="M544.97,-226.46C400.87,-221.8 83.33,-208.84 40.73,-184 15.28,-169.16 12.33,-157.18 3.73,-129 -6.94,-94.02 8.03,-51.77 18.68,-28.34"/>
<polygon fill="#63b8ff" stroke="#63b8ff" points="21.87,-29.8 23.03,-19.27 15.55,-26.77 21.87,-29.8"/>
</a>
</g>
</g>
<!-- Node17 -->
<g id="Node000017" class="node">
<title>Node17</title>
<g id="a_Node000017"><a xlink:href="_i_observer_8h.html" target="_top" xlink:title=" ">
<polygon fill="white" stroke="#666666" points="895.23,-129 786.23,-129 786.23,-110 895.23,-110 895.23,-129"/>
<text text-anchor="middle" x="840.73" y="-117" font-family="Helvetica,sans-Serif" font-size="10.00">Kit/Dm/IObserver.h</text>
</a>
</g>
</g>
<!-- Node5&#45;&gt;Node17 -->
<g id="edge30_Node000005_Node000017" class="edge">
<title>Node5&#45;&gt;Node17</title>
<g id="a_edge30_Node000005_Node000017"><a xlink:title=" ">
<path fill="none" stroke="#63b8ff" d="M652.14,-219.99C680.47,-212.59 720.28,-200.46 752.73,-184 779.06,-170.64 806.12,-149.85 823.16,-135.72"/>
<polygon fill="#63b8ff" stroke="#63b8ff" points="825.72,-138.15 831.1,-129.02 821.2,-132.8 825.72,-138.15"/>
</a>
</g>
</g>
<!-- Node20 -->
<g id="Node000020" class="node">
<title>Node20</title>
<g id="a_Node000020"><a xlink:href="_i_model_database_8h.html" target="_top" xlink:title=" ">
<polygon fill="white" stroke="#666666" points="386.73,-184 244.73,-184 244.73,-165 386.73,-165 386.73,-184"/>
<text text-anchor="middle" x="315.73" y="-172" font-family="Helvetica,sans-Serif" font-size="10.00">Kit/Dm/IModelDatabase.h</text>
</a>
</g>
</g>
<!-- Node5&#45;&gt;Node20 -->
<g id="edge23_Node000005_Node000020" class="edge">
<title>Node5&#45;&gt;Node20</title>
<g id="a_edge23_Node000005_Node000020"><a xlink:title=" ">
<path fill="none" stroke="#63b8ff" d="M567.53,-219.98C514.99,-210.7 430.88,-195.84 374.5,-185.88"/>
<polygon fill="#63b8ff" stroke="#63b8ff" points="374.77,-182.38 364.31,-184.08 373.55,-189.27 374.77,-182.38"/>
</a>
</g>
</g>
<!-- Node23 -->
<g id="Node000023" class="node">
<title>Node23</title>
<g id="a_Node000023"><a xlink:href="_d_list_8h.html" target="_top" xlink:title=" ">
<polygon fill="white" stroke="#666666" points="605.23,-184 488.23,-184 488.23,-165 605.23,-165 605.23,-184"/>
<text text-anchor="middle" x="546.73" y="-172" font-family="Helvetica,sans-Serif" font-size="10.00">Kit/Container/DList.h</text>
</a>
</g>
</g>
<!-- Node5&#45;&gt;Node23 -->
<g id="edge31_Node000005_Node000023" class="edge">
<title>Node5&#45;&gt;Node23</title>
<g id="a_edge31_Node000005_Node000023"><a xlink:title=" ">
<path fill="none" stroke="#63b8ff" d="M604.65,-219.98C594.25,-212 578.47,-199.88 566.01,-190.31"/>
<polygon fill="#63b8ff" stroke="#63b8ff" points="568.08,-187.49 558.02,-184.17 563.82,-193.04 568.08,-187.49"/>
</a>
</g>
</g>
<!-- Node6&#45;&gt;Node3 -->
<g id="edge22_Node000006_Node000003" class="edge">
<title>Node6&#45;&gt;Node3</title>
<g id="a_edge22_Node000006_Node000003"><a xlink:title=" ">
<path fill="none" stroke="#63b8ff" d="M695.62,-164.87C707.12,-156.3 724.8,-142.51 738.73,-129 773.46,-95.31 809.27,-51.1 827.83,-27.34"/>
<polygon fill="#63b8ff" stroke="#63b8ff" points="830.7,-29.35 834.05,-19.3 825.16,-25.06 830.7,-29.35"/>
</a>
</g>
</g>
<!-- Node7 -->
<g id="Node000007" class="node">
<title>Node7</title>
<g id="a_Node000007"><a xlink:title=" ">
<polygon fill="#e0e0e0" stroke="#999999" points="458.23,-129 385.23,-129 385.23,-110 458.23,-110 458.23,-129"/>
<text text-anchor="middle" x="421.73" y="-117" font-family="Helvetica,sans-Serif" font-size="10.00">kit_config.h</text>
</a>
</g>
</g>
<!-- Node6&#45;&gt;Node7 -->
<g id="edge6_Node000006_Node000007" class="edge">
<title>Node6&#45;&gt;Node7</title>
<g id="a_edge6_Node000006_Node000007"><a xlink:title=" ">
<path fill="none" stroke="#63b8ff" d="M641.64,-164.98C594.37,-155.42 517.87,-139.95 468.7,-130"/>
<polygon fill="#63b8ff" stroke="#63b8ff" points="469.14,-126.52 458.64,-127.97 467.75,-133.38 469.14,-126.52"/>
</a>
</g>
</g>
<!-- Node8 -->
<g id="Node000008" class="node">
<title>Node8</title>
<g id="a_Node000008"><a xlink:href="_list_item_8h.html" target="_top" xlink:title=" ">
<polygon fill="white" stroke="#666666" points="714.73,-74 582.73,-74 582.73,-55 714.73,-55 714.73,-74"/>
<text text-anchor="middle" x="648.73" y="-62" font-family="Helvetica,sans-Serif" font-size="10.00">Kit/Container/ListItem.h</text>
</a>
</g>
</g>
<!-- Node6&#45;&gt;Node8 -->
<g id="edge7_Node000006_Node000008" class="edge">
<title>Node6&#45;&gt;Node8</title>
<g id="a_edge7_Node000006_Node000008"><a xlink:title=" ">
<path fill="none" stroke="#63b8ff" d="M679.53,-164.79C675.38,-155.94 669.03,-141.74 664.73,-129 659.73,-114.17 655.48,-96.92 652.62,-84.15"/>
<polygon fill="#63b8ff" stroke="#63b8ff" points="656.02,-83.29 650.48,-74.25 649.17,-84.77 656.02,-83.29"/>
</a>
</g>
</g>
<!-- Node10 -->
<g id="Node000010" class="node">
<title>Node10</title>
<g id="a_Node000010"><a xlink:href="_i_string_8h.html" target="_top" xlink:title=" ">
<polygon fill="white" stroke="#666666" points="246.23,-129 149.23,-129 149.23,-110 246.23,-110 246.23,-129"/>
<text text-anchor="middle" x="197.73" y="-117" font-family="Helvetica,sans-Serif" font-size="10.00">Kit/Text/IString.h</text>
</a>
</g>
</g>
<!-- Node6&#45;&gt;Node10 -->
<g id="edge9_Node000006_Node000010" class="edge">
<title>Node6&#45;&gt;Node10</title>
<g id="a_edge9_Node000006_Node000010"><a xlink:title=" ">
<path fill="none" stroke="#63b8ff" d="M623.41,-166.09C620.14,-165.72 616.9,-165.35 613.73,-165 457.62,-147.7 415.57,-148.78 256.67,-129.19"/>
<polygon fill="#63b8ff" stroke="#63b8ff" points="256.88,-125.69 246.53,-127.93 256.02,-132.64 256.88,-125.69"/>
</a>
</g>
</g>
<!-- Node6&#45;&gt;Node17 -->
<g id="edge17_Node000006_Node000017" class="edge">
<title>Node6&#45;&gt;Node17</title>
<g id="a_edge17_Node000006_Node000017"><a xlink:title=" ">
<path fill="none" stroke="#63b8ff" d="M708.96,-164.98C735.09,-156.16 776.13,-142.31 805.47,-132.41"/>
<polygon fill="#63b8ff" stroke="#63b8ff" points="806.96,-135.6 815.31,-129.08 804.72,-128.96 806.96,-135.6"/>
</a>
</g>
</g>
<!-- Node18 -->
<g id="Node000018" class="node">
<title>Node18</title>
<g id="a_Node000018"><a xlink:href="_arduino_8h_source.html" target="_top" xlink:title=" ">
<polygon fill="white" stroke="#666666" points="367.23,-129 264.23,-129 264.23,-110 367.23,-110 367.23,-129"/>
<text text-anchor="middle" x="315.73" y="-117" font-family="Helvetica,sans-Serif" font-size="10.00">Kit/Json/Arduino.h</text>
</a>
</g>
</g>
<!-- Node6&#45;&gt;Node18 -->
<g id="edge20_Node000006_Node000018" class="edge">
<title>Node6&#45;&gt;Node18</title>
<g id="a_edge20_Node000006_Node000018"><a xlink:title=" ">
<path fill="none" stroke="#63b8ff" d="M624.61,-164.98C556.87,-155.23 446.39,-139.32 377.55,-129.4"/>
<polygon fill="#63b8ff" stroke="#63b8ff" points="377.68,-125.89 367.28,-127.92 376.68,-132.81 377.68,-125.89"/>
</a>
</g>
</g>
<!-- Node19 -->
<g id="Node000019" class="node">
<title>Node19</title>
<g id="a_Node000019"><a xlink:title=" ">
<polygon fill="#e0e0e0" stroke="#999999" points="729.73,-129 673.73,-129 673.73,-110 729.73,-110 729.73,-129"/>
<text text-anchor="middle" x="701.73" y="-117" font-family="Helvetica,sans-Serif" font-size="10.00">stddef.h</text>
</a>
</g>
</g>
<!-- Node6&#45;&gt;Node19 -->
<g id="edge21_Node000006_Node000019" class="edge">
<title>Node6&#45;&gt;Node19</title>
<g id="a_edge21_Node000006_Node000019"><a xlink:title=" ">
<path fill="none" stroke="#63b8ff" d="M686.71,-164.75C689.09,-157.72 692.52,-147.62 695.5,-138.84"/>
<polygon fill="#63b8ff" stroke="#63b8ff" points="698.91,-139.68 698.82,-129.09 692.29,-137.43 698.91,-139.68"/>
</a>
</g>
</g>
<!-- Node9 -->
<g id="Node000009" class="node">
<title>Node9</title>
<g id="a_Node000009"><a xlink:href="_item_8h.html" target="_top" xlink:title=" ">
<polygon fill="white" stroke="#666666" points="706.23,-19 591.23,-19 591.23,0 706.23,0 706.23,-19"/>
<text text-anchor="middle" x="648.73" y="-7" font-family="Helvetica,sans-Serif" font-size="10.00">Kit/Container/Item.h</text>
</a>
</g>
</g>
<!-- Node8&#45;&gt;Node9 -->
<g id="edge8_Node000008_Node000009" class="edge">
<title>Node8&#45;&gt;Node9</title>
<g id="a_edge8_Node000008_Node000009"><a xlink:title=" ">
<path fill="none" stroke="#63b8ff" d="M648.73,-54.75C648.73,-47.8 648.73,-37.85 648.73,-29.13"/>
<polygon fill="#63b8ff" stroke="#63b8ff" points="652.23,-29.09 648.73,-19.09 645.23,-29.09 652.23,-29.09"/>
</a>
</g>
</g>
<!-- Node11 -->
<g id="Node000011" class="node">
<title>Node11</title>
<g id="a_Node000011"><a xlink:href="_key_8h.html" target="_top" xlink:title=" ">
<polygon fill="white" stroke="#666666" points="248.23,-74 139.23,-74 139.23,-55 248.23,-55 248.23,-74"/>
<text text-anchor="middle" x="193.73" y="-62" font-family="Helvetica,sans-Serif" font-size="10.00">Kit/Container/Key.h</text>
</a>
</g>
</g>
<!-- Node10&#45;&gt;Node11 -->
<g id="edge10_Node000010_Node000011" class="edge">
<title>Node10&#45;&gt;Node11</title>
<g id="a_edge10_Node000010_Node000011"><a xlink:title=" ">
<path fill="none" stroke="#63b8ff" d="M197.07,-109.75C196.55,-102.8 195.8,-92.85 195.14,-84.13"/>
<polygon fill="#63b8ff" stroke="#63b8ff" points="198.62,-83.8 194.38,-74.09 191.64,-84.32 198.62,-83.8"/>
</a>
</g>
</g>
<!-- Node14 -->
<g id="Node000014" class="node">
<title>Node14</title>
<g id="a_Node000014"><a xlink:href="printfchecker_8h.html" target="_top" xlink:title="This file contains macro that enables the GCC (and Clang) compiler to validate printf flags with thei...">
<polygon fill="white" stroke="#666666" points="490.23,-74 345.23,-74 345.23,-55 490.23,-55 490.23,-74"/>
<text text-anchor="middle" x="417.73" y="-62" font-family="Helvetica,sans-Serif" font-size="10.00">Kit/System/printfchecker.h</text>
</a>
</g>
</g>
<!-- Node10&#45;&gt;Node14 -->
<g id="edge14_Node000010_Node000014" class="edge">
<title>Node10&#45;&gt;Node14</title>
<g id="a_edge14_Node000010_Node000014"><a xlink:title=" ">
<path fill="none" stroke="#63b8ff" d="M233.08,-109.98C270.89,-100.87 331,-86.4 372.3,-76.45"/>
<polygon fill="#63b8ff" stroke="#63b8ff" points="373.21,-79.83 382.11,-74.08 371.57,-73.02 373.21,-79.83"/>
</a>
</g>
</g>
<!-- Node15 -->
<g id="Node000015" class="node">
<title>Node15</title>
<g id="a_Node000015"><a xlink:title=" ">
<polygon fill="#e0e0e0" stroke="#999999" points="564.73,-74 508.73,-74 508.73,-55 564.73,-55 564.73,-74"/>
<text text-anchor="middle" x="536.73" y="-62" font-family="Helvetica,sans-Serif" font-size="10.00">stdarg.h</text>
</a>
</g>
</g>
<!-- Node10&#45;&gt;Node15 -->
<g id="edge15_Node000010_Node000015" class="edge">
<title>Node10&#45;&gt;Node15</title>
<g id="a_edge15_Node000010_Node000015"><a xlink:title=" ">
<path fill="none" stroke="#63b8ff" d="M246.24,-111.26C249.11,-110.83 251.96,-110.41 254.73,-110 363.16,-93.92 390.95,-93.98 498.73,-74 498.83,-73.98 498.93,-73.96 499.03,-73.94"/>
<polygon fill="#63b8ff" stroke="#63b8ff" points="499.44,-77.43 508.56,-72.04 498.07,-70.57 499.44,-77.43"/>
</a>
</g>
</g>
<!-- Node16 -->
<g id="Node000016" class="node">
<title>Node16</title>
<g id="a_Node000016"><a xlink:title=" ">
<polygon fill="#e0e0e0" stroke="#999999" points="326.73,-74 266.73,-74 266.73,-55 326.73,-55 326.73,-74"/>
<text text-anchor="middle" x="296.73" y="-62" font-family="Helvetica,sans-Serif" font-size="10.00">iostream</text>
</a>
</g>
</g>
<!-- Node10&#45;&gt;Node16 -->
<g id="edge16_Node000010_Node000016" class="edge">
<title>Node10&#45;&gt;Node16</title>
<g id="a_edge16_Node000010_Node000016"><a xlink:title=" ">
<path fill="none" stroke="#63b8ff" d="M213.64,-109.98C229.28,-101.61 253.39,-88.7 271.62,-78.95"/>
<polygon fill="#63b8ff" stroke="#63b8ff" points="273.37,-81.98 280.54,-74.17 270.07,-75.8 273.37,-81.98"/>
</a>
</g>
</g>
<!-- Node11&#45;&gt;Node3 -->
<g id="edge11_Node000011_Node000003" class="edge">
<title>Node11&#45;&gt;Node3</title>
<g id="a_edge11_Node000011_Node000003"><a xlink:title=" ">
<path fill="none" stroke="#63b8ff" d="M248.52,-56.02C251.64,-55.66 254.72,-55.31 257.73,-55 364.58,-43.84 693.32,-20.71 803.96,-13.04"/>
<polygon fill="#63b8ff" stroke="#63b8ff" points="804.23,-16.53 813.97,-12.34 803.75,-9.54 804.23,-16.53"/>
</a>
</g>
</g>
<!-- Node11&#45;&gt;Node12 -->
<g id="edge12_Node000011_Node000012" class="edge">
<title>Node11&#45;&gt;Node12</title>
<g id="a_edge12_Node000011_Node000012"><a xlink:title=" ">
<path fill="none" stroke="#63b8ff" d="M167.06,-54.98C139.11,-46.06 95.02,-31.98 63.94,-22.06"/>
<polygon fill="#63b8ff" stroke="#63b8ff" points="64.93,-18.7 54.34,-18.99 62.8,-25.37 64.93,-18.7"/>
</a>
</g>
</g>
<!-- Node13 -->
<g id="Node000013" class="node">
<title>Node13</title>
<g id="a_Node000013"><a xlink:title=" ">
<polygon fill="#e0e0e0" stroke="#999999" points="220.23,-19 167.23,-19 167.23,0 220.23,0 220.23,-19"/>
<text text-anchor="middle" x="193.73" y="-7" font-family="Helvetica,sans-Serif" font-size="10.00">limits.h</text>
</a>
</g>
</g>
<!-- Node11&#45;&gt;Node13 -->
<g id="edge13_Node000011_Node000013" class="edge">
<title>Node11&#45;&gt;Node13</title>
<g id="a_edge13_Node000011_Node000013"><a xlink:title=" ">
<path fill="none" stroke="#63b8ff" d="M193.73,-54.75C193.73,-47.8 193.73,-37.85 193.73,-29.13"/>
<polygon fill="#63b8ff" stroke="#63b8ff" points="197.23,-29.09 193.73,-19.09 190.23,-29.09 197.23,-29.09"/>
</a>
</g>
</g>
<!-- Node17&#45;&gt;Node3 -->
<g id="edge19_Node000017_Node000003" class="edge">
<title>Node17&#45;&gt;Node3</title>
<g id="a_edge19_Node000017_Node000003"><a xlink:title=" ">
<path fill="none" stroke="#63b8ff" d="M840.73,-109.66C840.73,-92.17 840.73,-52.8 840.73,-29.27"/>
<polygon fill="#63b8ff" stroke="#63b8ff" points="844.23,-29.16 840.73,-19.16 837.23,-29.16 844.23,-29.16"/>
</a>
</g>
</g>
<!-- Node17&#45;&gt;Node8 -->
<g id="edge18_Node000017_Node000008" class="edge">
<title>Node17&#45;&gt;Node8</title>
<g id="a_edge18_Node000017_Node000008"><a xlink:title=" ">
<path fill="none" stroke="#63b8ff" d="M809.88,-109.98C777.23,-100.97 725.54,-86.7 689.53,-76.76"/>
<polygon fill="#63b8ff" stroke="#63b8ff" points="690.39,-73.37 679.82,-74.08 688.53,-80.12 690.39,-73.37"/>
</a>
</g>
</g>
<!-- Node20&#45;&gt;Node7 -->
<g id="edge24_Node000020_Node000007" class="edge">
<title>Node20&#45;&gt;Node7</title>
<g id="a_edge24_Node000020_Node000007"><a xlink:title=" ">
<path fill="none" stroke="#63b8ff" d="M332.76,-164.98C349.66,-156.54 375.8,-143.47 395.38,-133.68"/>
<polygon fill="#63b8ff" stroke="#63b8ff" points="397.01,-136.77 404.39,-129.17 393.88,-130.51 397.01,-136.77"/>
</a>
</g>
</g>
<!-- Node20&#45;&gt;Node10 -->
<g id="edge25_Node000020_Node000010" class="edge">
<title>Node20&#45;&gt;Node10</title>
<g id="a_edge25_Node000020_Node000010"><a xlink:title=" ">
<path fill="none" stroke="#63b8ff" d="M296.77,-164.98C277.71,-156.42 248.07,-143.11 226.19,-133.28"/>
<polygon fill="#63b8ff" stroke="#63b8ff" points="227.59,-130.07 217.04,-129.17 224.72,-136.46 227.59,-130.07"/>
</a>
</g>
</g>
<!-- Node20&#45;&gt;Node18 -->
<g id="edge29_Node000020_Node000018" class="edge">
<title>Node20&#45;&gt;Node18</title>
<g id="a_edge29_Node000020_Node000018"><a xlink:title=" ">
<path fill="none" stroke="#63b8ff" d="M315.73,-164.75C315.73,-157.8 315.73,-147.85 315.73,-139.13"/>
<polygon fill="#63b8ff" stroke="#63b8ff" points="319.23,-139.09 315.73,-129.09 312.23,-139.09 319.23,-139.09"/>
</a>
</g>
</g>
<!-- Node21 -->
<g id="Node000021" class="node">
<title>Node21</title>
<g id="a_Node000021"><a xlink:href="_mutex_8h.html" target="_top" xlink:title=" ">
<polygon fill="white" stroke="#666666" points="131.23,-129 18.23,-129 18.23,-110 131.23,-110 131.23,-129"/>
<text text-anchor="middle" x="74.73" y="-117" font-family="Helvetica,sans-Serif" font-size="10.00">Kit/System/Mutex.h</text>
</a>
</g>
</g>
<!-- Node20&#45;&gt;Node21 -->
<g id="edge26_Node000020_Node000021" class="edge">
<title>Node20&#45;&gt;Node21</title>
<g id="a_edge26_Node000020_Node000021"><a xlink:title=" ">
<path fill="none" stroke="#63b8ff" d="M277.01,-164.98C235.32,-155.82 168.91,-141.21 123.65,-131.26"/>
<polygon fill="#63b8ff" stroke="#63b8ff" points="124.28,-127.81 113.76,-129.08 122.77,-134.65 124.28,-127.81"/>
</a>
</g>
</g>
<!-- Node21&#45;&gt;Node12 -->
<g id="edge27_Node000021_Node000012" class="edge">
<title>Node21&#45;&gt;Node12</title>
<g id="a_edge27_Node000021_Node000012"><a xlink:title=" ">
<path fill="none" stroke="#63b8ff" d="M68.19,-109.7C61.96,-101.01 52.69,-87.13 46.73,-74 40.18,-59.57 35.18,-42.3 31.96,-29.41"/>
<polygon fill="#63b8ff" stroke="#63b8ff" points="35.3,-28.32 29.59,-19.4 28.49,-29.94 35.3,-28.32"/>
</a>
</g>
</g>
<!-- Node22 -->
<g id="Node000022" class="node">
<title>Node22</title>
<g id="a_Node000022"><a xlink:title=" ">
<polygon fill="#e0e0e0" stroke="#999999" points="121.23,-74 56.23,-74 56.23,-55 121.23,-55 121.23,-74"/>
<text text-anchor="middle" x="88.73" y="-62" font-family="Helvetica,sans-Serif" font-size="10.00">kit_map.h</text>
</a>
</g>
</g>
<!-- Node21&#45;&gt;Node22 -->
<g id="edge28_Node000021_Node000022" class="edge">
<title>Node21&#45;&gt;Node22</title>
<g id="a_edge28_Node000021_Node000022"><a xlink:title=" ">
<path fill="none" stroke="#63b8ff" d="M77.04,-109.75C78.9,-102.72 81.57,-92.62 83.89,-83.84"/>
<polygon fill="#63b8ff" stroke="#63b8ff" points="87.29,-84.65 86.46,-74.09 80.53,-82.86 87.29,-84.65"/>
</a>
</g>
</g>
<!-- Node24 -->
<g id="Node000024" class="node">
<title>Node24</title>
<g id="a_Node000024"><a xlink:href="_d_list_base_8h.html" target="_top" xlink:title=" ">
<polygon fill="white" stroke="#666666" points="617.23,-129 476.23,-129 476.23,-110 617.23,-110 617.23,-129"/>
<text text-anchor="middle" x="546.73" y="-117" font-family="Helvetica,sans-Serif" font-size="10.00">Kit/Container/DListBase.h</text>
</a>
</g>
</g>
<!-- Node23&#45;&gt;Node24 -->
<g id="edge32_Node000023_Node000024" class="edge">
<title>Node23&#45;&gt;Node24</title>
<g id="a_edge32_Node000023_Node000024"><a xlink:title=" ">
<path fill="none" stroke="#63b8ff" d="M546.73,-164.75C546.73,-157.8 546.73,-147.85 546.73,-139.13"/>
<polygon fill="#63b8ff" stroke="#63b8ff" points="550.23,-139.09 546.73,-129.09 543.23,-139.09 550.23,-139.09"/>
</a>
</g>
</g>
<!-- Node24&#45;&gt;Node8 -->
<g id="edge33_Node000024_Node000008" class="edge">
<title>Node24&#45;&gt;Node8</title>
<g id="a_edge33_Node000024_Node000008"><a xlink:title=" ">
<path fill="none" stroke="#63b8ff" d="M563.12,-109.98C579.31,-101.57 604.3,-88.59 623.11,-78.81"/>
<polygon fill="#63b8ff" stroke="#63b8ff" points="624.79,-81.89 632.05,-74.17 621.56,-75.68 624.79,-81.89"/>
</a>
</g>
</g>
<!-- Node25&#45;&gt;Node3 -->
<g id="edge39_Node000025_Node000003" class="edge">
<title>Node25&#45;&gt;Node3</title>
<g id="a_edge39_Node000025_Node000003"><a xlink:title=" ">
<path fill="none" stroke="#63b8ff" d="M848.88,-219.79C863.49,-203.5 893.67,-166.64 904.73,-129 916.41,-89.27 881.29,-47.79 858.54,-26"/>
<polygon fill="#63b8ff" stroke="#63b8ff" points="860.84,-23.35 851.11,-19.15 856.09,-28.5 860.84,-23.35"/>
</a>
</g>
</g>
<!-- Node25&#45;&gt;Node6 -->
<g id="edge38_Node000025_Node000006" class="edge">
<title>Node25&#45;&gt;Node6</title>
<g id="a_edge38_Node000025_Node000006"><a xlink:title=" ">
<path fill="none" stroke="#63b8ff" d="M815.51,-219.98C789.38,-211.16 748.34,-197.31 719,-187.41"/>
<polygon fill="#63b8ff" stroke="#63b8ff" points="719.75,-183.96 709.16,-184.08 717.51,-190.6 719.75,-183.96"/>
</a>
</g>
</g>
<!-- Node25&#45;&gt;Node17 -->
<g id="edge37_Node000025_Node000017" class="edge">
<title>Node25&#45;&gt;Node17</title>
<g id="a_edge37_Node000025_Node000017"><a xlink:title=" ">
<path fill="none" stroke="#63b8ff" d="M840.73,-219.66C840.73,-202.17 840.73,-162.8 840.73,-139.27"/>
<polygon fill="#63b8ff" stroke="#63b8ff" points="844.23,-139.16 840.73,-129.16 837.23,-139.16 844.23,-139.16"/>
</a>
</g>
</g>
<!-- Node26&#45;&gt;Node3 -->
<g id="edge43_Node000026_Node000003" class="edge">
<title>Node26&#45;&gt;Node3</title>
<g id="a_edge43_Node000026_Node000003"><a xlink:title=" ">
<path fill="none" stroke="#63b8ff" d="M888.26,-274.83C913.26,-258.69 961.73,-221.45 961.73,-175.5 961.73,-175.5 961.73,-175.5 961.73,-118.5 961.73,-71.14 909.51,-39.4 873.68,-23.19"/>
<polygon fill="#63b8ff" stroke="#63b8ff" points="874.63,-19.79 864.06,-19.03 871.85,-26.21 874.63,-19.79"/>
</a>
</g>
</g>
<!-- Node26&#45;&gt;Node5 -->
<g id="edge41_Node000026_Node000005" class="edge">
<title>Node26&#45;&gt;Node5</title>
<g id="a_edge41_Node000026_Node000005"><a xlink:title=" ">
<path fill="none" stroke="#63b8ff" d="M832.28,-274.98C787.47,-265.78 715.96,-251.09 667.49,-241.13"/>
<polygon fill="#63b8ff" stroke="#63b8ff" points="668.01,-237.67 657.51,-239.08 666.6,-244.52 668.01,-237.67"/>
</a>
</g>
</g>
<!-- Node26&#45;&gt;Node25 -->
<g id="edge42_Node000026_Node000025" class="edge">
<title>Node26&#45;&gt;Node25</title>
<g id="a_edge42_Node000026_Node000025"><a xlink:title=" ">
<path fill="none" stroke="#63b8ff" d="M868.28,-274.75C863.72,-267.42 857.06,-256.73 851.44,-247.7"/>
<polygon fill="#63b8ff" stroke="#63b8ff" points="854.34,-245.73 846.08,-239.09 848.4,-249.43 854.34,-245.73"/>
</a>
</g>
</g>
</g>
</svg>
