<?xml version="1.0" encoding="UTF-8" standalone="no"?>
<!DOCTYPE svg PUBLIC "-//W3C//DTD SVG 1.1//EN"
 "http://www.w3.org/Graphics/SVG/1.1/DTD/svg11.dtd">
<!-- Generated by graphviz version 2.43.0 (0)
 -->
<!-- Title: Kit/Dm/Mp/NumericArray.h Pages: 1 -->
<svg width="1104pt" height="357pt"
 viewBox="0.00 0.00 1103.60 357.00" xmlns="http://www.w3.org/2000/svg" xmlns:xlink="http://www.w3.org/1999/xlink">
<g id="graph0" class="graph" transform="scale(1 1) rotate(0) translate(4 353)">
<title>Kit/Dm/Mp/NumericArray.h</title>
<!-- Node1 -->
<g id="Node000001" class="node">
<title>Node1</title>
<g id="a_Node000001"><a xlink:title=" ">
<polygon fill="#999999" stroke="#666666" points="336.1,-349 190.1,-349 190.1,-330 336.1,-330 336.1,-349"/>
<text text-anchor="middle" x="263.1" y="-337" font-family="Helvetica,sans-Serif" font-size="10.00">Kit/Dm/Mp/NumericArray.h</text>
</a>
</g>
</g>
<!-- Node2 -->
<g id="Node000002" class="node">
<title>Node2</title>
<g id="a_Node000002"><a xlink:href="_array_base_8h.html" target="_top" xlink:title=" ">
<polygon fill="white" stroke="#666666" points="399.6,-294 268.6,-294 268.6,-275 399.6,-275 399.6,-294"/>
<text text-anchor="middle" x="334.1" y="-282" font-family="Helvetica,sans-Serif" font-size="10.00">Kit/Dm/Mp/ArrayBase.h</text>
</a>
</g>
</g>
<!-- Node1&#45;&gt;Node2 -->
<g id="edge1_Node000001_Node000002" class="edge">
<title>Node1&#45;&gt;Node2</title>
<g id="a_edge1_Node000001_Node000002"><a xlink:title=" ">
<path fill="none" stroke="#63b8ff" d="M274.51,-329.98C285.21,-322 301.44,-309.88 314.26,-300.31"/>
<polygon fill="#63b8ff" stroke="#63b8ff" points="316.57,-302.96 322.49,-294.17 312.38,-297.35 316.57,-302.96"/>
</a>
</g>
</g>
<!-- Node24 -->
<g id="Node000024" class="node">
<title>Node24</title>
<g id="a_Node000024"><a xlink:href="_observer_8h.html" target="_top" xlink:title=" ">
<polygon fill="white" stroke="#666666" points="221.1,-239 115.1,-239 115.1,-220 221.1,-220 221.1,-239"/>
<text text-anchor="middle" x="168.1" y="-227" font-family="Helvetica,sans-Serif" font-size="10.00">Kit/Dm/Observer.h</text>
</a>
</g>
</g>
<!-- Node1&#45;&gt;Node24 -->
<g id="edge34_Node000001_Node000024" class="edge">
<title>Node1&#45;&gt;Node24</title>
<g id="a_edge34_Node000001_Node000024"><a xlink:title=" ">
<path fill="none" stroke="#63b8ff" d="M255.33,-329.66C239.38,-311.54 202.77,-269.91 182.41,-246.77"/>
<polygon fill="#63b8ff" stroke="#63b8ff" points="184.95,-244.36 175.72,-239.16 179.69,-248.98 184.95,-244.36"/>
</a>
</g>
</g>
<!-- Node3 -->
<g id="Node000003" class="node">
<title>Node3</title>
<g id="a_Node000003"><a xlink:href="_model_point_base_8h.html" target="_top" xlink:title=" ">
<polygon fill="white" stroke="#666666" points="525.6,-239 384.6,-239 384.6,-220 525.6,-220 525.6,-239"/>
<text text-anchor="middle" x="455.1" y="-227" font-family="Helvetica,sans-Serif" font-size="10.00">Kit/Dm/ModelPointBase.h</text>
</a>
</g>
</g>
<!-- Node2&#45;&gt;Node3 -->
<g id="edge2_Node000002_Node000003" class="edge">
<title>Node2&#45;&gt;Node3</title>
<g id="a_edge2_Node000002_Node000003"><a xlink:title=" ">
<path fill="none" stroke="#63b8ff" d="M353.54,-274.98C373.09,-266.42 403.48,-253.11 425.92,-243.28"/>
<polygon fill="#63b8ff" stroke="#63b8ff" points="427.55,-246.39 435.31,-239.17 424.74,-239.98 427.55,-246.39"/>
</a>
</g>
</g>
<!-- Node4 -->
<g id="Node000004" class="node">
<title>Node4</title>
<g id="a_Node000004"><a xlink:href="_i_model_point_8h.html" target="_top" xlink:title=" ">
<polygon fill="white" stroke="#666666" points="325.1,-184 205.1,-184 205.1,-165 325.1,-165 325.1,-184"/>
<text text-anchor="middle" x="265.1" y="-172" font-family="Helvetica,sans-Serif" font-size="10.00">Kit/Dm/IModelPoint.h</text>
</a>
</g>
</g>
<!-- Node3&#45;&gt;Node4 -->
<g id="edge3_Node000003_Node000004" class="edge">
<title>Node3&#45;&gt;Node4</title>
<g id="a_edge3_Node000003_Node000004"><a xlink:title=" ">
<path fill="none" stroke="#63b8ff" d="M424.57,-219.98C392.4,-211.01 341.54,-196.82 305.93,-186.89"/>
<polygon fill="#63b8ff" stroke="#63b8ff" points="306.44,-183.4 295.87,-184.08 304.56,-190.14 306.44,-183.4"/>
</a>
</g>
</g>
<!-- Node10 -->
<g id="Node000010" class="node">
<title>Node10</title>
<g id="a_Node000010"><a xlink:title=" ">
<polygon fill="#e0e0e0" stroke="#999999" points="179.6,-19 126.6,-19 126.6,0 179.6,0 179.6,-19"/>
<text text-anchor="middle" x="153.1" y="-7" font-family="Helvetica,sans-Serif" font-size="10.00">stdint.h</text>
</a>
</g>
</g>
<!-- Node3&#45;&gt;Node10 -->
<g id="edge32_Node000003_Node000010" class="edge">
<title>Node3&#45;&gt;Node10</title>
<g id="a_edge32_Node000003_Node000010"><a xlink:title=" ">
<path fill="none" stroke="#63b8ff" d="M475.84,-219.93C490.97,-212.6 510.75,-200.6 522.1,-184 540.9,-156.49 554.19,-136.58 534.1,-110 512.96,-82.04 281.15,-35.02 189.8,-17.42"/>
<polygon fill="#63b8ff" stroke="#63b8ff" points="190.36,-13.97 179.88,-15.52 189.04,-20.84 190.36,-13.97"/>
</a>
</g>
</g>
<!-- Node11 -->
<g id="Node000011" class="node">
<title>Node11</title>
<g id="a_Node000011"><a xlink:title=" ">
<polygon fill="#e0e0e0" stroke="#999999" points="1095.6,-19 1042.6,-19 1042.6,0 1095.6,0 1095.6,-19"/>
<text text-anchor="middle" x="1069.1" y="-7" font-family="Helvetica,sans-Serif" font-size="10.00">stdlib.h</text>
</a>
</g>
</g>
<!-- Node3&#45;&gt;Node11 -->
<g id="edge33_Node000003_Node000011" class="edge">
<title>Node3&#45;&gt;Node11</title>
<g id="a_edge33_Node000003_Node000011"><a xlink:title=" ">
<path fill="none" stroke="#63b8ff" d="M525.82,-228.12C672.99,-225.66 1004.32,-210.93 1074.1,-129 1097.93,-101.02 1086.1,-54.45 1076.75,-28.81"/>
<polygon fill="#63b8ff" stroke="#63b8ff" points="1079.9,-27.27 1073.01,-19.22 1073.38,-29.81 1079.9,-27.27"/>
</a>
</g>
</g>
<!-- Node16 -->
<g id="Node000016" class="node">
<title>Node16</title>
<g id="a_Node000016"><a xlink:href="_i_observer_8h.html" target="_top" xlink:title=" ">
<polygon fill="white" stroke="#666666" points="124.6,-129 15.6,-129 15.6,-110 124.6,-110 124.6,-129"/>
<text text-anchor="middle" x="70.1" y="-117" font-family="Helvetica,sans-Serif" font-size="10.00">Kit/Dm/IObserver.h</text>
</a>
</g>
</g>
<!-- Node3&#45;&gt;Node16 -->
<g id="edge28_Node000003_Node000016" class="edge">
<title>Node3&#45;&gt;Node16</title>
<g id="a_edge28_Node000003_Node000016"><a xlink:title=" ">
<path fill="none" stroke="#63b8ff" d="M384.48,-222.08C331.62,-215.92 258.06,-204.43 196.1,-184 158.11,-171.47 117.31,-149.08 92.75,-134.52"/>
<polygon fill="#63b8ff" stroke="#63b8ff" points="94.24,-131.33 83.87,-129.17 90.63,-137.33 94.24,-131.33"/>
</a>
</g>
</g>
<!-- Node19 -->
<g id="Node000019" class="node">
<title>Node19</title>
<g id="a_Node000019"><a xlink:href="_i_model_database_8h.html" target="_top" xlink:title=" ">
<polygon fill="white" stroke="#666666" points="724.1,-184 582.1,-184 582.1,-165 724.1,-165 724.1,-184"/>
<text text-anchor="middle" x="653.1" y="-172" font-family="Helvetica,sans-Serif" font-size="10.00">Kit/Dm/IModelDatabase.h</text>
</a>
</g>
</g>
<!-- Node3&#45;&gt;Node19 -->
<g id="edge21_Node000003_Node000019" class="edge">
<title>Node3&#45;&gt;Node19</title>
<g id="a_edge21_Node000003_Node000019"><a xlink:title=" ">
<path fill="none" stroke="#63b8ff" d="M486.91,-219.98C520.59,-210.97 573.9,-196.7 611.03,-186.76"/>
<polygon fill="#63b8ff" stroke="#63b8ff" points="612.28,-190.05 621.04,-184.08 610.47,-183.29 612.28,-190.05"/>
</a>
</g>
</g>
<!-- Node22 -->
<g id="Node000022" class="node">
<title>Node22</title>
<g id="a_Node000022"><a xlink:href="_d_list_8h.html" target="_top" xlink:title=" ">
<polygon fill="white" stroke="#666666" points="513.6,-184 396.6,-184 396.6,-165 513.6,-165 513.6,-184"/>
<text text-anchor="middle" x="455.1" y="-172" font-family="Helvetica,sans-Serif" font-size="10.00">Kit/Container/DList.h</text>
</a>
</g>
</g>
<!-- Node3&#45;&gt;Node22 -->
<g id="edge29_Node000003_Node000022" class="edge">
<title>Node3&#45;&gt;Node22</title>
<g id="a_edge29_Node000003_Node000022"><a xlink:title=" ">
<path fill="none" stroke="#63b8ff" d="M455.1,-219.75C455.1,-212.8 455.1,-202.85 455.1,-194.13"/>
<polygon fill="#63b8ff" stroke="#63b8ff" points="458.6,-194.09 455.1,-184.09 451.6,-194.09 458.6,-194.09"/>
</a>
</g>
</g>
<!-- Node5 -->
<g id="Node000005" class="node">
<title>Node5</title>
<g id="a_Node000005"><a xlink:title=" ">
<polygon fill="#e0e0e0" stroke="#999999" points="366.6,-129 293.6,-129 293.6,-110 366.6,-110 366.6,-129"/>
<text text-anchor="middle" x="330.1" y="-117" font-family="Helvetica,sans-Serif" font-size="10.00">kit_config.h</text>
</a>
</g>
</g>
<!-- Node4&#45;&gt;Node5 -->
<g id="edge4_Node000004_Node000005" class="edge">
<title>Node4&#45;&gt;Node5</title>
<g id="a_edge4_Node000004_Node000005"><a xlink:title=" ">
<path fill="none" stroke="#63b8ff" d="M275.54,-164.98C285.25,-157.07 299.92,-145.11 311.6,-135.58"/>
<polygon fill="#63b8ff" stroke="#63b8ff" points="313.93,-138.2 319.47,-129.17 309.51,-132.78 313.93,-138.2"/>
</a>
</g>
</g>
<!-- Node6 -->
<g id="Node000006" class="node">
<title>Node6</title>
<g id="a_Node000006"><a xlink:href="_list_item_8h.html" target="_top" xlink:title=" ">
<polygon fill="white" stroke="#666666" points="331.1,-74 199.1,-74 199.1,-55 331.1,-55 331.1,-74"/>
<text text-anchor="middle" x="265.1" y="-62" font-family="Helvetica,sans-Serif" font-size="10.00">Kit/Container/ListItem.h</text>
</a>
</g>
</g>
<!-- Node4&#45;&gt;Node6 -->
<g id="edge5_Node000004_Node000006" class="edge">
<title>Node4&#45;&gt;Node6</title>
<g id="a_edge5_Node000004_Node000006"><a xlink:title=" ">
<path fill="none" stroke="#63b8ff" d="M265.1,-164.66C265.1,-147.17 265.1,-107.8 265.1,-84.27"/>
<polygon fill="#63b8ff" stroke="#63b8ff" points="268.6,-84.16 265.1,-74.16 261.6,-84.16 268.6,-84.16"/>
</a>
</g>
</g>
<!-- Node8 -->
<g id="Node000008" class="node">
<title>Node8</title>
<g id="a_Node000008"><a xlink:href="_i_string_8h.html" target="_top" xlink:title=" ">
<polygon fill="white" stroke="#666666" points="800.6,-129 703.6,-129 703.6,-110 800.6,-110 800.6,-129"/>
<text text-anchor="middle" x="752.1" y="-117" font-family="Helvetica,sans-Serif" font-size="10.00">Kit/Text/IString.h</text>
</a>
</g>
</g>
<!-- Node4&#45;&gt;Node8 -->
<g id="edge7_Node000004_Node000008" class="edge">
<title>Node4&#45;&gt;Node8</title>
<g id="a_edge7_Node000004_Node000008"><a xlink:title=" ">
<path fill="none" stroke="#63b8ff" d="M325.23,-168.07C406.26,-160.57 555.28,-146.15 693.06,-129.08"/>
<polygon fill="#63b8ff" stroke="#63b8ff" points="693.9,-132.5 703.39,-127.79 693.03,-125.56 693.9,-132.5"/>
</a>
</g>
</g>
<!-- Node4&#45;&gt;Node10 -->
<g id="edge20_Node000004_Node000010" class="edge">
<title>Node4&#45;&gt;Node10</title>
<g id="a_edge20_Node000004_Node000010"><a xlink:title=" ">
<path fill="none" stroke="#63b8ff" d="M228.42,-164.86C208.7,-158.3 185.71,-147.21 172.1,-129 150.14,-99.62 149.4,-54.61 151.08,-29.36"/>
<polygon fill="#63b8ff" stroke="#63b8ff" points="154.57,-29.54 151.95,-19.28 147.6,-28.94 154.57,-29.54"/>
</a>
</g>
</g>
<!-- Node4&#45;&gt;Node16 -->
<g id="edge15_Node000004_Node000016" class="edge">
<title>Node4&#45;&gt;Node16</title>
<g id="a_edge15_Node000004_Node000016"><a xlink:title=" ">
<path fill="none" stroke="#63b8ff" d="M233.77,-164.98C200.61,-155.97 148.1,-141.7 111.54,-131.76"/>
<polygon fill="#63b8ff" stroke="#63b8ff" points="112.24,-128.33 101.68,-129.08 110.41,-135.08 112.24,-128.33"/>
</a>
</g>
</g>
<!-- Node17 -->
<g id="Node000017" class="node">
<title>Node17</title>
<g id="a_Node000017"><a xlink:href="_arduino_8h_source.html" target="_top" xlink:title=" ">
<polygon fill="white" stroke="#666666" points="685.6,-129 582.6,-129 582.6,-110 685.6,-110 685.6,-129"/>
<text text-anchor="middle" x="634.1" y="-117" font-family="Helvetica,sans-Serif" font-size="10.00">Kit/Json/Arduino.h</text>
</a>
</g>
</g>
<!-- Node4&#45;&gt;Node17 -->
<g id="edge18_Node000004_Node000017" class="edge">
<title>Node4&#45;&gt;Node17</title>
<g id="a_edge18_Node000004_Node000017"><a xlink:title=" ">
<path fill="none" stroke="#63b8ff" d="M324.39,-164.98C392.31,-155.23 503.09,-139.32 572.12,-129.4"/>
<polygon fill="#63b8ff" stroke="#63b8ff" points="573.01,-132.81 582.41,-127.92 572.01,-125.88 573.01,-132.81"/>
</a>
</g>
</g>
<!-- Node18 -->
<g id="Node000018" class="node">
<title>Node18</title>
<g id="a_Node000018"><a xlink:title=" ">
<polygon fill="#e0e0e0" stroke="#999999" points="237.1,-129 181.1,-129 181.1,-110 237.1,-110 237.1,-129"/>
<text text-anchor="middle" x="209.1" y="-117" font-family="Helvetica,sans-Serif" font-size="10.00">stddef.h</text>
</a>
</g>
</g>
<!-- Node4&#45;&gt;Node18 -->
<g id="edge19_Node000004_Node000018" class="edge">
<title>Node4&#45;&gt;Node18</title>
<g id="a_edge19_Node000004_Node000018"><a xlink:title=" ">
<path fill="none" stroke="#63b8ff" d="M256.1,-164.98C247.91,-157.23 235.6,-145.58 225.63,-136.14"/>
<polygon fill="#63b8ff" stroke="#63b8ff" points="227.93,-133.5 218.26,-129.17 223.12,-138.59 227.93,-133.5"/>
</a>
</g>
</g>
<!-- Node7 -->
<g id="Node000007" class="node">
<title>Node7</title>
<g id="a_Node000007"><a xlink:href="_item_8h.html" target="_top" xlink:title=" ">
<polygon fill="white" stroke="#666666" points="322.6,-19 207.6,-19 207.6,0 322.6,0 322.6,-19"/>
<text text-anchor="middle" x="265.1" y="-7" font-family="Helvetica,sans-Serif" font-size="10.00">Kit/Container/Item.h</text>
</a>
</g>
</g>
<!-- Node6&#45;&gt;Node7 -->
<g id="edge6_Node000006_Node000007" class="edge">
<title>Node6&#45;&gt;Node7</title>
<g id="a_edge6_Node000006_Node000007"><a xlink:title=" ">
<path fill="none" stroke="#63b8ff" d="M265.1,-54.75C265.1,-47.8 265.1,-37.85 265.1,-29.13"/>
<polygon fill="#63b8ff" stroke="#63b8ff" points="268.6,-29.09 265.1,-19.09 261.6,-29.09 268.6,-29.09"/>
</a>
</g>
</g>
<!-- Node9 -->
<g id="Node000009" class="node">
<title>Node9</title>
<g id="a_Node000009"><a xlink:href="_key_8h.html" target="_top" xlink:title=" ">
<polygon fill="white" stroke="#666666" points="957.6,-74 848.6,-74 848.6,-55 957.6,-55 957.6,-74"/>
<text text-anchor="middle" x="903.1" y="-62" font-family="Helvetica,sans-Serif" font-size="10.00">Kit/Container/Key.h</text>
</a>
</g>
</g>
<!-- Node8&#45;&gt;Node9 -->
<g id="edge8_Node000008_Node000009" class="edge">
<title>Node8&#45;&gt;Node9</title>
<g id="a_edge8_Node000008_Node000009"><a xlink:title=" ">
<path fill="none" stroke="#63b8ff" d="M776.36,-109.98C801.42,-101.19 840.73,-87.39 868.93,-77.49"/>
<polygon fill="#63b8ff" stroke="#63b8ff" points="870.12,-80.78 878.4,-74.17 867.8,-74.18 870.12,-80.78"/>
</a>
</g>
</g>
<!-- Node13 -->
<g id="Node000013" class="node">
<title>Node13</title>
<g id="a_Node000013"><a xlink:href="printfchecker_8h.html" target="_top" xlink:title="This file contains macro that enables the GCC (and Clang) compiler to validate printf flags with thei...">
<polygon fill="white" stroke="#666666" points="755.6,-74 610.6,-74 610.6,-55 755.6,-55 755.6,-74"/>
<text text-anchor="middle" x="683.1" y="-62" font-family="Helvetica,sans-Serif" font-size="10.00">Kit/System/printfchecker.h</text>
</a>
</g>
</g>
<!-- Node8&#45;&gt;Node13 -->
<g id="edge12_Node000008_Node000013" class="edge">
<title>Node8&#45;&gt;Node13</title>
<g id="a_edge12_Node000008_Node000013"><a xlink:title=" ">
<path fill="none" stroke="#63b8ff" d="M741.01,-109.98C730.61,-102 714.84,-89.88 702.38,-80.31"/>
<polygon fill="#63b8ff" stroke="#63b8ff" points="704.45,-77.49 694.39,-74.17 700.19,-83.04 704.45,-77.49"/>
</a>
</g>
</g>
<!-- Node14 -->
<g id="Node000014" class="node">
<title>Node14</title>
<g id="a_Node000014"><a xlink:title=" ">
<polygon fill="#e0e0e0" stroke="#999999" points="830.1,-74 774.1,-74 774.1,-55 830.1,-55 830.1,-74"/>
<text text-anchor="middle" x="802.1" y="-62" font-family="Helvetica,sans-Serif" font-size="10.00">stdarg.h</text>
</a>
</g>
</g>
<!-- Node8&#45;&gt;Node14 -->
<g id="edge13_Node000008_Node000014" class="edge">
<title>Node8&#45;&gt;Node14</title>
<g id="a_edge13_Node000008_Node000014"><a xlink:title=" ">
<path fill="none" stroke="#63b8ff" d="M760.36,-109.75C767.57,-102.11 778.21,-90.82 786.95,-81.56"/>
<polygon fill="#63b8ff" stroke="#63b8ff" points="789.68,-83.76 794,-74.09 784.59,-78.96 789.68,-83.76"/>
</a>
</g>
</g>
<!-- Node15 -->
<g id="Node000015" class="node">
<title>Node15</title>
<g id="a_Node000015"><a xlink:title=" ">
<polygon fill="#e0e0e0" stroke="#999999" points="592.1,-74 532.1,-74 532.1,-55 592.1,-55 592.1,-74"/>
<text text-anchor="middle" x="562.1" y="-62" font-family="Helvetica,sans-Serif" font-size="10.00">iostream</text>
</a>
</g>
</g>
<!-- Node8&#45;&gt;Node15 -->
<g id="edge14_Node000008_Node000015" class="edge">
<title>Node8&#45;&gt;Node15</title>
<g id="a_edge14_Node000008_Node000015"><a xlink:title=" ">
<path fill="none" stroke="#63b8ff" d="M721.57,-109.98C689.21,-100.96 637.94,-86.65 602.3,-76.71"/>
<polygon fill="#63b8ff" stroke="#63b8ff" points="602.81,-73.22 592.24,-73.91 600.93,-79.96 602.81,-73.22"/>
</a>
</g>
</g>
<!-- Node9&#45;&gt;Node10 -->
<g id="edge9_Node000009_Node000010" class="edge">
<title>Node9&#45;&gt;Node10</title>
<g id="a_edge9_Node000009_Node000010"><a xlink:title=" ">
<path fill="none" stroke="#63b8ff" d="M848.32,-55.95C845.2,-55.6 842.11,-55.28 839.1,-55 555.02,-28.2 481.34,-53.55 198.1,-19 195.38,-18.67 192.58,-18.27 189.77,-17.83"/>
<polygon fill="#63b8ff" stroke="#63b8ff" points="190.11,-14.34 179.66,-16.11 188.93,-21.24 190.11,-14.34"/>
</a>
</g>
</g>
<!-- Node9&#45;&gt;Node11 -->
<g id="edge10_Node000009_Node000011" class="edge">
<title>Node9&#45;&gt;Node11</title>
<g id="a_edge10_Node000009_Node000011"><a xlink:title=" ">
<path fill="none" stroke="#63b8ff" d="M929.77,-54.98C957.72,-46.06 1001.81,-31.98 1032.9,-22.06"/>
<polygon fill="#63b8ff" stroke="#63b8ff" points="1034.03,-25.37 1042.5,-18.99 1031.91,-18.7 1034.03,-25.37"/>
</a>
</g>
</g>
<!-- Node12 -->
<g id="Node000012" class="node">
<title>Node12</title>
<g id="a_Node000012"><a xlink:title=" ">
<polygon fill="#e0e0e0" stroke="#999999" points="929.6,-19 876.6,-19 876.6,0 929.6,0 929.6,-19"/>
<text text-anchor="middle" x="903.1" y="-7" font-family="Helvetica,sans-Serif" font-size="10.00">limits.h</text>
</a>
</g>
</g>
<!-- Node9&#45;&gt;Node12 -->
<g id="edge11_Node000009_Node000012" class="edge">
<title>Node9&#45;&gt;Node12</title>
<g id="a_edge11_Node000009_Node000012"><a xlink:title=" ">
<path fill="none" stroke="#63b8ff" d="M903.1,-54.75C903.1,-47.8 903.1,-37.85 903.1,-29.13"/>
<polygon fill="#63b8ff" stroke="#63b8ff" points="906.6,-29.09 903.1,-19.09 899.6,-29.09 906.6,-29.09"/>
</a>
</g>
</g>
<!-- Node16&#45;&gt;Node6 -->
<g id="edge16_Node000016_Node000006" class="edge">
<title>Node16&#45;&gt;Node6</title>
<g id="a_edge16_Node000016_Node000006"><a xlink:title=" ">
<path fill="none" stroke="#63b8ff" d="M101.43,-109.98C134.59,-100.97 187.1,-86.7 223.66,-76.76"/>
<polygon fill="#63b8ff" stroke="#63b8ff" points="224.79,-80.08 233.52,-74.08 222.96,-73.33 224.79,-80.08"/>
</a>
</g>
</g>
<!-- Node16&#45;&gt;Node10 -->
<g id="edge17_Node000016_Node000010" class="edge">
<title>Node16&#45;&gt;Node10</title>
<g id="a_edge17_Node000016_Node000010"><a xlink:title=" ">
<path fill="none" stroke="#63b8ff" d="M76.89,-109.66C90.7,-91.69 122.25,-50.64 140.13,-27.38"/>
<polygon fill="#63b8ff" stroke="#63b8ff" points="143.13,-29.22 146.45,-19.16 137.58,-24.95 143.13,-29.22"/>
</a>
</g>
</g>
<!-- Node19&#45;&gt;Node5 -->
<g id="edge22_Node000019_Node000005" class="edge">
<title>Node19&#45;&gt;Node5</title>
<g id="a_edge22_Node000019_Node000005"><a xlink:title=" ">
<path fill="none" stroke="#63b8ff" d="M596.85,-164.97C542.83,-156.67 458.67,-143.46 376.88,-129.28"/>
<polygon fill="#63b8ff" stroke="#63b8ff" points="377.37,-125.81 366.92,-127.54 376.17,-132.71 377.37,-125.81"/>
</a>
</g>
</g>
<!-- Node19&#45;&gt;Node8 -->
<g id="edge23_Node000019_Node000008" class="edge">
<title>Node19&#45;&gt;Node8</title>
<g id="a_edge23_Node000019_Node000008"><a xlink:title=" ">
<path fill="none" stroke="#63b8ff" d="M669.01,-164.98C684.65,-156.61 708.76,-143.7 726.98,-133.95"/>
<polygon fill="#63b8ff" stroke="#63b8ff" points="728.74,-136.98 735.91,-129.17 725.44,-130.8 728.74,-136.98"/>
</a>
</g>
</g>
<!-- Node19&#45;&gt;Node17 -->
<g id="edge27_Node000019_Node000017" class="edge">
<title>Node19&#45;&gt;Node17</title>
<g id="a_edge27_Node000019_Node000017"><a xlink:title=" ">
<path fill="none" stroke="#63b8ff" d="M649.96,-164.75C647.42,-157.65 643.74,-147.4 640.57,-138.56"/>
<polygon fill="#63b8ff" stroke="#63b8ff" points="643.85,-137.32 637.18,-129.09 637.26,-139.68 643.85,-137.32"/>
</a>
</g>
</g>
<!-- Node20 -->
<g id="Node000020" class="node">
<title>Node20</title>
<g id="a_Node000020"><a xlink:href="_mutex_8h.html" target="_top" xlink:title=" ">
<polygon fill="white" stroke="#666666" points="1064.6,-129 951.6,-129 951.6,-110 1064.6,-110 1064.6,-129"/>
<text text-anchor="middle" x="1008.1" y="-117" font-family="Helvetica,sans-Serif" font-size="10.00">Kit/System/Mutex.h</text>
</a>
</g>
</g>
<!-- Node19&#45;&gt;Node20 -->
<g id="edge24_Node000019_Node000020" class="edge">
<title>Node19&#45;&gt;Node20</title>
<g id="a_edge24_Node000019_Node000020"><a xlink:title=" ">
<path fill="none" stroke="#63b8ff" d="M710.14,-164.98C773.24,-155.56 874.81,-140.4 941.51,-130.44"/>
<polygon fill="#63b8ff" stroke="#63b8ff" points="942.13,-133.89 951.5,-128.95 941.09,-126.97 942.13,-133.89"/>
</a>
</g>
</g>
<!-- Node20&#45;&gt;Node11 -->
<g id="edge25_Node000020_Node000011" class="edge">
<title>Node20&#45;&gt;Node11</title>
<g id="a_edge25_Node000020_Node000011"><a xlink:title=" ">
<path fill="none" stroke="#63b8ff" d="M1018.22,-109.93C1027.46,-101.6 1040.89,-88.18 1049.1,-74 1057.24,-59.93 1062.48,-42.16 1065.54,-29"/>
<polygon fill="#63b8ff" stroke="#63b8ff" points="1068.96,-29.71 1067.62,-19.21 1062.12,-28.26 1068.96,-29.71"/>
</a>
</g>
</g>
<!-- Node21 -->
<g id="Node000021" class="node">
<title>Node21</title>
<g id="a_Node000021"><a xlink:title=" ">
<polygon fill="#e0e0e0" stroke="#999999" points="1040.6,-74 975.6,-74 975.6,-55 1040.6,-55 1040.6,-74"/>
<text text-anchor="middle" x="1008.1" y="-62" font-family="Helvetica,sans-Serif" font-size="10.00">kit_map.h</text>
</a>
</g>
</g>
<!-- Node20&#45;&gt;Node21 -->
<g id="edge26_Node000020_Node000021" class="edge">
<title>Node20&#45;&gt;Node21</title>
<g id="a_edge26_Node000020_Node000021"><a xlink:title=" ">
<path fill="none" stroke="#63b8ff" d="M1008.1,-109.75C1008.1,-102.8 1008.1,-92.85 1008.1,-84.13"/>
<polygon fill="#63b8ff" stroke="#63b8ff" points="1011.6,-84.09 1008.1,-74.09 1004.6,-84.09 1011.6,-84.09"/>
</a>
</g>
</g>
<!-- Node23 -->
<g id="Node000023" class="node">
<title>Node23</title>
<g id="a_Node000023"><a xlink:href="_d_list_base_8h.html" target="_top" xlink:title=" ">
<polygon fill="white" stroke="#666666" points="525.6,-129 384.6,-129 384.6,-110 525.6,-110 525.6,-129"/>
<text text-anchor="middle" x="455.1" y="-117" font-family="Helvetica,sans-Serif" font-size="10.00">Kit/Container/DListBase.h</text>
</a>
</g>
</g>
<!-- Node22&#45;&gt;Node23 -->
<g id="edge30_Node000022_Node000023" class="edge">
<title>Node22&#45;&gt;Node23</title>
<g id="a_edge30_Node000022_Node000023"><a xlink:title=" ">
<path fill="none" stroke="#63b8ff" d="M455.1,-164.75C455.1,-157.8 455.1,-147.85 455.1,-139.13"/>
<polygon fill="#63b8ff" stroke="#63b8ff" points="458.6,-139.09 455.1,-129.09 451.6,-139.09 458.6,-139.09"/>
</a>
</g>
</g>
<!-- Node23&#45;&gt;Node6 -->
<g id="edge31_Node000023_Node000006" class="edge">
<title>Node23&#45;&gt;Node6</title>
<g id="a_edge31_Node000023_Node000006"><a xlink:title=" ">
<path fill="none" stroke="#63b8ff" d="M424.57,-109.98C392.4,-101.01 341.54,-86.82 305.93,-76.89"/>
<polygon fill="#63b8ff" stroke="#63b8ff" points="306.44,-73.4 295.87,-74.08 304.56,-80.14 306.44,-73.4"/>
</a>
</g>
</g>
<!-- Node24&#45;&gt;Node4 -->
<g id="edge36_Node000024_Node000004" class="edge">
<title>Node24&#45;&gt;Node4</title>
<g id="a_edge36_Node000024_Node000004"><a xlink:title=" ">
<path fill="none" stroke="#63b8ff" d="M183.69,-219.98C198.87,-211.69 222.2,-198.94 240,-189.22"/>
<polygon fill="#63b8ff" stroke="#63b8ff" points="242.14,-192.04 249.23,-184.17 238.78,-185.89 242.14,-192.04"/>
</a>
</g>
</g>
<!-- Node24&#45;&gt;Node10 -->
<g id="edge37_Node000024_Node000010" class="edge">
<title>Node24&#45;&gt;Node10</title>
<g id="a_edge37_Node000024_Node000010"><a xlink:title=" ">
<path fill="none" stroke="#63b8ff" d="M137.85,-219.95C99.27,-207.24 34.22,-179.27 6.1,-129 -23.14,-76.72 64.25,-38.7 116.68,-21.22"/>
<polygon fill="#63b8ff" stroke="#63b8ff" points="117.9,-24.5 126.34,-18.1 115.74,-17.84 117.9,-24.5"/>
</a>
</g>
</g>
<!-- Node24&#45;&gt;Node16 -->
<g id="edge35_Node000024_Node000016" class="edge">
<title>Node24&#45;&gt;Node16</title>
<g id="a_edge35_Node000024_Node000016"><a xlink:title=" ">
<path fill="none" stroke="#63b8ff" d="M160.08,-219.66C143.63,-201.54 105.86,-159.91 84.86,-136.77"/>
<polygon fill="#63b8ff" stroke="#63b8ff" points="87.27,-134.21 77.96,-129.16 82.09,-138.92 87.27,-134.21"/>
</a>
</g>
</g>
</g>
</svg>
