<?xml version="1.0" encoding="UTF-8" standalone="no"?>
<!DOCTYPE svg PUBLIC "-//W3C//DTD SVG 1.1//EN"
 "http://www.w3.org/Graphics/SVG/1.1/DTD/svg11.dtd">
<!-- Generated by graphviz version 2.43.0 (0)
 -->
<!-- Title: Kit/Dm/ObserverCallback.h Pages: 1 -->
<svg width="1175pt" height="104pt"
 viewBox="0.00 0.00 1174.50 104.00" xmlns="http://www.w3.org/2000/svg" xmlns:xlink="http://www.w3.org/1999/xlink">
<g id="graph0" class="graph" transform="scale(1 1) rotate(0) translate(4 100)">
<title>Kit/Dm/ObserverCallback.h</title>
<!-- Node1 -->
<g id="Node000001" class="node">
<title>Node1</title>
<g id="a_Node000001"><a xlink:title=" ">
<polygon fill="#999999" stroke="#666666" points="708,-96 559,-96 559,-77 708,-77 708,-96"/>
<text text-anchor="middle" x="633.5" y="-84" font-family="Helvetica,sans-Serif" font-size="10.00">Kit/Dm/ObserverCallback.h</text>
</a>
</g>
</g>
<!-- Node2 -->
<g id="Node000002" class="node">
<title>Node2</title>
<g id="a_Node000002"><a xlink:href="_led_server_8h.html" target="_top" xlink:title=" ">
<polygon fill="white" stroke="#666666" points="181,-41 0,-41 0,0 181,0 181,-41"/>
<text text-anchor="start" x="8" y="-29" font-family="Helvetica,sans-Serif" font-size="10.00">/home/runner/work/kit.core</text>
<text text-anchor="start" x="8" y="-18" font-family="Helvetica,sans-Serif" font-size="10.00">/kit.core/projects/examples</text>
<text text-anchor="middle" x="90.5" y="-7" font-family="Helvetica,sans-Serif" font-size="10.00">/Container/RingBuffer/LedServer.h</text>
</a>
</g>
</g>
<!-- Node1&#45;&gt;Node2 -->
<g id="edge1_Node000001_Node000002" class="edge">
<title>Node1&#45;&gt;Node2</title>
<g id="a_edge1_Node000001_Node000002"><a xlink:title=" ">
<path fill="none" stroke="#63b8ff" d="M548.89,-79.41C459.34,-72.41 314.02,-59.46 189.5,-41 186.73,-40.59 183.91,-40.15 181.08,-39.7"/>
<polygon fill="#63b8ff" stroke="#63b8ff" points="548.76,-82.91 559,-80.2 549.3,-75.94 548.76,-82.91"/>
</a>
</g>
</g>
<!-- Node3 -->
<g id="Node000003" class="node">
<title>Node3</title>
<g id="a_Node000003"><a xlink:href="_producer_8h.html" target="_top" xlink:title=" ">
<polygon fill="white" stroke="#666666" points="374,-41 199,-41 199,0 374,0 374,-41"/>
<text text-anchor="start" x="207" y="-29" font-family="Helvetica,sans-Serif" font-size="10.00">/home/runner/work/kit.core</text>
<text text-anchor="start" x="207" y="-18" font-family="Helvetica,sans-Serif" font-size="10.00">/kit.core/projects/examples</text>
<text text-anchor="middle" x="286.5" y="-7" font-family="Helvetica,sans-Serif" font-size="10.00">/Container/RingBuffer/Producer.h</text>
</a>
</g>
</g>
<!-- Node1&#45;&gt;Node3 -->
<g id="edge2_Node000001_Node000003" class="edge">
<title>Node1&#45;&gt;Node3</title>
<g id="a_edge2_Node000001_Node000003"><a xlink:title=" ">
<path fill="none" stroke="#63b8ff" d="M572.78,-75.17C521.9,-66.41 447.38,-53.34 382.5,-41 379.74,-40.48 376.94,-39.94 374.12,-39.39"/>
<polygon fill="#63b8ff" stroke="#63b8ff" points="572.5,-78.68 582.95,-76.92 573.69,-71.78 572.5,-78.68"/>
</a>
</g>
</g>
<!-- Node4 -->
<g id="Node000004" class="node">
<title>Node4</title>
<g id="a_Node000004"><a xlink:href="_dm_2_transaction_2_client_8h.html" target="_top" xlink:title=" ">
<polygon fill="white" stroke="#666666" points="541,-41 392,-41 392,0 541,0 541,-41"/>
<text text-anchor="start" x="400" y="-29" font-family="Helvetica,sans-Serif" font-size="10.00">/home/runner/work/kit.core</text>
<text text-anchor="start" x="400" y="-18" font-family="Helvetica,sans-Serif" font-size="10.00">/kit.core/projects/examples</text>
<text text-anchor="middle" x="466.5" y="-7" font-family="Helvetica,sans-Serif" font-size="10.00">/Dm/Transaction/Client.h</text>
</a>
</g>
</g>
<!-- Node1&#45;&gt;Node4 -->
<g id="edge3_Node000001_Node000004" class="edge">
<title>Node1&#45;&gt;Node4</title>
<g id="a_edge3_Node000001_Node000004"><a xlink:title=" ">
<path fill="none" stroke="#63b8ff" d="M601.39,-73.19C577.61,-64.08 544.75,-51.49 517.41,-41.01"/>
<polygon fill="#63b8ff" stroke="#63b8ff" points="600.39,-76.56 610.98,-76.87 602.89,-70.02 600.39,-76.56"/>
</a>
</g>
</g>
<!-- Node5 -->
<g id="Node000005" class="node">
<title>Node5</title>
<g id="a_Node000005"><a xlink:href="projects_2examples_2_dm_2_transaction_2_server_8h.html" target="_top" xlink:title=" ">
<polygon fill="white" stroke="#666666" points="708,-41 559,-41 559,0 708,0 708,-41"/>
<text text-anchor="start" x="567" y="-29" font-family="Helvetica,sans-Serif" font-size="10.00">/home/runner/work/kit.core</text>
<text text-anchor="start" x="567" y="-18" font-family="Helvetica,sans-Serif" font-size="10.00">/kit.core/projects/examples</text>
<text text-anchor="middle" x="633.5" y="-7" font-family="Helvetica,sans-Serif" font-size="10.00">/Dm/Transaction/Server.h</text>
</a>
</g>
</g>
<!-- Node1&#45;&gt;Node5 -->
<g id="edge4_Node000001_Node000005" class="edge">
<title>Node1&#45;&gt;Node5</title>
<g id="a_edge4_Node000001_Node000005"><a xlink:title=" ">
<path fill="none" stroke="#63b8ff" d="M633.5,-66.63C633.5,-58.56 633.5,-49.15 633.5,-41.01"/>
<polygon fill="#63b8ff" stroke="#63b8ff" points="630,-66.87 633.5,-76.87 637,-66.87 630,-66.87"/>
</a>
</g>
</g>
<!-- Node6 -->
<g id="Node000006" class="node">
<title>Node6</title>
<g id="a_Node000006"><a xlink:href="_itc_2_synchronous_2_client_8h.html" target="_top" xlink:title=" ">
<polygon fill="white" stroke="#666666" points="875,-41 726,-41 726,0 875,0 875,-41"/>
<text text-anchor="start" x="734" y="-29" font-family="Helvetica,sans-Serif" font-size="10.00">/home/runner/work/kit.core</text>
<text text-anchor="start" x="734" y="-18" font-family="Helvetica,sans-Serif" font-size="10.00">/kit.core/projects/examples</text>
<text text-anchor="middle" x="800.5" y="-7" font-family="Helvetica,sans-Serif" font-size="10.00">/Itc/Synchronous/Client.h</text>
</a>
</g>
</g>
<!-- Node1&#45;&gt;Node6 -->
<g id="edge5_Node000001_Node000006" class="edge">
<title>Node1&#45;&gt;Node6</title>
<g id="a_edge5_Node000001_Node000006"><a xlink:title=" ">
<path fill="none" stroke="#63b8ff" d="M665.61,-73.19C689.39,-64.08 722.25,-51.49 749.59,-41.01"/>
<polygon fill="#63b8ff" stroke="#63b8ff" points="664.11,-70.02 656.02,-76.87 666.61,-76.56 664.11,-70.02"/>
</a>
</g>
</g>
<!-- Node7 -->
<g id="Node000007" class="node">
<title>Node7</title>
<g id="a_Node000007"><a xlink:href="_log_sink_8h.html" target="_top" xlink:title=" ">
<polygon fill="white" stroke="#666666" points="1022,-35.5 893,-35.5 893,-5.5 1022,-5.5 1022,-35.5"/>
<text text-anchor="start" x="901" y="-23.5" font-family="Helvetica,sans-Serif" font-size="10.00">Kit/Logging/Framework</text>
<text text-anchor="middle" x="957.5" y="-12.5" font-family="Helvetica,sans-Serif" font-size="10.00">/LogSink.h</text>
</a>
</g>
</g>
<!-- Node1&#45;&gt;Node7 -->
<g id="edge6_Node000001_Node000007" class="edge">
<title>Node1&#45;&gt;Node7</title>
<g id="a_edge6_Node000001_Node000007"><a xlink:title=" ">
<path fill="none" stroke="#63b8ff" d="M699.79,-75.34C750.57,-67.17 822.25,-54.81 884.5,-41 891.8,-39.38 899.47,-37.52 906.98,-35.6"/>
<polygon fill="#63b8ff" stroke="#63b8ff" points="698.92,-71.93 689.6,-76.96 700.03,-78.84 698.92,-71.93"/>
</a>
</g>
</g>
<!-- Node8 -->
<g id="Node000008" class="node">
<title>Node8</title>
<g id="a_Node000008"><a xlink:href="src_2_kit_2_persistence_2_record_2_journal_2_server_8h.html" target="_top" xlink:title=" ">
<polygon fill="white" stroke="#666666" points="1166.5,-35.5 1040.5,-35.5 1040.5,-5.5 1166.5,-5.5 1166.5,-35.5"/>
<text text-anchor="start" x="1048.5" y="-23.5" font-family="Helvetica,sans-Serif" font-size="10.00">Kit/Persistence/Record</text>
<text text-anchor="middle" x="1103.5" y="-12.5" font-family="Helvetica,sans-Serif" font-size="10.00">/Journal/Server.h</text>
</a>
</g>
</g>
<!-- Node1&#45;&gt;Node8 -->
<g id="edge7_Node000001_Node000008" class="edge">
<title>Node1&#45;&gt;Node8</title>
<g id="a_edge7_Node000001_Node000008"><a xlink:title=" ">
<path fill="none" stroke="#63b8ff" d="M718.23,-79.81C799.19,-73.48 924.4,-61.37 1031.5,-41 1039.39,-39.5 1047.68,-37.58 1055.71,-35.54"/>
<polygon fill="#63b8ff" stroke="#63b8ff" points="717.8,-76.33 708.09,-80.59 718.33,-83.31 717.8,-76.33"/>
</a>
</g>
</g>
</g>
</svg>
