<?xml version="1.0" encoding="UTF-8" standalone="no"?>
<!DOCTYPE svg PUBLIC "-//W3C//DTD SVG 1.1//EN"
 "http://www.w3.org/Graphics/SVG/1.1/DTD/svg11.dtd">
<!-- Generated by graphviz version 2.43.0 (0)
 -->
<!-- Title: Kit/Dm/Observer.h Pages: 1 -->
<svg width="768pt" height="247pt"
 viewBox="0.00 0.00 767.64 247.00" xmlns="http://www.w3.org/2000/svg" xmlns:xlink="http://www.w3.org/1999/xlink">
<g id="graph0" class="graph" transform="scale(1 1) rotate(0) translate(4 243)">
<title>Kit/Dm/Observer.h</title>
<!-- Node1 -->
<g id="Node000001" class="node">
<title>Node1</title>
<g id="a_Node000001"><a xlink:title=" ">
<polygon fill="#999999" stroke="#666666" points="121.14,-239 15.14,-239 15.14,-220 121.14,-220 121.14,-239"/>
<text text-anchor="middle" x="68.14" y="-227" font-family="Helvetica,sans-Serif" font-size="10.00">Kit/Dm/Observer.h</text>
</a>
</g>
</g>
<!-- Node2 -->
<g id="Node000002" class="node">
<title>Node2</title>
<g id="a_Node000002"><a xlink:href="_i_observer_8h.html" target="_top" xlink:title=" ">
<polygon fill="white" stroke="#666666" points="122.64,-129 13.64,-129 13.64,-110 122.64,-110 122.64,-129"/>
<text text-anchor="middle" x="68.14" y="-117" font-family="Helvetica,sans-Serif" font-size="10.00">Kit/Dm/IObserver.h</text>
</a>
</g>
</g>
<!-- Node1&#45;&gt;Node2 -->
<g id="edge1_Node000001_Node000002" class="edge">
<title>Node1&#45;&gt;Node2</title>
<g id="a_edge1_Node000001_Node000002"><a xlink:title=" ">
<path fill="none" stroke="#63b8ff" d="M68.14,-219.66C68.14,-202.17 68.14,-162.8 68.14,-139.27"/>
<polygon fill="#63b8ff" stroke="#63b8ff" points="71.64,-139.16 68.14,-129.16 64.64,-139.16 71.64,-139.16"/>
</a>
</g>
</g>
<!-- Node5 -->
<g id="Node000005" class="node">
<title>Node5</title>
<g id="a_Node000005"><a xlink:title=" ">
<polygon fill="#e0e0e0" stroke="#999999" points="131.64,-19 78.64,-19 78.64,0 131.64,0 131.64,-19"/>
<text text-anchor="middle" x="105.14" y="-7" font-family="Helvetica,sans-Serif" font-size="10.00">stdint.h</text>
</a>
</g>
</g>
<!-- Node1&#45;&gt;Node5 -->
<g id="edge20_Node000001_Node000005" class="edge">
<title>Node1&#45;&gt;Node5</title>
<g id="a_edge20_Node000001_Node000005"><a xlink:title=" ">
<path fill="none" stroke="#63b8ff" d="M57.36,-219.88C34.81,-200.72 -13.82,-152.92 4.14,-110 19.97,-72.18 57.95,-41.46 82.56,-24.6"/>
<polygon fill="#63b8ff" stroke="#63b8ff" points="84.56,-27.48 90.96,-19.04 80.69,-21.65 84.56,-27.48"/>
</a>
</g>
</g>
<!-- Node6 -->
<g id="Node000006" class="node">
<title>Node6</title>
<g id="a_Node000006"><a xlink:href="_i_model_point_8h.html" target="_top" xlink:title=" ">
<polygon fill="white" stroke="#666666" points="295.14,-184 175.14,-184 175.14,-165 295.14,-165 295.14,-184"/>
<text text-anchor="middle" x="235.14" y="-172" font-family="Helvetica,sans-Serif" font-size="10.00">Kit/Dm/IModelPoint.h</text>
</a>
</g>
</g>
<!-- Node1&#45;&gt;Node6 -->
<g id="edge5_Node000001_Node000006" class="edge">
<title>Node1&#45;&gt;Node6</title>
<g id="a_edge5_Node000001_Node000006"><a xlink:title=" ">
<path fill="none" stroke="#63b8ff" d="M94.97,-219.98C123.01,-211.09 167.19,-197.07 198.44,-187.15"/>
<polygon fill="#63b8ff" stroke="#63b8ff" points="199.63,-190.44 208.1,-184.08 197.51,-183.77 199.63,-190.44"/>
</a>
</g>
</g>
<!-- Node3 -->
<g id="Node000003" class="node">
<title>Node3</title>
<g id="a_Node000003"><a xlink:href="_list_item_8h.html" target="_top" xlink:title=" ">
<polygon fill="white" stroke="#666666" points="310.14,-74 178.14,-74 178.14,-55 310.14,-55 310.14,-74"/>
<text text-anchor="middle" x="244.14" y="-62" font-family="Helvetica,sans-Serif" font-size="10.00">Kit/Container/ListItem.h</text>
</a>
</g>
</g>
<!-- Node2&#45;&gt;Node3 -->
<g id="edge2_Node000002_Node000003" class="edge">
<title>Node2&#45;&gt;Node3</title>
<g id="a_edge2_Node000002_Node000003"><a xlink:title=" ">
<path fill="none" stroke="#63b8ff" d="M96.42,-109.98C126.1,-101.05 172.93,-86.94 205.89,-77.02"/>
<polygon fill="#63b8ff" stroke="#63b8ff" points="207.08,-80.32 215.64,-74.08 205.06,-73.61 207.08,-80.32"/>
</a>
</g>
</g>
<!-- Node2&#45;&gt;Node5 -->
<g id="edge4_Node000002_Node000005" class="edge">
<title>Node2&#45;&gt;Node5</title>
<g id="a_edge4_Node000002_Node000005"><a xlink:title=" ">
<path fill="none" stroke="#63b8ff" d="M71.17,-109.66C77.22,-92.01 90.89,-52.09 98.93,-28.64"/>
<polygon fill="#63b8ff" stroke="#63b8ff" points="102.25,-29.75 102.18,-19.16 95.62,-27.48 102.25,-29.75"/>
</a>
</g>
</g>
<!-- Node4 -->
<g id="Node000004" class="node">
<title>Node4</title>
<g id="a_Node000004"><a xlink:href="_item_8h.html" target="_top" xlink:title=" ">
<polygon fill="white" stroke="#666666" points="301.64,-19 186.64,-19 186.64,0 301.64,0 301.64,-19"/>
<text text-anchor="middle" x="244.14" y="-7" font-family="Helvetica,sans-Serif" font-size="10.00">Kit/Container/Item.h</text>
</a>
</g>
</g>
<!-- Node3&#45;&gt;Node4 -->
<g id="edge3_Node000003_Node000004" class="edge">
<title>Node3&#45;&gt;Node4</title>
<g id="a_edge3_Node000003_Node000004"><a xlink:title=" ">
<path fill="none" stroke="#63b8ff" d="M244.14,-54.75C244.14,-47.8 244.14,-37.85 244.14,-29.13"/>
<polygon fill="#63b8ff" stroke="#63b8ff" points="247.64,-29.09 244.14,-19.09 240.64,-29.09 247.64,-29.09"/>
</a>
</g>
</g>
<!-- Node6&#45;&gt;Node2 -->
<g id="edge16_Node000006_Node000002" class="edge">
<title>Node6&#45;&gt;Node2</title>
<g id="a_edge16_Node000006_Node000002"><a xlink:title=" ">
<path fill="none" stroke="#63b8ff" d="M208.31,-164.98C180.27,-156.09 136.1,-142.07 104.84,-132.15"/>
<polygon fill="#63b8ff" stroke="#63b8ff" points="105.77,-128.77 95.18,-129.08 103.66,-135.44 105.77,-128.77"/>
</a>
</g>
</g>
<!-- Node6&#45;&gt;Node3 -->
<g id="edge7_Node000006_Node000003" class="edge">
<title>Node6&#45;&gt;Node3</title>
<g id="a_edge7_Node000006_Node000003"><a xlink:title=" ">
<path fill="none" stroke="#63b8ff" d="M237.46,-164.71C239.68,-155.79 242.89,-141.55 244.14,-129 245.64,-114.05 245.54,-97.02 245.12,-84.36"/>
<polygon fill="#63b8ff" stroke="#63b8ff" points="248.61,-84 244.69,-74.15 241.62,-84.3 248.61,-84"/>
</a>
</g>
</g>
<!-- Node6&#45;&gt;Node5 -->
<g id="edge19_Node000006_Node000005" class="edge">
<title>Node6&#45;&gt;Node5</title>
<g id="a_edge19_Node000006_Node000005"><a xlink:title=" ">
<path fill="none" stroke="#63b8ff" d="M218.3,-164.91C204.13,-157.04 184.01,-144.3 170.14,-129 142.28,-98.25 121.9,-53.44 111.95,-28.67"/>
<polygon fill="#63b8ff" stroke="#63b8ff" points="115.12,-27.15 108.23,-19.1 108.59,-29.68 115.12,-27.15"/>
</a>
</g>
</g>
<!-- Node7 -->
<g id="Node000007" class="node">
<title>Node7</title>
<g id="a_Node000007"><a xlink:title=" ">
<polygon fill="#e0e0e0" stroke="#999999" points="364.64,-129 291.64,-129 291.64,-110 364.64,-110 364.64,-129"/>
<text text-anchor="middle" x="328.14" y="-117" font-family="Helvetica,sans-Serif" font-size="10.00">kit_config.h</text>
</a>
</g>
</g>
<!-- Node6&#45;&gt;Node7 -->
<g id="edge6_Node000006_Node000007" class="edge">
<title>Node6&#45;&gt;Node7</title>
<g id="a_edge6_Node000006_Node000007"><a xlink:title=" ">
<path fill="none" stroke="#63b8ff" d="M250.08,-164.98C264.64,-156.69 287.01,-143.94 304.08,-134.22"/>
<polygon fill="#63b8ff" stroke="#63b8ff" points="305.97,-137.16 312.93,-129.17 302.51,-131.08 305.97,-137.16"/>
</a>
</g>
</g>
<!-- Node8 -->
<g id="Node000008" class="node">
<title>Node8</title>
<g id="a_Node000008"><a xlink:href="_i_string_8h.html" target="_top" xlink:title=" ">
<polygon fill="white" stroke="#666666" points="480.64,-129 383.64,-129 383.64,-110 480.64,-110 480.64,-129"/>
<text text-anchor="middle" x="432.14" y="-117" font-family="Helvetica,sans-Serif" font-size="10.00">Kit/Text/IString.h</text>
</a>
</g>
</g>
<!-- Node6&#45;&gt;Node8 -->
<g id="edge8_Node000006_Node000008" class="edge">
<title>Node6&#45;&gt;Node8</title>
<g id="a_edge8_Node000006_Node000008"><a xlink:title=" ">
<path fill="none" stroke="#63b8ff" d="M266.79,-164.98C300.3,-155.97 353.34,-141.7 390.28,-131.76"/>
<polygon fill="#63b8ff" stroke="#63b8ff" points="391.5,-135.06 400.24,-129.08 389.68,-128.3 391.5,-135.06"/>
</a>
</g>
</g>
<!-- Node15 -->
<g id="Node000015" class="node">
<title>Node15</title>
<g id="a_Node000015"><a xlink:href="_arduino_8h_source.html" target="_top" xlink:title=" ">
<polygon fill="white" stroke="#666666" points="601.64,-129 498.64,-129 498.64,-110 601.64,-110 601.64,-129"/>
<text text-anchor="middle" x="550.14" y="-117" font-family="Helvetica,sans-Serif" font-size="10.00">Kit/Json/Arduino.h</text>
</a>
</g>
</g>
<!-- Node6&#45;&gt;Node15 -->
<g id="edge17_Node000006_Node000015" class="edge">
<title>Node6&#45;&gt;Node15</title>
<g id="a_edge17_Node000006_Node000015"><a xlink:title=" ">
<path fill="none" stroke="#63b8ff" d="M285.75,-164.98C341.24,-155.65 430.23,-140.67 489.43,-130.71"/>
<polygon fill="#63b8ff" stroke="#63b8ff" points="490.12,-134.15 499.4,-129.04 488.95,-127.25 490.12,-134.15"/>
</a>
</g>
</g>
<!-- Node16 -->
<g id="Node000016" class="node">
<title>Node16</title>
<g id="a_Node000016"><a xlink:title=" ">
<polygon fill="#e0e0e0" stroke="#999999" points="235.14,-129 179.14,-129 179.14,-110 235.14,-110 235.14,-129"/>
<text text-anchor="middle" x="207.14" y="-117" font-family="Helvetica,sans-Serif" font-size="10.00">stddef.h</text>
</a>
</g>
</g>
<!-- Node6&#45;&gt;Node16 -->
<g id="edge18_Node000006_Node000016" class="edge">
<title>Node6&#45;&gt;Node16</title>
<g id="a_edge18_Node000006_Node000016"><a xlink:title=" ">
<path fill="none" stroke="#63b8ff" d="M230.52,-164.75C226.69,-157.49 221.12,-146.95 216.38,-137.98"/>
<polygon fill="#63b8ff" stroke="#63b8ff" points="219.45,-136.3 211.68,-129.09 213.26,-139.57 219.45,-136.3"/>
</a>
</g>
</g>
<!-- Node9 -->
<g id="Node000009" class="node">
<title>Node9</title>
<g id="a_Node000009"><a xlink:href="_key_8h.html" target="_top" xlink:title=" ">
<polygon fill="white" stroke="#666666" points="752.64,-74 643.64,-74 643.64,-55 752.64,-55 752.64,-74"/>
<text text-anchor="middle" x="698.14" y="-62" font-family="Helvetica,sans-Serif" font-size="10.00">Kit/Container/Key.h</text>
</a>
</g>
</g>
<!-- Node8&#45;&gt;Node9 -->
<g id="edge9_Node000008_Node000009" class="edge">
<title>Node8&#45;&gt;Node9</title>
<g id="a_edge9_Node000008_Node000009"><a xlink:title=" ">
<path fill="none" stroke="#63b8ff" d="M474.88,-109.98C521.18,-100.76 595.12,-86.03 645.1,-76.07"/>
<polygon fill="#63b8ff" stroke="#63b8ff" points="645.95,-79.47 655.07,-74.08 644.58,-72.6 645.95,-79.47"/>
</a>
</g>
</g>
<!-- Node12 -->
<g id="Node000012" class="node">
<title>Node12</title>
<g id="a_Node000012"><a xlink:href="printfchecker_8h.html" target="_top" xlink:title="This file contains macro that enables the GCC (and Clang) compiler to validate printf flags with thei...">
<polygon fill="white" stroke="#666666" points="625.64,-74 480.64,-74 480.64,-55 625.64,-55 625.64,-74"/>
<text text-anchor="middle" x="553.14" y="-62" font-family="Helvetica,sans-Serif" font-size="10.00">Kit/System/printfchecker.h</text>
</a>
</g>
</g>
<!-- Node8&#45;&gt;Node12 -->
<g id="edge13_Node000008_Node000012" class="edge">
<title>Node8&#45;&gt;Node12</title>
<g id="a_edge13_Node000008_Node000012"><a xlink:title=" ">
<path fill="none" stroke="#63b8ff" d="M451.58,-109.98C471.14,-101.42 501.52,-88.11 523.97,-78.28"/>
<polygon fill="#63b8ff" stroke="#63b8ff" points="525.59,-81.39 533.35,-74.17 522.78,-74.98 525.59,-81.39"/>
</a>
</g>
</g>
<!-- Node13 -->
<g id="Node000013" class="node">
<title>Node13</title>
<g id="a_Node000013"><a xlink:title=" ">
<polygon fill="#e0e0e0" stroke="#999999" points="384.14,-74 328.14,-74 328.14,-55 384.14,-55 384.14,-74"/>
<text text-anchor="middle" x="356.14" y="-62" font-family="Helvetica,sans-Serif" font-size="10.00">stdarg.h</text>
</a>
</g>
</g>
<!-- Node8&#45;&gt;Node13 -->
<g id="edge14_Node000008_Node000013" class="edge">
<title>Node8&#45;&gt;Node13</title>
<g id="a_edge14_Node000008_Node000013"><a xlink:title=" ">
<path fill="none" stroke="#63b8ff" d="M419.93,-109.98C408.37,-101.92 390.77,-89.65 376.98,-80.03"/>
<polygon fill="#63b8ff" stroke="#63b8ff" points="378.78,-77.02 368.57,-74.17 374.78,-82.76 378.78,-77.02"/>
</a>
</g>
</g>
<!-- Node14 -->
<g id="Node000014" class="node">
<title>Node14</title>
<g id="a_Node000014"><a xlink:title=" ">
<polygon fill="#e0e0e0" stroke="#999999" points="462.14,-74 402.14,-74 402.14,-55 462.14,-55 462.14,-74"/>
<text text-anchor="middle" x="432.14" y="-62" font-family="Helvetica,sans-Serif" font-size="10.00">iostream</text>
</a>
</g>
</g>
<!-- Node8&#45;&gt;Node14 -->
<g id="edge15_Node000008_Node000014" class="edge">
<title>Node8&#45;&gt;Node14</title>
<g id="a_edge15_Node000008_Node000014"><a xlink:title=" ">
<path fill="none" stroke="#63b8ff" d="M432.14,-109.75C432.14,-102.8 432.14,-92.85 432.14,-84.13"/>
<polygon fill="#63b8ff" stroke="#63b8ff" points="435.64,-84.09 432.14,-74.09 428.64,-84.09 435.64,-84.09"/>
</a>
</g>
</g>
<!-- Node9&#45;&gt;Node5 -->
<g id="edge10_Node000009_Node000005" class="edge">
<title>Node9&#45;&gt;Node5</title>
<g id="a_edge10_Node000009_Node000005"><a xlink:title=" ">
<path fill="none" stroke="#63b8ff" d="M643.53,-55.94C640.69,-55.61 637.89,-55.29 635.14,-55 432.11,-33.34 380.35,-38.97 177.14,-19 165.63,-17.87 153.11,-16.45 141.79,-15.11"/>
<polygon fill="#63b8ff" stroke="#63b8ff" points="142.13,-11.62 131.79,-13.9 141.29,-18.57 142.13,-11.62"/>
</a>
</g>
</g>
<!-- Node10 -->
<g id="Node000010" class="node">
<title>Node10</title>
<g id="a_Node000010"><a xlink:title=" ">
<polygon fill="#e0e0e0" stroke="#999999" points="759.64,-19 706.64,-19 706.64,0 759.64,0 759.64,-19"/>
<text text-anchor="middle" x="733.14" y="-7" font-family="Helvetica,sans-Serif" font-size="10.00">stdlib.h</text>
</a>
</g>
</g>
<!-- Node9&#45;&gt;Node10 -->
<g id="edge11_Node000009_Node000010" class="edge">
<title>Node9&#45;&gt;Node10</title>
<g id="a_edge11_Node000009_Node000010"><a xlink:title=" ">
<path fill="none" stroke="#63b8ff" d="M703.92,-54.75C708.76,-47.42 715.82,-36.73 721.79,-27.7"/>
<polygon fill="#63b8ff" stroke="#63b8ff" points="724.88,-29.36 727.47,-19.09 719.04,-25.5 724.88,-29.36"/>
</a>
</g>
</g>
<!-- Node11 -->
<g id="Node000011" class="node">
<title>Node11</title>
<g id="a_Node000011"><a xlink:title=" ">
<polygon fill="#e0e0e0" stroke="#999999" points="688.64,-19 635.64,-19 635.64,0 688.64,0 688.64,-19"/>
<text text-anchor="middle" x="662.14" y="-7" font-family="Helvetica,sans-Serif" font-size="10.00">limits.h</text>
</a>
</g>
</g>
<!-- Node9&#45;&gt;Node11 -->
<g id="edge12_Node000009_Node000011" class="edge">
<title>Node9&#45;&gt;Node11</title>
<g id="a_edge12_Node000009_Node000011"><a xlink:title=" ">
<path fill="none" stroke="#63b8ff" d="M692.2,-54.75C687.16,-47.34 679.81,-36.5 673.63,-27.41"/>
<polygon fill="#63b8ff" stroke="#63b8ff" points="676.49,-25.39 667.98,-19.09 670.7,-29.33 676.49,-25.39"/>
</a>
</g>
</g>
</g>
</svg>
