<?xml version="1.0" encoding="UTF-8" standalone="no"?>
<!DOCTYPE svg PUBLIC "-//W3C//DTD SVG 1.1//EN"
 "http://www.w3.org/Graphics/SVG/1.1/DTD/svg11.dtd">
<!-- Generated by graphviz version 2.43.0 (0)
 -->
<!-- Title: Kit/Io/File/Output.h Pages: 1 -->
<svg width="675pt" height="302pt"
 viewBox="0.00 0.00 674.50 302.00" xmlns="http://www.w3.org/2000/svg" xmlns:xlink="http://www.w3.org/1999/xlink">
<g id="graph0" class="graph" transform="scale(1 1) rotate(0) translate(4 298)">
<title>Kit/Io/File/Output.h</title>
<!-- Node1 -->
<g id="Node000001" class="node">
<title>Node1</title>
<g id="a_Node000001"><a xlink:title=" ">
<polygon fill="#999999" stroke="#666666" points="255,-294 148,-294 148,-275 255,-275 255,-294"/>
<text text-anchor="middle" x="201.5" y="-282" font-family="Helvetica,sans-Serif" font-size="10.00">Kit/Io/File/Output.h</text>
</a>
</g>
</g>
<!-- Node2 -->
<g id="Node000002" class="node">
<title>Node2</title>
<g id="a_Node000002"><a xlink:href="_file_2_i_output_8h.html" target="_top" xlink:title=" ">
<polygon fill="white" stroke="#666666" points="299.5,-239 189.5,-239 189.5,-220 299.5,-220 299.5,-239"/>
<text text-anchor="middle" x="244.5" y="-227" font-family="Helvetica,sans-Serif" font-size="10.00">Kit/Io/File/IOutput.h</text>
</a>
</g>
</g>
<!-- Node1&#45;&gt;Node2 -->
<g id="edge1_Node000001_Node000002" class="edge">
<title>Node1&#45;&gt;Node2</title>
<g id="a_edge1_Node000001_Node000002"><a xlink:title=" ">
<path fill="none" stroke="#63b8ff" d="M208.6,-274.75C214.67,-267.26 223.59,-256.28 231.01,-247.13"/>
<polygon fill="#63b8ff" stroke="#63b8ff" points="233.95,-249.06 237.53,-239.09 228.51,-244.65 233.95,-249.06"/>
</a>
</g>
</g>
<!-- Node4 -->
<g id="Node000004" class="node">
<title>Node4</title>
<g id="a_Node000004"><a xlink:href="_types_8h.html" target="_top" xlink:title=" ">
<polygon fill="white" stroke="#666666" points="199.5,-129 117.5,-129 117.5,-110 199.5,-110 199.5,-129"/>
<text text-anchor="middle" x="158.5" y="-117" font-family="Helvetica,sans-Serif" font-size="10.00">Kit/Io/Types.h</text>
</a>
</g>
</g>
<!-- Node1&#45;&gt;Node4 -->
<g id="edge21_Node000001_Node000004" class="edge">
<title>Node1&#45;&gt;Node4</title>
<g id="a_edge21_Node000001_Node000004"><a xlink:title=" ">
<path fill="none" stroke="#63b8ff" d="M196.63,-274.91C191.85,-266.14 184.7,-252.01 180.5,-239 169.4,-204.6 163.26,-162.67 160.44,-139.04"/>
<polygon fill="#63b8ff" stroke="#63b8ff" points="163.91,-138.56 159.32,-129.02 156.96,-139.34 163.91,-138.56"/>
</a>
</g>
</g>
<!-- Node3 -->
<g id="Node000003" class="node">
<title>Node3</title>
<g id="a_Node000003"><a xlink:href="_i_output_8h.html" target="_top" xlink:title=" ">
<polygon fill="white" stroke="#666666" points="430.5,-184 340.5,-184 340.5,-165 430.5,-165 430.5,-184"/>
<text text-anchor="middle" x="385.5" y="-172" font-family="Helvetica,sans-Serif" font-size="10.00">Kit/Io/IOutput.h</text>
</a>
</g>
</g>
<!-- Node2&#45;&gt;Node3 -->
<g id="edge2_Node000002_Node000003" class="edge">
<title>Node2&#45;&gt;Node3</title>
<g id="a_edge2_Node000002_Node000003"><a xlink:title=" ">
<path fill="none" stroke="#63b8ff" d="M267.15,-219.98C290.35,-211.27 326.62,-197.63 352.9,-187.75"/>
<polygon fill="#63b8ff" stroke="#63b8ff" points="354.3,-190.97 362.43,-184.17 351.84,-184.41 354.3,-190.97"/>
</a>
</g>
</g>
<!-- Node17 -->
<g id="Node000017" class="node">
<title>Node17</title>
<g id="a_Node000017"><a xlink:href="_i_position_8h.html" target="_top" xlink:title=" ">
<polygon fill="white" stroke="#666666" points="302.5,-184 186.5,-184 186.5,-165 302.5,-165 302.5,-184"/>
<text text-anchor="middle" x="244.5" y="-172" font-family="Helvetica,sans-Serif" font-size="10.00">Kit/Io/File/IPosition.h</text>
</a>
</g>
</g>
<!-- Node2&#45;&gt;Node17 -->
<g id="edge19_Node000002_Node000017" class="edge">
<title>Node2&#45;&gt;Node17</title>
<g id="a_edge19_Node000002_Node000017"><a xlink:title=" ">
<path fill="none" stroke="#63b8ff" d="M244.5,-219.75C244.5,-212.8 244.5,-202.85 244.5,-194.13"/>
<polygon fill="#63b8ff" stroke="#63b8ff" points="248,-194.09 244.5,-184.09 241,-194.09 248,-194.09"/>
</a>
</g>
</g>
<!-- Node3&#45;&gt;Node4 -->
<g id="edge3_Node000003_Node000004" class="edge">
<title>Node3&#45;&gt;Node4</title>
<g id="a_edge3_Node000003_Node000004"><a xlink:title=" ">
<path fill="none" stroke="#63b8ff" d="M349.03,-164.98C309.93,-155.86 247.73,-141.33 205.11,-131.38"/>
<polygon fill="#63b8ff" stroke="#63b8ff" points="205.79,-127.95 195.26,-129.08 204.2,-134.76 205.79,-127.95"/>
</a>
</g>
</g>
<!-- Node8 -->
<g id="Node000008" class="node">
<title>Node8</title>
<g id="a_Node000008"><a xlink:href="_i_string_8h.html" target="_top" xlink:title=" ">
<polygon fill="white" stroke="#666666" points="434,-129 337,-129 337,-110 434,-110 434,-129"/>
<text text-anchor="middle" x="385.5" y="-117" font-family="Helvetica,sans-Serif" font-size="10.00">Kit/Text/IString.h</text>
</a>
</g>
</g>
<!-- Node3&#45;&gt;Node8 -->
<g id="edge7_Node000003_Node000008" class="edge">
<title>Node3&#45;&gt;Node8</title>
<g id="a_edge7_Node000003_Node000008"><a xlink:title=" ">
<path fill="none" stroke="#63b8ff" d="M385.5,-164.75C385.5,-157.8 385.5,-147.85 385.5,-139.13"/>
<polygon fill="#63b8ff" stroke="#63b8ff" points="389,-139.09 385.5,-129.09 382,-139.09 389,-139.09"/>
</a>
</g>
</g>
<!-- Node12 -->
<g id="Node000012" class="node">
<title>Node12</title>
<g id="a_Node000012"><a xlink:href="printfchecker_8h.html" target="_top" xlink:title="This file contains macro that enables the GCC (and Clang) compiler to validate printf flags with thei...">
<polygon fill="white" stroke="#666666" points="358,-74 213,-74 213,-55 358,-55 358,-74"/>
<text text-anchor="middle" x="285.5" y="-62" font-family="Helvetica,sans-Serif" font-size="10.00">Kit/System/printfchecker.h</text>
</a>
</g>
</g>
<!-- Node3&#45;&gt;Node12 -->
<g id="edge17_Node000003_Node000012" class="edge">
<title>Node3&#45;&gt;Node12</title>
<g id="a_edge17_Node000003_Node000012"><a xlink:title=" ">
<path fill="none" stroke="#63b8ff" d="M372.32,-164.98C360.11,-156.7 341.87,-143.31 328.5,-129 315.33,-114.91 303.3,-96.44 295.33,-83.05"/>
<polygon fill="#63b8ff" stroke="#63b8ff" points="298.33,-81.24 290.29,-74.34 292.27,-84.75 298.33,-81.24"/>
</a>
</g>
</g>
<!-- Node13 -->
<g id="Node000013" class="node">
<title>Node13</title>
<g id="a_Node000013"><a xlink:title=" ">
<polygon fill="#e0e0e0" stroke="#999999" points="638.5,-74 582.5,-74 582.5,-55 638.5,-55 638.5,-74"/>
<text text-anchor="middle" x="610.5" y="-62" font-family="Helvetica,sans-Serif" font-size="10.00">stdarg.h</text>
</a>
</g>
</g>
<!-- Node3&#45;&gt;Node13 -->
<g id="edge18_Node000003_Node000013" class="edge">
<title>Node3&#45;&gt;Node13</title>
<g id="a_edge18_Node000003_Node000013"><a xlink:title=" ">
<path fill="none" stroke="#63b8ff" d="M396.47,-164.9C413.74,-151.68 448.7,-126.18 481.5,-110 510.85,-95.52 546.1,-83.71 572.32,-75.9"/>
<polygon fill="#63b8ff" stroke="#63b8ff" points="573.63,-79.17 582.26,-73.01 571.68,-72.44 573.63,-79.17"/>
</a>
</g>
</g>
<!-- Node15 -->
<g id="Node000015" class="node">
<title>Node15</title>
<g id="a_Node000015"><a xlink:href="_io_2_i_close_8h.html" target="_top" xlink:title=" ">
<polygon fill="white" stroke="#666666" points="574.5,-129 490.5,-129 490.5,-110 574.5,-110 574.5,-129"/>
<text text-anchor="middle" x="532.5" y="-117" font-family="Helvetica,sans-Serif" font-size="10.00">Kit/Io/IClose.h</text>
</a>
</g>
</g>
<!-- Node3&#45;&gt;Node15 -->
<g id="edge15_Node000003_Node000015" class="edge">
<title>Node3&#45;&gt;Node15</title>
<g id="a_edge15_Node000003_Node000015"><a xlink:title=" ">
<path fill="none" stroke="#63b8ff" d="M409.12,-164.98C433.4,-156.23 471.45,-142.51 498.87,-132.62"/>
<polygon fill="#63b8ff" stroke="#63b8ff" points="500.23,-135.85 508.45,-129.17 497.86,-129.27 500.23,-135.85"/>
</a>
</g>
</g>
<!-- Node16 -->
<g id="Node000016" class="node">
<title>Node16</title>
<g id="a_Node000016"><a xlink:href="_i_eos_8h.html" target="_top" xlink:title=" ">
<polygon fill="white" stroke="#666666" points="666.5,-129 592.5,-129 592.5,-110 666.5,-110 666.5,-129"/>
<text text-anchor="middle" x="629.5" y="-117" font-family="Helvetica,sans-Serif" font-size="10.00">Kit/Io/IEos.h</text>
</a>
</g>
</g>
<!-- Node3&#45;&gt;Node16 -->
<g id="edge16_Node000003_Node000016" class="edge">
<title>Node3&#45;&gt;Node16</title>
<g id="a_edge16_Node000003_Node000016"><a xlink:title=" ">
<path fill="none" stroke="#63b8ff" d="M424.7,-164.98C467.66,-155.65 536.55,-140.69 582.41,-130.73"/>
<polygon fill="#63b8ff" stroke="#63b8ff" points="583.36,-134.1 592.39,-128.56 581.88,-127.26 583.36,-134.1"/>
</a>
</g>
</g>
<!-- Node5 -->
<g id="Node000005" class="node">
<title>Node5</title>
<g id="a_Node000005"><a xlink:title=" ">
<polygon fill="#e0e0e0" stroke="#999999" points="195,-74 122,-74 122,-55 195,-55 195,-74"/>
<text text-anchor="middle" x="158.5" y="-62" font-family="Helvetica,sans-Serif" font-size="10.00">kit_config.h</text>
</a>
</g>
</g>
<!-- Node4&#45;&gt;Node5 -->
<g id="edge4_Node000004_Node000005" class="edge">
<title>Node4&#45;&gt;Node5</title>
<g id="a_edge4_Node000004_Node000005"><a xlink:title=" ">
<path fill="none" stroke="#63b8ff" d="M158.5,-109.75C158.5,-102.8 158.5,-92.85 158.5,-84.13"/>
<polygon fill="#63b8ff" stroke="#63b8ff" points="162,-84.09 158.5,-74.09 155,-84.09 162,-84.09"/>
</a>
</g>
</g>
<!-- Node6 -->
<g id="Node000006" class="node">
<title>Node6</title>
<g id="a_Node000006"><a xlink:title=" ">
<polygon fill="#e0e0e0" stroke="#999999" points="65,-74 0,-74 0,-55 65,-55 65,-74"/>
<text text-anchor="middle" x="32.5" y="-62" font-family="Helvetica,sans-Serif" font-size="10.00">kit_map.h</text>
</a>
</g>
</g>
<!-- Node4&#45;&gt;Node6 -->
<g id="edge5_Node000004_Node000006" class="edge">
<title>Node4&#45;&gt;Node6</title>
<g id="a_edge5_Node000004_Node000006"><a xlink:title=" ">
<path fill="none" stroke="#63b8ff" d="M138.26,-109.98C117.8,-101.38 85.97,-87.99 62.57,-78.15"/>
<polygon fill="#63b8ff" stroke="#63b8ff" points="63.69,-74.82 53.11,-74.17 60.97,-81.27 63.69,-74.82"/>
</a>
</g>
</g>
<!-- Node7 -->
<g id="Node000007" class="node">
<title>Node7</title>
<g id="a_Node000007"><a xlink:title=" ">
<polygon fill="#e0e0e0" stroke="#999999" points="292,-19 239,-19 239,0 292,0 292,-19"/>
<text text-anchor="middle" x="265.5" y="-7" font-family="Helvetica,sans-Serif" font-size="10.00">stdint.h</text>
</a>
</g>
</g>
<!-- Node4&#45;&gt;Node7 -->
<g id="edge6_Node000004_Node000007" class="edge">
<title>Node4&#45;&gt;Node7</title>
<g id="a_edge6_Node000004_Node000007"><a xlink:title=" ">
<path fill="none" stroke="#63b8ff" d="M144.24,-109.8C125.88,-97.51 97.95,-74.38 112.5,-55 126.48,-36.38 188.24,-23 228.89,-16.03"/>
<polygon fill="#63b8ff" stroke="#63b8ff" points="229.69,-19.44 238.98,-14.35 228.54,-12.54 229.69,-19.44"/>
</a>
</g>
</g>
<!-- Node9 -->
<g id="Node000009" class="node">
<title>Node9</title>
<g id="a_Node000009"><a xlink:href="_key_8h.html" target="_top" xlink:title=" ">
<polygon fill="white" stroke="#666666" points="564,-74 455,-74 455,-55 564,-55 564,-74"/>
<text text-anchor="middle" x="509.5" y="-62" font-family="Helvetica,sans-Serif" font-size="10.00">Kit/Container/Key.h</text>
</a>
</g>
</g>
<!-- Node8&#45;&gt;Node9 -->
<g id="edge8_Node000008_Node000009" class="edge">
<title>Node8&#45;&gt;Node9</title>
<g id="a_edge8_Node000008_Node000009"><a xlink:title=" ">
<path fill="none" stroke="#63b8ff" d="M405.42,-109.98C425.55,-101.38 456.88,-87.99 479.91,-78.15"/>
<polygon fill="#63b8ff" stroke="#63b8ff" points="481.4,-81.32 489.21,-74.17 478.64,-74.88 481.4,-81.32"/>
</a>
</g>
</g>
<!-- Node8&#45;&gt;Node12 -->
<g id="edge12_Node000008_Node000012" class="edge">
<title>Node8&#45;&gt;Node12</title>
<g id="a_edge12_Node000008_Node000012"><a xlink:title=" ">
<path fill="none" stroke="#63b8ff" d="M369.43,-109.98C353.64,-101.61 329.28,-88.7 310.87,-78.95"/>
<polygon fill="#63b8ff" stroke="#63b8ff" points="312.33,-75.76 301.86,-74.17 309.06,-81.95 312.33,-75.76"/>
</a>
</g>
</g>
<!-- Node8&#45;&gt;Node13 -->
<g id="edge13_Node000008_Node000013" class="edge">
<title>Node8&#45;&gt;Node13</title>
<g id="a_edge13_Node000008_Node000013"><a xlink:title=" ">
<path fill="none" stroke="#63b8ff" d="M421.65,-109.98C462.96,-100.25 530.29,-84.39 572.4,-74.47"/>
<polygon fill="#63b8ff" stroke="#63b8ff" points="573.34,-77.85 582.27,-72.15 571.74,-71.03 573.34,-77.85"/>
</a>
</g>
</g>
<!-- Node14 -->
<g id="Node000014" class="node">
<title>Node14</title>
<g id="a_Node000014"><a xlink:title=" ">
<polygon fill="#e0e0e0" stroke="#999999" points="436.5,-74 376.5,-74 376.5,-55 436.5,-55 436.5,-74"/>
<text text-anchor="middle" x="406.5" y="-62" font-family="Helvetica,sans-Serif" font-size="10.00">iostream</text>
</a>
</g>
</g>
<!-- Node8&#45;&gt;Node14 -->
<g id="edge14_Node000008_Node000014" class="edge">
<title>Node8&#45;&gt;Node14</title>
<g id="a_edge14_Node000008_Node000014"><a xlink:title=" ">
<path fill="none" stroke="#63b8ff" d="M388.97,-109.75C391.78,-102.65 395.84,-92.4 399.35,-83.56"/>
<polygon fill="#63b8ff" stroke="#63b8ff" points="402.67,-84.68 403.1,-74.09 396.16,-82.1 402.67,-84.68"/>
</a>
</g>
</g>
<!-- Node9&#45;&gt;Node7 -->
<g id="edge9_Node000009_Node000007" class="edge">
<title>Node9&#45;&gt;Node7</title>
<g id="a_edge9_Node000009_Node000007"><a xlink:title=" ">
<path fill="none" stroke="#63b8ff" d="M470.3,-54.98C423.93,-44.91 347.35,-28.28 302.14,-18.46"/>
<polygon fill="#63b8ff" stroke="#63b8ff" points="302.68,-15 292.17,-16.29 301.2,-21.84 302.68,-15"/>
</a>
</g>
</g>
<!-- Node10 -->
<g id="Node000010" class="node">
<title>Node10</title>
<g id="a_Node000010"><a xlink:title=" ">
<polygon fill="#e0e0e0" stroke="#999999" points="571,-19 518,-19 518,0 571,0 571,-19"/>
<text text-anchor="middle" x="544.5" y="-7" font-family="Helvetica,sans-Serif" font-size="10.00">string.h</text>
</a>
</g>
</g>
<!-- Node9&#45;&gt;Node10 -->
<g id="edge10_Node000009_Node000010" class="edge">
<title>Node9&#45;&gt;Node10</title>
<g id="a_edge10_Node000009_Node000010"><a xlink:title=" ">
<path fill="none" stroke="#63b8ff" d="M515.28,-54.75C520.12,-47.42 527.18,-36.73 533.14,-27.7"/>
<polygon fill="#63b8ff" stroke="#63b8ff" points="536.24,-29.36 538.83,-19.09 530.4,-25.5 536.24,-29.36"/>
</a>
</g>
</g>
<!-- Node11 -->
<g id="Node000011" class="node">
<title>Node11</title>
<g id="a_Node000011"><a xlink:title=" ">
<polygon fill="#e0e0e0" stroke="#999999" points="500,-19 447,-19 447,0 500,0 500,-19"/>
<text text-anchor="middle" x="473.5" y="-7" font-family="Helvetica,sans-Serif" font-size="10.00">limits.h</text>
</a>
</g>
</g>
<!-- Node9&#45;&gt;Node11 -->
<g id="edge11_Node000009_Node000011" class="edge">
<title>Node9&#45;&gt;Node11</title>
<g id="a_edge11_Node000009_Node000011"><a xlink:title=" ">
<path fill="none" stroke="#63b8ff" d="M503.56,-54.75C498.52,-47.34 491.16,-36.5 484.99,-27.41"/>
<polygon fill="#63b8ff" stroke="#63b8ff" points="487.85,-25.39 479.33,-19.09 482.06,-29.33 487.85,-25.39"/>
</a>
</g>
</g>
<!-- Node17&#45;&gt;Node4 -->
<g id="edge20_Node000017_Node000004" class="edge">
<title>Node17&#45;&gt;Node4</title>
<g id="a_edge20_Node000017_Node000004"><a xlink:title=" ">
<path fill="none" stroke="#63b8ff" d="M230.68,-164.98C217.35,-156.77 196.92,-144.18 181.19,-134.49"/>
<polygon fill="#63b8ff" stroke="#63b8ff" points="182.92,-131.44 172.57,-129.17 179.25,-137.4 182.92,-131.44"/>
</a>
</g>
</g>
</g>
</svg>
