<?xml version="1.0" encoding="UTF-8" standalone="no"?>
<!DOCTYPE svg PUBLIC "-//W3C//DTD SVG 1.1//EN"
 "http://www.w3.org/Graphics/SVG/1.1/DTD/svg11.dtd">
<!-- Generated by graphviz version 2.43.0 (0)
 -->
<!-- Title: /home/runner/work/kit.core/kit.core/projects/examples/Container/Lists/Period.h Pages: 1 -->
<svg width="449pt" height="269pt"
 viewBox="0.00 0.00 448.50 269.00" xmlns="http://www.w3.org/2000/svg" xmlns:xlink="http://www.w3.org/1999/xlink">
<g id="graph0" class="graph" transform="scale(1 1) rotate(0) translate(4 265)">
<title>/home/runner/work/kit.core/kit.core/projects/examples/Container/Lists/Period.h</title>
<!-- Node1 -->
<g id="Node000001" class="node">
<title>Node1</title>
<g id="a_Node000001"><a xlink:title=" ">
<polygon fill="#999999" stroke="#666666" points="312.5,-261 163.5,-261 163.5,-220 312.5,-220 312.5,-261"/>
<text text-anchor="start" x="171.5" y="-249" font-family="Helvetica,sans-Serif" font-size="10.00">/home/runner/work/kit.core</text>
<text text-anchor="start" x="171.5" y="-238" font-family="Helvetica,sans-Serif" font-size="10.00">/kit.core/projects/examples</text>
<text text-anchor="middle" x="238" y="-227" font-family="Helvetica,sans-Serif" font-size="10.00">/Container/Lists/Period.h</text>
</a>
</g>
</g>
<!-- Node2 -->
<g id="Node000002" class="node">
<title>Node2</title>
<g id="a_Node000002"><a xlink:href="_list_item_8h.html" target="_top" xlink:title=" ">
<polygon fill="white" stroke="#666666" points="132,-74 0,-74 0,-55 132,-55 132,-74"/>
<text text-anchor="middle" x="66" y="-62" font-family="Helvetica,sans-Serif" font-size="10.00">Kit/Container/ListItem.h</text>
</a>
</g>
</g>
<!-- Node1&#45;&gt;Node2 -->
<g id="edge1_Node000001_Node000002" class="edge">
<title>Node1&#45;&gt;Node2</title>
<g id="a_edge1_Node000001_Node000002"><a xlink:title=" ">
<path fill="none" stroke="#63b8ff" d="M163.41,-234.77C124.66,-228.48 79.39,-214.52 50,-184 26.78,-159.89 26.22,-142.01 36,-110 39.09,-99.9 45.32,-90.02 51.31,-82.15"/>
<polygon fill="#63b8ff" stroke="#63b8ff" points="54.18,-84.16 57.79,-74.2 48.76,-79.74 54.18,-84.16"/>
</a>
</g>
</g>
<!-- Node4 -->
<g id="Node000004" class="node">
<title>Node4</title>
<g id="a_Node000004"><a xlink:href="_d_list_8h.html" target="_top" xlink:title=" ">
<polygon fill="white" stroke="#666666" points="176.5,-184 59.5,-184 59.5,-165 176.5,-165 176.5,-184"/>
<text text-anchor="middle" x="118" y="-172" font-family="Helvetica,sans-Serif" font-size="10.00">Kit/Container/DList.h</text>
</a>
</g>
</g>
<!-- Node1&#45;&gt;Node4 -->
<g id="edge3_Node000001_Node000004" class="edge">
<title>Node1&#45;&gt;Node4</title>
<g id="a_edge3_Node000001_Node000004"><a xlink:title=" ">
<path fill="none" stroke="#63b8ff" d="M201.34,-219.95C182.56,-209.93 160.16,-197.99 143.32,-189"/>
<polygon fill="#63b8ff" stroke="#63b8ff" points="144.58,-185.71 134.11,-184.09 141.29,-191.89 144.58,-185.71"/>
</a>
</g>
</g>
<!-- Node6 -->
<g id="Node000006" class="node">
<title>Node6</title>
<g id="a_Node000006"><a xlink:href="_bsp_2_api_8h.html" target="_top" xlink:title="This file defines a common/generic Board Support Package (BSP) Interface that provides an indirect re...">
<polygon fill="white" stroke="#666666" points="277.5,-184 198.5,-184 198.5,-165 277.5,-165 277.5,-184"/>
<text text-anchor="middle" x="238" y="-172" font-family="Helvetica,sans-Serif" font-size="10.00">Kit/Bsp/Api.h</text>
</a>
</g>
</g>
<!-- Node1&#45;&gt;Node6 -->
<g id="edge6_Node000001_Node000006" class="edge">
<title>Node1&#45;&gt;Node6</title>
<g id="a_edge6_Node000001_Node000006"><a xlink:title=" ">
<path fill="none" stroke="#63b8ff" d="M238,-219.95C238,-211.85 238,-202.5 238,-194.47"/>
<polygon fill="#63b8ff" stroke="#63b8ff" points="241.5,-194.26 238,-184.26 234.5,-194.26 241.5,-194.26"/>
</a>
</g>
</g>
<!-- Node9 -->
<g id="Node000009" class="node">
<title>Node9</title>
<g id="a_Node000009"><a xlink:href="_system_2_api_8h.html" target="_top" xlink:title="This file defines methods for initializing the KIT C++ class library and other startup/init actions.">
<polygon fill="white" stroke="#666666" points="393,-184 295,-184 295,-165 393,-165 393,-184"/>
<text text-anchor="middle" x="344" y="-172" font-family="Helvetica,sans-Serif" font-size="10.00">Kit/System/Api.h</text>
</a>
</g>
</g>
<!-- Node1&#45;&gt;Node9 -->
<g id="edge9_Node000001_Node000009" class="edge">
<title>Node1&#45;&gt;Node9</title>
<g id="a_edge9_Node000001_Node000009"><a xlink:title=" ">
<path fill="none" stroke="#63b8ff" d="M270.38,-219.95C286.66,-210.12 306.02,-198.43 320.8,-189.51"/>
<polygon fill="#63b8ff" stroke="#63b8ff" points="323.02,-192.26 329.77,-184.09 319.4,-186.26 323.02,-192.26"/>
</a>
</g>
</g>
<!-- Node10 -->
<g id="Node000010" class="node">
<title>Node10</title>
<g id="a_Node000010"><a xlink:title=" ">
<polygon fill="#e0e0e0" stroke="#999999" points="440.5,-129 387.5,-129 387.5,-110 440.5,-110 440.5,-129"/>
<text text-anchor="middle" x="414" y="-117" font-family="Helvetica,sans-Serif" font-size="10.00">stdint.h</text>
</a>
</g>
</g>
<!-- Node1&#45;&gt;Node10 -->
<g id="edge11_Node000001_Node000010" class="edge">
<title>Node1&#45;&gt;Node10</title>
<g id="a_edge11_Node000001_Node000010"><a xlink:title=" ">
<path fill="none" stroke="#63b8ff" d="M312.65,-231.09C344.54,-223.69 379.52,-209.86 402,-184 412.58,-171.83 415.06,-153.3 415.21,-139.4"/>
<polygon fill="#63b8ff" stroke="#63b8ff" points="418.69,-138.94 414.9,-129.05 411.7,-139.15 418.69,-138.94"/>
</a>
</g>
</g>
<!-- Node3 -->
<g id="Node000003" class="node">
<title>Node3</title>
<g id="a_Node000003"><a xlink:href="_item_8h.html" target="_top" xlink:title=" ">
<polygon fill="white" stroke="#666666" points="123.5,-19 8.5,-19 8.5,0 123.5,0 123.5,-19"/>
<text text-anchor="middle" x="66" y="-7" font-family="Helvetica,sans-Serif" font-size="10.00">Kit/Container/Item.h</text>
</a>
</g>
</g>
<!-- Node2&#45;&gt;Node3 -->
<g id="edge2_Node000002_Node000003" class="edge">
<title>Node2&#45;&gt;Node3</title>
<g id="a_edge2_Node000002_Node000003"><a xlink:title=" ">
<path fill="none" stroke="#63b8ff" d="M66,-54.75C66,-47.8 66,-37.85 66,-29.13"/>
<polygon fill="#63b8ff" stroke="#63b8ff" points="69.5,-29.09 66,-19.09 62.5,-29.09 69.5,-29.09"/>
</a>
</g>
</g>
<!-- Node5 -->
<g id="Node000005" class="node">
<title>Node5</title>
<g id="a_Node000005"><a xlink:href="_d_list_base_8h.html" target="_top" xlink:title=" ">
<polygon fill="white" stroke="#666666" points="186.5,-129 45.5,-129 45.5,-110 186.5,-110 186.5,-129"/>
<text text-anchor="middle" x="116" y="-117" font-family="Helvetica,sans-Serif" font-size="10.00">Kit/Container/DListBase.h</text>
</a>
</g>
</g>
<!-- Node4&#45;&gt;Node5 -->
<g id="edge4_Node000004_Node000005" class="edge">
<title>Node4&#45;&gt;Node5</title>
<g id="a_edge4_Node000004_Node000005"><a xlink:title=" ">
<path fill="none" stroke="#63b8ff" d="M117.67,-164.75C117.41,-157.8 117.03,-147.85 116.7,-139.13"/>
<polygon fill="#63b8ff" stroke="#63b8ff" points="120.2,-138.95 116.32,-129.09 113.2,-139.21 120.2,-138.95"/>
</a>
</g>
</g>
<!-- Node5&#45;&gt;Node2 -->
<g id="edge5_Node000005_Node000002" class="edge">
<title>Node5&#45;&gt;Node2</title>
<g id="a_edge5_Node000005_Node000002"><a xlink:title=" ">
<path fill="none" stroke="#63b8ff" d="M107.74,-109.75C100.54,-102.11 89.89,-90.82 81.15,-81.56"/>
<polygon fill="#63b8ff" stroke="#63b8ff" points="83.51,-78.96 74.1,-74.09 78.42,-83.76 83.51,-78.96"/>
</a>
</g>
</g>
<!-- Node7 -->
<g id="Node000007" class="node">
<title>Node7</title>
<g id="a_Node000007"><a xlink:title=" ">
<polygon fill="#e0e0e0" stroke="#999999" points="277.5,-129 204.5,-129 204.5,-110 277.5,-110 277.5,-129"/>
<text text-anchor="middle" x="241" y="-117" font-family="Helvetica,sans-Serif" font-size="10.00">kit_config.h</text>
</a>
</g>
</g>
<!-- Node6&#45;&gt;Node7 -->
<g id="edge7_Node000006_Node000007" class="edge">
<title>Node6&#45;&gt;Node7</title>
<g id="a_edge7_Node000006_Node000007"><a xlink:title=" ">
<path fill="none" stroke="#63b8ff" d="M238.5,-164.75C238.89,-157.8 239.45,-147.85 239.95,-139.13"/>
<polygon fill="#63b8ff" stroke="#63b8ff" points="243.44,-139.27 240.51,-129.09 236.45,-138.88 243.44,-139.27"/>
</a>
</g>
</g>
<!-- Node8 -->
<g id="Node000008" class="node">
<title>Node8</title>
<g id="a_Node000008"><a xlink:title=" ">
<polygon fill="#e0e0e0" stroke="#999999" points="360.5,-129 295.5,-129 295.5,-110 360.5,-110 360.5,-129"/>
<text text-anchor="middle" x="328" y="-117" font-family="Helvetica,sans-Serif" font-size="10.00">kit_map.h</text>
</a>
</g>
</g>
<!-- Node6&#45;&gt;Node8 -->
<g id="edge8_Node000006_Node000008" class="edge">
<title>Node6&#45;&gt;Node8</title>
<g id="a_edge8_Node000006_Node000008"><a xlink:title=" ">
<path fill="none" stroke="#63b8ff" d="M252.46,-164.98C266.42,-156.77 287.79,-144.18 304.25,-134.49"/>
<polygon fill="#63b8ff" stroke="#63b8ff" points="306.44,-137.26 313.28,-129.17 302.88,-131.23 306.44,-137.26"/>
</a>
</g>
</g>
<!-- Node9&#45;&gt;Node10 -->
<g id="edge10_Node000009_Node000010" class="edge">
<title>Node9&#45;&gt;Node10</title>
<g id="a_edge10_Node000009_Node000010"><a xlink:title=" ">
<path fill="none" stroke="#63b8ff" d="M355.25,-164.98C365.8,-157 381.8,-144.88 394.44,-135.31"/>
<polygon fill="#63b8ff" stroke="#63b8ff" points="396.69,-138 402.55,-129.17 392.46,-132.42 396.69,-138"/>
</a>
</g>
</g>
</g>
</svg>
