<?xml version="1.0" encoding="UTF-8" standalone="no"?>
<!DOCTYPE svg PUBLIC "-//W3C//DTD SVG 1.1//EN"
 "http://www.w3.org/Graphics/SVG/1.1/DTD/svg11.dtd">
<!-- Generated by graphviz version 2.43.0 (0)
 -->
<!-- Title: Kit/Persistence/Record/Media/Null.h Pages: 1 -->
<svg width="2328pt" height="599pt"
 viewBox="0.00 0.00 2328.00 599.00" xmlns="http://www.w3.org/2000/svg" xmlns:xlink="http://www.w3.org/1999/xlink">
<g id="graph0" class="graph" transform="scale(1 1) rotate(0) translate(4 595)">
<title>Kit/Persistence/Record/Media/Null.h</title>
<!-- Node1 -->
<g id="Node000001" class="node">
<title>Node1</title>
<g id="a_Node000001"><a xlink:title=" ">
<polygon fill="#999999" stroke="#666666" points="1137.5,-591 1011.5,-591 1011.5,-561 1137.5,-561 1137.5,-591"/>
<text text-anchor="start" x="1019.5" y="-579" font-family="Helvetica,sans-Serif" font-size="10.00">Kit/Persistence/Record</text>
<text text-anchor="middle" x="1074.5" y="-568" font-family="Helvetica,sans-Serif" font-size="10.00">/Media/Null.h</text>
</a>
</g>
</g>
<!-- Node2 -->
<g id="Node000002" class="node">
<title>Node2</title>
<g id="a_Node000002"><a xlink:href="_i_media_8h.html" target="_top" xlink:title=" ">
<polygon fill="white" stroke="#666666" points="1228.5,-525 1102.5,-525 1102.5,-495 1228.5,-495 1228.5,-525"/>
<text text-anchor="start" x="1110.5" y="-513" font-family="Helvetica,sans-Serif" font-size="10.00">Kit/Persistence/Record</text>
<text text-anchor="middle" x="1165.5" y="-502" font-family="Helvetica,sans-Serif" font-size="10.00">/IMedia.h</text>
</a>
</g>
</g>
<!-- Node1&#45;&gt;Node2 -->
<g id="edge1_Node000001_Node000002" class="edge">
<title>Node1&#45;&gt;Node2</title>
<g id="a_edge1_Node000001_Node000002"><a xlink:title=" ">
<path fill="none" stroke="#63b8ff" d="M1094.7,-560.8C1107.18,-552.01 1123.4,-540.61 1137.16,-530.93"/>
<polygon fill="#63b8ff" stroke="#63b8ff" points="1139.19,-533.78 1145.36,-525.16 1135.17,-528.05 1139.19,-533.78"/>
</a>
</g>
</g>
<!-- Node21 -->
<g id="Node000021" class="node">
<title>Node21</title>
<g id="a_Node000021"><a xlink:href="_string_8h.html" target="_top" xlink:title=" ">
<polygon fill="white" stroke="#666666" points="1040,-294 987,-294 987,-275 1040,-275 1040,-294"/>
<text text-anchor="middle" x="1013.5" y="-282" font-family="Helvetica,sans-Serif" font-size="10.00">string.h</text>
</a>
</g>
</g>
<!-- Node1&#45;&gt;Node21 -->
<g id="edge63_Node000001_Node000021" class="edge">
<title>Node1&#45;&gt;Node21</title>
<g id="a_edge63_Node000001_Node000021"><a xlink:title=" ">
<path fill="none" stroke="#63b8ff" d="M1054.75,-560.99C1027.99,-540.2 983.5,-498.42 983.5,-450.5 983.5,-450.5 983.5,-450.5 983.5,-393.5 983.5,-360.87 996.37,-324.65 1005.25,-303.55"/>
<polygon fill="#63b8ff" stroke="#63b8ff" points="1008.52,-304.8 1009.33,-294.23 1002.11,-301.99 1008.52,-304.8"/>
</a>
</g>
</g>
<!-- Node3 -->
<g id="Node000003" class="node">
<title>Node3</title>
<g id="a_Node000003"><a xlink:href="_i_queue_8h.html" target="_top" xlink:title=" ">
<polygon fill="white" stroke="#666666" points="1729,-239 1590,-239 1590,-220 1729,-220 1729,-239"/>
<text text-anchor="middle" x="1659.5" y="-227" font-family="Helvetica,sans-Serif" font-size="10.00">Kit/EventQueue/IQueue.h</text>
</a>
</g>
</g>
<!-- Node2&#45;&gt;Node3 -->
<g id="edge2_Node000002_Node000003" class="edge">
<title>Node2&#45;&gt;Node3</title>
<g id="a_edge2_Node000002_Node000003"><a xlink:title=" ">
<path fill="none" stroke="#63b8ff" d="M1228.78,-501.34C1328.38,-487.48 1510.5,-454.14 1510.5,-395.5 1510.5,-395.5 1510.5,-395.5 1510.5,-338.5 1510.5,-286.22 1571.37,-256.65 1615.3,-242.12"/>
<polygon fill="#63b8ff" stroke="#63b8ff" points="1616.46,-245.42 1624.94,-239.08 1614.35,-238.75 1616.46,-245.42"/>
</a>
</g>
</g>
<!-- Node15 -->
<g id="Node000015" class="node">
<title>Node15</title>
<g id="a_Node000015"><a xlink:href="_persistence_2_types_8h.html" target="_top" xlink:title=" ">
<polygon fill="white" stroke="#666666" points="1230,-459 1101,-459 1101,-440 1230,-440 1230,-459"/>
<text text-anchor="middle" x="1165.5" y="-447" font-family="Helvetica,sans-Serif" font-size="10.00">Kit/Persistence/Types.h</text>
</a>
</g>
</g>
<!-- Node2&#45;&gt;Node15 -->
<g id="edge15_Node000002_Node000015" class="edge">
<title>Node2&#45;&gt;Node15</title>
<g id="a_edge15_Node000002_Node000015"><a xlink:title=" ">
<path fill="none" stroke="#63b8ff" d="M1165.5,-494.84C1165.5,-487.21 1165.5,-477.7 1165.5,-469.45"/>
<polygon fill="#63b8ff" stroke="#63b8ff" points="1169,-469.27 1165.5,-459.27 1162,-469.27 1169,-469.27"/>
</a>
</g>
</g>
<!-- Node4 -->
<g id="Node000004" class="node">
<title>Node4</title>
<g id="a_Node000004"><a xlink:title=" ">
<polygon fill="#e0e0e0" stroke="#999999" points="1079,-129 1006,-129 1006,-110 1079,-110 1079,-129"/>
<text text-anchor="middle" x="1042.5" y="-117" font-family="Helvetica,sans-Serif" font-size="10.00">kit_config.h</text>
</a>
</g>
</g>
<!-- Node3&#45;&gt;Node4 -->
<g id="edge3_Node000003_Node000004" class="edge">
<title>Node3&#45;&gt;Node4</title>
<g id="a_edge3_Node000003_Node000004"><a xlink:title=" ">
<path fill="none" stroke="#63b8ff" d="M1610.83,-219.98C1494.79,-199.67 1203.1,-148.61 1089.14,-128.66"/>
<polygon fill="#63b8ff" stroke="#63b8ff" points="1089.45,-125.17 1079,-126.89 1088.25,-132.06 1089.45,-125.17"/>
</a>
</g>
</g>
<!-- Node5 -->
<g id="Node000005" class="node">
<title>Node5</title>
<g id="a_Node000005"><a xlink:href="_i_msg_notification_8h.html" target="_top" xlink:title=" ">
<polygon fill="white" stroke="#666666" points="2025.5,-184 1841.5,-184 1841.5,-165 2025.5,-165 2025.5,-184"/>
<text text-anchor="middle" x="1933.5" y="-172" font-family="Helvetica,sans-Serif" font-size="10.00">Kit/EventQueue/IMsgNotification.h</text>
</a>
</g>
</g>
<!-- Node3&#45;&gt;Node5 -->
<g id="edge4_Node000003_Node000005" class="edge">
<title>Node3&#45;&gt;Node5</title>
<g id="a_edge4_Node000003_Node000005"><a xlink:title=" ">
<path fill="none" stroke="#63b8ff" d="M1703.52,-219.98C1751.32,-210.74 1827.7,-195.97 1879.18,-186.01"/>
<polygon fill="#63b8ff" stroke="#63b8ff" points="1879.98,-189.42 1889.13,-184.08 1878.65,-182.54 1879.98,-189.42"/>
</a>
</g>
</g>
<!-- Node6 -->
<g id="Node000006" class="node">
<title>Node6</title>
<g id="a_Node000006"><a xlink:href="_i_timing_source_8h.html" target="_top" xlink:title=" ">
<polygon fill="white" stroke="#666666" points="1567.5,-184 1415.5,-184 1415.5,-165 1567.5,-165 1567.5,-184"/>
<text text-anchor="middle" x="1491.5" y="-172" font-family="Helvetica,sans-Serif" font-size="10.00">Kit/System/ITimingSource.h</text>
</a>
</g>
</g>
<!-- Node3&#45;&gt;Node6 -->
<g id="edge5_Node000003_Node000006" class="edge">
<title>Node3&#45;&gt;Node6</title>
<g id="a_edge5_Node000003_Node000006"><a xlink:title=" ">
<path fill="none" stroke="#63b8ff" d="M1632.51,-219.98C1604.3,-211.09 1559.86,-197.07 1528.42,-187.15"/>
<polygon fill="#63b8ff" stroke="#63b8ff" points="1529.29,-183.75 1518.7,-184.08 1527.19,-190.43 1529.29,-183.75"/>
</a>
</g>
</g>
<!-- Node11 -->
<g id="Node000011" class="node">
<title>Node11</title>
<g id="a_Node000011"><a xlink:href="_i_runnable_8h.html" target="_top" xlink:title=" ">
<polygon fill="white" stroke="#666666" points="2175,-184 2044,-184 2044,-165 2175,-165 2175,-184"/>
<text text-anchor="middle" x="2109.5" y="-172" font-family="Helvetica,sans-Serif" font-size="10.00">Kit/System/IRunnable.h</text>
</a>
</g>
</g>
<!-- Node3&#45;&gt;Node11 -->
<g id="edge10_Node000003_Node000011" class="edge">
<title>Node3&#45;&gt;Node11</title>
<g id="a_edge10_Node000003_Node000011"><a xlink:title=" ">
<path fill="none" stroke="#63b8ff" d="M1729.32,-220.28C1811.87,-210.55 1948.77,-194.43 2033.81,-184.42"/>
<polygon fill="#63b8ff" stroke="#63b8ff" points="2034.39,-187.87 2043.91,-183.22 2033.57,-180.92 2034.39,-187.87"/>
</a>
</g>
</g>
<!-- Node12 -->
<g id="Node000012" class="node">
<title>Node12</title>
<g id="a_Node000012"><a xlink:href="_i_event_manager_8h.html" target="_top" xlink:title=" ">
<polygon fill="white" stroke="#666666" points="1653,-74 1498,-74 1498,-55 1653,-55 1653,-74"/>
<text text-anchor="middle" x="1575.5" y="-62" font-family="Helvetica,sans-Serif" font-size="10.00">Kit/System/IEventManager.h</text>
</a>
</g>
</g>
<!-- Node3&#45;&gt;Node12 -->
<g id="edge11_Node000003_Node000012" class="edge">
<title>Node3&#45;&gt;Node12</title>
<g id="a_edge11_Node000003_Node000012"><a xlink:title=" ">
<path fill="none" stroke="#63b8ff" d="M1648,-219.79C1637.88,-211.57 1623.41,-198.39 1614.5,-184 1594.62,-151.89 1583.72,-108.54 1578.8,-84.16"/>
<polygon fill="#63b8ff" stroke="#63b8ff" points="1582.2,-83.3 1576.9,-74.13 1575.32,-84.61 1582.2,-83.3"/>
</a>
</g>
</g>
<!-- Node13 -->
<g id="Node000013" class="node">
<title>Node13</title>
<g id="a_Node000013"><a xlink:href="_i_signable_8h.html" target="_top" xlink:title=" ">
<polygon fill="white" stroke="#666666" points="2320,-184 2193,-184 2193,-165 2320,-165 2320,-184"/>
<text text-anchor="middle" x="2256.5" y="-172" font-family="Helvetica,sans-Serif" font-size="10.00">Kit/System/ISignable.h</text>
</a>
</g>
</g>
<!-- Node3&#45;&gt;Node13 -->
<g id="edge13_Node000003_Node000013" class="edge">
<title>Node3&#45;&gt;Node13</title>
<g id="a_edge13_Node000003_Node000013"><a xlink:title=" ">
<path fill="none" stroke="#63b8ff" d="M1729.2,-223.33C1827.86,-215.84 2014.14,-201.11 2182.85,-184.14"/>
<polygon fill="#63b8ff" stroke="#63b8ff" points="2183.31,-187.61 2192.91,-183.12 2182.61,-180.65 2183.31,-187.61"/>
</a>
</g>
</g>
<!-- Node14 -->
<g id="Node000014" class="node">
<title>Node14</title>
<g id="a_Node000014"><a xlink:href="_i_change_notification_8h.html" target="_top" xlink:title=" ">
<polygon fill="white" stroke="#666666" points="1823.5,-184 1623.5,-184 1623.5,-165 1823.5,-165 1823.5,-184"/>
<text text-anchor="middle" x="1723.5" y="-172" font-family="Helvetica,sans-Serif" font-size="10.00">Kit/EventQueue/IChangeNotification.h</text>
</a>
</g>
</g>
<!-- Node3&#45;&gt;Node14 -->
<g id="edge14_Node000003_Node000014" class="edge">
<title>Node3&#45;&gt;Node14</title>
<g id="a_edge14_Node000003_Node000014"><a xlink:title=" ">
<path fill="none" stroke="#63b8ff" d="M1669.78,-219.98C1679.34,-212.07 1693.78,-200.11 1705.28,-190.58"/>
<polygon fill="#63b8ff" stroke="#63b8ff" points="1707.56,-193.24 1713.03,-184.17 1703.1,-187.85 1707.56,-193.24"/>
</a>
</g>
</g>
<!-- Node7 -->
<g id="Node000007" class="node">
<title>Node7</title>
<g id="a_Node000007"><a xlink:href="_i_counter_8h.html" target="_top" xlink:title=" ">
<polygon fill="white" stroke="#666666" points="1537.5,-129 1415.5,-129 1415.5,-110 1537.5,-110 1537.5,-129"/>
<text text-anchor="middle" x="1476.5" y="-117" font-family="Helvetica,sans-Serif" font-size="10.00">Kit/System/ICounter.h</text>
</a>
</g>
</g>
<!-- Node6&#45;&gt;Node7 -->
<g id="edge6_Node000006_Node000007" class="edge">
<title>Node6&#45;&gt;Node7</title>
<g id="a_edge6_Node000006_Node000007"><a xlink:title=" ">
<path fill="none" stroke="#63b8ff" d="M1489.02,-164.75C1487.04,-157.72 1484.18,-147.62 1481.69,-138.84"/>
<polygon fill="#63b8ff" stroke="#63b8ff" points="1485.02,-137.76 1478.93,-129.09 1478.29,-139.66 1485.02,-137.76"/>
</a>
</g>
</g>
<!-- Node8 -->
<g id="Node000008" class="node">
<title>Node8</title>
<g id="a_Node000008"><a xlink:href="_list_item_8h.html" target="_top" xlink:title=" ">
<polygon fill="white" stroke="#666666" points="813.5,-74 681.5,-74 681.5,-55 813.5,-55 813.5,-74"/>
<text text-anchor="middle" x="747.5" y="-62" font-family="Helvetica,sans-Serif" font-size="10.00">Kit/Container/ListItem.h</text>
</a>
</g>
</g>
<!-- Node7&#45;&gt;Node8 -->
<g id="edge7_Node000007_Node000008" class="edge">
<title>Node7&#45;&gt;Node8</title>
<g id="a_edge7_Node000007_Node000008"><a xlink:title=" ">
<path fill="none" stroke="#63b8ff" d="M1415.29,-114.05C1282.66,-104.41 969.06,-81.61 823.8,-71.05"/>
<polygon fill="#63b8ff" stroke="#63b8ff" points="823.86,-67.54 813.64,-70.31 823.36,-74.52 823.86,-67.54"/>
</a>
</g>
</g>
<!-- Node10 -->
<g id="Node000010" class="node">
<title>Node10</title>
<g id="a_Node000010"><a xlink:title=" ">
<polygon fill="#e0e0e0" stroke="#999999" points="1153,-19 1100,-19 1100,0 1153,0 1153,-19"/>
<text text-anchor="middle" x="1126.5" y="-7" font-family="Helvetica,sans-Serif" font-size="10.00">stdint.h</text>
</a>
</g>
</g>
<!-- Node7&#45;&gt;Node10 -->
<g id="edge9_Node000007_Node000010" class="edge">
<title>Node7&#45;&gt;Node10</title>
<g id="a_edge9_Node000007_Node000010"><a xlink:title=" ">
<path fill="none" stroke="#63b8ff" d="M1469.21,-109.83C1456.86,-95.78 1430.32,-68.27 1401.5,-55 1322.22,-18.5 1218.05,-11.34 1163.49,-10.3"/>
<polygon fill="#63b8ff" stroke="#63b8ff" points="1163.3,-6.8 1153.26,-10.17 1163.21,-13.8 1163.3,-6.8"/>
</a>
</g>
</g>
<!-- Node9 -->
<g id="Node000009" class="node">
<title>Node9</title>
<g id="a_Node000009"><a xlink:href="_item_8h.html" target="_top" xlink:title=" ">
<polygon fill="white" stroke="#666666" points="805,-19 690,-19 690,0 805,0 805,-19"/>
<text text-anchor="middle" x="747.5" y="-7" font-family="Helvetica,sans-Serif" font-size="10.00">Kit/Container/Item.h</text>
</a>
</g>
</g>
<!-- Node8&#45;&gt;Node9 -->
<g id="edge8_Node000008_Node000009" class="edge">
<title>Node8&#45;&gt;Node9</title>
<g id="a_edge8_Node000008_Node000009"><a xlink:title=" ">
<path fill="none" stroke="#63b8ff" d="M747.5,-54.75C747.5,-47.8 747.5,-37.85 747.5,-29.13"/>
<polygon fill="#63b8ff" stroke="#63b8ff" points="751,-29.09 747.5,-19.09 744,-29.09 751,-29.09"/>
</a>
</g>
</g>
<!-- Node12&#45;&gt;Node10 -->
<g id="edge12_Node000012_Node000010" class="edge">
<title>Node12&#45;&gt;Node10</title>
<g id="a_edge12_Node000012_Node000010"><a xlink:title=" ">
<path fill="none" stroke="#63b8ff" d="M1503.36,-54.98C1406.49,-43.55 1237.95,-23.66 1163.58,-14.88"/>
<polygon fill="#63b8ff" stroke="#63b8ff" points="1163.65,-11.36 1153.31,-13.66 1162.83,-18.31 1163.65,-11.36"/>
</a>
</g>
</g>
<!-- Node15&#45;&gt;Node4 -->
<g id="edge16_Node000015_Node000004" class="edge">
<title>Node15&#45;&gt;Node4</title>
<g id="a_edge16_Node000015_Node000004"><a xlink:title=" ">
<path fill="none" stroke="#63b8ff" d="M1100.98,-443.76C1036.06,-435.05 945.5,-410.39 945.5,-340.5 945.5,-340.5 945.5,-340.5 945.5,-283.5 945.5,-222.06 997.03,-163.59 1024.97,-136.4"/>
<polygon fill="#63b8ff" stroke="#63b8ff" points="1027.63,-138.71 1032.48,-129.29 1022.82,-133.62 1027.63,-138.71"/>
</a>
</g>
</g>
<!-- Node15&#45;&gt;Node10 -->
<g id="edge17_Node000015_Node000010" class="edge">
<title>Node15&#45;&gt;Node10</title>
<g id="a_edge17_Node000015_Node000010"><a xlink:title=" ">
<path fill="none" stroke="#63b8ff" d="M1230.01,-444.03C1295.56,-435.57 1387.5,-411.11 1387.5,-340.5 1387.5,-340.5 1387.5,-340.5 1387.5,-118.5 1387.5,-22.68 1235.46,-10.22 1163.46,-9.68"/>
<polygon fill="#63b8ff" stroke="#63b8ff" points="1163.45,-6.18 1153.45,-9.68 1163.45,-13.18 1163.45,-6.18"/>
</a>
</g>
</g>
<!-- Node16 -->
<g id="Node000016" class="node">
<title>Node16</title>
<g id="a_Node000016"><a xlink:href="_cursor_l_e_8h.html" target="_top" xlink:title=" ">
<polygon fill="white" stroke="#666666" points="1229.5,-404 1101.5,-404 1101.5,-385 1229.5,-385 1229.5,-404"/>
<text text-anchor="middle" x="1165.5" y="-392" font-family="Helvetica,sans-Serif" font-size="10.00">Kit/Memory/CursorLE.h</text>
</a>
</g>
</g>
<!-- Node15&#45;&gt;Node16 -->
<g id="edge18_Node000015_Node000016" class="edge">
<title>Node15&#45;&gt;Node16</title>
<g id="a_edge18_Node000015_Node000016"><a xlink:title=" ">
<path fill="none" stroke="#63b8ff" d="M1165.5,-439.75C1165.5,-432.8 1165.5,-422.85 1165.5,-414.13"/>
<polygon fill="#63b8ff" stroke="#63b8ff" points="1169,-414.09 1165.5,-404.09 1162,-414.09 1169,-414.09"/>
</a>
</g>
</g>
<!-- Node17 -->
<g id="Node000017" class="node">
<title>Node17</title>
<g id="a_Node000017"><a xlink:href="_cursor_base_8h.html" target="_top" xlink:title=" ">
<polygon fill="white" stroke="#666666" points="1359,-349 1218,-349 1218,-330 1359,-330 1359,-349"/>
<text text-anchor="middle" x="1288.5" y="-337" font-family="Helvetica,sans-Serif" font-size="10.00">Kit/Memory/CursorBase.h</text>
</a>
</g>
</g>
<!-- Node16&#45;&gt;Node17 -->
<g id="edge19_Node000016_Node000017" class="edge">
<title>Node16&#45;&gt;Node17</title>
<g id="a_edge19_Node000016_Node000017"><a xlink:title=" ">
<path fill="none" stroke="#63b8ff" d="M1185.26,-384.98C1205.23,-376.38 1236.3,-362.99 1259.15,-353.15"/>
<polygon fill="#63b8ff" stroke="#63b8ff" points="1260.58,-356.34 1268.38,-349.17 1257.81,-349.91 1260.58,-356.34"/>
</a>
</g>
</g>
<!-- Node20 -->
<g id="Node000020" class="node">
<title>Node20</title>
<g id="a_Node000020"><a xlink:href="endian_8h.html" target="_top" xlink:title="This file provides a set of macros/method to convert between the &#39;host&#39; platform and Big/Little endia...">
<polygon fill="white" stroke="#666666" points="1113,-349 1012,-349 1012,-330 1113,-330 1113,-349"/>
<text text-anchor="middle" x="1062.5" y="-337" font-family="Helvetica,sans-Serif" font-size="10.00">Kit/Type/endian.h</text>
</a>
</g>
</g>
<!-- Node16&#45;&gt;Node20 -->
<g id="edge23_Node000016_Node000020" class="edge">
<title>Node16&#45;&gt;Node20</title>
<g id="a_edge23_Node000016_Node000020"><a xlink:title=" ">
<path fill="none" stroke="#63b8ff" d="M1148.95,-384.98C1132.61,-376.57 1107.37,-363.59 1088.37,-353.81"/>
<polygon fill="#63b8ff" stroke="#63b8ff" points="1089.84,-350.63 1079.35,-349.17 1086.64,-356.86 1089.84,-350.63"/>
</a>
</g>
</g>
<!-- Node40 -->
<g id="Node000040" class="node">
<title>Node40</title>
<g id="a_Node000040"><a xlink:title=" ">
<polygon fill="#e0e0e0" stroke="#999999" points="1200,-349 1131,-349 1131,-330 1200,-330 1200,-349"/>
<text text-anchor="middle" x="1165.5" y="-337" font-family="Helvetica,sans-Serif" font-size="10.00">type_traits</text>
</a>
</g>
</g>
<!-- Node16&#45;&gt;Node40 -->
<g id="edge62_Node000016_Node000040" class="edge">
<title>Node16&#45;&gt;Node40</title>
<g id="a_edge62_Node000016_Node000040"><a xlink:title=" ">
<path fill="none" stroke="#63b8ff" d="M1165.5,-384.75C1165.5,-377.8 1165.5,-367.85 1165.5,-359.13"/>
<polygon fill="#63b8ff" stroke="#63b8ff" points="1169,-359.09 1165.5,-349.09 1162,-359.09 1169,-359.09"/>
</a>
</g>
</g>
<!-- Node17&#45;&gt;Node10 -->
<g id="edge21_Node000017_Node000010" class="edge">
<title>Node17&#45;&gt;Node10</title>
<g id="a_edge21_Node000017_Node000010"><a xlink:title=" ">
<path fill="none" stroke="#63b8ff" d="M1292.53,-329.72C1297.65,-317.33 1305.19,-294.09 1299.5,-275 1267.89,-168.91 1178.66,-65.77 1142.26,-26.81"/>
<polygon fill="#63b8ff" stroke="#63b8ff" points="1144.37,-23.95 1134.95,-19.1 1139.29,-28.77 1144.37,-23.95"/>
</a>
</g>
</g>
<!-- Node18 -->
<g id="Node000018" class="node">
<title>Node18</title>
<g id="a_Node000018"><a xlink:title=" ">
<polygon fill="#e0e0e0" stroke="#999999" points="1223.5,-294 1173.5,-294 1173.5,-275 1223.5,-275 1223.5,-294"/>
<text text-anchor="middle" x="1198.5" y="-282" font-family="Helvetica,sans-Serif" font-size="10.00">cstdint</text>
</a>
</g>
</g>
<!-- Node17&#45;&gt;Node18 -->
<g id="edge20_Node000017_Node000018" class="edge">
<title>Node17&#45;&gt;Node18</title>
<g id="a_edge20_Node000017_Node000018"><a xlink:title=" ">
<path fill="none" stroke="#63b8ff" d="M1274.04,-329.98C1260.08,-321.77 1238.71,-309.18 1222.25,-299.49"/>
<polygon fill="#63b8ff" stroke="#63b8ff" points="1223.62,-296.23 1213.22,-294.17 1220.06,-302.26 1223.62,-296.23"/>
</a>
</g>
</g>
<!-- Node19 -->
<g id="Node000019" class="node">
<title>Node19</title>
<g id="a_Node000019"><a xlink:title=" ">
<polygon fill="#e0e0e0" stroke="#999999" points="1291,-294 1242,-294 1242,-275 1291,-275 1291,-294"/>
<text text-anchor="middle" x="1266.5" y="-282" font-family="Helvetica,sans-Serif" font-size="10.00">cstdlib</text>
</a>
</g>
</g>
<!-- Node17&#45;&gt;Node19 -->
<g id="edge22_Node000017_Node000019" class="edge">
<title>Node17&#45;&gt;Node19</title>
<g id="a_edge22_Node000017_Node000019"><a xlink:title=" ">
<path fill="none" stroke="#63b8ff" d="M1284.87,-329.75C1281.92,-322.65 1277.67,-312.4 1273.99,-303.56"/>
<polygon fill="#63b8ff" stroke="#63b8ff" points="1277.13,-301.98 1270.07,-294.09 1270.67,-304.67 1277.13,-301.98"/>
</a>
</g>
</g>
<!-- Node20&#45;&gt;Node4 -->
<g id="edge24_Node000020_Node000004" class="edge">
<title>Node20&#45;&gt;Node4</title>
<g id="a_edge24_Node000020_Node000004"><a xlink:title=" ">
<path fill="none" stroke="#63b8ff" d="M1066.99,-329.88C1076.59,-310.33 1097.55,-261.14 1088.5,-220 1081.78,-189.45 1064.73,-157.12 1053.38,-137.88"/>
<polygon fill="#63b8ff" stroke="#63b8ff" points="1056.23,-135.83 1048.05,-129.09 1050.25,-139.46 1056.23,-135.83"/>
</a>
</g>
</g>
<!-- Node20&#45;&gt;Node10 -->
<g id="edge25_Node000020_Node000010" class="edge">
<title>Node20&#45;&gt;Node10</title>
<g id="a_edge25_Node000020_Node000010"><a xlink:title=" ">
<path fill="none" stroke="#63b8ff" d="M1075.84,-329.88C1099.3,-313.56 1145.5,-275.67 1145.5,-230.5 1145.5,-230.5 1145.5,-230.5 1145.5,-118.5 1145.5,-86.56 1137.34,-50.1 1131.72,-28.77"/>
<polygon fill="#63b8ff" stroke="#63b8ff" points="1135.08,-27.81 1129.06,-19.09 1128.33,-29.66 1135.08,-27.81"/>
</a>
</g>
</g>
<!-- Node20&#45;&gt;Node21 -->
<g id="edge26_Node000020_Node000021" class="edge">
<title>Node20&#45;&gt;Node21</title>
<g id="a_edge26_Node000020_Node000021"><a xlink:title=" ">
<path fill="none" stroke="#63b8ff" d="M1054.41,-329.75C1047.34,-322.11 1036.91,-310.82 1028.35,-301.56"/>
<polygon fill="#63b8ff" stroke="#63b8ff" points="1030.8,-299.06 1021.44,-294.09 1025.66,-303.81 1030.8,-299.06"/>
</a>
</g>
</g>
<!-- Node22 -->
<g id="Node000022" class="node">
<title>Node22</title>
<g id="a_Node000022"><a xlink:href="_model_point_base_8h.html" target="_top" xlink:title=" ">
<polygon fill="white" stroke="#666666" points="589,-239 448,-239 448,-220 589,-220 589,-239"/>
<text text-anchor="middle" x="518.5" y="-227" font-family="Helvetica,sans-Serif" font-size="10.00">Kit/Dm/ModelPointBase.h</text>
</a>
</g>
</g>
<!-- Node21&#45;&gt;Node22 -->
<g id="edge27_Node000021_Node000022" class="edge">
<title>Node21&#45;&gt;Node22</title>
<g id="a_edge27_Node000021_Node000022"><a xlink:title=" ">
<path fill="none" stroke="#63b8ff" d="M986.89,-280.65C914.66,-272.92 712.8,-251.3 599.05,-239.13"/>
<polygon fill="#63b8ff" stroke="#63b8ff" points="599.32,-235.63 589,-238.05 598.57,-242.59 599.32,-235.63"/>
</a>
</g>
</g>
<!-- Node39 -->
<g id="Node000039" class="node">
<title>Node39</title>
<g id="a_Node000039"><a xlink:href="_observer_8h.html" target="_top" xlink:title=" ">
<polygon fill="white" stroke="#666666" points="1079.5,-239 973.5,-239 973.5,-220 1079.5,-220 1079.5,-239"/>
<text text-anchor="middle" x="1026.5" y="-227" font-family="Helvetica,sans-Serif" font-size="10.00">Kit/Dm/Observer.h</text>
</a>
</g>
</g>
<!-- Node21&#45;&gt;Node39 -->
<g id="edge58_Node000021_Node000039" class="edge">
<title>Node21&#45;&gt;Node39</title>
<g id="a_edge58_Node000021_Node000039"><a xlink:title=" ">
<path fill="none" stroke="#63b8ff" d="M1015.65,-274.75C1017.37,-267.72 1019.85,-257.62 1022,-248.84"/>
<polygon fill="#63b8ff" stroke="#63b8ff" points="1025.41,-249.63 1024.39,-239.09 1018.61,-247.97 1025.41,-249.63"/>
</a>
</g>
</g>
<!-- Node22&#45;&gt;Node10 -->
<g id="edge56_Node000022_Node000010" class="edge">
<title>Node22&#45;&gt;Node10</title>
<g id="a_edge56_Node000022_Node000010"><a xlink:title=" ">
<path fill="none" stroke="#63b8ff" d="M497.14,-219.86C481.82,-212.55 461.94,-200.62 450.5,-184 431.6,-156.56 417.81,-136.12 438.5,-110 446.79,-99.53 659.33,-57.18 672.5,-55 826.41,-29.49 1012.27,-16.89 1089.78,-12.44"/>
<polygon fill="#63b8ff" stroke="#63b8ff" points="1090.2,-15.92 1099.98,-11.86 1089.8,-8.93 1090.2,-15.92"/>
</a>
</g>
</g>
<!-- Node23 -->
<g id="Node000023" class="node">
<title>Node23</title>
<g id="a_Node000023"><a xlink:href="_i_model_point_8h.html" target="_top" xlink:title=" ">
<polygon fill="white" stroke="#666666" points="847.5,-184 727.5,-184 727.5,-165 847.5,-165 847.5,-184"/>
<text text-anchor="middle" x="787.5" y="-172" font-family="Helvetica,sans-Serif" font-size="10.00">Kit/Dm/IModelPoint.h</text>
</a>
</g>
</g>
<!-- Node22&#45;&gt;Node23 -->
<g id="edge28_Node000022_Node000023" class="edge">
<title>Node22&#45;&gt;Node23</title>
<g id="a_edge28_Node000022_Node000023"><a xlink:title=" ">
<path fill="none" stroke="#63b8ff" d="M561.72,-219.98C608.54,-210.76 683.31,-196.03 733.86,-186.07"/>
<polygon fill="#63b8ff" stroke="#63b8ff" points="734.81,-189.45 743.94,-184.08 733.45,-182.58 734.81,-189.45"/>
</a>
</g>
</g>
<!-- Node26 -->
<g id="Node000026" class="node">
<title>Node26</title>
<g id="a_Node000026"><a xlink:title=" ">
<polygon fill="#e0e0e0" stroke="#999999" points="53,-19 0,-19 0,0 53,0 53,-19"/>
<text text-anchor="middle" x="26.5" y="-7" font-family="Helvetica,sans-Serif" font-size="10.00">stdlib.h</text>
</a>
</g>
</g>
<!-- Node22&#45;&gt;Node26 -->
<g id="edge57_Node000022_Node000026" class="edge">
<title>Node22&#45;&gt;Node26</title>
<g id="a_edge57_Node000022_Node000026"><a xlink:title=" ">
<path fill="none" stroke="#63b8ff" d="M447.7,-225.25C323.18,-217.85 73.22,-194.96 21.5,-129 -1.18,-100.08 10.2,-53.88 19.17,-28.55"/>
<polygon fill="#63b8ff" stroke="#63b8ff" points="22.48,-29.68 22.76,-19.09 15.94,-27.2 22.48,-29.68"/>
</a>
</g>
</g>
<!-- Node31 -->
<g id="Node000031" class="node">
<title>Node31</title>
<g id="a_Node000031"><a xlink:href="_i_observer_8h.html" target="_top" xlink:title=" ">
<polygon fill="white" stroke="#666666" points="988,-129 879,-129 879,-110 988,-110 988,-129"/>
<text text-anchor="middle" x="933.5" y="-117" font-family="Helvetica,sans-Serif" font-size="10.00">Kit/Dm/IObserver.h</text>
</a>
</g>
</g>
<!-- Node22&#45;&gt;Node31 -->
<g id="edge52_Node000022_Node000031" class="edge">
<title>Node22&#45;&gt;Node31</title>
<g id="a_edge52_Node000022_Node000031"><a xlink:title=" ">
<path fill="none" stroke="#63b8ff" d="M589.08,-223.8C673.69,-217.37 809.89,-204.27 856.5,-184 881.44,-173.15 904.74,-151.74 919.04,-136.79"/>
<polygon fill="#63b8ff" stroke="#63b8ff" points="921.78,-138.98 926.01,-129.26 916.64,-134.22 921.78,-138.98"/>
</a>
</g>
</g>
<!-- Node34 -->
<g id="Node000034" class="node">
<title>Node34</title>
<g id="a_Node000034"><a xlink:href="_i_model_database_8h.html" target="_top" xlink:title=" ">
<polygon fill="white" stroke="#666666" points="396.5,-184 254.5,-184 254.5,-165 396.5,-165 396.5,-184"/>
<text text-anchor="middle" x="325.5" y="-172" font-family="Helvetica,sans-Serif" font-size="10.00">Kit/Dm/IModelDatabase.h</text>
</a>
</g>
</g>
<!-- Node22&#45;&gt;Node34 -->
<g id="edge45_Node000022_Node000034" class="edge">
<title>Node22&#45;&gt;Node34</title>
<g id="a_edge45_Node000022_Node000034"><a xlink:title=" ">
<path fill="none" stroke="#63b8ff" d="M487.49,-219.98C454.67,-210.97 402.7,-196.7 366.51,-186.76"/>
<polygon fill="#63b8ff" stroke="#63b8ff" points="367.32,-183.36 356.75,-184.08 365.47,-190.11 367.32,-183.36"/>
</a>
</g>
</g>
<!-- Node37 -->
<g id="Node000037" class="node">
<title>Node37</title>
<g id="a_Node000037"><a xlink:href="_d_list_8h.html" target="_top" xlink:title=" ">
<polygon fill="white" stroke="#666666" points="577,-184 460,-184 460,-165 577,-165 577,-184"/>
<text text-anchor="middle" x="518.5" y="-172" font-family="Helvetica,sans-Serif" font-size="10.00">Kit/Container/DList.h</text>
</a>
</g>
</g>
<!-- Node22&#45;&gt;Node37 -->
<g id="edge53_Node000022_Node000037" class="edge">
<title>Node22&#45;&gt;Node37</title>
<g id="a_edge53_Node000022_Node000037"><a xlink:title=" ">
<path fill="none" stroke="#63b8ff" d="M518.5,-219.75C518.5,-212.8 518.5,-202.85 518.5,-194.13"/>
<polygon fill="#63b8ff" stroke="#63b8ff" points="522,-194.09 518.5,-184.09 515,-194.09 522,-194.09"/>
</a>
</g>
</g>
<!-- Node23&#45;&gt;Node4 -->
<g id="edge29_Node000023_Node000004" class="edge">
<title>Node23&#45;&gt;Node4</title>
<g id="a_edge29_Node000023_Node000004"><a xlink:title=" ">
<path fill="none" stroke="#63b8ff" d="M828.47,-164.98C874.21,-155.48 948.08,-140.12 995.97,-130.17"/>
<polygon fill="#63b8ff" stroke="#63b8ff" points="996.69,-133.6 1005.77,-128.13 995.27,-126.74 996.69,-133.6"/>
</a>
</g>
</g>
<!-- Node23&#45;&gt;Node8 -->
<g id="edge30_Node000023_Node000008" class="edge">
<title>Node23&#45;&gt;Node8</title>
<g id="a_edge30_Node000023_Node000008"><a xlink:title=" ">
<path fill="none" stroke="#63b8ff" d="M780.05,-164.95C773.05,-156.44 762.89,-142.7 757.5,-129 751.81,-114.54 749.35,-97.03 748.29,-84.06"/>
<polygon fill="#63b8ff" stroke="#63b8ff" points="751.78,-83.79 747.68,-74.02 744.8,-84.22 751.78,-83.79"/>
</a>
</g>
</g>
<!-- Node23&#45;&gt;Node10 -->
<g id="edge44_Node000023_Node000010" class="edge">
<title>Node23&#45;&gt;Node10</title>
<g id="a_edge44_Node000023_Node000010"><a xlink:title=" ">
<path fill="none" stroke="#63b8ff" d="M796.94,-164.69C811.56,-151.41 840.97,-126.12 869.5,-110 943.71,-68.09 1039.07,-36.33 1090.22,-20.88"/>
<polygon fill="#63b8ff" stroke="#63b8ff" points="1091.26,-24.23 1099.84,-18.02 1089.26,-17.52 1091.26,-24.23"/>
</a>
</g>
</g>
<!-- Node24 -->
<g id="Node000024" class="node">
<title>Node24</title>
<g id="a_Node000024"><a xlink:href="_i_string_8h.html" target="_top" xlink:title=" ">
<polygon fill="white" stroke="#666666" points="380,-129 283,-129 283,-110 380,-110 380,-129"/>
<text text-anchor="middle" x="331.5" y="-117" font-family="Helvetica,sans-Serif" font-size="10.00">Kit/Text/IString.h</text>
</a>
</g>
</g>
<!-- Node23&#45;&gt;Node24 -->
<g id="edge31_Node000023_Node000024" class="edge">
<title>Node23&#45;&gt;Node24</title>
<g id="a_edge31_Node000023_Node000024"><a xlink:title=" ">
<path fill="none" stroke="#63b8ff" d="M727.42,-166.52C639.6,-156.31 477.2,-137.43 390.18,-127.32"/>
<polygon fill="#63b8ff" stroke="#63b8ff" points="390.55,-123.84 380.21,-126.16 389.74,-130.79 390.55,-123.84"/>
</a>
</g>
</g>
<!-- Node23&#45;&gt;Node31 -->
<g id="edge39_Node000023_Node000031" class="edge">
<title>Node23&#45;&gt;Node31</title>
<g id="a_edge39_Node000023_Node000031"><a xlink:title=" ">
<path fill="none" stroke="#63b8ff" d="M810.96,-164.98C835.08,-156.23 872.87,-142.51 900.1,-132.62"/>
<polygon fill="#63b8ff" stroke="#63b8ff" points="901.41,-135.87 909.62,-129.17 899.02,-129.29 901.41,-135.87"/>
</a>
</g>
</g>
<!-- Node32 -->
<g id="Node000032" class="node">
<title>Node32</title>
<g id="a_Node000032"><a xlink:href="_arduino_8h_source.html" target="_top" xlink:title=" ">
<polygon fill="white" stroke="#666666" points="710,-129 607,-129 607,-110 710,-110 710,-129"/>
<text text-anchor="middle" x="658.5" y="-117" font-family="Helvetica,sans-Serif" font-size="10.00">Kit/Json/Arduino.h</text>
</a>
</g>
</g>
<!-- Node23&#45;&gt;Node32 -->
<g id="edge42_Node000023_Node000032" class="edge">
<title>Node23&#45;&gt;Node32</title>
<g id="a_edge42_Node000023_Node000032"><a xlink:title=" ">
<path fill="none" stroke="#63b8ff" d="M766.77,-164.98C745.74,-156.34 712.95,-142.87 688.96,-133.02"/>
<polygon fill="#63b8ff" stroke="#63b8ff" points="690.18,-129.73 679.6,-129.17 687.52,-136.21 690.18,-129.73"/>
</a>
</g>
</g>
<!-- Node33 -->
<g id="Node000033" class="node">
<title>Node33</title>
<g id="a_Node000033"><a xlink:title=" ">
<polygon fill="#e0e0e0" stroke="#999999" points="822.5,-129 766.5,-129 766.5,-110 822.5,-110 822.5,-129"/>
<text text-anchor="middle" x="794.5" y="-117" font-family="Helvetica,sans-Serif" font-size="10.00">stddef.h</text>
</a>
</g>
</g>
<!-- Node23&#45;&gt;Node33 -->
<g id="edge43_Node000023_Node000033" class="edge">
<title>Node23&#45;&gt;Node33</title>
<g id="a_edge43_Node000023_Node000033"><a xlink:title=" ">
<path fill="none" stroke="#63b8ff" d="M788.66,-164.75C789.57,-157.8 790.89,-147.85 792.04,-139.13"/>
<polygon fill="#63b8ff" stroke="#63b8ff" points="795.53,-139.46 793.37,-129.09 788.59,-138.54 795.53,-139.46"/>
</a>
</g>
</g>
<!-- Node25 -->
<g id="Node000025" class="node">
<title>Node25</title>
<g id="a_Node000025"><a xlink:href="_key_8h.html" target="_top" xlink:title=" ">
<polygon fill="white" stroke="#666666" points="247,-74 138,-74 138,-55 247,-55 247,-74"/>
<text text-anchor="middle" x="192.5" y="-62" font-family="Helvetica,sans-Serif" font-size="10.00">Kit/Container/Key.h</text>
</a>
</g>
</g>
<!-- Node24&#45;&gt;Node25 -->
<g id="edge32_Node000024_Node000025" class="edge">
<title>Node24&#45;&gt;Node25</title>
<g id="a_edge32_Node000024_Node000025"><a xlink:title=" ">
<path fill="none" stroke="#63b8ff" d="M309.17,-109.98C286.3,-101.27 250.54,-87.63 224.64,-77.75"/>
<polygon fill="#63b8ff" stroke="#63b8ff" points="225.83,-74.46 215.24,-74.17 223.34,-81 225.83,-74.46"/>
</a>
</g>
</g>
<!-- Node28 -->
<g id="Node000028" class="node">
<title>Node28</title>
<g id="a_Node000028"><a xlink:href="printfchecker_8h.html" target="_top" xlink:title="This file contains macro that enables the GCC (and Clang) compiler to validate printf flags with thei...">
<polygon fill="white" stroke="#666666" points="563,-74 418,-74 418,-55 563,-55 563,-74"/>
<text text-anchor="middle" x="490.5" y="-62" font-family="Helvetica,sans-Serif" font-size="10.00">Kit/System/printfchecker.h</text>
</a>
</g>
</g>
<!-- Node24&#45;&gt;Node28 -->
<g id="edge36_Node000024_Node000028" class="edge">
<title>Node24&#45;&gt;Node28</title>
<g id="a_edge36_Node000024_Node000028"><a xlink:title=" ">
<path fill="none" stroke="#63b8ff" d="M357.05,-109.98C383.62,-101.13 425.44,-87.19 455.17,-77.28"/>
<polygon fill="#63b8ff" stroke="#63b8ff" points="456.37,-80.56 464.75,-74.08 454.16,-73.92 456.37,-80.56"/>
</a>
</g>
</g>
<!-- Node29 -->
<g id="Node000029" class="node">
<title>Node29</title>
<g id="a_Node000029"><a xlink:title=" ">
<polygon fill="#e0e0e0" stroke="#999999" points="321.5,-74 265.5,-74 265.5,-55 321.5,-55 321.5,-74"/>
<text text-anchor="middle" x="293.5" y="-62" font-family="Helvetica,sans-Serif" font-size="10.00">stdarg.h</text>
</a>
</g>
</g>
<!-- Node24&#45;&gt;Node29 -->
<g id="edge37_Node000024_Node000029" class="edge">
<title>Node24&#45;&gt;Node29</title>
<g id="a_edge37_Node000024_Node000029"><a xlink:title=" ">
<path fill="none" stroke="#63b8ff" d="M325.23,-109.75C319.91,-102.34 312.14,-91.5 305.62,-82.41"/>
<polygon fill="#63b8ff" stroke="#63b8ff" points="308.33,-80.18 299.66,-74.09 302.64,-84.26 308.33,-80.18"/>
</a>
</g>
</g>
<!-- Node30 -->
<g id="Node000030" class="node">
<title>Node30</title>
<g id="a_Node000030"><a xlink:title=" ">
<polygon fill="#e0e0e0" stroke="#999999" points="399.5,-74 339.5,-74 339.5,-55 399.5,-55 399.5,-74"/>
<text text-anchor="middle" x="369.5" y="-62" font-family="Helvetica,sans-Serif" font-size="10.00">iostream</text>
</a>
</g>
</g>
<!-- Node24&#45;&gt;Node30 -->
<g id="edge38_Node000024_Node000030" class="edge">
<title>Node24&#45;&gt;Node30</title>
<g id="a_edge38_Node000024_Node000030"><a xlink:title=" ">
<path fill="none" stroke="#63b8ff" d="M337.77,-109.75C343.09,-102.34 350.86,-91.5 357.38,-82.41"/>
<polygon fill="#63b8ff" stroke="#63b8ff" points="360.36,-84.26 363.34,-74.09 354.67,-80.18 360.36,-84.26"/>
</a>
</g>
</g>
<!-- Node25&#45;&gt;Node10 -->
<g id="edge33_Node000025_Node000010" class="edge">
<title>Node25&#45;&gt;Node10</title>
<g id="a_edge33_Node000025_Node000010"><a xlink:title=" ">
<path fill="none" stroke="#63b8ff" d="M247.28,-55.93C250.4,-55.59 253.49,-55.28 256.5,-55 578.49,-25.43 969.46,-14.21 1089.62,-11.32"/>
<polygon fill="#63b8ff" stroke="#63b8ff" points="1089.83,-14.81 1099.75,-11.08 1089.67,-7.82 1089.83,-14.81"/>
</a>
</g>
</g>
<!-- Node25&#45;&gt;Node26 -->
<g id="edge34_Node000025_Node000026" class="edge">
<title>Node25&#45;&gt;Node26</title>
<g id="a_edge34_Node000025_Node000026"><a xlink:title=" ">
<path fill="none" stroke="#63b8ff" d="M165.83,-54.98C137.88,-46.06 93.79,-31.98 62.7,-22.06"/>
<polygon fill="#63b8ff" stroke="#63b8ff" points="63.7,-18.7 53.1,-18.99 61.57,-25.37 63.7,-18.7"/>
</a>
</g>
</g>
<!-- Node27 -->
<g id="Node000027" class="node">
<title>Node27</title>
<g id="a_Node000027"><a xlink:title=" ">
<polygon fill="#e0e0e0" stroke="#999999" points="219,-19 166,-19 166,0 219,0 219,-19"/>
<text text-anchor="middle" x="192.5" y="-7" font-family="Helvetica,sans-Serif" font-size="10.00">limits.h</text>
</a>
</g>
</g>
<!-- Node25&#45;&gt;Node27 -->
<g id="edge35_Node000025_Node000027" class="edge">
<title>Node25&#45;&gt;Node27</title>
<g id="a_edge35_Node000025_Node000027"><a xlink:title=" ">
<path fill="none" stroke="#63b8ff" d="M192.5,-54.75C192.5,-47.8 192.5,-37.85 192.5,-29.13"/>
<polygon fill="#63b8ff" stroke="#63b8ff" points="196,-29.09 192.5,-19.09 189,-29.09 196,-29.09"/>
</a>
</g>
</g>
<!-- Node31&#45;&gt;Node8 -->
<g id="edge40_Node000031_Node000008" class="edge">
<title>Node31&#45;&gt;Node8</title>
<g id="a_edge40_Node000031_Node000008"><a xlink:title=" ">
<path fill="none" stroke="#63b8ff" d="M903.62,-109.98C872.12,-101.01 822.33,-86.82 787.47,-76.89"/>
<polygon fill="#63b8ff" stroke="#63b8ff" points="788.19,-73.46 777.62,-74.08 786.28,-80.19 788.19,-73.46"/>
</a>
</g>
</g>
<!-- Node31&#45;&gt;Node10 -->
<g id="edge41_Node000031_Node000010" class="edge">
<title>Node31&#45;&gt;Node10</title>
<g id="a_edge41_Node000031_Node000010"><a xlink:title=" ">
<path fill="none" stroke="#63b8ff" d="M948.97,-109.84C982.51,-91.08 1062.13,-46.52 1102.36,-24.01"/>
<polygon fill="#63b8ff" stroke="#63b8ff" points="1104.21,-26.98 1111.23,-19.05 1100.79,-20.88 1104.21,-26.98"/>
</a>
</g>
</g>
<!-- Node34&#45;&gt;Node4 -->
<g id="edge46_Node000034_Node000004" class="edge">
<title>Node34&#45;&gt;Node4</title>
<g id="a_edge46_Node000034_Node000004"><a xlink:title=" ">
<path fill="none" stroke="#63b8ff" d="M396.56,-168.64C414.19,-167.44 433.03,-166.17 450.5,-165 689.83,-148.97 753.45,-158.87 995.72,-128.93"/>
<polygon fill="#63b8ff" stroke="#63b8ff" points="996.41,-132.37 1005.9,-127.66 995.55,-125.42 996.41,-132.37"/>
</a>
</g>
</g>
<!-- Node34&#45;&gt;Node24 -->
<g id="edge47_Node000034_Node000024" class="edge">
<title>Node34&#45;&gt;Node24</title>
<g id="a_edge47_Node000034_Node000024"><a xlink:title=" ">
<path fill="none" stroke="#63b8ff" d="M326.49,-164.75C327.28,-157.8 328.4,-147.85 329.39,-139.13"/>
<polygon fill="#63b8ff" stroke="#63b8ff" points="332.88,-139.42 330.53,-129.09 325.92,-138.63 332.88,-139.42"/>
</a>
</g>
</g>
<!-- Node34&#45;&gt;Node32 -->
<g id="edge51_Node000034_Node000032" class="edge">
<title>Node34&#45;&gt;Node32</title>
<g id="a_edge51_Node000034_Node000032"><a xlink:title=" ">
<path fill="none" stroke="#63b8ff" d="M379,-164.98C438.39,-155.53 534.09,-140.3 596.65,-130.34"/>
<polygon fill="#63b8ff" stroke="#63b8ff" points="597.45,-133.76 606.77,-128.73 596.35,-126.85 597.45,-133.76"/>
</a>
</g>
</g>
<!-- Node35 -->
<g id="Node000035" class="node">
<title>Node35</title>
<g id="a_Node000035"><a xlink:href="_mutex_8h.html" target="_top" xlink:title=" ">
<polygon fill="white" stroke="#666666" points="144,-129 31,-129 31,-110 144,-110 144,-129"/>
<text text-anchor="middle" x="87.5" y="-117" font-family="Helvetica,sans-Serif" font-size="10.00">Kit/System/Mutex.h</text>
</a>
</g>
</g>
<!-- Node34&#45;&gt;Node35 -->
<g id="edge48_Node000034_Node000035" class="edge">
<title>Node34&#45;&gt;Node35</title>
<g id="a_edge48_Node000034_Node000035"><a xlink:title=" ">
<path fill="none" stroke="#63b8ff" d="M287.26,-164.98C246.09,-155.82 180.51,-141.21 135.8,-131.26"/>
<polygon fill="#63b8ff" stroke="#63b8ff" points="136.56,-127.84 126.04,-129.08 135.04,-134.67 136.56,-127.84"/>
</a>
</g>
</g>
<!-- Node35&#45;&gt;Node26 -->
<g id="edge49_Node000035_Node000026" class="edge">
<title>Node35&#45;&gt;Node26</title>
<g id="a_edge49_Node000035_Node000026"><a xlink:title=" ">
<path fill="none" stroke="#63b8ff" d="M76.71,-109.68C67.22,-101.39 53.68,-88.17 45.5,-74 37.49,-60.13 32.57,-42.56 29.75,-29.43"/>
<polygon fill="#63b8ff" stroke="#63b8ff" points="33.12,-28.38 27.79,-19.22 26.24,-29.71 33.12,-28.38"/>
</a>
</g>
</g>
<!-- Node36 -->
<g id="Node000036" class="node">
<title>Node36</title>
<g id="a_Node000036"><a xlink:title=" ">
<polygon fill="#e0e0e0" stroke="#999999" points="120,-74 55,-74 55,-55 120,-55 120,-74"/>
<text text-anchor="middle" x="87.5" y="-62" font-family="Helvetica,sans-Serif" font-size="10.00">kit_map.h</text>
</a>
</g>
</g>
<!-- Node35&#45;&gt;Node36 -->
<g id="edge50_Node000035_Node000036" class="edge">
<title>Node35&#45;&gt;Node36</title>
<g id="a_edge50_Node000035_Node000036"><a xlink:title=" ">
<path fill="none" stroke="#63b8ff" d="M87.5,-109.75C87.5,-102.8 87.5,-92.85 87.5,-84.13"/>
<polygon fill="#63b8ff" stroke="#63b8ff" points="91,-84.09 87.5,-74.09 84,-84.09 91,-84.09"/>
</a>
</g>
</g>
<!-- Node38 -->
<g id="Node000038" class="node">
<title>Node38</title>
<g id="a_Node000038"><a xlink:href="_d_list_base_8h.html" target="_top" xlink:title=" ">
<polygon fill="white" stroke="#666666" points="589,-129 448,-129 448,-110 589,-110 589,-129"/>
<text text-anchor="middle" x="518.5" y="-117" font-family="Helvetica,sans-Serif" font-size="10.00">Kit/Container/DListBase.h</text>
</a>
</g>
</g>
<!-- Node37&#45;&gt;Node38 -->
<g id="edge54_Node000037_Node000038" class="edge">
<title>Node37&#45;&gt;Node38</title>
<g id="a_edge54_Node000037_Node000038"><a xlink:title=" ">
<path fill="none" stroke="#63b8ff" d="M518.5,-164.75C518.5,-157.8 518.5,-147.85 518.5,-139.13"/>
<polygon fill="#63b8ff" stroke="#63b8ff" points="522,-139.09 518.5,-129.09 515,-139.09 522,-139.09"/>
</a>
</g>
</g>
<!-- Node38&#45;&gt;Node8 -->
<g id="edge55_Node000038_Node000008" class="edge">
<title>Node38&#45;&gt;Node8</title>
<g id="a_edge55_Node000038_Node000008"><a xlink:title=" ">
<path fill="none" stroke="#63b8ff" d="M555.29,-109.98C594.74,-100.86 657.48,-86.33 700.48,-76.38"/>
<polygon fill="#63b8ff" stroke="#63b8ff" points="701.47,-79.75 710.42,-74.08 699.89,-72.93 701.47,-79.75"/>
</a>
</g>
</g>
<!-- Node39&#45;&gt;Node10 -->
<g id="edge61_Node000039_Node000010" class="edge">
<title>Node39&#45;&gt;Node10</title>
<g id="a_edge61_Node000039_Node000010"><a xlink:title=" ">
<path fill="none" stroke="#63b8ff" d="M1032.78,-219.83C1044.74,-203.02 1071.06,-164.48 1087.5,-129 1103.3,-94.9 1115.6,-52.59 1121.88,-28.86"/>
<polygon fill="#63b8ff" stroke="#63b8ff" points="1125.3,-29.65 1124.41,-19.09 1118.52,-27.9 1125.3,-29.65"/>
</a>
</g>
</g>
<!-- Node39&#45;&gt;Node23 -->
<g id="edge60_Node000039_Node000023" class="edge">
<title>Node39&#45;&gt;Node23</title>
<g id="a_edge60_Node000039_Node000023"><a xlink:title=" ">
<path fill="none" stroke="#63b8ff" d="M988.1,-219.98C946.76,-210.82 880.9,-196.21 836.01,-186.26"/>
<polygon fill="#63b8ff" stroke="#63b8ff" points="836.72,-182.83 826.2,-184.08 835.21,-189.66 836.72,-182.83"/>
</a>
</g>
</g>
<!-- Node39&#45;&gt;Node31 -->
<g id="edge59_Node000039_Node000031" class="edge">
<title>Node39&#45;&gt;Node31</title>
<g id="a_edge59_Node000039_Node000031"><a xlink:title=" ">
<path fill="none" stroke="#63b8ff" d="M1018.89,-219.66C1003.28,-201.54 967.44,-159.91 947.51,-136.77"/>
<polygon fill="#63b8ff" stroke="#63b8ff" points="950.13,-134.45 940.96,-129.16 944.83,-139.02 950.13,-134.45"/>
</a>
</g>
</g>
</g>
</svg>
