<?xml version="1.0" encoding="UTF-8" standalone="no"?>
<!DOCTYPE svg PUBLIC "-//W3C//DTD SVG 1.1//EN"
 "http://www.w3.org/Graphics/SVG/1.1/DTD/svg11.dtd">
<!-- Generated by graphviz version 2.43.0 (0)
 -->
<!-- Title: Kit/System/Posix/Thread.h Pages: 1 -->
<svg width="1411pt" height="412pt"
 viewBox="0.00 0.00 1410.50 412.00" xmlns="http://www.w3.org/2000/svg" xmlns:xlink="http://www.w3.org/1999/xlink">
<g id="graph0" class="graph" transform="scale(1 1) rotate(0) translate(4 408)">
<title>Kit/System/Posix/Thread.h</title>
<!-- Node1 -->
<g id="Node000001" class="node">
<title>Node1</title>
<g id="a_Node000001"><a xlink:title=" ">
<polygon fill="#999999" stroke="#666666" points="1286.5,-404 1141.5,-404 1141.5,-385 1286.5,-385 1286.5,-404"/>
<text text-anchor="middle" x="1214" y="-392" font-family="Helvetica,sans-Serif" font-size="10.00">Kit/System/Posix/Thread.h</text>
</a>
</g>
</g>
<!-- Node2 -->
<g id="Node000002" class="node">
<title>Node2</title>
<g id="a_Node000002"><a xlink:title=" ">
<polygon fill="#e0e0e0" stroke="#999999" points="1185.5,-129 1112.5,-129 1112.5,-110 1185.5,-110 1185.5,-129"/>
<text text-anchor="middle" x="1149" y="-117" font-family="Helvetica,sans-Serif" font-size="10.00">kit_config.h</text>
</a>
</g>
</g>
<!-- Node1&#45;&gt;Node2 -->
<g id="edge1_Node000001_Node000002" class="edge">
<title>Node1&#45;&gt;Node2</title>
<g id="a_edge1_Node000001_Node000002"><a xlink:title=" ">
<path fill="none" stroke="#63b8ff" d="M1243.5,-384.97C1260.94,-378.24 1281.59,-366.93 1292,-349 1308.52,-320.56 1304,-305.62 1292,-275 1267.28,-211.9 1203.34,-159.15 1169.97,-134.86"/>
<polygon fill="#63b8ff" stroke="#63b8ff" points="1171.98,-132 1161.81,-129.05 1167.92,-137.7 1171.98,-132"/>
</a>
</g>
</g>
<!-- Node3 -->
<g id="Node000003" class="node">
<title>Node3</title>
<g id="a_Node000003"><a xlink:href="_thread_8h.html" target="_top" xlink:title=" ">
<polygon fill="white" stroke="#666666" points="1053,-349 937,-349 937,-330 1053,-330 1053,-349"/>
<text text-anchor="middle" x="995" y="-337" font-family="Helvetica,sans-Serif" font-size="10.00">Kit/System/Thread.h</text>
</a>
</g>
</g>
<!-- Node1&#45;&gt;Node3 -->
<g id="edge2_Node000001_Node000003" class="edge">
<title>Node1&#45;&gt;Node3</title>
<g id="a_edge2_Node000001_Node000003"><a xlink:title=" ">
<path fill="none" stroke="#63b8ff" d="M1178.81,-384.98C1141.17,-375.87 1081.34,-361.4 1040.23,-351.45"/>
<polygon fill="#63b8ff" stroke="#63b8ff" points="1041,-348.03 1030.46,-349.08 1039.36,-354.84 1041,-348.03"/>
</a>
</g>
</g>
<!-- Node31 -->
<g id="Node000031" class="node">
<title>Node31</title>
<g id="a_Node000031"><a xlink:href="_semaphore_8h.html" target="_top" xlink:title=" ">
<polygon fill="white" stroke="#666666" points="1282.5,-349 1145.5,-349 1145.5,-330 1282.5,-330 1282.5,-349"/>
<text text-anchor="middle" x="1214" y="-337" font-family="Helvetica,sans-Serif" font-size="10.00">Kit/System/Semaphore.h</text>
</a>
</g>
</g>
<!-- Node1&#45;&gt;Node31 -->
<g id="edge51_Node000001_Node000031" class="edge">
<title>Node1&#45;&gt;Node31</title>
<g id="a_edge51_Node000001_Node000031"><a xlink:title=" ">
<path fill="none" stroke="#63b8ff" d="M1214,-384.75C1214,-377.8 1214,-367.85 1214,-359.13"/>
<polygon fill="#63b8ff" stroke="#63b8ff" points="1217.5,-359.09 1214,-349.09 1210.5,-359.09 1217.5,-359.09"/>
</a>
</g>
</g>
<!-- Node32 -->
<g id="Node000032" class="node">
<title>Node32</title>
<g id="a_Node000032"><a xlink:href="_f_string_8h.html" target="_top" xlink:title=" ">
<polygon fill="white" stroke="#666666" points="889.5,-349 790.5,-349 790.5,-330 889.5,-330 889.5,-349"/>
<text text-anchor="middle" x="840" y="-337" font-family="Helvetica,sans-Serif" font-size="10.00">Kit/Text/FString.h</text>
</a>
</g>
</g>
<!-- Node1&#45;&gt;Node32 -->
<g id="edge54_Node000001_Node000032" class="edge">
<title>Node1&#45;&gt;Node32</title>
<g id="a_edge54_Node000001_Node000032"><a xlink:title=" ">
<path fill="none" stroke="#63b8ff" d="M1153.91,-384.98C1084.04,-375.08 969.43,-358.84 899.72,-348.96"/>
<polygon fill="#63b8ff" stroke="#63b8ff" points="900.16,-345.49 889.77,-347.55 899.18,-352.42 900.16,-345.49"/>
</a>
</g>
</g>
<!-- Node35 -->
<g id="Node000035" class="node">
<title>Node35</title>
<g id="a_Node000035"><a xlink:title=" ">
<polygon fill="#e0e0e0" stroke="#999999" points="1402.5,-349 1339.5,-349 1339.5,-330 1402.5,-330 1402.5,-349"/>
<text text-anchor="middle" x="1371" y="-337" font-family="Helvetica,sans-Serif" font-size="10.00">pthread.h</text>
</a>
</g>
</g>
<!-- Node1&#45;&gt;Node35 -->
<g id="edge58_Node000001_Node000035" class="edge">
<title>Node1&#45;&gt;Node35</title>
<g id="a_edge58_Node000001_Node000035"><a xlink:title=" ">
<path fill="none" stroke="#63b8ff" d="M1239.22,-384.98C1265.36,-376.16 1306.4,-362.31 1335.73,-352.41"/>
<polygon fill="#63b8ff" stroke="#63b8ff" points="1337.22,-355.6 1345.58,-349.08 1334.98,-348.96 1337.22,-355.6"/>
</a>
</g>
</g>
<!-- Node3&#45;&gt;Node2 -->
<g id="edge3_Node000003_Node000002" class="edge">
<title>Node3&#45;&gt;Node2</title>
<g id="a_edge3_Node000003_Node000002"><a xlink:title=" ">
<path fill="none" stroke="#63b8ff" d="M1016.16,-329.94C1032.38,-322.48 1054.39,-310.3 1069,-294 1111.36,-246.73 1135.1,-173.18 1144.38,-139.05"/>
<polygon fill="#63b8ff" stroke="#63b8ff" points="1147.84,-139.65 1146.98,-129.09 1141.07,-137.88 1147.84,-139.65"/>
</a>
</g>
</g>
<!-- Node4 -->
<g id="Node000004" class="node">
<title>Node4</title>
<g id="a_Node000004"><a xlink:title=" ">
<polygon fill="#e0e0e0" stroke="#999999" points="1246.5,-74 1181.5,-74 1181.5,-55 1246.5,-55 1246.5,-74"/>
<text text-anchor="middle" x="1214" y="-62" font-family="Helvetica,sans-Serif" font-size="10.00">kit_map.h</text>
</a>
</g>
</g>
<!-- Node3&#45;&gt;Node4 -->
<g id="edge4_Node000003_Node000004" class="edge">
<title>Node3&#45;&gt;Node4</title>
<g id="a_edge4_Node000003_Node000004"><a xlink:title=" ">
<path fill="none" stroke="#63b8ff" d="M1024.4,-329.86C1044.82,-322.74 1071.72,-311.02 1091,-294 1155.8,-236.78 1157.84,-207.52 1194,-129 1200.66,-114.55 1205.94,-97.27 1209.4,-84.39"/>
<polygon fill="#63b8ff" stroke="#63b8ff" points="1212.87,-84.94 1211.96,-74.39 1206.09,-83.21 1212.87,-84.94"/>
</a>
</g>
</g>
<!-- Node5 -->
<g id="Node000005" class="node">
<title>Node5</title>
<g id="a_Node000005"><a xlink:href="_i_runnable_8h.html" target="_top" xlink:title=" ">
<polygon fill="white" stroke="#666666" points="1060.5,-294 929.5,-294 929.5,-275 1060.5,-275 1060.5,-294"/>
<text text-anchor="middle" x="995" y="-282" font-family="Helvetica,sans-Serif" font-size="10.00">Kit/System/IRunnable.h</text>
</a>
</g>
</g>
<!-- Node3&#45;&gt;Node5 -->
<g id="edge5_Node000003_Node000005" class="edge">
<title>Node3&#45;&gt;Node5</title>
<g id="a_edge5_Node000003_Node000005"><a xlink:title=" ">
<path fill="none" stroke="#63b8ff" d="M995,-329.75C995,-322.8 995,-312.85 995,-304.13"/>
<polygon fill="#63b8ff" stroke="#63b8ff" points="998.5,-304.09 995,-294.09 991.5,-304.09 998.5,-304.09"/>
</a>
</g>
</g>
<!-- Node6 -->
<g id="Node000006" class="node">
<title>Node6</title>
<g id="a_Node000006"><a xlink:href="_i_signable_8h.html" target="_top" xlink:title=" ">
<polygon fill="white" stroke="#666666" points="1282.5,-294 1155.5,-294 1155.5,-275 1282.5,-275 1282.5,-294"/>
<text text-anchor="middle" x="1219" y="-282" font-family="Helvetica,sans-Serif" font-size="10.00">Kit/System/ISignable.h</text>
</a>
</g>
</g>
<!-- Node3&#45;&gt;Node6 -->
<g id="edge6_Node000003_Node000006" class="edge">
<title>Node3&#45;&gt;Node6</title>
<g id="a_edge6_Node000003_Node000006"><a xlink:title=" ">
<path fill="none" stroke="#63b8ff" d="M1030.99,-329.98C1069.49,-320.87 1130.69,-306.4 1172.74,-296.45"/>
<polygon fill="#63b8ff" stroke="#63b8ff" points="1173.8,-299.79 1182.73,-294.08 1172.19,-292.98 1173.8,-299.79"/>
</a>
</g>
</g>
<!-- Node7 -->
<g id="Node000007" class="node">
<title>Node7</title>
<g id="a_Node000007"><a xlink:href="_tls_8h.html" target="_top" xlink:title=" ">
<polygon fill="white" stroke="#666666" points="1094,-184 998,-184 998,-165 1094,-165 1094,-184"/>
<text text-anchor="middle" x="1046" y="-172" font-family="Helvetica,sans-Serif" font-size="10.00">Kit/System/Tls.h</text>
</a>
</g>
</g>
<!-- Node3&#45;&gt;Node7 -->
<g id="edge7_Node000003_Node000007" class="edge">
<title>Node3&#45;&gt;Node7</title>
<g id="a_edge7_Node000003_Node000007"><a xlink:title=" ">
<path fill="none" stroke="#63b8ff" d="M969.13,-329.92C942.85,-319.62 907.65,-300.49 920,-275 939.96,-233.81 986.16,-204.52 1016.73,-188.81"/>
<polygon fill="#63b8ff" stroke="#63b8ff" points="1018.64,-191.77 1026.05,-184.19 1015.53,-185.5 1018.64,-191.77"/>
</a>
</g>
</g>
<!-- Node9 -->
<g id="Node000009" class="node">
<title>Node9</title>
<g id="a_Node000009"><a xlink:href="_traverser_status_8h.html" target="_top" xlink:title=" ">
<polygon fill="white" stroke="#666666" points="622.5,-294 479.5,-294 479.5,-275 622.5,-275 622.5,-294"/>
<text text-anchor="middle" x="551" y="-282" font-family="Helvetica,sans-Serif" font-size="10.00">Kit/Type/TraverserStatus.h</text>
</a>
</g>
</g>
<!-- Node3&#45;&gt;Node9 -->
<g id="edge10_Node000003_Node000009" class="edge">
<title>Node3&#45;&gt;Node9</title>
<g id="a_edge10_Node000003_Node000009"><a xlink:title=" ">
<path fill="none" stroke="#63b8ff" d="M936.95,-331.57C859.09,-322.28 720.44,-305.73 632.24,-295.2"/>
<polygon fill="#63b8ff" stroke="#63b8ff" points="632.62,-291.72 622.27,-294.01 631.79,-298.67 632.62,-291.72"/>
</a>
</g>
</g>
<!-- Node10 -->
<g id="Node000010" class="node">
<title>Node10</title>
<g id="a_Node000010"><a xlink:href="_list_item_8h.html" target="_top" xlink:title=" ">
<polygon fill="white" stroke="#666666" points="228,-74 96,-74 96,-55 228,-55 228,-74"/>
<text text-anchor="middle" x="162" y="-62" font-family="Helvetica,sans-Serif" font-size="10.00">Kit/Container/ListItem.h</text>
</a>
</g>
</g>
<!-- Node3&#45;&gt;Node10 -->
<g id="edge11_Node000003_Node000010" class="edge">
<title>Node3&#45;&gt;Node10</title>
<g id="a_edge11_Node000003_Node000010"><a xlink:title=" ">
<path fill="none" stroke="#63b8ff" d="M936.79,-333.37C924.01,-332.25 910.55,-331.08 898,-330 797.98,-321.41 0,-330.89 0,-230.5 0,-230.5 0,-230.5 0,-173.5 0,-119.38 63.37,-90.71 110.84,-76.83"/>
<polygon fill="#63b8ff" stroke="#63b8ff" points="112,-80.14 120.7,-74.08 110.13,-73.39 112,-80.14"/>
</a>
</g>
</g>
<!-- Node12 -->
<g id="Node000012" class="node">
<title>Node12</title>
<g id="a_Node000012"><a xlink:href="_string_8h.html" target="_top" xlink:title=" ">
<polygon fill="white" stroke="#666666" points="693.5,-294 640.5,-294 640.5,-275 693.5,-275 693.5,-294"/>
<text text-anchor="middle" x="667" y="-282" font-family="Helvetica,sans-Serif" font-size="10.00">string.h</text>
</a>
</g>
</g>
<!-- Node3&#45;&gt;Node12 -->
<g id="edge13_Node000003_Node000012" class="edge">
<title>Node3&#45;&gt;Node12</title>
<g id="a_edge13_Node000003_Node000012"><a xlink:title=" ">
<path fill="none" stroke="#63b8ff" d="M942.3,-329.98C875.47,-319.19 761.96,-300.84 703.78,-291.44"/>
<polygon fill="#63b8ff" stroke="#63b8ff" points="704.01,-287.94 693.58,-289.8 702.89,-294.85 704.01,-287.94"/>
</a>
</g>
</g>
<!-- Node7&#45;&gt;Node2 -->
<g id="edge8_Node000007_Node000002" class="edge">
<title>Node7&#45;&gt;Node2</title>
<g id="a_edge8_Node000007_Node000002"><a xlink:title=" ">
<path fill="none" stroke="#63b8ff" d="M1062.55,-164.98C1078.89,-156.57 1104.13,-143.59 1123.13,-133.81"/>
<polygon fill="#63b8ff" stroke="#63b8ff" points="1124.86,-136.86 1132.15,-129.17 1121.66,-130.63 1124.86,-136.86"/>
</a>
</g>
</g>
<!-- Node8 -->
<g id="Node000008" class="node">
<title>Node8</title>
<g id="a_Node000008"><a xlink:title=" ">
<polygon fill="#e0e0e0" stroke="#999999" points="473.5,-19 420.5,-19 420.5,0 473.5,0 473.5,-19"/>
<text text-anchor="middle" x="447" y="-7" font-family="Helvetica,sans-Serif" font-size="10.00">stdint.h</text>
</a>
</g>
</g>
<!-- Node7&#45;&gt;Node8 -->
<g id="edge9_Node000007_Node000008" class="edge">
<title>Node7&#45;&gt;Node8</title>
<g id="a_edge9_Node000007_Node000008"><a xlink:title=" ">
<path fill="none" stroke="#63b8ff" d="M997.6,-165.58C940.91,-156.03 850.6,-139.91 818,-129 799.72,-122.88 797.3,-116.06 779,-110 697,-82.84 670.4,-99.92 588,-74 585.09,-73.09 515.41,-41.54 475.11,-23.26"/>
<polygon fill="#63b8ff" stroke="#63b8ff" points="476.35,-19.98 465.8,-19.04 473.46,-26.35 476.35,-19.98"/>
</a>
</g>
</g>
<!-- Node11 -->
<g id="Node000011" class="node">
<title>Node11</title>
<g id="a_Node000011"><a xlink:href="_item_8h.html" target="_top" xlink:title=" ">
<polygon fill="white" stroke="#666666" points="219.5,-19 104.5,-19 104.5,0 219.5,0 219.5,-19"/>
<text text-anchor="middle" x="162" y="-7" font-family="Helvetica,sans-Serif" font-size="10.00">Kit/Container/Item.h</text>
</a>
</g>
</g>
<!-- Node10&#45;&gt;Node11 -->
<g id="edge12_Node000010_Node000011" class="edge">
<title>Node10&#45;&gt;Node11</title>
<g id="a_edge12_Node000010_Node000011"><a xlink:title=" ">
<path fill="none" stroke="#63b8ff" d="M162,-54.75C162,-47.8 162,-37.85 162,-29.13"/>
<polygon fill="#63b8ff" stroke="#63b8ff" points="165.5,-29.09 162,-19.09 158.5,-29.09 165.5,-29.09"/>
</a>
</g>
</g>
<!-- Node13 -->
<g id="Node000013" class="node">
<title>Node13</title>
<g id="a_Node000013"><a xlink:href="_model_point_base_8h.html" target="_top" xlink:title=" ">
<polygon fill="white" stroke="#666666" points="709.5,-239 568.5,-239 568.5,-220 709.5,-220 709.5,-239"/>
<text text-anchor="middle" x="639" y="-227" font-family="Helvetica,sans-Serif" font-size="10.00">Kit/Dm/ModelPointBase.h</text>
</a>
</g>
</g>
<!-- Node12&#45;&gt;Node13 -->
<g id="edge14_Node000012_Node000013" class="edge">
<title>Node12&#45;&gt;Node13</title>
<g id="a_edge14_Node000012_Node000013"><a xlink:title=" ">
<path fill="none" stroke="#63b8ff" d="M662.38,-274.75C658.54,-267.49 652.98,-256.95 648.24,-247.98"/>
<polygon fill="#63b8ff" stroke="#63b8ff" points="651.3,-246.3 643.54,-239.09 645.11,-249.57 651.3,-246.3"/>
</a>
</g>
</g>
<!-- Node30 -->
<g id="Node000030" class="node">
<title>Node30</title>
<g id="a_Node000030"><a xlink:href="_observer_8h.html" target="_top" xlink:title=" ">
<polygon fill="white" stroke="#666666" points="442,-239 336,-239 336,-220 442,-220 442,-239"/>
<text text-anchor="middle" x="389" y="-227" font-family="Helvetica,sans-Serif" font-size="10.00">Kit/Dm/Observer.h</text>
</a>
</g>
</g>
<!-- Node12&#45;&gt;Node30 -->
<g id="edge47_Node000012_Node000030" class="edge">
<title>Node12&#45;&gt;Node30</title>
<g id="a_edge47_Node000012_Node000030"><a xlink:title=" ">
<path fill="none" stroke="#63b8ff" d="M640.3,-277.04C637.17,-276.33 634.02,-275.63 631,-275 569.53,-262.1 498.83,-249.34 449.79,-240.81"/>
<polygon fill="#63b8ff" stroke="#63b8ff" points="450.12,-237.31 439.67,-239.06 448.92,-244.21 450.12,-237.31"/>
</a>
</g>
</g>
<!-- Node13&#45;&gt;Node8 -->
<g id="edge45_Node000013_Node000008" class="edge">
<title>Node13&#45;&gt;Node8</title>
<g id="a_edge45_Node000013_Node000008"><a xlink:title=" ">
<path fill="none" stroke="#63b8ff" d="M640.05,-219.73C642.09,-198.55 644.38,-143.91 619,-110 597.08,-80.72 576.85,-91.98 545,-74 517.41,-58.43 486.99,-38.21 467.48,-24.82"/>
<polygon fill="#63b8ff" stroke="#63b8ff" points="469.29,-21.82 459.08,-19.01 465.31,-27.58 469.29,-21.82"/>
</a>
</g>
</g>
<!-- Node14 -->
<g id="Node000014" class="node">
<title>Node14</title>
<g id="a_Node000014"><a xlink:href="_i_model_point_8h.html" target="_top" xlink:title=" ">
<polygon fill="white" stroke="#666666" points="598,-184 478,-184 478,-165 598,-165 598,-184"/>
<text text-anchor="middle" x="538" y="-172" font-family="Helvetica,sans-Serif" font-size="10.00">Kit/Dm/IModelPoint.h</text>
</a>
</g>
</g>
<!-- Node13&#45;&gt;Node14 -->
<g id="edge15_Node000013_Node000014" class="edge">
<title>Node13&#45;&gt;Node14</title>
<g id="a_edge15_Node000013_Node000014"><a xlink:title=" ">
<path fill="none" stroke="#63b8ff" d="M622.77,-219.98C606.82,-211.61 582.22,-198.7 563.62,-188.95"/>
<polygon fill="#63b8ff" stroke="#63b8ff" points="565,-185.72 554.52,-184.17 561.75,-191.92 565,-185.72"/>
</a>
</g>
</g>
<!-- Node17 -->
<g id="Node000017" class="node">
<title>Node17</title>
<g id="a_Node000017"><a xlink:title=" ">
<polygon fill="#e0e0e0" stroke="#999999" points="1077.5,-19 1024.5,-19 1024.5,0 1077.5,0 1077.5,-19"/>
<text text-anchor="middle" x="1051" y="-7" font-family="Helvetica,sans-Serif" font-size="10.00">stdlib.h</text>
</a>
</g>
</g>
<!-- Node13&#45;&gt;Node17 -->
<g id="edge46_Node000013_Node000017" class="edge">
<title>Node13&#45;&gt;Node17</title>
<g id="a_edge46_Node000013_Node000017"><a xlink:title=" ">
<path fill="none" stroke="#63b8ff" d="M664.78,-219.92C734.11,-196.81 920.19,-134.67 933,-129 944.51,-123.91 1024.11,-83.81 1032,-74 1042.25,-61.25 1046.98,-43.07 1049.15,-29.43"/>
<polygon fill="#63b8ff" stroke="#63b8ff" points="1052.66,-29.62 1050.44,-19.26 1045.71,-28.74 1052.66,-29.62"/>
</a>
</g>
</g>
<!-- Node23 -->
<g id="Node000023" class="node">
<title>Node23</title>
<g id="a_Node000023"><a xlink:href="_i_observer_8h.html" target="_top" xlink:title=" ">
<polygon fill="white" stroke="#666666" points="334.5,-129 225.5,-129 225.5,-110 334.5,-110 334.5,-129"/>
<text text-anchor="middle" x="280" y="-117" font-family="Helvetica,sans-Serif" font-size="10.00">Kit/Dm/IObserver.h</text>
</a>
</g>
</g>
<!-- Node13&#45;&gt;Node23 -->
<g id="edge41_Node000013_Node000023" class="edge">
<title>Node13&#45;&gt;Node23</title>
<g id="a_edge41_Node000013_Node000023"><a xlink:title=" ">
<path fill="none" stroke="#63b8ff" d="M603.64,-219.99C569.12,-211.51 515.19,-197.79 469,-184 413.89,-167.55 350.7,-145.7 313.14,-132.4"/>
<polygon fill="#63b8ff" stroke="#63b8ff" points="314.3,-129.09 303.7,-129.04 311.95,-135.69 314.3,-129.09"/>
</a>
</g>
</g>
<!-- Node26 -->
<g id="Node000026" class="node">
<title>Node26</title>
<g id="a_Node000026"><a xlink:href="_i_model_database_8h.html" target="_top" xlink:title=" ">
<polygon fill="white" stroke="#666666" points="980,-184 838,-184 838,-165 980,-165 980,-184"/>
<text text-anchor="middle" x="909" y="-172" font-family="Helvetica,sans-Serif" font-size="10.00">Kit/Dm/IModelDatabase.h</text>
</a>
</g>
</g>
<!-- Node13&#45;&gt;Node26 -->
<g id="edge34_Node000013_Node000026" class="edge">
<title>Node13&#45;&gt;Node26</title>
<g id="a_edge34_Node000013_Node000026"><a xlink:title=" ">
<path fill="none" stroke="#63b8ff" d="M682.38,-219.98C729.38,-210.76 804.43,-196.03 855.16,-186.07"/>
<polygon fill="#63b8ff" stroke="#63b8ff" points="856.14,-189.44 865.28,-184.08 854.79,-182.57 856.14,-189.44"/>
</a>
</g>
</g>
<!-- Node28 -->
<g id="Node000028" class="node">
<title>Node28</title>
<g id="a_Node000028"><a xlink:href="_d_list_8h.html" target="_top" xlink:title=" ">
<polygon fill="white" stroke="#666666" points="256.5,-184 139.5,-184 139.5,-165 256.5,-165 256.5,-184"/>
<text text-anchor="middle" x="198" y="-172" font-family="Helvetica,sans-Serif" font-size="10.00">Kit/Container/DList.h</text>
</a>
</g>
</g>
<!-- Node13&#45;&gt;Node28 -->
<g id="edge42_Node000013_Node000028" class="edge">
<title>Node13&#45;&gt;Node28</title>
<g id="a_edge42_Node000013_Node000028"><a xlink:title=" ">
<path fill="none" stroke="#63b8ff" d="M568.15,-219.98C485.17,-210.01 348.67,-193.61 266.66,-183.75"/>
<polygon fill="#63b8ff" stroke="#63b8ff" points="267.03,-180.27 256.69,-182.55 266.2,-187.22 267.03,-180.27"/>
</a>
</g>
</g>
<!-- Node14&#45;&gt;Node2 -->
<g id="edge16_Node000014_Node000002" class="edge">
<title>Node14&#45;&gt;Node2</title>
<g id="a_edge16_Node000014_Node000002"><a xlink:title=" ">
<path fill="none" stroke="#63b8ff" d="M598.01,-170.83C699.62,-165.86 912.2,-153.51 1102.22,-128.95"/>
<polygon fill="#63b8ff" stroke="#63b8ff" points="1102.93,-132.39 1112.4,-127.62 1102.03,-125.44 1102.93,-132.39"/>
</a>
</g>
</g>
<!-- Node14&#45;&gt;Node8 -->
<g id="edge33_Node000014_Node000008" class="edge">
<title>Node14&#45;&gt;Node8</title>
<g id="a_edge33_Node000014_Node000008"><a xlink:title=" ">
<path fill="none" stroke="#63b8ff" d="M482.79,-164.93C443.05,-157.49 394.34,-145.35 382,-129 356.13,-94.71 400.49,-48.87 427.88,-25.53"/>
<polygon fill="#63b8ff" stroke="#63b8ff" points="430.25,-28.11 435.73,-19.04 425.79,-22.71 430.25,-28.11"/>
</a>
</g>
</g>
<!-- Node15 -->
<g id="Node000015" class="node">
<title>Node15</title>
<g id="a_Node000015"><a xlink:href="_keyed_item_8h.html" target="_top" xlink:title=" ">
<polygon fill="white" stroke="#666666" points="610.5,-129 465.5,-129 465.5,-110 610.5,-110 610.5,-129"/>
<text text-anchor="middle" x="538" y="-117" font-family="Helvetica,sans-Serif" font-size="10.00">Kit/Container/KeyedItem.h</text>
</a>
</g>
</g>
<!-- Node14&#45;&gt;Node15 -->
<g id="edge17_Node000014_Node000015" class="edge">
<title>Node14&#45;&gt;Node15</title>
<g id="a_edge17_Node000014_Node000015"><a xlink:title=" ">
<path fill="none" stroke="#63b8ff" d="M538,-164.75C538,-157.8 538,-147.85 538,-139.13"/>
<polygon fill="#63b8ff" stroke="#63b8ff" points="541.5,-139.09 538,-129.09 534.5,-139.09 541.5,-139.09"/>
</a>
</g>
</g>
<!-- Node19 -->
<g id="Node000019" class="node">
<title>Node19</title>
<g id="a_Node000019"><a xlink:href="_i_string_8h.html" target="_top" xlink:title=" ">
<polygon fill="white" stroke="#666666" points="924.5,-129 827.5,-129 827.5,-110 924.5,-110 924.5,-129"/>
<text text-anchor="middle" x="876" y="-117" font-family="Helvetica,sans-Serif" font-size="10.00">Kit/Text/IString.h</text>
</a>
</g>
</g>
<!-- Node14&#45;&gt;Node19 -->
<g id="edge23_Node000014_Node000019" class="edge">
<title>Node14&#45;&gt;Node19</title>
<g id="a_edge23_Node000014_Node000019"><a xlink:title=" ">
<path fill="none" stroke="#63b8ff" d="M592.31,-164.98C653.82,-155.34 753.73,-139.67 817.09,-129.74"/>
<polygon fill="#63b8ff" stroke="#63b8ff" points="817.98,-133.14 827.31,-128.13 816.89,-126.23 817.98,-133.14"/>
</a>
</g>
</g>
<!-- Node14&#45;&gt;Node23 -->
<g id="edge28_Node000014_Node000023" class="edge">
<title>Node14&#45;&gt;Node23</title>
<g id="a_edge28_Node000014_Node000023"><a xlink:title=" ">
<path fill="none" stroke="#63b8ff" d="M496.55,-164.98C451.73,-155.78 380.23,-141.09 331.75,-131.13"/>
<polygon fill="#63b8ff" stroke="#63b8ff" points="332.28,-127.67 321.78,-129.08 330.87,-134.52 332.28,-127.67"/>
</a>
</g>
</g>
<!-- Node24 -->
<g id="Node000024" class="node">
<title>Node24</title>
<g id="a_Node000024"><a xlink:href="_arduino_8h_source.html" target="_top" xlink:title=" ">
<polygon fill="white" stroke="#666666" points="770.5,-129 667.5,-129 667.5,-110 770.5,-110 770.5,-129"/>
<text text-anchor="middle" x="719" y="-117" font-family="Helvetica,sans-Serif" font-size="10.00">Kit/Json/Arduino.h</text>
</a>
</g>
</g>
<!-- Node14&#45;&gt;Node24 -->
<g id="edge31_Node000014_Node000024" class="edge">
<title>Node14&#45;&gt;Node24</title>
<g id="a_edge31_Node000014_Node000024"><a xlink:title=" ">
<path fill="none" stroke="#63b8ff" d="M567.08,-164.98C597.6,-156.05 645.76,-141.94 679.66,-132.02"/>
<polygon fill="#63b8ff" stroke="#63b8ff" points="681.08,-135.25 689.69,-129.08 679.11,-128.53 681.08,-135.25"/>
</a>
</g>
</g>
<!-- Node25 -->
<g id="Node000025" class="node">
<title>Node25</title>
<g id="a_Node000025"><a xlink:title=" ">
<polygon fill="#e0e0e0" stroke="#999999" points="447,-129 391,-129 391,-110 447,-110 447,-129"/>
<text text-anchor="middle" x="419" y="-117" font-family="Helvetica,sans-Serif" font-size="10.00">stddef.h</text>
</a>
</g>
</g>
<!-- Node14&#45;&gt;Node25 -->
<g id="edge32_Node000014_Node000025" class="edge">
<title>Node14&#45;&gt;Node25</title>
<g id="a_edge32_Node000014_Node000025"><a xlink:title=" ">
<path fill="none" stroke="#63b8ff" d="M518.88,-164.98C499.65,-156.42 469.77,-143.11 447.69,-133.28"/>
<polygon fill="#63b8ff" stroke="#63b8ff" points="449.03,-130.04 438.47,-129.17 446.18,-136.44 449.03,-130.04"/>
</a>
</g>
</g>
<!-- Node15&#45;&gt;Node10 -->
<g id="edge18_Node000015_Node000010" class="edge">
<title>Node15&#45;&gt;Node10</title>
<g id="a_edge18_Node000015_Node000010"><a xlink:title=" ">
<path fill="none" stroke="#63b8ff" d="M477.59,-109.98C410.81,-100.57 303.37,-85.43 232.72,-75.47"/>
<polygon fill="#63b8ff" stroke="#63b8ff" points="232.96,-71.97 222.57,-74.04 231.99,-78.9 232.96,-71.97"/>
</a>
</g>
</g>
<!-- Node16 -->
<g id="Node000016" class="node">
<title>Node16</title>
<g id="a_Node000016"><a xlink:href="_key_8h.html" target="_top" xlink:title=" ">
<polygon fill="white" stroke="#666666" points="706.5,-74 597.5,-74 597.5,-55 706.5,-55 706.5,-74"/>
<text text-anchor="middle" x="652" y="-62" font-family="Helvetica,sans-Serif" font-size="10.00">Kit/Container/Key.h</text>
</a>
</g>
</g>
<!-- Node15&#45;&gt;Node16 -->
<g id="edge19_Node000015_Node000016" class="edge">
<title>Node15&#45;&gt;Node16</title>
<g id="a_edge19_Node000015_Node000016"><a xlink:title=" ">
<path fill="none" stroke="#63b8ff" d="M556.32,-109.98C574.66,-101.46 603.11,-88.23 624.23,-78.41"/>
<polygon fill="#63b8ff" stroke="#63b8ff" points="625.76,-81.56 633.35,-74.17 622.81,-75.21 625.76,-81.56"/>
</a>
</g>
</g>
<!-- Node16&#45;&gt;Node8 -->
<g id="edge20_Node000016_Node000008" class="edge">
<title>Node16&#45;&gt;Node8</title>
<g id="a_edge20_Node000016_Node000008"><a xlink:title=" ">
<path fill="none" stroke="#63b8ff" d="M619.06,-54.98C581.97,-45.4 521.87,-29.86 483.41,-19.91"/>
<polygon fill="#63b8ff" stroke="#63b8ff" points="484.21,-16.5 473.65,-17.39 482.46,-23.28 484.21,-16.5"/>
</a>
</g>
</g>
<!-- Node16&#45;&gt;Node17 -->
<g id="edge21_Node000016_Node000017" class="edge">
<title>Node16&#45;&gt;Node17</title>
<g id="a_edge21_Node000016_Node000017"><a xlink:title=" ">
<path fill="none" stroke="#63b8ff" d="M706.64,-56.24C789.27,-45.27 943.81,-24.74 1014.29,-15.38"/>
<polygon fill="#63b8ff" stroke="#63b8ff" points="1015,-18.81 1024.45,-14.03 1014.08,-11.87 1015,-18.81"/>
</a>
</g>
</g>
<!-- Node18 -->
<g id="Node000018" class="node">
<title>Node18</title>
<g id="a_Node000018"><a xlink:title=" ">
<polygon fill="#e0e0e0" stroke="#999999" points="678.5,-19 625.5,-19 625.5,0 678.5,0 678.5,-19"/>
<text text-anchor="middle" x="652" y="-7" font-family="Helvetica,sans-Serif" font-size="10.00">limits.h</text>
</a>
</g>
</g>
<!-- Node16&#45;&gt;Node18 -->
<g id="edge22_Node000016_Node000018" class="edge">
<title>Node16&#45;&gt;Node18</title>
<g id="a_edge22_Node000016_Node000018"><a xlink:title=" ">
<path fill="none" stroke="#63b8ff" d="M652,-54.75C652,-47.8 652,-37.85 652,-29.13"/>
<polygon fill="#63b8ff" stroke="#63b8ff" points="655.5,-29.09 652,-19.09 648.5,-29.09 655.5,-29.09"/>
</a>
</g>
</g>
<!-- Node19&#45;&gt;Node16 -->
<g id="edge24_Node000019_Node000016" class="edge">
<title>Node19&#45;&gt;Node16</title>
<g id="a_edge24_Node000019_Node000016"><a xlink:title=" ">
<path fill="none" stroke="#63b8ff" d="M840.01,-109.98C801.51,-100.87 740.31,-86.4 698.26,-76.45"/>
<polygon fill="#63b8ff" stroke="#63b8ff" points="698.81,-72.98 688.27,-74.08 697.2,-79.79 698.81,-72.98"/>
</a>
</g>
</g>
<!-- Node20 -->
<g id="Node000020" class="node">
<title>Node20</title>
<g id="a_Node000020"><a xlink:href="printfchecker_8h.html" target="_top" xlink:title="This file contains macro that enables the GCC (and Clang) compiler to validate printf flags with thei...">
<polygon fill="white" stroke="#666666" points="948.5,-74 803.5,-74 803.5,-55 948.5,-55 948.5,-74"/>
<text text-anchor="middle" x="876" y="-62" font-family="Helvetica,sans-Serif" font-size="10.00">Kit/System/printfchecker.h</text>
</a>
</g>
</g>
<!-- Node19&#45;&gt;Node20 -->
<g id="edge25_Node000019_Node000020" class="edge">
<title>Node19&#45;&gt;Node20</title>
<g id="a_edge25_Node000019_Node000020"><a xlink:title=" ">
<path fill="none" stroke="#63b8ff" d="M876,-109.75C876,-102.8 876,-92.85 876,-84.13"/>
<polygon fill="#63b8ff" stroke="#63b8ff" points="879.5,-84.09 876,-74.09 872.5,-84.09 879.5,-84.09"/>
</a>
</g>
</g>
<!-- Node21 -->
<g id="Node000021" class="node">
<title>Node21</title>
<g id="a_Node000021"><a xlink:title=" ">
<polygon fill="#e0e0e0" stroke="#999999" points="1023,-74 967,-74 967,-55 1023,-55 1023,-74"/>
<text text-anchor="middle" x="995" y="-62" font-family="Helvetica,sans-Serif" font-size="10.00">stdarg.h</text>
</a>
</g>
</g>
<!-- Node19&#45;&gt;Node21 -->
<g id="edge26_Node000019_Node000021" class="edge">
<title>Node19&#45;&gt;Node21</title>
<g id="a_edge26_Node000019_Node000021"><a xlink:title=" ">
<path fill="none" stroke="#63b8ff" d="M895.12,-109.98C914.35,-101.42 944.23,-88.11 966.31,-78.28"/>
<polygon fill="#63b8ff" stroke="#63b8ff" points="967.82,-81.44 975.53,-74.17 964.97,-75.04 967.82,-81.44"/>
</a>
</g>
</g>
<!-- Node22 -->
<g id="Node000022" class="node">
<title>Node22</title>
<g id="a_Node000022"><a xlink:title=" ">
<polygon fill="#e0e0e0" stroke="#999999" points="785,-74 725,-74 725,-55 785,-55 785,-74"/>
<text text-anchor="middle" x="755" y="-62" font-family="Helvetica,sans-Serif" font-size="10.00">iostream</text>
</a>
</g>
</g>
<!-- Node19&#45;&gt;Node22 -->
<g id="edge27_Node000019_Node000022" class="edge">
<title>Node19&#45;&gt;Node22</title>
<g id="a_edge27_Node000019_Node000022"><a xlink:title=" ">
<path fill="none" stroke="#63b8ff" d="M856.56,-109.98C837.01,-101.42 806.62,-88.11 784.18,-78.28"/>
<polygon fill="#63b8ff" stroke="#63b8ff" points="785.36,-74.98 774.79,-74.17 782.55,-81.39 785.36,-74.98"/>
</a>
</g>
</g>
<!-- Node23&#45;&gt;Node8 -->
<g id="edge30_Node000023_Node000008" class="edge">
<title>Node23&#45;&gt;Node8</title>
<g id="a_edge30_Node000023_Node000008"><a xlink:title=" ">
<path fill="none" stroke="#63b8ff" d="M287.77,-109.75C299.84,-96.55 324.3,-71.36 349,-55 368.99,-41.76 393.56,-30.61 413.1,-22.78"/>
<polygon fill="#63b8ff" stroke="#63b8ff" points="414.48,-26 422.53,-19.11 411.94,-19.48 414.48,-26"/>
</a>
</g>
</g>
<!-- Node23&#45;&gt;Node10 -->
<g id="edge29_Node000023_Node000010" class="edge">
<title>Node23&#45;&gt;Node10</title>
<g id="a_edge29_Node000023_Node000010"><a xlink:title=" ">
<path fill="none" stroke="#63b8ff" d="M261.04,-109.98C241.97,-101.42 212.34,-88.11 190.45,-78.28"/>
<polygon fill="#63b8ff" stroke="#63b8ff" points="191.86,-75.07 181.3,-74.17 188.99,-81.46 191.86,-75.07"/>
</a>
</g>
</g>
<!-- Node26&#45;&gt;Node2 -->
<g id="edge35_Node000026_Node000002" class="edge">
<title>Node26&#45;&gt;Node2</title>
<g id="a_edge35_Node000026_Node000002"><a xlink:title=" ">
<path fill="none" stroke="#63b8ff" d="M947.56,-164.98C989.69,-155.68 1057.18,-140.78 1102.28,-130.82"/>
<polygon fill="#63b8ff" stroke="#63b8ff" points="1103.1,-134.22 1112.11,-128.65 1101.59,-127.38 1103.1,-134.22"/>
</a>
</g>
</g>
<!-- Node26&#45;&gt;Node19 -->
<g id="edge36_Node000026_Node000019" class="edge">
<title>Node26&#45;&gt;Node19</title>
<g id="a_edge36_Node000026_Node000019"><a xlink:title=" ">
<path fill="none" stroke="#63b8ff" d="M903.55,-164.75C898.99,-157.42 892.33,-146.73 886.71,-137.7"/>
<polygon fill="#63b8ff" stroke="#63b8ff" points="889.6,-135.73 881.35,-129.09 883.66,-139.43 889.6,-135.73"/>
</a>
</g>
</g>
<!-- Node26&#45;&gt;Node24 -->
<g id="edge40_Node000026_Node000024" class="edge">
<title>Node26&#45;&gt;Node24</title>
<g id="a_edge40_Node000026_Node000024"><a xlink:title=" ">
<path fill="none" stroke="#63b8ff" d="M878.47,-164.98C846.3,-156.01 795.44,-141.82 759.83,-131.89"/>
<polygon fill="#63b8ff" stroke="#63b8ff" points="760.34,-128.4 749.77,-129.08 758.46,-135.14 760.34,-128.4"/>
</a>
</g>
</g>
<!-- Node27 -->
<g id="Node000027" class="node">
<title>Node27</title>
<g id="a_Node000027"><a xlink:href="_mutex_8h.html" target="_top" xlink:title=" ">
<polygon fill="white" stroke="#666666" points="1094.5,-129 981.5,-129 981.5,-110 1094.5,-110 1094.5,-129"/>
<text text-anchor="middle" x="1038" y="-117" font-family="Helvetica,sans-Serif" font-size="10.00">Kit/System/Mutex.h</text>
</a>
</g>
</g>
<!-- Node26&#45;&gt;Node27 -->
<g id="edge37_Node000026_Node000027" class="edge">
<title>Node26&#45;&gt;Node27</title>
<g id="a_edge37_Node000026_Node000027"><a xlink:title=" ">
<path fill="none" stroke="#63b8ff" d="M929.73,-164.98C950.76,-156.34 983.55,-142.87 1007.54,-133.02"/>
<polygon fill="#63b8ff" stroke="#63b8ff" points="1008.98,-136.21 1016.9,-129.17 1006.32,-129.73 1008.98,-136.21"/>
</a>
</g>
</g>
<!-- Node27&#45;&gt;Node4 -->
<g id="edge39_Node000027_Node000004" class="edge">
<title>Node27&#45;&gt;Node4</title>
<g id="a_edge39_Node000027_Node000004"><a xlink:title=" ">
<path fill="none" stroke="#63b8ff" d="M1066.28,-109.98C1095.95,-101.05 1142.79,-86.94 1175.75,-77.02"/>
<polygon fill="#63b8ff" stroke="#63b8ff" points="1176.93,-80.32 1185.5,-74.08 1174.92,-73.61 1176.93,-80.32"/>
</a>
</g>
</g>
<!-- Node27&#45;&gt;Node17 -->
<g id="edge38_Node000027_Node000017" class="edge">
<title>Node27&#45;&gt;Node17</title>
<g id="a_edge38_Node000027_Node000017"><a xlink:title=" ">
<path fill="none" stroke="#63b8ff" d="M1045.15,-109.97C1051.77,-101.48 1061.15,-87.75 1065,-74 1069.23,-58.88 1064.73,-41.45 1059.74,-28.68"/>
<polygon fill="#63b8ff" stroke="#63b8ff" points="1062.82,-26.97 1055.61,-19.2 1056.4,-29.77 1062.82,-26.97"/>
</a>
</g>
</g>
<!-- Node29 -->
<g id="Node000029" class="node">
<title>Node29</title>
<g id="a_Node000029"><a xlink:href="_d_list_base_8h.html" target="_top" xlink:title=" ">
<polygon fill="white" stroke="#666666" points="207.5,-129 66.5,-129 66.5,-110 207.5,-110 207.5,-129"/>
<text text-anchor="middle" x="137" y="-117" font-family="Helvetica,sans-Serif" font-size="10.00">Kit/Container/DListBase.h</text>
</a>
</g>
</g>
<!-- Node28&#45;&gt;Node29 -->
<g id="edge43_Node000028_Node000029" class="edge">
<title>Node28&#45;&gt;Node29</title>
<g id="a_edge43_Node000028_Node000029"><a xlink:title=" ">
<path fill="none" stroke="#63b8ff" d="M188.2,-164.98C179.18,-157.15 165.59,-145.34 154.68,-135.86"/>
<polygon fill="#63b8ff" stroke="#63b8ff" points="156.82,-133.09 146.98,-129.17 152.23,-138.37 156.82,-133.09"/>
</a>
</g>
</g>
<!-- Node29&#45;&gt;Node10 -->
<g id="edge44_Node000029_Node000010" class="edge">
<title>Node29&#45;&gt;Node10</title>
<g id="a_edge44_Node000029_Node000010"><a xlink:title=" ">
<path fill="none" stroke="#63b8ff" d="M141.13,-109.75C144.51,-102.57 149.42,-92.18 153.62,-83.27"/>
<polygon fill="#63b8ff" stroke="#63b8ff" points="156.85,-84.63 157.95,-74.09 150.52,-81.64 156.85,-84.63"/>
</a>
</g>
</g>
<!-- Node30&#45;&gt;Node8 -->
<g id="edge50_Node000030_Node000008" class="edge">
<title>Node30&#45;&gt;Node8</title>
<g id="a_edge50_Node000030_Node000008"><a xlink:title=" ">
<path fill="none" stroke="#63b8ff" d="M335.82,-226.67C281.96,-223.17 197.22,-213.05 130,-184 87.59,-165.67 45.58,-154.77 57,-110 63.88,-83.02 63.98,-70.66 87,-55 139.02,-19.62 329.09,-12.36 410.07,-10.88"/>
<polygon fill="#63b8ff" stroke="#63b8ff" points="410.35,-14.37 420.29,-10.71 410.23,-7.37 410.35,-14.37"/>
</a>
</g>
</g>
<!-- Node30&#45;&gt;Node14 -->
<g id="edge49_Node000030_Node000014" class="edge">
<title>Node30&#45;&gt;Node14</title>
<g id="a_edge49_Node000030_Node000014"><a xlink:title=" ">
<path fill="none" stroke="#63b8ff" d="M412.94,-219.98C437.56,-211.23 476.12,-197.51 503.92,-187.62"/>
<polygon fill="#63b8ff" stroke="#63b8ff" points="505.38,-190.82 513.62,-184.17 503.03,-184.22 505.38,-190.82"/>
</a>
</g>
</g>
<!-- Node30&#45;&gt;Node23 -->
<g id="edge48_Node000030_Node000023" class="edge">
<title>Node30&#45;&gt;Node23</title>
<g id="a_edge48_Node000030_Node000023"><a xlink:title=" ">
<path fill="none" stroke="#63b8ff" d="M380.08,-219.66C361.71,-201.46 319.41,-159.55 296.12,-136.47"/>
<polygon fill="#63b8ff" stroke="#63b8ff" points="298.31,-133.71 288.74,-129.16 293.38,-138.68 298.31,-133.71"/>
</a>
</g>
</g>
<!-- Node31&#45;&gt;Node4 -->
<g id="edge52_Node000031_Node000004" class="edge">
<title>Node31&#45;&gt;Node4</title>
<g id="a_edge52_Node000031_Node000004"><a xlink:title=" ">
<path fill="none" stroke="#63b8ff" d="M1242.3,-330C1281.89,-316.15 1349,-284.68 1349,-230.5 1349,-230.5 1349,-230.5 1349,-173.5 1349,-123.45 1291.72,-92.78 1251.78,-77.48"/>
<polygon fill="#63b8ff" stroke="#63b8ff" points="1252.89,-74.16 1242.3,-74 1250.49,-80.73 1252.89,-74.16"/>
</a>
</g>
</g>
<!-- Node31&#45;&gt;Node6 -->
<g id="edge53_Node000031_Node000006" class="edge">
<title>Node31&#45;&gt;Node6</title>
<g id="a_edge53_Node000031_Node000006"><a xlink:title=" ">
<path fill="none" stroke="#63b8ff" d="M1214.83,-329.75C1215.48,-322.8 1216.42,-312.85 1217.24,-304.13"/>
<polygon fill="#63b8ff" stroke="#63b8ff" points="1220.73,-304.37 1218.19,-294.09 1213.77,-303.72 1220.73,-304.37"/>
</a>
</g>
</g>
<!-- Node33 -->
<g id="Node000033" class="node">
<title>Node33</title>
<g id="a_Node000033"><a xlink:href="_f_string_base_8h.html" target="_top" xlink:title=" ">
<polygon fill="white" stroke="#666666" points="855.5,-294 732.5,-294 732.5,-275 855.5,-275 855.5,-294"/>
<text text-anchor="middle" x="794" y="-282" font-family="Helvetica,sans-Serif" font-size="10.00">Kit/Text/FStringBase.h</text>
</a>
</g>
</g>
<!-- Node32&#45;&gt;Node33 -->
<g id="edge55_Node000032_Node000033" class="edge">
<title>Node32&#45;&gt;Node33</title>
<g id="a_edge55_Node000032_Node000033"><a xlink:title=" ">
<path fill="none" stroke="#63b8ff" d="M832.4,-329.75C825.84,-322.18 816.18,-311.05 808.19,-301.84"/>
<polygon fill="#63b8ff" stroke="#63b8ff" points="810.65,-299.35 801.45,-294.09 805.37,-303.94 810.65,-299.35"/>
</a>
</g>
</g>
<!-- Node34 -->
<g id="Node000034" class="node">
<title>Node34</title>
<g id="a_Node000034"><a xlink:href="_string_base_8h.html" target="_top" xlink:title=" ">
<polygon fill="white" stroke="#666666" points="846,-239 728,-239 728,-220 846,-220 846,-239"/>
<text text-anchor="middle" x="787" y="-227" font-family="Helvetica,sans-Serif" font-size="10.00">Kit/Text/StringBase.h</text>
</a>
</g>
</g>
<!-- Node33&#45;&gt;Node34 -->
<g id="edge56_Node000033_Node000034" class="edge">
<title>Node33&#45;&gt;Node34</title>
<g id="a_edge56_Node000033_Node000034"><a xlink:title=" ">
<path fill="none" stroke="#63b8ff" d="M792.84,-274.75C791.93,-267.8 790.61,-257.85 789.46,-249.13"/>
<polygon fill="#63b8ff" stroke="#63b8ff" points="792.91,-248.54 788.13,-239.09 785.97,-249.46 792.91,-248.54"/>
</a>
</g>
</g>
<!-- Node34&#45;&gt;Node19 -->
<g id="edge57_Node000034_Node000019" class="edge">
<title>Node34&#45;&gt;Node19</title>
<g id="a_edge57_Node000034_Node000019"><a xlink:title=" ">
<path fill="none" stroke="#63b8ff" d="M791.86,-219.85C799.15,-207.21 813.7,-183.22 829,-165 837.74,-154.59 848.72,-144.08 857.86,-135.89"/>
<polygon fill="#63b8ff" stroke="#63b8ff" points="860.41,-138.31 865.63,-129.09 855.8,-133.05 860.41,-138.31"/>
</a>
</g>
</g>
</g>
</svg>
