<?xml version="1.0" encoding="UTF-8" standalone="no"?>
<!DOCTYPE svg PUBLIC "-//W3C//DTD SVG 1.1//EN"
 "http://www.w3.org/Graphics/SVG/1.1/DTD/svg11.dtd">
<!-- Generated by graphviz version 2.43.0 (0)
 -->
<!-- Title: Kit/System/Private.h Pages: 1 -->
<svg width="787pt" height="302pt"
 viewBox="0.00 0.00 787.00 302.00" xmlns="http://www.w3.org/2000/svg" xmlns:xlink="http://www.w3.org/1999/xlink">
<g id="graph0" class="graph" transform="scale(1 1) rotate(0) translate(4 298)">
<title>Kit/System/Private.h</title>
<!-- Node1 -->
<g id="Node000001" class="node">
<title>Node1</title>
<g id="a_Node000001"><a xlink:title="This file contains a collection of classes, interfaces, etc.">
<polygon fill="#999999" stroke="#666666" points="487.5,-294 371.5,-294 371.5,-275 487.5,-275 487.5,-294"/>
<text text-anchor="middle" x="429.5" y="-282" font-family="Helvetica,sans-Serif" font-size="10.00">Kit/System/Private.h</text>
</a>
</g>
</g>
<!-- Node2 -->
<g id="Node000002" class="node">
<title>Node2</title>
<g id="a_Node000002"><a xlink:href="_i_string_8h.html" target="_top" xlink:title=" ">
<polygon fill="white" stroke="#666666" points="212,-129 115,-129 115,-110 212,-110 212,-129"/>
<text text-anchor="middle" x="163.5" y="-117" font-family="Helvetica,sans-Serif" font-size="10.00">Kit/Text/IString.h</text>
</a>
</g>
</g>
<!-- Node1&#45;&gt;Node2 -->
<g id="edge1_Node000001_Node000002" class="edge">
<title>Node1&#45;&gt;Node2</title>
<g id="a_edge1_Node000001_Node000002"><a xlink:title=" ">
<path fill="none" stroke="#63b8ff" d="M412.31,-274.85C379.94,-258.36 308.01,-220.78 250.5,-184 226.35,-168.56 199.93,-148.84 182.62,-135.51"/>
<polygon fill="#63b8ff" stroke="#63b8ff" points="184.5,-132.54 174.45,-129.17 180.21,-138.07 184.5,-132.54"/>
</a>
</g>
</g>
<!-- Node10 -->
<g id="Node000010" class="node">
<title>Node10</title>
<g id="a_Node000010"><a xlink:href="_mutex_8h.html" target="_top" xlink:title=" ">
<polygon fill="white" stroke="#666666" points="760,-239 647,-239 647,-220 760,-220 760,-239"/>
<text text-anchor="middle" x="703.5" y="-227" font-family="Helvetica,sans-Serif" font-size="10.00">Kit/System/Mutex.h</text>
</a>
</g>
</g>
<!-- Node1&#45;&gt;Node10 -->
<g id="edge9_Node000001_Node000010" class="edge">
<title>Node1&#45;&gt;Node10</title>
<g id="a_edge9_Node000001_Node000010"><a xlink:title=" ">
<path fill="none" stroke="#63b8ff" d="M473.52,-274.98C521.32,-265.74 597.7,-250.97 649.18,-241.01"/>
<polygon fill="#63b8ff" stroke="#63b8ff" points="649.98,-244.42 659.13,-239.08 648.65,-237.54 649.98,-244.42"/>
</a>
</g>
</g>
<!-- Node13 -->
<g id="Node000013" class="node">
<title>Node13</title>
<g id="a_Node000013"><a xlink:href="_trace_8h.html" target="_top" xlink:title="This file provides an interface for a &#39;printf&#39; tracing mechanism.">
<polygon fill="white" stroke="#666666" points="483,-239 376,-239 376,-220 483,-220 483,-239"/>
<text text-anchor="middle" x="429.5" y="-227" font-family="Helvetica,sans-Serif" font-size="10.00">Kit/System/Trace.h</text>
</a>
</g>
</g>
<!-- Node1&#45;&gt;Node13 -->
<g id="edge12_Node000001_Node000013" class="edge">
<title>Node1&#45;&gt;Node13</title>
<g id="a_edge12_Node000001_Node000013"><a xlink:title=" ">
<path fill="none" stroke="#63b8ff" d="M429.5,-274.75C429.5,-267.8 429.5,-257.85 429.5,-249.13"/>
<polygon fill="#63b8ff" stroke="#63b8ff" points="433,-249.09 429.5,-239.09 426,-249.09 433,-249.09"/>
</a>
</g>
</g>
<!-- Node3 -->
<g id="Node000003" class="node">
<title>Node3</title>
<g id="a_Node000003"><a xlink:href="_key_8h.html" target="_top" xlink:title=" ">
<polygon fill="white" stroke="#666666" points="116,-74 7,-74 7,-55 116,-55 116,-74"/>
<text text-anchor="middle" x="61.5" y="-62" font-family="Helvetica,sans-Serif" font-size="10.00">Kit/Container/Key.h</text>
</a>
</g>
</g>
<!-- Node2&#45;&gt;Node3 -->
<g id="edge2_Node000002_Node000003" class="edge">
<title>Node2&#45;&gt;Node3</title>
<g id="a_edge2_Node000002_Node000003"><a xlink:title=" ">
<path fill="none" stroke="#63b8ff" d="M147.11,-109.98C130.93,-101.57 105.93,-88.59 87.12,-78.81"/>
<polygon fill="#63b8ff" stroke="#63b8ff" points="88.67,-75.68 78.19,-74.17 85.45,-81.89 88.67,-75.68"/>
</a>
</g>
</g>
<!-- Node7 -->
<g id="Node000007" class="node">
<title>Node7</title>
<g id="a_Node000007"><a xlink:href="printfchecker_8h.html" target="_top" xlink:title="This file contains macro that enables the GCC (and Clang) compiler to validate printf flags with thei...">
<polygon fill="white" stroke="#666666" points="432,-74 287,-74 287,-55 432,-55 432,-74"/>
<text text-anchor="middle" x="359.5" y="-62" font-family="Helvetica,sans-Serif" font-size="10.00">Kit/System/printfchecker.h</text>
</a>
</g>
</g>
<!-- Node2&#45;&gt;Node7 -->
<g id="edge6_Node000002_Node000007" class="edge">
<title>Node2&#45;&gt;Node7</title>
<g id="a_edge6_Node000002_Node000007"><a xlink:title=" ">
<path fill="none" stroke="#63b8ff" d="M194.99,-109.98C228.32,-100.97 281.1,-86.7 317.85,-76.76"/>
<polygon fill="#63b8ff" stroke="#63b8ff" points="319.02,-80.07 327.76,-74.08 317.2,-73.31 319.02,-80.07"/>
</a>
</g>
</g>
<!-- Node8 -->
<g id="Node000008" class="node">
<title>Node8</title>
<g id="a_Node000008"><a xlink:title=" ">
<polygon fill="#e0e0e0" stroke="#999999" points="268.5,-74 212.5,-74 212.5,-55 268.5,-55 268.5,-74"/>
<text text-anchor="middle" x="240.5" y="-62" font-family="Helvetica,sans-Serif" font-size="10.00">stdarg.h</text>
</a>
</g>
</g>
<!-- Node2&#45;&gt;Node8 -->
<g id="edge7_Node000002_Node000008" class="edge">
<title>Node2&#45;&gt;Node8</title>
<g id="a_edge7_Node000002_Node000008"><a xlink:title=" ">
<path fill="none" stroke="#63b8ff" d="M175.87,-109.98C187.59,-101.92 205.42,-89.65 219.39,-80.03"/>
<polygon fill="#63b8ff" stroke="#63b8ff" points="221.65,-82.72 227.9,-74.17 217.68,-76.96 221.65,-82.72"/>
</a>
</g>
</g>
<!-- Node9 -->
<g id="Node000009" class="node">
<title>Node9</title>
<g id="a_Node000009"><a xlink:title=" ">
<polygon fill="#e0e0e0" stroke="#999999" points="194.5,-74 134.5,-74 134.5,-55 194.5,-55 194.5,-74"/>
<text text-anchor="middle" x="164.5" y="-62" font-family="Helvetica,sans-Serif" font-size="10.00">iostream</text>
</a>
</g>
</g>
<!-- Node2&#45;&gt;Node9 -->
<g id="edge8_Node000002_Node000009" class="edge">
<title>Node2&#45;&gt;Node9</title>
<g id="a_edge8_Node000002_Node000009"><a xlink:title=" ">
<path fill="none" stroke="#63b8ff" d="M163.67,-109.75C163.8,-102.8 163.98,-92.85 164.15,-84.13"/>
<polygon fill="#63b8ff" stroke="#63b8ff" points="167.65,-84.15 164.34,-74.09 160.65,-84.02 167.65,-84.15"/>
</a>
</g>
</g>
<!-- Node4 -->
<g id="Node000004" class="node">
<title>Node4</title>
<g id="a_Node000004"><a xlink:title=" ">
<polygon fill="#e0e0e0" stroke="#999999" points="400,-19 347,-19 347,0 400,0 400,-19"/>
<text text-anchor="middle" x="373.5" y="-7" font-family="Helvetica,sans-Serif" font-size="10.00">stdint.h</text>
</a>
</g>
</g>
<!-- Node3&#45;&gt;Node4 -->
<g id="edge3_Node000003_Node000004" class="edge">
<title>Node3&#45;&gt;Node4</title>
<g id="a_edge3_Node000003_Node000004"><a xlink:title=" ">
<path fill="none" stroke="#63b8ff" d="M111.63,-54.98C174.42,-44.32 280.53,-26.29 336.46,-16.79"/>
<polygon fill="#63b8ff" stroke="#63b8ff" points="337.35,-20.19 346.62,-15.07 336.18,-13.29 337.35,-20.19"/>
</a>
</g>
</g>
<!-- Node5 -->
<g id="Node000005" class="node">
<title>Node5</title>
<g id="a_Node000005"><a xlink:title=" ">
<polygon fill="#e0e0e0" stroke="#999999" points="53,-19 0,-19 0,0 53,0 53,-19"/>
<text text-anchor="middle" x="26.5" y="-7" font-family="Helvetica,sans-Serif" font-size="10.00">string.h</text>
</a>
</g>
</g>
<!-- Node3&#45;&gt;Node5 -->
<g id="edge4_Node000003_Node000005" class="edge">
<title>Node3&#45;&gt;Node5</title>
<g id="a_edge4_Node000003_Node000005"><a xlink:title=" ">
<path fill="none" stroke="#63b8ff" d="M55.72,-54.75C50.88,-47.42 43.82,-36.73 37.86,-27.7"/>
<polygon fill="#63b8ff" stroke="#63b8ff" points="40.6,-25.5 32.17,-19.09 34.76,-29.36 40.6,-25.5"/>
</a>
</g>
</g>
<!-- Node6 -->
<g id="Node000006" class="node">
<title>Node6</title>
<g id="a_Node000006"><a xlink:title=" ">
<polygon fill="#e0e0e0" stroke="#999999" points="124,-19 71,-19 71,0 124,0 124,-19"/>
<text text-anchor="middle" x="97.5" y="-7" font-family="Helvetica,sans-Serif" font-size="10.00">limits.h</text>
</a>
</g>
</g>
<!-- Node3&#45;&gt;Node6 -->
<g id="edge5_Node000003_Node000006" class="edge">
<title>Node3&#45;&gt;Node6</title>
<g id="a_edge5_Node000003_Node000006"><a xlink:title=" ">
<path fill="none" stroke="#63b8ff" d="M67.44,-54.75C72.48,-47.34 79.84,-36.5 86.01,-27.41"/>
<polygon fill="#63b8ff" stroke="#63b8ff" points="88.94,-29.33 91.67,-19.09 83.15,-25.39 88.94,-29.33"/>
</a>
</g>
</g>
<!-- Node11 -->
<g id="Node000011" class="node">
<title>Node11</title>
<g id="a_Node000011"><a xlink:title=" ">
<polygon fill="#e0e0e0" stroke="#999999" points="730,-184 677,-184 677,-165 730,-165 730,-184"/>
<text text-anchor="middle" x="703.5" y="-172" font-family="Helvetica,sans-Serif" font-size="10.00">stdlib.h</text>
</a>
</g>
</g>
<!-- Node10&#45;&gt;Node11 -->
<g id="edge10_Node000010_Node000011" class="edge">
<title>Node10&#45;&gt;Node11</title>
<g id="a_edge10_Node000010_Node000011"><a xlink:title=" ">
<path fill="none" stroke="#63b8ff" d="M703.5,-219.75C703.5,-212.8 703.5,-202.85 703.5,-194.13"/>
<polygon fill="#63b8ff" stroke="#63b8ff" points="707,-194.09 703.5,-184.09 700,-194.09 707,-194.09"/>
</a>
</g>
</g>
<!-- Node12 -->
<g id="Node000012" class="node">
<title>Node12</title>
<g id="a_Node000012"><a xlink:title=" ">
<polygon fill="#e0e0e0" stroke="#999999" points="779,-74 714,-74 714,-55 779,-55 779,-74"/>
<text text-anchor="middle" x="746.5" y="-62" font-family="Helvetica,sans-Serif" font-size="10.00">kit_map.h</text>
</a>
</g>
</g>
<!-- Node10&#45;&gt;Node12 -->
<g id="edge11_Node000010_Node000012" class="edge">
<title>Node10&#45;&gt;Node12</title>
<g id="a_edge11_Node000010_Node000012"><a xlink:title=" ">
<path fill="none" stroke="#63b8ff" d="M713.46,-219.73C722.07,-211.47 733.97,-198.27 739.5,-184 752.36,-150.81 751.05,-108.46 748.84,-84.42"/>
<polygon fill="#63b8ff" stroke="#63b8ff" points="752.29,-83.78 747.74,-74.21 745.33,-84.53 752.29,-83.78"/>
</a>
</g>
</g>
<!-- Node13&#45;&gt;Node2 -->
<g id="edge14_Node000013_Node000002" class="edge">
<title>Node13&#45;&gt;Node2</title>
<g id="a_edge14_Node000013_Node000002"><a xlink:title=" ">
<path fill="none" stroke="#63b8ff" d="M399.86,-219.97C372.24,-211.73 330.07,-198.41 294.5,-184 256.7,-168.69 214.5,-147.44 188.46,-133.84"/>
<polygon fill="#63b8ff" stroke="#63b8ff" points="189.8,-130.58 179.32,-129.02 186.54,-136.78 189.8,-130.58"/>
</a>
</g>
</g>
<!-- Node13&#45;&gt;Node7 -->
<g id="edge15_Node000013_Node000007" class="edge">
<title>Node13&#45;&gt;Node7</title>
<g id="a_edge15_Node000013_Node000007"><a xlink:title=" ">
<path fill="none" stroke="#63b8ff" d="M440.26,-219.99C464.44,-199.85 518.86,-148.1 491.5,-110 479.56,-93.37 461.08,-82.88 441.7,-76.27"/>
<polygon fill="#63b8ff" stroke="#63b8ff" points="442.72,-72.93 432.13,-73.33 440.66,-79.62 442.72,-72.93"/>
</a>
</g>
</g>
<!-- Node14 -->
<g id="Node000014" class="node">
<title>Node14</title>
<g id="a_Node000014"><a xlink:title=" ">
<polygon fill="#e0e0e0" stroke="#999999" points="683,-74 610,-74 610,-55 683,-55 683,-74"/>
<text text-anchor="middle" x="646.5" y="-62" font-family="Helvetica,sans-Serif" font-size="10.00">kit_config.h</text>
</a>
</g>
</g>
<!-- Node13&#45;&gt;Node14 -->
<g id="edge13_Node000013_Node000014" class="edge">
<title>Node13&#45;&gt;Node14</title>
<g id="a_edge13_Node000013_Node000014"><a xlink:title=" ">
<path fill="none" stroke="#63b8ff" d="M466.73,-219.96C511.95,-207.65 587.4,-180.49 629.5,-129 639.77,-116.44 643.88,-98.24 645.5,-84.54"/>
<polygon fill="#63b8ff" stroke="#63b8ff" points="649.01,-84.58 646.36,-74.32 642.03,-83.99 649.01,-84.58"/>
</a>
</g>
</g>
<!-- Node15 -->
<g id="Node000015" class="node">
<title>Node15</title>
<g id="a_Node000015"><a xlink:href="_i_output_8h.html" target="_top" xlink:title=" ">
<polygon fill="white" stroke="#666666" points="393.5,-184 303.5,-184 303.5,-165 393.5,-165 393.5,-184"/>
<text text-anchor="middle" x="348.5" y="-172" font-family="Helvetica,sans-Serif" font-size="10.00">Kit/Io/IOutput.h</text>
</a>
</g>
</g>
<!-- Node13&#45;&gt;Node15 -->
<g id="edge16_Node000013_Node000015" class="edge">
<title>Node13&#45;&gt;Node15</title>
<g id="a_edge16_Node000013_Node000015"><a xlink:title=" ">
<path fill="none" stroke="#63b8ff" d="M416.49,-219.98C404.04,-211.84 385.04,-199.41 370.29,-189.76"/>
<polygon fill="#63b8ff" stroke="#63b8ff" points="372.04,-186.72 361.75,-184.17 368.2,-192.57 372.04,-186.72"/>
</a>
</g>
</g>
<!-- Node15&#45;&gt;Node2 -->
<g id="edge21_Node000015_Node000002" class="edge">
<title>Node15&#45;&gt;Node2</title>
<g id="a_edge21_Node000015_Node000002"><a xlink:title=" ">
<path fill="none" stroke="#63b8ff" d="M318.78,-164.98C287.45,-156.01 237.93,-141.82 203.26,-131.89"/>
<polygon fill="#63b8ff" stroke="#63b8ff" points="204.03,-128.47 193.46,-129.08 202.11,-135.2 204.03,-128.47"/>
</a>
</g>
</g>
<!-- Node15&#45;&gt;Node7 -->
<g id="edge24_Node000015_Node000007" class="edge">
<title>Node15&#45;&gt;Node7</title>
<g id="a_edge24_Node000015_Node000007"><a xlink:title=" ">
<path fill="none" stroke="#63b8ff" d="M332.7,-164.87C313.86,-153.36 286.27,-131.89 297.5,-110 304.46,-96.44 317.69,-86.07 330.15,-78.78"/>
<polygon fill="#63b8ff" stroke="#63b8ff" points="331.85,-81.84 338.98,-74 328.52,-75.68 331.85,-81.84"/>
</a>
</g>
</g>
<!-- Node15&#45;&gt;Node8 -->
<g id="edge25_Node000015_Node000008" class="edge">
<title>Node15&#45;&gt;Node8</title>
<g id="a_edge25_Node000015_Node000008"><a xlink:title=" ">
<path fill="none" stroke="#63b8ff" d="M335.31,-164.8C323.04,-156.39 304.59,-142.91 290.5,-129 275.9,-114.58 261.66,-95.91 252.14,-82.56"/>
<polygon fill="#63b8ff" stroke="#63b8ff" points="254.95,-80.47 246.35,-74.27 249.21,-84.48 254.95,-80.47"/>
</a>
</g>
</g>
<!-- Node16 -->
<g id="Node000016" class="node">
<title>Node16</title>
<g id="a_Node000016"><a xlink:href="_types_8h.html" target="_top" xlink:title=" ">
<polygon fill="white" stroke="#666666" points="620.5,-129 538.5,-129 538.5,-110 620.5,-110 620.5,-129"/>
<text text-anchor="middle" x="579.5" y="-117" font-family="Helvetica,sans-Serif" font-size="10.00">Kit/Io/Types.h</text>
</a>
</g>
</g>
<!-- Node15&#45;&gt;Node16 -->
<g id="edge17_Node000015_Node000016" class="edge">
<title>Node15&#45;&gt;Node16</title>
<g id="a_edge17_Node000015_Node000016"><a xlink:title=" ">
<path fill="none" stroke="#63b8ff" d="M385.61,-164.98C425.49,-155.84 488.96,-141.27 532.34,-131.32"/>
<polygon fill="#63b8ff" stroke="#63b8ff" points="533.13,-134.73 542.09,-129.08 531.57,-127.91 533.13,-134.73"/>
</a>
</g>
</g>
<!-- Node17 -->
<g id="Node000017" class="node">
<title>Node17</title>
<g id="a_Node000017"><a xlink:href="_i_close_8h.html" target="_top" xlink:title=" ">
<polygon fill="white" stroke="#666666" points="390.5,-129 306.5,-129 306.5,-110 390.5,-110 390.5,-129"/>
<text text-anchor="middle" x="348.5" y="-117" font-family="Helvetica,sans-Serif" font-size="10.00">Kit/Io/IClose.h</text>
</a>
</g>
</g>
<!-- Node15&#45;&gt;Node17 -->
<g id="edge22_Node000015_Node000017" class="edge">
<title>Node15&#45;&gt;Node17</title>
<g id="a_edge22_Node000015_Node000017"><a xlink:title=" ">
<path fill="none" stroke="#63b8ff" d="M348.5,-164.75C348.5,-157.8 348.5,-147.85 348.5,-139.13"/>
<polygon fill="#63b8ff" stroke="#63b8ff" points="352,-139.09 348.5,-129.09 345,-139.09 352,-139.09"/>
</a>
</g>
</g>
<!-- Node18 -->
<g id="Node000018" class="node">
<title>Node18</title>
<g id="a_Node000018"><a xlink:href="_i_eos_8h.html" target="_top" xlink:title=" ">
<polygon fill="white" stroke="#666666" points="482.5,-129 408.5,-129 408.5,-110 482.5,-110 482.5,-129"/>
<text text-anchor="middle" x="445.5" y="-117" font-family="Helvetica,sans-Serif" font-size="10.00">Kit/Io/IEos.h</text>
</a>
</g>
</g>
<!-- Node15&#45;&gt;Node18 -->
<g id="edge23_Node000015_Node000018" class="edge">
<title>Node15&#45;&gt;Node18</title>
<g id="a_edge23_Node000015_Node000018"><a xlink:title=" ">
<path fill="none" stroke="#63b8ff" d="M364.08,-164.98C379.27,-156.69 402.6,-143.94 420.4,-134.22"/>
<polygon fill="#63b8ff" stroke="#63b8ff" points="422.53,-137.04 429.63,-129.17 419.18,-130.89 422.53,-137.04"/>
</a>
</g>
</g>
<!-- Node16&#45;&gt;Node4 -->
<g id="edge20_Node000016_Node000004" class="edge">
<title>Node16&#45;&gt;Node4</title>
<g id="a_edge20_Node000016_Node000004"><a xlink:title=" ">
<path fill="none" stroke="#63b8ff" d="M562.99,-109.84C527.04,-91 441.49,-46.14 398.73,-23.73"/>
<polygon fill="#63b8ff" stroke="#63b8ff" points="400.28,-20.59 389.8,-19.05 397.03,-26.79 400.28,-20.59"/>
</a>
</g>
</g>
<!-- Node16&#45;&gt;Node12 -->
<g id="edge19_Node000016_Node000012" class="edge">
<title>Node16&#45;&gt;Node12</title>
<g id="a_edge19_Node000016_Node000012"><a xlink:title=" ">
<path fill="none" stroke="#63b8ff" d="M606.33,-109.98C634.37,-101.09 678.55,-87.07 709.8,-77.15"/>
<polygon fill="#63b8ff" stroke="#63b8ff" points="710.99,-80.44 719.46,-74.08 708.87,-73.77 710.99,-80.44"/>
</a>
</g>
</g>
<!-- Node16&#45;&gt;Node14 -->
<g id="edge18_Node000016_Node000014" class="edge">
<title>Node16&#45;&gt;Node14</title>
<g id="a_edge18_Node000016_Node000014"><a xlink:title=" ">
<path fill="none" stroke="#63b8ff" d="M590.26,-109.98C600.27,-102.07 615.39,-90.11 627.43,-80.58"/>
<polygon fill="#63b8ff" stroke="#63b8ff" points="629.87,-83.12 635.54,-74.17 625.53,-77.63 629.87,-83.12"/>
</a>
</g>
</g>
</g>
</svg>
