<?xml version="1.0" encoding="UTF-8" standalone="no"?>
<!DOCTYPE svg PUBLIC "-//W3C//DTD SVG 1.1//EN"
 "http://www.w3.org/Graphics/SVG/1.1/DTD/svg11.dtd">
<!-- Generated by graphviz version 2.43.0 (0)
 -->
<!-- Title: Kit/Dm/Mp/PrimitiveType.h Pages: 1 -->
<svg width="1675pt" height="302pt"
 viewBox="0.00 0.00 1675.00 302.00" xmlns="http://www.w3.org/2000/svg" xmlns:xlink="http://www.w3.org/1999/xlink">
<g id="graph0" class="graph" transform="scale(1 1) rotate(0) translate(4 298)">
<title>Kit/Dm/Mp/PrimitiveType.h</title>
<!-- Node1 -->
<g id="Node000001" class="node">
<title>Node1</title>
<g id="a_Node000001"><a xlink:title=" ">
<polygon fill="#999999" stroke="#666666" points="901,-294 754,-294 754,-275 901,-275 901,-294"/>
<text text-anchor="middle" x="827.5" y="-282" font-family="Helvetica,sans-Serif" font-size="10.00">Kit/Dm/Mp/PrimitiveType.h</text>
</a>
</g>
</g>
<!-- Node2 -->
<g id="Node000002" class="node">
<title>Node2</title>
<g id="a_Node000002"><a xlink:href="_bool_8h.html" target="_top" xlink:title=" ">
<polygon fill="white" stroke="#666666" points="134.5,-239 32.5,-239 32.5,-220 134.5,-220 134.5,-239"/>
<text text-anchor="middle" x="83.5" y="-227" font-family="Helvetica,sans-Serif" font-size="10.00">Kit/Dm/Mp/Bool.h</text>
</a>
</g>
</g>
<!-- Node1&#45;&gt;Node2 -->
<g id="edge1_Node000001_Node000002" class="edge">
<title>Node1&#45;&gt;Node2</title>
<g id="a_edge1_Node000001_Node000002"><a xlink:title=" ">
<path fill="none" stroke="#63b8ff" d="M743.75,-280.1C614.64,-274.39 359.31,-261.27 143.5,-239 140.57,-238.7 137.56,-238.36 134.53,-238"/>
<polygon fill="#63b8ff" stroke="#63b8ff" points="743.82,-283.6 753.96,-280.55 744.12,-276.61 743.82,-283.6"/>
</a>
</g>
</g>
<!-- Node4 -->
<g id="Node000004" class="node">
<title>Node4</title>
<g id="a_Node000004"><a xlink:href="_double_8h.html" target="_top" xlink:title=" ">
<polygon fill="white" stroke="#666666" points="268,-239 153,-239 153,-220 268,-220 268,-239"/>
<text text-anchor="middle" x="210.5" y="-227" font-family="Helvetica,sans-Serif" font-size="10.00">Kit/Dm/Mp/Double.h</text>
</a>
</g>
</g>
<!-- Node1&#45;&gt;Node4 -->
<g id="edge3_Node000001_Node000004" class="edge">
<title>Node1&#45;&gt;Node4</title>
<g id="a_edge3_Node000001_Node000004"><a xlink:title=" ">
<path fill="none" stroke="#63b8ff" d="M743.68,-277.97C635.57,-270.56 441.78,-256.31 276.5,-239 273.74,-238.71 270.92,-238.4 268.07,-238.08"/>
<polygon fill="#63b8ff" stroke="#63b8ff" points="743.65,-281.48 753.87,-278.67 744.13,-274.5 743.65,-281.48"/>
</a>
</g>
</g>
<!-- Node5 -->
<g id="Node000005" class="node">
<title>Node5</title>
<g id="a_Node000005"><a xlink:href="_float_8h.html" target="_top" xlink:title=" ">
<polygon fill="white" stroke="#666666" points="391,-239 286,-239 286,-220 391,-220 391,-239"/>
<text text-anchor="middle" x="338.5" y="-227" font-family="Helvetica,sans-Serif" font-size="10.00">Kit/Dm/Mp/Float.h</text>
</a>
</g>
</g>
<!-- Node1&#45;&gt;Node5 -->
<g id="edge4_Node000001_Node000005" class="edge">
<title>Node1&#45;&gt;Node5</title>
<g id="a_edge4_Node000001_Node000005"><a xlink:title=" ">
<path fill="none" stroke="#63b8ff" d="M743.94,-275.68C657.61,-267.4 518.99,-253.53 399.5,-239 396.74,-238.66 393.91,-238.31 391.06,-237.94"/>
<polygon fill="#63b8ff" stroke="#63b8ff" points="743.66,-279.17 753.95,-276.64 744.33,-272.2 743.66,-279.17"/>
</a>
</g>
</g>
<!-- Node6 -->
<g id="Node000006" class="node">
<title>Node6</title>
<g id="a_Node000006"><a xlink:href="_int16_8h.html" target="_top" xlink:title=" ">
<polygon fill="white" stroke="#666666" points="514,-239 409,-239 409,-220 514,-220 514,-239"/>
<text text-anchor="middle" x="461.5" y="-227" font-family="Helvetica,sans-Serif" font-size="10.00">Kit/Dm/Mp/Int16.h</text>
</a>
</g>
</g>
<!-- Node1&#45;&gt;Node6 -->
<g id="edge5_Node000001_Node000006" class="edge">
<title>Node1&#45;&gt;Node6</title>
<g id="a_edge5_Node000001_Node000006"><a xlink:title=" ">
<path fill="none" stroke="#63b8ff" d="M758.51,-273.51C687.55,-263.23 578.57,-247.45 514.22,-238.13"/>
<polygon fill="#63b8ff" stroke="#63b8ff" points="758.3,-277.02 768.7,-274.98 759.3,-270.09 758.3,-277.02"/>
</a>
</g>
</g>
<!-- Node7 -->
<g id="Node000007" class="node">
<title>Node7</title>
<g id="a_Node000007"><a xlink:href="_int32_8h.html" target="_top" xlink:title=" ">
<polygon fill="white" stroke="#666666" points="637,-239 532,-239 532,-220 637,-220 637,-239"/>
<text text-anchor="middle" x="584.5" y="-227" font-family="Helvetica,sans-Serif" font-size="10.00">Kit/Dm/Mp/Int32.h</text>
</a>
</g>
</g>
<!-- Node1&#45;&gt;Node7 -->
<g id="edge6_Node000001_Node000007" class="edge">
<title>Node1&#45;&gt;Node7</title>
<g id="a_edge6_Node000001_Node000007"><a xlink:title=" ">
<path fill="none" stroke="#63b8ff" d="M778.51,-272.82C732.97,-262.88 666,-248.28 623.85,-239.08"/>
<polygon fill="#63b8ff" stroke="#63b8ff" points="777.94,-276.27 788.46,-274.98 779.43,-269.43 777.94,-276.27"/>
</a>
</g>
</g>
<!-- Node8 -->
<g id="Node000008" class="node">
<title>Node8</title>
<g id="a_Node000008"><a xlink:href="_int64_8h.html" target="_top" xlink:title=" ">
<polygon fill="white" stroke="#666666" points="760,-239 655,-239 655,-220 760,-220 760,-239"/>
<text text-anchor="middle" x="707.5" y="-227" font-family="Helvetica,sans-Serif" font-size="10.00">Kit/Dm/Mp/Int64.h</text>
</a>
</g>
</g>
<!-- Node1&#45;&gt;Node8 -->
<g id="edge7_Node000001_Node000008" class="edge">
<title>Node1&#45;&gt;Node8</title>
<g id="a_edge7_Node000001_Node000008"><a xlink:title=" ">
<path fill="none" stroke="#63b8ff" d="M798.97,-270.9C776.8,-261.11 746.65,-247.79 727.13,-239.17"/>
<polygon fill="#63b8ff" stroke="#63b8ff" points="797.66,-274.15 808.22,-274.98 800.49,-267.74 797.66,-274.15"/>
</a>
</g>
</g>
<!-- Node9 -->
<g id="Node000009" class="node">
<title>Node9</title>
<g id="a_Node000009"><a xlink:href="_int8_8h.html" target="_top" xlink:title=" ">
<polygon fill="white" stroke="#666666" points="877,-239 778,-239 778,-220 877,-220 877,-239"/>
<text text-anchor="middle" x="827.5" y="-227" font-family="Helvetica,sans-Serif" font-size="10.00">Kit/Dm/Mp/Int8.h</text>
</a>
</g>
</g>
<!-- Node1&#45;&gt;Node9 -->
<g id="edge8_Node000001_Node000009" class="edge">
<title>Node1&#45;&gt;Node9</title>
<g id="a_edge8_Node000001_Node000009"><a xlink:title=" ">
<path fill="none" stroke="#63b8ff" d="M827.5,-264.66C827.5,-255.93 827.5,-245.99 827.5,-239.09"/>
<polygon fill="#63b8ff" stroke="#63b8ff" points="824,-264.75 827.5,-274.75 831,-264.75 824,-264.75"/>
</a>
</g>
</g>
<!-- Node10 -->
<g id="Node000010" class="node">
<title>Node10</title>
<g id="a_Node000010"><a xlink:href="_ref_counter_8h.html" target="_top" xlink:title=" ">
<polygon fill="white" stroke="#666666" points="1029.5,-239 895.5,-239 895.5,-220 1029.5,-220 1029.5,-239"/>
<text text-anchor="middle" x="962.5" y="-227" font-family="Helvetica,sans-Serif" font-size="10.00">Kit/Dm/Mp/RefCounter.h</text>
</a>
</g>
</g>
<!-- Node1&#45;&gt;Node10 -->
<g id="edge9_Node000001_Node000010" class="edge">
<title>Node1&#45;&gt;Node10</title>
<g id="a_edge9_Node000001_Node000010"><a xlink:title=" ">
<path fill="none" stroke="#63b8ff" d="M858.6,-271.29C883.62,-261.47 918.16,-247.91 940.42,-239.17"/>
<polygon fill="#63b8ff" stroke="#63b8ff" points="857.22,-268.07 849.19,-274.98 859.78,-274.59 857.22,-268.07"/>
</a>
</g>
</g>
<!-- Node11 -->
<g id="Node000011" class="node">
<title>Node11</title>
<g id="a_Node000011"><a xlink:href="_uint16_8h.html" target="_top" xlink:title=" ">
<polygon fill="white" stroke="#666666" points="1292,-239 1179,-239 1179,-220 1292,-220 1292,-239"/>
<text text-anchor="middle" x="1235.5" y="-227" font-family="Helvetica,sans-Serif" font-size="10.00">Kit/Dm/Mp/Uint16.h</text>
</a>
</g>
</g>
<!-- Node1&#45;&gt;Node11 -->
<g id="edge10_Node000001_Node000011" class="edge">
<title>Node1&#45;&gt;Node11</title>
<g id="a_edge10_Node000001_Node000011"><a xlink:title=" ">
<path fill="none" stroke="#63b8ff" d="M903.05,-273.69C982.95,-263.31 1107.17,-247.17 1178.99,-237.84"/>
<polygon fill="#63b8ff" stroke="#63b8ff" points="902.52,-270.23 893.05,-274.98 903.42,-277.17 902.52,-270.23"/>
</a>
</g>
</g>
<!-- Node13 -->
<g id="Node000013" class="node">
<title>Node13</title>
<g id="a_Node000013"><a xlink:href="_uint32_8h.html" target="_top" xlink:title=" ">
<polygon fill="white" stroke="#666666" points="1161,-239 1048,-239 1048,-220 1161,-220 1161,-239"/>
<text text-anchor="middle" x="1104.5" y="-227" font-family="Helvetica,sans-Serif" font-size="10.00">Kit/Dm/Mp/Uint32.h</text>
</a>
</g>
</g>
<!-- Node1&#45;&gt;Node13 -->
<g id="edge12_Node000001_Node000013" class="edge">
<title>Node1&#45;&gt;Node13</title>
<g id="a_edge12_Node000001_Node000013"><a xlink:title=" ">
<path fill="none" stroke="#63b8ff" d="M882.04,-273.07C933.97,-263.13 1011.19,-248.35 1059.65,-239.08"/>
<polygon fill="#63b8ff" stroke="#63b8ff" points="881.17,-269.67 872,-274.98 882.48,-276.54 881.17,-269.67"/>
</a>
</g>
</g>
<!-- Node23 -->
<g id="Node000023" class="node">
<title>Node23</title>
<g id="a_Node000023"><a xlink:href="_uint64_8h.html" target="_top" xlink:title=" ">
<polygon fill="white" stroke="#666666" points="1423,-239 1310,-239 1310,-220 1423,-220 1423,-239"/>
<text text-anchor="middle" x="1366.5" y="-227" font-family="Helvetica,sans-Serif" font-size="10.00">Kit/Dm/Mp/Uint64.h</text>
</a>
</g>
</g>
<!-- Node1&#45;&gt;Node23 -->
<g id="edge24_Node000001_Node000023" class="edge">
<title>Node1&#45;&gt;Node23</title>
<g id="a_edge24_Node000001_Node000023"><a xlink:title=" ">
<path fill="none" stroke="#63b8ff" d="M911.17,-276.57C1005.96,-268.51 1164.99,-254.33 1301.5,-239 1304.21,-238.7 1306.99,-238.37 1309.79,-238.04"/>
<polygon fill="#63b8ff" stroke="#63b8ff" points="910.74,-273.1 901.07,-277.43 911.33,-280.07 910.74,-273.1"/>
</a>
</g>
</g>
<!-- Node24 -->
<g id="Node000024" class="node">
<title>Node24</title>
<g id="a_Node000024"><a xlink:href="_uint8_8h.html" target="_top" xlink:title=" ">
<polygon fill="white" stroke="#666666" points="1548,-239 1441,-239 1441,-220 1548,-220 1548,-239"/>
<text text-anchor="middle" x="1494.5" y="-227" font-family="Helvetica,sans-Serif" font-size="10.00">Kit/Dm/Mp/Uint8.h</text>
</a>
</g>
</g>
<!-- Node1&#45;&gt;Node24 -->
<g id="edge25_Node000001_Node000024" class="edge">
<title>Node1&#45;&gt;Node24</title>
<g id="a_edge25_Node000001_Node000024"><a xlink:title=" ">
<path fill="none" stroke="#63b8ff" d="M911.52,-278.99C1028.49,-272.34 1246.95,-258.52 1432.5,-239 1435.2,-238.72 1437.97,-238.41 1440.76,-238.08"/>
<polygon fill="#63b8ff" stroke="#63b8ff" points="910.99,-275.52 901.21,-279.58 911.39,-282.51 910.99,-275.52"/>
</a>
</g>
</g>
<!-- Node25 -->
<g id="Node000025" class="node">
<title>Node25</title>
<g id="a_Node000025"><a xlink:href="_void_8h.html" target="_top" xlink:title=" ">
<polygon fill="white" stroke="#666666" points="1667,-239 1566,-239 1566,-220 1667,-220 1667,-239"/>
<text text-anchor="middle" x="1616.5" y="-227" font-family="Helvetica,sans-Serif" font-size="10.00">Kit/Dm/Mp/Void.h</text>
</a>
</g>
</g>
<!-- Node1&#45;&gt;Node25 -->
<g id="edge27_Node000001_Node000025" class="edge">
<title>Node1&#45;&gt;Node25</title>
<g id="a_edge27_Node000001_Node000025"><a xlink:title=" ">
<path fill="none" stroke="#63b8ff" d="M911.57,-280.62C1047.59,-275.46 1324.22,-262.87 1557.5,-239 1560.18,-238.73 1562.92,-238.42 1565.68,-238.09"/>
<polygon fill="#63b8ff" stroke="#63b8ff" points="911.09,-277.14 901.23,-281.01 911.36,-284.13 911.09,-277.14"/>
</a>
</g>
</g>
<!-- Node3 -->
<g id="Node000003" class="node">
<title>Node3</title>
<g id="a_Node000003"><a xlink:href="_dm_2_transaction_2_model_points_8h.html" target="_top" xlink:title="This file defines all of the Model Points for Example application.">
<polygon fill="white" stroke="#666666" points="167,-184 0,-184 0,-143 167,-143 167,-184"/>
<text text-anchor="start" x="8" y="-172" font-family="Helvetica,sans-Serif" font-size="10.00">/home/runner/work/kit.core</text>
<text text-anchor="start" x="8" y="-161" font-family="Helvetica,sans-Serif" font-size="10.00">/kit.core/projects/examples</text>
<text text-anchor="middle" x="83.5" y="-150" font-family="Helvetica,sans-Serif" font-size="10.00">/Dm/Transaction/ModelPoints.h</text>
</a>
</g>
</g>
<!-- Node2&#45;&gt;Node3 -->
<g id="edge2_Node000002_Node000003" class="edge">
<title>Node2&#45;&gt;Node3</title>
<g id="a_edge2_Node000002_Node000003"><a xlink:title=" ">
<path fill="none" stroke="#63b8ff" d="M83.5,-209.63C83.5,-201.56 83.5,-192.15 83.5,-184.01"/>
<polygon fill="#63b8ff" stroke="#63b8ff" points="80,-209.87 83.5,-219.87 87,-209.87 80,-209.87"/>
</a>
</g>
</g>
<!-- Node12 -->
<g id="Node000012" class="node">
<title>Node12</title>
<g id="a_Node000012"><a xlink:href="_boot_time_8h.html" target="_top" xlink:title=" ">
<polygon fill="white" stroke="#666666" points="1423,-173 1306,-173 1306,-154 1423,-154 1423,-173"/>
<text text-anchor="middle" x="1364.5" y="-161" font-family="Helvetica,sans-Serif" font-size="10.00">Kit/Time/BootTime.h</text>
</a>
</g>
</g>
<!-- Node11&#45;&gt;Node12 -->
<g id="edge11_Node000011_Node000012" class="edge">
<title>Node11&#45;&gt;Node12</title>
<g id="a_edge11_Node000011_Node000012"><a xlink:title=" ">
<path fill="none" stroke="#63b8ff" d="M1261.98,-215.36C1287.4,-202.75 1325.07,-184.06 1346.97,-173.2"/>
<polygon fill="#63b8ff" stroke="#63b8ff" points="1260.3,-212.29 1252.9,-219.87 1263.41,-218.56 1260.3,-212.29"/>
</a>
</g>
</g>
<!-- Node13&#45;&gt;Node12 -->
<g id="edge23_Node000013_Node000012" class="edge">
<title>Node13&#45;&gt;Node12</title>
<g id="a_edge23_Node000013_Node000012"><a xlink:title=" ">
<path fill="none" stroke="#63b8ff" d="M1152.05,-217.56C1189.89,-208.77 1244.18,-195.95 1291.5,-184 1305.24,-180.53 1320.38,-176.52 1333.29,-173.04"/>
<polygon fill="#63b8ff" stroke="#63b8ff" points="1150.78,-214.27 1141.83,-219.93 1152.36,-221.08 1150.78,-214.27"/>
</a>
</g>
</g>
<!-- Node14 -->
<g id="Node000014" class="node">
<title>Node14</title>
<g id="a_Node000014"><a xlink:href="_container_2_ring_buffer_2_model_points_8h.html" target="_top" xlink:title="This file defines all of the Model Points for Example application.">
<polygon fill="white" stroke="#666666" points="817,-184 624,-184 624,-143 817,-143 817,-184"/>
<text text-anchor="start" x="632" y="-172" font-family="Helvetica,sans-Serif" font-size="10.00">/home/runner/work/kit.core</text>
<text text-anchor="start" x="632" y="-161" font-family="Helvetica,sans-Serif" font-size="10.00">/kit.core/projects/examples</text>
<text text-anchor="middle" x="720.5" y="-150" font-family="Helvetica,sans-Serif" font-size="10.00">/Container/RingBuffer/ModelPoints.h</text>
</a>
</g>
</g>
<!-- Node13&#45;&gt;Node14 -->
<g id="edge13_Node000013_Node000014" class="edge">
<title>Node13&#45;&gt;Node14</title>
<g id="a_edge13_Node000013_Node000014"><a xlink:title=" ">
<path fill="none" stroke="#63b8ff" d="M1038.43,-218.45C981.85,-209.72 898.23,-196.55 825.5,-184 822.76,-183.53 819.98,-183.04 817.17,-182.55"/>
<polygon fill="#63b8ff" stroke="#63b8ff" points="1037.9,-221.91 1048.32,-219.97 1038.97,-214.99 1037.9,-221.91"/>
</a>
</g>
</g>
<!-- Node15 -->
<g id="Node000015" class="node">
<title>Node15</title>
<g id="a_Node000015"><a xlink:href="_ring_buffer_m_p_8h.html" target="_top" xlink:title=" ">
<polygon fill="white" stroke="#666666" points="992,-173 835,-173 835,-154 992,-154 992,-173"/>
<text text-anchor="middle" x="913.5" y="-161" font-family="Helvetica,sans-Serif" font-size="10.00">Kit/Container/RingBufferMP.h</text>
</a>
</g>
</g>
<!-- Node13&#45;&gt;Node15 -->
<g id="edge14_Node000013_Node000015" class="edge">
<title>Node13&#45;&gt;Node15</title>
<g id="a_edge14_Node000013_Node000015"><a xlink:title=" ">
<path fill="none" stroke="#63b8ff" d="M1069.17,-216.66C1031.47,-204.03 972.66,-184.32 939.16,-173.1"/>
<polygon fill="#63b8ff" stroke="#63b8ff" points="1068.15,-220.01 1078.74,-219.87 1070.37,-213.37 1068.15,-220.01"/>
</a>
</g>
</g>
<!-- Node19 -->
<g id="Node000019" class="node">
<title>Node19</title>
<g id="a_Node000019"><a xlink:href="_kit_only_8h.html" target="_top" xlink:title=" ">
<polygon fill="white" stroke="#666666" points="975,-30 846,-30 846,0 975,0 975,-30"/>
<text text-anchor="start" x="854" y="-18" font-family="Helvetica,sans-Serif" font-size="10.00">Kit/Logging/Framework</text>
<text text-anchor="middle" x="910.5" y="-7" font-family="Helvetica,sans-Serif" font-size="10.00">/Mocked4Test/KitOnly.h</text>
</a>
</g>
</g>
<!-- Node13&#45;&gt;Node19 -->
<g id="edge22_Node000013_Node000019" class="edge">
<title>Node13&#45;&gt;Node19</title>
<g id="a_edge22_Node000013_Node000019"><a xlink:title=" ">
<path fill="none" stroke="#63b8ff" d="M1133.42,-215.62C1190.38,-188.58 1307.38,-123.59 1257.5,-66 1221.73,-24.71 1065.52,-16.74 975.36,-15.67"/>
<polygon fill="#63b8ff" stroke="#63b8ff" points="1131.77,-212.53 1124.19,-219.93 1134.73,-218.88 1131.77,-212.53"/>
</a>
</g>
</g>
<!-- Node16 -->
<g id="Node000016" class="node">
<title>Node16</title>
<g id="a_Node000016"><a xlink:href="_led_server_8h.html" target="_top" xlink:title=" ">
<polygon fill="white" stroke="#666666" points="1249,-107 1068,-107 1068,-66 1249,-66 1249,-107"/>
<text text-anchor="start" x="1076" y="-95" font-family="Helvetica,sans-Serif" font-size="10.00">/home/runner/work/kit.core</text>
<text text-anchor="start" x="1076" y="-84" font-family="Helvetica,sans-Serif" font-size="10.00">/kit.core/projects/examples</text>
<text text-anchor="middle" x="1158.5" y="-73" font-family="Helvetica,sans-Serif" font-size="10.00">/Container/RingBuffer/LedServer.h</text>
</a>
</g>
</g>
<!-- Node15&#45;&gt;Node16 -->
<g id="edge15_Node000015_Node000016" class="edge">
<title>Node15&#45;&gt;Node16</title>
<g id="a_edge15_Node000015_Node000016"><a xlink:title=" ">
<path fill="none" stroke="#63b8ff" d="M951.3,-150.93C989.46,-139.25 1049.11,-120.99 1094.62,-107.05"/>
<polygon fill="#63b8ff" stroke="#63b8ff" points="950.14,-147.62 941.6,-153.9 952.19,-154.32 950.14,-147.62"/>
</a>
</g>
</g>
<!-- Node17 -->
<g id="Node000017" class="node">
<title>Node17</title>
<g id="a_Node000017"><a xlink:href="_producer_8h.html" target="_top" xlink:title=" ">
<polygon fill="white" stroke="#666666" points="458,-107 283,-107 283,-66 458,-66 458,-107"/>
<text text-anchor="start" x="291" y="-95" font-family="Helvetica,sans-Serif" font-size="10.00">/home/runner/work/kit.core</text>
<text text-anchor="start" x="291" y="-84" font-family="Helvetica,sans-Serif" font-size="10.00">/kit.core/projects/examples</text>
<text text-anchor="middle" x="370.5" y="-73" font-family="Helvetica,sans-Serif" font-size="10.00">/Container/RingBuffer/Producer.h</text>
</a>
</g>
</g>
<!-- Node15&#45;&gt;Node17 -->
<g id="edge16_Node000015_Node000017" class="edge">
<title>Node15&#45;&gt;Node17</title>
<g id="a_edge16_Node000015_Node000017"><a xlink:title=" ">
<path fill="none" stroke="#63b8ff" d="M869.53,-151.69C855.53,-148.53 839.92,-145.31 825.5,-143 667.61,-117.66 625.63,-130.79 467.5,-107 464.44,-106.54 461.34,-106.05 458.2,-105.53"/>
<polygon fill="#63b8ff" stroke="#63b8ff" points="868.88,-155.13 879.41,-153.96 870.45,-148.31 868.88,-155.13"/>
</a>
</g>
</g>
<!-- Node18 -->
<g id="Node000018" class="node">
<title>Node18</title>
<g id="a_Node000018"><a xlink:href="_ring_buffer_m_p_allocate_8h.html" target="_top" xlink:title=" ">
<polygon fill="white" stroke="#666666" points="610.5,-101.5 476.5,-101.5 476.5,-71.5 610.5,-71.5 610.5,-101.5"/>
<text text-anchor="start" x="484.5" y="-89.5" font-family="Helvetica,sans-Serif" font-size="10.00">Kit/Container/RingBuffer</text>
<text text-anchor="middle" x="543.5" y="-78.5" font-family="Helvetica,sans-Serif" font-size="10.00">MPAllocate.h</text>
</a>
</g>
</g>
<!-- Node15&#45;&gt;Node18 -->
<g id="edge17_Node000015_Node000018" class="edge">
<title>Node15&#45;&gt;Node18</title>
<g id="a_edge17_Node000015_Node000018"><a xlink:title=" ">
<path fill="none" stroke="#63b8ff" d="M866.84,-151.75C853.51,-148.79 838.96,-145.67 825.5,-143 734.33,-124.94 710.36,-126.56 619.5,-107 611.91,-105.37 603.93,-103.49 596.11,-101.57"/>
<polygon fill="#63b8ff" stroke="#63b8ff" points="866.23,-155.2 876.76,-153.97 867.76,-148.37 866.23,-155.2"/>
</a>
</g>
</g>
<!-- Node20 -->
<g id="Node000020" class="node">
<title>Node20</title>
<g id="a_Node000020"><a xlink:href="_log_sink_8h.html" target="_top" xlink:title=" ">
<polygon fill="white" stroke="#666666" points="758,-101.5 629,-101.5 629,-71.5 758,-71.5 758,-101.5"/>
<text text-anchor="start" x="637" y="-89.5" font-family="Helvetica,sans-Serif" font-size="10.00">Kit/Logging/Framework</text>
<text text-anchor="middle" x="693.5" y="-78.5" font-family="Helvetica,sans-Serif" font-size="10.00">/LogSink.h</text>
</a>
</g>
</g>
<!-- Node15&#45;&gt;Node20 -->
<g id="edge19_Node000015_Node000020" class="edge">
<title>Node15&#45;&gt;Node20</title>
<g id="a_edge19_Node000015_Node000020"><a xlink:title=" ">
<path fill="none" stroke="#63b8ff" d="M878.4,-150.53C839.35,-137.22 776.32,-115.73 734.9,-101.61"/>
<polygon fill="#63b8ff" stroke="#63b8ff" points="877.67,-153.98 888.26,-153.9 879.93,-147.36 877.67,-153.98"/>
</a>
</g>
</g>
<!-- Node21 -->
<g id="Node000021" class="node">
<title>Node21</title>
<g id="a_Node000021"><a xlink:href="_logger_8h.html" target="_top" xlink:title="This file declares the public facing Logging interface for managing the logging framework (i....">
<polygon fill="white" stroke="#666666" points="905,-101.5 776,-101.5 776,-71.5 905,-71.5 905,-101.5"/>
<text text-anchor="start" x="784" y="-89.5" font-family="Helvetica,sans-Serif" font-size="10.00">Kit/Logging/Framework</text>
<text text-anchor="middle" x="840.5" y="-78.5" font-family="Helvetica,sans-Serif" font-size="10.00">/Logger.h</text>
</a>
</g>
</g>
<!-- Node15&#45;&gt;Node21 -->
<g id="edge20_Node000015_Node000021" class="edge">
<title>Node15&#45;&gt;Node21</title>
<g id="a_edge20_Node000015_Node000021"><a xlink:title=" ">
<path fill="none" stroke="#63b8ff" d="M897.84,-146.41C884.87,-133.09 866.64,-114.35 854.24,-101.61"/>
<polygon fill="#63b8ff" stroke="#63b8ff" points="895.64,-149.17 905.13,-153.9 900.66,-144.29 895.64,-149.17"/>
</a>
</g>
</g>
<!-- Node22 -->
<g id="Node000022" class="node">
<title>Node22</title>
<g id="a_Node000022"><a xlink:href="src_2_kit_2_persistence_2_record_2_journal_2_server_8h.html" target="_top" xlink:title=" ">
<polygon fill="white" stroke="#666666" points="1049.5,-101.5 923.5,-101.5 923.5,-71.5 1049.5,-71.5 1049.5,-101.5"/>
<text text-anchor="start" x="931.5" y="-89.5" font-family="Helvetica,sans-Serif" font-size="10.00">Kit/Persistence/Record</text>
<text text-anchor="middle" x="986.5" y="-78.5" font-family="Helvetica,sans-Serif" font-size="10.00">/Journal/Server.h</text>
</a>
</g>
</g>
<!-- Node15&#45;&gt;Node22 -->
<g id="edge21_Node000015_Node000022" class="edge">
<title>Node15&#45;&gt;Node22</title>
<g id="a_edge21_Node000015_Node000022"><a xlink:title=" ">
<path fill="none" stroke="#63b8ff" d="M929.16,-146.41C942.13,-133.09 960.36,-114.35 972.76,-101.61"/>
<polygon fill="#63b8ff" stroke="#63b8ff" points="926.34,-144.29 921.87,-153.9 931.36,-149.17 926.34,-144.29"/>
</a>
</g>
</g>
<!-- Node18&#45;&gt;Node19 -->
<g id="edge18_Node000018_Node000019" class="edge">
<title>Node18&#45;&gt;Node19</title>
<g id="a_edge18_Node000018_Node000019"><a xlink:title=" ">
<path fill="none" stroke="#63b8ff" d="M606.05,-69.02C610.59,-67.96 615.11,-66.94 619.5,-66 696.82,-49.47 786.61,-34.7 845.78,-25.58"/>
<polygon fill="#63b8ff" stroke="#63b8ff" points="605.02,-65.67 596.11,-71.41 606.65,-72.48 605.02,-65.67"/>
</a>
</g>
</g>
<!-- Node24&#45;&gt;Node12 -->
<g id="edge26_Node000024_Node000012" class="edge">
<title>Node24&#45;&gt;Node12</title>
<g id="a_edge26_Node000024_Node000012"><a xlink:title=" ">
<path fill="none" stroke="#63b8ff" d="M1467.81,-215.36C1442.2,-202.75 1404.24,-184.06 1382.17,-173.2"/>
<polygon fill="#63b8ff" stroke="#63b8ff" points="1466.45,-218.59 1476.97,-219.87 1469.54,-212.31 1466.45,-218.59"/>
</a>
</g>
</g>
</g>
</svg>
