<?xml version="1.0" encoding="UTF-8" standalone="no"?>
<!DOCTYPE svg PUBLIC "-//W3C//DTD SVG 1.1//EN"
 "http://www.w3.org/Graphics/SVG/1.1/DTD/svg11.dtd">
<!-- Generated by graphviz version 2.43.0 (0)
 -->
<!-- Title: Kit/Dm/Mp/PrimitiveType.h Pages: 1 -->
<svg width="1675pt" height="236pt"
 viewBox="0.00 0.00 1675.00 236.00" xmlns="http://www.w3.org/2000/svg" xmlns:xlink="http://www.w3.org/1999/xlink">
<g id="graph0" class="graph" transform="scale(1 1) rotate(0) translate(4 232)">
<title>Kit/Dm/Mp/PrimitiveType.h</title>
<!-- Node1 -->
<g id="Node000001" class="node">
<title>Node1</title>
<g id="a_Node000001"><a xlink:title=" ">
<polygon fill="#999999" stroke="#666666" points="901,-228 754,-228 754,-209 901,-209 901,-228"/>
<text text-anchor="middle" x="827.5" y="-216" font-family="Helvetica,sans-Serif" font-size="10.00">Kit/Dm/Mp/PrimitiveType.h</text>
</a>
</g>
</g>
<!-- Node2 -->
<g id="Node000002" class="node">
<title>Node2</title>
<g id="a_Node000002"><a xlink:href="_bool_8h.html" target="_top" xlink:title=" ">
<polygon fill="white" stroke="#666666" points="134.5,-173 32.5,-173 32.5,-154 134.5,-154 134.5,-173"/>
<text text-anchor="middle" x="83.5" y="-161" font-family="Helvetica,sans-Serif" font-size="10.00">Kit/Dm/Mp/Bool.h</text>
</a>
</g>
</g>
<!-- Node1&#45;&gt;Node2 -->
<g id="edge1_Node000001_Node000002" class="edge">
<title>Node1&#45;&gt;Node2</title>
<g id="a_edge1_Node000001_Node000002"><a xlink:title=" ">
<path fill="none" stroke="#63b8ff" d="M743.75,-214.1C614.64,-208.39 359.31,-195.27 143.5,-173 140.57,-172.7 137.56,-172.36 134.53,-172"/>
<polygon fill="#63b8ff" stroke="#63b8ff" points="743.82,-217.6 753.96,-214.55 744.12,-210.61 743.82,-217.6"/>
</a>
</g>
</g>
<!-- Node4 -->
<g id="Node000004" class="node">
<title>Node4</title>
<g id="a_Node000004"><a xlink:href="_double_8h.html" target="_top" xlink:title=" ">
<polygon fill="white" stroke="#666666" points="268,-173 153,-173 153,-154 268,-154 268,-173"/>
<text text-anchor="middle" x="210.5" y="-161" font-family="Helvetica,sans-Serif" font-size="10.00">Kit/Dm/Mp/Double.h</text>
</a>
</g>
</g>
<!-- Node1&#45;&gt;Node4 -->
<g id="edge3_Node000001_Node000004" class="edge">
<title>Node1&#45;&gt;Node4</title>
<g id="a_edge3_Node000001_Node000004"><a xlink:title=" ">
<path fill="none" stroke="#63b8ff" d="M743.68,-211.97C635.57,-204.56 441.78,-190.31 276.5,-173 273.74,-172.71 270.92,-172.4 268.07,-172.08"/>
<polygon fill="#63b8ff" stroke="#63b8ff" points="743.65,-215.48 753.87,-212.67 744.13,-208.5 743.65,-215.48"/>
</a>
</g>
</g>
<!-- Node5 -->
<g id="Node000005" class="node">
<title>Node5</title>
<g id="a_Node000005"><a xlink:href="_float_8h.html" target="_top" xlink:title=" ">
<polygon fill="white" stroke="#666666" points="391,-173 286,-173 286,-154 391,-154 391,-173"/>
<text text-anchor="middle" x="338.5" y="-161" font-family="Helvetica,sans-Serif" font-size="10.00">Kit/Dm/Mp/Float.h</text>
</a>
</g>
</g>
<!-- Node1&#45;&gt;Node5 -->
<g id="edge4_Node000001_Node000005" class="edge">
<title>Node1&#45;&gt;Node5</title>
<g id="a_edge4_Node000001_Node000005"><a xlink:title=" ">
<path fill="none" stroke="#63b8ff" d="M743.94,-209.68C657.61,-201.4 518.99,-187.53 399.5,-173 396.74,-172.66 393.91,-172.31 391.06,-171.94"/>
<polygon fill="#63b8ff" stroke="#63b8ff" points="743.66,-213.17 753.95,-210.64 744.33,-206.2 743.66,-213.17"/>
</a>
</g>
</g>
<!-- Node6 -->
<g id="Node000006" class="node">
<title>Node6</title>
<g id="a_Node000006"><a xlink:href="_int16_8h.html" target="_top" xlink:title=" ">
<polygon fill="white" stroke="#666666" points="514,-173 409,-173 409,-154 514,-154 514,-173"/>
<text text-anchor="middle" x="461.5" y="-161" font-family="Helvetica,sans-Serif" font-size="10.00">Kit/Dm/Mp/Int16.h</text>
</a>
</g>
</g>
<!-- Node1&#45;&gt;Node6 -->
<g id="edge5_Node000001_Node000006" class="edge">
<title>Node1&#45;&gt;Node6</title>
<g id="a_edge5_Node000001_Node000006"><a xlink:title=" ">
<path fill="none" stroke="#63b8ff" d="M758.51,-207.51C687.55,-197.23 578.57,-181.45 514.22,-172.13"/>
<polygon fill="#63b8ff" stroke="#63b8ff" points="758.3,-211.02 768.7,-208.98 759.3,-204.09 758.3,-211.02"/>
</a>
</g>
</g>
<!-- Node7 -->
<g id="Node000007" class="node">
<title>Node7</title>
<g id="a_Node000007"><a xlink:href="_int32_8h.html" target="_top" xlink:title=" ">
<polygon fill="white" stroke="#666666" points="637,-173 532,-173 532,-154 637,-154 637,-173"/>
<text text-anchor="middle" x="584.5" y="-161" font-family="Helvetica,sans-Serif" font-size="10.00">Kit/Dm/Mp/Int32.h</text>
</a>
</g>
</g>
<!-- Node1&#45;&gt;Node7 -->
<g id="edge6_Node000001_Node000007" class="edge">
<title>Node1&#45;&gt;Node7</title>
<g id="a_edge6_Node000001_Node000007"><a xlink:title=" ">
<path fill="none" stroke="#63b8ff" d="M778.51,-206.82C732.97,-196.88 666,-182.28 623.85,-173.08"/>
<polygon fill="#63b8ff" stroke="#63b8ff" points="777.94,-210.27 788.46,-208.98 779.43,-203.43 777.94,-210.27"/>
</a>
</g>
</g>
<!-- Node8 -->
<g id="Node000008" class="node">
<title>Node8</title>
<g id="a_Node000008"><a xlink:href="_int64_8h.html" target="_top" xlink:title=" ">
<polygon fill="white" stroke="#666666" points="760,-173 655,-173 655,-154 760,-154 760,-173"/>
<text text-anchor="middle" x="707.5" y="-161" font-family="Helvetica,sans-Serif" font-size="10.00">Kit/Dm/Mp/Int64.h</text>
</a>
</g>
</g>
<!-- Node1&#45;&gt;Node8 -->
<g id="edge7_Node000001_Node000008" class="edge">
<title>Node1&#45;&gt;Node8</title>
<g id="a_edge7_Node000001_Node000008"><a xlink:title=" ">
<path fill="none" stroke="#63b8ff" d="M798.97,-204.9C776.8,-195.11 746.65,-181.79 727.13,-173.17"/>
<polygon fill="#63b8ff" stroke="#63b8ff" points="797.66,-208.15 808.22,-208.98 800.49,-201.74 797.66,-208.15"/>
</a>
</g>
</g>
<!-- Node9 -->
<g id="Node000009" class="node">
<title>Node9</title>
<g id="a_Node000009"><a xlink:href="_int8_8h.html" target="_top" xlink:title=" ">
<polygon fill="white" stroke="#666666" points="877,-173 778,-173 778,-154 877,-154 877,-173"/>
<text text-anchor="middle" x="827.5" y="-161" font-family="Helvetica,sans-Serif" font-size="10.00">Kit/Dm/Mp/Int8.h</text>
</a>
</g>
</g>
<!-- Node1&#45;&gt;Node9 -->
<g id="edge8_Node000001_Node000009" class="edge">
<title>Node1&#45;&gt;Node9</title>
<g id="a_edge8_Node000001_Node000009"><a xlink:title=" ">
<path fill="none" stroke="#63b8ff" d="M827.5,-198.66C827.5,-189.93 827.5,-179.99 827.5,-173.09"/>
<polygon fill="#63b8ff" stroke="#63b8ff" points="824,-198.75 827.5,-208.75 831,-198.75 824,-198.75"/>
</a>
</g>
</g>
<!-- Node10 -->
<g id="Node000010" class="node">
<title>Node10</title>
<g id="a_Node000010"><a xlink:href="_ref_counter_8h.html" target="_top" xlink:title=" ">
<polygon fill="white" stroke="#666666" points="1029.5,-173 895.5,-173 895.5,-154 1029.5,-154 1029.5,-173"/>
<text text-anchor="middle" x="962.5" y="-161" font-family="Helvetica,sans-Serif" font-size="10.00">Kit/Dm/Mp/RefCounter.h</text>
</a>
</g>
</g>
<!-- Node1&#45;&gt;Node10 -->
<g id="edge9_Node000001_Node000010" class="edge">
<title>Node1&#45;&gt;Node10</title>
<g id="a_edge9_Node000001_Node000010"><a xlink:title=" ">
<path fill="none" stroke="#63b8ff" d="M858.6,-205.29C883.62,-195.47 918.16,-181.91 940.42,-173.17"/>
<polygon fill="#63b8ff" stroke="#63b8ff" points="857.22,-202.07 849.19,-208.98 859.78,-208.59 857.22,-202.07"/>
</a>
</g>
</g>
<!-- Node11 -->
<g id="Node000011" class="node">
<title>Node11</title>
<g id="a_Node000011"><a xlink:href="_uint16_8h.html" target="_top" xlink:title=" ">
<polygon fill="white" stroke="#666666" points="1292,-173 1179,-173 1179,-154 1292,-154 1292,-173"/>
<text text-anchor="middle" x="1235.5" y="-161" font-family="Helvetica,sans-Serif" font-size="10.00">Kit/Dm/Mp/Uint16.h</text>
</a>
</g>
</g>
<!-- Node1&#45;&gt;Node11 -->
<g id="edge10_Node000001_Node000011" class="edge">
<title>Node1&#45;&gt;Node11</title>
<g id="a_edge10_Node000001_Node000011"><a xlink:title=" ">
<path fill="none" stroke="#63b8ff" d="M903.24,-207.7C972.75,-198.69 1078.56,-184.98 1170.5,-173 1173.21,-172.65 1175.98,-172.29 1178.78,-171.92"/>
<polygon fill="#63b8ff" stroke="#63b8ff" points="902.73,-204.23 893.26,-208.99 903.62,-211.18 902.73,-204.23"/>
</a>
</g>
</g>
<!-- Node13 -->
<g id="Node000013" class="node">
<title>Node13</title>
<g id="a_Node000013"><a xlink:href="_uint32_8h.html" target="_top" xlink:title=" ">
<polygon fill="white" stroke="#666666" points="1161,-173 1048,-173 1048,-154 1161,-154 1161,-173"/>
<text text-anchor="middle" x="1104.5" y="-161" font-family="Helvetica,sans-Serif" font-size="10.00">Kit/Dm/Mp/Uint32.h</text>
</a>
</g>
</g>
<!-- Node1&#45;&gt;Node13 -->
<g id="edge12_Node000001_Node000013" class="edge">
<title>Node1&#45;&gt;Node13</title>
<g id="a_edge12_Node000001_Node000013"><a xlink:title=" ">
<path fill="none" stroke="#63b8ff" d="M882.04,-207.07C933.97,-197.13 1011.19,-182.35 1059.65,-173.08"/>
<polygon fill="#63b8ff" stroke="#63b8ff" points="881.17,-203.67 872,-208.98 882.48,-210.54 881.17,-203.67"/>
</a>
</g>
</g>
<!-- Node20 -->
<g id="Node000020" class="node">
<title>Node20</title>
<g id="a_Node000020"><a xlink:href="_uint64_8h.html" target="_top" xlink:title=" ">
<polygon fill="white" stroke="#666666" points="1423,-173 1310,-173 1310,-154 1423,-154 1423,-173"/>
<text text-anchor="middle" x="1366.5" y="-161" font-family="Helvetica,sans-Serif" font-size="10.00">Kit/Dm/Mp/Uint64.h</text>
</a>
</g>
</g>
<!-- Node1&#45;&gt;Node20 -->
<g id="edge20_Node000001_Node000020" class="edge">
<title>Node1&#45;&gt;Node20</title>
<g id="a_edge20_Node000001_Node000020"><a xlink:title=" ">
<path fill="none" stroke="#63b8ff" d="M911.17,-210.57C1005.96,-202.51 1164.99,-188.33 1301.5,-173 1304.21,-172.7 1306.99,-172.37 1309.79,-172.04"/>
<polygon fill="#63b8ff" stroke="#63b8ff" points="910.74,-207.1 901.07,-211.43 911.33,-214.07 910.74,-207.1"/>
</a>
</g>
</g>
<!-- Node21 -->
<g id="Node000021" class="node">
<title>Node21</title>
<g id="a_Node000021"><a xlink:href="_uint8_8h.html" target="_top" xlink:title=" ">
<polygon fill="white" stroke="#666666" points="1548,-173 1441,-173 1441,-154 1548,-154 1548,-173"/>
<text text-anchor="middle" x="1494.5" y="-161" font-family="Helvetica,sans-Serif" font-size="10.00">Kit/Dm/Mp/Uint8.h</text>
</a>
</g>
</g>
<!-- Node1&#45;&gt;Node21 -->
<g id="edge21_Node000001_Node000021" class="edge">
<title>Node1&#45;&gt;Node21</title>
<g id="a_edge21_Node000001_Node000021"><a xlink:title=" ">
<path fill="none" stroke="#63b8ff" d="M911.52,-212.99C1028.49,-206.34 1246.95,-192.52 1432.5,-173 1435.2,-172.72 1437.97,-172.41 1440.76,-172.08"/>
<polygon fill="#63b8ff" stroke="#63b8ff" points="910.99,-209.52 901.21,-213.58 911.39,-216.51 910.99,-209.52"/>
</a>
</g>
</g>
<!-- Node22 -->
<g id="Node000022" class="node">
<title>Node22</title>
<g id="a_Node000022"><a xlink:href="_void_8h.html" target="_top" xlink:title=" ">
<polygon fill="white" stroke="#666666" points="1667,-173 1566,-173 1566,-154 1667,-154 1667,-173"/>
<text text-anchor="middle" x="1616.5" y="-161" font-family="Helvetica,sans-Serif" font-size="10.00">Kit/Dm/Mp/Void.h</text>
</a>
</g>
</g>
<!-- Node1&#45;&gt;Node22 -->
<g id="edge23_Node000001_Node000022" class="edge">
<title>Node1&#45;&gt;Node22</title>
<g id="a_edge23_Node000001_Node000022"><a xlink:title=" ">
<path fill="none" stroke="#63b8ff" d="M911.57,-214.62C1047.59,-209.46 1324.22,-196.87 1557.5,-173 1560.18,-172.73 1562.92,-172.42 1565.68,-172.09"/>
<polygon fill="#63b8ff" stroke="#63b8ff" points="911.09,-211.14 901.23,-215.01 911.36,-218.13 911.09,-211.14"/>
</a>
</g>
</g>
<!-- Node3 -->
<g id="Node000003" class="node">
<title>Node3</title>
<g id="a_Node000003"><a xlink:href="_dm_2_transaction_2_model_points_8h.html" target="_top" xlink:title="This file defines all of the Model Points for Example application.">
<polygon fill="white" stroke="#666666" points="167,-118 0,-118 0,-77 167,-77 167,-118"/>
<text text-anchor="start" x="8" y="-106" font-family="Helvetica,sans-Serif" font-size="10.00">/home/runner/work/kit.core</text>
<text text-anchor="start" x="8" y="-95" font-family="Helvetica,sans-Serif" font-size="10.00">/kit.core/projects/examples</text>
<text text-anchor="middle" x="83.5" y="-84" font-family="Helvetica,sans-Serif" font-size="10.00">/Dm/Transaction/ModelPoints.h</text>
</a>
</g>
</g>
<!-- Node2&#45;&gt;Node3 -->
<g id="edge2_Node000002_Node000003" class="edge">
<title>Node2&#45;&gt;Node3</title>
<g id="a_edge2_Node000002_Node000003"><a xlink:title=" ">
<path fill="none" stroke="#63b8ff" d="M83.5,-143.63C83.5,-135.56 83.5,-126.15 83.5,-118.01"/>
<polygon fill="#63b8ff" stroke="#63b8ff" points="80,-143.87 83.5,-153.87 87,-143.87 80,-143.87"/>
</a>
</g>
</g>
<!-- Node12 -->
<g id="Node000012" class="node">
<title>Node12</title>
<g id="a_Node000012"><a xlink:href="_boot_time_8h.html" target="_top" xlink:title=" ">
<polygon fill="white" stroke="#666666" points="1318,-107 1201,-107 1201,-88 1318,-88 1318,-107"/>
<text text-anchor="middle" x="1259.5" y="-95" font-family="Helvetica,sans-Serif" font-size="10.00">Kit/Time/BootTime.h</text>
</a>
</g>
</g>
<!-- Node11&#45;&gt;Node12 -->
<g id="edge11_Node000011_Node000012" class="edge">
<title>Node11&#45;&gt;Node12</title>
<g id="a_edge11_Node000011_Node000012"><a xlink:title=" ">
<path fill="none" stroke="#63b8ff" d="M1242.32,-144.32C1246.85,-132.24 1252.6,-116.91 1256.16,-107.41"/>
<polygon fill="#63b8ff" stroke="#63b8ff" points="1238.97,-143.28 1238.74,-153.87 1245.53,-145.73 1238.97,-143.28"/>
</a>
</g>
</g>
<!-- Node13&#45;&gt;Node12 -->
<g id="edge19_Node000013_Node000012" class="edge">
<title>Node13&#45;&gt;Node12</title>
<g id="a_edge19_Node000013_Node000012"><a xlink:title=" ">
<path fill="none" stroke="#63b8ff" d="M1134.72,-150.02C1165.26,-137.41 1211.66,-118.25 1238.43,-107.2"/>
<polygon fill="#63b8ff" stroke="#63b8ff" points="1133.31,-146.82 1125.4,-153.87 1135.98,-153.29 1133.31,-146.82"/>
</a>
</g>
</g>
<!-- Node14 -->
<g id="Node000014" class="node">
<title>Node14</title>
<g id="a_Node000014"><a xlink:href="_container_2_ring_buffer_2_model_points_8h.html" target="_top" xlink:title="This file defines all of the Model Points for Example application.">
<polygon fill="white" stroke="#666666" points="1008,-118 815,-118 815,-77 1008,-77 1008,-118"/>
<text text-anchor="start" x="823" y="-106" font-family="Helvetica,sans-Serif" font-size="10.00">/home/runner/work/kit.core</text>
<text text-anchor="start" x="823" y="-95" font-family="Helvetica,sans-Serif" font-size="10.00">/kit.core/projects/examples</text>
<text text-anchor="middle" x="911.5" y="-84" font-family="Helvetica,sans-Serif" font-size="10.00">/Container/RingBuffer/ModelPoints.h</text>
</a>
</g>
</g>
<!-- Node13&#45;&gt;Node14 -->
<g id="edge13_Node000013_Node000014" class="edge">
<title>Node13&#45;&gt;Node14</title>
<g id="a_edge13_Node000013_Node000014"><a xlink:title=" ">
<path fill="none" stroke="#63b8ff" d="M1068.85,-150.68C1041.27,-141.53 1002.49,-128.67 970.33,-118.01"/>
<polygon fill="#63b8ff" stroke="#63b8ff" points="1067.88,-154.04 1078.47,-153.87 1070.08,-147.4 1067.88,-154.04"/>
</a>
</g>
</g>
<!-- Node15 -->
<g id="Node000015" class="node">
<title>Node15</title>
<g id="a_Node000015"><a xlink:href="_ring_buffer_m_p_8h.html" target="_top" xlink:title=" ">
<polygon fill="white" stroke="#666666" points="1183,-107 1026,-107 1026,-88 1183,-88 1183,-107"/>
<text text-anchor="middle" x="1104.5" y="-95" font-family="Helvetica,sans-Serif" font-size="10.00">Kit/Container/RingBufferMP.h</text>
</a>
</g>
</g>
<!-- Node13&#45;&gt;Node15 -->
<g id="edge14_Node000013_Node000015" class="edge">
<title>Node13&#45;&gt;Node15</title>
<g id="a_edge14_Node000013_Node000015"><a xlink:title=" ">
<path fill="none" stroke="#63b8ff" d="M1104.5,-143.58C1104.5,-131.63 1104.5,-116.72 1104.5,-107.41"/>
<polygon fill="#63b8ff" stroke="#63b8ff" points="1101,-143.87 1104.5,-153.87 1108,-143.87 1101,-143.87"/>
</a>
</g>
</g>
<!-- Node16 -->
<g id="Node000016" class="node">
<title>Node16</title>
<g id="a_Node000016"><a xlink:href="_led_server_8h.html" target="_top" xlink:title=" ">
<polygon fill="white" stroke="#666666" points="913,-41 732,-41 732,0 913,0 913,-41"/>
<text text-anchor="start" x="740" y="-29" font-family="Helvetica,sans-Serif" font-size="10.00">/home/runner/work/kit.core</text>
<text text-anchor="start" x="740" y="-18" font-family="Helvetica,sans-Serif" font-size="10.00">/kit.core/projects/examples</text>
<text text-anchor="middle" x="822.5" y="-7" font-family="Helvetica,sans-Serif" font-size="10.00">/Container/RingBuffer/LedServer.h</text>
</a>
</g>
</g>
<!-- Node15&#45;&gt;Node16 -->
<g id="edge15_Node000015_Node000016" class="edge">
<title>Node15&#45;&gt;Node16</title>
<g id="a_edge15_Node000015_Node000016"><a xlink:title=" ">
<path fill="none" stroke="#63b8ff" d="M1062.66,-85.37C1018.79,-73.7 948.96,-55.13 895.89,-41.02"/>
<polygon fill="#63b8ff" stroke="#63b8ff" points="1061.86,-88.78 1072.43,-87.97 1063.66,-82.02 1061.86,-88.78"/>
</a>
</g>
</g>
<!-- Node17 -->
<g id="Node000017" class="node">
<title>Node17</title>
<g id="a_Node000017"><a xlink:href="_producer_8h.html" target="_top" xlink:title=" ">
<polygon fill="white" stroke="#666666" points="1106,-41 931,-41 931,0 1106,0 1106,-41"/>
<text text-anchor="start" x="939" y="-29" font-family="Helvetica,sans-Serif" font-size="10.00">/home/runner/work/kit.core</text>
<text text-anchor="start" x="939" y="-18" font-family="Helvetica,sans-Serif" font-size="10.00">/kit.core/projects/examples</text>
<text text-anchor="middle" x="1018.5" y="-7" font-family="Helvetica,sans-Serif" font-size="10.00">/Container/RingBuffer/Producer.h</text>
</a>
</g>
</g>
<!-- Node15&#45;&gt;Node17 -->
<g id="edge16_Node000015_Node000017" class="edge">
<title>Node15&#45;&gt;Node17</title>
<g id="a_edge16_Node000015_Node000017"><a xlink:title=" ">
<path fill="none" stroke="#63b8ff" d="M1086.75,-81.02C1073.52,-69.48 1055.36,-53.65 1041.1,-41.21"/>
<polygon fill="#63b8ff" stroke="#63b8ff" points="1084.8,-83.96 1094.63,-87.9 1089.4,-78.69 1084.8,-83.96"/>
</a>
</g>
</g>
<!-- Node18 -->
<g id="Node000018" class="node">
<title>Node18</title>
<g id="a_Node000018"><a xlink:href="_ring_buffer_m_p_allocate_8h.html" target="_top" xlink:title=" ">
<polygon fill="white" stroke="#666666" points="1258.5,-35.5 1124.5,-35.5 1124.5,-5.5 1258.5,-5.5 1258.5,-35.5"/>
<text text-anchor="start" x="1132.5" y="-23.5" font-family="Helvetica,sans-Serif" font-size="10.00">Kit/Container/RingBuffer</text>
<text text-anchor="middle" x="1191.5" y="-12.5" font-family="Helvetica,sans-Serif" font-size="10.00">MPAllocate.h</text>
</a>
</g>
</g>
<!-- Node15&#45;&gt;Node18 -->
<g id="edge17_Node000015_Node000018" class="edge">
<title>Node15&#45;&gt;Node18</title>
<g id="a_edge17_Node000015_Node000018"><a xlink:title=" ">
<path fill="none" stroke="#63b8ff" d="M1122.3,-81.15C1137.8,-67.8 1160.07,-48.59 1175.13,-35.61"/>
<polygon fill="#63b8ff" stroke="#63b8ff" points="1119.77,-78.72 1114.48,-87.9 1124.34,-84.02 1119.77,-78.72"/>
</a>
</g>
</g>
<!-- Node19 -->
<g id="Node000019" class="node">
<title>Node19</title>
<g id="a_Node000019"><a xlink:href="_log_sink_8h.html" target="_top" xlink:title=" ">
<polygon fill="white" stroke="#666666" points="1406,-35.5 1277,-35.5 1277,-5.5 1406,-5.5 1406,-35.5"/>
<text text-anchor="start" x="1285" y="-23.5" font-family="Helvetica,sans-Serif" font-size="10.00">Kit/Logging/Framework</text>
<text text-anchor="middle" x="1341.5" y="-12.5" font-family="Helvetica,sans-Serif" font-size="10.00">/LogSink.h</text>
</a>
</g>
</g>
<!-- Node15&#45;&gt;Node19 -->
<g id="edge18_Node000015_Node000019" class="edge">
<title>Node15&#45;&gt;Node19</title>
<g id="a_edge18_Node000015_Node000019"><a xlink:title=" ">
<path fill="none" stroke="#63b8ff" d="M1141.24,-84.87C1183.22,-71.59 1251.9,-49.85 1296.9,-35.61"/>
<polygon fill="#63b8ff" stroke="#63b8ff" points="1140.16,-81.54 1131.69,-87.9 1142.28,-88.22 1140.16,-81.54"/>
</a>
</g>
</g>
<!-- Node21&#45;&gt;Node12 -->
<g id="edge22_Node000021_Node000012" class="edge">
<title>Node21&#45;&gt;Node12</title>
<g id="a_edge22_Node000021_Node000012"><a xlink:title=" ">
<path fill="none" stroke="#63b8ff" d="M1453.09,-151.22C1406.81,-138.62 1332.9,-118.49 1291.07,-107.1"/>
<polygon fill="#63b8ff" stroke="#63b8ff" points="1452.24,-154.62 1462.81,-153.87 1454.08,-147.86 1452.24,-154.62"/>
</a>
</g>
</g>
</g>
</svg>
