<?xml version="1.0" encoding="UTF-8" standalone="no"?>
<!DOCTYPE svg PUBLIC "-//W3C//DTD SVG 1.1//EN"
 "http://www.w3.org/Graphics/SVG/1.1/DTD/svg11.dtd">
<!-- Generated by graphviz version 2.43.0 (0)
 -->
<!-- Title: Kit/System/PrivateStartup.h Pages: 1 -->
<svg width="378pt" height="137pt"
 viewBox="0.00 0.00 377.50 137.00" xmlns="http://www.w3.org/2000/svg" xmlns:xlink="http://www.w3.org/1999/xlink">
<g id="graph0" class="graph" transform="scale(1 1) rotate(0) translate(4 133)">
<title>Kit/System/PrivateStartup.h</title>
<!-- Node1 -->
<g id="Node000001" class="node">
<title>Node1</title>
<g id="a_Node000001"><a xlink:title=" ">
<polygon fill="#999999" stroke="#666666" points="255,-129 103,-129 103,-110 255,-110 255,-129"/>
<text text-anchor="middle" x="179" y="-117" font-family="Helvetica,sans-Serif" font-size="10.00">Kit/System/PrivateStartup.h</text>
</a>
</g>
</g>
<!-- Node2 -->
<g id="Node000002" class="node">
<title>Node2</title>
<g id="a_Node000002"><a xlink:href="mutex__t___8h.html" target="_top" xlink:title=" ">
<polygon fill="white" stroke="#666666" points="164,-74 0,-74 0,-55 164,-55 164,-74"/>
<text text-anchor="middle" x="82" y="-62" font-family="Helvetica,sans-Serif" font-size="10.00">Kit/System/RPPico/mutex_t_.h</text>
</a>
</g>
</g>
<!-- Node1&#45;&gt;Node2 -->
<g id="edge1_Node000001_Node000002" class="edge">
<title>Node1&#45;&gt;Node2</title>
<g id="a_edge1_Node000001_Node000002"><a xlink:title=" ">
<path fill="none" stroke="#63b8ff" d="M154.23,-104.97C136.5,-95.28 113.15,-82.52 97.87,-74.17"/>
<polygon fill="#63b8ff" stroke="#63b8ff" points="152.96,-108.26 163.42,-109.98 156.32,-102.12 152.96,-108.26"/>
</a>
</g>
</g>
<!-- Node4 -->
<g id="Node000004" class="node">
<title>Node4</title>
<g id="a_Node000004"><a xlink:href="semaphore__t___8h.html" target="_top" xlink:title=" ">
<polygon fill="white" stroke="#666666" points="369.5,-74 182.5,-74 182.5,-55 369.5,-55 369.5,-74"/>
<text text-anchor="middle" x="276" y="-62" font-family="Helvetica,sans-Serif" font-size="10.00">Kit/System/RPPico/semaphore_t_.h</text>
</a>
</g>
</g>
<!-- Node1&#45;&gt;Node4 -->
<g id="edge3_Node000001_Node000004" class="edge">
<title>Node1&#45;&gt;Node4</title>
<g id="a_edge3_Node000001_Node000004"><a xlink:title=" ">
<path fill="none" stroke="#63b8ff" d="M203.77,-104.97C221.5,-95.28 244.85,-82.52 260.13,-74.17"/>
<polygon fill="#63b8ff" stroke="#63b8ff" points="201.68,-102.12 194.58,-109.98 205.04,-108.26 201.68,-102.12"/>
</a>
</g>
</g>
<!-- Node3 -->
<g id="Node000003" class="node">
<title>Node3</title>
<g id="a_Node000003"><a xlink:href="_r_p_pico_2mappings_8h.html" target="_top" xlink:title="This file provides the mappings for Platform specific types, etc.">
<polygon fill="white" stroke="#666666" points="262,-19 96,-19 96,0 262,0 262,-19"/>
<text text-anchor="middle" x="179" y="-7" font-family="Helvetica,sans-Serif" font-size="10.00">Kit/System/RPPico/mappings.h</text>
</a>
</g>
</g>
<!-- Node2&#45;&gt;Node3 -->
<g id="edge2_Node000002_Node000003" class="edge">
<title>Node2&#45;&gt;Node3</title>
<g id="a_edge2_Node000002_Node000003"><a xlink:title=" ">
<path fill="none" stroke="#63b8ff" d="M106.77,-49.97C124.5,-40.28 147.85,-27.52 163.13,-19.17"/>
<polygon fill="#63b8ff" stroke="#63b8ff" points="104.68,-47.12 97.58,-54.98 108.04,-53.26 104.68,-47.12"/>
</a>
</g>
</g>
<!-- Node4&#45;&gt;Node3 -->
<g id="edge4_Node000004_Node000003" class="edge">
<title>Node4&#45;&gt;Node3</title>
<g id="a_edge4_Node000004_Node000003"><a xlink:title=" ">
<path fill="none" stroke="#63b8ff" d="M251.23,-49.97C233.5,-40.28 210.15,-27.52 194.87,-19.17"/>
<polygon fill="#63b8ff" stroke="#63b8ff" points="249.96,-53.26 260.42,-54.98 253.32,-47.12 249.96,-53.26"/>
</a>
</g>
</g>
</g>
</svg>
