<?xml version="1.0" encoding="UTF-8" standalone="no"?>
<!DOCTYPE svg PUBLIC "-//W3C//DTD SVG 1.1//EN"
 "http://www.w3.org/Graphics/SVG/1.1/DTD/svg11.dtd">
<!-- Generated by graphviz version 2.43.0 (0)
 -->
<!-- Title: Kit/System/RPPico/mappings.h Pages: 1 -->
<svg width="664pt" height="258pt"
 viewBox="0.00 0.00 664.00 258.00" xmlns="http://www.w3.org/2000/svg" xmlns:xlink="http://www.w3.org/1999/xlink">
<g id="graph0" class="graph" transform="scale(1 1) rotate(0) translate(4 254)">
<title>Kit/System/RPPico/mappings.h</title>
<!-- Node1 -->
<g id="Node000001" class="node">
<title>Node1</title>
<g id="a_Node000001"><a xlink:title="This file provides the mappings for Platform specific types, etc.">
<polygon fill="#999999" stroke="#666666" points="441.5,-250 275.5,-250 275.5,-231 441.5,-231 441.5,-250"/>
<text text-anchor="middle" x="358.5" y="-238" font-family="Helvetica,sans-Serif" font-size="10.00">Kit/System/RPPico/mappings.h</text>
</a>
</g>
</g>
<!-- Node2 -->
<g id="Node000002" class="node">
<title>Node2</title>
<g id="a_Node000002"><a xlink:title=" ">
<polygon fill="#e0e0e0" stroke="#999999" points="53,-189.5 0,-189.5 0,-170.5 53,-170.5 53,-189.5"/>
<text text-anchor="middle" x="26.5" y="-177.5" font-family="Helvetica,sans-Serif" font-size="10.00">stdint.h</text>
</a>
</g>
</g>
<!-- Node1&#45;&gt;Node2 -->
<g id="edge1_Node000001_Node000002" class="edge">
<title>Node1&#45;&gt;Node2</title>
<g id="a_edge1_Node000001_Node000002"><a xlink:title=" ">
<path fill="none" stroke="#63b8ff" d="M275.2,-231.96C215.33,-225.34 133.06,-213.77 62.5,-195 60.2,-194.39 57.85,-193.68 55.51,-192.91"/>
<polygon fill="#63b8ff" stroke="#63b8ff" points="56.64,-189.6 46.04,-189.51 54.27,-196.18 56.64,-189.6"/>
</a>
</g>
</g>
<!-- Node3 -->
<g id="Node000003" class="node">
<title>Node3</title>
<g id="a_Node000003"><a xlink:href="mutex__t___8h.html" target="_top" xlink:title=" ">
<polygon fill="white" stroke="#666666" points="440.5,-189.5 276.5,-189.5 276.5,-170.5 440.5,-170.5 440.5,-189.5"/>
<text text-anchor="middle" x="358.5" y="-177.5" font-family="Helvetica,sans-Serif" font-size="10.00">Kit/System/RPPico/mutex_t_.h</text>
</a>
</g>
</g>
<!-- Node1&#45;&gt;Node3 -->
<g id="edge2_Node000001_Node000003" class="edge">
<title>Node1&#45;&gt;Node3</title>
<g id="a_edge2_Node000001_Node000003"><a xlink:title=" ">
<path fill="none" stroke="#63b8ff" d="M358.5,-230.87C358.5,-222.75 358.5,-210.31 358.5,-199.89"/>
<polygon fill="#63b8ff" stroke="#63b8ff" points="362,-199.67 358.5,-189.67 355,-199.67 362,-199.67"/>
</a>
</g>
</g>
<!-- Node9 -->
<g id="Node000009" class="node">
<title>Node9</title>
<g id="a_Node000009"><a xlink:href="semaphore__t___8h.html" target="_top" xlink:title=" ">
<polygon fill="white" stroke="#666666" points="258,-189.5 71,-189.5 71,-170.5 258,-170.5 258,-189.5"/>
<text text-anchor="middle" x="164.5" y="-177.5" font-family="Helvetica,sans-Serif" font-size="10.00">Kit/System/RPPico/semaphore_t_.h</text>
</a>
</g>
</g>
<!-- Node1&#45;&gt;Node9 -->
<g id="edge8_Node000001_Node000009" class="edge">
<title>Node1&#45;&gt;Node9</title>
<g id="a_edge8_Node000001_Node000009"><a xlink:title=" ">
<path fill="none" stroke="#63b8ff" d="M330.29,-230.99C296.53,-220.81 239.85,-203.72 202.32,-192.4"/>
<polygon fill="#63b8ff" stroke="#63b8ff" points="203.33,-189.05 192.74,-189.52 201.31,-195.75 203.33,-189.05"/>
</a>
</g>
</g>
<!-- Node11 -->
<g id="Node000011" class="node">
<title>Node11</title>
<g id="a_Node000011"><a xlink:href="c__assert_8h.html" target="_top" xlink:title=" ">
<polygon fill="white" stroke="#666666" points="566.5,-195 458.5,-195 458.5,-165 566.5,-165 566.5,-195"/>
<text text-anchor="start" x="466.5" y="-183" font-family="Helvetica,sans-Serif" font-size="10.00">Kit/System/_assert</text>
<text text-anchor="middle" x="512.5" y="-172" font-family="Helvetica,sans-Serif" font-size="10.00">/c_assert.h</text>
</a>
</g>
</g>
<!-- Node1&#45;&gt;Node11 -->
<g id="edge12_Node000001_Node000011" class="edge">
<title>Node1&#45;&gt;Node11</title>
<g id="a_edge12_Node000001_Node000011"><a xlink:title=" ">
<path fill="none" stroke="#63b8ff" d="M380.89,-230.99C403.06,-222.57 437.65,-209.43 465.81,-198.73"/>
<polygon fill="#63b8ff" stroke="#63b8ff" points="467.37,-201.89 475.48,-195.06 464.89,-195.34 467.37,-201.89"/>
</a>
</g>
</g>
<!-- Node13 -->
<g id="Node000013" class="node">
<title>Node13</title>
<g id="a_Node000013"><a xlink:title=" ">
<polygon fill="#e0e0e0" stroke="#999999" points="656,-189.5 585,-189.5 585,-170.5 656,-170.5 656,-189.5"/>
<text text-anchor="middle" x="620.5" y="-177.5" font-family="Helvetica,sans-Serif" font-size="10.00">pico/time.h</text>
</a>
</g>
</g>
<!-- Node1&#45;&gt;Node13 -->
<g id="edge14_Node000001_Node000013" class="edge">
<title>Node1&#45;&gt;Node13</title>
<g id="a_edge14_Node000001_Node000013"><a xlink:title=" ">
<path fill="none" stroke="#63b8ff" d="M407.08,-230.97C451.27,-222.87 518.15,-209.76 575.5,-195 578.49,-194.23 581.58,-193.38 584.68,-192.5"/>
<polygon fill="#63b8ff" stroke="#63b8ff" points="585.87,-195.79 594.45,-189.59 583.87,-189.08 585.87,-195.79"/>
</a>
</g>
</g>
<!-- Node4 -->
<g id="Node000004" class="node">
<title>Node4</title>
<g id="a_Node000004"><a xlink:href="_private_startup_8h.html" target="_top" xlink:title=" ">
<polygon fill="white" stroke="#666666" points="359.5,-129 207.5,-129 207.5,-110 359.5,-110 359.5,-129"/>
<text text-anchor="middle" x="283.5" y="-117" font-family="Helvetica,sans-Serif" font-size="10.00">Kit/System/PrivateStartup.h</text>
</a>
</g>
</g>
<!-- Node3&#45;&gt;Node4 -->
<g id="edge3_Node000003_Node000004" class="edge">
<title>Node3&#45;&gt;Node4</title>
<g id="a_edge3_Node000003_Node000004"><a xlink:title=" ">
<path fill="none" stroke="#63b8ff" d="M347.43,-170.37C335.69,-161.21 316.91,-146.56 302.74,-135.51"/>
<polygon fill="#63b8ff" stroke="#63b8ff" points="304.65,-132.56 294.61,-129.17 300.34,-138.08 304.65,-132.56"/>
</a>
</g>
</g>
<!-- Node7 -->
<g id="Node000007" class="node">
<title>Node7</title>
<g id="a_Node000007"><a xlink:title=" ">
<polygon fill="#e0e0e0" stroke="#999999" points="457.5,-129 377.5,-129 377.5,-110 457.5,-110 457.5,-129"/>
<text text-anchor="middle" x="417.5" y="-117" font-family="Helvetica,sans-Serif" font-size="10.00">pico/mutex.h</text>
</a>
</g>
</g>
<!-- Node3&#45;&gt;Node7 -->
<g id="edge6_Node000003_Node000007" class="edge">
<title>Node3&#45;&gt;Node7</title>
<g id="a_edge6_Node000003_Node000007"><a xlink:title=" ">
<path fill="none" stroke="#63b8ff" d="M367.21,-170.37C376.18,-161.47 390.38,-147.39 401.41,-136.45"/>
<polygon fill="#63b8ff" stroke="#63b8ff" points="404.12,-138.69 408.76,-129.17 399.19,-133.72 404.12,-138.69"/>
</a>
</g>
</g>
<!-- Node8 -->
<g id="Node000008" class="node">
<title>Node8</title>
<g id="a_Node000008"><a xlink:title=" ">
<polygon fill="#e0e0e0" stroke="#999999" points="189,-129 152,-129 152,-110 189,-110 189,-129"/>
<text text-anchor="middle" x="170.5" y="-117" font-family="Helvetica,sans-Serif" font-size="10.00">new</text>
</a>
</g>
</g>
<!-- Node3&#45;&gt;Node8 -->
<g id="edge7_Node000003_Node000008" class="edge">
<title>Node3&#45;&gt;Node8</title>
<g id="a_edge7_Node000003_Node000008"><a xlink:title=" ">
<path fill="none" stroke="#63b8ff" d="M331.16,-170.49C295.85,-159.5 234.67,-140.47 198.86,-129.33"/>
<polygon fill="#63b8ff" stroke="#63b8ff" points="199.64,-125.9 189.05,-126.27 197.56,-132.59 199.64,-125.9"/>
</a>
</g>
</g>
<!-- Node5 -->
<g id="Node000005" class="node">
<title>Node5</title>
<g id="a_Node000005"><a xlink:href="_list_item_8h.html" target="_top" xlink:title=" ">
<polygon fill="white" stroke="#666666" points="349.5,-74 217.5,-74 217.5,-55 349.5,-55 349.5,-74"/>
<text text-anchor="middle" x="283.5" y="-62" font-family="Helvetica,sans-Serif" font-size="10.00">Kit/Container/ListItem.h</text>
</a>
</g>
</g>
<!-- Node4&#45;&gt;Node5 -->
<g id="edge4_Node000004_Node000005" class="edge">
<title>Node4&#45;&gt;Node5</title>
<g id="a_edge4_Node000004_Node000005"><a xlink:title=" ">
<path fill="none" stroke="#63b8ff" d="M283.5,-109.75C283.5,-102.8 283.5,-92.85 283.5,-84.13"/>
<polygon fill="#63b8ff" stroke="#63b8ff" points="287,-84.09 283.5,-74.09 280,-84.09 287,-84.09"/>
</a>
</g>
</g>
<!-- Node6 -->
<g id="Node000006" class="node">
<title>Node6</title>
<g id="a_Node000006"><a xlink:href="_item_8h.html" target="_top" xlink:title=" ">
<polygon fill="white" stroke="#666666" points="341,-19 226,-19 226,0 341,0 341,-19"/>
<text text-anchor="middle" x="283.5" y="-7" font-family="Helvetica,sans-Serif" font-size="10.00">Kit/Container/Item.h</text>
</a>
</g>
</g>
<!-- Node5&#45;&gt;Node6 -->
<g id="edge5_Node000005_Node000006" class="edge">
<title>Node5&#45;&gt;Node6</title>
<g id="a_edge5_Node000005_Node000006"><a xlink:title=" ">
<path fill="none" stroke="#63b8ff" d="M283.5,-54.75C283.5,-47.8 283.5,-37.85 283.5,-29.13"/>
<polygon fill="#63b8ff" stroke="#63b8ff" points="287,-29.09 283.5,-19.09 280,-29.09 287,-29.09"/>
</a>
</g>
</g>
<!-- Node9&#45;&gt;Node4 -->
<g id="edge9_Node000009_Node000004" class="edge">
<title>Node9&#45;&gt;Node4</title>
<g id="a_edge9_Node000009_Node000004"><a xlink:title=" ">
<path fill="none" stroke="#63b8ff" d="M181.8,-170.49C201.55,-160.79 234.05,-144.81 256.99,-133.53"/>
<polygon fill="#63b8ff" stroke="#63b8ff" points="258.75,-136.57 266.18,-129.02 255.66,-130.29 258.75,-136.57"/>
</a>
</g>
</g>
<!-- Node9&#45;&gt;Node8 -->
<g id="edge11_Node000009_Node000008" class="edge">
<title>Node9&#45;&gt;Node8</title>
<g id="a_edge11_Node000009_Node000008"><a xlink:title=" ">
<path fill="none" stroke="#63b8ff" d="M165.39,-170.37C166.22,-162.25 167.49,-149.81 168.56,-139.39"/>
<polygon fill="#63b8ff" stroke="#63b8ff" points="172.07,-139.47 169.61,-129.17 165.11,-138.76 172.07,-139.47"/>
</a>
</g>
</g>
<!-- Node10 -->
<g id="Node000010" class="node">
<title>Node10</title>
<g id="a_Node000010"><a xlink:title=" ">
<polygon fill="#e0e0e0" stroke="#999999" points="133.5,-129 63.5,-129 63.5,-110 133.5,-110 133.5,-129"/>
<text text-anchor="middle" x="98.5" y="-117" font-family="Helvetica,sans-Serif" font-size="10.00">pico/sem.h</text>
</a>
</g>
</g>
<!-- Node9&#45;&gt;Node10 -->
<g id="edge10_Node000009_Node000010" class="edge">
<title>Node9&#45;&gt;Node10</title>
<g id="a_edge10_Node000009_Node000010"><a xlink:title=" ">
<path fill="none" stroke="#63b8ff" d="M154.76,-170.37C144.53,-161.3 128.21,-146.84 115.78,-135.82"/>
<polygon fill="#63b8ff" stroke="#63b8ff" points="118.08,-133.18 108.28,-129.17 113.44,-138.42 118.08,-133.18"/>
</a>
</g>
</g>
<!-- Node12 -->
<g id="Node000012" class="node">
<title>Node12</title>
<g id="a_Node000012"><a xlink:title=" ">
<polygon fill="#e0e0e0" stroke="#999999" points="543.5,-129 481.5,-129 481.5,-110 543.5,-110 543.5,-129"/>
<text text-anchor="middle" x="512.5" y="-117" font-family="Helvetica,sans-Serif" font-size="10.00">stdbool.h</text>
</a>
</g>
</g>
<!-- Node11&#45;&gt;Node12 -->
<g id="edge13_Node000011_Node000012" class="edge">
<title>Node11&#45;&gt;Node12</title>
<g id="a_edge13_Node000011_Node000012"><a xlink:title=" ">
<path fill="none" stroke="#63b8ff" d="M512.5,-164.84C512.5,-157.21 512.5,-147.7 512.5,-139.45"/>
<polygon fill="#63b8ff" stroke="#63b8ff" points="516,-139.27 512.5,-129.27 509,-139.27 516,-139.27"/>
</a>
</g>
</g>
</g>
</svg>
