<?xml version="1.0" encoding="UTF-8" standalone="no"?>
<!DOCTYPE svg PUBLIC "-//W3C//DTD SVG 1.1//EN"
 "http://www.w3.org/Graphics/SVG/1.1/DTD/svg11.dtd">
<!-- Generated by graphviz version 2.43.0 (0)
 -->
<!-- Title: Kit/Itc/RequestMessage.h Pages: 1 -->
<svg width="1781pt" height="390pt"
 viewBox="0.00 0.00 1780.50 390.00" xmlns="http://www.w3.org/2000/svg" xmlns:xlink="http://www.w3.org/1999/xlink">
<g id="graph0" class="graph" transform="scale(1 1) rotate(0) translate(4 386)">
<title>Kit/Itc/RequestMessage.h</title>
<!-- Node1 -->
<g id="Node000001" class="node">
<title>Node1</title>
<g id="a_Node000001"><a xlink:title=" ">
<polygon fill="#999999" stroke="#666666" points="1281.5,-382 1141.5,-382 1141.5,-363 1281.5,-363 1281.5,-382"/>
<text text-anchor="middle" x="1211.5" y="-370" font-family="Helvetica,sans-Serif" font-size="10.00">Kit/Itc/RequestMessage.h</text>
</a>
</g>
</g>
<!-- Node2 -->
<g id="Node000002" class="node">
<title>Node2</title>
<g id="a_Node000002"><a xlink:href="_i_rate_request_8h.html" target="_top" xlink:title=" ">
<polygon fill="white" stroke="#666666" points="983.5,-327 809.5,-327 809.5,-286 983.5,-286 983.5,-327"/>
<text text-anchor="start" x="817.5" y="-315" font-family="Helvetica,sans-Serif" font-size="10.00">/home/runner/work/kit.core</text>
<text text-anchor="start" x="817.5" y="-304" font-family="Helvetica,sans-Serif" font-size="10.00">/kit.core/projects/examples</text>
<text text-anchor="middle" x="896.5" y="-293" font-family="Helvetica,sans-Serif" font-size="10.00">/Itc/Synchronous/IRateRequest.h</text>
</a>
</g>
</g>
<!-- Node1&#45;&gt;Node2 -->
<g id="edge1_Node000001_Node000002" class="edge">
<title>Node1&#45;&gt;Node2</title>
<g id="a_edge1_Node000001_Node000002"><a xlink:title=" ">
<path fill="none" stroke="#63b8ff" d="M1159.53,-360.94C1111.79,-351.24 1040.08,-336.67 983.59,-325.19"/>
<polygon fill="#63b8ff" stroke="#63b8ff" points="1158.85,-364.37 1169.34,-362.94 1160.24,-357.51 1158.85,-364.37"/>
</a>
</g>
</g>
<!-- Node5 -->
<g id="Node000005" class="node">
<title>Node5</title>
<g id="a_Node000005"><a xlink:href="_i_manage_request_8h.html" target="_top" xlink:title=" ">
<polygon fill="white" stroke="#666666" points="1606.5,-250 1496.5,-250 1496.5,-220 1606.5,-220 1606.5,-250"/>
<text text-anchor="start" x="1504.5" y="-238" font-family="Helvetica,sans-Serif" font-size="10.00">Kit/Dm/Persistence</text>
<text text-anchor="middle" x="1551.5" y="-227" font-family="Helvetica,sans-Serif" font-size="10.00">/IManageRequest.h</text>
</a>
</g>
</g>
<!-- Node1&#45;&gt;Node5 -->
<g id="edge4_Node000001_Node000005" class="edge">
<title>Node1&#45;&gt;Node5</title>
<g id="a_edge4_Node000001_Node000005"><a xlink:title=" ">
<path fill="none" stroke="#63b8ff" d="M1262.87,-360.67C1295.9,-352.97 1339.42,-341.44 1376.5,-327 1433.3,-304.87 1495.72,-269.52 1528.48,-250.03"/>
<polygon fill="#63b8ff" stroke="#63b8ff" points="1261.94,-357.29 1252.98,-362.93 1263.5,-364.11 1261.94,-357.29"/>
</a>
</g>
</g>
<!-- Node7 -->
<g id="Node000007" class="node">
<title>Node7</title>
<g id="a_Node000007"><a xlink:href="_i_listener_client_request_8h.html" target="_top" xlink:title=" ">
<polygon fill="white" stroke="#666666" points="1732,-321.5 1581,-321.5 1581,-291.5 1732,-291.5 1732,-321.5"/>
<text text-anchor="start" x="1589" y="-309.5" font-family="Helvetica,sans-Serif" font-size="10.00">Kit/Io/Socket/IListenerClient</text>
<text text-anchor="middle" x="1656.5" y="-298.5" font-family="Helvetica,sans-Serif" font-size="10.00">Request.h</text>
</a>
</g>
</g>
<!-- Node1&#45;&gt;Node7 -->
<g id="edge6_Node000001_Node000007" class="edge">
<title>Node1&#45;&gt;Node7</title>
<g id="a_edge6_Node000001_Node000007"><a xlink:title=" ">
<path fill="none" stroke="#63b8ff" d="M1281.21,-361.47C1362.69,-349.76 1497.03,-330.43 1580.94,-318.37"/>
<polygon fill="#63b8ff" stroke="#63b8ff" points="1280.45,-358.05 1271.05,-362.94 1281.45,-364.98 1280.45,-358.05"/>
</a>
</g>
</g>
<!-- Node9 -->
<g id="Node000009" class="node">
<title>Node9</title>
<g id="a_Node000009"><a xlink:href="_i_close_request_8h.html" target="_top" xlink:title=" ">
<polygon fill="white" stroke="#666666" points="1162,-244.5 1035,-244.5 1035,-225.5 1162,-225.5 1162,-244.5"/>
<text text-anchor="middle" x="1098.5" y="-232.5" font-family="Helvetica,sans-Serif" font-size="10.00">Kit/Itc/ICloseRequest.h</text>
</a>
</g>
</g>
<!-- Node1&#45;&gt;Node9 -->
<g id="edge8_Node000001_Node000009" class="edge">
<title>Node1&#45;&gt;Node9</title>
<g id="a_edge8_Node000001_Node000009"><a xlink:title=" ">
<path fill="none" stroke="#63b8ff" d="M1196.26,-355.54C1188.41,-347.18 1178.77,-336.68 1170.5,-327 1145.38,-297.59 1117.44,-261.11 1105.04,-244.7"/>
<polygon fill="#63b8ff" stroke="#63b8ff" points="1193.72,-357.95 1203.13,-362.81 1198.8,-353.14 1193.72,-357.95"/>
</a>
</g>
</g>
<!-- Node20 -->
<g id="Node000020" class="node">
<title>Node20</title>
<g id="a_Node000020"><a xlink:href="_i_open_request_8h.html" target="_top" xlink:title=" ">
<polygon fill="white" stroke="#666666" points="1017,-244.5 892,-244.5 892,-225.5 1017,-225.5 1017,-244.5"/>
<text text-anchor="middle" x="954.5" y="-232.5" font-family="Helvetica,sans-Serif" font-size="10.00">Kit/Itc/IOpenRequest.h</text>
</a>
</g>
</g>
<!-- Node1&#45;&gt;Node20 -->
<g id="edge20_Node000001_Node000020" class="edge">
<title>Node1&#45;&gt;Node20</title>
<g id="a_edge20_Node000001_Node000020"><a xlink:title=" ">
<path fill="none" stroke="#63b8ff" d="M1186.03,-358.07C1133.49,-330.37 1014.37,-267.57 970.83,-244.61"/>
<polygon fill="#63b8ff" stroke="#63b8ff" points="1184.55,-361.25 1195.03,-362.82 1187.82,-355.06 1184.55,-361.25"/>
</a>
</g>
</g>
<!-- Node22 -->
<g id="Node000022" class="node">
<title>Node22</title>
<g id="a_Node000022"><a xlink:href="_response_message_8h.html" target="_top" xlink:title=" ">
<polygon fill="white" stroke="#666666" points="1336.5,-316 1188.5,-316 1188.5,-297 1336.5,-297 1336.5,-316"/>
<text text-anchor="middle" x="1262.5" y="-304" font-family="Helvetica,sans-Serif" font-size="10.00">Kit/Itc/ResponseMessage.h</text>
</a>
</g>
</g>
<!-- Node1&#45;&gt;Node22 -->
<g id="edge23_Node000001_Node000022" class="edge">
<title>Node1&#45;&gt;Node22</title>
<g id="a_edge23_Node000001_Node000022"><a xlink:title=" ">
<path fill="none" stroke="#63b8ff" d="M1224.83,-354.77C1234.62,-342.49 1247.52,-326.3 1255.4,-316.41"/>
<polygon fill="#63b8ff" stroke="#63b8ff" points="1221.87,-352.87 1218.38,-362.87 1227.35,-357.23 1221.87,-352.87"/>
</a>
</g>
</g>
<!-- Node23 -->
<g id="Node000023" class="node">
<title>Node23</title>
<g id="a_Node000023"><a xlink:href="_i_reader_request_8h.html" target="_top" xlink:title=" ">
<polygon fill="white" stroke="#666666" points="1478,-250 1335,-250 1335,-220 1478,-220 1478,-250"/>
<text text-anchor="start" x="1343" y="-238" font-family="Helvetica,sans-Serif" font-size="10.00">Kit/Persistence/Record</text>
<text text-anchor="middle" x="1406.5" y="-227" font-family="Helvetica,sans-Serif" font-size="10.00">/Journal/IReaderRequest.h</text>
</a>
</g>
</g>
<!-- Node1&#45;&gt;Node23 -->
<g id="edge34_Node000001_Node000023" class="edge">
<title>Node1&#45;&gt;Node23</title>
<g id="a_edge34_Node000001_Node000023"><a xlink:title=" ">
<path fill="none" stroke="#63b8ff" d="M1271.99,-360.41C1296.57,-353.73 1324.15,-343.24 1345.5,-327 1372.59,-306.38 1391.62,-270.11 1400.62,-250.15"/>
<polygon fill="#63b8ff" stroke="#63b8ff" points="1270.84,-357.1 1262.02,-362.97 1272.58,-363.88 1270.84,-357.1"/>
</a>
</g>
</g>
<!-- Node25 -->
<g id="Node000025" class="node">
<title>Node25</title>
<g id="a_Node000025"><a xlink:href="_i_reset_request_8h.html" target="_top" xlink:title=" ">
<polygon fill="white" stroke="#666666" points="1316.5,-250 1180.5,-250 1180.5,-220 1316.5,-220 1316.5,-250"/>
<text text-anchor="start" x="1188.5" y="-238" font-family="Helvetica,sans-Serif" font-size="10.00">Kit/Persistence/Record</text>
<text text-anchor="middle" x="1248.5" y="-227" font-family="Helvetica,sans-Serif" font-size="10.00">/Journal/IResetRequest.h</text>
</a>
</g>
</g>
<!-- Node1&#45;&gt;Node25 -->
<g id="edge35_Node000001_Node000025" class="edge">
<title>Node1&#45;&gt;Node25</title>
<g id="a_edge35_Node000001_Node000025"><a xlink:title=" ">
<path fill="none" stroke="#63b8ff" d="M1196.05,-355.26C1189.6,-347.38 1182.84,-337.38 1179.5,-327 1173.91,-309.66 1171.22,-302.23 1179.5,-286 1187.5,-270.32 1202.97,-258.41 1217.24,-250.16"/>
<polygon fill="#63b8ff" stroke="#63b8ff" points="1193.53,-357.69 1202.75,-362.9 1198.79,-353.08 1193.53,-357.69"/>
</a>
</g>
</g>
<!-- Node3 -->
<g id="Node000003" class="node">
<title>Node3</title>
<g id="a_Node000003"><a xlink:href="_rate_sync_8h.html" target="_top" xlink:title=" ">
<polygon fill="white" stroke="#666666" points="497,-118 342,-118 342,-77 497,-77 497,-118"/>
<text text-anchor="start" x="350" y="-106" font-family="Helvetica,sans-Serif" font-size="10.00">/home/runner/work/kit.core</text>
<text text-anchor="start" x="350" y="-95" font-family="Helvetica,sans-Serif" font-size="10.00">/kit.core/projects/examples</text>
<text text-anchor="middle" x="419.5" y="-84" font-family="Helvetica,sans-Serif" font-size="10.00">/Itc/Synchronous/RateSync.h</text>
</a>
</g>
</g>
<!-- Node2&#45;&gt;Node3 -->
<g id="edge2_Node000002_Node000003" class="edge">
<title>Node2&#45;&gt;Node3</title>
<g id="a_edge2_Node000002_Node000003"><a xlink:title=" ">
<path fill="none" stroke="#63b8ff" d="M841.75,-281.74C746.57,-240.44 552.39,-156.17 464.5,-118.03"/>
<polygon fill="#63b8ff" stroke="#63b8ff" points="840.63,-285.07 851.19,-285.84 843.41,-278.65 840.63,-285.07"/>
</a>
</g>
</g>
<!-- Node4 -->
<g id="Node000004" class="node">
<title>Node4</title>
<g id="a_Node000004"><a xlink:href="projects_2examples_2_itc_2_synchronous_2_server_8h.html" target="_top" xlink:title=" ">
<polygon fill="white" stroke="#666666" points="149,-41 0,-41 0,0 149,0 149,-41"/>
<text text-anchor="start" x="8" y="-29" font-family="Helvetica,sans-Serif" font-size="10.00">/home/runner/work/kit.core</text>
<text text-anchor="start" x="8" y="-18" font-family="Helvetica,sans-Serif" font-size="10.00">/kit.core/projects/examples</text>
<text text-anchor="middle" x="74.5" y="-7" font-family="Helvetica,sans-Serif" font-size="10.00">/Itc/Synchronous/Server.h</text>
</a>
</g>
</g>
<!-- Node3&#45;&gt;Node4 -->
<g id="edge3_Node000003_Node000004" class="edge">
<title>Node3&#45;&gt;Node4</title>
<g id="a_edge3_Node000003_Node000004"><a xlink:title=" ">
<path fill="none" stroke="#63b8ff" d="M331.82,-78.28C281.12,-67.64 216.16,-53.82 158.5,-41 155.43,-40.32 152.3,-39.62 149.14,-38.9"/>
<polygon fill="#63b8ff" stroke="#63b8ff" points="331.25,-81.74 341.76,-80.36 332.69,-74.89 331.25,-81.74"/>
</a>
</g>
</g>
<!-- Node6 -->
<g id="Node000006" class="node">
<title>Node6</title>
<g id="a_Node000006"><a xlink:href="_record_8h.html" target="_top" xlink:title=" ">
<polygon fill="white" stroke="#666666" points="1606.5,-184 1496.5,-184 1496.5,-154 1606.5,-154 1606.5,-184"/>
<text text-anchor="start" x="1504.5" y="-172" font-family="Helvetica,sans-Serif" font-size="10.00">Kit/Dm/Persistence</text>
<text text-anchor="middle" x="1551.5" y="-161" font-family="Helvetica,sans-Serif" font-size="10.00">/Record.h</text>
</a>
</g>
</g>
<!-- Node5&#45;&gt;Node6 -->
<g id="edge5_Node000005_Node000006" class="edge">
<title>Node5&#45;&gt;Node6</title>
<g id="a_edge5_Node000005_Node000006"><a xlink:title=" ">
<path fill="none" stroke="#63b8ff" d="M1551.5,-209.54C1551.5,-200.96 1551.5,-191.61 1551.5,-184.16"/>
<polygon fill="#63b8ff" stroke="#63b8ff" points="1548,-209.8 1551.5,-219.8 1555,-209.8 1548,-209.8"/>
</a>
</g>
</g>
<!-- Node8 -->
<g id="Node000008" class="node">
<title>Node8</title>
<g id="a_Node000008"><a xlink:href="_listener_client_sync_8h.html" target="_top" xlink:title=" ">
<polygon fill="white" stroke="#666666" points="1772.5,-250 1624.5,-250 1624.5,-220 1772.5,-220 1772.5,-250"/>
<text text-anchor="start" x="1632.5" y="-238" font-family="Helvetica,sans-Serif" font-size="10.00">Kit/Io/Socket/ListenerClient</text>
<text text-anchor="middle" x="1698.5" y="-227" font-family="Helvetica,sans-Serif" font-size="10.00">Sync.h</text>
</a>
</g>
</g>
<!-- Node7&#45;&gt;Node8 -->
<g id="edge7_Node000007_Node000008" class="edge">
<title>Node7&#45;&gt;Node8</title>
<g id="a_edge7_Node000007_Node000008"><a xlink:title=" ">
<path fill="none" stroke="#63b8ff" d="M1670.36,-282.56C1676.86,-271.82 1684.38,-259.36 1690.01,-250.04"/>
<polygon fill="#63b8ff" stroke="#63b8ff" points="1667.18,-281.07 1665,-291.44 1673.17,-284.69 1667.18,-281.07"/>
</a>
</g>
</g>
<!-- Node10 -->
<g id="Node000010" class="node">
<title>Node10</title>
<g id="a_Node000010"><a xlink:href="_open_close_sync_8h.html" target="_top" xlink:title=" ">
<polygon fill="white" stroke="#666666" points="993,-107 860,-107 860,-88 993,-88 993,-107"/>
<text text-anchor="middle" x="926.5" y="-95" font-family="Helvetica,sans-Serif" font-size="10.00">Kit/Itc/OpenCloseSync.h</text>
</a>
</g>
</g>
<!-- Node9&#45;&gt;Node10 -->
<g id="edge9_Node000009_Node000010" class="edge">
<title>Node9&#45;&gt;Node10</title>
<g id="a_edge9_Node000009_Node000010"><a xlink:title=" ">
<path fill="none" stroke="#63b8ff" d="M1079.23,-218.82C1043.13,-190.38 966.37,-129.91 937.65,-107.29"/>
<polygon fill="#63b8ff" stroke="#63b8ff" points="1077.46,-221.88 1087.48,-225.32 1081.79,-216.38 1077.46,-221.88"/>
</a>
</g>
</g>
<!-- Node10&#45;&gt;Node4 -->
<g id="edge15_Node000010_Node000004" class="edge">
<title>Node10&#45;&gt;Node4</title>
<g id="a_edge15_Node000010_Node000004"><a xlink:title=" ">
<path fill="none" stroke="#63b8ff" d="M849.62,-92.47C682.42,-83.47 290.23,-60.93 158.5,-41 155.39,-40.53 152.23,-40.01 149.04,-39.44"/>
<polygon fill="#63b8ff" stroke="#63b8ff" points="849.64,-95.98 859.82,-93.02 850.02,-88.99 849.64,-95.98"/>
</a>
</g>
</g>
<!-- Node11 -->
<g id="Node000011" class="node">
<title>Node11</title>
<g id="a_Node000011"><a xlink:href="_led_server_8h.html" target="_top" xlink:title=" ">
<polygon fill="white" stroke="#666666" points="623,-41 442,-41 442,0 623,0 623,-41"/>
<text text-anchor="start" x="450" y="-29" font-family="Helvetica,sans-Serif" font-size="10.00">/home/runner/work/kit.core</text>
<text text-anchor="start" x="450" y="-18" font-family="Helvetica,sans-Serif" font-size="10.00">/kit.core/projects/examples</text>
<text text-anchor="middle" x="532.5" y="-7" font-family="Helvetica,sans-Serif" font-size="10.00">/Container/RingBuffer/LedServer.h</text>
</a>
</g>
</g>
<!-- Node10&#45;&gt;Node11 -->
<g id="edge10_Node000010_Node000011" class="edge">
<title>Node10&#45;&gt;Node11</title>
<g id="a_edge10_Node000010_Node000011"><a xlink:title=" ">
<path fill="none" stroke="#63b8ff" d="M870.57,-86.12C811.22,-75.08 714.71,-57.02 631.5,-41 628.75,-40.47 625.95,-39.93 623.13,-39.38"/>
<polygon fill="#63b8ff" stroke="#63b8ff" points="870.02,-89.58 880.49,-87.97 871.3,-82.7 870.02,-89.58"/>
</a>
</g>
</g>
<!-- Node12 -->
<g id="Node000012" class="node">
<title>Node12</title>
<g id="a_Node000012"><a xlink:href="_producer_8h.html" target="_top" xlink:title=" ">
<polygon fill="white" stroke="#666666" points="816,-41 641,-41 641,0 816,0 816,-41"/>
<text text-anchor="start" x="649" y="-29" font-family="Helvetica,sans-Serif" font-size="10.00">/home/runner/work/kit.core</text>
<text text-anchor="start" x="649" y="-18" font-family="Helvetica,sans-Serif" font-size="10.00">/kit.core/projects/examples</text>
<text text-anchor="middle" x="728.5" y="-7" font-family="Helvetica,sans-Serif" font-size="10.00">/Container/RingBuffer/Producer.h</text>
</a>
</g>
</g>
<!-- Node10&#45;&gt;Node12 -->
<g id="edge11_Node000010_Node000012" class="edge">
<title>Node10&#45;&gt;Node12</title>
<g id="a_edge11_Node000010_Node000012"><a xlink:title=" ">
<path fill="none" stroke="#63b8ff" d="M894.37,-84.33C863.48,-72.63 816.28,-54.75 780.12,-41.05"/>
<polygon fill="#63b8ff" stroke="#63b8ff" points="893.2,-87.63 903.79,-87.9 895.68,-81.08 893.2,-87.63"/>
</a>
</g>
</g>
<!-- Node13 -->
<g id="Node000013" class="node">
<title>Node13</title>
<g id="a_Node000013"><a xlink:href="_dm_2_transaction_2_client_8h.html" target="_top" xlink:title=" ">
<polygon fill="white" stroke="#666666" points="983,-41 834,-41 834,0 983,0 983,-41"/>
<text text-anchor="start" x="842" y="-29" font-family="Helvetica,sans-Serif" font-size="10.00">/home/runner/work/kit.core</text>
<text text-anchor="start" x="842" y="-18" font-family="Helvetica,sans-Serif" font-size="10.00">/kit.core/projects/examples</text>
<text text-anchor="middle" x="908.5" y="-7" font-family="Helvetica,sans-Serif" font-size="10.00">/Dm/Transaction/Client.h</text>
</a>
</g>
</g>
<!-- Node10&#45;&gt;Node13 -->
<g id="edge12_Node000010_Node000013" class="edge">
<title>Node10&#45;&gt;Node13</title>
<g id="a_edge12_Node000010_Node000013"><a xlink:title=" ">
<path fill="none" stroke="#63b8ff" d="M922.05,-77.96C919.37,-66.79 915.96,-52.58 913.23,-41.21"/>
<polygon fill="#63b8ff" stroke="#63b8ff" points="918.7,-78.99 924.44,-87.9 925.5,-77.36 918.7,-78.99"/>
</a>
</g>
</g>
<!-- Node14 -->
<g id="Node000014" class="node">
<title>Node14</title>
<g id="a_Node000014"><a xlink:href="projects_2examples_2_dm_2_transaction_2_server_8h.html" target="_top" xlink:title=" ">
<polygon fill="white" stroke="#666666" points="1150,-41 1001,-41 1001,0 1150,0 1150,-41"/>
<text text-anchor="start" x="1009" y="-29" font-family="Helvetica,sans-Serif" font-size="10.00">/home/runner/work/kit.core</text>
<text text-anchor="start" x="1009" y="-18" font-family="Helvetica,sans-Serif" font-size="10.00">/kit.core/projects/examples</text>
<text text-anchor="middle" x="1075.5" y="-7" font-family="Helvetica,sans-Serif" font-size="10.00">/Dm/Transaction/Server.h</text>
</a>
</g>
</g>
<!-- Node10&#45;&gt;Node14 -->
<g id="edge13_Node000010_Node000014" class="edge">
<title>Node10&#45;&gt;Node14</title>
<g id="a_edge13_Node000010_Node000014"><a xlink:title=" ">
<path fill="none" stroke="#63b8ff" d="M952.83,-83.25C976.07,-71.55 1010.27,-54.34 1036.65,-41.05"/>
<polygon fill="#63b8ff" stroke="#63b8ff" points="950.95,-80.27 943.59,-87.9 954.1,-86.53 950.95,-80.27"/>
</a>
</g>
</g>
<!-- Node15 -->
<g id="Node000015" class="node">
<title>Node15</title>
<g id="a_Node000015"><a xlink:href="_itc_2_synchronous_2_client_8h.html" target="_top" xlink:title=" ">
<polygon fill="white" stroke="#666666" points="1317,-41 1168,-41 1168,0 1317,0 1317,-41"/>
<text text-anchor="start" x="1176" y="-29" font-family="Helvetica,sans-Serif" font-size="10.00">/home/runner/work/kit.core</text>
<text text-anchor="start" x="1176" y="-18" font-family="Helvetica,sans-Serif" font-size="10.00">/kit.core/projects/examples</text>
<text text-anchor="middle" x="1242.5" y="-7" font-family="Helvetica,sans-Serif" font-size="10.00">/Itc/Synchronous/Client.h</text>
</a>
</g>
</g>
<!-- Node10&#45;&gt;Node15 -->
<g id="edge14_Node000010_Node000015" class="edge">
<title>Node10&#45;&gt;Node15</title>
<g id="a_edge14_Node000010_Node000015"><a xlink:title=" ">
<path fill="none" stroke="#63b8ff" d="M972.24,-85.65C1023.46,-73.49 1107.24,-53.6 1167.96,-39.19"/>
<polygon fill="#63b8ff" stroke="#63b8ff" points="971.36,-82.25 962.44,-87.97 972.98,-89.07 971.36,-82.25"/>
</a>
</g>
</g>
<!-- Node16 -->
<g id="Node000016" class="node">
<title>Node16</title>
<g id="a_Node000016"><a xlink:href="_log_sink_8h.html" target="_top" xlink:title=" ">
<polygon fill="white" stroke="#666666" points="1464,-35.5 1335,-35.5 1335,-5.5 1464,-5.5 1464,-35.5"/>
<text text-anchor="start" x="1343" y="-23.5" font-family="Helvetica,sans-Serif" font-size="10.00">Kit/Logging/Framework</text>
<text text-anchor="middle" x="1399.5" y="-12.5" font-family="Helvetica,sans-Serif" font-size="10.00">/LogSink.h</text>
</a>
</g>
</g>
<!-- Node10&#45;&gt;Node16 -->
<g id="edge16_Node000010_Node000016" class="edge">
<title>Node10&#45;&gt;Node16</title>
<g id="a_edge16_Node000010_Node000016"><a xlink:title=" ">
<path fill="none" stroke="#63b8ff" d="M1003.35,-88.57C1084.03,-79.6 1214.37,-63.29 1325.5,-41 1333.32,-39.43 1341.53,-37.53 1349.53,-35.53"/>
<polygon fill="#63b8ff" stroke="#63b8ff" points="1002.83,-85.11 993.27,-89.68 1003.6,-92.06 1002.83,-85.11"/>
</a>
</g>
</g>
<!-- Node17 -->
<g id="Node000017" class="node">
<title>Node17</title>
<g id="a_Node000017"><a xlink:href="src_2_kit_2_persistence_2_record_2_journal_2_server_8h.html" target="_top" xlink:title=" ">
<polygon fill="white" stroke="#666666" points="1608.5,-35.5 1482.5,-35.5 1482.5,-5.5 1608.5,-5.5 1608.5,-35.5"/>
<text text-anchor="start" x="1490.5" y="-23.5" font-family="Helvetica,sans-Serif" font-size="10.00">Kit/Persistence/Record</text>
<text text-anchor="middle" x="1545.5" y="-12.5" font-family="Helvetica,sans-Serif" font-size="10.00">/Journal/Server.h</text>
</a>
</g>
</g>
<!-- Node10&#45;&gt;Node17 -->
<g id="edge17_Node000010_Node000017" class="edge">
<title>Node10&#45;&gt;Node17</title>
<g id="a_edge17_Node000010_Node000017"><a xlink:title=" ">
<path fill="none" stroke="#63b8ff" d="M1003.09,-92.68C1109.39,-86.49 1307.33,-71.72 1473.5,-41 1481.52,-39.52 1489.96,-37.58 1498.12,-35.51"/>
<polygon fill="#63b8ff" stroke="#63b8ff" points="1002.88,-89.19 993.09,-93.26 1003.28,-96.18 1002.88,-89.19"/>
</a>
</g>
</g>
<!-- Node18 -->
<g id="Node000018" class="node">
<title>Node18</title>
<g id="a_Node000018"><a xlink:href="src_2_kit_2_persistence_2_record_2_server_8h.html" target="_top" xlink:title=" ">
<polygon fill="white" stroke="#666666" points="293.5,-35.5 167.5,-35.5 167.5,-5.5 293.5,-5.5 293.5,-35.5"/>
<text text-anchor="start" x="175.5" y="-23.5" font-family="Helvetica,sans-Serif" font-size="10.00">Kit/Persistence/Record</text>
<text text-anchor="middle" x="230.5" y="-12.5" font-family="Helvetica,sans-Serif" font-size="10.00">/Server.h</text>
</a>
</g>
</g>
<!-- Node10&#45;&gt;Node18 -->
<g id="edge18_Node000010_Node000018" class="edge">
<title>Node10&#45;&gt;Node18</title>
<g id="a_edge18_Node000010_Node000018"><a xlink:title=" ">
<path fill="none" stroke="#63b8ff" d="M849.92,-94.02C731.66,-89.22 497.83,-75.86 302.5,-41 294.47,-39.57 286.03,-37.66 277.87,-35.59"/>
<polygon fill="#63b8ff" stroke="#63b8ff" points="849.83,-97.52 859.96,-94.42 850.1,-90.52 849.83,-97.52"/>
</a>
</g>
</g>
<!-- Node19 -->
<g id="Node000019" class="node">
<title>Node19</title>
<g id="a_Node000019"><a xlink:href="helpers_8h.html" target="_top" xlink:title="This file defines helper functions/interface for writing unit tests.">
<polygon fill="white" stroke="#666666" points="423.5,-35.5 311.5,-35.5 311.5,-5.5 423.5,-5.5 423.5,-35.5"/>
<text text-anchor="start" x="319.5" y="-23.5" font-family="Helvetica,sans-Serif" font-size="10.00">Kit/_support/testing</text>
<text text-anchor="middle" x="367.5" y="-12.5" font-family="Helvetica,sans-Serif" font-size="10.00">/helpers.h</text>
</a>
</g>
</g>
<!-- Node10&#45;&gt;Node19 -->
<g id="edge19_Node000010_Node000019" class="edge">
<title>Node10&#45;&gt;Node19</title>
<g id="a_edge19_Node000010_Node000019"><a xlink:title=" ">
<path fill="none" stroke="#63b8ff" d="M849.91,-92.17C752.23,-85.68 578.48,-70.84 432.5,-41 425.23,-39.51 417.6,-37.58 410.23,-35.5"/>
<polygon fill="#63b8ff" stroke="#63b8ff" points="849.78,-95.67 859.99,-92.83 850.24,-88.69 849.78,-95.67"/>
</a>
</g>
</g>
<!-- Node21 -->
<g id="Node000021" class="node">
<title>Node21</title>
<g id="a_Node000021"><a xlink:href="_open_sync_8h.html" target="_top" xlink:title=" ">
<polygon fill="white" stroke="#666666" points="985.5,-178.5 879.5,-178.5 879.5,-159.5 985.5,-159.5 985.5,-178.5"/>
<text text-anchor="middle" x="932.5" y="-166.5" font-family="Helvetica,sans-Serif" font-size="10.00">Kit/Itc/OpenSync.h</text>
</a>
</g>
</g>
<!-- Node20&#45;&gt;Node21 -->
<g id="edge21_Node000020_Node000021" class="edge">
<title>Node20&#45;&gt;Node21</title>
<g id="a_edge21_Node000020_Node000021"><a xlink:title=" ">
<path fill="none" stroke="#63b8ff" d="M948.25,-215.82C944.1,-203.74 938.83,-188.41 935.56,-178.91"/>
<polygon fill="#63b8ff" stroke="#63b8ff" points="944.97,-217.05 951.53,-225.37 951.59,-214.77 944.97,-217.05"/>
</a>
</g>
</g>
<!-- Node21&#45;&gt;Node10 -->
<g id="edge22_Node000021_Node000010" class="edge">
<title>Node21&#45;&gt;Node10</title>
<g id="a_edge22_Node000021_Node000010"><a xlink:title=" ">
<path fill="none" stroke="#63b8ff" d="M930.88,-149.21C929.69,-135.5 928.14,-117.55 927.24,-107.09"/>
<polygon fill="#63b8ff" stroke="#63b8ff" points="927.42,-149.82 931.76,-159.48 934.39,-149.21 927.42,-149.82"/>
</a>
</g>
</g>
<!-- Node22&#45;&gt;Node5 -->
<g id="edge24_Node000022_Node000005" class="edge">
<title>Node22&#45;&gt;Node5</title>
<g id="a_edge24_Node000022_Node000005"><a xlink:title=" ">
<path fill="none" stroke="#63b8ff" d="M1307.7,-294.63C1358.72,-282.36 1441.73,-262.4 1496.48,-249.23"/>
<polygon fill="#63b8ff" stroke="#63b8ff" points="1306.84,-291.24 1297.94,-296.98 1308.48,-298.04 1306.84,-291.24"/>
</a>
</g>
</g>
<!-- Node22&#45;&gt;Node9 -->
<g id="edge25_Node000022_Node000009" class="edge">
<title>Node22&#45;&gt;Node9</title>
<g id="a_edge25_Node000022_Node000009"><a xlink:title=" ">
<path fill="none" stroke="#63b8ff" d="M1232.82,-292.92C1199.81,-278.93 1147.39,-256.72 1118.77,-244.59"/>
<polygon fill="#63b8ff" stroke="#63b8ff" points="1231.82,-296.3 1242.39,-296.98 1234.55,-289.85 1231.82,-296.3"/>
</a>
</g>
</g>
<!-- Node22&#45;&gt;Node20 -->
<g id="edge26_Node000022_Node000020" class="edge">
<title>Node22&#45;&gt;Node20</title>
<g id="a_edge26_Node000022_Node000020"><a xlink:title=" ">
<path fill="none" stroke="#63b8ff" d="M1214.94,-294.77C1153.77,-280.97 1048.75,-257.27 992.58,-244.59"/>
<polygon fill="#63b8ff" stroke="#63b8ff" points="1214.21,-298.19 1224.73,-296.98 1215.75,-291.36 1214.21,-298.19"/>
</a>
</g>
</g>
<!-- Node22&#45;&gt;Node23 -->
<g id="edge27_Node000022_Node000023" class="edge">
<title>Node22&#45;&gt;Node23</title>
<g id="a_edge27_Node000022_Node000023"><a xlink:title=" ">
<path fill="none" stroke="#63b8ff" d="M1289.44,-292.5C1314.51,-280.4 1351.76,-262.42 1377.48,-250.01"/>
<polygon fill="#63b8ff" stroke="#63b8ff" points="1287.64,-289.48 1280.16,-296.98 1290.68,-295.78 1287.64,-289.48"/>
</a>
</g>
</g>
<!-- Node22&#45;&gt;Node25 -->
<g id="edge31_Node000022_Node000025" class="edge">
<title>Node22&#45;&gt;Node25</title>
<g id="a_edge31_Node000022_Node000025"><a xlink:title=" ">
<path fill="none" stroke="#63b8ff" d="M1258.79,-287.07C1256.46,-275.5 1253.49,-260.79 1251.35,-250.14"/>
<polygon fill="#63b8ff" stroke="#63b8ff" points="1255.38,-287.87 1260.78,-296.98 1262.24,-286.48 1255.38,-287.87"/>
</a>
</g>
</g>
<!-- Node23&#45;&gt;Node17 -->
<g id="edge30_Node000023_Node000017" class="edge">
<title>Node23&#45;&gt;Node17</title>
<g id="a_edge30_Node000023_Node000017"><a xlink:title=" ">
<path fill="none" stroke="#63b8ff" d="M1411.37,-209.54C1418.89,-176.65 1435.87,-117.63 1467.5,-77 1481.08,-59.56 1501.6,-45.26 1518.19,-35.55"/>
<polygon fill="#63b8ff" stroke="#63b8ff" points="1407.89,-209.11 1409.18,-219.62 1414.73,-210.6 1407.89,-209.11"/>
</a>
</g>
</g>
<!-- Node24 -->
<g id="Node000024" class="node">
<title>Node24</title>
<g id="a_Node000024"><a xlink:href="_reader_sync_8h.html" target="_top" xlink:title=" ">
<polygon fill="white" stroke="#666666" points="1602.5,-112.5 1476.5,-112.5 1476.5,-82.5 1602.5,-82.5 1602.5,-112.5"/>
<text text-anchor="start" x="1484.5" y="-100.5" font-family="Helvetica,sans-Serif" font-size="10.00">Kit/Persistence/Record</text>
<text text-anchor="middle" x="1539.5" y="-89.5" font-family="Helvetica,sans-Serif" font-size="10.00">/Journal/ReaderSync.h</text>
</a>
</g>
</g>
<!-- Node23&#45;&gt;Node24 -->
<g id="edge28_Node000023_Node000024" class="edge">
<title>Node23&#45;&gt;Node24</title>
<g id="a_edge28_Node000023_Node000024"><a xlink:title=" ">
<path fill="none" stroke="#63b8ff" d="M1427.68,-212.42C1455.19,-184.4 1502.42,-136.27 1525.71,-112.55"/>
<polygon fill="#63b8ff" stroke="#63b8ff" points="1424.99,-210.17 1420.48,-219.76 1429.98,-215.07 1424.99,-210.17"/>
</a>
</g>
</g>
<!-- Node24&#45;&gt;Node17 -->
<g id="edge29_Node000024_Node000017" class="edge">
<title>Node24&#45;&gt;Node17</title>
<g id="a_edge29_Node000024_Node000017"><a xlink:title=" ">
<path fill="none" stroke="#63b8ff" d="M1541.43,-72.41C1542.4,-60.24 1543.55,-45.9 1544.38,-35.54"/>
<polygon fill="#63b8ff" stroke="#63b8ff" points="1537.94,-72.15 1540.63,-82.39 1544.91,-72.7 1537.94,-72.15"/>
</a>
</g>
</g>
<!-- Node26 -->
<g id="Node000026" class="node">
<title>Node26</title>
<g id="a_Node000026"><a xlink:href="_reset_sync_8h.html" target="_top" xlink:title=" ">
<polygon fill="white" stroke="#666666" points="1344.5,-184 1218.5,-184 1218.5,-154 1344.5,-154 1344.5,-184"/>
<text text-anchor="start" x="1226.5" y="-172" font-family="Helvetica,sans-Serif" font-size="10.00">Kit/Persistence/Record</text>
<text text-anchor="middle" x="1281.5" y="-161" font-family="Helvetica,sans-Serif" font-size="10.00">/Journal/ResetSync.h</text>
</a>
</g>
</g>
<!-- Node25&#45;&gt;Node26 -->
<g id="edge32_Node000025_Node000026" class="edge">
<title>Node25&#45;&gt;Node26</title>
<g id="a_edge32_Node000025_Node000026"><a xlink:title=" ">
<path fill="none" stroke="#63b8ff" d="M1260.52,-210.68C1265.11,-201.79 1270.18,-191.95 1274.2,-184.16"/>
<polygon fill="#63b8ff" stroke="#63b8ff" points="1257.3,-209.3 1255.82,-219.8 1263.52,-212.51 1257.3,-209.3"/>
</a>
</g>
</g>
<!-- Node26&#45;&gt;Node17 -->
<g id="edge33_Node000026_Node000017" class="edge">
<title>Node26&#45;&gt;Node17</title>
<g id="a_edge33_Node000026_Node000017"><a xlink:title=" ">
<path fill="none" stroke="#63b8ff" d="M1304.37,-146.81C1326.95,-126.75 1363.12,-96.84 1398.5,-77 1429.91,-59.39 1468.01,-45.18 1497.55,-35.55"/>
<polygon fill="#63b8ff" stroke="#63b8ff" points="1301.79,-144.42 1296.7,-153.71 1306.47,-149.63 1301.79,-144.42"/>
</a>
</g>
</g>
</g>
</svg>
