<?xml version="1.0" encoding="UTF-8" standalone="no"?>
<!DOCTYPE svg PUBLIC "-//W3C//DTD SVG 1.1//EN"
 "http://www.w3.org/Graphics/SVG/1.1/DTD/svg11.dtd">
<!-- Generated by graphviz version 2.43.0 (0)
 -->
<!-- Title: Kit/Itc/RequestMessage.h Pages: 1 -->
<svg width="1017pt" height="357pt"
 viewBox="0.00 0.00 1017.08 357.00" xmlns="http://www.w3.org/2000/svg" xmlns:xlink="http://www.w3.org/1999/xlink">
<g id="graph0" class="graph" transform="scale(1 1) rotate(0) translate(4 353)">
<title>Kit/Itc/RequestMessage.h</title>
<!-- Node1 -->
<g id="Node000001" class="node">
<title>Node1</title>
<g id="a_Node000001"><a xlink:title=" ">
<polygon fill="#999999" stroke="#666666" points="253.08,-349 113.08,-349 113.08,-330 253.08,-330 253.08,-349"/>
<text text-anchor="middle" x="183.08" y="-337" font-family="Helvetica,sans-Serif" font-size="10.00">Kit/Itc/RequestMessage.h</text>
</a>
</g>
</g>
<!-- Node2 -->
<g id="Node000002" class="node">
<title>Node2</title>
<g id="a_Node000002"><a xlink:href="_server_message_8h.html" target="_top" xlink:title=" ">
<polygon fill="white" stroke="#666666" points="188.08,-294 56.08,-294 56.08,-275 188.08,-275 188.08,-294"/>
<text text-anchor="middle" x="122.08" y="-282" font-family="Helvetica,sans-Serif" font-size="10.00">Kit/Itc/ServerMessage.h</text>
</a>
</g>
</g>
<!-- Node1&#45;&gt;Node2 -->
<g id="edge1_Node000001_Node000002" class="edge">
<title>Node1&#45;&gt;Node2</title>
<g id="a_edge1_Node000001_Node000002"><a xlink:title=" ">
<path fill="none" stroke="#63b8ff" d="M173.28,-329.98C164.26,-322.15 150.67,-310.34 139.76,-300.86"/>
<polygon fill="#63b8ff" stroke="#63b8ff" points="141.9,-298.09 132.06,-294.17 137.31,-303.37 141.9,-298.09"/>
</a>
</g>
</g>
<!-- Node7 -->
<g id="Node000007" class="node">
<title>Node7</title>
<g id="a_Node000007"><a xlink:href="_s_a_p_8h.html" target="_top" xlink:title=" ">
<polygon fill="white" stroke="#666666" points="372.58,-294 297.58,-294 297.58,-275 372.58,-275 372.58,-294"/>
<text text-anchor="middle" x="335.08" y="-282" font-family="Helvetica,sans-Serif" font-size="10.00">Kit/Itc/SAP.h</text>
</a>
</g>
</g>
<!-- Node1&#45;&gt;Node7 -->
<g id="edge6_Node000001_Node000007" class="edge">
<title>Node1&#45;&gt;Node7</title>
<g id="a_edge6_Node000001_Node000007"><a xlink:title=" ">
<path fill="none" stroke="#63b8ff" d="M207.5,-329.98C232.8,-321.16 272.53,-307.31 300.93,-297.41"/>
<polygon fill="#63b8ff" stroke="#63b8ff" points="302.17,-300.68 310.46,-294.08 299.87,-294.07 302.17,-300.68"/>
</a>
</g>
</g>
<!-- Node3 -->
<g id="Node000003" class="node">
<title>Node3</title>
<g id="a_Node000003"><a xlink:href="_i_message_8h.html" target="_top" xlink:title=" ">
<polygon fill="white" stroke="#666666" points="169.08,-129 65.08,-129 65.08,-110 169.08,-110 169.08,-129"/>
<text text-anchor="middle" x="117.08" y="-117" font-family="Helvetica,sans-Serif" font-size="10.00">Kit/Itc/IMessage.h</text>
</a>
</g>
</g>
<!-- Node2&#45;&gt;Node3 -->
<g id="edge2_Node000002_Node000003" class="edge">
<title>Node2&#45;&gt;Node3</title>
<g id="a_edge2_Node000002_Node000003"><a xlink:title=" ">
<path fill="none" stroke="#63b8ff" d="M102.01,-274.97C72.45,-261.06 18.89,-230.3 2.08,-184 -8.19,-155.73 22.63,-139.74 54.94,-130.87"/>
<polygon fill="#63b8ff" stroke="#63b8ff" points="56.12,-134.18 64.97,-128.35 54.41,-127.4 56.12,-134.18"/>
</a>
</g>
</g>
<!-- Node6 -->
<g id="Node000006" class="node">
<title>Node6</title>
<g id="a_Node000006"><a xlink:href="_i_return_handler_8h.html" target="_top" xlink:title=" ">
<polygon fill="white" stroke="#666666" points="187.08,-239 57.08,-239 57.08,-220 187.08,-220 187.08,-239"/>
<text text-anchor="middle" x="122.08" y="-227" font-family="Helvetica,sans-Serif" font-size="10.00">Kit/Itc/IReturnHandler.h</text>
</a>
</g>
</g>
<!-- Node2&#45;&gt;Node6 -->
<g id="edge5_Node000002_Node000006" class="edge">
<title>Node2&#45;&gt;Node6</title>
<g id="a_edge5_Node000002_Node000006"><a xlink:title=" ">
<path fill="none" stroke="#63b8ff" d="M122.08,-274.75C122.08,-267.8 122.08,-257.85 122.08,-249.13"/>
<polygon fill="#63b8ff" stroke="#63b8ff" points="125.58,-249.09 122.08,-239.09 118.58,-249.09 125.58,-249.09"/>
</a>
</g>
</g>
<!-- Node4 -->
<g id="Node000004" class="node">
<title>Node4</title>
<g id="a_Node000004"><a xlink:href="_list_item_8h.html" target="_top" xlink:title=" ">
<polygon fill="white" stroke="#666666" points="353.08,-74 221.08,-74 221.08,-55 353.08,-55 353.08,-74"/>
<text text-anchor="middle" x="287.08" y="-62" font-family="Helvetica,sans-Serif" font-size="10.00">Kit/Container/ListItem.h</text>
</a>
</g>
</g>
<!-- Node3&#45;&gt;Node4 -->
<g id="edge3_Node000003_Node000004" class="edge">
<title>Node3&#45;&gt;Node4</title>
<g id="a_edge3_Node000003_Node000004"><a xlink:title=" ">
<path fill="none" stroke="#63b8ff" d="M144.39,-109.98C172.93,-101.09 217.9,-87.07 249.72,-77.15"/>
<polygon fill="#63b8ff" stroke="#63b8ff" points="251.04,-80.4 259.55,-74.08 248.96,-73.72 251.04,-80.4"/>
</a>
</g>
</g>
<!-- Node5 -->
<g id="Node000005" class="node">
<title>Node5</title>
<g id="a_Node000005"><a xlink:href="_item_8h.html" target="_top" xlink:title=" ">
<polygon fill="white" stroke="#666666" points="344.58,-19 229.58,-19 229.58,0 344.58,0 344.58,-19"/>
<text text-anchor="middle" x="287.08" y="-7" font-family="Helvetica,sans-Serif" font-size="10.00">Kit/Container/Item.h</text>
</a>
</g>
</g>
<!-- Node4&#45;&gt;Node5 -->
<g id="edge4_Node000004_Node000005" class="edge">
<title>Node4&#45;&gt;Node5</title>
<g id="a_edge4_Node000004_Node000005"><a xlink:title=" ">
<path fill="none" stroke="#63b8ff" d="M287.08,-54.75C287.08,-47.8 287.08,-37.85 287.08,-29.13"/>
<polygon fill="#63b8ff" stroke="#63b8ff" points="290.58,-29.09 287.08,-19.09 283.58,-29.09 290.58,-29.09"/>
</a>
</g>
</g>
<!-- Node8 -->
<g id="Node000008" class="node">
<title>Node8</title>
<g id="a_Node000008"><a xlink:href="_i_queue_8h.html" target="_top" xlink:title=" ">
<polygon fill="white" stroke="#666666" points="530.58,-239 391.58,-239 391.58,-220 530.58,-220 530.58,-239"/>
<text text-anchor="middle" x="461.08" y="-227" font-family="Helvetica,sans-Serif" font-size="10.00">Kit/EventQueue/IQueue.h</text>
</a>
</g>
</g>
<!-- Node7&#45;&gt;Node8 -->
<g id="edge7_Node000007_Node000008" class="edge">
<title>Node7&#45;&gt;Node8</title>
<g id="a_edge7_Node000007_Node000008"><a xlink:title=" ">
<path fill="none" stroke="#63b8ff" d="M355.32,-274.98C375.77,-266.38 407.61,-252.99 431.01,-243.15"/>
<polygon fill="#63b8ff" stroke="#63b8ff" points="432.6,-246.27 440.46,-239.17 429.89,-239.82 432.6,-246.27"/>
</a>
</g>
</g>
<!-- Node9 -->
<g id="Node000009" class="node">
<title>Node9</title>
<g id="a_Node000009"><a xlink:title=" ">
<polygon fill="#e0e0e0" stroke="#999999" points="84.58,-184 11.58,-184 11.58,-165 84.58,-165 84.58,-184"/>
<text text-anchor="middle" x="48.08" y="-172" font-family="Helvetica,sans-Serif" font-size="10.00">kit_config.h</text>
</a>
</g>
</g>
<!-- Node8&#45;&gt;Node9 -->
<g id="edge8_Node000008_Node000009" class="edge">
<title>Node8&#45;&gt;Node9</title>
<g id="a_edge8_Node000008_Node000009"><a xlink:title=" ">
<path fill="none" stroke="#63b8ff" d="M391.57,-221.37C319.8,-213.72 204.34,-200.58 94.62,-183.99"/>
<polygon fill="#63b8ff" stroke="#63b8ff" points="95.11,-180.53 84.7,-182.48 94.06,-187.45 95.11,-180.53"/>
</a>
</g>
</g>
<!-- Node10 -->
<g id="Node000010" class="node">
<title>Node10</title>
<g id="a_Node000010"><a xlink:href="_i_msg_notification_8h.html" target="_top" xlink:title=" ">
<polygon fill="white" stroke="#666666" points="287.08,-184 103.08,-184 103.08,-165 287.08,-165 287.08,-184"/>
<text text-anchor="middle" x="195.08" y="-172" font-family="Helvetica,sans-Serif" font-size="10.00">Kit/EventQueue/IMsgNotification.h</text>
</a>
</g>
</g>
<!-- Node8&#45;&gt;Node10 -->
<g id="edge9_Node000008_Node000010" class="edge">
<title>Node8&#45;&gt;Node10</title>
<g id="a_edge9_Node000008_Node000010"><a xlink:title=" ">
<path fill="none" stroke="#63b8ff" d="M418.34,-219.98C372.04,-210.76 298.1,-196.03 248.12,-186.07"/>
<polygon fill="#63b8ff" stroke="#63b8ff" points="248.64,-182.6 238.15,-184.08 247.27,-189.47 248.64,-182.6"/>
</a>
</g>
</g>
<!-- Node11 -->
<g id="Node000011" class="node">
<title>Node11</title>
<g id="a_Node000011"><a xlink:href="_i_timing_source_8h.html" target="_top" xlink:title=" ">
<polygon fill="white" stroke="#666666" points="457.08,-184 305.08,-184 305.08,-165 457.08,-165 457.08,-184"/>
<text text-anchor="middle" x="381.08" y="-172" font-family="Helvetica,sans-Serif" font-size="10.00">Kit/System/ITimingSource.h</text>
</a>
</g>
</g>
<!-- Node8&#45;&gt;Node11 -->
<g id="edge10_Node000008_Node000011" class="edge">
<title>Node8&#45;&gt;Node11</title>
<g id="a_edge10_Node000008_Node000011"><a xlink:title=" ">
<path fill="none" stroke="#63b8ff" d="M448.22,-219.98C435.93,-211.84 417.17,-199.41 402.6,-189.76"/>
<polygon fill="#63b8ff" stroke="#63b8ff" points="404.43,-186.78 394.16,-184.17 400.57,-192.61 404.43,-186.78"/>
</a>
</g>
</g>
<!-- Node14 -->
<g id="Node000014" class="node">
<title>Node14</title>
<g id="a_Node000014"><a xlink:href="_i_runnable_8h.html" target="_top" xlink:title=" ">
<polygon fill="white" stroke="#666666" points="606.58,-184 475.58,-184 475.58,-165 606.58,-165 606.58,-184"/>
<text text-anchor="middle" x="541.08" y="-172" font-family="Helvetica,sans-Serif" font-size="10.00">Kit/System/IRunnable.h</text>
</a>
</g>
</g>
<!-- Node8&#45;&gt;Node14 -->
<g id="edge14_Node000008_Node000014" class="edge">
<title>Node8&#45;&gt;Node14</title>
<g id="a_edge14_Node000008_Node000014"><a xlink:title=" ">
<path fill="none" stroke="#63b8ff" d="M473.93,-219.98C486.22,-211.84 504.98,-199.41 519.55,-189.76"/>
<polygon fill="#63b8ff" stroke="#63b8ff" points="521.59,-192.61 527.99,-184.17 517.72,-186.78 521.59,-192.61"/>
</a>
</g>
</g>
<!-- Node15 -->
<g id="Node000015" class="node">
<title>Node15</title>
<g id="a_Node000015"><a xlink:href="_i_event_manager_8h.html" target="_top" xlink:title=" ">
<polygon fill="white" stroke="#666666" points="663.58,-129 508.58,-129 508.58,-110 663.58,-110 663.58,-129"/>
<text text-anchor="middle" x="586.08" y="-117" font-family="Helvetica,sans-Serif" font-size="10.00">Kit/System/IEventManager.h</text>
</a>
</g>
</g>
<!-- Node8&#45;&gt;Node15 -->
<g id="edge15_Node000008_Node000015" class="edge">
<title>Node8&#45;&gt;Node15</title>
<g id="a_edge15_Node000008_Node000015"><a xlink:title=" ">
<path fill="none" stroke="#63b8ff" d="M515.53,-219.95C555.09,-212.5 603.78,-200.32 616.08,-184 627.01,-169.48 615.04,-150.34 603.13,-136.88"/>
<polygon fill="#63b8ff" stroke="#63b8ff" points="605.36,-134.15 595.93,-129.33 600.3,-138.98 605.36,-134.15"/>
</a>
</g>
</g>
<!-- Node16 -->
<g id="Node000016" class="node">
<title>Node16</title>
<g id="a_Node000016"><a xlink:href="_i_signable_8h.html" target="_top" xlink:title=" ">
<polygon fill="white" stroke="#666666" points="790.58,-184 663.58,-184 663.58,-165 790.58,-165 790.58,-184"/>
<text text-anchor="middle" x="727.08" y="-172" font-family="Helvetica,sans-Serif" font-size="10.00">Kit/System/ISignable.h</text>
</a>
</g>
</g>
<!-- Node8&#45;&gt;Node16 -->
<g id="edge17_Node000008_Node000016" class="edge">
<title>Node8&#45;&gt;Node16</title>
<g id="a_edge17_Node000008_Node000016"><a xlink:title=" ">
<path fill="none" stroke="#63b8ff" d="M503.81,-219.98C550.12,-210.76 624.05,-196.03 674.03,-186.07"/>
<polygon fill="#63b8ff" stroke="#63b8ff" points="674.88,-189.47 684,-184.08 673.51,-182.6 674.88,-189.47"/>
</a>
</g>
</g>
<!-- Node17 -->
<g id="Node000017" class="node">
<title>Node17</title>
<g id="a_Node000017"><a xlink:href="_i_change_notification_8h.html" target="_top" xlink:title=" ">
<polygon fill="white" stroke="#666666" points="1009.08,-184 809.08,-184 809.08,-165 1009.08,-165 1009.08,-184"/>
<text text-anchor="middle" x="909.08" y="-172" font-family="Helvetica,sans-Serif" font-size="10.00">Kit/EventQueue/IChangeNotification.h</text>
</a>
</g>
</g>
<!-- Node8&#45;&gt;Node17 -->
<g id="edge18_Node000008_Node000017" class="edge">
<title>Node8&#45;&gt;Node17</title>
<g id="a_edge18_Node000008_Node000017"><a xlink:title=" ">
<path fill="none" stroke="#63b8ff" d="M530.58,-220.28C610.65,-210.81 742.05,-195.26 827.05,-185.2"/>
<polygon fill="#63b8ff" stroke="#63b8ff" points="827.66,-188.66 837.18,-184.01 826.84,-181.7 827.66,-188.66"/>
</a>
</g>
</g>
<!-- Node12 -->
<g id="Node000012" class="node">
<title>Node12</title>
<g id="a_Node000012"><a xlink:href="_i_counter_8h.html" target="_top" xlink:title=" ">
<polygon fill="white" stroke="#666666" points="442.08,-129 320.08,-129 320.08,-110 442.08,-110 442.08,-129"/>
<text text-anchor="middle" x="381.08" y="-117" font-family="Helvetica,sans-Serif" font-size="10.00">Kit/System/ICounter.h</text>
</a>
</g>
</g>
<!-- Node11&#45;&gt;Node12 -->
<g id="edge11_Node000011_Node000012" class="edge">
<title>Node11&#45;&gt;Node12</title>
<g id="a_edge11_Node000011_Node000012"><a xlink:title=" ">
<path fill="none" stroke="#63b8ff" d="M381.08,-164.75C381.08,-157.8 381.08,-147.85 381.08,-139.13"/>
<polygon fill="#63b8ff" stroke="#63b8ff" points="384.58,-139.09 381.08,-129.09 377.58,-139.09 384.58,-139.09"/>
</a>
</g>
</g>
<!-- Node12&#45;&gt;Node4 -->
<g id="edge12_Node000012_Node000004" class="edge">
<title>Node12&#45;&gt;Node4</title>
<g id="a_edge12_Node000012_Node000004"><a xlink:title=" ">
<path fill="none" stroke="#63b8ff" d="M365.97,-109.98C351.26,-101.69 328.65,-88.94 311.4,-79.22"/>
<polygon fill="#63b8ff" stroke="#63b8ff" points="312.88,-76.03 302.45,-74.17 309.45,-82.13 312.88,-76.03"/>
</a>
</g>
</g>
<!-- Node13 -->
<g id="Node000013" class="node">
<title>Node13</title>
<g id="a_Node000013"><a xlink:title=" ">
<polygon fill="#e0e0e0" stroke="#999999" points="500.58,-74 447.58,-74 447.58,-55 500.58,-55 500.58,-74"/>
<text text-anchor="middle" x="474.08" y="-62" font-family="Helvetica,sans-Serif" font-size="10.00">stdint.h</text>
</a>
</g>
</g>
<!-- Node12&#45;&gt;Node13 -->
<g id="edge13_Node000012_Node000013" class="edge">
<title>Node12&#45;&gt;Node13</title>
<g id="a_edge13_Node000012_Node000013"><a xlink:title=" ">
<path fill="none" stroke="#63b8ff" d="M396.02,-109.98C410.58,-101.69 432.94,-88.94 450.01,-79.22"/>
<polygon fill="#63b8ff" stroke="#63b8ff" points="451.91,-82.16 458.86,-74.17 448.44,-76.08 451.91,-82.16"/>
</a>
</g>
</g>
<!-- Node15&#45;&gt;Node13 -->
<g id="edge16_Node000015_Node000013" class="edge">
<title>Node15&#45;&gt;Node13</title>
<g id="a_edge16_Node000015_Node000013"><a xlink:title=" ">
<path fill="none" stroke="#63b8ff" d="M568.08,-109.98C550.15,-101.5 522.36,-88.35 501.64,-78.54"/>
<polygon fill="#63b8ff" stroke="#63b8ff" points="502.93,-75.28 492.4,-74.17 499.94,-81.61 502.93,-75.28"/>
</a>
</g>
</g>
</g>
</svg>
