<?xml version="1.0" encoding="UTF-8" standalone="no"?>
<!DOCTYPE svg PUBLIC "-//W3C//DTD SVG 1.1//EN"
 "http://www.w3.org/Graphics/SVG/1.1/DTD/svg11.dtd">
<!-- Generated by graphviz version 2.43.0 (0)
 -->
<!-- Title: Kit/Container/RingBuffer.h Pages: 1 -->
<svg width="1173pt" height="368pt"
 viewBox="0.00 0.00 1172.93 368.00" xmlns="http://www.w3.org/2000/svg" xmlns:xlink="http://www.w3.org/1999/xlink">
<g id="graph0" class="graph" transform="scale(1 1) rotate(0) translate(4 364)">
<title>Kit/Container/RingBuffer.h</title>
<!-- Node1 -->
<g id="Node000001" class="node">
<title>Node1</title>
<g id="a_Node000001"><a xlink:title=" ">
<polygon fill="#999999" stroke="#666666" points="946.43,-360 803.43,-360 803.43,-341 946.43,-341 946.43,-360"/>
<text text-anchor="middle" x="874.93" y="-348" font-family="Helvetica,sans-Serif" font-size="10.00">Kit/Container/RingBuffer.h</text>
</a>
</g>
</g>
<!-- Node2 -->
<g id="Node000002" class="node">
<title>Node2</title>
<g id="a_Node000002"><a xlink:title=" ">
<polygon fill="#e0e0e0" stroke="#999999" points="936.43,-140 863.43,-140 863.43,-121 936.43,-121 936.43,-140"/>
<text text-anchor="middle" x="899.93" y="-128" font-family="Helvetica,sans-Serif" font-size="10.00">kit_config.h</text>
</a>
</g>
</g>
<!-- Node1&#45;&gt;Node2 -->
<g id="edge1_Node000001_Node000002" class="edge">
<title>Node1&#45;&gt;Node2</title>
<g id="a_edge1_Node000001_Node000002"><a xlink:title=" ">
<path fill="none" stroke="#63b8ff" d="M870.67,-340.75C858.53,-314.52 826.28,-234.76 851.93,-176 857.2,-163.92 867.55,-153.65 877.3,-146.03"/>
<polygon fill="#63b8ff" stroke="#63b8ff" points="879.52,-148.74 885.56,-140.04 875.41,-143.07 879.52,-148.74"/>
</a>
</g>
</g>
<!-- Node3 -->
<g id="Node000003" class="node">
<title>Node3</title>
<g id="a_Node000003"><a xlink:href="_assert_8h.html" target="_top" xlink:title=" ">
<polygon fill="white" stroke="#666666" points="974.43,-195 861.43,-195 861.43,-176 974.43,-176 974.43,-195"/>
<text text-anchor="middle" x="917.93" y="-183" font-family="Helvetica,sans-Serif" font-size="10.00">Kit/System/Assert.h</text>
</a>
</g>
</g>
<!-- Node1&#45;&gt;Node3 -->
<g id="edge2_Node000001_Node000003" class="edge">
<title>Node1&#45;&gt;Node3</title>
<g id="a_edge2_Node000001_Node000003"><a xlink:title=" ">
<path fill="none" stroke="#63b8ff" d="M877.24,-340.74C883.97,-315.2 903.7,-240.43 912.98,-205.23"/>
<polygon fill="#63b8ff" stroke="#63b8ff" points="916.44,-205.87 915.6,-195.31 909.67,-204.08 916.44,-205.87"/>
</a>
</g>
</g>
<!-- Node5 -->
<g id="Node000005" class="node">
<title>Node5</title>
<g id="a_Node000005"><a xlink:href="_string_8h.html" target="_top" xlink:title=" ">
<polygon fill="white" stroke="#666666" points="628.43,-305 575.43,-305 575.43,-286 628.43,-286 628.43,-305"/>
<text text-anchor="middle" x="601.93" y="-293" font-family="Helvetica,sans-Serif" font-size="10.00">string.h</text>
</a>
</g>
</g>
<!-- Node1&#45;&gt;Node5 -->
<g id="edge5_Node000001_Node000005" class="edge">
<title>Node1&#45;&gt;Node5</title>
<g id="a_edge5_Node000001_Node000005"><a xlink:title=" ">
<path fill="none" stroke="#63b8ff" d="M831.06,-340.98C777.73,-330.63 688.68,-313.34 638.75,-303.65"/>
<polygon fill="#63b8ff" stroke="#63b8ff" points="639.2,-300.17 628.71,-301.7 637.86,-307.04 639.2,-300.17"/>
</a>
</g>
</g>
<!-- Node26 -->
<g id="Node000026" class="node">
<title>Node26</title>
<g id="a_Node000026"><a xlink:href="_ring_buffer_base_atomic_8h.html" target="_top" xlink:title=" ">
<polygon fill="white" stroke="#666666" points="1164.93,-85 1030.93,-85 1030.93,-55 1164.93,-55 1164.93,-85"/>
<text text-anchor="start" x="1038.93" y="-73" font-family="Helvetica,sans-Serif" font-size="10.00">Kit/Container/RingBuffer</text>
<text text-anchor="middle" x="1097.93" y="-62" font-family="Helvetica,sans-Serif" font-size="10.00">BaseAtomic.h</text>
</a>
</g>
</g>
<!-- Node1&#45;&gt;Node26 -->
<g id="edge42_Node000001_Node000026" class="edge">
<title>Node1&#45;&gt;Node26</title>
<g id="a_edge42_Node000001_Node000026"><a xlink:title=" ">
<path fill="none" stroke="#63b8ff" d="M938.18,-340.97C994.79,-329.36 1068.93,-302.5 1068.93,-241.5 1068.93,-241.5 1068.93,-241.5 1068.93,-184.5 1068.93,-152.58 1079.83,-117.13 1088.26,-94.49"/>
<polygon fill="#63b8ff" stroke="#63b8ff" points="1091.57,-95.63 1091.92,-85.04 1085.04,-93.1 1091.57,-95.63"/>
</a>
</g>
</g>
<!-- Node3&#45;&gt;Node2 -->
<g id="edge3_Node000003_Node000002" class="edge">
<title>Node3&#45;&gt;Node2</title>
<g id="a_edge3_Node000003_Node000002"><a xlink:title=" ">
<path fill="none" stroke="#63b8ff" d="M914.95,-175.75C912.57,-168.72 909.14,-158.62 906.16,-149.84"/>
<polygon fill="#63b8ff" stroke="#63b8ff" points="909.37,-148.43 902.84,-140.09 902.74,-150.68 909.37,-148.43"/>
</a>
</g>
</g>
<!-- Node4 -->
<g id="Node000004" class="node">
<title>Node4</title>
<g id="a_Node000004"><a xlink:title=" ">
<polygon fill="#e0e0e0" stroke="#999999" points="974.43,-79.5 909.43,-79.5 909.43,-60.5 974.43,-60.5 974.43,-79.5"/>
<text text-anchor="middle" x="941.93" y="-67.5" font-family="Helvetica,sans-Serif" font-size="10.00">kit_map.h</text>
</a>
</g>
</g>
<!-- Node3&#45;&gt;Node4 -->
<g id="edge4_Node000003_Node000004" class="edge">
<title>Node3&#45;&gt;Node4</title>
<g id="a_edge4_Node000003_Node000004"><a xlink:title=" ">
<path fill="none" stroke="#63b8ff" d="M925.08,-175.97C931.7,-167.48 941.08,-153.75 944.93,-140 949.56,-123.42 948.05,-103.73 945.83,-89.63"/>
<polygon fill="#63b8ff" stroke="#63b8ff" points="949.26,-88.9 944.01,-79.69 942.37,-90.16 949.26,-88.9"/>
</a>
</g>
</g>
<!-- Node6 -->
<g id="Node000006" class="node">
<title>Node6</title>
<g id="a_Node000006"><a xlink:href="_model_point_base_8h.html" target="_top" xlink:title=" ">
<polygon fill="white" stroke="#666666" points="672.43,-250 531.43,-250 531.43,-231 672.43,-231 672.43,-250"/>
<text text-anchor="middle" x="601.93" y="-238" font-family="Helvetica,sans-Serif" font-size="10.00">Kit/Dm/ModelPointBase.h</text>
</a>
</g>
</g>
<!-- Node5&#45;&gt;Node6 -->
<g id="edge6_Node000005_Node000006" class="edge">
<title>Node5&#45;&gt;Node6</title>
<g id="a_edge6_Node000005_Node000006"><a xlink:title=" ">
<path fill="none" stroke="#63b8ff" d="M601.93,-285.75C601.93,-278.8 601.93,-268.85 601.93,-260.13"/>
<polygon fill="#63b8ff" stroke="#63b8ff" points="605.43,-260.09 601.93,-250.09 598.43,-260.09 605.43,-260.09"/>
</a>
</g>
</g>
<!-- Node25 -->
<g id="Node000025" class="node">
<title>Node25</title>
<g id="a_Node000025"><a xlink:href="_observer_8h.html" target="_top" xlink:title=" ">
<polygon fill="white" stroke="#666666" points="377.93,-250 271.93,-250 271.93,-231 377.93,-231 377.93,-250"/>
<text text-anchor="middle" x="324.93" y="-238" font-family="Helvetica,sans-Serif" font-size="10.00">Kit/Dm/Observer.h</text>
</a>
</g>
</g>
<!-- Node5&#45;&gt;Node25 -->
<g id="edge38_Node000005_Node000025" class="edge">
<title>Node5&#45;&gt;Node25</title>
<g id="a_edge38_Node000005_Node000025"><a xlink:title=" ">
<path fill="none" stroke="#63b8ff" d="M575.37,-289.42C530.44,-280.82 438.56,-263.24 379.46,-251.93"/>
<polygon fill="#63b8ff" stroke="#63b8ff" points="380.02,-248.48 369.54,-250.04 378.71,-255.35 380.02,-248.48"/>
</a>
</g>
</g>
<!-- Node7 -->
<g id="Node000007" class="node">
<title>Node7</title>
<g id="a_Node000007"><a xlink:href="_i_model_point_8h.html" target="_top" xlink:title=" ">
<polygon fill="white" stroke="#666666" points="515.93,-195 395.93,-195 395.93,-176 515.93,-176 515.93,-195"/>
<text text-anchor="middle" x="455.93" y="-183" font-family="Helvetica,sans-Serif" font-size="10.00">Kit/Dm/IModelPoint.h</text>
</a>
</g>
</g>
<!-- Node6&#45;&gt;Node7 -->
<g id="edge7_Node000006_Node000007" class="edge">
<title>Node6&#45;&gt;Node7</title>
<g id="a_edge7_Node000006_Node000007"><a xlink:title=" ">
<path fill="none" stroke="#63b8ff" d="M578.47,-230.98C554.35,-222.23 516.56,-208.51 489.32,-198.62"/>
<polygon fill="#63b8ff" stroke="#63b8ff" points="490.4,-195.29 479.81,-195.17 488.02,-201.87 490.4,-195.29"/>
</a>
</g>
</g>
<!-- Node12 -->
<g id="Node000012" class="node">
<title>Node12</title>
<g id="a_Node000012"><a xlink:title=" ">
<polygon fill="#e0e0e0" stroke="#999999" points="564.43,-19 511.43,-19 511.43,0 564.43,0 564.43,-19"/>
<text text-anchor="middle" x="537.93" y="-7" font-family="Helvetica,sans-Serif" font-size="10.00">stdint.h</text>
</a>
</g>
</g>
<!-- Node6&#45;&gt;Node12 -->
<g id="edge36_Node000006_Node000012" class="edge">
<title>Node6&#45;&gt;Node12</title>
<g id="a_edge36_Node000006_Node000012"><a xlink:title=" ">
<path fill="none" stroke="#63b8ff" d="M633.1,-230.96C651.32,-224.27 673.01,-213 684.93,-195 719.35,-142.98 732.54,-104.76 694.93,-55 680.44,-35.83 616.22,-22.53 574.54,-15.73"/>
<polygon fill="#63b8ff" stroke="#63b8ff" points="574.89,-12.25 564.47,-14.15 573.8,-19.16 574.89,-12.25"/>
</a>
</g>
</g>
<!-- Node13 -->
<g id="Node000013" class="node">
<title>Node13</title>
<g id="a_Node000013"><a xlink:title=" ">
<polygon fill="#e0e0e0" stroke="#999999" points="968.43,-19 915.43,-19 915.43,0 968.43,0 968.43,-19"/>
<text text-anchor="middle" x="941.93" y="-7" font-family="Helvetica,sans-Serif" font-size="10.00">stdlib.h</text>
</a>
</g>
</g>
<!-- Node6&#45;&gt;Node13 -->
<g id="edge37_Node000006_Node000013" class="edge">
<title>Node6&#45;&gt;Node13</title>
<g id="a_edge37_Node000006_Node000013"><a xlink:title=" ">
<path fill="none" stroke="#63b8ff" d="M672.69,-236.24C777.19,-230.68 962.7,-217.73 982.93,-195 1024.29,-148.52 1005.56,-112.96 982.93,-55 978.52,-43.73 969.78,-33.59 961.5,-25.85"/>
<polygon fill="#63b8ff" stroke="#63b8ff" points="963.7,-23.12 953.85,-19.2 959.1,-28.4 963.7,-23.12"/>
</a>
</g>
</g>
<!-- Node18 -->
<g id="Node000018" class="node">
<title>Node18</title>
<g id="a_Node000018"><a xlink:href="_i_observer_8h.html" target="_top" xlink:title=" ">
<polygon fill="white" stroke="#666666" points="288.43,-140 179.43,-140 179.43,-121 288.43,-121 288.43,-140"/>
<text text-anchor="middle" x="233.93" y="-128" font-family="Helvetica,sans-Serif" font-size="10.00">Kit/Dm/IObserver.h</text>
</a>
</g>
</g>
<!-- Node6&#45;&gt;Node18 -->
<g id="edge32_Node000006_Node000018" class="edge">
<title>Node6&#45;&gt;Node18</title>
<g id="a_edge32_Node000006_Node000018"><a xlink:title=" ">
<path fill="none" stroke="#63b8ff" d="M540.61,-230.98C497,-223.92 437.43,-212.23 386.93,-195 368.68,-188.78 365.59,-183.73 347.93,-176 321.14,-164.27 290.2,-152.29 267.32,-143.72"/>
<polygon fill="#63b8ff" stroke="#63b8ff" points="268.33,-140.36 257.73,-140.15 265.89,-146.92 268.33,-140.36"/>
</a>
</g>
</g>
<!-- Node21 -->
<g id="Node000021" class="node">
<title>Node21</title>
<g id="a_Node000021"><a xlink:href="_i_model_database_8h.html" target="_top" xlink:title=" ">
<polygon fill="white" stroke="#666666" points="675.93,-195 533.93,-195 533.93,-176 675.93,-176 675.93,-195"/>
<text text-anchor="middle" x="604.93" y="-183" font-family="Helvetica,sans-Serif" font-size="10.00">Kit/Dm/IModelDatabase.h</text>
</a>
</g>
</g>
<!-- Node6&#45;&gt;Node21 -->
<g id="edge25_Node000006_Node000021" class="edge">
<title>Node6&#45;&gt;Node21</title>
<g id="a_edge25_Node000006_Node000021"><a xlink:title=" ">
<path fill="none" stroke="#63b8ff" d="M602.42,-230.75C602.81,-223.8 603.38,-213.85 603.87,-205.13"/>
<polygon fill="#63b8ff" stroke="#63b8ff" points="607.37,-205.27 604.44,-195.09 600.38,-204.88 607.37,-205.27"/>
</a>
</g>
</g>
<!-- Node23 -->
<g id="Node000023" class="node">
<title>Node23</title>
<g id="a_Node000023"><a xlink:href="_d_list_8h.html" target="_top" xlink:title=" ">
<polygon fill="white" stroke="#666666" points="339.43,-195 222.43,-195 222.43,-176 339.43,-176 339.43,-195"/>
<text text-anchor="middle" x="280.93" y="-183" font-family="Helvetica,sans-Serif" font-size="10.00">Kit/Container/DList.h</text>
</a>
</g>
</g>
<!-- Node6&#45;&gt;Node23 -->
<g id="edge33_Node000006_Node000023" class="edge">
<title>Node6&#45;&gt;Node23</title>
<g id="a_edge33_Node000006_Node000023"><a xlink:title=" ">
<path fill="none" stroke="#63b8ff" d="M550.35,-230.98C493.81,-221.65 403.12,-206.67 342.79,-196.71"/>
<polygon fill="#63b8ff" stroke="#63b8ff" points="343.07,-193.21 332.64,-195.04 341.93,-200.12 343.07,-193.21"/>
</a>
</g>
</g>
<!-- Node7&#45;&gt;Node2 -->
<g id="edge8_Node000007_Node000002" class="edge">
<title>Node7&#45;&gt;Node2</title>
<g id="a_edge8_Node000007_Node000002"><a xlink:title=" ">
<path fill="none" stroke="#63b8ff" d="M516.13,-177.03C519.1,-176.68 522.05,-176.33 524.93,-176 667.75,-159.39 706.66,-161.28 853.04,-140.02"/>
<polygon fill="#63b8ff" stroke="#63b8ff" points="853.92,-143.43 863.31,-138.52 852.91,-136.5 853.92,-143.43"/>
</a>
</g>
</g>
<!-- Node8 -->
<g id="Node000008" class="node">
<title>Node8</title>
<g id="a_Node000008"><a xlink:href="_list_item_8h.html" target="_top" xlink:title=" ">
<polygon fill="white" stroke="#666666" points="294.93,-79.5 162.93,-79.5 162.93,-60.5 294.93,-60.5 294.93,-79.5"/>
<text text-anchor="middle" x="228.93" y="-67.5" font-family="Helvetica,sans-Serif" font-size="10.00">Kit/Container/ListItem.h</text>
</a>
</g>
</g>
<!-- Node7&#45;&gt;Node8 -->
<g id="edge9_Node000007_Node000008" class="edge">
<title>Node7&#45;&gt;Node8</title>
<g id="a_edge9_Node000007_Node000008"><a xlink:title=" ">
<path fill="none" stroke="#63b8ff" d="M427.56,-175.92C402.77,-167.97 366.13,-155.11 335.93,-140 303.9,-123.97 269.55,-100.6 248.65,-85.59"/>
<polygon fill="#63b8ff" stroke="#63b8ff" points="250.45,-82.57 240.3,-79.53 246.34,-88.24 250.45,-82.57"/>
</a>
</g>
</g>
<!-- Node10 -->
<g id="Node000010" class="node">
<title>Node10</title>
<g id="a_Node000010"><a xlink:href="_i_string_8h.html" target="_top" xlink:title=" ">
<polygon fill="white" stroke="#666666" points="554.43,-140 457.43,-140 457.43,-121 554.43,-121 554.43,-140"/>
<text text-anchor="middle" x="505.93" y="-128" font-family="Helvetica,sans-Serif" font-size="10.00">Kit/Text/IString.h</text>
</a>
</g>
</g>
<!-- Node7&#45;&gt;Node10 -->
<g id="edge11_Node000007_Node000010" class="edge">
<title>Node7&#45;&gt;Node10</title>
<g id="a_edge11_Node000007_Node000010"><a xlink:title=" ">
<path fill="none" stroke="#63b8ff" d="M464.18,-175.75C471.39,-168.11 482.04,-156.82 490.77,-147.56"/>
<polygon fill="#63b8ff" stroke="#63b8ff" points="493.51,-149.76 497.82,-140.09 488.41,-144.96 493.51,-149.76"/>
</a>
</g>
</g>
<!-- Node7&#45;&gt;Node12 -->
<g id="edge24_Node000007_Node000012" class="edge">
<title>Node7&#45;&gt;Node12</title>
<g id="a_edge24_Node000007_Node000012"><a xlink:title=" ">
<path fill="none" stroke="#63b8ff" d="M449.86,-175.74C441.23,-163.36 424.8,-140.13 409.93,-121 397.14,-104.56 387.02,-104.58 379.93,-85 375.39,-72.46 371.88,-65.63 379.93,-55 394.52,-35.73 459.14,-22.46 501.09,-15.7"/>
<polygon fill="#63b8ff" stroke="#63b8ff" points="501.88,-19.12 511.22,-14.12 500.8,-12.2 501.88,-19.12"/>
</a>
</g>
</g>
<!-- Node7&#45;&gt;Node18 -->
<g id="edge19_Node000007_Node000018" class="edge">
<title>Node7&#45;&gt;Node18</title>
<g id="a_edge19_Node000007_Node000018"><a xlink:title=" ">
<path fill="none" stroke="#63b8ff" d="M420.26,-175.98C382.1,-166.87 321.45,-152.4 279.77,-142.45"/>
<polygon fill="#63b8ff" stroke="#63b8ff" points="280.41,-139 269.87,-140.08 278.79,-145.81 280.41,-139"/>
</a>
</g>
</g>
<!-- Node19 -->
<g id="Node000019" class="node">
<title>Node19</title>
<g id="a_Node000019"><a xlink:href="_arduino_8h_source.html" target="_top" xlink:title=" ">
<polygon fill="white" stroke="#666666" points="675.43,-140 572.43,-140 572.43,-121 675.43,-121 675.43,-140"/>
<text text-anchor="middle" x="623.93" y="-128" font-family="Helvetica,sans-Serif" font-size="10.00">Kit/Json/Arduino.h</text>
</a>
</g>
</g>
<!-- Node7&#45;&gt;Node19 -->
<g id="edge22_Node000007_Node000019" class="edge">
<title>Node7&#45;&gt;Node19</title>
<g id="a_edge22_Node000007_Node000019"><a xlink:title=" ">
<path fill="none" stroke="#63b8ff" d="M482.92,-175.98C511.12,-167.09 555.56,-153.07 587.01,-143.15"/>
<polygon fill="#63b8ff" stroke="#63b8ff" points="588.24,-146.43 596.72,-140.08 586.13,-139.75 588.24,-146.43"/>
</a>
</g>
</g>
<!-- Node20 -->
<g id="Node000020" class="node">
<title>Node20</title>
<g id="a_Node000020"><a xlink:title=" ">
<polygon fill="#e0e0e0" stroke="#999999" points="400.93,-140 344.93,-140 344.93,-121 400.93,-121 400.93,-140"/>
<text text-anchor="middle" x="372.93" y="-128" font-family="Helvetica,sans-Serif" font-size="10.00">stddef.h</text>
</a>
</g>
</g>
<!-- Node7&#45;&gt;Node20 -->
<g id="edge23_Node000007_Node000020" class="edge">
<title>Node7&#45;&gt;Node20</title>
<g id="a_edge23_Node000007_Node000020"><a xlink:title=" ">
<path fill="none" stroke="#63b8ff" d="M442.59,-175.98C429.84,-167.84 410.37,-155.41 395.26,-145.76"/>
<polygon fill="#63b8ff" stroke="#63b8ff" points="396.82,-142.6 386.5,-140.17 393.05,-148.5 396.82,-142.6"/>
</a>
</g>
</g>
<!-- Node9 -->
<g id="Node000009" class="node">
<title>Node9</title>
<g id="a_Node000009"><a xlink:href="_item_8h.html" target="_top" xlink:title=" ">
<polygon fill="white" stroke="#666666" points="286.43,-19 171.43,-19 171.43,0 286.43,0 286.43,-19"/>
<text text-anchor="middle" x="228.93" y="-7" font-family="Helvetica,sans-Serif" font-size="10.00">Kit/Container/Item.h</text>
</a>
</g>
</g>
<!-- Node8&#45;&gt;Node9 -->
<g id="edge10_Node000008_Node000009" class="edge">
<title>Node8&#45;&gt;Node9</title>
<g id="a_edge10_Node000008_Node000009"><a xlink:title=" ">
<path fill="none" stroke="#63b8ff" d="M228.93,-60.37C228.93,-52.25 228.93,-39.81 228.93,-29.39"/>
<polygon fill="#63b8ff" stroke="#63b8ff" points="232.43,-29.17 228.93,-19.17 225.43,-29.17 232.43,-29.17"/>
</a>
</g>
</g>
<!-- Node11 -->
<g id="Node000011" class="node">
<title>Node11</title>
<g id="a_Node000011"><a xlink:href="_key_8h.html" target="_top" xlink:title=" ">
<polygon fill="white" stroke="#666666" points="852.43,-79.5 743.43,-79.5 743.43,-60.5 852.43,-60.5 852.43,-79.5"/>
<text text-anchor="middle" x="797.93" y="-67.5" font-family="Helvetica,sans-Serif" font-size="10.00">Kit/Container/Key.h</text>
</a>
</g>
</g>
<!-- Node10&#45;&gt;Node11 -->
<g id="edge12_Node000010_Node000011" class="edge">
<title>Node10&#45;&gt;Node11</title>
<g id="a_edge12_Node000010_Node000011"><a xlink:title=" ">
<path fill="none" stroke="#63b8ff" d="M548.39,-120.99C600.5,-110.55 688.89,-92.85 745.27,-81.55"/>
<polygon fill="#63b8ff" stroke="#63b8ff" points="746.3,-84.91 755.42,-79.52 744.92,-78.05 746.3,-84.91"/>
</a>
</g>
</g>
<!-- Node15 -->
<g id="Node000015" class="node">
<title>Node15</title>
<g id="a_Node000015"><a xlink:href="printfchecker_8h.html" target="_top" xlink:title="This file contains macro that enables the GCC (and Clang) compiler to validate printf flags with thei...">
<polygon fill="white" stroke="#666666" points="686.43,-79.5 541.43,-79.5 541.43,-60.5 686.43,-60.5 686.43,-79.5"/>
<text text-anchor="middle" x="613.93" y="-67.5" font-family="Helvetica,sans-Serif" font-size="10.00">Kit/System/printfchecker.h</text>
</a>
</g>
</g>
<!-- Node10&#45;&gt;Node15 -->
<g id="edge16_Node000010_Node000015" class="edge">
<title>Node10&#45;&gt;Node15</title>
<g id="a_edge16_Node000010_Node000015"><a xlink:title=" ">
<path fill="none" stroke="#63b8ff" d="M521.86,-120.87C539.57,-111.28 568.39,-95.67 589.07,-84.47"/>
<polygon fill="#63b8ff" stroke="#63b8ff" points="590.8,-87.51 597.92,-79.67 587.46,-81.35 590.8,-87.51"/>
</a>
</g>
</g>
<!-- Node16 -->
<g id="Node000016" class="node">
<title>Node16</title>
<g id="a_Node000016"><a xlink:title=" ">
<polygon fill="#e0e0e0" stroke="#999999" points="444.93,-79.5 388.93,-79.5 388.93,-60.5 444.93,-60.5 444.93,-79.5"/>
<text text-anchor="middle" x="416.93" y="-67.5" font-family="Helvetica,sans-Serif" font-size="10.00">stdarg.h</text>
</a>
</g>
</g>
<!-- Node10&#45;&gt;Node16 -->
<g id="edge17_Node000010_Node000016" class="edge">
<title>Node10&#45;&gt;Node16</title>
<g id="a_edge17_Node000010_Node000016"><a xlink:title=" ">
<path fill="none" stroke="#63b8ff" d="M492.79,-120.87C478.6,-111.54 455.73,-96.51 438.81,-85.38"/>
<polygon fill="#63b8ff" stroke="#63b8ff" points="440.39,-82.24 430.11,-79.67 436.55,-88.08 440.39,-82.24"/>
</a>
</g>
</g>
<!-- Node17 -->
<g id="Node000017" class="node">
<title>Node17</title>
<g id="a_Node000017"><a xlink:title=" ">
<polygon fill="#e0e0e0" stroke="#999999" points="522.93,-79.5 462.93,-79.5 462.93,-60.5 522.93,-60.5 522.93,-79.5"/>
<text text-anchor="middle" x="492.93" y="-67.5" font-family="Helvetica,sans-Serif" font-size="10.00">iostream</text>
</a>
</g>
</g>
<!-- Node10&#45;&gt;Node17 -->
<g id="edge18_Node000010_Node000017" class="edge">
<title>Node10&#45;&gt;Node17</title>
<g id="a_edge18_Node000010_Node000017"><a xlink:title=" ">
<path fill="none" stroke="#63b8ff" d="M504.01,-120.87C502.18,-112.66 499.38,-100.04 497.05,-89.55"/>
<polygon fill="#63b8ff" stroke="#63b8ff" points="500.44,-88.67 494.85,-79.67 493.6,-90.19 500.44,-88.67"/>
</a>
</g>
</g>
<!-- Node11&#45;&gt;Node12 -->
<g id="edge13_Node000011_Node000012" class="edge">
<title>Node11&#45;&gt;Node12</title>
<g id="a_edge13_Node000011_Node000012"><a xlink:title=" ">
<path fill="none" stroke="#63b8ff" d="M760.12,-60.49C710.42,-49.31 623.67,-29.79 574.56,-18.74"/>
<polygon fill="#63b8ff" stroke="#63b8ff" points="575.2,-15.3 564.68,-16.52 573.67,-22.13 575.2,-15.3"/>
</a>
</g>
</g>
<!-- Node11&#45;&gt;Node13 -->
<g id="edge14_Node000011_Node000013" class="edge">
<title>Node11&#45;&gt;Node13</title>
<g id="a_edge14_Node000011_Node000013"><a xlink:title=" ">
<path fill="none" stroke="#63b8ff" d="M818.86,-60.49C843.29,-50.57 883.86,-34.09 911.69,-22.78"/>
<polygon fill="#63b8ff" stroke="#63b8ff" points="913.01,-26.02 920.96,-19.02 910.38,-19.54 913.01,-26.02"/>
</a>
</g>
</g>
<!-- Node14 -->
<g id="Node000014" class="node">
<title>Node14</title>
<g id="a_Node000014"><a xlink:title=" ">
<polygon fill="#e0e0e0" stroke="#999999" points="824.43,-19 771.43,-19 771.43,0 824.43,0 824.43,-19"/>
<text text-anchor="middle" x="797.93" y="-7" font-family="Helvetica,sans-Serif" font-size="10.00">limits.h</text>
</a>
</g>
</g>
<!-- Node11&#45;&gt;Node14 -->
<g id="edge15_Node000011_Node000014" class="edge">
<title>Node11&#45;&gt;Node14</title>
<g id="a_edge15_Node000011_Node000014"><a xlink:title=" ">
<path fill="none" stroke="#63b8ff" d="M797.93,-60.37C797.93,-52.25 797.93,-39.81 797.93,-29.39"/>
<polygon fill="#63b8ff" stroke="#63b8ff" points="801.43,-29.17 797.93,-19.17 794.43,-29.17 801.43,-29.17"/>
</a>
</g>
</g>
<!-- Node18&#45;&gt;Node8 -->
<g id="edge20_Node000018_Node000008" class="edge">
<title>Node18&#45;&gt;Node8</title>
<g id="a_edge20_Node000018_Node000008"><a xlink:title=" ">
<path fill="none" stroke="#63b8ff" d="M233.19,-120.87C232.49,-112.75 231.43,-100.31 230.54,-89.89"/>
<polygon fill="#63b8ff" stroke="#63b8ff" points="234.01,-89.33 229.67,-79.67 227.03,-89.93 234.01,-89.33"/>
</a>
</g>
</g>
<!-- Node18&#45;&gt;Node12 -->
<g id="edge21_Node000018_Node000012" class="edge">
<title>Node18&#45;&gt;Node12</title>
<g id="a_edge21_Node000018_Node000012"><a xlink:title=" ">
<path fill="none" stroke="#63b8ff" d="M247.72,-120.97C261.92,-112.14 284.63,-97.86 303.93,-85 323.32,-72.08 325.64,-64.48 346.93,-55 397.89,-32.3 461.86,-20.43 501.31,-14.82"/>
<polygon fill="#63b8ff" stroke="#63b8ff" points="501.84,-18.28 511.27,-13.47 500.89,-11.35 501.84,-18.28"/>
</a>
</g>
</g>
<!-- Node21&#45;&gt;Node2 -->
<g id="edge26_Node000021_Node000002" class="edge">
<title>Node21&#45;&gt;Node2</title>
<g id="a_edge26_Node000021_Node000002"><a xlink:title=" ">
<path fill="none" stroke="#63b8ff" d="M653.14,-175.97C701.16,-167.46 777.26,-153.91 853.06,-140.15"/>
<polygon fill="#63b8ff" stroke="#63b8ff" points="854.06,-143.52 863.27,-138.29 852.81,-136.64 854.06,-143.52"/>
</a>
</g>
</g>
<!-- Node21&#45;&gt;Node10 -->
<g id="edge27_Node000021_Node000010" class="edge">
<title>Node21&#45;&gt;Node10</title>
<g id="a_edge27_Node000021_Node000010"><a xlink:title=" ">
<path fill="none" stroke="#63b8ff" d="M589.02,-175.98C573.38,-167.61 549.27,-154.7 531.04,-144.95"/>
<polygon fill="#63b8ff" stroke="#63b8ff" points="532.59,-141.8 522.12,-140.17 529.29,-147.98 532.59,-141.8"/>
</a>
</g>
</g>
<!-- Node21&#45;&gt;Node19 -->
<g id="edge31_Node000021_Node000019" class="edge">
<title>Node21&#45;&gt;Node19</title>
<g id="a_edge31_Node000021_Node000019"><a xlink:title=" ">
<path fill="none" stroke="#63b8ff" d="M608.06,-175.75C610.61,-168.65 614.28,-158.4 617.45,-149.56"/>
<polygon fill="#63b8ff" stroke="#63b8ff" points="620.77,-150.68 620.85,-140.09 614.18,-148.32 620.77,-150.68"/>
</a>
</g>
</g>
<!-- Node22 -->
<g id="Node000022" class="node">
<title>Node22</title>
<g id="a_Node000022"><a xlink:href="_mutex_8h.html" target="_top" xlink:title=" ">
<polygon fill="white" stroke="#666666" points="845.43,-140 732.43,-140 732.43,-121 845.43,-121 845.43,-140"/>
<text text-anchor="middle" x="788.93" y="-128" font-family="Helvetica,sans-Serif" font-size="10.00">Kit/System/Mutex.h</text>
</a>
</g>
</g>
<!-- Node21&#45;&gt;Node22 -->
<g id="edge28_Node000021_Node000022" class="edge">
<title>Node21&#45;&gt;Node22</title>
<g id="a_edge28_Node000021_Node000022"><a xlink:title=" ">
<path fill="none" stroke="#63b8ff" d="M634.49,-175.98C665.65,-167.01 714.9,-152.82 749.38,-142.89"/>
<polygon fill="#63b8ff" stroke="#63b8ff" points="750.49,-146.21 759.13,-140.08 748.55,-139.49 750.49,-146.21"/>
</a>
</g>
</g>
<!-- Node22&#45;&gt;Node4 -->
<g id="edge30_Node000022_Node000004" class="edge">
<title>Node22&#45;&gt;Node4</title>
<g id="a_edge30_Node000022_Node000004"><a xlink:title=" ">
<path fill="none" stroke="#63b8ff" d="M811.17,-120.99C837.23,-111.03 880.6,-94.45 910.19,-83.13"/>
<polygon fill="#63b8ff" stroke="#63b8ff" points="911.56,-86.36 919.65,-79.52 909.06,-79.82 911.56,-86.36"/>
</a>
</g>
</g>
<!-- Node22&#45;&gt;Node13 -->
<g id="edge29_Node000022_Node000013" class="edge">
<title>Node22&#45;&gt;Node13</title>
<g id="a_edge29_Node000022_Node000013"><a xlink:title=" ">
<path fill="none" stroke="#63b8ff" d="M804.65,-120.93C819.63,-112.52 842.54,-98.94 860.93,-85 885.04,-66.72 910.32,-42.54 926.1,-26.76"/>
<polygon fill="#63b8ff" stroke="#63b8ff" points="928.88,-28.92 933.42,-19.35 923.9,-24 928.88,-28.92"/>
</a>
</g>
</g>
<!-- Node24 -->
<g id="Node000024" class="node">
<title>Node24</title>
<g id="a_Node000024"><a xlink:href="_d_list_base_8h.html" target="_top" xlink:title=" ">
<polygon fill="white" stroke="#666666" points="161.43,-140 20.43,-140 20.43,-121 161.43,-121 161.43,-140"/>
<text text-anchor="middle" x="90.93" y="-128" font-family="Helvetica,sans-Serif" font-size="10.00">Kit/Container/DListBase.h</text>
</a>
</g>
</g>
<!-- Node23&#45;&gt;Node24 -->
<g id="edge34_Node000023_Node000024" class="edge">
<title>Node23&#45;&gt;Node24</title>
<g id="a_edge34_Node000023_Node000024"><a xlink:title=" ">
<path fill="none" stroke="#63b8ff" d="M250.4,-175.98C218.22,-167.01 167.37,-152.82 131.76,-142.89"/>
<polygon fill="#63b8ff" stroke="#63b8ff" points="132.26,-139.4 121.69,-140.08 130.38,-146.14 132.26,-139.4"/>
</a>
</g>
</g>
<!-- Node24&#45;&gt;Node8 -->
<g id="edge35_Node000024_Node000008" class="edge">
<title>Node24&#45;&gt;Node8</title>
<g id="a_edge35_Node000024_Node000008"><a xlink:title=" ">
<path fill="none" stroke="#63b8ff" d="M110.99,-120.99C134.29,-111.12 172.94,-94.73 199.6,-83.43"/>
<polygon fill="#63b8ff" stroke="#63b8ff" points="200.99,-86.64 208.84,-79.52 198.26,-80.2 200.99,-86.64"/>
</a>
</g>
</g>
<!-- Node25&#45;&gt;Node7 -->
<g id="edge40_Node000025_Node000007" class="edge">
<title>Node25&#45;&gt;Node7</title>
<g id="a_edge40_Node000025_Node000007"><a xlink:title=" ">
<path fill="none" stroke="#63b8ff" d="M345.97,-230.98C367.33,-222.34 400.63,-208.87 424.99,-199.02"/>
<polygon fill="#63b8ff" stroke="#63b8ff" points="426.54,-202.17 434.5,-195.17 423.91,-195.68 426.54,-202.17"/>
</a>
</g>
</g>
<!-- Node25&#45;&gt;Node12 -->
<g id="edge41_Node000025_Node000012" class="edge">
<title>Node25&#45;&gt;Node12</title>
<g id="a_edge41_Node000025_Node000012"><a xlink:title=" ">
<path fill="none" stroke="#63b8ff" d="M271.92,-238.9C167.24,-235.65 -50.78,-217.44 10.93,-121 64.31,-37.57 390.43,-16.54 501.17,-11.78"/>
<polygon fill="#63b8ff" stroke="#63b8ff" points="501.35,-15.27 511.2,-11.37 501.06,-8.28 501.35,-15.27"/>
</a>
</g>
</g>
<!-- Node25&#45;&gt;Node18 -->
<g id="edge39_Node000025_Node000018" class="edge">
<title>Node25&#45;&gt;Node18</title>
<g id="a_edge39_Node000025_Node000018"><a xlink:title=" ">
<path fill="none" stroke="#63b8ff" d="M271.85,-231.75C249.79,-225.62 226.26,-214.65 212.93,-195 203.39,-180.95 211.6,-162.23 220.4,-148.76"/>
<polygon fill="#63b8ff" stroke="#63b8ff" points="223.41,-150.57 226.37,-140.39 217.71,-146.5 223.41,-150.57"/>
</a>
</g>
</g>
<!-- Node26&#45;&gt;Node12 -->
<g id="edge43_Node000026_Node000012" class="edge">
<title>Node26&#45;&gt;Node12</title>
<g id="a_edge43_Node000026_Node000012"><a xlink:title=" ">
<path fill="none" stroke="#63b8ff" d="M1030.76,-60.58C1015.07,-58.68 998.42,-56.72 982.93,-55 831.47,-38.21 650.68,-21.01 574.56,-13.9"/>
<polygon fill="#63b8ff" stroke="#63b8ff" points="574.81,-10.4 564.53,-12.96 574.16,-17.37 574.81,-10.4"/>
</a>
</g>
</g>
<!-- Node26&#45;&gt;Node13 -->
<g id="edge44_Node000026_Node000013" class="edge">
<title>Node26&#45;&gt;Node13</title>
<g id="a_edge44_Node000026_Node000013"><a xlink:title=" ">
<path fill="none" stroke="#63b8ff" d="M1060.56,-54.99C1034.3,-45.14 999.51,-32.1 974.41,-22.68"/>
<polygon fill="#63b8ff" stroke="#63b8ff" points="975.56,-19.37 964.96,-19.14 973.1,-25.93 975.56,-19.37"/>
</a>
</g>
</g>
<!-- Node27 -->
<g id="Node000027" class="node">
<title>Node27</title>
<g id="a_Node000027"><a xlink:title=" ">
<polygon fill="#e0e0e0" stroke="#999999" points="1122.93,-19 1072.93,-19 1072.93,0 1122.93,0 1122.93,-19"/>
<text text-anchor="middle" x="1097.93" y="-7" font-family="Helvetica,sans-Serif" font-size="10.00">atomic</text>
</a>
</g>
</g>
<!-- Node26&#45;&gt;Node27 -->
<g id="edge45_Node000026_Node000027" class="edge">
<title>Node26&#45;&gt;Node27</title>
<g id="a_edge45_Node000026_Node000027"><a xlink:title=" ">
<path fill="none" stroke="#63b8ff" d="M1097.93,-54.84C1097.93,-47.21 1097.93,-37.7 1097.93,-29.45"/>
<polygon fill="#63b8ff" stroke="#63b8ff" points="1101.43,-29.27 1097.93,-19.27 1094.43,-29.27 1101.43,-29.27"/>
</a>
</g>
</g>
</g>
</svg>
