<?xml version="1.0" encoding="UTF-8" standalone="no"?>
<!DOCTYPE svg PUBLIC "-//W3C//DTD SVG 1.1//EN"
 "http://www.w3.org/Graphics/SVG/1.1/DTD/svg11.dtd">
<!-- Generated by graphviz version 2.43.0 (0)
 -->
<!-- Title: Kit/Container/RingBufferMPAllocate.h Pages: 1 -->
<svg width="1415pt" height="544pt"
 viewBox="0.00 0.00 1415.00 544.00" xmlns="http://www.w3.org/2000/svg" xmlns:xlink="http://www.w3.org/1999/xlink">
<g id="graph0" class="graph" transform="scale(1 1) rotate(0) translate(4 540)">
<title>Kit/Container/RingBufferMPAllocate.h</title>
<!-- Node1 -->
<g id="Node000001" class="node">
<title>Node1</title>
<g id="a_Node000001"><a xlink:title=" ">
<polygon fill="#999999" stroke="#666666" points="975,-536 841,-536 841,-506 975,-506 975,-536"/>
<text text-anchor="start" x="849" y="-524" font-family="Helvetica,sans-Serif" font-size="10.00">Kit/Container/RingBuffer</text>
<text text-anchor="middle" x="908" y="-513" font-family="Helvetica,sans-Serif" font-size="10.00">MPAllocate.h</text>
</a>
</g>
</g>
<!-- Node2 -->
<g id="Node000002" class="node">
<title>Node2</title>
<g id="a_Node000002"><a xlink:href="_ring_buffer_m_p_8h.html" target="_top" xlink:title=" ">
<polygon fill="white" stroke="#666666" points="557.5,-470 400.5,-470 400.5,-451 557.5,-451 557.5,-470"/>
<text text-anchor="middle" x="479" y="-458" font-family="Helvetica,sans-Serif" font-size="10.00">Kit/Container/RingBufferMP.h</text>
</a>
</g>
</g>
<!-- Node1&#45;&gt;Node2 -->
<g id="edge1_Node000001_Node000002" class="edge">
<title>Node1&#45;&gt;Node2</title>
<g id="a_edge1_Node000001_Node000002"><a xlink:title=" ">
<path fill="none" stroke="#63b8ff" d="M840.97,-510.86C762.32,-500.14 632.42,-482.42 551.49,-471.38"/>
<polygon fill="#63b8ff" stroke="#63b8ff" points="551.76,-467.89 541.38,-470.01 550.82,-474.83 551.76,-467.89"/>
</a>
</g>
</g>
<!-- Node7 -->
<g id="Node000007" class="node">
<title>Node7</title>
<g id="a_Node000007"><a xlink:href="_string_8h.html" target="_top" xlink:title=" ">
<polygon fill="white" stroke="#666666" points="1111.5,-305 1058.5,-305 1058.5,-286 1111.5,-286 1111.5,-305"/>
<text text-anchor="middle" x="1085" y="-293" font-family="Helvetica,sans-Serif" font-size="10.00">string.h</text>
</a>
</g>
</g>
<!-- Node1&#45;&gt;Node7 -->
<g id="edge68_Node000001_Node000007" class="edge">
<title>Node1&#45;&gt;Node7</title>
<g id="a_edge68_Node000001_Node000007"><a xlink:title=" ">
<path fill="none" stroke="#63b8ff" d="M919.34,-505.68C950.68,-466.1 1038.37,-355.38 1071.81,-313.15"/>
<polygon fill="#63b8ff" stroke="#63b8ff" points="1074.62,-315.24 1078.09,-305.23 1069.13,-310.9 1074.62,-315.24"/>
</a>
</g>
</g>
<!-- Node3 -->
<g id="Node000003" class="node">
<title>Node3</title>
<g id="a_Node000003"><a xlink:href="_ring_buffer_8h.html" target="_top" xlink:title=" ">
<polygon fill="white" stroke="#666666" points="339.5,-360 196.5,-360 196.5,-341 339.5,-341 339.5,-360"/>
<text text-anchor="middle" x="268" y="-348" font-family="Helvetica,sans-Serif" font-size="10.00">Kit/Container/RingBuffer.h</text>
</a>
</g>
</g>
<!-- Node2&#45;&gt;Node3 -->
<g id="edge2_Node000002_Node000003" class="edge">
<title>Node2&#45;&gt;Node3</title>
<g id="a_edge2_Node000002_Node000003"><a xlink:title=" ">
<path fill="none" stroke="#63b8ff" d="M447.1,-450.97C421.17,-443.39 384.1,-431.02 354,-415 328.47,-401.41 302.15,-380.84 285.47,-366.82"/>
<polygon fill="#63b8ff" stroke="#63b8ff" points="287.55,-363.99 277.68,-360.15 283,-369.31 287.55,-363.99"/>
</a>
</g>
</g>
<!-- Node25 -->
<g id="Node000025" class="node">
<title>Node25</title>
<g id="a_Node000025"><a xlink:href="_mutex_8h.html" target="_top" xlink:title=" ">
<polygon fill="white" stroke="#666666" points="427.5,-140 314.5,-140 314.5,-121 427.5,-121 427.5,-140"/>
<text text-anchor="middle" x="371" y="-128" font-family="Helvetica,sans-Serif" font-size="10.00">Kit/System/Mutex.h</text>
</a>
</g>
</g>
<!-- Node2&#45;&gt;Node25 -->
<g id="edge50_Node000002_Node000025" class="edge">
<title>Node2&#45;&gt;Node25</title>
<g id="a_edge50_Node000002_Node000025"><a xlink:title=" ">
<path fill="none" stroke="#63b8ff" d="M458.64,-450.91C426.6,-435.86 368,-401.51 368,-351.5 368,-351.5 368,-351.5 368,-239.5 368,-208.18 369.28,-171.77 370.16,-150.23"/>
<polygon fill="#63b8ff" stroke="#63b8ff" points="373.66,-150.32 370.6,-140.18 366.67,-150.02 373.66,-150.32"/>
</a>
</g>
</g>
<!-- Node31 -->
<g id="Node000031" class="node">
<title>Node31</title>
<g id="a_Node000031"><a xlink:href="_uint32_8h.html" target="_top" xlink:title=" ">
<polygon fill="white" stroke="#666666" points="645.5,-415 532.5,-415 532.5,-396 645.5,-396 645.5,-415"/>
<text text-anchor="middle" x="589" y="-403" font-family="Helvetica,sans-Serif" font-size="10.00">Kit/Dm/Mp/Uint32.h</text>
</a>
</g>
</g>
<!-- Node2&#45;&gt;Node31 -->
<g id="edge51_Node000002_Node000031" class="edge">
<title>Node2&#45;&gt;Node31</title>
<g id="a_edge51_Node000002_Node000031"><a xlink:title=" ">
<path fill="none" stroke="#63b8ff" d="M496.67,-450.98C514.29,-442.5 541.58,-429.35 561.93,-419.54"/>
<polygon fill="#63b8ff" stroke="#63b8ff" points="563.52,-422.66 571.01,-415.17 560.48,-416.36 563.52,-422.66"/>
</a>
</g>
</g>
<!-- Node4 -->
<g id="Node000004" class="node">
<title>Node4</title>
<g id="a_Node000004"><a xlink:title=" ">
<polygon fill="#e0e0e0" stroke="#999999" points="296.5,-140 223.5,-140 223.5,-121 296.5,-121 296.5,-140"/>
<text text-anchor="middle" x="260" y="-128" font-family="Helvetica,sans-Serif" font-size="10.00">kit_config.h</text>
</a>
</g>
</g>
<!-- Node3&#45;&gt;Node4 -->
<g id="edge3_Node000003_Node000004" class="edge">
<title>Node3&#45;&gt;Node4</title>
<g id="a_edge3_Node000003_Node000004"><a xlink:title=" ">
<path fill="none" stroke="#63b8ff" d="M273.69,-340.84C290,-314.88 334.09,-235.78 308,-176 302.73,-163.92 292.37,-153.65 282.63,-146.03"/>
<polygon fill="#63b8ff" stroke="#63b8ff" points="284.52,-143.07 274.37,-140.04 280.41,-148.74 284.52,-143.07"/>
</a>
</g>
</g>
<!-- Node5 -->
<g id="Node000005" class="node">
<title>Node5</title>
<g id="a_Node000005"><a xlink:href="_assert_8h.html" target="_top" xlink:title=" ">
<polygon fill="white" stroke="#666666" points="298.5,-195 185.5,-195 185.5,-176 298.5,-176 298.5,-195"/>
<text text-anchor="middle" x="242" y="-183" font-family="Helvetica,sans-Serif" font-size="10.00">Kit/System/Assert.h</text>
</a>
</g>
</g>
<!-- Node3&#45;&gt;Node5 -->
<g id="edge4_Node000003_Node000005" class="edge">
<title>Node3&#45;&gt;Node5</title>
<g id="a_edge4_Node000003_Node000005"><a xlink:title=" ">
<path fill="none" stroke="#63b8ff" d="M266.6,-340.74C262.53,-315.2 250.6,-240.43 244.99,-205.23"/>
<polygon fill="#63b8ff" stroke="#63b8ff" points="248.44,-204.63 243.4,-195.31 241.52,-205.73 248.44,-204.63"/>
</a>
</g>
</g>
<!-- Node3&#45;&gt;Node7 -->
<g id="edge7_Node000003_Node000007" class="edge">
<title>Node3&#45;&gt;Node7</title>
<g id="a_edge7_Node000003_Node000007"><a xlink:title=" ">
<path fill="none" stroke="#63b8ff" d="M339.79,-344.84C507.78,-333.95 921.78,-307.09 1047.92,-298.91"/>
<polygon fill="#63b8ff" stroke="#63b8ff" points="1048.45,-302.38 1058.21,-298.24 1048,-295.39 1048.45,-302.38"/>
</a>
</g>
</g>
<!-- Node29 -->
<g id="Node000029" class="node">
<title>Node29</title>
<g id="a_Node000029"><a xlink:href="_ring_buffer_base_atomic_8h.html" target="_top" xlink:title=" ">
<polygon fill="white" stroke="#666666" points="134,-85 0,-85 0,-55 134,-55 134,-85"/>
<text text-anchor="start" x="8" y="-73" font-family="Helvetica,sans-Serif" font-size="10.00">Kit/Container/RingBuffer</text>
<text text-anchor="middle" x="67" y="-62" font-family="Helvetica,sans-Serif" font-size="10.00">BaseAtomic.h</text>
</a>
</g>
</g>
<!-- Node3&#45;&gt;Node29 -->
<g id="edge46_Node000003_Node000029" class="edge">
<title>Node3&#45;&gt;Node29</title>
<g id="a_edge46_Node000003_Node000029"><a xlink:title=" ">
<path fill="none" stroke="#63b8ff" d="M203.01,-340.96C145.95,-329.38 72,-302.59 72,-241.5 72,-241.5 72,-241.5 72,-184.5 72,-153.82 70.15,-118.52 68.71,-95.54"/>
<polygon fill="#63b8ff" stroke="#63b8ff" points="72.18,-95.07 68.04,-85.32 65.2,-95.53 72.18,-95.07"/>
</a>
</g>
</g>
<!-- Node5&#45;&gt;Node4 -->
<g id="edge5_Node000005_Node000004" class="edge">
<title>Node5&#45;&gt;Node4</title>
<g id="a_edge5_Node000005_Node000004"><a xlink:title=" ">
<path fill="none" stroke="#63b8ff" d="M244.97,-175.75C247.36,-168.72 250.79,-158.62 253.77,-149.84"/>
<polygon fill="#63b8ff" stroke="#63b8ff" points="257.18,-150.68 257.08,-140.09 250.55,-148.43 257.18,-150.68"/>
</a>
</g>
</g>
<!-- Node6 -->
<g id="Node000006" class="node">
<title>Node6</title>
<g id="a_Node000006"><a xlink:title=" ">
<polygon fill="#e0e0e0" stroke="#999999" points="299.5,-79.5 234.5,-79.5 234.5,-60.5 299.5,-60.5 299.5,-79.5"/>
<text text-anchor="middle" x="267" y="-67.5" font-family="Helvetica,sans-Serif" font-size="10.00">kit_map.h</text>
</a>
</g>
</g>
<!-- Node5&#45;&gt;Node6 -->
<g id="edge6_Node000005_Node000006" class="edge">
<title>Node5&#45;&gt;Node6</title>
<g id="a_edge6_Node000005_Node000006"><a xlink:title=" ">
<path fill="none" stroke="#63b8ff" d="M233.68,-175.87C222.96,-163.66 206.65,-140.62 215,-121 221.1,-106.68 233.54,-94.47 244.72,-85.71"/>
<polygon fill="#63b8ff" stroke="#63b8ff" points="246.91,-88.44 252.9,-79.7 242.77,-82.8 246.91,-88.44"/>
</a>
</g>
</g>
<!-- Node8 -->
<g id="Node000008" class="node">
<title>Node8</title>
<g id="a_Node000008"><a xlink:href="_model_point_base_8h.html" target="_top" xlink:title=" ">
<polygon fill="white" stroke="#666666" points="1144.5,-250 1003.5,-250 1003.5,-231 1144.5,-231 1144.5,-250"/>
<text text-anchor="middle" x="1074" y="-238" font-family="Helvetica,sans-Serif" font-size="10.00">Kit/Dm/ModelPointBase.h</text>
</a>
</g>
</g>
<!-- Node7&#45;&gt;Node8 -->
<g id="edge8_Node000007_Node000008" class="edge">
<title>Node7&#45;&gt;Node8</title>
<g id="a_edge8_Node000007_Node000008"><a xlink:title=" ">
<path fill="none" stroke="#63b8ff" d="M1083.18,-285.75C1081.74,-278.8 1079.68,-268.85 1077.87,-260.13"/>
<polygon fill="#63b8ff" stroke="#63b8ff" points="1081.24,-259.17 1075.78,-250.09 1074.39,-260.59 1081.24,-259.17"/>
</a>
</g>
</g>
<!-- Node28 -->
<g id="Node000028" class="node">
<title>Node28</title>
<g id="a_Node000028"><a xlink:href="_observer_8h.html" target="_top" xlink:title=" ">
<polygon fill="white" stroke="#666666" points="1269,-250 1163,-250 1163,-231 1269,-231 1269,-250"/>
<text text-anchor="middle" x="1216" y="-238" font-family="Helvetica,sans-Serif" font-size="10.00">Kit/Dm/Observer.h</text>
</a>
</g>
</g>
<!-- Node7&#45;&gt;Node28 -->
<g id="edge42_Node000007_Node000028" class="edge">
<title>Node7&#45;&gt;Node28</title>
<g id="a_edge42_Node000007_Node000028"><a xlink:title=" ">
<path fill="none" stroke="#63b8ff" d="M1106.05,-285.98C1127.41,-277.34 1160.7,-263.87 1185.06,-254.02"/>
<polygon fill="#63b8ff" stroke="#63b8ff" points="1186.61,-257.17 1194.57,-250.17 1183.99,-250.68 1186.61,-257.17"/>
</a>
</g>
</g>
<!-- Node9 -->
<g id="Node000009" class="node">
<title>Node9</title>
<g id="a_Node000009"><a xlink:href="_i_model_point_8h.html" target="_top" xlink:title=" ">
<polygon fill="white" stroke="#666666" points="1134,-195 1014,-195 1014,-176 1134,-176 1134,-195"/>
<text text-anchor="middle" x="1074" y="-183" font-family="Helvetica,sans-Serif" font-size="10.00">Kit/Dm/IModelPoint.h</text>
</a>
</g>
</g>
<!-- Node8&#45;&gt;Node9 -->
<g id="edge9_Node000008_Node000009" class="edge">
<title>Node8&#45;&gt;Node9</title>
<g id="a_edge9_Node000008_Node000009"><a xlink:title=" ">
<path fill="none" stroke="#63b8ff" d="M1074,-230.75C1074,-223.8 1074,-213.85 1074,-205.13"/>
<polygon fill="#63b8ff" stroke="#63b8ff" points="1077.5,-205.09 1074,-195.09 1070.5,-205.09 1077.5,-205.09"/>
</a>
</g>
</g>
<!-- Node14 -->
<g id="Node000014" class="node">
<title>Node14</title>
<g id="a_Node000014"><a xlink:title=" ">
<polygon fill="#e0e0e0" stroke="#999999" points="1221.5,-19 1168.5,-19 1168.5,0 1221.5,0 1221.5,-19"/>
<text text-anchor="middle" x="1195" y="-7" font-family="Helvetica,sans-Serif" font-size="10.00">stdint.h</text>
</a>
</g>
</g>
<!-- Node8&#45;&gt;Node14 -->
<g id="edge40_Node000008_Node000014" class="edge">
<title>Node8&#45;&gt;Node14</title>
<g id="a_edge40_Node000008_Node000014"><a xlink:title=" ">
<path fill="none" stroke="#63b8ff" d="M1095.06,-230.88C1110.49,-223.53 1130.8,-211.51 1143,-195 1181.02,-143.54 1191.26,-65.31 1194.01,-29.54"/>
<polygon fill="#63b8ff" stroke="#63b8ff" points="1197.53,-29.35 1194.68,-19.14 1190.54,-28.9 1197.53,-29.35"/>
</a>
</g>
</g>
<!-- Node15 -->
<g id="Node000015" class="node">
<title>Node15</title>
<g id="a_Node000015"><a xlink:title=" ">
<polygon fill="#e0e0e0" stroke="#999999" points="397.5,-19 344.5,-19 344.5,0 397.5,0 397.5,-19"/>
<text text-anchor="middle" x="371" y="-7" font-family="Helvetica,sans-Serif" font-size="10.00">stdlib.h</text>
</a>
</g>
</g>
<!-- Node8&#45;&gt;Node15 -->
<g id="edge41_Node000008_Node000015" class="edge">
<title>Node8&#45;&gt;Node15</title>
<g id="a_edge41_Node000008_Node000015"><a xlink:title=" ">
<path fill="none" stroke="#63b8ff" d="M1003.39,-239.68C910.23,-238.38 741.82,-230.66 603,-195 573.21,-187.35 500.5,-158.59 476,-140 433.7,-107.9 398.1,-55.3 381.32,-28.07"/>
<polygon fill="#63b8ff" stroke="#63b8ff" points="384.18,-26.02 376.02,-19.27 378.18,-29.64 384.18,-26.02"/>
</a>
</g>
</g>
<!-- Node21 -->
<g id="Node000021" class="node">
<title>Node21</title>
<g id="a_Node000021"><a xlink:href="_i_observer_8h.html" target="_top" xlink:title=" ">
<polygon fill="white" stroke="#666666" points="1302.5,-140 1193.5,-140 1193.5,-121 1302.5,-121 1302.5,-140"/>
<text text-anchor="middle" x="1248" y="-128" font-family="Helvetica,sans-Serif" font-size="10.00">Kit/Dm/IObserver.h</text>
</a>
</g>
</g>
<!-- Node8&#45;&gt;Node21 -->
<g id="edge36_Node000008_Node000021" class="edge">
<title>Node8&#45;&gt;Node21</title>
<g id="a_edge36_Node000008_Node000021"><a xlink:title=" ">
<path fill="none" stroke="#63b8ff" d="M1101.14,-230.9C1123.12,-223.26 1154.37,-210.87 1179,-195 1199.82,-181.58 1220.26,-161.69 1233.43,-147.75"/>
<polygon fill="#63b8ff" stroke="#63b8ff" points="1236.07,-150.05 1240.28,-140.33 1230.92,-145.3 1236.07,-150.05"/>
</a>
</g>
</g>
<!-- Node24 -->
<g id="Node000024" class="node">
<title>Node24</title>
<g id="a_Node000024"><a xlink:href="_i_model_database_8h.html" target="_top" xlink:title=" ">
<polygon fill="white" stroke="#666666" points="538,-195 396,-195 396,-176 538,-176 538,-195"/>
<text text-anchor="middle" x="467" y="-183" font-family="Helvetica,sans-Serif" font-size="10.00">Kit/Dm/IModelDatabase.h</text>
</a>
</g>
</g>
<!-- Node8&#45;&gt;Node24 -->
<g id="edge29_Node000008_Node000024" class="edge">
<title>Node8&#45;&gt;Node24</title>
<g id="a_edge29_Node000008_Node000024"><a xlink:title=" ">
<path fill="none" stroke="#63b8ff" d="M1003.47,-233.82C903.13,-225.66 713.43,-209.95 552,-195 550.89,-194.9 549.78,-194.79 548.65,-194.69"/>
<polygon fill="#63b8ff" stroke="#63b8ff" points="548.7,-191.18 538.41,-193.72 548.04,-198.15 548.7,-191.18"/>
</a>
</g>
</g>
<!-- Node26 -->
<g id="Node000026" class="node">
<title>Node26</title>
<g id="a_Node000026"><a xlink:href="_d_list_8h.html" target="_top" xlink:title=" ">
<polygon fill="white" stroke="#666666" points="995.5,-195 878.5,-195 878.5,-176 995.5,-176 995.5,-195"/>
<text text-anchor="middle" x="937" y="-183" font-family="Helvetica,sans-Serif" font-size="10.00">Kit/Container/DList.h</text>
</a>
</g>
</g>
<!-- Node8&#45;&gt;Node26 -->
<g id="edge37_Node000008_Node000026" class="edge">
<title>Node8&#45;&gt;Node26</title>
<g id="a_edge37_Node000008_Node000026"><a xlink:title=" ">
<path fill="none" stroke="#63b8ff" d="M1051.99,-230.98C1029.55,-222.3 994.52,-208.75 969.01,-198.88"/>
<polygon fill="#63b8ff" stroke="#63b8ff" points="970,-195.51 959.41,-195.17 967.48,-202.04 970,-195.51"/>
</a>
</g>
</g>
<!-- Node9&#45;&gt;Node4 -->
<g id="edge10_Node000009_Node000004" class="edge">
<title>Node9&#45;&gt;Node4</title>
<g id="a_edge10_Node000009_Node000004"><a xlink:title=" ">
<path fill="none" stroke="#63b8ff" d="M1013.82,-176.83C1010.84,-176.53 1007.89,-176.25 1005,-176 698.43,-149.26 616.7,-175.76 306.77,-139.9"/>
<polygon fill="#63b8ff" stroke="#63b8ff" points="306.93,-136.39 296.59,-138.71 306.12,-143.35 306.93,-136.39"/>
</a>
</g>
</g>
<!-- Node10 -->
<g id="Node000010" class="node">
<title>Node10</title>
<g id="a_Node000010"><a xlink:href="_keyed_item_8h.html" target="_top" xlink:title=" ">
<polygon fill="white" stroke="#666666" points="865.5,-140 720.5,-140 720.5,-121 865.5,-121 865.5,-140"/>
<text text-anchor="middle" x="793" y="-128" font-family="Helvetica,sans-Serif" font-size="10.00">Kit/Container/KeyedItem.h</text>
</a>
</g>
</g>
<!-- Node9&#45;&gt;Node10 -->
<g id="edge11_Node000009_Node000010" class="edge">
<title>Node9&#45;&gt;Node10</title>
<g id="a_edge11_Node000009_Node000010"><a xlink:title=" ">
<path fill="none" stroke="#63b8ff" d="M1028.85,-175.98C979.74,-166.72 901.18,-151.9 848.38,-141.94"/>
<polygon fill="#63b8ff" stroke="#63b8ff" points="848.98,-138.5 838.5,-140.08 847.68,-145.37 848.98,-138.5"/>
</a>
</g>
</g>
<!-- Node9&#45;&gt;Node14 -->
<g id="edge28_Node000009_Node000014" class="edge">
<title>Node9&#45;&gt;Node14</title>
<g id="a_edge28_Node000009_Node000014"><a xlink:title=" ">
<path fill="none" stroke="#63b8ff" d="M1081.27,-175.98C1088.52,-167.27 1099.73,-153.18 1108,-140 1130.5,-104.14 1126.26,-89.36 1151,-55 1158.51,-44.58 1168.46,-34.29 1177.01,-26.24"/>
<polygon fill="#63b8ff" stroke="#63b8ff" points="1179.61,-28.6 1184.64,-19.27 1174.89,-23.43 1179.61,-28.6"/>
</a>
</g>
</g>
<!-- Node17 -->
<g id="Node000017" class="node">
<title>Node17</title>
<g id="a_Node000017"><a xlink:href="_i_string_8h.html" target="_top" xlink:title=" ">
<polygon fill="white" stroke="#666666" points="581.5,-140 484.5,-140 484.5,-121 581.5,-121 581.5,-140"/>
<text text-anchor="middle" x="533" y="-128" font-family="Helvetica,sans-Serif" font-size="10.00">Kit/Text/IString.h</text>
</a>
</g>
</g>
<!-- Node9&#45;&gt;Node17 -->
<g id="edge18_Node000009_Node000017" class="edge">
<title>Node9&#45;&gt;Node17</title>
<g id="a_edge18_Node000009_Node000017"><a xlink:title=" ">
<path fill="none" stroke="#63b8ff" d="M1013.8,-176.96C1010.83,-176.62 1007.88,-176.3 1005,-176 824.54,-157.05 776.14,-161.24 591.74,-140.01"/>
<polygon fill="#63b8ff" stroke="#63b8ff" points="592.04,-136.53 581.71,-138.85 591.24,-143.48 592.04,-136.53"/>
</a>
</g>
</g>
<!-- Node9&#45;&gt;Node21 -->
<g id="edge23_Node000009_Node000021" class="edge">
<title>Node9&#45;&gt;Node21</title>
<g id="a_edge23_Node000009_Node000021"><a xlink:title=" ">
<path fill="none" stroke="#63b8ff" d="M1101.96,-175.98C1131.3,-167.05 1177.6,-152.94 1210.19,-143.02"/>
<polygon fill="#63b8ff" stroke="#63b8ff" points="1211.28,-146.34 1219.82,-140.08 1209.24,-139.65 1211.28,-146.34"/>
</a>
</g>
</g>
<!-- Node22 -->
<g id="Node000022" class="node">
<title>Node22</title>
<g id="a_Node000022"><a xlink:href="_arduino_8h_source.html" target="_top" xlink:title=" ">
<polygon fill="white" stroke="#666666" points="702.5,-140 599.5,-140 599.5,-121 702.5,-121 702.5,-140"/>
<text text-anchor="middle" x="651" y="-128" font-family="Helvetica,sans-Serif" font-size="10.00">Kit/Json/Arduino.h</text>
</a>
</g>
</g>
<!-- Node9&#45;&gt;Node22 -->
<g id="edge26_Node000009_Node000022" class="edge">
<title>Node9&#45;&gt;Node22</title>
<g id="a_edge26_Node000009_Node000022"><a xlink:title=" ">
<path fill="none" stroke="#63b8ff" d="M1013.79,-177.08C1010.82,-176.72 1007.88,-176.35 1005,-176 877.96,-160.37 843.74,-157.2 712.61,-140.06"/>
<polygon fill="#63b8ff" stroke="#63b8ff" points="712.95,-136.58 702.58,-138.75 712.04,-143.52 712.95,-136.58"/>
</a>
</g>
</g>
<!-- Node23 -->
<g id="Node000023" class="node">
<title>Node23</title>
<g id="a_Node000023"><a xlink:title=" ">
<polygon fill="#e0e0e0" stroke="#999999" points="1099,-140 1043,-140 1043,-121 1099,-121 1099,-140"/>
<text text-anchor="middle" x="1071" y="-128" font-family="Helvetica,sans-Serif" font-size="10.00">stddef.h</text>
</a>
</g>
</g>
<!-- Node9&#45;&gt;Node23 -->
<g id="edge27_Node000009_Node000023" class="edge">
<title>Node9&#45;&gt;Node23</title>
<g id="a_edge27_Node000009_Node000023"><a xlink:title=" ">
<path fill="none" stroke="#63b8ff" d="M1073.5,-175.75C1073.11,-168.8 1072.55,-158.85 1072.05,-150.13"/>
<polygon fill="#63b8ff" stroke="#63b8ff" points="1075.55,-149.88 1071.49,-140.09 1068.56,-150.27 1075.55,-149.88"/>
</a>
</g>
</g>
<!-- Node11 -->
<g id="Node000011" class="node">
<title>Node11</title>
<g id="a_Node000011"><a xlink:href="_list_item_8h.html" target="_top" xlink:title=" ">
<polygon fill="white" stroke="#666666" points="1020,-79.5 888,-79.5 888,-60.5 1020,-60.5 1020,-79.5"/>
<text text-anchor="middle" x="954" y="-67.5" font-family="Helvetica,sans-Serif" font-size="10.00">Kit/Container/ListItem.h</text>
</a>
</g>
</g>
<!-- Node10&#45;&gt;Node11 -->
<g id="edge12_Node000010_Node000011" class="edge">
<title>Node10&#45;&gt;Node11</title>
<g id="a_edge12_Node000010_Node000011"><a xlink:title=" ">
<path fill="none" stroke="#63b8ff" d="M816.41,-120.99C843.95,-110.99 889.87,-94.3 921.01,-82.99"/>
<polygon fill="#63b8ff" stroke="#63b8ff" points="922.36,-86.22 930.56,-79.52 919.97,-79.64 922.36,-86.22"/>
</a>
</g>
</g>
<!-- Node13 -->
<g id="Node000013" class="node">
<title>Node13</title>
<g id="a_Node000013"><a xlink:href="_key_8h.html" target="_top" xlink:title=" ">
<polygon fill="white" stroke="#666666" points="866.5,-79.5 757.5,-79.5 757.5,-60.5 866.5,-60.5 866.5,-79.5"/>
<text text-anchor="middle" x="812" y="-67.5" font-family="Helvetica,sans-Serif" font-size="10.00">Kit/Container/Key.h</text>
</a>
</g>
</g>
<!-- Node10&#45;&gt;Node13 -->
<g id="edge14_Node000010_Node000013" class="edge">
<title>Node10&#45;&gt;Node13</title>
<g id="a_edge14_Node000010_Node000013"><a xlink:title=" ">
<path fill="none" stroke="#63b8ff" d="M795.8,-120.87C798.5,-112.57 802.65,-99.78 806.08,-89.22"/>
<polygon fill="#63b8ff" stroke="#63b8ff" points="809.42,-90.26 809.18,-79.67 802.77,-88.1 809.42,-90.26"/>
</a>
</g>
</g>
<!-- Node12 -->
<g id="Node000012" class="node">
<title>Node12</title>
<g id="a_Node000012"><a xlink:href="_item_8h.html" target="_top" xlink:title=" ">
<polygon fill="white" stroke="#666666" points="1011.5,-19 896.5,-19 896.5,0 1011.5,0 1011.5,-19"/>
<text text-anchor="middle" x="954" y="-7" font-family="Helvetica,sans-Serif" font-size="10.00">Kit/Container/Item.h</text>
</a>
</g>
</g>
<!-- Node11&#45;&gt;Node12 -->
<g id="edge13_Node000011_Node000012" class="edge">
<title>Node11&#45;&gt;Node12</title>
<g id="a_edge13_Node000011_Node000012"><a xlink:title=" ">
<path fill="none" stroke="#63b8ff" d="M954,-60.37C954,-52.25 954,-39.81 954,-29.39"/>
<polygon fill="#63b8ff" stroke="#63b8ff" points="957.5,-29.17 954,-19.17 950.5,-29.17 957.5,-29.17"/>
</a>
</g>
</g>
<!-- Node13&#45;&gt;Node14 -->
<g id="edge15_Node000013_Node000014" class="edge">
<title>Node13&#45;&gt;Node14</title>
<g id="a_edge15_Node000013_Node000014"><a xlink:title=" ">
<path fill="none" stroke="#63b8ff" d="M850.53,-60.49C859.83,-58.57 869.75,-56.62 879,-55 979.65,-37.42 1099.29,-22.07 1158.31,-14.87"/>
<polygon fill="#63b8ff" stroke="#63b8ff" points="1158.77,-18.34 1168.27,-13.66 1157.92,-11.39 1158.77,-18.34"/>
</a>
</g>
</g>
<!-- Node13&#45;&gt;Node15 -->
<g id="edge16_Node000013_Node000015" class="edge">
<title>Node13&#45;&gt;Node15</title>
<g id="a_edge16_Node000013_Node000015"><a xlink:title=" ">
<path fill="none" stroke="#63b8ff" d="M775.9,-60.46C766.83,-58.49 757.09,-56.53 748,-55 623.99,-34.17 475.42,-19.67 407.78,-13.64"/>
<polygon fill="#63b8ff" stroke="#63b8ff" points="407.91,-10.13 397.64,-12.74 407.29,-17.11 407.91,-10.13"/>
</a>
</g>
</g>
<!-- Node16 -->
<g id="Node000016" class="node">
<title>Node16</title>
<g id="a_Node000016"><a xlink:title=" ">
<polygon fill="#e0e0e0" stroke="#999999" points="838.5,-19 785.5,-19 785.5,0 838.5,0 838.5,-19"/>
<text text-anchor="middle" x="812" y="-7" font-family="Helvetica,sans-Serif" font-size="10.00">limits.h</text>
</a>
</g>
</g>
<!-- Node13&#45;&gt;Node16 -->
<g id="edge17_Node000013_Node000016" class="edge">
<title>Node13&#45;&gt;Node16</title>
<g id="a_edge17_Node000013_Node000016"><a xlink:title=" ">
<path fill="none" stroke="#63b8ff" d="M812,-60.37C812,-52.25 812,-39.81 812,-29.39"/>
<polygon fill="#63b8ff" stroke="#63b8ff" points="815.5,-29.17 812,-19.17 808.5,-29.17 815.5,-29.17"/>
</a>
</g>
</g>
<!-- Node17&#45;&gt;Node13 -->
<g id="edge19_Node000017_Node000013" class="edge">
<title>Node17&#45;&gt;Node13</title>
<g id="a_edge19_Node000017_Node000013"><a xlink:title=" ">
<path fill="none" stroke="#63b8ff" d="M575.05,-120.94C618.41,-112.08 687.98,-97.78 748,-85 753.02,-83.93 758.25,-82.81 763.47,-81.68"/>
<polygon fill="#63b8ff" stroke="#63b8ff" points="764.41,-85.05 773.43,-79.51 762.92,-78.21 764.41,-85.05"/>
</a>
</g>
</g>
<!-- Node18 -->
<g id="Node000018" class="node">
<title>Node18</title>
<g id="a_Node000018"><a xlink:href="printfchecker_8h.html" target="_top" xlink:title="This file contains macro that enables the GCC (and Clang) compiler to validate printf flags with thei...">
<polygon fill="white" stroke="#666666" points="586.5,-79.5 441.5,-79.5 441.5,-60.5 586.5,-60.5 586.5,-79.5"/>
<text text-anchor="middle" x="514" y="-67.5" font-family="Helvetica,sans-Serif" font-size="10.00">Kit/System/printfchecker.h</text>
</a>
</g>
</g>
<!-- Node17&#45;&gt;Node18 -->
<g id="edge20_Node000017_Node000018" class="edge">
<title>Node17&#45;&gt;Node18</title>
<g id="a_edge20_Node000017_Node000018"><a xlink:title=" ">
<path fill="none" stroke="#63b8ff" d="M530.2,-120.87C527.5,-112.57 523.35,-99.78 519.92,-89.22"/>
<polygon fill="#63b8ff" stroke="#63b8ff" points="523.23,-88.1 516.82,-79.67 516.58,-90.26 523.23,-88.1"/>
</a>
</g>
</g>
<!-- Node19 -->
<g id="Node000019" class="node">
<title>Node19</title>
<g id="a_Node000019"><a xlink:title=" ">
<polygon fill="#e0e0e0" stroke="#999999" points="661,-79.5 605,-79.5 605,-60.5 661,-60.5 661,-79.5"/>
<text text-anchor="middle" x="633" y="-67.5" font-family="Helvetica,sans-Serif" font-size="10.00">stdarg.h</text>
</a>
</g>
</g>
<!-- Node17&#45;&gt;Node19 -->
<g id="edge21_Node000017_Node000019" class="edge">
<title>Node17&#45;&gt;Node19</title>
<g id="a_edge21_Node000017_Node000019"><a xlink:title=" ">
<path fill="none" stroke="#63b8ff" d="M547.76,-120.87C564,-111.36 590.35,-95.95 609.46,-84.77"/>
<polygon fill="#63b8ff" stroke="#63b8ff" points="611.32,-87.74 618.18,-79.67 607.79,-81.7 611.32,-87.74"/>
</a>
</g>
</g>
<!-- Node20 -->
<g id="Node000020" class="node">
<title>Node20</title>
<g id="a_Node000020"><a xlink:title=" ">
<polygon fill="#e0e0e0" stroke="#999999" points="739,-79.5 679,-79.5 679,-60.5 739,-60.5 739,-79.5"/>
<text text-anchor="middle" x="709" y="-67.5" font-family="Helvetica,sans-Serif" font-size="10.00">iostream</text>
</a>
</g>
</g>
<!-- Node17&#45;&gt;Node20 -->
<g id="edge22_Node000017_Node000020" class="edge">
<title>Node17&#45;&gt;Node20</title>
<g id="a_edge22_Node000017_Node000020"><a xlink:title=" ">
<path fill="none" stroke="#63b8ff" d="M560.12,-120.96C587.81,-112.18 632.02,-97.98 670,-85 671.89,-84.35 673.83,-83.68 675.78,-83"/>
<polygon fill="#63b8ff" stroke="#63b8ff" points="677.27,-86.19 685.53,-79.56 674.94,-79.59 677.27,-86.19"/>
</a>
</g>
</g>
<!-- Node21&#45;&gt;Node11 -->
<g id="edge24_Node000021_Node000011" class="edge">
<title>Node21&#45;&gt;Node11</title>
<g id="a_edge24_Node000021_Node000011"><a xlink:title=" ">
<path fill="none" stroke="#63b8ff" d="M1205.25,-120.99C1152.67,-110.53 1063.42,-92.77 1006.66,-81.48"/>
<polygon fill="#63b8ff" stroke="#63b8ff" points="1007.29,-78.04 996.8,-79.52 1005.93,-84.9 1007.29,-78.04"/>
</a>
</g>
</g>
<!-- Node21&#45;&gt;Node14 -->
<g id="edge25_Node000021_Node000014" class="edge">
<title>Node21&#45;&gt;Node14</title>
<g id="a_edge25_Node000021_Node000014"><a xlink:title=" ">
<path fill="none" stroke="#63b8ff" d="M1244.19,-120.94C1235.64,-101.74 1214.76,-54.86 1203.14,-28.77"/>
<polygon fill="#63b8ff" stroke="#63b8ff" points="1206.19,-27.01 1198.92,-19.3 1199.79,-29.86 1206.19,-27.01"/>
</a>
</g>
</g>
<!-- Node24&#45;&gt;Node4 -->
<g id="edge30_Node000024_Node000004" class="edge">
<title>Node24&#45;&gt;Node4</title>
<g id="a_edge30_Node000024_Node000004"><a xlink:title=" ">
<path fill="none" stroke="#63b8ff" d="M433.74,-175.98C398.39,-166.93 342.33,-152.58 303.49,-142.64"/>
<polygon fill="#63b8ff" stroke="#63b8ff" points="304.07,-139.17 293.52,-140.08 302.34,-145.95 304.07,-139.17"/>
</a>
</g>
</g>
<!-- Node24&#45;&gt;Node17 -->
<g id="edge31_Node000024_Node000017" class="edge">
<title>Node24&#45;&gt;Node17</title>
<g id="a_edge31_Node000024_Node000017"><a xlink:title=" ">
<path fill="none" stroke="#63b8ff" d="M477.6,-175.98C487.46,-168.07 502.35,-156.11 514.22,-146.58"/>
<polygon fill="#63b8ff" stroke="#63b8ff" points="516.6,-149.16 522.2,-140.17 512.21,-143.7 516.6,-149.16"/>
</a>
</g>
</g>
<!-- Node24&#45;&gt;Node22 -->
<g id="edge35_Node000024_Node000022" class="edge">
<title>Node24&#45;&gt;Node22</title>
<g id="a_edge35_Node000024_Node000022"><a xlink:title=" ">
<path fill="none" stroke="#63b8ff" d="M496.56,-175.98C527.72,-167.01 576.97,-152.82 611.46,-142.89"/>
<polygon fill="#63b8ff" stroke="#63b8ff" points="612.57,-146.21 621.21,-140.08 610.63,-139.49 612.57,-146.21"/>
</a>
</g>
</g>
<!-- Node24&#45;&gt;Node25 -->
<g id="edge32_Node000024_Node000025" class="edge">
<title>Node24&#45;&gt;Node25</title>
<g id="a_edge32_Node000024_Node000025"><a xlink:title=" ">
<path fill="none" stroke="#63b8ff" d="M451.58,-175.98C436.55,-167.69 413.46,-154.94 395.84,-145.22"/>
<polygon fill="#63b8ff" stroke="#63b8ff" points="397.15,-141.94 386.7,-140.17 393.77,-148.07 397.15,-141.94"/>
</a>
</g>
</g>
<!-- Node25&#45;&gt;Node6 -->
<g id="edge34_Node000025_Node000006" class="edge">
<title>Node25&#45;&gt;Node6</title>
<g id="a_edge34_Node000025_Node000006"><a xlink:title=" ">
<path fill="none" stroke="#63b8ff" d="M355.65,-120.87C338.68,-111.32 311.1,-95.81 291.21,-84.62"/>
<polygon fill="#63b8ff" stroke="#63b8ff" points="292.84,-81.52 282.41,-79.67 289.41,-87.62 292.84,-81.52"/>
</a>
</g>
</g>
<!-- Node25&#45;&gt;Node15 -->
<g id="edge33_Node000025_Node000015" class="edge">
<title>Node25&#45;&gt;Node15</title>
<g id="a_edge33_Node000025_Node000015"><a xlink:title=" ">
<path fill="none" stroke="#63b8ff" d="M371,-120.94C371,-101.91 371,-55.69 371,-29.47"/>
<polygon fill="#63b8ff" stroke="#63b8ff" points="374.5,-29.3 371,-19.3 367.5,-29.3 374.5,-29.3"/>
</a>
</g>
</g>
<!-- Node27 -->
<g id="Node000027" class="node">
<title>Node27</title>
<g id="a_Node000027"><a xlink:href="_d_list_base_8h.html" target="_top" xlink:title=" ">
<polygon fill="white" stroke="#666666" points="1024.5,-140 883.5,-140 883.5,-121 1024.5,-121 1024.5,-140"/>
<text text-anchor="middle" x="954" y="-128" font-family="Helvetica,sans-Serif" font-size="10.00">Kit/Container/DListBase.h</text>
</a>
</g>
</g>
<!-- Node26&#45;&gt;Node27 -->
<g id="edge38_Node000026_Node000027" class="edge">
<title>Node26&#45;&gt;Node27</title>
<g id="a_edge38_Node000026_Node000027"><a xlink:title=" ">
<path fill="none" stroke="#63b8ff" d="M939.81,-175.75C942.06,-168.72 945.3,-158.62 948.12,-149.84"/>
<polygon fill="#63b8ff" stroke="#63b8ff" points="951.52,-150.68 951.25,-140.09 944.86,-148.54 951.52,-150.68"/>
</a>
</g>
</g>
<!-- Node27&#45;&gt;Node11 -->
<g id="edge39_Node000027_Node000011" class="edge">
<title>Node27&#45;&gt;Node11</title>
<g id="a_edge39_Node000027_Node000011"><a xlink:title=" ">
<path fill="none" stroke="#63b8ff" d="M954,-120.87C954,-112.75 954,-100.31 954,-89.89"/>
<polygon fill="#63b8ff" stroke="#63b8ff" points="957.5,-89.67 954,-79.67 950.5,-89.67 957.5,-89.67"/>
</a>
</g>
</g>
<!-- Node28&#45;&gt;Node9 -->
<g id="edge44_Node000028_Node000009" class="edge">
<title>Node28&#45;&gt;Node9</title>
<g id="a_edge44_Node000028_Node000009"><a xlink:title=" ">
<path fill="none" stroke="#63b8ff" d="M1193.19,-230.98C1169.83,-222.27 1133.3,-208.63 1106.83,-198.75"/>
<polygon fill="#63b8ff" stroke="#63b8ff" points="1107.82,-195.39 1097.23,-195.17 1105.37,-201.95 1107.82,-195.39"/>
</a>
</g>
</g>
<!-- Node28&#45;&gt;Node14 -->
<g id="edge45_Node000028_Node000014" class="edge">
<title>Node28&#45;&gt;Node14</title>
<g id="a_edge45_Node000028_Node000014"><a xlink:title=" ">
<path fill="none" stroke="#63b8ff" d="M1232.73,-230.88C1265.36,-212.8 1332.54,-168.66 1312,-121 1293.04,-77.01 1247,-42.38 1218.65,-24.3"/>
<polygon fill="#63b8ff" stroke="#63b8ff" points="1220.47,-21.32 1210.13,-19.03 1216.79,-27.27 1220.47,-21.32"/>
</a>
</g>
</g>
<!-- Node28&#45;&gt;Node21 -->
<g id="edge43_Node000028_Node000021" class="edge">
<title>Node28&#45;&gt;Node21</title>
<g id="a_edge43_Node000028_Node000021"><a xlink:title=" ">
<path fill="none" stroke="#63b8ff" d="M1218.62,-230.66C1223.82,-213.09 1235.57,-173.45 1242.53,-149.95"/>
<polygon fill="#63b8ff" stroke="#63b8ff" points="1245.95,-150.74 1245.43,-140.16 1239.24,-148.75 1245.95,-150.74"/>
</a>
</g>
</g>
<!-- Node29&#45;&gt;Node14 -->
<g id="edge47_Node000029_Node000014" class="edge">
<title>Node29&#45;&gt;Node14</title>
<g id="a_edge47_Node000029_Node000014"><a xlink:title=" ">
<path fill="none" stroke="#63b8ff" d="M134.26,-62.44C162.56,-59.84 195.86,-57.01 226,-55 578.91,-31.48 667.7,-35.63 1021,-19 1068.37,-16.77 1122.98,-14.08 1158.19,-12.34"/>
<polygon fill="#63b8ff" stroke="#63b8ff" points="1158.66,-15.82 1168.47,-11.83 1158.31,-8.83 1158.66,-15.82"/>
</a>
</g>
</g>
<!-- Node29&#45;&gt;Node15 -->
<g id="edge48_Node000029_Node000015" class="edge">
<title>Node29&#45;&gt;Node15</title>
<g id="a_edge48_Node000029_Node000015"><a xlink:title=" ">
<path fill="none" stroke="#63b8ff" d="M134.09,-56.09C195.8,-44.22 284.99,-27.05 334.46,-17.53"/>
<polygon fill="#63b8ff" stroke="#63b8ff" points="335.23,-20.95 344.39,-15.62 333.91,-14.07 335.23,-20.95"/>
</a>
</g>
</g>
<!-- Node30 -->
<g id="Node000030" class="node">
<title>Node30</title>
<g id="a_Node000030"><a xlink:title=" ">
<polygon fill="#e0e0e0" stroke="#999999" points="92,-19 42,-19 42,0 92,0 92,-19"/>
<text text-anchor="middle" x="67" y="-7" font-family="Helvetica,sans-Serif" font-size="10.00">atomic</text>
</a>
</g>
</g>
<!-- Node29&#45;&gt;Node30 -->
<g id="edge49_Node000029_Node000030" class="edge">
<title>Node29&#45;&gt;Node30</title>
<g id="a_edge49_Node000029_Node000030"><a xlink:title=" ">
<path fill="none" stroke="#63b8ff" d="M67,-54.84C67,-47.21 67,-37.7 67,-29.45"/>
<polygon fill="#63b8ff" stroke="#63b8ff" points="70.5,-29.27 67,-19.27 63.5,-29.27 70.5,-29.27"/>
</a>
</g>
</g>
<!-- Node31&#45;&gt;Node14 -->
<g id="edge67_Node000031_Node000014" class="edge">
<title>Node31&#45;&gt;Node14</title>
<g id="a_edge67_Node000031_Node000014"><a xlink:title=" ">
<path fill="none" stroke="#63b8ff" d="M645.55,-402.99C830.7,-397.31 1407,-373.45 1407,-296.5 1407,-296.5 1407,-296.5 1407,-129.5 1407,-50.1 1292.52,-23.13 1231.81,-14.42"/>
<polygon fill="#63b8ff" stroke="#63b8ff" points="1232.23,-10.94 1221.85,-13.08 1231.3,-17.88 1232.23,-10.94"/>
</a>
</g>
</g>
<!-- Node32 -->
<g id="Node000032" class="node">
<title>Node32</title>
<g id="a_Node000032"><a xlink:href="_primitive_type_8h.html" target="_top" xlink:title=" ">
<polygon fill="white" stroke="#666666" points="662.5,-360 515.5,-360 515.5,-341 662.5,-341 662.5,-360"/>
<text text-anchor="middle" x="589" y="-348" font-family="Helvetica,sans-Serif" font-size="10.00">Kit/Dm/Mp/PrimitiveType.h</text>
</a>
</g>
</g>
<!-- Node31&#45;&gt;Node32 -->
<g id="edge52_Node000031_Node000032" class="edge">
<title>Node31&#45;&gt;Node32</title>
<g id="a_edge52_Node000031_Node000032"><a xlink:title=" ">
<path fill="none" stroke="#63b8ff" d="M589,-395.75C589,-388.8 589,-378.85 589,-370.13"/>
<polygon fill="#63b8ff" stroke="#63b8ff" points="592.5,-370.09 589,-360.09 585.5,-370.09 592.5,-370.09"/>
</a>
</g>
</g>
<!-- Node33 -->
<g id="Node000033" class="node">
<title>Node33</title>
<g id="a_Node000033"><a xlink:href="_scalar_8h.html" target="_top" xlink:title=" ">
<polygon fill="white" stroke="#666666" points="1261,-305 1151,-305 1151,-286 1261,-286 1261,-305"/>
<text text-anchor="middle" x="1206" y="-293" font-family="Helvetica,sans-Serif" font-size="10.00">Kit/Dm/Mp/Scalar.h</text>
</a>
</g>
</g>
<!-- Node32&#45;&gt;Node33 -->
<g id="edge53_Node000032_Node000033" class="edge">
<title>Node32&#45;&gt;Node33</title>
<g id="a_edge53_Node000032_Node000033"><a xlink:title=" ">
<path fill="none" stroke="#63b8ff" d="M662.61,-343.72C765.31,-335.57 957.41,-320.02 1121,-305 1127.3,-304.42 1133.86,-303.8 1140.42,-303.17"/>
<polygon fill="#63b8ff" stroke="#63b8ff" points="1141.08,-306.62 1150.69,-302.16 1140.39,-299.65 1141.08,-306.62"/>
</a>
</g>
</g>
<!-- Node34 -->
<g id="Node000034" class="node">
<title>Node34</title>
<g id="a_Node000034"><a xlink:href="_f_string_8h.html" target="_top" xlink:title=" ">
<polygon fill="white" stroke="#666666" points="738.5,-305 639.5,-305 639.5,-286 738.5,-286 738.5,-305"/>
<text text-anchor="middle" x="689" y="-293" font-family="Helvetica,sans-Serif" font-size="10.00">Kit/Text/FString.h</text>
</a>
</g>
</g>
<!-- Node32&#45;&gt;Node34 -->
<g id="edge57_Node000032_Node000034" class="edge">
<title>Node32&#45;&gt;Node34</title>
<g id="a_edge57_Node000032_Node000034"><a xlink:title=" ">
<path fill="none" stroke="#63b8ff" d="M605.07,-340.98C620.86,-332.61 645.22,-319.7 663.63,-309.95"/>
<polygon fill="#63b8ff" stroke="#63b8ff" points="665.44,-312.95 672.64,-305.17 662.17,-306.76 665.44,-312.95"/>
</a>
</g>
</g>
<!-- Node37 -->
<g id="Node000037" class="node">
<title>Node37</title>
<g id="a_Node000037"><a xlink:href="_string_to_8h.html" target="_top" xlink:title=" ">
<polygon fill="white" stroke="#666666" points="500,-305 396,-305 396,-286 500,-286 500,-305"/>
<text text-anchor="middle" x="448" y="-293" font-family="Helvetica,sans-Serif" font-size="10.00">Kit/Text/StringTo.h</text>
</a>
</g>
</g>
<!-- Node32&#45;&gt;Node37 -->
<g id="edge61_Node000032_Node000037" class="edge">
<title>Node32&#45;&gt;Node37</title>
<g id="a_edge61_Node000032_Node000037"><a xlink:title=" ">
<path fill="none" stroke="#63b8ff" d="M566.35,-340.98C543.15,-332.27 506.88,-318.63 480.6,-308.75"/>
<polygon fill="#63b8ff" stroke="#63b8ff" points="481.66,-305.41 471.07,-305.17 479.2,-311.97 481.66,-305.41"/>
</a>
</g>
</g>
<!-- Node38 -->
<g id="Node000038" class="node">
<title>Node38</title>
<g id="a_Node000038"><a xlink:title=" ">
<polygon fill="#e0e0e0" stroke="#999999" points="560.5,-250 491.5,-250 491.5,-231 560.5,-231 560.5,-250"/>
<text text-anchor="middle" x="526" y="-238" font-family="Helvetica,sans-Serif" font-size="10.00">type_traits</text>
</a>
</g>
</g>
<!-- Node32&#45;&gt;Node38 -->
<g id="edge66_Node000032_Node000038" class="edge">
<title>Node32&#45;&gt;Node38</title>
<g id="a_edge66_Node000032_Node000038"><a xlink:title=" ">
<path fill="none" stroke="#63b8ff" d="M578.97,-340.87C569.8,-332.51 556.41,-319.06 548,-305 539.58,-290.92 533.77,-273.15 530.25,-259.99"/>
<polygon fill="#63b8ff" stroke="#63b8ff" points="533.62,-259.06 527.82,-250.2 526.83,-260.75 533.62,-259.06"/>
</a>
</g>
</g>
<!-- Node40 -->
<g id="Node000040" class="node">
<title>Node40</title>
<g id="a_Node000040"><a xlink:title=" ">
<polygon fill="#e0e0e0" stroke="#999999" points="621.5,-305 556.5,-305 556.5,-286 621.5,-286 621.5,-305"/>
<text text-anchor="middle" x="589" y="-293" font-family="Helvetica,sans-Serif" font-size="10.00">inttypes.h</text>
</a>
</g>
</g>
<!-- Node32&#45;&gt;Node40 -->
<g id="edge65_Node000032_Node000040" class="edge">
<title>Node32&#45;&gt;Node40</title>
<g id="a_edge65_Node000032_Node000040"><a xlink:title=" ">
<path fill="none" stroke="#63b8ff" d="M589,-340.75C589,-333.8 589,-323.85 589,-315.13"/>
<polygon fill="#63b8ff" stroke="#63b8ff" points="592.5,-315.09 589,-305.09 585.5,-315.09 592.5,-315.09"/>
</a>
</g>
</g>
<!-- Node33&#45;&gt;Node8 -->
<g id="edge54_Node000033_Node000008" class="edge">
<title>Node33&#45;&gt;Node8</title>
<g id="a_edge54_Node000033_Node000008"><a xlink:title=" ">
<path fill="none" stroke="#63b8ff" d="M1184.79,-285.98C1163.27,-277.34 1129.72,-263.87 1105.17,-254.02"/>
<polygon fill="#63b8ff" stroke="#63b8ff" points="1106.18,-250.65 1095.59,-250.17 1103.57,-257.14 1106.18,-250.65"/>
</a>
</g>
</g>
<!-- Node33&#45;&gt;Node14 -->
<g id="edge56_Node000033_Node000014" class="edge">
<title>Node33&#45;&gt;Node14</title>
<g id="a_edge56_Node000033_Node000014"><a xlink:title=" ">
<path fill="none" stroke="#63b8ff" d="M1247.55,-286C1295.85,-273.4 1369,-244.72 1369,-186.5 1369,-186.5 1369,-186.5 1369,-129.5 1369,-63.59 1282.89,-31.52 1231.82,-18.3"/>
<polygon fill="#63b8ff" stroke="#63b8ff" points="1232.35,-14.82 1221.81,-15.83 1230.68,-21.62 1232.35,-14.82"/>
</a>
</g>
</g>
<!-- Node33&#45;&gt;Node28 -->
<g id="edge55_Node000033_Node000028" class="edge">
<title>Node33&#45;&gt;Node28</title>
<g id="a_edge55_Node000033_Node000028"><a xlink:title=" ">
<path fill="none" stroke="#63b8ff" d="M1207.65,-285.75C1208.96,-278.8 1210.84,-268.85 1212.48,-260.13"/>
<polygon fill="#63b8ff" stroke="#63b8ff" points="1215.96,-260.56 1214.38,-250.09 1209.09,-259.27 1215.96,-260.56"/>
</a>
</g>
</g>
<!-- Node35 -->
<g id="Node000035" class="node">
<title>Node35</title>
<g id="a_Node000035"><a xlink:href="_f_string_base_8h.html" target="_top" xlink:title=" ">
<polygon fill="white" stroke="#666666" points="741.5,-250 618.5,-250 618.5,-231 741.5,-231 741.5,-250"/>
<text text-anchor="middle" x="680" y="-238" font-family="Helvetica,sans-Serif" font-size="10.00">Kit/Text/FStringBase.h</text>
</a>
</g>
</g>
<!-- Node34&#45;&gt;Node35 -->
<g id="edge58_Node000034_Node000035" class="edge">
<title>Node34&#45;&gt;Node35</title>
<g id="a_edge58_Node000034_Node000035"><a xlink:title=" ">
<path fill="none" stroke="#63b8ff" d="M687.51,-285.75C686.33,-278.8 684.64,-268.85 683.16,-260.13"/>
<polygon fill="#63b8ff" stroke="#63b8ff" points="686.58,-259.36 681.46,-250.09 679.68,-260.53 686.58,-259.36"/>
</a>
</g>
</g>
<!-- Node36 -->
<g id="Node000036" class="node">
<title>Node36</title>
<g id="a_Node000036"><a xlink:href="_string_base_8h.html" target="_top" xlink:title=" ">
<polygon fill="white" stroke="#666666" points="730,-195 612,-195 612,-176 730,-176 730,-195"/>
<text text-anchor="middle" x="671" y="-183" font-family="Helvetica,sans-Serif" font-size="10.00">Kit/Text/StringBase.h</text>
</a>
</g>
</g>
<!-- Node35&#45;&gt;Node36 -->
<g id="edge59_Node000035_Node000036" class="edge">
<title>Node35&#45;&gt;Node36</title>
<g id="a_edge59_Node000035_Node000036"><a xlink:title=" ">
<path fill="none" stroke="#63b8ff" d="M678.51,-230.75C677.33,-223.8 675.64,-213.85 674.16,-205.13"/>
<polygon fill="#63b8ff" stroke="#63b8ff" points="677.58,-204.36 672.46,-195.09 670.68,-205.53 677.58,-204.36"/>
</a>
</g>
</g>
<!-- Node36&#45;&gt;Node17 -->
<g id="edge60_Node000036_Node000017" class="edge">
<title>Node36&#45;&gt;Node17</title>
<g id="a_edge60_Node000036_Node000017"><a xlink:title=" ">
<path fill="none" stroke="#63b8ff" d="M648.83,-175.98C626.23,-167.3 590.94,-153.75 565.25,-143.88"/>
<polygon fill="#63b8ff" stroke="#63b8ff" points="566.17,-140.49 555.58,-140.17 563.66,-147.02 566.17,-140.49"/>
</a>
</g>
</g>
<!-- Node37&#45;&gt;Node15 -->
<g id="edge62_Node000037_Node000015" class="edge">
<title>Node37&#45;&gt;Node15</title>
<g id="a_edge62_Node000037_Node000015"><a xlink:title=" ">
<path fill="none" stroke="#63b8ff" d="M395.83,-292.25C332.02,-286.36 226.42,-265.79 177,-195 148.11,-153.61 95.98,-174.17 226,-55 255.74,-27.74 301.8,-17.17 334.01,-13.08"/>
<polygon fill="#63b8ff" stroke="#63b8ff" points="334.81,-16.51 344.36,-11.92 334.03,-9.56 334.81,-16.51"/>
</a>
</g>
</g>
<!-- Node37&#45;&gt;Node38 -->
<g id="edge63_Node000037_Node000038" class="edge">
<title>Node37&#45;&gt;Node38</title>
<g id="a_edge63_Node000037_Node000038"><a xlink:title=" ">
<path fill="none" stroke="#63b8ff" d="M460.53,-285.98C472.4,-277.92 490.46,-265.65 504.61,-256.03"/>
<polygon fill="#63b8ff" stroke="#63b8ff" points="506.94,-258.69 513.24,-250.17 503,-252.9 506.94,-258.69"/>
</a>
</g>
</g>
<!-- Node39 -->
<g id="Node000039" class="node">
<title>Node39</title>
<g id="a_Node000039"><a xlink:title=" ">
<polygon fill="#e0e0e0" stroke="#999999" points="470,-250 426,-250 426,-231 470,-231 470,-250"/>
<text text-anchor="middle" x="448" y="-238" font-family="Helvetica,sans-Serif" font-size="10.00">limits</text>
</a>
</g>
</g>
<!-- Node37&#45;&gt;Node39 -->
<g id="edge64_Node000037_Node000039" class="edge">
<title>Node37&#45;&gt;Node39</title>
<g id="a_edge64_Node000037_Node000039"><a xlink:title=" ">
<path fill="none" stroke="#63b8ff" d="M448,-285.75C448,-278.8 448,-268.85 448,-260.13"/>
<polygon fill="#63b8ff" stroke="#63b8ff" points="451.5,-260.09 448,-250.09 444.5,-260.09 451.5,-260.09"/>
</a>
</g>
</g>
</g>
</svg>
