<?xml version="1.0" encoding="UTF-8" standalone="no"?>
<!DOCTYPE svg PUBLIC "-//W3C//DTD SVG 1.1//EN"
 "http://www.w3.org/Graphics/SVG/1.1/DTD/svg11.dtd">
<!-- Generated by graphviz version 2.43.0 (0)
 -->
<!-- Title: Kit/Container/RingBufferMP.h Pages: 1 -->
<svg width="974pt" height="170pt"
 viewBox="0.00 0.00 973.50 170.00" xmlns="http://www.w3.org/2000/svg" xmlns:xlink="http://www.w3.org/1999/xlink">
<g id="graph0" class="graph" transform="scale(1 1) rotate(0) translate(4 166)">
<title>Kit/Container/RingBufferMP.h</title>
<!-- Node1 -->
<g id="Node000001" class="node">
<title>Node1</title>
<g id="a_Node000001"><a xlink:title=" ">
<polygon fill="#999999" stroke="#666666" points="613,-162 456,-162 456,-143 613,-143 613,-162"/>
<text text-anchor="middle" x="534.5" y="-150" font-family="Helvetica,sans-Serif" font-size="10.00">Kit/Container/RingBufferMP.h</text>
</a>
</g>
</g>
<!-- Node2 -->
<g id="Node000002" class="node">
<title>Node2</title>
<g id="a_Node000002"><a xlink:href="_led_server_8h.html" target="_top" xlink:title=" ">
<polygon fill="white" stroke="#666666" points="181,-107 0,-107 0,-66 181,-66 181,-107"/>
<text text-anchor="start" x="8" y="-95" font-family="Helvetica,sans-Serif" font-size="10.00">/home/runner/work/kit.core</text>
<text text-anchor="start" x="8" y="-84" font-family="Helvetica,sans-Serif" font-size="10.00">/kit.core/projects/examples</text>
<text text-anchor="middle" x="90.5" y="-73" font-family="Helvetica,sans-Serif" font-size="10.00">/Container/RingBuffer/LedServer.h</text>
</a>
</g>
</g>
<!-- Node1&#45;&gt;Node2 -->
<g id="edge1_Node000001_Node000002" class="edge">
<title>Node1&#45;&gt;Node2</title>
<g id="a_edge1_Node000001_Node000002"><a xlink:title=" ">
<path fill="none" stroke="#63b8ff" d="M447.73,-141.83C378.04,-133.69 277.75,-121.14 190.5,-107 187.44,-106.5 184.34,-105.99 181.21,-105.45"/>
<polygon fill="#63b8ff" stroke="#63b8ff" points="447.45,-145.32 457.78,-143 448.26,-138.37 447.45,-145.32"/>
</a>
</g>
</g>
<!-- Node3 -->
<g id="Node000003" class="node">
<title>Node3</title>
<g id="a_Node000003"><a xlink:href="_producer_8h.html" target="_top" xlink:title=" ">
<polygon fill="white" stroke="#666666" points="374,-107 199,-107 199,-66 374,-66 374,-107"/>
<text text-anchor="start" x="207" y="-95" font-family="Helvetica,sans-Serif" font-size="10.00">/home/runner/work/kit.core</text>
<text text-anchor="start" x="207" y="-84" font-family="Helvetica,sans-Serif" font-size="10.00">/kit.core/projects/examples</text>
<text text-anchor="middle" x="286.5" y="-73" font-family="Helvetica,sans-Serif" font-size="10.00">/Container/RingBuffer/Producer.h</text>
</a>
</g>
</g>
<!-- Node1&#45;&gt;Node3 -->
<g id="edge2_Node000001_Node000003" class="edge">
<title>Node1&#45;&gt;Node3</title>
<g id="a_edge2_Node000001_Node000003"><a xlink:title=" ">
<path fill="none" stroke="#63b8ff" d="M491.27,-140.34C455.75,-131.18 404.56,-117.97 362.26,-107.05"/>
<polygon fill="#63b8ff" stroke="#63b8ff" points="490.75,-143.83 501.31,-142.94 492.5,-137.05 490.75,-143.83"/>
</a>
</g>
</g>
<!-- Node4 -->
<g id="Node000004" class="node">
<title>Node4</title>
<g id="a_Node000004"><a xlink:href="_ring_buffer_m_p_allocate_8h.html" target="_top" xlink:title=" ">
<polygon fill="white" stroke="#666666" points="526.5,-101.5 392.5,-101.5 392.5,-71.5 526.5,-71.5 526.5,-101.5"/>
<text text-anchor="start" x="400.5" y="-89.5" font-family="Helvetica,sans-Serif" font-size="10.00">Kit/Container/RingBuffer</text>
<text text-anchor="middle" x="459.5" y="-78.5" font-family="Helvetica,sans-Serif" font-size="10.00">MPAllocate.h</text>
</a>
</g>
</g>
<!-- Node1&#45;&gt;Node4 -->
<g id="edge3_Node000001_Node000004" class="edge">
<title>Node1&#45;&gt;Node4</title>
<g id="a_edge3_Node000001_Node000004"><a xlink:title=" ">
<path fill="none" stroke="#63b8ff" d="M516.59,-136.21C504.28,-125.71 488.05,-111.86 476.04,-101.62"/>
<polygon fill="#63b8ff" stroke="#63b8ff" points="514.51,-139.04 524.39,-142.87 519.05,-133.72 514.51,-139.04"/>
</a>
</g>
</g>
<!-- Node6 -->
<g id="Node000006" class="node">
<title>Node6</title>
<g id="a_Node000006"><a xlink:href="_log_sink_8h.html" target="_top" xlink:title=" ">
<polygon fill="white" stroke="#666666" points="674,-101.5 545,-101.5 545,-71.5 674,-71.5 674,-101.5"/>
<text text-anchor="start" x="553" y="-89.5" font-family="Helvetica,sans-Serif" font-size="10.00">Kit/Logging/Framework</text>
<text text-anchor="middle" x="609.5" y="-78.5" font-family="Helvetica,sans-Serif" font-size="10.00">/LogSink.h</text>
</a>
</g>
</g>
<!-- Node1&#45;&gt;Node6 -->
<g id="edge5_Node000001_Node000006" class="edge">
<title>Node1&#45;&gt;Node6</title>
<g id="a_edge5_Node000001_Node000006"><a xlink:title=" ">
<path fill="none" stroke="#63b8ff" d="M552.41,-136.21C564.72,-125.71 580.95,-111.86 592.96,-101.62"/>
<polygon fill="#63b8ff" stroke="#63b8ff" points="549.95,-133.72 544.61,-142.87 554.49,-139.04 549.95,-133.72"/>
</a>
</g>
</g>
<!-- Node7 -->
<g id="Node000007" class="node">
<title>Node7</title>
<g id="a_Node000007"><a xlink:href="_logger_8h.html" target="_top" xlink:title="This file declares the public facing Logging interface for managing the logging framework (i....">
<polygon fill="white" stroke="#666666" points="821,-101.5 692,-101.5 692,-71.5 821,-71.5 821,-101.5"/>
<text text-anchor="start" x="700" y="-89.5" font-family="Helvetica,sans-Serif" font-size="10.00">Kit/Logging/Framework</text>
<text text-anchor="middle" x="756.5" y="-78.5" font-family="Helvetica,sans-Serif" font-size="10.00">/Logger.h</text>
</a>
</g>
</g>
<!-- Node1&#45;&gt;Node7 -->
<g id="edge6_Node000001_Node000007" class="edge">
<title>Node1&#45;&gt;Node7</title>
<g id="a_edge6_Node000001_Node000007"><a xlink:title=" ">
<path fill="none" stroke="#63b8ff" d="M574.45,-139.98C611.76,-129.23 667.56,-113.14 707.54,-101.62"/>
<polygon fill="#63b8ff" stroke="#63b8ff" points="573.08,-136.74 564.44,-142.87 575.02,-143.46 573.08,-136.74"/>
</a>
</g>
</g>
<!-- Node8 -->
<g id="Node000008" class="node">
<title>Node8</title>
<g id="a_Node000008"><a xlink:href="src_2_kit_2_persistence_2_record_2_journal_2_server_8h.html" target="_top" xlink:title=" ">
<polygon fill="white" stroke="#666666" points="965.5,-101.5 839.5,-101.5 839.5,-71.5 965.5,-71.5 965.5,-101.5"/>
<text text-anchor="start" x="847.5" y="-89.5" font-family="Helvetica,sans-Serif" font-size="10.00">Kit/Persistence/Record</text>
<text text-anchor="middle" x="902.5" y="-78.5" font-family="Helvetica,sans-Serif" font-size="10.00">/Journal/Server.h</text>
</a>
</g>
</g>
<!-- Node1&#45;&gt;Node8 -->
<g id="edge7_Node000001_Node000008" class="edge">
<title>Node1&#45;&gt;Node8</title>
<g id="a_edge7_Node000001_Node000008"><a xlink:title=" ">
<path fill="none" stroke="#63b8ff" d="M617.11,-141.68C676.73,-133.95 758.99,-122.01 830.5,-107 837.98,-105.43 845.83,-103.55 853.49,-101.58"/>
<polygon fill="#63b8ff" stroke="#63b8ff" points="616.47,-138.23 606.99,-142.97 617.36,-145.17 616.47,-138.23"/>
</a>
</g>
</g>
<!-- Node5 -->
<g id="Node000005" class="node">
<title>Node5</title>
<g id="a_Node000005"><a xlink:href="_kit_only_8h.html" target="_top" xlink:title=" ">
<polygon fill="white" stroke="#666666" points="524,-30 395,-30 395,0 524,0 524,-30"/>
<text text-anchor="start" x="403" y="-18" font-family="Helvetica,sans-Serif" font-size="10.00">Kit/Logging/Framework</text>
<text text-anchor="middle" x="459.5" y="-7" font-family="Helvetica,sans-Serif" font-size="10.00">/Mocked4Test/KitOnly.h</text>
</a>
</g>
</g>
<!-- Node4&#45;&gt;Node5 -->
<g id="edge4_Node000004_Node000005" class="edge">
<title>Node4&#45;&gt;Node5</title>
<g id="a_edge4_Node000004_Node000005"><a xlink:title=" ">
<path fill="none" stroke="#63b8ff" d="M459.5,-61.25C459.5,-50.81 459.5,-38.99 459.5,-30.04"/>
<polygon fill="#63b8ff" stroke="#63b8ff" points="456,-61.44 459.5,-71.44 463,-61.44 456,-61.44"/>
</a>
</g>
</g>
</g>
</svg>
