<?xml version="1.0" encoding="UTF-8" standalone="no"?>
<!DOCTYPE svg PUBLIC "-//W3C//DTD SVG 1.1//EN"
 "http://www.w3.org/Graphics/SVG/1.1/DTD/svg11.dtd">
<!-- Generated by graphviz version 2.43.0 (0)
 -->
<!-- Title: Kit/Container/RingBufferMP.h Pages: 1 -->
<svg width="290pt" height="93pt"
 viewBox="0.00 0.00 289.50 93.00" xmlns="http://www.w3.org/2000/svg" xmlns:xlink="http://www.w3.org/1999/xlink">
<g id="graph0" class="graph" transform="scale(1 1) rotate(0) translate(4 89)">
<title>Kit/Container/RingBufferMP.h</title>
<!-- Node1 -->
<g id="Node000001" class="node">
<title>Node1</title>
<g id="a_Node000001"><a xlink:title=" ">
<polygon fill="#999999" stroke="#666666" points="220.5,-85 63.5,-85 63.5,-66 220.5,-66 220.5,-85"/>
<text text-anchor="middle" x="142" y="-73" font-family="Helvetica,sans-Serif" font-size="10.00">Kit/Container/RingBufferMP.h</text>
</a>
</g>
</g>
<!-- Node2 -->
<g id="Node000002" class="node">
<title>Node2</title>
<g id="a_Node000002"><a xlink:href="_ring_buffer_m_p_allocate_8h.html" target="_top" xlink:title=" ">
<polygon fill="white" stroke="#666666" points="134,-30 0,-30 0,0 134,0 134,-30"/>
<text text-anchor="start" x="8" y="-18" font-family="Helvetica,sans-Serif" font-size="10.00">Kit/Container/RingBuffer</text>
<text text-anchor="middle" x="67" y="-7" font-family="Helvetica,sans-Serif" font-size="10.00">MPAllocate.h</text>
</a>
</g>
</g>
<!-- Node1&#45;&gt;Node2 -->
<g id="edge1_Node000001_Node000002" class="edge">
<title>Node1&#45;&gt;Node2</title>
<g id="a_edge1_Node000001_Node000002"><a xlink:title=" ">
<path fill="none" stroke="#63b8ff" d="M122.77,-59.5C111.17,-50.45 96.49,-39 85.1,-30.11"/>
<polygon fill="#63b8ff" stroke="#63b8ff" points="120.9,-62.48 130.93,-65.87 125.2,-56.96 120.9,-62.48"/>
</a>
</g>
</g>
<!-- Node3 -->
<g id="Node000003" class="node">
<title>Node3</title>
<g id="a_Node000003"><a xlink:href="_log_sink_8h.html" target="_top" xlink:title=" ">
<polygon fill="white" stroke="#666666" points="281.5,-30 152.5,-30 152.5,0 281.5,0 281.5,-30"/>
<text text-anchor="start" x="160.5" y="-18" font-family="Helvetica,sans-Serif" font-size="10.00">Kit/Logging/Framework</text>
<text text-anchor="middle" x="217" y="-7" font-family="Helvetica,sans-Serif" font-size="10.00">/LogSink.h</text>
</a>
</g>
</g>
<!-- Node1&#45;&gt;Node3 -->
<g id="edge2_Node000001_Node000003" class="edge">
<title>Node1&#45;&gt;Node3</title>
<g id="a_edge2_Node000001_Node000003"><a xlink:title=" ">
<path fill="none" stroke="#63b8ff" d="M161.23,-59.5C172.83,-50.45 187.51,-39 198.9,-30.11"/>
<polygon fill="#63b8ff" stroke="#63b8ff" points="158.8,-56.96 153.07,-65.87 163.1,-62.48 158.8,-56.96"/>
</a>
</g>
</g>
</g>
</svg>
