<?xml version="1.0" encoding="UTF-8" standalone="no"?>
<!DOCTYPE svg PUBLIC "-//W3C//DTD SVG 1.1//EN"
 "http://www.w3.org/Graphics/SVG/1.1/DTD/svg11.dtd">
<!-- Generated by graphviz version 2.43.0 (0)
 -->
<!-- Title: Kit/Container/RingBuffer.h Pages: 1 -->
<svg width="1292pt" height="368pt"
 viewBox="0.00 0.00 1291.51 368.00" xmlns="http://www.w3.org/2000/svg" xmlns:xlink="http://www.w3.org/1999/xlink">
<g id="graph0" class="graph" transform="scale(1 1) rotate(0) translate(4 364)">
<title>Kit/Container/RingBuffer.h</title>
<!-- Node1 -->
<g id="Node000001" class="node">
<title>Node1</title>
<g id="a_Node000001"><a xlink:title=" ">
<polygon fill="#999999" stroke="#666666" points="1065.01,-360 922.01,-360 922.01,-341 1065.01,-341 1065.01,-360"/>
<text text-anchor="middle" x="993.51" y="-348" font-family="Helvetica,sans-Serif" font-size="10.00">Kit/Container/RingBuffer.h</text>
</a>
</g>
</g>
<!-- Node2 -->
<g id="Node000002" class="node">
<title>Node2</title>
<g id="a_Node000002"><a xlink:title=" ">
<polygon fill="#e0e0e0" stroke="#999999" points="1055.01,-140 982.01,-140 982.01,-121 1055.01,-121 1055.01,-140"/>
<text text-anchor="middle" x="1018.51" y="-128" font-family="Helvetica,sans-Serif" font-size="10.00">kit_config.h</text>
</a>
</g>
</g>
<!-- Node1&#45;&gt;Node2 -->
<g id="edge1_Node000001_Node000002" class="edge">
<title>Node1&#45;&gt;Node2</title>
<g id="a_edge1_Node000001_Node000002"><a xlink:title=" ">
<path fill="none" stroke="#63b8ff" d="M989.25,-340.75C977.12,-314.52 944.86,-234.76 970.51,-176 975.79,-163.92 986.14,-153.65 995.88,-146.03"/>
<polygon fill="#63b8ff" stroke="#63b8ff" points="998.11,-148.74 1004.15,-140.04 994,-143.07 998.11,-148.74"/>
</a>
</g>
</g>
<!-- Node3 -->
<g id="Node000003" class="node">
<title>Node3</title>
<g id="a_Node000003"><a xlink:href="_assert_8h.html" target="_top" xlink:title=" ">
<polygon fill="white" stroke="#666666" points="1093.01,-195 980.01,-195 980.01,-176 1093.01,-176 1093.01,-195"/>
<text text-anchor="middle" x="1036.51" y="-183" font-family="Helvetica,sans-Serif" font-size="10.00">Kit/System/Assert.h</text>
</a>
</g>
</g>
<!-- Node1&#45;&gt;Node3 -->
<g id="edge2_Node000001_Node000003" class="edge">
<title>Node1&#45;&gt;Node3</title>
<g id="a_edge2_Node000001_Node000003"><a xlink:title=" ">
<path fill="none" stroke="#63b8ff" d="M995.83,-340.74C1002.56,-315.2 1022.29,-240.43 1031.57,-205.23"/>
<polygon fill="#63b8ff" stroke="#63b8ff" points="1035.02,-205.87 1034.19,-195.31 1028.26,-204.08 1035.02,-205.87"/>
</a>
</g>
</g>
<!-- Node5 -->
<g id="Node000005" class="node">
<title>Node5</title>
<g id="a_Node000005"><a xlink:href="_string_8h.html" target="_top" xlink:title=" ">
<polygon fill="white" stroke="#666666" points="391.01,-305 338.01,-305 338.01,-286 391.01,-286 391.01,-305"/>
<text text-anchor="middle" x="364.51" y="-293" font-family="Helvetica,sans-Serif" font-size="10.00">string.h</text>
</a>
</g>
</g>
<!-- Node1&#45;&gt;Node5 -->
<g id="edge5_Node000001_Node000005" class="edge">
<title>Node1&#45;&gt;Node5</title>
<g id="a_edge5_Node000001_Node000005"><a xlink:title=" ">
<path fill="none" stroke="#63b8ff" d="M921.97,-343.47C787.78,-332.16 502.7,-308.14 401.28,-299.6"/>
<polygon fill="#63b8ff" stroke="#63b8ff" points="401.48,-296.1 391.22,-298.75 400.89,-303.08 401.48,-296.1"/>
</a>
</g>
</g>
<!-- Node27 -->
<g id="Node000027" class="node">
<title>Node27</title>
<g id="a_Node000027"><a xlink:href="_ring_buffer_base_atomic_8h.html" target="_top" xlink:title=" ">
<polygon fill="white" stroke="#666666" points="1283.51,-85 1149.51,-85 1149.51,-55 1283.51,-55 1283.51,-85"/>
<text text-anchor="start" x="1157.51" y="-73" font-family="Helvetica,sans-Serif" font-size="10.00">Kit/Container/RingBuffer</text>
<text text-anchor="middle" x="1216.51" y="-62" font-family="Helvetica,sans-Serif" font-size="10.00">BaseAtomic.h</text>
</a>
</g>
</g>
<!-- Node1&#45;&gt;Node27 -->
<g id="edge44_Node000001_Node000027" class="edge">
<title>Node1&#45;&gt;Node27</title>
<g id="a_edge44_Node000001_Node000027"><a xlink:title=" ">
<path fill="none" stroke="#63b8ff" d="M1056.77,-340.97C1113.38,-329.36 1187.51,-302.5 1187.51,-241.5 1187.51,-241.5 1187.51,-241.5 1187.51,-184.5 1187.51,-152.58 1198.42,-117.13 1206.85,-94.49"/>
<polygon fill="#63b8ff" stroke="#63b8ff" points="1210.16,-95.63 1210.51,-85.04 1203.63,-93.1 1210.16,-95.63"/>
</a>
</g>
</g>
<!-- Node3&#45;&gt;Node2 -->
<g id="edge3_Node000003_Node000002" class="edge">
<title>Node3&#45;&gt;Node2</title>
<g id="a_edge3_Node000003_Node000002"><a xlink:title=" ">
<path fill="none" stroke="#63b8ff" d="M1033.54,-175.75C1031.16,-168.72 1027.73,-158.62 1024.74,-149.84"/>
<polygon fill="#63b8ff" stroke="#63b8ff" points="1027.96,-148.43 1021.43,-140.09 1021.33,-150.68 1027.96,-148.43"/>
</a>
</g>
</g>
<!-- Node4 -->
<g id="Node000004" class="node">
<title>Node4</title>
<g id="a_Node000004"><a xlink:title=" ">
<polygon fill="#e0e0e0" stroke="#999999" points="1093.01,-79.5 1028.01,-79.5 1028.01,-60.5 1093.01,-60.5 1093.01,-79.5"/>
<text text-anchor="middle" x="1060.51" y="-67.5" font-family="Helvetica,sans-Serif" font-size="10.00">kit_map.h</text>
</a>
</g>
</g>
<!-- Node3&#45;&gt;Node4 -->
<g id="edge4_Node000003_Node000004" class="edge">
<title>Node3&#45;&gt;Node4</title>
<g id="a_edge4_Node000003_Node000004"><a xlink:title=" ">
<path fill="none" stroke="#63b8ff" d="M1043.66,-175.97C1050.29,-167.48 1059.67,-153.75 1063.51,-140 1068.15,-123.42 1066.64,-103.73 1064.42,-89.63"/>
<polygon fill="#63b8ff" stroke="#63b8ff" points="1067.85,-88.9 1062.59,-79.69 1060.96,-90.16 1067.85,-88.9"/>
</a>
</g>
</g>
<!-- Node6 -->
<g id="Node000006" class="node">
<title>Node6</title>
<g id="a_Node000006"><a xlink:href="_model_point_base_8h.html" target="_top" xlink:title=" ">
<polygon fill="white" stroke="#666666" points="435.01,-250 294.01,-250 294.01,-231 435.01,-231 435.01,-250"/>
<text text-anchor="middle" x="364.51" y="-238" font-family="Helvetica,sans-Serif" font-size="10.00">Kit/Dm/ModelPointBase.h</text>
</a>
</g>
</g>
<!-- Node5&#45;&gt;Node6 -->
<g id="edge6_Node000005_Node000006" class="edge">
<title>Node5&#45;&gt;Node6</title>
<g id="a_edge6_Node000005_Node000006"><a xlink:title=" ">
<path fill="none" stroke="#63b8ff" d="M364.51,-285.75C364.51,-278.8 364.51,-268.85 364.51,-260.13"/>
<polygon fill="#63b8ff" stroke="#63b8ff" points="368.01,-260.09 364.51,-250.09 361.01,-260.09 368.01,-260.09"/>
</a>
</g>
</g>
<!-- Node26 -->
<g id="Node000026" class="node">
<title>Node26</title>
<g id="a_Node000026"><a xlink:href="_observer_8h.html" target="_top" xlink:title=" ">
<polygon fill="white" stroke="#666666" points="193.51,-250 87.51,-250 87.51,-231 193.51,-231 193.51,-250"/>
<text text-anchor="middle" x="140.51" y="-238" font-family="Helvetica,sans-Serif" font-size="10.00">Kit/Dm/Observer.h</text>
</a>
</g>
</g>
<!-- Node5&#45;&gt;Node26 -->
<g id="edge40_Node000005_Node000026" class="edge">
<title>Node5&#45;&gt;Node26</title>
<g id="a_edge40_Node000005_Node000026"><a xlink:title=" ">
<path fill="none" stroke="#63b8ff" d="M337.94,-288.21C300.66,-279.39 232.3,-263.22 186.62,-252.41"/>
<polygon fill="#63b8ff" stroke="#63b8ff" points="187.21,-248.95 176.67,-250.05 185.6,-255.76 187.21,-248.95"/>
</a>
</g>
</g>
<!-- Node7 -->
<g id="Node000007" class="node">
<title>Node7</title>
<g id="a_Node000007"><a xlink:href="_i_model_point_8h.html" target="_top" xlink:title=" ">
<polygon fill="white" stroke="#666666" points="465.51,-195 345.51,-195 345.51,-176 465.51,-176 465.51,-195"/>
<text text-anchor="middle" x="405.51" y="-183" font-family="Helvetica,sans-Serif" font-size="10.00">Kit/Dm/IModelPoint.h</text>
</a>
</g>
</g>
<!-- Node6&#45;&gt;Node7 -->
<g id="edge7_Node000006_Node000007" class="edge">
<title>Node6&#45;&gt;Node7</title>
<g id="a_edge7_Node000006_Node000007"><a xlink:title=" ">
<path fill="none" stroke="#63b8ff" d="M371.28,-230.75C377.08,-223.26 385.57,-212.28 392.65,-203.13"/>
<polygon fill="#63b8ff" stroke="#63b8ff" points="395.52,-205.14 398.87,-195.09 389.98,-200.86 395.52,-205.14"/>
</a>
</g>
</g>
<!-- Node12 -->
<g id="Node000012" class="node">
<title>Node12</title>
<g id="a_Node000012"><a xlink:title=" ">
<polygon fill="#e0e0e0" stroke="#999999" points="357.01,-19 304.01,-19 304.01,0 357.01,0 357.01,-19"/>
<text text-anchor="middle" x="330.51" y="-7" font-family="Helvetica,sans-Serif" font-size="10.00">stdint.h</text>
</a>
</g>
</g>
<!-- Node6&#45;&gt;Node12 -->
<g id="edge38_Node000006_Node000012" class="edge">
<title>Node6&#45;&gt;Node12</title>
<g id="a_edge38_Node000006_Node000012"><a xlink:title=" ">
<path fill="none" stroke="#63b8ff" d="M357.2,-230.99C350.41,-222.51 340.74,-208.79 336.51,-195 318.72,-136.89 324,-63.63 327.93,-29.55"/>
<polygon fill="#63b8ff" stroke="#63b8ff" points="331.45,-29.58 329.22,-19.22 324.51,-28.71 331.45,-29.58"/>
</a>
</g>
</g>
<!-- Node13 -->
<g id="Node000013" class="node">
<title>Node13</title>
<g id="a_Node000013"><a xlink:title=" ">
<polygon fill="#e0e0e0" stroke="#999999" points="1087.01,-19 1034.01,-19 1034.01,0 1087.01,0 1087.01,-19"/>
<text text-anchor="middle" x="1060.51" y="-7" font-family="Helvetica,sans-Serif" font-size="10.00">stdlib.h</text>
</a>
</g>
</g>
<!-- Node6&#45;&gt;Node13 -->
<g id="edge39_Node000006_Node000013" class="edge">
<title>Node6&#45;&gt;Node13</title>
<g id="a_edge39_Node000006_Node000013"><a xlink:title=" ">
<path fill="none" stroke="#63b8ff" d="M435.29,-237.82C615.45,-233.2 1078.89,-219.03 1101.51,-195 1144.17,-149.7 1124.14,-112.96 1101.51,-55 1097.11,-43.73 1088.37,-33.59 1080.09,-25.85"/>
<polygon fill="#63b8ff" stroke="#63b8ff" points="1082.28,-23.12 1072.44,-19.2 1077.69,-28.4 1082.28,-23.12"/>
</a>
</g>
</g>
<!-- Node19 -->
<g id="Node000019" class="node">
<title>Node19</title>
<g id="a_Node000019"><a xlink:href="_i_observer_8h.html" target="_top" xlink:title=" ">
<polygon fill="white" stroke="#666666" points="283.01,-140 174.01,-140 174.01,-121 283.01,-121 283.01,-140"/>
<text text-anchor="middle" x="228.51" y="-128" font-family="Helvetica,sans-Serif" font-size="10.00">Kit/Dm/IObserver.h</text>
</a>
</g>
</g>
<!-- Node6&#45;&gt;Node19 -->
<g id="edge34_Node000006_Node000019" class="edge">
<title>Node6&#45;&gt;Node19</title>
<g id="a_edge34_Node000006_Node000019"><a xlink:title=" ">
<path fill="none" stroke="#63b8ff" d="M350.21,-230.92C336.33,-222.38 314.87,-208.62 297.51,-195 278.24,-179.88 257.79,-160.6 244.2,-147.27"/>
<polygon fill="#63b8ff" stroke="#63b8ff" points="246.62,-144.74 237.05,-140.19 241.69,-149.71 246.62,-144.74"/>
</a>
</g>
</g>
<!-- Node22 -->
<g id="Node000022" class="node">
<title>Node22</title>
<g id="a_Node000022"><a xlink:href="_i_model_database_8h.html" target="_top" xlink:title=" ">
<polygon fill="white" stroke="#666666" points="855.51,-195 713.51,-195 713.51,-176 855.51,-176 855.51,-195"/>
<text text-anchor="middle" x="784.51" y="-183" font-family="Helvetica,sans-Serif" font-size="10.00">Kit/Dm/IModelDatabase.h</text>
</a>
</g>
</g>
<!-- Node6&#45;&gt;Node22 -->
<g id="edge27_Node000006_Node000022" class="edge">
<title>Node6&#45;&gt;Node22</title>
<g id="a_edge27_Node000006_Node000022"><a xlink:title=" ">
<path fill="none" stroke="#63b8ff" d="M431.99,-230.98C506.89,-221.53 627.59,-206.3 706.49,-196.35"/>
<polygon fill="#63b8ff" stroke="#63b8ff" points="707.37,-199.76 716.85,-195.04 706.49,-192.82 707.37,-199.76"/>
</a>
</g>
</g>
<!-- Node24 -->
<g id="Node000024" class="node">
<title>Node24</title>
<g id="a_Node000024"><a xlink:href="_d_list_8h.html" target="_top" xlink:title=" ">
<polygon fill="white" stroke="#666666" points="245.01,-195 128.01,-195 128.01,-176 245.01,-176 245.01,-195"/>
<text text-anchor="middle" x="186.51" y="-183" font-family="Helvetica,sans-Serif" font-size="10.00">Kit/Container/DList.h</text>
</a>
</g>
</g>
<!-- Node6&#45;&gt;Node24 -->
<g id="edge35_Node000006_Node000024" class="edge">
<title>Node6&#45;&gt;Node24</title>
<g id="a_edge35_Node000006_Node000024"><a xlink:title=" ">
<path fill="none" stroke="#63b8ff" d="M335.92,-230.98C305.9,-222.05 258.54,-207.94 225.2,-198.02"/>
<polygon fill="#63b8ff" stroke="#63b8ff" points="225.92,-194.58 215.34,-195.08 223.92,-201.29 225.92,-194.58"/>
</a>
</g>
</g>
<!-- Node7&#45;&gt;Node2 -->
<g id="edge8_Node000007_Node000002" class="edge">
<title>Node7&#45;&gt;Node2</title>
<g id="a_edge8_Node000007_Node000002"><a xlink:title=" ">
<path fill="none" stroke="#63b8ff" d="M465.73,-181.84C567.76,-176.89 781.25,-164.56 971.98,-139.92"/>
<polygon fill="#63b8ff" stroke="#63b8ff" points="972.45,-143.39 981.91,-138.62 971.54,-136.44 972.45,-143.39"/>
</a>
</g>
</g>
<!-- Node8 -->
<g id="Node000008" class="node">
<title>Node8</title>
<g id="a_Node000008"><a xlink:href="_keyed_item_8h.html" target="_top" xlink:title=" ">
<polygon fill="white" stroke="#666666" points="597.01,-140 452.01,-140 452.01,-121 597.01,-121 597.01,-140"/>
<text text-anchor="middle" x="524.51" y="-128" font-family="Helvetica,sans-Serif" font-size="10.00">Kit/Container/KeyedItem.h</text>
</a>
</g>
</g>
<!-- Node7&#45;&gt;Node8 -->
<g id="edge9_Node000007_Node000008" class="edge">
<title>Node7&#45;&gt;Node8</title>
<g id="a_edge9_Node000007_Node000008"><a xlink:title=" ">
<path fill="none" stroke="#63b8ff" d="M424.63,-175.98C443.86,-167.42 473.75,-154.11 495.82,-144.28"/>
<polygon fill="#63b8ff" stroke="#63b8ff" points="497.34,-147.44 505.05,-140.17 494.49,-141.04 497.34,-147.44"/>
</a>
</g>
</g>
<!-- Node7&#45;&gt;Node12 -->
<g id="edge26_Node000007_Node000012" class="edge">
<title>Node7&#45;&gt;Node12</title>
<g id="a_edge26_Node000007_Node000012"><a xlink:title=" ">
<path fill="none" stroke="#63b8ff" d="M396.36,-175.77C388.01,-167.33 375.88,-153.83 368.51,-140 348.94,-103.25 338.23,-55.12 333.51,-29.12"/>
<polygon fill="#63b8ff" stroke="#63b8ff" points="336.94,-28.4 331.8,-19.14 330.04,-29.58 336.94,-28.4"/>
</a>
</g>
</g>
<!-- Node15 -->
<g id="Node000015" class="node">
<title>Node15</title>
<g id="a_Node000015"><a xlink:href="_i_string_8h.html" target="_top" xlink:title=" ">
<polygon fill="white" stroke="#666666" points="833.01,-140 736.01,-140 736.01,-121 833.01,-121 833.01,-140"/>
<text text-anchor="middle" x="784.51" y="-128" font-family="Helvetica,sans-Serif" font-size="10.00">Kit/Text/IString.h</text>
</a>
</g>
</g>
<!-- Node7&#45;&gt;Node15 -->
<g id="edge16_Node000007_Node000015" class="edge">
<title>Node7&#45;&gt;Node15</title>
<g id="a_edge16_Node000007_Node000015"><a xlink:title=" ">
<path fill="none" stroke="#63b8ff" d="M465.58,-176.31C527.95,-167.78 628.63,-153.92 725.79,-140.09"/>
<polygon fill="#63b8ff" stroke="#63b8ff" points="726.38,-143.55 735.78,-138.67 725.39,-136.62 726.38,-143.55"/>
</a>
</g>
</g>
<!-- Node7&#45;&gt;Node19 -->
<g id="edge21_Node000007_Node000019" class="edge">
<title>Node7&#45;&gt;Node19</title>
<g id="a_edge21_Node000007_Node000019"><a xlink:title=" ">
<path fill="none" stroke="#63b8ff" d="M377.08,-175.98C347.23,-167.05 300.13,-152.94 266.98,-143.02"/>
<polygon fill="#63b8ff" stroke="#63b8ff" points="267.76,-139.6 257.18,-140.08 265.75,-146.3 267.76,-139.6"/>
</a>
</g>
</g>
<!-- Node20 -->
<g id="Node000020" class="node">
<title>Node20</title>
<g id="a_Node000020"><a xlink:href="_arduino_8h_source.html" target="_top" xlink:title=" ">
<polygon fill="white" stroke="#666666" points="718.01,-140 615.01,-140 615.01,-121 718.01,-121 718.01,-140"/>
<text text-anchor="middle" x="666.51" y="-128" font-family="Helvetica,sans-Serif" font-size="10.00">Kit/Json/Arduino.h</text>
</a>
</g>
</g>
<!-- Node7&#45;&gt;Node20 -->
<g id="edge24_Node000007_Node000020" class="edge">
<title>Node7&#45;&gt;Node20</title>
<g id="a_edge24_Node000007_Node000020"><a xlink:title=" ">
<path fill="none" stroke="#63b8ff" d="M447.45,-175.98C492.79,-166.78 565.12,-152.09 614.16,-142.13"/>
<polygon fill="#63b8ff" stroke="#63b8ff" points="615.15,-145.5 624.25,-140.08 613.75,-138.64 615.15,-145.5"/>
</a>
</g>
</g>
<!-- Node21 -->
<g id="Node000021" class="node">
<title>Node21</title>
<g id="a_Node000021"><a xlink:title=" ">
<polygon fill="#e0e0e0" stroke="#999999" points="433.51,-140 377.51,-140 377.51,-121 433.51,-121 433.51,-140"/>
<text text-anchor="middle" x="405.51" y="-128" font-family="Helvetica,sans-Serif" font-size="10.00">stddef.h</text>
</a>
</g>
</g>
<!-- Node7&#45;&gt;Node21 -->
<g id="edge25_Node000007_Node000021" class="edge">
<title>Node7&#45;&gt;Node21</title>
<g id="a_edge25_Node000007_Node000021"><a xlink:title=" ">
<path fill="none" stroke="#63b8ff" d="M405.51,-175.75C405.51,-168.8 405.51,-158.85 405.51,-150.13"/>
<polygon fill="#63b8ff" stroke="#63b8ff" points="409.01,-150.09 405.51,-140.09 402.01,-150.09 409.01,-150.09"/>
</a>
</g>
</g>
<!-- Node9 -->
<g id="Node000009" class="node">
<title>Node9</title>
<g id="a_Node000009"><a xlink:href="_list_item_8h.html" target="_top" xlink:title=" ">
<polygon fill="white" stroke="#666666" points="245.51,-79.5 113.51,-79.5 113.51,-60.5 245.51,-60.5 245.51,-79.5"/>
<text text-anchor="middle" x="179.51" y="-67.5" font-family="Helvetica,sans-Serif" font-size="10.00">Kit/Container/ListItem.h</text>
</a>
</g>
</g>
<!-- Node8&#45;&gt;Node9 -->
<g id="edge10_Node000008_Node000009" class="edge">
<title>Node8&#45;&gt;Node9</title>
<g id="a_edge10_Node000008_Node000009"><a xlink:title=" ">
<path fill="none" stroke="#63b8ff" d="M474.35,-120.99C412.13,-110.44 306.17,-92.48 239.66,-81.2"/>
<polygon fill="#63b8ff" stroke="#63b8ff" points="240.19,-77.74 229.74,-79.52 239.01,-84.64 240.19,-77.74"/>
</a>
</g>
</g>
<!-- Node11 -->
<g id="Node000011" class="node">
<title>Node11</title>
<g id="a_Node000011"><a xlink:href="_key_8h.html" target="_top" xlink:title=" ">
<polygon fill="white" stroke="#666666" points="617.01,-79.5 508.01,-79.5 508.01,-60.5 617.01,-60.5 617.01,-79.5"/>
<text text-anchor="middle" x="562.51" y="-67.5" font-family="Helvetica,sans-Serif" font-size="10.00">Kit/Container/Key.h</text>
</a>
</g>
</g>
<!-- Node8&#45;&gt;Node11 -->
<g id="edge12_Node000008_Node000011" class="edge">
<title>Node8&#45;&gt;Node11</title>
<g id="a_edge12_Node000008_Node000011"><a xlink:title=" ">
<path fill="none" stroke="#63b8ff" d="M530.12,-120.87C535.68,-112.31 544.34,-98.97 551.32,-88.24"/>
<polygon fill="#63b8ff" stroke="#63b8ff" points="554.37,-89.96 556.88,-79.67 548.5,-86.15 554.37,-89.96"/>
</a>
</g>
</g>
<!-- Node10 -->
<g id="Node000010" class="node">
<title>Node10</title>
<g id="a_Node000010"><a xlink:href="_item_8h.html" target="_top" xlink:title=" ">
<polygon fill="white" stroke="#666666" points="237.01,-19 122.01,-19 122.01,0 237.01,0 237.01,-19"/>
<text text-anchor="middle" x="179.51" y="-7" font-family="Helvetica,sans-Serif" font-size="10.00">Kit/Container/Item.h</text>
</a>
</g>
</g>
<!-- Node9&#45;&gt;Node10 -->
<g id="edge11_Node000009_Node000010" class="edge">
<title>Node9&#45;&gt;Node10</title>
<g id="a_edge11_Node000009_Node000010"><a xlink:title=" ">
<path fill="none" stroke="#63b8ff" d="M179.51,-60.37C179.51,-52.25 179.51,-39.81 179.51,-29.39"/>
<polygon fill="#63b8ff" stroke="#63b8ff" points="183.01,-29.17 179.51,-19.17 176.01,-29.17 183.01,-29.17"/>
</a>
</g>
</g>
<!-- Node11&#45;&gt;Node12 -->
<g id="edge13_Node000011_Node000012" class="edge">
<title>Node11&#45;&gt;Node12</title>
<g id="a_edge13_Node000011_Node000012"><a xlink:title=" ">
<path fill="none" stroke="#63b8ff" d="M528.78,-60.49C485.64,-49.62 411.23,-30.85 366.87,-19.67"/>
<polygon fill="#63b8ff" stroke="#63b8ff" points="367.63,-16.25 357.08,-17.2 365.92,-23.04 367.63,-16.25"/>
</a>
</g>
</g>
<!-- Node11&#45;&gt;Node13 -->
<g id="edge14_Node000011_Node000013" class="edge">
<title>Node11&#45;&gt;Node13</title>
<g id="a_edge14_Node000011_Node000013"><a xlink:title=" ">
<path fill="none" stroke="#63b8ff" d="M617.27,-61.23C632.55,-59.13 649.17,-56.91 664.51,-55 796.42,-38.54 953.39,-21.72 1023.5,-14.35"/>
<polygon fill="#63b8ff" stroke="#63b8ff" points="1024.02,-17.82 1033.6,-13.29 1023.29,-10.86 1024.02,-17.82"/>
</a>
</g>
</g>
<!-- Node14 -->
<g id="Node000014" class="node">
<title>Node14</title>
<g id="a_Node000014"><a xlink:title=" ">
<polygon fill="#e0e0e0" stroke="#999999" points="589.01,-19 536.01,-19 536.01,0 589.01,0 589.01,-19"/>
<text text-anchor="middle" x="562.51" y="-7" font-family="Helvetica,sans-Serif" font-size="10.00">limits.h</text>
</a>
</g>
</g>
<!-- Node11&#45;&gt;Node14 -->
<g id="edge15_Node000011_Node000014" class="edge">
<title>Node11&#45;&gt;Node14</title>
<g id="a_edge15_Node000011_Node000014"><a xlink:title=" ">
<path fill="none" stroke="#63b8ff" d="M562.51,-60.37C562.51,-52.25 562.51,-39.81 562.51,-29.39"/>
<polygon fill="#63b8ff" stroke="#63b8ff" points="566.01,-29.17 562.51,-19.17 559.01,-29.17 566.01,-29.17"/>
</a>
</g>
</g>
<!-- Node15&#45;&gt;Node11 -->
<g id="edge17_Node000015_Node000011" class="edge">
<title>Node15&#45;&gt;Node11</title>
<g id="a_edge17_Node000015_Node000011"><a xlink:title=" ">
<path fill="none" stroke="#63b8ff" d="M752.23,-120.99C713.27,-110.73 647.64,-93.43 604.7,-82.12"/>
<polygon fill="#63b8ff" stroke="#63b8ff" points="605.4,-78.68 594.83,-79.52 603.61,-85.45 605.4,-78.68"/>
</a>
</g>
</g>
<!-- Node16 -->
<g id="Node000016" class="node">
<title>Node16</title>
<g id="a_Node000016"><a xlink:href="printfchecker_8h.html" target="_top" xlink:title="This file contains macro that enables the GCC (and Clang) compiler to validate printf flags with thei...">
<polygon fill="white" stroke="#666666" points="971.01,-79.5 826.01,-79.5 826.01,-60.5 971.01,-60.5 971.01,-79.5"/>
<text text-anchor="middle" x="898.51" y="-67.5" font-family="Helvetica,sans-Serif" font-size="10.00">Kit/System/printfchecker.h</text>
</a>
</g>
</g>
<!-- Node15&#45;&gt;Node16 -->
<g id="edge18_Node000015_Node000016" class="edge">
<title>Node15&#45;&gt;Node16</title>
<g id="a_edge18_Node000015_Node000016"><a xlink:title=" ">
<path fill="none" stroke="#63b8ff" d="M801.34,-120.87C820.11,-111.23 850.72,-95.53 872.57,-84.31"/>
<polygon fill="#63b8ff" stroke="#63b8ff" points="874.33,-87.35 881.62,-79.67 871.13,-81.12 874.33,-87.35"/>
</a>
</g>
</g>
<!-- Node17 -->
<g id="Node000017" class="node">
<title>Node17</title>
<g id="a_Node000017"><a xlink:title=" ">
<polygon fill="#e0e0e0" stroke="#999999" points="729.51,-79.5 673.51,-79.5 673.51,-60.5 729.51,-60.5 729.51,-79.5"/>
<text text-anchor="middle" x="701.51" y="-67.5" font-family="Helvetica,sans-Serif" font-size="10.00">stdarg.h</text>
</a>
</g>
</g>
<!-- Node15&#45;&gt;Node17 -->
<g id="edge19_Node000015_Node000017" class="edge">
<title>Node15&#45;&gt;Node17</title>
<g id="a_edge19_Node000015_Node000017"><a xlink:title=" ">
<path fill="none" stroke="#63b8ff" d="M772.27,-120.87C759.15,-111.62 738.1,-96.78 722.36,-85.69"/>
<polygon fill="#63b8ff" stroke="#63b8ff" points="724,-82.57 713.81,-79.67 719.97,-88.29 724,-82.57"/>
</a>
</g>
</g>
<!-- Node18 -->
<g id="Node000018" class="node">
<title>Node18</title>
<g id="a_Node000018"><a xlink:title=" ">
<polygon fill="#e0e0e0" stroke="#999999" points="807.51,-79.5 747.51,-79.5 747.51,-60.5 807.51,-60.5 807.51,-79.5"/>
<text text-anchor="middle" x="777.51" y="-67.5" font-family="Helvetica,sans-Serif" font-size="10.00">iostream</text>
</a>
</g>
</g>
<!-- Node15&#45;&gt;Node18 -->
<g id="edge20_Node000015_Node000018" class="edge">
<title>Node15&#45;&gt;Node18</title>
<g id="a_edge20_Node000015_Node000018"><a xlink:title=" ">
<path fill="none" stroke="#63b8ff" d="M783.48,-120.87C782.51,-112.75 781.02,-100.31 779.77,-89.89"/>
<polygon fill="#63b8ff" stroke="#63b8ff" points="783.21,-89.18 778.55,-79.67 776.26,-90.01 783.21,-89.18"/>
</a>
</g>
</g>
<!-- Node19&#45;&gt;Node9 -->
<g id="edge22_Node000019_Node000009" class="edge">
<title>Node19&#45;&gt;Node9</title>
<g id="a_edge22_Node000019_Node000009"><a xlink:title=" ">
<path fill="none" stroke="#63b8ff" d="M221.28,-120.87C213.97,-112.14 202.49,-98.43 193.41,-87.59"/>
<polygon fill="#63b8ff" stroke="#63b8ff" points="195.88,-85.09 186.77,-79.67 190.51,-89.58 195.88,-85.09"/>
</a>
</g>
</g>
<!-- Node19&#45;&gt;Node12 -->
<g id="edge23_Node000019_Node000012" class="edge">
<title>Node19&#45;&gt;Node12</title>
<g id="a_edge23_Node000019_Node000012"><a xlink:title=" ">
<path fill="none" stroke="#63b8ff" d="M235.85,-120.94C252.68,-101.31 294.29,-52.76 316.32,-27.07"/>
<polygon fill="#63b8ff" stroke="#63b8ff" points="319.12,-29.17 322.97,-19.3 313.8,-24.62 319.12,-29.17"/>
</a>
</g>
</g>
<!-- Node22&#45;&gt;Node2 -->
<g id="edge28_Node000022_Node000002" class="edge">
<title>Node22&#45;&gt;Node2</title>
<g id="a_edge28_Node000022_Node000002"><a xlink:title=" ">
<path fill="none" stroke="#63b8ff" d="M822.11,-175.98C862.86,-166.75 927.95,-152.01 971.91,-142.05"/>
<polygon fill="#63b8ff" stroke="#63b8ff" points="972.8,-145.44 981.78,-139.82 971.26,-138.62 972.8,-145.44"/>
</a>
</g>
</g>
<!-- Node22&#45;&gt;Node15 -->
<g id="edge29_Node000022_Node000015" class="edge">
<title>Node22&#45;&gt;Node15</title>
<g id="a_edge29_Node000022_Node000015"><a xlink:title=" ">
<path fill="none" stroke="#63b8ff" d="M784.51,-175.75C784.51,-168.8 784.51,-158.85 784.51,-150.13"/>
<polygon fill="#63b8ff" stroke="#63b8ff" points="788.01,-150.09 784.51,-140.09 781.01,-150.09 788.01,-150.09"/>
</a>
</g>
</g>
<!-- Node22&#45;&gt;Node20 -->
<g id="edge33_Node000022_Node000020" class="edge">
<title>Node22&#45;&gt;Node20</title>
<g id="a_edge33_Node000022_Node000020"><a xlink:title=" ">
<path fill="none" stroke="#63b8ff" d="M765.56,-175.98C746.49,-167.42 716.85,-154.11 694.97,-144.28"/>
<polygon fill="#63b8ff" stroke="#63b8ff" points="696.37,-141.07 685.82,-140.17 693.51,-147.46 696.37,-141.07"/>
</a>
</g>
</g>
<!-- Node23 -->
<g id="Node000023" class="node">
<title>Node23</title>
<g id="a_Node000023"><a xlink:href="_mutex_8h.html" target="_top" xlink:title=" ">
<polygon fill="white" stroke="#666666" points="964.01,-140 851.01,-140 851.01,-121 964.01,-121 964.01,-140"/>
<text text-anchor="middle" x="907.51" y="-128" font-family="Helvetica,sans-Serif" font-size="10.00">Kit/System/Mutex.h</text>
</a>
</g>
</g>
<!-- Node22&#45;&gt;Node23 -->
<g id="edge30_Node000022_Node000023" class="edge">
<title>Node22&#45;&gt;Node23</title>
<g id="a_edge30_Node000022_Node000023"><a xlink:title=" ">
<path fill="none" stroke="#63b8ff" d="M804.28,-175.98C824.24,-167.38 855.32,-153.99 878.16,-144.15"/>
<polygon fill="#63b8ff" stroke="#63b8ff" points="879.59,-147.34 887.39,-140.17 876.82,-140.91 879.59,-147.34"/>
</a>
</g>
</g>
<!-- Node23&#45;&gt;Node4 -->
<g id="edge32_Node000023_Node000004" class="edge">
<title>Node23&#45;&gt;Node4</title>
<g id="a_edge32_Node000023_Node000004"><a xlink:title=" ">
<path fill="none" stroke="#63b8ff" d="M929.76,-120.99C955.82,-111.03 999.19,-94.45 1028.78,-83.13"/>
<polygon fill="#63b8ff" stroke="#63b8ff" points="1030.15,-86.36 1038.24,-79.52 1027.65,-79.82 1030.15,-86.36"/>
</a>
</g>
</g>
<!-- Node23&#45;&gt;Node13 -->
<g id="edge31_Node000023_Node000013" class="edge">
<title>Node23&#45;&gt;Node13</title>
<g id="a_edge31_Node000023_Node000013"><a xlink:title=" ">
<path fill="none" stroke="#63b8ff" d="M923.24,-120.93C938.21,-112.52 961.13,-98.94 979.51,-85 1003.63,-66.72 1028.91,-42.54 1044.69,-26.76"/>
<polygon fill="#63b8ff" stroke="#63b8ff" points="1047.47,-28.92 1052.01,-19.35 1042.49,-24 1047.47,-28.92"/>
</a>
</g>
</g>
<!-- Node25 -->
<g id="Node000025" class="node">
<title>Node25</title>
<g id="a_Node000025"><a xlink:href="_d_list_base_8h.html" target="_top" xlink:title=" ">
<polygon fill="white" stroke="#666666" points="156.01,-140 15.01,-140 15.01,-121 156.01,-121 156.01,-140"/>
<text text-anchor="middle" x="85.51" y="-128" font-family="Helvetica,sans-Serif" font-size="10.00">Kit/Container/DListBase.h</text>
</a>
</g>
</g>
<!-- Node24&#45;&gt;Node25 -->
<g id="edge36_Node000024_Node000025" class="edge">
<title>Node24&#45;&gt;Node25</title>
<g id="a_edge36_Node000024_Node000025"><a xlink:title=" ">
<path fill="none" stroke="#63b8ff" d="M170.29,-175.98C154.33,-167.61 129.73,-154.7 111.14,-144.95"/>
<polygon fill="#63b8ff" stroke="#63b8ff" points="112.52,-141.72 102.04,-140.17 109.27,-147.92 112.52,-141.72"/>
</a>
</g>
</g>
<!-- Node25&#45;&gt;Node9 -->
<g id="edge37_Node000025_Node000009" class="edge">
<title>Node25&#45;&gt;Node9</title>
<g id="a_edge37_Node000025_Node000009"><a xlink:title=" ">
<path fill="none" stroke="#63b8ff" d="M99.38,-120.87C114.52,-111.45 138.98,-96.23 156.9,-85.08"/>
<polygon fill="#63b8ff" stroke="#63b8ff" points="158.95,-87.92 165.59,-79.67 155.25,-81.98 158.95,-87.92"/>
</a>
</g>
</g>
<!-- Node26&#45;&gt;Node7 -->
<g id="edge42_Node000026_Node000007" class="edge">
<title>Node26&#45;&gt;Node7</title>
<g id="a_edge42_Node000026_Node000007"><a xlink:title=" ">
<path fill="none" stroke="#63b8ff" d="M183.09,-230.98C229.22,-221.76 302.88,-207.03 352.67,-197.07"/>
<polygon fill="#63b8ff" stroke="#63b8ff" points="353.48,-200.48 362.6,-195.08 352.11,-193.61 353.48,-200.48"/>
</a>
</g>
</g>
<!-- Node26&#45;&gt;Node12 -->
<g id="edge43_Node000026_Node000012" class="edge">
<title>Node26&#45;&gt;Node12</title>
<g id="a_edge43_Node000026_Node000012"><a xlink:title=" ">
<path fill="none" stroke="#63b8ff" d="M114.12,-230.88C67.33,-214.05 -22.74,-173.79 5.51,-121 30.47,-74.38 55.63,-75.16 104.51,-55 167.96,-28.83 247.92,-17.75 293.73,-13.29"/>
<polygon fill="#63b8ff" stroke="#63b8ff" points="294.15,-16.76 303.79,-12.36 293.51,-9.79 294.15,-16.76"/>
</a>
</g>
</g>
<!-- Node26&#45;&gt;Node19 -->
<g id="edge41_Node000026_Node000019" class="edge">
<title>Node26&#45;&gt;Node19</title>
<g id="a_edge41_Node000026_Node000019"><a xlink:title=" ">
<path fill="none" stroke="#63b8ff" d="M132.74,-230.64C122.42,-217.73 106.77,-193.41 118.51,-176 129.2,-160.15 146.6,-149.94 164.44,-143.37"/>
<polygon fill="#63b8ff" stroke="#63b8ff" points="165.96,-146.55 174.35,-140.08 163.76,-139.91 165.96,-146.55"/>
</a>
</g>
</g>
<!-- Node27&#45;&gt;Node12 -->
<g id="edge45_Node000027_Node000012" class="edge">
<title>Node27&#45;&gt;Node12</title>
<g id="a_edge45_Node000027_Node000012"><a xlink:title=" ">
<path fill="none" stroke="#63b8ff" d="M1149.4,-60.1C1133.7,-58.22 1117.04,-56.39 1101.51,-55 956.05,-41.96 499.83,-18.89 367.09,-12.3"/>
<polygon fill="#63b8ff" stroke="#63b8ff" points="367.19,-8.8 357.03,-11.8 366.84,-15.79 367.19,-8.8"/>
</a>
</g>
</g>
<!-- Node27&#45;&gt;Node13 -->
<g id="edge46_Node000027_Node000013" class="edge">
<title>Node27&#45;&gt;Node13</title>
<g id="a_edge46_Node000027_Node000013"><a xlink:title=" ">
<path fill="none" stroke="#63b8ff" d="M1179.15,-54.99C1152.89,-45.14 1118.1,-32.1 1093,-22.68"/>
<polygon fill="#63b8ff" stroke="#63b8ff" points="1094.14,-19.37 1083.55,-19.14 1091.69,-25.93 1094.14,-19.37"/>
</a>
</g>
</g>
<!-- Node28 -->
<g id="Node000028" class="node">
<title>Node28</title>
<g id="a_Node000028"><a xlink:title=" ">
<polygon fill="#e0e0e0" stroke="#999999" points="1241.51,-19 1191.51,-19 1191.51,0 1241.51,0 1241.51,-19"/>
<text text-anchor="middle" x="1216.51" y="-7" font-family="Helvetica,sans-Serif" font-size="10.00">atomic</text>
</a>
</g>
</g>
<!-- Node27&#45;&gt;Node28 -->
<g id="edge47_Node000027_Node000028" class="edge">
<title>Node27&#45;&gt;Node28</title>
<g id="a_edge47_Node000027_Node000028"><a xlink:title=" ">
<path fill="none" stroke="#63b8ff" d="M1216.51,-54.84C1216.51,-47.21 1216.51,-37.7 1216.51,-29.45"/>
<polygon fill="#63b8ff" stroke="#63b8ff" points="1220.01,-29.27 1216.51,-19.27 1213.01,-29.27 1220.01,-29.27"/>
</a>
</g>
</g>
</g>
</svg>
