<?xml version="1.0" encoding="UTF-8" standalone="no"?>
<!DOCTYPE svg PUBLIC "-//W3C//DTD SVG 1.1//EN"
 "http://www.w3.org/Graphics/SVG/1.1/DTD/svg11.dtd">
<!-- Generated by graphviz version 2.43.0 (0)
 -->
<!-- Title: Kit/Container/RingBufferMP.h Pages: 1 -->
<svg width="1317pt" height="478pt"
 viewBox="0.00 0.00 1317.00 478.00" xmlns="http://www.w3.org/2000/svg" xmlns:xlink="http://www.w3.org/1999/xlink">
<g id="graph0" class="graph" transform="scale(1 1) rotate(0) translate(4 474)">
<title>Kit/Container/RingBufferMP.h</title>
<!-- Node1 -->
<g id="Node000001" class="node">
<title>Node1</title>
<g id="a_Node000001"><a xlink:title=" ">
<polygon fill="#999999" stroke="#666666" points="436.5,-470 279.5,-470 279.5,-451 436.5,-451 436.5,-470"/>
<text text-anchor="middle" x="358" y="-458" font-family="Helvetica,sans-Serif" font-size="10.00">Kit/Container/RingBufferMP.h</text>
</a>
</g>
</g>
<!-- Node2 -->
<g id="Node000002" class="node">
<title>Node2</title>
<g id="a_Node000002"><a xlink:href="_ring_buffer_8h.html" target="_top" xlink:title=" ">
<polygon fill="white" stroke="#666666" points="329.5,-360 186.5,-360 186.5,-341 329.5,-341 329.5,-360"/>
<text text-anchor="middle" x="258" y="-348" font-family="Helvetica,sans-Serif" font-size="10.00">Kit/Container/RingBuffer.h</text>
</a>
</g>
</g>
<!-- Node1&#45;&gt;Node2 -->
<g id="edge1_Node000001_Node000002" class="edge">
<title>Node1&#45;&gt;Node2</title>
<g id="a_edge1_Node000001_Node000002"><a xlink:title=" ">
<path fill="none" stroke="#63b8ff" d="M349.82,-450.66C333.03,-432.54 294.49,-390.91 273.07,-367.77"/>
<polygon fill="#63b8ff" stroke="#63b8ff" points="275.38,-365.12 266.02,-360.16 270.24,-369.87 275.38,-365.12"/>
</a>
</g>
</g>
<!-- Node23 -->
<g id="Node000023" class="node">
<title>Node23</title>
<g id="a_Node000023"><a xlink:href="_mutex_8h.html" target="_top" xlink:title=" ">
<polygon fill="white" stroke="#666666" points="417.5,-140 304.5,-140 304.5,-121 417.5,-121 417.5,-140"/>
<text text-anchor="middle" x="361" y="-128" font-family="Helvetica,sans-Serif" font-size="10.00">Kit/System/Mutex.h</text>
</a>
</g>
</g>
<!-- Node1&#45;&gt;Node23 -->
<g id="edge47_Node000001_Node000023" class="edge">
<title>Node1&#45;&gt;Node23</title>
<g id="a_edge47_Node000001_Node000023"><a xlink:title=" ">
<path fill="none" stroke="#63b8ff" d="M358,-450.82C358,-432.48 358,-388.44 358,-351.5 358,-351.5 358,-351.5 358,-239.5 358,-208.18 359.28,-171.77 360.16,-150.23"/>
<polygon fill="#63b8ff" stroke="#63b8ff" points="363.66,-150.32 360.6,-140.18 356.67,-150.02 363.66,-150.32"/>
</a>
</g>
</g>
<!-- Node29 -->
<g id="Node000029" class="node">
<title>Node29</title>
<g id="a_Node000029"><a xlink:href="_uint32_8h.html" target="_top" xlink:title=" ">
<polygon fill="white" stroke="#666666" points="1016.5,-415 903.5,-415 903.5,-396 1016.5,-396 1016.5,-415"/>
<text text-anchor="middle" x="960" y="-403" font-family="Helvetica,sans-Serif" font-size="10.00">Kit/Dm/Mp/Uint32.h</text>
</a>
</g>
</g>
<!-- Node1&#45;&gt;Node29 -->
<g id="edge48_Node000001_Node000029" class="edge">
<title>Node1&#45;&gt;Node29</title>
<g id="a_edge48_Node000001_Node000029"><a xlink:title=" ">
<path fill="none" stroke="#63b8ff" d="M436.7,-452.57C556.15,-442.05 781.14,-422.25 893.14,-412.39"/>
<polygon fill="#63b8ff" stroke="#63b8ff" points="893.64,-415.86 903.29,-411.49 893.02,-408.88 893.64,-415.86"/>
</a>
</g>
</g>
<!-- Node3 -->
<g id="Node000003" class="node">
<title>Node3</title>
<g id="a_Node000003"><a xlink:title=" ">
<polygon fill="#e0e0e0" stroke="#999999" points="286.5,-140 213.5,-140 213.5,-121 286.5,-121 286.5,-140"/>
<text text-anchor="middle" x="250" y="-128" font-family="Helvetica,sans-Serif" font-size="10.00">kit_config.h</text>
</a>
</g>
</g>
<!-- Node2&#45;&gt;Node3 -->
<g id="edge2_Node000002_Node000003" class="edge">
<title>Node2&#45;&gt;Node3</title>
<g id="a_edge2_Node000002_Node000003"><a xlink:title=" ">
<path fill="none" stroke="#63b8ff" d="M263.69,-340.84C280,-314.88 324.09,-235.78 298,-176 292.73,-163.92 282.37,-153.65 272.63,-146.03"/>
<polygon fill="#63b8ff" stroke="#63b8ff" points="274.52,-143.07 264.37,-140.04 270.41,-148.74 274.52,-143.07"/>
</a>
</g>
</g>
<!-- Node4 -->
<g id="Node000004" class="node">
<title>Node4</title>
<g id="a_Node000004"><a xlink:href="_assert_8h.html" target="_top" xlink:title=" ">
<polygon fill="white" stroke="#666666" points="288.5,-195 175.5,-195 175.5,-176 288.5,-176 288.5,-195"/>
<text text-anchor="middle" x="232" y="-183" font-family="Helvetica,sans-Serif" font-size="10.00">Kit/System/Assert.h</text>
</a>
</g>
</g>
<!-- Node2&#45;&gt;Node4 -->
<g id="edge3_Node000002_Node000004" class="edge">
<title>Node2&#45;&gt;Node4</title>
<g id="a_edge3_Node000002_Node000004"><a xlink:title=" ">
<path fill="none" stroke="#63b8ff" d="M256.6,-340.74C252.53,-315.2 240.6,-240.43 234.99,-205.23"/>
<polygon fill="#63b8ff" stroke="#63b8ff" points="238.44,-204.63 233.4,-195.31 231.52,-205.73 238.44,-204.63"/>
</a>
</g>
</g>
<!-- Node6 -->
<g id="Node000006" class="node">
<title>Node6</title>
<g id="a_Node000006"><a xlink:href="_string_8h.html" target="_top" xlink:title=" ">
<polygon fill="white" stroke="#666666" points="829.5,-305 776.5,-305 776.5,-286 829.5,-286 829.5,-305"/>
<text text-anchor="middle" x="803" y="-293" font-family="Helvetica,sans-Serif" font-size="10.00">string.h</text>
</a>
</g>
</g>
<!-- Node2&#45;&gt;Node6 -->
<g id="edge6_Node000002_Node000006" class="edge">
<title>Node2&#45;&gt;Node6</title>
<g id="a_edge6_Node000002_Node000006"><a xlink:title=" ">
<path fill="none" stroke="#63b8ff" d="M329.53,-342.54C447.05,-331.11 676.88,-308.77 766.23,-300.08"/>
<polygon fill="#63b8ff" stroke="#63b8ff" points="766.8,-303.54 776.41,-299.09 766.12,-296.57 766.8,-303.54"/>
</a>
</g>
</g>
<!-- Node27 -->
<g id="Node000027" class="node">
<title>Node27</title>
<g id="a_Node000027"><a xlink:href="_ring_buffer_base_atomic_8h.html" target="_top" xlink:title=" ">
<polygon fill="white" stroke="#666666" points="134,-85 0,-85 0,-55 134,-55 134,-85"/>
<text text-anchor="start" x="8" y="-73" font-family="Helvetica,sans-Serif" font-size="10.00">Kit/Container/RingBuffer</text>
<text text-anchor="middle" x="67" y="-62" font-family="Helvetica,sans-Serif" font-size="10.00">BaseAtomic.h</text>
</a>
</g>
</g>
<!-- Node2&#45;&gt;Node27 -->
<g id="edge43_Node000002_Node000027" class="edge">
<title>Node2&#45;&gt;Node27</title>
<g id="a_edge43_Node000002_Node000027"><a xlink:title=" ">
<path fill="none" stroke="#63b8ff" d="M216.45,-341C168.15,-328.4 95,-299.72 95,-241.5 95,-241.5 95,-241.5 95,-184.5 95,-152.64 84.47,-117.18 76.33,-94.51"/>
<polygon fill="#63b8ff" stroke="#63b8ff" points="79.58,-93.2 72.8,-85.06 73.02,-95.65 79.58,-93.2"/>
</a>
</g>
</g>
<!-- Node4&#45;&gt;Node3 -->
<g id="edge4_Node000004_Node000003" class="edge">
<title>Node4&#45;&gt;Node3</title>
<g id="a_edge4_Node000004_Node000003"><a xlink:title=" ">
<path fill="none" stroke="#63b8ff" d="M234.97,-175.75C237.36,-168.72 240.79,-158.62 243.77,-149.84"/>
<polygon fill="#63b8ff" stroke="#63b8ff" points="247.18,-150.68 247.08,-140.09 240.55,-148.43 247.18,-150.68"/>
</a>
</g>
</g>
<!-- Node5 -->
<g id="Node000005" class="node">
<title>Node5</title>
<g id="a_Node000005"><a xlink:title=" ">
<polygon fill="#e0e0e0" stroke="#999999" points="301.5,-79.5 236.5,-79.5 236.5,-60.5 301.5,-60.5 301.5,-79.5"/>
<text text-anchor="middle" x="269" y="-67.5" font-family="Helvetica,sans-Serif" font-size="10.00">kit_map.h</text>
</a>
</g>
</g>
<!-- Node4&#45;&gt;Node5 -->
<g id="edge5_Node000004_Node000005" class="edge">
<title>Node4&#45;&gt;Node5</title>
<g id="a_edge5_Node000004_Node000005"><a xlink:title=" ">
<path fill="none" stroke="#63b8ff" d="M223.15,-175.77C211.76,-163.42 194.53,-140.24 204,-121 211.79,-105.18 227.26,-92.96 241.15,-84.57"/>
<polygon fill="#63b8ff" stroke="#63b8ff" points="242.97,-87.56 249.96,-79.6 239.53,-81.46 242.97,-87.56"/>
</a>
</g>
</g>
<!-- Node7 -->
<g id="Node000007" class="node">
<title>Node7</title>
<g id="a_Node000007"><a xlink:href="_model_point_base_8h.html" target="_top" xlink:title=" ">
<polygon fill="white" stroke="#666666" points="873.5,-250 732.5,-250 732.5,-231 873.5,-231 873.5,-250"/>
<text text-anchor="middle" x="803" y="-238" font-family="Helvetica,sans-Serif" font-size="10.00">Kit/Dm/ModelPointBase.h</text>
</a>
</g>
</g>
<!-- Node6&#45;&gt;Node7 -->
<g id="edge7_Node000006_Node000007" class="edge">
<title>Node6&#45;&gt;Node7</title>
<g id="a_edge7_Node000006_Node000007"><a xlink:title=" ">
<path fill="none" stroke="#63b8ff" d="M803,-285.75C803,-278.8 803,-268.85 803,-260.13"/>
<polygon fill="#63b8ff" stroke="#63b8ff" points="806.5,-260.09 803,-250.09 799.5,-260.09 806.5,-260.09"/>
</a>
</g>
</g>
<!-- Node26 -->
<g id="Node000026" class="node">
<title>Node26</title>
<g id="a_Node000026"><a xlink:href="_observer_8h.html" target="_top" xlink:title=" ">
<polygon fill="white" stroke="#666666" points="1066,-250 960,-250 960,-231 1066,-231 1066,-250"/>
<text text-anchor="middle" x="1013" y="-238" font-family="Helvetica,sans-Serif" font-size="10.00">Kit/Dm/Observer.h</text>
</a>
</g>
</g>
<!-- Node6&#45;&gt;Node26 -->
<g id="edge39_Node000006_Node000026" class="edge">
<title>Node6&#45;&gt;Node26</title>
<g id="a_edge39_Node000006_Node000026"><a xlink:title=" ">
<path fill="none" stroke="#63b8ff" d="M829.6,-287.79C864.75,-278.92 927.13,-263.17 969.26,-252.54"/>
<polygon fill="#63b8ff" stroke="#63b8ff" points="970.14,-255.93 978.98,-250.09 968.43,-249.14 970.14,-255.93"/>
</a>
</g>
</g>
<!-- Node8 -->
<g id="Node000008" class="node">
<title>Node8</title>
<g id="a_Node000008"><a xlink:href="_i_model_point_8h.html" target="_top" xlink:title=" ">
<polygon fill="white" stroke="#666666" points="951,-195 831,-195 831,-176 951,-176 951,-195"/>
<text text-anchor="middle" x="891" y="-183" font-family="Helvetica,sans-Serif" font-size="10.00">Kit/Dm/IModelPoint.h</text>
</a>
</g>
</g>
<!-- Node7&#45;&gt;Node8 -->
<g id="edge8_Node000007_Node000008" class="edge">
<title>Node7&#45;&gt;Node8</title>
<g id="a_edge8_Node000007_Node000008"><a xlink:title=" ">
<path fill="none" stroke="#63b8ff" d="M817.14,-230.98C830.79,-222.77 851.69,-210.18 867.78,-200.49"/>
<polygon fill="#63b8ff" stroke="#63b8ff" points="869.84,-203.33 876.6,-195.17 866.23,-197.33 869.84,-203.33"/>
</a>
</g>
</g>
<!-- Node13 -->
<g id="Node000013" class="node">
<title>Node13</title>
<g id="a_Node000013"><a xlink:title=" ">
<polygon fill="#e0e0e0" stroke="#999999" points="1044.5,-19 991.5,-19 991.5,0 1044.5,0 1044.5,-19"/>
<text text-anchor="middle" x="1018" y="-7" font-family="Helvetica,sans-Serif" font-size="10.00">stdint.h</text>
</a>
</g>
</g>
<!-- Node7&#45;&gt;Node13 -->
<g id="edge37_Node000007_Node000013" class="edge">
<title>Node7&#45;&gt;Node13</title>
<g id="a_edge37_Node000007_Node000013"><a xlink:title=" ">
<path fill="none" stroke="#63b8ff" d="M802.04,-230.72C799.36,-201.36 794.91,-105.67 844,-55 862.82,-35.57 936.04,-22.04 981.29,-15.33"/>
<polygon fill="#63b8ff" stroke="#63b8ff" points="981.91,-18.78 991.31,-13.89 980.92,-11.85 981.91,-18.78"/>
</a>
</g>
</g>
<!-- Node14 -->
<g id="Node000014" class="node">
<title>Node14</title>
<g id="a_Node000014"><a xlink:title=" ">
<polygon fill="#e0e0e0" stroke="#999999" points="387.5,-19 334.5,-19 334.5,0 387.5,0 387.5,-19"/>
<text text-anchor="middle" x="361" y="-7" font-family="Helvetica,sans-Serif" font-size="10.00">stdlib.h</text>
</a>
</g>
</g>
<!-- Node7&#45;&gt;Node14 -->
<g id="edge38_Node000007_Node000014" class="edge">
<title>Node7&#45;&gt;Node14</title>
<g id="a_edge38_Node000007_Node000014"><a xlink:title=" ">
<path fill="none" stroke="#63b8ff" d="M762.4,-230.93C683.86,-213.82 514.55,-174.09 466,-140 422.33,-109.33 387.1,-55.67 370.81,-28.04"/>
<polygon fill="#63b8ff" stroke="#63b8ff" points="373.7,-26.05 365.68,-19.13 367.63,-29.55 373.7,-26.05"/>
</a>
</g>
</g>
<!-- Node19 -->
<g id="Node000019" class="node">
<title>Node19</title>
<g id="a_Node000019"><a xlink:href="_i_observer_8h.html" target="_top" xlink:title=" ">
<polygon fill="white" stroke="#666666" points="1168.5,-140 1059.5,-140 1059.5,-121 1168.5,-121 1168.5,-140"/>
<text text-anchor="middle" x="1114" y="-128" font-family="Helvetica,sans-Serif" font-size="10.00">Kit/Dm/IObserver.h</text>
</a>
</g>
</g>
<!-- Node7&#45;&gt;Node19 -->
<g id="edge33_Node000007_Node000019" class="edge">
<title>Node7&#45;&gt;Node19</title>
<g id="a_edge33_Node000007_Node000019"><a xlink:title=" ">
<path fill="none" stroke="#63b8ff" d="M837.35,-230.98C869.39,-222.75 918.38,-209.43 960,-195 1004.87,-179.45 1055.55,-157.72 1086.12,-144.13"/>
<polygon fill="#63b8ff" stroke="#63b8ff" points="1087.6,-147.31 1095.3,-140.03 1084.74,-140.91 1087.6,-147.31"/>
</a>
</g>
</g>
<!-- Node22 -->
<g id="Node000022" class="node">
<title>Node22</title>
<g id="a_Node000022"><a xlink:href="_i_model_database_8h.html" target="_top" xlink:title=" ">
<polygon fill="white" stroke="#666666" points="528,-195 386,-195 386,-176 528,-176 528,-195"/>
<text text-anchor="middle" x="457" y="-183" font-family="Helvetica,sans-Serif" font-size="10.00">Kit/Dm/IModelDatabase.h</text>
</a>
</g>
</g>
<!-- Node7&#45;&gt;Node22 -->
<g id="edge26_Node000007_Node000022" class="edge">
<title>Node7&#45;&gt;Node22</title>
<g id="a_edge26_Node000007_Node000022"><a xlink:title=" ">
<path fill="none" stroke="#63b8ff" d="M747.41,-230.98C686.21,-221.61 587.9,-206.55 522.88,-196.59"/>
<polygon fill="#63b8ff" stroke="#63b8ff" points="523.15,-193.09 512.74,-195.04 522.09,-200.01 523.15,-193.09"/>
</a>
</g>
</g>
<!-- Node24 -->
<g id="Node000024" class="node">
<title>Node24</title>
<g id="a_Node000024"><a xlink:href="_d_list_8h.html" target="_top" xlink:title=" ">
<polygon fill="white" stroke="#666666" points="749.5,-195 632.5,-195 632.5,-176 749.5,-176 749.5,-195"/>
<text text-anchor="middle" x="691" y="-183" font-family="Helvetica,sans-Serif" font-size="10.00">Kit/Container/DList.h</text>
</a>
</g>
</g>
<!-- Node7&#45;&gt;Node24 -->
<g id="edge34_Node000007_Node000024" class="edge">
<title>Node7&#45;&gt;Node24</title>
<g id="a_edge34_Node000007_Node000024"><a xlink:title=" ">
<path fill="none" stroke="#63b8ff" d="M785.01,-230.98C767.07,-222.5 739.28,-209.35 718.57,-199.54"/>
<polygon fill="#63b8ff" stroke="#63b8ff" points="719.86,-196.28 709.32,-195.17 716.86,-202.61 719.86,-196.28"/>
</a>
</g>
</g>
<!-- Node8&#45;&gt;Node3 -->
<g id="edge9_Node000008_Node000003" class="edge">
<title>Node8&#45;&gt;Node3</title>
<g id="a_edge9_Node000008_Node000003"><a xlink:title=" ">
<path fill="none" stroke="#63b8ff" d="M830.98,-180.38C696.77,-171.12 378.4,-148.86 296.54,-139.82"/>
<polygon fill="#63b8ff" stroke="#63b8ff" points="296.95,-136.34 286.6,-138.63 296.12,-143.29 296.95,-136.34"/>
</a>
</g>
</g>
<!-- Node9 -->
<g id="Node000009" class="node">
<title>Node9</title>
<g id="a_Node000009"><a xlink:href="_list_item_8h.html" target="_top" xlink:title=" ">
<polygon fill="white" stroke="#666666" points="647,-79.5 515,-79.5 515,-60.5 647,-60.5 647,-79.5"/>
<text text-anchor="middle" x="581" y="-67.5" font-family="Helvetica,sans-Serif" font-size="10.00">Kit/Container/ListItem.h</text>
</a>
</g>
</g>
<!-- Node8&#45;&gt;Node9 -->
<g id="edge10_Node000008_Node000009" class="edge">
<title>Node8&#45;&gt;Node9</title>
<g id="a_edge10_Node000008_Node000009"><a xlink:title=" ">
<path fill="none" stroke="#63b8ff" d="M873.42,-175.99C846.42,-163.11 792.92,-138.32 746,-121 704.9,-105.83 656.86,-91.67 623.26,-82.31"/>
<polygon fill="#63b8ff" stroke="#63b8ff" points="623.88,-78.86 613.31,-79.57 622.02,-85.6 623.88,-78.86"/>
</a>
</g>
</g>
<!-- Node11 -->
<g id="Node000011" class="node">
<title>Node11</title>
<g id="a_Node000011"><a xlink:href="_i_string_8h.html" target="_top" xlink:title=" ">
<polygon fill="white" stroke="#666666" points="966.5,-140 869.5,-140 869.5,-121 966.5,-121 966.5,-140"/>
<text text-anchor="middle" x="918" y="-128" font-family="Helvetica,sans-Serif" font-size="10.00">Kit/Text/IString.h</text>
</a>
</g>
</g>
<!-- Node8&#45;&gt;Node11 -->
<g id="edge12_Node000008_Node000011" class="edge">
<title>Node8&#45;&gt;Node11</title>
<g id="a_edge12_Node000008_Node000011"><a xlink:title=" ">
<path fill="none" stroke="#63b8ff" d="M895.46,-175.75C899.12,-168.57 904.41,-158.18 908.95,-149.27"/>
<polygon fill="#63b8ff" stroke="#63b8ff" points="912.2,-150.59 913.62,-140.09 905.97,-147.41 912.2,-150.59"/>
</a>
</g>
</g>
<!-- Node8&#45;&gt;Node13 -->
<g id="edge25_Node000008_Node000013" class="edge">
<title>Node8&#45;&gt;Node13</title>
<g id="a_edge25_Node000008_Node000013"><a xlink:title=" ">
<path fill="none" stroke="#63b8ff" d="M882.79,-175.8C875.46,-167.38 865.25,-153.9 861,-140 849.96,-103.87 838.22,-85.14 861,-55 875.49,-35.83 939.71,-22.53 981.39,-15.73"/>
<polygon fill="#63b8ff" stroke="#63b8ff" points="982.13,-19.16 991.46,-14.15 981.04,-12.25 982.13,-19.16"/>
</a>
</g>
</g>
<!-- Node8&#45;&gt;Node19 -->
<g id="edge20_Node000008_Node000019" class="edge">
<title>Node8&#45;&gt;Node19</title>
<g id="a_edge20_Node000008_Node000019"><a xlink:title=" ">
<path fill="none" stroke="#63b8ff" d="M926.83,-175.98C965.16,-166.87 1026.08,-152.4 1067.95,-142.45"/>
<polygon fill="#63b8ff" stroke="#63b8ff" points="1068.97,-145.8 1077.89,-140.08 1067.35,-138.99 1068.97,-145.8"/>
</a>
</g>
</g>
<!-- Node20 -->
<g id="Node000020" class="node">
<title>Node20</title>
<g id="a_Node000020"><a xlink:href="_arduino_8h_source.html" target="_top" xlink:title=" ">
<polygon fill="white" stroke="#666666" points="577.5,-140 474.5,-140 474.5,-121 577.5,-121 577.5,-140"/>
<text text-anchor="middle" x="526" y="-128" font-family="Helvetica,sans-Serif" font-size="10.00">Kit/Json/Arduino.h</text>
</a>
</g>
</g>
<!-- Node8&#45;&gt;Node20 -->
<g id="edge23_Node000008_Node000020" class="edge">
<title>Node8&#45;&gt;Node20</title>
<g id="a_edge23_Node000008_Node000020"><a xlink:title=" ">
<path fill="none" stroke="#63b8ff" d="M832.36,-175.98C765.37,-166.26 656.22,-150.41 587.89,-140.49"/>
<polygon fill="#63b8ff" stroke="#63b8ff" points="588.11,-136.98 577.71,-139.01 587.1,-143.91 588.11,-136.98"/>
</a>
</g>
</g>
<!-- Node21 -->
<g id="Node000021" class="node">
<title>Node21</title>
<g id="a_Node000021"><a xlink:title=" ">
<polygon fill="#e0e0e0" stroke="#999999" points="1041,-140 985,-140 985,-121 1041,-121 1041,-140"/>
<text text-anchor="middle" x="1013" y="-128" font-family="Helvetica,sans-Serif" font-size="10.00">stddef.h</text>
</a>
</g>
</g>
<!-- Node8&#45;&gt;Node21 -->
<g id="edge24_Node000008_Node000021" class="edge">
<title>Node8&#45;&gt;Node21</title>
<g id="a_edge24_Node000008_Node000021"><a xlink:title=" ">
<path fill="none" stroke="#63b8ff" d="M910.6,-175.98C930.32,-167.42 960.95,-154.11 983.58,-144.28"/>
<polygon fill="#63b8ff" stroke="#63b8ff" points="985.26,-147.37 993.04,-140.17 982.48,-140.94 985.26,-147.37"/>
</a>
</g>
</g>
<!-- Node10 -->
<g id="Node000010" class="node">
<title>Node10</title>
<g id="a_Node000010"><a xlink:href="_item_8h.html" target="_top" xlink:title=" ">
<polygon fill="white" stroke="#666666" points="638.5,-19 523.5,-19 523.5,0 638.5,0 638.5,-19"/>
<text text-anchor="middle" x="581" y="-7" font-family="Helvetica,sans-Serif" font-size="10.00">Kit/Container/Item.h</text>
</a>
</g>
</g>
<!-- Node9&#45;&gt;Node10 -->
<g id="edge11_Node000009_Node000010" class="edge">
<title>Node9&#45;&gt;Node10</title>
<g id="a_edge11_Node000009_Node000010"><a xlink:title=" ">
<path fill="none" stroke="#63b8ff" d="M581,-60.37C581,-52.25 581,-39.81 581,-29.39"/>
<polygon fill="#63b8ff" stroke="#63b8ff" points="584.5,-29.17 581,-19.17 577.5,-29.17 584.5,-29.17"/>
</a>
</g>
</g>
<!-- Node12 -->
<g id="Node000012" class="node">
<title>Node12</title>
<g id="a_Node000012"><a xlink:href="_key_8h.html" target="_top" xlink:title=" ">
<polygon fill="white" stroke="#666666" points="774.5,-79.5 665.5,-79.5 665.5,-60.5 774.5,-60.5 774.5,-79.5"/>
<text text-anchor="middle" x="720" y="-67.5" font-family="Helvetica,sans-Serif" font-size="10.00">Kit/Container/Key.h</text>
</a>
</g>
</g>
<!-- Node11&#45;&gt;Node12 -->
<g id="edge13_Node000011_Node000012" class="edge">
<title>Node11&#45;&gt;Node12</title>
<g id="a_edge13_Node000011_Node000012"><a xlink:title=" ">
<path fill="none" stroke="#63b8ff" d="M889.21,-120.99C854.75,-110.81 796.91,-93.72 758.6,-82.4"/>
<polygon fill="#63b8ff" stroke="#63b8ff" points="759.41,-78.99 748.83,-79.52 757.42,-85.71 759.41,-78.99"/>
</a>
</g>
</g>
<!-- Node16 -->
<g id="Node000016" class="node">
<title>Node16</title>
<g id="a_Node000016"><a xlink:href="printfchecker_8h.html" target="_top" xlink:title="This file contains macro that enables the GCC (and Clang) compiler to validate printf flags with thei...">
<polygon fill="white" stroke="#666666" points="1014.5,-79.5 869.5,-79.5 869.5,-60.5 1014.5,-60.5 1014.5,-79.5"/>
<text text-anchor="middle" x="942" y="-67.5" font-family="Helvetica,sans-Serif" font-size="10.00">Kit/System/printfchecker.h</text>
</a>
</g>
</g>
<!-- Node11&#45;&gt;Node16 -->
<g id="edge17_Node000011_Node000016" class="edge">
<title>Node11&#45;&gt;Node16</title>
<g id="a_edge17_Node000011_Node000016"><a xlink:title=" ">
<path fill="none" stroke="#63b8ff" d="M921.54,-120.87C924.94,-112.57 930.19,-99.78 934.52,-89.22"/>
<polygon fill="#63b8ff" stroke="#63b8ff" points="937.89,-90.25 938.44,-79.67 931.41,-87.59 937.89,-90.25"/>
</a>
</g>
</g>
<!-- Node17 -->
<g id="Node000017" class="node">
<title>Node17</title>
<g id="a_Node000017"><a xlink:title=" ">
<polygon fill="#e0e0e0" stroke="#999999" points="1089,-79.5 1033,-79.5 1033,-60.5 1089,-60.5 1089,-79.5"/>
<text text-anchor="middle" x="1061" y="-67.5" font-family="Helvetica,sans-Serif" font-size="10.00">stdarg.h</text>
</a>
</g>
</g>
<!-- Node11&#45;&gt;Node17 -->
<g id="edge18_Node000011_Node000017" class="edge">
<title>Node11&#45;&gt;Node17</title>
<g id="a_edge18_Node000011_Node000017"><a xlink:title=" ">
<path fill="none" stroke="#63b8ff" d="M938.79,-120.99C962.94,-111.12 1002.98,-94.73 1030.62,-83.43"/>
<polygon fill="#63b8ff" stroke="#63b8ff" points="1032.25,-86.54 1040.18,-79.52 1029.6,-80.06 1032.25,-86.54"/>
</a>
</g>
</g>
<!-- Node18 -->
<g id="Node000018" class="node">
<title>Node18</title>
<g id="a_Node000018"><a xlink:title=" ">
<polygon fill="#e0e0e0" stroke="#999999" points="1167,-79.5 1107,-79.5 1107,-60.5 1167,-60.5 1167,-79.5"/>
<text text-anchor="middle" x="1137" y="-67.5" font-family="Helvetica,sans-Serif" font-size="10.00">iostream</text>
</a>
</g>
</g>
<!-- Node11&#45;&gt;Node18 -->
<g id="edge19_Node000011_Node000018" class="edge">
<title>Node11&#45;&gt;Node18</title>
<g id="a_edge19_Node000011_Node000018"><a xlink:title=" ">
<path fill="none" stroke="#63b8ff" d="M957.64,-120.93C994.33,-112.7 1050.24,-99.44 1098,-85 1100.27,-84.32 1102.59,-83.58 1104.93,-82.81"/>
<polygon fill="#63b8ff" stroke="#63b8ff" points="1106.12,-86.1 1114.45,-79.54 1103.85,-79.48 1106.12,-86.1"/>
</a>
</g>
</g>
<!-- Node12&#45;&gt;Node13 -->
<g id="edge14_Node000012_Node000013" class="edge">
<title>Node12&#45;&gt;Node13</title>
<g id="a_edge14_Node000012_Node000013"><a xlink:title=" ">
<path fill="none" stroke="#63b8ff" d="M761.95,-60.43C770.88,-58.62 780.25,-56.74 789,-55 856.81,-41.53 936.01,-26.24 981.26,-17.54"/>
<polygon fill="#63b8ff" stroke="#63b8ff" points="982.03,-20.96 991.19,-15.64 980.71,-14.08 982.03,-20.96"/>
</a>
</g>
</g>
<!-- Node12&#45;&gt;Node14 -->
<g id="edge15_Node000012_Node000014" class="edge">
<title>Node12&#45;&gt;Node14</title>
<g id="a_edge15_Node000012_Node000014"><a xlink:title=" ">
<path fill="none" stroke="#63b8ff" d="M682.86,-60.44C674.07,-58.54 664.72,-56.61 656,-55 563.41,-37.91 453.57,-22.65 397.66,-15.24"/>
<polygon fill="#63b8ff" stroke="#63b8ff" points="397.91,-11.75 387.54,-13.91 397,-18.69 397.91,-11.75"/>
</a>
</g>
</g>
<!-- Node15 -->
<g id="Node000015" class="node">
<title>Node15</title>
<g id="a_Node000015"><a xlink:title=" ">
<polygon fill="#e0e0e0" stroke="#999999" points="746.5,-19 693.5,-19 693.5,0 746.5,0 746.5,-19"/>
<text text-anchor="middle" x="720" y="-7" font-family="Helvetica,sans-Serif" font-size="10.00">limits.h</text>
</a>
</g>
</g>
<!-- Node12&#45;&gt;Node15 -->
<g id="edge16_Node000012_Node000015" class="edge">
<title>Node12&#45;&gt;Node15</title>
<g id="a_edge16_Node000012_Node000015"><a xlink:title=" ">
<path fill="none" stroke="#63b8ff" d="M720,-60.37C720,-52.25 720,-39.81 720,-29.39"/>
<polygon fill="#63b8ff" stroke="#63b8ff" points="723.5,-29.17 720,-19.17 716.5,-29.17 723.5,-29.17"/>
</a>
</g>
</g>
<!-- Node19&#45;&gt;Node9 -->
<g id="edge21_Node000019_Node000009" class="edge">
<title>Node19&#45;&gt;Node9</title>
<g id="a_edge21_Node000019_Node000009"><a xlink:title=" ">
<path fill="none" stroke="#63b8ff" d="M1059.21,-122.07C1056.09,-121.7 1053.01,-121.34 1050,-121 875.69,-101.45 830.76,-108.91 657,-85 649.34,-83.95 641.27,-82.66 633.37,-81.29"/>
<polygon fill="#63b8ff" stroke="#63b8ff" points="633.96,-77.84 623.5,-79.53 632.73,-84.73 633.96,-77.84"/>
</a>
</g>
</g>
<!-- Node19&#45;&gt;Node13 -->
<g id="edge22_Node000019_Node000013" class="edge">
<title>Node19&#45;&gt;Node13</title>
<g id="a_edge22_Node000019_Node000013"><a xlink:title=" ">
<path fill="none" stroke="#63b8ff" d="M1134.52,-121C1149.02,-113.77 1167.35,-101.86 1176,-85 1182.09,-73.14 1184.05,-65.63 1176,-55 1161.41,-35.73 1096.79,-22.46 1054.84,-15.7"/>
<polygon fill="#63b8ff" stroke="#63b8ff" points="1055.13,-12.2 1044.71,-14.12 1054.05,-19.12 1055.13,-12.2"/>
</a>
</g>
</g>
<!-- Node22&#45;&gt;Node3 -->
<g id="edge27_Node000022_Node000003" class="edge">
<title>Node22&#45;&gt;Node3</title>
<g id="a_edge27_Node000022_Node000003"><a xlink:title=" ">
<path fill="none" stroke="#63b8ff" d="M423.74,-175.98C388.39,-166.93 332.33,-152.58 293.49,-142.64"/>
<polygon fill="#63b8ff" stroke="#63b8ff" points="294.07,-139.17 283.52,-140.08 292.34,-145.95 294.07,-139.17"/>
</a>
</g>
</g>
<!-- Node22&#45;&gt;Node11 -->
<g id="edge28_Node000022_Node000011" class="edge">
<title>Node22&#45;&gt;Node11</title>
<g id="a_edge28_Node000022_Node000011"><a xlink:title=" ">
<path fill="none" stroke="#63b8ff" d="M528.02,-176.33C618.91,-165.89 774.7,-147.98 859.25,-138.25"/>
<polygon fill="#63b8ff" stroke="#63b8ff" points="859.66,-141.73 869.19,-137.11 858.86,-134.78 859.66,-141.73"/>
</a>
</g>
</g>
<!-- Node22&#45;&gt;Node20 -->
<g id="edge32_Node000022_Node000020" class="edge">
<title>Node22&#45;&gt;Node20</title>
<g id="a_edge32_Node000022_Node000020"><a xlink:title=" ">
<path fill="none" stroke="#63b8ff" d="M468.09,-175.98C478.49,-168 494.26,-155.88 506.72,-146.31"/>
<polygon fill="#63b8ff" stroke="#63b8ff" points="508.91,-149.04 514.71,-140.17 504.65,-143.49 508.91,-149.04"/>
</a>
</g>
</g>
<!-- Node22&#45;&gt;Node23 -->
<g id="edge29_Node000022_Node000023" class="edge">
<title>Node22&#45;&gt;Node23</title>
<g id="a_edge29_Node000022_Node000023"><a xlink:title=" ">
<path fill="none" stroke="#63b8ff" d="M441.58,-175.98C426.55,-167.69 403.46,-154.94 385.84,-145.22"/>
<polygon fill="#63b8ff" stroke="#63b8ff" points="387.15,-141.94 376.7,-140.17 383.77,-148.07 387.15,-141.94"/>
</a>
</g>
</g>
<!-- Node23&#45;&gt;Node5 -->
<g id="edge31_Node000023_Node000005" class="edge">
<title>Node23&#45;&gt;Node5</title>
<g id="a_edge31_Node000023_Node000005"><a xlink:title=" ">
<path fill="none" stroke="#63b8ff" d="M347.43,-120.87C332.61,-111.45 308.67,-96.23 291.14,-85.08"/>
<polygon fill="#63b8ff" stroke="#63b8ff" points="292.95,-82.08 282.63,-79.67 289.19,-87.99 292.95,-82.08"/>
</a>
</g>
</g>
<!-- Node23&#45;&gt;Node14 -->
<g id="edge30_Node000023_Node000014" class="edge">
<title>Node23&#45;&gt;Node14</title>
<g id="a_edge30_Node000023_Node000014"><a xlink:title=" ">
<path fill="none" stroke="#63b8ff" d="M361,-120.94C361,-101.91 361,-55.69 361,-29.47"/>
<polygon fill="#63b8ff" stroke="#63b8ff" points="364.5,-29.3 361,-19.3 357.5,-29.3 364.5,-29.3"/>
</a>
</g>
</g>
<!-- Node25 -->
<g id="Node000025" class="node">
<title>Node25</title>
<g id="a_Node000025"><a xlink:href="_d_list_base_8h.html" target="_top" xlink:title=" ">
<polygon fill="white" stroke="#666666" points="736.5,-140 595.5,-140 595.5,-121 736.5,-121 736.5,-140"/>
<text text-anchor="middle" x="666" y="-128" font-family="Helvetica,sans-Serif" font-size="10.00">Kit/Container/DListBase.h</text>
</a>
</g>
</g>
<!-- Node24&#45;&gt;Node25 -->
<g id="edge35_Node000024_Node000025" class="edge">
<title>Node24&#45;&gt;Node25</title>
<g id="a_edge35_Node000024_Node000025"><a xlink:title=" ">
<path fill="none" stroke="#63b8ff" d="M686.87,-175.75C683.49,-168.57 678.58,-158.18 674.38,-149.27"/>
<polygon fill="#63b8ff" stroke="#63b8ff" points="677.48,-147.64 670.05,-140.09 671.15,-150.63 677.48,-147.64"/>
</a>
</g>
</g>
<!-- Node25&#45;&gt;Node9 -->
<g id="edge36_Node000025_Node000009" class="edge">
<title>Node25&#45;&gt;Node9</title>
<g id="a_edge36_Node000025_Node000009"><a xlink:title=" ">
<path fill="none" stroke="#63b8ff" d="M653.46,-120.87C639.9,-111.54 618.06,-96.51 601.9,-85.38"/>
<polygon fill="#63b8ff" stroke="#63b8ff" points="603.82,-82.45 593.59,-79.67 599.85,-88.22 603.82,-82.45"/>
</a>
</g>
</g>
<!-- Node26&#45;&gt;Node8 -->
<g id="edge41_Node000026_Node000008" class="edge">
<title>Node26&#45;&gt;Node8</title>
<g id="a_edge41_Node000026_Node000008"><a xlink:title=" ">
<path fill="none" stroke="#63b8ff" d="M993.4,-230.98C973.68,-222.42 943.05,-209.11 920.42,-199.28"/>
<polygon fill="#63b8ff" stroke="#63b8ff" points="921.52,-195.94 910.96,-195.17 918.74,-202.37 921.52,-195.94"/>
</a>
</g>
</g>
<!-- Node26&#45;&gt;Node13 -->
<g id="edge42_Node000026_Node000013" class="edge">
<title>Node26&#45;&gt;Node13</title>
<g id="a_edge42_Node000026_Node000013"><a xlink:title=" ">
<path fill="none" stroke="#63b8ff" d="M1026.59,-230.96C1046.23,-218.66 1083.73,-195.31 1116,-176 1143.34,-159.64 1158.79,-165.42 1178,-140 1201.08,-109.45 1215.48,-85.24 1192,-55 1175.32,-33.52 1100.6,-20.65 1054.67,-14.63"/>
<polygon fill="#63b8ff" stroke="#63b8ff" points="1054.86,-11.13 1044.5,-13.35 1053.99,-18.08 1054.86,-11.13"/>
</a>
</g>
</g>
<!-- Node26&#45;&gt;Node19 -->
<g id="edge40_Node000026_Node000019" class="edge">
<title>Node26&#45;&gt;Node19</title>
<g id="a_edge40_Node000026_Node000019"><a xlink:title=" ">
<path fill="none" stroke="#63b8ff" d="M1021.27,-230.66C1038.29,-212.46 1077.48,-170.55 1099.07,-147.47"/>
<polygon fill="#63b8ff" stroke="#63b8ff" points="1101.63,-149.85 1105.9,-140.16 1096.52,-145.07 1101.63,-149.85"/>
</a>
</g>
</g>
<!-- Node27&#45;&gt;Node13 -->
<g id="edge44_Node000027_Node000013" class="edge">
<title>Node27&#45;&gt;Node13</title>
<g id="a_edge44_Node000027_Node000013"><a xlink:title=" ">
<path fill="none" stroke="#63b8ff" d="M134.3,-62.64C162.87,-60.07 196.55,-57.19 227,-55 517.39,-34.13 868.35,-17.35 981.18,-12.16"/>
<polygon fill="#63b8ff" stroke="#63b8ff" points="981.52,-15.65 991.35,-11.7 981.2,-8.66 981.52,-15.65"/>
</a>
</g>
</g>
<!-- Node27&#45;&gt;Node14 -->
<g id="edge45_Node000027_Node000014" class="edge">
<title>Node27&#45;&gt;Node14</title>
<g id="a_edge45_Node000027_Node000014"><a xlink:title=" ">
<path fill="none" stroke="#63b8ff" d="M134.08,-55.65C193.13,-43.9 276.9,-27.23 324.4,-17.78"/>
<polygon fill="#63b8ff" stroke="#63b8ff" points="325.12,-21.21 334.25,-15.82 323.75,-14.34 325.12,-21.21"/>
</a>
</g>
</g>
<!-- Node28 -->
<g id="Node000028" class="node">
<title>Node28</title>
<g id="a_Node000028"><a xlink:title=" ">
<polygon fill="#e0e0e0" stroke="#999999" points="92,-19 42,-19 42,0 92,0 92,-19"/>
<text text-anchor="middle" x="67" y="-7" font-family="Helvetica,sans-Serif" font-size="10.00">atomic</text>
</a>
</g>
</g>
<!-- Node27&#45;&gt;Node28 -->
<g id="edge46_Node000027_Node000028" class="edge">
<title>Node27&#45;&gt;Node28</title>
<g id="a_edge46_Node000027_Node000028"><a xlink:title=" ">
<path fill="none" stroke="#63b8ff" d="M67,-54.84C67,-47.21 67,-37.7 67,-29.45"/>
<polygon fill="#63b8ff" stroke="#63b8ff" points="70.5,-29.27 67,-19.27 63.5,-29.27 70.5,-29.27"/>
</a>
</g>
</g>
<!-- Node29&#45;&gt;Node13 -->
<g id="edge63_Node000029_Node000013" class="edge">
<title>Node29&#45;&gt;Node13</title>
<g id="a_edge63_Node000029_Node000013"><a xlink:title=" ">
<path fill="none" stroke="#63b8ff" d="M1016.85,-398.77C1115.74,-387.22 1309,-356.91 1309,-296.5 1309,-296.5 1309,-296.5 1309,-129.5 1309,-84.37 1279.37,-77.06 1240,-55 1180.99,-21.93 1100.99,-13.21 1054.89,-11.05"/>
<polygon fill="#63b8ff" stroke="#63b8ff" points="1054.89,-7.55 1044.76,-10.66 1054.62,-14.54 1054.89,-7.55"/>
</a>
</g>
</g>
<!-- Node30 -->
<g id="Node000030" class="node">
<title>Node30</title>
<g id="a_Node000030"><a xlink:href="_primitive_type_8h.html" target="_top" xlink:title=" ">
<polygon fill="white" stroke="#666666" points="1033.5,-360 886.5,-360 886.5,-341 1033.5,-341 1033.5,-360"/>
<text text-anchor="middle" x="960" y="-348" font-family="Helvetica,sans-Serif" font-size="10.00">Kit/Dm/Mp/PrimitiveType.h</text>
</a>
</g>
</g>
<!-- Node29&#45;&gt;Node30 -->
<g id="edge49_Node000029_Node000030" class="edge">
<title>Node29&#45;&gt;Node30</title>
<g id="a_edge49_Node000029_Node000030"><a xlink:title=" ">
<path fill="none" stroke="#63b8ff" d="M960,-395.75C960,-388.8 960,-378.85 960,-370.13"/>
<polygon fill="#63b8ff" stroke="#63b8ff" points="963.5,-370.09 960,-360.09 956.5,-370.09 963.5,-370.09"/>
</a>
</g>
</g>
<!-- Node31 -->
<g id="Node000031" class="node">
<title>Node31</title>
<g id="a_Node000031"><a xlink:href="_scalar_8h.html" target="_top" xlink:title=" ">
<polygon fill="white" stroke="#666666" points="1068,-305 958,-305 958,-286 1068,-286 1068,-305"/>
<text text-anchor="middle" x="1013" y="-293" font-family="Helvetica,sans-Serif" font-size="10.00">Kit/Dm/Mp/Scalar.h</text>
</a>
</g>
</g>
<!-- Node30&#45;&gt;Node31 -->
<g id="edge50_Node000030_Node000031" class="edge">
<title>Node30&#45;&gt;Node31</title>
<g id="a_edge50_Node000030_Node000031"><a xlink:title=" ">
<path fill="none" stroke="#63b8ff" d="M968.75,-340.75C976.47,-333.03 987.9,-321.6 997.22,-312.28"/>
<polygon fill="#63b8ff" stroke="#63b8ff" points="999.81,-314.64 1004.41,-305.09 994.86,-309.69 999.81,-314.64"/>
</a>
</g>
</g>
<!-- Node32 -->
<g id="Node000032" class="node">
<title>Node32</title>
<g id="a_Node000032"><a xlink:href="_f_string_8h.html" target="_top" xlink:title=" ">
<polygon fill="white" stroke="#666666" points="1213.5,-305 1114.5,-305 1114.5,-286 1213.5,-286 1213.5,-305"/>
<text text-anchor="middle" x="1164" y="-293" font-family="Helvetica,sans-Serif" font-size="10.00">Kit/Text/FString.h</text>
</a>
</g>
</g>
<!-- Node30&#45;&gt;Node32 -->
<g id="edge54_Node000030_Node000032" class="edge">
<title>Node30&#45;&gt;Node32</title>
<g id="a_edge54_Node000030_Node000032"><a xlink:title=" ">
<path fill="none" stroke="#63b8ff" d="M992.78,-340.98C1027.62,-331.93 1082.87,-317.58 1121.14,-307.64"/>
<polygon fill="#63b8ff" stroke="#63b8ff" points="1122.17,-310.98 1130.97,-305.08 1120.41,-304.21 1122.17,-310.98"/>
</a>
</g>
</g>
<!-- Node35 -->
<g id="Node000035" class="node">
<title>Node35</title>
<g id="a_Node000035"><a xlink:href="_string_to_8h.html" target="_top" xlink:title=" ">
<polygon fill="white" stroke="#666666" points="578,-305 474,-305 474,-286 578,-286 578,-305"/>
<text text-anchor="middle" x="526" y="-293" font-family="Helvetica,sans-Serif" font-size="10.00">Kit/Text/StringTo.h</text>
</a>
</g>
</g>
<!-- Node30&#45;&gt;Node35 -->
<g id="edge58_Node000030_Node000035" class="edge">
<title>Node30&#45;&gt;Node35</title>
<g id="a_edge58_Node000030_Node000035"><a xlink:title=" ">
<path fill="none" stroke="#63b8ff" d="M890.27,-340.98C806.74,-330.78 668.1,-313.85 588.11,-304.08"/>
<polygon fill="#63b8ff" stroke="#63b8ff" points="588.52,-300.61 578.17,-302.87 587.68,-307.56 588.52,-300.61"/>
</a>
</g>
</g>
<!-- Node38 -->
<g id="Node000038" class="node">
<title>Node38</title>
<g id="a_Node000038"><a xlink:title=" ">
<polygon fill="#e0e0e0" stroke="#999999" points="939.5,-305 874.5,-305 874.5,-286 939.5,-286 939.5,-305"/>
<text text-anchor="middle" x="907" y="-293" font-family="Helvetica,sans-Serif" font-size="10.00">inttypes.h</text>
</a>
</g>
</g>
<!-- Node30&#45;&gt;Node38 -->
<g id="edge62_Node000030_Node000038" class="edge">
<title>Node30&#45;&gt;Node38</title>
<g id="a_edge62_Node000030_Node000038"><a xlink:title=" ">
<path fill="none" stroke="#63b8ff" d="M951.25,-340.75C943.53,-333.03 932.1,-321.6 922.78,-312.28"/>
<polygon fill="#63b8ff" stroke="#63b8ff" points="925.14,-309.69 915.59,-305.09 920.19,-314.64 925.14,-309.69"/>
</a>
</g>
</g>
<!-- Node31&#45;&gt;Node7 -->
<g id="edge51_Node000031_Node000007" class="edge">
<title>Node31&#45;&gt;Node7</title>
<g id="a_edge51_Node000031_Node000007"><a xlink:title=" ">
<path fill="none" stroke="#63b8ff" d="M979.26,-285.98C943.32,-276.91 886.28,-262.52 846.87,-252.57"/>
<polygon fill="#63b8ff" stroke="#63b8ff" points="847.56,-249.14 837,-250.08 845.84,-255.92 847.56,-249.14"/>
</a>
</g>
</g>
<!-- Node31&#45;&gt;Node13 -->
<g id="edge53_Node000031_Node000013" class="edge">
<title>Node31&#45;&gt;Node13</title>
<g id="a_edge53_Node000031_Node000013"><a xlink:title=" ">
<path fill="none" stroke="#63b8ff" d="M1029.93,-285.92C1055.42,-273.16 1105.31,-248.78 1149,-231 1193.92,-212.72 1223.93,-234.54 1252,-195 1279.95,-155.63 1341.53,-173.08 1211,-55 1188.32,-34.49 1104,-21 1054.64,-14.67"/>
<polygon fill="#63b8ff" stroke="#63b8ff" points="1055.02,-11.2 1044.67,-13.43 1054.16,-18.14 1055.02,-11.2"/>
</a>
</g>
</g>
<!-- Node31&#45;&gt;Node26 -->
<g id="edge52_Node000031_Node000026" class="edge">
<title>Node31&#45;&gt;Node26</title>
<g id="a_edge52_Node000031_Node000026"><a xlink:title=" ">
<path fill="none" stroke="#63b8ff" d="M1013,-285.75C1013,-278.8 1013,-268.85 1013,-260.13"/>
<polygon fill="#63b8ff" stroke="#63b8ff" points="1016.5,-260.09 1013,-250.09 1009.5,-260.09 1016.5,-260.09"/>
</a>
</g>
</g>
<!-- Node33 -->
<g id="Node000033" class="node">
<title>Node33</title>
<g id="a_Node000033"><a xlink:href="_f_string_base_8h.html" target="_top" xlink:title=" ">
<polygon fill="white" stroke="#666666" points="1280.5,-250 1157.5,-250 1157.5,-231 1280.5,-231 1280.5,-250"/>
<text text-anchor="middle" x="1219" y="-238" font-family="Helvetica,sans-Serif" font-size="10.00">Kit/Text/FStringBase.h</text>
</a>
</g>
</g>
<!-- Node32&#45;&gt;Node33 -->
<g id="edge55_Node000032_Node000033" class="edge">
<title>Node32&#45;&gt;Node33</title>
<g id="a_edge55_Node000032_Node000033"><a xlink:title=" ">
<path fill="none" stroke="#63b8ff" d="M1173.08,-285.75C1181.09,-278.03 1192.96,-266.6 1202.62,-257.28"/>
<polygon fill="#63b8ff" stroke="#63b8ff" points="1205.31,-259.55 1210.09,-250.09 1200.46,-254.51 1205.31,-259.55"/>
</a>
</g>
</g>
<!-- Node34 -->
<g id="Node000034" class="node">
<title>Node34</title>
<g id="a_Node000034"><a xlink:href="_string_base_8h.html" target="_top" xlink:title=" ">
<polygon fill="white" stroke="#666666" points="1243,-195 1125,-195 1125,-176 1243,-176 1243,-195"/>
<text text-anchor="middle" x="1184" y="-183" font-family="Helvetica,sans-Serif" font-size="10.00">Kit/Text/StringBase.h</text>
</a>
</g>
</g>
<!-- Node33&#45;&gt;Node34 -->
<g id="edge56_Node000033_Node000034" class="edge">
<title>Node33&#45;&gt;Node34</title>
<g id="a_edge56_Node000033_Node000034"><a xlink:title=" ">
<path fill="none" stroke="#63b8ff" d="M1213.22,-230.75C1208.38,-223.42 1201.32,-212.73 1195.36,-203.7"/>
<polygon fill="#63b8ff" stroke="#63b8ff" points="1198.1,-201.5 1189.67,-195.09 1192.26,-205.36 1198.1,-201.5"/>
</a>
</g>
</g>
<!-- Node34&#45;&gt;Node11 -->
<g id="edge57_Node000034_Node000011" class="edge">
<title>Node34&#45;&gt;Node11</title>
<g id="a_edge57_Node000034_Node000011"><a xlink:title=" ">
<path fill="none" stroke="#63b8ff" d="M1141.26,-175.98C1094.96,-166.76 1021.02,-152.03 971.04,-142.07"/>
<polygon fill="#63b8ff" stroke="#63b8ff" points="971.56,-138.6 961.07,-140.08 970.2,-145.47 971.56,-138.6"/>
</a>
</g>
</g>
<!-- Node35&#45;&gt;Node14 -->
<g id="edge59_Node000035_Node000014" class="edge">
<title>Node35&#45;&gt;Node14</title>
<g id="a_edge59_Node000035_Node000014"><a xlink:title=" ">
<path fill="none" stroke="#63b8ff" d="M473.99,-287.84C383.54,-275.08 203.31,-244.02 166,-195 132.85,-151.44 75.68,-185.65 227,-55 254.43,-31.32 294.87,-20.15 324.14,-14.93"/>
<polygon fill="#63b8ff" stroke="#63b8ff" points="325.07,-18.33 334.38,-13.27 323.95,-11.42 325.07,-18.33"/>
</a>
</g>
</g>
<!-- Node36 -->
<g id="Node000036" class="node">
<title>Node36</title>
<g id="a_Node000036"><a xlink:title=" ">
<polygon fill="#e0e0e0" stroke="#999999" points="523.5,-250 454.5,-250 454.5,-231 523.5,-231 523.5,-250"/>
<text text-anchor="middle" x="489" y="-238" font-family="Helvetica,sans-Serif" font-size="10.00">type_traits</text>
</a>
</g>
</g>
<!-- Node35&#45;&gt;Node36 -->
<g id="edge60_Node000035_Node000036" class="edge">
<title>Node35&#45;&gt;Node36</title>
<g id="a_edge60_Node000035_Node000036"><a xlink:title=" ">
<path fill="none" stroke="#63b8ff" d="M519.89,-285.75C514.72,-278.34 507.15,-267.5 500.81,-258.41"/>
<polygon fill="#63b8ff" stroke="#63b8ff" points="503.59,-256.29 495,-250.09 497.85,-260.29 503.59,-256.29"/>
</a>
</g>
</g>
<!-- Node37 -->
<g id="Node000037" class="node">
<title>Node37</title>
<g id="a_Node000037"><a xlink:title=" ">
<polygon fill="#e0e0e0" stroke="#999999" points="586,-250 542,-250 542,-231 586,-231 586,-250"/>
<text text-anchor="middle" x="564" y="-238" font-family="Helvetica,sans-Serif" font-size="10.00">limits</text>
</a>
</g>
</g>
<!-- Node35&#45;&gt;Node37 -->
<g id="edge61_Node000035_Node000037" class="edge">
<title>Node35&#45;&gt;Node37</title>
<g id="a_edge61_Node000035_Node000037"><a xlink:title=" ">
<path fill="none" stroke="#63b8ff" d="M532.27,-285.75C537.59,-278.34 545.36,-267.5 551.88,-258.41"/>
<polygon fill="#63b8ff" stroke="#63b8ff" points="554.86,-260.26 557.84,-250.09 549.17,-256.18 554.86,-260.26"/>
</a>
</g>
</g>
</g>
</svg>
