<?xml version="1.0" encoding="UTF-8" standalone="no"?>
<!DOCTYPE svg PUBLIC "-//W3C//DTD SVG 1.1//EN"
 "http://www.w3.org/Graphics/SVG/1.1/DTD/svg11.dtd">
<!-- Generated by graphviz version 2.43.0 (0)
 -->
<!-- Title: Kit/Container/RingBufferMT.h Pages: 1 -->
<svg width="1248pt" height="423pt"
 viewBox="0.00 0.00 1248.13 423.00" xmlns="http://www.w3.org/2000/svg" xmlns:xlink="http://www.w3.org/1999/xlink">
<g id="graph0" class="graph" transform="scale(1 1) rotate(0) translate(4 419)">
<title>Kit/Container/RingBufferMT.h</title>
<!-- Node1 -->
<g id="Node000001" class="node">
<title>Node1</title>
<g id="a_Node000001"><a xlink:title=" ">
<polygon fill="#999999" stroke="#666666" points="1128.13,-415 970.13,-415 970.13,-396 1128.13,-396 1128.13,-415"/>
<text text-anchor="middle" x="1049.13" y="-403" font-family="Helvetica,sans-Serif" font-size="10.00">Kit/Container/RingBufferMT.h</text>
</a>
</g>
</g>
<!-- Node2 -->
<g id="Node000002" class="node">
<title>Node2</title>
<g id="a_Node000002"><a xlink:href="_ring_buffer_8h.html" target="_top" xlink:title=" ">
<polygon fill="white" stroke="#666666" points="1070.63,-360 927.63,-360 927.63,-341 1070.63,-341 1070.63,-360"/>
<text text-anchor="middle" x="999.13" y="-348" font-family="Helvetica,sans-Serif" font-size="10.00">Kit/Container/RingBuffer.h</text>
</a>
</g>
</g>
<!-- Node1&#45;&gt;Node2 -->
<g id="edge1_Node000001_Node000002" class="edge">
<title>Node1&#45;&gt;Node2</title>
<g id="a_edge1_Node000001_Node000002"><a xlink:title=" ">
<path fill="none" stroke="#63b8ff" d="M1040.88,-395.75C1033.67,-388.11 1023.02,-376.82 1014.29,-367.56"/>
<polygon fill="#63b8ff" stroke="#63b8ff" points="1016.65,-364.96 1007.24,-360.09 1011.55,-369.76 1016.65,-364.96"/>
</a>
</g>
</g>
<!-- Node24 -->
<g id="Node000024" class="node">
<title>Node24</title>
<g id="a_Node000024"><a xlink:href="_mutex_8h.html" target="_top" xlink:title=" ">
<polygon fill="white" stroke="#666666" points="1139.63,-140 1026.63,-140 1026.63,-121 1139.63,-121 1139.63,-140"/>
<text text-anchor="middle" x="1083.13" y="-128" font-family="Helvetica,sans-Serif" font-size="10.00">Kit/System/Mutex.h</text>
</a>
</g>
</g>
<!-- Node1&#45;&gt;Node24 -->
<g id="edge49_Node000001_Node000024" class="edge">
<title>Node1&#45;&gt;Node24</title>
<g id="a_edge49_Node000001_Node000024"><a xlink:title=" ">
<path fill="none" stroke="#63b8ff" d="M1056.3,-395.89C1070.12,-378.36 1099.13,-336.79 1099.13,-296.5 1099.13,-296.5 1099.13,-296.5 1099.13,-239.5 1099.13,-207.85 1092.33,-171.54 1087.59,-150.11"/>
<polygon fill="#63b8ff" stroke="#63b8ff" points="1090.95,-149.08 1085.29,-140.12 1084.12,-150.65 1090.95,-149.08"/>
</a>
</g>
</g>
<!-- Node3 -->
<g id="Node000003" class="node">
<title>Node3</title>
<g id="a_Node000003"><a xlink:title=" ">
<polygon fill="#e0e0e0" stroke="#999999" points="927.63,-140 854.63,-140 854.63,-121 927.63,-121 927.63,-140"/>
<text text-anchor="middle" x="891.13" y="-128" font-family="Helvetica,sans-Serif" font-size="10.00">kit_config.h</text>
</a>
</g>
</g>
<!-- Node2&#45;&gt;Node3 -->
<g id="edge2_Node000002_Node000003" class="edge">
<title>Node2&#45;&gt;Node3</title>
<g id="a_edge2_Node000002_Node000003"><a xlink:title=" ">
<path fill="none" stroke="#63b8ff" d="M994.9,-340.95C978.91,-308.67 921.97,-193.75 899.93,-149.26"/>
<polygon fill="#63b8ff" stroke="#63b8ff" points="903.03,-147.63 895.46,-140.22 896.76,-150.74 903.03,-147.63"/>
</a>
</g>
</g>
<!-- Node4 -->
<g id="Node000004" class="node">
<title>Node4</title>
<g id="a_Node000004"><a xlink:href="_assert_8h.html" target="_top" xlink:title=" ">
<polygon fill="white" stroke="#666666" points="1070.63,-195 957.63,-195 957.63,-176 1070.63,-176 1070.63,-195"/>
<text text-anchor="middle" x="1014.13" y="-183" font-family="Helvetica,sans-Serif" font-size="10.00">Kit/System/Assert.h</text>
</a>
</g>
</g>
<!-- Node2&#45;&gt;Node4 -->
<g id="edge3_Node000002_Node000004" class="edge">
<title>Node2&#45;&gt;Node4</title>
<g id="a_edge3_Node000002_Node000004"><a xlink:title=" ">
<path fill="none" stroke="#63b8ff" d="M999.94,-340.74C1002.28,-315.31 1009.11,-241.08 1012.37,-205.69"/>
<polygon fill="#63b8ff" stroke="#63b8ff" points="1015.89,-205.59 1013.32,-195.31 1008.92,-204.94 1015.89,-205.59"/>
</a>
</g>
</g>
<!-- Node6 -->
<g id="Node000006" class="node">
<title>Node6</title>
<g id="a_Node000006"><a xlink:href="_string_8h.html" target="_top" xlink:title=" ">
<polygon fill="white" stroke="#666666" points="566.63,-305 513.63,-305 513.63,-286 566.63,-286 566.63,-305"/>
<text text-anchor="middle" x="540.13" y="-293" font-family="Helvetica,sans-Serif" font-size="10.00">string.h</text>
</a>
</g>
</g>
<!-- Node2&#45;&gt;Node6 -->
<g id="edge6_Node000002_Node000006" class="edge">
<title>Node2&#45;&gt;Node6</title>
<g id="a_edge6_Node000002_Node000006"><a xlink:title=" ">
<path fill="none" stroke="#63b8ff" d="M927.42,-341.22C828.2,-329.76 652.74,-309.5 576.83,-300.74"/>
<polygon fill="#63b8ff" stroke="#63b8ff" points="577.13,-297.25 566.8,-299.58 576.33,-304.2 577.13,-297.25"/>
</a>
</g>
</g>
<!-- Node28 -->
<g id="Node000028" class="node">
<title>Node28</title>
<g id="a_Node000028"><a xlink:href="_ring_buffer_base_atomic_8h.html" target="_top" xlink:title=" ">
<polygon fill="white" stroke="#666666" points="1240.13,-85 1106.13,-85 1106.13,-55 1240.13,-55 1240.13,-85"/>
<text text-anchor="start" x="1114.13" y="-73" font-family="Helvetica,sans-Serif" font-size="10.00">Kit/Container/RingBuffer</text>
<text text-anchor="middle" x="1173.13" y="-62" font-family="Helvetica,sans-Serif" font-size="10.00">BaseAtomic.h</text>
</a>
</g>
</g>
<!-- Node2&#45;&gt;Node28 -->
<g id="edge45_Node000002_Node000028" class="edge">
<title>Node2&#45;&gt;Node28</title>
<g id="a_edge45_Node000002_Node000028"><a xlink:title=" ">
<path fill="none" stroke="#63b8ff" d="M1045.86,-340.9C1096.49,-328.57 1170.13,-300.49 1170.13,-241.5 1170.13,-241.5 1170.13,-241.5 1170.13,-184.5 1170.13,-153.84 1171.24,-118.54 1172.11,-95.55"/>
<polygon fill="#63b8ff" stroke="#63b8ff" points="1175.62,-95.46 1172.51,-85.33 1168.62,-95.19 1175.62,-95.46"/>
</a>
</g>
</g>
<!-- Node4&#45;&gt;Node3 -->
<g id="edge4_Node000004_Node000003" class="edge">
<title>Node4&#45;&gt;Node3</title>
<g id="a_edge4_Node000004_Node000003"><a xlink:title=" ">
<path fill="none" stroke="#63b8ff" d="M994.37,-175.98C974.41,-167.38 943.33,-153.99 920.49,-144.15"/>
<polygon fill="#63b8ff" stroke="#63b8ff" points="921.82,-140.91 911.26,-140.17 919.05,-147.34 921.82,-140.91"/>
</a>
</g>
</g>
<!-- Node5 -->
<g id="Node000005" class="node">
<title>Node5</title>
<g id="a_Node000005"><a xlink:title=" ">
<polygon fill="#e0e0e0" stroke="#999999" points="1049.63,-79.5 984.63,-79.5 984.63,-60.5 1049.63,-60.5 1049.63,-79.5"/>
<text text-anchor="middle" x="1017.13" y="-67.5" font-family="Helvetica,sans-Serif" font-size="10.00">kit_map.h</text>
</a>
</g>
</g>
<!-- Node4&#45;&gt;Node5 -->
<g id="edge5_Node000004_Node000005" class="edge">
<title>Node4&#45;&gt;Node5</title>
<g id="a_edge5_Node000004_Node000005"><a xlink:title=" ">
<path fill="none" stroke="#63b8ff" d="M1014.36,-175.97C1014.84,-157.73 1015.98,-114.57 1016.64,-89.64"/>
<polygon fill="#63b8ff" stroke="#63b8ff" points="1020.14,-89.72 1016.91,-79.63 1013.14,-89.53 1020.14,-89.72"/>
</a>
</g>
</g>
<!-- Node7 -->
<g id="Node000007" class="node">
<title>Node7</title>
<g id="a_Node000007"><a xlink:href="_model_point_base_8h.html" target="_top" xlink:title=" ">
<polygon fill="white" stroke="#666666" points="610.63,-250 469.63,-250 469.63,-231 610.63,-231 610.63,-250"/>
<text text-anchor="middle" x="540.13" y="-238" font-family="Helvetica,sans-Serif" font-size="10.00">Kit/Dm/ModelPointBase.h</text>
</a>
</g>
</g>
<!-- Node6&#45;&gt;Node7 -->
<g id="edge7_Node000006_Node000007" class="edge">
<title>Node6&#45;&gt;Node7</title>
<g id="a_edge7_Node000006_Node000007"><a xlink:title=" ">
<path fill="none" stroke="#63b8ff" d="M540.13,-285.75C540.13,-278.8 540.13,-268.85 540.13,-260.13"/>
<polygon fill="#63b8ff" stroke="#63b8ff" points="543.63,-260.09 540.13,-250.09 536.63,-260.09 543.63,-260.09"/>
</a>
</g>
</g>
<!-- Node27 -->
<g id="Node000027" class="node">
<title>Node27</title>
<g id="a_Node000027"><a xlink:href="_observer_8h.html" target="_top" xlink:title=" ">
<polygon fill="white" stroke="#666666" points="343.13,-250 237.13,-250 237.13,-231 343.13,-231 343.13,-250"/>
<text text-anchor="middle" x="290.13" y="-238" font-family="Helvetica,sans-Serif" font-size="10.00">Kit/Dm/Observer.h</text>
</a>
</g>
</g>
<!-- Node6&#45;&gt;Node27 -->
<g id="edge41_Node000006_Node000027" class="edge">
<title>Node6&#45;&gt;Node27</title>
<g id="a_edge41_Node000006_Node000027"><a xlink:title=" ">
<path fill="none" stroke="#63b8ff" d="M513.38,-288.83C472.17,-280.09 392.46,-263.19 340.29,-252.13"/>
<polygon fill="#63b8ff" stroke="#63b8ff" points="340.75,-248.65 330.24,-250 339.3,-255.5 340.75,-248.65"/>
</a>
</g>
</g>
<!-- Node8 -->
<g id="Node000008" class="node">
<title>Node8</title>
<g id="a_Node000008"><a xlink:href="_i_model_point_8h.html" target="_top" xlink:title=" ">
<polygon fill="white" stroke="#666666" points="549.13,-195 429.13,-195 429.13,-176 549.13,-176 549.13,-195"/>
<text text-anchor="middle" x="489.13" y="-183" font-family="Helvetica,sans-Serif" font-size="10.00">Kit/Dm/IModelPoint.h</text>
</a>
</g>
</g>
<!-- Node7&#45;&gt;Node8 -->
<g id="edge8_Node000007_Node000008" class="edge">
<title>Node7&#45;&gt;Node8</title>
<g id="a_edge8_Node000007_Node000008"><a xlink:title=" ">
<path fill="none" stroke="#63b8ff" d="M531.71,-230.75C524.36,-223.11 513.5,-211.82 504.59,-202.56"/>
<polygon fill="#63b8ff" stroke="#63b8ff" points="506.86,-199.87 497.4,-195.09 501.81,-204.72 506.86,-199.87"/>
</a>
</g>
</g>
<!-- Node13 -->
<g id="Node000013" class="node">
<title>Node13</title>
<g id="a_Node000013"><a xlink:title=" ">
<polygon fill="#e0e0e0" stroke="#999999" points="420.63,-19 367.63,-19 367.63,0 420.63,0 420.63,-19"/>
<text text-anchor="middle" x="394.13" y="-7" font-family="Helvetica,sans-Serif" font-size="10.00">stdint.h</text>
</a>
</g>
</g>
<!-- Node7&#45;&gt;Node13 -->
<g id="edge39_Node000007_Node000013" class="edge">
<title>Node7&#45;&gt;Node13</title>
<g id="a_edge39_Node000007_Node000013"><a xlink:title=" ">
<path fill="none" stroke="#63b8ff" d="M546.65,-230.73C561.17,-210.04 593.15,-157.17 570.13,-121 549.85,-89.13 525.51,-104.46 493.13,-85 463.08,-66.93 431.15,-41.66 411.93,-25.69"/>
<polygon fill="#63b8ff" stroke="#63b8ff" points="413.95,-22.82 404.04,-19.07 409.45,-28.18 413.95,-22.82"/>
</a>
</g>
</g>
<!-- Node14 -->
<g id="Node000014" class="node">
<title>Node14</title>
<g id="a_Node000014"><a xlink:title=" ">
<polygon fill="#e0e0e0" stroke="#999999" points="1043.63,-19 990.63,-19 990.63,0 1043.63,0 1043.63,-19"/>
<text text-anchor="middle" x="1017.13" y="-7" font-family="Helvetica,sans-Serif" font-size="10.00">stdlib.h</text>
</a>
</g>
</g>
<!-- Node7&#45;&gt;Node14 -->
<g id="edge40_Node000007_Node000014" class="edge">
<title>Node7&#45;&gt;Node14</title>
<g id="a_edge40_Node000007_Node000014"><a xlink:title=" ">
<path fill="none" stroke="#63b8ff" d="M610.77,-234.12C692.21,-227.18 820.57,-213.72 865.13,-195 901.94,-179.54 911.32,-171.26 936.13,-140 961.98,-107.45 951.89,-89.46 975.13,-55 982.16,-44.59 991.65,-34.3 999.83,-26.25"/>
<polygon fill="#63b8ff" stroke="#63b8ff" points="1002.33,-28.71 1007.16,-19.28 997.5,-23.64 1002.33,-28.71"/>
</a>
</g>
</g>
<!-- Node20 -->
<g id="Node000020" class="node">
<title>Node20</title>
<g id="a_Node000020"><a xlink:href="_i_observer_8h.html" target="_top" xlink:title=" ">
<polygon fill="white" stroke="#666666" points="285.63,-140 176.63,-140 176.63,-121 285.63,-121 285.63,-140"/>
<text text-anchor="middle" x="231.13" y="-128" font-family="Helvetica,sans-Serif" font-size="10.00">Kit/Dm/IObserver.h</text>
</a>
</g>
</g>
<!-- Node7&#45;&gt;Node20 -->
<g id="edge35_Node000007_Node000020" class="edge">
<title>Node7&#45;&gt;Node20</title>
<g id="a_edge35_Node000007_Node000020"><a xlink:title=" ">
<path fill="none" stroke="#63b8ff" d="M515.63,-230.94C460.75,-211.76 327.89,-165.32 265.1,-143.37"/>
<polygon fill="#63b8ff" stroke="#63b8ff" points="266.24,-140.06 255.64,-140.07 263.93,-146.67 266.24,-140.06"/>
</a>
</g>
</g>
<!-- Node23 -->
<g id="Node000023" class="node">
<title>Node23</title>
<g id="a_Node000023"><a xlink:href="_i_model_database_8h.html" target="_top" xlink:title=" ">
<polygon fill="white" stroke="#666666" points="856.13,-195 714.13,-195 714.13,-176 856.13,-176 856.13,-195"/>
<text text-anchor="middle" x="785.13" y="-183" font-family="Helvetica,sans-Serif" font-size="10.00">Kit/Dm/IModelDatabase.h</text>
</a>
</g>
</g>
<!-- Node7&#45;&gt;Node23 -->
<g id="edge28_Node000007_Node000023" class="edge">
<title>Node7&#45;&gt;Node23</title>
<g id="a_edge28_Node000007_Node000023"><a xlink:title=" ">
<path fill="none" stroke="#63b8ff" d="M579.5,-230.98C621.88,-221.82 689.39,-207.21 735.41,-197.26"/>
<polygon fill="#63b8ff" stroke="#63b8ff" points="736.43,-200.62 745.46,-195.08 734.95,-193.78 736.43,-200.62"/>
</a>
</g>
</g>
<!-- Node25 -->
<g id="Node000025" class="node">
<title>Node25</title>
<g id="a_Node000025"><a xlink:href="_d_list_8h.html" target="_top" xlink:title=" ">
<polygon fill="white" stroke="#666666" points="203.63,-195 86.63,-195 86.63,-176 203.63,-176 203.63,-195"/>
<text text-anchor="middle" x="145.13" y="-183" font-family="Helvetica,sans-Serif" font-size="10.00">Kit/Container/DList.h</text>
</a>
</g>
</g>
<!-- Node7&#45;&gt;Node25 -->
<g id="edge36_Node000007_Node000025" class="edge">
<title>Node7&#45;&gt;Node25</title>
<g id="a_edge36_Node000007_Node000025"><a xlink:title=" ">
<path fill="none" stroke="#63b8ff" d="M476.67,-230.98C404.81,-221.34 288.13,-205.69 214.08,-195.75"/>
<polygon fill="#63b8ff" stroke="#63b8ff" points="214.3,-192.25 203.93,-194.39 213.37,-199.19 214.3,-192.25"/>
</a>
</g>
</g>
<!-- Node8&#45;&gt;Node3 -->
<g id="edge9_Node000008_Node000003" class="edge">
<title>Node8&#45;&gt;Node3</title>
<g id="a_edge9_Node000008_Node000003"><a xlink:title=" ">
<path fill="none" stroke="#63b8ff" d="M549.44,-178.05C618.29,-170.44 734.51,-156.85 844.56,-140"/>
<polygon fill="#63b8ff" stroke="#63b8ff" points="845.16,-143.45 854.51,-138.47 844.09,-136.53 845.16,-143.45"/>
</a>
</g>
</g>
<!-- Node9 -->
<g id="Node000009" class="node">
<title>Node9</title>
<g id="a_Node000009"><a xlink:href="_keyed_item_8h.html" target="_top" xlink:title=" ">
<polygon fill="white" stroke="#666666" points="561.63,-140 416.63,-140 416.63,-121 561.63,-121 561.63,-140"/>
<text text-anchor="middle" x="489.13" y="-128" font-family="Helvetica,sans-Serif" font-size="10.00">Kit/Container/KeyedItem.h</text>
</a>
</g>
</g>
<!-- Node8&#45;&gt;Node9 -->
<g id="edge10_Node000008_Node000009" class="edge">
<title>Node8&#45;&gt;Node9</title>
<g id="a_edge10_Node000008_Node000009"><a xlink:title=" ">
<path fill="none" stroke="#63b8ff" d="M489.13,-175.75C489.13,-168.8 489.13,-158.85 489.13,-150.13"/>
<polygon fill="#63b8ff" stroke="#63b8ff" points="492.63,-150.09 489.13,-140.09 485.63,-150.09 492.63,-150.09"/>
</a>
</g>
</g>
<!-- Node8&#45;&gt;Node13 -->
<g id="edge27_Node000008_Node000013" class="edge">
<title>Node8&#45;&gt;Node13</title>
<g id="a_edge27_Node000008_Node000013"><a xlink:title=" ">
<path fill="none" stroke="#63b8ff" d="M433.93,-175.93C394.18,-168.49 345.48,-156.35 333.13,-140 305.32,-103.15 350,-51.58 376.61,-26.07"/>
<polygon fill="#63b8ff" stroke="#63b8ff" points="379.24,-28.4 384.18,-19.03 374.47,-23.27 379.24,-28.4"/>
</a>
</g>
</g>
<!-- Node16 -->
<g id="Node000016" class="node">
<title>Node16</title>
<g id="a_Node000016"><a xlink:href="_i_string_8h.html" target="_top" xlink:title=" ">
<polygon fill="white" stroke="#666666" points="715.63,-140 618.63,-140 618.63,-121 715.63,-121 715.63,-140"/>
<text text-anchor="middle" x="667.13" y="-128" font-family="Helvetica,sans-Serif" font-size="10.00">Kit/Text/IString.h</text>
</a>
</g>
</g>
<!-- Node8&#45;&gt;Node16 -->
<g id="edge17_Node000008_Node000016" class="edge">
<title>Node8&#45;&gt;Node16</title>
<g id="a_edge17_Node000008_Node000016"><a xlink:title=" ">
<path fill="none" stroke="#63b8ff" d="M517.73,-175.98C547.75,-167.05 595.11,-152.94 628.45,-143.02"/>
<polygon fill="#63b8ff" stroke="#63b8ff" points="629.73,-146.29 638.31,-140.08 627.73,-139.58 629.73,-146.29"/>
</a>
</g>
</g>
<!-- Node8&#45;&gt;Node20 -->
<g id="edge22_Node000008_Node000020" class="edge">
<title>Node8&#45;&gt;Node20</title>
<g id="a_edge22_Node000008_Node000020"><a xlink:title=" ">
<path fill="none" stroke="#63b8ff" d="M447.68,-175.98C402.87,-166.78 331.36,-152.09 282.89,-142.13"/>
<polygon fill="#63b8ff" stroke="#63b8ff" points="283.41,-138.67 272.91,-140.08 282,-145.52 283.41,-138.67"/>
</a>
</g>
</g>
<!-- Node21 -->
<g id="Node000021" class="node">
<title>Node21</title>
<g id="a_Node000021"><a xlink:href="_arduino_8h_source.html" target="_top" xlink:title=" ">
<polygon fill="white" stroke="#666666" points="836.63,-140 733.63,-140 733.63,-121 836.63,-121 836.63,-140"/>
<text text-anchor="middle" x="785.13" y="-128" font-family="Helvetica,sans-Serif" font-size="10.00">Kit/Json/Arduino.h</text>
</a>
</g>
</g>
<!-- Node8&#45;&gt;Node21 -->
<g id="edge25_Node000008_Node000021" class="edge">
<title>Node8&#45;&gt;Node21</title>
<g id="a_edge25_Node000008_Node000021"><a xlink:title=" ">
<path fill="none" stroke="#63b8ff" d="M536.69,-175.98C588.54,-166.7 671.52,-151.84 727.15,-141.88"/>
<polygon fill="#63b8ff" stroke="#63b8ff" points="727.98,-145.29 737.2,-140.08 726.74,-138.4 727.98,-145.29"/>
</a>
</g>
</g>
<!-- Node22 -->
<g id="Node000022" class="node">
<title>Node22</title>
<g id="a_Node000022"><a xlink:title=" ">
<polygon fill="#e0e0e0" stroke="#999999" points="398.13,-140 342.13,-140 342.13,-121 398.13,-121 398.13,-140"/>
<text text-anchor="middle" x="370.13" y="-128" font-family="Helvetica,sans-Serif" font-size="10.00">stddef.h</text>
</a>
</g>
</g>
<!-- Node8&#45;&gt;Node22 -->
<g id="edge26_Node000008_Node000022" class="edge">
<title>Node8&#45;&gt;Node22</title>
<g id="a_edge26_Node000008_Node000022"><a xlink:title=" ">
<path fill="none" stroke="#63b8ff" d="M470.01,-175.98C450.79,-167.42 420.9,-154.11 398.83,-144.28"/>
<polygon fill="#63b8ff" stroke="#63b8ff" points="400.16,-141.04 389.6,-140.17 397.31,-147.44 400.16,-141.04"/>
</a>
</g>
</g>
<!-- Node10 -->
<g id="Node000010" class="node">
<title>Node10</title>
<g id="a_Node000010"><a xlink:href="_list_item_8h.html" target="_top" xlink:title=" ">
<polygon fill="white" stroke="#666666" points="248.13,-79.5 116.13,-79.5 116.13,-60.5 248.13,-60.5 248.13,-79.5"/>
<text text-anchor="middle" x="182.13" y="-67.5" font-family="Helvetica,sans-Serif" font-size="10.00">Kit/Container/ListItem.h</text>
</a>
</g>
</g>
<!-- Node9&#45;&gt;Node10 -->
<g id="edge11_Node000009_Node000010" class="edge">
<title>Node9&#45;&gt;Node10</title>
<g id="a_edge11_Node000009_Node000010"><a xlink:title=" ">
<path fill="none" stroke="#63b8ff" d="M444.49,-120.99C389.47,-110.51 296,-92.7 236.75,-81.41"/>
<polygon fill="#63b8ff" stroke="#63b8ff" points="237.31,-77.95 226.83,-79.52 236,-84.83 237.31,-77.95"/>
</a>
</g>
</g>
<!-- Node12 -->
<g id="Node000012" class="node">
<title>Node12</title>
<g id="a_Node000012"><a xlink:href="_key_8h.html" target="_top" xlink:title=" ">
<polygon fill="white" stroke="#666666" points="611.63,-79.5 502.63,-79.5 502.63,-60.5 611.63,-60.5 611.63,-79.5"/>
<text text-anchor="middle" x="557.13" y="-67.5" font-family="Helvetica,sans-Serif" font-size="10.00">Kit/Container/Key.h</text>
</a>
</g>
</g>
<!-- Node9&#45;&gt;Node12 -->
<g id="edge13_Node000009_Node000012" class="edge">
<title>Node9&#45;&gt;Node12</title>
<g id="a_edge13_Node000009_Node000012"><a xlink:title=" ">
<path fill="none" stroke="#63b8ff" d="M499.17,-120.87C509.71,-111.8 526.52,-97.34 539.33,-86.32"/>
<polygon fill="#63b8ff" stroke="#63b8ff" points="541.76,-88.84 547.06,-79.67 537.2,-83.54 541.76,-88.84"/>
</a>
</g>
</g>
<!-- Node11 -->
<g id="Node000011" class="node">
<title>Node11</title>
<g id="a_Node000011"><a xlink:href="_item_8h.html" target="_top" xlink:title=" ">
<polygon fill="white" stroke="#666666" points="239.63,-19 124.63,-19 124.63,0 239.63,0 239.63,-19"/>
<text text-anchor="middle" x="182.13" y="-7" font-family="Helvetica,sans-Serif" font-size="10.00">Kit/Container/Item.h</text>
</a>
</g>
</g>
<!-- Node10&#45;&gt;Node11 -->
<g id="edge12_Node000010_Node000011" class="edge">
<title>Node10&#45;&gt;Node11</title>
<g id="a_edge12_Node000010_Node000011"><a xlink:title=" ">
<path fill="none" stroke="#63b8ff" d="M182.13,-60.37C182.13,-52.25 182.13,-39.81 182.13,-29.39"/>
<polygon fill="#63b8ff" stroke="#63b8ff" points="185.63,-29.17 182.13,-19.17 178.63,-29.17 185.63,-29.17"/>
</a>
</g>
</g>
<!-- Node12&#45;&gt;Node13 -->
<g id="edge14_Node000012_Node000013" class="edge">
<title>Node12&#45;&gt;Node13</title>
<g id="a_edge14_Node000012_Node000013"><a xlink:title=" ">
<path fill="none" stroke="#63b8ff" d="M533.43,-60.49C505.55,-50.49 459.06,-33.8 427.53,-22.49"/>
<polygon fill="#63b8ff" stroke="#63b8ff" points="428.46,-19.1 417.86,-19.02 426.09,-25.69 428.46,-19.1"/>
</a>
</g>
</g>
<!-- Node12&#45;&gt;Node14 -->
<g id="edge15_Node000012_Node000014" class="edge">
<title>Node12&#45;&gt;Node14</title>
<g id="a_edge15_Node000012_Node000014"><a xlink:title=" ">
<path fill="none" stroke="#63b8ff" d="M592.89,-60.49C602.06,-58.5 611.93,-56.52 621.13,-55 752.61,-33.29 910.42,-19.06 980.5,-13.34"/>
<polygon fill="#63b8ff" stroke="#63b8ff" points="980.9,-16.82 990.59,-12.53 980.34,-9.84 980.9,-16.82"/>
</a>
</g>
</g>
<!-- Node15 -->
<g id="Node000015" class="node">
<title>Node15</title>
<g id="a_Node000015"><a xlink:title=" ">
<polygon fill="#e0e0e0" stroke="#999999" points="583.63,-19 530.63,-19 530.63,0 583.63,0 583.63,-19"/>
<text text-anchor="middle" x="557.13" y="-7" font-family="Helvetica,sans-Serif" font-size="10.00">limits.h</text>
</a>
</g>
</g>
<!-- Node12&#45;&gt;Node15 -->
<g id="edge16_Node000012_Node000015" class="edge">
<title>Node12&#45;&gt;Node15</title>
<g id="a_edge16_Node000012_Node000015"><a xlink:title=" ">
<path fill="none" stroke="#63b8ff" d="M557.13,-60.37C557.13,-52.25 557.13,-39.81 557.13,-29.39"/>
<polygon fill="#63b8ff" stroke="#63b8ff" points="560.63,-29.17 557.13,-19.17 553.63,-29.17 560.63,-29.17"/>
</a>
</g>
</g>
<!-- Node16&#45;&gt;Node12 -->
<g id="edge18_Node000016_Node000012" class="edge">
<title>Node16&#45;&gt;Node12</title>
<g id="a_edge18_Node000016_Node000012"><a xlink:title=" ">
<path fill="none" stroke="#63b8ff" d="M650.9,-120.87C632.87,-111.28 603.52,-95.67 582.46,-84.47"/>
<polygon fill="#63b8ff" stroke="#63b8ff" points="583.9,-81.27 573.43,-79.67 580.62,-87.45 583.9,-81.27"/>
</a>
</g>
</g>
<!-- Node17 -->
<g id="Node000017" class="node">
<title>Node17</title>
<g id="a_Node000017"><a xlink:href="printfchecker_8h.html" target="_top" xlink:title="This file contains macro that enables the GCC (and Clang) compiler to validate printf flags with thei...">
<polygon fill="white" stroke="#666666" points="927.63,-79.5 782.63,-79.5 782.63,-60.5 927.63,-60.5 927.63,-79.5"/>
<text text-anchor="middle" x="855.13" y="-67.5" font-family="Helvetica,sans-Serif" font-size="10.00">Kit/System/printfchecker.h</text>
</a>
</g>
</g>
<!-- Node16&#45;&gt;Node17 -->
<g id="edge19_Node000016_Node000017" class="edge">
<title>Node16&#45;&gt;Node17</title>
<g id="a_edge19_Node000016_Node000017"><a xlink:title=" ">
<path fill="none" stroke="#63b8ff" d="M694.47,-120.99C727.05,-110.86 781.64,-93.87 818.02,-82.55"/>
<polygon fill="#63b8ff" stroke="#63b8ff" points="819.26,-85.83 827.76,-79.52 817.18,-79.15 819.26,-85.83"/>
</a>
</g>
</g>
<!-- Node18 -->
<g id="Node000018" class="node">
<title>Node18</title>
<g id="a_Node000018"><a xlink:title=" ">
<polygon fill="#e0e0e0" stroke="#999999" points="686.13,-79.5 630.13,-79.5 630.13,-60.5 686.13,-60.5 686.13,-79.5"/>
<text text-anchor="middle" x="658.13" y="-67.5" font-family="Helvetica,sans-Serif" font-size="10.00">stdarg.h</text>
</a>
</g>
</g>
<!-- Node16&#45;&gt;Node18 -->
<g id="edge20_Node000016_Node000018" class="edge">
<title>Node16&#45;&gt;Node18</title>
<g id="a_edge20_Node000016_Node000018"><a xlink:title=" ">
<path fill="none" stroke="#63b8ff" d="M665.81,-120.87C664.54,-112.66 662.6,-100.04 660.99,-89.55"/>
<polygon fill="#63b8ff" stroke="#63b8ff" points="664.45,-89.02 659.47,-79.67 657.53,-90.08 664.45,-89.02"/>
</a>
</g>
</g>
<!-- Node19 -->
<g id="Node000019" class="node">
<title>Node19</title>
<g id="a_Node000019"><a xlink:title=" ">
<polygon fill="#e0e0e0" stroke="#999999" points="764.13,-79.5 704.13,-79.5 704.13,-60.5 764.13,-60.5 764.13,-79.5"/>
<text text-anchor="middle" x="734.13" y="-67.5" font-family="Helvetica,sans-Serif" font-size="10.00">iostream</text>
</a>
</g>
</g>
<!-- Node16&#45;&gt;Node19 -->
<g id="edge21_Node000016_Node000019" class="edge">
<title>Node16&#45;&gt;Node19</title>
<g id="a_edge21_Node000016_Node000019"><a xlink:title=" ">
<path fill="none" stroke="#63b8ff" d="M677.02,-120.87C687.41,-111.8 703.97,-97.34 716.59,-86.32"/>
<polygon fill="#63b8ff" stroke="#63b8ff" points="718.98,-88.88 724.21,-79.67 714.37,-83.61 718.98,-88.88"/>
</a>
</g>
</g>
<!-- Node20&#45;&gt;Node10 -->
<g id="edge23_Node000020_Node000010" class="edge">
<title>Node20&#45;&gt;Node10</title>
<g id="a_edge23_Node000020_Node000010"><a xlink:title=" ">
<path fill="none" stroke="#63b8ff" d="M223.9,-120.87C216.59,-112.14 205.11,-98.43 196.03,-87.59"/>
<polygon fill="#63b8ff" stroke="#63b8ff" points="198.5,-85.09 189.39,-79.67 193.13,-89.58 198.5,-85.09"/>
</a>
</g>
</g>
<!-- Node20&#45;&gt;Node13 -->
<g id="edge24_Node000020_Node000013" class="edge">
<title>Node20&#45;&gt;Node13</title>
<g id="a_edge24_Node000020_Node000013"><a xlink:title=" ">
<path fill="none" stroke="#63b8ff" d="M237.5,-120.67C248.73,-105.59 273.41,-74.6 300.13,-55 318.48,-41.54 341.55,-30.55 360.24,-22.86"/>
<polygon fill="#63b8ff" stroke="#63b8ff" points="361.57,-26.09 369.56,-19.14 358.98,-19.59 361.57,-26.09"/>
</a>
</g>
</g>
<!-- Node23&#45;&gt;Node3 -->
<g id="edge29_Node000023_Node000003" class="edge">
<title>Node23&#45;&gt;Node3</title>
<g id="a_edge29_Node000023_Node000003"><a xlink:title=" ">
<path fill="none" stroke="#63b8ff" d="M802.16,-175.98C819.06,-167.54 845.2,-154.47 864.78,-144.68"/>
<polygon fill="#63b8ff" stroke="#63b8ff" points="866.41,-147.77 873.79,-140.17 863.28,-141.51 866.41,-147.77"/>
</a>
</g>
</g>
<!-- Node23&#45;&gt;Node16 -->
<g id="edge30_Node000023_Node000016" class="edge">
<title>Node23&#45;&gt;Node16</title>
<g id="a_edge30_Node000023_Node000016"><a xlink:title=" ">
<path fill="none" stroke="#63b8ff" d="M766.18,-175.98C747.11,-167.42 717.47,-154.11 695.59,-144.28"/>
<polygon fill="#63b8ff" stroke="#63b8ff" points="696.99,-141.07 686.44,-140.17 694.13,-147.46 696.99,-141.07"/>
</a>
</g>
</g>
<!-- Node23&#45;&gt;Node21 -->
<g id="edge34_Node000023_Node000021" class="edge">
<title>Node23&#45;&gt;Node21</title>
<g id="a_edge34_Node000023_Node000021"><a xlink:title=" ">
<path fill="none" stroke="#63b8ff" d="M785.13,-175.75C785.13,-168.8 785.13,-158.85 785.13,-150.13"/>
<polygon fill="#63b8ff" stroke="#63b8ff" points="788.63,-150.09 785.13,-140.09 781.63,-150.09 788.63,-150.09"/>
</a>
</g>
</g>
<!-- Node23&#45;&gt;Node24 -->
<g id="edge31_Node000023_Node000024" class="edge">
<title>Node23&#45;&gt;Node24</title>
<g id="a_edge31_Node000023_Node000024"><a xlink:title=" ">
<path fill="none" stroke="#63b8ff" d="M833.01,-175.98C885.21,-166.7 968.75,-151.84 1024.76,-141.88"/>
<polygon fill="#63b8ff" stroke="#63b8ff" points="1025.65,-145.28 1034.88,-140.08 1024.42,-138.39 1025.65,-145.28"/>
</a>
</g>
</g>
<!-- Node24&#45;&gt;Node5 -->
<g id="edge33_Node000024_Node000005" class="edge">
<title>Node24&#45;&gt;Node5</title>
<g id="a_edge33_Node000024_Node000005"><a xlink:title=" ">
<path fill="none" stroke="#63b8ff" d="M1073.4,-120.87C1063.16,-111.8 1046.85,-97.34 1034.42,-86.32"/>
<polygon fill="#63b8ff" stroke="#63b8ff" points="1036.72,-83.68 1026.91,-79.67 1032.07,-88.92 1036.72,-83.68"/>
</a>
</g>
</g>
<!-- Node24&#45;&gt;Node14 -->
<g id="edge32_Node000024_Node000014" class="edge">
<title>Node24&#45;&gt;Node14</title>
<g id="a_edge32_Node000024_Node000014"><a xlink:title=" ">
<path fill="none" stroke="#63b8ff" d="M1081.45,-120.73C1078.4,-106.27 1071.05,-76.84 1058.13,-55 1051.88,-44.42 1042.78,-34.22 1034.74,-26.25"/>
<polygon fill="#63b8ff" stroke="#63b8ff" points="1036.86,-23.45 1027.2,-19.11 1032.05,-28.53 1036.86,-23.45"/>
</a>
</g>
</g>
<!-- Node26 -->
<g id="Node000026" class="node">
<title>Node26</title>
<g id="a_Node000026"><a xlink:href="_d_list_base_8h.html" target="_top" xlink:title=" ">
<polygon fill="white" stroke="#666666" points="158.63,-140 17.63,-140 17.63,-121 158.63,-121 158.63,-140"/>
<text text-anchor="middle" x="88.13" y="-128" font-family="Helvetica,sans-Serif" font-size="10.00">Kit/Container/DListBase.h</text>
</a>
</g>
</g>
<!-- Node25&#45;&gt;Node26 -->
<g id="edge37_Node000025_Node000026" class="edge">
<title>Node25&#45;&gt;Node26</title>
<g id="a_edge37_Node000025_Node000026"><a xlink:title=" ">
<path fill="none" stroke="#63b8ff" d="M135.98,-175.98C127.63,-168.23 115.1,-156.58 104.96,-147.14"/>
<polygon fill="#63b8ff" stroke="#63b8ff" points="107.17,-144.42 97.46,-140.17 102.4,-149.54 107.17,-144.42"/>
</a>
</g>
</g>
<!-- Node26&#45;&gt;Node10 -->
<g id="edge38_Node000026_Node000010" class="edge">
<title>Node26&#45;&gt;Node10</title>
<g id="a_edge38_Node000026_Node000010"><a xlink:title=" ">
<path fill="none" stroke="#63b8ff" d="M102,-120.87C117.14,-111.45 141.6,-96.23 159.52,-85.08"/>
<polygon fill="#63b8ff" stroke="#63b8ff" points="161.57,-87.92 168.21,-79.67 157.87,-81.98 161.57,-87.92"/>
</a>
</g>
</g>
<!-- Node27&#45;&gt;Node8 -->
<g id="edge43_Node000027_Node000008" class="edge">
<title>Node27&#45;&gt;Node8</title>
<g id="a_edge43_Node000027_Node000008"><a xlink:title=" ">
<path fill="none" stroke="#63b8ff" d="M322.11,-230.98C355.95,-221.97 409.53,-207.7 446.85,-197.76"/>
<polygon fill="#63b8ff" stroke="#63b8ff" points="448.15,-201.04 456.91,-195.08 446.35,-194.27 448.15,-201.04"/>
</a>
</g>
</g>
<!-- Node27&#45;&gt;Node13 -->
<g id="edge44_Node000027_Node000013" class="edge">
<title>Node27&#45;&gt;Node13</title>
<g id="a_edge44_Node000027_Node000013"><a xlink:title=" ">
<path fill="none" stroke="#63b8ff" d="M237.05,-237.84C142.7,-232.6 -39.98,-210.9 8.13,-121 33.09,-74.38 57.85,-74.17 107.13,-55 192.56,-21.78 301.38,-13.3 357.3,-11.17"/>
<polygon fill="#63b8ff" stroke="#63b8ff" points="357.55,-14.67 367.43,-10.84 357.32,-7.67 357.55,-14.67"/>
</a>
</g>
</g>
<!-- Node27&#45;&gt;Node20 -->
<g id="edge42_Node000027_Node000020" class="edge">
<title>Node27&#45;&gt;Node20</title>
<g id="a_edge42_Node000027_Node000020"><a xlink:title=" ">
<path fill="none" stroke="#63b8ff" d="M285.31,-230.66C275.58,-212.85 253.46,-172.37 240.7,-149.01"/>
<polygon fill="#63b8ff" stroke="#63b8ff" points="243.73,-147.26 235.86,-140.16 237.59,-150.61 243.73,-147.26"/>
</a>
</g>
</g>
<!-- Node28&#45;&gt;Node13 -->
<g id="edge46_Node000028_Node000013" class="edge">
<title>Node28&#45;&gt;Node13</title>
<g id="a_edge46_Node000028_Node000013"><a xlink:title=" ">
<path fill="none" stroke="#63b8ff" d="M1106.01,-60.21C1090.31,-58.32 1073.65,-56.46 1058.13,-55 1056.16,-54.81 570.36,-22.29 431.06,-12.97"/>
<polygon fill="#63b8ff" stroke="#63b8ff" points="431.11,-9.47 420.9,-12.29 430.64,-16.45 431.11,-9.47"/>
</a>
</g>
</g>
<!-- Node28&#45;&gt;Node14 -->
<g id="edge47_Node000028_Node000014" class="edge">
<title>Node28&#45;&gt;Node14</title>
<g id="a_edge47_Node000028_Node000014"><a xlink:title=" ">
<path fill="none" stroke="#63b8ff" d="M1135.77,-54.99C1109.51,-45.14 1074.72,-32.1 1049.62,-22.68"/>
<polygon fill="#63b8ff" stroke="#63b8ff" points="1050.76,-19.37 1040.17,-19.14 1048.31,-25.93 1050.76,-19.37"/>
</a>
</g>
</g>
<!-- Node29 -->
<g id="Node000029" class="node">
<title>Node29</title>
<g id="a_Node000029"><a xlink:title=" ">
<polygon fill="#e0e0e0" stroke="#999999" points="1198.13,-19 1148.13,-19 1148.13,0 1198.13,0 1198.13,-19"/>
<text text-anchor="middle" x="1173.13" y="-7" font-family="Helvetica,sans-Serif" font-size="10.00">atomic</text>
</a>
</g>
</g>
<!-- Node28&#45;&gt;Node29 -->
<g id="edge48_Node000028_Node000029" class="edge">
<title>Node28&#45;&gt;Node29</title>
<g id="a_edge48_Node000028_Node000029"><a xlink:title=" ">
<path fill="none" stroke="#63b8ff" d="M1173.13,-54.84C1173.13,-47.21 1173.13,-37.7 1173.13,-29.45"/>
<polygon fill="#63b8ff" stroke="#63b8ff" points="1176.63,-29.27 1173.13,-19.27 1169.63,-29.27 1176.63,-29.27"/>
</a>
</g>
</g>
</g>
</svg>
