<?xml version="1.0" encoding="UTF-8" standalone="no"?>
<!DOCTYPE svg PUBLIC "-//W3C//DTD SVG 1.1//EN"
 "http://www.w3.org/Graphics/SVG/1.1/DTD/svg11.dtd">
<!-- Generated by graphviz version 2.43.0 (0)
 -->
<!-- Title: Kit/Container/RingBufferBaseAtomic.h Pages: 1 -->
<svg width="1463pt" height="302pt"
 viewBox="0.00 0.00 1462.50 302.00" xmlns="http://www.w3.org/2000/svg" xmlns:xlink="http://www.w3.org/1999/xlink">
<g id="graph0" class="graph" transform="scale(1 1) rotate(0) translate(4 298)">
<title>Kit/Container/RingBufferBaseAtomic.h</title>
<!-- Node1 -->
<g id="Node000001" class="node">
<title>Node1</title>
<g id="a_Node000001"><a xlink:title=" ">
<polygon fill="#999999" stroke="#666666" points="872.5,-294 738.5,-294 738.5,-264 872.5,-264 872.5,-294"/>
<text text-anchor="start" x="746.5" y="-282" font-family="Helvetica,sans-Serif" font-size="10.00">Kit/Container/RingBuffer</text>
<text text-anchor="middle" x="805.5" y="-271" font-family="Helvetica,sans-Serif" font-size="10.00">BaseAtomic.h</text>
</a>
</g>
</g>
<!-- Node2 -->
<g id="Node000002" class="node">
<title>Node2</title>
<g id="a_Node000002"><a xlink:href="_ring_buffer_8h.html" target="_top" xlink:title=" ">
<polygon fill="white" stroke="#666666" points="877,-228 734,-228 734,-209 877,-209 877,-228"/>
<text text-anchor="middle" x="805.5" y="-216" font-family="Helvetica,sans-Serif" font-size="10.00">Kit/Container/RingBuffer.h</text>
</a>
</g>
</g>
<!-- Node1&#45;&gt;Node2 -->
<g id="edge1_Node000001_Node000002" class="edge">
<title>Node1&#45;&gt;Node2</title>
<g id="a_edge1_Node000001_Node000002"><a xlink:title=" ">
<path fill="none" stroke="#63b8ff" d="M805.5,-253.75C805.5,-244.72 805.5,-235.03 805.5,-228.27"/>
<polygon fill="#63b8ff" stroke="#63b8ff" points="802,-253.84 805.5,-263.84 809,-253.84 802,-253.84"/>
</a>
</g>
</g>
<!-- Node3 -->
<g id="Node000003" class="node">
<title>Node3</title>
<g id="a_Node000003"><a xlink:href="_ring_buffer_allocate_8h.html" target="_top" xlink:title=" ">
<polygon fill="white" stroke="#666666" points="280.5,-173 146.5,-173 146.5,-143 280.5,-143 280.5,-173"/>
<text text-anchor="start" x="154.5" y="-161" font-family="Helvetica,sans-Serif" font-size="10.00">Kit/Container/RingBuffer</text>
<text text-anchor="middle" x="213.5" y="-150" font-family="Helvetica,sans-Serif" font-size="10.00">Allocate.h</text>
</a>
</g>
</g>
<!-- Node2&#45;&gt;Node3 -->
<g id="edge2_Node000002_Node000003" class="edge">
<title>Node2&#45;&gt;Node3</title>
<g id="a_edge2_Node000002_Node000003"><a xlink:title=" ">
<path fill="none" stroke="#63b8ff" d="M723.73,-209.42C605.68,-197.75 389.73,-176.41 280.53,-165.62"/>
<polygon fill="#63b8ff" stroke="#63b8ff" points="723.5,-212.91 733.8,-210.41 724.19,-205.95 723.5,-212.91"/>
</a>
</g>
</g>
<!-- Node5 -->
<g id="Node000005" class="node">
<title>Node5</title>
<g id="a_Node000005"><a xlink:href="_ring_buffer_m_p_8h.html" target="_top" xlink:title=" ">
<polygon fill="white" stroke="#666666" points="796,-167.5 639,-167.5 639,-148.5 796,-148.5 796,-167.5"/>
<text text-anchor="middle" x="717.5" y="-155.5" font-family="Helvetica,sans-Serif" font-size="10.00">Kit/Container/RingBufferMP.h</text>
</a>
</g>
</g>
<!-- Node2&#45;&gt;Node5 -->
<g id="edge4_Node000002_Node000005" class="edge">
<title>Node2&#45;&gt;Node5</title>
<g id="a_edge4_Node000002_Node000005"><a xlink:title=" ">
<path fill="none" stroke="#63b8ff" d="M783.93,-203.16C767.21,-192.05 744.6,-177.01 730.54,-167.67"/>
<polygon fill="#63b8ff" stroke="#63b8ff" points="782.25,-206.25 792.52,-208.87 786.13,-200.42 782.25,-206.25"/>
</a>
</g>
</g>
<!-- Node13 -->
<g id="Node000013" class="node">
<title>Node13</title>
<g id="a_Node000013"><a xlink:href="_ring_buffer_m_t_8h.html" target="_top" xlink:title=" ">
<polygon fill="white" stroke="#666666" points="972.5,-167.5 814.5,-167.5 814.5,-148.5 972.5,-148.5 972.5,-167.5"/>
<text text-anchor="middle" x="893.5" y="-155.5" font-family="Helvetica,sans-Serif" font-size="10.00">Kit/Container/RingBufferMT.h</text>
</a>
</g>
</g>
<!-- Node2&#45;&gt;Node13 -->
<g id="edge12_Node000002_Node000013" class="edge">
<title>Node2&#45;&gt;Node13</title>
<g id="a_edge12_Node000002_Node000013"><a xlink:title=" ">
<path fill="none" stroke="#63b8ff" d="M827.07,-203.16C843.79,-192.05 866.4,-177.01 880.46,-167.67"/>
<polygon fill="#63b8ff" stroke="#63b8ff" points="824.87,-200.42 818.48,-208.87 828.75,-206.25 824.87,-200.42"/>
</a>
</g>
</g>
<!-- Node15 -->
<g id="Node000015" class="node">
<title>Node15</title>
<g id="a_Node000015"><a xlink:href="_ram_2_input_output_8h.html" target="_top" xlink:title=" ">
<polygon fill="white" stroke="#666666" points="559,-167.5 422,-167.5 422,-148.5 559,-148.5 559,-167.5"/>
<text text-anchor="middle" x="490.5" y="-155.5" font-family="Helvetica,sans-Serif" font-size="10.00">Kit/Io/Ram/InputOutput.h</text>
</a>
</g>
</g>
<!-- Node2&#45;&gt;Node15 -->
<g id="edge14_Node000002_Node000015" class="edge">
<title>Node2&#45;&gt;Node15</title>
<g id="a_edge14_Node000002_Node000015"><a xlink:title=" ">
<path fill="none" stroke="#63b8ff" d="M749.52,-207.1C688.75,-195.82 592.84,-178.01 536.36,-167.52"/>
<polygon fill="#63b8ff" stroke="#63b8ff" points="749.23,-210.61 759.7,-208.99 750.5,-203.73 749.23,-210.61"/>
</a>
</g>
</g>
<!-- Node16 -->
<g id="Node000016" class="node">
<title>Node16</title>
<g id="a_Node000016"><a xlink:href="_serial_2_r_pi_2_r_p2xxx_2_uart_2_input_output_8h.html" target="_top" xlink:title=" ">
<polygon fill="white" stroke="#666666" points="1122,-173 991,-173 991,-143 1122,-143 1122,-173"/>
<text text-anchor="start" x="999" y="-161" font-family="Helvetica,sans-Serif" font-size="10.00">Kit/Io/Serial/RPi/RP2xxx</text>
<text text-anchor="middle" x="1056.5" y="-150" font-family="Helvetica,sans-Serif" font-size="10.00">/Uart/InputOutput.h</text>
</a>
</g>
</g>
<!-- Node2&#45;&gt;Node16 -->
<g id="edge16_Node000002_Node000016" class="edge">
<title>Node2&#45;&gt;Node16</title>
<g id="a_edge16_Node000002_Node000016"><a xlink:title=" ">
<path fill="none" stroke="#63b8ff" d="M851.91,-206.68C892.54,-197.21 951.85,-183.39 996.16,-173.06"/>
<polygon fill="#63b8ff" stroke="#63b8ff" points="850.94,-203.32 842,-208.99 852.53,-210.13 850.94,-203.32"/>
</a>
</g>
</g>
<!-- Node17 -->
<g id="Node000017" class="node">
<title>Node17</title>
<g id="a_Node000017"><a xlink:href="_stream_driver_8h.html" target="_top" xlink:title=" ">
<polygon fill="white" stroke="#666666" points="1390.5,-173 1266.5,-173 1266.5,-143 1390.5,-143 1390.5,-173"/>
<text text-anchor="start" x="1274.5" y="-161" font-family="Helvetica,sans-Serif" font-size="10.00">Kit/Io/Serial/ST/M32F4</text>
<text text-anchor="middle" x="1328.5" y="-150" font-family="Helvetica,sans-Serif" font-size="10.00">/StreamDriver.h</text>
</a>
</g>
</g>
<!-- Node2&#45;&gt;Node17 -->
<g id="edge17_Node000002_Node000017" class="edge">
<title>Node2&#45;&gt;Node17</title>
<g id="a_edge17_Node000002_Node000017"><a xlink:title=" ">
<path fill="none" stroke="#63b8ff" d="M887.35,-208.34C992.27,-196.61 1171.87,-176.52 1266.3,-165.96"/>
<polygon fill="#63b8ff" stroke="#63b8ff" points="886.67,-204.9 877.12,-209.49 887.45,-211.86 886.67,-204.9"/>
</a>
</g>
</g>
<!-- Node4 -->
<g id="Node000004" class="node">
<title>Node4</title>
<g id="a_Node000004"><a xlink:href="_input_output_allocate_8h.html" target="_top" xlink:title=" ">
<polygon fill="white" stroke="#666666" points="177,-96 0,-96 0,-77 177,-77 177,-96"/>
<text text-anchor="middle" x="88.5" y="-84" font-family="Helvetica,sans-Serif" font-size="10.00">Kit/Io/Ram/InputOutputAllocate.h</text>
</a>
</g>
</g>
<!-- Node3&#45;&gt;Node4 -->
<g id="edge3_Node000003_Node000004" class="edge">
<title>Node3&#45;&gt;Node4</title>
<g id="a_edge3_Node000003_Node000004"><a xlink:title=" ">
<path fill="none" stroke="#63b8ff" d="M179.17,-137.92C154.56,-124.23 122.57,-106.44 103.91,-96.07"/>
<polygon fill="#63b8ff" stroke="#63b8ff" points="177.76,-141.14 188.2,-142.94 181.17,-135.02 177.76,-141.14"/>
</a>
</g>
</g>
<!-- Node6 -->
<g id="Node000006" class="node">
<title>Node6</title>
<g id="a_Node000006"><a xlink:href="_led_server_8h.html" target="_top" xlink:title=" ">
<polygon fill="white" stroke="#666666" points="376,-107 195,-107 195,-66 376,-66 376,-107"/>
<text text-anchor="start" x="203" y="-95" font-family="Helvetica,sans-Serif" font-size="10.00">/home/runner/work/kit.core</text>
<text text-anchor="start" x="203" y="-84" font-family="Helvetica,sans-Serif" font-size="10.00">/kit.core/projects/examples</text>
<text text-anchor="middle" x="285.5" y="-73" font-family="Helvetica,sans-Serif" font-size="10.00">/Container/RingBuffer/LedServer.h</text>
</a>
</g>
</g>
<!-- Node5&#45;&gt;Node6 -->
<g id="edge5_Node000005_Node000006" class="edge">
<title>Node5&#45;&gt;Node6</title>
<g id="a_edge5_Node000005_Node000006"><a xlink:title=" ">
<path fill="none" stroke="#63b8ff" d="M644.96,-147.08C577.39,-137.6 473.94,-122.52 384.5,-107 381.74,-106.52 378.94,-106.03 376.11,-105.52"/>
<polygon fill="#63b8ff" stroke="#63b8ff" points="644.68,-150.57 655.07,-148.49 645.65,-143.64 644.68,-150.57"/>
</a>
</g>
</g>
<!-- Node7 -->
<g id="Node000007" class="node">
<title>Node7</title>
<g id="a_Node000007"><a xlink:href="_producer_8h.html" target="_top" xlink:title=" ">
<polygon fill="white" stroke="#666666" points="569,-107 394,-107 394,-66 569,-66 569,-107"/>
<text text-anchor="start" x="402" y="-95" font-family="Helvetica,sans-Serif" font-size="10.00">/home/runner/work/kit.core</text>
<text text-anchor="start" x="402" y="-84" font-family="Helvetica,sans-Serif" font-size="10.00">/kit.core/projects/examples</text>
<text text-anchor="middle" x="481.5" y="-73" font-family="Helvetica,sans-Serif" font-size="10.00">/Container/RingBuffer/Producer.h</text>
</a>
</g>
</g>
<!-- Node5&#45;&gt;Node7 -->
<g id="edge6_Node000005_Node000007" class="edge">
<title>Node5&#45;&gt;Node7</title>
<g id="a_edge6_Node000005_Node000007"><a xlink:title=" ">
<path fill="none" stroke="#63b8ff" d="M678.6,-145.54C643.13,-135.1 589.98,-119.45 547.81,-107.03"/>
<polygon fill="#63b8ff" stroke="#63b8ff" points="677.98,-149.01 688.56,-148.48 679.96,-142.3 677.98,-149.01"/>
</a>
</g>
</g>
<!-- Node8 -->
<g id="Node000008" class="node">
<title>Node8</title>
<g id="a_Node000008"><a xlink:href="_ring_buffer_m_p_allocate_8h.html" target="_top" xlink:title=" ">
<polygon fill="white" stroke="#666666" points="721.5,-101.5 587.5,-101.5 587.5,-71.5 721.5,-71.5 721.5,-101.5"/>
<text text-anchor="start" x="595.5" y="-89.5" font-family="Helvetica,sans-Serif" font-size="10.00">Kit/Container/RingBuffer</text>
<text text-anchor="middle" x="654.5" y="-78.5" font-family="Helvetica,sans-Serif" font-size="10.00">MPAllocate.h</text>
</a>
</g>
</g>
<!-- Node5&#45;&gt;Node8 -->
<g id="edge7_Node000005_Node000008" class="edge">
<title>Node5&#45;&gt;Node8</title>
<g id="a_edge7_Node000005_Node000008"><a xlink:title=" ">
<path fill="none" stroke="#63b8ff" d="M703.02,-141.03C692.24,-129.14 677.67,-113.06 667.32,-101.64"/>
<polygon fill="#63b8ff" stroke="#63b8ff" points="700.47,-143.42 709.77,-148.48 705.65,-138.72 700.47,-143.42"/>
</a>
</g>
</g>
<!-- Node10 -->
<g id="Node000010" class="node">
<title>Node10</title>
<g id="a_Node000010"><a xlink:href="_log_sink_8h.html" target="_top" xlink:title=" ">
<polygon fill="white" stroke="#666666" points="869,-101.5 740,-101.5 740,-71.5 869,-71.5 869,-101.5"/>
<text text-anchor="start" x="748" y="-89.5" font-family="Helvetica,sans-Serif" font-size="10.00">Kit/Logging/Framework</text>
<text text-anchor="middle" x="804.5" y="-78.5" font-family="Helvetica,sans-Serif" font-size="10.00">/LogSink.h</text>
</a>
</g>
</g>
<!-- Node5&#45;&gt;Node10 -->
<g id="edge9_Node000005_Node000010" class="edge">
<title>Node5&#45;&gt;Node10</title>
<g id="a_edge9_Node000005_Node000010"><a xlink:title=" ">
<path fill="none" stroke="#63b8ff" d="M736.22,-142.04C751.21,-130.07 772.09,-113.39 786.8,-101.64"/>
<polygon fill="#63b8ff" stroke="#63b8ff" points="733.8,-139.5 728.17,-148.48 738.17,-144.97 733.8,-139.5"/>
</a>
</g>
</g>
<!-- Node11 -->
<g id="Node000011" class="node">
<title>Node11</title>
<g id="a_Node000011"><a xlink:href="_logger_8h.html" target="_top" xlink:title="This file declares the public facing Logging interface for managing the logging framework (i....">
<polygon fill="white" stroke="#666666" points="1016,-101.5 887,-101.5 887,-71.5 1016,-71.5 1016,-101.5"/>
<text text-anchor="start" x="895" y="-89.5" font-family="Helvetica,sans-Serif" font-size="10.00">Kit/Logging/Framework</text>
<text text-anchor="middle" x="951.5" y="-78.5" font-family="Helvetica,sans-Serif" font-size="10.00">/Logger.h</text>
</a>
</g>
</g>
<!-- Node5&#45;&gt;Node11 -->
<g id="edge10_Node000005_Node000011" class="edge">
<title>Node5&#45;&gt;Node11</title>
<g id="a_edge10_Node000005_Node000011"><a xlink:title=" ">
<path fill="none" stroke="#63b8ff" d="M755.99,-145.57C796.62,-133.5 860.7,-114.47 904.34,-101.51"/>
<polygon fill="#63b8ff" stroke="#63b8ff" points="754.78,-142.28 746.19,-148.48 756.78,-148.99 754.78,-142.28"/>
</a>
</g>
</g>
<!-- Node12 -->
<g id="Node000012" class="node">
<title>Node12</title>
<g id="a_Node000012"><a xlink:href="src_2_kit_2_persistence_2_record_2_journal_2_server_8h.html" target="_top" xlink:title=" ">
<polygon fill="white" stroke="#666666" points="1160.5,-101.5 1034.5,-101.5 1034.5,-71.5 1160.5,-71.5 1160.5,-101.5"/>
<text text-anchor="start" x="1042.5" y="-89.5" font-family="Helvetica,sans-Serif" font-size="10.00">Kit/Persistence/Record</text>
<text text-anchor="middle" x="1097.5" y="-78.5" font-family="Helvetica,sans-Serif" font-size="10.00">/Journal/Server.h</text>
</a>
</g>
</g>
<!-- Node5&#45;&gt;Node12 -->
<g id="edge11_Node000005_Node000012" class="edge">
<title>Node5&#45;&gt;Node12</title>
<g id="a_edge11_Node000005_Node000012"><a xlink:title=" ">
<path fill="none" stroke="#63b8ff" d="M780.89,-146.88C867.53,-133.03 1013.64,-109.56 1025.5,-107 1032.97,-105.39 1040.82,-103.48 1048.48,-101.5"/>
<polygon fill="#63b8ff" stroke="#63b8ff" points="780.21,-143.45 770.89,-148.48 781.32,-150.36 780.21,-143.45"/>
</a>
</g>
</g>
<!-- Node9 -->
<g id="Node000009" class="node">
<title>Node9</title>
<g id="a_Node000009"><a xlink:href="_kit_only_8h.html" target="_top" xlink:title=" ">
<polygon fill="white" stroke="#666666" points="719,-30 590,-30 590,0 719,0 719,-30"/>
<text text-anchor="start" x="598" y="-18" font-family="Helvetica,sans-Serif" font-size="10.00">Kit/Logging/Framework</text>
<text text-anchor="middle" x="654.5" y="-7" font-family="Helvetica,sans-Serif" font-size="10.00">/Mocked4Test/KitOnly.h</text>
</a>
</g>
</g>
<!-- Node8&#45;&gt;Node9 -->
<g id="edge8_Node000008_Node000009" class="edge">
<title>Node8&#45;&gt;Node9</title>
<g id="a_edge8_Node000008_Node000009"><a xlink:title=" ">
<path fill="none" stroke="#63b8ff" d="M654.5,-61.25C654.5,-50.81 654.5,-38.99 654.5,-30.04"/>
<polygon fill="#63b8ff" stroke="#63b8ff" points="651,-61.44 654.5,-71.44 658,-61.44 651,-61.44"/>
</a>
</g>
</g>
<!-- Node14 -->
<g id="Node000014" class="node">
<title>Node14</title>
<g id="a_Node000014"><a xlink:href="_ring_buffer_m_t_allocate_8h.html" target="_top" xlink:title=" ">
<polygon fill="white" stroke="#666666" points="1312.5,-101.5 1178.5,-101.5 1178.5,-71.5 1312.5,-71.5 1312.5,-101.5"/>
<text text-anchor="start" x="1186.5" y="-89.5" font-family="Helvetica,sans-Serif" font-size="10.00">Kit/Container/RingBuffer</text>
<text text-anchor="middle" x="1245.5" y="-78.5" font-family="Helvetica,sans-Serif" font-size="10.00">MTAllocate.h</text>
</a>
</g>
</g>
<!-- Node13&#45;&gt;Node14 -->
<g id="edge13_Node000013_Node000014" class="edge">
<title>Node13&#45;&gt;Node14</title>
<g id="a_edge13_Node000013_Node000014"><a xlink:title=" ">
<path fill="none" stroke="#63b8ff" d="M957.04,-146.82C1013.15,-137.52 1097.06,-122.83 1169.5,-107 1177.09,-105.34 1185.06,-103.46 1192.88,-101.52"/>
<polygon fill="#63b8ff" stroke="#63b8ff" points="956.19,-143.42 946.89,-148.5 957.33,-150.32 956.19,-143.42"/>
</a>
</g>
</g>
<!-- Node15&#45;&gt;Node4 -->
<g id="edge15_Node000015_Node000004" class="edge">
<title>Node15&#45;&gt;Node4</title>
<g id="a_edge15_Node000015_Node000004"><a xlink:title=" ">
<path fill="none" stroke="#63b8ff" d="M424.73,-146.92C362.88,-137.27 267.76,-122.01 185.5,-107 167.08,-103.64 146.76,-99.61 129.5,-96.08"/>
<polygon fill="#63b8ff" stroke="#63b8ff" points="424.32,-150.4 434.74,-148.47 425.4,-143.48 424.32,-150.4"/>
</a>
</g>
</g>
<!-- Node18 -->
<g id="Node000018" class="node">
<title>Node18</title>
<g id="a_Node000018"><a xlink:href="_serial_2_s_t_2_m32_f4_2_input_output_8h.html" target="_top" xlink:title=" ">
<polygon fill="white" stroke="#666666" points="1454.5,-101.5 1330.5,-101.5 1330.5,-71.5 1454.5,-71.5 1454.5,-101.5"/>
<text text-anchor="start" x="1338.5" y="-89.5" font-family="Helvetica,sans-Serif" font-size="10.00">Kit/Io/Serial/ST/M32F4</text>
<text text-anchor="middle" x="1392.5" y="-78.5" font-family="Helvetica,sans-Serif" font-size="10.00">/InputOutput.h</text>
</a>
</g>
</g>
<!-- Node17&#45;&gt;Node18 -->
<g id="edge18_Node000017_Node000018" class="edge">
<title>Node17&#45;&gt;Node18</title>
<g id="a_edge18_Node000017_Node000018"><a xlink:title=" ">
<path fill="none" stroke="#63b8ff" d="M1348.44,-135.35C1358.59,-124.33 1370.64,-111.24 1379.57,-101.54"/>
<polygon fill="#63b8ff" stroke="#63b8ff" points="1345.65,-133.21 1341.45,-142.94 1350.8,-137.95 1345.65,-133.21"/>
</a>
</g>
</g>
</g>
</svg>
