<?xml version="1.0" encoding="UTF-8" standalone="no"?>
<!DOCTYPE svg PUBLIC "-//W3C//DTD SVG 1.1//EN"
 "http://www.w3.org/Graphics/SVG/1.1/DTD/svg11.dtd">
<!-- Generated by graphviz version 2.43.0 (0)
 -->
<!-- Title: Kit/Container/RingBufferMP.h Pages: 1 -->
<svg width="1373pt" height="478pt"
 viewBox="0.00 0.00 1372.50 478.00" xmlns="http://www.w3.org/2000/svg" xmlns:xlink="http://www.w3.org/1999/xlink">
<g id="graph0" class="graph" transform="scale(1 1) rotate(0) translate(4 474)">
<title>Kit/Container/RingBufferMP.h</title>
<!-- Node1 -->
<g id="Node000001" class="node">
<title>Node1</title>
<g id="a_Node000001"><a xlink:title=" ">
<polygon fill="#999999" stroke="#666666" points="337,-470 180,-470 180,-451 337,-451 337,-470"/>
<text text-anchor="middle" x="258.5" y="-458" font-family="Helvetica,sans-Serif" font-size="10.00">Kit/Container/RingBufferMP.h</text>
</a>
</g>
</g>
<!-- Node2 -->
<g id="Node000002" class="node">
<title>Node2</title>
<g id="a_Node000002"><a xlink:href="_ring_buffer_8h.html" target="_top" xlink:title=" ">
<polygon fill="white" stroke="#666666" points="330,-360 187,-360 187,-341 330,-341 330,-360"/>
<text text-anchor="middle" x="258.5" y="-348" font-family="Helvetica,sans-Serif" font-size="10.00">Kit/Container/RingBuffer.h</text>
</a>
</g>
</g>
<!-- Node1&#45;&gt;Node2 -->
<g id="edge1_Node000001_Node000002" class="edge">
<title>Node1&#45;&gt;Node2</title>
<g id="a_edge1_Node000001_Node000002"><a xlink:title=" ">
<path fill="none" stroke="#63b8ff" d="M258.5,-450.66C258.5,-433.17 258.5,-393.8 258.5,-370.27"/>
<polygon fill="#63b8ff" stroke="#63b8ff" points="262,-370.16 258.5,-360.16 255,-370.16 262,-370.16"/>
</a>
</g>
</g>
<!-- Node24 -->
<g id="Node000024" class="node">
<title>Node24</title>
<g id="a_Node000024"><a xlink:href="_mutex_8h.html" target="_top" xlink:title=" ">
<polygon fill="white" stroke="#666666" points="168,-140 55,-140 55,-121 168,-121 168,-140"/>
<text text-anchor="middle" x="111.5" y="-128" font-family="Helvetica,sans-Serif" font-size="10.00">Kit/System/Mutex.h</text>
</a>
</g>
</g>
<!-- Node1&#45;&gt;Node24 -->
<g id="edge49_Node000001_Node000024" class="edge">
<title>Node1&#45;&gt;Node24</title>
<g id="a_edge49_Node000001_Node000024"><a xlink:title=" ">
<path fill="none" stroke="#63b8ff" d="M199.22,-450.95C143.79,-439.21 69.5,-412.16 69.5,-351.5 69.5,-351.5 69.5,-351.5 69.5,-239.5 69.5,-205.46 87.85,-169.24 100.29,-148.59"/>
<polygon fill="#63b8ff" stroke="#63b8ff" points="103.31,-150.35 105.66,-140.02 97.38,-146.63 103.31,-150.35"/>
</a>
</g>
</g>
<!-- Node30 -->
<g id="Node000030" class="node">
<title>Node30</title>
<g id="a_Node000030"><a xlink:href="_uint32_8h.html" target="_top" xlink:title=" ">
<polygon fill="white" stroke="#666666" points="1216,-415 1103,-415 1103,-396 1216,-396 1216,-415"/>
<text text-anchor="middle" x="1159.5" y="-403" font-family="Helvetica,sans-Serif" font-size="10.00">Kit/Dm/Mp/Uint32.h</text>
</a>
</g>
</g>
<!-- Node1&#45;&gt;Node30 -->
<g id="edge50_Node000001_Node000030" class="edge">
<title>Node1&#45;&gt;Node30</title>
<g id="a_edge50_Node000001_Node000030"><a xlink:title=" ">
<path fill="none" stroke="#63b8ff" d="M337.27,-454.87C512.02,-444.59 929.55,-420.03 1092.62,-410.43"/>
<polygon fill="#63b8ff" stroke="#63b8ff" points="1093.22,-413.91 1102.99,-409.82 1092.8,-406.92 1093.22,-413.91"/>
</a>
</g>
</g>
<!-- Node3 -->
<g id="Node000003" class="node">
<title>Node3</title>
<g id="a_Node000003"><a xlink:title=" ">
<polygon fill="#e0e0e0" stroke="#999999" points="344,-140 271,-140 271,-121 344,-121 344,-140"/>
<text text-anchor="middle" x="307.5" y="-128" font-family="Helvetica,sans-Serif" font-size="10.00">kit_config.h</text>
</a>
</g>
</g>
<!-- Node2&#45;&gt;Node3 -->
<g id="edge2_Node000002_Node000003" class="edge">
<title>Node2&#45;&gt;Node3</title>
<g id="a_edge2_Node000002_Node000003"><a xlink:title=" ">
<path fill="none" stroke="#63b8ff" d="M260.32,-340.82C265.65,-315.41 281.8,-239.06 296.5,-176 298.51,-167.37 300.86,-157.82 302.86,-149.8"/>
<polygon fill="#63b8ff" stroke="#63b8ff" points="306.28,-150.57 305.32,-140.01 299.49,-148.86 306.28,-150.57"/>
</a>
</g>
</g>
<!-- Node4 -->
<g id="Node000004" class="node">
<title>Node4</title>
<g id="a_Node000004"><a xlink:href="_assert_8h.html" target="_top" xlink:title=" ">
<polygon fill="white" stroke="#666666" points="211,-195 98,-195 98,-176 211,-176 211,-195"/>
<text text-anchor="middle" x="154.5" y="-183" font-family="Helvetica,sans-Serif" font-size="10.00">Kit/System/Assert.h</text>
</a>
</g>
</g>
<!-- Node2&#45;&gt;Node4 -->
<g id="edge3_Node000002_Node000004" class="edge">
<title>Node2&#45;&gt;Node4</title>
<g id="a_edge3_Node000002_Node000004"><a xlink:title=" ">
<path fill="none" stroke="#63b8ff" d="M251.66,-340.82C244.8,-331.98 234.05,-317.8 225.5,-305 202.07,-269.93 177.32,-227.11 164.13,-203.75"/>
<polygon fill="#63b8ff" stroke="#63b8ff" points="167.16,-202.01 159.22,-195.01 161.06,-205.44 167.16,-202.01"/>
</a>
</g>
</g>
<!-- Node6 -->
<g id="Node000006" class="node">
<title>Node6</title>
<g id="a_Node000006"><a xlink:href="_string_8h.html" target="_top" xlink:title=" ">
<polygon fill="white" stroke="#666666" points="892,-305 839,-305 839,-286 892,-286 892,-305"/>
<text text-anchor="middle" x="865.5" y="-293" font-family="Helvetica,sans-Serif" font-size="10.00">string.h</text>
</a>
</g>
</g>
<!-- Node2&#45;&gt;Node6 -->
<g id="edge6_Node000002_Node000006" class="edge">
<title>Node2&#45;&gt;Node6</title>
<g id="a_edge6_Node000002_Node000006"><a xlink:title=" ">
<path fill="none" stroke="#63b8ff" d="M330.21,-343.24C460.22,-331.89 730.44,-308.29 828.73,-299.71"/>
<polygon fill="#63b8ff" stroke="#63b8ff" points="829.12,-303.19 838.78,-298.83 828.51,-296.22 829.12,-303.19"/>
</a>
</g>
</g>
<!-- Node28 -->
<g id="Node000028" class="node">
<title>Node28</title>
<g id="a_Node000028"><a xlink:href="_ring_buffer_base_atomic_8h.html" target="_top" xlink:title=" ">
<polygon fill="white" stroke="#666666" points="267.5,-85 133.5,-85 133.5,-55 267.5,-55 267.5,-85"/>
<text text-anchor="start" x="141.5" y="-73" font-family="Helvetica,sans-Serif" font-size="10.00">Kit/Container/RingBuffer</text>
<text text-anchor="middle" x="200.5" y="-62" font-family="Helvetica,sans-Serif" font-size="10.00">BaseAtomic.h</text>
</a>
</g>
</g>
<!-- Node2&#45;&gt;Node28 -->
<g id="edge45_Node000002_Node000028" class="edge">
<title>Node2&#45;&gt;Node28</title>
<g id="a_edge45_Node000002_Node000028"><a xlink:title=" ">
<path fill="none" stroke="#63b8ff" d="M255.94,-340.91C250.75,-322.74 239.5,-279 239.5,-241.5 239.5,-241.5 239.5,-241.5 239.5,-184.5 239.5,-151.83 224.87,-116.6 213.53,-94.2"/>
<polygon fill="#63b8ff" stroke="#63b8ff" points="216.52,-92.38 208.77,-85.15 210.33,-95.63 216.52,-92.38"/>
</a>
</g>
</g>
<!-- Node4&#45;&gt;Node3 -->
<g id="edge4_Node000004_Node000003" class="edge">
<title>Node4&#45;&gt;Node3</title>
<g id="a_edge4_Node000004_Node000003"><a xlink:title=" ">
<path fill="none" stroke="#63b8ff" d="M179.08,-175.98C204.55,-167.16 244.54,-153.31 273.13,-143.41"/>
<polygon fill="#63b8ff" stroke="#63b8ff" points="274.42,-146.66 282.73,-140.08 272.13,-140.05 274.42,-146.66"/>
</a>
</g>
</g>
<!-- Node5 -->
<g id="Node000005" class="node">
<title>Node5</title>
<g id="a_Node000005"><a xlink:title=" ">
<polygon fill="#e0e0e0" stroke="#999999" points="65,-79.5 0,-79.5 0,-60.5 65,-60.5 65,-79.5"/>
<text text-anchor="middle" x="32.5" y="-67.5" font-family="Helvetica,sans-Serif" font-size="10.00">kit_map.h</text>
</a>
</g>
</g>
<!-- Node4&#45;&gt;Node5 -->
<g id="edge5_Node000004_Node000005" class="edge">
<title>Node4&#45;&gt;Node5</title>
<g id="a_edge5_Node000004_Node000005"><a xlink:title=" ">
<path fill="none" stroke="#63b8ff" d="M106.92,-175.93C85.1,-169.6 60.75,-158.68 45.5,-140 34.07,-126 31.52,-105.09 31.4,-89.95"/>
<polygon fill="#63b8ff" stroke="#63b8ff" points="34.9,-89.81 31.67,-79.72 27.9,-89.62 34.9,-89.81"/>
</a>
</g>
</g>
<!-- Node7 -->
<g id="Node000007" class="node">
<title>Node7</title>
<g id="a_Node000007"><a xlink:href="_model_point_base_8h.html" target="_top" xlink:title=" ">
<polygon fill="white" stroke="#666666" points="936,-250 795,-250 795,-231 936,-231 936,-250"/>
<text text-anchor="middle" x="865.5" y="-238" font-family="Helvetica,sans-Serif" font-size="10.00">Kit/Dm/ModelPointBase.h</text>
</a>
</g>
</g>
<!-- Node6&#45;&gt;Node7 -->
<g id="edge7_Node000006_Node000007" class="edge">
<title>Node6&#45;&gt;Node7</title>
<g id="a_edge7_Node000006_Node000007"><a xlink:title=" ">
<path fill="none" stroke="#63b8ff" d="M865.5,-285.75C865.5,-278.8 865.5,-268.85 865.5,-260.13"/>
<polygon fill="#63b8ff" stroke="#63b8ff" points="869,-260.09 865.5,-250.09 862,-260.09 869,-260.09"/>
</a>
</g>
</g>
<!-- Node27 -->
<g id="Node000027" class="node">
<title>Node27</title>
<g id="a_Node000027"><a xlink:href="_observer_8h.html" target="_top" xlink:title=" ">
<polygon fill="white" stroke="#666666" points="1060.5,-250 954.5,-250 954.5,-231 1060.5,-231 1060.5,-250"/>
<text text-anchor="middle" x="1007.5" y="-238" font-family="Helvetica,sans-Serif" font-size="10.00">Kit/Dm/Observer.h</text>
</a>
</g>
</g>
<!-- Node6&#45;&gt;Node27 -->
<g id="edge41_Node000006_Node000027" class="edge">
<title>Node6&#45;&gt;Node27</title>
<g id="a_edge41_Node000006_Node000027"><a xlink:title=" ">
<path fill="none" stroke="#63b8ff" d="M888.31,-285.98C911.67,-277.27 948.2,-263.63 974.67,-253.75"/>
<polygon fill="#63b8ff" stroke="#63b8ff" points="976.13,-256.95 984.27,-250.17 973.68,-250.39 976.13,-256.95"/>
</a>
</g>
</g>
<!-- Node8 -->
<g id="Node000008" class="node">
<title>Node8</title>
<g id="a_Node000008"><a xlink:href="_i_model_point_8h.html" target="_top" xlink:title=" ">
<polygon fill="white" stroke="#666666" points="884.5,-195 764.5,-195 764.5,-176 884.5,-176 884.5,-195"/>
<text text-anchor="middle" x="824.5" y="-183" font-family="Helvetica,sans-Serif" font-size="10.00">Kit/Dm/IModelPoint.h</text>
</a>
</g>
</g>
<!-- Node7&#45;&gt;Node8 -->
<g id="edge8_Node000007_Node000008" class="edge">
<title>Node7&#45;&gt;Node8</title>
<g id="a_edge8_Node000007_Node000008"><a xlink:title=" ">
<path fill="none" stroke="#63b8ff" d="M858.73,-230.75C852.94,-223.26 844.44,-212.28 837.36,-203.13"/>
<polygon fill="#63b8ff" stroke="#63b8ff" points="840.03,-200.86 831.14,-195.09 834.49,-205.14 840.03,-200.86"/>
</a>
</g>
</g>
<!-- Node13 -->
<g id="Node000013" class="node">
<title>Node13</title>
<g id="a_Node000013"><a xlink:title=" ">
<polygon fill="#e0e0e0" stroke="#999999" points="1009,-19 956,-19 956,0 1009,0 1009,-19"/>
<text text-anchor="middle" x="982.5" y="-7" font-family="Helvetica,sans-Serif" font-size="10.00">stdint.h</text>
</a>
</g>
</g>
<!-- Node7&#45;&gt;Node13 -->
<g id="edge39_Node000007_Node000013" class="edge">
<title>Node7&#45;&gt;Node13</title>
<g id="a_edge39_Node000007_Node000013"><a xlink:title=" ">
<path fill="none" stroke="#63b8ff" d="M870.89,-230.98C876.54,-222.03 885.67,-207.55 893.5,-195 908.71,-170.62 914.29,-165.52 927.5,-140 947.44,-101.47 966.19,-54.06 975.8,-28.65"/>
<polygon fill="#63b8ff" stroke="#63b8ff" points="979.11,-29.78 979.33,-19.19 972.55,-27.33 979.11,-29.78"/>
</a>
</g>
</g>
<!-- Node14 -->
<g id="Node000014" class="node">
<title>Node14</title>
<g id="a_Node000014"><a xlink:title=" ">
<polygon fill="#e0e0e0" stroke="#999999" points="638,-19 585,-19 585,0 638,0 638,-19"/>
<text text-anchor="middle" x="611.5" y="-7" font-family="Helvetica,sans-Serif" font-size="10.00">stdlib.h</text>
</a>
</g>
</g>
<!-- Node7&#45;&gt;Node14 -->
<g id="edge40_Node000007_Node000014" class="edge">
<title>Node7&#45;&gt;Node14</title>
<g id="a_edge40_Node000007_Node000014"><a xlink:title=" ">
<path fill="none" stroke="#63b8ff" d="M831.2,-230.97C787.38,-218.33 712,-190.52 668.5,-140 653.37,-122.43 629.57,-60.37 618.1,-28.98"/>
<polygon fill="#63b8ff" stroke="#63b8ff" points="621.29,-27.49 614.6,-19.28 614.7,-29.87 621.29,-27.49"/>
</a>
</g>
</g>
<!-- Node20 -->
<g id="Node000020" class="node">
<title>Node20</title>
<g id="a_Node000020"><a xlink:href="_i_observer_8h.html" target="_top" xlink:title=" ">
<polygon fill="white" stroke="#666666" points="1139,-140 1030,-140 1030,-121 1139,-121 1139,-140"/>
<text text-anchor="middle" x="1084.5" y="-128" font-family="Helvetica,sans-Serif" font-size="10.00">Kit/Dm/IObserver.h</text>
</a>
</g>
</g>
<!-- Node7&#45;&gt;Node20 -->
<g id="edge35_Node000007_Node000020" class="edge">
<title>Node7&#45;&gt;Node20</title>
<g id="a_edge35_Node000007_Node000020"><a xlink:title=" ">
<path fill="none" stroke="#63b8ff" d="M883.05,-230.84C921.35,-211.96 1012.6,-166.96 1057.96,-144.59"/>
<polygon fill="#63b8ff" stroke="#63b8ff" points="1059.75,-147.61 1067.17,-140.05 1056.65,-141.33 1059.75,-147.61"/>
</a>
</g>
</g>
<!-- Node23 -->
<g id="Node000023" class="node">
<title>Node23</title>
<g id="a_Node000023"><a xlink:href="_i_model_database_8h.html" target="_top" xlink:title=" ">
<polygon fill="white" stroke="#666666" points="447.5,-195 305.5,-195 305.5,-176 447.5,-176 447.5,-195"/>
<text text-anchor="middle" x="376.5" y="-183" font-family="Helvetica,sans-Serif" font-size="10.00">Kit/Dm/IModelDatabase.h</text>
</a>
</g>
</g>
<!-- Node7&#45;&gt;Node23 -->
<g id="edge28_Node000007_Node000023" class="edge">
<title>Node7&#45;&gt;Node23</title>
<g id="a_edge28_Node000007_Node000023"><a xlink:title=" ">
<path fill="none" stroke="#63b8ff" d="M794.92,-231.85C705.6,-222.17 552.08,-205.53 457.91,-195.32"/>
<polygon fill="#63b8ff" stroke="#63b8ff" points="458.18,-191.83 447.86,-194.23 457.42,-198.79 458.18,-191.83"/>
</a>
</g>
</g>
<!-- Node25 -->
<g id="Node000025" class="node">
<title>Node25</title>
<g id="a_Node000025"><a xlink:href="_d_list_8h.html" target="_top" xlink:title=" ">
<polygon fill="white" stroke="#666666" points="1247,-195 1130,-195 1130,-176 1247,-176 1247,-195"/>
<text text-anchor="middle" x="1188.5" y="-183" font-family="Helvetica,sans-Serif" font-size="10.00">Kit/Container/DList.h</text>
</a>
</g>
</g>
<!-- Node7&#45;&gt;Node25 -->
<g id="edge36_Node000007_Node000025" class="edge">
<title>Node7&#45;&gt;Node25</title>
<g id="a_edge36_Node000007_Node000025"><a xlink:title=" ">
<path fill="none" stroke="#63b8ff" d="M917.4,-230.98C974.29,-221.65 1065.55,-206.67 1126.25,-196.71"/>
<polygon fill="#63b8ff" stroke="#63b8ff" points="1127.16,-200.11 1136.47,-195.04 1126.03,-193.2 1127.16,-200.11"/>
</a>
</g>
</g>
<!-- Node8&#45;&gt;Node3 -->
<g id="edge9_Node000008_Node000003" class="edge">
<title>Node8&#45;&gt;Node3</title>
<g id="a_edge9_Node000008_Node000003"><a xlink:title=" ">
<path fill="none" stroke="#63b8ff" d="M764.49,-180.28C675.28,-173.67 502.51,-159.58 356.5,-140 355.75,-139.9 354.99,-139.79 354.22,-139.69"/>
<polygon fill="#63b8ff" stroke="#63b8ff" points="354.52,-136.19 344.11,-138.17 353.48,-143.12 354.52,-136.19"/>
</a>
</g>
</g>
<!-- Node9 -->
<g id="Node000009" class="node">
<title>Node9</title>
<g id="a_Node000009"><a xlink:href="_keyed_item_8h.html" target="_top" xlink:title=" ">
<polygon fill="white" stroke="#666666" points="897,-140 752,-140 752,-121 897,-121 897,-140"/>
<text text-anchor="middle" x="824.5" y="-128" font-family="Helvetica,sans-Serif" font-size="10.00">Kit/Container/KeyedItem.h</text>
</a>
</g>
</g>
<!-- Node8&#45;&gt;Node9 -->
<g id="edge10_Node000008_Node000009" class="edge">
<title>Node8&#45;&gt;Node9</title>
<g id="a_edge10_Node000008_Node000009"><a xlink:title=" ">
<path fill="none" stroke="#63b8ff" d="M824.5,-175.75C824.5,-168.8 824.5,-158.85 824.5,-150.13"/>
<polygon fill="#63b8ff" stroke="#63b8ff" points="828,-150.09 824.5,-140.09 821,-150.09 828,-150.09"/>
</a>
</g>
</g>
<!-- Node8&#45;&gt;Node13 -->
<g id="edge27_Node000008_Node000013" class="edge">
<title>Node8&#45;&gt;Node13</title>
<g id="a_edge27_Node000008_Node000013"><a xlink:title=" ">
<path fill="none" stroke="#63b8ff" d="M848.89,-175.85C866.67,-168.55 890.36,-156.61 906.5,-140 936,-109.63 927.26,-91.02 949.5,-55 955.44,-45.38 962.88,-35.22 969.19,-27.04"/>
<polygon fill="#63b8ff" stroke="#63b8ff" points="972.04,-29.08 975.47,-19.06 966.54,-24.75 972.04,-29.08"/>
</a>
</g>
</g>
<!-- Node16 -->
<g id="Node000016" class="node">
<title>Node16</title>
<g id="a_Node000016"><a xlink:href="_i_string_8h.html" target="_top" xlink:title=" ">
<polygon fill="white" stroke="#666666" points="462,-140 365,-140 365,-121 462,-121 462,-140"/>
<text text-anchor="middle" x="413.5" y="-128" font-family="Helvetica,sans-Serif" font-size="10.00">Kit/Text/IString.h</text>
</a>
</g>
</g>
<!-- Node8&#45;&gt;Node16 -->
<g id="edge17_Node000008_Node000016" class="edge">
<title>Node8&#45;&gt;Node16</title>
<g id="a_edge17_Node000008_Node000016"><a xlink:title=" ">
<path fill="none" stroke="#63b8ff" d="M764.49,-177.31C696.34,-169.06 581.54,-154.9 472.42,-140.1"/>
<polygon fill="#63b8ff" stroke="#63b8ff" points="472.6,-136.59 462.22,-138.71 471.66,-143.53 472.6,-136.59"/>
</a>
</g>
</g>
<!-- Node8&#45;&gt;Node20 -->
<g id="edge22_Node000008_Node000020" class="edge">
<title>Node8&#45;&gt;Node20</title>
<g id="a_edge22_Node000008_Node000020"><a xlink:title=" ">
<path fill="none" stroke="#63b8ff" d="M866.27,-175.98C911.44,-166.78 983.5,-152.09 1032.35,-142.13"/>
<polygon fill="#63b8ff" stroke="#63b8ff" points="1033.3,-145.51 1042.4,-140.08 1031.9,-138.65 1033.3,-145.51"/>
</a>
</g>
</g>
<!-- Node21 -->
<g id="Node000021" class="node">
<title>Node21</title>
<g id="a_Node000021"><a xlink:href="_arduino_8h_source.html" target="_top" xlink:title=" ">
<polygon fill="white" stroke="#666666" points="583,-140 480,-140 480,-121 583,-121 583,-140"/>
<text text-anchor="middle" x="531.5" y="-128" font-family="Helvetica,sans-Serif" font-size="10.00">Kit/Json/Arduino.h</text>
</a>
</g>
</g>
<!-- Node8&#45;&gt;Node21 -->
<g id="edge25_Node000008_Node000021" class="edge">
<title>Node8&#45;&gt;Node21</title>
<g id="a_edge25_Node000008_Node000021"><a xlink:title=" ">
<path fill="none" stroke="#63b8ff" d="M777.42,-175.98C726.1,-166.7 643.96,-151.84 588.9,-141.88"/>
<polygon fill="#63b8ff" stroke="#63b8ff" points="589.41,-138.42 578.94,-140.08 588.16,-145.31 589.41,-138.42"/>
</a>
</g>
</g>
<!-- Node22 -->
<g id="Node000022" class="node">
<title>Node22</title>
<g id="a_Node000022"><a xlink:title=" ">
<polygon fill="#e0e0e0" stroke="#999999" points="733.5,-140 677.5,-140 677.5,-121 733.5,-121 733.5,-140"/>
<text text-anchor="middle" x="705.5" y="-128" font-family="Helvetica,sans-Serif" font-size="10.00">stddef.h</text>
</a>
</g>
</g>
<!-- Node8&#45;&gt;Node22 -->
<g id="edge26_Node000008_Node000022" class="edge">
<title>Node8&#45;&gt;Node22</title>
<g id="a_edge26_Node000008_Node000022"><a xlink:title=" ">
<path fill="none" stroke="#63b8ff" d="M805.38,-175.98C786.15,-167.42 756.27,-154.11 734.19,-144.28"/>
<polygon fill="#63b8ff" stroke="#63b8ff" points="735.53,-141.04 724.97,-140.17 732.68,-147.44 735.53,-141.04"/>
</a>
</g>
</g>
<!-- Node10 -->
<g id="Node000010" class="node">
<title>Node10</title>
<g id="a_Node000010"><a xlink:href="_list_item_8h.html" target="_top" xlink:title=" ">
<polygon fill="white" stroke="#666666" points="1199.5,-79.5 1067.5,-79.5 1067.5,-60.5 1199.5,-60.5 1199.5,-79.5"/>
<text text-anchor="middle" x="1133.5" y="-67.5" font-family="Helvetica,sans-Serif" font-size="10.00">Kit/Container/ListItem.h</text>
</a>
</g>
</g>
<!-- Node9&#45;&gt;Node10 -->
<g id="edge11_Node000009_Node000010" class="edge">
<title>Node9&#45;&gt;Node10</title>
<g id="a_edge11_Node000009_Node000010"><a xlink:title=" ">
<path fill="none" stroke="#63b8ff" d="M869.43,-120.99C924.81,-110.51 1018.89,-92.7 1078.52,-81.41"/>
<polygon fill="#63b8ff" stroke="#63b8ff" points="1079.34,-84.82 1088.51,-79.52 1078.04,-77.94 1079.34,-84.82"/>
</a>
</g>
</g>
<!-- Node12 -->
<g id="Node000012" class="node">
<title>Node12</title>
<g id="a_Node000012"><a xlink:href="_key_8h.html" target="_top" xlink:title=" ">
<polygon fill="white" stroke="#666666" points="833,-79.5 724,-79.5 724,-60.5 833,-60.5 833,-79.5"/>
<text text-anchor="middle" x="778.5" y="-67.5" font-family="Helvetica,sans-Serif" font-size="10.00">Kit/Container/Key.h</text>
</a>
</g>
</g>
<!-- Node9&#45;&gt;Node12 -->
<g id="edge13_Node000009_Node000012" class="edge">
<title>Node9&#45;&gt;Node12</title>
<g id="a_edge13_Node000009_Node000012"><a xlink:title=" ">
<path fill="none" stroke="#63b8ff" d="M817.71,-120.87C810.85,-112.14 800.07,-98.43 791.55,-87.59"/>
<polygon fill="#63b8ff" stroke="#63b8ff" points="794.25,-85.36 785.32,-79.67 788.75,-89.69 794.25,-85.36"/>
</a>
</g>
</g>
<!-- Node11 -->
<g id="Node000011" class="node">
<title>Node11</title>
<g id="a_Node000011"><a xlink:href="_item_8h.html" target="_top" xlink:title=" ">
<polygon fill="white" stroke="#666666" points="1191,-19 1076,-19 1076,0 1191,0 1191,-19"/>
<text text-anchor="middle" x="1133.5" y="-7" font-family="Helvetica,sans-Serif" font-size="10.00">Kit/Container/Item.h</text>
</a>
</g>
</g>
<!-- Node10&#45;&gt;Node11 -->
<g id="edge12_Node000010_Node000011" class="edge">
<title>Node10&#45;&gt;Node11</title>
<g id="a_edge12_Node000010_Node000011"><a xlink:title=" ">
<path fill="none" stroke="#63b8ff" d="M1133.5,-60.37C1133.5,-52.25 1133.5,-39.81 1133.5,-29.39"/>
<polygon fill="#63b8ff" stroke="#63b8ff" points="1137,-29.17 1133.5,-19.17 1130,-29.17 1137,-29.17"/>
</a>
</g>
</g>
<!-- Node12&#45;&gt;Node13 -->
<g id="edge14_Node000012_Node000013" class="edge">
<title>Node12&#45;&gt;Node13</title>
<g id="a_edge14_Node000012_Node000013"><a xlink:title=" ">
<path fill="none" stroke="#63b8ff" d="M808.16,-60.49C844.66,-50.03 906.61,-32.26 945.99,-20.97"/>
<polygon fill="#63b8ff" stroke="#63b8ff" points="947.08,-24.3 955.73,-18.18 945.15,-17.57 947.08,-24.3"/>
</a>
</g>
</g>
<!-- Node12&#45;&gt;Node14 -->
<g id="edge15_Node000012_Node000014" class="edge">
<title>Node12&#45;&gt;Node14</title>
<g id="a_edge15_Node000012_Node000014"><a xlink:title=" ">
<path fill="none" stroke="#63b8ff" d="M754.22,-60.49C725.52,-50.44 677.61,-33.66 645.3,-22.34"/>
<polygon fill="#63b8ff" stroke="#63b8ff" points="646.41,-19.02 635.81,-19.02 644.09,-25.63 646.41,-19.02"/>
</a>
</g>
</g>
<!-- Node15 -->
<g id="Node000015" class="node">
<title>Node15</title>
<g id="a_Node000015"><a xlink:title=" ">
<polygon fill="#e0e0e0" stroke="#999999" points="805,-19 752,-19 752,0 805,0 805,-19"/>
<text text-anchor="middle" x="778.5" y="-7" font-family="Helvetica,sans-Serif" font-size="10.00">limits.h</text>
</a>
</g>
</g>
<!-- Node12&#45;&gt;Node15 -->
<g id="edge16_Node000012_Node000015" class="edge">
<title>Node12&#45;&gt;Node15</title>
<g id="a_edge16_Node000012_Node000015"><a xlink:title=" ">
<path fill="none" stroke="#63b8ff" d="M778.5,-60.37C778.5,-52.25 778.5,-39.81 778.5,-29.39"/>
<polygon fill="#63b8ff" stroke="#63b8ff" points="782,-29.17 778.5,-19.17 775,-29.17 782,-29.17"/>
</a>
</g>
</g>
<!-- Node16&#45;&gt;Node12 -->
<g id="edge18_Node000016_Node000012" class="edge">
<title>Node16&#45;&gt;Node12</title>
<g id="a_edge18_Node000016_Node000012"><a xlink:title=" ">
<path fill="none" stroke="#63b8ff" d="M462.35,-121.67C527.52,-111.23 643.03,-92.71 714.93,-81.19"/>
<polygon fill="#63b8ff" stroke="#63b8ff" points="715.89,-84.58 725.21,-79.54 714.78,-77.67 715.89,-84.58"/>
</a>
</g>
</g>
<!-- Node17 -->
<g id="Node000017" class="node">
<title>Node17</title>
<g id="a_Node000017"><a xlink:href="printfchecker_8h.html" target="_top" xlink:title="This file contains macro that enables the GCC (and Clang) compiler to validate printf flags with thei...">
<polygon fill="white" stroke="#666666" points="431,-79.5 286,-79.5 286,-60.5 431,-60.5 431,-79.5"/>
<text text-anchor="middle" x="358.5" y="-67.5" font-family="Helvetica,sans-Serif" font-size="10.00">Kit/System/printfchecker.h</text>
</a>
</g>
</g>
<!-- Node16&#45;&gt;Node17 -->
<g id="edge19_Node000016_Node000017" class="edge">
<title>Node16&#45;&gt;Node17</title>
<g id="a_edge19_Node000016_Node000017"><a xlink:title=" ">
<path fill="none" stroke="#63b8ff" d="M405.38,-120.87C397.1,-112.05 384.03,-98.16 373.8,-87.27"/>
<polygon fill="#63b8ff" stroke="#63b8ff" points="376.05,-84.56 366.65,-79.67 370.95,-89.35 376.05,-84.56"/>
</a>
</g>
</g>
<!-- Node18 -->
<g id="Node000018" class="node">
<title>Node18</title>
<g id="a_Node000018"><a xlink:title=" ">
<polygon fill="#e0e0e0" stroke="#999999" points="505.5,-79.5 449.5,-79.5 449.5,-60.5 505.5,-60.5 505.5,-79.5"/>
<text text-anchor="middle" x="477.5" y="-67.5" font-family="Helvetica,sans-Serif" font-size="10.00">stdarg.h</text>
</a>
</g>
</g>
<!-- Node16&#45;&gt;Node18 -->
<g id="edge20_Node000016_Node000018" class="edge">
<title>Node16&#45;&gt;Node18</title>
<g id="a_edge20_Node000016_Node000018"><a xlink:title=" ">
<path fill="none" stroke="#63b8ff" d="M422.94,-120.87C432.77,-111.88 448.39,-97.61 460.39,-86.64"/>
<polygon fill="#63b8ff" stroke="#63b8ff" points="463,-89 468.02,-79.67 458.28,-83.83 463,-89"/>
</a>
</g>
</g>
<!-- Node19 -->
<g id="Node000019" class="node">
<title>Node19</title>
<g id="a_Node000019"><a xlink:title=" ">
<polygon fill="#e0e0e0" stroke="#999999" points="583.5,-79.5 523.5,-79.5 523.5,-60.5 583.5,-60.5 583.5,-79.5"/>
<text text-anchor="middle" x="553.5" y="-67.5" font-family="Helvetica,sans-Serif" font-size="10.00">iostream</text>
</a>
</g>
</g>
<!-- Node16&#45;&gt;Node19 -->
<g id="edge21_Node000016_Node000019" class="edge">
<title>Node16&#45;&gt;Node19</title>
<g id="a_edge21_Node000016_Node000019"><a xlink:title=" ">
<path fill="none" stroke="#63b8ff" d="M433.86,-120.99C457.5,-111.12 496.7,-94.73 523.75,-83.43"/>
<polygon fill="#63b8ff" stroke="#63b8ff" points="525.24,-86.6 533.12,-79.52 522.54,-80.14 525.24,-86.6"/>
</a>
</g>
</g>
<!-- Node20&#45;&gt;Node10 -->
<g id="edge23_Node000020_Node000010" class="edge">
<title>Node20&#45;&gt;Node10</title>
<g id="a_edge23_Node000020_Node000010"><a xlink:title=" ">
<path fill="none" stroke="#63b8ff" d="M1091.73,-120.87C1099.04,-112.14 1110.52,-98.43 1119.6,-87.59"/>
<polygon fill="#63b8ff" stroke="#63b8ff" points="1122.5,-89.58 1126.24,-79.67 1117.14,-85.09 1122.5,-89.58"/>
</a>
</g>
</g>
<!-- Node20&#45;&gt;Node13 -->
<g id="edge24_Node000020_Node000013" class="edge">
<title>Node20&#45;&gt;Node13</title>
<g id="a_edge24_Node000020_Node000013"><a xlink:title=" ">
<path fill="none" stroke="#63b8ff" d="M1077.16,-120.94C1060.34,-101.31 1018.72,-52.76 996.7,-27.07"/>
<polygon fill="#63b8ff" stroke="#63b8ff" points="999.21,-24.62 990.04,-19.3 993.89,-29.17 999.21,-24.62"/>
</a>
</g>
</g>
<!-- Node23&#45;&gt;Node3 -->
<g id="edge29_Node000023_Node000003" class="edge">
<title>Node23&#45;&gt;Node3</title>
<g id="a_edge29_Node000023_Node000003"><a xlink:title=" ">
<path fill="none" stroke="#63b8ff" d="M365.41,-175.98C355.01,-168 339.24,-155.88 326.78,-146.31"/>
<polygon fill="#63b8ff" stroke="#63b8ff" points="328.85,-143.49 318.79,-140.17 324.59,-149.04 328.85,-143.49"/>
</a>
</g>
</g>
<!-- Node23&#45;&gt;Node16 -->
<g id="edge30_Node000023_Node000016" class="edge">
<title>Node23&#45;&gt;Node16</title>
<g id="a_edge30_Node000023_Node000016"><a xlink:title=" ">
<path fill="none" stroke="#63b8ff" d="M382.61,-175.75C387.78,-168.34 395.35,-157.5 401.69,-148.41"/>
<polygon fill="#63b8ff" stroke="#63b8ff" points="404.65,-150.29 407.5,-140.09 398.91,-146.29 404.65,-150.29"/>
</a>
</g>
</g>
<!-- Node23&#45;&gt;Node21 -->
<g id="edge34_Node000023_Node000021" class="edge">
<title>Node23&#45;&gt;Node21</title>
<g id="a_edge34_Node000023_Node000021"><a xlink:title=" ">
<path fill="none" stroke="#63b8ff" d="M401.4,-175.98C427.2,-167.16 467.72,-153.31 496.68,-143.41"/>
<polygon fill="#63b8ff" stroke="#63b8ff" points="498.07,-146.63 506.4,-140.08 495.81,-140.01 498.07,-146.63"/>
</a>
</g>
</g>
<!-- Node23&#45;&gt;Node24 -->
<g id="edge31_Node000023_Node000024" class="edge">
<title>Node23&#45;&gt;Node24</title>
<g id="a_edge31_Node000023_Node000024"><a xlink:title=" ">
<path fill="none" stroke="#63b8ff" d="M333.92,-175.98C287.8,-166.76 214.14,-152.03 164.34,-142.07"/>
<polygon fill="#63b8ff" stroke="#63b8ff" points="164.9,-138.61 154.41,-140.08 163.53,-145.48 164.9,-138.61"/>
</a>
</g>
</g>
<!-- Node24&#45;&gt;Node5 -->
<g id="edge33_Node000024_Node000005" class="edge">
<title>Node24&#45;&gt;Node5</title>
<g id="a_edge33_Node000024_Node000005"><a xlink:title=" ">
<path fill="none" stroke="#63b8ff" d="M99.84,-120.87C87.36,-111.62 67.32,-96.78 52.34,-85.69"/>
<polygon fill="#63b8ff" stroke="#63b8ff" points="54.32,-82.81 44.2,-79.67 50.16,-88.43 54.32,-82.81"/>
</a>
</g>
</g>
<!-- Node24&#45;&gt;Node14 -->
<g id="edge32_Node000024_Node000014" class="edge">
<title>Node24&#45;&gt;Node14</title>
<g id="a_edge32_Node000024_Node000014"><a xlink:title=" ">
<path fill="none" stroke="#63b8ff" d="M110.02,-120.82C107.9,-105.1 106.06,-71.99 124.5,-55 157.43,-24.65 466.84,-14.1 574.66,-11.33"/>
<polygon fill="#63b8ff" stroke="#63b8ff" points="574.83,-14.83 584.74,-11.08 574.66,-7.83 574.83,-14.83"/>
</a>
</g>
</g>
<!-- Node26 -->
<g id="Node000026" class="node">
<title>Node26</title>
<g id="a_Node000026"><a xlink:href="_d_list_base_8h.html" target="_top" xlink:title=" ">
<polygon fill="white" stroke="#666666" points="1298,-140 1157,-140 1157,-121 1298,-121 1298,-140"/>
<text text-anchor="middle" x="1227.5" y="-128" font-family="Helvetica,sans-Serif" font-size="10.00">Kit/Container/DListBase.h</text>
</a>
</g>
</g>
<!-- Node25&#45;&gt;Node26 -->
<g id="edge37_Node000025_Node000026" class="edge">
<title>Node25&#45;&gt;Node26</title>
<g id="a_edge37_Node000025_Node000026"><a xlink:title=" ">
<path fill="none" stroke="#63b8ff" d="M1194.94,-175.75C1200.39,-168.34 1208.36,-157.5 1215.06,-148.41"/>
<polygon fill="#63b8ff" stroke="#63b8ff" points="1218.07,-150.22 1221.18,-140.09 1212.43,-146.07 1218.07,-150.22"/>
</a>
</g>
</g>
<!-- Node26&#45;&gt;Node10 -->
<g id="edge38_Node000026_Node000010" class="edge">
<title>Node26&#45;&gt;Node10</title>
<g id="a_edge38_Node000026_Node000010"><a xlink:title=" ">
<path fill="none" stroke="#63b8ff" d="M1213.63,-120.87C1198.5,-111.45 1174.04,-96.23 1156.12,-85.08"/>
<polygon fill="#63b8ff" stroke="#63b8ff" points="1157.77,-81.98 1147.43,-79.67 1154.07,-87.92 1157.77,-81.98"/>
</a>
</g>
</g>
<!-- Node27&#45;&gt;Node8 -->
<g id="edge43_Node000027_Node000008" class="edge">
<title>Node27&#45;&gt;Node8</title>
<g id="a_edge43_Node000027_Node000008"><a xlink:title=" ">
<path fill="none" stroke="#63b8ff" d="M978.1,-230.98C947.11,-222.01 898.12,-207.82 863.83,-197.89"/>
<polygon fill="#63b8ff" stroke="#63b8ff" points="864.71,-194.5 854.13,-195.08 862.76,-201.23 864.71,-194.5"/>
</a>
</g>
</g>
<!-- Node27&#45;&gt;Node13 -->
<g id="edge44_Node000027_Node000013" class="edge">
<title>Node27&#45;&gt;Node13</title>
<g id="a_edge44_Node000027_Node000013"><a xlink:title=" ">
<path fill="none" stroke="#63b8ff" d="M1006.55,-230.8C1002.89,-197.29 989.66,-76.08 984.54,-29.2"/>
<polygon fill="#63b8ff" stroke="#63b8ff" points="988.02,-28.77 983.45,-19.21 981.06,-29.53 988.02,-28.77"/>
</a>
</g>
</g>
<!-- Node27&#45;&gt;Node20 -->
<g id="edge42_Node000027_Node000020" class="edge">
<title>Node27&#45;&gt;Node20</title>
<g id="a_edge42_Node000027_Node000020"><a xlink:title=" ">
<path fill="none" stroke="#63b8ff" d="M1013.8,-230.66C1026.61,-212.69 1055.88,-171.64 1072.46,-148.38"/>
<polygon fill="#63b8ff" stroke="#63b8ff" points="1075.37,-150.33 1078.33,-140.16 1069.67,-146.27 1075.37,-150.33"/>
</a>
</g>
</g>
<!-- Node28&#45;&gt;Node13 -->
<g id="edge46_Node000028_Node000013" class="edge">
<title>Node28&#45;&gt;Node13</title>
<g id="a_edge46_Node000028_Node000013"><a xlink:title=" ">
<path fill="none" stroke="#63b8ff" d="M267.62,-56.32C270.96,-55.84 274.26,-55.4 277.5,-55 343.95,-46.89 809.87,-20.24 945.53,-12.58"/>
<polygon fill="#63b8ff" stroke="#63b8ff" points="946.02,-16.06 955.81,-12 945.63,-9.07 946.02,-16.06"/>
</a>
</g>
</g>
<!-- Node28&#45;&gt;Node14 -->
<g id="edge47_Node000028_Node000014" class="edge">
<title>Node28&#45;&gt;Node14</title>
<g id="a_edge47_Node000028_Node000014"><a xlink:title=" ">
<path fill="none" stroke="#63b8ff" d="M267.66,-56.6C270.98,-56.04 274.28,-55.51 277.5,-55 385.11,-38.06 512.91,-22.22 574.57,-14.84"/>
<polygon fill="#63b8ff" stroke="#63b8ff" points="575.08,-18.3 584.6,-13.65 574.25,-11.35 575.08,-18.3"/>
</a>
</g>
</g>
<!-- Node29 -->
<g id="Node000029" class="node">
<title>Node29</title>
<g id="a_Node000029"><a xlink:title=" ">
<polygon fill="#e0e0e0" stroke="#999999" points="225.5,-19 175.5,-19 175.5,0 225.5,0 225.5,-19"/>
<text text-anchor="middle" x="200.5" y="-7" font-family="Helvetica,sans-Serif" font-size="10.00">atomic</text>
</a>
</g>
</g>
<!-- Node28&#45;&gt;Node29 -->
<g id="edge48_Node000028_Node000029" class="edge">
<title>Node28&#45;&gt;Node29</title>
<g id="a_edge48_Node000028_Node000029"><a xlink:title=" ">
<path fill="none" stroke="#63b8ff" d="M200.5,-54.84C200.5,-47.21 200.5,-37.7 200.5,-29.45"/>
<polygon fill="#63b8ff" stroke="#63b8ff" points="204,-29.27 200.5,-19.27 197,-29.27 204,-29.27"/>
</a>
</g>
</g>
<!-- Node30&#45;&gt;Node13 -->
<g id="edge66_Node000030_Node000013" class="edge">
<title>Node30&#45;&gt;Node13</title>
<g id="a_edge66_Node000030_Node000013"><a xlink:title=" ">
<path fill="none" stroke="#63b8ff" d="M1216.06,-398.86C1276.74,-389.32 1364.5,-363.88 1364.5,-296.5 1364.5,-296.5 1364.5,-296.5 1364.5,-129.5 1364.5,-71.19 1310.6,-76.76 1256.5,-55 1214.04,-37.92 1083.77,-21.69 1019.35,-14.45"/>
<polygon fill="#63b8ff" stroke="#63b8ff" points="1019.56,-10.95 1009.23,-13.33 1018.78,-17.91 1019.56,-10.95"/>
</a>
</g>
</g>
<!-- Node31 -->
<g id="Node000031" class="node">
<title>Node31</title>
<g id="a_Node000031"><a xlink:href="_primitive_type_8h.html" target="_top" xlink:title=" ">
<polygon fill="white" stroke="#666666" points="1233,-360 1086,-360 1086,-341 1233,-341 1233,-360"/>
<text text-anchor="middle" x="1159.5" y="-348" font-family="Helvetica,sans-Serif" font-size="10.00">Kit/Dm/Mp/PrimitiveType.h</text>
</a>
</g>
</g>
<!-- Node30&#45;&gt;Node31 -->
<g id="edge51_Node000030_Node000031" class="edge">
<title>Node30&#45;&gt;Node31</title>
<g id="a_edge51_Node000030_Node000031"><a xlink:title=" ">
<path fill="none" stroke="#63b8ff" d="M1159.5,-395.75C1159.5,-388.8 1159.5,-378.85 1159.5,-370.13"/>
<polygon fill="#63b8ff" stroke="#63b8ff" points="1163,-370.09 1159.5,-360.09 1156,-370.09 1163,-370.09"/>
</a>
</g>
</g>
<!-- Node32 -->
<g id="Node000032" class="node">
<title>Node32</title>
<g id="a_Node000032"><a xlink:href="_scalar_8h.html" target="_top" xlink:title=" ">
<polygon fill="white" stroke="#666666" points="1071.5,-305 961.5,-305 961.5,-286 1071.5,-286 1071.5,-305"/>
<text text-anchor="middle" x="1016.5" y="-293" font-family="Helvetica,sans-Serif" font-size="10.00">Kit/Dm/Mp/Scalar.h</text>
</a>
</g>
</g>
<!-- Node31&#45;&gt;Node32 -->
<g id="edge52_Node000031_Node000032" class="edge">
<title>Node31&#45;&gt;Node32</title>
<g id="a_edge52_Node000031_Node000032"><a xlink:title=" ">
<path fill="none" stroke="#63b8ff" d="M1136.52,-340.98C1113,-332.27 1076.21,-318.63 1049.56,-308.75"/>
<polygon fill="#63b8ff" stroke="#63b8ff" points="1050.49,-305.36 1039.89,-305.17 1048.05,-311.93 1050.49,-305.36"/>
</a>
</g>
</g>
<!-- Node33 -->
<g id="Node000033" class="node">
<title>Node33</title>
<g id="a_Node000033"><a xlink:href="_f_string_8h.html" target="_top" xlink:title=" ">
<polygon fill="white" stroke="#666666" points="693,-305 594,-305 594,-286 693,-286 693,-305"/>
<text text-anchor="middle" x="643.5" y="-293" font-family="Helvetica,sans-Serif" font-size="10.00">Kit/Text/FString.h</text>
</a>
</g>
</g>
<!-- Node31&#45;&gt;Node33 -->
<g id="edge56_Node000031_Node000033" class="edge">
<title>Node31&#45;&gt;Node33</title>
<g id="a_edge56_Node000031_Node000033"><a xlink:title=" ">
<path fill="none" stroke="#63b8ff" d="M1085.84,-341.93C982.95,-331.37 798.15,-312.39 703.28,-302.64"/>
<polygon fill="#63b8ff" stroke="#63b8ff" points="703.59,-299.15 693.28,-301.61 702.87,-306.12 703.59,-299.15"/>
</a>
</g>
</g>
<!-- Node36 -->
<g id="Node000036" class="node">
<title>Node36</title>
<g id="a_Node000036"><a xlink:href="_string_to_8h.html" target="_top" xlink:title=" ">
<polygon fill="white" stroke="#666666" points="1211.5,-305 1107.5,-305 1107.5,-286 1211.5,-286 1211.5,-305"/>
<text text-anchor="middle" x="1159.5" y="-293" font-family="Helvetica,sans-Serif" font-size="10.00">Kit/Text/StringTo.h</text>
</a>
</g>
</g>
<!-- Node31&#45;&gt;Node36 -->
<g id="edge60_Node000031_Node000036" class="edge">
<title>Node31&#45;&gt;Node36</title>
<g id="a_edge60_Node000031_Node000036"><a xlink:title=" ">
<path fill="none" stroke="#63b8ff" d="M1159.5,-340.75C1159.5,-333.8 1159.5,-323.85 1159.5,-315.13"/>
<polygon fill="#63b8ff" stroke="#63b8ff" points="1163,-315.09 1159.5,-305.09 1156,-315.09 1163,-315.09"/>
</a>
</g>
</g>
<!-- Node37 -->
<g id="Node000037" class="node">
<title>Node37</title>
<g id="a_Node000037"><a xlink:title=" ">
<polygon fill="#e0e0e0" stroke="#999999" points="1289,-250 1220,-250 1220,-231 1289,-231 1289,-250"/>
<text text-anchor="middle" x="1254.5" y="-238" font-family="Helvetica,sans-Serif" font-size="10.00">type_traits</text>
</a>
</g>
</g>
<!-- Node31&#45;&gt;Node37 -->
<g id="edge65_Node000031_Node000037" class="edge">
<title>Node31&#45;&gt;Node37</title>
<g id="a_edge65_Node000031_Node000037"><a xlink:title=" ">
<path fill="none" stroke="#63b8ff" d="M1175.05,-340.88C1188.37,-332.9 1207.42,-320.03 1220.5,-305 1232.29,-291.45 1241.55,-273.12 1247.41,-259.64"/>
<polygon fill="#63b8ff" stroke="#63b8ff" points="1250.79,-260.63 1251.36,-250.05 1244.32,-257.96 1250.79,-260.63"/>
</a>
</g>
</g>
<!-- Node39 -->
<g id="Node000039" class="node">
<title>Node39</title>
<g id="a_Node000039"><a xlink:title=" ">
<polygon fill="#e0e0e0" stroke="#999999" points="1333,-305 1268,-305 1268,-286 1333,-286 1333,-305"/>
<text text-anchor="middle" x="1300.5" y="-293" font-family="Helvetica,sans-Serif" font-size="10.00">inttypes.h</text>
</a>
</g>
</g>
<!-- Node31&#45;&gt;Node39 -->
<g id="edge64_Node000031_Node000039" class="edge">
<title>Node31&#45;&gt;Node39</title>
<g id="a_edge64_Node000031_Node000039"><a xlink:title=" ">
<path fill="none" stroke="#63b8ff" d="M1182.15,-340.98C1205.35,-332.27 1241.62,-318.63 1267.9,-308.75"/>
<polygon fill="#63b8ff" stroke="#63b8ff" points="1269.3,-311.97 1277.43,-305.17 1266.84,-305.41 1269.3,-311.97"/>
</a>
</g>
</g>
<!-- Node32&#45;&gt;Node7 -->
<g id="edge53_Node000032_Node000007" class="edge">
<title>Node32&#45;&gt;Node7</title>
<g id="a_edge53_Node000032_Node000007"><a xlink:title=" ">
<path fill="none" stroke="#63b8ff" d="M992.24,-285.98C967.18,-277.19 927.87,-263.39 899.67,-253.49"/>
<polygon fill="#63b8ff" stroke="#63b8ff" points="900.8,-250.18 890.2,-250.17 898.48,-256.78 900.8,-250.18"/>
</a>
</g>
</g>
<!-- Node32&#45;&gt;Node13 -->
<g id="edge55_Node000032_Node000013" class="edge">
<title>Node32&#45;&gt;Node13</title>
<g id="a_edge55_Node000032_Node000013"><a xlink:title=" ">
<path fill="none" stroke="#63b8ff" d="M1032.87,-285.79C1057.52,-272.87 1105.84,-248.29 1148.5,-231 1195.39,-211.99 1213.97,-222.41 1256.5,-195 1290.08,-173.36 1326.35,-156.22 1307.5,-121 1282.55,-74.38 1257.39,-75.16 1208.5,-55 1145.05,-28.83 1065.1,-17.75 1019.29,-13.29"/>
<polygon fill="#63b8ff" stroke="#63b8ff" points="1019.51,-9.79 1009.23,-12.36 1018.86,-16.76 1019.51,-9.79"/>
</a>
</g>
</g>
<!-- Node32&#45;&gt;Node27 -->
<g id="edge54_Node000032_Node000027" class="edge">
<title>Node32&#45;&gt;Node27</title>
<g id="a_edge54_Node000032_Node000027"><a xlink:title=" ">
<path fill="none" stroke="#63b8ff" d="M1015.01,-285.75C1013.83,-278.8 1012.14,-268.85 1010.66,-260.13"/>
<polygon fill="#63b8ff" stroke="#63b8ff" points="1014.08,-259.36 1008.96,-250.09 1007.18,-260.53 1014.08,-259.36"/>
</a>
</g>
</g>
<!-- Node34 -->
<g id="Node000034" class="node">
<title>Node34</title>
<g id="a_Node000034"><a xlink:href="_f_string_base_8h.html" target="_top" xlink:title=" ">
<polygon fill="white" stroke="#666666" points="583,-250 460,-250 460,-231 583,-231 583,-250"/>
<text text-anchor="middle" x="521.5" y="-238" font-family="Helvetica,sans-Serif" font-size="10.00">Kit/Text/FStringBase.h</text>
</a>
</g>
</g>
<!-- Node33&#45;&gt;Node34 -->
<g id="edge57_Node000033_Node000034" class="edge">
<title>Node33&#45;&gt;Node34</title>
<g id="a_edge57_Node000033_Node000034"><a xlink:title=" ">
<path fill="none" stroke="#63b8ff" d="M623.9,-285.98C604.18,-277.42 573.55,-264.11 550.92,-254.28"/>
<polygon fill="#63b8ff" stroke="#63b8ff" points="552.02,-250.94 541.46,-250.17 549.24,-257.37 552.02,-250.94"/>
</a>
</g>
</g>
<!-- Node35 -->
<g id="Node000035" class="node">
<title>Node35</title>
<g id="a_Node000035"><a xlink:href="_string_base_8h.html" target="_top" xlink:title=" ">
<polygon fill="white" stroke="#666666" points="583.5,-195 465.5,-195 465.5,-176 583.5,-176 583.5,-195"/>
<text text-anchor="middle" x="524.5" y="-183" font-family="Helvetica,sans-Serif" font-size="10.00">Kit/Text/StringBase.h</text>
</a>
</g>
</g>
<!-- Node34&#45;&gt;Node35 -->
<g id="edge58_Node000034_Node000035" class="edge">
<title>Node34&#45;&gt;Node35</title>
<g id="a_edge58_Node000034_Node000035"><a xlink:title=" ">
<path fill="none" stroke="#63b8ff" d="M522,-230.75C522.39,-223.8 522.95,-213.85 523.45,-205.13"/>
<polygon fill="#63b8ff" stroke="#63b8ff" points="526.94,-205.27 524.01,-195.09 519.95,-204.88 526.94,-205.27"/>
</a>
</g>
</g>
<!-- Node35&#45;&gt;Node16 -->
<g id="edge59_Node000035_Node000016" class="edge">
<title>Node35&#45;&gt;Node16</title>
<g id="a_edge59_Node000035_Node000016"><a xlink:title=" ">
<path fill="none" stroke="#63b8ff" d="M506.67,-175.98C488.89,-167.5 461.35,-154.35 440.82,-144.54"/>
<polygon fill="#63b8ff" stroke="#63b8ff" points="442.19,-141.32 431.66,-140.17 439.17,-147.64 442.19,-141.32"/>
</a>
</g>
</g>
<!-- Node36&#45;&gt;Node14 -->
<g id="edge61_Node000036_Node000014" class="edge">
<title>Node36&#45;&gt;Node14</title>
<g id="a_edge61_Node000036_Node000014"><a xlink:title=" ">
<path fill="none" stroke="#63b8ff" d="M1107.17,-288.58C1008.16,-277.33 801.89,-253.66 786.5,-250 706,-230.86 611.5,-269.24 611.5,-186.5 611.5,-186.5 611.5,-186.5 611.5,-129.5 611.5,-94.15 611.5,-52.9 611.5,-29.42"/>
<polygon fill="#63b8ff" stroke="#63b8ff" points="615,-29.16 611.5,-19.16 608,-29.16 615,-29.16"/>
</a>
</g>
</g>
<!-- Node36&#45;&gt;Node37 -->
<g id="edge62_Node000036_Node000037" class="edge">
<title>Node36&#45;&gt;Node37</title>
<g id="a_edge62_Node000036_Node000037"><a xlink:title=" ">
<path fill="none" stroke="#63b8ff" d="M1174.76,-285.98C1189.63,-277.69 1212.48,-264.94 1229.92,-255.22"/>
<polygon fill="#63b8ff" stroke="#63b8ff" points="1231.93,-258.1 1238.96,-250.17 1228.52,-251.99 1231.93,-258.1"/>
</a>
</g>
</g>
<!-- Node38 -->
<g id="Node000038" class="node">
<title>Node38</title>
<g id="a_Node000038"><a xlink:title=" ">
<polygon fill="#e0e0e0" stroke="#999999" points="1201.5,-250 1157.5,-250 1157.5,-231 1201.5,-231 1201.5,-250"/>
<text text-anchor="middle" x="1179.5" y="-238" font-family="Helvetica,sans-Serif" font-size="10.00">limits</text>
</a>
</g>
</g>
<!-- Node36&#45;&gt;Node38 -->
<g id="edge63_Node000036_Node000038" class="edge">
<title>Node36&#45;&gt;Node38</title>
<g id="a_edge63_Node000036_Node000038"><a xlink:title=" ">
<path fill="none" stroke="#63b8ff" d="M1162.8,-285.75C1165.48,-278.65 1169.35,-268.4 1172.69,-259.56"/>
<polygon fill="#63b8ff" stroke="#63b8ff" points="1176,-260.68 1176.26,-250.09 1169.45,-258.21 1176,-260.68"/>
</a>
</g>
</g>
</g>
</svg>
