<?xml version="1.0" encoding="UTF-8" standalone="no"?>
<!DOCTYPE svg PUBLIC "-//W3C//DTD SVG 1.1//EN"
 "http://www.w3.org/Graphics/SVG/1.1/DTD/svg11.dtd">
<!-- Generated by graphviz version 2.43.0 (0)
 -->
<!-- Title: Kit/Container/RingBufferAllocate.h Pages: 1 -->
<svg width="336pt" height="214pt"
 viewBox="0.00 0.00 336.00 214.00" xmlns="http://www.w3.org/2000/svg" xmlns:xlink="http://www.w3.org/1999/xlink">
<g id="graph0" class="graph" transform="scale(1 1) rotate(0) translate(4 210)">
<title>Kit/Container/RingBufferAllocate.h</title>
<!-- Node1 -->
<g id="Node000001" class="node">
<title>Node1</title>
<g id="a_Node000001"><a xlink:title=" ">
<polygon fill="#999999" stroke="#666666" points="219.5,-206 85.5,-206 85.5,-176 219.5,-176 219.5,-206"/>
<text text-anchor="start" x="93.5" y="-194" font-family="Helvetica,sans-Serif" font-size="10.00">Kit/Container/RingBuffer</text>
<text text-anchor="middle" x="152.5" y="-183" font-family="Helvetica,sans-Serif" font-size="10.00">Allocate.h</text>
</a>
</g>
</g>
<!-- Node2 -->
<g id="Node000002" class="node">
<title>Node2</title>
<g id="a_Node000002"><a xlink:href="_ring_buffer_8h.html" target="_top" xlink:title=" ">
<polygon fill="white" stroke="#666666" points="224,-140 81,-140 81,-121 224,-121 224,-140"/>
<text text-anchor="middle" x="152.5" y="-128" font-family="Helvetica,sans-Serif" font-size="10.00">Kit/Container/RingBuffer.h</text>
</a>
</g>
</g>
<!-- Node1&#45;&gt;Node2 -->
<g id="edge1_Node000001_Node000002" class="edge">
<title>Node1&#45;&gt;Node2</title>
<g id="a_edge1_Node000001_Node000002"><a xlink:title=" ">
<path fill="none" stroke="#63b8ff" d="M152.5,-175.84C152.5,-168.21 152.5,-158.7 152.5,-150.45"/>
<polygon fill="#63b8ff" stroke="#63b8ff" points="156,-150.27 152.5,-140.27 149,-150.27 156,-150.27"/>
</a>
</g>
</g>
<!-- Node3 -->
<g id="Node000003" class="node">
<title>Node3</title>
<g id="a_Node000003"><a xlink:href="_ring_buffer_base_8h.html" target="_top" xlink:title=" ">
<polygon fill="white" stroke="#666666" points="148.5,-85 14.5,-85 14.5,-55 148.5,-55 148.5,-85"/>
<text text-anchor="start" x="22.5" y="-73" font-family="Helvetica,sans-Serif" font-size="10.00">Kit/Container/RingBuffer</text>
<text text-anchor="middle" x="81.5" y="-62" font-family="Helvetica,sans-Serif" font-size="10.00">Base.h</text>
</a>
</g>
</g>
<!-- Node2&#45;&gt;Node3 -->
<g id="edge2_Node000002_Node000003" class="edge">
<title>Node2&#45;&gt;Node3</title>
<g id="a_edge2_Node000002_Node000003"><a xlink:title=" ">
<path fill="none" stroke="#63b8ff" d="M142.02,-120.87C132.75,-113.22 118.83,-101.76 106.68,-91.75"/>
<polygon fill="#63b8ff" stroke="#63b8ff" points="108.57,-88.77 98.63,-85.11 104.12,-94.17 108.57,-88.77"/>
</a>
</g>
</g>
<!-- Node6 -->
<g id="Node000006" class="node">
<title>Node6</title>
<g id="a_Node000006"><a xlink:href="_assert_8h.html" target="_top" xlink:title=" ">
<polygon fill="white" stroke="#666666" points="280,-79.5 167,-79.5 167,-60.5 280,-60.5 280,-79.5"/>
<text text-anchor="middle" x="223.5" y="-67.5" font-family="Helvetica,sans-Serif" font-size="10.00">Kit/System/Assert.h</text>
</a>
</g>
</g>
<!-- Node2&#45;&gt;Node6 -->
<g id="edge5_Node000002_Node000006" class="edge">
<title>Node2&#45;&gt;Node6</title>
<g id="a_edge5_Node000002_Node000006"><a xlink:title=" ">
<path fill="none" stroke="#63b8ff" d="M162.98,-120.87C173.99,-111.8 191.54,-97.34 204.91,-86.32"/>
<polygon fill="#63b8ff" stroke="#63b8ff" points="207.49,-88.73 212.98,-79.67 203.04,-83.33 207.49,-88.73"/>
</a>
</g>
</g>
<!-- Node4 -->
<g id="Node000004" class="node">
<title>Node4</title>
<g id="a_Node000004"><a xlink:title=" ">
<polygon fill="#e0e0e0" stroke="#999999" points="53,-19 0,-19 0,0 53,0 53,-19"/>
<text text-anchor="middle" x="26.5" y="-7" font-family="Helvetica,sans-Serif" font-size="10.00">stdint.h</text>
</a>
</g>
</g>
<!-- Node3&#45;&gt;Node4 -->
<g id="edge3_Node000003_Node000004" class="edge">
<title>Node3&#45;&gt;Node4</title>
<g id="a_edge3_Node000003_Node000004"><a xlink:title=" ">
<path fill="none" stroke="#63b8ff" d="M68.19,-54.84C60.2,-46.35 50.02,-35.52 41.72,-26.69"/>
<polygon fill="#63b8ff" stroke="#63b8ff" points="44.14,-24.15 34.74,-19.27 39.04,-28.95 44.14,-24.15"/>
</a>
</g>
</g>
<!-- Node5 -->
<g id="Node000005" class="node">
<title>Node5</title>
<g id="a_Node000005"><a xlink:title=" ">
<polygon fill="#e0e0e0" stroke="#999999" points="124,-19 71,-19 71,0 124,0 124,-19"/>
<text text-anchor="middle" x="97.5" y="-7" font-family="Helvetica,sans-Serif" font-size="10.00">stdlib.h</text>
</a>
</g>
</g>
<!-- Node3&#45;&gt;Node5 -->
<g id="edge4_Node000003_Node000005" class="edge">
<title>Node3&#45;&gt;Node5</title>
<g id="a_edge4_Node000003_Node000005"><a xlink:title=" ">
<path fill="none" stroke="#63b8ff" d="M85.37,-54.84C87.48,-47.13 90.12,-37.49 92.39,-29.17"/>
<polygon fill="#63b8ff" stroke="#63b8ff" points="95.84,-29.84 95.1,-19.27 89.09,-27.99 95.84,-29.84"/>
</a>
</g>
</g>
<!-- Node7 -->
<g id="Node000007" class="node">
<title>Node7</title>
<g id="a_Node000007"><a xlink:title=" ">
<polygon fill="#e0e0e0" stroke="#999999" points="245,-19 172,-19 172,0 245,0 245,-19"/>
<text text-anchor="middle" x="208.5" y="-7" font-family="Helvetica,sans-Serif" font-size="10.00">kit_config.h</text>
</a>
</g>
</g>
<!-- Node6&#45;&gt;Node7 -->
<g id="edge6_Node000006_Node000007" class="edge">
<title>Node6&#45;&gt;Node7</title>
<g id="a_edge6_Node000006_Node000007"><a xlink:title=" ">
<path fill="none" stroke="#63b8ff" d="M221.29,-60.37C219.18,-52.16 215.95,-39.54 213.26,-29.05"/>
<polygon fill="#63b8ff" stroke="#63b8ff" points="216.6,-27.98 210.72,-19.17 209.82,-29.72 216.6,-27.98"/>
</a>
</g>
</g>
<!-- Node8 -->
<g id="Node000008" class="node">
<title>Node8</title>
<g id="a_Node000008"><a xlink:title=" ">
<polygon fill="#e0e0e0" stroke="#999999" points="328,-19 263,-19 263,0 328,0 328,-19"/>
<text text-anchor="middle" x="295.5" y="-7" font-family="Helvetica,sans-Serif" font-size="10.00">kit_map.h</text>
</a>
</g>
</g>
<!-- Node6&#45;&gt;Node8 -->
<g id="edge7_Node000006_Node000008" class="edge">
<title>Node6&#45;&gt;Node8</title>
<g id="a_edge7_Node000006_Node000008"><a xlink:title=" ">
<path fill="none" stroke="#63b8ff" d="M234.12,-60.37C245.4,-51.21 263.42,-36.56 277.03,-25.51"/>
<polygon fill="#63b8ff" stroke="#63b8ff" points="279.28,-28.19 284.83,-19.17 274.86,-22.76 279.28,-28.19"/>
</a>
</g>
</g>
</g>
</svg>
