<?xml version="1.0" encoding="UTF-8" standalone="no"?>
<!DOCTYPE svg PUBLIC "-//W3C//DTD SVG 1.1//EN"
 "http://www.w3.org/Graphics/SVG/1.1/DTD/svg11.dtd">
<!-- Generated by graphviz version 2.43.0 (0)
 -->
<!-- Title: Kit/Container/RingBuffer.h Pages: 1 -->
<svg width="1290pt" height="170pt"
 viewBox="0.00 0.00 1290.00 170.00" xmlns="http://www.w3.org/2000/svg" xmlns:xlink="http://www.w3.org/1999/xlink">
<g id="graph0" class="graph" transform="scale(1 1) rotate(0) translate(4 166)">
<title>Kit/Container/RingBuffer.h</title>
<!-- Node1 -->
<g id="Node000001" class="node">
<title>Node1</title>
<g id="a_Node000001"><a xlink:title=" ">
<polygon fill="#999999" stroke="#666666" points="916,-162 773,-162 773,-143 916,-143 916,-162"/>
<text text-anchor="middle" x="844.5" y="-150" font-family="Helvetica,sans-Serif" font-size="10.00">Kit/Container/RingBuffer.h</text>
</a>
</g>
</g>
<!-- Node2 -->
<g id="Node000002" class="node">
<title>Node2</title>
<g id="a_Node000002"><a xlink:href="_ring_buffer_allocate_8h.html" target="_top" xlink:title=" ">
<polygon fill="white" stroke="#666666" points="320.5,-107 186.5,-107 186.5,-77 320.5,-77 320.5,-107"/>
<text text-anchor="start" x="194.5" y="-95" font-family="Helvetica,sans-Serif" font-size="10.00">Kit/Container/RingBuffer</text>
<text text-anchor="middle" x="253.5" y="-84" font-family="Helvetica,sans-Serif" font-size="10.00">Allocate.h</text>
</a>
</g>
</g>
<!-- Node1&#45;&gt;Node2 -->
<g id="edge1_Node000001_Node000002" class="edge">
<title>Node1&#45;&gt;Node2</title>
<g id="a_edge1_Node000001_Node000002"><a xlink:title=" ">
<path fill="none" stroke="#63b8ff" d="M762.88,-143.42C645.2,-131.77 430.03,-110.47 320.86,-99.67"/>
<polygon fill="#63b8ff" stroke="#63b8ff" points="762.62,-146.91 772.92,-144.41 763.31,-139.95 762.62,-146.91"/>
</a>
</g>
</g>
<!-- Node4 -->
<g id="Node000004" class="node">
<title>Node4</title>
<g id="a_Node000004"><a xlink:href="_ring_buffer_m_p_8h.html" target="_top" xlink:title=" ">
<polygon fill="white" stroke="#666666" points="666,-101.5 509,-101.5 509,-82.5 666,-82.5 666,-101.5"/>
<text text-anchor="middle" x="587.5" y="-89.5" font-family="Helvetica,sans-Serif" font-size="10.00">Kit/Container/RingBufferMP.h</text>
</a>
</g>
</g>
<!-- Node1&#45;&gt;Node4 -->
<g id="edge3_Node000001_Node000004" class="edge">
<title>Node1&#45;&gt;Node4</title>
<g id="a_edge3_Node000001_Node000004"><a xlink:title=" ">
<path fill="none" stroke="#63b8ff" d="M797.28,-140.75C747.63,-129.45 670.52,-111.9 624.92,-101.52"/>
<polygon fill="#63b8ff" stroke="#63b8ff" points="796.6,-144.19 807.13,-142.99 798.16,-137.36 796.6,-144.19"/>
</a>
</g>
</g>
<!-- Node9 -->
<g id="Node000009" class="node">
<title>Node9</title>
<g id="a_Node000009"><a xlink:href="_ring_buffer_m_t_8h.html" target="_top" xlink:title=" ">
<polygon fill="white" stroke="#666666" points="842.5,-101.5 684.5,-101.5 684.5,-82.5 842.5,-82.5 842.5,-101.5"/>
<text text-anchor="middle" x="763.5" y="-89.5" font-family="Helvetica,sans-Serif" font-size="10.00">Kit/Container/RingBufferMT.h</text>
</a>
</g>
</g>
<!-- Node1&#45;&gt;Node9 -->
<g id="edge8_Node000001_Node000009" class="edge">
<title>Node1&#45;&gt;Node9</title>
<g id="a_edge8_Node000001_Node000009"><a xlink:title=" ">
<path fill="none" stroke="#63b8ff" d="M824.21,-136.85C808.87,-125.77 788.32,-110.93 775.5,-101.67"/>
<polygon fill="#63b8ff" stroke="#63b8ff" points="822.39,-139.85 832.55,-142.87 826.49,-134.18 822.39,-139.85"/>
</a>
</g>
</g>
<!-- Node11 -->
<g id="Node000011" class="node">
<title>Node11</title>
<g id="a_Node000011"><a xlink:href="_serial_2_r_pi_2_r_p2xxx_2_uart_2_input_output_8h.html" target="_top" xlink:title=" ">
<polygon fill="white" stroke="#666666" points="992,-107 861,-107 861,-77 992,-77 992,-107"/>
<text text-anchor="start" x="869" y="-95" font-family="Helvetica,sans-Serif" font-size="10.00">Kit/Io/Serial/RPi/RP2xxx</text>
<text text-anchor="middle" x="926.5" y="-84" font-family="Helvetica,sans-Serif" font-size="10.00">/Uart/InputOutput.h</text>
</a>
</g>
</g>
<!-- Node1&#45;&gt;Node11 -->
<g id="edge10_Node000001_Node000011" class="edge">
<title>Node1&#45;&gt;Node11</title>
<g id="a_edge10_Node000001_Node000011"><a xlink:title=" ">
<path fill="none" stroke="#63b8ff" d="M864.78,-137.03C877.58,-127.9 894.02,-116.17 906.72,-107.11"/>
<polygon fill="#63b8ff" stroke="#63b8ff" points="862.71,-134.21 856.6,-142.87 866.77,-139.91 862.71,-134.21"/>
</a>
</g>
</g>
<!-- Node12 -->
<g id="Node000012" class="node">
<title>Node12</title>
<g id="a_Node000012"><a xlink:href="_stream_driver_8h.html" target="_top" xlink:title=" ">
<polygon fill="white" stroke="#666666" points="1134.5,-107 1010.5,-107 1010.5,-77 1134.5,-77 1134.5,-107"/>
<text text-anchor="start" x="1018.5" y="-95" font-family="Helvetica,sans-Serif" font-size="10.00">Kit/Io/Serial/ST/M32F4</text>
<text text-anchor="middle" x="1072.5" y="-84" font-family="Helvetica,sans-Serif" font-size="10.00">/StreamDriver.h</text>
</a>
</g>
</g>
<!-- Node1&#45;&gt;Node12 -->
<g id="edge11_Node000001_Node000012" class="edge">
<title>Node1&#45;&gt;Node12</title>
<g id="a_edge11_Node000001_Node000012"><a xlink:title=" ">
<path fill="none" stroke="#63b8ff" d="M887.6,-140.44C924.48,-130.98 977.78,-117.3 1017.69,-107.06"/>
<polygon fill="#63b8ff" stroke="#63b8ff" points="886.47,-137.12 877.65,-142.99 888.21,-143.9 886.47,-137.12"/>
</a>
</g>
</g>
<!-- Node14 -->
<g id="Node000014" class="node">
<title>Node14</title>
<g id="a_Node000014"><a xlink:href="_logger_8h.html" target="_top" xlink:title="This file declares the public facing Logging interface for managing the logging framework (i....">
<polygon fill="white" stroke="#666666" points="1282,-107 1153,-107 1153,-77 1282,-77 1282,-107"/>
<text text-anchor="start" x="1161" y="-95" font-family="Helvetica,sans-Serif" font-size="10.00">Kit/Logging/Framework</text>
<text text-anchor="middle" x="1217.5" y="-84" font-family="Helvetica,sans-Serif" font-size="10.00">/Logger.h</text>
</a>
</g>
</g>
<!-- Node1&#45;&gt;Node14 -->
<g id="edge13_Node000001_Node000014" class="edge">
<title>Node1&#45;&gt;Node14</title>
<g id="a_edge13_Node000001_Node000014"><a xlink:title=" ">
<path fill="none" stroke="#63b8ff" d="M916.98,-141.52C977.61,-132.99 1066.33,-120.04 1143.5,-107 1146.59,-106.48 1149.76,-105.93 1152.95,-105.37"/>
<polygon fill="#63b8ff" stroke="#63b8ff" points="916.16,-138.1 906.75,-142.96 917.14,-145.04 916.16,-138.1"/>
</a>
</g>
</g>
<!-- Node3 -->
<g id="Node000003" class="node">
<title>Node3</title>
<g id="a_Node000003"><a xlink:href="_kit_only_8h.html" target="_top" xlink:title=" ">
<polygon fill="white" stroke="#666666" points="129,-35.5 0,-35.5 0,-5.5 129,-5.5 129,-35.5"/>
<text text-anchor="start" x="8" y="-23.5" font-family="Helvetica,sans-Serif" font-size="10.00">Kit/Logging/Framework</text>
<text text-anchor="middle" x="64.5" y="-12.5" font-family="Helvetica,sans-Serif" font-size="10.00">/Mocked4Test/KitOnly.h</text>
</a>
</g>
</g>
<!-- Node2&#45;&gt;Node3 -->
<g id="edge2_Node000002_Node000003" class="edge">
<title>Node2&#45;&gt;Node3</title>
<g id="a_edge2_Node000002_Node000003"><a xlink:title=" ">
<path fill="none" stroke="#63b8ff" d="M205.68,-73.42C173.78,-61.68 132.39,-46.47 102.69,-35.54"/>
<polygon fill="#63b8ff" stroke="#63b8ff" points="204.66,-76.77 215.25,-76.94 207.08,-70.2 204.66,-76.77"/>
</a>
</g>
</g>
<!-- Node5 -->
<g id="Node000005" class="node">
<title>Node5</title>
<g id="a_Node000005"><a xlink:href="_led_server_8h.html" target="_top" xlink:title=" ">
<polygon fill="white" stroke="#666666" points="328,-41 147,-41 147,0 328,0 328,-41"/>
<text text-anchor="start" x="155" y="-29" font-family="Helvetica,sans-Serif" font-size="10.00">/home/runner/work/kit.core</text>
<text text-anchor="start" x="155" y="-18" font-family="Helvetica,sans-Serif" font-size="10.00">/kit.core/projects/examples</text>
<text text-anchor="middle" x="237.5" y="-7" font-family="Helvetica,sans-Serif" font-size="10.00">/Container/RingBuffer/LedServer.h</text>
</a>
</g>
</g>
<!-- Node4&#45;&gt;Node5 -->
<g id="edge4_Node000004_Node000005" class="edge">
<title>Node4&#45;&gt;Node5</title>
<g id="a_edge4_Node000004_Node000005"><a xlink:title=" ">
<path fill="none" stroke="#63b8ff" d="M534.77,-80.53C480.18,-69.69 393.86,-52.55 328.27,-39.53"/>
<polygon fill="#63b8ff" stroke="#63b8ff" points="534.09,-83.96 544.58,-82.48 535.46,-77.1 534.09,-83.96"/>
</a>
</g>
</g>
<!-- Node6 -->
<g id="Node000006" class="node">
<title>Node6</title>
<g id="a_Node000006"><a xlink:href="_producer_8h.html" target="_top" xlink:title=" ">
<polygon fill="white" stroke="#666666" points="521,-41 346,-41 346,0 521,0 521,-41"/>
<text text-anchor="start" x="354" y="-29" font-family="Helvetica,sans-Serif" font-size="10.00">/home/runner/work/kit.core</text>
<text text-anchor="start" x="354" y="-18" font-family="Helvetica,sans-Serif" font-size="10.00">/kit.core/projects/examples</text>
<text text-anchor="middle" x="433.5" y="-7" font-family="Helvetica,sans-Serif" font-size="10.00">/Container/RingBuffer/Producer.h</text>
</a>
</g>
</g>
<!-- Node4&#45;&gt;Node6 -->
<g id="edge5_Node000004_Node000006" class="edge">
<title>Node4&#45;&gt;Node6</title>
<g id="a_edge5_Node000004_Node000006"><a xlink:title=" ">
<path fill="none" stroke="#63b8ff" d="M559.38,-78.31C536.3,-67.89 503.22,-52.97 476.77,-41.03"/>
<polygon fill="#63b8ff" stroke="#63b8ff" points="558.06,-81.55 568.62,-82.48 560.94,-75.17 558.06,-81.55"/>
</a>
</g>
</g>
<!-- Node7 -->
<g id="Node000007" class="node">
<title>Node7</title>
<g id="a_Node000007"><a xlink:href="_ring_buffer_m_p_allocate_8h.html" target="_top" xlink:title=" ">
<polygon fill="white" stroke="#666666" points="673.5,-35.5 539.5,-35.5 539.5,-5.5 673.5,-5.5 673.5,-35.5"/>
<text text-anchor="start" x="547.5" y="-23.5" font-family="Helvetica,sans-Serif" font-size="10.00">Kit/Container/RingBuffer</text>
<text text-anchor="middle" x="606.5" y="-12.5" font-family="Helvetica,sans-Serif" font-size="10.00">MPAllocate.h</text>
</a>
</g>
</g>
<!-- Node4&#45;&gt;Node7 -->
<g id="edge6_Node000004_Node000007" class="edge">
<title>Node4&#45;&gt;Node7</title>
<g id="a_edge6_Node000004_Node000007"><a xlink:title=" ">
<path fill="none" stroke="#63b8ff" d="M592.54,-72.57C595.7,-61 599.72,-46.29 602.64,-35.64"/>
<polygon fill="#63b8ff" stroke="#63b8ff" points="589.09,-71.91 589.83,-82.48 595.84,-73.75 589.09,-71.91"/>
</a>
</g>
</g>
<!-- Node8 -->
<g id="Node000008" class="node">
<title>Node8</title>
<g id="a_Node000008"><a xlink:href="_log_sink_8h.html" target="_top" xlink:title=" ">
<polygon fill="white" stroke="#666666" points="821,-35.5 692,-35.5 692,-5.5 821,-5.5 821,-35.5"/>
<text text-anchor="start" x="700" y="-23.5" font-family="Helvetica,sans-Serif" font-size="10.00">Kit/Logging/Framework</text>
<text text-anchor="middle" x="756.5" y="-12.5" font-family="Helvetica,sans-Serif" font-size="10.00">/LogSink.h</text>
</a>
</g>
</g>
<!-- Node4&#45;&gt;Node8 -->
<g id="edge7_Node000004_Node000008" class="edge">
<title>Node4&#45;&gt;Node8</title>
<g id="a_edge7_Node000004_Node000008"><a xlink:title=" ">
<path fill="none" stroke="#63b8ff" d="M617.57,-78.63C646.99,-66.54 691.73,-48.14 722.44,-35.51"/>
<polygon fill="#63b8ff" stroke="#63b8ff" points="616.14,-75.44 608.22,-82.48 618.8,-81.91 616.14,-75.44"/>
</a>
</g>
</g>
<!-- Node10 -->
<g id="Node000010" class="node">
<title>Node10</title>
<g id="a_Node000010"><a xlink:href="_ring_buffer_m_t_allocate_8h.html" target="_top" xlink:title=" ">
<polygon fill="white" stroke="#666666" points="973.5,-35.5 839.5,-35.5 839.5,-5.5 973.5,-5.5 973.5,-35.5"/>
<text text-anchor="start" x="847.5" y="-23.5" font-family="Helvetica,sans-Serif" font-size="10.00">Kit/Container/RingBuffer</text>
<text text-anchor="middle" x="906.5" y="-12.5" font-family="Helvetica,sans-Serif" font-size="10.00">MTAllocate.h</text>
</a>
</g>
</g>
<!-- Node9&#45;&gt;Node10 -->
<g id="edge9_Node000009_Node000010" class="edge">
<title>Node9&#45;&gt;Node10</title>
<g id="a_edge9_Node000009_Node000010"><a xlink:title=" ">
<path fill="none" stroke="#63b8ff" d="M790.25,-78C815.15,-65.9 852.14,-47.92 877.68,-35.51"/>
<polygon fill="#63b8ff" stroke="#63b8ff" points="788.5,-74.96 781.03,-82.48 791.56,-81.25 788.5,-74.96"/>
</a>
</g>
</g>
<!-- Node13 -->
<g id="Node000013" class="node">
<title>Node13</title>
<g id="a_Node000013"><a xlink:href="_serial_2_s_t_2_m32_f4_2_input_output_8h.html" target="_top" xlink:title=" ">
<polygon fill="white" stroke="#666666" points="1134.5,-35.5 1010.5,-35.5 1010.5,-5.5 1134.5,-5.5 1134.5,-35.5"/>
<text text-anchor="start" x="1018.5" y="-23.5" font-family="Helvetica,sans-Serif" font-size="10.00">Kit/Io/Serial/ST/M32F4</text>
<text text-anchor="middle" x="1072.5" y="-12.5" font-family="Helvetica,sans-Serif" font-size="10.00">/InputOutput.h</text>
</a>
</g>
</g>
<!-- Node12&#45;&gt;Node13 -->
<g id="edge12_Node000012_Node000013" class="edge">
<title>Node12&#45;&gt;Node13</title>
<g id="a_edge12_Node000012_Node000013"><a xlink:title=" ">
<path fill="none" stroke="#63b8ff" d="M1072.5,-66.75C1072.5,-56.31 1072.5,-44.49 1072.5,-35.54"/>
<polygon fill="#63b8ff" stroke="#63b8ff" points="1069,-66.94 1072.5,-76.94 1076,-66.94 1069,-66.94"/>
</a>
</g>
</g>
</g>
</svg>
