<?xml version="1.0" encoding="UTF-8" standalone="no"?>
<!DOCTYPE svg PUBLIC "-//W3C//DTD SVG 1.1//EN"
 "http://www.w3.org/Graphics/SVG/1.1/DTD/svg11.dtd">
<!-- Generated by graphviz version 2.43.0 (0)
 -->
<!-- Title: Kit/Itc/SAP.h Pages: 1 -->
<svg width="293pt" height="302pt"
 viewBox="0.00 0.00 293.00 302.00" xmlns="http://www.w3.org/2000/svg" xmlns:xlink="http://www.w3.org/1999/xlink">
<g id="graph0" class="graph" transform="scale(1 1) rotate(0) translate(4 298)">
<title>Kit/Itc/SAP.h</title>
<!-- Node1 -->
<g id="Node000001" class="node">
<title>Node1</title>
<g id="a_Node000001"><a xlink:title=" ">
<polygon fill="#999999" stroke="#666666" points="172,-294 97,-294 97,-275 172,-275 172,-294"/>
<text text-anchor="middle" x="134.5" y="-282" font-family="Helvetica,sans-Serif" font-size="10.00">Kit/Itc/SAP.h</text>
</a>
</g>
</g>
<!-- Node2 -->
<g id="Node000002" class="node">
<title>Node2</title>
<g id="a_Node000002"><a xlink:href="_i_close_request_8h.html" target="_top" xlink:title=" ">
<polygon fill="white" stroke="#666666" points="285,-129 158,-129 158,-110 285,-110 285,-129"/>
<text text-anchor="middle" x="221.5" y="-117" font-family="Helvetica,sans-Serif" font-size="10.00">Kit/Itc/ICloseRequest.h</text>
</a>
</g>
</g>
<!-- Node1&#45;&gt;Node2 -->
<g id="edge1_Node000001_Node000002" class="edge">
<title>Node1&#45;&gt;Node2</title>
<g id="a_edge1_Node000001_Node000002"><a xlink:title=" ">
<path fill="none" stroke="#63b8ff" d="M168.21,-270.84C183.76,-263.55 201.42,-253.02 213.5,-239 235.82,-213.1 239.34,-198.84 234.5,-165 232.68,-152.25 228.05,-138.06 224.84,-129.2"/>
<polygon fill="#63b8ff" stroke="#63b8ff" points="166.6,-267.72 158.86,-274.96 169.43,-274.13 166.6,-267.72"/>
</a>
</g>
</g>
<!-- Node4 -->
<g id="Node000004" class="node">
<title>Node4</title>
<g id="a_Node000004"><a xlink:href="_i_open_request_8h.html" target="_top" xlink:title=" ">
<polygon fill="white" stroke="#666666" points="125,-129 0,-129 0,-110 125,-110 125,-129"/>
<text text-anchor="middle" x="62.5" y="-117" font-family="Helvetica,sans-Serif" font-size="10.00">Kit/Itc/IOpenRequest.h</text>
</a>
</g>
</g>
<!-- Node1&#45;&gt;Node4 -->
<g id="edge3_Node000001_Node000004" class="edge">
<title>Node1&#45;&gt;Node4</title>
<g id="a_edge3_Node000001_Node000004"><a xlink:title=" ">
<path fill="none" stroke="#63b8ff" d="M98.5,-270.99C83.08,-263.89 66.19,-253.47 55.5,-239 35.7,-212.2 36.82,-197.64 43.5,-165 46.19,-151.83 52.94,-137.74 57.62,-129.02"/>
<polygon fill="#63b8ff" stroke="#63b8ff" points="97.28,-274.27 107.85,-274.99 100.03,-267.84 97.28,-274.27"/>
</a>
</g>
</g>
<!-- Node6 -->
<g id="Node000006" class="node">
<title>Node6</title>
<g id="a_Node000006"><a xlink:href="_request_message_8h.html" target="_top" xlink:title=" ">
<polygon fill="white" stroke="#666666" points="204.5,-239 64.5,-239 64.5,-220 204.5,-220 204.5,-239"/>
<text text-anchor="middle" x="134.5" y="-227" font-family="Helvetica,sans-Serif" font-size="10.00">Kit/Itc/RequestMessage.h</text>
</a>
</g>
</g>
<!-- Node1&#45;&gt;Node6 -->
<g id="edge6_Node000001_Node000006" class="edge">
<title>Node1&#45;&gt;Node6</title>
<g id="a_edge6_Node000001_Node000006"><a xlink:title=" ">
<path fill="none" stroke="#63b8ff" d="M134.5,-264.66C134.5,-255.93 134.5,-245.99 134.5,-239.09"/>
<polygon fill="#63b8ff" stroke="#63b8ff" points="131,-264.75 134.5,-274.75 138,-264.75 131,-264.75"/>
</a>
</g>
</g>
<!-- Node3 -->
<g id="Node000003" class="node">
<title>Node3</title>
<g id="a_Node000003"><a xlink:href="_open_close_sync_8h.html" target="_top" xlink:title=" ">
<polygon fill="white" stroke="#666666" points="200,-19 67,-19 67,0 200,0 200,-19"/>
<text text-anchor="middle" x="133.5" y="-7" font-family="Helvetica,sans-Serif" font-size="10.00">Kit/Itc/OpenCloseSync.h</text>
</a>
</g>
</g>
<!-- Node2&#45;&gt;Node3 -->
<g id="edge2_Node000002_Node000003" class="edge">
<title>Node2&#45;&gt;Node3</title>
<g id="a_edge2_Node000002_Node000003"><a xlink:title=" ">
<path fill="none" stroke="#63b8ff" d="M207.8,-101.69C188.8,-78.37 155.13,-37.05 140.55,-19.16"/>
<polygon fill="#63b8ff" stroke="#63b8ff" points="205.27,-104.12 214.3,-109.66 210.7,-99.7 205.27,-104.12"/>
</a>
</g>
</g>
<!-- Node5 -->
<g id="Node000005" class="node">
<title>Node5</title>
<g id="a_Node000005"><a xlink:href="_open_sync_8h.html" target="_top" xlink:title=" ">
<polygon fill="white" stroke="#666666" points="146.5,-74 40.5,-74 40.5,-55 146.5,-55 146.5,-74"/>
<text text-anchor="middle" x="93.5" y="-62" font-family="Helvetica,sans-Serif" font-size="10.00">Kit/Itc/OpenSync.h</text>
</a>
</g>
</g>
<!-- Node4&#45;&gt;Node5 -->
<g id="edge4_Node000004_Node000005" class="edge">
<title>Node4&#45;&gt;Node5</title>
<g id="a_edge4_Node000004_Node000005"><a xlink:title=" ">
<path fill="none" stroke="#63b8ff" d="M72.68,-101.1C77.97,-92.04 84.22,-81.37 88.48,-74.09"/>
<polygon fill="#63b8ff" stroke="#63b8ff" points="69.65,-99.35 67.62,-109.75 75.69,-102.88 69.65,-99.35"/>
</a>
</g>
</g>
<!-- Node5&#45;&gt;Node3 -->
<g id="edge5_Node000005_Node000003" class="edge">
<title>Node5&#45;&gt;Node3</title>
<g id="a_edge5_Node000005_Node000003"><a xlink:title=" ">
<path fill="none" stroke="#63b8ff" d="M106.2,-46.67C113.13,-37.5 121.41,-26.52 127.02,-19.09"/>
<polygon fill="#63b8ff" stroke="#63b8ff" points="103.34,-44.66 100.11,-54.75 108.92,-48.87 103.34,-44.66"/>
</a>
</g>
</g>
<!-- Node6&#45;&gt;Node2 -->
<g id="edge7_Node000006_Node000002" class="edge">
<title>Node6&#45;&gt;Node2</title>
<g id="a_edge7_Node000006_Node000002"><a xlink:title=" ">
<path fill="none" stroke="#63b8ff" d="M175.87,-216.07C191.55,-209.19 207.92,-198.93 217.5,-184 228.36,-167.08 225.8,-142.12 223.41,-129.11"/>
<polygon fill="#63b8ff" stroke="#63b8ff" points="174.24,-212.95 166.26,-219.92 176.85,-219.45 174.24,-212.95"/>
</a>
</g>
</g>
<!-- Node6&#45;&gt;Node4 -->
<g id="edge8_Node000006_Node000004" class="edge">
<title>Node6&#45;&gt;Node4</title>
<g id="a_edge8_Node000006_Node000004"><a xlink:title=" ">
<path fill="none" stroke="#63b8ff" d="M91.93,-216.05C76.41,-209.22 60.47,-198.99 51.5,-184 41.16,-166.72 50.8,-142.35 57.43,-129.4"/>
<polygon fill="#63b8ff" stroke="#63b8ff" points="90.9,-219.4 101.48,-219.87 93.5,-212.9 90.9,-219.4"/>
</a>
</g>
</g>
<!-- Node7 -->
<g id="Node000007" class="node">
<title>Node7</title>
<g id="a_Node000007"><a xlink:href="_response_message_8h.html" target="_top" xlink:title=" ">
<polygon fill="white" stroke="#666666" points="208.5,-184 60.5,-184 60.5,-165 208.5,-165 208.5,-184"/>
<text text-anchor="middle" x="134.5" y="-172" font-family="Helvetica,sans-Serif" font-size="10.00">Kit/Itc/ResponseMessage.h</text>
</a>
</g>
</g>
<!-- Node6&#45;&gt;Node7 -->
<g id="edge9_Node000006_Node000007" class="edge">
<title>Node6&#45;&gt;Node7</title>
<g id="a_edge9_Node000006_Node000007"><a xlink:title=" ">
<path fill="none" stroke="#63b8ff" d="M134.5,-209.66C134.5,-200.93 134.5,-190.99 134.5,-184.09"/>
<polygon fill="#63b8ff" stroke="#63b8ff" points="131,-209.75 134.5,-219.75 138,-209.75 131,-209.75"/>
</a>
</g>
</g>
<!-- Node7&#45;&gt;Node2 -->
<g id="edge10_Node000007_Node000002" class="edge">
<title>Node7&#45;&gt;Node2</title>
<g id="a_edge10_Node000007_Node000002"><a xlink:title=" ">
<path fill="none" stroke="#63b8ff" d="M157.16,-159.7C173.01,-150.04 193.69,-137.44 207.27,-129.17"/>
<polygon fill="#63b8ff" stroke="#63b8ff" points="155.2,-156.79 148.48,-164.98 158.84,-162.77 155.2,-156.79"/>
</a>
</g>
</g>
<!-- Node7&#45;&gt;Node4 -->
<g id="edge11_Node000007_Node000004" class="edge">
<title>Node7&#45;&gt;Node4</title>
<g id="a_edge11_Node000007_Node000004"><a xlink:title=" ">
<path fill="none" stroke="#63b8ff" d="M114.63,-158.88C101.68,-149.34 85.2,-137.21 74.28,-129.17"/>
<polygon fill="#63b8ff" stroke="#63b8ff" points="112.8,-161.88 122.93,-164.98 116.95,-156.24 112.8,-161.88"/>
</a>
</g>
</g>
</g>
</svg>
