<?xml version="1.0" encoding="UTF-8" standalone="no"?>
<!DOCTYPE svg PUBLIC "-//W3C//DTD SVG 1.1//EN"
 "http://www.w3.org/Graphics/SVG/1.1/DTD/svg11.dtd">
<!-- Generated by graphviz version 2.43.0 (0)
 -->
<!-- Title: Kit/Container/SListBase.h Pages: 1 -->
<svg width="647pt" height="357pt"
 viewBox="0.00 0.00 647.00 357.00" xmlns="http://www.w3.org/2000/svg" xmlns:xlink="http://www.w3.org/1999/xlink">
<g id="graph0" class="graph" transform="scale(1 1) rotate(0) translate(4 353)">
<title>Kit/Container/SListBase.h</title>
<!-- Node1 -->
<g id="Node000001" class="node">
<title>Node1</title>
<g id="a_Node000001"><a xlink:title=" ">
<polygon fill="#999999" stroke="#666666" points="373.5,-349 233.5,-349 233.5,-330 373.5,-330 373.5,-349"/>
<text text-anchor="middle" x="303.5" y="-337" font-family="Helvetica,sans-Serif" font-size="10.00">Kit/Container/SListBase.h</text>
</a>
</g>
</g>
<!-- Node2 -->
<g id="Node000002" class="node">
<title>Node2</title>
<g id="a_Node000002"><a xlink:href="_s_list_8h.html" target="_top" xlink:title=" ">
<polygon fill="white" stroke="#666666" points="361.5,-294 245.5,-294 245.5,-275 361.5,-275 361.5,-294"/>
<text text-anchor="middle" x="303.5" y="-282" font-family="Helvetica,sans-Serif" font-size="10.00">Kit/Container/SList.h</text>
</a>
</g>
</g>
<!-- Node1&#45;&gt;Node2 -->
<g id="edge1_Node000001_Node000002" class="edge">
<title>Node1&#45;&gt;Node2</title>
<g id="a_edge1_Node000001_Node000002"><a xlink:title=" ">
<path fill="none" stroke="#63b8ff" d="M303.5,-319.66C303.5,-310.93 303.5,-300.99 303.5,-294.09"/>
<polygon fill="#63b8ff" stroke="#63b8ff" points="300,-319.75 303.5,-329.75 307,-319.75 300,-319.75"/>
</a>
</g>
</g>
<!-- Node3 -->
<g id="Node000003" class="node">
<title>Node3</title>
<g id="a_Node000003"><a xlink:href="_model_database_8h.html" target="_top" xlink:title=" ">
<polygon fill="white" stroke="#666666" points="153,-233.5 14,-233.5 14,-214.5 153,-214.5 153,-233.5"/>
<text text-anchor="middle" x="83.5" y="-221.5" font-family="Helvetica,sans-Serif" font-size="10.00">Kit/Dm/ModelDatabase.h</text>
</a>
</g>
</g>
<!-- Node2&#45;&gt;Node3 -->
<g id="edge2_Node000002_Node000003" class="edge">
<title>Node2&#45;&gt;Node3</title>
<g id="a_edge2_Node000002_Node000003"><a xlink:title=" ">
<path fill="none" stroke="#63b8ff" d="M261.74,-272.4C219.2,-261.08 154.16,-243.79 115.53,-233.52"/>
<polygon fill="#63b8ff" stroke="#63b8ff" points="260.95,-275.81 271.51,-274.99 262.75,-269.04 260.95,-275.81"/>
</a>
</g>
</g>
<!-- Node5 -->
<g id="Node000005" class="node">
<title>Node5</title>
<g id="a_Node000005"><a xlink:href="_tee_output_8h.html" target="_top" xlink:title=" ">
<polygon fill="white" stroke="#666666" points="275.5,-233.5 171.5,-233.5 171.5,-214.5 275.5,-214.5 275.5,-233.5"/>
<text text-anchor="middle" x="223.5" y="-221.5" font-family="Helvetica,sans-Serif" font-size="10.00">Kit/Io/TeeOutput.h</text>
</a>
</g>
</g>
<!-- Node2&#45;&gt;Node5 -->
<g id="edge4_Node000002_Node000005" class="edge">
<title>Node2&#45;&gt;Node5</title>
<g id="a_edge4_Node000002_Node000005"><a xlink:title=" ">
<path fill="none" stroke="#63b8ff" d="M283.46,-268.85C268.31,-257.77 248.02,-242.93 235.35,-233.67"/>
<polygon fill="#63b8ff" stroke="#63b8ff" points="281.56,-271.79 291.7,-274.87 285.69,-266.14 281.56,-271.79"/>
</a>
</g>
</g>
<!-- Node6 -->
<g id="Node000006" class="node">
<title>Node6</title>
<g id="a_Node000006"><a xlink:href="_mailbox_8h.html" target="_top" xlink:title=" ">
<polygon fill="white" stroke="#666666" points="284.5,-162 188.5,-162 188.5,-143 284.5,-143 284.5,-162"/>
<text text-anchor="middle" x="236.5" y="-150" font-family="Helvetica,sans-Serif" font-size="10.00">Kit/Itc/Mailbox.h</text>
</a>
</g>
</g>
<!-- Node2&#45;&gt;Node6 -->
<g id="edge5_Node000002_Node000006" class="edge">
<title>Node2&#45;&gt;Node6</title>
<g id="a_edge5_Node000002_Node000006"><a xlink:title=" ">
<path fill="none" stroke="#63b8ff" d="M301.18,-264.78C298.68,-249.18 293.75,-226.71 284.5,-209 274.71,-190.26 257.43,-172.48 246.5,-162.31"/>
<polygon fill="#63b8ff" stroke="#63b8ff" points="297.72,-265.36 302.59,-274.77 304.65,-264.38 297.72,-265.36"/>
</a>
</g>
</g>
<!-- Node10 -->
<g id="Node000010" class="node">
<title>Node10</title>
<g id="a_Node000010"><a xlink:href="_i_event_flag_8h.html" target="_top" xlink:title=" ">
<polygon fill="white" stroke="#666666" points="465.5,-233.5 331.5,-233.5 331.5,-214.5 465.5,-214.5 465.5,-233.5"/>
<text text-anchor="middle" x="398.5" y="-221.5" font-family="Helvetica,sans-Serif" font-size="10.00">Kit/System/IEventFlag.h</text>
</a>
</g>
</g>
<!-- Node2&#45;&gt;Node10 -->
<g id="edge9_Node000002_Node000010" class="edge">
<title>Node2&#45;&gt;Node10</title>
<g id="a_edge9_Node000002_Node000010"><a xlink:title=" ">
<path fill="none" stroke="#63b8ff" d="M326.29,-269.47C344.38,-258.32 369.11,-243.1 384.42,-233.67"/>
<polygon fill="#63b8ff" stroke="#63b8ff" points="324.2,-266.64 317.52,-274.87 327.87,-272.6 324.2,-266.64"/>
</a>
</g>
</g>
<!-- Node13 -->
<g id="Node000013" class="node">
<title>Node13</title>
<g id="a_Node000013"><a xlink:href="_supervisor_8h.html" target="_top" xlink:title=" ">
<polygon fill="white" stroke="#666666" points="625,-239 504,-239 504,-209 625,-209 625,-239"/>
<text text-anchor="start" x="512" y="-227" font-family="Helvetica,sans-Serif" font-size="10.00">Kit/System/Watchdog</text>
<text text-anchor="middle" x="564.5" y="-216" font-family="Helvetica,sans-Serif" font-size="10.00">/Supervisor.h</text>
</a>
</g>
</g>
<!-- Node2&#45;&gt;Node13 -->
<g id="edge14_Node000002_Node000013" class="edge">
<title>Node2&#45;&gt;Node13</title>
<g id="a_edge14_Node000002_Node000013"><a xlink:title=" ">
<path fill="none" stroke="#63b8ff" d="M351.36,-272.77C394.23,-263.16 457.34,-249.02 503.76,-238.61"/>
<polygon fill="#63b8ff" stroke="#63b8ff" points="350.44,-269.39 341.45,-274.99 351.98,-276.22 350.44,-269.39"/>
</a>
</g>
</g>
<!-- Node4 -->
<g id="Node000004" class="node">
<title>Node4</title>
<g id="a_Node000004"><a xlink:href="_model_points_8h.html" target="_top" xlink:title="This file defines all of the Model Points for Example application.">
<polygon fill="white" stroke="#666666" points="167,-173 0,-173 0,-132 167,-132 167,-173"/>
<text text-anchor="start" x="8" y="-161" font-family="Helvetica,sans-Serif" font-size="10.00">/home/runner/work/kit.core</text>
<text text-anchor="start" x="8" y="-150" font-family="Helvetica,sans-Serif" font-size="10.00">/kit.core/projects/examples</text>
<text text-anchor="middle" x="83.5" y="-139" font-family="Helvetica,sans-Serif" font-size="10.00">/Dm/Transaction/ModelPoints.h</text>
</a>
</g>
</g>
<!-- Node3&#45;&gt;Node4 -->
<g id="edge3_Node000003_Node000004" class="edge">
<title>Node3&#45;&gt;Node4</title>
<g id="a_edge3_Node000003_Node000004"><a xlink:title=" ">
<path fill="none" stroke="#63b8ff" d="M83.5,-204.38C83.5,-194.74 83.5,-182.96 83.5,-173.17"/>
<polygon fill="#63b8ff" stroke="#63b8ff" points="80,-204.48 83.5,-214.48 87,-204.48 80,-204.48"/>
</a>
</g>
</g>
<!-- Node7 -->
<g id="Node000007" class="node">
<title>Node7</title>
<g id="a_Node000007"><a xlink:href="src_2_kit_2_event_queue_2_server_8h.html" target="_top" xlink:title=" ">
<polygon fill="white" stroke="#666666" points="293,-90.5 158,-90.5 158,-71.5 293,-71.5 293,-90.5"/>
<text text-anchor="middle" x="225.5" y="-78.5" font-family="Helvetica,sans-Serif" font-size="10.00">Kit/EventQueue/Server.h</text>
</a>
</g>
</g>
<!-- Node6&#45;&gt;Node7 -->
<g id="edge6_Node000006_Node000007" class="edge">
<title>Node6&#45;&gt;Node7</title>
<g id="a_edge6_Node000006_Node000007"><a xlink:title=" ">
<path fill="none" stroke="#63b8ff" d="M233.53,-132.71C231.36,-119 228.51,-101.05 226.86,-90.59"/>
<polygon fill="#63b8ff" stroke="#63b8ff" points="230.13,-133.65 235.15,-142.98 237.04,-132.55 230.13,-133.65"/>
</a>
</g>
</g>
<!-- Node8 -->
<g id="Node000008" class="node">
<title>Node8</title>
<g id="a_Node000008"><a xlink:href="_with_periodic_scheduling_8h.html" target="_top" xlink:title=" ">
<polygon fill="white" stroke="#666666" points="304,-30 147,-30 147,0 304,0 304,-30"/>
<text text-anchor="start" x="155" y="-18" font-family="Helvetica,sans-Serif" font-size="10.00">Kit/EventQueue/WithPeriodic</text>
<text text-anchor="middle" x="225.5" y="-7" font-family="Helvetica,sans-Serif" font-size="10.00">Scheduling.h</text>
</a>
</g>
</g>
<!-- Node7&#45;&gt;Node8 -->
<g id="edge7_Node000007_Node000008" class="edge">
<title>Node7&#45;&gt;Node8</title>
<g id="a_edge7_Node000007_Node000008"><a xlink:title=" ">
<path fill="none" stroke="#63b8ff" d="M225.5,-61.35C225.5,-51.47 225.5,-39.51 225.5,-30.36"/>
<polygon fill="#63b8ff" stroke="#63b8ff" points="222,-61.37 225.5,-71.37 229,-61.37 222,-61.37"/>
</a>
</g>
</g>
<!-- Node9 -->
<g id="Node000009" class="node">
<title>Node9</title>
<g id="a_Node000009"><a xlink:href="helpers_8h.html" target="_top" xlink:title="This file defines helper functions/interface for writing unit tests.">
<polygon fill="white" stroke="#666666" points="487.5,-30 375.5,-30 375.5,0 487.5,0 487.5,-30"/>
<text text-anchor="start" x="383.5" y="-18" font-family="Helvetica,sans-Serif" font-size="10.00">Kit/_support/testing</text>
<text text-anchor="middle" x="431.5" y="-7" font-family="Helvetica,sans-Serif" font-size="10.00">/helpers.h</text>
</a>
</g>
</g>
<!-- Node7&#45;&gt;Node9 -->
<g id="edge8_Node000007_Node000009" class="edge">
<title>Node7&#45;&gt;Node9</title>
<g id="a_edge8_Node000007_Node000009"><a xlink:title=" ">
<path fill="none" stroke="#63b8ff" d="M263.01,-68.35C297.63,-57.59 349.13,-41.59 386.07,-30.12"/>
<polygon fill="#63b8ff" stroke="#63b8ff" points="261.79,-65.06 253.28,-71.37 263.87,-71.74 261.79,-65.06"/>
</a>
</g>
</g>
<!-- Node10&#45;&gt;Node9 -->
<g id="edge13_Node000010_Node000009" class="edge">
<title>Node10&#45;&gt;Node9</title>
<g id="a_edge13_Node000010_Node000009"><a xlink:title=" ">
<path fill="none" stroke="#63b8ff" d="M424.22,-209.16C437.44,-200.6 452.43,-188.31 460.5,-173 482.7,-130.86 480.82,-111.43 466.5,-66 462.23,-52.46 452.84,-39.39 444.86,-30.02"/>
<polygon fill="#63b8ff" stroke="#63b8ff" points="422.19,-206.3 415.46,-214.48 425.82,-212.28 422.19,-206.3"/>
</a>
</g>
</g>
<!-- Node11 -->
<g id="Node000011" class="node">
<title>Node11</title>
<g id="a_Node000011"><a xlink:href="_event_loop_8h.html" target="_top" xlink:title=" ">
<polygon fill="white" stroke="#666666" points="451,-162 318,-162 318,-143 451,-143 451,-162"/>
<text text-anchor="middle" x="384.5" y="-150" font-family="Helvetica,sans-Serif" font-size="10.00">Kit/System/EventLoop.h</text>
</a>
</g>
</g>
<!-- Node10&#45;&gt;Node11 -->
<g id="edge10_Node000010_Node000011" class="edge">
<title>Node10&#45;&gt;Node11</title>
<g id="a_edge10_Node000010_Node000011"><a xlink:title=" ">
<path fill="none" stroke="#63b8ff" d="M394.8,-204.62C392.03,-190.86 388.36,-172.65 386.23,-162.09"/>
<polygon fill="#63b8ff" stroke="#63b8ff" points="391.38,-205.37 396.78,-214.48 398.24,-203.98 391.38,-205.37"/>
</a>
</g>
</g>
<!-- Node11&#45;&gt;Node7 -->
<g id="edge11_Node000011_Node000007" class="edge">
<title>Node11&#45;&gt;Node7</title>
<g id="a_edge11_Node000011_Node000007"><a xlink:title=" ">
<path fill="none" stroke="#63b8ff" d="M355.72,-138.92C323.72,-124.93 272.9,-102.72 245.16,-90.59"/>
<polygon fill="#63b8ff" stroke="#63b8ff" points="354.44,-142.18 365,-142.98 357.24,-135.77 354.44,-142.18"/>
</a>
</g>
</g>
<!-- Node12 -->
<g id="Node000012" class="node">
<title>Node12</title>
<g id="a_Node000012"><a xlink:href="_event_loop_with_p_scheduling_8h.html" target="_top" xlink:title=" ">
<polygon fill="white" stroke="#666666" points="457.5,-96 311.5,-96 311.5,-66 457.5,-66 457.5,-96"/>
<text text-anchor="start" x="319.5" y="-84" font-family="Helvetica,sans-Serif" font-size="10.00">Kit/System/EventLoopWith</text>
<text text-anchor="middle" x="384.5" y="-73" font-family="Helvetica,sans-Serif" font-size="10.00">PScheduling.h</text>
</a>
</g>
</g>
<!-- Node11&#45;&gt;Node12 -->
<g id="edge12_Node000011_Node000012" class="edge">
<title>Node11&#45;&gt;Node12</title>
<g id="a_edge12_Node000011_Node000012"><a xlink:title=" ">
<path fill="none" stroke="#63b8ff" d="M384.5,-132.71C384.5,-121.19 384.5,-106.68 384.5,-96.14"/>
<polygon fill="#63b8ff" stroke="#63b8ff" points="381,-132.98 384.5,-142.98 388,-132.98 381,-132.98"/>
</a>
</g>
</g>
<!-- Node14 -->
<g id="Node000014" class="node">
<title>Node14</title>
<g id="a_Node000014"><a xlink:href="_watched_raw_thread_8h.html" target="_top" xlink:title=" ">
<polygon fill="white" stroke="#666666" points="639,-167.5 514,-167.5 514,-137.5 639,-137.5 639,-167.5"/>
<text text-anchor="start" x="522" y="-155.5" font-family="Helvetica,sans-Serif" font-size="10.00">Kit/System/Watchdog</text>
<text text-anchor="middle" x="576.5" y="-144.5" font-family="Helvetica,sans-Serif" font-size="10.00">/WatchedRawThread.h</text>
</a>
</g>
</g>
<!-- Node13&#45;&gt;Node14 -->
<g id="edge15_Node000013_Node000014" class="edge">
<title>Node13&#45;&gt;Node14</title>
<g id="a_edge15_Node000013_Node000014"><a xlink:title=" ">
<path fill="none" stroke="#63b8ff" d="M568.63,-199.08C570.45,-188.56 572.51,-176.58 574.08,-167.54"/>
<polygon fill="#63b8ff" stroke="#63b8ff" points="565.18,-198.49 566.93,-208.94 572.08,-199.68 565.18,-198.49"/>
</a>
</g>
</g>
</g>
</svg>
