<?xml version="1.0" encoding="UTF-8" standalone="no"?>
<!DOCTYPE svg PUBLIC "-//W3C//DTD SVG 1.1//EN"
 "http://www.w3.org/Graphics/SVG/1.1/DTD/svg11.dtd">
<!-- Generated by graphviz version 2.43.0 (0)
 -->
<!-- Title: Kit/Container/SList.h Pages: 1 -->
<svg width="445pt" height="291pt"
 viewBox="0.00 0.00 444.50 291.00" xmlns="http://www.w3.org/2000/svg" xmlns:xlink="http://www.w3.org/1999/xlink">
<g id="graph0" class="graph" transform="scale(1 1) rotate(0) translate(4 287)">
<title>Kit/Container/SList.h</title>
<!-- Node1 -->
<g id="Node000001" class="node">
<title>Node1</title>
<g id="a_Node000001"><a xlink:title=" ">
<polygon fill="#999999" stroke="#666666" points="237,-283 121,-283 121,-264 237,-264 237,-283"/>
<text text-anchor="middle" x="179" y="-271" font-family="Helvetica,sans-Serif" font-size="10.00">Kit/Container/SList.h</text>
</a>
</g>
</g>
<!-- Node2 -->
<g id="Node000002" class="node">
<title>Node2</title>
<g id="a_Node000002"><a xlink:href="_tee_output_8h.html" target="_top" xlink:title=" ">
<polygon fill="white" stroke="#666666" points="104,-222.5 0,-222.5 0,-203.5 104,-203.5 104,-222.5"/>
<text text-anchor="middle" x="52" y="-210.5" font-family="Helvetica,sans-Serif" font-size="10.00">Kit/Io/TeeOutput.h</text>
</a>
</g>
</g>
<!-- Node1&#45;&gt;Node2 -->
<g id="edge1_Node000001_Node000002" class="edge">
<title>Node1&#45;&gt;Node2</title>
<g id="a_edge1_Node000001_Node000002"><a xlink:title=" ">
<path fill="none" stroke="#63b8ff" d="M151.39,-259.78C126.88,-248.49 91.76,-232.31 70.49,-222.52"/>
<polygon fill="#63b8ff" stroke="#63b8ff" points="149.99,-262.99 160.53,-263.99 152.91,-256.63 149.99,-262.99"/>
</a>
</g>
</g>
<!-- Node3 -->
<g id="Node000003" class="node">
<title>Node3</title>
<g id="a_Node000003"><a xlink:href="_mailbox_8h.html" target="_top" xlink:title=" ">
<polygon fill="white" stroke="#666666" points="142,-156.5 46,-156.5 46,-137.5 142,-137.5 142,-156.5"/>
<text text-anchor="middle" x="94" y="-144.5" font-family="Helvetica,sans-Serif" font-size="10.00">Kit/Itc/Mailbox.h</text>
</a>
</g>
</g>
<!-- Node1&#45;&gt;Node3 -->
<g id="edge2_Node000001_Node000003" class="edge">
<title>Node1&#45;&gt;Node3</title>
<g id="a_edge2_Node000001_Node000003"><a xlink:title=" ">
<path fill="none" stroke="#63b8ff" d="M167.42,-255.54C149.03,-228.6 113.82,-177.02 99.88,-156.62"/>
<polygon fill="#63b8ff" stroke="#63b8ff" points="164.63,-257.66 173.16,-263.94 170.41,-253.71 164.63,-257.66"/>
</a>
</g>
</g>
<!-- Node6 -->
<g id="Node000006" class="node">
<title>Node6</title>
<g id="a_Node000006"><a xlink:href="_i_event_flag_8h.html" target="_top" xlink:title=" ">
<polygon fill="white" stroke="#666666" points="294,-222.5 160,-222.5 160,-203.5 294,-203.5 294,-222.5"/>
<text text-anchor="middle" x="227" y="-210.5" font-family="Helvetica,sans-Serif" font-size="10.00">Kit/System/IEventFlag.h</text>
</a>
</g>
</g>
<!-- Node1&#45;&gt;Node6 -->
<g id="edge5_Node000001_Node000006" class="edge">
<title>Node1&#45;&gt;Node6</title>
<g id="a_edge5_Node000001_Node000006"><a xlink:title=" ">
<path fill="none" stroke="#63b8ff" d="M192.58,-255.95C201.46,-245.12 212.72,-231.41 219.89,-222.67"/>
<polygon fill="#63b8ff" stroke="#63b8ff" points="189.72,-253.92 186.08,-263.87 195.13,-258.36 189.72,-253.92"/>
</a>
</g>
</g>
<!-- Node9 -->
<g id="Node000009" class="node">
<title>Node9</title>
<g id="a_Node000009"><a xlink:href="_supervisor_8h.html" target="_top" xlink:title=" ">
<polygon fill="white" stroke="#666666" points="434.5,-228 313.5,-228 313.5,-198 434.5,-198 434.5,-228"/>
<text text-anchor="start" x="321.5" y="-216" font-family="Helvetica,sans-Serif" font-size="10.00">Kit/System/Watchdog</text>
<text text-anchor="middle" x="374" y="-205" font-family="Helvetica,sans-Serif" font-size="10.00">/Supervisor.h</text>
</a>
</g>
</g>
<!-- Node1&#45;&gt;Node9 -->
<g id="edge9_Node000001_Node000009" class="edge">
<title>Node1&#45;&gt;Node9</title>
<g id="a_edge9_Node000001_Node000009"><a xlink:title=" ">
<path fill="none" stroke="#63b8ff" d="M217.08,-261.08C248.57,-251.63 293.42,-238.17 327.12,-228.06"/>
<polygon fill="#63b8ff" stroke="#63b8ff" points="215.93,-257.77 207.35,-263.99 217.94,-264.47 215.93,-257.77"/>
</a>
</g>
</g>
<!-- Node4 -->
<g id="Node000004" class="node">
<title>Node4</title>
<g id="a_Node000004"><a xlink:href="_server_8h.html" target="_top" xlink:title=" ">
<polygon fill="white" stroke="#666666" points="161.5,-90.5 26.5,-90.5 26.5,-71.5 161.5,-71.5 161.5,-90.5"/>
<text text-anchor="middle" x="94" y="-78.5" font-family="Helvetica,sans-Serif" font-size="10.00">Kit/EventQueue/Server.h</text>
</a>
</g>
</g>
<!-- Node3&#45;&gt;Node4 -->
<g id="edge3_Node000003_Node000004" class="edge">
<title>Node3&#45;&gt;Node4</title>
<g id="a_edge3_Node000003_Node000004"><a xlink:title=" ">
<path fill="none" stroke="#63b8ff" d="M94,-127.08C94,-115.13 94,-100.22 94,-90.91"/>
<polygon fill="#63b8ff" stroke="#63b8ff" points="90.5,-127.37 94,-137.37 97.5,-127.37 90.5,-127.37"/>
</a>
</g>
</g>
<!-- Node5 -->
<g id="Node000005" class="node">
<title>Node5</title>
<g id="a_Node000005"><a xlink:href="_with_periodic_scheduling_8h.html" target="_top" xlink:title=" ">
<polygon fill="white" stroke="#666666" points="172.5,-30 15.5,-30 15.5,0 172.5,0 172.5,-30"/>
<text text-anchor="start" x="23.5" y="-18" font-family="Helvetica,sans-Serif" font-size="10.00">Kit/EventQueue/WithPeriodic</text>
<text text-anchor="middle" x="94" y="-7" font-family="Helvetica,sans-Serif" font-size="10.00">Scheduling.h</text>
</a>
</g>
</g>
<!-- Node4&#45;&gt;Node5 -->
<g id="edge4_Node000004_Node000005" class="edge">
<title>Node4&#45;&gt;Node5</title>
<g id="a_edge4_Node000004_Node000005"><a xlink:title=" ">
<path fill="none" stroke="#63b8ff" d="M94,-61.35C94,-51.47 94,-39.51 94,-30.36"/>
<polygon fill="#63b8ff" stroke="#63b8ff" points="90.5,-61.37 94,-71.37 97.5,-61.37 90.5,-61.37"/>
</a>
</g>
</g>
<!-- Node7 -->
<g id="Node000007" class="node">
<title>Node7</title>
<g id="a_Node000007"><a xlink:href="_event_loop_8h.html" target="_top" xlink:title=" ">
<polygon fill="white" stroke="#666666" points="293.5,-156.5 160.5,-156.5 160.5,-137.5 293.5,-137.5 293.5,-156.5"/>
<text text-anchor="middle" x="227" y="-144.5" font-family="Helvetica,sans-Serif" font-size="10.00">Kit/System/EventLoop.h</text>
</a>
</g>
</g>
<!-- Node6&#45;&gt;Node7 -->
<g id="edge6_Node000006_Node000007" class="edge">
<title>Node6&#45;&gt;Node7</title>
<g id="a_edge6_Node000006_Node000007"><a xlink:title=" ">
<path fill="none" stroke="#63b8ff" d="M227,-193.08C227,-181.13 227,-166.22 227,-156.91"/>
<polygon fill="#63b8ff" stroke="#63b8ff" points="223.5,-193.37 227,-203.37 230.5,-193.37 223.5,-193.37"/>
</a>
</g>
</g>
<!-- Node7&#45;&gt;Node4 -->
<g id="edge7_Node000007_Node000004" class="edge">
<title>Node7&#45;&gt;Node4</title>
<g id="a_edge7_Node000007_Node000004"><a xlink:title=" ">
<path fill="none" stroke="#63b8ff" d="M200.04,-133.03C173.83,-120.42 134.75,-101.61 112.08,-90.7"/>
<polygon fill="#63b8ff" stroke="#63b8ff" points="198.53,-136.19 209.06,-137.37 201.57,-129.88 198.53,-136.19"/>
</a>
</g>
</g>
<!-- Node8 -->
<g id="Node000008" class="node">
<title>Node8</title>
<g id="a_Node000008"><a xlink:href="_event_loop_with_p_scheduling_8h.html" target="_top" xlink:title=" ">
<polygon fill="white" stroke="#666666" points="326,-96 180,-96 180,-66 326,-66 326,-96"/>
<text text-anchor="start" x="188" y="-84" font-family="Helvetica,sans-Serif" font-size="10.00">Kit/System/EventLoopWith</text>
<text text-anchor="middle" x="253" y="-73" font-family="Helvetica,sans-Serif" font-size="10.00">PScheduling.h</text>
</a>
</g>
</g>
<!-- Node7&#45;&gt;Node8 -->
<g id="edge8_Node000007_Node000008" class="edge">
<title>Node7&#45;&gt;Node8</title>
<g id="a_edge8_Node000007_Node000008"><a xlink:title=" ">
<path fill="none" stroke="#63b8ff" d="M234.32,-127.98C238.38,-117.98 243.37,-105.71 247.17,-96.36"/>
<polygon fill="#63b8ff" stroke="#63b8ff" points="231.03,-126.79 230.51,-137.37 237.51,-129.42 231.03,-126.79"/>
</a>
</g>
</g>
<!-- Node10 -->
<g id="Node000010" class="node">
<title>Node10</title>
<g id="a_Node000010"><a xlink:href="_watched_raw_thread_8h.html" target="_top" xlink:title=" ">
<polygon fill="white" stroke="#666666" points="436.5,-162 311.5,-162 311.5,-132 436.5,-132 436.5,-162"/>
<text text-anchor="start" x="319.5" y="-150" font-family="Helvetica,sans-Serif" font-size="10.00">Kit/System/Watchdog</text>
<text text-anchor="middle" x="374" y="-139" font-family="Helvetica,sans-Serif" font-size="10.00">/WatchedRawThread.h</text>
</a>
</g>
</g>
<!-- Node9&#45;&gt;Node10 -->
<g id="edge10_Node000009_Node000010" class="edge">
<title>Node9&#45;&gt;Node10</title>
<g id="a_edge10_Node000009_Node000010"><a xlink:title=" ">
<path fill="none" stroke="#63b8ff" d="M374,-187.54C374,-178.96 374,-169.61 374,-162.16"/>
<polygon fill="#63b8ff" stroke="#63b8ff" points="370.5,-187.8 374,-197.8 377.5,-187.8 370.5,-187.8"/>
</a>
</g>
</g>
</g>
</svg>
