<?xml version="1.0" encoding="UTF-8" standalone="no"?>
<!DOCTYPE svg PUBLIC "-//W3C//DTD SVG 1.1//EN"
 "http://www.w3.org/Graphics/SVG/1.1/DTD/svg11.dtd">
<!-- Generated by graphviz version 2.43.0 (0)
 -->
<!-- Title: Kit/Dm/Mp/Scalar.h Pages: 1 -->
<svg width="1010pt" height="302pt"
 viewBox="0.00 0.00 1010.11 302.00" xmlns="http://www.w3.org/2000/svg" xmlns:xlink="http://www.w3.org/1999/xlink">
<g id="graph0" class="graph" transform="scale(1 1) rotate(0) translate(4 298)">
<title>Kit/Dm/Mp/Scalar.h</title>
<!-- Node1 -->
<g id="Node000001" class="node">
<title>Node1</title>
<g id="a_Node000001"><a xlink:title=" ">
<polygon fill="#999999" stroke="#666666" points="176,-294 66,-294 66,-275 176,-275 176,-294"/>
<text text-anchor="middle" x="121" y="-282" font-family="Helvetica,sans-Serif" font-size="10.00">Kit/Dm/Mp/Scalar.h</text>
</a>
</g>
</g>
<!-- Node2 -->
<g id="Node000002" class="node">
<title>Node2</title>
<g id="a_Node000002"><a xlink:href="_model_point_base_8h.html" target="_top" xlink:title=" ">
<polygon fill="white" stroke="#666666" points="401.5,-239 260.5,-239 260.5,-220 401.5,-220 401.5,-239"/>
<text text-anchor="middle" x="331" y="-227" font-family="Helvetica,sans-Serif" font-size="10.00">Kit/Dm/ModelPointBase.h</text>
</a>
</g>
</g>
<!-- Node1&#45;&gt;Node2 -->
<g id="edge1_Node000001_Node000002" class="edge">
<title>Node1&#45;&gt;Node2</title>
<g id="a_edge1_Node000001_Node000002"><a xlink:title=" ">
<path fill="none" stroke="#63b8ff" d="M154.74,-274.98C190.68,-265.91 247.72,-251.52 287.13,-241.57"/>
<polygon fill="#63b8ff" stroke="#63b8ff" points="288.16,-244.92 297,-239.08 286.44,-238.14 288.16,-244.92"/>
</a>
</g>
</g>
<!-- Node9 -->
<g id="Node000009" class="node">
<title>Node9</title>
<g id="a_Node000009"><a xlink:title=" ">
<polygon fill="#e0e0e0" stroke="#999999" points="189.5,-19 136.5,-19 136.5,0 189.5,0 189.5,-19"/>
<text text-anchor="middle" x="163" y="-7" font-family="Helvetica,sans-Serif" font-size="10.00">stdint.h</text>
</a>
</g>
</g>
<!-- Node1&#45;&gt;Node9 -->
<g id="edge37_Node000001_Node000009" class="edge">
<title>Node1&#45;&gt;Node9</title>
<g id="a_edge37_Node000001_Node000009"><a xlink:title=" ">
<path fill="none" stroke="#63b8ff" d="M97.67,-274.97C62.51,-260.44 0,-227.31 0,-175.5 0,-175.5 0,-175.5 0,-118.5 0,-58.13 78.67,-29.51 126.7,-17.67"/>
<polygon fill="#63b8ff" stroke="#63b8ff" points="127.51,-21.08 136.45,-15.39 125.91,-14.26 127.51,-21.08"/>
</a>
</g>
</g>
<!-- Node23 -->
<g id="Node000023" class="node">
<title>Node23</title>
<g id="a_Node000023"><a xlink:href="_observer_8h.html" target="_top" xlink:title=" ">
<polygon fill="white" stroke="#666666" points="174,-239 68,-239 68,-220 174,-220 174,-239"/>
<text text-anchor="middle" x="121" y="-227" font-family="Helvetica,sans-Serif" font-size="10.00">Kit/Dm/Observer.h</text>
</a>
</g>
</g>
<!-- Node1&#45;&gt;Node23 -->
<g id="edge33_Node000001_Node000023" class="edge">
<title>Node1&#45;&gt;Node23</title>
<g id="a_edge33_Node000001_Node000023"><a xlink:title=" ">
<path fill="none" stroke="#63b8ff" d="M121,-274.75C121,-267.8 121,-257.85 121,-249.13"/>
<polygon fill="#63b8ff" stroke="#63b8ff" points="124.5,-249.09 121,-239.09 117.5,-249.09 124.5,-249.09"/>
</a>
</g>
</g>
<!-- Node3 -->
<g id="Node000003" class="node">
<title>Node3</title>
<g id="a_Node000003"><a xlink:href="_i_model_point_8h.html" target="_top" xlink:title=" ">
<polygon fill="white" stroke="#666666" points="528,-184 408,-184 408,-165 528,-165 528,-184"/>
<text text-anchor="middle" x="468" y="-172" font-family="Helvetica,sans-Serif" font-size="10.00">Kit/Dm/IModelPoint.h</text>
</a>
</g>
</g>
<!-- Node2&#45;&gt;Node3 -->
<g id="edge2_Node000002_Node000003" class="edge">
<title>Node2&#45;&gt;Node3</title>
<g id="a_edge2_Node000002_Node000003"><a xlink:title=" ">
<path fill="none" stroke="#63b8ff" d="M353.01,-219.98C375.45,-211.3 410.48,-197.75 435.99,-187.88"/>
<polygon fill="#63b8ff" stroke="#63b8ff" points="437.52,-191.04 445.59,-184.17 435,-184.51 437.52,-191.04"/>
</a>
</g>
</g>
<!-- Node2&#45;&gt;Node9 -->
<g id="edge31_Node000002_Node000009" class="edge">
<title>Node2&#45;&gt;Node9</title>
<g id="a_edge31_Node000002_Node000009"><a xlink:title=" ">
<path fill="none" stroke="#63b8ff" d="M313.45,-220C298.66,-212.18 277.63,-199.48 263,-184 217.32,-135.66 184.07,-62.68 170.18,-28.88"/>
<polygon fill="#63b8ff" stroke="#63b8ff" points="173.33,-27.34 166.36,-19.37 166.84,-29.95 173.33,-27.34"/>
</a>
</g>
</g>
<!-- Node10 -->
<g id="Node000010" class="node">
<title>Node10</title>
<g id="a_Node000010"><a xlink:title=" ">
<polygon fill="#e0e0e0" stroke="#999999" points="912.5,-19 859.5,-19 859.5,0 912.5,0 912.5,-19"/>
<text text-anchor="middle" x="886" y="-7" font-family="Helvetica,sans-Serif" font-size="10.00">stdlib.h</text>
</a>
</g>
</g>
<!-- Node2&#45;&gt;Node10 -->
<g id="edge32_Node000002_Node000010" class="edge">
<title>Node2&#45;&gt;Node10</title>
<g id="a_edge32_Node000002_Node000010"><a xlink:title=" ">
<path fill="none" stroke="#63b8ff" d="M401.73,-229.38C557.11,-229.59 920.11,-220.1 992,-129 1000.81,-117.83 1010.09,-85.26 989,-55 973.86,-33.28 945.77,-22.08 922.75,-16.35"/>
<polygon fill="#63b8ff" stroke="#63b8ff" points="923.44,-12.92 912.92,-14.15 921.91,-19.75 923.44,-12.92"/>
</a>
</g>
</g>
<!-- Node15 -->
<g id="Node000015" class="node">
<title>Node15</title>
<g id="a_Node000015"><a xlink:href="_i_observer_8h.html" target="_top" xlink:title=" ">
<polygon fill="white" stroke="#666666" points="175.5,-129 66.5,-129 66.5,-110 175.5,-110 175.5,-129"/>
<text text-anchor="middle" x="121" y="-117" font-family="Helvetica,sans-Serif" font-size="10.00">Kit/Dm/IObserver.h</text>
</a>
</g>
</g>
<!-- Node2&#45;&gt;Node15 -->
<g id="edge27_Node000002_Node000015" class="edge">
<title>Node2&#45;&gt;Node15</title>
<g id="a_edge27_Node000002_Node000015"><a xlink:title=" ">
<path fill="none" stroke="#63b8ff" d="M287.33,-219.94C258.4,-213.04 220.32,-201.56 190,-184 168.33,-171.45 147.79,-151.06 134.85,-136.78"/>
<polygon fill="#63b8ff" stroke="#63b8ff" points="137.39,-134.37 128.15,-129.18 132.14,-139 137.39,-134.37"/>
</a>
</g>
</g>
<!-- Node18 -->
<g id="Node000018" class="node">
<title>Node18</title>
<g id="a_Node000018"><a xlink:href="_i_model_database_8h.html" target="_top" xlink:title=" ">
<polygon fill="white" stroke="#666666" points="753,-184 611,-184 611,-165 753,-165 753,-184"/>
<text text-anchor="middle" x="682" y="-172" font-family="Helvetica,sans-Serif" font-size="10.00">Kit/Dm/IModelDatabase.h</text>
</a>
</g>
</g>
<!-- Node2&#45;&gt;Node18 -->
<g id="edge20_Node000002_Node000018" class="edge">
<title>Node2&#45;&gt;Node18</title>
<g id="a_edge20_Node000002_Node000018"><a xlink:title=" ">
<path fill="none" stroke="#63b8ff" d="M387.39,-219.98C449.48,-210.61 549.21,-195.55 615.17,-185.59"/>
<polygon fill="#63b8ff" stroke="#63b8ff" points="616.09,-188.99 625.46,-184.04 615.04,-182.07 616.09,-188.99"/>
</a>
</g>
</g>
<!-- Node21 -->
<g id="Node000021" class="node">
<title>Node21</title>
<g id="a_Node000021"><a xlink:href="_d_list_8h.html" target="_top" xlink:title=" ">
<polygon fill="white" stroke="#666666" points="389.5,-184 272.5,-184 272.5,-165 389.5,-165 389.5,-184"/>
<text text-anchor="middle" x="331" y="-172" font-family="Helvetica,sans-Serif" font-size="10.00">Kit/Container/DList.h</text>
</a>
</g>
</g>
<!-- Node2&#45;&gt;Node21 -->
<g id="edge28_Node000002_Node000021" class="edge">
<title>Node2&#45;&gt;Node21</title>
<g id="a_edge28_Node000002_Node000021"><a xlink:title=" ">
<path fill="none" stroke="#63b8ff" d="M331,-219.75C331,-212.8 331,-202.85 331,-194.13"/>
<polygon fill="#63b8ff" stroke="#63b8ff" points="334.5,-194.09 331,-184.09 327.5,-194.09 334.5,-194.09"/>
</a>
</g>
</g>
<!-- Node4 -->
<g id="Node000004" class="node">
<title>Node4</title>
<g id="a_Node000004"><a xlink:title=" ">
<polygon fill="#e0e0e0" stroke="#999999" points="615.5,-129 542.5,-129 542.5,-110 615.5,-110 615.5,-129"/>
<text text-anchor="middle" x="579" y="-117" font-family="Helvetica,sans-Serif" font-size="10.00">kit_config.h</text>
</a>
</g>
</g>
<!-- Node3&#45;&gt;Node4 -->
<g id="edge3_Node000003_Node000004" class="edge">
<title>Node3&#45;&gt;Node4</title>
<g id="a_edge3_Node000003_Node000004"><a xlink:title=" ">
<path fill="none" stroke="#63b8ff" d="M485.83,-164.98C503.61,-156.5 531.15,-143.35 551.68,-133.54"/>
<polygon fill="#63b8ff" stroke="#63b8ff" points="553.33,-136.64 560.84,-129.17 550.31,-130.32 553.33,-136.64"/>
</a>
</g>
</g>
<!-- Node5 -->
<g id="Node000005" class="node">
<title>Node5</title>
<g id="a_Node000005"><a xlink:href="_list_item_8h.html" target="_top" xlink:title=" ">
<polygon fill="white" stroke="#666666" points="407,-74 275,-74 275,-55 407,-55 407,-74"/>
<text text-anchor="middle" x="341" y="-62" font-family="Helvetica,sans-Serif" font-size="10.00">Kit/Container/ListItem.h</text>
</a>
</g>
</g>
<!-- Node3&#45;&gt;Node5 -->
<g id="edge4_Node000003_Node000005" class="edge">
<title>Node3&#45;&gt;Node5</title>
<g id="a_edge4_Node000003_Node000005"><a xlink:title=" ">
<path fill="none" stroke="#63b8ff" d="M477.15,-164.59C489.35,-151.63 507.96,-127.23 495,-110 483.75,-95.04 441.82,-83.52 404.55,-75.95"/>
<polygon fill="#63b8ff" stroke="#63b8ff" points="405.19,-72.51 394.7,-74.02 403.84,-79.38 405.19,-72.51"/>
</a>
</g>
</g>
<!-- Node7 -->
<g id="Node000007" class="node">
<title>Node7</title>
<g id="a_Node000007"><a xlink:href="_i_string_8h.html" target="_top" xlink:title=" ">
<polygon fill="white" stroke="#666666" points="730.5,-129 633.5,-129 633.5,-110 730.5,-110 730.5,-129"/>
<text text-anchor="middle" x="682" y="-117" font-family="Helvetica,sans-Serif" font-size="10.00">Kit/Text/IString.h</text>
</a>
</g>
</g>
<!-- Node3&#45;&gt;Node7 -->
<g id="edge6_Node000003_Node000007" class="edge">
<title>Node3&#45;&gt;Node7</title>
<g id="a_edge6_Node000003_Node000007"><a xlink:title=" ">
<path fill="none" stroke="#63b8ff" d="M502.38,-164.98C539.09,-155.89 597.38,-141.46 637.55,-131.51"/>
<polygon fill="#63b8ff" stroke="#63b8ff" points="638.48,-134.88 647.35,-129.08 636.8,-128.09 638.48,-134.88"/>
</a>
</g>
</g>
<!-- Node3&#45;&gt;Node9 -->
<g id="edge19_Node000003_Node000009" class="edge">
<title>Node3&#45;&gt;Node9</title>
<g id="a_edge19_Node000003_Node000009"><a xlink:title=" ">
<path fill="none" stroke="#63b8ff" d="M407.78,-166.04C355.3,-158.56 284.09,-145.77 261,-129 230.22,-106.65 242.75,-83.88 218,-55 208.29,-43.67 195.4,-33.07 184.55,-25.06"/>
<polygon fill="#63b8ff" stroke="#63b8ff" points="186.55,-22.18 176.37,-19.22 182.48,-27.88 186.55,-22.18"/>
</a>
</g>
</g>
<!-- Node3&#45;&gt;Node15 -->
<g id="edge14_Node000003_Node000015" class="edge">
<title>Node3&#45;&gt;Node15</title>
<g id="a_edge14_Node000003_Node000015"><a xlink:title=" ">
<path fill="none" stroke="#63b8ff" d="M412.25,-164.98C350.51,-155.55 251.11,-140.37 185.91,-130.41"/>
<polygon fill="#63b8ff" stroke="#63b8ff" points="186.17,-126.91 175.75,-128.86 185.11,-133.83 186.17,-126.91"/>
</a>
</g>
</g>
<!-- Node16 -->
<g id="Node000016" class="node">
<title>Node16</title>
<g id="a_Node000016"><a xlink:href="_arduino_8h_source.html" target="_top" xlink:title=" ">
<polygon fill="white" stroke="#666666" points="851.5,-129 748.5,-129 748.5,-110 851.5,-110 851.5,-129"/>
<text text-anchor="middle" x="800" y="-117" font-family="Helvetica,sans-Serif" font-size="10.00">Kit/Json/Arduino.h</text>
</a>
</g>
</g>
<!-- Node3&#45;&gt;Node16 -->
<g id="edge17_Node000003_Node000016" class="edge">
<title>Node3&#45;&gt;Node16</title>
<g id="a_edge17_Node000003_Node000016"><a xlink:title=" ">
<path fill="none" stroke="#63b8ff" d="M521.34,-164.98C580.55,-155.53 675.96,-140.3 738.33,-130.34"/>
<polygon fill="#63b8ff" stroke="#63b8ff" points="739.11,-133.77 748.43,-128.73 738,-126.85 739.11,-133.77"/>
</a>
</g>
</g>
<!-- Node17 -->
<g id="Node000017" class="node">
<title>Node17</title>
<g id="a_Node000017"><a xlink:title=" ">
<polygon fill="#e0e0e0" stroke="#999999" points="486,-129 430,-129 430,-110 486,-110 486,-129"/>
<text text-anchor="middle" x="458" y="-117" font-family="Helvetica,sans-Serif" font-size="10.00">stddef.h</text>
</a>
</g>
</g>
<!-- Node3&#45;&gt;Node17 -->
<g id="edge18_Node000003_Node000017" class="edge">
<title>Node3&#45;&gt;Node17</title>
<g id="a_edge18_Node000003_Node000017"><a xlink:title=" ">
<path fill="none" stroke="#63b8ff" d="M466.35,-164.75C465.04,-157.8 463.16,-147.85 461.52,-139.13"/>
<polygon fill="#63b8ff" stroke="#63b8ff" points="464.91,-138.27 459.62,-129.09 458.04,-139.56 464.91,-138.27"/>
</a>
</g>
</g>
<!-- Node6 -->
<g id="Node000006" class="node">
<title>Node6</title>
<g id="a_Node000006"><a xlink:href="_item_8h.html" target="_top" xlink:title=" ">
<polygon fill="white" stroke="#666666" points="398.5,-19 283.5,-19 283.5,0 398.5,0 398.5,-19"/>
<text text-anchor="middle" x="341" y="-7" font-family="Helvetica,sans-Serif" font-size="10.00">Kit/Container/Item.h</text>
</a>
</g>
</g>
<!-- Node5&#45;&gt;Node6 -->
<g id="edge5_Node000005_Node000006" class="edge">
<title>Node5&#45;&gt;Node6</title>
<g id="a_edge5_Node000005_Node000006"><a xlink:title=" ">
<path fill="none" stroke="#63b8ff" d="M341,-54.75C341,-47.8 341,-37.85 341,-29.13"/>
<polygon fill="#63b8ff" stroke="#63b8ff" points="344.5,-29.09 341,-19.09 337.5,-29.09 344.5,-29.09"/>
</a>
</g>
</g>
<!-- Node8 -->
<g id="Node000008" class="node">
<title>Node8</title>
<g id="a_Node000008"><a xlink:href="_key_8h.html" target="_top" xlink:title=" ">
<polygon fill="white" stroke="#666666" points="537.5,-74 428.5,-74 428.5,-55 537.5,-55 537.5,-74"/>
<text text-anchor="middle" x="483" y="-62" font-family="Helvetica,sans-Serif" font-size="10.00">Kit/Container/Key.h</text>
</a>
</g>
</g>
<!-- Node7&#45;&gt;Node8 -->
<g id="edge7_Node000007_Node000008" class="edge">
<title>Node7&#45;&gt;Node8</title>
<g id="a_edge7_Node000007_Node000008"><a xlink:title=" ">
<path fill="none" stroke="#63b8ff" d="M650.03,-109.98C616.18,-100.97 562.6,-86.7 525.29,-76.76"/>
<polygon fill="#63b8ff" stroke="#63b8ff" points="525.79,-73.27 515.22,-74.08 523.99,-80.04 525.79,-73.27"/>
</a>
</g>
</g>
<!-- Node12 -->
<g id="Node000012" class="node">
<title>Node12</title>
<g id="a_Node000012"><a xlink:href="printfchecker_8h.html" target="_top" xlink:title="This file contains macro that enables the GCC (and Clang) compiler to validate printf flags with thei...">
<polygon fill="white" stroke="#666666" points="700.5,-74 555.5,-74 555.5,-55 700.5,-55 700.5,-74"/>
<text text-anchor="middle" x="628" y="-62" font-family="Helvetica,sans-Serif" font-size="10.00">Kit/System/printfchecker.h</text>
</a>
</g>
</g>
<!-- Node7&#45;&gt;Node12 -->
<g id="edge11_Node000007_Node000012" class="edge">
<title>Node7&#45;&gt;Node12</title>
<g id="a_edge11_Node000007_Node000012"><a xlink:title=" ">
<path fill="none" stroke="#63b8ff" d="M673.08,-109.75C665.22,-102.03 653.57,-90.6 644.08,-81.28"/>
<polygon fill="#63b8ff" stroke="#63b8ff" points="646.34,-78.6 636.75,-74.09 641.44,-83.59 646.34,-78.6"/>
</a>
</g>
</g>
<!-- Node13 -->
<g id="Node000013" class="node">
<title>Node13</title>
<g id="a_Node000013"><a xlink:title=" ">
<polygon fill="#e0e0e0" stroke="#999999" points="775,-74 719,-74 719,-55 775,-55 775,-74"/>
<text text-anchor="middle" x="747" y="-62" font-family="Helvetica,sans-Serif" font-size="10.00">stdarg.h</text>
</a>
</g>
</g>
<!-- Node7&#45;&gt;Node13 -->
<g id="edge12_Node000007_Node000013" class="edge">
<title>Node7&#45;&gt;Node13</title>
<g id="a_edge12_Node000007_Node000013"><a xlink:title=" ">
<path fill="none" stroke="#63b8ff" d="M692.44,-109.98C702.15,-102.07 716.82,-90.11 728.5,-80.58"/>
<polygon fill="#63b8ff" stroke="#63b8ff" points="730.83,-83.2 736.37,-74.17 726.4,-77.78 730.83,-83.2"/>
</a>
</g>
</g>
<!-- Node14 -->
<g id="Node000014" class="node">
<title>Node14</title>
<g id="a_Node000014"><a xlink:title=" ">
<polygon fill="#e0e0e0" stroke="#999999" points="853,-74 793,-74 793,-55 853,-55 853,-74"/>
<text text-anchor="middle" x="823" y="-62" font-family="Helvetica,sans-Serif" font-size="10.00">iostream</text>
</a>
</g>
</g>
<!-- Node7&#45;&gt;Node14 -->
<g id="edge13_Node000007_Node000014" class="edge">
<title>Node7&#45;&gt;Node14</title>
<g id="a_edge13_Node000007_Node000014"><a xlink:title=" ">
<path fill="none" stroke="#63b8ff" d="M704.65,-109.98C727.85,-101.27 764.12,-87.63 790.4,-77.75"/>
<polygon fill="#63b8ff" stroke="#63b8ff" points="791.8,-80.97 799.93,-74.17 789.34,-74.41 791.8,-80.97"/>
</a>
</g>
</g>
<!-- Node8&#45;&gt;Node9 -->
<g id="edge8_Node000008_Node000009" class="edge">
<title>Node8&#45;&gt;Node9</title>
<g id="a_edge8_Node000008_Node000009"><a xlink:title=" ">
<path fill="none" stroke="#63b8ff" d="M431.59,-54.98C366.72,-44.24 256.77,-26.03 199.75,-16.59"/>
<polygon fill="#63b8ff" stroke="#63b8ff" points="200.18,-13.11 189.75,-14.93 199.04,-20.02 200.18,-13.11"/>
</a>
</g>
</g>
<!-- Node8&#45;&gt;Node10 -->
<g id="edge9_Node000008_Node000010" class="edge">
<title>Node8&#45;&gt;Node10</title>
<g id="a_edge9_Node000008_Node000010"><a xlink:title=" ">
<path fill="none" stroke="#63b8ff" d="M537.63,-56.12C540.46,-55.74 543.26,-55.36 546,-55 656.18,-40.36 786.49,-23.4 848.96,-15.3"/>
<polygon fill="#63b8ff" stroke="#63b8ff" points="849.64,-18.74 859.11,-13.98 848.74,-11.8 849.64,-18.74"/>
</a>
</g>
</g>
<!-- Node11 -->
<g id="Node000011" class="node">
<title>Node11</title>
<g id="a_Node000011"><a xlink:title=" ">
<polygon fill="#e0e0e0" stroke="#999999" points="509.5,-19 456.5,-19 456.5,0 509.5,0 509.5,-19"/>
<text text-anchor="middle" x="483" y="-7" font-family="Helvetica,sans-Serif" font-size="10.00">limits.h</text>
</a>
</g>
</g>
<!-- Node8&#45;&gt;Node11 -->
<g id="edge10_Node000008_Node000011" class="edge">
<title>Node8&#45;&gt;Node11</title>
<g id="a_edge10_Node000008_Node000011"><a xlink:title=" ">
<path fill="none" stroke="#63b8ff" d="M483,-54.75C483,-47.8 483,-37.85 483,-29.13"/>
<polygon fill="#63b8ff" stroke="#63b8ff" points="486.5,-29.09 483,-19.09 479.5,-29.09 486.5,-29.09"/>
</a>
</g>
</g>
<!-- Node15&#45;&gt;Node5 -->
<g id="edge15_Node000015_Node000005" class="edge">
<title>Node15&#45;&gt;Node5</title>
<g id="a_edge15_Node000015_Node000005"><a xlink:title=" ">
<path fill="none" stroke="#63b8ff" d="M156.35,-109.98C194.16,-100.87 254.26,-86.4 295.57,-76.45"/>
<polygon fill="#63b8ff" stroke="#63b8ff" points="296.47,-79.83 305.38,-74.08 294.83,-73.02 296.47,-79.83"/>
</a>
</g>
</g>
<!-- Node15&#45;&gt;Node9 -->
<g id="edge16_Node000015_Node000009" class="edge">
<title>Node15&#45;&gt;Node9</title>
<g id="a_edge16_Node000015_Node000009"><a xlink:title=" ">
<path fill="none" stroke="#63b8ff" d="M124.44,-109.66C131.3,-92.01 146.83,-52.09 155.95,-28.64"/>
<polygon fill="#63b8ff" stroke="#63b8ff" points="159.27,-29.75 159.63,-19.16 152.75,-27.21 159.27,-29.75"/>
</a>
</g>
</g>
<!-- Node18&#45;&gt;Node4 -->
<g id="edge21_Node000018_Node000004" class="edge">
<title>Node18&#45;&gt;Node4</title>
<g id="a_edge21_Node000018_Node000004"><a xlink:title=" ">
<path fill="none" stroke="#63b8ff" d="M665.45,-164.98C649.11,-156.57 623.87,-143.59 604.87,-133.81"/>
<polygon fill="#63b8ff" stroke="#63b8ff" points="606.34,-130.63 595.85,-129.17 603.14,-136.86 606.34,-130.63"/>
</a>
</g>
</g>
<!-- Node18&#45;&gt;Node7 -->
<g id="edge22_Node000018_Node000007" class="edge">
<title>Node18&#45;&gt;Node7</title>
<g id="a_edge22_Node000018_Node000007"><a xlink:title=" ">
<path fill="none" stroke="#63b8ff" d="M682,-164.75C682,-157.8 682,-147.85 682,-139.13"/>
<polygon fill="#63b8ff" stroke="#63b8ff" points="685.5,-139.09 682,-129.09 678.5,-139.09 685.5,-139.09"/>
</a>
</g>
</g>
<!-- Node18&#45;&gt;Node16 -->
<g id="edge26_Node000018_Node000016" class="edge">
<title>Node18&#45;&gt;Node16</title>
<g id="a_edge26_Node000018_Node000016"><a xlink:title=" ">
<path fill="none" stroke="#63b8ff" d="M700.96,-164.98C720.03,-156.42 749.66,-143.11 771.55,-133.28"/>
<polygon fill="#63b8ff" stroke="#63b8ff" points="773.01,-136.46 780.7,-129.17 770.14,-130.07 773.01,-136.46"/>
</a>
</g>
</g>
<!-- Node19 -->
<g id="Node000019" class="node">
<title>Node19</title>
<g id="a_Node000019"><a xlink:href="_mutex_8h.html" target="_top" xlink:title=" ">
<polygon fill="white" stroke="#666666" points="982.5,-129 869.5,-129 869.5,-110 982.5,-110 982.5,-129"/>
<text text-anchor="middle" x="926" y="-117" font-family="Helvetica,sans-Serif" font-size="10.00">Kit/System/Mutex.h</text>
</a>
</g>
</g>
<!-- Node18&#45;&gt;Node19 -->
<g id="edge23_Node000018_Node000019" class="edge">
<title>Node18&#45;&gt;Node19</title>
<g id="a_edge23_Node000018_Node000019"><a xlink:title=" ">
<path fill="none" stroke="#63b8ff" d="M721.2,-164.98C763.41,-155.82 830.65,-141.21 876.48,-131.26"/>
<polygon fill="#63b8ff" stroke="#63b8ff" points="877.46,-134.63 886.49,-129.08 875.97,-127.78 877.46,-134.63"/>
</a>
</g>
</g>
<!-- Node19&#45;&gt;Node10 -->
<g id="edge24_Node000019_Node000010" class="edge">
<title>Node19&#45;&gt;Node10</title>
<g id="a_edge24_Node000019_Node000010"><a xlink:title=" ">
<path fill="none" stroke="#63b8ff" d="M921.71,-109.76C917.43,-100.88 910.82,-86.67 906,-74 900.34,-59.13 894.98,-41.89 891.24,-29.13"/>
<polygon fill="#63b8ff" stroke="#63b8ff" points="894.52,-27.88 888.4,-19.24 887.8,-29.82 894.52,-27.88"/>
</a>
</g>
</g>
<!-- Node20 -->
<g id="Node000020" class="node">
<title>Node20</title>
<g id="a_Node000020"><a xlink:title=" ">
<polygon fill="#e0e0e0" stroke="#999999" points="979.5,-74 914.5,-74 914.5,-55 979.5,-55 979.5,-74"/>
<text text-anchor="middle" x="947" y="-62" font-family="Helvetica,sans-Serif" font-size="10.00">kit_map.h</text>
</a>
</g>
</g>
<!-- Node19&#45;&gt;Node20 -->
<g id="edge25_Node000019_Node000020" class="edge">
<title>Node19&#45;&gt;Node20</title>
<g id="a_edge25_Node000019_Node000020"><a xlink:title=" ">
<path fill="none" stroke="#63b8ff" d="M929.47,-109.75C932.28,-102.65 936.34,-92.4 939.85,-83.56"/>
<polygon fill="#63b8ff" stroke="#63b8ff" points="943.17,-84.68 943.6,-74.09 936.66,-82.1 943.17,-84.68"/>
</a>
</g>
</g>
<!-- Node22 -->
<g id="Node000022" class="node">
<title>Node22</title>
<g id="a_Node000022"><a xlink:href="_d_list_base_8h.html" target="_top" xlink:title=" ">
<polygon fill="white" stroke="#666666" points="411.5,-129 270.5,-129 270.5,-110 411.5,-110 411.5,-129"/>
<text text-anchor="middle" x="341" y="-117" font-family="Helvetica,sans-Serif" font-size="10.00">Kit/Container/DListBase.h</text>
</a>
</g>
</g>
<!-- Node21&#45;&gt;Node22 -->
<g id="edge29_Node000021_Node000022" class="edge">
<title>Node21&#45;&gt;Node22</title>
<g id="a_edge29_Node000021_Node000022"><a xlink:title=" ">
<path fill="none" stroke="#63b8ff" d="M332.65,-164.75C333.96,-157.8 335.84,-147.85 337.48,-139.13"/>
<polygon fill="#63b8ff" stroke="#63b8ff" points="340.96,-139.56 339.38,-129.09 334.09,-138.27 340.96,-139.56"/>
</a>
</g>
</g>
<!-- Node22&#45;&gt;Node5 -->
<g id="edge30_Node000022_Node000005" class="edge">
<title>Node22&#45;&gt;Node5</title>
<g id="a_edge30_Node000022_Node000005"><a xlink:title=" ">
<path fill="none" stroke="#63b8ff" d="M341,-109.75C341,-102.8 341,-92.85 341,-84.13"/>
<polygon fill="#63b8ff" stroke="#63b8ff" points="344.5,-84.09 341,-74.09 337.5,-84.09 344.5,-84.09"/>
</a>
</g>
</g>
<!-- Node23&#45;&gt;Node3 -->
<g id="edge35_Node000023_Node000003" class="edge">
<title>Node23&#45;&gt;Node3</title>
<g id="a_edge35_Node000023_Node000003"><a xlink:title=" ">
<path fill="none" stroke="#63b8ff" d="M174.08,-220.39C235.39,-211.03 336.28,-195.62 402.44,-185.51"/>
<polygon fill="#63b8ff" stroke="#63b8ff" points="402.98,-188.97 412.34,-184 401.93,-182.05 402.98,-188.97"/>
</a>
</g>
</g>
<!-- Node23&#45;&gt;Node9 -->
<g id="edge36_Node000023_Node000009" class="edge">
<title>Node23&#45;&gt;Node9</title>
<g id="a_edge36_Node000023_Node000009"><a xlink:title=" ">
<path fill="none" stroke="#63b8ff" d="M110.15,-219.84C87.44,-200.62 38.52,-152.7 57,-110 73.61,-71.63 113.11,-41.25 138.92,-24.59"/>
<polygon fill="#63b8ff" stroke="#63b8ff" points="141.11,-27.35 147.74,-19.09 137.4,-21.41 141.11,-27.35"/>
</a>
</g>
</g>
<!-- Node23&#45;&gt;Node15 -->
<g id="edge34_Node000023_Node000015" class="edge">
<title>Node23&#45;&gt;Node15</title>
<g id="a_edge34_Node000023_Node000015"><a xlink:title=" ">
<path fill="none" stroke="#63b8ff" d="M121,-219.66C121,-202.17 121,-162.8 121,-139.27"/>
<polygon fill="#63b8ff" stroke="#63b8ff" points="124.5,-139.16 121,-129.16 117.5,-139.16 124.5,-139.16"/>
</a>
</g>
</g>
</g>
</svg>
