<?xml version="1.0" encoding="UTF-8" standalone="no"?>
<!DOCTYPE svg PUBLIC "-//W3C//DTD SVG 1.1//EN"
 "http://www.w3.org/Graphics/SVG/1.1/DTD/svg11.dtd">
<!-- Generated by graphviz version 2.43.0 (0)
 -->
<!-- Title: Kit/System/Semaphore.h Pages: 1 -->
<svg width="1099pt" height="225pt"
 viewBox="0.00 0.00 1099.00 225.00" xmlns="http://www.w3.org/2000/svg" xmlns:xlink="http://www.w3.org/1999/xlink">
<g id="graph0" class="graph" transform="scale(1 1) rotate(0) translate(4 221)">
<title>Kit/System/Semaphore.h</title>
<!-- Node1 -->
<g id="Node000001" class="node">
<title>Node1</title>
<g id="a_Node000001"><a xlink:title=" ">
<polygon fill="#999999" stroke="#666666" points="603,-217 466,-217 466,-198 603,-198 603,-217"/>
<text text-anchor="middle" x="534.5" y="-205" font-family="Helvetica,sans-Serif" font-size="10.00">Kit/System/Semaphore.h</text>
</a>
</g>
</g>
<!-- Node2 -->
<g id="Node000002" class="node">
<title>Node2</title>
<g id="a_Node000002"><a xlink:href="_bare_metal_2_thread_8h.html" target="_top" xlink:title=" ">
<polygon fill="white" stroke="#666666" points="123,-162 0,-162 0,-132 123,-132 123,-162"/>
<text text-anchor="start" x="8" y="-150" font-family="Helvetica,sans-Serif" font-size="10.00">Kit/System/BareMetal</text>
<text text-anchor="middle" x="61.5" y="-139" font-family="Helvetica,sans-Serif" font-size="10.00">/Thread.h</text>
</a>
</g>
</g>
<!-- Node1&#45;&gt;Node2 -->
<g id="edge1_Node000001_Node000002" class="edge">
<title>Node1&#45;&gt;Node2</title>
<g id="a_edge1_Node000001_Node000002"><a xlink:title=" ">
<path fill="none" stroke="#63b8ff" d="M455.84,-199.77C374.61,-192.36 244.32,-179.18 132.5,-162 129.4,-161.52 126.22,-161.01 123.02,-160.46"/>
<polygon fill="#63b8ff" stroke="#63b8ff" points="455.71,-203.28 465.98,-200.69 456.34,-196.3 455.71,-203.28"/>
</a>
</g>
</g>
<!-- Node3 -->
<g id="Node000003" class="node">
<title>Node3</title>
<g id="a_Node000003"><a xlink:href="_event_loop_8h.html" target="_top" xlink:title=" ">
<polygon fill="white" stroke="#666666" points="274,-156.5 141,-156.5 141,-137.5 274,-137.5 274,-156.5"/>
<text text-anchor="middle" x="207.5" y="-144.5" font-family="Helvetica,sans-Serif" font-size="10.00">Kit/System/EventLoop.h</text>
</a>
</g>
</g>
<!-- Node1&#45;&gt;Node3 -->
<g id="edge2_Node000001_Node000003" class="edge">
<title>Node1&#45;&gt;Node3</title>
<g id="a_edge2_Node000001_Node000003"><a xlink:title=" ">
<path fill="none" stroke="#63b8ff" d="M475.74,-196.2C424.86,-187.25 349.3,-173.89 283.5,-162 273.86,-160.26 263.54,-158.37 253.71,-156.56"/>
<polygon fill="#63b8ff" stroke="#63b8ff" points="475.44,-199.7 485.9,-197.98 476.65,-192.8 475.44,-199.7"/>
</a>
</g>
</g>
<!-- Node7 -->
<g id="Node000007" class="node">
<title>Node7</title>
<g id="a_Node000007"><a xlink:href="_posix_2_thread_8h.html" target="_top" xlink:title=" ">
<polygon fill="white" stroke="#666666" points="437,-156.5 292,-156.5 292,-137.5 437,-137.5 437,-156.5"/>
<text text-anchor="middle" x="364.5" y="-144.5" font-family="Helvetica,sans-Serif" font-size="10.00">Kit/System/Posix/Thread.h</text>
</a>
</g>
</g>
<!-- Node1&#45;&gt;Node7 -->
<g id="edge6_Node000001_Node000007" class="edge">
<title>Node1&#45;&gt;Node7</title>
<g id="a_edge6_Node000001_Node000007"><a xlink:title=" ">
<path fill="none" stroke="#63b8ff" d="M500.13,-194.67C467.25,-183.36 418.47,-166.57 389.25,-156.52"/>
<polygon fill="#63b8ff" stroke="#63b8ff" points="499.19,-198.05 509.78,-197.99 501.46,-191.43 499.19,-198.05"/>
</a>
</g>
</g>
<!-- Node8 -->
<g id="Node000008" class="node">
<title>Node8</title>
<g id="a_Node000008"><a xlink:href="_posix_2mappings_8h.html" target="_top" xlink:title="This file provides the mappings for Platform specific types, etc.">
<polygon fill="white" stroke="#666666" points="614,-156.5 455,-156.5 455,-137.5 614,-137.5 614,-156.5"/>
<text text-anchor="middle" x="534.5" y="-144.5" font-family="Helvetica,sans-Serif" font-size="10.00">Kit/System/Posix/mappings.h</text>
</a>
</g>
</g>
<!-- Node1&#45;&gt;Node8 -->
<g id="edge7_Node000001_Node000008" class="edge">
<title>Node1&#45;&gt;Node8</title>
<g id="a_edge7_Node000001_Node000008"><a xlink:title=" ">
<path fill="none" stroke="#63b8ff" d="M534.5,-187.66C534.5,-177.24 534.5,-164.8 534.5,-156.67"/>
<polygon fill="#63b8ff" stroke="#63b8ff" points="531,-187.87 534.5,-197.87 538,-187.87 531,-187.87"/>
</a>
</g>
</g>
<!-- Node9 -->
<g id="Node000009" class="node">
<title>Node9</title>
<g id="a_Node000009"><a xlink:href="_r_p_pico_2_thread_8h.html" target="_top" xlink:title=" ">
<polygon fill="white" stroke="#666666" points="784.5,-156.5 632.5,-156.5 632.5,-137.5 784.5,-137.5 784.5,-156.5"/>
<text text-anchor="middle" x="708.5" y="-144.5" font-family="Helvetica,sans-Serif" font-size="10.00">Kit/System/RPPico/Thread.h</text>
</a>
</g>
</g>
<!-- Node1&#45;&gt;Node9 -->
<g id="edge8_Node000001_Node000009" class="edge">
<title>Node1&#45;&gt;Node9</title>
<g id="a_edge8_Node000001_Node000009"><a xlink:title=" ">
<path fill="none" stroke="#63b8ff" d="M569.68,-194.67C603.33,-183.36 653.26,-166.57 683.17,-156.52"/>
<polygon fill="#63b8ff" stroke="#63b8ff" points="568.16,-191.49 559.8,-197.99 570.4,-198.12 568.16,-191.49"/>
</a>
</g>
</g>
<!-- Node10 -->
<g id="Node000010" class="node">
<title>Node10</title>
<g id="a_Node000010"><a xlink:href="_sim_tick_8h.html" target="_top" xlink:title=" ">
<polygon fill="white" stroke="#666666" points="924,-156.5 803,-156.5 803,-137.5 924,-137.5 924,-156.5"/>
<text text-anchor="middle" x="863.5" y="-144.5" font-family="Helvetica,sans-Serif" font-size="10.00">Kit/System/SimTick.h</text>
</a>
</g>
</g>
<!-- Node1&#45;&gt;Node10 -->
<g id="edge9_Node000001_Node000010" class="edge">
<title>Node1&#45;&gt;Node10</title>
<g id="a_edge9_Node000001_Node000010"><a xlink:title=" ">
<path fill="none" stroke="#63b8ff" d="M596.83,-196.28C649.34,-187.55 726.43,-174.47 793.5,-162 802.64,-160.3 812.43,-158.4 821.71,-156.55"/>
<polygon fill="#63b8ff" stroke="#63b8ff" points="595.96,-192.88 586.66,-197.97 597.1,-199.78 595.96,-192.88"/>
</a>
</g>
</g>
<!-- Node11 -->
<g id="Node000011" class="node">
<title>Node11</title>
<g id="a_Node000011"><a xlink:href="_win32_2_thread_8h.html" target="_top" xlink:title=" ">
<polygon fill="white" stroke="#666666" points="1091,-156.5 942,-156.5 942,-137.5 1091,-137.5 1091,-156.5"/>
<text text-anchor="middle" x="1016.5" y="-144.5" font-family="Helvetica,sans-Serif" font-size="10.00">Kit/System/Win32/Thread.h</text>
</a>
</g>
</g>
<!-- Node1&#45;&gt;Node11 -->
<g id="edge10_Node000001_Node000011" class="edge">
<title>Node1&#45;&gt;Node11</title>
<g id="a_edge10_Node000001_Node000011"><a xlink:title=" ">
<path fill="none" stroke="#63b8ff" d="M613.2,-199.04C693.8,-191.08 822.62,-177.52 933.5,-162 944.93,-160.4 957.21,-158.45 968.73,-156.53"/>
<polygon fill="#63b8ff" stroke="#63b8ff" points="612.74,-195.56 603.13,-200.03 613.43,-202.53 612.74,-195.56"/>
</a>
</g>
</g>
<!-- Node4 -->
<g id="Node000004" class="node">
<title>Node4</title>
<g id="a_Node000004"><a xlink:href="_server_8h.html" target="_top" xlink:title=" ">
<polygon fill="white" stroke="#666666" points="196,-90.5 61,-90.5 61,-71.5 196,-71.5 196,-90.5"/>
<text text-anchor="middle" x="128.5" y="-78.5" font-family="Helvetica,sans-Serif" font-size="10.00">Kit/EventQueue/Server.h</text>
</a>
</g>
</g>
<!-- Node3&#45;&gt;Node4 -->
<g id="edge3_Node000003_Node000004" class="edge">
<title>Node3&#45;&gt;Node4</title>
<g id="a_edge3_Node000003_Node000004"><a xlink:title=" ">
<path fill="none" stroke="#63b8ff" d="M188.97,-130.99C173.5,-118.46 152,-101.04 139.24,-90.7"/>
<polygon fill="#63b8ff" stroke="#63b8ff" points="186.87,-133.79 196.85,-137.37 191.28,-128.35 186.87,-133.79"/>
</a>
</g>
</g>
<!-- Node6 -->
<g id="Node000006" class="node">
<title>Node6</title>
<g id="a_Node000006"><a xlink:href="_event_loop_with_p_scheduling_8h.html" target="_top" xlink:title=" ">
<polygon fill="white" stroke="#666666" points="360.5,-96 214.5,-96 214.5,-66 360.5,-66 360.5,-96"/>
<text text-anchor="start" x="222.5" y="-84" font-family="Helvetica,sans-Serif" font-size="10.00">Kit/System/EventLoopWith</text>
<text text-anchor="middle" x="287.5" y="-73" font-family="Helvetica,sans-Serif" font-size="10.00">PScheduling.h</text>
</a>
</g>
</g>
<!-- Node3&#45;&gt;Node6 -->
<g id="edge5_Node000003_Node000006" class="edge">
<title>Node3&#45;&gt;Node6</title>
<g id="a_edge5_Node000003_Node000006"><a xlink:title=" ">
<path fill="none" stroke="#63b8ff" d="M226.23,-131.02C239.41,-120.48 256.93,-106.46 269.86,-96.12"/>
<polygon fill="#63b8ff" stroke="#63b8ff" points="223.91,-128.39 218.29,-137.37 228.28,-133.85 223.91,-128.39"/>
</a>
</g>
</g>
<!-- Node5 -->
<g id="Node000005" class="node">
<title>Node5</title>
<g id="a_Node000005"><a xlink:href="_with_periodic_scheduling_8h.html" target="_top" xlink:title=" ">
<polygon fill="white" stroke="#666666" points="207,-30 50,-30 50,0 207,0 207,-30"/>
<text text-anchor="start" x="58" y="-18" font-family="Helvetica,sans-Serif" font-size="10.00">Kit/EventQueue/WithPeriodic</text>
<text text-anchor="middle" x="128.5" y="-7" font-family="Helvetica,sans-Serif" font-size="10.00">Scheduling.h</text>
</a>
</g>
</g>
<!-- Node4&#45;&gt;Node5 -->
<g id="edge4_Node000004_Node000005" class="edge">
<title>Node4&#45;&gt;Node5</title>
<g id="a_edge4_Node000004_Node000005"><a xlink:title=" ">
<path fill="none" stroke="#63b8ff" d="M128.5,-61.35C128.5,-51.47 128.5,-39.51 128.5,-30.36"/>
<polygon fill="#63b8ff" stroke="#63b8ff" points="125,-61.37 128.5,-71.37 132,-61.37 125,-61.37"/>
</a>
</g>
</g>
</g>
</svg>
