<?xml version="1.0" encoding="UTF-8" standalone="no"?>
<!DOCTYPE svg PUBLIC "-//W3C//DTD SVG 1.1//EN"
 "http://www.w3.org/Graphics/SVG/1.1/DTD/svg11.dtd">
<!-- Generated by graphviz version 2.43.0 (0)
 -->
<!-- Title: Kit/System/Semaphore.h Pages: 1 -->
<svg width="1358pt" height="225pt"
 viewBox="0.00 0.00 1358.00 225.00" xmlns="http://www.w3.org/2000/svg" xmlns:xlink="http://www.w3.org/1999/xlink">
<g id="graph0" class="graph" transform="scale(1 1) rotate(0) translate(4 221)">
<title>Kit/System/Semaphore.h</title>
<!-- Node1 -->
<g id="Node000001" class="node">
<title>Node1</title>
<g id="a_Node000001"><a xlink:title=" ">
<polygon fill="#999999" stroke="#666666" points="692,-217 555,-217 555,-198 692,-198 692,-217"/>
<text text-anchor="middle" x="623.5" y="-205" font-family="Helvetica,sans-Serif" font-size="10.00">Kit/System/Semaphore.h</text>
</a>
</g>
</g>
<!-- Node2 -->
<g id="Node000002" class="node">
<title>Node2</title>
<g id="a_Node000002"><a xlink:href="_ram_2_input_output_8h.html" target="_top" xlink:title=" ">
<polygon fill="white" stroke="#666666" points="180,-156.5 43,-156.5 43,-137.5 180,-137.5 180,-156.5"/>
<text text-anchor="middle" x="111.5" y="-144.5" font-family="Helvetica,sans-Serif" font-size="10.00">Kit/Io/Ram/InputOutput.h</text>
</a>
</g>
</g>
<!-- Node1&#45;&gt;Node2 -->
<g id="edge1_Node000001_Node000002" class="edge">
<title>Node1&#45;&gt;Node2</title>
<g id="a_edge1_Node000001_Node000002"><a xlink:title=" ">
<path fill="none" stroke="#63b8ff" d="M544.75,-198.98C461.01,-190.78 324.75,-176.82 207.5,-162 194.47,-160.35 180.46,-158.41 167.29,-156.5"/>
<polygon fill="#63b8ff" stroke="#63b8ff" points="544.65,-202.49 554.95,-199.98 545.34,-195.52 544.65,-202.49"/>
</a>
</g>
</g>
<!-- Node4 -->
<g id="Node000004" class="node">
<title>Node4</title>
<g id="a_Node000004"><a xlink:href="_bare_metal_2_thread_8h.html" target="_top" xlink:title=" ">
<polygon fill="white" stroke="#666666" points="340,-162 217,-162 217,-132 340,-132 340,-162"/>
<text text-anchor="start" x="225" y="-150" font-family="Helvetica,sans-Serif" font-size="10.00">Kit/System/BareMetal</text>
<text text-anchor="middle" x="278.5" y="-139" font-family="Helvetica,sans-Serif" font-size="10.00">/Thread.h</text>
</a>
</g>
</g>
<!-- Node1&#45;&gt;Node4 -->
<g id="edge3_Node000001_Node000004" class="edge">
<title>Node1&#45;&gt;Node4</title>
<g id="a_edge3_Node000001_Node000004"><a xlink:title=" ">
<path fill="none" stroke="#63b8ff" d="M556.94,-196.43C501.17,-187.83 419.51,-174.84 348.5,-162 345.82,-161.51 343.08,-161.01 340.31,-160.49"/>
<polygon fill="#63b8ff" stroke="#63b8ff" points="556.63,-199.93 567.04,-197.99 557.69,-193.01 556.63,-199.93"/>
</a>
</g>
</g>
<!-- Node5 -->
<g id="Node000005" class="node">
<title>Node5</title>
<g id="a_Node000005"><a xlink:href="_event_loop_8h.html" target="_top" xlink:title=" ">
<polygon fill="white" stroke="#666666" points="491,-156.5 358,-156.5 358,-137.5 491,-137.5 491,-156.5"/>
<text text-anchor="middle" x="424.5" y="-144.5" font-family="Helvetica,sans-Serif" font-size="10.00">Kit/System/EventLoop.h</text>
</a>
</g>
</g>
<!-- Node1&#45;&gt;Node5 -->
<g id="edge4_Node000001_Node000005" class="edge">
<title>Node1&#45;&gt;Node5</title>
<g id="a_edge4_Node000001_Node000005"><a xlink:title=" ">
<path fill="none" stroke="#63b8ff" d="M584.75,-195.11C546.26,-183.79 488.12,-166.7 453.47,-156.52"/>
<polygon fill="#63b8ff" stroke="#63b8ff" points="583.98,-198.53 594.56,-197.99 585.96,-191.82 583.98,-198.53"/>
</a>
</g>
</g>
<!-- Node8 -->
<g id="Node000008" class="node">
<title>Node8</title>
<g id="a_Node000008"><a xlink:href="helpers_8h.html" target="_top" xlink:title="This file defines helper functions/interface for writing unit tests.">
<polygon fill="white" stroke="#666666" points="524.5,-30 412.5,-30 412.5,0 524.5,0 524.5,-30"/>
<text text-anchor="start" x="420.5" y="-18" font-family="Helvetica,sans-Serif" font-size="10.00">Kit/_support/testing</text>
<text text-anchor="middle" x="468.5" y="-7" font-family="Helvetica,sans-Serif" font-size="10.00">/helpers.h</text>
</a>
</g>
</g>
<!-- Node1&#45;&gt;Node8 -->
<g id="edge14_Node000001_Node000008" class="edge">
<title>Node1&#45;&gt;Node8</title>
<g id="a_edge14_Node000001_Node000008"><a xlink:title=" ">
<path fill="none" stroke="#63b8ff" d="M588.73,-193.75C572.9,-186.48 554.95,-176 542.5,-162 511.89,-127.6 525.51,-106.45 503.5,-66 496.61,-53.34 487.17,-40.02 479.82,-30.32"/>
<polygon fill="#63b8ff" stroke="#63b8ff" points="587.68,-197.11 598.25,-197.86 590.46,-190.68 587.68,-197.11"/>
</a>
</g>
</g>
<!-- Node10 -->
<g id="Node000010" class="node">
<title>Node10</title>
<g id="a_Node000010"><a xlink:href="_posix_2_thread_8h.html" target="_top" xlink:title=" ">
<polygon fill="white" stroke="#666666" points="696,-156.5 551,-156.5 551,-137.5 696,-137.5 696,-156.5"/>
<text text-anchor="middle" x="623.5" y="-144.5" font-family="Helvetica,sans-Serif" font-size="10.00">Kit/System/Posix/Thread.h</text>
</a>
</g>
</g>
<!-- Node1&#45;&gt;Node10 -->
<g id="edge9_Node000001_Node000010" class="edge">
<title>Node1&#45;&gt;Node10</title>
<g id="a_edge9_Node000001_Node000010"><a xlink:title=" ">
<path fill="none" stroke="#63b8ff" d="M623.5,-187.66C623.5,-177.24 623.5,-164.8 623.5,-156.67"/>
<polygon fill="#63b8ff" stroke="#63b8ff" points="620,-187.87 623.5,-197.87 627,-187.87 620,-187.87"/>
</a>
</g>
</g>
<!-- Node11 -->
<g id="Node000011" class="node">
<title>Node11</title>
<g id="a_Node000011"><a xlink:href="_posix_2mappings_8h.html" target="_top" xlink:title="This file provides the mappings for Platform specific types, etc.">
<polygon fill="white" stroke="#666666" points="873,-156.5 714,-156.5 714,-137.5 873,-137.5 873,-156.5"/>
<text text-anchor="middle" x="793.5" y="-144.5" font-family="Helvetica,sans-Serif" font-size="10.00">Kit/System/Posix/mappings.h</text>
</a>
</g>
</g>
<!-- Node1&#45;&gt;Node11 -->
<g id="edge10_Node000001_Node000011" class="edge">
<title>Node1&#45;&gt;Node11</title>
<g id="a_edge10_Node000001_Node000011"><a xlink:title=" ">
<path fill="none" stroke="#63b8ff" d="M657.87,-194.67C690.75,-183.36 739.53,-166.57 768.75,-156.52"/>
<polygon fill="#63b8ff" stroke="#63b8ff" points="656.54,-191.43 648.22,-197.99 658.81,-198.05 656.54,-191.43"/>
</a>
</g>
</g>
<!-- Node12 -->
<g id="Node000012" class="node">
<title>Node12</title>
<g id="a_Node000012"><a xlink:href="_r_p_pico_2_thread_8h.html" target="_top" xlink:title=" ">
<polygon fill="white" stroke="#666666" points="1043.5,-156.5 891.5,-156.5 891.5,-137.5 1043.5,-137.5 1043.5,-156.5"/>
<text text-anchor="middle" x="967.5" y="-144.5" font-family="Helvetica,sans-Serif" font-size="10.00">Kit/System/RPPico/Thread.h</text>
</a>
</g>
</g>
<!-- Node1&#45;&gt;Node12 -->
<g id="edge11_Node000001_Node000012" class="edge">
<title>Node1&#45;&gt;Node12</title>
<g id="a_edge11_Node000001_Node000012"><a xlink:title=" ">
<path fill="none" stroke="#63b8ff" d="M683.41,-196.31C749.7,-185.04 855.36,-167.07 917.42,-156.52"/>
<polygon fill="#63b8ff" stroke="#63b8ff" points="682.79,-192.87 673.52,-197.99 683.97,-199.77 682.79,-192.87"/>
</a>
</g>
</g>
<!-- Node13 -->
<g id="Node000013" class="node">
<title>Node13</title>
<g id="a_Node000013"><a xlink:href="_sim_tick_8h.html" target="_top" xlink:title=" ">
<polygon fill="white" stroke="#666666" points="1183,-156.5 1062,-156.5 1062,-137.5 1183,-137.5 1183,-156.5"/>
<text text-anchor="middle" x="1122.5" y="-144.5" font-family="Helvetica,sans-Serif" font-size="10.00">Kit/System/SimTick.h</text>
</a>
</g>
</g>
<!-- Node1&#45;&gt;Node13 -->
<g id="edge12_Node000001_Node000013" class="edge">
<title>Node1&#45;&gt;Node13</title>
<g id="a_edge12_Node000001_Node000013"><a xlink:title=" ">
<path fill="none" stroke="#63b8ff" d="M702.08,-200.58C788.33,-193.56 930.72,-180.45 1052.5,-162 1062.55,-160.48 1073.34,-158.49 1083.37,-156.5"/>
<polygon fill="#63b8ff" stroke="#63b8ff" points="701.79,-197.09 692.11,-201.38 702.36,-204.07 701.79,-197.09"/>
</a>
</g>
</g>
<!-- Node14 -->
<g id="Node000014" class="node">
<title>Node14</title>
<g id="a_Node000014"><a xlink:href="_win32_2_thread_8h.html" target="_top" xlink:title=" ">
<polygon fill="white" stroke="#666666" points="1350,-156.5 1201,-156.5 1201,-137.5 1350,-137.5 1350,-156.5"/>
<text text-anchor="middle" x="1275.5" y="-144.5" font-family="Helvetica,sans-Serif" font-size="10.00">Kit/System/Win32/Thread.h</text>
</a>
</g>
</g>
<!-- Node1&#45;&gt;Node14 -->
<g id="edge13_Node000001_Node000014" class="edge">
<title>Node1&#45;&gt;Node14</title>
<g id="a_edge13_Node000001_Node000014"><a xlink:title=" ">
<path fill="none" stroke="#63b8ff" d="M702.03,-202.58C811.99,-196.58 1017.98,-183.5 1192.5,-162 1204.54,-160.52 1217.49,-158.52 1229.51,-156.51"/>
<polygon fill="#63b8ff" stroke="#63b8ff" points="701.81,-199.08 692.01,-203.12 702.19,-206.07 701.81,-199.08"/>
</a>
</g>
</g>
<!-- Node3 -->
<g id="Node000003" class="node">
<title>Node3</title>
<g id="a_Node000003"><a xlink:href="_input_output_allocate_8h.html" target="_top" xlink:title=" ">
<polygon fill="white" stroke="#666666" points="177,-90.5 0,-90.5 0,-71.5 177,-71.5 177,-90.5"/>
<text text-anchor="middle" x="88.5" y="-78.5" font-family="Helvetica,sans-Serif" font-size="10.00">Kit/Io/Ram/InputOutputAllocate.h</text>
</a>
</g>
</g>
<!-- Node2&#45;&gt;Node3 -->
<g id="edge2_Node000002_Node000003" class="edge">
<title>Node2&#45;&gt;Node3</title>
<g id="a_edge2_Node000002_Node000003"><a xlink:title=" ">
<path fill="none" stroke="#63b8ff" d="M104.97,-127.82C100.63,-115.74 95.12,-100.41 91.7,-90.91"/>
<polygon fill="#63b8ff" stroke="#63b8ff" points="101.72,-129.14 108.4,-137.37 108.31,-126.77 101.72,-129.14"/>
</a>
</g>
</g>
<!-- Node6 -->
<g id="Node000006" class="node">
<title>Node6</title>
<g id="a_Node000006"><a xlink:href="src_2_kit_2_event_queue_2_server_8h.html" target="_top" xlink:title=" ">
<polygon fill="white" stroke="#666666" points="330,-90.5 195,-90.5 195,-71.5 330,-71.5 330,-90.5"/>
<text text-anchor="middle" x="262.5" y="-78.5" font-family="Helvetica,sans-Serif" font-size="10.00">Kit/EventQueue/Server.h</text>
</a>
</g>
</g>
<!-- Node5&#45;&gt;Node6 -->
<g id="edge5_Node000005_Node000006" class="edge">
<title>Node5&#45;&gt;Node6</title>
<g id="a_edge5_Node000005_Node000006"><a xlink:title=" ">
<path fill="none" stroke="#63b8ff" d="M393.3,-133.68C361.29,-121.03 312.31,-101.68 284.26,-90.6"/>
<polygon fill="#63b8ff" stroke="#63b8ff" points="392.07,-136.95 402.65,-137.37 394.64,-130.44 392.07,-136.95"/>
</a>
</g>
</g>
<!-- Node9 -->
<g id="Node000009" class="node">
<title>Node9</title>
<g id="a_Node000009"><a xlink:href="_event_loop_with_p_scheduling_8h.html" target="_top" xlink:title=" ">
<polygon fill="white" stroke="#666666" points="494.5,-96 348.5,-96 348.5,-66 494.5,-66 494.5,-96"/>
<text text-anchor="start" x="356.5" y="-84" font-family="Helvetica,sans-Serif" font-size="10.00">Kit/System/EventLoopWith</text>
<text text-anchor="middle" x="421.5" y="-73" font-family="Helvetica,sans-Serif" font-size="10.00">PScheduling.h</text>
</a>
</g>
</g>
<!-- Node5&#45;&gt;Node9 -->
<g id="edge8_Node000005_Node000009" class="edge">
<title>Node5&#45;&gt;Node9</title>
<g id="a_edge8_Node000005_Node000009"><a xlink:title=" ">
<path fill="none" stroke="#63b8ff" d="M423.63,-127.35C423.16,-117.47 422.6,-105.51 422.17,-96.36"/>
<polygon fill="#63b8ff" stroke="#63b8ff" points="420.13,-127.54 424.1,-137.37 427.12,-127.22 420.13,-127.54"/>
</a>
</g>
</g>
<!-- Node7 -->
<g id="Node000007" class="node">
<title>Node7</title>
<g id="a_Node000007"><a xlink:href="_with_periodic_scheduling_8h.html" target="_top" xlink:title=" ">
<polygon fill="white" stroke="#666666" points="341,-30 184,-30 184,0 341,0 341,-30"/>
<text text-anchor="start" x="192" y="-18" font-family="Helvetica,sans-Serif" font-size="10.00">Kit/EventQueue/WithPeriodic</text>
<text text-anchor="middle" x="262.5" y="-7" font-family="Helvetica,sans-Serif" font-size="10.00">Scheduling.h</text>
</a>
</g>
</g>
<!-- Node6&#45;&gt;Node7 -->
<g id="edge6_Node000006_Node000007" class="edge">
<title>Node6&#45;&gt;Node7</title>
<g id="a_edge6_Node000006_Node000007"><a xlink:title=" ">
<path fill="none" stroke="#63b8ff" d="M262.5,-61.35C262.5,-51.47 262.5,-39.51 262.5,-30.36"/>
<polygon fill="#63b8ff" stroke="#63b8ff" points="259,-61.37 262.5,-71.37 266,-61.37 259,-61.37"/>
</a>
</g>
</g>
<!-- Node6&#45;&gt;Node8 -->
<g id="edge7_Node000006_Node000008" class="edge">
<title>Node6&#45;&gt;Node8</title>
<g id="a_edge7_Node000006_Node000008"><a xlink:title=" ">
<path fill="none" stroke="#63b8ff" d="M300.01,-68.35C334.63,-57.59 386.13,-41.59 423.07,-30.12"/>
<polygon fill="#63b8ff" stroke="#63b8ff" points="298.79,-65.06 290.28,-71.37 300.87,-71.74 298.79,-65.06"/>
</a>
</g>
</g>
</g>
</svg>
