<?xml version="1.0" encoding="UTF-8" standalone="no"?>
<!DOCTYPE svg PUBLIC "-//W3C//DTD SVG 1.1//EN"
 "http://www.w3.org/Graphics/SVG/1.1/DTD/svg11.dtd">
<!-- Generated by graphviz version 2.43.0 (0)
 -->
<!-- Title: Kit/Io/Serial/ST/M32F4/InputOutput.h Pages: 1 -->
<svg width="1834pt" height="335pt"
 viewBox="0.00 0.00 1834.00 335.00" xmlns="http://www.w3.org/2000/svg" xmlns:xlink="http://www.w3.org/1999/xlink">
<g id="graph0" class="graph" transform="scale(1 1) rotate(0) translate(4 331)">
<title>Kit/Io/Serial/ST/M32F4/InputOutput.h</title>
<!-- Node1 -->
<g id="Node000001" class="node">
<title>Node1</title>
<g id="a_Node000001"><a xlink:title=" ">
<polygon fill="#999999" stroke="#666666" points="1237,-327 1113,-327 1113,-297 1237,-297 1237,-327"/>
<text text-anchor="start" x="1121" y="-315" font-family="Helvetica,sans-Serif" font-size="10.00">Kit/Io/Serial/ST/M32F4</text>
<text text-anchor="middle" x="1175" y="-304" font-family="Helvetica,sans-Serif" font-size="10.00">/InputOutput.h</text>
</a>
</g>
</g>
<!-- Node2 -->
<g id="Node000002" class="node">
<title>Node2</title>
<g id="a_Node000002"><a xlink:href="_i_input_output_8h.html" target="_top" xlink:title=" ">
<polygon fill="white" stroke="#666666" points="1414.5,-261 1299.5,-261 1299.5,-242 1414.5,-242 1414.5,-261"/>
<text text-anchor="middle" x="1357" y="-249" font-family="Helvetica,sans-Serif" font-size="10.00">Kit/Io/IInputOutput.h</text>
</a>
</g>
</g>
<!-- Node1&#45;&gt;Node2 -->
<g id="edge1_Node000001_Node000002" class="edge">
<title>Node1&#45;&gt;Node2</title>
<g id="a_edge1_Node000001_Node000002"><a xlink:title=" ">
<path fill="none" stroke="#63b8ff" d="M1218.59,-296.99C1249.73,-286.98 1291.14,-273.67 1320.53,-264.22"/>
<polygon fill="#63b8ff" stroke="#63b8ff" points="1321.94,-267.45 1330.39,-261.05 1319.8,-260.78 1321.94,-267.45"/>
</a>
</g>
</g>
<!-- Node18 -->
<g id="Node000018" class="node">
<title>Node18</title>
<g id="a_Node000018"><a xlink:href="_stream_driver_8h.html" target="_top" xlink:title=" ">
<polygon fill="white" stroke="#666666" points="1004,-206 880,-206 880,-176 1004,-176 1004,-206"/>
<text text-anchor="start" x="888" y="-194" font-family="Helvetica,sans-Serif" font-size="10.00">Kit/Io/Serial/ST/M32F4</text>
<text text-anchor="middle" x="942" y="-183" font-family="Helvetica,sans-Serif" font-size="10.00">/StreamDriver.h</text>
</a>
</g>
</g>
<!-- Node1&#45;&gt;Node18 -->
<g id="edge24_Node000001_Node000018" class="edge">
<title>Node1&#45;&gt;Node18</title>
<g id="a_edge24_Node000001_Node000018"><a xlink:title=" ">
<path fill="none" stroke="#63b8ff" d="M1147.36,-296.88C1105.4,-275.46 1025.6,-234.7 978.79,-210.79"/>
<polygon fill="#63b8ff" stroke="#63b8ff" points="980.1,-207.53 969.61,-206.1 976.92,-213.77 980.1,-207.53"/>
</a>
</g>
</g>
<!-- Node3 -->
<g id="Node000003" class="node">
<title>Node3</title>
<g id="a_Node000003"><a xlink:href="_i_input_8h.html" target="_top" xlink:title=" ">
<polygon fill="white" stroke="#666666" points="1398,-200.5 1316,-200.5 1316,-181.5 1398,-181.5 1398,-200.5"/>
<text text-anchor="middle" x="1357" y="-188.5" font-family="Helvetica,sans-Serif" font-size="10.00">Kit/Io/IInput.h</text>
</a>
</g>
</g>
<!-- Node2&#45;&gt;Node3 -->
<g id="edge2_Node000002_Node000003" class="edge">
<title>Node2&#45;&gt;Node3</title>
<g id="a_edge2_Node000002_Node000003"><a xlink:title=" ">
<path fill="none" stroke="#63b8ff" d="M1357,-241.87C1357,-233.75 1357,-221.31 1357,-210.89"/>
<polygon fill="#63b8ff" stroke="#63b8ff" points="1360.5,-210.67 1357,-200.67 1353.5,-210.67 1360.5,-210.67"/>
</a>
</g>
</g>
<!-- Node17 -->
<g id="Node000017" class="node">
<title>Node17</title>
<g id="a_Node000017"><a xlink:href="_i_output_8h.html" target="_top" xlink:title=" ">
<polygon fill="white" stroke="#666666" points="1506,-200.5 1416,-200.5 1416,-181.5 1506,-181.5 1506,-200.5"/>
<text text-anchor="middle" x="1461" y="-188.5" font-family="Helvetica,sans-Serif" font-size="10.00">Kit/Io/IOutput.h</text>
</a>
</g>
</g>
<!-- Node2&#45;&gt;Node17 -->
<g id="edge17_Node000002_Node000017" class="edge">
<title>Node2&#45;&gt;Node17</title>
<g id="a_edge17_Node000002_Node000017"><a xlink:title=" ">
<path fill="none" stroke="#63b8ff" d="M1372.35,-241.87C1389.32,-232.32 1416.9,-216.81 1436.79,-205.62"/>
<polygon fill="#63b8ff" stroke="#63b8ff" points="1438.59,-208.62 1445.59,-200.67 1435.16,-202.52 1438.59,-208.62"/>
</a>
</g>
</g>
<!-- Node4 -->
<g id="Node000004" class="node">
<title>Node4</title>
<g id="a_Node000004"><a xlink:href="_types_8h.html" target="_top" xlink:title=" ">
<polygon fill="white" stroke="#666666" points="1260,-140 1178,-140 1178,-121 1260,-121 1260,-140"/>
<text text-anchor="middle" x="1219" y="-128" font-family="Helvetica,sans-Serif" font-size="10.00">Kit/Io/Types.h</text>
</a>
</g>
</g>
<!-- Node3&#45;&gt;Node4 -->
<g id="edge3_Node000003_Node000004" class="edge">
<title>Node3&#45;&gt;Node4</title>
<g id="a_edge3_Node000003_Node000004"><a xlink:title=" ">
<path fill="none" stroke="#63b8ff" d="M1336.93,-181.49C1313.63,-171.62 1274.99,-155.23 1248.32,-143.93"/>
<polygon fill="#63b8ff" stroke="#63b8ff" points="1249.66,-140.7 1239.09,-140.02 1246.93,-147.14 1249.66,-140.7"/>
</a>
</g>
</g>
<!-- Node8 -->
<g id="Node000008" class="node">
<title>Node8</title>
<g id="a_Node000008"><a xlink:href="_i_string_8h.html" target="_top" xlink:title=" ">
<polygon fill="white" stroke="#666666" points="1606.5,-140 1509.5,-140 1509.5,-121 1606.5,-121 1606.5,-140"/>
<text text-anchor="middle" x="1558" y="-128" font-family="Helvetica,sans-Serif" font-size="10.00">Kit/Text/IString.h</text>
</a>
</g>
</g>
<!-- Node3&#45;&gt;Node8 -->
<g id="edge7_Node000003_Node000008" class="edge">
<title>Node3&#45;&gt;Node8</title>
<g id="a_edge7_Node000003_Node000008"><a xlink:title=" ">
<path fill="none" stroke="#63b8ff" d="M1386.23,-181.49C1421.21,-171.31 1479.93,-154.22 1518.82,-142.9"/>
<polygon fill="#63b8ff" stroke="#63b8ff" points="1520.11,-146.17 1528.74,-140.02 1518.16,-139.45 1520.11,-146.17"/>
</a>
</g>
</g>
<!-- Node15 -->
<g id="Node000015" class="node">
<title>Node15</title>
<g id="a_Node000015"><a xlink:href="_io_2_i_close_8h.html" target="_top" xlink:title=" ">
<polygon fill="white" stroke="#666666" points="1399,-140 1315,-140 1315,-121 1399,-121 1399,-140"/>
<text text-anchor="middle" x="1357" y="-128" font-family="Helvetica,sans-Serif" font-size="10.00">Kit/Io/IClose.h</text>
</a>
</g>
</g>
<!-- Node3&#45;&gt;Node15 -->
<g id="edge15_Node000003_Node000015" class="edge">
<title>Node3&#45;&gt;Node15</title>
<g id="a_edge15_Node000003_Node000015"><a xlink:title=" ">
<path fill="none" stroke="#63b8ff" d="M1357,-181.37C1357,-173.25 1357,-160.81 1357,-150.39"/>
<polygon fill="#63b8ff" stroke="#63b8ff" points="1360.5,-150.17 1357,-140.17 1353.5,-150.17 1360.5,-150.17"/>
</a>
</g>
</g>
<!-- Node16 -->
<g id="Node000016" class="node">
<title>Node16</title>
<g id="a_Node000016"><a xlink:href="_i_eos_8h.html" target="_top" xlink:title=" ">
<polygon fill="white" stroke="#666666" points="1491,-140 1417,-140 1417,-121 1491,-121 1491,-140"/>
<text text-anchor="middle" x="1454" y="-128" font-family="Helvetica,sans-Serif" font-size="10.00">Kit/Io/IEos.h</text>
</a>
</g>
</g>
<!-- Node3&#45;&gt;Node16 -->
<g id="edge16_Node000003_Node000016" class="edge">
<title>Node3&#45;&gt;Node16</title>
<g id="a_edge16_Node000003_Node000016"><a xlink:title=" ">
<path fill="none" stroke="#63b8ff" d="M1371.31,-181.37C1387,-171.91 1412.4,-156.59 1430.91,-145.42"/>
<polygon fill="#63b8ff" stroke="#63b8ff" points="1432.87,-148.33 1439.63,-140.17 1429.26,-142.33 1432.87,-148.33"/>
</a>
</g>
</g>
<!-- Node5 -->
<g id="Node000005" class="node">
<title>Node5</title>
<g id="a_Node000005"><a xlink:title=" ">
<polygon fill="#e0e0e0" stroke="#999999" points="1009.5,-19 936.5,-19 936.5,0 1009.5,0 1009.5,-19"/>
<text text-anchor="middle" x="973" y="-7" font-family="Helvetica,sans-Serif" font-size="10.00">kit_config.h</text>
</a>
</g>
</g>
<!-- Node4&#45;&gt;Node5 -->
<g id="edge4_Node000004_Node000005" class="edge">
<title>Node4&#45;&gt;Node5</title>
<g id="a_edge4_Node000004_Node000005"><a xlink:title=" ">
<path fill="none" stroke="#63b8ff" d="M1215.01,-120.8C1207.32,-105.05 1188.88,-71.89 1163,-55 1119.8,-26.81 1060.79,-16.41 1020.04,-12.61"/>
<polygon fill="#63b8ff" stroke="#63b8ff" points="1020.1,-9.11 1009.84,-11.76 1019.52,-16.08 1020.1,-9.11"/>
</a>
</g>
</g>
<!-- Node6 -->
<g id="Node000006" class="node">
<title>Node6</title>
<g id="a_Node000006"><a xlink:title=" ">
<polygon fill="#e0e0e0" stroke="#999999" points="843.5,-19 778.5,-19 778.5,0 843.5,0 843.5,-19"/>
<text text-anchor="middle" x="811" y="-7" font-family="Helvetica,sans-Serif" font-size="10.00">kit_map.h</text>
</a>
</g>
</g>
<!-- Node4&#45;&gt;Node6 -->
<g id="edge5_Node000004_Node000006" class="edge">
<title>Node4&#45;&gt;Node6</title>
<g id="a_edge5_Node000004_Node000006"><a xlink:title=" ">
<path fill="none" stroke="#63b8ff" d="M1184.36,-120.94C1149.91,-112.31 1095.62,-98.39 1049,-85 976.7,-64.23 892.9,-37.34 846.53,-22.2"/>
<polygon fill="#63b8ff" stroke="#63b8ff" points="847.53,-18.85 836.94,-19.06 845.36,-25.5 847.53,-18.85"/>
</a>
</g>
</g>
<!-- Node7 -->
<g id="Node000007" class="node">
<title>Node7</title>
<g id="a_Node000007"><a xlink:title=" ">
<polygon fill="#e0e0e0" stroke="#999999" points="1312.5,-19 1259.5,-19 1259.5,0 1312.5,0 1312.5,-19"/>
<text text-anchor="middle" x="1286" y="-7" font-family="Helvetica,sans-Serif" font-size="10.00">stdint.h</text>
</a>
</g>
</g>
<!-- Node4&#45;&gt;Node7 -->
<g id="edge6_Node000004_Node000007" class="edge">
<title>Node4&#45;&gt;Node7</title>
<g id="a_edge6_Node000004_Node000007"><a xlink:title=" ">
<path fill="none" stroke="#63b8ff" d="M1260.04,-128.02C1291.14,-124.49 1331.99,-114.12 1353,-85 1360.8,-74.19 1359.3,-66.75 1353,-55 1345.49,-41 1331.43,-30.66 1318.12,-23.48"/>
<polygon fill="#63b8ff" stroke="#63b8ff" points="1319.63,-20.33 1309.11,-19.02 1316.52,-26.6 1319.63,-20.33"/>
</a>
</g>
</g>
<!-- Node9 -->
<g id="Node000009" class="node">
<title>Node9</title>
<g id="a_Node000009"><a xlink:href="_key_8h.html" target="_top" xlink:title=" ">
<polygon fill="white" stroke="#666666" points="1509.5,-79.5 1400.5,-79.5 1400.5,-60.5 1509.5,-60.5 1509.5,-79.5"/>
<text text-anchor="middle" x="1455" y="-67.5" font-family="Helvetica,sans-Serif" font-size="10.00">Kit/Container/Key.h</text>
</a>
</g>
</g>
<!-- Node8&#45;&gt;Node9 -->
<g id="edge8_Node000008_Node000009" class="edge">
<title>Node8&#45;&gt;Node9</title>
<g id="a_edge8_Node000008_Node000009"><a xlink:title=" ">
<path fill="none" stroke="#63b8ff" d="M1542.8,-120.87C1525.99,-111.32 1498.68,-95.81 1478.98,-84.62"/>
<polygon fill="#63b8ff" stroke="#63b8ff" points="1480.68,-81.56 1470.26,-79.67 1477.23,-87.65 1480.68,-81.56"/>
</a>
</g>
</g>
<!-- Node12 -->
<g id="Node000012" class="node">
<title>Node12</title>
<g id="a_Node000012"><a xlink:href="printfchecker_8h.html" target="_top" xlink:title="This file contains macro that enables the GCC (and Clang) compiler to validate printf flags with thei...">
<polygon fill="white" stroke="#666666" points="1751.5,-79.5 1606.5,-79.5 1606.5,-60.5 1751.5,-60.5 1751.5,-79.5"/>
<text text-anchor="middle" x="1679" y="-67.5" font-family="Helvetica,sans-Serif" font-size="10.00">Kit/System/printfchecker.h</text>
</a>
</g>
</g>
<!-- Node8&#45;&gt;Node12 -->
<g id="edge12_Node000008_Node000012" class="edge">
<title>Node8&#45;&gt;Node12</title>
<g id="a_edge12_Node000008_Node000012"><a xlink:title=" ">
<path fill="none" stroke="#63b8ff" d="M1575.59,-120.99C1595.76,-111.25 1629.02,-95.16 1652.36,-83.88"/>
<polygon fill="#63b8ff" stroke="#63b8ff" points="1653.9,-87.02 1661.38,-79.52 1650.86,-80.72 1653.9,-87.02"/>
</a>
</g>
</g>
<!-- Node13 -->
<g id="Node000013" class="node">
<title>Node13</title>
<g id="a_Node000013"><a xlink:title=" ">
<polygon fill="#e0e0e0" stroke="#999999" points="1826,-79.5 1770,-79.5 1770,-60.5 1826,-60.5 1826,-79.5"/>
<text text-anchor="middle" x="1798" y="-67.5" font-family="Helvetica,sans-Serif" font-size="10.00">stdarg.h</text>
</a>
</g>
</g>
<!-- Node8&#45;&gt;Node13 -->
<g id="edge13_Node000008_Node000013" class="edge">
<title>Node8&#45;&gt;Node13</title>
<g id="a_edge13_Node000008_Node000013"><a xlink:title=" ">
<path fill="none" stroke="#63b8ff" d="M1606.49,-120.93C1647.94,-113.12 1708.95,-100.46 1761,-85 1763.14,-84.36 1765.33,-83.66 1767.53,-82.93"/>
<polygon fill="#63b8ff" stroke="#63b8ff" points="1768.81,-86.19 1777.05,-79.53 1766.46,-79.59 1768.81,-86.19"/>
</a>
</g>
</g>
<!-- Node14 -->
<g id="Node000014" class="node">
<title>Node14</title>
<g id="a_Node000014"><a xlink:title=" ">
<polygon fill="#e0e0e0" stroke="#999999" points="1588,-79.5 1528,-79.5 1528,-60.5 1588,-60.5 1588,-79.5"/>
<text text-anchor="middle" x="1558" y="-67.5" font-family="Helvetica,sans-Serif" font-size="10.00">iostream</text>
</a>
</g>
</g>
<!-- Node8&#45;&gt;Node14 -->
<g id="edge14_Node000008_Node000014" class="edge">
<title>Node8&#45;&gt;Node14</title>
<g id="a_edge14_Node000008_Node000014"><a xlink:title=" ">
<path fill="none" stroke="#63b8ff" d="M1558,-120.87C1558,-112.75 1558,-100.31 1558,-89.89"/>
<polygon fill="#63b8ff" stroke="#63b8ff" points="1561.5,-89.67 1558,-79.67 1554.5,-89.67 1561.5,-89.67"/>
</a>
</g>
</g>
<!-- Node9&#45;&gt;Node7 -->
<g id="edge9_Node000009_Node000007" class="edge">
<title>Node9&#45;&gt;Node7</title>
<g id="a_edge9_Node000009_Node000007"><a xlink:title=" ">
<path fill="none" stroke="#63b8ff" d="M1430.43,-60.49C1401.39,-50.44 1352.9,-33.66 1320.2,-22.34"/>
<polygon fill="#63b8ff" stroke="#63b8ff" points="1321.2,-18.98 1310.6,-19.02 1318.91,-25.6 1321.2,-18.98"/>
</a>
</g>
</g>
<!-- Node10 -->
<g id="Node000010" class="node">
<title>Node10</title>
<g id="a_Node000010"><a xlink:title=" ">
<polygon fill="#e0e0e0" stroke="#999999" points="1392.5,-19 1339.5,-19 1339.5,0 1392.5,0 1392.5,-19"/>
<text text-anchor="middle" x="1366" y="-7" font-family="Helvetica,sans-Serif" font-size="10.00">stdlib.h</text>
</a>
</g>
</g>
<!-- Node9&#45;&gt;Node10 -->
<g id="edge10_Node000009_Node000010" class="edge">
<title>Node9&#45;&gt;Node10</title>
<g id="a_edge10_Node000009_Node000010"><a xlink:title=" ">
<path fill="none" stroke="#63b8ff" d="M1441.87,-60.37C1427.67,-51.04 1404.8,-36.01 1387.88,-24.88"/>
<polygon fill="#63b8ff" stroke="#63b8ff" points="1389.47,-21.74 1379.19,-19.17 1385.62,-27.58 1389.47,-21.74"/>
</a>
</g>
</g>
<!-- Node11 -->
<g id="Node000011" class="node">
<title>Node11</title>
<g id="a_Node000011"><a xlink:title=" ">
<polygon fill="#e0e0e0" stroke="#999999" points="1481.5,-19 1428.5,-19 1428.5,0 1481.5,0 1481.5,-19"/>
<text text-anchor="middle" x="1455" y="-7" font-family="Helvetica,sans-Serif" font-size="10.00">limits.h</text>
</a>
</g>
</g>
<!-- Node9&#45;&gt;Node11 -->
<g id="edge11_Node000009_Node000011" class="edge">
<title>Node9&#45;&gt;Node11</title>
<g id="a_edge11_Node000009_Node000011"><a xlink:title=" ">
<path fill="none" stroke="#63b8ff" d="M1455,-60.37C1455,-52.25 1455,-39.81 1455,-29.39"/>
<polygon fill="#63b8ff" stroke="#63b8ff" points="1458.5,-29.17 1455,-19.17 1451.5,-29.17 1458.5,-29.17"/>
</a>
</g>
</g>
<!-- Node17&#45;&gt;Node4 -->
<g id="edge18_Node000017_Node000004" class="edge">
<title>Node17&#45;&gt;Node4</title>
<g id="a_edge18_Node000017_Node000004"><a xlink:title=" ">
<path fill="none" stroke="#63b8ff" d="M1428.48,-181.45C1421.4,-179.62 1413.96,-177.72 1407,-176 1359.04,-164.11 1304.01,-151.16 1265.94,-142.32"/>
<polygon fill="#63b8ff" stroke="#63b8ff" points="1266.69,-138.9 1256.15,-140.05 1265.1,-145.72 1266.69,-138.9"/>
</a>
</g>
</g>
<!-- Node17&#45;&gt;Node8 -->
<g id="edge19_Node000017_Node000008" class="edge">
<title>Node17&#45;&gt;Node8</title>
<g id="a_edge19_Node000017_Node000008"><a xlink:title=" ">
<path fill="none" stroke="#63b8ff" d="M1475.31,-181.37C1491,-171.91 1516.4,-156.59 1534.91,-145.42"/>
<polygon fill="#63b8ff" stroke="#63b8ff" points="1536.87,-148.33 1543.63,-140.17 1533.26,-142.33 1536.87,-148.33"/>
</a>
</g>
</g>
<!-- Node17&#45;&gt;Node12 -->
<g id="edge22_Node000017_Node000012" class="edge">
<title>Node17&#45;&gt;Node12</title>
<g id="a_edge22_Node000017_Node000012"><a xlink:title=" ">
<path fill="none" stroke="#63b8ff" d="M1506.09,-181.93C1538.54,-174.63 1582.35,-161.64 1616,-140 1637.44,-126.21 1656.3,-103.35 1667.67,-87.75"/>
<polygon fill="#63b8ff" stroke="#63b8ff" points="1670.56,-89.72 1673.46,-79.53 1664.84,-85.69 1670.56,-89.72"/>
</a>
</g>
</g>
<!-- Node17&#45;&gt;Node13 -->
<g id="edge23_Node000017_Node000013" class="edge">
<title>Node17&#45;&gt;Node13</title>
<g id="a_edge23_Node000017_Node000013"><a xlink:title=" ">
<path fill="none" stroke="#63b8ff" d="M1497.12,-181.49C1533.6,-172.52 1591.37,-157.32 1640,-140 1687.07,-123.24 1739.94,-99 1771.03,-84.16"/>
<polygon fill="#63b8ff" stroke="#63b8ff" points="1772.82,-87.18 1780.32,-79.69 1769.79,-80.87 1772.82,-87.18"/>
</a>
</g>
</g>
<!-- Node17&#45;&gt;Node15 -->
<g id="edge20_Node000017_Node000015" class="edge">
<title>Node17&#45;&gt;Node15</title>
<g id="a_edge20_Node000017_Node000015"><a xlink:title=" ">
<path fill="none" stroke="#63b8ff" d="M1445.65,-181.37C1428.68,-171.82 1401.1,-156.31 1381.21,-145.12"/>
<polygon fill="#63b8ff" stroke="#63b8ff" points="1382.84,-142.02 1372.41,-140.17 1379.41,-148.12 1382.84,-142.02"/>
</a>
</g>
</g>
<!-- Node17&#45;&gt;Node16 -->
<g id="edge21_Node000017_Node000016" class="edge">
<title>Node17&#45;&gt;Node16</title>
<g id="a_edge21_Node000017_Node000016"><a xlink:title=" ">
<path fill="none" stroke="#63b8ff" d="M1459.97,-181.37C1459,-173.25 1457.51,-160.81 1456.26,-150.39"/>
<polygon fill="#63b8ff" stroke="#63b8ff" points="1459.7,-149.68 1455.04,-140.17 1452.75,-150.51 1459.7,-149.68"/>
</a>
</g>
</g>
<!-- Node18&#45;&gt;Node4 -->
<g id="edge48_Node000018_Node000004" class="edge">
<title>Node18&#45;&gt;Node4</title>
<g id="a_edge48_Node000018_Node000004"><a xlink:title=" ">
<path fill="none" stroke="#63b8ff" d="M1004.16,-176.87C1053.8,-166.39 1122.45,-151.89 1168.68,-142.13"/>
<polygon fill="#63b8ff" stroke="#63b8ff" points="1169.41,-145.55 1178.47,-140.06 1167.97,-138.7 1169.41,-145.55"/>
</a>
</g>
</g>
<!-- Node18&#45;&gt;Node5 -->
<g id="edge25_Node000018_Node000005" class="edge">
<title>Node18&#45;&gt;Node5</title>
<g id="a_edge25_Node000018_Node000005"><a xlink:title=" ">
<path fill="none" stroke="#63b8ff" d="M953.44,-175.65C960.28,-166.15 968.33,-153.06 972,-140 982.71,-101.9 979.16,-54.96 975.9,-29.36"/>
<polygon fill="#63b8ff" stroke="#63b8ff" points="979.33,-28.62 974.48,-19.2 972.4,-29.59 979.33,-28.62"/>
</a>
</g>
</g>
<!-- Node19 -->
<g id="Node000019" class="node">
<title>Node19</title>
<g id="a_Node000019"><a xlink:href="_bsp_2_api_8h.html" target="_top" xlink:title="This file defines a common/generic Board Support Package (BSP) Interface that provides an indirect re...">
<polygon fill="white" stroke="#666666" points="794.5,-79.5 715.5,-79.5 715.5,-60.5 794.5,-60.5 794.5,-79.5"/>
<text text-anchor="middle" x="755" y="-67.5" font-family="Helvetica,sans-Serif" font-size="10.00">Kit/Bsp/Api.h</text>
</a>
</g>
</g>
<!-- Node18&#45;&gt;Node19 -->
<g id="edge26_Node000018_Node000019" class="edge">
<title>Node18&#45;&gt;Node19</title>
<g id="a_edge26_Node000018_Node000019"><a xlink:title=" ">
<path fill="none" stroke="#63b8ff" d="M886.54,-175.94C861.91,-167.97 833.48,-156.28 811,-140 791.75,-126.06 775.39,-103.92 765.42,-88.49"/>
<polygon fill="#63b8ff" stroke="#63b8ff" points="768.31,-86.52 760.06,-79.88 762.37,-90.22 768.31,-86.52"/>
</a>
</g>
</g>
<!-- Node20 -->
<g id="Node000020" class="node">
<title>Node20</title>
<g id="a_Node000020"><a xlink:href="_ring_buffer_8h.html" target="_top" xlink:title=" ">
<polygon fill="white" stroke="#666666" points="963.5,-140 820.5,-140 820.5,-121 963.5,-121 963.5,-140"/>
<text text-anchor="middle" x="892" y="-128" font-family="Helvetica,sans-Serif" font-size="10.00">Kit/Container/RingBuffer.h</text>
</a>
</g>
</g>
<!-- Node18&#45;&gt;Node20 -->
<g id="edge29_Node000018_Node000020" class="edge">
<title>Node18&#45;&gt;Node20</title>
<g id="a_edge29_Node000018_Node000020"><a xlink:title=" ">
<path fill="none" stroke="#63b8ff" d="M929.9,-175.84C922.71,-167.43 913.57,-156.74 906.07,-147.96"/>
<polygon fill="#63b8ff" stroke="#63b8ff" points="908.65,-145.59 899.49,-140.27 903.33,-150.14 908.65,-145.59"/>
</a>
</g>
</g>
<!-- Node23 -->
<g id="Node000023" class="node">
<title>Node23</title>
<g id="a_Node000023"><a xlink:href="_thread_8h.html" target="_top" xlink:title=" ">
<polygon fill="white" stroke="#666666" points="584,-140 468,-140 468,-121 584,-121 584,-140"/>
<text text-anchor="middle" x="526" y="-128" font-family="Helvetica,sans-Serif" font-size="10.00">Kit/System/Thread.h</text>
</a>
</g>
</g>
<!-- Node18&#45;&gt;Node23 -->
<g id="edge36_Node000018_Node000023" class="edge">
<title>Node18&#45;&gt;Node23</title>
<g id="a_edge36_Node000018_Node000023"><a xlink:title=" ">
<path fill="none" stroke="#63b8ff" d="M879.72,-181.24C803.15,-170.47 673.62,-152.26 594.36,-141.11"/>
<polygon fill="#63b8ff" stroke="#63b8ff" points="594.39,-137.58 584,-139.66 593.42,-144.52 594.39,-137.58"/>
</a>
</g>
</g>
<!-- Node19&#45;&gt;Node5 -->
<g id="edge27_Node000019_Node000005" class="edge">
<title>Node19&#45;&gt;Node5</title>
<g id="a_edge27_Node000019_Node000005"><a xlink:title=" ">
<path fill="none" stroke="#63b8ff" d="M783.9,-60.43C790.19,-58.61 796.81,-56.71 803,-55 845.95,-43.12 895.24,-30.31 929.65,-21.49"/>
<polygon fill="#63b8ff" stroke="#63b8ff" points="930.56,-24.87 939.38,-19.01 928.82,-18.09 930.56,-24.87"/>
</a>
</g>
</g>
<!-- Node19&#45;&gt;Node6 -->
<g id="edge28_Node000019_Node000006" class="edge">
<title>Node19&#45;&gt;Node6</title>
<g id="a_edge28_Node000019_Node000006"><a xlink:title=" ">
<path fill="none" stroke="#63b8ff" d="M763.26,-60.37C771.78,-51.47 785.26,-37.39 795.73,-26.45"/>
<polygon fill="#63b8ff" stroke="#63b8ff" points="798.32,-28.81 802.7,-19.17 793.26,-23.97 798.32,-28.81"/>
</a>
</g>
</g>
<!-- Node21 -->
<g id="Node000021" class="node">
<title>Node21</title>
<g id="a_Node000021"><a xlink:href="_ring_buffer_base_8h.html" target="_top" xlink:title=" ">
<polygon fill="white" stroke="#666666" points="1344,-85 1210,-85 1210,-55 1344,-55 1344,-85"/>
<text text-anchor="start" x="1218" y="-73" font-family="Helvetica,sans-Serif" font-size="10.00">Kit/Container/RingBuffer</text>
<text text-anchor="middle" x="1277" y="-62" font-family="Helvetica,sans-Serif" font-size="10.00">Base.h</text>
</a>
</g>
</g>
<!-- Node20&#45;&gt;Node21 -->
<g id="edge30_Node000020_Node000021" class="edge">
<title>Node20&#45;&gt;Node21</title>
<g id="a_edge30_Node000020_Node000021"><a xlink:title=" ">
<path fill="none" stroke="#63b8ff" d="M947.98,-120.99C1014.31,-110.92 1125.19,-94.07 1199.68,-82.75"/>
<polygon fill="#63b8ff" stroke="#63b8ff" points="1200.58,-86.15 1209.94,-81.19 1199.53,-79.23 1200.58,-86.15"/>
</a>
</g>
</g>
<!-- Node22 -->
<g id="Node000022" class="node">
<title>Node22</title>
<g id="a_Node000022"><a xlink:href="_assert_8h.html" target="_top" xlink:title=" ">
<polygon fill="white" stroke="#666666" points="925.5,-79.5 812.5,-79.5 812.5,-60.5 925.5,-60.5 925.5,-79.5"/>
<text text-anchor="middle" x="869" y="-67.5" font-family="Helvetica,sans-Serif" font-size="10.00">Kit/System/Assert.h</text>
</a>
</g>
</g>
<!-- Node20&#45;&gt;Node22 -->
<g id="edge33_Node000020_Node000022" class="edge">
<title>Node20&#45;&gt;Node22</title>
<g id="a_edge33_Node000020_Node000022"><a xlink:title=" ">
<path fill="none" stroke="#63b8ff" d="M888.61,-120.87C885.34,-112.57 880.31,-99.78 876.16,-89.22"/>
<polygon fill="#63b8ff" stroke="#63b8ff" points="879.32,-87.69 872.41,-79.67 872.81,-90.25 879.32,-87.69"/>
</a>
</g>
</g>
<!-- Node21&#45;&gt;Node7 -->
<g id="edge31_Node000021_Node000007" class="edge">
<title>Node21&#45;&gt;Node7</title>
<g id="a_edge31_Node000021_Node000007"><a xlink:title=" ">
<path fill="none" stroke="#63b8ff" d="M1279.18,-54.84C1280.37,-47.13 1281.85,-37.49 1283.13,-29.17"/>
<polygon fill="#63b8ff" stroke="#63b8ff" points="1286.59,-29.68 1284.65,-19.27 1279.67,-28.62 1286.59,-29.68"/>
</a>
</g>
</g>
<!-- Node21&#45;&gt;Node10 -->
<g id="edge32_Node000021_Node000010" class="edge">
<title>Node21&#45;&gt;Node10</title>
<g id="a_edge32_Node000021_Node000010"><a xlink:title=" ">
<path fill="none" stroke="#63b8ff" d="M1298.54,-54.84C1312.47,-45.68 1330.53,-33.82 1344.45,-24.66"/>
<polygon fill="#63b8ff" stroke="#63b8ff" points="1346.49,-27.51 1352.92,-19.09 1342.65,-21.66 1346.49,-27.51"/>
</a>
</g>
</g>
<!-- Node22&#45;&gt;Node5 -->
<g id="edge34_Node000022_Node000005" class="edge">
<title>Node22&#45;&gt;Node5</title>
<g id="a_edge34_Node000022_Node000005"><a xlink:title=" ">
<path fill="none" stroke="#63b8ff" d="M884.35,-60.37C901.32,-50.82 928.9,-35.31 948.79,-24.12"/>
<polygon fill="#63b8ff" stroke="#63b8ff" points="950.59,-27.12 957.59,-19.17 947.16,-21.02 950.59,-27.12"/>
</a>
</g>
</g>
<!-- Node22&#45;&gt;Node6 -->
<g id="edge35_Node000022_Node000006" class="edge">
<title>Node22&#45;&gt;Node6</title>
<g id="a_edge35_Node000022_Node000006"><a xlink:title=" ">
<path fill="none" stroke="#63b8ff" d="M860.44,-60.37C851.62,-51.47 837.66,-37.39 826.82,-26.45"/>
<polygon fill="#63b8ff" stroke="#63b8ff" points="829.12,-23.8 819.59,-19.17 824.15,-28.73 829.12,-23.8"/>
</a>
</g>
</g>
<!-- Node23&#45;&gt;Node5 -->
<g id="edge37_Node000023_Node000005" class="edge">
<title>Node23&#45;&gt;Node5</title>
<g id="a_edge37_Node000023_Node000005"><a xlink:title=" ">
<path fill="none" stroke="#63b8ff" d="M584.17,-129.75C683.02,-129.1 878.45,-122.89 934,-85 953,-72.04 963.38,-46.83 968.56,-29.35"/>
<polygon fill="#63b8ff" stroke="#63b8ff" points="972.07,-29.74 971.25,-19.18 965.31,-27.95 972.07,-29.74"/>
</a>
</g>
</g>
<!-- Node23&#45;&gt;Node6 -->
<g id="edge38_Node000023_Node000006" class="edge">
<title>Node23&#45;&gt;Node6</title>
<g id="a_edge38_Node000023_Node000006"><a xlink:title=" ">
<path fill="none" stroke="#63b8ff" d="M525.42,-120.87C524.89,-105.23 526.23,-72.26 545,-55 576.82,-25.75 701.09,-15.54 767.92,-12.13"/>
<polygon fill="#63b8ff" stroke="#63b8ff" points="768.31,-15.61 778.13,-11.63 767.97,-8.62 768.31,-15.61"/>
</a>
</g>
</g>
<!-- Node24 -->
<g id="Node000024" class="node">
<title>Node24</title>
<g id="a_Node000024"><a xlink:href="_i_runnable_8h.html" target="_top" xlink:title=" ">
<polygon fill="white" stroke="#666666" points="352.5,-79.5 221.5,-79.5 221.5,-60.5 352.5,-60.5 352.5,-79.5"/>
<text text-anchor="middle" x="287" y="-67.5" font-family="Helvetica,sans-Serif" font-size="10.00">Kit/System/IRunnable.h</text>
</a>
</g>
</g>
<!-- Node23&#45;&gt;Node24 -->
<g id="edge39_Node000023_Node000024" class="edge">
<title>Node23&#45;&gt;Node24</title>
<g id="a_edge39_Node000023_Node000024"><a xlink:title=" ">
<path fill="none" stroke="#63b8ff" d="M491.25,-120.99C449.03,-110.66 377.75,-93.21 331.54,-81.9"/>
<polygon fill="#63b8ff" stroke="#63b8ff" points="332.34,-78.49 321.79,-79.52 330.68,-85.29 332.34,-78.49"/>
</a>
</g>
</g>
<!-- Node25 -->
<g id="Node000025" class="node">
<title>Node25</title>
<g id="a_Node000025"><a xlink:href="_i_signable_8h.html" target="_top" xlink:title=" ">
<polygon fill="white" stroke="#666666" points="497.5,-79.5 370.5,-79.5 370.5,-60.5 497.5,-60.5 497.5,-79.5"/>
<text text-anchor="middle" x="434" y="-67.5" font-family="Helvetica,sans-Serif" font-size="10.00">Kit/System/ISignable.h</text>
</a>
</g>
</g>
<!-- Node23&#45;&gt;Node25 -->
<g id="edge40_Node000023_Node000025" class="edge">
<title>Node23&#45;&gt;Node25</title>
<g id="a_edge40_Node000023_Node000025"><a xlink:title=" ">
<path fill="none" stroke="#63b8ff" d="M512.43,-120.87C497.61,-111.45 473.67,-96.23 456.14,-85.08"/>
<polygon fill="#63b8ff" stroke="#63b8ff" points="457.95,-82.08 447.63,-79.67 454.19,-87.99 457.95,-82.08"/>
</a>
</g>
</g>
<!-- Node26 -->
<g id="Node000026" class="node">
<title>Node26</title>
<g id="a_Node000026"><a xlink:href="_tls_8h.html" target="_top" xlink:title=" ">
<polygon fill="white" stroke="#666666" points="1154,-79.5 1058,-79.5 1058,-60.5 1154,-60.5 1154,-79.5"/>
<text text-anchor="middle" x="1106" y="-67.5" font-family="Helvetica,sans-Serif" font-size="10.00">Kit/System/Tls.h</text>
</a>
</g>
</g>
<!-- Node23&#45;&gt;Node26 -->
<g id="edge41_Node000023_Node000026" class="edge">
<title>Node23&#45;&gt;Node26</title>
<g id="a_edge41_Node000023_Node000026"><a xlink:title=" ">
<path fill="none" stroke="#63b8ff" d="M584.27,-123.65C668.83,-115.15 830.46,-98.9 968,-85 994.1,-82.36 1022.98,-79.43 1047.54,-76.94"/>
<polygon fill="#63b8ff" stroke="#63b8ff" points="1048.19,-80.39 1057.78,-75.9 1047.48,-73.43 1048.19,-80.39"/>
</a>
</g>
</g>
<!-- Node27 -->
<g id="Node000027" class="node">
<title>Node27</title>
<g id="a_Node000027"><a xlink:href="_traverser_status_8h.html" target="_top" xlink:title=" ">
<polygon fill="white" stroke="#666666" points="697.5,-79.5 554.5,-79.5 554.5,-60.5 697.5,-60.5 697.5,-79.5"/>
<text text-anchor="middle" x="626" y="-67.5" font-family="Helvetica,sans-Serif" font-size="10.00">Kit/Type/TraverserStatus.h</text>
</a>
</g>
</g>
<!-- Node23&#45;&gt;Node27 -->
<g id="edge44_Node000023_Node000027" class="edge">
<title>Node23&#45;&gt;Node27</title>
<g id="a_edge44_Node000023_Node000027"><a xlink:title=" ">
<path fill="none" stroke="#63b8ff" d="M540.76,-120.87C557,-111.36 583.35,-95.95 602.46,-84.77"/>
<polygon fill="#63b8ff" stroke="#63b8ff" points="604.32,-87.74 611.18,-79.67 600.79,-81.7 604.32,-87.74"/>
</a>
</g>
</g>
<!-- Node28 -->
<g id="Node000028" class="node">
<title>Node28</title>
<g id="a_Node000028"><a xlink:href="_list_item_8h.html" target="_top" xlink:title=" ">
<polygon fill="white" stroke="#666666" points="132,-79.5 0,-79.5 0,-60.5 132,-60.5 132,-79.5"/>
<text text-anchor="middle" x="66" y="-67.5" font-family="Helvetica,sans-Serif" font-size="10.00">Kit/Container/ListItem.h</text>
</a>
</g>
</g>
<!-- Node23&#45;&gt;Node28 -->
<g id="edge45_Node000023_Node000028" class="edge">
<title>Node23&#45;&gt;Node28</title>
<g id="a_edge45_Node000023_Node000028"><a xlink:title=" ">
<path fill="none" stroke="#63b8ff" d="M467.78,-124.04C392.24,-116.67 256.43,-102.42 141,-85 133.8,-83.91 126.23,-82.65 118.78,-81.33"/>
<polygon fill="#63b8ff" stroke="#63b8ff" points="119.21,-77.85 108.75,-79.51 117.96,-84.74 119.21,-77.85"/>
</a>
</g>
</g>
<!-- Node30 -->
<g id="Node000030" class="node">
<title>Node30</title>
<g id="a_Node000030"><a xlink:title=" ">
<polygon fill="#e0e0e0" stroke="#999999" points="203.5,-79.5 150.5,-79.5 150.5,-60.5 203.5,-60.5 203.5,-79.5"/>
<text text-anchor="middle" x="177" y="-67.5" font-family="Helvetica,sans-Serif" font-size="10.00">string.h</text>
</a>
</g>
</g>
<!-- Node23&#45;&gt;Node30 -->
<g id="edge47_Node000023_Node000030" class="edge">
<title>Node23&#45;&gt;Node30</title>
<g id="a_edge47_Node000023_Node000030"><a xlink:title=" ">
<path fill="none" stroke="#63b8ff" d="M467.87,-125.45C404.21,-120.06 299.51,-108.34 212,-85 209.84,-84.42 207.64,-83.75 205.44,-83.02"/>
<polygon fill="#63b8ff" stroke="#63b8ff" points="206.57,-79.71 195.97,-79.55 204.16,-86.28 206.57,-79.71"/>
</a>
</g>
</g>
<!-- Node26&#45;&gt;Node5 -->
<g id="edge42_Node000026_Node000005" class="edge">
<title>Node26&#45;&gt;Node5</title>
<g id="a_edge42_Node000026_Node000005"><a xlink:title=" ">
<path fill="none" stroke="#63b8ff" d="M1086.66,-60.49C1064.3,-50.66 1027.29,-34.38 1001.6,-23.08"/>
<polygon fill="#63b8ff" stroke="#63b8ff" points="1002.93,-19.84 992.36,-19.02 1000.11,-26.25 1002.93,-19.84"/>
</a>
</g>
</g>
<!-- Node26&#45;&gt;Node7 -->
<g id="edge43_Node000026_Node000007" class="edge">
<title>Node26&#45;&gt;Node7</title>
<g id="a_edge43_Node000026_Node000007"><a xlink:title=" ">
<path fill="none" stroke="#63b8ff" d="M1132.17,-60.49C1163.23,-50.4 1215.19,-33.51 1250.02,-22.19"/>
<polygon fill="#63b8ff" stroke="#63b8ff" points="1251.37,-25.44 1259.79,-19.02 1249.2,-18.78 1251.37,-25.44"/>
</a>
</g>
</g>
<!-- Node29 -->
<g id="Node000029" class="node">
<title>Node29</title>
<g id="a_Node000029"><a xlink:href="_item_8h.html" target="_top" xlink:title=" ">
<polygon fill="white" stroke="#666666" points="123.5,-19 8.5,-19 8.5,0 123.5,0 123.5,-19"/>
<text text-anchor="middle" x="66" y="-7" font-family="Helvetica,sans-Serif" font-size="10.00">Kit/Container/Item.h</text>
</a>
</g>
</g>
<!-- Node28&#45;&gt;Node29 -->
<g id="edge46_Node000028_Node000029" class="edge">
<title>Node28&#45;&gt;Node29</title>
<g id="a_edge46_Node000028_Node000029"><a xlink:title=" ">
<path fill="none" stroke="#63b8ff" d="M66,-60.37C66,-52.25 66,-39.81 66,-29.39"/>
<polygon fill="#63b8ff" stroke="#63b8ff" points="69.5,-29.17 66,-19.17 62.5,-29.17 69.5,-29.17"/>
</a>
</g>
</g>
</g>
</svg>
