<?xml version="1.0" encoding="UTF-8" standalone="no"?>
<!DOCTYPE svg PUBLIC "-//W3C//DTD SVG 1.1//EN"
 "http://www.w3.org/Graphics/SVG/1.1/DTD/svg11.dtd">
<!-- Generated by graphviz version 2.43.0 (0)
 -->
<!-- Title: Kit/Itc/ServerMessage.h Pages: 1 -->
<svg width="2034pt" height="445pt"
 viewBox="0.00 0.00 2033.50 445.00" xmlns="http://www.w3.org/2000/svg" xmlns:xlink="http://www.w3.org/1999/xlink">
<g id="graph0" class="graph" transform="scale(1 1) rotate(0) translate(4 441)">
<title>Kit/Itc/ServerMessage.h</title>
<!-- Node1 -->
<g id="Node000001" class="node">
<title>Node1</title>
<g id="a_Node000001"><a xlink:title=" ">
<polygon fill="#999999" stroke="#666666" points="1377.5,-437 1245.5,-437 1245.5,-418 1377.5,-418 1377.5,-437"/>
<text text-anchor="middle" x="1311.5" y="-425" font-family="Helvetica,sans-Serif" font-size="10.00">Kit/Itc/ServerMessage.h</text>
</a>
</g>
</g>
<!-- Node2 -->
<g id="Node000002" class="node">
<title>Node2</title>
<g id="a_Node000002"><a xlink:href="_request_message_8h.html" target="_top" xlink:title=" ">
<polygon fill="white" stroke="#666666" points="1381.5,-382 1241.5,-382 1241.5,-363 1381.5,-363 1381.5,-382"/>
<text text-anchor="middle" x="1311.5" y="-370" font-family="Helvetica,sans-Serif" font-size="10.00">Kit/Itc/RequestMessage.h</text>
</a>
</g>
</g>
<!-- Node1&#45;&gt;Node2 -->
<g id="edge1_Node000001_Node000002" class="edge">
<title>Node1&#45;&gt;Node2</title>
<g id="a_edge1_Node000001_Node000002"><a xlink:title=" ">
<path fill="none" stroke="#63b8ff" d="M1311.5,-407.66C1311.5,-398.93 1311.5,-388.99 1311.5,-382.09"/>
<polygon fill="#63b8ff" stroke="#63b8ff" points="1308,-407.75 1311.5,-417.75 1315,-407.75 1308,-407.75"/>
</a>
</g>
</g>
<!-- Node3 -->
<g id="Node000003" class="node">
<title>Node3</title>
<g id="a_Node000003"><a xlink:href="_i_rate_request_8h.html" target="_top" xlink:title=" ">
<polygon fill="white" stroke="#666666" points="976.5,-327 802.5,-327 802.5,-286 976.5,-286 976.5,-327"/>
<text text-anchor="start" x="810.5" y="-315" font-family="Helvetica,sans-Serif" font-size="10.00">/home/runner/work/kit.core</text>
<text text-anchor="start" x="810.5" y="-304" font-family="Helvetica,sans-Serif" font-size="10.00">/kit.core/projects/examples</text>
<text text-anchor="middle" x="889.5" y="-293" font-family="Helvetica,sans-Serif" font-size="10.00">/Itc/Synchronous/IRateRequest.h</text>
</a>
</g>
</g>
<!-- Node2&#45;&gt;Node3 -->
<g id="edge2_Node000002_Node000003" class="edge">
<title>Node2&#45;&gt;Node3</title>
<g id="a_edge2_Node000002_Node000003"><a xlink:title=" ">
<path fill="none" stroke="#63b8ff" d="M1245.11,-361.43C1172.71,-350.45 1056.54,-332.83 976.8,-320.74"/>
<polygon fill="#63b8ff" stroke="#63b8ff" points="1244.61,-364.9 1255.03,-362.94 1245.66,-357.98 1244.61,-364.9"/>
</a>
</g>
</g>
<!-- Node6 -->
<g id="Node000006" class="node">
<title>Node6</title>
<g id="a_Node000006"><a xlink:href="_erase_request_8h.html" target="_top" xlink:title=" ">
<polygon fill="white" stroke="#666666" points="1661,-244.5 1480,-244.5 1480,-225.5 1661,-225.5 1661,-244.5"/>
<text text-anchor="middle" x="1570.5" y="-232.5" font-family="Helvetica,sans-Serif" font-size="10.00">Kit/Dm/Persistent/EraseRequest.h</text>
</a>
</g>
</g>
<!-- Node2&#45;&gt;Node6 -->
<g id="edge5_Node000002_Node000006" class="edge">
<title>Node2&#45;&gt;Node6</title>
<g id="a_edge5_Node000002_Node000006"><a xlink:title=" ">
<path fill="none" stroke="#63b8ff" d="M1342.37,-359.11C1362.82,-350.64 1390.09,-338.84 1413.5,-327 1468.04,-299.41 1530.08,-261.38 1556.93,-244.57"/>
<polygon fill="#63b8ff" stroke="#63b8ff" points="1340.85,-355.95 1332.92,-362.99 1343.5,-362.43 1340.85,-355.95"/>
</a>
</g>
</g>
<!-- Node8 -->
<g id="Node000008" class="node">
<title>Node8</title>
<g id="a_Node000008"><a xlink:href="_flush_request_8h.html" target="_top" xlink:title=" ">
<polygon fill="white" stroke="#666666" points="1859.5,-244.5 1679.5,-244.5 1679.5,-225.5 1859.5,-225.5 1859.5,-244.5"/>
<text text-anchor="middle" x="1769.5" y="-232.5" font-family="Helvetica,sans-Serif" font-size="10.00">Kit/Dm/Persistent/FlushRequest.h</text>
</a>
</g>
</g>
<!-- Node2&#45;&gt;Node8 -->
<g id="edge7_Node000002_Node000008" class="edge">
<title>Node2&#45;&gt;Node8</title>
<g id="a_edge7_Node000002_Node000008"><a xlink:title=" ">
<path fill="none" stroke="#63b8ff" d="M1350.95,-360.21C1382.08,-351.28 1426.59,-338.44 1465.5,-327 1566.98,-297.15 1687.24,-260.89 1741.03,-244.62"/>
<polygon fill="#63b8ff" stroke="#63b8ff" points="1349.98,-356.85 1341.33,-362.97 1351.91,-363.58 1349.98,-356.85"/>
</a>
</g>
</g>
<!-- Node9 -->
<g id="Node000009" class="node">
<title>Node9</title>
<g id="a_Node000009"><a xlink:href="_i_listener_client_request_8h.html" target="_top" xlink:title=" ">
<polygon fill="white" stroke="#666666" points="1953,-321.5 1802,-321.5 1802,-291.5 1953,-291.5 1953,-321.5"/>
<text text-anchor="start" x="1810" y="-309.5" font-family="Helvetica,sans-Serif" font-size="10.00">Kit/Io/Socket/IListenerClient</text>
<text text-anchor="middle" x="1877.5" y="-298.5" font-family="Helvetica,sans-Serif" font-size="10.00">Request.h</text>
</a>
</g>
</g>
<!-- Node2&#45;&gt;Node9 -->
<g id="edge9_Node000002_Node000009" class="edge">
<title>Node2&#45;&gt;Node9</title>
<g id="a_edge9_Node000002_Node000009"><a xlink:title=" ">
<path fill="none" stroke="#63b8ff" d="M1391.73,-362.43C1500.99,-350.07 1695.14,-328.12 1801.92,-316.05"/>
<polygon fill="#63b8ff" stroke="#63b8ff" points="1391.3,-358.95 1381.75,-363.56 1392.08,-365.91 1391.3,-358.95"/>
</a>
</g>
</g>
<!-- Node11 -->
<g id="Node000011" class="node">
<title>Node11</title>
<g id="a_Node000011"><a xlink:href="_i_close_request_8h.html" target="_top" xlink:title=" ">
<polygon fill="white" stroke="#666666" points="1146,-244.5 1019,-244.5 1019,-225.5 1146,-225.5 1146,-244.5"/>
<text text-anchor="middle" x="1082.5" y="-232.5" font-family="Helvetica,sans-Serif" font-size="10.00">Kit/Itc/ICloseRequest.h</text>
</a>
</g>
</g>
<!-- Node2&#45;&gt;Node11 -->
<g id="edge11_Node000002_Node000011" class="edge">
<title>Node2&#45;&gt;Node11</title>
<g id="a_edge11_Node000002_Node000011"><a xlink:title=" ">
<path fill="none" stroke="#63b8ff" d="M1281.3,-358.82C1262.31,-350.5 1237.53,-338.97 1216.5,-327 1169.08,-300.02 1116.58,-261.67 1093.93,-244.68"/>
<polygon fill="#63b8ff" stroke="#63b8ff" points="1280.07,-362.11 1290.64,-362.87 1282.86,-355.68 1280.07,-362.11"/>
</a>
</g>
</g>
<!-- Node22 -->
<g id="Node000022" class="node">
<title>Node22</title>
<g id="a_Node000022"><a xlink:href="_i_open_request_8h.html" target="_top" xlink:title=" ">
<polygon fill="white" stroke="#666666" points="1001,-244.5 876,-244.5 876,-225.5 1001,-225.5 1001,-244.5"/>
<text text-anchor="middle" x="938.5" y="-232.5" font-family="Helvetica,sans-Serif" font-size="10.00">Kit/Itc/IOpenRequest.h</text>
</a>
</g>
</g>
<!-- Node2&#45;&gt;Node22 -->
<g id="edge23_Node000002_Node000022" class="edge">
<title>Node2&#45;&gt;Node22</title>
<g id="a_edge23_Node000002_Node000022"><a xlink:title=" ">
<path fill="none" stroke="#63b8ff" d="M1264.96,-360.55C1232.3,-352.41 1187.78,-340.44 1149.5,-327 1075.91,-301.17 991.66,-261.72 955.95,-244.52"/>
<polygon fill="#63b8ff" stroke="#63b8ff" points="1264.15,-363.95 1274.7,-362.94 1265.83,-357.15 1264.15,-363.95"/>
</a>
</g>
</g>
<!-- Node24 -->
<g id="Node000024" class="node">
<title>Node24</title>
<g id="a_Node000024"><a xlink:href="_response_message_8h.html" target="_top" xlink:title=" ">
<polygon fill="white" stroke="#666666" points="1385.5,-316 1237.5,-316 1237.5,-297 1385.5,-297 1385.5,-316"/>
<text text-anchor="middle" x="1311.5" y="-304" font-family="Helvetica,sans-Serif" font-size="10.00">Kit/Itc/ResponseMessage.h</text>
</a>
</g>
</g>
<!-- Node2&#45;&gt;Node24 -->
<g id="edge26_Node000002_Node000024" class="edge">
<title>Node2&#45;&gt;Node24</title>
<g id="a_edge26_Node000002_Node000024"><a xlink:title=" ">
<path fill="none" stroke="#63b8ff" d="M1311.5,-352.58C1311.5,-340.63 1311.5,-325.72 1311.5,-316.41"/>
<polygon fill="#63b8ff" stroke="#63b8ff" points="1308,-352.87 1311.5,-362.87 1315,-352.87 1308,-352.87"/>
</a>
</g>
</g>
<!-- Node25 -->
<g id="Node000025" class="node">
<title>Node25</title>
<g id="a_Node000025"><a xlink:href="_i_reader_request_8h.html" target="_top" xlink:title=" ">
<polygon fill="white" stroke="#666666" points="1462,-250 1319,-250 1319,-220 1462,-220 1462,-250"/>
<text text-anchor="start" x="1327" y="-238" font-family="Helvetica,sans-Serif" font-size="10.00">Kit/Persistence/Record</text>
<text text-anchor="middle" x="1390.5" y="-227" font-family="Helvetica,sans-Serif" font-size="10.00">/Journal/IReaderRequest.h</text>
</a>
</g>
</g>
<!-- Node2&#45;&gt;Node25 -->
<g id="edge38_Node000002_Node000025" class="edge">
<title>Node2&#45;&gt;Node25</title>
<g id="a_edge38_Node000002_Node000025"><a xlink:title=" ">
<path fill="none" stroke="#63b8ff" d="M1354.07,-359.05C1369.59,-352.22 1385.53,-341.99 1394.5,-327 1408.79,-303.12 1401.54,-269.06 1395.62,-250.11"/>
<polygon fill="#63b8ff" stroke="#63b8ff" points="1352.5,-355.9 1344.52,-362.87 1355.1,-362.4 1352.5,-355.9"/>
</a>
</g>
</g>
<!-- Node27 -->
<g id="Node000027" class="node">
<title>Node27</title>
<g id="a_Node000027"><a xlink:href="_i_reset_request_8h.html" target="_top" xlink:title=" ">
<polygon fill="white" stroke="#666666" points="1300.5,-250 1164.5,-250 1164.5,-220 1300.5,-220 1300.5,-250"/>
<text text-anchor="start" x="1172.5" y="-238" font-family="Helvetica,sans-Serif" font-size="10.00">Kit/Persistence/Record</text>
<text text-anchor="middle" x="1232.5" y="-227" font-family="Helvetica,sans-Serif" font-size="10.00">/Journal/IResetRequest.h</text>
</a>
</g>
</g>
<!-- Node2&#45;&gt;Node27 -->
<g id="edge39_Node000002_Node000027" class="edge">
<title>Node2&#45;&gt;Node27</title>
<g id="a_edge39_Node000002_Node000027"><a xlink:title=" ">
<path fill="none" stroke="#63b8ff" d="M1268.93,-359.05C1253.41,-352.22 1237.47,-341.99 1228.5,-327 1214.21,-303.12 1221.46,-269.06 1227.38,-250.11"/>
<polygon fill="#63b8ff" stroke="#63b8ff" points="1267.9,-362.4 1278.48,-362.87 1270.5,-355.9 1267.9,-362.4"/>
</a>
</g>
</g>
<!-- Node4 -->
<g id="Node000004" class="node">
<title>Node4</title>
<g id="a_Node000004"><a xlink:href="_rate_sync_8h.html" target="_top" xlink:title=" ">
<polygon fill="white" stroke="#666666" points="491,-118 336,-118 336,-77 491,-77 491,-118"/>
<text text-anchor="start" x="344" y="-106" font-family="Helvetica,sans-Serif" font-size="10.00">/home/runner/work/kit.core</text>
<text text-anchor="start" x="344" y="-95" font-family="Helvetica,sans-Serif" font-size="10.00">/kit.core/projects/examples</text>
<text text-anchor="middle" x="413.5" y="-84" font-family="Helvetica,sans-Serif" font-size="10.00">/Itc/Synchronous/RateSync.h</text>
</a>
</g>
</g>
<!-- Node3&#45;&gt;Node4 -->
<g id="edge3_Node000003_Node000004" class="edge">
<title>Node3&#45;&gt;Node4</title>
<g id="a_edge3_Node000003_Node000004"><a xlink:title=" ">
<path fill="none" stroke="#63b8ff" d="M834.86,-281.74C739.89,-240.44 546.11,-156.17 458.41,-118.03"/>
<polygon fill="#63b8ff" stroke="#63b8ff" points="833.72,-285.06 844.29,-285.84 836.52,-278.64 833.72,-285.06"/>
</a>
</g>
</g>
<!-- Node5 -->
<g id="Node000005" class="node">
<title>Node5</title>
<g id="a_Node000005"><a xlink:href="projects_2examples_2_itc_2_synchronous_2_server_8h.html" target="_top" xlink:title=" ">
<polygon fill="white" stroke="#666666" points="149,-41 0,-41 0,0 149,0 149,-41"/>
<text text-anchor="start" x="8" y="-29" font-family="Helvetica,sans-Serif" font-size="10.00">/home/runner/work/kit.core</text>
<text text-anchor="start" x="8" y="-18" font-family="Helvetica,sans-Serif" font-size="10.00">/kit.core/projects/examples</text>
<text text-anchor="middle" x="74.5" y="-7" font-family="Helvetica,sans-Serif" font-size="10.00">/Itc/Synchronous/Server.h</text>
</a>
</g>
</g>
<!-- Node4&#45;&gt;Node5 -->
<g id="edge4_Node000004_Node000005" class="edge">
<title>Node4&#45;&gt;Node5</title>
<g id="a_edge4_Node000004_Node000005"><a xlink:title=" ">
<path fill="none" stroke="#63b8ff" d="M325.9,-77.75C276.67,-67.13 214.12,-53.51 158.5,-41 155.43,-40.31 152.3,-39.6 149.14,-38.88"/>
<polygon fill="#63b8ff" stroke="#63b8ff" points="325.37,-81.21 335.88,-79.9 326.84,-74.37 325.37,-81.21"/>
</a>
</g>
</g>
<!-- Node7 -->
<g id="Node000007" class="node">
<title>Node7</title>
<g id="a_Node000007"><a xlink:href="_record_8h.html" target="_top" xlink:title=" ">
<polygon fill="white" stroke="#666666" points="1788.5,-178.5 1640.5,-178.5 1640.5,-159.5 1788.5,-159.5 1788.5,-178.5"/>
<text text-anchor="middle" x="1714.5" y="-166.5" font-family="Helvetica,sans-Serif" font-size="10.00">Kit/Dm/Persistent/Record.h</text>
</a>
</g>
</g>
<!-- Node6&#45;&gt;Node7 -->
<g id="edge6_Node000006_Node000007" class="edge">
<title>Node6&#45;&gt;Node7</title>
<g id="a_edge6_Node000006_Node000007"><a xlink:title=" ">
<path fill="none" stroke="#63b8ff" d="M1599.31,-221.19C1627.69,-208.58 1670.27,-189.66 1694.93,-178.7"/>
<polygon fill="#63b8ff" stroke="#63b8ff" points="1597.64,-218.11 1589.92,-225.37 1600.48,-224.51 1597.64,-218.11"/>
</a>
</g>
</g>
<!-- Node8&#45;&gt;Node7 -->
<g id="edge8_Node000008_Node000007" class="edge">
<title>Node8&#45;&gt;Node7</title>
<g id="a_edge8_Node000008_Node000007"><a xlink:title=" ">
<path fill="none" stroke="#63b8ff" d="M1755.43,-217.62C1744.84,-205.31 1730.74,-188.89 1722.15,-178.91"/>
<polygon fill="#63b8ff" stroke="#63b8ff" points="1752.91,-220.07 1762.08,-225.37 1758.22,-215.5 1752.91,-220.07"/>
</a>
</g>
</g>
<!-- Node10 -->
<g id="Node000010" class="node">
<title>Node10</title>
<g id="a_Node000010"><a xlink:href="_listener_client_sync_8h.html" target="_top" xlink:title=" ">
<polygon fill="white" stroke="#666666" points="2025.5,-250 1877.5,-250 1877.5,-220 2025.5,-220 2025.5,-250"/>
<text text-anchor="start" x="1885.5" y="-238" font-family="Helvetica,sans-Serif" font-size="10.00">Kit/Io/Socket/ListenerClient</text>
<text text-anchor="middle" x="1951.5" y="-227" font-family="Helvetica,sans-Serif" font-size="10.00">Sync.h</text>
</a>
</g>
</g>
<!-- Node9&#45;&gt;Node10 -->
<g id="edge10_Node000009_Node000010" class="edge">
<title>Node9&#45;&gt;Node10</title>
<g id="a_edge10_Node000009_Node000010"><a xlink:title=" ">
<path fill="none" stroke="#63b8ff" d="M1899.87,-284.49C1911.75,-273.34 1926.02,-259.93 1936.55,-250.04"/>
<polygon fill="#63b8ff" stroke="#63b8ff" points="1897.37,-282.04 1892.48,-291.44 1902.16,-287.14 1897.37,-282.04"/>
</a>
</g>
</g>
<!-- Node12 -->
<g id="Node000012" class="node">
<title>Node12</title>
<g id="a_Node000012"><a xlink:href="_open_close_sync_8h.html" target="_top" xlink:title=" ">
<polygon fill="white" stroke="#666666" points="981,-107 848,-107 848,-88 981,-88 981,-107"/>
<text text-anchor="middle" x="914.5" y="-95" font-family="Helvetica,sans-Serif" font-size="10.00">Kit/Itc/OpenCloseSync.h</text>
</a>
</g>
</g>
<!-- Node11&#45;&gt;Node12 -->
<g id="edge12_Node000011_Node000012" class="edge">
<title>Node11&#45;&gt;Node12</title>
<g id="a_edge12_Node000011_Node000012"><a xlink:title=" ">
<path fill="none" stroke="#63b8ff" d="M1063.68,-218.82C1028.42,-190.38 953.44,-129.91 925.39,-107.29"/>
<polygon fill="#63b8ff" stroke="#63b8ff" points="1061.75,-221.76 1071.74,-225.32 1066.15,-216.32 1061.75,-221.76"/>
</a>
</g>
</g>
<!-- Node12&#45;&gt;Node5 -->
<g id="edge18_Node000012_Node000005" class="edge">
<title>Node12&#45;&gt;Node5</title>
<g id="a_edge18_Node000012_Node000005"><a xlink:title=" ">
<path fill="none" stroke="#63b8ff" d="M837.91,-92.39C672.82,-83.28 287.93,-60.65 158.5,-41 155.39,-40.53 152.23,-40 149.04,-39.43"/>
<polygon fill="#63b8ff" stroke="#63b8ff" points="837.8,-95.89 847.98,-92.94 838.19,-88.9 837.8,-95.89"/>
</a>
</g>
</g>
<!-- Node13 -->
<g id="Node000013" class="node">
<title>Node13</title>
<g id="a_Node000013"><a xlink:href="_led_server_8h.html" target="_top" xlink:title=" ">
<polygon fill="white" stroke="#666666" points="623,-41 442,-41 442,0 623,0 623,-41"/>
<text text-anchor="start" x="450" y="-29" font-family="Helvetica,sans-Serif" font-size="10.00">/home/runner/work/kit.core</text>
<text text-anchor="start" x="450" y="-18" font-family="Helvetica,sans-Serif" font-size="10.00">/kit.core/projects/examples</text>
<text text-anchor="middle" x="532.5" y="-7" font-family="Helvetica,sans-Serif" font-size="10.00">/Container/RingBuffer/LedServer.h</text>
</a>
</g>
</g>
<!-- Node12&#45;&gt;Node13 -->
<g id="edge13_Node000012_Node000013" class="edge">
<title>Node12&#45;&gt;Node13</title>
<g id="a_edge13_Node000012_Node000013"><a xlink:title=" ">
<path fill="none" stroke="#63b8ff" d="M861.01,-86.02C804.11,-74.88 711.45,-56.71 631.5,-41 628.75,-40.46 625.96,-39.91 623.14,-39.36"/>
<polygon fill="#63b8ff" stroke="#63b8ff" points="860.38,-89.47 870.86,-87.95 861.72,-82.6 860.38,-89.47"/>
</a>
</g>
</g>
<!-- Node14 -->
<g id="Node000014" class="node">
<title>Node14</title>
<g id="a_Node000014"><a xlink:href="_producer_8h.html" target="_top" xlink:title=" ">
<polygon fill="white" stroke="#666666" points="816,-41 641,-41 641,0 816,0 816,-41"/>
<text text-anchor="start" x="649" y="-29" font-family="Helvetica,sans-Serif" font-size="10.00">/home/runner/work/kit.core</text>
<text text-anchor="start" x="649" y="-18" font-family="Helvetica,sans-Serif" font-size="10.00">/kit.core/projects/examples</text>
<text text-anchor="middle" x="728.5" y="-7" font-family="Helvetica,sans-Serif" font-size="10.00">/Container/RingBuffer/Producer.h</text>
</a>
</g>
</g>
<!-- Node12&#45;&gt;Node14 -->
<g id="edge14_Node000012_Node000014" class="edge">
<title>Node12&#45;&gt;Node14</title>
<g id="a_edge14_Node000012_Node000014"><a xlink:title=" ">
<path fill="none" stroke="#63b8ff" d="M883.56,-84.02C854.53,-72.32 810.67,-54.63 776.99,-41.05"/>
<polygon fill="#63b8ff" stroke="#63b8ff" points="882.58,-87.4 893.16,-87.9 885.2,-80.91 882.58,-87.4"/>
</a>
</g>
</g>
<!-- Node15 -->
<g id="Node000015" class="node">
<title>Node15</title>
<g id="a_Node000015"><a xlink:href="_dm_2_transaction_2_client_8h.html" target="_top" xlink:title=" ">
<polygon fill="white" stroke="#666666" points="983,-41 834,-41 834,0 983,0 983,-41"/>
<text text-anchor="start" x="842" y="-29" font-family="Helvetica,sans-Serif" font-size="10.00">/home/runner/work/kit.core</text>
<text text-anchor="start" x="842" y="-18" font-family="Helvetica,sans-Serif" font-size="10.00">/kit.core/projects/examples</text>
<text text-anchor="middle" x="908.5" y="-7" font-family="Helvetica,sans-Serif" font-size="10.00">/Dm/Transaction/Client.h</text>
</a>
</g>
</g>
<!-- Node12&#45;&gt;Node15 -->
<g id="edge15_Node000012_Node000015" class="edge">
<title>Node12&#45;&gt;Node15</title>
<g id="a_edge15_Node000012_Node000015"><a xlink:title=" ">
<path fill="none" stroke="#63b8ff" d="M912.99,-77.61C912.1,-66.5 910.98,-52.46 910.08,-41.21"/>
<polygon fill="#63b8ff" stroke="#63b8ff" points="909.53,-78.21 913.81,-87.9 916.5,-77.65 909.53,-78.21"/>
</a>
</g>
</g>
<!-- Node16 -->
<g id="Node000016" class="node">
<title>Node16</title>
<g id="a_Node000016"><a xlink:href="projects_2examples_2_dm_2_transaction_2_server_8h.html" target="_top" xlink:title=" ">
<polygon fill="white" stroke="#666666" points="1150,-41 1001,-41 1001,0 1150,0 1150,-41"/>
<text text-anchor="start" x="1009" y="-29" font-family="Helvetica,sans-Serif" font-size="10.00">/home/runner/work/kit.core</text>
<text text-anchor="start" x="1009" y="-18" font-family="Helvetica,sans-Serif" font-size="10.00">/kit.core/projects/examples</text>
<text text-anchor="middle" x="1075.5" y="-7" font-family="Helvetica,sans-Serif" font-size="10.00">/Dm/Transaction/Server.h</text>
</a>
</g>
</g>
<!-- Node12&#45;&gt;Node16 -->
<g id="edge16_Node000012_Node000016" class="edge">
<title>Node12&#45;&gt;Node16</title>
<g id="a_edge16_Node000012_Node000016"><a xlink:title=" ">
<path fill="none" stroke="#63b8ff" d="M942.28,-83.56C967.4,-71.86 1004.76,-54.45 1033.52,-41.05"/>
<polygon fill="#63b8ff" stroke="#63b8ff" points="940.56,-80.5 932.97,-87.9 943.51,-86.85 940.56,-80.5"/>
</a>
</g>
</g>
<!-- Node17 -->
<g id="Node000017" class="node">
<title>Node17</title>
<g id="a_Node000017"><a xlink:href="_itc_2_synchronous_2_client_8h.html" target="_top" xlink:title=" ">
<polygon fill="white" stroke="#666666" points="1317,-41 1168,-41 1168,0 1317,0 1317,-41"/>
<text text-anchor="start" x="1176" y="-29" font-family="Helvetica,sans-Serif" font-size="10.00">/home/runner/work/kit.core</text>
<text text-anchor="start" x="1176" y="-18" font-family="Helvetica,sans-Serif" font-size="10.00">/kit.core/projects/examples</text>
<text text-anchor="middle" x="1242.5" y="-7" font-family="Helvetica,sans-Serif" font-size="10.00">/Itc/Synchronous/Client.h</text>
</a>
</g>
</g>
<!-- Node12&#45;&gt;Node17 -->
<g id="edge17_Node000012_Node000017" class="edge">
<title>Node12&#45;&gt;Node17</title>
<g id="a_edge17_Node000012_Node000017"><a xlink:title=" ">
<path fill="none" stroke="#63b8ff" d="M962.16,-85.72C1011.36,-74.59 1090.31,-56.67 1158.5,-41 1161.56,-40.3 1164.69,-39.58 1167.85,-38.85"/>
<polygon fill="#63b8ff" stroke="#63b8ff" points="961.11,-82.37 952.13,-87.99 962.66,-89.2 961.11,-82.37"/>
</a>
</g>
</g>
<!-- Node18 -->
<g id="Node000018" class="node">
<title>Node18</title>
<g id="a_Node000018"><a xlink:href="_log_sink_8h.html" target="_top" xlink:title=" ">
<polygon fill="white" stroke="#666666" points="1464,-35.5 1335,-35.5 1335,-5.5 1464,-5.5 1464,-35.5"/>
<text text-anchor="start" x="1343" y="-23.5" font-family="Helvetica,sans-Serif" font-size="10.00">Kit/Logging/Framework</text>
<text text-anchor="middle" x="1399.5" y="-12.5" font-family="Helvetica,sans-Serif" font-size="10.00">/LogSink.h</text>
</a>
</g>
</g>
<!-- Node12&#45;&gt;Node18 -->
<g id="edge19_Node000012_Node000018" class="edge">
<title>Node12&#45;&gt;Node18</title>
<g id="a_edge19_Node000012_Node000018"><a xlink:title=" ">
<path fill="none" stroke="#63b8ff" d="M991.21,-89C1074.12,-80.24 1209.91,-63.94 1325.5,-41 1333.32,-39.45 1341.54,-37.55 1349.54,-35.56"/>
<polygon fill="#63b8ff" stroke="#63b8ff" points="990.7,-85.54 981.12,-90.06 991.43,-92.5 990.7,-85.54"/>
</a>
</g>
</g>
<!-- Node19 -->
<g id="Node000019" class="node">
<title>Node19</title>
<g id="a_Node000019"><a xlink:href="src_2_kit_2_persistence_2_record_2_journal_2_server_8h.html" target="_top" xlink:title=" ">
<polygon fill="white" stroke="#666666" points="1608.5,-35.5 1482.5,-35.5 1482.5,-5.5 1608.5,-5.5 1608.5,-35.5"/>
<text text-anchor="start" x="1490.5" y="-23.5" font-family="Helvetica,sans-Serif" font-size="10.00">Kit/Persistence/Record</text>
<text text-anchor="middle" x="1545.5" y="-12.5" font-family="Helvetica,sans-Serif" font-size="10.00">/Journal/Server.h</text>
</a>
</g>
</g>
<!-- Node12&#45;&gt;Node19 -->
<g id="edge20_Node000012_Node000019" class="edge">
<title>Node12&#45;&gt;Node19</title>
<g id="a_edge20_Node000012_Node000019"><a xlink:title=" ">
<path fill="none" stroke="#63b8ff" d="M991.28,-92.8C1099.37,-86.71 1302.24,-72 1472.5,-41 1480.63,-39.52 1489.18,-37.59 1497.45,-35.51"/>
<polygon fill="#63b8ff" stroke="#63b8ff" points="990.92,-89.32 981.12,-93.37 991.3,-96.31 990.92,-89.32"/>
</a>
</g>
</g>
<!-- Node20 -->
<g id="Node000020" class="node">
<title>Node20</title>
<g id="a_Node000020"><a xlink:href="src_2_kit_2_persistence_2_record_2_server_8h.html" target="_top" xlink:title=" ">
<polygon fill="white" stroke="#666666" points="293.5,-35.5 167.5,-35.5 167.5,-5.5 293.5,-5.5 293.5,-35.5"/>
<text text-anchor="start" x="175.5" y="-23.5" font-family="Helvetica,sans-Serif" font-size="10.00">Kit/Persistence/Record</text>
<text text-anchor="middle" x="230.5" y="-12.5" font-family="Helvetica,sans-Serif" font-size="10.00">/Server.h</text>
</a>
</g>
</g>
<!-- Node12&#45;&gt;Node20 -->
<g id="edge21_Node000012_Node000020" class="edge">
<title>Node12&#45;&gt;Node20</title>
<g id="a_edge21_Node000012_Node000020"><a xlink:title=" ">
<path fill="none" stroke="#63b8ff" d="M837.64,-93.82C721.11,-88.8 493.12,-75.19 302.5,-41 294.47,-39.56 286.03,-37.65 277.87,-35.58"/>
<polygon fill="#63b8ff" stroke="#63b8ff" points="837.75,-97.33 847.88,-94.25 838.04,-90.34 837.75,-97.33"/>
</a>
</g>
</g>
<!-- Node21 -->
<g id="Node000021" class="node">
<title>Node21</title>
<g id="a_Node000021"><a xlink:href="helpers_8h.html" target="_top" xlink:title="This file defines helper functions/interface for writing unit tests.">
<polygon fill="white" stroke="#666666" points="423.5,-35.5 311.5,-35.5 311.5,-5.5 423.5,-5.5 423.5,-35.5"/>
<text text-anchor="start" x="319.5" y="-23.5" font-family="Helvetica,sans-Serif" font-size="10.00">Kit/_support/testing</text>
<text text-anchor="middle" x="367.5" y="-12.5" font-family="Helvetica,sans-Serif" font-size="10.00">/helpers.h</text>
</a>
</g>
</g>
<!-- Node12&#45;&gt;Node21 -->
<g id="edge22_Node000012_Node000021" class="edge">
<title>Node12&#45;&gt;Node21</title>
<g id="a_edge22_Node000012_Node000021"><a xlink:title=" ">
<path fill="none" stroke="#63b8ff" d="M837.47,-91.84C741.76,-85.1 573.79,-70.09 432.5,-41 425.35,-39.53 417.84,-37.62 410.58,-35.58"/>
<polygon fill="#63b8ff" stroke="#63b8ff" points="837.42,-95.35 847.64,-92.55 837.91,-88.37 837.42,-95.35"/>
</a>
</g>
</g>
<!-- Node23 -->
<g id="Node000023" class="node">
<title>Node23</title>
<g id="a_Node000023"><a xlink:href="_open_sync_8h.html" target="_top" xlink:title=" ">
<polygon fill="white" stroke="#666666" points="969.5,-178.5 863.5,-178.5 863.5,-159.5 969.5,-159.5 969.5,-178.5"/>
<text text-anchor="middle" x="916.5" y="-166.5" font-family="Helvetica,sans-Serif" font-size="10.00">Kit/Itc/OpenSync.h</text>
</a>
</g>
</g>
<!-- Node22&#45;&gt;Node23 -->
<g id="edge24_Node000022_Node000023" class="edge">
<title>Node22&#45;&gt;Node23</title>
<g id="a_edge24_Node000022_Node000023"><a xlink:title=" ">
<path fill="none" stroke="#63b8ff" d="M932.25,-215.82C928.1,-203.74 922.83,-188.41 919.56,-178.91"/>
<polygon fill="#63b8ff" stroke="#63b8ff" points="928.97,-217.05 935.53,-225.37 935.59,-214.77 928.97,-217.05"/>
</a>
</g>
</g>
<!-- Node23&#45;&gt;Node12 -->
<g id="edge25_Node000023_Node000012" class="edge">
<title>Node23&#45;&gt;Node12</title>
<g id="a_edge25_Node000023_Node000012"><a xlink:title=" ">
<path fill="none" stroke="#63b8ff" d="M915.96,-149.21C915.56,-135.5 915.05,-117.55 914.75,-107.09"/>
<polygon fill="#63b8ff" stroke="#63b8ff" points="912.47,-149.58 916.25,-159.48 919.47,-149.38 912.47,-149.58"/>
</a>
</g>
</g>
<!-- Node24&#45;&gt;Node6 -->
<g id="edge27_Node000024_Node000006" class="edge">
<title>Node24&#45;&gt;Node6</title>
<g id="a_edge27_Node000024_Node000006"><a xlink:title=" ">
<path fill="none" stroke="#63b8ff" d="M1353.09,-294.34C1404.74,-280.48 1491.73,-257.14 1538.48,-244.59"/>
<polygon fill="#63b8ff" stroke="#63b8ff" points="1352.01,-291.01 1343.26,-296.98 1353.82,-297.77 1352.01,-291.01"/>
</a>
</g>
</g>
<!-- Node24&#45;&gt;Node8 -->
<g id="edge28_Node000024_Node000008" class="edge">
<title>Node24&#45;&gt;Node8</title>
<g id="a_edge28_Node000024_Node000008"><a xlink:title=" ">
<path fill="none" stroke="#63b8ff" d="M1377.79,-295.44C1468.15,-281.73 1628.42,-257.41 1713.24,-244.54"/>
<polygon fill="#63b8ff" stroke="#63b8ff" points="1377.02,-292.02 1367.66,-296.98 1378.07,-298.94 1377.02,-292.02"/>
</a>
</g>
</g>
<!-- Node24&#45;&gt;Node11 -->
<g id="edge29_Node000024_Node000011" class="edge">
<title>Node24&#45;&gt;Node11</title>
<g id="a_edge29_Node000024_Node000011"><a xlink:title=" ">
<path fill="none" stroke="#63b8ff" d="M1273.57,-293.99C1227.78,-280.09 1151.8,-257.03 1110.81,-244.59"/>
<polygon fill="#63b8ff" stroke="#63b8ff" points="1272.83,-297.42 1283.42,-296.98 1274.87,-290.72 1272.83,-297.42"/>
</a>
</g>
</g>
<!-- Node24&#45;&gt;Node22 -->
<g id="edge30_Node000024_Node000022" class="edge">
<title>Node24&#45;&gt;Node22</title>
<g id="a_edge30_Node000024_Node000022"><a xlink:title=" ">
<path fill="none" stroke="#63b8ff" d="M1253.97,-295.16C1193.17,-284.17 1094.52,-266.19 1009.5,-250 1000.37,-248.26 990.58,-246.36 981.28,-244.53"/>
<polygon fill="#63b8ff" stroke="#63b8ff" points="1253.66,-298.66 1264.13,-296.99 1254.91,-291.77 1253.66,-298.66"/>
</a>
</g>
</g>
<!-- Node24&#45;&gt;Node25 -->
<g id="edge31_Node000024_Node000025" class="edge">
<title>Node24&#45;&gt;Node25</title>
<g id="a_edge31_Node000024_Node000025"><a xlink:title=" ">
<path fill="none" stroke="#63b8ff" d="M1328.88,-290.21C1342.47,-278.26 1361.2,-261.78 1374.43,-250.14"/>
<polygon fill="#63b8ff" stroke="#63b8ff" points="1326.38,-287.74 1321.19,-296.98 1331.01,-293 1326.38,-287.74"/>
</a>
</g>
</g>
<!-- Node24&#45;&gt;Node27 -->
<g id="edge35_Node000024_Node000027" class="edge">
<title>Node24&#45;&gt;Node27</title>
<g id="a_edge35_Node000024_Node000027"><a xlink:title=" ">
<path fill="none" stroke="#63b8ff" d="M1294.12,-290.21C1280.53,-278.26 1261.8,-261.78 1248.57,-250.14"/>
<polygon fill="#63b8ff" stroke="#63b8ff" points="1291.99,-293 1301.81,-296.98 1296.62,-287.74 1291.99,-293"/>
</a>
</g>
</g>
<!-- Node25&#45;&gt;Node19 -->
<g id="edge34_Node000025_Node000019" class="edge">
<title>Node25&#45;&gt;Node19</title>
<g id="a_edge34_Node000025_Node000019"><a xlink:title=" ">
<path fill="none" stroke="#63b8ff" d="M1418.71,-213.71C1446.17,-192.62 1487.34,-157.25 1512.5,-118 1529.51,-91.47 1538.82,-55.18 1542.91,-35.53"/>
<polygon fill="#63b8ff" stroke="#63b8ff" points="1416.54,-210.96 1410.66,-219.78 1420.75,-216.55 1416.54,-210.96"/>
</a>
</g>
</g>
<!-- Node26 -->
<g id="Node000026" class="node">
<title>Node26</title>
<g id="a_Node000026"><a xlink:href="_reader_sync_8h.html" target="_top" xlink:title=" ">
<polygon fill="white" stroke="#666666" points="1503.5,-112.5 1377.5,-112.5 1377.5,-82.5 1503.5,-82.5 1503.5,-112.5"/>
<text text-anchor="start" x="1385.5" y="-100.5" font-family="Helvetica,sans-Serif" font-size="10.00">Kit/Persistence/Record</text>
<text text-anchor="middle" x="1440.5" y="-89.5" font-family="Helvetica,sans-Serif" font-size="10.00">/Journal/ReaderSync.h</text>
</a>
</g>
</g>
<!-- Node25&#45;&gt;Node26 -->
<g id="edge32_Node000025_Node000026" class="edge">
<title>Node25&#45;&gt;Node26</title>
<g id="a_edge32_Node000025_Node000026"><a xlink:title=" ">
<path fill="none" stroke="#63b8ff" d="M1399.27,-210.23C1409.71,-181.95 1426.79,-135.67 1435.31,-112.55"/>
<polygon fill="#63b8ff" stroke="#63b8ff" points="1395.93,-209.16 1395.76,-219.76 1402.5,-211.59 1395.93,-209.16"/>
</a>
</g>
</g>
<!-- Node26&#45;&gt;Node19 -->
<g id="edge33_Node000026_Node000019" class="edge">
<title>Node26&#45;&gt;Node19</title>
<g id="a_edge33_Node000026_Node000019"><a xlink:title=" ">
<path fill="none" stroke="#63b8ff" d="M1468.67,-76.38C1486.73,-63.48 1509.73,-47.05 1525.84,-35.54"/>
<polygon fill="#63b8ff" stroke="#63b8ff" points="1466.35,-73.73 1460.25,-82.39 1470.42,-79.43 1466.35,-73.73"/>
</a>
</g>
</g>
<!-- Node28 -->
<g id="Node000028" class="node">
<title>Node28</title>
<g id="a_Node000028"><a xlink:href="_reset_sync_8h.html" target="_top" xlink:title=" ">
<polygon fill="white" stroke="#666666" points="1325.5,-184 1199.5,-184 1199.5,-154 1325.5,-154 1325.5,-184"/>
<text text-anchor="start" x="1207.5" y="-172" font-family="Helvetica,sans-Serif" font-size="10.00">Kit/Persistence/Record</text>
<text text-anchor="middle" x="1262.5" y="-161" font-family="Helvetica,sans-Serif" font-size="10.00">/Journal/ResetSync.h</text>
</a>
</g>
</g>
<!-- Node27&#45;&gt;Node28 -->
<g id="edge36_Node000027_Node000028" class="edge">
<title>Node27&#45;&gt;Node28</title>
<g id="a_edge36_Node000027_Node000028"><a xlink:title=" ">
<path fill="none" stroke="#63b8ff" d="M1243.43,-210.68C1247.6,-201.79 1252.21,-191.95 1255.86,-184.16"/>
<polygon fill="#63b8ff" stroke="#63b8ff" points="1240.23,-209.26 1239.16,-219.8 1246.57,-212.23 1240.23,-209.26"/>
</a>
</g>
</g>
<!-- Node28&#45;&gt;Node19 -->
<g id="edge37_Node000028_Node000019" class="edge">
<title>Node28&#45;&gt;Node19</title>
<g id="a_edge37_Node000028_Node000019"><a xlink:title=" ">
<path fill="none" stroke="#63b8ff" d="M1282.2,-146.66C1302.17,-126.18 1334.84,-95.68 1368.5,-77 1389.97,-65.08 1448.67,-47.67 1492.63,-35.54"/>
<polygon fill="#63b8ff" stroke="#63b8ff" points="1279.59,-144.33 1275.2,-153.97 1284.64,-149.17 1279.59,-144.33"/>
</a>
</g>
</g>
</g>
</svg>
