<?xml version="1.0" encoding="UTF-8" standalone="no"?>
<!DOCTYPE svg PUBLIC "-//W3C//DTD SVG 1.1//EN"
 "http://www.w3.org/Graphics/SVG/1.1/DTD/svg11.dtd">
<!-- Generated by graphviz version 2.43.0 (0)
 -->
<!-- Title: Kit/System/Shutdown.h Pages: 1 -->
<svg width="412pt" height="159pt"
 viewBox="0.00 0.00 411.50 159.00" xmlns="http://www.w3.org/2000/svg" xmlns:xlink="http://www.w3.org/1999/xlink">
<g id="graph0" class="graph" transform="scale(1 1) rotate(0) translate(4 155)">
<title>Kit/System/Shutdown.h</title>
<!-- Node1 -->
<g id="Node000001" class="node">
<title>Node1</title>
<g id="a_Node000001"><a xlink:title=" ">
<polygon fill="#999999" stroke="#666666" points="217.5,-151 87.5,-151 87.5,-132 217.5,-132 217.5,-151"/>
<text text-anchor="middle" x="152.5" y="-139" font-family="Helvetica,sans-Serif" font-size="10.00">Kit/System/Shutdown.h</text>
</a>
</g>
</g>
<!-- Node2 -->
<g id="Node000002" class="node">
<title>Node2</title>
<g id="a_Node000002"><a xlink:href="_client_8h.html" target="_top" xlink:title=" ">
<polygon fill="white" stroke="#666666" points="149,-96 0,-96 0,-55 149,-55 149,-96"/>
<text text-anchor="start" x="8" y="-84" font-family="Helvetica,sans-Serif" font-size="10.00">/home/runner/work/kit.core</text>
<text text-anchor="start" x="8" y="-73" font-family="Helvetica,sans-Serif" font-size="10.00">/kit.core/projects/examples</text>
<text text-anchor="middle" x="74.5" y="-62" font-family="Helvetica,sans-Serif" font-size="10.00">/Dm/Transaction/Client.h</text>
</a>
</g>
</g>
<!-- Node1&#45;&gt;Node2 -->
<g id="edge1_Node000001_Node000002" class="edge">
<title>Node1&#45;&gt;Node2</title>
<g id="a_edge1_Node000001_Node000002"><a xlink:title=" ">
<path fill="none" stroke="#63b8ff" d="M134.11,-125.41C123.41,-116.63 109.79,-105.46 98.28,-96.01"/>
<polygon fill="#63b8ff" stroke="#63b8ff" points="132.03,-128.23 141.98,-131.87 136.47,-122.82 132.03,-128.23"/>
</a>
</g>
</g>
<!-- Node3 -->
<g id="Node000003" class="node">
<title>Node3</title>
<g id="a_Node000003"><a xlink:href="_fatal_error_8h.html" target="_top" xlink:title=" ">
<polygon fill="white" stroke="#666666" points="295.5,-85 167.5,-85 167.5,-66 295.5,-66 295.5,-85"/>
<text text-anchor="middle" x="231.5" y="-73" font-family="Helvetica,sans-Serif" font-size="10.00">Kit/System/FatalError.h</text>
</a>
</g>
</g>
<!-- Node1&#45;&gt;Node3 -->
<g id="edge2_Node000001_Node000003" class="edge">
<title>Node1&#45;&gt;Node3</title>
<g id="a_edge2_Node000001_Node000003"><a xlink:title=" ">
<path fill="none" stroke="#63b8ff" d="M171.03,-125.49C186.5,-112.96 208,-95.54 220.76,-85.2"/>
<polygon fill="#63b8ff" stroke="#63b8ff" points="168.72,-122.85 163.15,-131.87 173.13,-128.29 168.72,-122.85"/>
</a>
</g>
</g>
<!-- Node4 -->
<g id="Node000004" class="node">
<title>Node4</title>
<g id="a_Node000004"><a xlink:href="_posix_2mappings_8h.html" target="_top" xlink:title="This file provides the mappings for Platform specific types, etc.">
<polygon fill="white" stroke="#666666" points="221,-19 62,-19 62,0 221,0 221,-19"/>
<text text-anchor="middle" x="141.5" y="-7" font-family="Helvetica,sans-Serif" font-size="10.00">Kit/System/Posix/mappings.h</text>
</a>
</g>
</g>
<!-- Node3&#45;&gt;Node4 -->
<g id="edge3_Node000003_Node000004" class="edge">
<title>Node3&#45;&gt;Node4</title>
<g id="a_edge3_Node000003_Node000004"><a xlink:title=" ">
<path fill="none" stroke="#63b8ff" d="M210.88,-59.83C193.22,-47.28 168.4,-29.63 153.73,-19.2"/>
<polygon fill="#63b8ff" stroke="#63b8ff" points="209.18,-62.93 219.36,-65.87 213.24,-57.22 209.18,-62.93"/>
</a>
</g>
</g>
<!-- Node5 -->
<g id="Node000005" class="node">
<title>Node5</title>
<g id="a_Node000005"><a xlink:href="_win32_2mappings_8h.html" target="_top" xlink:title="This file provides the mappings for Platform specific types, etc.">
<polygon fill="white" stroke="#666666" points="403.5,-19 239.5,-19 239.5,0 403.5,0 403.5,-19"/>
<text text-anchor="middle" x="321.5" y="-7" font-family="Helvetica,sans-Serif" font-size="10.00">Kit/System/Win32/mappings.h</text>
</a>
</g>
</g>
<!-- Node3&#45;&gt;Node5 -->
<g id="edge4_Node000003_Node000005" class="edge">
<title>Node3&#45;&gt;Node5</title>
<g id="a_edge4_Node000003_Node000005"><a xlink:title=" ">
<path fill="none" stroke="#63b8ff" d="M252.12,-59.83C269.78,-47.28 294.6,-29.63 309.27,-19.2"/>
<polygon fill="#63b8ff" stroke="#63b8ff" points="249.76,-57.22 243.64,-65.87 253.82,-62.93 249.76,-57.22"/>
</a>
</g>
</g>
</g>
</svg>
