<?xml version="1.0" encoding="UTF-8" standalone="no"?>
<!DOCTYPE svg PUBLIC "-//W3C//DTD SVG 1.1//EN"
 "http://www.w3.org/Graphics/SVG/1.1/DTD/svg11.dtd">
<!-- Generated by graphviz version 2.43.0 (0)
 -->
<!-- Title: Kit/System/SimTick.h Pages: 1 -->
<svg width="1339pt" height="412pt"
 viewBox="0.00 0.00 1339.00 412.00" xmlns="http://www.w3.org/2000/svg" xmlns:xlink="http://www.w3.org/1999/xlink">
<g id="graph0" class="graph" transform="scale(1 1) rotate(0) translate(4 408)">
<title>Kit/System/SimTick.h</title>
<!-- Node1 -->
<g id="Node000001" class="node">
<title>Node1</title>
<g id="a_Node000001"><a xlink:title=" ">
<polygon fill="#999999" stroke="#666666" points="576.5,-404 455.5,-404 455.5,-385 576.5,-385 576.5,-404"/>
<text text-anchor="middle" x="516" y="-392" font-family="Helvetica,sans-Serif" font-size="10.00">Kit/System/SimTick.h</text>
</a>
</g>
</g>
<!-- Node2 -->
<g id="Node000002" class="node">
<title>Node2</title>
<g id="a_Node000002"><a xlink:title=" ">
<polygon fill="#e0e0e0" stroke="#999999" points="514.5,-129 441.5,-129 441.5,-110 514.5,-110 514.5,-129"/>
<text text-anchor="middle" x="478" y="-117" font-family="Helvetica,sans-Serif" font-size="10.00">kit_config.h</text>
</a>
</g>
</g>
<!-- Node1&#45;&gt;Node2 -->
<g id="edge1_Node000001_Node000002" class="edge">
<title>Node1&#45;&gt;Node2</title>
<g id="a_edge1_Node000001_Node000002"><a xlink:title=" ">
<path fill="none" stroke="#63b8ff" d="M528.63,-384.87C554.44,-366.09 609.33,-319.59 591,-275 569.38,-222.39 531.39,-232.08 501,-184 492.19,-170.06 486.12,-152.28 482.44,-139.08"/>
<polygon fill="#63b8ff" stroke="#63b8ff" points="485.79,-138.06 479.9,-129.25 479.01,-139.81 485.79,-138.06"/>
</a>
</g>
</g>
<!-- Node3 -->
<g id="Node000003" class="node">
<title>Node3</title>
<g id="a_Node000003"><a xlink:href="_semaphore_8h.html" target="_top" xlink:title=" ">
<polygon fill="white" stroke="#666666" points="160.5,-349 23.5,-349 23.5,-330 160.5,-330 160.5,-349"/>
<text text-anchor="middle" x="92" y="-337" font-family="Helvetica,sans-Serif" font-size="10.00">Kit/System/Semaphore.h</text>
</a>
</g>
</g>
<!-- Node1&#45;&gt;Node3 -->
<g id="edge2_Node000001_Node000003" class="edge">
<title>Node1&#45;&gt;Node3</title>
<g id="a_edge2_Node000001_Node000003"><a xlink:title=" ">
<path fill="none" stroke="#63b8ff" d="M455.25,-385.91C380.18,-376.52 252.32,-360.54 170.05,-350.26"/>
<polygon fill="#63b8ff" stroke="#63b8ff" points="170.36,-346.77 160,-349 169.49,-353.71 170.36,-346.77"/>
</a>
</g>
</g>
<!-- Node6 -->
<g id="Node000006" class="node">
<title>Node6</title>
<g id="a_Node000006"><a xlink:href="_thread_8h.html" target="_top" xlink:title=" ">
<polygon fill="white" stroke="#666666" points="480,-349 364,-349 364,-330 480,-330 480,-349"/>
<text text-anchor="middle" x="422" y="-337" font-family="Helvetica,sans-Serif" font-size="10.00">Kit/System/Thread.h</text>
</a>
</g>
</g>
<!-- Node1&#45;&gt;Node6 -->
<g id="edge5_Node000001_Node000006" class="edge">
<title>Node1&#45;&gt;Node6</title>
<g id="a_edge5_Node000001_Node000006"><a xlink:title=" ">
<path fill="none" stroke="#63b8ff" d="M500.9,-384.98C486.18,-376.69 463.58,-363.94 446.33,-354.22"/>
<polygon fill="#63b8ff" stroke="#63b8ff" points="447.81,-351.03 437.38,-349.17 444.37,-357.13 447.81,-351.03"/>
</a>
</g>
</g>
<!-- Node12 -->
<g id="Node000012" class="node">
<title>Node12</title>
<g id="a_Node000012"><a xlink:href="_item_8h.html" target="_top" xlink:title=" ">
<polygon fill="white" stroke="#666666" points="1300.5,-19 1185.5,-19 1185.5,0 1300.5,0 1300.5,-19"/>
<text text-anchor="middle" x="1243" y="-7" font-family="Helvetica,sans-Serif" font-size="10.00">Kit/Container/Item.h</text>
</a>
</g>
</g>
<!-- Node1&#45;&gt;Node12 -->
<g id="edge52_Node000001_Node000012" class="edge">
<title>Node1&#45;&gt;Node12</title>
<g id="a_edge52_Node000001_Node000012"><a xlink:title=" ">
<path fill="none" stroke="#63b8ff" d="M576.59,-391.84C765.47,-385.86 1331,-361.59 1331,-285.5 1331,-285.5 1331,-285.5 1331,-118.5 1331,-77.39 1292.21,-43.26 1266.14,-24.97"/>
<polygon fill="#63b8ff" stroke="#63b8ff" points="1267.78,-21.85 1257.53,-19.17 1263.87,-27.66 1267.78,-21.85"/>
</a>
</g>
</g>
<!-- Node4 -->
<g id="Node000004" class="node">
<title>Node4</title>
<g id="a_Node000004"><a xlink:title=" ">
<polygon fill="#e0e0e0" stroke="#999999" points="193.5,-74 128.5,-74 128.5,-55 193.5,-55 193.5,-74"/>
<text text-anchor="middle" x="161" y="-62" font-family="Helvetica,sans-Serif" font-size="10.00">kit_map.h</text>
</a>
</g>
</g>
<!-- Node3&#45;&gt;Node4 -->
<g id="edge3_Node000003_Node000004" class="edge">
<title>Node3&#45;&gt;Node4</title>
<g id="a_edge3_Node000003_Node000004"><a xlink:title=" ">
<path fill="none" stroke="#63b8ff" d="M69.46,-329.97C53.22,-322.72 31.96,-310.81 19,-294 1.01,-270.67 0,-259.96 0,-230.5 0,-230.5 0,-230.5 0,-173.5 0,-116.31 70.93,-87.46 118.63,-74.52"/>
<polygon fill="#63b8ff" stroke="#63b8ff" points="119.61,-77.88 128.42,-72 117.86,-71.11 119.61,-77.88"/>
</a>
</g>
</g>
<!-- Node5 -->
<g id="Node000005" class="node">
<title>Node5</title>
<g id="a_Node000005"><a xlink:href="_i_signable_8h.html" target="_top" xlink:title=" ">
<polygon fill="white" stroke="#666666" points="155.5,-294 28.5,-294 28.5,-275 155.5,-275 155.5,-294"/>
<text text-anchor="middle" x="92" y="-282" font-family="Helvetica,sans-Serif" font-size="10.00">Kit/System/ISignable.h</text>
</a>
</g>
</g>
<!-- Node3&#45;&gt;Node5 -->
<g id="edge4_Node000003_Node000005" class="edge">
<title>Node3&#45;&gt;Node5</title>
<g id="a_edge4_Node000003_Node000005"><a xlink:title=" ">
<path fill="none" stroke="#63b8ff" d="M92,-329.75C92,-322.8 92,-312.85 92,-304.13"/>
<polygon fill="#63b8ff" stroke="#63b8ff" points="95.5,-304.09 92,-294.09 88.5,-304.09 95.5,-304.09"/>
</a>
</g>
</g>
<!-- Node6&#45;&gt;Node2 -->
<g id="edge6_Node000006_Node000002" class="edge">
<title>Node6&#45;&gt;Node2</title>
<g id="a_edge6_Node000006_Node000002"><a xlink:title=" ">
<path fill="none" stroke="#63b8ff" d="M424.2,-329.95C432.44,-297.88 461.64,-184.2 473.22,-139.12"/>
<polygon fill="#63b8ff" stroke="#63b8ff" points="476.66,-139.78 475.76,-129.22 469.88,-138.04 476.66,-139.78"/>
</a>
</g>
</g>
<!-- Node6&#45;&gt;Node4 -->
<g id="edge7_Node000006_Node000004" class="edge">
<title>Node6&#45;&gt;Node4</title>
<g id="a_edge7_Node000006_Node000004"><a xlink:title=" ">
<path fill="none" stroke="#63b8ff" d="M363.96,-333.42C307.23,-327.31 226.13,-315.13 203,-294 181.25,-274.13 184,-259.96 184,-230.5 184,-230.5 184,-230.5 184,-173.5 184,-141.34 174.12,-104.95 167.31,-83.69"/>
<polygon fill="#63b8ff" stroke="#63b8ff" points="170.58,-82.43 164.1,-74.05 163.94,-84.64 170.58,-82.43"/>
</a>
</g>
</g>
<!-- Node6&#45;&gt;Node5 -->
<g id="edge9_Node000006_Node000005" class="edge">
<title>Node6&#45;&gt;Node5</title>
<g id="a_edge9_Node000006_Node000005"><a xlink:title=" ">
<path fill="none" stroke="#63b8ff" d="M368.98,-329.98C310.73,-320.63 217.23,-305.61 155.22,-295.65"/>
<polygon fill="#63b8ff" stroke="#63b8ff" points="155.59,-292.17 145.16,-294.04 154.48,-299.08 155.59,-292.17"/>
</a>
</g>
</g>
<!-- Node7 -->
<g id="Node000007" class="node">
<title>Node7</title>
<g id="a_Node000007"><a xlink:href="_i_runnable_8h.html" target="_top" xlink:title=" ">
<polygon fill="white" stroke="#666666" points="581.5,-294 450.5,-294 450.5,-275 581.5,-275 581.5,-294"/>
<text text-anchor="middle" x="516" y="-282" font-family="Helvetica,sans-Serif" font-size="10.00">Kit/System/IRunnable.h</text>
</a>
</g>
</g>
<!-- Node6&#45;&gt;Node7 -->
<g id="edge8_Node000006_Node000007" class="edge">
<title>Node6&#45;&gt;Node7</title>
<g id="a_edge8_Node000006_Node000007"><a xlink:title=" ">
<path fill="none" stroke="#63b8ff" d="M437.1,-329.98C451.82,-321.69 474.42,-308.94 491.67,-299.22"/>
<polygon fill="#63b8ff" stroke="#63b8ff" points="493.63,-302.13 500.62,-294.17 490.19,-296.03 493.63,-302.13"/>
</a>
</g>
</g>
<!-- Node8 -->
<g id="Node000008" class="node">
<title>Node8</title>
<g id="a_Node000008"><a xlink:href="_tls_8h.html" target="_top" xlink:title=" ">
<polygon fill="white" stroke="#666666" points="410,-184 314,-184 314,-165 410,-165 410,-184"/>
<text text-anchor="middle" x="362" y="-172" font-family="Helvetica,sans-Serif" font-size="10.00">Kit/System/Tls.h</text>
</a>
</g>
</g>
<!-- Node6&#45;&gt;Node8 -->
<g id="edge10_Node000006_Node000008" class="edge">
<title>Node6&#45;&gt;Node8</title>
<g id="a_edge10_Node000006_Node000008"><a xlink:title=" ">
<path fill="none" stroke="#63b8ff" d="M418.77,-329.74C409.33,-304.09 381.61,-228.78 368.73,-193.78"/>
<polygon fill="#63b8ff" stroke="#63b8ff" points="371.98,-192.48 365.24,-184.31 365.41,-194.9 371.98,-192.48"/>
</a>
</g>
</g>
<!-- Node10 -->
<g id="Node000010" class="node">
<title>Node10</title>
<g id="a_Node000010"><a xlink:href="_traverser_status_8h.html" target="_top" xlink:title=" ">
<polygon fill="white" stroke="#666666" points="355.5,-294 212.5,-294 212.5,-275 355.5,-275 355.5,-294"/>
<text text-anchor="middle" x="284" y="-282" font-family="Helvetica,sans-Serif" font-size="10.00">Kit/Type/TraverserStatus.h</text>
</a>
</g>
</g>
<!-- Node6&#45;&gt;Node10 -->
<g id="edge13_Node000006_Node000010" class="edge">
<title>Node6&#45;&gt;Node10</title>
<g id="a_edge13_Node000006_Node000010"><a xlink:title=" ">
<path fill="none" stroke="#63b8ff" d="M399.83,-329.98C377.23,-321.3 341.94,-307.75 316.25,-297.88"/>
<polygon fill="#63b8ff" stroke="#63b8ff" points="317.17,-294.49 306.58,-294.17 314.66,-301.02 317.17,-294.49"/>
</a>
</g>
</g>
<!-- Node11 -->
<g id="Node000011" class="node">
<title>Node11</title>
<g id="a_Node000011"><a xlink:href="_list_item_8h.html" target="_top" xlink:title=" ">
<polygon fill="white" stroke="#666666" points="1222,-74 1090,-74 1090,-55 1222,-55 1222,-74"/>
<text text-anchor="middle" x="1156" y="-62" font-family="Helvetica,sans-Serif" font-size="10.00">Kit/Container/ListItem.h</text>
</a>
</g>
</g>
<!-- Node6&#45;&gt;Node11 -->
<g id="edge14_Node000006_Node000011" class="edge">
<title>Node6&#45;&gt;Node11</title>
<g id="a_edge14_Node000006_Node000011"><a xlink:title=" ">
<path fill="none" stroke="#63b8ff" d="M480.24,-337.08C669.5,-331.7 1255,-308.75 1255,-230.5 1255,-230.5 1255,-230.5 1255,-173.5 1255,-144.04 1254.45,-132.96 1236,-110 1224.54,-95.74 1207.21,-85.31 1191.61,-78.14"/>
<polygon fill="#63b8ff" stroke="#63b8ff" points="1192.75,-74.83 1182.18,-74.1 1189.99,-81.26 1192.75,-74.83"/>
</a>
</g>
</g>
<!-- Node13 -->
<g id="Node000013" class="node">
<title>Node13</title>
<g id="a_Node000013"><a xlink:href="_string_8h.html" target="_top" xlink:title=" ">
<polygon fill="white" stroke="#666666" points="775.5,-294 722.5,-294 722.5,-275 775.5,-275 775.5,-294"/>
<text text-anchor="middle" x="749" y="-282" font-family="Helvetica,sans-Serif" font-size="10.00">string.h</text>
</a>
</g>
</g>
<!-- Node6&#45;&gt;Node13 -->
<g id="edge16_Node000006_Node000013" class="edge">
<title>Node6&#45;&gt;Node13</title>
<g id="a_edge16_Node000006_Node000013"><a xlink:title=" ">
<path fill="none" stroke="#63b8ff" d="M474.54,-329.98C541.16,-319.19 654.33,-300.84 712.33,-291.44"/>
<polygon fill="#63b8ff" stroke="#63b8ff" points="713.19,-294.85 722.5,-289.8 712.07,-287.94 713.19,-294.85"/>
</a>
</g>
</g>
<!-- Node8&#45;&gt;Node2 -->
<g id="edge11_Node000008_Node000002" class="edge">
<title>Node8&#45;&gt;Node2</title>
<g id="a_edge11_Node000008_Node000002"><a xlink:title=" ">
<path fill="none" stroke="#63b8ff" d="M380.64,-164.98C399.3,-156.46 428.25,-143.23 449.74,-133.41"/>
<polygon fill="#63b8ff" stroke="#63b8ff" points="451.38,-136.51 459.02,-129.17 448.47,-130.14 451.38,-136.51"/>
</a>
</g>
</g>
<!-- Node9 -->
<g id="Node000009" class="node">
<title>Node9</title>
<g id="a_Node000009"><a xlink:title=" ">
<polygon fill="#e0e0e0" stroke="#999999" points="825.5,-19 772.5,-19 772.5,0 825.5,0 825.5,-19"/>
<text text-anchor="middle" x="799" y="-7" font-family="Helvetica,sans-Serif" font-size="10.00">stdint.h</text>
</a>
</g>
</g>
<!-- Node8&#45;&gt;Node9 -->
<g id="edge12_Node000008_Node000009" class="edge">
<title>Node8&#45;&gt;Node9</title>
<g id="a_edge12_Node000008_Node000009"><a xlink:title=" ">
<path fill="none" stroke="#63b8ff" d="M365.19,-164.76C373.95,-142.16 400.69,-81.71 445,-55 497.87,-23.14 682.98,-13.91 762.38,-11.39"/>
<polygon fill="#63b8ff" stroke="#63b8ff" points="762.52,-14.89 772.41,-11.09 762.31,-7.89 762.52,-14.89"/>
</a>
</g>
</g>
<!-- Node11&#45;&gt;Node12 -->
<g id="edge15_Node000011_Node000012" class="edge">
<title>Node11&#45;&gt;Node12</title>
<g id="a_edge15_Node000011_Node000012"><a xlink:title=" ">
<path fill="none" stroke="#63b8ff" d="M1169.98,-54.98C1183.47,-46.77 1204.13,-34.18 1220.04,-24.49"/>
<polygon fill="#63b8ff" stroke="#63b8ff" points="1222.05,-27.36 1228.77,-19.17 1218.41,-21.38 1222.05,-27.36"/>
</a>
</g>
</g>
<!-- Node14 -->
<g id="Node000014" class="node">
<title>Node14</title>
<g id="a_Node000014"><a xlink:href="_model_point_base_8h.html" target="_top" xlink:title=" ">
<polygon fill="white" stroke="#666666" points="819.5,-239 678.5,-239 678.5,-220 819.5,-220 819.5,-239"/>
<text text-anchor="middle" x="749" y="-227" font-family="Helvetica,sans-Serif" font-size="10.00">Kit/Dm/ModelPointBase.h</text>
</a>
</g>
</g>
<!-- Node13&#45;&gt;Node14 -->
<g id="edge17_Node000013_Node000014" class="edge">
<title>Node13&#45;&gt;Node14</title>
<g id="a_edge17_Node000013_Node000014"><a xlink:title=" ">
<path fill="none" stroke="#63b8ff" d="M749,-274.75C749,-267.8 749,-257.85 749,-249.13"/>
<polygon fill="#63b8ff" stroke="#63b8ff" points="752.5,-249.09 749,-239.09 745.5,-249.09 752.5,-249.09"/>
</a>
</g>
</g>
<!-- Node30 -->
<g id="Node000030" class="node">
<title>Node30</title>
<g id="a_Node000030"><a xlink:href="_observer_8h.html" target="_top" xlink:title=" ">
<polygon fill="white" stroke="#666666" points="1027,-239 921,-239 921,-220 1027,-220 1027,-239"/>
<text text-anchor="middle" x="974" y="-227" font-family="Helvetica,sans-Serif" font-size="10.00">Kit/Dm/Observer.h</text>
</a>
</g>
</g>
<!-- Node13&#45;&gt;Node30 -->
<g id="edge48_Node000013_Node000030" class="edge">
<title>Node13&#45;&gt;Node30</title>
<g id="a_edge48_Node000013_Node000030"><a xlink:title=" ">
<path fill="none" stroke="#63b8ff" d="M775.69,-277.21C813.14,-268.39 881.81,-252.22 927.69,-241.41"/>
<polygon fill="#63b8ff" stroke="#63b8ff" points="928.75,-244.75 937.68,-239.05 927.15,-237.94 928.75,-244.75"/>
</a>
</g>
</g>
<!-- Node14&#45;&gt;Node9 -->
<g id="edge46_Node000014_Node000009" class="edge">
<title>Node14&#45;&gt;Node9</title>
<g id="a_edge46_Node000014_Node000009"><a xlink:title=" ">
<path fill="none" stroke="#63b8ff" d="M736.52,-219.73C709.82,-199.87 651.68,-150.1 678,-110 700.06,-76.38 730.78,-100.53 761,-74 775.16,-61.57 785.56,-42.55 791.87,-28.56"/>
<polygon fill="#63b8ff" stroke="#63b8ff" points="795.23,-29.62 795.89,-19.04 788.78,-26.89 795.23,-29.62"/>
</a>
</g>
</g>
<!-- Node15 -->
<g id="Node000015" class="node">
<title>Node15</title>
<g id="a_Node000015"><a xlink:href="_i_model_point_8h.html" target="_top" xlink:title=" ">
<polygon fill="white" stroke="#666666" points="878,-184 758,-184 758,-165 878,-165 878,-184"/>
<text text-anchor="middle" x="818" y="-172" font-family="Helvetica,sans-Serif" font-size="10.00">Kit/Dm/IModelPoint.h</text>
</a>
</g>
</g>
<!-- Node14&#45;&gt;Node15 -->
<g id="edge18_Node000014_Node000015" class="edge">
<title>Node14&#45;&gt;Node15</title>
<g id="a_edge18_Node000014_Node000015"><a xlink:title=" ">
<path fill="none" stroke="#63b8ff" d="M760.09,-219.98C770.49,-212 786.26,-199.88 798.72,-190.31"/>
<polygon fill="#63b8ff" stroke="#63b8ff" points="800.91,-193.04 806.71,-184.17 796.65,-187.49 800.91,-193.04"/>
</a>
</g>
</g>
<!-- Node18 -->
<g id="Node000018" class="node">
<title>Node18</title>
<g id="a_Node000018"><a xlink:title=" ">
<polygon fill="#e0e0e0" stroke="#999999" points="286.5,-19 233.5,-19 233.5,0 286.5,0 286.5,-19"/>
<text text-anchor="middle" x="260" y="-7" font-family="Helvetica,sans-Serif" font-size="10.00">stdlib.h</text>
</a>
</g>
</g>
<!-- Node14&#45;&gt;Node18 -->
<g id="edge47_Node000014_Node000018" class="edge">
<title>Node14&#45;&gt;Node18</title>
<g id="a_edge47_Node000014_Node000018"><a xlink:title=" ">
<path fill="none" stroke="#63b8ff" d="M678.5,-226.57C570.67,-222.75 370.42,-212.04 305,-184 270.53,-169.23 256.65,-163.08 241,-129 225.78,-95.85 240.27,-52.61 250.94,-28.59"/>
<polygon fill="#63b8ff" stroke="#63b8ff" points="254.23,-29.83 255.33,-19.29 247.9,-26.84 254.23,-29.83"/>
</a>
</g>
</g>
<!-- Node23 -->
<g id="Node000023" class="node">
<title>Node23</title>
<g id="a_Node000023"><a xlink:href="_i_observer_8h.html" target="_top" xlink:title=" ">
<polygon fill="white" stroke="#666666" points="1067.5,-129 958.5,-129 958.5,-110 1067.5,-110 1067.5,-129"/>
<text text-anchor="middle" x="1013" y="-117" font-family="Helvetica,sans-Serif" font-size="10.00">Kit/Dm/IObserver.h</text>
</a>
</g>
</g>
<!-- Node14&#45;&gt;Node23 -->
<g id="edge42_Node000014_Node000023" class="edge">
<title>Node14&#45;&gt;Node23</title>
<g id="a_edge42_Node000014_Node000023"><a xlink:title=" ">
<path fill="none" stroke="#63b8ff" d="M780.18,-219.94C808.48,-211.83 851.14,-198.72 887,-184 923.57,-168.99 964.11,-147.67 989.08,-133.96"/>
<polygon fill="#63b8ff" stroke="#63b8ff" points="990.79,-137.01 997.84,-129.11 987.4,-130.89 990.79,-137.01"/>
</a>
</g>
</g>
<!-- Node26 -->
<g id="Node000026" class="node">
<title>Node26</title>
<g id="a_Node000026"><a xlink:href="_i_model_database_8h.html" target="_top" xlink:title=" ">
<polygon fill="white" stroke="#666666" points="652,-184 510,-184 510,-165 652,-165 652,-184"/>
<text text-anchor="middle" x="581" y="-172" font-family="Helvetica,sans-Serif" font-size="10.00">Kit/Dm/IModelDatabase.h</text>
</a>
</g>
</g>
<!-- Node14&#45;&gt;Node26 -->
<g id="edge35_Node000014_Node000026" class="edge">
<title>Node14&#45;&gt;Node26</title>
<g id="a_edge35_Node000014_Node000026"><a xlink:title=" ">
<path fill="none" stroke="#63b8ff" d="M722.01,-219.98C693.8,-211.09 649.36,-197.07 617.92,-187.15"/>
<polygon fill="#63b8ff" stroke="#63b8ff" points="618.79,-183.75 608.2,-184.08 616.69,-190.43 618.79,-183.75"/>
</a>
</g>
</g>
<!-- Node28 -->
<g id="Node000028" class="node">
<title>Node28</title>
<g id="a_Node000028"><a xlink:href="_d_list_8h.html" target="_top" xlink:title=" ">
<polygon fill="white" stroke="#666666" points="1179.5,-184 1062.5,-184 1062.5,-165 1179.5,-165 1179.5,-184"/>
<text text-anchor="middle" x="1121" y="-172" font-family="Helvetica,sans-Serif" font-size="10.00">Kit/Container/DList.h</text>
</a>
</g>
</g>
<!-- Node14&#45;&gt;Node28 -->
<g id="edge43_Node000014_Node000028" class="edge">
<title>Node14&#45;&gt;Node28</title>
<g id="a_edge43_Node000014_Node000028"><a xlink:title=" ">
<path fill="none" stroke="#63b8ff" d="M808.77,-219.98C875.23,-210.52 982.4,-195.25 1052.27,-185.29"/>
<polygon fill="#63b8ff" stroke="#63b8ff" points="1052.89,-188.74 1062.3,-183.86 1051.91,-181.81 1052.89,-188.74"/>
</a>
</g>
</g>
<!-- Node15&#45;&gt;Node2 -->
<g id="edge19_Node000015_Node000002" class="edge">
<title>Node15&#45;&gt;Node2</title>
<g id="a_edge19_Node000015_Node000002"><a xlink:title=" ">
<path fill="none" stroke="#63b8ff" d="M757.94,-164.99C700.67,-156.75 611.72,-143.6 524.69,-129.07"/>
<polygon fill="#63b8ff" stroke="#63b8ff" points="525.08,-125.58 514.64,-127.38 523.92,-132.49 525.08,-125.58"/>
</a>
</g>
</g>
<!-- Node15&#45;&gt;Node9 -->
<g id="edge34_Node000015_Node000009" class="edge">
<title>Node15&#45;&gt;Node9</title>
<g id="a_edge34_Node000015_Node000009"><a xlink:title=" ">
<path fill="none" stroke="#63b8ff" d="M816.98,-164.74C814.01,-139.31 805.36,-65.08 801.24,-29.69"/>
<polygon fill="#63b8ff" stroke="#63b8ff" points="804.66,-28.83 800.03,-19.31 797.71,-29.64 804.66,-28.83"/>
</a>
</g>
</g>
<!-- Node15&#45;&gt;Node11 -->
<g id="edge20_Node000015_Node000011" class="edge">
<title>Node15&#45;&gt;Node11</title>
<g id="a_edge20_Node000015_Node000011"><a xlink:title=" ">
<path fill="none" stroke="#63b8ff" d="M836.19,-164.84C854.96,-155.9 885.05,-141.53 911,-129 928.36,-120.62 931.78,-116.3 950,-110 995.27,-94.34 1048.1,-83.06 1088.93,-75.78"/>
<polygon fill="#63b8ff" stroke="#63b8ff" points="1089.79,-79.18 1099.04,-74.01 1088.59,-72.28 1089.79,-79.18"/>
</a>
</g>
</g>
<!-- Node16 -->
<g id="Node000016" class="node">
<title>Node16</title>
<g id="a_Node000016"><a xlink:href="_i_string_8h.html" target="_top" xlink:title=" ">
<polygon fill="white" stroke="#666666" points="629.5,-129 532.5,-129 532.5,-110 629.5,-110 629.5,-129"/>
<text text-anchor="middle" x="581" y="-117" font-family="Helvetica,sans-Serif" font-size="10.00">Kit/Text/IString.h</text>
</a>
</g>
</g>
<!-- Node15&#45;&gt;Node16 -->
<g id="edge21_Node000015_Node000016" class="edge">
<title>Node15&#45;&gt;Node16</title>
<g id="a_edge21_Node000015_Node000016"><a xlink:title=" ">
<path fill="none" stroke="#63b8ff" d="M779.92,-164.98C739.01,-155.84 673.89,-141.27 629.38,-131.32"/>
<polygon fill="#63b8ff" stroke="#63b8ff" points="629.9,-127.85 619.38,-129.08 628.37,-134.68 629.9,-127.85"/>
</a>
</g>
</g>
<!-- Node15&#45;&gt;Node23 -->
<g id="edge29_Node000015_Node000023" class="edge">
<title>Node15&#45;&gt;Node23</title>
<g id="a_edge29_Node000015_Node000023"><a xlink:title=" ">
<path fill="none" stroke="#63b8ff" d="M849.33,-164.98C882.49,-155.97 935,-141.7 971.56,-131.76"/>
<polygon fill="#63b8ff" stroke="#63b8ff" points="972.69,-135.08 981.42,-129.08 970.86,-128.33 972.69,-135.08"/>
</a>
</g>
</g>
<!-- Node24 -->
<g id="Node000024" class="node">
<title>Node24</title>
<g id="a_Node000024"><a xlink:href="_arduino_8h_source.html" target="_top" xlink:title=" ">
<polygon fill="white" stroke="#666666" points="789.5,-129 686.5,-129 686.5,-110 789.5,-110 789.5,-129"/>
<text text-anchor="middle" x="738" y="-117" font-family="Helvetica,sans-Serif" font-size="10.00">Kit/Json/Arduino.h</text>
</a>
</g>
</g>
<!-- Node15&#45;&gt;Node24 -->
<g id="edge32_Node000015_Node000024" class="edge">
<title>Node15&#45;&gt;Node24</title>
<g id="a_edge32_Node000015_Node000024"><a xlink:title=" ">
<path fill="none" stroke="#63b8ff" d="M805.15,-164.98C792.86,-156.84 774.09,-144.41 759.52,-134.76"/>
<polygon fill="#63b8ff" stroke="#63b8ff" points="761.36,-131.78 751.09,-129.17 757.49,-137.61 761.36,-131.78"/>
</a>
</g>
</g>
<!-- Node25 -->
<g id="Node000025" class="node">
<title>Node25</title>
<g id="a_Node000025"><a xlink:title=" ">
<polygon fill="#e0e0e0" stroke="#999999" points="902,-129 846,-129 846,-110 902,-110 902,-129"/>
<text text-anchor="middle" x="874" y="-117" font-family="Helvetica,sans-Serif" font-size="10.00">stddef.h</text>
</a>
</g>
</g>
<!-- Node15&#45;&gt;Node25 -->
<g id="edge33_Node000015_Node000025" class="edge">
<title>Node15&#45;&gt;Node25</title>
<g id="a_edge33_Node000015_Node000025"><a xlink:title=" ">
<path fill="none" stroke="#63b8ff" d="M827,-164.98C835.19,-157.23 847.51,-145.58 857.47,-136.14"/>
<polygon fill="#63b8ff" stroke="#63b8ff" points="859.98,-138.59 864.84,-129.17 855.17,-133.5 859.98,-138.59"/>
</a>
</g>
</g>
<!-- Node17 -->
<g id="Node000017" class="node">
<title>Node17</title>
<g id="a_Node000017"><a xlink:href="_key_8h.html" target="_top" xlink:title=" ">
<polygon fill="white" stroke="#666666" points="397.5,-74 288.5,-74 288.5,-55 397.5,-55 397.5,-74"/>
<text text-anchor="middle" x="343" y="-62" font-family="Helvetica,sans-Serif" font-size="10.00">Kit/Container/Key.h</text>
</a>
</g>
</g>
<!-- Node16&#45;&gt;Node17 -->
<g id="edge22_Node000016_Node000017" class="edge">
<title>Node16&#45;&gt;Node17</title>
<g id="a_edge22_Node000016_Node000017"><a xlink:title=" ">
<path fill="none" stroke="#63b8ff" d="M542.76,-109.98C501.59,-100.82 436.01,-86.21 391.3,-76.26"/>
<polygon fill="#63b8ff" stroke="#63b8ff" points="392.06,-72.84 381.54,-74.08 390.54,-79.67 392.06,-72.84"/>
</a>
</g>
</g>
<!-- Node20 -->
<g id="Node000020" class="node">
<title>Node20</title>
<g id="a_Node000020"><a xlink:href="printfchecker_8h.html" target="_top" xlink:title="This file contains macro that enables the GCC (and Clang) compiler to validate printf flags with thei...">
<polygon fill="white" stroke="#666666" points="751.5,-74 606.5,-74 606.5,-55 751.5,-55 751.5,-74"/>
<text text-anchor="middle" x="679" y="-62" font-family="Helvetica,sans-Serif" font-size="10.00">Kit/System/printfchecker.h</text>
</a>
</g>
</g>
<!-- Node16&#45;&gt;Node20 -->
<g id="edge26_Node000016_Node000020" class="edge">
<title>Node16&#45;&gt;Node20</title>
<g id="a_edge26_Node000016_Node000020"><a xlink:title=" ">
<path fill="none" stroke="#63b8ff" d="M596.75,-109.98C612.23,-101.61 636.09,-88.7 654.14,-78.95"/>
<polygon fill="#63b8ff" stroke="#63b8ff" points="655.84,-82.01 662.97,-74.17 652.51,-75.85 655.84,-82.01"/>
</a>
</g>
</g>
<!-- Node21 -->
<g id="Node000021" class="node">
<title>Node21</title>
<g id="a_Node000021"><a xlink:title=" ">
<polygon fill="#e0e0e0" stroke="#999999" points="510,-74 454,-74 454,-55 510,-55 510,-74"/>
<text text-anchor="middle" x="482" y="-62" font-family="Helvetica,sans-Serif" font-size="10.00">stdarg.h</text>
</a>
</g>
</g>
<!-- Node16&#45;&gt;Node21 -->
<g id="edge27_Node000016_Node000021" class="edge">
<title>Node16&#45;&gt;Node21</title>
<g id="a_edge27_Node000016_Node000021"><a xlink:title=" ">
<path fill="none" stroke="#63b8ff" d="M565.09,-109.98C549.45,-101.61 525.34,-88.7 507.12,-78.95"/>
<polygon fill="#63b8ff" stroke="#63b8ff" points="508.66,-75.8 498.2,-74.17 505.36,-81.98 508.66,-75.8"/>
</a>
</g>
</g>
<!-- Node22 -->
<g id="Node000022" class="node">
<title>Node22</title>
<g id="a_Node000022"><a xlink:title=" ">
<polygon fill="#e0e0e0" stroke="#999999" points="588,-74 528,-74 528,-55 588,-55 588,-74"/>
<text text-anchor="middle" x="558" y="-62" font-family="Helvetica,sans-Serif" font-size="10.00">iostream</text>
</a>
</g>
</g>
<!-- Node16&#45;&gt;Node22 -->
<g id="edge28_Node000016_Node000022" class="edge">
<title>Node16&#45;&gt;Node22</title>
<g id="a_edge28_Node000016_Node000022"><a xlink:title=" ">
<path fill="none" stroke="#63b8ff" d="M577.2,-109.75C574.09,-102.57 569.58,-92.18 565.71,-83.27"/>
<polygon fill="#63b8ff" stroke="#63b8ff" points="568.92,-81.87 561.73,-74.09 562.5,-84.66 568.92,-81.87"/>
</a>
</g>
</g>
<!-- Node17&#45;&gt;Node9 -->
<g id="edge23_Node000017_Node000009" class="edge">
<title>Node17&#45;&gt;Node9</title>
<g id="a_edge23_Node000017_Node000009"><a xlink:title=" ">
<path fill="none" stroke="#63b8ff" d="M397.61,-56.73C402.47,-56.14 407.33,-55.56 412,-55 540.45,-39.7 692.99,-22.42 761.92,-14.66"/>
<polygon fill="#63b8ff" stroke="#63b8ff" points="762.7,-18.1 772.25,-13.5 761.92,-11.14 762.7,-18.1"/>
</a>
</g>
</g>
<!-- Node17&#45;&gt;Node18 -->
<g id="edge24_Node000017_Node000018" class="edge">
<title>Node17&#45;&gt;Node18</title>
<g id="a_edge24_Node000017_Node000018"><a xlink:title=" ">
<path fill="none" stroke="#63b8ff" d="M329.66,-54.98C316.91,-46.84 297.45,-34.41 282.33,-24.76"/>
<polygon fill="#63b8ff" stroke="#63b8ff" points="283.89,-21.6 273.58,-19.17 280.12,-27.5 283.89,-21.6"/>
</a>
</g>
</g>
<!-- Node19 -->
<g id="Node000019" class="node">
<title>Node19</title>
<g id="a_Node000019"><a xlink:title=" ">
<polygon fill="#e0e0e0" stroke="#999999" points="369.5,-19 316.5,-19 316.5,0 369.5,0 369.5,-19"/>
<text text-anchor="middle" x="343" y="-7" font-family="Helvetica,sans-Serif" font-size="10.00">limits.h</text>
</a>
</g>
</g>
<!-- Node17&#45;&gt;Node19 -->
<g id="edge25_Node000017_Node000019" class="edge">
<title>Node17&#45;&gt;Node19</title>
<g id="a_edge25_Node000017_Node000019"><a xlink:title=" ">
<path fill="none" stroke="#63b8ff" d="M343,-54.75C343,-47.8 343,-37.85 343,-29.13"/>
<polygon fill="#63b8ff" stroke="#63b8ff" points="346.5,-29.09 343,-19.09 339.5,-29.09 346.5,-29.09"/>
</a>
</g>
</g>
<!-- Node23&#45;&gt;Node9 -->
<g id="edge31_Node000023_Node000009" class="edge">
<title>Node23&#45;&gt;Node9</title>
<g id="a_edge31_Node000023_Node000009"><a xlink:title=" ">
<path fill="none" stroke="#63b8ff" d="M995.85,-109.84C958.43,-90.96 869.25,-45.96 824.93,-23.59"/>
<polygon fill="#63b8ff" stroke="#63b8ff" points="826.44,-20.43 815.94,-19.05 823.29,-26.68 826.44,-20.43"/>
</a>
</g>
</g>
<!-- Node23&#45;&gt;Node11 -->
<g id="edge30_Node000023_Node000011" class="edge">
<title>Node23&#45;&gt;Node11</title>
<g id="a_edge30_Node000023_Node000011"><a xlink:title=" ">
<path fill="none" stroke="#63b8ff" d="M1035.98,-109.98C1059.5,-101.27 1096.29,-87.63 1122.94,-77.75"/>
<polygon fill="#63b8ff" stroke="#63b8ff" points="1124.45,-80.93 1132.61,-74.17 1122.01,-74.36 1124.45,-80.93"/>
</a>
</g>
</g>
<!-- Node26&#45;&gt;Node2 -->
<g id="edge36_Node000026_Node000002" class="edge">
<title>Node26&#45;&gt;Node2</title>
<g id="a_edge36_Node000026_Node000002"><a xlink:title=" ">
<path fill="none" stroke="#63b8ff" d="M564.45,-164.98C548.11,-156.57 522.87,-143.59 503.87,-133.81"/>
<polygon fill="#63b8ff" stroke="#63b8ff" points="505.34,-130.63 494.85,-129.17 502.14,-136.86 505.34,-130.63"/>
</a>
</g>
</g>
<!-- Node26&#45;&gt;Node16 -->
<g id="edge37_Node000026_Node000016" class="edge">
<title>Node26&#45;&gt;Node16</title>
<g id="a_edge37_Node000026_Node000016"><a xlink:title=" ">
<path fill="none" stroke="#63b8ff" d="M581,-164.75C581,-157.8 581,-147.85 581,-139.13"/>
<polygon fill="#63b8ff" stroke="#63b8ff" points="584.5,-139.09 581,-129.09 577.5,-139.09 584.5,-139.09"/>
</a>
</g>
</g>
<!-- Node26&#45;&gt;Node24 -->
<g id="edge41_Node000026_Node000024" class="edge">
<title>Node26&#45;&gt;Node24</title>
<g id="a_edge41_Node000026_Node000024"><a xlink:title=" ">
<path fill="none" stroke="#63b8ff" d="M606.22,-164.98C632.36,-156.16 673.4,-142.31 702.73,-132.41"/>
<polygon fill="#63b8ff" stroke="#63b8ff" points="704.22,-135.6 712.58,-129.08 701.98,-128.96 704.22,-135.6"/>
</a>
</g>
</g>
<!-- Node27 -->
<g id="Node000027" class="node">
<title>Node27</title>
<g id="a_Node000027"><a xlink:href="_mutex_8h.html" target="_top" xlink:title=" ">
<polygon fill="white" stroke="#666666" points="363.5,-129 250.5,-129 250.5,-110 363.5,-110 363.5,-129"/>
<text text-anchor="middle" x="307" y="-117" font-family="Helvetica,sans-Serif" font-size="10.00">Kit/System/Mutex.h</text>
</a>
</g>
</g>
<!-- Node26&#45;&gt;Node27 -->
<g id="edge38_Node000026_Node000027" class="edge">
<title>Node26&#45;&gt;Node27</title>
<g id="a_edge38_Node000026_Node000027"><a xlink:title=" ">
<path fill="none" stroke="#63b8ff" d="M536.98,-164.98C489.18,-155.74 412.8,-140.97 361.32,-131.01"/>
<polygon fill="#63b8ff" stroke="#63b8ff" points="361.85,-127.54 351.37,-129.08 360.52,-134.42 361.85,-127.54"/>
</a>
</g>
</g>
<!-- Node27&#45;&gt;Node4 -->
<g id="edge40_Node000027_Node000004" class="edge">
<title>Node27&#45;&gt;Node4</title>
<g id="a_edge40_Node000027_Node000004"><a xlink:title=" ">
<path fill="none" stroke="#63b8ff" d="M283.54,-109.98C259.42,-101.23 221.63,-87.51 194.4,-77.62"/>
<polygon fill="#63b8ff" stroke="#63b8ff" points="195.48,-74.29 184.88,-74.17 193.09,-80.87 195.48,-74.29"/>
</a>
</g>
</g>
<!-- Node27&#45;&gt;Node18 -->
<g id="edge39_Node000027_Node000018" class="edge">
<title>Node27&#45;&gt;Node18</title>
<g id="a_edge39_Node000027_Node000018"><a xlink:title=" ">
<path fill="none" stroke="#63b8ff" d="M300.45,-109.7C294.23,-101.01 284.96,-87.13 279,-74 272.45,-59.57 267.45,-42.3 264.23,-29.41"/>
<polygon fill="#63b8ff" stroke="#63b8ff" points="267.57,-28.32 261.86,-19.4 260.75,-29.94 267.57,-28.32"/>
</a>
</g>
</g>
<!-- Node29 -->
<g id="Node000029" class="node">
<title>Node29</title>
<g id="a_Node000029"><a xlink:href="_d_list_base_8h.html" target="_top" xlink:title=" ">
<polygon fill="white" stroke="#666666" points="1226.5,-129 1085.5,-129 1085.5,-110 1226.5,-110 1226.5,-129"/>
<text text-anchor="middle" x="1156" y="-117" font-family="Helvetica,sans-Serif" font-size="10.00">Kit/Container/DListBase.h</text>
</a>
</g>
</g>
<!-- Node28&#45;&gt;Node29 -->
<g id="edge44_Node000028_Node000029" class="edge">
<title>Node28&#45;&gt;Node29</title>
<g id="a_edge44_Node000028_Node000029"><a xlink:title=" ">
<path fill="none" stroke="#63b8ff" d="M1126.78,-164.75C1131.62,-157.42 1138.68,-146.73 1144.64,-137.7"/>
<polygon fill="#63b8ff" stroke="#63b8ff" points="1147.74,-139.36 1150.33,-129.09 1141.9,-135.5 1147.74,-139.36"/>
</a>
</g>
</g>
<!-- Node29&#45;&gt;Node11 -->
<g id="edge45_Node000029_Node000011" class="edge">
<title>Node29&#45;&gt;Node11</title>
<g id="a_edge45_Node000029_Node000011"><a xlink:title=" ">
<path fill="none" stroke="#63b8ff" d="M1156,-109.75C1156,-102.8 1156,-92.85 1156,-84.13"/>
<polygon fill="#63b8ff" stroke="#63b8ff" points="1159.5,-84.09 1156,-74.09 1152.5,-84.09 1159.5,-84.09"/>
</a>
</g>
</g>
<!-- Node30&#45;&gt;Node9 -->
<g id="edge51_Node000030_Node000009" class="edge">
<title>Node30&#45;&gt;Node9</title>
<g id="a_edge51_Node000030_Node000009"><a xlink:title=" ">
<path fill="none" stroke="#63b8ff" d="M1027.38,-227C1073.12,-223.58 1139.29,-213.39 1189,-184 1240.9,-153.32 1273.38,-97.89 1231,-55 1203.42,-27.09 935.05,-15.15 835.72,-11.66"/>
<polygon fill="#63b8ff" stroke="#63b8ff" points="835.67,-8.15 825.56,-11.31 835.43,-15.15 835.67,-8.15"/>
</a>
</g>
</g>
<!-- Node30&#45;&gt;Node15 -->
<g id="edge50_Node000030_Node000015" class="edge">
<title>Node30&#45;&gt;Node15</title>
<g id="a_edge50_Node000030_Node000015"><a xlink:title=" ">
<path fill="none" stroke="#63b8ff" d="M948.94,-219.98C922.97,-211.16 882.19,-197.31 853.04,-187.41"/>
<polygon fill="#63b8ff" stroke="#63b8ff" points="853.85,-183.99 843.26,-184.08 851.6,-190.61 853.85,-183.99"/>
</a>
</g>
</g>
<!-- Node30&#45;&gt;Node23 -->
<g id="edge49_Node000030_Node000023" class="edge">
<title>Node30&#45;&gt;Node23</title>
<g id="a_edge49_Node000030_Node000023"><a xlink:title=" ">
<path fill="none" stroke="#63b8ff" d="M977.19,-219.66C983.57,-202.01 997.98,-162.09 1006.45,-138.64"/>
<polygon fill="#63b8ff" stroke="#63b8ff" points="1009.77,-139.75 1009.87,-129.16 1003.18,-137.38 1009.77,-139.75"/>
</a>
</g>
</g>
</g>
</svg>
