<?xml version="1.0" encoding="UTF-8" standalone="no"?>
<!DOCTYPE svg PUBLIC "-//W3C//DTD SVG 1.1//EN"
 "http://www.w3.org/Graphics/SVG/1.1/DTD/svg11.dtd">
<!-- Generated by graphviz version 2.43.0 (0)
 -->
<!-- Title: Kit/Io/Serial/ST/M32F4/StreamDriver.h Pages: 1 -->
<svg width="1357pt" height="214pt"
 viewBox="0.00 0.00 1357.29 214.00" xmlns="http://www.w3.org/2000/svg" xmlns:xlink="http://www.w3.org/1999/xlink">
<g id="graph0" class="graph" transform="scale(1 1) rotate(0) translate(4 210)">
<title>Kit/Io/Serial/ST/M32F4/StreamDriver.h</title>
<!-- Node1 -->
<g id="Node000001" class="node">
<title>Node1</title>
<g id="a_Node000001"><a xlink:title=" ">
<polygon fill="#999999" stroke="#666666" points="280.29,-206 156.29,-206 156.29,-176 280.29,-176 280.29,-206"/>
<text text-anchor="start" x="164.29" y="-194" font-family="Helvetica,sans-Serif" font-size="10.00">Kit/Io/Serial/ST/M32F4</text>
<text text-anchor="middle" x="218.29" y="-183" font-family="Helvetica,sans-Serif" font-size="10.00">/StreamDriver.h</text>
</a>
</g>
</g>
<!-- Node2 -->
<g id="Node000002" class="node">
<title>Node2</title>
<g id="a_Node000002"><a xlink:title=" ">
<polygon fill="#e0e0e0" stroke="#999999" points="132.79,-19 59.79,-19 59.79,0 132.79,0 132.79,-19"/>
<text text-anchor="middle" x="96.29" y="-7" font-family="Helvetica,sans-Serif" font-size="10.00">kit_config.h</text>
</a>
</g>
</g>
<!-- Node1&#45;&gt;Node2 -->
<g id="edge1_Node000001_Node000002" class="edge">
<title>Node1&#45;&gt;Node2</title>
<g id="a_edge1_Node000001_Node000002"><a xlink:title=" ">
<path fill="none" stroke="#63b8ff" d="M156.28,-178.05C105.92,-164.72 38.06,-137.69 5.29,-85 -1.75,-73.68 -1.77,-66.31 5.29,-55 15.35,-38.89 33.11,-28.45 50.3,-21.77"/>
<polygon fill="#63b8ff" stroke="#63b8ff" points="51.47,-25.06 59.73,-18.43 49.13,-18.47 51.47,-25.06"/>
</a>
</g>
</g>
<!-- Node3 -->
<g id="Node000003" class="node">
<title>Node3</title>
<g id="a_Node000003"><a xlink:href="_bsp_2_api_8h.html" target="_top" xlink:title="This file defines a common/generic Board Support Package (BSP) Interface that provides an indirect re...">
<polygon fill="white" stroke="#666666" points="135.79,-79.5 56.79,-79.5 56.79,-60.5 135.79,-60.5 135.79,-79.5"/>
<text text-anchor="middle" x="96.29" y="-67.5" font-family="Helvetica,sans-Serif" font-size="10.00">Kit/Bsp/Api.h</text>
</a>
</g>
</g>
<!-- Node1&#45;&gt;Node3 -->
<g id="edge2_Node000001_Node000003" class="edge">
<title>Node1&#45;&gt;Node3</title>
<g id="a_edge2_Node000001_Node000003"><a xlink:title=" ">
<path fill="none" stroke="#63b8ff" d="M188.14,-175.9C171.74,-167.19 151.89,-154.85 137.29,-140 122.53,-124.98 110.91,-103.65 103.86,-88.69"/>
<polygon fill="#63b8ff" stroke="#63b8ff" points="107.03,-87.2 99.73,-79.51 100.64,-90.07 107.03,-87.2"/>
</a>
</g>
</g>
<!-- Node5 -->
<g id="Node000005" class="node">
<title>Node5</title>
<g id="a_Node000005"><a xlink:href="_ring_buffer_8h.html" target="_top" xlink:title=" ">
<polygon fill="white" stroke="#666666" points="289.79,-140 146.79,-140 146.79,-121 289.79,-121 289.79,-140"/>
<text text-anchor="middle" x="218.29" y="-128" font-family="Helvetica,sans-Serif" font-size="10.00">Kit/Container/RingBuffer.h</text>
</a>
</g>
</g>
<!-- Node1&#45;&gt;Node5 -->
<g id="edge5_Node000001_Node000005" class="edge">
<title>Node1&#45;&gt;Node5</title>
<g id="a_edge5_Node000001_Node000005"><a xlink:title=" ">
<path fill="none" stroke="#63b8ff" d="M218.29,-175.84C218.29,-168.21 218.29,-158.7 218.29,-150.45"/>
<polygon fill="#63b8ff" stroke="#63b8ff" points="221.79,-150.27 218.29,-140.27 214.79,-150.27 221.79,-150.27"/>
</a>
</g>
</g>
<!-- Node12 -->
<g id="Node000012" class="node">
<title>Node12</title>
<g id="a_Node000012"><a xlink:href="_thread_8h.html" target="_top" xlink:title=" ">
<polygon fill="white" stroke="#666666" points="601.29,-140 485.29,-140 485.29,-121 601.29,-121 601.29,-140"/>
<text text-anchor="middle" x="543.29" y="-128" font-family="Helvetica,sans-Serif" font-size="10.00">Kit/System/Thread.h</text>
</a>
</g>
</g>
<!-- Node1&#45;&gt;Node12 -->
<g id="edge15_Node000001_Node000012" class="edge">
<title>Node1&#45;&gt;Node12</title>
<g id="a_edge15_Node000001_Node000012"><a xlink:title=" ">
<path fill="none" stroke="#63b8ff" d="M280.57,-178.79C339.86,-168.12 428.36,-152.19 485.95,-141.82"/>
<polygon fill="#63b8ff" stroke="#63b8ff" points="486.76,-145.23 495.98,-140.02 485.52,-138.34 486.76,-145.23"/>
</a>
</g>
</g>
<!-- Node19 -->
<g id="Node000019" class="node">
<title>Node19</title>
<g id="a_Node000019"><a xlink:href="_io_2_types_8h.html" target="_top" xlink:title=" ">
<polygon fill="white" stroke="#666666" points="367.29,-79.5 285.29,-79.5 285.29,-60.5 367.29,-60.5 367.29,-79.5"/>
<text text-anchor="middle" x="326.29" y="-67.5" font-family="Helvetica,sans-Serif" font-size="10.00">Kit/Io/Types.h</text>
</a>
</g>
</g>
<!-- Node1&#45;&gt;Node19 -->
<g id="edge27_Node000001_Node000019" class="edge">
<title>Node1&#45;&gt;Node19</title>
<g id="a_edge27_Node000001_Node000019"><a xlink:title=" ">
<path fill="none" stroke="#63b8ff" d="M250.53,-175.82C266.66,-167.37 285.44,-155.3 298.29,-140 310.62,-125.33 318.06,-104.52 322.14,-89.59"/>
<polygon fill="#63b8ff" stroke="#63b8ff" points="325.62,-90.07 324.62,-79.53 318.83,-88.39 325.62,-90.07"/>
</a>
</g>
</g>
<!-- Node3&#45;&gt;Node2 -->
<g id="edge3_Node000003_Node000002" class="edge">
<title>Node3&#45;&gt;Node2</title>
<g id="a_edge3_Node000003_Node000002"><a xlink:title=" ">
<path fill="none" stroke="#63b8ff" d="M96.29,-60.37C96.29,-52.25 96.29,-39.81 96.29,-29.39"/>
<polygon fill="#63b8ff" stroke="#63b8ff" points="99.79,-29.17 96.29,-19.17 92.79,-29.17 99.79,-29.17"/>
</a>
</g>
</g>
<!-- Node4 -->
<g id="Node000004" class="node">
<title>Node4</title>
<g id="a_Node000004"><a xlink:title=" ">
<polygon fill="#e0e0e0" stroke="#999999" points="300.79,-19 235.79,-19 235.79,0 300.79,0 300.79,-19"/>
<text text-anchor="middle" x="268.29" y="-7" font-family="Helvetica,sans-Serif" font-size="10.00">kit_map.h</text>
</a>
</g>
</g>
<!-- Node3&#45;&gt;Node4 -->
<g id="edge4_Node000003_Node000004" class="edge">
<title>Node3&#45;&gt;Node4</title>
<g id="a_edge4_Node000003_Node000004"><a xlink:title=" ">
<path fill="none" stroke="#63b8ff" d="M121.3,-60.49C150.85,-50.44 200.2,-33.66 233.48,-22.34"/>
<polygon fill="#63b8ff" stroke="#63b8ff" points="234.91,-25.55 243.25,-19.02 232.66,-18.92 234.91,-25.55"/>
</a>
</g>
</g>
<!-- Node5&#45;&gt;Node2 -->
<g id="edge6_Node000005_Node000002" class="edge">
<title>Node5&#45;&gt;Node2</title>
<g id="a_edge6_Node000005_Node000002"><a xlink:title=" ">
<path fill="none" stroke="#63b8ff" d="M146.59,-123.3C94.69,-117.15 30.86,-105.57 14.29,-85 5.93,-74.62 7.47,-66.46 14.29,-55 23.21,-40.02 39.13,-29.76 54.58,-22.91"/>
<polygon fill="#63b8ff" stroke="#63b8ff" points="56.12,-26.07 64.08,-19.08 53.49,-19.58 56.12,-26.07"/>
</a>
</g>
</g>
<!-- Node6 -->
<g id="Node000006" class="node">
<title>Node6</title>
<g id="a_Node000006"><a xlink:href="_assert_8h.html" target="_top" xlink:title=" ">
<polygon fill="white" stroke="#666666" points="266.79,-79.5 153.79,-79.5 153.79,-60.5 266.79,-60.5 266.79,-79.5"/>
<text text-anchor="middle" x="210.29" y="-67.5" font-family="Helvetica,sans-Serif" font-size="10.00">Kit/System/Assert.h</text>
</a>
</g>
</g>
<!-- Node5&#45;&gt;Node6 -->
<g id="edge7_Node000005_Node000006" class="edge">
<title>Node5&#45;&gt;Node6</title>
<g id="a_edge7_Node000005_Node000006"><a xlink:title=" ">
<path fill="none" stroke="#63b8ff" d="M217.11,-120.87C216,-112.75 214.3,-100.31 212.87,-89.89"/>
<polygon fill="#63b8ff" stroke="#63b8ff" points="216.3,-89.1 211.48,-79.67 209.36,-90.05 216.3,-89.1"/>
</a>
</g>
</g>
<!-- Node7 -->
<g id="Node000007" class="node">
<title>Node7</title>
<g id="a_Node000007"><a xlink:title=" ">
<polygon fill="#e0e0e0" stroke="#999999" points="438.79,-79.5 385.79,-79.5 385.79,-60.5 438.79,-60.5 438.79,-79.5"/>
<text text-anchor="middle" x="412.29" y="-67.5" font-family="Helvetica,sans-Serif" font-size="10.00">string.h</text>
</a>
</g>
</g>
<!-- Node5&#45;&gt;Node7 -->
<g id="edge10_Node000005_Node000007" class="edge">
<title>Node5&#45;&gt;Node7</title>
<g id="a_edge10_Node000005_Node000007"><a xlink:title=" ">
<path fill="none" stroke="#63b8ff" d="M252.17,-120.97C284.36,-112.63 333.99,-99.14 376.29,-85 377.95,-84.44 379.65,-83.86 381.36,-83.25"/>
<polygon fill="#63b8ff" stroke="#63b8ff" points="382.94,-86.4 391.09,-79.63 380.5,-79.83 382.94,-86.4"/>
</a>
</g>
</g>
<!-- Node8 -->
<g id="Node000008" class="node">
<title>Node8</title>
<g id="a_Node000008"><a xlink:href="_ring_buffer_base_atomic_8h.html" target="_top" xlink:title=" ">
<polygon fill="white" stroke="#666666" points="743.29,-85 609.29,-85 609.29,-55 743.29,-55 743.29,-85"/>
<text text-anchor="start" x="617.29" y="-73" font-family="Helvetica,sans-Serif" font-size="10.00">Kit/Container/RingBuffer</text>
<text text-anchor="middle" x="676.29" y="-62" font-family="Helvetica,sans-Serif" font-size="10.00">BaseAtomic.h</text>
</a>
</g>
</g>
<!-- Node5&#45;&gt;Node8 -->
<g id="edge11_Node000005_Node000008" class="edge">
<title>Node5&#45;&gt;Node8</title>
<g id="a_edge11_Node000005_Node000008"><a xlink:title=" ">
<path fill="none" stroke="#63b8ff" d="M289.94,-122.58C364.66,-115.05 485.42,-101.96 599.26,-85.09"/>
<polygon fill="#63b8ff" stroke="#63b8ff" points="599.82,-88.55 609.19,-83.61 598.79,-81.62 599.82,-88.55"/>
</a>
</g>
</g>
<!-- Node6&#45;&gt;Node2 -->
<g id="edge8_Node000006_Node000002" class="edge">
<title>Node6&#45;&gt;Node2</title>
<g id="a_edge8_Node000006_Node000002"><a xlink:title=" ">
<path fill="none" stroke="#63b8ff" d="M193.47,-60.37C174.69,-50.73 144.09,-35.03 122.24,-23.81"/>
<polygon fill="#63b8ff" stroke="#63b8ff" points="123.68,-20.62 113.18,-19.17 120.48,-26.85 123.68,-20.62"/>
</a>
</g>
</g>
<!-- Node6&#45;&gt;Node4 -->
<g id="edge9_Node000006_Node000004" class="edge">
<title>Node6&#45;&gt;Node4</title>
<g id="a_edge9_Node000006_Node000004"><a xlink:title=" ">
<path fill="none" stroke="#63b8ff" d="M218.85,-60.37C227.67,-51.47 241.63,-37.39 252.47,-26.45"/>
<polygon fill="#63b8ff" stroke="#63b8ff" points="255.14,-28.73 259.7,-19.17 250.17,-23.8 255.14,-28.73"/>
</a>
</g>
</g>
<!-- Node9 -->
<g id="Node000009" class="node">
<title>Node9</title>
<g id="a_Node000009"><a xlink:title=" ">
<polygon fill="#e0e0e0" stroke="#999999" points="569.79,-19 516.79,-19 516.79,0 569.79,0 569.79,-19"/>
<text text-anchor="middle" x="543.29" y="-7" font-family="Helvetica,sans-Serif" font-size="10.00">stdint.h</text>
</a>
</g>
</g>
<!-- Node8&#45;&gt;Node9 -->
<g id="edge12_Node000008_Node000009" class="edge">
<title>Node8&#45;&gt;Node9</title>
<g id="a_edge12_Node000008_Node000009"><a xlink:title=" ">
<path fill="none" stroke="#63b8ff" d="M644.43,-54.99C622.44,-45.31 593.44,-32.56 572.13,-23.18"/>
<polygon fill="#63b8ff" stroke="#63b8ff" points="573.49,-19.96 562.93,-19.14 570.68,-26.37 573.49,-19.96"/>
</a>
</g>
</g>
<!-- Node10 -->
<g id="Node000010" class="node">
<title>Node10</title>
<g id="a_Node000010"><a xlink:title=" ">
<polygon fill="#e0e0e0" stroke="#999999" points="741.79,-19 688.79,-19 688.79,0 741.79,0 741.79,-19"/>
<text text-anchor="middle" x="715.29" y="-7" font-family="Helvetica,sans-Serif" font-size="10.00">stdlib.h</text>
</a>
</g>
</g>
<!-- Node8&#45;&gt;Node10 -->
<g id="edge13_Node000008_Node000010" class="edge">
<title>Node8&#45;&gt;Node10</title>
<g id="a_edge13_Node000008_Node000010"><a xlink:title=" ">
<path fill="none" stroke="#63b8ff" d="M685.73,-54.84C691.16,-46.69 698.02,-36.4 703.77,-27.78"/>
<polygon fill="#63b8ff" stroke="#63b8ff" points="706.81,-29.53 709.45,-19.27 700.99,-25.65 706.81,-29.53"/>
</a>
</g>
</g>
<!-- Node11 -->
<g id="Node000011" class="node">
<title>Node11</title>
<g id="a_Node000011"><a xlink:title=" ">
<polygon fill="#e0e0e0" stroke="#999999" points="670.29,-19 620.29,-19 620.29,0 670.29,0 670.29,-19"/>
<text text-anchor="middle" x="645.29" y="-7" font-family="Helvetica,sans-Serif" font-size="10.00">atomic</text>
</a>
</g>
</g>
<!-- Node8&#45;&gt;Node11 -->
<g id="edge14_Node000008_Node000011" class="edge">
<title>Node8&#45;&gt;Node11</title>
<g id="a_edge14_Node000008_Node000011"><a xlink:title=" ">
<path fill="none" stroke="#63b8ff" d="M668.79,-54.84C664.56,-46.87 659.25,-36.84 654.74,-28.33"/>
<polygon fill="#63b8ff" stroke="#63b8ff" points="657.71,-26.46 649.94,-19.27 651.53,-29.74 657.71,-26.46"/>
</a>
</g>
</g>
<!-- Node12&#45;&gt;Node2 -->
<g id="edge16_Node000012_Node000002" class="edge">
<title>Node12&#45;&gt;Node2</title>
<g id="a_edge16_Node000012_Node000002"><a xlink:title=" ">
<path fill="none" stroke="#63b8ff" d="M485.04,-126.36C357.14,-119.19 61.89,-100.97 47.29,-85 30.2,-66.31 54.97,-41.07 75.08,-25.3"/>
<polygon fill="#63b8ff" stroke="#63b8ff" points="77.37,-27.96 83.27,-19.16 73.17,-22.35 77.37,-27.96"/>
</a>
</g>
</g>
<!-- Node12&#45;&gt;Node4 -->
<g id="edge17_Node000012_Node000004" class="edge">
<title>Node12&#45;&gt;Node4</title>
<g id="a_edge17_Node000012_Node000004"><a xlink:title=" ">
<path fill="none" stroke="#63b8ff" d="M532.07,-120.74C506.98,-101.18 448.48,-55.58 447.29,-55 403.45,-33.72 348.47,-22.02 311.09,-16.02"/>
<polygon fill="#63b8ff" stroke="#63b8ff" points="311.45,-12.54 301.04,-14.48 310.39,-19.46 311.45,-12.54"/>
</a>
</g>
</g>
<!-- Node12&#45;&gt;Node7 -->
<g id="edge26_Node000012_Node000007" class="edge">
<title>Node12&#45;&gt;Node7</title>
<g id="a_edge26_Node000012_Node000007"><a xlink:title=" ">
<path fill="none" stroke="#63b8ff" d="M524.24,-120.99C502.32,-111.2 466.08,-95.02 440.79,-83.73"/>
<polygon fill="#63b8ff" stroke="#63b8ff" points="441.92,-80.4 431.36,-79.52 439.07,-86.79 441.92,-80.4"/>
</a>
</g>
</g>
<!-- Node13 -->
<g id="Node000013" class="node">
<title>Node13</title>
<g id="a_Node000013"><a xlink:href="_i_runnable_8h.html" target="_top" xlink:title=" ">
<polygon fill="white" stroke="#666666" points="892.79,-79.5 761.79,-79.5 761.79,-60.5 892.79,-60.5 892.79,-79.5"/>
<text text-anchor="middle" x="827.29" y="-67.5" font-family="Helvetica,sans-Serif" font-size="10.00">Kit/System/IRunnable.h</text>
</a>
</g>
</g>
<!-- Node12&#45;&gt;Node13 -->
<g id="edge18_Node000012_Node000013" class="edge">
<title>Node12&#45;&gt;Node13</title>
<g id="a_edge18_Node000012_Node000013"><a xlink:title=" ">
<path fill="none" stroke="#63b8ff" d="M584.59,-120.99C635.28,-110.55 721.24,-92.85 776.08,-81.55"/>
<polygon fill="#63b8ff" stroke="#63b8ff" points="776.86,-84.96 785.94,-79.52 775.44,-78.11 776.86,-84.96"/>
</a>
</g>
</g>
<!-- Node14 -->
<g id="Node000014" class="node">
<title>Node14</title>
<g id="a_Node000014"><a xlink:href="_i_signable_8h.html" target="_top" xlink:title=" ">
<polygon fill="white" stroke="#666666" points="1037.79,-79.5 910.79,-79.5 910.79,-60.5 1037.79,-60.5 1037.79,-79.5"/>
<text text-anchor="middle" x="974.29" y="-67.5" font-family="Helvetica,sans-Serif" font-size="10.00">Kit/System/ISignable.h</text>
</a>
</g>
</g>
<!-- Node12&#45;&gt;Node14 -->
<g id="edge19_Node000012_Node000014" class="edge">
<title>Node12&#45;&gt;Node14</title>
<g id="a_edge19_Node000012_Node000014"><a xlink:title=" ">
<path fill="none" stroke="#63b8ff" d="M601.6,-123.52C672.77,-115.93 796.69,-101.79 902.29,-85 908.97,-83.94 915.97,-82.72 922.87,-81.44"/>
<polygon fill="#63b8ff" stroke="#63b8ff" points="923.7,-84.85 932.88,-79.56 922.4,-77.97 923.7,-84.85"/>
</a>
</g>
</g>
<!-- Node15 -->
<g id="Node000015" class="node">
<title>Node15</title>
<g id="a_Node000015"><a xlink:href="_tls_8h.html" target="_top" xlink:title=" ">
<polygon fill="white" stroke="#666666" points="591.29,-79.5 495.29,-79.5 495.29,-60.5 591.29,-60.5 591.29,-79.5"/>
<text text-anchor="middle" x="543.29" y="-67.5" font-family="Helvetica,sans-Serif" font-size="10.00">Kit/System/Tls.h</text>
</a>
</g>
</g>
<!-- Node12&#45;&gt;Node15 -->
<g id="edge20_Node000012_Node000015" class="edge">
<title>Node12&#45;&gt;Node15</title>
<g id="a_edge20_Node000012_Node000015"><a xlink:title=" ">
<path fill="none" stroke="#63b8ff" d="M543.29,-120.87C543.29,-112.75 543.29,-100.31 543.29,-89.89"/>
<polygon fill="#63b8ff" stroke="#63b8ff" points="546.79,-89.67 543.29,-79.67 539.79,-89.67 546.79,-89.67"/>
</a>
</g>
</g>
<!-- Node16 -->
<g id="Node000016" class="node">
<title>Node16</title>
<g id="a_Node000016"><a xlink:href="_traverser_status_8h.html" target="_top" xlink:title=" ">
<polygon fill="white" stroke="#666666" points="1198.79,-79.5 1055.79,-79.5 1055.79,-60.5 1198.79,-60.5 1198.79,-79.5"/>
<text text-anchor="middle" x="1127.29" y="-67.5" font-family="Helvetica,sans-Serif" font-size="10.00">Kit/Type/TraverserStatus.h</text>
</a>
</g>
</g>
<!-- Node12&#45;&gt;Node16 -->
<g id="edge23_Node000012_Node000016" class="edge">
<title>Node12&#45;&gt;Node16</title>
<g id="a_edge23_Node000012_Node000016"><a xlink:title=" ">
<path fill="none" stroke="#63b8ff" d="M601.67,-125.97C695.75,-119.91 886.61,-106.11 1047.29,-85 1055.44,-83.93 1064.03,-82.62 1072.43,-81.24"/>
<polygon fill="#63b8ff" stroke="#63b8ff" points="1073.27,-84.64 1082.54,-79.52 1072.1,-77.74 1073.27,-84.64"/>
</a>
</g>
</g>
<!-- Node17 -->
<g id="Node000017" class="node">
<title>Node17</title>
<g id="a_Node000017"><a xlink:href="_list_item_8h.html" target="_top" xlink:title=" ">
<polygon fill="white" stroke="#666666" points="1349.29,-79.5 1217.29,-79.5 1217.29,-60.5 1349.29,-60.5 1349.29,-79.5"/>
<text text-anchor="middle" x="1283.29" y="-67.5" font-family="Helvetica,sans-Serif" font-size="10.00">Kit/Container/ListItem.h</text>
</a>
</g>
</g>
<!-- Node12&#45;&gt;Node17 -->
<g id="edge24_Node000012_Node000017" class="edge">
<title>Node12&#45;&gt;Node17</title>
<g id="a_edge24_Node000012_Node000017"><a xlink:title=" ">
<path fill="none" stroke="#63b8ff" d="M601.33,-127.91C717.14,-124.24 985.01,-113.21 1208.29,-85 1216.14,-84.01 1224.42,-82.72 1232.49,-81.32"/>
<polygon fill="#63b8ff" stroke="#63b8ff" points="1233.33,-84.72 1242.56,-79.51 1232.09,-77.83 1233.33,-84.72"/>
</a>
</g>
</g>
<!-- Node15&#45;&gt;Node2 -->
<g id="edge21_Node000015_Node000002" class="edge">
<title>Node15&#45;&gt;Node2</title>
<g id="a_edge21_Node000015_Node000002"><a xlink:title=" ">
<path fill="none" stroke="#63b8ff" d="M494.97,-61.77C479.72,-59.54 462.81,-57.12 447.29,-55 338.53,-40.18 210.59,-24.37 143.23,-16.17"/>
<polygon fill="#63b8ff" stroke="#63b8ff" points="143.3,-12.65 132.96,-14.92 142.46,-19.6 143.3,-12.65"/>
</a>
</g>
</g>
<!-- Node15&#45;&gt;Node9 -->
<g id="edge22_Node000015_Node000009" class="edge">
<title>Node15&#45;&gt;Node9</title>
<g id="a_edge22_Node000015_Node000009"><a xlink:title=" ">
<path fill="none" stroke="#63b8ff" d="M543.29,-60.37C543.29,-52.25 543.29,-39.81 543.29,-29.39"/>
<polygon fill="#63b8ff" stroke="#63b8ff" points="546.79,-29.17 543.29,-19.17 539.79,-29.17 546.79,-29.17"/>
</a>
</g>
</g>
<!-- Node18 -->
<g id="Node000018" class="node">
<title>Node18</title>
<g id="a_Node000018"><a xlink:href="_item_8h.html" target="_top" xlink:title=" ">
<polygon fill="white" stroke="#666666" points="1340.79,-19 1225.79,-19 1225.79,0 1340.79,0 1340.79,-19"/>
<text text-anchor="middle" x="1283.29" y="-7" font-family="Helvetica,sans-Serif" font-size="10.00">Kit/Container/Item.h</text>
</a>
</g>
</g>
<!-- Node17&#45;&gt;Node18 -->
<g id="edge25_Node000017_Node000018" class="edge">
<title>Node17&#45;&gt;Node18</title>
<g id="a_edge25_Node000017_Node000018"><a xlink:title=" ">
<path fill="none" stroke="#63b8ff" d="M1283.29,-60.37C1283.29,-52.25 1283.29,-39.81 1283.29,-29.39"/>
<polygon fill="#63b8ff" stroke="#63b8ff" points="1286.79,-29.17 1283.29,-19.17 1279.79,-29.17 1286.79,-29.17"/>
</a>
</g>
</g>
<!-- Node19&#45;&gt;Node2 -->
<g id="edge28_Node000019_Node000002" class="edge">
<title>Node19&#45;&gt;Node2</title>
<g id="a_edge28_Node000019_Node000002"><a xlink:title=" ">
<path fill="none" stroke="#63b8ff" d="M295.58,-60.44C288.9,-58.61 281.86,-56.72 275.29,-55 229.84,-43.11 177.7,-30.24 141.46,-21.41"/>
<polygon fill="#63b8ff" stroke="#63b8ff" points="142.22,-17.99 131.68,-19.03 140.57,-24.79 142.22,-17.99"/>
</a>
</g>
</g>
<!-- Node19&#45;&gt;Node4 -->
<g id="edge29_Node000019_Node000004" class="edge">
<title>Node19&#45;&gt;Node4</title>
<g id="a_edge29_Node000019_Node000004"><a xlink:title=" ">
<path fill="none" stroke="#63b8ff" d="M317.73,-60.37C308.91,-51.47 294.95,-37.39 284.11,-26.45"/>
<polygon fill="#63b8ff" stroke="#63b8ff" points="286.41,-23.8 276.88,-19.17 281.44,-28.73 286.41,-23.8"/>
</a>
</g>
</g>
<!-- Node19&#45;&gt;Node9 -->
<g id="edge30_Node000019_Node000009" class="edge">
<title>Node19&#45;&gt;Node9</title>
<g id="a_edge30_Node000019_Node000009"><a xlink:title=" ">
<path fill="none" stroke="#63b8ff" d="M356.41,-60.5C362.96,-58.67 369.86,-56.76 376.29,-55 421.14,-42.74 472.89,-29.02 506.75,-20.1"/>
<polygon fill="#63b8ff" stroke="#63b8ff" points="507.87,-23.42 516.65,-17.49 506.09,-16.65 507.87,-23.42"/>
</a>
</g>
</g>
</g>
</svg>
