<?xml version="1.0" encoding="UTF-8" standalone="no"?>
<!DOCTYPE svg PUBLIC "-//W3C//DTD SVG 1.1//EN"
 "http://www.w3.org/Graphics/SVG/1.1/DTD/svg11.dtd">
<!-- Generated by graphviz version 2.43.0 (0)
 -->
<!-- Title: Kit/Framing/StreamSource.h Pages: 1 -->
<svg width="800pt" height="247pt"
 viewBox="0.00 0.00 800.00 247.00" xmlns="http://www.w3.org/2000/svg" xmlns:xlink="http://www.w3.org/1999/xlink">
<g id="graph0" class="graph" transform="scale(1 1) rotate(0) translate(4 243)">
<title>Kit/Framing/StreamSource.h</title>
<!-- Node1 -->
<g id="Node000001" class="node">
<title>Node1</title>
<g id="a_Node000001"><a xlink:title=" ">
<polygon fill="#999999" stroke="#666666" points="727,-239 574,-239 574,-220 727,-220 727,-239"/>
<text text-anchor="middle" x="650.5" y="-227" font-family="Helvetica,sans-Serif" font-size="10.00">Kit/Framing/StreamSource.h</text>
</a>
</g>
</g>
<!-- Node2 -->
<g id="Node000002" class="node">
<title>Node2</title>
<g id="a_Node000002"><a xlink:href="_i_source_8h.html" target="_top" xlink:title=" ">
<polygon fill="white" stroke="#666666" points="792,-184 671,-184 671,-165 792,-165 792,-184"/>
<text text-anchor="middle" x="731.5" y="-172" font-family="Helvetica,sans-Serif" font-size="10.00">Kit/Framing/ISource.h</text>
</a>
</g>
</g>
<!-- Node1&#45;&gt;Node2 -->
<g id="edge1_Node000001_Node000002" class="edge">
<title>Node1&#45;&gt;Node2</title>
<g id="a_edge1_Node000001_Node000002"><a xlink:title=" ">
<path fill="none" stroke="#63b8ff" d="M663.51,-219.98C675.96,-211.84 694.96,-199.41 709.71,-189.76"/>
<polygon fill="#63b8ff" stroke="#63b8ff" points="711.8,-192.57 718.25,-184.17 707.96,-186.72 711.8,-192.57"/>
</a>
</g>
</g>
<!-- Node6 -->
<g id="Node000006" class="node">
<title>Node6</title>
<g id="a_Node000006"><a xlink:href="_i_input_8h.html" target="_top" xlink:title=" ">
<polygon fill="white" stroke="#666666" points="631.5,-184 549.5,-184 549.5,-165 631.5,-165 631.5,-184"/>
<text text-anchor="middle" x="590.5" y="-172" font-family="Helvetica,sans-Serif" font-size="10.00">Kit/Io/IInput.h</text>
</a>
</g>
</g>
<!-- Node1&#45;&gt;Node6 -->
<g id="edge5_Node000001_Node000006" class="edge">
<title>Node1&#45;&gt;Node6</title>
<g id="a_edge5_Node000001_Node000006"><a xlink:title=" ">
<path fill="none" stroke="#63b8ff" d="M640.86,-219.98C631.99,-212.15 618.63,-200.34 607.89,-190.86"/>
<polygon fill="#63b8ff" stroke="#63b8ff" points="610.13,-188.17 600.32,-184.17 605.49,-193.41 610.13,-188.17"/>
</a>
</g>
</g>
<!-- Node3 -->
<g id="Node000003" class="node">
<title>Node3</title>
<g id="a_Node000003"><a xlink:href="_s_size_8h.html" target="_top" xlink:title=" ">
<polygon fill="white" stroke="#666666" points="703.5,-74 609.5,-74 609.5,-55 703.5,-55 703.5,-74"/>
<text text-anchor="middle" x="656.5" y="-62" font-family="Helvetica,sans-Serif" font-size="10.00">Kit/Type/SSize.h</text>
</a>
</g>
</g>
<!-- Node2&#45;&gt;Node3 -->
<g id="edge2_Node000002_Node000003" class="edge">
<title>Node2&#45;&gt;Node3</title>
<g id="a_edge2_Node000002_Node000003"><a xlink:title=" ">
<path fill="none" stroke="#63b8ff" d="M734.55,-164.58C738.4,-151.6 743.42,-127.2 733.5,-110 725.08,-95.41 709.85,-85.17 695.15,-78.23"/>
<polygon fill="#63b8ff" stroke="#63b8ff" points="696.21,-74.87 685.64,-74.13 693.43,-81.3 696.21,-74.87"/>
</a>
</g>
</g>
<!-- Node4 -->
<g id="Node000004" class="node">
<title>Node4</title>
<g id="a_Node000004"><a xlink:title=" ">
<polygon fill="#e0e0e0" stroke="#999999" points="655,-19 582,-19 582,0 655,0 655,-19"/>
<text text-anchor="middle" x="618.5" y="-7" font-family="Helvetica,sans-Serif" font-size="10.00">kit_config.h</text>
</a>
</g>
</g>
<!-- Node3&#45;&gt;Node4 -->
<g id="edge3_Node000003_Node000004" class="edge">
<title>Node3&#45;&gt;Node4</title>
<g id="a_edge3_Node000003_Node000004"><a xlink:title=" ">
<path fill="none" stroke="#63b8ff" d="M650.23,-54.75C644.91,-47.34 637.14,-36.5 630.62,-27.41"/>
<polygon fill="#63b8ff" stroke="#63b8ff" points="633.33,-25.18 624.66,-19.09 627.64,-29.26 633.33,-25.18"/>
</a>
</g>
</g>
<!-- Node5 -->
<g id="Node000005" class="node">
<title>Node5</title>
<g id="a_Node000005"><a xlink:title=" ">
<polygon fill="#e0e0e0" stroke="#999999" points="486,-19 433,-19 433,0 486,0 486,-19"/>
<text text-anchor="middle" x="459.5" y="-7" font-family="Helvetica,sans-Serif" font-size="10.00">stdint.h</text>
</a>
</g>
</g>
<!-- Node3&#45;&gt;Node5 -->
<g id="edge4_Node000003_Node000005" class="edge">
<title>Node3&#45;&gt;Node5</title>
<g id="a_edge4_Node000003_Node000005"><a xlink:title=" ">
<path fill="none" stroke="#63b8ff" d="M624.85,-54.98C589.65,-45.52 532.9,-30.25 495.9,-20.29"/>
<polygon fill="#63b8ff" stroke="#63b8ff" points="496.59,-16.85 486.02,-17.63 494.77,-23.61 496.59,-16.85"/>
</a>
</g>
</g>
<!-- Node7 -->
<g id="Node000007" class="node">
<title>Node7</title>
<g id="a_Node000007"><a xlink:href="_io_2types_8h.html" target="_top" xlink:title=" ">
<polygon fill="white" stroke="#666666" points="530.5,-129 448.5,-129 448.5,-110 530.5,-110 530.5,-129"/>
<text text-anchor="middle" x="489.5" y="-117" font-family="Helvetica,sans-Serif" font-size="10.00">Kit/Io/Types.h</text>
</a>
</g>
</g>
<!-- Node6&#45;&gt;Node7 -->
<g id="edge6_Node000006_Node000007" class="edge">
<title>Node6&#45;&gt;Node7</title>
<g id="a_edge6_Node000006_Node000007"><a xlink:title=" ">
<path fill="none" stroke="#63b8ff" d="M574.27,-164.98C558.32,-156.61 533.72,-143.7 515.12,-133.95"/>
<polygon fill="#63b8ff" stroke="#63b8ff" points="516.5,-130.72 506.02,-129.17 513.25,-136.92 516.5,-130.72"/>
</a>
</g>
</g>
<!-- Node9 -->
<g id="Node000009" class="node">
<title>Node9</title>
<g id="a_Node000009"><a xlink:href="_i_string_8h.html" target="_top" xlink:title=" ">
<polygon fill="white" stroke="#666666" points="374,-129 277,-129 277,-110 374,-110 374,-129"/>
<text text-anchor="middle" x="325.5" y="-117" font-family="Helvetica,sans-Serif" font-size="10.00">Kit/Text/IString.h</text>
</a>
</g>
</g>
<!-- Node6&#45;&gt;Node9 -->
<g id="edge11_Node000006_Node000009" class="edge">
<title>Node6&#45;&gt;Node9</title>
<g id="a_edge11_Node000006_Node000009"><a xlink:title=" ">
<path fill="none" stroke="#63b8ff" d="M549.38,-165.28C503.28,-156.06 428.39,-141.08 378.06,-131.01"/>
<polygon fill="#63b8ff" stroke="#63b8ff" points="378.52,-127.54 368.03,-129.01 377.15,-134.4 378.52,-127.54"/>
</a>
</g>
</g>
<!-- Node16 -->
<g id="Node000016" class="node">
<title>Node16</title>
<g id="a_Node000016"><a xlink:href="_io_2_i_close_8h.html" target="_top" xlink:title=" ">
<polygon fill="white" stroke="#666666" points="632.5,-129 548.5,-129 548.5,-110 632.5,-110 632.5,-129"/>
<text text-anchor="middle" x="590.5" y="-117" font-family="Helvetica,sans-Serif" font-size="10.00">Kit/Io/IClose.h</text>
</a>
</g>
</g>
<!-- Node6&#45;&gt;Node16 -->
<g id="edge19_Node000006_Node000016" class="edge">
<title>Node6&#45;&gt;Node16</title>
<g id="a_edge19_Node000006_Node000016"><a xlink:title=" ">
<path fill="none" stroke="#63b8ff" d="M590.5,-164.75C590.5,-157.8 590.5,-147.85 590.5,-139.13"/>
<polygon fill="#63b8ff" stroke="#63b8ff" points="594,-139.09 590.5,-129.09 587,-139.09 594,-139.09"/>
</a>
</g>
</g>
<!-- Node17 -->
<g id="Node000017" class="node">
<title>Node17</title>
<g id="a_Node000017"><a xlink:href="_i_eos_8h.html" target="_top" xlink:title=" ">
<polygon fill="white" stroke="#666666" points="724.5,-129 650.5,-129 650.5,-110 724.5,-110 724.5,-129"/>
<text text-anchor="middle" x="687.5" y="-117" font-family="Helvetica,sans-Serif" font-size="10.00">Kit/Io/IEos.h</text>
</a>
</g>
</g>
<!-- Node6&#45;&gt;Node17 -->
<g id="edge20_Node000006_Node000017" class="edge">
<title>Node6&#45;&gt;Node17</title>
<g id="a_edge20_Node000006_Node000017"><a xlink:title=" ">
<path fill="none" stroke="#63b8ff" d="M606.08,-164.98C621.27,-156.69 644.6,-143.94 662.4,-134.22"/>
<polygon fill="#63b8ff" stroke="#63b8ff" points="664.53,-137.04 671.63,-129.17 661.18,-130.89 664.53,-137.04"/>
</a>
</g>
</g>
<!-- Node7&#45;&gt;Node3 -->
<g id="edge9_Node000007_Node000003" class="edge">
<title>Node7&#45;&gt;Node3</title>
<g id="a_edge9_Node000007_Node000003"><a xlink:title=" ">
<path fill="none" stroke="#63b8ff" d="M516.33,-109.98C544.37,-101.09 588.55,-87.07 619.8,-77.15"/>
<polygon fill="#63b8ff" stroke="#63b8ff" points="620.99,-80.44 629.46,-74.08 618.87,-73.77 620.99,-80.44"/>
</a>
</g>
</g>
<!-- Node7&#45;&gt;Node4 -->
<g id="edge7_Node000007_Node000004" class="edge">
<title>Node7&#45;&gt;Node4</title>
<g id="a_edge7_Node000007_Node000004"><a xlink:title=" ">
<path fill="none" stroke="#63b8ff" d="M506.41,-109.85C521.61,-101.67 544.14,-88.52 561.5,-74 578.47,-59.81 595.03,-40.58 605.89,-27"/>
<polygon fill="#63b8ff" stroke="#63b8ff" points="608.74,-29.04 612.15,-19.01 603.23,-24.73 608.74,-29.04"/>
</a>
</g>
</g>
<!-- Node7&#45;&gt;Node5 -->
<g id="edge10_Node000007_Node000005" class="edge">
<title>Node7&#45;&gt;Node5</title>
<g id="a_edge10_Node000007_Node000005"><a xlink:title=" ">
<path fill="none" stroke="#63b8ff" d="M487.04,-109.66C482.16,-92.09 471.15,-52.45 464.63,-28.95"/>
<polygon fill="#63b8ff" stroke="#63b8ff" points="467.95,-27.86 461.91,-19.16 461.21,-29.73 467.95,-27.86"/>
</a>
</g>
</g>
<!-- Node8 -->
<g id="Node000008" class="node">
<title>Node8</title>
<g id="a_Node000008"><a xlink:title=" ">
<polygon fill="#e0e0e0" stroke="#999999" points="553,-74 488,-74 488,-55 553,-55 553,-74"/>
<text text-anchor="middle" x="520.5" y="-62" font-family="Helvetica,sans-Serif" font-size="10.00">kit_map.h</text>
</a>
</g>
</g>
<!-- Node7&#45;&gt;Node8 -->
<g id="edge8_Node000007_Node000008" class="edge">
<title>Node7&#45;&gt;Node8</title>
<g id="a_edge8_Node000007_Node000008"><a xlink:title=" ">
<path fill="none" stroke="#63b8ff" d="M494.62,-109.75C498.86,-102.49 505.03,-91.95 510.28,-82.98"/>
<polygon fill="#63b8ff" stroke="#63b8ff" points="513.45,-84.49 515.48,-74.09 507.41,-80.95 513.45,-84.49"/>
</a>
</g>
</g>
<!-- Node10 -->
<g id="Node000010" class="node">
<title>Node10</title>
<g id="a_Node000010"><a xlink:href="_key_8h.html" target="_top" xlink:title=" ">
<polygon fill="white" stroke="#666666" points="116,-74 7,-74 7,-55 116,-55 116,-74"/>
<text text-anchor="middle" x="61.5" y="-62" font-family="Helvetica,sans-Serif" font-size="10.00">Kit/Container/Key.h</text>
</a>
</g>
</g>
<!-- Node9&#45;&gt;Node10 -->
<g id="edge12_Node000009_Node000010" class="edge">
<title>Node9&#45;&gt;Node10</title>
<g id="a_edge12_Node000009_Node000010"><a xlink:title=" ">
<path fill="none" stroke="#63b8ff" d="M283.08,-109.98C237.13,-100.76 163.75,-86.03 114.15,-76.07"/>
<polygon fill="#63b8ff" stroke="#63b8ff" points="114.74,-72.62 104.25,-74.08 113.36,-79.48 114.74,-72.62"/>
</a>
</g>
</g>
<!-- Node13 -->
<g id="Node000013" class="node">
<title>Node13</title>
<g id="a_Node000013"><a xlink:href="printfchecker_8h.html" target="_top" xlink:title="This file contains macro that enables the GCC (and Clang) compiler to validate printf flags with thei...">
<polygon fill="white" stroke="#666666" points="279,-74 134,-74 134,-55 279,-55 279,-74"/>
<text text-anchor="middle" x="206.5" y="-62" font-family="Helvetica,sans-Serif" font-size="10.00">Kit/System/printfchecker.h</text>
</a>
</g>
</g>
<!-- Node9&#45;&gt;Node13 -->
<g id="edge16_Node000009_Node000013" class="edge">
<title>Node9&#45;&gt;Node13</title>
<g id="a_edge16_Node000009_Node000013"><a xlink:title=" ">
<path fill="none" stroke="#63b8ff" d="M306.38,-109.98C287.15,-101.42 257.27,-88.11 235.19,-78.28"/>
<polygon fill="#63b8ff" stroke="#63b8ff" points="236.53,-75.04 225.97,-74.17 233.68,-81.44 236.53,-75.04"/>
</a>
</g>
</g>
<!-- Node14 -->
<g id="Node000014" class="node">
<title>Node14</title>
<g id="a_Node000014"><a xlink:title=" ">
<polygon fill="#e0e0e0" stroke="#999999" points="353.5,-74 297.5,-74 297.5,-55 353.5,-55 353.5,-74"/>
<text text-anchor="middle" x="325.5" y="-62" font-family="Helvetica,sans-Serif" font-size="10.00">stdarg.h</text>
</a>
</g>
</g>
<!-- Node9&#45;&gt;Node14 -->
<g id="edge17_Node000009_Node000014" class="edge">
<title>Node9&#45;&gt;Node14</title>
<g id="a_edge17_Node000009_Node000014"><a xlink:title=" ">
<path fill="none" stroke="#63b8ff" d="M325.5,-109.75C325.5,-102.8 325.5,-92.85 325.5,-84.13"/>
<polygon fill="#63b8ff" stroke="#63b8ff" points="329,-84.09 325.5,-74.09 322,-84.09 329,-84.09"/>
</a>
</g>
</g>
<!-- Node15 -->
<g id="Node000015" class="node">
<title>Node15</title>
<g id="a_Node000015"><a xlink:title=" ">
<polygon fill="#e0e0e0" stroke="#999999" points="431.5,-74 371.5,-74 371.5,-55 431.5,-55 431.5,-74"/>
<text text-anchor="middle" x="401.5" y="-62" font-family="Helvetica,sans-Serif" font-size="10.00">iostream</text>
</a>
</g>
</g>
<!-- Node9&#45;&gt;Node15 -->
<g id="edge18_Node000009_Node000015" class="edge">
<title>Node9&#45;&gt;Node15</title>
<g id="a_edge18_Node000009_Node000015"><a xlink:title=" ">
<path fill="none" stroke="#63b8ff" d="M337.71,-109.98C349.28,-101.92 366.88,-89.65 380.66,-80.03"/>
<polygon fill="#63b8ff" stroke="#63b8ff" points="382.87,-82.76 389.07,-74.17 378.86,-77.02 382.87,-82.76"/>
</a>
</g>
</g>
<!-- Node10&#45;&gt;Node5 -->
<g id="edge13_Node000010_Node000005" class="edge">
<title>Node10&#45;&gt;Node5</title>
<g id="a_edge13_Node000010_Node000005"><a xlink:title=" ">
<path fill="none" stroke="#63b8ff" d="M116.13,-56.12C118.96,-55.74 121.77,-55.37 124.5,-55 232.79,-40.5 360.81,-23.55 422.54,-15.38"/>
<polygon fill="#63b8ff" stroke="#63b8ff" points="423.12,-18.84 432.58,-14.06 422.2,-11.9 423.12,-18.84"/>
</a>
</g>
</g>
<!-- Node11 -->
<g id="Node000011" class="node">
<title>Node11</title>
<g id="a_Node000011"><a xlink:title=" ">
<polygon fill="#e0e0e0" stroke="#999999" points="53,-19 0,-19 0,0 53,0 53,-19"/>
<text text-anchor="middle" x="26.5" y="-7" font-family="Helvetica,sans-Serif" font-size="10.00">stdlib.h</text>
</a>
</g>
</g>
<!-- Node10&#45;&gt;Node11 -->
<g id="edge14_Node000010_Node000011" class="edge">
<title>Node10&#45;&gt;Node11</title>
<g id="a_edge14_Node000010_Node000011"><a xlink:title=" ">
<path fill="none" stroke="#63b8ff" d="M55.72,-54.75C50.88,-47.42 43.82,-36.73 37.86,-27.7"/>
<polygon fill="#63b8ff" stroke="#63b8ff" points="40.6,-25.5 32.17,-19.09 34.76,-29.36 40.6,-25.5"/>
</a>
</g>
</g>
<!-- Node12 -->
<g id="Node000012" class="node">
<title>Node12</title>
<g id="a_Node000012"><a xlink:title=" ">
<polygon fill="#e0e0e0" stroke="#999999" points="124,-19 71,-19 71,0 124,0 124,-19"/>
<text text-anchor="middle" x="97.5" y="-7" font-family="Helvetica,sans-Serif" font-size="10.00">limits.h</text>
</a>
</g>
</g>
<!-- Node10&#45;&gt;Node12 -->
<g id="edge15_Node000010_Node000012" class="edge">
<title>Node10&#45;&gt;Node12</title>
<g id="a_edge15_Node000010_Node000012"><a xlink:title=" ">
<path fill="none" stroke="#63b8ff" d="M67.44,-54.75C72.48,-47.34 79.84,-36.5 86.01,-27.41"/>
<polygon fill="#63b8ff" stroke="#63b8ff" points="88.94,-29.33 91.67,-19.09 83.15,-25.39 88.94,-29.33"/>
</a>
</g>
</g>
</g>
</svg>
