<?xml version="1.0" encoding="UTF-8" standalone="no"?>
<!DOCTYPE svg PUBLIC "-//W3C//DTD SVG 1.1//EN"
 "http://www.w3.org/Graphics/SVG/1.1/DTD/svg11.dtd">
<!-- Generated by graphviz version 2.43.0 (0)
 -->
<!-- Title: Kit/Io/Serial/ST/M32F4/StreamDriver.h Pages: 1 -->
<svg width="1512pt" height="434pt"
 viewBox="0.00 0.00 1511.50 434.00" xmlns="http://www.w3.org/2000/svg" xmlns:xlink="http://www.w3.org/1999/xlink">
<g id="graph0" class="graph" transform="scale(1 1) rotate(0) translate(4 430)">
<title>Kit/Io/Serial/ST/M32F4/StreamDriver.h</title>
<!-- Node1 -->
<g id="Node000001" class="node">
<title>Node1</title>
<g id="a_Node000001"><a xlink:title=" ">
<polygon fill="#999999" stroke="#666666" points="413,-426 289,-426 289,-396 413,-396 413,-426"/>
<text text-anchor="start" x="297" y="-414" font-family="Helvetica,sans-Serif" font-size="10.00">Kit/Io/Serial/ST/M32F4</text>
<text text-anchor="middle" x="351" y="-403" font-family="Helvetica,sans-Serif" font-size="10.00">/StreamDriver.h</text>
</a>
</g>
</g>
<!-- Node2 -->
<g id="Node000002" class="node">
<title>Node2</title>
<g id="a_Node000002"><a xlink:title=" ">
<polygon fill="#e0e0e0" stroke="#999999" points="312.5,-140 239.5,-140 239.5,-121 312.5,-121 312.5,-140"/>
<text text-anchor="middle" x="276" y="-128" font-family="Helvetica,sans-Serif" font-size="10.00">kit_config.h</text>
</a>
</g>
</g>
<!-- Node1&#45;&gt;Node2 -->
<g id="edge1_Node000001_Node000002" class="edge">
<title>Node1&#45;&gt;Node2</title>
<g id="a_edge1_Node000001_Node000002"><a xlink:title=" ">
<path fill="none" stroke="#63b8ff" d="M362.72,-395.97C378.6,-375.49 405,-335.56 405,-296.5 405,-296.5 405,-296.5 405,-239.5 405,-210.04 405.83,-197.78 386,-176 369.46,-157.84 344.47,-146.94 322.48,-140.48"/>
<polygon fill="#63b8ff" stroke="#63b8ff" points="323.2,-137.05 312.63,-137.81 321.37,-143.8 323.2,-137.05"/>
</a>
</g>
</g>
<!-- Node3 -->
<g id="Node000003" class="node">
<title>Node3</title>
<g id="a_Node000003"><a xlink:href="_bsp_2_api_8h.html" target="_top" xlink:title="This file defines a common/generic Board Support Package (BSP) Interface that provides an indirect re...">
<polygon fill="white" stroke="#666666" points="107.5,-195 28.5,-195 28.5,-176 107.5,-176 107.5,-195"/>
<text text-anchor="middle" x="68" y="-183" font-family="Helvetica,sans-Serif" font-size="10.00">Kit/Bsp/Api.h</text>
</a>
</g>
</g>
<!-- Node1&#45;&gt;Node3 -->
<g id="edge2_Node000001_Node000003" class="edge">
<title>Node1&#45;&gt;Node3</title>
<g id="a_edge2_Node000001_Node000003"><a xlink:title=" ">
<path fill="none" stroke="#63b8ff" d="M288.73,-404.41C251.44,-398.4 204.88,-385.91 171,-360 117.04,-318.72 85.72,-240.41 73.71,-204.87"/>
<polygon fill="#63b8ff" stroke="#63b8ff" points="77.02,-203.73 70.6,-195.3 70.36,-205.89 77.02,-203.73"/>
</a>
</g>
</g>
<!-- Node5 -->
<g id="Node000005" class="node">
<title>Node5</title>
<g id="a_Node000005"><a xlink:href="_ring_buffer_8h.html" target="_top" xlink:title=" ">
<polygon fill="white" stroke="#666666" points="322.5,-360 179.5,-360 179.5,-341 322.5,-341 322.5,-360"/>
<text text-anchor="middle" x="251" y="-348" font-family="Helvetica,sans-Serif" font-size="10.00">Kit/Container/RingBuffer.h</text>
</a>
</g>
</g>
<!-- Node1&#45;&gt;Node5 -->
<g id="edge5_Node000001_Node000005" class="edge">
<title>Node1&#45;&gt;Node5</title>
<g id="a_edge5_Node000001_Node000005"><a xlink:title=" ">
<path fill="none" stroke="#63b8ff" d="M327.05,-395.99C311.11,-386.66 290.27,-374.47 274.44,-365.21"/>
<polygon fill="#63b8ff" stroke="#63b8ff" points="276.17,-362.17 265.77,-360.14 272.63,-368.21 276.17,-362.17"/>
</a>
</g>
</g>
<!-- Node30 -->
<g id="Node000030" class="node">
<title>Node30</title>
<g id="a_Node000030"><a xlink:href="_thread_8h.html" target="_top" xlink:title=" ">
<polygon fill="white" stroke="#666666" points="957,-360 841,-360 841,-341 957,-341 957,-360"/>
<text text-anchor="middle" x="899" y="-348" font-family="Helvetica,sans-Serif" font-size="10.00">Kit/System/Thread.h</text>
</a>
</g>
</g>
<!-- Node1&#45;&gt;Node30 -->
<g id="edge51_Node000001_Node000030" class="edge">
<title>Node1&#45;&gt;Node30</title>
<g id="a_edge51_Node000001_Node000030"><a xlink:title=" ">
<path fill="none" stroke="#63b8ff" d="M413.06,-403.37C516.49,-392.33 723.33,-370.25 830.74,-358.79"/>
<polygon fill="#63b8ff" stroke="#63b8ff" points="831.24,-362.25 840.81,-357.71 830.5,-355.29 831.24,-362.25"/>
</a>
</g>
</g>
<!-- Node35 -->
<g id="Node000035" class="node">
<title>Node35</title>
<g id="a_Node000035"><a xlink:href="_io_2_types_8h.html" target="_top" xlink:title=" ">
<polygon fill="white" stroke="#666666" points="377,-195 295,-195 295,-176 377,-176 377,-195"/>
<text text-anchor="middle" x="336" y="-183" font-family="Helvetica,sans-Serif" font-size="10.00">Kit/Io/Types.h</text>
</a>
</g>
</g>
<!-- Node1&#45;&gt;Node35 -->
<g id="edge62_Node000001_Node000035" class="edge">
<title>Node1&#45;&gt;Node35</title>
<g id="a_edge62_Node000001_Node000035"><a xlink:title=" ">
<path fill="none" stroke="#63b8ff" d="M350.04,-395.68C347.43,-356.76 340.2,-249.07 337.26,-205.33"/>
<polygon fill="#63b8ff" stroke="#63b8ff" points="340.75,-204.97 336.59,-195.23 333.76,-205.44 340.75,-204.97"/>
</a>
</g>
</g>
<!-- Node3&#45;&gt;Node2 -->
<g id="edge3_Node000003_Node000002" class="edge">
<title>Node3&#45;&gt;Node2</title>
<g id="a_edge3_Node000003_Node000002"><a xlink:title=" ">
<path fill="none" stroke="#63b8ff" d="M101.42,-175.98C136.94,-166.93 193.27,-152.58 232.3,-142.64"/>
<polygon fill="#63b8ff" stroke="#63b8ff" points="233.49,-145.94 242.32,-140.08 231.76,-139.16 233.49,-145.94"/>
</a>
</g>
</g>
<!-- Node4 -->
<g id="Node000004" class="node">
<title>Node4</title>
<g id="a_Node000004"><a xlink:title=" ">
<polygon fill="#e0e0e0" stroke="#999999" points="261.5,-79.5 196.5,-79.5 196.5,-60.5 261.5,-60.5 261.5,-79.5"/>
<text text-anchor="middle" x="229" y="-67.5" font-family="Helvetica,sans-Serif" font-size="10.00">kit_map.h</text>
</a>
</g>
</g>
<!-- Node3&#45;&gt;Node4 -->
<g id="edge4_Node000003_Node000004" class="edge">
<title>Node3&#45;&gt;Node4</title>
<g id="a_edge4_Node000003_Node000004"><a xlink:title=" ">
<path fill="none" stroke="#63b8ff" d="M80.1,-175.97C107.49,-156.66 174.48,-109.43 208.49,-85.46"/>
<polygon fill="#63b8ff" stroke="#63b8ff" points="210.6,-88.25 216.76,-79.63 206.57,-82.53 210.6,-88.25"/>
</a>
</g>
</g>
<!-- Node5&#45;&gt;Node2 -->
<g id="edge6_Node000005_Node000002" class="edge">
<title>Node5&#45;&gt;Node2</title>
<g id="a_edge6_Node000005_Node000002"><a xlink:title=" ">
<path fill="none" stroke="#63b8ff" d="M251.98,-340.95C255.65,-308.95 268.64,-195.68 273.83,-150.4"/>
<polygon fill="#63b8ff" stroke="#63b8ff" points="277.34,-150.56 275,-140.22 270.38,-149.76 277.34,-150.56"/>
</a>
</g>
</g>
<!-- Node6 -->
<g id="Node000006" class="node">
<title>Node6</title>
<g id="a_Node000006"><a xlink:href="_assert_8h.html" target="_top" xlink:title=" ">
<polygon fill="white" stroke="#666666" points="238.5,-195 125.5,-195 125.5,-176 238.5,-176 238.5,-195"/>
<text text-anchor="middle" x="182" y="-183" font-family="Helvetica,sans-Serif" font-size="10.00">Kit/System/Assert.h</text>
</a>
</g>
</g>
<!-- Node5&#45;&gt;Node6 -->
<g id="edge7_Node000005_Node000006" class="edge">
<title>Node5&#45;&gt;Node6</title>
<g id="a_edge7_Node000005_Node000006"><a xlink:title=" ">
<path fill="none" stroke="#63b8ff" d="M247.29,-340.74C236.43,-315.09 204.56,-239.78 189.74,-204.78"/>
<polygon fill="#63b8ff" stroke="#63b8ff" points="192.85,-203.15 185.73,-195.31 186.4,-205.88 192.85,-203.15"/>
</a>
</g>
</g>
<!-- Node7 -->
<g id="Node000007" class="node">
<title>Node7</title>
<g id="a_Node000007"><a xlink:href="_string_8h.html" target="_top" xlink:title=" ">
<polygon fill="white" stroke="#666666" points="925.5,-305 872.5,-305 872.5,-286 925.5,-286 925.5,-305"/>
<text text-anchor="middle" x="899" y="-293" font-family="Helvetica,sans-Serif" font-size="10.00">string.h</text>
</a>
</g>
</g>
<!-- Node5&#45;&gt;Node7 -->
<g id="edge10_Node000005_Node000007" class="edge">
<title>Node5&#45;&gt;Node7</title>
<g id="a_edge10_Node000005_Node000007"><a xlink:title=" ">
<path fill="none" stroke="#63b8ff" d="M322.51,-343.65C460.3,-332.38 758.16,-308.02 862.22,-299.51"/>
<polygon fill="#63b8ff" stroke="#63b8ff" points="862.56,-302.99 872.24,-298.69 861.99,-296.02 862.56,-302.99"/>
</a>
</g>
</g>
<!-- Node28 -->
<g id="Node000028" class="node">
<title>Node28</title>
<g id="a_Node000028"><a xlink:href="_ring_buffer_base_atomic_8h.html" target="_top" xlink:title=" ">
<polygon fill="white" stroke="#666666" points="178,-85 44,-85 44,-55 178,-55 178,-85"/>
<text text-anchor="start" x="52" y="-73" font-family="Helvetica,sans-Serif" font-size="10.00">Kit/Container/RingBuffer</text>
<text text-anchor="middle" x="111" y="-62" font-family="Helvetica,sans-Serif" font-size="10.00">BaseAtomic.h</text>
</a>
</g>
</g>
<!-- Node5&#45;&gt;Node28 -->
<g id="edge47_Node000005_Node000028" class="edge">
<title>Node5&#45;&gt;Node28</title>
<g id="a_edge47_Node000005_Node000028"><a xlink:title=" ">
<path fill="none" stroke="#63b8ff" d="M179.41,-348.01C105.22,-342.21 0,-320.13 0,-241.5 0,-241.5 0,-241.5 0,-184.5 0,-141.8 40.66,-109.21 72.76,-90.14"/>
<polygon fill="#63b8ff" stroke="#63b8ff" points="74.6,-93.12 81.55,-85.12 71.13,-87.04 74.6,-93.12"/>
</a>
</g>
</g>
<!-- Node6&#45;&gt;Node2 -->
<g id="edge8_Node000006_Node000002" class="edge">
<title>Node6&#45;&gt;Node2</title>
<g id="a_edge8_Node000006_Node000002"><a xlink:title=" ">
<path fill="none" stroke="#63b8ff" d="M197.1,-175.98C211.82,-167.69 234.42,-154.94 251.67,-145.22"/>
<polygon fill="#63b8ff" stroke="#63b8ff" points="253.63,-148.13 260.62,-140.17 250.19,-142.03 253.63,-148.13"/>
</a>
</g>
</g>
<!-- Node6&#45;&gt;Node4 -->
<g id="edge9_Node000006_Node000004" class="edge">
<title>Node6&#45;&gt;Node4</title>
<g id="a_edge9_Node000006_Node000004"><a xlink:title=" ">
<path fill="none" stroke="#63b8ff" d="M183.08,-176C184.86,-163.54 189.05,-139.78 197,-121 201.94,-109.33 209.52,-97.33 216.07,-88.01"/>
<polygon fill="#63b8ff" stroke="#63b8ff" points="219.06,-89.84 222.13,-79.7 213.41,-85.72 219.06,-89.84"/>
</a>
</g>
</g>
<!-- Node8 -->
<g id="Node000008" class="node">
<title>Node8</title>
<g id="a_Node000008"><a xlink:href="_model_point_base_8h.html" target="_top" xlink:title=" ">
<polygon fill="white" stroke="#666666" points="969.5,-250 828.5,-250 828.5,-231 969.5,-231 969.5,-250"/>
<text text-anchor="middle" x="899" y="-238" font-family="Helvetica,sans-Serif" font-size="10.00">Kit/Dm/ModelPointBase.h</text>
</a>
</g>
</g>
<!-- Node7&#45;&gt;Node8 -->
<g id="edge11_Node000007_Node000008" class="edge">
<title>Node7&#45;&gt;Node8</title>
<g id="a_edge11_Node000007_Node000008"><a xlink:title=" ">
<path fill="none" stroke="#63b8ff" d="M899,-285.75C899,-278.8 899,-268.85 899,-260.13"/>
<polygon fill="#63b8ff" stroke="#63b8ff" points="902.5,-260.09 899,-250.09 895.5,-260.09 902.5,-260.09"/>
</a>
</g>
</g>
<!-- Node27 -->
<g id="Node000027" class="node">
<title>Node27</title>
<g id="a_Node000027"><a xlink:href="_observer_8h.html" target="_top" xlink:title=" ">
<polygon fill="white" stroke="#666666" points="1198,-250 1092,-250 1092,-231 1198,-231 1198,-250"/>
<text text-anchor="middle" x="1145" y="-238" font-family="Helvetica,sans-Serif" font-size="10.00">Kit/Dm/Observer.h</text>
</a>
</g>
</g>
<!-- Node7&#45;&gt;Node27 -->
<g id="edge43_Node000007_Node000027" class="edge">
<title>Node7&#45;&gt;Node27</title>
<g id="a_edge43_Node000007_Node000027"><a xlink:title=" ">
<path fill="none" stroke="#63b8ff" d="M925.79,-288.73C966.42,-279.97 1044.28,-263.2 1095.42,-252.18"/>
<polygon fill="#63b8ff" stroke="#63b8ff" points="1096.24,-255.59 1105.28,-250.06 1094.76,-248.74 1096.24,-255.59"/>
</a>
</g>
</g>
<!-- Node9 -->
<g id="Node000009" class="node">
<title>Node9</title>
<g id="a_Node000009"><a xlink:href="_i_model_point_8h.html" target="_top" xlink:title=" ">
<polygon fill="white" stroke="#666666" points="1010,-195 890,-195 890,-176 1010,-176 1010,-195"/>
<text text-anchor="middle" x="950" y="-183" font-family="Helvetica,sans-Serif" font-size="10.00">Kit/Dm/IModelPoint.h</text>
</a>
</g>
</g>
<!-- Node8&#45;&gt;Node9 -->
<g id="edge12_Node000008_Node000009" class="edge">
<title>Node8&#45;&gt;Node9</title>
<g id="a_edge12_Node000008_Node000009"><a xlink:title=" ">
<path fill="none" stroke="#63b8ff" d="M907.42,-230.75C914.77,-223.11 925.63,-211.82 934.54,-202.56"/>
<polygon fill="#63b8ff" stroke="#63b8ff" points="937.32,-204.72 941.74,-195.09 932.28,-199.87 937.32,-204.72"/>
</a>
</g>
</g>
<!-- Node14 -->
<g id="Node000014" class="node">
<title>Node14</title>
<g id="a_Node000014"><a xlink:title=" ">
<polygon fill="#e0e0e0" stroke="#999999" points="910.5,-19 857.5,-19 857.5,0 910.5,0 910.5,-19"/>
<text text-anchor="middle" x="884" y="-7" font-family="Helvetica,sans-Serif" font-size="10.00">stdint.h</text>
</a>
</g>
</g>
<!-- Node8&#45;&gt;Node14 -->
<g id="edge41_Node000008_Node000014" class="edge">
<title>Node8&#45;&gt;Node14</title>
<g id="a_edge41_Node000008_Node000014"><a xlink:title=" ">
<path fill="none" stroke="#63b8ff" d="M894.38,-230.94C889.94,-222.2 883.55,-208.09 881,-195 869.4,-135.37 876.63,-62.84 881.16,-29.24"/>
<polygon fill="#63b8ff" stroke="#63b8ff" points="884.66,-29.46 882.61,-19.07 877.74,-28.47 884.66,-29.46"/>
</a>
</g>
</g>
<!-- Node15 -->
<g id="Node000015" class="node">
<title>Node15</title>
<g id="a_Node000015"><a xlink:title=" ">
<polygon fill="#e0e0e0" stroke="#999999" points="352.5,-19 299.5,-19 299.5,0 352.5,0 352.5,-19"/>
<text text-anchor="middle" x="326" y="-7" font-family="Helvetica,sans-Serif" font-size="10.00">stdlib.h</text>
</a>
</g>
</g>
<!-- Node8&#45;&gt;Node15 -->
<g id="edge42_Node000008_Node000015" class="edge">
<title>Node8&#45;&gt;Node15</title>
<g id="a_edge42_Node000008_Node000015"><a xlink:title=" ">
<path fill="none" stroke="#63b8ff" d="M885.35,-230.84C862.97,-217.06 816.72,-190.25 774,-176 686.25,-146.73 659.3,-160.06 569,-140 557.54,-137.45 374.16,-92.34 365,-85 347.16,-70.69 336.55,-45.99 331,-28.98"/>
<polygon fill="#63b8ff" stroke="#63b8ff" points="334.26,-27.68 328.06,-19.1 327.55,-29.68 334.26,-27.68"/>
</a>
</g>
</g>
<!-- Node20 -->
<g id="Node000020" class="node">
<title>Node20</title>
<g id="a_Node000020"><a xlink:href="_i_observer_8h.html" target="_top" xlink:title=" ">
<polygon fill="white" stroke="#666666" points="1149.5,-140 1040.5,-140 1040.5,-121 1149.5,-121 1149.5,-140"/>
<text text-anchor="middle" x="1095" y="-128" font-family="Helvetica,sans-Serif" font-size="10.00">Kit/Dm/IObserver.h</text>
</a>
</g>
</g>
<!-- Node8&#45;&gt;Node20 -->
<g id="edge37_Node000008_Node000020" class="edge">
<title>Node8&#45;&gt;Node20</title>
<g id="a_edge37_Node000008_Node000020"><a xlink:title=" ">
<path fill="none" stroke="#63b8ff" d="M930.88,-230.93C955.85,-223.46 990.94,-211.28 1019,-195 1041.84,-181.75 1064.63,-161.55 1079.2,-147.5"/>
<polygon fill="#63b8ff" stroke="#63b8ff" points="1081.73,-149.92 1086.41,-140.41 1076.82,-144.93 1081.73,-149.92"/>
</a>
</g>
</g>
<!-- Node23 -->
<g id="Node000023" class="node">
<title>Node23</title>
<g id="a_Node000023"><a xlink:href="_i_model_database_8h.html" target="_top" xlink:title=" ">
<polygon fill="white" stroke="#666666" points="651,-195 509,-195 509,-176 651,-176 651,-195"/>
<text text-anchor="middle" x="580" y="-183" font-family="Helvetica,sans-Serif" font-size="10.00">Kit/Dm/IModelDatabase.h</text>
</a>
</g>
</g>
<!-- Node8&#45;&gt;Node23 -->
<g id="edge30_Node000008_Node000023" class="edge">
<title>Node8&#45;&gt;Node23</title>
<g id="a_edge30_Node000008_Node000023"><a xlink:title=" ">
<path fill="none" stroke="#63b8ff" d="M847.75,-230.98C791.56,-221.65 701.43,-206.67 641.48,-196.71"/>
<polygon fill="#63b8ff" stroke="#63b8ff" points="641.83,-193.22 631.39,-195.04 640.68,-200.13 641.83,-193.22"/>
</a>
</g>
</g>
<!-- Node25 -->
<g id="Node000025" class="node">
<title>Node25</title>
<g id="a_Node000025"><a xlink:href="_d_list_8h.html" target="_top" xlink:title=" ">
<polygon fill="white" stroke="#666666" points="1183.5,-195 1066.5,-195 1066.5,-176 1183.5,-176 1183.5,-195"/>
<text text-anchor="middle" x="1125" y="-183" font-family="Helvetica,sans-Serif" font-size="10.00">Kit/Container/DList.h</text>
</a>
</g>
</g>
<!-- Node8&#45;&gt;Node25 -->
<g id="edge38_Node000008_Node000025" class="edge">
<title>Node8&#45;&gt;Node25</title>
<g id="a_edge38_Node000008_Node000025"><a xlink:title=" ">
<path fill="none" stroke="#63b8ff" d="M935.31,-230.98C974.24,-221.86 1036.16,-207.33 1078.6,-197.38"/>
<polygon fill="#63b8ff" stroke="#63b8ff" points="1079.47,-200.77 1088.4,-195.08 1077.87,-193.96 1079.47,-200.77"/>
</a>
</g>
</g>
<!-- Node9&#45;&gt;Node2 -->
<g id="edge13_Node000009_Node000002" class="edge">
<title>Node9&#45;&gt;Node2</title>
<g id="a_edge13_Node000009_Node000002"><a xlink:title=" ">
<path fill="none" stroke="#63b8ff" d="M889.76,-180.43C783.1,-173.12 554.07,-156.94 361,-140 348.65,-138.92 335.3,-137.63 322.93,-136.4"/>
<polygon fill="#63b8ff" stroke="#63b8ff" points="323.1,-132.9 312.8,-135.38 322.4,-139.86 323.1,-132.9"/>
</a>
</g>
</g>
<!-- Node10 -->
<g id="Node000010" class="node">
<title>Node10</title>
<g id="a_Node000010"><a xlink:href="_list_item_8h.html" target="_top" xlink:title=" ">
<polygon fill="white" stroke="#666666" points="1258,-79.5 1126,-79.5 1126,-60.5 1258,-60.5 1258,-79.5"/>
<text text-anchor="middle" x="1192" y="-67.5" font-family="Helvetica,sans-Serif" font-size="10.00">Kit/Container/ListItem.h</text>
</a>
</g>
</g>
<!-- Node9&#45;&gt;Node10 -->
<g id="edge14_Node000009_Node000010" class="edge">
<title>Node9&#45;&gt;Node10</title>
<g id="a_edge14_Node000009_Node000010"><a xlink:title=" ">
<path fill="none" stroke="#63b8ff" d="M958.84,-175.89C973.12,-162.42 1002.63,-136.33 1032,-121 1066.61,-102.94 1108.87,-90.08 1141.27,-81.93"/>
<polygon fill="#63b8ff" stroke="#63b8ff" points="1142.11,-85.33 1150.99,-79.55 1140.44,-78.53 1142.11,-85.33"/>
</a>
</g>
</g>
<!-- Node12 -->
<g id="Node000012" class="node">
<title>Node12</title>
<g id="a_Node000012"><a xlink:href="_i_string_8h.html" target="_top" xlink:title=" ">
<polygon fill="white" stroke="#666666" points="795.5,-140 698.5,-140 698.5,-121 795.5,-121 795.5,-140"/>
<text text-anchor="middle" x="747" y="-128" font-family="Helvetica,sans-Serif" font-size="10.00">Kit/Text/IString.h</text>
</a>
</g>
</g>
<!-- Node9&#45;&gt;Node12 -->
<g id="edge16_Node000009_Node000012" class="edge">
<title>Node9&#45;&gt;Node12</title>
<g id="a_edge16_Node000009_Node000012"><a xlink:title=" ">
<path fill="none" stroke="#63b8ff" d="M917.38,-175.98C882.71,-166.93 827.74,-152.58 789.65,-142.64"/>
<polygon fill="#63b8ff" stroke="#63b8ff" points="790.43,-139.22 779.87,-140.08 788.66,-145.99 790.43,-139.22"/>
</a>
</g>
</g>
<!-- Node9&#45;&gt;Node14 -->
<g id="edge29_Node000009_Node000014" class="edge">
<title>Node9&#45;&gt;Node14</title>
<g id="a_edge29_Node000009_Node000014"><a xlink:title=" ">
<path fill="none" stroke="#63b8ff" d="M952.53,-175.7C955.68,-163.29 960.08,-140.02 955,-121 944.95,-83.41 916.76,-46.84 899.07,-26.63"/>
<polygon fill="#63b8ff" stroke="#63b8ff" points="901.51,-24.11 892.22,-19.01 896.3,-28.79 901.51,-24.11"/>
</a>
</g>
</g>
<!-- Node9&#45;&gt;Node20 -->
<g id="edge24_Node000009_Node000020" class="edge">
<title>Node9&#45;&gt;Node20</title>
<g id="a_edge24_Node000009_Node000020"><a xlink:title=" ">
<path fill="none" stroke="#63b8ff" d="M973.3,-175.98C997.25,-167.23 1034.78,-153.51 1061.83,-143.62"/>
<polygon fill="#63b8ff" stroke="#63b8ff" points="1063.09,-146.89 1071.28,-140.17 1060.69,-140.32 1063.09,-146.89"/>
</a>
</g>
</g>
<!-- Node21 -->
<g id="Node000021" class="node">
<title>Node21</title>
<g id="a_Node000021"><a xlink:href="_arduino_8h_source.html" target="_top" xlink:title=" ">
<polygon fill="white" stroke="#666666" points="680.5,-140 577.5,-140 577.5,-121 680.5,-121 680.5,-140"/>
<text text-anchor="middle" x="629" y="-128" font-family="Helvetica,sans-Serif" font-size="10.00">Kit/Json/Arduino.h</text>
</a>
</g>
</g>
<!-- Node9&#45;&gt;Node21 -->
<g id="edge27_Node000009_Node000021" class="edge">
<title>Node9&#45;&gt;Node21</title>
<g id="a_edge27_Node000009_Node000021"><a xlink:title=" ">
<path fill="none" stroke="#63b8ff" d="M898.43,-175.98C841.88,-166.65 751.19,-151.67 690.86,-141.71"/>
<polygon fill="#63b8ff" stroke="#63b8ff" points="691.15,-138.21 680.71,-140.04 690.01,-145.12 691.15,-138.21"/>
</a>
</g>
</g>
<!-- Node22 -->
<g id="Node000022" class="node">
<title>Node22</title>
<g id="a_Node000022"><a xlink:title=" ">
<polygon fill="#e0e0e0" stroke="#999999" points="946,-140 890,-140 890,-121 946,-121 946,-140"/>
<text text-anchor="middle" x="918" y="-128" font-family="Helvetica,sans-Serif" font-size="10.00">stddef.h</text>
</a>
</g>
</g>
<!-- Node9&#45;&gt;Node22 -->
<g id="edge28_Node000009_Node000022" class="edge">
<title>Node9&#45;&gt;Node22</title>
<g id="a_edge28_Node000009_Node000022"><a xlink:title=" ">
<path fill="none" stroke="#63b8ff" d="M944.72,-175.75C940.29,-168.42 933.84,-157.73 928.38,-148.7"/>
<polygon fill="#63b8ff" stroke="#63b8ff" points="931.35,-146.84 923.19,-140.09 925.36,-150.46 931.35,-146.84"/>
</a>
</g>
</g>
<!-- Node11 -->
<g id="Node000011" class="node">
<title>Node11</title>
<g id="a_Node000011"><a xlink:href="_item_8h.html" target="_top" xlink:title=" ">
<polygon fill="white" stroke="#666666" points="1249.5,-19 1134.5,-19 1134.5,0 1249.5,0 1249.5,-19"/>
<text text-anchor="middle" x="1192" y="-7" font-family="Helvetica,sans-Serif" font-size="10.00">Kit/Container/Item.h</text>
</a>
</g>
</g>
<!-- Node10&#45;&gt;Node11 -->
<g id="edge15_Node000010_Node000011" class="edge">
<title>Node10&#45;&gt;Node11</title>
<g id="a_edge15_Node000010_Node000011"><a xlink:title=" ">
<path fill="none" stroke="#63b8ff" d="M1192,-60.37C1192,-52.25 1192,-39.81 1192,-29.39"/>
<polygon fill="#63b8ff" stroke="#63b8ff" points="1195.5,-29.17 1192,-19.17 1188.5,-29.17 1195.5,-29.17"/>
</a>
</g>
</g>
<!-- Node13 -->
<g id="Node000013" class="node">
<title>Node13</title>
<g id="a_Node000013"><a xlink:href="_key_8h.html" target="_top" xlink:title=" ">
<polygon fill="white" stroke="#666666" points="482.5,-79.5 373.5,-79.5 373.5,-60.5 482.5,-60.5 482.5,-79.5"/>
<text text-anchor="middle" x="428" y="-67.5" font-family="Helvetica,sans-Serif" font-size="10.00">Kit/Container/Key.h</text>
</a>
</g>
</g>
<!-- Node12&#45;&gt;Node13 -->
<g id="edge17_Node000012_Node000013" class="edge">
<title>Node12&#45;&gt;Node13</title>
<g id="a_edge17_Node000012_Node000013"><a xlink:title=" ">
<path fill="none" stroke="#63b8ff" d="M700.61,-120.99C643.32,-110.49 545.92,-92.62 484.37,-81.34"/>
<polygon fill="#63b8ff" stroke="#63b8ff" points="484.91,-77.88 474.44,-79.52 483.65,-84.76 484.91,-77.88"/>
</a>
</g>
</g>
<!-- Node17 -->
<g id="Node000017" class="node">
<title>Node17</title>
<g id="a_Node000017"><a xlink:href="printfchecker_8h.html" target="_top" xlink:title="This file contains macro that enables the GCC (and Clang) compiler to validate printf flags with thei...">
<polygon fill="white" stroke="#666666" points="762.5,-79.5 617.5,-79.5 617.5,-60.5 762.5,-60.5 762.5,-79.5"/>
<text text-anchor="middle" x="690" y="-67.5" font-family="Helvetica,sans-Serif" font-size="10.00">Kit/System/printfchecker.h</text>
</a>
</g>
</g>
<!-- Node12&#45;&gt;Node17 -->
<g id="edge21_Node000012_Node000017" class="edge">
<title>Node12&#45;&gt;Node17</title>
<g id="a_edge21_Node000012_Node000017"><a xlink:title=" ">
<path fill="none" stroke="#63b8ff" d="M738.59,-120.87C729.92,-111.97 716.2,-97.89 705.54,-86.95"/>
<polygon fill="#63b8ff" stroke="#63b8ff" points="707.93,-84.39 698.45,-79.67 702.92,-89.27 707.93,-84.39"/>
</a>
</g>
</g>
<!-- Node18 -->
<g id="Node000018" class="node">
<title>Node18</title>
<g id="a_Node000018"><a xlink:title=" ">
<polygon fill="#e0e0e0" stroke="#999999" points="837,-79.5 781,-79.5 781,-60.5 837,-60.5 837,-79.5"/>
<text text-anchor="middle" x="809" y="-67.5" font-family="Helvetica,sans-Serif" font-size="10.00">stdarg.h</text>
</a>
</g>
</g>
<!-- Node12&#45;&gt;Node18 -->
<g id="edge22_Node000012_Node000018" class="edge">
<title>Node12&#45;&gt;Node18</title>
<g id="a_edge22_Node000012_Node000018"><a xlink:title=" ">
<path fill="none" stroke="#63b8ff" d="M756.15,-120.87C765.67,-111.88 780.8,-97.61 792.43,-86.64"/>
<polygon fill="#63b8ff" stroke="#63b8ff" points="794.94,-89.08 799.81,-79.67 790.14,-83.98 794.94,-89.08"/>
</a>
</g>
</g>
<!-- Node19 -->
<g id="Node000019" class="node">
<title>Node19</title>
<g id="a_Node000019"><a xlink:title=" ">
<polygon fill="#e0e0e0" stroke="#999999" points="599,-79.5 539,-79.5 539,-60.5 599,-60.5 599,-79.5"/>
<text text-anchor="middle" x="569" y="-67.5" font-family="Helvetica,sans-Serif" font-size="10.00">iostream</text>
</a>
</g>
</g>
<!-- Node12&#45;&gt;Node19 -->
<g id="edge23_Node000012_Node000019" class="edge">
<title>Node12&#45;&gt;Node19</title>
<g id="a_edge23_Node000012_Node000019"><a xlink:title=" ">
<path fill="none" stroke="#63b8ff" d="M719.96,-121C692.09,-112.19 647.42,-97.91 609,-85 606.9,-84.3 604.75,-83.56 602.58,-82.82"/>
<polygon fill="#63b8ff" stroke="#63b8ff" points="603.67,-79.5 593.08,-79.54 601.39,-86.11 603.67,-79.5"/>
</a>
</g>
</g>
<!-- Node13&#45;&gt;Node14 -->
<g id="edge18_Node000013_Node000014" class="edge">
<title>Node13&#45;&gt;Node14</title>
<g id="a_edge18_Node000013_Node000014"><a xlink:title=" ">
<path fill="none" stroke="#63b8ff" d="M466.94,-60.49C476.72,-58.52 487.22,-56.55 497,-55 624.76,-34.73 777.64,-19.91 846.79,-13.71"/>
<polygon fill="#63b8ff" stroke="#63b8ff" points="847.5,-17.16 857.15,-12.79 846.88,-10.19 847.5,-17.16"/>
</a>
</g>
</g>
<!-- Node13&#45;&gt;Node15 -->
<g id="edge19_Node000013_Node000015" class="edge">
<title>Node13&#45;&gt;Node15</title>
<g id="a_edge19_Node000013_Node000015"><a xlink:title=" ">
<path fill="none" stroke="#63b8ff" d="M412.95,-60.37C396.38,-50.86 369.5,-35.45 350.01,-24.27"/>
<polygon fill="#63b8ff" stroke="#63b8ff" points="351.53,-21.11 341.11,-19.17 348.05,-27.18 351.53,-21.11"/>
</a>
</g>
</g>
<!-- Node16 -->
<g id="Node000016" class="node">
<title>Node16</title>
<g id="a_Node000016"><a xlink:title=" ">
<polygon fill="#e0e0e0" stroke="#999999" points="454.5,-19 401.5,-19 401.5,0 454.5,0 454.5,-19"/>
<text text-anchor="middle" x="428" y="-7" font-family="Helvetica,sans-Serif" font-size="10.00">limits.h</text>
</a>
</g>
</g>
<!-- Node13&#45;&gt;Node16 -->
<g id="edge20_Node000013_Node000016" class="edge">
<title>Node13&#45;&gt;Node16</title>
<g id="a_edge20_Node000013_Node000016"><a xlink:title=" ">
<path fill="none" stroke="#63b8ff" d="M428,-60.37C428,-52.25 428,-39.81 428,-29.39"/>
<polygon fill="#63b8ff" stroke="#63b8ff" points="431.5,-29.17 428,-19.17 424.5,-29.17 431.5,-29.17"/>
</a>
</g>
</g>
<!-- Node20&#45;&gt;Node10 -->
<g id="edge25_Node000020_Node000010" class="edge">
<title>Node20&#45;&gt;Node10</title>
<g id="a_edge25_Node000020_Node000010"><a xlink:title=" ">
<path fill="none" stroke="#63b8ff" d="M1109.31,-120.87C1125,-111.41 1150.4,-96.09 1168.91,-84.92"/>
<polygon fill="#63b8ff" stroke="#63b8ff" points="1170.87,-87.83 1177.63,-79.67 1167.26,-81.83 1170.87,-87.83"/>
</a>
</g>
</g>
<!-- Node20&#45;&gt;Node14 -->
<g id="edge26_Node000020_Node000014" class="edge">
<title>Node20&#45;&gt;Node14</title>
<g id="a_edge26_Node000020_Node000014"><a xlink:title=" ">
<path fill="none" stroke="#63b8ff" d="M1084.24,-120.89C1065.48,-106.14 1025.22,-75.64 988,-55 965.17,-42.34 938,-30.83 917.16,-22.69"/>
<polygon fill="#63b8ff" stroke="#63b8ff" points="918.37,-19.4 907.78,-19.08 915.86,-25.93 918.37,-19.4"/>
</a>
</g>
</g>
<!-- Node23&#45;&gt;Node2 -->
<g id="edge31_Node000023_Node000002" class="edge">
<title>Node23&#45;&gt;Node2</title>
<g id="a_edge31_Node000023_Node000002"><a xlink:title=" ">
<path fill="none" stroke="#63b8ff" d="M531.16,-175.98C473.8,-165.99 379.34,-149.52 322.86,-139.67"/>
<polygon fill="#63b8ff" stroke="#63b8ff" points="323.22,-136.18 312.77,-137.91 322.02,-143.08 323.22,-136.18"/>
</a>
</g>
</g>
<!-- Node23&#45;&gt;Node12 -->
<g id="edge32_Node000023_Node000012" class="edge">
<title>Node23&#45;&gt;Node12</title>
<g id="a_edge32_Node000023_Node000012"><a xlink:title=" ">
<path fill="none" stroke="#63b8ff" d="M606.83,-175.98C634.87,-167.09 679.05,-153.07 710.3,-143.15"/>
<polygon fill="#63b8ff" stroke="#63b8ff" points="711.49,-146.44 719.96,-140.08 709.37,-139.77 711.49,-146.44"/>
</a>
</g>
</g>
<!-- Node23&#45;&gt;Node21 -->
<g id="edge36_Node000023_Node000021" class="edge">
<title>Node23&#45;&gt;Node21</title>
<g id="a_edge36_Node000023_Node000021"><a xlink:title=" ">
<path fill="none" stroke="#63b8ff" d="M588.09,-175.75C595.16,-168.11 605.59,-156.82 614.15,-147.56"/>
<polygon fill="#63b8ff" stroke="#63b8ff" points="616.84,-149.81 621.06,-140.09 611.7,-145.06 616.84,-149.81"/>
</a>
</g>
</g>
<!-- Node24 -->
<g id="Node000024" class="node">
<title>Node24</title>
<g id="a_Node000024"><a xlink:href="_mutex_8h.html" target="_top" xlink:title=" ">
<polygon fill="white" stroke="#666666" points="482.5,-140 369.5,-140 369.5,-121 482.5,-121 482.5,-140"/>
<text text-anchor="middle" x="426" y="-128" font-family="Helvetica,sans-Serif" font-size="10.00">Kit/System/Mutex.h</text>
</a>
</g>
</g>
<!-- Node23&#45;&gt;Node24 -->
<g id="edge33_Node000023_Node000024" class="edge">
<title>Node23&#45;&gt;Node24</title>
<g id="a_edge33_Node000023_Node000024"><a xlink:title=" ">
<path fill="none" stroke="#63b8ff" d="M555.26,-175.98C529.63,-167.16 489.37,-153.31 460.59,-143.41"/>
<polygon fill="#63b8ff" stroke="#63b8ff" points="461.53,-140.03 450.94,-140.08 459.25,-146.65 461.53,-140.03"/>
</a>
</g>
</g>
<!-- Node24&#45;&gt;Node4 -->
<g id="edge35_Node000024_Node000004" class="edge">
<title>Node24&#45;&gt;Node4</title>
<g id="a_edge35_Node000024_Node000004"><a xlink:title=" ">
<path fill="none" stroke="#63b8ff" d="M397.35,-120.99C363.07,-110.81 305.52,-93.72 267.4,-82.4"/>
<polygon fill="#63b8ff" stroke="#63b8ff" points="268.26,-79.01 257.68,-79.52 266.27,-85.72 268.26,-79.01"/>
</a>
</g>
</g>
<!-- Node24&#45;&gt;Node15 -->
<g id="edge34_Node000024_Node000015" class="edge">
<title>Node24&#45;&gt;Node15</title>
<g id="a_edge34_Node000024_Node000015"><a xlink:title=" ">
<path fill="none" stroke="#63b8ff" d="M385.96,-120.92C366.07,-114.49 343.65,-103.49 331,-85 319.82,-68.66 320.2,-45.29 322.33,-29.1"/>
<polygon fill="#63b8ff" stroke="#63b8ff" points="325.79,-29.66 323.96,-19.22 318.88,-28.52 325.79,-29.66"/>
</a>
</g>
</g>
<!-- Node26 -->
<g id="Node000026" class="node">
<title>Node26</title>
<g id="a_Node000026"><a xlink:href="_d_list_base_8h.html" target="_top" xlink:title=" ">
<polygon fill="white" stroke="#666666" points="1308.5,-140 1167.5,-140 1167.5,-121 1308.5,-121 1308.5,-140"/>
<text text-anchor="middle" x="1238" y="-128" font-family="Helvetica,sans-Serif" font-size="10.00">Kit/Container/DListBase.h</text>
</a>
</g>
</g>
<!-- Node25&#45;&gt;Node26 -->
<g id="edge39_Node000025_Node000026" class="edge">
<title>Node25&#45;&gt;Node26</title>
<g id="a_edge39_Node000025_Node000026"><a xlink:title=" ">
<path fill="none" stroke="#63b8ff" d="M1143.16,-175.98C1161.25,-167.5 1189.28,-154.35 1210.19,-144.54"/>
<polygon fill="#63b8ff" stroke="#63b8ff" points="1211.95,-147.59 1219.51,-140.17 1208.97,-141.25 1211.95,-147.59"/>
</a>
</g>
</g>
<!-- Node26&#45;&gt;Node10 -->
<g id="edge40_Node000026_Node000010" class="edge">
<title>Node26&#45;&gt;Node10</title>
<g id="a_edge40_Node000026_Node000010"><a xlink:title=" ">
<path fill="none" stroke="#63b8ff" d="M1231.21,-120.87C1224.35,-112.14 1213.57,-98.43 1205.05,-87.59"/>
<polygon fill="#63b8ff" stroke="#63b8ff" points="1207.75,-85.36 1198.82,-79.67 1202.25,-89.69 1207.75,-85.36"/>
</a>
</g>
</g>
<!-- Node27&#45;&gt;Node9 -->
<g id="edge45_Node000027_Node000009" class="edge">
<title>Node27&#45;&gt;Node9</title>
<g id="a_edge45_Node000027_Node000009"><a xlink:title=" ">
<path fill="none" stroke="#63b8ff" d="M1113.67,-230.98C1080.51,-221.97 1028,-207.7 991.44,-197.76"/>
<polygon fill="#63b8ff" stroke="#63b8ff" points="992.14,-194.33 981.58,-195.08 990.31,-201.08 992.14,-194.33"/>
</a>
</g>
</g>
<!-- Node27&#45;&gt;Node14 -->
<g id="edge46_Node000027_Node000014" class="edge">
<title>Node27&#45;&gt;Node14</title>
<g id="a_edge46_Node000027_Node000014"><a xlink:title=" ">
<path fill="none" stroke="#63b8ff" d="M1179.38,-230.95C1220.72,-218.61 1288.25,-191.44 1318,-140 1339.91,-102.13 1290.01,-68 1267,-55 1208.31,-21.84 1004.94,-13.31 920.84,-11.18"/>
<polygon fill="#63b8ff" stroke="#63b8ff" points="920.81,-7.68 910.73,-10.94 920.64,-14.68 920.81,-7.68"/>
</a>
</g>
</g>
<!-- Node27&#45;&gt;Node20 -->
<g id="edge44_Node000027_Node000020" class="edge">
<title>Node27&#45;&gt;Node20</title>
<g id="a_edge44_Node000027_Node000020"><a xlink:title=" ">
<path fill="none" stroke="#63b8ff" d="M1159.68,-230.97C1178.23,-219.05 1206.25,-196.56 1193,-176 1182.84,-160.23 1165.57,-149.98 1148.34,-143.35"/>
<polygon fill="#63b8ff" stroke="#63b8ff" points="1149.41,-140.02 1138.81,-140.03 1147.1,-146.63 1149.41,-140.02"/>
</a>
</g>
</g>
<!-- Node28&#45;&gt;Node14 -->
<g id="edge48_Node000028_Node000014" class="edge">
<title>Node28&#45;&gt;Node14</title>
<g id="a_edge48_Node000028_Node000014"><a xlink:title=" ">
<path fill="none" stroke="#63b8ff" d="M178.12,-56.32C181.46,-55.84 184.76,-55.4 188,-55 438.72,-24.3 743.01,-14.08 847.06,-11.35"/>
<polygon fill="#63b8ff" stroke="#63b8ff" points="847.44,-14.85 857.35,-11.09 847.26,-7.85 847.44,-14.85"/>
</a>
</g>
</g>
<!-- Node28&#45;&gt;Node15 -->
<g id="edge49_Node000028_Node000015" class="edge">
<title>Node28&#45;&gt;Node15</title>
<g id="a_edge49_Node000028_Node000015"><a xlink:title=" ">
<path fill="none" stroke="#63b8ff" d="M162.5,-54.99C201.73,-44.31 254.78,-29.88 289.66,-20.39"/>
<polygon fill="#63b8ff" stroke="#63b8ff" points="290.7,-23.73 299.43,-17.73 288.87,-16.98 290.7,-23.73"/>
</a>
</g>
</g>
<!-- Node29 -->
<g id="Node000029" class="node">
<title>Node29</title>
<g id="a_Node000029"><a xlink:title=" ">
<polygon fill="#e0e0e0" stroke="#999999" points="136,-19 86,-19 86,0 136,0 136,-19"/>
<text text-anchor="middle" x="111" y="-7" font-family="Helvetica,sans-Serif" font-size="10.00">atomic</text>
</a>
</g>
</g>
<!-- Node28&#45;&gt;Node29 -->
<g id="edge50_Node000028_Node000029" class="edge">
<title>Node28&#45;&gt;Node29</title>
<g id="a_edge50_Node000028_Node000029"><a xlink:title=" ">
<path fill="none" stroke="#63b8ff" d="M111,-54.84C111,-47.21 111,-37.7 111,-29.45"/>
<polygon fill="#63b8ff" stroke="#63b8ff" points="114.5,-29.27 111,-19.27 107.5,-29.27 114.5,-29.27"/>
</a>
</g>
</g>
<!-- Node30&#45;&gt;Node2 -->
<g id="edge52_Node000030_Node000002" class="edge">
<title>Node30&#45;&gt;Node2</title>
<g id="a_edge52_Node000030_Node000002"><a xlink:title=" ">
<path fill="none" stroke="#63b8ff" d="M840.78,-346.89C729.7,-341.43 495.96,-327.41 467,-305 418.62,-267.56 463.42,-218.06 419,-176 404.94,-162.68 358.8,-149.79 322.7,-141.34"/>
<polygon fill="#63b8ff" stroke="#63b8ff" points="323.34,-137.9 312.81,-139.08 321.78,-144.73 323.34,-137.9"/>
</a>
</g>
</g>
<!-- Node30&#45;&gt;Node4 -->
<g id="edge53_Node000030_Node000004" class="edge">
<title>Node30&#45;&gt;Node4</title>
<g id="a_edge53_Node000030_Node000004"><a xlink:title=" ">
<path fill="none" stroke="#63b8ff" d="M874.18,-340.99C796.95,-314.27 554.45,-228.54 361,-140 340.35,-130.55 285.89,-101.58 253.74,-84.33"/>
<polygon fill="#63b8ff" stroke="#63b8ff" points="255.39,-81.24 244.93,-79.59 252.08,-87.41 255.39,-81.24"/>
</a>
</g>
</g>
<!-- Node30&#45;&gt;Node7 -->
<g id="edge61_Node000030_Node000007" class="edge">
<title>Node30&#45;&gt;Node7</title>
<g id="a_edge61_Node000030_Node000007"><a xlink:title=" ">
<path fill="none" stroke="#63b8ff" d="M899,-340.75C899,-333.8 899,-323.85 899,-315.13"/>
<polygon fill="#63b8ff" stroke="#63b8ff" points="902.5,-315.09 899,-305.09 895.5,-315.09 902.5,-315.09"/>
</a>
</g>
</g>
<!-- Node30&#45;&gt;Node10 -->
<g id="edge60_Node000030_Node000010" class="edge">
<title>Node30&#45;&gt;Node10</title>
<g id="a_edge60_Node000030_Node000010"><a xlink:title=" ">
<path fill="none" stroke="#63b8ff" d="M917.77,-340.98C947.19,-327.87 1006.17,-302.52 1058,-286 1122.91,-265.31 1147.51,-283.2 1207,-250 1267.65,-216.16 1291.28,-204.11 1318,-140 1330.91,-109.04 1295.48,-91.57 1258.94,-81.96"/>
<polygon fill="#63b8ff" stroke="#63b8ff" points="1259.7,-78.54 1249.15,-79.56 1258.04,-85.34 1259.7,-78.54"/>
</a>
</g>
</g>
<!-- Node31 -->
<g id="Node000031" class="node">
<title>Node31</title>
<g id="a_Node000031"><a xlink:href="_i_runnable_8h.html" target="_top" xlink:title=" ">
<polygon fill="white" stroke="#666666" points="1197.5,-305 1066.5,-305 1066.5,-286 1197.5,-286 1197.5,-305"/>
<text text-anchor="middle" x="1132" y="-293" font-family="Helvetica,sans-Serif" font-size="10.00">Kit/System/IRunnable.h</text>
</a>
</g>
</g>
<!-- Node30&#45;&gt;Node31 -->
<g id="edge54_Node000030_Node000031" class="edge">
<title>Node30&#45;&gt;Node31</title>
<g id="a_edge54_Node000030_Node000031"><a xlink:title=" ">
<path fill="none" stroke="#63b8ff" d="M936.44,-340.98C976.65,-331.84 1040.68,-317.27 1084.44,-307.32"/>
<polygon fill="#63b8ff" stroke="#63b8ff" points="1085.3,-310.71 1094.27,-305.08 1083.74,-303.89 1085.3,-310.71"/>
</a>
</g>
</g>
<!-- Node32 -->
<g id="Node000032" class="node">
<title>Node32</title>
<g id="a_Node000032"><a xlink:href="_i_signable_8h.html" target="_top" xlink:title=" ">
<polygon fill="white" stroke="#666666" points="1342.5,-305 1215.5,-305 1215.5,-286 1342.5,-286 1342.5,-305"/>
<text text-anchor="middle" x="1279" y="-293" font-family="Helvetica,sans-Serif" font-size="10.00">Kit/System/ISignable.h</text>
</a>
</g>
</g>
<!-- Node30&#45;&gt;Node32 -->
<g id="edge55_Node000030_Node000032" class="edge">
<title>Node30&#45;&gt;Node32</title>
<g id="a_edge55_Node000030_Node000032"><a xlink:title=" ">
<path fill="none" stroke="#63b8ff" d="M957.13,-341.39C1024.54,-331.99 1135.66,-316.49 1208.09,-306.39"/>
<polygon fill="#63b8ff" stroke="#63b8ff" points="1208.63,-309.85 1218.05,-305 1207.66,-302.92 1208.63,-309.85"/>
</a>
</g>
</g>
<!-- Node33 -->
<g id="Node000033" class="node">
<title>Node33</title>
<g id="a_Node000033"><a xlink:href="_tls_8h.html" target="_top" xlink:title=" ">
<polygon fill="white" stroke="#666666" points="765,-195 669,-195 669,-176 765,-176 765,-195"/>
<text text-anchor="middle" x="717" y="-183" font-family="Helvetica,sans-Serif" font-size="10.00">Kit/System/Tls.h</text>
</a>
</g>
</g>
<!-- Node30&#45;&gt;Node33 -->
<g id="edge56_Node000030_Node000033" class="edge">
<title>Node30&#45;&gt;Node33</title>
<g id="a_edge56_Node000030_Node000033"><a xlink:title=" ">
<path fill="none" stroke="#63b8ff" d="M889.21,-340.74C859.84,-314.42 772.11,-235.85 734.47,-202.14"/>
<polygon fill="#63b8ff" stroke="#63b8ff" points="736.62,-199.37 726.83,-195.31 731.95,-204.59 736.62,-199.37"/>
</a>
</g>
</g>
<!-- Node34 -->
<g id="Node000034" class="node">
<title>Node34</title>
<g id="a_Node000034"><a xlink:href="_traverser_status_8h.html" target="_top" xlink:title=" ">
<polygon fill="white" stroke="#666666" points="1503.5,-305 1360.5,-305 1360.5,-286 1503.5,-286 1503.5,-305"/>
<text text-anchor="middle" x="1432" y="-293" font-family="Helvetica,sans-Serif" font-size="10.00">Kit/Type/TraverserStatus.h</text>
</a>
</g>
</g>
<!-- Node30&#45;&gt;Node34 -->
<g id="edge59_Node000030_Node000034" class="edge">
<title>Node30&#45;&gt;Node34</title>
<g id="a_edge59_Node000030_Node000034"><a xlink:title=" ">
<path fill="none" stroke="#63b8ff" d="M957.3,-343.92C1041.62,-335.82 1202.85,-320.21 1350.33,-305.16"/>
<polygon fill="#63b8ff" stroke="#63b8ff" points="1350.88,-308.63 1360.47,-304.13 1350.17,-301.66 1350.88,-308.63"/>
</a>
</g>
</g>
<!-- Node33&#45;&gt;Node2 -->
<g id="edge57_Node000033_Node000002" class="edge">
<title>Node33&#45;&gt;Node2</title>
<g id="a_edge57_Node000033_Node000002"><a xlink:title=" ">
<path fill="none" stroke="#63b8ff" d="M668.81,-177.2C665.83,-176.78 662.88,-176.38 660,-176 538.56,-159.91 395.09,-144.14 322.73,-136.42"/>
<polygon fill="#63b8ff" stroke="#63b8ff" points="322.9,-132.92 312.58,-135.34 322.16,-139.88 322.9,-132.92"/>
</a>
</g>
</g>
<!-- Node33&#45;&gt;Node14 -->
<g id="edge58_Node000033_Node000014" class="edge">
<title>Node33&#45;&gt;Node14</title>
<g id="a_edge58_Node000033_Node000014"><a xlink:title=" ">
<path fill="none" stroke="#63b8ff" d="M740.8,-175.98C759.58,-168.47 785.74,-156.2 805,-140 841.83,-109.03 866.34,-56.28 877.34,-28.64"/>
<polygon fill="#63b8ff" stroke="#63b8ff" points="880.7,-29.65 881.01,-19.06 874.17,-27.15 880.7,-29.65"/>
</a>
</g>
</g>
<!-- Node35&#45;&gt;Node2 -->
<g id="edge63_Node000035_Node000002" class="edge">
<title>Node35&#45;&gt;Node2</title>
<g id="a_edge63_Node000035_Node000002"><a xlink:title=" ">
<path fill="none" stroke="#63b8ff" d="M326.36,-175.98C317.49,-168.15 304.13,-156.34 293.39,-146.86"/>
<polygon fill="#63b8ff" stroke="#63b8ff" points="295.63,-144.17 285.82,-140.17 290.99,-149.41 295.63,-144.17"/>
</a>
</g>
</g>
<!-- Node35&#45;&gt;Node4 -->
<g id="edge64_Node000035_Node000004" class="edge">
<title>Node35&#45;&gt;Node4</title>
<g id="a_edge64_Node000035_Node000004"><a xlink:title=" ">
<path fill="none" stroke="#63b8ff" d="M294.75,-178.08C271.96,-172.22 245.41,-161.09 231,-140 220.98,-125.33 221.89,-104.52 224.44,-89.59"/>
<polygon fill="#63b8ff" stroke="#63b8ff" points="227.92,-90.03 226.55,-79.53 221.07,-88.6 227.92,-90.03"/>
</a>
</g>
</g>
<!-- Node35&#45;&gt;Node14 -->
<g id="edge65_Node000035_Node000014" class="edge">
<title>Node35&#45;&gt;Node14</title>
<g id="a_edge65_Node000035_Node000014"><a xlink:title=" ">
<path fill="none" stroke="#63b8ff" d="M377.33,-182.2C411.68,-178.26 459.97,-167.76 492,-140 523.27,-112.9 496.75,-79.64 530,-55 579.65,-18.21 766.98,-11.73 847.19,-10.67"/>
<polygon fill="#63b8ff" stroke="#63b8ff" points="847.36,-14.17 857.32,-10.56 847.28,-7.17 847.36,-14.17"/>
</a>
</g>
</g>
</g>
</svg>
