<?xml version="1.0" encoding="UTF-8" standalone="no"?>
<!DOCTYPE svg PUBLIC "-//W3C//DTD SVG 1.1//EN"
 "http://www.w3.org/Graphics/SVG/1.1/DTD/svg11.dtd">
<!-- Generated by graphviz version 2.43.0 (0)
 -->
<!-- Title: Kit/Itc/SyncReturnHandler.h Pages: 1 -->
<svg width="1384pt" height="412pt"
 viewBox="0.00 0.00 1384.00 412.00" xmlns="http://www.w3.org/2000/svg" xmlns:xlink="http://www.w3.org/1999/xlink">
<g id="graph0" class="graph" transform="scale(1 1) rotate(0) translate(4 408)">
<title>Kit/Itc/SyncReturnHandler.h</title>
<!-- Node1 -->
<g id="Node000001" class="node">
<title>Node1</title>
<g id="a_Node000001"><a xlink:title=" ">
<polygon fill="#999999" stroke="#666666" points="341.5,-404 191.5,-404 191.5,-385 341.5,-385 341.5,-404"/>
<text text-anchor="middle" x="266.5" y="-392" font-family="Helvetica,sans-Serif" font-size="10.00">Kit/Itc/SyncReturnHandler.h</text>
</a>
</g>
</g>
<!-- Node2 -->
<g id="Node000002" class="node">
<title>Node2</title>
<g id="a_Node000002"><a xlink:href="_i_return_handler_8h.html" target="_top" xlink:title=" ">
<polygon fill="white" stroke="#666666" points="238.5,-349 108.5,-349 108.5,-330 238.5,-330 238.5,-349"/>
<text text-anchor="middle" x="173.5" y="-337" font-family="Helvetica,sans-Serif" font-size="10.00">Kit/Itc/IReturnHandler.h</text>
</a>
</g>
</g>
<!-- Node1&#45;&gt;Node2 -->
<g id="edge1_Node000001_Node000002" class="edge">
<title>Node1&#45;&gt;Node2</title>
<g id="a_edge1_Node000001_Node000002"><a xlink:title=" ">
<path fill="none" stroke="#63b8ff" d="M251.56,-384.98C237,-376.69 214.63,-363.94 197.57,-354.22"/>
<polygon fill="#63b8ff" stroke="#63b8ff" points="199.14,-351.08 188.71,-349.17 195.67,-357.16 199.14,-351.08"/>
</a>
</g>
</g>
<!-- Node3 -->
<g id="Node000003" class="node">
<title>Node3</title>
<g id="a_Node000003"><a xlink:href="_i_signable_8h.html" target="_top" xlink:title=" ">
<polygon fill="white" stroke="#666666" points="127,-294 0,-294 0,-275 127,-275 127,-294"/>
<text text-anchor="middle" x="63.5" y="-282" font-family="Helvetica,sans-Serif" font-size="10.00">Kit/System/ISignable.h</text>
</a>
</g>
</g>
<!-- Node1&#45;&gt;Node3 -->
<g id="edge2_Node000001_Node000003" class="edge">
<title>Node1&#45;&gt;Node3</title>
<g id="a_edge2_Node000001_Node000003"><a xlink:title=" ">
<path fill="none" stroke="#63b8ff" d="M266.48,-384.71C265.96,-371 262.87,-344.57 247.5,-330 231.4,-314.74 181.12,-303.2 137.18,-295.7"/>
<polygon fill="#63b8ff" stroke="#63b8ff" points="137.49,-292.2 127.05,-294.02 136.34,-299.11 137.49,-292.2"/>
</a>
</g>
</g>
<!-- Node4 -->
<g id="Node000004" class="node">
<title>Node4</title>
<g id="a_Node000004"><a xlink:href="_thread_8h.html" target="_top" xlink:title=" ">
<polygon fill="white" stroke="#666666" points="613.5,-349 497.5,-349 497.5,-330 613.5,-330 613.5,-349"/>
<text text-anchor="middle" x="555.5" y="-337" font-family="Helvetica,sans-Serif" font-size="10.00">Kit/System/Thread.h</text>
</a>
</g>
</g>
<!-- Node1&#45;&gt;Node4 -->
<g id="edge3_Node000001_Node000004" class="edge">
<title>Node1&#45;&gt;Node4</title>
<g id="a_edge3_Node000001_Node000004"><a xlink:title=" ">
<path fill="none" stroke="#63b8ff" d="M312.93,-384.98C363.45,-375.72 444.24,-360.9 498.55,-350.94"/>
<polygon fill="#63b8ff" stroke="#63b8ff" points="499.5,-354.33 508.7,-349.08 498.24,-347.44 499.5,-354.33"/>
</a>
</g>
</g>
<!-- Node4&#45;&gt;Node3 -->
<g id="edge7_Node000004_Node000003" class="edge">
<title>Node4&#45;&gt;Node3</title>
<g id="a_edge7_Node000004_Node000003"><a xlink:title=" ">
<path fill="none" stroke="#63b8ff" d="M497.39,-332.56C418.29,-324.44 272.02,-309.23 137.2,-294.18"/>
<polygon fill="#63b8ff" stroke="#63b8ff" points="137.43,-290.68 127.1,-293.05 136.65,-297.64 137.43,-290.68"/>
</a>
</g>
</g>
<!-- Node5 -->
<g id="Node000005" class="node">
<title>Node5</title>
<g id="a_Node000005"><a xlink:title=" ">
<polygon fill="#e0e0e0" stroke="#999999" points="1084,-129 1011,-129 1011,-110 1084,-110 1084,-129"/>
<text text-anchor="middle" x="1047.5" y="-117" font-family="Helvetica,sans-Serif" font-size="10.00">kit_config.h</text>
</a>
</g>
</g>
<!-- Node4&#45;&gt;Node5 -->
<g id="edge4_Node000004_Node000005" class="edge">
<title>Node4&#45;&gt;Node5</title>
<g id="a_edge4_Node000004_Node000005"><a xlink:title=" ">
<path fill="none" stroke="#63b8ff" d="M580.23,-329.93C641.93,-308.25 807.14,-248.34 938.5,-184 969.51,-168.81 1003.67,-148.24 1025.33,-134.69"/>
<polygon fill="#63b8ff" stroke="#63b8ff" points="1027.49,-137.46 1034.08,-129.17 1023.76,-131.54 1027.49,-137.46"/>
</a>
</g>
</g>
<!-- Node6 -->
<g id="Node000006" class="node">
<title>Node6</title>
<g id="a_Node000006"><a xlink:title=" ">
<polygon fill="#e0e0e0" stroke="#999999" points="1376,-74 1311,-74 1311,-55 1376,-55 1376,-74"/>
<text text-anchor="middle" x="1343.5" y="-62" font-family="Helvetica,sans-Serif" font-size="10.00">kit_map.h</text>
</a>
</g>
</g>
<!-- Node4&#45;&gt;Node6 -->
<g id="edge5_Node000004_Node000006" class="edge">
<title>Node4&#45;&gt;Node6</title>
<g id="a_edge5_Node000004_Node000006"><a xlink:title=" ">
<path fill="none" stroke="#63b8ff" d="M613.83,-336.38C745.15,-331.26 1060.59,-316.93 1164.5,-294 1242.45,-276.8 1332.5,-310.32 1332.5,-230.5 1332.5,-230.5 1332.5,-230.5 1332.5,-173.5 1332.5,-142.03 1337.18,-105.66 1340.44,-84.18"/>
<polygon fill="#63b8ff" stroke="#63b8ff" points="1343.92,-84.57 1342.02,-74.15 1337,-83.48 1343.92,-84.57"/>
</a>
</g>
</g>
<!-- Node7 -->
<g id="Node000007" class="node">
<title>Node7</title>
<g id="a_Node000007"><a xlink:href="_i_runnable_8h.html" target="_top" xlink:title=" ">
<polygon fill="white" stroke="#666666" points="1155,-294 1024,-294 1024,-275 1155,-275 1155,-294"/>
<text text-anchor="middle" x="1089.5" y="-282" font-family="Helvetica,sans-Serif" font-size="10.00">Kit/System/IRunnable.h</text>
</a>
</g>
</g>
<!-- Node4&#45;&gt;Node7 -->
<g id="edge6_Node000004_Node000007" class="edge">
<title>Node4&#45;&gt;Node7</title>
<g id="a_edge6_Node000004_Node000007"><a xlink:title=" ">
<path fill="none" stroke="#63b8ff" d="M613.57,-332.96C699.92,-324.69 867.29,-308.52 1009.5,-294 1010.79,-293.87 1012.09,-293.73 1013.4,-293.6"/>
<polygon fill="#63b8ff" stroke="#63b8ff" points="1014,-297.06 1023.58,-292.55 1013.28,-290.09 1014,-297.06"/>
</a>
</g>
</g>
<!-- Node8 -->
<g id="Node000008" class="node">
<title>Node8</title>
<g id="a_Node000008"><a xlink:href="_tls_8h.html" target="_top" xlink:title=" ">
<polygon fill="white" stroke="#666666" points="1095.5,-184 999.5,-184 999.5,-165 1095.5,-165 1095.5,-184"/>
<text text-anchor="middle" x="1047.5" y="-172" font-family="Helvetica,sans-Serif" font-size="10.00">Kit/System/Tls.h</text>
</a>
</g>
</g>
<!-- Node4&#45;&gt;Node8 -->
<g id="edge8_Node000004_Node000008" class="edge">
<title>Node4&#45;&gt;Node8</title>
<g id="a_edge8_Node000004_Node000008"><a xlink:title=" ">
<path fill="none" stroke="#63b8ff" d="M613.67,-338.37C713.67,-337.16 913.03,-330.13 971.5,-294 1009.14,-270.74 1031.55,-221.11 1041.45,-194.04"/>
<polygon fill="#63b8ff" stroke="#63b8ff" points="1044.87,-194.86 1044.84,-184.27 1038.26,-192.57 1044.87,-194.86"/>
</a>
</g>
</g>
<!-- Node10 -->
<g id="Node000010" class="node">
<title>Node10</title>
<g id="a_Node000010"><a xlink:href="_traverser_status_8h.html" target="_top" xlink:title=" ">
<polygon fill="white" stroke="#666666" points="288,-294 145,-294 145,-275 288,-275 288,-294"/>
<text text-anchor="middle" x="216.5" y="-282" font-family="Helvetica,sans-Serif" font-size="10.00">Kit/Type/TraverserStatus.h</text>
</a>
</g>
</g>
<!-- Node4&#45;&gt;Node10 -->
<g id="edge11_Node000004_Node000010" class="edge">
<title>Node4&#45;&gt;Node10</title>
<g id="a_edge11_Node000004_Node000010"><a xlink:title=" ">
<path fill="none" stroke="#63b8ff" d="M501.03,-329.98C441.07,-320.61 344.75,-305.55 281.05,-295.59"/>
<polygon fill="#63b8ff" stroke="#63b8ff" points="281.53,-292.12 271.11,-294.04 280.45,-299.04 281.53,-292.12"/>
</a>
</g>
</g>
<!-- Node11 -->
<g id="Node000011" class="node">
<title>Node11</title>
<g id="a_Node000011"><a xlink:href="_list_item_8h.html" target="_top" xlink:title=" ">
<polygon fill="white" stroke="#666666" points="335.5,-74 203.5,-74 203.5,-55 335.5,-55 335.5,-74"/>
<text text-anchor="middle" x="269.5" y="-62" font-family="Helvetica,sans-Serif" font-size="10.00">Kit/Container/ListItem.h</text>
</a>
</g>
</g>
<!-- Node4&#45;&gt;Node11 -->
<g id="edge12_Node000004_Node000011" class="edge">
<title>Node4&#45;&gt;Node11</title>
<g id="a_edge12_Node000004_Node000011"><a xlink:title=" ">
<path fill="none" stroke="#63b8ff" d="M510.65,-330C425.26,-311.12 241.05,-256.86 164.5,-129 149.01,-103.13 182.74,-86.46 216,-76.72"/>
<polygon fill="#63b8ff" stroke="#63b8ff" points="217.07,-80.05 225.79,-74.03 215.22,-73.3 217.07,-80.05"/>
</a>
</g>
</g>
<!-- Node13 -->
<g id="Node000013" class="node">
<title>Node13</title>
<g id="a_Node000013"><a xlink:href="_string_8h.html" target="_top" xlink:title=" ">
<polygon fill="white" stroke="#666666" points="582,-294 529,-294 529,-275 582,-275 582,-294"/>
<text text-anchor="middle" x="555.5" y="-282" font-family="Helvetica,sans-Serif" font-size="10.00">string.h</text>
</a>
</g>
</g>
<!-- Node4&#45;&gt;Node13 -->
<g id="edge14_Node000004_Node000013" class="edge">
<title>Node4&#45;&gt;Node13</title>
<g id="a_edge14_Node000004_Node000013"><a xlink:title=" ">
<path fill="none" stroke="#63b8ff" d="M555.5,-329.75C555.5,-322.8 555.5,-312.85 555.5,-304.13"/>
<polygon fill="#63b8ff" stroke="#63b8ff" points="559,-304.09 555.5,-294.09 552,-304.09 559,-304.09"/>
</a>
</g>
</g>
<!-- Node8&#45;&gt;Node5 -->
<g id="edge9_Node000008_Node000005" class="edge">
<title>Node8&#45;&gt;Node5</title>
<g id="a_edge9_Node000008_Node000005"><a xlink:title=" ">
<path fill="none" stroke="#63b8ff" d="M1047.5,-164.75C1047.5,-157.8 1047.5,-147.85 1047.5,-139.13"/>
<polygon fill="#63b8ff" stroke="#63b8ff" points="1051,-139.09 1047.5,-129.09 1044,-139.09 1051,-139.09"/>
</a>
</g>
</g>
<!-- Node9 -->
<g id="Node000009" class="node">
<title>Node9</title>
<g id="a_Node000009"><a xlink:title=" ">
<polygon fill="#e0e0e0" stroke="#999999" points="577,-19 524,-19 524,0 577,0 577,-19"/>
<text text-anchor="middle" x="550.5" y="-7" font-family="Helvetica,sans-Serif" font-size="10.00">stdint.h</text>
</a>
</g>
</g>
<!-- Node8&#45;&gt;Node9 -->
<g id="edge10_Node000008_Node000009" class="edge">
<title>Node8&#45;&gt;Node9</title>
<g id="a_edge10_Node000008_Node000009"><a xlink:title=" ">
<path fill="none" stroke="#63b8ff" d="M1061.28,-164.82C1072.32,-156.99 1086.99,-144.35 1093.5,-129 1106.34,-98.72 1115.79,-79.19 1093.5,-55 1089.19,-50.33 709.08,-22.11 587.47,-13.2"/>
<polygon fill="#63b8ff" stroke="#63b8ff" points="587.41,-9.68 577.19,-12.44 586.9,-16.67 587.41,-9.68"/>
</a>
</g>
</g>
<!-- Node12 -->
<g id="Node000012" class="node">
<title>Node12</title>
<g id="a_Node000012"><a xlink:href="_item_8h.html" target="_top" xlink:title=" ">
<polygon fill="white" stroke="#666666" points="327,-19 212,-19 212,0 327,0 327,-19"/>
<text text-anchor="middle" x="269.5" y="-7" font-family="Helvetica,sans-Serif" font-size="10.00">Kit/Container/Item.h</text>
</a>
</g>
</g>
<!-- Node11&#45;&gt;Node12 -->
<g id="edge13_Node000011_Node000012" class="edge">
<title>Node11&#45;&gt;Node12</title>
<g id="a_edge13_Node000011_Node000012"><a xlink:title=" ">
<path fill="none" stroke="#63b8ff" d="M269.5,-54.75C269.5,-47.8 269.5,-37.85 269.5,-29.13"/>
<polygon fill="#63b8ff" stroke="#63b8ff" points="273,-29.09 269.5,-19.09 266,-29.09 273,-29.09"/>
</a>
</g>
</g>
<!-- Node14 -->
<g id="Node000014" class="node">
<title>Node14</title>
<g id="a_Node000014"><a xlink:href="_model_point_base_8h.html" target="_top" xlink:title=" ">
<polygon fill="white" stroke="#666666" points="718,-239 577,-239 577,-220 718,-220 718,-239"/>
<text text-anchor="middle" x="647.5" y="-227" font-family="Helvetica,sans-Serif" font-size="10.00">Kit/Dm/ModelPointBase.h</text>
</a>
</g>
</g>
<!-- Node13&#45;&gt;Node14 -->
<g id="edge15_Node000013_Node000014" class="edge">
<title>Node13&#45;&gt;Node14</title>
<g id="a_edge15_Node000013_Node000014"><a xlink:title=" ">
<path fill="none" stroke="#63b8ff" d="M570.28,-274.98C584.68,-266.69 606.81,-253.94 623.69,-244.22"/>
<polygon fill="#63b8ff" stroke="#63b8ff" points="625.53,-247.19 632.45,-239.17 622.04,-241.13 625.53,-247.19"/>
</a>
</g>
</g>
<!-- Node31 -->
<g id="Node000031" class="node">
<title>Node31</title>
<g id="a_Node000031"><a xlink:href="_observer_8h.html" target="_top" xlink:title=" ">
<polygon fill="white" stroke="#666666" points="498.5,-239 392.5,-239 392.5,-220 498.5,-220 498.5,-239"/>
<text text-anchor="middle" x="445.5" y="-227" font-family="Helvetica,sans-Serif" font-size="10.00">Kit/Dm/Observer.h</text>
</a>
</g>
</g>
<!-- Node13&#45;&gt;Node31 -->
<g id="edge48_Node000013_Node000031" class="edge">
<title>Node13&#45;&gt;Node31</title>
<g id="a_edge48_Node000013_Node000031"><a xlink:title=" ">
<path fill="none" stroke="#63b8ff" d="M537.83,-274.98C520.21,-266.5 492.92,-253.35 472.57,-243.54"/>
<polygon fill="#63b8ff" stroke="#63b8ff" points="474.02,-240.36 463.49,-239.17 470.98,-246.66 474.02,-240.36"/>
</a>
</g>
</g>
<!-- Node14&#45;&gt;Node9 -->
<g id="edge46_Node000014_Node000009" class="edge">
<title>Node14&#45;&gt;Node9</title>
<g id="a_edge46_Node000014_Node000009"><a xlink:title=" ">
<path fill="none" stroke="#63b8ff" d="M669.67,-219.9C685.26,-212.68 705.26,-200.83 716.5,-184 734.93,-156.4 744.32,-138 726.5,-110 706.22,-78.13 682.58,-92.24 649.5,-74 621.56,-58.6 590.84,-38.34 571.15,-24.89"/>
<polygon fill="#63b8ff" stroke="#63b8ff" points="572.9,-21.85 562.68,-19.06 568.93,-27.61 572.9,-21.85"/>
</a>
</g>
</g>
<!-- Node15 -->
<g id="Node000015" class="node">
<title>Node15</title>
<g id="a_Node000015"><a xlink:href="_i_model_point_8h.html" target="_top" xlink:title=" ">
<polygon fill="white" stroke="#666666" points="707.5,-184 587.5,-184 587.5,-165 707.5,-165 707.5,-184"/>
<text text-anchor="middle" x="647.5" y="-172" font-family="Helvetica,sans-Serif" font-size="10.00">Kit/Dm/IModelPoint.h</text>
</a>
</g>
</g>
<!-- Node14&#45;&gt;Node15 -->
<g id="edge16_Node000014_Node000015" class="edge">
<title>Node14&#45;&gt;Node15</title>
<g id="a_edge16_Node000014_Node000015"><a xlink:title=" ">
<path fill="none" stroke="#63b8ff" d="M647.5,-219.75C647.5,-212.8 647.5,-202.85 647.5,-194.13"/>
<polygon fill="#63b8ff" stroke="#63b8ff" points="651,-194.09 647.5,-184.09 644,-194.09 651,-194.09"/>
</a>
</g>
</g>
<!-- Node18 -->
<g id="Node000018" class="node">
<title>Node18</title>
<g id="a_Node000018"><a xlink:title=" ">
<polygon fill="#e0e0e0" stroke="#999999" points="1224,-19 1171,-19 1171,0 1224,0 1224,-19"/>
<text text-anchor="middle" x="1197.5" y="-7" font-family="Helvetica,sans-Serif" font-size="10.00">stdlib.h</text>
</a>
</g>
</g>
<!-- Node14&#45;&gt;Node18 -->
<g id="edge47_Node000014_Node000018" class="edge">
<title>Node14&#45;&gt;Node18</title>
<g id="a_edge47_Node000014_Node000018"><a xlink:title=" ">
<path fill="none" stroke="#63b8ff" d="M718.17,-228.95C866.39,-228.12 1201.24,-216.41 1263.5,-129 1288.38,-94.06 1244.44,-48.85 1217.02,-25.67"/>
<polygon fill="#63b8ff" stroke="#63b8ff" points="1219.09,-22.84 1209.13,-19.22 1214.66,-28.26 1219.09,-22.84"/>
</a>
</g>
</g>
<!-- Node24 -->
<g id="Node000024" class="node">
<title>Node24</title>
<g id="a_Node000024"><a xlink:href="_i_observer_8h.html" target="_top" xlink:title=" ">
<polygon fill="white" stroke="#666666" points="442,-129 333,-129 333,-110 442,-110 442,-129"/>
<text text-anchor="middle" x="387.5" y="-117" font-family="Helvetica,sans-Serif" font-size="10.00">Kit/Dm/IObserver.h</text>
</a>
</g>
</g>
<!-- Node14&#45;&gt;Node24 -->
<g id="edge42_Node000014_Node000024" class="edge">
<title>Node14&#45;&gt;Node24</title>
<g id="a_edge42_Node000014_Node000024"><a xlink:title=" ">
<path fill="none" stroke="#63b8ff" d="M635.07,-219.81C615.52,-206.46 576.03,-180.8 539.5,-165 506.06,-150.54 466.51,-139.12 436.13,-131.48"/>
<polygon fill="#63b8ff" stroke="#63b8ff" points="436.75,-128.03 426.21,-129.03 435.08,-134.82 436.75,-128.03"/>
</a>
</g>
</g>
<!-- Node27 -->
<g id="Node000027" class="node">
<title>Node27</title>
<g id="a_Node000027"><a xlink:href="_i_model_database_8h.html" target="_top" xlink:title=" ">
<polygon fill="white" stroke="#666666" points="929.5,-184 787.5,-184 787.5,-165 929.5,-165 929.5,-184"/>
<text text-anchor="middle" x="858.5" y="-172" font-family="Helvetica,sans-Serif" font-size="10.00">Kit/Dm/IModelDatabase.h</text>
</a>
</g>
</g>
<!-- Node14&#45;&gt;Node27 -->
<g id="edge35_Node000014_Node000027" class="edge">
<title>Node14&#45;&gt;Node27</title>
<g id="a_edge35_Node000014_Node000027"><a xlink:title=" ">
<path fill="none" stroke="#63b8ff" d="M681.4,-219.98C717.52,-210.91 774.82,-196.52 814.42,-186.57"/>
<polygon fill="#63b8ff" stroke="#63b8ff" points="815.49,-189.91 824.33,-184.08 813.78,-183.12 815.49,-189.91"/>
</a>
</g>
</g>
<!-- Node29 -->
<g id="Node000029" class="node">
<title>Node29</title>
<g id="a_Node000029"><a xlink:href="_d_list_8h.html" target="_top" xlink:title=" ">
<polygon fill="white" stroke="#666666" points="531,-184 414,-184 414,-165 531,-165 531,-184"/>
<text text-anchor="middle" x="472.5" y="-172" font-family="Helvetica,sans-Serif" font-size="10.00">Kit/Container/DList.h</text>
</a>
</g>
</g>
<!-- Node14&#45;&gt;Node29 -->
<g id="edge43_Node000014_Node000029" class="edge">
<title>Node14&#45;&gt;Node29</title>
<g id="a_edge43_Node000014_Node000029"><a xlink:title=" ">
<path fill="none" stroke="#63b8ff" d="M619.38,-219.98C589.88,-211.05 543.31,-196.94 510.53,-187.02"/>
<polygon fill="#63b8ff" stroke="#63b8ff" points="511.42,-183.63 500.84,-184.08 509.39,-190.33 511.42,-183.63"/>
</a>
</g>
</g>
<!-- Node15&#45;&gt;Node5 -->
<g id="edge17_Node000015_Node000005" class="edge">
<title>Node15&#45;&gt;Node5</title>
<g id="a_edge17_Node000015_Node000005"><a xlink:title=" ">
<path fill="none" stroke="#63b8ff" d="M707.65,-167.11C776.24,-159.57 891.98,-146.06 1000.55,-129.23"/>
<polygon fill="#63b8ff" stroke="#63b8ff" points="1001.36,-132.65 1010.7,-127.64 1000.27,-125.73 1001.36,-132.65"/>
</a>
</g>
</g>
<!-- Node15&#45;&gt;Node9 -->
<g id="edge34_Node000015_Node000009" class="edge">
<title>Node15&#45;&gt;Node9</title>
<g id="a_edge34_Node000015_Node000009"><a xlink:title=" ">
<path fill="none" stroke="#63b8ff" d="M591.18,-164.95C551.01,-157.56 501.97,-145.47 489.5,-129 464.04,-95.38 505.76,-49.56 531.9,-25.96"/>
<polygon fill="#63b8ff" stroke="#63b8ff" points="534.5,-28.33 539.74,-19.12 529.9,-23.06 534.5,-28.33"/>
</a>
</g>
</g>
<!-- Node16 -->
<g id="Node000016" class="node">
<title>Node16</title>
<g id="a_Node000016"><a xlink:href="_keyed_item_8h.html" target="_top" xlink:title=" ">
<polygon fill="white" stroke="#666666" points="718,-129 573,-129 573,-110 718,-110 718,-129"/>
<text text-anchor="middle" x="645.5" y="-117" font-family="Helvetica,sans-Serif" font-size="10.00">Kit/Container/KeyedItem.h</text>
</a>
</g>
</g>
<!-- Node15&#45;&gt;Node16 -->
<g id="edge18_Node000015_Node000016" class="edge">
<title>Node15&#45;&gt;Node16</title>
<g id="a_edge18_Node000015_Node000016"><a xlink:title=" ">
<path fill="none" stroke="#63b8ff" d="M647.17,-164.75C646.91,-157.8 646.53,-147.85 646.2,-139.13"/>
<polygon fill="#63b8ff" stroke="#63b8ff" points="649.7,-138.95 645.82,-129.09 642.7,-139.21 649.7,-138.95"/>
</a>
</g>
</g>
<!-- Node20 -->
<g id="Node000020" class="node">
<title>Node20</title>
<g id="a_Node000020"><a xlink:href="_i_string_8h.html" target="_top" xlink:title=" ">
<polygon fill="white" stroke="#666666" points="872,-129 775,-129 775,-110 872,-110 872,-129"/>
<text text-anchor="middle" x="823.5" y="-117" font-family="Helvetica,sans-Serif" font-size="10.00">Kit/Text/IString.h</text>
</a>
</g>
</g>
<!-- Node15&#45;&gt;Node20 -->
<g id="edge24_Node000015_Node000020" class="edge">
<title>Node15&#45;&gt;Node20</title>
<g id="a_edge24_Node000015_Node000020"><a xlink:title=" ">
<path fill="none" stroke="#63b8ff" d="M675.78,-164.98C705.45,-156.05 752.29,-141.94 785.25,-132.02"/>
<polygon fill="#63b8ff" stroke="#63b8ff" points="786.43,-135.32 795,-129.08 784.42,-128.61 786.43,-135.32"/>
</a>
</g>
</g>
<!-- Node15&#45;&gt;Node24 -->
<g id="edge29_Node000015_Node000024" class="edge">
<title>Node15&#45;&gt;Node24</title>
<g id="a_edge29_Node000015_Node000024"><a xlink:title=" ">
<path fill="none" stroke="#63b8ff" d="M605.73,-164.98C560.56,-155.78 488.5,-141.09 439.65,-131.13"/>
<polygon fill="#63b8ff" stroke="#63b8ff" points="440.1,-127.65 429.6,-129.08 438.7,-134.51 440.1,-127.65"/>
</a>
</g>
</g>
<!-- Node25 -->
<g id="Node000025" class="node">
<title>Node25</title>
<g id="a_Node000025"><a xlink:href="_arduino_8h_source.html" target="_top" xlink:title=" ">
<polygon fill="white" stroke="#666666" points="993,-129 890,-129 890,-110 993,-110 993,-129"/>
<text text-anchor="middle" x="941.5" y="-117" font-family="Helvetica,sans-Serif" font-size="10.00">Kit/Json/Arduino.h</text>
</a>
</g>
</g>
<!-- Node15&#45;&gt;Node25 -->
<g id="edge32_Node000015_Node000025" class="edge">
<title>Node15&#45;&gt;Node25</title>
<g id="a_edge32_Node000015_Node000025"><a xlink:title=" ">
<path fill="none" stroke="#63b8ff" d="M694.74,-164.98C746.23,-155.7 828.66,-140.84 883.91,-130.88"/>
<polygon fill="#63b8ff" stroke="#63b8ff" points="884.67,-134.3 893.89,-129.08 883.43,-127.41 884.67,-134.3"/>
</a>
</g>
</g>
<!-- Node26 -->
<g id="Node000026" class="node">
<title>Node26</title>
<g id="a_Node000026"><a xlink:title=" ">
<polygon fill="#e0e0e0" stroke="#999999" points="554.5,-129 498.5,-129 498.5,-110 554.5,-110 554.5,-129"/>
<text text-anchor="middle" x="526.5" y="-117" font-family="Helvetica,sans-Serif" font-size="10.00">stddef.h</text>
</a>
</g>
</g>
<!-- Node15&#45;&gt;Node26 -->
<g id="edge33_Node000015_Node000026" class="edge">
<title>Node15&#45;&gt;Node26</title>
<g id="a_edge33_Node000015_Node000026"><a xlink:title=" ">
<path fill="none" stroke="#63b8ff" d="M628.06,-164.98C608.51,-156.42 578.12,-143.11 555.68,-133.28"/>
<polygon fill="#63b8ff" stroke="#63b8ff" points="556.86,-129.98 546.29,-129.17 554.05,-136.39 556.86,-129.98"/>
</a>
</g>
</g>
<!-- Node16&#45;&gt;Node11 -->
<g id="edge19_Node000016_Node000011" class="edge">
<title>Node16&#45;&gt;Node11</title>
<g id="a_edge19_Node000016_Node000011"><a xlink:title=" ">
<path fill="none" stroke="#63b8ff" d="M585.09,-109.98C518.31,-100.57 410.87,-85.43 340.22,-75.47"/>
<polygon fill="#63b8ff" stroke="#63b8ff" points="340.46,-71.97 330.07,-74.04 339.49,-78.9 340.46,-71.97"/>
</a>
</g>
</g>
<!-- Node17 -->
<g id="Node000017" class="node">
<title>Node17</title>
<g id="a_Node000017"><a xlink:href="_key_8h.html" target="_top" xlink:title=" ">
<polygon fill="white" stroke="#666666" points="768,-74 659,-74 659,-55 768,-55 768,-74"/>
<text text-anchor="middle" x="713.5" y="-62" font-family="Helvetica,sans-Serif" font-size="10.00">Kit/Container/Key.h</text>
</a>
</g>
</g>
<!-- Node16&#45;&gt;Node17 -->
<g id="edge20_Node000016_Node000017" class="edge">
<title>Node16&#45;&gt;Node17</title>
<g id="a_edge20_Node000016_Node000017"><a xlink:title=" ">
<path fill="none" stroke="#63b8ff" d="M656.43,-109.98C666.58,-102.07 681.92,-90.11 694.15,-80.58"/>
<polygon fill="#63b8ff" stroke="#63b8ff" points="696.64,-83.08 702.38,-74.17 692.34,-77.56 696.64,-83.08"/>
</a>
</g>
</g>
<!-- Node17&#45;&gt;Node9 -->
<g id="edge21_Node000017_Node000009" class="edge">
<title>Node17&#45;&gt;Node9</title>
<g id="a_edge21_Node000017_Node000009"><a xlink:title=" ">
<path fill="none" stroke="#63b8ff" d="M687.31,-54.98C660.06,-46.13 617.2,-32.19 586.72,-22.28"/>
<polygon fill="#63b8ff" stroke="#63b8ff" points="587.49,-18.85 576.89,-19.08 585.32,-25.5 587.49,-18.85"/>
</a>
</g>
</g>
<!-- Node17&#45;&gt;Node18 -->
<g id="edge22_Node000017_Node000018" class="edge">
<title>Node17&#45;&gt;Node18</title>
<g id="a_edge22_Node000017_Node000018"><a xlink:title=" ">
<path fill="none" stroke="#63b8ff" d="M768.3,-56.12C771.41,-55.74 774.49,-55.36 777.5,-55 919.07,-38.1 1087.87,-21.2 1160.88,-14.05"/>
<polygon fill="#63b8ff" stroke="#63b8ff" points="1161.33,-17.52 1170.94,-13.07 1160.64,-10.56 1161.33,-17.52"/>
</a>
</g>
</g>
<!-- Node19 -->
<g id="Node000019" class="node">
<title>Node19</title>
<g id="a_Node000019"><a xlink:title=" ">
<polygon fill="#e0e0e0" stroke="#999999" points="740,-19 687,-19 687,0 740,0 740,-19"/>
<text text-anchor="middle" x="713.5" y="-7" font-family="Helvetica,sans-Serif" font-size="10.00">limits.h</text>
</a>
</g>
</g>
<!-- Node17&#45;&gt;Node19 -->
<g id="edge23_Node000017_Node000019" class="edge">
<title>Node17&#45;&gt;Node19</title>
<g id="a_edge23_Node000017_Node000019"><a xlink:title=" ">
<path fill="none" stroke="#63b8ff" d="M713.5,-54.75C713.5,-47.8 713.5,-37.85 713.5,-29.13"/>
<polygon fill="#63b8ff" stroke="#63b8ff" points="717,-29.09 713.5,-19.09 710,-29.09 717,-29.09"/>
</a>
</g>
</g>
<!-- Node20&#45;&gt;Node17 -->
<g id="edge25_Node000020_Node000017" class="edge">
<title>Node20&#45;&gt;Node17</title>
<g id="a_edge25_Node000020_Node000017"><a xlink:title=" ">
<path fill="none" stroke="#63b8ff" d="M805.83,-109.98C788.21,-101.5 760.92,-88.35 740.57,-78.54"/>
<polygon fill="#63b8ff" stroke="#63b8ff" points="742.02,-75.36 731.49,-74.17 738.98,-81.66 742.02,-75.36"/>
</a>
</g>
</g>
<!-- Node21 -->
<g id="Node000021" class="node">
<title>Node21</title>
<g id="a_Node000021"><a xlink:href="printfchecker_8h.html" target="_top" xlink:title="This file contains macro that enables the GCC (and Clang) compiler to validate printf flags with thei...">
<polygon fill="white" stroke="#666666" points="1010,-74 865,-74 865,-55 1010,-55 1010,-74"/>
<text text-anchor="middle" x="937.5" y="-62" font-family="Helvetica,sans-Serif" font-size="10.00">Kit/System/printfchecker.h</text>
</a>
</g>
</g>
<!-- Node20&#45;&gt;Node21 -->
<g id="edge26_Node000020_Node000021" class="edge">
<title>Node20&#45;&gt;Node21</title>
<g id="a_edge26_Node000020_Node000021"><a xlink:title=" ">
<path fill="none" stroke="#63b8ff" d="M841.82,-109.98C860.16,-101.46 888.61,-88.23 909.73,-78.41"/>
<polygon fill="#63b8ff" stroke="#63b8ff" points="911.26,-81.56 918.85,-74.17 908.31,-75.21 911.26,-81.56"/>
</a>
</g>
</g>
<!-- Node22 -->
<g id="Node000022" class="node">
<title>Node22</title>
<g id="a_Node000022"><a xlink:title=" ">
<polygon fill="#e0e0e0" stroke="#999999" points="1084.5,-74 1028.5,-74 1028.5,-55 1084.5,-55 1084.5,-74"/>
<text text-anchor="middle" x="1056.5" y="-62" font-family="Helvetica,sans-Serif" font-size="10.00">stdarg.h</text>
</a>
</g>
</g>
<!-- Node20&#45;&gt;Node22 -->
<g id="edge27_Node000020_Node000022" class="edge">
<title>Node20&#45;&gt;Node22</title>
<g id="a_edge27_Node000020_Node000022"><a xlink:title=" ">
<path fill="none" stroke="#63b8ff" d="M861.08,-110C898.46,-101.53 957.72,-88.1 1018.13,-74.31"/>
<polygon fill="#63b8ff" stroke="#63b8ff" points="1019.25,-77.64 1028.22,-72 1017.69,-70.82 1019.25,-77.64"/>
</a>
</g>
</g>
<!-- Node23 -->
<g id="Node000023" class="node">
<title>Node23</title>
<g id="a_Node000023"><a xlink:title=" ">
<polygon fill="#e0e0e0" stroke="#999999" points="846.5,-74 786.5,-74 786.5,-55 846.5,-55 846.5,-74"/>
<text text-anchor="middle" x="816.5" y="-62" font-family="Helvetica,sans-Serif" font-size="10.00">iostream</text>
</a>
</g>
</g>
<!-- Node20&#45;&gt;Node23 -->
<g id="edge28_Node000020_Node000023" class="edge">
<title>Node20&#45;&gt;Node23</title>
<g id="a_edge28_Node000020_Node000023"><a xlink:title=" ">
<path fill="none" stroke="#63b8ff" d="M822.34,-109.75C821.43,-102.8 820.11,-92.85 818.96,-84.13"/>
<polygon fill="#63b8ff" stroke="#63b8ff" points="822.41,-83.54 817.63,-74.09 815.47,-84.46 822.41,-83.54"/>
</a>
</g>
</g>
<!-- Node24&#45;&gt;Node9 -->
<g id="edge31_Node000024_Node000009" class="edge">
<title>Node24&#45;&gt;Node9</title>
<g id="a_edge31_Node000024_Node000009"><a xlink:title=" ">
<path fill="none" stroke="#63b8ff" d="M395.3,-109.8C407.42,-96.67 431.93,-71.56 456.5,-55 475.75,-42.02 499.38,-30.86 518.13,-22.95"/>
<polygon fill="#63b8ff" stroke="#63b8ff" points="519.52,-26.17 527.44,-19.13 516.86,-19.69 519.52,-26.17"/>
</a>
</g>
</g>
<!-- Node24&#45;&gt;Node11 -->
<g id="edge30_Node000024_Node000011" class="edge">
<title>Node24&#45;&gt;Node11</title>
<g id="a_edge30_Node000024_Node000011"><a xlink:title=" ">
<path fill="none" stroke="#63b8ff" d="M368.54,-109.98C349.47,-101.42 319.84,-88.11 297.95,-78.28"/>
<polygon fill="#63b8ff" stroke="#63b8ff" points="299.36,-75.07 288.8,-74.17 296.49,-81.46 299.36,-75.07"/>
</a>
</g>
</g>
<!-- Node27&#45;&gt;Node5 -->
<g id="edge36_Node000027_Node000005" class="edge">
<title>Node27&#45;&gt;Node5</title>
<g id="a_edge36_Node000027_Node000005"><a xlink:title=" ">
<path fill="none" stroke="#63b8ff" d="M888.87,-164.98C920.87,-156.01 971.46,-141.82 1006.88,-131.89"/>
<polygon fill="#63b8ff" stroke="#63b8ff" points="1008.21,-135.15 1016.9,-129.08 1006.32,-128.41 1008.21,-135.15"/>
</a>
</g>
</g>
<!-- Node27&#45;&gt;Node20 -->
<g id="edge37_Node000027_Node000020" class="edge">
<title>Node27&#45;&gt;Node20</title>
<g id="a_edge37_Node000027_Node000020"><a xlink:title=" ">
<path fill="none" stroke="#63b8ff" d="M852.72,-164.75C847.88,-157.42 840.82,-146.73 834.86,-137.7"/>
<polygon fill="#63b8ff" stroke="#63b8ff" points="837.6,-135.5 829.17,-129.09 831.76,-139.36 837.6,-135.5"/>
</a>
</g>
</g>
<!-- Node27&#45;&gt;Node25 -->
<g id="edge41_Node000027_Node000025" class="edge">
<title>Node27&#45;&gt;Node25</title>
<g id="a_edge41_Node000027_Node000025"><a xlink:title=" ">
<path fill="none" stroke="#63b8ff" d="M871.84,-164.98C884.59,-156.84 904.05,-144.41 919.17,-134.76"/>
<polygon fill="#63b8ff" stroke="#63b8ff" points="921.38,-137.5 927.92,-129.17 917.61,-131.6 921.38,-137.5"/>
</a>
</g>
</g>
<!-- Node28 -->
<g id="Node000028" class="node">
<title>Node28</title>
<g id="a_Node000028"><a xlink:href="_mutex_8h.html" target="_top" xlink:title=" ">
<polygon fill="white" stroke="#666666" points="1254,-129 1141,-129 1141,-110 1254,-110 1254,-129"/>
<text text-anchor="middle" x="1197.5" y="-117" font-family="Helvetica,sans-Serif" font-size="10.00">Kit/System/Mutex.h</text>
</a>
</g>
</g>
<!-- Node27&#45;&gt;Node28 -->
<g id="edge38_Node000027_Node000028" class="edge">
<title>Node27&#45;&gt;Node28</title>
<g id="a_edge38_Node000027_Node000028"><a xlink:title=" ">
<path fill="none" stroke="#63b8ff" d="M912.97,-164.98C972.93,-155.61 1069.25,-140.55 1132.95,-130.59"/>
<polygon fill="#63b8ff" stroke="#63b8ff" points="1133.55,-134.04 1142.89,-129.04 1132.47,-127.12 1133.55,-134.04"/>
</a>
</g>
</g>
<!-- Node28&#45;&gt;Node6 -->
<g id="edge40_Node000028_Node000006" class="edge">
<title>Node28&#45;&gt;Node6</title>
<g id="a_edge40_Node000028_Node000006"><a xlink:title=" ">
<path fill="none" stroke="#63b8ff" d="M1220.96,-109.98C1245.08,-101.23 1282.87,-87.51 1310.1,-77.62"/>
<polygon fill="#63b8ff" stroke="#63b8ff" points="1311.41,-80.87 1319.62,-74.17 1309.02,-74.29 1311.41,-80.87"/>
</a>
</g>
</g>
<!-- Node28&#45;&gt;Node18 -->
<g id="edge39_Node000028_Node000018" class="edge">
<title>Node28&#45;&gt;Node18</title>
<g id="a_edge39_Node000028_Node000018"><a xlink:title=" ">
<path fill="none" stroke="#63b8ff" d="M1197.5,-109.66C1197.5,-92.17 1197.5,-52.8 1197.5,-29.27"/>
<polygon fill="#63b8ff" stroke="#63b8ff" points="1201,-29.16 1197.5,-19.16 1194,-29.16 1201,-29.16"/>
</a>
</g>
</g>
<!-- Node30 -->
<g id="Node000030" class="node">
<title>Node30</title>
<g id="a_Node000030"><a xlink:href="_d_list_base_8h.html" target="_top" xlink:title=" ">
<polygon fill="white" stroke="#666666" points="315,-129 174,-129 174,-110 315,-110 315,-129"/>
<text text-anchor="middle" x="244.5" y="-117" font-family="Helvetica,sans-Serif" font-size="10.00">Kit/Container/DListBase.h</text>
</a>
</g>
</g>
<!-- Node29&#45;&gt;Node30 -->
<g id="edge44_Node000029_Node000030" class="edge">
<title>Node29&#45;&gt;Node30</title>
<g id="a_edge44_Node000029_Node000030"><a xlink:title=" ">
<path fill="none" stroke="#63b8ff" d="M435.87,-164.98C396.59,-155.86 334.13,-141.33 291.31,-131.38"/>
<polygon fill="#63b8ff" stroke="#63b8ff" points="291.95,-127.94 281.42,-129.08 290.37,-134.76 291.95,-127.94"/>
</a>
</g>
</g>
<!-- Node30&#45;&gt;Node11 -->
<g id="edge45_Node000030_Node000011" class="edge">
<title>Node30&#45;&gt;Node11</title>
<g id="a_edge45_Node000030_Node000011"><a xlink:title=" ">
<path fill="none" stroke="#63b8ff" d="M248.63,-109.75C252.01,-102.57 256.92,-92.18 261.12,-83.27"/>
<polygon fill="#63b8ff" stroke="#63b8ff" points="264.35,-84.63 265.45,-74.09 258.02,-81.64 264.35,-84.63"/>
</a>
</g>
</g>
<!-- Node31&#45;&gt;Node9 -->
<g id="edge51_Node000031_Node000009" class="edge">
<title>Node31&#45;&gt;Node9</title>
<g id="a_edge51_Node000031_Node000009"><a xlink:title=" ">
<path fill="none" stroke="#63b8ff" d="M392.4,-228.31C304.28,-225.3 139.81,-206.84 164.5,-110 171.38,-83.02 171.49,-70.67 194.5,-55 245.86,-20.02 433.44,-12.53 513.69,-10.93"/>
<polygon fill="#63b8ff" stroke="#63b8ff" points="513.89,-14.43 523.82,-10.75 513.76,-7.43 513.89,-14.43"/>
</a>
</g>
</g>
<!-- Node31&#45;&gt;Node15 -->
<g id="edge50_Node000031_Node000015" class="edge">
<title>Node31&#45;&gt;Node15</title>
<g id="a_edge50_Node000031_Node000015"><a xlink:title=" ">
<path fill="none" stroke="#63b8ff" d="M477.95,-219.98C512.46,-210.93 567.16,-196.58 605.06,-186.64"/>
<polygon fill="#63b8ff" stroke="#63b8ff" points="606.01,-190.01 614.79,-184.08 604.23,-183.23 606.01,-190.01"/>
</a>
</g>
</g>
<!-- Node31&#45;&gt;Node24 -->
<g id="edge49_Node000031_Node000024" class="edge">
<title>Node31&#45;&gt;Node24</title>
<g id="a_edge49_Node000031_Node000024"><a xlink:title=" ">
<path fill="none" stroke="#63b8ff" d="M434.87,-219.69C425.55,-211.4 412.3,-198.17 404.5,-184 396.84,-170.08 392.48,-152.52 390.1,-139.4"/>
<polygon fill="#63b8ff" stroke="#63b8ff" points="393.51,-138.54 388.49,-129.21 386.6,-139.63 393.51,-138.54"/>
</a>
</g>
</g>
</g>
</svg>
