<?xml version="1.0" encoding="UTF-8" standalone="no"?>
<!DOCTYPE svg PUBLIC "-//W3C//DTD SVG 1.1//EN"
 "http://www.w3.org/Graphics/SVG/1.1/DTD/svg11.dtd">
<!-- Generated by graphviz version 2.43.0 (0)
 -->
<!-- Title: Kit/System/Thread.h Pages: 1 -->
<svg width="1617pt" height="357pt"
 viewBox="0.00 0.00 1616.50 357.00" xmlns="http://www.w3.org/2000/svg" xmlns:xlink="http://www.w3.org/1999/xlink">
<g id="graph0" class="graph" transform="scale(1 1) rotate(0) translate(4 353)">
<title>Kit/System/Thread.h</title>
<!-- Node1 -->
<g id="Node000001" class="node">
<title>Node1</title>
<g id="a_Node000001"><a xlink:title=" ">
<polygon fill="#999999" stroke="#666666" points="1116,-349 1000,-349 1000,-330 1116,-330 1116,-349"/>
<text text-anchor="middle" x="1058" y="-337" font-family="Helvetica,sans-Serif" font-size="10.00">Kit/System/Thread.h</text>
</a>
</g>
</g>
<!-- Node2 -->
<g id="Node000002" class="node">
<title>Node2</title>
<g id="a_Node000002"><a xlink:title=" ">
<polygon fill="#e0e0e0" stroke="#999999" points="173.5,-129 100.5,-129 100.5,-110 173.5,-110 173.5,-129"/>
<text text-anchor="middle" x="137" y="-117" font-family="Helvetica,sans-Serif" font-size="10.00">kit_config.h</text>
</a>
</g>
</g>
<!-- Node1&#45;&gt;Node2 -->
<g id="edge1_Node000001_Node000002" class="edge">
<title>Node1&#45;&gt;Node2</title>
<g id="a_edge1_Node000001_Node000002"><a xlink:title=" ">
<path fill="none" stroke="#63b8ff" d="M1001.27,-329.98C945.59,-321.47 858.3,-307.7 783,-294 661.66,-271.92 630.4,-269.89 511,-239 383.63,-206.04 235.53,-155.35 170.51,-132.46"/>
<polygon fill="#63b8ff" stroke="#63b8ff" points="171.4,-129.06 160.81,-129.03 169.07,-135.66 171.4,-129.06"/>
</a>
</g>
</g>
<!-- Node3 -->
<g id="Node000003" class="node">
<title>Node3</title>
<g id="a_Node000003"><a xlink:title=" ">
<polygon fill="#e0e0e0" stroke="#999999" points="1217.5,-74 1152.5,-74 1152.5,-55 1217.5,-55 1217.5,-74"/>
<text text-anchor="middle" x="1185" y="-62" font-family="Helvetica,sans-Serif" font-size="10.00">kit_map.h</text>
</a>
</g>
</g>
<!-- Node1&#45;&gt;Node3 -->
<g id="edge2_Node000001_Node000003" class="edge">
<title>Node1&#45;&gt;Node3</title>
<g id="a_edge2_Node000001_Node000003"><a xlink:title=" ">
<path fill="none" stroke="#63b8ff" d="M1066.12,-329.82C1090.78,-302.77 1164.72,-216.56 1190,-129 1194.22,-114.37 1192.46,-97.11 1189.92,-84.28"/>
<polygon fill="#63b8ff" stroke="#63b8ff" points="1193.29,-83.28 1187.63,-74.33 1186.46,-84.86 1193.29,-83.28"/>
</a>
</g>
</g>
<!-- Node4 -->
<g id="Node000004" class="node">
<title>Node4</title>
<g id="a_Node000004"><a xlink:href="_i_runnable_8h.html" target="_top" xlink:title=" ">
<polygon fill="white" stroke="#666666" points="1302.5,-294 1171.5,-294 1171.5,-275 1302.5,-275 1302.5,-294"/>
<text text-anchor="middle" x="1237" y="-282" font-family="Helvetica,sans-Serif" font-size="10.00">Kit/System/IRunnable.h</text>
</a>
</g>
</g>
<!-- Node1&#45;&gt;Node4 -->
<g id="edge3_Node000001_Node000004" class="edge">
<title>Node1&#45;&gt;Node4</title>
<g id="a_edge3_Node000001_Node000004"><a xlink:title=" ">
<path fill="none" stroke="#63b8ff" d="M1086.76,-329.98C1116.94,-321.05 1164.57,-306.94 1198.1,-297.02"/>
<polygon fill="#63b8ff" stroke="#63b8ff" points="1199.42,-300.28 1208.02,-294.08 1197.43,-293.57 1199.42,-300.28"/>
</a>
</g>
</g>
<!-- Node5 -->
<g id="Node000005" class="node">
<title>Node5</title>
<g id="a_Node000005"><a xlink:href="_i_signable_8h.html" target="_top" xlink:title=" ">
<polygon fill="white" stroke="#666666" points="1447.5,-294 1320.5,-294 1320.5,-275 1447.5,-275 1447.5,-294"/>
<text text-anchor="middle" x="1384" y="-282" font-family="Helvetica,sans-Serif" font-size="10.00">Kit/System/ISignable.h</text>
</a>
</g>
</g>
<!-- Node1&#45;&gt;Node5 -->
<g id="edge4_Node000001_Node000005" class="edge">
<title>Node1&#45;&gt;Node5</title>
<g id="a_edge4_Node000001_Node000005"><a xlink:title=" ">
<path fill="none" stroke="#63b8ff" d="M1110.38,-329.98C1167.92,-320.63 1260.29,-305.61 1321.55,-295.65"/>
<polygon fill="#63b8ff" stroke="#63b8ff" points="1322.17,-299.1 1331.48,-294.04 1321.05,-292.19 1322.17,-299.1"/>
</a>
</g>
</g>
<!-- Node6 -->
<g id="Node000006" class="node">
<title>Node6</title>
<g id="a_Node000006"><a xlink:href="_tls_8h.html" target="_top" xlink:title=" ">
<polygon fill="white" stroke="#666666" points="96,-184 0,-184 0,-165 96,-165 96,-184"/>
<text text-anchor="middle" x="48" y="-172" font-family="Helvetica,sans-Serif" font-size="10.00">Kit/System/Tls.h</text>
</a>
</g>
</g>
<!-- Node1&#45;&gt;Node6 -->
<g id="edge5_Node000001_Node000006" class="edge">
<title>Node1&#45;&gt;Node6</title>
<g id="a_edge5_Node000001_Node000006"><a xlink:title=" ">
<path fill="none" stroke="#63b8ff" d="M999.94,-337.36C799.62,-333.23 147.59,-317.98 110,-294 74.39,-271.28 58.08,-221 51.62,-193.81"/>
<polygon fill="#63b8ff" stroke="#63b8ff" points="55.04,-193.05 49.49,-184.02 48.2,-194.54 55.04,-193.05"/>
</a>
</g>
</g>
<!-- Node8 -->
<g id="Node000008" class="node">
<title>Node8</title>
<g id="a_Node000008"><a xlink:href="_traverser_status_8h.html" target="_top" xlink:title=" ">
<polygon fill="white" stroke="#666666" points="1608.5,-294 1465.5,-294 1465.5,-275 1608.5,-275 1608.5,-294"/>
<text text-anchor="middle" x="1537" y="-282" font-family="Helvetica,sans-Serif" font-size="10.00">Kit/Type/TraverserStatus.h</text>
</a>
</g>
</g>
<!-- Node1&#45;&gt;Node8 -->
<g id="edge8_Node000001_Node000008" class="edge">
<title>Node1&#45;&gt;Node8</title>
<g id="a_edge8_Node000001_Node000008"><a xlink:title=" ">
<path fill="none" stroke="#63b8ff" d="M1116.26,-332.05C1201.02,-322.68 1358.72,-305.23 1455.13,-294.56"/>
<polygon fill="#63b8ff" stroke="#63b8ff" points="1455.57,-298.03 1465.13,-293.45 1454.8,-291.07 1455.57,-298.03"/>
</a>
</g>
</g>
<!-- Node9 -->
<g id="Node000009" class="node">
<title>Node9</title>
<g id="a_Node000009"><a xlink:href="_list_item_8h.html" target="_top" xlink:title=" ">
<polygon fill="white" stroke="#666666" points="1003,-74 871,-74 871,-55 1003,-55 1003,-74"/>
<text text-anchor="middle" x="937" y="-62" font-family="Helvetica,sans-Serif" font-size="10.00">Kit/Container/ListItem.h</text>
</a>
</g>
</g>
<!-- Node1&#45;&gt;Node9 -->
<g id="edge9_Node000001_Node000009" class="edge">
<title>Node1&#45;&gt;Node9</title>
<g id="a_edge9_Node000001_Node000009"><a xlink:title=" ">
<path fill="none" stroke="#63b8ff" d="M1055.44,-329.91C1050.25,-311.74 1039,-268 1039,-230.5 1039,-230.5 1039,-230.5 1039,-173.5 1039,-144.04 1038.63,-132.82 1020,-110 1008.07,-95.39 990.04,-84.91 973.83,-77.81"/>
<polygon fill="#63b8ff" stroke="#63b8ff" points="975.13,-74.56 964.55,-74.01 972.48,-81.04 975.13,-74.56"/>
</a>
</g>
</g>
<!-- Node11 -->
<g id="Node000011" class="node">
<title>Node11</title>
<g id="a_Node000011"><a xlink:href="_string_8h.html" target="_top" xlink:title=" ">
<polygon fill="white" stroke="#666666" points="844.5,-294 791.5,-294 791.5,-275 844.5,-275 844.5,-294"/>
<text text-anchor="middle" x="818" y="-282" font-family="Helvetica,sans-Serif" font-size="10.00">string.h</text>
</a>
</g>
</g>
<!-- Node1&#45;&gt;Node11 -->
<g id="edge11_Node000001_Node000011" class="edge">
<title>Node1&#45;&gt;Node11</title>
<g id="a_edge11_Node000001_Node000011"><a xlink:title=" ">
<path fill="none" stroke="#63b8ff" d="M1019.44,-329.98C973.96,-319.94 898.92,-303.37 854.4,-293.54"/>
<polygon fill="#63b8ff" stroke="#63b8ff" points="855.1,-290.11 844.58,-291.37 853.59,-296.94 855.1,-290.11"/>
</a>
</g>
</g>
<!-- Node6&#45;&gt;Node2 -->
<g id="edge6_Node000006_Node000002" class="edge">
<title>Node6&#45;&gt;Node2</title>
<g id="a_edge6_Node000006_Node000002"><a xlink:title=" ">
<path fill="none" stroke="#63b8ff" d="M62.3,-164.98C76.1,-156.77 97.24,-144.18 113.51,-134.49"/>
<polygon fill="#63b8ff" stroke="#63b8ff" points="115.64,-137.29 122.44,-129.17 112.06,-131.28 115.64,-137.29"/>
</a>
</g>
</g>
<!-- Node7 -->
<g id="Node000007" class="node">
<title>Node7</title>
<g id="a_Node000007"><a xlink:title=" ">
<polygon fill="#e0e0e0" stroke="#999999" points="405.5,-19 352.5,-19 352.5,0 405.5,0 405.5,-19"/>
<text text-anchor="middle" x="379" y="-7" font-family="Helvetica,sans-Serif" font-size="10.00">stdint.h</text>
</a>
</g>
</g>
<!-- Node6&#45;&gt;Node7 -->
<g id="edge7_Node000006_Node000007" class="edge">
<title>Node6&#45;&gt;Node7</title>
<g id="a_edge7_Node000006_Node000007"><a xlink:title=" ">
<path fill="none" stroke="#63b8ff" d="M45.57,-164.92C39.99,-143.23 28.88,-85.72 58,-55 96.21,-14.68 266.46,-10.09 342.32,-10.09"/>
<polygon fill="#63b8ff" stroke="#63b8ff" points="342.36,-13.59 352.37,-10.12 342.38,-6.59 342.36,-13.59"/>
</a>
</g>
</g>
<!-- Node10 -->
<g id="Node000010" class="node">
<title>Node10</title>
<g id="a_Node000010"><a xlink:href="_item_8h.html" target="_top" xlink:title=" ">
<polygon fill="white" stroke="#666666" points="994.5,-19 879.5,-19 879.5,0 994.5,0 994.5,-19"/>
<text text-anchor="middle" x="937" y="-7" font-family="Helvetica,sans-Serif" font-size="10.00">Kit/Container/Item.h</text>
</a>
</g>
</g>
<!-- Node9&#45;&gt;Node10 -->
<g id="edge10_Node000009_Node000010" class="edge">
<title>Node9&#45;&gt;Node10</title>
<g id="a_edge10_Node000009_Node000010"><a xlink:title=" ">
<path fill="none" stroke="#63b8ff" d="M937,-54.75C937,-47.8 937,-37.85 937,-29.13"/>
<polygon fill="#63b8ff" stroke="#63b8ff" points="940.5,-29.09 937,-19.09 933.5,-29.09 940.5,-29.09"/>
</a>
</g>
</g>
<!-- Node12 -->
<g id="Node000012" class="node">
<title>Node12</title>
<g id="a_Node000012"><a xlink:href="_model_point_base_8h.html" target="_top" xlink:title=" ">
<polygon fill="white" stroke="#666666" points="888.5,-239 747.5,-239 747.5,-220 888.5,-220 888.5,-239"/>
<text text-anchor="middle" x="818" y="-227" font-family="Helvetica,sans-Serif" font-size="10.00">Kit/Dm/ModelPointBase.h</text>
</a>
</g>
</g>
<!-- Node11&#45;&gt;Node12 -->
<g id="edge12_Node000011_Node000012" class="edge">
<title>Node11&#45;&gt;Node12</title>
<g id="a_edge12_Node000011_Node000012"><a xlink:title=" ">
<path fill="none" stroke="#63b8ff" d="M818,-274.75C818,-267.8 818,-257.85 818,-249.13"/>
<polygon fill="#63b8ff" stroke="#63b8ff" points="821.5,-249.09 818,-239.09 814.5,-249.09 821.5,-249.09"/>
</a>
</g>
</g>
<!-- Node29 -->
<g id="Node000029" class="node">
<title>Node29</title>
<g id="a_Node000029"><a xlink:href="_observer_8h.html" target="_top" xlink:title=" ">
<polygon fill="white" stroke="#666666" points="626,-239 520,-239 520,-220 626,-220 626,-239"/>
<text text-anchor="middle" x="573" y="-227" font-family="Helvetica,sans-Serif" font-size="10.00">Kit/Dm/Observer.h</text>
</a>
</g>
</g>
<!-- Node11&#45;&gt;Node29 -->
<g id="edge45_Node000011_Node000029" class="edge">
<title>Node11&#45;&gt;Node29</title>
<g id="a_edge45_Node000011_Node000029"><a xlink:title=" ">
<path fill="none" stroke="#63b8ff" d="M791.31,-277.73C750.85,-268.97 673.31,-252.2 622.38,-241.18"/>
<polygon fill="#63b8ff" stroke="#63b8ff" points="623.08,-237.75 612.56,-239.06 621.6,-244.59 623.08,-237.75"/>
</a>
</g>
</g>
<!-- Node12&#45;&gt;Node7 -->
<g id="edge43_Node000012_Node000007" class="edge">
<title>Node12&#45;&gt;Node7</title>
<g id="a_edge43_Node000012_Node000007"><a xlink:title=" ">
<path fill="none" stroke="#63b8ff" d="M821.34,-219.89C828.81,-199.09 844.51,-145.2 822,-110 777.9,-41.04 513.8,-18.48 415.67,-12.43"/>
<polygon fill="#63b8ff" stroke="#63b8ff" points="415.82,-8.93 405.63,-11.83 415.4,-15.92 415.82,-8.93"/>
</a>
</g>
</g>
<!-- Node13 -->
<g id="Node000013" class="node">
<title>Node13</title>
<g id="a_Node000013"><a xlink:href="_i_model_point_8h.html" target="_top" xlink:title=" ">
<polygon fill="white" stroke="#666666" points="549,-184 429,-184 429,-165 549,-165 549,-184"/>
<text text-anchor="middle" x="489" y="-172" font-family="Helvetica,sans-Serif" font-size="10.00">Kit/Dm/IModelPoint.h</text>
</a>
</g>
</g>
<!-- Node12&#45;&gt;Node13 -->
<g id="edge13_Node000012_Node000013" class="edge">
<title>Node12&#45;&gt;Node13</title>
<g id="a_edge13_Node000012_Node000013"><a xlink:title=" ">
<path fill="none" stroke="#63b8ff" d="M765.14,-219.98C707.07,-210.63 613.85,-195.61 552.02,-185.65"/>
<polygon fill="#63b8ff" stroke="#63b8ff" points="552.43,-182.17 542,-184.04 551.32,-189.08 552.43,-182.17"/>
</a>
</g>
</g>
<!-- Node16 -->
<g id="Node000016" class="node">
<title>Node16</title>
<g id="a_Node000016"><a xlink:title=" ">
<polygon fill="#e0e0e0" stroke="#999999" points="1150.5,-19 1097.5,-19 1097.5,0 1150.5,0 1150.5,-19"/>
<text text-anchor="middle" x="1124" y="-7" font-family="Helvetica,sans-Serif" font-size="10.00">stdlib.h</text>
</a>
</g>
</g>
<!-- Node12&#45;&gt;Node16 -->
<g id="edge44_Node000012_Node000016" class="edge">
<title>Node12&#45;&gt;Node16</title>
<g id="a_edge44_Node000012_Node000016"><a xlink:title=" ">
<path fill="none" stroke="#63b8ff" d="M888.59,-224.72C968.65,-217.24 1099.76,-195.02 1190,-129 1219.68,-107.29 1247.2,-85.73 1227,-55 1212.37,-32.74 1183.97,-21.56 1160.7,-15.98"/>
<polygon fill="#63b8ff" stroke="#63b8ff" points="1161.27,-12.52 1150.76,-13.85 1159.81,-19.37 1161.27,-12.52"/>
</a>
</g>
</g>
<!-- Node22 -->
<g id="Node000022" class="node">
<title>Node22</title>
<g id="a_Node000022"><a xlink:href="_i_observer_8h.html" target="_top" xlink:title=" ">
<polygon fill="white" stroke="#666666" points="812.5,-129 703.5,-129 703.5,-110 812.5,-110 812.5,-129"/>
<text text-anchor="middle" x="758" y="-117" font-family="Helvetica,sans-Serif" font-size="10.00">Kit/Dm/IObserver.h</text>
</a>
</g>
</g>
<!-- Node12&#45;&gt;Node22 -->
<g id="edge39_Node000012_Node000022" class="edge">
<title>Node12&#45;&gt;Node22</title>
<g id="a_edge39_Node000012_Node000022"><a xlink:title=" ">
<path fill="none" stroke="#63b8ff" d="M813.09,-219.66C803.2,-201.85 780.7,-161.37 767.73,-138.01"/>
<polygon fill="#63b8ff" stroke="#63b8ff" points="770.73,-136.2 762.81,-129.16 764.61,-139.6 770.73,-136.2"/>
</a>
</g>
</g>
<!-- Node25 -->
<g id="Node000025" class="node">
<title>Node25</title>
<g id="a_Node000025"><a xlink:href="_i_model_database_8h.html" target="_top" xlink:title=" ">
<polygon fill="white" stroke="#666666" points="709,-184 567,-184 567,-165 709,-165 709,-184"/>
<text text-anchor="middle" x="638" y="-172" font-family="Helvetica,sans-Serif" font-size="10.00">Kit/Dm/IModelDatabase.h</text>
</a>
</g>
</g>
<!-- Node12&#45;&gt;Node25 -->
<g id="edge32_Node000012_Node000025" class="edge">
<title>Node12&#45;&gt;Node25</title>
<g id="a_edge32_Node000012_Node000025"><a xlink:title=" ">
<path fill="none" stroke="#63b8ff" d="M789.08,-219.98C758.73,-211.05 710.83,-196.94 677.12,-187.02"/>
<polygon fill="#63b8ff" stroke="#63b8ff" points="677.73,-183.55 667.15,-184.08 675.75,-190.26 677.73,-183.55"/>
</a>
</g>
</g>
<!-- Node27 -->
<g id="Node000027" class="node">
<title>Node27</title>
<g id="a_Node000027"><a xlink:href="_d_list_8h.html" target="_top" xlink:title=" ">
<polygon fill="white" stroke="#666666" points="992.5,-184 875.5,-184 875.5,-165 992.5,-165 992.5,-184"/>
<text text-anchor="middle" x="934" y="-172" font-family="Helvetica,sans-Serif" font-size="10.00">Kit/Container/DList.h</text>
</a>
</g>
</g>
<!-- Node12&#45;&gt;Node27 -->
<g id="edge40_Node000012_Node000027" class="edge">
<title>Node12&#45;&gt;Node27</title>
<g id="a_edge40_Node000012_Node000027"><a xlink:title=" ">
<path fill="none" stroke="#63b8ff" d="M836.64,-219.98C855.3,-211.46 884.25,-198.23 905.74,-188.41"/>
<polygon fill="#63b8ff" stroke="#63b8ff" points="907.38,-191.51 915.02,-184.17 904.47,-185.14 907.38,-191.51"/>
</a>
</g>
</g>
<!-- Node13&#45;&gt;Node2 -->
<g id="edge14_Node000013_Node000002" class="edge">
<title>Node13&#45;&gt;Node2</title>
<g id="a_edge14_Node000013_Node000002"><a xlink:title=" ">
<path fill="none" stroke="#63b8ff" d="M429.27,-165C368.5,-156.27 271.62,-142.15 188,-129 186.7,-128.8 185.39,-128.59 184.06,-128.38"/>
<polygon fill="#63b8ff" stroke="#63b8ff" points="184.19,-124.85 173.76,-126.71 183.07,-131.76 184.19,-124.85"/>
</a>
</g>
</g>
<!-- Node13&#45;&gt;Node7 -->
<g id="edge31_Node000013_Node000007" class="edge">
<title>Node13&#45;&gt;Node7</title>
<g id="a_edge31_Node000013_Node000007"><a xlink:title=" ">
<path fill="none" stroke="#63b8ff" d="M428.92,-172.23C358.22,-169.31 247.11,-159.81 221,-129 199.73,-103.91 201.15,-81.22 221,-55 235.59,-35.73 300.21,-22.46 342.16,-15.7"/>
<polygon fill="#63b8ff" stroke="#63b8ff" points="342.95,-19.12 352.29,-14.12 341.87,-12.2 342.95,-19.12"/>
</a>
</g>
</g>
<!-- Node14 -->
<g id="Node000014" class="node">
<title>Node14</title>
<g id="a_Node000014"><a xlink:href="_keyed_item_8h.html" target="_top" xlink:title=" ">
<polygon fill="white" stroke="#666666" points="564.5,-129 419.5,-129 419.5,-110 564.5,-110 564.5,-129"/>
<text text-anchor="middle" x="492" y="-117" font-family="Helvetica,sans-Serif" font-size="10.00">Kit/Container/KeyedItem.h</text>
</a>
</g>
</g>
<!-- Node13&#45;&gt;Node14 -->
<g id="edge15_Node000013_Node000014" class="edge">
<title>Node13&#45;&gt;Node14</title>
<g id="a_edge15_Node000013_Node000014"><a xlink:title=" ">
<path fill="none" stroke="#63b8ff" d="M489.5,-164.75C489.89,-157.8 490.45,-147.85 490.95,-139.13"/>
<polygon fill="#63b8ff" stroke="#63b8ff" points="494.44,-139.27 491.51,-129.09 487.45,-138.88 494.44,-139.27"/>
</a>
</g>
</g>
<!-- Node18 -->
<g id="Node000018" class="node">
<title>Node18</title>
<g id="a_Node000018"><a xlink:href="_i_string_8h.html" target="_top" xlink:title=" ">
<polygon fill="white" stroke="#666666" points="401.5,-129 304.5,-129 304.5,-110 401.5,-110 401.5,-129"/>
<text text-anchor="middle" x="353" y="-117" font-family="Helvetica,sans-Serif" font-size="10.00">Kit/Text/IString.h</text>
</a>
</g>
</g>
<!-- Node13&#45;&gt;Node18 -->
<g id="edge21_Node000013_Node000018" class="edge">
<title>Node13&#45;&gt;Node18</title>
<g id="a_edge21_Node000013_Node000018"><a xlink:title=" ">
<path fill="none" stroke="#63b8ff" d="M467.15,-164.98C444.88,-156.3 410.1,-142.75 384.78,-132.88"/>
<polygon fill="#63b8ff" stroke="#63b8ff" points="385.84,-129.54 375.25,-129.17 383.29,-136.06 385.84,-129.54"/>
</a>
</g>
</g>
<!-- Node13&#45;&gt;Node22 -->
<g id="edge26_Node000013_Node000022" class="edge">
<title>Node13&#45;&gt;Node22</title>
<g id="a_edge26_Node000013_Node000022"><a xlink:title=" ">
<path fill="none" stroke="#63b8ff" d="M532.22,-164.98C579.04,-155.76 653.81,-141.03 704.36,-131.07"/>
<polygon fill="#63b8ff" stroke="#63b8ff" points="705.31,-134.45 714.44,-129.08 703.95,-127.58 705.31,-134.45"/>
</a>
</g>
</g>
<!-- Node23 -->
<g id="Node000023" class="node">
<title>Node23</title>
<g id="a_Node000023"><a xlink:href="_arduino_8h_source.html" target="_top" xlink:title=" ">
<polygon fill="white" stroke="#666666" points="685.5,-129 582.5,-129 582.5,-110 685.5,-110 685.5,-129"/>
<text text-anchor="middle" x="634" y="-117" font-family="Helvetica,sans-Serif" font-size="10.00">Kit/Json/Arduino.h</text>
</a>
</g>
</g>
<!-- Node13&#45;&gt;Node23 -->
<g id="edge29_Node000013_Node000023" class="edge">
<title>Node13&#45;&gt;Node23</title>
<g id="a_edge29_Node000013_Node000023"><a xlink:title=" ">
<path fill="none" stroke="#63b8ff" d="M512.3,-164.98C536.25,-156.23 573.78,-142.51 600.83,-132.62"/>
<polygon fill="#63b8ff" stroke="#63b8ff" points="602.09,-135.89 610.28,-129.17 599.69,-129.32 602.09,-135.89"/>
</a>
</g>
</g>
<!-- Node24 -->
<g id="Node000024" class="node">
<title>Node24</title>
<g id="a_Node000024"><a xlink:title=" ">
<polygon fill="#e0e0e0" stroke="#999999" points="286,-129 230,-129 230,-110 286,-110 286,-129"/>
<text text-anchor="middle" x="258" y="-117" font-family="Helvetica,sans-Serif" font-size="10.00">stddef.h</text>
</a>
</g>
</g>
<!-- Node13&#45;&gt;Node24 -->
<g id="edge30_Node000013_Node000024" class="edge">
<title>Node13&#45;&gt;Node24</title>
<g id="a_edge30_Node000013_Node000024"><a xlink:title=" ">
<path fill="none" stroke="#63b8ff" d="M451.89,-164.98C409.14,-155.18 339.29,-139.15 296.12,-129.25"/>
<polygon fill="#63b8ff" stroke="#63b8ff" points="296.81,-125.81 286.29,-126.99 295.25,-132.64 296.81,-125.81"/>
</a>
</g>
</g>
<!-- Node14&#45;&gt;Node9 -->
<g id="edge16_Node000014_Node000009" class="edge">
<title>Node14&#45;&gt;Node9</title>
<g id="a_edge16_Node000014_Node000009"><a xlink:title=" ">
<path fill="none" stroke="#63b8ff" d="M563.5,-109.98C644.86,-100.29 777.25,-84.53 860.6,-74.6"/>
<polygon fill="#63b8ff" stroke="#63b8ff" points="861.25,-78.05 870.77,-73.39 860.42,-71.1 861.25,-78.05"/>
</a>
</g>
</g>
<!-- Node15 -->
<g id="Node000015" class="node">
<title>Node15</title>
<g id="a_Node000015"><a xlink:href="_key_8h.html" target="_top" xlink:title=" ">
<polygon fill="white" stroke="#666666" points="693.5,-74 584.5,-74 584.5,-55 693.5,-55 693.5,-74"/>
<text text-anchor="middle" x="639" y="-62" font-family="Helvetica,sans-Serif" font-size="10.00">Kit/Container/Key.h</text>
</a>
</g>
</g>
<!-- Node14&#45;&gt;Node15 -->
<g id="edge17_Node000014_Node000015" class="edge">
<title>Node14&#45;&gt;Node15</title>
<g id="a_edge17_Node000014_Node000015"><a xlink:title=" ">
<path fill="none" stroke="#63b8ff" d="M515.62,-109.98C539.9,-101.23 577.95,-87.51 605.37,-77.62"/>
<polygon fill="#63b8ff" stroke="#63b8ff" points="606.73,-80.85 614.95,-74.17 604.36,-74.27 606.73,-80.85"/>
</a>
</g>
</g>
<!-- Node15&#45;&gt;Node7 -->
<g id="edge18_Node000015_Node000007" class="edge">
<title>Node15&#45;&gt;Node7</title>
<g id="a_edge18_Node000015_Node000007"><a xlink:title=" ">
<path fill="none" stroke="#63b8ff" d="M597.23,-54.98C546.94,-44.73 463.31,-27.69 415.51,-17.94"/>
<polygon fill="#63b8ff" stroke="#63b8ff" points="416.09,-14.49 405.59,-15.92 414.69,-21.35 416.09,-14.49"/>
</a>
</g>
</g>
<!-- Node15&#45;&gt;Node16 -->
<g id="edge19_Node000015_Node000016" class="edge">
<title>Node15&#45;&gt;Node16</title>
<g id="a_edge19_Node000015_Node000016"><a xlink:title=" ">
<path fill="none" stroke="#63b8ff" d="M693.69,-57.52C793.47,-46.62 1002.56,-23.77 1087.23,-14.52"/>
<polygon fill="#63b8ff" stroke="#63b8ff" points="1087.83,-17.97 1097.39,-13.41 1087.07,-11.01 1087.83,-17.97"/>
</a>
</g>
</g>
<!-- Node17 -->
<g id="Node000017" class="node">
<title>Node17</title>
<g id="a_Node000017"><a xlink:title=" ">
<polygon fill="#e0e0e0" stroke="#999999" points="665.5,-19 612.5,-19 612.5,0 665.5,0 665.5,-19"/>
<text text-anchor="middle" x="639" y="-7" font-family="Helvetica,sans-Serif" font-size="10.00">limits.h</text>
</a>
</g>
</g>
<!-- Node15&#45;&gt;Node17 -->
<g id="edge20_Node000015_Node000017" class="edge">
<title>Node15&#45;&gt;Node17</title>
<g id="a_edge20_Node000015_Node000017"><a xlink:title=" ">
<path fill="none" stroke="#63b8ff" d="M639,-54.75C639,-47.8 639,-37.85 639,-29.13"/>
<polygon fill="#63b8ff" stroke="#63b8ff" points="642.5,-29.09 639,-19.09 635.5,-29.09 642.5,-29.09"/>
</a>
</g>
</g>
<!-- Node18&#45;&gt;Node15 -->
<g id="edge22_Node000018_Node000015" class="edge">
<title>Node18&#45;&gt;Node15</title>
<g id="a_edge22_Node000018_Node000015"><a xlink:title=" ">
<path fill="none" stroke="#63b8ff" d="M398.95,-109.98C448.94,-100.72 528.89,-85.9 582.64,-75.94"/>
<polygon fill="#63b8ff" stroke="#63b8ff" points="583.49,-79.35 592.69,-74.08 582.22,-72.46 583.49,-79.35"/>
</a>
</g>
</g>
<!-- Node19 -->
<g id="Node000019" class="node">
<title>Node19</title>
<g id="a_Node000019"><a xlink:href="printfchecker_8h.html" target="_top" xlink:title="This file contains macro that enables the GCC (and Clang) compiler to validate printf flags with thei...">
<polygon fill="white" stroke="#666666" points="453.5,-74 308.5,-74 308.5,-55 453.5,-55 453.5,-74"/>
<text text-anchor="middle" x="381" y="-62" font-family="Helvetica,sans-Serif" font-size="10.00">Kit/System/printfchecker.h</text>
</a>
</g>
</g>
<!-- Node18&#45;&gt;Node19 -->
<g id="edge23_Node000018_Node000019" class="edge">
<title>Node18&#45;&gt;Node19</title>
<g id="a_edge23_Node000018_Node000019"><a xlink:title=" ">
<path fill="none" stroke="#63b8ff" d="M357.62,-109.75C361.46,-102.49 367.02,-91.95 371.76,-82.98"/>
<polygon fill="#63b8ff" stroke="#63b8ff" points="374.89,-84.57 376.46,-74.09 368.7,-81.3 374.89,-84.57"/>
</a>
</g>
</g>
<!-- Node20 -->
<g id="Node000020" class="node">
<title>Node20</title>
<g id="a_Node000020"><a xlink:title=" ">
<polygon fill="#e0e0e0" stroke="#999999" points="528,-74 472,-74 472,-55 528,-55 528,-74"/>
<text text-anchor="middle" x="500" y="-62" font-family="Helvetica,sans-Serif" font-size="10.00">stdarg.h</text>
</a>
</g>
</g>
<!-- Node18&#45;&gt;Node20 -->
<g id="edge24_Node000018_Node000020" class="edge">
<title>Node18&#45;&gt;Node20</title>
<g id="a_edge24_Node000018_Node000020"><a xlink:title=" ">
<path fill="none" stroke="#63b8ff" d="M376.62,-109.98C400.9,-101.23 438.95,-87.51 466.37,-77.62"/>
<polygon fill="#63b8ff" stroke="#63b8ff" points="467.73,-80.85 475.95,-74.17 465.36,-74.27 467.73,-80.85"/>
</a>
</g>
</g>
<!-- Node21 -->
<g id="Node000021" class="node">
<title>Node21</title>
<g id="a_Node000021"><a xlink:title=" ">
<polygon fill="#e0e0e0" stroke="#999999" points="290,-74 230,-74 230,-55 290,-55 290,-74"/>
<text text-anchor="middle" x="260" y="-62" font-family="Helvetica,sans-Serif" font-size="10.00">iostream</text>
</a>
</g>
</g>
<!-- Node18&#45;&gt;Node21 -->
<g id="edge25_Node000018_Node000021" class="edge">
<title>Node18&#45;&gt;Node21</title>
<g id="a_edge25_Node000018_Node000021"><a xlink:title=" ">
<path fill="none" stroke="#63b8ff" d="M338.06,-109.98C323.5,-101.69 301.13,-88.94 284.07,-79.22"/>
<polygon fill="#63b8ff" stroke="#63b8ff" points="285.64,-76.08 275.21,-74.17 282.17,-82.16 285.64,-76.08"/>
</a>
</g>
</g>
<!-- Node22&#45;&gt;Node7 -->
<g id="edge28_Node000022_Node000007" class="edge">
<title>Node22&#45;&gt;Node7</title>
<g id="a_edge28_Node000022_Node000007"><a xlink:title=" ">
<path fill="none" stroke="#63b8ff" d="M711.19,-109.92C673.95,-102.42 620.82,-90.19 576,-74 557.87,-67.45 555.02,-61.86 537,-55 496.39,-39.53 448.1,-26.7 415.68,-18.85"/>
<polygon fill="#63b8ff" stroke="#63b8ff" points="416.29,-15.4 405.75,-16.49 414.66,-22.21 416.29,-15.4"/>
</a>
</g>
</g>
<!-- Node22&#45;&gt;Node9 -->
<g id="edge27_Node000022_Node000009" class="edge">
<title>Node22&#45;&gt;Node9</title>
<g id="a_edge27_Node000022_Node000009"><a xlink:title=" ">
<path fill="none" stroke="#63b8ff" d="M786.76,-109.98C816.94,-101.05 864.57,-86.94 898.1,-77.02"/>
<polygon fill="#63b8ff" stroke="#63b8ff" points="899.42,-80.28 908.02,-74.08 897.43,-73.57 899.42,-80.28"/>
</a>
</g>
</g>
<!-- Node25&#45;&gt;Node2 -->
<g id="edge33_Node000025_Node000002" class="edge">
<title>Node25&#45;&gt;Node2</title>
<g id="a_edge33_Node000025_Node000002"><a xlink:title=" ">
<path fill="none" stroke="#63b8ff" d="M566.9,-165.94C563.89,-165.62 560.92,-165.31 558,-165 422.23,-150.61 261.82,-133.67 184.02,-125.46"/>
<polygon fill="#63b8ff" stroke="#63b8ff" points="183.92,-121.93 173.6,-124.36 183.18,-128.89 183.92,-121.93"/>
</a>
</g>
</g>
<!-- Node25&#45;&gt;Node18 -->
<g id="edge34_Node000025_Node000018" class="edge">
<title>Node25&#45;&gt;Node18</title>
<g id="a_edge34_Node000025_Node000018"><a xlink:title=" ">
<path fill="none" stroke="#63b8ff" d="M592.21,-164.98C542.39,-155.72 462.72,-140.9 409.16,-130.94"/>
<polygon fill="#63b8ff" stroke="#63b8ff" points="409.62,-127.47 399.15,-129.08 408.34,-134.35 409.62,-127.47"/>
</a>
</g>
</g>
<!-- Node25&#45;&gt;Node23 -->
<g id="edge38_Node000025_Node000023" class="edge">
<title>Node25&#45;&gt;Node23</title>
<g id="a_edge38_Node000025_Node000023"><a xlink:title=" ">
<path fill="none" stroke="#63b8ff" d="M637.34,-164.75C636.82,-157.8 636.06,-147.85 635.41,-139.13"/>
<polygon fill="#63b8ff" stroke="#63b8ff" points="638.89,-138.8 634.65,-129.09 631.91,-139.32 638.89,-138.8"/>
</a>
</g>
</g>
<!-- Node26 -->
<g id="Node000026" class="node">
<title>Node26</title>
<g id="a_Node000026"><a xlink:href="_mutex_8h.html" target="_top" xlink:title=" ">
<polygon fill="white" stroke="#666666" points="1180.5,-129 1067.5,-129 1067.5,-110 1180.5,-110 1180.5,-129"/>
<text text-anchor="middle" x="1124" y="-117" font-family="Helvetica,sans-Serif" font-size="10.00">Kit/System/Mutex.h</text>
</a>
</g>
</g>
<!-- Node25&#45;&gt;Node26 -->
<g id="edge35_Node000025_Node000026" class="edge">
<title>Node25&#45;&gt;Node26</title>
<g id="a_edge35_Node000025_Node000026"><a xlink:title=" ">
<path fill="none" stroke="#63b8ff" d="M709.19,-165.74C802.84,-155.52 966.18,-137.71 1057.45,-127.76"/>
<polygon fill="#63b8ff" stroke="#63b8ff" points="1057.85,-131.24 1067.41,-126.67 1057.09,-124.28 1057.85,-131.24"/>
</a>
</g>
</g>
<!-- Node26&#45;&gt;Node3 -->
<g id="edge37_Node000026_Node000003" class="edge">
<title>Node26&#45;&gt;Node3</title>
<g id="a_edge37_Node000026_Node000003"><a xlink:title=" ">
<path fill="none" stroke="#63b8ff" d="M1133.8,-109.98C1142.82,-102.15 1156.41,-90.34 1167.32,-80.86"/>
<polygon fill="#63b8ff" stroke="#63b8ff" points="1169.77,-83.37 1175.02,-74.17 1165.18,-78.09 1169.77,-83.37"/>
</a>
</g>
</g>
<!-- Node26&#45;&gt;Node16 -->
<g id="edge36_Node000026_Node000016" class="edge">
<title>Node26&#45;&gt;Node16</title>
<g id="a_edge36_Node000026_Node000016"><a xlink:title=" ">
<path fill="none" stroke="#63b8ff" d="M1124,-109.66C1124,-92.17 1124,-52.8 1124,-29.27"/>
<polygon fill="#63b8ff" stroke="#63b8ff" points="1127.5,-29.16 1124,-19.16 1120.5,-29.16 1127.5,-29.16"/>
</a>
</g>
</g>
<!-- Node28 -->
<g id="Node000028" class="node">
<title>Node28</title>
<g id="a_Node000028"><a xlink:href="_d_list_base_8h.html" target="_top" xlink:title=" ">
<polygon fill="white" stroke="#666666" points="1010.5,-129 869.5,-129 869.5,-110 1010.5,-110 1010.5,-129"/>
<text text-anchor="middle" x="940" y="-117" font-family="Helvetica,sans-Serif" font-size="10.00">Kit/Container/DListBase.h</text>
</a>
</g>
</g>
<!-- Node27&#45;&gt;Node28 -->
<g id="edge41_Node000027_Node000028" class="edge">
<title>Node27&#45;&gt;Node28</title>
<g id="a_edge41_Node000027_Node000028"><a xlink:title=" ">
<path fill="none" stroke="#63b8ff" d="M934.99,-164.75C935.78,-157.8 936.9,-147.85 937.89,-139.13"/>
<polygon fill="#63b8ff" stroke="#63b8ff" points="941.38,-139.42 939.03,-129.09 934.42,-138.63 941.38,-139.42"/>
</a>
</g>
</g>
<!-- Node28&#45;&gt;Node9 -->
<g id="edge42_Node000028_Node000009" class="edge">
<title>Node28&#45;&gt;Node9</title>
<g id="a_edge42_Node000028_Node000009"><a xlink:title=" ">
<path fill="none" stroke="#63b8ff" d="M939.5,-109.75C939.11,-102.8 938.55,-92.85 938.05,-84.13"/>
<polygon fill="#63b8ff" stroke="#63b8ff" points="941.55,-83.88 937.49,-74.09 934.56,-84.27 941.55,-83.88"/>
</a>
</g>
</g>
<!-- Node29&#45;&gt;Node7 -->
<g id="edge48_Node000029_Node000007" class="edge">
<title>Node29&#45;&gt;Node7</title>
<g id="a_edge48_Node000029_Node000007"><a xlink:title=" ">
<path fill="none" stroke="#63b8ff" d="M519.94,-225.7C406.17,-218.48 144.7,-194.91 91,-129 20.63,-42.62 250.14,-18.52 342.36,-12.41"/>
<polygon fill="#63b8ff" stroke="#63b8ff" points="342.63,-15.9 352.39,-11.78 342.19,-8.91 342.63,-15.9"/>
</a>
</g>
</g>
<!-- Node29&#45;&gt;Node13 -->
<g id="edge47_Node000029_Node000013" class="edge">
<title>Node29&#45;&gt;Node13</title>
<g id="a_edge47_Node000029_Node000013"><a xlink:title=" ">
<path fill="none" stroke="#63b8ff" d="M559.5,-219.98C546.6,-211.84 526.9,-199.41 511.6,-189.76"/>
<polygon fill="#63b8ff" stroke="#63b8ff" points="513.07,-186.55 502.74,-184.17 509.33,-192.47 513.07,-186.55"/>
</a>
</g>
</g>
<!-- Node29&#45;&gt;Node22 -->
<g id="edge46_Node000029_Node000022" class="edge">
<title>Node29&#45;&gt;Node22</title>
<g id="a_edge46_Node000029_Node000022"><a xlink:title=" ">
<path fill="none" stroke="#63b8ff" d="M626.12,-221.47C655.55,-215.43 691.44,-204.32 718,-184 733.32,-172.28 744.3,-152.87 750.83,-138.59"/>
<polygon fill="#63b8ff" stroke="#63b8ff" points="754.1,-139.86 754.81,-129.29 747.66,-137.11 754.1,-139.86"/>
</a>
</g>
</g>
</g>
</svg>
