<?xml version="1.0" encoding="UTF-8" standalone="no"?>
<!DOCTYPE svg PUBLIC "-//W3C//DTD SVG 1.1//EN"
 "http://www.w3.org/Graphics/SVG/1.1/DTD/svg11.dtd">
<!-- Generated by graphviz version 2.43.0 (0)
 -->
<!-- Title: Kit/System/TimerManager.h Pages: 1 -->
<svg width="318pt" height="247pt"
 viewBox="0.00 0.00 318.25 247.00" xmlns="http://www.w3.org/2000/svg" xmlns:xlink="http://www.w3.org/1999/xlink">
<g id="graph0" class="graph" transform="scale(1 1) rotate(0) translate(4 243)">
<title>Kit/System/TimerManager.h</title>
<!-- Node1 -->
<g id="Node000001" class="node">
<title>Node1</title>
<g id="a_Node000001"><a xlink:title=" ">
<polygon fill="#999999" stroke="#666666" points="164.75,-239 12.75,-239 12.75,-220 164.75,-220 164.75,-239"/>
<text text-anchor="middle" x="88.75" y="-227" font-family="Helvetica,sans-Serif" font-size="10.00">Kit/System/TimerManager.h</text>
</a>
</g>
</g>
<!-- Node2 -->
<g id="Node000002" class="node">
<title>Node2</title>
<g id="a_Node000002"><a xlink:href="_i_counter_8h.html" target="_top" xlink:title=" ">
<polygon fill="white" stroke="#666666" points="149.75,-129 27.75,-129 27.75,-110 149.75,-110 149.75,-129"/>
<text text-anchor="middle" x="88.75" y="-117" font-family="Helvetica,sans-Serif" font-size="10.00">Kit/System/ICounter.h</text>
</a>
</g>
</g>
<!-- Node1&#45;&gt;Node2 -->
<g id="edge1_Node000001_Node000002" class="edge">
<title>Node1&#45;&gt;Node2</title>
<g id="a_edge1_Node000001_Node000002"><a xlink:title=" ">
<path fill="none" stroke="#63b8ff" d="M54.53,-219.93C36.04,-213.37 14.79,-202.24 3.75,-184 -10.39,-160.64 20.35,-143.04 48.73,-132.36"/>
<polygon fill="#63b8ff" stroke="#63b8ff" points="49.94,-135.65 58.2,-129.01 47.6,-129.05 49.94,-135.65"/>
</a>
</g>
</g>
<!-- Node6 -->
<g id="Node000006" class="node">
<title>Node6</title>
<g id="a_Node000006"><a xlink:href="_i_timing_source_8h.html" target="_top" xlink:title=" ">
<polygon fill="white" stroke="#666666" points="164.75,-184 12.75,-184 12.75,-165 164.75,-165 164.75,-184"/>
<text text-anchor="middle" x="88.75" y="-172" font-family="Helvetica,sans-Serif" font-size="10.00">Kit/System/ITimingSource.h</text>
</a>
</g>
</g>
<!-- Node1&#45;&gt;Node6 -->
<g id="edge5_Node000001_Node000006" class="edge">
<title>Node1&#45;&gt;Node6</title>
<g id="a_edge5_Node000001_Node000006"><a xlink:title=" ">
<path fill="none" stroke="#63b8ff" d="M88.75,-219.75C88.75,-212.8 88.75,-202.85 88.75,-194.13"/>
<polygon fill="#63b8ff" stroke="#63b8ff" points="92.25,-194.09 88.75,-184.09 85.25,-194.09 92.25,-194.09"/>
</a>
</g>
</g>
<!-- Node7 -->
<g id="Node000007" class="node">
<title>Node7</title>
<g id="a_Node000007"><a xlink:href="_d_list_8h.html" target="_top" xlink:title=" ">
<polygon fill="white" stroke="#666666" points="300.25,-184 183.25,-184 183.25,-165 300.25,-165 300.25,-184"/>
<text text-anchor="middle" x="241.75" y="-172" font-family="Helvetica,sans-Serif" font-size="10.00">Kit/Container/DList.h</text>
</a>
</g>
</g>
<!-- Node1&#45;&gt;Node7 -->
<g id="edge7_Node000001_Node000007" class="edge">
<title>Node1&#45;&gt;Node7</title>
<g id="a_edge7_Node000001_Node000007"><a xlink:title=" ">
<path fill="none" stroke="#63b8ff" d="M113.33,-219.98C138.79,-211.16 178.79,-197.31 207.38,-187.41"/>
<polygon fill="#63b8ff" stroke="#63b8ff" points="208.67,-190.66 216.97,-184.08 206.38,-184.05 208.67,-190.66"/>
</a>
</g>
</g>
<!-- Node3 -->
<g id="Node000003" class="node">
<title>Node3</title>
<g id="a_Node000003"><a xlink:href="_list_item_8h.html" target="_top" xlink:title=" ">
<polygon fill="white" stroke="#666666" points="284.75,-74 152.75,-74 152.75,-55 284.75,-55 284.75,-74"/>
<text text-anchor="middle" x="218.75" y="-62" font-family="Helvetica,sans-Serif" font-size="10.00">Kit/Container/ListItem.h</text>
</a>
</g>
</g>
<!-- Node2&#45;&gt;Node3 -->
<g id="edge2_Node000002_Node000003" class="edge">
<title>Node2&#45;&gt;Node3</title>
<g id="a_edge2_Node000002_Node000003"><a xlink:title=" ">
<path fill="none" stroke="#63b8ff" d="M109.63,-109.98C130.83,-101.34 163.87,-87.87 188.05,-78.02"/>
<polygon fill="#63b8ff" stroke="#63b8ff" points="189.54,-81.19 197.48,-74.17 186.9,-74.7 189.54,-81.19"/>
</a>
</g>
</g>
<!-- Node5 -->
<g id="Node000005" class="node">
<title>Node5</title>
<g id="a_Node000005"><a xlink:title=" ">
<polygon fill="#e0e0e0" stroke="#999999" points="115.25,-74 62.25,-74 62.25,-55 115.25,-55 115.25,-74"/>
<text text-anchor="middle" x="88.75" y="-62" font-family="Helvetica,sans-Serif" font-size="10.00">stdint.h</text>
</a>
</g>
</g>
<!-- Node2&#45;&gt;Node5 -->
<g id="edge4_Node000002_Node000005" class="edge">
<title>Node2&#45;&gt;Node5</title>
<g id="a_edge4_Node000002_Node000005"><a xlink:title=" ">
<path fill="none" stroke="#63b8ff" d="M88.75,-109.75C88.75,-102.8 88.75,-92.85 88.75,-84.13"/>
<polygon fill="#63b8ff" stroke="#63b8ff" points="92.25,-84.09 88.75,-74.09 85.25,-84.09 92.25,-84.09"/>
</a>
</g>
</g>
<!-- Node4 -->
<g id="Node000004" class="node">
<title>Node4</title>
<g id="a_Node000004"><a xlink:href="_item_8h.html" target="_top" xlink:title=" ">
<polygon fill="white" stroke="#666666" points="276.25,-19 161.25,-19 161.25,0 276.25,0 276.25,-19"/>
<text text-anchor="middle" x="218.75" y="-7" font-family="Helvetica,sans-Serif" font-size="10.00">Kit/Container/Item.h</text>
</a>
</g>
</g>
<!-- Node3&#45;&gt;Node4 -->
<g id="edge3_Node000003_Node000004" class="edge">
<title>Node3&#45;&gt;Node4</title>
<g id="a_edge3_Node000003_Node000004"><a xlink:title=" ">
<path fill="none" stroke="#63b8ff" d="M218.75,-54.75C218.75,-47.8 218.75,-37.85 218.75,-29.13"/>
<polygon fill="#63b8ff" stroke="#63b8ff" points="222.25,-29.09 218.75,-19.09 215.25,-29.09 222.25,-29.09"/>
</a>
</g>
</g>
<!-- Node6&#45;&gt;Node2 -->
<g id="edge6_Node000006_Node000002" class="edge">
<title>Node6&#45;&gt;Node2</title>
<g id="a_edge6_Node000006_Node000002"><a xlink:title=" ">
<path fill="none" stroke="#63b8ff" d="M88.75,-164.75C88.75,-157.8 88.75,-147.85 88.75,-139.13"/>
<polygon fill="#63b8ff" stroke="#63b8ff" points="92.25,-139.09 88.75,-129.09 85.25,-139.09 92.25,-139.09"/>
</a>
</g>
</g>
<!-- Node8 -->
<g id="Node000008" class="node">
<title>Node8</title>
<g id="a_Node000008"><a xlink:href="_d_list_base_8h.html" target="_top" xlink:title=" ">
<polygon fill="white" stroke="#666666" points="310.25,-129 169.25,-129 169.25,-110 310.25,-110 310.25,-129"/>
<text text-anchor="middle" x="239.75" y="-117" font-family="Helvetica,sans-Serif" font-size="10.00">Kit/Container/DListBase.h</text>
</a>
</g>
</g>
<!-- Node7&#45;&gt;Node8 -->
<g id="edge8_Node000007_Node000008" class="edge">
<title>Node7&#45;&gt;Node8</title>
<g id="a_edge8_Node000007_Node000008"><a xlink:title=" ">
<path fill="none" stroke="#63b8ff" d="M241.42,-164.75C241.16,-157.8 240.78,-147.85 240.45,-139.13"/>
<polygon fill="#63b8ff" stroke="#63b8ff" points="243.95,-138.95 240.07,-129.09 236.95,-139.21 243.95,-138.95"/>
</a>
</g>
</g>
<!-- Node8&#45;&gt;Node3 -->
<g id="edge9_Node000008_Node000003" class="edge">
<title>Node8&#45;&gt;Node3</title>
<g id="a_edge9_Node000008_Node000003"><a xlink:title=" ">
<path fill="none" stroke="#63b8ff" d="M236.28,-109.75C233.47,-102.65 229.41,-92.4 225.9,-83.56"/>
<polygon fill="#63b8ff" stroke="#63b8ff" points="229.09,-82.1 222.15,-74.09 222.58,-84.68 229.09,-82.1"/>
</a>
</g>
</g>
</g>
</svg>
