<?xml version="1.0" encoding="UTF-8" standalone="no"?>
<!DOCTYPE svg PUBLIC "-//W3C//DTD SVG 1.1//EN"
 "http://www.w3.org/Graphics/SVG/1.1/DTD/svg11.dtd">
<!-- Generated by graphviz version 2.43.0 (0)
 -->
<!-- Title: Kit/Type/TraverserStatus.h Pages: 1 -->
<svg width="1187pt" height="280pt"
 viewBox="0.00 0.00 1187.00 280.00" xmlns="http://www.w3.org/2000/svg" xmlns:xlink="http://www.w3.org/1999/xlink">
<g id="graph0" class="graph" transform="scale(1 1) rotate(0) translate(4 276)">
<title>Kit/Type/TraverserStatus.h</title>
<!-- Node1 -->
<g id="Node000001" class="node">
<title>Node1</title>
<g id="a_Node000001"><a xlink:title=" ">
<polygon fill="#999999" stroke="#666666" points="427,-272 284,-272 284,-253 427,-253 427,-272"/>
<text text-anchor="middle" x="355.5" y="-260" font-family="Helvetica,sans-Serif" font-size="10.00">Kit/Type/TraverserStatus.h</text>
</a>
</g>
</g>
<!-- Node2 -->
<g id="Node000002" class="node">
<title>Node2</title>
<g id="a_Node000002"><a xlink:href="_i_dir_traverser_8h.html" target="_top" xlink:title=" ">
<polygon fill="white" stroke="#666666" points="351.5,-217 215.5,-217 215.5,-198 351.5,-198 351.5,-217"/>
<text text-anchor="middle" x="283.5" y="-205" font-family="Helvetica,sans-Serif" font-size="10.00">Kit/Io/File/IDirTraverser.h</text>
</a>
</g>
</g>
<!-- Node1&#45;&gt;Node2 -->
<g id="edge1_Node000001_Node000002" class="edge">
<title>Node1&#45;&gt;Node2</title>
<g id="a_edge1_Node000001_Node000002"><a xlink:title=" ">
<path fill="none" stroke="#63b8ff" d="M335.63,-246.88C322.68,-237.34 306.2,-225.21 295.28,-217.17"/>
<polygon fill="#63b8ff" stroke="#63b8ff" points="333.8,-249.88 343.93,-252.98 337.95,-244.24 333.8,-249.88"/>
</a>
</g>
</g>
<!-- Node4 -->
<g id="Node000004" class="node">
<title>Node4</title>
<g id="a_Node000004"><a xlink:href="_thread_8h.html" target="_top" xlink:title=" ">
<polygon fill="white" stroke="#666666" points="638.5,-217 522.5,-217 522.5,-198 638.5,-198 638.5,-217"/>
<text text-anchor="middle" x="580.5" y="-205" font-family="Helvetica,sans-Serif" font-size="10.00">Kit/System/Thread.h</text>
</a>
</g>
</g>
<!-- Node1&#45;&gt;Node4 -->
<g id="edge3_Node000001_Node000004" class="edge">
<title>Node1&#45;&gt;Node4</title>
<g id="a_edge3_Node000001_Node000004"><a xlink:title=" ">
<path fill="none" stroke="#63b8ff" d="M401.39,-250.69C443.55,-240.76 505.2,-226.24 544.07,-217.08"/>
<polygon fill="#63b8ff" stroke="#63b8ff" points="400.58,-247.28 391.65,-252.98 402.19,-254.1 400.58,-247.28"/>
</a>
</g>
</g>
<!-- Node3 -->
<g id="Node000003" class="node">
<title>Node3</title>
<g id="a_Node000003"><a xlink:href="_dir_walker_8h.html" target="_top" xlink:title=" ">
<polygon fill="white" stroke="#666666" points="121,-156.5 0,-156.5 0,-137.5 121,-137.5 121,-156.5"/>
<text text-anchor="middle" x="60.5" y="-144.5" font-family="Helvetica,sans-Serif" font-size="10.00">Kit/Io/File/DirWalker.h</text>
</a>
</g>
</g>
<!-- Node2&#45;&gt;Node3 -->
<g id="edge2_Node000002_Node000003" class="edge">
<title>Node2&#45;&gt;Node3</title>
<g id="a_edge2_Node000002_Node000003"><a xlink:title=" ">
<path fill="none" stroke="#63b8ff" d="M241.17,-195.4C198.05,-184.08 132.12,-166.79 92.97,-156.52"/>
<polygon fill="#63b8ff" stroke="#63b8ff" points="240.51,-198.84 251.07,-197.99 242.29,-192.07 240.51,-198.84"/>
</a>
</g>
</g>
<!-- Node5 -->
<g id="Node000005" class="node">
<title>Node5</title>
<g id="a_Node000005"><a xlink:href="_stream_driver_8h.html" target="_top" xlink:title=" ">
<polygon fill="white" stroke="#666666" points="263.5,-162 139.5,-162 139.5,-132 263.5,-132 263.5,-162"/>
<text text-anchor="start" x="147.5" y="-150" font-family="Helvetica,sans-Serif" font-size="10.00">Kit/Io/Serial/ST/M32F4</text>
<text text-anchor="middle" x="201.5" y="-139" font-family="Helvetica,sans-Serif" font-size="10.00">/StreamDriver.h</text>
</a>
</g>
</g>
<!-- Node4&#45;&gt;Node5 -->
<g id="edge4_Node000004_Node000005" class="edge">
<title>Node4&#45;&gt;Node5</title>
<g id="a_edge4_Node000004_Node000005"><a xlink:title=" ">
<path fill="none" stroke="#63b8ff" d="M512.33,-197.67C449.81,-189.33 354.73,-176.04 272.5,-162 269.65,-161.51 266.74,-161 263.8,-160.47"/>
<polygon fill="#63b8ff" stroke="#63b8ff" points="512.09,-201.17 522.46,-199.02 513.01,-194.23 512.09,-201.17"/>
</a>
</g>
</g>
<!-- Node9 -->
<g id="Node000009" class="node">
<title>Node9</title>
<g id="a_Node000009"><a xlink:href="_sync_return_handler_8h.html" target="_top" xlink:title=" ">
<polygon fill="white" stroke="#666666" points="431.5,-156.5 281.5,-156.5 281.5,-137.5 431.5,-137.5 431.5,-156.5"/>
<text text-anchor="middle" x="356.5" y="-144.5" font-family="Helvetica,sans-Serif" font-size="10.00">Kit/Itc/SyncReturnHandler.h</text>
</a>
</g>
</g>
<!-- Node4&#45;&gt;Node9 -->
<g id="edge8_Node000004_Node000009" class="edge">
<title>Node4&#45;&gt;Node9</title>
<g id="a_edge8_Node000004_Node000009"><a xlink:title=" ">
<path fill="none" stroke="#63b8ff" d="M537.98,-195.4C494.67,-184.08 428.45,-166.79 389.11,-156.52"/>
<polygon fill="#63b8ff" stroke="#63b8ff" points="537.37,-198.85 547.93,-197.99 539.14,-192.08 537.37,-198.85"/>
</a>
</g>
</g>
<!-- Node10 -->
<g id="Node000010" class="node">
<title>Node10</title>
<g id="a_Node000010"><a xlink:href="_bare_metal_2_thread_8h.html" target="_top" xlink:title=" ">
<polygon fill="white" stroke="#666666" points="573,-162 450,-162 450,-132 573,-132 573,-162"/>
<text text-anchor="start" x="458" y="-150" font-family="Helvetica,sans-Serif" font-size="10.00">Kit/System/BareMetal</text>
<text text-anchor="middle" x="511.5" y="-139" font-family="Helvetica,sans-Serif" font-size="10.00">/Thread.h</text>
</a>
</g>
</g>
<!-- Node4&#45;&gt;Node10 -->
<g id="edge9_Node000004_Node000010" class="edge">
<title>Node4&#45;&gt;Node10</title>
<g id="a_edge9_Node000004_Node000010"><a xlink:title=" ">
<path fill="none" stroke="#63b8ff" d="M562.49,-191.23C551.87,-182.23 538.52,-170.91 528.15,-162.11"/>
<polygon fill="#63b8ff" stroke="#63b8ff" points="560.43,-194.07 570.32,-197.87 564.95,-188.73 560.43,-194.07"/>
</a>
</g>
</g>
<!-- Node11 -->
<g id="Node000011" class="node">
<title>Node11</title>
<g id="a_Node000011"><a xlink:href="_free_r_t_o_s_2_thread_8h.html" target="_top" xlink:title=" ">
<polygon fill="white" stroke="#666666" points="710,-162 591,-162 591,-132 710,-132 710,-162"/>
<text text-anchor="start" x="599" y="-150" font-family="Helvetica,sans-Serif" font-size="10.00">Kit/System/FreeRTOS</text>
<text text-anchor="middle" x="650.5" y="-139" font-family="Helvetica,sans-Serif" font-size="10.00">/Thread.h</text>
</a>
</g>
</g>
<!-- Node4&#45;&gt;Node11 -->
<g id="edge10_Node000004_Node000011" class="edge">
<title>Node4&#45;&gt;Node11</title>
<g id="a_edge10_Node000004_Node000011"><a xlink:title=" ">
<path fill="none" stroke="#63b8ff" d="M598.77,-191.23C609.54,-182.23 623.08,-170.91 633.61,-162.11"/>
<polygon fill="#63b8ff" stroke="#63b8ff" points="596.26,-188.77 590.83,-197.87 600.75,-194.14 596.26,-188.77"/>
</a>
</g>
</g>
<!-- Node12 -->
<g id="Node000012" class="node">
<title>Node12</title>
<g id="a_Node000012"><a xlink:href="_posix_2_thread_8h.html" target="_top" xlink:title=" ">
<polygon fill="white" stroke="#666666" points="873,-156.5 728,-156.5 728,-137.5 873,-137.5 873,-156.5"/>
<text text-anchor="middle" x="800.5" y="-144.5" font-family="Helvetica,sans-Serif" font-size="10.00">Kit/System/Posix/Thread.h</text>
</a>
</g>
</g>
<!-- Node4&#45;&gt;Node12 -->
<g id="edge11_Node000004_Node000012" class="edge">
<title>Node4&#45;&gt;Node12</title>
<g id="a_edge11_Node000004_Node000012"><a xlink:title=" ">
<path fill="none" stroke="#63b8ff" d="M622.26,-195.4C664.8,-184.08 729.84,-166.79 768.47,-156.52"/>
<polygon fill="#63b8ff" stroke="#63b8ff" points="621.25,-192.04 612.49,-197.99 623.05,-198.81 621.25,-192.04"/>
</a>
</g>
</g>
<!-- Node13 -->
<g id="Node000013" class="node">
<title>Node13</title>
<g id="a_Node000013"><a xlink:href="_sim_tick_8h.html" target="_top" xlink:title=" ">
<polygon fill="white" stroke="#666666" points="1012,-156.5 891,-156.5 891,-137.5 1012,-137.5 1012,-156.5"/>
<text text-anchor="middle" x="951.5" y="-144.5" font-family="Helvetica,sans-Serif" font-size="10.00">Kit/System/SimTick.h</text>
</a>
</g>
</g>
<!-- Node4&#45;&gt;Node13 -->
<g id="edge12_Node000004_Node000013" class="edge">
<title>Node4&#45;&gt;Node13</title>
<g id="a_edge12_Node000004_Node000013"><a xlink:title=" ">
<path fill="none" stroke="#63b8ff" d="M648.49,-197.55C709.8,-189.22 802.39,-176.02 882.5,-162 891.89,-160.36 901.97,-158.41 911.43,-156.51"/>
<polygon fill="#63b8ff" stroke="#63b8ff" points="647.98,-194.08 638.54,-198.89 648.92,-201.02 647.98,-194.08"/>
</a>
</g>
</g>
<!-- Node14 -->
<g id="Node000014" class="node">
<title>Node14</title>
<g id="a_Node000014"><a xlink:href="_win32_2_thread_8h.html" target="_top" xlink:title=" ">
<polygon fill="white" stroke="#666666" points="1179,-156.5 1030,-156.5 1030,-137.5 1179,-137.5 1179,-156.5"/>
<text text-anchor="middle" x="1104.5" y="-144.5" font-family="Helvetica,sans-Serif" font-size="10.00">Kit/System/Win32/Thread.h</text>
</a>
</g>
</g>
<!-- Node4&#45;&gt;Node14 -->
<g id="edge13_Node000004_Node000014" class="edge">
<title>Node4&#45;&gt;Node14</title>
<g id="a_edge13_Node000004_Node000014"><a xlink:title=" ">
<path fill="none" stroke="#63b8ff" d="M648.77,-201.03C735.59,-193.75 890,-179.7 1021.5,-162 1033.09,-160.44 1045.54,-158.49 1057.18,-156.54"/>
<polygon fill="#63b8ff" stroke="#63b8ff" points="648.46,-197.54 638.79,-201.86 649.04,-204.52 648.46,-197.54"/>
</a>
</g>
</g>
<!-- Node6 -->
<g id="Node000006" class="node">
<title>Node6</title>
<g id="a_Node000006"><a xlink:href="_serial_2_s_t_2_m32_f4_2_input_output_8h.html" target="_top" xlink:title=" ">
<polygon fill="white" stroke="#666666" points="263.5,-96 139.5,-96 139.5,-66 263.5,-66 263.5,-96"/>
<text text-anchor="start" x="147.5" y="-84" font-family="Helvetica,sans-Serif" font-size="10.00">Kit/Io/Serial/ST/M32F4</text>
<text text-anchor="middle" x="201.5" y="-73" font-family="Helvetica,sans-Serif" font-size="10.00">/InputOutput.h</text>
</a>
</g>
</g>
<!-- Node5&#45;&gt;Node6 -->
<g id="edge5_Node000005_Node000006" class="edge">
<title>Node5&#45;&gt;Node6</title>
<g id="a_edge5_Node000005_Node000006"><a xlink:title=" ">
<path fill="none" stroke="#63b8ff" d="M201.5,-121.54C201.5,-112.96 201.5,-103.61 201.5,-96.16"/>
<polygon fill="#63b8ff" stroke="#63b8ff" points="198,-121.8 201.5,-131.8 205,-121.8 198,-121.8"/>
</a>
</g>
</g>
<!-- Node7 -->
<g id="Node000007" class="node">
<title>Node7</title>
<g id="a_Node000007"><a xlink:href="baremetal___n_u_c_l_e_o-_f413_z_h_2stdio_8h.html" target="_top" xlink:title="By default the BSP provides a KIT IO Stream for application&#39; console.">
<polygon fill="white" stroke="#666666" points="193,-30 52,-30 52,0 193,0 193,-30"/>
<text text-anchor="start" x="60" y="-18" font-family="Helvetica,sans-Serif" font-size="10.00">Kit/Bsp/ST/baremetal</text>
<text text-anchor="middle" x="122.5" y="-7" font-family="Helvetica,sans-Serif" font-size="10.00">_NUCLEO&#45;F413ZH/stdio.h</text>
</a>
</g>
</g>
<!-- Node6&#45;&gt;Node7 -->
<g id="edge6_Node000006_Node000007" class="edge">
<title>Node6&#45;&gt;Node7</title>
<g id="a_edge6_Node000006_Node000007"><a xlink:title=" ">
<path fill="none" stroke="#63b8ff" d="M176.17,-59.48C164.36,-49.91 150.61,-38.77 139.98,-30.16"/>
<polygon fill="#63b8ff" stroke="#63b8ff" points="173.99,-62.22 183.97,-65.8 178.4,-56.78 173.99,-62.22"/>
</a>
</g>
</g>
<!-- Node8 -->
<g id="Node000008" class="node">
<title>Node8</title>
<g id="a_Node000008"><a xlink:href="freertos___n_u_c_l_e_o-_f413_z_h_2stdio_8h.html" target="_top" xlink:title="By default the BSP provides a KIT IO Stream for application&#39; console.">
<polygon fill="white" stroke="#666666" points="352,-30 211,-30 211,0 352,0 352,-30"/>
<text text-anchor="start" x="219" y="-18" font-family="Helvetica,sans-Serif" font-size="10.00">Kit/Bsp/ST/freertos</text>
<text text-anchor="middle" x="281.5" y="-7" font-family="Helvetica,sans-Serif" font-size="10.00">_NUCLEO&#45;F413ZH/stdio.h</text>
</a>
</g>
</g>
<!-- Node6&#45;&gt;Node8 -->
<g id="edge7_Node000006_Node000008" class="edge">
<title>Node6&#45;&gt;Node8</title>
<g id="a_edge7_Node000006_Node000008"><a xlink:title=" ">
<path fill="none" stroke="#63b8ff" d="M227.15,-59.48C239.11,-49.91 253.03,-38.77 263.8,-30.16"/>
<polygon fill="#63b8ff" stroke="#63b8ff" points="224.88,-56.82 219.25,-65.8 229.25,-62.28 224.88,-56.82"/>
</a>
</g>
</g>
</g>
</svg>
