<?xml version="1.0" encoding="UTF-8" standalone="no"?>
<!DOCTYPE svg PUBLIC "-//W3C//DTD SVG 1.1//EN"
 "http://www.w3.org/Graphics/SVG/1.1/DTD/svg11.dtd">
<!-- Generated by graphviz version 2.43.0 (0)
 -->
<!-- Title: Kit/Type/TraverserStatus.h Pages: 1 -->
<svg width="1637pt" height="214pt"
 viewBox="0.00 0.00 1636.50 214.00" xmlns="http://www.w3.org/2000/svg" xmlns:xlink="http://www.w3.org/1999/xlink">
<g id="graph0" class="graph" transform="scale(1 1) rotate(0) translate(4 210)">
<title>Kit/Type/TraverserStatus.h</title>
<!-- Node1 -->
<g id="Node000001" class="node">
<title>Node1</title>
<g id="a_Node000001"><a xlink:title=" ">
<polygon fill="#999999" stroke="#666666" points="502,-206 359,-206 359,-187 502,-187 502,-206"/>
<text text-anchor="middle" x="430.5" y="-194" font-family="Helvetica,sans-Serif" font-size="10.00">Kit/Type/TraverserStatus.h</text>
</a>
</g>
</g>
<!-- Node2 -->
<g id="Node000002" class="node">
<title>Node2</title>
<g id="a_Node000002"><a xlink:href="_i_dir_traverser_8h.html" target="_top" xlink:title=" ">
<polygon fill="white" stroke="#666666" points="426.5,-151 290.5,-151 290.5,-132 426.5,-132 426.5,-151"/>
<text text-anchor="middle" x="358.5" y="-139" font-family="Helvetica,sans-Serif" font-size="10.00">Kit/Io/File/IDirTraverser.h</text>
</a>
</g>
</g>
<!-- Node1&#45;&gt;Node2 -->
<g id="edge1_Node000001_Node000002" class="edge">
<title>Node1&#45;&gt;Node2</title>
<g id="a_edge1_Node000001_Node000002"><a xlink:title=" ">
<path fill="none" stroke="#63b8ff" d="M410.63,-180.88C397.68,-171.34 381.2,-159.21 370.28,-151.17"/>
<polygon fill="#63b8ff" stroke="#63b8ff" points="408.8,-183.88 418.93,-186.98 412.95,-178.24 408.8,-183.88"/>
</a>
</g>
</g>
<!-- Node4 -->
<g id="Node000004" class="node">
<title>Node4</title>
<g id="a_Node000004"><a xlink:href="_thread_8h.html" target="_top" xlink:title=" ">
<polygon fill="white" stroke="#666666" points="857.5,-151 741.5,-151 741.5,-132 857.5,-132 857.5,-151"/>
<text text-anchor="middle" x="799.5" y="-139" font-family="Helvetica,sans-Serif" font-size="10.00">Kit/System/Thread.h</text>
</a>
</g>
</g>
<!-- Node1&#45;&gt;Node4 -->
<g id="edge3_Node000001_Node000004" class="edge">
<title>Node1&#45;&gt;Node4</title>
<g id="a_edge3_Node000001_Node000004"><a xlink:title=" ">
<path fill="none" stroke="#63b8ff" d="M499.8,-185.55C569.5,-175.53 675.79,-160.27 741.27,-150.86"/>
<polygon fill="#63b8ff" stroke="#63b8ff" points="499.19,-182.1 489.79,-186.98 500.18,-189.03 499.19,-182.1"/>
</a>
</g>
</g>
<!-- Node3 -->
<g id="Node000003" class="node">
<title>Node3</title>
<g id="a_Node000003"><a xlink:href="_dir_walker_8h.html" target="_top" xlink:title=" ">
<polygon fill="white" stroke="#666666" points="121,-90.5 0,-90.5 0,-71.5 121,-71.5 121,-90.5"/>
<text text-anchor="middle" x="60.5" y="-78.5" font-family="Helvetica,sans-Serif" font-size="10.00">Kit/Io/File/DirWalker.h</text>
</a>
</g>
</g>
<!-- Node2&#45;&gt;Node3 -->
<g id="edge2_Node000002_Node000003" class="edge">
<title>Node2&#45;&gt;Node3</title>
<g id="a_edge2_Node000002_Node000003"><a xlink:title=" ">
<path fill="none" stroke="#63b8ff" d="M304.3,-130.1C257.89,-121.16 189.27,-107.87 129.5,-96 120.75,-94.26 111.38,-92.38 102.45,-90.57"/>
<polygon fill="#63b8ff" stroke="#63b8ff" points="303.67,-133.54 314.15,-131.99 304.99,-126.67 303.67,-133.54"/>
</a>
</g>
</g>
<!-- Node5 -->
<g id="Node000005" class="node">
<title>Node5</title>
<g id="a_Node000005"><a xlink:href="_serial_2_r_pi_2_r_p2xxx_2_uart_2_input_output_8h.html" target="_top" xlink:title=" ">
<polygon fill="white" stroke="#666666" points="270,-96 139,-96 139,-66 270,-66 270,-96"/>
<text text-anchor="start" x="147" y="-84" font-family="Helvetica,sans-Serif" font-size="10.00">Kit/Io/Serial/RPi/RP2xxx</text>
<text text-anchor="middle" x="204.5" y="-73" font-family="Helvetica,sans-Serif" font-size="10.00">/Uart/InputOutput.h</text>
</a>
</g>
</g>
<!-- Node4&#45;&gt;Node5 -->
<g id="edge4_Node000004_Node000005" class="edge">
<title>Node4&#45;&gt;Node5</title>
<g id="a_edge4_Node000004_Node000005"><a xlink:title=" ">
<path fill="none" stroke="#63b8ff" d="M730.96,-136.81C631.26,-130.94 440.57,-117.87 279.5,-96 276.48,-95.59 273.4,-95.14 270.29,-94.66"/>
<polygon fill="#63b8ff" stroke="#63b8ff" points="731.01,-140.31 741.19,-137.4 731.41,-133.33 731.01,-140.31"/>
</a>
</g>
</g>
<!-- Node6 -->
<g id="Node000006" class="node">
<title>Node6</title>
<g id="a_Node000006"><a xlink:href="_stream_driver_8h.html" target="_top" xlink:title=" ">
<polygon fill="white" stroke="#666666" points="412.5,-96 288.5,-96 288.5,-66 412.5,-66 412.5,-96"/>
<text text-anchor="start" x="296.5" y="-84" font-family="Helvetica,sans-Serif" font-size="10.00">Kit/Io/Serial/ST/M32F4</text>
<text text-anchor="middle" x="350.5" y="-73" font-family="Helvetica,sans-Serif" font-size="10.00">/StreamDriver.h</text>
</a>
</g>
</g>
<!-- Node4&#45;&gt;Node6 -->
<g id="edge5_Node000004_Node000006" class="edge">
<title>Node4&#45;&gt;Node6</title>
<g id="a_edge5_Node000004_Node000006"><a xlink:title=" ">
<path fill="none" stroke="#63b8ff" d="M730.98,-134.05C655.09,-126.52 529.2,-112.93 421.5,-96 418.65,-95.55 415.73,-95.07 412.79,-94.57"/>
<polygon fill="#63b8ff" stroke="#63b8ff" points="731.06,-137.57 741.35,-135.07 731.74,-130.6 731.06,-137.57"/>
</a>
</g>
</g>
<!-- Node8 -->
<g id="Node000008" class="node">
<title>Node8</title>
<g id="a_Node000008"><a xlink:href="_sync_return_handler_8h.html" target="_top" xlink:title=" ">
<polygon fill="white" stroke="#666666" points="580.5,-90.5 430.5,-90.5 430.5,-71.5 580.5,-71.5 580.5,-90.5"/>
<text text-anchor="middle" x="505.5" y="-78.5" font-family="Helvetica,sans-Serif" font-size="10.00">Kit/Itc/SyncReturnHandler.h</text>
</a>
</g>
</g>
<!-- Node4&#45;&gt;Node8 -->
<g id="edge7_Node000004_Node000008" class="edge">
<title>Node4&#45;&gt;Node8</title>
<g id="a_edge7_Node000004_Node000008"><a xlink:title=" ">
<path fill="none" stroke="#63b8ff" d="M746.9,-130.03C690.16,-118.74 600.91,-100.98 548.3,-90.52"/>
<polygon fill="#63b8ff" stroke="#63b8ff" points="746.26,-133.47 756.75,-131.99 747.63,-126.61 746.26,-133.47"/>
</a>
</g>
</g>
<!-- Node9 -->
<g id="Node000009" class="node">
<title>Node9</title>
<g id="a_Node000009"><a xlink:href="_bare_metal_2_thread_8h.html" target="_top" xlink:title=" ">
<polygon fill="white" stroke="#666666" points="722,-96 599,-96 599,-66 722,-66 722,-96"/>
<text text-anchor="start" x="607" y="-84" font-family="Helvetica,sans-Serif" font-size="10.00">Kit/System/BareMetal</text>
<text text-anchor="middle" x="660.5" y="-73" font-family="Helvetica,sans-Serif" font-size="10.00">/Thread.h</text>
</a>
</g>
</g>
<!-- Node4&#45;&gt;Node9 -->
<g id="edge8_Node000004_Node000009" class="edge">
<title>Node4&#45;&gt;Node9</title>
<g id="a_edge8_Node000004_Node000009"><a xlink:title=" ">
<path fill="none" stroke="#63b8ff" d="M769.99,-128.08C747.71,-118.7 717.1,-105.82 693.92,-96.06"/>
<polygon fill="#63b8ff" stroke="#63b8ff" points="768.71,-131.34 779.29,-131.99 771.43,-124.89 768.71,-131.34"/>
</a>
</g>
</g>
<!-- Node10 -->
<g id="Node000010" class="node">
<title>Node10</title>
<g id="a_Node000010"><a xlink:href="_free_r_t_o_s_2_thread_8h.html" target="_top" xlink:title=" ">
<polygon fill="white" stroke="#666666" points="859,-96 740,-96 740,-66 859,-66 859,-96"/>
<text text-anchor="start" x="748" y="-84" font-family="Helvetica,sans-Serif" font-size="10.00">Kit/System/FreeRTOS</text>
<text text-anchor="middle" x="799.5" y="-73" font-family="Helvetica,sans-Serif" font-size="10.00">/Thread.h</text>
</a>
</g>
</g>
<!-- Node4&#45;&gt;Node10 -->
<g id="edge9_Node000004_Node000010" class="edge">
<title>Node4&#45;&gt;Node10</title>
<g id="a_edge9_Node000004_Node000010"><a xlink:title=" ">
<path fill="none" stroke="#63b8ff" d="M799.5,-121.65C799.5,-113.36 799.5,-103.78 799.5,-96.11"/>
<polygon fill="#63b8ff" stroke="#63b8ff" points="796,-121.87 799.5,-131.87 803,-121.87 796,-121.87"/>
</a>
</g>
</g>
<!-- Node11 -->
<g id="Node000011" class="node">
<title>Node11</title>
<g id="a_Node000011"><a xlink:href="_posix_2_thread_8h.html" target="_top" xlink:title=" ">
<polygon fill="white" stroke="#666666" points="1022,-90.5 877,-90.5 877,-71.5 1022,-71.5 1022,-90.5"/>
<text text-anchor="middle" x="949.5" y="-78.5" font-family="Helvetica,sans-Serif" font-size="10.00">Kit/System/Posix/Thread.h</text>
</a>
</g>
</g>
<!-- Node4&#45;&gt;Node11 -->
<g id="edge10_Node000004_Node000011" class="edge">
<title>Node4&#45;&gt;Node11</title>
<g id="a_edge10_Node000004_Node000011"><a xlink:title=" ">
<path fill="none" stroke="#63b8ff" d="M830.96,-128.23C859.95,-116.92 902.21,-100.44 927.66,-90.52"/>
<polygon fill="#63b8ff" stroke="#63b8ff" points="829.36,-125.1 821.31,-131.99 831.9,-131.62 829.36,-125.1"/>
</a>
</g>
</g>
<!-- Node12 -->
<g id="Node000012" class="node">
<title>Node12</title>
<g id="a_Node000012"><a xlink:href="_r_p_pico_2_thread_8h.html" target="_top" xlink:title=" ">
<polygon fill="white" stroke="#666666" points="1192.5,-90.5 1040.5,-90.5 1040.5,-71.5 1192.5,-71.5 1192.5,-90.5"/>
<text text-anchor="middle" x="1116.5" y="-78.5" font-family="Helvetica,sans-Serif" font-size="10.00">Kit/System/RPPico/Thread.h</text>
</a>
</g>
</g>
<!-- Node4&#45;&gt;Node12 -->
<g id="edge11_Node000004_Node000012" class="edge">
<title>Node4&#45;&gt;Node12</title>
<g id="a_edge11_Node000004_Node000012"><a xlink:title=" ">
<path fill="none" stroke="#63b8ff" d="M855.46,-130.17C916.6,-118.89 1013.39,-101.03 1070.35,-90.52"/>
<polygon fill="#63b8ff" stroke="#63b8ff" points="854.79,-126.74 845.59,-131.99 856.06,-133.62 854.79,-126.74"/>
</a>
</g>
</g>
<!-- Node13 -->
<g id="Node000013" class="node">
<title>Node13</title>
<g id="a_Node000013"><a xlink:href="_sim_tick_8h.html" target="_top" xlink:title=" ">
<polygon fill="white" stroke="#666666" points="1332,-90.5 1211,-90.5 1211,-71.5 1332,-71.5 1332,-90.5"/>
<text text-anchor="middle" x="1271.5" y="-78.5" font-family="Helvetica,sans-Serif" font-size="10.00">Kit/System/SimTick.h</text>
</a>
</g>
</g>
<!-- Node4&#45;&gt;Node13 -->
<g id="edge12_Node000004_Node000013" class="edge">
<title>Node4&#45;&gt;Node13</title>
<g id="a_edge12_Node000004_Node000013"><a xlink:title=" ">
<path fill="none" stroke="#63b8ff" d="M867.59,-134.79C947.74,-127.64 1084.72,-114.11 1201.5,-96 1211.42,-94.46 1222.07,-92.5 1232,-90.53"/>
<polygon fill="#63b8ff" stroke="#63b8ff" points="867.28,-131.3 857.63,-135.67 867.9,-138.27 867.28,-131.3"/>
</a>
</g>
</g>
<!-- Node14 -->
<g id="Node000014" class="node">
<title>Node14</title>
<g id="a_Node000014"><a xlink:href="_win32_2_thread_8h.html" target="_top" xlink:title=" ">
<polygon fill="white" stroke="#666666" points="1499,-90.5 1350,-90.5 1350,-71.5 1499,-71.5 1499,-90.5"/>
<text text-anchor="middle" x="1424.5" y="-78.5" font-family="Helvetica,sans-Serif" font-size="10.00">Kit/System/Win32/Thread.h</text>
</a>
</g>
</g>
<!-- Node4&#45;&gt;Node14 -->
<g id="edge13_Node000004_Node000014" class="edge">
<title>Node4&#45;&gt;Node14</title>
<g id="a_edge13_Node000004_Node000014"><a xlink:title=" ">
<path fill="none" stroke="#63b8ff" d="M868.08,-136.75C971.13,-130.69 1171.9,-117.23 1341.5,-96 1353.39,-94.51 1366.18,-92.54 1378.07,-90.55"/>
<polygon fill="#63b8ff" stroke="#63b8ff" points="867.6,-133.27 857.82,-137.35 868.01,-140.26 867.6,-133.27"/>
</a>
</g>
</g>
<!-- Node15 -->
<g id="Node000015" class="node">
<title>Node15</title>
<g id="a_Node000015"><a xlink:href="helpers_8h.html" target="_top" xlink:title="This file defines helper functions/interface for writing unit tests.">
<polygon fill="white" stroke="#666666" points="1628.5,-96 1516.5,-96 1516.5,-66 1628.5,-66 1628.5,-96"/>
<text text-anchor="start" x="1524.5" y="-84" font-family="Helvetica,sans-Serif" font-size="10.00">Kit/_support/testing</text>
<text text-anchor="middle" x="1572.5" y="-73" font-family="Helvetica,sans-Serif" font-size="10.00">/helpers.h</text>
</a>
</g>
</g>
<!-- Node4&#45;&gt;Node15 -->
<g id="edge14_Node000004_Node000015" class="edge">
<title>Node4&#45;&gt;Node15</title>
<g id="a_edge14_Node000004_Node000015"><a xlink:title=" ">
<path fill="none" stroke="#63b8ff" d="M868.04,-139.67C994.99,-137.36 1275.05,-128.66 1508.5,-96 1511.09,-95.64 1513.73,-95.23 1516.4,-94.78"/>
<polygon fill="#63b8ff" stroke="#63b8ff" points="867.64,-136.17 857.7,-139.85 867.76,-143.17 867.64,-136.17"/>
</a>
</g>
</g>
<!-- Node7 -->
<g id="Node000007" class="node">
<title>Node7</title>
<g id="a_Node000007"><a xlink:href="_serial_2_s_t_2_m32_f4_2_input_output_8h.html" target="_top" xlink:title=" ">
<polygon fill="white" stroke="#666666" points="412.5,-30 288.5,-30 288.5,0 412.5,0 412.5,-30"/>
<text text-anchor="start" x="296.5" y="-18" font-family="Helvetica,sans-Serif" font-size="10.00">Kit/Io/Serial/ST/M32F4</text>
<text text-anchor="middle" x="350.5" y="-7" font-family="Helvetica,sans-Serif" font-size="10.00">/InputOutput.h</text>
</a>
</g>
</g>
<!-- Node6&#45;&gt;Node7 -->
<g id="edge6_Node000006_Node000007" class="edge">
<title>Node6&#45;&gt;Node7</title>
<g id="a_edge6_Node000006_Node000007"><a xlink:title=" ">
<path fill="none" stroke="#63b8ff" d="M350.5,-55.54C350.5,-46.96 350.5,-37.61 350.5,-30.16"/>
<polygon fill="#63b8ff" stroke="#63b8ff" points="347,-55.8 350.5,-65.8 354,-55.8 347,-55.8"/>
</a>
</g>
</g>
</g>
</svg>
