<?xml version="1.0" encoding="UTF-8" standalone="no"?>
<!DOCTYPE svg PUBLIC "-//W3C//DTD SVG 1.1//EN"
 "http://www.w3.org/Graphics/SVG/1.1/DTD/svg11.dtd">
<!-- Generated by graphviz version 2.43.0 (0)
 -->
<!-- Title: Kit/System/Trace.h Pages: 1 -->
<svg width="965pt" height="159pt"
 viewBox="0.00 0.00 964.50 159.00" xmlns="http://www.w3.org/2000/svg" xmlns:xlink="http://www.w3.org/1999/xlink">
<g id="graph0" class="graph" transform="scale(1 1) rotate(0) translate(4 155)">
<title>Kit/System/Trace.h</title>
<!-- Node1 -->
<g id="Node000001" class="node">
<title>Node1</title>
<g id="a_Node000001"><a xlink:title="This file provides an interface for a &#39;printf&#39; tracing mechanism.">
<polygon fill="#999999" stroke="#666666" points="530,-151 423,-151 423,-132 530,-132 530,-151"/>
<text text-anchor="middle" x="476.5" y="-139" font-family="Helvetica,sans-Serif" font-size="10.00">Kit/System/Trace.h</text>
</a>
</g>
</g>
<!-- Node2 -->
<g id="Node000002" class="node">
<title>Node2</title>
<g id="a_Node000002"><a xlink:href="_client_8h.html" target="_top" xlink:title=" ">
<polygon fill="white" stroke="#666666" points="149,-96 0,-96 0,-55 149,-55 149,-96"/>
<text text-anchor="start" x="8" y="-84" font-family="Helvetica,sans-Serif" font-size="10.00">/home/runner/work/kit.core</text>
<text text-anchor="start" x="8" y="-73" font-family="Helvetica,sans-Serif" font-size="10.00">/kit.core/projects/examples</text>
<text text-anchor="middle" x="74.5" y="-62" font-family="Helvetica,sans-Serif" font-size="10.00">/Dm/Transaction/Client.h</text>
</a>
</g>
</g>
<!-- Node1&#45;&gt;Node2 -->
<g id="edge1_Node000001_Node000002" class="edge">
<title>Node1&#45;&gt;Node2</title>
<g id="a_edge1_Node000001_Node000002"><a xlink:title=" ">
<path fill="none" stroke="#63b8ff" d="M412.81,-133.28C348.42,-125.58 246.16,-112.28 158.5,-96 155.41,-95.43 152.26,-94.82 149.08,-94.18"/>
<polygon fill="#63b8ff" stroke="#63b8ff" points="412.47,-136.76 422.81,-134.47 413.29,-129.81 412.47,-136.76"/>
</a>
</g>
</g>
<!-- Node3 -->
<g id="Node000003" class="node">
<title>Node3</title>
<g id="a_Node000003"><a xlink:href="projects_2examples_2_dm_2_transaction_2_server_8h.html" target="_top" xlink:title=" ">
<polygon fill="white" stroke="#666666" points="316,-96 167,-96 167,-55 316,-55 316,-96"/>
<text text-anchor="start" x="175" y="-84" font-family="Helvetica,sans-Serif" font-size="10.00">/home/runner/work/kit.core</text>
<text text-anchor="start" x="175" y="-73" font-family="Helvetica,sans-Serif" font-size="10.00">/kit.core/projects/examples</text>
<text text-anchor="middle" x="241.5" y="-62" font-family="Helvetica,sans-Serif" font-size="10.00">/Dm/Transaction/Server.h</text>
</a>
</g>
</g>
<!-- Node1&#45;&gt;Node3 -->
<g id="edge2_Node000001_Node000003" class="edge">
<title>Node1&#45;&gt;Node3</title>
<g id="a_edge2_Node000001_Node000003"><a xlink:title=" ">
<path fill="none" stroke="#63b8ff" d="M434.85,-129.16C401.17,-119.98 352.98,-106.86 313.13,-96.01"/>
<polygon fill="#63b8ff" stroke="#63b8ff" points="434.24,-132.62 444.81,-131.87 436.08,-125.86 434.24,-132.62"/>
</a>
</g>
</g>
<!-- Node4 -->
<g id="Node000004" class="node">
<title>Node4</title>
<g id="a_Node000004"><a xlink:href="_framework_2_log_8h.html" target="_top" xlink:title="This file declares the public facing Logging interface for generating log entries.">
<polygon fill="white" stroke="#666666" points="463,-90.5 334,-90.5 334,-60.5 463,-60.5 463,-90.5"/>
<text text-anchor="start" x="342" y="-78.5" font-family="Helvetica,sans-Serif" font-size="10.00">Kit/Logging/Framework</text>
<text text-anchor="middle" x="398.5" y="-67.5" font-family="Helvetica,sans-Serif" font-size="10.00">/Log.h</text>
</a>
</g>
</g>
<!-- Node1&#45;&gt;Node4 -->
<g id="edge3_Node000001_Node000004" class="edge">
<title>Node1&#45;&gt;Node4</title>
<g id="a_edge3_Node000001_Node000004"><a xlink:title=" ">
<path fill="none" stroke="#63b8ff" d="M458.24,-125.52C445.39,-114.98 428.31,-100.96 415.7,-90.62"/>
<polygon fill="#63b8ff" stroke="#63b8ff" points="456.03,-128.23 465.98,-131.87 460.47,-122.82 456.03,-128.23"/>
</a>
</g>
</g>
<!-- Node6 -->
<g id="Node000006" class="node">
<title>Node6</title>
<g id="a_Node000006"><a xlink:href="_integer_expression_parser_8h.html" target="_top" xlink:title="This file contains a collection of methods that parses a null terminated string that contains an arit...">
<polygon fill="white" stroke="#666666" points="630,-90.5 481,-90.5 481,-60.5 630,-60.5 630,-90.5"/>
<text text-anchor="start" x="489" y="-78.5" font-family="Helvetica,sans-Serif" font-size="10.00">Kit/Math/IntegerExpression</text>
<text text-anchor="middle" x="555.5" y="-67.5" font-family="Helvetica,sans-Serif" font-size="10.00">Parser.h</text>
</a>
</g>
</g>
<!-- Node1&#45;&gt;Node6 -->
<g id="edge5_Node000001_Node000006" class="edge">
<title>Node1&#45;&gt;Node6</title>
<g id="a_edge5_Node000001_Node000006"><a xlink:title=" ">
<path fill="none" stroke="#63b8ff" d="M495,-125.52C508.01,-114.98 525.31,-100.96 538.08,-90.62"/>
<polygon fill="#63b8ff" stroke="#63b8ff" points="492.72,-122.85 487.15,-131.87 497.13,-128.29 492.72,-122.85"/>
</a>
</g>
</g>
<!-- Node7 -->
<g id="Node000007" class="node">
<title>Node7</title>
<g id="a_Node000007"><a xlink:href="_real_expression_parser_8h.html" target="_top" xlink:title="This file contains a collection of methods that parses a null terminated string that contains an arit...">
<polygon fill="white" stroke="#666666" points="822.5,-85 648.5,-85 648.5,-66 822.5,-66 822.5,-85"/>
<text text-anchor="middle" x="735.5" y="-73" font-family="Helvetica,sans-Serif" font-size="10.00">Kit/Math/RealExpressionParser.h</text>
</a>
</g>
</g>
<!-- Node1&#45;&gt;Node7 -->
<g id="edge6_Node000001_Node000007" class="edge">
<title>Node1&#45;&gt;Node7</title>
<g id="a_edge6_Node000001_Node000007"><a xlink:title=" ">
<path fill="none" stroke="#63b8ff" d="M520.93,-129.52C571.97,-116.91 654.63,-96.48 701.04,-85.01"/>
<polygon fill="#63b8ff" stroke="#63b8ff" points="520.03,-126.14 511.16,-131.94 521.71,-132.93 520.03,-126.14"/>
</a>
</g>
</g>
<!-- Node8 -->
<g id="Node000008" class="node">
<title>Node8</title>
<g id="a_Node000008"><a xlink:href="_private_8h.html" target="_top" xlink:title="This file contains a collection of classes, interfaces, etc.">
<polygon fill="white" stroke="#666666" points="956.5,-85 840.5,-85 840.5,-66 956.5,-66 956.5,-85"/>
<text text-anchor="middle" x="898.5" y="-73" font-family="Helvetica,sans-Serif" font-size="10.00">Kit/System/Private.h</text>
</a>
</g>
</g>
<!-- Node1&#45;&gt;Node8 -->
<g id="edge7_Node000001_Node000008" class="edge">
<title>Node1&#45;&gt;Node8</title>
<g id="a_edge7_Node000001_Node000008"><a xlink:title=" ">
<path fill="none" stroke="#63b8ff" d="M540.35,-135.57C611.8,-129.34 730.77,-116.84 831.5,-96 845.26,-93.15 860.31,-88.88 872.65,-85.06"/>
<polygon fill="#63b8ff" stroke="#63b8ff" points="539.82,-132.1 530.16,-136.44 540.42,-139.07 539.82,-132.1"/>
</a>
</g>
</g>
<!-- Node5 -->
<g id="Node000005" class="node">
<title>Node5</title>
<g id="a_Node000005"><a xlink:href="_pkg_2_log_8h.html" target="_top" xlink:title="This file declares the Logging functions available to the KIT Logging Domain.">
<polygon fill="white" stroke="#666666" points="459.5,-19 337.5,-19 337.5,0 459.5,0 459.5,-19"/>
<text text-anchor="middle" x="398.5" y="-7" font-family="Helvetica,sans-Serif" font-size="10.00">Kit/Logging/Pkg/Log.h</text>
</a>
</g>
</g>
<!-- Node4&#45;&gt;Node5 -->
<g id="edge4_Node000004_Node000005" class="edge">
<title>Node4&#45;&gt;Node5</title>
<g id="a_edge4_Node000004_Node000005"><a xlink:title=" ">
<path fill="none" stroke="#63b8ff" d="M398.5,-50.1C398.5,-39.3 398.5,-27.28 398.5,-19.34"/>
<polygon fill="#63b8ff" stroke="#63b8ff" points="395,-50.3 398.5,-60.3 402,-50.3 395,-50.3"/>
</a>
</g>
</g>
</g>
</svg>
