<?xml version="1.0" encoding="UTF-8" standalone="no"?>
<!DOCTYPE svg PUBLIC "-//W3C//DTD SVG 1.1//EN"
 "http://www.w3.org/Graphics/SVG/1.1/DTD/svg11.dtd">
<!-- Generated by graphviz version 2.43.0 (0)
 -->
<!-- Title: Kit/System/Trace.h Pages: 1 -->
<svg width="731pt" height="247pt"
 viewBox="0.00 0.00 731.00 247.00" xmlns="http://www.w3.org/2000/svg" xmlns:xlink="http://www.w3.org/1999/xlink">
<g id="graph0" class="graph" transform="scale(1 1) rotate(0) translate(4 243)">
<title>Kit/System/Trace.h</title>
<!-- Node1 -->
<g id="Node000001" class="node">
<title>Node1</title>
<g id="a_Node000001"><a xlink:title="This file provides an interface for a &#39;printf&#39; tracing mechanism.">
<polygon fill="#999999" stroke="#666666" points="411,-239 304,-239 304,-220 411,-220 411,-239"/>
<text text-anchor="middle" x="357.5" y="-227" font-family="Helvetica,sans-Serif" font-size="10.00">Kit/System/Trace.h</text>
</a>
</g>
</g>
<!-- Node2 -->
<g id="Node000002" class="node">
<title>Node2</title>
<g id="a_Node000002"><a xlink:title=" ">
<polygon fill="#e0e0e0" stroke="#999999" points="723,-19 650,-19 650,0 723,0 723,-19"/>
<text text-anchor="middle" x="686.5" y="-7" font-family="Helvetica,sans-Serif" font-size="10.00">kit_config.h</text>
</a>
</g>
</g>
<!-- Node1&#45;&gt;Node2 -->
<g id="edge1_Node000001_Node000002" class="edge">
<title>Node1&#45;&gt;Node2</title>
<g id="a_edge1_Node000001_Node000002"><a xlink:title=" ">
<path fill="none" stroke="#63b8ff" d="M411.24,-221.14C500.19,-207.75 671.76,-176.32 707.5,-129 730.07,-99.12 710.75,-53 697.13,-28.02"/>
<polygon fill="#63b8ff" stroke="#63b8ff" points="700.12,-26.22 692.11,-19.28 694.05,-29.7 700.12,-26.22"/>
</a>
</g>
</g>
<!-- Node3 -->
<g id="Node000003" class="node">
<title>Node3</title>
<g id="a_Node000003"><a xlink:href="_i_string_8h.html" target="_top" xlink:title=" ">
<polygon fill="white" stroke="#666666" points="366,-129 269,-129 269,-110 366,-110 366,-129"/>
<text text-anchor="middle" x="317.5" y="-117" font-family="Helvetica,sans-Serif" font-size="10.00">Kit/Text/IString.h</text>
</a>
</g>
</g>
<!-- Node1&#45;&gt;Node3 -->
<g id="edge2_Node000001_Node000003" class="edge">
<title>Node1&#45;&gt;Node3</title>
<g id="a_edge2_Node000001_Node000003"><a xlink:title=" ">
<path fill="none" stroke="#63b8ff" d="M354.2,-219.99C350.74,-211.04 345.17,-196.56 340.5,-184 334.81,-168.72 328.52,-151.3 323.95,-138.58"/>
<polygon fill="#63b8ff" stroke="#63b8ff" points="327.24,-137.38 320.58,-129.14 320.65,-139.74 327.24,-137.38"/>
</a>
</g>
</g>
<!-- Node8 -->
<g id="Node000008" class="node">
<title>Node8</title>
<g id="a_Node000008"><a xlink:href="printfchecker_8h.html" target="_top" xlink:title="This file contains macro that enables the GCC (and Clang) compiler to validate printf flags with thei...">
<polygon fill="white" stroke="#666666" points="145,-74 0,-74 0,-55 145,-55 145,-74"/>
<text text-anchor="middle" x="72.5" y="-62" font-family="Helvetica,sans-Serif" font-size="10.00">Kit/System/printfchecker.h</text>
</a>
</g>
</g>
<!-- Node1&#45;&gt;Node8 -->
<g id="edge10_Node000001_Node000008" class="edge">
<title>Node1&#45;&gt;Node8</title>
<g id="a_edge10_Node000001_Node000008"><a xlink:title=" ">
<path fill="none" stroke="#63b8ff" d="M342.58,-219.97C296.13,-193.4 153.82,-112.01 96.65,-79.31"/>
<polygon fill="#63b8ff" stroke="#63b8ff" points="98.04,-76.07 87.62,-74.15 94.56,-82.15 98.04,-76.07"/>
</a>
</g>
</g>
<!-- Node11 -->
<g id="Node000011" class="node">
<title>Node11</title>
<g id="a_Node000011"><a xlink:href="_i_output_8h.html" target="_top" xlink:title=" ">
<polygon fill="white" stroke="#666666" points="439.5,-184 349.5,-184 349.5,-165 439.5,-165 439.5,-184"/>
<text text-anchor="middle" x="394.5" y="-172" font-family="Helvetica,sans-Serif" font-size="10.00">Kit/Io/IOutput.h</text>
</a>
</g>
</g>
<!-- Node1&#45;&gt;Node11 -->
<g id="edge11_Node000001_Node000011" class="edge">
<title>Node1&#45;&gt;Node11</title>
<g id="a_edge11_Node000001_Node000011"><a xlink:title=" ">
<path fill="none" stroke="#63b8ff" d="M363.61,-219.75C368.78,-212.34 376.35,-201.5 382.69,-192.41"/>
<polygon fill="#63b8ff" stroke="#63b8ff" points="385.65,-194.29 388.5,-184.09 379.91,-190.29 385.65,-194.29"/>
</a>
</g>
</g>
<!-- Node4 -->
<g id="Node000004" class="node">
<title>Node4</title>
<g id="a_Node000004"><a xlink:href="_key_8h.html" target="_top" xlink:title=" ">
<polygon fill="white" stroke="#666666" points="272,-74 163,-74 163,-55 272,-55 272,-74"/>
<text text-anchor="middle" x="217.5" y="-62" font-family="Helvetica,sans-Serif" font-size="10.00">Kit/Container/Key.h</text>
</a>
</g>
</g>
<!-- Node3&#45;&gt;Node4 -->
<g id="edge3_Node000003_Node000004" class="edge">
<title>Node3&#45;&gt;Node4</title>
<g id="a_edge3_Node000003_Node000004"><a xlink:title=" ">
<path fill="none" stroke="#63b8ff" d="M301.43,-109.98C285.64,-101.61 261.28,-88.7 242.87,-78.95"/>
<polygon fill="#63b8ff" stroke="#63b8ff" points="244.33,-75.76 233.86,-74.17 241.06,-81.95 244.33,-75.76"/>
</a>
</g>
</g>
<!-- Node3&#45;&gt;Node8 -->
<g id="edge7_Node000003_Node000008" class="edge">
<title>Node3&#45;&gt;Node8</title>
<g id="a_edge7_Node000003_Node000008"><a xlink:title=" ">
<path fill="none" stroke="#63b8ff" d="M278.14,-109.98C235.76,-100.82 168.24,-86.21 122.22,-76.26"/>
<polygon fill="#63b8ff" stroke="#63b8ff" points="122.69,-72.78 112.17,-74.08 121.21,-79.62 122.69,-72.78"/>
</a>
</g>
</g>
<!-- Node9 -->
<g id="Node000009" class="node">
<title>Node9</title>
<g id="a_Node000009"><a xlink:title=" ">
<polygon fill="#e0e0e0" stroke="#999999" points="424.5,-74 368.5,-74 368.5,-55 424.5,-55 424.5,-74"/>
<text text-anchor="middle" x="396.5" y="-62" font-family="Helvetica,sans-Serif" font-size="10.00">stdarg.h</text>
</a>
</g>
</g>
<!-- Node3&#45;&gt;Node9 -->
<g id="edge8_Node000003_Node000009" class="edge">
<title>Node3&#45;&gt;Node9</title>
<g id="a_edge8_Node000003_Node000009"><a xlink:title=" ">
<path fill="none" stroke="#63b8ff" d="M330.19,-109.98C342.33,-101.84 360.86,-89.41 375.25,-79.76"/>
<polygon fill="#63b8ff" stroke="#63b8ff" points="377.22,-82.65 383.58,-74.17 373.32,-76.84 377.22,-82.65"/>
</a>
</g>
</g>
<!-- Node10 -->
<g id="Node000010" class="node">
<title>Node10</title>
<g id="a_Node000010"><a xlink:title=" ">
<polygon fill="#e0e0e0" stroke="#999999" points="350.5,-74 290.5,-74 290.5,-55 350.5,-55 350.5,-74"/>
<text text-anchor="middle" x="320.5" y="-62" font-family="Helvetica,sans-Serif" font-size="10.00">iostream</text>
</a>
</g>
</g>
<!-- Node3&#45;&gt;Node10 -->
<g id="edge9_Node000003_Node000010" class="edge">
<title>Node3&#45;&gt;Node10</title>
<g id="a_edge9_Node000003_Node000010"><a xlink:title=" ">
<path fill="none" stroke="#63b8ff" d="M318,-109.75C318.39,-102.8 318.95,-92.85 319.45,-84.13"/>
<polygon fill="#63b8ff" stroke="#63b8ff" points="322.94,-84.27 320.01,-74.09 315.95,-83.88 322.94,-84.27"/>
</a>
</g>
</g>
<!-- Node5 -->
<g id="Node000005" class="node">
<title>Node5</title>
<g id="a_Node000005"><a xlink:title=" ">
<polygon fill="#e0e0e0" stroke="#999999" points="479,-19 426,-19 426,0 479,0 479,-19"/>
<text text-anchor="middle" x="452.5" y="-7" font-family="Helvetica,sans-Serif" font-size="10.00">stdint.h</text>
</a>
</g>
</g>
<!-- Node4&#45;&gt;Node5 -->
<g id="edge4_Node000004_Node000005" class="edge">
<title>Node4&#45;&gt;Node5</title>
<g id="a_edge4_Node000004_Node000005"><a xlink:title=" ">
<path fill="none" stroke="#63b8ff" d="M255.26,-54.98C299.46,-45.02 372.17,-28.62 415.88,-18.76"/>
<polygon fill="#63b8ff" stroke="#63b8ff" points="416.81,-22.14 425.8,-16.52 415.27,-15.31 416.81,-22.14"/>
</a>
</g>
</g>
<!-- Node6 -->
<g id="Node000006" class="node">
<title>Node6</title>
<g id="a_Node000006"><a xlink:title=" ">
<polygon fill="#e0e0e0" stroke="#999999" points="208,-19 155,-19 155,0 208,0 208,-19"/>
<text text-anchor="middle" x="181.5" y="-7" font-family="Helvetica,sans-Serif" font-size="10.00">stdlib.h</text>
</a>
</g>
</g>
<!-- Node4&#45;&gt;Node6 -->
<g id="edge5_Node000004_Node000006" class="edge">
<title>Node4&#45;&gt;Node6</title>
<g id="a_edge5_Node000004_Node000006"><a xlink:title=" ">
<path fill="none" stroke="#63b8ff" d="M211.56,-54.75C206.52,-47.34 199.16,-36.5 192.99,-27.41"/>
<polygon fill="#63b8ff" stroke="#63b8ff" points="195.85,-25.39 187.33,-19.09 190.06,-29.33 195.85,-25.39"/>
</a>
</g>
</g>
<!-- Node7 -->
<g id="Node000007" class="node">
<title>Node7</title>
<g id="a_Node000007"><a xlink:title=" ">
<polygon fill="#e0e0e0" stroke="#999999" points="279,-19 226,-19 226,0 279,0 279,-19"/>
<text text-anchor="middle" x="252.5" y="-7" font-family="Helvetica,sans-Serif" font-size="10.00">limits.h</text>
</a>
</g>
</g>
<!-- Node4&#45;&gt;Node7 -->
<g id="edge6_Node000004_Node000007" class="edge">
<title>Node4&#45;&gt;Node7</title>
<g id="a_edge6_Node000004_Node000007"><a xlink:title=" ">
<path fill="none" stroke="#63b8ff" d="M223.28,-54.75C228.12,-47.42 235.18,-36.73 241.14,-27.7"/>
<polygon fill="#63b8ff" stroke="#63b8ff" points="244.24,-29.36 246.83,-19.09 238.4,-25.5 244.24,-29.36"/>
</a>
</g>
</g>
<!-- Node11&#45;&gt;Node3 -->
<g id="edge19_Node000011_Node000003" class="edge">
<title>Node11&#45;&gt;Node3</title>
<g id="a_edge19_Node000011_Node000003"><a xlink:title=" ">
<path fill="none" stroke="#63b8ff" d="M382.13,-164.98C370.41,-156.92 352.58,-144.65 338.61,-135.03"/>
<polygon fill="#63b8ff" stroke="#63b8ff" points="340.32,-131.96 330.1,-129.17 336.35,-137.72 340.32,-131.96"/>
</a>
</g>
</g>
<!-- Node11&#45;&gt;Node8 -->
<g id="edge22_Node000011_Node000008" class="edge">
<title>Node11&#45;&gt;Node8</title>
<g id="a_edge22_Node000011_Node000008"><a xlink:title=" ">
<path fill="none" stroke="#63b8ff" d="M368.34,-164.96C341.13,-156.05 297.3,-141.65 259.5,-129 206.45,-111.25 145.06,-90.33 107.51,-77.49"/>
<polygon fill="#63b8ff" stroke="#63b8ff" points="108.18,-74.02 97.58,-74.1 105.91,-80.64 108.18,-74.02"/>
</a>
</g>
</g>
<!-- Node11&#45;&gt;Node9 -->
<g id="edge23_Node000011_Node000009" class="edge">
<title>Node11&#45;&gt;Node9</title>
<g id="a_edge23_Node000011_Node000009"><a xlink:title=" ">
<path fill="none" stroke="#63b8ff" d="M394.66,-164.66C394.99,-147.17 395.72,-107.8 396.15,-84.27"/>
<polygon fill="#63b8ff" stroke="#63b8ff" points="399.65,-84.22 396.34,-74.16 392.66,-84.09 399.65,-84.22"/>
</a>
</g>
</g>
<!-- Node12 -->
<g id="Node000012" class="node">
<title>Node12</title>
<g id="a_Node000012"><a xlink:href="_io_2types_8h.html" target="_top" xlink:title=" ">
<polygon fill="white" stroke="#666666" points="504.5,-129 422.5,-129 422.5,-110 504.5,-110 504.5,-129"/>
<text text-anchor="middle" x="463.5" y="-117" font-family="Helvetica,sans-Serif" font-size="10.00">Kit/Io/Types.h</text>
</a>
</g>
</g>
<!-- Node11&#45;&gt;Node12 -->
<g id="edge12_Node000011_Node000012" class="edge">
<title>Node11&#45;&gt;Node12</title>
<g id="a_edge12_Node000011_Node000012"><a xlink:title=" ">
<path fill="none" stroke="#63b8ff" d="M405.59,-164.98C415.99,-157 431.76,-144.88 444.22,-135.31"/>
<polygon fill="#63b8ff" stroke="#63b8ff" points="446.41,-138.04 452.21,-129.17 442.15,-132.49 446.41,-138.04"/>
</a>
</g>
</g>
<!-- Node15 -->
<g id="Node000015" class="node">
<title>Node15</title>
<g id="a_Node000015"><a xlink:href="_io_2_i_close_8h.html" target="_top" xlink:title=" ">
<polygon fill="white" stroke="#666666" points="606.5,-129 522.5,-129 522.5,-110 606.5,-110 606.5,-129"/>
<text text-anchor="middle" x="564.5" y="-117" font-family="Helvetica,sans-Serif" font-size="10.00">Kit/Io/IClose.h</text>
</a>
</g>
</g>
<!-- Node11&#45;&gt;Node15 -->
<g id="edge20_Node000011_Node000015" class="edge">
<title>Node11&#45;&gt;Node15</title>
<g id="a_edge20_Node000011_Node000015"><a xlink:title=" ">
<path fill="none" stroke="#63b8ff" d="M421.81,-164.98C450.35,-156.09 495.33,-142.07 527.14,-132.15"/>
<polygon fill="#63b8ff" stroke="#63b8ff" points="528.47,-135.4 536.97,-129.08 526.38,-128.72 528.47,-135.4"/>
</a>
</g>
</g>
<!-- Node16 -->
<g id="Node000016" class="node">
<title>Node16</title>
<g id="a_Node000016"><a xlink:href="_i_eos_8h.html" target="_top" xlink:title=" ">
<polygon fill="white" stroke="#666666" points="698.5,-129 624.5,-129 624.5,-110 698.5,-110 698.5,-129"/>
<text text-anchor="middle" x="661.5" y="-117" font-family="Helvetica,sans-Serif" font-size="10.00">Kit/Io/IEos.h</text>
</a>
</g>
</g>
<!-- Node11&#45;&gt;Node16 -->
<g id="edge21_Node000011_Node000016" class="edge">
<title>Node11&#45;&gt;Node16</title>
<g id="a_edge21_Node000011_Node000016"><a xlink:title=" ">
<path fill="none" stroke="#63b8ff" d="M437.4,-164.98C485.8,-155.38 564.3,-139.79 614.38,-129.85"/>
<polygon fill="#63b8ff" stroke="#63b8ff" points="615.18,-133.26 624.31,-127.88 613.82,-126.4 615.18,-133.26"/>
</a>
</g>
</g>
<!-- Node12&#45;&gt;Node2 -->
<g id="edge13_Node000012_Node000002" class="edge">
<title>Node12&#45;&gt;Node2</title>
<g id="a_edge13_Node000012_Node000002"><a xlink:title=" ">
<path fill="none" stroke="#63b8ff" d="M504.7,-110.62C562.55,-99.4 661.5,-79.56 667.5,-74 679.75,-62.64 684.22,-43.74 685.79,-29.51"/>
<polygon fill="#63b8ff" stroke="#63b8ff" points="689.3,-29.55 686.52,-19.33 682.31,-29.05 689.3,-29.55"/>
</a>
</g>
</g>
<!-- Node12&#45;&gt;Node5 -->
<g id="edge18_Node000012_Node000005" class="edge">
<title>Node12&#45;&gt;Node5</title>
<g id="a_edge18_Node000012_Node000005"><a xlink:title=" ">
<path fill="none" stroke="#63b8ff" d="M462.6,-109.66C460.82,-92.17 456.81,-52.8 454.41,-29.27"/>
<polygon fill="#63b8ff" stroke="#63b8ff" points="457.88,-28.75 453.38,-19.16 450.91,-29.46 457.88,-28.75"/>
</a>
</g>
</g>
<!-- Node13 -->
<g id="Node000013" class="node">
<title>Node13</title>
<g id="a_Node000013"><a xlink:title=" ">
<polygon fill="#e0e0e0" stroke="#999999" points="546,-74 481,-74 481,-55 546,-55 546,-74"/>
<text text-anchor="middle" x="513.5" y="-62" font-family="Helvetica,sans-Serif" font-size="10.00">kit_map.h</text>
</a>
</g>
</g>
<!-- Node12&#45;&gt;Node13 -->
<g id="edge14_Node000012_Node000013" class="edge">
<title>Node12&#45;&gt;Node13</title>
<g id="a_edge14_Node000012_Node000013"><a xlink:title=" ">
<path fill="none" stroke="#63b8ff" d="M471.76,-109.75C478.96,-102.11 489.61,-90.82 498.35,-81.56"/>
<polygon fill="#63b8ff" stroke="#63b8ff" points="501.08,-83.76 505.4,-74.09 495.99,-78.96 501.08,-83.76"/>
</a>
</g>
</g>
<!-- Node14 -->
<g id="Node000014" class="node">
<title>Node14</title>
<g id="a_Node000014"><a xlink:href="_s_size_8h.html" target="_top" xlink:title=" ">
<polygon fill="white" stroke="#666666" points="658.5,-74 564.5,-74 564.5,-55 658.5,-55 658.5,-74"/>
<text text-anchor="middle" x="611.5" y="-62" font-family="Helvetica,sans-Serif" font-size="10.00">Kit/Type/SSize.h</text>
</a>
</g>
</g>
<!-- Node12&#45;&gt;Node14 -->
<g id="edge15_Node000012_Node000014" class="edge">
<title>Node12&#45;&gt;Node14</title>
<g id="a_edge15_Node000012_Node000014"><a xlink:title=" ">
<path fill="none" stroke="#63b8ff" d="M487.28,-109.98C511.73,-101.23 550.03,-87.51 577.65,-77.62"/>
<polygon fill="#63b8ff" stroke="#63b8ff" points="579.05,-80.84 587.29,-74.17 576.69,-74.25 579.05,-80.84"/>
</a>
</g>
</g>
<!-- Node14&#45;&gt;Node2 -->
<g id="edge16_Node000014_Node000002" class="edge">
<title>Node14&#45;&gt;Node2</title>
<g id="a_edge16_Node000014_Node000002"><a xlink:title=" ">
<path fill="none" stroke="#63b8ff" d="M623.55,-54.98C634.96,-46.92 652.33,-34.65 665.93,-25.03"/>
<polygon fill="#63b8ff" stroke="#63b8ff" points="668.08,-27.8 674.23,-19.17 664.04,-22.08 668.08,-27.8"/>
</a>
</g>
</g>
<!-- Node14&#45;&gt;Node5 -->
<g id="edge17_Node000014_Node000005" class="edge">
<title>Node14&#45;&gt;Node5</title>
<g id="a_edge17_Node000014_Node000005"><a xlink:title=" ">
<path fill="none" stroke="#63b8ff" d="M585.95,-54.98C559.38,-46.13 517.56,-32.19 487.83,-22.28"/>
<polygon fill="#63b8ff" stroke="#63b8ff" points="488.84,-18.92 478.25,-19.08 486.63,-25.56 488.84,-18.92"/>
</a>
</g>
</g>
</g>
</svg>
