<?xml version="1.0" encoding="UTF-8" standalone="no"?>
<!DOCTYPE svg PUBLIC "-//W3C//DTD SVG 1.1//EN"
 "http://www.w3.org/Graphics/SVG/1.1/DTD/svg11.dtd">
<!-- Generated by graphviz version 2.43.0 (0)
 -->
<!-- Title: Kit/Type/TraverserStatus.h Pages: 1 -->
<svg width="1923pt" height="214pt"
 viewBox="0.00 0.00 1922.50 214.00" xmlns="http://www.w3.org/2000/svg" xmlns:xlink="http://www.w3.org/1999/xlink">
<g id="graph0" class="graph" transform="scale(1 1) rotate(0) translate(4 210)">
<title>Kit/Type/TraverserStatus.h</title>
<!-- Node1 -->
<g id="Node000001" class="node">
<title>Node1</title>
<g id="a_Node000001"><a xlink:title=" ">
<polygon fill="#999999" stroke="#666666" points="577,-206 434,-206 434,-187 577,-187 577,-206"/>
<text text-anchor="middle" x="505.5" y="-194" font-family="Helvetica,sans-Serif" font-size="10.00">Kit/Type/TraverserStatus.h</text>
</a>
</g>
</g>
<!-- Node2 -->
<g id="Node000002" class="node">
<title>Node2</title>
<g id="a_Node000002"><a xlink:href="_i_dir_traverser_8h.html" target="_top" xlink:title=" ">
<polygon fill="white" stroke="#666666" points="501.5,-151 365.5,-151 365.5,-132 501.5,-132 501.5,-151"/>
<text text-anchor="middle" x="433.5" y="-139" font-family="Helvetica,sans-Serif" font-size="10.00">Kit/Io/File/IDirTraverser.h</text>
</a>
</g>
</g>
<!-- Node1&#45;&gt;Node2 -->
<g id="edge1_Node000001_Node000002" class="edge">
<title>Node1&#45;&gt;Node2</title>
<g id="a_edge1_Node000001_Node000002"><a xlink:title=" ">
<path fill="none" stroke="#63b8ff" d="M485.63,-180.88C472.68,-171.34 456.2,-159.21 445.28,-151.17"/>
<polygon fill="#63b8ff" stroke="#63b8ff" points="483.8,-183.88 493.93,-186.98 487.95,-178.24 483.8,-183.88"/>
</a>
</g>
</g>
<!-- Node4 -->
<g id="Node000004" class="node">
<title>Node4</title>
<g id="a_Node000004"><a xlink:href="_thread_8h.html" target="_top" xlink:title=" ">
<polygon fill="white" stroke="#666666" points="1007.5,-151 891.5,-151 891.5,-132 1007.5,-132 1007.5,-151"/>
<text text-anchor="middle" x="949.5" y="-139" font-family="Helvetica,sans-Serif" font-size="10.00">Kit/System/Thread.h</text>
</a>
</g>
</g>
<!-- Node1&#45;&gt;Node4 -->
<g id="edge3_Node000001_Node000004" class="edge">
<title>Node1&#45;&gt;Node4</title>
<g id="a_edge3_Node000001_Node000004"><a xlink:title=" ">
<path fill="none" stroke="#63b8ff" d="M586.8,-185.79C675,-175.27 813.59,-158.72 891.44,-149.43"/>
<polygon fill="#63b8ff" stroke="#63b8ff" points="586.35,-182.32 576.84,-186.98 587.18,-189.27 586.35,-182.32"/>
</a>
</g>
</g>
<!-- Node3 -->
<g id="Node000003" class="node">
<title>Node3</title>
<g id="a_Node000003"><a xlink:href="_dir_walker_8h.html" target="_top" xlink:title=" ">
<polygon fill="white" stroke="#666666" points="121,-90.5 0,-90.5 0,-71.5 121,-71.5 121,-90.5"/>
<text text-anchor="middle" x="60.5" y="-78.5" font-family="Helvetica,sans-Serif" font-size="10.00">Kit/Io/File/DirWalker.h</text>
</a>
</g>
</g>
<!-- Node2&#45;&gt;Node3 -->
<g id="edge2_Node000002_Node000003" class="edge">
<title>Node2&#45;&gt;Node3</title>
<g id="a_edge2_Node000002_Node000003"><a xlink:title=" ">
<path fill="none" stroke="#63b8ff" d="M358.08,-130.63C296.45,-122.28 207.15,-109.55 129.5,-96 120.11,-94.36 110.03,-92.42 100.56,-90.52"/>
<polygon fill="#63b8ff" stroke="#63b8ff" points="357.73,-134.11 368.1,-131.98 358.66,-127.18 357.73,-134.11"/>
</a>
</g>
</g>
<!-- Node5 -->
<g id="Node000005" class="node">
<title>Node5</title>
<g id="a_Node000005"><a xlink:href="_serial_2_r_pi_2_r_p2xxx_2_uart_2_input_output_8h.html" target="_top" xlink:title=" ">
<polygon fill="white" stroke="#666666" points="270,-96 139,-96 139,-66 270,-66 270,-96"/>
<text text-anchor="start" x="147" y="-84" font-family="Helvetica,sans-Serif" font-size="10.00">Kit/Io/Serial/RPi/RP2xxx</text>
<text text-anchor="middle" x="204.5" y="-73" font-family="Helvetica,sans-Serif" font-size="10.00">/Uart/InputOutput.h</text>
</a>
</g>
</g>
<!-- Node4&#45;&gt;Node5 -->
<g id="edge4_Node000004_Node000005" class="edge">
<title>Node4&#45;&gt;Node5</title>
<g id="a_edge4_Node000004_Node000005"><a xlink:title=" ">
<path fill="none" stroke="#63b8ff" d="M881.22,-138.63C759.76,-134.71 498.37,-123.6 279.5,-96 276.48,-95.62 273.39,-95.19 270.28,-94.73"/>
<polygon fill="#63b8ff" stroke="#63b8ff" points="881.37,-142.14 891.47,-138.95 881.59,-135.14 881.37,-142.14"/>
</a>
</g>
</g>
<!-- Node6 -->
<g id="Node000006" class="node">
<title>Node6</title>
<g id="a_Node000006"><a xlink:href="_stream_driver_8h.html" target="_top" xlink:title=" ">
<polygon fill="white" stroke="#666666" points="412.5,-96 288.5,-96 288.5,-66 412.5,-66 412.5,-96"/>
<text text-anchor="start" x="296.5" y="-84" font-family="Helvetica,sans-Serif" font-size="10.00">Kit/Io/Serial/ST/M32F4</text>
<text text-anchor="middle" x="350.5" y="-73" font-family="Helvetica,sans-Serif" font-size="10.00">/StreamDriver.h</text>
</a>
</g>
</g>
<!-- Node4&#45;&gt;Node6 -->
<g id="edge5_Node000004_Node000006" class="edge">
<title>Node4&#45;&gt;Node6</title>
<g id="a_edge5_Node000004_Node000006"><a xlink:title=" ">
<path fill="none" stroke="#63b8ff" d="M881.4,-137.17C780.56,-131.7 585.76,-119.04 421.5,-96 418.64,-95.6 415.72,-95.16 412.77,-94.68"/>
<polygon fill="#63b8ff" stroke="#63b8ff" points="881.28,-140.67 891.45,-137.71 881.65,-133.68 881.28,-140.67"/>
</a>
</g>
</g>
<!-- Node8 -->
<g id="Node000008" class="node">
<title>Node8</title>
<g id="a_Node000008"><a xlink:href="_sync_return_handler_8h.html" target="_top" xlink:title=" ">
<polygon fill="white" stroke="#666666" points="580.5,-90.5 430.5,-90.5 430.5,-71.5 580.5,-71.5 580.5,-90.5"/>
<text text-anchor="middle" x="505.5" y="-78.5" font-family="Helvetica,sans-Serif" font-size="10.00">Kit/Itc/SyncReturnHandler.h</text>
</a>
</g>
</g>
<!-- Node4&#45;&gt;Node8 -->
<g id="edge7_Node000004_Node000008" class="edge">
<title>Node4&#45;&gt;Node8</title>
<g id="a_edge7_Node000004_Node000008"><a xlink:title=" ">
<path fill="none" stroke="#63b8ff" d="M881.05,-132.91C808.54,-124.66 690.78,-110.69 589.5,-96 578.23,-94.37 566.15,-92.45 554.75,-90.56"/>
<polygon fill="#63b8ff" stroke="#63b8ff" points="881.08,-136.43 891.41,-134.08 881.87,-129.48 881.08,-136.43"/>
</a>
</g>
</g>
<!-- Node9 -->
<g id="Node000009" class="node">
<title>Node9</title>
<g id="a_Node000009"><a xlink:href="_bare_metal_2_thread_8h.html" target="_top" xlink:title=" ">
<polygon fill="white" stroke="#666666" points="722,-96 599,-96 599,-66 722,-66 722,-96"/>
<text text-anchor="start" x="607" y="-84" font-family="Helvetica,sans-Serif" font-size="10.00">Kit/System/BareMetal</text>
<text text-anchor="middle" x="660.5" y="-73" font-family="Helvetica,sans-Serif" font-size="10.00">/Thread.h</text>
</a>
</g>
</g>
<!-- Node4&#45;&gt;Node9 -->
<g id="edge8_Node000004_Node000009" class="edge">
<title>Node4&#45;&gt;Node9</title>
<g id="a_edge8_Node000004_Node000009"><a xlink:title=" ">
<path fill="none" stroke="#63b8ff" d="M897.66,-130.01C848.39,-120.03 774.27,-105.03 722.03,-94.45"/>
<polygon fill="#63b8ff" stroke="#63b8ff" points="896.98,-133.44 907.48,-131.99 898.37,-126.58 896.98,-133.44"/>
</a>
</g>
</g>
<!-- Node10 -->
<g id="Node000010" class="node">
<title>Node10</title>
<g id="a_Node000010"><a xlink:href="_free_r_t_o_s_2_thread_8h.html" target="_top" xlink:title=" ">
<polygon fill="white" stroke="#666666" points="859,-96 740,-96 740,-66 859,-66 859,-96"/>
<text text-anchor="start" x="748" y="-84" font-family="Helvetica,sans-Serif" font-size="10.00">Kit/System/FreeRTOS</text>
<text text-anchor="middle" x="799.5" y="-73" font-family="Helvetica,sans-Serif" font-size="10.00">/Thread.h</text>
</a>
</g>
</g>
<!-- Node4&#45;&gt;Node10 -->
<g id="edge9_Node000004_Node000010" class="edge">
<title>Node4&#45;&gt;Node10</title>
<g id="a_edge9_Node000004_Node000010"><a xlink:title=" ">
<path fill="none" stroke="#63b8ff" d="M918.3,-128.33C894.2,-118.93 860.81,-105.91 835.56,-96.06"/>
<polygon fill="#63b8ff" stroke="#63b8ff" points="917.1,-131.62 927.69,-131.99 919.64,-125.1 917.1,-131.62"/>
</a>
</g>
</g>
<!-- Node11 -->
<g id="Node000011" class="node">
<title>Node11</title>
<g id="a_Node000011"><a xlink:href="_posix_2_thread_8h.html" target="_top" xlink:title=" ">
<polygon fill="white" stroke="#666666" points="1022,-90.5 877,-90.5 877,-71.5 1022,-71.5 1022,-90.5"/>
<text text-anchor="middle" x="949.5" y="-78.5" font-family="Helvetica,sans-Serif" font-size="10.00">Kit/System/Posix/Thread.h</text>
</a>
</g>
</g>
<!-- Node4&#45;&gt;Node11 -->
<g id="edge10_Node000004_Node000011" class="edge">
<title>Node4&#45;&gt;Node11</title>
<g id="a_edge10_Node000004_Node000011"><a xlink:title=" ">
<path fill="none" stroke="#63b8ff" d="M949.5,-121.66C949.5,-111.24 949.5,-98.8 949.5,-90.67"/>
<polygon fill="#63b8ff" stroke="#63b8ff" points="946,-121.87 949.5,-131.87 953,-121.87 946,-121.87"/>
</a>
</g>
</g>
<!-- Node12 -->
<g id="Node000012" class="node">
<title>Node12</title>
<g id="a_Node000012"><a xlink:href="_r_p_pico_2_thread_8h.html" target="_top" xlink:title=" ">
<polygon fill="white" stroke="#666666" points="1192.5,-90.5 1040.5,-90.5 1040.5,-71.5 1192.5,-71.5 1192.5,-90.5"/>
<text text-anchor="middle" x="1116.5" y="-78.5" font-family="Helvetica,sans-Serif" font-size="10.00">Kit/System/RPPico/Thread.h</text>
</a>
</g>
</g>
<!-- Node4&#45;&gt;Node12 -->
<g id="edge11_Node000004_Node000012" class="edge">
<title>Node4&#45;&gt;Node12</title>
<g id="a_edge11_Node000004_Node000012"><a xlink:title=" ">
<path fill="none" stroke="#63b8ff" d="M983.27,-128.67C1015.56,-117.36 1063.48,-100.57 1092.19,-90.52"/>
<polygon fill="#63b8ff" stroke="#63b8ff" points="982.06,-125.38 973.78,-131.99 984.38,-131.99 982.06,-125.38"/>
</a>
</g>
</g>
<!-- Node13 -->
<g id="Node000013" class="node">
<title>Node13</title>
<g id="a_Node000013"><a xlink:href="_sim_tick_8h.html" target="_top" xlink:title=" ">
<polygon fill="white" stroke="#666666" points="1332,-90.5 1211,-90.5 1211,-71.5 1332,-71.5 1332,-90.5"/>
<text text-anchor="middle" x="1271.5" y="-78.5" font-family="Helvetica,sans-Serif" font-size="10.00">Kit/System/SimTick.h</text>
</a>
</g>
</g>
<!-- Node4&#45;&gt;Node13 -->
<g id="edge12_Node000004_Node000013" class="edge">
<title>Node4&#45;&gt;Node13</title>
<g id="a_edge12_Node000004_Node000013"><a xlink:title=" ">
<path fill="none" stroke="#63b8ff" d="M1009.65,-130.27C1060.75,-121.49 1136.01,-108.33 1201.5,-96 1210.63,-94.28 1220.43,-92.37 1229.7,-90.52"/>
<polygon fill="#63b8ff" stroke="#63b8ff" points="1009.03,-126.83 999.76,-131.97 1010.21,-133.73 1009.03,-126.83"/>
</a>
</g>
</g>
<!-- Node14 -->
<g id="Node000014" class="node">
<title>Node14</title>
<g id="a_Node000014"><a xlink:href="_win32_2_thread_8h.html" target="_top" xlink:title=" ">
<polygon fill="white" stroke="#666666" points="1499,-90.5 1350,-90.5 1350,-71.5 1499,-71.5 1499,-90.5"/>
<text text-anchor="middle" x="1424.5" y="-78.5" font-family="Helvetica,sans-Serif" font-size="10.00">Kit/System/Win32/Thread.h</text>
</a>
</g>
</g>
<!-- Node4&#45;&gt;Node14 -->
<g id="edge13_Node000004_Node000014" class="edge">
<title>Node4&#45;&gt;Node14</title>
<g id="a_edge13_Node000004_Node000014"><a xlink:title=" ">
<path fill="none" stroke="#63b8ff" d="M1017.78,-133.81C1095.92,-125.91 1227.67,-111.81 1340.5,-96 1351.92,-94.4 1364.18,-92.47 1375.71,-90.57"/>
<polygon fill="#63b8ff" stroke="#63b8ff" points="1017.18,-130.35 1007.58,-134.84 1017.88,-137.32 1017.18,-130.35"/>
</a>
</g>
</g>
<!-- Node15 -->
<g id="Node000015" class="node">
<title>Node15</title>
<g id="a_Node000015"><a xlink:href="_threads_8h.html" target="_top" xlink:title=" ">
<polygon fill="white" stroke="#666666" points="1632.5,-96 1516.5,-96 1516.5,-66 1632.5,-66 1632.5,-96"/>
<text text-anchor="start" x="1524.5" y="-84" font-family="Helvetica,sans-Serif" font-size="10.00">Kit/TShell/Command</text>
<text text-anchor="middle" x="1574.5" y="-73" font-family="Helvetica,sans-Serif" font-size="10.00">/Threads.h</text>
</a>
</g>
</g>
<!-- Node4&#45;&gt;Node15 -->
<g id="edge14_Node000004_Node000015" class="edge">
<title>Node4&#45;&gt;Node15</title>
<g id="a_edge14_Node000004_Node000015"><a xlink:title=" ">
<path fill="none" stroke="#63b8ff" d="M1017.79,-137.84C1123.28,-133.1 1332.02,-121.23 1507.5,-96 1510.44,-95.58 1513.45,-95.1 1516.47,-94.59"/>
<polygon fill="#63b8ff" stroke="#63b8ff" points="1017.44,-134.35 1007.6,-138.29 1017.75,-141.34 1017.44,-134.35"/>
</a>
</g>
</g>
<!-- Node19 -->
<g id="Node000019" class="node">
<title>Node19</title>
<g id="a_Node000019"><a xlink:href="_stdio_thread_8h.html" target="_top" xlink:title=" ">
<polygon fill="white" stroke="#666666" points="1784.5,-90.5 1650.5,-90.5 1650.5,-71.5 1784.5,-71.5 1784.5,-90.5"/>
<text text-anchor="middle" x="1717.5" y="-78.5" font-family="Helvetica,sans-Serif" font-size="10.00">Kit/TShell/StdioThread.h</text>
</a>
</g>
</g>
<!-- Node4&#45;&gt;Node19 -->
<g id="edge18_Node000004_Node000019" class="edge">
<title>Node4&#45;&gt;Node19</title>
<g id="a_edge18_Node000004_Node000019"><a xlink:title=" ">
<path fill="none" stroke="#63b8ff" d="M1017.72,-138.78C1142.13,-135.05 1414.02,-124.17 1641.5,-96 1652.82,-94.6 1665,-92.58 1676.22,-90.52"/>
<polygon fill="#63b8ff" stroke="#63b8ff" points="1017.48,-135.29 1007.59,-139.08 1017.68,-142.28 1017.48,-135.29"/>
</a>
</g>
</g>
<!-- Node20 -->
<g id="Node000020" class="node">
<title>Node20</title>
<g id="a_Node000020"><a xlink:href="helpers_8h.html" target="_top" xlink:title="This file defines helper functions/interface for writing unit tests.">
<polygon fill="white" stroke="#666666" points="1914.5,-96 1802.5,-96 1802.5,-66 1914.5,-66 1914.5,-96"/>
<text text-anchor="start" x="1810.5" y="-84" font-family="Helvetica,sans-Serif" font-size="10.00">Kit/_support/testing</text>
<text text-anchor="middle" x="1858.5" y="-73" font-family="Helvetica,sans-Serif" font-size="10.00">/helpers.h</text>
</a>
</g>
</g>
<!-- Node4&#45;&gt;Node20 -->
<g id="edge19_Node000004_Node000020" class="edge">
<title>Node4&#45;&gt;Node20</title>
<g id="a_edge19_Node000004_Node000020"><a xlink:title=" ">
<path fill="none" stroke="#63b8ff" d="M1017.62,-140.58C1161.55,-139.94 1506.94,-134.17 1793.5,-96 1796.36,-95.62 1799.28,-95.18 1802.23,-94.69"/>
<polygon fill="#63b8ff" stroke="#63b8ff" points="1017.6,-137.08 1007.61,-140.62 1017.62,-144.08 1017.6,-137.08"/>
</a>
</g>
</g>
<!-- Node7 -->
<g id="Node000007" class="node">
<title>Node7</title>
<g id="a_Node000007"><a xlink:href="_serial_2_s_t_2_m32_f4_2_input_output_8h.html" target="_top" xlink:title=" ">
<polygon fill="white" stroke="#666666" points="412.5,-30 288.5,-30 288.5,0 412.5,0 412.5,-30"/>
<text text-anchor="start" x="296.5" y="-18" font-family="Helvetica,sans-Serif" font-size="10.00">Kit/Io/Serial/ST/M32F4</text>
<text text-anchor="middle" x="350.5" y="-7" font-family="Helvetica,sans-Serif" font-size="10.00">/InputOutput.h</text>
</a>
</g>
</g>
<!-- Node6&#45;&gt;Node7 -->
<g id="edge6_Node000006_Node000007" class="edge">
<title>Node6&#45;&gt;Node7</title>
<g id="a_edge6_Node000006_Node000007"><a xlink:title=" ">
<path fill="none" stroke="#63b8ff" d="M350.5,-55.54C350.5,-46.96 350.5,-37.61 350.5,-30.16"/>
<polygon fill="#63b8ff" stroke="#63b8ff" points="347,-55.8 350.5,-65.8 354,-55.8 347,-55.8"/>
</a>
</g>
</g>
<!-- Node16 -->
<g id="Node000016" class="node">
<title>Node16</title>
<g id="a_Node000016"><a xlink:href="_free_r_t_o_s_2_threads_8h.html" target="_top" xlink:title=" ">
<polygon fill="white" stroke="#666666" points="1498,-30 1381,-30 1381,0 1498,0 1498,-30"/>
<text text-anchor="start" x="1389" y="-18" font-family="Helvetica,sans-Serif" font-size="10.00">Kit/TShell/Command</text>
<text text-anchor="middle" x="1439.5" y="-7" font-family="Helvetica,sans-Serif" font-size="10.00">/FreeRTOS/Threads.h</text>
</a>
</g>
</g>
<!-- Node15&#45;&gt;Node16 -->
<g id="edge15_Node000015_Node000016" class="edge">
<title>Node15&#45;&gt;Node16</title>
<g id="a_edge15_Node000015_Node000016"><a xlink:title=" ">
<path fill="none" stroke="#63b8ff" d="M1535.79,-61.65C1514.56,-51.58 1488.65,-39.3 1469.06,-30.01"/>
<polygon fill="#63b8ff" stroke="#63b8ff" points="1534.34,-64.83 1544.87,-65.95 1537.34,-58.51 1534.34,-64.83"/>
</a>
</g>
</g>
<!-- Node17 -->
<g id="Node000017" class="node">
<title>Node17</title>
<g id="a_Node000017"><a xlink:href="_posix_2_threads_8h.html" target="_top" xlink:title=" ">
<polygon fill="white" stroke="#666666" points="1632.5,-30 1516.5,-30 1516.5,0 1632.5,0 1632.5,-30"/>
<text text-anchor="start" x="1524.5" y="-18" font-family="Helvetica,sans-Serif" font-size="10.00">Kit/TShell/Command</text>
<text text-anchor="middle" x="1574.5" y="-7" font-family="Helvetica,sans-Serif" font-size="10.00">/Posix/Threads.h</text>
</a>
</g>
</g>
<!-- Node15&#45;&gt;Node17 -->
<g id="edge16_Node000015_Node000017" class="edge">
<title>Node15&#45;&gt;Node17</title>
<g id="a_edge16_Node000015_Node000017"><a xlink:title=" ">
<path fill="none" stroke="#63b8ff" d="M1574.5,-55.54C1574.5,-46.96 1574.5,-37.61 1574.5,-30.16"/>
<polygon fill="#63b8ff" stroke="#63b8ff" points="1571,-55.8 1574.5,-65.8 1578,-55.8 1571,-55.8"/>
</a>
</g>
</g>
<!-- Node18 -->
<g id="Node000018" class="node">
<title>Node18</title>
<g id="a_Node000018"><a xlink:href="_win32_2_threads_8h.html" target="_top" xlink:title=" ">
<polygon fill="white" stroke="#666666" points="1766.5,-30 1650.5,-30 1650.5,0 1766.5,0 1766.5,-30"/>
<text text-anchor="start" x="1658.5" y="-18" font-family="Helvetica,sans-Serif" font-size="10.00">Kit/TShell/Command</text>
<text text-anchor="middle" x="1708.5" y="-7" font-family="Helvetica,sans-Serif" font-size="10.00">/Win32/Threads.h</text>
</a>
</g>
</g>
<!-- Node15&#45;&gt;Node18 -->
<g id="edge17_Node000015_Node000018" class="edge">
<title>Node15&#45;&gt;Node18</title>
<g id="a_edge17_Node000015_Node000018"><a xlink:title=" ">
<path fill="none" stroke="#63b8ff" d="M1613.21,-61.51C1634.23,-51.47 1659.8,-39.26 1679.16,-30.01"/>
<polygon fill="#63b8ff" stroke="#63b8ff" points="1611.42,-58.49 1603.91,-65.95 1614.44,-64.8 1611.42,-58.49"/>
</a>
</g>
</g>
</g>
</svg>
