<?xml version="1.0" encoding="UTF-8" standalone="no"?>
<!DOCTYPE svg PUBLIC "-//W3C//DTD SVG 1.1//EN"
 "http://www.w3.org/Graphics/SVG/1.1/DTD/svg11.dtd">
<!-- Generated by graphviz version 2.43.0 (0)
 -->
<!-- Title: Kit/System/Trace.h Pages: 1 -->
<svg width="1858pt" height="159pt"
 viewBox="0.00 0.00 1857.50 159.00" xmlns="http://www.w3.org/2000/svg" xmlns:xlink="http://www.w3.org/1999/xlink">
<g id="graph0" class="graph" transform="scale(1 1) rotate(0) translate(4 155)">
<title>Kit/System/Trace.h</title>
<!-- Node1 -->
<g id="Node000001" class="node">
<title>Node1</title>
<g id="a_Node000001"><a xlink:title="This file provides an interface for a &#39;printf&#39; tracing mechanism.">
<polygon fill="#999999" stroke="#666666" points="1021,-151 914,-151 914,-132 1021,-132 1021,-151"/>
<text text-anchor="middle" x="967.5" y="-139" font-family="Helvetica,sans-Serif" font-size="10.00">Kit/System/Trace.h</text>
</a>
</g>
</g>
<!-- Node2 -->
<g id="Node000002" class="node">
<title>Node2</title>
<g id="a_Node000002"><a xlink:href="_flasher_8h.html" target="_top" xlink:title=" ">
<polygon fill="white" stroke="#666666" points="149,-96 0,-96 0,-55 149,-55 149,-96"/>
<text text-anchor="start" x="8" y="-84" font-family="Helvetica,sans-Serif" font-size="10.00">/home/runner/work/kit.core</text>
<text text-anchor="start" x="8" y="-73" font-family="Helvetica,sans-Serif" font-size="10.00">/kit.core/projects/examples</text>
<text text-anchor="middle" x="74.5" y="-62" font-family="Helvetica,sans-Serif" font-size="10.00">/Container/Lists/Flasher.h</text>
</a>
</g>
</g>
<!-- Node1&#45;&gt;Node2 -->
<g id="edge1_Node000001_Node000002" class="edge">
<title>Node1&#45;&gt;Node2</title>
<g id="a_edge1_Node000001_Node000002"><a xlink:title=" ">
<path fill="none" stroke="#63b8ff" d="M903.37,-140.73C766.05,-140.4 433.68,-135.21 158.5,-96 155.39,-95.56 152.22,-95.05 149.03,-94.51"/>
<polygon fill="#63b8ff" stroke="#63b8ff" points="903.7,-144.23 913.7,-140.75 903.71,-137.23 903.7,-144.23"/>
</a>
</g>
</g>
<!-- Node3 -->
<g id="Node000003" class="node">
<title>Node3</title>
<g id="a_Node000003"><a xlink:href="_led_server_8h.html" target="_top" xlink:title=" ">
<polygon fill="white" stroke="#666666" points="348,-96 167,-96 167,-55 348,-55 348,-96"/>
<text text-anchor="start" x="175" y="-84" font-family="Helvetica,sans-Serif" font-size="10.00">/home/runner/work/kit.core</text>
<text text-anchor="start" x="175" y="-73" font-family="Helvetica,sans-Serif" font-size="10.00">/kit.core/projects/examples</text>
<text text-anchor="middle" x="257.5" y="-62" font-family="Helvetica,sans-Serif" font-size="10.00">/Container/RingBuffer/LedServer.h</text>
</a>
</g>
</g>
<!-- Node1&#45;&gt;Node3 -->
<g id="edge2_Node000001_Node000003" class="edge">
<title>Node1&#45;&gt;Node3</title>
<g id="a_edge2_Node000001_Node000003"><a xlink:title=" ">
<path fill="none" stroke="#63b8ff" d="M903.79,-138.36C792.52,-134.08 555.76,-122.47 357.5,-96 354.43,-95.59 351.32,-95.15 348.17,-94.67"/>
<polygon fill="#63b8ff" stroke="#63b8ff" points="903.71,-141.86 913.83,-138.75 903.97,-134.87 903.71,-141.86"/>
</a>
</g>
</g>
<!-- Node4 -->
<g id="Node000004" class="node">
<title>Node4</title>
<g id="a_Node000004"><a xlink:href="_producer_8h.html" target="_top" xlink:title=" ">
<polygon fill="white" stroke="#666666" points="541,-96 366,-96 366,-55 541,-55 541,-96"/>
<text text-anchor="start" x="374" y="-84" font-family="Helvetica,sans-Serif" font-size="10.00">/home/runner/work/kit.core</text>
<text text-anchor="start" x="374" y="-73" font-family="Helvetica,sans-Serif" font-size="10.00">/kit.core/projects/examples</text>
<text text-anchor="middle" x="453.5" y="-62" font-family="Helvetica,sans-Serif" font-size="10.00">/Container/RingBuffer/Producer.h</text>
</a>
</g>
</g>
<!-- Node1&#45;&gt;Node4 -->
<g id="edge3_Node000001_Node000004" class="edge">
<title>Node1&#45;&gt;Node4</title>
<g id="a_edge3_Node000001_Node000004"><a xlink:title=" ">
<path fill="none" stroke="#63b8ff" d="M903.82,-135.54C821.83,-128.73 675.07,-115.13 550.5,-96 547.44,-95.53 544.34,-95.03 541.2,-94.51"/>
<polygon fill="#63b8ff" stroke="#63b8ff" points="903.72,-139.04 913.98,-136.38 904.3,-132.07 903.72,-139.04"/>
</a>
</g>
</g>
<!-- Node5 -->
<g id="Node000005" class="node">
<title>Node5</title>
<g id="a_Node000005"><a xlink:href="_dm_2_transaction_2_client_8h.html" target="_top" xlink:title=" ">
<polygon fill="white" stroke="#666666" points="708,-96 559,-96 559,-55 708,-55 708,-96"/>
<text text-anchor="start" x="567" y="-84" font-family="Helvetica,sans-Serif" font-size="10.00">/home/runner/work/kit.core</text>
<text text-anchor="start" x="567" y="-73" font-family="Helvetica,sans-Serif" font-size="10.00">/kit.core/projects/examples</text>
<text text-anchor="middle" x="633.5" y="-62" font-family="Helvetica,sans-Serif" font-size="10.00">/Dm/Transaction/Client.h</text>
</a>
</g>
</g>
<!-- Node1&#45;&gt;Node5 -->
<g id="edge4_Node000001_Node000005" class="edge">
<title>Node1&#45;&gt;Node5</title>
<g id="a_edge4_Node000001_Node000005"><a xlink:title=" ">
<path fill="none" stroke="#63b8ff" d="M905.02,-130.3C854.34,-121.81 781.14,-109.04 717.5,-96 714.42,-95.37 711.28,-94.71 708.11,-94.03"/>
<polygon fill="#63b8ff" stroke="#63b8ff" points="904.72,-133.8 915.16,-132 905.87,-126.9 904.72,-133.8"/>
</a>
</g>
</g>
<!-- Node6 -->
<g id="Node000006" class="node">
<title>Node6</title>
<g id="a_Node000006"><a xlink:href="projects_2examples_2_dm_2_transaction_2_server_8h.html" target="_top" xlink:title=" ">
<polygon fill="white" stroke="#666666" points="875,-96 726,-96 726,-55 875,-55 875,-96"/>
<text text-anchor="start" x="734" y="-84" font-family="Helvetica,sans-Serif" font-size="10.00">/home/runner/work/kit.core</text>
<text text-anchor="start" x="734" y="-73" font-family="Helvetica,sans-Serif" font-size="10.00">/kit.core/projects/examples</text>
<text text-anchor="middle" x="800.5" y="-62" font-family="Helvetica,sans-Serif" font-size="10.00">/Dm/Transaction/Server.h</text>
</a>
</g>
</g>
<!-- Node1&#45;&gt;Node6 -->
<g id="edge5_Node000001_Node000006" class="edge">
<title>Node1&#45;&gt;Node6</title>
<g id="a_edge5_Node000001_Node000006"><a xlink:title=" ">
<path fill="none" stroke="#63b8ff" d="M935.39,-128.19C911.61,-119.08 878.75,-106.49 851.41,-96.01"/>
<polygon fill="#63b8ff" stroke="#63b8ff" points="934.39,-131.56 944.98,-131.87 936.89,-125.02 934.39,-131.56"/>
</a>
</g>
</g>
<!-- Node7 -->
<g id="Node000007" class="node">
<title>Node7</title>
<g id="a_Node000007"><a xlink:href="_itc_2_synchronous_2_client_8h.html" target="_top" xlink:title=" ">
<polygon fill="white" stroke="#666666" points="1042,-96 893,-96 893,-55 1042,-55 1042,-96"/>
<text text-anchor="start" x="901" y="-84" font-family="Helvetica,sans-Serif" font-size="10.00">/home/runner/work/kit.core</text>
<text text-anchor="start" x="901" y="-73" font-family="Helvetica,sans-Serif" font-size="10.00">/kit.core/projects/examples</text>
<text text-anchor="middle" x="967.5" y="-62" font-family="Helvetica,sans-Serif" font-size="10.00">/Itc/Synchronous/Client.h</text>
</a>
</g>
</g>
<!-- Node1&#45;&gt;Node7 -->
<g id="edge6_Node000001_Node000007" class="edge">
<title>Node1&#45;&gt;Node7</title>
<g id="a_edge6_Node000001_Node000007"><a xlink:title=" ">
<path fill="none" stroke="#63b8ff" d="M967.5,-121.63C967.5,-113.56 967.5,-104.15 967.5,-96.01"/>
<polygon fill="#63b8ff" stroke="#63b8ff" points="964,-121.87 967.5,-131.87 971,-121.87 964,-121.87"/>
</a>
</g>
</g>
<!-- Node8 -->
<g id="Node000008" class="node">
<title>Node8</title>
<g id="a_Node000008"><a xlink:href="projects_2examples_2_itc_2_synchronous_2_server_8h.html" target="_top" xlink:title=" ">
<polygon fill="white" stroke="#666666" points="1209,-96 1060,-96 1060,-55 1209,-55 1209,-96"/>
<text text-anchor="start" x="1068" y="-84" font-family="Helvetica,sans-Serif" font-size="10.00">/home/runner/work/kit.core</text>
<text text-anchor="start" x="1068" y="-73" font-family="Helvetica,sans-Serif" font-size="10.00">/kit.core/projects/examples</text>
<text text-anchor="middle" x="1134.5" y="-62" font-family="Helvetica,sans-Serif" font-size="10.00">/Itc/Synchronous/Server.h</text>
</a>
</g>
</g>
<!-- Node1&#45;&gt;Node8 -->
<g id="edge7_Node000001_Node000008" class="edge">
<title>Node1&#45;&gt;Node8</title>
<g id="a_edge7_Node000001_Node000008"><a xlink:title=" ">
<path fill="none" stroke="#63b8ff" d="M999.61,-128.19C1023.39,-119.08 1056.25,-106.49 1083.59,-96.01"/>
<polygon fill="#63b8ff" stroke="#63b8ff" points="998.11,-125.02 990.02,-131.87 1000.61,-131.56 998.11,-125.02"/>
</a>
</g>
</g>
<!-- Node9 -->
<g id="Node000009" class="node">
<title>Node9</title>
<g id="a_Node000009"><a xlink:href="_framework_2_log_8h.html" target="_top" xlink:title="This file declares the public facing Logging interface for generating log entries.">
<polygon fill="white" stroke="#666666" points="1356,-90.5 1227,-90.5 1227,-60.5 1356,-60.5 1356,-90.5"/>
<text text-anchor="start" x="1235" y="-78.5" font-family="Helvetica,sans-Serif" font-size="10.00">Kit/Logging/Framework</text>
<text text-anchor="middle" x="1291.5" y="-67.5" font-family="Helvetica,sans-Serif" font-size="10.00">/Log.h</text>
</a>
</g>
</g>
<!-- Node1&#45;&gt;Node9 -->
<g id="edge8_Node000001_Node000009" class="edge">
<title>Node1&#45;&gt;Node9</title>
<g id="a_edge8_Node000001_Node000009"><a xlink:title=" ">
<path fill="none" stroke="#63b8ff" d="M1031.01,-130.78C1081.93,-122.62 1155.11,-110.06 1218.5,-96 1225.8,-94.38 1233.47,-92.52 1240.98,-90.6"/>
<polygon fill="#63b8ff" stroke="#63b8ff" points="1030.46,-127.33 1021.13,-132.35 1031.56,-134.24 1030.46,-127.33"/>
</a>
</g>
</g>
<!-- Node11 -->
<g id="Node000011" class="node">
<title>Node11</title>
<g id="a_Node000011"><a xlink:href="_integer_expression_parser_8h.html" target="_top" xlink:title="This file contains a collection of methods that parses a null terminated string that contains an arit...">
<polygon fill="white" stroke="#666666" points="1523,-90.5 1374,-90.5 1374,-60.5 1523,-60.5 1523,-90.5"/>
<text text-anchor="start" x="1382" y="-78.5" font-family="Helvetica,sans-Serif" font-size="10.00">Kit/Math/IntegerExpression</text>
<text text-anchor="middle" x="1448.5" y="-67.5" font-family="Helvetica,sans-Serif" font-size="10.00">Parser.h</text>
</a>
</g>
</g>
<!-- Node1&#45;&gt;Node11 -->
<g id="edge10_Node000001_Node000011" class="edge">
<title>Node1&#45;&gt;Node11</title>
<g id="a_edge10_Node000001_Node000011"><a xlink:title=" ">
<path fill="none" stroke="#63b8ff" d="M1031.48,-135.71C1110.39,-129.27 1248.46,-116.22 1365.5,-96 1374.4,-94.46 1383.77,-92.55 1392.88,-90.53"/>
<polygon fill="#63b8ff" stroke="#63b8ff" points="1030.9,-132.25 1021.22,-136.54 1031.47,-139.23 1030.9,-132.25"/>
</a>
</g>
</g>
<!-- Node12 -->
<g id="Node000012" class="node">
<title>Node12</title>
<g id="a_Node000012"><a xlink:href="_real_expression_parser_8h.html" target="_top" xlink:title="This file contains a collection of methods that parses a null terminated string that contains an arit...">
<polygon fill="white" stroke="#666666" points="1715.5,-85 1541.5,-85 1541.5,-66 1715.5,-66 1715.5,-85"/>
<text text-anchor="middle" x="1628.5" y="-73" font-family="Helvetica,sans-Serif" font-size="10.00">Kit/Math/RealExpressionParser.h</text>
</a>
</g>
</g>
<!-- Node1&#45;&gt;Node12 -->
<g id="edge11_Node000001_Node000012" class="edge">
<title>Node1&#45;&gt;Node12</title>
<g id="a_edge11_Node000001_Node000012"><a xlink:title=" ">
<path fill="none" stroke="#63b8ff" d="M1031.2,-138.01C1136.13,-133.35 1351.68,-121.39 1532.5,-96 1552.2,-93.23 1573.95,-88.92 1591.76,-85.06"/>
<polygon fill="#63b8ff" stroke="#63b8ff" points="1030.93,-134.52 1021.1,-138.46 1031.24,-141.52 1030.93,-134.52"/>
</a>
</g>
</g>
<!-- Node13 -->
<g id="Node000013" class="node">
<title>Node13</title>
<g id="a_Node000013"><a xlink:href="_private_8h.html" target="_top" xlink:title="This file contains a collection of classes, interfaces, etc.">
<polygon fill="white" stroke="#666666" points="1849.5,-85 1733.5,-85 1733.5,-66 1849.5,-66 1849.5,-85"/>
<text text-anchor="middle" x="1791.5" y="-73" font-family="Helvetica,sans-Serif" font-size="10.00">Kit/System/Private.h</text>
</a>
</g>
</g>
<!-- Node1&#45;&gt;Node13 -->
<g id="edge12_Node000001_Node000013" class="edge">
<title>Node1&#45;&gt;Node13</title>
<g id="a_edge12_Node000001_Node000013"><a xlink:title=" ">
<path fill="none" stroke="#63b8ff" d="M1031.24,-138.59C1188.51,-133.6 1591.92,-118.89 1724.5,-96 1738.83,-93.53 1754.44,-89.09 1766.99,-85.07"/>
<polygon fill="#63b8ff" stroke="#63b8ff" points="1031.12,-135.1 1021.24,-138.91 1031.34,-142.09 1031.12,-135.1"/>
</a>
</g>
</g>
<!-- Node10 -->
<g id="Node000010" class="node">
<title>Node10</title>
<g id="a_Node000010"><a xlink:href="_pkg_2_log_8h.html" target="_top" xlink:title="This file declares the Logging functions available to the KIT Logging Domain.">
<polygon fill="white" stroke="#666666" points="1352.5,-19 1230.5,-19 1230.5,0 1352.5,0 1352.5,-19"/>
<text text-anchor="middle" x="1291.5" y="-7" font-family="Helvetica,sans-Serif" font-size="10.00">Kit/Logging/Pkg/Log.h</text>
</a>
</g>
</g>
<!-- Node9&#45;&gt;Node10 -->
<g id="edge9_Node000009_Node000010" class="edge">
<title>Node9&#45;&gt;Node10</title>
<g id="a_edge9_Node000009_Node000010"><a xlink:title=" ">
<path fill="none" stroke="#63b8ff" d="M1291.5,-50.1C1291.5,-39.3 1291.5,-27.28 1291.5,-19.34"/>
<polygon fill="#63b8ff" stroke="#63b8ff" points="1288,-50.3 1291.5,-60.3 1295,-50.3 1288,-50.3"/>
</a>
</g>
</g>
</g>
</svg>
