<?xml version="1.0" encoding="UTF-8" standalone="no"?>
<!DOCTYPE svg PUBLIC "-//W3C//DTD SVG 1.1//EN"
 "http://www.w3.org/Graphics/SVG/1.1/DTD/svg11.dtd">
<!-- Generated by graphviz version 2.43.0 (0)
 -->
<!-- Title: Kit/System/Win32/Thread.h Pages: 1 -->
<svg width="1156pt" height="357pt"
 viewBox="0.00 0.00 1155.50 357.00" xmlns="http://www.w3.org/2000/svg" xmlns:xlink="http://www.w3.org/1999/xlink">
<g id="graph0" class="graph" transform="scale(1 1) rotate(0) translate(4 353)">
<title>Kit/System/Win32/Thread.h</title>
<!-- Node1 -->
<g id="Node000001" class="node">
<title>Node1</title>
<g id="a_Node000001"><a xlink:title=" ">
<polygon fill="#999999" stroke="#666666" points="413,-349 264,-349 264,-330 413,-330 413,-349"/>
<text text-anchor="middle" x="338.5" y="-337" font-family="Helvetica,sans-Serif" font-size="10.00">Kit/System/Win32/Thread.h</text>
</a>
</g>
</g>
<!-- Node2 -->
<g id="Node000002" class="node">
<title>Node2</title>
<g id="a_Node000002"><a xlink:href="_thread_8h.html" target="_top" xlink:title=" ">
<polygon fill="white" stroke="#666666" points="681.5,-294 565.5,-294 565.5,-275 681.5,-275 681.5,-294"/>
<text text-anchor="middle" x="623.5" y="-282" font-family="Helvetica,sans-Serif" font-size="10.00">Kit/System/Thread.h</text>
</a>
</g>
</g>
<!-- Node1&#45;&gt;Node2 -->
<g id="edge1_Node000001_Node000002" class="edge">
<title>Node1&#45;&gt;Node2</title>
<g id="a_edge1_Node000001_Node000002"><a xlink:title=" ">
<path fill="none" stroke="#63b8ff" d="M384.29,-329.98C434.11,-320.72 513.78,-305.9 567.34,-295.94"/>
<polygon fill="#63b8ff" stroke="#63b8ff" points="568.16,-299.35 577.35,-294.08 566.88,-292.47 568.16,-299.35"/>
</a>
</g>
</g>
<!-- Node14 -->
<g id="Node000014" class="node">
<title>Node14</title>
<g id="a_Node000014"><a xlink:href="_semaphore_8h.html" target="_top" xlink:title=" ">
<polygon fill="white" stroke="#666666" points="407,-294 270,-294 270,-275 407,-275 407,-294"/>
<text text-anchor="middle" x="338.5" y="-282" font-family="Helvetica,sans-Serif" font-size="10.00">Kit/System/Semaphore.h</text>
</a>
</g>
</g>
<!-- Node1&#45;&gt;Node14 -->
<g id="edge14_Node000001_Node000014" class="edge">
<title>Node1&#45;&gt;Node14</title>
<g id="a_edge14_Node000001_Node000014"><a xlink:title=" ">
<path fill="none" stroke="#63b8ff" d="M338.5,-329.75C338.5,-322.8 338.5,-312.85 338.5,-304.13"/>
<polygon fill="#63b8ff" stroke="#63b8ff" points="342,-304.09 338.5,-294.09 335,-304.09 342,-304.09"/>
</a>
</g>
</g>
<!-- Node15 -->
<g id="Node000015" class="node">
<title>Node15</title>
<g id="a_Node000015"><a xlink:href="_f_string_8h.html" target="_top" xlink:title=" ">
<polygon fill="white" stroke="#666666" points="207,-294 108,-294 108,-275 207,-275 207,-294"/>
<text text-anchor="middle" x="157.5" y="-282" font-family="Helvetica,sans-Serif" font-size="10.00">Kit/Text/FString.h</text>
</a>
</g>
</g>
<!-- Node1&#45;&gt;Node15 -->
<g id="edge17_Node000001_Node000015" class="edge">
<title>Node1&#45;&gt;Node15</title>
<g id="a_edge17_Node000001_Node000015"><a xlink:title=" ">
<path fill="none" stroke="#63b8ff" d="M309.42,-329.98C278.9,-321.05 230.74,-306.94 196.84,-297.02"/>
<polygon fill="#63b8ff" stroke="#63b8ff" points="197.39,-293.53 186.81,-294.08 195.42,-300.25 197.39,-293.53"/>
</a>
</g>
</g>
<!-- Node3 -->
<g id="Node000003" class="node">
<title>Node3</title>
<g id="a_Node000003"><a xlink:title=" ">
<polygon fill="#e0e0e0" stroke="#999999" points="1063,-184 990,-184 990,-165 1063,-165 1063,-184"/>
<text text-anchor="middle" x="1026.5" y="-172" font-family="Helvetica,sans-Serif" font-size="10.00">kit_config.h</text>
</a>
</g>
</g>
<!-- Node2&#45;&gt;Node3 -->
<g id="edge2_Node000002_Node000003" class="edge">
<title>Node2&#45;&gt;Node3</title>
<g id="a_edge2_Node000002_Node000003"><a xlink:title=" ">
<path fill="none" stroke="#63b8ff" d="M681.79,-284.04C776,-283.74 956.09,-277.89 1004.5,-239 1017.85,-228.28 1023.12,-208.98 1025.19,-194.46"/>
<polygon fill="#63b8ff" stroke="#63b8ff" points="1028.72,-194.4 1026.26,-184.1 1021.75,-193.69 1028.72,-194.4"/>
</a>
</g>
</g>
<!-- Node4 -->
<g id="Node000004" class="node">
<title>Node4</title>
<g id="a_Node000004"><a xlink:title=" ">
<polygon fill="#e0e0e0" stroke="#999999" points="279,-239 214,-239 214,-220 279,-220 279,-239"/>
<text text-anchor="middle" x="246.5" y="-227" font-family="Helvetica,sans-Serif" font-size="10.00">kit_map.h</text>
</a>
</g>
</g>
<!-- Node2&#45;&gt;Node4 -->
<g id="edge3_Node000002_Node000004" class="edge">
<title>Node2&#45;&gt;Node4</title>
<g id="a_edge3_Node000002_Node000004"><a xlink:title=" ">
<path fill="none" stroke="#63b8ff" d="M565.34,-277.1C500.29,-269.65 391.59,-256.33 289.04,-239.16"/>
<polygon fill="#63b8ff" stroke="#63b8ff" points="289.58,-235.7 279.13,-237.49 288.41,-242.61 289.58,-235.7"/>
</a>
</g>
</g>
<!-- Node5 -->
<g id="Node000005" class="node">
<title>Node5</title>
<g id="a_Node000005"><a xlink:href="_i_runnable_8h.html" target="_top" xlink:title=" ">
<polygon fill="white" stroke="#666666" points="612,-239 481,-239 481,-220 612,-220 612,-239"/>
<text text-anchor="middle" x="546.5" y="-227" font-family="Helvetica,sans-Serif" font-size="10.00">Kit/System/IRunnable.h</text>
</a>
</g>
</g>
<!-- Node2&#45;&gt;Node5 -->
<g id="edge4_Node000002_Node000005" class="edge">
<title>Node2&#45;&gt;Node5</title>
<g id="a_edge4_Node000002_Node000005"><a xlink:title=" ">
<path fill="none" stroke="#63b8ff" d="M611.13,-274.98C599.41,-266.92 581.58,-254.65 567.61,-245.03"/>
<polygon fill="#63b8ff" stroke="#63b8ff" points="569.32,-241.96 559.1,-239.17 565.35,-247.72 569.32,-241.96"/>
</a>
</g>
</g>
<!-- Node6 -->
<g id="Node000006" class="node">
<title>Node6</title>
<g id="a_Node000006"><a xlink:href="_i_signable_8h.html" target="_top" xlink:title=" ">
<polygon fill="white" stroke="#666666" points="424,-239 297,-239 297,-220 424,-220 424,-239"/>
<text text-anchor="middle" x="360.5" y="-227" font-family="Helvetica,sans-Serif" font-size="10.00">Kit/System/ISignable.h</text>
</a>
</g>
</g>
<!-- Node2&#45;&gt;Node6 -->
<g id="edge5_Node000002_Node000006" class="edge">
<title>Node2&#45;&gt;Node6</title>
<g id="a_edge5_Node000002_Node000006"><a xlink:title=" ">
<path fill="none" stroke="#63b8ff" d="M581.24,-274.98C535.46,-265.76 462.36,-251.03 412.95,-241.07"/>
<polygon fill="#63b8ff" stroke="#63b8ff" points="413.58,-237.63 403.09,-239.08 412.2,-244.49 413.58,-237.63"/>
</a>
</g>
</g>
<!-- Node7 -->
<g id="Node000007" class="node">
<title>Node7</title>
<g id="a_Node000007"><a xlink:href="_tls_8h.html" target="_top" xlink:title=" ">
<polygon fill="white" stroke="#666666" points="1147.5,-239 1051.5,-239 1051.5,-220 1147.5,-220 1147.5,-239"/>
<text text-anchor="middle" x="1099.5" y="-227" font-family="Helvetica,sans-Serif" font-size="10.00">Kit/System/Tls.h</text>
</a>
</g>
</g>
<!-- Node2&#45;&gt;Node7 -->
<g id="edge6_Node000002_Node000007" class="edge">
<title>Node2&#45;&gt;Node7</title>
<g id="a_edge6_Node000002_Node000007"><a xlink:title=" ">
<path fill="none" stroke="#63b8ff" d="M681.84,-277.77C762.05,-269.77 910.85,-254.48 1037.5,-239 1038.77,-238.84 1040.06,-238.68 1041.36,-238.52"/>
<polygon fill="#63b8ff" stroke="#63b8ff" points="1041.98,-241.97 1051.45,-237.23 1041.09,-235.03 1041.98,-241.97"/>
</a>
</g>
</g>
<!-- Node9 -->
<g id="Node000009" class="node">
<title>Node9</title>
<g id="a_Node000009"><a xlink:href="_traverser_status_8h.html" target="_top" xlink:title=" ">
<polygon fill="white" stroke="#666666" points="773,-239 630,-239 630,-220 773,-220 773,-239"/>
<text text-anchor="middle" x="701.5" y="-227" font-family="Helvetica,sans-Serif" font-size="10.00">Kit/Type/TraverserStatus.h</text>
</a>
</g>
</g>
<!-- Node2&#45;&gt;Node9 -->
<g id="edge9_Node000002_Node000009" class="edge">
<title>Node2&#45;&gt;Node9</title>
<g id="a_edge9_Node000002_Node000009"><a xlink:title=" ">
<path fill="none" stroke="#63b8ff" d="M636.03,-274.98C647.9,-266.92 665.96,-254.65 680.11,-245.03"/>
<polygon fill="#63b8ff" stroke="#63b8ff" points="682.44,-247.69 688.74,-239.17 678.5,-241.9 682.44,-247.69"/>
</a>
</g>
</g>
<!-- Node10 -->
<g id="Node000010" class="node">
<title>Node10</title>
<g id="a_Node000010"><a xlink:href="_list_item_8h.html" target="_top" xlink:title=" ">
<polygon fill="white" stroke="#666666" points="923.5,-239 791.5,-239 791.5,-220 923.5,-220 923.5,-239"/>
<text text-anchor="middle" x="857.5" y="-227" font-family="Helvetica,sans-Serif" font-size="10.00">Kit/Container/ListItem.h</text>
</a>
</g>
</g>
<!-- Node2&#45;&gt;Node10 -->
<g id="edge10_Node000002_Node000010" class="edge">
<title>Node2&#45;&gt;Node10</title>
<g id="a_edge10_Node000002_Node000010"><a xlink:title=" ">
<path fill="none" stroke="#63b8ff" d="M661.1,-274.98C701.49,-265.84 765.78,-251.27 809.73,-241.32"/>
<polygon fill="#63b8ff" stroke="#63b8ff" points="810.63,-244.7 819.61,-239.08 809.08,-237.88 810.63,-244.7"/>
</a>
</g>
</g>
<!-- Node12 -->
<g id="Node000012" class="node">
<title>Node12</title>
<g id="a_Node000012"><a xlink:title=" ">
<polygon fill="#e0e0e0" stroke="#999999" points="315,-19 262,-19 262,0 315,0 315,-19"/>
<text text-anchor="middle" x="288.5" y="-7" font-family="Helvetica,sans-Serif" font-size="10.00">stdlib.h</text>
</a>
</g>
</g>
<!-- Node2&#45;&gt;Node12 -->
<g id="edge12_Node000002_Node000012" class="edge">
<title>Node2&#45;&gt;Node12</title>
<g id="a_edge12_Node000002_Node000012"><a xlink:title=" ">
<path fill="none" stroke="#63b8ff" d="M565.48,-279.74C533.87,-274.76 496.27,-263.62 471.5,-239 450.61,-218.23 452.5,-204.96 452.5,-175.5 452.5,-175.5 452.5,-175.5 452.5,-118.5 452.5,-89.04 454.26,-75.9 433.5,-55 404.79,-26.08 357.8,-15.87 325.13,-12.31"/>
<polygon fill="#63b8ff" stroke="#63b8ff" points="325.35,-8.81 315.06,-11.37 324.7,-15.78 325.35,-8.81"/>
</a>
</g>
</g>
<!-- Node13 -->
<g id="Node000013" class="node">
<title>Node13</title>
<g id="a_Node000013"><a xlink:title=" ">
<polygon fill="#e0e0e0" stroke="#999999" points="995,-239 942,-239 942,-220 995,-220 995,-239"/>
<text text-anchor="middle" x="968.5" y="-227" font-family="Helvetica,sans-Serif" font-size="10.00">string.h</text>
</a>
</g>
</g>
<!-- Node2&#45;&gt;Node13 -->
<g id="edge13_Node000002_Node000013" class="edge">
<title>Node2&#45;&gt;Node13</title>
<g id="a_edge13_Node000002_Node000013"><a xlink:title=" ">
<path fill="none" stroke="#63b8ff" d="M681.56,-276.7C741.72,-269.31 838.66,-256.41 931.93,-238.95"/>
<polygon fill="#63b8ff" stroke="#63b8ff" points="932.65,-242.38 941.82,-237.08 931.34,-235.5 932.65,-242.38"/>
</a>
</g>
</g>
<!-- Node7&#45;&gt;Node3 -->
<g id="edge7_Node000007_Node000003" class="edge">
<title>Node7&#45;&gt;Node3</title>
<g id="a_edge7_Node000007_Node000003"><a xlink:title=" ">
<path fill="none" stroke="#63b8ff" d="M1087.77,-219.98C1076.77,-212 1060.08,-199.88 1046.9,-190.31"/>
<polygon fill="#63b8ff" stroke="#63b8ff" points="1048.59,-187.21 1038.44,-184.17 1044.48,-192.88 1048.59,-187.21"/>
</a>
</g>
</g>
<!-- Node8 -->
<g id="Node000008" class="node">
<title>Node8</title>
<g id="a_Node000008"><a xlink:title=" ">
<polygon fill="#e0e0e0" stroke="#999999" points="750,-19 697,-19 697,0 750,0 750,-19"/>
<text text-anchor="middle" x="723.5" y="-7" font-family="Helvetica,sans-Serif" font-size="10.00">stdint.h</text>
</a>
</g>
</g>
<!-- Node7&#45;&gt;Node8 -->
<g id="edge8_Node000007_Node000008" class="edge">
<title>Node7&#45;&gt;Node8</title>
<g id="a_edge8_Node000007_Node000008"><a xlink:title=" ">
<path fill="none" stroke="#63b8ff" d="M1097.97,-219.98C1095.15,-206.64 1087.97,-180.7 1072.5,-165 982.7,-73.87 829.82,-32.31 760.1,-17.39"/>
<polygon fill="#63b8ff" stroke="#63b8ff" points="760.55,-13.91 750.04,-15.3 759.12,-20.77 760.55,-13.91"/>
</a>
</g>
</g>
<!-- Node11 -->
<g id="Node000011" class="node">
<title>Node11</title>
<g id="a_Node000011"><a xlink:href="_item_8h.html" target="_top" xlink:title=" ">
<polygon fill="white" stroke="#666666" points="915,-184 800,-184 800,-165 915,-165 915,-184"/>
<text text-anchor="middle" x="857.5" y="-172" font-family="Helvetica,sans-Serif" font-size="10.00">Kit/Container/Item.h</text>
</a>
</g>
</g>
<!-- Node10&#45;&gt;Node11 -->
<g id="edge11_Node000010_Node000011" class="edge">
<title>Node10&#45;&gt;Node11</title>
<g id="a_edge11_Node000010_Node000011"><a xlink:title=" ">
<path fill="none" stroke="#63b8ff" d="M857.5,-219.75C857.5,-212.8 857.5,-202.85 857.5,-194.13"/>
<polygon fill="#63b8ff" stroke="#63b8ff" points="861,-194.09 857.5,-184.09 854,-194.09 861,-194.09"/>
</a>
</g>
</g>
<!-- Node14&#45;&gt;Node4 -->
<g id="edge15_Node000014_Node000004" class="edge">
<title>Node14&#45;&gt;Node4</title>
<g id="a_edge15_Node000014_Node000004"><a xlink:title=" ">
<path fill="none" stroke="#63b8ff" d="M323.72,-274.98C309.32,-266.69 287.19,-253.94 270.31,-244.22"/>
<polygon fill="#63b8ff" stroke="#63b8ff" points="271.96,-241.13 261.55,-239.17 268.47,-247.19 271.96,-241.13"/>
</a>
</g>
</g>
<!-- Node14&#45;&gt;Node6 -->
<g id="edge16_Node000014_Node000006" class="edge">
<title>Node14&#45;&gt;Node6</title>
<g id="a_edge16_Node000014_Node000006"><a xlink:title=" ">
<path fill="none" stroke="#63b8ff" d="M342.13,-274.75C345.08,-267.65 349.33,-257.4 353.01,-248.56"/>
<polygon fill="#63b8ff" stroke="#63b8ff" points="356.33,-249.67 356.93,-239.09 349.87,-246.98 356.33,-249.67"/>
</a>
</g>
</g>
<!-- Node16 -->
<g id="Node000016" class="node">
<title>Node16</title>
<g id="a_Node000016"><a xlink:href="_f_string_base_8h.html" target="_top" xlink:title=" ">
<polygon fill="white" stroke="#666666" points="196,-239 73,-239 73,-220 196,-220 196,-239"/>
<text text-anchor="middle" x="134.5" y="-227" font-family="Helvetica,sans-Serif" font-size="10.00">Kit/Text/FStringBase.h</text>
</a>
</g>
</g>
<!-- Node15&#45;&gt;Node16 -->
<g id="edge18_Node000015_Node000016" class="edge">
<title>Node15&#45;&gt;Node16</title>
<g id="a_edge18_Node000015_Node000016"><a xlink:title=" ">
<path fill="none" stroke="#63b8ff" d="M153.7,-274.75C150.59,-267.57 146.08,-257.18 142.21,-248.27"/>
<polygon fill="#63b8ff" stroke="#63b8ff" points="145.42,-246.87 138.23,-239.09 139,-249.66 145.42,-246.87"/>
</a>
</g>
</g>
<!-- Node17 -->
<g id="Node000017" class="node">
<title>Node17</title>
<g id="a_Node000017"><a xlink:href="_string_base_8h.html" target="_top" xlink:title=" ">
<polygon fill="white" stroke="#666666" points="226.5,-184 108.5,-184 108.5,-165 226.5,-165 226.5,-184"/>
<text text-anchor="middle" x="167.5" y="-172" font-family="Helvetica,sans-Serif" font-size="10.00">Kit/Text/StringBase.h</text>
</a>
</g>
</g>
<!-- Node16&#45;&gt;Node17 -->
<g id="edge19_Node000016_Node000017" class="edge">
<title>Node16&#45;&gt;Node17</title>
<g id="a_edge19_Node000016_Node000017"><a xlink:title=" ">
<path fill="none" stroke="#63b8ff" d="M139.95,-219.75C144.51,-212.42 151.17,-201.73 156.79,-192.7"/>
<polygon fill="#63b8ff" stroke="#63b8ff" points="159.84,-194.43 162.15,-184.09 153.9,-190.73 159.84,-194.43"/>
</a>
</g>
</g>
<!-- Node18 -->
<g id="Node000018" class="node">
<title>Node18</title>
<g id="a_Node000018"><a xlink:href="_i_string_8h.html" target="_top" xlink:title=" ">
<polygon fill="white" stroke="#666666" points="248,-129 151,-129 151,-110 248,-110 248,-129"/>
<text text-anchor="middle" x="199.5" y="-117" font-family="Helvetica,sans-Serif" font-size="10.00">Kit/Text/IString.h</text>
</a>
</g>
</g>
<!-- Node17&#45;&gt;Node18 -->
<g id="edge20_Node000017_Node000018" class="edge">
<title>Node17&#45;&gt;Node18</title>
<g id="a_edge20_Node000017_Node000018"><a xlink:title=" ">
<path fill="none" stroke="#63b8ff" d="M172.78,-164.75C177.21,-157.42 183.66,-146.73 189.12,-137.7"/>
<polygon fill="#63b8ff" stroke="#63b8ff" points="192.14,-139.46 194.31,-129.09 186.15,-135.84 192.14,-139.46"/>
</a>
</g>
</g>
<!-- Node19 -->
<g id="Node000019" class="node">
<title>Node19</title>
<g id="a_Node000019"><a xlink:href="_key_8h.html" target="_top" xlink:title=" ">
<polygon fill="white" stroke="#666666" points="109,-74 0,-74 0,-55 109,-55 109,-74"/>
<text text-anchor="middle" x="54.5" y="-62" font-family="Helvetica,sans-Serif" font-size="10.00">Kit/Container/Key.h</text>
</a>
</g>
</g>
<!-- Node18&#45;&gt;Node19 -->
<g id="edge21_Node000018_Node000019" class="edge">
<title>Node18&#45;&gt;Node19</title>
<g id="a_edge21_Node000018_Node000019"><a xlink:title=" ">
<path fill="none" stroke="#63b8ff" d="M176.2,-109.98C152.25,-101.23 114.72,-87.51 87.67,-77.62"/>
<polygon fill="#63b8ff" stroke="#63b8ff" points="88.81,-74.32 78.22,-74.17 86.41,-80.89 88.81,-74.32"/>
</a>
</g>
</g>
<!-- Node21 -->
<g id="Node000021" class="node">
<title>Node21</title>
<g id="a_Node000021"><a xlink:href="printfchecker_8h.html" target="_top" xlink:title="This file contains macro that enables the GCC (and Clang) compiler to validate printf flags with thei...">
<polygon fill="white" stroke="#666666" points="272,-74 127,-74 127,-55 272,-55 272,-74"/>
<text text-anchor="middle" x="199.5" y="-62" font-family="Helvetica,sans-Serif" font-size="10.00">Kit/System/printfchecker.h</text>
</a>
</g>
</g>
<!-- Node18&#45;&gt;Node21 -->
<g id="edge25_Node000018_Node000021" class="edge">
<title>Node18&#45;&gt;Node21</title>
<g id="a_edge25_Node000018_Node000021"><a xlink:title=" ">
<path fill="none" stroke="#63b8ff" d="M199.5,-109.75C199.5,-102.8 199.5,-92.85 199.5,-84.13"/>
<polygon fill="#63b8ff" stroke="#63b8ff" points="203,-84.09 199.5,-74.09 196,-84.09 203,-84.09"/>
</a>
</g>
</g>
<!-- Node22 -->
<g id="Node000022" class="node">
<title>Node22</title>
<g id="a_Node000022"><a xlink:title=" ">
<polygon fill="#e0e0e0" stroke="#999999" points="346.5,-74 290.5,-74 290.5,-55 346.5,-55 346.5,-74"/>
<text text-anchor="middle" x="318.5" y="-62" font-family="Helvetica,sans-Serif" font-size="10.00">stdarg.h</text>
</a>
</g>
</g>
<!-- Node18&#45;&gt;Node22 -->
<g id="edge26_Node000018_Node000022" class="edge">
<title>Node18&#45;&gt;Node22</title>
<g id="a_edge26_Node000018_Node000022"><a xlink:title=" ">
<path fill="none" stroke="#63b8ff" d="M218.62,-109.98C237.85,-101.42 267.73,-88.11 289.81,-78.28"/>
<polygon fill="#63b8ff" stroke="#63b8ff" points="291.32,-81.44 299.03,-74.17 288.47,-75.04 291.32,-81.44"/>
</a>
</g>
</g>
<!-- Node23 -->
<g id="Node000023" class="node">
<title>Node23</title>
<g id="a_Node000023"><a xlink:title=" ">
<polygon fill="#e0e0e0" stroke="#999999" points="424.5,-74 364.5,-74 364.5,-55 424.5,-55 424.5,-74"/>
<text text-anchor="middle" x="394.5" y="-62" font-family="Helvetica,sans-Serif" font-size="10.00">iostream</text>
</a>
</g>
</g>
<!-- Node18&#45;&gt;Node23 -->
<g id="edge27_Node000018_Node000023" class="edge">
<title>Node18&#45;&gt;Node23</title>
<g id="a_edge27_Node000018_Node000023"><a xlink:title=" ">
<path fill="none" stroke="#63b8ff" d="M230.83,-109.98C264.39,-100.86 317.74,-86.36 354.36,-76.41"/>
<polygon fill="#63b8ff" stroke="#63b8ff" points="355.48,-79.73 364.21,-73.73 353.64,-72.98 355.48,-79.73"/>
</a>
</g>
</g>
<!-- Node19&#45;&gt;Node8 -->
<g id="edge22_Node000019_Node000008" class="edge">
<title>Node19&#45;&gt;Node8</title>
<g id="a_edge22_Node000019_Node000008"><a xlink:title=" ">
<path fill="none" stroke="#63b8ff" d="M109.11,-55.93C111.95,-55.6 114.76,-55.29 117.5,-55 332.7,-32.6 592.04,-17.53 686.67,-12.42"/>
<polygon fill="#63b8ff" stroke="#63b8ff" points="687.07,-15.91 696.87,-11.88 686.69,-8.92 687.07,-15.91"/>
</a>
</g>
</g>
<!-- Node19&#45;&gt;Node12 -->
<g id="edge23_Node000019_Node000012" class="edge">
<title>Node19&#45;&gt;Node12</title>
<g id="a_edge23_Node000019_Node000012"><a xlink:title=" ">
<path fill="none" stroke="#63b8ff" d="M92.1,-54.98C136.11,-45.02 208.51,-28.62 252.03,-18.76"/>
<polygon fill="#63b8ff" stroke="#63b8ff" points="252.93,-22.14 261.91,-16.52 251.39,-15.32 252.93,-22.14"/>
</a>
</g>
</g>
<!-- Node20 -->
<g id="Node000020" class="node">
<title>Node20</title>
<g id="a_Node000020"><a xlink:title=" ">
<polygon fill="#e0e0e0" stroke="#999999" points="81,-19 28,-19 28,0 81,0 81,-19"/>
<text text-anchor="middle" x="54.5" y="-7" font-family="Helvetica,sans-Serif" font-size="10.00">limits.h</text>
</a>
</g>
</g>
<!-- Node19&#45;&gt;Node20 -->
<g id="edge24_Node000019_Node000020" class="edge">
<title>Node19&#45;&gt;Node20</title>
<g id="a_edge24_Node000019_Node000020"><a xlink:title=" ">
<path fill="none" stroke="#63b8ff" d="M54.5,-54.75C54.5,-47.8 54.5,-37.85 54.5,-29.13"/>
<polygon fill="#63b8ff" stroke="#63b8ff" points="58,-29.09 54.5,-19.09 51,-29.09 58,-29.09"/>
</a>
</g>
</g>
</g>
</svg>
