<?xml version="1.0" encoding="UTF-8" standalone="no"?>
<!DOCTYPE svg PUBLIC "-//W3C//DTD SVG 1.1//EN"
 "http://www.w3.org/Graphics/SVG/1.1/DTD/svg11.dtd">
<!-- Generated by graphviz version 2.43.0 (0)
 -->
<!-- Title: Kit/EventQueue/WithPeriodicScheduling.h Pages: 1 -->
<svg width="1702pt" height="434pt"
 viewBox="0.00 0.00 1702.33 434.00" xmlns="http://www.w3.org/2000/svg" xmlns:xlink="http://www.w3.org/1999/xlink">
<g id="graph0" class="graph" transform="scale(1 1) rotate(0) translate(4 430)">
<title>Kit/EventQueue/WithPeriodicScheduling.h</title>
<!-- Node1 -->
<g id="Node000001" class="node">
<title>Node1</title>
<g id="a_Node000001"><a xlink:title=" ">
<polygon fill="#999999" stroke="#666666" points="1034.5,-426 877.5,-426 877.5,-396 1034.5,-396 1034.5,-426"/>
<text text-anchor="start" x="885.5" y="-414" font-family="Helvetica,sans-Serif" font-size="10.00">Kit/EventQueue/WithPeriodic</text>
<text text-anchor="middle" x="956" y="-403" font-family="Helvetica,sans-Serif" font-size="10.00">Scheduling.h</text>
</a>
</g>
</g>
<!-- Node2 -->
<g id="Node000002" class="node">
<title>Node2</title>
<g id="a_Node000002"><a xlink:href="src_2_kit_2_event_queue_2_server_8h.html" target="_top" xlink:title=" ">
<polygon fill="white" stroke="#666666" points="938.5,-360 803.5,-360 803.5,-341 938.5,-341 938.5,-360"/>
<text text-anchor="middle" x="871" y="-348" font-family="Helvetica,sans-Serif" font-size="10.00">Kit/EventQueue/Server.h</text>
</a>
</g>
</g>
<!-- Node1&#45;&gt;Node2 -->
<g id="edge1_Node000001_Node000002" class="edge">
<title>Node1&#45;&gt;Node2</title>
<g id="a_edge1_Node000001_Node000002"><a xlink:title=" ">
<path fill="none" stroke="#63b8ff" d="M935.42,-395.84C922.33,-386.83 905.41,-375.18 892.2,-366.09"/>
<polygon fill="#63b8ff" stroke="#63b8ff" points="893.96,-363.05 883.74,-360.27 889.99,-368.82 893.96,-363.05"/>
</a>
</g>
</g>
<!-- Node29 -->
<g id="Node000029" class="node">
<title>Node29</title>
<g id="a_Node000029"><a xlink:href="_periodic_scheduler_8h.html" target="_top" xlink:title=" ">
<polygon fill="white" stroke="#666666" points="1138,-360 970,-360 970,-341 1138,-341 1138,-360"/>
<text text-anchor="middle" x="1054" y="-348" font-family="Helvetica,sans-Serif" font-size="10.00">Kit/System/PeriodicScheduler.h</text>
</a>
</g>
</g>
<!-- Node1&#45;&gt;Node29 -->
<g id="edge50_Node000001_Node000029" class="edge">
<title>Node1&#45;&gt;Node29</title>
<g id="a_edge50_Node000001_Node000029"><a xlink:title=" ">
<path fill="none" stroke="#63b8ff" d="M979.72,-395.84C995.2,-386.6 1015.32,-374.59 1030.71,-365.4"/>
<polygon fill="#63b8ff" stroke="#63b8ff" points="1032.81,-368.23 1039.6,-360.09 1029.22,-362.21 1032.81,-368.23"/>
</a>
</g>
</g>
<!-- Node3 -->
<g id="Node000003" class="node">
<title>Node3</title>
<g id="a_Node000003"><a xlink:href="_event_loop_8h.html" target="_top" xlink:title=" ">
<polygon fill="white" stroke="#666666" points="937.5,-305 804.5,-305 804.5,-286 937.5,-286 937.5,-305"/>
<text text-anchor="middle" x="871" y="-293" font-family="Helvetica,sans-Serif" font-size="10.00">Kit/System/EventLoop.h</text>
</a>
</g>
</g>
<!-- Node2&#45;&gt;Node3 -->
<g id="edge2_Node000002_Node000003" class="edge">
<title>Node2&#45;&gt;Node3</title>
<g id="a_edge2_Node000002_Node000003"><a xlink:title=" ">
<path fill="none" stroke="#63b8ff" d="M871,-340.75C871,-333.8 871,-323.85 871,-315.13"/>
<polygon fill="#63b8ff" stroke="#63b8ff" points="874.5,-315.09 871,-305.09 867.5,-315.09 874.5,-315.09"/>
</a>
</g>
</g>
<!-- Node21 -->
<g id="Node000021" class="node">
<title>Node21</title>
<g id="a_Node000021"><a xlink:href="_i_watched_event_loop_8h.html" target="_top" xlink:title=" ">
<polygon fill="white" stroke="#666666" points="1282,-250 1136,-250 1136,-220 1282,-220 1282,-250"/>
<text text-anchor="start" x="1144" y="-238" font-family="Helvetica,sans-Serif" font-size="10.00">Kit/System/IWatchedEvent</text>
<text text-anchor="middle" x="1209" y="-227" font-family="Helvetica,sans-Serif" font-size="10.00">Loop.h</text>
</a>
</g>
</g>
<!-- Node2&#45;&gt;Node21 -->
<g id="edge30_Node000002_Node000021" class="edge">
<title>Node2&#45;&gt;Node21</title>
<g id="a_edge30_Node000002_Node000021"><a xlink:title=" ">
<path fill="none" stroke="#63b8ff" d="M896.4,-340.97C951.72,-322.39 1084,-277.97 1157.52,-253.29"/>
<polygon fill="#63b8ff" stroke="#63b8ff" points="1158.69,-256.59 1167.05,-250.09 1156.46,-249.95 1158.69,-256.59"/>
</a>
</g>
</g>
<!-- Node22 -->
<g id="Node000022" class="node">
<title>Node22</title>
<g id="a_Node000022"><a xlink:href="_mailbox_8h.html" target="_top" xlink:title=" ">
<polygon fill="white" stroke="#666666" points="393,-305 297,-305 297,-286 393,-286 393,-305"/>
<text text-anchor="middle" x="345" y="-293" font-family="Helvetica,sans-Serif" font-size="10.00">Kit/Itc/Mailbox.h</text>
</a>
</g>
</g>
<!-- Node2&#45;&gt;Node22 -->
<g id="edge31_Node000002_Node000022" class="edge">
<title>Node2&#45;&gt;Node22</title>
<g id="a_edge31_Node000002_Node000022"><a xlink:title=" ">
<path fill="none" stroke="#63b8ff" d="M803.31,-342.68C699.2,-332.19 501.54,-312.27 403.36,-302.38"/>
<polygon fill="#63b8ff" stroke="#63b8ff" points="403.62,-298.89 393.32,-301.37 402.92,-305.85 403.62,-298.89"/>
</a>
</g>
</g>
<!-- Node27 -->
<g id="Node000027" class="node">
<title>Node27</title>
<g id="a_Node000027"><a xlink:href="_change_handler_8h.html" target="_top" xlink:title=" ">
<polygon fill="white" stroke="#666666" points="548.5,-244.5 411.5,-244.5 411.5,-225.5 548.5,-225.5 548.5,-244.5"/>
<text text-anchor="middle" x="480" y="-232.5" font-family="Helvetica,sans-Serif" font-size="10.00">Kit/Dm/ChangeHandler.h</text>
</a>
</g>
</g>
<!-- Node2&#45;&gt;Node27 -->
<g id="edge44_Node000002_Node000027" class="edge">
<title>Node2&#45;&gt;Node27</title>
<g id="a_edge44_Node000002_Node000027"><a xlink:title=" ">
<path fill="none" stroke="#63b8ff" d="M841.61,-340.97C772.18,-320.81 597.95,-270.24 519.44,-247.45"/>
<polygon fill="#63b8ff" stroke="#63b8ff" points="520.04,-243.98 509.46,-244.55 518.09,-250.7 520.04,-243.98"/>
</a>
</g>
</g>
<!-- Node4 -->
<g id="Node000004" class="node">
<title>Node4</title>
<g id="a_Node000004"><a xlink:title=" ">
<polygon fill="#e0e0e0" stroke="#999999" points="1673.5,-184 1600.5,-184 1600.5,-165 1673.5,-165 1673.5,-184"/>
<text text-anchor="middle" x="1637" y="-172" font-family="Helvetica,sans-Serif" font-size="10.00">kit_config.h</text>
</a>
</g>
</g>
<!-- Node3&#45;&gt;Node4 -->
<g id="edge3_Node000003_Node000004" class="edge">
<title>Node3&#45;&gt;Node4</title>
<g id="a_edge3_Node000003_Node000004"><a xlink:title=" ">
<path fill="none" stroke="#63b8ff" d="M937.85,-289.63C1020.96,-283.06 1167.01,-269.86 1291,-250 1400.42,-232.47 1527.4,-202.67 1592.88,-186.58"/>
<polygon fill="#63b8ff" stroke="#63b8ff" points="1593.98,-189.91 1602.85,-184.12 1592.3,-183.12 1593.98,-189.91"/>
</a>
</g>
</g>
<!-- Node5 -->
<g id="Node000005" class="node">
<title>Node5</title>
<g id="a_Node000005"><a xlink:href="_i_event_flag_8h.html" target="_top" xlink:title=" ">
<polygon fill="white" stroke="#666666" points="701,-244.5 567,-244.5 567,-225.5 701,-225.5 701,-244.5"/>
<text text-anchor="middle" x="634" y="-232.5" font-family="Helvetica,sans-Serif" font-size="10.00">Kit/System/IEventFlag.h</text>
</a>
</g>
</g>
<!-- Node3&#45;&gt;Node5 -->
<g id="edge4_Node000003_Node000005" class="edge">
<title>Node3&#45;&gt;Node5</title>
<g id="a_edge4_Node000003_Node000005"><a xlink:title=" ">
<path fill="none" stroke="#63b8ff" d="M836.54,-285.99C794.76,-275.68 724.28,-258.28 678.46,-246.97"/>
<polygon fill="#63b8ff" stroke="#63b8ff" points="679.05,-243.52 668.5,-244.52 677.37,-250.31 679.05,-243.52"/>
</a>
</g>
</g>
<!-- Node11 -->
<g id="Node000011" class="node">
<title>Node11</title>
<g id="a_Node000011"><a xlink:href="_i_runnable_8h.html" target="_top" xlink:title=" ">
<polygon fill="white" stroke="#666666" points="1409.5,-184 1278.5,-184 1278.5,-165 1409.5,-165 1409.5,-184"/>
<text text-anchor="middle" x="1344" y="-172" font-family="Helvetica,sans-Serif" font-size="10.00">Kit/System/IRunnable.h</text>
</a>
</g>
</g>
<!-- Node3&#45;&gt;Node11 -->
<g id="edge11_Node000003_Node000011" class="edge">
<title>Node3&#45;&gt;Node11</title>
<g id="a_edge11_Node000003_Node000011"><a xlink:title=" ">
<path fill="none" stroke="#63b8ff" d="M927.91,-285.95C964.24,-279.17 1011.72,-267.82 1051,-250 1072.22,-240.38 1072.47,-228.92 1094,-220 1124.82,-207.24 1206.56,-194.01 1268.25,-185.33"/>
<polygon fill="#63b8ff" stroke="#63b8ff" points="1268.93,-188.77 1278.35,-183.93 1267.96,-181.84 1268.93,-188.77"/>
</a>
</g>
</g>
<!-- Node12 -->
<g id="Node000012" class="node">
<title>Node12</title>
<g id="a_Node000012"><a xlink:href="_i_signable_8h.html" target="_top" xlink:title=" ">
<polygon fill="white" stroke="#666666" points="381.5,-184 254.5,-184 254.5,-165 381.5,-165 381.5,-184"/>
<text text-anchor="middle" x="318" y="-172" font-family="Helvetica,sans-Serif" font-size="10.00">Kit/System/ISignable.h</text>
</a>
</g>
</g>
<!-- Node3&#45;&gt;Node12 -->
<g id="edge12_Node000003_Node000012" class="edge">
<title>Node3&#45;&gt;Node12</title>
<g id="a_edge12_Node000003_Node000012"><a xlink:title=" ">
<path fill="none" stroke="#63b8ff" d="M804.23,-293.24C692.39,-290.28 472.51,-280.65 402,-250 372.5,-237.18 346.13,-209.94 331.11,-192.19"/>
<polygon fill="#63b8ff" stroke="#63b8ff" points="333.73,-189.86 324.69,-184.34 328.32,-194.3 333.73,-189.86"/>
</a>
</g>
</g>
<!-- Node13 -->
<g id="Node000013" class="node">
<title>Node13</title>
<g id="a_Node000013"><a xlink:href="_i_event_manager_8h.html" target="_top" xlink:title=" ">
<polygon fill="white" stroke="#666666" points="1582.5,-184 1427.5,-184 1427.5,-165 1582.5,-165 1582.5,-184"/>
<text text-anchor="middle" x="1505" y="-172" font-family="Helvetica,sans-Serif" font-size="10.00">Kit/System/IEventManager.h</text>
</a>
</g>
</g>
<!-- Node3&#45;&gt;Node13 -->
<g id="edge13_Node000003_Node000013" class="edge">
<title>Node3&#45;&gt;Node13</title>
<g id="a_edge13_Node000003_Node000013"><a xlink:title=" ">
<path fill="none" stroke="#63b8ff" d="M937.69,-288.14C981.33,-282.2 1038.8,-270.96 1086,-250 1106.64,-240.84 1105.99,-228.26 1127,-220 1140.35,-214.75 1309.51,-196.15 1416.96,-184.72"/>
<polygon fill="#63b8ff" stroke="#63b8ff" points="1417.59,-188.18 1427.16,-183.64 1416.85,-181.22 1417.59,-188.18"/>
</a>
</g>
</g>
<!-- Node14 -->
<g id="Node000014" class="node">
<title>Node14</title>
<g id="a_Node000014"><a xlink:href="_semaphore_8h.html" target="_top" xlink:title=" ">
<polygon fill="white" stroke="#666666" points="316.5,-244.5 179.5,-244.5 179.5,-225.5 316.5,-225.5 316.5,-244.5"/>
<text text-anchor="middle" x="248" y="-232.5" font-family="Helvetica,sans-Serif" font-size="10.00">Kit/System/Semaphore.h</text>
</a>
</g>
</g>
<!-- Node3&#45;&gt;Node14 -->
<g id="edge15_Node000003_Node000014" class="edge">
<title>Node3&#45;&gt;Node14</title>
<g id="a_edge15_Node000003_Node000014"><a xlink:title=" ">
<path fill="none" stroke="#63b8ff" d="M804.36,-289.16C708.16,-281.33 524.8,-265.92 369,-250 355.37,-248.61 340.89,-247.02 326.87,-245.43"/>
<polygon fill="#63b8ff" stroke="#63b8ff" points="327.09,-241.94 316.75,-244.28 326.29,-248.89 327.09,-241.94"/>
</a>
</g>
</g>
<!-- Node16 -->
<g id="Node000016" class="node">
<title>Node16</title>
<g id="a_Node000016"><a xlink:href="_timer_manager_8h.html" target="_top" xlink:title=" ">
<polygon fill="white" stroke="#666666" points="871,-244.5 719,-244.5 719,-225.5 871,-225.5 871,-244.5"/>
<text text-anchor="middle" x="795" y="-232.5" font-family="Helvetica,sans-Serif" font-size="10.00">Kit/System/TimerManager.h</text>
</a>
</g>
</g>
<!-- Node3&#45;&gt;Node16 -->
<g id="edge18_Node000003_Node000016" class="edge">
<title>Node3&#45;&gt;Node16</title>
<g id="a_edge18_Node000003_Node000016"><a xlink:title=" ">
<path fill="none" stroke="#63b8ff" d="M859.79,-285.87C847.89,-276.71 828.86,-262.06 814.49,-251.01"/>
<polygon fill="#63b8ff" stroke="#63b8ff" points="816.32,-247.99 806.26,-244.67 812.05,-253.54 816.32,-247.99"/>
</a>
</g>
</g>
<!-- Node3&#45;&gt;Node21 -->
<g id="edge27_Node000003_Node000021" class="edge">
<title>Node3&#45;&gt;Node21</title>
<g id="a_edge27_Node000003_Node000021"><a xlink:title=" ">
<path fill="none" stroke="#63b8ff" d="M920.15,-285.99C973.94,-276.68 1061.1,-261.6 1125.63,-250.43"/>
<polygon fill="#63b8ff" stroke="#63b8ff" points="1126.53,-253.83 1135.78,-248.67 1125.33,-246.93 1126.53,-253.83"/>
</a>
</g>
</g>
<!-- Node6 -->
<g id="Node000006" class="node">
<title>Node6</title>
<g id="a_Node000006"><a xlink:href="_list_item_8h.html" target="_top" xlink:title=" ">
<polygon fill="white" stroke="#666666" points="445,-74 313,-74 313,-55 445,-55 445,-74"/>
<text text-anchor="middle" x="379" y="-62" font-family="Helvetica,sans-Serif" font-size="10.00">Kit/Container/ListItem.h</text>
</a>
</g>
</g>
<!-- Node5&#45;&gt;Node6 -->
<g id="edge5_Node000005_Node000006" class="edge">
<title>Node5&#45;&gt;Node6</title>
<g id="a_edge5_Node000005_Node000006"><a xlink:title=" ">
<path fill="none" stroke="#63b8ff" d="M595.46,-225.48C525.43,-209.1 382.11,-171.08 356,-129 346.96,-114.43 355.75,-95.78 364.96,-82.47"/>
<polygon fill="#63b8ff" stroke="#63b8ff" points="367.95,-84.32 371.18,-74.23 362.36,-80.1 367.95,-84.32"/>
</a>
</g>
</g>
<!-- Node8 -->
<g id="Node000008" class="node">
<title>Node8</title>
<g id="a_Node000008"><a xlink:href="_s_list_8h.html" target="_top" xlink:title=" ">
<polygon fill="white" stroke="#666666" points="236,-184 120,-184 120,-165 236,-165 236,-184"/>
<text text-anchor="middle" x="178" y="-172" font-family="Helvetica,sans-Serif" font-size="10.00">Kit/Container/SList.h</text>
</a>
</g>
</g>
<!-- Node5&#45;&gt;Node8 -->
<g id="edge7_Node000005_Node000008" class="edge">
<title>Node5&#45;&gt;Node8</title>
<g id="a_edge7_Node000005_Node000008"><a xlink:title=" ">
<path fill="none" stroke="#63b8ff" d="M589.7,-225.44C579.01,-223.51 567.62,-221.58 557,-220 422.16,-199.98 385.29,-200.74 246.29,-184.14"/>
<polygon fill="#63b8ff" stroke="#63b8ff" points="246.45,-180.63 236.1,-182.91 245.61,-187.58 246.45,-180.63"/>
</a>
</g>
</g>
<!-- Node10 -->
<g id="Node000010" class="node">
<title>Node10</title>
<g id="a_Node000010"><a xlink:title=" ">
<polygon fill="#e0e0e0" stroke="#999999" points="777.5,-74 724.5,-74 724.5,-55 777.5,-55 777.5,-74"/>
<text text-anchor="middle" x="751" y="-62" font-family="Helvetica,sans-Serif" font-size="10.00">stdint.h</text>
</a>
</g>
</g>
<!-- Node5&#45;&gt;Node10 -->
<g id="edge10_Node000005_Node000010" class="edge">
<title>Node5&#45;&gt;Node10</title>
<g id="a_edge10_Node000005_Node000010"><a xlink:title=" ">
<path fill="none" stroke="#63b8ff" d="M635.36,-225.24C639.11,-203.54 651.34,-146.42 681,-110 691.79,-96.75 707.61,-86.23 721.48,-78.75"/>
<polygon fill="#63b8ff" stroke="#63b8ff" points="723.37,-81.71 730.69,-74.06 720.19,-75.48 723.37,-81.71"/>
</a>
</g>
</g>
<!-- Node7 -->
<g id="Node000007" class="node">
<title>Node7</title>
<g id="a_Node000007"><a xlink:href="_item_8h.html" target="_top" xlink:title=" ">
<polygon fill="white" stroke="#666666" points="436.5,-19 321.5,-19 321.5,0 436.5,0 436.5,-19"/>
<text text-anchor="middle" x="379" y="-7" font-family="Helvetica,sans-Serif" font-size="10.00">Kit/Container/Item.h</text>
</a>
</g>
</g>
<!-- Node6&#45;&gt;Node7 -->
<g id="edge6_Node000006_Node000007" class="edge">
<title>Node6&#45;&gt;Node7</title>
<g id="a_edge6_Node000006_Node000007"><a xlink:title=" ">
<path fill="none" stroke="#63b8ff" d="M379,-54.75C379,-47.8 379,-37.85 379,-29.13"/>
<polygon fill="#63b8ff" stroke="#63b8ff" points="382.5,-29.09 379,-19.09 375.5,-29.09 382.5,-29.09"/>
</a>
</g>
</g>
<!-- Node9 -->
<g id="Node000009" class="node">
<title>Node9</title>
<g id="a_Node000009"><a xlink:href="_s_list_base_8h.html" target="_top" xlink:title=" ">
<polygon fill="white" stroke="#666666" points="293,-129 153,-129 153,-110 293,-110 293,-129"/>
<text text-anchor="middle" x="223" y="-117" font-family="Helvetica,sans-Serif" font-size="10.00">Kit/Container/SListBase.h</text>
</a>
</g>
</g>
<!-- Node8&#45;&gt;Node9 -->
<g id="edge8_Node000008_Node000009" class="edge">
<title>Node8&#45;&gt;Node9</title>
<g id="a_edge8_Node000008_Node000009"><a xlink:title=" ">
<path fill="none" stroke="#63b8ff" d="M185.43,-164.75C191.85,-157.18 201.31,-146.05 209.12,-136.84"/>
<polygon fill="#63b8ff" stroke="#63b8ff" points="211.9,-138.98 215.71,-129.09 206.57,-134.45 211.9,-138.98"/>
</a>
</g>
</g>
<!-- Node9&#45;&gt;Node6 -->
<g id="edge9_Node000009_Node000006" class="edge">
<title>Node9&#45;&gt;Node6</title>
<g id="a_edge9_Node000009_Node000006"><a xlink:title=" ">
<path fill="none" stroke="#63b8ff" d="M248.06,-109.98C274.03,-101.16 314.81,-87.31 343.96,-77.41"/>
<polygon fill="#63b8ff" stroke="#63b8ff" points="345.4,-80.61 353.74,-74.08 343.15,-73.99 345.4,-80.61"/>
</a>
</g>
</g>
<!-- Node13&#45;&gt;Node10 -->
<g id="edge14_Node000013_Node000010" class="edge">
<title>Node13&#45;&gt;Node10</title>
<g id="a_edge14_Node000013_Node000010"><a xlink:title=" ">
<path fill="none" stroke="#63b8ff" d="M1445.52,-164.98C1296.32,-143.61 909.47,-88.2 788.03,-70.8"/>
<polygon fill="#63b8ff" stroke="#63b8ff" points="788.17,-67.29 777.78,-69.34 787.18,-74.22 788.17,-67.29"/>
</a>
</g>
</g>
<!-- Node14&#45;&gt;Node12 -->
<g id="edge17_Node000014_Node000012" class="edge">
<title>Node14&#45;&gt;Node12</title>
<g id="a_edge17_Node000014_Node000012"><a xlink:title=" ">
<path fill="none" stroke="#63b8ff" d="M258.33,-225.37C269.19,-216.3 286.49,-201.84 299.67,-190.82"/>
<polygon fill="#63b8ff" stroke="#63b8ff" points="302.2,-193.27 307.63,-184.17 297.71,-187.89 302.2,-193.27"/>
</a>
</g>
</g>
<!-- Node15 -->
<g id="Node000015" class="node">
<title>Node15</title>
<g id="a_Node000015"><a xlink:title=" ">
<polygon fill="#e0e0e0" stroke="#999999" points="101.5,-184 36.5,-184 36.5,-165 101.5,-165 101.5,-184"/>
<text text-anchor="middle" x="69" y="-172" font-family="Helvetica,sans-Serif" font-size="10.00">kit_map.h</text>
</a>
</g>
</g>
<!-- Node14&#45;&gt;Node15 -->
<g id="edge16_Node000014_Node000015" class="edge">
<title>Node14&#45;&gt;Node15</title>
<g id="a_edge16_Node000014_Node000015"><a xlink:title=" ">
<path fill="none" stroke="#63b8ff" d="M221.97,-225.49C191.08,-215.4 139.42,-198.51 104.78,-187.19"/>
<polygon fill="#63b8ff" stroke="#63b8ff" points="105.65,-183.8 95.06,-184.02 103.48,-190.45 105.65,-183.8"/>
</a>
</g>
</g>
<!-- Node17 -->
<g id="Node000017" class="node">
<title>Node17</title>
<g id="a_Node000017"><a xlink:href="_i_counter_8h.html" target="_top" xlink:title=" ">
<polygon fill="white" stroke="#666666" points="812,-129 690,-129 690,-110 812,-110 812,-129"/>
<text text-anchor="middle" x="751" y="-117" font-family="Helvetica,sans-Serif" font-size="10.00">Kit/System/ICounter.h</text>
</a>
</g>
</g>
<!-- Node16&#45;&gt;Node17 -->
<g id="edge19_Node000016_Node000017" class="edge">
<title>Node16&#45;&gt;Node17</title>
<g id="a_edge19_Node000016_Node000017"><a xlink:title=" ">
<path fill="none" stroke="#63b8ff" d="M744.41,-225.45C720.3,-218.55 693.58,-206.17 679,-184 665.19,-163.01 692.61,-144.72 717.49,-133.23"/>
<polygon fill="#63b8ff" stroke="#63b8ff" points="719.04,-136.37 726.81,-129.17 716.24,-129.96 719.04,-136.37"/>
</a>
</g>
</g>
<!-- Node18 -->
<g id="Node000018" class="node">
<title>Node18</title>
<g id="a_Node000018"><a xlink:href="_i_timing_source_8h.html" target="_top" xlink:title=" ">
<polygon fill="white" stroke="#666666" points="1260,-184 1108,-184 1108,-165 1260,-165 1260,-184"/>
<text text-anchor="middle" x="1184" y="-172" font-family="Helvetica,sans-Serif" font-size="10.00">Kit/System/ITimingSource.h</text>
</a>
</g>
</g>
<!-- Node16&#45;&gt;Node18 -->
<g id="edge22_Node000016_Node000018" class="edge">
<title>Node16&#45;&gt;Node18</title>
<g id="a_edge22_Node000016_Node000018"><a xlink:title=" ">
<path fill="none" stroke="#63b8ff" d="M851.56,-225.49C922,-214.9 1042.17,-196.83 1117.1,-185.56"/>
<polygon fill="#63b8ff" stroke="#63b8ff" points="1118,-188.96 1127.37,-184.02 1116.96,-182.04 1118,-188.96"/>
</a>
</g>
</g>
<!-- Node19 -->
<g id="Node000019" class="node">
<title>Node19</title>
<g id="a_Node000019"><a xlink:href="_d_list_8h.html" target="_top" xlink:title=" ">
<polygon fill="white" stroke="#666666" points="593.5,-184 476.5,-184 476.5,-165 593.5,-165 593.5,-184"/>
<text text-anchor="middle" x="535" y="-172" font-family="Helvetica,sans-Serif" font-size="10.00">Kit/Container/DList.h</text>
</a>
</g>
</g>
<!-- Node16&#45;&gt;Node19 -->
<g id="edge24_Node000016_Node000019" class="edge">
<title>Node16&#45;&gt;Node19</title>
<g id="a_edge24_Node000016_Node000019"><a xlink:title=" ">
<path fill="none" stroke="#63b8ff" d="M757.19,-225.49C711.08,-215.12 633.07,-197.57 582.82,-186.26"/>
<polygon fill="#63b8ff" stroke="#63b8ff" points="583.38,-182.8 572.85,-184.02 581.84,-189.63 583.38,-182.8"/>
</a>
</g>
</g>
<!-- Node17&#45;&gt;Node6 -->
<g id="edge20_Node000017_Node000006" class="edge">
<title>Node17&#45;&gt;Node6</title>
<g id="a_edge20_Node000017_Node000006"><a xlink:title=" ">
<path fill="none" stroke="#63b8ff" d="M691.23,-109.98C625.16,-100.57 518.87,-85.43 448.97,-75.47"/>
<polygon fill="#63b8ff" stroke="#63b8ff" points="449.32,-71.98 438.93,-74.04 448.33,-78.91 449.32,-71.98"/>
</a>
</g>
</g>
<!-- Node17&#45;&gt;Node10 -->
<g id="edge21_Node000017_Node000010" class="edge">
<title>Node17&#45;&gt;Node10</title>
<g id="a_edge21_Node000017_Node000010"><a xlink:title=" ">
<path fill="none" stroke="#63b8ff" d="M751,-109.75C751,-102.8 751,-92.85 751,-84.13"/>
<polygon fill="#63b8ff" stroke="#63b8ff" points="754.5,-84.09 751,-74.09 747.5,-84.09 754.5,-84.09"/>
</a>
</g>
</g>
<!-- Node18&#45;&gt;Node17 -->
<g id="edge23_Node000018_Node000017" class="edge">
<title>Node18&#45;&gt;Node17</title>
<g id="a_edge23_Node000018_Node000017"><a xlink:title=" ">
<path fill="none" stroke="#63b8ff" d="M1114.43,-164.98C1034.31,-155.18 903.34,-139.15 822.44,-129.24"/>
<polygon fill="#63b8ff" stroke="#63b8ff" points="822.69,-125.75 812.34,-128.01 821.84,-132.7 822.69,-125.75"/>
</a>
</g>
</g>
<!-- Node20 -->
<g id="Node000020" class="node">
<title>Node20</title>
<g id="a_Node000020"><a xlink:href="_d_list_base_8h.html" target="_top" xlink:title=" ">
<polygon fill="white" stroke="#666666" points="633.5,-129 492.5,-129 492.5,-110 633.5,-110 633.5,-129"/>
<text text-anchor="middle" x="563" y="-117" font-family="Helvetica,sans-Serif" font-size="10.00">Kit/Container/DListBase.h</text>
</a>
</g>
</g>
<!-- Node19&#45;&gt;Node20 -->
<g id="edge25_Node000019_Node000020" class="edge">
<title>Node19&#45;&gt;Node20</title>
<g id="a_edge25_Node000019_Node000020"><a xlink:title=" ">
<path fill="none" stroke="#63b8ff" d="M539.62,-164.75C543.46,-157.49 549.02,-146.95 553.76,-137.98"/>
<polygon fill="#63b8ff" stroke="#63b8ff" points="556.89,-139.57 558.46,-129.09 550.7,-136.3 556.89,-139.57"/>
</a>
</g>
</g>
<!-- Node20&#45;&gt;Node6 -->
<g id="edge26_Node000020_Node000006" class="edge">
<title>Node20&#45;&gt;Node6</title>
<g id="a_edge26_Node000020_Node000006"><a xlink:title=" ">
<path fill="none" stroke="#63b8ff" d="M533.44,-109.98C502.28,-101.01 453.03,-86.82 418.54,-76.89"/>
<polygon fill="#63b8ff" stroke="#63b8ff" points="419.37,-73.49 408.79,-74.08 417.43,-80.21 419.37,-73.49"/>
</a>
</g>
</g>
<!-- Node21&#45;&gt;Node4 -->
<g id="edge29_Node000021_Node000004" class="edge">
<title>Node21&#45;&gt;Node4</title>
<g id="a_edge29_Node000021_Node000004"><a xlink:title=" ">
<path fill="none" stroke="#63b8ff" d="M1282.25,-225.69C1357.2,-216.91 1477.27,-202.05 1590.01,-184.25"/>
<polygon fill="#63b8ff" stroke="#63b8ff" points="1590.87,-187.66 1600.19,-182.63 1589.77,-180.74 1590.87,-187.66"/>
</a>
</g>
</g>
<!-- Node21&#45;&gt;Node18 -->
<g id="edge28_Node000021_Node000018" class="edge">
<title>Node21&#45;&gt;Node18</title>
<g id="a_edge28_Node000021_Node000018"><a xlink:title=" ">
<path fill="none" stroke="#63b8ff" d="M1202.95,-219.84C1199.58,-211.95 1195.35,-202.05 1191.74,-193.61"/>
<polygon fill="#63b8ff" stroke="#63b8ff" points="1194.89,-192.09 1187.75,-184.27 1188.46,-194.84 1194.89,-192.09"/>
</a>
</g>
</g>
<!-- Node22&#45;&gt;Node8 -->
<g id="edge42_Node000022_Node000008" class="edge">
<title>Node22&#45;&gt;Node8</title>
<g id="a_edge42_Node000022_Node000008"><a xlink:title=" ">
<path fill="none" stroke="#63b8ff" d="M296.99,-288.89C250.71,-282.39 185.49,-269.92 170,-250 157.69,-234.16 163.11,-210.37 169.37,-193.95"/>
<polygon fill="#63b8ff" stroke="#63b8ff" points="172.75,-194.96 173.43,-184.39 166.3,-192.23 172.75,-194.96"/>
</a>
</g>
</g>
<!-- Node22&#45;&gt;Node12 -->
<g id="edge43_Node000022_Node000012" class="edge">
<title>Node22&#45;&gt;Node12</title>
<g id="a_edge43_Node000022_Node000012"><a xlink:title=" ">
<path fill="none" stroke="#63b8ff" d="M343.06,-285.94C338.72,-266.82 328.16,-220.27 322.23,-194.12"/>
<polygon fill="#63b8ff" stroke="#63b8ff" points="325.62,-193.28 320,-184.3 318.8,-194.83 325.62,-193.28"/>
</a>
</g>
</g>
<!-- Node23 -->
<g id="Node000023" class="node">
<title>Node23</title>
<g id="a_Node000023"><a xlink:href="_i_message_8h.html" target="_top" xlink:title=" ">
<polygon fill="white" stroke="#666666" points="104,-129 0,-129 0,-110 104,-110 104,-129"/>
<text text-anchor="middle" x="52" y="-117" font-family="Helvetica,sans-Serif" font-size="10.00">Kit/Itc/IMessage.h</text>
</a>
</g>
</g>
<!-- Node22&#45;&gt;Node23 -->
<g id="edge32_Node000022_Node000023" class="edge">
<title>Node22&#45;&gt;Node23</title>
<g id="a_edge32_Node000022_Node000023"><a xlink:title=" ">
<path fill="none" stroke="#63b8ff" d="M296.8,-294.89C222.7,-292.5 83.46,-275.36 27,-184 17.8,-169.12 27.53,-150.28 37.41,-137"/>
<polygon fill="#63b8ff" stroke="#63b8ff" points="40.18,-139.15 43.73,-129.17 34.73,-134.75 40.18,-139.15"/>
</a>
</g>
</g>
<!-- Node24 -->
<g id="Node000024" class="node">
<title>Node24</title>
<g id="a_Node000024"><a xlink:href="_i_queue_8h.html" target="_top" xlink:title=" ">
<polygon fill="white" stroke="#666666" points="1041.5,-244.5 902.5,-244.5 902.5,-225.5 1041.5,-225.5 1041.5,-244.5"/>
<text text-anchor="middle" x="972" y="-232.5" font-family="Helvetica,sans-Serif" font-size="10.00">Kit/EventQueue/IQueue.h</text>
</a>
</g>
</g>
<!-- Node22&#45;&gt;Node24 -->
<g id="edge34_Node000022_Node000024" class="edge">
<title>Node22&#45;&gt;Node24</title>
<g id="a_edge34_Node000022_Node000024"><a xlink:title=" ">
<path fill="none" stroke="#63b8ff" d="M393.07,-291.6C486.88,-285.7 700.89,-271.05 880,-250 889.75,-248.85 900.05,-247.46 910.09,-246.01"/>
<polygon fill="#63b8ff" stroke="#63b8ff" points="910.64,-249.47 920.02,-244.54 909.62,-242.54 910.64,-249.47"/>
</a>
</g>
</g>
<!-- Node23&#45;&gt;Node6 -->
<g id="edge33_Node000023_Node000006" class="edge">
<title>Node23&#45;&gt;Node6</title>
<g id="a_edge33_Node000023_Node000006"><a xlink:title=" ">
<path fill="none" stroke="#63b8ff" d="M104.18,-110.04C161.91,-100.69 254.91,-85.61 316.49,-75.63"/>
<polygon fill="#63b8ff" stroke="#63b8ff" points="317.16,-79.07 326.47,-74.01 316.04,-72.16 317.16,-79.07"/>
</a>
</g>
</g>
<!-- Node24&#45;&gt;Node4 -->
<g id="edge35_Node000024_Node000004" class="edge">
<title>Node24&#45;&gt;Node4</title>
<g id="a_edge35_Node000024_Node000004"><a xlink:title=" ">
<path fill="none" stroke="#63b8ff" d="M1041.81,-227.5C1068.46,-225.07 1099.13,-222.34 1127,-220 1330.23,-202.96 1384.77,-211.01 1590.01,-184.14"/>
<polygon fill="#63b8ff" stroke="#63b8ff" points="1590.76,-187.57 1600.22,-182.79 1589.84,-180.63 1590.76,-187.57"/>
</a>
</g>
</g>
<!-- Node24&#45;&gt;Node11 -->
<g id="edge38_Node000024_Node000011" class="edge">
<title>Node24&#45;&gt;Node11</title>
<g id="a_edge38_Node000024_Node000011"><a xlink:title=" ">
<path fill="none" stroke="#63b8ff" d="M1022.62,-225.46C1033.62,-223.64 1045.2,-221.73 1056,-220 1131.87,-207.82 1219.09,-194.43 1277.48,-185.55"/>
<polygon fill="#63b8ff" stroke="#63b8ff" points="1278.32,-188.96 1287.68,-184 1277.27,-182.04 1278.32,-188.96"/>
</a>
</g>
</g>
<!-- Node24&#45;&gt;Node12 -->
<g id="edge40_Node000024_Node000012" class="edge">
<title>Node24&#45;&gt;Node12</title>
<g id="a_edge40_Node000024_Node000012"><a xlink:title=" ">
<path fill="none" stroke="#63b8ff" d="M920.51,-225.5C907.33,-223.5 893.16,-221.52 880,-220 705.51,-199.84 499.48,-186.08 391.88,-179.65"/>
<polygon fill="#63b8ff" stroke="#63b8ff" points="391.97,-176.15 381.78,-179.05 391.55,-183.14 391.97,-176.15"/>
</a>
</g>
</g>
<!-- Node24&#45;&gt;Node13 -->
<g id="edge39_Node000024_Node000013" class="edge">
<title>Node24&#45;&gt;Node13</title>
<g id="a_edge39_Node000024_Node000013"><a xlink:title=" ">
<path fill="none" stroke="#63b8ff" d="M1041.67,-225.93C1058.78,-223.97 1077.05,-221.89 1094,-220 1205.44,-207.57 1333.94,-193.74 1417.16,-184.85"/>
<polygon fill="#63b8ff" stroke="#63b8ff" points="1417.77,-188.3 1427.34,-183.76 1417.02,-181.34 1417.77,-188.3"/>
</a>
</g>
</g>
<!-- Node24&#45;&gt;Node18 -->
<g id="edge37_Node000024_Node000018" class="edge">
<title>Node24&#45;&gt;Node18</title>
<g id="a_edge37_Node000024_Node000018"><a xlink:title=" ">
<path fill="none" stroke="#63b8ff" d="M1002.83,-225.49C1039.96,-215.25 1102.45,-198 1143.46,-186.69"/>
<polygon fill="#63b8ff" stroke="#63b8ff" points="1144.43,-190.05 1153.14,-184.02 1142.57,-183.3 1144.43,-190.05"/>
</a>
</g>
</g>
<!-- Node25 -->
<g id="Node000025" class="node">
<title>Node25</title>
<g id="a_Node000025"><a xlink:href="_i_msg_notification_8h.html" target="_top" xlink:title=" ">
<polygon fill="white" stroke="#666666" points="1090,-184 906,-184 906,-165 1090,-165 1090,-184"/>
<text text-anchor="middle" x="998" y="-172" font-family="Helvetica,sans-Serif" font-size="10.00">Kit/EventQueue/IMsgNotification.h</text>
</a>
</g>
</g>
<!-- Node24&#45;&gt;Node25 -->
<g id="edge36_Node000024_Node000025" class="edge">
<title>Node24&#45;&gt;Node25</title>
<g id="a_edge36_Node000024_Node000025"><a xlink:title=" ">
<path fill="none" stroke="#63b8ff" d="M975.84,-225.37C979.56,-216.99 985.33,-204.01 990.05,-193.39"/>
<polygon fill="#63b8ff" stroke="#63b8ff" points="993.28,-194.73 994.15,-184.17 986.89,-191.88 993.28,-194.73"/>
</a>
</g>
</g>
<!-- Node26 -->
<g id="Node000026" class="node">
<title>Node26</title>
<g id="a_Node000026"><a xlink:href="_i_change_notification_8h.html" target="_top" xlink:title=" ">
<polygon fill="white" stroke="#666666" points="888,-184 688,-184 688,-165 888,-165 888,-184"/>
<text text-anchor="middle" x="788" y="-172" font-family="Helvetica,sans-Serif" font-size="10.00">Kit/EventQueue/IChangeNotification.h</text>
</a>
</g>
</g>
<!-- Node24&#45;&gt;Node26 -->
<g id="edge41_Node000024_Node000026" class="edge">
<title>Node24&#45;&gt;Node26</title>
<g id="a_edge41_Node000024_Node000026"><a xlink:title=" ">
<path fill="none" stroke="#63b8ff" d="M945.24,-225.49C913.36,-215.36 859.93,-198.37 824.32,-187.05"/>
<polygon fill="#63b8ff" stroke="#63b8ff" points="825.38,-183.71 814.79,-184.02 823.26,-190.38 825.38,-183.71"/>
</a>
</g>
</g>
<!-- Node27&#45;&gt;Node12 -->
<g id="edge45_Node000027_Node000012" class="edge">
<title>Node27&#45;&gt;Node12</title>
<g id="a_edge45_Node000027_Node000012"><a xlink:title=" ">
<path fill="none" stroke="#63b8ff" d="M456.44,-225.49C428.73,-215.49 382.53,-198.8 351.19,-187.49"/>
<polygon fill="#63b8ff" stroke="#63b8ff" points="352.18,-184.12 341.58,-184.02 349.8,-190.71 352.18,-184.12"/>
</a>
</g>
</g>
<!-- Node27&#45;&gt;Node19 -->
<g id="edge46_Node000027_Node000019" class="edge">
<title>Node27&#45;&gt;Node19</title>
<g id="a_edge46_Node000027_Node000019"><a xlink:title=" ">
<path fill="none" stroke="#63b8ff" d="M488.12,-225.37C496.4,-216.55 509.47,-202.66 519.7,-191.77"/>
<polygon fill="#63b8ff" stroke="#63b8ff" points="522.55,-193.85 526.85,-184.17 517.45,-189.06 522.55,-193.85"/>
</a>
</g>
</g>
<!-- Node28 -->
<g id="Node000028" class="node">
<title>Node28</title>
<g id="a_Node000028"><a xlink:href="_i_observer_8h.html" target="_top" xlink:title=" ">
<polygon fill="white" stroke="#666666" points="474.5,-129 365.5,-129 365.5,-110 474.5,-110 474.5,-129"/>
<text text-anchor="middle" x="420" y="-117" font-family="Helvetica,sans-Serif" font-size="10.00">Kit/Dm/IObserver.h</text>
</a>
</g>
</g>
<!-- Node27&#45;&gt;Node28 -->
<g id="edge47_Node000027_Node000028" class="edge">
<title>Node27&#45;&gt;Node28</title>
<g id="a_edge47_Node000027_Node000028"><a xlink:title=" ">
<path fill="none" stroke="#63b8ff" d="M475.49,-225.47C465.72,-206.98 442.41,-162.9 429.33,-138.14"/>
<polygon fill="#63b8ff" stroke="#63b8ff" points="432.33,-136.33 424.56,-129.13 426.14,-139.61 432.33,-136.33"/>
</a>
</g>
</g>
<!-- Node28&#45;&gt;Node6 -->
<g id="edge48_Node000028_Node000006" class="edge">
<title>Node28&#45;&gt;Node6</title>
<g id="a_edge48_Node000028_Node000006"><a xlink:title=" ">
<path fill="none" stroke="#63b8ff" d="M413.23,-109.75C407.44,-102.26 398.94,-91.28 391.86,-82.13"/>
<polygon fill="#63b8ff" stroke="#63b8ff" points="394.53,-79.86 385.64,-74.09 388.99,-84.14 394.53,-79.86"/>
</a>
</g>
</g>
<!-- Node28&#45;&gt;Node10 -->
<g id="edge49_Node000028_Node000010" class="edge">
<title>Node28&#45;&gt;Node10</title>
<g id="a_edge49_Node000028_Node000010"><a xlink:title=" ">
<path fill="none" stroke="#63b8ff" d="M473.18,-109.98C540.76,-99.16 655.65,-80.77 714.25,-71.38"/>
<polygon fill="#63b8ff" stroke="#63b8ff" points="714.85,-74.83 724.18,-69.8 713.75,-67.92 714.85,-74.83"/>
</a>
</g>
</g>
<!-- Node30 -->
<g id="Node000030" class="node">
<title>Node30</title>
<g id="a_Node000030"><a xlink:href="_elapsed_time_8h.html" target="_top" xlink:title=" ">
<polygon fill="white" stroke="#666666" points="1577.5,-305 1432.5,-305 1432.5,-286 1577.5,-286 1577.5,-305"/>
<text text-anchor="middle" x="1505" y="-293" font-family="Helvetica,sans-Serif" font-size="10.00">Kit/System/ElapsedTime.h</text>
</a>
</g>
</g>
<!-- Node29&#45;&gt;Node30 -->
<g id="edge51_Node000029_Node000030" class="edge">
<title>Node29&#45;&gt;Node30</title>
<g id="a_edge51_Node000029_Node000030"><a xlink:title=" ">
<path fill="none" stroke="#63b8ff" d="M1126.46,-340.98C1207.22,-331.49 1337.55,-316.18 1422.25,-306.22"/>
<polygon fill="#63b8ff" stroke="#63b8ff" points="1422.82,-309.68 1432.35,-305.04 1422.01,-302.73 1422.82,-309.68"/>
</a>
</g>
</g>
<!-- Node30&#45;&gt;Node10 -->
<g id="edge52_Node000030_Node000010" class="edge">
<title>Node30&#45;&gt;Node10</title>
<g id="a_edge52_Node000030_Node000010"><a xlink:title=" ">
<path fill="none" stroke="#63b8ff" d="M1537.03,-285.96C1600.79,-267.49 1733.33,-220.99 1683,-165 1622.06,-97.21 953.73,-71.86 788.01,-66.59"/>
<polygon fill="#63b8ff" stroke="#63b8ff" points="787.94,-63.09 777.84,-66.27 787.72,-70.09 787.94,-63.09"/>
</a>
</g>
</g>
</g>
</svg>
