<?xml version="1.0" encoding="UTF-8" standalone="no"?>
<!DOCTYPE svg PUBLIC "-//W3C//DTD SVG 1.1//EN"
 "http://www.w3.org/Graphics/SVG/1.1/DTD/svg11.dtd">
<!-- Generated by graphviz version 2.43.0 (0)
 -->
<!-- Title: Kit/EventQueue/WithPeriodicScheduling.h Pages: 1 -->
<svg width="1580pt" height="434pt"
 viewBox="0.00 0.00 1579.54 434.00" xmlns="http://www.w3.org/2000/svg" xmlns:xlink="http://www.w3.org/1999/xlink">
<g id="graph0" class="graph" transform="scale(1 1) rotate(0) translate(4 430)">
<title>Kit/EventQueue/WithPeriodicScheduling.h</title>
<!-- Node1 -->
<g id="Node000001" class="node">
<title>Node1</title>
<g id="a_Node000001"><a xlink:title=" ">
<polygon fill="#999999" stroke="#666666" points="940.5,-426 783.5,-426 783.5,-396 940.5,-396 940.5,-426"/>
<text text-anchor="start" x="791.5" y="-414" font-family="Helvetica,sans-Serif" font-size="10.00">Kit/EventQueue/WithPeriodic</text>
<text text-anchor="middle" x="862" y="-403" font-family="Helvetica,sans-Serif" font-size="10.00">Scheduling.h</text>
</a>
</g>
</g>
<!-- Node2 -->
<g id="Node000002" class="node">
<title>Node2</title>
<g id="a_Node000002"><a xlink:href="_server_8h.html" target="_top" xlink:title=" ">
<polygon fill="white" stroke="#666666" points="844.5,-360 709.5,-360 709.5,-341 844.5,-341 844.5,-360"/>
<text text-anchor="middle" x="777" y="-348" font-family="Helvetica,sans-Serif" font-size="10.00">Kit/EventQueue/Server.h</text>
</a>
</g>
</g>
<!-- Node1&#45;&gt;Node2 -->
<g id="edge1_Node000001_Node000002" class="edge">
<title>Node1&#45;&gt;Node2</title>
<g id="a_edge1_Node000001_Node000002"><a xlink:title=" ">
<path fill="none" stroke="#63b8ff" d="M841.42,-395.84C828.33,-386.83 811.41,-375.18 798.2,-366.09"/>
<polygon fill="#63b8ff" stroke="#63b8ff" points="799.96,-363.05 789.74,-360.27 795.99,-368.82 799.96,-363.05"/>
</a>
</g>
</g>
<!-- Node26 -->
<g id="Node000026" class="node">
<title>Node26</title>
<g id="a_Node000026"><a xlink:href="_periodic_scheduler_8h.html" target="_top" xlink:title=" ">
<polygon fill="white" stroke="#666666" points="1103,-360 935,-360 935,-341 1103,-341 1103,-360"/>
<text text-anchor="middle" x="1019" y="-348" font-family="Helvetica,sans-Serif" font-size="10.00">Kit/System/PeriodicScheduler.h</text>
</a>
</g>
</g>
<!-- Node1&#45;&gt;Node26 -->
<g id="edge37_Node000001_Node000026" class="edge">
<title>Node1&#45;&gt;Node26</title>
<g id="a_edge37_Node000001_Node000026"><a xlink:title=" ">
<path fill="none" stroke="#63b8ff" d="M899.61,-395.99C926.03,-386.14 961.04,-373.1 986.31,-363.68"/>
<polygon fill="#63b8ff" stroke="#63b8ff" points="987.67,-366.91 995.81,-360.14 985.22,-360.35 987.67,-366.91"/>
</a>
</g>
</g>
<!-- Node3 -->
<g id="Node000003" class="node">
<title>Node3</title>
<g id="a_Node000003"><a xlink:href="_event_loop_8h.html" target="_top" xlink:title=" ">
<polygon fill="white" stroke="#666666" points="1001.5,-305 868.5,-305 868.5,-286 1001.5,-286 1001.5,-305"/>
<text text-anchor="middle" x="935" y="-293" font-family="Helvetica,sans-Serif" font-size="10.00">Kit/System/EventLoop.h</text>
</a>
</g>
</g>
<!-- Node2&#45;&gt;Node3 -->
<g id="edge2_Node000002_Node000003" class="edge">
<title>Node2&#45;&gt;Node3</title>
<g id="a_edge2_Node000002_Node000003"><a xlink:title=" ">
<path fill="none" stroke="#63b8ff" d="M802.39,-340.98C828.8,-332.13 870.35,-318.19 899.89,-308.28"/>
<polygon fill="#63b8ff" stroke="#63b8ff" points="901.05,-311.58 909.42,-305.08 898.82,-304.94 901.05,-311.58"/>
</a>
</g>
</g>
<!-- Node20 -->
<g id="Node000020" class="node">
<title>Node20</title>
<g id="a_Node000020"><a xlink:href="_i_watched_event_loop_8h.html" target="_top" xlink:title=" ">
<polygon fill="white" stroke="#666666" points="604,-250 458,-250 458,-220 604,-220 604,-250"/>
<text text-anchor="start" x="466" y="-238" font-family="Helvetica,sans-Serif" font-size="10.00">Kit/System/IWatchedEvent</text>
<text text-anchor="middle" x="531" y="-227" font-family="Helvetica,sans-Serif" font-size="10.00">Loop.h</text>
</a>
</g>
</g>
<!-- Node2&#45;&gt;Node20 -->
<g id="edge27_Node000002_Node000020" class="edge">
<title>Node2&#45;&gt;Node20</title>
<g id="a_edge27_Node000002_Node000020"><a xlink:title=" ">
<path fill="none" stroke="#63b8ff" d="M709.5,-347.55C667.54,-343.38 614.29,-332.46 575,-305 558.95,-293.78 547.43,-274.65 540.21,-259.37"/>
<polygon fill="#63b8ff" stroke="#63b8ff" points="543.32,-257.75 536.09,-250.01 536.92,-260.57 543.32,-257.75"/>
</a>
</g>
</g>
<!-- Node21 -->
<g id="Node000021" class="node">
<title>Node21</title>
<g id="a_Node000021"><a xlink:href="_mailbox_8h.html" target="_top" xlink:title=" ">
<polygon fill="white" stroke="#666666" points="680,-305 584,-305 584,-286 680,-286 680,-305"/>
<text text-anchor="middle" x="632" y="-293" font-family="Helvetica,sans-Serif" font-size="10.00">Kit/Itc/Mailbox.h</text>
</a>
</g>
</g>
<!-- Node2&#45;&gt;Node21 -->
<g id="edge28_Node000002_Node000021" class="edge">
<title>Node2&#45;&gt;Node21</title>
<g id="a_edge28_Node000002_Node000021"><a xlink:title=" ">
<path fill="none" stroke="#63b8ff" d="M753.7,-340.98C729.75,-332.23 692.22,-318.51 665.17,-308.62"/>
<polygon fill="#63b8ff" stroke="#63b8ff" points="666.31,-305.32 655.72,-305.17 663.91,-311.89 666.31,-305.32"/>
</a>
</g>
</g>
<!-- Node4 -->
<g id="Node000004" class="node">
<title>Node4</title>
<g id="a_Node000004"><a xlink:title=" ">
<polygon fill="#e0e0e0" stroke="#999999" points="559.5,-184 486.5,-184 486.5,-165 559.5,-165 559.5,-184"/>
<text text-anchor="middle" x="523" y="-172" font-family="Helvetica,sans-Serif" font-size="10.00">kit_config.h</text>
</a>
</g>
</g>
<!-- Node3&#45;&gt;Node4 -->
<g id="edge3_Node000003_Node000004" class="edge">
<title>Node3&#45;&gt;Node4</title>
<g id="a_edge3_Node000003_Node000004"><a xlink:title=" ">
<path fill="none" stroke="#63b8ff" d="M868.44,-286.91C818.34,-280.14 748.39,-268.4 689,-250 661.6,-241.51 589.53,-207.57 549.96,-188.57"/>
<polygon fill="#63b8ff" stroke="#63b8ff" points="551.18,-185.27 540.65,-184.08 548.14,-191.57 551.18,-185.27"/>
</a>
</g>
</g>
<!-- Node5 -->
<g id="Node000005" class="node">
<title>Node5</title>
<g id="a_Node000005"><a xlink:href="_i_event_flag_8h.html" target="_top" xlink:title=" ">
<polygon fill="white" stroke="#666666" points="1002,-244.5 868,-244.5 868,-225.5 1002,-225.5 1002,-244.5"/>
<text text-anchor="middle" x="935" y="-232.5" font-family="Helvetica,sans-Serif" font-size="10.00">Kit/System/IEventFlag.h</text>
</a>
</g>
</g>
<!-- Node3&#45;&gt;Node5 -->
<g id="edge4_Node000003_Node000005" class="edge">
<title>Node3&#45;&gt;Node5</title>
<g id="a_edge4_Node000003_Node000005"><a xlink:title=" ">
<path fill="none" stroke="#63b8ff" d="M935,-285.87C935,-277.75 935,-265.31 935,-254.89"/>
<polygon fill="#63b8ff" stroke="#63b8ff" points="938.5,-254.67 935,-244.67 931.5,-254.67 938.5,-254.67"/>
</a>
</g>
</g>
<!-- Node11 -->
<g id="Node000011" class="node">
<title>Node11</title>
<g id="a_Node000011"><a xlink:href="_i_runnable_8h.html" target="_top" xlink:title=" ">
<polygon fill="white" stroke="#666666" points="1362.5,-244.5 1231.5,-244.5 1231.5,-225.5 1362.5,-225.5 1362.5,-244.5"/>
<text text-anchor="middle" x="1297" y="-232.5" font-family="Helvetica,sans-Serif" font-size="10.00">Kit/System/IRunnable.h</text>
</a>
</g>
</g>
<!-- Node3&#45;&gt;Node11 -->
<g id="edge11_Node000003_Node000011" class="edge">
<title>Node3&#45;&gt;Node11</title>
<g id="a_edge11_Node000003_Node000011"><a xlink:title=" ">
<path fill="none" stroke="#63b8ff" d="M993.35,-285.99C1051.4,-277.4 1142.97,-263.5 1222,-250 1228.67,-248.86 1235.66,-247.62 1242.58,-246.36"/>
<polygon fill="#63b8ff" stroke="#63b8ff" points="1243.42,-249.77 1252.62,-244.52 1242.16,-242.88 1243.42,-249.77"/>
</a>
</g>
</g>
<!-- Node12 -->
<g id="Node000012" class="node">
<title>Node12</title>
<g id="a_Node000012"><a xlink:href="_i_signable_8h.html" target="_top" xlink:title=" ">
<polygon fill="white" stroke="#666666" points="1446.5,-184 1319.5,-184 1319.5,-165 1446.5,-165 1446.5,-184"/>
<text text-anchor="middle" x="1383" y="-172" font-family="Helvetica,sans-Serif" font-size="10.00">Kit/System/ISignable.h</text>
</a>
</g>
</g>
<!-- Node3&#45;&gt;Node12 -->
<g id="edge12_Node000003_Node000012" class="edge">
<title>Node3&#45;&gt;Node12</title>
<g id="a_edge12_Node000003_Node000012"><a xlink:title=" ">
<path fill="none" stroke="#63b8ff" d="M1001.76,-292.1C1117.28,-287.3 1344.71,-274.8 1371,-250 1385.79,-236.05 1387.06,-211.63 1385.76,-194.57"/>
<polygon fill="#63b8ff" stroke="#63b8ff" points="1389.19,-193.7 1384.59,-184.15 1382.23,-194.48 1389.19,-193.7"/>
</a>
</g>
</g>
<!-- Node13 -->
<g id="Node000013" class="node">
<title>Node13</title>
<g id="a_Node000013"><a xlink:href="_i_event_manager_8h.html" target="_top" xlink:title=" ">
<polygon fill="white" stroke="#666666" points="1213.5,-244.5 1058.5,-244.5 1058.5,-225.5 1213.5,-225.5 1213.5,-244.5"/>
<text text-anchor="middle" x="1136" y="-232.5" font-family="Helvetica,sans-Serif" font-size="10.00">Kit/System/IEventManager.h</text>
</a>
</g>
</g>
<!-- Node3&#45;&gt;Node13 -->
<g id="edge13_Node000003_Node000013" class="edge">
<title>Node3&#45;&gt;Node13</title>
<g id="a_edge13_Node000003_Node000013"><a xlink:title=" ">
<path fill="none" stroke="#63b8ff" d="M964.23,-285.99C999.21,-275.81 1057.93,-258.72 1096.82,-247.4"/>
<polygon fill="#63b8ff" stroke="#63b8ff" points="1098.11,-250.67 1106.74,-244.52 1096.16,-243.95 1098.11,-250.67"/>
</a>
</g>
</g>
<!-- Node14 -->
<g id="Node000014" class="node">
<title>Node14</title>
<g id="a_Node000014"><a xlink:href="_semaphore_8h.html" target="_top" xlink:title=" ">
<polygon fill="white" stroke="#666666" points="1556.5,-244.5 1419.5,-244.5 1419.5,-225.5 1556.5,-225.5 1556.5,-244.5"/>
<text text-anchor="middle" x="1488" y="-232.5" font-family="Helvetica,sans-Serif" font-size="10.00">Kit/System/Semaphore.h</text>
</a>
</g>
</g>
<!-- Node3&#45;&gt;Node14 -->
<g id="edge15_Node000003_Node000014" class="edge">
<title>Node3&#45;&gt;Node14</title>
<g id="a_edge15_Node000003_Node000014"><a xlink:title=" ">
<path fill="none" stroke="#63b8ff" d="M1001.72,-289.72C1092.98,-282.83 1261.77,-268.83 1405,-250 1413.44,-248.89 1422.33,-247.56 1431.03,-246.17"/>
<polygon fill="#63b8ff" stroke="#63b8ff" points="1431.82,-249.59 1441.12,-244.52 1430.69,-242.68 1431.82,-249.59"/>
</a>
</g>
</g>
<!-- Node16 -->
<g id="Node000016" class="node">
<title>Node16</title>
<g id="a_Node000016"><a xlink:href="_timer_manager_8h.html" target="_top" xlink:title=" ">
<polygon fill="white" stroke="#666666" points="850,-244.5 698,-244.5 698,-225.5 850,-225.5 850,-244.5"/>
<text text-anchor="middle" x="774" y="-232.5" font-family="Helvetica,sans-Serif" font-size="10.00">Kit/System/TimerManager.h</text>
</a>
</g>
</g>
<!-- Node3&#45;&gt;Node16 -->
<g id="edge18_Node000003_Node000016" class="edge">
<title>Node3&#45;&gt;Node16</title>
<g id="a_edge18_Node000003_Node000016"><a xlink:title=" ">
<path fill="none" stroke="#63b8ff" d="M911.59,-285.99C884.05,-275.99 838.13,-259.3 806.99,-247.99"/>
<polygon fill="#63b8ff" stroke="#63b8ff" points="808.03,-244.64 797.44,-244.52 805.64,-251.22 808.03,-244.64"/>
</a>
</g>
</g>
<!-- Node3&#45;&gt;Node20 -->
<g id="edge25_Node000003_Node000020" class="edge">
<title>Node3&#45;&gt;Node20</title>
<g id="a_edge25_Node000003_Node000020"><a xlink:title=" ">
<path fill="none" stroke="#63b8ff" d="M876.25,-285.99C807.35,-276.02 692.62,-259.4 614.49,-248.09"/>
<polygon fill="#63b8ff" stroke="#63b8ff" points="614.59,-244.57 604.2,-246.6 613.59,-251.5 614.59,-244.57"/>
</a>
</g>
</g>
<!-- Node6 -->
<g id="Node000006" class="node">
<title>Node6</title>
<g id="a_Node000006"><a xlink:href="_list_item_8h.html" target="_top" xlink:title=" ">
<polygon fill="white" stroke="#666666" points="861,-74 729,-74 729,-55 861,-55 861,-74"/>
<text text-anchor="middle" x="795" y="-62" font-family="Helvetica,sans-Serif" font-size="10.00">Kit/Container/ListItem.h</text>
</a>
</g>
</g>
<!-- Node5&#45;&gt;Node6 -->
<g id="edge5_Node000005_Node000006" class="edge">
<title>Node5&#45;&gt;Node6</title>
<g id="a_edge5_Node000005_Node000006"><a xlink:title=" ">
<path fill="none" stroke="#63b8ff" d="M947.53,-225.32C964.43,-212.49 991.1,-187.53 979,-165 952.49,-115.62 891.07,-89.62 846.47,-76.75"/>
<polygon fill="#63b8ff" stroke="#63b8ff" points="847.23,-73.33 836.66,-74.05 845.37,-80.08 847.23,-73.33"/>
</a>
</g>
</g>
<!-- Node8 -->
<g id="Node000008" class="node">
<title>Node8</title>
<g id="a_Node000008"><a xlink:href="_s_list_8h.html" target="_top" xlink:title=" ">
<polygon fill="white" stroke="#666666" points="694,-184 578,-184 578,-165 694,-165 694,-184"/>
<text text-anchor="middle" x="636" y="-172" font-family="Helvetica,sans-Serif" font-size="10.00">Kit/Container/SList.h</text>
</a>
</g>
</g>
<!-- Node5&#45;&gt;Node8 -->
<g id="edge7_Node000005_Node000008" class="edge">
<title>Node5&#45;&gt;Node8</title>
<g id="a_edge7_Node000005_Node000008"><a xlink:title=" ">
<path fill="none" stroke="#63b8ff" d="M891.52,-225.49C838.05,-215.03 747.28,-197.27 689.55,-185.98"/>
<polygon fill="#63b8ff" stroke="#63b8ff" points="690.02,-182.5 679.53,-184.02 688.67,-189.37 690.02,-182.5"/>
</a>
</g>
</g>
<!-- Node10 -->
<g id="Node000010" class="node">
<title>Node10</title>
<g id="a_Node000010"><a xlink:title=" ">
<polygon fill="#e0e0e0" stroke="#999999" points="1100.5,-129 1047.5,-129 1047.5,-110 1100.5,-110 1100.5,-129"/>
<text text-anchor="middle" x="1074" y="-117" font-family="Helvetica,sans-Serif" font-size="10.00">stdint.h</text>
</a>
</g>
</g>
<!-- Node5&#45;&gt;Node10 -->
<g id="edge10_Node000005_Node000010" class="edge">
<title>Node5&#45;&gt;Node10</title>
<g id="a_edge10_Node000005_Node000010"><a xlink:title=" ">
<path fill="none" stroke="#63b8ff" d="M950.44,-225.35C966.5,-216.04 992.03,-200.37 1012,-184 1029.76,-169.44 1047.86,-150.31 1059.88,-136.86"/>
<polygon fill="#63b8ff" stroke="#63b8ff" points="1062.54,-139.14 1066.52,-129.32 1057.29,-134.51 1062.54,-139.14"/>
</a>
</g>
</g>
<!-- Node7 -->
<g id="Node000007" class="node">
<title>Node7</title>
<g id="a_Node000007"><a xlink:href="_item_8h.html" target="_top" xlink:title=" ">
<polygon fill="white" stroke="#666666" points="852.5,-19 737.5,-19 737.5,0 852.5,0 852.5,-19"/>
<text text-anchor="middle" x="795" y="-7" font-family="Helvetica,sans-Serif" font-size="10.00">Kit/Container/Item.h</text>
</a>
</g>
</g>
<!-- Node6&#45;&gt;Node7 -->
<g id="edge6_Node000006_Node000007" class="edge">
<title>Node6&#45;&gt;Node7</title>
<g id="a_edge6_Node000006_Node000007"><a xlink:title=" ">
<path fill="none" stroke="#63b8ff" d="M795,-54.75C795,-47.8 795,-37.85 795,-29.13"/>
<polygon fill="#63b8ff" stroke="#63b8ff" points="798.5,-29.09 795,-19.09 791.5,-29.09 798.5,-29.09"/>
</a>
</g>
</g>
<!-- Node9 -->
<g id="Node000009" class="node">
<title>Node9</title>
<g id="a_Node000009"><a xlink:href="_s_list_base_8h.html" target="_top" xlink:title=" ">
<polygon fill="white" stroke="#666666" points="706,-129 566,-129 566,-110 706,-110 706,-129"/>
<text text-anchor="middle" x="636" y="-117" font-family="Helvetica,sans-Serif" font-size="10.00">Kit/Container/SListBase.h</text>
</a>
</g>
</g>
<!-- Node8&#45;&gt;Node9 -->
<g id="edge8_Node000008_Node000009" class="edge">
<title>Node8&#45;&gt;Node9</title>
<g id="a_edge8_Node000008_Node000009"><a xlink:title=" ">
<path fill="none" stroke="#63b8ff" d="M636,-164.75C636,-157.8 636,-147.85 636,-139.13"/>
<polygon fill="#63b8ff" stroke="#63b8ff" points="639.5,-139.09 636,-129.09 632.5,-139.09 639.5,-139.09"/>
</a>
</g>
</g>
<!-- Node9&#45;&gt;Node6 -->
<g id="edge9_Node000009_Node000006" class="edge">
<title>Node9&#45;&gt;Node6</title>
<g id="a_edge9_Node000009_Node000006"><a xlink:title=" ">
<path fill="none" stroke="#63b8ff" d="M661.55,-109.98C688.12,-101.13 729.94,-87.19 759.67,-77.28"/>
<polygon fill="#63b8ff" stroke="#63b8ff" points="760.87,-80.56 769.25,-74.08 758.66,-73.92 760.87,-80.56"/>
</a>
</g>
</g>
<!-- Node13&#45;&gt;Node10 -->
<g id="edge14_Node000013_Node000010" class="edge">
<title>Node13&#45;&gt;Node10</title>
<g id="a_edge14_Node000013_Node000010"><a xlink:title=" ">
<path fill="none" stroke="#63b8ff" d="M1131.34,-225.47C1121.24,-206.98 1097.16,-162.9 1083.64,-138.14"/>
<polygon fill="#63b8ff" stroke="#63b8ff" points="1086.58,-136.23 1078.71,-129.13 1080.44,-139.58 1086.58,-136.23"/>
</a>
</g>
</g>
<!-- Node14&#45;&gt;Node12 -->
<g id="edge17_Node000014_Node000012" class="edge">
<title>Node14&#45;&gt;Node12</title>
<g id="a_edge17_Node000014_Node000012"><a xlink:title=" ">
<path fill="none" stroke="#63b8ff" d="M1472.51,-225.37C1455.37,-215.82 1427.53,-200.31 1407.44,-189.12"/>
<polygon fill="#63b8ff" stroke="#63b8ff" points="1409,-185.98 1398.56,-184.17 1405.59,-192.09 1409,-185.98"/>
</a>
</g>
</g>
<!-- Node15 -->
<g id="Node000015" class="node">
<title>Node15</title>
<g id="a_Node000015"><a xlink:title=" ">
<polygon fill="#e0e0e0" stroke="#999999" points="1529.5,-184 1464.5,-184 1464.5,-165 1529.5,-165 1529.5,-184"/>
<text text-anchor="middle" x="1497" y="-172" font-family="Helvetica,sans-Serif" font-size="10.00">kit_map.h</text>
</a>
</g>
</g>
<!-- Node14&#45;&gt;Node15 -->
<g id="edge16_Node000014_Node000015" class="edge">
<title>Node14&#45;&gt;Node15</title>
<g id="a_edge16_Node000014_Node000015"><a xlink:title=" ">
<path fill="none" stroke="#63b8ff" d="M1489.33,-225.37C1490.59,-217.16 1492.53,-204.54 1494.15,-194.05"/>
<polygon fill="#63b8ff" stroke="#63b8ff" points="1497.61,-194.58 1495.67,-184.17 1490.69,-193.52 1497.61,-194.58"/>
</a>
</g>
</g>
<!-- Node17 -->
<g id="Node000017" class="node">
<title>Node17</title>
<g id="a_Node000017"><a xlink:href="_i_counter_8h.html" target="_top" xlink:title=" ">
<polygon fill="white" stroke="#666666" points="970,-184 848,-184 848,-165 970,-165 970,-184"/>
<text text-anchor="middle" x="909" y="-172" font-family="Helvetica,sans-Serif" font-size="10.00">Kit/System/ICounter.h</text>
</a>
</g>
</g>
<!-- Node16&#45;&gt;Node17 -->
<g id="edge19_Node000016_Node000017" class="edge">
<title>Node16&#45;&gt;Node17</title>
<g id="a_edge19_Node000016_Node000017"><a xlink:title=" ">
<path fill="none" stroke="#63b8ff" d="M793.63,-225.49C816.33,-215.66 853.9,-199.38 879.97,-188.08"/>
<polygon fill="#63b8ff" stroke="#63b8ff" points="881.56,-191.2 889.35,-184.02 878.78,-184.78 881.56,-191.2"/>
</a>
</g>
</g>
<!-- Node18 -->
<g id="Node000018" class="node">
<title>Node18</title>
<g id="a_Node000018"><a xlink:href="_d_list_8h.html" target="_top" xlink:title=" ">
<polygon fill="white" stroke="#666666" points="829.5,-184 712.5,-184 712.5,-165 829.5,-165 829.5,-184"/>
<text text-anchor="middle" x="771" y="-172" font-family="Helvetica,sans-Serif" font-size="10.00">Kit/Container/DList.h</text>
</a>
</g>
</g>
<!-- Node16&#45;&gt;Node18 -->
<g id="edge22_Node000016_Node000018" class="edge">
<title>Node16&#45;&gt;Node18</title>
<g id="a_edge22_Node000016_Node000018"><a xlink:title=" ">
<path fill="none" stroke="#63b8ff" d="M773.56,-225.37C773.14,-217.25 772.5,-204.81 771.97,-194.39"/>
<polygon fill="#63b8ff" stroke="#63b8ff" points="775.45,-193.97 771.44,-184.17 768.46,-194.33 775.45,-193.97"/>
</a>
</g>
</g>
<!-- Node17&#45;&gt;Node6 -->
<g id="edge20_Node000017_Node000006" class="edge">
<title>Node17&#45;&gt;Node6</title>
<g id="a_edge20_Node000017_Node000006"><a xlink:title=" ">
<path fill="none" stroke="#63b8ff" d="M905.96,-164.73C901.01,-151.5 890.12,-126.27 874,-110 860.6,-96.48 842.24,-85.8 826.59,-78.3"/>
<polygon fill="#63b8ff" stroke="#63b8ff" points="827.81,-75.01 817.26,-74.04 824.91,-81.38 827.81,-75.01"/>
</a>
</g>
</g>
<!-- Node17&#45;&gt;Node10 -->
<g id="edge21_Node000017_Node000010" class="edge">
<title>Node17&#45;&gt;Node10</title>
<g id="a_edge21_Node000017_Node000010"><a xlink:title=" ">
<path fill="none" stroke="#63b8ff" d="M935.51,-164.98C963.21,-156.09 1006.86,-142.07 1037.74,-132.15"/>
<polygon fill="#63b8ff" stroke="#63b8ff" points="1038.83,-135.47 1047.28,-129.08 1036.69,-128.81 1038.83,-135.47"/>
</a>
</g>
</g>
<!-- Node19 -->
<g id="Node000019" class="node">
<title>Node19</title>
<g id="a_Node000019"><a xlink:href="_d_list_base_8h.html" target="_top" xlink:title=" ">
<polygon fill="white" stroke="#666666" points="865.5,-129 724.5,-129 724.5,-110 865.5,-110 865.5,-129"/>
<text text-anchor="middle" x="795" y="-117" font-family="Helvetica,sans-Serif" font-size="10.00">Kit/Container/DListBase.h</text>
</a>
</g>
</g>
<!-- Node18&#45;&gt;Node19 -->
<g id="edge23_Node000018_Node000019" class="edge">
<title>Node18&#45;&gt;Node19</title>
<g id="a_edge23_Node000018_Node000019"><a xlink:title=" ">
<path fill="none" stroke="#63b8ff" d="M774.96,-164.75C778.21,-157.57 782.92,-147.18 786.95,-138.27"/>
<polygon fill="#63b8ff" stroke="#63b8ff" points="790.17,-139.64 791.11,-129.09 783.8,-136.75 790.17,-139.64"/>
</a>
</g>
</g>
<!-- Node19&#45;&gt;Node6 -->
<g id="edge24_Node000019_Node000006" class="edge">
<title>Node19&#45;&gt;Node6</title>
<g id="a_edge24_Node000019_Node000006"><a xlink:title=" ">
<path fill="none" stroke="#63b8ff" d="M795,-109.75C795,-102.8 795,-92.85 795,-84.13"/>
<polygon fill="#63b8ff" stroke="#63b8ff" points="798.5,-84.09 795,-74.09 791.5,-84.09 798.5,-84.09"/>
</a>
</g>
</g>
<!-- Node20&#45;&gt;Node4 -->
<g id="edge26_Node000020_Node000004" class="edge">
<title>Node20&#45;&gt;Node4</title>
<g id="a_edge26_Node000020_Node000004"><a xlink:title=" ">
<path fill="none" stroke="#63b8ff" d="M529.06,-219.84C528.02,-212.21 526.72,-202.7 525.59,-194.45"/>
<polygon fill="#63b8ff" stroke="#63b8ff" points="529.02,-193.7 524.2,-184.27 522.09,-194.65 529.02,-193.7"/>
</a>
</g>
</g>
<!-- Node21&#45;&gt;Node8 -->
<g id="edge35_Node000021_Node000008" class="edge">
<title>Node21&#45;&gt;Node8</title>
<g id="a_edge35_Node000021_Node000008"><a xlink:title=" ">
<path fill="none" stroke="#63b8ff" d="M632.29,-285.94C632.93,-266.91 634.48,-220.69 635.36,-194.47"/>
<polygon fill="#63b8ff" stroke="#63b8ff" points="638.87,-194.41 635.7,-184.3 631.87,-194.18 638.87,-194.41"/>
</a>
</g>
</g>
<!-- Node21&#45;&gt;Node12 -->
<g id="edge36_Node000021_Node000012" class="edge">
<title>Node21&#45;&gt;Node12</title>
<g id="a_edge36_Node000021_Node000012"><a xlink:title=" ">
<path fill="none" stroke="#63b8ff" d="M680.2,-292.11C768.43,-287.2 952.24,-274.33 1011,-250 1030.88,-241.77 1029.18,-228.39 1049,-220 1094.56,-200.72 1225.69,-187.49 1309.45,-180.73"/>
<polygon fill="#63b8ff" stroke="#63b8ff" points="1309.73,-184.22 1319.42,-179.94 1309.18,-177.25 1309.73,-184.22"/>
</a>
</g>
</g>
<!-- Node22 -->
<g id="Node000022" class="node">
<title>Node22</title>
<g id="a_Node000022"><a xlink:href="_i_message_8h.html" target="_top" xlink:title=" ">
<polygon fill="white" stroke="#666666" points="514,-129 410,-129 410,-110 514,-110 514,-129"/>
<text text-anchor="middle" x="462" y="-117" font-family="Helvetica,sans-Serif" font-size="10.00">Kit/Itc/IMessage.h</text>
</a>
</g>
</g>
<!-- Node21&#45;&gt;Node22 -->
<g id="edge29_Node000021_Node000022" class="edge">
<title>Node21&#45;&gt;Node22</title>
<g id="a_edge29_Node000021_Node000022"><a xlink:title=" ">
<path fill="none" stroke="#63b8ff" d="M583.61,-289.44C535.15,-283.26 465.47,-270.95 449,-250 423.49,-217.55 441.01,-165.48 453.13,-138.3"/>
<polygon fill="#63b8ff" stroke="#63b8ff" points="456.32,-139.74 457.41,-129.2 449.99,-136.76 456.32,-139.74"/>
</a>
</g>
</g>
<!-- Node23 -->
<g id="Node000023" class="node">
<title>Node23</title>
<g id="a_Node000023"><a xlink:href="_i_queue_8h.html" target="_top" xlink:title=" ">
<polygon fill="white" stroke="#666666" points="386.5,-244.5 247.5,-244.5 247.5,-225.5 386.5,-225.5 386.5,-244.5"/>
<text text-anchor="middle" x="317" y="-232.5" font-family="Helvetica,sans-Serif" font-size="10.00">Kit/EventQueue/IQueue.h</text>
</a>
</g>
</g>
<!-- Node21&#45;&gt;Node23 -->
<g id="edge31_Node000021_Node000023" class="edge">
<title>Node21&#45;&gt;Node23</title>
<g id="a_edge31_Node000021_Node000023"><a xlink:title=" ">
<path fill="none" stroke="#63b8ff" d="M586.2,-285.99C529.74,-275.51 433.84,-257.7 373.04,-246.41"/>
<polygon fill="#63b8ff" stroke="#63b8ff" points="373.33,-242.9 362.86,-244.52 372.05,-249.78 373.33,-242.9"/>
</a>
</g>
</g>
<!-- Node22&#45;&gt;Node6 -->
<g id="edge30_Node000022_Node000006" class="edge">
<title>Node22&#45;&gt;Node6</title>
<g id="a_edge30_Node000022_Node000006"><a xlink:title=" ">
<path fill="none" stroke="#63b8ff" d="M514.03,-110.22C572.69,-100.88 668.07,-85.7 731.18,-75.66"/>
<polygon fill="#63b8ff" stroke="#63b8ff" points="732.08,-79.06 741.41,-74.03 730.98,-72.15 732.08,-79.06"/>
</a>
</g>
</g>
<!-- Node23&#45;&gt;Node4 -->
<g id="edge32_Node000023_Node000004" class="edge">
<title>Node23&#45;&gt;Node4</title>
<g id="a_edge32_Node000023_Node000004"><a xlink:title=" ">
<path fill="none" stroke="#63b8ff" d="M346.95,-225.49C382.96,-215.27 443.5,-198.08 483.35,-186.76"/>
<polygon fill="#63b8ff" stroke="#63b8ff" points="484.35,-190.12 493.01,-184.02 482.43,-183.38 484.35,-190.12"/>
</a>
</g>
</g>
<!-- Node24 -->
<g id="Node000024" class="node">
<title>Node24</title>
<g id="a_Node000024"><a xlink:href="_i_msg_notification_8h.html" target="_top" xlink:title=" ">
<polygon fill="white" stroke="#666666" points="184,-184 0,-184 0,-165 184,-165 184,-184"/>
<text text-anchor="middle" x="92" y="-172" font-family="Helvetica,sans-Serif" font-size="10.00">Kit/EventQueue/IMsgNotification.h</text>
</a>
</g>
</g>
<!-- Node23&#45;&gt;Node24 -->
<g id="edge33_Node000023_Node000024" class="edge">
<title>Node23&#45;&gt;Node24</title>
<g id="a_edge33_Node000023_Node000024"><a xlink:title=" ">
<path fill="none" stroke="#63b8ff" d="M284.28,-225.49C244.71,-215.2 177.99,-197.86 134.48,-186.54"/>
<polygon fill="#63b8ff" stroke="#63b8ff" points="135.32,-183.15 124.76,-184.02 133.55,-189.92 135.32,-183.15"/>
</a>
</g>
</g>
<!-- Node25 -->
<g id="Node000025" class="node">
<title>Node25</title>
<g id="a_Node000025"><a xlink:href="_i_change_notification_8h.html" target="_top" xlink:title=" ">
<polygon fill="white" stroke="#666666" points="402,-184 202,-184 202,-165 402,-165 402,-184"/>
<text text-anchor="middle" x="302" y="-172" font-family="Helvetica,sans-Serif" font-size="10.00">Kit/EventQueue/IChangeNotification.h</text>
</a>
</g>
</g>
<!-- Node23&#45;&gt;Node25 -->
<g id="edge34_Node000023_Node000025" class="edge">
<title>Node23&#45;&gt;Node25</title>
<g id="a_edge34_Node000023_Node000025"><a xlink:title=" ">
<path fill="none" stroke="#63b8ff" d="M314.79,-225.37C312.68,-217.16 309.45,-204.54 306.76,-194.05"/>
<polygon fill="#63b8ff" stroke="#63b8ff" points="310.1,-192.98 304.22,-184.17 303.32,-194.72 310.1,-192.98"/>
</a>
</g>
</g>
<!-- Node27 -->
<g id="Node000027" class="node">
<title>Node27</title>
<g id="a_Node000027"><a xlink:href="_elapsed_time_8h.html" target="_top" xlink:title=" ">
<polygon fill="white" stroke="#666666" points="1410.5,-305 1265.5,-305 1265.5,-286 1410.5,-286 1410.5,-305"/>
<text text-anchor="middle" x="1338" y="-293" font-family="Helvetica,sans-Serif" font-size="10.00">Kit/System/ElapsedTime.h</text>
</a>
</g>
</g>
<!-- Node26&#45;&gt;Node27 -->
<g id="edge38_Node000026_Node000027" class="edge">
<title>Node26&#45;&gt;Node27</title>
<g id="a_edge38_Node000026_Node000027"><a xlink:title=" ">
<path fill="none" stroke="#63b8ff" d="M1070.25,-340.98C1126.44,-331.65 1216.57,-316.67 1276.52,-306.71"/>
<polygon fill="#63b8ff" stroke="#63b8ff" points="1277.32,-310.13 1286.61,-305.04 1276.17,-303.22 1277.32,-310.13"/>
</a>
</g>
</g>
<!-- Node27&#45;&gt;Node10 -->
<g id="edge39_Node000027_Node000010" class="edge">
<title>Node27&#45;&gt;Node10</title>
<g id="a_edge39_Node000027_Node000010"><a xlink:title=" ">
<path fill="none" stroke="#63b8ff" d="M1410.66,-290.15C1469.79,-284.91 1546.51,-273.66 1566,-250 1586.8,-224.74 1539.61,-165.42 1539,-165 1504.05,-140.83 1214.66,-126.41 1110.87,-121.98"/>
<polygon fill="#63b8ff" stroke="#63b8ff" points="1110.71,-118.47 1100.57,-121.54 1110.41,-125.46 1110.71,-118.47"/>
</a>
</g>
</g>
</g>
</svg>
