<?xml version="1.0" encoding="UTF-8" standalone="no"?>
<!DOCTYPE svg PUBLIC "-//W3C//DTD SVG 1.1//EN"
 "http://www.w3.org/Graphics/SVG/1.1/DTD/svg11.dtd">
<!-- Generated by graphviz version 2.43.0 (0)
 -->
<!-- Title: Kit::Framing::StreamDestination Pages: 1 -->
<svg width="293pt" height="149pt"
 viewBox="0.00 0.00 293.00 149.00" xmlns="http://www.w3.org/2000/svg" xmlns:xlink="http://www.w3.org/1999/xlink">
<g id="graph0" class="graph" transform="scale(1 1) rotate(0) translate(4 145)">
<title>Kit::Framing::StreamDestination</title>
<!-- Node1 -->
<g id="Node000001" class="node">
<title>Node1</title>
<g id="a_Node000001"><a xlink:title="This concrete class implements the IDestination interface using a Kit::Io::Output instance.">
<polygon fill="#999999" stroke="#666666" points="198,-19 25,-19 25,0 198,0 198,-19"/>
<text text-anchor="middle" x="111.5" y="-7" font-family="Helvetica,sans-Serif" font-size="10.00">Kit::Framing::StreamDestination</text>
</a>
</g>
</g>
<!-- Node2 -->
<g id="Node000002" class="node">
<title>Node2</title>
<g id="a_Node000002"><a xlink:href="class_kit_1_1_framing_1_1_i_destination.html" target="_top" xlink:title="This abstract class defines an interface of the output destination for an Encoder instance.">
<polygon fill="white" stroke="#666666" points="141,-85 0,-85 0,-66 141,-66 141,-85"/>
<text text-anchor="middle" x="70.5" y="-73" font-family="Helvetica,sans-Serif" font-size="10.00">Kit::Framing::IDestination</text>
</a>
</g>
</g>
<!-- Node2&#45;&gt;Node1 -->
<g id="edge1_Node000001_Node000002" class="edge">
<title>Node2&#45;&gt;Node1</title>
<g id="a_edge1_Node000001_Node000002"><a xlink:title=" ">
<path fill="none" stroke="#63b8ff" d="M81.45,-57.41C89.29,-45.18 99.52,-29.2 105.8,-19.41"/>
<polygon fill="#63b8ff" stroke="#63b8ff" points="78.48,-55.56 76.03,-65.87 84.37,-59.34 78.48,-55.56"/>
</a>
</g>
</g>
<!-- Node3 -->
<g id="Node000003" class="node">
<title>Node3</title>
<g id="a_Node000003"><a xlink:href="class_kit_1_1_io_1_1_i_output.html" target="_top" xlink:title="This partially abstract class defines a interface for operating on an output stream (example of a str...">
<polygon fill="white" stroke="#666666" points="246,-85 159,-85 159,-66 246,-66 246,-85"/>
<text text-anchor="middle" x="202.5" y="-73" font-family="Helvetica,sans-Serif" font-size="10.00">Kit::Io::IOutput</text>
</a>
</g>
</g>
<!-- Node3&#45;&gt;Node1 -->
<g id="edge2_Node000001_Node000003" class="edge">
<title>Node3&#45;&gt;Node1</title>
<g id="a_edge2_Node000001_Node000003"><a xlink:title=" ">
<path fill="none" stroke="#9a32cd" stroke-dasharray="5,2" d="M181.65,-59.83C163.8,-47.28 138.7,-29.63 123.87,-19.2"/>
<polygon fill="#9a32cd" stroke="#9a32cd" points="180.03,-62.98 190.23,-65.87 184.06,-57.25 180.03,-62.98"/>
</a>
</g>
<text text-anchor="middle" x="185" y="-40" font-family="Helvetica,sans-Serif" font-size="10.00" fill="grey"> m_dstPtr</text>
</g>
<!-- Node4 -->
<g id="Node000004" class="node">
<title>Node4</title>
<g id="a_Node000004"><a xlink:href="class_kit_1_1_io_1_1_i_close.html" target="_top" xlink:title="This abstract class defines a close operation that is intended to be used Input and Output streams/fi...">
<polygon fill="white" stroke="#666666" points="196,-141 115,-141 115,-122 196,-122 196,-141"/>
<text text-anchor="middle" x="155.5" y="-129" font-family="Helvetica,sans-Serif" font-size="10.00">Kit::Io::IClose</text>
</a>
</g>
</g>
<!-- Node4&#45;&gt;Node3 -->
<g id="edge3_Node000003_Node000004" class="edge">
<title>Node4&#45;&gt;Node3</title>
<g id="a_edge3_Node000003_Node000004"><a xlink:title=" ">
<path fill="none" stroke="#63b8ff" d="M169.92,-113.93C178.16,-104.47 188.15,-92.98 194.88,-85.25"/>
<polygon fill="#63b8ff" stroke="#63b8ff" points="167.19,-111.74 163.26,-121.58 172.47,-116.34 167.19,-111.74"/>
</a>
</g>
</g>
<!-- Node5 -->
<g id="Node000005" class="node">
<title>Node5</title>
<g id="a_Node000005"><a xlink:href="class_kit_1_1_io_1_1_i_eos.html" target="_top" xlink:title="This abstract class defines a isEos() operation that is intended to be used Input and Output streams.">
<polygon fill="white" stroke="#666666" points="285,-141 214,-141 214,-122 285,-122 285,-141"/>
<text text-anchor="middle" x="249.5" y="-129" font-family="Helvetica,sans-Serif" font-size="10.00">Kit::Io::IEos</text>
</a>
</g>
</g>
<!-- Node5&#45;&gt;Node3 -->
<g id="edge4_Node000003_Node000005" class="edge">
<title>Node5&#45;&gt;Node3</title>
<g id="a_edge4_Node000003_Node000005"><a xlink:title=" ">
<path fill="none" stroke="#63b8ff" d="M235.08,-113.93C226.84,-104.47 216.85,-92.98 210.12,-85.25"/>
<polygon fill="#63b8ff" stroke="#63b8ff" points="232.53,-116.34 241.74,-121.58 237.81,-111.74 232.53,-116.34"/>
</a>
</g>
</g>
</g>
</svg>
