<?xml version="1.0" encoding="UTF-8" standalone="no"?>
<!DOCTYPE svg PUBLIC "-//W3C//DTD SVG 1.1//EN"
 "http://www.w3.org/Graphics/SVG/1.1/DTD/svg11.dtd">
<!-- Generated by graphviz version 2.43.0 (0)
 -->
<!-- Title: Dm::Transaction::Client Pages: 1 -->
<svg width="2799pt" height="379pt"
 viewBox="0.00 0.00 2799.00 379.00" xmlns="http://www.w3.org/2000/svg" xmlns:xlink="http://www.w3.org/1999/xlink">
<g id="graph0" class="graph" transform="scale(1 1) rotate(0) translate(4 375)">
<title>Dm::Transaction::Client</title>
<!-- Node1 -->
<g id="Node000001" class="node">
<title>Node1</title>
<g id="a_Node000001"><a xlink:title="This concrete class is a &#39;client&#39; to request/trigger the &#39;server&#39; to generate a random number.">
<polygon fill="#999999" stroke="#666666" points="2791,-219 2661,-219 2661,-200 2791,-200 2791,-219"/>
<text text-anchor="middle" x="2726" y="-207" font-family="Helvetica,sans-Serif" font-size="10.00">Dm::Transaction::Client</text>
</a>
</g>
</g>
<!-- Node2 -->
<g id="Node000002" class="node">
<title>Node2</title>
<g id="a_Node000002"><a xlink:href="class_kit_1_1_itc_1_1_open_close_sync.html" target="_top" xlink:title="This partially concrete class extends the ITC OpenSync class and implements the synchronous ITC close...">
<polygon fill="white" stroke="#666666" points="2564,-318 2434,-318 2434,-299 2564,-299 2564,-318"/>
<text text-anchor="middle" x="2499" y="-306" font-family="Helvetica,sans-Serif" font-size="10.00">Kit::Itc::OpenCloseSync</text>
</a>
</g>
</g>
<!-- Node2&#45;&gt;Node1 -->
<g id="edge1_Node000001_Node000002" class="edge">
<title>Node2&#45;&gt;Node1</title>
<g id="a_edge1_Node000001_Node000002"><a xlink:title=" ">
<path fill="none" stroke="#63b8ff" d="M2531.23,-294.76C2577.52,-274.39 2663.18,-236.7 2703.26,-219.07"/>
<polygon fill="#63b8ff" stroke="#63b8ff" points="2529.73,-291.6 2521.98,-298.83 2532.55,-298 2529.73,-291.6"/>
</a>
</g>
</g>
<!-- Node3 -->
<g id="Node000003" class="node">
<title>Node3</title>
<g id="a_Node000003"><a xlink:href="class_kit_1_1_itc_1_1_open_sync.html" target="_top" xlink:title="This partially concrete class implements the synchronous ITC open call for the OpenApi.">
<polygon fill="white" stroke="#666666" points="2310.5,-297 2207.5,-297 2207.5,-278 2310.5,-278 2310.5,-297"/>
<text text-anchor="middle" x="2259" y="-285" font-family="Helvetica,sans-Serif" font-size="10.00">Kit::Itc::OpenSync</text>
</a>
</g>
</g>
<!-- Node3&#45;&gt;Node2 -->
<g id="edge2_Node000002_Node000003" class="edge">
<title>Node3&#45;&gt;Node2</title>
<g id="a_edge2_Node000002_Node000003"><a xlink:title=" ">
<path fill="none" stroke="#63b8ff" d="M2320.73,-292.86C2355.29,-295.91 2398.56,-299.73 2433.7,-302.83"/>
<polygon fill="#63b8ff" stroke="#63b8ff" points="2321.03,-289.37 2310.77,-291.98 2320.42,-296.34 2321.03,-289.37"/>
</a>
</g>
</g>
<!-- Node4 -->
<g id="Node000004" class="node">
<title>Node4</title>
<g id="a_Node000004"><a xlink:href="class_kit_1_1_itc_1_1_i_open_request.html" target="_top" xlink:title="This abstract class define message types and payloads for a set of ITC services.">
<polygon fill="white" stroke="#666666" points="2066,-316 1944,-316 1944,-297 2066,-297 2066,-316"/>
<text text-anchor="middle" x="2005" y="-304" font-family="Helvetica,sans-Serif" font-size="10.00">Kit::Itc::IOpenRequest</text>
</a>
</g>
</g>
<!-- Node4&#45;&gt;Node3 -->
<g id="edge3_Node000003_Node000004" class="edge">
<title>Node4&#45;&gt;Node3</title>
<g id="a_edge3_Node000003_Node000004"><a xlink:title=" ">
<path fill="none" stroke="#63b8ff" d="M2076.12,-301.21C2117.78,-298.07 2169.66,-294.16 2207.34,-291.32"/>
<polygon fill="#63b8ff" stroke="#63b8ff" points="2075.75,-297.73 2066.04,-301.97 2076.27,-304.71 2075.75,-297.73"/>
</a>
</g>
</g>
<!-- Node5 -->
<g id="Node000005" class="node">
<title>Node5</title>
<g id="a_Node000005"><a xlink:href="class_kit_1_1_itc_1_1_i_open.html" target="_top" xlink:title="This abstract class defines an open interface.">
<polygon fill="white" stroke="#666666" points="2046.5,-279 1963.5,-279 1963.5,-260 2046.5,-260 2046.5,-279"/>
<text text-anchor="middle" x="2005" y="-267" font-family="Helvetica,sans-Serif" font-size="10.00">Kit::Itc::IOpen</text>
</a>
</g>
</g>
<!-- Node5&#45;&gt;Node3 -->
<g id="edge4_Node000003_Node000005" class="edge">
<title>Node5&#45;&gt;Node3</title>
<g id="a_edge4_Node000003_Node000005"><a xlink:title=" ">
<path fill="none" stroke="#63b8ff" d="M2056.91,-273.14C2100.71,-276.26 2163.55,-280.75 2207.29,-283.88"/>
<polygon fill="#63b8ff" stroke="#63b8ff" points="2056.99,-269.63 2046.77,-272.41 2056.49,-276.62 2056.99,-269.63"/>
</a>
</g>
</g>
<!-- Node6 -->
<g id="Node000006" class="node">
<title>Node6</title>
<g id="a_Node000006"><a xlink:href="class_kit_1_1_event_queue_1_1_i_queue.html" target="_top" xlink:title="This abstract class represents an Event Queue where events can be delivered to.">
<polygon fill="white" stroke="#666666" points="2073,-353 1937,-353 1937,-334 2073,-334 2073,-353"/>
<text text-anchor="middle" x="2005" y="-341" font-family="Helvetica,sans-Serif" font-size="10.00">Kit::EventQueue::IQueue</text>
</a>
</g>
</g>
<!-- Node6&#45;&gt;Node3 -->
<g id="edge5_Node000003_Node000006" class="edge">
<title>Node6&#45;&gt;Node3</title>
<g id="a_edge5_Node000003_Node000006"><a xlink:title=" ">
<path fill="none" stroke="#9a32cd" stroke-dasharray="5,2" d="M2069.89,-332.09C2101.36,-326.18 2139.79,-318.53 2174,-310.5 2191.08,-306.49 2209.92,-301.39 2225.43,-297.02"/>
<polygon fill="#9a32cd" stroke="#9a32cd" points="2069.12,-328.67 2059.93,-333.95 2070.41,-335.55 2069.12,-328.67"/>
</a>
</g>
<text text-anchor="middle" x="2135" y="-329.5" font-family="Helvetica,sans-Serif" font-size="10.00" fill="grey"> m_eventQueue</text>
</g>
<!-- Node7 -->
<g id="Node000007" class="node">
<title>Node7</title>
<g id="a_Node000007"><a xlink:title=" ">
<polygon fill="white" stroke="#bfbfbf" points="1755,-358.5 1582,-358.5 1582,-328.5 1755,-328.5 1755,-358.5"/>
<text text-anchor="start" x="1590" y="-346.5" font-family="Helvetica,sans-Serif" font-size="10.00">KIT_EVENT_QUEUE_SUPPORTED</text>
<text text-anchor="middle" x="1668.5" y="-335.5" font-family="Helvetica,sans-Serif" font-size="10.00">_EVENT_TYPES</text>
</a>
</g>
</g>
<!-- Node7&#45;&gt;Node6 -->
<g id="edge6_Node000006_Node000007" class="edge">
<title>Node7&#45;&gt;Node6</title>
<g id="a_edge6_Node000006_Node000007"><a xlink:title=" ">
<path fill="none" stroke="#8b1a1a" d="M1765.31,-343.5C1820.21,-343.5 1887.77,-343.5 1936.98,-343.5"/>
<polygon fill="#8b1a1a" stroke="#8b1a1a" points="1765.21,-340 1755.21,-343.5 1765.21,-347 1765.21,-340"/>
</a>
</g>
</g>
<!-- Node8 -->
<g id="Node000008" class="node">
<title>Node8</title>
<g id="a_Node000008"><a xlink:href="class_kit_1_1_itc_1_1_i_close_request.html" target="_top" xlink:title="This abstract class defines message types and payloads for a set of ITC services.">
<polygon fill="white" stroke="#666666" points="2321,-371 2197,-371 2197,-352 2321,-352 2321,-371"/>
<text text-anchor="middle" x="2259" y="-359" font-family="Helvetica,sans-Serif" font-size="10.00">Kit::Itc::ICloseRequest</text>
</a>
</g>
</g>
<!-- Node8&#45;&gt;Node2 -->
<g id="edge7_Node000002_Node000008" class="edge">
<title>Node8&#45;&gt;Node2</title>
<g id="a_edge7_Node000002_Node000008"><a xlink:title=" ">
<path fill="none" stroke="#63b8ff" d="M2314.71,-349.83C2341.37,-344.09 2373.88,-337.03 2403,-330.5 2420.84,-326.5 2440.54,-321.96 2457.35,-318.05"/>
<polygon fill="#63b8ff" stroke="#63b8ff" points="2313.84,-346.44 2304.8,-351.96 2315.31,-353.28 2313.84,-346.44"/>
</a>
</g>
</g>
<!-- Node9 -->
<g id="Node000009" class="node">
<title>Node9</title>
<g id="a_Node000009"><a xlink:href="class_kit_1_1_itc_1_1_i_close.html" target="_top" xlink:title="This abstract class defines an close interface.">
<polygon fill="white" stroke="#666666" points="2301,-334 2217,-334 2217,-315 2301,-315 2301,-334"/>
<text text-anchor="middle" x="2259" y="-322" font-family="Helvetica,sans-Serif" font-size="10.00">Kit::Itc::IClose</text>
</a>
</g>
</g>
<!-- Node9&#45;&gt;Node2 -->
<g id="edge8_Node000002_Node000009" class="edge">
<title>Node9&#45;&gt;Node2</title>
<g id="a_edge8_Node000002_Node000009"><a xlink:title=" ">
<path fill="none" stroke="#63b8ff" d="M2311.41,-321.04C2347.21,-318.64 2395.23,-315.41 2433.59,-312.83"/>
<polygon fill="#63b8ff" stroke="#63b8ff" points="2310.93,-317.57 2301.18,-321.73 2311.4,-324.55 2310.93,-317.57"/>
</a>
</g>
</g>
<!-- Node10 -->
<g id="Node000010" class="node">
<title>Node10</title>
<g id="a_Node000010"><a xlink:href="class_kit_1_1_system_1_1_timer.html" target="_top" xlink:title="This mostly concrete interface defines the operations that can be performed on a software timer.">
<polygon fill="white" stroke="#666666" points="920.5,-241 813.5,-241 813.5,-222 920.5,-222 920.5,-241"/>
<text text-anchor="middle" x="867" y="-229" font-family="Helvetica,sans-Serif" font-size="10.00">Kit::System::Timer</text>
</a>
</g>
</g>
<!-- Node10&#45;&gt;Node1 -->
<g id="edge9_Node000001_Node000010" class="edge">
<title>Node10&#45;&gt;Node1</title>
<g id="a_edge9_Node000001_Node000010"><a xlink:title=" ">
<path fill="none" stroke="#63b8ff" d="M930.84,-231.5C987.09,-231.5 1071.8,-231.5 1145.5,-231.5 1145.5,-231.5 1145.5,-231.5 2500,-231.5 2554.75,-231.5 2616.64,-224.97 2661.64,-219.02"/>
<polygon fill="#63b8ff" stroke="#63b8ff" points="930.68,-228 920.68,-231.5 930.68,-235 930.68,-228"/>
</a>
</g>
</g>
<!-- Node11 -->
<g id="Node000011" class="node">
<title>Node11</title>
<g id="a_Node000011"><a xlink:href="class_kit_1_1_system_1_1_i_counter.html" target="_top" xlink:title="This abstract class defines the call&#45;back interface for a Counter object.">
<polygon fill="white" stroke="#666666" points="676.5,-244 556.5,-244 556.5,-225 676.5,-225 676.5,-244"/>
<text text-anchor="middle" x="616.5" y="-232" font-family="Helvetica,sans-Serif" font-size="10.00">Kit::System::ICounter</text>
</a>
</g>
</g>
<!-- Node11&#45;&gt;Node10 -->
<g id="edge10_Node000010_Node000011" class="edge">
<title>Node11&#45;&gt;Node10</title>
<g id="a_edge10_Node000010_Node000011"><a xlink:title=" ">
<path fill="none" stroke="#63b8ff" d="M686.92,-233.66C726.9,-233.18 776.36,-232.58 813.16,-232.14"/>
<polygon fill="#63b8ff" stroke="#63b8ff" points="686.66,-230.16 676.71,-233.79 686.75,-237.16 686.66,-230.16"/>
</a>
</g>
</g>
<!-- Node12 -->
<g id="Node000012" class="node">
<title>Node12</title>
<g id="a_Node000012"><a xlink:href="class_kit_1_1_container_1_1_extended_list_item.html" target="_top" xlink:title="This class is used by the Container classes to implement a various types of DOUBLY linked containers.">
<polygon fill="white" stroke="#666666" points="450,-134.5 315,-134.5 315,-104.5 450,-104.5 450,-134.5"/>
<text text-anchor="start" x="323" y="-122.5" font-family="Helvetica,sans-Serif" font-size="10.00">Kit::Container::Extended</text>
<text text-anchor="middle" x="382.5" y="-111.5" font-family="Helvetica,sans-Serif" font-size="10.00">ListItem</text>
</a>
</g>
</g>
<!-- Node12&#45;&gt;Node11 -->
<g id="edge11_Node000011_Node000012" class="edge">
<title>Node12&#45;&gt;Node11</title>
<g id="a_edge11_Node000011_Node000012"><a xlink:title=" ">
<path fill="none" stroke="#63b8ff" d="M411.88,-140.63C442.52,-162.52 493.48,-196.29 542,-216.5 550,-219.83 558.77,-222.65 567.36,-224.98"/>
<polygon fill="#63b8ff" stroke="#63b8ff" points="413.58,-137.54 403.42,-134.52 409.48,-143.21 413.58,-137.54"/>
</a>
</g>
</g>
<!-- Node12&#45;&gt;Node12 -->
<g id="edge15_Node000012_Node000012" class="edge">
<title>Node12&#45;&gt;Node12</title>
<g id="a_edge15_Node000012_Node000012"><a xlink:title=" ">
<path fill="none" stroke="#9a32cd" stroke-dasharray="5,2" d="M367.45,-145.1C369.5,-149.47 374.52,-152.5 382.5,-152.5 395.94,-152.5 400.98,-143.91 397.62,-134.78"/>
<polygon fill="#9a32cd" stroke="#9a32cd" points="370.94,-144.75 367.38,-134.78 363.94,-144.8 370.94,-144.75"/>
</a>
</g>
<text text-anchor="middle" x="382.5" y="-155.5" font-family="Helvetica,sans-Serif" font-size="10.00" fill="grey"> m_prevPtr_</text>
</g>
<!-- Node19 -->
<g id="Node000019" class="node">
<title>Node19</title>
<g id="a_Node000019"><a xlink:href="class_kit_1_1_dm_1_1_i_model_point.html" target="_top" xlink:title="This mostly abstract class defines the interface for a Model Point.">
<polygon fill="white" stroke="#666666" points="1205,-113 1088,-113 1088,-94 1205,-94 1205,-113"/>
<text text-anchor="middle" x="1146.5" y="-101" font-family="Helvetica,sans-Serif" font-size="10.00">Kit::Dm::IModelPoint</text>
</a>
</g>
</g>
<!-- Node12&#45;&gt;Node19 -->
<g id="edge21_Node000019_Node000012" class="edge">
<title>Node12&#45;&gt;Node19</title>
<g id="a_edge21_Node000019_Node000012"><a xlink:title=" ">
<path fill="none" stroke="#63b8ff" d="M460.36,-117.89C613.22,-114.68 952.32,-107.56 1087.87,-104.71"/>
<polygon fill="#63b8ff" stroke="#63b8ff" points="460.05,-114.39 450.12,-118.1 460.19,-121.39 460.05,-114.39"/>
</a>
</g>
</g>
<!-- Node21 -->
<g id="Node000021" class="node">
<title>Node21</title>
<g id="a_Node000021"><a xlink:href="class_kit_1_1_container_1_1_d_list_base.html" target="_top" xlink:title="This protected base class implements a NON&#45;TYPE&#45;SAFE a doubly linked list which maintains the orderin...">
<polygon fill="white" stroke="#666666" points="685.5,-151 547.5,-151 547.5,-132 685.5,-132 685.5,-151"/>
<text text-anchor="middle" x="616.5" y="-139" font-family="Helvetica,sans-Serif" font-size="10.00">Kit::Container::DListBase</text>
</a>
</g>
</g>
<!-- Node12&#45;&gt;Node21 -->
<g id="edge24_Node000021_Node000012" class="edge">
<title>Node12&#45;&gt;Node21</title>
<g id="a_edge24_Node000021_Node000012"><a xlink:title=" ">
<path fill="none" stroke="#9a32cd" stroke-dasharray="5,2" d="M460.45,-126.8C488.47,-129.45 519.94,-132.44 547.17,-135.02"/>
<polygon fill="#9a32cd" stroke="#9a32cd" points="460.58,-123.29 450.29,-125.83 459.92,-130.26 460.58,-123.29"/>
</a>
</g>
<text text-anchor="middle" x="496" y="-146.5" font-family="Helvetica,sans-Serif" font-size="10.00" fill="grey"> m_headPtr</text>
<text text-anchor="middle" x="496" y="-135.5" font-family="Helvetica,sans-Serif" font-size="10.00" fill="grey">m_tailPtr</text>
</g>
<!-- Node29 -->
<g id="Node000029" class="node">
<title>Node29</title>
<g id="a_Node000029"><a xlink:href="class_kit_1_1_dm_1_1_i_observer.html" target="_top" xlink:title="This abstract class defines the Observer interface &#45; for change notifications &#45; to a Model Points dat...">
<polygon fill="white" stroke="#666666" points="1200,-19 1093,-19 1093,0 1200,0 1200,-19"/>
<text text-anchor="middle" x="1146.5" y="-7" font-family="Helvetica,sans-Serif" font-size="10.00">Kit::Dm::IObserver</text>
</a>
</g>
</g>
<!-- Node12&#45;&gt;Node29 -->
<g id="edge35_Node000029_Node000012" class="edge">
<title>Node12&#45;&gt;Node29</title>
<g id="a_edge35_Node000029_Node000012"><a xlink:title=" ">
<path fill="none" stroke="#63b8ff" d="M460.03,-108.45C614.65,-86.13 960.78,-36.17 1092.89,-17.09"/>
<polygon fill="#63b8ff" stroke="#63b8ff" points="459.52,-104.99 450.12,-109.88 460.52,-111.92 459.52,-104.99"/>
</a>
</g>
</g>
<!-- Node13 -->
<g id="Node000013" class="node">
<title>Node13</title>
<g id="a_Node000013"><a xlink:href="class_kit_1_1_container_1_1_list_item.html" target="_top" xlink:title="This class is used by the Container classes to implement a various types of linked lists containers.">
<polygon fill="white" stroke="#666666" points="278,-129 149,-129 149,-110 278,-110 278,-129"/>
<text text-anchor="middle" x="213.5" y="-117" font-family="Helvetica,sans-Serif" font-size="10.00">Kit::Container::ListItem</text>
</a>
</g>
</g>
<!-- Node13&#45;&gt;Node12 -->
<g id="edge12_Node000012_Node000013" class="edge">
<title>Node13&#45;&gt;Node12</title>
<g id="a_edge12_Node000012_Node000013"><a xlink:title=" ">
<path fill="none" stroke="#63b8ff" d="M288.34,-119.5C297.12,-119.5 306.05,-119.5 314.73,-119.5"/>
<polygon fill="#63b8ff" stroke="#63b8ff" points="288.11,-116 278.11,-119.5 288.11,-123 288.11,-116"/>
</a>
</g>
</g>
<!-- Node13&#45;&gt;Node13 -->
<g id="edge14_Node000013_Node000013" class="edge">
<title>Node13&#45;&gt;Node13</title>
<g id="a_edge14_Node000013_Node000013"><a xlink:title=" ">
<path fill="none" stroke="#9a32cd" stroke-dasharray="5,2" d="M198.4,-138.91C199.59,-143.56 204.62,-147 213.5,-147 228.07,-147 232.29,-137.73 226.14,-129.08"/>
<polygon fill="#9a32cd" stroke="#9a32cd" points="201.83,-139.63 200.86,-129.08 195.04,-137.93 201.83,-139.63"/>
</a>
</g>
<text text-anchor="middle" x="213.5" y="-150" font-family="Helvetica,sans-Serif" font-size="10.00" fill="grey"> m_nextPtr_</text>
</g>
<!-- Node14 -->
<g id="Node000014" class="node">
<title>Node14</title>
<g id="a_Node000014"><a xlink:href="class_kit_1_1_container_1_1_item.html" target="_top" xlink:title="This class is used by the Intrusive Container classes to enforce the semantic and item/element can be...">
<polygon fill="white" stroke="#666666" points="112,-129 0,-129 0,-110 112,-110 112,-129"/>
<text text-anchor="middle" x="56" y="-117" font-family="Helvetica,sans-Serif" font-size="10.00">Kit::Container::Item</text>
</a>
</g>
</g>
<!-- Node14&#45;&gt;Node13 -->
<g id="edge13_Node000013_Node000014" class="edge">
<title>Node14&#45;&gt;Node13</title>
<g id="a_edge13_Node000013_Node000014"><a xlink:title=" ">
<path fill="none" stroke="#63b8ff" d="M122.43,-119.5C131.2,-119.5 140.19,-119.5 148.93,-119.5"/>
<polygon fill="#63b8ff" stroke="#63b8ff" points="122.26,-116 112.26,-119.5 122.26,-123 122.26,-116"/>
</a>
</g>
</g>
<!-- Node15 -->
<g id="Node000015" class="node">
<title>Node15</title>
<g id="a_Node000015"><a xlink:href="class_kit_1_1_system_1_1_i_timing_source.html" target="_top" xlink:title="This abstract class defines the interface for a timing source.">
<polygon fill="white" stroke="#666666" points="691,-207 542,-207 542,-188 691,-188 691,-207"/>
<text text-anchor="middle" x="616.5" y="-195" font-family="Helvetica,sans-Serif" font-size="10.00">Kit::System::ITimingSource</text>
</a>
</g>
</g>
<!-- Node15&#45;&gt;Node10 -->
<g id="edge16_Node000010_Node000015" class="edge">
<title>Node15&#45;&gt;Node10</title>
<g id="a_edge16_Node000010_Node000015"><a xlink:title=" ">
<path fill="none" stroke="#9a32cd" stroke-dasharray="5,2" d="M701.18,-205.04C730.03,-208.06 762.5,-211.91 792,-216.5 801.84,-218.03 812.37,-219.97 822.29,-221.95"/>
<polygon fill="#9a32cd" stroke="#9a32cd" points="701.44,-201.55 691.14,-204.01 700.73,-208.51 701.44,-201.55"/>
</a>
</g>
<text text-anchor="middle" x="750.5" y="-219.5" font-family="Helvetica,sans-Serif" font-size="10.00" fill="grey"> m_timingSource</text>
</g>
<!-- Node16 -->
<g id="Node000016" class="node">
<title>Node16</title>
<g id="a_Node000016"><a xlink:href="class_dm_1_1_transaction_1_1_mp_foo.html" target="_top" xlink:title="This concreate class implements a type safe MP for the data structure: Foo_T.">
<polygon fill="white" stroke="#666666" points="2326,-155 2192,-155 2192,-136 2326,-136 2326,-155"/>
<text text-anchor="middle" x="2259" y="-143" font-family="Helvetica,sans-Serif" font-size="10.00">Dm::Transaction::MpFoo</text>
</a>
</g>
</g>
<!-- Node16&#45;&gt;Node1 -->
<g id="edge17_Node000001_Node000016" class="edge">
<title>Node16&#45;&gt;Node1</title>
<g id="a_edge17_Node000001_Node000016"><a xlink:title=" ">
<path fill="none" stroke="#9a32cd" stroke-dasharray="5,2" d="M2336.05,-155.97C2426.57,-168.43 2576.1,-189.01 2660.97,-200.69"/>
<polygon fill="#9a32cd" stroke="#9a32cd" points="2336.51,-152.5 2326.13,-154.6 2335.56,-159.43 2336.51,-152.5"/>
</a>
</g>
<text text-anchor="middle" x="2499" y="-192.5" font-family="Helvetica,sans-Serif" font-size="10.00" fill="grey"> m_mpFoo</text>
</g>
<!-- Node26 -->
<g id="Node000026" class="node">
<title>Node26</title>
<g id="a_Node000026"><a xlink:href="class_kit_1_1_dm_1_1_observer_callback.html" target="_top" xlink:title=" ">
<polygon fill="white" stroke="#666666" points="2577,-134.5 2421,-134.5 2421,-104.5 2577,-104.5 2577,-134.5"/>
<text text-anchor="start" x="2429" y="-122.5" font-family="Helvetica,sans-Serif" font-size="10.00">Kit::Dm::ObserverCallback</text>
<text text-anchor="middle" x="2499" y="-111.5" font-family="Helvetica,sans-Serif" font-size="10.00">&lt; Dm::Transaction::MpFoo &gt;</text>
</a>
</g>
</g>
<!-- Node16&#45;&gt;Node26 -->
<g id="edge38_Node000026_Node000016" class="edge">
<title>Node16&#45;&gt;Node26</title>
<g id="a_edge38_Node000026_Node000016"><a xlink:title=" ">
<path fill="none" stroke="#9a32cd" stroke-dasharray="5,2" d="M2336.44,-137.15C2363.39,-134.21 2393.68,-130.9 2420.69,-127.95"/>
<polygon fill="#9a32cd" stroke="#9a32cd" points="2335.86,-133.69 2326.3,-138.26 2336.62,-140.65 2335.86,-133.69"/>
</a>
</g>
<text text-anchor="middle" x="2373.5" y="-139.5" font-family="Helvetica,sans-Serif" font-size="10.00" fill="grey"> m_callback</text>
</g>
<!-- Node17 -->
<g id="Node000017" class="node">
<title>Node17</title>
<g id="a_Node000017"><a xlink:href="class_kit_1_1_dm_1_1_mp_1_1_scalar.html" target="_top" xlink:title=" ">
<polygon fill="white" stroke="#666666" points="2060,-160.5 1950,-160.5 1950,-130.5 2060,-130.5 2060,-160.5"/>
<text text-anchor="start" x="1958" y="-148.5" font-family="Helvetica,sans-Serif" font-size="10.00">Kit::Dm::Mp::Scalar</text>
<text text-anchor="middle" x="2005" y="-137.5" font-family="Helvetica,sans-Serif" font-size="10.00">&lt; Foo_T, MpFoo &gt;</text>
</a>
</g>
</g>
<!-- Node17&#45;&gt;Node16 -->
<g id="edge18_Node000016_Node000017" class="edge">
<title>Node17&#45;&gt;Node16</title>
<g id="a_edge18_Node000016_Node000017"><a xlink:title=" ">
<path fill="none" stroke="#63b8ff" d="M2070.3,-145.5C2107.56,-145.5 2154.37,-145.5 2191.93,-145.5"/>
<polygon fill="#63b8ff" stroke="#63b8ff" points="2070.06,-142 2060.06,-145.5 2070.06,-149 2070.06,-142"/>
</a>
</g>
</g>
<!-- Node18 -->
<g id="Node000018" class="node">
<title>Node18</title>
<g id="a_Node000018"><a xlink:href="class_kit_1_1_dm_1_1_model_point_base.html" target="_top" xlink:title="This concrete class provide common infrastructure for a Model Point.">
<polygon fill="white" stroke="#666666" points="1487,-155 1349,-155 1349,-136 1487,-136 1487,-155"/>
<text text-anchor="middle" x="1418" y="-143" font-family="Helvetica,sans-Serif" font-size="10.00">Kit::Dm::ModelPointBase</text>
</a>
</g>
</g>
<!-- Node18&#45;&gt;Node17 -->
<g id="edge19_Node000017_Node000018" class="edge">
<title>Node18&#45;&gt;Node17</title>
<g id="a_edge19_Node000017_Node000018"><a xlink:title=" ">
<path fill="none" stroke="#63b8ff" d="M1497.52,-145.5C1618.19,-145.5 1846.12,-145.5 1949.98,-145.5"/>
<polygon fill="#63b8ff" stroke="#63b8ff" points="1497.25,-142 1487.25,-145.5 1497.25,-149 1497.25,-142"/>
</a>
</g>
</g>
<!-- Node25 -->
<g id="Node000025" class="node">
<title>Node25</title>
<g id="a_Node000025"><a xlink:href="class_kit_1_1_dm_1_1_mp_1_1_scalar.html" target="_top" xlink:title="This template class is partial concrete class that provides a basic implementation for a Model Point ...">
<polygon fill="white" stroke="#666666" points="1735.5,-203.5 1601.5,-203.5 1601.5,-173.5 1735.5,-173.5 1735.5,-203.5"/>
<text text-anchor="start" x="1609.5" y="-191.5" font-family="Helvetica,sans-Serif" font-size="10.00">Kit::Dm::Mp::Scalar</text>
<text text-anchor="middle" x="1668.5" y="-180.5" font-family="Helvetica,sans-Serif" font-size="10.00">&lt; ELEMTYPE, MPTYPE &gt;</text>
</a>
</g>
</g>
<!-- Node18&#45;&gt;Node25 -->
<g id="edge30_Node000025_Node000018" class="edge">
<title>Node18&#45;&gt;Node25</title>
<g id="a_edge30_Node000025_Node000018"><a xlink:title=" ">
<path fill="none" stroke="#63b8ff" d="M1484.11,-156.77C1520.27,-163.02 1565.16,-170.79 1601.47,-177.07"/>
<polygon fill="#63b8ff" stroke="#63b8ff" points="1484.6,-153.3 1474.15,-155.04 1483.41,-160.2 1484.6,-153.3"/>
</a>
</g>
</g>
<!-- Node19&#45;&gt;Node18 -->
<g id="edge20_Node000018_Node000019" class="edge">
<title>Node19&#45;&gt;Node18</title>
<g id="a_edge20_Node000018_Node000019"><a xlink:title=" ">
<path fill="none" stroke="#63b8ff" d="M1215.46,-114.09C1258.69,-120.83 1314.19,-129.48 1356.01,-135.99"/>
<polygon fill="#63b8ff" stroke="#63b8ff" points="1215.73,-110.59 1205.31,-112.51 1214.66,-117.51 1215.73,-110.59"/>
</a>
</g>
</g>
<!-- Node28 -->
<g id="Node000028" class="node">
<title>Node28</title>
<g id="a_Node000028"><a xlink:href="class_kit_1_1_dm_1_1_observer_base.html" target="_top" xlink:title="This mostly concrete class defines the Observer interface &#45; for change notifications &#45; to a Model Poi...">
<polygon fill="white" stroke="#666666" points="1482,-62 1354,-62 1354,-43 1482,-43 1482,-62"/>
<text text-anchor="middle" x="1418" y="-50" font-family="Helvetica,sans-Serif" font-size="10.00">Kit::Dm::ObserverBase</text>
</a>
</g>
</g>
<!-- Node19&#45;&gt;Node28 -->
<g id="edge36_Node000028_Node000019" class="edge">
<title>Node19&#45;&gt;Node28</title>
<g id="a_edge36_Node000028_Node000019"><a xlink:title=" ">
<path fill="none" stroke="#9a32cd" stroke-dasharray="5,2" d="M1207.77,-92.09C1255.5,-83.06 1321.4,-70.59 1366.42,-62.07"/>
<polygon fill="#9a32cd" stroke="#9a32cd" points="1207.05,-88.67 1197.87,-93.97 1208.35,-95.55 1207.05,-88.67"/>
</a>
</g>
<text text-anchor="middle" x="1283" y="-89.5" font-family="Helvetica,sans-Serif" font-size="10.00" fill="grey"> m_point</text>
</g>
<!-- Node20 -->
<g id="Node000020" class="node">
<title>Node20</title>
<g id="a_Node000020"><a xlink:href="class_kit_1_1_container_1_1_d_list.html" target="_top" xlink:title=" ">
<polygon fill="white" stroke="#666666" points="1211,-199.5 1082,-199.5 1082,-169.5 1211,-169.5 1211,-199.5"/>
<text text-anchor="start" x="1090" y="-187.5" font-family="Helvetica,sans-Serif" font-size="10.00">Kit::Container::DList</text>
<text text-anchor="middle" x="1146.5" y="-176.5" font-family="Helvetica,sans-Serif" font-size="10.00">&lt; Kit::Dm::IObserver &gt;</text>
</a>
</g>
</g>
<!-- Node20&#45;&gt;Node18 -->
<g id="edge22_Node000018_Node000020" class="edge">
<title>Node20&#45;&gt;Node18</title>
<g id="a_edge22_Node000018_Node000020"><a xlink:title=" ">
<path fill="none" stroke="#9a32cd" stroke-dasharray="5,2" d="M1221.42,-174.87C1254.9,-170.4 1294.98,-164.88 1331,-159.5 1340.28,-158.11 1350.1,-156.58 1359.67,-155.05"/>
<polygon fill="#9a32cd" stroke="#9a32cd" points="1220.7,-171.44 1211.25,-176.23 1221.62,-178.38 1220.7,-171.44"/>
</a>
</g>
<text text-anchor="middle" x="1283" y="-176.5" font-family="Helvetica,sans-Serif" font-size="10.00" fill="grey"> m_subscribers</text>
</g>
<!-- Node21&#45;&gt;Node20 -->
<g id="edge23_Node000020_Node000021" class="edge">
<title>Node21&#45;&gt;Node20</title>
<g id="a_edge23_Node000020_Node000021"><a xlink:title=" ">
<path fill="none" stroke="#63b8ff" d="M695.83,-145.36C757.8,-148.66 846.51,-153.9 924,-160.5 977.19,-165.03 1037.4,-171.65 1081.6,-176.79"/>
<polygon fill="#63b8ff" stroke="#63b8ff" points="695.91,-141.86 685.74,-144.83 695.54,-148.85 695.91,-141.86"/>
</a>
</g>
</g>
<!-- Node22 -->
<g id="Node000022" class="node">
<title>Node22</title>
<g id="a_Node000022"><a xlink:href="class_kit_1_1_container_1_1_d_list.html" target="_top" xlink:title="This template class implements a singly linked list which maintains the ordering imposed on it by the...">
<polygon fill="white" stroke="#666666" points="924,-199.5 810,-199.5 810,-169.5 924,-169.5 924,-199.5"/>
<text text-anchor="start" x="818" y="-187.5" font-family="Helvetica,sans-Serif" font-size="10.00">Kit::Container::DList</text>
<text text-anchor="middle" x="867" y="-176.5" font-family="Helvetica,sans-Serif" font-size="10.00">&lt; ITEM &gt;</text>
</a>
</g>
</g>
<!-- Node21&#45;&gt;Node22 -->
<g id="edge26_Node000022_Node000021" class="edge">
<title>Node21&#45;&gt;Node22</title>
<g id="a_edge26_Node000022_Node000021"><a xlink:title=" ">
<path fill="none" stroke="#63b8ff" d="M682.71,-152.78C722.17,-159.61 771.98,-168.23 809.71,-174.76"/>
<polygon fill="#63b8ff" stroke="#63b8ff" points="683.1,-149.3 672.65,-151.04 681.91,-156.2 683.1,-149.3"/>
</a>
</g>
</g>
<!-- Node22&#45;&gt;Node20 -->
<g id="edge25_Node000020_Node000022" class="edge">
<title>Node22&#45;&gt;Node20</title>
<g id="a_edge25_Node000020_Node000022"><a xlink:title=" ">
<path fill="none" stroke="orange" stroke-dasharray="5,2" d="M934.32,-184.5C978.98,-184.5 1037.54,-184.5 1081.66,-184.5"/>
<polygon fill="orange" stroke="orange" points="934.16,-181 924.16,-184.5 934.16,-188 934.16,-181"/>
</a>
</g>
<text text-anchor="middle" x="1000" y="-187.5" font-family="Helvetica,sans-Serif" font-size="10.00" fill="grey"> &lt; Kit::Dm::IObserver &gt;</text>
</g>
<!-- Node23 -->
<g id="Node000023" class="node">
<title>Node23</title>
<g id="a_Node000023"><a xlink:href="class_kit_1_1_dm_1_1_i_model_database.html" target="_top" xlink:title="This class defines the basic operations that can be performed on a Model Base.">
<polygon fill="white" stroke="#666666" points="1216,-151 1077,-151 1077,-132 1216,-132 1216,-151"/>
<text text-anchor="middle" x="1146.5" y="-139" font-family="Helvetica,sans-Serif" font-size="10.00">Kit::Dm::IModelDatabase</text>
</a>
</g>
</g>
<!-- Node23&#45;&gt;Node18 -->
<g id="edge27_Node000018_Node000023" class="edge">
<title>Node23&#45;&gt;Node18</title>
<g id="a_edge27_Node000018_Node000023"><a xlink:title=" ">
<path fill="none" stroke="#9a32cd" stroke-dasharray="5,2" d="M1226.42,-142.67C1265.26,-143.25 1311.62,-143.94 1348.89,-144.49"/>
<polygon fill="#9a32cd" stroke="#9a32cd" points="1226.25,-139.17 1216.2,-142.52 1226.15,-146.17 1226.25,-139.17"/>
</a>
</g>
<text text-anchor="middle" x="1283" y="-147.5" font-family="Helvetica,sans-Serif" font-size="10.00" fill="grey"> m_modelDatabase</text>
</g>
<!-- Node24 -->
<g id="Node000024" class="node">
<title>Node24</title>
<g id="a_Node000024"><a xlink:href="struct_dm_1_1_transaction_1_1_foo___t.html" target="_top" xlink:title="Data structure used to exchange data between a Client and Server for the &#39;Foo&#39; transaction.">
<polygon fill="white" stroke="#666666" points="1733.5,-117 1603.5,-117 1603.5,-98 1733.5,-98 1733.5,-117"/>
<text text-anchor="middle" x="1668.5" y="-105" font-family="Helvetica,sans-Serif" font-size="10.00">Dm::Transaction::Foo_T</text>
</a>
</g>
</g>
<!-- Node24&#45;&gt;Node17 -->
<g id="edge28_Node000017_Node000024" class="edge">
<title>Node24&#45;&gt;Node17</title>
<g id="a_edge28_Node000017_Node000024"><a xlink:title=" ">
<path fill="none" stroke="#9a32cd" stroke-dasharray="5,2" d="M1743.88,-107.26C1792.56,-108.14 1857.41,-111.25 1914,-120.5 1928.24,-122.83 1943.46,-126.56 1957.25,-130.44"/>
<polygon fill="#9a32cd" stroke="#9a32cd" points="1743.8,-103.76 1733.74,-107.11 1743.69,-110.76 1743.8,-103.76"/>
</a>
</g>
<text text-anchor="middle" x="1843.5" y="-123.5" font-family="Helvetica,sans-Serif" font-size="10.00" fill="grey"> m_data</text>
</g>
<!-- Node25&#45;&gt;Node17 -->
<g id="edge29_Node000017_Node000025" class="edge">
<title>Node25&#45;&gt;Node17</title>
<g id="a_edge29_Node000017_Node000025"><a xlink:title=" ">
<path fill="none" stroke="orange" stroke-dasharray="5,2" d="M1745.8,-180.17C1794.07,-174.72 1857.76,-167.21 1914,-159.5 1925.59,-157.91 1938,-156.07 1949.79,-154.26"/>
<polygon fill="orange" stroke="orange" points="1745.28,-176.71 1735.74,-181.3 1746.07,-183.66 1745.28,-176.71"/>
</a>
</g>
<text text-anchor="middle" x="1843.5" y="-180.5" font-family="Helvetica,sans-Serif" font-size="10.00" fill="grey"> &lt; Foo_T, MpFoo &gt;</text>
</g>
<!-- Node26&#45;&gt;Node1 -->
<g id="edge31_Node000001_Node000026" class="edge">
<title>Node26&#45;&gt;Node1</title>
<g id="a_edge31_Node000001_Node000026"><a xlink:title=" ">
<path fill="none" stroke="#9a32cd" stroke-dasharray="5,2" d="M2587.04,-131.61C2605.96,-135.92 2625.54,-141.72 2643,-149.5 2671.68,-162.28 2700.12,-186.3 2714.79,-199.74"/>
<polygon fill="#9a32cd" stroke="#9a32cd" points="2587.72,-128.18 2577.21,-129.49 2586.25,-135.02 2587.72,-128.18"/>
</a>
</g>
<text text-anchor="middle" x="2619" y="-152.5" font-family="Helvetica,sans-Serif" font-size="10.00" fill="grey"> m_obFoo</text>
</g>
<!-- Node27 -->
<g id="Node000027" class="node">
<title>Node27</title>
<g id="a_Node000027"><a xlink:href="class_kit_1_1_dm_1_1_observer.html" target="_top" xlink:title="This template class defines a type safe Observer.">
<polygon fill="white" stroke="#666666" points="1914,-82 1773,-82 1773,-63 1914,-63 1914,-82"/>
<text text-anchor="middle" x="1843.5" y="-70" font-family="Helvetica,sans-Serif" font-size="10.00">Kit::Dm::Observer&lt; MP &gt;</text>
</a>
</g>
</g>
<!-- Node27&#45;&gt;Node26 -->
<g id="edge32_Node000026_Node000027" class="edge">
<title>Node27&#45;&gt;Node26</title>
<g id="a_edge32_Node000026_Node000027"><a xlink:title=" ">
<path fill="none" stroke="#63b8ff" d="M1924.14,-78.23C2050.67,-87.33 2296.04,-104.98 2420.94,-113.96"/>
<polygon fill="#63b8ff" stroke="#63b8ff" points="1924.35,-74.73 1914.13,-77.51 1923.85,-81.72 1924.35,-74.73"/>
</a>
</g>
</g>
<!-- Node28&#45;&gt;Node27 -->
<g id="edge33_Node000027_Node000028" class="edge">
<title>Node28&#45;&gt;Node27</title>
<g id="a_edge33_Node000027_Node000028"><a xlink:title=" ">
<path fill="none" stroke="#63b8ff" d="M1492.73,-55.98C1571.5,-59.7 1695.42,-65.55 1772.66,-69.2"/>
<polygon fill="#63b8ff" stroke="#63b8ff" points="1492.56,-52.47 1482.4,-55.49 1492.23,-59.46 1492.56,-52.47"/>
</a>
</g>
</g>
<!-- Node32 -->
<g id="Node000032" class="node">
<title>Node32</title>
<g id="a_Node000032"><a xlink:href="class_kit_1_1_dm_1_1_observer.html" target="_top" xlink:title="This template class defines a type safe Observer.">
<polygon fill="white" stroke="#666666" points="1739,-41 1598,-41 1598,-22 1739,-22 1739,-41"/>
<text text-anchor="middle" x="1668.5" y="-29" font-family="Helvetica,sans-Serif" font-size="10.00">Kit::Dm::Observer&lt; MP &gt;</text>
</a>
</g>
</g>
<!-- Node28&#45;&gt;Node32 -->
<g id="edge41_Node000032_Node000028" class="edge">
<title>Node28&#45;&gt;Node32</title>
<g id="a_edge41_Node000032_Node000028"><a xlink:title=" ">
<path fill="none" stroke="#63b8ff" d="M1492.2,-46.31C1525.62,-43.49 1565.01,-40.16 1597.98,-37.38"/>
<polygon fill="#63b8ff" stroke="#63b8ff" points="1491.7,-42.84 1482.03,-47.17 1492.29,-49.82 1491.7,-42.84"/>
</a>
</g>
</g>
<!-- Node29&#45;&gt;Node28 -->
<g id="edge34_Node000028_Node000029" class="edge">
<title>Node29&#45;&gt;Node28</title>
<g id="a_edge34_Node000028_Node000029"><a xlink:title=" ">
<path fill="none" stroke="#63b8ff" d="M1210.16,-19.5C1254.42,-26.56 1313.37,-35.97 1357.01,-42.93"/>
<polygon fill="#63b8ff" stroke="#63b8ff" points="1210.53,-16.01 1200.1,-17.89 1209.43,-22.92 1210.53,-16.01"/>
</a>
</g>
</g>
<!-- Node31 -->
<g id="Node000031" class="node">
<title>Node31</title>
<g id="a_Node000031"><a xlink:href="class_kit_1_1_dm_1_1_observer_callback.html" target="_top" xlink:title="This template class implements a Observer that uses a callback function (or similar callable) for cha...">
<polygon fill="white" stroke="#666666" points="2078,-46.5 1932,-46.5 1932,-16.5 2078,-16.5 2078,-46.5"/>
<text text-anchor="start" x="1940" y="-34.5" font-family="Helvetica,sans-Serif" font-size="10.00">Kit::Dm::ObserverCallback</text>
<text text-anchor="middle" x="2005" y="-23.5" font-family="Helvetica,sans-Serif" font-size="10.00">&lt; MP &gt;</text>
</a>
</g>
</g>
<!-- Node29&#45;&gt;Node31 -->
<g id="edge42_Node000031_Node000029" class="edge">
<title>Node29&#45;&gt;Node31</title>
<g id="a_edge42_Node000031_Node000029"><a xlink:title=" ">
<path fill="none" stroke="#9a32cd" stroke-dasharray="5,2" d="M1210.64,-8.33C1321.07,-6.62 1556.43,-4.44 1755,-12.5 1814.67,-14.92 1882.22,-20.24 1931.89,-24.63"/>
<polygon fill="#9a32cd" stroke="#9a32cd" points="1210.29,-4.84 1200.35,-8.5 1210.4,-11.84 1210.29,-4.84"/>
</a>
</g>
<text text-anchor="middle" x="1534.5" y="-11.5" font-family="Helvetica,sans-Serif" font-size="10.00" fill="grey"> m_callback</text>
</g>
<!-- Node30 -->
<g id="Node000030" class="node">
<title>Node30</title>
<g id="a_Node000030"><a xlink:href="class_kit_1_1_event_queue_1_1_i_change_notification.html" target="_top" xlink:title="This abstract class defines the interface to manage Data Model Change notification events that are pu...">
<polygon fill="white" stroke="#666666" points="1217,-67.5 1076,-67.5 1076,-37.5 1217,-37.5 1217,-67.5"/>
<text text-anchor="start" x="1084" y="-55.5" font-family="Helvetica,sans-Serif" font-size="10.00">Kit::EventQueue::IChange</text>
<text text-anchor="middle" x="1146.5" y="-44.5" font-family="Helvetica,sans-Serif" font-size="10.00">Notification</text>
</a>
</g>
</g>
<!-- Node30&#45;&gt;Node28 -->
<g id="edge37_Node000028_Node000030" class="edge">
<title>Node30&#45;&gt;Node28</title>
<g id="a_edge37_Node000028_Node000030"><a xlink:title=" ">
<path fill="none" stroke="#9a32cd" stroke-dasharray="5,2" d="M1227.35,-52.5C1267.8,-52.5 1316.2,-52.5 1353.99,-52.5"/>
<polygon fill="#9a32cd" stroke="#9a32cd" points="1227.25,-49 1217.25,-52.5 1227.25,-56 1227.25,-49"/>
</a>
</g>
<text text-anchor="middle" x="1283" y="-55.5" font-family="Helvetica,sans-Serif" font-size="10.00" fill="grey"> m_eventQueueHdl</text>
</g>
<!-- Node31&#45;&gt;Node26 -->
<g id="edge39_Node000026_Node000031" class="edge">
<title>Node31&#45;&gt;Node26</title>
<g id="a_edge39_Node000026_Node000031"><a xlink:title=" ">
<path fill="none" stroke="orange" stroke-dasharray="5,2" d="M2088.2,-35.02C2153.19,-38.81 2245.97,-46.45 2326,-61.5 2360.98,-68.08 2369.22,-72.3 2403,-83.5 2422.08,-89.83 2443.01,-97.66 2460.35,-104.4"/>
<polygon fill="orange" stroke="orange" points="2088.2,-31.52 2078.02,-34.45 2087.8,-38.5 2088.2,-31.52"/>
</a>
</g>
<text text-anchor="start" x="2209" y="-75.5" font-family="Helvetica,sans-Serif" font-size="10.00" fill="grey"> &lt; Dm::Transaction::</text>
<text text-anchor="middle" x="2259" y="-64.5" font-family="Helvetica,sans-Serif" font-size="10.00" fill="grey">MpFoo &gt;</text>
</g>
<!-- Node32&#45;&gt;Node31 -->
<g id="edge40_Node000031_Node000032" class="edge">
<title>Node32&#45;&gt;Node31</title>
<g id="a_edge40_Node000031_Node000032"><a xlink:title=" ">
<path fill="none" stroke="#63b8ff" d="M1749.35,-31.5C1804.8,-31.5 1878.07,-31.5 1931.78,-31.5"/>
<polygon fill="#63b8ff" stroke="#63b8ff" points="1749.22,-28 1739.21,-31.5 1749.21,-35 1749.22,-28"/>
</a>
</g>
</g>
</g>
</svg>
