<?xml version="1.0" encoding="UTF-8" standalone="no"?>
<!DOCTYPE svg PUBLIC "-//W3C//DTD SVG 1.1//EN"
 "http://www.w3.org/Graphics/SVG/1.1/DTD/svg11.dtd">
<!-- Generated by graphviz version 2.43.0 (0)
 -->
<!-- Title: Kit::Io::IClose Pages: 1 -->
<svg width="776pt" height="335pt"
 viewBox="0.00 0.00 776.00 335.00" xmlns="http://www.w3.org/2000/svg" xmlns:xlink="http://www.w3.org/1999/xlink">
<g id="graph0" class="graph" transform="scale(1 1) rotate(0) translate(4 331)">
<title>Kit::Io::IClose</title>
<!-- Node1 -->
<g id="Node000001" class="node">
<title>Node1</title>
<g id="a_Node000001"><a xlink:title="This abstract class defines a close operation that is intended to be used Input and Output streams/fi...">
<polygon fill="#999999" stroke="#666666" points="81,-148 0,-148 0,-129 81,-129 81,-148"/>
<text text-anchor="middle" x="40.5" y="-136" font-family="Helvetica,sans-Serif" font-size="10.00">Kit::Io::IClose</text>
</a>
</g>
</g>
<!-- Node2 -->
<g id="Node000002" class="node">
<title>Node2</title>
<g id="a_Node000002"><a xlink:href="class_kit_1_1_io_1_1_i_input.html" target="_top" xlink:title="This partially abstract class defines a interface for operating on an input stream (example of a stre...">
<polygon fill="white" stroke="#666666" points="200,-191 121,-191 121,-172 200,-172 200,-191"/>
<text text-anchor="middle" x="160.5" y="-179" font-family="Helvetica,sans-Serif" font-size="10.00">Kit::Io::IInput</text>
</a>
</g>
</g>
<!-- Node1&#45;&gt;Node2 -->
<g id="edge1_Node000001_Node000002" class="edge">
<title>Node1&#45;&gt;Node2</title>
<g id="a_edge1_Node000001_Node000002"><a xlink:title=" ">
<path fill="none" stroke="#63b8ff" d="M77.32,-151.55C95.38,-158.14 116.9,-165.98 133.39,-171.98"/>
<polygon fill="#63b8ff" stroke="#63b8ff" points="78.28,-148.18 67.69,-148.04 75.89,-154.76 78.28,-148.18"/>
</a>
</g>
</g>
<!-- Node15 -->
<g id="Node000015" class="node">
<title>Node15</title>
<g id="a_Node000015"><a xlink:href="class_kit_1_1_io_1_1_i_output.html" target="_top" xlink:title="This partially abstract class defines a interface for operating on an output stream (example of a str...">
<polygon fill="white" stroke="#666666" points="204,-130 117,-130 117,-111 204,-111 204,-130"/>
<text text-anchor="middle" x="160.5" y="-118" font-family="Helvetica,sans-Serif" font-size="10.00">Kit::Io::IOutput</text>
</a>
</g>
</g>
<!-- Node1&#45;&gt;Node15 -->
<g id="edge14_Node000001_Node000015" class="edge">
<title>Node1&#45;&gt;Node15</title>
<g id="a_edge14_Node000001_Node000015"><a xlink:title=" ">
<path fill="none" stroke="#63b8ff" d="M91.05,-130.94C99.66,-129.63 108.55,-128.27 116.95,-126.99"/>
<polygon fill="#63b8ff" stroke="#63b8ff" points="90.48,-127.49 81.12,-132.46 91.53,-134.41 90.48,-127.49"/>
</a>
</g>
</g>
<!-- Node3 -->
<g id="Node000003" class="node">
<title>Node3</title>
<g id="a_Node000003"><a xlink:href="class_kit_1_1_io_1_1_file_1_1_i_input.html" target="_top" xlink:title="This abstract class defines the interface for a Random Access Input File.">
<polygon fill="white" stroke="#666666" points="370.5,-253 268.5,-253 268.5,-234 370.5,-234 370.5,-253"/>
<text text-anchor="middle" x="319.5" y="-241" font-family="Helvetica,sans-Serif" font-size="10.00">Kit::Io::File::IInput</text>
</a>
</g>
</g>
<!-- Node2&#45;&gt;Node3 -->
<g id="edge2_Node000002_Node000003" class="edge">
<title>Node2&#45;&gt;Node3</title>
<g id="a_edge2_Node000002_Node000003"><a xlink:title=" ">
<path fill="none" stroke="#63b8ff" d="M195.26,-194.83C225.05,-206.6 267.77,-223.47 294.29,-233.94"/>
<polygon fill="#63b8ff" stroke="#63b8ff" points="196.27,-191.47 185.69,-191.05 193.7,-197.98 196.27,-191.47"/>
</a>
</g>
</g>
<!-- Node8 -->
<g id="Node000008" class="node">
<title>Node8</title>
<g id="a_Node000008"><a xlink:href="class_kit_1_1_io_1_1_i_input_output.html" target="_top" xlink:title="This abstract class defines a interface for operating on an input&#45;output stream.">
<polygon fill="white" stroke="#666666" points="375.5,-179 263.5,-179 263.5,-160 375.5,-160 375.5,-179"/>
<text text-anchor="middle" x="319.5" y="-167" font-family="Helvetica,sans-Serif" font-size="10.00">Kit::Io::IInputOutput</text>
</a>
</g>
</g>
<!-- Node2&#45;&gt;Node8 -->
<g id="edge7_Node000002_Node000008" class="edge">
<title>Node2&#45;&gt;Node8</title>
<g id="a_edge7_Node000002_Node000008"><a xlink:title=" ">
<path fill="none" stroke="#63b8ff" d="M210.43,-177.76C227.18,-176.48 246.04,-175.04 263.25,-173.72"/>
<polygon fill="#63b8ff" stroke="#63b8ff" points="210.01,-174.28 200.31,-178.53 210.55,-181.26 210.01,-174.28"/>
</a>
</g>
</g>
<!-- Node13 -->
<g id="Node000013" class="node">
<title>Node13</title>
<g id="a_Node000013"><a xlink:href="class_kit_1_1_io_1_1_stdio_1_1_input_delegate.html" target="_top" xlink:title="This concrete class implements a Input stream using the underlying platform&#39;s native OS interface for...">
<polygon fill="white" stroke="#666666" points="395,-308 244,-308 244,-289 395,-289 395,-308"/>
<text text-anchor="middle" x="319.5" y="-296" font-family="Helvetica,sans-Serif" font-size="10.00">Kit::Io::Stdio::InputDelegate</text>
</a>
</g>
</g>
<!-- Node2&#45;&gt;Node13 -->
<g id="edge12_Node000002_Node000013" class="edge">
<title>Node2&#45;&gt;Node13</title>
<g id="a_edge12_Node000002_Node000013"><a xlink:title=" ">
<path fill="none" stroke="#63b8ff" d="M175.12,-198.98C189.68,-216.76 214.17,-244.23 240,-262.5 255.79,-273.67 275.6,-282.72 291.37,-288.96"/>
<polygon fill="#63b8ff" stroke="#63b8ff" points="177.8,-196.72 168.81,-191.11 172.34,-201.1 177.8,-196.72"/>
</a>
</g>
</g>
<!-- Node4 -->
<g id="Node000004" class="node">
<title>Node4</title>
<g id="a_Node000004"><a xlink:href="class_kit_1_1_io_1_1_file_1_1_i_input_output.html" target="_top" xlink:title="This abstract class defines the interface for a Random Access Input Output File.">
<polygon fill="white" stroke="#666666" points="577.5,-253 442.5,-253 442.5,-234 577.5,-234 577.5,-253"/>
<text text-anchor="middle" x="510" y="-241" font-family="Helvetica,sans-Serif" font-size="10.00">Kit::Io::File::IInputOutput</text>
</a>
</g>
</g>
<!-- Node3&#45;&gt;Node4 -->
<g id="edge3_Node000003_Node000004" class="edge">
<title>Node3&#45;&gt;Node4</title>
<g id="a_edge3_Node000003_Node000004"><a xlink:title=" ">
<path fill="none" stroke="#63b8ff" d="M380.58,-243.5C400.27,-243.5 422.27,-243.5 442.41,-243.5"/>
<polygon fill="#63b8ff" stroke="#63b8ff" points="380.52,-240 370.52,-243.5 380.52,-247 380.52,-240"/>
</a>
</g>
</g>
<!-- Node7 -->
<g id="Node000007" class="node">
<title>Node7</title>
<g id="a_Node000007"><a xlink:href="class_kit_1_1_io_1_1_file_1_1_input.html" target="_top" xlink:title="This concrete class provides a platform independent implementation of a Kit::Io::File::Input object.">
<polygon fill="white" stroke="#666666" points="559.5,-290 460.5,-290 460.5,-271 559.5,-271 559.5,-290"/>
<text text-anchor="middle" x="510" y="-278" font-family="Helvetica,sans-Serif" font-size="10.00">Kit::Io::File::Input</text>
</a>
</g>
</g>
<!-- Node3&#45;&gt;Node7 -->
<g id="edge6_Node000003_Node000007" class="edge">
<title>Node3&#45;&gt;Node7</title>
<g id="a_edge6_Node000003_Node000007"><a xlink:title=" ">
<path fill="none" stroke="#63b8ff" d="M379.17,-255.02C405.22,-260.13 435.52,-266.08 460.29,-270.94"/>
<polygon fill="#63b8ff" stroke="#63b8ff" points="379.53,-251.52 369.04,-253.03 378.18,-258.39 379.53,-251.52"/>
</a>
</g>
</g>
<!-- Node5 -->
<g id="Node000005" class="node">
<title>Node5</title>
<g id="a_Node000005"><a xlink:href="class_kit_1_1_io_1_1_file_1_1_input_output.html" target="_top" xlink:title="This concrete class provides a platform independent implementation of an Kit::Io::File::IInputOutput ...">
<polygon fill="white" stroke="#666666" points="760.5,-290 628.5,-290 628.5,-271 760.5,-271 760.5,-290"/>
<text text-anchor="middle" x="694.5" y="-278" font-family="Helvetica,sans-Serif" font-size="10.00">Kit::Io::File::InputOutput</text>
</a>
</g>
</g>
<!-- Node4&#45;&gt;Node5 -->
<g id="edge4_Node000004_Node000005" class="edge">
<title>Node4&#45;&gt;Node5</title>
<g id="a_edge4_Node000004_Node000005"><a xlink:title=" ">
<path fill="none" stroke="#63b8ff" d="M567.8,-255.02C593.02,-260.13 622.36,-266.08 646.34,-270.94"/>
<polygon fill="#63b8ff" stroke="#63b8ff" points="568.49,-251.59 558,-253.03 567.1,-258.45 568.49,-251.59"/>
</a>
</g>
</g>
<!-- Node6 -->
<g id="Node000006" class="node">
<title>Node6</title>
<g id="a_Node000006"><a xlink:href="class_kit_1_1_io_1_1_file_1_1_null.html" target="_top" xlink:title="This concrete class implements a NULL IInputOutput File that all of its input operations return &#39;End&#45;...">
<polygon fill="white" stroke="#666666" points="741.5,-253 647.5,-253 647.5,-234 741.5,-234 741.5,-253"/>
<text text-anchor="middle" x="694.5" y="-241" font-family="Helvetica,sans-Serif" font-size="10.00">Kit::Io::File::Null</text>
</a>
</g>
</g>
<!-- Node4&#45;&gt;Node6 -->
<g id="edge5_Node000004_Node000006" class="edge">
<title>Node4&#45;&gt;Node6</title>
<g id="a_edge5_Node000004_Node000006"><a xlink:title=" ">
<path fill="none" stroke="#63b8ff" d="M587.81,-243.5C608.02,-243.5 629.21,-243.5 647.27,-243.5"/>
<polygon fill="#63b8ff" stroke="#63b8ff" points="587.66,-240 577.66,-243.5 587.66,-247 587.66,-240"/>
</a>
</g>
</g>
<!-- Node9 -->
<g id="Node000009" class="node">
<title>Node9</title>
<g id="a_Node000009"><a xlink:href="class_kit_1_1_io_1_1_null.html" target="_top" xlink:title="This concrete class implements a NULL InputOutput stream &#45; that all of its input operations return &#39;E...">
<polygon fill="white" stroke="#666666" points="545.5,-179 474.5,-179 474.5,-160 545.5,-160 545.5,-179"/>
<text text-anchor="middle" x="510" y="-167" font-family="Helvetica,sans-Serif" font-size="10.00">Kit::Io::Null</text>
</a>
</g>
</g>
<!-- Node8&#45;&gt;Node9 -->
<g id="edge8_Node000008_Node000009" class="edge">
<title>Node8&#45;&gt;Node9</title>
<g id="a_edge8_Node000008_Node000009"><a xlink:title=" ">
<path fill="none" stroke="#63b8ff" d="M385.86,-169.5C415.63,-169.5 449.66,-169.5 474.39,-169.5"/>
<polygon fill="#63b8ff" stroke="#63b8ff" points="385.53,-166 375.53,-169.5 385.53,-173 385.53,-166"/>
</a>
</g>
</g>
<!-- Node10 -->
<g id="Node000010" class="node">
<title>Node10</title>
<g id="a_Node000010"><a xlink:href="class_kit_1_1_io_1_1_serial_1_1_s_t_1_1_m32_f4_1_1_input_output.html" target="_top" xlink:title="This concrete class implements the InputOutput stream interface built on top of ST HAL Layer/SDK.">
<polygon fill="white" stroke="#666666" points="569.5,-141.5 450.5,-141.5 450.5,-111.5 569.5,-111.5 569.5,-141.5"/>
<text text-anchor="start" x="458.5" y="-129.5" font-family="Helvetica,sans-Serif" font-size="10.00">Kit::Io::Serial::ST</text>
<text text-anchor="middle" x="510" y="-118.5" font-family="Helvetica,sans-Serif" font-size="10.00">::M32F4::InputOutput</text>
</a>
</g>
</g>
<!-- Node8&#45;&gt;Node10 -->
<g id="edge9_Node000008_Node000010" class="edge">
<title>Node8&#45;&gt;Node10</title>
<g id="a_edge9_Node000008_Node000010"><a xlink:title=" ">
<path fill="none" stroke="#63b8ff" d="M372.39,-157.66C396.6,-152.14 425.51,-145.55 450.48,-139.85"/>
<polygon fill="#63b8ff" stroke="#63b8ff" points="371.31,-154.32 362.33,-159.96 372.86,-161.15 371.31,-154.32"/>
</a>
</g>
</g>
<!-- Node11 -->
<g id="Node000011" class="node">
<title>Node11</title>
<g id="a_Node000011"><a xlink:href="class_kit_1_1_io_1_1_socket_1_1_i_input_output.html" target="_top" xlink:title="This abstract class defines the interface for a BSD socket.">
<polygon fill="white" stroke="#666666" points="585,-216 435,-216 435,-197 585,-197 585,-216"/>
<text text-anchor="middle" x="510" y="-204" font-family="Helvetica,sans-Serif" font-size="10.00">Kit::Io::Socket::IInputOutput</text>
</a>
</g>
</g>
<!-- Node8&#45;&gt;Node11 -->
<g id="edge10_Node000008_Node000011" class="edge">
<title>Node8&#45;&gt;Node11</title>
<g id="a_edge10_Node000008_Node000011"><a xlink:title=" ">
<path fill="none" stroke="#63b8ff" d="M379.17,-181.02C405.22,-186.13 435.52,-192.08 460.29,-196.94"/>
<polygon fill="#63b8ff" stroke="#63b8ff" points="379.53,-177.52 369.04,-179.03 378.18,-184.39 379.53,-177.52"/>
</a>
</g>
</g>
<!-- Node12 -->
<g id="Node000012" class="node">
<title>Node12</title>
<g id="a_Node000012"><a xlink:href="class_kit_1_1_io_1_1_socket_1_1_input_output.html" target="_top" xlink:title="This concrete class provides a platform independent &#39;standard&#39; implementation of an InputOutput strea...">
<polygon fill="white" stroke="#666666" points="768,-216 621,-216 621,-197 768,-197 768,-216"/>
<text text-anchor="middle" x="694.5" y="-204" font-family="Helvetica,sans-Serif" font-size="10.00">Kit::Io::Socket::InputOutput</text>
</a>
</g>
</g>
<!-- Node11&#45;&gt;Node12 -->
<g id="edge11_Node000011_Node000012" class="edge">
<title>Node11&#45;&gt;Node12</title>
<g id="a_edge11_Node000011_Node000012"><a xlink:title=" ">
<path fill="none" stroke="#63b8ff" d="M595.49,-206.5C603.95,-206.5 612.49,-206.5 620.81,-206.5"/>
<polygon fill="#63b8ff" stroke="#63b8ff" points="595.23,-203 585.23,-206.5 595.23,-210 595.23,-203"/>
</a>
</g>
</g>
<!-- Node14 -->
<g id="Node000014" class="node">
<title>Node14</title>
<g id="a_Node000014"><a xlink:href="class_kit_1_1_io_1_1_stdio_1_1_std_in.html" target="_top" xlink:title="This concrete class represents the C&#45;library &#39;stdin&#39; stream.">
<polygon fill="white" stroke="#666666" points="563.5,-327 456.5,-327 456.5,-308 563.5,-308 563.5,-327"/>
<text text-anchor="middle" x="510" y="-315" font-family="Helvetica,sans-Serif" font-size="10.00">Kit::Io::Stdio::StdIn</text>
</a>
</g>
</g>
<!-- Node13&#45;&gt;Node14 -->
<g id="edge13_Node000013_Node000014" class="edge">
<title>Node13&#45;&gt;Node14</title>
<g id="a_edge13_Node000013_Node000014"><a xlink:title=" ">
<path fill="none" stroke="#63b8ff" d="M405.17,-307.03C422.55,-308.79 440.37,-310.58 456.24,-312.18"/>
<polygon fill="#63b8ff" stroke="#63b8ff" points="405.3,-303.53 395,-306.01 404.6,-310.49 405.3,-303.53"/>
</a>
</g>
</g>
<!-- Node15&#45;&gt;Node8 -->
<g id="edge18_Node000015_Node000008" class="edge">
<title>Node15&#45;&gt;Node8</title>
<g id="a_edge18_Node000015_Node000008"><a xlink:title=" ">
<path fill="none" stroke="#63b8ff" d="M202,-133.14C228.82,-141.51 263.42,-152.31 287.93,-159.96"/>
<polygon fill="#63b8ff" stroke="#63b8ff" points="202.73,-129.7 192.14,-130.06 200.65,-136.38 202.73,-129.7"/>
</a>
</g>
</g>
<!-- Node16 -->
<g id="Node000016" class="node">
<title>Node16</title>
<g id="a_Node000016"><a xlink:href="class_kit_1_1_io_1_1_file_1_1_i_output.html" target="_top" xlink:title="This abstract class defines the interface for a Random Access Input File.">
<polygon fill="white" stroke="#666666" points="374.5,-130 264.5,-130 264.5,-111 374.5,-111 374.5,-130"/>
<text text-anchor="middle" x="319.5" y="-118" font-family="Helvetica,sans-Serif" font-size="10.00">Kit::Io::File::IOutput</text>
</a>
</g>
</g>
<!-- Node15&#45;&gt;Node16 -->
<g id="edge15_Node000015_Node000016" class="edge">
<title>Node15&#45;&gt;Node16</title>
<g id="a_edge15_Node000015_Node000016"><a xlink:title=" ">
<path fill="none" stroke="#63b8ff" d="M214.68,-120.5C230.71,-120.5 248.32,-120.5 264.41,-120.5"/>
<polygon fill="#63b8ff" stroke="#63b8ff" points="214.4,-117 204.4,-120.5 214.4,-124 214.4,-117"/>
</a>
</g>
</g>
<!-- Node18 -->
<g id="Node000018" class="node">
<title>Node18</title>
<g id="a_Node000018"><a xlink:href="class_kit_1_1_io_1_1_stdio_1_1_output_delegate.html" target="_top" xlink:title="This concrete class implements a Output stream using the underlying platform&#39;s native OS interface&#39; s...">
<polygon fill="white" stroke="#666666" points="399,-81 240,-81 240,-62 399,-62 399,-81"/>
<text text-anchor="middle" x="319.5" y="-69" font-family="Helvetica,sans-Serif" font-size="10.00">Kit::Io::Stdio::OutputDelegate</text>
</a>
</g>
</g>
<!-- Node15&#45;&gt;Node18 -->
<g id="edge19_Node000015_Node000018" class="edge">
<title>Node15&#45;&gt;Node18</title>
<g id="a_edge19_Node000015_Node000018"><a xlink:title=" ">
<path fill="none" stroke="#63b8ff" d="M202,-107.86C228.82,-99.49 263.42,-88.69 287.93,-81.04"/>
<polygon fill="#63b8ff" stroke="#63b8ff" points="200.65,-104.62 192.14,-110.94 202.73,-111.3 200.65,-104.62"/>
</a>
</g>
</g>
<!-- Node21 -->
<g id="Node000021" class="node">
<title>Node21</title>
<g id="a_Node000021"><a xlink:href="class_kit_1_1_io_1_1_tee_output.html" target="_top" xlink:title="This concrete class implements a IOutput stream that outputs the data to multiple (up to 4) output st...">
<polygon fill="white" stroke="#666666" points="370,-44 269,-44 269,-25 370,-25 370,-44"/>
<text text-anchor="middle" x="319.5" y="-32" font-family="Helvetica,sans-Serif" font-size="10.00">Kit::Io::TeeOutput</text>
</a>
</g>
</g>
<!-- Node15&#45;&gt;Node21 -->
<g id="edge22_Node000015_Node000021" class="edge">
<title>Node15&#45;&gt;Node21</title>
<g id="a_edge22_Node000015_Node000021"><a xlink:title=" ">
<path fill="none" stroke="#63b8ff" d="M176.4,-103.51C191.05,-87.89 214.81,-65.29 240,-52.5 248.85,-48.01 258.83,-44.62 268.63,-42.08"/>
<polygon fill="#63b8ff" stroke="#63b8ff" points="173.77,-101.2 169.61,-110.95 178.94,-105.92 173.77,-101.2"/>
</a>
</g>
</g>
<!-- Node16&#45;&gt;Node4 -->
<g id="edge16_Node000016_Node000004" class="edge">
<title>Node16&#45;&gt;Node4</title>
<g id="a_edge16_Node000016_Node000004"><a xlink:title=" ">
<path fill="none" stroke="#63b8ff" d="M370.32,-133.74C380.65,-138.16 390.85,-143.95 399,-151.5 425.83,-176.35 406.52,-202.55 435,-225.5 439.22,-228.9 443.99,-231.68 449.02,-233.93"/>
<polygon fill="#63b8ff" stroke="#63b8ff" points="371.44,-130.42 360.85,-130.06 368.9,-136.94 371.44,-130.42"/>
</a>
</g>
</g>
<!-- Node17 -->
<g id="Node000017" class="node">
<title>Node17</title>
<g id="a_Node000017"><a xlink:href="class_kit_1_1_io_1_1_file_1_1_output.html" target="_top" xlink:title="This concrete class provides a platform independent implementation of a Kit::Io::File::Output object.">
<polygon fill="white" stroke="#666666" points="563.5,-93 456.5,-93 456.5,-74 563.5,-74 563.5,-93"/>
<text text-anchor="middle" x="510" y="-81" font-family="Helvetica,sans-Serif" font-size="10.00">Kit::Io::File::Output</text>
</a>
</g>
</g>
<!-- Node16&#45;&gt;Node17 -->
<g id="edge17_Node000016_Node000017" class="edge">
<title>Node16&#45;&gt;Node17</title>
<g id="a_edge17_Node000016_Node000017"><a xlink:title=" ">
<path fill="none" stroke="#63b8ff" d="M379.17,-108.98C405.22,-103.87 435.52,-97.92 460.29,-93.06"/>
<polygon fill="#63b8ff" stroke="#63b8ff" points="378.18,-105.61 369.04,-110.97 379.53,-112.48 378.18,-105.61"/>
</a>
</g>
</g>
<!-- Node19 -->
<g id="Node000019" class="node">
<title>Node19</title>
<g id="a_Node000019"><a xlink:href="class_kit_1_1_io_1_1_stdio_1_1_std_err.html" target="_top" xlink:title="This concrete class represents the C&#45;library &#39;stderr&#39; stream.">
<polygon fill="white" stroke="#666666" points="565.5,-56 454.5,-56 454.5,-37 565.5,-37 565.5,-56"/>
<text text-anchor="middle" x="510" y="-44" font-family="Helvetica,sans-Serif" font-size="10.00">Kit::Io::Stdio::StdErr</text>
</a>
</g>
</g>
<!-- Node18&#45;&gt;Node19 -->
<g id="edge20_Node000018_Node000019" class="edge">
<title>Node18&#45;&gt;Node19</title>
<g id="a_edge20_Node000018_Node000019"><a xlink:title=" ">
<path fill="none" stroke="#63b8ff" d="M402.54,-60.62C420.09,-58.29 438.2,-55.89 454.4,-53.74"/>
<polygon fill="#63b8ff" stroke="#63b8ff" points="401.75,-57.19 392.3,-61.98 402.67,-64.13 401.75,-57.19"/>
</a>
</g>
</g>
<!-- Node20 -->
<g id="Node000020" class="node">
<title>Node20</title>
<g id="a_Node000020"><a xlink:href="class_kit_1_1_io_1_1_stdio_1_1_std_out.html" target="_top" xlink:title="This concrete class represents the C&#45;library &#39;stdout&#39; stream.">
<polygon fill="white" stroke="#666666" points="567.5,-19 452.5,-19 452.5,0 567.5,0 567.5,-19"/>
<text text-anchor="middle" x="510" y="-7" font-family="Helvetica,sans-Serif" font-size="10.00">Kit::Io::Stdio::StdOut</text>
</a>
</g>
</g>
<!-- Node18&#45;&gt;Node20 -->
<g id="edge21_Node000018_Node000020" class="edge">
<title>Node18&#45;&gt;Node20</title>
<g id="a_edge21_Node000018_Node000020"><a xlink:title=" ">
<path fill="none" stroke="#63b8ff" d="M381.98,-58.96C387.83,-57.07 393.59,-54.93 399,-52.5 416.77,-44.52 417.24,-35.49 435,-27.5 442.48,-24.14 450.67,-21.35 458.8,-19.05"/>
<polygon fill="#63b8ff" stroke="#63b8ff" points="380.67,-55.7 372.09,-61.9 382.67,-62.41 380.67,-55.7"/>
</a>
</g>
</g>
</g>
</svg>
