<?xml version="1.0" encoding="UTF-8" standalone="no"?>
<!DOCTYPE svg PUBLIC "-//W3C//DTD SVG 1.1//EN"
 "http://www.w3.org/Graphics/SVG/1.1/DTD/svg11.dtd">
<!-- Generated by graphviz version 2.43.0 (0)
 -->
<!-- Title: Kit::Io::File::IOutput Pages: 1 -->
<svg width="332pt" height="247pt"
 viewBox="0.00 0.00 331.50 247.00" xmlns="http://www.w3.org/2000/svg" xmlns:xlink="http://www.w3.org/1999/xlink">
<g id="graph0" class="graph" transform="scale(1 1) rotate(0) translate(4 243)">
<title>Kit::Io::File::IOutput</title>
<!-- Node1 -->
<g id="Node000001" class="node">
<title>Node1</title>
<g id="a_Node000001"><a xlink:title="This abstract class defines the interface for a Random Access Input File.">
<polygon fill="#999999" stroke="#666666" points="255,-129 145,-129 145,-110 255,-110 255,-129"/>
<text text-anchor="middle" x="200" y="-117" font-family="Helvetica,sans-Serif" font-size="10.00">Kit::Io::File::IOutput</text>
</a>
</g>
</g>
<!-- Node6 -->
<g id="Node000006" class="node">
<title>Node6</title>
<g id="a_Node000006"><a xlink:href="class_kit_1_1_io_1_1_file_1_1_i_input_output.html" target="_top" xlink:title="This abstract class defines the interface for a Random Access Input Output File.">
<polygon fill="white" stroke="#666666" points="198.5,-74 63.5,-74 63.5,-55 198.5,-55 198.5,-74"/>
<text text-anchor="middle" x="131" y="-62" font-family="Helvetica,sans-Serif" font-size="10.00">Kit::Io::File::IInputOutput</text>
</a>
</g>
</g>
<!-- Node1&#45;&gt;Node6 -->
<g id="edge5_Node000001_Node000006" class="edge">
<title>Node1&#45;&gt;Node6</title>
<g id="a_edge5_Node000001_Node000006"><a xlink:title=" ">
<path fill="none" stroke="#63b8ff" d="M180.96,-103.88C168.54,-94.34 152.76,-82.21 142.29,-74.17"/>
<polygon fill="#63b8ff" stroke="#63b8ff" points="178.85,-106.67 188.91,-109.98 183.12,-101.12 178.85,-106.67"/>
</a>
</g>
</g>
<!-- Node9 -->
<g id="Node000009" class="node">
<title>Node9</title>
<g id="a_Node000009"><a xlink:href="class_kit_1_1_io_1_1_file_1_1_output.html" target="_top" xlink:title="This concrete class provides a platform independent implementation of a Kit::Io::File::Output object.">
<polygon fill="white" stroke="#666666" points="323.5,-74 216.5,-74 216.5,-55 323.5,-55 323.5,-74"/>
<text text-anchor="middle" x="270" y="-62" font-family="Helvetica,sans-Serif" font-size="10.00">Kit::Io::File::Output</text>
</a>
</g>
</g>
<!-- Node1&#45;&gt;Node9 -->
<g id="edge8_Node000001_Node000009" class="edge">
<title>Node1&#45;&gt;Node9</title>
<g id="a_edge8_Node000001_Node000009"><a xlink:title=" ">
<path fill="none" stroke="#63b8ff" d="M219.31,-103.88C231.91,-94.34 247.93,-82.21 258.55,-74.17"/>
<polygon fill="#63b8ff" stroke="#63b8ff" points="217.11,-101.16 211.25,-109.98 221.33,-106.74 217.11,-101.16"/>
</a>
</g>
</g>
<!-- Node2 -->
<g id="Node000002" class="node">
<title>Node2</title>
<g id="a_Node000002"><a xlink:href="class_kit_1_1_io_1_1_i_output.html" target="_top" xlink:title="This partially abstract class defines a interface for operating on an output stream (example of a str...">
<polygon fill="white" stroke="#666666" points="183.5,-184 96.5,-184 96.5,-165 183.5,-165 183.5,-184"/>
<text text-anchor="middle" x="140" y="-172" font-family="Helvetica,sans-Serif" font-size="10.00">Kit::Io::IOutput</text>
</a>
</g>
</g>
<!-- Node2&#45;&gt;Node1 -->
<g id="edge1_Node000001_Node000002" class="edge">
<title>Node2&#45;&gt;Node1</title>
<g id="a_edge1_Node000001_Node000002"><a xlink:title=" ">
<path fill="none" stroke="#63b8ff" d="M157.18,-158.32C167.88,-148.87 181.26,-137.06 190.18,-129.17"/>
<polygon fill="#63b8ff" stroke="#63b8ff" points="154.82,-155.74 149.64,-164.98 159.45,-160.99 154.82,-155.74"/>
</a>
</g>
</g>
<!-- Node3 -->
<g id="Node000003" class="node">
<title>Node3</title>
<g id="a_Node000003"><a xlink:href="class_kit_1_1_io_1_1_i_close.html" target="_top" xlink:title="This abstract class defines a close operation that is intended to be used Input and Output streams/fi...">
<polygon fill="white" stroke="#666666" points="133.5,-239 52.5,-239 52.5,-220 133.5,-220 133.5,-239"/>
<text text-anchor="middle" x="93" y="-227" font-family="Helvetica,sans-Serif" font-size="10.00">Kit::Io::IClose</text>
</a>
</g>
</g>
<!-- Node3&#45;&gt;Node2 -->
<g id="edge2_Node000002_Node000003" class="edge">
<title>Node3&#45;&gt;Node2</title>
<g id="a_edge2_Node000002_Node000003"><a xlink:title=" ">
<path fill="none" stroke="#63b8ff" d="M107.42,-212.24C115.66,-202.95 125.65,-191.68 132.38,-184.09"/>
<polygon fill="#63b8ff" stroke="#63b8ff" points="104.78,-209.94 100.76,-219.75 110.01,-214.59 104.78,-209.94"/>
</a>
</g>
</g>
<!-- Node4 -->
<g id="Node000004" class="node">
<title>Node4</title>
<g id="a_Node000004"><a xlink:href="class_kit_1_1_io_1_1_i_eos.html" target="_top" xlink:title="This abstract class defines a isEos() operation that is intended to be used Input and Output streams.">
<polygon fill="white" stroke="#666666" points="222.5,-239 151.5,-239 151.5,-220 222.5,-220 222.5,-239"/>
<text text-anchor="middle" x="187" y="-227" font-family="Helvetica,sans-Serif" font-size="10.00">Kit::Io::IEos</text>
</a>
</g>
</g>
<!-- Node4&#45;&gt;Node2 -->
<g id="edge3_Node000002_Node000004" class="edge">
<title>Node4&#45;&gt;Node2</title>
<g id="a_edge3_Node000002_Node000004"><a xlink:title=" ">
<path fill="none" stroke="#63b8ff" d="M172.58,-212.24C164.34,-202.95 154.35,-191.68 147.62,-184.09"/>
<polygon fill="#63b8ff" stroke="#63b8ff" points="169.99,-214.59 179.24,-219.75 175.22,-209.94 169.99,-214.59"/>
</a>
</g>
</g>
<!-- Node5 -->
<g id="Node000005" class="node">
<title>Node5</title>
<g id="a_Node000005"><a xlink:href="class_kit_1_1_io_1_1_file_1_1_i_position.html" target="_top" xlink:title="This abstract class defines random&#45;access semantics for file&#45;like objects.">
<polygon fill="white" stroke="#666666" points="318,-184 202,-184 202,-165 318,-165 318,-184"/>
<text text-anchor="middle" x="260" y="-172" font-family="Helvetica,sans-Serif" font-size="10.00">Kit::Io::File::IPosition</text>
</a>
</g>
</g>
<!-- Node5&#45;&gt;Node1 -->
<g id="edge4_Node000001_Node000005" class="edge">
<title>Node5&#45;&gt;Node1</title>
<g id="a_edge4_Node000001_Node000005"><a xlink:title=" ">
<path fill="none" stroke="#63b8ff" d="M242.82,-158.32C232.12,-148.87 218.74,-137.06 209.82,-129.17"/>
<polygon fill="#63b8ff" stroke="#63b8ff" points="240.55,-160.99 250.36,-164.98 245.18,-155.74 240.55,-160.99"/>
</a>
</g>
</g>
<!-- Node7 -->
<g id="Node000007" class="node">
<title>Node7</title>
<g id="a_Node000007"><a xlink:href="class_kit_1_1_io_1_1_file_1_1_input_output.html" target="_top" xlink:title="This concrete class provides a platform independent implementation of an Kit::Io::File::IInputOutput ...">
<polygon fill="white" stroke="#666666" points="132,-19 0,-19 0,0 132,0 132,-19"/>
<text text-anchor="middle" x="66" y="-7" font-family="Helvetica,sans-Serif" font-size="10.00">Kit::Io::File::InputOutput</text>
</a>
</g>
</g>
<!-- Node6&#45;&gt;Node7 -->
<g id="edge6_Node000006_Node000007" class="edge">
<title>Node6&#45;&gt;Node7</title>
<g id="a_edge6_Node000006_Node000007"><a xlink:title=" ">
<path fill="none" stroke="#63b8ff" d="M112.73,-48.6C101.08,-39.11 86.4,-27.13 76.63,-19.17"/>
<polygon fill="#63b8ff" stroke="#63b8ff" points="110.59,-51.38 120.56,-54.98 115.02,-45.95 110.59,-51.38"/>
</a>
</g>
</g>
<!-- Node8 -->
<g id="Node000008" class="node">
<title>Node8</title>
<g id="a_Node000008"><a xlink:href="class_kit_1_1_io_1_1_file_1_1_null.html" target="_top" xlink:title="This concrete class implements a NULL IInputOutput File that all of its input operations return &#39;End&#45;...">
<polygon fill="white" stroke="#666666" points="244,-19 150,-19 150,0 244,0 244,-19"/>
<text text-anchor="middle" x="197" y="-7" font-family="Helvetica,sans-Serif" font-size="10.00">Kit::Io::File::Null</text>
</a>
</g>
</g>
<!-- Node6&#45;&gt;Node8 -->
<g id="edge7_Node000006_Node000008" class="edge">
<title>Node6&#45;&gt;Node8</title>
<g id="a_edge7_Node000006_Node000008"><a xlink:title=" ">
<path fill="none" stroke="#63b8ff" d="M149.55,-48.6C161.38,-39.11 176.29,-27.13 186.2,-19.17"/>
<polygon fill="#63b8ff" stroke="#63b8ff" points="147.21,-45.99 141.6,-54.98 151.59,-51.45 147.21,-45.99"/>
</a>
</g>
</g>
</g>
</svg>
