<?xml version="1.0" encoding="UTF-8" standalone="no"?>
<!DOCTYPE svg PUBLIC "-//W3C//DTD SVG 1.1//EN"
 "http://www.w3.org/Graphics/SVG/1.1/DTD/svg11.dtd">
<!-- Generated by graphviz version 2.43.0 (0)
 -->
<!-- Title: Kit::Dm::ModelDatabase Pages: 1 -->
<svg width="1598pt" height="113pt"
 viewBox="0.00 0.00 1598.00 113.00" xmlns="http://www.w3.org/2000/svg" xmlns:xlink="http://www.w3.org/1999/xlink">
<g id="graph0" class="graph" transform="scale(1 1) rotate(0) translate(4 109)">
<title>Kit::Dm::ModelDatabase</title>
<!-- Node1 -->
<g id="Node000001" class="node">
<title>Node1</title>
<g id="a_Node000001"><a xlink:title="This concrete class implements a simple Model Database.">
<polygon fill="#999999" stroke="#666666" points="1590,-62 1454,-62 1454,-43 1590,-43 1590,-62"/>
<text text-anchor="middle" x="1522" y="-50" font-family="Helvetica,sans-Serif" font-size="10.00">Kit::Dm::ModelDatabase</text>
</a>
</g>
</g>
<!-- Node2 -->
<g id="Node000002" class="node">
<title>Node2</title>
<g id="a_Node000002"><a xlink:href="class_kit_1_1_dm_1_1_i_model_database.html" target="_top" xlink:title="This class defines the basic operations that can be performed on a Model Base.">
<polygon fill="white" stroke="#666666" points="1375.5,-105 1236.5,-105 1236.5,-86 1375.5,-86 1375.5,-105"/>
<text text-anchor="middle" x="1306" y="-93" font-family="Helvetica,sans-Serif" font-size="10.00">Kit::Dm::IModelDatabase</text>
</a>
</g>
</g>
<!-- Node2&#45;&gt;Node1 -->
<g id="edge1_Node000001_Node000002" class="edge">
<title>Node2&#45;&gt;Node1</title>
<g id="a_edge1_Node000001_Node000002"><a xlink:title=" ">
<path fill="none" stroke="#63b8ff" d="M1364.34,-83.98C1398.52,-77.11 1441.39,-68.5 1473.64,-62.02"/>
<polygon fill="#63b8ff" stroke="#63b8ff" points="1363.61,-80.56 1354.49,-85.96 1364.99,-87.42 1363.61,-80.56"/>
</a>
</g>
</g>
<!-- Node3 -->
<g id="Node000003" class="node">
<title>Node3</title>
<g id="a_Node000003"><a xlink:href="class_kit_1_1_container_1_1_ordered_list.html" target="_top" xlink:title=" ">
<polygon fill="white" stroke="#666666" points="1379,-67.5 1233,-67.5 1233,-37.5 1379,-37.5 1379,-67.5"/>
<text text-anchor="start" x="1241" y="-55.5" font-family="Helvetica,sans-Serif" font-size="10.00">Kit::Container::OrderedList</text>
<text text-anchor="middle" x="1306" y="-44.5" font-family="Helvetica,sans-Serif" font-size="10.00">&lt; Kit::Dm::IModelPoint &gt;</text>
</a>
</g>
</g>
<!-- Node3&#45;&gt;Node1 -->
<g id="edge2_Node000001_Node000003" class="edge">
<title>Node3&#45;&gt;Node1</title>
<g id="a_edge2_Node000001_Node000003"><a xlink:title=" ">
<path fill="none" stroke="#9a32cd" stroke-dasharray="5,2" d="M1389.19,-52.5C1410.57,-52.5 1433.35,-52.5 1453.85,-52.5"/>
<polygon fill="#9a32cd" stroke="#9a32cd" points="1389.15,-49 1379.15,-52.5 1389.15,-56 1389.15,-49"/>
</a>
</g>
<text text-anchor="middle" x="1416.5" y="-55.5" font-family="Helvetica,sans-Serif" font-size="10.00" fill="grey"> m_list</text>
</g>
<!-- Node4 -->
<g id="Node000004" class="node">
<title>Node4</title>
<g id="a_Node000004"><a xlink:href="class_kit_1_1_container_1_1_ordered_list_base.html" target="_top" xlink:title="This protected base class implements a NON&#45;TYPE&#45;SAFE an ordered doubly linked list.">
<polygon fill="white" stroke="#666666" points="887,-57 717,-57 717,-38 887,-38 887,-57"/>
<text text-anchor="middle" x="802" y="-45" font-family="Helvetica,sans-Serif" font-size="10.00">Kit::Container::OrderedListBase</text>
</a>
</g>
</g>
<!-- Node4&#45;&gt;Node3 -->
<g id="edge3_Node000003_Node000004" class="edge">
<title>Node4&#45;&gt;Node3</title>
<g id="a_edge3_Node000003_Node000004"><a xlink:title=" ">
<path fill="none" stroke="#63b8ff" d="M897.26,-51.26C980.77,-54.14 1105.99,-57.32 1215,-55.5 1220.78,-55.4 1226.78,-55.27 1232.79,-55.12"/>
<polygon fill="#63b8ff" stroke="#63b8ff" points="897.15,-47.76 887.03,-50.91 896.91,-54.75 897.15,-47.76"/>
</a>
</g>
</g>
<!-- Node9 -->
<g id="Node000009" class="node">
<title>Node9</title>
<g id="a_Node000009"><a xlink:href="class_kit_1_1_container_1_1_ordered_list.html" target="_top" xlink:title="This template class implements a double linked list which maintains the ordering imposed on it by the...">
<polygon fill="white" stroke="#666666" points="1070,-41.5 924,-41.5 924,-11.5 1070,-11.5 1070,-41.5"/>
<text text-anchor="start" x="932" y="-29.5" font-family="Helvetica,sans-Serif" font-size="10.00">Kit::Container::OrderedList</text>
<text text-anchor="middle" x="997" y="-18.5" font-family="Helvetica,sans-Serif" font-size="10.00">&lt; KEYED_ITEM &gt;</text>
</a>
</g>
</g>
<!-- Node4&#45;&gt;Node9 -->
<g id="edge11_Node000009_Node000004" class="edge">
<title>Node4&#45;&gt;Node9</title>
<g id="a_edge11_Node000009_Node000004"><a xlink:title=" ">
<path fill="none" stroke="#63b8ff" d="M897.22,-37.25C906.21,-36.27 915.23,-35.29 923.97,-34.34"/>
<polygon fill="#63b8ff" stroke="#63b8ff" points="896.65,-33.79 887.09,-38.35 897.41,-40.75 896.65,-33.79"/>
</a>
</g>
</g>
<!-- Node5 -->
<g id="Node000005" class="node">
<title>Node5</title>
<g id="a_Node000005"><a xlink:href="class_kit_1_1_container_1_1_d_list_base.html" target="_top" xlink:title="This protected base class implements a NON&#45;TYPE&#45;SAFE a doubly linked list which maintains the orderin...">
<polygon fill="white" stroke="#666666" points="680,-57 542,-57 542,-38 680,-38 680,-57"/>
<text text-anchor="middle" x="611" y="-45" font-family="Helvetica,sans-Serif" font-size="10.00">Kit::Container::DListBase</text>
</a>
</g>
</g>
<!-- Node5&#45;&gt;Node4 -->
<g id="edge4_Node000004_Node000005" class="edge">
<title>Node5&#45;&gt;Node4</title>
<g id="a_edge4_Node000004_Node000005"><a xlink:title=" ">
<path fill="none" stroke="#63b8ff" d="M690.35,-47.5C699.06,-47.5 707.95,-47.5 716.73,-47.5"/>
<polygon fill="#63b8ff" stroke="#63b8ff" points="690.23,-44 680.23,-47.5 690.23,-51 690.23,-44"/>
</a>
</g>
</g>
<!-- Node6 -->
<g id="Node000006" class="node">
<title>Node6</title>
<g id="a_Node000006"><a xlink:href="class_kit_1_1_container_1_1_extended_list_item.html" target="_top" xlink:title="This class is used by the Container classes to implement a various types of DOUBLY linked containers.">
<polygon fill="white" stroke="#666666" points="450,-62.5 315,-62.5 315,-32.5 450,-32.5 450,-62.5"/>
<text text-anchor="start" x="323" y="-50.5" font-family="Helvetica,sans-Serif" font-size="10.00">Kit::Container::Extended</text>
<text text-anchor="middle" x="382.5" y="-39.5" font-family="Helvetica,sans-Serif" font-size="10.00">ListItem</text>
</a>
</g>
</g>
<!-- Node6&#45;&gt;Node5 -->
<g id="edge5_Node000005_Node000006" class="edge">
<title>Node6&#45;&gt;Node5</title>
<g id="a_edge5_Node000005_Node000006"><a xlink:title=" ">
<path fill="none" stroke="#9a32cd" stroke-dasharray="5,2" d="M460.56,-47.5C486.91,-47.5 516.18,-47.5 541.78,-47.5"/>
<polygon fill="#9a32cd" stroke="#9a32cd" points="460.23,-44 450.23,-47.5 460.23,-51 460.23,-44"/>
</a>
</g>
<text text-anchor="middle" x="496" y="-61.5" font-family="Helvetica,sans-Serif" font-size="10.00" fill="grey"> m_headPtr</text>
<text text-anchor="middle" x="496" y="-50.5" font-family="Helvetica,sans-Serif" font-size="10.00" fill="grey">m_tailPtr</text>
</g>
<!-- Node6&#45;&gt;Node6 -->
<g id="edge9_Node000006_Node000006" class="edge">
<title>Node6&#45;&gt;Node6</title>
<g id="a_edge9_Node000006_Node000006"><a xlink:title=" ">
<path fill="none" stroke="#9a32cd" stroke-dasharray="5,2" d="M367.45,-73.1C369.5,-77.47 374.52,-80.5 382.5,-80.5 395.94,-80.5 400.98,-71.91 397.62,-62.78"/>
<polygon fill="#9a32cd" stroke="#9a32cd" points="370.94,-72.75 367.38,-62.78 363.94,-72.8 370.94,-72.75"/>
</a>
</g>
<text text-anchor="middle" x="382.5" y="-83.5" font-family="Helvetica,sans-Serif" font-size="10.00" fill="grey"> m_prevPtr_</text>
</g>
<!-- Node7 -->
<g id="Node000007" class="node">
<title>Node7</title>
<g id="a_Node000007"><a xlink:href="class_kit_1_1_container_1_1_list_item.html" target="_top" xlink:title="This class is used by the Container classes to implement a various types of linked lists containers.">
<polygon fill="white" stroke="#666666" points="278,-57 149,-57 149,-38 278,-38 278,-57"/>
<text text-anchor="middle" x="213.5" y="-45" font-family="Helvetica,sans-Serif" font-size="10.00">Kit::Container::ListItem</text>
</a>
</g>
</g>
<!-- Node7&#45;&gt;Node6 -->
<g id="edge6_Node000006_Node000007" class="edge">
<title>Node7&#45;&gt;Node6</title>
<g id="a_edge6_Node000006_Node000007"><a xlink:title=" ">
<path fill="none" stroke="#63b8ff" d="M288.34,-47.5C297.12,-47.5 306.05,-47.5 314.73,-47.5"/>
<polygon fill="#63b8ff" stroke="#63b8ff" points="288.11,-44 278.11,-47.5 288.11,-51 288.11,-44"/>
</a>
</g>
</g>
<!-- Node7&#45;&gt;Node7 -->
<g id="edge8_Node000007_Node000007" class="edge">
<title>Node7&#45;&gt;Node7</title>
<g id="a_edge8_Node000007_Node000007"><a xlink:title=" ">
<path fill="none" stroke="#9a32cd" stroke-dasharray="5,2" d="M198.4,-66.91C199.59,-71.56 204.62,-75 213.5,-75 228.07,-75 232.29,-65.73 226.14,-57.08"/>
<polygon fill="#9a32cd" stroke="#9a32cd" points="201.83,-67.63 200.86,-57.08 195.04,-65.93 201.83,-67.63"/>
</a>
</g>
<text text-anchor="middle" x="213.5" y="-78" font-family="Helvetica,sans-Serif" font-size="10.00" fill="grey"> m_nextPtr_</text>
</g>
<!-- Node8 -->
<g id="Node000008" class="node">
<title>Node8</title>
<g id="a_Node000008"><a xlink:href="class_kit_1_1_container_1_1_item.html" target="_top" xlink:title="This class is used by the Intrusive Container classes to enforce the semantic and item/element can be...">
<polygon fill="white" stroke="#666666" points="112,-57 0,-57 0,-38 112,-38 112,-57"/>
<text text-anchor="middle" x="56" y="-45" font-family="Helvetica,sans-Serif" font-size="10.00">Kit::Container::Item</text>
</a>
</g>
</g>
<!-- Node8&#45;&gt;Node7 -->
<g id="edge7_Node000007_Node000008" class="edge">
<title>Node8&#45;&gt;Node7</title>
<g id="a_edge7_Node000007_Node000008"><a xlink:title=" ">
<path fill="none" stroke="#63b8ff" d="M122.43,-47.5C131.2,-47.5 140.19,-47.5 148.93,-47.5"/>
<polygon fill="#63b8ff" stroke="#63b8ff" points="122.26,-44 112.26,-47.5 122.26,-51 122.26,-44"/>
</a>
</g>
</g>
<!-- Node9&#45;&gt;Node3 -->
<g id="edge10_Node000003_Node000009" class="edge">
<title>Node9&#45;&gt;Node3</title>
<g id="a_edge10_Node000003_Node000009"><a xlink:title=" ">
<path fill="none" stroke="orange" stroke-dasharray="5,2" d="M1080.44,-33.22C1120.98,-36.56 1170.56,-40.68 1215,-44.5 1220.78,-45 1226.77,-45.52 1232.79,-46.04"/>
<polygon fill="orange" stroke="orange" points="1080.6,-29.72 1070.34,-32.39 1080.02,-36.7 1080.6,-29.72"/>
</a>
</g>
<text text-anchor="middle" x="1151.5" y="-47.5" font-family="Helvetica,sans-Serif" font-size="10.00" fill="grey"> &lt; Kit::Dm::IModelPoint &gt;</text>
</g>
<!-- Node10 -->
<g id="Node000010" class="node">
<title>Node10</title>
<g id="a_Node000010"><a xlink:href="class_kit_1_1_system_1_1_mutex.html" target="_top" xlink:title="This concrete mutex class defines the interface for a mutex that has &quot;recursive&quot; semantics.">
<polygon fill="white" stroke="#666666" points="1361,-19 1251,-19 1251,0 1361,0 1361,-19"/>
<text text-anchor="middle" x="1306" y="-7" font-family="Helvetica,sans-Serif" font-size="10.00">Kit::System::Mutex</text>
</a>
</g>
</g>
<!-- Node10&#45;&gt;Node1 -->
<g id="edge12_Node000001_Node000010" class="edge">
<title>Node10&#45;&gt;Node1</title>
<g id="a_edge12_Node000001_Node000010"><a xlink:title=" ">
<path fill="none" stroke="#9a32cd" stroke-dasharray="5,2" d="M1364.34,-21.02C1398.52,-27.89 1441.39,-36.5 1473.64,-42.98"/>
<polygon fill="#9a32cd" stroke="#9a32cd" points="1364.99,-17.58 1354.49,-19.04 1363.61,-24.44 1364.99,-17.58"/>
</a>
</g>
<text text-anchor="middle" x="1416.5" y="-37.5" font-family="Helvetica,sans-Serif" font-size="10.00" fill="grey"> m_lock</text>
</g>
</g>
</svg>
