<?xml version="1.0" encoding="UTF-8" standalone="no"?>
<!DOCTYPE svg PUBLIC "-//W3C//DTD SVG 1.1//EN"
 "http://www.w3.org/Graphics/SVG/1.1/DTD/svg11.dtd">
<!-- Generated by graphviz version 2.43.0 (0)
 -->
<!-- Title: Kit::Itc::OpenCloseSync Pages: 1 -->
<svg width="627pt" height="246pt"
 viewBox="0.00 0.00 627.00 246.00" xmlns="http://www.w3.org/2000/svg" xmlns:xlink="http://www.w3.org/1999/xlink">
<g id="graph0" class="graph" transform="scale(1 1) rotate(0) translate(4 242)">
<title>Kit::Itc::OpenCloseSync</title>
<!-- Node1 -->
<g id="Node000001" class="node">
<title>Node1</title>
<g id="a_Node000001"><a xlink:title="This partially concrete class extends the ITC OpenSync class and implements the synchronous ITC close...">
<polygon fill="#999999" stroke="#666666" points="448,-141.5 318,-141.5 318,-122.5 448,-122.5 448,-141.5"/>
<text text-anchor="middle" x="383" y="-129.5" font-family="Helvetica,sans-Serif" font-size="10.00">Kit::Itc::OpenCloseSync</text>
</a>
</g>
</g>
<!-- Node7 -->
<g id="Node000007" class="node">
<title>Node7</title>
<g id="a_Node000007"><a xlink:href="class_container_1_1_ring_buffer_1_1_led_server.html" target="_top" xlink:title="This concrete class monitors the a Queue of LED Flash codes and the consumes&#45;and&#45;executes the Flash c...">
<polygon fill="white" stroke="#666666" points="612,-238 491,-238 491,-208 612,-208 612,-238"/>
<text text-anchor="start" x="499" y="-226" font-family="Helvetica,sans-Serif" font-size="10.00">Container::RingBuffer</text>
<text text-anchor="middle" x="551.5" y="-215" font-family="Helvetica,sans-Serif" font-size="10.00">::LedServer</text>
</a>
</g>
</g>
<!-- Node1&#45;&gt;Node7 -->
<g id="edge6_Node000001_Node000007" class="edge">
<title>Node1&#45;&gt;Node7</title>
<g id="a_edge6_Node000001_Node000007"><a xlink:title=" ">
<path fill="none" stroke="#63b8ff" d="M404.5,-147.92C424.1,-162.6 454.89,-184.28 484,-199 490.35,-202.21 497.24,-205.2 504.09,-207.9"/>
<polygon fill="#63b8ff" stroke="#63b8ff" points="406.41,-144.98 396.33,-141.72 402.18,-150.55 406.41,-144.98"/>
</a>
</g>
</g>
<!-- Node8 -->
<g id="Node000008" class="node">
<title>Node8</title>
<g id="a_Node000008"><a xlink:href="class_container_1_1_ring_buffer_1_1_producer.html" target="_top" xlink:title="This concrete class is responsible for generating flash codes (i.e.">
<polygon fill="white" stroke="#666666" points="612,-190 491,-190 491,-160 612,-160 612,-190"/>
<text text-anchor="start" x="499" y="-178" font-family="Helvetica,sans-Serif" font-size="10.00">Container::RingBuffer</text>
<text text-anchor="middle" x="551.5" y="-167" font-family="Helvetica,sans-Serif" font-size="10.00">::Producer</text>
</a>
</g>
</g>
<!-- Node1&#45;&gt;Node8 -->
<g id="edge7_Node000001_Node000008" class="edge">
<title>Node1&#45;&gt;Node8</title>
<g id="a_edge7_Node000001_Node000008"><a xlink:title=" ">
<path fill="none" stroke="#63b8ff" d="M430.65,-144.05C449.8,-148.99 472.19,-154.78 492.39,-159.99"/>
<polygon fill="#63b8ff" stroke="#63b8ff" points="431.51,-140.65 420.95,-141.54 429.76,-147.43 431.51,-140.65"/>
</a>
</g>
</g>
<!-- Node9 -->
<g id="Node000009" class="node">
<title>Node9</title>
<g id="a_Node000009"><a xlink:href="class_dm_1_1_transaction_1_1_client.html" target="_top" xlink:title="This concrete class is a &#39;client&#39; to request/trigger the &#39;server&#39; to generate a random number.">
<polygon fill="white" stroke="#666666" points="616.5,-141.5 486.5,-141.5 486.5,-122.5 616.5,-122.5 616.5,-141.5"/>
<text text-anchor="middle" x="551.5" y="-129.5" font-family="Helvetica,sans-Serif" font-size="10.00">Dm::Transaction::Client</text>
</a>
</g>
</g>
<!-- Node1&#45;&gt;Node9 -->
<g id="edge8_Node000001_Node000009" class="edge">
<title>Node1&#45;&gt;Node9</title>
<g id="a_edge8_Node000001_Node000009"><a xlink:title=" ">
<path fill="none" stroke="#63b8ff" d="M458.39,-125.28C467.7,-125.21 477.16,-125.25 486.3,-125.41"/>
<polygon fill="#63b8ff" stroke="#63b8ff" points="458.33,-121.78 448.37,-125.41 458.42,-128.78 458.33,-121.78"/>
</a>
</g>
</g>
<!-- Node1&#45;&gt;Node9 -->
<g id="edge9_Node000001_Node000009" class="edge">
<title>Node1&#45;&gt;Node9</title>
<g id="a_edge9_Node000001_Node000009"><a xlink:title=" ">
<path fill="none" stroke="#63b8ff" d="M458.39,-138.72C467.7,-138.79 477.16,-138.75 486.3,-138.59"/>
<polygon fill="#63b8ff" stroke="#63b8ff" points="458.42,-135.22 448.37,-138.59 458.33,-142.22 458.42,-135.22"/>
</a>
</g>
</g>
<!-- Node10 -->
<g id="Node000010" class="node">
<title>Node10</title>
<g id="a_Node000010"><a xlink:href="class_dm_1_1_transaction_1_1_server.html" target="_top" xlink:title="This concrete class is a &#39;server&#39; that responds to requests from a &#39;client&#39; to generate.">
<polygon fill="white" stroke="#666666" points="618,-104.5 485,-104.5 485,-85.5 618,-85.5 618,-104.5"/>
<text text-anchor="middle" x="551.5" y="-92.5" font-family="Helvetica,sans-Serif" font-size="10.00">Dm::Transaction::Server</text>
</a>
</g>
</g>
<!-- Node1&#45;&gt;Node10 -->
<g id="edge10_Node000001_Node000010" class="edge">
<title>Node1&#45;&gt;Node10</title>
<g id="a_edge10_Node000001_Node000010"><a xlink:title=" ">
<path fill="none" stroke="#63b8ff" d="M436.74,-120.28C459.54,-115.21 485.89,-109.36 507.48,-104.56"/>
<polygon fill="#63b8ff" stroke="#63b8ff" points="435.88,-116.89 426.88,-122.47 437.4,-123.72 435.88,-116.89"/>
</a>
</g>
</g>
<!-- Node11 -->
<g id="Node000011" class="node">
<title>Node11</title>
<g id="a_Node000011"><a xlink:href="class_itc_1_1_synchronous_1_1_server.html" target="_top" xlink:title="This concrete class is a &#39;server&#39; that flashes the LED.">
<polygon fill="white" stroke="#666666" points="618.5,-67.5 484.5,-67.5 484.5,-48.5 618.5,-48.5 618.5,-67.5"/>
<text text-anchor="middle" x="551.5" y="-55.5" font-family="Helvetica,sans-Serif" font-size="10.00">Itc::Synchronous::Server</text>
</a>
</g>
</g>
<!-- Node1&#45;&gt;Node11 -->
<g id="edge11_Node000001_Node000011" class="edge">
<title>Node1&#45;&gt;Node11</title>
<g id="a_edge11_Node000001_Node000011"><a xlink:title=" ">
<path fill="none" stroke="#63b8ff" d="M406.94,-117C426.7,-104.61 456.33,-87.29 484,-76 491.86,-72.79 500.48,-69.98 508.83,-67.59"/>
<polygon fill="#63b8ff" stroke="#63b8ff" points="404.9,-114.15 398.34,-122.47 408.66,-120.06 404.9,-114.15"/>
</a>
</g>
</g>
<!-- Node12 -->
<g id="Node000012" class="node">
<title>Node12</title>
<g id="a_Node000012"><a xlink:href="class_kit_1_1_logging_1_1_framework_1_1_log_sink.html" target="_top" xlink:title="This class is responsible for consuming the application&#39;s Log buffer and &#39;dispatching&#39; log entries.">
<polygon fill="white" stroke="#666666" points="619,-30 484,-30 484,0 619,0 619,-30"/>
<text text-anchor="start" x="492" y="-18" font-family="Helvetica,sans-Serif" font-size="10.00">Kit::Logging::Framework</text>
<text text-anchor="middle" x="551.5" y="-7" font-family="Helvetica,sans-Serif" font-size="10.00">::LogSink</text>
</a>
</g>
</g>
<!-- Node1&#45;&gt;Node12 -->
<g id="edge12_Node000001_Node000012" class="edge">
<title>Node1&#45;&gt;Node12</title>
<g id="a_edge12_Node000001_Node000012"><a xlink:title=" ">
<path fill="none" stroke="#63b8ff" d="M398.46,-114.86C416.59,-94.32 449.49,-60.05 484,-39 489.45,-35.68 495.43,-32.71 501.5,-30.1"/>
<polygon fill="#63b8ff" stroke="#63b8ff" points="395.75,-112.64 391.85,-122.49 401.04,-117.23 395.75,-112.64"/>
</a>
</g>
</g>
<!-- Node2 -->
<g id="Node000002" class="node">
<title>Node2</title>
<g id="a_Node000002"><a xlink:href="class_kit_1_1_itc_1_1_open_sync.html" target="_top" xlink:title="This partially concrete class implements the synchronous ITC open call for the OpenApi.">
<polygon fill="white" stroke="#666666" points="271.5,-178.5 168.5,-178.5 168.5,-159.5 271.5,-159.5 271.5,-178.5"/>
<text text-anchor="middle" x="220" y="-166.5" font-family="Helvetica,sans-Serif" font-size="10.00">Kit::Itc::OpenSync</text>
</a>
</g>
</g>
<!-- Node2&#45;&gt;Node1 -->
<g id="edge1_Node000001_Node000002" class="edge">
<title>Node2&#45;&gt;Node1</title>
<g id="a_edge1_Node000001_Node000002"><a xlink:title=" ">
<path fill="none" stroke="#63b8ff" d="M272.3,-157.21C294.27,-152.16 319.61,-146.34 340.4,-141.56"/>
<polygon fill="#63b8ff" stroke="#63b8ff" points="271.42,-153.82 262.46,-159.47 272.99,-160.64 271.42,-153.82"/>
</a>
</g>
</g>
<!-- Node3 -->
<g id="Node000003" class="node">
<title>Node3</title>
<g id="a_Node000003"><a xlink:href="class_kit_1_1_itc_1_1_i_open_request.html" target="_top" xlink:title="This abstract class define message types and payloads for a set of ITC services.">
<polygon fill="white" stroke="#666666" points="122,-196.5 0,-196.5 0,-177.5 122,-177.5 122,-196.5"/>
<text text-anchor="middle" x="61" y="-184.5" font-family="Helvetica,sans-Serif" font-size="10.00">Kit::Itc::IOpenRequest</text>
</a>
</g>
</g>
<!-- Node3&#45;&gt;Node2 -->
<g id="edge2_Node000002_Node000003" class="edge">
<title>Node3&#45;&gt;Node2</title>
<g id="a_edge2_Node000002_Node000003"><a xlink:title=" ">
<path fill="none" stroke="#63b8ff" d="M132.35,-178.93C144.48,-177.54 156.87,-176.12 168.35,-174.81"/>
<polygon fill="#63b8ff" stroke="#63b8ff" points="131.79,-175.48 122.25,-180.09 132.58,-182.43 131.79,-175.48"/>
</a>
</g>
</g>
<!-- Node4 -->
<g id="Node000004" class="node">
<title>Node4</title>
<g id="a_Node000004"><a xlink:href="class_kit_1_1_itc_1_1_i_open.html" target="_top" xlink:title="This abstract class defines an open interface.">
<polygon fill="white" stroke="#666666" points="102.5,-159.5 19.5,-159.5 19.5,-140.5 102.5,-140.5 102.5,-159.5"/>
<text text-anchor="middle" x="61" y="-147.5" font-family="Helvetica,sans-Serif" font-size="10.00">Kit::Itc::IOpen</text>
</a>
</g>
</g>
<!-- Node4&#45;&gt;Node2 -->
<g id="edge3_Node000002_Node000004" class="edge">
<title>Node4&#45;&gt;Node2</title>
<g id="a_edge3_Node000002_Node000004"><a xlink:title=" ">
<path fill="none" stroke="#63b8ff" d="M112.99,-156.17C130.7,-158.31 150.56,-160.72 168.25,-162.86"/>
<polygon fill="#63b8ff" stroke="#63b8ff" points="113.19,-152.67 102.84,-154.94 112.35,-159.62 113.19,-152.67"/>
</a>
</g>
</g>
<!-- Node5 -->
<g id="Node000005" class="node">
<title>Node5</title>
<g id="a_Node000005"><a xlink:href="class_kit_1_1_itc_1_1_i_close_request.html" target="_top" xlink:title="This abstract class defines message types and payloads for a set of ITC services.">
<polygon fill="white" stroke="#666666" points="282,-141.5 158,-141.5 158,-122.5 282,-122.5 282,-141.5"/>
<text text-anchor="middle" x="220" y="-129.5" font-family="Helvetica,sans-Serif" font-size="10.00">Kit::Itc::ICloseRequest</text>
</a>
</g>
</g>
<!-- Node5&#45;&gt;Node1 -->
<g id="edge4_Node000001_Node000005" class="edge">
<title>Node5&#45;&gt;Node1</title>
<g id="a_edge4_Node000001_Node000005"><a xlink:title=" ">
<path fill="none" stroke="#63b8ff" d="M292.54,-132C300.99,-132 309.57,-132 317.9,-132"/>
<polygon fill="#63b8ff" stroke="#63b8ff" points="292.33,-128.5 282.33,-132 292.33,-135.5 292.33,-128.5"/>
</a>
</g>
</g>
<!-- Node6 -->
<g id="Node000006" class="node">
<title>Node6</title>
<g id="a_Node000006"><a xlink:href="class_kit_1_1_itc_1_1_i_close.html" target="_top" xlink:title="This abstract class defines an close interface.">
<polygon fill="white" stroke="#666666" points="262,-104.5 178,-104.5 178,-85.5 262,-85.5 262,-104.5"/>
<text text-anchor="middle" x="220" y="-92.5" font-family="Helvetica,sans-Serif" font-size="10.00">Kit::Itc::IClose</text>
</a>
</g>
</g>
<!-- Node6&#45;&gt;Node1 -->
<g id="edge5_Node000001_Node000006" class="edge">
<title>Node6&#45;&gt;Node1</title>
<g id="a_edge5_Node000001_Node000006"><a xlink:title=" ">
<path fill="none" stroke="#63b8ff" d="M271.92,-106.7C294.01,-111.78 319.56,-117.65 340.47,-122.46"/>
<polygon fill="#63b8ff" stroke="#63b8ff" points="272.57,-103.26 262.04,-104.43 271.01,-110.08 272.57,-103.26"/>
</a>
</g>
</g>
</g>
</svg>
