<?xml version="1.0" encoding="UTF-8" standalone="no"?>
<!DOCTYPE svg PUBLIC "-//W3C//DTD SVG 1.1//EN"
 "http://www.w3.org/Graphics/SVG/1.1/DTD/svg11.dtd">
<!-- Generated by graphviz version 2.43.0 (0)
 -->
<!-- Title: Kit::Persistence::Record::Journal::HeadRecord Pages: 1 -->
<svg width="365pt" height="249pt"
 viewBox="0.00 0.00 365.00 249.00" xmlns="http://www.w3.org/2000/svg" xmlns:xlink="http://www.w3.org/1999/xlink">
<g id="graph0" class="graph" transform="scale(1 1) rotate(0) translate(4 245)">
<title>Kit::Persistence::Record::Journal::HeadRecord</title>
<!-- Node1 -->
<g id="Node000001" class="node">
<title>Node1</title>
<g id="a_Node000001"><a xlink:title="This concrete class is responsible for storing and retrieving the &quot;head pointer&quot; for the logical Ring...">
<polygon fill="#999999" stroke="#666666" points="319,-30 187,-30 187,0 319,0 319,-30"/>
<text text-anchor="start" x="195" y="-18" font-family="Helvetica,sans-Serif" font-size="10.00">Kit::Persistence::Record</text>
<text text-anchor="middle" x="253" y="-7" font-family="Helvetica,sans-Serif" font-size="10.00">::Journal::HeadRecord</text>
</a>
</g>
</g>
<!-- Node2 -->
<g id="Node000002" class="node">
<title>Node2</title>
<g id="a_Node000002"><a xlink:href="class_kit_1_1_persistence_1_1_record_1_1_journal_1_1_i_head.html" target="_top" xlink:title="This abstract class defines the interface to manage the newest entry in an IEntry record.">
<polygon fill="white" stroke="#666666" points="207,-107 75,-107 75,-77 207,-77 207,-107"/>
<text text-anchor="start" x="83" y="-95" font-family="Helvetica,sans-Serif" font-size="10.00">Kit::Persistence::Record</text>
<text text-anchor="middle" x="141" y="-84" font-family="Helvetica,sans-Serif" font-size="10.00">::Journal::IHead</text>
</a>
</g>
</g>
<!-- Node2&#45;&gt;Node1 -->
<g id="edge1_Node000001_Node000002" class="edge">
<title>Node2&#45;&gt;Node1</title>
<g id="a_edge1_Node000001_Node000002"><a xlink:title=" ">
<path fill="none" stroke="#63b8ff" d="M170.52,-71.23C189.87,-58.28 214.69,-41.65 232.03,-30.04"/>
<polygon fill="#63b8ff" stroke="#63b8ff" points="168.43,-68.42 162.07,-76.89 172.32,-74.24 168.43,-68.42"/>
</a>
</g>
</g>
<!-- Node3 -->
<g id="Node000003" class="node">
<title>Node3</title>
<g id="a_Node000003"><a xlink:href="class_kit_1_1_persistence_1_1_record_1_1_i_data_record.html" target="_top" xlink:title="This abstract extends the IRecord interface to include semantics for an unmanaged &#39;data store&#39;,...">
<polygon fill="white" stroke="#666666" points="207,-174 75,-174 75,-144 207,-144 207,-174"/>
<text text-anchor="start" x="83" y="-162" font-family="Helvetica,sans-Serif" font-size="10.00">Kit::Persistence::Record</text>
<text text-anchor="middle" x="141" y="-151" font-family="Helvetica,sans-Serif" font-size="10.00">::IDataRecord</text>
</a>
</g>
</g>
<!-- Node3&#45;&gt;Node2 -->
<g id="edge2_Node000002_Node000003" class="edge">
<title>Node3&#45;&gt;Node2</title>
<g id="a_edge2_Node000002_Node000003"><a xlink:title=" ">
<path fill="none" stroke="#63b8ff" d="M141,-133.61C141,-124.65 141,-114.82 141,-107.08"/>
<polygon fill="#63b8ff" stroke="#63b8ff" points="137.5,-133.9 141,-143.9 144.5,-133.9 137.5,-133.9"/>
</a>
</g>
</g>
<!-- Node4 -->
<g id="Node000004" class="node">
<title>Node4</title>
<g id="a_Node000004"><a xlink:href="class_kit_1_1_persistence_1_1_record_1_1_i_record.html" target="_top" xlink:title="This abstract class defines the public interface for a Record instance.">
<polygon fill="white" stroke="#666666" points="132,-241 0,-241 0,-211 132,-211 132,-241"/>
<text text-anchor="start" x="8" y="-229" font-family="Helvetica,sans-Serif" font-size="10.00">Kit::Persistence::Record</text>
<text text-anchor="middle" x="66" y="-218" font-family="Helvetica,sans-Serif" font-size="10.00">::IRecord</text>
</a>
</g>
</g>
<!-- Node4&#45;&gt;Node3 -->
<g id="edge3_Node000003_Node000004" class="edge">
<title>Node4&#45;&gt;Node3</title>
<g id="a_edge3_Node000003_Node000004"><a xlink:title=" ">
<path fill="none" stroke="#63b8ff" d="M90.12,-204.1C101.44,-194.28 114.64,-182.84 124.76,-174.08"/>
<polygon fill="#63b8ff" stroke="#63b8ff" points="87.54,-201.7 82.27,-210.9 92.12,-206.99 87.54,-201.7"/>
</a>
</g>
</g>
<!-- Node5 -->
<g id="Node000005" class="node">
<title>Node5</title>
<g id="a_Node000005"><a xlink:href="class_kit_1_1_persistence_1_1_record_1_1_i_payload.html" target="_top" xlink:title="This abstract class defines the interface accessing the data payload of an individual Record instance...">
<polygon fill="white" stroke="#666666" points="282,-241 150,-241 150,-211 282,-211 282,-241"/>
<text text-anchor="start" x="158" y="-229" font-family="Helvetica,sans-Serif" font-size="10.00">Kit::Persistence::Record</text>
<text text-anchor="middle" x="216" y="-218" font-family="Helvetica,sans-Serif" font-size="10.00">::IPayload</text>
</a>
</g>
</g>
<!-- Node5&#45;&gt;Node3 -->
<g id="edge4_Node000003_Node000005" class="edge">
<title>Node5&#45;&gt;Node3</title>
<g id="a_edge4_Node000003_Node000005"><a xlink:title=" ">
<path fill="none" stroke="#63b8ff" d="M191.88,-204.1C180.56,-194.28 167.36,-182.84 157.24,-174.08"/>
<polygon fill="#63b8ff" stroke="#63b8ff" points="189.88,-206.99 199.73,-210.9 194.46,-201.7 189.88,-206.99"/>
</a>
</g>
</g>
<!-- Node6 -->
<g id="Node000006" class="node">
<title>Node6</title>
<g id="a_Node000006"><a xlink:href="class_kit_1_1_persistence_1_1_record_1_1_i_chunk.html" target="_top" xlink:title="This abstract class defines the interface for managing a &#39;chunk&#39;.">
<polygon fill="white" stroke="#666666" points="357,-107 225,-107 225,-77 357,-77 357,-107"/>
<text text-anchor="start" x="233" y="-95" font-family="Helvetica,sans-Serif" font-size="10.00">Kit::Persistence::Record</text>
<text text-anchor="middle" x="291" y="-84" font-family="Helvetica,sans-Serif" font-size="10.00">::IChunk</text>
</a>
</g>
</g>
<!-- Node6&#45;&gt;Node1 -->
<g id="edge5_Node000001_Node000006" class="edge">
<title>Node6&#45;&gt;Node1</title>
<g id="a_edge5_Node000001_Node000006"><a xlink:title=" ">
<path fill="none" stroke="#9a32cd" stroke-dasharray="5,2" d="M279.17,-67.65C272.92,-55.32 265.47,-40.61 260.12,-30.04"/>
<polygon fill="#9a32cd" stroke="#9a32cd" points="276.21,-69.55 283.85,-76.89 282.45,-66.39 276.21,-69.55"/>
</a>
</g>
<text text-anchor="middle" x="298" y="-51" font-family="Helvetica,sans-Serif" font-size="10.00" fill="grey"> m_chunk</text>
</g>
</g>
</svg>
