<?xml version="1.0" encoding="UTF-8" standalone="no"?>
<!DOCTYPE svg PUBLIC "-//W3C//DTD SVG 1.1//EN"
 "http://www.w3.org/Graphics/SVG/1.1/DTD/svg11.dtd">
<!-- Generated by graphviz version 2.43.0 (0)
 -->
<!-- Title: Kit::Itc::IClose Pages: 1 -->
<svg width="429pt" height="246pt"
 viewBox="0.00 0.00 429.00 246.00" xmlns="http://www.w3.org/2000/svg" xmlns:xlink="http://www.w3.org/1999/xlink">
<g id="graph0" class="graph" transform="scale(1 1) rotate(0) translate(4 242)">
<title>Kit::Itc::IClose</title>
<!-- Node1 -->
<g id="Node000001" class="node">
<title>Node1</title>
<g id="a_Node000001"><a xlink:title="This abstract class defines an close interface.">
<polygon fill="#999999" stroke="#666666" points="84,-141.5 0,-141.5 0,-122.5 84,-122.5 84,-141.5"/>
<text text-anchor="middle" x="42" y="-129.5" font-family="Helvetica,sans-Serif" font-size="10.00">Kit::Itc::IClose</text>
</a>
</g>
</g>
<!-- Node2 -->
<g id="Node000002" class="node">
<title>Node2</title>
<g id="a_Node000002"><a xlink:href="class_kit_1_1_itc_1_1_open_close_sync.html" target="_top" xlink:title="This partially concrete class extends the ITC OpenSync class and implements the synchronous ITC close...">
<polygon fill="white" stroke="#666666" points="250,-141.5 120,-141.5 120,-122.5 250,-122.5 250,-141.5"/>
<text text-anchor="middle" x="185" y="-129.5" font-family="Helvetica,sans-Serif" font-size="10.00">Kit::Itc::OpenCloseSync</text>
</a>
</g>
</g>
<!-- Node1&#45;&gt;Node2 -->
<g id="edge1_Node000001_Node000002" class="edge">
<title>Node1&#45;&gt;Node2</title>
<g id="a_edge1_Node000001_Node000002"><a xlink:title=" ">
<path fill="none" stroke="#63b8ff" d="M94.43,-132C102.73,-132 111.41,-132 119.97,-132"/>
<polygon fill="#63b8ff" stroke="#63b8ff" points="94.16,-128.5 84.16,-132 94.16,-135.5 94.16,-128.5"/>
</a>
</g>
</g>
<!-- Node3 -->
<g id="Node000003" class="node">
<title>Node3</title>
<g id="a_Node000003"><a xlink:href="class_container_1_1_ring_buffer_1_1_led_server.html" target="_top" xlink:title="This concrete class monitors the a Queue of LED Flash codes and the consumes&#45;and&#45;executes the Flash c...">
<polygon fill="white" stroke="#666666" points="414,-238 293,-238 293,-208 414,-208 414,-238"/>
<text text-anchor="start" x="301" y="-226" font-family="Helvetica,sans-Serif" font-size="10.00">Container::RingBuffer</text>
<text text-anchor="middle" x="353.5" y="-215" font-family="Helvetica,sans-Serif" font-size="10.00">::LedServer</text>
</a>
</g>
</g>
<!-- Node2&#45;&gt;Node3 -->
<g id="edge2_Node000002_Node000003" class="edge">
<title>Node2&#45;&gt;Node3</title>
<g id="a_edge2_Node000002_Node000003"><a xlink:title=" ">
<path fill="none" stroke="#63b8ff" d="M206.5,-147.92C226.1,-162.6 256.89,-184.28 286,-199 292.35,-202.21 299.24,-205.2 306.09,-207.9"/>
<polygon fill="#63b8ff" stroke="#63b8ff" points="208.41,-144.98 198.33,-141.72 204.18,-150.55 208.41,-144.98"/>
</a>
</g>
</g>
<!-- Node4 -->
<g id="Node000004" class="node">
<title>Node4</title>
<g id="a_Node000004"><a xlink:href="class_container_1_1_ring_buffer_1_1_producer.html" target="_top" xlink:title="This concrete class is responsible for generating flash codes (i.e.">
<polygon fill="white" stroke="#666666" points="414,-190 293,-190 293,-160 414,-160 414,-190"/>
<text text-anchor="start" x="301" y="-178" font-family="Helvetica,sans-Serif" font-size="10.00">Container::RingBuffer</text>
<text text-anchor="middle" x="353.5" y="-167" font-family="Helvetica,sans-Serif" font-size="10.00">::Producer</text>
</a>
</g>
</g>
<!-- Node2&#45;&gt;Node4 -->
<g id="edge3_Node000002_Node000004" class="edge">
<title>Node2&#45;&gt;Node4</title>
<g id="a_edge3_Node000002_Node000004"><a xlink:title=" ">
<path fill="none" stroke="#63b8ff" d="M232.65,-144.05C251.8,-148.99 274.19,-154.78 294.39,-159.99"/>
<polygon fill="#63b8ff" stroke="#63b8ff" points="233.51,-140.65 222.95,-141.54 231.76,-147.43 233.51,-140.65"/>
</a>
</g>
</g>
<!-- Node5 -->
<g id="Node000005" class="node">
<title>Node5</title>
<g id="a_Node000005"><a xlink:href="class_dm_1_1_transaction_1_1_client.html" target="_top" xlink:title="This concrete class is a &#39;client&#39; to request/trigger the &#39;server&#39; to generate a random number.">
<polygon fill="white" stroke="#666666" points="418.5,-141.5 288.5,-141.5 288.5,-122.5 418.5,-122.5 418.5,-141.5"/>
<text text-anchor="middle" x="353.5" y="-129.5" font-family="Helvetica,sans-Serif" font-size="10.00">Dm::Transaction::Client</text>
</a>
</g>
</g>
<!-- Node2&#45;&gt;Node5 -->
<g id="edge4_Node000002_Node000005" class="edge">
<title>Node2&#45;&gt;Node5</title>
<g id="a_edge4_Node000002_Node000005"><a xlink:title=" ">
<path fill="none" stroke="#63b8ff" d="M260.39,-125.28C269.7,-125.21 279.16,-125.25 288.3,-125.41"/>
<polygon fill="#63b8ff" stroke="#63b8ff" points="260.33,-121.78 250.37,-125.41 260.42,-128.78 260.33,-121.78"/>
</a>
</g>
</g>
<!-- Node2&#45;&gt;Node5 -->
<g id="edge5_Node000002_Node000005" class="edge">
<title>Node2&#45;&gt;Node5</title>
<g id="a_edge5_Node000002_Node000005"><a xlink:title=" ">
<path fill="none" stroke="#63b8ff" d="M260.39,-138.72C269.7,-138.79 279.16,-138.75 288.3,-138.59"/>
<polygon fill="#63b8ff" stroke="#63b8ff" points="260.42,-135.22 250.37,-138.59 260.33,-142.22 260.42,-135.22"/>
</a>
</g>
</g>
<!-- Node6 -->
<g id="Node000006" class="node">
<title>Node6</title>
<g id="a_Node000006"><a xlink:href="class_dm_1_1_transaction_1_1_server.html" target="_top" xlink:title="This concrete class is a &#39;server&#39; that responds to requests from a &#39;client&#39; to generate.">
<polygon fill="white" stroke="#666666" points="420,-104.5 287,-104.5 287,-85.5 420,-85.5 420,-104.5"/>
<text text-anchor="middle" x="353.5" y="-92.5" font-family="Helvetica,sans-Serif" font-size="10.00">Dm::Transaction::Server</text>
</a>
</g>
</g>
<!-- Node2&#45;&gt;Node6 -->
<g id="edge6_Node000002_Node000006" class="edge">
<title>Node2&#45;&gt;Node6</title>
<g id="a_edge6_Node000002_Node000006"><a xlink:title=" ">
<path fill="none" stroke="#63b8ff" d="M238.74,-120.28C261.54,-115.21 287.89,-109.36 309.48,-104.56"/>
<polygon fill="#63b8ff" stroke="#63b8ff" points="237.88,-116.89 228.88,-122.47 239.4,-123.72 237.88,-116.89"/>
</a>
</g>
</g>
<!-- Node7 -->
<g id="Node000007" class="node">
<title>Node7</title>
<g id="a_Node000007"><a xlink:href="class_itc_1_1_synchronous_1_1_server.html" target="_top" xlink:title="This concrete class is a &#39;server&#39; that flashes the LED.">
<polygon fill="white" stroke="#666666" points="420.5,-67.5 286.5,-67.5 286.5,-48.5 420.5,-48.5 420.5,-67.5"/>
<text text-anchor="middle" x="353.5" y="-55.5" font-family="Helvetica,sans-Serif" font-size="10.00">Itc::Synchronous::Server</text>
</a>
</g>
</g>
<!-- Node2&#45;&gt;Node7 -->
<g id="edge7_Node000002_Node000007" class="edge">
<title>Node2&#45;&gt;Node7</title>
<g id="a_edge7_Node000002_Node000007"><a xlink:title=" ">
<path fill="none" stroke="#63b8ff" d="M209.7,-116.97C229.51,-104.91 258.8,-88.2 286,-77 294.77,-73.39 304.46,-70.2 313.67,-67.51"/>
<polygon fill="#63b8ff" stroke="#63b8ff" points="207.73,-114.08 201.06,-122.31 211.4,-120.04 207.73,-114.08"/>
</a>
</g>
</g>
<!-- Node8 -->
<g id="Node000008" class="node">
<title>Node8</title>
<g id="a_Node000008"><a xlink:href="class_kit_1_1_logging_1_1_framework_1_1_log_sink.html" target="_top" xlink:title="This class is responsible for consuming the application&#39;s Log buffer and &#39;dispatching&#39; log entries.">
<polygon fill="white" stroke="#666666" points="421,-30 286,-30 286,0 421,0 421,-30"/>
<text text-anchor="start" x="294" y="-18" font-family="Helvetica,sans-Serif" font-size="10.00">Kit::Logging::Framework</text>
<text text-anchor="middle" x="353.5" y="-7" font-family="Helvetica,sans-Serif" font-size="10.00">::LogSink</text>
</a>
</g>
</g>
<!-- Node2&#45;&gt;Node8 -->
<g id="edge8_Node000002_Node000008" class="edge">
<title>Node2&#45;&gt;Node8</title>
<g id="a_edge8_Node000002_Node000008"><a xlink:title=" ">
<path fill="none" stroke="#63b8ff" d="M200.83,-114.81C219.1,-94.55 251.92,-60.97 286,-40 292.09,-36.25 298.84,-32.92 305.63,-30"/>
<polygon fill="#63b8ff" stroke="#63b8ff" points="198.15,-112.56 194.14,-122.36 203.39,-117.2 198.15,-112.56"/>
</a>
</g>
</g>
</g>
</svg>
