<?xml version="1.0" encoding="UTF-8" standalone="no"?>
<!DOCTYPE svg PUBLIC "-//W3C//DTD SVG 1.1//EN"
 "http://www.w3.org/Graphics/SVG/1.1/DTD/svg11.dtd">
<!-- Generated by graphviz version 2.43.0 (0)
 -->
<!-- Title: Kit::Dm::Persistent::Record Pages: 1 -->
<svg width="1082pt" height="247pt"
 viewBox="0.00 0.00 1082.00 246.50" xmlns="http://www.w3.org/2000/svg" xmlns:xlink="http://www.w3.org/1999/xlink">
<g id="graph0" class="graph" transform="scale(1 1) rotate(0) translate(4 242.5)">
<title>Kit::Dm::Persistent::Record</title>
<!-- Node1 -->
<g id="Node000001" class="node">
<title>Node1</title>
<g id="a_Node000001"><a xlink:title="This mostly concrete class implements the Kit::Persistent::Record interface where a Record instance c...">
<polygon fill="#999999" stroke="#666666" points="1074,-140 966,-140 966,-110 1074,-110 1074,-140"/>
<text text-anchor="start" x="974" y="-128" font-family="Helvetica,sans-Serif" font-size="10.00">Kit::Dm::Persistent</text>
<text text-anchor="middle" x="1020" y="-117" font-family="Helvetica,sans-Serif" font-size="10.00">::Record</text>
</a>
</g>
</g>
<!-- Node2 -->
<g id="Node000002" class="node">
<title>Node2</title>
<g id="a_Node000002"><a xlink:title=" ">
<polygon fill="white" stroke="#bfbfbf" points="882,-238.5 757,-238.5 757,-219.5 882,-219.5 882,-238.5"/>
<text text-anchor="middle" x="819.5" y="-226.5" font-family="Helvetica,sans-Serif" font-size="10.00">Kit::Persistent::Record</text>
</a>
</g>
</g>
<!-- Node2&#45;&gt;Node1 -->
<g id="edge1_Node000001_Node000002" class="edge">
<title>Node2&#45;&gt;Node1</title>
<g id="a_edge1_Node000001_Node000002"><a xlink:title=" ">
<path fill="none" stroke="#63b8ff" d="M870.11,-216.3C874.86,-214.68 879.56,-212.91 884,-211 928.17,-192.01 974.29,-159.41 999.56,-140.27"/>
<polygon fill="#63b8ff" stroke="#63b8ff" points="868.81,-213.04 860.35,-219.42 870.94,-219.71 868.81,-213.04"/>
</a>
</g>
</g>
<!-- Node3 -->
<g id="Node000003" class="node">
<title>Node3</title>
<g id="a_Node000003"><a xlink:title=" ">
<polygon fill="white" stroke="#bfbfbf" points="884,-201.5 755,-201.5 755,-182.5 884,-182.5 884,-201.5"/>
<text text-anchor="middle" x="819.5" y="-189.5" font-family="Helvetica,sans-Serif" font-size="10.00">Kit::Persistent::Payload</text>
</a>
</g>
</g>
<!-- Node3&#45;&gt;Node1 -->
<g id="edge2_Node000001_Node000003" class="edge">
<title>Node3&#45;&gt;Node1</title>
<g id="a_edge2_Node000001_Node000003"><a xlink:title=" ">
<path fill="none" stroke="#63b8ff" d="M863.47,-179.47C870.35,-177.37 877.39,-175.16 884,-173 915.92,-162.56 951.71,-149.78 978.42,-140.04"/>
<polygon fill="#63b8ff" stroke="#63b8ff" points="862.12,-176.22 853.56,-182.46 864.14,-182.92 862.12,-176.22"/>
</a>
</g>
</g>
<!-- Node4 -->
<g id="Node000004" class="node">
<title>Node4</title>
<g id="a_Node000004"><a xlink:href="class_kit_1_1_dm_1_1_persistent_1_1_flush_request.html" target="_top" xlink:title="This abstract class define ITC message type and payload for the application to request flushing the R...">
<polygon fill="white" stroke="#666666" points="873.5,-164 765.5,-164 765.5,-134 873.5,-134 873.5,-164"/>
<text text-anchor="start" x="773.5" y="-152" font-family="Helvetica,sans-Serif" font-size="10.00">Kit::Dm::Persistent</text>
<text text-anchor="middle" x="819.5" y="-141" font-family="Helvetica,sans-Serif" font-size="10.00">::FlushRequest</text>
</a>
</g>
</g>
<!-- Node4&#45;&gt;Node1 -->
<g id="edge3_Node000001_Node000004" class="edge">
<title>Node4&#45;&gt;Node1</title>
<g id="a_edge3_Node000001_Node000004"><a xlink:title=" ">
<path fill="none" stroke="#63b8ff" d="M883.95,-141.33C910.28,-138.14 940.5,-134.49 965.66,-131.45"/>
<polygon fill="#63b8ff" stroke="#63b8ff" points="883.2,-137.89 873.69,-142.57 884.04,-144.84 883.2,-137.89"/>
</a>
</g>
</g>
<!-- Node5 -->
<g id="Node000005" class="node">
<title>Node5</title>
<g id="a_Node000005"><a xlink:href="class_kit_1_1_dm_1_1_persistent_1_1_erase_request.html" target="_top" xlink:title="This abstract class define ITC message type and payload for the application to request invalidating/c...">
<polygon fill="white" stroke="#666666" points="873.5,-116 765.5,-116 765.5,-86 873.5,-86 873.5,-116"/>
<text text-anchor="start" x="773.5" y="-104" font-family="Helvetica,sans-Serif" font-size="10.00">Kit::Dm::Persistent</text>
<text text-anchor="middle" x="819.5" y="-93" font-family="Helvetica,sans-Serif" font-size="10.00">::EraseRequest</text>
</a>
</g>
</g>
<!-- Node5&#45;&gt;Node1 -->
<g id="edge4_Node000001_Node000005" class="edge">
<title>Node5&#45;&gt;Node1</title>
<g id="a_edge4_Node000001_Node000005"><a xlink:title=" ">
<path fill="none" stroke="#63b8ff" d="M883.95,-108.67C910.28,-111.86 940.5,-115.51 965.66,-118.55"/>
<polygon fill="#63b8ff" stroke="#63b8ff" points="884.04,-105.16 873.69,-107.43 883.2,-112.11 884.04,-105.16"/>
</a>
</g>
</g>
<!-- Node6 -->
<g id="Node000006" class="node">
<title>Node6</title>
<g id="a_Node000006"><a xlink:href="class_kit_1_1_system_1_1_timer.html" target="_top" xlink:title="This mostly concrete interface defines the operations that can be performed on a software timer.">
<polygon fill="white" stroke="#666666" points="873,-67.5 766,-67.5 766,-48.5 873,-48.5 873,-67.5"/>
<text text-anchor="middle" x="819.5" y="-55.5" font-family="Helvetica,sans-Serif" font-size="10.00">Kit::System::Timer</text>
</a>
</g>
</g>
<!-- Node6&#45;&gt;Node1 -->
<g id="edge5_Node000001_Node000006" class="edge">
<title>Node6&#45;&gt;Node1</title>
<g id="a_edge5_Node000001_Node000006"><a xlink:title=" ">
<path fill="none" stroke="#63b8ff" d="M863.47,-70.53C870.35,-72.63 877.39,-74.84 884,-77 915.92,-87.44 951.71,-100.22 978.42,-109.96"/>
<polygon fill="#63b8ff" stroke="#63b8ff" points="864.14,-67.08 853.56,-67.54 862.12,-73.78 864.14,-67.08"/>
</a>
</g>
</g>
<!-- Node7 -->
<g id="Node000007" class="node">
<title>Node7</title>
<g id="a_Node000007"><a xlink:href="class_kit_1_1_system_1_1_i_counter.html" target="_top" xlink:title="This abstract class defines the call&#45;back interface for a Counter object.">
<polygon fill="white" stroke="#666666" points="621.5,-89.5 501.5,-89.5 501.5,-70.5 621.5,-70.5 621.5,-89.5"/>
<text text-anchor="middle" x="561.5" y="-77.5" font-family="Helvetica,sans-Serif" font-size="10.00">Kit::System::ICounter</text>
</a>
</g>
</g>
<!-- Node7&#45;&gt;Node6 -->
<g id="edge6_Node000006_Node000007" class="edge">
<title>Node7&#45;&gt;Node6</title>
<g id="a_edge6_Node000006_Node000007"><a xlink:title=" ">
<path fill="none" stroke="#63b8ff" d="M631.76,-74.05C673.97,-70.42 727.06,-65.86 765.83,-62.53"/>
<polygon fill="#63b8ff" stroke="#63b8ff" points="631.22,-70.58 621.55,-74.93 631.82,-77.56 631.22,-70.58"/>
</a>
</g>
</g>
<!-- Node8 -->
<g id="Node000008" class="node">
<title>Node8</title>
<g id="a_Node000008"><a xlink:href="class_kit_1_1_container_1_1_extended_list_item.html" target="_top" xlink:title="This class is used by the Container classes to implement a various types of DOUBLY linked containers.">
<polygon fill="white" stroke="#666666" points="450,-95 315,-95 315,-65 450,-65 450,-95"/>
<text text-anchor="start" x="323" y="-83" font-family="Helvetica,sans-Serif" font-size="10.00">Kit::Container::Extended</text>
<text text-anchor="middle" x="382.5" y="-72" font-family="Helvetica,sans-Serif" font-size="10.00">ListItem</text>
</a>
</g>
</g>
<!-- Node8&#45;&gt;Node7 -->
<g id="edge7_Node000007_Node000008" class="edge">
<title>Node8&#45;&gt;Node7</title>
<g id="a_edge7_Node000007_Node000008"><a xlink:title=" ">
<path fill="none" stroke="#63b8ff" d="M460.55,-80C474.26,-80 488.34,-80 501.45,-80"/>
<polygon fill="#63b8ff" stroke="#63b8ff" points="460.16,-76.5 450.16,-80 460.16,-83.5 460.16,-76.5"/>
</a>
</g>
</g>
<!-- Node8&#45;&gt;Node8 -->
<g id="edge11_Node000008_Node000008" class="edge">
<title>Node8&#45;&gt;Node8</title>
<g id="a_edge11_Node000008_Node000008"><a xlink:title=" ">
<path fill="none" stroke="#9a32cd" stroke-dasharray="5,2" d="M367.45,-105.6C369.5,-109.97 374.52,-113 382.5,-113 395.94,-113 400.98,-104.41 397.62,-95.28"/>
<polygon fill="#9a32cd" stroke="#9a32cd" points="370.94,-105.25 367.38,-95.28 363.94,-105.3 370.94,-105.25"/>
</a>
</g>
<text text-anchor="middle" x="382.5" y="-116" font-family="Helvetica,sans-Serif" font-size="10.00" fill="grey"> m_prevPtr_</text>
</g>
<!-- Node9 -->
<g id="Node000009" class="node">
<title>Node9</title>
<g id="a_Node000009"><a xlink:href="class_kit_1_1_container_1_1_list_item.html" target="_top" xlink:title="This class is used by the Container classes to implement a various types of linked lists containers.">
<polygon fill="white" stroke="#666666" points="278,-89.5 149,-89.5 149,-70.5 278,-70.5 278,-89.5"/>
<text text-anchor="middle" x="213.5" y="-77.5" font-family="Helvetica,sans-Serif" font-size="10.00">Kit::Container::ListItem</text>
</a>
</g>
</g>
<!-- Node9&#45;&gt;Node8 -->
<g id="edge8_Node000008_Node000009" class="edge">
<title>Node9&#45;&gt;Node8</title>
<g id="a_edge8_Node000008_Node000009"><a xlink:title=" ">
<path fill="none" stroke="#63b8ff" d="M288.34,-80C297.12,-80 306.05,-80 314.73,-80"/>
<polygon fill="#63b8ff" stroke="#63b8ff" points="288.11,-76.5 278.11,-80 288.11,-83.5 288.11,-76.5"/>
</a>
</g>
</g>
<!-- Node9&#45;&gt;Node9 -->
<g id="edge10_Node000009_Node000009" class="edge">
<title>Node9&#45;&gt;Node9</title>
<g id="a_edge10_Node000009_Node000009"><a xlink:title=" ">
<path fill="none" stroke="#9a32cd" stroke-dasharray="5,2" d="M198.4,-99.41C199.59,-104.06 204.62,-107.5 213.5,-107.5 228.07,-107.5 232.29,-98.23 226.14,-89.58"/>
<polygon fill="#9a32cd" stroke="#9a32cd" points="201.83,-100.13 200.86,-89.58 195.04,-98.43 201.83,-100.13"/>
</a>
</g>
<text text-anchor="middle" x="213.5" y="-110.5" font-family="Helvetica,sans-Serif" font-size="10.00" fill="grey"> m_nextPtr_</text>
</g>
<!-- Node10 -->
<g id="Node000010" class="node">
<title>Node10</title>
<g id="a_Node000010"><a xlink:href="class_kit_1_1_container_1_1_item.html" target="_top" xlink:title="This class is used by the Intrusive Container classes to enforce the semantic and item/element can be...">
<polygon fill="white" stroke="#666666" points="112,-89.5 0,-89.5 0,-70.5 112,-70.5 112,-89.5"/>
<text text-anchor="middle" x="56" y="-77.5" font-family="Helvetica,sans-Serif" font-size="10.00">Kit::Container::Item</text>
</a>
</g>
</g>
<!-- Node10&#45;&gt;Node9 -->
<g id="edge9_Node000009_Node000010" class="edge">
<title>Node10&#45;&gt;Node9</title>
<g id="a_edge9_Node000009_Node000010"><a xlink:title=" ">
<path fill="none" stroke="#63b8ff" d="M122.43,-80C131.2,-80 140.19,-80 148.93,-80"/>
<polygon fill="#63b8ff" stroke="#63b8ff" points="122.26,-76.5 112.26,-80 122.26,-83.5 122.26,-76.5"/>
</a>
</g>
</g>
<!-- Node11 -->
<g id="Node000011" class="node">
<title>Node11</title>
<g id="a_Node000011"><a xlink:href="class_kit_1_1_system_1_1_i_timing_source.html" target="_top" xlink:title="This abstract class defines the interface for a timing source.">
<polygon fill="white" stroke="#666666" points="636,-52.5 487,-52.5 487,-33.5 636,-33.5 636,-52.5"/>
<text text-anchor="middle" x="561.5" y="-40.5" font-family="Helvetica,sans-Serif" font-size="10.00">Kit::System::ITimingSource</text>
</a>
</g>
</g>
<!-- Node11&#45;&gt;Node6 -->
<g id="edge12_Node000006_Node000011" class="edge">
<title>Node11&#45;&gt;Node6</title>
<g id="a_edge12_Node000006_Node000011"><a xlink:title=" ">
<path fill="none" stroke="#9a32cd" stroke-dasharray="5,2" d="M646.05,-44.59C674.89,-45.48 707.39,-46.86 737,-49 746.37,-49.68 756.33,-50.6 765.94,-51.61"/>
<polygon fill="#9a32cd" stroke="#9a32cd" points="646.11,-41.09 636.01,-44.29 645.9,-48.09 646.11,-41.09"/>
</a>
</g>
<text text-anchor="middle" x="695.5" y="-52" font-family="Helvetica,sans-Serif" font-size="10.00" fill="grey"> m_timingSource</text>
</g>
<!-- Node12 -->
<g id="Node000012" class="node">
<title>Node12</title>
<g id="a_Node000012"><a xlink:href="class_kit_1_1_dm_1_1_persistent_1_1_record.html#struct_kit_1_1_dm_1_1_persistent_1_1_record_1_1_item___t" target="_top" xlink:title="This data structure associates a Data Model subscriber instance with a Model Point instance.">
<polygon fill="white" stroke="#666666" points="873.5,-30 765.5,-30 765.5,0 873.5,0 873.5,-30"/>
<text text-anchor="start" x="773.5" y="-18" font-family="Helvetica,sans-Serif" font-size="10.00">Kit::Dm::Persistent</text>
<text text-anchor="middle" x="819.5" y="-7" font-family="Helvetica,sans-Serif" font-size="10.00">::Record::Item_T</text>
</a>
</g>
</g>
<!-- Node12&#45;&gt;Node1 -->
<g id="edge13_Node000001_Node000012" class="edge">
<title>Node12&#45;&gt;Node1</title>
<g id="a_edge13_Node000001_Node000012"><a xlink:title=" ">
<path fill="none" stroke="#9a32cd" stroke-dasharray="5,2" d="M871.17,-33.81C875.52,-35.53 879.85,-37.28 884,-39 912.84,-50.97 921.39,-51.65 948,-68 968.07,-80.33 988.83,-97.62 1002.68,-109.91"/>
<polygon fill="#9a32cd" stroke="#9a32cd" points="872.23,-30.47 861.64,-30.11 869.69,-37 872.23,-30.47"/>
</a>
</g>
<text text-anchor="middle" x="925" y="-71" font-family="Helvetica,sans-Serif" font-size="10.00" fill="grey"> m_items</text>
</g>
</g>
</svg>
