<?xml version="1.0" encoding="UTF-8" standalone="no"?>
<!DOCTYPE svg PUBLIC "-//W3C//DTD SVG 1.1//EN"
 "http://www.w3.org/Graphics/SVG/1.1/DTD/svg11.dtd">
<!-- Generated by graphviz version 2.43.0 (0)
 -->
<!-- Title: Kit::Memory::IAllocator Pages: 1 -->
<svg width="822pt" height="162pt"
 viewBox="0.00 0.00 822.00 161.50" xmlns="http://www.w3.org/2000/svg" xmlns:xlink="http://www.w3.org/1999/xlink">
<g id="graph0" class="graph" transform="scale(1 1) rotate(0) translate(4 157.5)">
<title>Kit::Memory::IAllocator</title>
<!-- Node1 -->
<g id="Node000001" class="node">
<title>Node1</title>
<g id="a_Node000001"><a xlink:title="This abstract class defines the interface for a Memory Allocator.">
<polygon fill="#999999" stroke="#666666" points="441,-88.5 313,-88.5 313,-69.5 441,-69.5 441,-88.5"/>
<text text-anchor="middle" x="377" y="-76.5" font-family="Helvetica,sans-Serif" font-size="10.00">Kit::Memory::IAllocator</text>
</a>
</g>
</g>
<!-- Node4 -->
<g id="Node000004" class="node">
<title>Node4</title>
<g id="a_Node000004"><a xlink:href="class_kit_1_1_memory_1_1_h_pool.html" target="_top" xlink:title="This template class defines a concrete Allocator that allocates memory from the HEAP for a memory poo...">
<polygon fill="white" stroke="#666666" points="616.5,-153.5 477.5,-153.5 477.5,-134.5 616.5,-134.5 616.5,-153.5"/>
<text text-anchor="middle" x="547" y="-141.5" font-family="Helvetica,sans-Serif" font-size="10.00">Kit::Memory::HPool&lt; T &gt;</text>
</a>
</g>
</g>
<!-- Node1&#45;&gt;Node4 -->
<g id="edge3_Node000001_Node000004" class="edge">
<title>Node1&#45;&gt;Node4</title>
<g id="a_edge3_Node000001_Node000004"><a xlink:title=" ">
<path fill="none" stroke="#63b8ff" d="M405.18,-93.13C424.79,-102.94 452.08,-115.85 477,-125 486.56,-128.51 497.08,-131.72 506.96,-134.47"/>
<polygon fill="#63b8ff" stroke="#63b8ff" points="406.72,-89.98 396.22,-88.59 403.56,-96.23 406.72,-89.98"/>
</a>
</g>
</g>
<!-- Node5 -->
<g id="Node000005" class="node">
<title>Node5</title>
<g id="a_Node000005"><a xlink:href="class_kit_1_1_memory_1_1_i_contiguous_allocator.html" target="_top" xlink:title="This abstract class is used &#39;extend&#39; the Memory Allocator to have contiguous semantics.">
<polygon fill="white" stroke="#666666" points="617,-116 477,-116 477,-86 617,-86 617,-116"/>
<text text-anchor="start" x="485" y="-104" font-family="Helvetica,sans-Serif" font-size="10.00">Kit::Memory::IContiguous</text>
<text text-anchor="middle" x="547" y="-93" font-family="Helvetica,sans-Serif" font-size="10.00">Allocator</text>
</a>
</g>
</g>
<!-- Node1&#45;&gt;Node5 -->
<g id="edge4_Node000001_Node000005" class="edge">
<title>Node1&#45;&gt;Node5</title>
<g id="a_edge4_Node000001_Node000005"><a xlink:title=" ">
<path fill="none" stroke="#63b8ff" d="M451.05,-88.57C459.66,-89.69 468.43,-90.84 476.98,-91.96"/>
<polygon fill="#63b8ff" stroke="#63b8ff" points="451.4,-85.08 441.03,-87.25 450.5,-92.02 451.4,-85.08"/>
</a>
</g>
</g>
<!-- Node7 -->
<g id="Node000007" class="node">
<title>Node7</title>
<g id="a_Node000007"><a xlink:href="class_kit_1_1_memory_1_1_pool.html" target="_top" xlink:title="This internal (to the namespace) concrete class implements a Memory Allocator using a pool of fixed s...">
<polygon fill="white" stroke="#666666" points="598.5,-67.5 495.5,-67.5 495.5,-48.5 598.5,-48.5 598.5,-67.5"/>
<text text-anchor="middle" x="547" y="-55.5" font-family="Helvetica,sans-Serif" font-size="10.00">Kit::Memory::Pool</text>
</a>
</g>
</g>
<!-- Node1&#45;&gt;Node7 -->
<g id="edge6_Node000001_Node000007" class="edge">
<title>Node1&#45;&gt;Node7</title>
<g id="a_edge6_Node000001_Node000007"><a xlink:title=" ">
<path fill="none" stroke="#63b8ff" d="M451.26,-69.84C466.18,-67.98 481.55,-66.06 495.46,-64.32"/>
<polygon fill="#63b8ff" stroke="#63b8ff" points="450.52,-66.41 441.03,-71.12 451.39,-73.35 450.52,-66.41"/>
</a>
</g>
</g>
<!-- Node8 -->
<g id="Node000008" class="node">
<title>Node8</title>
<g id="a_Node000008"><a xlink:href="class_kit_1_1_memory_1_1_s_pool.html" target="_top" xlink:title="This template class defines a concrete Allocator that STATICALLY allocates all of its Memory and can ...">
<polygon fill="white" stroke="#666666" points="601.5,-30 492.5,-30 492.5,0 601.5,0 601.5,-30"/>
<text text-anchor="start" x="500.5" y="-18" font-family="Helvetica,sans-Serif" font-size="10.00">Kit::Memory::SPool</text>
<text text-anchor="middle" x="547" y="-7" font-family="Helvetica,sans-Serif" font-size="10.00">&lt; T, N &gt;</text>
</a>
</g>
</g>
<!-- Node1&#45;&gt;Node8 -->
<g id="edge7_Node000001_Node000008" class="edge">
<title>Node1&#45;&gt;Node8</title>
<g id="a_edge7_Node000001_Node000008"><a xlink:title=" ">
<path fill="none" stroke="#63b8ff" d="M409.93,-65.63C429.25,-57.66 454.44,-47.48 477,-39 484.95,-36.01 493.47,-32.94 501.71,-30.04"/>
<polygon fill="#63b8ff" stroke="#63b8ff" points="408.58,-62.4 400.68,-69.47 411.26,-68.87 408.58,-62.4"/>
</a>
</g>
</g>
<!-- Node2 -->
<g id="Node000002" class="node">
<title>Node2</title>
<g id="a_Node000002"><a xlink:href="class_kit_1_1_container_1_1_list_item.html" target="_top" xlink:title="This class is used by the Container classes to implement a various types of linked lists containers.">
<polygon fill="white" stroke="#666666" points="277,-88.5 148,-88.5 148,-69.5 277,-69.5 277,-88.5"/>
<text text-anchor="middle" x="212.5" y="-76.5" font-family="Helvetica,sans-Serif" font-size="10.00">Kit::Container::ListItem</text>
</a>
</g>
</g>
<!-- Node2&#45;&gt;Node1 -->
<g id="edge1_Node000001_Node000002" class="edge">
<title>Node2&#45;&gt;Node1</title>
<g id="a_edge1_Node000001_Node000002"><a xlink:title=" ">
<path fill="none" stroke="#63b8ff" d="M287.26,-79C295.84,-79 304.54,-79 312.96,-79"/>
<polygon fill="#63b8ff" stroke="#63b8ff" points="287.26,-75.5 277.26,-79 287.26,-82.5 287.26,-75.5"/>
</a>
</g>
</g>
<!-- Node3 -->
<g id="Node000003" class="node">
<title>Node3</title>
<g id="a_Node000003"><a xlink:href="class_kit_1_1_container_1_1_item.html" target="_top" xlink:title="This class is used by the Intrusive Container classes to enforce the semantic and item/element can be...">
<polygon fill="white" stroke="#666666" points="112,-88.5 0,-88.5 0,-69.5 112,-69.5 112,-88.5"/>
<text text-anchor="middle" x="56" y="-76.5" font-family="Helvetica,sans-Serif" font-size="10.00">Kit::Container::Item</text>
</a>
</g>
</g>
<!-- Node3&#45;&gt;Node2 -->
<g id="edge2_Node000002_Node000003" class="edge">
<title>Node3&#45;&gt;Node2</title>
<g id="a_edge2_Node000002_Node000003"><a xlink:title=" ">
<path fill="none" stroke="#63b8ff" d="M122.48,-79C130.89,-79 139.49,-79 147.87,-79"/>
<polygon fill="#63b8ff" stroke="#63b8ff" points="122.34,-75.5 112.34,-79 122.34,-82.5 122.34,-75.5"/>
</a>
</g>
</g>
<!-- Node6 -->
<g id="Node000006" class="node">
<title>Node6</title>
<g id="a_Node000006"><a xlink:href="class_kit_1_1_memory_1_1_lean_heap.html" target="_top" xlink:title="This template class manages an allocate&#45;only&#45;heap with statically allocated memory.">
<polygon fill="white" stroke="#666666" points="814,-116 653,-116 653,-86 814,-86 814,-116"/>
<text text-anchor="start" x="661" y="-104" font-family="Helvetica,sans-Serif" font-size="10.00">Kit::Memory::LeanHeap</text>
<text text-anchor="middle" x="733.5" y="-93" font-family="Helvetica,sans-Serif" font-size="10.00">&lt; MAXWORDS, WORDTYPE &gt;</text>
</a>
</g>
</g>
<!-- Node5&#45;&gt;Node6 -->
<g id="edge5_Node000005_Node000006" class="edge">
<title>Node5&#45;&gt;Node6</title>
<g id="a_edge5_Node000005_Node000006"><a xlink:title=" ">
<path fill="none" stroke="#63b8ff" d="M627.45,-101C635.9,-101 644.5,-101 652.96,-101"/>
<polygon fill="#63b8ff" stroke="#63b8ff" points="627.23,-97.5 617.23,-101 627.23,-104.5 627.23,-97.5"/>
</a>
</g>
</g>
</g>
</svg>
