<?xml version="1.0" encoding="UTF-8" standalone="no"?>
<!DOCTYPE svg PUBLIC "-//W3C//DTD SVG 1.1//EN"
 "http://www.w3.org/Graphics/SVG/1.1/DTD/svg11.dtd">
<!-- Generated by graphviz version 2.43.0 (0)
 -->
<!-- Title: Kit::Container::SList&lt; ITEM &gt; Pages: 1 -->
<svg width="1124pt" height="146pt"
 viewBox="0.00 0.00 1124.00 145.50" xmlns="http://www.w3.org/2000/svg" xmlns:xlink="http://www.w3.org/1999/xlink">
<g id="graph0" class="graph" transform="scale(1 1) rotate(0) translate(4 141.5)">
<title>Kit::Container::SList&lt; ITEM &gt;</title>
<!-- Node1 -->
<g id="Node000001" class="node">
<title>Node1</title>
<g id="a_Node000001"><a xlink:title="This template class implements a singly linked list which maintains the ordering imposed on it by the...">
<polygon fill="#999999" stroke="#666666" points="287,-89.5 174,-89.5 174,-59.5 287,-59.5 287,-89.5"/>
<text text-anchor="start" x="182" y="-77.5" font-family="Helvetica,sans-Serif" font-size="10.00">Kit::Container::SList</text>
<text text-anchor="middle" x="230.5" y="-66.5" font-family="Helvetica,sans-Serif" font-size="10.00">&lt; ITEM &gt;</text>
</a>
</g>
</g>
<!-- Node3 -->
<g id="Node000003" class="node">
<title>Node3</title>
<g id="a_Node000003"><a xlink:href="class_kit_1_1_container_1_1_s_list.html" target="_top" xlink:title=" ">
<polygon fill="white" stroke="#666666" points="596,-137.5 483,-137.5 483,-107.5 596,-107.5 596,-137.5"/>
<text text-anchor="start" x="491" y="-125.5" font-family="Helvetica,sans-Serif" font-size="10.00">Kit::Container::SList</text>
<text text-anchor="middle" x="539.5" y="-114.5" font-family="Helvetica,sans-Serif" font-size="10.00">&lt; IMessage &gt;</text>
</a>
</g>
</g>
<!-- Node1&#45;&gt;Node3 -->
<g id="edge2_Node000001_Node000003" class="edge">
<title>Node1&#45;&gt;Node3</title>
<g id="a_edge2_Node000001_Node000003"><a xlink:title=" ">
<path fill="none" stroke="orange" stroke-dasharray="5,2" d="M297.3,-88.13C299.9,-88.61 302.47,-89.06 305,-89.5 365.52,-99.94 435.28,-109.48 482.68,-115.58"/>
<polygon fill="orange" stroke="orange" points="297.69,-84.64 287.22,-86.24 296.4,-91.52 297.69,-84.64"/>
</a>
</g>
<text text-anchor="middle" x="375" y="-113.5" font-family="Helvetica,sans-Serif" font-size="10.00" fill="grey"> &lt; IMessage &gt;</text>
</g>
<!-- Node7 -->
<g id="Node000007" class="node">
<title>Node7</title>
<g id="a_Node000007"><a xlink:href="class_kit_1_1_container_1_1_s_list.html" target="_top" xlink:title=" ">
<polygon fill="white" stroke="#666666" points="616,-89.5 463,-89.5 463,-59.5 616,-59.5 616,-89.5"/>
<text text-anchor="start" x="471" y="-77.5" font-family="Helvetica,sans-Serif" font-size="10.00">Kit::Container::SList</text>
<text text-anchor="middle" x="539.5" y="-66.5" font-family="Helvetica,sans-Serif" font-size="10.00">&lt; Kit::System::IEventFlag &gt;</text>
</a>
</g>
</g>
<!-- Node1&#45;&gt;Node7 -->
<g id="edge6_Node000001_Node000007" class="edge">
<title>Node1&#45;&gt;Node7</title>
<g id="a_edge6_Node000001_Node000007"><a xlink:title=" ">
<path fill="none" stroke="orange" stroke-dasharray="5,2" d="M297.18,-74.5C345.76,-74.5 412.02,-74.5 462.82,-74.5"/>
<polygon fill="orange" stroke="orange" points="297.1,-71 287.1,-74.5 297.1,-78 297.1,-71"/>
</a>
</g>
<text text-anchor="middle" x="375" y="-77.5" font-family="Helvetica,sans-Serif" font-size="10.00" fill="grey"> &lt; Kit::System::IEventFlag &gt;</text>
</g>
<!-- Node8 -->
<g id="Node000008" class="node">
<title>Node8</title>
<g id="a_Node000008"><a xlink:href="class_kit_1_1_container_1_1_s_list.html" target="_top" xlink:title=" ">
<polygon fill="white" stroke="#666666" points="608.5,-41 470.5,-41 470.5,0 608.5,0 608.5,-41"/>
<text text-anchor="start" x="478.5" y="-29" font-family="Helvetica,sans-Serif" font-size="10.00">Kit::Container::SList</text>
<text text-anchor="start" x="478.5" y="-18" font-family="Helvetica,sans-Serif" font-size="10.00">&lt; Kit::System::Watchdog</text>
<text text-anchor="middle" x="539.5" y="-7" font-family="Helvetica,sans-Serif" font-size="10.00">::WatchedThread &gt;</text>
</a>
</g>
</g>
<!-- Node1&#45;&gt;Node8 -->
<g id="edge7_Node000001_Node000008" class="edge">
<title>Node1&#45;&gt;Node8</title>
<g id="a_edge7_Node000001_Node000008"><a xlink:title=" ">
<path fill="none" stroke="orange" stroke-dasharray="5,2" d="M278.73,-56.07C287.37,-53.2 296.38,-50.51 305,-48.5 359.86,-35.67 423.43,-28.54 470.37,-24.69"/>
<polygon fill="orange" stroke="orange" points="277.48,-52.8 269.17,-59.38 279.77,-59.42 277.48,-52.8"/>
</a>
</g>
<text text-anchor="start" x="312.5" y="-62.5" font-family="Helvetica,sans-Serif" font-size="10.00" fill="grey"> &lt; Kit::System::Watchdog</text>
<text text-anchor="middle" x="375" y="-51.5" font-family="Helvetica,sans-Serif" font-size="10.00" fill="grey">::WatchedThread &gt;</text>
</g>
<!-- Node2 -->
<g id="Node000002" class="node">
<title>Node2</title>
<g id="a_Node000002"><a xlink:href="class_kit_1_1_container_1_1_s_list_base.html" target="_top" xlink:title="This protected base class implements a NON&#45;TYPE&#45;SAFE a singly linked list which maintains the orderin...">
<polygon fill="white" stroke="#666666" points="137,-84 0,-84 0,-65 137,-65 137,-84"/>
<text text-anchor="middle" x="68.5" y="-72" font-family="Helvetica,sans-Serif" font-size="10.00">Kit::Container::SListBase</text>
</a>
</g>
</g>
<!-- Node2&#45;&gt;Node1 -->
<g id="edge1_Node000001_Node000002" class="edge">
<title>Node2&#45;&gt;Node1</title>
<g id="a_edge1_Node000001_Node000002"><a xlink:title=" ">
<path fill="none" stroke="#63b8ff" d="M147.62,-74.5C156.4,-74.5 165.22,-74.5 173.63,-74.5"/>
<polygon fill="#63b8ff" stroke="#63b8ff" points="147.35,-71 137.35,-74.5 147.35,-78 147.35,-71"/>
</a>
</g>
</g>
<!-- Node4 -->
<g id="Node000004" class="node">
<title>Node4</title>
<g id="a_Node000004"><a xlink:href="class_kit_1_1_itc_1_1_mailbox.html" target="_top" xlink:title="This mailbox class implements an Inter Thread Communications message queue.">
<polygon fill="white" stroke="#666666" points="746,-132 653,-132 653,-113 746,-113 746,-132"/>
<text text-anchor="middle" x="699.5" y="-120" font-family="Helvetica,sans-Serif" font-size="10.00">Kit::Itc::Mailbox</text>
</a>
</g>
</g>
<!-- Node3&#45;&gt;Node4 -->
<g id="edge3_Node000003_Node000004" class="edge">
<title>Node3&#45;&gt;Node4</title>
<g id="a_edge3_Node000003_Node000004"><a xlink:title=" ">
<path fill="none" stroke="#63b8ff" d="M606.37,-122.5C622.04,-122.5 638.41,-122.5 652.93,-122.5"/>
<polygon fill="#63b8ff" stroke="#63b8ff" points="606.2,-119 596.2,-122.5 606.2,-126 606.2,-119"/>
</a>
</g>
</g>
<!-- Node5 -->
<g id="Node000005" class="node">
<title>Node5</title>
<g id="a_Node000005"><a xlink:href="class_kit_1_1_event_queue_1_1_server.html" target="_top" xlink:title="This concrete class extends the Kit::System::EventLoop interface to include processing events from Ev...">
<polygon fill="white" stroke="#666666" points="916,-132 783,-132 783,-113 916,-113 916,-132"/>
<text text-anchor="middle" x="849.5" y="-120" font-family="Helvetica,sans-Serif" font-size="10.00">Kit::EventQueue::Server</text>
</a>
</g>
</g>
<!-- Node4&#45;&gt;Node5 -->
<g id="edge4_Node000004_Node000005" class="edge">
<title>Node4&#45;&gt;Node5</title>
<g id="a_edge4_Node000004_Node000005"><a xlink:title=" ">
<path fill="none" stroke="#63b8ff" d="M756.16,-122.5C764.89,-122.5 773.98,-122.5 782.91,-122.5"/>
<polygon fill="#63b8ff" stroke="#63b8ff" points="756.11,-119 746.11,-122.5 756.11,-126 756.11,-119"/>
</a>
</g>
</g>
<!-- Node6 -->
<g id="Node000006" class="node">
<title>Node6</title>
<g id="a_Node000006"><a xlink:href="class_kit_1_1_event_queue_1_1_with_periodic_scheduling.html" target="_top" xlink:title="This class extends the Kit::EventQueue::Server class to add periodic scheduling to an event based &#39;th...">
<polygon fill="white" stroke="#666666" points="1116,-137.5 953,-137.5 953,-107.5 1116,-107.5 1116,-137.5"/>
<text text-anchor="start" x="961" y="-125.5" font-family="Helvetica,sans-Serif" font-size="10.00">Kit::EventQueue::WithPeriodic</text>
<text text-anchor="middle" x="1034.5" y="-114.5" font-family="Helvetica,sans-Serif" font-size="10.00">Scheduling</text>
</a>
</g>
</g>
<!-- Node5&#45;&gt;Node6 -->
<g id="edge5_Node000005_Node000006" class="edge">
<title>Node5&#45;&gt;Node6</title>
<g id="a_edge5_Node000005_Node000006"><a xlink:title=" ">
<path fill="none" stroke="#63b8ff" d="M926.22,-122.5C934.98,-122.5 943.93,-122.5 952.75,-122.5"/>
<polygon fill="#63b8ff" stroke="#63b8ff" points="926.05,-119 916.05,-122.5 926.05,-126 926.05,-119"/>
</a>
</g>
</g>
</g>
</svg>
