<?xml version="1.0" encoding="UTF-8" standalone="no"?>
<!DOCTYPE svg PUBLIC "-//W3C//DTD SVG 1.1//EN"
 "http://www.w3.org/Graphics/SVG/1.1/DTD/svg11.dtd">
<!-- Generated by graphviz version 2.43.0 (0)
 -->
<!-- Title: Kit::Io::Serial::ST::M32F4::InputOutput Pages: 1 -->
<svg width="1032pt" height="265pt"
 viewBox="0.00 0.00 1032.00 265.00" xmlns="http://www.w3.org/2000/svg" xmlns:xlink="http://www.w3.org/1999/xlink">
<g id="graph0" class="graph" transform="scale(1 1) rotate(0) translate(4 261)">
<title>Kit::Io::Serial::ST::M32F4::InputOutput</title>
<!-- Node1 -->
<g id="Node000001" class="node">
<title>Node1</title>
<g id="a_Node000001"><a xlink:title="This concrete class implements the InputOutput stream interface built on top of ST HAL Layer/SDK.">
<polygon fill="#999999" stroke="#666666" points="1020,-175.5 901,-175.5 901,-145.5 1020,-145.5 1020,-175.5"/>
<text text-anchor="start" x="909" y="-163.5" font-family="Helvetica,sans-Serif" font-size="10.00">Kit::Io::Serial::ST</text>
<text text-anchor="middle" x="960.5" y="-152.5" font-family="Helvetica,sans-Serif" font-size="10.00">::M32F4::InputOutput</text>
</a>
</g>
</g>
<!-- Node2 -->
<g id="Node000002" class="node">
<title>Node2</title>
<g id="a_Node000002"><a xlink:href="class_kit_1_1_io_1_1_i_input_output.html" target="_top" xlink:title="This abstract class defines a interface for operating on an input&#45;output stream.">
<polygon fill="white" stroke="#666666" points="786,-192 674,-192 674,-173 786,-173 786,-192"/>
<text text-anchor="middle" x="730" y="-180" font-family="Helvetica,sans-Serif" font-size="10.00">Kit::Io::IInputOutput</text>
</a>
</g>
</g>
<!-- Node2&#45;&gt;Node1 -->
<g id="edge1_Node000001_Node000002" class="edge">
<title>Node2&#45;&gt;Node1</title>
<g id="a_edge1_Node000001_Node000002"><a xlink:title=" ">
<path fill="none" stroke="#63b8ff" d="M796.04,-176.24C829.07,-173.06 868.89,-169.22 900.96,-166.14"/>
<polygon fill="#63b8ff" stroke="#63b8ff" points="795.64,-172.76 786.02,-177.2 796.31,-179.73 795.64,-172.76"/>
</a>
</g>
</g>
<!-- Node3 -->
<g id="Node000003" class="node">
<title>Node3</title>
<g id="a_Node000003"><a xlink:href="class_kit_1_1_io_1_1_i_input.html" target="_top" xlink:title="This partially abstract class defines a interface for operating on an input stream (example of a stre...">
<polygon fill="white" stroke="#666666" points="496.5,-225 417.5,-225 417.5,-206 496.5,-206 496.5,-225"/>
<text text-anchor="middle" x="457" y="-213" font-family="Helvetica,sans-Serif" font-size="10.00">Kit::Io::IInput</text>
</a>
</g>
</g>
<!-- Node3&#45;&gt;Node2 -->
<g id="edge2_Node000002_Node000003" class="edge">
<title>Node3&#45;&gt;Node2</title>
<g id="a_edge2_Node000002_Node000003"><a xlink:title=" ">
<path fill="none" stroke="#63b8ff" d="M507,-210.59C545.41,-206.62 600.17,-200.68 648,-194.5 656.32,-193.42 665.1,-192.21 673.7,-190.97"/>
<polygon fill="#63b8ff" stroke="#63b8ff" points="506.21,-207.15 496.62,-211.65 506.93,-214.11 506.21,-207.15"/>
</a>
</g>
</g>
<!-- Node4 -->
<g id="Node000004" class="node">
<title>Node4</title>
<g id="a_Node000004"><a xlink:href="class_kit_1_1_io_1_1_i_close.html" target="_top" xlink:title="This abstract class defines a close operation that is intended to be used Input and Output streams/fi...">
<polygon fill="white" stroke="#666666" points="261.5,-257 180.5,-257 180.5,-238 261.5,-238 261.5,-257"/>
<text text-anchor="middle" x="221" y="-245" font-family="Helvetica,sans-Serif" font-size="10.00">Kit::Io::IClose</text>
</a>
</g>
</g>
<!-- Node4&#45;&gt;Node3 -->
<g id="edge3_Node000003_Node000004" class="edge">
<title>Node4&#45;&gt;Node3</title>
<g id="a_edge3_Node000003_Node000004"><a xlink:title=" ">
<path fill="none" stroke="#63b8ff" d="M271.72,-247.44C300.33,-246.75 336.87,-244.74 369,-239.5 388.79,-236.27 410.54,-230.27 427.35,-225.08"/>
<polygon fill="#63b8ff" stroke="#63b8ff" points="271.48,-243.95 261.55,-247.64 271.62,-250.94 271.48,-243.95"/>
</a>
</g>
</g>
<!-- Node6 -->
<g id="Node000006" class="node">
<title>Node6</title>
<g id="a_Node000006"><a xlink:href="class_kit_1_1_io_1_1_i_output.html" target="_top" xlink:title="This partially abstract class defines a interface for operating on an output stream (example of a str...">
<polygon fill="white" stroke="#666666" points="500.5,-188 413.5,-188 413.5,-169 500.5,-169 500.5,-188"/>
<text text-anchor="middle" x="457" y="-176" font-family="Helvetica,sans-Serif" font-size="10.00">Kit::Io::IOutput</text>
</a>
</g>
</g>
<!-- Node4&#45;&gt;Node6 -->
<g id="edge6_Node000006_Node000004" class="edge">
<title>Node4&#45;&gt;Node6</title>
<g id="a_edge6_Node000006_Node000004"><a xlink:title=" ">
<path fill="none" stroke="#63b8ff" d="M262.48,-234.92C295.83,-224.63 344.39,-209.82 387,-197.5 397.86,-194.36 409.72,-191.05 420.49,-188.09"/>
<polygon fill="#63b8ff" stroke="#63b8ff" points="261.17,-231.66 252.64,-237.96 263.23,-238.35 261.17,-231.66"/>
</a>
</g>
</g>
<!-- Node5 -->
<g id="Node000005" class="node">
<title>Node5</title>
<g id="a_Node000005"><a xlink:href="class_kit_1_1_io_1_1_i_eos.html" target="_top" xlink:title="This abstract class defines a isEos() operation that is intended to be used Input and Output streams.">
<polygon fill="white" stroke="#666666" points="256.5,-206 185.5,-206 185.5,-187 256.5,-187 256.5,-206"/>
<text text-anchor="middle" x="221" y="-194" font-family="Helvetica,sans-Serif" font-size="10.00">Kit::Io::IEos</text>
</a>
</g>
</g>
<!-- Node5&#45;&gt;Node3 -->
<g id="edge4_Node000003_Node000005" class="edge">
<title>Node5&#45;&gt;Node3</title>
<g id="a_edge4_Node000003_Node000005"><a xlink:title=" ">
<path fill="none" stroke="#63b8ff" d="M266.57,-200.12C310.2,-203.66 375.99,-209 417.43,-212.37"/>
<polygon fill="#63b8ff" stroke="#63b8ff" points="266.78,-196.62 256.53,-199.3 266.21,-203.6 266.78,-196.62"/>
</a>
</g>
</g>
<!-- Node5&#45;&gt;Node6 -->
<g id="edge7_Node000006_Node000005" class="edge">
<title>Node5&#45;&gt;Node6</title>
<g id="a_edge7_Node000006_Node000005"><a xlink:title=" ">
<path fill="none" stroke="#63b8ff" d="M266.53,-193.07C308.77,-189.83 371.79,-184.98 413.39,-181.78"/>
<polygon fill="#63b8ff" stroke="#63b8ff" points="266.23,-189.59 256.53,-193.84 266.77,-196.57 266.23,-189.59"/>
</a>
</g>
</g>
<!-- Node6&#45;&gt;Node2 -->
<g id="edge5_Node000002_Node000006" class="edge">
<title>Node6&#45;&gt;Node2</title>
<g id="a_edge5_Node000002_Node000006"><a xlink:title=" ">
<path fill="none" stroke="#63b8ff" d="M510.92,-179.28C557.91,-179.97 626.33,-180.98 673.96,-181.69"/>
<polygon fill="#63b8ff" stroke="#63b8ff" points="510.69,-175.78 500.64,-179.13 510.59,-182.78 510.69,-175.78"/>
</a>
</g>
</g>
<!-- Node7 -->
<g id="Node000007" class="node">
<title>Node7</title>
<g id="a_Node000007"><a xlink:href="class_kit_1_1_io_1_1_serial_1_1_s_t_1_1_m32_f4_1_1_stream_driver.html" target="_top" xlink:title="This concrete class implements a non&#45;busy&#45;wait blocking Transmit/Receive Stream UART driver with a SO...">
<polygon fill="white" stroke="#666666" points="793.5,-92.5 666.5,-92.5 666.5,-62.5 793.5,-62.5 793.5,-92.5"/>
<text text-anchor="start" x="674.5" y="-80.5" font-family="Helvetica,sans-Serif" font-size="10.00">Kit::Io::Serial::ST</text>
<text text-anchor="middle" x="730" y="-69.5" font-family="Helvetica,sans-Serif" font-size="10.00">::M32F4::StreamDriver</text>
</a>
</g>
</g>
<!-- Node7&#45;&gt;Node1 -->
<g id="edge8_Node000001_Node000007" class="edge">
<title>Node7&#45;&gt;Node1</title>
<g id="a_edge8_Node000001_Node000007"><a xlink:title=" ">
<path fill="none" stroke="#9a32cd" stroke-dasharray="5,2" d="M781.91,-95.99C822.9,-110.88 879.8,-131.55 918.04,-145.44"/>
<polygon fill="#9a32cd" stroke="#9a32cd" points="782.97,-92.66 772.38,-92.53 780.58,-99.23 782.97,-92.66"/>
</a>
</g>
<text text-anchor="middle" x="845.5" y="-131.5" font-family="Helvetica,sans-Serif" font-size="10.00" fill="grey"> m_driver</text>
</g>
<!-- Node16 -->
<g id="Node000016" class="node">
<title>Node16</title>
<g id="a_Node000016"><a xlink:href="class_kit_1_1_io_1_1_serial_1_1_s_t_1_1_m32_f4_1_1_stream_driver.html#struct_kit_1_1_io_1_1_serial_1_1_s_t_1_1_m32_f4_1_1_stream_driver_1_1_hal_mapping___t" target="_top" xlink:title="Used to map a HAL UART Handle to an instance of this class.">
<polygon fill="white" stroke="#666666" points="1024,-113 897,-113 897,-72 1024,-72 1024,-113"/>
<text text-anchor="start" x="905" y="-101" font-family="Helvetica,sans-Serif" font-size="10.00">Kit::Io::Serial::ST</text>
<text text-anchor="start" x="905" y="-90" font-family="Helvetica,sans-Serif" font-size="10.00">::M32F4::StreamDriver</text>
<text text-anchor="middle" x="960.5" y="-79" font-family="Helvetica,sans-Serif" font-size="10.00">::HalMapping_T</text>
</a>
</g>
</g>
<!-- Node7&#45;&gt;Node16 -->
<g id="edge21_Node000016_Node000007" class="edge">
<title>Node7&#45;&gt;Node16</title>
<g id="a_edge21_Node000016_Node000007"><a xlink:title=" ">
<path fill="none" stroke="#9a32cd" stroke-dasharray="5,2" d="M803.93,-70.55C827.92,-69.46 854.66,-69.52 879,-72.5 884.86,-73.22 890.91,-74.22 896.93,-75.39"/>
<polygon fill="#9a32cd" stroke="#9a32cd" points="803.64,-67.06 793.84,-71.08 804.01,-74.05 803.64,-67.06"/>
</a>
</g>
<text text-anchor="middle" x="845.5" y="-75.5" font-family="Helvetica,sans-Serif" font-size="10.00" fill="grey"> driver</text>
</g>
<!-- Node8 -->
<g id="Node000008" class="node">
<title>Node8</title>
<g id="a_Node000008"><a xlink:href="class_kit_1_1_system_1_1_thread.html" target="_top" xlink:title="This mostly abstract class defines the operations that can be performed on a thread.">
<polygon fill="white" stroke="#666666" points="513.5,-132 400.5,-132 400.5,-113 513.5,-113 513.5,-132"/>
<text text-anchor="middle" x="457" y="-120" font-family="Helvetica,sans-Serif" font-size="10.00">Kit::System::Thread</text>
</a>
</g>
</g>
<!-- Node8&#45;&gt;Node7 -->
<g id="edge9_Node000007_Node000008" class="edge">
<title>Node8&#45;&gt;Node7</title>
<g id="a_edge9_Node000007_Node000008"><a xlink:title=" ">
<path fill="none" stroke="#9a32cd" stroke-dasharray="5,2" d="M492.58,-109.44C508.36,-103.99 527.4,-98.1 545,-94.5 584.92,-86.34 630.51,-82.09 666.33,-79.88"/>
<polygon fill="#9a32cd" stroke="#9a32cd" points="490.99,-106.29 482.74,-112.93 493.33,-112.89 490.99,-106.29"/>
</a>
</g>
<text text-anchor="middle" x="596.5" y="-108.5" font-family="Helvetica,sans-Serif" font-size="10.00" fill="grey"> m_rxWaiterPtr</text>
<text text-anchor="middle" x="596.5" y="-97.5" font-family="Helvetica,sans-Serif" font-size="10.00" fill="grey">m_txWaiterPtr</text>
</g>
<!-- Node12 -->
<g id="Node000012" class="node">
<title>Node12</title>
<g id="a_Node000012"><a xlink:href="class_kit_1_1_system_1_1_i_runnable.html" target="_top" xlink:title="This mostly an abstract class defines the interface for an object that is &quot;executed&quot; when a Thread ob...">
<polygon fill="white" stroke="#666666" points="794,-143 666,-143 666,-124 794,-124 794,-143"/>
<text text-anchor="middle" x="730" y="-131" font-family="Helvetica,sans-Serif" font-size="10.00">Kit::System::IRunnable</text>
</a>
</g>
</g>
<!-- Node8&#45;&gt;Node12 -->
<g id="edge15_Node000012_Node000008" class="edge">
<title>Node8&#45;&gt;Node12</title>
<g id="a_edge15_Node000012_Node000008"><a xlink:title=" ">
<path fill="none" stroke="#9a32cd" stroke-dasharray="5,2" d="M523.92,-132.56C531.02,-133.35 538.15,-134.03 545,-134.5 590.67,-137.63 602.22,-134.78 648,-134.5 653.77,-134.46 659.76,-134.41 665.77,-134.36"/>
<polygon fill="#9a32cd" stroke="#9a32cd" points="523.92,-129.03 513.58,-131.32 523.09,-135.98 523.92,-129.03"/>
</a>
</g>
<text text-anchor="middle" x="596.5" y="-138.5" font-family="Helvetica,sans-Serif" font-size="10.00" fill="grey"> m_parentThreadPtr_</text>
</g>
<!-- Node9 -->
<g id="Node000009" class="node">
<title>Node9</title>
<g id="a_Node000009"><a xlink:href="class_kit_1_1_system_1_1_i_signable.html" target="_top" xlink:title="This abstract class defines the interface by which a client can cause an object that is waiting&#45;on&#45;a&#45;...">
<polygon fill="white" stroke="#666666" points="283,-162 159,-162 159,-143 283,-143 283,-162"/>
<text text-anchor="middle" x="221" y="-150" font-family="Helvetica,sans-Serif" font-size="10.00">Kit::System::ISignable</text>
</a>
</g>
</g>
<!-- Node9&#45;&gt;Node8 -->
<g id="edge10_Node000008_Node000009" class="edge">
<title>Node9&#45;&gt;Node8</title>
<g id="a_edge10_Node000008_Node000009"><a xlink:title=" ">
<path fill="none" stroke="#63b8ff" d="M293.17,-143.38C327.59,-138.96 368.29,-133.75 400.39,-129.63"/>
<polygon fill="#63b8ff" stroke="#63b8ff" points="292.65,-139.91 283.18,-144.66 293.54,-146.86 292.65,-139.91"/>
</a>
</g>
</g>
<!-- Node10 -->
<g id="Node000010" class="node">
<title>Node10</title>
<g id="a_Node000010"><a xlink:href="class_kit_1_1_container_1_1_list_item.html" target="_top" xlink:title="This class is used by the Container classes to implement a various types of linked lists containers.">
<polygon fill="white" stroke="#666666" points="285.5,-96 156.5,-96 156.5,-77 285.5,-77 285.5,-96"/>
<text text-anchor="middle" x="221" y="-84" font-family="Helvetica,sans-Serif" font-size="10.00">Kit::Container::ListItem</text>
</a>
</g>
</g>
<!-- Node10&#45;&gt;Node8 -->
<g id="edge11_Node000008_Node000010" class="edge">
<title>Node10&#45;&gt;Node8</title>
<g id="a_edge11_Node000008_Node000010"><a xlink:title=" ">
<path fill="none" stroke="#63b8ff" d="M293.74,-97.54C327.99,-102.81 368.37,-109.02 400.27,-113.93"/>
<polygon fill="#63b8ff" stroke="#63b8ff" points="294.2,-94.07 283.79,-96.01 293.14,-100.99 294.2,-94.07"/>
</a>
</g>
</g>
<!-- Node10&#45;&gt;Node10 -->
<g id="edge13_Node000010_Node000010" class="edge">
<title>Node10&#45;&gt;Node10</title>
<g id="a_edge13_Node000010_Node000010"><a xlink:title=" ">
<path fill="none" stroke="#9a32cd" stroke-dasharray="5,2" d="M204.79,-105.91C206.07,-110.56 211.47,-114 221,-114 236.64,-114 241.16,-104.73 234.56,-96.08"/>
<polygon fill="#9a32cd" stroke="#9a32cd" points="208.22,-106.65 207.44,-96.08 201.46,-104.83 208.22,-106.65"/>
</a>
</g>
<text text-anchor="middle" x="221" y="-117" font-family="Helvetica,sans-Serif" font-size="10.00" fill="grey"> m_nextPtr_</text>
</g>
<!-- Node11 -->
<g id="Node000011" class="node">
<title>Node11</title>
<g id="a_Node000011"><a xlink:href="class_kit_1_1_container_1_1_item.html" target="_top" xlink:title="This class is used by the Intrusive Container classes to enforce the semantic and item/element can be...">
<polygon fill="white" stroke="#666666" points="113,-96 1,-96 1,-77 113,-77 113,-96"/>
<text text-anchor="middle" x="57" y="-84" font-family="Helvetica,sans-Serif" font-size="10.00">Kit::Container::Item</text>
</a>
</g>
</g>
<!-- Node11&#45;&gt;Node10 -->
<g id="edge12_Node000010_Node000011" class="edge">
<title>Node11&#45;&gt;Node10</title>
<g id="a_edge12_Node000010_Node000011"><a xlink:title=" ">
<path fill="none" stroke="#63b8ff" d="M123.52,-86.5C134.34,-86.5 145.54,-86.5 156.31,-86.5"/>
<polygon fill="#63b8ff" stroke="#63b8ff" points="123.3,-83 113.3,-86.5 123.3,-90 123.3,-83"/>
</a>
</g>
</g>
<!-- Node12&#45;&gt;Node8 -->
<g id="edge14_Node000008_Node000012" class="edge">
<title>Node12&#45;&gt;Node8</title>
<g id="a_edge14_Node000008_Node000012"><a xlink:title=" ">
<path fill="none" stroke="#9a32cd" stroke-dasharray="5,2" d="M655.72,-124.06C653.12,-123.85 650.54,-123.66 648,-123.5 602.9,-120.61 551.66,-120.52 513.76,-121.07"/>
<polygon fill="#9a32cd" stroke="#9a32cd" points="655.56,-127.56 665.84,-124.97 656.19,-120.59 655.56,-127.56"/>
</a>
</g>
<text text-anchor="middle" x="596.5" y="-126.5" font-family="Helvetica,sans-Serif" font-size="10.00" fill="grey"> m_runnable</text>
</g>
<!-- Node13 -->
<g id="Node000013" class="node">
<title>Node13</title>
<g id="a_Node000013"><a xlink:href="class_kit_1_1_container_1_1_ring_buffer.html" target="_top" xlink:title=" ">
<polygon fill="white" stroke="#666666" points="527,-47.5 387,-47.5 387,-17.5 527,-17.5 527,-47.5"/>
<text text-anchor="start" x="395" y="-35.5" font-family="Helvetica,sans-Serif" font-size="10.00">Kit::Container::RingBuffer</text>
<text text-anchor="middle" x="457" y="-24.5" font-family="Helvetica,sans-Serif" font-size="10.00">&lt; uint8_t &gt;</text>
</a>
</g>
</g>
<!-- Node13&#45;&gt;Node7 -->
<g id="edge16_Node000007_Node000013" class="edge">
<title>Node13&#45;&gt;Node7</title>
<g id="a_edge16_Node000007_Node000013"><a xlink:title=" ">
<path fill="none" stroke="#9a32cd" stroke-dasharray="5,2" d="M536.98,-38.77C571.3,-42.23 611.83,-47.32 648,-54.5 658.75,-56.63 670.16,-59.49 680.91,-62.47"/>
<polygon fill="#9a32cd" stroke="#9a32cd" points="537.31,-35.28 527.01,-37.79 536.62,-42.25 537.31,-35.28"/>
</a>
</g>
<text text-anchor="middle" x="596.5" y="-68.5" font-family="Helvetica,sans-Serif" font-size="10.00" fill="grey"> m_rxBuffer</text>
<text text-anchor="middle" x="596.5" y="-57.5" font-family="Helvetica,sans-Serif" font-size="10.00" fill="grey">m_txBuffer</text>
</g>
<!-- Node14 -->
<g id="Node000014" class="node">
<title>Node14</title>
<g id="a_Node000014"><a xlink:title=" ">
<polygon fill="white" stroke="#bfbfbf" points="114,-19 0,-19 0,0 114,0 114,-19"/>
<text text-anchor="middle" x="57" y="-7" font-family="Helvetica,sans-Serif" font-size="10.00">RingBufferBaseType</text>
</a>
</g>
</g>
<!-- Node14&#45;&gt;Node13 -->
<g id="edge17_Node000013_Node000014" class="edge">
<title>Node14&#45;&gt;Node13</title>
<g id="a_edge17_Node000013_Node000014"><a xlink:title=" ">
<path fill="none" stroke="#63b8ff" d="M124.38,-7.99C171.04,-7.44 234.9,-7.7 291,-11.5 322.55,-13.64 357.3,-17.79 386.73,-21.84"/>
<polygon fill="#63b8ff" stroke="#63b8ff" points="124.05,-4.5 114.1,-8.13 124.14,-11.49 124.05,-4.5"/>
</a>
</g>
</g>
<!-- Node15 -->
<g id="Node000015" class="node">
<title>Node15</title>
<g id="a_Node000015"><a xlink:href="class_kit_1_1_container_1_1_ring_buffer.html" target="_top" xlink:title="This template class implements a Ring Buffer.">
<polygon fill="white" stroke="#666666" points="291,-50.5 151,-50.5 151,-20.5 291,-20.5 291,-50.5"/>
<text text-anchor="start" x="159" y="-38.5" font-family="Helvetica,sans-Serif" font-size="10.00">Kit::Container::RingBuffer</text>
<text text-anchor="middle" x="221" y="-27.5" font-family="Helvetica,sans-Serif" font-size="10.00">&lt; ITEM &gt;</text>
</a>
</g>
</g>
<!-- Node14&#45;&gt;Node15 -->
<g id="edge19_Node000015_Node000014" class="edge">
<title>Node14&#45;&gt;Node15</title>
<g id="a_edge19_Node000015_Node000014"><a xlink:title=" ">
<path fill="none" stroke="#63b8ff" d="M124.31,-20.14C133.03,-21.54 141.99,-22.98 150.76,-24.39"/>
<polygon fill="#63b8ff" stroke="#63b8ff" points="124.63,-16.65 114.21,-18.52 123.52,-23.56 124.63,-16.65"/>
</a>
</g>
</g>
<!-- Node15&#45;&gt;Node13 -->
<g id="edge18_Node000013_Node000015" class="edge">
<title>Node15&#45;&gt;Node13</title>
<g id="a_edge18_Node000013_Node000015"><a xlink:title=" ">
<path fill="none" stroke="orange" stroke-dasharray="5,2" d="M301.33,-34.48C329.11,-34.13 360.05,-33.73 386.92,-33.39"/>
<polygon fill="orange" stroke="orange" points="301.21,-30.98 291.26,-34.61 301.3,-37.98 301.21,-30.98"/>
</a>
</g>
<text text-anchor="middle" x="339" y="-37.5" font-family="Helvetica,sans-Serif" font-size="10.00" fill="grey"> &lt; uint8_t &gt;</text>
</g>
<!-- Node16&#45;&gt;Node7 -->
<g id="edge20_Node000007_Node000016" class="edge">
<title>Node16&#45;&gt;Node7</title>
<g id="a_edge20_Node000007_Node000016"><a xlink:title=" ">
<path fill="none" stroke="#9a32cd" stroke-dasharray="5,2" d="M886.64,-89.78C862.83,-88.69 836.27,-87.27 812,-85.5 806.08,-85.07 799.92,-84.56 793.77,-84.02"/>
<polygon fill="#9a32cd" stroke="#9a32cd" points="886.51,-93.28 896.66,-90.23 886.82,-86.28 886.51,-93.28"/>
</a>
</g>
<text text-anchor="middle" x="845.5" y="-91.5" font-family="Helvetica,sans-Serif" font-size="10.00" fill="grey"> m_mappings</text>
</g>
</g>
</svg>
