<?xml version="1.0" encoding="UTF-8" standalone="no"?>
<!DOCTYPE svg PUBLIC "-//W3C//DTD SVG 1.1//EN"
 "http://www.w3.org/Graphics/SVG/1.1/DTD/svg11.dtd">
<!-- Generated by graphviz version 2.43.0 (0)
 -->
<!-- Title: Kit::Io::IInput Pages: 1 -->
<svg width="760pt" height="242pt"
 viewBox="0.00 0.00 760.00 242.00" xmlns="http://www.w3.org/2000/svg" xmlns:xlink="http://www.w3.org/1999/xlink">
<g id="graph0" class="graph" transform="scale(1 1) rotate(0) translate(4 238)">
<title>Kit::Io::IInput</title>
<!-- Node1 -->
<g id="Node000001" class="node">
<title>Node1</title>
<g id="a_Node000001"><a xlink:title="This partially abstract class defines a interface for operating on an input stream (example of a stre...">
<polygon fill="#999999" stroke="#666666" points="196,-99 117,-99 117,-80 196,-80 196,-99"/>
<text text-anchor="middle" x="156.5" y="-87" font-family="Helvetica,sans-Serif" font-size="10.00">Kit::Io::IInput</text>
</a>
</g>
</g>
<!-- Node4 -->
<g id="Node000004" class="node">
<title>Node4</title>
<g id="a_Node000004"><a xlink:href="class_kit_1_1_io_1_1_file_1_1_i_input.html" target="_top" xlink:title="This abstract class defines the interface for a Random Access Input File.">
<polygon fill="white" stroke="#666666" points="358.5,-179 256.5,-179 256.5,-160 358.5,-160 358.5,-179"/>
<text text-anchor="middle" x="307.5" y="-167" font-family="Helvetica,sans-Serif" font-size="10.00">Kit::Io::File::IInput</text>
</a>
</g>
</g>
<!-- Node1&#45;&gt;Node4 -->
<g id="edge3_Node000001_Node000004" class="edge">
<title>Node1&#45;&gt;Node4</title>
<g id="a_edge3_Node000001_Node000004"><a xlink:title=" ">
<path fill="none" stroke="#63b8ff" d="M184.59,-104.04C214.73,-120.23 262.59,-145.92 288.46,-159.82"/>
<polygon fill="#63b8ff" stroke="#63b8ff" points="185.94,-100.8 175.47,-99.15 182.63,-106.96 185.94,-100.8"/>
</a>
</g>
</g>
<!-- Node9 -->
<g id="Node000009" class="node">
<title>Node9</title>
<g id="a_Node000009"><a xlink:href="class_kit_1_1_io_1_1_i_input_output.html" target="_top" xlink:title="This abstract class defines a interface for operating on an input&#45;output stream.">
<polygon fill="white" stroke="#666666" points="363.5,-99 251.5,-99 251.5,-80 363.5,-80 363.5,-99"/>
<text text-anchor="middle" x="307.5" y="-87" font-family="Helvetica,sans-Serif" font-size="10.00">Kit::Io::IInputOutput</text>
</a>
</g>
</g>
<!-- Node1&#45;&gt;Node9 -->
<g id="edge8_Node000001_Node000009" class="edge">
<title>Node1&#45;&gt;Node9</title>
<g id="a_edge8_Node000001_Node000009"><a xlink:title=" ">
<path fill="none" stroke="#63b8ff" d="M206.44,-89.5C220.82,-89.5 236.65,-89.5 251.39,-89.5"/>
<polygon fill="#63b8ff" stroke="#63b8ff" points="206.26,-86 196.26,-89.5 206.26,-93 206.26,-86"/>
</a>
</g>
</g>
<!-- Node14 -->
<g id="Node000014" class="node">
<title>Node14</title>
<g id="a_Node000014"><a xlink:href="class_kit_1_1_io_1_1_stdio_1_1_input_delegate.html" target="_top" xlink:title="This concrete class implements a Input stream using the underlying platform&#39;s native OS interface for...">
<polygon fill="white" stroke="#666666" points="383,-41 232,-41 232,-22 383,-22 383,-41"/>
<text text-anchor="middle" x="307.5" y="-29" font-family="Helvetica,sans-Serif" font-size="10.00">Kit::Io::Stdio::InputDelegate</text>
</a>
</g>
</g>
<!-- Node1&#45;&gt;Node14 -->
<g id="edge13_Node000001_Node000014" class="edge">
<title>Node1&#45;&gt;Node14</title>
<g id="a_edge13_Node000001_Node000014"><a xlink:title=" ">
<path fill="none" stroke="#63b8ff" d="M191.73,-76.18C219.25,-65.46 257.26,-50.67 281.86,-41.09"/>
<polygon fill="#63b8ff" stroke="#63b8ff" points="190.15,-73.03 182.1,-79.92 192.69,-79.56 190.15,-73.03"/>
</a>
</g>
</g>
<!-- Node2 -->
<g id="Node000002" class="node">
<title>Node2</title>
<g id="a_Node000002"><a xlink:href="class_kit_1_1_io_1_1_i_close.html" target="_top" xlink:title="This abstract class defines a close operation that is intended to be used Input and Output streams/fi...">
<polygon fill="white" stroke="#666666" points="81,-118 0,-118 0,-99 81,-99 81,-118"/>
<text text-anchor="middle" x="40.5" y="-106" font-family="Helvetica,sans-Serif" font-size="10.00">Kit::Io::IClose</text>
</a>
</g>
</g>
<!-- Node2&#45;&gt;Node1 -->
<g id="edge1_Node000001_Node000002" class="edge">
<title>Node2&#45;&gt;Node1</title>
<g id="a_edge1_Node000001_Node000002"><a xlink:title=" ">
<path fill="none" stroke="#63b8ff" d="M91.02,-100.25C99.65,-98.81 108.51,-97.33 116.79,-95.95"/>
<polygon fill="#63b8ff" stroke="#63b8ff" points="90.34,-96.81 81.05,-101.91 91.49,-103.72 90.34,-96.81"/>
</a>
</g>
</g>
<!-- Node3 -->
<g id="Node000003" class="node">
<title>Node3</title>
<g id="a_Node000003"><a xlink:href="class_kit_1_1_io_1_1_i_eos.html" target="_top" xlink:title="This abstract class defines a isEos() operation that is intended to be used Input and Output streams.">
<polygon fill="white" stroke="#666666" points="76,-81 5,-81 5,-62 76,-62 76,-81"/>
<text text-anchor="middle" x="40.5" y="-69" font-family="Helvetica,sans-Serif" font-size="10.00">Kit::Io::IEos</text>
</a>
</g>
</g>
<!-- Node3&#45;&gt;Node1 -->
<g id="edge2_Node000001_Node000003" class="edge">
<title>Node3&#45;&gt;Node1</title>
<g id="a_edge2_Node000001_Node000003"><a xlink:title=" ">
<path fill="none" stroke="#63b8ff" d="M85.94,-78.52C96.1,-80.12 106.82,-81.81 116.72,-83.38"/>
<polygon fill="#63b8ff" stroke="#63b8ff" points="86.44,-75.05 76.01,-76.95 85.34,-81.97 86.44,-75.05"/>
</a>
</g>
</g>
<!-- Node5 -->
<g id="Node000005" class="node">
<title>Node5</title>
<g id="a_Node000005"><a xlink:href="class_kit_1_1_io_1_1_file_1_1_i_input_output.html" target="_top" xlink:title="This abstract class defines the interface for a Random Access Input Output File.">
<polygon fill="white" stroke="#666666" points="561.5,-216 426.5,-216 426.5,-197 561.5,-197 561.5,-216"/>
<text text-anchor="middle" x="494" y="-204" font-family="Helvetica,sans-Serif" font-size="10.00">Kit::Io::File::IInputOutput</text>
</a>
</g>
</g>
<!-- Node4&#45;&gt;Node5 -->
<g id="edge4_Node000004_Node000005" class="edge">
<title>Node4&#45;&gt;Node5</title>
<g id="a_edge4_Node000004_Node000005"><a xlink:title=" ">
<path fill="none" stroke="#63b8ff" d="M365.92,-181.02C391.42,-186.13 421.08,-192.08 445.33,-196.94"/>
<polygon fill="#63b8ff" stroke="#63b8ff" points="366.51,-177.56 356.01,-179.03 365.13,-184.43 366.51,-177.56"/>
</a>
</g>
</g>
<!-- Node8 -->
<g id="Node000008" class="node">
<title>Node8</title>
<g id="a_Node000008"><a xlink:href="class_kit_1_1_io_1_1_file_1_1_input.html" target="_top" xlink:title="This concrete class provides a platform independent implementation of a Kit::Io::File::Input object.">
<polygon fill="white" stroke="#666666" points="543.5,-179 444.5,-179 444.5,-160 543.5,-160 543.5,-179"/>
<text text-anchor="middle" x="494" y="-167" font-family="Helvetica,sans-Serif" font-size="10.00">Kit::Io::File::Input</text>
</a>
</g>
</g>
<!-- Node4&#45;&gt;Node8 -->
<g id="edge7_Node000004_Node000008" class="edge">
<title>Node4&#45;&gt;Node8</title>
<g id="a_edge7_Node000004_Node000008"><a xlink:title=" ">
<path fill="none" stroke="#63b8ff" d="M369.13,-169.5C393.5,-169.5 421.21,-169.5 444.24,-169.5"/>
<polygon fill="#63b8ff" stroke="#63b8ff" points="368.92,-166 358.92,-169.5 368.92,-173 368.92,-166"/>
</a>
</g>
</g>
<!-- Node6 -->
<g id="Node000006" class="node">
<title>Node6</title>
<g id="a_Node000006"><a xlink:href="class_kit_1_1_io_1_1_file_1_1_input_output.html" target="_top" xlink:title="This concrete class provides a platform independent implementation of an Kit::Io::File::IInputOutput ...">
<polygon fill="white" stroke="#666666" points="744.5,-234 612.5,-234 612.5,-215 744.5,-215 744.5,-234"/>
<text text-anchor="middle" x="678.5" y="-222" font-family="Helvetica,sans-Serif" font-size="10.00">Kit::Io::File::InputOutput</text>
</a>
</g>
</g>
<!-- Node5&#45;&gt;Node6 -->
<g id="edge5_Node000005_Node000006" class="edge">
<title>Node5&#45;&gt;Node6</title>
<g id="a_edge5_Node000005_Node000006"><a xlink:title=" ">
<path fill="none" stroke="#63b8ff" d="M571.84,-214.08C585.28,-215.4 599.15,-216.77 612.24,-218.06"/>
<polygon fill="#63b8ff" stroke="#63b8ff" points="571.96,-210.57 561.66,-213.07 571.27,-217.54 571.96,-210.57"/>
</a>
</g>
</g>
<!-- Node7 -->
<g id="Node000007" class="node">
<title>Node7</title>
<g id="a_Node000007"><a xlink:href="class_kit_1_1_io_1_1_file_1_1_null.html" target="_top" xlink:title="This concrete class implements a NULL IInputOutput File that all of its input operations return &#39;End&#45;...">
<polygon fill="white" stroke="#666666" points="725.5,-197 631.5,-197 631.5,-178 725.5,-178 725.5,-197"/>
<text text-anchor="middle" x="678.5" y="-185" font-family="Helvetica,sans-Serif" font-size="10.00">Kit::Io::File::Null</text>
</a>
</g>
</g>
<!-- Node5&#45;&gt;Node7 -->
<g id="edge6_Node000005_Node000007" class="edge">
<title>Node5&#45;&gt;Node7</title>
<g id="a_edge6_Node000005_Node000007"><a xlink:title=" ">
<path fill="none" stroke="#63b8ff" d="M571.81,-198.5C592.02,-196.4 613.21,-194.19 631.27,-192.31"/>
<polygon fill="#63b8ff" stroke="#63b8ff" points="571.25,-195.04 561.66,-199.56 571.97,-202.01 571.25,-195.04"/>
</a>
</g>
</g>
<!-- Node10 -->
<g id="Node000010" class="node">
<title>Node10</title>
<g id="a_Node000010"><a xlink:href="class_kit_1_1_io_1_1_null.html" target="_top" xlink:title="This concrete class implements a NULL InputOutput stream &#45; that all of its input operations return &#39;E...">
<polygon fill="white" stroke="#666666" points="529.5,-142 458.5,-142 458.5,-123 529.5,-123 529.5,-142"/>
<text text-anchor="middle" x="494" y="-130" font-family="Helvetica,sans-Serif" font-size="10.00">Kit::Io::Null</text>
</a>
</g>
</g>
<!-- Node9&#45;&gt;Node10 -->
<g id="edge9_Node000009_Node000010" class="edge">
<title>Node9&#45;&gt;Node10</title>
<g id="a_edge9_Node000009_Node000010"><a xlink:title=" ">
<path fill="none" stroke="#63b8ff" d="M359.36,-101.35C390.86,-108.69 430.47,-117.93 458.36,-124.43"/>
<polygon fill="#63b8ff" stroke="#63b8ff" points="359.98,-97.9 349.45,-99.04 358.39,-104.72 359.98,-97.9"/>
</a>
</g>
</g>
<!-- Node11 -->
<g id="Node000011" class="node">
<title>Node11</title>
<g id="a_Node000011"><a xlink:href="class_kit_1_1_io_1_1_serial_1_1_s_t_1_1_m32_f4_1_1_input_output.html" target="_top" xlink:title="This concrete class implements the InputOutput stream interface built on top of ST HAL Layer/SDK.">
<polygon fill="white" stroke="#666666" points="553.5,-104.5 434.5,-104.5 434.5,-74.5 553.5,-74.5 553.5,-104.5"/>
<text text-anchor="start" x="442.5" y="-92.5" font-family="Helvetica,sans-Serif" font-size="10.00">Kit::Io::Serial::ST</text>
<text text-anchor="middle" x="494" y="-81.5" font-family="Helvetica,sans-Serif" font-size="10.00">::M32F4::InputOutput</text>
</a>
</g>
</g>
<!-- Node9&#45;&gt;Node11 -->
<g id="edge10_Node000009_Node000011" class="edge">
<title>Node9&#45;&gt;Node11</title>
<g id="a_edge10_Node000009_Node000011"><a xlink:title=" ">
<path fill="none" stroke="#63b8ff" d="M373.99,-89.5C393.72,-89.5 415.23,-89.5 434.48,-89.5"/>
<polygon fill="#63b8ff" stroke="#63b8ff" points="373.86,-86 363.86,-89.5 373.86,-93 373.86,-86"/>
</a>
</g>
</g>
<!-- Node12 -->
<g id="Node000012" class="node">
<title>Node12</title>
<g id="a_Node000012"><a xlink:href="class_kit_1_1_io_1_1_socket_1_1_i_input_output.html" target="_top" xlink:title="This abstract class defines the interface for a BSD socket.">
<polygon fill="white" stroke="#666666" points="569,-56 419,-56 419,-37 569,-37 569,-56"/>
<text text-anchor="middle" x="494" y="-44" font-family="Helvetica,sans-Serif" font-size="10.00">Kit::Io::Socket::IInputOutput</text>
</a>
</g>
</g>
<!-- Node9&#45;&gt;Node12 -->
<g id="edge11_Node000009_Node000012" class="edge">
<title>Node9&#45;&gt;Node12</title>
<g id="a_edge11_Node000009_Node000012"><a xlink:title=" ">
<path fill="none" stroke="#63b8ff" d="M359.46,-77.62C388.67,-70.81 424.84,-62.38 452.17,-56.02"/>
<polygon fill="#63b8ff" stroke="#63b8ff" points="358.39,-74.28 349.45,-79.96 359.98,-81.1 358.39,-74.28"/>
</a>
</g>
</g>
<!-- Node13 -->
<g id="Node000013" class="node">
<title>Node13</title>
<g id="a_Node000013"><a xlink:href="class_kit_1_1_io_1_1_socket_1_1_input_output.html" target="_top" xlink:title="This concrete class provides a platform independent &#39;standard&#39; implementation of an InputOutput strea...">
<polygon fill="white" stroke="#666666" points="752,-56 605,-56 605,-37 752,-37 752,-56"/>
<text text-anchor="middle" x="678.5" y="-44" font-family="Helvetica,sans-Serif" font-size="10.00">Kit::Io::Socket::InputOutput</text>
</a>
</g>
</g>
<!-- Node12&#45;&gt;Node13 -->
<g id="edge12_Node000012_Node000013" class="edge">
<title>Node12&#45;&gt;Node13</title>
<g id="a_edge12_Node000012_Node000013"><a xlink:title=" ">
<path fill="none" stroke="#63b8ff" d="M579.49,-46.5C587.95,-46.5 596.49,-46.5 604.81,-46.5"/>
<polygon fill="#63b8ff" stroke="#63b8ff" points="579.23,-43 569.23,-46.5 579.23,-50 579.23,-43"/>
</a>
</g>
</g>
<!-- Node15 -->
<g id="Node000015" class="node">
<title>Node15</title>
<g id="a_Node000015"><a xlink:href="class_kit_1_1_io_1_1_stdio_1_1_std_in.html" target="_top" xlink:title="This concrete class represents the C&#45;library &#39;stdin&#39; stream.">
<polygon fill="white" stroke="#666666" points="547.5,-19 440.5,-19 440.5,0 547.5,0 547.5,-19"/>
<text text-anchor="middle" x="494" y="-7" font-family="Helvetica,sans-Serif" font-size="10.00">Kit::Io::Stdio::StdIn</text>
</a>
</g>
</g>
<!-- Node14&#45;&gt;Node15 -->
<g id="edge14_Node000014_Node000015" class="edge">
<title>Node14&#45;&gt;Node15</title>
<g id="a_edge14_Node000014_Node000015"><a xlink:title=" ">
<path fill="none" stroke="#63b8ff" d="M392.99,-21.43C409.11,-19.5 425.55,-17.54 440.31,-15.78"/>
<polygon fill="#63b8ff" stroke="#63b8ff" points="392.53,-17.96 383.01,-22.62 393.36,-24.91 392.53,-17.96"/>
</a>
</g>
</g>
</g>
</svg>
