<?xml version="1.0" encoding="UTF-8" standalone="no"?>
<!DOCTYPE svg PUBLIC "-//W3C//DTD SVG 1.1//EN"
 "http://www.w3.org/Graphics/SVG/1.1/DTD/svg11.dtd">
<!-- Generated by graphviz version 2.43.0 (0)
 -->
<!-- Title: Kit::System::IStartupHook Pages: 1 -->
<svg width="250pt" height="203pt"
 viewBox="0.00 0.00 250.00 203.00" xmlns="http://www.w3.org/2000/svg" xmlns:xlink="http://www.w3.org/1999/xlink">
<g id="graph0" class="graph" transform="scale(1 1) rotate(0) translate(4 199)">
<title>Kit::System::IStartupHook</title>
<!-- Node1 -->
<g id="Node000001" class="node">
<title>Node1</title>
<g id="a_Node000001"><a xlink:title="This class defines a start&#45;up handler/hook that allows a KIT Library sub&#45;system to register to be cal...">
<polygon fill="#999999" stroke="#666666" points="192.5,-85 49.5,-85 49.5,-66 192.5,-66 192.5,-85"/>
<text text-anchor="middle" x="121" y="-73" font-family="Helvetica,sans-Serif" font-size="10.00">Kit::System::IStartupHook</text>
</a>
</g>
</g>
<!-- Node4 -->
<g id="Node000004" class="node">
<title>Node4</title>
<g id="a_Node000004"><a xlink:href="class_kit_1_1_system_1_1_r_p_pico_1_1_mutex___t.html" target="_top" xlink:title="This class implements a brute force approach to initializing a &#39;pico mutex&#39; when the Kit C++ library ...">
<polygon fill="white" stroke="#666666" points="112,-30 0,-30 0,0 112,0 112,-30"/>
<text text-anchor="start" x="8" y="-18" font-family="Helvetica,sans-Serif" font-size="10.00">Kit::System::RPPico</text>
<text text-anchor="middle" x="56" y="-7" font-family="Helvetica,sans-Serif" font-size="10.00">::Mutex_T</text>
</a>
</g>
</g>
<!-- Node1&#45;&gt;Node4 -->
<g id="edge3_Node000001_Node000004" class="edge">
<title>Node1&#45;&gt;Node4</title>
<g id="a_edge3_Node000001_Node000004"><a xlink:title=" ">
<path fill="none" stroke="#63b8ff" d="M103.74,-58.97C93.78,-50.01 81.36,-38.82 71.68,-30.11"/>
<polygon fill="#63b8ff" stroke="#63b8ff" points="101.63,-61.78 111.41,-65.87 106.32,-56.58 101.63,-61.78"/>
</a>
</g>
</g>
<!-- Node5 -->
<g id="Node000005" class="node">
<title>Node5</title>
<g id="a_Node000005"><a xlink:href="class_kit_1_1_system_1_1_r_p_pico_1_1_semaphore___t.html" target="_top" xlink:title="This class implements a brute force approach to initializing a &#39;pico semaphore&#39; when the Kit C++ libr...">
<polygon fill="white" stroke="#666666" points="242,-30 130,-30 130,0 242,0 242,-30"/>
<text text-anchor="start" x="138" y="-18" font-family="Helvetica,sans-Serif" font-size="10.00">Kit::System::RPPico</text>
<text text-anchor="middle" x="186" y="-7" font-family="Helvetica,sans-Serif" font-size="10.00">::Semaphore_T</text>
</a>
</g>
</g>
<!-- Node1&#45;&gt;Node5 -->
<g id="edge4_Node000001_Node000005" class="edge">
<title>Node1&#45;&gt;Node5</title>
<g id="a_edge4_Node000001_Node000005"><a xlink:title=" ">
<path fill="none" stroke="#63b8ff" d="M138.26,-58.97C148.22,-50.01 160.64,-38.82 170.32,-30.11"/>
<polygon fill="#63b8ff" stroke="#63b8ff" points="135.68,-56.58 130.59,-65.87 140.37,-61.78 135.68,-56.58"/>
</a>
</g>
</g>
<!-- Node2 -->
<g id="Node000002" class="node">
<title>Node2</title>
<g id="a_Node000002"><a xlink:href="class_kit_1_1_container_1_1_list_item.html" target="_top" xlink:title="This class is used by the Container classes to implement a various types of linked lists containers.">
<polygon fill="white" stroke="#666666" points="185.5,-140 56.5,-140 56.5,-121 185.5,-121 185.5,-140"/>
<text text-anchor="middle" x="121" y="-128" font-family="Helvetica,sans-Serif" font-size="10.00">Kit::Container::ListItem</text>
</a>
</g>
</g>
<!-- Node2&#45;&gt;Node1 -->
<g id="edge1_Node000001_Node000002" class="edge">
<title>Node2&#45;&gt;Node1</title>
<g id="a_edge1_Node000001_Node000002"><a xlink:title=" ">
<path fill="none" stroke="#63b8ff" d="M121,-110.66C121,-101.93 121,-91.99 121,-85.09"/>
<polygon fill="#63b8ff" stroke="#63b8ff" points="117.5,-110.75 121,-120.75 124.5,-110.75 117.5,-110.75"/>
</a>
</g>
</g>
<!-- Node3 -->
<g id="Node000003" class="node">
<title>Node3</title>
<g id="a_Node000003"><a xlink:href="class_kit_1_1_container_1_1_item.html" target="_top" xlink:title="This class is used by the Intrusive Container classes to enforce the semantic and item/element can be...">
<polygon fill="white" stroke="#666666" points="177,-195 65,-195 65,-176 177,-176 177,-195"/>
<text text-anchor="middle" x="121" y="-183" font-family="Helvetica,sans-Serif" font-size="10.00">Kit::Container::Item</text>
</a>
</g>
</g>
<!-- Node3&#45;&gt;Node2 -->
<g id="edge2_Node000002_Node000003" class="edge">
<title>Node3&#45;&gt;Node2</title>
<g id="a_edge2_Node000002_Node000003"><a xlink:title=" ">
<path fill="none" stroke="#63b8ff" d="M121,-165.66C121,-156.93 121,-146.99 121,-140.09"/>
<polygon fill="#63b8ff" stroke="#63b8ff" points="117.5,-165.75 121,-175.75 124.5,-165.75 117.5,-165.75"/>
</a>
</g>
</g>
</g>
</svg>
