<?xml version="1.0" encoding="UTF-8" standalone="no"?>
<!DOCTYPE svg PUBLIC "-//W3C//DTD SVG 1.1//EN"
 "http://www.w3.org/Graphics/SVG/1.1/DTD/svg11.dtd">
<!-- Generated by graphviz version 2.43.0 (0)
 -->
<!-- Title: Kit::Container::DList&lt; ITEM &gt; Pages: 1 -->
<svg width="606pt" height="98pt"
 viewBox="0.00 0.00 606.00 97.50" xmlns="http://www.w3.org/2000/svg" xmlns:xlink="http://www.w3.org/1999/xlink">
<g id="graph0" class="graph" transform="scale(1 1) rotate(0) translate(4 93.5)">
<title>Kit::Container::DList&lt; ITEM &gt;</title>
<!-- Node1 -->
<g id="Node000001" class="node">
<title>Node1</title>
<g id="a_Node000001"><a xlink:title="This template class implements a singly linked list which maintains the ordering imposed on it by the...">
<polygon fill="#999999" stroke="#666666" points="289,-57 175,-57 175,-27 289,-27 289,-57"/>
<text text-anchor="start" x="183" y="-45" font-family="Helvetica,sans-Serif" font-size="10.00">Kit::Container::DList</text>
<text text-anchor="middle" x="232" y="-34" font-family="Helvetica,sans-Serif" font-size="10.00">&lt; ITEM &gt;</text>
</a>
</g>
</g>
<!-- Node3 -->
<g id="Node000003" class="node">
<title>Node3</title>
<g id="a_Node000003"><a xlink:href="class_kit_1_1_container_1_1_d_list.html" target="_top" xlink:title=" ">
<polygon fill="white" stroke="#666666" points="586.5,-89.5 466.5,-89.5 466.5,-48.5 586.5,-48.5 586.5,-89.5"/>
<text text-anchor="start" x="474.5" y="-77.5" font-family="Helvetica,sans-Serif" font-size="10.00">Kit::Container::DList</text>
<text text-anchor="start" x="474.5" y="-66.5" font-family="Helvetica,sans-Serif" font-size="10.00">&lt; Kit::Memory::Pool::</text>
<text text-anchor="middle" x="526.5" y="-55.5" font-family="Helvetica,sans-Serif" font-size="10.00">BlockInfo &gt;</text>
</a>
</g>
</g>
<!-- Node1&#45;&gt;Node3 -->
<g id="edge2_Node000001_Node000003" class="edge">
<title>Node1&#45;&gt;Node3</title>
<g id="a_edge2_Node000001_Node000003"><a xlink:title=" ">
<path fill="none" stroke="orange" stroke-dasharray="5,2" d="M299.17,-48.11C349.43,-52.75 417.94,-59.07 466.38,-63.54"/>
<polygon fill="orange" stroke="orange" points="299.33,-44.61 289.05,-47.17 298.69,-51.58 299.33,-44.61"/>
</a>
</g>
<text text-anchor="start" x="321.5" y="-75" font-family="Helvetica,sans-Serif" font-size="10.00" fill="grey"> &lt; Kit::Memory::Pool</text>
<text text-anchor="middle" x="372" y="-64" font-family="Helvetica,sans-Serif" font-size="10.00" fill="grey">::BlockInfo &gt;</text>
</g>
<!-- Node4 -->
<g id="Node000004" class="node">
<title>Node4</title>
<g id="a_Node000004"><a xlink:href="class_kit_1_1_container_1_1_d_list.html" target="_top" xlink:title=" ">
<polygon fill="white" stroke="#666666" points="598,-30 455,-30 455,0 598,0 598,-30"/>
<text text-anchor="start" x="463" y="-18" font-family="Helvetica,sans-Serif" font-size="10.00">Kit::Container::DList</text>
<text text-anchor="middle" x="526.5" y="-7" font-family="Helvetica,sans-Serif" font-size="10.00">&lt; Kit::System::ICounter &gt;</text>
</a>
</g>
</g>
<!-- Node1&#45;&gt;Node4 -->
<g id="edge3_Node000001_Node000004" class="edge">
<title>Node1&#45;&gt;Node4</title>
<g id="a_edge3_Node000001_Node000004"><a xlink:title=" ">
<path fill="none" stroke="orange" stroke-dasharray="5,2" d="M299.29,-35.72C301.89,-35.48 304.47,-35.24 307,-35 356.31,-30.41 411.88,-25.33 454.64,-21.43"/>
<polygon fill="orange" stroke="orange" points="298.79,-32.25 289.16,-36.67 299.44,-39.22 298.79,-32.25"/>
</a>
</g>
<text text-anchor="middle" x="372" y="-38" font-family="Helvetica,sans-Serif" font-size="10.00" fill="grey"> &lt; Kit::System::ICounter &gt;</text>
</g>
<!-- Node2 -->
<g id="Node000002" class="node">
<title>Node2</title>
<g id="a_Node000002"><a xlink:href="class_kit_1_1_container_1_1_d_list_base.html" target="_top" xlink:title="This protected base class implements a NON&#45;TYPE&#45;SAFE a doubly linked list which maintains the orderin...">
<polygon fill="white" stroke="#666666" points="138,-51.5 0,-51.5 0,-32.5 138,-32.5 138,-51.5"/>
<text text-anchor="middle" x="69" y="-39.5" font-family="Helvetica,sans-Serif" font-size="10.00">Kit::Container::DListBase</text>
</a>
</g>
</g>
<!-- Node2&#45;&gt;Node1 -->
<g id="edge1_Node000001_Node000002" class="edge">
<title>Node2&#45;&gt;Node1</title>
<g id="a_edge1_Node000001_Node000002"><a xlink:title=" ">
<path fill="none" stroke="#63b8ff" d="M148.32,-42C157.26,-42 166.22,-42 174.79,-42"/>
<polygon fill="#63b8ff" stroke="#63b8ff" points="148.28,-38.5 138.28,-42 148.28,-45.5 148.28,-38.5"/>
</a>
</g>
</g>
</g>
</svg>
