<?xml version="1.0" encoding="UTF-8" standalone="no"?>
<!DOCTYPE svg PUBLIC "-//W3C//DTD SVG 1.1//EN"
 "http://www.w3.org/Graphics/SVG/1.1/DTD/svg11.dtd">
<!-- Generated by graphviz version 2.43.0 (0)
 -->
<!-- Title: Kit::Io::IInput Pages: 1 -->
<svg width="760pt" height="193pt"
 viewBox="0.00 0.00 760.00 193.00" xmlns="http://www.w3.org/2000/svg" xmlns:xlink="http://www.w3.org/1999/xlink">
<g id="graph0" class="graph" transform="scale(1 1) rotate(0) translate(4 189)">
<title>Kit::Io::IInput</title>
<!-- Node1 -->
<g id="Node000001" class="node">
<title>Node1</title>
<g id="a_Node000001"><a xlink:title="This partially abstract class defines a interface for operating on an input stream (example of a stre...">
<polygon fill="#999999" stroke="#666666" points="196,-84 117,-84 117,-65 196,-65 196,-84"/>
<text text-anchor="middle" x="156.5" y="-72" font-family="Helvetica,sans-Serif" font-size="10.00">Kit::Io::IInput</text>
</a>
</g>
</g>
<!-- Node4 -->
<g id="Node000004" class="node">
<title>Node4</title>
<g id="a_Node000004"><a xlink:href="class_kit_1_1_io_1_1_file_1_1_i_input.html" target="_top" xlink:title="This abstract class defines the interface for a Random Access Input File.">
<polygon fill="white" stroke="#666666" points="358.5,-130 256.5,-130 256.5,-111 358.5,-111 358.5,-130"/>
<text text-anchor="middle" x="307.5" y="-118" font-family="Helvetica,sans-Serif" font-size="10.00">Kit::Io::File::IInput</text>
</a>
</g>
</g>
<!-- Node1&#45;&gt;Node4 -->
<g id="edge3_Node000001_Node000004" class="edge">
<title>Node1&#45;&gt;Node4</title>
<g id="a_edge3_Node000001_Node000004"><a xlink:title=" ">
<path fill="none" stroke="#63b8ff" d="M198.09,-87.03C222.55,-94.58 253.2,-104.05 275.67,-110.98"/>
<polygon fill="#63b8ff" stroke="#63b8ff" points="198.96,-83.64 188.37,-84.03 196.9,-90.33 198.96,-83.64"/>
</a>
</g>
</g>
<!-- Node9 -->
<g id="Node000009" class="node">
<title>Node9</title>
<g id="a_Node000009"><a xlink:href="class_kit_1_1_io_1_1_i_input_output.html" target="_top" xlink:title="This abstract class defines a interface for operating on an input&#45;output stream.">
<polygon fill="white" stroke="#666666" points="363.5,-84 251.5,-84 251.5,-65 363.5,-65 363.5,-84"/>
<text text-anchor="middle" x="307.5" y="-72" font-family="Helvetica,sans-Serif" font-size="10.00">Kit::Io::IInputOutput</text>
</a>
</g>
</g>
<!-- Node1&#45;&gt;Node9 -->
<g id="edge8_Node000001_Node000009" class="edge">
<title>Node1&#45;&gt;Node9</title>
<g id="a_edge8_Node000001_Node000009"><a xlink:title=" ">
<path fill="none" stroke="#63b8ff" d="M206.44,-74.5C220.82,-74.5 236.65,-74.5 251.39,-74.5"/>
<polygon fill="#63b8ff" stroke="#63b8ff" points="206.26,-71 196.26,-74.5 206.26,-78 206.26,-71"/>
</a>
</g>
</g>
<!-- Node13 -->
<g id="Node000013" class="node">
<title>Node13</title>
<g id="a_Node000013"><a xlink:href="class_kit_1_1_io_1_1_stdio_1_1_input_delegate.html" target="_top" xlink:title="This concrete class implements a Input stream using the underlying platform&#39;s native OS interface for...">
<polygon fill="white" stroke="#666666" points="383,-37 232,-37 232,-18 383,-18 383,-37"/>
<text text-anchor="middle" x="307.5" y="-25" font-family="Helvetica,sans-Serif" font-size="10.00">Kit::Io::Stdio::InputDelegate</text>
</a>
</g>
</g>
<!-- Node1&#45;&gt;Node13 -->
<g id="edge12_Node000001_Node000013" class="edge">
<title>Node1&#45;&gt;Node13</title>
<g id="a_edge12_Node000001_Node000013"><a xlink:title=" ">
<path fill="none" stroke="#63b8ff" d="M197.46,-61.89C222.19,-54.09 253.44,-44.24 276.14,-37.08"/>
<polygon fill="#63b8ff" stroke="#63b8ff" points="196.14,-58.64 187.65,-64.99 198.24,-65.32 196.14,-58.64"/>
</a>
</g>
</g>
<!-- Node2 -->
<g id="Node000002" class="node">
<title>Node2</title>
<g id="a_Node000002"><a xlink:href="class_kit_1_1_io_1_1_i_close.html" target="_top" xlink:title="This abstract class defines a close operation that is intended to be used Input and Output streams/fi...">
<polygon fill="white" stroke="#666666" points="81,-103 0,-103 0,-84 81,-84 81,-103"/>
<text text-anchor="middle" x="40.5" y="-91" font-family="Helvetica,sans-Serif" font-size="10.00">Kit::Io::IClose</text>
</a>
</g>
</g>
<!-- Node2&#45;&gt;Node1 -->
<g id="edge1_Node000001_Node000002" class="edge">
<title>Node2&#45;&gt;Node1</title>
<g id="a_edge1_Node000001_Node000002"><a xlink:title=" ">
<path fill="none" stroke="#63b8ff" d="M91.02,-85.25C99.65,-83.81 108.51,-82.33 116.79,-80.95"/>
<polygon fill="#63b8ff" stroke="#63b8ff" points="90.34,-81.81 81.05,-86.91 91.49,-88.72 90.34,-81.81"/>
</a>
</g>
</g>
<!-- Node3 -->
<g id="Node000003" class="node">
<title>Node3</title>
<g id="a_Node000003"><a xlink:href="class_kit_1_1_io_1_1_i_eos.html" target="_top" xlink:title="This abstract class defines a isEos() operation that is intended to be used Input and Output streams.">
<polygon fill="white" stroke="#666666" points="76,-66 5,-66 5,-47 76,-47 76,-66"/>
<text text-anchor="middle" x="40.5" y="-54" font-family="Helvetica,sans-Serif" font-size="10.00">Kit::Io::IEos</text>
</a>
</g>
</g>
<!-- Node3&#45;&gt;Node1 -->
<g id="edge2_Node000001_Node000003" class="edge">
<title>Node3&#45;&gt;Node1</title>
<g id="a_edge2_Node000001_Node000003"><a xlink:title=" ">
<path fill="none" stroke="#63b8ff" d="M85.94,-63.52C96.1,-65.12 106.82,-66.81 116.72,-68.38"/>
<polygon fill="#63b8ff" stroke="#63b8ff" points="86.44,-60.05 76.01,-61.95 85.34,-66.97 86.44,-60.05"/>
</a>
</g>
</g>
<!-- Node5 -->
<g id="Node000005" class="node">
<title>Node5</title>
<g id="a_Node000005"><a xlink:href="class_kit_1_1_io_1_1_file_1_1_i_input_output.html" target="_top" xlink:title="This abstract class defines the interface for a Random Access Input Output File.">
<polygon fill="white" stroke="#666666" points="561.5,-167 426.5,-167 426.5,-148 561.5,-148 561.5,-167"/>
<text text-anchor="middle" x="494" y="-155" font-family="Helvetica,sans-Serif" font-size="10.00">Kit::Io::File::IInputOutput</text>
</a>
</g>
</g>
<!-- Node4&#45;&gt;Node5 -->
<g id="edge4_Node000004_Node000005" class="edge">
<title>Node4&#45;&gt;Node5</title>
<g id="a_edge4_Node000004_Node000005"><a xlink:title=" ">
<path fill="none" stroke="#63b8ff" d="M365.92,-132.02C391.42,-137.13 421.08,-143.08 445.33,-147.94"/>
<polygon fill="#63b8ff" stroke="#63b8ff" points="366.51,-128.56 356.01,-130.03 365.13,-135.43 366.51,-128.56"/>
</a>
</g>
</g>
<!-- Node8 -->
<g id="Node000008" class="node">
<title>Node8</title>
<g id="a_Node000008"><a xlink:href="class_kit_1_1_io_1_1_file_1_1_input.html" target="_top" xlink:title="This concrete class provides a platform independent implementation of a Kit::Io::File::Input object.">
<polygon fill="white" stroke="#666666" points="543.5,-130 444.5,-130 444.5,-111 543.5,-111 543.5,-130"/>
<text text-anchor="middle" x="494" y="-118" font-family="Helvetica,sans-Serif" font-size="10.00">Kit::Io::File::Input</text>
</a>
</g>
</g>
<!-- Node4&#45;&gt;Node8 -->
<g id="edge7_Node000004_Node000008" class="edge">
<title>Node4&#45;&gt;Node8</title>
<g id="a_edge7_Node000004_Node000008"><a xlink:title=" ">
<path fill="none" stroke="#63b8ff" d="M369.13,-120.5C393.5,-120.5 421.21,-120.5 444.24,-120.5"/>
<polygon fill="#63b8ff" stroke="#63b8ff" points="368.92,-117 358.92,-120.5 368.92,-124 368.92,-117"/>
</a>
</g>
</g>
<!-- Node6 -->
<g id="Node000006" class="node">
<title>Node6</title>
<g id="a_Node000006"><a xlink:href="class_kit_1_1_io_1_1_file_1_1_input_output.html" target="_top" xlink:title="This concrete class provides a platform independent implementation of an Kit::Io::File::IInputOutput ...">
<polygon fill="white" stroke="#666666" points="744.5,-185 612.5,-185 612.5,-166 744.5,-166 744.5,-185"/>
<text text-anchor="middle" x="678.5" y="-173" font-family="Helvetica,sans-Serif" font-size="10.00">Kit::Io::File::InputOutput</text>
</a>
</g>
</g>
<!-- Node5&#45;&gt;Node6 -->
<g id="edge5_Node000005_Node000006" class="edge">
<title>Node5&#45;&gt;Node6</title>
<g id="a_edge5_Node000005_Node000006"><a xlink:title=" ">
<path fill="none" stroke="#63b8ff" d="M571.84,-165.08C585.28,-166.4 599.15,-167.77 612.24,-169.06"/>
<polygon fill="#63b8ff" stroke="#63b8ff" points="571.96,-161.57 561.66,-164.07 571.27,-168.54 571.96,-161.57"/>
</a>
</g>
</g>
<!-- Node7 -->
<g id="Node000007" class="node">
<title>Node7</title>
<g id="a_Node000007"><a xlink:href="class_kit_1_1_io_1_1_file_1_1_null.html" target="_top" xlink:title="This concrete class implements a NULL IInputOutput File that all of its input operations return &#39;End&#45;...">
<polygon fill="white" stroke="#666666" points="725.5,-148 631.5,-148 631.5,-129 725.5,-129 725.5,-148"/>
<text text-anchor="middle" x="678.5" y="-136" font-family="Helvetica,sans-Serif" font-size="10.00">Kit::Io::File::Null</text>
</a>
</g>
</g>
<!-- Node5&#45;&gt;Node7 -->
<g id="edge6_Node000005_Node000007" class="edge">
<title>Node5&#45;&gt;Node7</title>
<g id="a_edge6_Node000005_Node000007"><a xlink:title=" ">
<path fill="none" stroke="#63b8ff" d="M571.81,-149.5C592.02,-147.4 613.21,-145.19 631.27,-143.31"/>
<polygon fill="#63b8ff" stroke="#63b8ff" points="571.25,-146.04 561.66,-150.56 571.97,-153.01 571.25,-146.04"/>
</a>
</g>
</g>
<!-- Node10 -->
<g id="Node000010" class="node">
<title>Node10</title>
<g id="a_Node000010"><a xlink:href="class_kit_1_1_io_1_1_null.html" target="_top" xlink:title="This concrete class implements a NULL InputOutput stream &#45; that all of its input operations return &#39;E...">
<polygon fill="white" stroke="#666666" points="529.5,-93 458.5,-93 458.5,-74 529.5,-74 529.5,-93"/>
<text text-anchor="middle" x="494" y="-81" font-family="Helvetica,sans-Serif" font-size="10.00">Kit::Io::Null</text>
</a>
</g>
</g>
<!-- Node9&#45;&gt;Node10 -->
<g id="edge9_Node000009_Node000010" class="edge">
<title>Node9&#45;&gt;Node10</title>
<g id="a_edge9_Node000009_Node000010"><a xlink:title=" ">
<path fill="none" stroke="#63b8ff" d="M374.13,-77.7C402.54,-79.09 434.63,-80.65 458.3,-81.81"/>
<polygon fill="#63b8ff" stroke="#63b8ff" points="374.01,-74.19 363.86,-77.2 373.67,-81.18 374.01,-74.19"/>
</a>
</g>
</g>
<!-- Node11 -->
<g id="Node000011" class="node">
<title>Node11</title>
<g id="a_Node000011"><a xlink:href="class_kit_1_1_io_1_1_socket_1_1_i_input_output.html" target="_top" xlink:title="This abstract class defines the interface for a BSD socket.">
<polygon fill="white" stroke="#666666" points="569,-56 419,-56 419,-37 569,-37 569,-56"/>
<text text-anchor="middle" x="494" y="-44" font-family="Helvetica,sans-Serif" font-size="10.00">Kit::Io::Socket::IInputOutput</text>
</a>
</g>
</g>
<!-- Node9&#45;&gt;Node11 -->
<g id="edge10_Node000009_Node000011" class="edge">
<title>Node9&#45;&gt;Node11</title>
<g id="a_edge10_Node000009_Node000011"><a xlink:title=" ">
<path fill="none" stroke="#63b8ff" d="M373.86,-64.58C392.19,-61.8 412.07,-58.78 430.25,-56.02"/>
<polygon fill="#63b8ff" stroke="#63b8ff" points="373.22,-61.14 363.86,-66.1 374.27,-68.06 373.22,-61.14"/>
</a>
</g>
</g>
<!-- Node12 -->
<g id="Node000012" class="node">
<title>Node12</title>
<g id="a_Node000012"><a xlink:href="class_kit_1_1_io_1_1_socket_1_1_input_output.html" target="_top" xlink:title="This concrete class provides a platform independent &#39;standard&#39; implementation of an InputOutput strea...">
<polygon fill="white" stroke="#666666" points="752,-56 605,-56 605,-37 752,-37 752,-56"/>
<text text-anchor="middle" x="678.5" y="-44" font-family="Helvetica,sans-Serif" font-size="10.00">Kit::Io::Socket::InputOutput</text>
</a>
</g>
</g>
<!-- Node11&#45;&gt;Node12 -->
<g id="edge11_Node000011_Node000012" class="edge">
<title>Node11&#45;&gt;Node12</title>
<g id="a_edge11_Node000011_Node000012"><a xlink:title=" ">
<path fill="none" stroke="#63b8ff" d="M579.49,-46.5C587.95,-46.5 596.49,-46.5 604.81,-46.5"/>
<polygon fill="#63b8ff" stroke="#63b8ff" points="579.23,-43 569.23,-46.5 579.23,-50 579.23,-43"/>
</a>
</g>
</g>
<!-- Node14 -->
<g id="Node000014" class="node">
<title>Node14</title>
<g id="a_Node000014"><a xlink:href="class_kit_1_1_io_1_1_stdio_1_1_std_in.html" target="_top" xlink:title="This concrete class represents the C&#45;library &#39;stdin&#39; stream.">
<polygon fill="white" stroke="#666666" points="547.5,-19 440.5,-19 440.5,0 547.5,0 547.5,-19"/>
<text text-anchor="middle" x="494" y="-7" font-family="Helvetica,sans-Serif" font-size="10.00">Kit::Io::Stdio::StdIn</text>
</a>
</g>
</g>
<!-- Node13&#45;&gt;Node14 -->
<g id="edge13_Node000013_Node000014" class="edge">
<title>Node13&#45;&gt;Node14</title>
<g id="a_edge13_Node000013_Node000014"><a xlink:title=" ">
<path fill="none" stroke="#63b8ff" d="M392.99,-19.26C409.11,-17.68 425.55,-16.08 440.31,-14.64"/>
<polygon fill="#63b8ff" stroke="#63b8ff" points="392.62,-15.78 383.01,-20.23 393.3,-22.74 392.62,-15.78"/>
</a>
</g>
</g>
</g>
</svg>
