<?xml version="1.0" encoding="UTF-8" standalone="no"?>
<!DOCTYPE svg PUBLIC "-//W3C//DTD SVG 1.1//EN"
 "http://www.w3.org/Graphics/SVG/1.1/DTD/svg11.dtd">
<!-- Generated by graphviz version 2.43.0 (0)
 -->
<!-- Title: Kit::Container::SListBase Pages: 1 -->
<svg width="1124pt" height="250pt"
 viewBox="0.00 0.00 1124.00 250.00" xmlns="http://www.w3.org/2000/svg" xmlns:xlink="http://www.w3.org/1999/xlink">
<g id="graph0" class="graph" transform="scale(1 1) rotate(0) translate(4 246)">
<title>Kit::Container::SListBase</title>
<!-- Node1 -->
<g id="Node000001" class="node">
<title>Node1</title>
<g id="a_Node000001"><a xlink:title="This protected base class implements a NON&#45;TYPE&#45;SAFE a singly linked list which maintains the orderin...">
<polygon fill="#999999" stroke="#666666" points="137,-131.5 0,-131.5 0,-112.5 137,-112.5 137,-131.5"/>
<text text-anchor="middle" x="68.5" y="-119.5" font-family="Helvetica,sans-Serif" font-size="10.00">Kit::Container::SListBase</text>
</a>
</g>
</g>
<!-- Node2 -->
<g id="Node000002" class="node">
<title>Node2</title>
<g id="a_Node000002"><a xlink:href="class_kit_1_1_container_1_1_s_list.html" target="_top" xlink:title=" ">
<polygon fill="white" stroke="#666666" points="596,-169 483,-169 483,-139 596,-139 596,-169"/>
<text text-anchor="start" x="491" y="-157" font-family="Helvetica,sans-Serif" font-size="10.00">Kit::Container::SList</text>
<text text-anchor="middle" x="539.5" y="-146" font-family="Helvetica,sans-Serif" font-size="10.00">&lt; IMessage &gt;</text>
</a>
</g>
</g>
<!-- Node1&#45;&gt;Node2 -->
<g id="edge1_Node000001_Node000002" class="edge">
<title>Node1&#45;&gt;Node2</title>
<g id="a_edge1_Node000001_Node000002"><a xlink:title=" ">
<path fill="none" stroke="#63b8ff" d="M100.67,-135.6C165.05,-161.95 317.38,-215.33 445,-191 467.12,-186.78 490.69,-177.42 508.63,-169.17"/>
<polygon fill="#63b8ff" stroke="#63b8ff" points="101.68,-132.23 91.11,-131.62 98.99,-138.69 101.68,-132.23"/>
</a>
</g>
</g>
<!-- Node7 -->
<g id="Node000007" class="node">
<title>Node7</title>
<g id="a_Node000007"><a xlink:href="class_kit_1_1_container_1_1_s_list.html" target="_top" xlink:title=" ">
<polygon fill="white" stroke="#666666" points="609.5,-242 469.5,-242 469.5,-212 609.5,-212 609.5,-242"/>
<text text-anchor="start" x="477.5" y="-230" font-family="Helvetica,sans-Serif" font-size="10.00">Kit::Container::SList</text>
<text text-anchor="middle" x="539.5" y="-219" font-family="Helvetica,sans-Serif" font-size="10.00">&lt; Kit::Dm::IModelPoint &gt;</text>
</a>
</g>
</g>
<!-- Node1&#45;&gt;Node7 -->
<g id="edge6_Node000001_Node000007" class="edge">
<title>Node1&#45;&gt;Node7</title>
<g id="a_edge6_Node000001_Node000007"><a xlink:title=" ">
<path fill="none" stroke="#63b8ff" d="M88.83,-138.03C108.83,-153.71 141.64,-176.93 174,-189 271.91,-225.53 394.23,-230.83 469.33,-229.93"/>
<polygon fill="#63b8ff" stroke="#63b8ff" points="90.83,-135.15 80.83,-131.63 86.45,-140.61 90.83,-135.15"/>
</a>
</g>
</g>
<!-- Node8 -->
<g id="Node000008" class="node">
<title>Node8</title>
<g id="a_Node000008"><a xlink:href="class_kit_1_1_container_1_1_s_list.html" target="_top" xlink:title=" ">
<polygon fill="white" stroke="#666666" points="616,-30 463,-30 463,0 616,0 616,-30"/>
<text text-anchor="start" x="471" y="-18" font-family="Helvetica,sans-Serif" font-size="10.00">Kit::Container::SList</text>
<text text-anchor="middle" x="539.5" y="-7" font-family="Helvetica,sans-Serif" font-size="10.00">&lt; Kit::System::IEventFlag &gt;</text>
</a>
</g>
</g>
<!-- Node1&#45;&gt;Node8 -->
<g id="edge7_Node000001_Node000008" class="edge">
<title>Node1&#45;&gt;Node8</title>
<g id="a_edge7_Node000001_Node000008"><a xlink:title=" ">
<path fill="none" stroke="#63b8ff" d="M86.09,-105.09C105.33,-86.69 138.92,-58.15 174,-45 268.98,-9.4 387.36,-6.55 462.95,-9.44"/>
<polygon fill="#63b8ff" stroke="#63b8ff" points="83.45,-102.78 78.76,-112.28 88.35,-107.78 83.45,-102.78"/>
</a>
</g>
</g>
<!-- Node9 -->
<g id="Node000009" class="node">
<title>Node9</title>
<g id="a_Node000009"><a xlink:href="class_kit_1_1_container_1_1_s_list.html" target="_top" xlink:title=" ">
<polygon fill="white" stroke="#666666" points="608.5,-110.5 470.5,-110.5 470.5,-69.5 608.5,-69.5 608.5,-110.5"/>
<text text-anchor="start" x="478.5" y="-98.5" font-family="Helvetica,sans-Serif" font-size="10.00">Kit::Container::SList</text>
<text text-anchor="start" x="478.5" y="-87.5" font-family="Helvetica,sans-Serif" font-size="10.00">&lt; Kit::System::Watchdog</text>
<text text-anchor="middle" x="539.5" y="-76.5" font-family="Helvetica,sans-Serif" font-size="10.00">::WatchedThread &gt;</text>
</a>
</g>
</g>
<!-- Node1&#45;&gt;Node9 -->
<g id="edge8_Node000001_Node000009" class="edge">
<title>Node1&#45;&gt;Node9</title>
<g id="a_edge8_Node000001_Node000009"><a xlink:title=" ">
<path fill="none" stroke="#63b8ff" d="M98.42,-108.03C161.51,-79.35 316.17,-18.8 445,-47 465.25,-51.43 486.34,-60.68 503.36,-69.46"/>
<polygon fill="#63b8ff" stroke="#63b8ff" points="96.71,-104.96 89.1,-112.34 99.64,-111.32 96.71,-104.96"/>
</a>
</g>
</g>
<!-- Node10 -->
<g id="Node000010" class="node">
<title>Node10</title>
<g id="a_Node000010"><a xlink:href="class_kit_1_1_container_1_1_s_list.html" target="_top" xlink:title="This template class implements a singly linked list which maintains the ordering imposed on it by the...">
<polygon fill="white" stroke="#666666" points="287,-137 174,-137 174,-107 287,-107 287,-137"/>
<text text-anchor="start" x="182" y="-125" font-family="Helvetica,sans-Serif" font-size="10.00">Kit::Container::SList</text>
<text text-anchor="middle" x="230.5" y="-114" font-family="Helvetica,sans-Serif" font-size="10.00">&lt; ITEM &gt;</text>
</a>
</g>
</g>
<!-- Node1&#45;&gt;Node10 -->
<g id="edge9_Node000001_Node000010" class="edge">
<title>Node1&#45;&gt;Node10</title>
<g id="a_edge9_Node000001_Node000010"><a xlink:title=" ">
<path fill="none" stroke="#63b8ff" d="M147.62,-122C156.4,-122 165.22,-122 173.63,-122"/>
<polygon fill="#63b8ff" stroke="#63b8ff" points="147.35,-118.5 137.35,-122 147.35,-125.5 147.35,-118.5"/>
</a>
</g>
</g>
<!-- Node3 -->
<g id="Node000003" class="node">
<title>Node3</title>
<g id="a_Node000003"><a xlink:href="class_kit_1_1_itc_1_1_mailbox.html" target="_top" xlink:title="This mailbox class implements an Inter Thread Communications message queue.">
<polygon fill="white" stroke="#666666" points="746,-163.5 653,-163.5 653,-144.5 746,-144.5 746,-163.5"/>
<text text-anchor="middle" x="699.5" y="-151.5" font-family="Helvetica,sans-Serif" font-size="10.00">Kit::Itc::Mailbox</text>
</a>
</g>
</g>
<!-- Node2&#45;&gt;Node3 -->
<g id="edge2_Node000002_Node000003" class="edge">
<title>Node2&#45;&gt;Node3</title>
<g id="a_edge2_Node000002_Node000003"><a xlink:title=" ">
<path fill="none" stroke="#63b8ff" d="M606.37,-154C622.04,-154 638.41,-154 652.93,-154"/>
<polygon fill="#63b8ff" stroke="#63b8ff" points="606.2,-150.5 596.2,-154 606.2,-157.5 606.2,-150.5"/>
</a>
</g>
</g>
<!-- Node4 -->
<g id="Node000004" class="node">
<title>Node4</title>
<g id="a_Node000004"><a xlink:href="class_kit_1_1_event_queue_1_1_server.html" target="_top" xlink:title="This concrete class extends the Kit::System::EventLoop interface to include processing events from Ev...">
<polygon fill="white" stroke="#666666" points="916,-163.5 783,-163.5 783,-144.5 916,-144.5 916,-163.5"/>
<text text-anchor="middle" x="849.5" y="-151.5" font-family="Helvetica,sans-Serif" font-size="10.00">Kit::EventQueue::Server</text>
</a>
</g>
</g>
<!-- Node3&#45;&gt;Node4 -->
<g id="edge3_Node000003_Node000004" class="edge">
<title>Node3&#45;&gt;Node4</title>
<g id="a_edge3_Node000003_Node000004"><a xlink:title=" ">
<path fill="none" stroke="#63b8ff" d="M756.16,-154C764.89,-154 773.98,-154 782.91,-154"/>
<polygon fill="#63b8ff" stroke="#63b8ff" points="756.11,-150.5 746.11,-154 756.11,-157.5 756.11,-150.5"/>
</a>
</g>
</g>
<!-- Node5 -->
<g id="Node000005" class="node">
<title>Node5</title>
<g id="a_Node000005"><a xlink:href="class_kit_1_1_event_queue_1_1_with_periodic_scheduling.html" target="_top" xlink:title="This class extends the Kit::EventQueue::Server class to add periodic scheduling to an event based &#39;th...">
<polygon fill="white" stroke="#666666" points="1116,-191 953,-191 953,-161 1116,-161 1116,-191"/>
<text text-anchor="start" x="961" y="-179" font-family="Helvetica,sans-Serif" font-size="10.00">Kit::EventQueue::WithPeriodic</text>
<text text-anchor="middle" x="1034.5" y="-168" font-family="Helvetica,sans-Serif" font-size="10.00">Scheduling</text>
</a>
</g>
</g>
<!-- Node4&#45;&gt;Node5 -->
<g id="edge4_Node000004_Node000005" class="edge">
<title>Node4&#45;&gt;Node5</title>
<g id="a_edge4_Node000004_Node000005"><a xlink:title=" ">
<path fill="none" stroke="#63b8ff" d="M926.22,-163.1C934.98,-164.16 943.93,-165.23 952.75,-166.29"/>
<polygon fill="#63b8ff" stroke="#63b8ff" points="926.4,-159.6 916.05,-161.88 925.56,-166.55 926.4,-159.6"/>
</a>
</g>
</g>
<!-- Node6 -->
<g id="Node000006" class="node">
<title>Node6</title>
<g id="a_Node000006"><a xlink:href="class_test_event_queue_server.html" target="_top" xlink:title="This class is a EventQueue Server that signals the provided semaphore when it begins execution.">
<polygon fill="white" stroke="#666666" points="1098,-142.5 971,-142.5 971,-123.5 1098,-123.5 1098,-142.5"/>
<text text-anchor="middle" x="1034.5" y="-130.5" font-family="Helvetica,sans-Serif" font-size="10.00">TestEventQueueServer</text>
</a>
</g>
</g>
<!-- Node4&#45;&gt;Node6 -->
<g id="edge5_Node000004_Node000006" class="edge">
<title>Node4&#45;&gt;Node6</title>
<g id="a_edge5_Node000004_Node000006"><a xlink:title=" ">
<path fill="none" stroke="#63b8ff" d="M926.22,-145.31C941.07,-143.61 956.49,-141.84 970.86,-140.19"/>
<polygon fill="#63b8ff" stroke="#63b8ff" points="925.59,-141.86 916.05,-146.48 926.38,-148.81 925.59,-141.86"/>
</a>
</g>
</g>
<!-- Node10&#45;&gt;Node2 -->
<g id="edge10_Node000010_Node000002" class="edge">
<title>Node10&#45;&gt;Node2</title>
<g id="a_edge10_Node000010_Node000002"><a xlink:title=" ">
<path fill="none" stroke="orange" stroke-dasharray="5,2" d="M297.13,-128.84C352.39,-134.6 430.55,-142.75 482.8,-148.19"/>
<polygon fill="orange" stroke="orange" points="297.4,-125.35 287.1,-127.79 296.68,-132.31 297.4,-125.35"/>
</a>
</g>
<text text-anchor="middle" x="375" y="-146" font-family="Helvetica,sans-Serif" font-size="10.00" fill="grey"> &lt; IMessage &gt;</text>
</g>
<!-- Node10&#45;&gt;Node7 -->
<g id="edge11_Node000010_Node000007" class="edge">
<title>Node10&#45;&gt;Node7</title>
<g id="a_edge11_Node000010_Node000007"><a xlink:title=" ">
<path fill="none" stroke="orange" stroke-dasharray="5,2" d="M269.52,-141.46C280.79,-146.86 293.25,-152.47 305,-157 363.05,-179.37 431.42,-199.13 479.13,-211.9"/>
<polygon fill="orange" stroke="orange" points="270.9,-138.25 260.38,-137.01 267.84,-144.54 270.9,-138.25"/>
</a>
</g>
<text text-anchor="middle" x="375" y="-204" font-family="Helvetica,sans-Serif" font-size="10.00" fill="grey"> &lt; Kit::Dm::IModelPoint &gt;</text>
</g>
<!-- Node10&#45;&gt;Node8 -->
<g id="edge12_Node000010_Node000008" class="edge">
<title>Node10&#45;&gt;Node8</title>
<g id="a_edge12_Node000010_Node000008"><a xlink:title=" ">
<path fill="none" stroke="orange" stroke-dasharray="5,2" d="M261.01,-101.22C274.03,-92.78 289.8,-83.51 305,-77 355.8,-55.25 416.16,-39.47 462.78,-29.27"/>
<polygon fill="orange" stroke="orange" points="258.87,-98.44 252.48,-106.88 262.74,-104.27 258.87,-98.44"/>
</a>
</g>
<text text-anchor="middle" x="375" y="-80" font-family="Helvetica,sans-Serif" font-size="10.00" fill="grey"> &lt; Kit::System::IEventFlag &gt;</text>
</g>
<!-- Node10&#45;&gt;Node9 -->
<g id="edge13_Node000010_Node000009" class="edge">
<title>Node10&#45;&gt;Node9</title>
<g id="a_edge13_Node000010_Node000009"><a xlink:title=" ">
<path fill="none" stroke="orange" stroke-dasharray="5,2" d="M294.56,-104.85C298.08,-104.16 301.58,-103.53 305,-103 360.26,-94.41 423.66,-91.3 470.44,-90.26"/>
<polygon fill="orange" stroke="orange" points="293.69,-101.45 284.63,-106.95 295.14,-108.3 293.69,-101.45"/>
</a>
</g>
<text text-anchor="start" x="312.5" y="-117" font-family="Helvetica,sans-Serif" font-size="10.00" fill="grey"> &lt; Kit::System::Watchdog</text>
<text text-anchor="middle" x="375" y="-106" font-family="Helvetica,sans-Serif" font-size="10.00" fill="grey">::WatchedThread &gt;</text>
</g>
</g>
</svg>
