<?xml version="1.0" encoding="UTF-8" standalone="no"?>
<!DOCTYPE svg PUBLIC "-//W3C//DTD SVG 1.1//EN"
 "http://www.w3.org/Graphics/SVG/1.1/DTD/svg11.dtd">
<!-- Generated by graphviz version 2.43.0 (0)
 -->
<!-- Title: Kit::Container::OrderedListBase Pages: 1 -->
<svg width="238pt" height="283pt"
 viewBox="0.00 0.00 237.50 283.00" xmlns="http://www.w3.org/2000/svg" xmlns:xlink="http://www.w3.org/1999/xlink">
<g id="graph0" class="graph" transform="scale(1 1) rotate(0) translate(4 279)">
<title>Kit::Container::OrderedListBase</title>
<!-- Node1 -->
<g id="Node000001" class="node">
<title>Node1</title>
<g id="a_Node000001"><a xlink:title="This protected base class implements a NON&#45;TYPE&#45;SAFE an ordered doubly linked list.">
<polygon fill="#999999" stroke="#666666" points="170,-19 0,-19 0,0 170,0 170,-19"/>
<text text-anchor="middle" x="85" y="-7" font-family="Helvetica,sans-Serif" font-size="10.00">Kit::Container::OrderedListBase</text>
</a>
</g>
</g>
<!-- Node2 -->
<g id="Node000002" class="node">
<title>Node2</title>
<g id="a_Node000002"><a xlink:href="class_kit_1_1_container_1_1_d_list_base.html" target="_top" xlink:title="This protected base class implements a NON&#45;TYPE&#45;SAFE a doubly linked list which maintains the orderin...">
<polygon fill="white" stroke="#666666" points="154,-75 16,-75 16,-56 154,-56 154,-75"/>
<text text-anchor="middle" x="85" y="-63" font-family="Helvetica,sans-Serif" font-size="10.00">Kit::Container::DListBase</text>
</a>
</g>
</g>
<!-- Node2&#45;&gt;Node1 -->
<g id="edge1_Node000001_Node000002" class="edge">
<title>Node2&#45;&gt;Node1</title>
<g id="a_edge1_Node000001_Node000002"><a xlink:title=" ">
<path fill="none" stroke="#63b8ff" d="M85,-45.3C85,-36.41 85,-26.28 85,-19.25"/>
<polygon fill="#63b8ff" stroke="#63b8ff" points="81.5,-45.58 85,-55.58 88.5,-45.58 81.5,-45.58"/>
</a>
</g>
</g>
<!-- Node3 -->
<g id="Node000003" class="node">
<title>Node3</title>
<g id="a_Node000003"><a xlink:href="class_kit_1_1_container_1_1_extended_list_item.html" target="_top" xlink:title="This class is used by the Container classes to implement a various types of DOUBLY linked containers.">
<polygon fill="white" stroke="#666666" points="152.5,-163 17.5,-163 17.5,-133 152.5,-133 152.5,-163"/>
<text text-anchor="start" x="25.5" y="-151" font-family="Helvetica,sans-Serif" font-size="10.00">Kit::Container::Extended</text>
<text text-anchor="middle" x="85" y="-140" font-family="Helvetica,sans-Serif" font-size="10.00">ListItem</text>
</a>
</g>
</g>
<!-- Node3&#45;&gt;Node2 -->
<g id="edge2_Node000002_Node000003" class="edge">
<title>Node3&#45;&gt;Node2</title>
<g id="a_edge2_Node000002_Node000003"><a xlink:title=" ">
<path fill="none" stroke="#9a32cd" stroke-dasharray="5,2" d="M85,-122.7C85,-106.7 85,-86.7 85,-75.38"/>
<polygon fill="#9a32cd" stroke="#9a32cd" points="81.5,-122.98 85,-132.98 88.5,-122.98 81.5,-122.98"/>
</a>
</g>
<text text-anchor="middle" x="113" y="-107" font-family="Helvetica,sans-Serif" font-size="10.00" fill="grey"> m_headPtr</text>
<text text-anchor="middle" x="113" y="-96" font-family="Helvetica,sans-Serif" font-size="10.00" fill="grey">m_tailPtr</text>
</g>
<!-- Node3&#45;&gt;Node3 -->
<g id="edge6_Node000003_Node000003" class="edge">
<title>Node3&#45;&gt;Node3</title>
<g id="a_edge6_Node000003_Node000003"><a xlink:title=" ">
<path fill="none" stroke="#9a32cd" stroke-dasharray="5,2" d="M163,-152.15C167.69,-151.16 170.5,-149.78 170.5,-148 170.5,-145.16 163.3,-143.32 152.73,-142.5"/>
<polygon fill="#9a32cd" stroke="#9a32cd" points="162.19,-148.72 152.73,-153.5 163.1,-155.66 162.19,-148.72"/>
</a>
</g>
<text text-anchor="middle" x="200" y="-145.5" font-family="Helvetica,sans-Serif" font-size="10.00" fill="grey"> m_prevPtr_</text>
</g>
<!-- Node4 -->
<g id="Node000004" class="node">
<title>Node4</title>
<g id="a_Node000004"><a xlink:href="class_kit_1_1_container_1_1_list_item.html" target="_top" xlink:title="This class is used by the Container classes to implement a various types of linked lists containers.">
<polygon fill="white" stroke="#666666" points="149.5,-219 20.5,-219 20.5,-200 149.5,-200 149.5,-219"/>
<text text-anchor="middle" x="85" y="-207" font-family="Helvetica,sans-Serif" font-size="10.00">Kit::Container::ListItem</text>
</a>
</g>
</g>
<!-- Node4&#45;&gt;Node3 -->
<g id="edge3_Node000003_Node000004" class="edge">
<title>Node4&#45;&gt;Node3</title>
<g id="a_edge3_Node000003_Node000004"><a xlink:title=" ">
<path fill="none" stroke="#63b8ff" d="M85,-189.73C85,-181.09 85,-171 85,-163.02"/>
<polygon fill="#63b8ff" stroke="#63b8ff" points="81.5,-189.98 85,-199.98 88.5,-189.98 81.5,-189.98"/>
</a>
</g>
</g>
<!-- Node4&#45;&gt;Node4 -->
<g id="edge5_Node000004_Node000004" class="edge">
<title>Node4&#45;&gt;Node4</title>
<g id="a_edge5_Node000004_Node000004"><a xlink:title=" ">
<path fill="none" stroke="#9a32cd" stroke-dasharray="5,2" d="M159.96,-213.19C164.66,-212.32 167.5,-211.09 167.5,-209.5 167.5,-206.96 160.24,-205.34 149.68,-204.64"/>
<polygon fill="#9a32cd" stroke="#9a32cd" points="159.22,-209.75 149.68,-214.36 160.01,-216.7 159.22,-209.75"/>
</a>
</g>
<text text-anchor="middle" x="197" y="-207" font-family="Helvetica,sans-Serif" font-size="10.00" fill="grey"> m_nextPtr_</text>
</g>
<!-- Node5 -->
<g id="Node000005" class="node">
<title>Node5</title>
<g id="a_Node000005"><a xlink:href="class_kit_1_1_container_1_1_item.html" target="_top" xlink:title="This class is used by the Intrusive Container classes to enforce the semantic and item/element can be...">
<polygon fill="white" stroke="#666666" points="141,-275 29,-275 29,-256 141,-256 141,-275"/>
<text text-anchor="middle" x="85" y="-263" font-family="Helvetica,sans-Serif" font-size="10.00">Kit::Container::Item</text>
</a>
</g>
</g>
<!-- Node5&#45;&gt;Node4 -->
<g id="edge4_Node000004_Node000005" class="edge">
<title>Node5&#45;&gt;Node4</title>
<g id="a_edge4_Node000004_Node000005"><a xlink:title=" ">
<path fill="none" stroke="#63b8ff" d="M85,-245.3C85,-236.41 85,-226.28 85,-219.25"/>
<polygon fill="#63b8ff" stroke="#63b8ff" points="81.5,-245.58 85,-255.58 88.5,-245.58 81.5,-245.58"/>
</a>
</g>
</g>
</g>
</svg>
