<?xml version="1.0" encoding="UTF-8" standalone="no"?>
<!DOCTYPE svg PUBLIC "-//W3C//DTD SVG 1.1//EN"
 "http://www.w3.org/Graphics/SVG/1.1/DTD/svg11.dtd">
<!-- Generated by graphviz version 2.43.0 (0)
 -->
<!-- Title: Kit::Dm::ModelDatabase Pages: 1 -->
<svg width="1179pt" height="113pt"
 viewBox="0.00 0.00 1179.00 113.00" xmlns="http://www.w3.org/2000/svg" xmlns:xlink="http://www.w3.org/1999/xlink">
<g id="graph0" class="graph" transform="scale(1 1) rotate(0) translate(4 109)">
<title>Kit::Dm::ModelDatabase</title>
<!-- Node1 -->
<g id="Node000001" class="node">
<title>Node1</title>
<g id="a_Node000001"><a xlink:title="This concrete class implements a simple Model Database.">
<polygon fill="#999999" stroke="#666666" points="1171,-62 1035,-62 1035,-43 1171,-43 1171,-62"/>
<text text-anchor="middle" x="1103" y="-50" font-family="Helvetica,sans-Serif" font-size="10.00">Kit::Dm::ModelDatabase</text>
</a>
</g>
</g>
<!-- Node2 -->
<g id="Node000002" class="node">
<title>Node2</title>
<g id="a_Node000002"><a xlink:href="class_kit_1_1_dm_1_1_i_model_database.html" target="_top" xlink:title="This class defines the basic operations that can be performed on a Model Base.">
<polygon fill="white" stroke="#666666" points="959.5,-105 820.5,-105 820.5,-86 959.5,-86 959.5,-105"/>
<text text-anchor="middle" x="890" y="-93" font-family="Helvetica,sans-Serif" font-size="10.00">Kit::Dm::IModelDatabase</text>
</a>
</g>
</g>
<!-- Node2&#45;&gt;Node1 -->
<g id="edge1_Node000001_Node000002" class="edge">
<title>Node2&#45;&gt;Node1</title>
<g id="a_edge1_Node000001_Node000002"><a xlink:title=" ">
<path fill="none" stroke="#63b8ff" d="M947.97,-83.89C981.6,-77.04 1023.64,-68.47 1055.3,-62.02"/>
<polygon fill="#63b8ff" stroke="#63b8ff" points="946.93,-80.53 937.83,-85.96 948.33,-87.39 946.93,-80.53"/>
</a>
</g>
</g>
<!-- Node3 -->
<g id="Node000003" class="node">
<title>Node3</title>
<g id="a_Node000003"><a xlink:href="class_kit_1_1_container_1_1_s_list.html" target="_top" xlink:title=" ">
<polygon fill="white" stroke="#666666" points="960,-67.5 820,-67.5 820,-37.5 960,-37.5 960,-67.5"/>
<text text-anchor="start" x="828" y="-55.5" font-family="Helvetica,sans-Serif" font-size="10.00">Kit::Container::SList</text>
<text text-anchor="middle" x="890" y="-44.5" font-family="Helvetica,sans-Serif" font-size="10.00">&lt; Kit::Dm::IModelPoint &gt;</text>
</a>
</g>
</g>
<!-- Node3&#45;&gt;Node1 -->
<g id="edge2_Node000001_Node000003" class="edge">
<title>Node3&#45;&gt;Node1</title>
<g id="a_edge2_Node000001_Node000003"><a xlink:title=" ">
<path fill="none" stroke="#9a32cd" stroke-dasharray="5,2" d="M970.09,-52.5C991.43,-52.5 1014.3,-52.5 1034.91,-52.5"/>
<polygon fill="#9a32cd" stroke="#9a32cd" points="970.09,-49 960.09,-52.5 970.09,-56 970.09,-49"/>
</a>
</g>
<text text-anchor="middle" x="997.5" y="-55.5" font-family="Helvetica,sans-Serif" font-size="10.00" fill="grey"> m_list</text>
</g>
<!-- Node4 -->
<g id="Node000004" class="node">
<title>Node4</title>
<g id="a_Node000004"><a xlink:href="class_kit_1_1_container_1_1_s_list_base.html" target="_top" xlink:title="This protected base class implements a NON&#45;TYPE&#45;SAFE a singly linked list which maintains the orderin...">
<polygon fill="white" stroke="#666666" points="507,-57 370,-57 370,-38 507,-38 507,-57"/>
<text text-anchor="middle" x="438.5" y="-45" font-family="Helvetica,sans-Serif" font-size="10.00">Kit::Container::SListBase</text>
</a>
</g>
</g>
<!-- Node4&#45;&gt;Node3 -->
<g id="edge3_Node000003_Node000004" class="edge">
<title>Node4&#45;&gt;Node3</title>
<g id="a_edge3_Node000003_Node000004"><a xlink:title=" ">
<path fill="none" stroke="#63b8ff" d="M517.42,-50.81C563.28,-52.59 622.43,-54.61 675,-55.5 731.44,-56.46 745.56,-56.47 802,-55.5 807.74,-55.4 813.7,-55.27 819.67,-55.11"/>
<polygon fill="#63b8ff" stroke="#63b8ff" points="517.38,-47.31 507.25,-50.41 517.1,-54.3 517.38,-47.31"/>
</a>
</g>
</g>
<!-- Node7 -->
<g id="Node000007" class="node">
<title>Node7</title>
<g id="a_Node000007"><a xlink:href="class_kit_1_1_container_1_1_s_list.html" target="_top" xlink:title="This template class implements a singly linked list which maintains the ordering imposed on it by the...">
<polygon fill="white" stroke="#666666" points="657,-41.5 544,-41.5 544,-11.5 657,-11.5 657,-41.5"/>
<text text-anchor="start" x="552" y="-29.5" font-family="Helvetica,sans-Serif" font-size="10.00">Kit::Container::SList</text>
<text text-anchor="middle" x="600.5" y="-18.5" font-family="Helvetica,sans-Serif" font-size="10.00">&lt; ITEM &gt;</text>
</a>
</g>
</g>
<!-- Node4&#45;&gt;Node7 -->
<g id="edge8_Node000007_Node000004" class="edge">
<title>Node4&#45;&gt;Node7</title>
<g id="a_edge8_Node000007_Node000004"><a xlink:title=" ">
<path fill="none" stroke="#63b8ff" d="M517.34,-37.28C526.21,-36.12 535.12,-34.95 543.63,-33.83"/>
<polygon fill="#63b8ff" stroke="#63b8ff" points="516.81,-33.82 507.35,-38.59 517.72,-40.76 516.81,-33.82"/>
</a>
</g>
</g>
<!-- Node5 -->
<g id="Node000005" class="node">
<title>Node5</title>
<g id="a_Node000005"><a xlink:href="class_kit_1_1_container_1_1_list_item.html" target="_top" xlink:title="This class is used by the Container classes to implement a various types of linked lists containers.">
<polygon fill="white" stroke="#666666" points="278,-57 149,-57 149,-38 278,-38 278,-57"/>
<text text-anchor="middle" x="213.5" y="-45" font-family="Helvetica,sans-Serif" font-size="10.00">Kit::Container::ListItem</text>
</a>
</g>
</g>
<!-- Node5&#45;&gt;Node4 -->
<g id="edge4_Node000004_Node000005" class="edge">
<title>Node5&#45;&gt;Node4</title>
<g id="a_edge4_Node000004_Node000005"><a xlink:title=" ">
<path fill="none" stroke="#9a32cd" stroke-dasharray="5,2" d="M288.4,-47.5C314.7,-47.5 344.17,-47.5 369.92,-47.5"/>
<polygon fill="#9a32cd" stroke="#9a32cd" points="288.1,-44 278.1,-47.5 288.1,-51 288.1,-44"/>
</a>
</g>
<text text-anchor="middle" x="324" y="-61.5" font-family="Helvetica,sans-Serif" font-size="10.00" fill="grey"> m_headPtr</text>
<text text-anchor="middle" x="324" y="-50.5" font-family="Helvetica,sans-Serif" font-size="10.00" fill="grey">m_tailPtr</text>
</g>
<!-- Node5&#45;&gt;Node5 -->
<g id="edge6_Node000005_Node000005" class="edge">
<title>Node5&#45;&gt;Node5</title>
<g id="a_edge6_Node000005_Node000005"><a xlink:title=" ">
<path fill="none" stroke="#9a32cd" stroke-dasharray="5,2" d="M198.4,-66.91C199.59,-71.56 204.62,-75 213.5,-75 228.07,-75 232.29,-65.73 226.14,-57.08"/>
<polygon fill="#9a32cd" stroke="#9a32cd" points="201.83,-67.63 200.86,-57.08 195.04,-65.93 201.83,-67.63"/>
</a>
</g>
<text text-anchor="middle" x="213.5" y="-78" font-family="Helvetica,sans-Serif" font-size="10.00" fill="grey"> m_nextPtr_</text>
</g>
<!-- Node6 -->
<g id="Node000006" class="node">
<title>Node6</title>
<g id="a_Node000006"><a xlink:href="class_kit_1_1_container_1_1_item.html" target="_top" xlink:title="This class is used by the Intrusive Container classes to enforce the semantic and item/element can be...">
<polygon fill="white" stroke="#666666" points="112,-57 0,-57 0,-38 112,-38 112,-57"/>
<text text-anchor="middle" x="56" y="-45" font-family="Helvetica,sans-Serif" font-size="10.00">Kit::Container::Item</text>
</a>
</g>
</g>
<!-- Node6&#45;&gt;Node5 -->
<g id="edge5_Node000005_Node000006" class="edge">
<title>Node6&#45;&gt;Node5</title>
<g id="a_edge5_Node000005_Node000006"><a xlink:title=" ">
<path fill="none" stroke="#63b8ff" d="M122.43,-47.5C131.2,-47.5 140.19,-47.5 148.93,-47.5"/>
<polygon fill="#63b8ff" stroke="#63b8ff" points="122.26,-44 112.26,-47.5 122.26,-51 122.26,-44"/>
</a>
</g>
</g>
<!-- Node7&#45;&gt;Node3 -->
<g id="edge7_Node000003_Node000007" class="edge">
<title>Node7&#45;&gt;Node3</title>
<g id="a_edge7_Node000003_Node000007"><a xlink:title=" ">
<path fill="none" stroke="orange" stroke-dasharray="5,2" d="M667.45,-32.38C706.56,-35.88 757.11,-40.42 802,-44.5 807.74,-45.02 813.69,-45.56 819.67,-46.11"/>
<polygon fill="orange" stroke="orange" points="667.52,-28.88 657.25,-31.47 666.9,-35.85 667.52,-28.88"/>
</a>
</g>
<text text-anchor="middle" x="738.5" y="-47.5" font-family="Helvetica,sans-Serif" font-size="10.00" fill="grey"> &lt; Kit::Dm::IModelPoint &gt;</text>
</g>
<!-- Node8 -->
<g id="Node000008" class="node">
<title>Node8</title>
<g id="a_Node000008"><a xlink:href="class_kit_1_1_system_1_1_mutex.html" target="_top" xlink:title="This concrete mutex class defines the interface for a mutex that has &quot;recursive&quot; semantics.">
<polygon fill="white" stroke="#666666" points="945,-19 835,-19 835,0 945,0 945,-19"/>
<text text-anchor="middle" x="890" y="-7" font-family="Helvetica,sans-Serif" font-size="10.00">Kit::System::Mutex</text>
</a>
</g>
</g>
<!-- Node8&#45;&gt;Node1 -->
<g id="edge9_Node000001_Node000008" class="edge">
<title>Node8&#45;&gt;Node1</title>
<g id="a_edge9_Node000001_Node000008"><a xlink:title=" ">
<path fill="none" stroke="#9a32cd" stroke-dasharray="5,2" d="M947.97,-21.11C981.6,-27.96 1023.64,-36.53 1055.3,-42.98"/>
<polygon fill="#9a32cd" stroke="#9a32cd" points="948.33,-17.61 937.83,-19.04 946.93,-24.47 948.33,-17.61"/>
</a>
</g>
<text text-anchor="middle" x="997.5" y="-37.5" font-family="Helvetica,sans-Serif" font-size="10.00" fill="grey"> m_lock</text>
</g>
</g>
</svg>
