<?xml version="1.0" encoding="UTF-8" standalone="no"?>
<!DOCTYPE svg PUBLIC "-//W3C//DTD SVG 1.1//EN"
 "http://www.w3.org/Graphics/SVG/1.1/DTD/svg11.dtd">
<!-- Generated by graphviz version 2.43.0 (0)
 -->
<!-- Title: Kit::Itc::IMessage Pages: 1 -->
<svg width="330pt" height="335pt"
 viewBox="0.00 0.00 330.00 335.00" xmlns="http://www.w3.org/2000/svg" xmlns:xlink="http://www.w3.org/1999/xlink">
<g id="graph0" class="graph" transform="scale(1 1) rotate(0) translate(4 331)">
<title>Kit::Itc::IMessage</title>
<!-- Node1 -->
<g id="Node000001" class="node">
<title>Node1</title>
<g id="a_Node000001"><a xlink:title="This abstract class defines the operations for an ITC message.">
<polygon fill="#999999" stroke="#666666" points="220,-151 119,-151 119,-132 220,-132 220,-151"/>
<text text-anchor="middle" x="169.5" y="-139" font-family="Helvetica,sans-Serif" font-size="10.00">Kit::Itc::IMessage</text>
</a>
</g>
</g>
<!-- Node5 -->
<g id="Node000005" class="node">
<title>Node5</title>
<g id="a_Node000005"><a xlink:href="class_kit_1_1_itc_1_1_response_message.html" target="_top" xlink:title="This template class represents a client response message, which is posted to the client&#39;s mailbox aft...">
<polygon fill="white" stroke="#666666" points="171,-96 0,-96 0,-66 171,-66 171,-96"/>
<text text-anchor="start" x="8" y="-84" font-family="Helvetica,sans-Serif" font-size="10.00">Kit::Itc::ResponseMessage</text>
<text text-anchor="middle" x="85.5" y="-73" font-family="Helvetica,sans-Serif" font-size="10.00">&lt; CLIENT, SERVICE, PAYLOAD &gt;</text>
</a>
</g>
</g>
<!-- Node1&#45;&gt;Node5 -->
<g id="edge4_Node000001_Node000005" class="edge">
<title>Node1&#45;&gt;Node5</title>
<g id="a_edge4_Node000001_Node000005"><a xlink:title=" ">
<path fill="none" stroke="#63b8ff" d="M148.72,-126.03C135.62,-116.9 118.77,-105.17 105.77,-96.11"/>
<polygon fill="#63b8ff" stroke="#63b8ff" points="146.9,-129.03 157.11,-131.87 150.9,-123.28 146.9,-129.03"/>
</a>
</g>
</g>
<!-- Node6 -->
<g id="Node000006" class="node">
<title>Node6</title>
<g id="a_Node000006"><a xlink:href="class_kit_1_1_itc_1_1_server_message.html" target="_top" xlink:title="This partially concrete class represents a defined message, which is posted to a mailbox&#45;server as a ...">
<polygon fill="white" stroke="#666666" points="318,-90.5 189,-90.5 189,-71.5 318,-71.5 318,-90.5"/>
<text text-anchor="middle" x="253.5" y="-78.5" font-family="Helvetica,sans-Serif" font-size="10.00">Kit::Itc::ServerMessage</text>
</a>
</g>
</g>
<!-- Node1&#45;&gt;Node6 -->
<g id="edge5_Node000001_Node000006" class="edge">
<title>Node1&#45;&gt;Node6</title>
<g id="a_edge5_Node000001_Node000006"><a xlink:title=" ">
<path fill="none" stroke="#63b8ff" d="M190.54,-125.85C206.45,-114.77 227.76,-99.93 241.05,-90.67"/>
<polygon fill="#63b8ff" stroke="#63b8ff" points="188.1,-123.28 181.89,-131.87 192.1,-129.03 188.1,-123.28"/>
</a>
</g>
</g>
<!-- Node2 -->
<g id="Node000002" class="node">
<title>Node2</title>
<g id="a_Node000002"><a xlink:href="class_kit_1_1_container_1_1_extended_list_item.html" target="_top" xlink:title="This class is used by the Container classes to implement a various types of DOUBLY linked containers.">
<polygon fill="white" stroke="#666666" points="237,-217 102,-217 102,-187 237,-187 237,-217"/>
<text text-anchor="start" x="110" y="-205" font-family="Helvetica,sans-Serif" font-size="10.00">Kit::Container::Extended</text>
<text text-anchor="middle" x="169.5" y="-194" font-family="Helvetica,sans-Serif" font-size="10.00">ListItem</text>
</a>
</g>
</g>
<!-- Node2&#45;&gt;Node1 -->
<g id="edge1_Node000001_Node000002" class="edge">
<title>Node2&#45;&gt;Node1</title>
<g id="a_edge1_Node000001_Node000002"><a xlink:title=" ">
<path fill="none" stroke="#63b8ff" d="M169.5,-176.75C169.5,-167.72 169.5,-158.03 169.5,-151.27"/>
<polygon fill="#63b8ff" stroke="#63b8ff" points="166,-176.84 169.5,-186.84 173,-176.84 166,-176.84"/>
</a>
</g>
</g>
<!-- Node3 -->
<g id="Node000003" class="node">
<title>Node3</title>
<g id="a_Node000003"><a xlink:href="class_kit_1_1_container_1_1_list_item.html" target="_top" xlink:title="This class is used by the Container classes to implement a various types of linked lists containers.">
<polygon fill="white" stroke="#666666" points="234,-272 105,-272 105,-253 234,-253 234,-272"/>
<text text-anchor="middle" x="169.5" y="-260" font-family="Helvetica,sans-Serif" font-size="10.00">Kit::Container::ListItem</text>
</a>
</g>
</g>
<!-- Node3&#45;&gt;Node2 -->
<g id="edge2_Node000002_Node000003" class="edge">
<title>Node3&#45;&gt;Node2</title>
<g id="a_edge2_Node000002_Node000003"><a xlink:title=" ">
<path fill="none" stroke="#63b8ff" d="M169.5,-242.65C169.5,-234.36 169.5,-224.78 169.5,-217.11"/>
<polygon fill="#63b8ff" stroke="#63b8ff" points="166,-242.87 169.5,-252.87 173,-242.87 166,-242.87"/>
</a>
</g>
</g>
<!-- Node4 -->
<g id="Node000004" class="node">
<title>Node4</title>
<g id="a_Node000004"><a xlink:href="class_kit_1_1_container_1_1_item.html" target="_top" xlink:title="This class is used by the Intrusive Container classes to enforce the semantic and item/element can be...">
<polygon fill="white" stroke="#666666" points="225.5,-327 113.5,-327 113.5,-308 225.5,-308 225.5,-327"/>
<text text-anchor="middle" x="169.5" y="-315" font-family="Helvetica,sans-Serif" font-size="10.00">Kit::Container::Item</text>
</a>
</g>
</g>
<!-- Node4&#45;&gt;Node3 -->
<g id="edge3_Node000003_Node000004" class="edge">
<title>Node4&#45;&gt;Node3</title>
<g id="a_edge3_Node000003_Node000004"><a xlink:title=" ">
<path fill="none" stroke="#63b8ff" d="M169.5,-297.66C169.5,-288.93 169.5,-278.99 169.5,-272.09"/>
<polygon fill="#63b8ff" stroke="#63b8ff" points="166,-297.75 169.5,-307.75 173,-297.75 166,-297.75"/>
</a>
</g>
</g>
<!-- Node7 -->
<g id="Node000007" class="node">
<title>Node7</title>
<g id="a_Node000007"><a xlink:href="class_kit_1_1_itc_1_1_request_message.html" target="_top" xlink:title="This concrete template class represents a service request message to a particular server.">
<polygon fill="white" stroke="#666666" points="322,-30 185,-30 185,0 322,0 322,-30"/>
<text text-anchor="start" x="193" y="-18" font-family="Helvetica,sans-Serif" font-size="10.00">Kit::Itc::RequestMessage</text>
<text text-anchor="middle" x="253.5" y="-7" font-family="Helvetica,sans-Serif" font-size="10.00">&lt; SERVICE, PAYLOAD &gt;</text>
</a>
</g>
</g>
<!-- Node6&#45;&gt;Node7 -->
<g id="edge6_Node000006_Node000007" class="edge">
<title>Node6&#45;&gt;Node7</title>
<g id="a_edge6_Node000006_Node000007"><a xlink:title=" ">
<path fill="none" stroke="#63b8ff" d="M253.5,-61.35C253.5,-51.47 253.5,-39.51 253.5,-30.36"/>
<polygon fill="#63b8ff" stroke="#63b8ff" points="250,-61.37 253.5,-71.37 257,-61.37 250,-61.37"/>
</a>
</g>
</g>
</g>
</svg>
