<?xml version="1.0" encoding="UTF-8" standalone="no"?>
<!DOCTYPE svg PUBLIC "-//W3C//DTD SVG 1.1//EN"
 "http://www.w3.org/Graphics/SVG/1.1/DTD/svg11.dtd">
<!-- Generated by graphviz version 2.43.0 (0)
 -->
<!-- Title: Itc::Synchronous::RateSync Pages: 1 -->
<svg width="495pt" height="160pt"
 viewBox="0.00 0.00 494.50 160.00" xmlns="http://www.w3.org/2000/svg" xmlns:xlink="http://www.w3.org/1999/xlink">
<g id="graph0" class="graph" transform="scale(1 1) rotate(0) translate(4 156)">
<title>Itc::Synchronous::RateSync</title>
<!-- Node1 -->
<g id="Node000001" class="node">
<title>Node1</title>
<g id="a_Node000001"><a xlink:title="This partially concrete class provides the synchronous semantics for ITC IRateRequest message,...">
<polygon fill="#999999" stroke="#666666" points="324.5,-19 175.5,-19 175.5,0 324.5,0 324.5,-19"/>
<text text-anchor="middle" x="250" y="-7" font-family="Helvetica,sans-Serif" font-size="10.00">Itc::Synchronous::RateSync</text>
</a>
</g>
</g>
<!-- Node2 -->
<g id="Node000002" class="node">
<title>Node2</title>
<g id="a_Node000002"><a xlink:href="class_itc_1_1_synchronous_1_1_i_rate_request.html" target="_top" xlink:title="This abstract class define message types and payloads for a set of ITC services.">
<polygon fill="white" stroke="#666666" points="168,-85 0,-85 0,-66 168,-66 168,-85"/>
<text text-anchor="middle" x="84" y="-73" font-family="Helvetica,sans-Serif" font-size="10.00">Itc::Synchronous::IRateRequest</text>
</a>
</g>
</g>
<!-- Node2&#45;&gt;Node1 -->
<g id="edge1_Node000001_Node000002" class="edge">
<title>Node2&#45;&gt;Node1</title>
<g id="a_edge1_Node000001_Node000002"><a xlink:title=" ">
<path fill="none" stroke="#63b8ff" d="M115.97,-62.18C148.77,-49.53 198.96,-30.18 227.7,-19.1"/>
<polygon fill="#63b8ff" stroke="#63b8ff" points="114.46,-59.01 106.39,-65.87 116.98,-65.54 114.46,-59.01"/>
</a>
</g>
</g>
<!-- Node3 -->
<g id="Node000003" class="node">
<title>Node3</title>
<g id="a_Node000003"><a xlink:href="class_itc_1_1_synchronous_1_1_i_rate.html" target="_top" xlink:title="This abstract class defines the interface for setting the application&#39;s LED flash rate.">
<polygon fill="white" stroke="#666666" points="314,-85 186,-85 186,-66 314,-66 314,-85"/>
<text text-anchor="middle" x="250" y="-73" font-family="Helvetica,sans-Serif" font-size="10.00">Itc::Synchronous::IRate</text>
</a>
</g>
</g>
<!-- Node3&#45;&gt;Node1 -->
<g id="edge2_Node000001_Node000003" class="edge">
<title>Node3&#45;&gt;Node1</title>
<g id="a_edge2_Node000001_Node000003"><a xlink:title=" ">
<path fill="none" stroke="#63b8ff" d="M250,-55.58C250,-43.63 250,-28.72 250,-19.41"/>
<polygon fill="#63b8ff" stroke="#63b8ff" points="246.5,-55.87 250,-65.87 253.5,-55.87 246.5,-55.87"/>
</a>
</g>
</g>
<!-- Node4 -->
<g id="Node000004" class="node">
<title>Node4</title>
<g id="a_Node000004"><a xlink:href="class_kit_1_1_event_queue_1_1_i_queue.html" target="_top" xlink:title="This abstract class represents an Event Queue where events can be delivered to.">
<polygon fill="white" stroke="#666666" points="468,-85 332,-85 332,-66 468,-66 468,-85"/>
<text text-anchor="middle" x="400" y="-73" font-family="Helvetica,sans-Serif" font-size="10.00">Kit::EventQueue::IQueue</text>
</a>
</g>
</g>
<!-- Node4&#45;&gt;Node1 -->
<g id="edge3_Node000001_Node000004" class="edge">
<title>Node4&#45;&gt;Node1</title>
<g id="a_edge3_Node000001_Node000004"><a xlink:title=" ">
<path fill="none" stroke="#9a32cd" stroke-dasharray="5,2" d="M370.37,-61.86C340.81,-49.25 296.19,-30.21 270.39,-19.2"/>
<polygon fill="#9a32cd" stroke="#9a32cd" points="369.2,-65.16 379.77,-65.87 371.95,-58.73 369.2,-65.16"/>
</a>
</g>
<text text-anchor="middle" x="372" y="-40" font-family="Helvetica,sans-Serif" font-size="10.00" fill="grey"> m_eventQueue</text>
</g>
<!-- Node5 -->
<g id="Node000005" class="node">
<title>Node5</title>
<g id="a_Node000005"><a xlink:title=" ">
<polygon fill="white" stroke="#bfbfbf" points="486.5,-152 313.5,-152 313.5,-122 486.5,-122 486.5,-152"/>
<text text-anchor="start" x="321.5" y="-140" font-family="Helvetica,sans-Serif" font-size="10.00">KIT_EVENT_QUEUE_SUPPORTED</text>
<text text-anchor="middle" x="400" y="-129" font-family="Helvetica,sans-Serif" font-size="10.00">_EVENT_TYPES</text>
</a>
</g>
</g>
<!-- Node5&#45;&gt;Node4 -->
<g id="edge4_Node000004_Node000005" class="edge">
<title>Node5&#45;&gt;Node4</title>
<g id="a_edge4_Node000004_Node000005"><a xlink:title=" ">
<path fill="none" stroke="#8b1a1a" d="M400,-111.79C400,-102.36 400,-92.15 400,-85.16"/>
<polygon fill="#8b1a1a" stroke="#8b1a1a" points="396.5,-111.9 400,-121.9 403.5,-111.9 396.5,-111.9"/>
</a>
</g>
</g>
</g>
</svg>
