<?xml version="1.0" encoding="UTF-8" standalone="no"?>
<!DOCTYPE svg PUBLIC "-//W3C//DTD SVG 1.1//EN"
 "http://www.w3.org/Graphics/SVG/1.1/DTD/svg11.dtd">
<!-- Generated by graphviz version 2.43.0 (0)
 -->
<!-- Title: Kit::Container::RingBufferMTAllocate&lt; ITEM, N &gt; Pages: 1 -->
<svg width="276pt" height="238pt"
 viewBox="0.00 0.00 276.00 238.00" xmlns="http://www.w3.org/2000/svg" xmlns:xlink="http://www.w3.org/1999/xlink">
<g id="graph0" class="graph" transform="scale(1 1) rotate(0) translate(4 234)">
<title>Kit::Container::RingBufferMTAllocate&lt; ITEM, N &gt;</title>
<!-- Node1 -->
<g id="Node000001" class="node">
<title>Node1</title>
<g id="a_Node000001"><a xlink:title="This template class extends the RingBuffer class by statically allocating memory for the ring buffer.">
<polygon fill="#999999" stroke="#666666" points="247,-30 107,-30 107,0 247,0 247,-30"/>
<text text-anchor="start" x="115" y="-18" font-family="Helvetica,sans-Serif" font-size="10.00">Kit::Container::RingBuffer</text>
<text text-anchor="middle" x="177" y="-7" font-family="Helvetica,sans-Serif" font-size="10.00">MTAllocate&lt; ITEM, N &gt;</text>
</a>
</g>
</g>
<!-- Node2 -->
<g id="Node000002" class="node">
<title>Node2</title>
<g id="a_Node000002"><a xlink:href="class_kit_1_1_container_1_1_ring_buffer_m_t.html" target="_top" xlink:title="This template class extends the RingBuffer class to be thread safe.">
<polygon fill="white" stroke="#666666" points="247,-97 107,-97 107,-67 247,-67 247,-97"/>
<text text-anchor="start" x="115" y="-85" font-family="Helvetica,sans-Serif" font-size="10.00">Kit::Container::RingBuffer</text>
<text text-anchor="middle" x="177" y="-74" font-family="Helvetica,sans-Serif" font-size="10.00">MT&lt; ITEM &gt;</text>
</a>
</g>
</g>
<!-- Node2&#45;&gt;Node1 -->
<g id="edge1_Node000001_Node000002" class="edge">
<title>Node2&#45;&gt;Node1</title>
<g id="a_edge1_Node000001_Node000002"><a xlink:title=" ">
<path fill="none" stroke="#63b8ff" d="M177,-56.61C177,-47.65 177,-37.82 177,-30.08"/>
<polygon fill="#63b8ff" stroke="#63b8ff" points="173.5,-56.9 177,-66.9 180.5,-56.9 173.5,-56.9"/>
</a>
</g>
</g>
<!-- Node3 -->
<g id="Node000003" class="node">
<title>Node3</title>
<g id="a_Node000003"><a xlink:href="class_kit_1_1_container_1_1_ring_buffer.html" target="_top" xlink:title="This template class implements a Ring Buffer.">
<polygon fill="white" stroke="#666666" points="140,-174 0,-174 0,-144 140,-144 140,-174"/>
<text text-anchor="start" x="8" y="-162" font-family="Helvetica,sans-Serif" font-size="10.00">Kit::Container::RingBuffer</text>
<text text-anchor="middle" x="70" y="-151" font-family="Helvetica,sans-Serif" font-size="10.00">&lt; ITEM &gt;</text>
</a>
</g>
</g>
<!-- Node3&#45;&gt;Node2 -->
<g id="edge2_Node000002_Node000003" class="edge">
<title>Node3&#45;&gt;Node2</title>
<g id="a_edge2_Node000002_Node000003"><a xlink:title=" ">
<path fill="none" stroke="#63b8ff" d="M98.46,-138.05C116.9,-125.13 140.48,-108.6 156.96,-97.04"/>
<polygon fill="#63b8ff" stroke="#63b8ff" points="96.31,-135.29 90.13,-143.89 100.32,-141.02 96.31,-135.29"/>
</a>
</g>
</g>
<!-- Node4 -->
<g id="Node000004" class="node">
<title>Node4</title>
<g id="a_Node000004"><a xlink:title=" ">
<polygon fill="white" stroke="#bfbfbf" points="127,-230 13,-230 13,-211 127,-211 127,-230"/>
<text text-anchor="middle" x="70" y="-218" font-family="Helvetica,sans-Serif" font-size="10.00">RingBufferBaseType</text>
</a>
</g>
</g>
<!-- Node4&#45;&gt;Node3 -->
<g id="edge3_Node000003_Node000004" class="edge">
<title>Node4&#45;&gt;Node3</title>
<g id="a_edge3_Node000003_Node000004"><a xlink:title=" ">
<path fill="none" stroke="#63b8ff" d="M70,-200.73C70,-192.09 70,-182 70,-174.02"/>
<polygon fill="#63b8ff" stroke="#63b8ff" points="66.5,-200.98 70,-210.98 73.5,-200.98 66.5,-200.98"/>
</a>
</g>
</g>
<!-- Node5 -->
<g id="Node000005" class="node">
<title>Node5</title>
<g id="a_Node000005"><a xlink:href="class_kit_1_1_system_1_1_mutex.html" target="_top" xlink:title="This concrete mutex class defines the interface for a mutex that has &quot;recursive&quot; semantics.">
<polygon fill="white" stroke="#666666" points="268,-168.5 158,-168.5 158,-149.5 268,-149.5 268,-168.5"/>
<text text-anchor="middle" x="213" y="-156.5" font-family="Helvetica,sans-Serif" font-size="10.00">Kit::System::Mutex</text>
</a>
</g>
</g>
<!-- Node5&#45;&gt;Node2 -->
<g id="edge4_Node000002_Node000005" class="edge">
<title>Node5&#45;&gt;Node2</title>
<g id="a_edge4_Node000002_Node000005"><a xlink:title=" ">
<path fill="none" stroke="#9a32cd" stroke-dasharray="5,2" d="M204.54,-140.38C198.21,-127.18 189.66,-109.37 183.77,-97.11"/>
<polygon fill="#9a32cd" stroke="#9a32cd" points="201.39,-141.9 208.87,-149.4 207.7,-138.87 201.39,-141.9"/>
</a>
</g>
<text text-anchor="middle" x="222" y="-118" font-family="Helvetica,sans-Serif" font-size="10.00" fill="grey"> m_mutex</text>
</g>
</g>
</svg>
