<?xml version="1.0" encoding="UTF-8" standalone="no"?>
<!DOCTYPE svg PUBLIC "-//W3C//DTD SVG 1.1//EN"
 "http://www.w3.org/Graphics/SVG/1.1/DTD/svg11.dtd">
<!-- Generated by graphviz version 2.43.0 (0)
 -->
<!-- Title: Kit::Persistence::Record::Media::NVAdapter Pages: 1 -->
<svg width="320pt" height="171pt"
 viewBox="0.00 0.00 319.50 171.00" xmlns="http://www.w3.org/2000/svg" xmlns:xlink="http://www.w3.org/1999/xlink">
<g id="graph0" class="graph" transform="scale(1 1) rotate(0) translate(4 167)">
<title>Kit::Persistence::Record::Media::NVAdapter</title>
<!-- Node1 -->
<g id="Node000001" class="node">
<title>Node1</title>
<g id="a_Node000001"><a xlink:title="This concrete class implements the IMedia interface using the NV driver API (aka EEPROM media)">
<polygon fill="#999999" stroke="#666666" points="148,-30 16,-30 16,0 148,0 148,-30"/>
<text text-anchor="start" x="24" y="-18" font-family="Helvetica,sans-Serif" font-size="10.00">Kit::Persistence::Record</text>
<text text-anchor="middle" x="82" y="-7" font-family="Helvetica,sans-Serif" font-size="10.00">::Media::NVAdapter</text>
</a>
</g>
</g>
<!-- Node2 -->
<g id="Node000002" class="node">
<title>Node2</title>
<g id="a_Node000002"><a xlink:href="class_kit_1_1_persistence_1_1_record_1_1_i_media.html" target="_top" xlink:title="This abstract class defines the operations that can be performed on a persistent media.">
<polygon fill="white" stroke="#666666" points="132,-107 0,-107 0,-77 132,-77 132,-107"/>
<text text-anchor="start" x="8" y="-95" font-family="Helvetica,sans-Serif" font-size="10.00">Kit::Persistence::Record</text>
<text text-anchor="middle" x="66" y="-84" font-family="Helvetica,sans-Serif" font-size="10.00">::IMedia</text>
</a>
</g>
</g>
<!-- Node2&#45;&gt;Node1 -->
<g id="edge1_Node000001_Node000002" class="edge">
<title>Node2&#45;&gt;Node1</title>
<g id="a_edge1_Node000001_Node000002"><a xlink:title=" ">
<path fill="none" stroke="#63b8ff" d="M71.14,-66.91C73.74,-54.74 76.8,-40.4 79,-30.04"/>
<polygon fill="#63b8ff" stroke="#63b8ff" points="67.67,-66.38 69.01,-76.89 74.52,-67.84 67.67,-66.38"/>
</a>
</g>
</g>
<!-- Node3 -->
<g id="Node000003" class="node">
<title>Node3</title>
<g id="a_Node000003"><a xlink:href="class_kit_1_1_driver_1_1_n_v_1_1_i_api.html" target="_top" xlink:title="This class defines the interface for a platform independent Non&#45;volatile storage driver.">
<polygon fill="white" stroke="#666666" points="260,-101.5 150,-101.5 150,-82.5 260,-82.5 260,-101.5"/>
<text text-anchor="middle" x="205" y="-89.5" font-family="Helvetica,sans-Serif" font-size="10.00">Kit::Driver::NV::IApi</text>
</a>
</g>
</g>
<!-- Node3&#45;&gt;Node1 -->
<g id="edge2_Node000001_Node000003" class="edge">
<title>Node3&#45;&gt;Node1</title>
<g id="a_edge2_Node000001_Node000003"><a xlink:title=" ">
<path fill="none" stroke="#9a32cd" stroke-dasharray="5,2" d="M182.23,-77.11C160.27,-63.73 127.22,-43.57 105.14,-30.11"/>
<polygon fill="#9a32cd" stroke="#9a32cd" points="180.53,-80.18 190.89,-82.4 184.17,-74.2 180.53,-80.18"/>
</a>
</g>
<text text-anchor="middle" x="174.5" y="-51" font-family="Helvetica,sans-Serif" font-size="10.00" fill="grey"> m_driver</text>
</g>
<!-- Node4 -->
<g id="Node000004" class="node">
<title>Node4</title>
<g id="a_Node000004"><a xlink:href="class_kit_1_1_driver_1_1_i_start.html" target="_top" xlink:title="This abstract class defines the method for starting a driver.">
<polygon fill="white" stroke="#666666" points="196,-163 98,-163 98,-144 196,-144 196,-163"/>
<text text-anchor="middle" x="147" y="-151" font-family="Helvetica,sans-Serif" font-size="10.00">Kit::Driver::IStart</text>
</a>
</g>
</g>
<!-- Node4&#45;&gt;Node3 -->
<g id="edge3_Node000003_Node000004" class="edge">
<title>Node4&#45;&gt;Node3</title>
<g id="a_edge3_Node000003_Node000004"><a xlink:title=" ">
<path fill="none" stroke="#63b8ff" d="M162.6,-136.5C173.58,-125.24 187.84,-110.6 196.71,-101.51"/>
<polygon fill="#63b8ff" stroke="#63b8ff" points="159.78,-134.37 155.31,-143.98 164.8,-139.26 159.78,-134.37"/>
</a>
</g>
</g>
<!-- Node5 -->
<g id="Node000005" class="node">
<title>Node5</title>
<g id="a_Node000005"><a xlink:href="class_kit_1_1_driver_1_1_i_stop.html" target="_top" xlink:title="This abstract class defines the method for stopping a driver.">
<polygon fill="white" stroke="#666666" points="311.5,-163 214.5,-163 214.5,-144 311.5,-144 311.5,-163"/>
<text text-anchor="middle" x="263" y="-151" font-family="Helvetica,sans-Serif" font-size="10.00">Kit::Driver::IStop</text>
</a>
</g>
</g>
<!-- Node5&#45;&gt;Node3 -->
<g id="edge4_Node000003_Node000005" class="edge">
<title>Node5&#45;&gt;Node3</title>
<g id="a_edge4_Node000003_Node000005"><a xlink:title=" ">
<path fill="none" stroke="#63b8ff" d="M247.4,-136.5C236.42,-125.24 222.16,-110.6 213.29,-101.51"/>
<polygon fill="#63b8ff" stroke="#63b8ff" points="245.2,-139.26 254.69,-143.98 250.22,-134.37 245.2,-139.26"/>
</a>
</g>
</g>
</g>
</svg>
