<?xml version="1.0" encoding="UTF-8" standalone="no"?>
<!DOCTYPE svg PUBLIC "-//W3C//DTD SVG 1.1//EN"
 "http://www.w3.org/Graphics/SVG/1.1/DTD/svg11.dtd">
<!-- Generated by graphviz version 2.43.0 (0)
 -->
<!-- Title: Kit::Io::Socket::ListenerRunnable Pages: 1 -->
<svg width="286pt" height="93pt"
 viewBox="0.00 0.00 285.50 93.00" xmlns="http://www.w3.org/2000/svg" xmlns:xlink="http://www.w3.org/1999/xlink">
<g id="graph0" class="graph" transform="scale(1 1) rotate(0) translate(4 89)">
<title>Kit::Io::Socket::ListenerRunnable</title>
<!-- Node1 -->
<g id="Node000001" class="node">
<title>Node1</title>
<g id="a_Node000001"><a xlink:title="This concrete class provides an implementation of a simple listener using IPv4 addressing.">
<polygon fill="#999999" stroke="#666666" points="203.5,-30 75.5,-30 75.5,0 203.5,0 203.5,-30"/>
<text text-anchor="start" x="83.5" y="-18" font-family="Helvetica,sans-Serif" font-size="10.00">Kit::Io::Socket::Listener</text>
<text text-anchor="middle" x="139.5" y="-7" font-family="Helvetica,sans-Serif" font-size="10.00">Runnable</text>
</a>
</g>
</g>
<!-- Node2 -->
<g id="Node000002" class="node">
<title>Node2</title>
<g id="a_Node000002"><a xlink:href="class_kit_1_1_io_1_1_socket_1_1_i_listener.html" target="_top" xlink:title="This abstract class defines the interface for a SIMPLE socket listener.">
<polygon fill="white" stroke="#666666" points="131,-85 0,-85 0,-66 131,-66 131,-85"/>
<text text-anchor="middle" x="65.5" y="-73" font-family="Helvetica,sans-Serif" font-size="10.00">Kit::Io::Socket::IListener</text>
</a>
</g>
</g>
<!-- Node2&#45;&gt;Node1 -->
<g id="edge1_Node000001_Node000002" class="edge">
<title>Node2&#45;&gt;Node1</title>
<g id="a_edge1_Node000001_Node000002"><a xlink:title=" ">
<path fill="none" stroke="#63b8ff" d="M84.47,-59.5C95.92,-50.45 110.41,-39 121.65,-30.11"/>
<polygon fill="#63b8ff" stroke="#63b8ff" points="82.09,-56.92 76.42,-65.87 86.43,-62.41 82.09,-56.92"/>
</a>
</g>
</g>
<!-- Node3 -->
<g id="Node000003" class="node">
<title>Node3</title>
<g id="a_Node000003"><a xlink:href="class_kit_1_1_system_1_1_i_runnable.html" target="_top" xlink:title="This mostly an abstract class defines the interface for an object that is &quot;executed&quot; when a Thread ob...">
<polygon fill="white" stroke="#666666" points="277.5,-85 149.5,-85 149.5,-66 277.5,-66 277.5,-85"/>
<text text-anchor="middle" x="213.5" y="-73" font-family="Helvetica,sans-Serif" font-size="10.00">Kit::System::IRunnable</text>
</a>
</g>
</g>
<!-- Node3&#45;&gt;Node1 -->
<g id="edge2_Node000001_Node000003" class="edge">
<title>Node3&#45;&gt;Node1</title>
<g id="a_edge2_Node000001_Node000003"><a xlink:title=" ">
<path fill="none" stroke="#63b8ff" d="M194.53,-59.5C183.08,-50.45 168.59,-39 157.35,-30.11"/>
<polygon fill="#63b8ff" stroke="#63b8ff" points="192.57,-62.41 202.58,-65.87 196.91,-56.92 192.57,-62.41"/>
</a>
</g>
</g>
</g>
</svg>
