<?xml version="1.0" encoding="UTF-8" standalone="no"?>
<!DOCTYPE svg PUBLIC "-//W3C//DTD SVG 1.1//EN"
 "http://www.w3.org/Graphics/SVG/1.1/DTD/svg11.dtd">
<!-- Generated by graphviz version 2.43.0 (0)
 -->
<!-- Title: Kit::Io::Socket::ListenerRunnable Pages: 1 -->
<svg width="555pt" height="300pt"
 viewBox="0.00 0.00 555.00 300.00" xmlns="http://www.w3.org/2000/svg" xmlns:xlink="http://www.w3.org/1999/xlink">
<g id="graph0" class="graph" transform="scale(1 1) rotate(0) translate(4 296)">
<title>Kit::Io::Socket::ListenerRunnable</title>
<!-- Node1 -->
<g id="Node000001" class="node">
<title>Node1</title>
<g id="a_Node000001"><a xlink:title="This concrete class provides an implementation of a simple listener using IPv4 addressing.">
<polygon fill="#999999" stroke="#666666" points="547,-235.5 419,-235.5 419,-205.5 547,-205.5 547,-235.5"/>
<text text-anchor="start" x="427" y="-223.5" font-family="Helvetica,sans-Serif" font-size="10.00">Kit::Io::Socket::Listener</text>
<text text-anchor="middle" x="483" y="-212.5" font-family="Helvetica,sans-Serif" font-size="10.00">Runnable</text>
</a>
</g>
</g>
<!-- Node2 -->
<g id="Node000002" class="node">
<title>Node2</title>
<g id="a_Node000002"><a xlink:href="class_kit_1_1_io_1_1_socket_1_1_i_listener.html" target="_top" xlink:title="This abstract class defines the interface for a SIMPLE socket listener.">
<polygon fill="white" stroke="#666666" points="280,-292 149,-292 149,-273 280,-273 280,-292"/>
<text text-anchor="middle" x="214.5" y="-280" font-family="Helvetica,sans-Serif" font-size="10.00">Kit::Io::Socket::IListener</text>
</a>
</g>
</g>
<!-- Node2&#45;&gt;Node1 -->
<g id="edge1_Node000001_Node000002" class="edge">
<title>Node2&#45;&gt;Node1</title>
<g id="a_edge1_Node000001_Node000002"><a xlink:title=" ">
<path fill="none" stroke="#63b8ff" d="M287.39,-271.27C321.98,-265.27 363.9,-257.14 401,-247.5 413.91,-244.15 427.76,-239.81 440.28,-235.6"/>
<polygon fill="#63b8ff" stroke="#63b8ff" points="286.64,-267.85 277.37,-272.98 287.82,-274.75 286.64,-267.85"/>
</a>
</g>
</g>
<!-- Node3 -->
<g id="Node000003" class="node">
<title>Node3</title>
<g id="a_Node000003"><a xlink:href="class_kit_1_1_system_1_1_i_runnable.html" target="_top" xlink:title="This mostly an abstract class defines the interface for an object that is &quot;executed&quot; when a Thread ob...">
<polygon fill="white" stroke="#666666" points="278.5,-152 150.5,-152 150.5,-133 278.5,-133 278.5,-152"/>
<text text-anchor="middle" x="214.5" y="-140" font-family="Helvetica,sans-Serif" font-size="10.00">Kit::System::IRunnable</text>
</a>
</g>
</g>
<!-- Node3&#45;&gt;Node1 -->
<g id="edge2_Node000001_Node000003" class="edge">
<title>Node3&#45;&gt;Node1</title>
<g id="a_edge2_Node000001_Node000003"><a xlink:title=" ">
<path fill="none" stroke="#63b8ff" d="M258,-154.94C304.81,-168.64 380.08,-190.67 430.28,-205.36"/>
<polygon fill="#63b8ff" stroke="#63b8ff" points="258.76,-151.51 248.18,-152.06 256.79,-158.23 258.76,-151.51"/>
</a>
</g>
</g>
<!-- Node4 -->
<g id="Node000004" class="node">
<title>Node4</title>
<g id="a_Node000004"><a xlink:href="class_kit_1_1_system_1_1_thread.html" target="_top" xlink:title="This mostly abstract class defines the operations that can be performed on a thread.">
<polygon fill="white" stroke="#666666" points="539.5,-102 426.5,-102 426.5,-83 539.5,-83 539.5,-102"/>
<text text-anchor="middle" x="483" y="-90" font-family="Helvetica,sans-Serif" font-size="10.00">Kit::System::Thread</text>
</a>
</g>
</g>
<!-- Node3&#45;&gt;Node4 -->
<g id="edge8_Node000004_Node000003" class="edge">
<title>Node3&#45;&gt;Node4</title>
<g id="a_edge8_Node000004_Node000003"><a xlink:title=" ">
<path fill="none" stroke="#9a32cd" stroke-dasharray="5,2" d="M288.72,-137.47C323.1,-134.18 364.46,-128.88 401,-120.5 420.87,-115.94 442.67,-108.24 458.64,-102.07"/>
<polygon fill="#9a32cd" stroke="#9a32cd" points="288.39,-133.98 278.76,-138.38 289.03,-140.95 288.39,-133.98"/>
</a>
</g>
<text text-anchor="middle" x="349.5" y="-138.5" font-family="Helvetica,sans-Serif" font-size="10.00" fill="grey"> m_runnable</text>
</g>
<!-- Node4&#45;&gt;Node3 -->
<g id="edge3_Node000003_Node000004" class="edge">
<title>Node4&#45;&gt;Node3</title>
<g id="a_edge3_Node000003_Node000004"><a xlink:title=" ">
<path fill="none" stroke="#9a32cd" stroke-dasharray="5,2" d="M415.96,-94C380.57,-95.95 336.46,-100.24 298,-109.5 275.5,-114.92 251.05,-125.32 234.65,-133"/>
<polygon fill="#9a32cd" stroke="#9a32cd" points="416.35,-97.49 426.17,-93.49 416,-90.49 416.35,-97.49"/>
</a>
</g>
<text text-anchor="middle" x="349.5" y="-112.5" font-family="Helvetica,sans-Serif" font-size="10.00" fill="grey"> m_parentThreadPtr_</text>
</g>
<!-- Node5 -->
<g id="Node000005" class="node">
<title>Node5</title>
<g id="a_Node000005"><a xlink:href="class_kit_1_1_system_1_1_i_signable.html" target="_top" xlink:title="This abstract class defines the interface by which a client can cause an object that is waiting&#45;on&#45;a&#45;...">
<polygon fill="white" stroke="#666666" points="276.5,-85 152.5,-85 152.5,-66 276.5,-66 276.5,-85"/>
<text text-anchor="middle" x="214.5" y="-73" font-family="Helvetica,sans-Serif" font-size="10.00">Kit::System::ISignable</text>
</a>
</g>
</g>
<!-- Node5&#45;&gt;Node4 -->
<g id="edge4_Node000004_Node000005" class="edge">
<title>Node5&#45;&gt;Node4</title>
<g id="a_edge4_Node000004_Node000005"><a xlink:title=" ">
<path fill="none" stroke="#63b8ff" d="M286.64,-80.04C330.36,-82.83 385.57,-86.35 426.14,-88.94"/>
<polygon fill="#63b8ff" stroke="#63b8ff" points="286.84,-76.54 276.64,-79.4 286.4,-83.53 286.84,-76.54"/>
</a>
</g>
</g>
<!-- Node6 -->
<g id="Node000006" class="node">
<title>Node6</title>
<g id="a_Node000006"><a xlink:href="class_kit_1_1_container_1_1_list_item.html" target="_top" xlink:title="This class is used by the Container classes to implement a various types of linked lists containers.">
<polygon fill="white" stroke="#666666" points="279,-19 150,-19 150,0 279,0 279,-19"/>
<text text-anchor="middle" x="214.5" y="-7" font-family="Helvetica,sans-Serif" font-size="10.00">Kit::Container::ListItem</text>
</a>
</g>
</g>
<!-- Node6&#45;&gt;Node4 -->
<g id="edge5_Node000004_Node000006" class="edge">
<title>Node6&#45;&gt;Node4</title>
<g id="a_edge5_Node000004_Node000006"><a xlink:title=" ">
<path fill="none" stroke="#63b8ff" d="M255.93,-22.09C309.59,-38.8 403.18,-67.95 451.38,-82.96"/>
<polygon fill="#63b8ff" stroke="#63b8ff" points="256.66,-18.65 246.07,-19.02 254.58,-25.34 256.66,-18.65"/>
</a>
</g>
</g>
<!-- Node6&#45;&gt;Node6 -->
<g id="edge7_Node000006_Node000006" class="edge">
<title>Node6&#45;&gt;Node6</title>
<g id="a_edge7_Node000006_Node000006"><a xlink:title=" ">
<path fill="none" stroke="#9a32cd" stroke-dasharray="5,2" d="M199.03,-28.91C200.25,-33.56 205.4,-37 214.5,-37 229.43,-37 233.75,-27.73 227.45,-19.08"/>
<polygon fill="#9a32cd" stroke="#9a32cd" points="202.46,-29.64 201.55,-19.08 195.68,-27.9 202.46,-29.64"/>
</a>
</g>
<text text-anchor="middle" x="214.5" y="-40" font-family="Helvetica,sans-Serif" font-size="10.00" fill="grey"> m_nextPtr_</text>
</g>
<!-- Node7 -->
<g id="Node000007" class="node">
<title>Node7</title>
<g id="a_Node000007"><a xlink:href="class_kit_1_1_container_1_1_item.html" target="_top" xlink:title="This class is used by the Intrusive Container classes to enforce the semantic and item/element can be...">
<polygon fill="white" stroke="#666666" points="112,-19 0,-19 0,0 112,0 112,-19"/>
<text text-anchor="middle" x="56" y="-7" font-family="Helvetica,sans-Serif" font-size="10.00">Kit::Container::Item</text>
</a>
</g>
</g>
<!-- Node7&#45;&gt;Node6 -->
<g id="edge6_Node000006_Node000007" class="edge">
<title>Node7&#45;&gt;Node6</title>
<g id="a_edge6_Node000006_Node000007"><a xlink:title=" ">
<path fill="none" stroke="#63b8ff" d="M122.29,-9.5C131.37,-9.5 140.68,-9.5 149.73,-9.5"/>
<polygon fill="#63b8ff" stroke="#63b8ff" points="122.18,-6 112.18,-9.5 122.18,-13 122.18,-6"/>
</a>
</g>
</g>
<!-- Node8 -->
<g id="Node000008" class="node">
<title>Node8</title>
<g id="a_Node000008"><a xlink:href="class_kit_1_1_io_1_1_socket_1_1_i_listener_client.html" target="_top" xlink:title="This abstract class defines the callback mechanism used for accepting incoming socket connections.">
<polygon fill="white" stroke="#666666" points="280,-254.5 149,-254.5 149,-224.5 280,-224.5 280,-254.5"/>
<text text-anchor="start" x="157" y="-242.5" font-family="Helvetica,sans-Serif" font-size="10.00">Kit::Io::Socket::IListener</text>
<text text-anchor="middle" x="214.5" y="-231.5" font-family="Helvetica,sans-Serif" font-size="10.00">Client</text>
</a>
</g>
</g>
<!-- Node8&#45;&gt;Node1 -->
<g id="edge9_Node000001_Node000008" class="edge">
<title>Node8&#45;&gt;Node1</title>
<g id="a_edge9_Node000001_Node000008"><a xlink:title=" ">
<path fill="none" stroke="#9a32cd" stroke-dasharray="5,2" d="M290.09,-234.18C330.53,-231.3 379.97,-227.77 418.54,-225.02"/>
<polygon fill="#9a32cd" stroke="#9a32cd" points="289.74,-230.7 280.01,-234.9 290.24,-237.68 289.74,-230.7"/>
</a>
</g>
<text text-anchor="middle" x="349.5" y="-235.5" font-family="Helvetica,sans-Serif" font-size="10.00" fill="grey"> m_clientPtr</text>
</g>
<!-- Node9 -->
<g id="Node000009" class="node">
<title>Node9</title>
<g id="a_Node000009"><a xlink:href="class_kit_1_1_system_1_1_mutex.html" target="_top" xlink:title="This concrete mutex class defines the interface for a mutex that has &quot;recursive&quot; semantics.">
<polygon fill="white" stroke="#666666" points="269.5,-206 159.5,-206 159.5,-187 269.5,-187 269.5,-206"/>
<text text-anchor="middle" x="214.5" y="-194" font-family="Helvetica,sans-Serif" font-size="10.00">Kit::System::Mutex</text>
</a>
</g>
</g>
<!-- Node9&#45;&gt;Node1 -->
<g id="edge10_Node000001_Node000009" class="edge">
<title>Node9&#45;&gt;Node1</title>
<g id="a_edge10_Node000001_Node000009"><a xlink:title=" ">
<path fill="none" stroke="#9a32cd" stroke-dasharray="5,2" d="M279.8,-201.22C315.52,-203.97 360.75,-207.64 401,-211.5 406.77,-212.05 412.78,-212.66 418.79,-213.29"/>
<polygon fill="#9a32cd" stroke="#9a32cd" points="279.75,-197.71 269.52,-200.44 279.22,-204.69 279.75,-197.71"/>
</a>
</g>
<text text-anchor="middle" x="349.5" y="-214.5" font-family="Helvetica,sans-Serif" font-size="10.00" fill="grey"> m_lock</text>
</g>
</g>
</svg>
