<?xml version="1.0" encoding="UTF-8" standalone="no"?>
<!DOCTYPE svg PUBLIC "-//W3C//DTD SVG 1.1//EN"
 "http://www.w3.org/Graphics/SVG/1.1/DTD/svg11.dtd">
<!-- Generated by graphviz version 2.43.0 (0)
 -->
<!-- Title: Kit::Dm::Mp::Void Pages: 1 -->
<svg width="1690pt" height="81pt"
 viewBox="0.00 0.00 1690.00 81.00" xmlns="http://www.w3.org/2000/svg" xmlns:xlink="http://www.w3.org/1999/xlink">
<g id="graph0" class="graph" transform="scale(1 1) rotate(0) translate(4 77)">
<title>Kit::Dm::Mp::Void</title>
<!-- Node1 -->
<g id="Node000001" class="node">
<title>Node1</title>
<g id="a_Node000001"><a xlink:title="This class provides a concrete implementation for a Point who&#39;s data is a void pointer.">
<polygon fill="#999999" stroke="#666666" points="1682,-46.5 1581,-46.5 1581,-27.5 1682,-27.5 1682,-46.5"/>
<text text-anchor="middle" x="1631.5" y="-34.5" font-family="Helvetica,sans-Serif" font-size="10.00">Kit::Dm::Mp::Void</text>
</a>
</g>
</g>
<!-- Node2 -->
<g id="Node000002" class="node">
<title>Node2</title>
<g id="a_Node000002"><a xlink:href="class_kit_1_1_dm_1_1_mp_1_1_primitive_type.html" target="_top" xlink:title=" ">
<polygon fill="white" stroke="#666666" points="1544,-52 1397,-52 1397,-22 1544,-22 1544,-52"/>
<text text-anchor="start" x="1405" y="-40" font-family="Helvetica,sans-Serif" font-size="10.00">Kit::Dm::Mp::PrimitiveType</text>
<text text-anchor="middle" x="1470.5" y="-29" font-family="Helvetica,sans-Serif" font-size="10.00">&lt; uintptr_t, Void &gt;</text>
</a>
</g>
</g>
<!-- Node2&#45;&gt;Node1 -->
<g id="edge1_Node000001_Node000002" class="edge">
<title>Node2&#45;&gt;Node1</title>
<g id="a_edge1_Node000001_Node000002"><a xlink:title=" ">
<path fill="none" stroke="#63b8ff" d="M1554.26,-37C1563.33,-37 1572.34,-37 1580.83,-37"/>
<polygon fill="#63b8ff" stroke="#63b8ff" points="1554.02,-33.5 1544.02,-37 1554.02,-40.5 1554.02,-33.5"/>
</a>
</g>
</g>
<!-- Node3 -->
<g id="Node000003" class="node">
<title>Node3</title>
<g id="a_Node000003"><a xlink:href="class_kit_1_1_dm_1_1_mp_1_1_scalar.html" target="_top" xlink:title="This template class is partial concrete class that provides a basic implementation for a Model Point ...">
<polygon fill="white" stroke="#666666" points="1102,-73 968,-73 968,-43 1102,-43 1102,-73"/>
<text text-anchor="start" x="976" y="-61" font-family="Helvetica,sans-Serif" font-size="10.00">Kit::Dm::Mp::Scalar</text>
<text text-anchor="middle" x="1035" y="-50" font-family="Helvetica,sans-Serif" font-size="10.00">&lt; ELEMTYPE, MPTYPE &gt;</text>
</a>
</g>
</g>
<!-- Node3&#45;&gt;Node2 -->
<g id="edge2_Node000002_Node000003" class="edge">
<title>Node3&#45;&gt;Node2</title>
<g id="a_edge2_Node000002_Node000003"><a xlink:title=" ">
<path fill="none" stroke="#63b8ff" d="M1112.53,-55.67C1182.07,-53.37 1287.47,-49.41 1379,-44 1384.82,-43.66 1390.85,-43.27 1396.9,-42.85"/>
<polygon fill="#63b8ff" stroke="#63b8ff" points="1111.99,-52.19 1102.11,-56.02 1112.22,-59.19 1111.99,-52.19"/>
</a>
</g>
</g>
<!-- Node4 -->
<g id="Node000004" class="node">
<title>Node4</title>
<g id="a_Node000004"><a xlink:href="class_kit_1_1_dm_1_1_model_point_base.html" target="_top" xlink:title="This concrete class provide common infrastructure for a Model Point.">
<polygon fill="white" stroke="#666666" points="779,-45.5 641,-45.5 641,-26.5 779,-26.5 779,-45.5"/>
<text text-anchor="middle" x="710" y="-33.5" font-family="Helvetica,sans-Serif" font-size="10.00">Kit::Dm::ModelPointBase</text>
</a>
</g>
</g>
<!-- Node4&#45;&gt;Node3 -->
<g id="edge3_Node000003_Node000004" class="edge">
<title>Node4&#45;&gt;Node3</title>
<g id="a_edge3_Node000003_Node000004"><a xlink:title=" ">
<path fill="none" stroke="#63b8ff" d="M789.1,-41.32C843.8,-45.05 916.09,-49.97 967.92,-53.5"/>
<polygon fill="#63b8ff" stroke="#63b8ff" points="789.32,-37.83 779.11,-40.64 788.84,-44.81 789.32,-37.83"/>
</a>
</g>
</g>
<!-- Node10 -->
<g id="Node000010" class="node">
<title>Node10</title>
<g id="a_Node000010"><a xlink:href="class_kit_1_1_dm_1_1_mp_1_1_scalar.html" target="_top" xlink:title="This template class is partial concrete class that provides a basic implementation for a Model Point ...">
<polygon fill="white" stroke="#666666" points="950,-30 816,-30 816,0 950,0 950,-30"/>
<text text-anchor="start" x="824" y="-18" font-family="Helvetica,sans-Serif" font-size="10.00">Kit::Dm::Mp::Scalar</text>
<text text-anchor="middle" x="883" y="-7" font-family="Helvetica,sans-Serif" font-size="10.00">&lt; ELEMTYPE, MPTYPE &gt;</text>
</a>
</g>
</g>
<!-- Node4&#45;&gt;Node10 -->
<g id="edge10_Node000010_Node000004" class="edge">
<title>Node4&#45;&gt;Node10</title>
<g id="a_edge10_Node000010_Node000004"><a xlink:title=" ">
<path fill="none" stroke="#63b8ff" d="M789.1,-26.41C798.03,-25.31 807.07,-24.2 815.83,-23.13"/>
<polygon fill="#63b8ff" stroke="#63b8ff" points="788.57,-22.95 779.08,-27.64 789.43,-29.89 788.57,-22.95"/>
</a>
</g>
</g>
<!-- Node5 -->
<g id="Node000005" class="node">
<title>Node5</title>
<g id="a_Node000005"><a xlink:href="class_kit_1_1_dm_1_1_i_model_point.html" target="_top" xlink:title="This mostly abstract class defines the interface for a Model Point.">
<polygon fill="white" stroke="#666666" points="604,-45.5 487,-45.5 487,-26.5 604,-26.5 604,-45.5"/>
<text text-anchor="middle" x="545.5" y="-33.5" font-family="Helvetica,sans-Serif" font-size="10.00">Kit::Dm::IModelPoint</text>
</a>
</g>
</g>
<!-- Node5&#45;&gt;Node4 -->
<g id="edge4_Node000004_Node000005" class="edge">
<title>Node5&#45;&gt;Node4</title>
<g id="a_edge4_Node000004_Node000005"><a xlink:title=" ">
<path fill="none" stroke="#63b8ff" d="M614.4,-36C623.16,-36 632.13,-36 640.88,-36"/>
<polygon fill="#63b8ff" stroke="#63b8ff" points="614.25,-32.5 604.25,-36 614.25,-39.5 614.25,-32.5"/>
</a>
</g>
</g>
<!-- Node6 -->
<g id="Node000006" class="node">
<title>Node6</title>
<g id="a_Node000006"><a xlink:href="class_kit_1_1_container_1_1_extended_list_item.html" target="_top" xlink:title="This class is used by the Container classes to implement a various types of DOUBLY linked containers.">
<polygon fill="white" stroke="#666666" points="450,-51 315,-51 315,-21 450,-21 450,-51"/>
<text text-anchor="start" x="323" y="-39" font-family="Helvetica,sans-Serif" font-size="10.00">Kit::Container::Extended</text>
<text text-anchor="middle" x="382.5" y="-28" font-family="Helvetica,sans-Serif" font-size="10.00">ListItem</text>
</a>
</g>
</g>
<!-- Node6&#45;&gt;Node5 -->
<g id="edge5_Node000005_Node000006" class="edge">
<title>Node6&#45;&gt;Node5</title>
<g id="a_edge5_Node000005_Node000006"><a xlink:title=" ">
<path fill="none" stroke="#63b8ff" d="M460.66,-36C469.46,-36 478.31,-36 486.8,-36"/>
<polygon fill="#63b8ff" stroke="#63b8ff" points="460.38,-32.5 450.38,-36 460.38,-39.5 460.38,-32.5"/>
</a>
</g>
</g>
<!-- Node7 -->
<g id="Node000007" class="node">
<title>Node7</title>
<g id="a_Node000007"><a xlink:href="class_kit_1_1_container_1_1_list_item.html" target="_top" xlink:title="This class is used by the Container classes to implement a various types of linked lists containers.">
<polygon fill="white" stroke="#666666" points="278,-45.5 149,-45.5 149,-26.5 278,-26.5 278,-45.5"/>
<text text-anchor="middle" x="213.5" y="-33.5" font-family="Helvetica,sans-Serif" font-size="10.00">Kit::Container::ListItem</text>
</a>
</g>
</g>
<!-- Node7&#45;&gt;Node6 -->
<g id="edge6_Node000006_Node000007" class="edge">
<title>Node7&#45;&gt;Node6</title>
<g id="a_edge6_Node000006_Node000007"><a xlink:title=" ">
<path fill="none" stroke="#63b8ff" d="M288.34,-36C297.12,-36 306.05,-36 314.73,-36"/>
<polygon fill="#63b8ff" stroke="#63b8ff" points="288.11,-32.5 278.11,-36 288.11,-39.5 288.11,-32.5"/>
</a>
</g>
</g>
<!-- Node8 -->
<g id="Node000008" class="node">
<title>Node8</title>
<g id="a_Node000008"><a xlink:href="class_kit_1_1_container_1_1_item.html" target="_top" xlink:title="This class is used by the Intrusive Container classes to enforce the semantic and item/element can be...">
<polygon fill="white" stroke="#666666" points="112,-45.5 0,-45.5 0,-26.5 112,-26.5 112,-45.5"/>
<text text-anchor="middle" x="56" y="-33.5" font-family="Helvetica,sans-Serif" font-size="10.00">Kit::Container::Item</text>
</a>
</g>
</g>
<!-- Node8&#45;&gt;Node7 -->
<g id="edge7_Node000007_Node000008" class="edge">
<title>Node8&#45;&gt;Node7</title>
<g id="a_edge7_Node000007_Node000008"><a xlink:title=" ">
<path fill="none" stroke="#63b8ff" d="M122.43,-36C131.2,-36 140.19,-36 148.93,-36"/>
<polygon fill="#63b8ff" stroke="#63b8ff" points="122.26,-32.5 112.26,-36 122.26,-39.5 122.26,-32.5"/>
</a>
</g>
</g>
<!-- Node9 -->
<g id="Node000009" class="node">
<title>Node9</title>
<g id="a_Node000009"><a xlink:href="class_kit_1_1_dm_1_1_mp_1_1_primitive_type.html" target="_top" xlink:title="This template class extends the Scalar base class to data that is a C primitive type of type: &#39;ELEMTY...">
<polygon fill="white" stroke="#666666" points="1267,-30 1120,-30 1120,0 1267,0 1267,-30"/>
<text text-anchor="start" x="1128" y="-18" font-family="Helvetica,sans-Serif" font-size="10.00">Kit::Dm::Mp::PrimitiveType</text>
<text text-anchor="middle" x="1193.5" y="-7" font-family="Helvetica,sans-Serif" font-size="10.00">&lt; ELEMTYPE, MPTYPE &gt;</text>
</a>
</g>
</g>
<!-- Node9&#45;&gt;Node2 -->
<g id="edge8_Node000002_Node000009" class="edge">
<title>Node9&#45;&gt;Node2</title>
<g id="a_edge8_Node000002_Node000009"><a xlink:title=" ">
<path fill="none" stroke="orange" stroke-dasharray="5,2" d="M1277.16,-21.61C1315.3,-24.66 1360.16,-28.25 1396.96,-31.2"/>
<polygon fill="orange" stroke="orange" points="1277.36,-18.12 1267.11,-20.81 1276.8,-25.1 1277.36,-18.12"/>
</a>
</g>
<text text-anchor="middle" x="1332" y="-33" font-family="Helvetica,sans-Serif" font-size="10.00" fill="grey"> &lt; uintptr_t, Void &gt;</text>
</g>
<!-- Node10&#45;&gt;Node9 -->
<g id="edge9_Node000009_Node000010" class="edge">
<title>Node10&#45;&gt;Node9</title>
<g id="a_edge9_Node000009_Node000010"><a xlink:title=" ">
<path fill="none" stroke="#63b8ff" d="M960.36,-15C1009.12,-15 1071.96,-15 1119.96,-15"/>
<polygon fill="#63b8ff" stroke="#63b8ff" points="960.18,-11.5 950.18,-15 960.18,-18.5 960.18,-11.5"/>
</a>
</g>
</g>
</g>
</svg>
