<?xml version="1.0" encoding="UTF-8" standalone="no"?>
<!DOCTYPE svg PUBLIC "-//W3C//DTD SVG 1.1//EN"
 "http://www.w3.org/Graphics/SVG/1.1/DTD/svg11.dtd">
<!-- Generated by graphviz version 2.43.0 (0)
 -->
<!-- Title: Kit::Container::RingBufferMPAllocate&lt; ITEM, N &gt; Pages: 1 -->
<svg width="476pt" height="1100pt"
 viewBox="0.00 0.00 476.00 1100.00" xmlns="http://www.w3.org/2000/svg" xmlns:xlink="http://www.w3.org/1999/xlink">
<g id="graph0" class="graph" transform="scale(1 1) rotate(0) translate(4 1096)">
<title>Kit::Container::RingBufferMPAllocate&lt; ITEM, N &gt;</title>
<!-- Node1 -->
<g id="Node000001" class="node">
<title>Node1</title>
<g id="a_Node000001"><a xlink:title="This template class extends the RingBufferMP class by statically allocating memory for the ring buffe...">
<polygon fill="#999999" stroke="#666666" points="341,-30 201,-30 201,0 341,0 341,-30"/>
<text text-anchor="start" x="209" y="-18" font-family="Helvetica,sans-Serif" font-size="10.00">Kit::Container::RingBuffer</text>
<text text-anchor="middle" x="271" y="-7" font-family="Helvetica,sans-Serif" font-size="10.00">MPAllocate&lt; ITEM, N &gt;</text>
</a>
</g>
</g>
<!-- Node2 -->
<g id="Node000002" class="node">
<title>Node2</title>
<g id="a_Node000002"><a xlink:href="class_kit_1_1_container_1_1_ring_buffer_m_p.html" target="_top" xlink:title="This template class extends the RingBuffer class to be thread safe AND has Uint32 Model Point that tr...">
<polygon fill="white" stroke="#666666" points="341,-97 201,-97 201,-67 341,-67 341,-97"/>
<text text-anchor="start" x="209" y="-85" font-family="Helvetica,sans-Serif" font-size="10.00">Kit::Container::RingBuffer</text>
<text text-anchor="middle" x="271" y="-74" font-family="Helvetica,sans-Serif" font-size="10.00">MP&lt; ITEM &gt;</text>
</a>
</g>
</g>
<!-- Node2&#45;&gt;Node1 -->
<g id="edge1_Node000001_Node000002" class="edge">
<title>Node2&#45;&gt;Node1</title>
<g id="a_edge1_Node000001_Node000002"><a xlink:title=" ">
<path fill="none" stroke="#63b8ff" d="M271,-56.61C271,-47.65 271,-37.82 271,-30.08"/>
<polygon fill="#63b8ff" stroke="#63b8ff" points="267.5,-56.9 271,-66.9 274.5,-56.9 267.5,-56.9"/>
</a>
</g>
</g>
<!-- Node3 -->
<g id="Node000003" class="node">
<title>Node3</title>
<g id="a_Node000003"><a xlink:href="class_kit_1_1_container_1_1_ring_buffer.html" target="_top" xlink:title="This template class implements a Ring Buffer.">
<polygon fill="white" stroke="#666666" points="193,-174 53,-174 53,-144 193,-144 193,-174"/>
<text text-anchor="start" x="61" y="-162" font-family="Helvetica,sans-Serif" font-size="10.00">Kit::Container::RingBuffer</text>
<text text-anchor="middle" x="123" y="-151" font-family="Helvetica,sans-Serif" font-size="10.00">&lt; ITEM &gt;</text>
</a>
</g>
</g>
<!-- Node3&#45;&gt;Node2 -->
<g id="edge2_Node000002_Node000003" class="edge">
<title>Node3&#45;&gt;Node2</title>
<g id="a_edge2_Node000002_Node000003"><a xlink:title=" ">
<path fill="none" stroke="#63b8ff" d="M159.96,-139.27C185.8,-126.18 219.76,-108.97 243.29,-97.04"/>
<polygon fill="#63b8ff" stroke="#63b8ff" points="158.18,-136.25 150.84,-143.89 161.34,-142.49 158.18,-136.25"/>
</a>
</g>
</g>
<!-- Node4 -->
<g id="Node000004" class="node">
<title>Node4</title>
<g id="a_Node000004"><a xlink:title=" ">
<polygon fill="white" stroke="#bfbfbf" points="175,-235.5 61,-235.5 61,-216.5 175,-216.5 175,-235.5"/>
<text text-anchor="middle" x="118" y="-223.5" font-family="Helvetica,sans-Serif" font-size="10.00">RingBufferBaseType</text>
</a>
</g>
</g>
<!-- Node4&#45;&gt;Node3 -->
<g id="edge3_Node000003_Node000004" class="edge">
<title>Node4&#45;&gt;Node3</title>
<g id="a_edge3_Node000003_Node000004"><a xlink:title=" ">
<path fill="none" stroke="#63b8ff" d="M119.44,-206.24C120.23,-195.99 121.19,-183.5 121.92,-174.09"/>
<polygon fill="#63b8ff" stroke="#63b8ff" points="115.95,-205.99 118.67,-216.23 122.93,-206.53 115.95,-205.99"/>
</a>
</g>
</g>
<!-- Node5 -->
<g id="Node000005" class="node">
<title>Node5</title>
<g id="a_Node000005"><a xlink:href="class_kit_1_1_dm_1_1_mp_1_1_uint32.html" target="_top" xlink:title="This class provides a concrete implementation for a Point who&#39;s data is a uint32_t.">
<polygon fill="white" stroke="#666666" points="327.5,-168.5 214.5,-168.5 214.5,-149.5 327.5,-149.5 327.5,-168.5"/>
<text text-anchor="middle" x="271" y="-156.5" font-family="Helvetica,sans-Serif" font-size="10.00">Kit::Dm::Mp::Uint32</text>
</a>
</g>
</g>
<!-- Node5&#45;&gt;Node2 -->
<g id="edge4_Node000002_Node000005" class="edge">
<title>Node5&#45;&gt;Node2</title>
<g id="a_edge4_Node000002_Node000005"><a xlink:title=" ">
<path fill="none" stroke="#9a32cd" stroke-dasharray="5,2" d="M271,-139.2C271,-126.14 271,-109.01 271,-97.11"/>
<polygon fill="#9a32cd" stroke="#9a32cd" points="267.5,-139.4 271,-149.4 274.5,-139.4 267.5,-139.4"/>
</a>
</g>
<text text-anchor="middle" x="322.5" y="-118" font-family="Helvetica,sans-Serif" font-size="10.00" fill="grey"> m_mpElementCount</text>
</g>
<!-- Node6 -->
<g id="Node000006" class="node">
<title>Node6</title>
<g id="a_Node000006"><a xlink:href="class_kit_1_1_dm_1_1_mp_1_1_unsigned_integer.html" target="_top" xlink:title=" ">
<polygon fill="white" stroke="#666666" points="354.5,-241 193.5,-241 193.5,-211 354.5,-211 354.5,-241"/>
<text text-anchor="start" x="201.5" y="-229" font-family="Helvetica,sans-Serif" font-size="10.00">Kit::Dm::Mp::UnsignedInteger</text>
<text text-anchor="middle" x="274" y="-218" font-family="Helvetica,sans-Serif" font-size="10.00">&lt; uint32_t, Uint32 &gt;</text>
</a>
</g>
</g>
<!-- Node6&#45;&gt;Node5 -->
<g id="edge5_Node000005_Node000006" class="edge">
<title>Node6&#45;&gt;Node5</title>
<g id="a_edge5_Node000005_Node000006"><a xlink:title=" ">
<path fill="none" stroke="#63b8ff" d="M272.88,-200.75C272.36,-189.52 271.78,-176.88 271.4,-168.69"/>
<polygon fill="#63b8ff" stroke="#63b8ff" points="269.39,-201.07 273.35,-210.9 276.38,-200.75 269.39,-201.07"/>
</a>
</g>
</g>
<!-- Node7 -->
<g id="Node000007" class="node">
<title>Node7</title>
<g id="a_Node000007"><a xlink:href="class_kit_1_1_dm_1_1_mp_1_1_integer.html" target="_top" xlink:title="This template class provides a mostly concrete implementation for a Model Point who&#39;s data is a C int...">
<polygon fill="white" stroke="#666666" points="308,-366 174,-366 174,-336 308,-336 308,-366"/>
<text text-anchor="start" x="182" y="-354" font-family="Helvetica,sans-Serif" font-size="10.00">Kit::Dm::Mp::Integer</text>
<text text-anchor="middle" x="241" y="-343" font-family="Helvetica,sans-Serif" font-size="10.00">&lt; ELEMTYPE, MPTYPE &gt;</text>
</a>
</g>
</g>
<!-- Node7&#45;&gt;Node6 -->
<g id="edge6_Node000006_Node000007" class="edge">
<title>Node7&#45;&gt;Node6</title>
<g id="a_edge6_Node000006_Node000007"><a xlink:title=" ">
<path fill="none" stroke="#63b8ff" d="M247.09,-325.94C250.04,-314.44 253.65,-300.49 257,-288 261.33,-271.86 266.51,-253.38 270.01,-241.03"/>
<polygon fill="#63b8ff" stroke="#63b8ff" points="243.69,-325.14 244.61,-335.7 250.47,-326.87 243.69,-325.14"/>
</a>
</g>
</g>
<!-- Node8 -->
<g id="Node000008" class="node">
<title>Node8</title>
<g id="a_Node000008"><a xlink:href="class_kit_1_1_dm_1_1_mp_1_1_numeric_base.html" target="_top" xlink:title="This template class extends the PrimitiveType class to provide numeric operations.">
<polygon fill="white" stroke="#666666" points="333,-481 187,-481 187,-451 333,-451 333,-481"/>
<text text-anchor="start" x="195" y="-469" font-family="Helvetica,sans-Serif" font-size="10.00">Kit::Dm::Mp::NumericBase</text>
<text text-anchor="middle" x="260" y="-458" font-family="Helvetica,sans-Serif" font-size="10.00">&lt; ELEMTYPE, MPTYPE &gt;</text>
</a>
</g>
</g>
<!-- Node8&#45;&gt;Node7 -->
<g id="edge7_Node000007_Node000008" class="edge">
<title>Node8&#45;&gt;Node7</title>
<g id="a_edge7_Node000007_Node000008"><a xlink:title=" ">
<path fill="none" stroke="#63b8ff" d="M255.93,-440.79C252.11,-418.08 246.53,-384.9 243.39,-366.2"/>
<polygon fill="#63b8ff" stroke="#63b8ff" points="252.48,-441.41 257.59,-450.69 259.39,-440.25 252.48,-441.41"/>
</a>
</g>
</g>
<!-- Node25 -->
<g id="Node000025" class="node">
<title>Node25</title>
<g id="a_Node000025"><a xlink:href="class_kit_1_1_dm_1_1_mp_1_1_integer.html" target="_top" xlink:title="This template class provides a mostly concrete implementation for a Model Point who&#39;s data is a C int...">
<polygon fill="white" stroke="#666666" points="412,-414 278,-414 278,-384 412,-384 412,-414"/>
<text text-anchor="start" x="286" y="-402" font-family="Helvetica,sans-Serif" font-size="10.00">Kit::Dm::Mp::Integer</text>
<text text-anchor="middle" x="345" y="-391" font-family="Helvetica,sans-Serif" font-size="10.00">&lt; ELEMTYPE, MPTYPE &gt;</text>
</a>
</g>
</g>
<!-- Node8&#45;&gt;Node25 -->
<g id="edge29_Node000025_Node000008" class="edge">
<title>Node8&#45;&gt;Node25</title>
<g id="a_edge29_Node000025_Node000008"><a xlink:title=" ">
<path fill="none" stroke="#63b8ff" d="M286.59,-444.67C299.59,-434.73 314.9,-423.01 326.59,-414.08"/>
<polygon fill="#63b8ff" stroke="#63b8ff" points="284.26,-442.04 278.44,-450.9 288.51,-447.6 284.26,-442.04"/>
</a>
</g>
</g>
<!-- Node9 -->
<g id="Node000009" class="node">
<title>Node9</title>
<g id="a_Node000009"><a xlink:href="class_kit_1_1_dm_1_1_mp_1_1_primitive_type.html" target="_top" xlink:title="This template class extends the Scalar base class to data that is a C primitive type of type: &#39;ELEMTY...">
<polygon fill="white" stroke="#666666" points="333.5,-548 186.5,-548 186.5,-518 333.5,-518 333.5,-548"/>
<text text-anchor="start" x="194.5" y="-536" font-family="Helvetica,sans-Serif" font-size="10.00">Kit::Dm::Mp::PrimitiveType</text>
<text text-anchor="middle" x="260" y="-525" font-family="Helvetica,sans-Serif" font-size="10.00">&lt; ELEMTYPE, MPTYPE &gt;</text>
</a>
</g>
</g>
<!-- Node9&#45;&gt;Node8 -->
<g id="edge8_Node000008_Node000009" class="edge">
<title>Node9&#45;&gt;Node8</title>
<g id="a_edge8_Node000008_Node000009"><a xlink:title=" ">
<path fill="none" stroke="#63b8ff" d="M260,-507.61C260,-498.65 260,-488.82 260,-481.08"/>
<polygon fill="#63b8ff" stroke="#63b8ff" points="256.5,-507.9 260,-517.9 263.5,-507.9 256.5,-507.9"/>
</a>
</g>
</g>
<!-- Node10 -->
<g id="Node000010" class="node">
<title>Node10</title>
<g id="a_Node000010"><a xlink:href="class_kit_1_1_dm_1_1_mp_1_1_scalar.html" target="_top" xlink:title="This template class is partial concrete class that provides a basic implementation for a Model Point ...">
<polygon fill="white" stroke="#666666" points="327,-615 193,-615 193,-585 327,-585 327,-615"/>
<text text-anchor="start" x="201" y="-603" font-family="Helvetica,sans-Serif" font-size="10.00">Kit::Dm::Mp::Scalar</text>
<text text-anchor="middle" x="260" y="-592" font-family="Helvetica,sans-Serif" font-size="10.00">&lt; ELEMTYPE, MPTYPE &gt;</text>
</a>
</g>
</g>
<!-- Node10&#45;&gt;Node9 -->
<g id="edge9_Node000009_Node000010" class="edge">
<title>Node10&#45;&gt;Node9</title>
<g id="a_edge9_Node000009_Node000010"><a xlink:title=" ">
<path fill="none" stroke="#63b8ff" d="M260,-574.61C260,-565.65 260,-555.82 260,-548.08"/>
<polygon fill="#63b8ff" stroke="#63b8ff" points="256.5,-574.9 260,-584.9 263.5,-574.9 256.5,-574.9"/>
</a>
</g>
</g>
<!-- Node11 -->
<g id="Node000011" class="node">
<title>Node11</title>
<g id="a_Node000011"><a xlink:href="class_kit_1_1_dm_1_1_model_point_base.html" target="_top" xlink:title="This concrete class provide common infrastructure for a Model Point.">
<polygon fill="white" stroke="#666666" points="329,-671 191,-671 191,-652 329,-652 329,-671"/>
<text text-anchor="middle" x="260" y="-659" font-family="Helvetica,sans-Serif" font-size="10.00">Kit::Dm::ModelPointBase</text>
</a>
</g>
</g>
<!-- Node11&#45;&gt;Node10 -->
<g id="edge10_Node000010_Node000011" class="edge">
<title>Node11&#45;&gt;Node10</title>
<g id="a_edge10_Node000010_Node000011"><a xlink:title=" ">
<path fill="none" stroke="#63b8ff" d="M260,-641.73C260,-633.09 260,-623 260,-615.02"/>
<polygon fill="#63b8ff" stroke="#63b8ff" points="256.5,-641.98 260,-651.98 263.5,-641.98 256.5,-641.98"/>
</a>
</g>
</g>
<!-- Node12 -->
<g id="Node000012" class="node">
<title>Node12</title>
<g id="a_Node000012"><a xlink:href="class_kit_1_1_dm_1_1_i_model_point.html" target="_top" xlink:title="This mostly abstract class defines the interface for a Model Point.">
<polygon fill="white" stroke="#666666" points="318.5,-819.5 201.5,-819.5 201.5,-800.5 318.5,-800.5 318.5,-819.5"/>
<text text-anchor="middle" x="260" y="-807.5" font-family="Helvetica,sans-Serif" font-size="10.00">Kit::Dm::IModelPoint</text>
</a>
</g>
</g>
<!-- Node12&#45;&gt;Node11 -->
<g id="edge11_Node000011_Node000012" class="edge">
<title>Node12&#45;&gt;Node11</title>
<g id="a_edge11_Node000011_Node000012"><a xlink:title=" ">
<path fill="none" stroke="#63b8ff" d="M260,-790.06C260,-758.1 260,-694.68 260,-671.37"/>
<polygon fill="#63b8ff" stroke="#63b8ff" points="256.5,-790.27 260,-800.27 263.5,-790.27 256.5,-790.27"/>
</a>
</g>
</g>
<!-- Node13 -->
<g id="Node000013" class="node">
<title>Node13</title>
<g id="a_Node000013"><a xlink:href="class_kit_1_1_container_1_1_keyed_item.html" target="_top" xlink:title="This abstract class represents a item that can be used with containers that have a concept of Key&#45;Val...">
<polygon fill="white" stroke="#666666" points="312,-886.5 170,-886.5 170,-867.5 312,-867.5 312,-886.5"/>
<text text-anchor="middle" x="241" y="-874.5" font-family="Helvetica,sans-Serif" font-size="10.00">Kit::Container::KeyedItem</text>
</a>
</g>
</g>
<!-- Node13&#45;&gt;Node12 -->
<g id="edge12_Node000012_Node000013" class="edge">
<title>Node13&#45;&gt;Node12</title>
<g id="a_edge12_Node000012_Node000013"><a xlink:title=" ">
<path fill="none" stroke="#63b8ff" d="M246.43,-857.41C250.06,-844.99 254.68,-829.22 257.48,-819.63"/>
<polygon fill="#63b8ff" stroke="#63b8ff" points="243.01,-856.65 243.56,-867.23 249.73,-858.62 243.01,-856.65"/>
</a>
</g>
</g>
<!-- Node14 -->
<g id="Node000014" class="node">
<title>Node14</title>
<g id="a_Node000014"><a xlink:href="class_kit_1_1_container_1_1_extended_list_item.html" target="_top" xlink:title="This class is used by the Container classes to implement a various types of DOUBLY linked containers.">
<polygon fill="white" stroke="#666666" points="214.5,-980 79.5,-980 79.5,-950 214.5,-950 214.5,-980"/>
<text text-anchor="start" x="87.5" y="-968" font-family="Helvetica,sans-Serif" font-size="10.00">Kit::Container::Extended</text>
<text text-anchor="middle" x="147" y="-957" font-family="Helvetica,sans-Serif" font-size="10.00">ListItem</text>
</a>
</g>
</g>
<!-- Node14&#45;&gt;Node13 -->
<g id="edge13_Node000013_Node000014" class="edge">
<title>Node14&#45;&gt;Node13</title>
<g id="a_edge13_Node000013_Node000014"><a xlink:title=" ">
<path fill="none" stroke="#63b8ff" d="M170.82,-942.97C174.89,-939.33 179.08,-935.57 183,-932 200.3,-916.26 220.2,-897.61 231.62,-886.86"/>
<polygon fill="#63b8ff" stroke="#63b8ff" points="168.35,-940.48 163.2,-949.74 173,-945.71 168.35,-940.48"/>
</a>
</g>
</g>
<!-- Node14&#45;&gt;Node14 -->
<g id="edge17_Node000014_Node000014" class="edge">
<title>Node14&#45;&gt;Node14</title>
<g id="a_edge17_Node000014_Node000014"><a xlink:title=" ">
<path fill="none" stroke="#9a32cd" stroke-dasharray="5,2" d="M225,-969.15C229.69,-968.16 232.5,-966.78 232.5,-965 232.5,-962.16 225.3,-960.32 214.73,-959.5"/>
<polygon fill="#9a32cd" stroke="#9a32cd" points="224.19,-965.72 214.73,-970.5 225.1,-972.66 224.19,-965.72"/>
</a>
</g>
<text text-anchor="middle" x="262" y="-962.5" font-family="Helvetica,sans-Serif" font-size="10.00" fill="grey"> m_prevPtr_</text>
</g>
<!-- Node21 -->
<g id="Node000021" class="node">
<title>Node21</title>
<g id="a_Node000021"><a xlink:href="class_kit_1_1_container_1_1_d_list_base.html" target="_top" xlink:title="This protected base class implements a NON&#45;TYPE&#45;SAFE a doubly linked list which maintains the orderin...">
<polygon fill="white" stroke="#666666" points="152,-886.5 14,-886.5 14,-867.5 152,-867.5 152,-886.5"/>
<text text-anchor="middle" x="83" y="-874.5" font-family="Helvetica,sans-Serif" font-size="10.00">Kit::Container::DListBase</text>
</a>
</g>
</g>
<!-- Node14&#45;&gt;Node21 -->
<g id="edge23_Node000021_Node000014" class="edge">
<title>Node14&#45;&gt;Node21</title>
<g id="a_edge23_Node000021_Node000014"><a xlink:title=" ">
<path fill="none" stroke="#9a32cd" stroke-dasharray="5,2" d="M130.31,-941.57C116.97,-923.64 98.97,-899.46 89.48,-886.71"/>
<polygon fill="#9a32cd" stroke="#9a32cd" points="127.65,-943.87 136.43,-949.8 133.27,-939.69 127.65,-943.87"/>
</a>
</g>
<text text-anchor="middle" x="151" y="-924" font-family="Helvetica,sans-Serif" font-size="10.00" fill="grey"> m_headPtr</text>
<text text-anchor="middle" x="151" y="-913" font-family="Helvetica,sans-Serif" font-size="10.00" fill="grey">m_tailPtr</text>
</g>
<!-- Node15 -->
<g id="Node000015" class="node">
<title>Node15</title>
<g id="a_Node000015"><a xlink:href="class_kit_1_1_container_1_1_list_item.html" target="_top" xlink:title="This class is used by the Container classes to implement a various types of linked lists containers.">
<polygon fill="white" stroke="#666666" points="211.5,-1036 82.5,-1036 82.5,-1017 211.5,-1017 211.5,-1036"/>
<text text-anchor="middle" x="147" y="-1024" font-family="Helvetica,sans-Serif" font-size="10.00">Kit::Container::ListItem</text>
</a>
</g>
</g>
<!-- Node15&#45;&gt;Node14 -->
<g id="edge14_Node000014_Node000015" class="edge">
<title>Node15&#45;&gt;Node14</title>
<g id="a_edge14_Node000014_Node000015"><a xlink:title=" ">
<path fill="none" stroke="#63b8ff" d="M147,-1006.73C147,-998.09 147,-988 147,-980.02"/>
<polygon fill="#63b8ff" stroke="#63b8ff" points="143.5,-1006.98 147,-1016.98 150.5,-1006.98 143.5,-1006.98"/>
</a>
</g>
</g>
<!-- Node15&#45;&gt;Node15 -->
<g id="edge16_Node000015_Node000015" class="edge">
<title>Node15&#45;&gt;Node15</title>
<g id="a_edge16_Node000015_Node000015"><a xlink:title=" ">
<path fill="none" stroke="#9a32cd" stroke-dasharray="5,2" d="M221.96,-1030.19C226.66,-1029.32 229.5,-1028.09 229.5,-1026.5 229.5,-1023.96 222.24,-1022.34 211.68,-1021.64"/>
<polygon fill="#9a32cd" stroke="#9a32cd" points="221.22,-1026.75 211.68,-1031.36 222.01,-1033.7 221.22,-1026.75"/>
</a>
</g>
<text text-anchor="middle" x="259" y="-1024" font-family="Helvetica,sans-Serif" font-size="10.00" fill="grey"> m_nextPtr_</text>
</g>
<!-- Node16 -->
<g id="Node000016" class="node">
<title>Node16</title>
<g id="a_Node000016"><a xlink:href="class_kit_1_1_container_1_1_item.html" target="_top" xlink:title="This class is used by the Intrusive Container classes to enforce the semantic and item/element can be...">
<polygon fill="white" stroke="#666666" points="203,-1092 91,-1092 91,-1073 203,-1073 203,-1092"/>
<text text-anchor="middle" x="147" y="-1080" font-family="Helvetica,sans-Serif" font-size="10.00">Kit::Container::Item</text>
</a>
</g>
</g>
<!-- Node16&#45;&gt;Node15 -->
<g id="edge15_Node000015_Node000016" class="edge">
<title>Node16&#45;&gt;Node15</title>
<g id="a_edge15_Node000015_Node000016"><a xlink:title=" ">
<path fill="none" stroke="#63b8ff" d="M147,-1062.3C147,-1053.41 147,-1043.28 147,-1036.25"/>
<polygon fill="#63b8ff" stroke="#63b8ff" points="143.5,-1062.58 147,-1072.58 150.5,-1062.58 143.5,-1062.58"/>
</a>
</g>
</g>
<!-- Node17 -->
<g id="Node000017" class="node">
<title>Node17</title>
<g id="a_Node000017"><a xlink:href="class_kit_1_1_container_1_1_key_literal_string.html" target="_top" xlink:title="This class provides a &#39;Key&#39; wrapper for a C string literal.">
<polygon fill="white" stroke="#666666" points="468,-892 330,-892 330,-862 468,-862 468,-892"/>
<text text-anchor="start" x="338" y="-880" font-family="Helvetica,sans-Serif" font-size="10.00">Kit::Container::KeyLiteral</text>
<text text-anchor="middle" x="399" y="-869" font-family="Helvetica,sans-Serif" font-size="10.00">String</text>
</a>
</g>
</g>
<!-- Node17&#45;&gt;Node12 -->
<g id="edge18_Node000012_Node000017" class="edge">
<title>Node17&#45;&gt;Node12</title>
<g id="a_edge18_Node000012_Node000017"><a xlink:title=" ">
<path fill="none" stroke="#63b8ff" d="M359.72,-857.63C332.97,-845.12 298.79,-829.14 278.19,-819.51"/>
<polygon fill="#63b8ff" stroke="#63b8ff" points="358.3,-860.83 368.84,-861.9 361.26,-854.49 358.3,-860.83"/>
</a>
</g>
</g>
<!-- Node18 -->
<g id="Node000018" class="node">
<title>Node18</title>
<g id="a_Node000018"><a xlink:href="class_kit_1_1_container_1_1_key_string_buffer.html" target="_top" xlink:title="This class provides a &#39;Key&#39; wrapper for a array of Character of length N, i.e.">
<polygon fill="white" stroke="#666666" points="467,-980 331,-980 331,-950 467,-950 467,-980"/>
<text text-anchor="start" x="339" y="-968" font-family="Helvetica,sans-Serif" font-size="10.00">Kit::Container::KeyString</text>
<text text-anchor="middle" x="399" y="-957" font-family="Helvetica,sans-Serif" font-size="10.00">Buffer</text>
</a>
</g>
</g>
<!-- Node18&#45;&gt;Node17 -->
<g id="edge19_Node000017_Node000018" class="edge">
<title>Node18&#45;&gt;Node17</title>
<g id="a_edge19_Node000017_Node000018"><a xlink:title=" ">
<path fill="none" stroke="#63b8ff" d="M399,-939.49C399,-924.2 399,-905.05 399,-892.22"/>
<polygon fill="#63b8ff" stroke="#63b8ff" points="395.5,-939.8 399,-949.8 402.5,-939.8 395.5,-939.8"/>
</a>
</g>
</g>
<!-- Node19 -->
<g id="Node000019" class="node">
<title>Node19</title>
<g id="a_Node000019"><a xlink:href="class_kit_1_1_container_1_1_key.html" target="_top" xlink:title="This abstract class defines the interface that a contained object must support if it has comparable k...">
<polygon fill="white" stroke="#666666" points="452.5,-1036 345.5,-1036 345.5,-1017 452.5,-1017 452.5,-1036"/>
<text text-anchor="middle" x="399" y="-1024" font-family="Helvetica,sans-Serif" font-size="10.00">Kit::Container::Key</text>
</a>
</g>
</g>
<!-- Node19&#45;&gt;Node18 -->
<g id="edge20_Node000018_Node000019" class="edge">
<title>Node19&#45;&gt;Node18</title>
<g id="a_edge20_Node000018_Node000019"><a xlink:title=" ">
<path fill="none" stroke="#63b8ff" d="M399,-1006.73C399,-998.09 399,-988 399,-980.02"/>
<polygon fill="#63b8ff" stroke="#63b8ff" points="395.5,-1006.98 399,-1016.98 402.5,-1006.98 395.5,-1006.98"/>
</a>
</g>
</g>
<!-- Node20 -->
<g id="Node000020" class="node">
<title>Node20</title>
<g id="a_Node000020"><a xlink:href="class_kit_1_1_container_1_1_d_list.html" target="_top" xlink:title=" ">
<polygon fill="white" stroke="#666666" points="231.5,-748 102.5,-748 102.5,-718 231.5,-718 231.5,-748"/>
<text text-anchor="start" x="110.5" y="-736" font-family="Helvetica,sans-Serif" font-size="10.00">Kit::Container::DList</text>
<text text-anchor="middle" x="167" y="-725" font-family="Helvetica,sans-Serif" font-size="10.00">&lt; Kit::Dm::IObserver &gt;</text>
</a>
</g>
</g>
<!-- Node20&#45;&gt;Node11 -->
<g id="edge21_Node000011_Node000020" class="edge">
<title>Node20&#45;&gt;Node11</title>
<g id="a_edge21_Node000011_Node000020"><a xlink:title=" ">
<path fill="none" stroke="#9a32cd" stroke-dasharray="5,2" d="M165.12,-707.58C165.78,-700.93 167.69,-694.14 172,-689 178.86,-680.8 188.16,-675.08 198.15,-671.1"/>
<polygon fill="#9a32cd" stroke="#9a32cd" points="161.62,-707.62 164.94,-717.68 168.62,-707.74 161.62,-707.62"/>
</a>
</g>
<text text-anchor="middle" x="209" y="-692" font-family="Helvetica,sans-Serif" font-size="10.00" fill="grey"> m_subscribers</text>
</g>
<!-- Node21&#45;&gt;Node20 -->
<g id="edge22_Node000020_Node000021" class="edge">
<title>Node21&#45;&gt;Node20</title>
<g id="a_edge22_Node000020_Node000021"><a xlink:title=" ">
<path fill="none" stroke="#63b8ff" d="M98.4,-859.74C115.11,-841.18 141.37,-809.2 156,-777 160.14,-767.88 162.91,-756.93 164.64,-748.37"/>
<polygon fill="#63b8ff" stroke="#63b8ff" points="95.66,-857.55 91.47,-867.28 100.81,-862.29 95.66,-857.55"/>
</a>
</g>
</g>
<!-- Node22 -->
<g id="Node000022" class="node">
<title>Node22</title>
<g id="a_Node000022"><a xlink:href="class_kit_1_1_container_1_1_d_list.html" target="_top" xlink:title="This template class implements a double linked list which maintains the ordering imposed on it by the...">
<polygon fill="white" stroke="#666666" points="114,-825 0,-825 0,-795 114,-795 114,-825"/>
<text text-anchor="start" x="8" y="-813" font-family="Helvetica,sans-Serif" font-size="10.00">Kit::Container::DList</text>
<text text-anchor="middle" x="57" y="-802" font-family="Helvetica,sans-Serif" font-size="10.00">&lt; EXT_ITEM &gt;</text>
</a>
</g>
</g>
<!-- Node21&#45;&gt;Node22 -->
<g id="edge25_Node000022_Node000021" class="edge">
<title>Node21&#45;&gt;Node22</title>
<g id="a_edge25_Node000022_Node000021"><a xlink:title=" ">
<path fill="none" stroke="#63b8ff" d="M75.76,-857.89C71.61,-847.52 66.48,-834.7 62.64,-825.09"/>
<polygon fill="#63b8ff" stroke="#63b8ff" points="72.53,-859.25 79.49,-867.23 79.03,-856.65 72.53,-859.25"/>
</a>
</g>
</g>
<!-- Node22&#45;&gt;Node20 -->
<g id="edge24_Node000020_Node000022" class="edge">
<title>Node22&#45;&gt;Node20</title>
<g id="a_edge24_Node000020_Node000022"><a xlink:title=" ">
<path fill="none" stroke="orange" stroke-dasharray="5,2" d="M39.43,-785.87C36.38,-779.04 35.45,-771.83 40,-766 48.14,-755.55 75.17,-747.99 102.22,-742.84"/>
<polygon fill="orange" stroke="orange" points="36.56,-787.89 44.59,-794.79 42.62,-784.38 36.56,-787.89"/>
</a>
</g>
<text text-anchor="middle" x="98" y="-769" font-family="Helvetica,sans-Serif" font-size="10.00" fill="grey"> &lt; Kit::Dm::IObserver &gt;</text>
</g>
<!-- Node23 -->
<g id="Node000023" class="node">
<title>Node23</title>
<g id="a_Node000023"><a xlink:href="class_kit_1_1_dm_1_1_i_model_database.html" target="_top" xlink:title="This class defines the basic operations that can be performed on a Model Base.">
<polygon fill="white" stroke="#666666" points="427.5,-742.5 288.5,-742.5 288.5,-723.5 427.5,-723.5 427.5,-742.5"/>
<text text-anchor="middle" x="358" y="-730.5" font-family="Helvetica,sans-Serif" font-size="10.00">Kit::Dm::IModelDatabase</text>
</a>
</g>
</g>
<!-- Node23&#45;&gt;Node11 -->
<g id="edge26_Node000011_Node000023" class="edge">
<title>Node23&#45;&gt;Node11</title>
<g id="a_edge26_Node000011_Node000023"><a xlink:title=" ">
<path fill="none" stroke="#9a32cd" stroke-dasharray="5,2" d="M337.65,-717.57C317.87,-703.54 288.48,-682.7 272.12,-671.09"/>
<polygon fill="#9a32cd" stroke="#9a32cd" points="335.8,-720.55 345.98,-723.48 339.85,-714.84 335.8,-720.55"/>
</a>
</g>
<text text-anchor="middle" x="360" y="-692" font-family="Helvetica,sans-Serif" font-size="10.00" fill="grey"> m_modelDatabase</text>
</g>
<!-- Node24 -->
<g id="Node000024" class="node">
<title>Node24</title>
<g id="a_Node000024"><a xlink:href="class_kit_1_1_dm_1_1_mp_1_1_unsigned_integer.html" target="_top" xlink:title="This template class provides the to/from JSON methods for Unsigned Integers.">
<polygon fill="white" stroke="#666666" points="427.5,-318 266.5,-318 266.5,-288 427.5,-288 427.5,-318"/>
<text text-anchor="start" x="274.5" y="-306" font-family="Helvetica,sans-Serif" font-size="10.00">Kit::Dm::Mp::UnsignedInteger</text>
<text text-anchor="middle" x="347" y="-295" font-family="Helvetica,sans-Serif" font-size="10.00">&lt; ELEMTYPE, MPTYPE &gt;</text>
</a>
</g>
</g>
<!-- Node24&#45;&gt;Node6 -->
<g id="edge27_Node000006_Node000024" class="edge">
<title>Node24&#45;&gt;Node6</title>
<g id="a_edge27_Node000006_Node000024"><a xlink:title=" ">
<path fill="none" stroke="orange" stroke-dasharray="5,2" d="M326.03,-280.46C313.7,-267.79 298.46,-252.13 287.67,-241.04"/>
<polygon fill="orange" stroke="orange" points="323.79,-283.17 333.27,-287.89 328.8,-278.29 323.79,-283.17"/>
</a>
</g>
<text text-anchor="middle" x="367" y="-262" font-family="Helvetica,sans-Serif" font-size="10.00" fill="grey"> &lt; uint32_t, Uint32 &gt;</text>
</g>
<!-- Node25&#45;&gt;Node24 -->
<g id="edge28_Node000024_Node000025" class="edge">
<title>Node25&#45;&gt;Node24</title>
<g id="a_edge28_Node000024_Node000025"><a xlink:title=" ">
<path fill="none" stroke="#63b8ff" d="M345.52,-373.59C345.89,-355.95 346.39,-332.75 346.7,-318.1"/>
<polygon fill="#63b8ff" stroke="#63b8ff" points="342.02,-373.65 345.3,-383.72 349.02,-373.8 342.02,-373.65"/>
</a>
</g>
</g>
<!-- Node26 -->
<g id="Node000026" class="node">
<title>Node26</title>
<g id="a_Node000026"><a xlink:href="class_kit_1_1_system_1_1_mutex.html" target="_top" xlink:title="This concrete mutex class defines the interface for a mutex that has &quot;recursive&quot; semantics.">
<polygon fill="white" stroke="#666666" points="456,-168.5 346,-168.5 346,-149.5 456,-149.5 456,-168.5"/>
<text text-anchor="middle" x="401" y="-156.5" font-family="Helvetica,sans-Serif" font-size="10.00">Kit::System::Mutex</text>
</a>
</g>
</g>
<!-- Node26&#45;&gt;Node2 -->
<g id="edge30_Node000002_Node000026" class="edge">
<title>Node26&#45;&gt;Node2</title>
<g id="a_edge30_Node000002_Node000026"><a xlink:title=" ">
<path fill="none" stroke="#9a32cd" stroke-dasharray="5,2" d="M395.03,-139.81C391.36,-131.19 385.83,-121.4 378,-115 367.34,-106.29 354.36,-99.95 341.17,-95.33"/>
<polygon fill="#9a32cd" stroke="#9a32cd" points="391.85,-141.29 398.62,-149.44 398.41,-138.85 391.85,-141.29"/>
</a>
</g>
<text text-anchor="middle" x="413" y="-118" font-family="Helvetica,sans-Serif" font-size="10.00" fill="grey"> m_mutex</text>
</g>
</g>
</svg>
