<?xml version="1.0" encoding="UTF-8" standalone="no"?>
<!DOCTYPE svg PUBLIC "-//W3C//DTD SVG 1.1//EN"
 "http://www.w3.org/Graphics/SVG/1.1/DTD/svg11.dtd">
<!-- Generated by graphviz version 2.43.0 (0)
 -->
<!-- Title: Kit::Io::IClose Pages: 1 -->
<svg width="558pt" height="138pt"
 viewBox="0.00 0.00 558.00 138.00" xmlns="http://www.w3.org/2000/svg" xmlns:xlink="http://www.w3.org/1999/xlink">
<g id="graph0" class="graph" transform="scale(1 1) rotate(0) translate(4 134)">
<title>Kit::Io::IClose</title>
<!-- Node1 -->
<g id="Node000001" class="node">
<title>Node1</title>
<g id="a_Node000001"><a xlink:title="This abstract class defines a close operation that is intended to be used Input and Output streams/fi...">
<polygon fill="#999999" stroke="#666666" points="81,-74 0,-74 0,-55 81,-55 81,-74"/>
<text text-anchor="middle" x="40.5" y="-62" font-family="Helvetica,sans-Serif" font-size="10.00">Kit::Io::IClose</text>
</a>
</g>
</g>
<!-- Node2 -->
<g id="Node000002" class="node">
<title>Node2</title>
<g id="a_Node000002"><a xlink:href="class_kit_1_1_io_1_1_i_input.html" target="_top" xlink:title="This partially abstract class defines a interface for operating on an input stream (example of a stre...">
<polygon fill="white" stroke="#666666" points="200,-93 121,-93 121,-74 200,-74 200,-93"/>
<text text-anchor="middle" x="160.5" y="-81" font-family="Helvetica,sans-Serif" font-size="10.00">Kit::Io::IInput</text>
</a>
</g>
</g>
<!-- Node1&#45;&gt;Node2 -->
<g id="edge1_Node000001_Node000002" class="edge">
<title>Node1&#45;&gt;Node2</title>
<g id="a_edge1_Node000001_Node000002"><a xlink:title=" ">
<path fill="none" stroke="#63b8ff" d="M91.29,-72.52C101.22,-74.12 111.5,-75.77 120.98,-77.3"/>
<polygon fill="#63b8ff" stroke="#63b8ff" points="91.55,-69.01 81.12,-70.88 90.44,-75.92 91.55,-69.01"/>
</a>
</g>
</g>
<!-- Node7 -->
<g id="Node000007" class="node">
<title>Node7</title>
<g id="a_Node000007"><a xlink:href="class_kit_1_1_io_1_1_i_output.html" target="_top" xlink:title="This partially abstract class defines a interface for operating on an output stream (example of a str...">
<polygon fill="white" stroke="#666666" points="204,-56 117,-56 117,-37 204,-37 204,-56"/>
<text text-anchor="middle" x="160.5" y="-44" font-family="Helvetica,sans-Serif" font-size="10.00">Kit::Io::IOutput</text>
</a>
</g>
</g>
<!-- Node1&#45;&gt;Node7 -->
<g id="edge6_Node000001_Node000007" class="edge">
<title>Node1&#45;&gt;Node7</title>
<g id="a_edge6_Node000001_Node000007"><a xlink:title=" ">
<path fill="none" stroke="#63b8ff" d="M91.05,-56.94C99.66,-55.63 108.55,-54.27 116.95,-52.99"/>
<polygon fill="#63b8ff" stroke="#63b8ff" points="90.48,-53.49 81.12,-58.46 91.53,-60.41 90.48,-53.49"/>
</a>
</g>
</g>
<!-- Node3 -->
<g id="Node000003" class="node">
<title>Node3</title>
<g id="a_Node000003"><a xlink:href="class_kit_1_1_io_1_1_i_input_output.html" target="_top" xlink:title="This abstract class defines a interface for operating on an input&#45;output stream.">
<polygon fill="white" stroke="#666666" points="375.5,-93 263.5,-93 263.5,-74 375.5,-74 375.5,-93"/>
<text text-anchor="middle" x="319.5" y="-81" font-family="Helvetica,sans-Serif" font-size="10.00">Kit::Io::IInputOutput</text>
</a>
</g>
</g>
<!-- Node2&#45;&gt;Node3 -->
<g id="edge2_Node000002_Node000003" class="edge">
<title>Node2&#45;&gt;Node3</title>
<g id="a_edge2_Node000002_Node000003"><a xlink:title=" ">
<path fill="none" stroke="#63b8ff" d="M210.43,-83.5C227.18,-83.5 246.04,-83.5 263.25,-83.5"/>
<polygon fill="#63b8ff" stroke="#63b8ff" points="210.31,-80 200.31,-83.5 210.31,-87 210.31,-80"/>
</a>
</g>
</g>
<!-- Node5 -->
<g id="Node000005" class="node">
<title>Node5</title>
<g id="a_Node000005"><a xlink:href="class_kit_1_1_io_1_1_stdio_1_1_input_delegate.html" target="_top" xlink:title="This concrete class implements a Input stream using the underlying platform&#39;s native OS interface for...">
<polygon fill="white" stroke="#666666" points="395,-130 244,-130 244,-111 395,-111 395,-130"/>
<text text-anchor="middle" x="319.5" y="-118" font-family="Helvetica,sans-Serif" font-size="10.00">Kit::Io::Stdio::InputDelegate</text>
</a>
</g>
</g>
<!-- Node2&#45;&gt;Node5 -->
<g id="edge4_Node000002_Node000005" class="edge">
<title>Node2&#45;&gt;Node5</title>
<g id="a_edge4_Node000002_Node000005"><a xlink:title=" ">
<path fill="none" stroke="#63b8ff" d="M209.95,-95.32C219.88,-97.72 230.28,-100.21 240,-102.5 251.84,-105.29 264.7,-108.26 276.52,-110.97"/>
<polygon fill="#63b8ff" stroke="#63b8ff" points="210.75,-91.92 200.21,-92.97 209.1,-98.72 210.75,-91.92"/>
</a>
</g>
</g>
<!-- Node4 -->
<g id="Node000004" class="node">
<title>Node4</title>
<g id="a_Node000004"><a xlink:href="class_kit_1_1_io_1_1_null.html" target="_top" xlink:title="This concrete class implements a NULL InputOutput stream &#45; that all of its input operations return &#39;E...">
<polygon fill="white" stroke="#666666" points="528,-93 457,-93 457,-74 528,-74 528,-93"/>
<text text-anchor="middle" x="492.5" y="-81" font-family="Helvetica,sans-Serif" font-size="10.00">Kit::Io::Null</text>
</a>
</g>
</g>
<!-- Node3&#45;&gt;Node4 -->
<g id="edge3_Node000003_Node000004" class="edge">
<title>Node3&#45;&gt;Node4</title>
<g id="a_edge3_Node000003_Node000004"><a xlink:title=" ">
<path fill="none" stroke="#63b8ff" d="M385.77,-83.5C410.01,-83.5 436.54,-83.5 456.97,-83.5"/>
<polygon fill="#63b8ff" stroke="#63b8ff" points="385.55,-80 375.55,-83.5 385.55,-87 385.55,-80"/>
</a>
</g>
</g>
<!-- Node6 -->
<g id="Node000006" class="node">
<title>Node6</title>
<g id="a_Node000006"><a xlink:href="class_kit_1_1_io_1_1_stdio_1_1_std_in.html" target="_top" xlink:title="This concrete class represents the C&#45;library &#39;stdin&#39; stream.">
<polygon fill="white" stroke="#666666" points="546,-130 439,-130 439,-111 546,-111 546,-130"/>
<text text-anchor="middle" x="492.5" y="-118" font-family="Helvetica,sans-Serif" font-size="10.00">Kit::Io::Stdio::StdIn</text>
</a>
</g>
</g>
<!-- Node5&#45;&gt;Node6 -->
<g id="edge5_Node000005_Node000006" class="edge">
<title>Node5&#45;&gt;Node6</title>
<g id="a_edge5_Node000005_Node000006"><a xlink:title=" ">
<path fill="none" stroke="#63b8ff" d="M405.09,-120.5C416.59,-120.5 428.11,-120.5 438.82,-120.5"/>
<polygon fill="#63b8ff" stroke="#63b8ff" points="405.01,-117 395.01,-120.5 405.01,-124 405.01,-117"/>
</a>
</g>
</g>
<!-- Node7&#45;&gt;Node3 -->
<g id="edge7_Node000007_Node000003" class="edge">
<title>Node7&#45;&gt;Node3</title>
<g id="a_edge7_Node000007_Node000003"><a xlink:title=" ">
<path fill="none" stroke="#63b8ff" d="M210.57,-58.47C220.32,-60.82 230.48,-63.26 240,-65.5 251.84,-68.29 264.7,-71.26 276.52,-73.97"/>
<polygon fill="#63b8ff" stroke="#63b8ff" points="211.15,-55.01 200.61,-56.06 209.51,-61.82 211.15,-55.01"/>
</a>
</g>
</g>
<!-- Node8 -->
<g id="Node000008" class="node">
<title>Node8</title>
<g id="a_Node000008"><a xlink:href="class_kit_1_1_io_1_1_stdio_1_1_output_delegate.html" target="_top" xlink:title="This concrete class implements a Output stream using the underlying platform&#39;s native OS interface&#39; s...">
<polygon fill="white" stroke="#666666" points="399,-56 240,-56 240,-37 399,-37 399,-56"/>
<text text-anchor="middle" x="319.5" y="-44" font-family="Helvetica,sans-Serif" font-size="10.00">Kit::Io::Stdio::OutputDelegate</text>
</a>
</g>
</g>
<!-- Node7&#45;&gt;Node8 -->
<g id="edge8_Node000007_Node000008" class="edge">
<title>Node7&#45;&gt;Node8</title>
<g id="a_edge8_Node000007_Node000008"><a xlink:title=" ">
<path fill="none" stroke="#63b8ff" d="M214.47,-46.5C222.61,-46.5 231.17,-46.5 239.73,-46.5"/>
<polygon fill="#63b8ff" stroke="#63b8ff" points="214.4,-43 204.4,-46.5 214.4,-50 214.4,-43"/>
</a>
</g>
</g>
<!-- Node11 -->
<g id="Node000011" class="node">
<title>Node11</title>
<g id="a_Node000011"><a xlink:href="class_kit_1_1_io_1_1_tee_output.html" target="_top" xlink:title="This concrete class implements a IOutput stream that outputs the data to multiple (up to 4) output st...">
<polygon fill="white" stroke="#666666" points="370,-19 269,-19 269,0 370,0 370,-19"/>
<text text-anchor="middle" x="319.5" y="-7" font-family="Helvetica,sans-Serif" font-size="10.00">Kit::Io::TeeOutput</text>
</a>
</g>
</g>
<!-- Node7&#45;&gt;Node11 -->
<g id="edge11_Node000007_Node000011" class="edge">
<title>Node7&#45;&gt;Node11</title>
<g id="a_edge11_Node000007_Node000011"><a xlink:title=" ">
<path fill="none" stroke="#63b8ff" d="M211.81,-34.64C233.18,-29.61 257.76,-23.82 277.93,-19.06"/>
<polygon fill="#63b8ff" stroke="#63b8ff" points="210.86,-31.27 201.93,-36.97 212.47,-38.08 210.86,-31.27"/>
</a>
</g>
</g>
<!-- Node9 -->
<g id="Node000009" class="node">
<title>Node9</title>
<g id="a_Node000009"><a xlink:href="class_kit_1_1_io_1_1_stdio_1_1_std_err.html" target="_top" xlink:title="This concrete class represents the C&#45;library &#39;stderr&#39; stream.">
<polygon fill="white" stroke="#666666" points="548,-56 437,-56 437,-37 548,-37 548,-56"/>
<text text-anchor="middle" x="492.5" y="-44" font-family="Helvetica,sans-Serif" font-size="10.00">Kit::Io::Stdio::StdErr</text>
</a>
</g>
</g>
<!-- Node8&#45;&gt;Node9 -->
<g id="edge9_Node000008_Node000009" class="edge">
<title>Node8&#45;&gt;Node9</title>
<g id="a_edge9_Node000008_Node000009"><a xlink:title=" ">
<path fill="none" stroke="#63b8ff" d="M409.55,-46.5C418.83,-46.5 428.04,-46.5 436.76,-46.5"/>
<polygon fill="#63b8ff" stroke="#63b8ff" points="409.49,-43 399.49,-46.5 409.49,-50 409.49,-43"/>
</a>
</g>
</g>
<!-- Node10 -->
<g id="Node000010" class="node">
<title>Node10</title>
<g id="a_Node000010"><a xlink:href="class_kit_1_1_io_1_1_stdio_1_1_std_out.html" target="_top" xlink:title="This concrete class represents the C&#45;library &#39;stdout&#39; stream.">
<polygon fill="white" stroke="#666666" points="550,-19 435,-19 435,0 550,0 550,-19"/>
<text text-anchor="middle" x="492.5" y="-7" font-family="Helvetica,sans-Serif" font-size="10.00">Kit::Io::Stdio::StdOut</text>
</a>
</g>
</g>
<!-- Node8&#45;&gt;Node10 -->
<g id="edge10_Node000008_Node000010" class="edge">
<title>Node8&#45;&gt;Node10</title>
<g id="a_edge10_Node000008_Node000010"><a xlink:title=" ">
<path fill="none" stroke="#63b8ff" d="M374.35,-34.85C397.84,-29.77 425.04,-23.88 447.32,-19.06"/>
<polygon fill="#63b8ff" stroke="#63b8ff" points="373.57,-31.44 364.54,-36.97 375.05,-38.28 373.57,-31.44"/>
</a>
</g>
</g>
</g>
</svg>
