<?xml version="1.0" encoding="UTF-8" standalone="no"?>
<!DOCTYPE svg PUBLIC "-//W3C//DTD SVG 1.1//EN"
 "http://www.w3.org/Graphics/SVG/1.1/DTD/svg11.dtd">
<!-- Generated by graphviz version 2.43.0 (0)
 -->
<!-- Title: Kit::Persistence::Record::Journal::Server&lt; ENTRY &gt; Pages: 1 -->
<svg width="682pt" height="312pt"
 viewBox="0.00 0.00 682.00 311.50" xmlns="http://www.w3.org/2000/svg" xmlns:xlink="http://www.w3.org/1999/xlink">
<g id="graph0" class="graph" transform="scale(1 1) rotate(0) translate(4 307.5)">
<title>Kit::Persistence::Record::Journal::Server&lt; ENTRY &gt;</title>
<!-- Node1 -->
<g id="Node000001" class="node">
<title>Node1</title>
<g id="a_Node000001"><a xlink:title="This concrete template class implements the ITC messaging and Model Point monitoring needed to provid...">
<polygon fill="#999999" stroke="#666666" points="674,-150 526,-150 526,-120 674,-120 674,-150"/>
<text text-anchor="start" x="534" y="-138" font-family="Helvetica,sans-Serif" font-size="10.00">Kit::Persistence::Record</text>
<text text-anchor="middle" x="600" y="-127" font-family="Helvetica,sans-Serif" font-size="10.00">::Journal::Server&lt; ENTRY &gt;</text>
</a>
</g>
</g>
<!-- Node2 -->
<g id="Node000002" class="node">
<title>Node2</title>
<g id="a_Node000002"><a xlink:href="class_kit_1_1_itc_1_1_open_close_sync.html" target="_top" xlink:title="This partially concrete class extends the ITC OpenSync class and implements the synchronous ITC close...">
<polygon fill="white" stroke="#666666" points="489,-229.5 359,-229.5 359,-210.5 489,-210.5 489,-229.5"/>
<text text-anchor="middle" x="424" y="-217.5" font-family="Helvetica,sans-Serif" font-size="10.00">Kit::Itc::OpenCloseSync</text>
</a>
</g>
</g>
<!-- Node2&#45;&gt;Node1 -->
<g id="edge1_Node000001_Node000002" class="edge">
<title>Node2&#45;&gt;Node1</title>
<g id="a_edge1_Node000001_Node000002"><a xlink:title=" ">
<path fill="none" stroke="#63b8ff" d="M453.76,-205.95C485.28,-190.55 535.67,-165.94 568.04,-150.13"/>
<polygon fill="#63b8ff" stroke="#63b8ff" points="452.07,-202.88 444.62,-210.41 455.14,-209.17 452.07,-202.88"/>
</a>
</g>
</g>
<!-- Node3 -->
<g id="Node000003" class="node">
<title>Node3</title>
<g id="a_Node000003"><a xlink:href="class_kit_1_1_itc_1_1_open_sync.html" target="_top" xlink:title="This partially concrete class implements the synchronous ITC open call for the OpenApi.">
<polygon fill="white" stroke="#666666" points="291.5,-285.5 188.5,-285.5 188.5,-266.5 291.5,-266.5 291.5,-285.5"/>
<text text-anchor="middle" x="240" y="-273.5" font-family="Helvetica,sans-Serif" font-size="10.00">Kit::Itc::OpenSync</text>
</a>
</g>
</g>
<!-- Node3&#45;&gt;Node2 -->
<g id="edge2_Node000002_Node000003" class="edge">
<title>Node3&#45;&gt;Node2</title>
<g id="a_edge2_Node000002_Node000003"><a xlink:title=" ">
<path fill="none" stroke="#63b8ff" d="M299.03,-264.15C306.79,-262.26 314.62,-260.2 322,-258 349.47,-249.82 380.18,-237.85 400.45,-229.53"/>
<polygon fill="#63b8ff" stroke="#63b8ff" points="298.19,-260.75 289.26,-266.45 299.79,-267.56 298.19,-260.75"/>
</a>
</g>
</g>
<!-- Node4 -->
<g id="Node000004" class="node">
<title>Node4</title>
<g id="a_Node000004"><a xlink:href="class_kit_1_1_itc_1_1_i_open_request.html" target="_top" xlink:title="This abstract class define message types and payloads for a set of ITC services.">
<polygon fill="white" stroke="#666666" points="122,-303.5 0,-303.5 0,-284.5 122,-284.5 122,-303.5"/>
<text text-anchor="middle" x="61" y="-291.5" font-family="Helvetica,sans-Serif" font-size="10.00">Kit::Itc::IOpenRequest</text>
</a>
</g>
</g>
<!-- Node4&#45;&gt;Node3 -->
<g id="edge3_Node000003_Node000004" class="edge">
<title>Node4&#45;&gt;Node3</title>
<g id="a_edge3_Node000003_Node000004"><a xlink:title=" ">
<path fill="none" stroke="#63b8ff" d="M132.62,-286.82C151.23,-284.93 170.94,-282.92 188.27,-281.16"/>
<polygon fill="#63b8ff" stroke="#63b8ff" points="132.01,-283.36 122.42,-287.86 132.72,-290.33 132.01,-283.36"/>
</a>
</g>
</g>
<!-- Node5 -->
<g id="Node000005" class="node">
<title>Node5</title>
<g id="a_Node000005"><a xlink:href="class_kit_1_1_itc_1_1_i_open.html" target="_top" xlink:title="This abstract class defines an open interface.">
<polygon fill="white" stroke="#666666" points="102.5,-266.5 19.5,-266.5 19.5,-247.5 102.5,-247.5 102.5,-266.5"/>
<text text-anchor="middle" x="61" y="-254.5" font-family="Helvetica,sans-Serif" font-size="10.00">Kit::Itc::IOpen</text>
</a>
</g>
</g>
<!-- Node5&#45;&gt;Node3 -->
<g id="edge4_Node000003_Node000005" class="edge">
<title>Node5&#45;&gt;Node3</title>
<g id="a_edge4_Node000003_Node000005"><a xlink:title=" ">
<path fill="none" stroke="#63b8ff" d="M112.82,-262.46C136.56,-265 164.75,-268.03 188.45,-270.57"/>
<polygon fill="#63b8ff" stroke="#63b8ff" points="112.92,-258.95 102.61,-261.36 112.18,-265.91 112.92,-258.95"/>
</a>
</g>
</g>
<!-- Node6 -->
<g id="Node000006" class="node">
<title>Node6</title>
<g id="a_Node000006"><a xlink:href="class_kit_1_1_itc_1_1_i_close_request.html" target="_top" xlink:title="This abstract class defines message types and payloads for a set of ITC services.">
<polygon fill="white" stroke="#666666" points="302,-248.5 178,-248.5 178,-229.5 302,-229.5 302,-248.5"/>
<text text-anchor="middle" x="240" y="-236.5" font-family="Helvetica,sans-Serif" font-size="10.00">Kit::Itc::ICloseRequest</text>
</a>
</g>
</g>
<!-- Node6&#45;&gt;Node2 -->
<g id="edge5_Node000002_Node000006" class="edge">
<title>Node6&#45;&gt;Node2</title>
<g id="a_edge5_Node000002_Node000006"><a xlink:title=" ">
<path fill="none" stroke="#63b8ff" d="M312.12,-231.58C327.55,-229.96 343.79,-228.27 358.94,-226.69"/>
<polygon fill="#63b8ff" stroke="#63b8ff" points="311.69,-228.1 302.11,-232.62 312.42,-235.06 311.69,-228.1"/>
</a>
</g>
</g>
<!-- Node7 -->
<g id="Node000007" class="node">
<title>Node7</title>
<g id="a_Node000007"><a xlink:href="class_kit_1_1_itc_1_1_i_close.html" target="_top" xlink:title="This abstract class defines an close interface.">
<polygon fill="white" stroke="#666666" points="282,-211.5 198,-211.5 198,-192.5 282,-192.5 282,-211.5"/>
<text text-anchor="middle" x="240" y="-199.5" font-family="Helvetica,sans-Serif" font-size="10.00">Kit::Itc::IClose</text>
</a>
</g>
</g>
<!-- Node7&#45;&gt;Node2 -->
<g id="edge6_Node000002_Node000007" class="edge">
<title>Node7&#45;&gt;Node2</title>
<g id="a_edge6_Node000002_Node000007"><a xlink:title=" ">
<path fill="none" stroke="#63b8ff" d="M292.42,-207.09C313,-209.12 336.94,-211.49 358.66,-213.64"/>
<polygon fill="#63b8ff" stroke="#63b8ff" points="292.59,-203.59 282.3,-206.08 291.91,-210.55 292.59,-203.59"/>
</a>
</g>
</g>
<!-- Node8 -->
<g id="Node000008" class="node">
<title>Node8</title>
<g id="a_Node000008"><a xlink:href="class_kit_1_1_persistence_1_1_record_1_1_journal_1_1_reader_sync.html" target="_top" xlink:title="This concrete class provides synchronous ITC wrapper functions for the IReader interface.">
<polygon fill="white" stroke="#666666" points="490,-150 358,-150 358,-120 490,-120 490,-150"/>
<text text-anchor="start" x="366" y="-138" font-family="Helvetica,sans-Serif" font-size="10.00">Kit::Persistence::Record</text>
<text text-anchor="middle" x="424" y="-127" font-family="Helvetica,sans-Serif" font-size="10.00">::Journal::ReaderSync</text>
</a>
</g>
</g>
<!-- Node8&#45;&gt;Node1 -->
<g id="edge7_Node000001_Node000008" class="edge">
<title>Node8&#45;&gt;Node1</title>
<g id="a_edge7_Node000001_Node000008"><a xlink:title=" ">
<path fill="none" stroke="#63b8ff" d="M500.44,-135C508.84,-135 517.38,-135 525.75,-135"/>
<polygon fill="#63b8ff" stroke="#63b8ff" points="500.29,-131.5 490.29,-135 500.29,-138.5 500.29,-131.5"/>
</a>
</g>
</g>
<!-- Node9 -->
<g id="Node000009" class="node">
<title>Node9</title>
<g id="a_Node000009"><a xlink:href="class_kit_1_1_persistence_1_1_record_1_1_journal_1_1_i_reader.html" target="_top" xlink:title="This abstract class defines interface for reading &#39;entries&#39; from a a Journal Entry Record.">
<polygon fill="white" stroke="#666666" points="306,-174 174,-174 174,-144 306,-144 306,-174"/>
<text text-anchor="start" x="182" y="-162" font-family="Helvetica,sans-Serif" font-size="10.00">Kit::Persistence::Record</text>
<text text-anchor="middle" x="240" y="-151" font-family="Helvetica,sans-Serif" font-size="10.00">::Journal::IReader</text>
</a>
</g>
</g>
<!-- Node9&#45;&gt;Node8 -->
<g id="edge8_Node000008_Node000009" class="edge">
<title>Node9&#45;&gt;Node8</title>
<g id="a_edge8_Node000008_Node000009"><a xlink:title=" ">
<path fill="none" stroke="#63b8ff" d="M316.18,-149.09C330.05,-147.26 344.42,-145.36 357.96,-143.58"/>
<polygon fill="#63b8ff" stroke="#63b8ff" points="315.65,-145.63 306.19,-150.4 316.56,-152.57 315.65,-145.63"/>
</a>
</g>
</g>
<!-- Node10 -->
<g id="Node000010" class="node">
<title>Node10</title>
<g id="a_Node000010"><a xlink:href="class_kit_1_1_persistence_1_1_record_1_1_journal_1_1_read_request.html" target="_top" xlink:title="This abstract class define ITC message type and payload for the application to request read Journal E...">
<polygon fill="white" stroke="#666666" points="306,-126 174,-126 174,-96 306,-96 306,-126"/>
<text text-anchor="start" x="182" y="-114" font-family="Helvetica,sans-Serif" font-size="10.00">Kit::Persistence::Record</text>
<text text-anchor="middle" x="240" y="-103" font-family="Helvetica,sans-Serif" font-size="10.00">::Journal::ReadRequest</text>
</a>
</g>
</g>
<!-- Node10&#45;&gt;Node8 -->
<g id="edge9_Node000008_Node000010" class="edge">
<title>Node10&#45;&gt;Node8</title>
<g id="a_edge9_Node000008_Node000010"><a xlink:title=" ">
<path fill="none" stroke="#63b8ff" d="M316.18,-120.91C330.05,-122.74 344.42,-124.64 357.96,-126.42"/>
<polygon fill="#63b8ff" stroke="#63b8ff" points="316.56,-117.43 306.19,-119.6 315.65,-124.37 316.56,-117.43"/>
</a>
</g>
</g>
<!-- Node11 -->
<g id="Node000011" class="node">
<title>Node11</title>
<g id="a_Node000011"><a xlink:href="class_kit_1_1_persistence_1_1_record_1_1_journal_1_1_reset_sync.html" target="_top" xlink:title="This concrete class provides a synchronous ITC wrapper for the IReset::logicalReset() method.">
<polygon fill="white" stroke="#666666" points="490,-78 358,-78 358,-48 490,-48 490,-78"/>
<text text-anchor="start" x="366" y="-66" font-family="Helvetica,sans-Serif" font-size="10.00">Kit::Persistence::Record</text>
<text text-anchor="middle" x="424" y="-55" font-family="Helvetica,sans-Serif" font-size="10.00">::Journal::ResetSync</text>
</a>
</g>
</g>
<!-- Node11&#45;&gt;Node1 -->
<g id="edge10_Node000001_Node000011" class="edge">
<title>Node11&#45;&gt;Node1</title>
<g id="a_edge10_Node000001_Node000011"><a xlink:title=" ">
<path fill="none" stroke="#63b8ff" d="M470.87,-81.98C499.52,-93.84 535.9,-108.89 562.57,-119.93"/>
<polygon fill="#63b8ff" stroke="#63b8ff" points="472.05,-78.68 461.48,-78.09 469.38,-85.15 472.05,-78.68"/>
</a>
</g>
</g>
<!-- Node12 -->
<g id="Node000012" class="node">
<title>Node12</title>
<g id="a_Node000012"><a xlink:href="class_kit_1_1_persistence_1_1_record_1_1_journal_1_1_i_reset.html" target="_top" xlink:title="This abstract class defines interface for &#39;resetting&#39; entries in a a Journal Entry Record.">
<polygon fill="white" stroke="#666666" points="306,-78 174,-78 174,-48 306,-48 306,-78"/>
<text text-anchor="start" x="182" y="-66" font-family="Helvetica,sans-Serif" font-size="10.00">Kit::Persistence::Record</text>
<text text-anchor="middle" x="240" y="-55" font-family="Helvetica,sans-Serif" font-size="10.00">::Journal::IReset</text>
</a>
</g>
</g>
<!-- Node12&#45;&gt;Node11 -->
<g id="edge11_Node000011_Node000012" class="edge">
<title>Node12&#45;&gt;Node11</title>
<g id="a_edge11_Node000011_Node000012"><a xlink:title=" ">
<path fill="none" stroke="#63b8ff" d="M316.59,-63C330.33,-63 344.55,-63 357.96,-63"/>
<polygon fill="#63b8ff" stroke="#63b8ff" points="316.19,-59.5 306.19,-63 316.19,-66.5 316.19,-59.5"/>
</a>
</g>
</g>
<!-- Node13 -->
<g id="Node000013" class="node">
<title>Node13</title>
<g id="a_Node000013"><a xlink:href="class_kit_1_1_persistence_1_1_record_1_1_journal_1_1_logical_reset_request.html" target="_top" xlink:title="This abstract class define ITC message type and payload for the application to clear/delete all entri...">
<polygon fill="white" stroke="#666666" points="322,-30 158,-30 158,0 322,0 322,-30"/>
<text text-anchor="start" x="166" y="-18" font-family="Helvetica,sans-Serif" font-size="10.00">Kit::Persistence::Record</text>
<text text-anchor="middle" x="240" y="-7" font-family="Helvetica,sans-Serif" font-size="10.00">::Journal::LogicalResetRequest</text>
</a>
</g>
</g>
<!-- Node13&#45;&gt;Node11 -->
<g id="edge12_Node000011_Node000013" class="edge">
<title>Node13&#45;&gt;Node11</title>
<g id="a_edge12_Node000011_Node000013"><a xlink:title=" ">
<path fill="none" stroke="#63b8ff" d="M307.92,-32.65C327.03,-37.69 347.67,-43.13 366.12,-48"/>
<polygon fill="#63b8ff" stroke="#63b8ff" points="308.65,-29.22 298.09,-30.06 306.86,-35.99 308.65,-29.22"/>
</a>
</g>
</g>
</g>
</svg>
