<?xml version="1.0" encoding="UTF-8" standalone="no"?>
<!DOCTYPE svg PUBLIC "-//W3C//DTD SVG 1.1//EN"
 "http://www.w3.org/Graphics/SVG/1.1/DTD/svg11.dtd">
<!-- Generated by graphviz version 2.43.0 (0)
 -->
<!-- Title: Kit::Io::Serial::RPi::RP2xxx::Uart::InputOutput Pages: 1 -->
<svg width="874pt" height="254pt"
 viewBox="0.00 0.00 874.00 253.50" xmlns="http://www.w3.org/2000/svg" xmlns:xlink="http://www.w3.org/1999/xlink">
<g id="graph0" class="graph" transform="scale(1 1) rotate(0) translate(4 249.5)">
<title>Kit::Io::Serial::RPi::RP2xxx::Uart::InputOutput</title>
<!-- Node1 -->
<g id="Node000001" class="node">
<title>Node1</title>
<g id="a_Node000001"><a xlink:title="This concrete class implements a Input stream using Raspberry Pi UART interface/hardware.">
<polygon fill="#999999" stroke="#666666" points="866,-160.5 716,-160.5 716,-130.5 866,-130.5 866,-160.5"/>
<text text-anchor="start" x="724" y="-148.5" font-family="Helvetica,sans-Serif" font-size="10.00">Kit::Io::Serial::RPi</text>
<text text-anchor="middle" x="791" y="-137.5" font-family="Helvetica,sans-Serif" font-size="10.00">::RP2xxx::Uart::InputOutput</text>
</a>
</g>
</g>
<!-- Node1&#45;&gt;Node1 -->
<g id="edge12_Node000001_Node000001" class="edge">
<title>Node1&#45;&gt;Node1</title>
<g id="a_edge12_Node000001_Node000001"><a xlink:title=" ">
<path fill="none" stroke="#9a32cd" stroke-dasharray="5,2" d="M765.79,-171.1C769.24,-175.47 777.64,-178.5 791,-178.5 813.5,-178.5 821.94,-169.91 816.31,-160.78"/>
<polygon fill="#9a32cd" stroke="#9a32cd" points="769.29,-170.74 765.69,-160.78 762.29,-170.81 769.29,-170.74"/>
</a>
</g>
<text text-anchor="middle" x="791" y="-192.5" font-family="Helvetica,sans-Serif" font-size="10.00" fill="grey"> m_uart0Instance</text>
<text text-anchor="middle" x="791" y="-181.5" font-family="Helvetica,sans-Serif" font-size="10.00" fill="grey">m_uart1Instance</text>
</g>
<!-- Node2 -->
<g id="Node000002" class="node">
<title>Node2</title>
<g id="a_Node000002"><a xlink:href="class_kit_1_1_io_1_1_i_input_output.html" target="_top" xlink:title="This abstract class defines a interface for operating on an input&#45;output stream.">
<polygon fill="white" stroke="#666666" points="563,-154 451,-154 451,-135 563,-135 563,-154"/>
<text text-anchor="middle" x="507" y="-142" font-family="Helvetica,sans-Serif" font-size="10.00">Kit::Io::IInputOutput</text>
</a>
</g>
</g>
<!-- Node2&#45;&gt;Node1 -->
<g id="edge1_Node000001_Node000002" class="edge">
<title>Node2&#45;&gt;Node1</title>
<g id="a_edge1_Node000001_Node000002"><a xlink:title=" ">
<path fill="none" stroke="#63b8ff" d="M573.3,-144.73C615.91,-144.88 671.62,-145.08 715.88,-145.24"/>
<polygon fill="#63b8ff" stroke="#63b8ff" points="573.05,-141.23 563.04,-144.7 573.03,-148.23 573.05,-141.23"/>
</a>
</g>
</g>
<!-- Node3 -->
<g id="Node000003" class="node">
<title>Node3</title>
<g id="a_Node000003"><a xlink:href="class_kit_1_1_io_1_1_i_input.html" target="_top" xlink:title="This partially abstract class defines a interface for operating on an input stream (example of a stre...">
<polygon fill="white" stroke="#666666" points="310.5,-159 231.5,-159 231.5,-140 310.5,-140 310.5,-159"/>
<text text-anchor="middle" x="271" y="-147" font-family="Helvetica,sans-Serif" font-size="10.00">Kit::Io::IInput</text>
</a>
</g>
</g>
<!-- Node3&#45;&gt;Node2 -->
<g id="edge2_Node000002_Node000003" class="edge">
<title>Node3&#45;&gt;Node2</title>
<g id="a_edge2_Node000002_Node000003"><a xlink:title=" ">
<path fill="none" stroke="#63b8ff" d="M320.91,-148.45C358.79,-147.65 411.26,-146.52 450.67,-145.68"/>
<polygon fill="#63b8ff" stroke="#63b8ff" points="320.56,-144.96 310.64,-148.67 320.71,-151.96 320.56,-144.96"/>
</a>
</g>
</g>
<!-- Node4 -->
<g id="Node000004" class="node">
<title>Node4</title>
<g id="a_Node000004"><a xlink:href="class_kit_1_1_io_1_1_i_close.html" target="_top" xlink:title="This abstract class defines a close operation that is intended to be used Input and Output streams/fi...">
<polygon fill="white" stroke="#666666" points="122.5,-150 41.5,-150 41.5,-131 122.5,-131 122.5,-150"/>
<text text-anchor="middle" x="82" y="-138" font-family="Helvetica,sans-Serif" font-size="10.00">Kit::Io::IClose</text>
</a>
</g>
</g>
<!-- Node4&#45;&gt;Node3 -->
<g id="edge3_Node000003_Node000004" class="edge">
<title>Node4&#45;&gt;Node3</title>
<g id="a_edge3_Node000003_Node000004"><a xlink:title=" ">
<path fill="none" stroke="#63b8ff" d="M132.79,-142.9C163.69,-144.38 202.81,-146.27 231.36,-147.64"/>
<polygon fill="#63b8ff" stroke="#63b8ff" points="132.81,-139.39 122.66,-142.41 132.48,-146.39 132.81,-139.39"/>
</a>
</g>
</g>
<!-- Node6 -->
<g id="Node000006" class="node">
<title>Node6</title>
<g id="a_Node000006"><a xlink:href="class_kit_1_1_io_1_1_i_output.html" target="_top" xlink:title="This partially abstract class defines a interface for operating on an output stream (example of a str...">
<polygon fill="white" stroke="#666666" points="314.5,-122 227.5,-122 227.5,-103 314.5,-103 314.5,-122"/>
<text text-anchor="middle" x="271" y="-110" font-family="Helvetica,sans-Serif" font-size="10.00">Kit::Io::IOutput</text>
</a>
</g>
</g>
<!-- Node4&#45;&gt;Node6 -->
<g id="edge6_Node000006_Node000004" class="edge">
<title>Node4&#45;&gt;Node6</title>
<g id="a_edge6_Node000006_Node000004"><a xlink:title=" ">
<path fill="none" stroke="#63b8ff" d="M132.76,-133.05C162.28,-128.63 199.32,-123.08 227.47,-118.87"/>
<polygon fill="#63b8ff" stroke="#63b8ff" points="132.03,-129.62 122.66,-134.56 133.07,-136.54 132.03,-129.62"/>
</a>
</g>
</g>
<!-- Node5 -->
<g id="Node000005" class="node">
<title>Node5</title>
<g id="a_Node000005"><a xlink:href="class_kit_1_1_io_1_1_i_eos.html" target="_top" xlink:title="This abstract class defines a isEos() operation that is intended to be used Input and Output streams.">
<polygon fill="white" stroke="#666666" points="117.5,-107 46.5,-107 46.5,-88 117.5,-88 117.5,-107"/>
<text text-anchor="middle" x="82" y="-95" font-family="Helvetica,sans-Serif" font-size="10.00">Kit::Io::IEos</text>
</a>
</g>
</g>
<!-- Node5&#45;&gt;Node3 -->
<g id="edge4_Node000003_Node000005" class="edge">
<title>Node5&#45;&gt;Node3</title>
<g id="a_edge4_Node000003_Node000005"><a xlink:title=" ">
<path fill="none" stroke="#63b8ff" d="M125.14,-109.92C147.62,-116.48 175.77,-124.58 201,-131.5 211.27,-134.32 222.42,-137.27 232.71,-139.96"/>
<polygon fill="#63b8ff" stroke="#63b8ff" points="125.82,-106.48 115.24,-107.03 123.86,-113.19 125.82,-106.48"/>
</a>
</g>
</g>
<!-- Node5&#45;&gt;Node6 -->
<g id="edge7_Node000006_Node000005" class="edge">
<title>Node5&#45;&gt;Node6</title>
<g id="a_edge7_Node000006_Node000005"><a xlink:title=" ">
<path fill="none" stroke="#63b8ff" d="M128.13,-94.37C145.34,-93.76 165.11,-93.77 183,-95.5 198.47,-97 215.28,-99.96 229.96,-103"/>
<polygon fill="#63b8ff" stroke="#63b8ff" points="127.62,-90.89 117.79,-94.82 127.93,-97.89 127.62,-90.89"/>
</a>
</g>
</g>
<!-- Node6&#45;&gt;Node2 -->
<g id="edge5_Node000002_Node000006" class="edge">
<title>Node6&#45;&gt;Node2</title>
<g id="a_edge5_Node000002_Node000006"><a xlink:title=" ">
<path fill="none" stroke="#63b8ff" d="M324.88,-119.73C362.45,-124.87 412.77,-131.75 450.83,-136.96"/>
<polygon fill="#63b8ff" stroke="#63b8ff" points="325.03,-116.22 314.65,-118.33 324.08,-123.15 325.03,-116.22"/>
</a>
</g>
</g>
<!-- Node7 -->
<g id="Node000007" class="node">
<title>Node7</title>
<g id="a_Node000007"><a xlink:href="class_kit_1_1_container_1_1_ring_buffer.html" target="_top" xlink:title=" ">
<polygon fill="white" stroke="#666666" points="577,-202.5 437,-202.5 437,-172.5 577,-172.5 577,-202.5"/>
<text text-anchor="start" x="445" y="-190.5" font-family="Helvetica,sans-Serif" font-size="10.00">Kit::Container::RingBuffer</text>
<text text-anchor="middle" x="507" y="-179.5" font-family="Helvetica,sans-Serif" font-size="10.00">&lt; uint8_t &gt;</text>
</a>
</g>
</g>
<!-- Node7&#45;&gt;Node1 -->
<g id="edge8_Node000001_Node000007" class="edge">
<title>Node7&#45;&gt;Node1</title>
<g id="a_edge8_Node000001_Node000007"><a xlink:title=" ">
<path fill="none" stroke="#9a32cd" stroke-dasharray="5,2" d="M587.41,-175.67C627.74,-169.67 676.44,-162.41 715.98,-156.52"/>
<polygon fill="#9a32cd" stroke="#9a32cd" points="586.72,-172.24 577.35,-177.17 587.75,-179.16 586.72,-172.24"/>
</a>
</g>
<text text-anchor="middle" x="646.5" y="-187.5" font-family="Helvetica,sans-Serif" font-size="10.00" fill="grey"> m_rxFifo</text>
<text text-anchor="middle" x="646.5" y="-176.5" font-family="Helvetica,sans-Serif" font-size="10.00" fill="grey">m_txFifo</text>
</g>
<!-- Node8 -->
<g id="Node000008" class="node">
<title>Node8</title>
<g id="a_Node000008"><a xlink:href="class_kit_1_1_container_1_1_ring_buffer_base.html" target="_top" xlink:title="This &#39;implementation&#39; class provide the base functionality for a ring buffer.">
<polygon fill="white" stroke="#666666" points="164,-214 0,-214 0,-195 164,-195 164,-214"/>
<text text-anchor="middle" x="82" y="-202" font-family="Helvetica,sans-Serif" font-size="10.00">Kit::Container::RingBufferBase</text>
</a>
</g>
</g>
<!-- Node8&#45;&gt;Node7 -->
<g id="edge9_Node000007_Node000008" class="edge">
<title>Node8&#45;&gt;Node7</title>
<g id="a_edge9_Node000007_Node000008"><a xlink:title=" ">
<path fill="none" stroke="#63b8ff" d="M174.46,-200.82C253.24,-197.66 365.24,-193.16 436.77,-190.28"/>
<polygon fill="#63b8ff" stroke="#63b8ff" points="173.91,-197.34 164.06,-201.24 174.19,-204.34 173.91,-197.34"/>
</a>
</g>
</g>
<!-- Node9 -->
<g id="Node000009" class="node">
<title>Node9</title>
<g id="a_Node000009"><a xlink:href="class_kit_1_1_container_1_1_ring_buffer.html" target="_top" xlink:title="This template class implements a Ring Buffer.">
<polygon fill="white" stroke="#666666" points="341,-245.5 201,-245.5 201,-215.5 341,-215.5 341,-245.5"/>
<text text-anchor="start" x="209" y="-233.5" font-family="Helvetica,sans-Serif" font-size="10.00">Kit::Container::RingBuffer</text>
<text text-anchor="middle" x="271" y="-222.5" font-family="Helvetica,sans-Serif" font-size="10.00">&lt; ITEM &gt;</text>
</a>
</g>
</g>
<!-- Node8&#45;&gt;Node9 -->
<g id="edge11_Node000009_Node000008" class="edge">
<title>Node8&#45;&gt;Node9</title>
<g id="a_edge11_Node000009_Node000008"><a xlink:title=" ">
<path fill="none" stroke="#63b8ff" d="M161.85,-215.46C174.8,-217.26 188.12,-219.12 200.81,-220.88"/>
<polygon fill="#63b8ff" stroke="#63b8ff" points="161.96,-211.94 151.57,-214.03 160.99,-218.88 161.96,-211.94"/>
</a>
</g>
</g>
<!-- Node9&#45;&gt;Node7 -->
<g id="edge10_Node000007_Node000009" class="edge">
<title>Node9&#45;&gt;Node7</title>
<g id="a_edge10_Node000007_Node000009"><a xlink:title=" ">
<path fill="none" stroke="orange" stroke-dasharray="5,2" d="M351.33,-215.92C379.11,-210.82 410.05,-205.13 436.92,-200.19"/>
<polygon fill="orange" stroke="orange" points="350.46,-212.52 341.26,-217.77 351.73,-219.41 350.46,-212.52"/>
</a>
</g>
<text text-anchor="middle" x="389" y="-216.5" font-family="Helvetica,sans-Serif" font-size="10.00" fill="grey"> &lt; uint8_t &gt;</text>
</g>
<!-- Node10 -->
<g id="Node000010" class="node">
<title>Node10</title>
<g id="a_Node000010"><a xlink:href="class_kit_1_1_system_1_1_thread.html" target="_top" xlink:title="This mostly abstract class defines the operations that can be performed on a thread.">
<polygon fill="white" stroke="#666666" points="563.5,-84 450.5,-84 450.5,-65 563.5,-65 563.5,-84"/>
<text text-anchor="middle" x="507" y="-72" font-family="Helvetica,sans-Serif" font-size="10.00">Kit::System::Thread</text>
</a>
</g>
</g>
<!-- Node10&#45;&gt;Node1 -->
<g id="edge13_Node000001_Node000010" class="edge">
<title>Node10&#45;&gt;Node1</title>
<g id="a_edge13_Node000001_Node000010"><a xlink:title=" ">
<path fill="none" stroke="#9a32cd" stroke-dasharray="5,2" d="M562.2,-86.18C600.32,-94.6 652.45,-106.55 698,-118.5 711.85,-122.13 726.77,-126.37 740.49,-130.4"/>
<polygon fill="#9a32cd" stroke="#9a32cd" points="562.85,-82.73 552.33,-84 561.34,-89.57 562.85,-82.73"/>
</a>
</g>
<text text-anchor="middle" x="646.5" y="-132.5" font-family="Helvetica,sans-Serif" font-size="10.00" fill="grey"> m_rxWaiterPtr</text>
<text text-anchor="middle" x="646.5" y="-121.5" font-family="Helvetica,sans-Serif" font-size="10.00" fill="grey">m_txWaiterPtr</text>
</g>
<!-- Node14 -->
<g id="Node000014" class="node">
<title>Node14</title>
<g id="a_Node000014"><a xlink:href="class_kit_1_1_system_1_1_i_runnable.html" target="_top" xlink:title="This mostly an abstract class defines the interface for an object that is &quot;executed&quot; when a Thread ob...">
<polygon fill="white" stroke="#666666" points="855,-67 727,-67 727,-48 855,-48 855,-67"/>
<text text-anchor="middle" x="791" y="-55" font-family="Helvetica,sans-Serif" font-size="10.00">Kit::System::IRunnable</text>
</a>
</g>
</g>
<!-- Node10&#45;&gt;Node14 -->
<g id="edge19_Node000014_Node000010" class="edge">
<title>Node10&#45;&gt;Node14</title>
<g id="a_edge19_Node000014_Node000010"><a xlink:title=" ">
<path fill="none" stroke="#9a32cd" stroke-dasharray="5,2" d="M541.35,-61.57C557.32,-56.05 576.87,-50.25 595,-47.5 639.07,-40.82 689.32,-43.64 727.77,-47.96"/>
<polygon fill="#9a32cd" stroke="#9a32cd" points="540.16,-58.28 531.92,-64.94 542.51,-64.87 540.16,-58.28"/>
</a>
</g>
<text text-anchor="middle" x="646.5" y="-50.5" font-family="Helvetica,sans-Serif" font-size="10.00" fill="grey"> m_parentThreadPtr_</text>
</g>
<!-- Node11 -->
<g id="Node000011" class="node">
<title>Node11</title>
<g id="a_Node000011"><a xlink:href="class_kit_1_1_system_1_1_i_signable.html" target="_top" xlink:title="This abstract class defines the interface by which a client can cause an object that is waiting&#45;on&#45;a&#45;...">
<polygon fill="white" stroke="#666666" points="333,-85 209,-85 209,-66 333,-66 333,-85"/>
<text text-anchor="middle" x="271" y="-73" font-family="Helvetica,sans-Serif" font-size="10.00">Kit::System::ISignable</text>
</a>
</g>
</g>
<!-- Node11&#45;&gt;Node10 -->
<g id="edge14_Node000010_Node000011" class="edge">
<title>Node11&#45;&gt;Node10</title>
<g id="a_edge14_Node000010_Node000011"><a xlink:title=" ">
<path fill="none" stroke="#63b8ff" d="M343.61,-75.19C377.93,-75.05 418.42,-74.87 450.39,-74.74"/>
<polygon fill="#63b8ff" stroke="#63b8ff" points="343.16,-71.7 333.18,-75.24 343.19,-78.7 343.16,-71.7"/>
</a>
</g>
</g>
<!-- Node12 -->
<g id="Node000012" class="node">
<title>Node12</title>
<g id="a_Node000012"><a xlink:href="class_kit_1_1_container_1_1_list_item.html" target="_top" xlink:title="This class is used by the Container classes to implement a various types of linked lists containers.">
<polygon fill="white" stroke="#666666" points="335.5,-19 206.5,-19 206.5,0 335.5,0 335.5,-19"/>
<text text-anchor="middle" x="271" y="-7" font-family="Helvetica,sans-Serif" font-size="10.00">Kit::Container::ListItem</text>
</a>
</g>
</g>
<!-- Node12&#45;&gt;Node10 -->
<g id="edge15_Node000010_Node000012" class="edge">
<title>Node12&#45;&gt;Node10</title>
<g id="a_edge15_Node000010_Node000012"><a xlink:title=" ">
<path fill="none" stroke="#63b8ff" d="M316.34,-21.82C361.5,-34.36 430.57,-53.55 471.71,-64.98"/>
<polygon fill="#63b8ff" stroke="#63b8ff" points="317.1,-18.4 306.53,-19.09 315.23,-25.14 317.1,-18.4"/>
</a>
</g>
</g>
<!-- Node12&#45;&gt;Node12 -->
<g id="edge17_Node000012_Node000012" class="edge">
<title>Node12&#45;&gt;Node12</title>
<g id="a_edge17_Node000012_Node000012"><a xlink:title=" ">
<path fill="none" stroke="#9a32cd" stroke-dasharray="5,2" d="M254.79,-28.91C256.07,-33.56 261.47,-37 271,-37 286.64,-37 291.16,-27.73 284.56,-19.08"/>
<polygon fill="#9a32cd" stroke="#9a32cd" points="258.22,-29.65 257.44,-19.08 251.46,-27.83 258.22,-29.65"/>
</a>
</g>
<text text-anchor="middle" x="271" y="-40" font-family="Helvetica,sans-Serif" font-size="10.00" fill="grey"> m_nextPtr_</text>
</g>
<!-- Node13 -->
<g id="Node000013" class="node">
<title>Node13</title>
<g id="a_Node000013"><a xlink:href="class_kit_1_1_container_1_1_item.html" target="_top" xlink:title="This class is used by the Intrusive Container classes to enforce the semantic and item/element can be...">
<polygon fill="white" stroke="#666666" points="138,-19 26,-19 26,0 138,0 138,-19"/>
<text text-anchor="middle" x="82" y="-7" font-family="Helvetica,sans-Serif" font-size="10.00">Kit::Container::Item</text>
</a>
</g>
</g>
<!-- Node13&#45;&gt;Node12 -->
<g id="edge16_Node000012_Node000013" class="edge">
<title>Node13&#45;&gt;Node12</title>
<g id="a_edge16_Node000012_Node000013"><a xlink:title=" ">
<path fill="none" stroke="#63b8ff" d="M148.1,-9.5C167,-9.5 187.61,-9.5 206.42,-9.5"/>
<polygon fill="#63b8ff" stroke="#63b8ff" points="148.09,-6 138.09,-9.5 148.09,-13 148.09,-6"/>
</a>
</g>
</g>
<!-- Node14&#45;&gt;Node10 -->
<g id="edge18_Node000010_Node000014" class="edge">
<title>Node14&#45;&gt;Node10</title>
<g id="a_edge18_Node000010_Node000014"><a xlink:title=" ">
<path fill="none" stroke="#9a32cd" stroke-dasharray="5,2" d="M716.8,-61.91C668.99,-64.79 607.55,-68.5 563.71,-71.14"/>
<polygon fill="#9a32cd" stroke="#9a32cd" points="717.01,-65.41 726.78,-61.31 716.59,-58.42 717.01,-65.41"/>
</a>
</g>
<text text-anchor="middle" x="646.5" y="-71.5" font-family="Helvetica,sans-Serif" font-size="10.00" fill="grey"> m_runnable</text>
</g>
</g>
</svg>
