<?xml version="1.0" encoding="UTF-8" standalone="no"?>
<!DOCTYPE svg PUBLIC "-//W3C//DTD SVG 1.1//EN"
 "http://www.w3.org/Graphics/SVG/1.1/DTD/svg11.dtd">
<!-- Generated by graphviz version 2.43.0 (0)
 -->
<!-- Title: Kit::Memory::IContiguousAllocator Pages: 1 -->
<svg width="169pt" height="269pt"
 viewBox="0.00 0.00 169.00 269.00" xmlns="http://www.w3.org/2000/svg" xmlns:xlink="http://www.w3.org/1999/xlink">
<g id="graph0" class="graph" transform="scale(1 1) rotate(0) translate(4 265)">
<title>Kit::Memory::IContiguousAllocator</title>
<!-- Node1 -->
<g id="Node000001" class="node">
<title>Node1</title>
<g id="a_Node000001"><a xlink:title="This abstract class is used &#39;extend&#39; the Memory Allocator to have contiguous semantics.">
<polygon fill="#999999" stroke="#666666" points="150.5,-96 10.5,-96 10.5,-66 150.5,-66 150.5,-96"/>
<text text-anchor="start" x="18.5" y="-84" font-family="Helvetica,sans-Serif" font-size="10.00">Kit::Memory::IContiguous</text>
<text text-anchor="middle" x="80.5" y="-73" font-family="Helvetica,sans-Serif" font-size="10.00">Allocator</text>
</a>
</g>
</g>
<!-- Node5 -->
<g id="Node000005" class="node">
<title>Node5</title>
<g id="a_Node000005"><a xlink:href="class_kit_1_1_memory_1_1_lean_heap.html" target="_top" xlink:title="This template class manages an allocate&#45;only&#45;heap with statically allocated memory.">
<polygon fill="white" stroke="#666666" points="161,-30 0,-30 0,0 161,0 161,-30"/>
<text text-anchor="start" x="8" y="-18" font-family="Helvetica,sans-Serif" font-size="10.00">Kit::Memory::LeanHeap</text>
<text text-anchor="middle" x="80.5" y="-7" font-family="Helvetica,sans-Serif" font-size="10.00">&lt; MAXWORDS, WORDTYPE &gt;</text>
</a>
</g>
</g>
<!-- Node1&#45;&gt;Node5 -->
<g id="edge4_Node000001_Node000005" class="edge">
<title>Node1&#45;&gt;Node5</title>
<g id="a_edge4_Node000001_Node000005"><a xlink:title=" ">
<path fill="none" stroke="#63b8ff" d="M80.5,-55.54C80.5,-46.96 80.5,-37.61 80.5,-30.16"/>
<polygon fill="#63b8ff" stroke="#63b8ff" points="77,-55.8 80.5,-65.8 84,-55.8 77,-55.8"/>
</a>
</g>
</g>
<!-- Node2 -->
<g id="Node000002" class="node">
<title>Node2</title>
<g id="a_Node000002"><a xlink:href="class_kit_1_1_memory_1_1_i_allocator.html" target="_top" xlink:title="This abstract class defines the interface for a Memory Allocator.">
<polygon fill="white" stroke="#666666" points="144.5,-151 16.5,-151 16.5,-132 144.5,-132 144.5,-151"/>
<text text-anchor="middle" x="80.5" y="-139" font-family="Helvetica,sans-Serif" font-size="10.00">Kit::Memory::IAllocator</text>
</a>
</g>
</g>
<!-- Node2&#45;&gt;Node1 -->
<g id="edge1_Node000001_Node000002" class="edge">
<title>Node2&#45;&gt;Node1</title>
<g id="a_edge1_Node000001_Node000002"><a xlink:title=" ">
<path fill="none" stroke="#63b8ff" d="M80.5,-121.65C80.5,-113.36 80.5,-103.78 80.5,-96.11"/>
<polygon fill="#63b8ff" stroke="#63b8ff" points="77,-121.87 80.5,-131.87 84,-121.87 77,-121.87"/>
</a>
</g>
</g>
<!-- Node3 -->
<g id="Node000003" class="node">
<title>Node3</title>
<g id="a_Node000003"><a xlink:href="class_kit_1_1_container_1_1_list_item.html" target="_top" xlink:title="This class is used by the Container classes to implement a various types of linked lists containers.">
<polygon fill="white" stroke="#666666" points="145,-206 16,-206 16,-187 145,-187 145,-206"/>
<text text-anchor="middle" x="80.5" y="-194" font-family="Helvetica,sans-Serif" font-size="10.00">Kit::Container::ListItem</text>
</a>
</g>
</g>
<!-- Node3&#45;&gt;Node2 -->
<g id="edge2_Node000002_Node000003" class="edge">
<title>Node3&#45;&gt;Node2</title>
<g id="a_edge2_Node000002_Node000003"><a xlink:title=" ">
<path fill="none" stroke="#63b8ff" d="M80.5,-176.66C80.5,-167.93 80.5,-157.99 80.5,-151.09"/>
<polygon fill="#63b8ff" stroke="#63b8ff" points="77,-176.75 80.5,-186.75 84,-176.75 77,-176.75"/>
</a>
</g>
</g>
<!-- Node4 -->
<g id="Node000004" class="node">
<title>Node4</title>
<g id="a_Node000004"><a xlink:href="class_kit_1_1_container_1_1_item.html" target="_top" xlink:title="This class is used by the Intrusive Container classes to enforce the semantic and item/element can be...">
<polygon fill="white" stroke="#666666" points="136.5,-261 24.5,-261 24.5,-242 136.5,-242 136.5,-261"/>
<text text-anchor="middle" x="80.5" y="-249" font-family="Helvetica,sans-Serif" font-size="10.00">Kit::Container::Item</text>
</a>
</g>
</g>
<!-- Node4&#45;&gt;Node3 -->
<g id="edge3_Node000003_Node000004" class="edge">
<title>Node4&#45;&gt;Node3</title>
<g id="a_edge3_Node000003_Node000004"><a xlink:title=" ">
<path fill="none" stroke="#63b8ff" d="M80.5,-231.66C80.5,-222.93 80.5,-212.99 80.5,-206.09"/>
<polygon fill="#63b8ff" stroke="#63b8ff" points="77,-231.75 80.5,-241.75 84,-231.75 77,-231.75"/>
</a>
</g>
</g>
</g>
</svg>
