<?xml version="1.0" encoding="UTF-8" standalone="no"?>
<!DOCTYPE svg PUBLIC "-//W3C//DTD SVG 1.1//EN"
 "http://www.w3.org/Graphics/SVG/1.1/DTD/svg11.dtd">
<!-- Generated by graphviz version 2.43.0 (0)
 -->
<!-- Title: Kit::Itc::ICloseRequest Pages: 1 -->
<svg width="482pt" height="342pt"
 viewBox="0.00 0.00 482.00 342.00" xmlns="http://www.w3.org/2000/svg" xmlns:xlink="http://www.w3.org/1999/xlink">
<g id="graph0" class="graph" transform="scale(1 1) rotate(0) translate(4 338)">
<title>Kit::Itc::ICloseRequest</title>
<!-- Node1 -->
<g id="Node000001" class="node">
<title>Node1</title>
<g id="a_Node000001"><a xlink:title="This abstract class defines message types and payloads for a set of ITC services.">
<polygon fill="#999999" stroke="#666666" points="124,-200.5 0,-200.5 0,-181.5 124,-181.5 124,-200.5"/>
<text text-anchor="middle" x="62" y="-188.5" font-family="Helvetica,sans-Serif" font-size="10.00">Kit::Itc::ICloseRequest</text>
</a>
</g>
</g>
<!-- Node2 -->
<g id="Node000002" class="node">
<title>Node2</title>
<g id="a_Node000002"><a xlink:href="class_kit_1_1_itc_1_1_open_close_sync.html" target="_top" xlink:title="This partially concrete class extends the ITC OpenSync class and implements the synchronous ITC close...">
<polygon fill="white" stroke="#666666" points="290,-200.5 160,-200.5 160,-181.5 290,-181.5 290,-200.5"/>
<text text-anchor="middle" x="225" y="-188.5" font-family="Helvetica,sans-Serif" font-size="10.00">Kit::Itc::OpenCloseSync</text>
</a>
</g>
</g>
<!-- Node1&#45;&gt;Node2 -->
<g id="edge1_Node000001_Node000002" class="edge">
<title>Node1&#45;&gt;Node2</title>
<g id="a_edge1_Node000001_Node000002"><a xlink:title=" ">
<path fill="none" stroke="#63b8ff" d="M134.54,-191C142.99,-191 151.57,-191 159.9,-191"/>
<polygon fill="#63b8ff" stroke="#63b8ff" points="134.33,-187.5 124.33,-191 134.33,-194.5 134.33,-187.5"/>
</a>
</g>
</g>
<!-- Node3 -->
<g id="Node000003" class="node">
<title>Node3</title>
<g id="a_Node000003"><a xlink:href="class_container_1_1_ring_buffer_1_1_led_server.html" target="_top" xlink:title="This concrete class monitors the a Queue of LED Flash codes and the consumes&#45;and&#45;executes the Flash c...">
<polygon fill="white" stroke="#666666" points="460.5,-334 339.5,-334 339.5,-304 460.5,-304 460.5,-334"/>
<text text-anchor="start" x="347.5" y="-322" font-family="Helvetica,sans-Serif" font-size="10.00">Container::RingBuffer</text>
<text text-anchor="middle" x="400" y="-311" font-family="Helvetica,sans-Serif" font-size="10.00">::LedServer</text>
</a>
</g>
</g>
<!-- Node2&#45;&gt;Node3 -->
<g id="edge2_Node000002_Node000003" class="edge">
<title>Node2&#45;&gt;Node3</title>
<g id="a_edge2_Node000002_Node000003"><a xlink:title=" ">
<path fill="none" stroke="#63b8ff" d="M238.61,-208.72C255.86,-231.73 288.93,-271.69 326,-295 331.42,-298.41 337.38,-301.38 343.47,-303.97"/>
<polygon fill="#63b8ff" stroke="#63b8ff" points="241.34,-206.52 232.61,-200.53 235.7,-210.66 241.34,-206.52"/>
</a>
</g>
</g>
<!-- Node4 -->
<g id="Node000004" class="node">
<title>Node4</title>
<g id="a_Node000004"><a xlink:href="class_container_1_1_ring_buffer_1_1_producer.html" target="_top" xlink:title="This concrete class is responsible for generating flash codes (i.e.">
<polygon fill="white" stroke="#666666" points="460.5,-286 339.5,-286 339.5,-256 460.5,-256 460.5,-286"/>
<text text-anchor="start" x="347.5" y="-274" font-family="Helvetica,sans-Serif" font-size="10.00">Container::RingBuffer</text>
<text text-anchor="middle" x="400" y="-263" font-family="Helvetica,sans-Serif" font-size="10.00">::Producer</text>
</a>
</g>
</g>
<!-- Node2&#45;&gt;Node4 -->
<g id="edge3_Node000002_Node000004" class="edge">
<title>Node2&#45;&gt;Node4</title>
<g id="a_edge3_Node000002_Node000004"><a xlink:title=" ">
<path fill="none" stroke="#63b8ff" d="M249.79,-206.05C269.64,-218.18 298.95,-235.11 326,-247 333.21,-250.17 340.97,-253.15 348.65,-255.86"/>
<polygon fill="#63b8ff" stroke="#63b8ff" points="251.46,-202.97 241.11,-200.68 247.78,-208.92 251.46,-202.97"/>
</a>
</g>
</g>
<!-- Node5 -->
<g id="Node000005" class="node">
<title>Node5</title>
<g id="a_Node000005"><a xlink:href="class_dm_1_1_transaction_1_1_client.html" target="_top" xlink:title="This concrete class is a &#39;client&#39; to request/trigger the &#39;server&#39; to generate a random number.">
<polygon fill="white" stroke="#666666" points="465,-237.5 335,-237.5 335,-218.5 465,-218.5 465,-237.5"/>
<text text-anchor="middle" x="400" y="-225.5" font-family="Helvetica,sans-Serif" font-size="10.00">Dm::Transaction::Client</text>
</a>
</g>
</g>
<!-- Node2&#45;&gt;Node5 -->
<g id="edge4_Node000002_Node000005" class="edge">
<title>Node2&#45;&gt;Node5</title>
<g id="a_edge4_Node000002_Node000005"><a xlink:title=" ">
<path fill="none" stroke="#63b8ff" d="M300.43,-200.23C327.88,-205.83 356.97,-212.7 376.38,-218.43"/>
<polygon fill="#63b8ff" stroke="#63b8ff" points="300.91,-196.75 290.42,-198.23 299.54,-203.62 300.91,-196.75"/>
</a>
</g>
</g>
<!-- Node2&#45;&gt;Node5 -->
<g id="edge5_Node000002_Node000005" class="edge">
<title>Node2&#45;&gt;Node5</title>
<g id="a_edge5_Node000002_Node000005"><a xlink:title=" ">
<path fill="none" stroke="#63b8ff" d="M258.24,-203.29C279.79,-209.16 308.87,-215.76 335,-220.85"/>
<polygon fill="#63b8ff" stroke="#63b8ff" points="259.19,-199.92 248.62,-200.57 257.29,-206.66 259.19,-199.92"/>
</a>
</g>
</g>
<!-- Node6 -->
<g id="Node000006" class="node">
<title>Node6</title>
<g id="a_Node000006"><a xlink:href="class_dm_1_1_transaction_1_1_server.html" target="_top" xlink:title="This concrete class is a &#39;server&#39; that responds to requests from a &#39;client&#39; to generate.">
<polygon fill="white" stroke="#666666" points="466.5,-200.5 333.5,-200.5 333.5,-181.5 466.5,-181.5 466.5,-200.5"/>
<text text-anchor="middle" x="400" y="-188.5" font-family="Helvetica,sans-Serif" font-size="10.00">Dm::Transaction::Server</text>
</a>
</g>
</g>
<!-- Node2&#45;&gt;Node6 -->
<g id="edge6_Node000002_Node000006" class="edge">
<title>Node2&#45;&gt;Node6</title>
<g id="a_edge6_Node000002_Node000006"><a xlink:title=" ">
<path fill="none" stroke="#63b8ff" d="M300.73,-191C311.59,-191 322.71,-191 333.37,-191"/>
<polygon fill="#63b8ff" stroke="#63b8ff" points="300.42,-187.5 290.42,-191 300.42,-194.5 300.42,-187.5"/>
</a>
</g>
</g>
<!-- Node7 -->
<g id="Node000007" class="node">
<title>Node7</title>
<g id="a_Node000007"><a xlink:href="class_itc_1_1_synchronous_1_1_server.html" target="_top" xlink:title="This concrete class is a &#39;server&#39; that flashes the LED.">
<polygon fill="white" stroke="#666666" points="467,-163.5 333,-163.5 333,-144.5 467,-144.5 467,-163.5"/>
<text text-anchor="middle" x="400" y="-151.5" font-family="Helvetica,sans-Serif" font-size="10.00">Itc::Synchronous::Server</text>
</a>
</g>
</g>
<!-- Node2&#45;&gt;Node7 -->
<g id="edge7_Node000002_Node000007" class="edge">
<title>Node2&#45;&gt;Node7</title>
<g id="a_edge7_Node000002_Node000007"><a xlink:title=" ">
<path fill="none" stroke="#63b8ff" d="M280.48,-179.35C304.25,-174.27 331.76,-168.38 354.3,-163.56"/>
<polygon fill="#63b8ff" stroke="#63b8ff" points="279.6,-175.96 270.55,-181.47 281.06,-182.8 279.6,-175.96"/>
</a>
</g>
</g>
<!-- Node8 -->
<g id="Node000008" class="node">
<title>Node8</title>
<g id="a_Node000008"><a xlink:href="class_kit_1_1_logging_1_1_framework_1_1_log_sink.html" target="_top" xlink:title="This class is responsible for consuming the application&#39;s Log buffer and &#39;dispatching&#39; log entries.">
<polygon fill="white" stroke="#666666" points="467.5,-126 332.5,-126 332.5,-96 467.5,-96 467.5,-126"/>
<text text-anchor="start" x="340.5" y="-114" font-family="Helvetica,sans-Serif" font-size="10.00">Kit::Logging::Framework</text>
<text text-anchor="middle" x="400" y="-103" font-family="Helvetica,sans-Serif" font-size="10.00">::LogSink</text>
</a>
</g>
</g>
<!-- Node2&#45;&gt;Node8 -->
<g id="edge8_Node000002_Node000008" class="edge">
<title>Node2&#45;&gt;Node8</title>
<g id="a_edge8_Node000002_Node000008"><a xlink:title=" ">
<path fill="none" stroke="#63b8ff" d="M250.21,-176.13C270.1,-164.31 299.25,-147.83 326,-136 333.96,-132.48 342.59,-129.13 351.03,-126.1"/>
<polygon fill="#63b8ff" stroke="#63b8ff" points="248.27,-173.22 241.5,-181.37 251.88,-179.22 248.27,-173.22"/>
</a>
</g>
</g>
<!-- Node9 -->
<g id="Node000009" class="node">
<title>Node9</title>
<g id="a_Node000009"><a xlink:href="class_kit_1_1_persistence_1_1_record_1_1_journal_1_1_server.html" target="_top" xlink:title="This concrete template class implements the ITC messaging and Model Point monitoring needed to provid...">
<polygon fill="white" stroke="#666666" points="474,-78 326,-78 326,-48 474,-48 474,-78"/>
<text text-anchor="start" x="334" y="-66" font-family="Helvetica,sans-Serif" font-size="10.00">Kit::Persistence::Record</text>
<text text-anchor="middle" x="400" y="-55" font-family="Helvetica,sans-Serif" font-size="10.00">::Journal::Server&lt; ENTRY &gt;</text>
</a>
</g>
</g>
<!-- Node2&#45;&gt;Node9 -->
<g id="edge9_Node000002_Node000009" class="edge">
<title>Node2&#45;&gt;Node9</title>
<g id="a_edge9_Node000002_Node000009"><a xlink:title=" ">
<path fill="none" stroke="#63b8ff" d="M238.61,-173.28C255.86,-150.27 288.93,-110.31 326,-87 331.42,-83.59 337.38,-80.62 343.47,-78.03"/>
<polygon fill="#63b8ff" stroke="#63b8ff" points="235.7,-171.34 232.61,-181.47 241.34,-175.48 235.7,-171.34"/>
</a>
</g>
</g>
<!-- Node10 -->
<g id="Node000010" class="node">
<title>Node10</title>
<g id="a_Node000010"><a xlink:href="class_kit_1_1_persistence_1_1_record_1_1_server.html" target="_top" xlink:title="This concrete class is responsible for starting and stopping a list of IRecords objects,...">
<polygon fill="white" stroke="#666666" points="466,-30 334,-30 334,0 466,0 466,-30"/>
<text text-anchor="start" x="342" y="-18" font-family="Helvetica,sans-Serif" font-size="10.00">Kit::Persistence::Record</text>
<text text-anchor="middle" x="400" y="-7" font-family="Helvetica,sans-Serif" font-size="10.00">::Server</text>
</a>
</g>
</g>
<!-- Node2&#45;&gt;Node10 -->
<g id="edge10_Node000002_Node000010" class="edge">
<title>Node2&#45;&gt;Node10</title>
<g id="a_edge10_Node000002_Node000010"><a xlink:title=" ">
<path fill="none" stroke="#63b8ff" d="M233.68,-171.59C247.4,-139.37 279.12,-74.88 326,-39 330.45,-35.59 335.4,-32.66 340.58,-30.13"/>
<polygon fill="#63b8ff" stroke="#63b8ff" points="230.3,-170.61 229.73,-181.18 236.77,-173.27 230.3,-170.61"/>
</a>
</g>
</g>
</g>
</svg>
