<?xml version="1.0" encoding="UTF-8" standalone="no"?>
<!DOCTYPE svg PUBLIC "-//W3C//DTD SVG 1.1//EN"
 "http://www.w3.org/Graphics/SVG/1.1/DTD/svg11.dtd">
<!-- Generated by graphviz version 2.43.0 (0)
 -->
<!-- Title: Kit::Dm::Mp::Int16 Pages: 1 -->
<svg width="2231pt" height="81pt"
 viewBox="0.00 0.00 2231.00 81.00" xmlns="http://www.w3.org/2000/svg" xmlns:xlink="http://www.w3.org/1999/xlink">
<g id="graph0" class="graph" transform="scale(1 1) rotate(0) translate(4 77)">
<title>Kit::Dm::Mp::Int16</title>
<!-- Node1 -->
<g id="Node000001" class="node">
<title>Node1</title>
<g id="a_Node000001"><a xlink:title="This class provides a concrete implementation for a Point who&#39;s data is a int16_t.">
<polygon fill="#999999" stroke="#666666" points="2223,-46.5 2118,-46.5 2118,-27.5 2223,-27.5 2223,-46.5"/>
<text text-anchor="middle" x="2170.5" y="-34.5" font-family="Helvetica,sans-Serif" font-size="10.00">Kit::Dm::Mp::Int16</text>
</a>
</g>
</g>
<!-- Node2 -->
<g id="Node000002" class="node">
<title>Node2</title>
<g id="a_Node000002"><a xlink:href="class_kit_1_1_dm_1_1_mp_1_1_signed_integer.html" target="_top" xlink:title=" ">
<polygon fill="white" stroke="#666666" points="2081,-52 1933,-52 1933,-22 2081,-22 2081,-52"/>
<text text-anchor="start" x="1941" y="-40" font-family="Helvetica,sans-Serif" font-size="10.00">Kit::Dm::Mp::SignedInteger</text>
<text text-anchor="middle" x="2007" y="-29" font-family="Helvetica,sans-Serif" font-size="10.00">&lt; int16_t, Int16 &gt;</text>
</a>
</g>
</g>
<!-- Node2&#45;&gt;Node1 -->
<g id="edge1_Node000001_Node000002" class="edge">
<title>Node2&#45;&gt;Node1</title>
<g id="a_edge1_Node000001_Node000002"><a xlink:title=" ">
<path fill="none" stroke="#63b8ff" d="M2091.35,-37C2100.36,-37 2109.32,-37 2117.79,-37"/>
<polygon fill="#63b8ff" stroke="#63b8ff" points="2091.19,-33.5 2081.19,-37 2091.19,-40.5 2091.19,-33.5"/>
</a>
</g>
</g>
<!-- Node3 -->
<g id="Node000003" class="node">
<title>Node3</title>
<g id="a_Node000003"><a xlink:href="class_kit_1_1_dm_1_1_mp_1_1_integer.html" target="_top" xlink:title="This template class provides a mostly concrete implementation for a Model Point who&#39;s data is a C int...">
<polygon fill="white" stroke="#666666" points="1640,-73 1506,-73 1506,-43 1640,-43 1640,-73"/>
<text text-anchor="start" x="1514" y="-61" font-family="Helvetica,sans-Serif" font-size="10.00">Kit::Dm::Mp::Integer</text>
<text text-anchor="middle" x="1573" y="-50" font-family="Helvetica,sans-Serif" font-size="10.00">&lt; ELEMTYPE, MPTYPE &gt;</text>
</a>
</g>
</g>
<!-- Node3&#45;&gt;Node2 -->
<g id="edge2_Node000002_Node000003" class="edge">
<title>Node3&#45;&gt;Node2</title>
<g id="a_edge2_Node000002_Node000003"><a xlink:title=" ">
<path fill="none" stroke="#63b8ff" d="M1650.4,-55.64C1719.54,-53.33 1824.14,-49.36 1915,-44 1920.69,-43.66 1926.59,-43.28 1932.51,-42.88"/>
<polygon fill="#63b8ff" stroke="#63b8ff" points="1649.92,-52.16 1640.04,-55.99 1650.15,-59.15 1649.92,-52.16"/>
</a>
</g>
</g>
<!-- Node4 -->
<g id="Node000004" class="node">
<title>Node4</title>
<g id="a_Node000004"><a xlink:href="class_kit_1_1_dm_1_1_mp_1_1_numeric_base.html" target="_top" xlink:title="This template class extends the PrimitiveType class to provide numeric operations.">
<polygon fill="white" stroke="#666666" points="1317,-51 1171,-51 1171,-21 1317,-21 1317,-51"/>
<text text-anchor="start" x="1179" y="-39" font-family="Helvetica,sans-Serif" font-size="10.00">Kit::Dm::Mp::NumericBase</text>
<text text-anchor="middle" x="1244" y="-28" font-family="Helvetica,sans-Serif" font-size="10.00">&lt; ELEMTYPE, MPTYPE &gt;</text>
</a>
</g>
</g>
<!-- Node4&#45;&gt;Node3 -->
<g id="edge3_Node000003_Node000004" class="edge">
<title>Node4&#45;&gt;Node3</title>
<g id="a_edge3_Node000003_Node000004"><a xlink:title=" ">
<path fill="none" stroke="#63b8ff" d="M1327.28,-41.54C1382.52,-45.25 1454.33,-50.08 1505.86,-53.55"/>
<polygon fill="#63b8ff" stroke="#63b8ff" points="1327.38,-38.03 1317.17,-40.86 1326.91,-45.02 1327.38,-38.03"/>
</a>
</g>
</g>
<!-- Node13 -->
<g id="Node000013" class="node">
<title>Node13</title>
<g id="a_Node000013"><a xlink:href="class_kit_1_1_dm_1_1_mp_1_1_integer.html" target="_top" xlink:title="This template class provides a mostly concrete implementation for a Model Point who&#39;s data is a C int...">
<polygon fill="white" stroke="#666666" points="1488,-30 1354,-30 1354,0 1488,0 1488,-30"/>
<text text-anchor="start" x="1362" y="-18" font-family="Helvetica,sans-Serif" font-size="10.00">Kit::Dm::Mp::Integer</text>
<text text-anchor="middle" x="1421" y="-7" font-family="Helvetica,sans-Serif" font-size="10.00">&lt; ELEMTYPE, MPTYPE &gt;</text>
</a>
</g>
</g>
<!-- Node4&#45;&gt;Node13 -->
<g id="edge13_Node000013_Node000004" class="edge">
<title>Node4&#45;&gt;Node13</title>
<g id="a_edge13_Node000013_Node000004"><a xlink:title=" ">
<path fill="none" stroke="#63b8ff" d="M1327.22,-26.13C1336.16,-25.06 1345.16,-23.98 1353.87,-22.94"/>
<polygon fill="#63b8ff" stroke="#63b8ff" points="1326.7,-22.67 1317.19,-27.34 1327.54,-29.62 1326.7,-22.67"/>
</a>
</g>
</g>
<!-- Node5 -->
<g id="Node000005" class="node">
<title>Node5</title>
<g id="a_Node000005"><a xlink:href="class_kit_1_1_dm_1_1_mp_1_1_primitive_type.html" target="_top" xlink:title="This template class extends the Scalar base class to data that is a C primitive type of type: &#39;ELEMTY...">
<polygon fill="white" stroke="#666666" points="1134,-51 987,-51 987,-21 1134,-21 1134,-51"/>
<text text-anchor="start" x="995" y="-39" font-family="Helvetica,sans-Serif" font-size="10.00">Kit::Dm::Mp::PrimitiveType</text>
<text text-anchor="middle" x="1060.5" y="-28" font-family="Helvetica,sans-Serif" font-size="10.00">&lt; ELEMTYPE, MPTYPE &gt;</text>
</a>
</g>
</g>
<!-- Node5&#45;&gt;Node4 -->
<g id="edge4_Node000004_Node000005" class="edge">
<title>Node5&#45;&gt;Node4</title>
<g id="a_edge4_Node000004_Node000005"><a xlink:title=" ">
<path fill="none" stroke="#63b8ff" d="M1144.06,-36C1153.02,-36 1162.08,-36 1170.9,-36"/>
<polygon fill="#63b8ff" stroke="#63b8ff" points="1144.02,-32.5 1134.02,-36 1144.02,-39.5 1144.02,-32.5"/>
</a>
</g>
</g>
<!-- Node6 -->
<g id="Node000006" class="node">
<title>Node6</title>
<g id="a_Node000006"><a xlink:href="class_kit_1_1_dm_1_1_mp_1_1_scalar.html" target="_top" xlink:title="This template class is partial concrete class that provides a basic implementation for a Model Point ...">
<polygon fill="white" stroke="#666666" points="950,-51 816,-51 816,-21 950,-21 950,-51"/>
<text text-anchor="start" x="824" y="-39" font-family="Helvetica,sans-Serif" font-size="10.00">Kit::Dm::Mp::Scalar</text>
<text text-anchor="middle" x="883" y="-28" font-family="Helvetica,sans-Serif" font-size="10.00">&lt; ELEMTYPE, MPTYPE &gt;</text>
</a>
</g>
</g>
<!-- Node6&#45;&gt;Node5 -->
<g id="edge5_Node000005_Node000006" class="edge">
<title>Node6&#45;&gt;Node5</title>
<g id="a_edge5_Node000005_Node000006"><a xlink:title=" ">
<path fill="none" stroke="#63b8ff" d="M960.54,-36C969.29,-36 978.2,-36 986.9,-36"/>
<polygon fill="#63b8ff" stroke="#63b8ff" points="960.35,-32.5 950.35,-36 960.35,-39.5 960.35,-32.5"/>
</a>
</g>
</g>
<!-- Node7 -->
<g id="Node000007" class="node">
<title>Node7</title>
<g id="a_Node000007"><a xlink:href="class_kit_1_1_dm_1_1_model_point_base.html" target="_top" xlink:title="This concrete class provide common infrastructure for a Model Point.">
<polygon fill="white" stroke="#666666" points="779,-45.5 641,-45.5 641,-26.5 779,-26.5 779,-45.5"/>
<text text-anchor="middle" x="710" y="-33.5" font-family="Helvetica,sans-Serif" font-size="10.00">Kit::Dm::ModelPointBase</text>
</a>
</g>
</g>
<!-- Node7&#45;&gt;Node6 -->
<g id="edge6_Node000006_Node000007" class="edge">
<title>Node7&#45;&gt;Node6</title>
<g id="a_edge6_Node000006_Node000007"><a xlink:title=" ">
<path fill="none" stroke="#63b8ff" d="M789.1,-36C798.03,-36 807.07,-36 815.83,-36"/>
<polygon fill="#63b8ff" stroke="#63b8ff" points="789.08,-32.5 779.08,-36 789.08,-39.5 789.08,-32.5"/>
</a>
</g>
</g>
<!-- Node8 -->
<g id="Node000008" class="node">
<title>Node8</title>
<g id="a_Node000008"><a xlink:href="class_kit_1_1_dm_1_1_i_model_point.html" target="_top" xlink:title="This mostly abstract class defines the interface for a Model Point.">
<polygon fill="white" stroke="#666666" points="604,-45.5 487,-45.5 487,-26.5 604,-26.5 604,-45.5"/>
<text text-anchor="middle" x="545.5" y="-33.5" font-family="Helvetica,sans-Serif" font-size="10.00">Kit::Dm::IModelPoint</text>
</a>
</g>
</g>
<!-- Node8&#45;&gt;Node7 -->
<g id="edge7_Node000007_Node000008" class="edge">
<title>Node8&#45;&gt;Node7</title>
<g id="a_edge7_Node000007_Node000008"><a xlink:title=" ">
<path fill="none" stroke="#63b8ff" d="M614.4,-36C623.16,-36 632.13,-36 640.88,-36"/>
<polygon fill="#63b8ff" stroke="#63b8ff" points="614.25,-32.5 604.25,-36 614.25,-39.5 614.25,-32.5"/>
</a>
</g>
</g>
<!-- Node9 -->
<g id="Node000009" class="node">
<title>Node9</title>
<g id="a_Node000009"><a xlink:href="class_kit_1_1_container_1_1_extended_list_item.html" target="_top" xlink:title="This class is used by the Container classes to implement a various types of DOUBLY linked containers.">
<polygon fill="white" stroke="#666666" points="450,-51 315,-51 315,-21 450,-21 450,-51"/>
<text text-anchor="start" x="323" y="-39" font-family="Helvetica,sans-Serif" font-size="10.00">Kit::Container::Extended</text>
<text text-anchor="middle" x="382.5" y="-28" font-family="Helvetica,sans-Serif" font-size="10.00">ListItem</text>
</a>
</g>
</g>
<!-- Node9&#45;&gt;Node8 -->
<g id="edge8_Node000008_Node000009" class="edge">
<title>Node9&#45;&gt;Node8</title>
<g id="a_edge8_Node000008_Node000009"><a xlink:title=" ">
<path fill="none" stroke="#63b8ff" d="M460.66,-36C469.46,-36 478.31,-36 486.8,-36"/>
<polygon fill="#63b8ff" stroke="#63b8ff" points="460.38,-32.5 450.38,-36 460.38,-39.5 460.38,-32.5"/>
</a>
</g>
</g>
<!-- Node10 -->
<g id="Node000010" class="node">
<title>Node10</title>
<g id="a_Node000010"><a xlink:href="class_kit_1_1_container_1_1_list_item.html" target="_top" xlink:title="This class is used by the Container classes to implement a various types of linked lists containers.">
<polygon fill="white" stroke="#666666" points="278,-45.5 149,-45.5 149,-26.5 278,-26.5 278,-45.5"/>
<text text-anchor="middle" x="213.5" y="-33.5" font-family="Helvetica,sans-Serif" font-size="10.00">Kit::Container::ListItem</text>
</a>
</g>
</g>
<!-- Node10&#45;&gt;Node9 -->
<g id="edge9_Node000009_Node000010" class="edge">
<title>Node10&#45;&gt;Node9</title>
<g id="a_edge9_Node000009_Node000010"><a xlink:title=" ">
<path fill="none" stroke="#63b8ff" d="M288.34,-36C297.12,-36 306.05,-36 314.73,-36"/>
<polygon fill="#63b8ff" stroke="#63b8ff" points="288.11,-32.5 278.11,-36 288.11,-39.5 288.11,-32.5"/>
</a>
</g>
</g>
<!-- Node11 -->
<g id="Node000011" class="node">
<title>Node11</title>
<g id="a_Node000011"><a xlink:href="class_kit_1_1_container_1_1_item.html" target="_top" xlink:title="This class is used by the Intrusive Container classes to enforce the semantic and item/element can be...">
<polygon fill="white" stroke="#666666" points="112,-45.5 0,-45.5 0,-26.5 112,-26.5 112,-45.5"/>
<text text-anchor="middle" x="56" y="-33.5" font-family="Helvetica,sans-Serif" font-size="10.00">Kit::Container::Item</text>
</a>
</g>
</g>
<!-- Node11&#45;&gt;Node10 -->
<g id="edge10_Node000010_Node000011" class="edge">
<title>Node11&#45;&gt;Node10</title>
<g id="a_edge10_Node000010_Node000011"><a xlink:title=" ">
<path fill="none" stroke="#63b8ff" d="M122.43,-36C131.2,-36 140.19,-36 148.93,-36"/>
<polygon fill="#63b8ff" stroke="#63b8ff" points="122.26,-32.5 112.26,-36 122.26,-39.5 122.26,-32.5"/>
</a>
</g>
</g>
<!-- Node12 -->
<g id="Node000012" class="node">
<title>Node12</title>
<g id="a_Node000012"><a xlink:href="class_kit_1_1_dm_1_1_mp_1_1_signed_integer.html" target="_top" xlink:title="This template class provides the to/from JSON methods for Signed Integers.">
<polygon fill="white" stroke="#666666" points="1806,-30 1658,-30 1658,0 1806,0 1806,-30"/>
<text text-anchor="start" x="1666" y="-18" font-family="Helvetica,sans-Serif" font-size="10.00">Kit::Dm::Mp::SignedInteger</text>
<text text-anchor="middle" x="1732" y="-7" font-family="Helvetica,sans-Serif" font-size="10.00">&lt; ELEMTYPE, MPTYPE &gt;</text>
</a>
</g>
</g>
<!-- Node12&#45;&gt;Node2 -->
<g id="edge11_Node000002_Node000012" class="edge">
<title>Node12&#45;&gt;Node2</title>
<g id="a_edge11_Node000002_Node000012"><a xlink:title=" ">
<path fill="none" stroke="orange" stroke-dasharray="5,2" d="M1816.44,-21.72C1853.53,-24.71 1896.81,-28.2 1932.64,-31.09"/>
<polygon fill="orange" stroke="orange" points="1816.41,-18.21 1806.16,-20.9 1815.85,-25.19 1816.41,-18.21"/>
</a>
</g>
<text text-anchor="middle" x="1869.5" y="-33" font-family="Helvetica,sans-Serif" font-size="10.00" fill="grey"> &lt; int16_t, Int16 &gt;</text>
</g>
<!-- Node13&#45;&gt;Node12 -->
<g id="edge12_Node000012_Node000013" class="edge">
<title>Node13&#45;&gt;Node12</title>
<g id="a_edge12_Node000012_Node000013"><a xlink:title=" ">
<path fill="none" stroke="#63b8ff" d="M1498.45,-15C1547.11,-15 1609.78,-15 1657.79,-15"/>
<polygon fill="#63b8ff" stroke="#63b8ff" points="1498.29,-11.5 1488.29,-15 1498.29,-18.5 1498.29,-11.5"/>
</a>
</g>
</g>
</g>
</svg>
