<?xml version="1.0" encoding="UTF-8" standalone="no"?>
<!DOCTYPE svg PUBLIC "-//W3C//DTD SVG 1.1//EN"
 "http://www.w3.org/Graphics/SVG/1.1/DTD/svg11.dtd">
<!-- Generated by graphviz version 2.43.0 (0)
 -->
<!-- Title: Kit::Io::LineWriter Pages: 1 -->
<svg width="257pt" height="149pt"
 viewBox="0.00 0.00 256.50 149.00" xmlns="http://www.w3.org/2000/svg" xmlns:xlink="http://www.w3.org/1999/xlink">
<g id="graph0" class="graph" transform="scale(1 1) rotate(0) translate(4 145)">
<title>Kit::Io::LineWriter</title>
<!-- Node1 -->
<g id="Node000001" class="node">
<title>Node1</title>
<g id="a_Node000001"><a xlink:title="This concrete class implements a Line Writer stream using a previously opened IOutput stream.">
<polygon fill="#999999" stroke="#666666" points="118.5,-19 17.5,-19 17.5,0 118.5,0 118.5,-19"/>
<text text-anchor="middle" x="68" y="-7" font-family="Helvetica,sans-Serif" font-size="10.00">Kit::Io::LineWriter</text>
</a>
</g>
</g>
<!-- Node2 -->
<g id="Node000002" class="node">
<title>Node2</title>
<g id="a_Node000002"><a xlink:href="class_kit_1_1_io_1_1_i_line_writer.html" target="_top" xlink:title="This abstract class defines a interface for a stream line writer.">
<polygon fill="white" stroke="#666666" points="104,-85 0,-85 0,-66 104,-66 104,-85"/>
<text text-anchor="middle" x="52" y="-73" font-family="Helvetica,sans-Serif" font-size="10.00">Kit::Io::ILineWriter</text>
</a>
</g>
</g>
<!-- Node2&#45;&gt;Node1 -->
<g id="edge1_Node000001_Node000002" class="edge">
<title>Node2&#45;&gt;Node1</title>
<g id="a_edge1_Node000001_Node000002"><a xlink:title=" ">
<path fill="none" stroke="#63b8ff" d="M56.64,-55.95C59.64,-43.93 63.42,-28.82 65.77,-19.41"/>
<polygon fill="#63b8ff" stroke="#63b8ff" points="53.19,-55.32 54.16,-65.87 59.98,-57.02 53.19,-55.32"/>
</a>
</g>
</g>
<!-- Node3 -->
<g id="Node000003" class="node">
<title>Node3</title>
<g id="a_Node000003"><a xlink:href="class_kit_1_1_io_1_1_i_output.html" target="_top" xlink:title="This partially abstract class defines a interface for operating on an output stream (example of a str...">
<polygon fill="white" stroke="#666666" points="209.5,-85 122.5,-85 122.5,-66 209.5,-66 209.5,-85"/>
<text text-anchor="middle" x="166" y="-73" font-family="Helvetica,sans-Serif" font-size="10.00">Kit::Io::IOutput</text>
</a>
</g>
</g>
<!-- Node3&#45;&gt;Node1 -->
<g id="edge2_Node000001_Node000003" class="edge">
<title>Node3&#45;&gt;Node1</title>
<g id="a_edge2_Node000001_Node000003"><a xlink:title=" ">
<path fill="none" stroke="#9a32cd" stroke-dasharray="5,2" d="M144.33,-60.35C125.07,-47.77 97.52,-29.78 81.32,-19.2"/>
<polygon fill="#9a32cd" stroke="#9a32cd" points="142.5,-63.33 152.78,-65.87 146.32,-57.47 142.5,-63.33"/>
</a>
</g>
<text text-anchor="middle" x="149.5" y="-40" font-family="Helvetica,sans-Serif" font-size="10.00" fill="grey"> m_stream</text>
</g>
<!-- Node4 -->
<g id="Node000004" class="node">
<title>Node4</title>
<g id="a_Node000004"><a xlink:href="class_kit_1_1_io_1_1_i_close.html" target="_top" xlink:title="This abstract class defines a close operation that is intended to be used Input and Output streams/fi...">
<polygon fill="white" stroke="#666666" points="159.5,-141 78.5,-141 78.5,-122 159.5,-122 159.5,-141"/>
<text text-anchor="middle" x="119" y="-129" font-family="Helvetica,sans-Serif" font-size="10.00">Kit::Io::IClose</text>
</a>
</g>
</g>
<!-- Node4&#45;&gt;Node3 -->
<g id="edge3_Node000003_Node000004" class="edge">
<title>Node4&#45;&gt;Node3</title>
<g id="a_edge3_Node000003_Node000004"><a xlink:title=" ">
<path fill="none" stroke="#63b8ff" d="M133.42,-113.93C141.66,-104.47 151.65,-92.98 158.38,-85.25"/>
<polygon fill="#63b8ff" stroke="#63b8ff" points="130.69,-111.74 126.76,-121.58 135.97,-116.34 130.69,-111.74"/>
</a>
</g>
</g>
<!-- Node5 -->
<g id="Node000005" class="node">
<title>Node5</title>
<g id="a_Node000005"><a xlink:href="class_kit_1_1_io_1_1_i_eos.html" target="_top" xlink:title="This abstract class defines a isEos() operation that is intended to be used Input and Output streams.">
<polygon fill="white" stroke="#666666" points="248.5,-141 177.5,-141 177.5,-122 248.5,-122 248.5,-141"/>
<text text-anchor="middle" x="213" y="-129" font-family="Helvetica,sans-Serif" font-size="10.00">Kit::Io::IEos</text>
</a>
</g>
</g>
<!-- Node5&#45;&gt;Node3 -->
<g id="edge4_Node000003_Node000005" class="edge">
<title>Node5&#45;&gt;Node3</title>
<g id="a_edge4_Node000003_Node000005"><a xlink:title=" ">
<path fill="none" stroke="#63b8ff" d="M198.58,-113.93C190.34,-104.47 180.35,-92.98 173.62,-85.25"/>
<polygon fill="#63b8ff" stroke="#63b8ff" points="196.03,-116.34 205.24,-121.58 201.31,-111.74 196.03,-116.34"/>
</a>
</g>
</g>
</g>
</svg>
