<?xml version="1.0" encoding="UTF-8" standalone="no"?>
<!DOCTYPE svg PUBLIC "-//W3C//DTD SVG 1.1//EN"
 "http://www.w3.org/Graphics/SVG/1.1/DTD/svg11.dtd">
<!-- Generated by graphviz version 2.43.0 (0)
 -->
<!-- Title: Kit::Framing::LineDecoderAllocate&lt; SIZE_OF_WORK_BUFFER &gt; Pages: 1 -->
<svg width="270pt" height="227pt"
 viewBox="0.00 0.00 269.50 227.00" xmlns="http://www.w3.org/2000/svg" xmlns:xlink="http://www.w3.org/1999/xlink">
<g id="graph0" class="graph" transform="scale(1 1) rotate(0) translate(4 223)">
<title>Kit::Framing::LineDecoderAllocate&lt; SIZE_OF_WORK_BUFFER &gt;</title>
<!-- Node1 -->
<g id="Node000001" class="node">
<title>Node1</title>
<g id="a_Node000001"><a xlink:title="This concrete convenience template class extends the LineDecoder to include allocating the work buffe...">
<polygon fill="#999999" stroke="#666666" points="204.5,-41 60.5,-41 60.5,0 204.5,0 204.5,-41"/>
<text text-anchor="start" x="68.5" y="-29" font-family="Helvetica,sans-Serif" font-size="10.00">Kit::Framing::LineDecoder</text>
<text text-anchor="start" x="68.5" y="-18" font-family="Helvetica,sans-Serif" font-size="10.00">Allocate&lt; SIZE_OF_WORK</text>
<text text-anchor="middle" x="132.5" y="-7" font-family="Helvetica,sans-Serif" font-size="10.00">_BUFFER &gt;</text>
</a>
</g>
</g>
<!-- Node2 -->
<g id="Node000002" class="node">
<title>Node2</title>
<g id="a_Node000002"><a xlink:href="class_kit_1_1_framing_1_1_line_decoder.html" target="_top" xlink:title="This concrete template class extends the DecoderReader where a frame consider one line of PRINTABLE A...">
<polygon fill="white" stroke="#666666" points="204,-97 61,-97 61,-78 204,-78 204,-97"/>
<text text-anchor="middle" x="132.5" y="-85" font-family="Helvetica,sans-Serif" font-size="10.00">Kit::Framing::LineDecoder</text>
</a>
</g>
</g>
<!-- Node2&#45;&gt;Node1 -->
<g id="edge1_Node000001_Node000002" class="edge">
<title>Node2&#45;&gt;Node1</title>
<g id="a_edge1_Node000001_Node000002"><a xlink:title=" ">
<path fill="none" stroke="#63b8ff" d="M132.5,-67.54C132.5,-59.21 132.5,-49.44 132.5,-41.04"/>
<polygon fill="#63b8ff" stroke="#63b8ff" points="129,-67.73 132.5,-77.73 136,-67.73 129,-67.73"/>
</a>
</g>
</g>
<!-- Node3 -->
<g id="Node000003" class="node">
<title>Node3</title>
<g id="a_Node000003"><a xlink:href="class_kit_1_1_framing_1_1_decoder_reader.html" target="_top" xlink:title="This concrete class implements the basic scanning/reading logic for a Decoder.">
<polygon fill="white" stroke="#666666" points="211,-153 54,-153 54,-134 211,-134 211,-153"/>
<text text-anchor="middle" x="132.5" y="-141" font-family="Helvetica,sans-Serif" font-size="10.00">Kit::Framing::DecoderReader</text>
</a>
</g>
</g>
<!-- Node3&#45;&gt;Node2 -->
<g id="edge2_Node000002_Node000003" class="edge">
<title>Node3&#45;&gt;Node2</title>
<g id="a_edge2_Node000002_Node000003"><a xlink:title=" ">
<path fill="none" stroke="#63b8ff" d="M132.5,-123.3C132.5,-114.41 132.5,-104.28 132.5,-97.25"/>
<polygon fill="#63b8ff" stroke="#63b8ff" points="129,-123.58 132.5,-133.58 136,-123.58 129,-123.58"/>
</a>
</g>
</g>
<!-- Node4 -->
<g id="Node000004" class="node">
<title>Node4</title>
<g id="a_Node000004"><a xlink:href="class_kit_1_1_framing_1_1_i_decoder.html" target="_top" xlink:title="This abstract class defines an interface for &#39;receiving&#39; (decoding) a frame.">
<polygon fill="white" stroke="#666666" points="125,-219 0,-219 0,-200 125,-200 125,-219"/>
<text text-anchor="middle" x="62.5" y="-207" font-family="Helvetica,sans-Serif" font-size="10.00">Kit::Framing::IDecoder</text>
</a>
</g>
</g>
<!-- Node4&#45;&gt;Node3 -->
<g id="edge3_Node000003_Node000004" class="edge">
<title>Node4&#45;&gt;Node3</title>
<g id="a_edge3_Node000003_Node000004"><a xlink:title=" ">
<path fill="none" stroke="#63b8ff" d="M79.64,-192.83C93.19,-180.44 111.63,-163.59 122.76,-153.41"/>
<polygon fill="#63b8ff" stroke="#63b8ff" points="76.96,-190.54 71.94,-199.87 81.68,-195.7 76.96,-190.54"/>
</a>
</g>
</g>
<!-- Node5 -->
<g id="Node000005" class="node">
<title>Node5</title>
<g id="a_Node000005"><a xlink:href="class_kit_1_1_framing_1_1_i_source.html" target="_top" xlink:title="This abstract class defines an interface of the input source for a Decoder instance.">
<polygon fill="white" stroke="#666666" points="261.5,-219 143.5,-219 143.5,-200 261.5,-200 261.5,-219"/>
<text text-anchor="middle" x="202.5" y="-207" font-family="Helvetica,sans-Serif" font-size="10.00">Kit::Framing::ISource</text>
</a>
</g>
</g>
<!-- Node5&#45;&gt;Node3 -->
<g id="edge4_Node000003_Node000005" class="edge">
<title>Node5&#45;&gt;Node3</title>
<g id="a_edge4_Node000003_Node000005"><a xlink:title=" ">
<path fill="none" stroke="#9a32cd" stroke-dasharray="5,2" d="M185.36,-192.83C171.81,-180.44 153.37,-163.59 142.24,-153.41"/>
<polygon fill="#9a32cd" stroke="#9a32cd" points="183.32,-195.7 193.06,-199.87 188.04,-190.54 183.32,-195.7"/>
</a>
</g>
<text text-anchor="middle" x="188" y="-174" font-family="Helvetica,sans-Serif" font-size="10.00" fill="grey"> m_src</text>
</g>
</g>
</svg>
