<?xml version="1.0" encoding="UTF-8" standalone="no"?>
<!DOCTYPE svg PUBLIC "-//W3C//DTD SVG 1.1//EN"
 "http://www.w3.org/Graphics/SVG/1.1/DTD/svg11.dtd">
<!-- Generated by graphviz version 2.43.0 (0)
 -->
<!-- Title: Kit::Persistence::Record::Chunk::Mirrored Pages: 1 -->
<svg width="140pt" height="170pt"
 viewBox="0.00 0.00 140.00 170.00" xmlns="http://www.w3.org/2000/svg" xmlns:xlink="http://www.w3.org/1999/xlink">
<g id="graph0" class="graph" transform="scale(1 1) rotate(0) translate(4 166)">
<title>Kit::Persistence::Record::Chunk::Mirrored</title>
<!-- Node1 -->
<g id="Node000001" class="node">
<title>Node1</title>
<g id="a_Node000001"><a xlink:title="This concrete class implements the IChunk interface by storing two copies of the Record&#39;s data,...">
<polygon fill="#999999" stroke="#666666" points="132,-30 0,-30 0,0 132,0 132,-30"/>
<text text-anchor="start" x="8" y="-18" font-family="Helvetica,sans-Serif" font-size="10.00">Kit::Persistence::Record</text>
<text text-anchor="middle" x="66" y="-7" font-family="Helvetica,sans-Serif" font-size="10.00">::Chunk::Mirrored</text>
</a>
</g>
</g>
<!-- Node2 -->
<g id="Node000002" class="node">
<title>Node2</title>
<g id="a_Node000002"><a xlink:href="class_kit_1_1_persistence_1_1_record_1_1_chunk_1_1_common.html" target="_top" xlink:title="This partial concrete class provides common implementations, utility methods, etc.">
<polygon fill="white" stroke="#666666" points="132,-96 0,-96 0,-66 132,-66 132,-96"/>
<text text-anchor="start" x="8" y="-84" font-family="Helvetica,sans-Serif" font-size="10.00">Kit::Persistence::Record</text>
<text text-anchor="middle" x="66" y="-73" font-family="Helvetica,sans-Serif" font-size="10.00">::Chunk::Common</text>
</a>
</g>
</g>
<!-- Node2&#45;&gt;Node1 -->
<g id="edge1_Node000001_Node000002" class="edge">
<title>Node2&#45;&gt;Node1</title>
<g id="a_edge1_Node000001_Node000002"><a xlink:title=" ">
<path fill="none" stroke="#63b8ff" d="M66,-55.54C66,-46.96 66,-37.61 66,-30.16"/>
<polygon fill="#63b8ff" stroke="#63b8ff" points="62.5,-55.8 66,-65.8 69.5,-55.8 62.5,-55.8"/>
</a>
</g>
</g>
<!-- Node3 -->
<g id="Node000003" class="node">
<title>Node3</title>
<g id="a_Node000003"><a xlink:href="class_kit_1_1_persistence_1_1_record_1_1_i_chunk.html" target="_top" xlink:title="This abstract class defines the interface for managing a &#39;chunk&#39;.">
<polygon fill="white" stroke="#666666" points="132,-162 0,-162 0,-132 132,-132 132,-162"/>
<text text-anchor="start" x="8" y="-150" font-family="Helvetica,sans-Serif" font-size="10.00">Kit::Persistence::Record</text>
<text text-anchor="middle" x="66" y="-139" font-family="Helvetica,sans-Serif" font-size="10.00">::IChunk</text>
</a>
</g>
</g>
<!-- Node3&#45;&gt;Node2 -->
<g id="edge2_Node000002_Node000003" class="edge">
<title>Node3&#45;&gt;Node2</title>
<g id="a_edge2_Node000002_Node000003"><a xlink:title=" ">
<path fill="none" stroke="#63b8ff" d="M66,-121.54C66,-112.96 66,-103.61 66,-96.16"/>
<polygon fill="#63b8ff" stroke="#63b8ff" points="62.5,-121.8 66,-131.8 69.5,-121.8 62.5,-121.8"/>
</a>
</g>
</g>
</g>
</svg>
