<?xml version="1.0" encoding="UTF-8" standalone="no"?>
<!DOCTYPE svg PUBLIC "-//W3C//DTD SVG 1.1//EN"
 "http://www.w3.org/Graphics/SVG/1.1/DTD/svg11.dtd">
<!-- Generated by graphviz version 2.43.0 (0)
 -->
<!-- Title: Itc::Synchronous::Server Pages: 1 -->
<svg width="1218pt" height="270pt"
 viewBox="0.00 0.00 1218.00 270.00" xmlns="http://www.w3.org/2000/svg" xmlns:xlink="http://www.w3.org/1999/xlink">
<g id="graph0" class="graph" transform="scale(1 1) rotate(0) translate(4 266)">
<title>Itc::Synchronous::Server</title>
<!-- Node1 -->
<g id="Node000001" class="node">
<title>Node1</title>
<g id="a_Node000001"><a xlink:title="This concrete class is a &#39;server&#39; that flashes the LED.">
<polygon fill="#999999" stroke="#666666" points="1210,-151 1076,-151 1076,-132 1210,-132 1210,-151"/>
<text text-anchor="middle" x="1143" y="-139" font-family="Helvetica,sans-Serif" font-size="10.00">Itc::Synchronous::Server</text>
</a>
</g>
</g>
<!-- Node2 -->
<g id="Node000002" class="node">
<title>Node2</title>
<g id="a_Node000002"><a xlink:href="class_itc_1_1_synchronous_1_1_rate_sync.html" target="_top" xlink:title="This partially concrete class provides the synchronous semantics for ITC IRateRequest message,...">
<polygon fill="white" stroke="#666666" points="790,-225 641,-225 641,-206 790,-206 790,-225"/>
<text text-anchor="middle" x="715.5" y="-213" font-family="Helvetica,sans-Serif" font-size="10.00">Itc::Synchronous::RateSync</text>
</a>
</g>
</g>
<!-- Node2&#45;&gt;Node1 -->
<g id="edge1_Node000001_Node000002" class="edge">
<title>Node2&#45;&gt;Node1</title>
<g id="a_edge1_Node000001_Node000002"><a xlink:title=" ">
<path fill="none" stroke="#63b8ff" d="M783.79,-204.3C849.06,-193.36 950.88,-176.14 1039,-160.5 1056.01,-157.48 1074.58,-154.09 1091.21,-151.01"/>
<polygon fill="#63b8ff" stroke="#63b8ff" points="782.92,-200.89 773.63,-206 784.07,-207.8 782.92,-200.89"/>
</a>
</g>
</g>
<!-- Node3 -->
<g id="Node000003" class="node">
<title>Node3</title>
<g id="a_Node000003"><a xlink:href="class_itc_1_1_synchronous_1_1_i_rate_request.html" target="_top" xlink:title="This abstract class define message types and payloads for a set of ITC services.">
<polygon fill="white" stroke="#666666" points="527,-262 359,-262 359,-243 527,-243 527,-262"/>
<text text-anchor="middle" x="443" y="-250" font-family="Helvetica,sans-Serif" font-size="10.00">Itc::Synchronous::IRateRequest</text>
</a>
</g>
</g>
<!-- Node3&#45;&gt;Node2 -->
<g id="edge2_Node000002_Node000003" class="edge">
<title>Node3&#45;&gt;Node2</title>
<g id="a_edge2_Node000002_Node000003"><a xlink:title=" ">
<path fill="none" stroke="#63b8ff" d="M531.31,-241.71C560.49,-237.99 593.16,-233.7 623,-229.5 632.87,-228.11 643.32,-226.57 653.5,-225.04"/>
<polygon fill="#63b8ff" stroke="#63b8ff" points="530.63,-238.27 521.15,-243 531.51,-245.21 530.63,-238.27"/>
</a>
</g>
</g>
<!-- Node4 -->
<g id="Node000004" class="node">
<title>Node4</title>
<g id="a_Node000004"><a xlink:href="class_itc_1_1_synchronous_1_1_i_rate.html" target="_top" xlink:title="This abstract class defines the interface for setting the application&#39;s LED flash rate.">
<polygon fill="white" stroke="#666666" points="507,-225 379,-225 379,-206 507,-206 507,-225"/>
<text text-anchor="middle" x="443" y="-213" font-family="Helvetica,sans-Serif" font-size="10.00">Itc::Synchronous::IRate</text>
</a>
</g>
</g>
<!-- Node4&#45;&gt;Node2 -->
<g id="edge3_Node000002_Node000004" class="edge">
<title>Node4&#45;&gt;Node2</title>
<g id="a_edge3_Node000002_Node000004"><a xlink:title=" ">
<path fill="none" stroke="#63b8ff" d="M517.14,-215.5C555.48,-215.5 602.33,-215.5 640.76,-215.5"/>
<polygon fill="#63b8ff" stroke="#63b8ff" points="517.08,-212 507.08,-215.5 517.08,-219 517.08,-212"/>
</a>
</g>
</g>
<!-- Node5 -->
<g id="Node000005" class="node">
<title>Node5</title>
<g id="a_Node000005"><a xlink:href="class_kit_1_1_event_queue_1_1_i_queue.html" target="_top" xlink:title="This abstract class represents an Event Queue where events can be delivered to.">
<polygon fill="white" stroke="#666666" points="511,-181 375,-181 375,-162 511,-162 511,-181"/>
<text text-anchor="middle" x="443" y="-169" font-family="Helvetica,sans-Serif" font-size="10.00">Kit::EventQueue::IQueue</text>
</a>
</g>
</g>
<!-- Node5&#45;&gt;Node2 -->
<g id="edge4_Node000002_Node000005" class="edge">
<title>Node5&#45;&gt;Node2</title>
<g id="a_edge4_Node000002_Node000005"><a xlink:title=" ">
<path fill="none" stroke="#9a32cd" stroke-dasharray="5,2" d="M512.94,-182.64C546.2,-188.02 586.68,-194.58 623,-200.5 633.8,-202.26 645.32,-204.14 656.42,-205.96"/>
<polygon fill="#9a32cd" stroke="#9a32cd" points="513.29,-179.15 502.86,-181.01 512.17,-186.06 513.29,-179.15"/>
</a>
</g>
<text text-anchor="middle" x="584" y="-203.5" font-family="Helvetica,sans-Serif" font-size="10.00" fill="grey"> m_eventQueue</text>
</g>
<!-- Node14 -->
<g id="Node000014" class="node">
<title>Node14</title>
<g id="a_Node000014"><a xlink:href="class_kit_1_1_itc_1_1_open_sync.html" target="_top" xlink:title="This partially concrete class implements the synchronous ITC open call for the OpenApi.">
<polygon fill="white" stroke="#666666" points="767,-114 664,-114 664,-95 767,-95 767,-114"/>
<text text-anchor="middle" x="715.5" y="-102" font-family="Helvetica,sans-Serif" font-size="10.00">Kit::Itc::OpenSync</text>
</a>
</g>
</g>
<!-- Node5&#45;&gt;Node14 -->
<g id="edge18_Node000014_Node000005" class="edge">
<title>Node5&#45;&gt;Node14</title>
<g id="a_edge18_Node000014_Node000005"><a xlink:title=" ">
<path fill="none" stroke="#9a32cd" stroke-dasharray="5,2" d="M500.06,-159.72C535.52,-151.94 582.19,-141.06 623,-129.5 631.11,-127.2 632.91,-125.89 641,-123.5 652.12,-120.21 664.28,-116.94 675.45,-114.06"/>
<polygon fill="#9a32cd" stroke="#9a32cd" points="498.94,-156.39 489.91,-161.94 500.43,-163.23 498.94,-156.39"/>
</a>
</g>
<text text-anchor="middle" x="584" y="-150.5" font-family="Helvetica,sans-Serif" font-size="10.00" fill="grey"> m_eventQueue</text>
</g>
<!-- Node6 -->
<g id="Node000006" class="node">
<title>Node6</title>
<g id="a_Node000006"><a xlink:title=" ">
<polygon fill="white" stroke="#bfbfbf" points="322,-186.5 149,-186.5 149,-156.5 322,-156.5 322,-186.5"/>
<text text-anchor="start" x="157" y="-174.5" font-family="Helvetica,sans-Serif" font-size="10.00">KIT_EVENT_QUEUE_SUPPORTED</text>
<text text-anchor="middle" x="235.5" y="-163.5" font-family="Helvetica,sans-Serif" font-size="10.00">_EVENT_TYPES</text>
</a>
</g>
</g>
<!-- Node6&#45;&gt;Node5 -->
<g id="edge5_Node000005_Node000006" class="edge">
<title>Node6&#45;&gt;Node5</title>
<g id="a_edge5_Node000005_Node000006"><a xlink:title=" ">
<path fill="none" stroke="#8b1a1a" d="M332.55,-171.5C346.88,-171.5 361.38,-171.5 374.94,-171.5"/>
<polygon fill="#8b1a1a" stroke="#8b1a1a" points="332.16,-168 322.16,-171.5 332.16,-175 332.16,-168"/>
</a>
</g>
</g>
<!-- Node7 -->
<g id="Node000007" class="node">
<title>Node7</title>
<g id="a_Node000007"><a xlink:href="class_kit_1_1_system_1_1_timer.html" target="_top" xlink:title="This mostly concrete interface defines the operations that can be performed on a software timer.">
<polygon fill="white" stroke="#666666" points="1027.5,-56 920.5,-56 920.5,-37 1027.5,-37 1027.5,-56"/>
<text text-anchor="middle" x="974" y="-44" font-family="Helvetica,sans-Serif" font-size="10.00">Kit::System::Timer</text>
</a>
</g>
</g>
<!-- Node7&#45;&gt;Node1 -->
<g id="edge6_Node000001_Node000007" class="edge">
<title>Node7&#45;&gt;Node1</title>
<g id="a_edge6_Node000001_Node000007"><a xlink:title=" ">
<path fill="none" stroke="#63b8ff" d="M1000.96,-61.27C1035.53,-80.93 1095.73,-115.18 1125.02,-131.84"/>
<polygon fill="#63b8ff" stroke="#63b8ff" points="1002.35,-58.03 991.93,-56.13 998.89,-64.12 1002.35,-58.03"/>
</a>
</g>
</g>
<!-- Node8 -->
<g id="Node000008" class="node">
<title>Node8</title>
<g id="a_Node000008"><a xlink:href="class_kit_1_1_system_1_1_i_counter.html" target="_top" xlink:title="This abstract class defines the call&#45;back interface for a Counter object.">
<polygon fill="white" stroke="#666666" points="775.5,-56 655.5,-56 655.5,-37 775.5,-37 775.5,-56"/>
<text text-anchor="middle" x="715.5" y="-44" font-family="Helvetica,sans-Serif" font-size="10.00">Kit::System::ICounter</text>
</a>
</g>
</g>
<!-- Node8&#45;&gt;Node7 -->
<g id="edge7_Node000007_Node000008" class="edge">
<title>Node8&#45;&gt;Node7</title>
<g id="a_edge7_Node000007_Node000008"><a xlink:title=" ">
<path fill="none" stroke="#63b8ff" d="M785.89,-46.5C828.18,-46.5 881.38,-46.5 920.23,-46.5"/>
<polygon fill="#63b8ff" stroke="#63b8ff" points="785.67,-43 775.67,-46.5 785.67,-50 785.67,-43"/>
</a>
</g>
</g>
<!-- Node9 -->
<g id="Node000009" class="node">
<title>Node9</title>
<g id="a_Node000009"><a xlink:href="class_kit_1_1_container_1_1_extended_list_item.html" target="_top" xlink:title="This class is used by the Container classes to implement a various types of DOUBLY linked containers.">
<polygon fill="white" stroke="#666666" points="510.5,-34.5 375.5,-34.5 375.5,-4.5 510.5,-4.5 510.5,-34.5"/>
<text text-anchor="start" x="383.5" y="-22.5" font-family="Helvetica,sans-Serif" font-size="10.00">Kit::Container::Extended</text>
<text text-anchor="middle" x="443" y="-11.5" font-family="Helvetica,sans-Serif" font-size="10.00">ListItem</text>
</a>
</g>
</g>
<!-- Node9&#45;&gt;Node8 -->
<g id="edge8_Node000008_Node000009" class="edge">
<title>Node9&#45;&gt;Node8</title>
<g id="a_edge8_Node000008_Node000009"><a xlink:title=" ">
<path fill="none" stroke="#63b8ff" d="M520.58,-27.14C563.26,-31.4 615.61,-36.63 655.15,-40.58"/>
<polygon fill="#63b8ff" stroke="#63b8ff" points="520.82,-23.65 510.52,-26.14 520.12,-30.62 520.82,-23.65"/>
</a>
</g>
</g>
<!-- Node9&#45;&gt;Node9 -->
<g id="edge12_Node000009_Node000009" class="edge">
<title>Node9&#45;&gt;Node9</title>
<g id="a_edge12_Node000009_Node000009"><a xlink:title=" ">
<path fill="none" stroke="#9a32cd" stroke-dasharray="5,2" d="M425.15,-45.1C427.59,-49.47 433.54,-52.5 443,-52.5 458.94,-52.5 464.91,-43.91 460.93,-34.78"/>
<polygon fill="#9a32cd" stroke="#9a32cd" points="428.64,-44.75 425.07,-34.78 421.64,-44.8 428.64,-44.75"/>
</a>
</g>
<text text-anchor="middle" x="443" y="-55.5" font-family="Helvetica,sans-Serif" font-size="10.00" fill="grey"> m_prevPtr_</text>
</g>
<!-- Node10 -->
<g id="Node000010" class="node">
<title>Node10</title>
<g id="a_Node000010"><a xlink:href="class_kit_1_1_container_1_1_list_item.html" target="_top" xlink:title="This class is used by the Container classes to implement a various types of linked lists containers.">
<polygon fill="white" stroke="#666666" points="300,-29 171,-29 171,-10 300,-10 300,-29"/>
<text text-anchor="middle" x="235.5" y="-17" font-family="Helvetica,sans-Serif" font-size="10.00">Kit::Container::ListItem</text>
</a>
</g>
</g>
<!-- Node10&#45;&gt;Node9 -->
<g id="edge9_Node000009_Node000010" class="edge">
<title>Node10&#45;&gt;Node9</title>
<g id="a_edge9_Node000009_Node000010"><a xlink:title=" ">
<path fill="none" stroke="#63b8ff" d="M310.39,-19.5C331.65,-19.5 354.7,-19.5 375.49,-19.5"/>
<polygon fill="#63b8ff" stroke="#63b8ff" points="310.11,-16 300.11,-19.5 310.11,-23 310.11,-16"/>
</a>
</g>
</g>
<!-- Node10&#45;&gt;Node10 -->
<g id="edge11_Node000010_Node000010" class="edge">
<title>Node10&#45;&gt;Node10</title>
<g id="a_edge11_Node000010_Node000010"><a xlink:title=" ">
<path fill="none" stroke="#9a32cd" stroke-dasharray="5,2" d="M216.24,-38.55C217.53,-43.38 223.95,-47 235.5,-47 253.98,-47 259.33,-37.73 251.53,-29.08"/>
<polygon fill="#9a32cd" stroke="#9a32cd" points="219.56,-39.68 219.47,-29.08 212.93,-37.42 219.56,-39.68"/>
</a>
</g>
<text text-anchor="middle" x="235.5" y="-50" font-family="Helvetica,sans-Serif" font-size="10.00" fill="grey"> m_nextPtr_</text>
</g>
<!-- Node11 -->
<g id="Node000011" class="node">
<title>Node11</title>
<g id="a_Node000011"><a xlink:href="class_kit_1_1_container_1_1_item.html" target="_top" xlink:title="This class is used by the Intrusive Container classes to enforce the semantic and item/element can be...">
<polygon fill="white" stroke="#666666" points="112,-29 0,-29 0,-10 112,-10 112,-29"/>
<text text-anchor="middle" x="56" y="-17" font-family="Helvetica,sans-Serif" font-size="10.00">Kit::Container::Item</text>
</a>
</g>
</g>
<!-- Node11&#45;&gt;Node10 -->
<g id="edge10_Node000010_Node000011" class="edge">
<title>Node11&#45;&gt;Node10</title>
<g id="a_edge10_Node000010_Node000011"><a xlink:title=" ">
<path fill="none" stroke="#63b8ff" d="M122.43,-19.5C138.28,-19.5 155.2,-19.5 170.96,-19.5"/>
<polygon fill="#63b8ff" stroke="#63b8ff" points="122.19,-16 112.19,-19.5 122.19,-23 122.19,-16"/>
</a>
</g>
</g>
<!-- Node12 -->
<g id="Node000012" class="node">
<title>Node12</title>
<g id="a_Node000012"><a xlink:href="class_kit_1_1_system_1_1_i_timing_source.html" target="_top" xlink:title="This abstract class defines the interface for a timing source.">
<polygon fill="white" stroke="#666666" points="790,-19 641,-19 641,0 790,0 790,-19"/>
<text text-anchor="middle" x="715.5" y="-7" font-family="Helvetica,sans-Serif" font-size="10.00">Kit::System::ITimingSource</text>
</a>
</g>
</g>
<!-- Node12&#45;&gt;Node7 -->
<g id="edge13_Node000007_Node000012" class="edge">
<title>Node12&#45;&gt;Node7</title>
<g id="a_edge13_Node000007_Node000012"><a xlink:title=" ">
<path fill="none" stroke="#9a32cd" stroke-dasharray="5,2" d="M800.11,-19.08C828.95,-22.64 861.44,-26.94 891,-31.5 901.44,-33.11 912.6,-35.02 923.21,-36.93"/>
<polygon fill="#9a32cd" stroke="#9a32cd" points="800.42,-15.6 790.07,-17.86 799.57,-22.54 800.42,-15.6"/>
</a>
</g>
<text text-anchor="middle" x="849.5" y="-34.5" font-family="Helvetica,sans-Serif" font-size="10.00" fill="grey"> m_timingSource</text>
</g>
<!-- Node13 -->
<g id="Node000013" class="node">
<title>Node13</title>
<g id="a_Node000013"><a xlink:href="class_kit_1_1_itc_1_1_open_close_sync.html" target="_top" xlink:title="This partially concrete class extends the ITC OpenSync class and implements the synchronous ITC close...">
<polygon fill="white" stroke="#666666" points="1039,-151 909,-151 909,-132 1039,-132 1039,-151"/>
<text text-anchor="middle" x="974" y="-139" font-family="Helvetica,sans-Serif" font-size="10.00">Kit::Itc::OpenCloseSync</text>
</a>
</g>
</g>
<!-- Node13&#45;&gt;Node1 -->
<g id="edge14_Node000001_Node000013" class="edge">
<title>Node13&#45;&gt;Node1</title>
<g id="a_edge14_Node000001_Node000013"><a xlink:title=" ">
<path fill="none" stroke="#63b8ff" d="M1049.37,-141.5C1058.2,-141.5 1067.17,-141.5 1075.87,-141.5"/>
<polygon fill="#63b8ff" stroke="#63b8ff" points="1049.09,-138 1039.09,-141.5 1049.09,-145 1049.09,-138"/>
</a>
</g>
</g>
<!-- Node14&#45;&gt;Node13 -->
<g id="edge15_Node000013_Node000014" class="edge">
<title>Node14&#45;&gt;Node13</title>
<g id="a_edge15_Node000013_Node000014"><a xlink:title=" ">
<path fill="none" stroke="#63b8ff" d="M777.23,-113.26C816.84,-118.97 868.46,-126.42 908.76,-132.23"/>
<polygon fill="#63b8ff" stroke="#63b8ff" points="777.57,-109.77 767.18,-111.81 776.57,-116.7 777.57,-109.77"/>
</a>
</g>
</g>
<!-- Node15 -->
<g id="Node000015" class="node">
<title>Node15</title>
<g id="a_Node000015"><a xlink:href="class_kit_1_1_itc_1_1_i_open_request.html" target="_top" xlink:title="This abstract class define message types and payloads for a set of ITC services.">
<polygon fill="white" stroke="#666666" points="504,-138 382,-138 382,-119 504,-119 504,-138"/>
<text text-anchor="middle" x="443" y="-126" font-family="Helvetica,sans-Serif" font-size="10.00">Kit::Itc::IOpenRequest</text>
</a>
</g>
</g>
<!-- Node15&#45;&gt;Node14 -->
<g id="edge16_Node000014_Node000015" class="edge">
<title>Node15&#45;&gt;Node14</title>
<g id="a_edge16_Node000014_Node000015"><a xlink:title=" ">
<path fill="none" stroke="#63b8ff" d="M514.11,-122.28C560.96,-118.12 621.5,-112.75 663.72,-109.01"/>
<polygon fill="#63b8ff" stroke="#63b8ff" points="513.68,-118.8 504.03,-123.17 514.3,-125.78 513.68,-118.8"/>
</a>
</g>
</g>
<!-- Node16 -->
<g id="Node000016" class="node">
<title>Node16</title>
<g id="a_Node000016"><a xlink:href="class_kit_1_1_itc_1_1_i_open.html" target="_top" xlink:title="This abstract class defines an open interface.">
<polygon fill="white" stroke="#666666" points="484.5,-101 401.5,-101 401.5,-82 484.5,-82 484.5,-101"/>
<text text-anchor="middle" x="443" y="-89" font-family="Helvetica,sans-Serif" font-size="10.00">Kit::Itc::IOpen</text>
</a>
</g>
</g>
<!-- Node16&#45;&gt;Node14 -->
<g id="edge17_Node000014_Node000016" class="edge">
<title>Node16&#45;&gt;Node14</title>
<g id="a_edge17_Node000014_Node000016"><a xlink:title=" ">
<path fill="none" stroke="#63b8ff" d="M495.02,-93.95C543.32,-96.27 615.43,-99.74 663.67,-102.06"/>
<polygon fill="#63b8ff" stroke="#63b8ff" points="494.95,-90.44 484.79,-93.46 494.61,-97.44 494.95,-90.44"/>
</a>
</g>
</g>
<!-- Node17 -->
<g id="Node000017" class="node">
<title>Node17</title>
<g id="a_Node000017"><a xlink:href="class_kit_1_1_itc_1_1_i_close_request.html" target="_top" xlink:title="This abstract class defines message types and payloads for a set of ITC services.">
<polygon fill="white" stroke="#666666" points="777.5,-188 653.5,-188 653.5,-169 777.5,-169 777.5,-188"/>
<text text-anchor="middle" x="715.5" y="-176" font-family="Helvetica,sans-Serif" font-size="10.00">Kit::Itc::ICloseRequest</text>
</a>
</g>
</g>
<!-- Node17&#45;&gt;Node13 -->
<g id="edge19_Node000013_Node000017" class="edge">
<title>Node17&#45;&gt;Node13</title>
<g id="a_edge19_Node000013_Node000017"><a xlink:title=" ">
<path fill="none" stroke="#63b8ff" d="M787.61,-169.75C819.3,-165.69 857.06,-160.63 891,-155.5 900,-154.14 909.53,-152.6 918.79,-151.05"/>
<polygon fill="#63b8ff" stroke="#63b8ff" points="787.03,-166.3 777.55,-171.03 787.91,-173.24 787.03,-166.3"/>
</a>
</g>
</g>
<!-- Node18 -->
<g id="Node000018" class="node">
<title>Node18</title>
<g id="a_Node000018"><a xlink:href="class_kit_1_1_itc_1_1_i_close.html" target="_top" xlink:title="This abstract class defines an close interface.">
<polygon fill="white" stroke="#666666" points="757.5,-151 673.5,-151 673.5,-132 757.5,-132 757.5,-151"/>
<text text-anchor="middle" x="715.5" y="-139" font-family="Helvetica,sans-Serif" font-size="10.00">Kit::Itc::IClose</text>
</a>
</g>
</g>
<!-- Node18&#45;&gt;Node13 -->
<g id="edge20_Node000013_Node000018" class="edge">
<title>Node18&#45;&gt;Node13</title>
<g id="a_edge20_Node000013_Node000018"><a xlink:title=" ">
<path fill="none" stroke="#63b8ff" d="M767.92,-141.5C808.49,-141.5 865.31,-141.5 908.85,-141.5"/>
<polygon fill="#63b8ff" stroke="#63b8ff" points="767.71,-138 757.71,-141.5 767.71,-145 767.71,-138"/>
</a>
</g>
</g>
</g>
</svg>
