<?xml version="1.0" encoding="UTF-8" standalone="no"?>
<!DOCTYPE svg PUBLIC "-//W3C//DTD SVG 1.1//EN"
 "http://www.w3.org/Graphics/SVG/1.1/DTD/svg11.dtd">
<!-- Generated by graphviz version 2.43.0 (0)
 -->
<!-- Title: Kit::Dm::Mp::ArrayFloat&lt; N &gt; Pages: 1 -->
<svg width="298pt" height="529pt"
 viewBox="0.00 0.00 298.00 529.00" xmlns="http://www.w3.org/2000/svg" xmlns:xlink="http://www.w3.org/1999/xlink">
<g id="graph0" class="graph" transform="scale(1 1) rotate(0) translate(4 525)">
<title>Kit::Dm::Mp::ArrayFloat&lt; N &gt;</title>
<!-- Node1 -->
<g id="Node000001" class="node">
<title>Node1</title>
<g id="a_Node000001"><a xlink:title="float ArrayBase">
<polygon fill="#999999" stroke="#666666" points="161,-19 0,-19 0,0 161,0 161,-19"/>
<text text-anchor="middle" x="80.5" y="-7" font-family="Helvetica,sans-Serif" font-size="10.00">Kit::Dm::Mp::ArrayFloat&lt; N &gt;</text>
</a>
</g>
</g>
<!-- Node2 -->
<g id="Node000002" class="node">
<title>Node2</title>
<g id="a_Node000002"><a xlink:href="class_kit_1_1_dm_1_1_mp_1_1_numeric_array.html" target="_top" xlink:title=" ">
<polygon fill="white" stroke="#666666" points="161,-86 0,-86 0,-56 161,-56 161,-86"/>
<text text-anchor="start" x="8" y="-74" font-family="Helvetica,sans-Serif" font-size="10.00">Kit::Dm::Mp::NumericArray</text>
<text text-anchor="middle" x="80.5" y="-63" font-family="Helvetica,sans-Serif" font-size="10.00">&lt; float, N, ArrayFloat&lt; N &gt; &gt;</text>
</a>
</g>
</g>
<!-- Node2&#45;&gt;Node1 -->
<g id="edge1_Node000001_Node000002" class="edge">
<title>Node2&#45;&gt;Node1</title>
<g id="a_edge1_Node000001_Node000002"><a xlink:title=" ">
<path fill="none" stroke="#63b8ff" d="M80.5,-45.79C80.5,-36.36 80.5,-26.15 80.5,-19.16"/>
<polygon fill="#63b8ff" stroke="#63b8ff" points="77,-45.9 80.5,-55.9 84,-45.9 77,-45.9"/>
</a>
</g>
</g>
<!-- Node3 -->
<g id="Node000003" class="node">
<title>Node3</title>
<g id="a_Node000003"><a xlink:href="class_kit_1_1_dm_1_1_mp_1_1_array_base.html" target="_top" xlink:title="This a mostly concrete class provides &#39;common&#39; implementation for a Model Point who&#39;s data is a array...">
<polygon fill="white" stroke="#666666" points="142,-230 11,-230 11,-211 142,-211 142,-230"/>
<text text-anchor="middle" x="76.5" y="-218" font-family="Helvetica,sans-Serif" font-size="10.00">Kit::Dm::Mp::ArrayBase</text>
</a>
</g>
</g>
<!-- Node3&#45;&gt;Node2 -->
<g id="edge2_Node000002_Node000003" class="edge">
<title>Node3&#45;&gt;Node2</title>
<g id="a_edge2_Node000002_Node000003"><a xlink:title=" ">
<path fill="none" stroke="#63b8ff" d="M77.02,-200.36C77.83,-170.39 79.39,-113.06 80.11,-86.35"/>
<polygon fill="#63b8ff" stroke="#63b8ff" points="73.51,-200.62 76.74,-210.71 80.51,-200.81 73.51,-200.62"/>
</a>
</g>
</g>
<!-- Node9 -->
<g id="Node000009" class="node">
<title>Node9</title>
<g id="a_Node000009"><a xlink:href="class_kit_1_1_dm_1_1_mp_1_1_numeric_array.html" target="_top" xlink:title="This template class extends the implementation of ArrayBase for arrays of numeric types (e....">
<polygon fill="white" stroke="#666666" points="290,-174 93,-174 93,-144 290,-144 290,-174"/>
<text text-anchor="start" x="101" y="-162" font-family="Helvetica,sans-Serif" font-size="10.00">Kit::Dm::Mp::NumericArray</text>
<text text-anchor="middle" x="191.5" y="-151" font-family="Helvetica,sans-Serif" font-size="10.00">&lt; ELEMTYPE, NUMELEMS, MPTYPE &gt;</text>
</a>
</g>
</g>
<!-- Node3&#45;&gt;Node9 -->
<g id="edge9_Node000009_Node000003" class="edge">
<title>Node3&#45;&gt;Node9</title>
<g id="a_edge9_Node000009_Node000003"><a xlink:title=" ">
<path fill="none" stroke="#63b8ff" d="M102,-206.31C120.51,-196.73 145.52,-183.79 164.4,-174.02"/>
<polygon fill="#63b8ff" stroke="#63b8ff" points="100.25,-203.27 92.98,-210.98 103.47,-209.49 100.25,-203.27"/>
</a>
</g>
</g>
<!-- Node4 -->
<g id="Node000004" class="node">
<title>Node4</title>
<g id="a_Node000004"><a xlink:href="class_kit_1_1_dm_1_1_model_point_base.html" target="_top" xlink:title="This concrete class provide common infrastructure for a Model Point.">
<polygon fill="white" stroke="#666666" points="145.5,-286 7.5,-286 7.5,-267 145.5,-267 145.5,-286"/>
<text text-anchor="middle" x="76.5" y="-274" font-family="Helvetica,sans-Serif" font-size="10.00">Kit::Dm::ModelPointBase</text>
</a>
</g>
</g>
<!-- Node4&#45;&gt;Node3 -->
<g id="edge3_Node000003_Node000004" class="edge">
<title>Node4&#45;&gt;Node3</title>
<g id="a_edge3_Node000003_Node000004"><a xlink:title=" ">
<path fill="none" stroke="#63b8ff" d="M76.5,-256.3C76.5,-247.41 76.5,-237.28 76.5,-230.25"/>
<polygon fill="#63b8ff" stroke="#63b8ff" points="73,-256.58 76.5,-266.58 80,-256.58 73,-256.58"/>
</a>
</g>
</g>
<!-- Node5 -->
<g id="Node000005" class="node">
<title>Node5</title>
<g id="a_Node000005"><a xlink:href="class_kit_1_1_dm_1_1_i_model_point.html" target="_top" xlink:title="This mostly abstract class defines the interface for a Model Point.">
<polygon fill="white" stroke="#666666" points="135,-342 18,-342 18,-323 135,-323 135,-342"/>
<text text-anchor="middle" x="76.5" y="-330" font-family="Helvetica,sans-Serif" font-size="10.00">Kit::Dm::IModelPoint</text>
</a>
</g>
</g>
<!-- Node5&#45;&gt;Node4 -->
<g id="edge4_Node000004_Node000005" class="edge">
<title>Node5&#45;&gt;Node4</title>
<g id="a_edge4_Node000004_Node000005"><a xlink:title=" ">
<path fill="none" stroke="#63b8ff" d="M76.5,-312.3C76.5,-303.41 76.5,-293.28 76.5,-286.25"/>
<polygon fill="#63b8ff" stroke="#63b8ff" points="73,-312.58 76.5,-322.58 80,-312.58 73,-312.58"/>
</a>
</g>
</g>
<!-- Node6 -->
<g id="Node000006" class="node">
<title>Node6</title>
<g id="a_Node000006"><a xlink:href="class_kit_1_1_container_1_1_extended_list_item.html" target="_top" xlink:title="This class is used by the Container classes to implement a various types of DOUBLY linked containers.">
<polygon fill="white" stroke="#666666" points="144,-409 9,-409 9,-379 144,-379 144,-409"/>
<text text-anchor="start" x="17" y="-397" font-family="Helvetica,sans-Serif" font-size="10.00">Kit::Container::Extended</text>
<text text-anchor="middle" x="76.5" y="-386" font-family="Helvetica,sans-Serif" font-size="10.00">ListItem</text>
</a>
</g>
</g>
<!-- Node6&#45;&gt;Node5 -->
<g id="edge5_Node000005_Node000006" class="edge">
<title>Node6&#45;&gt;Node5</title>
<g id="a_edge5_Node000005_Node000006"><a xlink:title=" ">
<path fill="none" stroke="#63b8ff" d="M76.5,-368.79C76.5,-359.36 76.5,-349.15 76.5,-342.16"/>
<polygon fill="#63b8ff" stroke="#63b8ff" points="73,-368.9 76.5,-378.9 80,-368.9 73,-368.9"/>
</a>
</g>
</g>
<!-- Node7 -->
<g id="Node000007" class="node">
<title>Node7</title>
<g id="a_Node000007"><a xlink:href="class_kit_1_1_container_1_1_list_item.html" target="_top" xlink:title="This class is used by the Container classes to implement a various types of linked lists containers.">
<polygon fill="white" stroke="#666666" points="141,-465 12,-465 12,-446 141,-446 141,-465"/>
<text text-anchor="middle" x="76.5" y="-453" font-family="Helvetica,sans-Serif" font-size="10.00">Kit::Container::ListItem</text>
</a>
</g>
</g>
<!-- Node7&#45;&gt;Node6 -->
<g id="edge6_Node000006_Node000007" class="edge">
<title>Node7&#45;&gt;Node6</title>
<g id="a_edge6_Node000006_Node000007"><a xlink:title=" ">
<path fill="none" stroke="#63b8ff" d="M76.5,-435.73C76.5,-427.09 76.5,-417 76.5,-409.02"/>
<polygon fill="#63b8ff" stroke="#63b8ff" points="73,-435.98 76.5,-445.98 80,-435.98 73,-435.98"/>
</a>
</g>
</g>
<!-- Node8 -->
<g id="Node000008" class="node">
<title>Node8</title>
<g id="a_Node000008"><a xlink:href="class_kit_1_1_container_1_1_item.html" target="_top" xlink:title="This class is used by the Intrusive Container classes to enforce the semantic and item/element can be...">
<polygon fill="white" stroke="#666666" points="132.5,-521 20.5,-521 20.5,-502 132.5,-502 132.5,-521"/>
<text text-anchor="middle" x="76.5" y="-509" font-family="Helvetica,sans-Serif" font-size="10.00">Kit::Container::Item</text>
</a>
</g>
</g>
<!-- Node8&#45;&gt;Node7 -->
<g id="edge7_Node000007_Node000008" class="edge">
<title>Node8&#45;&gt;Node7</title>
<g id="a_edge7_Node000007_Node000008"><a xlink:title=" ">
<path fill="none" stroke="#63b8ff" d="M76.5,-491.3C76.5,-482.41 76.5,-472.28 76.5,-465.25"/>
<polygon fill="#63b8ff" stroke="#63b8ff" points="73,-491.58 76.5,-501.58 80,-491.58 73,-491.58"/>
</a>
</g>
</g>
<!-- Node9&#45;&gt;Node2 -->
<g id="edge8_Node000002_Node000009" class="edge">
<title>Node9&#45;&gt;Node2</title>
<g id="a_edge8_Node000002_Node000009"><a xlink:title=" ">
<path fill="none" stroke="orange" stroke-dasharray="5,2" d="M165.19,-137.62C144.76,-121.78 116.94,-100.23 98.86,-86.22"/>
<polygon fill="orange" stroke="orange" points="163.12,-140.44 173.17,-143.8 167.41,-134.91 163.12,-140.44"/>
</a>
</g>
<text text-anchor="start" x="148.5" y="-118" font-family="Helvetica,sans-Serif" font-size="10.00" fill="grey"> &lt; float, N, ArrayFloat</text>
<text text-anchor="middle" x="202" y="-107" font-family="Helvetica,sans-Serif" font-size="10.00" fill="grey">&lt; N &gt; &gt;</text>
</g>
</g>
</svg>
