<?xml version="1.0" encoding="UTF-8" standalone="no"?>
<!DOCTYPE svg PUBLIC "-//W3C//DTD SVG 1.1//EN"
 "http://www.w3.org/Graphics/SVG/1.1/DTD/svg11.dtd">
<!-- Generated by graphviz version 2.43.0 (0)
 -->
<!-- Title: Kit::Framing::DecoderReader Pages: 1 -->
<svg width="165pt" height="214pt"
 viewBox="0.00 0.00 165.00 214.00" xmlns="http://www.w3.org/2000/svg" xmlns:xlink="http://www.w3.org/1999/xlink">
<g id="graph0" class="graph" transform="scale(1 1) rotate(0) translate(4 210)">
<title>Kit::Framing::DecoderReader</title>
<!-- Node1 -->
<g id="Node000001" class="node">
<title>Node1</title>
<g id="a_Node000001"><a xlink:title="This concrete class implements the basic scanning/reading logic for a Decoder.">
<polygon fill="#999999" stroke="#666666" points="157,-151 0,-151 0,-132 157,-132 157,-151"/>
<text text-anchor="middle" x="78.5" y="-139" font-family="Helvetica,sans-Serif" font-size="10.00">Kit::Framing::DecoderReader</text>
</a>
</g>
</g>
<!-- Node3 -->
<g id="Node000003" class="node">
<title>Node3</title>
<g id="a_Node000003"><a xlink:href="class_kit_1_1_framing_1_1_line_decoder.html" target="_top" xlink:title="This concrete template class extends the DecoderReader where a frame consider one line of PRINTABLE A...">
<polygon fill="white" stroke="#666666" points="150,-96 7,-96 7,-77 150,-77 150,-96"/>
<text text-anchor="middle" x="78.5" y="-84" font-family="Helvetica,sans-Serif" font-size="10.00">Kit::Framing::LineDecoder</text>
</a>
</g>
</g>
<!-- Node1&#45;&gt;Node3 -->
<g id="edge2_Node000001_Node000003" class="edge">
<title>Node1&#45;&gt;Node3</title>
<g id="a_edge2_Node000001_Node000003"><a xlink:title=" ">
<path fill="none" stroke="#63b8ff" d="M78.5,-121.66C78.5,-112.93 78.5,-102.99 78.5,-96.09"/>
<polygon fill="#63b8ff" stroke="#63b8ff" points="75,-121.75 78.5,-131.75 82,-121.75 75,-121.75"/>
</a>
</g>
</g>
<!-- Node2 -->
<g id="Node000002" class="node">
<title>Node2</title>
<g id="a_Node000002"><a xlink:href="class_kit_1_1_framing_1_1_i_decoder.html" target="_top" xlink:title="This abstract class defines an interface for &#39;receiving&#39; (decoding) a frame.">
<polygon fill="white" stroke="#666666" points="141,-206 16,-206 16,-187 141,-187 141,-206"/>
<text text-anchor="middle" x="78.5" y="-194" font-family="Helvetica,sans-Serif" font-size="10.00">Kit::Framing::IDecoder</text>
</a>
</g>
</g>
<!-- Node2&#45;&gt;Node1 -->
<g id="edge1_Node000001_Node000002" class="edge">
<title>Node2&#45;&gt;Node1</title>
<g id="a_edge1_Node000001_Node000002"><a xlink:title=" ">
<path fill="none" stroke="#63b8ff" d="M78.5,-176.66C78.5,-167.93 78.5,-157.99 78.5,-151.09"/>
<polygon fill="#63b8ff" stroke="#63b8ff" points="75,-176.75 78.5,-186.75 82,-176.75 75,-176.75"/>
</a>
</g>
</g>
<!-- Node4 -->
<g id="Node000004" class="node">
<title>Node4</title>
<g id="a_Node000004"><a xlink:href="class_kit_1_1_framing_1_1_line_decoder_allocate.html" target="_top" xlink:title="This concrete convenience template class extends the LineDecoder to include allocating the work buffe...">
<polygon fill="white" stroke="#666666" points="150.5,-41 6.5,-41 6.5,0 150.5,0 150.5,-41"/>
<text text-anchor="start" x="14.5" y="-29" font-family="Helvetica,sans-Serif" font-size="10.00">Kit::Framing::LineDecoder</text>
<text text-anchor="start" x="14.5" y="-18" font-family="Helvetica,sans-Serif" font-size="10.00">Allocate&lt; SIZE_OF_WORK</text>
<text text-anchor="middle" x="78.5" y="-7" font-family="Helvetica,sans-Serif" font-size="10.00">_BUFFER &gt;</text>
</a>
</g>
</g>
<!-- Node3&#45;&gt;Node4 -->
<g id="edge3_Node000003_Node000004" class="edge">
<title>Node3&#45;&gt;Node4</title>
<g id="a_edge3_Node000003_Node000004"><a xlink:title=" ">
<path fill="none" stroke="#63b8ff" d="M78.5,-66.63C78.5,-58.56 78.5,-49.15 78.5,-41.01"/>
<polygon fill="#63b8ff" stroke="#63b8ff" points="75,-66.87 78.5,-76.87 82,-66.87 75,-66.87"/>
</a>
</g>
</g>
</g>
</svg>
