<?xml version="1.0" encoding="UTF-8" standalone="no"?>
<!DOCTYPE svg PUBLIC "-//W3C//DTD SVG 1.1//EN"
 "http://www.w3.org/Graphics/SVG/1.1/DTD/svg11.dtd">
<!-- Generated by graphviz version 2.43.0 (0)
 -->
<!-- Title: Dm::Transaction::MpFoo Pages: 1 -->
<svg width="1989pt" height="184pt"
 viewBox="0.00 0.00 1989.00 183.50" xmlns="http://www.w3.org/2000/svg" xmlns:xlink="http://www.w3.org/1999/xlink">
<g id="graph0" class="graph" transform="scale(1 1) rotate(0) translate(4 179.5)">
<title>Dm::Transaction::MpFoo</title>
<!-- Node1 -->
<g id="Node000001" class="node">
<title>Node1</title>
<g id="a_Node000001"><a xlink:title="This concreate class implements a type safe MP for the data structure: Foo_T.">
<polygon fill="#999999" stroke="#666666" points="1981,-62 1847,-62 1847,-43 1981,-43 1981,-62"/>
<text text-anchor="middle" x="1914" y="-50" font-family="Helvetica,sans-Serif" font-size="10.00">Dm::Transaction::MpFoo</text>
</a>
</g>
</g>
<!-- Node2 -->
<g id="Node000002" class="node">
<title>Node2</title>
<g id="a_Node000002"><a xlink:href="class_kit_1_1_dm_1_1_mp_1_1_scalar.html" target="_top" xlink:title=" ">
<polygon fill="white" stroke="#666666" points="1810,-67.5 1700,-67.5 1700,-37.5 1810,-37.5 1810,-67.5"/>
<text text-anchor="start" x="1708" y="-55.5" font-family="Helvetica,sans-Serif" font-size="10.00">Kit::Dm::Mp::Scalar</text>
<text text-anchor="middle" x="1755" y="-44.5" font-family="Helvetica,sans-Serif" font-size="10.00">&lt; Foo_T, MpFoo &gt;</text>
</a>
</g>
</g>
<!-- Node2&#45;&gt;Node1 -->
<g id="edge1_Node000001_Node000002" class="edge">
<title>Node2&#45;&gt;Node1</title>
<g id="a_edge1_Node000001_Node000002"><a xlink:title=" ">
<path fill="none" stroke="#63b8ff" d="M1820.23,-52.5C1829.04,-52.5 1838.09,-52.5 1846.93,-52.5"/>
<polygon fill="#63b8ff" stroke="#63b8ff" points="1820.03,-49 1810.03,-52.5 1820.03,-56 1820.03,-49"/>
</a>
</g>
</g>
<!-- Node3 -->
<g id="Node000003" class="node">
<title>Node3</title>
<g id="a_Node000003"><a xlink:href="class_kit_1_1_dm_1_1_model_point_base.html" target="_top" xlink:title="This concrete class provide common infrastructure for a Model Point.">
<polygon fill="white" stroke="#666666" points="1400,-83 1262,-83 1262,-64 1400,-64 1400,-83"/>
<text text-anchor="middle" x="1331" y="-71" font-family="Helvetica,sans-Serif" font-size="10.00">Kit::Dm::ModelPointBase</text>
</a>
</g>
</g>
<!-- Node3&#45;&gt;Node2 -->
<g id="edge2_Node000002_Node000003" class="edge">
<title>Node3&#45;&gt;Node2</title>
<g id="a_edge2_Node000002_Node000003"><a xlink:title=" ">
<path fill="none" stroke="#63b8ff" d="M1410.65,-77.47C1413.47,-77.5 1416.26,-77.51 1419,-77.5 1535.97,-77.12 1566.22,-84.19 1682,-67.5 1687.81,-66.66 1693.86,-65.64 1699.87,-64.53"/>
<polygon fill="#63b8ff" stroke="#63b8ff" points="1410.44,-73.96 1400.37,-77.28 1410.31,-80.96 1410.44,-73.96"/>
</a>
</g>
</g>
<!-- Node17 -->
<g id="Node000017" class="node">
<title>Node17</title>
<g id="a_Node000017"><a xlink:href="class_kit_1_1_dm_1_1_mp_1_1_scalar.html" target="_top" xlink:title="This template class is partial concrete class that provides a basic implementation for a Model Point ...">
<polygon fill="white" stroke="#666666" points="1571,-67.5 1437,-67.5 1437,-37.5 1571,-37.5 1571,-67.5"/>
<text text-anchor="start" x="1445" y="-55.5" font-family="Helvetica,sans-Serif" font-size="10.00">Kit::Dm::Mp::Scalar</text>
<text text-anchor="middle" x="1504" y="-44.5" font-family="Helvetica,sans-Serif" font-size="10.00">&lt; ELEMTYPE, MPTYPE &gt;</text>
</a>
</g>
</g>
<!-- Node3&#45;&gt;Node17 -->
<g id="edge21_Node000017_Node000003" class="edge">
<title>Node3&#45;&gt;Node17</title>
<g id="a_edge21_Node000017_Node000003"><a xlink:title=" ">
<path fill="none" stroke="#63b8ff" d="M1410.1,-63.91C1419.03,-62.81 1428.07,-61.7 1436.83,-60.63"/>
<polygon fill="#63b8ff" stroke="#63b8ff" points="1409.57,-60.45 1400.08,-65.14 1410.43,-67.39 1409.57,-60.45"/>
</a>
</g>
</g>
<!-- Node4 -->
<g id="Node000004" class="node">
<title>Node4</title>
<g id="a_Node000004"><a xlink:href="class_kit_1_1_dm_1_1_i_model_point.html" target="_top" xlink:title="This mostly abstract class defines the interface for a Model Point.">
<polygon fill="white" stroke="#666666" points="839,-83 722,-83 722,-64 839,-64 839,-83"/>
<text text-anchor="middle" x="780.5" y="-71" font-family="Helvetica,sans-Serif" font-size="10.00">Kit::Dm::IModelPoint</text>
</a>
</g>
</g>
<!-- Node4&#45;&gt;Node3 -->
<g id="edge3_Node000003_Node000004" class="edge">
<title>Node4&#45;&gt;Node3</title>
<g id="a_edge3_Node000003_Node000004"><a xlink:title=" ">
<path fill="none" stroke="#63b8ff" d="M849.35,-73.5C954.59,-73.5 1156.03,-73.5 1261.6,-73.5"/>
<polygon fill="#63b8ff" stroke="#63b8ff" points="849.16,-70 839.16,-73.5 849.16,-77 849.16,-70"/>
</a>
</g>
</g>
<!-- Node5 -->
<g id="Node000005" class="node">
<title>Node5</title>
<g id="a_Node000005"><a xlink:href="class_kit_1_1_container_1_1_keyed_item.html" target="_top" xlink:title="This abstract class represents a item that can be used with containers that have a concept of Key&#45;Val...">
<polygon fill="white" stroke="#666666" points="685,-121 543,-121 543,-102 685,-102 685,-121"/>
<text text-anchor="middle" x="614" y="-109" font-family="Helvetica,sans-Serif" font-size="10.00">Kit::Container::KeyedItem</text>
</a>
</g>
</g>
<!-- Node5&#45;&gt;Node4 -->
<g id="edge4_Node000004_Node000005" class="edge">
<title>Node5&#45;&gt;Node4</title>
<g id="a_edge4_Node000004_Node000005"><a xlink:title=" ">
<path fill="none" stroke="#63b8ff" d="M666.5,-99.6C689.62,-94.26 716.53,-88.05 738.29,-83.02"/>
<polygon fill="#63b8ff" stroke="#63b8ff" points="665.47,-96.25 656.51,-101.91 667.04,-103.07 665.47,-96.25"/>
</a>
</g>
</g>
<!-- Node6 -->
<g id="Node000006" class="node">
<title>Node6</title>
<g id="a_Node000006"><a xlink:href="class_kit_1_1_container_1_1_extended_list_item.html" target="_top" xlink:title="This class is used by the Container classes to implement a various types of DOUBLY linked containers.">
<polygon fill="white" stroke="#666666" points="450.5,-146.5 315.5,-146.5 315.5,-116.5 450.5,-116.5 450.5,-146.5"/>
<text text-anchor="start" x="323.5" y="-134.5" font-family="Helvetica,sans-Serif" font-size="10.00">Kit::Container::Extended</text>
<text text-anchor="middle" x="383" y="-123.5" font-family="Helvetica,sans-Serif" font-size="10.00">ListItem</text>
</a>
</g>
</g>
<!-- Node6&#45;&gt;Node5 -->
<g id="edge5_Node000005_Node000006" class="edge">
<title>Node6&#45;&gt;Node5</title>
<g id="a_edge5_Node000005_Node000006"><a xlink:title=" ">
<path fill="none" stroke="#63b8ff" d="M460.55,-124.81C487.09,-122.5 516.69,-119.91 542.7,-117.64"/>
<polygon fill="#63b8ff" stroke="#63b8ff" points="460.2,-121.33 450.54,-125.69 460.81,-128.3 460.2,-121.33"/>
</a>
</g>
</g>
<!-- Node6&#45;&gt;Node6 -->
<g id="edge9_Node000006_Node000006" class="edge">
<title>Node6&#45;&gt;Node6</title>
<g id="a_edge9_Node000006_Node000006"><a xlink:title=" ">
<path fill="none" stroke="#9a32cd" stroke-dasharray="5,2" d="M367.95,-157.1C370,-161.47 375.02,-164.5 383,-164.5 396.44,-164.5 401.48,-155.91 398.12,-146.78"/>
<polygon fill="#9a32cd" stroke="#9a32cd" points="371.44,-156.75 367.88,-146.78 364.44,-156.8 371.44,-156.75"/>
</a>
</g>
<text text-anchor="middle" x="383" y="-167.5" font-family="Helvetica,sans-Serif" font-size="10.00" fill="grey"> m_prevPtr_</text>
</g>
<!-- Node13 -->
<g id="Node000013" class="node">
<title>Node13</title>
<g id="a_Node000013"><a xlink:href="class_kit_1_1_container_1_1_d_list_base.html" target="_top" xlink:title="This protected base class implements a NON&#45;TYPE&#45;SAFE a doubly linked list which maintains the orderin...">
<polygon fill="white" stroke="#666666" points="683,-158 545,-158 545,-139 683,-139 683,-158"/>
<text text-anchor="middle" x="614" y="-146" font-family="Helvetica,sans-Serif" font-size="10.00">Kit::Container::DListBase</text>
</a>
</g>
</g>
<!-- Node6&#45;&gt;Node13 -->
<g id="edge15_Node000013_Node000006" class="edge">
<title>Node6&#45;&gt;Node13</title>
<g id="a_edge15_Node000013_Node000006"><a xlink:title=" ">
<path fill="none" stroke="#9a32cd" stroke-dasharray="5,2" d="M460.78,-137.2C487.94,-139.22 518.29,-141.47 544.7,-143.43"/>
<polygon fill="#9a32cd" stroke="#9a32cd" points="460.78,-133.69 450.54,-136.44 460.26,-140.67 460.78,-133.69"/>
</a>
</g>
<text text-anchor="middle" x="497" y="-155.5" font-family="Helvetica,sans-Serif" font-size="10.00" fill="grey"> m_headPtr</text>
<text text-anchor="middle" x="497" y="-144.5" font-family="Helvetica,sans-Serif" font-size="10.00" fill="grey">m_tailPtr</text>
</g>
<!-- Node7 -->
<g id="Node000007" class="node">
<title>Node7</title>
<g id="a_Node000007"><a xlink:href="class_kit_1_1_container_1_1_list_item.html" target="_top" xlink:title="This class is used by the Container classes to implement a various types of linked lists containers.">
<polygon fill="white" stroke="#666666" points="278,-141 149,-141 149,-122 278,-122 278,-141"/>
<text text-anchor="middle" x="213.5" y="-129" font-family="Helvetica,sans-Serif" font-size="10.00">Kit::Container::ListItem</text>
</a>
</g>
</g>
<!-- Node7&#45;&gt;Node6 -->
<g id="edge6_Node000006_Node000007" class="edge">
<title>Node7&#45;&gt;Node6</title>
<g id="a_edge6_Node000006_Node000007"><a xlink:title=" ">
<path fill="none" stroke="#63b8ff" d="M288.35,-131.5C297.32,-131.5 306.45,-131.5 315.31,-131.5"/>
<polygon fill="#63b8ff" stroke="#63b8ff" points="288.3,-128 278.3,-131.5 288.3,-135 288.3,-128"/>
</a>
</g>
</g>
<!-- Node7&#45;&gt;Node7 -->
<g id="edge8_Node000007_Node000007" class="edge">
<title>Node7&#45;&gt;Node7</title>
<g id="a_edge8_Node000007_Node000007"><a xlink:title=" ">
<path fill="none" stroke="#9a32cd" stroke-dasharray="5,2" d="M198.4,-150.91C199.59,-155.56 204.62,-159 213.5,-159 228.07,-159 232.29,-149.73 226.14,-141.08"/>
<polygon fill="#9a32cd" stroke="#9a32cd" points="201.83,-151.63 200.86,-141.08 195.04,-149.93 201.83,-151.63"/>
</a>
</g>
<text text-anchor="middle" x="213.5" y="-162" font-family="Helvetica,sans-Serif" font-size="10.00" fill="grey"> m_nextPtr_</text>
</g>
<!-- Node8 -->
<g id="Node000008" class="node">
<title>Node8</title>
<g id="a_Node000008"><a xlink:href="class_kit_1_1_container_1_1_item.html" target="_top" xlink:title="This class is used by the Intrusive Container classes to enforce the semantic and item/element can be...">
<polygon fill="white" stroke="#666666" points="112,-141 0,-141 0,-122 112,-122 112,-141"/>
<text text-anchor="middle" x="56" y="-129" font-family="Helvetica,sans-Serif" font-size="10.00">Kit::Container::Item</text>
</a>
</g>
</g>
<!-- Node8&#45;&gt;Node7 -->
<g id="edge7_Node000007_Node000008" class="edge">
<title>Node8&#45;&gt;Node7</title>
<g id="a_edge7_Node000007_Node000008"><a xlink:title=" ">
<path fill="none" stroke="#63b8ff" d="M122.43,-131.5C131.2,-131.5 140.19,-131.5 148.93,-131.5"/>
<polygon fill="#63b8ff" stroke="#63b8ff" points="122.26,-128 112.26,-131.5 122.26,-135 122.26,-128"/>
</a>
</g>
</g>
<!-- Node9 -->
<g id="Node000009" class="node">
<title>Node9</title>
<g id="a_Node000009"><a xlink:href="class_kit_1_1_container_1_1_key_literal_string.html" target="_top" xlink:title="This class provides a &#39;Key&#39; wrapper for a C string literal.">
<polygon fill="white" stroke="#666666" points="683,-83.5 545,-83.5 545,-53.5 683,-53.5 683,-83.5"/>
<text text-anchor="start" x="553" y="-71.5" font-family="Helvetica,sans-Serif" font-size="10.00">Kit::Container::KeyLiteral</text>
<text text-anchor="middle" x="614" y="-60.5" font-family="Helvetica,sans-Serif" font-size="10.00">String</text>
</a>
</g>
</g>
<!-- Node9&#45;&gt;Node4 -->
<g id="edge10_Node000004_Node000009" class="edge">
<title>Node9&#45;&gt;Node4</title>
<g id="a_edge10_Node000004_Node000009"><a xlink:title=" ">
<path fill="none" stroke="#63b8ff" d="M693.61,-70.89C703.12,-71.18 712.7,-71.47 721.83,-71.75"/>
<polygon fill="#63b8ff" stroke="#63b8ff" points="693.44,-67.38 683.33,-70.58 693.22,-74.38 693.44,-67.38"/>
</a>
</g>
</g>
<!-- Node10 -->
<g id="Node000010" class="node">
<title>Node10</title>
<g id="a_Node000010"><a xlink:href="class_kit_1_1_container_1_1_key_string_buffer.html" target="_top" xlink:title="This class provides a &#39;Key&#39; wrapper for a array of Character of length N, i.e.">
<polygon fill="white" stroke="#666666" points="451,-83.5 315,-83.5 315,-53.5 451,-53.5 451,-83.5"/>
<text text-anchor="start" x="323" y="-71.5" font-family="Helvetica,sans-Serif" font-size="10.00">Kit::Container::KeyString</text>
<text text-anchor="middle" x="383" y="-60.5" font-family="Helvetica,sans-Serif" font-size="10.00">Buffer</text>
</a>
</g>
</g>
<!-- Node10&#45;&gt;Node9 -->
<g id="edge11_Node000009_Node000010" class="edge">
<title>Node10&#45;&gt;Node9</title>
<g id="a_edge11_Node000009_Node000010"><a xlink:title=" ">
<path fill="none" stroke="#63b8ff" d="M461.34,-68.5C488.34,-68.5 518.43,-68.5 544.65,-68.5"/>
<polygon fill="#63b8ff" stroke="#63b8ff" points="461.16,-65 451.16,-68.5 461.16,-72 461.16,-65"/>
</a>
</g>
</g>
<!-- Node11 -->
<g id="Node000011" class="node">
<title>Node11</title>
<g id="a_Node000011"><a xlink:href="class_kit_1_1_container_1_1_key.html" target="_top" xlink:title="This abstract class defines the interface that a contained object must support if it has comparable k...">
<polygon fill="white" stroke="#666666" points="267,-78 160,-78 160,-59 267,-59 267,-78"/>
<text text-anchor="middle" x="213.5" y="-66" font-family="Helvetica,sans-Serif" font-size="10.00">Kit::Container::Key</text>
</a>
</g>
</g>
<!-- Node11&#45;&gt;Node10 -->
<g id="edge12_Node000010_Node000011" class="edge">
<title>Node11&#45;&gt;Node10</title>
<g id="a_edge12_Node000010_Node000011"><a xlink:title=" ">
<path fill="none" stroke="#63b8ff" d="M277.19,-68.5C289.49,-68.5 302.43,-68.5 314.86,-68.5"/>
<polygon fill="#63b8ff" stroke="#63b8ff" points="277.04,-65 267.04,-68.5 277.04,-72 277.04,-65"/>
</a>
</g>
</g>
<!-- Node12 -->
<g id="Node000012" class="node">
<title>Node12</title>
<g id="a_Node000012"><a xlink:href="class_kit_1_1_container_1_1_d_list.html" target="_top" xlink:title=" ">
<polygon fill="white" stroke="#666666" points="1125,-131.5 996,-131.5 996,-101.5 1125,-101.5 1125,-131.5"/>
<text text-anchor="start" x="1004" y="-119.5" font-family="Helvetica,sans-Serif" font-size="10.00">Kit::Container::DList</text>
<text text-anchor="middle" x="1060.5" y="-108.5" font-family="Helvetica,sans-Serif" font-size="10.00">&lt; Kit::Dm::IObserver &gt;</text>
</a>
</g>
</g>
<!-- Node12&#45;&gt;Node3 -->
<g id="edge13_Node000003_Node000012" class="edge">
<title>Node12&#45;&gt;Node3</title>
<g id="a_edge13_Node000003_Node000012"><a xlink:title=" ">
<path fill="none" stroke="#9a32cd" stroke-dasharray="5,2" d="M1135.36,-104.83C1168.58,-99.56 1208.26,-93.25 1244,-87.5 1252.96,-86.06 1262.45,-84.52 1271.72,-83.02"/>
<polygon fill="#9a32cd" stroke="#9a32cd" points="1134.61,-101.4 1125.28,-106.43 1135.7,-108.32 1134.61,-101.4"/>
</a>
</g>
<text text-anchor="middle" x="1196" y="-105.5" font-family="Helvetica,sans-Serif" font-size="10.00" fill="grey"> m_subscribers</text>
</g>
<!-- Node13&#45;&gt;Node12 -->
<g id="edge14_Node000012_Node000013" class="edge">
<title>Node13&#45;&gt;Node12</title>
<g id="a_edge14_Node000012_Node000013"><a xlink:title=" ">
<path fill="none" stroke="#63b8ff" d="M693.65,-148.01C766.37,-146.79 877.31,-142.98 973,-131.5 980.42,-130.61 988.16,-129.51 995.84,-128.32"/>
<polygon fill="#63b8ff" stroke="#63b8ff" points="693.15,-144.52 683.21,-148.17 693.26,-151.52 693.15,-144.52"/>
</a>
</g>
</g>
<!-- Node14 -->
<g id="Node000014" class="node">
<title>Node14</title>
<g id="a_Node000014"><a xlink:href="class_kit_1_1_container_1_1_d_list.html" target="_top" xlink:title="This template class implements a double linked list which maintains the ordering imposed on it by the...">
<polygon fill="white" stroke="#666666" points="837.5,-131.5 723.5,-131.5 723.5,-101.5 837.5,-101.5 837.5,-131.5"/>
<text text-anchor="start" x="731.5" y="-119.5" font-family="Helvetica,sans-Serif" font-size="10.00">Kit::Container::DList</text>
<text text-anchor="middle" x="780.5" y="-108.5" font-family="Helvetica,sans-Serif" font-size="10.00">&lt; EXT_ITEM &gt;</text>
</a>
</g>
</g>
<!-- Node13&#45;&gt;Node14 -->
<g id="edge17_Node000014_Node000013" class="edge">
<title>Node13&#45;&gt;Node14</title>
<g id="a_edge17_Node000014_Node000013"><a xlink:title=" ">
<path fill="none" stroke="#63b8ff" d="M673.75,-137.07C689.87,-133.94 707.29,-130.55 723.27,-127.44"/>
<polygon fill="#63b8ff" stroke="#63b8ff" points="673.06,-133.64 663.91,-138.99 674.39,-140.51 673.06,-133.64"/>
</a>
</g>
</g>
<!-- Node14&#45;&gt;Node12 -->
<g id="edge16_Node000012_Node000014" class="edge">
<title>Node14&#45;&gt;Node12</title>
<g id="a_edge16_Node000012_Node000014"><a xlink:title=" ">
<path fill="none" stroke="orange" stroke-dasharray="5,2" d="M847.94,-116.5C892.68,-116.5 951.34,-116.5 995.55,-116.5"/>
<polygon fill="orange" stroke="orange" points="847.76,-113 837.76,-116.5 847.76,-120 847.76,-113"/>
</a>
</g>
<text text-anchor="middle" x="915" y="-119.5" font-family="Helvetica,sans-Serif" font-size="10.00" fill="grey"> &lt; Kit::Dm::IObserver &gt;</text>
</g>
<!-- Node15 -->
<g id="Node000015" class="node">
<title>Node15</title>
<g id="a_Node000015"><a xlink:href="class_kit_1_1_dm_1_1_i_model_database.html" target="_top" xlink:title="This class defines the basic operations that can be performed on a Model Base.">
<polygon fill="white" stroke="#666666" points="1130,-45 991,-45 991,-26 1130,-26 1130,-45"/>
<text text-anchor="middle" x="1060.5" y="-33" font-family="Helvetica,sans-Serif" font-size="10.00">Kit::Dm::IModelDatabase</text>
</a>
</g>
</g>
<!-- Node15&#45;&gt;Node3 -->
<g id="edge18_Node000003_Node000015" class="edge">
<title>Node15&#45;&gt;Node3</title>
<g id="a_edge18_Node000003_Node000015"><a xlink:title=" ">
<path fill="none" stroke="#9a32cd" stroke-dasharray="5,2" d="M1140.66,-37.48C1172.91,-39.24 1210.42,-42.49 1244,-48.5 1263.9,-52.06 1285.76,-58.45 1302.47,-63.88"/>
<polygon fill="#9a32cd" stroke="#9a32cd" points="1140.55,-33.97 1130.39,-36.97 1140.2,-40.97 1140.55,-33.97"/>
</a>
</g>
<text text-anchor="middle" x="1196" y="-51.5" font-family="Helvetica,sans-Serif" font-size="10.00" fill="grey"> m_modelDatabase</text>
</g>
<!-- Node16 -->
<g id="Node000016" class="node">
<title>Node16</title>
<g id="a_Node000016"><a xlink:href="struct_dm_1_1_transaction_1_1_foo___t.html" target="_top" xlink:title="Data structure used to exchange data between a Client and Server for the &#39;Foo&#39; transaction.">
<polygon fill="white" stroke="#666666" points="1569,-19 1439,-19 1439,0 1569,0 1569,-19"/>
<text text-anchor="middle" x="1504" y="-7" font-family="Helvetica,sans-Serif" font-size="10.00">Dm::Transaction::Foo_T</text>
</a>
</g>
</g>
<!-- Node16&#45;&gt;Node2 -->
<g id="edge19_Node000002_Node000016" class="edge">
<title>Node16&#45;&gt;Node2</title>
<g id="a_edge19_Node000002_Node000016"><a xlink:title=" ">
<path fill="none" stroke="#9a32cd" stroke-dasharray="5,2" d="M1579.12,-20.41C1610.87,-25.29 1648.31,-31.33 1682,-37.5 1687.78,-38.56 1693.8,-39.72 1699.8,-40.91"/>
<polygon fill="#9a32cd" stroke="#9a32cd" points="1579.44,-16.91 1569.03,-18.86 1578.39,-23.83 1579.44,-16.91"/>
</a>
</g>
<text text-anchor="middle" x="1635.5" y="-40.5" font-family="Helvetica,sans-Serif" font-size="10.00" fill="grey"> m_data</text>
</g>
<!-- Node17&#45;&gt;Node2 -->
<g id="edge20_Node000002_Node000017" class="edge">
<title>Node17&#45;&gt;Node2</title>
<g id="a_edge20_Node000002_Node000017"><a xlink:title=" ">
<path fill="none" stroke="orange" stroke-dasharray="5,2" d="M1581.17,-52.5C1619.5,-52.5 1665.08,-52.5 1699.8,-52.5"/>
<polygon fill="orange" stroke="orange" points="1581.07,-49 1571.07,-52.5 1581.07,-56 1581.07,-49"/>
</a>
</g>
<text text-anchor="middle" x="1635.5" y="-55.5" font-family="Helvetica,sans-Serif" font-size="10.00" fill="grey"> &lt; Foo_T, MpFoo &gt;</text>
</g>
</g>
</svg>
