<?xml version="1.0" encoding="UTF-8" standalone="no"?>
<!DOCTYPE svg PUBLIC "-//W3C//DTD SVG 1.1//EN"
 "http://www.w3.org/Graphics/SVG/1.1/DTD/svg11.dtd">
<!-- Generated by graphviz version 2.43.0 (0)
 -->
<!-- Title: Kit::Itc::ResponseMessage&lt; CLIENT, SERVICE, PAYLOAD &gt; Pages: 1 -->
<svg width="179pt" height="269pt"
 viewBox="0.00 0.00 179.00 269.00" xmlns="http://www.w3.org/2000/svg" xmlns:xlink="http://www.w3.org/1999/xlink">
<g id="graph0" class="graph" transform="scale(1 1) rotate(0) translate(4 265)">
<title>Kit::Itc::ResponseMessage&lt; CLIENT, SERVICE, PAYLOAD &gt;</title>
<!-- Node1 -->
<g id="Node000001" class="node">
<title>Node1</title>
<g id="a_Node000001"><a xlink:title="This template class represents a client response message, which is posted to the client&#39;s mailbox aft...">
<polygon fill="#999999" stroke="#666666" points="171,-30 0,-30 0,0 171,0 171,-30"/>
<text text-anchor="start" x="8" y="-18" font-family="Helvetica,sans-Serif" font-size="10.00">Kit::Itc::ResponseMessage</text>
<text text-anchor="middle" x="85.5" y="-7" font-family="Helvetica,sans-Serif" font-size="10.00">&lt; CLIENT, SERVICE, PAYLOAD &gt;</text>
</a>
</g>
</g>
<!-- Node2 -->
<g id="Node000002" class="node">
<title>Node2</title>
<g id="a_Node000002"><a xlink:href="class_kit_1_1_itc_1_1_i_message.html" target="_top" xlink:title="This abstract class defines the operations for an ITC message.">
<polygon fill="white" stroke="#666666" points="136,-85 35,-85 35,-66 136,-66 136,-85"/>
<text text-anchor="middle" x="85.5" y="-73" font-family="Helvetica,sans-Serif" font-size="10.00">Kit::Itc::IMessage</text>
</a>
</g>
</g>
<!-- Node2&#45;&gt;Node1 -->
<g id="edge1_Node000001_Node000002" class="edge">
<title>Node2&#45;&gt;Node1</title>
<g id="a_edge1_Node000001_Node000002"><a xlink:title=" ">
<path fill="none" stroke="#63b8ff" d="M85.5,-55.65C85.5,-47.36 85.5,-37.78 85.5,-30.11"/>
<polygon fill="#63b8ff" stroke="#63b8ff" points="82,-55.87 85.5,-65.87 89,-55.87 82,-55.87"/>
</a>
</g>
</g>
<!-- Node3 -->
<g id="Node000003" class="node">
<title>Node3</title>
<g id="a_Node000003"><a xlink:href="class_kit_1_1_container_1_1_extended_list_item.html" target="_top" xlink:title="This class is used by the Container classes to implement a various types of DOUBLY linked containers.">
<polygon fill="white" stroke="#666666" points="153,-151 18,-151 18,-121 153,-121 153,-151"/>
<text text-anchor="start" x="26" y="-139" font-family="Helvetica,sans-Serif" font-size="10.00">Kit::Container::Extended</text>
<text text-anchor="middle" x="85.5" y="-128" font-family="Helvetica,sans-Serif" font-size="10.00">ListItem</text>
</a>
</g>
</g>
<!-- Node3&#45;&gt;Node2 -->
<g id="edge2_Node000002_Node000003" class="edge">
<title>Node3&#45;&gt;Node2</title>
<g id="a_edge2_Node000002_Node000003"><a xlink:title=" ">
<path fill="none" stroke="#63b8ff" d="M85.5,-110.75C85.5,-101.72 85.5,-92.03 85.5,-85.27"/>
<polygon fill="#63b8ff" stroke="#63b8ff" points="82,-110.84 85.5,-120.84 89,-110.84 82,-110.84"/>
</a>
</g>
</g>
<!-- Node4 -->
<g id="Node000004" class="node">
<title>Node4</title>
<g id="a_Node000004"><a xlink:href="class_kit_1_1_container_1_1_list_item.html" target="_top" xlink:title="This class is used by the Container classes to implement a various types of linked lists containers.">
<polygon fill="white" stroke="#666666" points="150,-206 21,-206 21,-187 150,-187 150,-206"/>
<text text-anchor="middle" x="85.5" y="-194" font-family="Helvetica,sans-Serif" font-size="10.00">Kit::Container::ListItem</text>
</a>
</g>
</g>
<!-- Node4&#45;&gt;Node3 -->
<g id="edge3_Node000003_Node000004" class="edge">
<title>Node4&#45;&gt;Node3</title>
<g id="a_edge3_Node000003_Node000004"><a xlink:title=" ">
<path fill="none" stroke="#63b8ff" d="M85.5,-176.65C85.5,-168.36 85.5,-158.78 85.5,-151.11"/>
<polygon fill="#63b8ff" stroke="#63b8ff" points="82,-176.87 85.5,-186.87 89,-176.87 82,-176.87"/>
</a>
</g>
</g>
<!-- Node5 -->
<g id="Node000005" class="node">
<title>Node5</title>
<g id="a_Node000005"><a xlink:href="class_kit_1_1_container_1_1_item.html" target="_top" xlink:title="This class is used by the Intrusive Container classes to enforce the semantic and item/element can be...">
<polygon fill="white" stroke="#666666" points="141.5,-261 29.5,-261 29.5,-242 141.5,-242 141.5,-261"/>
<text text-anchor="middle" x="85.5" y="-249" font-family="Helvetica,sans-Serif" font-size="10.00">Kit::Container::Item</text>
</a>
</g>
</g>
<!-- Node5&#45;&gt;Node4 -->
<g id="edge4_Node000004_Node000005" class="edge">
<title>Node5&#45;&gt;Node4</title>
<g id="a_edge4_Node000004_Node000005"><a xlink:title=" ">
<path fill="none" stroke="#63b8ff" d="M85.5,-231.66C85.5,-222.93 85.5,-212.99 85.5,-206.09"/>
<polygon fill="#63b8ff" stroke="#63b8ff" points="82,-231.75 85.5,-241.75 89,-231.75 82,-231.75"/>
</a>
</g>
</g>
</g>
</svg>
