<?xml version="1.0" encoding="UTF-8" standalone="no"?>
<!DOCTYPE svg PUBLIC "-//W3C//DTD SVG 1.1//EN"
 "http://www.w3.org/Graphics/SVG/1.1/DTD/svg11.dtd">
<!-- Generated by graphviz version 2.43.0 (0)
 -->
<!-- Title: Kit::Itc::IOpen Pages: 1 -->
<svg width="580pt" height="342pt"
 viewBox="0.00 0.00 580.00 342.00" xmlns="http://www.w3.org/2000/svg" xmlns:xlink="http://www.w3.org/1999/xlink">
<g id="graph0" class="graph" transform="scale(1 1) rotate(0) translate(4 338)">
<title>Kit::Itc::IOpen</title>
<!-- Node1 -->
<g id="Node000001" class="node">
<title>Node1</title>
<g id="a_Node000001"><a xlink:title="This abstract class defines an open interface.">
<polygon fill="#999999" stroke="#666666" points="83,-200.5 0,-200.5 0,-181.5 83,-181.5 83,-200.5"/>
<text text-anchor="middle" x="41.5" y="-188.5" font-family="Helvetica,sans-Serif" font-size="10.00">Kit::Itc::IOpen</text>
</a>
</g>
</g>
<!-- Node2 -->
<g id="Node000002" class="node">
<title>Node2</title>
<g id="a_Node000002"><a xlink:href="class_kit_1_1_itc_1_1_open_sync.html" target="_top" xlink:title="This partially concrete class implements the synchronous ITC open call for the OpenApi.">
<polygon fill="white" stroke="#666666" points="222,-200.5 119,-200.5 119,-181.5 222,-181.5 222,-200.5"/>
<text text-anchor="middle" x="170.5" y="-188.5" font-family="Helvetica,sans-Serif" font-size="10.00">Kit::Itc::OpenSync</text>
</a>
</g>
</g>
<!-- Node1&#45;&gt;Node2 -->
<g id="edge1_Node000001_Node000002" class="edge">
<title>Node1&#45;&gt;Node2</title>
<g id="a_edge1_Node000001_Node000002"><a xlink:title=" ">
<path fill="none" stroke="#63b8ff" d="M93.09,-191C101.5,-191 110.23,-191 118.65,-191"/>
<polygon fill="#63b8ff" stroke="#63b8ff" points="93.03,-187.5 83.03,-191 93.03,-194.5 93.03,-187.5"/>
</a>
</g>
</g>
<!-- Node3 -->
<g id="Node000003" class="node">
<title>Node3</title>
<g id="a_Node000003"><a xlink:href="class_kit_1_1_itc_1_1_open_close_sync.html" target="_top" xlink:title="This partially concrete class extends the ITC OpenSync class and implements the synchronous ITC close...">
<polygon fill="white" stroke="#666666" points="388,-200.5 258,-200.5 258,-181.5 388,-181.5 388,-200.5"/>
<text text-anchor="middle" x="323" y="-188.5" font-family="Helvetica,sans-Serif" font-size="10.00">Kit::Itc::OpenCloseSync</text>
</a>
</g>
</g>
<!-- Node2&#45;&gt;Node3 -->
<g id="edge2_Node000002_Node000003" class="edge">
<title>Node2&#45;&gt;Node3</title>
<g id="a_edge2_Node000002_Node000003"><a xlink:title=" ">
<path fill="none" stroke="#63b8ff" d="M232.22,-191C240.7,-191 249.43,-191 257.97,-191"/>
<polygon fill="#63b8ff" stroke="#63b8ff" points="232.03,-187.5 222.03,-191 232.03,-194.5 232.03,-187.5"/>
</a>
</g>
</g>
<!-- Node4 -->
<g id="Node000004" class="node">
<title>Node4</title>
<g id="a_Node000004"><a xlink:href="class_container_1_1_ring_buffer_1_1_led_server.html" target="_top" xlink:title="This concrete class monitors the a Queue of LED Flash codes and the consumes&#45;and&#45;executes the Flash c...">
<polygon fill="white" stroke="#666666" points="558.5,-334 437.5,-334 437.5,-304 558.5,-304 558.5,-334"/>
<text text-anchor="start" x="445.5" y="-322" font-family="Helvetica,sans-Serif" font-size="10.00">Container::RingBuffer</text>
<text text-anchor="middle" x="498" y="-311" font-family="Helvetica,sans-Serif" font-size="10.00">::LedServer</text>
</a>
</g>
</g>
<!-- Node3&#45;&gt;Node4 -->
<g id="edge3_Node000003_Node000004" class="edge">
<title>Node3&#45;&gt;Node4</title>
<g id="a_edge3_Node000003_Node000004"><a xlink:title=" ">
<path fill="none" stroke="#63b8ff" d="M336.61,-208.72C353.86,-231.73 386.93,-271.69 424,-295 429.42,-298.41 435.38,-301.38 441.47,-303.97"/>
<polygon fill="#63b8ff" stroke="#63b8ff" points="339.34,-206.52 330.61,-200.53 333.7,-210.66 339.34,-206.52"/>
</a>
</g>
</g>
<!-- Node5 -->
<g id="Node000005" class="node">
<title>Node5</title>
<g id="a_Node000005"><a xlink:href="class_container_1_1_ring_buffer_1_1_producer.html" target="_top" xlink:title="This concrete class is responsible for generating flash codes (i.e.">
<polygon fill="white" stroke="#666666" points="558.5,-286 437.5,-286 437.5,-256 558.5,-256 558.5,-286"/>
<text text-anchor="start" x="445.5" y="-274" font-family="Helvetica,sans-Serif" font-size="10.00">Container::RingBuffer</text>
<text text-anchor="middle" x="498" y="-263" font-family="Helvetica,sans-Serif" font-size="10.00">::Producer</text>
</a>
</g>
</g>
<!-- Node3&#45;&gt;Node5 -->
<g id="edge4_Node000003_Node000005" class="edge">
<title>Node3&#45;&gt;Node5</title>
<g id="a_edge4_Node000003_Node000005"><a xlink:title=" ">
<path fill="none" stroke="#63b8ff" d="M347.79,-206.05C367.64,-218.18 396.95,-235.11 424,-247 431.21,-250.17 438.97,-253.15 446.65,-255.86"/>
<polygon fill="#63b8ff" stroke="#63b8ff" points="349.46,-202.97 339.11,-200.68 345.78,-208.92 349.46,-202.97"/>
</a>
</g>
</g>
<!-- Node6 -->
<g id="Node000006" class="node">
<title>Node6</title>
<g id="a_Node000006"><a xlink:href="class_dm_1_1_transaction_1_1_client.html" target="_top" xlink:title="This concrete class is a &#39;client&#39; to request/trigger the &#39;server&#39; to generate a random number.">
<polygon fill="white" stroke="#666666" points="563,-237.5 433,-237.5 433,-218.5 563,-218.5 563,-237.5"/>
<text text-anchor="middle" x="498" y="-225.5" font-family="Helvetica,sans-Serif" font-size="10.00">Dm::Transaction::Client</text>
</a>
</g>
</g>
<!-- Node3&#45;&gt;Node6 -->
<g id="edge5_Node000003_Node000006" class="edge">
<title>Node3&#45;&gt;Node6</title>
<g id="a_edge5_Node000003_Node000006"><a xlink:title=" ">
<path fill="none" stroke="#63b8ff" d="M398.43,-200.23C425.88,-205.83 454.97,-212.7 474.38,-218.43"/>
<polygon fill="#63b8ff" stroke="#63b8ff" points="398.91,-196.75 388.42,-198.23 397.54,-203.62 398.91,-196.75"/>
</a>
</g>
</g>
<!-- Node3&#45;&gt;Node6 -->
<g id="edge6_Node000003_Node000006" class="edge">
<title>Node3&#45;&gt;Node6</title>
<g id="a_edge6_Node000003_Node000006"><a xlink:title=" ">
<path fill="none" stroke="#63b8ff" d="M356.24,-203.29C377.79,-209.16 406.87,-215.76 433,-220.85"/>
<polygon fill="#63b8ff" stroke="#63b8ff" points="357.19,-199.92 346.62,-200.57 355.29,-206.66 357.19,-199.92"/>
</a>
</g>
</g>
<!-- Node7 -->
<g id="Node000007" class="node">
<title>Node7</title>
<g id="a_Node000007"><a xlink:href="class_dm_1_1_transaction_1_1_server.html" target="_top" xlink:title="This concrete class is a &#39;server&#39; that responds to requests from a &#39;client&#39; to generate.">
<polygon fill="white" stroke="#666666" points="564.5,-200.5 431.5,-200.5 431.5,-181.5 564.5,-181.5 564.5,-200.5"/>
<text text-anchor="middle" x="498" y="-188.5" font-family="Helvetica,sans-Serif" font-size="10.00">Dm::Transaction::Server</text>
</a>
</g>
</g>
<!-- Node3&#45;&gt;Node7 -->
<g id="edge7_Node000003_Node000007" class="edge">
<title>Node3&#45;&gt;Node7</title>
<g id="a_edge7_Node000003_Node000007"><a xlink:title=" ">
<path fill="none" stroke="#63b8ff" d="M398.73,-191C409.59,-191 420.71,-191 431.37,-191"/>
<polygon fill="#63b8ff" stroke="#63b8ff" points="398.42,-187.5 388.42,-191 398.42,-194.5 398.42,-187.5"/>
</a>
</g>
</g>
<!-- Node8 -->
<g id="Node000008" class="node">
<title>Node8</title>
<g id="a_Node000008"><a xlink:href="class_itc_1_1_synchronous_1_1_server.html" target="_top" xlink:title="This concrete class is a &#39;server&#39; that flashes the LED.">
<polygon fill="white" stroke="#666666" points="565,-163.5 431,-163.5 431,-144.5 565,-144.5 565,-163.5"/>
<text text-anchor="middle" x="498" y="-151.5" font-family="Helvetica,sans-Serif" font-size="10.00">Itc::Synchronous::Server</text>
</a>
</g>
</g>
<!-- Node3&#45;&gt;Node8 -->
<g id="edge8_Node000003_Node000008" class="edge">
<title>Node3&#45;&gt;Node8</title>
<g id="a_edge8_Node000003_Node000008"><a xlink:title=" ">
<path fill="none" stroke="#63b8ff" d="M378.48,-179.35C402.25,-174.27 429.76,-168.38 452.3,-163.56"/>
<polygon fill="#63b8ff" stroke="#63b8ff" points="377.6,-175.96 368.55,-181.47 379.06,-182.8 377.6,-175.96"/>
</a>
</g>
</g>
<!-- Node9 -->
<g id="Node000009" class="node">
<title>Node9</title>
<g id="a_Node000009"><a xlink:href="class_kit_1_1_logging_1_1_framework_1_1_log_sink.html" target="_top" xlink:title="This class is responsible for consuming the application&#39;s Log buffer and &#39;dispatching&#39; log entries.">
<polygon fill="white" stroke="#666666" points="565.5,-126 430.5,-126 430.5,-96 565.5,-96 565.5,-126"/>
<text text-anchor="start" x="438.5" y="-114" font-family="Helvetica,sans-Serif" font-size="10.00">Kit::Logging::Framework</text>
<text text-anchor="middle" x="498" y="-103" font-family="Helvetica,sans-Serif" font-size="10.00">::LogSink</text>
</a>
</g>
</g>
<!-- Node3&#45;&gt;Node9 -->
<g id="edge9_Node000003_Node000009" class="edge">
<title>Node3&#45;&gt;Node9</title>
<g id="a_edge9_Node000003_Node000009"><a xlink:title=" ">
<path fill="none" stroke="#63b8ff" d="M348.21,-176.13C368.1,-164.31 397.25,-147.83 424,-136 431.96,-132.48 440.59,-129.13 449.03,-126.1"/>
<polygon fill="#63b8ff" stroke="#63b8ff" points="346.27,-173.22 339.5,-181.37 349.88,-179.22 346.27,-173.22"/>
</a>
</g>
</g>
<!-- Node10 -->
<g id="Node000010" class="node">
<title>Node10</title>
<g id="a_Node000010"><a xlink:href="class_kit_1_1_persistence_1_1_record_1_1_journal_1_1_server.html" target="_top" xlink:title="This concrete template class implements the ITC messaging and Model Point monitoring needed to provid...">
<polygon fill="white" stroke="#666666" points="572,-78 424,-78 424,-48 572,-48 572,-78"/>
<text text-anchor="start" x="432" y="-66" font-family="Helvetica,sans-Serif" font-size="10.00">Kit::Persistence::Record</text>
<text text-anchor="middle" x="498" y="-55" font-family="Helvetica,sans-Serif" font-size="10.00">::Journal::Server&lt; ENTRY &gt;</text>
</a>
</g>
</g>
<!-- Node3&#45;&gt;Node10 -->
<g id="edge10_Node000003_Node000010" class="edge">
<title>Node3&#45;&gt;Node10</title>
<g id="a_edge10_Node000003_Node000010"><a xlink:title=" ">
<path fill="none" stroke="#63b8ff" d="M336.61,-173.28C353.86,-150.27 386.93,-110.31 424,-87 429.42,-83.59 435.38,-80.62 441.47,-78.03"/>
<polygon fill="#63b8ff" stroke="#63b8ff" points="333.7,-171.34 330.61,-181.47 339.34,-175.48 333.7,-171.34"/>
</a>
</g>
</g>
<!-- Node11 -->
<g id="Node000011" class="node">
<title>Node11</title>
<g id="a_Node000011"><a xlink:href="class_kit_1_1_persistence_1_1_record_1_1_server.html" target="_top" xlink:title="This concrete class is responsible for starting and stopping a list of IRecords objects,...">
<polygon fill="white" stroke="#666666" points="564,-30 432,-30 432,0 564,0 564,-30"/>
<text text-anchor="start" x="440" y="-18" font-family="Helvetica,sans-Serif" font-size="10.00">Kit::Persistence::Record</text>
<text text-anchor="middle" x="498" y="-7" font-family="Helvetica,sans-Serif" font-size="10.00">::Server</text>
</a>
</g>
</g>
<!-- Node3&#45;&gt;Node11 -->
<g id="edge11_Node000003_Node000011" class="edge">
<title>Node3&#45;&gt;Node11</title>
<g id="a_edge11_Node000003_Node000011"><a xlink:title=" ">
<path fill="none" stroke="#63b8ff" d="M331.68,-171.59C345.4,-139.37 377.12,-74.88 424,-39 428.45,-35.59 433.4,-32.66 438.58,-30.13"/>
<polygon fill="#63b8ff" stroke="#63b8ff" points="328.3,-170.61 327.73,-181.18 334.77,-173.27 328.3,-170.61"/>
</a>
</g>
</g>
</g>
</svg>
