<?xml version="1.0" encoding="UTF-8" standalone="no"?>
<!DOCTYPE svg PUBLIC "-//W3C//DTD SVG 1.1//EN"
 "http://www.w3.org/Graphics/SVG/1.1/DTD/svg11.dtd">
<!-- Generated by graphviz version 2.43.0 (0)
 -->
<!-- Title: Kit::Container::RingBufferBase Pages: 1 -->
<svg width="1122pt" height="192pt"
 viewBox="0.00 0.00 1122.00 191.50" xmlns="http://www.w3.org/2000/svg" xmlns:xlink="http://www.w3.org/1999/xlink">
<g id="graph0" class="graph" transform="scale(1 1) rotate(0) translate(4 187.5)">
<title>Kit::Container::RingBufferBase</title>
<!-- Node1 -->
<g id="Node000001" class="node">
<title>Node1</title>
<g id="a_Node000001"><a xlink:title="This &#39;implementation&#39; class provide the base functionality for a ring buffer.">
<polygon fill="#999999" stroke="#666666" points="164,-114 0,-114 0,-95 164,-95 164,-114"/>
<text text-anchor="middle" x="82" y="-102" font-family="Helvetica,sans-Serif" font-size="10.00">Kit::Container::RingBufferBase</text>
</a>
</g>
</g>
<!-- Node2 -->
<g id="Node000002" class="node">
<title>Node2</title>
<g id="a_Node000002"><a xlink:href="class_kit_1_1_container_1_1_ring_buffer.html" target="_top" xlink:title=" ">
<polygon fill="white" stroke="#666666" points="653,-183.5 513,-183.5 513,-153.5 653,-153.5 653,-183.5"/>
<text text-anchor="start" x="521" y="-171.5" font-family="Helvetica,sans-Serif" font-size="10.00">Kit::Container::RingBuffer</text>
<text text-anchor="middle" x="583" y="-160.5" font-family="Helvetica,sans-Serif" font-size="10.00">&lt; uint8_t &gt;</text>
</a>
</g>
</g>
<!-- Node1&#45;&gt;Node2 -->
<g id="edge1_Node000001_Node000002" class="edge">
<title>Node1&#45;&gt;Node2</title>
<g id="a_edge1_Node000001_Node000002"><a xlink:title=" ">
<path fill="none" stroke="#63b8ff" d="M128.39,-116.67C182.75,-130.63 276.77,-152.83 359,-162.5 410.35,-168.54 468.79,-169.91 512.96,-169.84"/>
<polygon fill="#63b8ff" stroke="#63b8ff" points="128.95,-113.2 118.39,-114.08 127.19,-119.98 128.95,-113.2"/>
</a>
</g>
</g>
<!-- Node3 -->
<g id="Node000003" class="node">
<title>Node3</title>
<g id="a_Node000003"><a xlink:href="class_kit_1_1_container_1_1_ring_buffer.html" target="_top" xlink:title=" ">
<polygon fill="white" stroke="#666666" points="656,-41 510,-41 510,0 656,0 656,-41"/>
<text text-anchor="start" x="518" y="-29" font-family="Helvetica,sans-Serif" font-size="10.00">Kit::Container::RingBuffer</text>
<text text-anchor="start" x="518" y="-18" font-family="Helvetica,sans-Serif" font-size="10.00">&lt; Kit::Logging::Framework</text>
<text text-anchor="middle" x="583" y="-7" font-family="Helvetica,sans-Serif" font-size="10.00">::EntryData_T &gt;</text>
</a>
</g>
</g>
<!-- Node1&#45;&gt;Node3 -->
<g id="edge2_Node000001_Node000003" class="edge">
<title>Node1&#45;&gt;Node3</title>
<g id="a_edge2_Node000001_Node000003"><a xlink:title=" ">
<path fill="none" stroke="#63b8ff" d="M123.43,-91.98C176.81,-76.02 273.97,-48.88 359,-35.5 409.02,-27.63 465.99,-23.88 509.83,-22.11"/>
<polygon fill="#63b8ff" stroke="#63b8ff" points="122.24,-88.69 113.67,-94.92 124.26,-95.39 122.24,-88.69"/>
</a>
</g>
</g>
<!-- Node4 -->
<g id="Node000004" class="node">
<title>Node4</title>
<g id="a_Node000004"><a xlink:href="class_kit_1_1_container_1_1_ring_buffer.html" target="_top" xlink:title="This template class implements a Ring Buffer.">
<polygon fill="white" stroke="#666666" points="341,-119.5 201,-119.5 201,-89.5 341,-89.5 341,-119.5"/>
<text text-anchor="start" x="209" y="-107.5" font-family="Helvetica,sans-Serif" font-size="10.00">Kit::Container::RingBuffer</text>
<text text-anchor="middle" x="271" y="-96.5" font-family="Helvetica,sans-Serif" font-size="10.00">&lt; ITEM &gt;</text>
</a>
</g>
</g>
<!-- Node1&#45;&gt;Node4 -->
<g id="edge3_Node000001_Node000004" class="edge">
<title>Node1&#45;&gt;Node4</title>
<g id="a_edge3_Node000001_Node000004"><a xlink:title=" ">
<path fill="none" stroke="#63b8ff" d="M174.28,-104.5C183.22,-104.5 192.2,-104.5 200.87,-104.5"/>
<polygon fill="#63b8ff" stroke="#63b8ff" points="174.21,-101 164.21,-104.5 174.21,-108 174.21,-101"/>
</a>
</g>
</g>
<!-- Node4&#45;&gt;Node2 -->
<g id="edge7_Node000004_Node000002" class="edge">
<title>Node4&#45;&gt;Node2</title>
<g id="a_edge7_Node000004_Node000002"><a xlink:title=" ">
<path fill="none" stroke="orange" stroke-dasharray="5,2" d="M333.02,-122.14C341.71,-124.42 350.56,-126.61 359,-128.5 417.54,-141.6 432.97,-140.82 492,-151.5 498.73,-152.72 505.74,-154.01 512.74,-155.31"/>
<polygon fill="orange" stroke="orange" points="333.88,-118.75 323.31,-119.55 332.07,-125.51 333.88,-118.75"/>
</a>
</g>
<text text-anchor="middle" x="425.5" y="-154.5" font-family="Helvetica,sans-Serif" font-size="10.00" fill="grey"> &lt; uint8_t &gt;</text>
</g>
<!-- Node4&#45;&gt;Node3 -->
<g id="edge8_Node000004_Node000003" class="edge">
<title>Node4&#45;&gt;Node3</title>
<g id="a_edge8_Node000004_Node000003"><a xlink:title=" ">
<path fill="none" stroke="orange" stroke-dasharray="5,2" d="M303.93,-83.94C319.9,-74.54 339.86,-64.05 359,-57.5 373.22,-52.63 450.33,-40.33 509.94,-31.24"/>
<polygon fill="orange" stroke="orange" points="301.78,-81.15 295.03,-89.31 305.4,-87.14 301.78,-81.15"/>
</a>
</g>
<text text-anchor="start" x="359" y="-71.5" font-family="Helvetica,sans-Serif" font-size="10.00" fill="grey"> &lt; Kit::Logging::Framework</text>
<text text-anchor="middle" x="425.5" y="-60.5" font-family="Helvetica,sans-Serif" font-size="10.00" fill="grey">::EntryData_T &gt;</text>
</g>
<!-- Node5 -->
<g id="Node000005" class="node">
<title>Node5</title>
<g id="a_Node000005"><a xlink:href="class_kit_1_1_container_1_1_ring_buffer_allocate.html" target="_top" xlink:title=" ">
<polygon fill="white" stroke="#666666" points="1114,-119 893,-119 893,-56 1114,-56 1114,-119"/>
<text text-anchor="start" x="901" y="-107" font-family="Helvetica,sans-Serif" font-size="10.00">Kit::Container::RingBuffer</text>
<text text-anchor="start" x="901" y="-96" font-family="Helvetica,sans-Serif" font-size="10.00">Allocate&lt; Kit::Logging</text>
<text text-anchor="start" x="901" y="-85" font-family="Helvetica,sans-Serif" font-size="10.00">::Framework::EntryData_T,</text>
<text text-anchor="start" x="901" y="-74" font-family="Helvetica,sans-Serif" font-size="10.00"> OPTION_KIT_LOGGING_FRAMEWORK</text>
<text text-anchor="middle" x="1003.5" y="-63" font-family="Helvetica,sans-Serif" font-size="10.00">_MOCKED4TEST_MAX_LOG_ENTRIES+1 &gt;</text>
</a>
</g>
</g>
<!-- Node4&#45;&gt;Node5 -->
<g id="edge4_Node000004_Node000005" class="edge">
<title>Node4&#45;&gt;Node5</title>
<g id="a_edge4_Node000004_Node000005"><a xlink:title=" ">
<path fill="none" stroke="#63b8ff" d="M351.43,-107.48C466.86,-111.1 687.63,-115.37 875,-103.5 880.79,-103.13 886.72,-102.68 892.7,-102.15"/>
<polygon fill="#63b8ff" stroke="#63b8ff" points="351.38,-103.97 341.27,-107.15 351.16,-110.97 351.38,-103.97"/>
</a>
</g>
</g>
<!-- Node6 -->
<g id="Node000006" class="node">
<title>Node6</title>
<g id="a_Node000006"><a xlink:href="class_kit_1_1_container_1_1_ring_buffer_allocate.html" target="_top" xlink:title="This template class extends the RingBuffer class by statically allocating memory for the ring buffer.">
<polygon fill="white" stroke="#666666" points="653,-89.5 513,-89.5 513,-59.5 653,-59.5 653,-89.5"/>
<text text-anchor="start" x="521" y="-77.5" font-family="Helvetica,sans-Serif" font-size="10.00">Kit::Container::RingBuffer</text>
<text text-anchor="middle" x="583" y="-66.5" font-family="Helvetica,sans-Serif" font-size="10.00">Allocate&lt; ITEM, N &gt;</text>
</a>
</g>
</g>
<!-- Node4&#45;&gt;Node6 -->
<g id="edge5_Node000004_Node000006" class="edge">
<title>Node4&#45;&gt;Node6</title>
<g id="a_edge5_Node000004_Node000006"><a xlink:title=" ">
<path fill="none" stroke="#63b8ff" d="M351.29,-96.83C401.17,-92 464.92,-85.83 512.76,-81.2"/>
<polygon fill="#63b8ff" stroke="#63b8ff" points="350.8,-93.36 341.18,-97.8 351.47,-100.33 350.8,-93.36"/>
</a>
</g>
</g>
<!-- Node6&#45;&gt;Node5 -->
<g id="edge6_Node000006_Node000005" class="edge">
<title>Node6&#45;&gt;Node5</title>
<g id="a_edge6_Node000006_Node000005"><a xlink:title=" ">
<path fill="none" stroke="orange" stroke-dasharray="5,2" d="M663.33,-60.54C666.93,-60.14 670.5,-59.79 674,-59.5 763.03,-52.13 786.19,-49.86 875,-59.5 880.86,-60.14 886.84,-60.93 892.86,-61.85"/>
<polygon fill="orange" stroke="orange" points="662.64,-57.1 653.14,-61.79 663.49,-64.05 662.64,-57.1"/>
</a>
</g>
<text text-anchor="start" x="674" y="-95.5" font-family="Helvetica,sans-Serif" font-size="10.00" fill="grey"> &lt; Kit::Logging::Framework</text>
<text text-anchor="start" x="674" y="-84.5" font-family="Helvetica,sans-Serif" font-size="10.00" fill="grey">::EntryData_T, OPTION_KIT</text>
<text text-anchor="start" x="674" y="-73.5" font-family="Helvetica,sans-Serif" font-size="10.00" fill="grey">_LOGGING_FRAMEWORK_MOCKED4TEST</text>
<text text-anchor="middle" x="774.5" y="-62.5" font-family="Helvetica,sans-Serif" font-size="10.00" fill="grey">_MAX_LOG_ENTRIES+1 &gt;</text>
</g>
</g>
</svg>
