<?xml version="1.0" encoding="UTF-8" standalone="no"?>
<!DOCTYPE svg PUBLIC "-//W3C//DTD SVG 1.1//EN"
 "http://www.w3.org/Graphics/SVG/1.1/DTD/svg11.dtd">
<!-- Generated by graphviz version 2.43.0 (0)
 -->
<!-- Title: Kit::EventQueue::Server Pages: 1 -->
<svg width="2165pt" height="393pt"
 viewBox="0.00 0.00 2165.00 393.00" xmlns="http://www.w3.org/2000/svg" xmlns:xlink="http://www.w3.org/1999/xlink">
<g id="graph0" class="graph" transform="scale(1 1) rotate(0) translate(4 389)">
<title>Kit::EventQueue::Server</title>
<!-- Node1 -->
<g id="Node000001" class="node">
<title>Node1</title>
<g id="a_Node000001"><a xlink:title="This concrete class extends the Kit::System::EventLoop interface to include processing events from Ev...">
<polygon fill="#999999" stroke="#666666" points="2157,-286.5 2024,-286.5 2024,-267.5 2157,-267.5 2157,-286.5"/>
<text text-anchor="middle" x="2090.5" y="-274.5" font-family="Helvetica,sans-Serif" font-size="10.00">Kit::EventQueue::Server</text>
</a>
</g>
</g>
<!-- Node2 -->
<g id="Node000002" class="node">
<title>Node2</title>
<g id="a_Node000002"><a xlink:href="class_kit_1_1_itc_1_1_mailbox.html" target="_top" xlink:title="This mailbox class implements an Inter Thread Communications message queue.">
<polygon fill="white" stroke="#666666" points="1385,-348.5 1292,-348.5 1292,-329.5 1385,-329.5 1385,-348.5"/>
<text text-anchor="middle" x="1338.5" y="-336.5" font-family="Helvetica,sans-Serif" font-size="10.00">Kit::Itc::Mailbox</text>
</a>
</g>
</g>
<!-- Node2&#45;&gt;Node1 -->
<g id="edge1_Node000001_Node000002" class="edge">
<title>Node2&#45;&gt;Node1</title>
<g id="a_edge1_Node000001_Node000002"><a xlink:title=" ">
<path fill="none" stroke="#63b8ff" d="M1395.31,-338.18C1487.77,-336.41 1678.45,-330.99 1839,-315 1907.72,-308.16 1986.37,-295.41 2036.92,-286.58"/>
<polygon fill="#63b8ff" stroke="#63b8ff" points="1395,-334.69 1385.07,-338.37 1395.13,-341.69 1395,-334.69"/>
</a>
</g>
</g>
<!-- Node3 -->
<g id="Node000003" class="node">
<title>Node3</title>
<g id="a_Node000003"><a xlink:href="class_kit_1_1_event_queue_1_1_i_queue.html" target="_top" xlink:title="This abstract class represents an Event Queue where events can be delivered to.">
<polygon fill="white" stroke="#666666" points="1092.5,-336.5 956.5,-336.5 956.5,-317.5 1092.5,-317.5 1092.5,-336.5"/>
<text text-anchor="middle" x="1024.5" y="-324.5" font-family="Helvetica,sans-Serif" font-size="10.00">Kit::EventQueue::IQueue</text>
</a>
</g>
</g>
<!-- Node3&#45;&gt;Node2 -->
<g id="edge2_Node000002_Node000003" class="edge">
<title>Node3&#45;&gt;Node2</title>
<g id="a_edge2_Node000002_Node000003"><a xlink:title=" ">
<path fill="none" stroke="#63b8ff" d="M1102.92,-329.98C1162.37,-332.26 1242.44,-335.34 1291.98,-337.25"/>
<polygon fill="#63b8ff" stroke="#63b8ff" points="1102.94,-326.48 1092.82,-329.59 1102.67,-333.47 1102.94,-326.48"/>
</a>
</g>
</g>
<!-- Node4 -->
<g id="Node000004" class="node">
<title>Node4</title>
<g id="a_Node000004"><a xlink:title=" ">
<polygon fill="white" stroke="#bfbfbf" points="772,-342 599,-342 599,-312 772,-312 772,-342"/>
<text text-anchor="start" x="607" y="-330" font-family="Helvetica,sans-Serif" font-size="10.00">KIT_EVENT_QUEUE_SUPPORTED</text>
<text text-anchor="middle" x="685.5" y="-319" font-family="Helvetica,sans-Serif" font-size="10.00">_EVENT_TYPES</text>
</a>
</g>
</g>
<!-- Node4&#45;&gt;Node3 -->
<g id="edge3_Node000003_Node000004" class="edge">
<title>Node4&#45;&gt;Node3</title>
<g id="a_edge3_Node000003_Node000004"><a xlink:title=" ">
<path fill="none" stroke="#8b1a1a" d="M782.62,-327C838.14,-327 906.61,-327 956.34,-327"/>
<polygon fill="#8b1a1a" stroke="#8b1a1a" points="782.41,-323.5 772.41,-327 782.41,-330.5 782.41,-323.5"/>
</a>
</g>
</g>
<!-- Node5 -->
<g id="Node000005" class="node">
<title>Node5</title>
<g id="a_Node000005"><a xlink:href="class_kit_1_1_container_1_1_s_list.html" target="_top" xlink:title=" ">
<polygon fill="white" stroke="#666666" points="1081,-385 968,-385 968,-355 1081,-355 1081,-385"/>
<text text-anchor="start" x="976" y="-373" font-family="Helvetica,sans-Serif" font-size="10.00">Kit::Container::SList</text>
<text text-anchor="middle" x="1024.5" y="-362" font-family="Helvetica,sans-Serif" font-size="10.00">&lt; IMessage &gt;</text>
</a>
</g>
</g>
<!-- Node5&#45;&gt;Node2 -->
<g id="edge4_Node000002_Node000005" class="edge">
<title>Node5&#45;&gt;Node2</title>
<g id="a_edge4_Node000002_Node000005"><a xlink:title=" ">
<path fill="none" stroke="#63b8ff" d="M1091.44,-363.45C1151.63,-357.47 1239.01,-348.79 1291.83,-343.54"/>
<polygon fill="#63b8ff" stroke="#63b8ff" points="1090.88,-359.99 1081.28,-364.46 1091.58,-366.95 1090.88,-359.99"/>
</a>
</g>
</g>
<!-- Node6 -->
<g id="Node000006" class="node">
<title>Node6</title>
<g id="a_Node000006"><a xlink:href="class_kit_1_1_container_1_1_s_list_base.html" target="_top" xlink:title="This protected base class implements a NON&#45;TYPE&#45;SAFE a singly linked list which maintains the orderin...">
<polygon fill="white" stroke="#666666" points="507,-260.5 370,-260.5 370,-241.5 507,-241.5 507,-260.5"/>
<text text-anchor="middle" x="438.5" y="-248.5" font-family="Helvetica,sans-Serif" font-size="10.00">Kit::Container::SListBase</text>
</a>
</g>
</g>
<!-- Node6&#45;&gt;Node5 -->
<g id="edge5_Node000005_Node000006" class="edge">
<title>Node6&#45;&gt;Node5</title>
<g id="a_edge5_Node000005_Node000006"><a xlink:title=" ">
<path fill="none" stroke="#63b8ff" d="M458.31,-267.44C486.59,-291 542.73,-333.45 599,-351 726.12,-390.65 885.01,-383.83 967.68,-376.36"/>
<polygon fill="#63b8ff" stroke="#63b8ff" points="460.36,-264.58 450.47,-260.78 455.83,-269.92 460.36,-264.58"/>
</a>
</g>
</g>
<!-- Node9 -->
<g id="Node000009" class="node">
<title>Node9</title>
<g id="a_Node000009"><a xlink:href="class_kit_1_1_container_1_1_s_list.html" target="_top" xlink:title="This template class implements a singly linked list which maintains the ordering imposed on it by the...">
<polygon fill="white" stroke="#666666" points="742,-292 629,-292 629,-262 742,-262 742,-292"/>
<text text-anchor="start" x="637" y="-280" font-family="Helvetica,sans-Serif" font-size="10.00">Kit::Container::SList</text>
<text text-anchor="middle" x="685.5" y="-269" font-family="Helvetica,sans-Serif" font-size="10.00">&lt; ITEM &gt;</text>
</a>
</g>
</g>
<!-- Node6&#45;&gt;Node9 -->
<g id="edge10_Node000009_Node000006" class="edge">
<title>Node6&#45;&gt;Node9</title>
<g id="a_edge10_Node000009_Node000006"><a xlink:title=" ">
<path fill="none" stroke="#63b8ff" d="M517.14,-259.24C553.38,-263.08 595.69,-267.57 628.7,-271.08"/>
<polygon fill="#63b8ff" stroke="#63b8ff" points="517.41,-255.75 507.1,-258.17 516.67,-262.71 517.41,-255.75"/>
</a>
</g>
</g>
<!-- Node21 -->
<g id="Node000021" class="node">
<title>Node21</title>
<g id="a_Node000021"><a xlink:href="class_kit_1_1_container_1_1_s_list.html" target="_top" xlink:title=" ">
<polygon fill="white" stroke="#666666" points="1101,-282 948,-282 948,-252 1101,-252 1101,-282"/>
<text text-anchor="start" x="956" y="-270" font-family="Helvetica,sans-Serif" font-size="10.00">Kit::Container::SList</text>
<text text-anchor="middle" x="1024.5" y="-259" font-family="Helvetica,sans-Serif" font-size="10.00">&lt; Kit::System::IEventFlag &gt;</text>
</a>
</g>
</g>
<!-- Node6&#45;&gt;Node21 -->
<g id="edge31_Node000021_Node000006" class="edge">
<title>Node6&#45;&gt;Node21</title>
<g id="a_edge31_Node000021_Node000006"><a xlink:title=" ">
<path fill="none" stroke="#63b8ff" d="M517.13,-250.49C584.53,-250.28 684.73,-250.53 772,-253 842.28,-254.99 859.8,-256.97 930,-261 935.85,-261.34 941.9,-261.7 947.98,-262.07"/>
<polygon fill="#63b8ff" stroke="#63b8ff" points="517.01,-246.99 507.02,-250.53 517.03,-253.99 517.01,-246.99"/>
</a>
</g>
</g>
<!-- Node7 -->
<g id="Node000007" class="node">
<title>Node7</title>
<g id="a_Node000007"><a xlink:href="class_kit_1_1_container_1_1_list_item.html" target="_top" xlink:title="This class is used by the Container classes to implement a various types of linked lists containers.">
<polygon fill="white" stroke="#666666" points="278,-111.5 149,-111.5 149,-92.5 278,-92.5 278,-111.5"/>
<text text-anchor="middle" x="213.5" y="-99.5" font-family="Helvetica,sans-Serif" font-size="10.00">Kit::Container::ListItem</text>
</a>
</g>
</g>
<!-- Node7&#45;&gt;Node6 -->
<g id="edge6_Node000006_Node000007" class="edge">
<title>Node7&#45;&gt;Node6</title>
<g id="a_edge6_Node000006_Node000007"><a xlink:title=" ">
<path fill="none" stroke="#9a32cd" stroke-dasharray="5,2" d="M237.15,-117.13C282.9,-147.7 385.18,-216.04 423.04,-241.34"/>
<polygon fill="#9a32cd" stroke="#9a32cd" points="239.05,-114.19 228.79,-111.55 235.16,-120.01 239.05,-114.19"/>
</a>
</g>
<text text-anchor="middle" x="324" y="-204" font-family="Helvetica,sans-Serif" font-size="10.00" fill="grey"> m_headPtr</text>
<text text-anchor="middle" x="324" y="-193" font-family="Helvetica,sans-Serif" font-size="10.00" fill="grey">m_tailPtr</text>
</g>
<!-- Node7&#45;&gt;Node7 -->
<g id="edge8_Node000007_Node000007" class="edge">
<title>Node7&#45;&gt;Node7</title>
<g id="a_edge8_Node000007_Node000007"><a xlink:title=" ">
<path fill="none" stroke="#9a32cd" stroke-dasharray="5,2" d="M198.4,-121.41C199.59,-126.06 204.62,-129.5 213.5,-129.5 228.07,-129.5 232.29,-120.23 226.14,-111.58"/>
<polygon fill="#9a32cd" stroke="#9a32cd" points="201.83,-122.13 200.86,-111.58 195.04,-120.43 201.83,-122.13"/>
</a>
</g>
<text text-anchor="middle" x="213.5" y="-132.5" font-family="Helvetica,sans-Serif" font-size="10.00" fill="grey"> m_nextPtr_</text>
</g>
<!-- Node13 -->
<g id="Node000013" class="node">
<title>Node13</title>
<g id="a_Node000013"><a xlink:href="class_kit_1_1_system_1_1_thread.html" target="_top" xlink:title="This mostly abstract class defines the operations that can be performed on a thread.">
<polygon fill="white" stroke="#666666" points="1395,-117.5 1282,-117.5 1282,-98.5 1395,-98.5 1395,-117.5"/>
<text text-anchor="middle" x="1338.5" y="-105.5" font-family="Helvetica,sans-Serif" font-size="10.00">Kit::System::Thread</text>
</a>
</g>
</g>
<!-- Node7&#45;&gt;Node13 -->
<g id="edge16_Node000013_Node000007" class="edge">
<title>Node7&#45;&gt;Node13</title>
<g id="a_edge16_Node000013_Node000007"><a xlink:title=" ">
<path fill="none" stroke="#63b8ff" d="M288.61,-102C332,-102 387.86,-102 437.5,-102 437.5,-102 437.5,-102 1025.5,-102 1115.3,-102 1219.61,-104.52 1281.99,-106.29"/>
<polygon fill="#63b8ff" stroke="#63b8ff" points="288.42,-98.5 278.42,-102 288.42,-105.5 288.42,-98.5"/>
</a>
</g>
</g>
<!-- Node18 -->
<g id="Node000018" class="node">
<title>Node18</title>
<g id="a_Node000018"><a xlink:href="class_kit_1_1_container_1_1_extended_list_item.html" target="_top" xlink:title="This class is used by the Container classes to implement a various types of DOUBLY linked containers.">
<polygon fill="white" stroke="#666666" points="506,-45 371,-45 371,-15 506,-15 506,-45"/>
<text text-anchor="start" x="379" y="-33" font-family="Helvetica,sans-Serif" font-size="10.00">Kit::Container::Extended</text>
<text text-anchor="middle" x="438.5" y="-22" font-family="Helvetica,sans-Serif" font-size="10.00">ListItem</text>
</a>
</g>
</g>
<!-- Node7&#45;&gt;Node18 -->
<g id="edge24_Node000018_Node000007" class="edge">
<title>Node7&#45;&gt;Node18</title>
<g id="a_edge24_Node000018_Node000007"><a xlink:title=" ">
<path fill="none" stroke="#63b8ff" d="M253.85,-89.29C292.06,-76.96 350.07,-58.23 390.64,-45.13"/>
<polygon fill="#63b8ff" stroke="#63b8ff" points="252.55,-86.04 244.11,-92.44 254.7,-92.7 252.55,-86.04"/>
</a>
</g>
</g>
<!-- Node8 -->
<g id="Node000008" class="node">
<title>Node8</title>
<g id="a_Node000008"><a xlink:href="class_kit_1_1_container_1_1_item.html" target="_top" xlink:title="This class is used by the Intrusive Container classes to enforce the semantic and item/element can be...">
<polygon fill="white" stroke="#666666" points="112,-111.5 0,-111.5 0,-92.5 112,-92.5 112,-111.5"/>
<text text-anchor="middle" x="56" y="-99.5" font-family="Helvetica,sans-Serif" font-size="10.00">Kit::Container::Item</text>
</a>
</g>
</g>
<!-- Node8&#45;&gt;Node7 -->
<g id="edge7_Node000007_Node000008" class="edge">
<title>Node8&#45;&gt;Node7</title>
<g id="a_edge7_Node000007_Node000008"><a xlink:title=" ">
<path fill="none" stroke="#63b8ff" d="M122.43,-102C131.2,-102 140.19,-102 148.93,-102"/>
<polygon fill="#63b8ff" stroke="#63b8ff" points="122.26,-98.5 112.26,-102 122.26,-105.5 122.26,-98.5"/>
</a>
</g>
</g>
<!-- Node9&#45;&gt;Node5 -->
<g id="edge9_Node000005_Node000009" class="edge">
<title>Node9&#45;&gt;Node5</title>
<g id="a_edge9_Node000005_Node000009"><a xlink:title=" ">
<path fill="none" stroke="orange" stroke-dasharray="5,2" d="M750.88,-294.77C814.11,-312.21 909.5,-338.54 969.06,-354.98"/>
<polygon fill="orange" stroke="orange" points="751.59,-291.33 741.02,-292.05 749.73,-298.08 751.59,-291.33"/>
</a>
</g>
<text text-anchor="middle" x="860" y="-345" font-family="Helvetica,sans-Serif" font-size="10.00" fill="grey"> &lt; IMessage &gt;</text>
</g>
<!-- Node9&#45;&gt;Node21 -->
<g id="edge32_Node000021_Node000009" class="edge">
<title>Node9&#45;&gt;Node21</title>
<g id="a_edge32_Node000021_Node000009"><a xlink:title=" ">
<path fill="none" stroke="orange" stroke-dasharray="5,2" d="M752.01,-270.48C764.6,-269.46 777.7,-268.56 790,-268 842.65,-265.6 902.04,-265.38 947.75,-265.75"/>
<polygon fill="orange" stroke="orange" points="751.71,-266.99 742.04,-271.32 752.3,-273.97 751.71,-266.99"/>
</a>
</g>
<text text-anchor="middle" x="860" y="-271" font-family="Helvetica,sans-Serif" font-size="10.00" fill="grey"> &lt; Kit::System::IEventFlag &gt;</text>
</g>
<!-- Node10 -->
<g id="Node000010" class="node">
<title>Node10</title>
<g id="a_Node000010"><a xlink:href="class_kit_1_1_system_1_1_i_signable.html" target="_top" xlink:title="This abstract class defines the interface by which a client can cause an object that is waiting&#45;on&#45;a&#45;...">
<polygon fill="white" stroke="#666666" points="1086.5,-180.5 962.5,-180.5 962.5,-161.5 1086.5,-161.5 1086.5,-180.5"/>
<text text-anchor="middle" x="1024.5" y="-168.5" font-family="Helvetica,sans-Serif" font-size="10.00">Kit::System::ISignable</text>
</a>
</g>
</g>
<!-- Node10&#45;&gt;Node2 -->
<g id="edge11_Node000002_Node000010" class="edge">
<title>Node10&#45;&gt;Node2</title>
<g id="a_edge11_Node000002_Node000010"><a xlink:title=" ">
<path fill="none" stroke="#9a32cd" stroke-dasharray="5,2" d="M1052.35,-185.46C1114.59,-218.97 1267.39,-301.25 1319.64,-329.38"/>
<polygon fill="#9a32cd" stroke="#9a32cd" points="1053.63,-182.17 1043.17,-180.51 1050.31,-188.34 1053.63,-182.17"/>
</a>
</g>
<text text-anchor="middle" x="1184" y="-292" font-family="Helvetica,sans-Serif" font-size="10.00" fill="grey"> m_eventLoop</text>
</g>
<!-- Node11 -->
<g id="Node000011" class="node">
<title>Node11</title>
<g id="a_Node000011"><a xlink:href="class_kit_1_1_system_1_1_event_loop.html" target="_top" xlink:title="This concrete class is a IRunnable object that provides a event driven execution model for a thread.">
<polygon fill="white" stroke="#666666" points="1987,-207.5 1857,-207.5 1857,-188.5 1987,-188.5 1987,-207.5"/>
<text text-anchor="middle" x="1922" y="-195.5" font-family="Helvetica,sans-Serif" font-size="10.00">Kit::System::EventLoop</text>
</a>
</g>
</g>
<!-- Node10&#45;&gt;Node11 -->
<g id="edge19_Node000011_Node000010" class="edge">
<title>Node10&#45;&gt;Node11</title>
<g id="a_edge19_Node000011_Node000010"><a xlink:title=" ">
<path fill="none" stroke="#63b8ff" d="M1097.06,-163.9C1228.08,-152.25 1515.12,-132.89 1755,-160 1802.45,-165.36 1856.09,-179.08 1889.24,-188.48"/>
<polygon fill="#63b8ff" stroke="#63b8ff" points="1096.41,-160.45 1086.76,-164.83 1097.04,-167.42 1096.41,-160.45"/>
</a>
</g>
</g>
<!-- Node10&#45;&gt;Node13 -->
<g id="edge15_Node000013_Node000010" class="edge">
<title>Node10&#45;&gt;Node13</title>
<g id="a_edge15_Node000013_Node000010"><a xlink:title=" ">
<path fill="none" stroke="#63b8ff" d="M1061.07,-158.1C1078.37,-152.21 1099.58,-145.55 1119,-141 1173.72,-128.18 1237.37,-119.22 1281.8,-113.91"/>
<polygon fill="#63b8ff" stroke="#63b8ff" points="1059.69,-154.88 1051.38,-161.46 1061.98,-161.49 1059.69,-154.88"/>
</a>
</g>
</g>
<!-- Node20 -->
<g id="Node000020" class="node">
<title>Node20</title>
<g id="a_Node000020"><a xlink:href="class_kit_1_1_system_1_1_semaphore.html" target="_top" xlink:title="This semaphore concrete class defines the interface for a Counting Semaphore.">
<polygon fill="white" stroke="#666666" points="1562,-241.5 1428,-241.5 1428,-222.5 1562,-222.5 1562,-241.5"/>
<text text-anchor="middle" x="1495" y="-229.5" font-family="Helvetica,sans-Serif" font-size="10.00">Kit::System::Semaphore</text>
</a>
</g>
</g>
<!-- Node10&#45;&gt;Node20 -->
<g id="edge29_Node000020_Node000010" class="edge">
<title>Node10&#45;&gt;Node20</title>
<g id="a_edge29_Node000020_Node000010"><a xlink:title=" ">
<path fill="none" stroke="#63b8ff" d="M1096.86,-180.29C1186.85,-192.01 1340.36,-212 1427.83,-223.38"/>
<polygon fill="#63b8ff" stroke="#63b8ff" points="1097.12,-176.8 1086.75,-178.97 1096.21,-183.74 1097.12,-176.8"/>
</a>
</g>
</g>
<!-- Node11&#45;&gt;Node1 -->
<g id="edge12_Node000001_Node000011" class="edge">
<title>Node11&#45;&gt;Node1</title>
<g id="a_edge12_Node000001_Node000011"><a xlink:title=" ">
<path fill="none" stroke="#63b8ff" d="M1952.4,-211.95C1986.02,-227.9 2040.18,-253.6 2069.34,-267.44"/>
<polygon fill="#63b8ff" stroke="#63b8ff" points="1953.62,-208.65 1943.08,-207.53 1950.62,-214.98 1953.62,-208.65"/>
</a>
</g>
</g>
<!-- Node12 -->
<g id="Node000012" class="node">
<title>Node12</title>
<g id="a_Node000012"><a xlink:href="class_kit_1_1_system_1_1_i_runnable.html" target="_top" xlink:title="This mostly an abstract class defines the interface for an object that is &quot;executed&quot; when a Thread ob...">
<polygon fill="white" stroke="#666666" points="1731.5,-112.5 1603.5,-112.5 1603.5,-93.5 1731.5,-93.5 1731.5,-112.5"/>
<text text-anchor="middle" x="1667.5" y="-100.5" font-family="Helvetica,sans-Serif" font-size="10.00">Kit::System::IRunnable</text>
</a>
</g>
</g>
<!-- Node12&#45;&gt;Node11 -->
<g id="edge13_Node000011_Node000012" class="edge">
<title>Node12&#45;&gt;Node11</title>
<g id="a_edge13_Node000011_Node000012"><a xlink:title=" ">
<path fill="none" stroke="#63b8ff" d="M1741.98,-104.2C1773.05,-106.99 1808.93,-113.33 1839,-127 1871.06,-141.58 1900.03,-172.74 1913.33,-188.48"/>
<polygon fill="#63b8ff" stroke="#63b8ff" points="1741.88,-100.68 1731.64,-103.38 1741.33,-107.66 1741.88,-100.68"/>
</a>
</g>
</g>
<!-- Node12&#45;&gt;Node13 -->
<g id="edge17_Node000013_Node000012" class="edge">
<title>Node12&#45;&gt;Node13</title>
<g id="a_edge17_Node000013_Node000012"><a xlink:title=" ">
<path fill="none" stroke="#9a32cd" stroke-dasharray="5,2" d="M1593.34,-93.52C1582.84,-92.48 1572.15,-91.58 1562,-91 1502.54,-87.6 1487.29,-85.36 1428,-91 1412.27,-92.5 1395.18,-95.46 1380.24,-98.5"/>
<polygon fill="#9a32cd" stroke="#9a32cd" points="1593.02,-97.01 1603.33,-94.57 1593.74,-90.05 1593.02,-97.01"/>
</a>
</g>
<text text-anchor="middle" x="1495" y="-94" font-family="Helvetica,sans-Serif" font-size="10.00" fill="grey"> m_runnable</text>
</g>
<!-- Node13&#45;&gt;Node12 -->
<g id="edge14_Node000012_Node000013" class="edge">
<title>Node13&#45;&gt;Node12</title>
<g id="a_edge14_Node000012_Node000013"><a xlink:title=" ">
<path fill="none" stroke="#9a32cd" stroke-dasharray="5,2" d="M1405.45,-106.99C1463.17,-106.11 1546.46,-104.84 1603.34,-103.97"/>
<polygon fill="#9a32cd" stroke="#9a32cd" points="1405.29,-103.49 1395.34,-107.15 1405.39,-110.49 1405.29,-103.49"/>
</a>
</g>
<text text-anchor="middle" x="1495" y="-110" font-family="Helvetica,sans-Serif" font-size="10.00" fill="grey"> m_parentThreadPtr_</text>
</g>
<!-- Node14 -->
<g id="Node000014" class="node">
<title>Node14</title>
<g id="a_Node000014"><a xlink:href="class_kit_1_1_system_1_1_i_event_manager.html" target="_top" xlink:title="This abstract class defines the interface to signal a &#39;Event Flag&#39;.">
<polygon fill="white" stroke="#666666" points="1743.5,-188.5 1591.5,-188.5 1591.5,-169.5 1743.5,-169.5 1743.5,-188.5"/>
<text text-anchor="middle" x="1667.5" y="-176.5" font-family="Helvetica,sans-Serif" font-size="10.00">Kit::System::IEventManager</text>
</a>
</g>
</g>
<!-- Node14&#45;&gt;Node11 -->
<g id="edge18_Node000011_Node000014" class="edge">
<title>Node14&#45;&gt;Node11</title>
<g id="a_edge18_Node000011_Node000014"><a xlink:title=" ">
<path fill="none" stroke="#63b8ff" d="M1753.88,-185.42C1787.57,-187.96 1825.62,-190.82 1856.89,-193.18"/>
<polygon fill="#63b8ff" stroke="#63b8ff" points="1753.81,-181.91 1743.57,-184.65 1753.28,-188.89 1753.81,-181.91"/>
</a>
</g>
</g>
<!-- Node15 -->
<g id="Node000015" class="node">
<title>Node15</title>
<g id="a_Node000015"><a xlink:href="class_kit_1_1_system_1_1_timer_manager.html" target="_top" xlink:title="This concrete class implements manages a list of Software Timers.">
<polygon fill="white" stroke="#666666" points="1742.5,-71.5 1592.5,-71.5 1592.5,-52.5 1742.5,-52.5 1742.5,-71.5"/>
<text text-anchor="middle" x="1667.5" y="-59.5" font-family="Helvetica,sans-Serif" font-size="10.00">Kit::System::TimerManager</text>
</a>
</g>
</g>
<!-- Node15&#45;&gt;Node11 -->
<g id="edge20_Node000011_Node000015" class="edge">
<title>Node15&#45;&gt;Node11</title>
<g id="a_edge20_Node000011_Node000015"><a xlink:title=" ">
<path fill="none" stroke="#63b8ff" d="M1752.86,-72.87C1781.67,-79.21 1813.12,-89.22 1839,-105 1874.84,-126.85 1903.66,-169.37 1915.36,-188.4"/>
<polygon fill="#63b8ff" stroke="#63b8ff" points="1753.29,-69.39 1742.79,-70.78 1751.87,-76.24 1753.29,-69.39"/>
</a>
</g>
</g>
<!-- Node16 -->
<g id="Node000016" class="node">
<title>Node16</title>
<g id="a_Node000016"><a xlink:href="class_kit_1_1_container_1_1_d_list.html" target="_top" xlink:title=" ">
<polygon fill="white" stroke="#666666" points="1410,-62 1267,-62 1267,-32 1410,-32 1410,-62"/>
<text text-anchor="start" x="1275" y="-50" font-family="Helvetica,sans-Serif" font-size="10.00">Kit::Container::DList</text>
<text text-anchor="middle" x="1338.5" y="-39" font-family="Helvetica,sans-Serif" font-size="10.00">&lt; Kit::System::ICounter &gt;</text>
</a>
</g>
</g>
<!-- Node16&#45;&gt;Node15 -->
<g id="edge21_Node000015_Node000016" class="edge">
<title>Node16&#45;&gt;Node15</title>
<g id="a_edge21_Node000015_Node000016"><a xlink:title=" ">
<path fill="none" stroke="#9a32cd" stroke-dasharray="5,2" d="M1420.36,-50.71C1473,-53.12 1541.15,-56.25 1592.39,-58.6"/>
<polygon fill="#9a32cd" stroke="#9a32cd" points="1420.2,-47.2 1410.05,-50.24 1419.88,-54.19 1420.2,-47.2"/>
</a>
</g>
<text text-anchor="middle" x="1495" y="-72" font-family="Helvetica,sans-Serif" font-size="10.00" fill="grey"> m_counters</text>
<text text-anchor="middle" x="1495" y="-61" font-family="Helvetica,sans-Serif" font-size="10.00" fill="grey">m_pendingAttach</text>
</g>
<!-- Node17 -->
<g id="Node000017" class="node">
<title>Node17</title>
<g id="a_Node000017"><a xlink:href="class_kit_1_1_container_1_1_d_list_base.html" target="_top" xlink:title="This protected base class implements a NON&#45;TYPE&#45;SAFE a doubly linked list which maintains the orderin...">
<polygon fill="white" stroke="#666666" points="754.5,-39.5 616.5,-39.5 616.5,-20.5 754.5,-20.5 754.5,-39.5"/>
<text text-anchor="middle" x="685.5" y="-27.5" font-family="Helvetica,sans-Serif" font-size="10.00">Kit::Container::DListBase</text>
</a>
</g>
</g>
<!-- Node17&#45;&gt;Node16 -->
<g id="edge22_Node000016_Node000017" class="edge">
<title>Node17&#45;&gt;Node16</title>
<g id="a_edge22_Node000016_Node000017"><a xlink:title=" ">
<path fill="none" stroke="#63b8ff" d="M764.67,-35.67C773.21,-36.18 781.79,-36.64 790,-37 960.95,-44.6 1162.18,-46.45 1266.59,-46.89"/>
<polygon fill="#63b8ff" stroke="#63b8ff" points="764.87,-32.18 754.67,-35.06 764.44,-39.17 764.87,-32.18"/>
</a>
</g>
</g>
<!-- Node19 -->
<g id="Node000019" class="node">
<title>Node19</title>
<g id="a_Node000019"><a xlink:href="class_kit_1_1_container_1_1_d_list.html" target="_top" xlink:title="This template class implements a singly linked list which maintains the ordering imposed on it by the...">
<polygon fill="white" stroke="#666666" points="1081.5,-30 967.5,-30 967.5,0 1081.5,0 1081.5,-30"/>
<text text-anchor="start" x="975.5" y="-18" font-family="Helvetica,sans-Serif" font-size="10.00">Kit::Container::DList</text>
<text text-anchor="middle" x="1024.5" y="-7" font-family="Helvetica,sans-Serif" font-size="10.00">&lt; ITEM &gt;</text>
</a>
</g>
</g>
<!-- Node17&#45;&gt;Node19 -->
<g id="edge27_Node000019_Node000017" class="edge">
<title>Node17&#45;&gt;Node19</title>
<g id="a_edge27_Node000019_Node000017"><a xlink:title=" ">
<path fill="none" stroke="#63b8ff" d="M764.83,-26.51C826.87,-23.75 912.03,-19.96 967.4,-17.5"/>
<polygon fill="#63b8ff" stroke="#63b8ff" points="764.53,-23.02 754.7,-26.96 764.84,-30.02 764.53,-23.02"/>
</a>
</g>
</g>
<!-- Node18&#45;&gt;Node17 -->
<g id="edge23_Node000017_Node000018" class="edge">
<title>Node18&#45;&gt;Node17</title>
<g id="a_edge23_Node000017_Node000018"><a xlink:title=" ">
<path fill="none" stroke="#9a32cd" stroke-dasharray="5,2" d="M516.33,-30C548.31,-30 585.15,-30 616.18,-30"/>
<polygon fill="#9a32cd" stroke="#9a32cd" points="516.12,-26.5 506.12,-30 516.12,-33.5 516.12,-26.5"/>
</a>
</g>
<text text-anchor="middle" x="553" y="-44" font-family="Helvetica,sans-Serif" font-size="10.00" fill="grey"> m_headPtr</text>
<text text-anchor="middle" x="553" y="-33" font-family="Helvetica,sans-Serif" font-size="10.00" fill="grey">m_tailPtr</text>
</g>
<!-- Node18&#45;&gt;Node18 -->
<g id="edge25_Node000018_Node000018" class="edge">
<title>Node18&#45;&gt;Node18</title>
<g id="a_edge25_Node000018_Node000018"><a xlink:title=" ">
<path fill="none" stroke="#9a32cd" stroke-dasharray="5,2" d="M418.55,-55.6C421.27,-59.97 427.92,-63 438.5,-63 456.31,-63 462.99,-54.41 458.54,-45.28"/>
<polygon fill="#9a32cd" stroke="#9a32cd" points="422.04,-55.25 418.46,-45.28 415.04,-55.3 422.04,-55.25"/>
</a>
</g>
<text text-anchor="middle" x="438.5" y="-66" font-family="Helvetica,sans-Serif" font-size="10.00" fill="grey"> m_prevPtr_</text>
</g>
<!-- Node19&#45;&gt;Node16 -->
<g id="edge26_Node000016_Node000019" class="edge">
<title>Node19&#45;&gt;Node16</title>
<g id="a_edge26_Node000016_Node000019"><a xlink:title=" ">
<path fill="none" stroke="orange" stroke-dasharray="5,2" d="M1091.76,-19C1136.31,-22.02 1196.28,-26.72 1249,-33 1254.72,-33.68 1260.63,-34.46 1266.56,-35.29"/>
<polygon fill="orange" stroke="orange" points="1091.86,-15.5 1081.65,-18.33 1091.39,-22.49 1091.86,-15.5"/>
</a>
</g>
<text text-anchor="middle" x="1184" y="-36" font-family="Helvetica,sans-Serif" font-size="10.00" fill="grey"> &lt; Kit::System::ICounter &gt;</text>
</g>
<!-- Node20&#45;&gt;Node11 -->
<g id="edge28_Node000011_Node000020" class="edge">
<title>Node20&#45;&gt;Node11</title>
<g id="a_edge28_Node000011_Node000020"><a xlink:title=" ">
<path fill="none" stroke="#9a32cd" stroke-dasharray="5,2" d="M1572.38,-238.38C1642.54,-242.32 1748.96,-243.45 1839,-224 1858.12,-219.87 1879.15,-213.16 1895.12,-207.59"/>
<polygon fill="#9a32cd" stroke="#9a32cd" points="1572.49,-234.88 1562.3,-237.78 1572.08,-241.87 1572.49,-234.88"/>
</a>
</g>
<text text-anchor="middle" x="1667.5" y="-244" font-family="Helvetica,sans-Serif" font-size="10.00" fill="grey"> m_sema</text>
</g>
<!-- Node21&#45;&gt;Node11 -->
<g id="edge30_Node000011_Node000021" class="edge">
<title>Node21&#45;&gt;Node11</title>
<g id="a_edge30_Node000011_Node000021"><a xlink:title=" ">
<path fill="none" stroke="#9a32cd" stroke-dasharray="5,2" d="M1096.9,-283.88C1104.33,-285.15 1111.79,-286.24 1119,-287 1176.46,-293.08 1191.25,-288.77 1249,-287 1474.21,-280.11 1530.85,-278.84 1755,-256 1792.52,-252.18 1803.28,-256.1 1839,-244 1864.82,-235.26 1891.85,-218.34 1907.52,-207.64"/>
<polygon fill="#9a32cd" stroke="#9a32cd" points="1097.28,-280.39 1086.81,-282.04 1096.02,-287.28 1097.28,-280.39"/>
</a>
</g>
<text text-anchor="middle" x="1495" y="-284" font-family="Helvetica,sans-Serif" font-size="10.00" fill="grey"> m_eventList</text>
</g>
<!-- Node22 -->
<g id="Node000022" class="node">
<title>Node22</title>
<g id="a_Node000022"><a xlink:href="class_kit_1_1_system_1_1_i_watched_event_loop.html" target="_top" xlink:title="This abstract interface defines the API for watching/monitoring an EventLoop for watchdog purposes.">
<polygon fill="white" stroke="#666666" points="1755,-225.5 1580,-225.5 1580,-206.5 1755,-206.5 1755,-225.5"/>
<text text-anchor="middle" x="1667.5" y="-213.5" font-family="Helvetica,sans-Serif" font-size="10.00">Kit::System::IWatchedEventLoop</text>
</a>
</g>
</g>
<!-- Node22&#45;&gt;Node11 -->
<g id="edge33_Node000011_Node000022" class="edge">
<title>Node22&#45;&gt;Node11</title>
<g id="a_edge33_Node000011_Node000022"><a xlink:title=" ">
<path fill="none" stroke="#9a32cd" stroke-dasharray="5,2" d="M1765.34,-209.1C1796.01,-206.91 1829.12,-204.55 1856.9,-202.57"/>
<polygon fill="#9a32cd" stroke="#9a32cd" points="1764.77,-205.63 1755.04,-209.83 1765.27,-212.61 1764.77,-205.63"/>
</a>
</g>
<text text-anchor="middle" x="1806" y="-212" font-family="Helvetica,sans-Serif" font-size="10.00" fill="grey"> m_watchdog</text>
</g>
</g>
</svg>
