<?xml version="1.0" encoding="UTF-8" standalone="no"?>
<!DOCTYPE svg PUBLIC "-//W3C//DTD SVG 1.1//EN"
 "http://www.w3.org/Graphics/SVG/1.1/DTD/svg11.dtd">
<!-- Generated by graphviz version 2.43.0 (0)
 -->
<!-- Title: Kit::Io::Serial::ST::M32F4::StreamDriver Pages: 1 -->
<svg width="1032pt" height="165pt"
 viewBox="0.00 0.00 1032.00 165.00" xmlns="http://www.w3.org/2000/svg" xmlns:xlink="http://www.w3.org/1999/xlink">
<g id="graph0" class="graph" transform="scale(1 1) rotate(0) translate(4 161)">
<title>Kit::Io::Serial::ST::M32F4::StreamDriver</title>
<!-- Node1 -->
<g id="Node000001" class="node">
<title>Node1</title>
<g id="a_Node000001"><a xlink:title="This concrete class implements a non&#45;busy&#45;wait blocking Transmit/Receive Stream UART driver with a SO...">
<polygon fill="#999999" stroke="#666666" points="793.5,-61.5 666.5,-61.5 666.5,-31.5 793.5,-31.5 793.5,-61.5"/>
<text text-anchor="start" x="674.5" y="-49.5" font-family="Helvetica,sans-Serif" font-size="10.00">Kit::Io::Serial::ST</text>
<text text-anchor="middle" x="730" y="-38.5" font-family="Helvetica,sans-Serif" font-size="10.00">::M32F4::StreamDriver</text>
</a>
</g>
</g>
<!-- Node10 -->
<g id="Node000010" class="node">
<title>Node10</title>
<g id="a_Node000010"><a xlink:href="class_kit_1_1_io_1_1_serial_1_1_s_t_1_1_m32_f4_1_1_stream_driver.html#struct_kit_1_1_io_1_1_serial_1_1_s_t_1_1_m32_f4_1_1_stream_driver_1_1_hal_mapping___t" target="_top" xlink:title="Used to map a HAL UART Handle to an instance of this class.">
<polygon fill="white" stroke="#666666" points="1024,-67 897,-67 897,-26 1024,-26 1024,-67"/>
<text text-anchor="start" x="905" y="-55" font-family="Helvetica,sans-Serif" font-size="10.00">Kit::Io::Serial::ST</text>
<text text-anchor="start" x="905" y="-44" font-family="Helvetica,sans-Serif" font-size="10.00">::M32F4::StreamDriver</text>
<text text-anchor="middle" x="960.5" y="-33" font-family="Helvetica,sans-Serif" font-size="10.00">::HalMapping_T</text>
</a>
</g>
</g>
<!-- Node1&#45;&gt;Node10 -->
<g id="edge13_Node000010_Node000001" class="edge">
<title>Node1&#45;&gt;Node10</title>
<g id="a_edge13_Node000010_Node000001"><a xlink:title=" ">
<path fill="none" stroke="#9a32cd" stroke-dasharray="5,2" d="M804.11,-46.5C833.99,-46.5 868.2,-46.5 896.9,-46.5"/>
<polygon fill="#9a32cd" stroke="#9a32cd" points="803.74,-43 793.74,-46.5 803.74,-50 803.74,-43"/>
</a>
</g>
<text text-anchor="middle" x="845.5" y="-49.5" font-family="Helvetica,sans-Serif" font-size="10.00" fill="grey"> driver</text>
</g>
<!-- Node2 -->
<g id="Node000002" class="node">
<title>Node2</title>
<g id="a_Node000002"><a xlink:href="class_kit_1_1_system_1_1_thread.html" target="_top" xlink:title="This mostly abstract class defines the operations that can be performed on a thread.">
<polygon fill="white" stroke="#666666" points="513.5,-123 400.5,-123 400.5,-104 513.5,-104 513.5,-123"/>
<text text-anchor="middle" x="457" y="-111" font-family="Helvetica,sans-Serif" font-size="10.00">Kit::System::Thread</text>
</a>
</g>
</g>
<!-- Node2&#45;&gt;Node1 -->
<g id="edge1_Node000001_Node000002" class="edge">
<title>Node2&#45;&gt;Node1</title>
<g id="a_edge1_Node000001_Node000002"><a xlink:title=" ">
<path fill="none" stroke="#9a32cd" stroke-dasharray="5,2" d="M491.19,-100.36C507.26,-94.34 526.94,-87.45 545,-82.5 584.87,-71.56 630.46,-62.62 666.29,-56.38"/>
<polygon fill="#9a32cd" stroke="#9a32cd" points="489.8,-97.15 481.7,-103.97 492.29,-103.69 489.8,-97.15"/>
</a>
</g>
<text text-anchor="middle" x="596.5" y="-96.5" font-family="Helvetica,sans-Serif" font-size="10.00" fill="grey"> m_rxWaiterPtr</text>
<text text-anchor="middle" x="596.5" y="-85.5" font-family="Helvetica,sans-Serif" font-size="10.00" fill="grey">m_txWaiterPtr</text>
</g>
<!-- Node6 -->
<g id="Node000006" class="node">
<title>Node6</title>
<g id="a_Node000006"><a xlink:href="class_kit_1_1_system_1_1_i_runnable.html" target="_top" xlink:title="This mostly an abstract class defines the interface for an object that is &quot;executed&quot; when a Thread ob...">
<polygon fill="white" stroke="#666666" points="794,-140 666,-140 666,-121 794,-121 794,-140"/>
<text text-anchor="middle" x="730" y="-128" font-family="Helvetica,sans-Serif" font-size="10.00">Kit::System::IRunnable</text>
</a>
</g>
</g>
<!-- Node2&#45;&gt;Node6 -->
<g id="edge7_Node000006_Node000002" class="edge">
<title>Node2&#45;&gt;Node6</title>
<g id="a_edge7_Node000006_Node000002"><a xlink:title=" ">
<path fill="none" stroke="#9a32cd" stroke-dasharray="5,2" d="M523.94,-109.46C560.59,-108.13 606.94,-107.99 648,-112.5 663.18,-114.17 679.67,-117.54 693.79,-120.92"/>
<polygon fill="#9a32cd" stroke="#9a32cd" points="523.73,-105.96 513.88,-109.86 524.01,-112.96 523.73,-105.96"/>
</a>
</g>
<text text-anchor="middle" x="596.5" y="-115.5" font-family="Helvetica,sans-Serif" font-size="10.00" fill="grey"> m_parentThreadPtr_</text>
</g>
<!-- Node3 -->
<g id="Node000003" class="node">
<title>Node3</title>
<g id="a_Node000003"><a xlink:href="class_kit_1_1_system_1_1_i_signable.html" target="_top" xlink:title="This abstract class defines the interface by which a client can cause an object that is waiting&#45;on&#45;a&#45;...">
<polygon fill="white" stroke="#666666" points="283,-157 159,-157 159,-138 283,-138 283,-157"/>
<text text-anchor="middle" x="221" y="-145" font-family="Helvetica,sans-Serif" font-size="10.00">Kit::System::ISignable</text>
</a>
</g>
</g>
<!-- Node3&#45;&gt;Node2 -->
<g id="edge2_Node000002_Node000003" class="edge">
<title>Node3&#45;&gt;Node2</title>
<g id="a_edge2_Node000002_Node000003"><a xlink:title=" ">
<path fill="none" stroke="#63b8ff" d="M293.17,-137.16C327.59,-132.16 368.29,-126.24 400.39,-121.58"/>
<polygon fill="#63b8ff" stroke="#63b8ff" points="292.57,-133.71 283.18,-138.61 293.57,-140.64 292.57,-133.71"/>
</a>
</g>
</g>
<!-- Node4 -->
<g id="Node000004" class="node">
<title>Node4</title>
<g id="a_Node000004"><a xlink:href="class_kit_1_1_container_1_1_list_item.html" target="_top" xlink:title="This class is used by the Container classes to implement a various types of linked lists containers.">
<polygon fill="white" stroke="#666666" points="285.5,-91 156.5,-91 156.5,-72 285.5,-72 285.5,-91"/>
<text text-anchor="middle" x="221" y="-79" font-family="Helvetica,sans-Serif" font-size="10.00">Kit::Container::ListItem</text>
</a>
</g>
</g>
<!-- Node4&#45;&gt;Node2 -->
<g id="edge3_Node000002_Node000004" class="edge">
<title>Node4&#45;&gt;Node2</title>
<g id="a_edge3_Node000002_Node000004"><a xlink:title=" ">
<path fill="none" stroke="#63b8ff" d="M295.93,-91.61C329.73,-96.23 369.11,-101.62 400.35,-105.89"/>
<polygon fill="#63b8ff" stroke="#63b8ff" points="296.01,-88.09 285.63,-90.2 295.07,-95.02 296.01,-88.09"/>
</a>
</g>
</g>
<!-- Node4&#45;&gt;Node4 -->
<g id="edge5_Node000004_Node000004" class="edge">
<title>Node4&#45;&gt;Node4</title>
<g id="a_edge5_Node000004_Node000004"><a xlink:title=" ">
<path fill="none" stroke="#9a32cd" stroke-dasharray="5,2" d="M204.79,-100.91C206.07,-105.56 211.47,-109 221,-109 236.64,-109 241.16,-99.73 234.56,-91.08"/>
<polygon fill="#9a32cd" stroke="#9a32cd" points="208.22,-101.65 207.44,-91.08 201.46,-99.83 208.22,-101.65"/>
</a>
</g>
<text text-anchor="middle" x="221" y="-112" font-family="Helvetica,sans-Serif" font-size="10.00" fill="grey"> m_nextPtr_</text>
</g>
<!-- Node5 -->
<g id="Node000005" class="node">
<title>Node5</title>
<g id="a_Node000005"><a xlink:href="class_kit_1_1_container_1_1_item.html" target="_top" xlink:title="This class is used by the Intrusive Container classes to enforce the semantic and item/element can be...">
<polygon fill="white" stroke="#666666" points="113,-91 1,-91 1,-72 113,-72 113,-91"/>
<text text-anchor="middle" x="57" y="-79" font-family="Helvetica,sans-Serif" font-size="10.00">Kit::Container::Item</text>
</a>
</g>
</g>
<!-- Node5&#45;&gt;Node4 -->
<g id="edge4_Node000004_Node000005" class="edge">
<title>Node5&#45;&gt;Node4</title>
<g id="a_edge4_Node000004_Node000005"><a xlink:title=" ">
<path fill="none" stroke="#63b8ff" d="M123.52,-81.5C134.34,-81.5 145.54,-81.5 156.31,-81.5"/>
<polygon fill="#63b8ff" stroke="#63b8ff" points="123.3,-78 113.3,-81.5 123.3,-85 123.3,-78"/>
</a>
</g>
</g>
<!-- Node6&#45;&gt;Node2 -->
<g id="edge6_Node000002_Node000006" class="edge">
<title>Node6&#45;&gt;Node2</title>
<g id="a_edge6_Node000002_Node000006"><a xlink:title=" ">
<path fill="none" stroke="#9a32cd" stroke-dasharray="5,2" d="M655.65,-130.35C621.9,-129.81 581.37,-128.49 545,-125.5 534.82,-124.66 524.01,-123.44 513.59,-122.09"/>
<polygon fill="#9a32cd" stroke="#9a32cd" points="655.84,-133.86 665.89,-130.5 655.94,-126.86 655.84,-133.86"/>
</a>
</g>
<text text-anchor="middle" x="596.5" y="-132.5" font-family="Helvetica,sans-Serif" font-size="10.00" fill="grey"> m_runnable</text>
</g>
<!-- Node7 -->
<g id="Node000007" class="node">
<title>Node7</title>
<g id="a_Node000007"><a xlink:href="class_kit_1_1_container_1_1_ring_buffer.html" target="_top" xlink:title=" ">
<polygon fill="white" stroke="#666666" points="527,-38.5 387,-38.5 387,-8.5 527,-8.5 527,-38.5"/>
<text text-anchor="start" x="395" y="-26.5" font-family="Helvetica,sans-Serif" font-size="10.00">Kit::Container::RingBuffer</text>
<text text-anchor="middle" x="457" y="-15.5" font-family="Helvetica,sans-Serif" font-size="10.00">&lt; uint8_t &gt;</text>
</a>
</g>
</g>
<!-- Node7&#45;&gt;Node1 -->
<g id="edge8_Node000001_Node000007" class="edge">
<title>Node7&#45;&gt;Node1</title>
<g id="a_edge8_Node000001_Node000007"><a xlink:title=" ">
<path fill="none" stroke="#9a32cd" stroke-dasharray="5,2" d="M537.72,-19.33C571.83,-18.73 612.01,-19.6 648,-24.5 659.12,-26.01 670.88,-28.61 681.88,-31.49"/>
<polygon fill="#9a32cd" stroke="#9a32cd" points="537.26,-15.84 527.34,-19.56 537.42,-22.84 537.26,-15.84"/>
</a>
</g>
<text text-anchor="middle" x="596.5" y="-38.5" font-family="Helvetica,sans-Serif" font-size="10.00" fill="grey"> m_rxBuffer</text>
<text text-anchor="middle" x="596.5" y="-27.5" font-family="Helvetica,sans-Serif" font-size="10.00" fill="grey">m_txBuffer</text>
</g>
<!-- Node8 -->
<g id="Node000008" class="node">
<title>Node8</title>
<g id="a_Node000008"><a xlink:title=" ">
<polygon fill="white" stroke="#bfbfbf" points="114,-19 0,-19 0,0 114,0 114,-19"/>
<text text-anchor="middle" x="57" y="-7" font-family="Helvetica,sans-Serif" font-size="10.00">RingBufferBaseType</text>
</a>
</g>
</g>
<!-- Node8&#45;&gt;Node7 -->
<g id="edge9_Node000007_Node000008" class="edge">
<title>Node8&#45;&gt;Node7</title>
<g id="a_edge9_Node000007_Node000008"><a xlink:title=" ">
<path fill="none" stroke="#63b8ff" d="M124.32,-8.94C170.96,-8.82 234.82,-9.22 291,-11.5 322.42,-12.78 357.15,-15.16 386.61,-17.46"/>
<polygon fill="#63b8ff" stroke="#63b8ff" points="124.04,-5.44 114.05,-8.98 124.06,-12.44 124.04,-5.44"/>
</a>
</g>
</g>
<!-- Node9 -->
<g id="Node000009" class="node">
<title>Node9</title>
<g id="a_Node000009"><a xlink:href="class_kit_1_1_container_1_1_ring_buffer.html" target="_top" xlink:title="This template class implements a Ring Buffer.">
<polygon fill="white" stroke="#666666" points="291,-50.5 151,-50.5 151,-20.5 291,-20.5 291,-50.5"/>
<text text-anchor="start" x="159" y="-38.5" font-family="Helvetica,sans-Serif" font-size="10.00">Kit::Container::RingBuffer</text>
<text text-anchor="middle" x="221" y="-27.5" font-family="Helvetica,sans-Serif" font-size="10.00">&lt; ITEM &gt;</text>
</a>
</g>
</g>
<!-- Node8&#45;&gt;Node9 -->
<g id="edge11_Node000009_Node000008" class="edge">
<title>Node8&#45;&gt;Node9</title>
<g id="a_edge11_Node000009_Node000008"><a xlink:title=" ">
<path fill="none" stroke="#63b8ff" d="M124.31,-20.14C133.03,-21.54 141.99,-22.98 150.76,-24.39"/>
<polygon fill="#63b8ff" stroke="#63b8ff" points="124.63,-16.65 114.21,-18.52 123.52,-23.56 124.63,-16.65"/>
</a>
</g>
</g>
<!-- Node9&#45;&gt;Node7 -->
<g id="edge10_Node000007_Node000009" class="edge">
<title>Node9&#45;&gt;Node7</title>
<g id="a_edge10_Node000007_Node000009"><a xlink:title=" ">
<path fill="none" stroke="orange" stroke-dasharray="5,2" d="M301.33,-31.43C329.11,-30.01 360.05,-28.42 386.92,-27.04"/>
<polygon fill="orange" stroke="orange" points="301.07,-27.94 291.26,-31.95 301.42,-34.93 301.07,-27.94"/>
</a>
</g>
<text text-anchor="middle" x="339" y="-34.5" font-family="Helvetica,sans-Serif" font-size="10.00" fill="grey"> &lt; uint8_t &gt;</text>
</g>
<!-- Node10&#45;&gt;Node1 -->
<g id="edge12_Node000001_Node000010" class="edge">
<title>Node10&#45;&gt;Node1</title>
<g id="a_edge12_Node000001_Node000010"><a xlink:title=" ">
<path fill="none" stroke="#9a32cd" stroke-dasharray="5,2" d="M886.73,-31.37C884.13,-31.04 881.54,-30.75 879,-30.5 849.37,-27.58 841.64,-27.6 812,-30.5 806.01,-31.09 799.8,-31.91 793.61,-32.88"/>
<polygon fill="#9a32cd" stroke="#9a32cd" points="886.44,-34.87 896.84,-32.81 887.43,-27.94 886.44,-34.87"/>
</a>
</g>
<text text-anchor="middle" x="845.5" y="-33.5" font-family="Helvetica,sans-Serif" font-size="10.00" fill="grey"> m_mappings</text>
</g>
</g>
</svg>
