<?xml version="1.0" encoding="UTF-8" standalone="no"?>
<!DOCTYPE svg PUBLIC "-//W3C//DTD SVG 1.1//EN"
 "http://www.w3.org/Graphics/SVG/1.1/DTD/svg11.dtd">
<!-- Generated by graphviz version 2.43.0 (0)
 -->
<!-- Title: Kit::Container::Item Pages: 1 -->
<svg width="1235pt" height="365pt"
 viewBox="0.00 0.00 1235.00 364.50" xmlns="http://www.w3.org/2000/svg" xmlns:xlink="http://www.w3.org/1999/xlink">
<g id="graph0" class="graph" transform="scale(1 1) rotate(0) translate(4 360.5)">
<title>Kit::Container::Item</title>
<!-- Node1 -->
<g id="Node000001" class="node">
<title>Node1</title>
<g id="a_Node000001"><a xlink:title="This class is used by the Intrusive Container classes to enforce the semantic and item/element can be...">
<polygon fill="#999999" stroke="#666666" points="112,-149.5 0,-149.5 0,-130.5 112,-130.5 112,-149.5"/>
<text text-anchor="middle" x="56" y="-137.5" font-family="Helvetica,sans-Serif" font-size="10.00">Kit::Container::Item</text>
</a>
</g>
</g>
<!-- Node2 -->
<g id="Node000002" class="node">
<title>Node2</title>
<g id="a_Node000002"><a xlink:href="class_kit_1_1_container_1_1_list_item.html" target="_top" xlink:title="This class is used by the Container classes to implement a various types of linked lists containers.">
<polygon fill="white" stroke="#666666" points="277,-149.5 148,-149.5 148,-130.5 277,-130.5 277,-149.5"/>
<text text-anchor="middle" x="212.5" y="-137.5" font-family="Helvetica,sans-Serif" font-size="10.00">Kit::Container::ListItem</text>
</a>
</g>
</g>
<!-- Node1&#45;&gt;Node2 -->
<g id="edge1_Node000001_Node000002" class="edge">
<title>Node1&#45;&gt;Node2</title>
<g id="a_edge1_Node000001_Node000002"><a xlink:title=" ">
<path fill="none" stroke="#63b8ff" d="M122.48,-140C130.89,-140 139.49,-140 147.87,-140"/>
<polygon fill="#63b8ff" stroke="#63b8ff" points="122.34,-136.5 112.34,-140 122.34,-143.5 122.34,-136.5"/>
</a>
</g>
</g>
<!-- Node3 -->
<g id="Node000003" class="node">
<title>Node3</title>
<g id="a_Node000003"><a xlink:href="class_kit_1_1_container_1_1_extended_list_item.html" target="_top" xlink:title="This class is used by the Container classes to implement a various types of DOUBLY linked containers.">
<polygon fill="white" stroke="#666666" points="452,-272 317,-272 317,-242 452,-242 452,-272"/>
<text text-anchor="start" x="325" y="-260" font-family="Helvetica,sans-Serif" font-size="10.00">Kit::Container::Extended</text>
<text text-anchor="middle" x="384.5" y="-249" font-family="Helvetica,sans-Serif" font-size="10.00">ListItem</text>
</a>
</g>
</g>
<!-- Node2&#45;&gt;Node3 -->
<g id="edge2_Node000002_Node000003" class="edge">
<title>Node2&#45;&gt;Node3</title>
<g id="a_edge2_Node000002_Node000003"><a xlink:title=" ">
<path fill="none" stroke="#63b8ff" d="M232.53,-156.41C252.06,-172.89 283.67,-198.57 313,-218 325.94,-226.57 340.92,-235.05 353.73,-241.89"/>
<polygon fill="#63b8ff" stroke="#63b8ff" points="234.58,-153.56 224.69,-149.75 230.04,-158.89 234.58,-153.56"/>
</a>
</g>
</g>
<!-- Node16 -->
<g id="Node000016" class="node">
<title>Node16</title>
<g id="a_Node000016"><a xlink:href="class_kit_1_1_system_1_1_i_event_flag.html" target="_top" xlink:title="This abstract class defines the call&#45;back interface when an Event Flag has signaled.">
<polygon fill="white" stroke="#666666" points="450,-208.5 319,-208.5 319,-189.5 450,-189.5 450,-208.5"/>
<text text-anchor="middle" x="384.5" y="-196.5" font-family="Helvetica,sans-Serif" font-size="10.00">Kit::System::IEventFlag</text>
</a>
</g>
</g>
<!-- Node2&#45;&gt;Node16 -->
<g id="edge15_Node000002_Node000016" class="edge">
<title>Node2&#45;&gt;Node16</title>
<g id="a_edge15_Node000002_Node000016"><a xlink:title=" ">
<path fill="none" stroke="#63b8ff" d="M243.43,-153.63C262.97,-162.2 289.18,-173.1 313,-181 322.35,-184.1 332.55,-186.99 342.21,-189.5"/>
<polygon fill="#63b8ff" stroke="#63b8ff" points="244.7,-150.36 234.14,-149.51 241.86,-156.76 244.7,-150.36"/>
</a>
</g>
</g>
<!-- Node18 -->
<g id="Node000018" class="node">
<title>Node18</title>
<g id="a_Node000018"><a xlink:href="class_kit_1_1_system_1_1_i_startup_hook.html" target="_top" xlink:title="This class defines a start&#45;up handler/hook that allows a KIT Library sub&#45;system to register to be cal...">
<polygon fill="white" stroke="#666666" points="456,-171.5 313,-171.5 313,-152.5 456,-152.5 456,-171.5"/>
<text text-anchor="middle" x="384.5" y="-159.5" font-family="Helvetica,sans-Serif" font-size="10.00">Kit::System::IStartupHook</text>
</a>
</g>
</g>
<!-- Node2&#45;&gt;Node18 -->
<g id="edge17_Node000002_Node000018" class="edge">
<title>Node2&#45;&gt;Node18</title>
<g id="a_edge17_Node000002_Node000018"><a xlink:title=" ">
<path fill="none" stroke="#63b8ff" d="M287.45,-149.57C295.87,-150.66 304.43,-151.77 312.8,-152.85"/>
<polygon fill="#63b8ff" stroke="#63b8ff" points="287.65,-146.07 277.29,-148.25 286.75,-153.01 287.65,-146.07"/>
</a>
</g>
</g>
<!-- Node19 -->
<g id="Node000019" class="node">
<title>Node19</title>
<g id="a_Node000019"><a xlink:href="class_kit_1_1_system_1_1_shutdown_1_1_i_handler.html" target="_top" xlink:title="This call defines the callback interface that is used when the application is shutdown.">
<polygon fill="white" stroke="#666666" points="448,-134 321,-134 321,-104 448,-104 448,-134"/>
<text text-anchor="start" x="329" y="-122" font-family="Helvetica,sans-Serif" font-size="10.00">Kit::System::Shutdown</text>
<text text-anchor="middle" x="384.5" y="-111" font-family="Helvetica,sans-Serif" font-size="10.00">::IHandler</text>
</a>
</g>
</g>
<!-- Node2&#45;&gt;Node19 -->
<g id="edge18_Node000002_Node000019" class="edge">
<title>Node2&#45;&gt;Node19</title>
<g id="a_edge18_Node000002_Node000019"><a xlink:title=" ">
<path fill="none" stroke="#63b8ff" d="M287.41,-130.87C298.53,-129.5 309.91,-128.09 320.77,-126.75"/>
<polygon fill="#63b8ff" stroke="#63b8ff" points="286.78,-127.42 277.29,-132.12 287.64,-134.37 286.78,-127.42"/>
</a>
</g>
</g>
<!-- Node20 -->
<g id="Node000020" class="node">
<title>Node20</title>
<g id="a_Node000020"><a xlink:href="class_kit_1_1_system_1_1_sim_tick.html" target="_top" xlink:title="This class define the interface to provide a simulates system tick (in milliseconds) to the applicati...">
<polygon fill="white" stroke="#666666" points="443.5,-85.5 325.5,-85.5 325.5,-66.5 443.5,-66.5 443.5,-85.5"/>
<text text-anchor="middle" x="384.5" y="-73.5" font-family="Helvetica,sans-Serif" font-size="10.00">Kit::System::SimTick</text>
</a>
</g>
</g>
<!-- Node2&#45;&gt;Node20 -->
<g id="edge19_Node000002_Node000020" class="edge">
<title>Node2&#45;&gt;Node20</title>
<g id="a_edge19_Node000002_Node000020"><a xlink:title=" ">
<path fill="none" stroke="#63b8ff" d="M241.21,-126.01C260.9,-116.43 288.15,-103.9 313,-95 322.79,-91.49 333.54,-88.29 343.63,-85.54"/>
<polygon fill="#63b8ff" stroke="#63b8ff" points="239.63,-122.89 232.2,-130.44 242.72,-129.17 239.63,-122.89"/>
</a>
</g>
</g>
<!-- Node21 -->
<g id="Node000021" class="node">
<title>Node21</title>
<g id="a_Node000021"><a xlink:href="class_kit_1_1_system_1_1_thread.html" target="_top" xlink:title="This mostly abstract class defines the operations that can be performed on a thread.">
<polygon fill="white" stroke="#666666" points="441,-48.5 328,-48.5 328,-29.5 441,-29.5 441,-48.5"/>
<text text-anchor="middle" x="384.5" y="-36.5" font-family="Helvetica,sans-Serif" font-size="10.00">Kit::System::Thread</text>
</a>
</g>
</g>
<!-- Node2&#45;&gt;Node21 -->
<g id="edge20_Node000002_Node000021" class="edge">
<title>Node2&#45;&gt;Node21</title>
<g id="a_edge20_Node000002_Node000021"><a xlink:title=" ">
<path fill="none" stroke="#63b8ff" d="M229.05,-123.12C247.35,-104.26 279.53,-74.11 313,-57 319.64,-53.61 326.96,-50.82 334.3,-48.55"/>
<polygon fill="#63b8ff" stroke="#63b8ff" points="226.44,-120.79 222.09,-130.45 231.51,-125.61 226.44,-120.79"/>
</a>
</g>
</g>
<!-- Node4 -->
<g id="Node000004" class="node">
<title>Node4</title>
<g id="a_Node000004"><a xlink:href="class_kit_1_1_container_1_1_keyed_item.html" target="_top" xlink:title="This abstract class represents a item that can be used with containers that have a concept of Key&#45;Val...">
<polygon fill="white" stroke="#666666" points="639,-314.5 497,-314.5 497,-295.5 639,-295.5 639,-314.5"/>
<text text-anchor="middle" x="568" y="-302.5" font-family="Helvetica,sans-Serif" font-size="10.00">Kit::Container::KeyedItem</text>
</a>
</g>
</g>
<!-- Node3&#45;&gt;Node4 -->
<g id="edge3_Node000003_Node000004" class="edge">
<title>Node3&#45;&gt;Node4</title>
<g id="a_edge3_Node000003_Node000004"><a xlink:title=" ">
<path fill="none" stroke="#63b8ff" d="M452.44,-274.7C478.97,-281.72 508.43,-289.51 530.83,-295.44"/>
<polygon fill="#63b8ff" stroke="#63b8ff" points="452.99,-271.23 442.43,-272.06 451.2,-278 452.99,-271.23"/>
</a>
</g>
</g>
<!-- Node9 -->
<g id="Node000009" class="node">
<title>Node9</title>
<g id="a_Node000009"><a xlink:href="class_kit_1_1_itc_1_1_i_message.html" target="_top" xlink:title="This abstract class defines the operations for an ITC message.">
<polygon fill="white" stroke="#666666" points="618.5,-274.5 517.5,-274.5 517.5,-255.5 618.5,-255.5 618.5,-274.5"/>
<text text-anchor="middle" x="568" y="-262.5" font-family="Helvetica,sans-Serif" font-size="10.00">Kit::Itc::IMessage</text>
</a>
</g>
</g>
<!-- Node3&#45;&gt;Node9 -->
<g id="edge8_Node000003_Node000009" class="edge">
<title>Node3&#45;&gt;Node9</title>
<g id="a_edge8_Node000003_Node000009"><a xlink:title=" ">
<path fill="none" stroke="#63b8ff" d="M462.28,-260.38C480.87,-261.2 500.26,-262.06 517.23,-262.81"/>
<polygon fill="#63b8ff" stroke="#63b8ff" points="462.2,-256.88 452.05,-259.93 461.89,-263.87 462.2,-256.88"/>
</a>
</g>
</g>
<!-- Node13 -->
<g id="Node000013" class="node">
<title>Node13</title>
<g id="a_Node000013"><a xlink:href="class_kit_1_1_system_1_1_i_counter.html" target="_top" xlink:title="This abstract class defines the call&#45;back interface for a Counter object.">
<polygon fill="white" stroke="#666666" points="628,-237.5 508,-237.5 508,-218.5 628,-218.5 628,-237.5"/>
<text text-anchor="middle" x="568" y="-225.5" font-family="Helvetica,sans-Serif" font-size="10.00">Kit::System::ICounter</text>
</a>
</g>
</g>
<!-- Node3&#45;&gt;Node13 -->
<g id="edge12_Node000003_Node000013" class="edge">
<title>Node3&#45;&gt;Node13</title>
<g id="a_edge12_Node000003_Node000013"><a xlink:title=" ">
<path fill="none" stroke="#63b8ff" d="M462.04,-244.77C477.4,-242.32 493.3,-239.78 507.95,-237.43"/>
<polygon fill="#63b8ff" stroke="#63b8ff" points="461.38,-241.33 452.05,-246.37 462.48,-248.24 461.38,-241.33"/>
</a>
</g>
</g>
<!-- Node5 -->
<g id="Node000005" class="node">
<title>Node5</title>
<g id="a_Node000005"><a xlink:href="class_kit_1_1_container_1_1_map_item.html" target="_top" xlink:title="This abstract class represents a item that can be contained in an Map (aka a sorted list implemented ...">
<polygon fill="white" stroke="#666666" points="832,-338.5 699,-338.5 699,-319.5 832,-319.5 832,-338.5"/>
<text text-anchor="middle" x="765.5" y="-326.5" font-family="Helvetica,sans-Serif" font-size="10.00">Kit::Container::MapItem</text>
</a>
</g>
</g>
<!-- Node4&#45;&gt;Node5 -->
<g id="edge4_Node000004_Node000005" class="edge">
<title>Node4&#45;&gt;Node5</title>
<g id="a_edge4_Node000004_Node000005"><a xlink:title=" ">
<path fill="none" stroke="#63b8ff" d="M649.21,-314.85C665.73,-316.87 682.94,-318.99 698.88,-320.94"/>
<polygon fill="#63b8ff" stroke="#63b8ff" points="649.38,-311.34 639.03,-313.6 648.53,-318.29 649.38,-311.34"/>
</a>
</g>
</g>
<!-- Node6 -->
<g id="Node000006" class="node">
<title>Node6</title>
<g id="a_Node000006"><a xlink:href="class_kit_1_1_text_1_1_string_item.html" target="_top" xlink:title="This partially concrete provides a wrapper class that allows a IString object to be stored directly i...">
<polygon fill="white" stroke="#666666" points="1022,-338.5 909,-338.5 909,-319.5 1022,-319.5 1022,-338.5"/>
<text text-anchor="middle" x="965.5" y="-326.5" font-family="Helvetica,sans-Serif" font-size="10.00">Kit::Text::StringItem</text>
</a>
</g>
</g>
<!-- Node5&#45;&gt;Node6 -->
<g id="edge5_Node000005_Node000006" class="edge">
<title>Node5&#45;&gt;Node6</title>
<g id="a_edge5_Node000005_Node000006"><a xlink:title=" ">
<path fill="none" stroke="#63b8ff" d="M842.22,-329C864.41,-329 888.26,-329 908.95,-329"/>
<polygon fill="#63b8ff" stroke="#63b8ff" points="842.16,-325.5 832.16,-329 842.16,-332.5 842.16,-325.5"/>
</a>
</g>
</g>
<!-- Node7 -->
<g id="Node000007" class="node">
<title>Node7</title>
<g id="a_Node000007"><a xlink:href="class_kit_1_1_text_1_1_d_string_item.html" target="_top" xlink:title="This concrete class implements the StringItem class for a &#39;String&#39; using a &#39;DString&#39; as the internal ...">
<polygon fill="white" stroke="#666666" points="1214,-356.5 1093,-356.5 1093,-337.5 1214,-337.5 1214,-356.5"/>
<text text-anchor="middle" x="1153.5" y="-344.5" font-family="Helvetica,sans-Serif" font-size="10.00">Kit::Text::DStringItem</text>
</a>
</g>
</g>
<!-- Node6&#45;&gt;Node7 -->
<g id="edge6_Node000006_Node000007" class="edge">
<title>Node6&#45;&gt;Node7</title>
<g id="a_edge6_Node000006_Node000007"><a xlink:title=" ">
<path fill="none" stroke="#63b8ff" d="M1032.18,-335.36C1051.88,-337.26 1073.39,-339.34 1092.7,-341.21"/>
<polygon fill="#63b8ff" stroke="#63b8ff" points="1032.34,-331.86 1022.05,-334.38 1031.67,-338.82 1032.34,-331.86"/>
</a>
</g>
</g>
<!-- Node8 -->
<g id="Node000008" class="node">
<title>Node8</title>
<g id="a_Node000008"><a xlink:href="class_kit_1_1_text_1_1_f_string_item.html" target="_top" xlink:title="This template class implements the StringItem class for a &#39;String&#39; using a &#39;FString&#39; as the internal ...">
<polygon fill="white" stroke="#666666" points="1227,-319.5 1080,-319.5 1080,-300.5 1227,-300.5 1227,-319.5"/>
<text text-anchor="middle" x="1153.5" y="-307.5" font-family="Helvetica,sans-Serif" font-size="10.00">Kit::Text::FStringItem&lt; S &gt;</text>
</a>
</g>
</g>
<!-- Node6&#45;&gt;Node8 -->
<g id="edge7_Node000006_Node000008" class="edge">
<title>Node6&#45;&gt;Node8</title>
<g id="a_edge7_Node000006_Node000008"><a xlink:title=" ">
<path fill="none" stroke="#63b8ff" d="M1032.01,-322.31C1047.42,-320.73 1063.95,-319.05 1079.67,-317.44"/>
<polygon fill="#63b8ff" stroke="#63b8ff" points="1031.65,-318.83 1022.05,-323.33 1032.36,-325.79 1031.65,-318.83"/>
</a>
</g>
</g>
<!-- Node10 -->
<g id="Node000010" class="node">
<title>Node10</title>
<g id="a_Node000010"><a xlink:href="class_kit_1_1_itc_1_1_response_message.html" target="_top" xlink:title="This template class represents a client response message, which is posted to the client&#39;s mailbox aft...">
<polygon fill="white" stroke="#666666" points="851,-301 680,-301 680,-271 851,-271 851,-301"/>
<text text-anchor="start" x="688" y="-289" font-family="Helvetica,sans-Serif" font-size="10.00">Kit::Itc::ResponseMessage</text>
<text text-anchor="middle" x="765.5" y="-278" font-family="Helvetica,sans-Serif" font-size="10.00">&lt; CLIENT, SERVICE, PAYLOAD &gt;</text>
</a>
</g>
</g>
<!-- Node9&#45;&gt;Node10 -->
<g id="edge9_Node000009_Node000010" class="edge">
<title>Node9&#45;&gt;Node10</title>
<g id="a_edge9_Node000009_Node000010"><a xlink:title=" ">
<path fill="none" stroke="#63b8ff" d="M628.86,-271.43C644.89,-273.15 662.52,-275.05 679.62,-276.88"/>
<polygon fill="#63b8ff" stroke="#63b8ff" points="628.9,-267.91 618.59,-270.33 628.15,-274.87 628.9,-267.91"/>
</a>
</g>
</g>
<!-- Node11 -->
<g id="Node000011" class="node">
<title>Node11</title>
<g id="a_Node000011"><a xlink:href="class_kit_1_1_itc_1_1_server_message.html" target="_top" xlink:title="This partially concrete class represents a defined message, which is posted to a mailbox&#45;server as a ...">
<polygon fill="white" stroke="#666666" points="830,-252.5 701,-252.5 701,-233.5 830,-233.5 830,-252.5"/>
<text text-anchor="middle" x="765.5" y="-240.5" font-family="Helvetica,sans-Serif" font-size="10.00">Kit::Itc::ServerMessage</text>
</a>
</g>
</g>
<!-- Node9&#45;&gt;Node11 -->
<g id="edge10_Node000009_Node000011" class="edge">
<title>Node9&#45;&gt;Node11</title>
<g id="a_edge10_Node000009_Node000011"><a xlink:title=" ">
<path fill="none" stroke="#63b8ff" d="M628.82,-258.27C651.65,-255.7 677.74,-252.76 700.9,-250.16"/>
<polygon fill="#63b8ff" stroke="#63b8ff" points="628.13,-254.82 618.59,-259.42 628.91,-261.78 628.13,-254.82"/>
</a>
</g>
</g>
<!-- Node12 -->
<g id="Node000012" class="node">
<title>Node12</title>
<g id="a_Node000012"><a xlink:href="class_kit_1_1_itc_1_1_request_message.html" target="_top" xlink:title="This concrete template class represents a service request message to a particular server.">
<polygon fill="white" stroke="#666666" points="1034,-261 897,-261 897,-231 1034,-231 1034,-261"/>
<text text-anchor="start" x="905" y="-249" font-family="Helvetica,sans-Serif" font-size="10.00">Kit::Itc::RequestMessage</text>
<text text-anchor="middle" x="965.5" y="-238" font-family="Helvetica,sans-Serif" font-size="10.00">&lt; SERVICE, PAYLOAD &gt;</text>
</a>
</g>
</g>
<!-- Node11&#45;&gt;Node12 -->
<g id="edge11_Node000011_Node000012" class="edge">
<title>Node11&#45;&gt;Node12</title>
<g id="a_edge11_Node000011_Node000012"><a xlink:title=" ">
<path fill="none" stroke="#63b8ff" d="M840.37,-244.12C858.86,-244.4 878.61,-244.7 896.78,-244.97"/>
<polygon fill="#63b8ff" stroke="#63b8ff" points="840.29,-240.62 830.24,-243.97 840.18,-247.62 840.29,-240.62"/>
</a>
</g>
</g>
<!-- Node14 -->
<g id="Node000014" class="node">
<title>Node14</title>
<g id="a_Node000014"><a xlink:href="class_kit_1_1_system_1_1_timer.html" target="_top" xlink:title="This mostly concrete interface defines the operations that can be performed on a software timer.">
<polygon fill="white" stroke="#666666" points="819,-212.5 712,-212.5 712,-193.5 819,-193.5 819,-212.5"/>
<text text-anchor="middle" x="765.5" y="-200.5" font-family="Helvetica,sans-Serif" font-size="10.00">Kit::System::Timer</text>
</a>
</g>
</g>
<!-- Node13&#45;&gt;Node14 -->
<g id="edge13_Node000013_Node000014" class="edge">
<title>Node13&#45;&gt;Node14</title>
<g id="a_edge13_Node000013_Node000014"><a xlink:title=" ">
<path fill="none" stroke="#63b8ff" d="M638.37,-219.13C662.53,-216.04 689.23,-212.62 711.82,-209.74"/>
<polygon fill="#63b8ff" stroke="#63b8ff" points="637.66,-215.69 628.19,-220.43 638.55,-222.63 637.66,-215.69"/>
</a>
</g>
</g>
<!-- Node15 -->
<g id="Node000015" class="node">
<title>Node15</title>
<g id="a_Node000015"><a xlink:href="class_kit_1_1_system_1_1_timer_composer.html" target="_top" xlink:title="This template class implements a Software Timer that is context independent and allows for a single c...">
<polygon fill="white" stroke="#666666" points="1044,-213 887,-213 887,-183 1044,-183 1044,-213"/>
<text text-anchor="start" x="895" y="-201" font-family="Helvetica,sans-Serif" font-size="10.00">Kit::System::TimerComposer</text>
<text text-anchor="middle" x="965.5" y="-190" font-family="Helvetica,sans-Serif" font-size="10.00">&lt; CONTEXT &gt;</text>
</a>
</g>
</g>
<!-- Node14&#45;&gt;Node15 -->
<g id="edge14_Node000014_Node000015" class="edge">
<title>Node14&#45;&gt;Node15</title>
<g id="a_edge14_Node000014_Node000015"><a xlink:title=" ">
<path fill="none" stroke="#63b8ff" d="M829.25,-201.42C847.51,-200.95 867.67,-200.45 886.72,-199.96"/>
<polygon fill="#63b8ff" stroke="#63b8ff" points="828.95,-197.92 819.04,-201.67 829.13,-204.92 828.95,-197.92"/>
</a>
</g>
</g>
<!-- Node17 -->
<g id="Node000017" class="node">
<title>Node17</title>
<g id="a_Node000017"><a xlink:href="class_kit_1_1_system_1_1_event_flag_base.html" target="_top" xlink:title="This is helper class that perform an auto&#45;registration of the Event Flag instance with a list of Even...">
<polygon fill="white" stroke="#666666" points="644,-200.5 492,-200.5 492,-181.5 644,-181.5 644,-200.5"/>
<text text-anchor="middle" x="568" y="-188.5" font-family="Helvetica,sans-Serif" font-size="10.00">Kit::System::EventFlagBase</text>
</a>
</g>
</g>
<!-- Node16&#45;&gt;Node17 -->
<g id="edge16_Node000016_Node000017" class="edge">
<title>Node16&#45;&gt;Node17</title>
<g id="a_edge16_Node000016_Node000017"><a xlink:title=" ">
<path fill="none" stroke="#63b8ff" d="M460.3,-195.7C470.72,-195.24 481.43,-194.77 491.86,-194.31"/>
<polygon fill="#63b8ff" stroke="#63b8ff" points="459.84,-192.22 450,-196.16 460.15,-199.21 459.84,-192.22"/>
</a>
</g>
</g>
<!-- Node22 -->
<g id="Node000022" class="node">
<title>Node22</title>
<g id="a_Node000022"><a xlink:href="class_kit_1_1_system_1_1_posix_1_1_thread.html" target="_top" xlink:title="This concrete class implements a Thread object using Posix threads.">
<polygon fill="white" stroke="#666666" points="620.5,-78 515.5,-78 515.5,-48 620.5,-48 620.5,-78"/>
<text text-anchor="start" x="523.5" y="-66" font-family="Helvetica,sans-Serif" font-size="10.00">Kit::System::Posix</text>
<text text-anchor="middle" x="568" y="-55" font-family="Helvetica,sans-Serif" font-size="10.00">::Thread</text>
</a>
</g>
</g>
<!-- Node21&#45;&gt;Node22 -->
<g id="edge21_Node000021_Node000022" class="edge">
<title>Node21&#45;&gt;Node22</title>
<g id="a_edge21_Node000021_Node000022"><a xlink:title=" ">
<path fill="none" stroke="#63b8ff" d="M451.56,-47.74C472.55,-50.51 495.44,-53.54 515.27,-56.16"/>
<polygon fill="#63b8ff" stroke="#63b8ff" points="451.81,-44.24 441.44,-46.4 450.89,-51.18 451.81,-44.24"/>
</a>
</g>
</g>
<!-- Node23 -->
<g id="Node000023" class="node">
<title>Node23</title>
<g id="a_Node000023"><a xlink:href="class_kit_1_1_system_1_1_win32_1_1_thread.html" target="_top" xlink:title="This concrete class implements a Thread object using Win32 threads.">
<polygon fill="white" stroke="#666666" points="623,-30 513,-30 513,0 623,0 623,-30"/>
<text text-anchor="start" x="521" y="-18" font-family="Helvetica,sans-Serif" font-size="10.00">Kit::System::Win32</text>
<text text-anchor="middle" x="568" y="-7" font-family="Helvetica,sans-Serif" font-size="10.00">::Thread</text>
</a>
</g>
</g>
<!-- Node21&#45;&gt;Node23 -->
<g id="edge22_Node000021_Node000023" class="edge">
<title>Node21&#45;&gt;Node23</title>
<g id="a_edge22_Node000021_Node000023"><a xlink:title=" ">
<path fill="none" stroke="#63b8ff" d="M451.48,-30.28C471.62,-27.61 493.53,-24.71 512.8,-22.17"/>
<polygon fill="#63b8ff" stroke="#63b8ff" points="450.89,-26.82 441.44,-31.6 451.81,-33.76 450.89,-26.82"/>
</a>
</g>
</g>
</g>
</svg>
