<?xml version="1.0" encoding="UTF-8" standalone="no"?>
<!DOCTYPE svg PUBLIC "-//W3C//DTD SVG 1.1//EN"
 "http://www.w3.org/Graphics/SVG/1.1/DTD/svg11.dtd">
<!-- Generated by graphviz version 2.43.0 (0)
 -->
<!-- Title: Kit::Io::File::IInput Pages: 1 -->
<svg width="269pt" height="137pt"
 viewBox="0.00 0.00 268.50 137.00" xmlns="http://www.w3.org/2000/svg" xmlns:xlink="http://www.w3.org/1999/xlink">
<g id="graph0" class="graph" transform="scale(1 1) rotate(0) translate(4 133)">
<title>Kit::Io::File::IInput</title>
<!-- Node1 -->
<g id="Node000001" class="node">
<title>Node1</title>
<g id="a_Node000001"><a xlink:title="This abstract class defines the interface for a Random Access Input File.">
<polygon fill="#999999" stroke="#666666" points="195.5,-19 93.5,-19 93.5,0 195.5,0 195.5,-19"/>
<text text-anchor="middle" x="144.5" y="-7" font-family="Helvetica,sans-Serif" font-size="10.00">Kit::Io::File::IInput</text>
</a>
</g>
</g>
<!-- Node2 -->
<g id="Node000002" class="node">
<title>Node2</title>
<g id="a_Node000002"><a xlink:href="class_kit_1_1_io_1_1_i_input.html" target="_top" xlink:title="This partially abstract class defines a interface for operating on an input stream (example of a stre...">
<polygon fill="white" stroke="#666666" points="127,-74 48,-74 48,-55 127,-55 127,-74"/>
<text text-anchor="middle" x="87.5" y="-62" font-family="Helvetica,sans-Serif" font-size="10.00">Kit::Io::IInput</text>
</a>
</g>
</g>
<!-- Node2&#45;&gt;Node1 -->
<g id="edge1_Node000001_Node000002" class="edge">
<title>Node2&#45;&gt;Node1</title>
<g id="a_edge1_Node000001_Node000002"><a xlink:title=" ">
<path fill="none" stroke="#63b8ff" d="M104.12,-48.04C114.23,-38.64 126.78,-26.98 135.18,-19.17"/>
<polygon fill="#63b8ff" stroke="#63b8ff" points="101.6,-45.61 96.66,-54.98 106.36,-50.74 101.6,-45.61"/>
</a>
</g>
</g>
<!-- Node3 -->
<g id="Node000003" class="node">
<title>Node3</title>
<g id="a_Node000003"><a xlink:href="class_kit_1_1_io_1_1_i_close.html" target="_top" xlink:title="This abstract class defines a close operation that is intended to be used Input and Output streams/fi...">
<polygon fill="white" stroke="#666666" points="81,-129 0,-129 0,-110 81,-110 81,-129"/>
<text text-anchor="middle" x="40.5" y="-117" font-family="Helvetica,sans-Serif" font-size="10.00">Kit::Io::IClose</text>
</a>
</g>
</g>
<!-- Node3&#45;&gt;Node2 -->
<g id="edge2_Node000002_Node000003" class="edge">
<title>Node3&#45;&gt;Node2</title>
<g id="a_edge2_Node000002_Node000003"><a xlink:title=" ">
<path fill="none" stroke="#63b8ff" d="M54.92,-102.24C63.16,-92.95 73.15,-81.68 79.88,-74.09"/>
<polygon fill="#63b8ff" stroke="#63b8ff" points="52.28,-99.94 48.26,-109.75 57.51,-104.59 52.28,-99.94"/>
</a>
</g>
</g>
<!-- Node4 -->
<g id="Node000004" class="node">
<title>Node4</title>
<g id="a_Node000004"><a xlink:href="class_kit_1_1_io_1_1_i_eos.html" target="_top" xlink:title="This abstract class defines a isEos() operation that is intended to be used Input and Output streams.">
<polygon fill="white" stroke="#666666" points="170,-129 99,-129 99,-110 170,-110 170,-129"/>
<text text-anchor="middle" x="134.5" y="-117" font-family="Helvetica,sans-Serif" font-size="10.00">Kit::Io::IEos</text>
</a>
</g>
</g>
<!-- Node4&#45;&gt;Node2 -->
<g id="edge3_Node000002_Node000004" class="edge">
<title>Node4&#45;&gt;Node2</title>
<g id="a_edge3_Node000002_Node000004"><a xlink:title=" ">
<path fill="none" stroke="#63b8ff" d="M120.08,-102.24C111.84,-92.95 101.85,-81.68 95.12,-74.09"/>
<polygon fill="#63b8ff" stroke="#63b8ff" points="117.49,-104.59 126.74,-109.75 122.72,-99.94 117.49,-104.59"/>
</a>
</g>
</g>
<!-- Node5 -->
<g id="Node000005" class="node">
<title>Node5</title>
<g id="a_Node000005"><a xlink:href="class_kit_1_1_io_1_1_file_1_1_i_position.html" target="_top" xlink:title="This abstract class defines random&#45;access semantics for file&#45;like objects.">
<polygon fill="white" stroke="#666666" points="260.5,-74 144.5,-74 144.5,-55 260.5,-55 260.5,-74"/>
<text text-anchor="middle" x="202.5" y="-62" font-family="Helvetica,sans-Serif" font-size="10.00">Kit::Io::File::IPosition</text>
</a>
</g>
</g>
<!-- Node5&#45;&gt;Node1 -->
<g id="edge4_Node000001_Node000005" class="edge">
<title>Node5&#45;&gt;Node1</title>
<g id="a_edge4_Node000001_Node000005"><a xlink:title=" ">
<path fill="none" stroke="#63b8ff" d="M185.59,-48.04C175.3,-38.64 162.53,-26.98 153.99,-19.17"/>
<polygon fill="#63b8ff" stroke="#63b8ff" points="183.44,-50.82 193.18,-54.98 188.16,-45.66 183.44,-50.82"/>
</a>
</g>
</g>
</g>
</svg>
