<?xml version="1.0" encoding="UTF-8" standalone="no"?>
<!DOCTYPE svg PUBLIC "-//W3C//DTD SVG 1.1//EN"
 "http://www.w3.org/Graphics/SVG/1.1/DTD/svg11.dtd">
<!-- Generated by graphviz version 2.43.0 (0)
 -->
<!-- Title: Kit::System::Watchdog::WatchedEventThread Pages: 1 -->
<svg width="1576pt" height="120pt"
 viewBox="0.00 0.00 1576.00 119.80" xmlns="http://www.w3.org/2000/svg" xmlns:xlink="http://www.w3.org/1999/xlink">
<g id="graph0" class="graph" transform="scale(1 1) rotate(0) translate(4 115.8)">
<title>Kit::System::Watchdog::WatchedEventThread</title>
<!-- Node1 -->
<g id="Node000001" class="node">
<title>Node1</title>
<g id="a_Node000001"><a xlink:title="This class implements the IWatchedEventLoop interface and provides watchdog monitoring capabilities f...">
<polygon fill="#999999" stroke="#666666" points="1235,-37 1108,-37 1108,-7 1235,-7 1235,-37"/>
<text text-anchor="start" x="1116" y="-25" font-family="Helvetica,sans-Serif" font-size="10.00">Kit::System::Watchdog</text>
<text text-anchor="middle" x="1171.5" y="-14" font-family="Helvetica,sans-Serif" font-size="10.00">::WatchedEventThread</text>
</a>
</g>
</g>
<!-- Node6 -->
<g id="Node000006" class="node">
<title>Node6</title>
<g id="a_Node000006"><a xlink:href="class_kit_1_1_system_1_1_timer_composer.html" target="_top" xlink:title=" ">
<polygon fill="white" stroke="#666666" points="1568,-82.5 1411,-82.5 1411,-41.5 1568,-41.5 1568,-82.5"/>
<text text-anchor="start" x="1419" y="-70.5" font-family="Helvetica,sans-Serif" font-size="10.00">Kit::System::TimerComposer</text>
<text text-anchor="start" x="1419" y="-59.5" font-family="Helvetica,sans-Serif" font-size="10.00">&lt; Kit::System::Watchdog</text>
<text text-anchor="middle" x="1489.5" y="-48.5" font-family="Helvetica,sans-Serif" font-size="10.00">::WatchedEventThread &gt;</text>
</a>
</g>
</g>
<!-- Node1&#45;&gt;Node6 -->
<g id="edge13_Node000006_Node000001" class="edge">
<title>Node1&#45;&gt;Node6</title>
<g id="a_edge13_Node000006_Node000001"><a xlink:title=" ">
<path fill="none" stroke="#9a32cd" stroke-dasharray="5,2" d="M1245.19,-12.91C1288.58,-9.48 1344.49,-8.58 1393,-19 1413.62,-23.43 1435.16,-32.67 1452.56,-41.46"/>
<polygon fill="#9a32cd" stroke="#9a32cd" points="1244.68,-9.44 1235.01,-13.78 1245.27,-16.42 1244.68,-9.44"/>
</a>
</g>
<text text-anchor="middle" x="1330.5" y="-22" font-family="Helvetica,sans-Serif" font-size="10.00" fill="grey"> m_context</text>
</g>
<!-- Node2 -->
<g id="Node000002" class="node">
<title>Node2</title>
<g id="a_Node000002"><a xlink:href="class_kit_1_1_system_1_1_i_watched_event_loop.html" target="_top" xlink:title="This abstract interface defines the API for watching/monitoring an EventLoop for watchdog purposes.">
<polygon fill="white" stroke="#666666" points="1056,-62.5 881,-62.5 881,-43.5 1056,-43.5 1056,-62.5"/>
<text text-anchor="middle" x="968.5" y="-50.5" font-family="Helvetica,sans-Serif" font-size="10.00">Kit::System::IWatchedEventLoop</text>
</a>
</g>
</g>
<!-- Node2&#45;&gt;Node1 -->
<g id="edge1_Node000001_Node000002" class="edge">
<title>Node2&#45;&gt;Node1</title>
<g id="a_edge1_Node000001_Node000002"><a xlink:title=" ">
<path fill="none" stroke="#63b8ff" d="M1041.34,-41.92C1063.1,-38.56 1086.81,-34.91 1107.9,-31.65"/>
<polygon fill="#63b8ff" stroke="#63b8ff" points="1040.52,-38.5 1031.17,-43.49 1041.59,-45.42 1040.52,-38.5"/>
</a>
</g>
</g>
<!-- Node3 -->
<g id="Node000003" class="node">
<title>Node3</title>
<g id="a_Node000003"><a xlink:href="class_kit_1_1_system_1_1_watchdog_1_1_watched_thread.html" target="_top" xlink:title="This class represents a thread being monitored by the watchdog system.">
<polygon fill="white" stroke="#666666" points="595,-30 468,-30 468,0 595,0 595,-30"/>
<text text-anchor="start" x="476" y="-18" font-family="Helvetica,sans-Serif" font-size="10.00">Kit::System::Watchdog</text>
<text text-anchor="middle" x="531.5" y="-7" font-family="Helvetica,sans-Serif" font-size="10.00">::WatchedThread</text>
</a>
</g>
</g>
<!-- Node3&#45;&gt;Node1 -->
<g id="edge2_Node000001_Node000003" class="edge">
<title>Node3&#45;&gt;Node1</title>
<g id="a_edge2_Node000001_Node000003"><a xlink:title=" ">
<path fill="none" stroke="#63b8ff" d="M605.47,-15.8C731.84,-17.19 989.27,-20.01 1107.98,-21.31"/>
<polygon fill="#63b8ff" stroke="#63b8ff" points="605.17,-12.3 595.13,-15.69 605.09,-19.3 605.17,-12.3"/>
</a>
</g>
</g>
<!-- Node4 -->
<g id="Node000004" class="node">
<title>Node4</title>
<g id="a_Node000004"><a xlink:href="class_kit_1_1_container_1_1_list_item.html" target="_top" xlink:title="This class is used by the Container classes to implement a various types of linked lists containers.">
<polygon fill="white" stroke="#666666" points="278,-36.5 149,-36.5 149,-17.5 278,-17.5 278,-36.5"/>
<text text-anchor="middle" x="213.5" y="-24.5" font-family="Helvetica,sans-Serif" font-size="10.00">Kit::Container::ListItem</text>
</a>
</g>
</g>
<!-- Node4&#45;&gt;Node3 -->
<g id="edge3_Node000003_Node000004" class="edge">
<title>Node4&#45;&gt;Node3</title>
<g id="a_edge3_Node000003_Node000004"><a xlink:title=" ">
<path fill="none" stroke="#63b8ff" d="M288.36,-24.2C342.85,-22.13 416.2,-19.34 467.84,-17.38"/>
<polygon fill="#63b8ff" stroke="#63b8ff" points="287.93,-20.71 278.07,-24.59 288.19,-27.7 287.93,-20.71"/>
</a>
</g>
</g>
<!-- Node4&#45;&gt;Node4 -->
<g id="edge5_Node000004_Node000004" class="edge">
<title>Node4&#45;&gt;Node4</title>
<g id="a_edge5_Node000004_Node000004"><a xlink:title=" ">
<path fill="none" stroke="#9a32cd" stroke-dasharray="5,2" d="M198.4,-46.41C199.59,-51.06 204.62,-54.5 213.5,-54.5 228.07,-54.5 232.29,-45.23 226.14,-36.58"/>
<polygon fill="#9a32cd" stroke="#9a32cd" points="201.83,-47.13 200.86,-36.58 195.04,-45.43 201.83,-47.13"/>
</a>
</g>
<text text-anchor="middle" x="213.5" y="-57.5" font-family="Helvetica,sans-Serif" font-size="10.00" fill="grey"> m_nextPtr_</text>
</g>
<!-- Node9 -->
<g id="Node000009" class="node">
<title>Node9</title>
<g id="a_Node000009"><a xlink:href="class_kit_1_1_container_1_1_extended_list_item.html" target="_top" xlink:title="This class is used by the Container classes to implement a various types of DOUBLY linked containers.">
<polygon fill="white" stroke="#666666" points="450,-73 315,-73 315,-43 450,-43 450,-73"/>
<text text-anchor="start" x="323" y="-61" font-family="Helvetica,sans-Serif" font-size="10.00">Kit::Container::Extended</text>
<text text-anchor="middle" x="382.5" y="-50" font-family="Helvetica,sans-Serif" font-size="10.00">ListItem</text>
</a>
</g>
</g>
<!-- Node4&#45;&gt;Node9 -->
<g id="edge10_Node000009_Node000004" class="edge">
<title>Node4&#45;&gt;Node9</title>
<g id="a_edge10_Node000009_Node000004"><a xlink:title=" ">
<path fill="none" stroke="#63b8ff" d="M275.94,-38.4C288.59,-40.75 301.98,-43.24 314.81,-45.62"/>
<polygon fill="#63b8ff" stroke="#63b8ff" points="276.44,-34.94 265.97,-36.55 275.16,-41.82 276.44,-34.94"/>
</a>
</g>
</g>
<!-- Node5 -->
<g id="Node000005" class="node">
<title>Node5</title>
<g id="a_Node000005"><a xlink:href="class_kit_1_1_container_1_1_item.html" target="_top" xlink:title="This class is used by the Intrusive Container classes to enforce the semantic and item/element can be...">
<polygon fill="white" stroke="#666666" points="112,-36.5 0,-36.5 0,-17.5 112,-17.5 112,-36.5"/>
<text text-anchor="middle" x="56" y="-24.5" font-family="Helvetica,sans-Serif" font-size="10.00">Kit::Container::Item</text>
</a>
</g>
</g>
<!-- Node5&#45;&gt;Node4 -->
<g id="edge4_Node000004_Node000005" class="edge">
<title>Node5&#45;&gt;Node4</title>
<g id="a_edge4_Node000004_Node000005"><a xlink:title=" ">
<path fill="none" stroke="#63b8ff" d="M122.43,-27C131.2,-27 140.19,-27 148.93,-27"/>
<polygon fill="#63b8ff" stroke="#63b8ff" points="122.26,-23.5 112.26,-27 122.26,-30.5 122.26,-23.5"/>
</a>
</g>
</g>
<!-- Node6&#45;&gt;Node1 -->
<g id="edge6_Node000001_Node000006" class="edge">
<title>Node6&#45;&gt;Node1</title>
<g id="a_edge6_Node000001_Node000006"><a xlink:title=" ">
<path fill="none" stroke="#9a32cd" stroke-dasharray="5,2" d="M1400.99,-50.92C1348.42,-44.27 1282.74,-35.95 1235.31,-29.95"/>
<polygon fill="#9a32cd" stroke="#9a32cd" points="1400.63,-54.4 1410.99,-52.19 1401.51,-47.46 1400.63,-54.4"/>
</a>
</g>
<text text-anchor="middle" x="1330.5" y="-52" font-family="Helvetica,sans-Serif" font-size="10.00" fill="grey"> m_timer</text>
</g>
<!-- Node7 -->
<g id="Node000007" class="node">
<title>Node7</title>
<g id="a_Node000007"><a xlink:href="class_kit_1_1_system_1_1_timer.html" target="_top" xlink:title="This mostly concrete interface defines the operations that can be performed on a software timer.">
<polygon fill="white" stroke="#666666" points="1022,-102.5 915,-102.5 915,-83.5 1022,-83.5 1022,-102.5"/>
<text text-anchor="middle" x="968.5" y="-90.5" font-family="Helvetica,sans-Serif" font-size="10.00">Kit::System::Timer</text>
</a>
</g>
</g>
<!-- Node7&#45;&gt;Node6 -->
<g id="edge7_Node000006_Node000007" class="edge">
<title>Node7&#45;&gt;Node6</title>
<g id="a_edge7_Node000006_Node000007"><a xlink:title=" ">
<path fill="none" stroke="#63b8ff" d="M1032.3,-101.14C1115.58,-110.23 1266.76,-120.77 1393,-97 1409.31,-93.93 1426.52,-88.39 1441.77,-82.62"/>
<polygon fill="#63b8ff" stroke="#63b8ff" points="1032.56,-97.65 1022.24,-100.02 1031.78,-104.61 1032.56,-97.65"/>
</a>
</g>
</g>
<!-- Node11 -->
<g id="Node000011" class="node">
<title>Node11</title>
<g id="a_Node000011"><a xlink:href="class_kit_1_1_system_1_1_timer_composer.html" target="_top" xlink:title="This template class implements a Software Timer that is context independent and allows for a single c...">
<polygon fill="white" stroke="#666666" points="1250,-91 1093,-91 1093,-61 1250,-61 1250,-91"/>
<text text-anchor="start" x="1101" y="-79" font-family="Helvetica,sans-Serif" font-size="10.00">Kit::System::TimerComposer</text>
<text text-anchor="middle" x="1171.5" y="-68" font-family="Helvetica,sans-Serif" font-size="10.00">&lt; CONTEXT &gt;</text>
</a>
</g>
</g>
<!-- Node7&#45;&gt;Node11 -->
<g id="edge15_Node000011_Node000007" class="edge">
<title>Node7&#45;&gt;Node11</title>
<g id="a_edge15_Node000011_Node000007"><a xlink:title=" ">
<path fill="none" stroke="#63b8ff" d="M1032.19,-87.7C1051.41,-86.07 1072.8,-84.26 1092.9,-82.56"/>
<polygon fill="#63b8ff" stroke="#63b8ff" points="1031.72,-84.23 1022.05,-88.56 1032.31,-91.2 1031.72,-84.23"/>
</a>
</g>
</g>
<!-- Node8 -->
<g id="Node000008" class="node">
<title>Node8</title>
<g id="a_Node000008"><a xlink:href="class_kit_1_1_system_1_1_i_counter.html" target="_top" xlink:title="This abstract class defines the call&#45;back interface for a Counter object.">
<polygon fill="white" stroke="#666666" points="747.5,-67.5 627.5,-67.5 627.5,-48.5 747.5,-48.5 747.5,-67.5"/>
<text text-anchor="middle" x="687.5" y="-55.5" font-family="Helvetica,sans-Serif" font-size="10.00">Kit::System::ICounter</text>
</a>
</g>
</g>
<!-- Node8&#45;&gt;Node7 -->
<g id="edge8_Node000007_Node000008" class="edge">
<title>Node8&#45;&gt;Node7</title>
<g id="a_edge8_Node000007_Node000008"><a xlink:title=" ">
<path fill="none" stroke="#63b8ff" d="M757.77,-66.69C806.27,-72.77 870.09,-80.78 914.54,-86.36"/>
<polygon fill="#63b8ff" stroke="#63b8ff" points="758.03,-63.19 747.67,-65.42 757.16,-70.14 758.03,-63.19"/>
</a>
</g>
</g>
<!-- Node9&#45;&gt;Node8 -->
<g id="edge9_Node000008_Node000009" class="edge">
<title>Node9&#45;&gt;Node8</title>
<g id="a_edge9_Node000008_Node000009"><a xlink:title=" ">
<path fill="none" stroke="#63b8ff" d="M460.53,-58C512.43,-58 579.84,-58 627.48,-58"/>
<polygon fill="#63b8ff" stroke="#63b8ff" points="460.37,-54.5 450.37,-58 460.37,-61.5 460.37,-54.5"/>
</a>
</g>
</g>
<!-- Node9&#45;&gt;Node9 -->
<g id="edge11_Node000009_Node000009" class="edge">
<title>Node9&#45;&gt;Node9</title>
<g id="a_edge11_Node000009_Node000009"><a xlink:title=" ">
<path fill="none" stroke="#9a32cd" stroke-dasharray="5,2" d="M367.45,-83.6C369.5,-87.97 374.52,-91 382.5,-91 395.94,-91 400.98,-82.41 397.62,-73.28"/>
<polygon fill="#9a32cd" stroke="#9a32cd" points="370.94,-83.25 367.38,-73.28 363.94,-83.3 370.94,-83.25"/>
</a>
</g>
<text text-anchor="middle" x="382.5" y="-94" font-family="Helvetica,sans-Serif" font-size="10.00" fill="grey"> m_prevPtr_</text>
</g>
<!-- Node10 -->
<g id="Node000010" class="node">
<title>Node10</title>
<g id="a_Node000010"><a xlink:href="class_kit_1_1_system_1_1_i_timing_source.html" target="_top" xlink:title="This abstract class defines the interface for a timing source.">
<polygon fill="white" stroke="#666666" points="762,-104.5 613,-104.5 613,-85.5 762,-85.5 762,-104.5"/>
<text text-anchor="middle" x="687.5" y="-92.5" font-family="Helvetica,sans-Serif" font-size="10.00">Kit::System::ITimingSource</text>
</a>
</g>
</g>
<!-- Node10&#45;&gt;Node7 -->
<g id="edge12_Node000007_Node000010" class="edge">
<title>Node10&#45;&gt;Node7</title>
<g id="a_edge12_Node000007_Node000010"><a xlink:title=" ">
<path fill="none" stroke="#9a32cd" stroke-dasharray="5,2" d="M772.18,-94.4C818.43,-94.07 874.48,-93.67 914.65,-93.38"/>
<polygon fill="#9a32cd" stroke="#9a32cd" points="772.14,-90.9 762.17,-94.47 772.19,-97.9 772.14,-90.9"/>
</a>
</g>
<text text-anchor="middle" x="821.5" y="-97" font-family="Helvetica,sans-Serif" font-size="10.00" fill="grey"> m_timingSource</text>
</g>
<!-- Node11&#45;&gt;Node6 -->
<g id="edge14_Node000006_Node000011" class="edge">
<title>Node11&#45;&gt;Node6</title>
<g id="a_edge14_Node000006_Node000011"><a xlink:title=" ">
<path fill="none" stroke="orange" stroke-dasharray="5,2" d="M1260.42,-72.1C1307.62,-70.01 1365.28,-67.46 1410.82,-65.44"/>
<polygon fill="orange" stroke="orange" points="1260.04,-68.62 1250.21,-72.56 1260.35,-75.61 1260.04,-68.62"/>
</a>
</g>
<text text-anchor="start" x="1268" y="-85" font-family="Helvetica,sans-Serif" font-size="10.00" fill="grey"> &lt; Kit::System::Watchdog</text>
<text text-anchor="middle" x="1330.5" y="-74" font-family="Helvetica,sans-Serif" font-size="10.00" fill="grey">::WatchedEventThread &gt;</text>
</g>
</g>
</svg>
