<?xml version="1.0" encoding="UTF-8" standalone="no"?>
<!DOCTYPE svg PUBLIC "-//W3C//DTD SVG 1.1//EN"
 "http://www.w3.org/Graphics/SVG/1.1/DTD/svg11.dtd">
<!-- Generated by graphviz version 2.43.0 (0)
 -->
<!-- Title: Dm::Transaction::MpFoo Pages: 1 -->
<svg width="227pt" height="462pt"
 viewBox="0.00 0.00 227.00 462.00" xmlns="http://www.w3.org/2000/svg" xmlns:xlink="http://www.w3.org/1999/xlink">
<g id="graph0" class="graph" transform="scale(1 1) rotate(0) translate(4 458)">
<title>Dm::Transaction::MpFoo</title>
<!-- Node1 -->
<g id="Node000001" class="node">
<title>Node1</title>
<g id="a_Node000001"><a xlink:title="This concreate class implements a type safe MP for the data structure: Foo_T.">
<polygon fill="#999999" stroke="#666666" points="140,-19 6,-19 6,0 140,0 140,-19"/>
<text text-anchor="middle" x="73" y="-7" font-family="Helvetica,sans-Serif" font-size="10.00">Dm::Transaction::MpFoo</text>
</a>
</g>
</g>
<!-- Node2 -->
<g id="Node000002" class="node">
<title>Node2</title>
<g id="a_Node000002"><a xlink:href="class_kit_1_1_dm_1_1_mp_1_1_scalar.html" target="_top" xlink:title=" ">
<polygon fill="white" stroke="#666666" points="128,-86 18,-86 18,-56 128,-56 128,-86"/>
<text text-anchor="start" x="26" y="-74" font-family="Helvetica,sans-Serif" font-size="10.00">Kit::Dm::Mp::Scalar</text>
<text text-anchor="middle" x="73" y="-63" font-family="Helvetica,sans-Serif" font-size="10.00">&lt; Foo_T, MpFoo &gt;</text>
</a>
</g>
</g>
<!-- Node2&#45;&gt;Node1 -->
<g id="edge1_Node000001_Node000002" class="edge">
<title>Node2&#45;&gt;Node1</title>
<g id="a_edge1_Node000001_Node000002"><a xlink:title=" ">
<path fill="none" stroke="#63b8ff" d="M73,-45.79C73,-36.36 73,-26.15 73,-19.16"/>
<polygon fill="#63b8ff" stroke="#63b8ff" points="69.5,-45.9 73,-55.9 76.5,-45.9 69.5,-45.9"/>
</a>
</g>
</g>
<!-- Node3 -->
<g id="Node000003" class="node">
<title>Node3</title>
<g id="a_Node000003"><a xlink:href="class_kit_1_1_dm_1_1_model_point_base.html" target="_top" xlink:title="This concrete class provide common infrastructure for a Model Point.">
<polygon fill="white" stroke="#666666" points="138,-219 0,-219 0,-200 138,-200 138,-219"/>
<text text-anchor="middle" x="69" y="-207" font-family="Helvetica,sans-Serif" font-size="10.00">Kit::Dm::ModelPointBase</text>
</a>
</g>
</g>
<!-- Node3&#45;&gt;Node2 -->
<g id="edge2_Node000002_Node000003" class="edge">
<title>Node3&#45;&gt;Node2</title>
<g id="a_edge2_Node000002_Node000003"><a xlink:title=" ">
<path fill="none" stroke="#63b8ff" d="M69.55,-189.65C70.37,-161.91 71.87,-110.7 72.59,-86.02"/>
<polygon fill="#63b8ff" stroke="#63b8ff" points="66.04,-189.86 69.25,-199.96 73.04,-190.07 66.04,-189.86"/>
</a>
</g>
</g>
<!-- Node8 -->
<g id="Node000008" class="node">
<title>Node8</title>
<g id="a_Node000008"><a xlink:href="class_kit_1_1_dm_1_1_mp_1_1_scalar.html" target="_top" xlink:title="This template class is partial concrete class that provides a basic implementation for a Model Point ...">
<polygon fill="white" stroke="#666666" points="219,-163 85,-163 85,-133 219,-133 219,-163"/>
<text text-anchor="start" x="93" y="-151" font-family="Helvetica,sans-Serif" font-size="10.00">Kit::Dm::Mp::Scalar</text>
<text text-anchor="middle" x="152" y="-140" font-family="Helvetica,sans-Serif" font-size="10.00">&lt; ELEMTYPE, MPTYPE &gt;</text>
</a>
</g>
</g>
<!-- Node3&#45;&gt;Node8 -->
<g id="edge8_Node000008_Node000003" class="edge">
<title>Node3&#45;&gt;Node8</title>
<g id="a_edge8_Node000008_Node000003"><a xlink:title=" ">
<path fill="none" stroke="#63b8ff" d="M89.27,-193.97C102.41,-184.55 119.44,-172.34 132.44,-163.02"/>
<polygon fill="#63b8ff" stroke="#63b8ff" points="86.98,-191.3 80.89,-199.98 91.06,-196.99 86.98,-191.3"/>
</a>
</g>
</g>
<!-- Node4 -->
<g id="Node000004" class="node">
<title>Node4</title>
<g id="a_Node000004"><a xlink:href="class_kit_1_1_dm_1_1_i_model_point.html" target="_top" xlink:title="This mostly abstract class defines the interface for a Model Point.">
<polygon fill="white" stroke="#666666" points="127.5,-275 10.5,-275 10.5,-256 127.5,-256 127.5,-275"/>
<text text-anchor="middle" x="69" y="-263" font-family="Helvetica,sans-Serif" font-size="10.00">Kit::Dm::IModelPoint</text>
</a>
</g>
</g>
<!-- Node4&#45;&gt;Node3 -->
<g id="edge3_Node000003_Node000004" class="edge">
<title>Node4&#45;&gt;Node3</title>
<g id="a_edge3_Node000003_Node000004"><a xlink:title=" ">
<path fill="none" stroke="#63b8ff" d="M69,-245.3C69,-236.41 69,-226.28 69,-219.25"/>
<polygon fill="#63b8ff" stroke="#63b8ff" points="65.5,-245.58 69,-255.58 72.5,-245.58 65.5,-245.58"/>
</a>
</g>
</g>
<!-- Node5 -->
<g id="Node000005" class="node">
<title>Node5</title>
<g id="a_Node000005"><a xlink:href="class_kit_1_1_container_1_1_extended_list_item.html" target="_top" xlink:title="This class is used by the Container classes to implement a various types of DOUBLY linked containers.">
<polygon fill="white" stroke="#666666" points="136.5,-342 1.5,-342 1.5,-312 136.5,-312 136.5,-342"/>
<text text-anchor="start" x="9.5" y="-330" font-family="Helvetica,sans-Serif" font-size="10.00">Kit::Container::Extended</text>
<text text-anchor="middle" x="69" y="-319" font-family="Helvetica,sans-Serif" font-size="10.00">ListItem</text>
</a>
</g>
</g>
<!-- Node5&#45;&gt;Node4 -->
<g id="edge4_Node000004_Node000005" class="edge">
<title>Node5&#45;&gt;Node4</title>
<g id="a_edge4_Node000004_Node000005"><a xlink:title=" ">
<path fill="none" stroke="#63b8ff" d="M69,-301.79C69,-292.36 69,-282.15 69,-275.16"/>
<polygon fill="#63b8ff" stroke="#63b8ff" points="65.5,-301.9 69,-311.9 72.5,-301.9 65.5,-301.9"/>
</a>
</g>
</g>
<!-- Node6 -->
<g id="Node000006" class="node">
<title>Node6</title>
<g id="a_Node000006"><a xlink:href="class_kit_1_1_container_1_1_list_item.html" target="_top" xlink:title="This class is used by the Container classes to implement a various types of linked lists containers.">
<polygon fill="white" stroke="#666666" points="133.5,-398 4.5,-398 4.5,-379 133.5,-379 133.5,-398"/>
<text text-anchor="middle" x="69" y="-386" font-family="Helvetica,sans-Serif" font-size="10.00">Kit::Container::ListItem</text>
</a>
</g>
</g>
<!-- Node6&#45;&gt;Node5 -->
<g id="edge5_Node000005_Node000006" class="edge">
<title>Node6&#45;&gt;Node5</title>
<g id="a_edge5_Node000005_Node000006"><a xlink:title=" ">
<path fill="none" stroke="#63b8ff" d="M69,-368.73C69,-360.09 69,-350 69,-342.02"/>
<polygon fill="#63b8ff" stroke="#63b8ff" points="65.5,-368.98 69,-378.98 72.5,-368.98 65.5,-368.98"/>
</a>
</g>
</g>
<!-- Node7 -->
<g id="Node000007" class="node">
<title>Node7</title>
<g id="a_Node000007"><a xlink:href="class_kit_1_1_container_1_1_item.html" target="_top" xlink:title="This class is used by the Intrusive Container classes to enforce the semantic and item/element can be...">
<polygon fill="white" stroke="#666666" points="125,-454 13,-454 13,-435 125,-435 125,-454"/>
<text text-anchor="middle" x="69" y="-442" font-family="Helvetica,sans-Serif" font-size="10.00">Kit::Container::Item</text>
</a>
</g>
</g>
<!-- Node7&#45;&gt;Node6 -->
<g id="edge6_Node000006_Node000007" class="edge">
<title>Node7&#45;&gt;Node6</title>
<g id="a_edge6_Node000006_Node000007"><a xlink:title=" ">
<path fill="none" stroke="#63b8ff" d="M69,-424.3C69,-415.41 69,-405.28 69,-398.25"/>
<polygon fill="#63b8ff" stroke="#63b8ff" points="65.5,-424.58 69,-434.58 72.5,-424.58 65.5,-424.58"/>
</a>
</g>
</g>
<!-- Node8&#45;&gt;Node2 -->
<g id="edge7_Node000002_Node000008" class="edge">
<title>Node8&#45;&gt;Node2</title>
<g id="a_edge7_Node000002_Node000008"><a xlink:title=" ">
<path fill="none" stroke="orange" stroke-dasharray="5,2" d="M129.69,-125.82C116.27,-113.08 99.58,-97.24 87.79,-86.04"/>
<polygon fill="orange" stroke="orange" points="127.48,-128.55 137.14,-132.89 132.3,-123.47 127.48,-128.55"/>
</a>
</g>
<text text-anchor="middle" x="163.5" y="-107" font-family="Helvetica,sans-Serif" font-size="10.00" fill="grey"> &lt; Foo_T, MpFoo &gt;</text>
</g>
</g>
</svg>
