<?xml version="1.0" encoding="UTF-8" standalone="no"?>
<!DOCTYPE svg PUBLIC "-//W3C//DTD SVG 1.1//EN"
 "http://www.w3.org/Graphics/SVG/1.1/DTD/svg11.dtd">
<!-- Generated by graphviz version 2.43.0 (0)
 -->
<!-- Title: Kit::Persistence::Record::Journal::HeadRecord Pages: 1 -->
<svg width="290pt" height="236pt"
 viewBox="0.00 0.00 290.00 236.00" xmlns="http://www.w3.org/2000/svg" xmlns:xlink="http://www.w3.org/1999/xlink">
<g id="graph0" class="graph" transform="scale(1 1) rotate(0) translate(4 232)">
<title>Kit::Persistence::Record::Journal::HeadRecord</title>
<!-- Node1 -->
<g id="Node000001" class="node">
<title>Node1</title>
<g id="a_Node000001"><a xlink:title="This concrete class is responsible for storing and retrieving the &quot;head pointer&quot; for the logical Ring...">
<polygon fill="#999999" stroke="#666666" points="207,-30 75,-30 75,0 207,0 207,-30"/>
<text text-anchor="start" x="83" y="-18" font-family="Helvetica,sans-Serif" font-size="10.00">Kit::Persistence::Record</text>
<text text-anchor="middle" x="141" y="-7" font-family="Helvetica,sans-Serif" font-size="10.00">::Journal::HeadRecord</text>
</a>
</g>
</g>
<!-- Node2 -->
<g id="Node000002" class="node">
<title>Node2</title>
<g id="a_Node000002"><a xlink:href="class_kit_1_1_persistence_1_1_record_1_1_journal_1_1_i_head.html" target="_top" xlink:title="This abstract class defines the interface to manage the newest entry in an IEntry record.">
<polygon fill="white" stroke="#666666" points="207,-96 75,-96 75,-66 207,-66 207,-96"/>
<text text-anchor="start" x="83" y="-84" font-family="Helvetica,sans-Serif" font-size="10.00">Kit::Persistence::Record</text>
<text text-anchor="middle" x="141" y="-73" font-family="Helvetica,sans-Serif" font-size="10.00">::Journal::IHead</text>
</a>
</g>
</g>
<!-- Node2&#45;&gt;Node1 -->
<g id="edge1_Node000001_Node000002" class="edge">
<title>Node2&#45;&gt;Node1</title>
<g id="a_edge1_Node000001_Node000002"><a xlink:title=" ">
<path fill="none" stroke="#63b8ff" d="M141,-55.54C141,-46.96 141,-37.61 141,-30.16"/>
<polygon fill="#63b8ff" stroke="#63b8ff" points="137.5,-55.8 141,-65.8 144.5,-55.8 137.5,-55.8"/>
</a>
</g>
</g>
<!-- Node3 -->
<g id="Node000003" class="node">
<title>Node3</title>
<g id="a_Node000003"><a xlink:href="class_kit_1_1_persistence_1_1_record_1_1_i_data_record.html" target="_top" xlink:title="This abstract extends the IRecord interface to include semantics for an unmanaged &#39;data store&#39;,...">
<polygon fill="white" stroke="#666666" points="207,-162 75,-162 75,-132 207,-132 207,-162"/>
<text text-anchor="start" x="83" y="-150" font-family="Helvetica,sans-Serif" font-size="10.00">Kit::Persistence::Record</text>
<text text-anchor="middle" x="141" y="-139" font-family="Helvetica,sans-Serif" font-size="10.00">::IDataRecord</text>
</a>
</g>
</g>
<!-- Node3&#45;&gt;Node2 -->
<g id="edge2_Node000002_Node000003" class="edge">
<title>Node3&#45;&gt;Node2</title>
<g id="a_edge2_Node000002_Node000003"><a xlink:title=" ">
<path fill="none" stroke="#63b8ff" d="M141,-121.54C141,-112.96 141,-103.61 141,-96.16"/>
<polygon fill="#63b8ff" stroke="#63b8ff" points="137.5,-121.8 141,-131.8 144.5,-121.8 137.5,-121.8"/>
</a>
</g>
</g>
<!-- Node4 -->
<g id="Node000004" class="node">
<title>Node4</title>
<g id="a_Node000004"><a xlink:href="class_kit_1_1_persistence_1_1_record_1_1_i_record.html" target="_top" xlink:title="This abstract class defines the public interface for a Record instance.">
<polygon fill="white" stroke="#666666" points="132,-228 0,-228 0,-198 132,-198 132,-228"/>
<text text-anchor="start" x="8" y="-216" font-family="Helvetica,sans-Serif" font-size="10.00">Kit::Persistence::Record</text>
<text text-anchor="middle" x="66" y="-205" font-family="Helvetica,sans-Serif" font-size="10.00">::IRecord</text>
</a>
</g>
</g>
<!-- Node4&#45;&gt;Node3 -->
<g id="edge3_Node000003_Node000004" class="edge">
<title>Node4&#45;&gt;Node3</title>
<g id="a_edge3_Node000003_Node000004"><a xlink:title=" ">
<path fill="none" stroke="#63b8ff" d="M90.37,-191.2C101.51,-181.7 114.41,-170.69 124.4,-162.16"/>
<polygon fill="#63b8ff" stroke="#63b8ff" points="87.98,-188.64 82.64,-197.8 92.52,-193.97 87.98,-188.64"/>
</a>
</g>
</g>
<!-- Node5 -->
<g id="Node000005" class="node">
<title>Node5</title>
<g id="a_Node000005"><a xlink:href="class_kit_1_1_persistence_1_1_record_1_1_i_payload.html" target="_top" xlink:title="This abstract class defines the interface accessing the data payload of an individual Record instance...">
<polygon fill="white" stroke="#666666" points="282,-228 150,-228 150,-198 282,-198 282,-228"/>
<text text-anchor="start" x="158" y="-216" font-family="Helvetica,sans-Serif" font-size="10.00">Kit::Persistence::Record</text>
<text text-anchor="middle" x="216" y="-205" font-family="Helvetica,sans-Serif" font-size="10.00">::IPayload</text>
</a>
</g>
</g>
<!-- Node5&#45;&gt;Node3 -->
<g id="edge4_Node000003_Node000005" class="edge">
<title>Node5&#45;&gt;Node3</title>
<g id="a_edge4_Node000003_Node000005"><a xlink:title=" ">
<path fill="none" stroke="#63b8ff" d="M191.63,-191.2C180.49,-181.7 167.59,-170.69 157.6,-162.16"/>
<polygon fill="#63b8ff" stroke="#63b8ff" points="189.48,-193.97 199.36,-197.8 194.02,-188.64 189.48,-193.97"/>
</a>
</g>
</g>
</g>
</svg>
