<?xml version="1.0" encoding="UTF-8" standalone="no"?>
<!DOCTYPE svg PUBLIC "-//W3C//DTD SVG 1.1//EN"
 "http://www.w3.org/Graphics/SVG/1.1/DTD/svg11.dtd">
<!-- Generated by graphviz version 2.43.0 (0)
 -->
<!-- Title: Kit::Io::Socket::InputOutput Pages: 1 -->
<svg width="192pt" height="247pt"
 viewBox="0.00 0.00 192.00 247.00" xmlns="http://www.w3.org/2000/svg" xmlns:xlink="http://www.w3.org/1999/xlink">
<g id="graph0" class="graph" transform="scale(1 1) rotate(0) translate(4 243)">
<title>Kit::Io::Socket::InputOutput</title>
<!-- Node1 -->
<g id="Node000001" class="node">
<title>Node1</title>
<g id="a_Node000001"><a xlink:title="This concrete class provides a platform independent &#39;standard&#39; implementation of an InputOutput strea...">
<polygon fill="#999999" stroke="#666666" points="163,-19 16,-19 16,0 163,0 163,-19"/>
<text text-anchor="middle" x="89.5" y="-7" font-family="Helvetica,sans-Serif" font-size="10.00">Kit::Io::Socket::InputOutput</text>
</a>
</g>
</g>
<!-- Node2 -->
<g id="Node000002" class="node">
<title>Node2</title>
<g id="a_Node000002"><a xlink:href="class_kit_1_1_io_1_1_socket_1_1_i_input_output.html" target="_top" xlink:title="This abstract class defines the interface for a BSD socket.">
<polygon fill="white" stroke="#666666" points="164.5,-74 14.5,-74 14.5,-55 164.5,-55 164.5,-74"/>
<text text-anchor="middle" x="89.5" y="-62" font-family="Helvetica,sans-Serif" font-size="10.00">Kit::Io::Socket::IInputOutput</text>
</a>
</g>
</g>
<!-- Node2&#45;&gt;Node1 -->
<g id="edge1_Node000001_Node000002" class="edge">
<title>Node2&#45;&gt;Node1</title>
<g id="a_edge1_Node000001_Node000002"><a xlink:title=" ">
<path fill="none" stroke="#63b8ff" d="M89.5,-44.66C89.5,-35.93 89.5,-25.99 89.5,-19.09"/>
<polygon fill="#63b8ff" stroke="#63b8ff" points="86,-44.75 89.5,-54.75 93,-44.75 86,-44.75"/>
</a>
</g>
</g>
<!-- Node3 -->
<g id="Node000003" class="node">
<title>Node3</title>
<g id="a_Node000003"><a xlink:href="class_kit_1_1_io_1_1_i_input_output.html" target="_top" xlink:title="This abstract class defines a interface for operating on an input&#45;output stream.">
<polygon fill="white" stroke="#666666" points="145.5,-129 33.5,-129 33.5,-110 145.5,-110 145.5,-129"/>
<text text-anchor="middle" x="89.5" y="-117" font-family="Helvetica,sans-Serif" font-size="10.00">Kit::Io::IInputOutput</text>
</a>
</g>
</g>
<!-- Node3&#45;&gt;Node2 -->
<g id="edge2_Node000002_Node000003" class="edge">
<title>Node3&#45;&gt;Node2</title>
<g id="a_edge2_Node000002_Node000003"><a xlink:title=" ">
<path fill="none" stroke="#63b8ff" d="M89.5,-99.66C89.5,-90.93 89.5,-80.99 89.5,-74.09"/>
<polygon fill="#63b8ff" stroke="#63b8ff" points="86,-99.75 89.5,-109.75 93,-99.75 86,-99.75"/>
</a>
</g>
</g>
<!-- Node4 -->
<g id="Node000004" class="node">
<title>Node4</title>
<g id="a_Node000004"><a xlink:href="class_kit_1_1_io_1_1_i_input.html" target="_top" xlink:title="This partially abstract class defines a interface for operating on an input stream (example of a stre...">
<polygon fill="white" stroke="#666666" points="79,-184 0,-184 0,-165 79,-165 79,-184"/>
<text text-anchor="middle" x="39.5" y="-172" font-family="Helvetica,sans-Serif" font-size="10.00">Kit::Io::IInput</text>
</a>
</g>
</g>
<!-- Node4&#45;&gt;Node3 -->
<g id="edge3_Node000003_Node000004" class="edge">
<title>Node4&#45;&gt;Node3</title>
<g id="a_edge3_Node000003_Node000004"><a xlink:title=" ">
<path fill="none" stroke="#63b8ff" d="M54.84,-157.24C63.6,-147.95 74.24,-136.68 81.4,-129.09"/>
<polygon fill="#63b8ff" stroke="#63b8ff" points="52.07,-155.07 47.76,-164.75 57.16,-159.88 52.07,-155.07"/>
</a>
</g>
</g>
<!-- Node5 -->
<g id="Node000005" class="node">
<title>Node5</title>
<g id="a_Node000005"><a xlink:href="class_kit_1_1_io_1_1_i_close.html" target="_top" xlink:title="This abstract class defines a close operation that is intended to be used Input and Output streams/fi...">
<polygon fill="white" stroke="#666666" points="82,-239 1,-239 1,-220 82,-220 82,-239"/>
<text text-anchor="middle" x="41.5" y="-227" font-family="Helvetica,sans-Serif" font-size="10.00">Kit::Io::IClose</text>
</a>
</g>
</g>
<!-- Node5&#45;&gt;Node4 -->
<g id="edge4_Node000004_Node000005" class="edge">
<title>Node5&#45;&gt;Node4</title>
<g id="a_edge4_Node000004_Node000005"><a xlink:title=" ">
<path fill="none" stroke="#63b8ff" d="M40.79,-209.66C40.46,-200.93 40.08,-190.99 39.82,-184.09"/>
<polygon fill="#63b8ff" stroke="#63b8ff" points="37.3,-209.89 41.17,-219.75 44.29,-209.62 37.3,-209.89"/>
</a>
</g>
</g>
<!-- Node7 -->
<g id="Node000007" class="node">
<title>Node7</title>
<g id="a_Node000007"><a xlink:href="class_kit_1_1_io_1_1_i_output.html" target="_top" xlink:title="This partially abstract class defines a interface for operating on an output stream (example of a str...">
<polygon fill="white" stroke="#666666" points="184,-184 97,-184 97,-165 184,-165 184,-184"/>
<text text-anchor="middle" x="140.5" y="-172" font-family="Helvetica,sans-Serif" font-size="10.00">Kit::Io::IOutput</text>
</a>
</g>
</g>
<!-- Node5&#45;&gt;Node7 -->
<g id="edge7_Node000007_Node000005" class="edge">
<title>Node5&#45;&gt;Node7</title>
<g id="a_edge7_Node000007_Node000005"><a xlink:title=" ">
<path fill="none" stroke="#63b8ff" d="M66.28,-215.23C84.44,-205.51 108.56,-192.6 124.3,-184.17"/>
<polygon fill="#63b8ff" stroke="#63b8ff" points="64.57,-212.18 57.41,-219.98 67.87,-218.35 64.57,-212.18"/>
</a>
</g>
</g>
<!-- Node6 -->
<g id="Node000006" class="node">
<title>Node6</title>
<g id="a_Node000006"><a xlink:href="class_kit_1_1_io_1_1_i_eos.html" target="_top" xlink:title="This abstract class defines a isEos() operation that is intended to be used Input and Output streams.">
<polygon fill="white" stroke="#666666" points="174,-239 103,-239 103,-220 174,-220 174,-239"/>
<text text-anchor="middle" x="138.5" y="-227" font-family="Helvetica,sans-Serif" font-size="10.00">Kit::Io::IEos</text>
</a>
</g>
</g>
<!-- Node6&#45;&gt;Node4 -->
<g id="edge5_Node000004_Node000006" class="edge">
<title>Node6&#45;&gt;Node4</title>
<g id="a_edge5_Node000004_Node000006"><a xlink:title=" ">
<path fill="none" stroke="#63b8ff" d="M113.72,-215.23C95.56,-205.51 71.44,-192.6 55.7,-184.17"/>
<polygon fill="#63b8ff" stroke="#63b8ff" points="112.13,-218.35 122.59,-219.98 115.43,-212.18 112.13,-218.35"/>
</a>
</g>
</g>
<!-- Node6&#45;&gt;Node7 -->
<g id="edge8_Node000007_Node000006" class="edge">
<title>Node6&#45;&gt;Node7</title>
<g id="a_edge8_Node000007_Node000006"><a xlink:title=" ">
<path fill="none" stroke="#63b8ff" d="M139.21,-209.66C139.54,-200.93 139.92,-190.99 140.18,-184.09"/>
<polygon fill="#63b8ff" stroke="#63b8ff" points="135.71,-209.62 138.83,-219.75 142.7,-209.89 135.71,-209.62"/>
</a>
</g>
</g>
<!-- Node7&#45;&gt;Node3 -->
<g id="edge6_Node000003_Node000007" class="edge">
<title>Node7&#45;&gt;Node3</title>
<g id="a_edge6_Node000003_Node000007"><a xlink:title=" ">
<path fill="none" stroke="#63b8ff" d="M125.12,-157.52C116.13,-148.18 105.14,-136.75 97.76,-129.09"/>
<polygon fill="#63b8ff" stroke="#63b8ff" points="122.62,-159.97 132.08,-164.75 127.67,-155.12 122.62,-159.97"/>
</a>
</g>
</g>
</g>
</svg>
