<?xml version="1.0" encoding="UTF-8" standalone="no"?>
<!DOCTYPE svg PUBLIC "-//W3C//DTD SVG 1.1//EN"
 "http://www.w3.org/Graphics/SVG/1.1/DTD/svg11.dtd">
<!-- Generated by graphviz version 2.43.0 (0)
 -->
<!-- Title: Kit::Persistence::Record::Journal::ResetSync Pages: 1 -->
<svg width="644pt" height="129pt"
 viewBox="0.00 0.00 644.00 129.00" xmlns="http://www.w3.org/2000/svg" xmlns:xlink="http://www.w3.org/1999/xlink">
<g id="graph0" class="graph" transform="scale(1 1) rotate(0) translate(4 125)">
<title>Kit::Persistence::Record::Journal::ResetSync</title>
<!-- Node1 -->
<g id="Node000001" class="node">
<title>Node1</title>
<g id="a_Node000001"><a xlink:title="This concrete class provides a synchronous ITC wrapper for the IReset::logicalReset() method.">
<polygon fill="#999999" stroke="#666666" points="636,-73 504,-73 504,-43 636,-43 636,-73"/>
<text text-anchor="start" x="512" y="-61" font-family="Helvetica,sans-Serif" font-size="10.00">Kit::Persistence::Record</text>
<text text-anchor="middle" x="570" y="-50" font-family="Helvetica,sans-Serif" font-size="10.00">::Journal::ResetSync</text>
</a>
</g>
</g>
<!-- Node2 -->
<g id="Node000002" class="node">
<title>Node2</title>
<g id="a_Node000002"><a xlink:href="class_kit_1_1_persistence_1_1_record_1_1_journal_1_1_i_reset.html" target="_top" xlink:title="This abstract class defines interface for &#39;resetting&#39; entries in a a Journal Entry Record.">
<polygon fill="white" stroke="#666666" points="358,-121 226,-121 226,-91 358,-91 358,-121"/>
<text text-anchor="start" x="234" y="-109" font-family="Helvetica,sans-Serif" font-size="10.00">Kit::Persistence::Record</text>
<text text-anchor="middle" x="292" y="-98" font-family="Helvetica,sans-Serif" font-size="10.00">::Journal::IReset</text>
</a>
</g>
</g>
<!-- Node2&#45;&gt;Node1 -->
<g id="edge1_Node000001_Node000002" class="edge">
<title>Node2&#45;&gt;Node1</title>
<g id="a_edge1_Node000001_Node000002"><a xlink:title=" ">
<path fill="none" stroke="#63b8ff" d="M368.07,-92.94C410.56,-85.56 463.17,-76.41 503.9,-69.32"/>
<polygon fill="#63b8ff" stroke="#63b8ff" points="367.31,-89.52 358.06,-94.69 368.51,-96.42 367.31,-89.52"/>
</a>
</g>
</g>
<!-- Node3 -->
<g id="Node000003" class="node">
<title>Node3</title>
<g id="a_Node000003"><a xlink:href="class_kit_1_1_persistence_1_1_record_1_1_journal_1_1_logical_reset_request.html" target="_top" xlink:title="This abstract class define ITC message type and payload for the application to clear/delete all entri...">
<polygon fill="white" stroke="#666666" points="374,-73 210,-73 210,-43 374,-43 374,-73"/>
<text text-anchor="start" x="218" y="-61" font-family="Helvetica,sans-Serif" font-size="10.00">Kit::Persistence::Record</text>
<text text-anchor="middle" x="292" y="-50" font-family="Helvetica,sans-Serif" font-size="10.00">::Journal::LogicalResetRequest</text>
</a>
</g>
</g>
<!-- Node3&#45;&gt;Node1 -->
<g id="edge2_Node000001_Node000003" class="edge">
<title>Node3&#45;&gt;Node1</title>
<g id="a_edge2_Node000001_Node000003"><a xlink:title=" ">
<path fill="none" stroke="#63b8ff" d="M384.65,-58C423.72,-58 468.4,-58 503.98,-58"/>
<polygon fill="#63b8ff" stroke="#63b8ff" points="384.32,-54.5 374.32,-58 384.32,-61.5 384.32,-54.5"/>
</a>
</g>
</g>
<!-- Node4 -->
<g id="Node000004" class="node">
<title>Node4</title>
<g id="a_Node000004"><a xlink:href="class_kit_1_1_event_queue_1_1_i_queue.html" target="_top" xlink:title="This abstract class represents an Event Queue where events can be delivered to.">
<polygon fill="white" stroke="#666666" points="360,-24.5 224,-24.5 224,-5.5 360,-5.5 360,-24.5"/>
<text text-anchor="middle" x="292" y="-12.5" font-family="Helvetica,sans-Serif" font-size="10.00">Kit::EventQueue::IQueue</text>
</a>
</g>
</g>
<!-- Node4&#45;&gt;Node1 -->
<g id="edge3_Node000001_Node000004" class="edge">
<title>Node4&#45;&gt;Node1</title>
<g id="a_edge3_Node000001_Node000004"><a xlink:title=" ">
<path fill="none" stroke="#9a32cd" stroke-dasharray="5,2" d="M370.32,-25.59C405.64,-30.59 447.98,-36.81 486,-43 491.78,-43.94 497.78,-44.95 503.79,-45.99"/>
<polygon fill="#9a32cd" stroke="#9a32cd" points="370.47,-22.08 360.08,-24.15 369.49,-29.01 370.47,-22.08"/>
</a>
</g>
<text text-anchor="middle" x="439" y="-46" font-family="Helvetica,sans-Serif" font-size="10.00" fill="grey"> m_myEventQueue</text>
</g>
<!-- Node5 -->
<g id="Node000005" class="node">
<title>Node5</title>
<g id="a_Node000005"><a xlink:title=" ">
<polygon fill="white" stroke="#bfbfbf" points="173,-30 0,-30 0,0 173,0 173,-30"/>
<text text-anchor="start" x="8" y="-18" font-family="Helvetica,sans-Serif" font-size="10.00">KIT_EVENT_QUEUE_SUPPORTED</text>
<text text-anchor="middle" x="86.5" y="-7" font-family="Helvetica,sans-Serif" font-size="10.00">_EVENT_TYPES</text>
</a>
</g>
</g>
<!-- Node5&#45;&gt;Node4 -->
<g id="edge4_Node000004_Node000005" class="edge">
<title>Node5&#45;&gt;Node4</title>
<g id="a_edge4_Node000004_Node000005"><a xlink:title=" ">
<path fill="none" stroke="#8b1a1a" d="M183.6,-15C197.23,-15 211.01,-15 223.93,-15"/>
<polygon fill="#8b1a1a" stroke="#8b1a1a" points="183.21,-11.5 173.21,-15 183.21,-18.5 183.21,-11.5"/>
</a>
</g>
</g>
</g>
</svg>
