<?xml version="1.0" encoding="UTF-8" standalone="no"?>
<!DOCTYPE svg PUBLIC "-//W3C//DTD SVG 1.1//EN"
 "http://www.w3.org/Graphics/SVG/1.1/DTD/svg11.dtd">
<!-- Generated by graphviz version 2.43.0 (0)
 -->
<!-- Title: Kit::EventQueue::WithPeriodicScheduling Pages: 1 -->
<svg width="1186pt" height="230pt"
 viewBox="0.00 0.00 1186.00 229.50" xmlns="http://www.w3.org/2000/svg" xmlns:xlink="http://www.w3.org/1999/xlink">
<g id="graph0" class="graph" transform="scale(1 1) rotate(0) translate(4 225.5)">
<title>Kit::EventQueue::WithPeriodicScheduling</title>
<!-- Node1 -->
<g id="Node000001" class="node">
<title>Node1</title>
<g id="a_Node000001"><a xlink:title="This class extends the Kit::EventQueue::Server class to add periodic scheduling to an event based &#39;th...">
<polygon fill="#999999" stroke="#666666" points="1178,-120.5 1015,-120.5 1015,-90.5 1178,-90.5 1178,-120.5"/>
<text text-anchor="start" x="1023" y="-108.5" font-family="Helvetica,sans-Serif" font-size="10.00">Kit::EventQueue::WithPeriodic</text>
<text text-anchor="middle" x="1096.5" y="-97.5" font-family="Helvetica,sans-Serif" font-size="10.00">Scheduling</text>
</a>
</g>
</g>
<!-- Node2 -->
<g id="Node000002" class="node">
<title>Node2</title>
<g id="a_Node000002"><a xlink:href="class_kit_1_1_event_queue_1_1_server.html" target="_top" xlink:title="This concrete class extends the Kit::System::EventLoop interface to include processing events from Ev...">
<polygon fill="white" stroke="#666666" points="961.5,-140 828.5,-140 828.5,-121 961.5,-121 961.5,-140"/>
<text text-anchor="middle" x="895" y="-128" font-family="Helvetica,sans-Serif" font-size="10.00">Kit::EventQueue::Server</text>
</a>
</g>
</g>
<!-- Node2&#45;&gt;Node1 -->
<g id="edge1_Node000001_Node000002" class="edge">
<title>Node2&#45;&gt;Node1</title>
<g id="a_edge1_Node000001_Node000002"><a xlink:title=" ">
<path fill="none" stroke="#63b8ff" d="M971.74,-121.01C985.85,-119.24 1000.64,-117.39 1014.89,-115.6"/>
<polygon fill="#63b8ff" stroke="#63b8ff" points="971.09,-117.56 961.6,-122.28 971.96,-124.51 971.09,-117.56"/>
</a>
</g>
</g>
<!-- Node3 -->
<g id="Node000003" class="node">
<title>Node3</title>
<g id="a_Node000003"><a xlink:href="class_kit_1_1_itc_1_1_mailbox.html" target="_top" xlink:title="This mailbox class implements an Inter Thread Communications message queue.">
<polygon fill="white" stroke="#666666" points="756.5,-173 663.5,-173 663.5,-154 756.5,-154 756.5,-173"/>
<text text-anchor="middle" x="710" y="-161" font-family="Helvetica,sans-Serif" font-size="10.00">Kit::Itc::Mailbox</text>
</a>
</g>
</g>
<!-- Node3&#45;&gt;Node2 -->
<g id="edge2_Node000002_Node000003" class="edge">
<title>Node3&#45;&gt;Node2</title>
<g id="a_edge2_Node000002_Node000003"><a xlink:title=" ">
<path fill="none" stroke="#63b8ff" d="M766.59,-153.47C790.26,-149.21 817.74,-144.25 841.1,-140.04"/>
<polygon fill="#63b8ff" stroke="#63b8ff" points="765.93,-150.04 756.71,-155.26 767.17,-156.93 765.93,-150.04"/>
</a>
</g>
</g>
<!-- Node4 -->
<g id="Node000004" class="node">
<title>Node4</title>
<g id="a_Node000004"><a xlink:href="class_kit_1_1_event_queue_1_1_i_queue.html" target="_top" xlink:title="This abstract class represents an Event Queue where events can be delivered to.">
<polygon fill="white" stroke="#666666" points="600,-216 464,-216 464,-197 600,-197 600,-216"/>
<text text-anchor="middle" x="532" y="-204" font-family="Helvetica,sans-Serif" font-size="10.00">Kit::EventQueue::IQueue</text>
</a>
</g>
</g>
<!-- Node4&#45;&gt;Node3 -->
<g id="edge3_Node000003_Node000004" class="edge">
<title>Node4&#45;&gt;Node3</title>
<g id="a_edge3_Node000003_Node000004"><a xlink:title=" ">
<path fill="none" stroke="#63b8ff" d="M581.98,-194.53C609.78,-187.74 644.1,-179.36 670.05,-173.02"/>
<polygon fill="#63b8ff" stroke="#63b8ff" points="580.94,-191.18 572.06,-196.96 582.61,-197.98 580.94,-191.18"/>
</a>
</g>
</g>
<!-- Node5 -->
<g id="Node000005" class="node">
<title>Node5</title>
<g id="a_Node000005"><a xlink:title=" ">
<polygon fill="white" stroke="#bfbfbf" points="347,-221.5 174,-221.5 174,-191.5 347,-191.5 347,-221.5"/>
<text text-anchor="start" x="182" y="-209.5" font-family="Helvetica,sans-Serif" font-size="10.00">KIT_EVENT_QUEUE_SUPPORTED</text>
<text text-anchor="middle" x="260.5" y="-198.5" font-family="Helvetica,sans-Serif" font-size="10.00">_EVENT_TYPES</text>
</a>
</g>
</g>
<!-- Node5&#45;&gt;Node4 -->
<g id="edge4_Node000004_Node000005" class="edge">
<title>Node5&#45;&gt;Node4</title>
<g id="a_edge4_Node000004_Node000005"><a xlink:title=" ">
<path fill="none" stroke="#8b1a1a" d="M357.45,-206.5C392.69,-206.5 431.8,-206.5 463.96,-206.5"/>
<polygon fill="#8b1a1a" stroke="#8b1a1a" points="357.14,-203 347.14,-206.5 357.14,-210 357.14,-203"/>
</a>
</g>
</g>
<!-- Node6 -->
<g id="Node000006" class="node">
<title>Node6</title>
<g id="a_Node000006"><a xlink:href="class_kit_1_1_container_1_1_s_list.html" target="_top" xlink:title=" ">
<polygon fill="white" stroke="#666666" points="588.5,-178.5 475.5,-178.5 475.5,-148.5 588.5,-148.5 588.5,-178.5"/>
<text text-anchor="start" x="483.5" y="-166.5" font-family="Helvetica,sans-Serif" font-size="10.00">Kit::Container::SList</text>
<text text-anchor="middle" x="532" y="-155.5" font-family="Helvetica,sans-Serif" font-size="10.00">&lt; IMessage &gt;</text>
</a>
</g>
</g>
<!-- Node6&#45;&gt;Node3 -->
<g id="edge5_Node000003_Node000006" class="edge">
<title>Node6&#45;&gt;Node3</title>
<g id="a_edge5_Node000003_Node000006"><a xlink:title=" ">
<path fill="none" stroke="#63b8ff" d="M598.75,-163.5C620.27,-163.5 643.69,-163.5 663.39,-163.5"/>
<polygon fill="#63b8ff" stroke="#63b8ff" points="598.69,-160 588.69,-163.5 598.69,-167 598.69,-160"/>
</a>
</g>
</g>
<!-- Node7 -->
<g id="Node000007" class="node">
<title>Node7</title>
<g id="a_Node000007"><a xlink:href="class_kit_1_1_container_1_1_s_list_base.html" target="_top" xlink:title="This protected base class implements a NON&#45;TYPE&#45;SAFE a singly linked list which maintains the orderin...">
<polygon fill="white" stroke="#666666" points="137,-151 0,-151 0,-132 137,-132 137,-151"/>
<text text-anchor="middle" x="68.5" y="-139" font-family="Helvetica,sans-Serif" font-size="10.00">Kit::Container::SListBase</text>
</a>
</g>
</g>
<!-- Node7&#45;&gt;Node6 -->
<g id="edge6_Node000006_Node000007" class="edge">
<title>Node7&#45;&gt;Node6</title>
<g id="a_edge6_Node000006_Node000007"><a xlink:title=" ">
<path fill="none" stroke="#63b8ff" d="M147.29,-145.21C240.19,-149.64 393.27,-156.93 475.18,-160.84"/>
<polygon fill="#63b8ff" stroke="#63b8ff" points="147.26,-141.7 137.1,-144.72 146.92,-148.69 147.26,-141.7"/>
</a>
</g>
</g>
<!-- Node8 -->
<g id="Node000008" class="node">
<title>Node8</title>
<g id="a_Node000008"><a xlink:href="class_kit_1_1_container_1_1_s_list.html" target="_top" xlink:title="This template class implements a singly linked list which maintains the ordering imposed on it by the...">
<polygon fill="white" stroke="#666666" points="317,-135.5 204,-135.5 204,-105.5 317,-105.5 317,-135.5"/>
<text text-anchor="start" x="212" y="-123.5" font-family="Helvetica,sans-Serif" font-size="10.00">Kit::Container::SList</text>
<text text-anchor="middle" x="260.5" y="-112.5" font-family="Helvetica,sans-Serif" font-size="10.00">&lt; ITEM &gt;</text>
</a>
</g>
</g>
<!-- Node7&#45;&gt;Node8 -->
<g id="edge8_Node000008_Node000007" class="edge">
<title>Node7&#45;&gt;Node8</title>
<g id="a_edge8_Node000008_Node000007"><a xlink:title=" ">
<path fill="none" stroke="#63b8ff" d="M147.14,-132.92C166.13,-130.82 186.06,-128.62 203.79,-126.66"/>
<polygon fill="#63b8ff" stroke="#63b8ff" points="146.58,-129.46 137.02,-134.04 147.35,-136.42 146.58,-129.46"/>
</a>
</g>
</g>
<!-- Node8&#45;&gt;Node6 -->
<g id="edge7_Node000006_Node000008" class="edge">
<title>Node8&#45;&gt;Node6</title>
<g id="a_edge7_Node000006_Node000008"><a xlink:title=" ">
<path fill="none" stroke="orange" stroke-dasharray="5,2" d="M327.17,-124.67C360.54,-127.43 401.63,-131.8 438,-138.5 451.98,-141.07 466.92,-144.69 480.66,-148.38"/>
<polygon fill="orange" stroke="orange" points="327.32,-121.17 317.07,-123.86 326.77,-128.15 327.32,-121.17"/>
</a>
</g>
<text text-anchor="middle" x="401.5" y="-141.5" font-family="Helvetica,sans-Serif" font-size="10.00" fill="grey"> &lt; IMessage &gt;</text>
</g>
<!-- Node9 -->
<g id="Node000009" class="node">
<title>Node9</title>
<g id="a_Node000009"><a xlink:href="class_kit_1_1_system_1_1_event_loop.html" target="_top" xlink:title="This concrete class is a IRunnable object that provides a event driven execution model for a thread.">
<polygon fill="white" stroke="#666666" points="775,-93 645,-93 645,-74 775,-74 775,-93"/>
<text text-anchor="middle" x="710" y="-81" font-family="Helvetica,sans-Serif" font-size="10.00">Kit::System::EventLoop</text>
</a>
</g>
</g>
<!-- Node9&#45;&gt;Node2 -->
<g id="edge9_Node000002_Node000009" class="edge">
<title>Node9&#45;&gt;Node2</title>
<g id="a_edge9_Node000002_Node000009"><a xlink:title=" ">
<path fill="none" stroke="#63b8ff" d="M752.01,-95.92C770.3,-101.29 792.15,-107.48 812,-112.5 823.59,-115.43 836.16,-118.33 847.91,-120.92"/>
<polygon fill="#63b8ff" stroke="#63b8ff" points="752.83,-92.51 742.25,-93.03 750.85,-99.22 752.83,-92.51"/>
</a>
</g>
</g>
<!-- Node10 -->
<g id="Node000010" class="node">
<title>Node10</title>
<g id="a_Node000010"><a xlink:href="class_kit_1_1_system_1_1_i_runnable.html" target="_top" xlink:title="This mostly an abstract class defines the interface for an object that is &quot;executed&quot; when a Thread ob...">
<polygon fill="white" stroke="#666666" points="596,-130 468,-130 468,-111 596,-111 596,-130"/>
<text text-anchor="middle" x="532" y="-118" font-family="Helvetica,sans-Serif" font-size="10.00">Kit::System::IRunnable</text>
</a>
</g>
</g>
<!-- Node10&#45;&gt;Node9 -->
<g id="edge10_Node000009_Node000010" class="edge">
<title>Node10&#45;&gt;Node9</title>
<g id="a_edge10_Node000009_Node000010"><a xlink:title=" ">
<path fill="none" stroke="#63b8ff" d="M588.43,-108.85C612.6,-103.77 640.6,-97.88 663.52,-93.06"/>
<polygon fill="#63b8ff" stroke="#63b8ff" points="587.39,-105.49 578.32,-110.97 588.83,-112.34 587.39,-105.49"/>
</a>
</g>
</g>
<!-- Node11 -->
<g id="Node000011" class="node">
<title>Node11</title>
<g id="a_Node000011"><a xlink:href="class_kit_1_1_system_1_1_i_event_manager.html" target="_top" xlink:title="This abstract class defines the interface to signal a &#39;Event Flag&#39;.">
<polygon fill="white" stroke="#666666" points="608,-93 456,-93 456,-74 608,-74 608,-93"/>
<text text-anchor="middle" x="532" y="-81" font-family="Helvetica,sans-Serif" font-size="10.00">Kit::System::IEventManager</text>
</a>
</g>
</g>
<!-- Node11&#45;&gt;Node9 -->
<g id="edge11_Node000009_Node000011" class="edge">
<title>Node11&#45;&gt;Node9</title>
<g id="a_edge11_Node000009_Node000011"><a xlink:title=" ">
<path fill="none" stroke="#63b8ff" d="M618.25,-83.5C627.22,-83.5 636.23,-83.5 644.91,-83.5"/>
<polygon fill="#63b8ff" stroke="#63b8ff" points="618.15,-80 608.15,-83.5 618.15,-87 618.15,-80"/>
</a>
</g>
</g>
<!-- Node12 -->
<g id="Node000012" class="node">
<title>Node12</title>
<g id="a_Node000012"><a xlink:href="class_kit_1_1_system_1_1_i_signable.html" target="_top" xlink:title="This abstract class defines the interface by which a client can cause an object that is waiting&#45;on&#45;a&#45;...">
<polygon fill="white" stroke="#666666" points="594,-56 470,-56 470,-37 594,-37 594,-56"/>
<text text-anchor="middle" x="532" y="-44" font-family="Helvetica,sans-Serif" font-size="10.00">Kit::System::ISignable</text>
</a>
</g>
</g>
<!-- Node12&#45;&gt;Node9 -->
<g id="edge12_Node000009_Node000012" class="edge">
<title>Node12&#45;&gt;Node9</title>
<g id="a_edge12_Node000009_Node000012"><a xlink:title=" ">
<path fill="none" stroke="#63b8ff" d="M588.43,-58.15C612.6,-63.23 640.6,-69.12 663.52,-73.94"/>
<polygon fill="#63b8ff" stroke="#63b8ff" points="588.83,-54.66 578.32,-56.03 587.39,-61.51 588.83,-54.66"/>
</a>
</g>
</g>
<!-- Node13 -->
<g id="Node000013" class="node">
<title>Node13</title>
<g id="a_Node000013"><a xlink:href="class_kit_1_1_system_1_1_timer_manager.html" target="_top" xlink:title="This concrete class implements manages a list of Software Timers.">
<polygon fill="white" stroke="#666666" points="607,-19 457,-19 457,0 607,0 607,-19"/>
<text text-anchor="middle" x="532" y="-7" font-family="Helvetica,sans-Serif" font-size="10.00">Kit::System::TimerManager</text>
</a>
</g>
</g>
<!-- Node13&#45;&gt;Node9 -->
<g id="edge13_Node000009_Node000013" class="edge">
<title>Node13&#45;&gt;Node9</title>
<g id="a_edge13_Node000009_Node000013"><a xlink:title=" ">
<path fill="none" stroke="#63b8ff" d="M590.99,-21.75C596.81,-23.47 602.56,-25.39 608,-27.5 640.51,-40.14 675.49,-61.47 694.56,-73.84"/>
<polygon fill="#63b8ff" stroke="#63b8ff" points="591.78,-18.33 581.21,-19.02 589.9,-25.08 591.78,-18.33"/>
</a>
</g>
</g>
<!-- Node14 -->
<g id="Node000014" class="node">
<title>Node14</title>
<g id="a_Node000014"><a xlink:href="class_kit_1_1_system_1_1_periodic_scheduler.html" target="_top" xlink:title="This concrete class is a &#39;policy&#39; object that is used to add polled based, cooperative monotonic sche...">
<polygon fill="white" stroke="#666666" points="978,-103 812,-103 812,-84 978,-84 978,-103"/>
<text text-anchor="middle" x="895" y="-91" font-family="Helvetica,sans-Serif" font-size="10.00">Kit::System::PeriodicScheduler</text>
</a>
</g>
</g>
<!-- Node14&#45;&gt;Node1 -->
<g id="edge14_Node000001_Node000014" class="edge">
<title>Node14&#45;&gt;Node1</title>
<g id="a_edge14_Node000001_Node000014"><a xlink:title=" ">
<path fill="none" stroke="#63b8ff" d="M988.04,-99.04C996.96,-99.57 1005.97,-100.11 1014.78,-100.64"/>
<polygon fill="#63b8ff" stroke="#63b8ff" points="988.2,-95.54 978.01,-98.43 987.78,-102.53 988.2,-95.54"/>
</a>
</g>
</g>
</g>
</svg>
