<?xml version="1.0" encoding="UTF-8" standalone="no"?>
<!DOCTYPE svg PUBLIC "-//W3C//DTD SVG 1.1//EN"
 "http://www.w3.org/Graphics/SVG/1.1/DTD/svg11.dtd">
<!-- Generated by graphviz version 2.43.0 (0)
 -->
<!-- Title: Kit::Persistence::Record::IDataRecord Pages: 1 -->
<svg width="290pt" height="104pt"
 viewBox="0.00 0.00 290.00 104.00" xmlns="http://www.w3.org/2000/svg" xmlns:xlink="http://www.w3.org/1999/xlink">
<g id="graph0" class="graph" transform="scale(1 1) rotate(0) translate(4 100)">
<title>Kit::Persistence::Record::IDataRecord</title>
<!-- Node1 -->
<g id="Node000001" class="node">
<title>Node1</title>
<g id="a_Node000001"><a xlink:title="This abstract extends the IRecord interface to include semantics for an unmanaged &#39;data store&#39;,...">
<polygon fill="#999999" stroke="#666666" points="207,-30 75,-30 75,0 207,0 207,-30"/>
<text text-anchor="start" x="83" y="-18" font-family="Helvetica,sans-Serif" font-size="10.00">Kit::Persistence::Record</text>
<text text-anchor="middle" x="141" y="-7" font-family="Helvetica,sans-Serif" font-size="10.00">::IDataRecord</text>
</a>
</g>
</g>
<!-- Node2 -->
<g id="Node000002" class="node">
<title>Node2</title>
<g id="a_Node000002"><a xlink:href="class_kit_1_1_persistence_1_1_record_1_1_i_record.html" target="_top" xlink:title="This abstract class defines the public interface for a Record instance.">
<polygon fill="white" stroke="#666666" points="132,-96 0,-96 0,-66 132,-66 132,-96"/>
<text text-anchor="start" x="8" y="-84" font-family="Helvetica,sans-Serif" font-size="10.00">Kit::Persistence::Record</text>
<text text-anchor="middle" x="66" y="-73" font-family="Helvetica,sans-Serif" font-size="10.00">::IRecord</text>
</a>
</g>
</g>
<!-- Node2&#45;&gt;Node1 -->
<g id="edge1_Node000001_Node000002" class="edge">
<title>Node2&#45;&gt;Node1</title>
<g id="a_edge1_Node000001_Node000002"><a xlink:title=" ">
<path fill="none" stroke="#63b8ff" d="M90.37,-59.2C101.51,-49.7 114.41,-38.69 124.4,-30.16"/>
<polygon fill="#63b8ff" stroke="#63b8ff" points="87.98,-56.64 82.64,-65.8 92.52,-61.97 87.98,-56.64"/>
</a>
</g>
</g>
<!-- Node3 -->
<g id="Node000003" class="node">
<title>Node3</title>
<g id="a_Node000003"><a xlink:href="class_kit_1_1_persistence_1_1_record_1_1_i_payload.html" target="_top" xlink:title="This abstract class defines the interface accessing the data payload of an individual Record instance...">
<polygon fill="white" stroke="#666666" points="282,-96 150,-96 150,-66 282,-66 282,-96"/>
<text text-anchor="start" x="158" y="-84" font-family="Helvetica,sans-Serif" font-size="10.00">Kit::Persistence::Record</text>
<text text-anchor="middle" x="216" y="-73" font-family="Helvetica,sans-Serif" font-size="10.00">::IPayload</text>
</a>
</g>
</g>
<!-- Node3&#45;&gt;Node1 -->
<g id="edge2_Node000001_Node000003" class="edge">
<title>Node3&#45;&gt;Node1</title>
<g id="a_edge2_Node000001_Node000003"><a xlink:title=" ">
<path fill="none" stroke="#63b8ff" d="M191.63,-59.2C180.49,-49.7 167.59,-38.69 157.6,-30.16"/>
<polygon fill="#63b8ff" stroke="#63b8ff" points="189.48,-61.97 199.36,-65.8 194.02,-56.64 189.48,-61.97"/>
</a>
</g>
</g>
</g>
</svg>
