<?xml version="1.0" encoding="UTF-8" standalone="no"?>
<!DOCTYPE svg PUBLIC "-//W3C//DTD SVG 1.1//EN"
 "http://www.w3.org/Graphics/SVG/1.1/DTD/svg11.dtd">
<!-- Generated by graphviz version 2.43.0 (0)
 -->
<!-- Title: Kit::EventQueue::WithPeriodicScheduling Pages: 1 -->
<svg width="2432pt" height="344pt"
 viewBox="0.00 0.00 2432.00 344.00" xmlns="http://www.w3.org/2000/svg" xmlns:xlink="http://www.w3.org/1999/xlink">
<g id="graph0" class="graph" transform="scale(1 1) rotate(0) translate(4 340)">
<title>Kit::EventQueue::WithPeriodicScheduling</title>
<!-- Node1 -->
<g id="Node000001" class="node">
<title>Node1</title>
<g id="a_Node000001"><a xlink:title="This class extends the Kit::EventQueue::Server class to add periodic scheduling to an event based &#39;th...">
<polygon fill="#999999" stroke="#666666" points="2424,-57 2261,-57 2261,-27 2424,-27 2424,-57"/>
<text text-anchor="start" x="2269" y="-45" font-family="Helvetica,sans-Serif" font-size="10.00">Kit::EventQueue::WithPeriodic</text>
<text text-anchor="middle" x="2342.5" y="-34" font-family="Helvetica,sans-Serif" font-size="10.00">Scheduling</text>
</a>
</g>
</g>
<!-- Node2 -->
<g id="Node000002" class="node">
<title>Node2</title>
<g id="a_Node000002"><a xlink:href="class_kit_1_1_event_queue_1_1_server.html" target="_top" xlink:title="This concrete class extends the Kit::System::EventLoop interface to include processing events from Ev...">
<polygon fill="white" stroke="#666666" points="2207.5,-73.5 2074.5,-73.5 2074.5,-54.5 2207.5,-54.5 2207.5,-73.5"/>
<text text-anchor="middle" x="2141" y="-61.5" font-family="Helvetica,sans-Serif" font-size="10.00">Kit::EventQueue::Server</text>
</a>
</g>
</g>
<!-- Node2&#45;&gt;Node1 -->
<g id="edge1_Node000001_Node000002" class="edge">
<title>Node2&#45;&gt;Node1</title>
<g id="a_edge1_Node000001_Node000002"><a xlink:title=" ">
<path fill="none" stroke="#63b8ff" d="M2217.74,-55.65C2231.85,-54.09 2246.64,-52.46 2260.89,-50.89"/>
<polygon fill="#63b8ff" stroke="#63b8ff" points="2217.16,-52.19 2207.6,-56.77 2217.92,-59.15 2217.16,-52.19"/>
</a>
</g>
</g>
<!-- Node3 -->
<g id="Node000003" class="node">
<title>Node3</title>
<g id="a_Node000003"><a xlink:href="class_kit_1_1_itc_1_1_mailbox.html" target="_top" xlink:title="This mailbox class implements an Inter Thread Communications message queue.">
<polygon fill="white" stroke="#666666" points="1385,-71.5 1292,-71.5 1292,-52.5 1385,-52.5 1385,-71.5"/>
<text text-anchor="middle" x="1338.5" y="-59.5" font-family="Helvetica,sans-Serif" font-size="10.00">Kit::Itc::Mailbox</text>
</a>
</g>
</g>
<!-- Node3&#45;&gt;Node2 -->
<g id="edge2_Node000002_Node000003" class="edge">
<title>Node3&#45;&gt;Node2</title>
<g id="a_edge2_Node000002_Node000003"><a xlink:title=" ">
<path fill="none" stroke="#63b8ff" d="M1395.45,-62.14C1539.09,-62.5 1920.34,-63.45 2074.22,-63.84"/>
<polygon fill="#63b8ff" stroke="#63b8ff" points="1395.13,-58.64 1385.12,-62.11 1395.11,-65.64 1395.13,-58.64"/>
</a>
</g>
</g>
<!-- Node4 -->
<g id="Node000004" class="node">
<title>Node4</title>
<g id="a_Node000004"><a xlink:href="class_kit_1_1_event_queue_1_1_i_queue.html" target="_top" xlink:title="This abstract class represents an Event Queue where events can be delivered to.">
<polygon fill="white" stroke="#666666" points="1092.5,-24.5 956.5,-24.5 956.5,-5.5 1092.5,-5.5 1092.5,-24.5"/>
<text text-anchor="middle" x="1024.5" y="-12.5" font-family="Helvetica,sans-Serif" font-size="10.00">Kit::EventQueue::IQueue</text>
</a>
</g>
</g>
<!-- Node4&#45;&gt;Node3 -->
<g id="edge3_Node000003_Node000004" class="edge">
<title>Node4&#45;&gt;Node3</title>
<g id="a_edge3_Node000003_Node000004"><a xlink:title=" ">
<path fill="none" stroke="#63b8ff" d="M1098.76,-26.04C1158.47,-35.03 1240.93,-47.45 1291.66,-55.09"/>
<polygon fill="#63b8ff" stroke="#63b8ff" points="1099.05,-22.54 1088.64,-24.51 1098,-29.46 1099.05,-22.54"/>
</a>
</g>
</g>
<!-- Node5 -->
<g id="Node000005" class="node">
<title>Node5</title>
<g id="a_Node000005"><a xlink:title=" ">
<polygon fill="white" stroke="#bfbfbf" points="772,-30 599,-30 599,0 772,0 772,-30"/>
<text text-anchor="start" x="607" y="-18" font-family="Helvetica,sans-Serif" font-size="10.00">KIT_EVENT_QUEUE_SUPPORTED</text>
<text text-anchor="middle" x="685.5" y="-7" font-family="Helvetica,sans-Serif" font-size="10.00">_EVENT_TYPES</text>
</a>
</g>
</g>
<!-- Node5&#45;&gt;Node4 -->
<g id="edge4_Node000004_Node000005" class="edge">
<title>Node5&#45;&gt;Node4</title>
<g id="a_edge4_Node000004_Node000005"><a xlink:title=" ">
<path fill="none" stroke="#8b1a1a" d="M782.62,-15C838.14,-15 906.61,-15 956.34,-15"/>
<polygon fill="#8b1a1a" stroke="#8b1a1a" points="782.41,-11.5 772.41,-15 782.41,-18.5 782.41,-11.5"/>
</a>
</g>
</g>
<!-- Node6 -->
<g id="Node000006" class="node">
<title>Node6</title>
<g id="a_Node000006"><a xlink:href="class_kit_1_1_container_1_1_s_list.html" target="_top" xlink:title=" ">
<polygon fill="white" stroke="#666666" points="1081,-73 968,-73 968,-43 1081,-43 1081,-73"/>
<text text-anchor="start" x="976" y="-61" font-family="Helvetica,sans-Serif" font-size="10.00">Kit::Container::SList</text>
<text text-anchor="middle" x="1024.5" y="-50" font-family="Helvetica,sans-Serif" font-size="10.00">&lt; IMessage &gt;</text>
</a>
</g>
</g>
<!-- Node6&#45;&gt;Node3 -->
<g id="edge5_Node000003_Node000006" class="edge">
<title>Node6&#45;&gt;Node3</title>
<g id="a_edge5_Node000003_Node000006"><a xlink:title=" ">
<path fill="none" stroke="#63b8ff" d="M1091.44,-58.85C1151.63,-59.62 1239.01,-60.74 1291.83,-61.41"/>
<polygon fill="#63b8ff" stroke="#63b8ff" points="1091.32,-55.34 1081.28,-58.72 1091.23,-62.34 1091.32,-55.34"/>
</a>
</g>
</g>
<!-- Node7 -->
<g id="Node000007" class="node">
<title>Node7</title>
<g id="a_Node000007"><a xlink:href="class_kit_1_1_container_1_1_s_list_base.html" target="_top" xlink:title="This protected base class implements a NON&#45;TYPE&#45;SAFE a singly linked list which maintains the orderin...">
<polygon fill="white" stroke="#666666" points="507,-191.5 370,-191.5 370,-172.5 507,-172.5 507,-191.5"/>
<text text-anchor="middle" x="438.5" y="-179.5" font-family="Helvetica,sans-Serif" font-size="10.00">Kit::Container::SListBase</text>
</a>
</g>
</g>
<!-- Node7&#45;&gt;Node6 -->
<g id="edge6_Node000006_Node000007" class="edge">
<title>Node7&#45;&gt;Node6</title>
<g id="a_edge6_Node000006_Node000007"><a xlink:title=" ">
<path fill="none" stroke="#63b8ff" d="M481.01,-169.58C546.27,-150.44 677.06,-113.57 790,-91 850.22,-78.97 920.04,-69.71 967.53,-64.1"/>
<polygon fill="#63b8ff" stroke="#63b8ff" points="479.72,-166.32 471.12,-172.5 481.7,-173.03 479.72,-166.32"/>
</a>
</g>
</g>
<!-- Node10 -->
<g id="Node000010" class="node">
<title>Node10</title>
<g id="a_Node000010"><a xlink:href="class_kit_1_1_container_1_1_s_list.html" target="_top" xlink:title="This template class implements a singly linked list which maintains the ordering imposed on it by the...">
<polygon fill="white" stroke="#666666" points="742,-197 629,-197 629,-167 742,-167 742,-197"/>
<text text-anchor="start" x="637" y="-185" font-family="Helvetica,sans-Serif" font-size="10.00">Kit::Container::SList</text>
<text text-anchor="middle" x="685.5" y="-174" font-family="Helvetica,sans-Serif" font-size="10.00">&lt; ITEM &gt;</text>
</a>
</g>
</g>
<!-- Node7&#45;&gt;Node10 -->
<g id="edge11_Node000010_Node000007" class="edge">
<title>Node7&#45;&gt;Node10</title>
<g id="a_edge11_Node000010_Node000007"><a xlink:title=" ">
<path fill="none" stroke="#63b8ff" d="M517.14,-182C553.38,-182 595.69,-182 628.7,-182"/>
<polygon fill="#63b8ff" stroke="#63b8ff" points="517.1,-178.5 507.1,-182 517.1,-185.5 517.1,-178.5"/>
</a>
</g>
</g>
<!-- Node22 -->
<g id="Node000022" class="node">
<title>Node22</title>
<g id="a_Node000022"><a xlink:href="class_kit_1_1_container_1_1_s_list.html" target="_top" xlink:title=" ">
<polygon fill="white" stroke="#666666" points="1101,-240 948,-240 948,-210 1101,-210 1101,-240"/>
<text text-anchor="start" x="956" y="-228" font-family="Helvetica,sans-Serif" font-size="10.00">Kit::Container::SList</text>
<text text-anchor="middle" x="1024.5" y="-217" font-family="Helvetica,sans-Serif" font-size="10.00">&lt; Kit::System::IEventFlag &gt;</text>
</a>
</g>
</g>
<!-- Node7&#45;&gt;Node22 -->
<g id="edge32_Node000022_Node000007" class="edge">
<title>Node7&#45;&gt;Node22</title>
<g id="a_edge32_Node000022_Node000007"><a xlink:title=" ">
<path fill="none" stroke="#63b8ff" d="M502.21,-193.21C531.51,-197.99 566.94,-203.12 599,-206 720.79,-216.93 862.82,-221.67 947.83,-223.66"/>
<polygon fill="#63b8ff" stroke="#63b8ff" points="502.55,-189.72 492.11,-191.54 501.41,-196.62 502.55,-189.72"/>
</a>
</g>
</g>
<!-- Node8 -->
<g id="Node000008" class="node">
<title>Node8</title>
<g id="a_Node000008"><a xlink:href="class_kit_1_1_container_1_1_list_item.html" target="_top" xlink:title="This class is used by the Container classes to implement a various types of linked lists containers.">
<polygon fill="white" stroke="#666666" points="278,-191.5 149,-191.5 149,-172.5 278,-172.5 278,-191.5"/>
<text text-anchor="middle" x="213.5" y="-179.5" font-family="Helvetica,sans-Serif" font-size="10.00">Kit::Container::ListItem</text>
</a>
</g>
</g>
<!-- Node8&#45;&gt;Node7 -->
<g id="edge7_Node000007_Node000008" class="edge">
<title>Node8&#45;&gt;Node7</title>
<g id="a_edge7_Node000007_Node000008"><a xlink:title=" ">
<path fill="none" stroke="#9a32cd" stroke-dasharray="5,2" d="M288.4,-182C314.7,-182 344.17,-182 369.92,-182"/>
<polygon fill="#9a32cd" stroke="#9a32cd" points="288.1,-178.5 278.1,-182 288.1,-185.5 288.1,-178.5"/>
</a>
</g>
<text text-anchor="middle" x="324" y="-196" font-family="Helvetica,sans-Serif" font-size="10.00" fill="grey"> m_headPtr</text>
<text text-anchor="middle" x="324" y="-185" font-family="Helvetica,sans-Serif" font-size="10.00" fill="grey">m_tailPtr</text>
</g>
<!-- Node8&#45;&gt;Node8 -->
<g id="edge9_Node000008_Node000008" class="edge">
<title>Node8&#45;&gt;Node8</title>
<g id="a_edge9_Node000008_Node000008"><a xlink:title=" ">
<path fill="none" stroke="#9a32cd" stroke-dasharray="5,2" d="M198.4,-201.41C199.59,-206.06 204.62,-209.5 213.5,-209.5 228.07,-209.5 232.29,-200.23 226.14,-191.58"/>
<polygon fill="#9a32cd" stroke="#9a32cd" points="201.83,-202.13 200.86,-191.58 195.04,-200.43 201.83,-202.13"/>
</a>
</g>
<text text-anchor="middle" x="213.5" y="-212.5" font-family="Helvetica,sans-Serif" font-size="10.00" fill="grey"> m_nextPtr_</text>
</g>
<!-- Node14 -->
<g id="Node000014" class="node">
<title>Node14</title>
<g id="a_Node000014"><a xlink:href="class_kit_1_1_system_1_1_thread.html" target="_top" xlink:title="This mostly abstract class defines the operations that can be performed on a thread.">
<polygon fill="white" stroke="#666666" points="1395,-109.5 1282,-109.5 1282,-90.5 1395,-90.5 1395,-109.5"/>
<text text-anchor="middle" x="1338.5" y="-97.5" font-family="Helvetica,sans-Serif" font-size="10.00">Kit::System::Thread</text>
</a>
</g>
</g>
<!-- Node8&#45;&gt;Node14 -->
<g id="edge17_Node000014_Node000008" class="edge">
<title>Node8&#45;&gt;Node14</title>
<g id="a_edge17_Node000014_Node000008"><a xlink:title=" ">
<path fill="none" stroke="#63b8ff" d="M238.16,-167.17C277.81,-143.8 360.85,-101 437.5,-101 437.5,-101 437.5,-101 861,-101 1013.22,-101 1192.78,-100.48 1281.75,-100.19"/>
<polygon fill="#63b8ff" stroke="#63b8ff" points="236.26,-164.24 229.49,-172.39 239.87,-170.24 236.26,-164.24"/>
</a>
</g>
</g>
<!-- Node19 -->
<g id="Node000019" class="node">
<title>Node19</title>
<g id="a_Node000019"><a xlink:href="class_kit_1_1_container_1_1_extended_list_item.html" target="_top" xlink:title="This class is used by the Container classes to implement a various types of DOUBLY linked containers.">
<polygon fill="white" stroke="#666666" points="506,-260 371,-260 371,-230 506,-230 506,-260"/>
<text text-anchor="start" x="379" y="-248" font-family="Helvetica,sans-Serif" font-size="10.00">Kit::Container::Extended</text>
<text text-anchor="middle" x="438.5" y="-237" font-family="Helvetica,sans-Serif" font-size="10.00">ListItem</text>
</a>
</g>
</g>
<!-- Node8&#45;&gt;Node19 -->
<g id="edge25_Node000019_Node000008" class="edge">
<title>Node8&#45;&gt;Node19</title>
<g id="a_edge25_Node000019_Node000008"><a xlink:title=" ">
<path fill="none" stroke="#63b8ff" d="M252.61,-194.62C266.25,-199.01 281.77,-203.87 296,-208 322.46,-215.67 351.91,-223.49 377.06,-229.95"/>
<polygon fill="#63b8ff" stroke="#63b8ff" points="253.64,-191.27 243.05,-191.52 251.48,-197.93 253.64,-191.27"/>
</a>
</g>
</g>
<!-- Node9 -->
<g id="Node000009" class="node">
<title>Node9</title>
<g id="a_Node000009"><a xlink:href="class_kit_1_1_container_1_1_item.html" target="_top" xlink:title="This class is used by the Intrusive Container classes to enforce the semantic and item/element can be...">
<polygon fill="white" stroke="#666666" points="112,-191.5 0,-191.5 0,-172.5 112,-172.5 112,-191.5"/>
<text text-anchor="middle" x="56" y="-179.5" font-family="Helvetica,sans-Serif" font-size="10.00">Kit::Container::Item</text>
</a>
</g>
</g>
<!-- Node9&#45;&gt;Node8 -->
<g id="edge8_Node000008_Node000009" class="edge">
<title>Node9&#45;&gt;Node8</title>
<g id="a_edge8_Node000008_Node000009"><a xlink:title=" ">
<path fill="none" stroke="#63b8ff" d="M122.43,-182C131.2,-182 140.19,-182 148.93,-182"/>
<polygon fill="#63b8ff" stroke="#63b8ff" points="122.26,-178.5 112.26,-182 122.26,-185.5 122.26,-178.5"/>
</a>
</g>
</g>
<!-- Node10&#45;&gt;Node6 -->
<g id="edge10_Node000006_Node000010" class="edge">
<title>Node10&#45;&gt;Node6</title>
<g id="a_edge10_Node000006_Node000010"><a xlink:title=" ">
<path fill="none" stroke="orange" stroke-dasharray="5,2" d="M741.47,-163.66C751.64,-160.18 762.16,-156.53 772,-153 847.79,-125.84 935.64,-92.15 984.88,-73.06"/>
<polygon fill="orange" stroke="orange" points="740.2,-160.4 731.86,-166.94 742.45,-167.03 740.2,-160.4"/>
</a>
</g>
<text text-anchor="middle" x="860" y="-149" font-family="Helvetica,sans-Serif" font-size="10.00" fill="grey"> &lt; IMessage &gt;</text>
</g>
<!-- Node10&#45;&gt;Node22 -->
<g id="edge33_Node000022_Node000010" class="edge">
<title>Node10&#45;&gt;Node22</title>
<g id="a_edge33_Node000022_Node000010"><a xlink:title=" ">
<path fill="none" stroke="orange" stroke-dasharray="5,2" d="M752.66,-183.54C801.86,-185.5 870.49,-189.94 930,-200 944.41,-202.44 959.83,-206.11 973.9,-209.89"/>
<polygon fill="orange" stroke="orange" points="752.59,-180.04 742.47,-183.16 752.33,-187.03 752.59,-180.04"/>
</a>
</g>
<text text-anchor="middle" x="860" y="-203" font-family="Helvetica,sans-Serif" font-size="10.00" fill="grey"> &lt; Kit::System::IEventFlag &gt;</text>
</g>
<!-- Node11 -->
<g id="Node000011" class="node">
<title>Node11</title>
<g id="a_Node000011"><a xlink:href="class_kit_1_1_system_1_1_i_signable.html" target="_top" xlink:title="This abstract class defines the interface by which a client can cause an object that is waiting&#45;on&#45;a&#45;...">
<polygon fill="white" stroke="#666666" points="1086.5,-176.5 962.5,-176.5 962.5,-157.5 1086.5,-157.5 1086.5,-176.5"/>
<text text-anchor="middle" x="1024.5" y="-164.5" font-family="Helvetica,sans-Serif" font-size="10.00">Kit::System::ISignable</text>
</a>
</g>
</g>
<!-- Node11&#45;&gt;Node3 -->
<g id="edge12_Node000003_Node000011" class="edge">
<title>Node11&#45;&gt;Node3</title>
<g id="a_edge12_Node000003_Node000011"><a xlink:title=" ">
<path fill="none" stroke="#9a32cd" stroke-dasharray="5,2" d="M1055.28,-153.33C1073.49,-145.21 1097.37,-134.96 1119,-127 1183.64,-103.2 1200.84,-100.19 1267,-81 1277.96,-77.82 1289.92,-74.53 1300.84,-71.6"/>
<polygon fill="#9a32cd" stroke="#9a32cd" points="1053.73,-150.19 1046.05,-157.48 1056.61,-156.57 1053.73,-150.19"/>
</a>
</g>
<text text-anchor="middle" x="1184" y="-130" font-family="Helvetica,sans-Serif" font-size="10.00" fill="grey"> m_eventLoop</text>
</g>
<!-- Node12 -->
<g id="Node000012" class="node">
<title>Node12</title>
<g id="a_Node000012"><a xlink:href="class_kit_1_1_system_1_1_event_loop.html" target="_top" xlink:title="This concrete class is a IRunnable object that provides a event driven execution model for a thread.">
<polygon fill="white" stroke="#666666" points="1917,-196.5 1787,-196.5 1787,-177.5 1917,-177.5 1917,-196.5"/>
<text text-anchor="middle" x="1852" y="-184.5" font-family="Helvetica,sans-Serif" font-size="10.00">Kit::System::EventLoop</text>
</a>
</g>
</g>
<!-- Node11&#45;&gt;Node12 -->
<g id="edge20_Node000012_Node000011" class="edge">
<title>Node11&#45;&gt;Node12</title>
<g id="a_edge20_Node000012_Node000011"><a xlink:title=" ">
<path fill="none" stroke="#63b8ff" d="M1096.73,-166.47C1263.54,-165.31 1670.06,-163.04 1732,-168 1755.25,-169.86 1780.82,-173.71 1802.28,-177.45"/>
<polygon fill="#63b8ff" stroke="#63b8ff" points="1096.55,-162.97 1086.58,-166.54 1096.6,-169.97 1096.55,-162.97"/>
</a>
</g>
</g>
<!-- Node11&#45;&gt;Node14 -->
<g id="edge16_Node000014_Node000011" class="edge">
<title>Node11&#45;&gt;Node14</title>
<g id="a_edge16_Node000014_Node000011"><a xlink:title=" ">
<path fill="none" stroke="#63b8ff" d="M1096.84,-163.92C1141.26,-160.64 1199.23,-153.9 1249,-140 1274.98,-132.74 1303.06,-118.93 1320.46,-109.59"/>
<polygon fill="#63b8ff" stroke="#63b8ff" points="1096.44,-160.43 1086.71,-164.62 1096.93,-167.42 1096.44,-160.43"/>
</a>
</g>
</g>
<!-- Node21 -->
<g id="Node000021" class="node">
<title>Node21</title>
<g id="a_Node000021"><a xlink:href="class_kit_1_1_system_1_1_semaphore.html" target="_top" xlink:title="This semaphore concrete class defines the interface for a Counting Semaphore.">
<polygon fill="white" stroke="#666666" points="1562,-236.5 1428,-236.5 1428,-217.5 1562,-217.5 1562,-236.5"/>
<text text-anchor="middle" x="1495" y="-224.5" font-family="Helvetica,sans-Serif" font-size="10.00">Kit::System::Semaphore</text>
</a>
</g>
</g>
<!-- Node11&#45;&gt;Node21 -->
<g id="edge30_Node000021_Node000011" class="edge">
<title>Node11&#45;&gt;Node21</title>
<g id="a_edge30_Node000021_Node000011"><a xlink:title=" ">
<path fill="none" stroke="#63b8ff" d="M1064.57,-179.56C1081.19,-184.46 1100.88,-189.69 1119,-193 1226.07,-212.57 1352.49,-221.07 1427.8,-224.62"/>
<polygon fill="#63b8ff" stroke="#63b8ff" points="1065.25,-176.11 1054.66,-176.58 1063.22,-182.81 1065.25,-176.11"/>
</a>
</g>
</g>
<!-- Node12&#45;&gt;Node2 -->
<g id="edge13_Node000002_Node000012" class="edge">
<title>Node12&#45;&gt;Node2</title>
<g id="a_edge13_Node000002_Node000012"><a xlink:title=" ">
<path fill="none" stroke="#63b8ff" d="M1885.02,-173.28C1943.68,-148.14 2066.97,-95.3 2117.58,-73.61"/>
<polygon fill="#63b8ff" stroke="#63b8ff" points="1883.33,-170.19 1875.52,-177.35 1886.09,-176.63 1883.33,-170.19"/>
</a>
</g>
</g>
<!-- Node13 -->
<g id="Node000013" class="node">
<title>Node13</title>
<g id="a_Node000013"><a xlink:href="class_kit_1_1_system_1_1_i_runnable.html" target="_top" xlink:title="This mostly an abstract class defines the interface for an object that is &quot;executed&quot; when a Thread ob...">
<polygon fill="white" stroke="#666666" points="1720,-120.5 1592,-120.5 1592,-101.5 1720,-101.5 1720,-120.5"/>
<text text-anchor="middle" x="1656" y="-108.5" font-family="Helvetica,sans-Serif" font-size="10.00">Kit::System::IRunnable</text>
</a>
</g>
</g>
<!-- Node13&#45;&gt;Node12 -->
<g id="edge14_Node000012_Node000013" class="edge">
<title>Node13&#45;&gt;Node12</title>
<g id="a_edge14_Node000012_Node000013"><a xlink:title=" ">
<path fill="none" stroke="#63b8ff" d="M1713.06,-123.07C1725.71,-126.41 1738.96,-130.4 1751,-135 1782.08,-146.87 1815.98,-165.9 1835.25,-177.36"/>
<polygon fill="#63b8ff" stroke="#63b8ff" points="1713.63,-119.6 1703.08,-120.53 1711.91,-126.39 1713.63,-119.6"/>
</a>
</g>
</g>
<!-- Node13&#45;&gt;Node14 -->
<g id="edge18_Node000014_Node000013" class="edge">
<title>Node13&#45;&gt;Node14</title>
<g id="a_edge18_Node000014_Node000013"><a xlink:title=" ">
<path fill="none" stroke="#9a32cd" stroke-dasharray="5,2" d="M1581.68,-113.29C1537.18,-114.12 1479.27,-114.17 1428,-111 1417.34,-110.34 1405.99,-109.24 1395.11,-107.98"/>
<polygon fill="#9a32cd" stroke="#9a32cd" points="1581.89,-116.79 1591.82,-113.09 1581.75,-109.79 1581.89,-116.79"/>
</a>
</g>
<text text-anchor="middle" x="1495" y="-117" font-family="Helvetica,sans-Serif" font-size="10.00" fill="grey"> m_runnable</text>
</g>
<!-- Node14&#45;&gt;Node13 -->
<g id="edge15_Node000013_Node000014" class="edge">
<title>Node14&#45;&gt;Node13</title>
<g id="a_edge15_Node000013_Node000014"><a xlink:title=" ">
<path fill="none" stroke="#9a32cd" stroke-dasharray="5,2" d="M1405.4,-97.97C1449.71,-97.1 1509.41,-96.9 1562,-100 1571.66,-100.57 1581.85,-101.47 1591.81,-102.51"/>
<polygon fill="#9a32cd" stroke="#9a32cd" points="1405.26,-94.47 1395.33,-98.18 1405.4,-101.47 1405.26,-94.47"/>
</a>
</g>
<text text-anchor="middle" x="1495" y="-103" font-family="Helvetica,sans-Serif" font-size="10.00" fill="grey"> m_parentThreadPtr_</text>
</g>
<!-- Node15 -->
<g id="Node000015" class="node">
<title>Node15</title>
<g id="a_Node000015"><a xlink:href="class_kit_1_1_system_1_1_i_event_manager.html" target="_top" xlink:title="This abstract class defines the interface to signal a &#39;Event Flag&#39;.">
<polygon fill="white" stroke="#666666" points="1732,-196.5 1580,-196.5 1580,-177.5 1732,-177.5 1732,-196.5"/>
<text text-anchor="middle" x="1656" y="-184.5" font-family="Helvetica,sans-Serif" font-size="10.00">Kit::System::IEventManager</text>
</a>
</g>
</g>
<!-- Node15&#45;&gt;Node12 -->
<g id="edge19_Node000012_Node000015" class="edge">
<title>Node15&#45;&gt;Node12</title>
<g id="a_edge19_Node000012_Node000015"><a xlink:title=" ">
<path fill="none" stroke="#63b8ff" d="M1742.3,-187C1757.28,-187 1772.63,-187 1786.91,-187"/>
<polygon fill="#63b8ff" stroke="#63b8ff" points="1742.01,-183.5 1732.01,-187 1742.01,-190.5 1742.01,-183.5"/>
</a>
</g>
</g>
<!-- Node16 -->
<g id="Node000016" class="node">
<title>Node16</title>
<g id="a_Node000016"><a xlink:href="class_kit_1_1_system_1_1_timer_manager.html" target="_top" xlink:title="This concrete class implements manages a list of Software Timers.">
<polygon fill="white" stroke="#666666" points="1731,-321.5 1581,-321.5 1581,-302.5 1731,-302.5 1731,-321.5"/>
<text text-anchor="middle" x="1656" y="-309.5" font-family="Helvetica,sans-Serif" font-size="10.00">Kit::System::TimerManager</text>
</a>
</g>
</g>
<!-- Node16&#45;&gt;Node12 -->
<g id="edge21_Node000012_Node000016" class="edge">
<title>Node16&#45;&gt;Node12</title>
<g id="a_edge21_Node000012_Node000016"><a xlink:title=" ">
<path fill="none" stroke="#63b8ff" d="M1719.24,-299.63C1730.23,-296.11 1741.25,-291.65 1751,-286 1792.64,-261.87 1829.41,-216.25 1844.15,-196.51"/>
<polygon fill="#63b8ff" stroke="#63b8ff" points="1718.22,-296.29 1709.63,-302.49 1720.22,-303 1718.22,-296.29"/>
</a>
</g>
</g>
<!-- Node17 -->
<g id="Node000017" class="node">
<title>Node17</title>
<g id="a_Node000017"><a xlink:href="class_kit_1_1_container_1_1_d_list.html" target="_top" xlink:title=" ">
<polygon fill="white" stroke="#666666" points="1410,-330 1267,-330 1267,-300 1410,-300 1410,-330"/>
<text text-anchor="start" x="1275" y="-318" font-family="Helvetica,sans-Serif" font-size="10.00">Kit::Container::DList</text>
<text text-anchor="middle" x="1338.5" y="-307" font-family="Helvetica,sans-Serif" font-size="10.00">&lt; Kit::System::ICounter &gt;</text>
</a>
</g>
</g>
<!-- Node17&#45;&gt;Node16 -->
<g id="edge22_Node000016_Node000017" class="edge">
<title>Node17&#45;&gt;Node16</title>
<g id="a_edge22_Node000016_Node000017"><a xlink:title=" ">
<path fill="none" stroke="#9a32cd" stroke-dasharray="5,2" d="M1420.33,-314.23C1469.81,-313.76 1532.66,-313.16 1580.86,-312.7"/>
<polygon fill="#9a32cd" stroke="#9a32cd" points="1420.27,-310.73 1410.3,-314.33 1420.34,-317.73 1420.27,-310.73"/>
</a>
</g>
<text text-anchor="middle" x="1495" y="-328" font-family="Helvetica,sans-Serif" font-size="10.00" fill="grey"> m_counters</text>
<text text-anchor="middle" x="1495" y="-317" font-family="Helvetica,sans-Serif" font-size="10.00" fill="grey">m_pendingAttach</text>
</g>
<!-- Node18 -->
<g id="Node000018" class="node">
<title>Node18</title>
<g id="a_Node000018"><a xlink:href="class_kit_1_1_container_1_1_d_list_base.html" target="_top" xlink:title="This protected base class implements a NON&#45;TYPE&#45;SAFE a doubly linked list which maintains the orderin...">
<polygon fill="white" stroke="#666666" points="754.5,-297.5 616.5,-297.5 616.5,-278.5 754.5,-278.5 754.5,-297.5"/>
<text text-anchor="middle" x="685.5" y="-285.5" font-family="Helvetica,sans-Serif" font-size="10.00">Kit::Container::DListBase</text>
</a>
</g>
</g>
<!-- Node18&#45;&gt;Node17 -->
<g id="edge23_Node000017_Node000018" class="edge">
<title>Node18&#45;&gt;Node17</title>
<g id="a_edge23_Node000017_Node000018"><a xlink:title=" ">
<path fill="none" stroke="#63b8ff" d="M761.49,-298.78C771.07,-299.97 780.76,-301.08 790,-302 993.11,-322.14 1044.9,-319.31 1249,-317 1254.84,-316.93 1260.9,-316.84 1266.98,-316.74"/>
<polygon fill="#63b8ff" stroke="#63b8ff" points="761.93,-295.31 751.57,-297.52 761.04,-302.26 761.93,-295.31"/>
</a>
</g>
</g>
<!-- Node20 -->
<g id="Node000020" class="node">
<title>Node20</title>
<g id="a_Node000020"><a xlink:href="class_kit_1_1_container_1_1_d_list.html" target="_top" xlink:title="This template class implements a singly linked list which maintains the ordering imposed on it by the...">
<polygon fill="white" stroke="#666666" points="1081.5,-303 967.5,-303 967.5,-273 1081.5,-273 1081.5,-303"/>
<text text-anchor="start" x="975.5" y="-291" font-family="Helvetica,sans-Serif" font-size="10.00">Kit::Container::DList</text>
<text text-anchor="middle" x="1024.5" y="-280" font-family="Helvetica,sans-Serif" font-size="10.00">&lt; ITEM &gt;</text>
</a>
</g>
</g>
<!-- Node18&#45;&gt;Node20 -->
<g id="edge28_Node000020_Node000018" class="edge">
<title>Node18&#45;&gt;Node20</title>
<g id="a_edge28_Node000020_Node000018"><a xlink:title=" ">
<path fill="none" stroke="#63b8ff" d="M764.83,-288C826.87,-288 912.03,-288 967.4,-288"/>
<polygon fill="#63b8ff" stroke="#63b8ff" points="764.7,-284.5 754.7,-288 764.7,-291.5 764.7,-284.5"/>
</a>
</g>
</g>
<!-- Node19&#45;&gt;Node18 -->
<g id="edge24_Node000018_Node000019" class="edge">
<title>Node19&#45;&gt;Node18</title>
<g id="a_edge24_Node000018_Node000019"><a xlink:title=" ">
<path fill="none" stroke="#9a32cd" stroke-dasharray="5,2" d="M516.37,-258.49C553.35,-264.98 596.8,-272.61 630.27,-278.48"/>
<polygon fill="#9a32cd" stroke="#9a32cd" points="516.58,-254.97 506.12,-256.69 515.37,-261.87 516.58,-254.97"/>
</a>
</g>
<text text-anchor="middle" x="553" y="-283" font-family="Helvetica,sans-Serif" font-size="10.00" fill="grey"> m_headPtr</text>
<text text-anchor="middle" x="553" y="-272" font-family="Helvetica,sans-Serif" font-size="10.00" fill="grey">m_tailPtr</text>
</g>
<!-- Node19&#45;&gt;Node19 -->
<g id="edge26_Node000019_Node000019" class="edge">
<title>Node19&#45;&gt;Node19</title>
<g id="a_edge26_Node000019_Node000019"><a xlink:title=" ">
<path fill="none" stroke="#9a32cd" stroke-dasharray="5,2" d="M418.55,-270.6C421.27,-274.97 427.92,-278 438.5,-278 456.31,-278 462.99,-269.41 458.54,-260.28"/>
<polygon fill="#9a32cd" stroke="#9a32cd" points="422.04,-270.25 418.46,-260.28 415.04,-270.3 422.04,-270.25"/>
</a>
</g>
<text text-anchor="middle" x="438.5" y="-281" font-family="Helvetica,sans-Serif" font-size="10.00" fill="grey"> m_prevPtr_</text>
</g>
<!-- Node20&#45;&gt;Node17 -->
<g id="edge27_Node000017_Node000020" class="edge">
<title>Node20&#45;&gt;Node17</title>
<g id="a_edge27_Node000017_Node000020"><a xlink:title=" ">
<path fill="none" stroke="orange" stroke-dasharray="5,2" d="M1091.66,-292.96C1136.16,-296.39 1196.13,-301.18 1249,-306 1254.84,-306.53 1260.9,-307.11 1266.99,-307.69"/>
<polygon fill="orange" stroke="orange" points="1091.8,-289.46 1081.56,-292.19 1091.26,-296.44 1091.8,-289.46"/>
</a>
</g>
<text text-anchor="middle" x="1184" y="-309" font-family="Helvetica,sans-Serif" font-size="10.00" fill="grey"> &lt; Kit::System::ICounter &gt;</text>
</g>
<!-- Node21&#45;&gt;Node12 -->
<g id="edge29_Node000012_Node000021" class="edge">
<title>Node21&#45;&gt;Node12</title>
<g id="a_edge29_Node000012_Node000021"><a xlink:title=" ">
<path fill="none" stroke="#9a32cd" stroke-dasharray="5,2" d="M1572.5,-221.55C1618.76,-217.91 1678.87,-212.6 1732,-206 1753.07,-203.38 1776.14,-199.85 1796.31,-196.55"/>
<polygon fill="#9a32cd" stroke="#9a32cd" points="1571.95,-218.08 1562.25,-222.34 1572.49,-225.06 1571.95,-218.08"/>
</a>
</g>
<text text-anchor="middle" x="1656" y="-223" font-family="Helvetica,sans-Serif" font-size="10.00" fill="grey"> m_sema</text>
</g>
<!-- Node22&#45;&gt;Node12 -->
<g id="edge31_Node000012_Node000022" class="edge">
<title>Node22&#45;&gt;Node12</title>
<g id="a_edge31_Node000012_Node000022"><a xlink:title=" ">
<path fill="none" stroke="#9a32cd" stroke-dasharray="5,2" d="M1111.46,-239.11C1245.84,-258.3 1513,-284.9 1732,-235 1769.14,-226.54 1809.76,-207.96 1832.64,-196.56"/>
<polygon fill="#9a32cd" stroke="#9a32cd" points="1111.63,-235.6 1101.23,-237.62 1110.62,-242.52 1111.63,-235.6"/>
</a>
</g>
<text text-anchor="middle" x="1495" y="-266" font-family="Helvetica,sans-Serif" font-size="10.00" fill="grey"> m_eventList</text>
</g>
<!-- Node23 -->
<g id="Node000023" class="node">
<title>Node23</title>
<g id="a_Node000023"><a xlink:href="class_kit_1_1_system_1_1_periodic_scheduler.html" target="_top" xlink:title="This concrete class is a &#39;policy&#39; object that is used to add polled based, cooperative monotonic sche...">
<polygon fill="white" stroke="#666666" points="2224,-33.5 2058,-33.5 2058,-14.5 2224,-14.5 2224,-33.5"/>
<text text-anchor="middle" x="2141" y="-21.5" font-family="Helvetica,sans-Serif" font-size="10.00">Kit::System::PeriodicScheduler</text>
</a>
</g>
</g>
<!-- Node23&#45;&gt;Node1 -->
<g id="edge34_Node000001_Node000023" class="edge">
<title>Node23&#45;&gt;Node1</title>
<g id="a_edge34_Node000001_Node000023"><a xlink:title=" ">
<path fill="none" stroke="#63b8ff" d="M2234.04,-32.3C2242.96,-33.11 2251.97,-33.92 2260.78,-34.72"/>
<polygon fill="#63b8ff" stroke="#63b8ff" points="2234.28,-28.81 2224.01,-31.4 2233.65,-35.78 2234.28,-28.81"/>
</a>
</g>
</g>
<!-- Node24 -->
<g id="Node000024" class="node">
<title>Node24</title>
<g id="a_Node000024"><a xlink:href="struct_kit_1_1_system_1_1_periodic_scheduler_1_1_interval___t.html" target="_top" xlink:title="Defines an interval.">
<polygon fill="white" stroke="#666666" points="1935,-36 1769,-36 1769,-6 1935,-6 1935,-36"/>
<text text-anchor="start" x="1777" y="-24" font-family="Helvetica,sans-Serif" font-size="10.00">Kit::System::PeriodicScheduler</text>
<text text-anchor="middle" x="1852" y="-13" font-family="Helvetica,sans-Serif" font-size="10.00">::Interval_T</text>
</a>
</g>
</g>
<!-- Node24&#45;&gt;Node23 -->
<g id="edge35_Node000023_Node000024" class="edge">
<title>Node24&#45;&gt;Node23</title>
<g id="a_edge35_Node000023_Node000024"><a xlink:title=" ">
<path fill="none" stroke="#9a32cd" stroke-dasharray="5,2" d="M1945.3,-21.96C1981.46,-22.34 2022.62,-22.77 2057.75,-23.14"/>
<polygon fill="#9a32cd" stroke="#9a32cd" points="1945.28,-18.46 1935.24,-21.86 1945.21,-25.46 1945.28,-18.46"/>
</a>
</g>
<text text-anchor="middle" x="1996.5" y="-37" font-family="Helvetica,sans-Serif" font-size="10.00" fill="grey"> m_intervals</text>
<text text-anchor="middle" x="1996.5" y="-26" font-family="Helvetica,sans-Serif" font-size="10.00" fill="grey">m_reportSlippage</text>
</g>
</g>
</svg>
