<?xml version="1.0" encoding="UTF-8" standalone="no"?>
<!DOCTYPE svg PUBLIC "-//W3C//DTD SVG 1.1//EN"
 "http://www.w3.org/Graphics/SVG/1.1/DTD/svg11.dtd">
<!-- Generated by graphviz version 2.43.0 (0)
 -->
<!-- Title: Kit::Dm::Mp::SignedInteger&lt; ELEMTYPE, MPTYPE &gt; Pages: 1 -->
<svg width="2098pt" height="182pt"
 viewBox="0.00 0.00 2098.00 182.00" xmlns="http://www.w3.org/2000/svg" xmlns:xlink="http://www.w3.org/1999/xlink">
<g id="graph0" class="graph" transform="scale(1 1) rotate(0) translate(4 178)">
<title>Kit::Dm::Mp::SignedInteger&lt; ELEMTYPE, MPTYPE &gt;</title>
<!-- Node1 -->
<g id="Node000001" class="node">
<title>Node1</title>
<g id="a_Node000001"><a xlink:title="This template class provides the to/from JSON methods for Signed Integers.">
<polygon fill="#999999" stroke="#666666" points="1673,-102 1525,-102 1525,-72 1673,-72 1673,-102"/>
<text text-anchor="start" x="1533" y="-90" font-family="Helvetica,sans-Serif" font-size="10.00">Kit::Dm::Mp::SignedInteger</text>
<text text-anchor="middle" x="1599" y="-79" font-family="Helvetica,sans-Serif" font-size="10.00">&lt; ELEMTYPE, MPTYPE &gt;</text>
</a>
</g>
</g>
<!-- Node11 -->
<g id="Node000011" class="node">
<title>Node11</title>
<g id="a_Node000011"><a xlink:href="class_kit_1_1_dm_1_1_mp_1_1_signed_integer.html" target="_top" xlink:title=" ">
<polygon fill="white" stroke="#666666" points="1948,-174 1800,-174 1800,-144 1948,-144 1948,-174"/>
<text text-anchor="start" x="1808" y="-162" font-family="Helvetica,sans-Serif" font-size="10.00">Kit::Dm::Mp::SignedInteger</text>
<text text-anchor="middle" x="1874" y="-151" font-family="Helvetica,sans-Serif" font-size="10.00">&lt; int16_t, Int16 &gt;</text>
</a>
</g>
</g>
<!-- Node1&#45;&gt;Node11 -->
<g id="edge10_Node000001_Node000011" class="edge">
<title>Node1&#45;&gt;Node11</title>
<g id="a_edge10_Node000001_Node000011"><a xlink:title=" ">
<path fill="none" stroke="orange" stroke-dasharray="5,2" d="M1652.62,-105.26C1665.13,-109.34 1678.49,-113.5 1691,-117 1726.91,-127.04 1767.29,-136.54 1800.87,-143.95"/>
<polygon fill="orange" stroke="orange" points="1653.4,-101.83 1642.8,-102.01 1651.2,-108.47 1653.4,-101.83"/>
</a>
</g>
<text text-anchor="middle" x="1736.5" y="-142" font-family="Helvetica,sans-Serif" font-size="10.00" fill="grey"> &lt; int16_t, Int16 &gt;</text>
</g>
<!-- Node13 -->
<g id="Node000013" class="node">
<title>Node13</title>
<g id="a_Node000013"><a xlink:href="class_kit_1_1_dm_1_1_mp_1_1_signed_integer.html" target="_top" xlink:title=" ">
<polygon fill="white" stroke="#666666" points="1948,-126 1800,-126 1800,-96 1948,-96 1948,-126"/>
<text text-anchor="start" x="1808" y="-114" font-family="Helvetica,sans-Serif" font-size="10.00">Kit::Dm::Mp::SignedInteger</text>
<text text-anchor="middle" x="1874" y="-103" font-family="Helvetica,sans-Serif" font-size="10.00">&lt; int32_t, Int32 &gt;</text>
</a>
</g>
</g>
<!-- Node1&#45;&gt;Node13 -->
<g id="edge12_Node000001_Node000013" class="edge">
<title>Node1&#45;&gt;Node13</title>
<g id="a_edge12_Node000001_Node000013"><a xlink:title=" ">
<path fill="none" stroke="orange" stroke-dasharray="5,2" d="M1683.44,-94.34C1720.53,-97.6 1763.81,-101.4 1799.64,-104.55"/>
<polygon fill="orange" stroke="orange" points="1683.43,-90.82 1673.16,-93.43 1682.81,-97.79 1683.43,-90.82"/>
</a>
</g>
<text text-anchor="middle" x="1736.5" y="-105" font-family="Helvetica,sans-Serif" font-size="10.00" fill="grey"> &lt; int32_t, Int32 &gt;</text>
</g>
<!-- Node15 -->
<g id="Node000015" class="node">
<title>Node15</title>
<g id="a_Node000015"><a xlink:href="class_kit_1_1_dm_1_1_mp_1_1_signed_integer.html" target="_top" xlink:title=" ">
<polygon fill="white" stroke="#666666" points="1948,-78 1800,-78 1800,-48 1948,-48 1948,-78"/>
<text text-anchor="start" x="1808" y="-66" font-family="Helvetica,sans-Serif" font-size="10.00">Kit::Dm::Mp::SignedInteger</text>
<text text-anchor="middle" x="1874" y="-55" font-family="Helvetica,sans-Serif" font-size="10.00">&lt; int64_t, Int64 &gt;</text>
</a>
</g>
</g>
<!-- Node1&#45;&gt;Node15 -->
<g id="edge14_Node000001_Node000015" class="edge">
<title>Node1&#45;&gt;Node15</title>
<g id="a_edge14_Node000001_Node000015"><a xlink:title=" ">
<path fill="none" stroke="orange" stroke-dasharray="5,2" d="M1683.44,-79.66C1720.53,-76.4 1763.81,-72.6 1799.64,-69.45"/>
<polygon fill="orange" stroke="orange" points="1682.81,-76.21 1673.16,-80.57 1683.43,-83.18 1682.81,-76.21"/>
</a>
</g>
<text text-anchor="middle" x="1736.5" y="-82" font-family="Helvetica,sans-Serif" font-size="10.00" fill="grey"> &lt; int64_t, Int64 &gt;</text>
</g>
<!-- Node17 -->
<g id="Node000017" class="node">
<title>Node17</title>
<g id="a_Node000017"><a xlink:href="class_kit_1_1_dm_1_1_mp_1_1_signed_integer.html" target="_top" xlink:title=" ">
<polygon fill="white" stroke="#666666" points="1948,-30 1800,-30 1800,0 1948,0 1948,-30"/>
<text text-anchor="start" x="1808" y="-18" font-family="Helvetica,sans-Serif" font-size="10.00">Kit::Dm::Mp::SignedInteger</text>
<text text-anchor="middle" x="1874" y="-7" font-family="Helvetica,sans-Serif" font-size="10.00">&lt; int8_t, Int8 &gt;</text>
</a>
</g>
</g>
<!-- Node1&#45;&gt;Node17 -->
<g id="edge16_Node000001_Node000017" class="edge">
<title>Node1&#45;&gt;Node17</title>
<g id="a_edge16_Node000001_Node000017"><a xlink:title=" ">
<path fill="none" stroke="orange" stroke-dasharray="5,2" d="M1652.62,-68.74C1665.13,-64.66 1678.49,-60.5 1691,-57 1726.91,-46.96 1767.29,-37.46 1800.87,-30.05"/>
<polygon fill="orange" stroke="orange" points="1651.2,-65.53 1642.8,-71.99 1653.4,-72.17 1651.2,-65.53"/>
</a>
</g>
<text text-anchor="middle" x="1736.5" y="-60" font-family="Helvetica,sans-Serif" font-size="10.00" fill="grey"> &lt; int8_t, Int8 &gt;</text>
</g>
<!-- Node2 -->
<g id="Node000002" class="node">
<title>Node2</title>
<g id="a_Node000002"><a xlink:href="class_kit_1_1_dm_1_1_mp_1_1_integer.html" target="_top" xlink:title="This template class provides a mostly concrete implementation for a Model Point who&#39;s data is a C int...">
<polygon fill="white" stroke="#666666" points="1488,-102 1354,-102 1354,-72 1488,-72 1488,-102"/>
<text text-anchor="start" x="1362" y="-90" font-family="Helvetica,sans-Serif" font-size="10.00">Kit::Dm::Mp::Integer</text>
<text text-anchor="middle" x="1421" y="-79" font-family="Helvetica,sans-Serif" font-size="10.00">&lt; ELEMTYPE, MPTYPE &gt;</text>
</a>
</g>
</g>
<!-- Node2&#45;&gt;Node1 -->
<g id="edge1_Node000001_Node000002" class="edge">
<title>Node2&#45;&gt;Node1</title>
<g id="a_edge1_Node000001_Node000002"><a xlink:title=" ">
<path fill="none" stroke="#63b8ff" d="M1498.28,-87C1507.08,-87 1516.04,-87 1524.8,-87"/>
<polygon fill="#63b8ff" stroke="#63b8ff" points="1498.04,-83.5 1488.04,-87 1498.04,-90.5 1498.04,-83.5"/>
</a>
</g>
</g>
<!-- Node3 -->
<g id="Node000003" class="node">
<title>Node3</title>
<g id="a_Node000003"><a xlink:href="class_kit_1_1_dm_1_1_mp_1_1_numeric_base.html" target="_top" xlink:title="This template class extends the PrimitiveType class to provide numeric operations.">
<polygon fill="white" stroke="#666666" points="1317,-102 1171,-102 1171,-72 1317,-72 1317,-102"/>
<text text-anchor="start" x="1179" y="-90" font-family="Helvetica,sans-Serif" font-size="10.00">Kit::Dm::Mp::NumericBase</text>
<text text-anchor="middle" x="1244" y="-79" font-family="Helvetica,sans-Serif" font-size="10.00">&lt; ELEMTYPE, MPTYPE &gt;</text>
</a>
</g>
</g>
<!-- Node3&#45;&gt;Node2 -->
<g id="edge2_Node000002_Node000003" class="edge">
<title>Node3&#45;&gt;Node2</title>
<g id="a_edge2_Node000002_Node000003"><a xlink:title=" ">
<path fill="none" stroke="#63b8ff" d="M1327.22,-87C1336.16,-87 1345.16,-87 1353.87,-87"/>
<polygon fill="#63b8ff" stroke="#63b8ff" points="1327.19,-83.5 1317.19,-87 1327.19,-90.5 1327.19,-83.5"/>
</a>
</g>
</g>
<!-- Node4 -->
<g id="Node000004" class="node">
<title>Node4</title>
<g id="a_Node000004"><a xlink:href="class_kit_1_1_dm_1_1_mp_1_1_primitive_type.html" target="_top" xlink:title="This template class extends the Scalar base class to data that is a C primitive type of type: &#39;ELEMTY...">
<polygon fill="white" stroke="#666666" points="1134,-102 987,-102 987,-72 1134,-72 1134,-102"/>
<text text-anchor="start" x="995" y="-90" font-family="Helvetica,sans-Serif" font-size="10.00">Kit::Dm::Mp::PrimitiveType</text>
<text text-anchor="middle" x="1060.5" y="-79" font-family="Helvetica,sans-Serif" font-size="10.00">&lt; ELEMTYPE, MPTYPE &gt;</text>
</a>
</g>
</g>
<!-- Node4&#45;&gt;Node3 -->
<g id="edge3_Node000003_Node000004" class="edge">
<title>Node4&#45;&gt;Node3</title>
<g id="a_edge3_Node000003_Node000004"><a xlink:title=" ">
<path fill="none" stroke="#63b8ff" d="M1144.06,-87C1153.02,-87 1162.08,-87 1170.9,-87"/>
<polygon fill="#63b8ff" stroke="#63b8ff" points="1144.02,-83.5 1134.02,-87 1144.02,-90.5 1144.02,-83.5"/>
</a>
</g>
</g>
<!-- Node5 -->
<g id="Node000005" class="node">
<title>Node5</title>
<g id="a_Node000005"><a xlink:href="class_kit_1_1_dm_1_1_mp_1_1_scalar.html" target="_top" xlink:title="This template class is partial concrete class that provides a basic implementation for a Model Point ...">
<polygon fill="white" stroke="#666666" points="950,-102 816,-102 816,-72 950,-72 950,-102"/>
<text text-anchor="start" x="824" y="-90" font-family="Helvetica,sans-Serif" font-size="10.00">Kit::Dm::Mp::Scalar</text>
<text text-anchor="middle" x="883" y="-79" font-family="Helvetica,sans-Serif" font-size="10.00">&lt; ELEMTYPE, MPTYPE &gt;</text>
</a>
</g>
</g>
<!-- Node5&#45;&gt;Node4 -->
<g id="edge4_Node000004_Node000005" class="edge">
<title>Node5&#45;&gt;Node4</title>
<g id="a_edge4_Node000004_Node000005"><a xlink:title=" ">
<path fill="none" stroke="#63b8ff" d="M960.54,-87C969.29,-87 978.2,-87 986.9,-87"/>
<polygon fill="#63b8ff" stroke="#63b8ff" points="960.35,-83.5 950.35,-87 960.35,-90.5 960.35,-83.5"/>
</a>
</g>
</g>
<!-- Node6 -->
<g id="Node000006" class="node">
<title>Node6</title>
<g id="a_Node000006"><a xlink:href="class_kit_1_1_dm_1_1_model_point_base.html" target="_top" xlink:title="This concrete class provide common infrastructure for a Model Point.">
<polygon fill="white" stroke="#666666" points="779,-96.5 641,-96.5 641,-77.5 779,-77.5 779,-96.5"/>
<text text-anchor="middle" x="710" y="-84.5" font-family="Helvetica,sans-Serif" font-size="10.00">Kit::Dm::ModelPointBase</text>
</a>
</g>
</g>
<!-- Node6&#45;&gt;Node5 -->
<g id="edge5_Node000005_Node000006" class="edge">
<title>Node6&#45;&gt;Node5</title>
<g id="a_edge5_Node000005_Node000006"><a xlink:title=" ">
<path fill="none" stroke="#63b8ff" d="M789.1,-87C798.03,-87 807.07,-87 815.83,-87"/>
<polygon fill="#63b8ff" stroke="#63b8ff" points="789.08,-83.5 779.08,-87 789.08,-90.5 789.08,-83.5"/>
</a>
</g>
</g>
<!-- Node7 -->
<g id="Node000007" class="node">
<title>Node7</title>
<g id="a_Node000007"><a xlink:href="class_kit_1_1_dm_1_1_i_model_point.html" target="_top" xlink:title="This mostly abstract class defines the interface for a Model Point.">
<polygon fill="white" stroke="#666666" points="604,-96.5 487,-96.5 487,-77.5 604,-77.5 604,-96.5"/>
<text text-anchor="middle" x="545.5" y="-84.5" font-family="Helvetica,sans-Serif" font-size="10.00">Kit::Dm::IModelPoint</text>
</a>
</g>
</g>
<!-- Node7&#45;&gt;Node6 -->
<g id="edge6_Node000006_Node000007" class="edge">
<title>Node7&#45;&gt;Node6</title>
<g id="a_edge6_Node000006_Node000007"><a xlink:title=" ">
<path fill="none" stroke="#63b8ff" d="M614.4,-87C623.16,-87 632.13,-87 640.88,-87"/>
<polygon fill="#63b8ff" stroke="#63b8ff" points="614.25,-83.5 604.25,-87 614.25,-90.5 614.25,-83.5"/>
</a>
</g>
</g>
<!-- Node8 -->
<g id="Node000008" class="node">
<title>Node8</title>
<g id="a_Node000008"><a xlink:href="class_kit_1_1_container_1_1_extended_list_item.html" target="_top" xlink:title="This class is used by the Container classes to implement a various types of DOUBLY linked containers.">
<polygon fill="white" stroke="#666666" points="450,-102 315,-102 315,-72 450,-72 450,-102"/>
<text text-anchor="start" x="323" y="-90" font-family="Helvetica,sans-Serif" font-size="10.00">Kit::Container::Extended</text>
<text text-anchor="middle" x="382.5" y="-79" font-family="Helvetica,sans-Serif" font-size="10.00">ListItem</text>
</a>
</g>
</g>
<!-- Node8&#45;&gt;Node7 -->
<g id="edge7_Node000007_Node000008" class="edge">
<title>Node8&#45;&gt;Node7</title>
<g id="a_edge7_Node000007_Node000008"><a xlink:title=" ">
<path fill="none" stroke="#63b8ff" d="M460.66,-87C469.46,-87 478.31,-87 486.8,-87"/>
<polygon fill="#63b8ff" stroke="#63b8ff" points="460.38,-83.5 450.38,-87 460.38,-90.5 460.38,-83.5"/>
</a>
</g>
</g>
<!-- Node9 -->
<g id="Node000009" class="node">
<title>Node9</title>
<g id="a_Node000009"><a xlink:href="class_kit_1_1_container_1_1_list_item.html" target="_top" xlink:title="This class is used by the Container classes to implement a various types of linked lists containers.">
<polygon fill="white" stroke="#666666" points="278,-96.5 149,-96.5 149,-77.5 278,-77.5 278,-96.5"/>
<text text-anchor="middle" x="213.5" y="-84.5" font-family="Helvetica,sans-Serif" font-size="10.00">Kit::Container::ListItem</text>
</a>
</g>
</g>
<!-- Node9&#45;&gt;Node8 -->
<g id="edge8_Node000008_Node000009" class="edge">
<title>Node9&#45;&gt;Node8</title>
<g id="a_edge8_Node000008_Node000009"><a xlink:title=" ">
<path fill="none" stroke="#63b8ff" d="M288.34,-87C297.12,-87 306.05,-87 314.73,-87"/>
<polygon fill="#63b8ff" stroke="#63b8ff" points="288.11,-83.5 278.11,-87 288.11,-90.5 288.11,-83.5"/>
</a>
</g>
</g>
<!-- Node10 -->
<g id="Node000010" class="node">
<title>Node10</title>
<g id="a_Node000010"><a xlink:href="class_kit_1_1_container_1_1_item.html" target="_top" xlink:title="This class is used by the Intrusive Container classes to enforce the semantic and item/element can be...">
<polygon fill="white" stroke="#666666" points="112,-96.5 0,-96.5 0,-77.5 112,-77.5 112,-96.5"/>
<text text-anchor="middle" x="56" y="-84.5" font-family="Helvetica,sans-Serif" font-size="10.00">Kit::Container::Item</text>
</a>
</g>
</g>
<!-- Node10&#45;&gt;Node9 -->
<g id="edge9_Node000009_Node000010" class="edge">
<title>Node10&#45;&gt;Node9</title>
<g id="a_edge9_Node000009_Node000010"><a xlink:title=" ">
<path fill="none" stroke="#63b8ff" d="M122.43,-87C131.2,-87 140.19,-87 148.93,-87"/>
<polygon fill="#63b8ff" stroke="#63b8ff" points="122.26,-83.5 112.26,-87 122.26,-90.5 122.26,-83.5"/>
</a>
</g>
</g>
<!-- Node12 -->
<g id="Node000012" class="node">
<title>Node12</title>
<g id="a_Node000012"><a xlink:href="class_kit_1_1_dm_1_1_mp_1_1_int16.html" target="_top" xlink:title="This class provides a concrete implementation for a Point who&#39;s data is a int16_t.">
<polygon fill="white" stroke="#666666" points="2090,-168.5 1985,-168.5 1985,-149.5 2090,-149.5 2090,-168.5"/>
<text text-anchor="middle" x="2037.5" y="-156.5" font-family="Helvetica,sans-Serif" font-size="10.00">Kit::Dm::Mp::Int16</text>
</a>
</g>
</g>
<!-- Node11&#45;&gt;Node12 -->
<g id="edge11_Node000011_Node000012" class="edge">
<title>Node11&#45;&gt;Node12</title>
<g id="a_edge11_Node000011_Node000012"><a xlink:title=" ">
<path fill="none" stroke="#63b8ff" d="M1958.35,-159C1967.36,-159 1976.32,-159 1984.79,-159"/>
<polygon fill="#63b8ff" stroke="#63b8ff" points="1958.19,-155.5 1948.19,-159 1958.19,-162.5 1958.19,-155.5"/>
</a>
</g>
</g>
<!-- Node14 -->
<g id="Node000014" class="node">
<title>Node14</title>
<g id="a_Node000014"><a xlink:href="class_kit_1_1_dm_1_1_mp_1_1_int32.html" target="_top" xlink:title="This class provides a concrete implementation for a Point who&#39;s data is a int32_t.">
<polygon fill="white" stroke="#666666" points="2090,-120.5 1985,-120.5 1985,-101.5 2090,-101.5 2090,-120.5"/>
<text text-anchor="middle" x="2037.5" y="-108.5" font-family="Helvetica,sans-Serif" font-size="10.00">Kit::Dm::Mp::Int32</text>
</a>
</g>
</g>
<!-- Node13&#45;&gt;Node14 -->
<g id="edge13_Node000013_Node000014" class="edge">
<title>Node13&#45;&gt;Node14</title>
<g id="a_edge13_Node000013_Node000014"><a xlink:title=" ">
<path fill="none" stroke="#63b8ff" d="M1958.35,-111C1967.36,-111 1976.32,-111 1984.79,-111"/>
<polygon fill="#63b8ff" stroke="#63b8ff" points="1958.19,-107.5 1948.19,-111 1958.19,-114.5 1958.19,-107.5"/>
</a>
</g>
</g>
<!-- Node16 -->
<g id="Node000016" class="node">
<title>Node16</title>
<g id="a_Node000016"><a xlink:href="class_kit_1_1_dm_1_1_mp_1_1_int64.html" target="_top" xlink:title="This class provides a concrete implementation for a Point who&#39;s data is a int64_t.">
<polygon fill="white" stroke="#666666" points="2090,-72.5 1985,-72.5 1985,-53.5 2090,-53.5 2090,-72.5"/>
<text text-anchor="middle" x="2037.5" y="-60.5" font-family="Helvetica,sans-Serif" font-size="10.00">Kit::Dm::Mp::Int64</text>
</a>
</g>
</g>
<!-- Node15&#45;&gt;Node16 -->
<g id="edge15_Node000015_Node000016" class="edge">
<title>Node15&#45;&gt;Node16</title>
<g id="a_edge15_Node000015_Node000016"><a xlink:title=" ">
<path fill="none" stroke="#63b8ff" d="M1958.35,-63C1967.36,-63 1976.32,-63 1984.79,-63"/>
<polygon fill="#63b8ff" stroke="#63b8ff" points="1958.19,-59.5 1948.19,-63 1958.19,-66.5 1958.19,-59.5"/>
</a>
</g>
</g>
<!-- Node18 -->
<g id="Node000018" class="node">
<title>Node18</title>
<g id="a_Node000018"><a xlink:href="class_kit_1_1_dm_1_1_mp_1_1_int8.html" target="_top" xlink:title="This class provides a concrete implementation for a Point who&#39;s data is a int8_t.">
<polygon fill="white" stroke="#666666" points="2087,-24.5 1988,-24.5 1988,-5.5 2087,-5.5 2087,-24.5"/>
<text text-anchor="middle" x="2037.5" y="-12.5" font-family="Helvetica,sans-Serif" font-size="10.00">Kit::Dm::Mp::Int8</text>
</a>
</g>
</g>
<!-- Node17&#45;&gt;Node18 -->
<g id="edge17_Node000017_Node000018" class="edge">
<title>Node17&#45;&gt;Node18</title>
<g id="a_edge17_Node000017_Node000018"><a xlink:title=" ">
<path fill="none" stroke="#63b8ff" d="M1958.23,-15C1968.28,-15 1978.28,-15 1987.61,-15"/>
<polygon fill="#63b8ff" stroke="#63b8ff" points="1958.19,-11.5 1948.19,-15 1958.19,-18.5 1958.19,-11.5"/>
</a>
</g>
</g>
</g>
</svg>
