<?xml version="1.0" encoding="UTF-8" standalone="no"?>
<!DOCTYPE svg PUBLIC "-//W3C//DTD SVG 1.1//EN"
 "http://www.w3.org/Graphics/SVG/1.1/DTD/svg11.dtd">
<!-- Generated by graphviz version 2.43.0 (0)
 -->
<!-- Title: Kit::Persistence::Record::Journal::ReaderSync Pages: 1 -->
<svg width="616pt" height="129pt"
 viewBox="0.00 0.00 616.00 129.00" xmlns="http://www.w3.org/2000/svg" xmlns:xlink="http://www.w3.org/1999/xlink">
<g id="graph0" class="graph" transform="scale(1 1) rotate(0) translate(4 125)">
<title>Kit::Persistence::Record::Journal::ReaderSync</title>
<!-- Node1 -->
<g id="Node000001" class="node">
<title>Node1</title>
<g id="a_Node000001"><a xlink:title="This concrete class provides synchronous ITC wrapper functions for the IReader interface.">
<polygon fill="#999999" stroke="#666666" points="608,-73 476,-73 476,-43 608,-43 608,-73"/>
<text text-anchor="start" x="484" y="-61" font-family="Helvetica,sans-Serif" font-size="10.00">Kit::Persistence::Record</text>
<text text-anchor="middle" x="542" y="-50" font-family="Helvetica,sans-Serif" font-size="10.00">::Journal::ReaderSync</text>
</a>
</g>
</g>
<!-- Node2 -->
<g id="Node000002" class="node">
<title>Node2</title>
<g id="a_Node000002"><a xlink:href="class_kit_1_1_persistence_1_1_record_1_1_journal_1_1_i_reader.html" target="_top" xlink:title="This abstract class defines interface for reading &#39;entries&#39; from a a Journal Entry Record.">
<polygon fill="white" stroke="#666666" points="344,-121 212,-121 212,-91 344,-91 344,-121"/>
<text text-anchor="start" x="220" y="-109" font-family="Helvetica,sans-Serif" font-size="10.00">Kit::Persistence::Record</text>
<text text-anchor="middle" x="278" y="-98" font-family="Helvetica,sans-Serif" font-size="10.00">::Journal::IReader</text>
</a>
</g>
</g>
<!-- Node2&#45;&gt;Node1 -->
<g id="edge1_Node000001_Node000002" class="edge">
<title>Node2&#45;&gt;Node1</title>
<g id="a_edge1_Node000001_Node000002"><a xlink:title=" ">
<path fill="none" stroke="#63b8ff" d="M354.2,-92.22C392.61,-85.19 438.89,-76.71 475.78,-69.95"/>
<polygon fill="#63b8ff" stroke="#63b8ff" points="353.31,-88.83 344.1,-94.07 354.57,-95.71 353.31,-88.83"/>
</a>
</g>
</g>
<!-- Node3 -->
<g id="Node000003" class="node">
<title>Node3</title>
<g id="a_Node000003"><a xlink:href="class_kit_1_1_persistence_1_1_record_1_1_journal_1_1_read_request.html" target="_top" xlink:title="This abstract class define ITC message type and payload for the application to request read Journal E...">
<polygon fill="white" stroke="#666666" points="344,-73 212,-73 212,-43 344,-43 344,-73"/>
<text text-anchor="start" x="220" y="-61" font-family="Helvetica,sans-Serif" font-size="10.00">Kit::Persistence::Record</text>
<text text-anchor="middle" x="278" y="-50" font-family="Helvetica,sans-Serif" font-size="10.00">::Journal::ReadRequest</text>
</a>
</g>
</g>
<!-- Node3&#45;&gt;Node1 -->
<g id="edge2_Node000001_Node000003" class="edge">
<title>Node3&#45;&gt;Node1</title>
<g id="a_edge2_Node000001_Node000003"><a xlink:title=" ">
<path fill="none" stroke="#63b8ff" d="M354.2,-58C392.61,-58 438.89,-58 475.78,-58"/>
<polygon fill="#63b8ff" stroke="#63b8ff" points="354.1,-54.5 344.1,-58 354.1,-61.5 354.1,-54.5"/>
</a>
</g>
</g>
<!-- Node4 -->
<g id="Node000004" class="node">
<title>Node4</title>
<g id="a_Node000004"><a xlink:href="class_kit_1_1_event_queue_1_1_i_queue.html" target="_top" xlink:title="This abstract class represents an Event Queue where events can be delivered to.">
<polygon fill="white" stroke="#666666" points="346,-24.5 210,-24.5 210,-5.5 346,-5.5 346,-24.5"/>
<text text-anchor="middle" x="278" y="-12.5" font-family="Helvetica,sans-Serif" font-size="10.00">Kit::EventQueue::IQueue</text>
</a>
</g>
</g>
<!-- Node4&#45;&gt;Node1 -->
<g id="edge3_Node000001_Node000004" class="edge">
<title>Node4&#45;&gt;Node1</title>
<g id="a_edge3_Node000001_Node000004"><a xlink:title=" ">
<path fill="none" stroke="#9a32cd" stroke-dasharray="5,2" d="M352.71,-26.13C385.04,-31.11 423.44,-37.17 458,-43 463.78,-43.97 469.77,-45.01 475.78,-46.06"/>
<polygon fill="#9a32cd" stroke="#9a32cd" points="352.85,-22.61 342.43,-24.55 351.78,-29.53 352.85,-22.61"/>
</a>
</g>
<text text-anchor="middle" x="411" y="-46" font-family="Helvetica,sans-Serif" font-size="10.00" fill="grey"> m_myEventQueue</text>
</g>
<!-- Node5 -->
<g id="Node000005" class="node">
<title>Node5</title>
<g id="a_Node000005"><a xlink:title=" ">
<polygon fill="white" stroke="#bfbfbf" points="173,-30 0,-30 0,0 173,0 173,-30"/>
<text text-anchor="start" x="8" y="-18" font-family="Helvetica,sans-Serif" font-size="10.00">KIT_EVENT_QUEUE_SUPPORTED</text>
<text text-anchor="middle" x="86.5" y="-7" font-family="Helvetica,sans-Serif" font-size="10.00">_EVENT_TYPES</text>
</a>
</g>
</g>
<!-- Node5&#45;&gt;Node4 -->
<g id="edge4_Node000004_Node000005" class="edge">
<title>Node5&#45;&gt;Node4</title>
<g id="a_edge4_Node000004_Node000005"><a xlink:title=" ">
<path fill="none" stroke="#8b1a1a" d="M183.27,-15C192.29,-15 201.29,-15 209.96,-15"/>
<polygon fill="#8b1a1a" stroke="#8b1a1a" points="183.1,-11.5 173.1,-15 183.1,-18.5 183.1,-11.5"/>
</a>
</g>
</g>
</g>
</svg>
