<?xml version="1.0" encoding="UTF-8" standalone="no"?>
<!DOCTYPE svg PUBLIC "-//W3C//DTD SVG 1.1//EN"
 "http://www.w3.org/Graphics/SVG/1.1/DTD/svg11.dtd">
<!-- Generated by graphviz version 2.43.0 (0)
 -->
<!-- Title: Kit::Memory::Pool Pages: 1 -->
<svg width="1388pt" height="124pt"
 viewBox="0.00 0.00 1388.00 123.50" xmlns="http://www.w3.org/2000/svg" xmlns:xlink="http://www.w3.org/1999/xlink">
<g id="graph0" class="graph" transform="scale(1 1) rotate(0) translate(4 119.5)">
<title>Kit::Memory::Pool</title>
<!-- Node1 -->
<g id="Node000001" class="node">
<title>Node1</title>
<g id="a_Node000001"><a xlink:title="This internal (to the namespace) concrete class implements a Memory Allocator using a pool of fixed s...">
<polygon fill="#999999" stroke="#666666" points="1380,-90.5 1277,-90.5 1277,-71.5 1380,-71.5 1380,-90.5"/>
<text text-anchor="middle" x="1328.5" y="-78.5" font-family="Helvetica,sans-Serif" font-size="10.00">Kit::Memory::Pool</text>
</a>
</g>
</g>
<!-- Node2 -->
<g id="Node000002" class="node">
<title>Node2</title>
<g id="a_Node000002"><a xlink:href="class_kit_1_1_memory_1_1_i_allocator.html" target="_top" xlink:title="This abstract class defines the interface for a Memory Allocator.">
<polygon fill="white" stroke="#666666" points="596,-115.5 468,-115.5 468,-96.5 596,-96.5 596,-115.5"/>
<text text-anchor="middle" x="532" y="-103.5" font-family="Helvetica,sans-Serif" font-size="10.00">Kit::Memory::IAllocator</text>
</a>
</g>
</g>
<!-- Node2&#45;&gt;Node1 -->
<g id="edge1_Node000001_Node000002" class="edge">
<title>Node2&#45;&gt;Node1</title>
<g id="a_edge1_Node000001_Node000002"><a xlink:title=" ">
<path fill="none" stroke="#63b8ff" d="M606.42,-106C653.24,-106 715.18,-106 770,-106 770,-106 770,-106 1101,-106 1161.73,-106 1231.06,-97.01 1276.85,-89.81"/>
<polygon fill="#63b8ff" stroke="#63b8ff" points="606.37,-102.5 596.37,-106 606.37,-109.5 606.37,-102.5"/>
</a>
</g>
</g>
<!-- Node3 -->
<g id="Node000003" class="node">
<title>Node3</title>
<g id="a_Node000003"><a xlink:href="class_kit_1_1_container_1_1_list_item.html" target="_top" xlink:title="This class is used by the Container classes to implement a various types of linked lists containers.">
<polygon fill="white" stroke="#666666" points="278,-79.5 149,-79.5 149,-60.5 278,-60.5 278,-79.5"/>
<text text-anchor="middle" x="213.5" y="-67.5" font-family="Helvetica,sans-Serif" font-size="10.00">Kit::Container::ListItem</text>
</a>
</g>
</g>
<!-- Node3&#45;&gt;Node2 -->
<g id="edge2_Node000002_Node000003" class="edge">
<title>Node3&#45;&gt;Node2</title>
<g id="a_edge2_Node000002_Node000003"><a xlink:title=" ">
<path fill="none" stroke="#63b8ff" d="M276.14,-81.23C288.96,-83.33 302.4,-85.38 315,-87 366.15,-93.57 424.42,-98.55 467.53,-101.76"/>
<polygon fill="#63b8ff" stroke="#63b8ff" points="276.47,-77.73 266.03,-79.53 275.31,-84.63 276.47,-77.73"/>
</a>
</g>
</g>
<!-- Node3&#45;&gt;Node3 -->
<g id="edge4_Node000003_Node000003" class="edge">
<title>Node3&#45;&gt;Node3</title>
<g id="a_edge4_Node000003_Node000003"><a xlink:title=" ">
<path fill="none" stroke="#9a32cd" stroke-dasharray="5,2" d="M198.4,-89.41C199.59,-94.06 204.62,-97.5 213.5,-97.5 228.07,-97.5 232.29,-88.23 226.14,-79.58"/>
<polygon fill="#9a32cd" stroke="#9a32cd" points="201.83,-90.13 200.86,-79.58 195.04,-88.43 201.83,-90.13"/>
</a>
</g>
<text text-anchor="middle" x="213.5" y="-100.5" font-family="Helvetica,sans-Serif" font-size="10.00" fill="grey"> m_nextPtr_</text>
</g>
<!-- Node7 -->
<g id="Node000007" class="node">
<title>Node7</title>
<g id="a_Node000007"><a xlink:href="class_kit_1_1_container_1_1_extended_list_item.html" target="_top" xlink:title="This class is used by the Container classes to implement a various types of DOUBLY linked containers.">
<polygon fill="white" stroke="#666666" points="450,-49 315,-49 315,-19 450,-19 450,-49"/>
<text text-anchor="start" x="323" y="-37" font-family="Helvetica,sans-Serif" font-size="10.00">Kit::Container::Extended</text>
<text text-anchor="middle" x="382.5" y="-26" font-family="Helvetica,sans-Serif" font-size="10.00">ListItem</text>
</a>
</g>
</g>
<!-- Node3&#45;&gt;Node7 -->
<g id="edge8_Node000007_Node000003" class="edge">
<title>Node3&#45;&gt;Node7</title>
<g id="a_edge8_Node000007_Node000003"><a xlink:title=" ">
<path fill="none" stroke="#63b8ff" d="M268.77,-58.3C283.5,-55.13 299.62,-51.65 314.95,-48.35"/>
<polygon fill="#63b8ff" stroke="#63b8ff" points="267.85,-54.92 258.81,-60.45 269.33,-61.76 267.85,-54.92"/>
</a>
</g>
</g>
<!-- Node4 -->
<g id="Node000004" class="node">
<title>Node4</title>
<g id="a_Node000004"><a xlink:href="class_kit_1_1_container_1_1_item.html" target="_top" xlink:title="This class is used by the Intrusive Container classes to enforce the semantic and item/element can be...">
<polygon fill="white" stroke="#666666" points="112,-79.5 0,-79.5 0,-60.5 112,-60.5 112,-79.5"/>
<text text-anchor="middle" x="56" y="-67.5" font-family="Helvetica,sans-Serif" font-size="10.00">Kit::Container::Item</text>
</a>
</g>
</g>
<!-- Node4&#45;&gt;Node3 -->
<g id="edge3_Node000003_Node000004" class="edge">
<title>Node4&#45;&gt;Node3</title>
<g id="a_edge3_Node000003_Node000004"><a xlink:title=" ">
<path fill="none" stroke="#63b8ff" d="M122.43,-70C131.2,-70 140.19,-70 148.93,-70"/>
<polygon fill="#63b8ff" stroke="#63b8ff" points="122.26,-66.5 112.26,-70 122.26,-73.5 122.26,-66.5"/>
</a>
</g>
</g>
<!-- Node5 -->
<g id="Node000005" class="node">
<title>Node5</title>
<g id="a_Node000005"><a xlink:href="class_kit_1_1_container_1_1_d_list.html" target="_top" xlink:title=" ">
<polygon fill="white" stroke="#666666" points="1160,-77.5 1040,-77.5 1040,-36.5 1160,-36.5 1160,-77.5"/>
<text text-anchor="start" x="1048" y="-65.5" font-family="Helvetica,sans-Serif" font-size="10.00">Kit::Container::DList</text>
<text text-anchor="start" x="1048" y="-54.5" font-family="Helvetica,sans-Serif" font-size="10.00">&lt; Kit::Memory::Pool::</text>
<text text-anchor="middle" x="1100" y="-43.5" font-family="Helvetica,sans-Serif" font-size="10.00">BlockInfo &gt;</text>
</a>
</g>
</g>
<!-- Node5&#45;&gt;Node1 -->
<g id="edge5_Node000001_Node000005" class="edge">
<title>Node5&#45;&gt;Node1</title>
<g id="a_edge5_Node000001_Node000005"><a xlink:title=" ">
<path fill="none" stroke="#9a32cd" stroke-dasharray="5,2" d="M1170,-61.52C1197.71,-63.63 1229.92,-66.47 1259,-70 1264.74,-70.7 1270.73,-71.52 1276.69,-72.39"/>
<polygon fill="#9a32cd" stroke="#9a32cd" points="1170.24,-58.03 1160.01,-60.77 1169.72,-65.01 1170.24,-58.03"/>
</a>
</g>
<text text-anchor="middle" x="1218.5" y="-84" font-family="Helvetica,sans-Serif" font-size="10.00" fill="grey"> m_allocatedList</text>
<text text-anchor="middle" x="1218.5" y="-73" font-family="Helvetica,sans-Serif" font-size="10.00" fill="grey">m_freeList</text>
</g>
<!-- Node6 -->
<g id="Node000006" class="node">
<title>Node6</title>
<g id="a_Node000006"><a xlink:href="class_kit_1_1_container_1_1_d_list_base.html" target="_top" xlink:title="This protected base class implements a NON&#45;TYPE&#45;SAFE a doubly linked list which maintains the orderin...">
<polygon fill="white" stroke="#666666" points="752,-43.5 614,-43.5 614,-24.5 752,-24.5 752,-43.5"/>
<text text-anchor="middle" x="683" y="-31.5" font-family="Helvetica,sans-Serif" font-size="10.00">Kit::Container::DListBase</text>
</a>
</g>
</g>
<!-- Node6&#45;&gt;Node5 -->
<g id="edge6_Node000005_Node000006" class="edge">
<title>Node6&#45;&gt;Node5</title>
<g id="a_edge6_Node000005_Node000006"><a xlink:title=" ">
<path fill="none" stroke="#63b8ff" d="M762.18,-38.33C842.92,-42.81 967.1,-49.69 1039.97,-53.73"/>
<polygon fill="#63b8ff" stroke="#63b8ff" points="762.24,-34.83 752.06,-37.77 761.86,-41.82 762.24,-34.83"/>
</a>
</g>
</g>
<!-- Node8 -->
<g id="Node000008" class="node">
<title>Node8</title>
<g id="a_Node000008"><a xlink:href="class_kit_1_1_container_1_1_d_list.html" target="_top" xlink:title="This template class implements a double linked list which maintains the ordering imposed on it by the...">
<polygon fill="white" stroke="#666666" points="903,-30 789,-30 789,0 903,0 903,-30"/>
<text text-anchor="start" x="797" y="-18" font-family="Helvetica,sans-Serif" font-size="10.00">Kit::Container::DList</text>
<text text-anchor="middle" x="846" y="-7" font-family="Helvetica,sans-Serif" font-size="10.00">&lt; EXT_ITEM &gt;</text>
</a>
</g>
</g>
<!-- Node6&#45;&gt;Node8 -->
<g id="edge11_Node000008_Node000006" class="edge">
<title>Node6&#45;&gt;Node8</title>
<g id="a_edge11_Node000008_Node000006"><a xlink:title=" ">
<path fill="none" stroke="#63b8ff" d="M762.32,-24.76C771.26,-23.7 780.22,-22.64 788.79,-21.63"/>
<polygon fill="#63b8ff" stroke="#63b8ff" points="761.8,-21.29 752.28,-25.94 762.62,-28.25 761.8,-21.29"/>
</a>
</g>
</g>
<!-- Node7&#45;&gt;Node6 -->
<g id="edge7_Node000006_Node000007" class="edge">
<title>Node7&#45;&gt;Node6</title>
<g id="a_edge7_Node000006_Node000007"><a xlink:title=" ">
<path fill="none" stroke="#9a32cd" stroke-dasharray="5,2" d="M460.34,-34C507.76,-34 568.05,-34 613.78,-34"/>
<polygon fill="#9a32cd" stroke="#9a32cd" points="460.12,-30.5 450.12,-34 460.12,-37.5 460.12,-30.5"/>
</a>
</g>
<text text-anchor="middle" x="532" y="-48" font-family="Helvetica,sans-Serif" font-size="10.00" fill="grey"> m_headPtr</text>
<text text-anchor="middle" x="532" y="-37" font-family="Helvetica,sans-Serif" font-size="10.00" fill="grey">m_tailPtr</text>
</g>
<!-- Node7&#45;&gt;Node7 -->
<g id="edge9_Node000007_Node000007" class="edge">
<title>Node7&#45;&gt;Node7</title>
<g id="a_edge9_Node000007_Node000007"><a xlink:title=" ">
<path fill="none" stroke="#9a32cd" stroke-dasharray="5,2" d="M367.45,-59.6C369.5,-63.97 374.52,-67 382.5,-67 395.94,-67 400.98,-58.41 397.62,-49.28"/>
<polygon fill="#9a32cd" stroke="#9a32cd" points="370.94,-59.25 367.38,-49.28 363.94,-59.3 370.94,-59.25"/>
</a>
</g>
<text text-anchor="middle" x="382.5" y="-70" font-family="Helvetica,sans-Serif" font-size="10.00" fill="grey"> m_prevPtr_</text>
</g>
<!-- Node8&#45;&gt;Node5 -->
<g id="edge10_Node000005_Node000008" class="edge">
<title>Node8&#45;&gt;Node5</title>
<g id="a_edge10_Node000005_Node000008"><a xlink:title=" ">
<path fill="none" stroke="orange" stroke-dasharray="5,2" d="M913.32,-11.68C946.39,-11.53 986.75,-13.62 1022,-22 1035.29,-25.16 1049.08,-30.64 1061.26,-36.34"/>
<polygon fill="orange" stroke="orange" points="913.27,-8.18 903.31,-11.8 913.35,-15.18 913.27,-8.18"/>
</a>
</g>
<text text-anchor="start" x="921" y="-36" font-family="Helvetica,sans-Serif" font-size="10.00" fill="grey"> &lt; Kit::Memory::Pool</text>
<text text-anchor="middle" x="971.5" y="-25" font-family="Helvetica,sans-Serif" font-size="10.00" fill="grey">::BlockInfo &gt;</text>
</g>
</g>
</svg>
