<?xml version="1.0" encoding="UTF-8" standalone="no"?>
<!DOCTYPE svg PUBLIC "-//W3C//DTD SVG 1.1//EN"
 "http://www.w3.org/Graphics/SVG/1.1/DTD/svg11.dtd">
<!-- Generated by graphviz version 2.43.0 (0)
 -->
<!-- Title: Kit::Io::TeeOutput Pages: 1 -->
<svg width="178pt" height="160pt"
 viewBox="0.00 0.00 178.00 160.00" xmlns="http://www.w3.org/2000/svg" xmlns:xlink="http://www.w3.org/1999/xlink">
<g id="graph0" class="graph" transform="scale(1 1) rotate(0) translate(4 156)">
<title>Kit::Io::TeeOutput</title>
<!-- Node1 -->
<g id="Node000001" class="node">
<title>Node1</title>
<g id="a_Node000001"><a xlink:title="This concrete class implements a IOutput stream that outputs the data to multiple (up to 4) output st...">
<polygon fill="#999999" stroke="#666666" points="138,-19 37,-19 37,0 138,0 138,-19"/>
<text text-anchor="middle" x="87.5" y="-7" font-family="Helvetica,sans-Serif" font-size="10.00">Kit::Io::TeeOutput</text>
</a>
</g>
</g>
<!-- Node2 -->
<g id="Node000002" class="node">
<title>Node2</title>
<g id="a_Node000002"><a xlink:href="class_kit_1_1_io_1_1_i_output.html" target="_top" xlink:title="This partially abstract class defines a interface for operating on an output stream (example of a str...">
<polygon fill="white" stroke="#666666" points="131,-96 44,-96 44,-77 131,-77 131,-96"/>
<text text-anchor="middle" x="87.5" y="-84" font-family="Helvetica,sans-Serif" font-size="10.00">Kit::Io::IOutput</text>
</a>
</g>
</g>
<!-- Node2&#45;&gt;Node1 -->
<g id="edge1_Node000001_Node000002" class="edge">
<title>Node2&#45;&gt;Node1</title>
<g id="a_edge1_Node000001_Node000002"><a xlink:title=" ">
<path fill="none" stroke="#63b8ff" d="M85.9,-66.69C85.74,-64.11 85.59,-61.49 85.5,-59 85.13,-49.23 85.13,-46.77 85.5,-37 85.72,-31.1 86.22,-24.47 86.67,-19.32"/>
<polygon fill="#63b8ff" stroke="#63b8ff" points="82.42,-66.97 86.67,-76.68 89.4,-66.44 82.42,-66.97"/>
</a>
</g>
</g>
<!-- Node2&#45;&gt;Node1 -->
<g id="edge4_Node000001_Node000002" class="edge">
<title>Node2&#45;&gt;Node1</title>
<g id="a_edge4_Node000001_Node000002"><a xlink:title=" ">
<path fill="none" stroke="#9a32cd" stroke-dasharray="5,2" d="M87.5,-66.52C87.5,-51.24 87.5,-30.48 87.5,-19"/>
<polygon fill="#9a32cd" stroke="#9a32cd" points="84,-66.9 87.5,-76.9 91,-66.9 84,-66.9"/>
</a>
</g>
<text text-anchor="middle" x="115" y="-51" font-family="Helvetica,sans-Serif" font-size="10.00" fill="grey"> m_failed</text>
<text text-anchor="middle" x="115" y="-40" font-family="Helvetica,sans-Serif" font-size="10.00" fill="grey">m_streams</text>
</g>
<!-- Node3 -->
<g id="Node000003" class="node">
<title>Node3</title>
<g id="a_Node000003"><a xlink:href="class_kit_1_1_io_1_1_i_close.html" target="_top" xlink:title="This abstract class defines a close operation that is intended to be used Input and Output streams/fi...">
<polygon fill="white" stroke="#666666" points="81,-152 0,-152 0,-133 81,-133 81,-152"/>
<text text-anchor="middle" x="40.5" y="-140" font-family="Helvetica,sans-Serif" font-size="10.00">Kit::Io::IClose</text>
</a>
</g>
</g>
<!-- Node3&#45;&gt;Node2 -->
<g id="edge2_Node000002_Node000003" class="edge">
<title>Node3&#45;&gt;Node2</title>
<g id="a_edge2_Node000002_Node000003"><a xlink:title=" ">
<path fill="none" stroke="#63b8ff" d="M54.92,-124.93C63.16,-115.47 73.15,-103.98 79.88,-96.25"/>
<polygon fill="#63b8ff" stroke="#63b8ff" points="52.19,-122.74 48.26,-132.58 57.47,-127.34 52.19,-122.74"/>
</a>
</g>
</g>
<!-- Node4 -->
<g id="Node000004" class="node">
<title>Node4</title>
<g id="a_Node000004"><a xlink:href="class_kit_1_1_io_1_1_i_eos.html" target="_top" xlink:title="This abstract class defines a isEos() operation that is intended to be used Input and Output streams.">
<polygon fill="white" stroke="#666666" points="170,-152 99,-152 99,-133 170,-133 170,-152"/>
<text text-anchor="middle" x="134.5" y="-140" font-family="Helvetica,sans-Serif" font-size="10.00">Kit::Io::IEos</text>
</a>
</g>
</g>
<!-- Node4&#45;&gt;Node2 -->
<g id="edge3_Node000002_Node000004" class="edge">
<title>Node4&#45;&gt;Node2</title>
<g id="a_edge3_Node000002_Node000004"><a xlink:title=" ">
<path fill="none" stroke="#63b8ff" d="M120.08,-124.93C111.84,-115.47 101.85,-103.98 95.12,-96.25"/>
<polygon fill="#63b8ff" stroke="#63b8ff" points="117.53,-127.34 126.74,-132.58 122.81,-122.74 117.53,-127.34"/>
</a>
</g>
</g>
</g>
</svg>
