<?xml version="1.0" encoding="UTF-8" standalone="no"?>
<!DOCTYPE svg PUBLIC "-//W3C//DTD SVG 1.1//EN"
 "http://www.w3.org/Graphics/SVG/1.1/DTD/svg11.dtd">
<!-- Generated by graphviz version 2.43.0 (0)
 -->
<!-- Title: Kit::Container::Key Pages: 1 -->
<svg width="1128pt" height="229pt"
 viewBox="0.00 0.00 1128.00 228.50" xmlns="http://www.w3.org/2000/svg" xmlns:xlink="http://www.w3.org/1999/xlink">
<g id="graph0" class="graph" transform="scale(1 1) rotate(0) translate(4 224.5)">
<title>Kit::Container::Key</title>
<!-- Node1 -->
<g id="Node000001" class="node">
<title>Node1</title>
<g id="a_Node000001"><a xlink:title="This abstract class defines the interface that a contained object must support if it has comparable k...">
<polygon fill="#999999" stroke="#666666" points="107,-156 0,-156 0,-137 107,-137 107,-156"/>
<text text-anchor="middle" x="53.5" y="-144" font-family="Helvetica,sans-Serif" font-size="10.00">Kit::Container::Key</text>
</a>
</g>
</g>
<!-- Node2 -->
<g id="Node000002" class="node">
<title>Node2</title>
<g id="a_Node000002"><a xlink:href="class_kit_1_1_container_1_1_key_plain_type.html" target="_top" xlink:title="This template class is used to generate Key classes for most of the C/C++ primitive data types.">
<polygon fill="white" stroke="#666666" points="277.5,-209.5 146.5,-209.5 146.5,-179.5 277.5,-179.5 277.5,-209.5"/>
<text text-anchor="start" x="154.5" y="-197.5" font-family="Helvetica,sans-Serif" font-size="10.00">Kit::Container::KeyPlain</text>
<text text-anchor="middle" x="212" y="-186.5" font-family="Helvetica,sans-Serif" font-size="10.00">Type&lt; DATATYPE &gt;</text>
</a>
</g>
</g>
<!-- Node1&#45;&gt;Node2 -->
<g id="edge1_Node000001_Node000002" class="edge">
<title>Node1&#45;&gt;Node2</title>
<g id="a_edge1_Node000001_Node000002"><a xlink:title=" ">
<path fill="none" stroke="#63b8ff" d="M95.4,-159.04C115.75,-165.29 140.51,-172.88 161.89,-179.44"/>
<polygon fill="#63b8ff" stroke="#63b8ff" points="96.38,-155.68 85.79,-156.1 94.33,-162.38 96.38,-155.68"/>
</a>
</g>
</g>
<!-- Node3 -->
<g id="Node000003" class="node">
<title>Node3</title>
<g id="a_Node000003"><a xlink:href="class_kit_1_1_container_1_1_key_string_buffer.html" target="_top" xlink:title="This class provides a &#39;Key&#39; wrapper for a array of Character of length N, i.e.">
<polygon fill="white" stroke="#666666" points="280,-161.5 144,-161.5 144,-131.5 280,-131.5 280,-161.5"/>
<text text-anchor="start" x="152" y="-149.5" font-family="Helvetica,sans-Serif" font-size="10.00">Kit::Container::KeyString</text>
<text text-anchor="middle" x="212" y="-138.5" font-family="Helvetica,sans-Serif" font-size="10.00">Buffer</text>
</a>
</g>
</g>
<!-- Node1&#45;&gt;Node3 -->
<g id="edge2_Node000001_Node000003" class="edge">
<title>Node1&#45;&gt;Node3</title>
<g id="a_edge2_Node000001_Node000003"><a xlink:title=" ">
<path fill="none" stroke="#63b8ff" d="M117.19,-146.5C125.97,-146.5 135.01,-146.5 143.86,-146.5"/>
<polygon fill="#63b8ff" stroke="#63b8ff" points="117.05,-143 107.05,-146.5 117.05,-150 117.05,-143"/>
</a>
</g>
</g>
<!-- Node5 -->
<g id="Node000005" class="node">
<title>Node5</title>
<g id="a_Node000005"><a xlink:href="class_kit_1_1_text_1_1_i_string.html" target="_top" xlink:title="This abstract class defines the operations that can be before on a NULL terminated string.">
<polygon fill="white" stroke="#666666" points="259,-113 165,-113 165,-94 259,-94 259,-113"/>
<text text-anchor="middle" x="212" y="-101" font-family="Helvetica,sans-Serif" font-size="10.00">Kit::Text::IString</text>
</a>
</g>
</g>
<!-- Node1&#45;&gt;Node5 -->
<g id="edge4_Node000001_Node000005" class="edge">
<title>Node1&#45;&gt;Node5</title>
<g id="a_edge4_Node000001_Node000005"><a xlink:title=" ">
<path fill="none" stroke="#63b8ff" d="M99.03,-134.26C123.58,-127.52 153.59,-119.27 176.36,-113.02"/>
<polygon fill="#63b8ff" stroke="#63b8ff" points="97.95,-130.93 89.23,-136.96 99.8,-137.68 97.95,-130.93"/>
</a>
</g>
</g>
<!-- Node4 -->
<g id="Node000004" class="node">
<title>Node4</title>
<g id="a_Node000004"><a xlink:href="class_kit_1_1_container_1_1_key_literal_string.html" target="_top" xlink:title="This class provides a &#39;Key&#39; wrapper for a C string literal.">
<polygon fill="white" stroke="#666666" points="455,-161.5 317,-161.5 317,-131.5 455,-131.5 455,-161.5"/>
<text text-anchor="start" x="325" y="-149.5" font-family="Helvetica,sans-Serif" font-size="10.00">Kit::Container::KeyLiteral</text>
<text text-anchor="middle" x="386" y="-138.5" font-family="Helvetica,sans-Serif" font-size="10.00">String</text>
</a>
</g>
</g>
<!-- Node3&#45;&gt;Node4 -->
<g id="edge3_Node000003_Node000004" class="edge">
<title>Node3&#45;&gt;Node4</title>
<g id="a_edge3_Node000003_Node000004"><a xlink:title=" ">
<path fill="none" stroke="#63b8ff" d="M290.67,-146.5C299.4,-146.5 308.26,-146.5 316.86,-146.5"/>
<polygon fill="#63b8ff" stroke="#63b8ff" points="290.49,-143 280.49,-146.5 290.49,-150 290.49,-143"/>
</a>
</g>
</g>
<!-- Node6 -->
<g id="Node000006" class="node">
<title>Node6</title>
<g id="a_Node000006"><a xlink:href="class_kit_1_1_text_1_1_string_base.html" target="_top" xlink:title="This partially concrete class implements the portions of the String Api that is independent of the in...">
<polygon fill="white" stroke="#666666" points="443.5,-113 328.5,-113 328.5,-94 443.5,-94 443.5,-113"/>
<text text-anchor="middle" x="386" y="-101" font-family="Helvetica,sans-Serif" font-size="10.00">Kit::Text::StringBase</text>
</a>
</g>
</g>
<!-- Node5&#45;&gt;Node6 -->
<g id="edge5_Node000005_Node000006" class="edge">
<title>Node5&#45;&gt;Node6</title>
<g id="a_edge5_Node000005_Node000006"><a xlink:title=" ">
<path fill="none" stroke="#63b8ff" d="M269.35,-103.5C288.28,-103.5 309.39,-103.5 328.33,-103.5"/>
<polygon fill="#63b8ff" stroke="#63b8ff" points="269.09,-100 259.09,-103.5 269.09,-107 269.09,-100"/>
</a>
</g>
</g>
<!-- Node7 -->
<g id="Node000007" class="node">
<title>Node7</title>
<g id="a_Node000007"><a xlink:href="class_kit_1_1_text_1_1_d_string.html" target="_top" xlink:title="This concrete class implements a simple &quot;dynamic storage&quot; IString Type.">
<polygon fill="white" stroke="#666666" points="601,-132 503,-132 503,-113 601,-113 601,-132"/>
<text text-anchor="middle" x="552" y="-120" font-family="Helvetica,sans-Serif" font-size="10.00">Kit::Text::DString</text>
</a>
</g>
</g>
<!-- Node6&#45;&gt;Node7 -->
<g id="edge6_Node000006_Node000007" class="edge">
<title>Node6&#45;&gt;Node7</title>
<g id="a_edge6_Node000006_Node000007"><a xlink:title=" ">
<path fill="none" stroke="#63b8ff" d="M453.98,-111.26C470.38,-113.16 487.6,-115.16 502.92,-116.93"/>
<polygon fill="#63b8ff" stroke="#63b8ff" points="454.24,-107.77 443.9,-110.09 453.43,-114.72 454.24,-107.77"/>
</a>
</g>
</g>
<!-- Node8 -->
<g id="Node000008" class="node">
<title>Node8</title>
<g id="a_Node000008"><a xlink:href="class_kit_1_1_text_1_1_f_string_base.html" target="_top" xlink:title="This mostly concrete class implements a &quot;fixed storage&quot; String Type.">
<polygon fill="white" stroke="#666666" points="612,-95 492,-95 492,-76 612,-76 612,-95"/>
<text text-anchor="middle" x="552" y="-83" font-family="Helvetica,sans-Serif" font-size="10.00">Kit::Text::FStringBase</text>
</a>
</g>
</g>
<!-- Node6&#45;&gt;Node8 -->
<g id="edge7_Node000006_Node000008" class="edge">
<title>Node6&#45;&gt;Node8</title>
<g id="a_edge7_Node000006_Node000008"><a xlink:title=" ">
<path fill="none" stroke="#63b8ff" d="M453.89,-96.16C466.51,-94.77 479.62,-93.33 491.97,-91.98"/>
<polygon fill="#63b8ff" stroke="#63b8ff" points="453.46,-92.68 443.9,-97.25 454.22,-99.64 453.46,-92.68"/>
</a>
</g>
</g>
<!-- Node9 -->
<g id="Node000009" class="node">
<title>Node9</title>
<g id="a_Node000009"><a xlink:href="class_kit_1_1_text_1_1_f_string.html" target="_top" xlink:title=" ">
<polygon fill="white" stroke="#666666" points="1078.5,-220.5 982.5,-220.5 982.5,-190.5 1078.5,-190.5 1078.5,-220.5"/>
<text text-anchor="start" x="990.5" y="-208.5" font-family="Helvetica,sans-Serif" font-size="10.00">Kit::Text::FString</text>
<text text-anchor="middle" x="1030.5" y="-197.5" font-family="Helvetica,sans-Serif" font-size="10.00">&lt; maxName &gt;</text>
</a>
</g>
</g>
<!-- Node8&#45;&gt;Node9 -->
<g id="edge8_Node000008_Node000009" class="edge">
<title>Node8&#45;&gt;Node9</title>
<g id="a_edge8_Node000008_Node000009"><a xlink:title=" ">
<path fill="none" stroke="#63b8ff" d="M604.18,-99.42C606.93,-100.94 609.56,-102.63 612,-104.5 635.98,-122.86 625.01,-143.15 649,-161.5 702.02,-202.07 726.04,-197.15 792,-207.5 857.38,-217.76 934.13,-214.37 982.3,-210.41"/>
<polygon fill="#63b8ff" stroke="#63b8ff" points="605.62,-96.23 595.09,-95.08 602.61,-102.55 605.62,-96.23"/>
</a>
</g>
</g>
<!-- Node10 -->
<g id="Node000010" class="node">
<title>Node10</title>
<g id="a_Node000010"><a xlink:href="class_kit_1_1_text_1_1_f_string.html" target="_top" xlink:title=" ">
<polygon fill="white" stroke="#666666" points="1120,-159.5 941,-159.5 941,-129.5 1120,-129.5 1120,-159.5"/>
<text text-anchor="start" x="949" y="-147.5" font-family="Helvetica,sans-Serif" font-size="10.00">Kit::Text::FString</text>
<text text-anchor="middle" x="1030.5" y="-136.5" font-family="Helvetica,sans-Serif" font-size="10.00">&lt; configMAX_TASK_NAME_LEN &gt;</text>
</a>
</g>
</g>
<!-- Node8&#45;&gt;Node10 -->
<g id="edge9_Node000008_Node000010" class="edge">
<title>Node8&#45;&gt;Node10</title>
<g id="a_edge9_Node000008_Node000010"><a xlink:title=" ">
<path fill="none" stroke="#63b8ff" d="M622.42,-80.75C697.49,-77.31 820.22,-76.65 923,-99.5 950.82,-105.69 980.55,-118.86 1001.5,-129.36"/>
<polygon fill="#63b8ff" stroke="#63b8ff" points="621.97,-77.26 612.15,-81.25 622.31,-84.26 621.97,-77.26"/>
</a>
</g>
</g>
<!-- Node11 -->
<g id="Node000011" class="node">
<title>Node11</title>
<g id="a_Node000011"><a xlink:href="class_kit_1_1_text_1_1_f_string.html" target="_top" xlink:title=" ">
<polygon fill="white" stroke="#666666" points="1078.5,-84.5 982.5,-84.5 982.5,-54.5 1078.5,-54.5 1078.5,-84.5"/>
<text text-anchor="start" x="990.5" y="-72.5" font-family="Helvetica,sans-Serif" font-size="10.00">Kit::Text::FString</text>
<text text-anchor="middle" x="1030.5" y="-61.5" font-family="Helvetica,sans-Serif" font-size="10.00">&lt; 64 &gt;</text>
</a>
</g>
</g>
<!-- Node8&#45;&gt;Node11 -->
<g id="edge10_Node000008_Node000011" class="edge">
<title>Node8&#45;&gt;Node11</title>
<g id="a_edge10_Node000008_Node000011"><a xlink:title=" ">
<path fill="none" stroke="#63b8ff" d="M607.97,-74.3C615.35,-73.15 622.84,-72.16 630,-71.5 756.9,-59.74 907.45,-63.83 982.32,-67.08"/>
<polygon fill="#63b8ff" stroke="#63b8ff" points="607.3,-70.86 598.01,-75.95 608.45,-77.77 607.3,-70.86"/>
</a>
</g>
</g>
<!-- Node12 -->
<g id="Node000012" class="node">
<title>Node12</title>
<g id="a_Node000012"><a xlink:href="class_kit_1_1_text_1_1_b_string.html" target="_top" xlink:title="This class constructs a IString from client supplied memory.">
<polygon fill="white" stroke="#666666" points="760.5,-19 662.5,-19 662.5,0 760.5,0 760.5,-19"/>
<text text-anchor="middle" x="711.5" y="-7" font-family="Helvetica,sans-Serif" font-size="10.00">Kit::Text::BString</text>
</a>
</g>
</g>
<!-- Node8&#45;&gt;Node12 -->
<g id="edge11_Node000008_Node000012" class="edge">
<title>Node8&#45;&gt;Node12</title>
<g id="a_edge11_Node000008_Node000012"><a xlink:title=" ">
<path fill="none" stroke="#63b8ff" d="M572.86,-69.6C587.83,-58.25 609.28,-43.3 630,-33.5 642.52,-27.58 656.84,-22.74 669.89,-19.01"/>
<polygon fill="#63b8ff" stroke="#63b8ff" points="570.6,-66.92 564.84,-75.81 574.89,-72.45 570.6,-66.92"/>
</a>
</g>
</g>
<!-- Node13 -->
<g id="Node000013" class="node">
<title>Node13</title>
<g id="a_Node000013"><a xlink:href="class_kit_1_1_text_1_1_f_string.html" target="_top" xlink:title="This template class represents a NULL terminated string of a specific length.">
<polygon fill="white" stroke="#666666" points="774,-152 649,-152 649,-133 774,-133 774,-152"/>
<text text-anchor="middle" x="711.5" y="-140" font-family="Helvetica,sans-Serif" font-size="10.00">Kit::Text::FString&lt; S &gt;</text>
</a>
</g>
</g>
<!-- Node8&#45;&gt;Node13 -->
<g id="edge12_Node000008_Node000013" class="edge">
<title>Node8&#45;&gt;Node13</title>
<g id="a_edge12_Node000008_Node000013"><a xlink:title=" ">
<path fill="none" stroke="#63b8ff" d="M593.39,-98.17C599.64,-100.23 606.01,-102.38 612,-104.5 637.75,-113.6 666.89,-124.98 686.76,-132.91"/>
<polygon fill="#63b8ff" stroke="#63b8ff" points="594.32,-94.79 583.73,-95.03 592.16,-101.45 594.32,-94.79"/>
</a>
</g>
</g>
<!-- Node13&#45;&gt;Node9 -->
<g id="edge13_Node000013_Node000009" class="edge">
<title>Node13&#45;&gt;Node9</title>
<g id="a_edge13_Node000013_Node000009"><a xlink:title=" ">
<path fill="none" stroke="orange" stroke-dasharray="5,2" d="M746.53,-155.54C760.46,-160.48 776.84,-165.81 792,-169.5 857.03,-185.34 933.87,-195.47 982.16,-200.82"/>
<polygon fill="orange" stroke="orange" points="747.47,-152.15 736.88,-152.03 745.08,-158.73 747.47,-152.15"/>
</a>
</g>
<text text-anchor="middle" x="857.5" y="-195.5" font-family="Helvetica,sans-Serif" font-size="10.00" fill="grey"> &lt; maxName &gt;</text>
</g>
<!-- Node13&#45;&gt;Node10 -->
<g id="edge14_Node000013_Node000010" class="edge">
<title>Node13&#45;&gt;Node10</title>
<g id="a_edge14_Node000013_Node000010"><a xlink:title=" ">
<path fill="none" stroke="orange" stroke-dasharray="5,2" d="M784.63,-142.96C830.98,-143.25 891.51,-143.63 940.79,-143.94"/>
<polygon fill="orange" stroke="orange" points="784.4,-139.45 774.37,-142.89 784.35,-146.45 784.4,-139.45"/>
</a>
</g>
<text text-anchor="start" x="792" y="-157.5" font-family="Helvetica,sans-Serif" font-size="10.00" fill="grey"> &lt; configMAX_TASK_NAME</text>
<text text-anchor="middle" x="857.5" y="-146.5" font-family="Helvetica,sans-Serif" font-size="10.00" fill="grey">_LEN &gt;</text>
</g>
<!-- Node13&#45;&gt;Node11 -->
<g id="edge15_Node000013_Node000011" class="edge">
<title>Node13&#45;&gt;Node11</title>
<g id="a_edge15_Node000013_Node000011"><a xlink:title=" ">
<path fill="none" stroke="orange" stroke-dasharray="5,2" d="M764.03,-130.63C824.49,-116.71 923.88,-93.82 982.37,-80.35"/>
<polygon fill="orange" stroke="orange" points="762.9,-127.3 753.94,-132.96 764.47,-134.12 762.9,-127.3"/>
</a>
</g>
<text text-anchor="middle" x="857.5" y="-125.5" font-family="Helvetica,sans-Serif" font-size="10.00" fill="grey"> &lt; 64 &gt;</text>
</g>
</g>
</svg>
