<?xml version="1.0" encoding="UTF-8" standalone="no"?>
<!DOCTYPE svg PUBLIC "-//W3C//DTD SVG 1.1//EN"
 "http://www.w3.org/Graphics/SVG/1.1/DTD/svg11.dtd">
<!-- Generated by graphviz version 2.43.0 (0)
 -->
<!-- Title: Kit::Text::FStringBase Pages: 1 -->
<svg width="227pt" height="328pt"
 viewBox="0.00 0.00 227.00 328.00" xmlns="http://www.w3.org/2000/svg" xmlns:xlink="http://www.w3.org/1999/xlink">
<g id="graph0" class="graph" transform="scale(1 1) rotate(0) translate(4 324)">
<title>Kit::Text::FStringBase</title>
<!-- Node1 -->
<g id="Node000001" class="node">
<title>Node1</title>
<g id="a_Node000001"><a xlink:title="This mostly concrete class implements a &quot;fixed storage&quot; String Type.">
<polygon fill="#999999" stroke="#666666" points="180,-152 60,-152 60,-133 180,-133 180,-152"/>
<text text-anchor="middle" x="120" y="-140" font-family="Helvetica,sans-Serif" font-size="10.00">Kit::Text::FStringBase</text>
</a>
</g>
</g>
<!-- Node5 -->
<g id="Node000005" class="node">
<title>Node5</title>
<g id="a_Node000005"><a xlink:href="class_kit_1_1_text_1_1_f_string.html" target="_top" xlink:title=" ">
<polygon fill="white" stroke="#666666" points="96,-30 0,-30 0,0 96,0 96,-30"/>
<text text-anchor="start" x="8" y="-18" font-family="Helvetica,sans-Serif" font-size="10.00">Kit::Text::FString</text>
<text text-anchor="middle" x="48" y="-7" font-family="Helvetica,sans-Serif" font-size="10.00">&lt; maxName &gt;</text>
</a>
</g>
</g>
<!-- Node1&#45;&gt;Node5 -->
<g id="edge4_Node000001_Node000005" class="edge">
<title>Node1&#45;&gt;Node5</title>
<g id="a_edge4_Node000001_Node000005"><a xlink:title=" ">
<path fill="none" stroke="#63b8ff" d="M85.64,-128.66C71.31,-121.41 56.14,-110.77 48,-96 36.61,-75.32 40.34,-46.83 44.14,-30.02"/>
<polygon fill="#63b8ff" stroke="#63b8ff" points="84.3,-131.9 94.84,-132.96 87.26,-125.56 84.3,-131.9"/>
</a>
</g>
</g>
<!-- Node6 -->
<g id="Node000006" class="node">
<title>Node6</title>
<g id="a_Node000006"><a xlink:href="class_kit_1_1_text_1_1_f_string.html" target="_top" xlink:title=" ">
<polygon fill="white" stroke="#666666" points="219,-30 123,-30 123,0 219,0 219,-30"/>
<text text-anchor="start" x="131" y="-18" font-family="Helvetica,sans-Serif" font-size="10.00">Kit::Text::FString</text>
<text text-anchor="middle" x="171" y="-7" font-family="Helvetica,sans-Serif" font-size="10.00">&lt; 64 &gt;</text>
</a>
</g>
</g>
<!-- Node1&#45;&gt;Node6 -->
<g id="edge5_Node000001_Node000006" class="edge">
<title>Node1&#45;&gt;Node6</title>
<g id="a_edge5_Node000001_Node000006"><a xlink:title=" ">
<path fill="none" stroke="#63b8ff" d="M153.9,-128.55C168.03,-121.27 182.99,-110.65 191,-96 202.61,-74.77 190.17,-46.71 180.38,-30.08"/>
<polygon fill="#63b8ff" stroke="#63b8ff" points="152.35,-125.41 144.82,-132.86 155.35,-131.74 152.35,-125.41"/>
</a>
</g>
</g>
<!-- Node7 -->
<g id="Node000007" class="node">
<title>Node7</title>
<g id="a_Node000007"><a xlink:href="class_kit_1_1_text_1_1_f_string.html" target="_top" xlink:title="This template class represents a NULL terminated string of a specific length.">
<polygon fill="white" stroke="#666666" points="182.5,-96 57.5,-96 57.5,-77 182.5,-77 182.5,-96"/>
<text text-anchor="middle" x="120" y="-84" font-family="Helvetica,sans-Serif" font-size="10.00">Kit::Text::FString&lt; S &gt;</text>
</a>
</g>
</g>
<!-- Node1&#45;&gt;Node7 -->
<g id="edge6_Node000001_Node000007" class="edge">
<title>Node1&#45;&gt;Node7</title>
<g id="a_edge6_Node000001_Node000007"><a xlink:title=" ">
<path fill="none" stroke="#63b8ff" d="M120,-122.3C120,-113.41 120,-103.28 120,-96.25"/>
<polygon fill="#63b8ff" stroke="#63b8ff" points="116.5,-122.58 120,-132.58 123.5,-122.58 116.5,-122.58"/>
</a>
</g>
</g>
<!-- Node2 -->
<g id="Node000002" class="node">
<title>Node2</title>
<g id="a_Node000002"><a xlink:href="class_kit_1_1_text_1_1_string_base.html" target="_top" xlink:title="This partially concrete class implements the portions of the String Api that is independent of the in...">
<polygon fill="white" stroke="#666666" points="177.5,-208 62.5,-208 62.5,-189 177.5,-189 177.5,-208"/>
<text text-anchor="middle" x="120" y="-196" font-family="Helvetica,sans-Serif" font-size="10.00">Kit::Text::StringBase</text>
</a>
</g>
</g>
<!-- Node2&#45;&gt;Node1 -->
<g id="edge1_Node000001_Node000002" class="edge">
<title>Node2&#45;&gt;Node1</title>
<g id="a_edge1_Node000001_Node000002"><a xlink:title=" ">
<path fill="none" stroke="#63b8ff" d="M120,-178.3C120,-169.41 120,-159.28 120,-152.25"/>
<polygon fill="#63b8ff" stroke="#63b8ff" points="116.5,-178.58 120,-188.58 123.5,-178.58 116.5,-178.58"/>
</a>
</g>
</g>
<!-- Node3 -->
<g id="Node000003" class="node">
<title>Node3</title>
<g id="a_Node000003"><a xlink:href="class_kit_1_1_text_1_1_i_string.html" target="_top" xlink:title="This abstract class defines the operations that can be before on a NULL terminated string.">
<polygon fill="white" stroke="#666666" points="167,-264 73,-264 73,-245 167,-245 167,-264"/>
<text text-anchor="middle" x="120" y="-252" font-family="Helvetica,sans-Serif" font-size="10.00">Kit::Text::IString</text>
</a>
</g>
</g>
<!-- Node3&#45;&gt;Node2 -->
<g id="edge2_Node000002_Node000003" class="edge">
<title>Node3&#45;&gt;Node2</title>
<g id="a_edge2_Node000002_Node000003"><a xlink:title=" ">
<path fill="none" stroke="#63b8ff" d="M120,-234.3C120,-225.41 120,-215.28 120,-208.25"/>
<polygon fill="#63b8ff" stroke="#63b8ff" points="116.5,-234.58 120,-244.58 123.5,-234.58 116.5,-234.58"/>
</a>
</g>
</g>
<!-- Node4 -->
<g id="Node000004" class="node">
<title>Node4</title>
<g id="a_Node000004"><a xlink:href="class_kit_1_1_container_1_1_key.html" target="_top" xlink:title="This abstract class defines the interface that a contained object must support if it has comparable k...">
<polygon fill="white" stroke="#666666" points="173.5,-320 66.5,-320 66.5,-301 173.5,-301 173.5,-320"/>
<text text-anchor="middle" x="120" y="-308" font-family="Helvetica,sans-Serif" font-size="10.00">Kit::Container::Key</text>
</a>
</g>
</g>
<!-- Node4&#45;&gt;Node3 -->
<g id="edge3_Node000003_Node000004" class="edge">
<title>Node4&#45;&gt;Node3</title>
<g id="a_edge3_Node000003_Node000004"><a xlink:title=" ">
<path fill="none" stroke="#63b8ff" d="M120,-290.3C120,-281.41 120,-271.28 120,-264.25"/>
<polygon fill="#63b8ff" stroke="#63b8ff" points="116.5,-290.58 120,-300.58 123.5,-290.58 116.5,-290.58"/>
</a>
</g>
</g>
<!-- Node7&#45;&gt;Node5 -->
<g id="edge7_Node000007_Node000005" class="edge">
<title>Node7&#45;&gt;Node5</title>
<g id="a_edge7_Node000007_Node000005"><a xlink:title=" ">
<path fill="none" stroke="orange" stroke-dasharray="5,2" d="M77.83,-72.65C71.16,-69.1 64.87,-64.62 60,-59 53.1,-51.03 50.15,-39.39 48.89,-30.23"/>
<polygon fill="orange" stroke="orange" points="76.51,-75.9 87.06,-76.94 79.46,-69.56 76.51,-75.9"/>
</a>
</g>
<text text-anchor="middle" x="98.5" y="-51" font-family="Helvetica,sans-Serif" font-size="10.00" fill="grey"> &lt; maxName &gt;</text>
</g>
<!-- Node7&#45;&gt;Node6 -->
<g id="edge8_Node000007_Node000006" class="edge">
<title>Node7&#45;&gt;Node6</title>
<g id="a_edge8_Node000007_Node000006"><a xlink:title=" ">
<path fill="none" stroke="orange" stroke-dasharray="5,2" d="M132.23,-68.84C140.9,-57.02 152.4,-41.34 160.63,-30.14"/>
<polygon fill="orange" stroke="orange" points="129.35,-66.85 126.25,-76.98 134.99,-70.99 129.35,-66.85"/>
</a>
</g>
<text text-anchor="middle" x="166" y="-51" font-family="Helvetica,sans-Serif" font-size="10.00" fill="grey"> &lt; 64 &gt;</text>
</g>
</g>
</svg>
