<?xml version="1.0" encoding="UTF-8" standalone="no"?>
<!DOCTYPE svg PUBLIC "-//W3C//DTD SVG 1.1//EN"
 "http://www.w3.org/Graphics/SVG/1.1/DTD/svg11.dtd">
<!-- Generated by graphviz version 2.43.0 (0)
 -->
<!-- Title: Kit::System::IRunnable Pages: 1 -->
<svg width="732pt" height="162pt"
 viewBox="0.00 0.00 732.00 161.50" xmlns="http://www.w3.org/2000/svg" xmlns:xlink="http://www.w3.org/1999/xlink">
<g id="graph0" class="graph" transform="scale(1 1) rotate(0) translate(4 157.5)">
<title>Kit::System::IRunnable</title>
<!-- Node1 -->
<g id="Node000001" class="node">
<title>Node1</title>
<g id="a_Node000001"><a xlink:title="This mostly an abstract class defines the interface for an object that is &quot;executed&quot; when a Thread ob...">
<polygon fill="#999999" stroke="#666666" points="128,-88.5 0,-88.5 0,-69.5 128,-69.5 128,-88.5"/>
<text text-anchor="middle" x="64" y="-76.5" font-family="Helvetica,sans-Serif" font-size="10.00">Kit::System::IRunnable</text>
</a>
</g>
</g>
<!-- Node2 -->
<g id="Node000002" class="node">
<title>Node2</title>
<g id="a_Node000002"><a xlink:href="class_async_open_close.html" target="_top" xlink:title="This class is used to &#39;convert&#39; the synchronous ITC semantics of open/close requests to asynchronous.">
<polygon fill="white" stroke="#666666" points="299.5,-153.5 201.5,-153.5 201.5,-134.5 299.5,-134.5 299.5,-153.5"/>
<text text-anchor="middle" x="250.5" y="-141.5" font-family="Helvetica,sans-Serif" font-size="10.00">AsyncOpenClose</text>
</a>
</g>
</g>
<!-- Node1&#45;&gt;Node2 -->
<g id="edge1_Node000001_Node000002" class="edge">
<title>Node1&#45;&gt;Node2</title>
<g id="a_edge1_Node000001_Node000002"><a xlink:title=" ">
<path fill="none" stroke="#63b8ff" d="M91.69,-93.33C111.25,-103.35 138.7,-116.42 164,-125 175.81,-129 188.82,-132.39 201.06,-135.15"/>
<polygon fill="#63b8ff" stroke="#63b8ff" points="93.25,-90.19 82.76,-88.69 90.02,-96.41 93.25,-90.19"/>
</a>
</g>
</g>
<!-- Node3 -->
<g id="Node000003" class="node">
<title>Node3</title>
<g id="a_Node000003"><a xlink:href="class_kit_1_1_io_1_1_socket_1_1_listener_runnable.html" target="_top" xlink:title="This concrete class provides an implementation of a simple listener using IPv4 addressing.">
<polygon fill="white" stroke="#666666" points="314.5,-116 186.5,-116 186.5,-86 314.5,-86 314.5,-116"/>
<text text-anchor="start" x="194.5" y="-104" font-family="Helvetica,sans-Serif" font-size="10.00">Kit::Io::Socket::Listener</text>
<text text-anchor="middle" x="250.5" y="-93" font-family="Helvetica,sans-Serif" font-size="10.00">Runnable</text>
</a>
</g>
</g>
<!-- Node1&#45;&gt;Node3 -->
<g id="edge2_Node000001_Node000003" class="edge">
<title>Node1&#45;&gt;Node3</title>
<g id="a_edge2_Node000001_Node000003"><a xlink:title=" ">
<path fill="none" stroke="#63b8ff" d="M138.51,-87.77C154.34,-89.65 170.95,-91.63 186.35,-93.47"/>
<polygon fill="#63b8ff" stroke="#63b8ff" points="138.58,-84.25 128.24,-86.54 137.75,-91.2 138.58,-84.25"/>
</a>
</g>
</g>
<!-- Node4 -->
<g id="Node000004" class="node">
<title>Node4</title>
<g id="a_Node000004"><a xlink:href="class_kit_1_1_system_1_1_event_loop.html" target="_top" xlink:title="This concrete class is a IRunnable object that provides a event driven execution model for a thread.">
<polygon fill="white" stroke="#666666" points="315.5,-67.5 185.5,-67.5 185.5,-48.5 315.5,-48.5 315.5,-67.5"/>
<text text-anchor="middle" x="250.5" y="-55.5" font-family="Helvetica,sans-Serif" font-size="10.00">Kit::System::EventLoop</text>
</a>
</g>
</g>
<!-- Node1&#45;&gt;Node4 -->
<g id="edge3_Node000001_Node000004" class="edge">
<title>Node1&#45;&gt;Node4</title>
<g id="a_edge3_Node000001_Node000004"><a xlink:title=" ">
<path fill="none" stroke="#63b8ff" d="M138.34,-70.65C153.9,-68.88 170.22,-67.02 185.41,-65.3"/>
<polygon fill="#63b8ff" stroke="#63b8ff" points="137.78,-67.19 128.24,-71.8 138.57,-74.15 137.78,-67.19"/>
</a>
</g>
</g>
<!-- Node9 -->
<g id="Node000009" class="node">
<title>Node9</title>
<g id="a_Node000009"><a xlink:href="class_kit_1_1_system_1_1_free_r_t_o_s_1_1_make_current_thread_a_kit_thread.html" target="_top" xlink:title="This is a helper class that can be used to make the current thread a KIT thread.">
<polygon fill="white" stroke="#666666" points="337,-30 164,-30 164,0 337,0 337,-30"/>
<text text-anchor="start" x="172" y="-18" font-family="Helvetica,sans-Serif" font-size="10.00">Kit::System::FreeRTOS</text>
<text text-anchor="middle" x="250.5" y="-7" font-family="Helvetica,sans-Serif" font-size="10.00">::MakeCurrentThreadAKitThread</text>
</a>
</g>
</g>
<!-- Node1&#45;&gt;Node9 -->
<g id="edge8_Node000001_Node000009" class="edge">
<title>Node1&#45;&gt;Node9</title>
<g id="a_edge8_Node000001_Node000009"><a xlink:title=" ">
<path fill="none" stroke="#63b8ff" d="M95.99,-65.45C115.34,-57.25 140.89,-46.89 164,-39 173.19,-35.86 183.04,-32.82 192.66,-30.01"/>
<polygon fill="#63b8ff" stroke="#63b8ff" points="94.58,-62.25 86.76,-69.4 97.33,-68.69 94.58,-62.25"/>
</a>
</g>
</g>
<!-- Node5 -->
<g id="Node000005" class="node">
<title>Node5</title>
<g id="a_Node000005"><a xlink:href="class_kit_1_1_event_queue_1_1_server.html" target="_top" xlink:title="This concrete class extends the Kit::System::EventLoop interface to include processing events from Ev...">
<polygon fill="white" stroke="#666666" points="515.5,-89.5 382.5,-89.5 382.5,-70.5 515.5,-70.5 515.5,-89.5"/>
<text text-anchor="middle" x="449" y="-77.5" font-family="Helvetica,sans-Serif" font-size="10.00">Kit::EventQueue::Server</text>
</a>
</g>
</g>
<!-- Node4&#45;&gt;Node5 -->
<g id="edge4_Node000004_Node000005" class="edge">
<title>Node4&#45;&gt;Node5</title>
<g id="a_edge4_Node000004_Node000005"><a xlink:title=" ">
<path fill="none" stroke="#63b8ff" d="M325.76,-66.31C344.36,-68.4 364.18,-70.62 382.33,-72.65"/>
<polygon fill="#63b8ff" stroke="#63b8ff" points="325.9,-62.81 315.57,-65.17 325.12,-69.76 325.9,-62.81"/>
</a>
</g>
</g>
<!-- Node8 -->
<g id="Node000008" class="node">
<title>Node8</title>
<g id="a_Node000008"><a xlink:href="class_kit_1_1_system_1_1_event_loop_with_p_scheduling.html" target="_top" xlink:title="This class extends the EventLoop class to add periodic scheduling to an event based &#39;thread&#39;.">
<polygon fill="white" stroke="#666666" points="525,-52 373,-52 373,-22 525,-22 525,-52"/>
<text text-anchor="start" x="381" y="-40" font-family="Helvetica,sans-Serif" font-size="10.00">Kit::System::EventLoopWith</text>
<text text-anchor="middle" x="449" y="-29" font-family="Helvetica,sans-Serif" font-size="10.00">PScheduling</text>
</a>
</g>
</g>
<!-- Node4&#45;&gt;Node8 -->
<g id="edge7_Node000004_Node000008" class="edge">
<title>Node4&#45;&gt;Node8</title>
<g id="a_edge7_Node000004_Node000008"><a xlink:title=" ">
<path fill="none" stroke="#63b8ff" d="M325.57,-50.08C340.99,-48.44 357.27,-46.7 372.74,-45.04"/>
<polygon fill="#63b8ff" stroke="#63b8ff" points="325.14,-46.61 315.57,-51.15 325.88,-53.57 325.14,-46.61"/>
</a>
</g>
</g>
<!-- Node6 -->
<g id="Node000006" class="node">
<title>Node6</title>
<g id="a_Node000006"><a xlink:href="class_kit_1_1_event_queue_1_1_with_periodic_scheduling.html" target="_top" xlink:title="This class extends the Kit::EventQueue::Server class to add periodic scheduling to an event based &#39;th...">
<polygon fill="white" stroke="#666666" points="724,-117 561,-117 561,-87 724,-87 724,-117"/>
<text text-anchor="start" x="569" y="-105" font-family="Helvetica,sans-Serif" font-size="10.00">Kit::EventQueue::WithPeriodic</text>
<text text-anchor="middle" x="642.5" y="-94" font-family="Helvetica,sans-Serif" font-size="10.00">Scheduling</text>
</a>
</g>
</g>
<!-- Node5&#45;&gt;Node6 -->
<g id="edge5_Node000005_Node000006" class="edge">
<title>Node5&#45;&gt;Node6</title>
<g id="a_edge5_Node000005_Node000006"><a xlink:title=" ">
<path fill="none" stroke="#63b8ff" d="M525.64,-88.69C537.16,-90.01 549.08,-91.38 560.71,-92.72"/>
<polygon fill="#63b8ff" stroke="#63b8ff" points="525.97,-85.2 515.64,-87.54 525.17,-92.16 525.97,-85.2"/>
</a>
</g>
</g>
<!-- Node7 -->
<g id="Node000007" class="node">
<title>Node7</title>
<g id="a_Node000007"><a xlink:href="class_test_event_queue_server.html" target="_top" xlink:title="This class is a EventQueue Server that signals the provided semaphore when it begins execution.">
<polygon fill="white" stroke="#666666" points="706,-68.5 579,-68.5 579,-49.5 706,-49.5 706,-68.5"/>
<text text-anchor="middle" x="642.5" y="-56.5" font-family="Helvetica,sans-Serif" font-size="10.00">TestEventQueueServer</text>
</a>
</g>
</g>
<!-- Node5&#45;&gt;Node7 -->
<g id="edge6_Node000005_Node000007" class="edge">
<title>Node5&#45;&gt;Node7</title>
<g id="a_edge6_Node000005_Node000007"><a xlink:title=" ">
<path fill="none" stroke="#63b8ff" d="M525.85,-71.68C543.42,-69.76 561.93,-67.73 578.86,-65.87"/>
<polygon fill="#63b8ff" stroke="#63b8ff" points="525.19,-68.23 515.64,-72.8 525.96,-75.19 525.19,-68.23"/>
</a>
</g>
</g>
</g>
</svg>
