<?xml version="1.0" encoding="UTF-8" standalone="no"?>
<!DOCTYPE svg PUBLIC "-//W3C//DTD SVG 1.1//EN"
 "http://www.w3.org/Graphics/SVG/1.1/DTD/svg11.dtd">
<!-- Generated by graphviz version 2.43.0 (0)
 -->
<!-- Title: Kit::Dm::Observer&lt; MP &gt; Pages: 1 -->
<svg width="1565pt" height="216pt"
 viewBox="0.00 0.00 1565.00 216.00" xmlns="http://www.w3.org/2000/svg" xmlns:xlink="http://www.w3.org/1999/xlink">
<g id="graph0" class="graph" transform="scale(1 1) rotate(0) translate(4 212)">
<title>Kit::Dm::Observer&lt; MP &gt;</title>
<!-- Node1 -->
<g id="Node000001" class="node">
<title>Node1</title>
<g id="a_Node000001"><a xlink:title="This template class defines a type safe Observer.">
<polygon fill="#999999" stroke="#666666" points="937,-115.5 796,-115.5 796,-96.5 937,-96.5 937,-115.5"/>
<text text-anchor="middle" x="866.5" y="-103.5" font-family="Helvetica,sans-Serif" font-size="10.00">Kit::Dm::Observer&lt; MP &gt;</text>
</a>
</g>
</g>
<!-- Node7 -->
<g id="Node000007" class="node">
<title>Node7</title>
<g id="a_Node000007"><a xlink:href="class_kit_1_1_dm_1_1_observer_callback.html" target="_top" xlink:title=" ">
<polygon fill="white" stroke="#666666" points="1552,-208 1406,-208 1406,-178 1552,-178 1552,-208"/>
<text text-anchor="start" x="1414" y="-196" font-family="Helvetica,sans-Serif" font-size="10.00">Kit::Dm::ObserverCallback</text>
<text text-anchor="middle" x="1479" y="-185" font-family="Helvetica,sans-Serif" font-size="10.00">&lt; Kit::Dm::Mp::Uint32 &gt;</text>
</a>
</g>
</g>
<!-- Node1&#45;&gt;Node7 -->
<g id="edge6_Node000001_Node000007" class="edge">
<title>Node1&#45;&gt;Node7</title>
<g id="a_edge6_Node000001_Node000007"><a xlink:title=" ">
<path fill="none" stroke="#63b8ff" d="M896.52,-119.91C913.31,-127.53 935.01,-136.7 955,-143 1086.42,-184.46 1123.44,-184.74 1261,-193 1309.14,-195.89 1363.39,-195.89 1405.6,-195.17"/>
<polygon fill="#63b8ff" stroke="#63b8ff" points="897.8,-116.64 887.25,-115.62 894.86,-122.99 897.8,-116.64"/>
</a>
</g>
</g>
<!-- Node8 -->
<g id="Node000008" class="node">
<title>Node8</title>
<g id="a_Node000008"><a xlink:href="class_kit_1_1_dm_1_1_observer_callback.html" target="_top" xlink:title=" ">
<polygon fill="white" stroke="#666666" points="1557,-145 1401,-145 1401,-115 1557,-115 1557,-145"/>
<text text-anchor="start" x="1409" y="-133" font-family="Helvetica,sans-Serif" font-size="10.00">Kit::Dm::ObserverCallback</text>
<text text-anchor="middle" x="1479" y="-122" font-family="Helvetica,sans-Serif" font-size="10.00">&lt; Dm::Transaction::MpFoo &gt;</text>
</a>
</g>
</g>
<!-- Node1&#45;&gt;Node8 -->
<g id="edge7_Node000001_Node000008" class="edge">
<title>Node1&#45;&gt;Node8</title>
<g id="a_edge7_Node000001_Node000008"><a xlink:title=" ">
<path fill="none" stroke="#63b8ff" d="M947.27,-109.14C1065.07,-113.77 1284.13,-122.38 1400.57,-126.96"/>
<polygon fill="#63b8ff" stroke="#63b8ff" points="947.36,-105.64 937.23,-108.74 947.09,-112.63 947.36,-105.64"/>
</a>
</g>
</g>
<!-- Node9 -->
<g id="Node000009" class="node">
<title>Node9</title>
<g id="a_Node000009"><a xlink:href="class_kit_1_1_dm_1_1_observer_callback.html" target="_top" xlink:title="This template class implements a Observer that uses a callback function (or similar callable) for cha...">
<polygon fill="white" stroke="#666666" points="1242,-164 1096,-164 1096,-134 1242,-134 1242,-164"/>
<text text-anchor="start" x="1104" y="-152" font-family="Helvetica,sans-Serif" font-size="10.00">Kit::Dm::ObserverCallback</text>
<text text-anchor="middle" x="1169" y="-141" font-family="Helvetica,sans-Serif" font-size="10.00">&lt; MP &gt;</text>
</a>
</g>
</g>
<!-- Node1&#45;&gt;Node9 -->
<g id="edge8_Node000001_Node000009" class="edge">
<title>Node1&#45;&gt;Node9</title>
<g id="a_edge8_Node000001_Node000009"><a xlink:title=" ">
<path fill="none" stroke="#63b8ff" d="M935.93,-117.11C942.37,-118.1 948.81,-119.08 955,-120 1001.89,-126.94 1054.67,-134.13 1095.97,-139.62"/>
<polygon fill="#63b8ff" stroke="#63b8ff" points="936.25,-113.61 925.83,-115.53 935.17,-120.53 936.25,-113.61"/>
</a>
</g>
</g>
<!-- Node10 -->
<g id="Node000010" class="node">
<title>Node10</title>
<g id="a_Node000010"><a xlink:href="class_kit_1_1_dm_1_1_observer.html" target="_top" xlink:title=" ">
<polygon fill="white" stroke="#666666" points="1232.5,-78 1105.5,-78 1105.5,-48 1232.5,-48 1232.5,-78"/>
<text text-anchor="start" x="1113.5" y="-66" font-family="Helvetica,sans-Serif" font-size="10.00">Kit::Dm::Observer&lt;</text>
<text text-anchor="middle" x="1169" y="-55" font-family="Helvetica,sans-Serif" font-size="10.00"> Kit::Dm::Mp::Uint32 &gt;</text>
</a>
</g>
</g>
<!-- Node1&#45;&gt;Node10 -->
<g id="edge11_Node000001_Node000010" class="edge">
<title>Node1&#45;&gt;Node10</title>
<g id="a_edge11_Node000001_Node000010"><a xlink:title=" ">
<path fill="none" stroke="orange" stroke-dasharray="5,2" d="M905.18,-93.5C920.48,-88.88 938.43,-84.04 955,-81 1005.01,-71.83 1062.49,-67.32 1105.13,-65.11"/>
<polygon fill="orange" stroke="orange" points="904.06,-90.18 895.54,-96.48 906.13,-96.87 904.06,-90.18"/>
</a>
</g>
<text text-anchor="middle" x="1016" y="-84" font-family="Helvetica,sans-Serif" font-size="10.00" fill="grey"> &lt; Kit::Dm::Mp::Uint32 &gt;</text>
</g>
<!-- Node11 -->
<g id="Node000011" class="node">
<title>Node11</title>
<g id="a_Node000011"><a xlink:href="class_kit_1_1_dm_1_1_observer.html" target="_top" xlink:title=" ">
<polygon fill="white" stroke="#666666" points="1243,-30 1095,-30 1095,0 1243,0 1243,-30"/>
<text text-anchor="start" x="1103" y="-18" font-family="Helvetica,sans-Serif" font-size="10.00">Kit::Dm::Observer&lt;</text>
<text text-anchor="middle" x="1169" y="-7" font-family="Helvetica,sans-Serif" font-size="10.00"> Dm::Transaction::MpFoo &gt;</text>
</a>
</g>
</g>
<!-- Node1&#45;&gt;Node11 -->
<g id="edge12_Node000001_Node000011" class="edge">
<title>Node1&#45;&gt;Node11</title>
<g id="a_edge12_Node000001_Node000011"><a xlink:title=" ">
<path fill="none" stroke="orange" stroke-dasharray="5,2" d="M884.17,-89.38C900.66,-74.05 927.36,-52.04 955,-41 999.28,-23.3 1052.53,-16.8 1094.71,-14.73"/>
<polygon fill="orange" stroke="orange" points="881.75,-86.85 876.94,-96.29 886.59,-91.91 881.75,-86.85"/>
</a>
</g>
<text text-anchor="start" x="966" y="-55" font-family="Helvetica,sans-Serif" font-size="10.00" fill="grey"> &lt; Dm::Transaction::</text>
<text text-anchor="middle" x="1016" y="-44" font-family="Helvetica,sans-Serif" font-size="10.00" fill="grey">MpFoo &gt;</text>
</g>
<!-- Node2 -->
<g id="Node000002" class="node">
<title>Node2</title>
<g id="a_Node000002"><a xlink:href="class_kit_1_1_dm_1_1_observer_base.html" target="_top" xlink:title="This mostly concrete class defines the Observer interface &#45; for change notifications &#45; to a Model Poi...">
<polygon fill="white" stroke="#666666" points="759,-115.5 631,-115.5 631,-96.5 759,-96.5 759,-115.5"/>
<text text-anchor="middle" x="695" y="-103.5" font-family="Helvetica,sans-Serif" font-size="10.00">Kit::Dm::ObserverBase</text>
</a>
</g>
</g>
<!-- Node2&#45;&gt;Node1 -->
<g id="edge1_Node000001_Node000002" class="edge">
<title>Node2&#45;&gt;Node1</title>
<g id="a_edge1_Node000001_Node000002"><a xlink:title=" ">
<path fill="none" stroke="#63b8ff" d="M769.32,-106C778.11,-106 787.05,-106 795.78,-106"/>
<polygon fill="#63b8ff" stroke="#63b8ff" points="769.12,-102.5 759.12,-106 769.12,-109.5 769.12,-102.5"/>
</a>
</g>
</g>
<!-- Node3 -->
<g id="Node000003" class="node">
<title>Node3</title>
<g id="a_Node000003"><a xlink:href="class_kit_1_1_dm_1_1_i_observer.html" target="_top" xlink:title="This abstract class defines the Observer interface &#45; for change notifications &#45; to a Model Points dat...">
<polygon fill="white" stroke="#666666" points="594,-115.5 487,-115.5 487,-96.5 594,-96.5 594,-115.5"/>
<text text-anchor="middle" x="540.5" y="-103.5" font-family="Helvetica,sans-Serif" font-size="10.00">Kit::Dm::IObserver</text>
</a>
</g>
</g>
<!-- Node3&#45;&gt;Node2 -->
<g id="edge2_Node000002_Node000003" class="edge">
<title>Node3&#45;&gt;Node2</title>
<g id="a_edge2_Node000002_Node000003"><a xlink:title=" ">
<path fill="none" stroke="#63b8ff" d="M604.52,-106C613.25,-106 622.22,-106 630.95,-106"/>
<polygon fill="#63b8ff" stroke="#63b8ff" points="604.41,-102.5 594.41,-106 604.41,-109.5 604.41,-102.5"/>
</a>
</g>
</g>
<!-- Node4 -->
<g id="Node000004" class="node">
<title>Node4</title>
<g id="a_Node000004"><a xlink:href="class_kit_1_1_container_1_1_extended_list_item.html" target="_top" xlink:title="This class is used by the Container classes to implement a various types of DOUBLY linked containers.">
<polygon fill="white" stroke="#666666" points="450,-121 315,-121 315,-91 450,-91 450,-121"/>
<text text-anchor="start" x="323" y="-109" font-family="Helvetica,sans-Serif" font-size="10.00">Kit::Container::Extended</text>
<text text-anchor="middle" x="382.5" y="-98" font-family="Helvetica,sans-Serif" font-size="10.00">ListItem</text>
</a>
</g>
</g>
<!-- Node4&#45;&gt;Node3 -->
<g id="edge3_Node000003_Node000004" class="edge">
<title>Node4&#45;&gt;Node3</title>
<g id="a_edge3_Node000003_Node000004"><a xlink:title=" ">
<path fill="none" stroke="#63b8ff" d="M460.23,-106C469.21,-106 478.23,-106 486.78,-106"/>
<polygon fill="#63b8ff" stroke="#63b8ff" points="460.11,-102.5 450.11,-106 460.11,-109.5 460.11,-102.5"/>
</a>
</g>
</g>
<!-- Node5 -->
<g id="Node000005" class="node">
<title>Node5</title>
<g id="a_Node000005"><a xlink:href="class_kit_1_1_container_1_1_list_item.html" target="_top" xlink:title="This class is used by the Container classes to implement a various types of linked lists containers.">
<polygon fill="white" stroke="#666666" points="278,-115.5 149,-115.5 149,-96.5 278,-96.5 278,-115.5"/>
<text text-anchor="middle" x="213.5" y="-103.5" font-family="Helvetica,sans-Serif" font-size="10.00">Kit::Container::ListItem</text>
</a>
</g>
</g>
<!-- Node5&#45;&gt;Node4 -->
<g id="edge4_Node000004_Node000005" class="edge">
<title>Node5&#45;&gt;Node4</title>
<g id="a_edge4_Node000004_Node000005"><a xlink:title=" ">
<path fill="none" stroke="#63b8ff" d="M288.34,-106C297.12,-106 306.05,-106 314.73,-106"/>
<polygon fill="#63b8ff" stroke="#63b8ff" points="288.11,-102.5 278.11,-106 288.11,-109.5 288.11,-102.5"/>
</a>
</g>
</g>
<!-- Node6 -->
<g id="Node000006" class="node">
<title>Node6</title>
<g id="a_Node000006"><a xlink:href="class_kit_1_1_container_1_1_item.html" target="_top" xlink:title="This class is used by the Intrusive Container classes to enforce the semantic and item/element can be...">
<polygon fill="white" stroke="#666666" points="112,-115.5 0,-115.5 0,-96.5 112,-96.5 112,-115.5"/>
<text text-anchor="middle" x="56" y="-103.5" font-family="Helvetica,sans-Serif" font-size="10.00">Kit::Container::Item</text>
</a>
</g>
</g>
<!-- Node6&#45;&gt;Node5 -->
<g id="edge5_Node000005_Node000006" class="edge">
<title>Node6&#45;&gt;Node5</title>
<g id="a_edge5_Node000005_Node000006"><a xlink:title=" ">
<path fill="none" stroke="#63b8ff" d="M122.43,-106C131.2,-106 140.19,-106 148.93,-106"/>
<polygon fill="#63b8ff" stroke="#63b8ff" points="122.26,-102.5 112.26,-106 122.26,-109.5 122.26,-102.5"/>
</a>
</g>
</g>
<!-- Node9&#45;&gt;Node7 -->
<g id="edge9_Node000009_Node000007" class="edge">
<title>Node9&#45;&gt;Node7</title>
<g id="a_edge9_Node000009_Node000007"><a xlink:title=" ">
<path fill="none" stroke="orange" stroke-dasharray="5,2" d="M1252.24,-160.75C1300.13,-167.59 1359.95,-176.14 1405.97,-182.71"/>
<polygon fill="orange" stroke="orange" points="1252.61,-157.27 1242.21,-159.32 1251.62,-164.2 1252.61,-157.27"/>
</a>
</g>
<text text-anchor="middle" x="1322" y="-181" font-family="Helvetica,sans-Serif" font-size="10.00" fill="grey"> &lt; Kit::Dm::Mp::Uint32 &gt;</text>
</g>
<!-- Node9&#45;&gt;Node8 -->
<g id="edge10_Node000009_Node000008" class="edge">
<title>Node9&#45;&gt;Node8</title>
<g id="a_edge10_Node000009_Node000008"><a xlink:title=" ">
<path fill="none" stroke="orange" stroke-dasharray="5,2" d="M1252.7,-140.63C1255.5,-140.41 1258.27,-140.2 1261,-140 1307.36,-136.64 1359.38,-134.2 1400.86,-132.57"/>
<polygon fill="orange" stroke="orange" points="1252.16,-137.16 1242.49,-141.48 1252.75,-144.14 1252.16,-137.16"/>
</a>
</g>
<text text-anchor="start" x="1272" y="-154" font-family="Helvetica,sans-Serif" font-size="10.00" fill="grey"> &lt; Dm::Transaction::</text>
<text text-anchor="middle" x="1322" y="-143" font-family="Helvetica,sans-Serif" font-size="10.00" fill="grey">MpFoo &gt;</text>
</g>
</g>
</svg>
