<?xml version="1.0" encoding="UTF-8" standalone="no"?>
<!DOCTYPE svg PUBLIC "-//W3C//DTD SVG 1.1//EN"
 "http://www.w3.org/Graphics/SVG/1.1/DTD/svg11.dtd">
<!-- Generated by graphviz version 2.43.0 (0)
 -->
<!-- Title: Kit::Container::Item Pages: 1 -->
<svg width="1008pt" height="1016pt"
 viewBox="0.00 0.00 1008.00 1015.50" xmlns="http://www.w3.org/2000/svg" xmlns:xlink="http://www.w3.org/1999/xlink">
<g id="graph0" class="graph" transform="scale(1 1) rotate(0) translate(4 1011.5)">
<title>Kit::Container::Item</title>
<!-- Node1 -->
<g id="Node000001" class="node">
<title>Node1</title>
<g id="a_Node000001"><a xlink:title="This class is used by the Intrusive Container classes to enforce the semantic and item/element can be...">
<polygon fill="#999999" stroke="#666666" points="112,-386.5 0,-386.5 0,-367.5 112,-367.5 112,-386.5"/>
<text text-anchor="middle" x="56" y="-374.5" font-family="Helvetica,sans-Serif" font-size="10.00">Kit::Container::Item</text>
</a>
</g>
</g>
<!-- Node2 -->
<g id="Node000002" class="node">
<title>Node2</title>
<g id="a_Node000002"><a xlink:href="class_kit_1_1_container_1_1_list_item.html" target="_top" xlink:title="This class is used by the Container classes to implement a various types of linked lists containers.">
<polygon fill="white" stroke="#666666" points="277,-386.5 148,-386.5 148,-367.5 277,-367.5 277,-386.5"/>
<text text-anchor="middle" x="212.5" y="-374.5" font-family="Helvetica,sans-Serif" font-size="10.00">Kit::Container::ListItem</text>
</a>
</g>
</g>
<!-- Node1&#45;&gt;Node2 -->
<g id="edge1_Node000001_Node000002" class="edge">
<title>Node1&#45;&gt;Node2</title>
<g id="a_edge1_Node000001_Node000002"><a xlink:title=" ">
<path fill="none" stroke="#63b8ff" d="M122.48,-377C130.89,-377 139.49,-377 147.87,-377"/>
<polygon fill="#63b8ff" stroke="#63b8ff" points="122.34,-373.5 112.34,-377 122.34,-380.5 122.34,-373.5"/>
</a>
</g>
</g>
<!-- Node3 -->
<g id="Node000003" class="node">
<title>Node3</title>
<g id="a_Node000003"><a xlink:href="class_kit_1_1_container_1_1_extended_list_item.html" target="_top" xlink:title="This class is used by the Container classes to implement a various types of DOUBLY linked containers.">
<polygon fill="white" stroke="#666666" points="452,-770 317,-770 317,-740 452,-740 452,-770"/>
<text text-anchor="start" x="325" y="-758" font-family="Helvetica,sans-Serif" font-size="10.00">Kit::Container::Extended</text>
<text text-anchor="middle" x="384.5" y="-747" font-family="Helvetica,sans-Serif" font-size="10.00">ListItem</text>
</a>
</g>
</g>
<!-- Node2&#45;&gt;Node3 -->
<g id="edge2_Node000002_Node000003" class="edge">
<title>Node2&#45;&gt;Node3</title>
<g id="a_edge2_Node000002_Node000003"><a xlink:title=" ">
<path fill="none" stroke="#63b8ff" d="M222.02,-395.95C251.67,-461.88 349.99,-680.48 376.73,-739.95"/>
<polygon fill="#63b8ff" stroke="#63b8ff" points="225.17,-394.41 217.87,-386.72 218.78,-397.28 225.17,-394.41"/>
</a>
</g>
</g>
<!-- Node128 -->
<g id="Node000128" class="node">
<title>Node128</title>
<g id="a_Node000128"><a xlink:href="class_kit_1_1_memory_1_1_i_allocator.html" target="_top" xlink:title="This abstract class defines the interface for a Memory Allocator.">
<polygon fill="white" stroke="#666666" points="448.5,-537.5 320.5,-537.5 320.5,-518.5 448.5,-518.5 448.5,-537.5"/>
<text text-anchor="middle" x="384.5" y="-525.5" font-family="Helvetica,sans-Serif" font-size="10.00">Kit::Memory::IAllocator</text>
</a>
</g>
</g>
<!-- Node2&#45;&gt;Node128 -->
<g id="edge27_Node000002_Node000128" class="edge">
<title>Node2&#45;&gt;Node128</title>
<g id="a_edge27_Node000002_Node000128"><a xlink:title=" ">
<path fill="none" stroke="#63b8ff" d="M232.09,-393.52C267.58,-425.04 343.97,-492.89 372.48,-518.21"/>
<polygon fill="#63b8ff" stroke="#63b8ff" points="234.19,-390.7 224.39,-386.68 229.55,-395.93 234.19,-390.7"/>
</a>
</g>
</g>
<!-- Node134 -->
<g id="Node000134" class="node">
<title>Node134</title>
<g id="a_Node000134"><a xlink:href="class_kit_1_1_system_1_1_i_event_flag.html" target="_top" xlink:title="This abstract class defines the call&#45;back interface when an Event Flag has signaled.">
<polygon fill="white" stroke="#666666" points="450,-448.5 319,-448.5 319,-429.5 450,-429.5 450,-448.5"/>
<text text-anchor="middle" x="384.5" y="-436.5" font-family="Helvetica,sans-Serif" font-size="10.00">Kit::System::IEventFlag</text>
</a>
</g>
</g>
<!-- Node2&#45;&gt;Node134 -->
<g id="edge33_Node000002_Node000134" class="edge">
<title>Node2&#45;&gt;Node134</title>
<g id="a_edge33_Node000002_Node000134"><a xlink:title=" ">
<path fill="none" stroke="#63b8ff" d="M244.29,-390.63C263.79,-399.03 289.65,-409.73 313,-418 324.56,-422.09 337.36,-426.07 348.85,-429.44"/>
<polygon fill="#63b8ff" stroke="#63b8ff" points="245.56,-387.37 234.99,-386.6 242.77,-393.79 245.56,-387.37"/>
</a>
</g>
</g>
<!-- Node136 -->
<g id="Node000136" class="node">
<title>Node136</title>
<g id="a_Node000136"><a xlink:href="class_kit_1_1_system_1_1_i_startup_hook.html" target="_top" xlink:title="This class defines a start&#45;up handler/hook that allows a KIT Library sub&#45;system to register to be cal...">
<polygon fill="white" stroke="#666666" points="456,-408.5 313,-408.5 313,-389.5 456,-389.5 456,-408.5"/>
<text text-anchor="middle" x="384.5" y="-396.5" font-family="Helvetica,sans-Serif" font-size="10.00">Kit::System::IStartupHook</text>
</a>
</g>
</g>
<!-- Node2&#45;&gt;Node136 -->
<g id="edge35_Node000002_Node000136" class="edge">
<title>Node2&#45;&gt;Node136</title>
<g id="a_edge35_Node000002_Node000136"><a xlink:title=" ">
<path fill="none" stroke="#63b8ff" d="M287.45,-386.57C295.87,-387.66 304.43,-388.77 312.8,-389.85"/>
<polygon fill="#63b8ff" stroke="#63b8ff" points="287.65,-383.07 277.29,-385.25 286.75,-390.01 287.65,-383.07"/>
</a>
</g>
</g>
<!-- Node139 -->
<g id="Node000139" class="node">
<title>Node139</title>
<g id="a_Node000139"><a xlink:href="class_kit_1_1_system_1_1_shutdown_1_1_i_handler.html" target="_top" xlink:title="This call defines the callback interface that is used when the application is shutdown.">
<polygon fill="white" stroke="#666666" points="448,-371 321,-371 321,-341 448,-341 448,-371"/>
<text text-anchor="start" x="329" y="-359" font-family="Helvetica,sans-Serif" font-size="10.00">Kit::System::Shutdown</text>
<text text-anchor="middle" x="384.5" y="-348" font-family="Helvetica,sans-Serif" font-size="10.00">::IHandler</text>
</a>
</g>
</g>
<!-- Node2&#45;&gt;Node139 -->
<g id="edge38_Node000002_Node000139" class="edge">
<title>Node2&#45;&gt;Node139</title>
<g id="a_edge38_Node000002_Node000139"><a xlink:title=" ">
<path fill="none" stroke="#63b8ff" d="M287.41,-367.87C298.53,-366.5 309.91,-365.09 320.77,-363.75"/>
<polygon fill="#63b8ff" stroke="#63b8ff" points="286.78,-364.42 277.29,-369.12 287.64,-371.37 286.78,-364.42"/>
</a>
</g>
</g>
<!-- Node140 -->
<g id="Node000140" class="node">
<title>Node140</title>
<g id="a_Node000140"><a xlink:href="class_kit_1_1_system_1_1_sim_tick.html" target="_top" xlink:title="This class define the interface to provide a simulates system tick (in milliseconds) to the applicati...">
<polygon fill="white" stroke="#666666" points="443.5,-322.5 325.5,-322.5 325.5,-303.5 443.5,-303.5 443.5,-322.5"/>
<text text-anchor="middle" x="384.5" y="-310.5" font-family="Helvetica,sans-Serif" font-size="10.00">Kit::System::SimTick</text>
</a>
</g>
</g>
<!-- Node2&#45;&gt;Node140 -->
<g id="edge39_Node000002_Node000140" class="edge">
<title>Node2&#45;&gt;Node140</title>
<g id="a_edge39_Node000002_Node000140"><a xlink:title=" ">
<path fill="none" stroke="#63b8ff" d="M241.21,-363.01C260.9,-353.43 288.15,-340.9 313,-332 322.79,-328.49 333.54,-325.29 343.63,-322.54"/>
<polygon fill="#63b8ff" stroke="#63b8ff" points="239.63,-359.89 232.2,-367.44 242.72,-366.17 239.63,-359.89"/>
</a>
</g>
</g>
<!-- Node141 -->
<g id="Node000141" class="node">
<title>Node141</title>
<g id="a_Node000141"><a xlink:href="class_kit_1_1_system_1_1_thread.html" target="_top" xlink:title="This mostly abstract class defines the operations that can be performed on a thread.">
<polygon fill="white" stroke="#666666" points="441,-240.5 328,-240.5 328,-221.5 441,-221.5 441,-240.5"/>
<text text-anchor="middle" x="384.5" y="-228.5" font-family="Helvetica,sans-Serif" font-size="10.00">Kit::System::Thread</text>
</a>
</g>
</g>
<!-- Node2&#45;&gt;Node141 -->
<g id="edge40_Node000002_Node000141" class="edge">
<title>Node2&#45;&gt;Node141</title>
<g id="a_edge40_Node000002_Node000141"><a xlink:title=" ">
<path fill="none" stroke="#63b8ff" d="M232.36,-360.8C267.8,-330.37 343.34,-265.49 372.08,-240.81"/>
<polygon fill="#63b8ff" stroke="#63b8ff" points="229.96,-358.25 224.65,-367.42 234.52,-363.56 229.96,-358.25"/>
</a>
</g>
</g>
<!-- Node147 -->
<g id="Node000147" class="node">
<title>Node147</title>
<g id="a_Node000147"><a xlink:href="class_kit_1_1_system_1_1_watchdog_1_1_watched_thread.html" target="_top" xlink:title="This class represents a thread being monitored by the watchdog system.">
<polygon fill="white" stroke="#666666" points="448,-78 321,-78 321,-48 448,-48 448,-78"/>
<text text-anchor="start" x="329" y="-66" font-family="Helvetica,sans-Serif" font-size="10.00">Kit::System::Watchdog</text>
<text text-anchor="middle" x="384.5" y="-55" font-family="Helvetica,sans-Serif" font-size="10.00">::WatchedThread</text>
</a>
</g>
</g>
<!-- Node2&#45;&gt;Node147 -->
<g id="edge46_Node000002_Node000147" class="edge">
<title>Node2&#45;&gt;Node147</title>
<g id="a_edge46_Node000002_Node000147"><a xlink:title=" ">
<path fill="none" stroke="#63b8ff" d="M223.65,-358.26C254.56,-301.16 347.17,-130.1 375.3,-78.14"/>
<polygon fill="#63b8ff" stroke="#63b8ff" points="220.46,-356.8 218.77,-367.26 226.61,-360.13 220.46,-356.8"/>
</a>
</g>
</g>
<!-- Node4 -->
<g id="Node000004" class="node">
<title>Node4</title>
<g id="a_Node000004"><a xlink:href="class_container_1_1_lists_1_1_period.html" target="_top" xlink:title="This abstract class defines the interface for flash period. A series of periods make up a flash patte...">
<polygon fill="white" stroke="#666666" points="632.5,-894.5 503.5,-894.5 503.5,-875.5 632.5,-875.5 632.5,-894.5"/>
<text text-anchor="middle" x="568" y="-882.5" font-family="Helvetica,sans-Serif" font-size="10.00">Container::Lists::Period</text>
</a>
</g>
</g>
<!-- Node3&#45;&gt;Node4 -->
<g id="edge3_Node000003_Node000004" class="edge">
<title>Node3&#45;&gt;Node4</title>
<g id="a_edge3_Node000003_Node000004"><a xlink:title=" ">
<path fill="none" stroke="#63b8ff" d="M401.6,-778.78C420.29,-804.51 453.53,-844.82 492,-867 497.92,-870.41 504.45,-873.18 511.12,-875.42"/>
<polygon fill="#63b8ff" stroke="#63b8ff" points="404.25,-776.47 395.61,-770.34 398.54,-780.52 404.25,-776.47"/>
</a>
</g>
</g>
<!-- Node7 -->
<g id="Node000007" class="node">
<title>Node7</title>
<g id="a_Node000007"><a xlink:href="class_kit_1_1_container_1_1_keyed_item.html" target="_top" xlink:title="This abstract class represents a item that can be used with containers that have a concept of Key&#45;Val...">
<polygon fill="white" stroke="#666666" points="639,-857.5 497,-857.5 497,-838.5 639,-838.5 639,-857.5"/>
<text text-anchor="middle" x="568" y="-845.5" font-family="Helvetica,sans-Serif" font-size="10.00">Kit::Container::KeyedItem</text>
</a>
</g>
</g>
<!-- Node3&#45;&gt;Node7 -->
<g id="edge6_Node000003_Node000007" class="edge">
<title>Node3&#45;&gt;Node7</title>
<g id="a_edge6_Node000003_Node000007"><a xlink:title=" ">
<path fill="none" stroke="#63b8ff" d="M410.6,-776.84C431.18,-793.68 461.75,-816.33 492,-830 499.44,-833.36 507.6,-836.15 515.7,-838.44"/>
<polygon fill="#63b8ff" stroke="#63b8ff" points="412.61,-773.96 402.69,-770.25 408.13,-779.34 412.61,-773.96"/>
</a>
</g>
</g>
<!-- Node12 -->
<g id="Node000012" class="node">
<title>Node12</title>
<g id="a_Node000012"><a xlink:href="class_kit_1_1_dm_1_1_i_model_point.html" target="_top" xlink:title="This mostly abstract class defines the interface for a Model Point.">
<polygon fill="white" stroke="#666666" points="626.5,-820.5 509.5,-820.5 509.5,-801.5 626.5,-801.5 626.5,-820.5"/>
<text text-anchor="middle" x="568" y="-808.5" font-family="Helvetica,sans-Serif" font-size="10.00">Kit::Dm::IModelPoint</text>
</a>
</g>
</g>
<!-- Node3&#45;&gt;Node12 -->
<g id="edge9_Node000003_Node000012" class="edge">
<title>Node3&#45;&gt;Node12</title>
<g id="a_edge9_Node000003_Node000012"><a xlink:title=" ">
<path fill="none" stroke="#63b8ff" d="M434.31,-773.66C452.31,-780.2 472.95,-787.33 492,-793 502.14,-796.02 513.16,-798.88 523.56,-801.41"/>
<polygon fill="#63b8ff" stroke="#63b8ff" points="435.21,-770.26 424.62,-770.09 432.8,-776.83 435.21,-770.26"/>
</a>
</g>
</g>
<!-- Node108 -->
<g id="Node000108" class="node">
<title>Node108</title>
<g id="a_Node000108"><a xlink:href="class_kit_1_1_dm_1_1_i_observer.html" target="_top" xlink:title="This abstract class defines the Observer interface &#45; for change notifications &#45; to a Model Points dat...">
<polygon fill="white" stroke="#666666" points="621.5,-783.5 514.5,-783.5 514.5,-764.5 621.5,-764.5 621.5,-783.5"/>
<text text-anchor="middle" x="568" y="-771.5" font-family="Helvetica,sans-Serif" font-size="10.00">Kit::Dm::IObserver</text>
</a>
</g>
</g>
<!-- Node3&#45;&gt;Node108 -->
<g id="edge19_Node000003_Node000108" class="edge">
<title>Node3&#45;&gt;Node108</title>
<g id="a_edge19_Node000003_Node000108"><a xlink:title=" ">
<path fill="none" stroke="#63b8ff" d="M462.29,-763.04C479.84,-764.88 498.11,-766.79 514.38,-768.49"/>
<polygon fill="#63b8ff" stroke="#63b8ff" points="462.36,-759.53 452.05,-761.97 461.63,-766.49 462.36,-759.53"/>
</a>
</g>
</g>
<!-- Node116 -->
<g id="Node000116" class="node">
<title>Node116</title>
<g id="a_Node000116"><a xlink:href="class_kit_1_1_itc_1_1_i_message.html" target="_top" xlink:title="This abstract class defines the operations for an ITC message.">
<polygon fill="white" stroke="#666666" points="618.5,-746.5 517.5,-746.5 517.5,-727.5 618.5,-727.5 618.5,-746.5"/>
<text text-anchor="middle" x="568" y="-734.5" font-family="Helvetica,sans-Serif" font-size="10.00">Kit::Itc::IMessage</text>
</a>
</g>
</g>
<!-- Node3&#45;&gt;Node116 -->
<g id="edge21_Node000003_Node000116" class="edge">
<title>Node3&#45;&gt;Node116</title>
<g id="a_edge21_Node000003_Node000116"><a xlink:title=" ">
<path fill="none" stroke="#63b8ff" d="M462.02,-747.41C480.69,-745.56 500.18,-743.63 517.23,-741.94"/>
<polygon fill="#63b8ff" stroke="#63b8ff" points="461.66,-743.93 452.05,-748.4 462.35,-750.9 461.66,-743.93"/>
</a>
</g>
</g>
<!-- Node120 -->
<g id="Node000120" class="node">
<title>Node120</title>
<g id="a_Node000120"><a xlink:href="class_kit_1_1_memory_1_1_pool_1_1_block_info.html" target="_top" xlink:title="Helper class so I can put my blocks into to my standard containers.">
<polygon fill="white" stroke="#666666" points="622.5,-709 513.5,-709 513.5,-679 622.5,-679 622.5,-709"/>
<text text-anchor="start" x="521.5" y="-697" font-family="Helvetica,sans-Serif" font-size="10.00">Kit::Memory::Pool::</text>
<text text-anchor="middle" x="568" y="-686" font-family="Helvetica,sans-Serif" font-size="10.00">BlockInfo</text>
</a>
</g>
</g>
<!-- Node3&#45;&gt;Node120 -->
<g id="edge24_Node000003_Node000120" class="edge">
<title>Node3&#45;&gt;Node120</title>
<g id="a_edge24_Node000003_Node000120"><a xlink:title=" ">
<path fill="none" stroke="#63b8ff" d="M439.46,-736.71C456.29,-731.02 474.91,-724.74 492,-719 501.63,-715.77 511.96,-712.32 521.78,-709.04"/>
<polygon fill="#63b8ff" stroke="#63b8ff" points="438.14,-733.46 429.79,-739.98 440.38,-740.09 438.14,-733.46"/>
</a>
</g>
</g>
<!-- Node121 -->
<g id="Node000121" class="node">
<title>Node121</title>
<g id="a_Node000121"><a xlink:href="class_kit_1_1_system_1_1_i_counter.html" target="_top" xlink:title="This abstract class defines the call&#45;back interface for a Counter object.">
<polygon fill="white" stroke="#666666" points="628,-660.5 508,-660.5 508,-641.5 628,-641.5 628,-660.5"/>
<text text-anchor="middle" x="568" y="-648.5" font-family="Helvetica,sans-Serif" font-size="10.00">Kit::System::ICounter</text>
</a>
</g>
</g>
<!-- Node3&#45;&gt;Node121 -->
<g id="edge25_Node000003_Node000121" class="edge">
<title>Node3&#45;&gt;Node121</title>
<g id="a_edge25_Node000003_Node000121"><a xlink:title=" ">
<path fill="none" stroke="#63b8ff" d="M407.44,-732.76C427.71,-713.46 459.5,-686.14 492,-670 499.7,-666.18 508.24,-663.08 516.71,-660.58"/>
<polygon fill="#63b8ff" stroke="#63b8ff" points="405,-730.25 400.27,-739.73 409.88,-735.28 405,-730.25"/>
</a>
</g>
</g>
<!-- Node5 -->
<g id="Node000005" class="node">
<title>Node5</title>
<g id="a_Node000005"><a xlink:href="class_container_1_1_lists_1_1_off_period.html" target="_top" xlink:title="This concrete class implements an OFF period.">
<polygon fill="white" stroke="#666666" points="837,-931.5 694,-931.5 694,-912.5 837,-912.5 837,-931.5"/>
<text text-anchor="middle" x="765.5" y="-919.5" font-family="Helvetica,sans-Serif" font-size="10.00">Container::Lists::OffPeriod</text>
</a>
</g>
</g>
<!-- Node4&#45;&gt;Node5 -->
<g id="edge4_Node000004_Node000005" class="edge">
<title>Node4&#45;&gt;Node5</title>
<g id="a_edge4_Node000004_Node000005"><a xlink:title=" ">
<path fill="none" stroke="#63b8ff" d="M629.49,-896.45C656.59,-901.58 688.18,-907.56 713.99,-912.44"/>
<polygon fill="#63b8ff" stroke="#63b8ff" points="629.82,-892.95 619.35,-894.53 628.52,-899.83 629.82,-892.95"/>
</a>
</g>
</g>
<!-- Node6 -->
<g id="Node000006" class="node">
<title>Node6</title>
<g id="a_Node000006"><a xlink:href="class_container_1_1_lists_1_1_on_period.html" target="_top" xlink:title="This concrete class implements an ON period.">
<polygon fill="white" stroke="#666666" points="837,-894.5 694,-894.5 694,-875.5 837,-875.5 837,-894.5"/>
<text text-anchor="middle" x="765.5" y="-882.5" font-family="Helvetica,sans-Serif" font-size="10.00">Container::Lists::OnPeriod</text>
</a>
</g>
</g>
<!-- Node4&#45;&gt;Node6 -->
<g id="edge5_Node000004_Node000006" class="edge">
<title>Node4&#45;&gt;Node6</title>
<g id="a_edge5_Node000004_Node000006"><a xlink:title=" ">
<path fill="none" stroke="#63b8ff" d="M642.96,-885C659.61,-885 677.23,-885 693.74,-885"/>
<polygon fill="#63b8ff" stroke="#63b8ff" points="642.74,-881.5 632.74,-885 642.74,-888.5 642.74,-881.5"/>
</a>
</g>
</g>
<!-- Node8 -->
<g id="Node000008" class="node">
<title>Node8</title>
<g id="a_Node000008"><a xlink:href="class_kit_1_1_container_1_1_map_item.html" target="_top" xlink:title="This abstract class represents a item that can be contained in an Map (aka a sorted list implemented ...">
<polygon fill="white" stroke="#666666" points="832,-857.5 699,-857.5 699,-838.5 832,-838.5 832,-857.5"/>
<text text-anchor="middle" x="765.5" y="-845.5" font-family="Helvetica,sans-Serif" font-size="10.00">Kit::Container::MapItem</text>
</a>
</g>
</g>
<!-- Node7&#45;&gt;Node8 -->
<g id="edge7_Node000007_Node000008" class="edge">
<title>Node7&#45;&gt;Node8</title>
<g id="a_edge7_Node000007_Node000008"><a xlink:title=" ">
<path fill="none" stroke="#63b8ff" d="M649.21,-848C665.73,-848 682.94,-848 698.88,-848"/>
<polygon fill="#63b8ff" stroke="#63b8ff" points="649.03,-844.5 639.03,-848 649.03,-851.5 649.03,-844.5"/>
</a>
</g>
</g>
<!-- Node9 -->
<g id="Node000009" class="node">
<title>Node9</title>
<g id="a_Node000009"><a xlink:href="class_kit_1_1_text_1_1_string_item.html" target="_top" xlink:title="This partially concrete provides a wrapper class that allows a IString object to be stored directly i...">
<polygon fill="#fff0f0" stroke="red" points="1000,-1007.5 887,-1007.5 887,-988.5 1000,-988.5 1000,-1007.5"/>
<text text-anchor="middle" x="943.5" y="-995.5" font-family="Helvetica,sans-Serif" font-size="10.00">Kit::Text::StringItem</text>
</a>
</g>
</g>
<!-- Node8&#45;&gt;Node9 -->
<g id="edge8_Node000008_Node000009" class="edge">
<title>Node8&#45;&gt;Node9</title>
<g id="a_edge8_Node000008_Node000009"><a xlink:title=" ">
<path fill="none" stroke="#63b8ff" d="M841.26,-859.88C844.75,-861.92 848.03,-864.28 851,-867 889.59,-902.27 850.38,-941.68 887,-979 890.78,-982.85 895.37,-985.92 900.28,-988.37"/>
<polygon fill="#63b8ff" stroke="#63b8ff" points="842.75,-856.71 832.23,-855.43 839.65,-862.99 842.75,-856.71"/>
</a>
</g>
</g>
<!-- Node13 -->
<g id="Node000013" class="node">
<title>Node13</title>
<g id="a_Node000013"><a xlink:href="class_kit_1_1_dm_1_1_model_point_base.html" target="_top" xlink:title="This concrete class provide common infrastructure for a Model Point.">
<polygon fill="#fff0f0" stroke="red" points="834.5,-820.5 696.5,-820.5 696.5,-801.5 834.5,-801.5 834.5,-820.5"/>
<text text-anchor="middle" x="765.5" y="-808.5" font-family="Helvetica,sans-Serif" font-size="10.00">Kit::Dm::ModelPointBase</text>
</a>
</g>
</g>
<!-- Node12&#45;&gt;Node13 -->
<g id="edge10_Node000012_Node000013" class="edge">
<title>Node12&#45;&gt;Node13</title>
<g id="a_edge10_Node000012_Node000013"><a xlink:title=" ">
<path fill="none" stroke="#63b8ff" d="M636.79,-811C656.04,-811 677,-811 696.28,-811"/>
<polygon fill="#63b8ff" stroke="#63b8ff" points="636.6,-807.5 626.6,-811 636.6,-814.5 636.6,-807.5"/>
</a>
</g>
</g>
<!-- Node14 -->
<g id="Node000014" class="node">
<title>Node14</title>
<g id="a_Node000014"><a xlink:href="class_kit_1_1_dm_1_1_mp_1_1_scalar.html" target="_top" xlink:title=" ">
<polygon fill="white" stroke="orangered" points="998.5,-970 888.5,-970 888.5,-940 998.5,-940 998.5,-970"/>
<text text-anchor="start" x="896.5" y="-958" font-family="Helvetica,sans-Serif" font-size="10.00">Kit::Dm::Mp::Scalar</text>
<text text-anchor="middle" x="943.5" y="-947" font-family="Helvetica,sans-Serif" font-size="10.00">&lt; Foo_T, MpFoo &gt;</text>
</a>
</g>
</g>
<!-- Node13&#45;&gt;Node14 -->
<g id="edge11_Node000013_Node000014" class="edge">
<title>Node13&#45;&gt;Node14</title>
<g id="a_edge11_Node000013_Node000014"><a xlink:title=" ">
<path fill="none" stroke="#63b8ff" d="M843.48,-824.39C846.13,-826.06 848.66,-827.92 851,-830 886.68,-861.59 854.43,-896.21 887,-931 890.23,-934.45 894.04,-937.43 898.12,-939.99"/>
<polygon fill="#63b8ff" stroke="#63b8ff" points="845.07,-821.27 834.6,-819.67 841.79,-827.45 845.07,-821.27"/>
</a>
</g>
</g>
<!-- Node16 -->
<g id="Node000016" class="node">
<title>Node16</title>
<g id="a_Node000016"><a xlink:href="class_kit_1_1_dm_1_1_mp_1_1_scalar.html" target="_top" xlink:title=" ">
<polygon fill="white" stroke="orangered" points="998.5,-922 888.5,-922 888.5,-892 998.5,-892 998.5,-922"/>
<text text-anchor="start" x="896.5" y="-910" font-family="Helvetica,sans-Serif" font-size="10.00">Kit::Dm::Mp::Scalar</text>
<text text-anchor="middle" x="943.5" y="-899" font-family="Helvetica,sans-Serif" font-size="10.00">&lt; bool, Bool &gt;</text>
</a>
</g>
</g>
<!-- Node13&#45;&gt;Node16 -->
<g id="edge12_Node000013_Node000016" class="edge">
<title>Node13&#45;&gt;Node16</title>
<g id="a_edge12_Node000013_Node000016"><a xlink:title=" ">
<path fill="none" stroke="#63b8ff" d="M841.68,-824.58C844.92,-826.2 848.05,-827.99 851,-830 874.54,-846.02 865.06,-864.85 887,-883 891.04,-886.35 895.63,-889.3 900.38,-891.89"/>
<polygon fill="#63b8ff" stroke="#63b8ff" points="842.82,-821.27 832.25,-820.52 840.05,-827.7 842.82,-821.27"/>
</a>
</g>
</g>
<!-- Node17 -->
<g id="Node000017" class="node">
<title>Node17</title>
<g id="a_Node000017"><a xlink:href="class_kit_1_1_dm_1_1_mp_1_1_scalar.html" target="_top" xlink:title=" ">
<polygon fill="white" stroke="orangered" points="1000,-874 887,-874 887,-844 1000,-844 1000,-874"/>
<text text-anchor="start" x="895" y="-862" font-family="Helvetica,sans-Serif" font-size="10.00">Kit::Dm::Mp::Scalar</text>
<text text-anchor="middle" x="943.5" y="-851" font-family="Helvetica,sans-Serif" font-size="10.00">&lt; double, Double &gt;</text>
</a>
</g>
</g>
<!-- Node13&#45;&gt;Node17 -->
<g id="edge13_Node000013_Node000017" class="edge">
<title>Node13&#45;&gt;Node17</title>
<g id="a_edge13_Node000013_Node000017"><a xlink:title=" ">
<path fill="none" stroke="#63b8ff" d="M822.2,-822.81C831.84,-825.06 841.74,-827.5 851,-830 866.28,-834.13 882.82,-839.19 897.58,-843.92"/>
<polygon fill="#63b8ff" stroke="#63b8ff" points="822.81,-819.36 812.28,-820.54 821.25,-826.19 822.81,-819.36"/>
</a>
</g>
</g>
<!-- Node18 -->
<g id="Node000018" class="node">
<title>Node18</title>
<g id="a_Node000018"><a xlink:href="class_kit_1_1_dm_1_1_mp_1_1_scalar.html" target="_top" xlink:title=" ">
<polygon fill="white" stroke="orangered" points="998.5,-826 888.5,-826 888.5,-796 998.5,-796 998.5,-826"/>
<text text-anchor="start" x="896.5" y="-814" font-family="Helvetica,sans-Serif" font-size="10.00">Kit::Dm::Mp::Scalar</text>
<text text-anchor="middle" x="943.5" y="-803" font-family="Helvetica,sans-Serif" font-size="10.00">&lt; float, Float &gt;</text>
</a>
</g>
</g>
<!-- Node13&#45;&gt;Node18 -->
<g id="edge14_Node000013_Node000018" class="edge">
<title>Node13&#45;&gt;Node18</title>
<g id="a_edge14_Node000013_Node000018"><a xlink:title=" ">
<path fill="none" stroke="#63b8ff" d="M844.66,-811C859.38,-811 874.48,-811 888.27,-811"/>
<polygon fill="#63b8ff" stroke="#63b8ff" points="844.55,-807.5 834.55,-811 844.55,-814.5 844.55,-807.5"/>
</a>
</g>
</g>
<!-- Node19 -->
<g id="Node000019" class="node">
<title>Node19</title>
<g id="a_Node000019"><a xlink:href="class_kit_1_1_dm_1_1_mp_1_1_scalar.html" target="_top" xlink:title=" ">
<polygon fill="white" stroke="orangered" points="998.5,-778 888.5,-778 888.5,-748 998.5,-748 998.5,-778"/>
<text text-anchor="start" x="896.5" y="-766" font-family="Helvetica,sans-Serif" font-size="10.00">Kit::Dm::Mp::Scalar</text>
<text text-anchor="middle" x="943.5" y="-755" font-family="Helvetica,sans-Serif" font-size="10.00">&lt; int16_t, Int16 &gt;</text>
</a>
</g>
</g>
<!-- Node13&#45;&gt;Node19 -->
<g id="edge15_Node000013_Node000019" class="edge">
<title>Node13&#45;&gt;Node19</title>
<g id="a_edge15_Node000013_Node000019"><a xlink:title=" ">
<path fill="none" stroke="#63b8ff" d="M825.76,-799.22C834.27,-797.28 842.88,-795.19 851,-793 866.98,-788.69 884.28,-783.23 899.5,-778.15"/>
<polygon fill="#63b8ff" stroke="#63b8ff" points="824.87,-795.83 815.86,-801.41 826.38,-802.66 824.87,-795.83"/>
</a>
</g>
</g>
<!-- Node20 -->
<g id="Node000020" class="node">
<title>Node20</title>
<g id="a_Node000020"><a xlink:href="class_kit_1_1_dm_1_1_mp_1_1_scalar.html" target="_top" xlink:title=" ">
<polygon fill="white" stroke="orangered" points="998.5,-730 888.5,-730 888.5,-700 998.5,-700 998.5,-730"/>
<text text-anchor="start" x="896.5" y="-718" font-family="Helvetica,sans-Serif" font-size="10.00">Kit::Dm::Mp::Scalar</text>
<text text-anchor="middle" x="943.5" y="-707" font-family="Helvetica,sans-Serif" font-size="10.00">&lt; int32_t, Int32 &gt;</text>
</a>
</g>
</g>
<!-- Node13&#45;&gt;Node20 -->
<g id="edge16_Node000013_Node000020" class="edge">
<title>Node13&#45;&gt;Node20</title>
<g id="a_edge16_Node000013_Node000020"><a xlink:title=" ">
<path fill="none" stroke="#63b8ff" d="M843.96,-797.21C846.4,-795.93 848.75,-794.53 851,-793 874.87,-776.8 864.85,-757.48 887,-739 891.03,-735.64 895.6,-732.67 900.35,-730.08"/>
<polygon fill="#63b8ff" stroke="#63b8ff" points="842.49,-794.04 834.85,-801.38 845.4,-800.4 842.49,-794.04"/>
</a>
</g>
</g>
<!-- Node21 -->
<g id="Node000021" class="node">
<title>Node21</title>
<g id="a_Node000021"><a xlink:href="class_kit_1_1_dm_1_1_mp_1_1_scalar.html" target="_top" xlink:title=" ">
<polygon fill="white" stroke="orangered" points="998.5,-682 888.5,-682 888.5,-652 998.5,-652 998.5,-682"/>
<text text-anchor="start" x="896.5" y="-670" font-family="Helvetica,sans-Serif" font-size="10.00">Kit::Dm::Mp::Scalar</text>
<text text-anchor="middle" x="943.5" y="-659" font-family="Helvetica,sans-Serif" font-size="10.00">&lt; int64_t, Int64 &gt;</text>
</a>
</g>
</g>
<!-- Node13&#45;&gt;Node21 -->
<g id="edge17_Node000013_Node000021" class="edge">
<title>Node13&#45;&gt;Node21</title>
<g id="a_edge17_Node000013_Node000021"><a xlink:title=" ">
<path fill="none" stroke="#63b8ff" d="M843.47,-798.56C846.13,-796.91 848.65,-795.06 851,-793 887.12,-761.28 854.2,-726.14 887,-691 890.15,-687.62 893.86,-684.7 897.84,-682.17"/>
<polygon fill="#63b8ff" stroke="#63b8ff" points="841.83,-795.46 834.58,-803.19 845.07,-801.67 841.83,-795.46"/>
</a>
</g>
</g>
<!-- Node22 -->
<g id="Node000022" class="node">
<title>Node22</title>
<g id="a_Node000022"><a xlink:href="class_kit_1_1_dm_1_1_mp_1_1_scalar.html" target="_top" xlink:title=" ">
<polygon fill="white" stroke="orangered" points="998.5,-634 888.5,-634 888.5,-604 998.5,-604 998.5,-634"/>
<text text-anchor="start" x="896.5" y="-622" font-family="Helvetica,sans-Serif" font-size="10.00">Kit::Dm::Mp::Scalar</text>
<text text-anchor="middle" x="943.5" y="-611" font-family="Helvetica,sans-Serif" font-size="10.00">&lt; int8_t, Int8 &gt;</text>
</a>
</g>
</g>
<!-- Node13&#45;&gt;Node22 -->
<g id="edge18_Node000013_Node000022" class="edge">
<title>Node13&#45;&gt;Node22</title>
<g id="a_edge18_Node000013_Node000022"><a xlink:title=" ">
<path fill="none" stroke="#63b8ff" d="M843.57,-798.98C846.22,-797.22 848.71,-795.23 851,-793 900.1,-745.15 842.88,-695.48 887,-643 889.9,-639.54 893.4,-636.57 897.2,-634.02"/>
<polygon fill="#63b8ff" stroke="#63b8ff" points="841.72,-796 834.65,-803.89 845.09,-802.13 841.72,-796"/>
</a>
</g>
</g>
<!-- Node109 -->
<g id="Node000109" class="node">
<title>Node109</title>
<g id="a_Node000109"><a xlink:href="class_kit_1_1_dm_1_1_observer_base.html" target="_top" xlink:title="This mostly concrete class defines the Observer interface &#45; for change notifications &#45; to a Model Poi...">
<polygon fill="#fff0f0" stroke="red" points="829.5,-783.5 701.5,-783.5 701.5,-764.5 829.5,-764.5 829.5,-783.5"/>
<text text-anchor="middle" x="765.5" y="-771.5" font-family="Helvetica,sans-Serif" font-size="10.00">Kit::Dm::ObserverBase</text>
</a>
</g>
</g>
<!-- Node108&#45;&gt;Node109 -->
<g id="edge20_Node000108_Node000109" class="edge">
<title>Node108&#45;&gt;Node109</title>
<g id="a_edge20_Node000108_Node000109"><a xlink:title=" ">
<path fill="none" stroke="#63b8ff" d="M631.66,-774C653.93,-774 679.01,-774 701.32,-774"/>
<polygon fill="#63b8ff" stroke="#63b8ff" points="631.65,-770.5 621.65,-774 631.65,-777.5 631.65,-770.5"/>
</a>
</g>
</g>
<!-- Node117 -->
<g id="Node000117" class="node">
<title>Node117</title>
<g id="a_Node000117"><a xlink:href="class_kit_1_1_itc_1_1_response_message.html" target="_top" xlink:title="This template class represents a client response message, which is posted to the client&#39;s mailbox aft...">
<polygon fill="white" stroke="#666666" points="851,-746 680,-746 680,-716 851,-716 851,-746"/>
<text text-anchor="start" x="688" y="-734" font-family="Helvetica,sans-Serif" font-size="10.00">Kit::Itc::ResponseMessage</text>
<text text-anchor="middle" x="765.5" y="-723" font-family="Helvetica,sans-Serif" font-size="10.00">&lt; CLIENT, SERVICE, PAYLOAD &gt;</text>
</a>
</g>
</g>
<!-- Node116&#45;&gt;Node117 -->
<g id="edge22_Node000116_Node000117" class="edge">
<title>Node116&#45;&gt;Node117</title>
<g id="a_edge22_Node000116_Node000117"><a xlink:title=" ">
<path fill="none" stroke="#63b8ff" d="M628.86,-735.16C644.89,-734.67 662.52,-734.13 679.62,-733.61"/>
<polygon fill="#63b8ff" stroke="#63b8ff" points="628.47,-731.67 618.59,-735.48 628.69,-738.67 628.47,-731.67"/>
</a>
</g>
</g>
<!-- Node118 -->
<g id="Node000118" class="node">
<title>Node118</title>
<g id="a_Node000118"><a xlink:href="class_kit_1_1_itc_1_1_server_message.html" target="_top" xlink:title="This partially concrete class represents a defined message, which is posted to a mailbox&#45;server as a ...">
<polygon fill="#fff0f0" stroke="red" points="830,-697.5 701,-697.5 701,-678.5 830,-678.5 830,-697.5"/>
<text text-anchor="middle" x="765.5" y="-685.5" font-family="Helvetica,sans-Serif" font-size="10.00">Kit::Itc::ServerMessage</text>
</a>
</g>
</g>
<!-- Node116&#45;&gt;Node118 -->
<g id="edge23_Node000116_Node000118" class="edge">
<title>Node116&#45;&gt;Node118</title>
<g id="a_edge23_Node000116_Node000118"><a xlink:title=" ">
<path fill="none" stroke="#63b8ff" d="M617.75,-725.01C626.51,-722.76 635.54,-720.36 644,-718 660.11,-713.5 663.83,-711.28 680,-707 692.65,-703.65 706.46,-700.38 719.18,-697.53"/>
<polygon fill="#63b8ff" stroke="#63b8ff" points="616.85,-721.63 608.02,-727.5 618.58,-728.42 616.85,-721.63"/>
</a>
</g>
</g>
<!-- Node122 -->
<g id="Node000122" class="node">
<title>Node122</title>
<g id="a_Node000122"><a xlink:href="class_kit_1_1_system_1_1_timer.html" target="_top" xlink:title="This mostly concrete interface defines the operations that can be performed on a software timer.">
<polygon fill="#fff0f0" stroke="red" points="819,-660.5 712,-660.5 712,-641.5 819,-641.5 819,-660.5"/>
<text text-anchor="middle" x="765.5" y="-648.5" font-family="Helvetica,sans-Serif" font-size="10.00">Kit::System::Timer</text>
</a>
</g>
</g>
<!-- Node121&#45;&gt;Node122 -->
<g id="edge26_Node000121_Node000122" class="edge">
<title>Node121&#45;&gt;Node122</title>
<g id="a_edge26_Node000121_Node000122"><a xlink:title=" ">
<path fill="none" stroke="#63b8ff" d="M638.37,-651C662.53,-651 689.23,-651 711.82,-651"/>
<polygon fill="#63b8ff" stroke="#63b8ff" points="638.19,-647.5 628.19,-651 638.19,-654.5 638.19,-647.5"/>
</a>
</g>
</g>
<!-- Node129 -->
<g id="Node000129" class="node">
<title>Node129</title>
<g id="a_Node000129"><a xlink:href="class_kit_1_1_memory_1_1_h_pool.html" target="_top" xlink:title="This template class defines a concrete Allocator that allocates memory from the HEAP for a memory poo...">
<polygon fill="white" stroke="#666666" points="637.5,-623.5 498.5,-623.5 498.5,-604.5 637.5,-604.5 637.5,-623.5"/>
<text text-anchor="middle" x="568" y="-611.5" font-family="Helvetica,sans-Serif" font-size="10.00">Kit::Memory::HPool&lt; T &gt;</text>
</a>
</g>
</g>
<!-- Node128&#45;&gt;Node129 -->
<g id="edge28_Node000128_Node000129" class="edge">
<title>Node128&#45;&gt;Node129</title>
<g id="a_edge28_Node000128_Node000129"><a xlink:title=" ">
<path fill="none" stroke="#63b8ff" d="M405.94,-543.6C426.62,-558.72 460.03,-581.3 492,-595 500.77,-598.76 510.44,-601.89 519.84,-604.46"/>
<polygon fill="#63b8ff" stroke="#63b8ff" points="408.01,-540.78 397.89,-537.63 403.83,-546.4 408.01,-540.78"/>
</a>
</g>
</g>
<!-- Node130 -->
<g id="Node000130" class="node">
<title>Node130</title>
<g id="a_Node000130"><a xlink:href="class_kit_1_1_memory_1_1_i_contiguous_allocator.html" target="_top" xlink:title="This abstract class is used &#39;extend&#39; the Memory Allocator to have contiguous semantics.">
<polygon fill="white" stroke="#666666" points="638,-586 498,-586 498,-556 638,-556 638,-586"/>
<text text-anchor="start" x="506" y="-574" font-family="Helvetica,sans-Serif" font-size="10.00">Kit::Memory::IContiguous</text>
<text text-anchor="middle" x="568" y="-563" font-family="Helvetica,sans-Serif" font-size="10.00">Allocator</text>
</a>
</g>
</g>
<!-- Node128&#45;&gt;Node130 -->
<g id="edge29_Node000128_Node000130" class="edge">
<title>Node128&#45;&gt;Node130</title>
<g id="a_edge29_Node000128_Node000130"><a xlink:title=" ">
<path fill="none" stroke="#63b8ff" d="M435.78,-539.91C456.78,-544.89 481.43,-550.73 503.66,-555.99"/>
<polygon fill="#63b8ff" stroke="#63b8ff" points="436.32,-536.44 425.78,-537.54 434.7,-543.25 436.32,-536.44"/>
</a>
</g>
</g>
<!-- Node132 -->
<g id="Node000132" class="node">
<title>Node132</title>
<g id="a_Node000132"><a xlink:href="class_kit_1_1_memory_1_1_pool.html" target="_top" xlink:title="This internal (to the namespace) concrete class implements a Memory Allocator using a pool of fixed s...">
<polygon fill="white" stroke="#666666" points="619.5,-537.5 516.5,-537.5 516.5,-518.5 619.5,-518.5 619.5,-537.5"/>
<text text-anchor="middle" x="568" y="-525.5" font-family="Helvetica,sans-Serif" font-size="10.00">Kit::Memory::Pool</text>
</a>
</g>
</g>
<!-- Node128&#45;&gt;Node132 -->
<g id="edge31_Node000128_Node000132" class="edge">
<title>Node128&#45;&gt;Node132</title>
<g id="a_edge31_Node000128_Node000132"><a xlink:title=" ">
<path fill="none" stroke="#63b8ff" d="M458.97,-528C478.21,-528 498.52,-528 516.27,-528"/>
<polygon fill="#63b8ff" stroke="#63b8ff" points="458.73,-524.5 448.73,-528 458.73,-531.5 458.73,-524.5"/>
</a>
</g>
</g>
<!-- Node133 -->
<g id="Node000133" class="node">
<title>Node133</title>
<g id="a_Node000133"><a xlink:href="class_kit_1_1_memory_1_1_s_pool.html" target="_top" xlink:title="This template class defines a concrete Allocator that STATICALLY allocates all of its Memory and can ...">
<polygon fill="white" stroke="#666666" points="622.5,-500 513.5,-500 513.5,-470 622.5,-470 622.5,-500"/>
<text text-anchor="start" x="521.5" y="-488" font-family="Helvetica,sans-Serif" font-size="10.00">Kit::Memory::SPool</text>
<text text-anchor="middle" x="568" y="-477" font-family="Helvetica,sans-Serif" font-size="10.00">&lt; T, N &gt;</text>
</a>
</g>
</g>
<!-- Node128&#45;&gt;Node133 -->
<g id="edge32_Node000128_Node000133" class="edge">
<title>Node128&#45;&gt;Node133</title>
<g id="a_edge32_Node000128_Node000133"><a xlink:title=" ">
<path fill="none" stroke="#63b8ff" d="M435.8,-516.08C459.93,-510.37 488.86,-503.51 513.4,-497.7"/>
<polygon fill="#63b8ff" stroke="#63b8ff" points="434.7,-512.75 425.78,-518.46 436.32,-519.56 434.7,-512.75"/>
</a>
</g>
</g>
<!-- Node131 -->
<g id="Node000131" class="node">
<title>Node131</title>
<g id="a_Node000131"><a xlink:href="class_kit_1_1_memory_1_1_lean_heap.html" target="_top" xlink:title="This template class manages an allocate&#45;only&#45;heap with statically allocated memory.">
<polygon fill="white" stroke="#666666" points="846,-586 685,-586 685,-556 846,-556 846,-586"/>
<text text-anchor="start" x="693" y="-574" font-family="Helvetica,sans-Serif" font-size="10.00">Kit::Memory::LeanHeap</text>
<text text-anchor="middle" x="765.5" y="-563" font-family="Helvetica,sans-Serif" font-size="10.00">&lt; MAXWORDS, WORDTYPE &gt;</text>
</a>
</g>
</g>
<!-- Node130&#45;&gt;Node131 -->
<g id="edge30_Node000130_Node000131" class="edge">
<title>Node130&#45;&gt;Node131</title>
<g id="a_edge30_Node000130_Node000131"><a xlink:title=" ">
<path fill="none" stroke="#63b8ff" d="M648.2,-571C660.24,-571 672.66,-571 684.71,-571"/>
<polygon fill="#63b8ff" stroke="#63b8ff" points="648.2,-567.5 638.2,-571 648.2,-574.5 648.2,-567.5"/>
</a>
</g>
</g>
<!-- Node135 -->
<g id="Node000135" class="node">
<title>Node135</title>
<g id="a_Node000135"><a xlink:href="class_kit_1_1_system_1_1_event_flag_base.html" target="_top" xlink:title="This is helper class that perform an auto&#45;registration of the Event Flag instance with a list of Even...">
<polygon fill="white" stroke="#666666" points="644,-451.5 492,-451.5 492,-432.5 644,-432.5 644,-451.5"/>
<text text-anchor="middle" x="568" y="-439.5" font-family="Helvetica,sans-Serif" font-size="10.00">Kit::System::EventFlagBase</text>
</a>
</g>
</g>
<!-- Node134&#45;&gt;Node135 -->
<g id="edge34_Node000134_Node000135" class="edge">
<title>Node134&#45;&gt;Node135</title>
<g id="a_edge34_Node000134_Node000135"><a xlink:title=" ">
<path fill="none" stroke="#63b8ff" d="M460.3,-440.24C470.72,-440.41 481.43,-440.59 491.86,-440.76"/>
<polygon fill="#63b8ff" stroke="#63b8ff" points="460.06,-436.73 450,-440.07 459.94,-443.73 460.06,-436.73"/>
</a>
</g>
</g>
<!-- Node137 -->
<g id="Node000137" class="node">
<title>Node137</title>
<g id="a_Node000137"><a xlink:href="class_kit_1_1_system_1_1_r_p_pico_1_1_mutex___t.html" target="_top" xlink:title="This class implements a brute force approach to initializing a &#39;pico mutex&#39; when the Kit C++ library ...">
<polygon fill="white" stroke="#666666" points="624,-414 512,-414 512,-384 624,-384 624,-414"/>
<text text-anchor="start" x="520" y="-402" font-family="Helvetica,sans-Serif" font-size="10.00">Kit::System::RPPico</text>
<text text-anchor="middle" x="568" y="-391" font-family="Helvetica,sans-Serif" font-size="10.00">::Mutex_T</text>
</a>
</g>
</g>
<!-- Node136&#45;&gt;Node137 -->
<g id="edge36_Node000136_Node000137" class="edge">
<title>Node136&#45;&gt;Node137</title>
<g id="a_edge36_Node000136_Node000137"><a xlink:title=" ">
<path fill="none" stroke="#63b8ff" d="M466.27,-399C481.71,-399 497.55,-399 511.96,-399"/>
<polygon fill="#63b8ff" stroke="#63b8ff" points="466.19,-395.5 456.19,-399 466.19,-402.5 466.19,-395.5"/>
</a>
</g>
</g>
<!-- Node138 -->
<g id="Node000138" class="node">
<title>Node138</title>
<g id="a_Node000138"><a xlink:href="class_kit_1_1_system_1_1_r_p_pico_1_1_semaphore___t.html" target="_top" xlink:title="This class implements a brute force approach to initializing a &#39;pico semaphore&#39; when the Kit C++ libr...">
<polygon fill="white" stroke="#666666" points="624,-366 512,-366 512,-336 624,-336 624,-366"/>
<text text-anchor="start" x="520" y="-354" font-family="Helvetica,sans-Serif" font-size="10.00">Kit::System::RPPico</text>
<text text-anchor="middle" x="568" y="-343" font-family="Helvetica,sans-Serif" font-size="10.00">::Semaphore_T</text>
</a>
</g>
</g>
<!-- Node136&#45;&gt;Node138 -->
<g id="edge37_Node000136_Node000138" class="edge">
<title>Node136&#45;&gt;Node138</title>
<g id="a_edge37_Node000136_Node000138"><a xlink:title=" ">
<path fill="none" stroke="#63b8ff" d="M431.53,-386.83C455.95,-380.37 486.14,-372.39 511.81,-365.6"/>
<polygon fill="#63b8ff" stroke="#63b8ff" points="430.57,-383.46 421.79,-389.4 432.36,-390.23 430.57,-383.46"/>
</a>
</g>
</g>
<!-- Node142 -->
<g id="Node000142" class="node">
<title>Node142</title>
<g id="a_Node000142"><a xlink:href="class_kit_1_1_system_1_1_bare_metal_1_1_thread.html" target="_top" xlink:title="This concrete class implements a Thread object on a bare&#45;metal platform, i.e NO operating system,...">
<polygon fill="white" stroke="#666666" points="632.5,-318 503.5,-318 503.5,-288 632.5,-288 632.5,-318"/>
<text text-anchor="start" x="511.5" y="-306" font-family="Helvetica,sans-Serif" font-size="10.00">Kit::System::BareMetal</text>
<text text-anchor="middle" x="568" y="-295" font-family="Helvetica,sans-Serif" font-size="10.00">::Thread</text>
</a>
</g>
</g>
<!-- Node141&#45;&gt;Node142 -->
<g id="edge41_Node000141_Node000142" class="edge">
<title>Node141&#45;&gt;Node142</title>
<g id="a_edge41_Node000141_Node000142"><a xlink:title=" ">
<path fill="none" stroke="#63b8ff" d="M413.96,-244.89C435.2,-255 465.07,-268.66 492,-279 500.04,-282.09 508.67,-285.11 517.1,-287.91"/>
<polygon fill="#63b8ff" stroke="#63b8ff" points="415.38,-241.69 404.85,-240.52 412.35,-248 415.38,-241.69"/>
</a>
</g>
</g>
<!-- Node143 -->
<g id="Node000143" class="node">
<title>Node143</title>
<g id="a_Node000143"><a xlink:href="class_kit_1_1_system_1_1_free_r_t_o_s_1_1_thread.html" target="_top" xlink:title="This concrete class implements a Thread object using FreeRTOS threads.">
<polygon fill="white" stroke="#666666" points="630.5,-270 505.5,-270 505.5,-240 630.5,-240 630.5,-270"/>
<text text-anchor="start" x="513.5" y="-258" font-family="Helvetica,sans-Serif" font-size="10.00">Kit::System::FreeRTOS</text>
<text text-anchor="middle" x="568" y="-247" font-family="Helvetica,sans-Serif" font-size="10.00">::Thread</text>
</a>
</g>
</g>
<!-- Node141&#45;&gt;Node143 -->
<g id="edge42_Node000141_Node000143" class="edge">
<title>Node141&#45;&gt;Node143</title>
<g id="a_edge42_Node000141_Node000143"><a xlink:title=" ">
<path fill="none" stroke="#63b8ff" d="M451.58,-239.74C469.1,-242.06 487.96,-244.55 505.24,-246.83"/>
<polygon fill="#63b8ff" stroke="#63b8ff" points="451.81,-236.24 441.44,-238.4 450.89,-243.18 451.81,-236.24"/>
</a>
</g>
</g>
<!-- Node144 -->
<g id="Node000144" class="node">
<title>Node144</title>
<g id="a_Node000144"><a xlink:href="class_kit_1_1_system_1_1_posix_1_1_thread.html" target="_top" xlink:title="This concrete class implements a Thread object using Posix threads.">
<polygon fill="white" stroke="#666666" points="620.5,-222 515.5,-222 515.5,-192 620.5,-192 620.5,-222"/>
<text text-anchor="start" x="523.5" y="-210" font-family="Helvetica,sans-Serif" font-size="10.00">Kit::System::Posix</text>
<text text-anchor="middle" x="568" y="-199" font-family="Helvetica,sans-Serif" font-size="10.00">::Thread</text>
</a>
</g>
</g>
<!-- Node141&#45;&gt;Node144 -->
<g id="edge43_Node000141_Node000144" class="edge">
<title>Node141&#45;&gt;Node144</title>
<g id="a_edge43_Node000141_Node000144"><a xlink:title=" ">
<path fill="none" stroke="#63b8ff" d="M451.56,-222.26C472.55,-219.49 495.44,-216.46 515.27,-213.84"/>
<polygon fill="#63b8ff" stroke="#63b8ff" points="450.89,-218.82 441.44,-223.6 451.81,-225.76 450.89,-218.82"/>
</a>
</g>
</g>
<!-- Node145 -->
<g id="Node000145" class="node">
<title>Node145</title>
<g id="a_Node000145"><a xlink:href="class_kit_1_1_system_1_1_r_p_pico_1_1_thread.html" target="_top" xlink:title="This concrete class implements a Thread object that maps 1 to 1 with a processor core on the Raspberr...">
<polygon fill="white" stroke="#666666" points="624,-174 512,-174 512,-144 624,-144 624,-174"/>
<text text-anchor="start" x="520" y="-162" font-family="Helvetica,sans-Serif" font-size="10.00">Kit::System::RPPico</text>
<text text-anchor="middle" x="568" y="-151" font-family="Helvetica,sans-Serif" font-size="10.00">::Thread</text>
</a>
</g>
</g>
<!-- Node141&#45;&gt;Node145 -->
<g id="edge44_Node000141_Node000145" class="edge">
<title>Node141&#45;&gt;Node145</title>
<g id="a_edge44_Node000141_Node000145"><a xlink:title=" ">
<path fill="none" stroke="#63b8ff" d="M413.96,-217.11C435.2,-207 465.07,-193.34 492,-183 500.04,-179.91 508.67,-176.89 517.1,-174.09"/>
<polygon fill="#63b8ff" stroke="#63b8ff" points="412.35,-214 404.85,-221.48 415.38,-220.31 412.35,-214"/>
</a>
</g>
</g>
<!-- Node146 -->
<g id="Node000146" class="node">
<title>Node146</title>
<g id="a_Node000146"><a xlink:href="class_kit_1_1_system_1_1_win32_1_1_thread.html" target="_top" xlink:title="This concrete class implements a Thread object using Win32 threads.">
<polygon fill="white" stroke="#666666" points="623,-126 513,-126 513,-96 623,-96 623,-126"/>
<text text-anchor="start" x="521" y="-114" font-family="Helvetica,sans-Serif" font-size="10.00">Kit::System::Win32</text>
<text text-anchor="middle" x="568" y="-103" font-family="Helvetica,sans-Serif" font-size="10.00">::Thread</text>
</a>
</g>
</g>
<!-- Node141&#45;&gt;Node146 -->
<g id="edge45_Node000141_Node000146" class="edge">
<title>Node141&#45;&gt;Node146</title>
<g id="a_edge45_Node000141_Node000146"><a xlink:title=" ">
<path fill="none" stroke="#63b8ff" d="M400.33,-213.72C419.5,-192.4 454.85,-156.35 492,-135 498.52,-131.25 505.7,-128.01 512.95,-125.22"/>
<polygon fill="#63b8ff" stroke="#63b8ff" points="397.58,-211.55 393.59,-221.37 402.83,-216.18 397.58,-211.55"/>
</a>
</g>
</g>
<!-- Node148 -->
<g id="Node000148" class="node">
<title>Node148</title>
<g id="a_Node000148"><a xlink:href="class_kit_1_1_system_1_1_watchdog_1_1_raw_thread.html" target="_top" xlink:title="RawThread &#45; A concrete implementation for raw threads that provides wrapper methods for manual watchd...">
<polygon fill="white" stroke="#666666" points="631.5,-78 504.5,-78 504.5,-48 631.5,-48 631.5,-78"/>
<text text-anchor="start" x="512.5" y="-66" font-family="Helvetica,sans-Serif" font-size="10.00">Kit::System::Watchdog</text>
<text text-anchor="middle" x="568" y="-55" font-family="Helvetica,sans-Serif" font-size="10.00">::RawThread</text>
</a>
</g>
</g>
<!-- Node147&#45;&gt;Node148 -->
<g id="edge47_Node000147_Node000148" class="edge">
<title>Node147&#45;&gt;Node148</title>
<g id="a_edge47_Node000147_Node000148"><a xlink:title=" ">
<path fill="none" stroke="#63b8ff" d="M458.57,-63C473.72,-63 489.55,-63 504.28,-63"/>
<polygon fill="#63b8ff" stroke="#63b8ff" points="458.22,-59.5 448.22,-63 458.22,-66.5 458.22,-59.5"/>
</a>
</g>
</g>
<!-- Node149 -->
<g id="Node000149" class="node">
<title>Node149</title>
<g id="a_Node000149"><a xlink:href="class_kit_1_1_system_1_1_watchdog_1_1_watched_event_thread.html" target="_top" xlink:title="This class implements the IWatchedEventLoop interface and provides watchdog monitoring capabilities f...">
<polygon fill="white" stroke="#666666" points="631.5,-30 504.5,-30 504.5,0 631.5,0 631.5,-30"/>
<text text-anchor="start" x="512.5" y="-18" font-family="Helvetica,sans-Serif" font-size="10.00">Kit::System::Watchdog</text>
<text text-anchor="middle" x="568" y="-7" font-family="Helvetica,sans-Serif" font-size="10.00">::WatchedEventThread</text>
</a>
</g>
</g>
<!-- Node147&#45;&gt;Node149 -->
<g id="edge48_Node000147_Node000149" class="edge">
<title>Node147&#45;&gt;Node149</title>
<g id="a_edge48_Node000147_Node000149"><a xlink:title=" ">
<path fill="none" stroke="#63b8ff" d="M452.24,-45.35C471.29,-40.31 491.87,-34.87 510.27,-30"/>
<polygon fill="#63b8ff" stroke="#63b8ff" points="451.2,-42 442.43,-47.94 452.99,-48.77 451.2,-42"/>
</a>
</g>
</g>
</g>
</svg>
