<?xml version="1.0" encoding="UTF-8" standalone="no"?>
<!DOCTYPE svg PUBLIC "-//W3C//DTD SVG 1.1//EN"
 "http://www.w3.org/Graphics/SVG/1.1/DTD/svg11.dtd">
<!-- Generated by graphviz version 2.43.0 (0)
 -->
<!-- Title: Kit::System::ISignable Pages: 1 -->
<svg width="689pt" height="273pt"
 viewBox="0.00 0.00 689.00 273.00" xmlns="http://www.w3.org/2000/svg" xmlns:xlink="http://www.w3.org/1999/xlink">
<g id="graph0" class="graph" transform="scale(1 1) rotate(0) translate(4 269)">
<title>Kit::System::ISignable</title>
<!-- Node1 -->
<g id="Node000001" class="node">
<title>Node1</title>
<g id="a_Node000001"><a xlink:title="This abstract class defines the interface by which a client can cause an object that is waiting&#45;on&#45;a&#45;...">
<polygon fill="#999999" stroke="#666666" points="124,-168.5 0,-168.5 0,-149.5 124,-149.5 124,-168.5"/>
<text text-anchor="middle" x="62" y="-156.5" font-family="Helvetica,sans-Serif" font-size="10.00">Kit::System::ISignable</text>
</a>
</g>
</g>
<!-- Node2 -->
<g id="Node000002" class="node">
<title>Node2</title>
<g id="a_Node000002"><a xlink:href="class_kit_1_1_system_1_1_event_loop.html" target="_top" xlink:title="This concrete class is a IRunnable object that provides a event driven execution model for a thread.">
<polygon fill="white" stroke="#666666" points="292,-216.5 162,-216.5 162,-197.5 292,-197.5 292,-216.5"/>
<text text-anchor="middle" x="227" y="-204.5" font-family="Helvetica,sans-Serif" font-size="10.00">Kit::System::EventLoop</text>
</a>
</g>
</g>
<!-- Node1&#45;&gt;Node2 -->
<g id="edge1_Node000001_Node000002" class="edge">
<title>Node1&#45;&gt;Node2</title>
<g id="a_edge1_Node000001_Node000002"><a xlink:title=" ">
<path fill="none" stroke="#63b8ff" d="M105.34,-171.47C132.85,-179.57 168.16,-189.97 193.46,-197.42"/>
<polygon fill="#63b8ff" stroke="#63b8ff" points="106.18,-168.07 95.59,-168.6 104.2,-174.78 106.18,-168.07"/>
</a>
</g>
</g>
<!-- Node6 -->
<g id="Node000006" class="node">
<title>Node6</title>
<g id="a_Node000006"><a xlink:href="class_kit_1_1_system_1_1_semaphore.html" target="_top" xlink:title="This semaphore concrete class defines the interface for a Counting Semaphore.">
<polygon fill="white" stroke="#666666" points="294,-168.5 160,-168.5 160,-149.5 294,-149.5 294,-168.5"/>
<text text-anchor="middle" x="227" y="-156.5" font-family="Helvetica,sans-Serif" font-size="10.00">Kit::System::Semaphore</text>
</a>
</g>
</g>
<!-- Node1&#45;&gt;Node6 -->
<g id="edge5_Node000001_Node000006" class="edge">
<title>Node1&#45;&gt;Node6</title>
<g id="a_edge5_Node000001_Node000006"><a xlink:title=" ">
<path fill="none" stroke="#63b8ff" d="M134.39,-159C142.85,-159 151.47,-159 159.86,-159"/>
<polygon fill="#63b8ff" stroke="#63b8ff" points="134.16,-155.5 124.16,-159 134.16,-162.5 134.16,-155.5"/>
</a>
</g>
</g>
<!-- Node7 -->
<g id="Node000007" class="node">
<title>Node7</title>
<g id="a_Node000007"><a xlink:href="class_kit_1_1_system_1_1_thread.html" target="_top" xlink:title="This mostly abstract class defines the operations that can be performed on a thread.">
<polygon fill="white" stroke="#666666" points="283.5,-120.5 170.5,-120.5 170.5,-101.5 283.5,-101.5 283.5,-120.5"/>
<text text-anchor="middle" x="227" y="-108.5" font-family="Helvetica,sans-Serif" font-size="10.00">Kit::System::Thread</text>
</a>
</g>
</g>
<!-- Node1&#45;&gt;Node7 -->
<g id="edge6_Node000001_Node000007" class="edge">
<title>Node1&#45;&gt;Node7</title>
<g id="a_edge6_Node000001_Node000007"><a xlink:title=" ">
<path fill="none" stroke="#63b8ff" d="M105.34,-146.53C132.85,-138.43 168.16,-128.03 193.46,-120.58"/>
<polygon fill="#63b8ff" stroke="#63b8ff" points="104.2,-143.22 95.59,-149.4 106.18,-149.93 104.2,-143.22"/>
</a>
</g>
</g>
<!-- Node3 -->
<g id="Node000003" class="node">
<title>Node3</title>
<g id="a_Node000003"><a xlink:href="class_kit_1_1_event_queue_1_1_server.html" target="_top" xlink:title="This concrete class extends the Kit::System::EventLoop interface to include processing events from Ev...">
<polygon fill="white" stroke="#666666" points="472.5,-259.5 339.5,-259.5 339.5,-240.5 472.5,-240.5 472.5,-259.5"/>
<text text-anchor="middle" x="406" y="-247.5" font-family="Helvetica,sans-Serif" font-size="10.00">Kit::EventQueue::Server</text>
</a>
</g>
</g>
<!-- Node2&#45;&gt;Node3 -->
<g id="edge2_Node000002_Node000003" class="edge">
<title>Node2&#45;&gt;Node3</title>
<g id="a_edge2_Node000002_Node000003"><a xlink:title=" ">
<path fill="none" stroke="#63b8ff" d="M277.26,-218.97C305.22,-225.76 339.73,-234.14 365.83,-240.48"/>
<polygon fill="#63b8ff" stroke="#63b8ff" points="277.83,-215.5 267.28,-216.54 276.17,-222.3 277.83,-215.5"/>
</a>
</g>
</g>
<!-- Node5 -->
<g id="Node000005" class="node">
<title>Node5</title>
<g id="a_Node000005"><a xlink:href="class_kit_1_1_system_1_1_event_loop_with_p_scheduling.html" target="_top" xlink:title="This class extends the EventLoop class to add periodic scheduling to an event based &#39;thread&#39;.">
<polygon fill="white" stroke="#666666" points="482,-222 330,-222 330,-192 482,-192 482,-222"/>
<text text-anchor="start" x="338" y="-210" font-family="Helvetica,sans-Serif" font-size="10.00">Kit::System::EventLoopWith</text>
<text text-anchor="middle" x="406" y="-199" font-family="Helvetica,sans-Serif" font-size="10.00">PScheduling</text>
</a>
</g>
</g>
<!-- Node2&#45;&gt;Node5 -->
<g id="edge4_Node000002_Node000005" class="edge">
<title>Node2&#45;&gt;Node5</title>
<g id="a_edge4_Node000002_Node000005"><a xlink:title=" ">
<path fill="none" stroke="#63b8ff" d="M302.35,-207C311.47,-207 320.8,-207 329.94,-207"/>
<polygon fill="#63b8ff" stroke="#63b8ff" points="302.15,-203.5 292.15,-207 302.15,-210.5 302.15,-203.5"/>
</a>
</g>
</g>
<!-- Node4 -->
<g id="Node000004" class="node">
<title>Node4</title>
<g id="a_Node000004"><a xlink:href="class_kit_1_1_event_queue_1_1_with_periodic_scheduling.html" target="_top" xlink:title="This class extends the Kit::EventQueue::Server class to add periodic scheduling to an event based &#39;th...">
<polygon fill="white" stroke="#666666" points="681,-265 518,-265 518,-235 681,-235 681,-265"/>
<text text-anchor="start" x="526" y="-253" font-family="Helvetica,sans-Serif" font-size="10.00">Kit::EventQueue::WithPeriodic</text>
<text text-anchor="middle" x="599.5" y="-242" font-family="Helvetica,sans-Serif" font-size="10.00">Scheduling</text>
</a>
</g>
</g>
<!-- Node3&#45;&gt;Node4 -->
<g id="edge3_Node000003_Node000004" class="edge">
<title>Node3&#45;&gt;Node4</title>
<g id="a_edge3_Node000003_Node000004"><a xlink:title=" ">
<path fill="none" stroke="#63b8ff" d="M482.64,-250C494.16,-250 506.08,-250 517.71,-250"/>
<polygon fill="#63b8ff" stroke="#63b8ff" points="482.64,-246.5 472.64,-250 482.64,-253.5 482.64,-246.5"/>
</a>
</g>
</g>
<!-- Node8 -->
<g id="Node000008" class="node">
<title>Node8</title>
<g id="a_Node000008"><a xlink:href="class_kit_1_1_system_1_1_bare_metal_1_1_thread.html" target="_top" xlink:title="This concrete class implements a Thread object on a bare&#45;metal platform, i.e NO operating system,...">
<polygon fill="white" stroke="#666666" points="470.5,-174 341.5,-174 341.5,-144 470.5,-144 470.5,-174"/>
<text text-anchor="start" x="349.5" y="-162" font-family="Helvetica,sans-Serif" font-size="10.00">Kit::System::BareMetal</text>
<text text-anchor="middle" x="406" y="-151" font-family="Helvetica,sans-Serif" font-size="10.00">::Thread</text>
</a>
</g>
</g>
<!-- Node7&#45;&gt;Node8 -->
<g id="edge7_Node000007_Node000008" class="edge">
<title>Node7&#45;&gt;Node8</title>
<g id="a_edge7_Node000007_Node000008"><a xlink:title=" ">
<path fill="none" stroke="#63b8ff" d="M273.32,-123.29C296.51,-129.58 324.95,-137.29 349.46,-143.94"/>
<polygon fill="#63b8ff" stroke="#63b8ff" points="273.96,-119.84 263.39,-120.6 272.13,-126.59 273.96,-119.84"/>
</a>
</g>
</g>
<!-- Node9 -->
<g id="Node000009" class="node">
<title>Node9</title>
<g id="a_Node000009"><a xlink:href="class_kit_1_1_system_1_1_free_r_t_o_s_1_1_thread.html" target="_top" xlink:title="This concrete class implements a Thread object using FreeRTOS threads.">
<polygon fill="white" stroke="#666666" points="468.5,-126 343.5,-126 343.5,-96 468.5,-96 468.5,-126"/>
<text text-anchor="start" x="351.5" y="-114" font-family="Helvetica,sans-Serif" font-size="10.00">Kit::System::FreeRTOS</text>
<text text-anchor="middle" x="406" y="-103" font-family="Helvetica,sans-Serif" font-size="10.00">::Thread</text>
</a>
</g>
</g>
<!-- Node7&#45;&gt;Node9 -->
<g id="edge8_Node000007_Node000009" class="edge">
<title>Node7&#45;&gt;Node9</title>
<g id="a_edge8_Node000007_Node000009"><a xlink:title=" ">
<path fill="none" stroke="#63b8ff" d="M293.94,-111C310.08,-111 327.28,-111 343.21,-111"/>
<polygon fill="#63b8ff" stroke="#63b8ff" points="293.52,-107.5 283.52,-111 293.52,-114.5 293.52,-107.5"/>
</a>
</g>
</g>
<!-- Node10 -->
<g id="Node000010" class="node">
<title>Node10</title>
<g id="a_Node000010"><a xlink:href="class_kit_1_1_system_1_1_posix_1_1_thread.html" target="_top" xlink:title="This concrete class implements a Thread object using Posix threads.">
<polygon fill="white" stroke="#666666" points="458.5,-78 353.5,-78 353.5,-48 458.5,-48 458.5,-78"/>
<text text-anchor="start" x="361.5" y="-66" font-family="Helvetica,sans-Serif" font-size="10.00">Kit::System::Posix</text>
<text text-anchor="middle" x="406" y="-55" font-family="Helvetica,sans-Serif" font-size="10.00">::Thread</text>
</a>
</g>
</g>
<!-- Node7&#45;&gt;Node10 -->
<g id="edge9_Node000007_Node000010" class="edge">
<title>Node7&#45;&gt;Node10</title>
<g id="a_edge9_Node000007_Node000010"><a xlink:title=" ">
<path fill="none" stroke="#63b8ff" d="M273.13,-98.76C297.56,-92.14 327.84,-83.92 353.23,-77.04"/>
<polygon fill="#63b8ff" stroke="#63b8ff" points="272.13,-95.41 263.39,-101.4 273.96,-102.16 272.13,-95.41"/>
</a>
</g>
</g>
<!-- Node11 -->
<g id="Node000011" class="node">
<title>Node11</title>
<g id="a_Node000011"><a xlink:href="class_kit_1_1_system_1_1_win32_1_1_thread.html" target="_top" xlink:title="This concrete class implements a Thread object using Win32 threads.">
<polygon fill="white" stroke="#666666" points="461,-30 351,-30 351,0 461,0 461,-30"/>
<text text-anchor="start" x="359" y="-18" font-family="Helvetica,sans-Serif" font-size="10.00">Kit::System::Win32</text>
<text text-anchor="middle" x="406" y="-7" font-family="Helvetica,sans-Serif" font-size="10.00">::Thread</text>
</a>
</g>
</g>
<!-- Node7&#45;&gt;Node11 -->
<g id="edge10_Node000007_Node000011" class="edge">
<title>Node7&#45;&gt;Node11</title>
<g id="a_edge10_Node000007_Node000011"><a xlink:title=" ">
<path fill="none" stroke="#63b8ff" d="M247.07,-94.83C266.76,-78.81 298.9,-54.49 330,-39 336.61,-35.71 343.77,-32.74 350.95,-30.1"/>
<polygon fill="#63b8ff" stroke="#63b8ff" points="244.67,-92.27 239.2,-101.34 249.13,-97.67 244.67,-92.27"/>
</a>
</g>
</g>
</g>
</svg>
