<?xml version="1.0" encoding="UTF-8" standalone="no"?>
<!DOCTYPE svg PUBLIC "-//W3C//DTD SVG 1.1//EN"
 "http://www.w3.org/Graphics/SVG/1.1/DTD/svg11.dtd">
<!-- Generated by graphviz version 2.43.0 (0)
 -->
<!-- Title: Kit::System::PeriodicScheduler Pages: 1 -->
<svg width="342pt" height="93pt"
 viewBox="0.00 0.00 341.50 93.00" xmlns="http://www.w3.org/2000/svg" xmlns:xlink="http://www.w3.org/1999/xlink">
<g id="graph0" class="graph" transform="scale(1 1) rotate(0) translate(4 89)">
<title>Kit::System::PeriodicScheduler</title>
<!-- Node1 -->
<g id="Node000001" class="node">
<title>Node1</title>
<g id="a_Node000001"><a xlink:title="This concrete class is a &#39;policy&#39; object that is used to add polled based, cooperative monotonic sche...">
<polygon fill="#999999" stroke="#666666" points="252.5,-85 86.5,-85 86.5,-66 252.5,-66 252.5,-85"/>
<text text-anchor="middle" x="169.5" y="-73" font-family="Helvetica,sans-Serif" font-size="10.00">Kit::System::PeriodicScheduler</text>
</a>
</g>
</g>
<!-- Node2 -->
<g id="Node000002" class="node">
<title>Node2</title>
<g id="a_Node000002"><a xlink:href="class_kit_1_1_event_queue_1_1_with_periodic_scheduling.html" target="_top" xlink:title="This class extends the Kit::EventQueue::Server class to add periodic scheduling to an event based &#39;th...">
<polygon fill="white" stroke="#666666" points="163,-30 0,-30 0,0 163,0 163,-30"/>
<text text-anchor="start" x="8" y="-18" font-family="Helvetica,sans-Serif" font-size="10.00">Kit::EventQueue::WithPeriodic</text>
<text text-anchor="middle" x="81.5" y="-7" font-family="Helvetica,sans-Serif" font-size="10.00">Scheduling</text>
</a>
</g>
</g>
<!-- Node1&#45;&gt;Node2 -->
<g id="edge1_Node000001_Node000002" class="edge">
<title>Node1&#45;&gt;Node2</title>
<g id="a_edge1_Node000001_Node000002"><a xlink:title=" ">
<path fill="none" stroke="#63b8ff" d="M148.13,-60.29C134.34,-51.13 116.49,-39.26 102.73,-30.11"/>
<polygon fill="#63b8ff" stroke="#63b8ff" points="146.25,-63.25 156.52,-65.87 150.13,-57.42 146.25,-63.25"/>
</a>
</g>
</g>
<!-- Node3 -->
<g id="Node000003" class="node">
<title>Node3</title>
<g id="a_Node000003"><a xlink:href="class_kit_1_1_system_1_1_event_loop_with_p_scheduling.html" target="_top" xlink:title="This class extends the EventLoop class to add periodic scheduling to an event based &#39;thread&#39;.">
<polygon fill="white" stroke="#666666" points="333.5,-30 181.5,-30 181.5,0 333.5,0 333.5,-30"/>
<text text-anchor="start" x="189.5" y="-18" font-family="Helvetica,sans-Serif" font-size="10.00">Kit::System::EventLoopWith</text>
<text text-anchor="middle" x="257.5" y="-7" font-family="Helvetica,sans-Serif" font-size="10.00">PScheduling</text>
</a>
</g>
</g>
<!-- Node1&#45;&gt;Node3 -->
<g id="edge2_Node000001_Node000003" class="edge">
<title>Node1&#45;&gt;Node3</title>
<g id="a_edge2_Node000001_Node000003"><a xlink:title=" ">
<path fill="none" stroke="#63b8ff" d="M190.87,-60.29C204.66,-51.13 222.51,-39.26 236.27,-30.11"/>
<polygon fill="#63b8ff" stroke="#63b8ff" points="188.87,-57.42 182.48,-65.87 192.75,-63.25 188.87,-57.42"/>
</a>
</g>
</g>
</g>
</svg>
