<?xml version="1.0" encoding="UTF-8" standalone="no"?>
<!DOCTYPE svg PUBLIC "-//W3C//DTD SVG 1.1//EN"
 "http://www.w3.org/Graphics/SVG/1.1/DTD/svg11.dtd">
<!-- Generated by graphviz version 2.43.0 (0)
 -->
<!-- Title: Container::Lists::OnPeriod Pages: 1 -->
<svg width="224pt" height="262pt"
 viewBox="0.00 0.00 224.00 262.00" xmlns="http://www.w3.org/2000/svg" xmlns:xlink="http://www.w3.org/1999/xlink">
<g id="graph0" class="graph" transform="scale(1 1) rotate(0) translate(4 258)">
<title>Container::Lists::OnPeriod</title>
<!-- Node1 -->
<g id="Node000001" class="node">
<title>Node1</title>
<g id="a_Node000001"><a xlink:title="This concrete class implements an ON period.">
<polygon fill="#999999" stroke="#666666" points="143,-19 0,-19 0,0 143,0 143,-19"/>
<text text-anchor="middle" x="71.5" y="-7" font-family="Helvetica,sans-Serif" font-size="10.00">Container::Lists::OnPeriod</text>
</a>
</g>
</g>
<!-- Node2 -->
<g id="Node000002" class="node">
<title>Node2</title>
<g id="a_Node000002"><a xlink:href="class_container_1_1_lists_1_1_period.html" target="_top" xlink:title="This abstract class defines the interface for flash period. A series of periods make up a flash patte...">
<polygon fill="white" stroke="#666666" points="136,-75 7,-75 7,-56 136,-56 136,-75"/>
<text text-anchor="middle" x="71.5" y="-63" font-family="Helvetica,sans-Serif" font-size="10.00">Container::Lists::Period</text>
</a>
</g>
</g>
<!-- Node2&#45;&gt;Node1 -->
<g id="edge1_Node000001_Node000002" class="edge">
<title>Node2&#45;&gt;Node1</title>
<g id="a_edge1_Node000001_Node000002"><a xlink:title=" ">
<path fill="none" stroke="#63b8ff" d="M71.5,-45.3C71.5,-36.41 71.5,-26.28 71.5,-19.25"/>
<polygon fill="#63b8ff" stroke="#63b8ff" points="68,-45.58 71.5,-55.58 75,-45.58 68,-45.58"/>
</a>
</g>
</g>
<!-- Node3 -->
<g id="Node000003" class="node">
<title>Node3</title>
<g id="a_Node000003"><a xlink:href="class_kit_1_1_container_1_1_extended_list_item.html" target="_top" xlink:title="This class is used by the Container classes to implement a various types of DOUBLY linked containers.">
<polygon fill="white" stroke="#666666" points="139,-142 4,-142 4,-112 139,-112 139,-142"/>
<text text-anchor="start" x="12" y="-130" font-family="Helvetica,sans-Serif" font-size="10.00">Kit::Container::Extended</text>
<text text-anchor="middle" x="71.5" y="-119" font-family="Helvetica,sans-Serif" font-size="10.00">ListItem</text>
</a>
</g>
</g>
<!-- Node3&#45;&gt;Node2 -->
<g id="edge2_Node000002_Node000003" class="edge">
<title>Node3&#45;&gt;Node2</title>
<g id="a_edge2_Node000002_Node000003"><a xlink:title=" ">
<path fill="none" stroke="#63b8ff" d="M71.5,-101.79C71.5,-92.36 71.5,-82.15 71.5,-75.16"/>
<polygon fill="#63b8ff" stroke="#63b8ff" points="68,-101.9 71.5,-111.9 75,-101.9 68,-101.9"/>
</a>
</g>
</g>
<!-- Node3&#45;&gt;Node3 -->
<g id="edge6_Node000003_Node000003" class="edge">
<title>Node3&#45;&gt;Node3</title>
<g id="a_edge6_Node000003_Node000003"><a xlink:title=" ">
<path fill="none" stroke="#9a32cd" stroke-dasharray="5,2" d="M149.5,-131.15C154.19,-130.16 157,-128.78 157,-127 157,-124.16 149.8,-122.32 139.23,-121.5"/>
<polygon fill="#9a32cd" stroke="#9a32cd" points="148.69,-127.72 139.23,-132.5 149.6,-134.66 148.69,-127.72"/>
</a>
</g>
<text text-anchor="middle" x="186.5" y="-124.5" font-family="Helvetica,sans-Serif" font-size="10.00" fill="grey"> m_prevPtr_</text>
</g>
<!-- Node4 -->
<g id="Node000004" class="node">
<title>Node4</title>
<g id="a_Node000004"><a xlink:href="class_kit_1_1_container_1_1_list_item.html" target="_top" xlink:title="This class is used by the Container classes to implement a various types of linked lists containers.">
<polygon fill="white" stroke="#666666" points="136,-198 7,-198 7,-179 136,-179 136,-198"/>
<text text-anchor="middle" x="71.5" y="-186" font-family="Helvetica,sans-Serif" font-size="10.00">Kit::Container::ListItem</text>
</a>
</g>
</g>
<!-- Node4&#45;&gt;Node3 -->
<g id="edge3_Node000003_Node000004" class="edge">
<title>Node4&#45;&gt;Node3</title>
<g id="a_edge3_Node000003_Node000004"><a xlink:title=" ">
<path fill="none" stroke="#63b8ff" d="M71.5,-168.73C71.5,-160.09 71.5,-150 71.5,-142.02"/>
<polygon fill="#63b8ff" stroke="#63b8ff" points="68,-168.98 71.5,-178.98 75,-168.98 68,-168.98"/>
</a>
</g>
</g>
<!-- Node4&#45;&gt;Node4 -->
<g id="edge5_Node000004_Node000004" class="edge">
<title>Node4&#45;&gt;Node4</title>
<g id="a_edge5_Node000004_Node000004"><a xlink:title=" ">
<path fill="none" stroke="#9a32cd" stroke-dasharray="5,2" d="M146.46,-192.19C151.16,-191.32 154,-190.09 154,-188.5 154,-185.96 146.74,-184.34 136.18,-183.64"/>
<polygon fill="#9a32cd" stroke="#9a32cd" points="145.72,-188.75 136.18,-193.36 146.51,-195.7 145.72,-188.75"/>
</a>
</g>
<text text-anchor="middle" x="183.5" y="-186" font-family="Helvetica,sans-Serif" font-size="10.00" fill="grey"> m_nextPtr_</text>
</g>
<!-- Node5 -->
<g id="Node000005" class="node">
<title>Node5</title>
<g id="a_Node000005"><a xlink:href="class_kit_1_1_container_1_1_item.html" target="_top" xlink:title="This class is used by the Intrusive Container classes to enforce the semantic and item/element can be...">
<polygon fill="white" stroke="#666666" points="127.5,-254 15.5,-254 15.5,-235 127.5,-235 127.5,-254"/>
<text text-anchor="middle" x="71.5" y="-242" font-family="Helvetica,sans-Serif" font-size="10.00">Kit::Container::Item</text>
</a>
</g>
</g>
<!-- Node5&#45;&gt;Node4 -->
<g id="edge4_Node000004_Node000005" class="edge">
<title>Node5&#45;&gt;Node4</title>
<g id="a_edge4_Node000004_Node000005"><a xlink:title=" ">
<path fill="none" stroke="#63b8ff" d="M71.5,-224.3C71.5,-215.41 71.5,-205.28 71.5,-198.25"/>
<polygon fill="#63b8ff" stroke="#63b8ff" points="68,-224.58 71.5,-234.58 75,-224.58 68,-224.58"/>
</a>
</g>
</g>
</g>
</svg>
