<?xml version="1.0" encoding="UTF-8" standalone="no"?>
<!DOCTYPE svg PUBLIC "-//W3C//DTD SVG 1.1//EN"
 "http://www.w3.org/Graphics/SVG/1.1/DTD/svg11.dtd">
<!-- Generated by graphviz version 2.43.0 (0)
 -->
<!-- Title: Kit::Memory::Pool::BlockInfo Pages: 1 -->
<svg width="220pt" height="217pt"
 viewBox="0.00 0.00 220.00 217.00" xmlns="http://www.w3.org/2000/svg" xmlns:xlink="http://www.w3.org/1999/xlink">
<g id="graph0" class="graph" transform="scale(1 1) rotate(0) translate(4 213)">
<title>Kit::Memory::Pool::BlockInfo</title>
<!-- Node1 -->
<g id="Node000001" class="node">
<title>Node1</title>
<g id="a_Node000001"><a xlink:title="Helper class so I can put my blocks into to my standard containers.">
<polygon fill="#999999" stroke="#666666" points="122,-30 13,-30 13,0 122,0 122,-30"/>
<text text-anchor="start" x="21" y="-18" font-family="Helvetica,sans-Serif" font-size="10.00">Kit::Memory::Pool::</text>
<text text-anchor="middle" x="67.5" y="-7" font-family="Helvetica,sans-Serif" font-size="10.00">BlockInfo</text>
</a>
</g>
</g>
<!-- Node2 -->
<g id="Node000002" class="node">
<title>Node2</title>
<g id="a_Node000002"><a xlink:href="class_kit_1_1_container_1_1_extended_list_item.html" target="_top" xlink:title="This class is used by the Container classes to implement a various types of DOUBLY linked containers.">
<polygon fill="white" stroke="#666666" points="135,-97 0,-97 0,-67 135,-67 135,-97"/>
<text text-anchor="start" x="8" y="-85" font-family="Helvetica,sans-Serif" font-size="10.00">Kit::Container::Extended</text>
<text text-anchor="middle" x="67.5" y="-74" font-family="Helvetica,sans-Serif" font-size="10.00">ListItem</text>
</a>
</g>
</g>
<!-- Node2&#45;&gt;Node1 -->
<g id="edge1_Node000001_Node000002" class="edge">
<title>Node2&#45;&gt;Node1</title>
<g id="a_edge1_Node000001_Node000002"><a xlink:title=" ">
<path fill="none" stroke="#63b8ff" d="M67.5,-56.61C67.5,-47.65 67.5,-37.82 67.5,-30.08"/>
<polygon fill="#63b8ff" stroke="#63b8ff" points="64,-56.9 67.5,-66.9 71,-56.9 64,-56.9"/>
</a>
</g>
</g>
<!-- Node2&#45;&gt;Node2 -->
<g id="edge5_Node000002_Node000002" class="edge">
<title>Node2&#45;&gt;Node2</title>
<g id="a_edge5_Node000002_Node000002"><a xlink:title=" ">
<path fill="none" stroke="#9a32cd" stroke-dasharray="5,2" d="M145.5,-86.15C150.19,-85.16 153,-83.78 153,-82 153,-79.16 145.8,-77.32 135.23,-76.5"/>
<polygon fill="#9a32cd" stroke="#9a32cd" points="144.69,-82.72 135.23,-87.5 145.6,-89.66 144.69,-82.72"/>
</a>
</g>
<text text-anchor="middle" x="182.5" y="-79.5" font-family="Helvetica,sans-Serif" font-size="10.00" fill="grey"> m_prevPtr_</text>
</g>
<!-- Node3 -->
<g id="Node000003" class="node">
<title>Node3</title>
<g id="a_Node000003"><a xlink:href="class_kit_1_1_container_1_1_list_item.html" target="_top" xlink:title="This class is used by the Container classes to implement a various types of linked lists containers.">
<polygon fill="white" stroke="#666666" points="132,-153 3,-153 3,-134 132,-134 132,-153"/>
<text text-anchor="middle" x="67.5" y="-141" font-family="Helvetica,sans-Serif" font-size="10.00">Kit::Container::ListItem</text>
</a>
</g>
</g>
<!-- Node3&#45;&gt;Node2 -->
<g id="edge2_Node000002_Node000003" class="edge">
<title>Node3&#45;&gt;Node2</title>
<g id="a_edge2_Node000002_Node000003"><a xlink:title=" ">
<path fill="none" stroke="#63b8ff" d="M67.5,-123.73C67.5,-115.09 67.5,-105 67.5,-97.02"/>
<polygon fill="#63b8ff" stroke="#63b8ff" points="64,-123.98 67.5,-133.98 71,-123.98 64,-123.98"/>
</a>
</g>
</g>
<!-- Node3&#45;&gt;Node3 -->
<g id="edge4_Node000003_Node000003" class="edge">
<title>Node3&#45;&gt;Node3</title>
<g id="a_edge4_Node000003_Node000003"><a xlink:title=" ">
<path fill="none" stroke="#9a32cd" stroke-dasharray="5,2" d="M142.46,-147.19C147.16,-146.32 150,-145.09 150,-143.5 150,-140.96 142.74,-139.34 132.18,-138.64"/>
<polygon fill="#9a32cd" stroke="#9a32cd" points="141.72,-143.75 132.18,-148.36 142.51,-150.7 141.72,-143.75"/>
</a>
</g>
<text text-anchor="middle" x="179.5" y="-141" font-family="Helvetica,sans-Serif" font-size="10.00" fill="grey"> m_nextPtr_</text>
</g>
<!-- Node4 -->
<g id="Node000004" class="node">
<title>Node4</title>
<g id="a_Node000004"><a xlink:href="class_kit_1_1_container_1_1_item.html" target="_top" xlink:title="This class is used by the Intrusive Container classes to enforce the semantic and item/element can be...">
<polygon fill="white" stroke="#666666" points="123.5,-209 11.5,-209 11.5,-190 123.5,-190 123.5,-209"/>
<text text-anchor="middle" x="67.5" y="-197" font-family="Helvetica,sans-Serif" font-size="10.00">Kit::Container::Item</text>
</a>
</g>
</g>
<!-- Node4&#45;&gt;Node3 -->
<g id="edge3_Node000003_Node000004" class="edge">
<title>Node4&#45;&gt;Node3</title>
<g id="a_edge3_Node000003_Node000004"><a xlink:title=" ">
<path fill="none" stroke="#63b8ff" d="M67.5,-179.3C67.5,-170.41 67.5,-160.28 67.5,-153.25"/>
<polygon fill="#63b8ff" stroke="#63b8ff" points="64,-179.58 67.5,-189.58 71,-179.58 64,-179.58"/>
</a>
</g>
</g>
</g>
</svg>
