<?xml version="1.0" encoding="UTF-8" standalone="no"?>
<!DOCTYPE svg PUBLIC "-//W3C//DTD SVG 1.1//EN"
 "http://www.w3.org/Graphics/SVG/1.1/DTD/svg11.dtd">
<!-- Generated by graphviz version 2.43.0 (0)
 -->
<!-- Title: Kit::Dm::Mp::UnsignedInteger&lt; ELEMTYPE, MPTYPE &gt; Pages: 1 -->
<svg width="2145pt" height="182pt"
 viewBox="0.00 0.00 2145.00 182.00" xmlns="http://www.w3.org/2000/svg" xmlns:xlink="http://www.w3.org/1999/xlink">
<g id="graph0" class="graph" transform="scale(1 1) rotate(0) translate(4 178)">
<title>Kit::Dm::Mp::UnsignedInteger&lt; ELEMTYPE, MPTYPE &gt;</title>
<!-- Node1 -->
<g id="Node000001" class="node">
<title>Node1</title>
<g id="a_Node000001"><a xlink:title="This template class provides the to/from JSON methods for Unsigned Integers.">
<polygon fill="#999999" stroke="#666666" points="1686,-102 1525,-102 1525,-72 1686,-72 1686,-102"/>
<text text-anchor="start" x="1533" y="-90" font-family="Helvetica,sans-Serif" font-size="10.00">Kit::Dm::Mp::UnsignedInteger</text>
<text text-anchor="middle" x="1605.5" y="-79" font-family="Helvetica,sans-Serif" font-size="10.00">&lt; ELEMTYPE, MPTYPE &gt;</text>
</a>
</g>
</g>
<!-- Node11 -->
<g id="Node000011" class="node">
<title>Node11</title>
<g id="a_Node000011"><a xlink:href="class_kit_1_1_dm_1_1_mp_1_1_unsigned_integer.html" target="_top" xlink:title=" ">
<polygon fill="white" stroke="#666666" points="1987,-174 1826,-174 1826,-144 1987,-144 1987,-174"/>
<text text-anchor="start" x="1834" y="-162" font-family="Helvetica,sans-Serif" font-size="10.00">Kit::Dm::Mp::UnsignedInteger</text>
<text text-anchor="middle" x="1906.5" y="-151" font-family="Helvetica,sans-Serif" font-size="10.00">&lt; uint16_t, Uint16 &gt;</text>
</a>
</g>
</g>
<!-- Node1&#45;&gt;Node11 -->
<g id="edge10_Node000001_Node000011" class="edge">
<title>Node1&#45;&gt;Node11</title>
<g id="a_edge10_Node000001_Node000011"><a xlink:title=" ">
<path fill="none" stroke="orange" stroke-dasharray="5,2" d="M1662.1,-105.09C1675.74,-109.25 1690.34,-113.48 1704,-117 1743.8,-127.25 1788.5,-136.76 1825.67,-144.14"/>
<polygon fill="orange" stroke="orange" points="1662.96,-101.69 1652.38,-102.08 1660.9,-108.38 1662.96,-101.69"/>
</a>
</g>
<text text-anchor="middle" x="1756" y="-143" font-family="Helvetica,sans-Serif" font-size="10.00" fill="grey"> &lt; uint16_t, Uint16 &gt;</text>
</g>
<!-- Node13 -->
<g id="Node000013" class="node">
<title>Node13</title>
<g id="a_Node000013"><a xlink:href="class_kit_1_1_dm_1_1_mp_1_1_unsigned_integer.html" target="_top" xlink:title=" ">
<polygon fill="white" stroke="#666666" points="1987,-126 1826,-126 1826,-96 1987,-96 1987,-126"/>
<text text-anchor="start" x="1834" y="-114" font-family="Helvetica,sans-Serif" font-size="10.00">Kit::Dm::Mp::UnsignedInteger</text>
<text text-anchor="middle" x="1906.5" y="-103" font-family="Helvetica,sans-Serif" font-size="10.00">&lt; uint32_t, Uint32 &gt;</text>
</a>
</g>
</g>
<!-- Node1&#45;&gt;Node13 -->
<g id="edge12_Node000001_Node000013" class="edge">
<title>Node1&#45;&gt;Node13</title>
<g id="a_edge12_Node000001_Node000013"><a xlink:title=" ">
<path fill="none" stroke="orange" stroke-dasharray="5,2" d="M1696.28,-94.21C1737.54,-97.52 1786.07,-101.41 1825.99,-104.62"/>
<polygon fill="orange" stroke="orange" points="1696.48,-90.71 1686.23,-93.4 1695.92,-97.69 1696.48,-90.71"/>
</a>
</g>
<text text-anchor="middle" x="1756" y="-105" font-family="Helvetica,sans-Serif" font-size="10.00" fill="grey"> &lt; uint32_t, Uint32 &gt;</text>
</g>
<!-- Node15 -->
<g id="Node000015" class="node">
<title>Node15</title>
<g id="a_Node000015"><a xlink:href="class_kit_1_1_dm_1_1_mp_1_1_unsigned_integer.html" target="_top" xlink:title=" ">
<polygon fill="white" stroke="#666666" points="1987,-78 1826,-78 1826,-48 1987,-48 1987,-78"/>
<text text-anchor="start" x="1834" y="-66" font-family="Helvetica,sans-Serif" font-size="10.00">Kit::Dm::Mp::UnsignedInteger</text>
<text text-anchor="middle" x="1906.5" y="-55" font-family="Helvetica,sans-Serif" font-size="10.00">&lt; uint64_t, Uint64 &gt;</text>
</a>
</g>
</g>
<!-- Node1&#45;&gt;Node15 -->
<g id="edge14_Node000001_Node000015" class="edge">
<title>Node1&#45;&gt;Node15</title>
<g id="a_edge14_Node000001_Node000015"><a xlink:title=" ">
<path fill="none" stroke="orange" stroke-dasharray="5,2" d="M1696.28,-79.79C1737.54,-76.48 1786.07,-72.59 1825.99,-69.38"/>
<polygon fill="orange" stroke="orange" points="1695.92,-76.31 1686.23,-80.6 1696.48,-83.29 1695.92,-76.31"/>
</a>
</g>
<text text-anchor="middle" x="1756" y="-82" font-family="Helvetica,sans-Serif" font-size="10.00" fill="grey"> &lt; uint64_t, Uint64 &gt;</text>
</g>
<!-- Node17 -->
<g id="Node000017" class="node">
<title>Node17</title>
<g id="a_Node000017"><a xlink:href="class_kit_1_1_dm_1_1_mp_1_1_unsigned_integer.html" target="_top" xlink:title=" ">
<polygon fill="white" stroke="#666666" points="1987,-30 1826,-30 1826,0 1987,0 1987,-30"/>
<text text-anchor="start" x="1834" y="-18" font-family="Helvetica,sans-Serif" font-size="10.00">Kit::Dm::Mp::UnsignedInteger</text>
<text text-anchor="middle" x="1906.5" y="-7" font-family="Helvetica,sans-Serif" font-size="10.00">&lt; uint8_t, Uint8 &gt;</text>
</a>
</g>
</g>
<!-- Node1&#45;&gt;Node17 -->
<g id="edge16_Node000001_Node000017" class="edge">
<title>Node1&#45;&gt;Node17</title>
<g id="a_edge16_Node000001_Node000017"><a xlink:title=" ">
<path fill="none" stroke="orange" stroke-dasharray="5,2" d="M1662.1,-68.91C1675.74,-64.75 1690.34,-60.52 1704,-57 1743.8,-46.75 1788.5,-37.24 1825.67,-29.86"/>
<polygon fill="orange" stroke="orange" points="1660.9,-65.62 1652.38,-71.92 1662.96,-72.31 1660.9,-65.62"/>
</a>
</g>
<text text-anchor="middle" x="1756" y="-60" font-family="Helvetica,sans-Serif" font-size="10.00" fill="grey"> &lt; uint8_t, Uint8 &gt;</text>
</g>
<!-- Node2 -->
<g id="Node000002" class="node">
<title>Node2</title>
<g id="a_Node000002"><a xlink:href="class_kit_1_1_dm_1_1_mp_1_1_integer.html" target="_top" xlink:title="This template class provides a mostly concrete implementation for a Model Point who&#39;s data is a C int...">
<polygon fill="white" stroke="#666666" points="1488,-102 1354,-102 1354,-72 1488,-72 1488,-102"/>
<text text-anchor="start" x="1362" y="-90" font-family="Helvetica,sans-Serif" font-size="10.00">Kit::Dm::Mp::Integer</text>
<text text-anchor="middle" x="1421" y="-79" font-family="Helvetica,sans-Serif" font-size="10.00">&lt; ELEMTYPE, MPTYPE &gt;</text>
</a>
</g>
</g>
<!-- Node2&#45;&gt;Node1 -->
<g id="edge1_Node000001_Node000002" class="edge">
<title>Node2&#45;&gt;Node1</title>
<g id="a_edge1_Node000001_Node000002"><a xlink:title=" ">
<path fill="none" stroke="#63b8ff" d="M1498.34,-87C1507.12,-87 1516.09,-87 1524.91,-87"/>
<polygon fill="#63b8ff" stroke="#63b8ff" points="1498.14,-83.5 1488.14,-87 1498.14,-90.5 1498.14,-83.5"/>
</a>
</g>
</g>
<!-- Node3 -->
<g id="Node000003" class="node">
<title>Node3</title>
<g id="a_Node000003"><a xlink:href="class_kit_1_1_dm_1_1_mp_1_1_numeric_base.html" target="_top" xlink:title="This template class extends the PrimitiveType class to provide numeric operations.">
<polygon fill="white" stroke="#666666" points="1317,-102 1171,-102 1171,-72 1317,-72 1317,-102"/>
<text text-anchor="start" x="1179" y="-90" font-family="Helvetica,sans-Serif" font-size="10.00">Kit::Dm::Mp::NumericBase</text>
<text text-anchor="middle" x="1244" y="-79" font-family="Helvetica,sans-Serif" font-size="10.00">&lt; ELEMTYPE, MPTYPE &gt;</text>
</a>
</g>
</g>
<!-- Node3&#45;&gt;Node2 -->
<g id="edge2_Node000002_Node000003" class="edge">
<title>Node3&#45;&gt;Node2</title>
<g id="a_edge2_Node000002_Node000003"><a xlink:title=" ">
<path fill="none" stroke="#63b8ff" d="M1327.22,-87C1336.16,-87 1345.16,-87 1353.87,-87"/>
<polygon fill="#63b8ff" stroke="#63b8ff" points="1327.19,-83.5 1317.19,-87 1327.19,-90.5 1327.19,-83.5"/>
</a>
</g>
</g>
<!-- Node4 -->
<g id="Node000004" class="node">
<title>Node4</title>
<g id="a_Node000004"><a xlink:href="class_kit_1_1_dm_1_1_mp_1_1_primitive_type.html" target="_top" xlink:title="This template class extends the Scalar base class to data that is a C primitive type of type: &#39;ELEMTY...">
<polygon fill="white" stroke="#666666" points="1134,-102 987,-102 987,-72 1134,-72 1134,-102"/>
<text text-anchor="start" x="995" y="-90" font-family="Helvetica,sans-Serif" font-size="10.00">Kit::Dm::Mp::PrimitiveType</text>
<text text-anchor="middle" x="1060.5" y="-79" font-family="Helvetica,sans-Serif" font-size="10.00">&lt; ELEMTYPE, MPTYPE &gt;</text>
</a>
</g>
</g>
<!-- Node4&#45;&gt;Node3 -->
<g id="edge3_Node000003_Node000004" class="edge">
<title>Node4&#45;&gt;Node3</title>
<g id="a_edge3_Node000003_Node000004"><a xlink:title=" ">
<path fill="none" stroke="#63b8ff" d="M1144.06,-87C1153.02,-87 1162.08,-87 1170.9,-87"/>
<polygon fill="#63b8ff" stroke="#63b8ff" points="1144.02,-83.5 1134.02,-87 1144.02,-90.5 1144.02,-83.5"/>
</a>
</g>
</g>
<!-- Node5 -->
<g id="Node000005" class="node">
<title>Node5</title>
<g id="a_Node000005"><a xlink:href="class_kit_1_1_dm_1_1_mp_1_1_scalar.html" target="_top" xlink:title="This template class is partial concrete class that provides a basic implementation for a Model Point ...">
<polygon fill="white" stroke="#666666" points="950,-102 816,-102 816,-72 950,-72 950,-102"/>
<text text-anchor="start" x="824" y="-90" font-family="Helvetica,sans-Serif" font-size="10.00">Kit::Dm::Mp::Scalar</text>
<text text-anchor="middle" x="883" y="-79" font-family="Helvetica,sans-Serif" font-size="10.00">&lt; ELEMTYPE, MPTYPE &gt;</text>
</a>
</g>
</g>
<!-- Node5&#45;&gt;Node4 -->
<g id="edge4_Node000004_Node000005" class="edge">
<title>Node5&#45;&gt;Node4</title>
<g id="a_edge4_Node000004_Node000005"><a xlink:title=" ">
<path fill="none" stroke="#63b8ff" d="M960.54,-87C969.29,-87 978.2,-87 986.9,-87"/>
<polygon fill="#63b8ff" stroke="#63b8ff" points="960.35,-83.5 950.35,-87 960.35,-90.5 960.35,-83.5"/>
</a>
</g>
</g>
<!-- Node6 -->
<g id="Node000006" class="node">
<title>Node6</title>
<g id="a_Node000006"><a xlink:href="class_kit_1_1_dm_1_1_model_point_base.html" target="_top" xlink:title="This concrete class provide common infrastructure for a Model Point.">
<polygon fill="white" stroke="#666666" points="779,-96.5 641,-96.5 641,-77.5 779,-77.5 779,-96.5"/>
<text text-anchor="middle" x="710" y="-84.5" font-family="Helvetica,sans-Serif" font-size="10.00">Kit::Dm::ModelPointBase</text>
</a>
</g>
</g>
<!-- Node6&#45;&gt;Node5 -->
<g id="edge5_Node000005_Node000006" class="edge">
<title>Node6&#45;&gt;Node5</title>
<g id="a_edge5_Node000005_Node000006"><a xlink:title=" ">
<path fill="none" stroke="#63b8ff" d="M789.1,-87C798.03,-87 807.07,-87 815.83,-87"/>
<polygon fill="#63b8ff" stroke="#63b8ff" points="789.08,-83.5 779.08,-87 789.08,-90.5 789.08,-83.5"/>
</a>
</g>
</g>
<!-- Node7 -->
<g id="Node000007" class="node">
<title>Node7</title>
<g id="a_Node000007"><a xlink:href="class_kit_1_1_dm_1_1_i_model_point.html" target="_top" xlink:title="This mostly abstract class defines the interface for a Model Point.">
<polygon fill="white" stroke="#666666" points="604,-96.5 487,-96.5 487,-77.5 604,-77.5 604,-96.5"/>
<text text-anchor="middle" x="545.5" y="-84.5" font-family="Helvetica,sans-Serif" font-size="10.00">Kit::Dm::IModelPoint</text>
</a>
</g>
</g>
<!-- Node7&#45;&gt;Node6 -->
<g id="edge6_Node000006_Node000007" class="edge">
<title>Node7&#45;&gt;Node6</title>
<g id="a_edge6_Node000006_Node000007"><a xlink:title=" ">
<path fill="none" stroke="#63b8ff" d="M614.4,-87C623.16,-87 632.13,-87 640.88,-87"/>
<polygon fill="#63b8ff" stroke="#63b8ff" points="614.25,-83.5 604.25,-87 614.25,-90.5 614.25,-83.5"/>
</a>
</g>
</g>
<!-- Node8 -->
<g id="Node000008" class="node">
<title>Node8</title>
<g id="a_Node000008"><a xlink:href="class_kit_1_1_container_1_1_extended_list_item.html" target="_top" xlink:title="This class is used by the Container classes to implement a various types of DOUBLY linked containers.">
<polygon fill="white" stroke="#666666" points="450,-102 315,-102 315,-72 450,-72 450,-102"/>
<text text-anchor="start" x="323" y="-90" font-family="Helvetica,sans-Serif" font-size="10.00">Kit::Container::Extended</text>
<text text-anchor="middle" x="382.5" y="-79" font-family="Helvetica,sans-Serif" font-size="10.00">ListItem</text>
</a>
</g>
</g>
<!-- Node8&#45;&gt;Node7 -->
<g id="edge7_Node000007_Node000008" class="edge">
<title>Node8&#45;&gt;Node7</title>
<g id="a_edge7_Node000007_Node000008"><a xlink:title=" ">
<path fill="none" stroke="#63b8ff" d="M460.66,-87C469.46,-87 478.31,-87 486.8,-87"/>
<polygon fill="#63b8ff" stroke="#63b8ff" points="460.38,-83.5 450.38,-87 460.38,-90.5 460.38,-83.5"/>
</a>
</g>
</g>
<!-- Node9 -->
<g id="Node000009" class="node">
<title>Node9</title>
<g id="a_Node000009"><a xlink:href="class_kit_1_1_container_1_1_list_item.html" target="_top" xlink:title="This class is used by the Container classes to implement a various types of linked lists containers.">
<polygon fill="white" stroke="#666666" points="278,-96.5 149,-96.5 149,-77.5 278,-77.5 278,-96.5"/>
<text text-anchor="middle" x="213.5" y="-84.5" font-family="Helvetica,sans-Serif" font-size="10.00">Kit::Container::ListItem</text>
</a>
</g>
</g>
<!-- Node9&#45;&gt;Node8 -->
<g id="edge8_Node000008_Node000009" class="edge">
<title>Node9&#45;&gt;Node8</title>
<g id="a_edge8_Node000008_Node000009"><a xlink:title=" ">
<path fill="none" stroke="#63b8ff" d="M288.34,-87C297.12,-87 306.05,-87 314.73,-87"/>
<polygon fill="#63b8ff" stroke="#63b8ff" points="288.11,-83.5 278.11,-87 288.11,-90.5 288.11,-83.5"/>
</a>
</g>
</g>
<!-- Node10 -->
<g id="Node000010" class="node">
<title>Node10</title>
<g id="a_Node000010"><a xlink:href="class_kit_1_1_container_1_1_item.html" target="_top" xlink:title="This class is used by the Intrusive Container classes to enforce the semantic and item/element can be...">
<polygon fill="white" stroke="#666666" points="112,-96.5 0,-96.5 0,-77.5 112,-77.5 112,-96.5"/>
<text text-anchor="middle" x="56" y="-84.5" font-family="Helvetica,sans-Serif" font-size="10.00">Kit::Container::Item</text>
</a>
</g>
</g>
<!-- Node10&#45;&gt;Node9 -->
<g id="edge9_Node000009_Node000010" class="edge">
<title>Node10&#45;&gt;Node9</title>
<g id="a_edge9_Node000009_Node000010"><a xlink:title=" ">
<path fill="none" stroke="#63b8ff" d="M122.43,-87C131.2,-87 140.19,-87 148.93,-87"/>
<polygon fill="#63b8ff" stroke="#63b8ff" points="122.26,-83.5 112.26,-87 122.26,-90.5 122.26,-83.5"/>
</a>
</g>
</g>
<!-- Node12 -->
<g id="Node000012" class="node">
<title>Node12</title>
<g id="a_Node000012"><a xlink:href="class_kit_1_1_dm_1_1_mp_1_1_uint16.html" target="_top" xlink:title="This class provides a concrete implementation for a Point who&#39;s data is a uint16_t.">
<polygon fill="white" stroke="#666666" points="2137,-168.5 2024,-168.5 2024,-149.5 2137,-149.5 2137,-168.5"/>
<text text-anchor="middle" x="2080.5" y="-156.5" font-family="Helvetica,sans-Serif" font-size="10.00">Kit::Dm::Mp::Uint16</text>
</a>
</g>
</g>
<!-- Node11&#45;&gt;Node12 -->
<g id="edge11_Node000011_Node000012" class="edge">
<title>Node11&#45;&gt;Node12</title>
<g id="a_edge11_Node000011_Node000012"><a xlink:title=" ">
<path fill="none" stroke="#63b8ff" d="M1997.32,-159C2006.27,-159 2015.16,-159 2023.62,-159"/>
<polygon fill="#63b8ff" stroke="#63b8ff" points="1997.21,-155.5 1987.21,-159 1997.21,-162.5 1997.21,-155.5"/>
</a>
</g>
</g>
<!-- Node14 -->
<g id="Node000014" class="node">
<title>Node14</title>
<g id="a_Node000014"><a xlink:href="class_kit_1_1_dm_1_1_mp_1_1_uint32.html" target="_top" xlink:title="This class provides a concrete implementation for a Point who&#39;s data is a uint32_t.">
<polygon fill="white" stroke="#666666" points="2137,-120.5 2024,-120.5 2024,-101.5 2137,-101.5 2137,-120.5"/>
<text text-anchor="middle" x="2080.5" y="-108.5" font-family="Helvetica,sans-Serif" font-size="10.00">Kit::Dm::Mp::Uint32</text>
</a>
</g>
</g>
<!-- Node13&#45;&gt;Node14 -->
<g id="edge13_Node000013_Node000014" class="edge">
<title>Node13&#45;&gt;Node14</title>
<g id="a_edge13_Node000013_Node000014"><a xlink:title=" ">
<path fill="none" stroke="#63b8ff" d="M1997.32,-111C2006.27,-111 2015.16,-111 2023.62,-111"/>
<polygon fill="#63b8ff" stroke="#63b8ff" points="1997.21,-107.5 1987.21,-111 1997.21,-114.5 1997.21,-107.5"/>
</a>
</g>
</g>
<!-- Node16 -->
<g id="Node000016" class="node">
<title>Node16</title>
<g id="a_Node000016"><a xlink:href="class_kit_1_1_dm_1_1_mp_1_1_uint64.html" target="_top" xlink:title="This class provides a concrete implementation for a Point who&#39;s data is a uint64_t.">
<polygon fill="white" stroke="#666666" points="2137,-72.5 2024,-72.5 2024,-53.5 2137,-53.5 2137,-72.5"/>
<text text-anchor="middle" x="2080.5" y="-60.5" font-family="Helvetica,sans-Serif" font-size="10.00">Kit::Dm::Mp::Uint64</text>
</a>
</g>
</g>
<!-- Node15&#45;&gt;Node16 -->
<g id="edge15_Node000015_Node000016" class="edge">
<title>Node15&#45;&gt;Node16</title>
<g id="a_edge15_Node000015_Node000016"><a xlink:title=" ">
<path fill="none" stroke="#63b8ff" d="M1997.32,-63C2006.27,-63 2015.16,-63 2023.62,-63"/>
<polygon fill="#63b8ff" stroke="#63b8ff" points="1997.21,-59.5 1987.21,-63 1997.21,-66.5 1997.21,-59.5"/>
</a>
</g>
</g>
<!-- Node18 -->
<g id="Node000018" class="node">
<title>Node18</title>
<g id="a_Node000018"><a xlink:href="class_kit_1_1_dm_1_1_mp_1_1_uint8.html" target="_top" xlink:title="This class provides a concrete implementation for a Point who&#39;s data is a uint8_t.">
<polygon fill="white" stroke="#666666" points="2134,-24.5 2027,-24.5 2027,-5.5 2134,-5.5 2134,-24.5"/>
<text text-anchor="middle" x="2080.5" y="-12.5" font-family="Helvetica,sans-Serif" font-size="10.00">Kit::Dm::Mp::Uint8</text>
</a>
</g>
</g>
<!-- Node17&#45;&gt;Node18 -->
<g id="edge17_Node000017_Node000018" class="edge">
<title>Node17&#45;&gt;Node18</title>
<g id="a_edge17_Node000017_Node000018"><a xlink:title=" ">
<path fill="none" stroke="#63b8ff" d="M1997.24,-15C2007.28,-15 2017.24,-15 2026.59,-15"/>
<polygon fill="#63b8ff" stroke="#63b8ff" points="1997.21,-11.5 1987.21,-15 1997.21,-18.5 1997.21,-11.5"/>
</a>
</g>
</g>
</g>
</svg>
