<?xml version="1.0" encoding="UTF-8" standalone="no"?>
<!DOCTYPE svg PUBLIC "-//W3C//DTD SVG 1.1//EN"
 "http://www.w3.org/Graphics/SVG/1.1/DTD/svg11.dtd">
<!-- Generated by graphviz version 2.43.0 (0)
 -->
<!-- Title: Kit::System::TimerManager Pages: 1 -->
<svg width="407pt" height="448pt"
 viewBox="0.00 0.00 406.50 448.00" xmlns="http://www.w3.org/2000/svg" xmlns:xlink="http://www.w3.org/1999/xlink">
<g id="graph0" class="graph" transform="scale(1 1) rotate(0) translate(4 444)">
<title>Kit::System::TimerManager</title>
<!-- Node1 -->
<g id="Node000001" class="node">
<title>Node1</title>
<g id="a_Node000001"><a xlink:title="This concrete class implements manages a list of Software Timers.">
<polygon fill="#999999" stroke="#666666" points="198.5,-19 48.5,-19 48.5,0 198.5,0 198.5,-19"/>
<text text-anchor="middle" x="123.5" y="-7" font-family="Helvetica,sans-Serif" font-size="10.00">Kit::System::TimerManager</text>
</a>
</g>
</g>
<!-- Node2 -->
<g id="Node000002" class="node">
<title>Node2</title>
<g id="a_Node000002"><a xlink:href="class_kit_1_1_system_1_1_i_timing_source.html" target="_top" xlink:title="This abstract class defines the interface for a timing source.">
<polygon fill="white" stroke="#666666" points="149,-101.5 0,-101.5 0,-82.5 149,-82.5 149,-101.5"/>
<text text-anchor="middle" x="74.5" y="-89.5" font-family="Helvetica,sans-Serif" font-size="10.00">Kit::System::ITimingSource</text>
</a>
</g>
</g>
<!-- Node2&#45;&gt;Node1 -->
<g id="edge1_Node000001_Node000002" class="edge">
<title>Node2&#45;&gt;Node1</title>
<g id="a_edge1_Node000001_Node000002"><a xlink:title=" ">
<path fill="none" stroke="#63b8ff" d="M85.09,-73.6C95.27,-56.88 110.24,-32.29 118.15,-19.3"/>
<polygon fill="#63b8ff" stroke="#63b8ff" points="81.95,-72.02 79.74,-82.39 87.93,-75.66 81.95,-72.02"/>
</a>
</g>
</g>
<!-- Node3 -->
<g id="Node000003" class="node">
<title>Node3</title>
<g id="a_Node000003"><a xlink:href="class_kit_1_1_container_1_1_d_list.html" target="_top" xlink:title=" ">
<polygon fill="white" stroke="#666666" points="310,-107 167,-107 167,-77 310,-77 310,-107"/>
<text text-anchor="start" x="175" y="-95" font-family="Helvetica,sans-Serif" font-size="10.00">Kit::Container::DList</text>
<text text-anchor="middle" x="238.5" y="-84" font-family="Helvetica,sans-Serif" font-size="10.00">&lt; Kit::System::ICounter &gt;</text>
</a>
</g>
</g>
<!-- Node3&#45;&gt;Node1 -->
<g id="edge2_Node000001_Node000003" class="edge">
<title>Node3&#45;&gt;Node1</title>
<g id="a_edge2_Node000001_Node000003"><a xlink:title=" ">
<path fill="none" stroke="#9a32cd" stroke-dasharray="5,2" d="M210.16,-71.16C186.36,-54.5 153.5,-31.5 135.87,-19.16"/>
<polygon fill="#9a32cd" stroke="#9a32cd" points="208.27,-74.11 218.47,-76.98 212.28,-68.38 208.27,-74.11"/>
</a>
</g>
<text text-anchor="middle" x="233.5" y="-51" font-family="Helvetica,sans-Serif" font-size="10.00" fill="grey"> m_counters</text>
<text text-anchor="middle" x="233.5" y="-40" font-family="Helvetica,sans-Serif" font-size="10.00" fill="grey">m_pendingAttach</text>
</g>
<!-- Node4 -->
<g id="Node000004" class="node">
<title>Node4</title>
<g id="a_Node000004"><a xlink:href="class_kit_1_1_container_1_1_d_list_base.html" target="_top" xlink:title="This protected base class implements a NON&#45;TYPE&#45;SAFE a doubly linked list which maintains the orderin...">
<polygon fill="white" stroke="#666666" points="289.5,-240 151.5,-240 151.5,-221 289.5,-221 289.5,-240"/>
<text text-anchor="middle" x="220.5" y="-228" font-family="Helvetica,sans-Serif" font-size="10.00">Kit::Container::DListBase</text>
</a>
</g>
</g>
<!-- Node4&#45;&gt;Node3 -->
<g id="edge3_Node000003_Node000004" class="edge">
<title>Node4&#45;&gt;Node3</title>
<g id="a_edge3_Node000003_Node000004"><a xlink:title=" ">
<path fill="none" stroke="#63b8ff" d="M221.81,-210.4C222.98,-195.11 224.89,-173.12 227.5,-154 229.68,-138.01 233.08,-119.81 235.52,-107.49"/>
<polygon fill="#63b8ff" stroke="#63b8ff" points="218.3,-210.41 221.07,-220.64 225.29,-210.92 218.3,-210.41"/>
</a>
</g>
</g>
<!-- Node8 -->
<g id="Node000008" class="node">
<title>Node8</title>
<g id="a_Node000008"><a xlink:href="class_kit_1_1_container_1_1_d_list.html" target="_top" xlink:title="This template class implements a singly linked list which maintains the ordering imposed on it by the...">
<polygon fill="white" stroke="#666666" points="350.5,-184 236.5,-184 236.5,-154 350.5,-154 350.5,-184"/>
<text text-anchor="start" x="244.5" y="-172" font-family="Helvetica,sans-Serif" font-size="10.00">Kit::Container::DList</text>
<text text-anchor="middle" x="293.5" y="-161" font-family="Helvetica,sans-Serif" font-size="10.00">&lt; ITEM &gt;</text>
</a>
</g>
</g>
<!-- Node4&#45;&gt;Node8 -->
<g id="edge10_Node000008_Node000004" class="edge">
<title>Node4&#45;&gt;Node8</title>
<g id="a_edge10_Node000008_Node000004"><a xlink:title=" ">
<path fill="none" stroke="#63b8ff" d="M239,-214.42C250.46,-205.08 265.08,-193.16 276.3,-184.02"/>
<polygon fill="#63b8ff" stroke="#63b8ff" points="236.5,-211.94 230.96,-220.98 240.92,-217.37 236.5,-211.94"/>
</a>
</g>
</g>
<!-- Node5 -->
<g id="Node000005" class="node">
<title>Node5</title>
<g id="a_Node000005"><a xlink:href="class_kit_1_1_container_1_1_extended_list_item.html" target="_top" xlink:title="This class is used by the Container classes to implement a various types of DOUBLY linked containers.">
<polygon fill="white" stroke="#666666" points="288,-328 153,-328 153,-298 288,-298 288,-328"/>
<text text-anchor="start" x="161" y="-316" font-family="Helvetica,sans-Serif" font-size="10.00">Kit::Container::Extended</text>
<text text-anchor="middle" x="220.5" y="-305" font-family="Helvetica,sans-Serif" font-size="10.00">ListItem</text>
</a>
</g>
</g>
<!-- Node5&#45;&gt;Node4 -->
<g id="edge4_Node000004_Node000005" class="edge">
<title>Node5&#45;&gt;Node4</title>
<g id="a_edge4_Node000004_Node000005"><a xlink:title=" ">
<path fill="none" stroke="#9a32cd" stroke-dasharray="5,2" d="M220.5,-287.7C220.5,-271.7 220.5,-251.7 220.5,-240.38"/>
<polygon fill="#9a32cd" stroke="#9a32cd" points="217,-287.98 220.5,-297.98 224,-287.98 217,-287.98"/>
</a>
</g>
<text text-anchor="middle" x="248.5" y="-272" font-family="Helvetica,sans-Serif" font-size="10.00" fill="grey"> m_headPtr</text>
<text text-anchor="middle" x="248.5" y="-261" font-family="Helvetica,sans-Serif" font-size="10.00" fill="grey">m_tailPtr</text>
</g>
<!-- Node5&#45;&gt;Node5 -->
<g id="edge8_Node000005_Node000005" class="edge">
<title>Node5&#45;&gt;Node5</title>
<g id="a_edge8_Node000005_Node000005"><a xlink:title=" ">
<path fill="none" stroke="#9a32cd" stroke-dasharray="5,2" d="M298.5,-317.15C303.19,-316.16 306,-314.78 306,-313 306,-310.16 298.8,-308.32 288.23,-307.5"/>
<polygon fill="#9a32cd" stroke="#9a32cd" points="297.69,-313.72 288.23,-318.5 298.6,-320.66 297.69,-313.72"/>
</a>
</g>
<text text-anchor="middle" x="335.5" y="-310.5" font-family="Helvetica,sans-Serif" font-size="10.00" fill="grey"> m_prevPtr_</text>
</g>
<!-- Node6 -->
<g id="Node000006" class="node">
<title>Node6</title>
<g id="a_Node000006"><a xlink:href="class_kit_1_1_container_1_1_list_item.html" target="_top" xlink:title="This class is used by the Container classes to implement a various types of linked lists containers.">
<polygon fill="white" stroke="#666666" points="285,-384 156,-384 156,-365 285,-365 285,-384"/>
<text text-anchor="middle" x="220.5" y="-372" font-family="Helvetica,sans-Serif" font-size="10.00">Kit::Container::ListItem</text>
</a>
</g>
</g>
<!-- Node6&#45;&gt;Node5 -->
<g id="edge5_Node000005_Node000006" class="edge">
<title>Node6&#45;&gt;Node5</title>
<g id="a_edge5_Node000005_Node000006"><a xlink:title=" ">
<path fill="none" stroke="#63b8ff" d="M220.5,-354.73C220.5,-346.09 220.5,-336 220.5,-328.02"/>
<polygon fill="#63b8ff" stroke="#63b8ff" points="217,-354.98 220.5,-364.98 224,-354.98 217,-354.98"/>
</a>
</g>
</g>
<!-- Node6&#45;&gt;Node6 -->
<g id="edge7_Node000006_Node000006" class="edge">
<title>Node6&#45;&gt;Node6</title>
<g id="a_edge7_Node000006_Node000006"><a xlink:title=" ">
<path fill="none" stroke="#9a32cd" stroke-dasharray="5,2" d="M295.46,-378.19C300.16,-377.32 303,-376.09 303,-374.5 303,-371.96 295.74,-370.34 285.18,-369.64"/>
<polygon fill="#9a32cd" stroke="#9a32cd" points="294.72,-374.75 285.18,-379.36 295.51,-381.7 294.72,-374.75"/>
</a>
</g>
<text text-anchor="middle" x="332.5" y="-372" font-family="Helvetica,sans-Serif" font-size="10.00" fill="grey"> m_nextPtr_</text>
</g>
<!-- Node7 -->
<g id="Node000007" class="node">
<title>Node7</title>
<g id="a_Node000007"><a xlink:href="class_kit_1_1_container_1_1_item.html" target="_top" xlink:title="This class is used by the Intrusive Container classes to enforce the semantic and item/element can be...">
<polygon fill="white" stroke="#666666" points="276.5,-440 164.5,-440 164.5,-421 276.5,-421 276.5,-440"/>
<text text-anchor="middle" x="220.5" y="-428" font-family="Helvetica,sans-Serif" font-size="10.00">Kit::Container::Item</text>
</a>
</g>
</g>
<!-- Node7&#45;&gt;Node6 -->
<g id="edge6_Node000006_Node000007" class="edge">
<title>Node7&#45;&gt;Node6</title>
<g id="a_edge6_Node000006_Node000007"><a xlink:title=" ">
<path fill="none" stroke="#63b8ff" d="M220.5,-410.3C220.5,-401.41 220.5,-391.28 220.5,-384.25"/>
<polygon fill="#63b8ff" stroke="#63b8ff" points="217,-410.58 220.5,-420.58 224,-410.58 217,-410.58"/>
</a>
</g>
</g>
<!-- Node8&#45;&gt;Node3 -->
<g id="edge9_Node000003_Node000008" class="edge">
<title>Node8&#45;&gt;Node3</title>
<g id="a_edge9_Node000003_Node000008"><a xlink:title=" ">
<path fill="none" stroke="orange" stroke-dasharray="5,2" d="M277.17,-145.74C267.98,-133.2 256.78,-117.92 248.8,-107.04"/>
<polygon fill="orange" stroke="orange" points="274.42,-147.9 283.15,-153.89 280.06,-143.76 274.42,-147.9"/>
</a>
</g>
<text text-anchor="middle" x="333.5" y="-128" font-family="Helvetica,sans-Serif" font-size="10.00" fill="grey"> &lt; Kit::System::ICounter &gt;</text>
</g>
</g>
</svg>
