<?xml version="1.0" encoding="UTF-8" standalone="no"?>
<!DOCTYPE svg PUBLIC "-//W3C//DTD SVG 1.1//EN"
 "http://www.w3.org/Graphics/SVG/1.1/DTD/svg11.dtd">
<!-- Generated by graphviz version 2.43.0 (0)
 -->
<!-- Title: Kit::Container::SList&lt; ITEM &gt; Pages: 1 -->
<svg width="1124pt" height="86pt"
 viewBox="0.00 0.00 1124.00 86.00" xmlns="http://www.w3.org/2000/svg" xmlns:xlink="http://www.w3.org/1999/xlink">
<g id="graph0" class="graph" transform="scale(1 1) rotate(0) translate(4 82)">
<title>Kit::Container::SList&lt; ITEM &gt;</title>
<!-- Node1 -->
<g id="Node000001" class="node">
<title>Node1</title>
<g id="a_Node000001"><a xlink:title="This template class implements a singly linked list which maintains the ordering imposed on it by the...">
<polygon fill="#999999" stroke="#666666" points="287,-47 174,-47 174,-17 287,-17 287,-47"/>
<text text-anchor="start" x="182" y="-35" font-family="Helvetica,sans-Serif" font-size="10.00">Kit::Container::SList</text>
<text text-anchor="middle" x="230.5" y="-24" font-family="Helvetica,sans-Serif" font-size="10.00">&lt; ITEM &gt;</text>
</a>
</g>
</g>
<!-- Node3 -->
<g id="Node000003" class="node">
<title>Node3</title>
<g id="a_Node000003"><a xlink:href="class_kit_1_1_container_1_1_s_list.html" target="_top" xlink:title=" ">
<polygon fill="white" stroke="#666666" points="596,-78 483,-78 483,-48 596,-48 596,-78"/>
<text text-anchor="start" x="491" y="-66" font-family="Helvetica,sans-Serif" font-size="10.00">Kit::Container::SList</text>
<text text-anchor="middle" x="539.5" y="-55" font-family="Helvetica,sans-Serif" font-size="10.00">&lt; IMessage &gt;</text>
</a>
</g>
</g>
<!-- Node1&#45;&gt;Node3 -->
<g id="edge2_Node000001_Node000003" class="edge">
<title>Node1&#45;&gt;Node3</title>
<g id="a_edge2_Node000001_Node000003"><a xlink:title=" ">
<path fill="none" stroke="orange" stroke-dasharray="5,2" d="M297.13,-38.63C352.39,-44.21 430.55,-52.1 482.8,-57.38"/>
<polygon fill="orange" stroke="orange" points="297.4,-35.14 287.1,-37.61 296.69,-42.1 297.4,-35.14"/>
</a>
</g>
<text text-anchor="middle" x="375" y="-56" font-family="Helvetica,sans-Serif" font-size="10.00" fill="grey"> &lt; IMessage &gt;</text>
</g>
<!-- Node7 -->
<g id="Node000007" class="node">
<title>Node7</title>
<g id="a_Node000007"><a xlink:href="class_kit_1_1_container_1_1_s_list.html" target="_top" xlink:title=" ">
<polygon fill="white" stroke="#666666" points="616,-30 463,-30 463,0 616,0 616,-30"/>
<text text-anchor="start" x="471" y="-18" font-family="Helvetica,sans-Serif" font-size="10.00">Kit::Container::SList</text>
<text text-anchor="middle" x="539.5" y="-7" font-family="Helvetica,sans-Serif" font-size="10.00">&lt; Kit::System::IEventFlag &gt;</text>
</a>
</g>
</g>
<!-- Node1&#45;&gt;Node7 -->
<g id="edge6_Node000001_Node000007" class="edge">
<title>Node1&#45;&gt;Node7</title>
<g id="a_edge6_Node000001_Node000007"><a xlink:title=" ">
<path fill="none" stroke="orange" stroke-dasharray="5,2" d="M297.31,-23.66C299.91,-23.42 302.48,-23.2 305,-23 357.67,-18.88 417.19,-16.88 462.95,-15.91"/>
<polygon fill="orange" stroke="orange" points="296.84,-20.19 287.23,-24.66 297.53,-27.15 296.84,-20.19"/>
</a>
</g>
<text text-anchor="middle" x="375" y="-26" font-family="Helvetica,sans-Serif" font-size="10.00" fill="grey"> &lt; Kit::System::IEventFlag &gt;</text>
</g>
<!-- Node2 -->
<g id="Node000002" class="node">
<title>Node2</title>
<g id="a_Node000002"><a xlink:href="class_kit_1_1_container_1_1_s_list_base.html" target="_top" xlink:title="This protected base class implements a NON&#45;TYPE&#45;SAFE a singly linked list which maintains the orderin...">
<polygon fill="white" stroke="#666666" points="137,-41.5 0,-41.5 0,-22.5 137,-22.5 137,-41.5"/>
<text text-anchor="middle" x="68.5" y="-29.5" font-family="Helvetica,sans-Serif" font-size="10.00">Kit::Container::SListBase</text>
</a>
</g>
</g>
<!-- Node2&#45;&gt;Node1 -->
<g id="edge1_Node000001_Node000002" class="edge">
<title>Node2&#45;&gt;Node1</title>
<g id="a_edge1_Node000001_Node000002"><a xlink:title=" ">
<path fill="none" stroke="#63b8ff" d="M147.62,-32C156.4,-32 165.22,-32 173.63,-32"/>
<polygon fill="#63b8ff" stroke="#63b8ff" points="147.35,-28.5 137.35,-32 147.35,-35.5 147.35,-28.5"/>
</a>
</g>
</g>
<!-- Node4 -->
<g id="Node000004" class="node">
<title>Node4</title>
<g id="a_Node000004"><a xlink:href="class_kit_1_1_itc_1_1_mailbox.html" target="_top" xlink:title="This mailbox class implements an Inter Thread Communications message queue.">
<polygon fill="white" stroke="#666666" points="746,-72.5 653,-72.5 653,-53.5 746,-53.5 746,-72.5"/>
<text text-anchor="middle" x="699.5" y="-60.5" font-family="Helvetica,sans-Serif" font-size="10.00">Kit::Itc::Mailbox</text>
</a>
</g>
</g>
<!-- Node3&#45;&gt;Node4 -->
<g id="edge3_Node000003_Node000004" class="edge">
<title>Node3&#45;&gt;Node4</title>
<g id="a_edge3_Node000003_Node000004"><a xlink:title=" ">
<path fill="none" stroke="#63b8ff" d="M606.37,-63C622.04,-63 638.41,-63 652.93,-63"/>
<polygon fill="#63b8ff" stroke="#63b8ff" points="606.2,-59.5 596.2,-63 606.2,-66.5 606.2,-59.5"/>
</a>
</g>
</g>
<!-- Node5 -->
<g id="Node000005" class="node">
<title>Node5</title>
<g id="a_Node000005"><a xlink:href="class_kit_1_1_event_queue_1_1_server.html" target="_top" xlink:title="This concrete class extends the Kit::System::EventLoop interface to include processing events from Ev...">
<polygon fill="white" stroke="#666666" points="916,-72.5 783,-72.5 783,-53.5 916,-53.5 916,-72.5"/>
<text text-anchor="middle" x="849.5" y="-60.5" font-family="Helvetica,sans-Serif" font-size="10.00">Kit::EventQueue::Server</text>
</a>
</g>
</g>
<!-- Node4&#45;&gt;Node5 -->
<g id="edge4_Node000004_Node000005" class="edge">
<title>Node4&#45;&gt;Node5</title>
<g id="a_edge4_Node000004_Node000005"><a xlink:title=" ">
<path fill="none" stroke="#63b8ff" d="M756.16,-63C764.89,-63 773.98,-63 782.91,-63"/>
<polygon fill="#63b8ff" stroke="#63b8ff" points="756.11,-59.5 746.11,-63 756.11,-66.5 756.11,-59.5"/>
</a>
</g>
</g>
<!-- Node6 -->
<g id="Node000006" class="node">
<title>Node6</title>
<g id="a_Node000006"><a xlink:href="class_kit_1_1_event_queue_1_1_with_periodic_scheduling.html" target="_top" xlink:title="This class extends the Kit::EventQueue::Server class to add periodic scheduling to an event based &#39;th...">
<polygon fill="white" stroke="#666666" points="1116,-78 953,-78 953,-48 1116,-48 1116,-78"/>
<text text-anchor="start" x="961" y="-66" font-family="Helvetica,sans-Serif" font-size="10.00">Kit::EventQueue::WithPeriodic</text>
<text text-anchor="middle" x="1034.5" y="-55" font-family="Helvetica,sans-Serif" font-size="10.00">Scheduling</text>
</a>
</g>
</g>
<!-- Node5&#45;&gt;Node6 -->
<g id="edge5_Node000005_Node000006" class="edge">
<title>Node5&#45;&gt;Node6</title>
<g id="a_edge5_Node000005_Node000006"><a xlink:title=" ">
<path fill="none" stroke="#63b8ff" d="M926.22,-63C934.98,-63 943.93,-63 952.75,-63"/>
<polygon fill="#63b8ff" stroke="#63b8ff" points="926.05,-59.5 916.05,-63 926.05,-66.5 926.05,-59.5"/>
</a>
</g>
</g>
</g>
</svg>
