<?xml version="1.0" encoding="UTF-8" standalone="no"?>
<!DOCTYPE svg PUBLIC "-//W3C//DTD SVG 1.1//EN"
 "http://www.w3.org/Graphics/SVG/1.1/DTD/svg11.dtd">
<!-- Generated by graphviz version 2.43.0 (0)
 -->
<!-- Title: Dm::Transaction::Server Pages: 1 -->
<svg width="2874pt" height="324pt"
 viewBox="0.00 0.00 2874.00 324.00" xmlns="http://www.w3.org/2000/svg" xmlns:xlink="http://www.w3.org/1999/xlink">
<g id="graph0" class="graph" transform="scale(1 1) rotate(0) translate(4 320)">
<title>Dm::Transaction::Server</title>
<!-- Node1 -->
<g id="Node000001" class="node">
<title>Node1</title>
<g id="a_Node000001"><a xlink:title="This concrete class is a &#39;server&#39; that responds to requests from a &#39;client&#39; to generate.">
<polygon fill="#999999" stroke="#666666" points="2866,-160 2733,-160 2733,-141 2866,-141 2866,-160"/>
<text text-anchor="middle" x="2799.5" y="-148" font-family="Helvetica,sans-Serif" font-size="10.00">Dm::Transaction::Server</text>
</a>
</g>
</g>
<!-- Node2 -->
<g id="Node000002" class="node">
<title>Node2</title>
<g id="a_Node000002"><a xlink:href="class_kit_1_1_itc_1_1_open_close_sync.html" target="_top" xlink:title="This partially concrete class extends the ITC OpenSync class and implements the synchronous ITC close...">
<polygon fill="white" stroke="#666666" points="2636,-206 2506,-206 2506,-187 2636,-187 2636,-206"/>
<text text-anchor="middle" x="2571" y="-194" font-family="Helvetica,sans-Serif" font-size="10.00">Kit::Itc::OpenCloseSync</text>
</a>
</g>
</g>
<!-- Node2&#45;&gt;Node1 -->
<g id="edge1_Node000001_Node000002" class="edge">
<title>Node2&#45;&gt;Node1</title>
<g id="a_edge1_Node000001_Node000002"><a xlink:title=" ">
<path fill="none" stroke="#63b8ff" d="M2628.8,-184.96C2666.71,-177.26 2715.96,-167.26 2751.63,-160.02"/>
<polygon fill="#63b8ff" stroke="#63b8ff" points="2628.03,-181.55 2618.93,-186.97 2629.43,-188.41 2628.03,-181.55"/>
</a>
</g>
</g>
<!-- Node3 -->
<g id="Node000003" class="node">
<title>Node3</title>
<g id="a_Node000003"><a xlink:href="class_kit_1_1_itc_1_1_open_sync.html" target="_top" xlink:title="This partially concrete class implements the synchronous ITC open call for the OpenApi.">
<polygon fill="white" stroke="#666666" points="2382.5,-278 2279.5,-278 2279.5,-259 2382.5,-259 2382.5,-278"/>
<text text-anchor="middle" x="2331" y="-266" font-family="Helvetica,sans-Serif" font-size="10.00">Kit::Itc::OpenSync</text>
</a>
</g>
</g>
<!-- Node3&#45;&gt;Node2 -->
<g id="edge2_Node000002_Node000003" class="edge">
<title>Node3&#45;&gt;Node2</title>
<g id="a_edge2_Node000002_Node000003"><a xlink:title=" ">
<path fill="none" stroke="#63b8ff" d="M2374.92,-256.14C2403.35,-247.89 2441.46,-236.72 2475,-226.5 2496.84,-219.85 2521.41,-212.08 2540.1,-206.11"/>
<polygon fill="#63b8ff" stroke="#63b8ff" points="2373.92,-252.79 2365.29,-258.93 2375.86,-259.51 2373.92,-252.79"/>
</a>
</g>
</g>
<!-- Node4 -->
<g id="Node000004" class="node">
<title>Node4</title>
<g id="a_Node000004"><a xlink:href="class_kit_1_1_itc_1_1_i_open_request.html" target="_top" xlink:title="This abstract class define message types and payloads for a set of ITC services.">
<polygon fill="white" stroke="#666666" points="2138,-316 2016,-316 2016,-297 2138,-297 2138,-316"/>
<text text-anchor="middle" x="2077" y="-304" font-family="Helvetica,sans-Serif" font-size="10.00">Kit::Itc::IOpenRequest</text>
</a>
</g>
</g>
<!-- Node4&#45;&gt;Node3 -->
<g id="edge3_Node000003_Node000004" class="edge">
<title>Node4&#45;&gt;Node3</title>
<g id="a_edge3_Node000003_Node000004"><a xlink:title=" ">
<path fill="none" stroke="#63b8ff" d="M2148.3,-296.83C2178.41,-292.59 2213.96,-287.46 2246,-282.5 2256.81,-280.83 2268.39,-278.95 2279.39,-277.13"/>
<polygon fill="#63b8ff" stroke="#63b8ff" points="2147.73,-293.37 2138.31,-298.23 2148.7,-300.31 2147.73,-293.37"/>
</a>
</g>
</g>
<!-- Node5 -->
<g id="Node000005" class="node">
<title>Node5</title>
<g id="a_Node000005"><a xlink:href="class_kit_1_1_itc_1_1_i_open.html" target="_top" xlink:title="This abstract class defines an open interface.">
<polygon fill="white" stroke="#666666" points="2118.5,-279 2035.5,-279 2035.5,-260 2118.5,-260 2118.5,-279"/>
<text text-anchor="middle" x="2077" y="-267" font-family="Helvetica,sans-Serif" font-size="10.00">Kit::Itc::IOpen</text>
</a>
</g>
</g>
<!-- Node5&#45;&gt;Node3 -->
<g id="edge4_Node000003_Node000005" class="edge">
<title>Node5&#45;&gt;Node3</title>
<g id="a_edge4_Node000003_Node000005"><a xlink:title=" ">
<path fill="none" stroke="#63b8ff" d="M2128.91,-269.3C2172.71,-269.12 2235.55,-268.87 2279.29,-268.7"/>
<polygon fill="#63b8ff" stroke="#63b8ff" points="2128.75,-265.8 2118.77,-269.34 2128.78,-272.8 2128.75,-265.8"/>
</a>
</g>
</g>
<!-- Node6 -->
<g id="Node000006" class="node">
<title>Node6</title>
<g id="a_Node000006"><a xlink:href="class_kit_1_1_event_queue_1_1_i_queue.html" target="_top" xlink:title="This abstract class represents an Event Queue where events can be delivered to.">
<polygon fill="white" stroke="#666666" points="2145,-242 2009,-242 2009,-223 2145,-223 2145,-242"/>
<text text-anchor="middle" x="2077" y="-230" font-family="Helvetica,sans-Serif" font-size="10.00">Kit::EventQueue::IQueue</text>
</a>
</g>
</g>
<!-- Node6&#45;&gt;Node3 -->
<g id="edge5_Node000003_Node000006" class="edge">
<title>Node6&#45;&gt;Node3</title>
<g id="a_edge5_Node000003_Node000006"><a xlink:title=" ">
<path fill="none" stroke="#9a32cd" stroke-dasharray="5,2" d="M2155.08,-241.28C2183.68,-244.76 2216.36,-249 2246,-253.5 2256.84,-255.14 2268.43,-257.09 2279.43,-259.03"/>
<polygon fill="#9a32cd" stroke="#9a32cd" points="2155.49,-237.8 2145.15,-240.08 2154.65,-244.75 2155.49,-237.8"/>
</a>
</g>
<text text-anchor="middle" x="2207" y="-256.5" font-family="Helvetica,sans-Serif" font-size="10.00" fill="grey"> m_eventQueue</text>
</g>
<!-- Node7 -->
<g id="Node000007" class="node">
<title>Node7</title>
<g id="a_Node000007"><a xlink:title=" ">
<polygon fill="white" stroke="#bfbfbf" points="1827,-252.5 1654,-252.5 1654,-222.5 1827,-222.5 1827,-252.5"/>
<text text-anchor="start" x="1662" y="-240.5" font-family="Helvetica,sans-Serif" font-size="10.00">KIT_EVENT_QUEUE_SUPPORTED</text>
<text text-anchor="middle" x="1740.5" y="-229.5" font-family="Helvetica,sans-Serif" font-size="10.00">_EVENT_TYPES</text>
</a>
</g>
</g>
<!-- Node7&#45;&gt;Node6 -->
<g id="edge6_Node000006_Node000007" class="edge">
<title>Node7&#45;&gt;Node6</title>
<g id="a_edge6_Node000006_Node000007"><a xlink:title=" ">
<path fill="none" stroke="#8b1a1a" d="M1837.31,-236.07C1892.21,-235.25 1959.77,-234.24 2008.98,-233.5"/>
<polygon fill="#8b1a1a" stroke="#8b1a1a" points="1837.15,-232.57 1827.21,-236.22 1837.26,-239.57 1837.15,-232.57"/>
</a>
</g>
</g>
<!-- Node8 -->
<g id="Node000008" class="node">
<title>Node8</title>
<g id="a_Node000008"><a xlink:href="class_kit_1_1_itc_1_1_i_close_request.html" target="_top" xlink:title="This abstract class defines message types and payloads for a set of ITC services.">
<polygon fill="white" stroke="#666666" points="2393,-239 2269,-239 2269,-220 2393,-220 2393,-239"/>
<text text-anchor="middle" x="2331" y="-227" font-family="Helvetica,sans-Serif" font-size="10.00">Kit::Itc::ICloseRequest</text>
</a>
</g>
</g>
<!-- Node8&#45;&gt;Node2 -->
<g id="edge7_Node000002_Node000008" class="edge">
<title>Node8&#45;&gt;Node2</title>
<g id="a_edge7_Node000002_Node000008"><a xlink:title=" ">
<path fill="none" stroke="#63b8ff" d="M2403.61,-219.57C2436.03,-215.08 2474.07,-209.8 2505.59,-205.43"/>
<polygon fill="#63b8ff" stroke="#63b8ff" points="2402.72,-216.16 2393.29,-221 2403.68,-223.1 2402.72,-216.16"/>
</a>
</g>
</g>
<!-- Node9 -->
<g id="Node000009" class="node">
<title>Node9</title>
<g id="a_Node000009"><a xlink:href="class_kit_1_1_itc_1_1_i_close.html" target="_top" xlink:title="This abstract class defines an close interface.">
<polygon fill="white" stroke="#666666" points="2373,-202 2289,-202 2289,-183 2373,-183 2373,-202"/>
<text text-anchor="middle" x="2331" y="-190" font-family="Helvetica,sans-Serif" font-size="10.00">Kit::Itc::IClose</text>
</a>
</g>
</g>
<!-- Node9&#45;&gt;Node2 -->
<g id="edge8_Node000002_Node000009" class="edge">
<title>Node9&#45;&gt;Node2</title>
<g id="a_edge8_Node000002_Node000009"><a xlink:title=" ">
<path fill="none" stroke="#63b8ff" d="M2383.41,-193.36C2419.21,-193.97 2467.23,-194.77 2505.59,-195.42"/>
<polygon fill="#63b8ff" stroke="#63b8ff" points="2383.24,-189.86 2373.18,-193.19 2383.12,-196.86 2383.24,-189.86"/>
</a>
</g>
</g>
<!-- Node10 -->
<g id="Node000010" class="node">
<title>Node10</title>
<g id="a_Node000010"><a xlink:href="class_dm_1_1_transaction_1_1_mp_foo.html" target="_top" xlink:title="This concreate class implements a type safe MP for the data structure: Foo_T.">
<polygon fill="white" stroke="#666666" points="2398,-160 2264,-160 2264,-141 2398,-141 2398,-160"/>
<text text-anchor="middle" x="2331" y="-148" font-family="Helvetica,sans-Serif" font-size="10.00">Dm::Transaction::MpFoo</text>
</a>
</g>
</g>
<!-- Node10&#45;&gt;Node1 -->
<g id="edge9_Node000001_Node000010" class="edge">
<title>Node10&#45;&gt;Node1</title>
<g id="a_edge9_Node000001_Node000010"><a xlink:title=" ">
<path fill="none" stroke="#9a32cd" stroke-dasharray="5,2" d="M2408.52,-150.5C2498.81,-150.5 2647.44,-150.5 2732.76,-150.5"/>
<polygon fill="#9a32cd" stroke="#9a32cd" points="2408.34,-147 2398.34,-150.5 2408.34,-154 2408.34,-147"/>
</a>
</g>
<text text-anchor="middle" x="2571" y="-153.5" font-family="Helvetica,sans-Serif" font-size="10.00" fill="grey"> m_mpFoo</text>
</g>
<!-- Node27 -->
<g id="Node000027" class="node">
<title>Node27</title>
<g id="a_Node000027"><a xlink:href="class_kit_1_1_dm_1_1_observer_callback.html" target="_top" xlink:title=" ">
<polygon fill="white" stroke="#666666" points="2649,-110.5 2493,-110.5 2493,-80.5 2649,-80.5 2649,-110.5"/>
<text text-anchor="start" x="2501" y="-98.5" font-family="Helvetica,sans-Serif" font-size="10.00">Kit::Dm::ObserverCallback</text>
<text text-anchor="middle" x="2571" y="-87.5" font-family="Helvetica,sans-Serif" font-size="10.00">&lt; Dm::Transaction::MpFoo &gt;</text>
</a>
</g>
</g>
<!-- Node10&#45;&gt;Node27 -->
<g id="edge38_Node000027_Node000010" class="edge">
<title>Node10&#45;&gt;Node27</title>
<g id="a_edge38_Node000027_Node000010"><a xlink:title=" ">
<path fill="none" stroke="#9a32cd" stroke-dasharray="5,2" d="M2371.53,-137.88C2385.5,-133.64 2401.37,-129.09 2416,-125.5 2440.87,-119.39 2468.23,-113.73 2492.91,-109"/>
<polygon fill="#9a32cd" stroke="#9a32cd" points="2370.27,-134.6 2361.74,-140.88 2372.33,-141.29 2370.27,-134.6"/>
</a>
</g>
<text text-anchor="middle" x="2445.5" y="-128.5" font-family="Helvetica,sans-Serif" font-size="10.00" fill="grey"> m_callback</text>
</g>
<!-- Node11 -->
<g id="Node000011" class="node">
<title>Node11</title>
<g id="a_Node000011"><a xlink:href="class_kit_1_1_dm_1_1_mp_1_1_scalar.html" target="_top" xlink:title=" ">
<polygon fill="white" stroke="#666666" points="2132,-165.5 2022,-165.5 2022,-135.5 2132,-135.5 2132,-165.5"/>
<text text-anchor="start" x="2030" y="-153.5" font-family="Helvetica,sans-Serif" font-size="10.00">Kit::Dm::Mp::Scalar</text>
<text text-anchor="middle" x="2077" y="-142.5" font-family="Helvetica,sans-Serif" font-size="10.00">&lt; Foo_T, MpFoo &gt;</text>
</a>
</g>
</g>
<!-- Node11&#45;&gt;Node10 -->
<g id="edge10_Node000010_Node000011" class="edge">
<title>Node11&#45;&gt;Node10</title>
<g id="a_edge10_Node000010_Node000011"><a xlink:title=" ">
<path fill="none" stroke="#63b8ff" d="M2142.3,-150.5C2179.56,-150.5 2226.37,-150.5 2263.93,-150.5"/>
<polygon fill="#63b8ff" stroke="#63b8ff" points="2142.06,-147 2132.06,-150.5 2142.06,-154 2142.06,-147"/>
</a>
</g>
</g>
<!-- Node12 -->
<g id="Node000012" class="node">
<title>Node12</title>
<g id="a_Node000012"><a xlink:href="class_kit_1_1_dm_1_1_model_point_base.html" target="_top" xlink:title="This concrete class provide common infrastructure for a Model Point.">
<polygon fill="white" stroke="#666666" points="1559,-168 1421,-168 1421,-149 1559,-149 1559,-168"/>
<text text-anchor="middle" x="1490" y="-156" font-family="Helvetica,sans-Serif" font-size="10.00">Kit::Dm::ModelPointBase</text>
</a>
</g>
</g>
<!-- Node12&#45;&gt;Node11 -->
<g id="edge11_Node000011_Node000012" class="edge">
<title>Node12&#45;&gt;Node11</title>
<g id="a_edge11_Node000011_Node000012"><a xlink:title=" ">
<path fill="none" stroke="#63b8ff" d="M1569.18,-168.53C1596.02,-171.48 1626.28,-174.24 1654,-175.5 1801.47,-182.19 1839.34,-182.29 1986,-165.5 1997.65,-164.17 2010.08,-162.35 2021.87,-160.44"/>
<polygon fill="#63b8ff" stroke="#63b8ff" points="1569.4,-165.03 1559.07,-167.4 1568.62,-171.99 1569.4,-165.03"/>
</a>
</g>
</g>
<!-- Node26 -->
<g id="Node000026" class="node">
<title>Node26</title>
<g id="a_Node000026"><a xlink:href="class_kit_1_1_dm_1_1_mp_1_1_scalar.html" target="_top" xlink:title="This template class is partial concrete class that provides a basic implementation for a Model Point ...">
<polygon fill="white" stroke="#666666" points="1807.5,-166.5 1673.5,-166.5 1673.5,-136.5 1807.5,-136.5 1807.5,-166.5"/>
<text text-anchor="start" x="1681.5" y="-154.5" font-family="Helvetica,sans-Serif" font-size="10.00">Kit::Dm::Mp::Scalar</text>
<text text-anchor="middle" x="1740.5" y="-143.5" font-family="Helvetica,sans-Serif" font-size="10.00">&lt; ELEMTYPE, MPTYPE &gt;</text>
</a>
</g>
</g>
<!-- Node12&#45;&gt;Node26 -->
<g id="edge30_Node000026_Node000012" class="edge">
<title>Node12&#45;&gt;Node26</title>
<g id="a_edge30_Node000026_Node000012"><a xlink:title=" ">
<path fill="none" stroke="#63b8ff" d="M1569.4,-156.29C1602.75,-155.35 1641.22,-154.27 1673.14,-153.37"/>
<polygon fill="#63b8ff" stroke="#63b8ff" points="1569.13,-152.8 1559.23,-156.58 1569.33,-159.79 1569.13,-152.8"/>
</a>
</g>
</g>
<!-- Node13 -->
<g id="Node000013" class="node">
<title>Node13</title>
<g id="a_Node000013"><a xlink:href="class_kit_1_1_dm_1_1_i_model_point.html" target="_top" xlink:title="This mostly abstract class defines the interface for a Model Point.">
<polygon fill="white" stroke="#666666" points="1277,-158 1160,-158 1160,-139 1277,-139 1277,-158"/>
<text text-anchor="middle" x="1218.5" y="-146" font-family="Helvetica,sans-Serif" font-size="10.00">Kit::Dm::IModelPoint</text>
</a>
</g>
</g>
<!-- Node13&#45;&gt;Node12 -->
<g id="edge12_Node000012_Node000013" class="edge">
<title>Node13&#45;&gt;Node12</title>
<g id="a_edge12_Node000012_Node000013"><a xlink:title=" ">
<path fill="none" stroke="#63b8ff" d="M1287.44,-151.02C1328.23,-152.53 1379.96,-154.45 1420.8,-155.97"/>
<polygon fill="#63b8ff" stroke="#63b8ff" points="1287.44,-147.52 1277.31,-150.65 1287.18,-154.51 1287.44,-147.52"/>
</a>
</g>
</g>
<!-- Node29 -->
<g id="Node000029" class="node">
<title>Node29</title>
<g id="a_Node000029"><a xlink:href="class_kit_1_1_dm_1_1_observer_base.html" target="_top" xlink:title="This mostly concrete class defines the Observer interface &#45; for change notifications &#45; to a Model Poi...">
<polygon fill="white" stroke="#666666" points="1554,-62 1426,-62 1426,-43 1554,-43 1554,-62"/>
<text text-anchor="middle" x="1490" y="-50" font-family="Helvetica,sans-Serif" font-size="10.00">Kit::Dm::ObserverBase</text>
</a>
</g>
</g>
<!-- Node13&#45;&gt;Node29 -->
<g id="edge36_Node000029_Node000013" class="edge">
<title>Node13&#45;&gt;Node29</title>
<g id="a_edge36_Node000029_Node000013"><a xlink:title=" ">
<path fill="none" stroke="#9a32cd" stroke-dasharray="5,2" d="M1287.12,-137.32C1330.43,-129.61 1382.28,-119.23 1403,-110.5 1432.37,-98.12 1462.24,-75.13 1477.88,-62.13"/>
<polygon fill="#9a32cd" stroke="#9a32cd" points="1286.41,-133.89 1277.17,-139.07 1287.62,-140.78 1286.41,-133.89"/>
</a>
</g>
<text text-anchor="middle" x="1355" y="-135.5" font-family="Helvetica,sans-Serif" font-size="10.00" fill="grey"> m_point</text>
</g>
<!-- Node14 -->
<g id="Node000014" class="node">
<title>Node14</title>
<g id="a_Node000014"><a xlink:href="class_kit_1_1_container_1_1_keyed_item.html" target="_top" xlink:title="This abstract class represents a item that can be used with containers that have a concept of Key&#45;Val...">
<polygon fill="white" stroke="#666666" points="840,-148 698,-148 698,-129 840,-129 840,-148"/>
<text text-anchor="middle" x="769" y="-136" font-family="Helvetica,sans-Serif" font-size="10.00">Kit::Container::KeyedItem</text>
</a>
</g>
</g>
<!-- Node14&#45;&gt;Node13 -->
<g id="edge13_Node000013_Node000014" class="edge">
<title>Node14&#45;&gt;Node13</title>
<g id="a_edge13_Node000013_Node000014"><a xlink:title=" ">
<path fill="none" stroke="#63b8ff" d="M850.48,-140.3C939.66,-142.29 1081.23,-145.45 1159.94,-147.21"/>
<polygon fill="#63b8ff" stroke="#63b8ff" points="850.49,-136.8 840.41,-140.07 850.33,-143.8 850.49,-136.8"/>
</a>
</g>
</g>
<!-- Node15 -->
<g id="Node000015" class="node">
<title>Node15</title>
<g id="a_Node000015"><a xlink:href="class_kit_1_1_container_1_1_extended_list_item.html" target="_top" xlink:title="This class is used by the Container classes to implement a various types of DOUBLY linked containers.">
<polygon fill="white" stroke="#666666" points="450,-88.5 315,-88.5 315,-58.5 450,-58.5 450,-88.5"/>
<text text-anchor="start" x="323" y="-76.5" font-family="Helvetica,sans-Serif" font-size="10.00">Kit::Container::Extended</text>
<text text-anchor="middle" x="382.5" y="-65.5" font-family="Helvetica,sans-Serif" font-size="10.00">ListItem</text>
</a>
</g>
</g>
<!-- Node15&#45;&gt;Node14 -->
<g id="edge14_Node000014_Node000015" class="edge">
<title>Node15&#45;&gt;Node14</title>
<g id="a_edge14_Node000014_Node000015"><a xlink:title=" ">
<path fill="none" stroke="#63b8ff" d="M437.03,-91.46C447.23,-94.46 457.88,-97.3 468,-99.5 545.76,-116.39 636.55,-126.95 697.71,-132.75"/>
<polygon fill="#63b8ff" stroke="#63b8ff" points="438,-88.1 427.42,-88.56 435.98,-94.8 438,-88.1"/>
</a>
</g>
</g>
<!-- Node15&#45;&gt;Node15 -->
<g id="edge18_Node000015_Node000015" class="edge">
<title>Node15&#45;&gt;Node15</title>
<g id="a_edge18_Node000015_Node000015"><a xlink:title=" ">
<path fill="none" stroke="#9a32cd" stroke-dasharray="5,2" d="M367.45,-99.1C369.5,-103.47 374.52,-106.5 382.5,-106.5 395.94,-106.5 400.98,-97.91 397.62,-88.78"/>
<polygon fill="#9a32cd" stroke="#9a32cd" points="370.94,-98.75 367.38,-88.78 363.94,-98.8 370.94,-98.75"/>
</a>
</g>
<text text-anchor="middle" x="382.5" y="-109.5" font-family="Helvetica,sans-Serif" font-size="10.00" fill="grey"> m_prevPtr_</text>
</g>
<!-- Node22 -->
<g id="Node000022" class="node">
<title>Node22</title>
<g id="a_Node000022"><a xlink:href="class_kit_1_1_container_1_1_d_list_base.html" target="_top" xlink:title="This protected base class implements a NON&#45;TYPE&#45;SAFE a doubly linked list which maintains the orderin...">
<polygon fill="white" stroke="#666666" points="680,-83 542,-83 542,-64 680,-64 680,-83"/>
<text text-anchor="middle" x="611" y="-71" font-family="Helvetica,sans-Serif" font-size="10.00">Kit::Container::DListBase</text>
</a>
</g>
</g>
<!-- Node15&#45;&gt;Node22 -->
<g id="edge24_Node000022_Node000015" class="edge">
<title>Node15&#45;&gt;Node22</title>
<g id="a_edge24_Node000022_Node000015"><a xlink:title=" ">
<path fill="none" stroke="#9a32cd" stroke-dasharray="5,2" d="M460.56,-73.5C486.91,-73.5 516.18,-73.5 541.78,-73.5"/>
<polygon fill="#9a32cd" stroke="#9a32cd" points="460.23,-70 450.23,-73.5 460.23,-77 460.23,-70"/>
</a>
</g>
<text text-anchor="middle" x="496" y="-87.5" font-family="Helvetica,sans-Serif" font-size="10.00" fill="grey"> m_headPtr</text>
<text text-anchor="middle" x="496" y="-76.5" font-family="Helvetica,sans-Serif" font-size="10.00" fill="grey">m_tailPtr</text>
</g>
<!-- Node30 -->
<g id="Node000030" class="node">
<title>Node30</title>
<g id="a_Node000030"><a xlink:href="class_kit_1_1_dm_1_1_i_observer.html" target="_top" xlink:title="This abstract class defines the Observer interface &#45; for change notifications &#45; to a Model Points dat...">
<polygon fill="white" stroke="#666666" points="1272,-19 1165,-19 1165,0 1272,0 1272,-19"/>
<text text-anchor="middle" x="1218.5" y="-7" font-family="Helvetica,sans-Serif" font-size="10.00">Kit::Dm::IObserver</text>
</a>
</g>
</g>
<!-- Node15&#45;&gt;Node30 -->
<g id="edge35_Node000030_Node000015" class="edge">
<title>Node15&#45;&gt;Node30</title>
<g id="a_edge35_Node000030_Node000015"><a xlink:title=" ">
<path fill="none" stroke="#63b8ff" d="M460.29,-64.1C486.21,-61.1 515.34,-57.94 542,-55.5 773.77,-34.28 1051.11,-18.37 1164.88,-12.25"/>
<polygon fill="#63b8ff" stroke="#63b8ff" points="459.67,-60.65 450.14,-65.28 460.48,-67.6 459.67,-60.65"/>
</a>
</g>
</g>
<!-- Node16 -->
<g id="Node000016" class="node">
<title>Node16</title>
<g id="a_Node000016"><a xlink:href="class_kit_1_1_container_1_1_list_item.html" target="_top" xlink:title="This class is used by the Container classes to implement a various types of linked lists containers.">
<polygon fill="white" stroke="#666666" points="278,-83 149,-83 149,-64 278,-64 278,-83"/>
<text text-anchor="middle" x="213.5" y="-71" font-family="Helvetica,sans-Serif" font-size="10.00">Kit::Container::ListItem</text>
</a>
</g>
</g>
<!-- Node16&#45;&gt;Node15 -->
<g id="edge15_Node000015_Node000016" class="edge">
<title>Node16&#45;&gt;Node15</title>
<g id="a_edge15_Node000015_Node000016"><a xlink:title=" ">
<path fill="none" stroke="#63b8ff" d="M288.34,-73.5C297.12,-73.5 306.05,-73.5 314.73,-73.5"/>
<polygon fill="#63b8ff" stroke="#63b8ff" points="288.11,-70 278.11,-73.5 288.11,-77 288.11,-70"/>
</a>
</g>
</g>
<!-- Node16&#45;&gt;Node16 -->
<g id="edge17_Node000016_Node000016" class="edge">
<title>Node16&#45;&gt;Node16</title>
<g id="a_edge17_Node000016_Node000016"><a xlink:title=" ">
<path fill="none" stroke="#9a32cd" stroke-dasharray="5,2" d="M198.4,-92.91C199.59,-97.56 204.62,-101 213.5,-101 228.07,-101 232.29,-91.73 226.14,-83.08"/>
<polygon fill="#9a32cd" stroke="#9a32cd" points="201.83,-93.63 200.86,-83.08 195.04,-91.93 201.83,-93.63"/>
</a>
</g>
<text text-anchor="middle" x="213.5" y="-104" font-family="Helvetica,sans-Serif" font-size="10.00" fill="grey"> m_nextPtr_</text>
</g>
<!-- Node17 -->
<g id="Node000017" class="node">
<title>Node17</title>
<g id="a_Node000017"><a xlink:href="class_kit_1_1_container_1_1_item.html" target="_top" xlink:title="This class is used by the Intrusive Container classes to enforce the semantic and item/element can be...">
<polygon fill="white" stroke="#666666" points="112,-83 0,-83 0,-64 112,-64 112,-83"/>
<text text-anchor="middle" x="56" y="-71" font-family="Helvetica,sans-Serif" font-size="10.00">Kit::Container::Item</text>
</a>
</g>
</g>
<!-- Node17&#45;&gt;Node16 -->
<g id="edge16_Node000016_Node000017" class="edge">
<title>Node17&#45;&gt;Node16</title>
<g id="a_edge16_Node000016_Node000017"><a xlink:title=" ">
<path fill="none" stroke="#63b8ff" d="M122.43,-73.5C131.2,-73.5 140.19,-73.5 148.93,-73.5"/>
<polygon fill="#63b8ff" stroke="#63b8ff" points="122.26,-70 112.26,-73.5 122.26,-77 122.26,-70"/>
</a>
</g>
</g>
<!-- Node18 -->
<g id="Node000018" class="node">
<title>Node18</title>
<g id="a_Node000018"><a xlink:href="class_kit_1_1_container_1_1_key_literal_string.html" target="_top" xlink:title="This class provides a &#39;Key&#39; wrapper for a C string literal.">
<polygon fill="white" stroke="#666666" points="996,-196.5 858,-196.5 858,-166.5 996,-166.5 996,-196.5"/>
<text text-anchor="start" x="866" y="-184.5" font-family="Helvetica,sans-Serif" font-size="10.00">Kit::Container::KeyLiteral</text>
<text text-anchor="middle" x="927" y="-173.5" font-family="Helvetica,sans-Serif" font-size="10.00">String</text>
</a>
</g>
</g>
<!-- Node18&#45;&gt;Node13 -->
<g id="edge19_Node000013_Node000018" class="edge">
<title>Node18&#45;&gt;Node13</title>
<g id="a_edge19_Node000013_Node000018"><a xlink:title=" ">
<path fill="none" stroke="#63b8ff" d="M1006.38,-172.57C1054.84,-167.04 1115.97,-160.07 1159.96,-155.06"/>
<polygon fill="#63b8ff" stroke="#63b8ff" points="1005.78,-169.11 996.24,-173.72 1006.57,-176.07 1005.78,-169.11"/>
</a>
</g>
</g>
<!-- Node19 -->
<g id="Node000019" class="node">
<title>Node19</title>
<g id="a_Node000019"><a xlink:href="class_kit_1_1_container_1_1_key_string_buffer.html" target="_top" xlink:title="This class provides a &#39;Key&#39; wrapper for a array of Character of length N, i.e.">
<polygon fill="white" stroke="#666666" points="679,-196.5 543,-196.5 543,-166.5 679,-166.5 679,-196.5"/>
<text text-anchor="start" x="551" y="-184.5" font-family="Helvetica,sans-Serif" font-size="10.00">Kit::Container::KeyString</text>
<text text-anchor="middle" x="611" y="-173.5" font-family="Helvetica,sans-Serif" font-size="10.00">Buffer</text>
</a>
</g>
</g>
<!-- Node19&#45;&gt;Node18 -->
<g id="edge20_Node000018_Node000019" class="edge">
<title>Node19&#45;&gt;Node18</title>
<g id="a_edge20_Node000018_Node000019"><a xlink:title=" ">
<path fill="none" stroke="#63b8ff" d="M689.47,-181.5C741.11,-181.5 808.36,-181.5 857.94,-181.5"/>
<polygon fill="#63b8ff" stroke="#63b8ff" points="689.36,-178 679.36,-181.5 689.36,-185 689.36,-178"/>
</a>
</g>
</g>
<!-- Node20 -->
<g id="Node000020" class="node">
<title>Node20</title>
<g id="a_Node000020"><a xlink:href="class_kit_1_1_container_1_1_key.html" target="_top" xlink:title="This abstract class defines the interface that a contained object must support if it has comparable k...">
<polygon fill="white" stroke="#666666" points="436,-191 329,-191 329,-172 436,-172 436,-191"/>
<text text-anchor="middle" x="382.5" y="-179" font-family="Helvetica,sans-Serif" font-size="10.00">Kit::Container::Key</text>
</a>
</g>
</g>
<!-- Node20&#45;&gt;Node19 -->
<g id="edge21_Node000019_Node000020" class="edge">
<title>Node20&#45;&gt;Node19</title>
<g id="a_edge21_Node000019_Node000020"><a xlink:title=" ">
<path fill="none" stroke="#63b8ff" d="M446.36,-181.5C476.32,-181.5 512.19,-181.5 542.69,-181.5"/>
<polygon fill="#63b8ff" stroke="#63b8ff" points="446.03,-178 436.03,-181.5 446.03,-185 446.03,-178"/>
</a>
</g>
</g>
<!-- Node21 -->
<g id="Node000021" class="node">
<title>Node21</title>
<g id="a_Node000021"><a xlink:href="class_kit_1_1_container_1_1_d_list.html" target="_top" xlink:title=" ">
<polygon fill="white" stroke="#666666" points="1283,-115.5 1154,-115.5 1154,-85.5 1283,-85.5 1283,-115.5"/>
<text text-anchor="start" x="1162" y="-103.5" font-family="Helvetica,sans-Serif" font-size="10.00">Kit::Container::DList</text>
<text text-anchor="middle" x="1218.5" y="-92.5" font-family="Helvetica,sans-Serif" font-size="10.00">&lt; Kit::Dm::IObserver &gt;</text>
</a>
</g>
</g>
<!-- Node21&#45;&gt;Node12 -->
<g id="edge22_Node000012_Node000021" class="edge">
<title>Node21&#45;&gt;Node12</title>
<g id="a_edge22_Node000012_Node000021"><a xlink:title=" ">
<path fill="none" stroke="#9a32cd" stroke-dasharray="5,2" d="M1293.65,-90.03C1327.68,-87.76 1368.12,-88.68 1403,-99.5 1434.13,-109.15 1464,-134.4 1478.99,-148.54"/>
<polygon fill="#9a32cd" stroke="#9a32cd" points="1293.01,-86.57 1283.31,-90.83 1293.55,-93.55 1293.01,-86.57"/>
</a>
</g>
<text text-anchor="middle" x="1355" y="-102.5" font-family="Helvetica,sans-Serif" font-size="10.00" fill="grey"> m_subscribers</text>
</g>
<!-- Node22&#45;&gt;Node21 -->
<g id="edge23_Node000021_Node000022" class="edge">
<title>Node22&#45;&gt;Node21</title>
<g id="a_edge23_Node000021_Node000022"><a xlink:title=" ">
<path fill="none" stroke="#63b8ff" d="M690.24,-79.06C692.86,-79.21 695.45,-79.36 698,-79.5 862.26,-88.55 1055.93,-95.36 1153.89,-98.53"/>
<polygon fill="#63b8ff" stroke="#63b8ff" points="690.25,-75.55 680.06,-78.43 689.82,-82.54 690.25,-75.55"/>
</a>
</g>
</g>
<!-- Node23 -->
<g id="Node000023" class="node">
<title>Node23</title>
<g id="a_Node000023"><a xlink:href="class_kit_1_1_container_1_1_d_list.html" target="_top" xlink:title="This template class implements a double linked list which maintains the ordering imposed on it by the...">
<polygon fill="white" stroke="#666666" points="984,-72.5 870,-72.5 870,-42.5 984,-42.5 984,-72.5"/>
<text text-anchor="start" x="878" y="-60.5" font-family="Helvetica,sans-Serif" font-size="10.00">Kit::Container::DList</text>
<text text-anchor="middle" x="927" y="-49.5" font-family="Helvetica,sans-Serif" font-size="10.00">&lt; EXT_ITEM &gt;</text>
</a>
</g>
</g>
<!-- Node22&#45;&gt;Node23 -->
<g id="edge26_Node000023_Node000022" class="edge">
<title>Node22&#45;&gt;Node23</title>
<g id="a_edge26_Node000023_Node000022"><a xlink:title=" ">
<path fill="none" stroke="#63b8ff" d="M690.33,-69.51C746.12,-66.67 819.78,-62.91 869.79,-60.36"/>
<polygon fill="#63b8ff" stroke="#63b8ff" points="689.94,-66.02 680.13,-70.03 690.3,-73.01 689.94,-66.02"/>
</a>
</g>
</g>
<!-- Node23&#45;&gt;Node21 -->
<g id="edge25_Node000021_Node000023" class="edge">
<title>Node23&#45;&gt;Node21</title>
<g id="a_edge25_Node000021_Node000023"><a xlink:title=" ">
<path fill="none" stroke="orange" stroke-dasharray="5,2" d="M994.19,-60.23C1033.84,-62.65 1085.1,-67.16 1130,-75.5 1143.51,-78.01 1157.95,-81.7 1171.12,-85.48"/>
<polygon fill="orange" stroke="orange" points="994.3,-56.73 984.12,-59.65 993.9,-63.72 994.3,-56.73"/>
</a>
</g>
<text text-anchor="middle" x="1072" y="-78.5" font-family="Helvetica,sans-Serif" font-size="10.00" fill="grey"> &lt; Kit::Dm::IObserver &gt;</text>
</g>
<!-- Node24 -->
<g id="Node000024" class="node">
<title>Node24</title>
<g id="a_Node000024"><a xlink:href="class_kit_1_1_dm_1_1_i_model_database.html" target="_top" xlink:title="This class defines the basic operations that can be performed on a Model Base.">
<polygon fill="white" stroke="#666666" points="1288,-201 1149,-201 1149,-182 1288,-182 1288,-201"/>
<text text-anchor="middle" x="1218.5" y="-189" font-family="Helvetica,sans-Serif" font-size="10.00">Kit::Dm::IModelDatabase</text>
</a>
</g>
</g>
<!-- Node24&#45;&gt;Node12 -->
<g id="edge27_Node000012_Node000024" class="edge">
<title>Node24&#45;&gt;Node12</title>
<g id="a_edge27_Node000012_Node000024"><a xlink:title=" ">
<path fill="none" stroke="#9a32cd" stroke-dasharray="5,2" d="M1298.42,-181.84C1337.26,-177.08 1383.62,-171.4 1420.89,-166.84"/>
<polygon fill="#9a32cd" stroke="#9a32cd" points="1297.7,-178.4 1288.2,-183.09 1298.55,-185.35 1297.7,-178.4"/>
</a>
</g>
<text text-anchor="middle" x="1355" y="-182.5" font-family="Helvetica,sans-Serif" font-size="10.00" fill="grey"> m_modelDatabase</text>
</g>
<!-- Node25 -->
<g id="Node000025" class="node">
<title>Node25</title>
<g id="a_Node000025"><a xlink:href="struct_dm_1_1_transaction_1_1_foo___t.html" target="_top" xlink:title="Data structure used to exchange data between a Client and Server for the &#39;Foo&#39; transaction.">
<polygon fill="white" stroke="#666666" points="1805.5,-118 1675.5,-118 1675.5,-99 1805.5,-99 1805.5,-118"/>
<text text-anchor="middle" x="1740.5" y="-106" font-family="Helvetica,sans-Serif" font-size="10.00">Dm::Transaction::Foo_T</text>
</a>
</g>
</g>
<!-- Node25&#45;&gt;Node11 -->
<g id="edge28_Node000011_Node000025" class="edge">
<title>Node25&#45;&gt;Node11</title>
<g id="a_edge28_Node000011_Node000025"><a xlink:title=" ">
<path fill="none" stroke="#9a32cd" stroke-dasharray="5,2" d="M1815.81,-115.63C1864.34,-120.55 1929.03,-127.61 1986,-135.5 1997.61,-137.11 2010.03,-139.04 2021.82,-140.97"/>
<polygon fill="#9a32cd" stroke="#9a32cd" points="1816.01,-112.13 1805.71,-114.61 1815.31,-119.1 1816.01,-112.13"/>
</a>
</g>
<text text-anchor="middle" x="1915.5" y="-138.5" font-family="Helvetica,sans-Serif" font-size="10.00" fill="grey"> m_data</text>
</g>
<!-- Node26&#45;&gt;Node11 -->
<g id="edge29_Node000011_Node000026" class="edge">
<title>Node26&#45;&gt;Node11</title>
<g id="a_edge29_Node000011_Node000026"><a xlink:title=" ">
<path fill="none" stroke="orange" stroke-dasharray="5,2" d="M1817.76,-151.27C1880.05,-151.09 1966.56,-150.83 2021.92,-150.66"/>
<polygon fill="orange" stroke="orange" points="1817.58,-147.77 1807.59,-151.3 1817.6,-154.77 1817.58,-147.77"/>
</a>
</g>
<text text-anchor="middle" x="1915.5" y="-153.5" font-family="Helvetica,sans-Serif" font-size="10.00" fill="grey"> &lt; Foo_T, MpFoo &gt;</text>
</g>
<!-- Node27&#45;&gt;Node1 -->
<g id="edge31_Node000001_Node000027" class="edge">
<title>Node27&#45;&gt;Node1</title>
<g id="a_edge31_Node000001_Node000027"><a xlink:title=" ">
<path fill="none" stroke="#9a32cd" stroke-dasharray="5,2" d="M2658.99,-112.53C2677.54,-116.5 2696.97,-120.92 2715,-125.5 2733.04,-130.08 2753.02,-136.03 2768.91,-140.98"/>
<polygon fill="#9a32cd" stroke="#9a32cd" points="2659.59,-109.08 2649.09,-110.43 2658.14,-115.93 2659.59,-109.08"/>
</a>
</g>
<text text-anchor="middle" x="2691" y="-128.5" font-family="Helvetica,sans-Serif" font-size="10.00" fill="grey"> m_obFoo</text>
</g>
<!-- Node28 -->
<g id="Node000028" class="node">
<title>Node28</title>
<g id="a_Node000028"><a xlink:href="class_kit_1_1_dm_1_1_observer.html" target="_top" xlink:title="This template class defines a type safe Observer.">
<polygon fill="white" stroke="#666666" points="1986,-82 1845,-82 1845,-63 1986,-63 1986,-82"/>
<text text-anchor="middle" x="1915.5" y="-70" font-family="Helvetica,sans-Serif" font-size="10.00">Kit::Dm::Observer&lt; MP &gt;</text>
</a>
</g>
</g>
<!-- Node28&#45;&gt;Node27 -->
<g id="edge32_Node000027_Node000028" class="edge">
<title>Node28&#45;&gt;Node27</title>
<g id="a_edge32_Node000027_Node000028"><a xlink:title=" ">
<path fill="none" stroke="#63b8ff" d="M1996.14,-75.3C2122.67,-79.76 2368.04,-88.39 2492.94,-92.79"/>
<polygon fill="#63b8ff" stroke="#63b8ff" points="1996.24,-71.8 1986.13,-74.95 1996,-78.8 1996.24,-71.8"/>
</a>
</g>
</g>
<!-- Node29&#45;&gt;Node28 -->
<g id="edge33_Node000028_Node000029" class="edge">
<title>Node29&#45;&gt;Node28</title>
<g id="a_edge33_Node000028_Node000029"><a xlink:title=" ">
<path fill="none" stroke="#63b8ff" d="M1564.73,-55.98C1643.5,-59.7 1767.42,-65.55 1844.66,-69.2"/>
<polygon fill="#63b8ff" stroke="#63b8ff" points="1564.56,-52.47 1554.4,-55.49 1564.23,-59.46 1564.56,-52.47"/>
</a>
</g>
</g>
<!-- Node33 -->
<g id="Node000033" class="node">
<title>Node33</title>
<g id="a_Node000033"><a xlink:href="class_kit_1_1_dm_1_1_observer.html" target="_top" xlink:title="This template class defines a type safe Observer.">
<polygon fill="white" stroke="#666666" points="1811,-42 1670,-42 1670,-23 1811,-23 1811,-42"/>
<text text-anchor="middle" x="1740.5" y="-30" font-family="Helvetica,sans-Serif" font-size="10.00">Kit::Dm::Observer&lt; MP &gt;</text>
</a>
</g>
</g>
<!-- Node29&#45;&gt;Node33 -->
<g id="edge41_Node000033_Node000029" class="edge">
<title>Node29&#45;&gt;Node33</title>
<g id="a_edge41_Node000033_Node000029"><a xlink:title=" ">
<path fill="none" stroke="#63b8ff" d="M1564.2,-46.61C1597.62,-43.92 1637.01,-40.75 1669.98,-38.1"/>
<polygon fill="#63b8ff" stroke="#63b8ff" points="1563.72,-43.14 1554.03,-47.43 1564.28,-50.11 1563.72,-43.14"/>
</a>
</g>
</g>
<!-- Node30&#45;&gt;Node29 -->
<g id="edge34_Node000029_Node000030" class="edge">
<title>Node30&#45;&gt;Node29</title>
<g id="a_edge34_Node000029_Node000030"><a xlink:title=" ">
<path fill="none" stroke="#63b8ff" d="M1282.16,-19.5C1326.42,-26.56 1385.37,-35.97 1429.01,-42.93"/>
<polygon fill="#63b8ff" stroke="#63b8ff" points="1282.53,-16.01 1272.1,-17.89 1281.43,-22.92 1282.53,-16.01"/>
</a>
</g>
</g>
<!-- Node32 -->
<g id="Node000032" class="node">
<title>Node32</title>
<g id="a_Node000032"><a xlink:href="class_kit_1_1_dm_1_1_observer_callback.html" target="_top" xlink:title="This template class implements a Observer that uses a callback function (or similar callable) for cha...">
<polygon fill="white" stroke="#666666" points="2150,-47.5 2004,-47.5 2004,-17.5 2150,-17.5 2150,-47.5"/>
<text text-anchor="start" x="2012" y="-35.5" font-family="Helvetica,sans-Serif" font-size="10.00">Kit::Dm::ObserverCallback</text>
<text text-anchor="middle" x="2077" y="-24.5" font-family="Helvetica,sans-Serif" font-size="10.00">&lt; MP &gt;</text>
</a>
</g>
</g>
<!-- Node30&#45;&gt;Node32 -->
<g id="edge42_Node000032_Node000030" class="edge">
<title>Node30&#45;&gt;Node32</title>
<g id="a_edge42_Node000032_Node000030"><a xlink:title=" ">
<path fill="none" stroke="#9a32cd" stroke-dasharray="5,2" d="M1282.64,-8.47C1393.07,-6.99 1628.44,-5.28 1827,-13.5 1886.67,-15.97 1954.22,-21.28 2003.89,-25.66"/>
<polygon fill="#9a32cd" stroke="#9a32cd" points="1282.3,-4.98 1272.35,-8.61 1282.4,-11.97 1282.3,-4.98"/>
</a>
</g>
<text text-anchor="middle" x="1606.5" y="-11.5" font-family="Helvetica,sans-Serif" font-size="10.00" fill="grey"> m_callback</text>
</g>
<!-- Node31 -->
<g id="Node000031" class="node">
<title>Node31</title>
<g id="a_Node000031"><a xlink:href="class_kit_1_1_event_queue_1_1_i_change_notification.html" target="_top" xlink:title="This abstract class defines the interface to manage Data Model Change notification events that are pu...">
<polygon fill="white" stroke="#666666" points="1289,-67.5 1148,-67.5 1148,-37.5 1289,-37.5 1289,-67.5"/>
<text text-anchor="start" x="1156" y="-55.5" font-family="Helvetica,sans-Serif" font-size="10.00">Kit::EventQueue::IChange</text>
<text text-anchor="middle" x="1218.5" y="-44.5" font-family="Helvetica,sans-Serif" font-size="10.00">Notification</text>
</a>
</g>
</g>
<!-- Node31&#45;&gt;Node29 -->
<g id="edge37_Node000029_Node000031" class="edge">
<title>Node31&#45;&gt;Node29</title>
<g id="a_edge37_Node000029_Node000031"><a xlink:title=" ">
<path fill="none" stroke="#9a32cd" stroke-dasharray="5,2" d="M1299.35,-52.5C1339.8,-52.5 1388.2,-52.5 1425.99,-52.5"/>
<polygon fill="#9a32cd" stroke="#9a32cd" points="1299.25,-49 1289.25,-52.5 1299.25,-56 1299.25,-49"/>
</a>
</g>
<text text-anchor="middle" x="1355" y="-55.5" font-family="Helvetica,sans-Serif" font-size="10.00" fill="grey"> m_eventQueueHdl</text>
</g>
<!-- Node32&#45;&gt;Node27 -->
<g id="edge39_Node000027_Node000032" class="edge">
<title>Node32&#45;&gt;Node27</title>
<g id="a_edge39_Node000027_Node000032"><a xlink:title=" ">
<path fill="none" stroke="orange" stroke-dasharray="5,2" d="M2160.38,-33.52C2225.28,-35.32 2317.85,-40.08 2398,-52.5 2439.67,-58.96 2486,-70.82 2520.07,-80.45"/>
<polygon fill="orange" stroke="orange" points="2160.3,-30.02 2150.21,-33.26 2160.12,-37.02 2160.3,-30.02"/>
</a>
</g>
<text text-anchor="start" x="2281" y="-66.5" font-family="Helvetica,sans-Serif" font-size="10.00" fill="grey"> &lt; Dm::Transaction::</text>
<text text-anchor="middle" x="2331" y="-55.5" font-family="Helvetica,sans-Serif" font-size="10.00" fill="grey">MpFoo &gt;</text>
</g>
<!-- Node33&#45;&gt;Node32 -->
<g id="edge40_Node000032_Node000033" class="edge">
<title>Node33&#45;&gt;Node32</title>
<g id="a_edge40_Node000032_Node000033"><a xlink:title=" ">
<path fill="none" stroke="#63b8ff" d="M1821.35,-32.5C1876.8,-32.5 1950.07,-32.5 2003.78,-32.5"/>
<polygon fill="#63b8ff" stroke="#63b8ff" points="1821.22,-29 1811.21,-32.5 1821.21,-36 1821.22,-29"/>
</a>
</g>
</g>
</g>
</svg>
