<?xml version="1.0" encoding="UTF-8" standalone="no"?>
<!DOCTYPE svg PUBLIC "-//W3C//DTD SVG 1.1//EN"
 "http://www.w3.org/Graphics/SVG/1.1/DTD/svg11.dtd">
<!-- Generated by graphviz version 2.43.0 (0)
 -->
<!-- Title: Kit/_support/testing/helpers.h Pages: 1 -->
<svg width="810pt" height="258pt"
 viewBox="0.00 0.00 810.00 258.00" xmlns="http://www.w3.org/2000/svg" xmlns:xlink="http://www.w3.org/1999/xlink">
<g id="graph0" class="graph" transform="scale(1 1) rotate(0) translate(4 254)">
<title>Kit/_support/testing/helpers.h</title>
<!-- Node1 -->
<g id="Node000001" class="node">
<title>Node1</title>
<g id="a_Node000001"><a xlink:title="This file defines helper functions/interface for writing unit tests.">
<polygon fill="#999999" stroke="#666666" points="182,-250 70,-250 70,-220 182,-220 182,-250"/>
<text text-anchor="start" x="78" y="-238" font-family="Helvetica,sans-Serif" font-size="10.00">Kit/_support/testing</text>
<text text-anchor="middle" x="126" y="-227" font-family="Helvetica,sans-Serif" font-size="10.00">/helpers.h</text>
</a>
</g>
</g>
<!-- Node2 -->
<g id="Node000002" class="node">
<title>Node2</title>
<g id="a_Node000002"><a xlink:title=" ">
<polygon fill="#e0e0e0" stroke="#999999" points="175.5,-74 102.5,-74 102.5,-55 175.5,-55 175.5,-74"/>
<text text-anchor="middle" x="139" y="-62" font-family="Helvetica,sans-Serif" font-size="10.00">kit_config.h</text>
</a>
</g>
</g>
<!-- Node1&#45;&gt;Node2 -->
<g id="edge1_Node000001_Node000002" class="edge">
<title>Node1&#45;&gt;Node2</title>
<g id="a_edge1_Node000001_Node000002"><a xlink:title=" ">
<path fill="none" stroke="#63b8ff" d="M127.09,-219.92C129.42,-189.65 134.92,-118.35 137.55,-84.27"/>
<polygon fill="#63b8ff" stroke="#63b8ff" points="141.04,-84.49 138.32,-74.25 134.07,-83.96 141.04,-84.49"/>
</a>
</g>
</g>
<!-- Node3 -->
<g id="Node000003" class="node">
<title>Node3</title>
<g id="a_Node000003"><a xlink:href="_system_2_api_8h.html" target="_top" xlink:title="This file defines methods for initializing the KIT C++ class library and other startup/init actions.">
<polygon fill="white" stroke="#666666" points="98,-184 0,-184 0,-165 98,-165 98,-184"/>
<text text-anchor="middle" x="49" y="-172" font-family="Helvetica,sans-Serif" font-size="10.00">Kit/System/Api.h</text>
</a>
</g>
</g>
<!-- Node1&#45;&gt;Node3 -->
<g id="edge2_Node000001_Node000003" class="edge">
<title>Node1&#45;&gt;Node3</title>
<g id="a_edge2_Node000001_Node000003"><a xlink:title=" ">
<path fill="none" stroke="#63b8ff" d="M107.36,-219.84C95.61,-210.91 80.47,-199.41 68.55,-190.35"/>
<polygon fill="#63b8ff" stroke="#63b8ff" points="70.62,-187.53 60.54,-184.27 66.38,-193.1 70.62,-187.53"/>
</a>
</g>
</g>
<!-- Node5 -->
<g id="Node000005" class="node">
<title>Node5</title>
<g id="a_Node000005"><a xlink:href="_i_input_8h.html" target="_top" xlink:title=" ">
<polygon fill="white" stroke="#666666" points="334,-184 252,-184 252,-165 334,-165 334,-184"/>
<text text-anchor="middle" x="293" y="-172" font-family="Helvetica,sans-Serif" font-size="10.00">Kit/Io/IInput.h</text>
</a>
</g>
</g>
<!-- Node1&#45;&gt;Node5 -->
<g id="edge4_Node000001_Node000005" class="edge">
<title>Node1&#45;&gt;Node5</title>
<g id="a_edge4_Node000001_Node000005"><a xlink:title=" ">
<path fill="none" stroke="#63b8ff" d="M166,-219.99C194.24,-210.1 231.68,-196.98 258.58,-187.56"/>
<polygon fill="#63b8ff" stroke="#63b8ff" points="260.06,-190.75 268.34,-184.14 257.74,-184.14 260.06,-190.75"/>
</a>
</g>
</g>
<!-- Node4 -->
<g id="Node000004" class="node">
<title>Node4</title>
<g id="a_Node000004"><a xlink:title=" ">
<polygon fill="#e0e0e0" stroke="#999999" points="292.5,-19 239.5,-19 239.5,0 292.5,0 292.5,-19"/>
<text text-anchor="middle" x="266" y="-7" font-family="Helvetica,sans-Serif" font-size="10.00">stdint.h</text>
</a>
</g>
</g>
<!-- Node3&#45;&gt;Node4 -->
<g id="edge3_Node000003_Node000004" class="edge">
<title>Node3&#45;&gt;Node4</title>
<g id="a_edge3_Node000003_Node000004"><a xlink:title=" ">
<path fill="none" stroke="#63b8ff" d="M49.56,-164.85C51.47,-142.99 59.58,-85.12 93,-55 130.59,-21.12 190.54,-12.35 229.07,-10.45"/>
<polygon fill="#63b8ff" stroke="#63b8ff" points="229.47,-13.93 239.34,-10.08 229.22,-6.94 229.47,-13.93"/>
</a>
</g>
</g>
<!-- Node6 -->
<g id="Node000006" class="node">
<title>Node6</title>
<g id="a_Node000006"><a xlink:href="_types_8h.html" target="_top" xlink:title=" ">
<polygon fill="white" stroke="#666666" points="430,-129 348,-129 348,-110 430,-110 430,-129"/>
<text text-anchor="middle" x="389" y="-117" font-family="Helvetica,sans-Serif" font-size="10.00">Kit/Io/Types.h</text>
</a>
</g>
</g>
<!-- Node5&#45;&gt;Node6 -->
<g id="edge5_Node000005_Node000006" class="edge">
<title>Node5&#45;&gt;Node6</title>
<g id="a_edge5_Node000005_Node000006"><a xlink:title=" ">
<path fill="none" stroke="#63b8ff" d="M308.42,-164.98C323.45,-156.69 346.54,-143.94 364.16,-134.22"/>
<polygon fill="#63b8ff" stroke="#63b8ff" points="366.23,-137.07 373.3,-129.17 362.85,-130.94 366.23,-137.07"/>
</a>
</g>
</g>
<!-- Node8 -->
<g id="Node000008" class="node">
<title>Node8</title>
<g id="a_Node000008"><a xlink:href="_i_string_8h.html" target="_top" xlink:title=" ">
<polygon fill="white" stroke="#666666" points="625.5,-129 528.5,-129 528.5,-110 625.5,-110 625.5,-129"/>
<text text-anchor="middle" x="577" y="-117" font-family="Helvetica,sans-Serif" font-size="10.00">Kit/Text/IString.h</text>
</a>
</g>
</g>
<!-- Node5&#45;&gt;Node8 -->
<g id="edge9_Node000005_Node000008" class="edge">
<title>Node5&#45;&gt;Node8</title>
<g id="a_edge9_Node000005_Node000008"><a xlink:title=" ">
<path fill="none" stroke="#63b8ff" d="M334.3,-165.79C383.68,-156.58 466.55,-141.11 521.5,-130.86"/>
<polygon fill="#63b8ff" stroke="#63b8ff" points="522.23,-134.28 531.42,-129.01 520.95,-127.4 522.23,-134.28"/>
</a>
</g>
</g>
<!-- Node15 -->
<g id="Node000015" class="node">
<title>Node15</title>
<g id="a_Node000015"><a xlink:href="_io_2_i_close_8h.html" target="_top" xlink:title=" ">
<polygon fill="white" stroke="#666666" points="238,-129 154,-129 154,-110 238,-110 238,-129"/>
<text text-anchor="middle" x="196" y="-117" font-family="Helvetica,sans-Serif" font-size="10.00">Kit/Io/IClose.h</text>
</a>
</g>
</g>
<!-- Node5&#45;&gt;Node15 -->
<g id="edge17_Node000005_Node000015" class="edge">
<title>Node5&#45;&gt;Node15</title>
<g id="a_edge17_Node000005_Node000015"><a xlink:title=" ">
<path fill="none" stroke="#63b8ff" d="M277.42,-164.98C262.23,-156.69 238.9,-143.94 221.1,-134.22"/>
<polygon fill="#63b8ff" stroke="#63b8ff" points="222.32,-130.89 211.87,-129.17 218.97,-137.04 222.32,-130.89"/>
</a>
</g>
</g>
<!-- Node16 -->
<g id="Node000016" class="node">
<title>Node16</title>
<g id="a_Node000016"><a xlink:href="_i_eos_8h.html" target="_top" xlink:title=" ">
<polygon fill="white" stroke="#666666" points="330,-129 256,-129 256,-110 330,-110 330,-129"/>
<text text-anchor="middle" x="293" y="-117" font-family="Helvetica,sans-Serif" font-size="10.00">Kit/Io/IEos.h</text>
</a>
</g>
</g>
<!-- Node5&#45;&gt;Node16 -->
<g id="edge18_Node000005_Node000016" class="edge">
<title>Node5&#45;&gt;Node16</title>
<g id="a_edge18_Node000005_Node000016"><a xlink:title=" ">
<path fill="none" stroke="#63b8ff" d="M293,-164.75C293,-157.8 293,-147.85 293,-139.13"/>
<polygon fill="#63b8ff" stroke="#63b8ff" points="296.5,-139.09 293,-129.09 289.5,-139.09 296.5,-139.09"/>
</a>
</g>
</g>
<!-- Node6&#45;&gt;Node2 -->
<g id="edge6_Node000006_Node000002" class="edge">
<title>Node6&#45;&gt;Node2</title>
<g id="a_edge6_Node000006_Node000002"><a xlink:title=" ">
<path fill="none" stroke="#63b8ff" d="M348.83,-109.98C304.34,-100.55 232.7,-85.36 185.73,-75.41"/>
<polygon fill="#63b8ff" stroke="#63b8ff" points="186.32,-71.95 175.81,-73.3 184.87,-78.8 186.32,-71.95"/>
</a>
</g>
</g>
<!-- Node6&#45;&gt;Node4 -->
<g id="edge8_Node000006_Node000004" class="edge">
<title>Node6&#45;&gt;Node4</title>
<g id="a_edge8_Node000006_Node000004"><a xlink:title=" ">
<path fill="none" stroke="#63b8ff" d="M349.52,-109.98C328.05,-103.46 302.57,-92.37 286,-74 274.99,-61.8 270.04,-43.56 267.82,-29.76"/>
<polygon fill="#63b8ff" stroke="#63b8ff" points="271.24,-28.92 266.51,-19.44 264.29,-29.79 271.24,-28.92"/>
</a>
</g>
</g>
<!-- Node7 -->
<g id="Node000007" class="node">
<title>Node7</title>
<g id="a_Node000007"><a xlink:title=" ">
<polygon fill="#e0e0e0" stroke="#999999" points="359.5,-74 294.5,-74 294.5,-55 359.5,-55 359.5,-74"/>
<text text-anchor="middle" x="327" y="-62" font-family="Helvetica,sans-Serif" font-size="10.00">kit_map.h</text>
</a>
</g>
</g>
<!-- Node6&#45;&gt;Node7 -->
<g id="edge7_Node000006_Node000007" class="edge">
<title>Node6&#45;&gt;Node7</title>
<g id="a_edge7_Node000006_Node000007"><a xlink:title=" ">
<path fill="none" stroke="#63b8ff" d="M379.04,-109.98C369.87,-102.15 356.06,-90.34 344.97,-80.86"/>
<polygon fill="#63b8ff" stroke="#63b8ff" points="347.02,-78.01 337.14,-74.17 342.47,-83.33 347.02,-78.01"/>
</a>
</g>
</g>
<!-- Node9 -->
<g id="Node000009" class="node">
<title>Node9</title>
<g id="a_Node000009"><a xlink:href="_key_8h.html" target="_top" xlink:title=" ">
<polygon fill="white" stroke="#666666" points="486.5,-74 377.5,-74 377.5,-55 486.5,-55 486.5,-74"/>
<text text-anchor="middle" x="432" y="-62" font-family="Helvetica,sans-Serif" font-size="10.00">Kit/Container/Key.h</text>
</a>
</g>
</g>
<!-- Node8&#45;&gt;Node9 -->
<g id="edge10_Node000008_Node000009" class="edge">
<title>Node8&#45;&gt;Node9</title>
<g id="a_edge10_Node000008_Node000009"><a xlink:title=" ">
<path fill="none" stroke="#63b8ff" d="M553.7,-109.98C529.75,-101.23 492.22,-87.51 465.17,-77.62"/>
<polygon fill="#63b8ff" stroke="#63b8ff" points="466.31,-74.32 455.72,-74.17 463.91,-80.89 466.31,-74.32"/>
</a>
</g>
</g>
<!-- Node12 -->
<g id="Node000012" class="node">
<title>Node12</title>
<g id="a_Node000012"><a xlink:href="printfchecker_8h.html" target="_top" xlink:title="This file contains macro that enables the GCC (and Clang) compiler to validate printf flags with thei...">
<polygon fill="white" stroke="#666666" points="649.5,-74 504.5,-74 504.5,-55 649.5,-55 649.5,-74"/>
<text text-anchor="middle" x="577" y="-62" font-family="Helvetica,sans-Serif" font-size="10.00">Kit/System/printfchecker.h</text>
</a>
</g>
</g>
<!-- Node8&#45;&gt;Node12 -->
<g id="edge14_Node000008_Node000012" class="edge">
<title>Node8&#45;&gt;Node12</title>
<g id="a_edge14_Node000008_Node000012"><a xlink:title=" ">
<path fill="none" stroke="#63b8ff" d="M577,-109.75C577,-102.8 577,-92.85 577,-84.13"/>
<polygon fill="#63b8ff" stroke="#63b8ff" points="580.5,-84.09 577,-74.09 573.5,-84.09 580.5,-84.09"/>
</a>
</g>
</g>
<!-- Node13 -->
<g id="Node000013" class="node">
<title>Node13</title>
<g id="a_Node000013"><a xlink:title=" ">
<polygon fill="#e0e0e0" stroke="#999999" points="724,-74 668,-74 668,-55 724,-55 724,-74"/>
<text text-anchor="middle" x="696" y="-62" font-family="Helvetica,sans-Serif" font-size="10.00">stdarg.h</text>
</a>
</g>
</g>
<!-- Node8&#45;&gt;Node13 -->
<g id="edge15_Node000008_Node000013" class="edge">
<title>Node8&#45;&gt;Node13</title>
<g id="a_edge15_Node000008_Node000013"><a xlink:title=" ">
<path fill="none" stroke="#63b8ff" d="M596.12,-109.98C615.35,-101.42 645.23,-88.11 667.31,-78.28"/>
<polygon fill="#63b8ff" stroke="#63b8ff" points="668.82,-81.44 676.53,-74.17 665.97,-75.04 668.82,-81.44"/>
</a>
</g>
</g>
<!-- Node14 -->
<g id="Node000014" class="node">
<title>Node14</title>
<g id="a_Node000014"><a xlink:title=" ">
<polygon fill="#e0e0e0" stroke="#999999" points="802,-74 742,-74 742,-55 802,-55 802,-74"/>
<text text-anchor="middle" x="772" y="-62" font-family="Helvetica,sans-Serif" font-size="10.00">iostream</text>
</a>
</g>
</g>
<!-- Node8&#45;&gt;Node14 -->
<g id="edge16_Node000008_Node000014" class="edge">
<title>Node8&#45;&gt;Node14</title>
<g id="a_edge16_Node000008_Node000014"><a xlink:title=" ">
<path fill="none" stroke="#63b8ff" d="M608.33,-109.98C641.89,-100.86 695.24,-86.36 731.86,-76.41"/>
<polygon fill="#63b8ff" stroke="#63b8ff" points="732.98,-79.73 741.71,-73.73 731.14,-72.98 732.98,-79.73"/>
</a>
</g>
</g>
<!-- Node9&#45;&gt;Node4 -->
<g id="edge11_Node000009_Node000004" class="edge">
<title>Node9&#45;&gt;Node4</title>
<g id="a_edge11_Node000009_Node000004"><a xlink:title=" ">
<path fill="none" stroke="#63b8ff" d="M405.33,-54.98C377.38,-46.06 333.29,-31.98 302.2,-22.06"/>
<polygon fill="#63b8ff" stroke="#63b8ff" points="303.2,-18.7 292.6,-18.99 301.07,-25.37 303.2,-18.7"/>
</a>
</g>
</g>
<!-- Node10 -->
<g id="Node000010" class="node">
<title>Node10</title>
<g id="a_Node000010"><a xlink:title=" ">
<polygon fill="#e0e0e0" stroke="#999999" points="493.5,-19 440.5,-19 440.5,0 493.5,0 493.5,-19"/>
<text text-anchor="middle" x="467" y="-7" font-family="Helvetica,sans-Serif" font-size="10.00">stdlib.h</text>
</a>
</g>
</g>
<!-- Node9&#45;&gt;Node10 -->
<g id="edge12_Node000009_Node000010" class="edge">
<title>Node9&#45;&gt;Node10</title>
<g id="a_edge12_Node000009_Node000010"><a xlink:title=" ">
<path fill="none" stroke="#63b8ff" d="M437.78,-54.75C442.62,-47.42 449.68,-36.73 455.64,-27.7"/>
<polygon fill="#63b8ff" stroke="#63b8ff" points="458.74,-29.36 461.33,-19.09 452.9,-25.5 458.74,-29.36"/>
</a>
</g>
</g>
<!-- Node11 -->
<g id="Node000011" class="node">
<title>Node11</title>
<g id="a_Node000011"><a xlink:title=" ">
<polygon fill="#e0e0e0" stroke="#999999" points="422.5,-19 369.5,-19 369.5,0 422.5,0 422.5,-19"/>
<text text-anchor="middle" x="396" y="-7" font-family="Helvetica,sans-Serif" font-size="10.00">limits.h</text>
</a>
</g>
</g>
<!-- Node9&#45;&gt;Node11 -->
<g id="edge13_Node000009_Node000011" class="edge">
<title>Node9&#45;&gt;Node11</title>
<g id="a_edge13_Node000009_Node000011"><a xlink:title=" ">
<path fill="none" stroke="#63b8ff" d="M426.06,-54.75C421.02,-47.34 413.66,-36.5 407.49,-27.41"/>
<polygon fill="#63b8ff" stroke="#63b8ff" points="410.35,-25.39 401.83,-19.09 404.56,-29.33 410.35,-25.39"/>
</a>
</g>
</g>
</g>
</svg>
