<?xml version="1.0" encoding="UTF-8" standalone="no"?>
<!DOCTYPE svg PUBLIC "-//W3C//DTD SVG 1.1//EN"
 "http://www.w3.org/Graphics/SVG/1.1/DTD/svg11.dtd">
<!-- Generated by graphviz version 2.43.0 (0)
 -->
<!-- Title: Graphical Class Hierarchy Pages: 1 -->
<svg width="775pt" height="267pt"
 viewBox="0.00 0.00 775.00 267.00" xmlns="http://www.w3.org/2000/svg" xmlns:xlink="http://www.w3.org/1999/xlink">
<g id="graph0" class="graph" transform="scale(1 1) rotate(0) translate(4 263)">
<title>Graphical Class Hierarchy</title>
<!-- Node0 -->
<g id="Node000000" class="node">
<title>Node0</title>
<g id="a_Node000000"><a xlink:href="class_kit_1_1_io_1_1_i_close.html" target="_top" xlink:title="This abstract class defines a close operation that is intended to be used Input and Output streams/fi...">
<polygon fill="white" stroke="#666666" points="81,-147 0,-147 0,-128 81,-128 81,-147"/>
<text text-anchor="middle" x="40.5" y="-135" font-family="Helvetica,sans-Serif" font-size="10.00">Kit::Io::IClose</text>
</a>
</g>
</g>
<!-- Node1 -->
<g id="Node000001" class="node">
<title>Node1</title>
<g id="a_Node000001"><a xlink:href="class_kit_1_1_io_1_1_i_input.html" target="_top" xlink:title="This partially abstract class defines a interface for operating on an input stream (example of a stre...">
<polygon fill="white" stroke="#666666" points="214.5,-83 135.5,-83 135.5,-64 214.5,-64 214.5,-83"/>
<text text-anchor="middle" x="175" y="-71" font-family="Helvetica,sans-Serif" font-size="10.00">Kit::Io::IInput</text>
</a>
</g>
</g>
<!-- Node0&#45;&gt;Node1 -->
<g id="edge17_Node000000_Node000001" class="edge">
<title>Node0&#45;&gt;Node1</title>
<g id="a_edge17_Node000000_Node000001"><a xlink:title=" ">
<path fill="none" stroke="#63b8ff" d="M63.88,-122.42C78.55,-112.97 98.39,-101.03 117,-92.5 124.68,-88.98 133.21,-85.79 141.28,-83.06"/>
<polygon fill="#63b8ff" stroke="#63b8ff" points="61.92,-119.51 55.47,-127.92 65.76,-125.37 61.92,-119.51"/>
</a>
</g>
</g>
<!-- Node8 -->
<g id="Node000008" class="node">
<title>Node8</title>
<g id="a_Node000008"><a xlink:href="class_kit_1_1_io_1_1_i_output.html" target="_top" xlink:title="This partially abstract class defines a interface for operating on an output stream (example of a str...">
<polygon fill="white" stroke="#666666" points="218.5,-157 131.5,-157 131.5,-138 218.5,-138 218.5,-157"/>
<text text-anchor="middle" x="175" y="-145" font-family="Helvetica,sans-Serif" font-size="10.00">Kit::Io::IOutput</text>
</a>
</g>
</g>
<!-- Node0&#45;&gt;Node8 -->
<g id="edge27_Node000000_Node000008" class="edge">
<title>Node0&#45;&gt;Node8</title>
<g id="a_edge27_Node000000_Node000008"><a xlink:title=" ">
<path fill="none" stroke="#63b8ff" d="M91.47,-141.27C104.49,-142.25 118.41,-143.3 131.04,-144.26"/>
<polygon fill="#63b8ff" stroke="#63b8ff" points="91.49,-137.76 81.25,-140.5 90.96,-144.74 91.49,-137.76"/>
</a>
</g>
</g>
<!-- Node2 -->
<g id="Node000002" class="node">
<title>Node2</title>
<g id="a_Node000002"><a xlink:href="class_kit_1_1_io_1_1_file_1_1_i_input.html" target="_top" xlink:title="This abstract class defines the interface for a Random Access Input File.">
<polygon fill="white" stroke="#666666" points="399.5,-83 297.5,-83 297.5,-64 399.5,-64 399.5,-83"/>
<text text-anchor="middle" x="348.5" y="-71" font-family="Helvetica,sans-Serif" font-size="10.00">Kit::Io::File::IInput</text>
</a>
</g>
</g>
<!-- Node1&#45;&gt;Node2 -->
<g id="edge18_Node000001_Node000002" class="edge">
<title>Node1&#45;&gt;Node2</title>
<g id="a_edge18_Node000001_Node000002"><a xlink:title=" ">
<path fill="none" stroke="#63b8ff" d="M225,-73.5C247.65,-73.5 274.53,-73.5 297.33,-73.5"/>
<polygon fill="#63b8ff" stroke="#63b8ff" points="224.92,-70 214.92,-73.5 224.92,-77 224.92,-70"/>
</a>
</g>
</g>
<!-- Node9 -->
<g id="Node000009" class="node">
<title>Node9</title>
<g id="a_Node000009"><a xlink:href="class_kit_1_1_io_1_1_i_input_output.html" target="_top" xlink:title="This abstract class defines a interface for operating on an input&#45;output stream.">
<polygon fill="white" stroke="#666666" points="404.5,-120 292.5,-120 292.5,-101 404.5,-101 404.5,-120"/>
<text text-anchor="middle" x="348.5" y="-108" font-family="Helvetica,sans-Serif" font-size="10.00">Kit::Io::IInputOutput</text>
</a>
</g>
</g>
<!-- Node1&#45;&gt;Node9 -->
<g id="edge23_Node000001_Node000009" class="edge">
<title>Node1&#45;&gt;Node9</title>
<g id="a_edge23_Node000001_Node000009"><a xlink:title=" ">
<path fill="none" stroke="#63b8ff" d="M224.81,-84.03C249.51,-89.36 279.27,-95.78 303.3,-100.96"/>
<polygon fill="#63b8ff" stroke="#63b8ff" points="225.43,-80.58 214.92,-81.9 223.95,-87.43 225.43,-80.58"/>
</a>
</g>
</g>
<!-- Node18 -->
<g id="Node000018" class="node">
<title>Node18</title>
<g id="a_Node000018"><a xlink:href="class_kit_1_1_io_1_1_stdio_1_1_input_delegate.html" target="_top" xlink:title="This concrete class implements a Input stream using the underlying platform&#39;s native OS interface for...">
<polygon fill="white" stroke="#666666" points="424,-46 273,-46 273,-27 424,-27 424,-46"/>
<text text-anchor="middle" x="348.5" y="-34" font-family="Helvetica,sans-Serif" font-size="10.00">Kit::Io::Stdio::InputDelegate</text>
</a>
</g>
</g>
<!-- Node1&#45;&gt;Node18 -->
<g id="edge25_Node000001_Node000018" class="edge">
<title>Node1&#45;&gt;Node18</title>
<g id="a_edge25_Node000001_Node000018"><a xlink:title=" ">
<path fill="none" stroke="#63b8ff" d="M224.81,-62.97C249.51,-57.64 279.27,-51.22 303.3,-46.04"/>
<polygon fill="#63b8ff" stroke="#63b8ff" points="223.95,-59.57 214.92,-65.1 225.43,-66.42 223.95,-59.57"/>
</a>
</g>
</g>
<!-- Node3 -->
<g id="Node000003" class="node">
<title>Node3</title>
<g id="a_Node000003"><a xlink:href="class_kit_1_1_io_1_1_file_1_1_i_input_output.html" target="_top" xlink:title="This abstract class defines the interface for a Random Access Input Output File.">
<polygon fill="white" stroke="#666666" points="599,-93 464,-93 464,-74 599,-74 599,-93"/>
<text text-anchor="middle" x="531.5" y="-81" font-family="Helvetica,sans-Serif" font-size="10.00">Kit::Io::File::IInputOutput</text>
</a>
</g>
</g>
<!-- Node2&#45;&gt;Node3 -->
<g id="edge19_Node000002_Node000003" class="edge">
<title>Node2&#45;&gt;Node3</title>
<g id="a_edge19_Node000002_Node000003"><a xlink:title=" ">
<path fill="none" stroke="#63b8ff" d="M410.37,-76.86C427.53,-77.81 446.28,-78.85 463.77,-79.81"/>
<polygon fill="#63b8ff" stroke="#63b8ff" points="410.1,-73.34 399.92,-76.29 409.71,-80.33 410.1,-73.34"/>
</a>
</g>
</g>
<!-- Node17 -->
<g id="Node000017" class="node">
<title>Node17</title>
<g id="a_Node000017"><a xlink:href="class_kit_1_1_io_1_1_file_1_1_input.html" target="_top" xlink:title="This concrete class provides a platform independent implementation of a Kit::Io::File::Input object.">
<polygon fill="white" stroke="#666666" points="581,-56 482,-56 482,-37 581,-37 581,-56"/>
<text text-anchor="middle" x="531.5" y="-44" font-family="Helvetica,sans-Serif" font-size="10.00">Kit::Io::File::Input</text>
</a>
</g>
</g>
<!-- Node2&#45;&gt;Node17 -->
<g id="edge22_Node000002_Node000017" class="edge">
<title>Node2&#45;&gt;Node17</title>
<g id="a_edge22_Node000002_Node000017"><a xlink:title=" ">
<path fill="none" stroke="#63b8ff" d="M410.07,-64.46C433.45,-60.98 459.82,-57.04 481.91,-53.75"/>
<polygon fill="#63b8ff" stroke="#63b8ff" points="409.29,-61.04 399.92,-65.98 410.33,-67.97 409.29,-61.04"/>
</a>
</g>
</g>
<!-- Node4 -->
<g id="Node000004" class="node">
<title>Node4</title>
<g id="a_Node000004"><a xlink:href="class_kit_1_1_io_1_1_file_1_1_input_output.html" target="_top" xlink:title="This concrete class provides a platform independent implementation of an Kit::Io::File::IInputOutput ...">
<polygon fill="white" stroke="#666666" points="767,-111 635,-111 635,-92 767,-92 767,-111"/>
<text text-anchor="middle" x="701" y="-99" font-family="Helvetica,sans-Serif" font-size="10.00">Kit::Io::File::InputOutput</text>
</a>
</g>
</g>
<!-- Node3&#45;&gt;Node4 -->
<g id="edge20_Node000003_Node000004" class="edge">
<title>Node3&#45;&gt;Node4</title>
<g id="a_edge20_Node000003_Node000004"><a xlink:title=" ">
<path fill="none" stroke="#63b8ff" d="M609.2,-91.74C617.79,-92.67 626.49,-93.6 634.91,-94.51"/>
<polygon fill="#63b8ff" stroke="#63b8ff" points="609.5,-88.25 599.18,-90.67 608.75,-95.21 609.5,-88.25"/>
</a>
</g>
</g>
<!-- Node5 -->
<g id="Node000005" class="node">
<title>Node5</title>
<g id="a_Node000005"><a xlink:href="class_kit_1_1_io_1_1_file_1_1_null.html" target="_top" xlink:title="This concrete class implements a NULL IInputOutput File that all of its input operations return &#39;End&#45;...">
<polygon fill="white" stroke="#666666" points="748,-74 654,-74 654,-55 748,-55 748,-74"/>
<text text-anchor="middle" x="701" y="-62" font-family="Helvetica,sans-Serif" font-size="10.00">Kit::Io::File::Null</text>
</a>
</g>
</g>
<!-- Node3&#45;&gt;Node5 -->
<g id="edge21_Node000003_Node000005" class="edge">
<title>Node3&#45;&gt;Node5</title>
<g id="a_edge21_Node000003_Node000005"><a xlink:title=" ">
<path fill="none" stroke="#63b8ff" d="M609.16,-74.8C624.44,-73.07 640.03,-71.3 653.89,-69.73"/>
<polygon fill="#63b8ff" stroke="#63b8ff" points="608.72,-71.33 599.18,-75.94 609.51,-78.29 608.72,-71.33"/>
</a>
</g>
</g>
<!-- Node10 -->
<g id="Node000010" class="node">
<title>Node10</title>
<g id="a_Node000010"><a xlink:href="class_kit_1_1_io_1_1_null.html" target="_top" xlink:title="This concrete class implements a NULL InputOutput stream &#45; that all of its input operations return &#39;E...">
<polygon fill="white" stroke="#666666" points="567,-130 496,-130 496,-111 567,-111 567,-130"/>
<text text-anchor="middle" x="531.5" y="-118" font-family="Helvetica,sans-Serif" font-size="10.00">Kit::Io::Null</text>
</a>
</g>
</g>
<!-- Node9&#45;&gt;Node10 -->
<g id="edge24_Node000009_Node000010" class="edge">
<title>Node9&#45;&gt;Node10</title>
<g id="a_edge24_Node000009_Node000010"><a xlink:title=" ">
<path fill="none" stroke="#63b8ff" d="M415.07,-114.12C442.36,-115.63 472.93,-117.32 495.75,-118.58"/>
<polygon fill="#63b8ff" stroke="#63b8ff" points="414.97,-110.61 404.79,-113.55 414.58,-117.6 414.97,-110.61"/>
</a>
</g>
</g>
<!-- Node19 -->
<g id="Node000019" class="node">
<title>Node19</title>
<g id="a_Node000019"><a xlink:href="class_kit_1_1_io_1_1_stdio_1_1_std_in.html" target="_top" xlink:title="This concrete class represents the C&#45;library &#39;stdin&#39; stream.">
<polygon fill="white" stroke="#666666" points="585,-19 478,-19 478,0 585,0 585,-19"/>
<text text-anchor="middle" x="531.5" y="-7" font-family="Helvetica,sans-Serif" font-size="10.00">Kit::Io::Stdio::StdIn</text>
</a>
</g>
</g>
<!-- Node18&#45;&gt;Node19 -->
<g id="edge26_Node000018_Node000019" class="edge">
<title>Node18&#45;&gt;Node19</title>
<g id="a_edge26_Node000018_Node000019"><a xlink:title=" ">
<path fill="none" stroke="#63b8ff" d="M423.33,-25.49C441.55,-22.77 460.72,-19.91 477.72,-17.37"/>
<polygon fill="#63b8ff" stroke="#63b8ff" points="422.69,-22.04 413.31,-26.98 423.72,-28.97 422.69,-22.04"/>
</a>
</g>
</g>
<!-- Node8&#45;&gt;Node9 -->
<g id="edge31_Node000008_Node000009" class="edge">
<title>Node8&#45;&gt;Node9</title>
<g id="a_edge31_Node000008_Node000009"><a xlink:title=" ">
<path fill="none" stroke="#63b8ff" d="M228.81,-136.11C252.72,-130.95 280.66,-124.92 303.42,-120.01"/>
<polygon fill="#63b8ff" stroke="#63b8ff" points="227.87,-132.73 218.83,-138.26 229.35,-139.57 227.87,-132.73"/>
</a>
</g>
</g>
<!-- Node6 -->
<g id="Node000006" class="node">
<title>Node6</title>
<g id="a_Node000006"><a xlink:href="class_kit_1_1_io_1_1_file_1_1_i_output.html" target="_top" xlink:title="This abstract class defines the interface for a Random Access Input File.">
<polygon fill="white" stroke="#666666" points="403.5,-157 293.5,-157 293.5,-138 403.5,-138 403.5,-157"/>
<text text-anchor="middle" x="348.5" y="-145" font-family="Helvetica,sans-Serif" font-size="10.00">Kit::Io::File::IOutput</text>
</a>
</g>
</g>
<!-- Node8&#45;&gt;Node6 -->
<g id="edge28_Node000008_Node000006" class="edge">
<title>Node8&#45;&gt;Node6</title>
<g id="a_edge28_Node000008_Node000006"><a xlink:title=" ">
<path fill="none" stroke="#63b8ff" d="M228.91,-147.5C249.32,-147.5 272.67,-147.5 293.22,-147.5"/>
<polygon fill="#63b8ff" stroke="#63b8ff" points="228.83,-144 218.83,-147.5 228.83,-151 228.83,-144"/>
</a>
</g>
</g>
<!-- Node11 -->
<g id="Node000011" class="node">
<title>Node11</title>
<g id="a_Node000011"><a xlink:href="class_kit_1_1_io_1_1_stdio_1_1_output_delegate.html" target="_top" xlink:title="This concrete class implements a Output stream using the underlying platform&#39;s native OS interface&#39; s...">
<polygon fill="white" stroke="#666666" points="428,-231 269,-231 269,-212 428,-212 428,-231"/>
<text text-anchor="middle" x="348.5" y="-219" font-family="Helvetica,sans-Serif" font-size="10.00">Kit::Io::Stdio::OutputDelegate</text>
</a>
</g>
</g>
<!-- Node8&#45;&gt;Node11 -->
<g id="edge32_Node000008_Node000011" class="edge">
<title>Node8&#45;&gt;Node11</title>
<g id="a_edge32_Node000008_Node000011"><a xlink:title=" ">
<path fill="none" stroke="#63b8ff" d="M197.5,-163.16C215.72,-175.74 242.96,-192.99 269,-203.5 277.3,-206.85 286.35,-209.65 295.27,-211.97"/>
<polygon fill="#63b8ff" stroke="#63b8ff" points="199.05,-159.96 188.85,-157.06 195.01,-165.68 199.05,-159.96"/>
</a>
</g>
</g>
<!-- Node14 -->
<g id="Node000014" class="node">
<title>Node14</title>
<g id="a_Node000014"><a xlink:href="class_kit_1_1_io_1_1_tee_output.html" target="_top" xlink:title="This concrete class implements a IOutput stream that outputs the data to multiple (up to 4) output st...">
<polygon fill="white" stroke="#666666" points="399,-194 298,-194 298,-175 399,-175 399,-194"/>
<text text-anchor="middle" x="348.5" y="-182" font-family="Helvetica,sans-Serif" font-size="10.00">Kit::Io::TeeOutput</text>
</a>
</g>
</g>
<!-- Node8&#45;&gt;Node14 -->
<g id="edge35_Node000008_Node000014" class="edge">
<title>Node8&#45;&gt;Node14</title>
<g id="a_edge35_Node000008_Node000014"><a xlink:title=" ">
<path fill="none" stroke="#63b8ff" d="M228.81,-158.89C252.72,-164.05 280.66,-170.08 303.42,-174.99"/>
<polygon fill="#63b8ff" stroke="#63b8ff" points="229.35,-155.43 218.83,-156.74 227.87,-162.27 229.35,-155.43"/>
</a>
</g>
</g>
<!-- Node6&#45;&gt;Node3 -->
<g id="edge29_Node000006_Node000003" class="edge">
<title>Node6&#45;&gt;Node3</title>
<g id="a_edge29_Node000006_Node000003"><a xlink:title=" ">
<path fill="none" stroke="#63b8ff" d="M413.43,-135.24C418.45,-133.56 423.36,-131.65 428,-129.5 446.14,-121.08 446.09,-111.4 464,-102.5 471.53,-98.76 479.91,-95.65 488.12,-93.1"/>
<polygon fill="#63b8ff" stroke="#63b8ff" points="412.24,-131.94 403.7,-138.21 414.29,-138.64 412.24,-131.94"/>
</a>
</g>
</g>
<!-- Node7 -->
<g id="Node000007" class="node">
<title>Node7</title>
<g id="a_Node000007"><a xlink:href="class_kit_1_1_io_1_1_file_1_1_output.html" target="_top" xlink:title="This concrete class provides a platform independent implementation of a Kit::Io::File::Output object.">
<polygon fill="white" stroke="#666666" points="585,-167 478,-167 478,-148 585,-148 585,-167"/>
<text text-anchor="middle" x="531.5" y="-155" font-family="Helvetica,sans-Serif" font-size="10.00">Kit::Io::File::Output</text>
</a>
</g>
</g>
<!-- Node6&#45;&gt;Node7 -->
<g id="edge30_Node000006_Node000007" class="edge">
<title>Node6&#45;&gt;Node7</title>
<g id="a_edge30_Node000006_Node000007"><a xlink:title=" ">
<path fill="none" stroke="#63b8ff" d="M413.9,-151.06C434.83,-152.21 457.81,-153.48 477.79,-154.59"/>
<polygon fill="#63b8ff" stroke="#63b8ff" points="413.98,-147.56 403.81,-150.5 413.6,-154.55 413.98,-147.56"/>
</a>
</g>
</g>
<!-- Node12 -->
<g id="Node000012" class="node">
<title>Node12</title>
<g id="a_Node000012"><a xlink:href="class_kit_1_1_io_1_1_stdio_1_1_std_err.html" target="_top" xlink:title="This concrete class represents the C&#45;library &#39;stderr&#39; stream.">
<polygon fill="white" stroke="#666666" points="587,-259 476,-259 476,-240 587,-240 587,-259"/>
<text text-anchor="middle" x="531.5" y="-247" font-family="Helvetica,sans-Serif" font-size="10.00">Kit::Io::Stdio::StdErr</text>
</a>
</g>
</g>
<!-- Node11&#45;&gt;Node12 -->
<g id="edge33_Node000011_Node000012" class="edge">
<title>Node11&#45;&gt;Node12</title>
<g id="a_edge33_Node000011_Node000012"><a xlink:title=" ">
<path fill="none" stroke="#63b8ff" d="M421.03,-232.57C439.26,-235.39 458.57,-238.37 475.81,-241.04"/>
<polygon fill="#63b8ff" stroke="#63b8ff" points="421.45,-229.09 411.03,-231.02 420.38,-236.01 421.45,-229.09"/>
</a>
</g>
</g>
<!-- Node13 -->
<g id="Node000013" class="node">
<title>Node13</title>
<g id="a_Node000013"><a xlink:href="class_kit_1_1_io_1_1_stdio_1_1_std_out.html" target="_top" xlink:title="This concrete class represents the C&#45;library &#39;stdout&#39; stream.">
<polygon fill="white" stroke="#666666" points="589,-222 474,-222 474,-203 589,-203 589,-222"/>
<text text-anchor="middle" x="531.5" y="-210" font-family="Helvetica,sans-Serif" font-size="10.00">Kit::Io::Stdio::StdOut</text>
</a>
</g>
</g>
<!-- Node11&#45;&gt;Node13 -->
<g id="edge34_Node000011_Node000013" class="edge">
<title>Node11&#45;&gt;Node13</title>
<g id="a_edge34_Node000011_Node000013"><a xlink:title=" ">
<path fill="none" stroke="#63b8ff" d="M438.23,-217.09C450.32,-216.49 462.45,-215.88 473.76,-215.32"/>
<polygon fill="#63b8ff" stroke="#63b8ff" points="437.91,-213.6 428.1,-217.59 438.26,-220.59 437.91,-213.6"/>
</a>
</g>
</g>
<!-- Node15 -->
<g id="Node000015" class="node">
<title>Node15</title>
<g id="a_Node000015"><a xlink:href="class_kit_1_1_io_1_1_i_eos.html" target="_top" xlink:title="This abstract class defines a isEos() operation that is intended to be used Input and Output streams.">
<polygon fill="white" stroke="#666666" points="76,-101 5,-101 5,-82 76,-82 76,-101"/>
<text text-anchor="middle" x="40.5" y="-89" font-family="Helvetica,sans-Serif" font-size="10.00">Kit::Io::IEos</text>
</a>
</g>
</g>
<!-- Node15&#45;&gt;Node1 -->
<g id="edge36_Node000015_Node000001" class="edge">
<title>Node15&#45;&gt;Node1</title>
<g id="a_edge36_Node000015_Node000001"><a xlink:title=" ">
<path fill="none" stroke="#63b8ff" d="M86.42,-85.4C102.26,-83.25 119.93,-80.85 135.22,-78.77"/>
<polygon fill="#63b8ff" stroke="#63b8ff" points="85.75,-81.96 76.31,-86.77 86.69,-88.89 85.75,-81.96"/>
</a>
</g>
</g>
<!-- Node15&#45;&gt;Node8 -->
<g id="edge37_Node000015_Node000008" class="edge">
<title>Node15&#45;&gt;Node8</title>
<g id="a_edge37_Node000015_Node000008"><a xlink:title=" ">
<path fill="none" stroke="#63b8ff" d="M67.34,-105.8C81.7,-113.42 100.05,-122.61 117,-129.5 124.5,-132.55 132.72,-135.41 140.53,-137.92"/>
<polygon fill="#63b8ff" stroke="#63b8ff" points="68.99,-102.72 58.53,-101.06 65.68,-108.88 68.99,-102.72"/>
</a>
</g>
</g>
<!-- Node16 -->
<g id="Node000016" class="node">
<title>Node16</title>
<g id="a_Node000016"><a xlink:href="class_kit_1_1_io_1_1_file_1_1_i_position.html" target="_top" xlink:title="This abstract class defines random&#45;access semantics for file&#45;like objects.">
<polygon fill="white" stroke="#666666" points="233,-120 117,-120 117,-101 233,-101 233,-120"/>
<text text-anchor="middle" x="175" y="-108" font-family="Helvetica,sans-Serif" font-size="10.00">Kit::Io::File::IPosition</text>
</a>
</g>
</g>
<!-- Node16&#45;&gt;Node2 -->
<g id="edge38_Node000016_Node000002" class="edge">
<title>Node16&#45;&gt;Node2</title>
<g id="a_edge38_Node000016_Node000002"><a xlink:title=" ">
<path fill="none" stroke="#63b8ff" d="M230.01,-98.85C253.57,-93.77 280.85,-87.88 303.19,-83.06"/>
<polygon fill="#63b8ff" stroke="#63b8ff" points="229.2,-95.44 220.17,-100.97 230.68,-102.28 229.2,-95.44"/>
</a>
</g>
</g>
<!-- Node16&#45;&gt;Node6 -->
<g id="edge39_Node000016_Node000006" class="edge">
<title>Node16&#45;&gt;Node6</title>
<g id="a_edge39_Node000016_Node000006"><a xlink:title=" ">
<path fill="none" stroke="#63b8ff" d="M230.01,-122.15C253.57,-127.23 280.85,-133.12 303.19,-137.94"/>
<polygon fill="#63b8ff" stroke="#63b8ff" points="230.68,-118.72 220.17,-120.03 229.2,-125.56 230.68,-118.72"/>
</a>
</g>
</g>
</g>
</svg>
