<?xml version="1.0" encoding="UTF-8" standalone="no"?>
<!DOCTYPE svg PUBLIC "-//W3C//DTD SVG 1.1//EN"
 "http://www.w3.org/Graphics/SVG/1.1/DTD/svg11.dtd">
<!-- Generated by graphviz version 2.43.0 (0)
 -->
<!-- Title: Graphical Class Hierarchy Pages: 1 -->
<svg width="399pt" height="64pt"
 viewBox="0.00 0.00 399.00 64.00" xmlns="http://www.w3.org/2000/svg" xmlns:xlink="http://www.w3.org/1999/xlink">
<g id="graph0" class="graph" transform="scale(1 1) rotate(0) translate(4 60)">
<title>Graphical Class Hierarchy</title>
<!-- Node0 -->
<g id="Node000000" class="node">
<title>Node0</title>
<g id="a_Node000000"><a xlink:href="class_kit_1_1_driver_1_1_i_start.html" target="_top" xlink:title="This abstract class defines the method for starting a driver.">
<polygon fill="white" stroke="#666666" points="98,-56 0,-56 0,-37 98,-37 98,-56"/>
<text text-anchor="middle" x="49" y="-44" font-family="Helvetica,sans-Serif" font-size="10.00">Kit::Driver::IStart</text>
</a>
</g>
</g>
<!-- Node1 -->
<g id="Node000001" class="node">
<title>Node1</title>
<g id="a_Node000001"><a xlink:href="class_kit_1_1_driver_1_1_n_v_1_1_i_api.html" target="_top" xlink:title="This class defines the interface for a platform independent Non&#45;volatile storage driver.">
<polygon fill="white" stroke="#666666" points="244,-37 134,-37 134,-18 244,-18 244,-37"/>
<text text-anchor="middle" x="189" y="-25" font-family="Helvetica,sans-Serif" font-size="10.00">Kit::Driver::NV::IApi</text>
</a>
</g>
</g>
<!-- Node0&#45;&gt;Node1 -->
<g id="edge234_Node000000_Node000001" class="edge">
<title>Node0&#45;&gt;Node1</title>
<g id="a_edge234_Node000000_Node000001"><a xlink:title=" ">
<path fill="none" stroke="#63b8ff" d="M108.42,-38.46C116.86,-37.29 125.52,-36.1 133.87,-34.95"/>
<polygon fill="#63b8ff" stroke="#63b8ff" points="107.69,-35.02 98.27,-39.85 108.65,-41.96 107.69,-35.02"/>
</a>
</g>
</g>
<!-- Node2 -->
<g id="Node000002" class="node">
<title>Node2</title>
<g id="a_Node000002"><a xlink:href="class_kit_1_1_driver_1_1_n_v_1_1_null.html" target="_top" xlink:title="This concrete class provides a &#39;null&#39; implementation of the NV::IApi interface.">
<polygon fill="white" stroke="#666666" points="391,-37 280,-37 280,-18 391,-18 391,-37"/>
<text text-anchor="middle" x="335.5" y="-25" font-family="Helvetica,sans-Serif" font-size="10.00">Kit::Driver::NV::Null</text>
</a>
</g>
</g>
<!-- Node1&#45;&gt;Node2 -->
<g id="edge235_Node000001_Node000002" class="edge">
<title>Node1&#45;&gt;Node2</title>
<g id="a_edge235_Node000001_Node000002"><a xlink:title=" ">
<path fill="none" stroke="#63b8ff" d="M254.49,-27.5C263,-27.5 271.66,-27.5 279.98,-27.5"/>
<polygon fill="#63b8ff" stroke="#63b8ff" points="254.22,-24 244.22,-27.5 254.22,-31 254.22,-24"/>
</a>
</g>
</g>
<!-- Node3 -->
<g id="Node000003" class="node">
<title>Node3</title>
<g id="a_Node000003"><a xlink:href="class_kit_1_1_driver_1_1_i_stop.html" target="_top" xlink:title="This abstract class defines the method for stopping a driver.">
<polygon fill="white" stroke="#666666" points="97.5,-19 0.5,-19 0.5,0 97.5,0 97.5,-19"/>
<text text-anchor="middle" x="49" y="-7" font-family="Helvetica,sans-Serif" font-size="10.00">Kit::Driver::IStop</text>
</a>
</g>
</g>
<!-- Node3&#45;&gt;Node1 -->
<g id="edge236_Node000003_Node000001" class="edge">
<title>Node3&#45;&gt;Node1</title>
<g id="a_edge236_Node000003_Node000001"><a xlink:title=" ">
<path fill="none" stroke="#63b8ff" d="M108.05,-17.07C116.51,-18.18 125.2,-19.31 133.59,-20.4"/>
<polygon fill="#63b8ff" stroke="#63b8ff" points="108.25,-13.57 97.88,-15.75 107.34,-20.51 108.25,-13.57"/>
</a>
</g>
</g>
</g>
</svg>
