<?xml version="1.0" encoding="UTF-8" standalone="no"?>
<!DOCTYPE svg PUBLIC "-//W3C//DTD SVG 1.1//EN"
 "http://www.w3.org/Graphics/SVG/1.1/DTD/svg11.dtd">
<!-- Generated by graphviz version 2.43.0 (0)
 -->
<!-- Title: Graphical Class Hierarchy Pages: 1 -->
<svg width="832pt" height="222pt"
 viewBox="0.00 0.00 832.00 221.50" xmlns="http://www.w3.org/2000/svg" xmlns:xlink="http://www.w3.org/1999/xlink">
<g id="graph0" class="graph" transform="scale(1 1) rotate(0) translate(4 217.5)">
<title>Graphical Class Hierarchy</title>
<!-- Node0 -->
<g id="Node000000" class="node">
<title>Node0</title>
<g id="a_Node000000"><a xlink:href="class_kit_1_1_container_1_1_key.html" target="_top" xlink:title="This abstract class defines the interface that a contained object must support if it has comparable k...">
<polygon fill="white" stroke="#666666" points="107,-160 0,-160 0,-141 107,-141 107,-160"/>
<text text-anchor="middle" x="53.5" y="-148" font-family="Helvetica,sans-Serif" font-size="10.00">Kit::Container::Key</text>
</a>
</g>
</g>
<!-- Node1 -->
<g id="Node000001" class="node">
<title>Node1</title>
<g id="a_Node000001"><a xlink:href="class_kit_1_1_container_1_1_key_plain_type.html" target="_top" xlink:title="This template class is used to generate Key classes for most of the C/C++ primitive data types.">
<polygon fill="white" stroke="#666666" points="276.5,-213.5 145.5,-213.5 145.5,-183.5 276.5,-183.5 276.5,-213.5"/>
<text text-anchor="start" x="153.5" y="-201.5" font-family="Helvetica,sans-Serif" font-size="10.00">Kit::Container::KeyPlain</text>
<text text-anchor="middle" x="211" y="-190.5" font-family="Helvetica,sans-Serif" font-size="10.00">Type&lt; DATATYPE &gt;</text>
</a>
</g>
</g>
<!-- Node0&#45;&gt;Node1 -->
<g id="edge54_Node000000_Node000001" class="edge">
<title>Node0&#45;&gt;Node1</title>
<g id="a_edge54_Node000000_Node000001"><a xlink:title=" ">
<path fill="none" stroke="#63b8ff" d="M95.41,-163.13C115.58,-169.36 140.06,-176.91 161.2,-183.44"/>
<polygon fill="#63b8ff" stroke="#63b8ff" points="96.18,-159.7 85.59,-160.1 94.12,-166.39 96.18,-159.7"/>
</a>
</g>
</g>
<!-- Node2 -->
<g id="Node000002" class="node">
<title>Node2</title>
<g id="a_Node000002"><a xlink:href="class_kit_1_1_container_1_1_key_string_buffer.html" target="_top" xlink:title="This class provides a &#39;Key&#39; wrapper for a array of Character of length N, i.e.">
<polygon fill="white" stroke="#666666" points="279,-165.5 143,-165.5 143,-135.5 279,-135.5 279,-165.5"/>
<text text-anchor="start" x="151" y="-153.5" font-family="Helvetica,sans-Serif" font-size="10.00">Kit::Container::KeyString</text>
<text text-anchor="middle" x="211" y="-142.5" font-family="Helvetica,sans-Serif" font-size="10.00">Buffer</text>
</a>
</g>
</g>
<!-- Node0&#45;&gt;Node2 -->
<g id="edge55_Node000000_Node000002" class="edge">
<title>Node0&#45;&gt;Node2</title>
<g id="a_edge55_Node000000_Node000002"><a xlink:title=" ">
<path fill="none" stroke="#63b8ff" d="M117.25,-150.5C125.66,-150.5 134.32,-150.5 142.8,-150.5"/>
<polygon fill="#63b8ff" stroke="#63b8ff" points="117.15,-147 107.15,-150.5 117.15,-154 117.15,-147"/>
</a>
</g>
</g>
<!-- Node4 -->
<g id="Node000004" class="node">
<title>Node4</title>
<g id="a_Node000004"><a xlink:href="class_kit_1_1_text_1_1_i_string.html" target="_top" xlink:title="This abstract class defines the operations that can be before on a NULL terminated string.">
<polygon fill="white" stroke="#666666" points="258,-117 164,-117 164,-98 258,-98 258,-117"/>
<text text-anchor="middle" x="211" y="-105" font-family="Helvetica,sans-Serif" font-size="10.00">Kit::Text::IString</text>
</a>
</g>
</g>
<!-- Node0&#45;&gt;Node4 -->
<g id="edge57_Node000000_Node000004" class="edge">
<title>Node0&#45;&gt;Node4</title>
<g id="a_edge57_Node000000_Node000004"><a xlink:title=" ">
<path fill="none" stroke="#63b8ff" d="M98.75,-138.26C123.13,-131.52 152.96,-123.27 175.59,-117.02"/>
<polygon fill="#63b8ff" stroke="#63b8ff" points="97.72,-134.92 89.01,-140.96 99.58,-141.66 97.72,-134.92"/>
</a>
</g>
</g>
<!-- Node3 -->
<g id="Node000003" class="node">
<title>Node3</title>
<g id="a_Node000003"><a xlink:href="class_kit_1_1_container_1_1_key_literal_string.html" target="_top" xlink:title="This class provides a &#39;Key&#39; wrapper for a C string literal.">
<polygon fill="white" stroke="#666666" points="453,-165.5 315,-165.5 315,-135.5 453,-135.5 453,-165.5"/>
<text text-anchor="start" x="323" y="-153.5" font-family="Helvetica,sans-Serif" font-size="10.00">Kit::Container::KeyLiteral</text>
<text text-anchor="middle" x="384" y="-142.5" font-family="Helvetica,sans-Serif" font-size="10.00">String</text>
</a>
</g>
</g>
<!-- Node2&#45;&gt;Node3 -->
<g id="edge56_Node000002_Node000003" class="edge">
<title>Node2&#45;&gt;Node3</title>
<g id="a_edge56_Node000002_Node000003"><a xlink:title=" ">
<path fill="none" stroke="#63b8ff" d="M289.14,-150.5C297.75,-150.5 306.49,-150.5 314.98,-150.5"/>
<polygon fill="#63b8ff" stroke="#63b8ff" points="289.09,-147 279.09,-150.5 289.09,-154 289.09,-147"/>
</a>
</g>
</g>
<!-- Node5 -->
<g id="Node000005" class="node">
<title>Node5</title>
<g id="a_Node000005"><a xlink:href="class_kit_1_1_text_1_1_string_base.html" target="_top" xlink:title="This partially concrete class implements the portions of the String Api that is independent of the in...">
<polygon fill="white" stroke="#666666" points="441.5,-117 326.5,-117 326.5,-98 441.5,-98 441.5,-117"/>
<text text-anchor="middle" x="384" y="-105" font-family="Helvetica,sans-Serif" font-size="10.00">Kit::Text::StringBase</text>
</a>
</g>
</g>
<!-- Node4&#45;&gt;Node5 -->
<g id="edge58_Node000004_Node000005" class="edge">
<title>Node4&#45;&gt;Node5</title>
<g id="a_edge58_Node000004_Node000005"><a xlink:title=" ">
<path fill="none" stroke="#63b8ff" d="M268.37,-107.5C286.98,-107.5 307.68,-107.5 326.32,-107.5"/>
<polygon fill="#63b8ff" stroke="#63b8ff" points="268.28,-104 258.28,-107.5 268.28,-111 268.28,-104"/>
</a>
</g>
</g>
<!-- Node6 -->
<g id="Node000006" class="node">
<title>Node6</title>
<g id="a_Node000006"><a xlink:href="class_kit_1_1_text_1_1_d_string.html" target="_top" xlink:title="This concrete class implements a simple &quot;dynamic storage&quot; IString Type.">
<polygon fill="white" stroke="#666666" points="598,-136 500,-136 500,-117 598,-117 598,-136"/>
<text text-anchor="middle" x="549" y="-124" font-family="Helvetica,sans-Serif" font-size="10.00">Kit::Text::DString</text>
</a>
</g>
</g>
<!-- Node5&#45;&gt;Node6 -->
<g id="edge59_Node000005_Node000006" class="edge">
<title>Node5&#45;&gt;Node6</title>
<g id="a_edge59_Node000005_Node000006"><a xlink:title=" ">
<path fill="none" stroke="#63b8ff" d="M451.52,-115.25C467.74,-117.14 484.78,-119.13 499.94,-120.9"/>
<polygon fill="#63b8ff" stroke="#63b8ff" points="451.89,-111.77 441.55,-114.09 451.08,-118.73 451.89,-111.77"/>
</a>
</g>
</g>
<!-- Node7 -->
<g id="Node000007" class="node">
<title>Node7</title>
<g id="a_Node000007"><a xlink:href="class_kit_1_1_text_1_1_f_string_base.html" target="_top" xlink:title="This mostly concrete class implements a &quot;fixed storage&quot; String Type.">
<polygon fill="white" stroke="#666666" points="609,-99 489,-99 489,-80 609,-80 609,-99"/>
<text text-anchor="middle" x="549" y="-87" font-family="Helvetica,sans-Serif" font-size="10.00">Kit::Text::FStringBase</text>
</a>
</g>
</g>
<!-- Node5&#45;&gt;Node7 -->
<g id="edge60_Node000005_Node000007" class="edge">
<title>Node5&#45;&gt;Node7</title>
<g id="a_edge60_Node000005_Node000007"><a xlink:title=" ">
<path fill="none" stroke="#63b8ff" d="M451.73,-100.13C464,-98.78 476.74,-97.37 488.78,-96.04"/>
<polygon fill="#63b8ff" stroke="#63b8ff" points="451.11,-96.68 441.55,-101.25 451.88,-103.64 451.11,-96.68"/>
</a>
</g>
</g>
<!-- Node8 -->
<g id="Node000008" class="node">
<title>Node8</title>
<g id="a_Node000008"><a xlink:href="class_kit_1_1_text_1_1_f_string.html" target="_top" xlink:title=" ">
<polygon fill="white" stroke="#666666" points="782.5,-200.5 686.5,-200.5 686.5,-170.5 782.5,-170.5 782.5,-200.5"/>
<text text-anchor="start" x="694.5" y="-188.5" font-family="Helvetica,sans-Serif" font-size="10.00">Kit::Text::FString</text>
<text text-anchor="middle" x="734.5" y="-177.5" font-family="Helvetica,sans-Serif" font-size="10.00">&lt; maxName &gt;</text>
</a>
</g>
</g>
<!-- Node7&#45;&gt;Node8 -->
<g id="edge61_Node000007_Node000008" class="edge">
<title>Node7&#45;&gt;Node8</title>
<g id="a_edge61_Node000007_Node000008"><a xlink:title=" ">
<path fill="none" stroke="#63b8ff" d="M600.99,-103.4C603.8,-104.93 606.5,-106.63 609,-108.5 631.79,-125.57 621.82,-144.97 645,-161.5 657.05,-170.1 672.03,-175.61 686.21,-179.16"/>
<polygon fill="#63b8ff" stroke="#63b8ff" points="602.25,-100.13 591.71,-99.05 599.28,-106.46 602.25,-100.13"/>
</a>
</g>
</g>
<!-- Node9 -->
<g id="Node000009" class="node">
<title>Node9</title>
<g id="a_Node000009"><a xlink:href="class_kit_1_1_text_1_1_f_string.html" target="_top" xlink:title=" ">
<polygon fill="white" stroke="#666666" points="824,-152.5 645,-152.5 645,-122.5 824,-122.5 824,-152.5"/>
<text text-anchor="start" x="653" y="-140.5" font-family="Helvetica,sans-Serif" font-size="10.00">Kit::Text::FString</text>
<text text-anchor="middle" x="734.5" y="-129.5" font-family="Helvetica,sans-Serif" font-size="10.00">&lt; configMAX_TASK_NAME_LEN &gt;</text>
</a>
</g>
</g>
<!-- Node7&#45;&gt;Node9 -->
<g id="edge62_Node000007_Node000009" class="edge">
<title>Node7&#45;&gt;Node9</title>
<g id="a_edge62_Node000007_Node000009"><a xlink:title=" ">
<path fill="none" stroke="#63b8ff" d="M596.66,-101.7C620.76,-108.01 650.4,-115.76 675.92,-122.44"/>
<polygon fill="#63b8ff" stroke="#63b8ff" points="597.25,-98.24 586.69,-99.1 595.48,-105.01 597.25,-98.24"/>
</a>
</g>
</g>
<!-- Node10 -->
<g id="Node000010" class="node">
<title>Node10</title>
<g id="a_Node000010"><a xlink:href="class_kit_1_1_text_1_1_f_string.html" target="_top" xlink:title=" ">
<polygon fill="white" stroke="#666666" points="782.5,-104.5 686.5,-104.5 686.5,-74.5 782.5,-74.5 782.5,-104.5"/>
<text text-anchor="start" x="694.5" y="-92.5" font-family="Helvetica,sans-Serif" font-size="10.00">Kit::Text::FString</text>
<text text-anchor="middle" x="734.5" y="-81.5" font-family="Helvetica,sans-Serif" font-size="10.00">&lt; 64 &gt;</text>
</a>
</g>
</g>
<!-- Node7&#45;&gt;Node10 -->
<g id="edge63_Node000007_Node000010" class="edge">
<title>Node7&#45;&gt;Node10</title>
<g id="a_edge63_Node000007_Node000010"><a xlink:title=" ">
<path fill="none" stroke="#63b8ff" d="M619.22,-89.5C641.66,-89.5 666.02,-89.5 686.45,-89.5"/>
<polygon fill="#63b8ff" stroke="#63b8ff" points="619.07,-86 609.07,-89.5 619.07,-93 619.07,-86"/>
</a>
</g>
</g>
<!-- Node11 -->
<g id="Node000011" class="node">
<title>Node11</title>
<g id="a_Node000011"><a xlink:href="class_kit_1_1_text_1_1_b_string.html" target="_top" xlink:title="This class constructs a IString from client supplied memory.">
<polygon fill="white" stroke="#666666" points="783.5,-56 685.5,-56 685.5,-37 783.5,-37 783.5,-56"/>
<text text-anchor="middle" x="734.5" y="-44" font-family="Helvetica,sans-Serif" font-size="10.00">Kit::Text::BString</text>
</a>
</g>
</g>
<!-- Node7&#45;&gt;Node11 -->
<g id="edge64_Node000007_Node000011" class="edge">
<title>Node7&#45;&gt;Node11</title>
<g id="a_edge64_Node000007_Node000011"><a xlink:title=" ">
<path fill="none" stroke="#63b8ff" d="M596.32,-77.44C611.77,-73.52 629.1,-69.21 645,-65.5 658.77,-62.28 673.8,-58.98 687.5,-56.05"/>
<polygon fill="#63b8ff" stroke="#63b8ff" points="595.29,-74.09 586.47,-79.96 597.02,-80.88 595.29,-74.09"/>
</a>
</g>
</g>
<!-- Node12 -->
<g id="Node000012" class="node">
<title>Node12</title>
<g id="a_Node000012"><a xlink:href="class_kit_1_1_text_1_1_f_string.html" target="_top" xlink:title="This template class represents a NULL terminated string of a specific length.">
<polygon fill="white" stroke="#666666" points="797,-19 672,-19 672,0 797,0 797,-19"/>
<text text-anchor="middle" x="734.5" y="-7" font-family="Helvetica,sans-Serif" font-size="10.00">Kit::Text::FString&lt; S &gt;</text>
</a>
</g>
</g>
<!-- Node7&#45;&gt;Node12 -->
<g id="edge65_Node000007_Node000012" class="edge">
<title>Node7&#45;&gt;Node12</title>
<g id="a_edge65_Node000007_Node000012"><a xlink:title=" ">
<path fill="none" stroke="#63b8ff" d="M569.62,-73.49C588.01,-59.29 616.82,-39.07 645,-27.5 653.41,-24.05 662.56,-21.24 671.67,-18.95"/>
<polygon fill="#63b8ff" stroke="#63b8ff" points="567.16,-70.97 561.48,-79.91 571.5,-76.47 567.16,-70.97"/>
</a>
</g>
</g>
</g>
</svg>
