<?xml version="1.0" encoding="UTF-8" standalone="no"?>
<!DOCTYPE svg PUBLIC "-//W3C//DTD SVG 1.1//EN"
 "http://www.w3.org/Graphics/SVG/1.1/DTD/svg11.dtd">
<!-- Generated by graphviz version 2.43.0 (0)
 -->
<!-- Title: Graphical Class Hierarchy Pages: 1 -->
<svg width="325pt" height="146pt"
 viewBox="0.00 0.00 325.00 145.50" xmlns="http://www.w3.org/2000/svg" xmlns:xlink="http://www.w3.org/1999/xlink">
<g id="graph0" class="graph" transform="scale(1 1) rotate(0) translate(4 141.5)">
<title>Graphical Class Hierarchy</title>
<!-- Node0 -->
<g id="Node000000" class="node">
<title>Node0</title>
<g id="a_Node000000"><a xlink:href="class_kit_1_1_container_1_1_d_list_base.html" target="_top" xlink:title="This protected base class implements a NON&#45;TYPE&#45;SAFE a doubly linked list which maintains the orderin...">
<polygon fill="white" stroke="#666666" points="138,-72.5 0,-72.5 0,-53.5 138,-53.5 138,-72.5"/>
<text text-anchor="middle" x="69" y="-60.5" font-family="Helvetica,sans-Serif" font-size="10.00">Kit::Container::DListBase</text>
</a>
</g>
</g>
<!-- Node1 -->
<g id="Node000001" class="node">
<title>Node1</title>
<g id="a_Node000001"><a xlink:href="class_kit_1_1_container_1_1_d_list.html" target="_top" xlink:title=" ">
<polygon fill="white" stroke="#666666" points="305.5,-137.5 185.5,-137.5 185.5,-96.5 305.5,-96.5 305.5,-137.5"/>
<text text-anchor="start" x="193.5" y="-125.5" font-family="Helvetica,sans-Serif" font-size="10.00">Kit::Container::DList</text>
<text text-anchor="start" x="193.5" y="-114.5" font-family="Helvetica,sans-Serif" font-size="10.00">&lt; Kit::Memory::Pool::</text>
<text text-anchor="middle" x="245.5" y="-103.5" font-family="Helvetica,sans-Serif" font-size="10.00">BlockInfo &gt;</text>
</a>
</g>
</g>
<!-- Node0&#45;&gt;Node1 -->
<g id="edge2_Node000000_Node000001" class="edge">
<title>Node0&#45;&gt;Node1</title>
<g id="a_edge2_Node000000_Node000001"><a xlink:title=" ">
<path fill="none" stroke="#63b8ff" d="M110.58,-75.56C132.83,-82.44 160.82,-91.1 185.45,-98.73"/>
<polygon fill="#63b8ff" stroke="#63b8ff" points="111.38,-72.14 100.8,-72.53 109.31,-78.83 111.38,-72.14"/>
</a>
</g>
</g>
<!-- Node2 -->
<g id="Node000002" class="node">
<title>Node2</title>
<g id="a_Node000002"><a xlink:href="class_kit_1_1_container_1_1_d_list.html" target="_top" xlink:title=" ">
<polygon fill="white" stroke="#666666" points="317,-78 174,-78 174,-48 317,-48 317,-78"/>
<text text-anchor="start" x="182" y="-66" font-family="Helvetica,sans-Serif" font-size="10.00">Kit::Container::DList</text>
<text text-anchor="middle" x="245.5" y="-55" font-family="Helvetica,sans-Serif" font-size="10.00">&lt; Kit::System::ICounter &gt;</text>
</a>
</g>
</g>
<!-- Node0&#45;&gt;Node2 -->
<g id="edge3_Node000000_Node000002" class="edge">
<title>Node0&#45;&gt;Node2</title>
<g id="a_edge3_Node000000_Node000002"><a xlink:title=" ">
<path fill="none" stroke="#63b8ff" d="M148.43,-63C156.86,-63 165.41,-63 173.74,-63"/>
<polygon fill="#63b8ff" stroke="#63b8ff" points="148.22,-59.5 138.22,-63 148.22,-66.5 148.22,-59.5"/>
</a>
</g>
</g>
<!-- Node3 -->
<g id="Node000003" class="node">
<title>Node3</title>
<g id="a_Node000003"><a xlink:href="class_kit_1_1_container_1_1_d_list.html" target="_top" xlink:title="This template class implements a singly linked list which maintains the ordering imposed on it by the...">
<polygon fill="white" stroke="#666666" points="302.5,-30 188.5,-30 188.5,0 302.5,0 302.5,-30"/>
<text text-anchor="start" x="196.5" y="-18" font-family="Helvetica,sans-Serif" font-size="10.00">Kit::Container::DList</text>
<text text-anchor="middle" x="245.5" y="-7" font-family="Helvetica,sans-Serif" font-size="10.00">&lt; ITEM &gt;</text>
</a>
</g>
</g>
<!-- Node0&#45;&gt;Node3 -->
<g id="edge4_Node000000_Node000003" class="edge">
<title>Node0&#45;&gt;Node3</title>
<g id="a_edge4_Node000000_Node000003"><a xlink:title=" ">
<path fill="none" stroke="#63b8ff" d="M114.68,-50.71C137.54,-44.42 165.58,-36.71 189.74,-30.06"/>
<polygon fill="#63b8ff" stroke="#63b8ff" points="113.61,-47.37 104.89,-53.4 115.46,-54.12 113.61,-47.37"/>
</a>
</g>
</g>
</g>
</svg>
