<?xml version="1.0" encoding="UTF-8" standalone="no"?>
<!DOCTYPE svg PUBLIC "-//W3C//DTD SVG 1.1//EN"
 "http://www.w3.org/Graphics/SVG/1.1/DTD/svg11.dtd">
<!-- Generated by graphviz version 2.43.0 (0)
 -->
<!-- Title: Graphical Class Hierarchy Pages: 1 -->
<svg width="534pt" height="261pt"
 viewBox="0.00 0.00 534.00 261.00" xmlns="http://www.w3.org/2000/svg" xmlns:xlink="http://www.w3.org/1999/xlink">
<g id="graph0" class="graph" transform="scale(1 1) rotate(0) translate(4 257)">
<title>Graphical Class Hierarchy</title>
<!-- Node0 -->
<g id="Node000000" class="node">
<title>Node0</title>
<g id="a_Node000000"><a xlink:href="class_kit_1_1_container_1_1_d_list_base.html" target="_top" xlink:title="This protected base class implements a NON&#45;TYPE&#45;SAFE a doubly linked list which maintains the orderin...">
<polygon fill="white" stroke="#666666" points="138,-139.5 0,-139.5 0,-120.5 138,-120.5 138,-139.5"/>
<text text-anchor="middle" x="69" y="-127.5" font-family="Helvetica,sans-Serif" font-size="10.00">Kit::Container::DListBase</text>
</a>
</g>
</g>
<!-- Node1 -->
<g id="Node000001" class="node">
<title>Node1</title>
<g id="a_Node000001"><a xlink:href="class_kit_1_1_container_1_1_d_list.html" target="_top" xlink:title=" ">
<polygon fill="white" stroke="#666666" points="323.5,-253 194.5,-253 194.5,-223 323.5,-223 323.5,-253"/>
<text text-anchor="start" x="202.5" y="-241" font-family="Helvetica,sans-Serif" font-size="10.00">Kit::Container::DList</text>
<text text-anchor="middle" x="259" y="-230" font-family="Helvetica,sans-Serif" font-size="10.00">&lt; Kit::Dm::IObserver &gt;</text>
</a>
</g>
</g>
<!-- Node0&#45;&gt;Node1 -->
<g id="edge218_Node000000_Node000001" class="edge">
<title>Node0&#45;&gt;Node1</title>
<g id="a_edge218_Node000000_Node000001"><a xlink:title=" ">
<path fill="none" stroke="#63b8ff" d="M86.2,-146.63C105.47,-165.52 139.42,-196.05 174,-214 180.46,-217.35 187.45,-220.29 194.55,-222.86"/>
<polygon fill="#63b8ff" stroke="#63b8ff" points="88.65,-144.13 79.1,-139.55 83.7,-149.09 88.65,-144.13"/>
</a>
</g>
</g>
<!-- Node2 -->
<g id="Node000002" class="node">
<title>Node2</title>
<g id="a_Node000002"><a xlink:href="class_kit_1_1_container_1_1_d_list.html" target="_top" xlink:title=" ">
<polygon fill="white" stroke="#666666" points="319,-204.5 199,-204.5 199,-163.5 319,-163.5 319,-204.5"/>
<text text-anchor="start" x="207" y="-192.5" font-family="Helvetica,sans-Serif" font-size="10.00">Kit::Container::DList</text>
<text text-anchor="start" x="207" y="-181.5" font-family="Helvetica,sans-Serif" font-size="10.00">&lt; Kit::Memory::Pool::</text>
<text text-anchor="middle" x="259" y="-170.5" font-family="Helvetica,sans-Serif" font-size="10.00">BlockInfo &gt;</text>
</a>
</g>
</g>
<!-- Node0&#45;&gt;Node2 -->
<g id="edge219_Node000000_Node000002" class="edge">
<title>Node0&#45;&gt;Node2</title>
<g id="a_edge219_Node000000_Node000002"><a xlink:title=" ">
<path fill="none" stroke="#63b8ff" d="M112.92,-142.33C138.39,-149.65 171.06,-159.03 198.95,-167.04"/>
<polygon fill="#63b8ff" stroke="#63b8ff" points="113.76,-138.93 103.18,-139.53 111.82,-145.65 113.76,-138.93"/>
</a>
</g>
</g>
<!-- Node3 -->
<g id="Node000003" class="node">
<title>Node3</title>
<g id="a_Node000003"><a xlink:href="class_kit_1_1_container_1_1_d_list.html" target="_top" xlink:title=" ">
<polygon fill="white" stroke="#666666" points="330.5,-145 187.5,-145 187.5,-115 330.5,-115 330.5,-145"/>
<text text-anchor="start" x="195.5" y="-133" font-family="Helvetica,sans-Serif" font-size="10.00">Kit::Container::DList</text>
<text text-anchor="middle" x="259" y="-122" font-family="Helvetica,sans-Serif" font-size="10.00">&lt; Kit::System::ICounter &gt;</text>
</a>
</g>
</g>
<!-- Node0&#45;&gt;Node3 -->
<g id="edge220_Node000000_Node000003" class="edge">
<title>Node0&#45;&gt;Node3</title>
<g id="a_edge220_Node000000_Node000003"><a xlink:title=" ">
<path fill="none" stroke="#63b8ff" d="M148.37,-130C161.26,-130 174.56,-130 187.25,-130"/>
<polygon fill="#63b8ff" stroke="#63b8ff" points="148.14,-126.5 138.14,-130 148.14,-133.5 148.14,-126.5"/>
</a>
</g>
</g>
<!-- Node4 -->
<g id="Node000004" class="node">
<title>Node4</title>
<g id="a_Node000004"><a xlink:href="class_kit_1_1_container_1_1_d_list.html" target="_top" xlink:title="This template class implements a double linked list which maintains the ordering imposed on it by the...">
<polygon fill="white" stroke="#666666" points="316,-97 202,-97 202,-67 316,-67 316,-97"/>
<text text-anchor="start" x="210" y="-85" font-family="Helvetica,sans-Serif" font-size="10.00">Kit::Container::DList</text>
<text text-anchor="middle" x="259" y="-74" font-family="Helvetica,sans-Serif" font-size="10.00">&lt; EXT_ITEM &gt;</text>
</a>
</g>
</g>
<!-- Node0&#45;&gt;Node4 -->
<g id="edge221_Node000000_Node000004" class="edge">
<title>Node0&#45;&gt;Node4</title>
<g id="a_edge221_Node000000_Node000004"><a xlink:title=" ">
<path fill="none" stroke="#63b8ff" d="M117.47,-117.88C143.15,-111.32 175.02,-103.19 201.92,-96.32"/>
<polygon fill="#63b8ff" stroke="#63b8ff" points="116.42,-114.54 107.59,-120.4 118.15,-121.32 116.42,-114.54"/>
</a>
</g>
</g>
<!-- Node5 -->
<g id="Node000005" class="node">
<title>Node5</title>
<g id="a_Node000005"><a xlink:href="class_kit_1_1_container_1_1_ordered_list_base.html" target="_top" xlink:title="This protected base class implements a NON&#45;TYPE&#45;SAFE an ordered doubly linked list.">
<polygon fill="white" stroke="#666666" points="344,-48.5 174,-48.5 174,-29.5 344,-29.5 344,-48.5"/>
<text text-anchor="middle" x="259" y="-36.5" font-family="Helvetica,sans-Serif" font-size="10.00">Kit::Container::OrderedListBase</text>
</a>
</g>
</g>
<!-- Node0&#45;&gt;Node5 -->
<g id="edge222_Node000000_Node000005" class="edge">
<title>Node0&#45;&gt;Node5</title>
<g id="a_edge222_Node000000_Node000005"><a xlink:title=" ">
<path fill="none" stroke="#63b8ff" d="M88.59,-113.8C108.42,-97.35 141.43,-72.31 174,-58 182.76,-54.15 192.39,-51.04 201.91,-48.54"/>
<polygon fill="#63b8ff" stroke="#63b8ff" points="86.06,-111.35 80.69,-120.48 90.58,-116.7 86.06,-111.35"/>
</a>
</g>
</g>
<!-- Node6 -->
<g id="Node000006" class="node">
<title>Node6</title>
<g id="a_Node000006"><a xlink:href="class_kit_1_1_container_1_1_ordered_list.html" target="_top" xlink:title=" ">
<polygon fill="white" stroke="#666666" points="526,-78 380,-78 380,-48 526,-48 526,-78"/>
<text text-anchor="start" x="388" y="-66" font-family="Helvetica,sans-Serif" font-size="10.00">Kit::Container::OrderedList</text>
<text text-anchor="middle" x="453" y="-55" font-family="Helvetica,sans-Serif" font-size="10.00">&lt; Kit::Dm::IModelPoint &gt;</text>
</a>
</g>
</g>
<!-- Node5&#45;&gt;Node6 -->
<g id="edge223_Node000005_Node000006" class="edge">
<title>Node5&#45;&gt;Node6</title>
<g id="a_edge223_Node000005_Node000006"><a xlink:title=" ">
<path fill="none" stroke="#63b8ff" d="M346.4,-49.8C357.63,-51.2 369.04,-52.63 380,-54"/>
<polygon fill="#63b8ff" stroke="#63b8ff" points="346.52,-46.29 336.16,-48.52 345.65,-53.23 346.52,-46.29"/>
</a>
</g>
</g>
<!-- Node7 -->
<g id="Node000007" class="node">
<title>Node7</title>
<g id="a_Node000007"><a xlink:href="class_kit_1_1_container_1_1_ordered_list.html" target="_top" xlink:title="This template class implements a double linked list which maintains the ordering imposed on it by the...">
<polygon fill="white" stroke="#666666" points="526,-30 380,-30 380,0 526,0 526,-30"/>
<text text-anchor="start" x="388" y="-18" font-family="Helvetica,sans-Serif" font-size="10.00">Kit::Container::OrderedList</text>
<text text-anchor="middle" x="453" y="-7" font-family="Helvetica,sans-Serif" font-size="10.00">&lt; KEYED_ITEM &gt;</text>
</a>
</g>
</g>
<!-- Node5&#45;&gt;Node7 -->
<g id="edge224_Node000005_Node000007" class="edge">
<title>Node5&#45;&gt;Node7</title>
<g id="a_edge224_Node000005_Node000007"><a xlink:title=" ">
<path fill="none" stroke="#63b8ff" d="M346.4,-28.2C357.63,-26.8 369.04,-25.37 380,-24"/>
<polygon fill="#63b8ff" stroke="#63b8ff" points="345.65,-24.77 336.16,-29.48 346.52,-31.71 345.65,-24.77"/>
</a>
</g>
</g>
</g>
</svg>
