<?xml version="1.0" encoding="UTF-8" standalone="no"?>
<!DOCTYPE svg PUBLIC "-//W3C//DTD SVG 1.1//EN"
 "http://www.w3.org/Graphics/SVG/1.1/DTD/svg11.dtd">
<!-- Generated by graphviz version 2.43.0 (0)
 -->
<!-- Title: Graphical Class Hierarchy Pages: 1 -->
<svg width="339pt" height="138pt"
 viewBox="0.00 0.00 339.00 138.00" xmlns="http://www.w3.org/2000/svg" xmlns:xlink="http://www.w3.org/1999/xlink">
<g id="graph0" class="graph" transform="scale(1 1) rotate(0) translate(4 134)">
<title>Graphical Class Hierarchy</title>
<!-- Node0 -->
<g id="Node000000" class="node">
<title>Node0</title>
<g id="a_Node000000"><a xlink:href="class_kit_1_1_checksum_1_1_i_edc.html" target="_top" xlink:title="This abstract class provides a generic interface for an Error&#45;Detecting code (EDC) i....">
<polygon fill="white" stroke="#666666" points="113,-74 0,-74 0,-55 113,-55 113,-74"/>
<text text-anchor="middle" x="56.5" y="-62" font-family="Helvetica,sans-Serif" font-size="10.00">Kit::Checksum::IEdc</text>
</a>
</g>
</g>
<!-- Node1 -->
<g id="Node000001" class="node">
<title>Node1</title>
<g id="a_Node000001"><a xlink:href="class_kit_1_1_checksum_1_1_crc16_ccitt_fast.html" target="_top" xlink:title="This class provides an implementation for the 16 Bit CRC&#45;CCITT standard.">
<polygon fill="white" stroke="#666666" points="321.5,-130 158.5,-130 158.5,-111 321.5,-111 321.5,-130"/>
<text text-anchor="middle" x="240" y="-118" font-family="Helvetica,sans-Serif" font-size="10.00">Kit::Checksum::Crc16CcittFast</text>
</a>
</g>
</g>
<!-- Node0&#45;&gt;Node1 -->
<g id="edge223_Node000000_Node000001" class="edge">
<title>Node0&#45;&gt;Node1</title>
<g id="a_edge223_Node000000_Node000001"><a xlink:title=" ">
<path fill="none" stroke="#63b8ff" d="M86.66,-78.33C104.37,-86.3 127.62,-95.99 149,-102.5 159.67,-105.75 171.23,-108.57 182.41,-110.95"/>
<polygon fill="#63b8ff" stroke="#63b8ff" points="87.98,-75.09 77.43,-74.12 85.07,-81.46 87.98,-75.09"/>
</a>
</g>
</g>
<!-- Node2 -->
<g id="Node000002" class="node">
<title>Node2</title>
<g id="a_Node000002"><a xlink:href="class_kit_1_1_checksum_1_1_crc32_ethernet_fast.html" target="_top" xlink:title="This class provides an implementation for the CRC&#45;32/IEEE 802.3 (Ethernet) variant.">
<polygon fill="white" stroke="#666666" points="331,-93 149,-93 149,-74 331,-74 331,-93"/>
<text text-anchor="middle" x="240" y="-81" font-family="Helvetica,sans-Serif" font-size="10.00">Kit::Checksum::Crc32EthernetFast</text>
</a>
</g>
</g>
<!-- Node0&#45;&gt;Node2 -->
<g id="edge224_Node000000_Node000002" class="edge">
<title>Node0&#45;&gt;Node2</title>
<g id="a_edge224_Node000000_Node000002"><a xlink:title=" ">
<path fill="none" stroke="#63b8ff" d="M123.66,-71.43C131.86,-72.28 140.36,-73.17 148.85,-74.06"/>
<polygon fill="#63b8ff" stroke="#63b8ff" points="123.75,-67.92 113.44,-70.36 123.02,-74.88 123.75,-67.92"/>
</a>
</g>
</g>
<!-- Node3 -->
<g id="Node000003" class="node">
<title>Node3</title>
<g id="a_Node000003"><a xlink:href="class_kit_1_1_checksum_1_1_crc32_mpeg2_fast.html" target="_top" xlink:title="This class provides an implementation for the CRC&#45;32/MPEG&#45;2 variant.">
<polygon fill="white" stroke="#666666" points="326.5,-56 153.5,-56 153.5,-37 326.5,-37 326.5,-56"/>
<text text-anchor="middle" x="240" y="-44" font-family="Helvetica,sans-Serif" font-size="10.00">Kit::Checksum::Crc32Mpeg2Fast</text>
</a>
</g>
</g>
<!-- Node0&#45;&gt;Node3 -->
<g id="edge225_Node000000_Node000003" class="edge">
<title>Node0&#45;&gt;Node3</title>
<g id="a_edge225_Node000000_Node000003"><a xlink:title=" ">
<path fill="none" stroke="#63b8ff" d="M123.68,-57.94C133.29,-56.98 143.29,-55.99 153.21,-55.01"/>
<polygon fill="#63b8ff" stroke="#63b8ff" points="123.04,-54.48 113.44,-58.95 123.73,-61.45 123.04,-54.48"/>
</a>
</g>
</g>
<!-- Node4 -->
<g id="Node000004" class="node">
<title>Node4</title>
<g id="a_Node000004"><a xlink:href="class_kit_1_1_checksum_1_1_fletcher16.html" target="_top" xlink:title="This class provides an implementation for the 16 Bit wide Fletcher Checksum.">
<polygon fill="white" stroke="#666666" points="312.5,-19 167.5,-19 167.5,0 312.5,0 312.5,-19"/>
<text text-anchor="middle" x="240" y="-7" font-family="Helvetica,sans-Serif" font-size="10.00">Kit::Checksum::Fletcher16</text>
</a>
</g>
</g>
<!-- Node0&#45;&gt;Node4 -->
<g id="edge226_Node000000_Node000004" class="edge">
<title>Node0&#45;&gt;Node4</title>
<g id="a_edge226_Node000000_Node000004"><a xlink:title=" ">
<path fill="none" stroke="#63b8ff" d="M88.64,-50.75C106.13,-43.41 128.5,-34.65 149,-28.5 160.93,-24.92 173.95,-21.76 186.28,-19.09"/>
<polygon fill="#63b8ff" stroke="#63b8ff" points="86.78,-47.74 78.96,-54.88 89.53,-54.18 86.78,-47.74"/>
</a>
</g>
</g>
</g>
</svg>
