<?xml version="1.0" encoding="UTF-8" standalone="no"?>
<!DOCTYPE svg PUBLIC "-//W3C//DTD SVG 1.1//EN"
 "http://www.w3.org/Graphics/SVG/1.1/DTD/svg11.dtd">
<!-- Generated by graphviz version 2.43.0 (0)
 -->
<!-- Title: Graphical Class Hierarchy Pages: 1 -->
<svg width="1352pt" height="884pt"
 viewBox="0.00 0.00 1352.00 883.50" xmlns="http://www.w3.org/2000/svg" xmlns:xlink="http://www.w3.org/1999/xlink">
<g id="graph0" class="graph" transform="scale(1 1) rotate(0) translate(4 879.5)">
<title>Graphical Class Hierarchy</title>
<!-- Node0 -->
<g id="Node000000" class="node">
<title>Node0</title>
<g id="a_Node000000"><a xlink:href="class_kit_1_1_system_1_1_i_event_manager.html" target="_top" xlink:title="This abstract class defines the interface to signal a &#39;Event Flag&#39;.">
<polygon fill="white" stroke="#666666" points="361.5,-634 209.5,-634 209.5,-615 361.5,-615 361.5,-634"/>
<text text-anchor="middle" x="285.5" y="-622" font-family="Helvetica,sans-Serif" font-size="10.00">Kit::System::IEventManager</text>
</a>
</g>
</g>
<!-- Node1 -->
<g id="Node000001" class="node">
<title>Node1</title>
<g id="a_Node000001"><a xlink:href="class_kit_1_1_system_1_1_event_loop.html" target="_top" xlink:title="This concrete class is a IRunnable object that provides a event driven execution model for a thread.">
<polygon fill="white" stroke="#666666" points="550.5,-619 420.5,-619 420.5,-600 550.5,-600 550.5,-619"/>
<text text-anchor="middle" x="485.5" y="-607" font-family="Helvetica,sans-Serif" font-size="10.00">Kit::System::EventLoop</text>
</a>
</g>
</g>
<!-- Node0&#45;&gt;Node1 -->
<g id="edge59_Node000000_Node000001" class="edge">
<title>Node0&#45;&gt;Node1</title>
<g id="a_edge59_Node000000_Node000001"><a xlink:title=" ">
<path fill="none" stroke="#63b8ff" d="M371.72,-618.04C388.05,-616.81 404.88,-615.53 420.4,-614.36"/>
<polygon fill="#63b8ff" stroke="#63b8ff" points="371.34,-614.56 361.64,-618.81 371.87,-621.54 371.34,-614.56"/>
</a>
</g>
</g>
<!-- Node2 -->
<g id="Node000002" class="node">
<title>Node2</title>
<g id="a_Node000002"><a xlink:href="class_kit_1_1_event_queue_1_1_server.html" target="_top" xlink:title="This concrete class extends the Kit::System::EventLoop interface to include processing events from Ev...">
<polygon fill="white" stroke="#666666" points="751.5,-619 618.5,-619 618.5,-600 751.5,-600 751.5,-619"/>
<text text-anchor="middle" x="685" y="-607" font-family="Helvetica,sans-Serif" font-size="10.00">Kit::EventQueue::Server</text>
</a>
</g>
</g>
<!-- Node1&#45;&gt;Node2 -->
<g id="edge60_Node000001_Node000002" class="edge">
<title>Node1&#45;&gt;Node2</title>
<g id="a_edge60_Node000001_Node000002"><a xlink:title=" ">
<path fill="none" stroke="#63b8ff" d="M560.67,-609.5C579.55,-609.5 599.73,-609.5 618.17,-609.5"/>
<polygon fill="#63b8ff" stroke="#63b8ff" points="560.62,-606 550.62,-609.5 560.62,-613 560.62,-606"/>
</a>
</g>
</g>
<!-- Node5 -->
<g id="Node000005" class="node">
<title>Node5</title>
<g id="a_Node000005"><a xlink:href="class_kit_1_1_system_1_1_event_loop_with_p_scheduling.html" target="_top" xlink:title="This class extends the EventLoop class to add periodic scheduling to an event based &#39;thread&#39;.">
<polygon fill="white" stroke="#666666" points="761,-581.5 609,-581.5 609,-551.5 761,-551.5 761,-581.5"/>
<text text-anchor="start" x="617" y="-569.5" font-family="Helvetica,sans-Serif" font-size="10.00">Kit::System::EventLoopWith</text>
<text text-anchor="middle" x="685" y="-558.5" font-family="Helvetica,sans-Serif" font-size="10.00">PScheduling</text>
</a>
</g>
</g>
<!-- Node1&#45;&gt;Node5 -->
<g id="edge62_Node000001_Node000005" class="edge">
<title>Node1&#45;&gt;Node5</title>
<g id="a_edge62_Node000001_Node000005"><a xlink:title=" ">
<path fill="none" stroke="#63b8ff" d="M540.27,-597.79C563.34,-592.77 590.56,-586.84 615.08,-581.51"/>
<polygon fill="#63b8ff" stroke="#63b8ff" points="539.36,-594.41 530.33,-599.96 540.85,-601.25 539.36,-594.41"/>
</a>
</g>
</g>
<!-- Node3 -->
<g id="Node000003" class="node">
<title>Node3</title>
<g id="a_Node000003"><a xlink:href="class_kit_1_1_event_queue_1_1_with_periodic_scheduling.html" target="_top" xlink:title="This class extends the Kit::EventQueue::Server class to add periodic scheduling to an event based &#39;th...">
<polygon fill="white" stroke="#666666" points="964,-581.5 801,-581.5 801,-551.5 964,-551.5 964,-581.5"/>
<text text-anchor="start" x="809" y="-569.5" font-family="Helvetica,sans-Serif" font-size="10.00">Kit::EventQueue::WithPeriodic</text>
<text text-anchor="middle" x="882.5" y="-558.5" font-family="Helvetica,sans-Serif" font-size="10.00">Scheduling</text>
</a>
</g>
</g>
<!-- Node2&#45;&gt;Node3 -->
<g id="edge61_Node000002_Node000003" class="edge">
<title>Node2&#45;&gt;Node3</title>
<g id="a_edge61_Node000002_Node000003"><a xlink:title=" ">
<path fill="none" stroke="#63b8ff" d="M739.23,-597.79C762.06,-592.77 789.01,-586.84 813.27,-581.51"/>
<polygon fill="#63b8ff" stroke="#63b8ff" points="738.4,-594.39 729.39,-599.96 739.91,-601.23 738.4,-594.39"/>
</a>
</g>
</g>
<!-- Node16 -->
<g id="Node000016" class="node">
<title>Node16</title>
<g id="a_Node000016"><a xlink:href="class_kit_1_1_io_1_1_socket_1_1_i_listener.html" target="_top" xlink:title="This abstract class defines the interface for a SIMPLE socket listener.">
<polygon fill="white" stroke="#666666" points="351,-490 220,-490 220,-471 351,-471 351,-490"/>
<text text-anchor="middle" x="285.5" y="-478" font-family="Helvetica,sans-Serif" font-size="10.00">Kit::Io::Socket::IListener</text>
</a>
</g>
</g>
<!-- Node15 -->
<g id="Node000015" class="node">
<title>Node15</title>
<g id="a_Node000015"><a xlink:href="class_kit_1_1_io_1_1_socket_1_1_listener_runnable.html" target="_top" xlink:title="This concrete class provides an implementation of a simple listener using IPv4 addressing.">
<polygon fill="white" stroke="#666666" points="549.5,-495.5 421.5,-495.5 421.5,-465.5 549.5,-465.5 549.5,-495.5"/>
<text text-anchor="start" x="429.5" y="-483.5" font-family="Helvetica,sans-Serif" font-size="10.00">Kit::Io::Socket::Listener</text>
<text text-anchor="middle" x="485.5" y="-472.5" font-family="Helvetica,sans-Serif" font-size="10.00">Runnable</text>
</a>
</g>
</g>
<!-- Node16&#45;&gt;Node15 -->
<g id="edge63_Node000016_Node000015" class="edge">
<title>Node16&#45;&gt;Node15</title>
<g id="a_edge63_Node000016_Node000015"><a xlink:title=" ">
<path fill="none" stroke="#63b8ff" d="M361.27,-480.5C381.08,-480.5 402.26,-480.5 421.38,-480.5"/>
<polygon fill="#63b8ff" stroke="#63b8ff" points="361.06,-477 351.06,-480.5 361.06,-484 361.06,-477"/>
</a>
</g>
</g>
<!-- Node14 -->
<g id="Node000014" class="node">
<title>Node14</title>
<g id="a_Node000014"><a xlink:href="class_kit_1_1_system_1_1_i_runnable.html" target="_top" xlink:title="This mostly an abstract class defines the interface for an object that is &quot;executed&quot; when a Thread ob...">
<polygon fill="white" stroke="#666666" points="349.5,-560 221.5,-560 221.5,-541 349.5,-541 349.5,-560"/>
<text text-anchor="middle" x="285.5" y="-548" font-family="Helvetica,sans-Serif" font-size="10.00">Kit::System::IRunnable</text>
</a>
</g>
</g>
<!-- Node14&#45;&gt;Node1 -->
<g id="edge65_Node000014_Node000001" class="edge">
<title>Node14&#45;&gt;Node1</title>
<g id="a_edge65_Node000014_Node000001"><a xlink:title=" ">
<path fill="none" stroke="#63b8ff" d="M342.71,-562.77C349.3,-564.75 355.86,-567 362,-569.5 379.15,-576.5 380.74,-583.76 398,-590.5 407.74,-594.3 418.41,-597.42 428.83,-599.96"/>
<polygon fill="#63b8ff" stroke="#63b8ff" points="343.65,-559.39 333.08,-560.03 341.74,-566.13 343.65,-559.39"/>
</a>
</g>
</g>
<!-- Node14&#45;&gt;Node15 -->
<g id="edge64_Node000014_Node000015" class="edge">
<title>Node14&#45;&gt;Node15</title>
<g id="a_edge64_Node000014_Node000015"><a xlink:title=" ">
<path fill="none" stroke="#63b8ff" d="M317.72,-536.9C339.89,-527.49 370.5,-515 398,-505.5 408.05,-502.03 418.86,-498.64 429.32,-495.53"/>
<polygon fill="#63b8ff" stroke="#63b8ff" points="316.28,-533.71 308.46,-540.86 319.03,-540.15 316.28,-533.71"/>
</a>
</g>
</g>
<!-- Node17 -->
<g id="Node000017" class="node">
<title>Node17</title>
<g id="a_Node000017"><a xlink:href="class_kit_1_1_system_1_1_free_r_t_o_s_1_1_make_current_thread_a_kit_thread.html" target="_top" xlink:title="This is a helper class that can be used to make the current thread a CPL thread.">
<polygon fill="white" stroke="#666666" points="572,-581.5 399,-581.5 399,-551.5 572,-551.5 572,-581.5"/>
<text text-anchor="start" x="407" y="-569.5" font-family="Helvetica,sans-Serif" font-size="10.00">Kit::System::FreeRTOS</text>
<text text-anchor="middle" x="485.5" y="-558.5" font-family="Helvetica,sans-Serif" font-size="10.00">::MakeCurrentThreadAKitThread</text>
</a>
</g>
</g>
<!-- Node14&#45;&gt;Node17 -->
<g id="edge66_Node000014_Node000017" class="edge">
<title>Node14&#45;&gt;Node17</title>
<g id="a_edge66_Node000014_Node000017"><a xlink:title=" ">
<path fill="none" stroke="#63b8ff" d="M359.74,-556.42C372.46,-557.45 385.78,-558.52 398.79,-559.57"/>
<polygon fill="#63b8ff" stroke="#63b8ff" points="359.94,-552.92 349.69,-555.61 359.38,-559.9 359.94,-552.92"/>
</a>
</g>
</g>
<!-- Node18 -->
<g id="Node000018" class="node">
<title>Node18</title>
<g id="a_Node000018"><a xlink:href="class_kit_1_1_system_1_1_i_signable.html" target="_top" xlink:title="This abstract class defines the interface by which a client can cause an object that is waiting&#45;on&#45;a&#45;...">
<polygon fill="white" stroke="#666666" points="347.5,-447 223.5,-447 223.5,-428 347.5,-428 347.5,-447"/>
<text text-anchor="middle" x="285.5" y="-435" font-family="Helvetica,sans-Serif" font-size="10.00">Kit::System::ISignable</text>
</a>
</g>
</g>
<!-- Node18&#45;&gt;Node1 -->
<g id="edge67_Node000018_Node000001" class="edge">
<title>Node18&#45;&gt;Node1</title>
<g id="a_edge67_Node000018_Node000001"><a xlink:title=" ">
<path fill="none" stroke="#63b8ff" d="M347.37,-451.46C352.77,-454.45 357.78,-458.09 362,-462.5 402.82,-505.23 355.02,-549.94 398,-590.5 404.26,-596.41 411.92,-600.64 420.07,-603.65"/>
<polygon fill="#63b8ff" stroke="#63b8ff" points="348.5,-448.12 337.97,-447 345.5,-454.45 348.5,-448.12"/>
</a>
</g>
</g>
<!-- Node19 -->
<g id="Node000019" class="node">
<title>Node19</title>
<g id="a_Node000019"><a xlink:href="class_kit_1_1_system_1_1_semaphore.html" target="_top" xlink:title="This semaphore concrete class defines the interface for a Counting Semaphore.">
<polygon fill="white" stroke="#666666" points="552.5,-447 418.5,-447 418.5,-428 552.5,-428 552.5,-447"/>
<text text-anchor="middle" x="485.5" y="-435" font-family="Helvetica,sans-Serif" font-size="10.00">Kit::System::Semaphore</text>
</a>
</g>
</g>
<!-- Node18&#45;&gt;Node19 -->
<g id="edge68_Node000018_Node000019" class="edge">
<title>Node18&#45;&gt;Node19</title>
<g id="a_edge68_Node000018_Node000019"><a xlink:title=" ">
<path fill="none" stroke="#63b8ff" d="M357.67,-437.5C377.4,-437.5 398.73,-437.5 418.17,-437.5"/>
<polygon fill="#63b8ff" stroke="#63b8ff" points="357.52,-434 347.52,-437.5 357.52,-441 357.52,-434"/>
</a>
</g>
</g>
<!-- Node20 -->
<g id="Node000020" class="node">
<title>Node20</title>
<g id="a_Node000020"><a xlink:href="class_kit_1_1_system_1_1_thread.html" target="_top" xlink:title="This mostly abstract class defines the operations that can be performed on a thread.">
<polygon fill="white" stroke="#666666" points="542,-410 429,-410 429,-391 542,-391 542,-410"/>
<text text-anchor="middle" x="485.5" y="-398" font-family="Helvetica,sans-Serif" font-size="10.00">Kit::System::Thread</text>
</a>
</g>
</g>
<!-- Node18&#45;&gt;Node20 -->
<g id="edge69_Node000018_Node000020" class="edge">
<title>Node18&#45;&gt;Node20</title>
<g id="a_edge69_Node000018_Node000020"><a xlink:title=" ">
<path fill="none" stroke="#63b8ff" d="M347.4,-426.12C374.93,-420.98 407.09,-414.97 433.34,-410.06"/>
<polygon fill="#63b8ff" stroke="#63b8ff" points="346.68,-422.69 337.49,-427.97 347.96,-429.58 346.68,-422.69"/>
</a>
</g>
</g>
<!-- Node21 -->
<g id="Node000021" class="node">
<title>Node21</title>
<g id="a_Node000021"><a xlink:href="class_kit_1_1_system_1_1_free_r_t_o_s_1_1_thread.html" target="_top" xlink:title="This concrete class implements a Thread object using FreeRTOS threads.">
<polygon fill="white" stroke="#666666" points="747.5,-479.5 622.5,-479.5 622.5,-449.5 747.5,-449.5 747.5,-479.5"/>
<text text-anchor="start" x="630.5" y="-467.5" font-family="Helvetica,sans-Serif" font-size="10.00">Kit::System::FreeRTOS</text>
<text text-anchor="middle" x="685" y="-456.5" font-family="Helvetica,sans-Serif" font-size="10.00">::Thread</text>
</a>
</g>
</g>
<!-- Node20&#45;&gt;Node21 -->
<g id="edge70_Node000020_Node000021" class="edge">
<title>Node20&#45;&gt;Node21</title>
<g id="a_edge70_Node000020_Node000021"><a xlink:title=" ">
<path fill="none" stroke="#63b8ff" d="M552.03,-411.63C559.22,-413.59 566.33,-415.86 573,-418.5 590.44,-425.4 591.95,-432.7 609,-440.5 616.09,-443.74 623.73,-446.73 631.34,-449.42"/>
<polygon fill="#63b8ff" stroke="#63b8ff" points="552.79,-408.21 542.24,-409.15 551.08,-415 552.79,-408.21"/>
</a>
</g>
</g>
<!-- Node22 -->
<g id="Node000022" class="node">
<title>Node22</title>
<g id="a_Node000022"><a xlink:href="class_kit_1_1_system_1_1_posix_1_1_thread.html" target="_top" xlink:title="This concrete class implements a Thread object using Posix threads.">
<polygon fill="white" stroke="#666666" points="737.5,-431.5 632.5,-431.5 632.5,-401.5 737.5,-401.5 737.5,-431.5"/>
<text text-anchor="start" x="640.5" y="-419.5" font-family="Helvetica,sans-Serif" font-size="10.00">Kit::System::Posix</text>
<text text-anchor="middle" x="685" y="-408.5" font-family="Helvetica,sans-Serif" font-size="10.00">::Thread</text>
</a>
</g>
</g>
<!-- Node20&#45;&gt;Node22 -->
<g id="edge71_Node000020_Node000022" class="edge">
<title>Node20&#45;&gt;Node22</title>
<g id="a_edge71_Node000020_Node000022"><a xlink:title=" ">
<path fill="none" stroke="#63b8ff" d="M552.21,-405.82C578.26,-407.93 607.78,-410.32 632.26,-412.31"/>
<polygon fill="#63b8ff" stroke="#63b8ff" points="552.29,-402.32 542.04,-405 551.73,-409.3 552.29,-402.32"/>
</a>
</g>
</g>
<!-- Node23 -->
<g id="Node000023" class="node">
<title>Node23</title>
<g id="a_Node000023"><a xlink:href="class_kit_1_1_system_1_1_win32_1_1_thread.html" target="_top" xlink:title="This concrete class implements a Thread object using Win32 threads.">
<polygon fill="white" stroke="#666666" points="740,-383.5 630,-383.5 630,-353.5 740,-353.5 740,-383.5"/>
<text text-anchor="start" x="638" y="-371.5" font-family="Helvetica,sans-Serif" font-size="10.00">Kit::System::Win32</text>
<text text-anchor="middle" x="685" y="-360.5" font-family="Helvetica,sans-Serif" font-size="10.00">::Thread</text>
</a>
</g>
</g>
<!-- Node20&#45;&gt;Node23 -->
<g id="edge72_Node000020_Node000023" class="edge">
<title>Node20&#45;&gt;Node23</title>
<g id="a_edge72_Node000020_Node000023"><a xlink:title=" ">
<path fill="none" stroke="#63b8ff" d="M551.92,-389.9C577.21,-385.8 605.8,-381.17 629.9,-377.27"/>
<polygon fill="#63b8ff" stroke="#63b8ff" points="551.35,-386.45 542.04,-391.5 552.47,-393.36 551.35,-386.45"/>
</a>
</g>
</g>
<!-- Node48 -->
<g id="Node000048" class="node">
<title>Node48</title>
<g id="a_Node000048"><a xlink:href="class_kit_1_1_container_1_1_item.html" target="_top" xlink:title="This class is used by the Intrusive Container classes to enforce the semantic and item/element can be...">
<polygon fill="white" stroke="#666666" points="142.5,-249 30.5,-249 30.5,-230 142.5,-230 142.5,-249"/>
<text text-anchor="middle" x="86.5" y="-237" font-family="Helvetica,sans-Serif" font-size="10.00">Kit::Container::Item</text>
</a>
</g>
</g>
<!-- Node24 -->
<g id="Node000024" class="node">
<title>Node24</title>
<g id="a_Node000024"><a xlink:href="class_kit_1_1_container_1_1_list_item.html" target="_top" xlink:title="This class is used by the Container classes to implement a various types of linked lists containers.">
<polygon fill="white" stroke="#666666" points="350,-249 221,-249 221,-230 350,-230 350,-249"/>
<text text-anchor="middle" x="285.5" y="-237" font-family="Helvetica,sans-Serif" font-size="10.00">Kit::Container::ListItem</text>
</a>
</g>
</g>
<!-- Node48&#45;&gt;Node24 -->
<g id="edge73_Node000048_Node000024" class="edge">
<title>Node48&#45;&gt;Node24</title>
<g id="a_edge73_Node000048_Node000024"><a xlink:title=" ">
<path fill="none" stroke="#63b8ff" d="M152.81,-239.5C174.64,-239.5 198.95,-239.5 220.67,-239.5"/>
<polygon fill="#63b8ff" stroke="#63b8ff" points="152.64,-236 142.64,-239.5 152.64,-243 152.64,-236"/>
</a>
</g>
</g>
<!-- Node24&#45;&gt;Node20 -->
<g id="edge93_Node000024_Node000020" class="edge">
<title>Node24&#45;&gt;Node20</title>
<g id="a_edge93_Node000024_Node000020"><a xlink:title=" ">
<path fill="none" stroke="#63b8ff" d="M303.07,-256.64C324.17,-278.07 362.21,-315.34 398,-343.5 421.32,-361.85 450.51,-380.22 468.32,-390.97"/>
<polygon fill="#63b8ff" stroke="#63b8ff" points="305.34,-253.96 295.85,-249.26 300.34,-258.85 305.34,-253.96"/>
</a>
</g>
</g>
<!-- Node25 -->
<g id="Node000025" class="node">
<title>Node25</title>
<g id="a_Node000025"><a xlink:href="class_kit_1_1_container_1_1_extended_list_item.html" target="_top" xlink:title="This class is used by the Container classes to implement a various types of DOUBLY linked containers.">
<polygon fill="white" stroke="#666666" points="553,-88.5 418,-88.5 418,-58.5 553,-58.5 553,-88.5"/>
<text text-anchor="start" x="426" y="-76.5" font-family="Helvetica,sans-Serif" font-size="10.00">Kit::Container::Extended</text>
<text text-anchor="middle" x="485.5" y="-65.5" font-family="Helvetica,sans-Serif" font-size="10.00">ListItem</text>
</a>
</g>
</g>
<!-- Node24&#45;&gt;Node25 -->
<g id="edge74_Node000024_Node000025" class="edge">
<title>Node24&#45;&gt;Node25</title>
<g id="a_edge74_Node000024_Node000025"><a xlink:title=" ">
<path fill="none" stroke="#63b8ff" d="M296.08,-220.7C312.62,-190.13 349.49,-129.83 398,-97.5 404.1,-93.44 410.87,-90.06 417.86,-87.25"/>
<polygon fill="#63b8ff" stroke="#63b8ff" points="292.82,-219.36 291.26,-229.84 299.02,-222.62 292.82,-219.36"/>
</a>
</g>
</g>
<!-- Node39 -->
<g id="Node000039" class="node">
<title>Node39</title>
<g id="a_Node000039"><a xlink:href="class_kit_1_1_system_1_1_i_event_flag.html" target="_top" xlink:title="This abstract class defines the call&#45;back interface when an Event Flag has signaled.">
<polygon fill="white" stroke="#666666" points="551,-335 420,-335 420,-316 551,-316 551,-335"/>
<text text-anchor="middle" x="485.5" y="-323" font-family="Helvetica,sans-Serif" font-size="10.00">Kit::System::IEventFlag</text>
</a>
</g>
</g>
<!-- Node24&#45;&gt;Node39 -->
<g id="edge88_Node000024_Node000039" class="edge">
<title>Node24&#45;&gt;Node39</title>
<g id="a_edge88_Node000024_Node000039"><a xlink:title=" ">
<path fill="none" stroke="#63b8ff" d="M307.56,-255.03C329.21,-270.27 364.4,-293.13 398,-306.5 407.57,-310.31 418.06,-313.42 428.33,-315.95"/>
<polygon fill="#63b8ff" stroke="#63b8ff" points="309.33,-251.99 299.16,-249.01 305.25,-257.68 309.33,-251.99"/>
</a>
</g>
</g>
<!-- Node41 -->
<g id="Node000041" class="node">
<title>Node41</title>
<g id="a_Node000041"><a xlink:href="class_kit_1_1_system_1_1_i_startup_hook.html" target="_top" xlink:title="This class defines a start&#45;up handler/hook that allows a KIT Library sub&#45;system to register to be cal...">
<polygon fill="white" stroke="#666666" points="557,-249 414,-249 414,-230 557,-230 557,-249"/>
<text text-anchor="middle" x="485.5" y="-237" font-family="Helvetica,sans-Serif" font-size="10.00">Kit::System::IStartupHook</text>
</a>
</g>
</g>
<!-- Node24&#45;&gt;Node41 -->
<g id="edge90_Node000024_Node000041" class="edge">
<title>Node24&#45;&gt;Node41</title>
<g id="a_edge90_Node000024_Node000041"><a xlink:title=" ">
<path fill="none" stroke="#63b8ff" d="M360.36,-239.5C377.81,-239.5 396.37,-239.5 413.67,-239.5"/>
<polygon fill="#63b8ff" stroke="#63b8ff" points="360.24,-236 350.24,-239.5 360.24,-243 360.24,-236"/>
</a>
</g>
</g>
<!-- Node42 -->
<g id="Node000042" class="node">
<title>Node42</title>
<g id="a_Node000042"><a xlink:href="class_kit_1_1_system_1_1_shutdown_1_1_i_handler.html" target="_top" xlink:title="This call defines the callback interface that is used when the application is shutdown.">
<polygon fill="white" stroke="#666666" points="549,-211.5 422,-211.5 422,-181.5 549,-181.5 549,-211.5"/>
<text text-anchor="start" x="430" y="-199.5" font-family="Helvetica,sans-Serif" font-size="10.00">Kit::System::Shutdown</text>
<text text-anchor="middle" x="485.5" y="-188.5" font-family="Helvetica,sans-Serif" font-size="10.00">::IHandler</text>
</a>
</g>
</g>
<!-- Node24&#45;&gt;Node42 -->
<g id="edge91_Node000024_Node000042" class="edge">
<title>Node24&#45;&gt;Node42</title>
<g id="a_edge91_Node000024_Node000042"><a xlink:title=" ">
<path fill="none" stroke="#63b8ff" d="M340.54,-227.76C365.69,-222.3 395.76,-215.77 421.9,-210.09"/>
<polygon fill="#63b8ff" stroke="#63b8ff" points="339.47,-224.41 330.44,-229.96 340.96,-231.25 339.47,-224.41"/>
</a>
</g>
</g>
<!-- Node43 -->
<g id="Node000043" class="node">
<title>Node43</title>
<g id="a_Node000043"><a xlink:href="class_kit_1_1_system_1_1_sim_tick.html" target="_top" xlink:title="This class define the interface to provide a simulates system tick (in milliseconds) to the applicati...">
<polygon fill="white" stroke="#666666" points="544.5,-163 426.5,-163 426.5,-144 544.5,-144 544.5,-163"/>
<text text-anchor="middle" x="485.5" y="-151" font-family="Helvetica,sans-Serif" font-size="10.00">Kit::System::SimTick</text>
</a>
</g>
</g>
<!-- Node24&#45;&gt;Node43 -->
<g id="edge92_Node000024_Node000043" class="edge">
<title>Node24&#45;&gt;Node43</title>
<g id="a_edge92_Node000024_Node000043"><a xlink:title=" ">
<path fill="none" stroke="#63b8ff" d="M307.56,-223.97C329.21,-208.73 364.4,-185.87 398,-172.5 407.57,-168.69 418.06,-165.58 428.33,-163.05"/>
<polygon fill="#63b8ff" stroke="#63b8ff" points="305.25,-221.32 299.16,-229.99 309.33,-227.01 305.25,-221.32"/>
</a>
</g>
</g>
<!-- Node44 -->
<g id="Node000044" class="node">
<title>Node44</title>
<g id="a_Node000044"><a xlink:href="class_kit_1_1_system_1_1_watchdog_1_1_watched_thread.html" target="_top" xlink:title="This class represents a thread being monitored by the watchdog system.">
<polygon fill="white" stroke="#666666" points="549,-297.5 422,-297.5 422,-267.5 549,-267.5 549,-297.5"/>
<text text-anchor="start" x="430" y="-285.5" font-family="Helvetica,sans-Serif" font-size="10.00">Kit::System::Watchdog</text>
<text text-anchor="middle" x="485.5" y="-274.5" font-family="Helvetica,sans-Serif" font-size="10.00">::WatchedThread</text>
</a>
</g>
</g>
<!-- Node24&#45;&gt;Node44 -->
<g id="edge94_Node000024_Node000044" class="edge">
<title>Node24&#45;&gt;Node44</title>
<g id="a_edge94_Node000024_Node000044"><a xlink:title=" ">
<path fill="none" stroke="#63b8ff" d="M340.54,-251.24C365.69,-256.7 395.76,-263.23 421.9,-268.91"/>
<polygon fill="#63b8ff" stroke="#63b8ff" points="340.96,-247.75 330.44,-249.04 339.47,-254.59 340.96,-247.75"/>
</a>
</g>
</g>
<!-- Node26 -->
<g id="Node000026" class="node">
<title>Node26</title>
<g id="a_Node000026"><a xlink:href="class_kit_1_1_container_1_1_keyed_item.html" target="_top" xlink:title="This abstract class represents a item that can be used with containers that have a concept of Key&#45;Val...">
<polygon fill="white" stroke="#666666" points="756,-41 614,-41 614,-22 756,-22 756,-41"/>
<text text-anchor="middle" x="685" y="-29" font-family="Helvetica,sans-Serif" font-size="10.00">Kit::Container::KeyedItem</text>
</a>
</g>
</g>
<!-- Node25&#45;&gt;Node26 -->
<g id="edge75_Node000025_Node000026" class="edge">
<title>Node25&#45;&gt;Node26</title>
<g id="a_edge75_Node000025_Node000026"><a xlink:title=" ">
<path fill="none" stroke="#63b8ff" d="M563.2,-57.19C588.9,-51.72 616.7,-45.81 639.14,-41.04"/>
<polygon fill="#63b8ff" stroke="#63b8ff" points="562.14,-53.84 553.09,-59.34 563.6,-60.68 562.14,-53.84"/>
</a>
</g>
</g>
<!-- Node31 -->
<g id="Node000031" class="node">
<title>Node31</title>
<g id="a_Node000031"><a xlink:href="class_kit_1_1_itc_1_1_i_message.html" target="_top" xlink:title="This abstract class defines the operations for an ITC message.">
<polygon fill="white" stroke="#666666" points="735.5,-129 634.5,-129 634.5,-110 735.5,-110 735.5,-129"/>
<text text-anchor="middle" x="685" y="-117" font-family="Helvetica,sans-Serif" font-size="10.00">Kit::Itc::IMessage</text>
</a>
</g>
</g>
<!-- Node25&#45;&gt;Node31 -->
<g id="edge80_Node000025_Node000031" class="edge">
<title>Node25&#45;&gt;Node31</title>
<g id="a_edge80_Node000025_Node000031"><a xlink:title=" ">
<path fill="none" stroke="#63b8ff" d="M561.26,-90.91C589.01,-97.38 619.46,-104.47 643.09,-109.97"/>
<polygon fill="#63b8ff" stroke="#63b8ff" points="561.7,-87.42 551.17,-88.56 560.11,-94.24 561.7,-87.42"/>
</a>
</g>
</g>
<!-- Node35 -->
<g id="Node000035" class="node">
<title>Node35</title>
<g id="a_Node000035"><a xlink:href="class_kit_1_1_system_1_1_i_counter.html" target="_top" xlink:title="This abstract class defines the call&#45;back interface for a Counter object.">
<polygon fill="white" stroke="#666666" points="745,-83 625,-83 625,-64 745,-64 745,-83"/>
<text text-anchor="middle" x="685" y="-71" font-family="Helvetica,sans-Serif" font-size="10.00">Kit::System::ICounter</text>
</a>
</g>
</g>
<!-- Node25&#45;&gt;Node35 -->
<g id="edge84_Node000025_Node000035" class="edge">
<title>Node25&#45;&gt;Node35</title>
<g id="a_edge84_Node000025_Node000035"><a xlink:title=" ">
<path fill="none" stroke="#63b8ff" d="M563.34,-73.5C583.82,-73.5 605.63,-73.5 624.99,-73.5"/>
<polygon fill="#63b8ff" stroke="#63b8ff" points="563.09,-70 553.09,-73.5 563.09,-77 563.09,-70"/>
</a>
</g>
</g>
<!-- Node27 -->
<g id="Node000027" class="node">
<title>Node27</title>
<g id="a_Node000027"><a xlink:href="class_kit_1_1_container_1_1_map_item.html" target="_top" xlink:title="This abstract class represents a item that can be contained in an Map (aka a sorted list implemented ...">
<polygon fill="white" stroke="#666666" points="949,-38 816,-38 816,-19 949,-19 949,-38"/>
<text text-anchor="middle" x="882.5" y="-26" font-family="Helvetica,sans-Serif" font-size="10.00">Kit::Container::MapItem</text>
</a>
</g>
</g>
<!-- Node26&#45;&gt;Node27 -->
<g id="edge76_Node000026_Node000027" class="edge">
<title>Node26&#45;&gt;Node27</title>
<g id="a_edge76_Node000026_Node000027"><a xlink:title=" ">
<path fill="none" stroke="#63b8ff" d="M766.21,-30.27C782.73,-30.02 799.94,-29.75 815.88,-29.51"/>
<polygon fill="#63b8ff" stroke="#63b8ff" points="765.97,-26.77 756.03,-30.43 766.08,-33.77 765.97,-26.77"/>
</a>
</g>
</g>
<!-- Node28 -->
<g id="Node000028" class="node">
<title>Node28</title>
<g id="a_Node000028"><a xlink:href="class_kit_1_1_text_1_1_string_item.html" target="_top" xlink:title="This partially concrete provides a wrapper class that allows a IString object to be stored directly i...">
<polygon fill="white" stroke="#666666" points="1139,-37 1026,-37 1026,-18 1139,-18 1139,-37"/>
<text text-anchor="middle" x="1082.5" y="-25" font-family="Helvetica,sans-Serif" font-size="10.00">Kit::Text::StringItem</text>
</a>
</g>
</g>
<!-- Node27&#45;&gt;Node28 -->
<g id="edge77_Node000027_Node000028" class="edge">
<title>Node27&#45;&gt;Node28</title>
<g id="a_edge77_Node000027_Node000028"><a xlink:title=" ">
<path fill="none" stroke="#63b8ff" d="M959.22,-28.12C981.41,-28.01 1005.26,-27.89 1025.95,-27.78"/>
<polygon fill="#63b8ff" stroke="#63b8ff" points="959.14,-24.62 949.16,-28.17 959.17,-31.62 959.14,-24.62"/>
</a>
</g>
</g>
<!-- Node29 -->
<g id="Node000029" class="node">
<title>Node29</title>
<g id="a_Node000029"><a xlink:href="class_kit_1_1_text_1_1_d_string_item.html" target="_top" xlink:title="This concrete class implements the StringItem class for a &#39;String&#39; using a &#39;DString&#39; as the internal ...">
<polygon fill="white" stroke="#666666" points="1331,-56 1210,-56 1210,-37 1331,-37 1331,-56"/>
<text text-anchor="middle" x="1270.5" y="-44" font-family="Helvetica,sans-Serif" font-size="10.00">Kit::Text::DStringItem</text>
</a>
</g>
</g>
<!-- Node28&#45;&gt;Node29 -->
<g id="edge78_Node000028_Node000029" class="edge">
<title>Node28&#45;&gt;Node29</title>
<g id="a_edge78_Node000028_Node000029"><a xlink:title=" ">
<path fill="none" stroke="#63b8ff" d="M1149.18,-34.21C1168.88,-36.22 1190.39,-38.42 1209.7,-40.39"/>
<polygon fill="#63b8ff" stroke="#63b8ff" points="1149.36,-30.71 1139.05,-33.17 1148.65,-37.67 1149.36,-30.71"/>
</a>
</g>
</g>
<!-- Node30 -->
<g id="Node000030" class="node">
<title>Node30</title>
<g id="a_Node000030"><a xlink:href="class_kit_1_1_text_1_1_f_string_item.html" target="_top" xlink:title="This template class implements the StringItem class for a &#39;String&#39; using a &#39;FString&#39; as the internal ...">
<polygon fill="white" stroke="#666666" points="1344,-19 1197,-19 1197,0 1344,0 1344,-19"/>
<text text-anchor="middle" x="1270.5" y="-7" font-family="Helvetica,sans-Serif" font-size="10.00">Kit::Text::FStringItem&lt; S &gt;</text>
</a>
</g>
</g>
<!-- Node28&#45;&gt;Node30 -->
<g id="edge79_Node000028_Node000030" class="edge">
<title>Node28&#45;&gt;Node30</title>
<g id="a_edge79_Node000028_Node000030"><a xlink:title=" ">
<path fill="none" stroke="#63b8ff" d="M1149.45,-21.12C1164.74,-19.64 1181.1,-18.06 1196.67,-16.55"/>
<polygon fill="#63b8ff" stroke="#63b8ff" points="1148.67,-17.68 1139.05,-22.12 1149.34,-24.64 1148.67,-17.68"/>
</a>
</g>
</g>
<!-- Node32 -->
<g id="Node000032" class="node">
<title>Node32</title>
<g id="a_Node000032"><a xlink:href="class_kit_1_1_itc_1_1_response_message.html" target="_top" xlink:title="This template class represents a client response message, which is posted to the client&#39;s mailbox aft...">
<polygon fill="white" stroke="#666666" points="968,-134.5 797,-134.5 797,-104.5 968,-104.5 968,-134.5"/>
<text text-anchor="start" x="805" y="-122.5" font-family="Helvetica,sans-Serif" font-size="10.00">Kit::Itc::ResponseMessage</text>
<text text-anchor="middle" x="882.5" y="-111.5" font-family="Helvetica,sans-Serif" font-size="10.00">&lt; CLIENT, SERVICE, PAYLOAD &gt;</text>
</a>
</g>
</g>
<!-- Node31&#45;&gt;Node32 -->
<g id="edge81_Node000031_Node000032" class="edge">
<title>Node31&#45;&gt;Node32</title>
<g id="a_edge81_Node000031_Node000032"><a xlink:title=" ">
<path fill="none" stroke="#63b8ff" d="M745.86,-119.5C761.89,-119.5 779.52,-119.5 796.62,-119.5"/>
<polygon fill="#63b8ff" stroke="#63b8ff" points="745.59,-116 735.59,-119.5 745.59,-123 745.59,-116"/>
</a>
</g>
</g>
<!-- Node33 -->
<g id="Node000033" class="node">
<title>Node33</title>
<g id="a_Node000033"><a xlink:href="class_kit_1_1_itc_1_1_server_message.html" target="_top" xlink:title="This partially concrete class represents a defined message, which is posted to a mailbox&#45;server as a ...">
<polygon fill="white" stroke="#666666" points="947,-183 818,-183 818,-164 947,-164 947,-183"/>
<text text-anchor="middle" x="882.5" y="-171" font-family="Helvetica,sans-Serif" font-size="10.00">Kit::Itc::ServerMessage</text>
</a>
</g>
</g>
<!-- Node31&#45;&gt;Node33 -->
<g id="edge82_Node000031_Node000033" class="edge">
<title>Node31&#45;&gt;Node33</title>
<g id="a_edge82_Node000031_Node000033"><a xlink:title=" ">
<path fill="none" stroke="#63b8ff" d="M730.55,-131.81C765.9,-141.57 814.6,-155.02 847.02,-163.97"/>
<polygon fill="#63b8ff" stroke="#63b8ff" points="731.07,-128.32 720.5,-129.03 729.21,-135.07 731.07,-128.32"/>
</a>
</g>
</g>
<!-- Node34 -->
<g id="Node000034" class="node">
<title>Node34</title>
<g id="a_Node000034"><a xlink:href="class_kit_1_1_itc_1_1_request_message.html" target="_top" xlink:title="This concrete template class represents a service request message to a particular server.">
<polygon fill="white" stroke="#666666" points="1151,-193.5 1014,-193.5 1014,-163.5 1151,-163.5 1151,-193.5"/>
<text text-anchor="start" x="1022" y="-181.5" font-family="Helvetica,sans-Serif" font-size="10.00">Kit::Itc::RequestMessage</text>
<text text-anchor="middle" x="1082.5" y="-170.5" font-family="Helvetica,sans-Serif" font-size="10.00">&lt; SERVICE, PAYLOAD &gt;</text>
</a>
</g>
</g>
<!-- Node33&#45;&gt;Node34 -->
<g id="edge83_Node000033_Node000034" class="edge">
<title>Node33&#45;&gt;Node34</title>
<g id="a_edge83_Node000033_Node000034"><a xlink:title=" ">
<path fill="none" stroke="#63b8ff" d="M957.37,-175.37C975.86,-175.83 995.61,-176.33 1013.78,-176.79"/>
<polygon fill="#63b8ff" stroke="#63b8ff" points="957.32,-171.86 947.24,-175.11 957.15,-178.86 957.32,-171.86"/>
</a>
</g>
</g>
<!-- Node36 -->
<g id="Node000036" class="node">
<title>Node36</title>
<g id="a_Node000036"><a xlink:href="class_kit_1_1_system_1_1_timer.html" target="_top" xlink:title="This mostly concrete interface defines the operations that can be performed on a software timer.">
<polygon fill="white" stroke="#666666" points="936,-83 829,-83 829,-64 936,-64 936,-83"/>
<text text-anchor="middle" x="882.5" y="-71" font-family="Helvetica,sans-Serif" font-size="10.00">Kit::System::Timer</text>
</a>
</g>
</g>
<!-- Node35&#45;&gt;Node36 -->
<g id="edge85_Node000035_Node000036" class="edge">
<title>Node35&#45;&gt;Node36</title>
<g id="a_edge85_Node000035_Node000036"><a xlink:title=" ">
<path fill="none" stroke="#63b8ff" d="M755.37,-73.5C779.53,-73.5 806.23,-73.5 828.82,-73.5"/>
<polygon fill="#63b8ff" stroke="#63b8ff" points="755.19,-70 745.19,-73.5 755.19,-77 755.19,-70"/>
</a>
</g>
</g>
<!-- Node37 -->
<g id="Node000037" class="node">
<title>Node37</title>
<g id="a_Node000037"><a xlink:href="class_kit_1_1_system_1_1_timer_composer.html" target="_top" xlink:title=" ">
<polygon fill="white" stroke="#666666" points="1161,-145 1004,-145 1004,-104 1161,-104 1161,-145"/>
<text text-anchor="start" x="1012" y="-133" font-family="Helvetica,sans-Serif" font-size="10.00">Kit::System::TimerComposer</text>
<text text-anchor="start" x="1012" y="-122" font-family="Helvetica,sans-Serif" font-size="10.00">&lt; Kit::System::Watchdog</text>
<text text-anchor="middle" x="1082.5" y="-111" font-family="Helvetica,sans-Serif" font-size="10.00">::WatchedEventThread &gt;</text>
</a>
</g>
</g>
<!-- Node36&#45;&gt;Node37 -->
<g id="edge86_Node000036_Node000037" class="edge">
<title>Node36&#45;&gt;Node37</title>
<g id="a_edge86_Node000036_Node000037"><a xlink:title=" ">
<path fill="none" stroke="#63b8ff" d="M930.45,-85.59C952.37,-91.24 979.04,-98.11 1003.83,-104.49"/>
<polygon fill="#63b8ff" stroke="#63b8ff" points="931.3,-82.2 920.74,-83.09 929.55,-88.98 931.3,-82.2"/>
</a>
</g>
</g>
<!-- Node38 -->
<g id="Node000038" class="node">
<title>Node38</title>
<g id="a_Node000038"><a xlink:href="class_kit_1_1_system_1_1_timer_composer.html" target="_top" xlink:title="This template class implements a Software Timer that is context independent and allows for a single c...">
<polygon fill="white" stroke="#666666" points="1161,-85.5 1004,-85.5 1004,-55.5 1161,-55.5 1161,-85.5"/>
<text text-anchor="start" x="1012" y="-73.5" font-family="Helvetica,sans-Serif" font-size="10.00">Kit::System::TimerComposer</text>
<text text-anchor="middle" x="1082.5" y="-62.5" font-family="Helvetica,sans-Serif" font-size="10.00">&lt; CONTEXT &gt;</text>
</a>
</g>
</g>
<!-- Node36&#45;&gt;Node38 -->
<g id="edge87_Node000036_Node000038" class="edge">
<title>Node36&#45;&gt;Node38</title>
<g id="a_edge87_Node000036_Node000038"><a xlink:title=" ">
<path fill="none" stroke="#63b8ff" d="M946.25,-72.55C964.51,-72.27 984.67,-71.97 1003.72,-71.68"/>
<polygon fill="#63b8ff" stroke="#63b8ff" points="945.99,-69.05 936.04,-72.7 946.09,-76.05 945.99,-69.05"/>
</a>
</g>
</g>
<!-- Node40 -->
<g id="Node000040" class="node">
<title>Node40</title>
<g id="a_Node000040"><a xlink:href="class_kit_1_1_system_1_1_event_flag_base.html" target="_top" xlink:title="This is helper class that perform an auto&#45;registration of the Event Flag instance with a list of Even...">
<polygon fill="white" stroke="#666666" points="761,-335 609,-335 609,-316 761,-316 761,-335"/>
<text text-anchor="middle" x="685" y="-323" font-family="Helvetica,sans-Serif" font-size="10.00">Kit::System::EventFlagBase</text>
</a>
</g>
</g>
<!-- Node39&#45;&gt;Node40 -->
<g id="edge89_Node000039_Node000040" class="edge">
<title>Node39&#45;&gt;Node40</title>
<g id="a_edge89_Node000039_Node000040"><a xlink:title=" ">
<path fill="none" stroke="#63b8ff" d="M561.27,-325.5C576.86,-325.5 593.29,-325.5 608.89,-325.5"/>
<polygon fill="#63b8ff" stroke="#63b8ff" points="561.17,-322 551.17,-325.5 561.17,-329 561.17,-322"/>
</a>
</g>
</g>
<!-- Node45 -->
<g id="Node000045" class="node">
<title>Node45</title>
<g id="a_Node000045"><a xlink:href="class_kit_1_1_system_1_1_watchdog_1_1_raw_thread.html" target="_top" xlink:title="RawThread &#45; A concrete implementation for raw threads that provides wrapper methods for manual watchd...">
<polygon fill="white" stroke="#666666" points="748.5,-297.5 621.5,-297.5 621.5,-267.5 748.5,-267.5 748.5,-297.5"/>
<text text-anchor="start" x="629.5" y="-285.5" font-family="Helvetica,sans-Serif" font-size="10.00">Kit::System::Watchdog</text>
<text text-anchor="middle" x="685" y="-274.5" font-family="Helvetica,sans-Serif" font-size="10.00">::RawThread</text>
</a>
</g>
</g>
<!-- Node44&#45;&gt;Node45 -->
<g id="edge95_Node000044_Node000045" class="edge">
<title>Node44&#45;&gt;Node45</title>
<g id="a_edge95_Node000044_Node000045"><a xlink:title=" ">
<path fill="none" stroke="#63b8ff" d="M559.42,-282.5C579.78,-282.5 601.7,-282.5 621.4,-282.5"/>
<polygon fill="#63b8ff" stroke="#63b8ff" points="559.26,-279 549.26,-282.5 559.26,-286 559.26,-279"/>
</a>
</g>
</g>
<!-- Node46 -->
<g id="Node000046" class="node">
<title>Node46</title>
<g id="a_Node000046"><a xlink:href="class_kit_1_1_system_1_1_watchdog_1_1_watched_event_thread.html" target="_top" xlink:title="This class implements the IWatchedEventLoop interface and provides watchdog monitoring capabilities f...">
<polygon fill="white" stroke="#666666" points="748.5,-215.5 621.5,-215.5 621.5,-185.5 748.5,-185.5 748.5,-215.5"/>
<text text-anchor="start" x="629.5" y="-203.5" font-family="Helvetica,sans-Serif" font-size="10.00">Kit::System::Watchdog</text>
<text text-anchor="middle" x="685" y="-192.5" font-family="Helvetica,sans-Serif" font-size="10.00">::WatchedEventThread</text>
</a>
</g>
</g>
<!-- Node44&#45;&gt;Node46 -->
<g id="edge96_Node000044_Node000046" class="edge">
<title>Node44&#45;&gt;Node46</title>
<g id="a_edge96_Node000044_Node000046"><a xlink:title=" ">
<path fill="none" stroke="#63b8ff" d="M553.83,-264.43C560.37,-262.26 566.85,-259.94 573,-257.5 603.2,-245.51 636.12,-228 658.2,-215.56"/>
<polygon fill="#63b8ff" stroke="#63b8ff" points="552.71,-261.11 544.25,-267.49 554.85,-267.78 552.71,-261.11"/>
</a>
</g>
</g>
<!-- Node47 -->
<g id="Node000047" class="node">
<title>Node47</title>
<g id="a_Node000047"><a xlink:href="class_kit_1_1_system_1_1_i_watched_event_loop.html" target="_top" xlink:title="This abstract interface defines the API for watching/monitoring an EventLoop for watchdog purposes.">
<polygon fill="white" stroke="#666666" points="573,-126 398,-126 398,-107 573,-107 573,-126"/>
<text text-anchor="middle" x="485.5" y="-114" font-family="Helvetica,sans-Serif" font-size="10.00">Kit::System::IWatchedEventLoop</text>
</a>
</g>
</g>
<!-- Node47&#45;&gt;Node46 -->
<g id="edge97_Node000047_Node000046" class="edge">
<title>Node47&#45;&gt;Node46</title>
<g id="a_edge97_Node000047_Node000046"><a xlink:title=" ">
<path fill="none" stroke="#63b8ff" d="M555.53,-128.69C561.52,-130.4 567.41,-132.33 573,-134.5 606.64,-147.58 641.87,-170.31 663.39,-185.38"/>
<polygon fill="#63b8ff" stroke="#63b8ff" points="555.99,-125.19 545.43,-126.02 554.2,-131.96 555.99,-125.19"/>
</a>
</g>
</g>
<!-- Node8 -->
<g id="Node000008" class="node">
<title>Node8</title>
<g id="a_Node000008"><a xlink:title=" ">
<polygon fill="#e0e0e0" stroke="#999999" points="173,-676.5 0,-676.5 0,-646.5 173,-646.5 173,-676.5"/>
<text text-anchor="start" x="8" y="-664.5" font-family="Helvetica,sans-Serif" font-size="10.00">KIT_EVENT_QUEUE_SUPPORTED</text>
<text text-anchor="middle" x="86.5" y="-653.5" font-family="Helvetica,sans-Serif" font-size="10.00">_EVENT_TYPES</text>
</a>
</g>
</g>
<!-- Node7 -->
<g id="Node000007" class="node">
<title>Node7</title>
<g id="a_Node000007"><a xlink:href="class_kit_1_1_event_queue_1_1_i_queue.html" target="_top" xlink:title="This abstract class represents an Event Queue where events can be delivered to.">
<polygon fill="white" stroke="#666666" points="353.5,-671 217.5,-671 217.5,-652 353.5,-652 353.5,-671"/>
<text text-anchor="middle" x="285.5" y="-659" font-family="Helvetica,sans-Serif" font-size="10.00">Kit::EventQueue::IQueue</text>
</a>
</g>
</g>
<!-- Node8&#45;&gt;Node7 -->
<g id="edge98_Node000008_Node000007" class="edge">
<title>Node8&#45;&gt;Node7</title>
<g id="a_edge98_Node000008_Node000007"><a xlink:title=" ">
<path fill="none" stroke="#8b1a1a" d="M183.19,-661.5C194.76,-661.5 206.38,-661.5 217.41,-661.5"/>
<polygon fill="#8b1a1a" stroke="#8b1a1a" points="183.05,-658 173.05,-661.5 183.05,-665 183.05,-658"/>
</a>
</g>
</g>
<!-- Node6 -->
<g id="Node000006" class="node">
<title>Node6</title>
<g id="a_Node000006"><a xlink:href="class_kit_1_1_itc_1_1_mailbox.html" target="_top" xlink:title="This mailbox class implements an Inter Thread Communications message queue.">
<polygon fill="white" stroke="#666666" points="532,-671 439,-671 439,-652 532,-652 532,-671"/>
<text text-anchor="middle" x="485.5" y="-659" font-family="Helvetica,sans-Serif" font-size="10.00">Kit::Itc::Mailbox</text>
</a>
</g>
</g>
<!-- Node7&#45;&gt;Node6 -->
<g id="edge99_Node000007_Node000006" class="edge">
<title>Node7&#45;&gt;Node6</title>
<g id="a_edge99_Node000007_Node000006"><a xlink:title=" ">
<path fill="none" stroke="#63b8ff" d="M363.54,-661.5C388.96,-661.5 416.43,-661.5 438.75,-661.5"/>
<polygon fill="#63b8ff" stroke="#63b8ff" points="363.53,-658 353.53,-661.5 363.53,-665 363.53,-658"/>
</a>
</g>
</g>
<!-- Node6&#45;&gt;Node2 -->
<g id="edge100_Node000006_Node000002" class="edge">
<title>Node6&#45;&gt;Node2</title>
<g id="a_edge100_Node000006_Node000002"><a xlink:title=" ">
<path fill="none" stroke="#63b8ff" d="M532.72,-649.33C567.78,-640.1 615.31,-627.59 647.67,-619.07"/>
<polygon fill="#63b8ff" stroke="#63b8ff" points="531.5,-646.03 522.72,-651.96 533.29,-652.8 531.5,-646.03"/>
</a>
</g>
</g>
<!-- Node4 -->
<g id="Node000004" class="node">
<title>Node4</title>
<g id="a_Node000004"><a xlink:href="class_kit_1_1_system_1_1_periodic_scheduler.html" target="_top" xlink:title="This concrete class is a &#39;policy&#39; object that is used to add polled based, cooperative monotonic sche...">
<polygon fill="white" stroke="#666666" points="568.5,-533 402.5,-533 402.5,-514 568.5,-514 568.5,-533"/>
<text text-anchor="middle" x="485.5" y="-521" font-family="Helvetica,sans-Serif" font-size="10.00">Kit::System::PeriodicScheduler</text>
</a>
</g>
</g>
<!-- Node4&#45;&gt;Node3 -->
<g id="edge101_Node000004_Node000003" class="edge">
<title>Node4&#45;&gt;Node3</title>
<g id="a_edge101_Node000004_Node000003"><a xlink:title=" ">
<path fill="none" stroke="#63b8ff" d="M578.88,-526.96C632.27,-529.69 700.62,-534.43 761,-542.5 778.23,-544.8 796.7,-548.07 813.88,-551.46"/>
<polygon fill="#63b8ff" stroke="#63b8ff" points="578.91,-523.45 568.75,-526.45 578.57,-530.44 578.91,-523.45"/>
</a>
</g>
</g>
<!-- Node4&#45;&gt;Node5 -->
<g id="edge102_Node000004_Node000005" class="edge">
<title>Node4&#45;&gt;Node5</title>
<g id="a_edge102_Node000004_Node000005"><a xlink:title=" ">
<path fill="none" stroke="#63b8ff" d="M540.27,-535.21C563.34,-540.23 590.56,-546.16 615.08,-551.49"/>
<polygon fill="#63b8ff" stroke="#63b8ff" points="540.85,-531.75 530.33,-533.04 539.36,-538.59 540.85,-531.75"/>
</a>
</g>
</g>
<!-- Node10 -->
<g id="Node000010" class="node">
<title>Node10</title>
<g id="a_Node000010"><a xlink:href="class_kit_1_1_container_1_1_s_list_base.html" target="_top" xlink:title="This protected base class implements a NON&#45;TYPE&#45;SAFE a singly linked list which maintains the orderin...">
<polygon fill="white" stroke="#666666" points="155,-789 18,-789 18,-770 155,-770 155,-789"/>
<text text-anchor="middle" x="86.5" y="-777" font-family="Helvetica,sans-Serif" font-size="10.00">Kit::Container::SListBase</text>
</a>
</g>
</g>
<!-- Node9 -->
<g id="Node000009" class="node">
<title>Node9</title>
<g id="a_Node000009"><a xlink:href="class_kit_1_1_container_1_1_s_list.html" target="_top" xlink:title=" ">
<polygon fill="white" stroke="#666666" points="342,-719.5 229,-719.5 229,-689.5 342,-689.5 342,-719.5"/>
<text text-anchor="start" x="237" y="-707.5" font-family="Helvetica,sans-Serif" font-size="10.00">Kit::Container::SList</text>
<text text-anchor="middle" x="285.5" y="-696.5" font-family="Helvetica,sans-Serif" font-size="10.00">&lt; IMessage &gt;</text>
</a>
</g>
</g>
<!-- Node10&#45;&gt;Node9 -->
<g id="edge103_Node000010_Node000009" class="edge">
<title>Node10&#45;&gt;Node9</title>
<g id="a_edge103_Node000010_Node000009"><a xlink:title=" ">
<path fill="none" stroke="#63b8ff" d="M118.21,-765.71C142.59,-754.98 177.68,-740.03 209,-728.5 217.26,-725.46 226.11,-722.44 234.74,-719.62"/>
<polygon fill="#63b8ff" stroke="#63b8ff" points="116.51,-762.64 108.78,-769.88 119.34,-769.04 116.51,-762.64"/>
</a>
</g>
</g>
<!-- Node11 -->
<g id="Node000011" class="node">
<title>Node11</title>
<g id="a_Node000011"><a xlink:href="class_kit_1_1_container_1_1_s_list.html" target="_top" xlink:title=" ">
<polygon fill="white" stroke="#666666" points="362,-875.5 209,-875.5 209,-845.5 362,-845.5 362,-875.5"/>
<text text-anchor="start" x="217" y="-863.5" font-family="Helvetica,sans-Serif" font-size="10.00">Kit::Container::SList</text>
<text text-anchor="middle" x="285.5" y="-852.5" font-family="Helvetica,sans-Serif" font-size="10.00">&lt; Kit::System::IEventFlag &gt;</text>
</a>
</g>
</g>
<!-- Node10&#45;&gt;Node11 -->
<g id="edge105_Node000010_Node000011" class="edge">
<title>Node10&#45;&gt;Node11</title>
<g id="a_edge105_Node000010_Node000011"><a xlink:title=" ">
<path fill="none" stroke="#63b8ff" d="M115.11,-793.72C139.45,-805.95 176.06,-823.6 209,-836.5 216.94,-839.61 225.46,-842.62 233.82,-845.4"/>
<polygon fill="#63b8ff" stroke="#63b8ff" points="116.61,-790.56 106.11,-789.16 113.45,-796.8 116.61,-790.56"/>
</a>
</g>
</g>
<!-- Node12 -->
<g id="Node000012" class="node">
<title>Node12</title>
<g id="a_Node000012"><a xlink:href="class_kit_1_1_container_1_1_s_list.html" target="_top" xlink:title=" ">
<polygon fill="white" stroke="#666666" points="354.5,-827 216.5,-827 216.5,-786 354.5,-786 354.5,-827"/>
<text text-anchor="start" x="224.5" y="-815" font-family="Helvetica,sans-Serif" font-size="10.00">Kit::Container::SList</text>
<text text-anchor="start" x="224.5" y="-804" font-family="Helvetica,sans-Serif" font-size="10.00">&lt; Kit::System::Watchdog</text>
<text text-anchor="middle" x="285.5" y="-793" font-family="Helvetica,sans-Serif" font-size="10.00">::WatchedThread &gt;</text>
</a>
</g>
</g>
<!-- Node10&#45;&gt;Node12 -->
<g id="edge106_Node000010_Node000012" class="edge">
<title>Node10&#45;&gt;Node12</title>
<g id="a_edge106_Node000010_Node000012"><a xlink:title=" ">
<path fill="none" stroke="#63b8ff" d="M165.39,-790.18C182.25,-792.49 199.95,-794.91 216.4,-797.17"/>
<polygon fill="#63b8ff" stroke="#63b8ff" points="165.4,-786.64 155.02,-788.75 164.45,-793.58 165.4,-786.64"/>
</a>
</g>
</g>
<!-- Node13 -->
<g id="Node000013" class="node">
<title>Node13</title>
<g id="a_Node000013"><a xlink:href="class_kit_1_1_container_1_1_s_list.html" target="_top" xlink:title="This template class implements a singly linked list which maintains the ordering imposed on it by the...">
<polygon fill="white" stroke="#666666" points="342,-767.5 229,-767.5 229,-737.5 342,-737.5 342,-767.5"/>
<text text-anchor="start" x="237" y="-755.5" font-family="Helvetica,sans-Serif" font-size="10.00">Kit::Container::SList</text>
<text text-anchor="middle" x="285.5" y="-744.5" font-family="Helvetica,sans-Serif" font-size="10.00">&lt; ITEM &gt;</text>
</a>
</g>
</g>
<!-- Node10&#45;&gt;Node13 -->
<g id="edge107_Node000010_Node000013" class="edge">
<title>Node10&#45;&gt;Node13</title>
<g id="a_edge107_Node000010_Node000013"><a xlink:title=" ">
<path fill="none" stroke="#63b8ff" d="M165.03,-768.87C186.34,-765.95 209.02,-762.84 228.83,-760.13"/>
<polygon fill="#63b8ff" stroke="#63b8ff" points="164.45,-765.42 155.02,-770.25 165.4,-772.36 164.45,-765.42"/>
</a>
</g>
</g>
<!-- Node9&#45;&gt;Node6 -->
<g id="edge104_Node000009_Node000006" class="edge">
<title>Node9&#45;&gt;Node6</title>
<g id="a_edge104_Node000009_Node000006"><a xlink:title=" ">
<path fill="none" stroke="#63b8ff" d="M352.24,-690.22C381.25,-683.92 414.57,-676.69 440.51,-671.05"/>
<polygon fill="#63b8ff" stroke="#63b8ff" points="351.21,-686.87 342.18,-692.41 352.7,-693.71 351.21,-686.87"/>
</a>
</g>
</g>
<!-- Node49 -->
<g id="Node000049" class="node">
<title>Node49</title>
<g id="a_Node000049"><a xlink:href="class_kit_1_1_system_1_1_timer_manager.html" target="_top" xlink:title="This concrete class implements manages a list of Software Timers.">
<polygon fill="white" stroke="#666666" points="360.5,-597 210.5,-597 210.5,-578 360.5,-578 360.5,-597"/>
<text text-anchor="middle" x="285.5" y="-585" font-family="Helvetica,sans-Serif" font-size="10.00">Kit::System::TimerManager</text>
</a>
</g>
</g>
<!-- Node49&#45;&gt;Node1 -->
<g id="edge108_Node000049_Node000001" class="edge">
<title>Node49&#45;&gt;Node1</title>
<g id="a_edge108_Node000049_Node000001"><a xlink:title=" ">
<path fill="none" stroke="#63b8ff" d="M370.76,-596.86C387.36,-598.71 404.52,-600.61 420.33,-602.37"/>
<polygon fill="#63b8ff" stroke="#63b8ff" points="370.83,-593.35 360.51,-595.72 370.06,-600.31 370.83,-593.35"/>
</a>
</g>
</g>
</g>
</svg>
