<?xml version="1.0" encoding="UTF-8" standalone="no"?>
<!DOCTYPE svg PUBLIC "-//W3C//DTD SVG 1.1//EN"
 "http://www.w3.org/Graphics/SVG/1.1/DTD/svg11.dtd">
<!-- Generated by graphviz version 2.43.0 (0)
 -->
<!-- Title: Graphical Class Hierarchy Pages: 1 -->
<svg width="1352pt" height="848pt"
 viewBox="0.00 0.00 1352.00 848.00" xmlns="http://www.w3.org/2000/svg" xmlns:xlink="http://www.w3.org/1999/xlink">
<g id="graph0" class="graph" transform="scale(1 1) rotate(0) translate(4 844)">
<title>Graphical Class Hierarchy</title>
<!-- Node0 -->
<g id="Node000000" class="node">
<title>Node0</title>
<g id="a_Node000000"><a xlink:href="class_kit_1_1_container_1_1_item.html" target="_top" xlink:title="This class is used by the Intrusive Container classes to enforce the semantic and item/element can be...">
<polygon fill="white" stroke="#666666" points="142.5,-612.5 30.5,-612.5 30.5,-593.5 142.5,-593.5 142.5,-612.5"/>
<text text-anchor="middle" x="86.5" y="-600.5" font-family="Helvetica,sans-Serif" font-size="10.00">Kit::Container::Item</text>
</a>
</g>
</g>
<!-- Node1 -->
<g id="Node000001" class="node">
<title>Node1</title>
<g id="a_Node000001"><a xlink:href="class_kit_1_1_container_1_1_list_item.html" target="_top" xlink:title="This class is used by the Container classes to implement a various types of linked lists containers.">
<polygon fill="white" stroke="#666666" points="350,-612.5 221,-612.5 221,-593.5 350,-593.5 350,-612.5"/>
<text text-anchor="middle" x="285.5" y="-600.5" font-family="Helvetica,sans-Serif" font-size="10.00">Kit::Container::ListItem</text>
</a>
</g>
</g>
<!-- Node0&#45;&gt;Node1 -->
<g id="edge4_Node000000_Node000001" class="edge">
<title>Node0&#45;&gt;Node1</title>
<g id="a_edge4_Node000000_Node000001"><a xlink:title=" ">
<path fill="none" stroke="#63b8ff" d="M152.81,-603C174.64,-603 198.95,-603 220.67,-603"/>
<polygon fill="#63b8ff" stroke="#63b8ff" points="152.64,-599.5 142.64,-603 152.64,-606.5 152.64,-599.5"/>
</a>
</g>
</g>
<!-- Node2 -->
<g id="Node000002" class="node">
<title>Node2</title>
<g id="a_Node000002"><a xlink:href="class_kit_1_1_container_1_1_extended_list_item.html" target="_top" xlink:title="This class is used by the Container classes to implement a various types of DOUBLY linked containers.">
<polygon fill="white" stroke="#666666" points="553,-704 418,-704 418,-674 553,-674 553,-704"/>
<text text-anchor="start" x="426" y="-692" font-family="Helvetica,sans-Serif" font-size="10.00">Kit::Container::Extended</text>
<text text-anchor="middle" x="485.5" y="-681" font-family="Helvetica,sans-Serif" font-size="10.00">ListItem</text>
</a>
</g>
</g>
<!-- Node1&#45;&gt;Node2 -->
<g id="edge5_Node000001_Node000002" class="edge">
<title>Node1&#45;&gt;Node2</title>
<g id="a_edge5_Node000001_Node000002"><a xlink:title=" ">
<path fill="none" stroke="#63b8ff" d="M309.72,-618.06C331.73,-631.8 366.08,-651.91 398,-665 405.93,-668.25 414.45,-671.21 422.93,-673.86"/>
<polygon fill="#63b8ff" stroke="#63b8ff" points="311.41,-614.98 301.09,-612.59 307.67,-620.9 311.41,-614.98"/>
</a>
</g>
</g>
<!-- Node16 -->
<g id="Node000016" class="node">
<title>Node16</title>
<g id="a_Node000016"><a xlink:href="class_kit_1_1_system_1_1_i_event_flag.html" target="_top" xlink:title="This abstract class defines the call&#45;back interface when an Event Flag has signaled.">
<polygon fill="white" stroke="#666666" points="551,-655.5 420,-655.5 420,-636.5 551,-636.5 551,-655.5"/>
<text text-anchor="middle" x="485.5" y="-643.5" font-family="Helvetica,sans-Serif" font-size="10.00">Kit::System::IEventFlag</text>
</a>
</g>
</g>
<!-- Node1&#45;&gt;Node16 -->
<g id="edge19_Node000001_Node000016" class="edge">
<title>Node1&#45;&gt;Node16</title>
<g id="a_edge19_Node000001_Node000016"><a xlink:title=" ">
<path fill="none" stroke="#63b8ff" d="M340.37,-614.7C371.86,-621.54 411.1,-630.06 440.68,-636.48"/>
<polygon fill="#63b8ff" stroke="#63b8ff" points="340.96,-611.25 330.44,-612.54 339.47,-618.09 340.96,-611.25"/>
</a>
</g>
</g>
<!-- Node18 -->
<g id="Node000018" class="node">
<title>Node18</title>
<g id="a_Node000018"><a xlink:href="class_kit_1_1_system_1_1_i_startup_hook.html" target="_top" xlink:title="This class defines a start&#45;up handler/hook that allows a KIT Library sub&#45;system to register to be cal...">
<polygon fill="white" stroke="#666666" points="557,-569.5 414,-569.5 414,-550.5 557,-550.5 557,-569.5"/>
<text text-anchor="middle" x="485.5" y="-557.5" font-family="Helvetica,sans-Serif" font-size="10.00">Kit::System::IStartupHook</text>
</a>
</g>
</g>
<!-- Node1&#45;&gt;Node18 -->
<g id="edge21_Node000001_Node000018" class="edge">
<title>Node1&#45;&gt;Node18</title>
<g id="a_edge21_Node000001_Node000018"><a xlink:title=" ">
<path fill="none" stroke="#63b8ff" d="M340.37,-591.3C371.86,-584.46 411.1,-575.94 440.68,-569.52"/>
<polygon fill="#63b8ff" stroke="#63b8ff" points="339.47,-587.91 330.44,-593.46 340.96,-594.75 339.47,-587.91"/>
</a>
</g>
</g>
<!-- Node19 -->
<g id="Node000019" class="node">
<title>Node19</title>
<g id="a_Node000019"><a xlink:href="class_kit_1_1_system_1_1_shutdown_1_1_i_handler.html" target="_top" xlink:title="This call defines the callback interface that is used when the application is shutdown.">
<polygon fill="white" stroke="#666666" points="549,-532 422,-532 422,-502 549,-502 549,-532"/>
<text text-anchor="start" x="430" y="-520" font-family="Helvetica,sans-Serif" font-size="10.00">Kit::System::Shutdown</text>
<text text-anchor="middle" x="485.5" y="-509" font-family="Helvetica,sans-Serif" font-size="10.00">::IHandler</text>
</a>
</g>
</g>
<!-- Node1&#45;&gt;Node19 -->
<g id="edge22_Node000001_Node000019" class="edge">
<title>Node1&#45;&gt;Node19</title>
<g id="a_edge22_Node000001_Node000019"><a xlink:title=" ">
<path fill="none" stroke="#63b8ff" d="M310.16,-588.06C332.23,-574.61 366.41,-555.02 398,-542 406.82,-538.37 416.34,-535.04 425.74,-532.09"/>
<polygon fill="#63b8ff" stroke="#63b8ff" points="308.16,-585.18 301.49,-593.41 311.83,-591.14 308.16,-585.18"/>
</a>
</g>
</g>
<!-- Node20 -->
<g id="Node000020" class="node">
<title>Node20</title>
<g id="a_Node000020"><a xlink:href="class_kit_1_1_system_1_1_sim_tick.html" target="_top" xlink:title="This class define the interface to provide a simulates system tick (in milliseconds) to the applicati...">
<polygon fill="white" stroke="#666666" points="544.5,-741.5 426.5,-741.5 426.5,-722.5 544.5,-722.5 544.5,-741.5"/>
<text text-anchor="middle" x="485.5" y="-729.5" font-family="Helvetica,sans-Serif" font-size="10.00">Kit::System::SimTick</text>
</a>
</g>
</g>
<!-- Node1&#45;&gt;Node20 -->
<g id="edge23_Node000001_Node000020" class="edge">
<title>Node1&#45;&gt;Node20</title>
<g id="a_edge23_Node000001_Node000020"><a xlink:title=" ">
<path fill="none" stroke="#63b8ff" d="M299.36,-620.93C318.12,-645.68 355.43,-689.89 398,-713 406.65,-717.7 416.38,-721.23 426.11,-723.89"/>
<polygon fill="#63b8ff" stroke="#63b8ff" points="302.08,-618.72 293.31,-612.76 296.45,-622.88 302.08,-618.72"/>
</a>
</g>
</g>
<!-- Node21 -->
<g id="Node000021" class="node">
<title>Node21</title>
<g id="a_Node000021"><a xlink:href="class_kit_1_1_system_1_1_thread.html" target="_top" xlink:title="This mostly abstract class defines the operations that can be performed on a thread.">
<polygon fill="white" stroke="#666666" points="542,-446.5 429,-446.5 429,-427.5 542,-427.5 542,-446.5"/>
<text text-anchor="middle" x="485.5" y="-434.5" font-family="Helvetica,sans-Serif" font-size="10.00">Kit::System::Thread</text>
</a>
</g>
</g>
<!-- Node1&#45;&gt;Node21 -->
<g id="edge24_Node000001_Node000021" class="edge">
<title>Node1&#45;&gt;Node21</title>
<g id="a_edge24_Node000001_Node000021"><a xlink:title=" ">
<path fill="none" stroke="#63b8ff" d="M295.19,-583.92C310.85,-551.81 347.01,-487.34 398,-455 407.2,-449.17 417.95,-445.19 428.68,-442.48"/>
<polygon fill="#63b8ff" stroke="#63b8ff" points="291.95,-582.59 290.83,-593.12 298.27,-585.58 291.95,-582.59"/>
</a>
</g>
</g>
<!-- Node46 -->
<g id="Node000046" class="node">
<title>Node46</title>
<g id="a_Node000046"><a xlink:href="class_kit_1_1_system_1_1_watchdog_1_1_watched_thread.html" target="_top" xlink:title="This class represents a thread being monitored by the watchdog system.">
<polygon fill="white" stroke="#666666" points="549,-618 422,-618 422,-588 549,-588 549,-618"/>
<text text-anchor="start" x="430" y="-606" font-family="Helvetica,sans-Serif" font-size="10.00">Kit::System::Watchdog</text>
<text text-anchor="middle" x="485.5" y="-595" font-family="Helvetica,sans-Serif" font-size="10.00">::WatchedThread</text>
</a>
</g>
</g>
<!-- Node1&#45;&gt;Node46 -->
<g id="edge28_Node000001_Node000046" class="edge">
<title>Node1&#45;&gt;Node46</title>
<g id="a_edge28_Node000001_Node000046"><a xlink:title=" ">
<path fill="none" stroke="#63b8ff" d="M360.35,-603C380.6,-603 402.35,-603 421.9,-603"/>
<polygon fill="#63b8ff" stroke="#63b8ff" points="360.24,-599.5 350.24,-603 360.24,-606.5 360.24,-599.5"/>
</a>
</g>
</g>
<!-- Node3 -->
<g id="Node000003" class="node">
<title>Node3</title>
<g id="a_Node000003"><a xlink:href="class_kit_1_1_container_1_1_keyed_item.html" target="_top" xlink:title="This abstract class represents a item that can be used with containers that have a concept of Key&#45;Val...">
<polygon fill="white" stroke="#666666" points="756,-692.5 614,-692.5 614,-673.5 756,-673.5 756,-692.5"/>
<text text-anchor="middle" x="685" y="-680.5" font-family="Helvetica,sans-Serif" font-size="10.00">Kit::Container::KeyedItem</text>
</a>
</g>
</g>
<!-- Node2&#45;&gt;Node3 -->
<g id="edge6_Node000002_Node000003" class="edge">
<title>Node2&#45;&gt;Node3</title>
<g id="a_edge6_Node000002_Node000003"><a xlink:title=" ">
<path fill="none" stroke="#63b8ff" d="M563.34,-686.67C580.03,-686.16 597.58,-685.63 613.99,-685.13"/>
<polygon fill="#63b8ff" stroke="#63b8ff" points="562.98,-683.17 553.09,-686.98 563.19,-690.17 562.98,-683.17"/>
</a>
</g>
</g>
<!-- Node8 -->
<g id="Node000008" class="node">
<title>Node8</title>
<g id="a_Node000008"><a xlink:href="class_kit_1_1_itc_1_1_i_message.html" target="_top" xlink:title="This abstract class defines the operations for an ITC message.">
<polygon fill="white" stroke="#666666" points="735.5,-783.5 634.5,-783.5 634.5,-764.5 735.5,-764.5 735.5,-783.5"/>
<text text-anchor="middle" x="685" y="-771.5" font-family="Helvetica,sans-Serif" font-size="10.00">Kit::Itc::IMessage</text>
</a>
</g>
</g>
<!-- Node2&#45;&gt;Node8 -->
<g id="edge11_Node000002_Node000008" class="edge">
<title>Node2&#45;&gt;Node8</title>
<g id="a_edge11_Node000002_Node000008"><a xlink:title=" ">
<path fill="none" stroke="#63b8ff" d="M557.55,-707.47C562.85,-709.47 568.06,-711.65 573,-714 590.59,-722.37 592.11,-729.29 609,-739 625.82,-748.67 645.75,-757.87 660.84,-764.41"/>
<polygon fill="#63b8ff" stroke="#63b8ff" points="558.51,-704.1 547.92,-704.05 556.17,-710.69 558.51,-704.1"/>
</a>
</g>
</g>
<!-- Node12 -->
<g id="Node000012" class="node">
<title>Node12</title>
<g id="a_Node000012"><a xlink:href="class_kit_1_1_system_1_1_i_counter.html" target="_top" xlink:title="This abstract class defines the call&#45;back interface for a Counter object.">
<polygon fill="white" stroke="#666666" points="745,-729.5 625,-729.5 625,-710.5 745,-710.5 745,-729.5"/>
<text text-anchor="middle" x="685" y="-717.5" font-family="Helvetica,sans-Serif" font-size="10.00">Kit::System::ICounter</text>
</a>
</g>
</g>
<!-- Node2&#45;&gt;Node12 -->
<g id="edge15_Node000002_Node000012" class="edge">
<title>Node2&#45;&gt;Node12</title>
<g id="a_edge15_Node000002_Node000012"><a xlink:title=" ">
<path fill="none" stroke="#63b8ff" d="M563.06,-701.02C583.62,-704.24 605.54,-707.68 624.99,-710.74"/>
<polygon fill="#63b8ff" stroke="#63b8ff" points="563.51,-697.55 553.09,-699.45 562.43,-704.46 563.51,-697.55"/>
</a>
</g>
</g>
<!-- Node4 -->
<g id="Node000004" class="node">
<title>Node4</title>
<g id="a_Node000004"><a xlink:href="class_kit_1_1_container_1_1_map_item.html" target="_top" xlink:title="This abstract class represents a item that can be contained in an Map (aka a sorted list implemented ...">
<polygon fill="white" stroke="#666666" points="949,-686.5 816,-686.5 816,-667.5 949,-667.5 949,-686.5"/>
<text text-anchor="middle" x="882.5" y="-674.5" font-family="Helvetica,sans-Serif" font-size="10.00">Kit::Container::MapItem</text>
</a>
</g>
</g>
<!-- Node3&#45;&gt;Node4 -->
<g id="edge7_Node000003_Node000004" class="edge">
<title>Node3&#45;&gt;Node4</title>
<g id="a_edge7_Node000003_Node000004"><a xlink:title=" ">
<path fill="none" stroke="#63b8ff" d="M766.21,-680.54C782.73,-680.03 799.94,-679.5 815.88,-679.01"/>
<polygon fill="#63b8ff" stroke="#63b8ff" points="765.92,-677.05 756.03,-680.85 766.13,-684.04 765.92,-677.05"/>
</a>
</g>
</g>
<!-- Node5 -->
<g id="Node000005" class="node">
<title>Node5</title>
<g id="a_Node000005"><a xlink:href="class_kit_1_1_text_1_1_string_item.html" target="_top" xlink:title="This partially concrete provides a wrapper class that allows a IString object to be stored directly i...">
<polygon fill="white" stroke="#666666" points="1139,-683.5 1026,-683.5 1026,-664.5 1139,-664.5 1139,-683.5"/>
<text text-anchor="middle" x="1082.5" y="-671.5" font-family="Helvetica,sans-Serif" font-size="10.00">Kit::Text::StringItem</text>
</a>
</g>
</g>
<!-- Node4&#45;&gt;Node5 -->
<g id="edge8_Node000004_Node000005" class="edge">
<title>Node4&#45;&gt;Node5</title>
<g id="a_edge8_Node000004_Node000005"><a xlink:title=" ">
<path fill="none" stroke="#63b8ff" d="M959.22,-675.85C981.41,-675.52 1005.26,-675.16 1025.95,-674.84"/>
<polygon fill="#63b8ff" stroke="#63b8ff" points="959.1,-672.35 949.16,-676.01 959.21,-679.35 959.1,-672.35"/>
</a>
</g>
</g>
<!-- Node6 -->
<g id="Node000006" class="node">
<title>Node6</title>
<g id="a_Node000006"><a xlink:href="class_kit_1_1_text_1_1_d_string_item.html" target="_top" xlink:title="This concrete class implements the StringItem class for a &#39;String&#39; using a &#39;DString&#39; as the internal ...">
<polygon fill="white" stroke="#666666" points="1331,-702.5 1210,-702.5 1210,-683.5 1331,-683.5 1331,-702.5"/>
<text text-anchor="middle" x="1270.5" y="-690.5" font-family="Helvetica,sans-Serif" font-size="10.00">Kit::Text::DStringItem</text>
</a>
</g>
</g>
<!-- Node5&#45;&gt;Node6 -->
<g id="edge9_Node000005_Node000006" class="edge">
<title>Node5&#45;&gt;Node6</title>
<g id="a_edge9_Node000005_Node000006"><a xlink:title=" ">
<path fill="none" stroke="#63b8ff" d="M1149.18,-680.71C1168.88,-682.72 1190.39,-684.92 1209.7,-686.89"/>
<polygon fill="#63b8ff" stroke="#63b8ff" points="1149.36,-677.21 1139.05,-679.67 1148.65,-684.17 1149.36,-677.21"/>
</a>
</g>
</g>
<!-- Node7 -->
<g id="Node000007" class="node">
<title>Node7</title>
<g id="a_Node000007"><a xlink:href="class_kit_1_1_text_1_1_f_string_item.html" target="_top" xlink:title="This template class implements the StringItem class for a &#39;String&#39; using a &#39;FString&#39; as the internal ...">
<polygon fill="white" stroke="#666666" points="1344,-665.5 1197,-665.5 1197,-646.5 1344,-646.5 1344,-665.5"/>
<text text-anchor="middle" x="1270.5" y="-653.5" font-family="Helvetica,sans-Serif" font-size="10.00">Kit::Text::FStringItem&lt; S &gt;</text>
</a>
</g>
</g>
<!-- Node5&#45;&gt;Node7 -->
<g id="edge10_Node000005_Node000007" class="edge">
<title>Node5&#45;&gt;Node7</title>
<g id="a_edge10_Node000005_Node000007"><a xlink:title=" ">
<path fill="none" stroke="#63b8ff" d="M1149.45,-667.62C1164.74,-666.14 1181.1,-664.56 1196.67,-663.05"/>
<polygon fill="#63b8ff" stroke="#63b8ff" points="1148.67,-664.18 1139.05,-668.62 1149.34,-671.14 1148.67,-664.18"/>
</a>
</g>
</g>
<!-- Node9 -->
<g id="Node000009" class="node">
<title>Node9</title>
<g id="a_Node000009"><a xlink:href="class_kit_1_1_itc_1_1_response_message.html" target="_top" xlink:title="This template class represents a client response message, which is posted to the client&#39;s mailbox aft...">
<polygon fill="white" stroke="#666666" points="968,-789 797,-789 797,-759 968,-759 968,-789"/>
<text text-anchor="start" x="805" y="-777" font-family="Helvetica,sans-Serif" font-size="10.00">Kit::Itc::ResponseMessage</text>
<text text-anchor="middle" x="882.5" y="-766" font-family="Helvetica,sans-Serif" font-size="10.00">&lt; CLIENT, SERVICE, PAYLOAD &gt;</text>
</a>
</g>
</g>
<!-- Node8&#45;&gt;Node9 -->
<g id="edge12_Node000008_Node000009" class="edge">
<title>Node8&#45;&gt;Node9</title>
<g id="a_edge12_Node000008_Node000009"><a xlink:title=" ">
<path fill="none" stroke="#63b8ff" d="M745.86,-774C761.89,-774 779.52,-774 796.62,-774"/>
<polygon fill="#63b8ff" stroke="#63b8ff" points="745.59,-770.5 735.59,-774 745.59,-777.5 745.59,-770.5"/>
</a>
</g>
</g>
<!-- Node10 -->
<g id="Node000010" class="node">
<title>Node10</title>
<g id="a_Node000010"><a xlink:href="class_kit_1_1_itc_1_1_server_message.html" target="_top" xlink:title="This partially concrete class represents a defined message, which is posted to a mailbox&#45;server as a ...">
<polygon fill="white" stroke="#666666" points="947,-831.5 818,-831.5 818,-812.5 947,-812.5 947,-831.5"/>
<text text-anchor="middle" x="882.5" y="-819.5" font-family="Helvetica,sans-Serif" font-size="10.00">Kit::Itc::ServerMessage</text>
</a>
</g>
</g>
<!-- Node8&#45;&gt;Node10 -->
<g id="edge13_Node000008_Node000010" class="edge">
<title>Node8&#45;&gt;Node10</title>
<g id="a_edge13_Node000008_Node000010"><a xlink:title=" ">
<path fill="none" stroke="#63b8ff" d="M735.06,-786.04C768.28,-794.2 811.59,-804.84 842.48,-812.42"/>
<polygon fill="#63b8ff" stroke="#63b8ff" points="735.64,-782.58 725.09,-783.6 733.97,-789.38 735.64,-782.58"/>
</a>
</g>
</g>
<!-- Node11 -->
<g id="Node000011" class="node">
<title>Node11</title>
<g id="a_Node000011"><a xlink:href="class_kit_1_1_itc_1_1_request_message.html" target="_top" xlink:title="This concrete template class represents a service request message to a particular server.">
<polygon fill="white" stroke="#666666" points="1151,-840 1014,-840 1014,-810 1151,-810 1151,-840"/>
<text text-anchor="start" x="1022" y="-828" font-family="Helvetica,sans-Serif" font-size="10.00">Kit::Itc::RequestMessage</text>
<text text-anchor="middle" x="1082.5" y="-817" font-family="Helvetica,sans-Serif" font-size="10.00">&lt; SERVICE, PAYLOAD &gt;</text>
</a>
</g>
</g>
<!-- Node10&#45;&gt;Node11 -->
<g id="edge14_Node000010_Node000011" class="edge">
<title>Node10&#45;&gt;Node11</title>
<g id="a_edge14_Node000010_Node000011"><a xlink:title=" ">
<path fill="none" stroke="#63b8ff" d="M957.37,-823.12C975.86,-823.4 995.61,-823.7 1013.78,-823.97"/>
<polygon fill="#63b8ff" stroke="#63b8ff" points="957.29,-819.62 947.24,-822.97 957.18,-826.62 957.29,-819.62"/>
</a>
</g>
</g>
<!-- Node13 -->
<g id="Node000013" class="node">
<title>Node13</title>
<g id="a_Node000013"><a xlink:href="class_kit_1_1_system_1_1_timer.html" target="_top" xlink:title="This mostly concrete interface defines the operations that can be performed on a software timer.">
<polygon fill="white" stroke="#666666" points="936,-729.5 829,-729.5 829,-710.5 936,-710.5 936,-729.5"/>
<text text-anchor="middle" x="882.5" y="-717.5" font-family="Helvetica,sans-Serif" font-size="10.00">Kit::System::Timer</text>
</a>
</g>
</g>
<!-- Node12&#45;&gt;Node13 -->
<g id="edge16_Node000012_Node000013" class="edge">
<title>Node12&#45;&gt;Node13</title>
<g id="a_edge16_Node000012_Node000013"><a xlink:title=" ">
<path fill="none" stroke="#63b8ff" d="M755.37,-720C779.53,-720 806.23,-720 828.82,-720"/>
<polygon fill="#63b8ff" stroke="#63b8ff" points="755.19,-716.5 745.19,-720 755.19,-723.5 755.19,-716.5"/>
</a>
</g>
</g>
<!-- Node14 -->
<g id="Node000014" class="node">
<title>Node14</title>
<g id="a_Node000014"><a xlink:href="class_kit_1_1_system_1_1_timer_composer.html" target="_top" xlink:title=" ">
<polygon fill="white" stroke="#666666" points="1161,-791.5 1004,-791.5 1004,-750.5 1161,-750.5 1161,-791.5"/>
<text text-anchor="start" x="1012" y="-779.5" font-family="Helvetica,sans-Serif" font-size="10.00">Kit::System::TimerComposer</text>
<text text-anchor="start" x="1012" y="-768.5" font-family="Helvetica,sans-Serif" font-size="10.00">&lt; Kit::System::Watchdog</text>
<text text-anchor="middle" x="1082.5" y="-757.5" font-family="Helvetica,sans-Serif" font-size="10.00">::WatchedEventThread &gt;</text>
</a>
</g>
</g>
<!-- Node13&#45;&gt;Node14 -->
<g id="edge17_Node000013_Node000014" class="edge">
<title>Node13&#45;&gt;Node14</title>
<g id="a_edge17_Node000013_Node000014"><a xlink:title=" ">
<path fill="none" stroke="#63b8ff" d="M930.45,-732.09C952.37,-737.74 979.04,-744.61 1003.83,-750.99"/>
<polygon fill="#63b8ff" stroke="#63b8ff" points="931.3,-728.7 920.74,-729.59 929.55,-735.48 931.3,-728.7"/>
</a>
</g>
</g>
<!-- Node15 -->
<g id="Node000015" class="node">
<title>Node15</title>
<g id="a_Node000015"><a xlink:href="class_kit_1_1_system_1_1_timer_composer.html" target="_top" xlink:title="This template class implements a Software Timer that is context independent and allows for a single c...">
<polygon fill="white" stroke="#666666" points="1161,-732 1004,-732 1004,-702 1161,-702 1161,-732"/>
<text text-anchor="start" x="1012" y="-720" font-family="Helvetica,sans-Serif" font-size="10.00">Kit::System::TimerComposer</text>
<text text-anchor="middle" x="1082.5" y="-709" font-family="Helvetica,sans-Serif" font-size="10.00">&lt; CONTEXT &gt;</text>
</a>
</g>
</g>
<!-- Node13&#45;&gt;Node15 -->
<g id="edge18_Node000013_Node000015" class="edge">
<title>Node13&#45;&gt;Node15</title>
<g id="a_edge18_Node000013_Node000015"><a xlink:title=" ">
<path fill="none" stroke="#63b8ff" d="M946.25,-719.05C964.51,-718.77 984.67,-718.47 1003.72,-718.18"/>
<polygon fill="#63b8ff" stroke="#63b8ff" points="945.99,-715.55 936.04,-719.2 946.09,-722.55 945.99,-715.55"/>
</a>
</g>
</g>
<!-- Node17 -->
<g id="Node000017" class="node">
<title>Node17</title>
<g id="a_Node000017"><a xlink:href="class_kit_1_1_system_1_1_event_flag_base.html" target="_top" xlink:title="This is helper class that perform an auto&#45;registration of the Event Flag instance with a list of Even...">
<polygon fill="white" stroke="#666666" points="761,-655.5 609,-655.5 609,-636.5 761,-636.5 761,-655.5"/>
<text text-anchor="middle" x="685" y="-643.5" font-family="Helvetica,sans-Serif" font-size="10.00">Kit::System::EventFlagBase</text>
</a>
</g>
</g>
<!-- Node16&#45;&gt;Node17 -->
<g id="edge20_Node000016_Node000017" class="edge">
<title>Node16&#45;&gt;Node17</title>
<g id="a_edge20_Node000016_Node000017"><a xlink:title=" ">
<path fill="none" stroke="#63b8ff" d="M561.27,-646C576.86,-646 593.29,-646 608.89,-646"/>
<polygon fill="#63b8ff" stroke="#63b8ff" points="561.17,-642.5 551.17,-646 561.17,-649.5 561.17,-642.5"/>
</a>
</g>
</g>
<!-- Node22 -->
<g id="Node000022" class="node">
<title>Node22</title>
<g id="a_Node000022"><a xlink:href="class_kit_1_1_system_1_1_free_r_t_o_s_1_1_thread.html" target="_top" xlink:title="This concrete class implements a Thread object using FreeRTOS threads.">
<polygon fill="white" stroke="#666666" points="747.5,-404 622.5,-404 622.5,-374 747.5,-374 747.5,-404"/>
<text text-anchor="start" x="630.5" y="-392" font-family="Helvetica,sans-Serif" font-size="10.00">Kit::System::FreeRTOS</text>
<text text-anchor="middle" x="685" y="-381" font-family="Helvetica,sans-Serif" font-size="10.00">::Thread</text>
</a>
</g>
</g>
<!-- Node21&#45;&gt;Node22 -->
<g id="edge25_Node000021_Node000022" class="edge">
<title>Node21&#45;&gt;Node22</title>
<g id="a_edge25_Node000021_Node000022"><a xlink:title=" ">
<path fill="none" stroke="#63b8ff" d="M541.39,-425.28C551.9,-422.94 562.8,-420.45 573,-418 591.01,-413.67 610.58,-408.66 628.21,-404.03"/>
<polygon fill="#63b8ff" stroke="#63b8ff" points="540.48,-421.9 531.47,-427.47 541.99,-428.74 540.48,-421.9"/>
</a>
</g>
</g>
<!-- Node23 -->
<g id="Node000023" class="node">
<title>Node23</title>
<g id="a_Node000023"><a xlink:href="class_kit_1_1_system_1_1_posix_1_1_thread.html" target="_top" xlink:title="This concrete class implements a Thread object using Posix threads.">
<polygon fill="white" stroke="#666666" points="737.5,-500 632.5,-500 632.5,-470 737.5,-470 737.5,-500"/>
<text text-anchor="start" x="640.5" y="-488" font-family="Helvetica,sans-Serif" font-size="10.00">Kit::System::Posix</text>
<text text-anchor="middle" x="685" y="-477" font-family="Helvetica,sans-Serif" font-size="10.00">::Thread</text>
</a>
</g>
</g>
<!-- Node21&#45;&gt;Node23 -->
<g id="edge26_Node000021_Node000023" class="edge">
<title>Node21&#45;&gt;Node23</title>
<g id="a_edge26_Node000021_Node000023"><a xlink:title=" ">
<path fill="none" stroke="#63b8ff" d="M545.13,-448.71C554.47,-450.72 564.02,-452.85 573,-455 592.51,-459.66 613.81,-465.29 632.49,-470.4"/>
<polygon fill="#63b8ff" stroke="#63b8ff" points="545.61,-445.24 535.11,-446.59 544.16,-452.09 545.61,-445.24"/>
</a>
</g>
</g>
<!-- Node24 -->
<g id="Node000024" class="node">
<title>Node24</title>
<g id="a_Node000024"><a xlink:href="class_kit_1_1_system_1_1_win32_1_1_thread.html" target="_top" xlink:title="This concrete class implements a Thread object using Win32 threads.">
<polygon fill="white" stroke="#666666" points="740,-452 630,-452 630,-422 740,-422 740,-452"/>
<text text-anchor="start" x="638" y="-440" font-family="Helvetica,sans-Serif" font-size="10.00">Kit::System::Win32</text>
<text text-anchor="middle" x="685" y="-429" font-family="Helvetica,sans-Serif" font-size="10.00">::Thread</text>
</a>
</g>
</g>
<!-- Node21&#45;&gt;Node24 -->
<g id="edge27_Node000021_Node000024" class="edge">
<title>Node21&#45;&gt;Node24</title>
<g id="a_edge27_Node000021_Node000024"><a xlink:title=" ">
<path fill="none" stroke="#63b8ff" d="M552.25,-437C577.46,-437 605.91,-437 629.9,-437"/>
<polygon fill="#63b8ff" stroke="#63b8ff" points="552.04,-433.5 542.04,-437 552.04,-440.5 552.04,-433.5"/>
</a>
</g>
</g>
<!-- Node47 -->
<g id="Node000047" class="node">
<title>Node47</title>
<g id="a_Node000047"><a xlink:href="class_kit_1_1_system_1_1_watchdog_1_1_raw_thread.html" target="_top" xlink:title="RawThread &#45; A concrete implementation for raw threads that provides wrapper methods for manual watchd...">
<polygon fill="white" stroke="#666666" points="748.5,-618 621.5,-618 621.5,-588 748.5,-588 748.5,-618"/>
<text text-anchor="start" x="629.5" y="-606" font-family="Helvetica,sans-Serif" font-size="10.00">Kit::System::Watchdog</text>
<text text-anchor="middle" x="685" y="-595" font-family="Helvetica,sans-Serif" font-size="10.00">::RawThread</text>
</a>
</g>
</g>
<!-- Node46&#45;&gt;Node47 -->
<g id="edge29_Node000046_Node000047" class="edge">
<title>Node46&#45;&gt;Node47</title>
<g id="a_edge29_Node000046_Node000047"><a xlink:title=" ">
<path fill="none" stroke="#63b8ff" d="M559.42,-603C579.78,-603 601.7,-603 621.4,-603"/>
<polygon fill="#63b8ff" stroke="#63b8ff" points="559.26,-599.5 549.26,-603 559.26,-606.5 559.26,-599.5"/>
</a>
</g>
</g>
<!-- Node48 -->
<g id="Node000048" class="node">
<title>Node48</title>
<g id="a_Node000048"><a xlink:href="class_kit_1_1_system_1_1_watchdog_1_1_watched_event_thread.html" target="_top" xlink:title="This class implements the IWatchedEventLoop interface and provides watchdog monitoring capabilities f...">
<polygon fill="white" stroke="#666666" points="748.5,-559 621.5,-559 621.5,-529 748.5,-529 748.5,-559"/>
<text text-anchor="start" x="629.5" y="-547" font-family="Helvetica,sans-Serif" font-size="10.00">Kit::System::Watchdog</text>
<text text-anchor="middle" x="685" y="-536" font-family="Helvetica,sans-Serif" font-size="10.00">::WatchedEventThread</text>
</a>
</g>
</g>
<!-- Node46&#45;&gt;Node48 -->
<g id="edge30_Node000046_Node000048" class="edge">
<title>Node46&#45;&gt;Node48</title>
<g id="a_edge30_Node000046_Node000048"><a xlink:title=" ">
<path fill="none" stroke="#63b8ff" d="M551.72,-585.17C558.91,-583.12 566.12,-581.04 573,-579 594.31,-572.69 617.8,-565.34 637.66,-559.01"/>
<polygon fill="#63b8ff" stroke="#63b8ff" points="550.63,-581.84 541.96,-587.92 552.53,-588.57 550.63,-581.84"/>
</a>
</g>
</g>
<!-- Node33 -->
<g id="Node000033" class="node">
<title>Node33</title>
<g id="a_Node000033"><a xlink:href="class_kit_1_1_container_1_1_s_list_base.html" target="_top" xlink:title="This protected base class implements a NON&#45;TYPE&#45;SAFE a singly linked list which maintains the orderin...">
<polygon fill="white" stroke="#666666" points="155,-142.5 18,-142.5 18,-123.5 155,-123.5 155,-142.5"/>
<text text-anchor="middle" x="86.5" y="-130.5" font-family="Helvetica,sans-Serif" font-size="10.00">Kit::Container::SListBase</text>
</a>
</g>
</g>
<!-- Node32 -->
<g id="Node000032" class="node">
<title>Node32</title>
<g id="a_Node000032"><a xlink:href="class_kit_1_1_container_1_1_s_list.html" target="_top" xlink:title=" ">
<polygon fill="white" stroke="#666666" points="342,-73 229,-73 229,-43 342,-43 342,-73"/>
<text text-anchor="start" x="237" y="-61" font-family="Helvetica,sans-Serif" font-size="10.00">Kit::Container::SList</text>
<text text-anchor="middle" x="285.5" y="-50" font-family="Helvetica,sans-Serif" font-size="10.00">&lt; IMessage &gt;</text>
</a>
</g>
</g>
<!-- Node33&#45;&gt;Node32 -->
<g id="edge31_Node000033_Node000032" class="edge">
<title>Node33&#45;&gt;Node32</title>
<g id="a_edge31_Node000033_Node000032"><a xlink:title=" ">
<path fill="none" stroke="#63b8ff" d="M118.21,-119.21C142.59,-108.48 177.68,-93.53 209,-82 217.26,-78.96 226.11,-75.94 234.74,-73.12"/>
<polygon fill="#63b8ff" stroke="#63b8ff" points="116.51,-116.14 108.78,-123.38 119.34,-122.54 116.51,-116.14"/>
</a>
</g>
</g>
<!-- Node34 -->
<g id="Node000034" class="node">
<title>Node34</title>
<g id="a_Node000034"><a xlink:href="class_kit_1_1_container_1_1_s_list.html" target="_top" xlink:title=" ">
<polygon fill="white" stroke="#666666" points="362,-377 209,-377 209,-347 362,-347 362,-377"/>
<text text-anchor="start" x="217" y="-365" font-family="Helvetica,sans-Serif" font-size="10.00">Kit::Container::SList</text>
<text text-anchor="middle" x="285.5" y="-354" font-family="Helvetica,sans-Serif" font-size="10.00">&lt; Kit::System::IEventFlag &gt;</text>
</a>
</g>
</g>
<!-- Node33&#45;&gt;Node34 -->
<g id="edge35_Node000033_Node000034" class="edge">
<title>Node33&#45;&gt;Node34</title>
<g id="a_edge35_Node000033_Node000034"><a xlink:title=" ">
<path fill="none" stroke="#63b8ff" d="M93.81,-152.44C107.89,-192.81 145.7,-286.16 209,-337 213.84,-340.89 219.32,-344.19 225.05,-346.98"/>
<polygon fill="#63b8ff" stroke="#63b8ff" points="97.05,-151.1 90.53,-142.75 90.42,-153.35 97.05,-151.1"/>
</a>
</g>
</g>
<!-- Node35 -->
<g id="Node000035" class="node">
<title>Node35</title>
<g id="a_Node000035"><a xlink:href="class_kit_1_1_container_1_1_s_list.html" target="_top" xlink:title=" ">
<polygon fill="white" stroke="#666666" points="354.5,-180.5 216.5,-180.5 216.5,-139.5 354.5,-139.5 354.5,-180.5"/>
<text text-anchor="start" x="224.5" y="-168.5" font-family="Helvetica,sans-Serif" font-size="10.00">Kit::Container::SList</text>
<text text-anchor="start" x="224.5" y="-157.5" font-family="Helvetica,sans-Serif" font-size="10.00">&lt; Kit::System::Watchdog</text>
<text text-anchor="middle" x="285.5" y="-146.5" font-family="Helvetica,sans-Serif" font-size="10.00">::WatchedThread &gt;</text>
</a>
</g>
</g>
<!-- Node33&#45;&gt;Node35 -->
<g id="edge36_Node000033_Node000035" class="edge">
<title>Node33&#45;&gt;Node35</title>
<g id="a_edge36_Node000033_Node000035"><a xlink:title=" ">
<path fill="none" stroke="#63b8ff" d="M165.39,-143.68C182.25,-145.99 199.95,-148.41 216.4,-150.67"/>
<polygon fill="#63b8ff" stroke="#63b8ff" points="165.4,-140.14 155.02,-142.25 164.45,-147.08 165.4,-140.14"/>
</a>
</g>
</g>
<!-- Node36 -->
<g id="Node000036" class="node">
<title>Node36</title>
<g id="a_Node000036"><a xlink:href="class_kit_1_1_container_1_1_s_list.html" target="_top" xlink:title="This template class implements a singly linked list which maintains the ordering imposed on it by the...">
<polygon fill="white" stroke="#666666" points="342,-121 229,-121 229,-91 342,-91 342,-121"/>
<text text-anchor="start" x="237" y="-109" font-family="Helvetica,sans-Serif" font-size="10.00">Kit::Container::SList</text>
<text text-anchor="middle" x="285.5" y="-98" font-family="Helvetica,sans-Serif" font-size="10.00">&lt; ITEM &gt;</text>
</a>
</g>
</g>
<!-- Node33&#45;&gt;Node36 -->
<g id="edge37_Node000033_Node000036" class="edge">
<title>Node33&#45;&gt;Node36</title>
<g id="a_edge37_Node000033_Node000036"><a xlink:title=" ">
<path fill="none" stroke="#63b8ff" d="M165.03,-122.37C186.34,-119.45 209.02,-116.34 228.83,-113.63"/>
<polygon fill="#63b8ff" stroke="#63b8ff" points="164.45,-118.92 155.02,-123.75 165.4,-125.86 164.45,-118.92"/>
</a>
</g>
</g>
<!-- Node31 -->
<g id="Node000031" class="node">
<title>Node31</title>
<g id="a_Node000031"><a xlink:href="class_kit_1_1_itc_1_1_mailbox.html" target="_top" xlink:title="This mailbox class implements an Inter Thread Communications message queue.">
<polygon fill="white" stroke="#666666" points="532,-67.5 439,-67.5 439,-48.5 532,-48.5 532,-67.5"/>
<text text-anchor="middle" x="485.5" y="-55.5" font-family="Helvetica,sans-Serif" font-size="10.00">Kit::Itc::Mailbox</text>
</a>
</g>
</g>
<!-- Node32&#45;&gt;Node31 -->
<g id="edge32_Node000032_Node000031" class="edge">
<title>Node32&#45;&gt;Node31</title>
<g id="a_edge32_Node000032_Node000031"><a xlink:title=" ">
<path fill="none" stroke="#63b8ff" d="M352.43,-58C380.8,-58 413.26,-58 438.9,-58"/>
<polygon fill="#63b8ff" stroke="#63b8ff" points="352.18,-54.5 342.18,-58 352.18,-61.5 352.18,-54.5"/>
</a>
</g>
</g>
<!-- Node27 -->
<g id="Node000027" class="node">
<title>Node27</title>
<g id="a_Node000027"><a xlink:href="class_kit_1_1_event_queue_1_1_server.html" target="_top" xlink:title="This concrete class extends the Kit::System::EventLoop interface to include processing events from Ev...">
<polygon fill="white" stroke="#666666" points="751.5,-259.5 618.5,-259.5 618.5,-240.5 751.5,-240.5 751.5,-259.5"/>
<text text-anchor="middle" x="685" y="-247.5" font-family="Helvetica,sans-Serif" font-size="10.00">Kit::EventQueue::Server</text>
</a>
</g>
</g>
<!-- Node31&#45;&gt;Node27 -->
<g id="edge33_Node000031_Node000027" class="edge">
<title>Node31&#45;&gt;Node27</title>
<g id="a_edge33_Node000031_Node000027"><a xlink:title=" ">
<path fill="none" stroke="#63b8ff" d="M503.71,-74.73C543.85,-113.75 642.61,-209.76 674.15,-240.42"/>
<polygon fill="#63b8ff" stroke="#63b8ff" points="505.9,-71.98 496.29,-67.52 501.02,-77 505.9,-71.98"/>
</a>
</g>
</g>
<!-- Node28 -->
<g id="Node000028" class="node">
<title>Node28</title>
<g id="a_Node000028"><a xlink:href="class_kit_1_1_event_queue_1_1_with_periodic_scheduling.html" target="_top" xlink:title="This class extends the Kit::EventQueue::Server class to add periodic scheduling to an event based &#39;th...">
<polygon fill="white" stroke="#666666" points="964,-308 801,-308 801,-278 964,-278 964,-308"/>
<text text-anchor="start" x="809" y="-296" font-family="Helvetica,sans-Serif" font-size="10.00">Kit::EventQueue::WithPeriodic</text>
<text text-anchor="middle" x="882.5" y="-285" font-family="Helvetica,sans-Serif" font-size="10.00">Scheduling</text>
</a>
</g>
</g>
<!-- Node27&#45;&gt;Node28 -->
<g id="edge34_Node000027_Node000028" class="edge">
<title>Node27&#45;&gt;Node28</title>
<g id="a_edge34_Node000027_Node000028"><a xlink:title=" ">
<path fill="none" stroke="#63b8ff" d="M739.23,-261.71C762.06,-266.73 789.01,-272.66 813.27,-277.99"/>
<polygon fill="#63b8ff" stroke="#63b8ff" points="739.91,-258.27 729.39,-259.54 738.4,-265.11 739.91,-258.27"/>
</a>
</g>
</g>
<!-- Node42 -->
<g id="Node000042" class="node">
<title>Node42</title>
<g id="a_Node000042"><a xlink:href="class_kit_1_1_io_1_1_socket_1_1_i_listener.html" target="_top" xlink:title="This abstract class defines the interface for a SIMPLE socket listener.">
<polygon fill="white" stroke="#666666" points="351,-217.5 220,-217.5 220,-198.5 351,-198.5 351,-217.5"/>
<text text-anchor="middle" x="285.5" y="-205.5" font-family="Helvetica,sans-Serif" font-size="10.00">Kit::Io::Socket::IListener</text>
</a>
</g>
</g>
<!-- Node41 -->
<g id="Node000041" class="node">
<title>Node41</title>
<g id="a_Node000041"><a xlink:href="class_kit_1_1_io_1_1_socket_1_1_listener_runnable.html" target="_top" xlink:title="This concrete class provides an implementation of a simple listener using IPv4 addressing.">
<polygon fill="white" stroke="#666666" points="549.5,-217 421.5,-217 421.5,-187 549.5,-187 549.5,-217"/>
<text text-anchor="start" x="429.5" y="-205" font-family="Helvetica,sans-Serif" font-size="10.00">Kit::Io::Socket::Listener</text>
<text text-anchor="middle" x="485.5" y="-194" font-family="Helvetica,sans-Serif" font-size="10.00">Runnable</text>
</a>
</g>
</g>
<!-- Node42&#45;&gt;Node41 -->
<g id="edge38_Node000042_Node000041" class="edge">
<title>Node42&#45;&gt;Node41</title>
<g id="a_edge38_Node000042_Node000041"><a xlink:title=" ">
<path fill="none" stroke="#63b8ff" d="M361.27,-205.73C381.08,-205.13 402.26,-204.49 421.38,-203.91"/>
<polygon fill="#63b8ff" stroke="#63b8ff" points="360.95,-202.24 351.06,-206.04 361.16,-209.24 360.95,-202.24"/>
</a>
</g>
</g>
<!-- Node39 -->
<g id="Node000039" class="node">
<title>Node39</title>
<g id="a_Node000039"><a xlink:href="class_kit_1_1_system_1_1_i_event_manager.html" target="_top" xlink:title="This abstract class defines the interface to signal a &#39;Event Flag&#39;.">
<polygon fill="white" stroke="#666666" points="361.5,-291.5 209.5,-291.5 209.5,-272.5 361.5,-272.5 361.5,-291.5"/>
<text text-anchor="middle" x="285.5" y="-279.5" font-family="Helvetica,sans-Serif" font-size="10.00">Kit::System::IEventManager</text>
</a>
</g>
</g>
<!-- Node26 -->
<g id="Node000026" class="node">
<title>Node26</title>
<g id="a_Node000026"><a xlink:href="class_kit_1_1_system_1_1_event_loop.html" target="_top" xlink:title="This concrete class is a IRunnable object that provides a event driven execution model for a thread.">
<polygon fill="white" stroke="#666666" points="550.5,-302.5 420.5,-302.5 420.5,-283.5 550.5,-283.5 550.5,-302.5"/>
<text text-anchor="middle" x="485.5" y="-290.5" font-family="Helvetica,sans-Serif" font-size="10.00">Kit::System::EventLoop</text>
</a>
</g>
</g>
<!-- Node39&#45;&gt;Node26 -->
<g id="edge39_Node000039_Node000026" class="edge">
<title>Node39&#45;&gt;Node26</title>
<g id="a_edge39_Node000039_Node000026"><a xlink:title=" ">
<path fill="none" stroke="#63b8ff" d="M371.72,-286.73C388.05,-287.64 404.88,-288.58 420.4,-289.44"/>
<polygon fill="#63b8ff" stroke="#63b8ff" points="371.82,-283.23 361.64,-286.17 371.43,-290.22 371.82,-283.23"/>
</a>
</g>
</g>
<!-- Node26&#45;&gt;Node27 -->
<g id="edge40_Node000026_Node000027" class="edge">
<title>Node26&#45;&gt;Node27</title>
<g id="a_edge40_Node000026_Node000027"><a xlink:title=" ">
<path fill="none" stroke="#63b8ff" d="M540.24,-281.3C571.65,-274.46 610.78,-265.94 640.29,-259.52"/>
<polygon fill="#63b8ff" stroke="#63b8ff" points="539.36,-277.91 530.33,-283.46 540.85,-284.75 539.36,-277.91"/>
</a>
</g>
</g>
<!-- Node30 -->
<g id="Node000030" class="node">
<title>Node30</title>
<g id="a_Node000030"><a xlink:href="class_kit_1_1_system_1_1_event_loop_with_p_scheduling.html" target="_top" xlink:title="This class extends the EventLoop class to add periodic scheduling to an event based &#39;thread&#39;.">
<polygon fill="white" stroke="#666666" points="761,-308 609,-308 609,-278 761,-278 761,-308"/>
<text text-anchor="start" x="617" y="-296" font-family="Helvetica,sans-Serif" font-size="10.00">Kit::System::EventLoopWith</text>
<text text-anchor="middle" x="685" y="-285" font-family="Helvetica,sans-Serif" font-size="10.00">PScheduling</text>
</a>
</g>
</g>
<!-- Node26&#45;&gt;Node30 -->
<g id="edge41_Node000026_Node000030" class="edge">
<title>Node26&#45;&gt;Node30</title>
<g id="a_edge41_Node000026_Node000030"><a xlink:title=" ">
<path fill="none" stroke="#63b8ff" d="M560.8,-293C576.52,-293 593.11,-293 608.86,-293"/>
<polygon fill="#63b8ff" stroke="#63b8ff" points="560.62,-289.5 550.62,-293 560.62,-296.5 560.62,-289.5"/>
</a>
</g>
</g>
<!-- Node40 -->
<g id="Node000040" class="node">
<title>Node40</title>
<g id="a_Node000040"><a xlink:href="class_kit_1_1_system_1_1_i_runnable.html" target="_top" xlink:title="This mostly an abstract class defines the interface for an object that is &quot;executed&quot; when a Thread ob...">
<polygon fill="white" stroke="#666666" points="349.5,-254.5 221.5,-254.5 221.5,-235.5 349.5,-235.5 349.5,-254.5"/>
<text text-anchor="middle" x="285.5" y="-242.5" font-family="Helvetica,sans-Serif" font-size="10.00">Kit::System::IRunnable</text>
</a>
</g>
</g>
<!-- Node40&#45;&gt;Node41 -->
<g id="edge42_Node000040_Node000041" class="edge">
<title>Node40&#45;&gt;Node41</title>
<g id="a_edge42_Node000040_Node000041"><a xlink:title=" ">
<path fill="none" stroke="#63b8ff" d="M340.45,-233.28C365.38,-227.87 395.15,-221.4 421.15,-215.76"/>
<polygon fill="#63b8ff" stroke="#63b8ff" points="339.47,-229.91 330.44,-235.46 340.96,-236.75 339.47,-229.91"/>
</a>
</g>
</g>
<!-- Node40&#45;&gt;Node26 -->
<g id="edge43_Node000040_Node000026" class="edge">
<title>Node40&#45;&gt;Node26</title>
<g id="a_edge43_Node000040_Node000026"><a xlink:title=" ">
<path fill="none" stroke="#63b8ff" d="M338.45,-256.93C346.36,-258.88 354.41,-260.94 362,-263 378.14,-267.39 381.82,-269.76 398,-274 410.79,-277.35 424.75,-280.6 437.65,-283.43"/>
<polygon fill="#63b8ff" stroke="#63b8ff" points="339.09,-253.49 328.55,-254.53 337.44,-260.29 339.09,-253.49"/>
</a>
</g>
</g>
<!-- Node43 -->
<g id="Node000043" class="node">
<title>Node43</title>
<g id="a_Node000043"><a xlink:href="class_kit_1_1_system_1_1_free_r_t_o_s_1_1_make_current_thread_a_kit_thread.html" target="_top" xlink:title="This is a helper class that can be used to make the current thread a CPL thread.">
<polygon fill="white" stroke="#666666" points="572,-265 399,-265 399,-235 572,-235 572,-265"/>
<text text-anchor="start" x="407" y="-253" font-family="Helvetica,sans-Serif" font-size="10.00">Kit::System::FreeRTOS</text>
<text text-anchor="middle" x="485.5" y="-242" font-family="Helvetica,sans-Serif" font-size="10.00">::MakeCurrentThreadAKitThread</text>
</a>
</g>
</g>
<!-- Node40&#45;&gt;Node43 -->
<g id="edge44_Node000040_Node000043" class="edge">
<title>Node40&#45;&gt;Node43</title>
<g id="a_edge44_Node000040_Node000043"><a xlink:title=" ">
<path fill="none" stroke="#63b8ff" d="M359.74,-246.85C372.46,-247.17 385.78,-247.51 398.79,-247.84"/>
<polygon fill="#63b8ff" stroke="#63b8ff" points="359.78,-243.35 349.69,-246.6 359.6,-250.35 359.78,-243.35"/>
</a>
</g>
</g>
<!-- Node25 -->
<g id="Node000025" class="node">
<title>Node25</title>
<g id="a_Node000025"><a xlink:href="class_kit_1_1_system_1_1_i_signable.html" target="_top" xlink:title="This abstract class defines the interface by which a client can cause an object that is waiting&#45;on&#45;a&#45;...">
<polygon fill="white" stroke="#666666" points="347.5,-414.5 223.5,-414.5 223.5,-395.5 347.5,-395.5 347.5,-414.5"/>
<text text-anchor="middle" x="285.5" y="-402.5" font-family="Helvetica,sans-Serif" font-size="10.00">Kit::System::ISignable</text>
</a>
</g>
</g>
<!-- Node25&#45;&gt;Node21 -->
<g id="edge47_Node000025_Node000021" class="edge">
<title>Node25&#45;&gt;Node21</title>
<g id="a_edge47_Node000025_Node000021"><a xlink:title=" ">
<path fill="none" stroke="#63b8ff" d="M355.48,-416.15C379.5,-420.03 406.12,-424.33 428.91,-428.02"/>
<polygon fill="#63b8ff" stroke="#63b8ff" points="355.8,-412.65 345.37,-414.51 354.68,-419.57 355.8,-412.65"/>
</a>
</g>
</g>
<!-- Node25&#45;&gt;Node26 -->
<g id="edge45_Node000025_Node000026" class="edge">
<title>Node25&#45;&gt;Node26</title>
<g id="a_edge45_Node000025_Node000026"><a xlink:title=" ">
<path fill="none" stroke="#63b8ff" d="M354.77,-390.97C357.3,-389.48 359.73,-387.83 362,-386 389.89,-363.59 370.02,-336.29 398,-314 404.53,-308.8 412.15,-304.86 420.11,-301.88"/>
<polygon fill="#63b8ff" stroke="#63b8ff" points="353.15,-387.87 345.78,-395.48 356.29,-394.13 353.15,-387.87"/>
</a>
</g>
</g>
<!-- Node45 -->
<g id="Node000045" class="node">
<title>Node45</title>
<g id="a_Node000045"><a xlink:href="class_kit_1_1_system_1_1_semaphore.html" target="_top" xlink:title="This semaphore concrete class defines the interface for a Counting Semaphore.">
<polygon fill="white" stroke="#666666" points="552.5,-409.5 418.5,-409.5 418.5,-390.5 552.5,-390.5 552.5,-409.5"/>
<text text-anchor="middle" x="485.5" y="-397.5" font-family="Helvetica,sans-Serif" font-size="10.00">Kit::System::Semaphore</text>
</a>
</g>
</g>
<!-- Node25&#45;&gt;Node45 -->
<g id="edge46_Node000025_Node000045" class="edge">
<title>Node25&#45;&gt;Node45</title>
<g id="a_edge46_Node000025_Node000045"><a xlink:title=" ">
<path fill="none" stroke="#63b8ff" d="M357.67,-403.2C377.4,-402.7 398.73,-402.17 418.17,-401.67"/>
<polygon fill="#63b8ff" stroke="#63b8ff" points="357.43,-399.71 347.52,-403.46 357.61,-406.71 357.43,-399.71"/>
</a>
</g>
</g>
<!-- Node49 -->
<g id="Node000049" class="node">
<title>Node49</title>
<g id="a_Node000049"><a xlink:href="class_kit_1_1_system_1_1_i_watched_event_loop.html" target="_top" xlink:title="This abstract interface defines the API for watching/monitoring an EventLoop for watchdog purposes.">
<polygon fill="white" stroke="#666666" points="573,-483.5 398,-483.5 398,-464.5 573,-464.5 573,-483.5"/>
<text text-anchor="middle" x="485.5" y="-471.5" font-family="Helvetica,sans-Serif" font-size="10.00">Kit::System::IWatchedEventLoop</text>
</a>
</g>
</g>
<!-- Node49&#45;&gt;Node48 -->
<g id="edge48_Node000049_Node000048" class="edge">
<title>Node49&#45;&gt;Node48</title>
<g id="a_edge48_Node000049_Node000048"><a xlink:title=" ">
<path fill="none" stroke="#63b8ff" d="M548.42,-485.9C556.76,-488 565.14,-490.37 573,-493 577.07,-494.36 620.44,-514.43 651.74,-528.97"/>
<polygon fill="#63b8ff" stroke="#63b8ff" points="549.22,-482.5 538.68,-483.57 547.59,-489.3 549.22,-482.5"/>
</a>
</g>
</g>
<!-- Node29 -->
<g id="Node000029" class="node">
<title>Node29</title>
<g id="a_Node000029"><a xlink:href="class_kit_1_1_system_1_1_periodic_scheduler.html" target="_top" xlink:title="This concrete class is a &#39;policy&#39; object that is used to add polled based, cooperative monotonic sche...">
<polygon fill="white" stroke="#666666" points="568.5,-342.5 402.5,-342.5 402.5,-323.5 568.5,-323.5 568.5,-342.5"/>
<text text-anchor="middle" x="485.5" y="-330.5" font-family="Helvetica,sans-Serif" font-size="10.00">Kit::System::PeriodicScheduler</text>
</a>
</g>
</g>
<!-- Node29&#45;&gt;Node28 -->
<g id="edge49_Node000029_Node000028" class="edge">
<title>Node29&#45;&gt;Node28</title>
<g id="a_edge49_Node000029_Node000028"><a xlink:title=" ">
<path fill="none" stroke="#63b8ff" d="M578.88,-330.8C632.27,-328.73 700.61,-324.74 761,-317 778.46,-314.76 797.17,-311.48 814.53,-308.05"/>
<polygon fill="#63b8ff" stroke="#63b8ff" points="578.62,-327.31 568.75,-331.18 578.88,-334.3 578.62,-327.31"/>
</a>
</g>
</g>
<!-- Node29&#45;&gt;Node30 -->
<g id="edge50_Node000029_Node000030" class="edge">
<title>Node29&#45;&gt;Node30</title>
<g id="a_edge50_Node000029_Node000030"><a xlink:title=" ">
<path fill="none" stroke="#63b8ff" d="M543.47,-321.46C564.19,-317.27 587.92,-312.46 609.91,-308.01"/>
<polygon fill="#63b8ff" stroke="#63b8ff" points="542.66,-318.05 533.56,-323.47 544.05,-324.92 542.66,-318.05"/>
</a>
</g>
</g>
<!-- Node44 -->
<g id="Node000044" class="node">
<title>Node44</title>
<g id="a_Node000044"><a xlink:href="class_kit_1_1_system_1_1_timer_manager.html" target="_top" xlink:title="This concrete class implements manages a list of Software Timers.">
<polygon fill="white" stroke="#666666" points="360.5,-328.5 210.5,-328.5 210.5,-309.5 360.5,-309.5 360.5,-328.5"/>
<text text-anchor="middle" x="285.5" y="-316.5" font-family="Helvetica,sans-Serif" font-size="10.00">Kit::System::TimerManager</text>
</a>
</g>
</g>
<!-- Node44&#45;&gt;Node26 -->
<g id="edge51_Node000044_Node000026" class="edge">
<title>Node44&#45;&gt;Node26</title>
<g id="a_edge51_Node000044_Node000026"><a xlink:title=" ">
<path fill="none" stroke="#63b8ff" d="M369.1,-308.15C386.24,-305.9 404.05,-303.56 420.41,-301.42"/>
<polygon fill="#63b8ff" stroke="#63b8ff" points="368.56,-304.69 359.1,-309.47 369.47,-311.63 368.56,-304.69"/>
</a>
</g>
</g>
<!-- Node38 -->
<g id="Node000038" class="node">
<title>Node38</title>
<g id="a_Node000038"><a xlink:title=" ">
<polygon fill="#e0e0e0" stroke="#999999" points="173,-30 0,-30 0,0 173,0 173,-30"/>
<text text-anchor="start" x="8" y="-18" font-family="Helvetica,sans-Serif" font-size="10.00">KIT_EVENT_QUEUE_SUPPORTED</text>
<text text-anchor="middle" x="86.5" y="-7" font-family="Helvetica,sans-Serif" font-size="10.00">_EVENT_TYPES</text>
</a>
</g>
</g>
<!-- Node37 -->
<g id="Node000037" class="node">
<title>Node37</title>
<g id="a_Node000037"><a xlink:href="class_kit_1_1_event_queue_1_1_i_queue.html" target="_top" xlink:title="This abstract class represents an Event Queue where events can be delivered to.">
<polygon fill="white" stroke="#666666" points="353.5,-24.5 217.5,-24.5 217.5,-5.5 353.5,-5.5 353.5,-24.5"/>
<text text-anchor="middle" x="285.5" y="-12.5" font-family="Helvetica,sans-Serif" font-size="10.00">Kit::EventQueue::IQueue</text>
</a>
</g>
</g>
<!-- Node38&#45;&gt;Node37 -->
<g id="edge52_Node000038_Node000037" class="edge">
<title>Node38&#45;&gt;Node37</title>
<g id="a_edge52_Node000038_Node000037"><a xlink:title=" ">
<path fill="none" stroke="#8b1a1a" d="M183.19,-15C194.76,-15 206.38,-15 217.41,-15"/>
<polygon fill="#8b1a1a" stroke="#8b1a1a" points="183.05,-11.5 173.05,-15 183.05,-18.5 183.05,-11.5"/>
</a>
</g>
</g>
<!-- Node37&#45;&gt;Node31 -->
<g id="edge53_Node000037_Node000031" class="edge">
<title>Node37&#45;&gt;Node31</title>
<g id="a_edge53_Node000037_Node000031"><a xlink:title=" ">
<path fill="none" stroke="#63b8ff" d="M340.37,-26.7C371.86,-33.54 411.1,-42.06 440.68,-48.48"/>
<polygon fill="#63b8ff" stroke="#63b8ff" points="340.96,-23.25 330.44,-24.54 339.47,-30.09 340.96,-23.25"/>
</a>
</g>
</g>
</g>
</svg>
