<?xml version="1.0" encoding="UTF-8" standalone="no"?>
<!DOCTYPE svg PUBLIC "-//W3C//DTD SVG 1.1//EN"
 "http://www.w3.org/Graphics/SVG/1.1/DTD/svg11.dtd">
<!-- Generated by graphviz version 2.43.0 (0)
 -->
<!-- Title: Graphical Class Hierarchy Pages: 1 -->
<svg width="805pt" height="420pt"
 viewBox="0.00 0.00 805.00 420.00" xmlns="http://www.w3.org/2000/svg" xmlns:xlink="http://www.w3.org/1999/xlink">
<g id="graph0" class="graph" transform="scale(1 1) rotate(0) translate(4 416)">
<title>Graphical Class Hierarchy</title>
<!-- Node0 -->
<g id="Node000000" class="node">
<title>Node0</title>
<g id="a_Node000000"><a xlink:href="class_kit_1_1_io_1_1_file_1_1_i_position.html" target="_top" xlink:title="This abstract class defines random&#45;access semantics for file&#45;like objects.">
<polygon fill="white" stroke="#666666" points="233,-335 117,-335 117,-316 233,-316 233,-335"/>
<text text-anchor="middle" x="175" y="-323" font-family="Helvetica,sans-Serif" font-size="10.00">Kit::Io::File::IPosition</text>
</a>
</g>
</g>
<!-- Node1 -->
<g id="Node000001" class="node">
<title>Node1</title>
<g id="a_Node000001"><a xlink:href="class_kit_1_1_io_1_1_file_1_1_i_input.html" target="_top" xlink:title="This abstract class defines the interface for a Random Access Input File.">
<polygon fill="white" stroke="#666666" points="399.5,-378 297.5,-378 297.5,-359 399.5,-359 399.5,-378"/>
<text text-anchor="middle" x="348.5" y="-366" font-family="Helvetica,sans-Serif" font-size="10.00">Kit::Io::File::IInput</text>
</a>
</g>
</g>
<!-- Node0&#45;&gt;Node1 -->
<g id="edge248_Node000000_Node000001" class="edge">
<title>Node0&#45;&gt;Node1</title>
<g id="a_edge248_Node000000_Node000001"><a xlink:title=" ">
<path fill="none" stroke="#63b8ff" d="M222.59,-337.67C237.41,-341.5 253.88,-345.72 269,-349.5 281.51,-352.63 295.17,-355.96 307.54,-358.95"/>
<polygon fill="#63b8ff" stroke="#63b8ff" points="223.19,-334.21 212.63,-335.09 221.43,-340.99 223.19,-334.21"/>
</a>
</g>
</g>
<!-- Node5 -->
<g id="Node000005" class="node">
<title>Node5</title>
<g id="a_Node000005"><a xlink:href="class_kit_1_1_io_1_1_file_1_1_i_output.html" target="_top" xlink:title="This abstract class defines the interface for a Random Access Input File.">
<polygon fill="white" stroke="#666666" points="403.5,-292 293.5,-292 293.5,-273 403.5,-273 403.5,-292"/>
<text text-anchor="middle" x="348.5" y="-280" font-family="Helvetica,sans-Serif" font-size="10.00">Kit::Io::File::IOutput</text>
</a>
</g>
</g>
<!-- Node0&#45;&gt;Node5 -->
<g id="edge253_Node000000_Node000005" class="edge">
<title>Node0&#45;&gt;Node5</title>
<g id="a_edge253_Node000000_Node000005"><a xlink:title=" ">
<path fill="none" stroke="#63b8ff" d="M222.59,-313.33C237.41,-309.5 253.88,-305.28 269,-301.5 281.51,-298.37 295.17,-295.04 307.54,-292.05"/>
<polygon fill="#63b8ff" stroke="#63b8ff" points="221.43,-310.01 212.63,-315.91 223.19,-316.79 221.43,-310.01"/>
</a>
</g>
</g>
<!-- Node2 -->
<g id="Node000002" class="node">
<title>Node2</title>
<g id="a_Node000002"><a xlink:href="class_kit_1_1_io_1_1_file_1_1_i_input_output.html" target="_top" xlink:title="This abstract class defines the interface for a Random Access Input Output File.">
<polygon fill="white" stroke="#666666" points="606.5,-375 471.5,-375 471.5,-356 606.5,-356 606.5,-375"/>
<text text-anchor="middle" x="539" y="-363" font-family="Helvetica,sans-Serif" font-size="10.00">Kit::Io::File::IInputOutput</text>
</a>
</g>
</g>
<!-- Node1&#45;&gt;Node2 -->
<g id="edge249_Node000001_Node000002" class="edge">
<title>Node1&#45;&gt;Node2</title>
<g id="a_edge249_Node000001_Node000002"><a xlink:title=" ">
<path fill="none" stroke="#63b8ff" d="M409.58,-367.54C429.27,-367.23 451.27,-366.88 471.41,-366.56"/>
<polygon fill="#63b8ff" stroke="#63b8ff" points="409.46,-364.05 399.52,-367.7 409.57,-371.04 409.46,-364.05"/>
</a>
</g>
</g>
<!-- Node27 -->
<g id="Node000027" class="node">
<title>Node27</title>
<g id="a_Node000027"><a xlink:href="class_kit_1_1_io_1_1_file_1_1_input.html" target="_top" xlink:title="This concrete class provides a platform independent implementation of a Kit::Io::File::Input object.">
<polygon fill="white" stroke="#666666" points="588.5,-412 489.5,-412 489.5,-393 588.5,-393 588.5,-412"/>
<text text-anchor="middle" x="539" y="-400" font-family="Helvetica,sans-Serif" font-size="10.00">Kit::Io::File::Input</text>
</a>
</g>
</g>
<!-- Node1&#45;&gt;Node27 -->
<g id="edge252_Node000001_Node000027" class="edge">
<title>Node1&#45;&gt;Node27</title>
<g id="a_edge252_Node000001_Node000027"><a xlink:title=" ">
<path fill="none" stroke="#63b8ff" d="M409.55,-379.33C435.31,-383.98 465.02,-389.34 489.38,-393.73"/>
<polygon fill="#63b8ff" stroke="#63b8ff" points="409.98,-375.85 399.52,-377.52 408.74,-382.74 409.98,-375.85"/>
</a>
</g>
</g>
<!-- Node3 -->
<g id="Node000003" class="node">
<title>Node3</title>
<g id="a_Node000003"><a xlink:href="class_kit_1_1_io_1_1_file_1_1_input_output.html" target="_top" xlink:title="This concrete class provides a platform independent implementation of an Kit::Io::File::IInputOutput ...">
<polygon fill="white" stroke="#666666" points="789.5,-393 657.5,-393 657.5,-374 789.5,-374 789.5,-393"/>
<text text-anchor="middle" x="723.5" y="-381" font-family="Helvetica,sans-Serif" font-size="10.00">Kit::Io::File::InputOutput</text>
</a>
</g>
</g>
<!-- Node2&#45;&gt;Node3 -->
<g id="edge250_Node000002_Node000003" class="edge">
<title>Node2&#45;&gt;Node3</title>
<g id="a_edge250_Node000002_Node000003"><a xlink:title=" ">
<path fill="none" stroke="#63b8ff" d="M616.84,-373.08C630.28,-374.4 644.15,-375.77 657.24,-377.06"/>
<polygon fill="#63b8ff" stroke="#63b8ff" points="616.96,-369.57 606.66,-372.07 616.27,-376.54 616.96,-369.57"/>
</a>
</g>
</g>
<!-- Node4 -->
<g id="Node000004" class="node">
<title>Node4</title>
<g id="a_Node000004"><a xlink:href="class_kit_1_1_io_1_1_file_1_1_null.html" target="_top" xlink:title="This concrete class implements a NULL IInputOutput File that all of its input operations return &#39;End&#45;...">
<polygon fill="white" stroke="#666666" points="770.5,-356 676.5,-356 676.5,-337 770.5,-337 770.5,-356"/>
<text text-anchor="middle" x="723.5" y="-344" font-family="Helvetica,sans-Serif" font-size="10.00">Kit::Io::File::Null</text>
</a>
</g>
</g>
<!-- Node2&#45;&gt;Node4 -->
<g id="edge251_Node000002_Node000004" class="edge">
<title>Node2&#45;&gt;Node4</title>
<g id="a_edge251_Node000002_Node000004"><a xlink:title=" ">
<path fill="none" stroke="#63b8ff" d="M616.81,-357.5C637.02,-355.4 658.21,-353.19 676.27,-351.31"/>
<polygon fill="#63b8ff" stroke="#63b8ff" points="616.25,-354.04 606.66,-358.56 616.97,-361.01 616.25,-354.04"/>
</a>
</g>
</g>
<!-- Node5&#45;&gt;Node2 -->
<g id="edge254_Node000005_Node000002" class="edge">
<title>Node5&#45;&gt;Node2</title>
<g id="a_edge254_Node000005_Node000002"><a xlink:title=" ">
<path fill="none" stroke="#63b8ff" d="M413.28,-293.97C418.45,-296.07 423.43,-298.56 428,-301.5 449.83,-315.56 442.18,-333.43 464,-347.5 469.33,-350.94 475.27,-353.72 481.39,-355.97"/>
<polygon fill="#63b8ff" stroke="#63b8ff" points="414.42,-290.66 403.82,-290.59 412.06,-297.25 414.42,-290.66"/>
</a>
</g>
</g>
<!-- Node6 -->
<g id="Node000006" class="node">
<title>Node6</title>
<g id="a_Node000006"><a xlink:href="class_kit_1_1_io_1_1_file_1_1_output.html" target="_top" xlink:title="This concrete class provides a platform independent implementation of a Kit::Io::File::Output object.">
<polygon fill="white" stroke="#666666" points="592.5,-338 485.5,-338 485.5,-319 592.5,-319 592.5,-338"/>
<text text-anchor="middle" x="539" y="-326" font-family="Helvetica,sans-Serif" font-size="10.00">Kit::Io::File::Output</text>
</a>
</g>
</g>
<!-- Node5&#45;&gt;Node6 -->
<g id="edge255_Node000005_Node000006" class="edge">
<title>Node5&#45;&gt;Node6</title>
<g id="a_edge255_Node000005_Node000006"><a xlink:title=" ">
<path fill="none" stroke="#63b8ff" d="M398.92,-294.4C408.56,-296.74 418.6,-299.19 428,-301.5 444.01,-305.44 447.99,-306.55 464,-310.5 475.17,-313.25 487.29,-316.22 498.43,-318.92"/>
<polygon fill="#63b8ff" stroke="#63b8ff" points="399.59,-290.96 389.05,-292.01 397.94,-297.77 399.59,-290.96"/>
</a>
</g>
</g>
<!-- Node20 -->
<g id="Node000020" class="node">
<title>Node20</title>
<g id="a_Node000020"><a xlink:href="class_kit_1_1_io_1_1_i_close.html" target="_top" xlink:title="This abstract class defines a close operation that is intended to be used Input and Output streams/fi...">
<polygon fill="white" stroke="#666666" points="81,-218 0,-218 0,-199 81,-199 81,-218"/>
<text text-anchor="middle" x="40.5" y="-206" font-family="Helvetica,sans-Serif" font-size="10.00">Kit::Io::IClose</text>
</a>
</g>
</g>
<!-- Node16 -->
<g id="Node000016" class="node">
<title>Node16</title>
<g id="a_Node000016"><a xlink:href="class_kit_1_1_io_1_1_i_input.html" target="_top" xlink:title="This partially abstract class defines a interface for operating on an input stream (example of a stre...">
<polygon fill="white" stroke="#666666" points="214.5,-255 135.5,-255 135.5,-236 214.5,-236 214.5,-255"/>
<text text-anchor="middle" x="175" y="-243" font-family="Helvetica,sans-Serif" font-size="10.00">Kit::Io::IInput</text>
</a>
</g>
</g>
<!-- Node20&#45;&gt;Node16 -->
<g id="edge256_Node000020_Node000016" class="edge">
<title>Node20&#45;&gt;Node16</title>
<g id="a_edge256_Node000020_Node000016"><a xlink:title=" ">
<path fill="none" stroke="#63b8ff" d="M85.64,-220.83C103.19,-225.73 123.08,-231.28 139.53,-235.88"/>
<polygon fill="#63b8ff" stroke="#63b8ff" points="86.19,-217.35 75.62,-218.03 84.31,-224.09 86.19,-217.35"/>
</a>
</g>
</g>
<!-- Node7 -->
<g id="Node000007" class="node">
<title>Node7</title>
<g id="a_Node000007"><a xlink:href="class_kit_1_1_io_1_1_i_output.html" target="_top" xlink:title="This partially abstract class defines a interface for operating on an output stream (example of a str...">
<polygon fill="white" stroke="#666666" points="218.5,-218 131.5,-218 131.5,-199 218.5,-199 218.5,-218"/>
<text text-anchor="middle" x="175" y="-206" font-family="Helvetica,sans-Serif" font-size="10.00">Kit::Io::IOutput</text>
</a>
</g>
</g>
<!-- Node20&#45;&gt;Node7 -->
<g id="edge269_Node000020_Node000007" class="edge">
<title>Node20&#45;&gt;Node7</title>
<g id="a_edge269_Node000020_Node000007"><a xlink:title=" ">
<path fill="none" stroke="#63b8ff" d="M91.47,-208.5C104.49,-208.5 118.41,-208.5 131.04,-208.5"/>
<polygon fill="#63b8ff" stroke="#63b8ff" points="91.25,-205 81.25,-208.5 91.25,-212 91.25,-205"/>
</a>
</g>
</g>
<!-- Node16&#45;&gt;Node1 -->
<g id="edge257_Node000016_Node000001" class="edge">
<title>Node16&#45;&gt;Node1</title>
<g id="a_edge257_Node000016_Node000001"><a xlink:title=" ">
<path fill="none" stroke="#63b8ff" d="M191.86,-262.44C203.39,-274.82 219.3,-292.07 233,-307.5 249.32,-325.89 248.04,-336.65 269,-349.5 277.61,-354.78 287.58,-358.59 297.48,-361.34"/>
<polygon fill="#63b8ff" stroke="#63b8ff" points="194.37,-259.99 184.99,-255.07 189.25,-264.77 194.37,-259.99"/>
</a>
</g>
</g>
<!-- Node8 -->
<g id="Node000008" class="node">
<title>Node8</title>
<g id="a_Node000008"><a xlink:href="class_kit_1_1_io_1_1_i_input_output.html" target="_top" xlink:title="This abstract class defines a interface for operating on an input&#45;output stream.">
<polygon fill="white" stroke="#666666" points="404.5,-218 292.5,-218 292.5,-199 404.5,-199 404.5,-218"/>
<text text-anchor="middle" x="348.5" y="-206" font-family="Helvetica,sans-Serif" font-size="10.00">Kit::Io::IInputOutput</text>
</a>
</g>
</g>
<!-- Node16&#45;&gt;Node8 -->
<g id="edge258_Node000016_Node000008" class="edge">
<title>Node16&#45;&gt;Node8</title>
<g id="a_edge258_Node000016_Node000008"><a xlink:title=" ">
<path fill="none" stroke="#63b8ff" d="M224.81,-234.97C249.51,-229.64 279.27,-223.22 303.3,-218.04"/>
<polygon fill="#63b8ff" stroke="#63b8ff" points="223.95,-231.57 214.92,-237.1 225.43,-238.42 223.95,-231.57"/>
</a>
</g>
</g>
<!-- Node17 -->
<g id="Node000017" class="node">
<title>Node17</title>
<g id="a_Node000017"><a xlink:href="class_kit_1_1_io_1_1_serial_1_1_r_pi_1_1_r_p2xxx_1_1_stdio_1_1_input.html" target="_top" xlink:title="This concrete class implements a Input stream using Raspberry Pi RP2xxx&#39;s SDK.">
<polygon fill="white" stroke="#666666" points="409,-340.5 288,-340.5 288,-310.5 409,-310.5 409,-340.5"/>
<text text-anchor="start" x="296" y="-328.5" font-family="Helvetica,sans-Serif" font-size="10.00">Kit::Io::Serial::RPi</text>
<text text-anchor="middle" x="348.5" y="-317.5" font-family="Helvetica,sans-Serif" font-size="10.00">::RP2xxx::Stdio::Input</text>
</a>
</g>
</g>
<!-- Node16&#45;&gt;Node17 -->
<g id="edge266_Node000016_Node000017" class="edge">
<title>Node16&#45;&gt;Node17</title>
<g id="a_edge266_Node000016_Node000017"><a xlink:title=" ">
<path fill="none" stroke="#63b8ff" d="M198.09,-260.93C216.42,-273.2 243.52,-290.14 269,-301.5 276.29,-304.75 284.15,-307.73 291.97,-310.39"/>
<polygon fill="#63b8ff" stroke="#63b8ff" points="199.84,-257.88 189.6,-255.16 195.9,-263.67 199.84,-257.88"/>
</a>
</g>
</g>
<!-- Node18 -->
<g id="Node000018" class="node">
<title>Node18</title>
<g id="a_Node000018"><a xlink:href="class_kit_1_1_io_1_1_stdio_1_1_input_delegate.html" target="_top" xlink:title="This concrete class implements a Input stream using the underlying platform&#39;s native OS interface for...">
<polygon fill="white" stroke="#666666" points="424,-255 273,-255 273,-236 424,-236 424,-255"/>
<text text-anchor="middle" x="348.5" y="-243" font-family="Helvetica,sans-Serif" font-size="10.00">Kit::Io::Stdio::InputDelegate</text>
</a>
</g>
</g>
<!-- Node16&#45;&gt;Node18 -->
<g id="edge267_Node000016_Node000018" class="edge">
<title>Node16&#45;&gt;Node18</title>
<g id="a_edge267_Node000016_Node000018"><a xlink:title=" ">
<path fill="none" stroke="#63b8ff" d="M224.94,-245.5C239.89,-245.5 256.68,-245.5 272.93,-245.5"/>
<polygon fill="#63b8ff" stroke="#63b8ff" points="224.92,-242 214.92,-245.5 224.92,-249 224.92,-242"/>
</a>
</g>
</g>
<!-- Node9 -->
<g id="Node000009" class="node">
<title>Node9</title>
<g id="a_Node000009"><a xlink:href="class_kit_1_1_io_1_1_null.html" target="_top" xlink:title="This concrete class implements a NULL InputOutput stream &#45; that all of its input operations return &#39;E...">
<polygon fill="white" stroke="#666666" points="574.5,-93 503.5,-93 503.5,-74 574.5,-74 574.5,-93"/>
<text text-anchor="middle" x="539" y="-81" font-family="Helvetica,sans-Serif" font-size="10.00">Kit::Io::Null</text>
</a>
</g>
</g>
<!-- Node8&#45;&gt;Node9 -->
<g id="edge259_Node000008_Node000009" class="edge">
<title>Node8&#45;&gt;Node9</title>
<g id="a_edge259_Node000008_Node000009"><a xlink:title=" ">
<path fill="none" stroke="#63b8ff" d="M413.98,-199.3C419.04,-196.96 423.8,-194.06 428,-190.5 460.21,-163.15 432.14,-130.27 464,-102.5 474.8,-93.09 489.66,-88.24 503.23,-85.77"/>
<polygon fill="#63b8ff" stroke="#63b8ff" points="412.67,-196.06 404.63,-202.96 415.22,-202.58 412.67,-196.06"/>
</a>
</g>
</g>
<!-- Node10 -->
<g id="Node000010" class="node">
<title>Node10</title>
<g id="a_Node000010"><a xlink:href="class_kit_1_1_io_1_1_ram_1_1_input_output.html" target="_top" xlink:title="This concrete class implements an InputOutput stream using a Ring Buffer.">
<polygon fill="white" stroke="#666666" points="607.5,-264 470.5,-264 470.5,-245 607.5,-245 607.5,-264"/>
<text text-anchor="middle" x="539" y="-252" font-family="Helvetica,sans-Serif" font-size="10.00">Kit::Io::Ram::InputOutput</text>
</a>
</g>
</g>
<!-- Node8&#45;&gt;Node10 -->
<g id="edge260_Node000008_Node000010" class="edge">
<title>Node8&#45;&gt;Node10</title>
<g id="a_edge260_Node000008_Node000010"><a xlink:title=" ">
<path fill="none" stroke="#63b8ff" d="M398.91,-220.43C408.56,-222.77 418.6,-225.21 428,-227.5 451.69,-233.27 478.24,-239.79 499.32,-244.97"/>
<polygon fill="#63b8ff" stroke="#63b8ff" points="399.58,-216.99 389.04,-218.04 397.93,-223.8 399.58,-216.99"/>
</a>
</g>
</g>
<!-- Node12 -->
<g id="Node000012" class="node">
<title>Node12</title>
<g id="a_Node000012"><a xlink:href="class_kit_1_1_io_1_1_serial_1_1_r_pi_1_1_r_p2xxx_1_1_uart_1_1_input_output.html" target="_top" xlink:title="This concrete class implements a Input/Output stream using Raspberry Pi UART interface/hardware.">
<polygon fill="white" stroke="#666666" points="614,-226.5 464,-226.5 464,-196.5 614,-196.5 614,-226.5"/>
<text text-anchor="start" x="472" y="-214.5" font-family="Helvetica,sans-Serif" font-size="10.00">Kit::Io::Serial::RPi</text>
<text text-anchor="middle" x="539" y="-203.5" font-family="Helvetica,sans-Serif" font-size="10.00">::RP2xxx::Uart::InputOutput</text>
</a>
</g>
</g>
<!-- Node8&#45;&gt;Node12 -->
<g id="edge262_Node000008_Node000012" class="edge">
<title>Node8&#45;&gt;Node12</title>
<g id="a_edge262_Node000008_Node000012"><a xlink:title=" ">
<path fill="none" stroke="#63b8ff" d="M414.76,-209.54C430.64,-209.79 447.73,-210.06 463.98,-210.32"/>
<polygon fill="#63b8ff" stroke="#63b8ff" points="414.58,-206.04 404.53,-209.38 414.47,-213.03 414.58,-206.04"/>
</a>
</g>
</g>
<!-- Node13 -->
<g id="Node000013" class="node">
<title>Node13</title>
<g id="a_Node000013"><a xlink:href="class_kit_1_1_io_1_1_serial_1_1_s_t_1_1_m32_f4_1_1_input_output.html" target="_top" xlink:title="This concrete class implements the InputOutput stream interface built on top of ST HAL Layer/SDK.">
<polygon fill="white" stroke="#666666" points="598.5,-178.5 479.5,-178.5 479.5,-148.5 598.5,-148.5 598.5,-178.5"/>
<text text-anchor="start" x="487.5" y="-166.5" font-family="Helvetica,sans-Serif" font-size="10.00">Kit::Io::Serial::ST</text>
<text text-anchor="middle" x="539" y="-155.5" font-family="Helvetica,sans-Serif" font-size="10.00">::M32F4::InputOutput</text>
</a>
</g>
</g>
<!-- Node8&#45;&gt;Node13 -->
<g id="edge263_Node000008_Node000013" class="edge">
<title>Node8&#45;&gt;Node13</title>
<g id="a_edge263_Node000008_Node000013"><a xlink:title=" ">
<path fill="none" stroke="#63b8ff" d="M401.37,-196.72C410.26,-194.67 419.4,-192.54 428,-190.5 444.65,-186.55 462.68,-182.17 479.24,-178.1"/>
<polygon fill="#63b8ff" stroke="#63b8ff" points="400.45,-193.34 391.49,-199 402.02,-200.17 400.45,-193.34"/>
</a>
</g>
</g>
<!-- Node14 -->
<g id="Node000014" class="node">
<title>Node14</title>
<g id="a_Node000014"><a xlink:href="class_kit_1_1_io_1_1_socket_1_1_i_input_output.html" target="_top" xlink:title="This abstract class defines the interface for a BSD socket.">
<polygon fill="white" stroke="#666666" points="614,-130 464,-130 464,-111 614,-111 614,-130"/>
<text text-anchor="middle" x="539" y="-118" font-family="Helvetica,sans-Serif" font-size="10.00">Kit::Io::Socket::IInputOutput</text>
</a>
</g>
</g>
<!-- Node8&#45;&gt;Node14 -->
<g id="edge264_Node000008_Node000014" class="edge">
<title>Node8&#45;&gt;Node14</title>
<g id="a_edge264_Node000008_Node000014"><a xlink:title=" ">
<path fill="none" stroke="#63b8ff" d="M414.29,-197.77C419.12,-195.75 423.75,-193.35 428,-190.5 451.04,-175.05 441.16,-155.25 464,-139.5 469.68,-135.58 476.1,-132.48 482.74,-130.01"/>
<polygon fill="#63b8ff" stroke="#63b8ff" points="413.03,-194.51 404.83,-201.22 415.43,-201.09 413.03,-194.51"/>
</a>
</g>
</g>
<!-- Node11 -->
<g id="Node000011" class="node">
<title>Node11</title>
<g id="a_Node000011"><a xlink:href="class_kit_1_1_io_1_1_ram_1_1_input_output_allocate.html" target="_top" xlink:title="This concrete template convenience class extends the RAM InputOutput class to include allocating the ...">
<polygon fill="white" stroke="#666666" points="792.5,-269.5 654.5,-269.5 654.5,-239.5 792.5,-239.5 792.5,-269.5"/>
<text text-anchor="start" x="662.5" y="-257.5" font-family="Helvetica,sans-Serif" font-size="10.00">Kit::Io::Ram::InputOutput</text>
<text text-anchor="middle" x="723.5" y="-246.5" font-family="Helvetica,sans-Serif" font-size="10.00">Allocate&lt; NUM_BYTES &gt;</text>
</a>
</g>
</g>
<!-- Node10&#45;&gt;Node11 -->
<g id="edge261_Node000010_Node000011" class="edge">
<title>Node10&#45;&gt;Node11</title>
<g id="a_edge261_Node000010_Node000011"><a xlink:title=" ">
<path fill="none" stroke="#63b8ff" d="M617.8,-254.5C629.94,-254.5 642.4,-254.5 654.3,-254.5"/>
<polygon fill="#63b8ff" stroke="#63b8ff" points="617.7,-251 607.7,-254.5 617.7,-258 617.7,-251"/>
</a>
</g>
</g>
<!-- Node15 -->
<g id="Node000015" class="node">
<title>Node15</title>
<g id="a_Node000015"><a xlink:href="class_kit_1_1_io_1_1_socket_1_1_input_output.html" target="_top" xlink:title="This concrete class provides a platform independent &#39;standard&#39; implementation of an InputOutput strea...">
<polygon fill="white" stroke="#666666" points="797,-130 650,-130 650,-111 797,-111 797,-130"/>
<text text-anchor="middle" x="723.5" y="-118" font-family="Helvetica,sans-Serif" font-size="10.00">Kit::Io::Socket::InputOutput</text>
</a>
</g>
</g>
<!-- Node14&#45;&gt;Node15 -->
<g id="edge265_Node000014_Node000015" class="edge">
<title>Node14&#45;&gt;Node15</title>
<g id="a_edge265_Node000014_Node000015"><a xlink:title=" ">
<path fill="none" stroke="#63b8ff" d="M624.49,-120.5C632.95,-120.5 641.49,-120.5 649.81,-120.5"/>
<polygon fill="#63b8ff" stroke="#63b8ff" points="624.23,-117 614.23,-120.5 624.23,-124 624.23,-117"/>
</a>
</g>
</g>
<!-- Node19 -->
<g id="Node000019" class="node">
<title>Node19</title>
<g id="a_Node000019"><a xlink:href="class_kit_1_1_io_1_1_stdio_1_1_std_in.html" target="_top" xlink:title="This concrete class represents the C&#45;library &#39;stdin&#39; stream.">
<polygon fill="white" stroke="#666666" points="592.5,-301 485.5,-301 485.5,-282 592.5,-282 592.5,-301"/>
<text text-anchor="middle" x="539" y="-289" font-family="Helvetica,sans-Serif" font-size="10.00">Kit::Io::Stdio::StdIn</text>
</a>
</g>
</g>
<!-- Node18&#45;&gt;Node19 -->
<g id="edge268_Node000018_Node000019" class="edge">
<title>Node18&#45;&gt;Node19</title>
<g id="a_edge268_Node000018_Node000019"><a xlink:title=" ">
<path fill="none" stroke="#63b8ff" d="M398.92,-257.4C408.56,-259.74 418.6,-262.19 428,-264.5 444.01,-268.44 447.99,-269.55 464,-273.5 475.17,-276.25 487.29,-279.22 498.43,-281.92"/>
<polygon fill="#63b8ff" stroke="#63b8ff" points="399.59,-253.96 389.05,-255.01 397.94,-260.77 399.59,-253.96"/>
</a>
</g>
</g>
<!-- Node7&#45;&gt;Node5 -->
<g id="edge270_Node000007_Node000005" class="edge">
<title>Node7&#45;&gt;Node5</title>
<g id="a_edge270_Node000007_Node000005"><a xlink:title=" ">
<path fill="none" stroke="#63b8ff" d="M222.85,-222.04C226.38,-223.68 229.81,-225.5 233,-227.5 252.43,-239.7 249,-253.25 269,-264.5 276.43,-268.68 284.78,-271.89 293.19,-274.36"/>
<polygon fill="#63b8ff" stroke="#63b8ff" points="223.93,-218.7 213.35,-218.09 221.24,-225.16 223.93,-218.7"/>
</a>
</g>
</g>
<!-- Node7&#45;&gt;Node8 -->
<g id="edge271_Node000007_Node000008" class="edge">
<title>Node7&#45;&gt;Node8</title>
<g id="a_edge271_Node000007_Node000008"><a xlink:title=" ">
<path fill="none" stroke="#63b8ff" d="M229.04,-208.5C249.11,-208.5 272,-208.5 292.26,-208.5"/>
<polygon fill="#63b8ff" stroke="#63b8ff" points="228.83,-205 218.83,-208.5 228.83,-212 228.83,-205"/>
</a>
</g>
</g>
<!-- Node22 -->
<g id="Node000022" class="node">
<title>Node22</title>
<g id="a_Node000022"><a xlink:href="class_kit_1_1_io_1_1_serial_1_1_r_pi_1_1_r_p2xxx_1_1_stdio_1_1_output.html" target="_top" xlink:title="This concrete class implements a Output stream using Raspberry Pi RP2xxx&#39;s SDK.">
<polygon fill="white" stroke="#666666" points="413,-106.5 284,-106.5 284,-76.5 413,-76.5 413,-106.5"/>
<text text-anchor="start" x="292" y="-94.5" font-family="Helvetica,sans-Serif" font-size="10.00">Kit::Io::Serial::RPi</text>
<text text-anchor="middle" x="348.5" y="-83.5" font-family="Helvetica,sans-Serif" font-size="10.00">::RP2xxx::Stdio::Output</text>
</a>
</g>
</g>
<!-- Node7&#45;&gt;Node22 -->
<g id="edge272_Node000007_Node000022" class="edge">
<title>Node7&#45;&gt;Node22</title>
<g id="a_edge272_Node000007_Node000022"><a xlink:title=" ">
<path fill="none" stroke="#63b8ff" d="M189.32,-191C205.88,-170.4 236.02,-136.46 269,-116.5 275.24,-112.72 282.11,-109.46 289.11,-106.65"/>
<polygon fill="#63b8ff" stroke="#63b8ff" points="186.52,-188.91 183.09,-198.94 192.02,-193.24 186.52,-188.91"/>
</a>
</g>
</g>
<!-- Node23 -->
<g id="Node000023" class="node">
<title>Node23</title>
<g id="a_Node000023"><a xlink:href="class_kit_1_1_io_1_1_stdio_1_1_output_delegate.html" target="_top" xlink:title="This concrete class implements a Output stream using the underlying platform&#39;s native OS interface&#39;s ...">
<polygon fill="white" stroke="#666666" points="428,-181 269,-181 269,-162 428,-162 428,-181"/>
<text text-anchor="middle" x="348.5" y="-169" font-family="Helvetica,sans-Serif" font-size="10.00">Kit::Io::Stdio::OutputDelegate</text>
</a>
</g>
</g>
<!-- Node7&#45;&gt;Node23 -->
<g id="edge273_Node000007_Node000023" class="edge">
<title>Node7&#45;&gt;Node23</title>
<g id="a_edge273_Node000007_Node000023"><a xlink:title=" ">
<path fill="none" stroke="#63b8ff" d="M228.81,-197.11C252.72,-191.95 280.66,-185.92 303.42,-181.01"/>
<polygon fill="#63b8ff" stroke="#63b8ff" points="227.87,-193.73 218.83,-199.26 229.35,-200.57 227.87,-193.73"/>
</a>
</g>
</g>
<!-- Node26 -->
<g id="Node000026" class="node">
<title>Node26</title>
<g id="a_Node000026"><a xlink:href="class_kit_1_1_io_1_1_tee_output.html" target="_top" xlink:title="This concrete class implements a IOutput stream that outputs the data to multiple (up to 4) output st...">
<polygon fill="white" stroke="#666666" points="399,-144 298,-144 298,-125 399,-125 399,-144"/>
<text text-anchor="middle" x="348.5" y="-132" font-family="Helvetica,sans-Serif" font-size="10.00">Kit::Io::TeeOutput</text>
</a>
</g>
</g>
<!-- Node7&#45;&gt;Node26 -->
<g id="edge276_Node000007_Node000026" class="edge">
<title>Node7&#45;&gt;Node26</title>
<g id="a_edge276_Node000007_Node000026"><a xlink:title=" ">
<path fill="none" stroke="#63b8ff" d="M197.64,-193.18C215.9,-180.89 243.13,-164.01 269,-153.5 278.22,-149.75 288.37,-146.62 298.22,-144.06"/>
<polygon fill="#63b8ff" stroke="#63b8ff" points="195.47,-190.42 189.2,-198.97 199.43,-196.2 195.47,-190.42"/>
</a>
</g>
</g>
<!-- Node24 -->
<g id="Node000024" class="node">
<title>Node24</title>
<g id="a_Node000024"><a xlink:href="class_kit_1_1_io_1_1_stdio_1_1_std_err.html" target="_top" xlink:title="This concrete class represents the C&#45;library &#39;stderr&#39; stream.">
<polygon fill="white" stroke="#666666" points="594.5,-56 483.5,-56 483.5,-37 594.5,-37 594.5,-56"/>
<text text-anchor="middle" x="539" y="-44" font-family="Helvetica,sans-Serif" font-size="10.00">Kit::Io::Stdio::StdErr</text>
</a>
</g>
</g>
<!-- Node23&#45;&gt;Node24 -->
<g id="edge274_Node000023_Node000024" class="edge">
<title>Node23&#45;&gt;Node24</title>
<g id="a_edge274_Node000023_Node000024"><a xlink:title=" ">
<path fill="none" stroke="#63b8ff" d="M423.77,-156.75C425.23,-155.73 426.64,-154.65 428,-153.5 460.21,-126.15 432.14,-93.27 464,-65.5 469.6,-60.62 476.29,-56.97 483.33,-54.23"/>
<polygon fill="#63b8ff" stroke="#63b8ff" points="421.8,-153.84 414.9,-161.87 425.31,-159.9 421.8,-153.84"/>
</a>
</g>
</g>
<!-- Node25 -->
<g id="Node000025" class="node">
<title>Node25</title>
<g id="a_Node000025"><a xlink:href="class_kit_1_1_io_1_1_stdio_1_1_std_out.html" target="_top" xlink:title="This concrete class represents the C&#45;library &#39;stdout&#39; stream.">
<polygon fill="white" stroke="#666666" points="596.5,-19 481.5,-19 481.5,0 596.5,0 596.5,-19"/>
<text text-anchor="middle" x="539" y="-7" font-family="Helvetica,sans-Serif" font-size="10.00">Kit::Io::Stdio::StdOut</text>
</a>
</g>
</g>
<!-- Node23&#45;&gt;Node25 -->
<g id="edge275_Node000023_Node000025" class="edge">
<title>Node23&#45;&gt;Node25</title>
<g id="a_edge275_Node000023_Node000025"><a xlink:title=" ">
<path fill="none" stroke="#63b8ff" d="M424.53,-156.49C425.73,-155.55 426.89,-154.55 428,-153.5 470.26,-113.42 422.01,-67.86 464,-27.5 468.96,-22.74 474.95,-19.16 481.36,-16.5"/>
<polygon fill="#63b8ff" stroke="#63b8ff" points="422.57,-153.59 416.06,-161.95 426.36,-159.47 422.57,-153.59"/>
</a>
</g>
</g>
<!-- Node21 -->
<g id="Node000021" class="node">
<title>Node21</title>
<g id="a_Node000021"><a xlink:href="class_kit_1_1_io_1_1_i_eos.html" target="_top" xlink:title="This abstract class defines a isEos() operation that is intended to be used Input and Output streams.">
<polygon fill="white" stroke="#666666" points="76,-255 5,-255 5,-236 76,-236 76,-255"/>
<text text-anchor="middle" x="40.5" y="-243" font-family="Helvetica,sans-Serif" font-size="10.00">Kit::Io::IEos</text>
</a>
</g>
</g>
<!-- Node21&#45;&gt;Node16 -->
<g id="edge277_Node000021_Node000016" class="edge">
<title>Node21&#45;&gt;Node16</title>
<g id="a_edge277_Node000021_Node000016"><a xlink:title=" ">
<path fill="none" stroke="#63b8ff" d="M86.42,-245.5C102.26,-245.5 119.93,-245.5 135.22,-245.5"/>
<polygon fill="#63b8ff" stroke="#63b8ff" points="86.31,-242 76.31,-245.5 86.31,-249 86.31,-242"/>
</a>
</g>
</g>
<!-- Node21&#45;&gt;Node7 -->
<g id="edge278_Node000021_Node000007" class="edge">
<title>Node21&#45;&gt;Node7</title>
<g id="a_edge278_Node000021_Node000007"><a xlink:title=" ">
<path fill="none" stroke="#63b8ff" d="M85.64,-233.17C103.19,-228.27 123.08,-222.72 139.53,-218.12"/>
<polygon fill="#63b8ff" stroke="#63b8ff" points="84.31,-229.91 75.62,-235.97 86.19,-236.65 84.31,-229.91"/>
</a>
</g>
</g>
</g>
</svg>
