<?xml version="1.0" encoding="UTF-8" standalone="no"?>
<!DOCTYPE svg PUBLIC "-//W3C//DTD SVG 1.1//EN"
 "http://www.w3.org/Graphics/SVG/1.1/DTD/svg11.dtd">
<!-- Generated by graphviz version 2.43.0 (0)
 -->
<!-- Title: Kit/System/printfchecker.h Pages: 1 -->
<svg width="1620pt" height="302pt"
 viewBox="0.00 0.00 1620.00 302.00" xmlns="http://www.w3.org/2000/svg" xmlns:xlink="http://www.w3.org/1999/xlink">
<g id="graph0" class="graph" transform="scale(1 1) rotate(0) translate(4 298)">
<title>Kit/System/printfchecker.h</title>
<!-- Node1 -->
<g id="Node000001" class="node">
<title>Node1</title>
<g id="a_Node000001"><a xlink:title="This file contains macro that enables the GCC (and Clang) compiler to validate printf flags with thei...">
<polygon fill="#999999" stroke="#666666" points="553.5,-294 408.5,-294 408.5,-275 553.5,-275 553.5,-294"/>
<text text-anchor="middle" x="481" y="-282" font-family="Helvetica,sans-Serif" font-size="10.00">Kit/System/printfchecker.h</text>
</a>
</g>
</g>
<!-- Node2 -->
<g id="Node000002" class="node">
<title>Node2</title>
<g id="a_Node000002"><a xlink:href="_i_line_writer_8h.html" target="_top" xlink:title=" ">
<polygon fill="white" stroke="#666666" points="344.5,-184 237.5,-184 237.5,-165 344.5,-165 344.5,-184"/>
<text text-anchor="middle" x="291" y="-172" font-family="Helvetica,sans-Serif" font-size="10.00">Kit/Io/ILineWriter.h</text>
</a>
</g>
</g>
<!-- Node1&#45;&gt;Node2 -->
<g id="edge1_Node000001_Node000002" class="edge">
<title>Node1&#45;&gt;Node2</title>
<g id="a_edge1_Node000001_Node000002"><a xlink:title=" ">
<path fill="none" stroke="#63b8ff" d="M457,-269.86C417.25,-247.26 338.88,-202.71 306.04,-184.05"/>
<polygon fill="#63b8ff" stroke="#63b8ff" points="455.35,-272.95 465.77,-274.84 458.81,-266.86 455.35,-272.95"/>
</a>
</g>
</g>
<!-- Node4 -->
<g id="Node000004" class="node">
<title>Node4</title>
<g id="a_Node000004"><a xlink:href="_i_output_8h.html" target="_top" xlink:title=" ">
<polygon fill="white" stroke="#666666" points="453,-184 363,-184 363,-165 453,-165 453,-184"/>
<text text-anchor="middle" x="408" y="-172" font-family="Helvetica,sans-Serif" font-size="10.00">Kit/Io/IOutput.h</text>
</a>
</g>
</g>
<!-- Node1&#45;&gt;Node4 -->
<g id="edge3_Node000001_Node000004" class="edge">
<title>Node1&#45;&gt;Node4</title>
<g id="a_edge3_Node000001_Node000004"><a xlink:title=" ">
<path fill="none" stroke="#63b8ff" d="M469.22,-266.07C453.38,-242.64 425.84,-201.89 413.85,-184.16"/>
<polygon fill="#63b8ff" stroke="#63b8ff" points="466.53,-268.34 475.03,-274.66 472.33,-264.42 466.53,-268.34"/>
</a>
</g>
</g>
<!-- Node11 -->
<g id="Node000011" class="node">
<title>Node11</title>
<g id="a_Node000011"><a xlink:href="_trace_8h.html" target="_top" xlink:title="This file provides an interface for a &#39;printf&#39; tracing mechanism.">
<polygon fill="white" stroke="#666666" points="528.5,-129 421.5,-129 421.5,-110 528.5,-110 528.5,-129"/>
<text text-anchor="middle" x="475" y="-117" font-family="Helvetica,sans-Serif" font-size="10.00">Kit/System/Trace.h</text>
</a>
</g>
</g>
<!-- Node1&#45;&gt;Node11 -->
<g id="edge16_Node000001_Node000011" class="edge">
<title>Node1&#45;&gt;Node11</title>
<g id="a_edge16_Node000001_Node000011"><a xlink:title=" ">
<path fill="none" stroke="#63b8ff" d="M480.3,-264.37C478.99,-229.03 476.26,-154.79 475.32,-129.31"/>
<polygon fill="#63b8ff" stroke="#63b8ff" points="476.81,-264.87 480.68,-274.74 483.81,-264.61 476.81,-264.87"/>
</a>
</g>
</g>
<!-- Node13 -->
<g id="Node000013" class="node">
<title>Node13</title>
<g id="a_Node000013"><a xlink:href="_fatal_error_8h.html" target="_top" xlink:title=" ">
<polygon fill="white" stroke="#666666" points="1414,-239 1286,-239 1286,-220 1414,-220 1414,-239"/>
<text text-anchor="middle" x="1350" y="-227" font-family="Helvetica,sans-Serif" font-size="10.00">Kit/System/FatalError.h</text>
</a>
</g>
</g>
<!-- Node1&#45;&gt;Node13 -->
<g id="edge13_Node000001_Node000013" class="edge">
<title>Node1&#45;&gt;Node13</title>
<g id="a_edge13_Node000001_Node000013"><a xlink:title=" ">
<path fill="none" stroke="#63b8ff" d="M563.63,-278.46C736.06,-267.94 1131.02,-243.86 1285.95,-234.41"/>
<polygon fill="#63b8ff" stroke="#63b8ff" points="563.36,-274.97 553.6,-279.07 563.79,-281.96 563.36,-274.97"/>
</a>
</g>
</g>
<!-- Node16 -->
<g id="Node000016" class="node">
<title>Node16</title>
<g id="a_Node000016"><a xlink:href="_i_string_8h.html" target="_top" xlink:title=" ">
<polygon fill="white" stroke="#666666" points="651.5,-239 554.5,-239 554.5,-220 651.5,-220 651.5,-239"/>
<text text-anchor="middle" x="603" y="-227" font-family="Helvetica,sans-Serif" font-size="10.00">Kit/Text/IString.h</text>
</a>
</g>
</g>
<!-- Node1&#45;&gt;Node16 -->
<g id="edge17_Node000001_Node000016" class="edge">
<title>Node1&#45;&gt;Node16</title>
<g id="a_edge17_Node000001_Node000016"><a xlink:title=" ">
<path fill="none" stroke="#63b8ff" d="M510.01,-270.9C532.54,-261.11 563.2,-247.79 583.04,-239.17"/>
<polygon fill="#63b8ff" stroke="#63b8ff" points="508.38,-267.79 500.6,-274.98 511.17,-274.21 508.38,-267.79"/>
</a>
</g>
</g>
<!-- Node3 -->
<g id="Node000003" class="node">
<title>Node3</title>
<g id="a_Node000003"><a xlink:href="_line_writer_8h.html" target="_top" xlink:title=" ">
<polygon fill="white" stroke="#666666" points="104,-129 0,-129 0,-110 104,-110 104,-129"/>
<text text-anchor="middle" x="52" y="-117" font-family="Helvetica,sans-Serif" font-size="10.00">Kit/Io/LineWriter.h</text>
</a>
</g>
</g>
<!-- Node2&#45;&gt;Node3 -->
<g id="edge2_Node000002_Node000003" class="edge">
<title>Node2&#45;&gt;Node3</title>
<g id="a_edge2_Node000002_Node000003"><a xlink:title=" ">
<path fill="none" stroke="#63b8ff" d="M242.82,-162.82C198.03,-152.88 132.16,-138.28 90.7,-129.08"/>
<polygon fill="#63b8ff" stroke="#63b8ff" points="242.08,-166.24 252.6,-164.98 243.6,-159.4 242.08,-166.24"/>
</a>
</g>
</g>
<!-- Node4&#45;&gt;Node3 -->
<g id="edge6_Node000004_Node000003" class="edge">
<title>Node4&#45;&gt;Node3</title>
<g id="a_edge6_Node000004_Node000003"><a xlink:title=" ">
<path fill="none" stroke="#63b8ff" d="M353.3,-165.05C353.2,-165.03 353.1,-165.02 353,-165 265.77,-151.81 164.26,-136.89 104.22,-128.11"/>
<polygon fill="#63b8ff" stroke="#63b8ff" points="352.57,-168.47 362.98,-166.52 353.62,-161.55 352.57,-168.47"/>
</a>
</g>
</g>
<!-- Node5 -->
<g id="Node000005" class="node">
<title>Node5</title>
<g id="a_Node000005"><a xlink:href="_i_input_output_8h.html" target="_top" xlink:title=" ">
<polygon fill="white" stroke="#666666" points="1095.5,-129 980.5,-129 980.5,-110 1095.5,-110 1095.5,-129"/>
<text text-anchor="middle" x="1038" y="-117" font-family="Helvetica,sans-Serif" font-size="10.00">Kit/Io/IInputOutput.h</text>
</a>
</g>
</g>
<!-- Node4&#45;&gt;Node5 -->
<g id="edge4_Node000004_Node000005" class="edge">
<title>Node4&#45;&gt;Node5</title>
<g id="a_edge4_Node000004_Node000005"><a xlink:title=" ">
<path fill="none" stroke="#63b8ff" d="M463.59,-169.98C564.71,-163.39 785.43,-148.09 971,-129 974.03,-128.69 977.14,-128.35 980.28,-128"/>
<polygon fill="#63b8ff" stroke="#63b8ff" points="463.06,-166.51 453.31,-170.65 463.52,-173.49 463.06,-166.51"/>
</a>
</g>
</g>
<!-- Node7 -->
<g id="Node000007" class="node">
<title>Node7</title>
<g id="a_Node000007"><a xlink:href="_output_delegate_8h.html" target="_top" xlink:title=" ">
<polygon fill="white" stroke="#666666" points="403.5,-129 244.5,-129 244.5,-110 403.5,-110 403.5,-129"/>
<text text-anchor="middle" x="324" y="-117" font-family="Helvetica,sans-Serif" font-size="10.00">Kit/Io/Stdio/OutputDelegate.h</text>
</a>
</g>
</g>
<!-- Node4&#45;&gt;Node7 -->
<g id="edge7_Node000004_Node000007" class="edge">
<title>Node4&#45;&gt;Node7</title>
<g id="a_edge7_Node000004_Node000007"><a xlink:title=" ">
<path fill="none" stroke="#63b8ff" d="M385.69,-159.42C370.45,-149.81 350.73,-137.37 337.74,-129.17"/>
<polygon fill="#63b8ff" stroke="#63b8ff" points="384.18,-162.61 394.5,-164.98 387.91,-156.69 384.18,-162.61"/>
</a>
</g>
</g>
<!-- Node10 -->
<g id="Node000010" class="node">
<title>Node10</title>
<g id="a_Node000010"><a xlink:href="_tee_output_8h.html" target="_top" xlink:title=" ">
<polygon fill="white" stroke="#666666" points="226,-129 122,-129 122,-110 226,-110 226,-129"/>
<text text-anchor="middle" x="174" y="-117" font-family="Helvetica,sans-Serif" font-size="10.00">Kit/Io/TeeOutput.h</text>
</a>
</g>
</g>
<!-- Node4&#45;&gt;Node10 -->
<g id="edge10_Node000004_Node000010" class="edge">
<title>Node4&#45;&gt;Node10</title>
<g id="a_edge10_Node000004_Node000010"><a xlink:title=" ">
<path fill="none" stroke="#63b8ff" d="M360.55,-162.75C316.7,-152.82 252.4,-138.26 211.89,-129.08"/>
<polygon fill="#63b8ff" stroke="#63b8ff" points="359.88,-166.19 370.4,-164.98 361.42,-159.36 359.88,-166.19"/>
</a>
</g>
</g>
<!-- Node4&#45;&gt;Node11 -->
<g id="edge11_Node000004_Node000011" class="edge">
<title>Node4&#45;&gt;Node11</title>
<g id="a_edge11_Node000004_Node000011"><a xlink:title=" ">
<path fill="none" stroke="#63b8ff" d="M426.83,-158.6C438.84,-149.11 453.97,-137.13 464.04,-129.17"/>
<polygon fill="#63b8ff" stroke="#63b8ff" points="424.44,-156.04 418.76,-164.98 428.78,-161.53 424.44,-156.04"/>
</a>
</g>
</g>
<!-- Node6 -->
<g id="Node000006" class="node">
<title>Node6</title>
<g id="a_Node000006"><a xlink:href="_null_8h.html" target="_top" xlink:title=" ">
<polygon fill="white" stroke="#666666" points="1075,-74 1001,-74 1001,-55 1075,-55 1075,-74"/>
<text text-anchor="middle" x="1038" y="-62" font-family="Helvetica,sans-Serif" font-size="10.00">Kit/Io/Null.h</text>
</a>
</g>
</g>
<!-- Node5&#45;&gt;Node6 -->
<g id="edge5_Node000005_Node000006" class="edge">
<title>Node5&#45;&gt;Node6</title>
<g id="a_edge5_Node000005_Node000006"><a xlink:title=" ">
<path fill="none" stroke="#63b8ff" d="M1038,-99.66C1038,-90.93 1038,-80.99 1038,-74.09"/>
<polygon fill="#63b8ff" stroke="#63b8ff" points="1034.5,-99.75 1038,-109.75 1041.5,-99.75 1034.5,-99.75"/>
</a>
</g>
</g>
<!-- Node8 -->
<g id="Node000008" class="node">
<title>Node8</title>
<g id="a_Node000008"><a xlink:href="_std_err_8h.html" target="_top" xlink:title=" ">
<polygon fill="white" stroke="#666666" points="280,-74 170,-74 170,-55 280,-55 280,-74"/>
<text text-anchor="middle" x="225" y="-62" font-family="Helvetica,sans-Serif" font-size="10.00">Kit/Io/Stdio/StdErr.h</text>
</a>
</g>
</g>
<!-- Node7&#45;&gt;Node8 -->
<g id="edge8_Node000007_Node000008" class="edge">
<title>Node7&#45;&gt;Node8</title>
<g id="a_edge8_Node000007_Node000008"><a xlink:title=" ">
<path fill="none" stroke="#63b8ff" d="M299.22,-105.23C281.06,-95.51 256.94,-82.6 241.2,-74.17"/>
<polygon fill="#63b8ff" stroke="#63b8ff" points="297.63,-108.35 308.09,-109.98 300.93,-102.18 297.63,-108.35"/>
</a>
</g>
</g>
<!-- Node9 -->
<g id="Node000009" class="node">
<title>Node9</title>
<g id="a_Node000009"><a xlink:href="_std_out_8h.html" target="_top" xlink:title=" ">
<polygon fill="white" stroke="#666666" points="413.5,-74 298.5,-74 298.5,-55 413.5,-55 413.5,-74"/>
<text text-anchor="middle" x="356" y="-62" font-family="Helvetica,sans-Serif" font-size="10.00">Kit/Io/Stdio/StdOut.h</text>
</a>
</g>
</g>
<!-- Node7&#45;&gt;Node9 -->
<g id="edge9_Node000007_Node000009" class="edge">
<title>Node7&#45;&gt;Node9</title>
<g id="a_edge9_Node000007_Node000009"><a xlink:title=" ">
<path fill="none" stroke="#63b8ff" d="M334.5,-101.1C339.97,-92.04 346.42,-81.37 350.81,-74.09"/>
<polygon fill="#63b8ff" stroke="#63b8ff" points="331.46,-99.38 329.28,-109.75 337.45,-103 331.46,-99.38"/>
</a>
</g>
</g>
<!-- Node12 -->
<g id="Node000012" class="node">
<title>Node12</title>
<g id="a_Node000012"><a xlink:href="_private_8h.html" target="_top" xlink:title="This file contains a collection of classes, interfaces, etc.">
<polygon fill="white" stroke="#666666" points="556,-74 440,-74 440,-55 556,-55 556,-74"/>
<text text-anchor="middle" x="498" y="-62" font-family="Helvetica,sans-Serif" font-size="10.00">Kit/System/Private.h</text>
</a>
</g>
</g>
<!-- Node11&#45;&gt;Node12 -->
<g id="edge12_Node000011_Node000012" class="edge">
<title>Node11&#45;&gt;Node12</title>
<g id="a_edge12_Node000011_Node000012"><a xlink:title=" ">
<path fill="none" stroke="#63b8ff" d="M482.8,-100.53C486.68,-91.6 491.18,-81.22 494.27,-74.09"/>
<polygon fill="#63b8ff" stroke="#63b8ff" points="479.57,-99.18 478.8,-109.75 485.99,-101.97 479.57,-99.18"/>
</a>
</g>
</g>
<!-- Node14 -->
<g id="Node000014" class="node">
<title>Node14</title>
<g id="a_Node000014"><a xlink:href="_posix_2mappings_8h.html" target="_top" xlink:title="This file provides the mappings for Platform specific types, etc.">
<polygon fill="white" stroke="#666666" points="1429.5,-184 1270.5,-184 1270.5,-165 1429.5,-165 1429.5,-184"/>
<text text-anchor="middle" x="1350" y="-172" font-family="Helvetica,sans-Serif" font-size="10.00">Kit/System/Posix/mappings.h</text>
</a>
</g>
</g>
<!-- Node13&#45;&gt;Node14 -->
<g id="edge14_Node000013_Node000014" class="edge">
<title>Node13&#45;&gt;Node14</title>
<g id="a_edge14_Node000013_Node000014"><a xlink:title=" ">
<path fill="none" stroke="#63b8ff" d="M1350,-209.66C1350,-200.93 1350,-190.99 1350,-184.09"/>
<polygon fill="#63b8ff" stroke="#63b8ff" points="1346.5,-209.75 1350,-219.75 1353.5,-209.75 1346.5,-209.75"/>
</a>
</g>
</g>
<!-- Node15 -->
<g id="Node000015" class="node">
<title>Node15</title>
<g id="a_Node000015"><a xlink:href="_win32_2mappings_8h.html" target="_top" xlink:title="This file provides the mappings for Platform specific types, etc.">
<polygon fill="white" stroke="#666666" points="1612,-184 1448,-184 1448,-165 1612,-165 1612,-184"/>
<text text-anchor="middle" x="1530" y="-172" font-family="Helvetica,sans-Serif" font-size="10.00">Kit/System/Win32/mappings.h</text>
</a>
</g>
</g>
<!-- Node13&#45;&gt;Node15 -->
<g id="edge15_Node000013_Node000015" class="edge">
<title>Node13&#45;&gt;Node15</title>
<g id="a_edge15_Node000013_Node000015"><a xlink:title=" ">
<path fill="none" stroke="#63b8ff" d="M1388.87,-217.06C1422.51,-207.15 1470.42,-193.04 1500.85,-184.08"/>
<polygon fill="#63b8ff" stroke="#63b8ff" points="1387.52,-213.8 1378.92,-219.98 1389.5,-220.52 1387.52,-213.8"/>
</a>
</g>
</g>
<!-- Node16&#45;&gt;Node2 -->
<g id="edge25_Node000016_Node000002" class="edge">
<title>Node16&#45;&gt;Node2</title>
<g id="a_edge25_Node000016_Node000002"><a xlink:title=" ">
<path fill="none" stroke="#63b8ff" d="M544.04,-218.48C485.44,-208.53 396.54,-193.43 341.21,-184.03"/>
<polygon fill="#63b8ff" stroke="#63b8ff" points="543.81,-221.99 554.25,-220.22 544.98,-215.09 543.81,-221.99"/>
</a>
</g>
</g>
<!-- Node16&#45;&gt;Node4 -->
<g id="edge26_Node000016_Node000004" class="edge">
<title>Node16&#45;&gt;Node4</title>
<g id="a_edge26_Node000016_Node000004"><a xlink:title=" ">
<path fill="none" stroke="#63b8ff" d="M561.83,-217.31C525.34,-207.39 472.83,-193.12 439.58,-184.08"/>
<polygon fill="#63b8ff" stroke="#63b8ff" points="561.1,-220.74 571.67,-219.98 562.94,-213.98 561.1,-220.74"/>
</a>
</g>
</g>
<!-- Node16&#45;&gt;Node11 -->
<g id="edge28_Node000016_Node000011" class="edge">
<title>Node16&#45;&gt;Node11</title>
<g id="a_edge28_Node000016_Node000011"><a xlink:title=" ">
<path fill="none" stroke="#63b8ff" d="M581.98,-213.8C570.26,-205.39 555.54,-194.45 543,-184 520.66,-165.39 496.12,-141.56 483.52,-129.05"/>
<polygon fill="#63b8ff" stroke="#63b8ff" points="580.1,-216.76 590.27,-219.7 584.15,-211.05 580.1,-216.76"/>
</a>
</g>
</g>
<!-- Node16&#45;&gt;Node12 -->
<g id="edge27_Node000016_Node000012" class="edge">
<title>Node16&#45;&gt;Node12</title>
<g id="a_edge27_Node000016_Node000012"><a xlink:title=" ">
<path fill="none" stroke="#63b8ff" d="M593.49,-210.95C576.82,-180.24 543.46,-119.16 537,-110 527.65,-96.73 514.99,-82.89 506.66,-74.24"/>
<polygon fill="#63b8ff" stroke="#63b8ff" points="590.42,-212.62 598.26,-219.74 596.57,-209.28 590.42,-212.62"/>
</a>
</g>
</g>
<!-- Node17 -->
<g id="Node000017" class="node">
<title>Node17</title>
<g id="a_Node000017"><a xlink:href="_i_input_8h.html" target="_top" xlink:title=" ">
<polygon fill="white" stroke="#666666" points="1004,-184 922,-184 922,-165 1004,-165 1004,-184"/>
<text text-anchor="middle" x="963" y="-172" font-family="Helvetica,sans-Serif" font-size="10.00">Kit/Io/IInput.h</text>
</a>
</g>
</g>
<!-- Node16&#45;&gt;Node17 -->
<g id="edge18_Node000016_Node000017" class="edge">
<title>Node16&#45;&gt;Node17</title>
<g id="a_edge18_Node000016_Node000017"><a xlink:title=" ">
<path fill="none" stroke="#63b8ff" d="M661.53,-219.88C734.68,-209.11 858.01,-190.96 921.89,-181.55"/>
<polygon fill="#63b8ff" stroke="#63b8ff" points="660.93,-216.43 651.55,-221.35 661.95,-223.36 660.93,-216.43"/>
</a>
</g>
</g>
<!-- Node21 -->
<g id="Node000021" class="node">
<title>Node21</title>
<g id="a_Node000021"><a xlink:href="_i_line_reader_8h.html" target="_top" xlink:title=" ">
<polygon fill="white" stroke="#666666" points="1133.5,-184 1022.5,-184 1022.5,-165 1133.5,-165 1133.5,-184"/>
<text text-anchor="middle" x="1078" y="-172" font-family="Helvetica,sans-Serif" font-size="10.00">Kit/Io/ILineReader.h</text>
</a>
</g>
</g>
<!-- Node16&#45;&gt;Node21 -->
<g id="edge23_Node000016_Node000021" class="edge">
<title>Node16&#45;&gt;Node21</title>
<g id="a_edge23_Node000016_Node000021"><a xlink:title=" ">
<path fill="none" stroke="#63b8ff" d="M661.96,-222.51C741.65,-214.32 888.15,-198.94 1013,-184 1016.05,-183.63 1019.18,-183.25 1022.34,-182.86"/>
<polygon fill="#63b8ff" stroke="#63b8ff" points="661.23,-219.07 651.64,-223.57 661.94,-226.03 661.23,-219.07"/>
</a>
</g>
</g>
<!-- Node22 -->
<g id="Node000022" class="node">
<title>Node22</title>
<g id="a_Node000022"><a xlink:href="_format_8h.html" target="_top" xlink:title=" ">
<polygon fill="white" stroke="#666666" points="1252,-184 1152,-184 1152,-165 1252,-165 1252,-184"/>
<text text-anchor="middle" x="1202" y="-172" font-family="Helvetica,sans-Serif" font-size="10.00">Kit/Text/Format.h</text>
</a>
</g>
</g>
<!-- Node16&#45;&gt;Node22 -->
<g id="edge29_Node000016_Node000022" class="edge">
<title>Node16&#45;&gt;Node22</title>
<g id="a_edge29_Node000016_Node000022"><a xlink:title=" ">
<path fill="none" stroke="#63b8ff" d="M661.9,-224.77C761.12,-218.23 967.84,-203.51 1142,-184 1145.24,-183.64 1148.58,-183.24 1151.94,-182.81"/>
<polygon fill="#63b8ff" stroke="#63b8ff" points="661.52,-221.28 651.77,-225.43 661.98,-228.27 661.52,-221.28"/>
</a>
</g>
</g>
<!-- Node23 -->
<g id="Node000023" class="node">
<title>Node23</title>
<g id="a_Node000023"><a xlink:href="_string_base_8h.html" target="_top" xlink:title=" ">
<polygon fill="white" stroke="#666666" points="706,-184 588,-184 588,-165 706,-165 706,-184"/>
<text text-anchor="middle" x="647" y="-172" font-family="Helvetica,sans-Serif" font-size="10.00">Kit/Text/StringBase.h</text>
</a>
</g>
</g>
<!-- Node16&#45;&gt;Node23 -->
<g id="edge30_Node000016_Node000023" class="edge">
<title>Node16&#45;&gt;Node23</title>
<g id="a_edge30_Node000016_Node000023"><a xlink:title=" ">
<path fill="none" stroke="#63b8ff" d="M616.73,-211.96C624.4,-202.72 633.63,-191.6 639.87,-184.09"/>
<polygon fill="#63b8ff" stroke="#63b8ff" points="613.96,-209.82 610.27,-219.75 619.35,-214.29 613.96,-209.82"/>
</a>
</g>
</g>
<!-- Node31 -->
<g id="Node000031" class="node">
<title>Node31</title>
<g id="a_Node000031"><a xlink:href="_string_item_8h.html" target="_top" xlink:title=" ">
<polygon fill="white" stroke="#666666" points="962,-129 846,-129 846,-110 962,-110 962,-129"/>
<text text-anchor="middle" x="904" y="-117" font-family="Helvetica,sans-Serif" font-size="10.00">Kit/Text/StringItem.h</text>
</a>
</g>
</g>
<!-- Node16&#45;&gt;Node31 -->
<g id="edge38_Node000016_Node000031" class="edge">
<title>Node16&#45;&gt;Node31</title>
<g id="a_edge38_Node000016_Node000031"><a xlink:title=" ">
<path fill="none" stroke="#63b8ff" d="M636.46,-216.5C697.78,-194.49 826.78,-148.21 880.13,-129.07"/>
<polygon fill="#63b8ff" stroke="#63b8ff" points="635.1,-213.26 626.87,-219.94 637.47,-219.85 635.1,-213.26"/>
</a>
</g>
</g>
<!-- Node17&#45;&gt;Node5 -->
<g id="edge19_Node000017_Node000005" class="edge">
<title>Node17&#45;&gt;Node5</title>
<g id="a_edge19_Node000017_Node000005"><a xlink:title=" ">
<path fill="none" stroke="#63b8ff" d="M983.31,-159.15C996.86,-149.57 1014.24,-137.29 1025.73,-129.17"/>
<polygon fill="#63b8ff" stroke="#63b8ff" points="981.2,-156.36 975.05,-164.98 985.24,-162.07 981.2,-156.36"/>
</a>
</g>
</g>
<!-- Node18 -->
<g id="Node000018" class="node">
<title>Node18</title>
<g id="a_Node000018"><a xlink:href="_line_reader_8h.html" target="_top" xlink:title=" ">
<polygon fill="white" stroke="#666666" points="1391,-129 1283,-129 1283,-110 1391,-110 1391,-129"/>
<text text-anchor="middle" x="1337" y="-117" font-family="Helvetica,sans-Serif" font-size="10.00">Kit/Io/LineReader.h</text>
</a>
</g>
</g>
<!-- Node17&#45;&gt;Node18 -->
<g id="edge20_Node000017_Node000018" class="edge">
<title>Node17&#45;&gt;Node18</title>
<g id="a_edge20_Node000017_Node000018"><a xlink:title=" ">
<path fill="none" stroke="#63b8ff" d="M1014.27,-164.86C1078.48,-155.22 1208.85,-137.63 1282.94,-127.71"/>
<polygon fill="#63b8ff" stroke="#63b8ff" points="1013.54,-161.43 1004.18,-166.39 1014.6,-168.35 1013.54,-161.43"/>
</a>
</g>
</g>
<!-- Node19 -->
<g id="Node000019" class="node">
<title>Node19</title>
<g id="a_Node000019"><a xlink:href="_input_delegate_8h.html" target="_top" xlink:title=" ">
<polygon fill="white" stroke="#666666" points="1264.5,-129 1113.5,-129 1113.5,-110 1264.5,-110 1264.5,-129"/>
<text text-anchor="middle" x="1189" y="-117" font-family="Helvetica,sans-Serif" font-size="10.00">Kit/Io/Stdio/InputDelegate.h</text>
</a>
</g>
</g>
<!-- Node17&#45;&gt;Node19 -->
<g id="edge21_Node000017_Node000019" class="edge">
<title>Node17&#45;&gt;Node19</title>
<g id="a_edge21_Node000017_Node000019"><a xlink:title=" ">
<path fill="none" stroke="#63b8ff" d="M1009.09,-162.69C1051.44,-152.76 1113.36,-138.24 1152.4,-129.08"/>
<polygon fill="#63b8ff" stroke="#63b8ff" points="1008.25,-159.29 999.31,-164.98 1009.85,-166.11 1008.25,-159.29"/>
</a>
</g>
</g>
<!-- Node20 -->
<g id="Node000020" class="node">
<title>Node20</title>
<g id="a_Node000020"><a xlink:href="_std_in_8h.html" target="_top" xlink:title=" ">
<polygon fill="white" stroke="#666666" points="1242.5,-74 1135.5,-74 1135.5,-55 1242.5,-55 1242.5,-74"/>
<text text-anchor="middle" x="1189" y="-62" font-family="Helvetica,sans-Serif" font-size="10.00">Kit/Io/Stdio/StdIn.h</text>
</a>
</g>
</g>
<!-- Node19&#45;&gt;Node20 -->
<g id="edge22_Node000019_Node000020" class="edge">
<title>Node19&#45;&gt;Node20</title>
<g id="a_edge22_Node000019_Node000020"><a xlink:title=" ">
<path fill="none" stroke="#63b8ff" d="M1189,-99.66C1189,-90.93 1189,-80.99 1189,-74.09"/>
<polygon fill="#63b8ff" stroke="#63b8ff" points="1185.5,-99.75 1189,-109.75 1192.5,-99.75 1185.5,-99.75"/>
</a>
</g>
</g>
<!-- Node21&#45;&gt;Node18 -->
<g id="edge24_Node000021_Node000018" class="edge">
<title>Node21&#45;&gt;Node18</title>
<g id="a_edge24_Node000021_Node000018"><a xlink:title=" ">
<path fill="none" stroke="#63b8ff" d="M1129.6,-162.94C1178.15,-153.01 1249.94,-138.31 1295.06,-129.08"/>
<polygon fill="#63b8ff" stroke="#63b8ff" points="1128.71,-159.55 1119.61,-164.98 1130.11,-166.41 1128.71,-159.55"/>
</a>
</g>
</g>
<!-- Node24 -->
<g id="Node000024" class="node">
<title>Node24</title>
<g id="a_Node000024"><a xlink:href="_d_string_8h.html" target="_top" xlink:title=" ">
<polygon fill="white" stroke="#666666" points="827.5,-129 726.5,-129 726.5,-110 827.5,-110 827.5,-129"/>
<text text-anchor="middle" x="777" y="-117" font-family="Helvetica,sans-Serif" font-size="10.00">Kit/Text/DString.h</text>
</a>
</g>
</g>
<!-- Node23&#45;&gt;Node24 -->
<g id="edge31_Node000023_Node000024" class="edge">
<title>Node23&#45;&gt;Node24</title>
<g id="a_edge31_Node000023_Node000024"><a xlink:title=" ">
<path fill="none" stroke="#63b8ff" d="M677.27,-161.16C701.34,-151.35 734.4,-137.87 755.73,-129.17"/>
<polygon fill="#63b8ff" stroke="#63b8ff" points="675.83,-157.97 667.89,-164.98 678.47,-164.45 675.83,-157.97"/>
</a>
</g>
</g>
<!-- Node26 -->
<g id="Node000026" class="node">
<title>Node26</title>
<g id="a_Node000026"><a xlink:href="_f_string_base_8h.html" target="_top" xlink:title=" ">
<polygon fill="white" stroke="#666666" points="708.5,-129 585.5,-129 585.5,-110 708.5,-110 708.5,-129"/>
<text text-anchor="middle" x="647" y="-117" font-family="Helvetica,sans-Serif" font-size="10.00">Kit/Text/FStringBase.h</text>
</a>
</g>
</g>
<!-- Node23&#45;&gt;Node26 -->
<g id="edge33_Node000023_Node000026" class="edge">
<title>Node23&#45;&gt;Node26</title>
<g id="a_edge33_Node000023_Node000026"><a xlink:title=" ">
<path fill="none" stroke="#63b8ff" d="M647,-154.66C647,-145.93 647,-135.99 647,-129.09"/>
<polygon fill="#63b8ff" stroke="#63b8ff" points="643.5,-154.75 647,-164.75 650.5,-154.75 643.5,-154.75"/>
</a>
</g>
</g>
<!-- Node25 -->
<g id="Node000025" class="node">
<title>Node25</title>
<g id="a_Node000025"><a xlink:href="_d_string_item_8h.html" target="_top" xlink:title=" ">
<polygon fill="white" stroke="#666666" points="849,-74 725,-74 725,-55 849,-55 849,-74"/>
<text text-anchor="middle" x="787" y="-62" font-family="Helvetica,sans-Serif" font-size="10.00">Kit/Text/DStringItem.h</text>
</a>
</g>
</g>
<!-- Node24&#45;&gt;Node25 -->
<g id="edge32_Node000024_Node000025" class="edge">
<title>Node24&#45;&gt;Node25</title>
<g id="a_edge32_Node000024_Node000025"><a xlink:title=" ">
<path fill="none" stroke="#63b8ff" d="M780.55,-99.66C782.2,-90.93 784.08,-80.99 785.38,-74.09"/>
<polygon fill="#63b8ff" stroke="#63b8ff" points="777.07,-99.27 778.65,-109.75 783.94,-100.57 777.07,-99.27"/>
</a>
</g>
</g>
<!-- Node27 -->
<g id="Node000027" class="node">
<title>Node27</title>
<g id="a_Node000027"><a xlink:href="_f_string_8h.html" target="_top" xlink:title=" ">
<polygon fill="white" stroke="#666666" points="701.5,-74 602.5,-74 602.5,-55 701.5,-55 701.5,-74"/>
<text text-anchor="middle" x="652" y="-62" font-family="Helvetica,sans-Serif" font-size="10.00">Kit/Text/FString.h</text>
</a>
</g>
</g>
<!-- Node26&#45;&gt;Node27 -->
<g id="edge34_Node000026_Node000027" class="edge">
<title>Node26&#45;&gt;Node27</title>
<g id="a_edge34_Node000026_Node000027"><a xlink:title=" ">
<path fill="none" stroke="#63b8ff" d="M648.78,-99.66C649.6,-90.93 650.54,-80.99 651.19,-74.09"/>
<polygon fill="#63b8ff" stroke="#63b8ff" points="645.28,-99.46 647.83,-109.75 652.25,-100.12 645.28,-99.46"/>
</a>
</g>
</g>
<!-- Node28 -->
<g id="Node000028" class="node">
<title>Node28</title>
<g id="a_Node000028"><a xlink:href="_posix_2_thread_8h.html" target="_top" xlink:title=" ">
<polygon fill="white" stroke="#666666" points="580.5,-19 435.5,-19 435.5,0 580.5,0 580.5,-19"/>
<text text-anchor="middle" x="508" y="-7" font-family="Helvetica,sans-Serif" font-size="10.00">Kit/System/Posix/Thread.h</text>
</a>
</g>
</g>
<!-- Node27&#45;&gt;Node28 -->
<g id="edge35_Node000027_Node000028" class="edge">
<title>Node27&#45;&gt;Node28</title>
<g id="a_edge35_Node000027_Node000028"><a xlink:title=" ">
<path fill="none" stroke="#63b8ff" d="M619.18,-51.42C592.47,-41.59 555.4,-27.95 531.56,-19.17"/>
<polygon fill="#63b8ff" stroke="#63b8ff" points="618.27,-54.82 628.86,-54.98 620.69,-48.25 618.27,-54.82"/>
</a>
</g>
</g>
<!-- Node29 -->
<g id="Node000029" class="node">
<title>Node29</title>
<g id="a_Node000029"><a xlink:href="_win32_2_thread_8h.html" target="_top" xlink:title=" ">
<polygon fill="white" stroke="#666666" points="747.5,-19 598.5,-19 598.5,0 747.5,0 747.5,-19"/>
<text text-anchor="middle" x="673" y="-7" font-family="Helvetica,sans-Serif" font-size="10.00">Kit/System/Win32/Thread.h</text>
</a>
</g>
</g>
<!-- Node27&#45;&gt;Node29 -->
<g id="edge36_Node000027_Node000029" class="edge">
<title>Node27&#45;&gt;Node29</title>
<g id="a_edge36_Node000027_Node000029"><a xlink:title=" ">
<path fill="none" stroke="#63b8ff" d="M659.24,-45.24C662.75,-36.37 666.8,-26.14 669.6,-19.09"/>
<polygon fill="#63b8ff" stroke="#63b8ff" points="655.9,-44.16 655.47,-54.75 662.41,-46.74 655.9,-44.16"/>
</a>
</g>
</g>
<!-- Node30 -->
<g id="Node000030" class="node">
<title>Node30</title>
<g id="a_Node000030"><a xlink:href="_f_string_item_8h.html" target="_top" xlink:title=" ">
<polygon fill="white" stroke="#666666" points="930,-19 808,-19 808,0 930,0 930,-19"/>
<text text-anchor="middle" x="869" y="-7" font-family="Helvetica,sans-Serif" font-size="10.00">Kit/Text/FStringItem.h</text>
</a>
</g>
</g>
<!-- Node27&#45;&gt;Node30 -->
<g id="edge37_Node000027_Node000030" class="edge">
<title>Node27&#45;&gt;Node30</title>
<g id="a_edge37_Node000027_Node000030"><a xlink:title=" ">
<path fill="none" stroke="#63b8ff" d="M696.77,-52.56C737.42,-42.64 796.53,-28.2 833.86,-19.08"/>
<polygon fill="#63b8ff" stroke="#63b8ff" points="695.75,-49.21 686.86,-54.98 697.41,-56.01 695.75,-49.21"/>
</a>
</g>
</g>
<!-- Node31&#45;&gt;Node25 -->
<g id="edge39_Node000031_Node000025" class="edge">
<title>Node31&#45;&gt;Node25</title>
<g id="a_edge39_Node000031_Node000025"><a xlink:title=" ">
<path fill="none" stroke="#63b8ff" d="M875.89,-105.77C854.31,-95.99 825.09,-82.75 806.14,-74.17"/>
<polygon fill="#63b8ff" stroke="#63b8ff" points="874.65,-109.05 885.2,-109.98 877.54,-102.67 874.65,-109.05"/>
</a>
</g>
</g>
<!-- Node31&#45;&gt;Node30 -->
<g id="edge40_Node000031_Node000030" class="edge">
<title>Node31&#45;&gt;Node30</title>
<g id="a_edge40_Node000031_Node000030"><a xlink:title=" ">
<path fill="none" stroke="#63b8ff" d="M898.04,-100.12C890.41,-76.56 877.48,-36.66 871.81,-19.16"/>
<polygon fill="#63b8ff" stroke="#63b8ff" points="894.72,-101.23 901.14,-109.66 901.38,-99.07 894.72,-101.23"/>
</a>
</g>
</g>
</g>
</svg>
