<?xml version="1.0" encoding="UTF-8" standalone="no"?>
<!DOCTYPE svg PUBLIC "-//W3C//DTD SVG 1.1//EN"
 "http://www.w3.org/Graphics/SVG/1.1/DTD/svg11.dtd">
<!-- Generated by graphviz version 2.43.0 (0)
 -->
<!-- Title: Kit/System/printfchecker.h Pages: 1 -->
<svg width="1826pt" height="434pt"
 viewBox="0.00 0.00 1826.00 434.00" xmlns="http://www.w3.org/2000/svg" xmlns:xlink="http://www.w3.org/1999/xlink">
<g id="graph0" class="graph" transform="scale(1 1) rotate(0) translate(4 430)">
<title>Kit/System/printfchecker.h</title>
<!-- Node1 -->
<g id="Node000001" class="node">
<title>Node1</title>
<g id="a_Node000001"><a xlink:title="This file contains macro that enables the GCC (and Clang) compiler to validate printf flags with thei...">
<polygon fill="#999999" stroke="#666666" points="680.5,-426 535.5,-426 535.5,-407 680.5,-407 680.5,-426"/>
<text text-anchor="middle" x="608" y="-414" font-family="Helvetica,sans-Serif" font-size="10.00">Kit/System/printfchecker.h</text>
</a>
</g>
</g>
<!-- Node2 -->
<g id="Node000002" class="node">
<title>Node2</title>
<g id="a_Node000002"><a xlink:href="_i_line_writer_8h.html" target="_top" xlink:title=" ">
<polygon fill="white" stroke="#666666" points="544.5,-316 437.5,-316 437.5,-297 544.5,-297 544.5,-316"/>
<text text-anchor="middle" x="491" y="-304" font-family="Helvetica,sans-Serif" font-size="10.00">Kit/Io/ILineWriter.h</text>
</a>
</g>
</g>
<!-- Node1&#45;&gt;Node2 -->
<g id="edge1_Node000001_Node000002" class="edge">
<title>Node1&#45;&gt;Node2</title>
<g id="a_edge1_Node000001_Node000002"><a xlink:title=" ">
<path fill="none" stroke="#63b8ff" d="M590.78,-399.61C565.71,-376.47 520.02,-334.29 500.38,-316.16"/>
<polygon fill="#63b8ff" stroke="#63b8ff" points="588.7,-402.45 598.43,-406.66 593.45,-397.31 588.7,-402.45"/>
</a>
</g>
</g>
<!-- Node4 -->
<g id="Node000004" class="node">
<title>Node4</title>
<g id="a_Node000004"><a xlink:href="_i_output_8h.html" target="_top" xlink:title=" ">
<polygon fill="white" stroke="#666666" points="653,-316 563,-316 563,-297 653,-297 653,-316"/>
<text text-anchor="middle" x="608" y="-304" font-family="Helvetica,sans-Serif" font-size="10.00">Kit/Io/IOutput.h</text>
</a>
</g>
</g>
<!-- Node1&#45;&gt;Node4 -->
<g id="edge3_Node000001_Node000004" class="edge">
<title>Node1&#45;&gt;Node4</title>
<g id="a_edge3_Node000001_Node000004"><a xlink:title=" ">
<path fill="none" stroke="#63b8ff" d="M608,-396.48C608,-372.84 608,-333.5 608,-316.16"/>
<polygon fill="#63b8ff" stroke="#63b8ff" points="604.5,-396.66 608,-406.66 611.5,-396.66 604.5,-396.66"/>
</a>
</g>
</g>
<!-- Node20 -->
<g id="Node000020" class="node">
<title>Node20</title>
<g id="a_Node000020"><a xlink:href="_trace_8h.html" target="_top" xlink:title="This file provides an interface for a &#39;printf&#39; tracing mechanism.">
<polygon fill="white" stroke="#666666" points="790.5,-261 683.5,-261 683.5,-242 790.5,-242 790.5,-261"/>
<text text-anchor="middle" x="737" y="-249" font-family="Helvetica,sans-Serif" font-size="10.00">Kit/System/Trace.h</text>
</a>
</g>
</g>
<!-- Node1&#45;&gt;Node20 -->
<g id="edge25_Node000001_Node000020" class="edge">
<title>Node1&#45;&gt;Node20</title>
<g id="a_edge25_Node000001_Node000020"><a xlink:title=" ">
<path fill="none" stroke="#63b8ff" d="M621.36,-398.62C648.54,-364.28 709.42,-287.34 730.03,-261.31"/>
<polygon fill="#63b8ff" stroke="#63b8ff" points="618.4,-396.72 614.94,-406.74 623.89,-401.07 618.4,-396.72"/>
</a>
</g>
</g>
<!-- Node22 -->
<g id="Node000022" class="node">
<title>Node22</title>
<g id="a_Node000022"><a xlink:href="_fatal_error_8h.html" target="_top" xlink:title=" ">
<polygon fill="white" stroke="#666666" points="401,-371 273,-371 273,-352 401,-352 401,-371"/>
<text text-anchor="middle" x="337" y="-359" font-family="Helvetica,sans-Serif" font-size="10.00">Kit/System/FatalError.h</text>
</a>
</g>
</g>
<!-- Node1&#45;&gt;Node22 -->
<g id="edge22_Node000001_Node000022" class="edge">
<title>Node1&#45;&gt;Node22</title>
<g id="a_edge22_Node000001_Node000022"><a xlink:title=" ">
<path fill="none" stroke="#63b8ff" d="M554.64,-405.07C503.84,-395.13 428.29,-380.35 380.88,-371.08"/>
<polygon fill="#63b8ff" stroke="#63b8ff" points="553.97,-408.5 564.46,-406.98 555.32,-401.63 553.97,-408.5"/>
</a>
</g>
</g>
<!-- Node25 -->
<g id="Node000025" class="node">
<title>Node25</title>
<g id="a_Node000025"><a xlink:href="_i_string_8h.html" target="_top" xlink:title=" ">
<polygon fill="white" stroke="#666666" points="971.5,-371 874.5,-371 874.5,-352 971.5,-352 971.5,-371"/>
<text text-anchor="middle" x="923" y="-359" font-family="Helvetica,sans-Serif" font-size="10.00">Kit/Text/IString.h</text>
</a>
</g>
</g>
<!-- Node1&#45;&gt;Node25 -->
<g id="edge26_Node000001_Node000025" class="edge">
<title>Node1&#45;&gt;Node25</title>
<g id="a_edge26_Node000001_Node000025"><a xlink:title=" ">
<path fill="none" stroke="#63b8ff" d="M668.69,-405.29C728.58,-395.21 818.99,-380 874.33,-370.69"/>
<polygon fill="#63b8ff" stroke="#63b8ff" points="667.89,-401.87 658.61,-406.98 669.05,-408.78 667.89,-401.87"/>
</a>
</g>
</g>
<!-- Node3 -->
<g id="Node000003" class="node">
<title>Node3</title>
<g id="a_Node000003"><a xlink:href="_line_writer_8h.html" target="_top" xlink:title=" ">
<polygon fill="white" stroke="#666666" points="104,-261 0,-261 0,-242 104,-242 104,-261"/>
<text text-anchor="middle" x="52" y="-249" font-family="Helvetica,sans-Serif" font-size="10.00">Kit/Io/LineWriter.h</text>
</a>
</g>
</g>
<!-- Node2&#45;&gt;Node3 -->
<g id="edge2_Node000002_Node000003" class="edge">
<title>Node2&#45;&gt;Node3</title>
<g id="a_edge2_Node000002_Node000003"><a xlink:title=" ">
<path fill="none" stroke="#63b8ff" d="M427.09,-296.91C286.45,-279.53 249.52,-278.31 113,-261 110.14,-260.64 107.2,-260.26 104.23,-259.86"/>
<polygon fill="#63b8ff" stroke="#63b8ff" points="427.04,-300.43 437.39,-298.19 427.9,-293.49 427.04,-300.43"/>
</a>
</g>
</g>
<!-- Node4&#45;&gt;Node3 -->
<g id="edge15_Node000004_Node000003" class="edge">
<title>Node4&#45;&gt;Node3</title>
<g id="a_edge15_Node000004_Node000003"><a xlink:title=" ">
<path fill="none" stroke="#63b8ff" d="M552.91,-296.96C357.02,-273.98 305.22,-282.22 113,-261 110.13,-260.68 107.19,-260.34 104.22,-259.98"/>
<polygon fill="#63b8ff" stroke="#63b8ff" points="552.61,-300.45 562.95,-298.15 553.44,-293.5 552.61,-300.45"/>
</a>
</g>
</g>
<!-- Node5 -->
<g id="Node000005" class="node">
<title>Node5</title>
<g id="a_Node000005"><a xlink:href="_file_2_i_output_8h.html" target="_top" xlink:title=" ">
<polygon fill="white" stroke="#666666" points="532,-261 422,-261 422,-242 532,-242 532,-261"/>
<text text-anchor="middle" x="477" y="-249" font-family="Helvetica,sans-Serif" font-size="10.00">Kit/Io/File/IOutput.h</text>
</a>
</g>
</g>
<!-- Node4&#45;&gt;Node5 -->
<g id="edge4_Node000004_Node000005" class="edge">
<title>Node4&#45;&gt;Node5</title>
<g id="a_edge4_Node000004_Node000005"><a xlink:title=" ">
<path fill="none" stroke="#63b8ff" d="M577.5,-293.16C553.25,-283.35 519.93,-269.87 498.43,-261.17"/>
<polygon fill="#63b8ff" stroke="#63b8ff" points="576.37,-296.48 586.95,-296.98 579,-289.99 576.37,-296.48"/>
</a>
</g>
</g>
<!-- Node10 -->
<g id="Node000010" class="node">
<title>Node10</title>
<g id="a_Node000010"><a xlink:href="_i_input_output_8h.html" target="_top" xlink:title=" ">
<polygon fill="white" stroke="#666666" points="665.5,-261 550.5,-261 550.5,-242 665.5,-242 665.5,-261"/>
<text text-anchor="middle" x="608" y="-249" font-family="Helvetica,sans-Serif" font-size="10.00">Kit/Io/IInputOutput.h</text>
</a>
</g>
</g>
<!-- Node4&#45;&gt;Node10 -->
<g id="edge9_Node000004_Node000010" class="edge">
<title>Node4&#45;&gt;Node10</title>
<g id="a_edge9_Node000004_Node000010"><a xlink:title=" ">
<path fill="none" stroke="#63b8ff" d="M608,-286.66C608,-277.93 608,-267.99 608,-261.09"/>
<polygon fill="#63b8ff" stroke="#63b8ff" points="604.5,-286.75 608,-296.75 611.5,-286.75 604.5,-286.75"/>
</a>
</g>
</g>
<!-- Node16 -->
<g id="Node000016" class="node">
<title>Node16</title>
<g id="a_Node000016"><a xlink:href="_output_delegate_8h.html" target="_top" xlink:title=" ">
<polygon fill="white" stroke="#666666" points="281.5,-261 122.5,-261 122.5,-242 281.5,-242 281.5,-261"/>
<text text-anchor="middle" x="202" y="-249" font-family="Helvetica,sans-Serif" font-size="10.00">Kit/Io/Stdio/OutputDelegate.h</text>
</a>
</g>
</g>
<!-- Node4&#45;&gt;Node16 -->
<g id="edge16_Node000004_Node000016" class="edge">
<title>Node4&#45;&gt;Node16</title>
<g id="a_edge16_Node000004_Node000016"><a xlink:title=" ">
<path fill="none" stroke="#63b8ff" d="M553.03,-296.9C450.55,-282.45 343.56,-269.27 274.56,-261.02"/>
<polygon fill="#63b8ff" stroke="#63b8ff" points="552.54,-300.36 562.93,-298.3 553.52,-293.43 552.54,-300.36"/>
</a>
</g>
</g>
<!-- Node19 -->
<g id="Node000019" class="node">
<title>Node19</title>
<g id="a_Node000019"><a xlink:href="_tee_output_8h.html" target="_top" xlink:title=" ">
<polygon fill="white" stroke="#666666" points="404,-261 300,-261 300,-242 404,-242 404,-261"/>
<text text-anchor="middle" x="352" y="-249" font-family="Helvetica,sans-Serif" font-size="10.00">Kit/Io/TeeOutput.h</text>
</a>
</g>
</g>
<!-- Node4&#45;&gt;Node19 -->
<g id="edge19_Node000004_Node000019" class="edge">
<title>Node4&#45;&gt;Node19</title>
<g id="a_edge19_Node000004_Node000019"><a xlink:title=" ">
<path fill="none" stroke="#63b8ff" d="M557,-294.94C509.01,-285.01 438.05,-270.31 393.45,-261.08"/>
<polygon fill="#63b8ff" stroke="#63b8ff" points="556.37,-298.38 566.87,-296.98 557.79,-291.53 556.37,-298.38"/>
</a>
</g>
</g>
<!-- Node4&#45;&gt;Node20 -->
<g id="edge20_Node000004_Node000020" class="edge">
<title>Node4&#45;&gt;Node20</title>
<g id="a_edge20_Node000004_Node000020"><a xlink:title=" ">
<path fill="none" stroke="#63b8ff" d="M638.04,-293.16C661.92,-283.35 694.72,-269.87 715.9,-261.17"/>
<polygon fill="#63b8ff" stroke="#63b8ff" points="636.65,-289.95 628.73,-296.98 639.31,-296.42 636.65,-289.95"/>
</a>
</g>
</g>
<!-- Node6 -->
<g id="Node000006" class="node">
<title>Node6</title>
<g id="a_Node000006"><a xlink:href="_file_2_i_input_output_8h.html" target="_top" xlink:title=" ">
<polygon fill="white" stroke="#666666" points="844.5,-200.5 709.5,-200.5 709.5,-181.5 844.5,-181.5 844.5,-200.5"/>
<text text-anchor="middle" x="777" y="-188.5" font-family="Helvetica,sans-Serif" font-size="10.00">Kit/Io/File/IInputOutput.h</text>
</a>
</g>
</g>
<!-- Node5&#45;&gt;Node6 -->
<g id="edge5_Node000005_Node000006" class="edge">
<title>Node5&#45;&gt;Node6</title>
<g id="a_edge5_Node000005_Node000006"><a xlink:title=" ">
<path fill="none" stroke="#63b8ff" d="M530.68,-240.03C588.57,-228.74 679.64,-210.98 733.32,-200.52"/>
<polygon fill="#63b8ff" stroke="#63b8ff" points="529.77,-236.64 520.62,-241.99 531.11,-243.51 529.77,-236.64"/>
</a>
</g>
</g>
<!-- Node9 -->
<g id="Node000009" class="node">
<title>Node9</title>
<g id="a_Node000009"><a xlink:href="_output_8h.html" target="_top" xlink:title=" ">
<polygon fill="white" stroke="#666666" points="380.5,-200.5 273.5,-200.5 273.5,-181.5 380.5,-181.5 380.5,-200.5"/>
<text text-anchor="middle" x="327" y="-188.5" font-family="Helvetica,sans-Serif" font-size="10.00">Kit/Io/File/Output.h</text>
</a>
</g>
</g>
<!-- Node5&#45;&gt;Node9 -->
<g id="edge8_Node000005_Node000009" class="edge">
<title>Node5&#45;&gt;Node9</title>
<g id="a_edge8_Node000005_Node000009"><a xlink:title=" ">
<path fill="none" stroke="#63b8ff" d="M445.54,-238.23C416.55,-226.92 374.29,-210.44 348.84,-200.52"/>
<polygon fill="#63b8ff" stroke="#63b8ff" points="444.6,-241.62 455.19,-241.99 447.14,-235.1 444.6,-241.62"/>
</a>
</g>
</g>
<!-- Node7 -->
<g id="Node000007" class="node">
<title>Node7</title>
<g id="a_Node000007"><a xlink:href="_file_2_input_output_8h.html" target="_top" xlink:title=" ">
<polygon fill="white" stroke="#666666" points="840,-134.5 708,-134.5 708,-115.5 840,-115.5 840,-134.5"/>
<text text-anchor="middle" x="774" y="-122.5" font-family="Helvetica,sans-Serif" font-size="10.00">Kit/Io/File/InputOutput.h</text>
</a>
</g>
</g>
<!-- Node6&#45;&gt;Node7 -->
<g id="edge6_Node000006_Node000007" class="edge">
<title>Node6&#45;&gt;Node7</title>
<g id="a_edge6_Node000006_Node000007"><a xlink:title=" ">
<path fill="none" stroke="#63b8ff" d="M776.11,-171.08C775.55,-159.13 774.85,-144.22 774.42,-134.91"/>
<polygon fill="#63b8ff" stroke="#63b8ff" points="772.63,-171.54 776.6,-181.37 779.62,-171.22 772.63,-171.54"/>
</a>
</g>
</g>
<!-- Node8 -->
<g id="Node000008" class="node">
<title>Node8</title>
<g id="a_Node000008"><a xlink:href="_file_2_null_8h.html" target="_top" xlink:title=" ">
<polygon fill="white" stroke="#666666" points="952,-134.5 858,-134.5 858,-115.5 952,-115.5 952,-134.5"/>
<text text-anchor="middle" x="905" y="-122.5" font-family="Helvetica,sans-Serif" font-size="10.00">Kit/Io/File/Null.h</text>
</a>
</g>
</g>
<!-- Node6&#45;&gt;Node8 -->
<g id="edge7_Node000006_Node000008" class="edge">
<title>Node6&#45;&gt;Node8</title>
<g id="a_edge7_Node000006_Node000008"><a xlink:title=" ">
<path fill="none" stroke="#63b8ff" d="M803.28,-176.86C828.5,-164.25 865.87,-145.56 887.6,-134.7"/>
<polygon fill="#63b8ff" stroke="#63b8ff" points="801.64,-173.77 794.26,-181.37 804.77,-180.03 801.64,-173.77"/>
</a>
</g>
</g>
<!-- Node11 -->
<g id="Node000011" class="node">
<title>Node11</title>
<g id="a_Node000011"><a xlink:href="_null_8h.html" target="_top" xlink:title=" ">
<polygon fill="white" stroke="#666666" points="937,-200.5 863,-200.5 863,-181.5 937,-181.5 937,-200.5"/>
<text text-anchor="middle" x="900" y="-188.5" font-family="Helvetica,sans-Serif" font-size="10.00">Kit/Io/Null.h</text>
</a>
</g>
</g>
<!-- Node10&#45;&gt;Node11 -->
<g id="edge10_Node000010_Node000011" class="edge">
<title>Node10&#45;&gt;Node11</title>
<g id="a_edge10_Node000010_Node000011"><a xlink:title=" ">
<path fill="none" stroke="#63b8ff" d="M675.54,-240.46C725.22,-232.54 794.21,-220.45 854,-206 860.49,-204.43 867.42,-202.48 873.87,-200.53"/>
<polygon fill="#63b8ff" stroke="#63b8ff" points="674.89,-237.02 665.56,-242.03 675.98,-243.93 674.89,-237.02"/>
</a>
</g>
</g>
<!-- Node12 -->
<g id="Node000012" class="node">
<title>Node12</title>
<g id="a_Node000012"><a xlink:href="_serial_2_s_t_2_m32_f4_2_input_output_8h.html" target="_top" xlink:title=" ">
<polygon fill="white" stroke="#666666" points="523,-206 399,-206 399,-176 523,-176 523,-206"/>
<text text-anchor="start" x="407" y="-194" font-family="Helvetica,sans-Serif" font-size="10.00">Kit/Io/Serial/ST/M32F4</text>
<text text-anchor="middle" x="461" y="-183" font-family="Helvetica,sans-Serif" font-size="10.00">/InputOutput.h</text>
</a>
</g>
</g>
<!-- Node10&#45;&gt;Node12 -->
<g id="edge11_Node000010_Node000012" class="edge">
<title>Node10&#45;&gt;Node12</title>
<g id="a_edge11_Node000010_Node000012"><a xlink:title=" ">
<path fill="none" stroke="#63b8ff" d="M577.11,-238.21C553.52,-228.82 520.97,-215.87 496.34,-206.06"/>
<polygon fill="#63b8ff" stroke="#63b8ff" points="576.04,-241.55 586.62,-241.99 578.63,-235.04 576.04,-241.55"/>
</a>
</g>
</g>
<!-- Node14 -->
<g id="Node000014" class="node">
<title>Node14</title>
<g id="a_Node000014"><a xlink:href="_socket_2_i_input_output_8h.html" target="_top" xlink:title=" ">
<polygon fill="white" stroke="#666666" points="691,-200.5 541,-200.5 541,-181.5 691,-181.5 691,-200.5"/>
<text text-anchor="middle" x="616" y="-188.5" font-family="Helvetica,sans-Serif" font-size="10.00">Kit/Io/Socket/IInputOutput.h</text>
</a>
</g>
</g>
<!-- Node10&#45;&gt;Node14 -->
<g id="edge13_Node000010_Node000014" class="edge">
<title>Node10&#45;&gt;Node14</title>
<g id="a_edge13_Node000010_Node000014"><a xlink:title=" ">
<path fill="none" stroke="#63b8ff" d="M610.58,-231.66C612,-221.24 613.7,-208.8 614.81,-200.67"/>
<polygon fill="#63b8ff" stroke="#63b8ff" points="607.07,-231.49 609.18,-241.87 614,-232.43 607.07,-231.49"/>
</a>
</g>
</g>
<!-- Node13 -->
<g id="Node000013" class="node">
<title>Node13</title>
<g id="a_Node000013"><a xlink:href="stdio_8h.html" target="_top" xlink:title="By default the BSP provides a KIT IO Stream for application&#39; console.">
<polygon fill="white" stroke="#666666" points="524,-140 372,-140 372,-110 524,-110 524,-140"/>
<text text-anchor="start" x="380" y="-128" font-family="Helvetica,sans-Serif" font-size="10.00">Kit/Bsp/ST/NUCLEO&#45;F413ZH</text>
<text text-anchor="middle" x="448" y="-117" font-family="Helvetica,sans-Serif" font-size="10.00">/stdio.h</text>
</a>
</g>
</g>
<!-- Node12&#45;&gt;Node13 -->
<g id="edge12_Node000012_Node000013" class="edge">
<title>Node12&#45;&gt;Node13</title>
<g id="a_edge12_Node000012_Node000013"><a xlink:title=" ">
<path fill="none" stroke="#63b8ff" d="M456.09,-165.83C454.33,-157.17 452.41,-147.7 450.88,-140.16"/>
<polygon fill="#63b8ff" stroke="#63b8ff" points="452.69,-166.69 458.11,-175.8 459.55,-165.3 452.69,-166.69"/>
</a>
</g>
</g>
<!-- Node15 -->
<g id="Node000015" class="node">
<title>Node15</title>
<g id="a_Node000015"><a xlink:href="_socket_2_input_output_8h.html" target="_top" xlink:title=" ">
<polygon fill="white" stroke="#666666" points="689.5,-134.5 542.5,-134.5 542.5,-115.5 689.5,-115.5 689.5,-134.5"/>
<text text-anchor="middle" x="616" y="-122.5" font-family="Helvetica,sans-Serif" font-size="10.00">Kit/Io/Socket/InputOutput.h</text>
</a>
</g>
</g>
<!-- Node14&#45;&gt;Node15 -->
<g id="edge14_Node000014_Node000015" class="edge">
<title>Node14&#45;&gt;Node15</title>
<g id="a_edge14_Node000014_Node000015"><a xlink:title=" ">
<path fill="none" stroke="#63b8ff" d="M616,-171.08C616,-159.13 616,-144.22 616,-134.91"/>
<polygon fill="#63b8ff" stroke="#63b8ff" points="612.5,-171.37 616,-181.37 619.5,-171.37 612.5,-171.37"/>
</a>
</g>
</g>
<!-- Node17 -->
<g id="Node000017" class="node">
<title>Node17</title>
<g id="a_Node000017"><a xlink:href="_std_err_8h.html" target="_top" xlink:title=" ">
<polygon fill="white" stroke="#666666" points="255,-200.5 145,-200.5 145,-181.5 255,-181.5 255,-200.5"/>
<text text-anchor="middle" x="200" y="-188.5" font-family="Helvetica,sans-Serif" font-size="10.00">Kit/Io/Stdio/StdErr.h</text>
</a>
</g>
</g>
<!-- Node16&#45;&gt;Node17 -->
<g id="edge17_Node000016_Node000017" class="edge">
<title>Node16&#45;&gt;Node17</title>
<g id="a_edge17_Node000016_Node000017"><a xlink:title=" ">
<path fill="none" stroke="#63b8ff" d="M201.36,-231.66C201,-221.24 200.57,-208.8 200.3,-200.67"/>
<polygon fill="#63b8ff" stroke="#63b8ff" points="197.87,-231.99 201.7,-241.87 204.86,-231.75 197.87,-231.99"/>
</a>
</g>
</g>
<!-- Node18 -->
<g id="Node000018" class="node">
<title>Node18</title>
<g id="a_Node000018"><a xlink:href="_std_out_8h.html" target="_top" xlink:title=" ">
<polygon fill="white" stroke="#666666" points="126.5,-200.5 11.5,-200.5 11.5,-181.5 126.5,-181.5 126.5,-200.5"/>
<text text-anchor="middle" x="69" y="-188.5" font-family="Helvetica,sans-Serif" font-size="10.00">Kit/Io/Stdio/StdOut.h</text>
</a>
</g>
</g>
<!-- Node16&#45;&gt;Node18 -->
<g id="edge18_Node000016_Node000018" class="edge">
<title>Node16&#45;&gt;Node18</title>
<g id="a_edge18_Node000016_Node000018"><a xlink:title=" ">
<path fill="none" stroke="#63b8ff" d="M173.43,-237.93C147.75,-226.64 110.73,-210.36 88.36,-200.52"/>
<polygon fill="#63b8ff" stroke="#63b8ff" points="172.1,-241.17 182.66,-241.99 174.92,-234.76 172.1,-241.17"/>
</a>
</g>
</g>
<!-- Node21 -->
<g id="Node000021" class="node">
<title>Node21</title>
<g id="a_Node000021"><a xlink:href="_private_8h.html" target="_top" xlink:title="This file contains a collection of classes, interfaces, etc.">
<polygon fill="white" stroke="#666666" points="1420,-200.5 1304,-200.5 1304,-181.5 1420,-181.5 1420,-200.5"/>
<text text-anchor="middle" x="1362" y="-188.5" font-family="Helvetica,sans-Serif" font-size="10.00">Kit/System/Private.h</text>
</a>
</g>
</g>
<!-- Node20&#45;&gt;Node21 -->
<g id="edge21_Node000020_Node000021" class="edge">
<title>Node20&#45;&gt;Node21</title>
<g id="a_edge21_Node000020_Node000021"><a xlink:title=" ">
<path fill="none" stroke="#63b8ff" d="M800.86,-241.99C1021.17,-219.76 1079.86,-236.16 1295,-206 1305,-204.6 1315.75,-202.58 1325.64,-200.52"/>
<polygon fill="#63b8ff" stroke="#63b8ff" points="800.18,-238.54 790.59,-243.04 800.89,-245.5 800.18,-238.54"/>
</a>
</g>
</g>
<!-- Node23 -->
<g id="Node000023" class="node">
<title>Node23</title>
<g id="a_Node000023"><a xlink:href="_posix_2mappings_8h.html" target="_top" xlink:title="This file provides the mappings for Platform specific types, etc.">
<polygon fill="white" stroke="#666666" points="236.5,-316 77.5,-316 77.5,-297 236.5,-297 236.5,-316"/>
<text text-anchor="middle" x="157" y="-304" font-family="Helvetica,sans-Serif" font-size="10.00">Kit/System/Posix/mappings.h</text>
</a>
</g>
</g>
<!-- Node22&#45;&gt;Node23 -->
<g id="edge23_Node000022_Node000023" class="edge">
<title>Node22&#45;&gt;Node23</title>
<g id="a_edge23_Node000022_Node000023"><a xlink:title=" ">
<path fill="none" stroke="#63b8ff" d="M298.13,-349.06C264.49,-339.15 216.58,-325.04 186.15,-316.08"/>
<polygon fill="#63b8ff" stroke="#63b8ff" points="297.5,-352.52 308.08,-351.98 299.48,-345.8 297.5,-352.52"/>
</a>
</g>
</g>
<!-- Node24 -->
<g id="Node000024" class="node">
<title>Node24</title>
<g id="a_Node000024"><a xlink:href="_win32_2mappings_8h.html" target="_top" xlink:title="This file provides the mappings for Platform specific types, etc.">
<polygon fill="white" stroke="#666666" points="419,-316 255,-316 255,-297 419,-297 419,-316"/>
<text text-anchor="middle" x="337" y="-304" font-family="Helvetica,sans-Serif" font-size="10.00">Kit/System/Win32/mappings.h</text>
</a>
</g>
</g>
<!-- Node22&#45;&gt;Node24 -->
<g id="edge24_Node000022_Node000024" class="edge">
<title>Node22&#45;&gt;Node24</title>
<g id="a_edge24_Node000022_Node000024"><a xlink:title=" ">
<path fill="none" stroke="#63b8ff" d="M337,-341.66C337,-332.93 337,-322.99 337,-316.09"/>
<polygon fill="#63b8ff" stroke="#63b8ff" points="333.5,-341.75 337,-351.75 340.5,-341.75 333.5,-341.75"/>
</a>
</g>
</g>
<!-- Node25&#45;&gt;Node2 -->
<g id="edge38_Node000025_Node000002" class="edge">
<title>Node25&#45;&gt;Node2</title>
<g id="a_edge38_Node000025_Node000002"><a xlink:title=" ">
<path fill="none" stroke="#63b8ff" d="M863.98,-353.64C791.1,-345.11 663.35,-329.97 554,-316 550.93,-315.61 547.79,-315.2 544.61,-314.79"/>
<polygon fill="#63b8ff" stroke="#63b8ff" points="863.99,-357.17 874.32,-354.85 864.8,-350.21 863.99,-357.17"/>
</a>
</g>
</g>
<!-- Node25&#45;&gt;Node4 -->
<g id="edge39_Node000025_Node000004" class="edge">
<title>Node25&#45;&gt;Node4</title>
<g id="a_edge39_Node000025_Node000004"><a xlink:title=" ">
<path fill="none" stroke="#63b8ff" d="M864.58,-350.67C803.4,-340.38 708.63,-324.43 653.01,-315.07"/>
<polygon fill="#63b8ff" stroke="#63b8ff" points="864.03,-354.13 874.47,-352.33 865.19,-347.22 864.03,-354.13"/>
</a>
</g>
</g>
<!-- Node25&#45;&gt;Node20 -->
<g id="edge41_Node000025_Node000020" class="edge">
<title>Node25&#45;&gt;Node20</title>
<g id="a_edge41_Node000025_Node000020"><a xlink:title=" ">
<path fill="none" stroke="#63b8ff" d="M877.6,-349.05C853.67,-341.78 824.48,-330.91 801,-316 776.69,-300.56 754.26,-274.51 743.57,-261.08"/>
<polygon fill="#63b8ff" stroke="#63b8ff" points="876.93,-352.5 887.51,-351.94 878.89,-345.78 876.93,-352.5"/>
</a>
</g>
</g>
<!-- Node25&#45;&gt;Node21 -->
<g id="edge40_Node000025_Node000021" class="edge">
<title>Node25&#45;&gt;Node21</title>
<g id="a_edge40_Node000025_Node000021"><a xlink:title=" ">
<path fill="none" stroke="#63b8ff" d="M981.74,-356.49C1092.86,-347.54 1327.13,-321.77 1376,-261 1390.25,-243.28 1376.4,-214.89 1367.76,-200.68"/>
<polygon fill="#63b8ff" stroke="#63b8ff" points="981.4,-353 971.7,-357.28 981.94,-359.98 981.4,-353"/>
</a>
</g>
</g>
<!-- Node26 -->
<g id="Node000026" class="node">
<title>Node26</title>
<g id="a_Node000026"><a xlink:href="_i_input_8h.html" target="_top" xlink:title=" ">
<polygon fill="white" stroke="#666666" points="1023,-316 941,-316 941,-297 1023,-297 1023,-316"/>
<text text-anchor="middle" x="982" y="-304" font-family="Helvetica,sans-Serif" font-size="10.00">Kit/Io/IInput.h</text>
</a>
</g>
</g>
<!-- Node25&#45;&gt;Node26 -->
<g id="edge27_Node000025_Node000026" class="edge">
<title>Node25&#45;&gt;Node26</title>
<g id="a_edge27_Node000025_Node000026"><a xlink:title=" ">
<path fill="none" stroke="#63b8ff" d="M940.2,-345.04C950.67,-335.64 963.65,-323.98 972.35,-316.17"/>
<polygon fill="#63b8ff" stroke="#63b8ff" points="937.58,-342.7 932.48,-351.98 942.26,-347.91 937.58,-342.7"/>
</a>
</g>
</g>
<!-- Node33 -->
<g id="Node000033" class="node">
<title>Node33</title>
<g id="a_Node000033"><a xlink:href="_i_line_reader_8h.html" target="_top" xlink:title=" ">
<polygon fill="white" stroke="#666666" points="920.5,-316 809.5,-316 809.5,-297 920.5,-297 920.5,-316"/>
<text text-anchor="middle" x="865" y="-304" font-family="Helvetica,sans-Serif" font-size="10.00">Kit/Io/ILineReader.h</text>
</a>
</g>
</g>
<!-- Node25&#45;&gt;Node33 -->
<g id="edge36_Node000025_Node000033" class="edge">
<title>Node25&#45;&gt;Node33</title>
<g id="a_edge36_Node000025_Node000033"><a xlink:title=" ">
<path fill="none" stroke="#63b8ff" d="M906.09,-345.04C895.8,-335.64 883.03,-323.98 874.49,-316.17"/>
<polygon fill="#63b8ff" stroke="#63b8ff" points="903.94,-347.82 913.68,-351.98 908.66,-342.66 903.94,-347.82"/>
</a>
</g>
</g>
<!-- Node34 -->
<g id="Node000034" class="node">
<title>Node34</title>
<g id="a_Node000034"><a xlink:href="_format_8h.html" target="_top" xlink:title=" ">
<polygon fill="white" stroke="#666666" points="1660,-316 1560,-316 1560,-297 1660,-297 1660,-316"/>
<text text-anchor="middle" x="1610" y="-304" font-family="Helvetica,sans-Serif" font-size="10.00">Kit/Text/Format.h</text>
</a>
</g>
</g>
<!-- Node25&#45;&gt;Node34 -->
<g id="edge42_Node000025_Node000034" class="edge">
<title>Node25&#45;&gt;Node34</title>
<g id="a_edge42_Node000025_Node000034"><a xlink:title=" ">
<path fill="none" stroke="#63b8ff" d="M981.57,-357.77C1092.78,-352.26 1342.07,-338.42 1551,-316 1553.88,-315.69 1556.84,-315.35 1559.82,-314.98"/>
<polygon fill="#63b8ff" stroke="#63b8ff" points="981.38,-354.27 971.56,-358.26 981.72,-361.26 981.38,-354.27"/>
</a>
</g>
</g>
<!-- Node35 -->
<g id="Node000035" class="node">
<title>Node35</title>
<g id="a_Node000035"><a xlink:href="_string_base_8h.html" target="_top" xlink:title=" ">
<polygon fill="white" stroke="#666666" points="1542,-316 1424,-316 1424,-297 1542,-297 1542,-316"/>
<text text-anchor="middle" x="1483" y="-304" font-family="Helvetica,sans-Serif" font-size="10.00">Kit/Text/StringBase.h</text>
</a>
</g>
</g>
<!-- Node25&#45;&gt;Node35 -->
<g id="edge43_Node000025_Node000035" class="edge">
<title>Node25&#45;&gt;Node35</title>
<g id="a_edge43_Node000025_Node000035"><a xlink:title=" ">
<path fill="none" stroke="#63b8ff" d="M981.83,-355.55C1073.27,-347.77 1255.01,-331.89 1409,-316 1413.76,-315.51 1418.69,-314.98 1423.64,-314.44"/>
<polygon fill="#63b8ff" stroke="#63b8ff" points="981.34,-352.08 971.67,-356.42 981.93,-359.06 981.34,-352.08"/>
</a>
</g>
</g>
<!-- Node50 -->
<g id="Node000050" class="node">
<title>Node50</title>
<g id="a_Node000050"><a xlink:href="_string_item_8h.html" target="_top" xlink:title=" ">
<polygon fill="white" stroke="#666666" points="1800,-261 1684,-261 1684,-242 1800,-242 1800,-261"/>
<text text-anchor="middle" x="1742" y="-249" font-family="Helvetica,sans-Serif" font-size="10.00">Kit/Text/StringItem.h</text>
</a>
</g>
</g>
<!-- Node25&#45;&gt;Node50 -->
<g id="edge59_Node000025_Node000050" class="edge">
<title>Node25&#45;&gt;Node50</title>
<g id="a_edge59_Node000025_Node000050"><a xlink:title=" ">
<path fill="none" stroke="#63b8ff" d="M982.19,-359.16C1147.51,-355.11 1606.16,-341.67 1669,-316 1698.23,-304.06 1723.9,-275.41 1735.47,-261.03"/>
<polygon fill="#63b8ff" stroke="#63b8ff" points="981.65,-355.67 971.73,-359.41 981.82,-362.67 981.65,-355.67"/>
</a>
</g>
</g>
<!-- Node26&#45;&gt;Node10 -->
<g id="edge31_Node000026_Node000010" class="edge">
<title>Node26&#45;&gt;Node10</title>
<g id="a_edge31_Node000026_Node000010"><a xlink:title=" ">
<path fill="none" stroke="#63b8ff" d="M930.66,-297.1C930.44,-297.07 930.22,-297.03 930,-297 837.65,-283.07 730.13,-268.55 665.65,-260.03"/>
<polygon fill="#63b8ff" stroke="#63b8ff" points="930.44,-300.61 940.86,-298.68 931.51,-293.69 930.44,-300.61"/>
</a>
</g>
</g>
<!-- Node27 -->
<g id="Node000027" class="node">
<title>Node27</title>
<g id="a_Node000027"><a xlink:href="_file_2_i_input_8h.html" target="_top" xlink:title=" ">
<polygon fill="white" stroke="#666666" points="1037,-261 935,-261 935,-242 1037,-242 1037,-261"/>
<text text-anchor="middle" x="986" y="-249" font-family="Helvetica,sans-Serif" font-size="10.00">Kit/Io/File/IInput.h</text>
</a>
</g>
</g>
<!-- Node26&#45;&gt;Node27 -->
<g id="edge28_Node000026_Node000027" class="edge">
<title>Node26&#45;&gt;Node27</title>
<g id="a_edge28_Node000026_Node000027"><a xlink:title=" ">
<path fill="none" stroke="#63b8ff" d="M983.42,-286.66C984.08,-277.93 984.83,-267.99 985.35,-261.09"/>
<polygon fill="#63b8ff" stroke="#63b8ff" points="979.92,-286.51 982.66,-296.75 986.9,-287.04 979.92,-286.51"/>
</a>
</g>
</g>
<!-- Node29 -->
<g id="Node000029" class="node">
<title>Node29</title>
<g id="a_Node000029"><a xlink:href="_line_reader_8h.html" target="_top" xlink:title=" ">
<polygon fill="white" stroke="#666666" points="917,-261 809,-261 809,-242 917,-242 917,-261"/>
<text text-anchor="middle" x="863" y="-249" font-family="Helvetica,sans-Serif" font-size="10.00">Kit/Io/LineReader.h</text>
</a>
</g>
</g>
<!-- Node26&#45;&gt;Node29 -->
<g id="edge32_Node000026_Node000029" class="edge">
<title>Node26&#45;&gt;Node29</title>
<g id="a_edge32_Node000026_Node000029"><a xlink:title=" ">
<path fill="none" stroke="#63b8ff" d="M953.7,-292.9C931.72,-283.11 901.82,-269.79 882.47,-261.17"/>
<polygon fill="#63b8ff" stroke="#63b8ff" points="952.32,-296.11 962.88,-296.98 955.17,-289.72 952.32,-296.11"/>
</a>
</g>
</g>
<!-- Node30 -->
<g id="Node000030" class="node">
<title>Node30</title>
<g id="a_Node000030"><a xlink:href="_input_delegate_8h.html" target="_top" xlink:title=" ">
<polygon fill="white" stroke="#666666" points="1366.5,-261 1215.5,-261 1215.5,-242 1366.5,-242 1366.5,-261"/>
<text text-anchor="middle" x="1291" y="-249" font-family="Helvetica,sans-Serif" font-size="10.00">Kit/Io/Stdio/InputDelegate.h</text>
</a>
</g>
</g>
<!-- Node26&#45;&gt;Node30 -->
<g id="edge33_Node000026_Node000030" class="edge">
<title>Node26&#45;&gt;Node30</title>
<g id="a_edge33_Node000026_Node000030"><a xlink:title=" ">
<path fill="none" stroke="#63b8ff" d="M1033.03,-296.75C1090.77,-286.84 1184.2,-270.82 1241.36,-261.01"/>
<polygon fill="#63b8ff" stroke="#63b8ff" points="1032.3,-293.32 1023.03,-298.46 1033.48,-300.22 1032.3,-293.32"/>
</a>
</g>
</g>
<!-- Node32 -->
<g id="Node000032" class="node">
<title>Node32</title>
<g id="a_Node000032"><a xlink:href="helpers_8h.html" target="_top" xlink:title="This file defines helper functions/interface for writing unit tests.">
<polygon fill="white" stroke="#666666" points="1197,-261 1055,-261 1055,-242 1197,-242 1197,-261"/>
<text text-anchor="middle" x="1126" y="-249" font-family="Helvetica,sans-Serif" font-size="10.00">Kit/_testsupport/helpers.h</text>
</a>
</g>
</g>
<!-- Node26&#45;&gt;Node32 -->
<g id="edge35_Node000026_Node000032" class="edge">
<title>Node26&#45;&gt;Node32</title>
<g id="a_edge35_Node000026_Node000032"><a xlink:title=" ">
<path fill="none" stroke="#63b8ff" d="M1014.82,-293.42C1041.53,-283.59 1078.6,-269.95 1102.44,-261.17"/>
<polygon fill="#63b8ff" stroke="#63b8ff" points="1013.31,-290.25 1005.14,-296.98 1015.73,-296.82 1013.31,-290.25"/>
</a>
</g>
</g>
<!-- Node27&#45;&gt;Node6 -->
<g id="edge29_Node000027_Node000006" class="edge">
<title>Node27&#45;&gt;Node6</title>
<g id="a_edge29_Node000027_Node000006"><a xlink:title=" ">
<path fill="none" stroke="#63b8ff" d="M945.81,-239.25C905.4,-227.94 843.97,-210.75 807.43,-200.52"/>
<polygon fill="#63b8ff" stroke="#63b8ff" points="945.04,-242.67 955.61,-241.99 946.92,-235.93 945.04,-242.67"/>
</a>
</g>
</g>
<!-- Node28 -->
<g id="Node000028" class="node">
<title>Node28</title>
<g id="a_Node000028"><a xlink:href="_input_8h.html" target="_top" xlink:title=" ">
<polygon fill="white" stroke="#666666" points="1054.5,-200.5 955.5,-200.5 955.5,-181.5 1054.5,-181.5 1054.5,-200.5"/>
<text text-anchor="middle" x="1005" y="-188.5" font-family="Helvetica,sans-Serif" font-size="10.00">Kit/Io/File/Input.h</text>
</a>
</g>
</g>
<!-- Node27&#45;&gt;Node28 -->
<g id="edge30_Node000027_Node000028" class="edge">
<title>Node27&#45;&gt;Node28</title>
<g id="a_edge30_Node000027_Node000028"><a xlink:title=" ">
<path fill="none" stroke="#63b8ff" d="M991.9,-232.32C995.33,-221.78 999.49,-208.98 1002.18,-200.67"/>
<polygon fill="#63b8ff" stroke="#63b8ff" points="988.56,-231.28 988.8,-241.87 995.22,-233.44 988.56,-231.28"/>
</a>
</g>
</g>
<!-- Node31 -->
<g id="Node000031" class="node">
<title>Node31</title>
<g id="a_Node000031"><a xlink:href="_std_in_8h.html" target="_top" xlink:title=" ">
<polygon fill="white" stroke="#666666" points="1285.5,-200.5 1178.5,-200.5 1178.5,-181.5 1285.5,-181.5 1285.5,-200.5"/>
<text text-anchor="middle" x="1232" y="-188.5" font-family="Helvetica,sans-Serif" font-size="10.00">Kit/Io/Stdio/StdIn.h</text>
</a>
</g>
</g>
<!-- Node30&#45;&gt;Node31 -->
<g id="edge34_Node000030_Node000031" class="edge">
<title>Node30&#45;&gt;Node31</title>
<g id="a_edge34_Node000030_Node000031"><a xlink:title=" ">
<path fill="none" stroke="#63b8ff" d="M1274.95,-234.59C1263.94,-223.67 1249.73,-209.58 1240.74,-200.67"/>
<polygon fill="#63b8ff" stroke="#63b8ff" points="1272.73,-237.31 1282.29,-241.87 1277.66,-232.34 1272.73,-237.31"/>
</a>
</g>
</g>
<!-- Node33&#45;&gt;Node29 -->
<g id="edge37_Node000033_Node000029" class="edge">
<title>Node33&#45;&gt;Node29</title>
<g id="a_edge37_Node000033_Node000029"><a xlink:title=" ">
<path fill="none" stroke="#63b8ff" d="M864.29,-286.66C863.96,-277.93 863.58,-267.99 863.32,-261.09"/>
<polygon fill="#63b8ff" stroke="#63b8ff" points="860.8,-286.89 864.67,-296.75 867.79,-286.62 860.8,-286.89"/>
</a>
</g>
</g>
<!-- Node36 -->
<g id="Node000036" class="node">
<title>Node36</title>
<g id="a_Node000036"><a xlink:href="_d_string_8h.html" target="_top" xlink:title=" ">
<polygon fill="white" stroke="#666666" points="1665.5,-261 1564.5,-261 1564.5,-242 1665.5,-242 1665.5,-261"/>
<text text-anchor="middle" x="1615" y="-249" font-family="Helvetica,sans-Serif" font-size="10.00">Kit/Text/DString.h</text>
</a>
</g>
</g>
<!-- Node35&#45;&gt;Node36 -->
<g id="edge44_Node000035_Node000036" class="edge">
<title>Node35&#45;&gt;Node36</title>
<g id="a_edge44_Node000035_Node000036"><a xlink:title=" ">
<path fill="none" stroke="#63b8ff" d="M1513.73,-293.16C1538.17,-283.35 1571.74,-269.87 1593.41,-261.17"/>
<polygon fill="#63b8ff" stroke="#63b8ff" points="1512.18,-290.01 1504.21,-296.98 1514.79,-296.51 1512.18,-290.01"/>
</a>
</g>
</g>
<!-- Node38 -->
<g id="Node000038" class="node">
<title>Node38</title>
<g id="a_Node000038"><a xlink:href="_f_string_base_8h.html" target="_top" xlink:title=" ">
<polygon fill="white" stroke="#666666" points="1546.5,-261 1423.5,-261 1423.5,-242 1546.5,-242 1546.5,-261"/>
<text text-anchor="middle" x="1485" y="-249" font-family="Helvetica,sans-Serif" font-size="10.00">Kit/Text/FStringBase.h</text>
</a>
</g>
</g>
<!-- Node35&#45;&gt;Node38 -->
<g id="edge46_Node000035_Node000038" class="edge">
<title>Node35&#45;&gt;Node38</title>
<g id="a_edge46_Node000035_Node000038"><a xlink:title=" ">
<path fill="none" stroke="#63b8ff" d="M1483.71,-286.66C1484.04,-277.93 1484.42,-267.99 1484.68,-261.09"/>
<polygon fill="#63b8ff" stroke="#63b8ff" points="1480.21,-286.62 1483.33,-296.75 1487.2,-286.89 1480.21,-286.62"/>
</a>
</g>
</g>
<!-- Node37 -->
<g id="Node000037" class="node">
<title>Node37</title>
<g id="a_Node000037"><a xlink:href="_d_string_item_8h.html" target="_top" xlink:title=" ">
<polygon fill="white" stroke="#666666" points="1699,-200.5 1575,-200.5 1575,-181.5 1699,-181.5 1699,-200.5"/>
<text text-anchor="middle" x="1637" y="-188.5" font-family="Helvetica,sans-Serif" font-size="10.00">Kit/Text/DStringItem.h</text>
</a>
</g>
</g>
<!-- Node36&#45;&gt;Node37 -->
<g id="edge45_Node000036_Node000037" class="edge">
<title>Node36&#45;&gt;Node37</title>
<g id="a_edge45_Node000036_Node000037"><a xlink:title=" ">
<path fill="none" stroke="#63b8ff" d="M1621.84,-232.32C1625.8,-221.78 1630.62,-208.98 1633.74,-200.67"/>
<polygon fill="#63b8ff" stroke="#63b8ff" points="1618.49,-231.28 1618.25,-241.87 1625.04,-233.74 1618.49,-231.28"/>
</a>
</g>
</g>
<!-- Node39 -->
<g id="Node000039" class="node">
<title>Node39</title>
<g id="a_Node000039"><a xlink:href="_f_string_8h.html" target="_top" xlink:title=" ">
<polygon fill="white" stroke="#666666" points="1537.5,-200.5 1438.5,-200.5 1438.5,-181.5 1537.5,-181.5 1537.5,-200.5"/>
<text text-anchor="middle" x="1488" y="-188.5" font-family="Helvetica,sans-Serif" font-size="10.00">Kit/Text/FString.h</text>
</a>
</g>
</g>
<!-- Node38&#45;&gt;Node39 -->
<g id="edge47_Node000038_Node000039" class="edge">
<title>Node38&#45;&gt;Node39</title>
<g id="a_edge47_Node000038_Node000039"><a xlink:title=" ">
<path fill="none" stroke="#63b8ff" d="M1485.97,-231.66C1486.5,-221.24 1487.14,-208.8 1487.56,-200.67"/>
<polygon fill="#63b8ff" stroke="#63b8ff" points="1482.46,-231.7 1485.44,-241.87 1489.45,-232.06 1482.46,-231.7"/>
</a>
</g>
</g>
<!-- Node40 -->
<g id="Node000040" class="node">
<title>Node40</title>
<g id="a_Node000040"><a xlink:href="_system_8h.html" target="_top" xlink:title=" ">
<polygon fill="white" stroke="#666666" points="1548.5,-134.5 1437.5,-134.5 1437.5,-115.5 1548.5,-115.5 1548.5,-134.5"/>
<text text-anchor="middle" x="1493" y="-122.5" font-family="Helvetica,sans-Serif" font-size="10.00">Kit/Io/File/System.h</text>
</a>
</g>
</g>
<!-- Node39&#45;&gt;Node40 -->
<g id="edge48_Node000039_Node000040" class="edge">
<title>Node39&#45;&gt;Node40</title>
<g id="a_edge48_Node000039_Node000040"><a xlink:title=" ">
<path fill="none" stroke="#63b8ff" d="M1489.48,-171.08C1490.41,-159.13 1491.58,-144.22 1492.3,-134.91"/>
<polygon fill="#63b8ff" stroke="#63b8ff" points="1485.96,-171.13 1488.67,-181.37 1492.94,-171.67 1485.96,-171.13"/>
</a>
</g>
</g>
<!-- Node45 -->
<g id="Node000045" class="node">
<title>Node45</title>
<g id="a_Node000045"><a xlink:href="_socket_2_win32_2_fdio_8h.html" target="_top" xlink:title=" ">
<polygon fill="white" stroke="#666666" points="1677.5,-140 1566.5,-140 1566.5,-110 1677.5,-110 1677.5,-140"/>
<text text-anchor="start" x="1574.5" y="-128" font-family="Helvetica,sans-Serif" font-size="10.00">Kit/Io/Socket/Win32</text>
<text text-anchor="middle" x="1622" y="-117" font-family="Helvetica,sans-Serif" font-size="10.00">/Fdio.h</text>
</a>
</g>
</g>
<!-- Node39&#45;&gt;Node45 -->
<g id="edge54_Node000039_Node000045" class="edge">
<title>Node39&#45;&gt;Node45</title>
<g id="a_edge54_Node000039_Node000045"><a xlink:title=" ">
<path fill="none" stroke="#63b8ff" d="M1515.36,-176.93C1537.78,-166.22 1569.45,-151.1 1592.45,-140.12"/>
<polygon fill="#63b8ff" stroke="#63b8ff" points="1513.59,-173.9 1506.07,-181.37 1516.6,-180.22 1513.59,-173.9"/>
</a>
</g>
</g>
<!-- Node46 -->
<g id="Node000046" class="node">
<title>Node46</title>
<g id="a_Node000046"><a xlink:href="_free_r_t_o_s_2_thread_8h.html" target="_top" xlink:title=" ">
<polygon fill="white" stroke="#666666" points="1089.5,-140 970.5,-140 970.5,-110 1089.5,-110 1089.5,-140"/>
<text text-anchor="start" x="978.5" y="-128" font-family="Helvetica,sans-Serif" font-size="10.00">Kit/System/FreeRTOS</text>
<text text-anchor="middle" x="1030" y="-117" font-family="Helvetica,sans-Serif" font-size="10.00">/Thread.h</text>
</a>
</g>
</g>
<!-- Node39&#45;&gt;Node46 -->
<g id="edge55_Node000039_Node000046" class="edge">
<title>Node39&#45;&gt;Node46</title>
<g id="a_edge55_Node000039_Node000046"><a xlink:title=" ">
<path fill="none" stroke="#63b8ff" d="M1445.55,-179.26C1440,-178.06 1434.38,-176.93 1429,-176 1283.61,-150.92 1244.78,-162.69 1099,-140 1095.98,-139.53 1092.89,-139.02 1089.78,-138.48"/>
<polygon fill="#63b8ff" stroke="#63b8ff" points="1444.85,-182.69 1455.38,-181.5 1446.41,-175.87 1444.85,-182.69"/>
</a>
</g>
</g>
<!-- Node47 -->
<g id="Node000047" class="node">
<title>Node47</title>
<g id="a_Node000047"><a xlink:href="_posix_2_thread_8h.html" target="_top" xlink:title=" ">
<polygon fill="white" stroke="#666666" points="1252.5,-134.5 1107.5,-134.5 1107.5,-115.5 1252.5,-115.5 1252.5,-134.5"/>
<text text-anchor="middle" x="1180" y="-122.5" font-family="Helvetica,sans-Serif" font-size="10.00">Kit/System/Posix/Thread.h</text>
</a>
</g>
</g>
<!-- Node39&#45;&gt;Node47 -->
<g id="edge56_Node000039_Node000047" class="edge">
<title>Node39&#45;&gt;Node47</title>
<g id="a_edge56_Node000039_Node000047"><a xlink:title=" ">
<path fill="none" stroke="#63b8ff" d="M1442.73,-179.09C1438.1,-178.02 1433.46,-176.98 1429,-176 1357.93,-160.44 1275.04,-144.17 1225.08,-134.56"/>
<polygon fill="#63b8ff" stroke="#63b8ff" points="1442.26,-182.57 1452.79,-181.43 1443.85,-175.76 1442.26,-182.57"/>
</a>
</g>
</g>
<!-- Node48 -->
<g id="Node000048" class="node">
<title>Node48</title>
<g id="a_Node000048"><a xlink:href="_win32_2_thread_8h.html" target="_top" xlink:title=" ">
<polygon fill="white" stroke="#666666" points="1419.5,-134.5 1270.5,-134.5 1270.5,-115.5 1419.5,-115.5 1419.5,-134.5"/>
<text text-anchor="middle" x="1345" y="-122.5" font-family="Helvetica,sans-Serif" font-size="10.00">Kit/System/Win32/Thread.h</text>
</a>
</g>
</g>
<!-- Node39&#45;&gt;Node48 -->
<g id="edge57_Node000039_Node000048" class="edge">
<title>Node39&#45;&gt;Node48</title>
<g id="a_edge57_Node000039_Node000048"><a xlink:title=" ">
<path fill="none" stroke="#63b8ff" d="M1459.39,-177.19C1431.2,-164.58 1388.92,-145.66 1364.44,-134.7"/>
<polygon fill="#63b8ff" stroke="#63b8ff" points="1458.16,-180.48 1468.71,-181.37 1461.02,-174.09 1458.16,-180.48"/>
</a>
</g>
</g>
<!-- Node49 -->
<g id="Node000049" class="node">
<title>Node49</title>
<g id="a_Node000049"><a xlink:href="_f_string_item_8h.html" target="_top" xlink:title=" ">
<polygon fill="white" stroke="#666666" points="1818,-134.5 1696,-134.5 1696,-115.5 1818,-115.5 1818,-134.5"/>
<text text-anchor="middle" x="1757" y="-122.5" font-family="Helvetica,sans-Serif" font-size="10.00">Kit/Text/FStringItem.h</text>
</a>
</g>
</g>
<!-- Node39&#45;&gt;Node49 -->
<g id="edge58_Node000039_Node000049" class="edge">
<title>Node39&#45;&gt;Node49</title>
<g id="a_edge58_Node000039_Node000049"><a xlink:title=" ">
<path fill="none" stroke="#63b8ff" d="M1533.81,-179.1C1586.8,-166.49 1672.91,-146.01 1721.21,-134.51"/>
<polygon fill="#63b8ff" stroke="#63b8ff" points="1532.92,-175.72 1524,-181.44 1534.54,-182.53 1532.92,-175.72"/>
</a>
</g>
</g>
<!-- Node41 -->
<g id="Node000041" class="node">
<title>Node41</title>
<g id="a_Node000041"><a xlink:href="_dir_walker_8h.html" target="_top" xlink:title=" ">
<polygon fill="white" stroke="#666666" points="1431.5,-19 1310.5,-19 1310.5,0 1431.5,0 1431.5,-19"/>
<text text-anchor="middle" x="1371" y="-7" font-family="Helvetica,sans-Serif" font-size="10.00">Kit/Io/File/DirWalker.h</text>
</a>
</g>
</g>
<!-- Node40&#45;&gt;Node41 -->
<g id="edge49_Node000040_Node000041" class="edge">
<title>Node40&#45;&gt;Node41</title>
<g id="a_edge49_Node000040_Node000041"><a xlink:title=" ">
<path fill="none" stroke="#63b8ff" d="M1450.97,-112.8C1408.64,-101.09 1348.62,-83.17 1342,-74 1329.23,-56.32 1348.75,-32.11 1361.47,-19.29"/>
<polygon fill="#63b8ff" stroke="#63b8ff" points="1450.21,-116.22 1460.78,-115.48 1452.06,-109.46 1450.21,-116.22"/>
</a>
</g>
</g>
<!-- Node42 -->
<g id="Node000042" class="node">
<title>Node42</title>
<g id="a_Node000042"><a xlink:href="_i_dir_traverser_8h.html" target="_top" xlink:title=" ">
<polygon fill="white" stroke="#666666" points="1487,-74 1351,-74 1351,-55 1487,-55 1487,-74"/>
<text text-anchor="middle" x="1419" y="-62" font-family="Helvetica,sans-Serif" font-size="10.00">Kit/Io/File/IDirTraverser.h</text>
</a>
</g>
</g>
<!-- Node40&#45;&gt;Node42 -->
<g id="edge50_Node000040_Node000042" class="edge">
<title>Node40&#45;&gt;Node42</title>
<g id="a_edge50_Node000040_Node000042"><a xlink:title=" ">
<path fill="none" stroke="#63b8ff" d="M1474.07,-109.04C1460.1,-97.99 1441.57,-83.34 1429.96,-74.17"/>
<polygon fill="#63b8ff" stroke="#63b8ff" points="1472.07,-111.91 1482.08,-115.37 1476.41,-106.42 1472.07,-111.91"/>
</a>
</g>
</g>
<!-- Node43 -->
<g id="Node000043" class="node">
<title>Node43</title>
<g id="a_Node000043"><a xlink:href="_file_2_posix_2_fdio_8h.html" target="_top" xlink:title=" ">
<polygon fill="white" stroke="#666666" points="1630.5,-74 1505.5,-74 1505.5,-55 1630.5,-55 1630.5,-74"/>
<text text-anchor="middle" x="1568" y="-62" font-family="Helvetica,sans-Serif" font-size="10.00">Kit/Io/File/Posix/Fdio.h</text>
</a>
</g>
</g>
<!-- Node40&#45;&gt;Node43 -->
<g id="edge52_Node000040_Node000043" class="edge">
<title>Node40&#45;&gt;Node43</title>
<g id="a_edge52_Node000040_Node000043"><a xlink:title=" ">
<path fill="none" stroke="#63b8ff" d="M1512.18,-109.04C1526.35,-97.99 1545.13,-83.34 1556.89,-74.17"/>
<polygon fill="#63b8ff" stroke="#63b8ff" points="1509.8,-106.46 1504.07,-115.37 1514.1,-111.98 1509.8,-106.46"/>
</a>
</g>
</g>
<!-- Node44 -->
<g id="Node000044" class="node">
<title>Node44</title>
<g id="a_Node000044"><a xlink:href="_file_2_win32_2_fdio_8h.html" target="_top" xlink:title=" ">
<polygon fill="white" stroke="#666666" points="1777.5,-74 1648.5,-74 1648.5,-55 1777.5,-55 1777.5,-74"/>
<text text-anchor="middle" x="1713" y="-62" font-family="Helvetica,sans-Serif" font-size="10.00">Kit/Io/File/Win32/Fdio.h</text>
</a>
</g>
</g>
<!-- Node40&#45;&gt;Node44 -->
<g id="edge53_Node000040_Node000044" class="edge">
<title>Node40&#45;&gt;Node44</title>
<g id="a_edge53_Node000040_Node000044"><a xlink:title=" ">
<path fill="none" stroke="#63b8ff" d="M1534.76,-112.9C1577.3,-101.58 1642.34,-84.29 1680.97,-74.02"/>
<polygon fill="#63b8ff" stroke="#63b8ff" points="1533.75,-109.54 1524.99,-115.49 1535.55,-116.31 1533.75,-109.54"/>
</a>
</g>
</g>
<!-- Node42&#45;&gt;Node41 -->
<g id="edge51_Node000042_Node000041" class="edge">
<title>Node42&#45;&gt;Node41</title>
<g id="a_edge51_Node000042_Node000041"><a xlink:title=" ">
<path fill="none" stroke="#63b8ff" d="M1404.27,-47.24C1395.86,-37.95 1385.65,-26.68 1378.78,-19.09"/>
<polygon fill="#63b8ff" stroke="#63b8ff" points="1401.77,-49.69 1411.07,-54.75 1406.96,-44.99 1401.77,-49.69"/>
</a>
</g>
</g>
<!-- Node50&#45;&gt;Node37 -->
<g id="edge60_Node000050_Node000037" class="edge">
<title>Node50&#45;&gt;Node37</title>
<g id="a_edge60_Node000050_Node000037"><a xlink:title=" ">
<path fill="none" stroke="#63b8ff" d="M1717.63,-236.92C1697.57,-225.74 1669.72,-210.23 1652.56,-200.67"/>
<polygon fill="#63b8ff" stroke="#63b8ff" points="1716.07,-240.06 1726.51,-241.87 1719.47,-233.94 1716.07,-240.06"/>
</a>
</g>
</g>
<!-- Node50&#45;&gt;Node49 -->
<g id="edge61_Node000050_Node000049" class="edge">
<title>Node50&#45;&gt;Node49</title>
<g id="a_edge61_Node000050_Node000049"><a xlink:title=" ">
<path fill="none" stroke="#63b8ff" d="M1744.26,-231.74C1747.56,-204.36 1753.56,-154.58 1755.96,-134.62"/>
<polygon fill="#63b8ff" stroke="#63b8ff" points="1740.75,-231.6 1743.03,-241.94 1747.7,-232.43 1740.75,-231.6"/>
</a>
</g>
</g>
</g>
</svg>
