<?xml version="1.0" encoding="UTF-8" standalone="no"?>
<!DOCTYPE svg PUBLIC "-//W3C//DTD SVG 1.1//EN"
 "http://www.w3.org/Graphics/SVG/1.1/DTD/svg11.dtd">
<!-- Generated by graphviz version 2.43.0 (0)
 -->
<!-- Title: Kit/System/printfchecker.h Pages: 1 -->
<svg width="1823pt" height="445pt"
 viewBox="0.00 0.00 1823.00 445.00" xmlns="http://www.w3.org/2000/svg" xmlns:xlink="http://www.w3.org/1999/xlink">
<g id="graph0" class="graph" transform="scale(1 1) rotate(0) translate(4 441)">
<title>Kit/System/printfchecker.h</title>
<!-- Node1 -->
<g id="Node000001" class="node">
<title>Node1</title>
<g id="a_Node000001"><a xlink:title="This file contains macro that enables the GCC (and Clang) compiler to validate printf flags with thei...">
<polygon fill="#999999" stroke="#666666" points="680.5,-437 535.5,-437 535.5,-418 680.5,-418 680.5,-437"/>
<text text-anchor="middle" x="608" y="-425" font-family="Helvetica,sans-Serif" font-size="10.00">Kit/System/printfchecker.h</text>
</a>
</g>
</g>
<!-- Node2 -->
<g id="Node000002" class="node">
<title>Node2</title>
<g id="a_Node000002"><a xlink:href="_i_line_writer_8h.html" target="_top" xlink:title=" ">
<polygon fill="white" stroke="#666666" points="544.5,-327 437.5,-327 437.5,-308 544.5,-308 544.5,-327"/>
<text text-anchor="middle" x="491" y="-315" font-family="Helvetica,sans-Serif" font-size="10.00">Kit/Io/ILineWriter.h</text>
</a>
</g>
</g>
<!-- Node1&#45;&gt;Node2 -->
<g id="edge1_Node000001_Node000002" class="edge">
<title>Node1&#45;&gt;Node2</title>
<g id="a_edge1_Node000001_Node000002"><a xlink:title=" ">
<path fill="none" stroke="#63b8ff" d="M590.78,-410.61C565.71,-387.47 520.02,-345.29 500.38,-327.16"/>
<polygon fill="#63b8ff" stroke="#63b8ff" points="588.7,-413.45 598.43,-417.66 593.45,-408.31 588.7,-413.45"/>
</a>
</g>
</g>
<!-- Node4 -->
<g id="Node000004" class="node">
<title>Node4</title>
<g id="a_Node000004"><a xlink:href="_i_output_8h.html" target="_top" xlink:title=" ">
<polygon fill="white" stroke="#666666" points="653,-327 563,-327 563,-308 653,-308 653,-327"/>
<text text-anchor="middle" x="608" y="-315" font-family="Helvetica,sans-Serif" font-size="10.00">Kit/Io/IOutput.h</text>
</a>
</g>
</g>
<!-- Node1&#45;&gt;Node4 -->
<g id="edge3_Node000001_Node000004" class="edge">
<title>Node1&#45;&gt;Node4</title>
<g id="a_edge3_Node000001_Node000004"><a xlink:title=" ">
<path fill="none" stroke="#63b8ff" d="M608,-407.48C608,-383.84 608,-344.5 608,-327.16"/>
<polygon fill="#63b8ff" stroke="#63b8ff" points="604.5,-407.66 608,-417.66 611.5,-407.66 604.5,-407.66"/>
</a>
</g>
</g>
<!-- Node20 -->
<g id="Node000020" class="node">
<title>Node20</title>
<g id="a_Node000020"><a xlink:href="_trace_8h.html" target="_top" xlink:title="This file provides an interface for a &#39;printf&#39; tracing mechanism.">
<polygon fill="white" stroke="#666666" points="790.5,-266.5 683.5,-266.5 683.5,-247.5 790.5,-247.5 790.5,-266.5"/>
<text text-anchor="middle" x="737" y="-254.5" font-family="Helvetica,sans-Serif" font-size="10.00">Kit/System/Trace.h</text>
</a>
</g>
</g>
<!-- Node1&#45;&gt;Node20 -->
<g id="edge25_Node000001_Node000020" class="edge">
<title>Node1&#45;&gt;Node20</title>
<g id="a_edge25_Node000001_Node000020"><a xlink:title=" ">
<path fill="none" stroke="#63b8ff" d="M620.95,-409.59C648.03,-374.22 709.83,-293.5 730.28,-266.77"/>
<polygon fill="#63b8ff" stroke="#63b8ff" points="617.87,-407.84 614.57,-417.91 623.43,-412.1 617.87,-407.84"/>
</a>
</g>
</g>
<!-- Node22 -->
<g id="Node000022" class="node">
<title>Node22</title>
<g id="a_Node000022"><a xlink:href="_fatal_error_8h.html" target="_top" xlink:title=" ">
<polygon fill="white" stroke="#666666" points="401,-382 273,-382 273,-363 401,-363 401,-382"/>
<text text-anchor="middle" x="337" y="-370" font-family="Helvetica,sans-Serif" font-size="10.00">Kit/System/FatalError.h</text>
</a>
</g>
</g>
<!-- Node1&#45;&gt;Node22 -->
<g id="edge22_Node000001_Node000022" class="edge">
<title>Node1&#45;&gt;Node22</title>
<g id="a_edge22_Node000001_Node000022"><a xlink:title=" ">
<path fill="none" stroke="#63b8ff" d="M554.64,-416.07C503.84,-406.13 428.29,-391.35 380.88,-382.08"/>
<polygon fill="#63b8ff" stroke="#63b8ff" points="553.97,-419.5 564.46,-417.98 555.32,-412.63 553.97,-419.5"/>
</a>
</g>
</g>
<!-- Node25 -->
<g id="Node000025" class="node">
<title>Node25</title>
<g id="a_Node000025"><a xlink:href="_i_string_8h.html" target="_top" xlink:title=" ">
<polygon fill="white" stroke="#666666" points="971.5,-382 874.5,-382 874.5,-363 971.5,-363 971.5,-382"/>
<text text-anchor="middle" x="923" y="-370" font-family="Helvetica,sans-Serif" font-size="10.00">Kit/Text/IString.h</text>
</a>
</g>
</g>
<!-- Node1&#45;&gt;Node25 -->
<g id="edge26_Node000001_Node000025" class="edge">
<title>Node1&#45;&gt;Node25</title>
<g id="a_edge26_Node000001_Node000025"><a xlink:title=" ">
<path fill="none" stroke="#63b8ff" d="M668.69,-416.29C728.58,-406.21 818.99,-391 874.33,-381.69"/>
<polygon fill="#63b8ff" stroke="#63b8ff" points="667.89,-412.87 658.61,-417.98 669.05,-419.78 667.89,-412.87"/>
</a>
</g>
</g>
<!-- Node3 -->
<g id="Node000003" class="node">
<title>Node3</title>
<g id="a_Node000003"><a xlink:href="_line_writer_8h.html" target="_top" xlink:title=" ">
<polygon fill="white" stroke="#666666" points="104,-266.5 0,-266.5 0,-247.5 104,-247.5 104,-266.5"/>
<text text-anchor="middle" x="52" y="-254.5" font-family="Helvetica,sans-Serif" font-size="10.00">Kit/Io/LineWriter.h</text>
</a>
</g>
</g>
<!-- Node2&#45;&gt;Node3 -->
<g id="edge2_Node000002_Node000003" class="edge">
<title>Node2&#45;&gt;Node3</title>
<g id="a_edge2_Node000002_Node000003"><a xlink:title=" ">
<path fill="none" stroke="#63b8ff" d="M427.08,-307.92C286.41,-290.81 248.63,-295.24 113,-272 104.22,-270.5 94.8,-268.52 86.06,-266.53"/>
<polygon fill="#63b8ff" stroke="#63b8ff" points="427.04,-311.44 437.39,-309.19 427.9,-304.5 427.04,-311.44"/>
</a>
</g>
</g>
<!-- Node4&#45;&gt;Node3 -->
<g id="edge15_Node000004_Node000003" class="edge">
<title>Node4&#45;&gt;Node3</title>
<g id="a_edge15_Node000004_Node000003"><a xlink:title=" ">
<path fill="none" stroke="#63b8ff" d="M552.91,-307.97C356.99,-285.26 304.11,-301.57 113,-272 103.87,-270.59 94.08,-268.57 85.07,-266.5"/>
<polygon fill="#63b8ff" stroke="#63b8ff" points="552.61,-311.46 562.95,-309.15 553.43,-304.51 552.61,-311.46"/>
</a>
</g>
</g>
<!-- Node5 -->
<g id="Node000005" class="node">
<title>Node5</title>
<g id="a_Node000005"><a xlink:href="_file_2_i_output_8h.html" target="_top" xlink:title=" ">
<polygon fill="white" stroke="#666666" points="532,-266.5 422,-266.5 422,-247.5 532,-247.5 532,-266.5"/>
<text text-anchor="middle" x="477" y="-254.5" font-family="Helvetica,sans-Serif" font-size="10.00">Kit/Io/File/IOutput.h</text>
</a>
</g>
</g>
<!-- Node4&#45;&gt;Node5 -->
<g id="edge4_Node000004_Node000005" class="edge">
<title>Node4&#45;&gt;Node5</title>
<g id="a_edge4_Node000004_Node000005"><a xlink:title=" ">
<path fill="none" stroke="#63b8ff" d="M579.52,-303.78C554.24,-292.49 518.01,-276.31 496.07,-266.52"/>
<polygon fill="#63b8ff" stroke="#63b8ff" points="578.39,-307.11 588.95,-307.99 581.25,-300.72 578.39,-307.11"/>
</a>
</g>
</g>
<!-- Node10 -->
<g id="Node000010" class="node">
<title>Node10</title>
<g id="a_Node000010"><a xlink:href="_i_input_output_8h.html" target="_top" xlink:title=" ">
<polygon fill="white" stroke="#666666" points="665.5,-266.5 550.5,-266.5 550.5,-247.5 665.5,-247.5 665.5,-266.5"/>
<text text-anchor="middle" x="608" y="-254.5" font-family="Helvetica,sans-Serif" font-size="10.00">Kit/Io/IInputOutput.h</text>
</a>
</g>
</g>
<!-- Node4&#45;&gt;Node10 -->
<g id="edge9_Node000004_Node000010" class="edge">
<title>Node4&#45;&gt;Node10</title>
<g id="a_edge9_Node000004_Node000010"><a xlink:title=" ">
<path fill="none" stroke="#63b8ff" d="M608,-297.66C608,-287.24 608,-274.8 608,-266.67"/>
<polygon fill="#63b8ff" stroke="#63b8ff" points="604.5,-297.87 608,-307.87 611.5,-297.87 604.5,-297.87"/>
</a>
</g>
</g>
<!-- Node16 -->
<g id="Node000016" class="node">
<title>Node16</title>
<g id="a_Node000016"><a xlink:href="_output_delegate_8h.html" target="_top" xlink:title=" ">
<polygon fill="white" stroke="#666666" points="281.5,-266.5 122.5,-266.5 122.5,-247.5 281.5,-247.5 281.5,-266.5"/>
<text text-anchor="middle" x="202" y="-254.5" font-family="Helvetica,sans-Serif" font-size="10.00">Kit/Io/Stdio/OutputDelegate.h</text>
</a>
</g>
</g>
<!-- Node4&#45;&gt;Node16 -->
<g id="edge16_Node000004_Node000016" class="edge">
<title>Node4&#45;&gt;Node16</title>
<g id="a_edge16_Node000004_Node000016"><a xlink:title=" ">
<path fill="none" stroke="#63b8ff" d="M552.83,-307.85C435.6,-290.72 404.53,-288.7 291,-272 279.39,-270.29 266.95,-268.38 255.15,-266.54"/>
<polygon fill="#63b8ff" stroke="#63b8ff" points="552.53,-311.35 562.93,-309.34 553.54,-304.42 552.53,-311.35"/>
</a>
</g>
</g>
<!-- Node19 -->
<g id="Node000019" class="node">
<title>Node19</title>
<g id="a_Node000019"><a xlink:href="_tee_output_8h.html" target="_top" xlink:title=" ">
<polygon fill="white" stroke="#666666" points="404,-266.5 300,-266.5 300,-247.5 404,-247.5 404,-266.5"/>
<text text-anchor="middle" x="352" y="-254.5" font-family="Helvetica,sans-Serif" font-size="10.00">Kit/Io/TeeOutput.h</text>
</a>
</g>
</g>
<!-- Node4&#45;&gt;Node19 -->
<g id="edge19_Node000004_Node000019" class="edge">
<title>Node4&#45;&gt;Node19</title>
<g id="a_edge19_Node000004_Node000019"><a xlink:title=" ">
<path fill="none" stroke="#63b8ff" d="M560.73,-305.73C521.24,-296.73 463.44,-283.54 413,-272 405.27,-270.23 396.99,-268.33 389.1,-266.52"/>
<polygon fill="#63b8ff" stroke="#63b8ff" points="560.09,-309.17 570.61,-307.98 561.64,-302.35 560.09,-309.17"/>
</a>
</g>
</g>
<!-- Node4&#45;&gt;Node20 -->
<g id="edge20_Node000004_Node000020" class="edge">
<title>Node4&#45;&gt;Node20</title>
<g id="a_edge20_Node000004_Node000020"><a xlink:title=" ">
<path fill="none" stroke="#63b8ff" d="M636.04,-303.78C660.94,-292.49 696.62,-276.31 718.22,-266.52"/>
<polygon fill="#63b8ff" stroke="#63b8ff" points="634.42,-300.68 626.76,-307.99 637.31,-307.05 634.42,-300.68"/>
</a>
</g>
</g>
<!-- Node6 -->
<g id="Node000006" class="node">
<title>Node6</title>
<g id="a_Node000006"><a xlink:href="_file_2_i_input_output_8h.html" target="_top" xlink:title=" ">
<polygon fill="white" stroke="#666666" points="841.5,-200.5 706.5,-200.5 706.5,-181.5 841.5,-181.5 841.5,-200.5"/>
<text text-anchor="middle" x="774" y="-188.5" font-family="Helvetica,sans-Serif" font-size="10.00">Kit/Io/File/IInputOutput.h</text>
</a>
</g>
</g>
<!-- Node5&#45;&gt;Node6 -->
<g id="edge5_Node000005_Node000006" class="edge">
<title>Node5&#45;&gt;Node6</title>
<g id="a_edge5_Node000005_Node000006"><a xlink:title=" ">
<path fill="none" stroke="#63b8ff" d="M526.85,-245.26C585.29,-232.67 680.93,-212.06 734.49,-200.51"/>
<polygon fill="#63b8ff" stroke="#63b8ff" points="525.78,-241.91 516.75,-247.44 527.26,-248.75 525.78,-241.91"/>
</a>
</g>
</g>
<!-- Node9 -->
<g id="Node000009" class="node">
<title>Node9</title>
<g id="a_Node000009"><a xlink:href="_output_8h.html" target="_top" xlink:title=" ">
<polygon fill="white" stroke="#666666" points="377.5,-200.5 270.5,-200.5 270.5,-181.5 377.5,-181.5 377.5,-200.5"/>
<text text-anchor="middle" x="324" y="-188.5" font-family="Helvetica,sans-Serif" font-size="10.00">Kit/Io/File/Output.h</text>
</a>
</g>
</g>
<!-- Node5&#45;&gt;Node9 -->
<g id="edge8_Node000005_Node000009" class="edge">
<title>Node5&#45;&gt;Node9</title>
<g id="a_edge8_Node000005_Node000009"><a xlink:title=" ">
<path fill="none" stroke="#63b8ff" d="M446.78,-243.36C416.63,-230.75 371.11,-211.71 344.8,-200.7"/>
<polygon fill="#63b8ff" stroke="#63b8ff" points="445.79,-246.74 456.37,-247.37 448.49,-240.28 445.79,-246.74"/>
</a>
</g>
</g>
<!-- Node7 -->
<g id="Node000007" class="node">
<title>Node7</title>
<g id="a_Node000007"><a xlink:href="_file_2_input_output_8h.html" target="_top" xlink:title=" ">
<polygon fill="white" stroke="#666666" points="837,-134.5 705,-134.5 705,-115.5 837,-115.5 837,-134.5"/>
<text text-anchor="middle" x="771" y="-122.5" font-family="Helvetica,sans-Serif" font-size="10.00">Kit/Io/File/InputOutput.h</text>
</a>
</g>
</g>
<!-- Node6&#45;&gt;Node7 -->
<g id="edge6_Node000006_Node000007" class="edge">
<title>Node6&#45;&gt;Node7</title>
<g id="a_edge6_Node000006_Node000007"><a xlink:title=" ">
<path fill="none" stroke="#63b8ff" d="M773.11,-171.08C772.55,-159.13 771.85,-144.22 771.42,-134.91"/>
<polygon fill="#63b8ff" stroke="#63b8ff" points="769.63,-171.54 773.6,-181.37 776.62,-171.22 769.63,-171.54"/>
</a>
</g>
</g>
<!-- Node8 -->
<g id="Node000008" class="node">
<title>Node8</title>
<g id="a_Node000008"><a xlink:href="_file_2_null_8h.html" target="_top" xlink:title=" ">
<polygon fill="white" stroke="#666666" points="949,-134.5 855,-134.5 855,-115.5 949,-115.5 949,-134.5"/>
<text text-anchor="middle" x="902" y="-122.5" font-family="Helvetica,sans-Serif" font-size="10.00">Kit/Io/File/Null.h</text>
</a>
</g>
</g>
<!-- Node6&#45;&gt;Node8 -->
<g id="edge7_Node000006_Node000008" class="edge">
<title>Node6&#45;&gt;Node8</title>
<g id="a_edge7_Node000006_Node000008"><a xlink:title=" ">
<path fill="none" stroke="#63b8ff" d="M800.28,-176.86C825.5,-164.25 862.87,-145.56 884.6,-134.7"/>
<polygon fill="#63b8ff" stroke="#63b8ff" points="798.64,-173.77 791.26,-181.37 801.77,-180.03 798.64,-173.77"/>
</a>
</g>
</g>
<!-- Node11 -->
<g id="Node000011" class="node">
<title>Node11</title>
<g id="a_Node000011"><a xlink:href="_null_8h.html" target="_top" xlink:title=" ">
<polygon fill="white" stroke="#666666" points="934,-200.5 860,-200.5 860,-181.5 934,-181.5 934,-200.5"/>
<text text-anchor="middle" x="897" y="-188.5" font-family="Helvetica,sans-Serif" font-size="10.00">Kit/Io/Null.h</text>
</a>
</g>
</g>
<!-- Node10&#45;&gt;Node11 -->
<g id="edge10_Node000010_Node000011" class="edge">
<title>Node10&#45;&gt;Node11</title>
<g id="a_edge10_Node000010_Node000011"><a xlink:title=" ">
<path fill="none" stroke="#63b8ff" d="M658.62,-245.4C664.15,-244.25 669.69,-243.1 675,-242 753.19,-225.83 773.61,-225.64 851,-206 857.31,-204.4 864.05,-202.47 870.36,-200.57"/>
<polygon fill="#63b8ff" stroke="#63b8ff" points="657.82,-241.99 648.74,-247.46 659.24,-248.84 657.82,-241.99"/>
</a>
</g>
</g>
<!-- Node12 -->
<g id="Node000012" class="node">
<title>Node12</title>
<g id="a_Node000012"><a xlink:href="_serial_2_s_t_2_m32_f4_2_input_output_8h.html" target="_top" xlink:title=" ">
<polygon fill="white" stroke="#666666" points="520,-206 396,-206 396,-176 520,-176 520,-206"/>
<text text-anchor="start" x="404" y="-194" font-family="Helvetica,sans-Serif" font-size="10.00">Kit/Io/Serial/ST/M32F4</text>
<text text-anchor="middle" x="458" y="-183" font-family="Helvetica,sans-Serif" font-size="10.00">/InputOutput.h</text>
</a>
</g>
</g>
<!-- Node10&#45;&gt;Node12 -->
<g id="edge11_Node000010_Node000012" class="edge">
<title>Node10&#45;&gt;Node12</title>
<g id="a_edge11_Node000010_Node000012"><a xlink:title=" ">
<path fill="none" stroke="#63b8ff" d="M578.38,-243.36C553.23,-232.63 517.17,-217.25 491.08,-206.12"/>
<polygon fill="#63b8ff" stroke="#63b8ff" points="577.2,-246.66 587.77,-247.37 579.95,-240.23 577.2,-246.66"/>
</a>
</g>
</g>
<!-- Node14 -->
<g id="Node000014" class="node">
<title>Node14</title>
<g id="a_Node000014"><a xlink:href="_socket_2_i_input_output_8h.html" target="_top" xlink:title=" ">
<polygon fill="white" stroke="#666666" points="688,-200.5 538,-200.5 538,-181.5 688,-181.5 688,-200.5"/>
<text text-anchor="middle" x="613" y="-188.5" font-family="Helvetica,sans-Serif" font-size="10.00">Kit/Io/Socket/IInputOutput.h</text>
</a>
</g>
</g>
<!-- Node10&#45;&gt;Node14 -->
<g id="edge13_Node000010_Node000014" class="edge">
<title>Node10&#45;&gt;Node14</title>
<g id="a_edge13_Node000010_Node000014"><a xlink:title=" ">
<path fill="none" stroke="#63b8ff" d="M609.48,-237.08C610.41,-225.13 611.58,-210.22 612.3,-200.91"/>
<polygon fill="#63b8ff" stroke="#63b8ff" points="605.96,-237.13 608.67,-247.37 612.94,-237.67 605.96,-237.13"/>
</a>
</g>
</g>
<!-- Node13 -->
<g id="Node000013" class="node">
<title>Node13</title>
<g id="a_Node000013"><a xlink:href="stdio_8h.html" target="_top" xlink:title="By default the BSP provides a KIT IO Stream for application&#39; console.">
<polygon fill="white" stroke="#666666" points="521,-140 369,-140 369,-110 521,-110 521,-140"/>
<text text-anchor="start" x="377" y="-128" font-family="Helvetica,sans-Serif" font-size="10.00">Kit/Bsp/ST/NUCLEO&#45;F413ZH</text>
<text text-anchor="middle" x="445" y="-117" font-family="Helvetica,sans-Serif" font-size="10.00">/stdio.h</text>
</a>
</g>
</g>
<!-- Node12&#45;&gt;Node13 -->
<g id="edge12_Node000012_Node000013" class="edge">
<title>Node12&#45;&gt;Node13</title>
<g id="a_edge12_Node000012_Node000013"><a xlink:title=" ">
<path fill="none" stroke="#63b8ff" d="M453.09,-165.83C451.33,-157.17 449.41,-147.7 447.88,-140.16"/>
<polygon fill="#63b8ff" stroke="#63b8ff" points="449.69,-166.69 455.11,-175.8 456.55,-165.3 449.69,-166.69"/>
</a>
</g>
</g>
<!-- Node15 -->
<g id="Node000015" class="node">
<title>Node15</title>
<g id="a_Node000015"><a xlink:href="_socket_2_input_output_8h.html" target="_top" xlink:title=" ">
<polygon fill="white" stroke="#666666" points="686.5,-134.5 539.5,-134.5 539.5,-115.5 686.5,-115.5 686.5,-134.5"/>
<text text-anchor="middle" x="613" y="-122.5" font-family="Helvetica,sans-Serif" font-size="10.00">Kit/Io/Socket/InputOutput.h</text>
</a>
</g>
</g>
<!-- Node14&#45;&gt;Node15 -->
<g id="edge14_Node000014_Node000015" class="edge">
<title>Node14&#45;&gt;Node15</title>
<g id="a_edge14_Node000014_Node000015"><a xlink:title=" ">
<path fill="none" stroke="#63b8ff" d="M613,-171.08C613,-159.13 613,-144.22 613,-134.91"/>
<polygon fill="#63b8ff" stroke="#63b8ff" points="609.5,-171.37 613,-181.37 616.5,-171.37 609.5,-171.37"/>
</a>
</g>
</g>
<!-- Node17 -->
<g id="Node000017" class="node">
<title>Node17</title>
<g id="a_Node000017"><a xlink:href="_std_err_8h.html" target="_top" xlink:title=" ">
<polygon fill="white" stroke="#666666" points="252,-200.5 142,-200.5 142,-181.5 252,-181.5 252,-200.5"/>
<text text-anchor="middle" x="197" y="-188.5" font-family="Helvetica,sans-Serif" font-size="10.00">Kit/Io/Stdio/StdErr.h</text>
</a>
</g>
</g>
<!-- Node16&#45;&gt;Node17 -->
<g id="edge17_Node000016_Node000017" class="edge">
<title>Node16&#45;&gt;Node17</title>
<g id="a_edge17_Node000016_Node000017"><a xlink:title=" ">
<path fill="none" stroke="#63b8ff" d="M200.52,-237.08C199.59,-225.13 198.42,-210.22 197.7,-200.91"/>
<polygon fill="#63b8ff" stroke="#63b8ff" points="197.06,-237.67 201.33,-247.37 204.04,-237.13 197.06,-237.67"/>
</a>
</g>
</g>
<!-- Node18 -->
<g id="Node000018" class="node">
<title>Node18</title>
<g id="a_Node000018"><a xlink:href="_std_out_8h.html" target="_top" xlink:title=" ">
<polygon fill="white" stroke="#666666" points="123.5,-200.5 8.5,-200.5 8.5,-181.5 123.5,-181.5 123.5,-200.5"/>
<text text-anchor="middle" x="66" y="-188.5" font-family="Helvetica,sans-Serif" font-size="10.00">Kit/Io/Stdio/StdOut.h</text>
</a>
</g>
</g>
<!-- Node16&#45;&gt;Node18 -->
<g id="edge18_Node000016_Node000018" class="edge">
<title>Node16&#45;&gt;Node18</title>
<g id="a_edge18_Node000016_Node000018"><a xlink:title=" ">
<path fill="none" stroke="#63b8ff" d="M174.44,-243.03C147.63,-230.42 107.67,-211.61 84.49,-200.7"/>
<polygon fill="#63b8ff" stroke="#63b8ff" points="173.12,-246.28 183.66,-247.37 176.1,-239.94 173.12,-246.28"/>
</a>
</g>
</g>
<!-- Node21 -->
<g id="Node000021" class="node">
<title>Node21</title>
<g id="a_Node000021"><a xlink:href="_private_8h.html" target="_top" xlink:title="This file contains a collection of classes, interfaces, etc.">
<polygon fill="white" stroke="#666666" points="1405,-200.5 1289,-200.5 1289,-181.5 1405,-181.5 1405,-200.5"/>
<text text-anchor="middle" x="1347" y="-188.5" font-family="Helvetica,sans-Serif" font-size="10.00">Kit/System/Private.h</text>
</a>
</g>
</g>
<!-- Node20&#45;&gt;Node21 -->
<g id="edge21_Node000020_Node000021" class="edge">
<title>Node20&#45;&gt;Node21</title>
<g id="a_edge21_Node000020_Node000021"><a xlink:title=" ">
<path fill="none" stroke="#63b8ff" d="M780.98,-245.38C787.34,-244.09 793.82,-242.91 800,-242 1011.63,-210.71 1068.17,-235.94 1280,-206 1290,-204.59 1300.75,-202.57 1310.64,-200.5"/>
<polygon fill="#63b8ff" stroke="#63b8ff" points="780.22,-241.97 771.17,-247.47 781.67,-248.81 780.22,-241.97"/>
</a>
</g>
</g>
<!-- Node23 -->
<g id="Node000023" class="node">
<title>Node23</title>
<g id="a_Node000023"><a xlink:href="_posix_2mappings_8h.html" target="_top" xlink:title="This file provides the mappings for Platform specific types, etc.">
<polygon fill="white" stroke="#666666" points="236.5,-327 77.5,-327 77.5,-308 236.5,-308 236.5,-327"/>
<text text-anchor="middle" x="157" y="-315" font-family="Helvetica,sans-Serif" font-size="10.00">Kit/System/Posix/mappings.h</text>
</a>
</g>
</g>
<!-- Node22&#45;&gt;Node23 -->
<g id="edge23_Node000022_Node000023" class="edge">
<title>Node22&#45;&gt;Node23</title>
<g id="a_edge23_Node000022_Node000023"><a xlink:title=" ">
<path fill="none" stroke="#63b8ff" d="M298.13,-360.06C264.49,-350.15 216.58,-336.04 186.15,-327.08"/>
<polygon fill="#63b8ff" stroke="#63b8ff" points="297.5,-363.52 308.08,-362.98 299.48,-356.8 297.5,-363.52"/>
</a>
</g>
</g>
<!-- Node24 -->
<g id="Node000024" class="node">
<title>Node24</title>
<g id="a_Node000024"><a xlink:href="_win32_2mappings_8h.html" target="_top" xlink:title="This file provides the mappings for Platform specific types, etc.">
<polygon fill="white" stroke="#666666" points="419,-327 255,-327 255,-308 419,-308 419,-327"/>
<text text-anchor="middle" x="337" y="-315" font-family="Helvetica,sans-Serif" font-size="10.00">Kit/System/Win32/mappings.h</text>
</a>
</g>
</g>
<!-- Node22&#45;&gt;Node24 -->
<g id="edge24_Node000022_Node000024" class="edge">
<title>Node22&#45;&gt;Node24</title>
<g id="a_edge24_Node000022_Node000024"><a xlink:title=" ">
<path fill="none" stroke="#63b8ff" d="M337,-352.66C337,-343.93 337,-333.99 337,-327.09"/>
<polygon fill="#63b8ff" stroke="#63b8ff" points="333.5,-352.75 337,-362.75 340.5,-352.75 333.5,-352.75"/>
</a>
</g>
</g>
<!-- Node25&#45;&gt;Node2 -->
<g id="edge38_Node000025_Node000002" class="edge">
<title>Node25&#45;&gt;Node2</title>
<g id="a_edge38_Node000025_Node000002"><a xlink:title=" ">
<path fill="none" stroke="#63b8ff" d="M863.98,-364.64C791.1,-356.11 663.35,-340.97 554,-327 550.93,-326.61 547.79,-326.2 544.61,-325.79"/>
<polygon fill="#63b8ff" stroke="#63b8ff" points="863.99,-368.17 874.32,-365.85 864.8,-361.21 863.99,-368.17"/>
</a>
</g>
</g>
<!-- Node25&#45;&gt;Node4 -->
<g id="edge39_Node000025_Node000004" class="edge">
<title>Node25&#45;&gt;Node4</title>
<g id="a_edge39_Node000025_Node000004"><a xlink:title=" ">
<path fill="none" stroke="#63b8ff" d="M864.58,-361.67C803.4,-351.38 708.63,-335.43 653.01,-326.07"/>
<polygon fill="#63b8ff" stroke="#63b8ff" points="864.03,-365.13 874.47,-363.33 865.19,-358.22 864.03,-365.13"/>
</a>
</g>
</g>
<!-- Node25&#45;&gt;Node20 -->
<g id="edge41_Node000025_Node000020" class="edge">
<title>Node25&#45;&gt;Node20</title>
<g id="a_edge41_Node000025_Node000020"><a xlink:title=" ">
<path fill="none" stroke="#63b8ff" d="M876.33,-360.13C852.52,-352.97 823.84,-342.17 801,-327 775.69,-310.18 753.37,-281.38 743.06,-266.88"/>
<polygon fill="#63b8ff" stroke="#63b8ff" points="875.62,-363.57 886.2,-362.98 877.56,-356.84 875.62,-363.57"/>
</a>
</g>
</g>
<!-- Node25&#45;&gt;Node21 -->
<g id="edge40_Node000025_Node000021" class="edge">
<title>Node25&#45;&gt;Node21</title>
<g id="a_edge40_Node000025_Node000021"><a xlink:title=" ">
<path fill="none" stroke="#63b8ff" d="M982.02,-366.4C1087.34,-355.96 1300.88,-328.24 1346,-272 1362.69,-251.2 1354.91,-216.6 1349.97,-200.6"/>
<polygon fill="#63b8ff" stroke="#63b8ff" points="981.48,-362.94 971.87,-367.39 982.16,-369.91 981.48,-362.94"/>
</a>
</g>
</g>
<!-- Node26 -->
<g id="Node000026" class="node">
<title>Node26</title>
<g id="a_Node000026"><a xlink:href="_i_input_8h.html" target="_top" xlink:title=" ">
<polygon fill="white" stroke="#666666" points="1023,-327 941,-327 941,-308 1023,-308 1023,-327"/>
<text text-anchor="middle" x="982" y="-315" font-family="Helvetica,sans-Serif" font-size="10.00">Kit/Io/IInput.h</text>
</a>
</g>
</g>
<!-- Node25&#45;&gt;Node26 -->
<g id="edge27_Node000025_Node000026" class="edge">
<title>Node25&#45;&gt;Node26</title>
<g id="a_edge27_Node000025_Node000026"><a xlink:title=" ">
<path fill="none" stroke="#63b8ff" d="M940.2,-356.04C950.67,-346.64 963.65,-334.98 972.35,-327.17"/>
<polygon fill="#63b8ff" stroke="#63b8ff" points="937.58,-353.7 932.48,-362.98 942.26,-358.91 937.58,-353.7"/>
</a>
</g>
</g>
<!-- Node33 -->
<g id="Node000033" class="node">
<title>Node33</title>
<g id="a_Node000033"><a xlink:href="_i_line_reader_8h.html" target="_top" xlink:title=" ">
<polygon fill="white" stroke="#666666" points="920.5,-327 809.5,-327 809.5,-308 920.5,-308 920.5,-327"/>
<text text-anchor="middle" x="865" y="-315" font-family="Helvetica,sans-Serif" font-size="10.00">Kit/Io/ILineReader.h</text>
</a>
</g>
</g>
<!-- Node25&#45;&gt;Node33 -->
<g id="edge36_Node000025_Node000033" class="edge">
<title>Node25&#45;&gt;Node33</title>
<g id="a_edge36_Node000025_Node000033"><a xlink:title=" ">
<path fill="none" stroke="#63b8ff" d="M906.09,-356.04C895.8,-346.64 883.03,-334.98 874.49,-327.17"/>
<polygon fill="#63b8ff" stroke="#63b8ff" points="903.94,-358.82 913.68,-362.98 908.66,-353.66 903.94,-358.82"/>
</a>
</g>
</g>
<!-- Node34 -->
<g id="Node000034" class="node">
<title>Node34</title>
<g id="a_Node000034"><a xlink:href="_format_8h.html" target="_top" xlink:title=" ">
<polygon fill="white" stroke="#666666" points="1630,-327 1530,-327 1530,-308 1630,-308 1630,-327"/>
<text text-anchor="middle" x="1580" y="-315" font-family="Helvetica,sans-Serif" font-size="10.00">Kit/Text/Format.h</text>
</a>
</g>
</g>
<!-- Node25&#45;&gt;Node34 -->
<g id="edge42_Node000025_Node000034" class="edge">
<title>Node25&#45;&gt;Node34</title>
<g id="a_edge42_Node000025_Node000034"><a xlink:title=" ">
<path fill="none" stroke="#63b8ff" d="M981.84,-368.47C1089.2,-362.64 1323.94,-348.5 1521,-327 1523.88,-326.69 1526.84,-326.34 1529.82,-325.97"/>
<polygon fill="#63b8ff" stroke="#63b8ff" points="981.35,-364.99 971.55,-369.02 981.72,-371.98 981.35,-364.99"/>
</a>
</g>
</g>
<!-- Node35 -->
<g id="Node000035" class="node">
<title>Node35</title>
<g id="a_Node000035"><a xlink:href="_string_base_8h.html" target="_top" xlink:title=" ">
<polygon fill="white" stroke="#666666" points="1512,-327 1394,-327 1394,-308 1512,-308 1512,-327"/>
<text text-anchor="middle" x="1453" y="-315" font-family="Helvetica,sans-Serif" font-size="10.00">Kit/Text/StringBase.h</text>
</a>
</g>
</g>
<!-- Node25&#45;&gt;Node35 -->
<g id="edge43_Node000025_Node000035" class="edge">
<title>Node25&#45;&gt;Node35</title>
<g id="a_edge43_Node000025_Node000035"><a xlink:title=" ">
<path fill="none" stroke="#63b8ff" d="M981.81,-366.08C1068.7,-358.01 1236.48,-342.14 1379,-327 1383.76,-326.49 1388.69,-325.96 1393.64,-325.41"/>
<polygon fill="#63b8ff" stroke="#63b8ff" points="981.25,-362.62 971.62,-367.03 981.9,-369.59 981.25,-362.62"/>
</a>
</g>
</g>
<!-- Node50 -->
<g id="Node000050" class="node">
<title>Node50</title>
<g id="a_Node000050"><a xlink:href="_string_item_8h.html" target="_top" xlink:title=" ">
<polygon fill="white" stroke="#666666" points="1770,-266.5 1654,-266.5 1654,-247.5 1770,-247.5 1770,-266.5"/>
<text text-anchor="middle" x="1712" y="-254.5" font-family="Helvetica,sans-Serif" font-size="10.00">Kit/Text/StringItem.h</text>
</a>
</g>
</g>
<!-- Node25&#45;&gt;Node50 -->
<g id="edge59_Node000025_Node000050" class="edge">
<title>Node25&#45;&gt;Node50</title>
<g id="a_edge59_Node000025_Node000050"><a xlink:title=" ">
<path fill="none" stroke="#63b8ff" d="M981.83,-370.14C1142.27,-366.1 1579.47,-352.85 1639,-327 1669.39,-313.8 1694.88,-282.19 1706.01,-266.76"/>
<polygon fill="#63b8ff" stroke="#63b8ff" points="981.58,-366.64 971.67,-370.39 981.75,-373.64 981.58,-366.64"/>
</a>
</g>
</g>
<!-- Node26&#45;&gt;Node10 -->
<g id="edge31_Node000026_Node000010" class="edge">
<title>Node26&#45;&gt;Node10</title>
<g id="a_edge31_Node000026_Node000010"><a xlink:title=" ">
<path fill="none" stroke="#63b8ff" d="M930.66,-308.1C930.44,-308.07 930.22,-308.03 930,-308 816.85,-290.77 787.75,-291.72 675,-272 665.75,-270.38 655.83,-268.43 646.53,-266.5"/>
<polygon fill="#63b8ff" stroke="#63b8ff" points="930.44,-311.61 940.86,-309.69 931.51,-304.69 930.44,-311.61"/>
</a>
</g>
</g>
<!-- Node27 -->
<g id="Node000027" class="node">
<title>Node27</title>
<g id="a_Node000027"><a xlink:href="_file_2_i_input_8h.html" target="_top" xlink:title=" ">
<polygon fill="white" stroke="#666666" points="1037,-266.5 935,-266.5 935,-247.5 1037,-247.5 1037,-266.5"/>
<text text-anchor="middle" x="986" y="-254.5" font-family="Helvetica,sans-Serif" font-size="10.00">Kit/Io/File/IInput.h</text>
</a>
</g>
</g>
<!-- Node26&#45;&gt;Node27 -->
<g id="edge28_Node000026_Node000027" class="edge">
<title>Node26&#45;&gt;Node27</title>
<g id="a_edge28_Node000026_Node000027"><a xlink:title=" ">
<path fill="none" stroke="#63b8ff" d="M983.29,-297.66C984,-287.24 984.85,-274.8 985.41,-266.67"/>
<polygon fill="#63b8ff" stroke="#63b8ff" points="979.78,-297.65 982.59,-307.87 986.76,-298.13 979.78,-297.65"/>
</a>
</g>
</g>
<!-- Node29 -->
<g id="Node000029" class="node">
<title>Node29</title>
<g id="a_Node000029"><a xlink:href="_line_reader_8h.html" target="_top" xlink:title=" ">
<polygon fill="white" stroke="#666666" points="917,-266.5 809,-266.5 809,-247.5 917,-247.5 917,-266.5"/>
<text text-anchor="middle" x="863" y="-254.5" font-family="Helvetica,sans-Serif" font-size="10.00">Kit/Io/LineReader.h</text>
</a>
</g>
</g>
<!-- Node26&#45;&gt;Node29 -->
<g id="edge32_Node000026_Node000029" class="edge">
<title>Node26&#45;&gt;Node29</title>
<g id="a_edge32_Node000026_Node000029"><a xlink:title=" ">
<path fill="none" stroke="#63b8ff" d="M955.52,-303.48C932.59,-292.21 900.07,-276.23 880.32,-266.52"/>
<polygon fill="#63b8ff" stroke="#63b8ff" points="954.18,-306.72 964.7,-307.99 957.27,-300.44 954.18,-306.72"/>
</a>
</g>
</g>
<!-- Node30 -->
<g id="Node000030" class="node">
<title>Node30</title>
<g id="a_Node000030"><a xlink:href="_input_delegate_8h.html" target="_top" xlink:title=" ">
<polygon fill="white" stroke="#666666" points="1336.5,-266.5 1185.5,-266.5 1185.5,-247.5 1336.5,-247.5 1336.5,-266.5"/>
<text text-anchor="middle" x="1261" y="-254.5" font-family="Helvetica,sans-Serif" font-size="10.00">Kit/Io/Stdio/InputDelegate.h</text>
</a>
</g>
</g>
<!-- Node26&#45;&gt;Node30 -->
<g id="edge33_Node000026_Node000030" class="edge">
<title>Node26&#45;&gt;Node30</title>
<g id="a_edge33_Node000026_Node000030"><a xlink:title=" ">
<path fill="none" stroke="#63b8ff" d="M1032.59,-305.89C1086.46,-294.6 1170.67,-276.94 1220.38,-266.52"/>
<polygon fill="#63b8ff" stroke="#63b8ff" points="1031.64,-302.52 1022.57,-307.99 1033.07,-309.37 1031.64,-302.52"/>
</a>
</g>
</g>
<!-- Node32 -->
<g id="Node000032" class="node">
<title>Node32</title>
<g id="a_Node000032"><a xlink:href="helpers_8h.html" target="_top" xlink:title="This file defines helper functions/interface for writing unit tests.">
<polygon fill="white" stroke="#666666" points="1167,-272 1055,-272 1055,-242 1167,-242 1167,-272"/>
<text text-anchor="start" x="1063" y="-260" font-family="Helvetica,sans-Serif" font-size="10.00">Kit/_support/testing</text>
<text text-anchor="middle" x="1111" y="-249" font-family="Helvetica,sans-Serif" font-size="10.00">/helpers.h</text>
</a>
</g>
</g>
<!-- Node26&#45;&gt;Node32 -->
<g id="edge35_Node000026_Node000032" class="edge">
<title>Node26&#45;&gt;Node32</title>
<g id="a_edge35_Node000026_Node000032"><a xlink:title=" ">
<path fill="none" stroke="#63b8ff" d="M1009.91,-303.84C1030.47,-294.52 1058.43,-281.84 1079.74,-272.18"/>
<polygon fill="#63b8ff" stroke="#63b8ff" points="1008.42,-300.68 1000.76,-307.99 1011.31,-307.05 1008.42,-300.68"/>
</a>
</g>
</g>
<!-- Node27&#45;&gt;Node6 -->
<g id="edge29_Node000027_Node000006" class="edge">
<title>Node27&#45;&gt;Node6</title>
<g id="a_edge29_Node000027_Node000006"><a xlink:title=" ">
<path fill="none" stroke="#63b8ff" d="M947.59,-244.4C905.78,-231.78 839.9,-211.89 802.48,-200.6"/>
<polygon fill="#63b8ff" stroke="#63b8ff" points="946.82,-247.83 957.41,-247.37 948.85,-241.13 946.82,-247.83"/>
</a>
</g>
</g>
<!-- Node28 -->
<g id="Node000028" class="node">
<title>Node28</title>
<g id="a_Node000028"><a xlink:href="_input_8h.html" target="_top" xlink:title=" ">
<polygon fill="white" stroke="#666666" points="1051.5,-200.5 952.5,-200.5 952.5,-181.5 1051.5,-181.5 1051.5,-200.5"/>
<text text-anchor="middle" x="1002" y="-188.5" font-family="Helvetica,sans-Serif" font-size="10.00">Kit/Io/File/Input.h</text>
</a>
</g>
</g>
<!-- Node27&#45;&gt;Node28 -->
<g id="edge30_Node000027_Node000028" class="edge">
<title>Node27&#45;&gt;Node28</title>
<g id="a_edge30_Node000027_Node000028"><a xlink:title=" ">
<path fill="none" stroke="#63b8ff" d="M990.64,-237.45C993.64,-225.43 997.42,-210.32 999.77,-200.91"/>
<polygon fill="#63b8ff" stroke="#63b8ff" points="987.19,-236.82 988.16,-247.37 993.98,-238.52 987.19,-236.82"/>
</a>
</g>
</g>
<!-- Node31 -->
<g id="Node000031" class="node">
<title>Node31</title>
<g id="a_Node000031"><a xlink:href="_std_in_8h.html" target="_top" xlink:title=" ">
<polygon fill="white" stroke="#666666" points="1270.5,-200.5 1163.5,-200.5 1163.5,-181.5 1270.5,-181.5 1270.5,-200.5"/>
<text text-anchor="middle" x="1217" y="-188.5" font-family="Helvetica,sans-Serif" font-size="10.00">Kit/Io/Stdio/StdIn.h</text>
</a>
</g>
</g>
<!-- Node30&#45;&gt;Node31 -->
<g id="edge34_Node000030_Node000031" class="edge">
<title>Node30&#45;&gt;Node31</title>
<g id="a_edge34_Node000030_Node000031"><a xlink:title=" ">
<path fill="none" stroke="#63b8ff" d="M1249.25,-238.91C1240.84,-226.68 1229.86,-210.7 1223.12,-200.91"/>
<polygon fill="#63b8ff" stroke="#63b8ff" points="1246.52,-241.11 1255.07,-247.37 1252.28,-237.15 1246.52,-241.11"/>
</a>
</g>
</g>
<!-- Node33&#45;&gt;Node29 -->
<g id="edge37_Node000033_Node000029" class="edge">
<title>Node33&#45;&gt;Node29</title>
<g id="a_edge37_Node000033_Node000029"><a xlink:title=" ">
<path fill="none" stroke="#63b8ff" d="M864.36,-297.66C864,-287.24 863.57,-274.8 863.3,-266.67"/>
<polygon fill="#63b8ff" stroke="#63b8ff" points="860.87,-297.99 864.7,-307.87 867.86,-297.75 860.87,-297.99"/>
</a>
</g>
</g>
<!-- Node36 -->
<g id="Node000036" class="node">
<title>Node36</title>
<g id="a_Node000036"><a xlink:href="_d_string_8h.html" target="_top" xlink:title=" ">
<polygon fill="white" stroke="#666666" points="1635.5,-266.5 1534.5,-266.5 1534.5,-247.5 1635.5,-247.5 1635.5,-266.5"/>
<text text-anchor="middle" x="1585" y="-254.5" font-family="Helvetica,sans-Serif" font-size="10.00">Kit/Text/DString.h</text>
</a>
</g>
</g>
<!-- Node35&#45;&gt;Node36 -->
<g id="edge44_Node000035_Node000036" class="edge">
<title>Node35&#45;&gt;Node36</title>
<g id="a_edge44_Node000035_Node000036"><a xlink:title=" ">
<path fill="none" stroke="#63b8ff" d="M1481.36,-303.93C1506.84,-292.64 1543.58,-276.36 1565.78,-266.52"/>
<polygon fill="#63b8ff" stroke="#63b8ff" points="1479.92,-300.74 1472.19,-307.99 1482.75,-307.14 1479.92,-300.74"/>
</a>
</g>
</g>
<!-- Node38 -->
<g id="Node000038" class="node">
<title>Node38</title>
<g id="a_Node000038"><a xlink:href="_f_string_base_8h.html" target="_top" xlink:title=" ">
<polygon fill="white" stroke="#666666" points="1516.5,-266.5 1393.5,-266.5 1393.5,-247.5 1516.5,-247.5 1516.5,-266.5"/>
<text text-anchor="middle" x="1455" y="-254.5" font-family="Helvetica,sans-Serif" font-size="10.00">Kit/Text/FStringBase.h</text>
</a>
</g>
</g>
<!-- Node35&#45;&gt;Node38 -->
<g id="edge46_Node000035_Node000038" class="edge">
<title>Node35&#45;&gt;Node38</title>
<g id="a_edge46_Node000035_Node000038"><a xlink:title=" ">
<path fill="none" stroke="#63b8ff" d="M1453.64,-297.66C1454,-287.24 1454.43,-274.8 1454.7,-266.67"/>
<polygon fill="#63b8ff" stroke="#63b8ff" points="1450.14,-297.75 1453.3,-307.87 1457.13,-297.99 1450.14,-297.75"/>
</a>
</g>
</g>
<!-- Node37 -->
<g id="Node000037" class="node">
<title>Node37</title>
<g id="a_Node000037"><a xlink:href="_d_string_item_8h.html" target="_top" xlink:title=" ">
<polygon fill="white" stroke="#666666" points="1681,-200.5 1557,-200.5 1557,-181.5 1681,-181.5 1681,-200.5"/>
<text text-anchor="middle" x="1619" y="-188.5" font-family="Helvetica,sans-Serif" font-size="10.00">Kit/Text/DStringItem.h</text>
</a>
</g>
</g>
<!-- Node36&#45;&gt;Node37 -->
<g id="edge45_Node000036_Node000037" class="edge">
<title>Node36&#45;&gt;Node37</title>
<g id="a_edge45_Node000036_Node000037"><a xlink:title=" ">
<path fill="none" stroke="#63b8ff" d="M1594.46,-238.18C1600.91,-226.05 1609.17,-210.51 1614.27,-200.91"/>
<polygon fill="#63b8ff" stroke="#63b8ff" points="1591.19,-236.9 1589.59,-247.37 1597.37,-240.18 1591.19,-236.9"/>
</a>
</g>
</g>
<!-- Node39 -->
<g id="Node000039" class="node">
<title>Node39</title>
<g id="a_Node000039"><a xlink:href="_f_string_8h.html" target="_top" xlink:title=" ">
<polygon fill="white" stroke="#666666" points="1522.5,-200.5 1423.5,-200.5 1423.5,-181.5 1522.5,-181.5 1522.5,-200.5"/>
<text text-anchor="middle" x="1473" y="-188.5" font-family="Helvetica,sans-Serif" font-size="10.00">Kit/Text/FString.h</text>
</a>
</g>
</g>
<!-- Node38&#45;&gt;Node39 -->
<g id="edge47_Node000038_Node000039" class="edge">
<title>Node38&#45;&gt;Node39</title>
<g id="a_edge47_Node000038_Node000039"><a xlink:title=" ">
<path fill="none" stroke="#63b8ff" d="M1460.22,-237.45C1463.6,-225.43 1467.85,-210.32 1470.5,-200.91"/>
<polygon fill="#63b8ff" stroke="#63b8ff" points="1456.77,-236.79 1457.43,-247.37 1463.5,-238.69 1456.77,-236.79"/>
</a>
</g>
</g>
<!-- Node40 -->
<g id="Node000040" class="node">
<title>Node40</title>
<g id="a_Node000040"><a xlink:href="_system_8h.html" target="_top" xlink:title=" ">
<polygon fill="white" stroke="#666666" points="1545.5,-134.5 1434.5,-134.5 1434.5,-115.5 1545.5,-115.5 1545.5,-134.5"/>
<text text-anchor="middle" x="1490" y="-122.5" font-family="Helvetica,sans-Serif" font-size="10.00">Kit/Io/File/System.h</text>
</a>
</g>
</g>
<!-- Node39&#45;&gt;Node40 -->
<g id="edge48_Node000039_Node000040" class="edge">
<title>Node39&#45;&gt;Node40</title>
<g id="a_edge48_Node000039_Node000040"><a xlink:title=" ">
<path fill="none" stroke="#63b8ff" d="M1477.93,-171.45C1481.12,-159.43 1485.13,-144.32 1487.63,-134.91"/>
<polygon fill="#63b8ff" stroke="#63b8ff" points="1474.48,-170.81 1475.29,-181.37 1481.24,-172.6 1474.48,-170.81"/>
</a>
</g>
</g>
<!-- Node45 -->
<g id="Node000045" class="node">
<title>Node45</title>
<g id="a_Node000045"><a xlink:href="_socket_2_win32_2_fdio_8h.html" target="_top" xlink:title=" ">
<polygon fill="white" stroke="#666666" points="1674.5,-140 1563.5,-140 1563.5,-110 1674.5,-110 1674.5,-140"/>
<text text-anchor="start" x="1571.5" y="-128" font-family="Helvetica,sans-Serif" font-size="10.00">Kit/Io/Socket/Win32</text>
<text text-anchor="middle" x="1619" y="-117" font-family="Helvetica,sans-Serif" font-size="10.00">/Fdio.h</text>
</a>
</g>
</g>
<!-- Node39&#45;&gt;Node45 -->
<g id="edge54_Node000039_Node000045" class="edge">
<title>Node39&#45;&gt;Node45</title>
<g id="a_edge54_Node000039_Node000045"><a xlink:title=" ">
<path fill="none" stroke="#63b8ff" d="M1502.15,-177.22C1526.62,-166.5 1561.52,-151.2 1586.8,-140.12"/>
<polygon fill="#63b8ff" stroke="#63b8ff" points="1500.44,-174.15 1492.69,-181.37 1503.25,-180.56 1500.44,-174.15"/>
</a>
</g>
</g>
<!-- Node46 -->
<g id="Node000046" class="node">
<title>Node46</title>
<g id="a_Node000046"><a xlink:href="_free_r_t_o_s_2_thread_8h.html" target="_top" xlink:title=" ">
<polygon fill="white" stroke="#666666" points="1086.5,-140 967.5,-140 967.5,-110 1086.5,-110 1086.5,-140"/>
<text text-anchor="start" x="975.5" y="-128" font-family="Helvetica,sans-Serif" font-size="10.00">Kit/System/FreeRTOS</text>
<text text-anchor="middle" x="1027" y="-117" font-family="Helvetica,sans-Serif" font-size="10.00">/Thread.h</text>
</a>
</g>
</g>
<!-- Node39&#45;&gt;Node46 -->
<g id="edge55_Node000039_Node000046" class="edge">
<title>Node39&#45;&gt;Node46</title>
<g id="a_edge55_Node000039_Node000046"><a xlink:title=" ">
<path fill="none" stroke="#63b8ff" d="M1429.94,-179.15C1424.59,-177.99 1419.18,-176.9 1414,-176 1273.88,-151.54 1236.5,-162.16 1096,-140 1092.98,-139.52 1089.89,-139.01 1086.78,-138.46"/>
<polygon fill="#63b8ff" stroke="#63b8ff" points="1429.54,-182.65 1440.07,-181.45 1431.09,-175.82 1429.54,-182.65"/>
</a>
</g>
</g>
<!-- Node47 -->
<g id="Node000047" class="node">
<title>Node47</title>
<g id="a_Node000047"><a xlink:href="_posix_2_thread_8h.html" target="_top" xlink:title=" ">
<polygon fill="white" stroke="#666666" points="1249.5,-134.5 1104.5,-134.5 1104.5,-115.5 1249.5,-115.5 1249.5,-134.5"/>
<text text-anchor="middle" x="1177" y="-122.5" font-family="Helvetica,sans-Serif" font-size="10.00">Kit/System/Posix/Thread.h</text>
</a>
</g>
</g>
<!-- Node39&#45;&gt;Node47 -->
<g id="edge56_Node000039_Node000047" class="edge">
<title>Node39&#45;&gt;Node47</title>
<g id="a_edge56_Node000039_Node000047"><a xlink:title=" ">
<path fill="none" stroke="#63b8ff" d="M1427.72,-179.13C1423.09,-178.06 1418.45,-177 1414,-176 1345.88,-160.74 1266.45,-144.24 1219.02,-134.53"/>
<polygon fill="#63b8ff" stroke="#63b8ff" points="1427.24,-182.62 1437.78,-181.49 1428.84,-175.8 1427.24,-182.62"/>
</a>
</g>
</g>
<!-- Node48 -->
<g id="Node000048" class="node">
<title>Node48</title>
<g id="a_Node000048"><a xlink:href="_win32_2_thread_8h.html" target="_top" xlink:title=" ">
<polygon fill="white" stroke="#666666" points="1416.5,-134.5 1267.5,-134.5 1267.5,-115.5 1416.5,-115.5 1416.5,-134.5"/>
<text text-anchor="middle" x="1342" y="-122.5" font-family="Helvetica,sans-Serif" font-size="10.00">Kit/System/Win32/Thread.h</text>
</a>
</g>
</g>
<!-- Node39&#45;&gt;Node48 -->
<g id="edge57_Node000039_Node000048" class="edge">
<title>Node39&#45;&gt;Node48</title>
<g id="a_edge57_Node000039_Node000048"><a xlink:title=" ">
<path fill="none" stroke="#63b8ff" d="M1446.11,-176.86C1420.3,-164.25 1382.04,-145.56 1359.81,-134.7"/>
<polygon fill="#63b8ff" stroke="#63b8ff" points="1444.81,-180.12 1455.33,-181.37 1447.88,-173.83 1444.81,-180.12"/>
</a>
</g>
</g>
<!-- Node49 -->
<g id="Node000049" class="node">
<title>Node49</title>
<g id="a_Node000049"><a xlink:href="_f_string_item_8h.html" target="_top" xlink:title=" ">
<polygon fill="white" stroke="#666666" points="1815,-134.5 1693,-134.5 1693,-115.5 1815,-115.5 1815,-134.5"/>
<text text-anchor="middle" x="1754" y="-122.5" font-family="Helvetica,sans-Serif" font-size="10.00">Kit/Text/FStringItem.h</text>
</a>
</g>
</g>
<!-- Node39&#45;&gt;Node49 -->
<g id="edge58_Node000039_Node000049" class="edge">
<title>Node39&#45;&gt;Node49</title>
<g id="a_edge58_Node000039_Node000049"><a xlink:title=" ">
<path fill="none" stroke="#63b8ff" d="M1520.51,-179.18C1575.83,-166.58 1666.05,-146.03 1716.62,-134.51"/>
<polygon fill="#63b8ff" stroke="#63b8ff" points="1519.58,-175.8 1510.61,-181.44 1521.13,-182.63 1519.58,-175.8"/>
</a>
</g>
</g>
<!-- Node41 -->
<g id="Node000041" class="node">
<title>Node41</title>
<g id="a_Node000041"><a xlink:href="_dir_walker_8h.html" target="_top" xlink:title=" ">
<polygon fill="white" stroke="#666666" points="1428.5,-19 1307.5,-19 1307.5,0 1428.5,0 1428.5,-19"/>
<text text-anchor="middle" x="1368" y="-7" font-family="Helvetica,sans-Serif" font-size="10.00">Kit/Io/File/DirWalker.h</text>
</a>
</g>
</g>
<!-- Node40&#45;&gt;Node41 -->
<g id="edge49_Node000040_Node000041" class="edge">
<title>Node40&#45;&gt;Node41</title>
<g id="a_edge49_Node000040_Node000041"><a xlink:title=" ">
<path fill="none" stroke="#63b8ff" d="M1447.97,-112.8C1405.64,-101.09 1345.62,-83.17 1339,-74 1326.23,-56.32 1345.75,-32.11 1358.47,-19.29"/>
<polygon fill="#63b8ff" stroke="#63b8ff" points="1447.21,-116.22 1457.78,-115.48 1449.06,-109.46 1447.21,-116.22"/>
</a>
</g>
</g>
<!-- Node42 -->
<g id="Node000042" class="node">
<title>Node42</title>
<g id="a_Node000042"><a xlink:href="_i_dir_traverser_8h.html" target="_top" xlink:title=" ">
<polygon fill="white" stroke="#666666" points="1484,-74 1348,-74 1348,-55 1484,-55 1484,-74"/>
<text text-anchor="middle" x="1416" y="-62" font-family="Helvetica,sans-Serif" font-size="10.00">Kit/Io/File/IDirTraverser.h</text>
</a>
</g>
</g>
<!-- Node40&#45;&gt;Node42 -->
<g id="edge50_Node000040_Node000042" class="edge">
<title>Node40&#45;&gt;Node42</title>
<g id="a_edge50_Node000040_Node000042"><a xlink:title=" ">
<path fill="none" stroke="#63b8ff" d="M1471.07,-109.04C1457.1,-97.99 1438.57,-83.34 1426.96,-74.17"/>
<polygon fill="#63b8ff" stroke="#63b8ff" points="1469.07,-111.91 1479.08,-115.37 1473.41,-106.42 1469.07,-111.91"/>
</a>
</g>
</g>
<!-- Node43 -->
<g id="Node000043" class="node">
<title>Node43</title>
<g id="a_Node000043"><a xlink:href="_file_2_posix_2_fdio_8h.html" target="_top" xlink:title=" ">
<polygon fill="white" stroke="#666666" points="1627.5,-74 1502.5,-74 1502.5,-55 1627.5,-55 1627.5,-74"/>
<text text-anchor="middle" x="1565" y="-62" font-family="Helvetica,sans-Serif" font-size="10.00">Kit/Io/File/Posix/Fdio.h</text>
</a>
</g>
</g>
<!-- Node40&#45;&gt;Node43 -->
<g id="edge52_Node000040_Node000043" class="edge">
<title>Node40&#45;&gt;Node43</title>
<g id="a_edge52_Node000040_Node000043"><a xlink:title=" ">
<path fill="none" stroke="#63b8ff" d="M1509.18,-109.04C1523.35,-97.99 1542.13,-83.34 1553.89,-74.17"/>
<polygon fill="#63b8ff" stroke="#63b8ff" points="1506.8,-106.46 1501.07,-115.37 1511.1,-111.98 1506.8,-106.46"/>
</a>
</g>
</g>
<!-- Node44 -->
<g id="Node000044" class="node">
<title>Node44</title>
<g id="a_Node000044"><a xlink:href="_file_2_win32_2_fdio_8h.html" target="_top" xlink:title=" ">
<polygon fill="white" stroke="#666666" points="1774.5,-74 1645.5,-74 1645.5,-55 1774.5,-55 1774.5,-74"/>
<text text-anchor="middle" x="1710" y="-62" font-family="Helvetica,sans-Serif" font-size="10.00">Kit/Io/File/Win32/Fdio.h</text>
</a>
</g>
</g>
<!-- Node40&#45;&gt;Node44 -->
<g id="edge53_Node000040_Node000044" class="edge">
<title>Node40&#45;&gt;Node44</title>
<g id="a_edge53_Node000040_Node000044"><a xlink:title=" ">
<path fill="none" stroke="#63b8ff" d="M1531.76,-112.9C1574.3,-101.58 1639.34,-84.29 1677.97,-74.02"/>
<polygon fill="#63b8ff" stroke="#63b8ff" points="1530.75,-109.54 1521.99,-115.49 1532.55,-116.31 1530.75,-109.54"/>
</a>
</g>
</g>
<!-- Node42&#45;&gt;Node41 -->
<g id="edge51_Node000042_Node000041" class="edge">
<title>Node42&#45;&gt;Node41</title>
<g id="a_edge51_Node000042_Node000041"><a xlink:title=" ">
<path fill="none" stroke="#63b8ff" d="M1401.27,-47.24C1392.86,-37.95 1382.65,-26.68 1375.78,-19.09"/>
<polygon fill="#63b8ff" stroke="#63b8ff" points="1398.77,-49.69 1408.07,-54.75 1403.96,-44.99 1398.77,-49.69"/>
</a>
</g>
</g>
<!-- Node50&#45;&gt;Node37 -->
<g id="edge60_Node000050_Node000037" class="edge">
<title>Node50&#45;&gt;Node37</title>
<g id="a_edge60_Node000050_Node000037"><a xlink:title=" ">
<path fill="none" stroke="#63b8ff" d="M1691.19,-241.68C1672.92,-229.11 1646.94,-211.23 1631.64,-200.7"/>
<polygon fill="#63b8ff" stroke="#63b8ff" points="1689.24,-244.58 1699.46,-247.37 1693.2,-238.82 1689.24,-244.58"/>
</a>
</g>
</g>
<!-- Node50&#45;&gt;Node49 -->
<g id="edge61_Node000050_Node000049" class="edge">
<title>Node50&#45;&gt;Node49</title>
<g id="a_edge61_Node000050_Node000049"><a xlink:title=" ">
<path fill="none" stroke="#63b8ff" d="M1717.94,-237.61C1727.12,-209.19 1744.41,-155.69 1751.18,-134.73"/>
<polygon fill="#63b8ff" stroke="#63b8ff" points="1714.5,-236.88 1714.76,-247.47 1721.16,-239.03 1714.5,-236.88"/>
</a>
</g>
</g>
</g>
</svg>
