<?xml version="1.0" encoding="UTF-8" standalone="no"?>
<!DOCTYPE svg PUBLIC "-//W3C//DTD SVG 1.1//EN"
 "http://www.w3.org/Graphics/SVG/1.1/DTD/svg11.dtd">
<!-- Generated by graphviz version 2.43.0 (0)
 -->
<!-- Title: Kit/Math/real.h Pages: 1 -->
<svg width="209pt" height="82pt"
 viewBox="0.00 0.00 208.50 82.00" xmlns="http://www.w3.org/2000/svg" xmlns:xlink="http://www.w3.org/1999/xlink">
<g id="graph0" class="graph" transform="scale(1 1) rotate(0) translate(4 78)">
<title>Kit/Math/real.h</title>
<!-- Node1 -->
<g id="Node000001" class="node">
<title>Node1</title>
<g id="a_Node000001"><a xlink:title="This file contains a collection of methods comparing, manipulating, etc.">
<polygon fill="#999999" stroke="#666666" points="159,-74 70,-74 70,-55 159,-55 159,-74"/>
<text text-anchor="middle" x="114.5" y="-62" font-family="Helvetica,sans-Serif" font-size="10.00">Kit/Math/real.h</text>
</a>
</g>
</g>
<!-- Node2 -->
<g id="Node000002" class="node">
<title>Node2</title>
<g id="a_Node000002"><a xlink:title=" ">
<polygon fill="#e0e0e0" stroke="#999999" points="73,-19 0,-19 0,0 73,0 73,-19"/>
<text text-anchor="middle" x="36.5" y="-7" font-family="Helvetica,sans-Serif" font-size="10.00">kit_config.h</text>
</a>
</g>
</g>
<!-- Node1&#45;&gt;Node2 -->
<g id="edge1_Node000001_Node000002" class="edge">
<title>Node1&#45;&gt;Node2</title>
<g id="a_edge1_Node000001_Node000002"><a xlink:title=" ">
<path fill="none" stroke="#63b8ff" d="M101.97,-54.98C90.1,-46.92 72.04,-34.65 57.89,-25.03"/>
<polygon fill="#63b8ff" stroke="#63b8ff" points="59.5,-21.9 49.26,-19.17 55.56,-27.69 59.5,-21.9"/>
</a>
</g>
</g>
<!-- Node3 -->
<g id="Node000003" class="node">
<title>Node3</title>
<g id="a_Node000003"><a xlink:title=" ">
<polygon fill="#e0e0e0" stroke="#999999" points="138,-19 91,-19 91,0 138,0 138,-19"/>
<text text-anchor="middle" x="114.5" y="-7" font-family="Helvetica,sans-Serif" font-size="10.00">cmath</text>
</a>
</g>
</g>
<!-- Node1&#45;&gt;Node3 -->
<g id="edge2_Node000001_Node000003" class="edge">
<title>Node1&#45;&gt;Node3</title>
<g id="a_edge2_Node000001_Node000003"><a xlink:title=" ">
<path fill="none" stroke="#63b8ff" d="M114.5,-54.75C114.5,-47.8 114.5,-37.85 114.5,-29.13"/>
<polygon fill="#63b8ff" stroke="#63b8ff" points="118,-29.09 114.5,-19.09 111,-29.09 118,-29.09"/>
</a>
</g>
</g>
<!-- Node4 -->
<g id="Node000004" class="node">
<title>Node4</title>
<g id="a_Node000004"><a xlink:title=" ">
<polygon fill="#e0e0e0" stroke="#999999" points="200.5,-19 156.5,-19 156.5,0 200.5,0 200.5,-19"/>
<text text-anchor="middle" x="178.5" y="-7" font-family="Helvetica,sans-Serif" font-size="10.00">cfloat</text>
</a>
</g>
</g>
<!-- Node1&#45;&gt;Node4 -->
<g id="edge3_Node000001_Node000004" class="edge">
<title>Node1&#45;&gt;Node4</title>
<g id="a_edge3_Node000001_Node000004"><a xlink:title=" ">
<path fill="none" stroke="#63b8ff" d="M124.78,-54.98C134.34,-47.07 148.78,-35.11 160.28,-25.58"/>
<polygon fill="#63b8ff" stroke="#63b8ff" points="162.56,-28.24 168.03,-19.17 158.1,-22.85 162.56,-28.24"/>
</a>
</g>
</g>
</g>
</svg>
