<?xml version="1.0" encoding="UTF-8" standalone="no"?>
<!DOCTYPE svg PUBLIC "-//W3C//DTD SVG 1.1//EN"
 "http://www.w3.org/Graphics/SVG/1.1/DTD/svg11.dtd">
<!-- Generated by graphviz version 2.43.0 (0)
 -->
<!-- Title: Kit/EventQueue/Server.h Pages: 1 -->
<svg width="296pt" height="93pt"
 viewBox="0.00 0.00 295.50 93.00" xmlns="http://www.w3.org/2000/svg" xmlns:xlink="http://www.w3.org/1999/xlink">
<g id="graph0" class="graph" transform="scale(1 1) rotate(0) translate(4 89)">
<title>Kit/EventQueue/Server.h</title>
<!-- Node1 -->
<g id="Node000001" class="node">
<title>Node1</title>
<g id="a_Node000001"><a xlink:title=" ">
<polygon fill="#999999" stroke="#666666" points="222,-85 87,-85 87,-66 222,-66 222,-85"/>
<text text-anchor="middle" x="154.5" y="-73" font-family="Helvetica,sans-Serif" font-size="10.00">Kit/EventQueue/Server.h</text>
</a>
</g>
</g>
<!-- Node2 -->
<g id="Node000002" class="node">
<title>Node2</title>
<g id="a_Node000002"><a xlink:href="_with_periodic_scheduling_8h.html" target="_top" xlink:title=" ">
<polygon fill="white" stroke="#666666" points="157,-30 0,-30 0,0 157,0 157,-30"/>
<text text-anchor="start" x="8" y="-18" font-family="Helvetica,sans-Serif" font-size="10.00">Kit/EventQueue/WithPeriodic</text>
<text text-anchor="middle" x="78.5" y="-7" font-family="Helvetica,sans-Serif" font-size="10.00">Scheduling.h</text>
</a>
</g>
</g>
<!-- Node1&#45;&gt;Node2 -->
<g id="edge1_Node000001_Node000002" class="edge">
<title>Node1&#45;&gt;Node2</title>
<g id="a_edge1_Node000001_Node000002"><a xlink:title=" ">
<path fill="none" stroke="#63b8ff" d="M135.36,-59.77C123.55,-50.68 108.49,-39.09 96.84,-30.11"/>
<polygon fill="#63b8ff" stroke="#63b8ff" points="133.23,-62.54 143.29,-65.87 137.5,-56.99 133.23,-62.54"/>
</a>
</g>
</g>
<!-- Node3 -->
<g id="Node000003" class="node">
<title>Node3</title>
<g id="a_Node000003"><a xlink:href="helpers_8h.html" target="_top" xlink:title="This file defines helper functions/interface for writing unit tests.">
<polygon fill="white" stroke="#666666" points="287.5,-30 175.5,-30 175.5,0 287.5,0 287.5,-30"/>
<text text-anchor="start" x="183.5" y="-18" font-family="Helvetica,sans-Serif" font-size="10.00">Kit/_support/testing</text>
<text text-anchor="middle" x="231.5" y="-7" font-family="Helvetica,sans-Serif" font-size="10.00">/helpers.h</text>
</a>
</g>
</g>
<!-- Node1&#45;&gt;Node3 -->
<g id="edge2_Node000001_Node000003" class="edge">
<title>Node1&#45;&gt;Node3</title>
<g id="a_edge2_Node000001_Node000003"><a xlink:title=" ">
<path fill="none" stroke="#63b8ff" d="M173.89,-59.77C185.85,-50.68 201.11,-39.09 212.92,-30.11"/>
<polygon fill="#63b8ff" stroke="#63b8ff" points="171.71,-57.03 165.86,-65.87 175.94,-62.61 171.71,-57.03"/>
</a>
</g>
</g>
</g>
</svg>
