<?xml version="1.0" encoding="UTF-8" standalone="no"?>
<!DOCTYPE svg PUBLIC "-//W3C//DTD SVG 1.1//EN"
 "http://www.w3.org/Graphics/SVG/1.1/DTD/svg11.dtd">
<!-- Generated by graphviz version 2.43.0 (0)
 -->
<!-- Title: Kit::Io::Serial::ST::M32F4::StreamDriver::HalMapping_T Pages: 1 -->
<svg width="852pt" height="205pt"
 viewBox="0.00 0.00 852.00 204.85" xmlns="http://www.w3.org/2000/svg" xmlns:xlink="http://www.w3.org/1999/xlink">
<g id="graph0" class="graph" transform="scale(1 1) rotate(0) translate(4 200.85)">
<title>Kit::Io::Serial::ST::M32F4::StreamDriver::HalMapping_T</title>
<!-- Node1 -->
<g id="Node000001" class="node">
<title>Node1</title>
<g id="a_Node000001"><a xlink:title="Used to map a HAL UART Handle to an instance of this class.">
<polygon fill="#999999" stroke="#666666" points="570.5,-136.35 443.5,-136.35 443.5,-95.35 570.5,-95.35 570.5,-136.35"/>
<text text-anchor="start" x="451.5" y="-124.35" font-family="Helvetica,sans-Serif" font-size="10.00">Kit::Io::Serial::ST</text>
<text text-anchor="start" x="451.5" y="-113.35" font-family="Helvetica,sans-Serif" font-size="10.00">::M32F4::StreamDriver</text>
<text text-anchor="middle" x="507" y="-102.35" font-family="Helvetica,sans-Serif" font-size="10.00">::HalMapping_T</text>
</a>
</g>
</g>
<!-- Node2 -->
<g id="Node000002" class="node">
<title>Node2</title>
<g id="a_Node000002"><a xlink:href="class_kit_1_1_io_1_1_serial_1_1_s_t_1_1_m32_f4_1_1_stream_driver.html" target="_top" xlink:title="This concrete class implements a non&#45;busy&#45;wait blocking Transmit/Receive Stream UART driver with a SO...">
<polygon fill="white" stroke="#666666" points="843.5,-140.85 716.5,-140.85 716.5,-110.85 843.5,-110.85 843.5,-140.85"/>
<text text-anchor="start" x="724.5" y="-128.85" font-family="Helvetica,sans-Serif" font-size="10.00">Kit::Io::Serial::ST</text>
<text text-anchor="middle" x="780" y="-117.85" font-family="Helvetica,sans-Serif" font-size="10.00">::M32F4::StreamDriver</text>
</a>
</g>
</g>
<!-- Node1&#45;&gt;Node2 -->
<g id="edge13_Node000002_Node000001" class="edge">
<title>Node1&#45;&gt;Node2</title>
<g id="a_edge13_Node000002_Node000001"><a xlink:title=" ">
<path fill="none" stroke="#9a32cd" stroke-dasharray="5,2" d="M581.06,-120.21C585.78,-120.44 590.46,-120.66 595,-120.85 635.39,-122.56 680.79,-123.8 716.39,-124.62"/>
<polygon fill="#9a32cd" stroke="#9a32cd" points="580.88,-116.7 570.72,-119.68 580.52,-123.69 580.88,-116.7"/>
</a>
</g>
<text text-anchor="middle" x="646.5" y="-127.85" font-family="Helvetica,sans-Serif" font-size="10.00" fill="grey"> m_mappings</text>
</g>
<!-- Node2&#45;&gt;Node1 -->
<g id="edge1_Node000001_Node000002" class="edge">
<title>Node2&#45;&gt;Node1</title>
<g id="a_edge1_Node000001_Node000002"><a xlink:title=" ">
<path fill="none" stroke="#9a32cd" stroke-dasharray="5,2" d="M706.26,-110.79C703.47,-110.43 700.72,-110.12 698,-109.85 655.63,-105.71 607.71,-107.26 570.6,-109.83"/>
<polygon fill="#9a32cd" stroke="#9a32cd" points="705.99,-114.28 716.39,-112.23 706.98,-107.35 705.99,-114.28"/>
</a>
</g>
<text text-anchor="middle" x="646.5" y="-112.85" font-family="Helvetica,sans-Serif" font-size="10.00" fill="grey"> driver</text>
</g>
<!-- Node3 -->
<g id="Node000003" class="node">
<title>Node3</title>
<g id="a_Node000003"><a xlink:href="class_kit_1_1_system_1_1_thread.html" target="_top" xlink:title="This mostly abstract class defines the operations that can be performed on a thread.">
<polygon fill="white" stroke="#666666" points="563.5,-39.35 450.5,-39.35 450.5,-20.35 563.5,-20.35 563.5,-39.35"/>
<text text-anchor="middle" x="507" y="-27.35" font-family="Helvetica,sans-Serif" font-size="10.00">Kit::System::Thread</text>
</a>
</g>
</g>
<!-- Node3&#45;&gt;Node2 -->
<g id="edge2_Node000002_Node000003" class="edge">
<title>Node3&#45;&gt;Node2</title>
<g id="a_edge2_Node000002_Node000003"><a xlink:title=" ">
<path fill="none" stroke="#9a32cd" stroke-dasharray="5,2" d="M564.24,-41.65C602.65,-50.57 654.31,-64.28 698,-81.85 717.9,-89.85 739.16,-101.53 754.9,-110.85"/>
<polygon fill="#9a32cd" stroke="#9a32cd" points="564.8,-38.18 554.27,-39.37 563.24,-45.01 564.8,-38.18"/>
</a>
</g>
<text text-anchor="middle" x="646.5" y="-95.85" font-family="Helvetica,sans-Serif" font-size="10.00" fill="grey"> m_rxWaiterPtr</text>
<text text-anchor="middle" x="646.5" y="-84.85" font-family="Helvetica,sans-Serif" font-size="10.00" fill="grey">m_txWaiterPtr</text>
</g>
<!-- Node7 -->
<g id="Node000007" class="node">
<title>Node7</title>
<g id="a_Node000007"><a xlink:href="class_kit_1_1_system_1_1_i_runnable.html" target="_top" xlink:title="This mostly an abstract class defines the interface for an object that is &quot;executed&quot; when a Thread ob...">
<polygon fill="white" stroke="#666666" points="844,-22.35 716,-22.35 716,-3.35 844,-3.35 844,-22.35"/>
<text text-anchor="middle" x="780" y="-10.35" font-family="Helvetica,sans-Serif" font-size="10.00">Kit::System::IRunnable</text>
</a>
</g>
</g>
<!-- Node3&#45;&gt;Node7 -->
<g id="edge8_Node000007_Node000003" class="edge">
<title>Node3&#45;&gt;Node7</title>
<g id="a_edge8_Node000007_Node000003"><a xlink:title=" ">
<path fill="none" stroke="#9a32cd" stroke-dasharray="5,2" d="M542.87,-16.9C558.56,-11.74 577.47,-6.41 595,-3.85 634.87,1.98 680.07,-0.11 715.69,-3.73"/>
<polygon fill="#9a32cd" stroke="#9a32cd" points="541.4,-13.71 533.07,-20.25 543.66,-20.33 541.4,-13.71"/>
</a>
</g>
<text text-anchor="middle" x="646.5" y="-6.85" font-family="Helvetica,sans-Serif" font-size="10.00" fill="grey"> m_parentThreadPtr_</text>
</g>
<!-- Node4 -->
<g id="Node000004" class="node">
<title>Node4</title>
<g id="a_Node000004"><a xlink:href="class_kit_1_1_system_1_1_i_signable.html" target="_top" xlink:title="This abstract class defines the interface by which a client can cause an object that is waiting&#45;on&#45;a&#45;...">
<polygon fill="white" stroke="#666666" points="333,-105.35 209,-105.35 209,-86.35 333,-86.35 333,-105.35"/>
<text text-anchor="middle" x="271" y="-93.35" font-family="Helvetica,sans-Serif" font-size="10.00">Kit::System::ISignable</text>
</a>
</g>
</g>
<!-- Node4&#45;&gt;Node3 -->
<g id="edge3_Node000003_Node000004" class="edge">
<title>Node4&#45;&gt;Node3</title>
<g id="a_edge3_Node000003_Node000004"><a xlink:title=" ">
<path fill="none" stroke="#63b8ff" d="M316.51,-83.66C324.66,-81.41 333.09,-79.07 341,-76.85 386.75,-64.04 439.54,-48.95 472.84,-39.39"/>
<polygon fill="#63b8ff" stroke="#63b8ff" points="315.48,-80.31 306.76,-86.34 317.34,-87.06 315.48,-80.31"/>
</a>
</g>
</g>
<!-- Node5 -->
<g id="Node000005" class="node">
<title>Node5</title>
<g id="a_Node000005"><a xlink:href="class_kit_1_1_container_1_1_list_item.html" target="_top" xlink:title="This class is used by the Container classes to implement a various types of linked lists containers.">
<polygon fill="white" stroke="#666666" points="335.5,-39.35 206.5,-39.35 206.5,-20.35 335.5,-20.35 335.5,-39.35"/>
<text text-anchor="middle" x="271" y="-27.35" font-family="Helvetica,sans-Serif" font-size="10.00">Kit::Container::ListItem</text>
</a>
</g>
</g>
<!-- Node5&#45;&gt;Node3 -->
<g id="edge4_Node000003_Node000005" class="edge">
<title>Node5&#45;&gt;Node3</title>
<g id="a_edge4_Node000003_Node000005"><a xlink:title=" ">
<path fill="none" stroke="#63b8ff" d="M345.93,-29.85C379.73,-29.85 419.11,-29.85 450.35,-29.85"/>
<polygon fill="#63b8ff" stroke="#63b8ff" points="345.63,-26.35 335.63,-29.85 345.63,-33.35 345.63,-26.35"/>
</a>
</g>
</g>
<!-- Node5&#45;&gt;Node5 -->
<g id="edge6_Node000005_Node000005" class="edge">
<title>Node5&#45;&gt;Node5</title>
<g id="a_edge6_Node000005_Node000005"><a xlink:title=" ">
<path fill="none" stroke="#9a32cd" stroke-dasharray="5,2" d="M254.79,-49.26C256.07,-53.91 261.47,-57.35 271,-57.35 286.64,-57.35 291.16,-48.08 284.56,-39.43"/>
<polygon fill="#9a32cd" stroke="#9a32cd" points="258.22,-50 257.44,-39.43 251.46,-48.18 258.22,-50"/>
</a>
</g>
<text text-anchor="middle" x="271" y="-60.35" font-family="Helvetica,sans-Serif" font-size="10.00" fill="grey"> m_nextPtr_</text>
</g>
<!-- Node6 -->
<g id="Node000006" class="node">
<title>Node6</title>
<g id="a_Node000006"><a xlink:href="class_kit_1_1_container_1_1_item.html" target="_top" xlink:title="This class is used by the Intrusive Container classes to enforce the semantic and item/element can be...">
<polygon fill="white" stroke="#666666" points="138,-39.35 26,-39.35 26,-20.35 138,-20.35 138,-39.35"/>
<text text-anchor="middle" x="82" y="-27.35" font-family="Helvetica,sans-Serif" font-size="10.00">Kit::Container::Item</text>
</a>
</g>
</g>
<!-- Node6&#45;&gt;Node5 -->
<g id="edge5_Node000005_Node000006" class="edge">
<title>Node6&#45;&gt;Node5</title>
<g id="a_edge5_Node000005_Node000006"><a xlink:title=" ">
<path fill="none" stroke="#63b8ff" d="M148.1,-29.85C167,-29.85 187.61,-29.85 206.42,-29.85"/>
<polygon fill="#63b8ff" stroke="#63b8ff" points="148.09,-26.35 138.09,-29.85 148.09,-33.35 148.09,-26.35"/>
</a>
</g>
</g>
<!-- Node7&#45;&gt;Node3 -->
<g id="edge7_Node000003_Node000007" class="edge">
<title>Node7&#45;&gt;Node3</title>
<g id="a_edge7_Node000003_Node000007"><a xlink:title=" ">
<path fill="none" stroke="#9a32cd" stroke-dasharray="5,2" d="M705.45,-17.46C660.83,-20.26 604.79,-23.78 563.82,-26.35"/>
<polygon fill="#9a32cd" stroke="#9a32cd" points="705.89,-20.94 715.66,-16.82 705.46,-13.96 705.89,-20.94"/>
</a>
</g>
<text text-anchor="middle" x="646.5" y="-27.85" font-family="Helvetica,sans-Serif" font-size="10.00" fill="grey"> m_runnable</text>
</g>
<!-- Node8 -->
<g id="Node000008" class="node">
<title>Node8</title>
<g id="a_Node000008"><a xlink:href="class_kit_1_1_container_1_1_ring_buffer.html" target="_top" xlink:title=" ">
<polygon fill="white" stroke="#666666" points="577,-191.85 437,-191.85 437,-161.85 577,-161.85 577,-191.85"/>
<text text-anchor="start" x="445" y="-179.85" font-family="Helvetica,sans-Serif" font-size="10.00">Kit::Container::RingBuffer</text>
<text text-anchor="middle" x="507" y="-168.85" font-family="Helvetica,sans-Serif" font-size="10.00">&lt; uint8_t &gt;</text>
</a>
</g>
</g>
<!-- Node8&#45;&gt;Node2 -->
<g id="edge9_Node000002_Node000008" class="edge">
<title>Node8&#45;&gt;Node2</title>
<g id="a_edge9_Node000002_Node000008"><a xlink:title=" ">
<path fill="none" stroke="#9a32cd" stroke-dasharray="5,2" d="M587.06,-161.97C628.13,-154.24 677.63,-144.93 716.07,-137.69"/>
<polygon fill="#9a32cd" stroke="#9a32cd" points="586.27,-158.56 577.09,-163.85 587.56,-165.44 586.27,-158.56"/>
</a>
</g>
<text text-anchor="middle" x="646.5" y="-174.85" font-family="Helvetica,sans-Serif" font-size="10.00" fill="grey"> m_rxBuffer</text>
<text text-anchor="middle" x="646.5" y="-163.85" font-family="Helvetica,sans-Serif" font-size="10.00" fill="grey">m_txBuffer</text>
</g>
<!-- Node9 -->
<g id="Node000009" class="node">
<title>Node9</title>
<g id="a_Node000009"><a xlink:href="class_kit_1_1_container_1_1_ring_buffer_base.html" target="_top" xlink:title="This &#39;implementation&#39; class provide the base functionality for a ring buffer.">
<polygon fill="white" stroke="#666666" points="164,-160.35 0,-160.35 0,-141.35 164,-141.35 164,-160.35"/>
<text text-anchor="middle" x="82" y="-148.35" font-family="Helvetica,sans-Serif" font-size="10.00">Kit::Container::RingBufferBase</text>
</a>
</g>
</g>
<!-- Node9&#45;&gt;Node8 -->
<g id="edge10_Node000008_Node000009" class="edge">
<title>Node9&#45;&gt;Node8</title>
<g id="a_edge10_Node000008_Node000009"><a xlink:title=" ">
<path fill="none" stroke="#63b8ff" d="M174.17,-151.38C223.59,-152.16 285.7,-153.92 341,-157.85 372.5,-160.09 407.24,-163.89 436.68,-167.5"/>
<polygon fill="#63b8ff" stroke="#63b8ff" points="174.19,-147.88 164.14,-151.23 174.09,-154.88 174.19,-147.88"/>
</a>
</g>
</g>
<!-- Node10 -->
<g id="Node000010" class="node">
<title>Node10</title>
<g id="a_Node000010"><a xlink:href="class_kit_1_1_container_1_1_ring_buffer.html" target="_top" xlink:title="This template class implements a Ring Buffer.">
<polygon fill="white" stroke="#666666" points="341,-196.85 201,-196.85 201,-166.85 341,-166.85 341,-196.85"/>
<text text-anchor="start" x="209" y="-184.85" font-family="Helvetica,sans-Serif" font-size="10.00">Kit::Container::RingBuffer</text>
<text text-anchor="middle" x="271" y="-173.85" font-family="Helvetica,sans-Serif" font-size="10.00">&lt; ITEM &gt;</text>
</a>
</g>
</g>
<!-- Node9&#45;&gt;Node10 -->
<g id="edge12_Node000010_Node000009" class="edge">
<title>Node9&#45;&gt;Node10</title>
<g id="a_edge12_Node000010_Node000009"><a xlink:title=" ">
<path fill="none" stroke="#63b8ff" d="M150.42,-162.03C166.83,-164.75 184.4,-167.66 200.88,-170.39"/>
<polygon fill="#63b8ff" stroke="#63b8ff" points="150.81,-158.55 140.38,-160.36 149.67,-165.45 150.81,-158.55"/>
</a>
</g>
</g>
<!-- Node10&#45;&gt;Node8 -->
<g id="edge11_Node000008_Node000010" class="edge">
<title>Node10&#45;&gt;Node8</title>
<g id="a_edge11_Node000008_Node000010"><a xlink:title=" ">
<path fill="none" stroke="orange" stroke-dasharray="5,2" d="M351.33,-180.16C379.11,-179.56 410.05,-178.9 436.92,-178.33"/>
<polygon fill="orange" stroke="orange" points="351.18,-176.66 341.26,-180.37 351.33,-183.66 351.18,-176.66"/>
</a>
</g>
<text text-anchor="middle" x="389" y="-182.85" font-family="Helvetica,sans-Serif" font-size="10.00" fill="grey"> &lt; uint8_t &gt;</text>
</g>
</g>
</svg>
