<?xml version="1.0" encoding="UTF-8" standalone="no"?>
<!DOCTYPE svg PUBLIC "-//W3C//DTD SVG 1.1//EN"
 "http://www.w3.org/Graphics/SVG/1.1/DTD/svg11.dtd">
<!-- Generated by graphviz version 2.43.0 (0)
 -->
<!-- Title: Kit::Io::Serial::ST::M32F4::StreamDriver::HalMapping_T Pages: 1 -->
<svg width="802pt" height="205pt"
 viewBox="0.00 0.00 802.00 204.85" xmlns="http://www.w3.org/2000/svg" xmlns:xlink="http://www.w3.org/1999/xlink">
<g id="graph0" class="graph" transform="scale(1 1) rotate(0) translate(4 200.85)">
<title>Kit::Io::Serial::ST::M32F4::StreamDriver::HalMapping_T</title>
<!-- Node1 -->
<g id="Node000001" class="node">
<title>Node1</title>
<g id="a_Node000001"><a xlink:title="Used to map a HAL UART Handle to an instance of this class.">
<polygon fill="#999999" stroke="#666666" points="520.5,-136.35 393.5,-136.35 393.5,-95.35 520.5,-95.35 520.5,-136.35"/>
<text text-anchor="start" x="401.5" y="-124.35" font-family="Helvetica,sans-Serif" font-size="10.00">Kit::Io::Serial::ST</text>
<text text-anchor="start" x="401.5" y="-113.35" font-family="Helvetica,sans-Serif" font-size="10.00">::M32F4::StreamDriver</text>
<text text-anchor="middle" x="457" y="-102.35" font-family="Helvetica,sans-Serif" font-size="10.00">::HalMapping_T</text>
</a>
</g>
</g>
<!-- Node2 -->
<g id="Node000002" class="node">
<title>Node2</title>
<g id="a_Node000002"><a xlink:href="class_kit_1_1_io_1_1_serial_1_1_s_t_1_1_m32_f4_1_1_stream_driver.html" target="_top" xlink:title="This concrete class implements a non&#45;busy&#45;wait blocking Transmit/Receive Stream UART driver with a SO...">
<polygon fill="white" stroke="#666666" points="793.5,-140.85 666.5,-140.85 666.5,-110.85 793.5,-110.85 793.5,-140.85"/>
<text text-anchor="start" x="674.5" y="-128.85" font-family="Helvetica,sans-Serif" font-size="10.00">Kit::Io::Serial::ST</text>
<text text-anchor="middle" x="730" y="-117.85" font-family="Helvetica,sans-Serif" font-size="10.00">::M32F4::StreamDriver</text>
</a>
</g>
</g>
<!-- Node1&#45;&gt;Node2 -->
<g id="edge13_Node000002_Node000001" class="edge">
<title>Node1&#45;&gt;Node2</title>
<g id="a_edge13_Node000002_Node000001"><a xlink:title=" ">
<path fill="none" stroke="#9a32cd" stroke-dasharray="5,2" d="M531.06,-120.21C535.78,-120.44 540.46,-120.66 545,-120.85 585.39,-122.56 630.79,-123.8 666.39,-124.62"/>
<polygon fill="#9a32cd" stroke="#9a32cd" points="530.88,-116.7 520.72,-119.68 530.52,-123.69 530.88,-116.7"/>
</a>
</g>
<text text-anchor="middle" x="596.5" y="-127.85" font-family="Helvetica,sans-Serif" font-size="10.00" fill="grey"> m_mappings</text>
</g>
<!-- Node2&#45;&gt;Node1 -->
<g id="edge1_Node000001_Node000002" class="edge">
<title>Node2&#45;&gt;Node1</title>
<g id="a_edge1_Node000001_Node000002"><a xlink:title=" ">
<path fill="none" stroke="#9a32cd" stroke-dasharray="5,2" d="M656.26,-110.79C653.47,-110.43 650.72,-110.12 648,-109.85 605.63,-105.71 557.71,-107.26 520.6,-109.83"/>
<polygon fill="#9a32cd" stroke="#9a32cd" points="655.99,-114.28 666.39,-112.23 656.98,-107.35 655.99,-114.28"/>
</a>
</g>
<text text-anchor="middle" x="596.5" y="-112.85" font-family="Helvetica,sans-Serif" font-size="10.00" fill="grey"> driver</text>
</g>
<!-- Node3 -->
<g id="Node000003" class="node">
<title>Node3</title>
<g id="a_Node000003"><a xlink:href="class_kit_1_1_system_1_1_thread.html" target="_top" xlink:title="This mostly abstract class defines the operations that can be performed on a thread.">
<polygon fill="white" stroke="#666666" points="513.5,-39.35 400.5,-39.35 400.5,-20.35 513.5,-20.35 513.5,-39.35"/>
<text text-anchor="middle" x="457" y="-27.35" font-family="Helvetica,sans-Serif" font-size="10.00">Kit::System::Thread</text>
</a>
</g>
</g>
<!-- Node3&#45;&gt;Node2 -->
<g id="edge2_Node000002_Node000003" class="edge">
<title>Node3&#45;&gt;Node2</title>
<g id="a_edge2_Node000002_Node000003"><a xlink:title=" ">
<path fill="none" stroke="#9a32cd" stroke-dasharray="5,2" d="M514.24,-41.65C552.65,-50.57 604.31,-64.28 648,-81.85 667.9,-89.85 689.16,-101.53 704.9,-110.85"/>
<polygon fill="#9a32cd" stroke="#9a32cd" points="514.8,-38.18 504.27,-39.37 513.24,-45.01 514.8,-38.18"/>
</a>
</g>
<text text-anchor="middle" x="596.5" y="-95.85" font-family="Helvetica,sans-Serif" font-size="10.00" fill="grey"> m_rxWaiterPtr</text>
<text text-anchor="middle" x="596.5" y="-84.85" font-family="Helvetica,sans-Serif" font-size="10.00" fill="grey">m_txWaiterPtr</text>
</g>
<!-- Node7 -->
<g id="Node000007" class="node">
<title>Node7</title>
<g id="a_Node000007"><a xlink:href="class_kit_1_1_system_1_1_i_runnable.html" target="_top" xlink:title="This mostly an abstract class defines the interface for an object that is &quot;executed&quot; when a Thread ob...">
<polygon fill="white" stroke="#666666" points="794,-22.35 666,-22.35 666,-3.35 794,-3.35 794,-22.35"/>
<text text-anchor="middle" x="730" y="-10.35" font-family="Helvetica,sans-Serif" font-size="10.00">Kit::System::IRunnable</text>
</a>
</g>
</g>
<!-- Node3&#45;&gt;Node7 -->
<g id="edge8_Node000007_Node000003" class="edge">
<title>Node3&#45;&gt;Node7</title>
<g id="a_edge8_Node000007_Node000003"><a xlink:title=" ">
<path fill="none" stroke="#9a32cd" stroke-dasharray="5,2" d="M492.87,-16.9C508.56,-11.74 527.47,-6.41 545,-3.85 584.87,1.98 630.07,-0.11 665.69,-3.73"/>
<polygon fill="#9a32cd" stroke="#9a32cd" points="491.4,-13.71 483.07,-20.25 493.66,-20.33 491.4,-13.71"/>
</a>
</g>
<text text-anchor="middle" x="596.5" y="-6.85" font-family="Helvetica,sans-Serif" font-size="10.00" fill="grey"> m_parentThreadPtr_</text>
</g>
<!-- Node4 -->
<g id="Node000004" class="node">
<title>Node4</title>
<g id="a_Node000004"><a xlink:href="class_kit_1_1_system_1_1_i_signable.html" target="_top" xlink:title="This abstract class defines the interface by which a client can cause an object that is waiting&#45;on&#45;a&#45;...">
<polygon fill="white" stroke="#666666" points="283,-105.35 159,-105.35 159,-86.35 283,-86.35 283,-105.35"/>
<text text-anchor="middle" x="221" y="-93.35" font-family="Helvetica,sans-Serif" font-size="10.00">Kit::System::ISignable</text>
</a>
</g>
</g>
<!-- Node4&#45;&gt;Node3 -->
<g id="edge3_Node000003_Node000004" class="edge">
<title>Node4&#45;&gt;Node3</title>
<g id="a_edge3_Node000003_Node000004"><a xlink:title=" ">
<path fill="none" stroke="#63b8ff" d="M266.51,-83.66C274.66,-81.41 283.09,-79.07 291,-76.85 336.75,-64.04 389.54,-48.95 422.84,-39.39"/>
<polygon fill="#63b8ff" stroke="#63b8ff" points="265.48,-80.31 256.76,-86.34 267.34,-87.06 265.48,-80.31"/>
</a>
</g>
</g>
<!-- Node5 -->
<g id="Node000005" class="node">
<title>Node5</title>
<g id="a_Node000005"><a xlink:href="class_kit_1_1_container_1_1_list_item.html" target="_top" xlink:title="This class is used by the Container classes to implement a various types of linked lists containers.">
<polygon fill="white" stroke="#666666" points="285.5,-39.35 156.5,-39.35 156.5,-20.35 285.5,-20.35 285.5,-39.35"/>
<text text-anchor="middle" x="221" y="-27.35" font-family="Helvetica,sans-Serif" font-size="10.00">Kit::Container::ListItem</text>
</a>
</g>
</g>
<!-- Node5&#45;&gt;Node3 -->
<g id="edge4_Node000003_Node000005" class="edge">
<title>Node5&#45;&gt;Node3</title>
<g id="a_edge4_Node000003_Node000005"><a xlink:title=" ">
<path fill="none" stroke="#63b8ff" d="M295.93,-29.85C329.73,-29.85 369.11,-29.85 400.35,-29.85"/>
<polygon fill="#63b8ff" stroke="#63b8ff" points="295.63,-26.35 285.63,-29.85 295.63,-33.35 295.63,-26.35"/>
</a>
</g>
</g>
<!-- Node5&#45;&gt;Node5 -->
<g id="edge6_Node000005_Node000005" class="edge">
<title>Node5&#45;&gt;Node5</title>
<g id="a_edge6_Node000005_Node000005"><a xlink:title=" ">
<path fill="none" stroke="#9a32cd" stroke-dasharray="5,2" d="M204.79,-49.26C206.07,-53.91 211.47,-57.35 221,-57.35 236.64,-57.35 241.16,-48.08 234.56,-39.43"/>
<polygon fill="#9a32cd" stroke="#9a32cd" points="208.22,-50 207.44,-39.43 201.46,-48.18 208.22,-50"/>
</a>
</g>
<text text-anchor="middle" x="221" y="-60.35" font-family="Helvetica,sans-Serif" font-size="10.00" fill="grey"> m_nextPtr_</text>
</g>
<!-- Node6 -->
<g id="Node000006" class="node">
<title>Node6</title>
<g id="a_Node000006"><a xlink:href="class_kit_1_1_container_1_1_item.html" target="_top" xlink:title="This class is used by the Intrusive Container classes to enforce the semantic and item/element can be...">
<polygon fill="white" stroke="#666666" points="113,-39.35 1,-39.35 1,-20.35 113,-20.35 113,-39.35"/>
<text text-anchor="middle" x="57" y="-27.35" font-family="Helvetica,sans-Serif" font-size="10.00">Kit::Container::Item</text>
</a>
</g>
</g>
<!-- Node6&#45;&gt;Node5 -->
<g id="edge5_Node000005_Node000006" class="edge">
<title>Node6&#45;&gt;Node5</title>
<g id="a_edge5_Node000005_Node000006"><a xlink:title=" ">
<path fill="none" stroke="#63b8ff" d="M123.52,-29.85C134.34,-29.85 145.54,-29.85 156.31,-29.85"/>
<polygon fill="#63b8ff" stroke="#63b8ff" points="123.3,-26.35 113.3,-29.85 123.3,-33.35 123.3,-26.35"/>
</a>
</g>
</g>
<!-- Node7&#45;&gt;Node3 -->
<g id="edge7_Node000003_Node000007" class="edge">
<title>Node7&#45;&gt;Node3</title>
<g id="a_edge7_Node000003_Node000007"><a xlink:title=" ">
<path fill="none" stroke="#9a32cd" stroke-dasharray="5,2" d="M655.45,-17.46C610.83,-20.26 554.79,-23.78 513.82,-26.35"/>
<polygon fill="#9a32cd" stroke="#9a32cd" points="655.89,-20.94 665.66,-16.82 655.46,-13.96 655.89,-20.94"/>
</a>
</g>
<text text-anchor="middle" x="596.5" y="-27.85" font-family="Helvetica,sans-Serif" font-size="10.00" fill="grey"> m_runnable</text>
</g>
<!-- Node8 -->
<g id="Node000008" class="node">
<title>Node8</title>
<g id="a_Node000008"><a xlink:href="class_kit_1_1_container_1_1_ring_buffer.html" target="_top" xlink:title=" ">
<polygon fill="white" stroke="#666666" points="527,-191.85 387,-191.85 387,-161.85 527,-161.85 527,-191.85"/>
<text text-anchor="start" x="395" y="-179.85" font-family="Helvetica,sans-Serif" font-size="10.00">Kit::Container::RingBuffer</text>
<text text-anchor="middle" x="457" y="-168.85" font-family="Helvetica,sans-Serif" font-size="10.00">&lt; uint8_t &gt;</text>
</a>
</g>
</g>
<!-- Node8&#45;&gt;Node2 -->
<g id="edge9_Node000002_Node000008" class="edge">
<title>Node8&#45;&gt;Node2</title>
<g id="a_edge9_Node000002_Node000008"><a xlink:title=" ">
<path fill="none" stroke="#9a32cd" stroke-dasharray="5,2" d="M537.06,-161.97C578.13,-154.24 627.63,-144.93 666.07,-137.69"/>
<polygon fill="#9a32cd" stroke="#9a32cd" points="536.27,-158.56 527.09,-163.85 537.56,-165.44 536.27,-158.56"/>
</a>
</g>
<text text-anchor="middle" x="596.5" y="-174.85" font-family="Helvetica,sans-Serif" font-size="10.00" fill="grey"> m_rxBuffer</text>
<text text-anchor="middle" x="596.5" y="-163.85" font-family="Helvetica,sans-Serif" font-size="10.00" fill="grey">m_txBuffer</text>
</g>
<!-- Node9 -->
<g id="Node000009" class="node">
<title>Node9</title>
<g id="a_Node000009"><a xlink:title=" ">
<polygon fill="white" stroke="#bfbfbf" points="114,-160.35 0,-160.35 0,-141.35 114,-141.35 114,-160.35"/>
<text text-anchor="middle" x="57" y="-148.35" font-family="Helvetica,sans-Serif" font-size="10.00">RingBufferBaseType</text>
</a>
</g>
</g>
<!-- Node9&#45;&gt;Node8 -->
<g id="edge10_Node000008_Node000009" class="edge">
<title>Node9&#45;&gt;Node8</title>
<g id="a_edge10_Node000008_Node000009"><a xlink:title=" ">
<path fill="none" stroke="#63b8ff" d="M124.37,-151.35C171.03,-152.07 234.9,-153.79 291,-157.85 322.49,-160.13 357.23,-163.94 386.68,-167.55"/>
<polygon fill="#63b8ff" stroke="#63b8ff" points="124.14,-147.85 114.09,-151.21 124.04,-154.85 124.14,-147.85"/>
</a>
</g>
</g>
<!-- Node10 -->
<g id="Node000010" class="node">
<title>Node10</title>
<g id="a_Node000010"><a xlink:href="class_kit_1_1_container_1_1_ring_buffer.html" target="_top" xlink:title="This template class implements a Ring Buffer.">
<polygon fill="white" stroke="#666666" points="291,-196.85 151,-196.85 151,-166.85 291,-166.85 291,-196.85"/>
<text text-anchor="start" x="159" y="-184.85" font-family="Helvetica,sans-Serif" font-size="10.00">Kit::Container::RingBuffer</text>
<text text-anchor="middle" x="221" y="-173.85" font-family="Helvetica,sans-Serif" font-size="10.00">&lt; ITEM &gt;</text>
</a>
</g>
</g>
<!-- Node9&#45;&gt;Node10 -->
<g id="edge12_Node000010_Node000009" class="edge">
<title>Node9&#45;&gt;Node10</title>
<g id="a_edge12_Node000010_Node000009"><a xlink:title=" ">
<path fill="none" stroke="#63b8ff" d="M118,-162.33C128.71,-164.38 139.94,-166.53 150.88,-168.62"/>
<polygon fill="#63b8ff" stroke="#63b8ff" points="118.41,-158.85 107.93,-160.4 117.09,-165.72 118.41,-158.85"/>
</a>
</g>
</g>
<!-- Node10&#45;&gt;Node8 -->
<g id="edge11_Node000008_Node000010" class="edge">
<title>Node10&#45;&gt;Node8</title>
<g id="a_edge11_Node000008_Node000010"><a xlink:title=" ">
<path fill="none" stroke="orange" stroke-dasharray="5,2" d="M301.33,-180.16C329.11,-179.56 360.05,-178.9 386.92,-178.33"/>
<polygon fill="orange" stroke="orange" points="301.18,-176.66 291.26,-180.37 301.33,-183.66 301.18,-176.66"/>
</a>
</g>
<text text-anchor="middle" x="339" y="-182.85" font-family="Helvetica,sans-Serif" font-size="10.00" fill="grey"> &lt; uint8_t &gt;</text>
</g>
</g>
</svg>
